<svg xmlns="http://www.w3.org/2000/svg" width="20" height="20" viewBox="0 0 20 20">
    <defs>
        <clipPath id="lno76j9cqa">
            <path data-name="矩形 10017" transform="translate(879 822)" style="fill:#fff;stroke:#707070" d="M0 0h20v20H0z"/>
        </clipPath>
    </defs>
    <g data-name="蒙版组 2358" transform="translate(-879 -822)" style="clip-path:url(#lno76j9cqa)">
        <path data-name="路径 16121" d="M106.359 69.391a.9.9 0 0 1 .628.233.742.742 0 0 1 .258.571v4.749a.725.725 0 0 1-.258.555.9.9 0 0 1-.628.233h-.29a.9.9 0 0 1-.628-.233.725.725 0 0 1-.258-.555V70.2a.742.742 0 0 1 .258-.571.9.9 0 0 1 .628-.233h.29zm-13.055 0a.844.844 0 0 1 .612.233.764.764 0 0 1 .241.571v4.749a.746.746 0 0 1-.241.555.844.844 0 0 1-.612.233h-.29a.9.9 0 0 1-.628-.233.725.725 0 0 1-.258-.555V70.2a.742.742 0 0 1 .258-.571.9.9 0 0 1 .628-.233h.29zm8.886-3.735a3.447 3.447 0 0 1 .6.354 4.24 4.24 0 0 1 .6.531 3.844 3.844 0 0 1 .507.668 2.705 2.705 0 0 1 .314.765h-9.136a3.237 3.237 0 0 1 .813-1.4 5.5 5.5 0 0 1 1.119-.869l-.821-1.288q-.032-.032-.008-.121a.375.375 0 0 1 .169-.185.341.341 0 0 1 .241-.1.244.244 0 0 1 .145.04l.837 1.32a4.714 4.714 0 0 1 .95-.322 4.83 4.83 0 0 1 3.075.338l.853-1.336a.172.172 0 0 1 .121-.032.64.64 0 0 1 .266.1q.161.08.185.145a.086.086 0 0 1-.008.1l-.821 1.3zM97.7 67.04a.495.495 0 1 0-.354-.145.482.482 0 0 0 .354.145zm3.96-.064a.495.495 0 1 0-.354-.145.482.482 0 0 0 .353.145zm2.56 2.012.016 7.244a.824.824 0 0 1-.233.6.764.764 0 0 1-.571.241h-.232v2.254a.785.785 0 0 1-.233.563.764.764 0 0 1-.571.241h-.467a.746.746 0 0 1-.555-.241.785.785 0 0 1-.233-.563v-2.258h-2.959v2.254a.785.785 0 0 1-.233.563.764.764 0 0 1-.571.241h-.468a.746.746 0 0 1-.555-.241.785.785 0 0 1-.233-.563v-2.254h-.177a.764.764 0 0 1-.571-.241.824.824 0 0 1-.233-.6v-7.24z" transform="translate(789.313 759.934)" style="fill:#fb6943"/>
    </g>
</svg>
