<svg xmlns="http://www.w3.org/2000/svg" width="160" height="60" viewBox="0 0 160 60">
    <defs>
        <clipPath id="2mccf7isna">
            <path data-name="矩形 10020" transform="translate(823 701)" style="fill:#fff;stroke:#707070" d="M0 0h160v60H0z"/>
        </clipPath>
    </defs>
    <g data-name="组 2360" transform="translate(-823 -701)" style="clip-path:url(#2mccf7isna)">
        <path data-name="854e7d29-c3a0-4c06-ac8d-7d48cec7d100" d="M8.6 2.3A9.1 9.1 0 0 1 14.2 4 8.1 8.1 0 0 1 17 9h-4.6a3.823 3.823 0 0 0-1.5-2 4.9 4.9 0 0 0-2.5-.7 3.9 3.9 0 0 0-3 1.4 5.489 5.489 0 0 0-1.2 3.7A5.219 5.219 0 0 0 5.4 15a3.6 3.6 0 0 0 3 1.4 4.2 4.2 0 0 0 4-2.6H17a8.125 8.125 0 0 1-3 4.8 8.6 8.6 0 0 1-5.5 1.8A8.411 8.411 0 0 1 4 19.2 7.7 7.7 0 0 1 1 16a11.968 11.968 0 0 1-1-4.7 11.592 11.592 0 0 1 1-4.7 7.7 7.7 0 0 1 3-3.2 8.8 8.8 0 0 1 4.6-1.1zm26.1.2-6.1 11.8V20h-4.3v-5.9L18.2 2.6H23l3.4 7.1 3.4-7.1h4.8zM47 11a4.73 4.73 0 0 1 2.5 1.6 4.49 4.49 0 0 1 1 2.7 4.683 4.683 0 0 1-1.6 3.6 6.677 6.677 0 0 1-4.3 1.2h-8.2V2.5h8a6.558 6.558 0 0 1 4.2 1.1A4 4 0 0 1 50 7a3.688 3.688 0 0 1-.8 2.6A4 4 0 0 1 47 11zm-6.4-1.3h2.9c1.4 0 2.2-.7 2.2-2 0-1.2-.8-1.8-2.3-1.8h-2.8v3.8zm3.1 7c1.6 0 2.4-.7 2.4-2a2.035 2.035 0 0 0-.6-1.5 3.2 3.2 0 0 0-1.8-.5h-3v4h3zM57 5.8v3.6h6v3.3h-6v3.9h6.7V20h-11V2.5h11v3.4H57zM75.2 20l-3.8-6.6h-1V20h-4.3V2.5h7.3a7.983 7.983 0 0 1 3.6.7 5 5 0 0 1 2.2 2 6.438 6.438 0 0 1 .7 2.8 5.86 5.86 0 0 1-1 3.3 5.759 5.759 0 0 1-3.2 1.9l4.2 7h-4.7zm-4.8-9.6H73a3.677 3.677 0 0 0 2-.5 2.86 2.86 0 0 0 .5-1.7 2.523 2.523 0 0 0-.6-1.7 2.546 2.546 0 0 0-1.9-.6h-2.6v4.5zM87.1 6a6.043 6.043 0 0 1 4.2 1.3 5.455 5.455 0 0 1 2 3.5h-4a1.826 1.826 0 0 0-.8-1.3A2.456 2.456 0 0 0 87 9a1.8 1.8 0 0 0-1.1.3 1 1 0 0 0-.4.9 1.2 1.2 0 0 0 .7 1l2.2.6a20.758 20.758 0 0 1 2.6.8 3.8 3.8 0 0 1 1.8 1.3 3.174 3.174 0 0 1 .7 2.3 3.7 3.7 0 0 1-.6 2.1 4.885 4.885 0 0 1-1.9 1.5 8.361 8.361 0 0 1-2.9.5 6.89 6.89 0 0 1-4.5-1.3 5.116 5.116 0 0 1-2.1-3.5h4.1a1.723 1.723 0 0 0 .8 1.4 2.861 2.861 0 0 0 1.7.4c.5 0 .8 0 1.1-.3a.975.975 0 0 0 .4-.9 1.087 1.087 0 0 0-.7-1 10.71 10.71 0 0 0-2.3-.7 12.641 12.641 0 0 1-2.5-.7 5.229 5.229 0 0 1-1.7-1.2 3.374 3.374 0 0 1-.8-2.3 3.442 3.442 0 0 1 1.5-3 6.155 6.155 0 0 1 4-1.2zm8.4-3.8a2.13 2.13 0 0 1 .7-1.6A2.61 2.61 0 0 1 98 0a2.883 2.883 0 0 1 1.9.6 2.13 2.13 0 0 1 .7 1.6 2 2 0 0 1-.7 1.6 2.352 2.352 0 0 1-1.9.7 2.41 2.41 0 0 1-1.8-.7 2 2 0 0 1-.7-1.5zm4.7 4v14h-4.3v-14h4.3zM111 16.5V20h-1.9a5.586 5.586 0 0 1-3.8-1.2c-1-.8-1.4-2.1-1.4-4v-5H102V6.2h2V2.7h4.2v3.5h2.8v3.6h-2.8V15c0 .5.1 1 .3 1.1a1.9 1.9 0 0 0 1.2.4zm10.3 0V20h-1.9a5.586 5.586 0 0 1-3.8-1.2c-1-.8-1.4-2.1-1.4-4v-5h-1.9V6.2h2V2.7h4.2v3.5h2.8v3.6h-2.8V15c0 .5.1 1 .3 1.1a1.9 1.9 0 0 0 1.2.4h1.3zm15.7-3.7a2.344 2.344 0 0 1-.2 1.1h-9.6a3.2 3.2 0 0 0 .8 2.3 2.666 2.666 0 0 0 1.8.7 2.545 2.545 0 0 0 1.6-.5 1.991 1.991 0 0 0 .8-1.2h4.6a6 6 0 0 1-1.3 2.6 5.167 5.167 0 0 1-2.3 1.8 6.83 6.83 0 0 1-3.2.7 7.126 7.126 0 0 1-3.6-.9 6.4 6.4 0 0 1-2.5-2.4 8.025 8.025 0 0 1-.9-3.9 7.9 7.9 0 0 1 .9-3.8 6 6 0 0 1 2.5-2.4A7.126 7.126 0 0 1 130 6a7.508 7.508 0 0 1 3.7.9 6 6 0 0 1 2.4 2.3 6.871 6.871 0 0 1 .9 3.6zm-4.3-.7a2.57 2.57 0 0 0-2.7-2.7 2.883 2.883 0 0 0-2 .7 3 3 0 0 0-.8 2zm10.8-3.3a6 6 0 0 1 2-2 5.656 5.656 0 0 1 2.8-.8v4.6H147a4.209 4.209 0 0 0-2.6.7 3.073 3.073 0 0 0-1 2.5V20h-4.2V6h4.3v2.8z" transform="translate(830 720.798)" style="fill:#949494;fill-rule:evenodd"/>
    </g>
</svg>
