<svg xmlns="http://www.w3.org/2000/svg" width="20" height="20" viewBox="0 0 20 20">
    <defs>
        <clipPath id="mjn4lz8pna">
            <path data-name="矩形 10016" transform="translate(879 822)" style="fill:#fff;stroke:#707070" d="M0 0h20v20H0z"/>
        </clipPath>
    </defs>
    <g data-name="蒙版组 2357" transform="translate(-879 -822)" style="clip-path:url(#mjn4lz8pna)">
        <g data-name="组 8642">
            <path data-name="路径 16117" d="M158.475 286.3c-.019-2.742 1.522-2.813 1.592-2.857a3.485 3.485 0 0 0-2.695-1.485c-1.147-.117-2.239.662-2.822.662s-1.48-.664-2.431-.647a3.608 3.608 0 0 0-3.05 1.845c-1.3 2.256-.333 5.6.934 7.424.618.9 1.357 1.9 2.327 1.865.933-.037 1.286-.6 2.415-.6s1.445.6 2.433.585c1-.019 1.641-.912 2.254-1.811a8.234 8.234 0 0 0 1.021-2.044 3.908 3.908 0 0 1-1.979-2.932z" transform="translate(734.548 546.263)" style="fill:#fb6943"/>
            <path data-name="路径 16118" d="M511.829 68.9a3.685 3.685 0 0 1 3.685-3.685 3.685 3.685 0 0 1-3.685 3.685z" transform="translate(377.171 759.412)" style="fill:#fb6943"/>
        </g>
    </g>
</svg>
