<svg xmlns="http://www.w3.org/2000/svg" width="160" height="60" viewBox="0 0 160 60">
    <defs>
        <clipPath id="56d8s6rnja">
            <path data-name="矩形 10021" transform="translate(823 701)" style="fill:#fff;stroke:#707070" d="M0 0h160v60H0z"/>
        </clipPath>
    </defs>
    <g data-name="组 8645" transform="translate(-823 -701)" style="clip-path:url(#56d8s6rnja)">
        <g data-name="组 8644">
            <path data-name="路径 16123" d="M11.5 8.9 13 7.5a4 4 0 0 1 4.7.1 2.989 2.989 0 0 1 1 3.4 37.648 37.648 0 0 1-1.3 4.8l-.2 1.1c0 .5 0 .7.5.8a4.119 4.119 0 0 0 3-.6 6.279 6.279 0 0 0 3.3-4.3 7.862 7.862 0 0 0-3-8.4 12.2 12.2 0 0 0-14.3 0 9.772 9.772 0 0 0-4.3 7.2 12.009 12.009 0 0 0 .8 6.2A9.3 9.3 0 0 0 9.1 23a14.658 14.658 0 0 0 5.9.5 12.216 12.216 0 0 0 4.5-1.3l1.5-1q.636.518 1.3 1v.3a10.143 10.143 0 0 1-3.2 1.8 16.5 16.5 0 0 1-14-1.3 11 11 0 0 1-5-7.8A13.534 13.534 0 0 1 3 5a14 14 0 0 1 8-4.7 10.693 10.693 0 0 1 4-.2 12 12 0 0 1 9.8 6A9.367 9.367 0 0 1 23.6 17a7.4 7.4 0 0 1-4.5 2.2 5.434 5.434 0 0 1-2.2 0 2.094 2.094 0 0 1-1.7-2.5 11.627 11.627 0 0 1 .4-1.8l1.2-4a4.145 4.145 0 0 0-.2-1.6 1.819 1.819 0 0 0-1.6-.8 4.212 4.212 0 0 0-2.6 1 7.779 7.779 0 0 0-2 3.8A51.835 51.835 0 0 0 9 18.6a.366.366 0 0 1-.4.4H7l.9-3.3L9.6 9c0-.2 0-.3-.2-.3-.5 0-.5 0-.4-.4l.3-1.1c0-.1 0-.2.2-.2q1.2.114 2.4.2l-.4 1.6" style="fill:#949494;fill-rule:evenodd" transform="translate(832.996 718.359)"/>
        </g>
        <path data-name="路径 16124" d="M76 10.3v9.4a.265.265 0 0 1-.3.3h-1.4c-.2 0-.3 0-.3-.3V7.3c0-.2 0-.3.3-.3a1.9 1.9 0 0 1 1.7.7l6.5 7.3 1.5 1.7.1-.2V7.3c0-.2 0-.3.3-.3h1.4c.1 0 .2 0 .2.2v12.4c0 .3 0 .4-.3.4a2.193 2.193 0 0 1-1.7-.7L76.6 11l-.7-.8m-38.9.1v9.4c0 .2-.1.3-.4.3h-1.4c-.1 0-.2 0-.2-.2V7.4c0-.3 0-.3.3-.4a1.88 1.88 0 0 1 1.7.8l7.8 8.6.3.3V7.4c0-.3 0-.4.3-.4h1.4c.2 0 .2 0 .2.3v12.4c0 .2 0 .3-.3.3a2.193 2.193 0 0 1-1.7-.7L38.5 12l-1.6-1.7m20.3 2.8a3.111 3.111 0 0 0-3.4-2.5 2.9 2.9 0 0 0-2.8 2.5zM55 14.6h-3.8c-.3 0-.3 0-.2.3a3.373 3.373 0 0 0 4.9 2.1 4.813 4.813 0 0 0 1.6-1.2q.15-.3.3 0l.8.8v.3a6.585 6.585 0 0 1-3.4 2 5.244 5.244 0 0 1-5.8-3 5 5 0 0 1 2.3-6.3 4.912 4.912 0 0 1 7.1 3 5.537 5.537 0 0 1 .2 1.8c0 .2 0 .2-.3.2H55zM121 9h1.8c.2 0 .2.1.3.2l1.6 4 1.3 3 .4-.9 2.6-6a.265.265 0 0 1 .3-.3h1.7l-.5 1.1-4 9.7a8.773 8.773 0 0 1-2 3 4 4 0 0 1-2.9 1.2l-.2-.2-.3-1.3.1-.2a3.551 3.551 0 0 0 2.9-2l.8-1.6v-.3l-2.9-6.9-1-2.3V9m-20.2 1.2 1.2-.8a4.1 4.1 0 0 1 4.7.7 4 4 0 0 1 1.3 2.8v5.9c0 .2 0 .2-.3.2h-1.2c-.2 0-.3 0-.3-.3v-5.2a2.972 2.972 0 0 0-.4-1.8 2.1 2.1 0 0 0-1.8-1 2.9 2.9 0 0 0-3.2 2.8v5.2c0 .2 0 .3-.3.3h-1.3c-.1 0-.2 0-.2-.2V9.5c0-.4 0-.4.3-.4h1.2c.2 0 .3 0 .3.2v1m11.9-.1 1.3-.8a4.641 4.641 0 0 1 3.3-.2 4.031 4.031 0 0 1 2.6 3.4v1l.1 5.1c0 .3 0 .3-.3.3h-1.2c-.2 0-.3 0-.3-.3v-5.1a3.887 3.887 0 0 0-.2-1.5 2.175 2.175 0 0 0-2-1.4 2.878 2.878 0 0 0-3.2 2.3v5.7c0 .2 0 .3-.3.3h-1c-.5 0-.5 0-.5-.5V9.7c0-.6 0-.6.6-.6h.8c.3 0 .4 0 .3.3v.8m-18.3 5v-.5c0-.2 0-.4-.2-.4a5.345 5.345 0 0 0-3.3-.2 1.493 1.493 0 0 0-1.3 1.4 1.624 1.624 0 0 0 1 1.8 3 3 0 0 0 2.4.1 1.716 1.716 0 0 0 1.4-2v-.2m0 2.8a4 4 0 0 1-1.6.8 4.056 4.056 0 0 1-3.4-.5 3.05 3.05 0 0 1 .3-5.3 3.719 3.719 0 0 1 2-.5 9.518 9.518 0 0 1 2.5.3c.2 0 .3 0 .2-.2v-.4a1.733 1.733 0 0 0-1.8-1.8 5.845 5.845 0 0 0-1.9.2c-.5.1-1 .4-1 1l-.2.1h-1c-.2 0-.2 0-.2-.2a2.766 2.766 0 0 1 1.3-2 4.248 4.248 0 0 1 1.7-.5 6.342 6.342 0 0 1 3 .5 2.951 2.951 0 0 1 1.6 2.6 17.1 17.1 0 0 1 0 3.2v3.4l-.1.2h-1.1c-.2 0-.3 0-.3-.2V18M63.7 6v3.6c0 .2 0 .3.3.3h1.7c.2 0 .3 0 .3.3v1c0 .2 0 .3-.2.3H64c-.2 0-.3 0-.3.3v7.8c0 .4 0 .4-.3.4h-1.1c-.2 0-.3 0-.3-.3V12c0-.4.1-.4-.3-.4h-1.5c-.1 0-.2 0-.2-.3v-1.1c0-.2 0-.3.2-.3h1.6c.2 0 .3 0 .3-.2V7.2l.1-.3 1.5-.9m73.3 6.5a2.416 2.416 0 0 0 2.5-2.5 2.5 2.5 0 1 0-2.5 2.5m0-5.5a2.914 2.914 0 0 1 3 3.1 3 3 0 1 1-3-3.1M11.4 9.2c0 .2-.1.4-.4.3V9l.4.2" style="fill:#949494;fill-rule:evenodd" transform="translate(832.996 718.359)"/>
        <path data-name="路径 16125" d="M137.3 9.4h.6a.51.51 0 0 0 .4-.5c0-.2-.1-.3-.4-.4h-.7c-.6 0-.5 0-.5.4 0 .5 0 .5.6.5m-1.3.1V8.3c0-.2 0-.3.3-.3h1.7a1.265 1.265 0 0 1 1 .7.77.77 0 0 1-.6 1q-.3.15 0 .3l.5.8-.1.2c-.4 0-.7 0-.9-.3 0-.3-.2-.4-.4-.7 0-.1-.5-.2-.8-.1v.9c0 .2-.1.2-.4.2-.2 0-.3 0-.3-.2V9.5" style="fill:#949494;fill-rule:evenodd" transform="translate(832.996 718.359)"/>
    </g>
</svg>
