<svg width="460" height="324" viewBox="0 0 460 324" fill="none" xmlns="http://www.w3.org/2000/svg">
<rect width="460" height="324" rx="10" fill="#F4F7FD"/>
<rect x="10" y="63.5" width="215" height="70" rx="10" fill="white"/>
<path d="M23.9 96.597C23.484 96.597 23.12 96.714 22.808 96.974C22.548 97.156 22.327 97.429 22.158 97.793V96.779H20.78V103.5H22.158V99.938C22.158 99.353 22.327 98.872 22.678 98.508C23.003 98.17 23.38 98.001 23.796 98.001C24.108 98.001 24.433 98.04 24.771 98.144V96.766C24.537 96.649 24.238 96.597 23.9 96.597ZM25.6169 96.779V100.965C25.6169 102.772 26.4229 103.682 28.0479 103.682C28.8929 103.682 29.5949 103.318 30.1669 102.59V103.5H31.5449V96.779H30.1669V100.887C30.0499 101.381 29.8289 101.784 29.5169 102.083C29.2049 102.369 28.8799 102.525 28.5159 102.525C27.9829 102.525 27.5929 102.382 27.3589 102.122C27.1119 101.862 26.9949 101.446 26.9949 100.874V96.779H25.6169ZM28.478 92.893C28.088 92.893 27.698 92.958 27.308 93.101V93.738C27.685 93.556 28.049 93.465 28.4 93.465C28.907 93.465 29.167 93.608 29.167 93.894C29.167 94.18 28.855 94.479 28.231 94.791L28.595 95.168C29.44 94.843 29.869 94.414 29.869 93.881C29.869 93.218 29.401 92.893 28.478 92.893ZM34.0948 94.088C33.8218 94.088 33.6008 94.166 33.4188 94.348C33.2368 94.517 33.1458 94.738 33.1458 95.011C33.1458 95.271 33.2368 95.505 33.4188 95.687C33.6008 95.856 33.8218 95.947 34.0948 95.947C34.3548 95.947 34.5888 95.856 34.7708 95.687C34.9528 95.505 35.0568 95.284 35.0568 95.011C35.0568 94.738 34.9658 94.517 34.7838 94.348C34.6018 94.166 34.3678 94.088 34.0948 94.088ZM33.4058 96.779V103.5H34.7838V96.779H33.4058ZM44.0982 96.597C43.6822 96.597 43.3182 96.714 43.0062 96.974C42.7462 97.156 42.5252 97.429 42.3562 97.793V96.779H40.9782V103.5H42.3562V99.938C42.3562 99.353 42.5252 98.872 42.8762 98.508C43.2012 98.17 43.5782 98.001 43.9942 98.001C44.3062 98.001 44.6312 98.04 44.9692 98.144V96.766C44.7352 96.649 44.4362 96.597 44.0982 96.597ZM48.9092 96.597C47.8952 96.597 47.0762 96.935 46.4652 97.611C45.8542 98.274 45.5552 99.119 45.5552 100.146C45.5552 101.16 45.8542 102.005 46.4522 102.655C47.0762 103.331 47.8952 103.682 48.9092 103.682C49.9232 103.682 50.7422 103.331 51.3662 102.655C51.9642 102.005 52.2632 101.16 52.2632 100.146C52.2632 99.119 51.9512 98.274 51.3532 97.611C50.7422 96.935 49.9232 96.597 48.9092 96.597ZM48.9092 97.728C49.5462 97.728 50.0402 97.975 50.4042 98.482C50.7162 98.911 50.8722 99.47 50.8722 100.146C50.8722 100.809 50.7162 101.355 50.4042 101.797C50.0402 102.291 49.5462 102.551 48.9092 102.551C48.2722 102.551 47.7782 102.291 47.4272 101.797C47.1152 101.368 46.9722 100.822 46.9722 100.146C46.9722 99.47 47.1152 98.911 47.4272 98.482C47.7782 97.975 48.2722 97.728 48.9092 97.728ZM58.8891 96.831C58.6031 96.831 58.3821 96.922 58.2131 97.117C58.0181 97.299 57.9271 97.533 57.9271 97.806C57.9271 98.066 58.0181 98.3 58.2131 98.495C58.3821 98.677 58.6031 98.768 58.8891 98.768C59.1491 98.768 59.3831 98.677 59.5781 98.495C59.7601 98.3 59.8641 98.066 59.8641 97.806C59.8641 97.533 59.7601 97.299 59.5781 97.117C59.3831 96.922 59.1491 96.831 58.8891 96.831ZM58.8891 101.589C58.6031 101.589 58.3821 101.68 58.2131 101.875C58.0181 102.057 57.9271 102.291 57.9271 102.564C57.9271 102.824 58.0181 103.058 58.2131 103.253C58.3821 103.435 58.6031 103.526 58.8891 103.526C59.1491 103.526 59.3831 103.435 59.5781 103.253C59.7601 103.058 59.8641 102.824 59.8641 102.564C59.8641 102.291 59.7601 102.057 59.5781 101.875C59.3831 101.68 59.1491 101.589 58.8891 101.589Z" fill="#A6A6A6"/>
<rect x="67.5" y="74" width="147" height="49" rx="9.5" fill="white"/>
<path d="M85.765 91.64V94.235H80.44V101.48H81.865V100.625H85.765V105.65H87.235V100.625H91.15V101.48H92.575V94.235H87.235V91.64H85.765ZM81.865 99.23V95.63H85.765V99.23H81.865ZM87.235 99.23V95.63H91.15V99.23H87.235ZM96.445 96.035V97.28H100.795V98.42H94.78V99.65H104.02V100.82H95.665V102.065H104.02V103.79C104.02 104.12 103.81 104.3 103.39 104.3C102.79 104.3 102.145 104.255 101.455 104.195L101.77 105.545H103.885C104.905 105.545 105.43 105.065 105.43 104.12V102.065H107.56V100.82H105.43V99.65H108.205V98.42H102.205V97.28H106.495V96.035H102.205V95.27H100.795V96.035H96.445ZM98.395 102.305L97.24 103.025C98.005 103.775 98.605 104.465 99.055 105.095L100.165 104.33C99.745 103.745 99.16 103.07 98.395 102.305ZM97.18 93.89H97.48C97.87 94.43 98.215 95.015 98.5 95.615L99.79 95.135C99.58 94.745 99.31 94.34 98.98 93.89H101.29V92.705H97.705C97.795 92.435 97.9 92.165 97.99 91.895L96.64 91.595C96.265 92.795 95.65 93.905 94.78 94.955L96.01 95.735C96.445 95.165 96.835 94.55 97.18 93.89ZM103.27 93.845H103.975C104.365 94.415 104.71 94.985 105.01 95.585L106.24 95.12C106.045 94.73 105.775 94.295 105.43 93.845H107.845V92.66H103.75C103.84 92.405 103.915 92.135 104.005 91.865L102.67 91.58C102.4 92.6 101.935 93.545 101.305 94.43L102.475 95.165C102.76 94.76 103.03 94.325 103.27 93.845Z" fill="#484848"/>
<path fill-rule="evenodd" clip-rule="evenodd" d="M192 102.875L185 96.3052L186.065 95L192 100.57L197.935 95L199 96.3052L192 102.875Z" fill="#A6A6A6"/>
<rect x="67.5" y="74" width="147" height="49" rx="9.5" stroke="#ECECEC"/>
<rect x="235" y="63.5" width="215" height="70" rx="10" fill="white"/>
<path d="M246.05 93.29V104H247.685V99.83H250.46C253.025 99.83 254.315 98.735 254.315 96.545C254.315 94.37 253.04 93.29 250.49 93.29H246.05ZM247.685 94.685H250.355C251.15 94.685 251.735 94.835 252.11 95.135C252.485 95.405 252.68 95.885 252.68 96.545C252.68 97.205 252.485 97.685 252.125 97.985C251.75 98.285 251.165 98.435 250.355 98.435H247.685V94.685ZM255.835 93.29V104H257.47V99.2H263.08V104H264.715V93.29H263.08V97.805H257.47V93.29H255.835ZM270.121 90.605L268.576 92.51H269.581L270.826 91.295L272.071 92.51H273.076L271.516 90.605H270.121ZM269.896 93.29L265.771 104H267.511L268.516 101.24H273.121L274.126 104H275.881L271.756 93.29H269.896ZM269.011 99.89L270.796 95.045H270.856L272.626 99.89H269.011ZM276.929 93.29V104H278.564V95.945H278.624L284.159 104H285.749V93.29H284.114V101.255H284.054L278.579 93.29H276.929ZM296.557 93.29C297.627 93.29 298.557 93.49 299.347 93.89C300.137 94.29 300.747 94.88 301.177 95.66C301.617 96.43 301.837 97.39 301.837 98.54C301.837 99.74 301.612 100.745 301.162 101.555C300.722 102.365 300.082 102.975 299.242 103.385C298.412 103.795 297.407 104 296.227 104H293.362V99.29H292.252V98.12H293.362V93.29H296.557ZM296.362 94.445H294.712V98.12H297.382V99.29H294.712V102.845H296.062C297.522 102.845 298.612 102.49 299.332 101.78C300.052 101.06 300.412 99.995 300.412 98.585C300.412 97.635 300.252 96.855 299.932 96.245C299.612 95.635 299.152 95.185 298.552 94.895C297.952 94.595 297.222 94.445 296.362 94.445ZM308.549 93.08C306.914 93.08 305.624 93.605 304.694 94.685C303.794 95.705 303.359 97.025 303.359 98.66C303.359 100.28 303.794 101.6 304.694 102.62C305.624 103.67 306.914 104.21 308.549 104.21C310.169 104.21 311.459 103.685 312.404 102.635C313.304 101.615 313.754 100.295 313.754 98.66C313.754 97.01 313.304 95.675 312.404 94.67C311.459 93.605 310.169 93.08 308.549 93.08ZM308.549 94.52C309.689 94.52 310.574 94.88 311.189 95.63C311.789 96.365 312.104 97.37 312.104 98.66C312.104 99.935 311.789 100.94 311.189 101.66C310.574 102.395 309.689 102.77 308.549 102.77C307.409 102.77 306.524 102.38 305.894 101.63C305.294 100.895 304.994 99.905 304.994 98.66C304.994 97.4 305.294 96.41 305.894 95.675C306.524 94.895 307.409 94.52 308.549 94.52ZM318.485 93.29L314.36 104H316.1L317.105 101.24H321.71L322.715 104H324.47L320.345 93.29H318.485ZM317.6 99.89L319.385 95.045H319.445L321.215 99.89H317.6ZM319.414 104.975C319.189 104.975 319.009 105.05 318.859 105.2C318.694 105.35 318.619 105.545 318.619 105.77C318.619 105.98 318.694 106.175 318.859 106.325C319.009 106.475 319.189 106.55 319.414 106.55C319.624 106.55 319.819 106.475 319.969 106.325C320.119 106.175 320.209 105.98 320.209 105.77C320.209 105.545 320.119 105.35 319.969 105.2C319.819 105.05 319.624 104.975 319.414 104.975ZM325.518 93.29V104H327.153V95.945H327.213L332.748 104H334.338V93.29H332.703V101.255H332.643L327.168 93.29H325.518ZM337.436 96.305C337.106 96.305 336.851 96.41 336.656 96.635C336.431 96.845 336.326 97.115 336.326 97.43C336.326 97.73 336.431 98 336.656 98.225C336.851 98.435 337.106 98.54 337.436 98.54C337.736 98.54 338.006 98.435 338.231 98.225C338.441 98 338.561 97.73 338.561 97.43C338.561 97.115 338.441 96.845 338.231 96.635C338.006 96.41 337.736 96.305 337.436 96.305ZM337.436 101.795C337.106 101.795 336.851 101.9 336.656 102.125C336.431 102.335 336.326 102.605 336.326 102.92C336.326 103.22 336.431 103.49 336.656 103.715C336.851 103.925 337.106 104.03 337.436 104.03C337.736 104.03 338.006 103.925 338.231 103.715C338.441 103.49 338.561 103.22 338.561 102.92C338.561 102.605 338.441 102.335 338.231 102.125C338.006 101.9 337.736 101.795 337.436 101.795Z" fill="#A6A6A6"/>
<rect x="346.5" y="74" width="93" height="49" rx="9.5" fill="white"/>
<path d="M363.58 93.29L358.3 100.13V101.675H363.52V104H365.08V101.675H366.7V100.37H365.08V93.29H363.58ZM363.475 95.36H363.52V100.37H359.635L363.475 95.36ZM371.494 93.08C370.234 93.08 369.259 93.605 368.569 94.67C367.939 95.645 367.624 96.965 367.624 98.645C367.624 100.31 367.939 101.63 368.569 102.62C369.259 103.67 370.234 104.21 371.494 104.21C372.754 104.21 373.729 103.67 374.419 102.62C375.049 101.63 375.364 100.295 375.364 98.645C375.364 96.98 375.049 95.66 374.419 94.67C373.729 93.605 372.754 93.08 371.494 93.08ZM371.494 94.46C372.364 94.46 372.994 94.94 373.354 95.915C373.609 96.575 373.744 97.49 373.744 98.645C373.744 99.785 373.609 100.7 373.354 101.375C372.994 102.335 372.364 102.83 371.494 102.83C370.609 102.83 369.994 102.335 369.634 101.375C369.364 100.7 369.244 99.785 369.244 98.645C369.244 97.49 369.364 96.575 369.634 95.915C369.994 94.94 370.609 94.46 371.494 94.46Z" fill="#484848"/>
<path fill-rule="evenodd" clip-rule="evenodd" d="M417 102.875L410 96.3052L411.065 95L417 100.57L422.935 95L424 96.3052L417 102.875Z" fill="#A6A6A6"/>
<rect x="346.5" y="74" width="93" height="49" rx="9.5" stroke="#ECECEC"/>
<rect x="10.5" y="157" width="214" height="103" rx="9.5" fill="white"/>
<rect x="18" y="164.5" width="50" height="40" rx="10" fill="#ECECEC"/>
<path d="M37.0411 169.24L35.4511 169.9V171.745H34.0111V173.065H35.4511V177.565C35.4511 178.18 35.5861 178.645 35.8861 178.975C36.1861 179.32 36.6811 179.5 37.3411 179.5H38.6161V178.18H37.5961C37.4011 178.18 37.2661 178.12 37.1761 178.03C37.0861 177.925 37.0411 177.775 37.0411 177.565V173.065H38.8111V171.745H37.0411V169.24ZM42.9714 168.76L41.4264 170.665H42.4314L43.6614 169.45L44.9214 170.665H45.9264L44.3664 168.76H42.9714ZM43.6614 171.535C42.4914 171.535 41.5464 171.925 40.8264 172.735C40.1364 173.485 39.7914 174.46 39.7914 175.63C39.7914 176.8 40.1364 177.76 40.8264 178.51C41.5314 179.305 42.4764 179.71 43.6614 179.71C44.8464 179.71 45.7914 179.305 46.5114 178.51C47.1864 177.76 47.5314 176.8 47.5314 175.63C47.5314 174.46 47.1864 173.485 46.5114 172.735C45.7914 171.925 44.8314 171.535 43.6614 171.535ZM43.6614 172.84C44.3514 172.84 44.8914 173.08 45.2964 173.59C45.6864 174.1 45.8964 174.775 45.8964 175.63C45.8964 176.47 45.6864 177.13 45.2964 177.64C44.8914 178.15 44.3514 178.405 43.6614 178.405C42.9714 178.405 42.4314 178.15 42.0264 177.64C41.6364 177.13 41.4414 176.47 41.4414 175.63C41.4414 174.775 41.6364 174.1 42.0264 173.59C42.4314 173.08 42.9714 172.84 43.6614 172.84ZM43.4942 165.67L42.0692 167.86H43.1192L45.2492 165.67H43.4942ZM50.1666 168.64C49.8516 168.64 49.5966 168.73 49.3866 168.94C49.1766 169.135 49.0716 169.39 49.0716 169.705C49.0716 170.005 49.1766 170.275 49.3866 170.485C49.5966 170.68 49.8516 170.785 50.1666 170.785C50.4666 170.785 50.7366 170.68 50.9466 170.485C51.1566 170.275 51.2766 170.02 51.2766 169.705C51.2766 169.39 51.1716 169.135 50.9616 168.94C50.7516 168.73 50.4816 168.64 50.1666 168.64ZM49.3716 171.745V179.5H50.9616V171.745H49.3716ZM28.6622 190.24L27.0722 190.9V192.745H25.6322V194.065H27.0722V198.565C27.0722 199.18 27.2072 199.645 27.5072 199.975C27.8072 200.32 28.3022 200.5 28.9622 200.5H30.2372V199.18H29.2172C29.0222 199.18 28.8872 199.12 28.7972 199.03C28.7072 198.925 28.6622 198.775 28.6622 198.565V194.065H30.4322V192.745H28.6622V190.24ZM31.7125 189.58V200.5H33.3025V196.15C33.3025 195.475 33.4675 194.92 33.8125 194.485C34.1425 194.05 34.5775 193.84 35.1175 193.84C35.7175 193.84 36.1825 194.02 36.4825 194.395C36.7525 194.755 36.9025 195.265 36.9025 195.955V200.5H38.4925V195.685C38.4925 194.665 38.2675 193.885 37.8175 193.36C37.3375 192.805 36.6325 192.535 35.7025 192.535C35.2075 192.535 34.7725 192.625 34.3825 192.835C33.9475 193.045 33.5875 193.39 33.3025 193.84V189.58H31.7125ZM41.4215 189.64C41.1065 189.64 40.8515 189.73 40.6415 189.94C40.4315 190.135 40.3265 190.39 40.3265 190.705C40.3265 191.005 40.4315 191.275 40.6415 191.485C40.8515 191.68 41.1065 191.785 41.4215 191.785C41.7215 191.785 41.9915 191.68 42.2015 191.485C42.4115 191.275 42.5315 191.02 42.5315 190.705C42.5315 190.39 42.4265 190.135 42.2165 189.94C42.0065 189.73 41.7365 189.64 41.4215 189.64ZM40.6265 192.745V200.5H42.2165V192.745H40.6265ZM47.0088 189.76L45.4487 191.665H46.4538L47.7138 190.45L48.9438 191.665H49.9488L48.4038 189.76H47.0088ZM47.6538 192.535C46.5138 192.535 45.5988 192.925 44.9388 193.72C44.2488 194.5 43.9188 195.46 43.9188 196.615C43.9188 197.89 44.2788 198.895 44.9988 199.645C45.6588 200.35 46.5738 200.71 47.7138 200.71C48.7488 200.71 49.6038 200.41 50.2788 199.825C50.8188 199.345 51.1638 198.73 51.3438 198.01H49.7538C49.5438 198.46 49.3188 198.805 49.0488 199.015C48.7038 199.27 48.2538 199.405 47.6988 199.405C47.0688 199.405 46.5738 199.195 46.2138 198.805C45.8538 198.4 45.6588 197.815 45.5988 197.065H51.4788C51.4638 195.685 51.1488 194.605 50.5488 193.825C49.8888 192.955 48.9138 192.535 47.6538 192.535ZM47.6988 193.84C48.9588 193.84 49.6638 194.515 49.8138 195.865H45.6288C45.7188 195.205 45.9438 194.71 46.2738 194.365C46.6338 194.005 47.0988 193.84 47.6988 193.84ZM47.5675 186.415C47.1175 186.415 46.6675 186.49 46.2175 186.655V187.39C46.6525 187.18 47.0725 187.075 47.4775 187.075C48.0625 187.075 48.3625 187.24 48.3625 187.57C48.3625 187.9 48.0025 188.245 47.2825 188.605L47.7025 189.04C48.6775 188.665 49.1725 188.17 49.1725 187.555C49.1725 186.79 48.6325 186.415 47.5675 186.415ZM52.8355 192.745V197.575C52.8355 199.66 53.7655 200.71 55.6405 200.71C56.6155 200.71 57.4255 200.29 58.0855 199.45V200.5H59.6755V192.745H58.0855V197.485C57.9505 198.055 57.6955 198.52 57.3355 198.865C56.9755 199.195 56.6005 199.375 56.1805 199.375C55.5655 199.375 55.1155 199.21 54.8455 198.91C54.5605 198.61 54.4255 198.13 54.4255 197.47V192.745H52.8355Z" fill="#A6A6A6"/>
<rect x="18" y="212.5" width="50" height="40" rx="10" fill="#ECECEC"/>
<path d="M25.6227 227.74L24.0327 228.4V230.245H22.5927V231.565H24.0327V236.065C24.0327 236.68 24.1677 237.145 24.4677 237.475C24.7677 237.82 25.2627 238 25.9227 238H27.1977V236.68H26.1777C25.9827 236.68 25.8477 236.62 25.7577 236.53C25.6677 236.425 25.6227 236.275 25.6227 236.065V231.565H27.3927V230.245H25.6227V227.74ZM31.5529 227.26L30.0079 229.165H31.0129L32.2429 227.95L33.5029 229.165H34.5079L32.9479 227.26H31.5529ZM32.2429 230.035C31.0729 230.035 30.1279 230.425 29.4079 231.235C28.7179 231.985 28.3729 232.96 28.3729 234.13C28.3729 235.3 28.7179 236.26 29.4079 237.01C30.1129 237.805 31.0579 238.21 32.2429 238.21C33.4279 238.21 34.3729 237.805 35.0929 237.01C35.7679 236.26 36.113 235.3 36.113 234.13C36.113 232.96 35.7679 231.985 35.0929 231.235C34.3729 230.425 33.4129 230.035 32.2429 230.035ZM32.2429 231.34C32.9329 231.34 33.4729 231.58 33.8779 232.09C34.2679 232.6 34.4779 233.275 34.4779 234.13C34.4779 234.97 34.2679 235.63 33.8779 236.14C33.4729 236.65 32.9329 236.905 32.2429 236.905C31.5529 236.905 31.0129 236.65 30.6079 236.14C30.2179 235.63 30.0229 234.97 30.0229 234.13C30.0229 233.275 30.2179 232.6 30.6079 232.09C31.0129 231.58 31.5529 231.34 32.2429 231.34ZM32.0757 224.17L30.6507 226.36H31.7007L33.8307 224.17H32.0757ZM38.7481 227.14C38.4331 227.14 38.1781 227.23 37.9681 227.44C37.7581 227.635 37.6531 227.89 37.6531 228.205C37.6531 228.505 37.7581 228.775 37.9681 228.985C38.1781 229.18 38.4331 229.285 38.7481 229.285C39.0481 229.285 39.3181 229.18 39.5281 228.985C39.7381 228.775 39.8581 228.52 39.8581 228.205C39.8581 227.89 39.7531 227.635 39.5431 227.44C39.3331 227.23 39.0631 227.14 38.7481 227.14ZM37.9531 230.245V238H39.5431V230.245H37.9531ZM49.7805 228.25V229.18H52.2705V231.4C51.6405 230.485 50.8455 230.035 49.9005 230.035C48.7755 230.035 47.9055 230.44 47.2755 231.25C46.6755 232 46.3905 232.945 46.3905 234.085C46.3905 235.27 46.6905 236.245 47.2905 236.995C47.9355 237.805 48.8355 238.21 49.9755 238.21C51.0255 238.21 51.8355 237.82 52.3755 237.07V238H53.8605V229.18H55.0905V228.25H53.8605V227.08H52.2705V228.25H49.7805ZM50.2605 231.325C50.8455 231.325 51.3255 231.55 51.7155 232.03C52.1055 232.54 52.3155 233.215 52.3155 234.055V234.19C52.3155 234.97 52.1505 235.615 51.8205 236.095C51.4305 236.635 50.9055 236.92 50.2155 236.92C49.4355 236.92 48.8505 236.635 48.4905 236.08C48.1755 235.6 48.0255 234.94 48.0255 234.085C48.0255 233.23 48.1905 232.57 48.5205 232.12C48.8955 231.58 49.4805 231.325 50.2605 231.325ZM59.4873 230.035C58.5273 230.035 57.7473 230.2 57.1773 230.56C56.5173 230.95 56.0973 231.58 55.9323 232.42L57.5073 232.555C57.5973 232.12 57.8223 231.805 58.1823 231.595C58.4823 231.415 58.8873 231.325 59.3823 231.325C60.5523 231.325 61.1373 231.865 61.1373 232.945V233.26L59.3973 233.305C58.2573 233.335 57.3573 233.56 56.7273 234.01C56.0373 234.475 55.6923 235.15 55.6923 236.02C55.6923 236.665 55.9323 237.19 56.4273 237.595C56.8773 238 57.5073 238.21 58.3173 238.21C59.0073 238.21 59.6073 238.075 60.1173 237.835C60.5673 237.61 60.9423 237.295 61.2423 236.905V238H62.7123V233.05C62.7123 232.105 62.4723 231.385 62.0073 230.89C61.4673 230.32 60.6273 230.035 59.4873 230.035ZM61.1373 234.415V234.865C61.1373 235.465 60.8823 235.975 60.4023 236.38C59.9223 236.785 59.3523 236.995 58.6773 236.995C58.2723 236.995 57.9423 236.89 57.7023 236.695C57.4473 236.5 57.3273 236.26 57.3273 235.96C57.3273 235 58.0473 234.49 59.5023 234.46L61.1373 234.415Z" fill="#A6A6A6"/>
<g clip-path="url(#clip0_203_2802)">
<g clip-path="url(#clip1_203_2802)">
<path d="M94.1402 202.403C92.5375 208.831 86.0264 212.744 79.597 211.141C73.1703 209.538 69.2579 203.026 70.8613 196.598C72.4633 190.169 78.9745 186.256 85.4019 187.859C91.8308 189.462 95.7429 195.974 94.1401 202.403L94.1402 202.403H94.1402Z" fill="#F7931A"/>
<path d="M87.793 197.79C88.0318 196.193 86.816 195.335 85.1535 194.762L85.6929 192.599L84.3761 192.271L83.851 194.377C83.5049 194.291 83.1493 194.21 82.796 194.129L83.3248 192.009L82.0089 191.681L81.4692 193.843C81.1828 193.778 80.9014 193.713 80.6284 193.646L80.6299 193.639L78.814 193.185L78.4638 194.592C78.4638 194.592 79.4407 194.816 79.4201 194.829C79.9534 194.963 80.0498 195.316 80.0338 195.595L79.4194 198.06C79.4561 198.069 79.5038 198.082 79.5563 198.104C79.5124 198.093 79.4656 198.081 79.4171 198.069L78.556 201.521C78.4909 201.683 78.3254 201.927 77.9526 201.834C77.9658 201.853 76.9956 201.595 76.9956 201.595L76.3418 203.103L78.0554 203.53C78.3742 203.61 78.6866 203.693 78.9942 203.772L78.4493 205.96L79.7646 206.288L80.3042 204.123C80.6636 204.221 81.0123 204.311 81.3536 204.396L80.8158 206.55L82.1327 206.878L82.6775 204.695C84.923 205.12 86.6113 204.948 87.322 202.917C87.8946 201.282 87.2935 200.339 86.1122 199.724C86.9726 199.525 87.6207 198.96 87.7935 197.791L87.7931 197.79L87.793 197.79ZM84.7844 202.009C84.3775 203.644 81.6243 202.76 80.7317 202.539L81.4548 199.64C82.3474 199.863 85.2097 200.304 84.7845 202.009H84.7844ZM85.1917 197.767C84.8204 199.254 82.529 198.498 81.7856 198.313L82.4412 195.684C83.1845 195.869 85.5784 196.215 85.1918 197.767H85.1917Z" fill="white"/>
</g>
<path d="M103.876 191.562C105.124 191.562 106.1 192.008 106.803 192.898C107.641 193.953 108.06 195.702 108.06 198.146C108.06 200.583 107.638 202.335 106.794 203.401C106.097 204.28 105.124 204.72 103.876 204.72C102.622 204.72 101.611 204.239 100.844 203.278C100.076 202.312 99.6924 200.592 99.6924 198.119C99.6924 195.693 100.114 193.947 100.958 192.881C101.655 192.002 102.628 191.562 103.876 191.562ZM103.876 193.61C103.577 193.61 103.311 193.707 103.076 193.9C102.842 194.088 102.66 194.428 102.531 194.92C102.361 195.559 102.276 196.634 102.276 198.146C102.276 199.657 102.353 200.697 102.505 201.266C102.657 201.828 102.848 202.203 103.076 202.391C103.311 202.578 103.577 202.672 103.876 202.672C104.175 202.672 104.441 202.578 104.676 202.391C104.91 202.197 105.092 201.854 105.221 201.362C105.391 200.729 105.476 199.657 105.476 198.146C105.476 196.634 105.399 195.597 105.247 195.034C105.095 194.466 104.901 194.088 104.667 193.9C104.438 193.707 104.175 193.61 103.876 193.61ZM110.248 204.5V202.03H112.718V204.5H110.248ZM118.905 191.562C120.153 191.562 121.129 192.008 121.832 192.898C122.67 193.953 123.089 195.702 123.089 198.146C123.089 200.583 122.667 202.335 121.823 203.401C121.126 204.28 120.153 204.72 118.905 204.72C117.651 204.72 116.641 204.239 115.873 203.278C115.105 202.312 114.722 200.592 114.722 198.119C114.722 195.693 115.144 193.947 115.987 192.881C116.685 192.002 117.657 191.562 118.905 191.562ZM118.905 193.61C118.606 193.61 118.34 193.707 118.105 193.9C117.871 194.088 117.689 194.428 117.561 194.92C117.391 195.559 117.306 196.634 117.306 198.146C117.306 199.657 117.382 200.697 117.534 201.266C117.687 201.828 117.877 202.203 118.105 202.391C118.34 202.578 118.606 202.672 118.905 202.672C119.204 202.672 119.471 202.578 119.705 202.391C119.939 202.197 120.121 201.854 120.25 201.362C120.42 200.729 120.505 199.657 120.505 198.146C120.505 196.634 120.429 195.597 120.276 195.034C120.124 194.466 119.931 194.088 119.696 193.9C119.468 193.707 119.204 193.61 118.905 193.61ZM128.925 191.562C130.173 191.562 131.148 192.008 131.852 192.898C132.689 193.953 133.108 195.702 133.108 198.146C133.108 200.583 132.687 202.335 131.843 203.401C131.146 204.28 130.173 204.72 128.925 204.72C127.671 204.72 126.66 204.239 125.893 203.278C125.125 202.312 124.741 200.592 124.741 198.119C124.741 195.693 125.163 193.947 126.007 192.881C126.704 192.002 127.677 191.562 128.925 191.562ZM128.925 193.61C128.626 193.61 128.359 193.707 128.125 193.9C127.891 194.088 127.709 194.428 127.58 194.92C127.41 195.559 127.325 196.634 127.325 198.146C127.325 199.657 127.401 200.697 127.554 201.266C127.706 201.828 127.896 202.203 128.125 202.391C128.359 202.578 128.626 202.672 128.925 202.672C129.224 202.672 129.49 202.578 129.725 202.391C129.959 202.197 130.141 201.854 130.27 201.362C130.439 200.729 130.524 199.657 130.524 198.146C130.524 196.634 130.448 195.597 130.296 195.034C130.144 194.466 129.95 194.088 129.716 193.9C129.487 193.707 129.224 193.61 128.925 193.61ZM138.944 191.562C140.192 191.562 141.168 192.008 141.871 192.898C142.709 193.953 143.128 195.702 143.128 198.146C143.128 200.583 142.706 202.335 141.862 203.401C141.165 204.28 140.192 204.72 138.944 204.72C137.69 204.72 136.68 204.239 135.912 203.278C135.145 202.312 134.761 200.592 134.761 198.119C134.761 195.693 135.183 193.947 136.026 192.881C136.724 192.002 137.696 191.562 138.944 191.562ZM138.944 193.61C138.646 193.61 138.379 193.707 138.145 193.9C137.91 194.088 137.729 194.428 137.6 194.92C137.43 195.559 137.345 196.634 137.345 198.146C137.345 199.657 137.421 200.697 137.573 201.266C137.726 201.828 137.916 202.203 138.145 202.391C138.379 202.578 138.646 202.672 138.944 202.672C139.243 202.672 139.51 202.578 139.744 202.391C139.979 202.197 140.16 201.854 140.289 201.362C140.459 200.729 140.544 199.657 140.544 198.146C140.544 196.634 140.468 195.597 140.315 195.034C140.163 194.466 139.97 194.088 139.735 193.9C139.507 193.707 139.243 193.61 138.944 193.61ZM148.964 191.562C150.212 191.562 151.188 192.008 151.891 192.898C152.729 193.953 153.147 195.702 153.147 198.146C153.147 200.583 152.726 202.335 151.882 203.401C151.185 204.28 150.212 204.72 148.964 204.72C147.71 204.72 146.699 204.239 145.932 203.278C145.164 202.312 144.78 200.592 144.78 198.119C144.78 195.693 145.202 193.947 146.046 192.881C146.743 192.002 147.716 191.562 148.964 191.562ZM148.964 193.61C148.665 193.61 148.398 193.707 148.164 193.9C147.93 194.088 147.748 194.428 147.619 194.92C147.449 195.559 147.364 196.634 147.364 198.146C147.364 199.657 147.44 200.697 147.593 201.266C147.745 201.828 147.936 202.203 148.164 202.391C148.398 202.578 148.665 202.672 148.964 202.672C149.263 202.672 149.529 202.578 149.764 202.391C149.998 202.197 150.18 201.854 150.309 201.362C150.479 200.729 150.563 199.657 150.563 198.146C150.563 196.634 150.487 195.597 150.335 195.034C150.183 194.466 149.989 194.088 149.755 193.9C149.526 193.707 149.263 193.61 148.964 193.61ZM161.128 204.5H158.658V195.192C157.756 196.036 156.692 196.66 155.468 197.064V194.823C156.112 194.612 156.812 194.214 157.568 193.628C158.324 193.036 158.843 192.348 159.124 191.562H161.128V204.5Z" fill="#484848"/>
<path d="M102.295 224.911V221.842C101.338 221.568 100.635 221.156 100.186 220.604C99.7412 220.047 99.519 219.374 99.519 218.583C99.519 217.782 99.7705 217.11 100.273 216.568C100.781 216.021 101.455 215.707 102.295 215.624V214.898H103.357V215.624C104.133 215.716 104.751 215.982 105.21 216.422C105.669 216.856 105.962 217.44 106.089 218.172L104.236 218.414C104.124 217.838 103.831 217.447 103.357 217.242V220.106C104.529 220.423 105.327 220.836 105.752 221.344C106.177 221.847 106.389 222.494 106.389 223.285C106.389 224.168 106.121 224.913 105.583 225.519C105.051 226.124 104.309 226.495 103.357 226.632V228.001H102.295V226.668C101.45 226.566 100.764 226.251 100.237 225.724C99.7095 225.196 99.3726 224.452 99.2261 223.49L101.138 223.285C101.216 223.675 101.362 224.012 101.577 224.295C101.792 224.579 102.031 224.784 102.295 224.911ZM102.295 217.22C102.007 217.318 101.777 217.484 101.606 217.718C101.436 217.953 101.35 218.211 101.35 218.495C101.35 218.753 101.428 218.995 101.584 219.22C101.741 219.439 101.978 219.618 102.295 219.754V217.22ZM103.357 225.013C103.723 224.945 104.021 224.776 104.25 224.508C104.48 224.234 104.595 223.915 104.595 223.548C104.595 223.221 104.497 222.94 104.302 222.706C104.111 222.467 103.796 222.284 103.357 222.157V225.013ZM111.736 226.5V224.339H107.341V222.538L112 215.719H113.728V222.53H115.061V224.339H113.728V226.5H111.736ZM111.736 222.53V218.861L109.268 222.53H111.736ZM116.489 226.5V224.442H118.547V226.5H116.489ZM124.26 226.5V224.339H119.866V222.538L124.524 215.719H126.252V222.53H127.585V224.339H126.252V226.5H124.26ZM124.26 222.53V218.861L121.792 222.53H124.26ZM132.053 215.719C133.093 215.719 133.906 216.09 134.492 216.832C135.19 217.711 135.54 219.168 135.54 221.205C135.54 223.236 135.188 224.696 134.485 225.584C133.904 226.317 133.093 226.683 132.053 226.683C131.008 226.683 130.166 226.283 129.526 225.482C128.887 224.676 128.567 223.243 128.567 221.183C128.567 219.161 128.918 217.706 129.622 216.817C130.203 216.085 131.013 215.719 132.053 215.719ZM132.053 217.425C131.804 217.425 131.582 217.506 131.387 217.667C131.191 217.823 131.04 218.106 130.933 218.517C130.791 219.049 130.72 219.945 130.72 221.205C130.72 222.464 130.784 223.331 130.911 223.805C131.038 224.273 131.196 224.586 131.387 224.742C131.582 224.898 131.804 224.977 132.053 224.977C132.302 224.977 132.524 224.898 132.72 224.742C132.915 224.581 133.066 224.295 133.174 223.885C133.315 223.358 133.386 222.464 133.386 221.205C133.386 219.945 133.323 219.081 133.196 218.612C133.069 218.138 132.908 217.823 132.712 217.667C132.522 217.506 132.302 217.425 132.053 217.425Z" fill="#A6A6A6"/>
</g>
<rect x="167" y="164.5" width="50" height="40" rx="10" fill="#ECECEC"/>
<path d="M184.171 179.29C183.811 179.68 183.361 180.025 182.821 180.355C182.281 180.655 181.786 180.865 181.306 180.985V182.605C182.296 182.32 183.121 181.87 183.766 181.255V190H185.401V179.29H184.171ZM192.499 177.7L187.249 191.5H188.644L193.879 177.7H192.499ZM198.979 179.08C197.839 179.08 196.909 179.455 196.219 180.235C195.544 180.955 195.199 181.915 195.184 183.115H196.819C196.849 182.245 197.029 181.6 197.389 181.15C197.734 180.685 198.244 180.46 198.919 180.46C199.549 180.46 200.044 180.61 200.374 180.91C200.704 181.21 200.869 181.66 200.869 182.26C200.869 182.89 200.614 183.475 200.134 184.015C199.834 184.33 199.324 184.735 198.604 185.245C197.389 186.085 196.579 186.73 196.189 187.195C195.469 188.005 195.124 188.935 195.124 190H202.504V188.56H197.149C197.374 187.975 198.064 187.3 199.219 186.535C200.284 185.815 201.019 185.245 201.439 184.81C202.129 184.045 202.489 183.205 202.489 182.275C202.489 181.33 202.159 180.565 201.514 179.965C200.854 179.365 199.999 179.08 198.979 179.08Z" fill="#A6A6A6"/>
<rect x="167" y="212.5" width="50" height="40" rx="10" fill="#ECECEC"/>
<path d="M188.191 227.08C187.051 227.08 186.121 227.455 185.431 228.235C184.756 228.955 184.411 229.915 184.396 231.115H186.031C186.061 230.245 186.241 229.6 186.601 229.15C186.946 228.685 187.456 228.46 188.131 228.46C188.761 228.46 189.256 228.61 189.586 228.91C189.916 229.21 190.081 229.66 190.081 230.26C190.081 230.89 189.826 231.475 189.346 232.015C189.046 232.33 188.536 232.735 187.816 233.245C186.601 234.085 185.791 234.73 185.401 235.195C184.681 236.005 184.336 236.935 184.336 238H191.716V236.56H186.361C186.586 235.975 187.276 235.3 188.431 234.535C189.496 233.815 190.231 233.245 190.651 232.81C191.341 232.045 191.701 231.205 191.701 230.275C191.701 229.33 191.371 228.565 190.726 227.965C190.066 227.365 189.211 227.08 188.191 227.08ZM192.94 230.245L195.625 233.875L192.595 238H194.47L196.51 235.045L198.535 238H200.395L197.38 233.875L200.065 230.245H198.205L196.51 232.705L194.8 230.245H192.94Z" fill="#A6A6A6"/>
<rect x="10.5" y="157" width="214" height="103" rx="9.5" stroke="#ECECEC"/>
<rect x="235" y="156.5" width="215" height="104" rx="10" fill="#F04E23"/>
<g filter="url(#filter0_d_203_2802)">
<path d="M308.607 203.3V204.416H311.595V207.08C310.839 205.982 309.885 205.442 308.751 205.442C307.401 205.442 306.357 205.928 305.601 206.9C304.881 207.8 304.539 208.934 304.539 210.302C304.539 211.724 304.899 212.894 305.619 213.794C306.393 214.766 307.473 215.252 308.841 215.252C310.101 215.252 311.073 214.784 311.721 213.884V215H313.503V204.416H314.979V203.3H313.503V201.896H311.595V203.3H308.607ZM309.183 206.99C309.885 206.99 310.461 207.26 310.929 207.836C311.397 208.448 311.649 209.258 311.649 210.266V210.428C311.649 211.364 311.451 212.138 311.055 212.714C310.587 213.362 309.957 213.704 309.129 213.704C308.193 213.704 307.491 213.362 307.059 212.696C306.681 212.12 306.501 211.328 306.501 210.302C306.501 209.276 306.699 208.484 307.095 207.944C307.545 207.296 308.247 206.99 309.183 206.99ZM320.255 205.442C319.103 205.442 318.167 205.64 317.483 206.072C316.691 206.54 316.187 207.296 315.989 208.304L317.879 208.466C317.987 207.944 318.257 207.566 318.689 207.314C319.049 207.098 319.535 206.99 320.129 206.99C321.533 206.99 322.235 207.638 322.235 208.934V209.312L320.147 209.366C318.779 209.402 317.699 209.672 316.943 210.212C316.115 210.77 315.701 211.58 315.701 212.624C315.701 213.398 315.989 214.028 316.583 214.514C317.123 215 317.879 215.252 318.851 215.252C319.679 215.252 320.399 215.09 321.011 214.802C321.551 214.532 322.001 214.154 322.361 213.686V215H324.125V209.06C324.125 207.926 323.837 207.062 323.279 206.468C322.631 205.784 321.623 205.442 320.255 205.442ZM322.235 210.698V211.238C322.235 211.958 321.929 212.57 321.353 213.056C320.777 213.542 320.093 213.794 319.283 213.794C318.797 213.794 318.401 213.668 318.113 213.434C317.807 213.2 317.663 212.912 317.663 212.552C317.663 211.4 318.527 210.788 320.273 210.752L322.235 210.698ZM320.097 216.17C319.827 216.17 319.611 216.26 319.431 216.44C319.233 216.62 319.143 216.854 319.143 217.124C319.143 217.376 319.233 217.61 319.431 217.79C319.611 217.97 319.827 218.06 320.097 218.06C320.349 218.06 320.583 217.97 320.763 217.79C320.943 217.61 321.051 217.376 321.051 217.124C321.051 216.854 320.943 216.62 320.763 216.44C320.583 216.26 320.349 216.17 320.097 216.17ZM317.343 202.094C317.559 203.66 318.477 204.452 320.097 204.452C321.717 204.452 322.635 203.66 322.851 202.094H321.879C321.681 202.958 321.087 203.39 320.097 203.39C319.089 203.39 318.495 202.958 318.315 202.094H317.343ZM329.135 202.688L327.227 203.48V205.694H325.499V207.278H327.227V212.678C327.227 213.416 327.389 213.974 327.749 214.37C328.109 214.784 328.703 215 329.495 215H331.025V213.416H329.801C329.567 213.416 329.405 213.344 329.297 213.236C329.189 213.11 329.135 212.93 329.135 212.678V207.278H331.259V205.694H329.135V202.688ZM342.93 205.442C341.49 205.442 340.374 205.928 339.564 206.9C338.808 207.8 338.43 208.952 338.43 210.356C338.43 211.796 338.808 212.948 339.582 213.848C340.374 214.784 341.472 215.252 342.894 215.252C344.082 215.252 345.054 214.946 345.774 214.352C346.494 213.74 346.98 212.804 347.196 211.562H345.306C345.126 212.966 344.334 213.686 342.912 213.686C342.084 213.686 341.472 213.38 341.058 212.804C340.608 212.21 340.392 211.382 340.392 210.338C340.392 209.294 340.608 208.466 341.076 207.89C341.526 207.296 342.138 207.008 342.93 207.008C343.578 207.008 344.1 207.152 344.496 207.458C344.892 207.746 345.144 208.214 345.27 208.844H347.16C346.98 207.692 346.512 206.828 345.792 206.252C345.072 205.712 344.118 205.442 342.93 205.442ZM357.845 203.462V204.614C357.845 205.334 357.485 205.694 356.783 205.694H355.127V211.382C354.965 212.066 354.659 212.624 354.227 213.038C353.795 213.434 353.345 213.65 352.841 213.65C352.103 213.65 351.563 213.452 351.239 213.092C350.897 212.732 350.735 212.156 350.735 211.364V205.694H348.827V211.49C348.827 213.992 349.943 215.252 352.193 215.252C353.363 215.252 354.335 214.748 355.127 213.74V215H357.035V207.062H357.377C358.781 207.062 359.483 206.288 359.483 204.776V203.462H357.845ZM369.146 203.426V204.578C369.146 205.442 368.84 205.892 368.228 205.892C368.03 205.892 367.598 205.82 366.932 205.676C366.266 205.514 365.69 205.442 365.222 205.442C363.818 205.442 362.684 205.91 361.838 206.846C360.992 207.764 360.578 208.934 360.578 210.356C360.578 211.76 360.992 212.93 361.82 213.83C362.684 214.766 363.818 215.252 365.222 215.252C366.626 215.252 367.76 214.766 368.624 213.83C369.452 212.93 369.866 211.76 369.866 210.356C369.866 209.096 369.542 208.052 368.912 207.206L368.966 207.116H369.254C369.668 207.116 370.028 206.936 370.316 206.612C370.622 206.216 370.784 205.694 370.784 205.01V203.426H369.146ZM365.222 207.008C366.104 207.008 366.788 207.35 367.292 208.052C367.724 208.646 367.94 209.42 367.94 210.356C367.94 211.274 367.724 212.03 367.292 212.642C366.788 213.326 366.104 213.686 365.222 213.686C364.34 213.686 363.656 213.326 363.17 212.642C362.738 212.048 362.54 211.292 362.54 210.356C362.54 209.42 362.738 208.646 363.17 208.052C363.656 207.35 364.34 207.008 365.222 207.008ZM365.501 216.17C365.231 216.17 365.015 216.26 364.835 216.44C364.637 216.62 364.547 216.854 364.547 217.124C364.547 217.376 364.637 217.61 364.835 217.79C365.015 217.97 365.231 218.06 365.501 218.06C365.753 218.06 365.987 217.97 366.167 217.79C366.347 217.61 366.455 217.376 366.455 217.124C366.455 216.854 366.347 216.62 366.167 216.44C365.987 216.26 365.753 216.17 365.501 216.17ZM376.364 205.442C374.924 205.442 373.808 205.928 372.998 206.9C372.242 207.8 371.864 208.952 371.864 210.356C371.864 211.796 372.242 212.948 373.016 213.848C373.808 214.784 374.906 215.252 376.328 215.252C377.516 215.252 378.488 214.946 379.208 214.352C379.928 213.74 380.414 212.804 380.63 211.562H378.74C378.56 212.966 377.768 213.686 376.346 213.686C375.518 213.686 374.906 213.38 374.492 212.804C374.042 212.21 373.826 211.382 373.826 210.338C373.826 209.294 374.042 208.466 374.51 207.89C374.96 207.296 375.572 207.008 376.364 207.008C377.012 207.008 377.534 207.152 377.93 207.458C378.326 207.746 378.578 208.214 378.704 208.844H380.594C380.414 207.692 379.946 206.828 379.226 206.252C378.506 205.712 377.552 205.442 376.364 205.442Z" fill="white"/>
</g>
<defs>
<filter id="filter0_d_203_2802" x="300.539" y="199.896" width="84.0898" height="24.1641" filterUnits="userSpaceOnUse" color-interpolation-filters="sRGB">
<feFlood flood-opacity="0" result="BackgroundImageFix"/>
<feColorMatrix in="SourceAlpha" type="matrix" values="0 0 0 0 0 0 0 0 0 0 0 0 0 0 0 0 0 0 127 0" result="hardAlpha"/>
<feOffset dy="2"/>
<feGaussianBlur stdDeviation="2"/>
<feComposite in2="hardAlpha" operator="out"/>
<feColorMatrix type="matrix" values="0 0 0 0 0 0 0 0 0 0 0 0 0 0 0 0 0 0 0.3 0"/>
<feBlend mode="normal" in2="BackgroundImageFix" result="effect1_dropShadow_203_2802"/>
<feBlend mode="normal" in="SourceGraphic" in2="effect1_dropShadow_203_2802" result="shape"/>
</filter>
<clipPath id="clip0_203_2802">
<rect width="94" height="42" fill="white" transform="translate(70.5 187.5)"/>
</clipPath>
<clipPath id="clip1_203_2802">
<rect width="24" height="24" fill="white" transform="translate(70.5 187.5)"/>
</clipPath>
</defs>
</svg>
