<svg width="460" height="324" viewBox="0 0 460 324" fill="none" xmlns="http://www.w3.org/2000/svg">
<rect width="460" height="324" rx="10" fill="#F4F7FD"/>
<rect x="10" y="77" width="215" height="70" rx="10" fill="white"/>
<path d="M21.05 106.79V117.5H22.685V113.075H25.58C26.195 113.075 26.66 113.195 26.99 113.465C27.305 113.735 27.5 114.155 27.56 114.755L27.695 116.09C27.755 116.69 27.905 117.17 28.16 117.5H29.93C29.57 117.11 29.36 116.585 29.3 115.925L29.12 114.215C29 113.165 28.475 112.535 27.515 112.325V112.295C28.1 112.145 28.565 111.83 28.91 111.35C29.21 110.915 29.36 110.42 29.36 109.85C29.36 108.83 29.03 108.065 28.37 107.525C27.74 107.03 26.87 106.79 25.79 106.79H21.05ZM22.685 108.185H25.565C26.315 108.185 26.855 108.32 27.215 108.605C27.545 108.875 27.725 109.31 27.725 109.91C27.725 110.48 27.545 110.915 27.2 111.215C26.84 111.515 26.3 111.68 25.58 111.68H22.685V108.185ZM32.4107 106.64C32.0957 106.64 31.8407 106.73 31.6307 106.94C31.4207 107.135 31.3157 107.39 31.3157 107.705C31.3157 108.005 31.4207 108.275 31.6307 108.485C31.8407 108.68 32.0957 108.785 32.4107 108.785C32.7107 108.785 32.9807 108.68 33.1907 108.485C33.4007 108.275 33.5207 108.02 33.5207 107.705C33.5207 107.39 33.4157 107.135 33.2057 106.94C32.9957 106.73 32.7257 106.64 32.4107 106.64ZM31.6157 109.745V117.5H33.2057V109.745H31.6157ZM38.253 109.535C37.323 109.535 36.558 109.73 35.973 110.135C35.388 110.525 35.103 111.08 35.103 111.785C35.103 112.445 35.403 112.97 36.003 113.345C36.363 113.585 37.008 113.81 37.923 114.02C38.718 114.2 39.243 114.35 39.483 114.47C39.933 114.68 40.173 114.98 40.173 115.355C40.173 116.045 39.543 116.405 38.313 116.405C37.713 116.405 37.293 116.3 37.023 116.105C36.753 115.895 36.558 115.52 36.468 114.995H34.908C35.088 116.795 36.228 117.71 38.358 117.71C40.653 117.71 41.808 116.885 41.808 115.25C41.808 114.56 41.493 114.02 40.878 113.63C40.458 113.36 39.798 113.105 38.913 112.895C38.133 112.7 37.623 112.55 37.353 112.43C36.933 112.235 36.723 112.01 36.723 111.74C36.723 111.44 36.858 111.2 37.143 111.05C37.383 110.9 37.743 110.84 38.223 110.84C38.763 110.84 39.183 110.93 39.453 111.11C39.708 111.275 39.888 111.56 40.008 111.98H41.553C41.373 110.345 40.263 109.535 38.253 109.535ZM43.151 106.58V117.5H44.741V114.785L45.626 113.96L48.416 117.5H50.456L46.721 112.94L50.156 109.745H48.101L44.741 112.94V106.58H43.151ZM62.4843 109.805C62.1543 109.805 61.8993 109.91 61.7043 110.135C61.4793 110.345 61.3743 110.615 61.3743 110.93C61.3743 111.23 61.4793 111.5 61.7043 111.725C61.8993 111.935 62.1543 112.04 62.4843 112.04C62.7843 112.04 63.0543 111.935 63.2793 111.725C63.4893 111.5 63.6093 111.23 63.6093 110.93C63.6093 110.615 63.4893 110.345 63.2793 110.135C63.0543 109.91 62.7843 109.805 62.4843 109.805ZM62.4843 115.295C62.1543 115.295 61.8993 115.4 61.7043 115.625C61.4793 115.835 61.3743 116.105 61.3743 116.42C61.3743 116.72 61.4793 116.99 61.7043 117.215C61.8993 117.425 62.1543 117.53 62.4843 117.53C62.7843 117.53 63.0543 117.425 63.2793 117.215C63.4893 116.99 63.6093 116.72 63.6093 116.42C63.6093 116.105 63.4893 115.835 63.2793 115.625C63.0543 115.4 62.7843 115.295 62.4843 115.295Z" fill="#A6A6A6"/>
<rect x="71.5" y="87.5" width="143" height="49" rx="9.5" fill="white"/>
<path d="M84.05 106.79H85.985L89.72 115.37H89.765L93.485 106.79H95.42V117.5H93.785V109.85H93.725L90.44 117.5H89.03L85.745 109.85H85.685V117.5H84.05V106.79ZM100.662 109.535C101.922 109.535 102.897 109.955 103.557 110.825C104.157 111.605 104.472 112.685 104.487 114.065H98.6066C98.6666 114.815 98.8616 115.4 99.2216 115.805C99.5816 116.195 100.077 116.405 100.707 116.405C101.262 116.405 101.712 116.27 102.057 116.015C102.327 115.805 102.552 115.46 102.762 115.01H104.352C104.172 115.73 103.827 116.345 103.287 116.825C102.612 117.41 101.757 117.71 100.722 117.71C99.5816 117.71 98.6666 117.35 98.0066 116.645C97.2866 115.895 96.9266 114.89 96.9266 113.615C96.9266 112.46 97.2566 111.5 97.9466 110.72C98.6066 109.925 99.5216 109.535 100.662 109.535ZM100.707 110.84C100.107 110.84 99.6416 111.005 99.2816 111.365C98.9516 111.71 98.7266 112.205 98.6366 112.865H102.822C102.672 111.515 101.967 110.84 100.707 110.84ZM111.423 106.58H113.013V117.5H111.528V116.57C110.988 117.32 110.178 117.71 109.128 117.71C107.988 117.71 107.088 117.305 106.443 116.495C105.843 115.745 105.543 114.77 105.543 113.585C105.543 112.445 105.828 111.5 106.428 110.75C107.058 109.94 107.943 109.535 109.053 109.535C109.998 109.535 110.793 109.985 111.423 110.9V106.58ZM109.413 110.825C108.633 110.825 108.048 111.08 107.673 111.62C107.343 112.07 107.178 112.73 107.178 113.585C107.178 114.44 107.328 115.1 107.643 115.58C108.003 116.135 108.588 116.42 109.368 116.42C110.058 116.42 110.583 116.135 110.973 115.595C111.303 115.1 111.468 114.47 111.468 113.69V113.555C111.468 112.715 111.258 112.04 110.868 111.53C110.478 111.05 109.998 110.825 109.413 110.825ZM115.933 106.64C116.248 106.64 116.518 106.73 116.728 106.94C116.938 107.135 117.043 107.39 117.043 107.705C117.043 108.02 116.923 108.275 116.713 108.485C116.503 108.68 116.233 108.785 115.933 108.785C115.618 108.785 115.363 108.68 115.153 108.485C114.943 108.275 114.838 108.005 114.838 107.705C114.838 107.39 114.943 107.135 115.153 106.94C115.363 106.73 115.618 106.64 115.933 106.64ZM115.138 109.745H116.728V117.5H115.138V109.745ZM118.88 109.745H120.47V114.47C120.47 115.13 120.605 115.61 120.89 115.91C121.16 116.21 121.61 116.375 122.225 116.375C122.645 116.375 123.02 116.195 123.38 115.865C123.74 115.52 123.995 115.055 124.13 114.485V109.745H125.72V117.5H124.13V116.45C123.47 117.29 122.66 117.71 121.685 117.71C119.81 117.71 118.88 116.66 118.88 114.575V109.745ZM131.258 109.535C132.398 109.535 133.223 109.97 133.703 110.84C134.048 110.36 134.423 110.015 134.813 109.82C135.173 109.625 135.608 109.535 136.133 109.535C136.928 109.535 137.588 109.79 138.113 110.33C138.623 110.855 138.893 111.545 138.893 112.415V117.5H137.303V112.685C137.303 112.055 137.168 111.59 136.898 111.305C136.628 111.005 136.178 110.87 135.578 110.87C135.128 110.87 134.768 111.035 134.468 111.365C134.168 111.695 134.018 112.16 134.018 112.73V117.5H132.428V112.7C132.428 111.47 131.888 110.87 130.838 110.87C130.328 110.87 129.908 111.065 129.608 111.455C129.278 111.83 129.128 112.295 129.128 112.835V117.5H127.538V109.745H129.128V110.6C129.758 109.88 130.478 109.535 131.258 109.535Z" fill="#484848"/>
<path fill-rule="evenodd" clip-rule="evenodd" d="M192 116.375L185 109.805L186.065 108.5L192 114.07L197.935 108.5L199 109.805L192 116.375Z" fill="#A6A6A6"/>
<rect x="71.5" y="87.5" width="143" height="49" rx="9.5" stroke="#ECECEC"/>
<rect x="235" y="77" width="215" height="70" rx="10" fill="white"/>
<path d="M249.8 106.58C248.66 106.58 247.715 106.835 246.965 107.345C246.17 107.885 245.78 108.62 245.78 109.565C245.78 110.495 246.185 111.215 247.01 111.71C247.34 111.89 248.15 112.175 249.47 112.595C250.655 112.955 251.36 113.195 251.6 113.315C252.275 113.66 252.62 114.125 252.62 114.725C252.62 115.205 252.38 115.58 251.9 115.85C251.42 116.12 250.775 116.27 249.965 116.27C249.065 116.27 248.405 116.105 247.97 115.775C247.49 115.415 247.19 114.8 247.07 113.96H245.45C245.54 115.31 246.02 116.3 246.905 116.93C247.64 117.44 248.66 117.71 249.965 117.71C251.315 117.71 252.365 117.44 253.115 116.9C253.865 116.345 254.24 115.595 254.24 114.635C254.24 113.645 253.775 112.88 252.86 112.325C252.44 112.07 251.495 111.725 250.055 111.275C249.05 110.975 248.435 110.75 248.195 110.615C247.655 110.33 247.4 109.955 247.4 109.475C247.4 108.935 247.625 108.545 248.09 108.305C248.465 108.095 249.005 107.99 249.71 107.99C250.52 107.99 251.12 108.14 251.54 108.455C251.96 108.755 252.23 109.265 252.38 109.955H254C253.895 108.785 253.475 107.93 252.725 107.375C252.02 106.835 251.045 106.58 249.8 106.58ZM255.762 106.79V117.5H263.712V116.105H257.397V112.7H263.097V111.305H257.397V108.185H263.457V106.79H255.762ZM270.006 106.58C268.431 106.58 267.171 107.12 266.241 108.23C265.356 109.265 264.921 110.585 264.921 112.19C264.921 113.78 265.356 115.085 266.241 116.09C267.186 117.17 268.506 117.71 270.216 117.71C271.146 117.71 272.001 117.59 272.781 117.35C273.516 117.11 274.161 116.78 274.716 116.345V111.845H270.126V113.24H273.081V115.565C272.721 115.79 272.331 115.97 271.881 116.09C271.416 116.21 270.921 116.285 270.396 116.285C269.061 116.285 268.071 115.91 267.441 115.16C266.841 114.47 266.556 113.48 266.556 112.19C266.556 110.87 266.871 109.835 267.531 109.085C268.146 108.365 268.971 108.02 270.006 108.02C270.846 108.02 271.536 108.2 272.046 108.575C272.556 108.935 272.886 109.475 273.036 110.195H274.686C274.491 108.995 274.011 108.11 273.246 107.51C272.451 106.88 271.371 106.58 270.006 106.58ZM276.68 106.79V117.5H278.315V109.85H278.375L281.66 117.5H283.07L286.355 109.85H286.415V117.5H288.05V106.79H286.115L282.395 115.37H282.35L278.615 106.79H276.68ZM290.156 106.79V117.5H298.106V116.105H291.791V112.7H297.491V111.305H291.791V108.185H297.851V106.79H290.156ZM299.766 106.79V117.5H301.401V109.445H301.461L306.996 117.5H308.586V106.79H306.951V114.755H306.891L301.416 106.79H299.766ZM309.869 106.79V108.185H313.454V117.5H315.074V108.185H318.644V106.79H309.869ZM323.687 106.58C322.547 106.58 321.602 106.835 320.852 107.345C320.057 107.885 319.667 108.62 319.667 109.565C319.667 110.495 320.072 111.215 320.897 111.71C321.227 111.89 322.037 112.175 323.357 112.595C324.542 112.955 325.247 113.195 325.487 113.315C326.162 113.66 326.507 114.125 326.507 114.725C326.507 115.205 326.267 115.58 325.787 115.85C325.307 116.12 324.662 116.27 323.852 116.27C322.952 116.27 322.292 116.105 321.857 115.775C321.377 115.415 321.077 114.8 320.957 113.96H319.337C319.427 115.31 319.907 116.3 320.792 116.93C321.527 117.44 322.547 117.71 323.852 117.71C325.202 117.71 326.252 117.44 327.002 116.9C327.752 116.345 328.127 115.595 328.127 114.635C328.127 113.645 327.662 112.88 326.747 112.325C326.327 112.07 325.382 111.725 323.942 111.275C322.937 110.975 322.322 110.75 322.082 110.615C321.542 110.33 321.287 109.955 321.287 109.475C321.287 108.935 321.512 108.545 321.977 108.305C322.352 108.095 322.892 107.99 323.597 107.99C324.407 107.99 325.007 108.14 325.427 108.455C325.847 108.755 326.117 109.265 326.267 109.955H327.887C327.782 108.785 327.362 107.93 326.612 107.375C325.907 106.835 324.932 106.58 323.687 106.58ZM332.349 108.17C332.034 108.17 331.764 108.275 331.554 108.5C331.344 108.71 331.239 108.98 331.239 109.295C331.239 109.595 331.344 109.865 331.554 110.075C331.764 110.285 332.034 110.405 332.349 110.405C332.649 110.405 332.919 110.285 333.144 110.075C333.354 109.865 333.474 109.595 333.474 109.295C333.474 108.98 333.354 108.71 333.144 108.5C332.919 108.275 332.649 108.17 332.349 108.17ZM332.349 113.66C332.034 113.66 331.764 113.765 331.554 113.99C331.344 114.2 331.239 114.47 331.239 114.785C331.239 115.085 331.344 115.355 331.554 115.565C331.764 115.775 332.034 115.895 332.349 115.895C332.649 115.895 332.919 115.775 333.144 115.565C333.354 115.355 333.474 115.085 333.474 114.785C333.474 114.47 333.354 114.2 333.144 113.99C332.919 113.765 332.649 113.66 332.349 113.66Z" fill="#A6A6A6"/>
<rect x="350.5" y="87.5" width="89" height="49" rx="9.5" fill="white"/>
<path d="M367.58 106.79L362.3 113.63V115.175H367.52V117.5H369.08V115.175H370.7V113.87H369.08V106.79H367.58ZM367.475 108.86H367.52V113.87H363.635L367.475 108.86ZM375.494 106.58C374.234 106.58 373.259 107.105 372.569 108.17C371.939 109.145 371.624 110.465 371.624 112.145C371.624 113.81 371.939 115.13 372.569 116.12C373.259 117.17 374.234 117.71 375.494 117.71C376.754 117.71 377.729 117.17 378.419 116.12C379.049 115.13 379.364 113.795 379.364 112.145C379.364 110.48 379.049 109.16 378.419 108.17C377.729 107.105 376.754 106.58 375.494 106.58ZM375.494 107.96C376.364 107.96 376.994 108.44 377.354 109.415C377.609 110.075 377.744 110.99 377.744 112.145C377.744 113.285 377.609 114.2 377.354 114.875C376.994 115.835 376.364 116.33 375.494 116.33C374.609 116.33 373.994 115.835 373.634 114.875C373.364 114.2 373.244 113.285 373.244 112.145C373.244 110.99 373.364 110.075 373.634 109.415C373.994 108.44 374.609 107.96 375.494 107.96Z" fill="#484848"/>
<path fill-rule="evenodd" clip-rule="evenodd" d="M417 116.375L410 109.805L411.065 108.5L417 114.07L422.935 108.5L424 109.805L417 116.375Z" fill="#A6A6A6"/>
<rect x="350.5" y="87.5" width="89" height="49" rx="9.5" stroke="#ECECEC"/>
<rect x="10.5" y="170.5" width="214" height="76" rx="9.5" fill="white"/>
<rect x="18" y="178" width="50" height="26.5" rx="10" fill="#ECECEC"/>
<path d="M30.9543 186.04V196.75H32.5893V189.1H32.6493L35.9343 196.75H37.3443L40.6293 189.1H40.6893V196.75H42.3243V186.04H40.3893L36.6693 194.62H36.6243L32.8893 186.04H30.9543ZM45.4059 185.89C45.0909 185.89 44.8359 185.98 44.6259 186.19C44.4159 186.385 44.3109 186.64 44.3109 186.955C44.3109 187.255 44.4159 187.525 44.6259 187.735C44.8359 187.93 45.0909 188.035 45.4059 188.035C45.7059 188.035 45.9759 187.93 46.1859 187.735C46.3959 187.525 46.5159 187.27 46.5159 186.955C46.5159 186.64 46.4109 186.385 46.2009 186.19C45.9909 185.98 45.7209 185.89 45.4059 185.89ZM44.6109 188.995V196.75H46.2009V188.995H44.6109ZM52.2831 188.785C51.8031 188.785 51.3681 188.875 50.9781 189.085C50.5881 189.28 50.2431 189.565 49.9431 189.955V188.995H48.3531V196.75H49.9431V192.085C50.0031 191.455 50.2281 190.96 50.5881 190.6C50.9181 190.27 51.3231 190.12 51.7731 190.12C52.9731 190.12 53.5881 190.78 53.5881 192.1V196.75H55.1781V191.965C55.1781 189.835 54.2031 188.785 52.2831 188.785Z" fill="#A6A6A6"/>
<rect x="18" y="212.5" width="50" height="26.5" rx="10" fill="#ECECEC"/>
<path d="M29.0646 220.54V231.25H30.6996V223.6H30.7596L34.0446 231.25H35.4546L38.7396 223.6H38.7996V231.25H40.4346V220.54H38.4996L34.7796 229.12H34.7346L30.9996 220.54H29.0646ZM45.8862 223.285C44.9262 223.285 44.1462 223.45 43.5762 223.81C42.9162 224.2 42.4962 224.83 42.3312 225.67L43.9062 225.805C43.9962 225.37 44.2212 225.055 44.5812 224.845C44.8812 224.665 45.2862 224.575 45.7812 224.575C46.9512 224.575 47.5362 225.115 47.5362 226.195V226.51L45.7962 226.555C44.6562 226.585 43.7562 226.81 43.1262 227.26C42.4362 227.725 42.0912 228.4 42.0912 229.27C42.0912 229.915 42.3312 230.44 42.8262 230.845C43.2762 231.25 43.9062 231.46 44.7162 231.46C45.4062 231.46 46.0062 231.325 46.5162 231.085C46.9662 230.86 47.3412 230.545 47.6412 230.155V231.25H49.1112V226.3C49.1112 225.355 48.8712 224.635 48.4062 224.14C47.8662 223.57 47.0262 223.285 45.8862 223.285ZM47.5362 227.665V228.115C47.5362 228.715 47.2812 229.225 46.8012 229.63C46.3212 230.035 45.7512 230.245 45.0762 230.245C44.6712 230.245 44.3412 230.14 44.1012 229.945C43.8462 229.75 43.7262 229.51 43.7262 229.21C43.7262 228.25 44.4462 227.74 45.9012 227.71L47.5362 227.665ZM50.4513 223.495L53.1363 227.125L50.1063 231.25H51.9813L54.0213 228.295L56.0463 231.25H57.9063L54.8913 227.125L57.5763 223.495H55.7163L54.0213 225.955L52.3113 223.495H50.4513Z" fill="#A6A6A6"/>
<g clip-path="url(#clip0_203_2774)">
<g clip-path="url(#clip1_203_2774)">
<path d="M94.1402 202.403C92.5375 208.831 86.0264 212.744 79.597 211.141C73.1703 209.538 69.2579 203.026 70.8613 196.598C72.4633 190.169 78.9745 186.256 85.4019 187.859C91.8308 189.462 95.7429 195.974 94.1401 202.403L94.1402 202.403H94.1402Z" fill="#F7931A"/>
<path d="M87.793 197.79C88.0318 196.193 86.816 195.335 85.1535 194.762L85.6929 192.599L84.3761 192.271L83.851 194.377C83.5049 194.291 83.1493 194.21 82.796 194.129L83.3248 192.009L82.0089 191.681L81.4692 193.843C81.1828 193.778 80.9014 193.713 80.6284 193.646L80.6299 193.639L78.814 193.185L78.4638 194.592C78.4638 194.592 79.4407 194.816 79.4201 194.829C79.9534 194.963 80.0498 195.316 80.0338 195.595L79.4194 198.06C79.4561 198.069 79.5038 198.082 79.5563 198.104C79.5124 198.093 79.4656 198.081 79.4171 198.069L78.556 201.521C78.4909 201.683 78.3254 201.927 77.9526 201.834C77.9658 201.853 76.9956 201.595 76.9956 201.595L76.3418 203.103L78.0554 203.53C78.3742 203.61 78.6866 203.693 78.9942 203.772L78.4493 205.96L79.7646 206.288L80.3042 204.123C80.6636 204.221 81.0123 204.311 81.3536 204.396L80.8158 206.55L82.1327 206.878L82.6775 204.695C84.923 205.12 86.6113 204.948 87.322 202.917C87.8946 201.282 87.2935 200.339 86.1122 199.724C86.9726 199.525 87.6207 198.96 87.7935 197.791L87.7931 197.79L87.793 197.79ZM84.7844 202.009C84.3775 203.644 81.6243 202.76 80.7317 202.539L81.4548 199.64C82.3474 199.863 85.2097 200.304 84.7845 202.009H84.7844ZM85.1917 197.767C84.8204 199.254 82.529 198.498 81.7856 198.313L82.4412 195.684C83.1845 195.869 85.5784 196.215 85.1918 197.767H85.1917Z" fill="white"/>
</g>
<path d="M103.876 191.562C105.124 191.562 106.1 192.008 106.803 192.898C107.641 193.953 108.06 195.702 108.06 198.146C108.06 200.583 107.638 202.335 106.794 203.401C106.097 204.28 105.124 204.72 103.876 204.72C102.622 204.72 101.611 204.239 100.844 203.278C100.076 202.312 99.6924 200.592 99.6924 198.119C99.6924 195.693 100.114 193.947 100.958 192.881C101.655 192.002 102.628 191.562 103.876 191.562ZM103.876 193.61C103.577 193.61 103.311 193.707 103.076 193.9C102.842 194.088 102.66 194.428 102.531 194.92C102.361 195.559 102.276 196.634 102.276 198.146C102.276 199.657 102.353 200.697 102.505 201.266C102.657 201.828 102.848 202.203 103.076 202.391C103.311 202.578 103.577 202.672 103.876 202.672C104.175 202.672 104.441 202.578 104.676 202.391C104.91 202.197 105.092 201.854 105.221 201.362C105.391 200.729 105.476 199.657 105.476 198.146C105.476 196.634 105.399 195.597 105.247 195.034C105.095 194.466 104.901 194.088 104.667 193.9C104.438 193.707 104.175 193.61 103.876 193.61ZM110.248 204.5V202.03H112.718V204.5H110.248ZM118.905 191.562C120.153 191.562 121.129 192.008 121.832 192.898C122.67 193.953 123.089 195.702 123.089 198.146C123.089 200.583 122.667 202.335 121.823 203.401C121.126 204.28 120.153 204.72 118.905 204.72C117.651 204.72 116.641 204.239 115.873 203.278C115.105 202.312 114.722 200.592 114.722 198.119C114.722 195.693 115.144 193.947 115.987 192.881C116.685 192.002 117.657 191.562 118.905 191.562ZM118.905 193.61C118.606 193.61 118.34 193.707 118.105 193.9C117.871 194.088 117.689 194.428 117.561 194.92C117.391 195.559 117.306 196.634 117.306 198.146C117.306 199.657 117.382 200.697 117.534 201.266C117.687 201.828 117.877 202.203 118.105 202.391C118.34 202.578 118.606 202.672 118.905 202.672C119.204 202.672 119.471 202.578 119.705 202.391C119.939 202.197 120.121 201.854 120.25 201.362C120.42 200.729 120.505 199.657 120.505 198.146C120.505 196.634 120.429 195.597 120.276 195.034C120.124 194.466 119.931 194.088 119.696 193.9C119.468 193.707 119.204 193.61 118.905 193.61ZM128.925 191.562C130.173 191.562 131.148 192.008 131.852 192.898C132.689 193.953 133.108 195.702 133.108 198.146C133.108 200.583 132.687 202.335 131.843 203.401C131.146 204.28 130.173 204.72 128.925 204.72C127.671 204.72 126.66 204.239 125.893 203.278C125.125 202.312 124.741 200.592 124.741 198.119C124.741 195.693 125.163 193.947 126.007 192.881C126.704 192.002 127.677 191.562 128.925 191.562ZM128.925 193.61C128.626 193.61 128.359 193.707 128.125 193.9C127.891 194.088 127.709 194.428 127.58 194.92C127.41 195.559 127.325 196.634 127.325 198.146C127.325 199.657 127.401 200.697 127.554 201.266C127.706 201.828 127.896 202.203 128.125 202.391C128.359 202.578 128.626 202.672 128.925 202.672C129.224 202.672 129.49 202.578 129.725 202.391C129.959 202.197 130.141 201.854 130.27 201.362C130.439 200.729 130.524 199.657 130.524 198.146C130.524 196.634 130.448 195.597 130.296 195.034C130.144 194.466 129.95 194.088 129.716 193.9C129.487 193.707 129.224 193.61 128.925 193.61ZM138.944 191.562C140.192 191.562 141.168 192.008 141.871 192.898C142.709 193.953 143.128 195.702 143.128 198.146C143.128 200.583 142.706 202.335 141.862 203.401C141.165 204.28 140.192 204.72 138.944 204.72C137.69 204.72 136.68 204.239 135.912 203.278C135.145 202.312 134.761 200.592 134.761 198.119C134.761 195.693 135.183 193.947 136.026 192.881C136.724 192.002 137.696 191.562 138.944 191.562ZM138.944 193.61C138.646 193.61 138.379 193.707 138.145 193.9C137.91 194.088 137.729 194.428 137.6 194.92C137.43 195.559 137.345 196.634 137.345 198.146C137.345 199.657 137.421 200.697 137.573 201.266C137.726 201.828 137.916 202.203 138.145 202.391C138.379 202.578 138.646 202.672 138.944 202.672C139.243 202.672 139.51 202.578 139.744 202.391C139.979 202.197 140.16 201.854 140.289 201.362C140.459 200.729 140.544 199.657 140.544 198.146C140.544 196.634 140.468 195.597 140.315 195.034C140.163 194.466 139.97 194.088 139.735 193.9C139.507 193.707 139.243 193.61 138.944 193.61ZM148.964 191.562C150.212 191.562 151.188 192.008 151.891 192.898C152.729 193.953 153.147 195.702 153.147 198.146C153.147 200.583 152.726 202.335 151.882 203.401C151.185 204.28 150.212 204.72 148.964 204.72C147.71 204.72 146.699 204.239 145.932 203.278C145.164 202.312 144.78 200.592 144.78 198.119C144.78 195.693 145.202 193.947 146.046 192.881C146.743 192.002 147.716 191.562 148.964 191.562ZM148.964 193.61C148.665 193.61 148.398 193.707 148.164 193.9C147.93 194.088 147.748 194.428 147.619 194.92C147.449 195.559 147.364 196.634 147.364 198.146C147.364 199.657 147.44 200.697 147.593 201.266C147.745 201.828 147.936 202.203 148.164 202.391C148.398 202.578 148.665 202.672 148.964 202.672C149.263 202.672 149.529 202.578 149.764 202.391C149.998 202.197 150.18 201.854 150.309 201.362C150.479 200.729 150.563 199.657 150.563 198.146C150.563 196.634 150.487 195.597 150.335 195.034C150.183 194.466 149.989 194.088 149.755 193.9C149.526 193.707 149.263 193.61 148.964 193.61ZM161.128 204.5H158.658V195.192C157.756 196.036 156.692 196.66 155.468 197.064V194.823C156.112 194.612 156.812 194.214 157.568 193.628C158.324 193.036 158.843 192.348 159.124 191.562H161.128V204.5Z" fill="#484848"/>
<path d="M102.295 224.911V221.842C101.338 221.568 100.635 221.156 100.186 220.604C99.7412 220.047 99.519 219.374 99.519 218.583C99.519 217.782 99.7705 217.11 100.273 216.568C100.781 216.021 101.455 215.707 102.295 215.624V214.898H103.357V215.624C104.133 215.716 104.751 215.982 105.21 216.422C105.669 216.856 105.962 217.44 106.089 218.172L104.236 218.414C104.124 217.838 103.831 217.447 103.357 217.242V220.106C104.529 220.423 105.327 220.836 105.752 221.344C106.177 221.847 106.389 222.494 106.389 223.285C106.389 224.168 106.121 224.913 105.583 225.519C105.051 226.124 104.309 226.495 103.357 226.632V228.001H102.295V226.668C101.45 226.566 100.764 226.251 100.237 225.724C99.7095 225.196 99.3726 224.452 99.2261 223.49L101.138 223.285C101.216 223.675 101.362 224.012 101.577 224.295C101.792 224.579 102.031 224.784 102.295 224.911ZM102.295 217.22C102.007 217.318 101.777 217.484 101.606 217.718C101.436 217.953 101.35 218.211 101.35 218.495C101.35 218.753 101.428 218.995 101.584 219.22C101.741 219.439 101.978 219.618 102.295 219.754V217.22ZM103.357 225.013C103.723 224.945 104.021 224.776 104.25 224.508C104.48 224.234 104.595 223.915 104.595 223.548C104.595 223.221 104.497 222.94 104.302 222.706C104.111 222.467 103.796 222.284 103.357 222.157V225.013ZM111.736 226.5V224.339H107.341V222.538L112 215.719H113.728V222.53H115.061V224.339H113.728V226.5H111.736ZM111.736 222.53V218.861L109.268 222.53H111.736ZM116.489 226.5V224.442H118.547V226.5H116.489ZM124.26 226.5V224.339H119.866V222.538L124.524 215.719H126.252V222.53H127.585V224.339H126.252V226.5H124.26ZM124.26 222.53V218.861L121.792 222.53H124.26ZM132.053 215.719C133.093 215.719 133.906 216.09 134.492 216.832C135.19 217.711 135.54 219.168 135.54 221.205C135.54 223.236 135.188 224.696 134.485 225.584C133.904 226.317 133.093 226.683 132.053 226.683C131.008 226.683 130.166 226.283 129.526 225.482C128.887 224.676 128.567 223.243 128.567 221.183C128.567 219.161 128.918 217.706 129.622 216.817C130.203 216.085 131.013 215.719 132.053 215.719ZM132.053 217.425C131.804 217.425 131.582 217.506 131.387 217.667C131.191 217.823 131.04 218.106 130.933 218.517C130.791 219.049 130.72 219.945 130.72 221.205C130.72 222.464 130.784 223.331 130.911 223.805C131.038 224.273 131.196 224.586 131.387 224.742C131.582 224.898 131.804 224.977 132.053 224.977C132.302 224.977 132.524 224.898 132.72 224.742C132.915 224.581 133.066 224.295 133.174 223.885C133.315 223.358 133.386 222.464 133.386 221.205C133.386 219.945 133.323 219.081 133.196 218.612C133.069 218.138 132.908 217.823 132.712 217.667C132.522 217.506 132.302 217.425 132.053 217.425Z" fill="#A6A6A6"/>
</g>
<rect x="167" y="178" width="50" height="26.5" rx="10" fill="#ECECEC"/>
<path d="M184.171 186.04C183.811 186.43 183.361 186.775 182.821 187.105C182.281 187.405 181.786 187.615 181.306 187.735V189.355C182.296 189.07 183.121 188.62 183.766 188.005V196.75H185.401V186.04H184.171ZM192.499 184.45L187.249 198.25H188.644L193.879 184.45H192.499ZM198.979 185.83C197.839 185.83 196.909 186.205 196.219 186.985C195.544 187.705 195.199 188.665 195.184 189.865H196.819C196.849 188.995 197.029 188.35 197.389 187.9C197.734 187.435 198.244 187.21 198.919 187.21C199.549 187.21 200.044 187.36 200.374 187.66C200.704 187.96 200.869 188.41 200.869 189.01C200.869 189.64 200.614 190.225 200.134 190.765C199.834 191.08 199.324 191.485 198.604 191.995C197.389 192.835 196.579 193.48 196.189 193.945C195.469 194.755 195.124 195.685 195.124 196.75H202.504V195.31H197.149C197.374 194.725 198.064 194.05 199.219 193.285C200.284 192.565 201.019 191.995 201.439 191.56C202.129 190.795 202.489 189.955 202.489 189.025C202.489 188.08 202.159 187.315 201.514 186.715C200.854 186.115 199.999 185.83 198.979 185.83Z" fill="#A6A6A6"/>
<rect x="167" y="212.5" width="50" height="26.5" rx="10" fill="#ECECEC"/>
<path d="M188.191 220.33C187.051 220.33 186.121 220.705 185.431 221.485C184.756 222.205 184.411 223.165 184.396 224.365H186.031C186.061 223.495 186.241 222.85 186.601 222.4C186.946 221.935 187.456 221.71 188.131 221.71C188.761 221.71 189.256 221.86 189.586 222.16C189.916 222.46 190.081 222.91 190.081 223.51C190.081 224.14 189.826 224.725 189.346 225.265C189.046 225.58 188.536 225.985 187.816 226.495C186.601 227.335 185.791 227.98 185.401 228.445C184.681 229.255 184.336 230.185 184.336 231.25H191.716V229.81H186.361C186.586 229.225 187.276 228.55 188.431 227.785C189.496 227.065 190.231 226.495 190.651 226.06C191.341 225.295 191.701 224.455 191.701 223.525C191.701 222.58 191.371 221.815 190.726 221.215C190.066 220.615 189.211 220.33 188.191 220.33ZM192.94 223.495L195.625 227.125L192.595 231.25H194.47L196.51 228.295L198.535 231.25H200.395L197.38 227.125L200.065 223.495H198.205L196.51 225.955L194.8 223.495H192.94Z" fill="#A6A6A6"/>
<rect x="10.5" y="170.5" width="214" height="76" rx="9.5" stroke="#ECECEC"/>
<rect x="235" y="170" width="215" height="77" rx="10" fill="#F04E23"/>
<g filter="url(#filter0_d_203_2774)">
<path d="M329.258 202.148V215H335.126C336.494 215 337.556 214.748 338.312 214.244C339.194 213.632 339.644 212.696 339.644 211.4C339.644 210.536 339.428 209.834 338.996 209.312C338.564 208.79 337.916 208.448 337.07 208.286C337.718 208.052 338.204 207.692 338.564 207.224C338.924 206.72 339.104 206.108 339.104 205.388C339.104 204.398 338.762 203.624 338.078 203.048C337.358 202.436 336.386 202.148 335.126 202.148H329.258ZM331.22 203.768H334.64C335.504 203.768 336.152 203.912 336.548 204.218C336.944 204.506 337.142 204.974 337.142 205.622C337.142 206.306 336.944 206.81 336.548 207.134C336.152 207.44 335.504 207.602 334.604 207.602H331.22V203.768ZM331.22 209.204H334.91C335.846 209.204 336.548 209.366 336.998 209.708C337.448 210.05 337.682 210.608 337.682 211.364C337.682 212.102 337.376 212.642 336.8 212.984C336.332 213.236 335.684 213.38 334.856 213.38H331.22V209.204ZM345.377 205.442C344.009 205.442 342.911 205.91 342.119 206.864C341.291 207.8 340.895 208.952 340.895 210.338C340.895 211.868 341.327 213.074 342.191 213.974C342.983 214.82 344.081 215.252 345.449 215.252C346.691 215.252 347.717 214.892 348.527 214.19C349.175 213.614 349.589 212.876 349.805 212.012H347.897C347.645 212.552 347.375 212.966 347.051 213.218C346.637 213.524 346.097 213.686 345.431 213.686C344.675 213.686 344.081 213.434 343.649 212.966C343.217 212.48 342.983 211.778 342.911 210.878H349.967C349.949 209.222 349.571 207.926 348.851 206.99C348.059 205.946 346.889 205.442 345.377 205.442ZM345.431 207.008C346.943 207.008 347.789 207.818 347.969 209.438H342.947C343.055 208.646 343.325 208.052 343.721 207.638C344.153 207.206 344.711 207.008 345.431 207.008ZM354.422 202.688L352.514 203.48V205.694H350.786V207.278H352.514V212.678C352.514 213.416 352.676 213.974 353.036 214.37C353.396 214.784 353.99 215 354.782 215H356.312V213.416H355.088C354.854 213.416 354.692 213.344 354.584 213.236C354.476 213.11 354.422 212.93 354.422 212.678V207.278H356.546V205.694H354.422V202.688Z" fill="white"/>
</g>
<defs>
<filter id="filter0_d_203_2774" x="325.258" y="200.148" width="35.2871" height="21.104" filterUnits="userSpaceOnUse" color-interpolation-filters="sRGB">
<feFlood flood-opacity="0" result="BackgroundImageFix"/>
<feColorMatrix in="SourceAlpha" type="matrix" values="0 0 0 0 0 0 0 0 0 0 0 0 0 0 0 0 0 0 127 0" result="hardAlpha"/>
<feOffset dy="2"/>
<feGaussianBlur stdDeviation="2"/>
<feComposite in2="hardAlpha" operator="out"/>
<feColorMatrix type="matrix" values="0 0 0 0 0 0 0 0 0 0 0 0 0 0 0 0 0 0 0.3 0"/>
<feBlend mode="normal" in2="BackgroundImageFix" result="effect1_dropShadow_203_2774"/>
<feBlend mode="normal" in="SourceGraphic" in2="effect1_dropShadow_203_2774" result="shape"/>
</filter>
<clipPath id="clip0_203_2774">
<rect width="94" height="42" fill="white" transform="translate(70.5 187.5)"/>
</clipPath>
<clipPath id="clip1_203_2774">
<rect width="24" height="24" fill="white" transform="translate(70.5 187.5)"/>
</clipPath>
</defs>
</svg>
