<svg width="460" height="324" viewBox="0 0 460 324" fill="none" xmlns="http://www.w3.org/2000/svg">
<rect width="460" height="324" rx="10" fill="#0D131C"/>
<rect x="10" y="77" width="215" height="70" rx="10" fill="#161F2C"/>
<path d="M23.075 117.65C22.805 117.65 22.545 117.605 22.295 117.515C22.045 117.425 21.84 117.265 21.68 117.035C21.52 116.805 21.44 116.485 21.44 116.075V109.28H22.775V115.91C22.775 116.14 22.825 116.305 22.925 116.405C23.025 116.505 23.185 116.555 23.405 116.555C23.495 116.555 23.59 116.545 23.69 116.525C23.79 116.505 23.885 116.48 23.975 116.45L24.155 117.425C23.965 117.515 23.78 117.575 23.6 117.605C23.42 117.635 23.245 117.65 23.075 117.65ZM30.3073 117.5V112.025C30.3073 111.375 30.1573 110.915 29.8573 110.645C29.5673 110.365 29.0773 110.225 28.3873 110.225C27.8873 110.225 27.4073 110.295 26.9473 110.435C26.4973 110.565 26.0673 110.75 25.6573 110.99V109.745C25.9473 109.595 26.3373 109.455 26.8273 109.325C27.3273 109.195 27.8873 109.13 28.5073 109.13C29.0373 109.13 29.4873 109.19 29.8573 109.31C30.2373 109.43 30.5173 109.65 30.6973 109.97C31.0473 110.13 31.2873 110.38 31.4173 110.72C31.5573 111.06 31.6273 111.47 31.6273 111.95V117.5H30.3073ZM27.7273 117.65C26.8473 117.65 26.1723 117.45 25.7023 117.05C25.2423 116.64 25.0123 116.055 25.0123 115.295C25.0123 114.465 25.3123 113.825 25.9123 113.375C26.5223 112.925 27.5073 112.66 28.8673 112.58L30.5773 112.475V113.585L29.0473 113.69C28.0273 113.76 27.3223 113.92 26.9323 114.17C26.5523 114.42 26.3623 114.785 26.3623 115.265C26.3623 115.715 26.5023 116.045 26.7823 116.255C27.0723 116.465 27.4723 116.57 27.9823 116.57C28.1523 116.57 28.3073 116.56 28.4473 116.54C28.5873 116.51 28.7223 116.475 28.8523 116.435L29.0623 117.44C28.8723 117.51 28.6623 117.56 28.4323 117.59C28.2123 117.63 27.9773 117.65 27.7273 117.65ZM30.6523 110.435L29.9023 109.73C30.1623 109.69 30.4073 109.59 30.6373 109.43C30.8673 109.27 30.9823 109.04 30.9823 108.74H32.2873C32.2873 109.05 32.2123 109.325 32.0623 109.565C31.9223 109.795 31.7273 109.985 31.4773 110.135C31.2273 110.275 30.9523 110.375 30.6523 110.435ZM25.2539 107.975V107.39L26.3489 106.91H31.6289V107.975H25.2539ZM30.3839 107.39V105.695H31.6439V107.39H30.3839ZM30.3689 104.81V102.365H31.6439V104.81H30.3689ZM37.2413 117.635C36.4313 117.635 35.7813 117.53 35.2913 117.32C34.8113 117.11 34.4613 116.815 34.2413 116.435C34.0313 116.055 33.9263 115.605 33.9263 115.085C33.9263 114.625 33.9913 114.26 34.1213 113.99C34.2613 113.71 34.4313 113.505 34.6313 113.375C34.8413 113.245 35.0563 113.16 35.2763 113.12V113.06C35.0763 113 34.8663 112.9 34.6463 112.76C34.4263 112.62 34.2413 112.425 34.0913 112.175C33.9513 111.925 33.8813 111.61 33.8813 111.23C33.8813 110.88 33.9613 110.55 34.1213 110.24C34.2813 109.93 34.5413 109.675 34.9013 109.475C35.2613 109.275 35.7363 109.175 36.3263 109.175C36.5663 109.175 36.8163 109.195 37.0763 109.235C37.3363 109.265 37.5363 109.32 37.6763 109.4L37.4363 110.435C37.3263 110.395 37.1813 110.36 37.0013 110.33C36.8313 110.29 36.6513 110.27 36.4613 110.27C36.0413 110.27 35.7313 110.37 35.5313 110.57C35.3313 110.76 35.2313 111.015 35.2313 111.335C35.2313 111.685 35.3163 111.95 35.4863 112.13C35.6663 112.31 35.8913 112.435 36.1613 112.505C36.4413 112.565 36.7313 112.595 37.0313 112.595H37.3163V113.57H37.0313C36.4313 113.57 35.9863 113.68 35.6963 113.9C35.4163 114.11 35.2763 114.465 35.2763 114.965C35.2763 115.255 35.3313 115.52 35.4413 115.76C35.5613 116 35.7613 116.19 36.0413 116.33C36.3313 116.47 36.7313 116.54 37.2413 116.54C37.7513 116.54 38.1463 116.47 38.4263 116.33C38.7163 116.19 38.9213 115.99 39.0413 115.73C39.1613 115.46 39.2213 115.14 39.2213 114.77V109.28H40.5563V114.68C40.5563 115.73 40.2863 116.485 39.7463 116.945C39.2163 117.405 38.3813 117.635 37.2413 117.635ZM44.3326 117.5L41.7676 109.28H43.1176L45.3376 116.345H45.5176C45.7576 116.345 45.9926 116.29 46.2226 116.18C46.4526 116.06 46.6476 115.91 46.8076 115.73C47.1076 115.4 47.3276 114.985 47.4676 114.485C47.6076 113.975 47.6776 113.475 47.6776 112.985C47.6776 112.155 47.4876 111.505 47.1076 111.035C46.7376 110.555 46.2226 110.315 45.5626 110.315C45.4326 110.315 45.3026 110.325 45.1726 110.345C45.0526 110.365 44.9526 110.39 44.8726 110.42L44.5426 109.355C44.7526 109.295 44.9476 109.255 45.1276 109.235C45.3176 109.215 45.4876 109.205 45.6376 109.205C46.1376 109.205 46.5826 109.28 46.9726 109.43C47.3726 109.57 47.7126 109.78 47.9926 110.06C48.3426 110.4 48.5976 110.825 48.7576 111.335C48.9276 111.845 49.0126 112.41 49.0126 113.03C49.0126 113.81 48.8926 114.505 48.6526 115.115C48.4126 115.715 48.1126 116.195 47.7526 116.555C47.4626 116.845 47.1076 117.075 46.6876 117.245C46.2676 117.415 45.7326 117.5 45.0826 117.5H44.3326ZM53.5742 108.17C53.2592 108.17 52.9892 108.275 52.7792 108.5C52.5692 108.71 52.4642 108.98 52.4642 109.295C52.4642 109.595 52.5692 109.865 52.7792 110.075C52.9892 110.285 53.2592 110.405 53.5742 110.405C53.8742 110.405 54.1442 110.285 54.3692 110.075C54.5792 109.865 54.6992 109.595 54.6992 109.295C54.6992 108.98 54.5792 108.71 54.3692 108.5C54.1442 108.275 53.8742 108.17 53.5742 108.17ZM53.5742 113.66C53.2592 113.66 52.9892 113.765 52.7792 113.99C52.5692 114.2 52.4642 114.47 52.4642 114.785C52.4642 115.085 52.5692 115.355 52.7792 115.565C52.9892 115.775 53.2592 115.895 53.5742 115.895C53.8742 115.895 54.1442 115.775 54.3692 115.565C54.5792 115.355 54.6992 115.085 54.6992 114.785C54.6992 114.47 54.5792 114.2 54.3692 113.99C54.1442 113.765 53.8742 113.66 53.5742 113.66Z" fill="#7C8499"/>
<rect x="71.5" y="87.5" width="143" height="49" rx="9.5" fill="#161F2C"/>
<path d="M89.765 105.14V107.735H84.44V114.98H85.865V114.125H89.765V119.15H91.235V114.125H95.15V114.98H96.575V107.735H91.235V105.14H89.765ZM85.865 112.73V109.13H89.765V112.73H85.865ZM91.235 112.73V109.13H95.15V112.73H91.235ZM100.445 109.535V110.78H104.795V111.92H98.78V113.15H108.02V114.32H99.665V115.565H108.02V117.29C108.02 117.62 107.81 117.8 107.39 117.8C106.79 117.8 106.145 117.755 105.455 117.695L105.77 119.045H107.885C108.905 119.045 109.43 118.565 109.43 117.62V115.565H111.56V114.32H109.43V113.15H112.205V111.92H106.205V110.78H110.495V109.535H106.205V108.77H104.795V109.535H100.445ZM102.395 115.805L101.24 116.525C102.005 117.275 102.605 117.965 103.055 118.595L104.165 117.83C103.745 117.245 103.16 116.57 102.395 115.805ZM101.18 107.39H101.48C101.87 107.93 102.215 108.515 102.5 109.115L103.79 108.635C103.58 108.245 103.31 107.84 102.98 107.39H105.29V106.205H101.705C101.795 105.935 101.9 105.665 101.99 105.395L100.64 105.095C100.265 106.295 99.65 107.405 98.78 108.455L100.01 109.235C100.445 108.665 100.835 108.05 101.18 107.39ZM107.27 107.345H107.975C108.365 107.915 108.71 108.485 109.01 109.085L110.24 108.62C110.045 108.23 109.775 107.795 109.43 107.345H111.845V106.16H107.75C107.84 105.905 107.915 105.635 108.005 105.365L106.67 105.08C106.4 106.1 105.935 107.045 105.305 107.93L106.475 108.665C106.76 108.26 107.03 107.825 107.27 107.345Z" fill="white"/>
<path fill-rule="evenodd" clip-rule="evenodd" d="M192 116.375L185 109.805L186.065 108.5L192 114.07L197.935 108.5L199 109.805L192 116.375Z" fill="#7C8499"/>
<rect x="71.5" y="87.5" width="143" height="49" rx="9.5" stroke="#55657E"/>
<rect x="235" y="77" width="215" height="70" rx="10" fill="#161F2C"/>
<path d="M246.14 117.5V114.65C246.14 114.02 246.28 113.565 246.56 113.285C246.84 112.995 247.195 112.795 247.625 112.685L247.64 112.64L245.99 112.01V111.515C245.99 111.105 246.125 110.72 246.395 110.36C246.665 109.99 247.05 109.695 247.55 109.475C248.06 109.245 248.665 109.13 249.365 109.13C249.975 109.13 250.54 109.23 251.06 109.43C251.58 109.62 251.995 109.925 252.305 110.345C252.625 110.755 252.785 111.295 252.785 111.965V117.5H251.45V112.1C251.45 111.43 251.245 110.955 250.835 110.675C250.435 110.385 249.94 110.24 249.35 110.24C248.74 110.24 248.255 110.37 247.895 110.63C247.535 110.88 247.355 111.2 247.355 111.59L248.975 112.4L248.855 113.12C248.485 113.12 248.16 113.245 247.88 113.495C247.61 113.735 247.475 114.12 247.475 114.65V117.5H246.14ZM260.024 117.5V112.025C260.024 111.375 259.874 110.915 259.574 110.645C259.284 110.365 258.794 110.225 258.104 110.225C257.604 110.225 257.124 110.295 256.664 110.435C256.214 110.565 255.784 110.75 255.374 110.99V109.745C255.664 109.595 256.054 109.455 256.544 109.325C257.044 109.195 257.604 109.13 258.224 109.13C258.754 109.13 259.214 109.19 259.604 109.31C259.994 109.42 260.314 109.59 260.564 109.82C260.824 110.05 261.019 110.345 261.149 110.705C261.279 111.055 261.344 111.47 261.344 111.95V117.5H260.024ZM257.444 117.65C256.564 117.65 255.889 117.45 255.419 117.05C254.959 116.64 254.729 116.055 254.729 115.295C254.729 114.465 255.029 113.825 255.629 113.375C256.239 112.925 257.224 112.66 258.584 112.58L260.294 112.475V113.585L258.764 113.69C257.744 113.76 257.039 113.92 256.649 114.17C256.269 114.42 256.079 114.785 256.079 115.265C256.079 115.715 256.219 116.045 256.499 116.255C256.789 116.465 257.189 116.57 257.699 116.57C257.869 116.57 258.024 116.56 258.164 116.54C258.304 116.51 258.439 116.475 258.569 116.435L258.779 117.44C258.589 117.51 258.379 117.56 258.149 117.59C257.929 117.63 257.694 117.65 257.444 117.65ZM260.146 121.415V119.825C260.146 119.575 260.036 119.45 259.816 119.45C259.766 119.45 259.716 119.455 259.666 119.465C259.606 119.475 259.551 119.49 259.501 119.51L259.396 118.61C259.546 118.56 259.711 118.52 259.891 118.49C260.061 118.47 260.201 118.46 260.311 118.46C260.661 118.46 260.921 118.54 261.091 118.7C261.251 118.87 261.331 119.1 261.331 119.39V121.415H260.146ZM259.791 107.975V104.81H261.111V107.975H259.791ZM267.738 117.65C267.098 117.65 266.543 117.525 266.073 117.275C265.613 117.015 265.298 116.655 265.128 116.195H265.068L264.993 117.5H263.898V109.28H265.233V114.035C265.233 114.535 265.318 114.975 265.488 115.355C265.668 115.725 265.923 116.015 266.253 116.225C266.593 116.425 266.998 116.525 267.468 116.525C268.058 116.525 268.498 116.37 268.788 116.06C269.078 115.75 269.223 115.295 269.223 114.695V109.28H270.558V114.785C270.558 115.445 270.443 115.985 270.213 116.405C269.993 116.825 269.673 117.14 269.253 117.35C268.833 117.55 268.328 117.65 267.738 117.65ZM273.817 109.805C273.487 109.805 273.232 109.91 273.037 110.135C272.812 110.345 272.707 110.615 272.707 110.93C272.707 111.23 272.812 111.5 273.037 111.725C273.232 111.935 273.487 112.04 273.817 112.04C274.117 112.04 274.387 111.935 274.612 111.725C274.822 111.5 274.942 111.23 274.942 110.93C274.942 110.615 274.822 110.345 274.612 110.135C274.387 109.91 274.117 109.805 273.817 109.805ZM273.817 115.295C273.487 115.295 273.232 115.4 273.037 115.625C272.812 115.835 272.707 116.105 272.707 116.42C272.707 116.72 272.812 116.99 273.037 117.215C273.232 117.425 273.487 117.53 273.817 117.53C274.117 117.53 274.387 117.425 274.612 117.215C274.822 116.99 274.942 116.72 274.942 116.42C274.942 116.105 274.822 115.835 274.612 115.625C274.387 115.4 274.117 115.295 273.817 115.295Z" fill="#7C8499"/>
<rect x="282.5" y="87.5" width="157" height="49" rx="9.5" fill="#161F2C"/>
<path d="M299.58 106.79L294.3 113.63V115.175H299.52V117.5H301.08V115.175H302.7V113.87H301.08V106.79H299.58ZM299.475 108.86H299.52V113.87H295.635L299.475 108.86ZM307.494 106.58C306.234 106.58 305.259 107.105 304.569 108.17C303.939 109.145 303.624 110.465 303.624 112.145C303.624 113.81 303.939 115.13 304.569 116.12C305.259 117.17 306.234 117.71 307.494 117.71C308.754 117.71 309.729 117.17 310.419 116.12C311.049 115.13 311.364 113.795 311.364 112.145C311.364 110.48 311.049 109.16 310.419 108.17C309.729 107.105 308.754 106.58 307.494 106.58ZM307.494 107.96C308.364 107.96 308.994 108.44 309.354 109.415C309.609 110.075 309.744 110.99 309.744 112.145C309.744 113.285 309.609 114.2 309.354 114.875C308.994 115.835 308.364 116.33 307.494 116.33C306.609 116.33 305.994 115.835 305.634 114.875C305.364 114.2 305.244 113.285 305.244 112.145C305.244 110.99 305.364 110.075 305.634 109.415C305.994 108.44 306.609 107.96 307.494 107.96Z" fill="white"/>
<path fill-rule="evenodd" clip-rule="evenodd" d="M417 116.375L410 109.805L411.065 108.5L417 114.07L422.935 108.5L424 109.805L417 116.375Z" fill="#7C8499"/>
<rect x="282.5" y="87.5" width="157" height="49" rx="9.5" stroke="#55657E"/>
<rect x="10.5" y="170.5" width="214" height="76" rx="9.5" fill="#161F2C"/>
<rect x="18" y="178" width="50" height="26.5" rx="10" fill="#383C45"/>
<path d="M30.5939 196.9C29.6539 196.9 28.9239 196.675 28.4039 196.225C27.8939 195.765 27.6389 195.08 27.6389 194.17V193.255C27.6389 192.755 27.7089 192.36 27.8489 192.07C27.9889 191.78 28.1389 191.53 28.2989 191.32C28.4689 191.09 28.6139 190.89 28.7339 190.72C28.8639 190.55 28.9289 190.345 28.9289 190.105C28.9289 189.895 28.8739 189.745 28.7639 189.655C28.6639 189.565 28.5339 189.52 28.3739 189.52C28.2539 189.52 28.1239 189.54 27.9839 189.58C27.8539 189.62 27.7239 189.67 27.5939 189.73L27.2939 188.77C27.4739 188.65 27.6939 188.565 27.9539 188.515C28.2239 188.465 28.4589 188.44 28.6589 188.44C29.0289 188.44 29.3239 188.505 29.5439 188.635C29.7739 188.765 29.9389 188.945 30.0389 189.175C30.1389 189.395 30.1889 189.655 30.1889 189.955C30.1889 190.325 30.1239 190.63 29.9939 190.87C29.8739 191.11 29.7289 191.345 29.5589 191.575C29.3889 191.825 29.2489 192.065 29.1389 192.295C29.0289 192.525 28.9739 192.825 28.9739 193.195V194.08C28.9739 194.54 29.0489 194.895 29.1989 195.145C29.3489 195.395 29.5489 195.57 29.7989 195.67C30.0489 195.76 30.3139 195.805 30.5939 195.805C31.0939 195.805 31.4739 195.69 31.7339 195.46C32.0039 195.22 32.1389 194.855 32.1389 194.365V188.53H33.4739V194.44C33.4739 195.21 33.2289 195.815 32.7389 196.255C32.2589 196.685 31.5439 196.9 30.5939 196.9ZM31.5496 187.225C31.1296 187.225 30.7946 187.165 30.5446 187.045C30.2946 186.925 30.1146 186.77 30.0046 186.58C29.8846 186.39 29.8246 186.19 29.8246 185.98C29.8246 185.83 29.8496 185.67 29.8996 185.5C29.9396 185.32 29.9946 185.175 30.0646 185.065L31.1896 185.26C31.1696 185.3 31.1496 185.37 31.1296 185.47C31.1096 185.56 31.0996 185.645 31.0996 185.725C31.0996 185.855 31.1396 185.97 31.2196 186.07C31.2996 186.16 31.4346 186.205 31.6246 186.205H35.4196V187.225H31.5496ZM31.3737 185.06V184.535C31.5037 184.505 31.6437 184.46 31.7937 184.4C31.9437 184.34 32.0737 184.265 32.1837 184.175C32.2937 184.075 32.3487 183.95 32.3487 183.8C32.3487 183.69 32.3187 183.605 32.2587 183.545C32.1987 183.485 32.1137 183.455 32.0037 183.455C31.9237 183.455 31.8437 183.47 31.7637 183.5C31.6737 183.52 31.5887 183.555 31.5087 183.605L31.2387 182.915C31.4187 182.795 31.6237 182.715 31.8537 182.675C32.0737 182.635 32.2487 182.615 32.3787 182.615C32.6387 182.615 32.8737 182.685 33.0837 182.825C33.2937 182.955 33.3987 183.18 33.3987 183.5C33.3987 183.63 33.3737 183.78 33.3237 183.95C33.2637 184.11 33.1437 184.24 32.9637 184.34L32.8737 184.055H35.1537V185.06H31.3737ZM38.737 196.9C38.147 196.9 37.637 196.8 37.207 196.6C36.787 196.39 36.462 196.075 36.232 195.655C36.012 195.235 35.902 194.69 35.902 194.02V188.53H37.237V193.945C37.237 194.545 37.387 195 37.687 195.31C37.997 195.62 38.442 195.775 39.022 195.775C39.722 195.775 40.262 195.55 40.642 195.1C41.032 194.65 41.227 194.045 41.227 193.285V188.53H42.562V196.75H41.452L41.392 195.535H41.317C41.137 195.935 40.822 196.265 40.372 196.525C39.932 196.775 39.387 196.9 38.737 196.9ZM48.0112 196.9C47.1712 196.9 46.5212 196.71 46.0612 196.33C45.6012 195.94 45.2812 195.415 45.1012 194.755C44.9212 194.085 44.8312 193.325 44.8312 192.475C44.8312 191.495 44.9212 190.705 45.1012 190.105C45.2912 189.505 45.5662 189.07 45.9262 188.8C46.2862 188.52 46.7262 188.38 47.2462 188.38C47.5962 188.38 47.8912 188.44 48.1312 188.56C48.3812 188.68 48.5562 188.88 48.6562 189.16H48.7162C48.8162 188.87 48.9962 188.67 49.2562 188.56C49.5162 188.44 49.8212 188.38 50.1712 188.38C50.8212 188.38 51.3212 188.555 51.6712 188.905C52.0312 189.245 52.2112 189.77 52.2112 190.48V196.75H50.8762V190.495C50.8762 190.105 50.7912 189.84 50.6212 189.7C50.4512 189.56 50.2362 189.49 49.9762 189.49C49.6862 189.49 49.4712 189.56 49.3312 189.7C49.2012 189.84 49.1212 190.07 49.0912 190.39H48.2512C48.2112 190.04 48.1062 189.805 47.9362 189.685C47.7662 189.555 47.5762 189.49 47.3662 189.49C46.9662 189.49 46.6662 189.725 46.4662 190.195C46.2662 190.655 46.1662 191.42 46.1662 192.49C46.1662 193.18 46.2162 193.77 46.3162 194.26C46.4262 194.75 46.6262 195.13 46.9162 195.4C47.2062 195.66 47.6262 195.79 48.1762 195.79C48.3762 195.79 48.5412 195.78 48.6712 195.76C48.8012 195.74 48.9262 195.715 49.0462 195.685L49.1812 196.705C49.0312 196.775 48.8512 196.825 48.6412 196.855C48.4312 196.885 48.2212 196.9 48.0112 196.9ZM50.9638 187.585C50.4638 187.585 50.0688 187.47 49.7788 187.24C49.4888 187 49.3438 186.665 49.3438 186.235C49.3438 185.795 49.4888 185.46 49.7788 185.23C50.0688 185 50.4638 184.885 50.9638 184.885C51.4638 184.885 51.8638 185 52.1638 185.23C52.4638 185.46 52.6138 185.795 52.6138 186.235C52.6138 186.665 52.4638 187 52.1638 187.24C51.8638 187.47 51.4638 187.585 50.9638 187.585ZM50.9638 186.88C51.2038 186.88 51.3888 186.82 51.5188 186.7C51.6388 186.58 51.6988 186.425 51.6988 186.235C51.6988 186.035 51.6388 185.88 51.5188 185.77C51.3888 185.65 51.2038 185.59 50.9638 185.59C50.7338 185.59 50.5588 185.65 50.4388 185.77C50.3088 185.88 50.2438 186.035 50.2438 186.235C50.2438 186.425 50.3088 186.58 50.4388 186.7C50.5588 186.82 50.7338 186.88 50.9638 186.88ZM50.3293 184.06V181.615H51.6043V184.06H50.3293ZM56.9624 196.75V190.915C56.9624 190.425 56.8474 190.065 56.6174 189.835C56.3974 189.605 56.0224 189.49 55.4924 189.49C55.1324 189.49 54.7924 189.54 54.4724 189.64C54.1624 189.73 53.8624 189.86 53.5724 190.03V188.83C53.7724 188.73 54.0574 188.63 54.4274 188.53C54.7974 188.43 55.2374 188.38 55.7474 188.38C56.2674 188.38 56.7174 188.455 57.0974 188.605C57.4774 188.755 57.7724 189.005 57.9824 189.355C58.1924 189.695 58.2974 190.15 58.2974 190.72V196.75H56.9624Z" fill="#7C8499"/>
<rect x="18" y="212.5" width="50" height="26.5" rx="10" fill="#383C45"/>
<path d="M29.4733 231.4C28.5333 231.4 27.8033 231.175 27.2833 230.725C26.7733 230.265 26.5183 229.58 26.5183 228.67V227.755C26.5183 227.255 26.5883 226.86 26.7283 226.57C26.8683 226.28 27.0183 226.03 27.1783 225.82C27.3483 225.59 27.4933 225.39 27.6133 225.22C27.7433 225.05 27.8083 224.845 27.8083 224.605C27.8083 224.395 27.7533 224.245 27.6433 224.155C27.5433 224.065 27.4133 224.02 27.2533 224.02C27.1333 224.02 27.0033 224.04 26.8633 224.08C26.7333 224.12 26.6033 224.17 26.4733 224.23L26.1733 223.27C26.3533 223.15 26.5733 223.065 26.8333 223.015C27.1033 222.965 27.3383 222.94 27.5383 222.94C27.9083 222.94 28.2033 223.005 28.4233 223.135C28.6533 223.265 28.8183 223.445 28.9183 223.675C29.0183 223.895 29.0683 224.155 29.0683 224.455C29.0683 224.825 29.0033 225.13 28.8733 225.37C28.7533 225.61 28.6083 225.845 28.4383 226.075C28.2683 226.325 28.1283 226.565 28.0183 226.795C27.9083 227.025 27.8533 227.325 27.8533 227.695V228.58C27.8533 229.04 27.9283 229.395 28.0783 229.645C28.2283 229.895 28.4283 230.07 28.6783 230.17C28.9283 230.26 29.1933 230.305 29.4733 230.305C29.9733 230.305 30.3533 230.19 30.6133 229.96C30.8833 229.72 31.0183 229.355 31.0183 228.865V223.03H32.3533V228.94C32.3533 229.71 32.1083 230.315 31.6183 230.755C31.1383 231.185 30.4233 231.4 29.4733 231.4ZM25.9589 221.725V221.14L27.0539 220.66H32.3339V221.725H25.9589ZM31.0889 221.14V219.445H32.3489V221.14H31.0889ZM37.5864 231.4C36.7864 231.4 36.1564 231.215 35.6964 230.845C35.2464 230.465 34.9264 229.955 34.7364 229.315C34.5564 228.675 34.4664 227.97 34.4664 227.2C34.4664 226.35 34.5514 225.65 34.7214 225.1C34.9014 224.54 35.1514 224.1 35.4714 223.78C35.8014 223.45 36.1914 223.22 36.6414 223.09C37.1014 222.95 37.6064 222.88 38.1564 222.88C38.9564 222.88 39.6064 223 40.1064 223.24C40.6164 223.47 40.9914 223.8 41.2314 224.23C41.4714 224.66 41.5914 225.175 41.5914 225.775V231.25H40.2714V225.895C40.2714 225.275 40.1164 224.805 39.8064 224.485C39.4964 224.155 38.9614 223.99 38.2014 223.99C37.7414 223.99 37.3264 224.075 36.9564 224.245C36.5964 224.415 36.3114 224.73 36.1014 225.19C35.9014 225.65 35.8014 226.325 35.8014 227.215C35.8014 227.795 35.8564 228.32 35.9664 228.79C36.0864 229.25 36.2914 229.615 36.5814 229.885C36.8714 230.155 37.2764 230.29 37.7964 230.29C37.9464 230.29 38.0864 230.28 38.2164 230.26C38.3464 230.24 38.4714 230.21 38.5914 230.17L38.7264 231.205C38.5664 231.275 38.3814 231.325 38.1714 231.355C37.9714 231.385 37.7764 231.4 37.5864 231.4ZM48.8396 231.25V225.775C48.8396 225.125 48.6896 224.665 48.3896 224.395C48.0996 224.115 47.6096 223.975 46.9196 223.975C46.4196 223.975 45.9396 224.045 45.4796 224.185C45.0296 224.315 44.5996 224.5 44.1896 224.74V223.495C44.4796 223.345 44.8696 223.205 45.3596 223.075C45.8596 222.945 46.4196 222.88 47.0396 222.88C47.5696 222.88 48.0196 222.94 48.3896 223.06C48.7696 223.18 49.0496 223.4 49.2296 223.72C49.5796 223.88 49.8196 224.13 49.9496 224.47C50.0896 224.81 50.1596 225.22 50.1596 225.7V231.25H48.8396ZM46.2596 231.4C45.3796 231.4 44.7046 231.2 44.2346 230.8C43.7746 230.39 43.5446 229.805 43.5446 229.045C43.5446 228.215 43.8446 227.575 44.4446 227.125C45.0546 226.675 46.0396 226.41 47.3996 226.33L49.1096 226.225V227.335L47.5796 227.44C46.5596 227.51 45.8546 227.67 45.4646 227.92C45.0846 228.17 44.8946 228.535 44.8946 229.015C44.8946 229.465 45.0346 229.795 45.3146 230.005C45.6046 230.215 46.0046 230.32 46.5146 230.32C46.6846 230.32 46.8396 230.31 46.9796 230.29C47.1196 230.26 47.2546 230.225 47.3846 230.185L47.5946 231.19C47.4046 231.26 47.1946 231.31 46.9646 231.34C46.7446 231.38 46.5096 231.4 46.2596 231.4ZM49.1846 224.185L48.4346 223.48C48.6946 223.44 48.9396 223.34 49.1696 223.18C49.3996 223.02 49.5146 222.79 49.5146 222.49H50.8196C50.8196 222.8 50.7446 223.075 50.5946 223.315C50.4546 223.545 50.2596 223.735 50.0096 223.885C49.7596 224.025 49.4846 224.125 49.1846 224.185ZM48.9611 235.165V233.575C48.9611 233.325 48.8511 233.2 48.6311 233.2C48.5811 233.2 48.5311 233.205 48.4811 233.215C48.4211 233.225 48.3661 233.24 48.3161 233.26L48.2111 232.36C48.3611 232.31 48.5261 232.27 48.7061 232.24C48.8761 232.22 49.0161 232.21 49.1261 232.21C49.4761 232.21 49.7361 232.29 49.9061 232.45C50.0661 232.62 50.1461 232.85 50.1461 233.14V235.165H48.9611ZM55.4136 231.4C54.6136 231.4 53.9836 231.215 53.5236 230.845C53.0736 230.465 52.7536 229.955 52.5636 229.315C52.3836 228.675 52.2936 227.97 52.2936 227.2C52.2936 226.35 52.3786 225.65 52.5486 225.1C52.7286 224.54 52.9786 224.1 53.2986 223.78C53.6286 223.45 54.0186 223.22 54.4686 223.09C54.9286 222.95 55.4336 222.88 55.9836 222.88C56.7836 222.88 57.4336 223 57.9336 223.24C58.4436 223.47 58.8186 223.8 59.0586 224.23C59.2986 224.66 59.4186 225.175 59.4186 225.775V231.25H58.0986V225.895C58.0986 225.275 57.9436 224.805 57.6336 224.485C57.3236 224.155 56.7886 223.99 56.0286 223.99C55.5686 223.99 55.1536 224.075 54.7836 224.245C54.4236 224.415 54.1386 224.73 53.9286 225.19C53.7286 225.65 53.6286 226.325 53.6286 227.215C53.6286 227.795 53.6836 228.32 53.7936 228.79C53.9136 229.25 54.1186 229.615 54.4086 229.885C54.6986 230.155 55.1036 230.29 55.6236 230.29C55.7736 230.29 55.9136 230.28 56.0436 230.26C56.1736 230.24 56.2986 230.21 56.4186 230.17L56.5536 231.205C56.3936 231.275 56.2086 231.325 55.9986 231.355C55.7986 231.385 55.6036 231.4 55.4136 231.4Z" fill="#7C8499"/>
<g clip-path="url(#clip0_144_24415)">
<g clip-path="url(#clip1_144_24415)">
<path d="M94.1402 202.403C92.5375 208.831 86.0264 212.744 79.597 211.141C73.1703 209.538 69.2579 203.026 70.8613 196.598C72.4633 190.169 78.9745 186.256 85.4019 187.859C91.8308 189.462 95.7429 195.974 94.1401 202.403L94.1402 202.403H94.1402Z" fill="#F7931A"/>
<path d="M87.793 197.79C88.0318 196.193 86.816 195.335 85.1535 194.762L85.6929 192.599L84.3761 192.271L83.851 194.377C83.5049 194.291 83.1493 194.21 82.796 194.129L83.3248 192.009L82.0089 191.681L81.4692 193.843C81.1828 193.778 80.9014 193.713 80.6284 193.646L80.6299 193.639L78.814 193.185L78.4638 194.592C78.4638 194.592 79.4407 194.816 79.4201 194.829C79.9534 194.963 80.0498 195.316 80.0338 195.595L79.4194 198.06C79.4561 198.069 79.5038 198.082 79.5563 198.104C79.5124 198.093 79.4656 198.081 79.4171 198.069L78.556 201.521C78.4909 201.683 78.3254 201.927 77.9526 201.834C77.9658 201.853 76.9956 201.595 76.9956 201.595L76.3418 203.103L78.0554 203.53C78.3742 203.61 78.6866 203.693 78.9942 203.772L78.4493 205.96L79.7646 206.288L80.3042 204.123C80.6636 204.221 81.0123 204.311 81.3536 204.396L80.8158 206.55L82.1327 206.878L82.6775 204.695C84.923 205.12 86.6113 204.948 87.322 202.917C87.8946 201.282 87.2935 200.339 86.1122 199.724C86.9726 199.525 87.6207 198.96 87.7935 197.791L87.7931 197.79L87.793 197.79ZM84.7844 202.009C84.3775 203.644 81.6243 202.76 80.7317 202.539L81.4548 199.64C82.3474 199.863 85.2097 200.304 84.7845 202.009H84.7844ZM85.1917 197.767C84.8204 199.254 82.529 198.498 81.7856 198.313L82.4412 195.684C83.1845 195.869 85.5784 196.215 85.1918 197.767H85.1917Z" fill="white"/>
</g>
<path d="M103.876 191.562C105.124 191.562 106.1 192.008 106.803 192.898C107.641 193.953 108.06 195.702 108.06 198.146C108.06 200.583 107.638 202.335 106.794 203.401C106.097 204.28 105.124 204.72 103.876 204.72C102.622 204.72 101.611 204.239 100.844 203.278C100.076 202.312 99.6924 200.592 99.6924 198.119C99.6924 195.693 100.114 193.947 100.958 192.881C101.655 192.002 102.628 191.562 103.876 191.562ZM103.876 193.61C103.577 193.61 103.311 193.707 103.076 193.9C102.842 194.088 102.66 194.428 102.531 194.92C102.361 195.559 102.276 196.634 102.276 198.146C102.276 199.657 102.353 200.697 102.505 201.266C102.657 201.828 102.848 202.203 103.076 202.391C103.311 202.578 103.577 202.672 103.876 202.672C104.175 202.672 104.441 202.578 104.676 202.391C104.91 202.197 105.092 201.854 105.221 201.362C105.391 200.729 105.476 199.657 105.476 198.146C105.476 196.634 105.399 195.597 105.247 195.034C105.095 194.466 104.901 194.088 104.667 193.9C104.438 193.707 104.175 193.61 103.876 193.61ZM110.248 204.5V202.03H112.718V204.5H110.248ZM118.905 191.562C120.153 191.562 121.129 192.008 121.832 192.898C122.67 193.953 123.089 195.702 123.089 198.146C123.089 200.583 122.667 202.335 121.823 203.401C121.126 204.28 120.153 204.72 118.905 204.72C117.651 204.72 116.641 204.239 115.873 203.278C115.105 202.312 114.722 200.592 114.722 198.119C114.722 195.693 115.144 193.947 115.987 192.881C116.685 192.002 117.657 191.562 118.905 191.562ZM118.905 193.61C118.606 193.61 118.34 193.707 118.105 193.9C117.871 194.088 117.689 194.428 117.561 194.92C117.391 195.559 117.306 196.634 117.306 198.146C117.306 199.657 117.382 200.697 117.534 201.266C117.687 201.828 117.877 202.203 118.105 202.391C118.34 202.578 118.606 202.672 118.905 202.672C119.204 202.672 119.471 202.578 119.705 202.391C119.939 202.197 120.121 201.854 120.25 201.362C120.42 200.729 120.505 199.657 120.505 198.146C120.505 196.634 120.429 195.597 120.276 195.034C120.124 194.466 119.931 194.088 119.696 193.9C119.468 193.707 119.204 193.61 118.905 193.61ZM128.925 191.562C130.173 191.562 131.148 192.008 131.852 192.898C132.689 193.953 133.108 195.702 133.108 198.146C133.108 200.583 132.687 202.335 131.843 203.401C131.146 204.28 130.173 204.72 128.925 204.72C127.671 204.72 126.66 204.239 125.893 203.278C125.125 202.312 124.741 200.592 124.741 198.119C124.741 195.693 125.163 193.947 126.007 192.881C126.704 192.002 127.677 191.562 128.925 191.562ZM128.925 193.61C128.626 193.61 128.359 193.707 128.125 193.9C127.891 194.088 127.709 194.428 127.58 194.92C127.41 195.559 127.325 196.634 127.325 198.146C127.325 199.657 127.401 200.697 127.554 201.266C127.706 201.828 127.896 202.203 128.125 202.391C128.359 202.578 128.626 202.672 128.925 202.672C129.224 202.672 129.49 202.578 129.725 202.391C129.959 202.197 130.141 201.854 130.27 201.362C130.439 200.729 130.524 199.657 130.524 198.146C130.524 196.634 130.448 195.597 130.296 195.034C130.144 194.466 129.95 194.088 129.716 193.9C129.487 193.707 129.224 193.61 128.925 193.61ZM138.944 191.562C140.192 191.562 141.168 192.008 141.871 192.898C142.709 193.953 143.128 195.702 143.128 198.146C143.128 200.583 142.706 202.335 141.862 203.401C141.165 204.28 140.192 204.72 138.944 204.72C137.69 204.72 136.68 204.239 135.912 203.278C135.145 202.312 134.761 200.592 134.761 198.119C134.761 195.693 135.183 193.947 136.026 192.881C136.724 192.002 137.696 191.562 138.944 191.562ZM138.944 193.61C138.646 193.61 138.379 193.707 138.145 193.9C137.91 194.088 137.729 194.428 137.6 194.92C137.43 195.559 137.345 196.634 137.345 198.146C137.345 199.657 137.421 200.697 137.573 201.266C137.726 201.828 137.916 202.203 138.145 202.391C138.379 202.578 138.646 202.672 138.944 202.672C139.243 202.672 139.51 202.578 139.744 202.391C139.979 202.197 140.16 201.854 140.289 201.362C140.459 200.729 140.544 199.657 140.544 198.146C140.544 196.634 140.468 195.597 140.315 195.034C140.163 194.466 139.97 194.088 139.735 193.9C139.507 193.707 139.243 193.61 138.944 193.61ZM148.964 191.562C150.212 191.562 151.188 192.008 151.891 192.898C152.729 193.953 153.147 195.702 153.147 198.146C153.147 200.583 152.726 202.335 151.882 203.401C151.185 204.28 150.212 204.72 148.964 204.72C147.71 204.72 146.699 204.239 145.932 203.278C145.164 202.312 144.78 200.592 144.78 198.119C144.78 195.693 145.202 193.947 146.046 192.881C146.743 192.002 147.716 191.562 148.964 191.562ZM148.964 193.61C148.665 193.61 148.398 193.707 148.164 193.9C147.93 194.088 147.748 194.428 147.619 194.92C147.449 195.559 147.364 196.634 147.364 198.146C147.364 199.657 147.44 200.697 147.593 201.266C147.745 201.828 147.936 202.203 148.164 202.391C148.398 202.578 148.665 202.672 148.964 202.672C149.263 202.672 149.529 202.578 149.764 202.391C149.998 202.197 150.18 201.854 150.309 201.362C150.479 200.729 150.563 199.657 150.563 198.146C150.563 196.634 150.487 195.597 150.335 195.034C150.183 194.466 149.989 194.088 149.755 193.9C149.526 193.707 149.263 193.61 148.964 193.61ZM161.128 204.5H158.658V195.192C157.756 196.036 156.692 196.66 155.468 197.064V194.823C156.112 194.612 156.812 194.214 157.568 193.628C158.324 193.036 158.843 192.348 159.124 191.562H161.128V204.5Z" fill="white"/>
<path d="M102.295 224.911V221.842C101.338 221.568 100.635 221.156 100.186 220.604C99.7412 220.047 99.519 219.374 99.519 218.583C99.519 217.782 99.7705 217.11 100.273 216.568C100.781 216.021 101.455 215.707 102.295 215.624V214.898H103.357V215.624C104.133 215.716 104.751 215.982 105.21 216.422C105.669 216.856 105.962 217.44 106.089 218.172L104.236 218.414C104.124 217.838 103.831 217.447 103.357 217.242V220.106C104.529 220.423 105.327 220.836 105.752 221.344C106.177 221.847 106.389 222.494 106.389 223.285C106.389 224.168 106.121 224.913 105.583 225.519C105.051 226.124 104.309 226.495 103.357 226.632V228.001H102.295V226.668C101.45 226.566 100.764 226.251 100.237 225.724C99.7095 225.196 99.3726 224.452 99.2261 223.49L101.138 223.285C101.216 223.675 101.362 224.012 101.577 224.295C101.792 224.579 102.031 224.784 102.295 224.911ZM102.295 217.22C102.007 217.318 101.777 217.484 101.606 217.718C101.436 217.953 101.35 218.211 101.35 218.495C101.35 218.753 101.428 218.995 101.584 219.22C101.741 219.439 101.978 219.618 102.295 219.754V217.22ZM103.357 225.013C103.723 224.945 104.021 224.776 104.25 224.508C104.48 224.234 104.595 223.915 104.595 223.548C104.595 223.221 104.497 222.94 104.302 222.706C104.111 222.467 103.796 222.284 103.357 222.157V225.013ZM111.736 226.5V224.339H107.341V222.538L112 215.719H113.728V222.53H115.061V224.339H113.728V226.5H111.736ZM111.736 222.53V218.861L109.268 222.53H111.736ZM116.489 226.5V224.442H118.547V226.5H116.489ZM124.26 226.5V224.339H119.866V222.538L124.524 215.719H126.252V222.53H127.585V224.339H126.252V226.5H124.26ZM124.26 222.53V218.861L121.792 222.53H124.26ZM132.053 215.719C133.093 215.719 133.906 216.09 134.492 216.832C135.19 217.711 135.54 219.168 135.54 221.205C135.54 223.236 135.188 224.696 134.485 225.584C133.904 226.317 133.093 226.683 132.053 226.683C131.008 226.683 130.166 226.283 129.526 225.482C128.887 224.676 128.567 223.243 128.567 221.183C128.567 219.161 128.918 217.706 129.622 216.817C130.203 216.085 131.013 215.719 132.053 215.719ZM132.053 217.425C131.804 217.425 131.582 217.506 131.387 217.667C131.191 217.823 131.04 218.106 130.933 218.517C130.791 219.049 130.72 219.945 130.72 221.205C130.72 222.464 130.784 223.331 130.911 223.805C131.038 224.273 131.196 224.586 131.387 224.742C131.582 224.898 131.804 224.977 132.053 224.977C132.302 224.977 132.524 224.898 132.72 224.742C132.915 224.581 133.066 224.295 133.174 223.885C133.315 223.358 133.386 222.464 133.386 221.205C133.386 219.945 133.323 219.081 133.196 218.612C133.069 218.138 132.908 217.823 132.712 217.667C132.522 217.506 132.302 217.425 132.053 217.425Z" fill="#7C8499"/>
</g>
<rect x="167" y="178" width="50" height="26.5" rx="10" fill="#383C45"/>
<path d="M184.171 186.04C183.811 186.43 183.361 186.775 182.821 187.105C182.281 187.405 181.786 187.615 181.306 187.735V189.355C182.296 189.07 183.121 188.62 183.766 188.005V196.75H185.401V186.04H184.171ZM192.499 184.45L187.249 198.25H188.644L193.879 184.45H192.499ZM198.979 185.83C197.839 185.83 196.909 186.205 196.219 186.985C195.544 187.705 195.199 188.665 195.184 189.865H196.819C196.849 188.995 197.029 188.35 197.389 187.9C197.734 187.435 198.244 187.21 198.919 187.21C199.549 187.21 200.044 187.36 200.374 187.66C200.704 187.96 200.869 188.41 200.869 189.01C200.869 189.64 200.614 190.225 200.134 190.765C199.834 191.08 199.324 191.485 198.604 191.995C197.389 192.835 196.579 193.48 196.189 193.945C195.469 194.755 195.124 195.685 195.124 196.75H202.504V195.31H197.149C197.374 194.725 198.064 194.05 199.219 193.285C200.284 192.565 201.019 191.995 201.439 191.56C202.129 190.795 202.489 189.955 202.489 189.025C202.489 188.08 202.159 187.315 201.514 186.715C200.854 186.115 199.999 185.83 198.979 185.83Z" fill="#7C8499"/>
<rect x="167" y="212.5" width="50" height="26.5" rx="10" fill="#383C45"/>
<path d="M188.191 220.33C187.051 220.33 186.121 220.705 185.431 221.485C184.756 222.205 184.411 223.165 184.396 224.365H186.031C186.061 223.495 186.241 222.85 186.601 222.4C186.946 221.935 187.456 221.71 188.131 221.71C188.761 221.71 189.256 221.86 189.586 222.16C189.916 222.46 190.081 222.91 190.081 223.51C190.081 224.14 189.826 224.725 189.346 225.265C189.046 225.58 188.536 225.985 187.816 226.495C186.601 227.335 185.791 227.98 185.401 228.445C184.681 229.255 184.336 230.185 184.336 231.25H191.716V229.81H186.361C186.586 229.225 187.276 228.55 188.431 227.785C189.496 227.065 190.231 226.495 190.651 226.06C191.341 225.295 191.701 224.455 191.701 223.525C191.701 222.58 191.371 221.815 190.726 221.215C190.066 220.615 189.211 220.33 188.191 220.33ZM192.94 223.495L195.625 227.125L192.595 231.25H194.47L196.51 228.295L198.535 231.25H200.395L197.38 227.125L200.065 223.495H198.205L196.51 225.955L194.8 223.495H192.94Z" fill="#7C8499"/>
<rect x="10.5" y="170.5" width="214" height="76" rx="9.5" stroke="#55657E"/>
<rect x="235" y="170" width="215" height="77" rx="10" fill="#F04E23"/>
<g filter="url(#filter0_d_144_24415)">
<path d="M320.772 215.18C320.448 215.18 320.136 215.126 319.836 215.018C319.536 214.91 319.29 214.718 319.098 214.442C318.906 214.166 318.81 213.782 318.81 213.29V205.136H320.412V213.092C320.412 213.368 320.472 213.566 320.592 213.686C320.712 213.806 320.904 213.866 321.168 213.866C321.276 213.866 321.39 213.854 321.51 213.83C321.63 213.806 321.744 213.776 321.852 213.74L322.068 214.91C321.84 215.018 321.618 215.09 321.402 215.126C321.186 215.162 320.976 215.18 320.772 215.18ZM327.039 215.18C326.079 215.18 325.323 214.958 324.771 214.514C324.231 214.058 323.847 213.446 323.619 212.678C323.403 211.91 323.295 211.064 323.295 210.14C323.295 209.12 323.397 208.28 323.601 207.62C323.817 206.948 324.117 206.42 324.501 206.036C324.897 205.64 325.365 205.364 325.905 205.208C326.457 205.04 327.063 204.956 327.723 204.956C328.683 204.956 329.463 205.1 330.063 205.388C330.675 205.664 331.125 206.06 331.413 206.576C331.701 207.092 331.845 207.71 331.845 208.43V215H330.261V208.574C330.261 207.83 330.075 207.266 329.703 206.882C329.331 206.486 328.689 206.288 327.777 206.288C327.225 206.288 326.727 206.39 326.283 206.594C325.851 206.798 325.509 207.176 325.257 207.728C325.017 208.28 324.897 209.09 324.897 210.158C324.897 210.854 324.963 211.484 325.095 212.048C325.239 212.6 325.485 213.038 325.833 213.362C326.181 213.686 326.667 213.848 327.291 213.848C327.471 213.848 327.639 213.836 327.795 213.812C327.951 213.788 328.101 213.752 328.245 213.704L328.407 214.946C328.215 215.03 327.993 215.09 327.741 215.126C327.501 215.162 327.267 215.18 327.039 215.18ZM324.055 203.57V202.868L325.369 202.292H331.705V203.57H324.055ZM339.517 215.18C338.749 215.18 338.083 215.03 337.519 214.73C336.967 214.418 336.589 213.986 336.385 213.434H336.313L336.223 215H334.909V205.136H336.511V210.842C336.511 211.442 336.613 211.97 336.817 212.426C337.033 212.87 337.339 213.218 337.735 213.47C338.143 213.71 338.629 213.83 339.193 213.83C339.901 213.83 340.429 213.644 340.777 213.272C341.125 212.9 341.299 212.354 341.299 211.634V205.136H342.901V211.742C342.901 212.534 342.763 213.182 342.487 213.686C342.223 214.19 341.839 214.568 341.335 214.82C340.831 215.06 340.225 215.18 339.517 215.18ZM346.883 215L345.101 205.136H346.739L347.441 209.42C347.501 209.768 347.561 210.218 347.621 210.77C347.681 211.322 347.753 211.976 347.837 212.732H347.891C347.999 212.216 348.101 211.754 348.197 211.346C348.305 210.938 348.401 210.572 348.485 210.248C348.581 209.912 348.665 209.618 348.737 209.366L349.943 205.136H351.257L352.481 209.366C352.553 209.618 352.631 209.912 352.715 210.248C352.811 210.572 352.907 210.938 353.003 211.346C353.111 211.754 353.219 212.216 353.327 212.732H353.399C353.471 211.976 353.537 211.322 353.597 210.77C353.657 210.218 353.717 209.768 353.777 209.42L354.497 205.136H356.135L354.353 215H352.787L351.131 209.636C351.047 209.336 350.963 209.024 350.879 208.7C350.807 208.376 350.735 207.95 350.663 207.422H350.591C350.543 207.77 350.489 208.076 350.429 208.34C350.369 208.604 350.309 208.838 350.249 209.042C350.189 209.246 350.129 209.444 350.069 209.636L348.449 215H346.883ZM353.096 203.57C352.592 203.57 352.19 203.498 351.89 203.354C351.59 203.21 351.374 203.024 351.242 202.796C351.098 202.568 351.026 202.328 351.026 202.076C351.026 201.896 351.056 201.704 351.116 201.5C351.164 201.284 351.23 201.11 351.314 200.978L352.664 201.212C352.64 201.26 352.616 201.344 352.592 201.464C352.568 201.572 352.556 201.674 352.556 201.77C352.556 201.926 352.604 202.064 352.7 202.184C352.796 202.292 352.958 202.346 353.186 202.346H357.74V203.57H353.096ZM361.739 215.18C361.031 215.18 360.419 215.06 359.903 214.82C359.399 214.568 359.009 214.19 358.733 213.686C358.469 213.182 358.337 212.528 358.337 211.724V205.136H359.939V211.634C359.939 212.354 360.119 212.9 360.479 213.272C360.851 213.644 361.385 213.83 362.081 213.83C362.921 213.83 363.569 213.56 364.025 213.02C364.493 212.48 364.727 211.754 364.727 210.842V205.136H366.329V215H364.997L364.925 213.542H364.835C364.619 214.022 364.241 214.418 363.701 214.73C363.173 215.03 362.519 215.18 361.739 215.18Z" fill="white"/>
</g>
<defs>
<filter id="filter0_d_144_24415" x="314.811" y="198.978" width="55.5176" height="22.2021" filterUnits="userSpaceOnUse" color-interpolation-filters="sRGB">
<feFlood flood-opacity="0" result="BackgroundImageFix"/>
<feColorMatrix in="SourceAlpha" type="matrix" values="0 0 0 0 0 0 0 0 0 0 0 0 0 0 0 0 0 0 127 0" result="hardAlpha"/>
<feOffset dy="2"/>
<feGaussianBlur stdDeviation="2"/>
<feComposite in2="hardAlpha" operator="out"/>
<feColorMatrix type="matrix" values="0 0 0 0 0 0 0 0 0 0 0 0 0 0 0 0 0 0 0.3 0"/>
<feBlend mode="normal" in2="BackgroundImageFix" result="effect1_dropShadow_144_24415"/>
<feBlend mode="normal" in="SourceGraphic" in2="effect1_dropShadow_144_24415" result="shape"/>
</filter>
<clipPath id="clip0_144_24415">
<rect width="94" height="42" fill="white" transform="translate(70.5 187.5)"/>
</clipPath>
<clipPath id="clip1_144_24415">
<rect width="24" height="24" fill="white" transform="translate(70.5 187.5)"/>
</clipPath>
</defs>
</svg>
