<svg width="460" height="324" viewBox="0 0 460 324" fill="none" xmlns="http://www.w3.org/2000/svg">
<rect width="460" height="324" rx="10" fill="#F4F7FD"/>
<rect x="10" y="77" width="215" height="70" rx="10" fill="white"/>
<path d="M25.235 108.575C26.035 109.565 26.77 110.51 27.44 111.41C27.96 110.43 28.39 109.335 28.73 108.125L30.14 108.365C29.69 109.975 29.105 111.42 28.385 112.7C29.285 114.01 30.03 115.165 30.62 116.165L29.33 117.05C28.74 116 28.13 115.01 27.5 114.08C26.59 115.34 25.54 116.415 24.35 117.305L23.39 116.09C24.68 115.12 25.755 114.01 26.615 112.76C25.735 111.51 24.885 110.355 24.065 109.295L25.235 108.575ZM22.235 105.71H32.21V111.845C32.21 114.185 32.28 115.655 32.42 116.255C32.54 116.895 32.69 117.215 32.87 117.215C33.01 117.215 33.125 116.62 33.215 115.43L34.49 116.045C34.29 117.195 34.08 117.965 33.86 118.355C33.6 118.725 33.32 118.91 33.02 118.91C32.24 118.91 31.67 118.435 31.31 117.485C30.94 116.565 30.755 114.685 30.755 111.845V107.09H23.66V111.65C23.63 114.59 23.02 117.06 21.83 119.06L20.63 118.085C21.66 116.365 22.195 114.22 22.235 111.65V105.71ZM36.11 105.74H40.85V106.82C40.39 108.17 39.875 109.535 39.305 110.915C40.205 112.295 40.7 113.5 40.79 114.53C40.79 115.22 40.64 115.715 40.34 116.015C39.91 116.385 39.165 116.58 38.105 116.6L37.67 115.175C38 115.225 38.245 115.25 38.405 115.25C38.805 115.22 39.07 115.155 39.2 115.055C39.33 114.945 39.395 114.77 39.395 114.53C39.395 113.52 38.9 112.385 37.91 111.125C38.55 109.645 39.065 108.28 39.455 107.03H37.49V119.06H36.11V105.74ZM42.44 109.91C41.9 110.45 41.36 110.905 40.82 111.275L40.1 110.15C41.86 108.9 43.215 107.255 44.165 105.215H45.425C46.245 107.095 47.635 108.725 49.595 110.105L48.83 111.275C48.2 110.835 47.66 110.39 47.21 109.94V110.735H42.44V109.91ZM46.73 109.445C45.94 108.585 45.295 107.64 44.795 106.61C44.215 107.72 43.575 108.665 42.875 109.445H46.73ZM40.28 117.245H45.56C46.18 115.675 46.725 113.745 47.195 111.455L48.59 111.83C48.14 113.87 47.595 115.675 46.955 117.245H49.265V118.61H40.28V117.245ZM42.2 111.92C42.68 113.15 43.12 114.605 43.52 116.285L42.29 116.585C41.94 115.085 41.505 113.67 40.985 112.34L42.2 111.92ZM44.585 111.38C45.005 112.6 45.38 114 45.71 115.58L44.495 115.895C44.205 114.485 43.83 113.11 43.37 111.77L44.585 111.38ZM57.0351 109.865C57.3651 109.865 57.6301 109.965 57.8301 110.165C58.0401 110.355 58.1451 110.61 58.1451 110.93C58.1451 111.23 58.0351 111.49 57.8151 111.71C57.5951 111.91 57.3351 112.01 57.0351 112.01C56.7251 112.01 56.4651 111.905 56.2551 111.695C56.0451 111.485 55.9401 111.23 55.9401 110.93C55.9401 110.61 56.0451 110.355 56.2551 110.165C56.4551 109.965 56.7151 109.865 57.0351 109.865ZM57.0351 115.355C57.3651 115.355 57.6301 115.455 57.8301 115.655C58.0401 115.845 58.1451 116.1 58.1451 116.42C58.1451 116.72 58.0351 116.98 57.8151 117.2C57.5951 117.4 57.3351 117.5 57.0351 117.5C56.7251 117.5 56.4651 117.395 56.2551 117.185C56.0451 116.975 55.9401 116.72 55.9401 116.42C55.9401 116.1 56.0451 115.845 56.2551 115.655C56.4551 115.455 56.7151 115.355 57.0351 115.355Z" fill="#A6A6A6"/>
<rect x="66.5" y="87.5" width="148" height="49" rx="9.5" fill="white"/>
<path d="M84.765 105.14V107.735H79.44V114.98H80.865V114.125H84.765V119.15H86.235V114.125H90.15V114.98H91.575V107.735H86.235V105.14H84.765ZM80.865 112.73V109.13H84.765V112.73H80.865ZM86.235 112.73V109.13H90.15V112.73H86.235ZM95.445 109.535V110.78H99.795V111.92H93.78V113.15H103.02V114.32H94.665V115.565H103.02V117.29C103.02 117.62 102.81 117.8 102.39 117.8C101.79 117.8 101.145 117.755 100.455 117.695L100.77 119.045H102.885C103.905 119.045 104.43 118.565 104.43 117.62V115.565H106.56V114.32H104.43V113.15H107.205V111.92H101.205V110.78H105.495V109.535H101.205V108.77H99.795V109.535H95.445ZM97.395 115.805L96.24 116.525C97.005 117.275 97.605 117.965 98.055 118.595L99.165 117.83C98.745 117.245 98.16 116.57 97.395 115.805ZM96.18 107.39H96.48C96.87 107.93 97.215 108.515 97.5 109.115L98.79 108.635C98.58 108.245 98.31 107.84 97.98 107.39H100.29V106.205H96.705C96.795 105.935 96.9 105.665 96.99 105.395L95.64 105.095C95.265 106.295 94.65 107.405 93.78 108.455L95.01 109.235C95.445 108.665 95.835 108.05 96.18 107.39ZM102.27 107.345H102.975C103.365 107.915 103.71 108.485 104.01 109.085L105.24 108.62C105.045 108.23 104.775 107.795 104.43 107.345H106.845V106.16H102.75C102.84 105.905 102.915 105.635 103.005 105.365L101.67 105.08C101.4 106.1 100.935 107.045 100.305 107.93L101.475 108.665C101.76 108.26 102.03 107.825 102.27 107.345Z" fill="#484848"/>
<path fill-rule="evenodd" clip-rule="evenodd" d="M192 116.375L185 109.805L186.065 108.5L192 114.07L197.935 108.5L199 109.805L192 116.375Z" fill="#A6A6A6"/>
<rect x="66.5" y="87.5" width="148" height="49" rx="9.5" stroke="#ECECEC"/>
<rect x="235" y="77" width="215" height="70" rx="10" fill="white"/>
<path d="M250.355 115.79C249.02 116.345 247.46 116.78 245.675 117.11L245.855 118.475C247.535 118.145 249.035 117.695 250.355 117.125V115.79ZM247.79 105.155C247.31 106.835 246.755 108.365 246.125 109.745C245.975 109.985 245.78 110.165 245.57 110.255L245.915 111.47L247.97 111.11C247.34 112.37 246.815 113.255 246.395 113.765C246.23 113.915 246.035 114.035 245.795 114.14L246.14 115.37C247.46 115.205 248.87 114.89 250.34 114.41V113.15C249.47 113.435 248.6 113.66 247.76 113.84C248.51 112.76 249.425 111.035 250.535 108.665L249.29 108.215C249.035 108.8 248.78 109.355 248.54 109.88C248.09 109.97 247.625 110.06 247.175 110.12C247.82 108.98 248.465 107.495 249.095 105.665L247.79 105.155ZM254.285 107.615V111.485H252.2V107.615H254.285ZM254.285 112.775V116.795H252.2V112.775H254.285ZM255.575 116.795V112.775H257.6V116.795H255.575ZM255.575 111.485V107.615H257.6V111.485H255.575ZM257.6 118.085V118.97H258.95V106.31H250.895V118.97H252.2V118.085H257.6ZM265.25 105.485C264.635 106.61 263.99 107.57 263.3 108.365C262.46 109.31 261.56 110.045 260.6 110.585L261.38 111.83C262.67 110.93 263.66 110.075 264.38 109.265C265.085 108.485 265.79 107.465 266.48 106.235L265.25 105.485ZM265.685 112.415C265.37 113.675 264.935 114.695 264.38 115.49C263.69 116.375 262.655 117.185 261.305 117.905L262.22 119.09C263.75 118.22 264.905 117.23 265.685 116.15C266.285 115.22 266.765 113.975 267.125 112.415H270.515C270.44 114.56 270.275 115.97 270.035 116.63C269.795 117.26 269.285 117.575 268.535 117.575C267.755 117.575 266.915 117.545 266.03 117.515L266.42 118.925H269.255C270.02 118.88 270.575 118.625 270.92 118.175C271.265 117.71 271.505 116.885 271.655 115.715C271.805 114.515 271.895 112.97 271.955 111.05H262.88V112.415H265.685ZM269.81 105.29L268.565 105.995C269.48 108.35 271.1 110.27 273.41 111.77L274.37 110.645C272.15 109.325 270.635 107.54 269.81 105.29ZM282.035 109.805C281.705 109.805 281.45 109.91 281.255 110.135C281.03 110.345 280.925 110.615 280.925 110.93C280.925 111.23 281.03 111.5 281.255 111.725C281.45 111.935 281.705 112.04 282.035 112.04C282.335 112.04 282.605 111.935 282.83 111.725C283.04 111.5 283.16 111.23 283.16 110.93C283.16 110.615 283.04 110.345 282.83 110.135C282.605 109.91 282.335 109.805 282.035 109.805ZM282.035 115.295C281.705 115.295 281.45 115.4 281.255 115.625C281.03 115.835 280.925 116.105 280.925 116.42C280.925 116.72 281.03 116.99 281.255 117.215C281.45 117.425 281.705 117.53 282.035 117.53C282.335 117.53 282.605 117.425 282.83 117.215C283.04 116.99 283.16 116.72 283.16 116.42C283.16 116.105 283.04 115.835 282.83 115.625C282.605 115.4 282.335 115.295 282.035 115.295Z" fill="#A6A6A6"/>
<rect x="291.5" y="87.5" width="148" height="49" rx="9.5" fill="white"/>
<path d="M308.58 106.79L303.3 113.63V115.175H308.52V117.5H310.08V115.175H311.7V113.87H310.08V106.79H308.58ZM308.475 108.86H308.52V113.87H304.635L308.475 108.86ZM316.494 106.58C315.234 106.58 314.259 107.105 313.569 108.17C312.939 109.145 312.624 110.465 312.624 112.145C312.624 113.81 312.939 115.13 313.569 116.12C314.259 117.17 315.234 117.71 316.494 117.71C317.754 117.71 318.729 117.17 319.419 116.12C320.049 115.13 320.364 113.795 320.364 112.145C320.364 110.48 320.049 109.16 319.419 108.17C318.729 107.105 317.754 106.58 316.494 106.58ZM316.494 107.96C317.364 107.96 317.994 108.44 318.354 109.415C318.609 110.075 318.744 110.99 318.744 112.145C318.744 113.285 318.609 114.2 318.354 114.875C317.994 115.835 317.364 116.33 316.494 116.33C315.609 116.33 314.994 115.835 314.634 114.875C314.364 114.2 314.244 113.285 314.244 112.145C314.244 110.99 314.364 110.075 314.634 109.415C314.994 108.44 315.609 107.96 316.494 107.96Z" fill="#484848"/>
<path fill-rule="evenodd" clip-rule="evenodd" d="M417 116.375L410 109.805L411.065 108.5L417 114.07L422.935 108.5L424 109.805L417 116.375Z" fill="#A6A6A6"/>
<rect x="291.5" y="87.5" width="148" height="49" rx="9.5" stroke="#ECECEC"/>
<rect x="10.5" y="170.5" width="214" height="76" rx="9.5" fill="white"/>
<rect x="18" y="178" width="50" height="26.5" rx="10" fill="#ECECEC"/>
<path d="M28.87 190.21V191.35H30.175V196.3L28.885 196.36L29.065 197.56C31.09 197.425 32.785 197.275 34.15 197.11V198.34H35.515V196.93C35.8 196.87 36.07 196.825 36.31 196.78V195.685L35.515 195.82V191.35H42.16V190.21H28.87ZM31.48 196.225V195.19H34.15V196C33.34 196.09 32.455 196.165 31.48 196.225ZM31.48 194.17V193.255H34.15V194.17H31.48ZM31.48 192.235V191.35H34.15V192.235H31.48ZM30.64 184.915V189.46H40.45V184.915H30.64ZM39.085 188.47H32.005V187.675H39.085V188.47ZM32.005 186.7V185.95H39.085V186.7H32.005ZM36.61 193.27C36.88 194.26 37.39 195.175 38.155 196.015C37.555 196.495 36.835 196.9 35.98 197.26L36.715 198.355C37.63 197.965 38.425 197.485 39.115 196.915C39.775 197.44 40.555 197.92 41.485 198.355L42.22 197.17C41.365 196.825 40.63 196.435 40.015 196C40.66 195.205 41.11 194.275 41.365 193.195V192.115H36.145V193.27H36.61ZM39.025 195.175C38.47 194.605 38.08 193.96 37.84 193.27H40.09C39.865 193.96 39.505 194.59 39.025 195.175ZM49.675 198.13C50.875 198.13 51.49 197.5 51.49 196.24V184.675H50.005V195.865C50.005 196.45 49.705 196.75 49.135 196.75C48.505 196.75 47.845 196.705 47.125 196.645L47.47 198.13H49.675ZM45.97 188.155C45.415 190.765 44.56 192.85 43.42 194.41L44.665 195.505C45.79 193.945 46.705 191.68 47.395 188.725L45.97 188.155ZM55 187.78L53.695 188.59C54.745 191.17 55.585 193.495 56.215 195.58L57.505 194.695C56.92 192.715 56.08 190.42 55 187.78Z" fill="#A6A6A6"/>
<rect x="18" y="212.5" width="50" height="26.5" rx="10" fill="#ECECEC"/>
<path d="M28.87 224.71V225.85H30.175V230.8L28.885 230.86L29.065 232.06C31.09 231.925 32.785 231.775 34.15 231.61V232.84H35.515V231.43C35.8 231.37 36.07 231.325 36.31 231.28V230.185L35.515 230.32V225.85H42.16V224.71H28.87ZM31.48 230.725V229.69H34.15V230.5C33.34 230.59 32.455 230.665 31.48 230.725ZM31.48 228.67V227.755H34.15V228.67H31.48ZM31.48 226.735V225.85H34.15V226.735H31.48ZM30.64 219.415V223.96H40.45V219.415H30.64ZM39.085 222.97H32.005V222.175H39.085V222.97ZM32.005 221.2V220.45H39.085V221.2H32.005ZM36.61 227.77C36.88 228.76 37.39 229.675 38.155 230.515C37.555 230.995 36.835 231.4 35.98 231.76L36.715 232.855C37.63 232.465 38.425 231.985 39.115 231.415C39.775 231.94 40.555 232.42 41.485 232.855L42.22 231.67C41.365 231.325 40.63 230.935 40.015 230.5C40.66 229.705 41.11 228.775 41.365 227.695V226.615H36.145V227.77H36.61ZM39.025 229.675C38.47 229.105 38.08 228.46 37.84 227.77H40.09C39.865 228.46 39.505 229.09 39.025 229.675ZM43.87 222.775V224.155H49.375C48.58 227.665 46.63 230.185 43.54 231.685L44.455 232.885C47.5 231.28 49.525 228.76 50.515 225.325C51.655 228.505 53.68 230.98 56.56 232.75L57.445 231.595C54.475 229.84 52.45 227.365 51.4 224.155H57.13V222.775H51.04C51.16 221.875 51.22 220.93 51.22 219.94V218.965H49.78V220.27C49.765 221.14 49.705 221.98 49.615 222.775H43.87Z" fill="#A6A6A6"/>
<g clip-path="url(#clip0_203_2760)">
<g clip-path="url(#clip1_203_2760)">
<path d="M94.1402 202.403C92.5375 208.831 86.0264 212.744 79.597 211.141C73.1703 209.538 69.2579 203.026 70.8613 196.598C72.4633 190.169 78.9745 186.256 85.4019 187.859C91.8308 189.462 95.7429 195.974 94.1401 202.403L94.1402 202.403H94.1402Z" fill="#F7931A"/>
<path d="M87.793 197.79C88.0318 196.193 86.816 195.335 85.1535 194.762L85.6929 192.599L84.3761 192.271L83.851 194.377C83.5049 194.291 83.1493 194.21 82.796 194.129L83.3248 192.009L82.0089 191.681L81.4692 193.843C81.1828 193.778 80.9014 193.713 80.6284 193.646L80.6299 193.639L78.814 193.185L78.4638 194.592C78.4638 194.592 79.4407 194.816 79.4201 194.829C79.9534 194.963 80.0498 195.316 80.0338 195.595L79.4194 198.06C79.4561 198.069 79.5038 198.082 79.5563 198.104C79.5124 198.093 79.4656 198.081 79.4171 198.069L78.556 201.521C78.4909 201.683 78.3254 201.927 77.9526 201.834C77.9658 201.853 76.9956 201.595 76.9956 201.595L76.3418 203.103L78.0554 203.53C78.3742 203.61 78.6866 203.693 78.9942 203.772L78.4493 205.96L79.7646 206.288L80.3042 204.123C80.6636 204.221 81.0123 204.311 81.3536 204.396L80.8158 206.55L82.1327 206.878L82.6775 204.695C84.923 205.12 86.6113 204.948 87.322 202.917C87.8946 201.282 87.2935 200.339 86.1122 199.724C86.9726 199.525 87.6207 198.96 87.7935 197.791L87.7931 197.79L87.793 197.79ZM84.7844 202.009C84.3775 203.644 81.6243 202.76 80.7317 202.539L81.4548 199.64C82.3474 199.863 85.2097 200.304 84.7845 202.009H84.7844ZM85.1917 197.767C84.8204 199.254 82.529 198.498 81.7856 198.313L82.4412 195.684C83.1845 195.869 85.5784 196.215 85.1918 197.767H85.1917Z" fill="#484848"/>
</g>
<path d="M103.876 191.562C105.124 191.562 106.1 192.008 106.803 192.898C107.641 193.953 108.06 195.702 108.06 198.146C108.06 200.583 107.638 202.335 106.794 203.401C106.097 204.28 105.124 204.72 103.876 204.72C102.622 204.72 101.611 204.239 100.844 203.278C100.076 202.312 99.6924 200.592 99.6924 198.119C99.6924 195.693 100.114 193.947 100.958 192.881C101.655 192.002 102.628 191.562 103.876 191.562ZM103.876 193.61C103.577 193.61 103.311 193.707 103.076 193.9C102.842 194.088 102.66 194.428 102.531 194.92C102.361 195.559 102.276 196.634 102.276 198.146C102.276 199.657 102.353 200.697 102.505 201.266C102.657 201.828 102.848 202.203 103.076 202.391C103.311 202.578 103.577 202.672 103.876 202.672C104.175 202.672 104.441 202.578 104.676 202.391C104.91 202.197 105.092 201.854 105.221 201.362C105.391 200.729 105.476 199.657 105.476 198.146C105.476 196.634 105.399 195.597 105.247 195.034C105.095 194.466 104.901 194.088 104.667 193.9C104.438 193.707 104.175 193.61 103.876 193.61ZM110.248 204.5V202.03H112.718V204.5H110.248ZM118.905 191.562C120.153 191.562 121.129 192.008 121.832 192.898C122.67 193.953 123.089 195.702 123.089 198.146C123.089 200.583 122.667 202.335 121.823 203.401C121.126 204.28 120.153 204.72 118.905 204.72C117.651 204.72 116.641 204.239 115.873 203.278C115.105 202.312 114.722 200.592 114.722 198.119C114.722 195.693 115.144 193.947 115.987 192.881C116.685 192.002 117.657 191.562 118.905 191.562ZM118.905 193.61C118.606 193.61 118.34 193.707 118.105 193.9C117.871 194.088 117.689 194.428 117.561 194.92C117.391 195.559 117.306 196.634 117.306 198.146C117.306 199.657 117.382 200.697 117.534 201.266C117.687 201.828 117.877 202.203 118.105 202.391C118.34 202.578 118.606 202.672 118.905 202.672C119.204 202.672 119.471 202.578 119.705 202.391C119.939 202.197 120.121 201.854 120.25 201.362C120.42 200.729 120.505 199.657 120.505 198.146C120.505 196.634 120.429 195.597 120.276 195.034C120.124 194.466 119.931 194.088 119.696 193.9C119.468 193.707 119.204 193.61 118.905 193.61ZM128.925 191.562C130.173 191.562 131.148 192.008 131.852 192.898C132.689 193.953 133.108 195.702 133.108 198.146C133.108 200.583 132.687 202.335 131.843 203.401C131.146 204.28 130.173 204.72 128.925 204.72C127.671 204.72 126.66 204.239 125.893 203.278C125.125 202.312 124.741 200.592 124.741 198.119C124.741 195.693 125.163 193.947 126.007 192.881C126.704 192.002 127.677 191.562 128.925 191.562ZM128.925 193.61C128.626 193.61 128.359 193.707 128.125 193.9C127.891 194.088 127.709 194.428 127.58 194.92C127.41 195.559 127.325 196.634 127.325 198.146C127.325 199.657 127.401 200.697 127.554 201.266C127.706 201.828 127.896 202.203 128.125 202.391C128.359 202.578 128.626 202.672 128.925 202.672C129.224 202.672 129.49 202.578 129.725 202.391C129.959 202.197 130.141 201.854 130.27 201.362C130.439 200.729 130.524 199.657 130.524 198.146C130.524 196.634 130.448 195.597 130.296 195.034C130.144 194.466 129.95 194.088 129.716 193.9C129.487 193.707 129.224 193.61 128.925 193.61ZM138.944 191.562C140.192 191.562 141.168 192.008 141.871 192.898C142.709 193.953 143.128 195.702 143.128 198.146C143.128 200.583 142.706 202.335 141.862 203.401C141.165 204.28 140.192 204.72 138.944 204.72C137.69 204.72 136.68 204.239 135.912 203.278C135.145 202.312 134.761 200.592 134.761 198.119C134.761 195.693 135.183 193.947 136.026 192.881C136.724 192.002 137.696 191.562 138.944 191.562ZM138.944 193.61C138.646 193.61 138.379 193.707 138.145 193.9C137.91 194.088 137.729 194.428 137.6 194.92C137.43 195.559 137.345 196.634 137.345 198.146C137.345 199.657 137.421 200.697 137.573 201.266C137.726 201.828 137.916 202.203 138.145 202.391C138.379 202.578 138.646 202.672 138.944 202.672C139.243 202.672 139.51 202.578 139.744 202.391C139.979 202.197 140.16 201.854 140.289 201.362C140.459 200.729 140.544 199.657 140.544 198.146C140.544 196.634 140.468 195.597 140.315 195.034C140.163 194.466 139.97 194.088 139.735 193.9C139.507 193.707 139.243 193.61 138.944 193.61ZM148.964 191.562C150.212 191.562 151.188 192.008 151.891 192.898C152.729 193.953 153.147 195.702 153.147 198.146C153.147 200.583 152.726 202.335 151.882 203.401C151.185 204.28 150.212 204.72 148.964 204.72C147.71 204.72 146.699 204.239 145.932 203.278C145.164 202.312 144.78 200.592 144.78 198.119C144.78 195.693 145.202 193.947 146.046 192.881C146.743 192.002 147.716 191.562 148.964 191.562ZM148.964 193.61C148.665 193.61 148.398 193.707 148.164 193.9C147.93 194.088 147.748 194.428 147.619 194.92C147.449 195.559 147.364 196.634 147.364 198.146C147.364 199.657 147.44 200.697 147.593 201.266C147.745 201.828 147.936 202.203 148.164 202.391C148.398 202.578 148.665 202.672 148.964 202.672C149.263 202.672 149.529 202.578 149.764 202.391C149.998 202.197 150.18 201.854 150.309 201.362C150.479 200.729 150.563 199.657 150.563 198.146C150.563 196.634 150.487 195.597 150.335 195.034C150.183 194.466 149.989 194.088 149.755 193.9C149.526 193.707 149.263 193.61 148.964 193.61ZM161.128 204.5H158.658V195.192C157.756 196.036 156.692 196.66 155.468 197.064V194.823C156.112 194.612 156.812 194.214 157.568 193.628C158.324 193.036 158.843 192.348 159.124 191.562H161.128V204.5Z" fill="#484848"/>
<path d="M102.295 224.911V221.842C101.338 221.568 100.635 221.156 100.186 220.604C99.7412 220.047 99.519 219.374 99.519 218.583C99.519 217.782 99.7705 217.11 100.273 216.568C100.781 216.021 101.455 215.707 102.295 215.624V214.898H103.357V215.624C104.133 215.716 104.751 215.982 105.21 216.422C105.669 216.856 105.962 217.44 106.089 218.172L104.236 218.414C104.124 217.838 103.831 217.447 103.357 217.242V220.106C104.529 220.423 105.327 220.836 105.752 221.344C106.177 221.847 106.389 222.494 106.389 223.285C106.389 224.168 106.121 224.913 105.583 225.519C105.051 226.124 104.309 226.495 103.357 226.632V228.001H102.295V226.668C101.45 226.566 100.764 226.251 100.237 225.724C99.7095 225.196 99.3726 224.452 99.2261 223.49L101.138 223.285C101.216 223.675 101.362 224.012 101.577 224.295C101.792 224.579 102.031 224.784 102.295 224.911ZM102.295 217.22C102.007 217.318 101.777 217.484 101.606 217.718C101.436 217.953 101.35 218.211 101.35 218.495C101.35 218.753 101.428 218.995 101.584 219.22C101.741 219.439 101.978 219.618 102.295 219.754V217.22ZM103.357 225.013C103.723 224.945 104.021 224.776 104.25 224.508C104.48 224.234 104.595 223.915 104.595 223.548C104.595 223.221 104.497 222.94 104.302 222.706C104.111 222.467 103.796 222.284 103.357 222.157V225.013ZM111.736 226.5V224.339H107.341V222.538L112 215.719H113.728V222.53H115.061V224.339H113.728V226.5H111.736ZM111.736 222.53V218.861L109.268 222.53H111.736ZM116.489 226.5V224.442H118.547V226.5H116.489ZM124.26 226.5V224.339H119.866V222.538L124.524 215.719H126.252V222.53H127.585V224.339H126.252V226.5H124.26ZM124.26 222.53V218.861L121.792 222.53H124.26ZM132.053 215.719C133.093 215.719 133.906 216.09 134.492 216.832C135.19 217.711 135.54 219.168 135.54 221.205C135.54 223.236 135.188 224.696 134.485 225.584C133.904 226.317 133.093 226.683 132.053 226.683C131.008 226.683 130.166 226.283 129.526 225.482C128.887 224.676 128.567 223.243 128.567 221.183C128.567 219.161 128.918 217.706 129.622 216.817C130.203 216.085 131.013 215.719 132.053 215.719ZM132.053 217.425C131.804 217.425 131.582 217.506 131.387 217.667C131.191 217.823 131.04 218.106 130.933 218.517C130.791 219.049 130.72 219.945 130.72 221.205C130.72 222.464 130.784 223.331 130.911 223.805C131.038 224.273 131.196 224.586 131.387 224.742C131.582 224.898 131.804 224.977 132.053 224.977C132.302 224.977 132.524 224.898 132.72 224.742C132.915 224.581 133.066 224.295 133.174 223.885C133.315 223.358 133.386 222.464 133.386 221.205C133.386 219.945 133.323 219.081 133.196 218.612C133.069 218.138 132.908 217.823 132.712 217.667C132.522 217.506 132.302 217.425 132.053 217.425Z" fill="#A6A6A6"/>
</g>
<rect x="167" y="178" width="50" height="26.5" rx="10" fill="#ECECEC"/>
<path d="M184.171 186.04C183.811 186.43 183.361 186.775 182.821 187.105C182.281 187.405 181.786 187.615 181.306 187.735V189.355C182.296 189.07 183.121 188.62 183.766 188.005V196.75H185.401V186.04H184.171ZM192.499 184.45L187.249 198.25H188.644L193.879 184.45H192.499ZM198.979 185.83C197.839 185.83 196.909 186.205 196.219 186.985C195.544 187.705 195.199 188.665 195.184 189.865H196.819C196.849 188.995 197.029 188.35 197.389 187.9C197.734 187.435 198.244 187.21 198.919 187.21C199.549 187.21 200.044 187.36 200.374 187.66C200.704 187.96 200.869 188.41 200.869 189.01C200.869 189.64 200.614 190.225 200.134 190.765C199.834 191.08 199.324 191.485 198.604 191.995C197.389 192.835 196.579 193.48 196.189 193.945C195.469 194.755 195.124 195.685 195.124 196.75H202.504V195.31H197.149C197.374 194.725 198.064 194.05 199.219 193.285C200.284 192.565 201.019 191.995 201.439 191.56C202.129 190.795 202.489 189.955 202.489 189.025C202.489 188.08 202.159 187.315 201.514 186.715C200.854 186.115 199.999 185.83 198.979 185.83Z" fill="#A6A6A6"/>
<rect x="167" y="212.5" width="50" height="26.5" rx="10" fill="#ECECEC"/>
<path d="M188.191 220.33C187.051 220.33 186.121 220.705 185.431 221.485C184.756 222.205 184.411 223.165 184.396 224.365H186.031C186.061 223.495 186.241 222.85 186.601 222.4C186.946 221.935 187.456 221.71 188.131 221.71C188.761 221.71 189.256 221.86 189.586 222.16C189.916 222.46 190.081 222.91 190.081 223.51C190.081 224.14 189.826 224.725 189.346 225.265C189.046 225.58 188.536 225.985 187.816 226.495C186.601 227.335 185.791 227.98 185.401 228.445C184.681 229.255 184.336 230.185 184.336 231.25H191.716V229.81H186.361C186.586 229.225 187.276 228.55 188.431 227.785C189.496 227.065 190.231 226.495 190.651 226.06C191.341 225.295 191.701 224.455 191.701 223.525C191.701 222.58 191.371 221.815 190.726 221.215C190.066 220.615 189.211 220.33 188.191 220.33ZM192.94 223.495L195.625 227.125L192.595 231.25H194.47L196.51 228.295L198.535 231.25H200.395L197.38 227.125L200.065 223.495H198.205L196.51 225.955L194.8 223.495H192.94Z" fill="#A6A6A6"/>
<rect x="10.5" y="170.5" width="214" height="76" rx="9.5" stroke="#ECECEC"/>
<rect x="235" y="170" width="215" height="77" rx="10" fill="#F04E23"/>
<g filter="url(#filter0_d_203_2760)">
<path d="M326.426 201.194V202.85H329.594V206.774C329.594 206.882 329.576 207.026 329.576 207.17H325.49V208.826H329.45C329.306 210.104 329.072 211.22 328.73 212.156C328.208 213.452 327.218 214.532 325.778 215.378L326.696 216.818C328.298 216.008 329.45 214.838 330.134 213.326C330.674 212.12 331.016 210.626 331.196 208.826H336.02V216.62H337.73V208.826H341.528V207.17H337.73V202.85H340.61V201.194H326.426ZM331.322 202.85H336.02V207.17H331.304C331.304 207.044 331.322 206.918 331.322 206.774V202.85ZM345.254 200.132C345.11 201.302 344.948 202.436 344.786 203.534H343.256V205.172H344.516C344.192 206.954 343.814 208.61 343.418 210.122C344.246 210.914 345.002 211.67 345.704 212.39C345.074 213.614 344.264 214.694 343.256 215.594L344.336 216.944C345.344 216.008 346.19 214.91 346.874 213.65C347.486 214.334 348.008 214.964 348.458 215.576L349.61 214.226C349.106 213.56 348.44 212.804 347.648 211.976C348.476 209.852 348.944 207.368 349.052 204.488V203.534H346.496C346.64 202.526 346.784 201.428 346.928 200.276L345.254 200.132ZM346.424 210.734C346.064 210.374 345.668 210.014 345.254 209.618C345.596 208.43 345.92 206.936 346.226 205.172H347.468C347.36 207.242 347 209.096 346.424 210.734ZM358.52 208.97H350.33V216.872H351.95V215.864H356.882V216.872H358.52V208.97ZM351.95 214.262V210.536H356.882V214.262H351.95ZM349.718 207.656C352.58 207.476 355.19 207.224 357.53 206.9C357.71 207.296 357.89 207.728 358.07 208.196L359.636 207.44C358.808 205.55 357.944 203.822 357.008 202.256L355.55 202.958C355.982 203.732 356.432 204.56 356.864 205.46C355.244 205.712 353.57 205.892 351.842 206C352.85 204.596 353.822 202.832 354.794 200.744L353.174 200.204C351.572 203.858 350.33 205.82 349.448 206.108L349.718 207.656Z" fill="white"/>
</g>
<defs>
<filter id="filter0_d_203_2760" x="321.49" y="198.132" width="42.1465" height="24.812" filterUnits="userSpaceOnUse" color-interpolation-filters="sRGB">
<feFlood flood-opacity="0" result="BackgroundImageFix"/>
<feColorMatrix in="SourceAlpha" type="matrix" values="0 0 0 0 0 0 0 0 0 0 0 0 0 0 0 0 0 0 127 0" result="hardAlpha"/>
<feOffset dy="2"/>
<feGaussianBlur stdDeviation="2"/>
<feComposite in2="hardAlpha" operator="out"/>
<feColorMatrix type="matrix" values="0 0 0 0 0 0 0 0 0 0 0 0 0 0 0 0 0 0 0.3 0"/>
<feBlend mode="normal" in2="BackgroundImageFix" result="effect1_dropShadow_203_2760"/>
<feBlend mode="normal" in="SourceGraphic" in2="effect1_dropShadow_203_2760" result="shape"/>
</filter>
<clipPath id="clip0_203_2760">
<rect width="94" height="42" fill="white" transform="translate(70.5 187.5)"/>
</clipPath>
<clipPath id="clip1_203_2760">
<rect width="24" height="24" fill="white" transform="translate(70.5 187.5)"/>
</clipPath>
</defs>
</svg>
