<svg width="14" height="14" viewBox="0 0 14 14" fill="none" xmlns="http://www.w3.org/2000/svg">
<g clip-path="url(#clip0_7_1270)">
<path d="M2.19898 4.00001C2.35805 4.00015 2.51056 4.06346 2.62298 4.17601L6.99898 8.55101L11.376 4.17601C11.4316 4.11959 11.4978 4.07473 11.5708 4.04401C11.6438 4.0133 11.7221 3.99735 11.8013 3.99707C11.8805 3.9968 11.959 4.01221 12.0322 4.04241C12.1055 4.07262 12.172 4.11702 12.2279 4.17306C12.2839 4.22909 12.3282 4.29566 12.3584 4.36891C12.3885 4.44217 12.4038 4.52066 12.4034 4.59986C12.403 4.67906 12.387 4.75741 12.3562 4.83038C12.3254 4.90335 12.2805 4.9695 12.224 5.02501L7.42397 9.82501C7.31773 9.93068 7.17579 9.99276 7.02608 9.99905C6.87636 10.0053 6.72971 9.95539 6.61497 9.85901H6.59898L6.59198 9.85201H6.58197L1.78198 5.05201C1.72153 4.99368 1.67401 4.92331 1.64249 4.84544C1.61096 4.76758 1.59614 4.68397 1.59898 4.60001C1.59912 4.44094 1.66242 4.28843 1.77498 4.17601C1.88739 4.06346 2.0399 4.00015 2.19898 4.00001Z" fill="#1E2329"/>
</g>
<defs>
<clipPath id="clip0_7_1270">
<rect width="14" height="14" fill="white"/>
</clipPath>
</defs>
</svg>
