<svg width="14" height="14" viewBox="0 0 14 14" fill="none" xmlns="http://www.w3.org/2000/svg">
<path d="M13.995 14H0V1.75H3.5V0H5.247V1.75H8.747V0H10.5V1.75H14V14H13.995ZM1.748 12.252H12.248V3.5H10.5V4.378H8.748V3.5H5.248V4.378H3.5V3.5H1.748V12.252ZM9.623 11.377V9.628H11.371V11.376L9.623 11.377ZM6.123 11.377V9.628H7.87V11.376L6.123 11.377ZM2.623 11.377V9.628H4.372V11.376L2.623 11.377ZM9.623 7.877V6.127H11.371V7.875L9.623 7.877ZM6.123 7.877V6.127H7.87V7.875L6.123 7.877ZM2.623 7.877V6.127H4.372V7.875L2.623 7.877Z" fill="#B1BAD3"/>
</svg>
