<svg width="16" height="14" viewBox="0 0 16 14" fill="none" xmlns="http://www.w3.org/2000/svg">
<path d="M9.35623 10.4C9.21665 10.5863 9.03566 10.7375 8.82759 10.8416C8.61952 10.9458 8.39008 11 8.15745 11C7.92482 11 7.69539 10.9458 7.48731 10.8416C7.27924 10.7375 7.09825 10.5863 6.95867 10.4L3.2125 5.40015C3.04553 5.17728 2.94385 4.91227 2.91886 4.63481C2.89387 4.35735 2.94655 4.07841 3.071 3.82923C3.19545 3.58006 3.38676 3.3705 3.62348 3.22404C3.8602 3.07758 4.13299 3 4.41127 3L11.9036 3C12.1819 3 12.4547 3.07758 12.6914 3.22404C12.9281 3.3705 13.1194 3.58006 13.2439 3.82923C13.3684 4.07841 13.421 4.35735 13.396 4.63481C13.3711 4.91227 13.2694 5.17728 13.1024 5.40015L9.35623 10.4Z" fill="#557086"/>
</svg>
