<svg width="14" height="14" viewBox="0 0 14 14" fill="none" xmlns="http://www.w3.org/2000/svg">
<g clip-path="url(#clip0_7125_66147)">
<path d="M12.0532 3.30581L10.4659 1.80874L10.9499 1.32475C11.3258 0.948776 11.9356 0.939206 12.3211 1.30698L12.518 1.49565C12.9036 1.85385 12.9131 2.45542 12.5358 2.83139L12.0532 3.30581ZM4.47622 7.81616L6.06353 9.31323L3.7229 10.1117L4.47622 7.81616ZM11.6581 3.69135L6.44907 8.92768L4.86177 7.43061L10.0708 2.19428L11.6581 3.69135Z" fill="#B1BAD3"/>
<path fill-rule="evenodd" clip-rule="evenodd" d="M2.42131 1.74766H7.39924L7.40626 1.74753C7.74775 1.73555 8.02034 1.45436 8.02034 1.11016C8.02034 0.764925 7.74697 0.486555 7.40743 0.472656H2.42131C1.34562 0.472656 0.471313 1.34697 0.471313 2.42266V11.6102C0.471313 12.6858 1.34562 13.5602 2.42131 13.5602H11.6088C12.6845 13.5602 13.5588 12.6858 13.5588 11.6102V6.59258C13.5588 6.24013 13.2738 5.95508 12.9213 5.95508C12.5689 5.95508 12.2838 6.24013 12.2838 6.59258V11.6102C12.2838 11.9823 11.981 12.2852 11.6088 12.2852H2.42131C2.04915 12.2852 1.74631 11.9823 1.74631 11.6102V2.42266C1.74631 2.0505 2.04915 1.74766 2.42131 1.74766ZM13.3043 12.0444C13.1108 12.8001 12.4242 13.3601 11.6088 13.3601H2.42133C1.45609 13.3601 0.671326 12.5753 0.671326 11.6101V2.42261C0.671326 2.27651 0.689304 2.13455 0.723166 1.99882C0.689296 2.13456 0.671313 2.27654 0.671313 2.42266V11.6102C0.671313 12.5754 1.45608 13.3602 2.42131 13.3602H11.6088C12.4242 13.3602 13.1108 12.8002 13.3043 12.0444ZM12.4969 6.48572C12.4884 6.51991 12.4838 6.5557 12.4838 6.59258V11.6102C12.4838 11.6846 12.4745 11.7569 12.4569 11.826C12.4745 11.7569 12.4838 11.6846 12.4838 11.6101V6.59253C12.4838 6.55567 12.4884 6.51989 12.4969 6.48572ZM1.57192 2.21204C1.66637 1.83086 2.01128 1.54761 2.42133 1.54761H7.39926C7.59559 1.54072 7.75915 1.40366 7.80651 1.21983C7.75916 1.40368 7.5956 1.54077 7.39924 1.54766H2.42131C2.01129 1.54766 1.66639 1.83088 1.57192 2.21204Z" fill="#B1BAD3"/>
</g>
<defs>
<clipPath id="clip0_7125_66147">
<rect width="14" height="14" fill="white"/>
</clipPath>
</defs>
</svg>
