<svg width="14" height="14" viewBox="0 0 14 14" fill="none" xmlns="http://www.w3.org/2000/svg">
<path d="M7 13.5C10.5899 13.5 13.5 10.5899 13.5 7C13.5 3.41015 10.5899 0.5 7 0.5C3.41015 0.5 0.5 3.41015 0.5 7C0.5 10.5899 3.41015 13.5 7 13.5Z" stroke="#B1BAD3"/>
<path d="M9 4.89136C9 4.20891 8.8457 3.77994 8.43027 3.43872C8.09792 3.15599 7.61128 3 6.9822 3C6.34125 3 5.89021 3.20474 5.55786 3.45822C5.14243 3.77994 5 4.27716 5 4.86212H6.25816C6.25816 4.58914 6.27003 4.29666 6.48368 4.10167C6.61424 3.98468 6.78042 3.92618 6.99407 3.92618C7.21958 3.92618 7.37389 3.99443 7.50445 4.11142C7.69436 4.28691 7.74184 4.52089 7.74184 4.86212C7.74184 5.24234 7.69436 5.48607 7.43323 5.7688L6.73294 6.539C6.51929 6.77298 6.36499 7.06546 6.36499 7.37744V8.05014H7.62315V7.49443C7.62315 7.26045 7.7181 7.05571 7.89614 6.86072L8.59644 6.09053C8.88131 5.77855 9 5.42758 9 4.89136ZM7.72997 10V8.80084H6.25816V10H7.72997Z" fill="#B1BAD3"/>
</svg>
