<svg width="14" height="16" viewBox="0 0 14 16" fill="none" xmlns="http://www.w3.org/2000/svg">
<path d="M9.85703 5.03988C9.7689 4.95556 9.65737 4.8998 9.53703 4.87988C9.47515 4.88107 9.41431 4.89605 9.35895 4.92372C9.30359 4.9514 9.25511 4.99109 9.21703 5.03988L5.61703 8.79988L4.25703 7.43988C4.1689 7.35556 4.05737 7.2998 3.93703 7.27988C3.87515 7.28107 3.81431 7.29605 3.75895 7.32372C3.70359 7.3514 3.65511 7.39109 3.61703 7.43988C3.53271 7.52802 3.47694 7.63954 3.45703 7.75988C3.47694 7.88022 3.53271 7.99175 3.61703 8.07988L5.29703 9.75988C5.38516 9.84421 5.49669 9.89997 5.61703 9.91988H5.69703C5.77703 9.91988 5.85703 9.83988 5.93703 9.75988L9.93703 5.75988C10.0214 5.67175 10.0771 5.56022 10.097 5.43988C10.017 5.27988 9.93703 5.19988 9.85703 5.03988Z" fill="#2FD850"/>
<path d="M12.855 3.06C11.057 2 7.723 0 6.751 0C5.779 0 2.461 2 0.626 3.066C0.440879 3.16423 0.285483 3.3103 0.176 3.489C0.0653419 3.66993 0.00461354 3.87696 0 4.089C0.0174658 5.85671 0.369324 7.60514 1.037 9.242C2.768 13.684 5.805 15.772 6.657 15.989C6.71814 16.0036 6.78186 16.0036 6.843 15.989C7.817 15.727 10.811 13.416 12.443 9.247C13.1113 7.60442 13.4628 5.85025 13.479 4.077C13.4702 3.86836 13.4086 3.66535 13.3 3.487C13.1924 3.3095 13.0409 3.16277 12.86 3.061L12.855 3.06ZM11.375 8.891C10.524 11.2869 8.89224 13.3272 6.742 14.684C4.55457 13.3642 2.9094 11.3078 2.102 8.884C1.51602 7.47627 1.20704 5.96874 1.192 4.444C1.19323 4.38394 1.21035 4.32528 1.24162 4.27399C1.27288 4.2227 1.31718 4.18061 1.37 4.152C3.873 2.721 6.192 1.3 6.752 1.3C7.312 1.3 9.752 2.77 12.112 4.156C12.2023 4.2281 12.2643 4.32972 12.287 4.443C12.2728 5.97223 11.9631 7.4843 11.375 8.896V8.891Z" fill="#2FD850"/>
</svg>
