<svg width="11" height="12" viewBox="0 0 11 12" fill="none" xmlns="http://www.w3.org/2000/svg">
<path d="M6.17266 11.4755L6.17266 0.132111C6.16931 0.100438 6.17939 0.0688008 6.20071 0.0440673C6.22203 0.0193337 6.25288 0.00350021 6.28655 3.84372e-06L7.13862 3.84372e-06C7.17229 0.00350021 7.20314 0.0193337 7.22446 0.0440673C7.24578 0.0688008 7.25586 0.100438 7.25251 0.132111V9.99659L9.8509 7.64441C9.86627 7.62963 9.88651 7.62015 9.90832 7.61752C9.93014 7.61488 9.95226 7.61924 9.97112 7.62988C9.99143 7.6427 10.0079 7.66015 10.0191 7.6806C10.0303 7.70104 10.0358 7.72382 10.0351 7.74679V8.9285C10.0359 8.96641 10.0286 9.00409 10.0138 9.03935C9.99892 9.07461 9.97678 9.10676 9.94862 9.13393L6.90803 11.8857C6.60994 12.1539 6.17266 11.9121 6.17266 11.4755ZM2.82132 11.8686L2.82132 2.00209L0.220121 4.35427C0.204747 4.36905 0.184517 4.37853 0.1627 4.38117C0.140883 4.3838 0.118758 4.37945 0.0999031 4.3688C0.0793638 4.356 0.0626431 4.33848 0.0513248 4.3179C0.0400066 4.29733 0.0344648 4.27438 0.0352249 4.25123V3.07018C0.0344229 3.03227 0.0416546 2.99458 0.0565004 2.95931C0.0713453 2.92404 0.0935078 2.8919 0.121697 2.86476L3.1651 0.112956C3.46319 -0.156544 3.90047 0.0865344 3.90047 0.521829L3.90047 11.8679C3.90382 11.8996 3.89374 11.9312 3.87242 11.9559C3.8511 11.9807 3.82025 11.9965 3.78658 12H2.93451C2.90097 11.9963 2.8703 11.9804 2.84912 11.9557C2.82795 11.931 2.81796 11.8995 2.82132 11.8679V11.8686Z" fill="#AFB6BB"/>
</svg>
