<svg width="8" height="5" viewBox="0 0 8 5" fill="none" xmlns="http://www.w3.org/2000/svg">
<path d="M3.50492 0.165354C3.5518 0.113306 3.6091 0.0716908 3.6731 0.0432053C3.7371 0.0147198 3.80637 0 3.87642 0C3.94647 0 4.01574 0.0147198 4.07974 0.0432053C4.14374 0.0716908 4.20104 0.113306 4.24792 0.165354L7.62592 3.91835C7.69044 3.99023 7.73276 4.07926 7.74777 4.17468C7.76277 4.2701 7.74982 4.36782 7.71047 4.45603C7.67113 4.54425 7.60707 4.61917 7.52605 4.67176C7.44503 4.72435 7.35051 4.75234 7.25392 4.75235H0.49992C0.403329 4.75234 0.308811 4.72435 0.227789 4.67176C0.146768 4.61917 0.0827127 4.54425 0.0433659 4.45603C0.00401899 4.36782 -0.00893475 4.2701 0.00607039 4.17468C0.0210755 4.07926 0.0633972 3.99023 0.12792 3.91835L3.50492 0.165354Z" fill="#B1BAD3"/>
</svg>
