<svg width="31" height="31" viewBox="0 0 31 31" fill="none" xmlns="http://www.w3.org/2000/svg">
<path d="M14.1104 29.1998V14.0909L9.79304 17.9161C9.64743 18.0457 9.45872 18.1167 9.26375 18.1158C9.15012 18.1165 9.0382 18.0927 8.93465 18.046C8.83109 17.9992 8.73874 17.9305 8.66414 17.8448C8.59401 17.766 8.54039 17.674 8.50593 17.5743C8.47148 17.4746 8.45646 17.369 8.46297 17.2637C8.46947 17.1584 8.49657 17.0557 8.54304 16.961C8.58951 16.8663 8.65417 16.7816 8.73347 16.712L14.4884 11.6119C14.6413 11.4776 14.8396 11.4068 15.043 11.4136C15.2465 11.4205 15.4395 11.5047 15.5831 11.649L20.6495 16.7491C20.7997 16.8999 20.8848 17.104 20.8848 17.317C20.8848 17.5299 20.7997 17.734 20.6495 17.8848C20.5752 17.9592 20.4878 18.0184 20.3907 18.0587C20.2936 18.0989 20.1892 18.1197 20.0841 18.1197C19.9789 18.1197 19.8745 18.0989 19.7774 18.0587C19.6803 18.0184 19.592 17.9592 19.5177 17.8848L15.7091 14.0528V29.2037C15.7091 29.4158 15.6247 29.6196 15.4747 29.7696C15.3247 29.9196 15.1214 30.004 14.9093 30.004C14.804 30.0037 14.6997 29.9825 14.6026 29.942C14.5055 29.9014 14.417 29.8423 14.3428 29.7676C14.2687 29.693 14.2098 29.6043 14.17 29.5069C14.1302 29.4095 14.1099 29.305 14.1104 29.1998ZM18.8477 24.6089C18.6388 24.5537 18.4609 24.4179 18.3516 24.2315C18.2424 24.0451 18.2108 23.8231 18.2647 23.6138C18.2908 23.5104 18.3375 23.4132 18.4014 23.3277C18.4653 23.2422 18.5449 23.1701 18.6368 23.1158C18.7287 23.0615 18.8309 23.0261 18.9366 23.0113C19.0423 22.9965 19.1498 23.0028 19.253 23.0298C19.8499 23.1831 20.4639 23.2607 21.0802 23.2608C23.0218 23.2529 24.8805 22.475 26.2491 21.0977C27.6177 19.7205 28.3842 17.8567 28.38 15.9151C28.3814 14.221 27.7972 12.5782 26.7266 11.2652C25.656 9.95222 24.1647 9.04963 22.505 8.71002C22.3543 8.67961 22.2147 8.60674 22.1036 8.50055C21.9924 8.39435 21.9143 8.25907 21.877 8.10992C21.4727 6.54385 20.5599 5.15598 19.2823 4.16412C18.0047 3.17226 16.4339 2.63249 14.8165 2.62896C13.184 2.62974 11.599 3.17841 10.3155 4.18707C9.03197 5.19573 8.12508 6.60599 7.73836 8.19195C7.70281 8.33523 7.62878 8.4659 7.52449 8.57037C7.42019 8.67484 7.2888 8.74894 7.14558 8.78473C5.56175 9.18605 4.15746 10.1058 3.15633 11.397C2.15519 12.6883 1.61529 14.2768 1.62117 15.9107C1.61744 17.8522 2.38352 19.7162 3.75203 21.0933C5.12053 22.4704 6.97953 23.2484 8.92097 23.2569C9.35044 23.2573 9.77935 23.22 10.2022 23.1451C10.3076 23.1266 10.4152 23.129 10.5196 23.1524C10.624 23.1758 10.7223 23.2196 10.8096 23.2813C10.897 23.343 10.9714 23.4212 11.0284 23.5118C11.0853 23.6023 11.1239 23.7032 11.1417 23.8087C11.1604 23.9139 11.1588 24.0221 11.1358 24.1265C11.1128 24.2309 11.0691 24.3299 11.0079 24.4175C10.9467 24.5052 10.8685 24.5797 10.7784 24.6373C10.6883 24.6948 10.5878 24.7343 10.4825 24.753C9.96676 24.8437 9.44464 24.8896 8.92097 24.8907C6.54836 24.8798 4.27674 23.9289 2.60457 22.2457C0.932397 20.5624 -0.00373915 18.2843 0.00105159 15.9117C-0.00723225 13.892 0.670663 11.9296 1.9239 10.3458C3.04293 8.92234 4.56691 7.87106 6.295 7.33062C6.82783 5.59677 7.87061 4.06363 9.28718 2.93072C10.8555 1.67274 12.807 0.990858 14.8175 0.998104C16.7082 1.00138 18.5499 1.60502 20.0753 2.72223C21.6006 3.83943 22.7312 5.41228 23.3048 7.21392C25.2258 7.72013 26.9256 8.84846 28.1378 10.4224C29.3499 11.9964 30.0062 13.927 30.005 15.9136C30.0103 18.2864 29.0737 20.5648 27.4014 22.2481C25.7292 23.9314 23.4578 24.8823 21.085 24.8926C20.3303 24.8935 19.5782 24.7981 18.8477 24.608V24.6089Z" fill="#B1BAD3"/>
</svg>
