<svg width="13" height="13" viewBox="0 0 13 13" fill="none" xmlns="http://www.w3.org/2000/svg">
<path fill-rule="evenodd" clip-rule="evenodd" d="M9.64602 1.35718C9.8173 1.44069 9.98922 1.56533 10.118 1.71053L10.827 3.01799H5.24615C5.69689 2.7899 6.10448 2.58175 6.49083 2.37423C6.73021 2.25883 6.96927 2.13316 7.20107 2.0113L7.20108 2.0113C7.30225 1.95812 7.40203 1.90567 7.49985 1.85511C7.65329 1.781 7.78962 1.71087 7.91073 1.64857C8.0605 1.57153 8.18699 1.50646 8.29379 1.46063C8.57261 1.31543 8.83018 1.23254 9.06649 1.25311C9.28092 1.2743 9.47409 1.29486 9.64602 1.35718ZM5.67499 9.81199L6.16887 10.1653C6.29766 10.2694 6.34015 10.4564 6.25451 10.6003L5.69624 11.5145C5.63185 11.6186 5.52431 11.6809 5.39553 11.6809C5.35239 11.6809 5.30989 11.6809 5.26675 11.6604L4.68722 11.4317C4.65674 11.4493 4.62801 11.467 4.60005 11.4842C4.52937 11.5277 4.46356 11.5681 4.38652 11.5981L4.30088 12.1795C4.27963 12.3247 4.12959 12.4493 3.95767 12.4493H2.84176C2.67048 12.4493 2.51981 12.3247 2.49856 12.1583L2.41292 11.5769C2.33587 11.5469 2.27006 11.5065 2.19938 11.463C2.17142 11.4458 2.14269 11.4281 2.11221 11.4105L1.53268 11.6392C1.48954 11.6598 1.44704 11.6598 1.4039 11.6598C1.27512 11.6598 1.16758 11.5974 1.10319 11.4522L0.544919 10.5592C0.458634 10.4134 0.501777 10.2476 0.63056 10.1435L1.12444 9.79018V9.45802L0.63056 9.10467C0.501777 9.02116 0.459278 8.8342 0.544919 8.689L1.10319 7.79596C1.16758 7.69189 1.27512 7.62957 1.4039 7.62957C1.44704 7.62957 1.48954 7.62957 1.53268 7.65014L2.11221 7.87885C2.14269 7.86118 2.17142 7.84351 2.19938 7.82632C2.27006 7.78285 2.33587 7.74237 2.41292 7.71246L2.49856 7.13102C2.51981 6.98581 2.66984 6.86118 2.84176 6.86118H3.95767C4.12895 6.86118 4.27963 6.98581 4.30088 7.15221L4.38652 7.73364C4.46356 7.76356 4.52937 7.80403 4.60005 7.8475C4.62801 7.8647 4.65674 7.88237 4.68722 7.90004L5.26675 7.67132C5.30989 7.65076 5.35239 7.65076 5.39553 7.65076C5.52431 7.65076 5.63185 7.71308 5.69624 7.81715L6.25451 8.71019C6.3408 8.85601 6.29766 9.02178 6.16887 9.12585L5.67499 9.4792V9.6456V9.81199ZM2.15535 9.64622C2.15535 10.3105 2.71298 10.8508 3.40004 10.8508C4.08645 10.8508 4.64473 10.3105 4.64473 9.64622C4.64473 8.9819 4.0871 8.44159 3.40004 8.44159C2.71362 8.44159 2.15535 8.98127 2.15535 9.64622ZM12.4792 10.5804V8.42041H9.68916C9.38845 8.42041 9.17402 8.35809 9.02399 8.25402C8.87396 8.12938 8.76643 8.00474 8.70203 7.8801C8.61639 7.7349 8.57325 7.54794 8.57325 7.3398C8.57325 7.0282 8.68078 6.77892 8.89521 6.5714C9.10963 6.36388 9.38909 6.2598 9.68916 6.2598H12.4792V4.66069C12.4792 4.3491 12.3717 4.09982 12.1573 3.8923C11.9429 3.68478 11.6634 3.5807 11.3633 3.5807H2.45541C2.13346 3.5807 1.87589 3.68478 1.66147 3.8923C1.44704 4.09982 1.33951 4.37029 1.33951 4.66069V7.42953C1.36784 7.4258 1.39617 7.4233 1.42515 7.4233C1.48954 7.4233 1.55393 7.44387 1.61833 7.46506L2.11221 7.65201L2.24099 7.5897L2.30538 7.11171C2.34852 6.84187 2.5842 6.65491 2.86366 6.65491H3.97956C4.25838 6.65491 4.49469 6.84187 4.53784 7.11171L4.60223 7.5897L4.73101 7.65201L5.203 7.46506C5.46057 7.38217 5.76127 7.48562 5.89006 7.71433L6.42644 8.60737C6.57647 8.85664 6.51208 9.14767 6.29766 9.31344L5.89006 9.58329V9.70792L6.29766 9.99895C6.51208 10.1653 6.57647 10.4558 6.44769 10.6845L5.88941 11.5987C5.87782 11.6205 5.86494 11.6411 5.84949 11.661H11.4052C11.5552 11.661 11.7059 11.6404 11.8347 11.5781C11.9635 11.5158 12.071 11.4535 12.1779 11.3494C12.2848 11.2453 12.3711 11.1207 12.4142 10.9961C12.4786 10.8714 12.4998 10.7262 12.4998 10.5804H12.4792ZM9.15213 7.34042C9.15213 7.19522 9.19463 7.07058 9.30217 6.96651C9.4097 6.86244 9.53848 6.8213 9.68851 6.8213C9.83855 6.8213 9.96797 6.86244 10.0749 6.96651C10.1818 7.07058 10.2249 7.19522 10.2249 7.34042C10.2249 7.48563 10.1824 7.61026 10.0749 7.7349C9.96733 7.83898 9.83855 7.9013 9.68851 7.9013C9.53848 7.9013 9.4097 7.83898 9.30217 7.7349C9.21653 7.61026 9.15213 7.48563 9.15213 7.34042Z" fill="#B1BAD3"/>
</svg>
