<svg id="icon_è_è_å_å_" data-name="icon/è®¤è¯/å°å" xmlns="http://www.w3.org/2000/svg" width="11.27" height="13.878" viewBox="0 0 11.27 13.878">
  <defs>
    <style>
      .cls-1 {
        fill: #707a8a;
      }
    </style>
  </defs>
  <g id="Group_6831" data-name="Group 6831">
    <g id="è_ä_è_ä_" data-name="èº«ä»½è¯ä»¶">
      <g id="å_å_" data-name="å°å">
        <path id="Path_8" data-name="Path 8" class="cls-1" d="M3356.58,341.447a5.636,5.636,0,0,0-10.83,2.193c0,1.294.91,3.062,2.7,5.253a33.888,33.888,0,0,0,2.64,2.865.432.432,0,0,0,.6,0,33.925,33.925,0,0,0,2.63-2.865c1.79-2.192,2.7-3.959,2.7-5.253a5.69,5.69,0,0,0-.44-2.193Zm-1.18,4.409a18.011,18.011,0,0,1-1.74,2.483,32.752,32.752,0,0,1-2.28,2.5c-.45-.453-1.36-1.388-2.26-2.492a18.928,18.928,0,0,1-1.75-2.486,4.759,4.759,0,0,1-.75-2.219,4.668,4.668,0,0,1,.34-1.846,4.9,4.9,0,0,1,1.03-1.571,4.739,4.739,0,0,1,1.55-1.051,4.785,4.785,0,0,1,3.69,0,4.739,4.739,0,0,1,1.55,1.051,4.589,4.589,0,0,1,1.03,1.571,4.668,4.668,0,0,1,.34,1.846,4.744,4.744,0,0,1-.75,2.215Z" transform="translate(-3345.75 -338.001)"/>
        <path id="Path_9_42" data-name="Path 9_42" class="cls-1" d="M3351.38,340.508a2.647,2.647,0,0,0-1.48.452,2.678,2.678,0,1,0,3.71,3.717,2.638,2.638,0,0,0,.45-1.489,2.673,2.673,0,0,0-2.68-2.68Zm0,4.437a1.759,1.759,0,0,1-.97-.3,1.8,1.8,0,0,1-.65-.788,1.763,1.763,0,0,1-.1-1.015,1.819,1.819,0,0,1,.48-.9,1.766,1.766,0,0,1,1.92-.38,1.811,1.811,0,0,1,.79.646,1.777,1.777,0,0,1,.29.976,1.75,1.75,0,0,1-.51,1.242A1.769,1.769,0,0,1,3351.38,344.945Z" transform="translate(-3345.75 -338.001)"/>
      </g>
    </g>
  </g>
</svg>
