<svg height="13.956" viewBox="0 0 14 13.956" width="14" xmlns="http://www.w3.org/2000/svg"><path d="m166.3 166.934a2.845 2.845 0 1 0 -2.845-2.845 2.849 2.849 0 0 0 2.845 2.845zm0-4.421a1.575 1.575 0 1 1 -1.574 1.576 1.576 1.576 0 0 1 1.574-1.576zm.319 5.095h-.638a3.854 3.854 0 0 0 -3.85 3.85h1.269a2.583 2.583 0 0 1 2.579-2.579h.638a2.583 2.583 0 0 1 2.579 2.579h1.271a3.854 3.854 0 0 0 -3.85-3.85zm-6.048-6.639h2.2v-1.269h-3.471v3.465h1.271zm11.46-1.269h-2.2v1.269h2.2v2.2h1.269v-3.469zm-11.46 10.491h-1.271v3.465h3.467v-1.269h-2.2zm11.46 2.2h-2.2v1.269h3.469v-3.465h-1.269z" fill="#9397a4" transform="translate(-159.3 -159.7)"/></svg>