<svg width="40" height="40" viewBox="0 0 40 40" fill="none" xmlns="http://www.w3.org/2000/svg">
<path d="M14.1962 20C14.1975 19.3656 14.3022 18.7356 14.5062 18.1349L11.0532 15.552C10.3619 16.9314 10.002 18.453 10.002 19.996C10.002 21.5389 10.3619 23.0605 11.0532 24.44L14.5052 21.853C14.3054 21.2549 14.2041 20.6284 14.2052 19.9979" fill="#FBBC05"/>
<path d="M20.2623 14.1079C21.6356 14.1043 22.9688 14.5708 24.0403 15.4299L27.0253 12.5079C25.8388 11.4882 24.4371 10.7498 22.9251 10.3481C21.4131 9.94628 19.8298 9.8915 18.2936 10.1878C16.7575 10.4841 15.3081 11.1238 14.054 12.0591C12.7999 12.9944 11.7734 14.2011 11.0513 15.5889L14.5063 18.1719C14.9193 16.9771 15.697 15.9421 16.7297 15.2129C17.7625 14.4837 18.9981 14.0972 20.2623 14.1079Z" fill="#EA4335"/>
<path d="M20.2622 25.8949C18.9976 25.9054 17.7616 25.5184 16.7287 24.7887C15.6958 24.059 14.918 23.0233 14.5052 21.8279L11.0522 24.4109C11.9178 26.1054 13.2378 27.5256 14.8646 28.5127C16.4913 29.4997 18.3605 30.0147 20.2632 29.9999C22.7253 30.027 25.109 29.1357 26.9492 27.4999L23.6702 25.0179C22.6376 25.6208 21.4577 25.9248 20.2622 25.8959" fill="#34A853"/>
<path d="M29.9991 19.965C29.99 19.3501 29.9115 18.7382 29.7651 18.141H20.2021V22.0179H25.7021C25.581 22.6369 25.3315 23.2236 24.9698 23.7403C24.6082 24.2571 24.1423 24.6923 23.6022 25.0179L26.8801 27.5C27.9047 26.5378 28.7122 25.368 29.2485 24.0687C29.7849 22.7695 30.0377 21.3707 29.9902 19.9659" fill="#4285F4"/>
</svg>
