<svg width="40" height="40" viewBox="0 0 40 40" fill="none" xmlns="http://www.w3.org/2000/svg">
<path d="M20 9C13.373 9 8 13.195 8 18.368C8 23.174 12.638 27.132 18.609 27.668C18.7076 27.6845 18.8018 27.721 18.8858 27.7754C18.9697 27.8298 19.0416 27.9007 19.097 27.984C19.282 28.7764 19.2373 29.6051 18.968 30.373C18.762 31.407 19.881 30.873 20.129 30.751C23.0746 29.1252 25.8518 27.2115 28.42 25.038C29.4925 24.2796 30.3741 23.2824 30.9954 22.1251C31.6166 20.9678 31.9605 19.6819 32 18.369C32 13.195 26.628 9 20 9ZM16 20.82C15.9976 20.9889 15.9284 21.1499 15.8075 21.2678C15.6866 21.3857 15.5239 21.4509 15.355 21.449H13.161C12.774 21.449 12.261 21.316 12.261 20.694V16.042C12.2631 15.8741 12.3314 15.7138 12.4511 15.596C12.5708 15.4782 12.7321 15.4125 12.9 15.413H13.029C13.1127 15.4119 13.1957 15.4274 13.2734 15.4584C13.3511 15.4895 13.4219 15.5355 13.4818 15.5939C13.5417 15.6523 13.5895 15.7219 13.6225 15.7988C13.6554 15.8757 13.673 15.9583 13.674 16.042V20.066H15.355C15.5237 20.0641 15.6863 20.1292 15.8071 20.2468C15.928 20.3645 15.9974 20.5253 16 20.694V20.82ZM17.808 20.695C17.808 20.8659 17.7401 21.0299 17.6192 21.1507C17.4984 21.2716 17.3344 21.3395 17.1635 21.3395C16.9926 21.3395 16.8286 21.2716 16.7078 21.1507C16.5869 21.0299 16.519 20.8659 16.519 20.695V16.175C16.519 16.0041 16.5869 15.8401 16.7078 15.7193C16.8286 15.5984 16.9926 15.5305 17.1635 15.5305C17.3344 15.5305 17.4984 15.5984 17.6192 15.7193C17.7401 15.8401 17.808 16.0041 17.808 16.175V20.695ZM23.484 20.695C23.4659 20.8583 23.3917 21.0102 23.274 21.1249C23.1564 21.2396 23.0027 21.31 22.839 21.324C22.6906 21.3493 22.538 21.3282 22.402 21.2636C22.2659 21.199 22.1532 21.094 22.079 20.963L20 18.072V20.694C20 20.8651 19.932 21.0291 19.8111 21.1501C19.6901 21.271 19.5261 21.339 19.355 21.339C19.1839 21.339 19.0199 21.271 18.8989 21.1501C18.778 21.0291 18.71 20.8651 18.71 20.694V16.167C18.711 16.0833 18.7286 16.0007 18.7615 15.9238C18.7945 15.8469 18.8423 15.7773 18.9022 15.7189C18.9621 15.6605 19.0329 15.6145 19.1106 15.5834C19.1883 15.5524 19.2713 15.5369 19.355 15.538C19.508 15.5387 19.6578 15.5824 19.7872 15.6641C19.9166 15.7458 20.0205 15.8622 20.087 16C20.287 16.293 22.196 18.933 22.196 18.933V16.167C22.2026 16.0002 22.2734 15.8424 22.3938 15.7267C22.5141 15.611 22.6746 15.5464 22.8415 15.5464C23.0084 15.5464 23.1689 15.611 23.2892 15.7267C23.4096 15.8424 23.4804 16.0002 23.487 16.167V20.694L23.484 20.695ZM27.355 17.8C27.4376 17.8 27.5194 17.8163 27.5957 17.8479C27.672 17.8795 27.7414 17.9258 27.7998 17.9842C27.8582 18.0426 27.9045 18.112 27.9361 18.1883C27.9677 18.2646 27.984 18.3464 27.984 18.429C27.984 18.5116 27.9677 18.5934 27.9361 18.6697C27.9045 18.746 27.8582 18.8154 27.7998 18.8738C27.7414 18.9322 27.672 18.9785 27.5957 19.0101C27.5194 19.0417 27.4376 19.058 27.355 19.058H25.678V20.064H27.356C27.4688 20.0611 27.5803 20.0883 27.679 20.1428C27.7778 20.1973 27.8603 20.2771 27.918 20.374C27.9751 20.4704 28.0052 20.5804 28.0052 20.6925C28.0052 20.8046 27.9751 20.9146 27.918 21.011C27.8603 21.1079 27.7778 21.1877 27.679 21.2422C27.5803 21.2967 27.4688 21.3239 27.356 21.321H24.839C24.6865 21.3228 24.5395 21.2642 24.43 21.158C24.3763 21.106 24.3333 21.0439 24.3036 20.9753C24.2739 20.9066 24.2581 20.8328 24.257 20.758V16.105C24.258 16.0303 24.2736 15.9565 24.3032 15.8879C24.3327 15.8192 24.3754 15.7571 24.429 15.705C24.5385 15.5988 24.6855 15.5402 24.838 15.542H27.354C27.4668 15.5391 27.5783 15.5663 27.677 15.6208C27.7758 15.6753 27.8583 15.7551 27.916 15.852C27.9731 15.9484 28.0032 16.0584 28.0032 16.1705C28.0032 16.2826 27.9731 16.3926 27.916 16.489C27.8583 16.5859 27.7758 16.6657 27.677 16.7202C27.5783 16.7747 27.4668 16.8019 27.354 16.799H25.678V17.8H27.356H27.355Z" fill="#00C300"/>
</svg>
