<svg width="40" height="40" viewBox="0 0 40 40" fill="none" xmlns="http://www.w3.org/2000/svg">
<path d="M29.0402 11L21.5142 16.59L22.9062 13.29L29.0402 11Z" fill="#E2761B"/>
<path fill-rule="evenodd" clip-rule="evenodd" d="M29.4794 10.7611C29.5984 10.9799 29.5383 11.2529 29.3383 11.4014L21.8123 16.9914C21.6313 17.1258 21.3828 17.1225 21.2054 16.9833C21.0281 16.8441 20.9659 16.6034 21.0535 16.3957L22.4455 13.0957C22.499 12.9689 22.6024 12.8697 22.7313 12.8216L28.8653 10.5316C29.0986 10.4445 29.3605 10.5423 29.4794 10.7611ZM23.2831 13.683L22.687 15.096L25.9096 12.7024L23.2831 13.683Z" fill="#E2761B"/>
<path d="M10.9531 11L18.4181 16.643L17.0941 13.292L10.9531 11Z" fill="#E4761B"/>
<path fill-rule="evenodd" clip-rule="evenodd" d="M10.5149 10.7593C10.6344 10.5417 10.8954 10.4448 11.128 10.5315L17.269 12.8235C17.4017 12.8731 17.5071 12.9765 17.5592 13.1083L18.8832 16.4593C18.9655 16.6677 18.8991 16.9055 18.7207 17.0411C18.5423 17.1767 18.2954 17.177 18.1167 17.0418L10.6517 11.3988C10.4536 11.2492 10.3954 10.9769 10.5149 10.7593ZM13.9855 12.6654L17.2985 15.1698L16.7109 13.6826L13.9855 12.6654Z" fill="#E4761B"/>
<path d="M26.3271 24.076L24.3271 27.147L28.6161 28.327L29.8492 24.144L26.3271 24.076Z" fill="#E4761B"/>
<path fill-rule="evenodd" clip-rule="evenodd" d="M25.9082 23.8031C26.0023 23.6586 26.1643 23.5728 26.3368 23.5761L29.8588 23.6441C30.0147 23.6471 30.1603 23.7227 30.2525 23.8484C30.3446 23.9742 30.3728 24.1358 30.3288 24.2854L29.0958 28.4683C29.0187 28.7298 28.7464 28.8814 28.4835 28.8091L24.1945 27.6291C24.0407 27.5867 23.9162 27.4735 23.8596 27.3243C23.8031 27.1751 23.8211 27.0078 23.9082 26.8741L25.9082 23.8031ZM26.5948 24.5812L25.1196 26.8464L28.2754 27.7146L29.1843 24.6312L26.5948 24.5812Z" fill="#E4761B"/>
<path d="M10.1592 24.144L11.3842 28.327L15.6732 27.147L13.6732 24.076L10.1592 24.144Z" fill="#E4761B"/>
<path fill-rule="evenodd" clip-rule="evenodd" d="M13.6635 23.5761C13.836 23.5727 13.998 23.6586 14.0922 23.8031L16.0922 26.8741C16.1793 27.0078 16.1973 27.1751 16.1407 27.3243C16.0841 27.4735 15.9597 27.5867 15.8058 27.6291L11.5168 28.8091C11.2536 28.8815 10.981 28.7294 10.9043 28.4675L9.67934 24.2845C9.63556 24.135 9.66395 23.9737 9.75614 23.8481C9.84832 23.7225 9.99377 23.6471 10.1495 23.6441L13.6635 23.5761ZM10.8229 24.6312L11.7258 27.7144L14.8808 26.8464L13.4056 24.5813L10.8229 24.6312Z" fill="#E4761B"/>
<path d="M15.6331 18.817L14.4331 20.625L18.6911 20.814L18.5401 16.238L15.6331 18.817Z" fill="#E4761B"/>
<path fill-rule="evenodd" clip-rule="evenodd" d="M18.7376 15.7786C18.9157 15.8552 19.0334 16.0278 19.0398 16.2215L19.1908 20.7975C19.1954 20.9367 19.1417 21.0716 19.0426 21.1695C18.9436 21.2675 18.8081 21.3197 18.6689 21.3135L14.4109 21.1245C14.2309 21.1165 14.069 21.0122 13.9874 20.8515C13.9057 20.6909 13.9168 20.4987 14.0165 20.3485L15.2165 18.5405C15.2404 18.5045 15.2689 18.4717 15.3013 18.443L18.2083 15.864C18.3533 15.7353 18.5595 15.7021 18.7376 15.7786ZM16.0137 19.1478L15.3387 20.1647L18.1736 20.2905L18.0755 17.3186L16.0137 19.1478Z" fill="#E4761B"/>
<path d="M24.3644 18.817L21.4164 16.185L21.3164 20.814L25.5674 20.625L24.3644 18.817Z" fill="#E4761B"/>
<path fill-rule="evenodd" clip-rule="evenodd" d="M21.217 15.7265C21.396 15.6486 21.6038 15.682 21.7494 15.812L24.6974 18.444C24.7291 18.4723 24.7571 18.5046 24.7807 18.54L25.9837 20.348C26.0836 20.4981 26.0949 20.6904 26.0133 20.8513C25.9317 21.0121 25.7698 21.1165 25.5896 21.1245L21.3386 21.3135C21.2004 21.3196 21.0658 21.2682 20.9669 21.1715C20.868 21.0749 20.8135 20.9415 20.8165 20.8032L20.9165 16.1742C20.9207 15.9791 21.0381 15.8043 21.217 15.7265ZM21.8928 17.2806L21.8278 20.2907L24.6606 20.1648L23.9836 19.1473L21.8928 17.2806Z" fill="#E4761B"/>
<path d="M15.9121 27.147L18.4691 25.899L16.2601 24.174L15.9121 27.147Z" fill="#E4761B"/>
<path fill-rule="evenodd" clip-rule="evenodd" d="M16.0674 23.7126C16.2341 23.643 16.4254 23.6687 16.5679 23.7799L18.7769 25.5049C18.9127 25.611 18.9844 25.7797 18.9664 25.9511C18.9484 26.1226 18.8434 26.2727 18.6884 26.3483L16.1314 27.5963C15.9671 27.6765 15.7721 27.6606 15.623 27.5549C15.4738 27.4492 15.3943 27.2705 15.4155 27.0889L15.7635 24.1159C15.7845 23.9364 15.9007 23.7823 16.0674 23.7126ZM16.6533 25.1154L16.5151 26.2963L17.5307 25.8006L16.6533 25.1154Z" fill="#E4761B"/>
<path d="M21.5244 25.899L24.0884 27.147L23.7334 24.174L21.5244 25.899Z" fill="#E4761B"/>
<path fill-rule="evenodd" clip-rule="evenodd" d="M23.9256 23.7124C24.0922 23.7818 24.2085 23.9355 24.2299 24.1147L24.5849 27.0877C24.6066 27.2694 24.5273 27.4484 24.3783 27.5544C24.2292 27.6605 24.0341 27.6766 23.8696 27.5966L21.3056 26.3486C21.1505 26.2731 21.0453 26.1229 21.0272 25.9514C21.0091 25.7798 21.0807 25.6111 21.2167 25.5049L23.4257 23.7799C23.5679 23.6688 23.759 23.643 23.9256 23.7124ZM22.4636 25.8L23.4833 26.2964L23.3421 25.114L22.4636 25.8Z" fill="#E4761B"/>
<path d="M23.9707 27.147L21.4067 25.899L21.6068 27.571L21.5837 28.271L23.9707 27.147Z" fill="#D7C1B3"/>
<path fill-rule="evenodd" clip-rule="evenodd" d="M21.1169 25.4916C21.2659 25.3855 21.4611 25.3693 21.6256 25.4494L24.1896 26.6974C24.3626 26.7816 24.472 26.9577 24.4707 27.1502C24.4695 27.3427 24.3579 27.5173 24.1838 27.5993L21.7968 28.7233C21.6392 28.7975 21.4545 28.7844 21.309 28.6887C21.1635 28.593 21.0783 28.4286 21.084 28.2546L21.1058 27.5926L20.9103 25.9584C20.8886 25.7767 20.9678 25.5977 21.1169 25.4916ZM22.0121 26.7497L22.0989 27.4757L22.813 27.1395L22.0121 26.7497Z" fill="#D7C1B3"/>
<path d="M16.0288 27.147L18.4118 28.274L18.3968 27.574L18.5858 25.902L16.0288 27.147Z" fill="#D7C1B3"/>
<path fill-rule="evenodd" clip-rule="evenodd" d="M18.8743 25.4936C19.0233 25.5989 19.1031 25.7769 19.0826 25.9581L18.8974 27.5968L18.9117 28.2633C18.9154 28.4365 18.8292 28.5993 18.6838 28.6935C18.5385 28.7878 18.3547 28.8 18.198 28.726L15.815 27.599C15.6412 27.5168 15.5299 27.3421 15.5288 27.1498C15.5277 26.9575 15.637 26.7816 15.8099 26.6974L18.3669 25.4524C18.5309 25.3726 18.7254 25.3884 18.8743 25.4936ZM17.1844 27.1404L17.9042 27.4808L17.9868 26.7498L17.1844 27.1404Z" fill="#D7C1B3"/>
<path d="M16.025 27.147L16.388 24.076L14.021 24.144L16.025 27.147Z" fill="#CD6116"/>
<path fill-rule="evenodd" clip-rule="evenodd" d="M16.7569 23.7385C16.855 23.8457 16.9016 23.9904 16.8845 24.1347L16.5215 27.2057C16.497 27.4137 16.3453 27.5843 16.1416 27.6332C15.9379 27.6821 15.7254 27.5988 15.6091 27.4245L13.6051 24.4215C13.5041 24.2702 13.4933 24.0761 13.5768 23.9145C13.6602 23.7529 13.8248 23.6494 14.0066 23.6442L16.3736 23.5762C16.5189 23.572 16.6588 23.6313 16.7569 23.7385ZM14.9383 24.6178L15.6877 25.7408L15.8235 24.5924L14.9383 24.6178Z" fill="#CD6116"/>
<path d="M23.6079 24.076L23.9709 27.147L25.9709 24.147L23.6079 24.076Z" fill="#CD6116"/>
<path fill-rule="evenodd" clip-rule="evenodd" d="M23.2392 23.7383C23.3375 23.631 23.4775 23.5718 23.6229 23.5762L25.9859 23.6472C26.1676 23.6527 26.3319 23.7562 26.4153 23.9177C26.4986 24.0792 26.4877 24.2731 26.3869 24.4243L24.3869 27.4243C24.2707 27.5987 24.0582 27.682 23.8544 27.6332C23.6507 27.5844 23.499 27.4137 23.4744 27.2057L23.1114 24.1347C23.0943 23.9902 23.141 23.8455 23.2392 23.7383ZM24.1725 24.5932L24.3081 25.7399L25.0549 24.6197L24.1725 24.5932Z" fill="#CD6116"/>
<path d="M25.4092 20.695L21.1582 20.884L21.5512 23.07L22.1792 21.754L23.6922 22.442L25.4092 20.695Z" fill="#CD6116"/>
<path d="M16.3168 22.442L17.8298 21.754L18.4498 23.07L18.8498 20.884L14.5918 20.695L16.3168 22.442Z" fill="#CD6116"/>
<path d="M18.341 22.739L16.208 21.948L17.713 21.08L18.341 22.739Z" fill="#233447"/>
<path d="M21.6519 22.739L22.2799 21.08L23.7929 21.948L21.6519 22.739Z" fill="#233447"/>
<path d="M14.5918 20.664L16.3768 24.143L16.3158 22.411L14.5918 20.664Z" fill="#E4751F"/>
<path fill-rule="evenodd" clip-rule="evenodd" d="M14.2987 20.2589C14.4987 20.1142 14.7743 20.1371 14.9477 20.3128L16.6717 22.0598C16.7598 22.149 16.8111 22.2681 16.8155 22.3934L16.8765 24.1254C16.8848 24.3594 16.7294 24.5679 16.5028 24.6269C16.2761 24.6859 16.0389 24.5796 15.932 24.3712L14.147 20.8922C14.0343 20.6726 14.0987 20.4036 14.2987 20.2589Z" fill="#E4751F"/>
<path d="M23.6917 22.411L23.6157 24.143L25.4087 20.664L23.6917 22.411Z" fill="#E4751F"/>
<path fill-rule="evenodd" clip-rule="evenodd" d="M25.7018 20.2589C25.9021 20.4038 25.9664 20.6733 25.8532 20.8931L24.0602 24.372C23.9526 24.5808 23.7142 24.6865 23.4873 24.6262C23.2603 24.5659 23.1059 24.3557 23.1162 24.1211L23.1922 22.3891C23.1976 22.2657 23.2485 22.1486 23.3351 22.0605L25.0521 20.3135C25.2254 20.1372 25.5015 20.114 25.7018 20.2589Z" fill="#E4751F"/>
<path d="M18.8497 20.853L18.4497 23.039L18.9497 25.618L19.0627 22.218L18.8497 20.853Z" fill="#E4751F"/>
<path fill-rule="evenodd" clip-rule="evenodd" d="M18.8562 20.353C19.1001 20.3562 19.3061 20.5349 19.3437 20.7759L19.5567 22.1409C19.5616 22.1719 19.5635 22.2032 19.5624 22.2346L19.4494 25.6346C19.441 25.8889 19.2429 26.0963 18.9892 26.1164C18.7356 26.1365 18.5073 25.963 18.4588 25.7132L17.9588 23.1341C17.947 23.073 17.9467 23.0102 17.9579 22.949L18.3579 20.763C18.4018 20.5231 18.6124 20.3498 18.8562 20.353Z" fill="#E4751F"/>
<path d="M21.1526 20.853L20.9526 22.214L21.0436 25.614L21.5506 23.035L21.1526 20.853Z" fill="#E4751F"/>
<path fill-rule="evenodd" clip-rule="evenodd" d="M21.144 20.3531C21.3888 20.3488 21.6006 20.5224 21.6445 20.7633L22.0425 22.9453C22.0538 23.0069 22.0533 23.07 22.0413 23.1314L21.5342 25.7104C21.4851 25.9605 21.2558 26.1335 21.0019 26.1122C20.7479 26.0909 20.5506 25.8821 20.5438 25.6274L20.4528 22.2274C20.452 22.1986 20.4538 22.1698 20.458 22.1413L20.658 20.7803C20.6936 20.5381 20.8993 20.3573 21.144 20.3531Z" fill="#E4751F"/>
<path d="M21.652 23.045L21.145 25.624L21.508 25.874L23.717 24.149L23.793 22.417L21.652 23.045Z" fill="#F6851B"/>
<path fill-rule="evenodd" clip-rule="evenodd" d="M24.1014 22.0234C24.2285 22.123 24.2996 22.2777 24.2926 22.4389L24.2166 24.1709C24.2101 24.317 24.1401 24.453 24.0248 24.5431L21.8158 26.2681C21.6437 26.4025 21.4043 26.4096 21.2244 26.2858L20.8614 26.0358C20.6973 25.9227 20.616 25.7231 20.6544 25.5275L21.1614 22.9485C21.1974 22.7655 21.3323 22.6177 21.5113 22.5652L23.6523 21.9372C23.8072 21.8918 23.9744 21.9239 24.1014 22.0234ZM22.0841 23.4393L21.7705 25.0347L23.2276 23.8968L23.2629 23.0936L22.0841 23.4393Z" fill="#F6851B"/>
<path d="M16.2148 22.417L16.2758 24.149L18.4848 25.874L18.8478 25.624L18.3478 23.045L16.2148 22.417Z" fill="#F6851B"/>
<path fill-rule="evenodd" clip-rule="evenodd" d="M15.9084 22.0219C16.0353 21.9234 16.2019 21.892 16.3561 21.9373L18.4891 22.5653C18.6683 22.6181 18.8031 22.7664 18.8387 22.9498L19.3387 25.5288C19.3765 25.724 19.2952 25.923 19.1314 26.0358L18.7685 26.2858C18.5886 26.4096 18.3492 26.4025 18.1771 26.2681L15.9681 24.5431C15.8516 24.4521 15.7814 24.3143 15.7762 24.1666L15.7152 22.4346C15.7095 22.274 15.7814 22.1204 15.9084 22.0219ZM16.7389 23.0925L16.7673 23.8984L18.2246 25.0364L17.9149 23.4387L16.7389 23.0925Z" fill="#F6851B"/>
<path d="M21.5878 28.274L21.6108 27.574L21.4218 27.408H18.5698L18.3958 27.574L18.4108 28.274L16.0288 27.147L16.8608 27.828L18.5478 29H21.4478L23.1418 27.828L23.9738 27.147L21.5878 28.274Z" fill="#C0AD9E"/>
<path fill-rule="evenodd" clip-rule="evenodd" d="M24.3965 26.8799C24.5314 27.0934 24.486 27.3739 24.2905 27.5339L23.4585 28.2149C23.4481 28.2234 23.4374 28.2315 23.4263 28.2392L21.7323 29.4112C21.6487 29.469 21.5495 29.5 21.4478 29.5H18.5478C18.4459 29.5 18.3463 29.4688 18.2626 29.4106L16.5756 28.2386C16.5648 28.2311 16.5543 28.2232 16.5441 28.2149L15.7121 27.5339C15.5167 27.3739 15.4712 27.0932 15.6063 26.8797C15.7413 26.6662 16.0143 26.587 16.2427 26.695L17.9045 27.4813C17.9237 27.3793 17.9744 27.285 18.0507 27.2122L18.2247 27.0462C18.3177 26.9575 18.4413 26.908 18.5698 26.908H21.4218C21.5433 26.908 21.6605 26.9522 21.7518 27.0323L21.9408 27.1983C22.0247 27.272 22.0806 27.3708 22.1016 27.4783L23.7603 26.6949C23.9886 26.587 24.2616 26.6664 24.3965 26.8799ZM21.0996 27.908H18.9031L18.9107 28.2633C18.9125 28.3468 18.8934 28.4278 18.8568 28.5H21.1418C21.1044 28.4262 21.0853 28.343 21.0881 28.2576L21.0996 27.908Z" fill="#C0AD9E"/>
<path d="M21.4071 25.899L21.0441 25.649H18.9441L18.5811 25.899L18.3921 27.571L18.5661 27.405H21.4181L21.6071 27.571L21.4071 25.899Z" fill="#161616"/>
<path fill-rule="evenodd" clip-rule="evenodd" d="M18.6605 25.2372C18.7439 25.1797 18.8428 25.149 18.9441 25.149H21.0441C21.1454 25.149 21.2443 25.1797 21.3277 25.2372L21.6907 25.4872C21.809 25.5686 21.8865 25.697 21.9036 25.8396L22.1036 27.5116C22.1282 27.7173 22.0234 27.9169 21.84 28.0134C21.6567 28.1099 21.4328 28.0834 21.2771 27.9467L21.2297 27.905H18.7664L18.7372 27.9328C18.585 28.078 18.3582 28.1124 18.1698 28.0188C17.9814 27.9253 17.8716 27.7239 17.8953 27.5148L18.0843 25.8428C18.1005 25.699 18.1783 25.5693 18.2975 25.4872L18.6605 25.2372ZM18.9706 26.905H21.0239L20.9375 26.1827L20.8886 26.149H19.0996L19.0523 26.1815L18.9706 26.905Z" fill="#161616"/>
<path d="M29.3572 16.953L30.0002 13.867L29.0392 11L21.7632 16.4L24.5632 18.767L28.5192 19.924L29.3962 18.903L29.0182 18.631L29.6232 18.079L29.1542 17.716L29.7592 17.255L29.3572 16.953Z" fill="#763D16"/>
<path fill-rule="evenodd" clip-rule="evenodd" d="M29.1891 10.523C29.3418 10.571 29.4624 10.6892 29.5133 10.8411L30.4743 13.7081C30.5024 13.7921 30.5078 13.8822 30.4897 13.969L29.9115 16.744L30.0595 16.8552C30.1847 16.9493 30.2586 17.0966 30.2592 17.2533C30.2597 17.4099 30.1868 17.5578 30.0622 17.6527L29.9724 17.7211C30.0633 17.8098 30.1176 17.9304 30.1228 18.0588C30.1287 18.2062 30.0692 18.3488 29.9602 18.4483L29.794 18.6C29.8475 18.6703 29.882 18.7543 29.8927 18.8438C29.9093 18.9829 29.8667 19.1225 29.7755 19.2288L28.8985 20.2498C28.7706 20.3987 28.5673 20.459 28.3788 20.4039L24.4228 19.2469C24.3558 19.2273 24.2937 19.1939 24.2404 19.1488L21.4404 16.7818C21.3238 16.6832 21.2586 16.5368 21.2634 16.3842C21.2683 16.2315 21.3426 16.0895 21.4652 15.9985L28.7412 10.5985C28.8698 10.503 29.0363 10.475 29.1891 10.523ZM28.9499 17.243C28.8704 17.1313 28.8388 16.9896 28.8677 16.851L29.4831 13.8975L28.784 11.812L22.5678 16.4255L24.8051 18.3168L28.35 19.3536L28.6659 18.9858C28.5791 18.8997 28.5262 18.7839 28.519 18.6599C28.5103 18.5095 28.5699 18.3632 28.6812 18.2616L28.8469 18.1104C28.7248 18.0153 28.6536 17.8689 28.6542 17.7141C28.6548 17.5587 28.7276 17.4125 28.8511 17.3183L28.9499 17.243Z" fill="#763D16"/>
<path d="M10 13.867L10.643 16.953L10.235 17.253L10.84 17.714L10.379 18.077L10.984 18.629L10.606 18.901L11.476 19.922L15.432 18.765L18.232 16.398L10.956 10.998L10 13.867Z" fill="#763D16"/>
<path fill-rule="evenodd" clip-rule="evenodd" d="M10.8057 10.5211C10.9586 10.4729 11.1253 10.501 11.254 10.5965L18.53 15.9965C18.6526 16.0875 18.7269 16.2295 18.7318 16.3822C18.7366 16.5348 18.6714 16.6812 18.5548 16.7798L15.7548 19.1468C15.7015 19.1919 15.6393 19.2253 15.5724 19.2449L11.6164 20.4019C11.4272 20.4572 11.2232 20.3963 11.0954 20.2463L10.2254 19.2253C10.1348 19.1189 10.0928 18.9795 10.1096 18.8408C10.1204 18.7517 10.1549 18.6681 10.2082 18.598L10.042 18.4463C9.93349 18.3473 9.874 18.2056 9.87933 18.0588C9.88396 17.9315 9.93697 17.8115 10.0263 17.7226L9.93196 17.6507C9.80665 17.5552 9.73367 17.4062 9.73502 17.2487C9.73637 17.0912 9.81188 16.9435 9.93881 16.8502L10.088 16.7405L9.51051 13.969C9.49249 13.8825 9.49771 13.7927 9.52564 13.7089L10.4816 10.8399C10.5323 10.6879 10.6528 10.5693 10.8057 10.5211ZM11.3348 18.9853L11.6465 19.3512L15.19 18.3148L17.4274 16.4235L11.2122 11.8108L10.517 13.8971L11.1325 16.851C11.1615 16.9904 11.1295 17.1328 11.0491 17.2447L11.143 17.3163C11.266 17.41 11.3388 17.5554 11.34 17.71C11.3412 17.8637 11.2717 18.0093 11.1516 18.105L11.321 18.2596C11.4323 18.3612 11.4919 18.5075 11.4832 18.6579C11.4759 18.7826 11.4225 18.899 11.3348 18.9853Z" fill="#763D16"/>
<path d="M28.5182 19.999L24.5622 18.842L25.7622 20.65L23.9692 24.129L26.3292 24.099H29.8462L28.5182 19.999Z" fill="#F6851B"/>
<path fill-rule="evenodd" clip-rule="evenodd" d="M24.1596 18.5455C24.2841 18.3764 24.501 18.3031 24.7026 18.3621L28.6586 19.5191C28.8174 19.5655 28.9429 19.6875 28.9939 19.8449L30.3219 23.9449C30.3712 24.0971 30.3447 24.2637 30.2506 24.3931C30.1565 24.5224 30.0062 24.599 29.8462 24.599H26.3324L23.9756 24.6289C23.8001 24.6312 23.6363 24.5412 23.544 24.392C23.4517 24.2427 23.4444 24.0559 23.5248 23.8999L25.1833 20.6819L24.1456 19.1185C24.0295 18.9435 24.0351 18.7146 24.1596 18.5455ZM25.7359 19.7062L26.1788 20.3735C26.2791 20.5245 26.2897 20.7179 26.2067 20.879L24.7949 23.6184L26.3292 23.5989L29.1587 23.599L28.1241 20.4046L25.7359 19.7062Z" fill="#F6851B"/>
<path d="M15.4312 18.842L11.4752 19.999L10.1592 24.099H13.6692L16.0212 24.129L14.2362 20.65L15.4312 18.842Z" fill="#F6851B"/>
<path fill-rule="evenodd" clip-rule="evenodd" d="M15.8335 18.5451C15.9581 18.714 15.964 18.9426 15.8483 19.1177L14.8145 20.6818L16.466 23.9007C16.5461 24.0567 16.5386 24.2433 16.4462 24.3923C16.3538 24.5414 16.1901 24.6312 16.0148 24.6289L13.666 24.599H10.1592C9.99945 24.599 9.84932 24.5227 9.7552 24.3936C9.66108 24.2645 9.63429 24.0983 9.68311 23.9462L10.9991 19.8462C11.0498 19.6882 11.1756 19.5657 11.3348 19.5191L15.2908 18.3621C15.4922 18.3032 15.709 18.3763 15.8335 18.5451ZM11.8702 20.4044L10.8448 23.599H13.6756L15.1973 23.6184L13.7913 20.8782C13.7089 20.7176 13.7195 20.5249 13.8191 20.3743L14.2614 19.705L11.8702 20.4044Z" fill="#F6851B"/>
<path d="M21.1572 20.765L21.4072 16.401L22.5572 13.292H17.4512L18.5862 16.401L18.8512 20.765L18.9422 22.142L18.9502 25.531H21.0502L21.0652 22.142L21.1572 20.765Z" fill="#F6851B"/>
<path fill-rule="evenodd" clip-rule="evenodd" d="M17.0415 13.0054C17.135 12.8717 17.288 12.792 17.4512 12.792H22.5572C22.7208 12.792 22.874 12.872 22.9675 13.0063C23.061 13.1405 23.0829 13.312 23.0261 13.4654L21.9021 16.5043L21.6561 20.7983L21.5651 22.1598L21.5502 25.5332C21.549 25.8085 21.3255 26.031 21.0502 26.031H18.9502C18.6745 26.031 18.4508 25.8078 18.4502 25.5322L18.4422 22.1591L18.3523 20.798L18.3521 20.7953L18.0915 16.504L16.9815 13.4635C16.9255 13.3101 16.9479 13.1391 17.0415 13.0054ZM18.166 13.792L19.0559 16.2295C19.0724 16.2749 19.0823 16.3224 19.0853 16.3707L19.3501 20.732L19.3503 20.7347L19.4411 22.109C19.4418 22.1196 19.4422 22.1302 19.4422 22.1408L19.449 25.031H20.5524L20.5652 22.1398C20.5652 22.1294 20.5656 22.119 20.5663 22.1087L20.6581 20.734L20.908 16.3724C20.9108 16.3229 20.921 16.274 20.9382 16.2275L21.8391 13.792H18.166Z" fill="#F6851B"/>
</svg>
