<svg width="18" height="17" viewBox="0 0 18 17" fill="none" xmlns="http://www.w3.org/2000/svg">
<g opacity="0.5">
<path d="M6.466 10.1114L8.62185 13.3184C8.66451 13.3819 8.72114 13.4337 8.78696 13.4694C8.85278 13.5052 8.92585 13.5239 9.00001 13.5239C9.07418 13.5239 9.14725 13.5052 9.21307 13.4694C9.27889 13.4337 9.33552 13.3819 9.37818 13.3184L11.534 10.1114C13.1597 9.1527 14.1647 7.35948 14.1647 5.40307C14.1647 2.42382 11.8479 0 9.00001 0C6.15217 0 3.83529 2.42382 3.83529 5.40307C3.83529 7.35945 4.84031 9.15267 6.466 10.1114ZM9.00001 0.967335C11.338 0.967335 13.2401 2.95718 13.2401 5.40307C13.2401 7.0413 12.3814 8.54043 10.9991 9.31531C10.9355 9.35093 10.8808 9.40164 10.8393 9.46338L9.00001 12.1994L7.16075 9.46338C7.11925 9.40165 7.06451 9.35094 7.00092 9.31531C5.61863 8.54043 4.75995 7.0413 4.75995 5.40307C4.75995 2.95715 6.66205 0.967335 9.00001 0.967335ZM9.00001 7.82498C10.2877 7.82498 11.3353 6.72902 11.3353 5.38188C11.3353 4.03479 10.2877 2.93883 9.00001 2.93883C7.71234 2.93883 6.66476 4.03476 6.66476 5.38188C6.66476 6.72905 7.71236 7.82498 9.00001 7.82498ZM9.00001 3.90619C9.77779 3.90619 10.4106 4.5682 10.4106 5.3819C10.4106 6.19563 9.77781 6.85767 9.00001 6.85767C8.22222 6.85767 7.58942 6.19563 7.58942 5.3819C7.58942 4.5682 8.22224 3.90619 9.00001 3.90619ZM17.941 16.7734C17.8592 16.9261 17.705 17 17.5377 17H0.462323C0.295019 17 0.140804 16.9261 0.0589785 16.7734C-0.022764 16.6207 -0.0193327 16.444 0.0679995 16.2947L2.86028 11.4964C2.94426 11.3528 3.09366 11.2392 3.25457 11.2392H6.10272C6.35808 11.2392 6.56506 11.4641 6.56506 11.7313C6.56506 11.9984 6.35811 12.2234 6.10272 12.2234H3.51366L1.28739 16.0158H16.7126L14.4863 12.2234H11.8973C11.6419 12.2234 11.4349 11.9984 11.4349 11.7313C11.4349 11.4641 11.6419 11.2392 11.8973 11.2392H14.7454C14.9063 11.2392 15.0557 11.358 15.1397 11.5015L17.932 16.2791C18.0193 16.4284 18.0228 16.6207 17.941 16.7734Z" fill="#1E2329"/>
</g>
</svg>
