<svg width="18" height="17" viewBox="0 0 18 17" fill="none" xmlns="http://www.w3.org/2000/svg">
<g opacity="0.5">
<path d="M16.6484 5.20508C16.2207 4.19336 15.6074 3.28516 14.8281 2.50586C14.0488 1.72461 13.1406 1.11328 12.1289 0.685547C11.082 0.242188 9.9707 0.0175781 8.82422 0.0175781C7.67773 0.0175781 6.56445 0.242187 5.51953 0.683594C4.50781 1.11133 3.59961 1.72461 2.82031 2.50391C2.03906 3.2832 1.42773 4.19141 1 5.20312C0.556641 6.25 0.332031 7.36328 0.332031 8.50781C0.332031 9.65234 0.556641 10.7656 1 11.8125C1.42773 12.8242 2.04102 13.7324 2.82031 14.5117C3.59961 15.293 4.50781 15.9043 5.51953 16.332C6.56641 16.7754 7.67773 17 8.82422 17C9.96875 17 11.082 16.7754 12.1289 16.334C13.1406 15.9063 14.0469 15.293 14.8281 14.5137C15.6094 13.7344 16.2207 12.8262 16.6484 11.8145C17.0918 10.7676 17.3164 9.6543 17.3164 8.50977C17.3164 7.36523 17.0918 6.25195 16.6484 5.20508ZM15.8574 11.4805C15.4727 12.3887 14.9219 13.2051 14.2207 13.9063C13.5195 14.6074 12.7031 15.1582 11.7949 15.543C10.8535 15.9414 9.85547 16.1426 8.82422 16.1426C7.79297 16.1426 6.79492 15.9414 5.85352 15.543C4.94531 15.1582 4.12891 14.6074 3.42773 13.9063C2.72656 13.2051 2.17578 12.3887 1.79102 11.4805C1.39258 10.5391 1.19141 9.54102 1.19141 8.50977C1.19141 7.47852 1.39258 6.48047 1.79102 5.53906C2.17578 4.63086 2.72656 3.81445 3.42773 3.11328C4.12891 2.41211 4.94531 1.86133 5.85352 1.47656C6.79492 1.07813 7.79297 0.876953 8.82422 0.876953C9.85352 0.876953 10.8535 1.07813 11.7949 1.47656C12.7031 1.86133 13.5195 2.41211 14.2207 3.11328C14.9219 3.81445 15.4727 4.63086 15.8574 5.53906C16.2559 6.48047 16.457 7.47852 16.457 8.50977C16.457 9.54102 16.2559 10.5391 15.8574 11.4805Z" fill="#1E2329"/>
<path d="M4.98438 6.58984C4.98438 6.79342 5.06524 6.98865 5.20919 7.1326C5.35314 7.27655 5.54838 7.35742 5.75195 7.35742C5.95553 7.35742 6.15076 7.27655 6.29471 7.1326C6.43866 6.98865 6.51953 6.79342 6.51953 6.58984C6.51953 6.38627 6.43866 6.19103 6.29471 6.04708C6.15076 5.90314 5.95553 5.82227 5.75195 5.82227C5.54838 5.82227 5.35314 5.90314 5.20919 6.04708C5.06524 6.19103 4.98438 6.38627 4.98438 6.58984Z" fill="#1E2329"/>
<path d="M11.127 6.58984C11.127 6.79342 11.2078 6.98865 11.3518 7.1326C11.4957 7.27655 11.691 7.35742 11.8945 7.35742C12.0981 7.35742 12.2933 7.27655 12.4373 7.1326C12.5812 6.98865 12.6621 6.79342 12.6621 6.58984C12.6621 6.38627 12.5812 6.19103 12.4373 6.04708C12.2933 5.90314 12.0981 5.82227 11.8945 5.82227C11.691 5.82227 11.4957 5.90314 11.3518 6.04708C11.2078 6.19103 11.127 6.38627 11.127 6.58984Z" fill="#1E2329"/>
<path d="M12.7775 10.6288C12.5997 10.4706 12.3282 10.4862 12.17 10.662C11.7521 11.1288 11.2521 11.4979 10.6857 11.7577C10.0997 12.0272 9.47278 12.1639 8.82239 12.1639C8.172 12.1639 7.54505 12.0272 6.95911 11.7577C6.39466 11.4979 5.89466 11.1288 5.47473 10.662C5.31653 10.4843 5.04309 10.4706 4.86731 10.6288C4.68958 10.787 4.67591 11.0604 4.83411 11.2362C5.33411 11.7909 5.92786 12.2303 6.60169 12.5389C7.30286 12.8612 8.04895 13.0233 8.82434 13.0233C9.59778 13.0233 10.3458 12.8612 11.0431 12.5389C11.7169 12.2303 12.3126 11.7928 12.8107 11.2362C12.9689 11.0585 12.9532 10.787 12.7775 10.6288Z" fill="#1E2329"/>
</g>
</svg>
