<svg xmlns="http://www.w3.org/2000/svg" width="30" height="30" viewBox="0 0 30 30">
    <g data-name="icon_飞艇_default">
        <g data-name="Group 3560">
            <path data-name="Path 5057" d="M27.475 17.063a.43.43 0 0 0-.125-.312q-1.341-1.549-3.75-4-.444-.686-.5-.812a16.9 16.9 0 0 0-1.937-3.125h.063a7.1 7.1 0 0 0-2.937-2.25q-.464-.244-1-.5a13.394 13.394 0 0 0-3.875-.812 7.486 7.486 0 0 0-1.875.25 12.728 12.728 0 0 0-2.375.563h.063a3.7 3.7 0 0 0-.75.25 44.942 44.942 0 0 0-7.377-.69.461.461 0 0 0-.25.063.485.485 0 0 0-.187.188.511.511 0 0 0-.062.25 14.873 14.873 0 0 0 3.438 9.438q.335-.233.688-.437A.394.394 0 0 0 4.85 15a.7.7 0 0 1-.062-.062A13.16 13.16 0 0 1 2.1 9.688a3.115 3.115 0 0 0-.125-.437 3.844 3.844 0 0 0-.062-.437A20.109 20.109 0 0 1 1.6 6.625a44.511 44.511 0 0 1 7.375.813q.8.172 1.562.375l.063.063a33.7 33.7 0 0 1 6.938 2.5q.33.142.625.25.982.532 1.938 1.125a28.786 28.786 0 0 1 6.5 5.625.555.555 0 0 1 .25-.062.362.362 0 0 1 .25-.062 1.578 1.578 0 0 1 .375-.187M13.163 6.188q.109.033.188.063h.063a12.3 12.3 0 0 1 3.5.75q.742.344 1.313.625a6 6 0 0 1 2.125 1.75l.063.063a15.349 15.349 0 0 1 1.5 2.313q-1.051-.707-2.187-1.375-.736-.4-1.562-.812-.061-.017-.187-.062a34.872 34.872 0 0 0-7.129-2.628 3.968 3.968 0 0 1-.437-.125q.566-.157.938-.25-.016.015-.062 0 .936-.187 1.874-.312z" transform="translate(-.01 2.25)" style="fill:#a1a5b7"/>
            <path data-name="Path 5059" d="M13.087 6.063q-.078-.03-.187-.063-.937.125-1.875.313.047.015.063 0 2.109.708 4.188 1.625V6.875a19.377 19.377 0 0 0-2.187-.812m6.25 7.438q-.747-.438-1.5-.875a35.336 35.336 0 0 0-16.062-4H1.65a3.844 3.844 0 0 1 .063.438 3.115 3.115 0 0 1 .125.438 34.132 34.132 0 0 1 15.937 4.125q.453.266.875.5a36.777 36.777 0 0 1 4.938 3.563 3.026 3.026 0 0 0 .688-.062 1.718 1.718 0 0 0 .438-.062.691.691 0 0 0-.187-.25 37.628 37.628 0 0 0-5.19-3.816z" transform="translate(.253 2.437)" style="fill:#a1a5b7"/>
            <path data-name="Path 5060" d="M27.225 16.413a1.578 1.578 0 0 0-.375.188.362.362 0 0 0-.25.063.555.555 0 0 0-.25.063 13.034 13.034 0 0 1-1.625.375 1.718 1.718 0 0 1-.437.063 3.026 3.026 0 0 1-.687.063 2.779 2.779 0 0 1-.5.063 7.446 7.446 0 0 1-3-.375q-1.243-.43-2.375-.937-.35-.151-.687-.312l-.75-.312q-.726-.35-1.5-.687-1.088-.438-2.25-.812a10.79 10.79 0 0 0-4-.5 6.681 6.681 0 0 0-1.313.125 4.5 4.5 0 0 0-.937.25q-.437.125-.812.25l-.437.188a4.455 4.455 0 0 1-.437.188.394.394 0 0 1-.125.125q-.353.2-.688.438a9.278 9.278 0 0 0-1.437 1.25 9.921 9.921 0 0 0-.75 1.25 6.952 6.952 0 0 1 1.437-.875 11.021 11.021 0 0 1 3.872-.945h.063a7.724 7.724 0 0 1 1.688.063 17.381 17.381 0 0 1 2.937.937q1.5.625 3.125 1.375a14.488 14.488 0 0 0 6.813 1.625 9 9 0 0 0 5.313-2 5.333 5.333 0 0 0 1.563-2.062 2.859 2.859 0 0 1-1.187.875m.313-4.562q-.875-.687-1.875-1.437-1.063-.75-1.812-1.25T21.6 7.85a42.354 42.354 0 0 1 3.75 3.375q1.313 1.437-1.875.813a28.4 28.4 0 0 0 4.313 1.5q1.812.375 1.25-.312a12.252 12.252 0 0 0-1.5-1.375m-16 6.563a9.877 9.877 0 0 0-3.876-1.564 6.842 6.842 0 0 0-3.562.188 4.253 4.253 0 0 0-1.25.563 6.559 6.559 0 0 1 .875-.187 17.69 17.69 0 0 1 2.563.063 12.021 12.021 0 0 1 3.438 1.563 10.1 10.1 0 0 0 3.874 1.685 7.306 7.306 0 0 0 3.563-.25l1.188-.562-.687.188a9.634 9.634 0 0 1-2.687-.125 9.415 9.415 0 0 1-3.439-1.563z" transform="translate(.24 2.9)" style="fill:#a1a5b7"/>
        </g>
    </g>
</svg>
