<svg data-name="icon_ 六合彩" xmlns="http://www.w3.org/2000/svg" width="30" height="30" viewBox="0 0 30 30">
    <g data-name="Group 3310">
        <g data-name="Group 3309">
            <path data-name="Path 4045" d="M19.689 2.34a2.673 2.673 0 0 1-.431-.269.171.171 0 0 1-.054-.054A12.52 12.52 0 0 0 12.9.4a11.92 11.92 0 0 0-8.836 3.664A12.106 12.106 0 0 0 .4 12.954a12.019 12.019 0 0 0 2.425 7.435q.026.029.054.054l.054.054a12.107 12.107 0 0 0 1.131 1.293 11.92 11.92 0 0 0 8.836 3.664 11.921 11.921 0 0 0 8.836-3.664 12.041 12.041 0 0 0 3.664-8.836 12.106 12.106 0 0 0-3.664-8.89 14.923 14.923 0 0 0-2.047-1.724m-.539.916h-.05q.337.237.647.431.639.535 1.239 1.131a11.072 11.072 0 0 1 3.341 8.136 11.011 11.011 0 0 1-3.341 8.082 10.9 10.9 0 0 1-8.086 3.34 10.9 10.9 0 0 1-8.082-3.341L4.6 20.82a11.817 11.817 0 0 1-.808-.97.744.744 0 0 0-.054-.054l-.054-.054a10.954 10.954 0 0 1-2.209-6.789 11.071 11.071 0 0 1 3.343-8.135 10.9 10.9 0 0 1 8.082-3.34 11.236 11.236 0 0 1 5.711 1.455 3.687 3.687 0 0 0 .539.323z" transform="translate(2.1 2.1)" style="fill:#a1a5b7"/>
        </g>
    </g>
    <g data-name="Group 3312">
        <g data-name="Group 3311">
            <path data-name="Path 4047" d="M21.8 13.352A7.985 7.985 0 0 0 19.3 7.4a7.983 7.983 0 0 0-5.952-2.5A7.983 7.983 0 0 0 7.4 7.4a7.983 7.983 0 0 0-2.5 5.952A7.983 7.983 0 0 0 7.4 19.3a7.985 7.985 0 0 0 5.952 2.5 7.985 7.985 0 0 0 5.948-2.5 7.985 7.985 0 0 0 2.5-5.952m-3.329-5.115a6.88 6.88 0 0 1 2.143 5.119 6.88 6.88 0 0 1-2.143 5.119 6.88 6.88 0 0 1-5.119 2.143 6.88 6.88 0 0 1-5.119-2.143 6.879 6.879 0 0 1-2.143-5.119 6.879 6.879 0 0 1 2.143-5.119 6.879 6.879 0 0 1 5.119-2.143 6.879 6.879 0 0 1 5.119 2.143z" transform="translate(1.648 1.652)" style="fill:#a1a5b7"/>
        </g>
    </g>
    <g data-name="Group 3314">
        <g data-name="Group 3313">
            <path data-name="Path 4048" d="M14.093 8.5h-.238a5.173 5.173 0 0 0-2.321.6 3.994 3.994 0 0 0-1.488 1.667 5.284 5.284 0 0 0-.6 2.5v.655a4.118 4.118 0 0 0 .833 2.5 3.024 3.024 0 0 0 2.2.952 3.412 3.412 0 0 0 1.548-.357 3.674 3.674 0 0 0 1.012-1.071 2.821 2.821 0 0 0 .417-1.548 3.654 3.654 0 0 0-.714-2.143 1.834 1.834 0 0 0-1.786-.774 2.352 2.352 0 0 0-1.726.714 2.327 2.327 0 0 1 .893-1.667 2.646 2.646 0 0 1 1.845-.6h.119V8.5m-2.381 4.583a1.108 1.108 0 0 1 .714-.238 1.311 1.311 0 0 1 .952.417 2.006 2.006 0 0 1 .357 1.131 1.68 1.68 0 0 1-.357 1.131 1.008 1.008 0 0 1-.893.417.852.852 0 0 1-.952-.476 2.308 2.308 0 0 1-.357-1.31v-.536a1.168 1.168 0 0 1 .542-.536z" transform="translate(2.57 2.092)" style="fill:#a1a5b7"/>
        </g>
    </g>
</svg>
