<svg xmlns="http://www.w3.org/2000/svg" width="30" height="30" viewBox="0 0 30 30">
    <g data-name="Group 3561">
        <g data-name="Group 3549">
            <path data-name="Path 5025" d="M9.507 7.35a5.58 5.58 0 0 1-1.087-.725l-.9 2.42a5.493 5.493 0 0 0 1.09.726 4.709 4.709 0 0 0 1.238.42l.9-2.422a4.764 4.764 0 0 1-1.241-.419z" transform="translate(2.824 2.797)" style="fill:#a1a5b7"/>
            <path data-name="Path 5026" d="M18.153 5.4q-.609-.016-1.364.029l-.82 2.221a12.525 12.525 0 0 1 2.72.089l.823-2.219a10.382 10.382 0 0 0-1.359-.12z" transform="translate(3.177 2.745)" style="fill:#a1a5b7"/>
            <path data-name="Path 5027" d="M7.786 12a5.493 5.493 0 0 1-1.09-.726l-.82 2.219a5.519 5.519 0 0 0 1.087.728 4.764 4.764 0 0 0 1.241.418l.823-2.221A4.764 4.764 0 0 1 7.786 12z" transform="translate(2.755 2.991)" style="fill:#a1a5b7"/>
            <path data-name="Path 5028" d="M18.135 12.71a4.705 4.705 0 0 0-1.241-.42l-.82 2.221a4.724 4.724 0 0 1 1.238.418 5.586 5.586 0 0 1 1.09.728l.82-2.221a5.528 5.528 0 0 0-1.087-.726z" transform="translate(3.181 3.033)" style="fill:#a1a5b7"/>
            <path data-name="Path 5029" d="M14.4 12.2q-.494.039-1.424.131-.972.1-1.427.133l-.82 2.219q.476-.037 1.427-.131t1.424-.131z" transform="translate(2.958 3.03)" style="fill:#a1a5b7"/>
            <path data-name="Path 5030" d="M19.856 8.062a4.705 4.705 0 0 0-1.241-.42l-.894 2.422a4.724 4.724 0 0 1 1.238.418 5.493 5.493 0 0 1 1.09.726l.9-2.42a5.493 5.493 0 0 0-1.093-.726z" transform="translate(3.25 2.839)" style="fill:#a1a5b7"/>
            <path data-name="Path 5031" d="m9.794 10.047-.894 2.42a10.313 10.313 0 0 0 1.356.12q.609.016 1.364-.029l.9-2.422q-.752.047-1.364.031a9.814 9.814 0 0 1-1.362-.12z" transform="translate(2.881 2.94)" style="fill:#a1a5b7"/>
            <path data-name="Path 5032" d="M10.619 7.811a10.382 10.382 0 0 0 1.359.12q.609.016 1.364-.029l.82-2.221q-.752.047-1.364.031a9.8 9.8 0 0 1-1.356-.12z" transform="translate(2.953 2.754)" style="fill:#a1a5b7"/>
            <path data-name="Path 5033" d="m16.97 12.391.9-2.42a10.381 10.381 0 0 0-1.359-.12q-.609-.016-1.364.029l-.9 2.422a12.563 12.563 0 0 1 2.723.089z" transform="translate(3.105 2.931)" style="fill:#a1a5b7"/>
            <path data-name="Path 5034" d="M16.119 7.557q-.494.039-1.424.131-.972.1-1.427.133l-.9 2.42q.494-.039 1.427-.131.969-.1 1.424-.133z" transform="translate(3.026 2.836)" style="fill:#a1a5b7"/>
            <path data-name="Path 5035" d="M25.8 8.023a.6.6 0 0 0 .039-.266.624.624 0 0 0-.073-.261 6.684 6.684 0 0 0-1.777-2.213 5.363 5.363 0 0 0-2.417-1.044 9.157 9.157 0 0 0-1.534-.12q-.53 0-1.189.05-.392.031-1.168.11l-.653.065q-.705.07-1.063.1-.6.044-1.063.044a7.1 7.1 0 0 1-1.617-.17 3.874 3.874 0 0 1-1.656-.835 5.642 5.642 0 0 1-1.272-1.676.668.668 0 0 0-.259-.266.657.657 0 0 0-.933.345L.882 24.274a.636.636 0 0 0 .021.5.627.627 0 0 0 .366.339.62.62 0 0 0 .227.042.637.637 0 0 0 .368-.115.627.627 0 0 0 .243-.313l3.136-8.477a7.628 7.628 0 0 0 1.58 1.25 5.41 5.41 0 0 0 1.508.666 8.262 8.262 0 0 0 1.92.2q.509 0 1.142-.047.374-.029 1.116-.1l.653-.065q.739-.076 1.113-.1Q14.9 18 15.385 18a7.84 7.84 0 0 1 1.312.1 4.085 4.085 0 0 1 1.868.814 5.4 5.4 0 0 1 1.393 1.764.65.65 0 0 0 .259.264.622.622 0 0 0 .361.084.645.645 0 0 0 .35-.128.62.62 0 0 0 .222-.3L25.8 8.023m-8.64-2.38.658-.068q1.463-.151 2.221-.151a7.606 7.606 0 0 1 1.312.1 4.1 4.1 0 0 1 1.777.744 5.115 5.115 0 0 1 1.346 1.582l-4.096 11.062a5.385 5.385 0 0 0-3.459-2.1 8.85 8.85 0 0 0-1.534-.123q-.826 0-2.357.162l-.648.065q-.742.073-1.066.1-.6.044-1.063.044a7.11 7.11 0 0 1-1.62-.167 4.65 4.65 0 0 1-1.481-.741 5.051 5.051 0 0 1-1.382-1.318L9.933 3.57a5.319 5.319 0 0 0 3.052 2.018 8.4 8.4 0 0 0 1.918.2q.509 0 1.142-.047.372-.026 1.114-.099z" transform="translate(1.659 1.695)" style="fill:#a1a5b7"/>
        </g>
    </g>
</svg>
