<svg xmlns="http://www.w3.org/2000/svg" width="30" height="30" viewBox="0 0 30 30">
    <g data-name="icon_时时彩_default">
        <g data-name="icon_时时彩_Default">
            <g data-name="Group 3302">
                <g data-name="Group 3301">
                    <path data-name="Path 4041" d="M22.587 5.913A12.041 12.041 0 0 0 13.75 2.25a12.171 12.171 0 0 0-8.837 3.663A12.171 12.171 0 0 0 1.25 14.75a12.041 12.041 0 0 0 3.663 8.837 12.063 12.063 0 0 0 8.837 3.721 11.934 11.934 0 0 0 8.837-3.721 12.041 12.041 0 0 0 3.663-8.837 12.172 12.172 0 0 0-3.663-8.837m-8.837-2.5a10.93 10.93 0 0 1 8.023 3.314 11.048 11.048 0 0 1 3.314 8.023 10.93 10.93 0 0 1-3.314 8.023 10.851 10.851 0 0 1-8.023 3.372 10.967 10.967 0 0 1-8.023-3.372 10.93 10.93 0 0 1-3.314-8.023 11.047 11.047 0 0 1 3.314-8.023 11.047 11.047 0 0 1 8.023-3.314z" transform="translate(1.25 1.384)" style="fill:#a1a5b7"/>
                </g>
            </g>
            <g data-name="Group 3304">
                <g data-name="Group 3303">
                    <path data-name="Path 4042" d="M15.14.374A.555.555 0 0 0 14.733.2h-4.652a.555.555 0 0 0-.407.174.562.562 0 0 0 0 .814.555.555 0 0 0 .407.174h1.744v1.8a.581.581 0 0 0 1.163 0v-1.8h1.744a.555.555 0 0 0 .407-.174.562.562 0 0 0 0-.814z" transform="translate(2.593 1.05)" style="fill:#a1a5b7"/>
                </g>
            </g>
            <g data-name="Group 3306">
                <g data-name="Group 3305">
                    <path data-name="Path 4043" d="M7.15 4.644a.555.555 0 0 0-.174-.407l-.7-.756A1.943 1.943 0 0 0 4.825 2.9h-.058a2.285 2.285 0 0 0-1.453.7l-.814.812a2.072 2.072 0 0 0-.7 1.4 1.745 1.745 0 0 0 .467 1.448l.7.756a.59.59 0 0 0 .407.233.47.47 0 0 0 .407-.174.422.422 0 0 0 .233-.349.64.64 0 0 0-.174-.465l-.7-.756a.712.712 0 0 1-.174-.581 1.135 1.135 0 0 1 .291-.7l.872-.814a1.2 1.2 0 0 1 .756-.349.881.881 0 0 1 .581.233l.7.756a.581.581 0 0 0 .988-.407z" transform="translate(1.339 1.49)" style="fill:#a1a5b7"/>
                </g>
            </g>
            <g data-name="Group 3308">
                <g data-name="Group 3307">
                    <path data-name="Path 4044" d="M13.278 5.15h-.058a8.876 8.876 0 0 0-6.4 2.674 8.741 8.741 0 0 0-2.674 6.4v.058a8.808 8.808 0 0 0 2.674 6.453 8.877 8.877 0 0 0 6.4 2.674h.058a8.808 8.808 0 0 0 6.453-2.674 8.808 8.808 0 0 0 2.674-6.453v-.062a8.741 8.741 0 0 0-2.674-6.4 8.808 8.808 0 0 0-6.453-2.67M12.7 7.3a.581.581 0 0 0 1.163 0v-.987a7.716 7.716 0 0 1 5.058 2.326 7.47 7.47 0 0 1 2.264 5.061h-.93a.581.581 0 0 0 0 1.163h.93a7.473 7.473 0 0 1-2.267 5.058 7.473 7.473 0 0 1-5.058 2.267v-.93a.581.581 0 0 0-1.163 0v.93a7.616 7.616 0 0 1-5.058-2.267 7.716 7.716 0 0 1-2.326-5.058H6.3a.581.581 0 0 0 0-1.163h-.987a7.713 7.713 0 0 1 2.325-5.062A7.87 7.87 0 0 1 12.7 6.313V7.3m1.163 3.023a.581.581 0 0 0-1.163 0v3.953a.6.6 0 0 0 .581.581H15.6a.581.581 0 0 0 0-1.163h-1.741z" transform="translate(1.722 1.856)" style="fill:#a1a5b7"/>
                </g>
            </g>
        </g>
    </g>
</svg>
