<svg xmlns="http://www.w3.org/2000/svg" width="30" height="30" viewBox="0 0 30 30">
    <g data-name="Group 5655">
        <path data-name="Path 8498" d="M12.012 4.549a24.854 24.854 0 0 0-2.559-1.785 5.718 5.718 0 0 0-3.289-.005c-1.3.269-1.793 1.6-3.436 2.041S.516 4.809.156 3.98a2.424 2.424 0 0 1 .879-2.746C2.029.273 4.643.012 4.643.012S7.984-.177 9.83.985a5.507 5.507 0 0 1 2.182 3.564z" transform="rotate(-74.99 13.425 .689)" style="fill:#a1a5b7"/>
        <path data-name="Path 8499" d="M12.012 4.549a24.854 24.854 0 0 0-2.559-1.785 5.718 5.718 0 0 0-3.289-.005c-1.3.269-1.793 1.6-3.436 2.041S.516 4.809.156 3.98a2.424 2.424 0 0 1 .879-2.746C2.029.273 4.643.012 4.643.012S7.984-.177 9.83.985a5.507 5.507 0 0 1 2.182 3.564z" transform="rotate(8 -49.548 119.838)" style="fill:#a1a5b7"/>
        <path data-name="Path 8500" d="M12.012 4.549a24.854 24.854 0 0 0-2.559-1.785 5.718 5.718 0 0 0-3.289-.005c-1.3.269-1.793 1.6-3.436 2.041S.516 4.809.156 3.98a2.424 2.424 0 0 1 .879-2.746C2.029.273 4.643.012 4.643.012S7.984-.177 9.83.985a5.507 5.507 0 0 1 2.182 3.564z" transform="rotate(70 1.173 21.552)" style="fill:#a1a5b7"/>
        <path data-name="Path 8501" d="M12.012 4.549a24.854 24.854 0 0 0-2.559-1.785 5.718 5.718 0 0 0-3.289-.005c-1.3.269-1.793 1.6-3.436 2.041S.516 4.809.156 3.98a2.424 2.424 0 0 1 .879-2.746C2.029.273 4.643.012 4.643.012S7.984-.177 9.83.985a5.507 5.507 0 0 1 2.182 3.564z" transform="rotate(149 6.875 13.406)" style="fill:#a1a5b7"/>
        <path data-name="Path 8502" d="M12.012 4.549a24.854 24.854 0 0 0-2.559-1.785 5.718 5.718 0 0 0-3.289-.005c-1.3.269-1.793 1.6-3.436 2.041S.516 4.809.156 3.98a2.424 2.424 0 0 1 .879-2.746C2.029.273 4.643.012 4.643.012S7.984-.177 9.83.985a5.507 5.507 0 0 1 2.182 3.564z" transform="rotate(-146 9.162 8.804)" style="fill:#a1a5b7"/>
    </g>
</svg>
