<svg xmlns="http://www.w3.org/2000/svg" width="30" height="30" viewBox="0 0 30 30">
    <g data-name="icon_快三_default">
        <g data-name="Group 3337">
            <g data-name="Group 3336">
                <path data-name="Path 4060" d="M26.512 22.365V5.659q0-4.147-4.147-4.147H5.659q-4.147 0-4.147 4.147v16.706a2.131 2.131 0 0 0 .059.474q.191 3.671 4.088 3.673h16.706q4.147 0 4.147-4.147M25.327 5.659v16.706a2.618 2.618 0 0 1-2.962 2.962H5.659q-2.722 0-2.9-2.488v-.059a.938.938 0 0 0-.059-.118q-.006-.133 0-.3V5.659A2.618 2.618 0 0 1 5.659 2.7h16.706a2.618 2.618 0 0 1 2.962 2.959z" transform="translate(.988 .988)" style="fill:#a1a5b7"/>
            </g>
        </g>
        <g data-name="Group 3362">
            <path data-name="Path 4062" d="M10.48 8.091a2.26 2.26 0 0 0-.7-1.661 2.355 2.355 0 0 0-3.344 0 2.317 2.317 0 0 0 0 3.321 2.355 2.355 0 0 0 3.344 0 2.26 2.26 0 0 0 .7-1.66z" transform="translate(6.817 6.783)" style="fill:#a1a5b7"/>
            <path data-name="Path 4063" d="M10.48 8.091a2.26 2.26 0 0 0-.7-1.661 2.355 2.355 0 0 0-3.344 0 2.317 2.317 0 0 0 0 3.321 2.355 2.355 0 0 0 3.344 0 2.26 2.26 0 0 0 .7-1.66z" transform="translate(12.02 1.766)" style="fill:#a1a5b7"/>
            <path data-name="Path 4064" d="M10.48 8.091a2.26 2.26 0 0 0-.7-1.661 2.355 2.355 0 0 0-3.344 0 2.317 2.317 0 0 0 0 3.321 2.355 2.355 0 0 0 3.344 0 2.26 2.26 0 0 0 .7-1.66z" transform="translate(12.02 12.052)" style="fill:#a1a5b7"/>
            <path data-name="Path 4065" d="M10.48 8.091a2.26 2.26 0 0 0-.7-1.661 2.355 2.355 0 0 0-3.344 0 2.317 2.317 0 0 0 0 3.321 2.355 2.355 0 0 0 3.344 0 2.26 2.26 0 0 0 .7-1.66z" transform="translate(1.766 1.766)" style="fill:#a1a5b7"/>
            <path data-name="Path 4066" d="M10.48 8.091a2.26 2.26 0 0 0-.7-1.661 2.355 2.355 0 0 0-3.344 0 2.317 2.317 0 0 0 0 3.321 2.355 2.355 0 0 0 3.344 0 2.26 2.26 0 0 0 .7-1.66z" transform="translate(1.766 12.052)" style="fill:#a1a5b7"/>
        </g>
    </g>
</svg>
