<svg xmlns="http://www.w3.org/2000/svg" width="30" height="30" viewBox="0 0 30 30">
    <g data-name="Group 5657">
        <path data-name="Ellipse 476" d="M12.5 1.25A11.25 11.25 0 1 0 23.75 12.5 11.263 11.263 0 0 0 12.5 1.25m0-1.25A12.5 12.5 0 1 1 0 12.5 12.5 12.5 0 0 1 12.5 0z" style="fill:#a1a5b7" transform="translate(2.5 2.5)"/>
        <path data-name="Path 8503" d="M10963.152 6440.227a.628.628 0 0 1 .555.337l2.033 3.922 4.385.653a.625.625 0 0 1 .35 1.063l-3.182 3.153 1.025 4.441a.625.625 0 0 1-.928.678l-4.242-2.526-4.355 2.529a.624.624 0 0 1-.918-.7l1.141-4.446-3.154-3.343a.624.624 0 0 1 .381-1.05c.861-.1 3.387-.4 4.377-.485l1.977-3.889a.621.621 0 0 1 .553-.342zm5.557 5.966-3.467-.517a.629.629 0 0 1-.465-.331l-1.619-3.125-1.588 3.121a.619.619 0 0 1-.6.34c-.295.015-1.895.193-3.344.359l2.535 2.688a.625.625 0 0 1 .152.585l-.855 3.333 3.381-1.964a.621.621 0 0 1 .633 0l3.3 1.965-.773-3.353a.628.628 0 0 1 .168-.584z" transform="translate(-10948.174 -6432.727)" style="fill:#a1a5b7"/>
    </g>
</svg>
