<svg width="64" height="15" viewBox="0 0 64 15" fill="none" xmlns="http://www.w3.org/2000/svg">
<path d="M55.4364 0.339771H52.3522C52.3025 0.335485 52.2525 0.34113 52.2051 0.356375C52.1577 0.371621 52.1138 0.396162 52.0759 0.428565C52.0381 0.460969 52.0071 0.500585 51.9847 0.545103C51.9624 0.58962 51.9491 0.638145 51.9457 0.687846V10.8833C51.469 10.9538 50.9879 10.9906 50.506 10.9935C49.0653 10.9935 48.4567 10.4427 48.4567 8.7938V0.687846C48.4534 0.638194 48.4403 0.589691 48.4181 0.545181C48.3958 0.50067 48.3649 0.461045 48.3272 0.428629C48.2894 0.396212 48.2456 0.371656 48.1982 0.356398C48.1509 0.34114 48.1009 0.335487 48.0513 0.339771H44.8966C44.8471 0.335487 44.7971 0.34114 44.7498 0.356398C44.7024 0.371656 44.6586 0.396212 44.6208 0.428629C44.5831 0.461045 44.5522 0.50067 44.5299 0.545181C44.5077 0.589691 44.4946 0.638194 44.4913 0.687846V8.7927C44.4913 13.2483 46.4894 14.1289 50.4042 14.1289C51.2964 14.1289 53.4768 14.1289 54.542 14.0898C55.5234 14.0617 55.8604 13.6536 55.8604 12.627V0.687846C55.8489 0.586068 55.7982 0.492789 55.719 0.427804C55.6398 0.362818 55.5384 0.33124 55.4364 0.339771ZM33.5132 0.366758H20.4383C20.3366 0.357414 20.2354 0.388822 20.1568 0.454084C20.0782 0.519345 20.0287 0.613126 20.0192 0.714833V3.05938C20.0287 3.16109 20.0782 3.25487 20.1568 3.32013C20.2354 3.38539 20.3366 3.4168 20.4383 3.40745H23.7285V13.7616C23.7364 13.8653 23.7848 13.9618 23.8632 14.0302C23.9416 14.0986 24.0438 14.1335 24.1477 14.1273H27.3541C27.4581 14.1336 27.5604 14.0989 27.6389 14.0304C27.7174 13.962 27.7659 13.8654 27.7738 13.7616V3.40745H30.9874C31.1064 3.40745 31.3515 1.44403 33.5126 0.366758M37.423 0.0864258C34.0408 0.0864258 31.1681 1.72161 31.1681 6.21408V8.11087C31.1681 12.6028 34.0413 14.1141 37.423 14.1141C40.8046 14.1141 43.6778 12.6011 43.6778 8.11087V6.21408C43.6778 1.72216 40.8057 0.0864258 37.423 0.0864258ZM39.4811 8.11032C39.4811 10.0798 38.8494 10.8718 37.423 10.8718C35.9965 10.8718 35.3648 10.0804 35.3648 8.11032V6.21408C35.3648 4.24404 35.9971 3.43389 37.423 3.43389C38.8488 3.43389 39.4811 4.24404 39.4811 6.21408V8.11032Z" fill="#EF7722"/>
<path d="M19.2757 13.7588V11.319C19.268 11.2151 19.2196 11.1183 19.141 11.0498C19.0625 10.9813 18.9601 10.9464 18.8561 10.9528H14.6224C13.8685 10.9528 13.6168 10.7512 13.6168 10.0369V8.51734H18.7723C18.8764 8.52372 18.9787 8.48896 19.0573 8.42054C19.1359 8.35213 19.1845 8.25555 19.1926 8.15164V5.98995C19.1847 5.88594 19.1361 5.78923 19.0575 5.72069C18.9789 5.65216 18.8764 5.61732 18.7723 5.6237H13.6168V4.28647C13.6168 3.5705 13.8685 3.37058 14.6224 3.37058H18.8561C18.9601 3.3768 19.0624 3.34189 19.1409 3.27338C19.2194 3.20486 19.2678 3.10823 19.2757 3.00433V0.769378C19.2786 0.713609 19.2697 0.657859 19.2496 0.60576C19.2295 0.553661 19.1986 0.50638 19.159 0.466997C19.1195 0.427613 19.072 0.397011 19.0198 0.377182C18.9676 0.357353 18.9118 0.348741 18.8561 0.351909C18.0597 0.373939 16.7599 0.335938 14.7254 0.335938C12.0422 0.335938 9.51697 0.751203 9.51697 4.28647V10.038C9.51697 13.592 12.0422 14.1411 14.7254 14.1411C16.7577 14.1411 18.0575 14.1653 18.8561 14.0744C19.1287 14.0375 19.2757 13.978 19.2757 13.7588Z" fill="#2293D4"/>
<path d="M10.0787 13.708C9.65271 13.3795 9.30152 12.964 9.04854 12.4892C8.79556 12.0144 8.64659 11.4911 8.61154 10.9543H5.01954C4.26502 10.9543 4.01277 10.7533 4.01277 10.0389V0.732338C4.00514 0.62853 3.95694 0.531902 3.87861 0.463359C3.80027 0.394817 3.6981 0.359873 3.5942 0.366089H0.440601C0.334268 0.359273 0.22936 0.393428 0.147421 0.46154C0.0654825 0.529651 0.0127312 0.62655 0 0.732338L0 10.04C0 13.5902 2.44148 14.1409 5.12198 14.1409C6.23285 14.1409 8.90399 14.2021 9.65797 14.0737C9.93059 14.0374 10.0776 13.9272 10.0776 13.7075" fill="#2293D4"/>
<path d="M57.5364 6.46802C57.957 5.53013 58.2338 4.5342 58.3575 3.51379H59.3896C59.2631 4.53351 58.9867 5.52897 58.5696 6.46802H57.5364ZM60.0946 6.07864C60.1635 6.07849 60.2295 6.05106 60.2783 6.00234C60.327 5.95362 60.3544 5.88758 60.3546 5.81868V3.08971H58.2204C58.1609 3.09045 58.1019 3.07929 58.0468 3.05689C57.9918 3.03449 57.9417 3.0013 57.8996 2.95928C57.8575 2.91725 57.8243 2.86724 57.8018 2.81217C57.7794 2.75711 57.7681 2.69811 57.7688 2.63865V0.711019C57.7687 0.651718 57.7804 0.592985 57.803 0.538191C57.8257 0.483397 57.859 0.433618 57.9009 0.391711C57.9429 0.349804 57.9927 0.316593 58.0475 0.293983C58.1024 0.271373 58.1611 0.259809 58.2204 0.259954H61.9683C62.3648 0.259954 62.5702 0.239577 62.7068 0H63.9036C63.8012 0.444456 63.5071 0.649335 62.9123 0.649335H59.0691C59.0002 0.649335 58.9341 0.676723 58.8853 0.725474C58.8366 0.774225 58.8092 0.840346 58.8092 0.90929V2.43983C58.8091 2.47398 58.8158 2.50782 58.8288 2.53939C58.8418 2.57096 58.861 2.59965 58.8851 2.6238C58.9093 2.64796 58.938 2.6671 58.9696 2.68014C59.0011 2.69318 59.035 2.69985 59.0691 2.69978H60.3551V1.16759H61.3916V2.69703H63.9636V3.08696H61.3916V6.0142C61.3918 6.07343 61.3802 6.1321 61.3576 6.18686C61.3351 6.24161 61.3019 6.29137 61.26 6.33328C61.2182 6.37519 61.1685 6.40842 61.1137 6.43107C61.059 6.45372 61.0003 6.46534 60.9411 6.46526H59.3676V6.07864H60.0946ZM62.9117 6.46802C62.4947 5.52893 62.2183 4.53348 62.0916 3.51379H63.1237C63.2472 4.53425 63.5241 5.53021 63.9449 6.46802H62.9117Z" fill="#EF7722"/>
<path d="M57.5034 11.9076L58.0089 11.8113V9.71234H57.5034V9.32351H58.0089V7.6272H59.1171V9.32351H59.6023V9.71344H59.1171V11.6003L59.6023 11.505V11.895L59.1171 11.9902V13.6744C59.1059 13.8011 59.0464 13.9187 58.9509 14.0027C58.8555 14.0868 58.7314 14.1309 58.6043 14.1261H57.5645V13.7356H57.7077C57.745 13.7379 57.7824 13.7328 57.8177 13.7207C57.853 13.7085 57.8856 13.6895 57.9136 13.6648C57.9416 13.64 57.9644 13.61 57.9808 13.5764C57.9971 13.5428 58.0067 13.5063 58.0089 13.469V12.2023L57.5034 12.2976V11.9076ZM61.1069 11.3536C61.2996 11.6185 61.5076 11.8719 61.7298 12.1125C62.0018 11.8073 62.2574 11.4878 62.4954 11.1553H59.7669V10.7654H63.6921C63.7235 10.7617 63.7553 10.7684 63.7825 10.7845C63.8096 10.8006 63.8307 10.8253 63.8425 10.8546C63.8551 10.8865 63.8586 10.9213 63.8526 10.9552C63.8467 10.989 63.8316 11.0205 63.8089 11.0463C63.3701 11.6543 62.8997 12.2389 62.3995 12.7976C62.9085 13.2687 63.4428 13.7116 64 14.1244H62.5774C62.2877 13.9214 62.0132 13.6974 61.7563 13.4541C61.512 13.6918 61.2546 13.9156 60.9852 14.1244H59.5285C60.137 13.6386 60.6503 13.2074 61.0882 12.7839C60.6768 12.3257 60.288 11.8393 59.8914 11.3519L61.1069 11.3536ZM59.534 10.5192C59.8823 10.0499 60.0584 9.47503 60.033 8.89117V8.16693C60.035 8.06176 60.0786 7.96167 60.1543 7.88859C60.2299 7.8155 60.3315 7.77538 60.4367 7.777H62.9327C63.0386 7.77506 63.1411 7.81486 63.218 7.88782C63.2948 7.96077 63.3399 8.06102 63.3435 8.16693V10.0064C63.3461 10.0411 63.3614 10.0736 63.3865 10.0976C63.4117 10.1216 63.4448 10.1354 63.4796 10.1364H64V10.5263H62.6595C62.5539 10.5272 62.4521 10.487 62.3756 10.4142C62.2991 10.3415 62.2537 10.2419 62.2492 10.1364V8.29691C62.2495 8.27908 62.2462 8.26137 62.2393 8.24492C62.2324 8.22847 62.2221 8.21365 62.2091 8.20141C62.1962 8.18916 62.1808 8.17977 62.164 8.17383C62.1471 8.1679 62.1293 8.16555 62.1115 8.16693H61.2567C61.2391 8.1662 61.2216 8.169 61.2051 8.17519C61.1887 8.18137 61.1736 8.19081 61.1609 8.20294C61.1481 8.21507 61.1379 8.22964 61.1309 8.24579C61.1239 8.26193 61.1203 8.27932 61.1201 8.29691V8.89172C61.1514 9.46719 60.998 10.0376 60.6823 10.5197L59.534 10.5192Z" fill="#EF7722"/>
</svg>
