<svg width="18" height="17" viewBox="0 0 18 17" fill="none" xmlns="http://www.w3.org/2000/svg">
<path d="M12.0926 0H8.99969V2.10646H12.0926V0Z" fill="#B1BAD3"/>
<path d="M16.5171 7.52851C16.051 6.4337 15.2735 5.50348 14.2944 4.84607C13.3155 4.18865 12.1327 3.80424 10.8633 3.80443C10.0172 3.80438 9.20902 3.97503 8.4747 4.28381C7.37298 4.74697 6.43689 5.5196 5.77533 6.4926C5.72182 6.5713 5.67077 6.65174 5.62091 6.73302H6.61089C6.96684 6.2622 7.39966 5.85179 7.89148 5.52167C8.74038 4.95203 9.76092 4.61994 10.8633 4.61975C11.5983 4.6198 12.2965 4.76756 12.9322 5.03472C13.8856 5.43536 14.6981 6.10574 15.2714 6.94904C15.8446 7.79262 16.1788 8.80675 16.179 9.90217C16.179 10.6326 16.0303 11.3264 15.7614 11.9582C15.3583 12.9056 14.6836 13.713 13.835 14.2826C12.9861 14.8523 11.9656 15.1844 10.8633 15.1845C10.1282 15.1845 9.43 15.0367 8.79427 14.7696C8.03989 14.4526 7.37426 13.9662 6.84506 13.3594H5.8092C6.24515 13.9876 6.79567 14.5309 7.43216 14.9582C8.41102 15.6156 9.59383 16 10.8633 15.9999C11.7094 15.9999 12.5175 15.8293 13.2519 15.5205C14.3536 15.0574 15.2897 14.2847 15.9512 13.3118C16.6128 12.3391 16.9996 11.1637 16.9994 9.90222C16.9996 9.06132 16.8278 8.25827 16.5171 7.52851Z" fill="#B1BAD3" stroke="#B1BAD3" stroke-width="0.4"/>
<path d="M6.39789 6.73417H3.17254C2.94238 6.73417 2.7558 6.54875 2.7558 6.32004C2.7558 6.09133 2.94238 5.90591 3.17254 5.90591H6.39793C6.62809 5.90591 6.81467 6.09133 6.81467 6.32004C6.81467 6.54871 6.62809 6.73417 6.39789 6.73417Z" fill="#B1BAD3" stroke="#B1BAD3" stroke-width="0.4"/>
<path d="M7.06981 9.21846H3.84441C3.61426 9.21846 3.42767 9.03304 3.42767 8.80433C3.42767 8.57562 3.61426 8.39021 3.84441 8.39021H7.06981C7.29996 8.39021 7.48655 8.57562 7.48655 8.80433C7.48655 9.03304 7.29996 9.21846 7.06981 9.21846Z" fill="#B1BAD3" stroke="#B1BAD3" stroke-width="0.4"/>
<path d="M9.73006 10.2391L13.1207 6.86981C13.2834 6.70809 13.5473 6.70809 13.71 6.86981C13.8728 7.03153 13.8728 7.29376 13.71 7.45548L10.3194 10.8248C10.1567 10.9865 9.8928 10.9865 9.73006 10.8248C9.56727 10.6631 9.56727 10.4009 9.73006 10.2391Z" fill="#B1BAD3" stroke="#B1BAD3" stroke-width="0.4"/>
<path d="M5.73311 11.7028H1.41674C1.18658 11.7028 1 11.5174 1 11.2886C1 11.0599 1.18658 10.8745 1.41674 10.8745H5.73311C5.96327 10.8745 6.14985 11.0599 6.14985 11.2886C6.1499 11.5174 5.96327 11.7028 5.73311 11.7028Z" fill="#B1BAD3" stroke="#B1BAD3" stroke-width="0.4"/>
<path d="M6.61027 14.187H3.38488C3.15472 14.187 2.96814 14.0016 2.96814 13.7729C2.96814 13.5442 3.15472 13.3588 3.38488 13.3588H6.61027C6.84043 13.3588 7.02701 13.5442 7.02701 13.7729C7.02701 14.0016 6.84043 14.187 6.61027 14.187Z" fill="#B1BAD3" stroke="#B1BAD3" stroke-width="0.4"/>
</svg>
