<svg width="19" height="18" viewBox="0 0 19 18" fill="none" xmlns="http://www.w3.org/2000/svg">
<g id="Frame" clip-path="url(#clip0_4615_5299)">
<path id="Vector" d="M17.8525 6.41184C16.889 4.86147 15.9243 3.31177 14.9552 1.76459C14.3956 0.871219 14.3285 0.870815 13.6546 1.70235C12.7387 2.83238 12.1671 2.96521 10.8776 2.28592C10.1001 1.87648 9.36081 1.39728 8.58404 0.986285C7.58693 0.458801 6.5531 0.0203498 5.2825 0.0106643C4.3548 -0.0739392 3.60386 0.452192 2.91493 1.11188C2.69489 1.32259 2.70258 1.54219 2.83145 1.81181C3.97588 4.20646 5.11443 6.60399 6.23829 9.00803C6.40379 9.36203 6.66356 9.48875 6.99102 9.37669C7.56807 9.17922 8.12874 8.93211 8.68677 8.68501C10.0609 8.07635 11.3924 7.93689 12.6754 8.92001C13.1196 9.26034 13.6033 9.55494 14.0879 9.83942C14.7187 10.2101 15.4008 10.2567 15.9765 9.79301C16.6142 9.27928 17.2139 8.7043 17.7499 8.08867C18.3474 7.40239 18.3221 7.16723 17.8525 6.41184ZM1.54466 1.28699C1.292 0.750194 1.07513 0.679951 0.599539 0.893315C0.0855891 1.12371 0.0246537 1.31245 0.283688 1.88572C1.50743 4.594 7.38426 17.5582 7.38426 17.5582C7.38426 17.5582 7.74112 18.2229 8.47055 17.9183C9.20923 17.6099 8.83778 16.877 8.83778 16.877C8.83778 16.877 3.05623 4.49769 1.54466 1.28699Z" fill="#EB1D99"/>
</g>
<defs>
<clipPath id="clip0_4615_5299">
<rect width="18.3362" height="18" fill="white"/>
</clipPath>
</defs>
</svg>
