<svg xmlns="http://www.w3.org/2000/svg" width="66" height="66" viewBox="0 0 66 66">
    <g data-name="组 8526">
        <g data-name="组 8294">
            <g data-name="椭圆 499" style="stroke:#707070;stroke-dasharray:1 5;fill:none">
                <circle cx="33" cy="33" r="33" style="stroke:none"/>
                <circle cx="33" cy="33" r="32.5" style="fill:none"/>
            </g>
        </g>
        <g data-name="组 8527" transform="translate(9 9)">
            <ellipse data-name="椭圆 545" cx="10" cy="5" rx="10" ry="5" transform="translate(24 19)" style="stroke-linecap:round;stroke-linejoin:round;stroke-width:2px;stroke:#f06440;fill:none"/>
            <path data-name="路径 16064" d="M24 24v7c0 2.761 4.477 5 10 5s10-2.239 10-5v-7" style="stroke-linecap:round;stroke-linejoin:round;stroke-width:2px;stroke:#f06440;fill:none"/>
            <path data-name="路径 16065" d="M24 31v7c0 2.761 4.477 5 10 5s10-2.239 10-5v-7" style="stroke-linecap:round;stroke-linejoin:round;stroke-width:2px;stroke:#f06440;fill:none"/>
            <path data-name="矩形 9987" style="fill:rgba(255,255,255,.01)" d="M0 0h48v48H0z"/>
            <ellipse data-name="椭圆 544" cx="10" cy="5" rx="10" ry="5" transform="translate(4 5)" style="stroke:#aeb4bc;stroke-linecap:round;stroke-linejoin:round;stroke-width:2px;fill:none"/>
            <path data-name="路径 16060" d="M4 10v7c0 2.761 4.477 5 10 5s10-2.239 10-5v-7" style="stroke:#aeb4bc;stroke-linecap:round;stroke-linejoin:round;stroke-width:2px;fill:none"/>
            <path data-name="路径 16061" d="M4 17v7c0 2.761 4.477 5 10 5s10-2.239 10-5v-7" style="stroke:#aeb4bc;stroke-linecap:round;stroke-linejoin:round;stroke-width:2px;fill:none"/>
            <path data-name="路径 16062" d="M4 24v7c0 2.761 4.477 5 10 5s10-2.239 10-5v-7" style="stroke:#aeb4bc;stroke-linecap:round;stroke-linejoin:round;stroke-width:2px;fill:none"/>
            <path data-name="路径 16063" d="M4 31v7c0 2.761 4.477 5 10 5s10-2.239 10-5v-7" style="stroke:#aeb4bc;stroke-linecap:round;stroke-linejoin:round;stroke-width:2px;fill:none"/>
        </g>
    </g>
</svg>
