<svg width="460" height="290" viewBox="0 0 460 290" fill="none" xmlns="http://www.w3.org/2000/svg">
<rect width="460" height="290" rx="10" fill="#F4F7FD"/>
<path d="M14.125 122.65C13.285 122.65 12.635 122.46 12.175 122.08C11.715 121.69 11.395 121.165 11.215 120.505C11.035 119.835 10.945 119.075 10.945 118.225C10.945 117.245 11.035 116.455 11.215 115.855C11.405 115.255 11.68 114.82 12.04 114.55C12.4 114.27 12.84 114.13 13.36 114.13C13.71 114.13 14.005 114.19 14.245 114.31C14.495 114.43 14.67 114.63 14.77 114.91H14.83C14.93 114.62 15.11 114.42 15.37 114.31C15.63 114.19 15.935 114.13 16.285 114.13C16.935 114.13 17.435 114.305 17.785 114.655C18.145 114.995 18.325 115.52 18.325 116.23V122.5H16.99V116.245C16.99 115.855 16.905 115.59 16.735 115.45C16.565 115.31 16.35 115.24 16.09 115.24C15.8 115.24 15.585 115.31 15.445 115.45C15.315 115.59 15.235 115.82 15.205 116.14H14.365C14.325 115.79 14.22 115.555 14.05 115.435C13.88 115.305 13.69 115.24 13.48 115.24C13.08 115.24 12.78 115.475 12.58 115.945C12.38 116.405 12.28 117.17 12.28 118.24C12.28 118.93 12.33 119.52 12.43 120.01C12.54 120.5 12.74 120.88 13.03 121.15C13.32 121.41 13.74 121.54 14.29 121.54C14.49 121.54 14.655 121.53 14.785 121.51C14.915 121.49 15.04 121.465 15.16 121.435L15.295 122.455C15.145 122.525 14.965 122.575 14.755 122.605C14.545 122.635 14.335 122.65 14.125 122.65ZM16.2375 112.975C15.8175 112.975 15.4825 112.915 15.2325 112.795C14.9825 112.675 14.8025 112.52 14.6925 112.33C14.5725 112.14 14.5125 111.94 14.5125 111.73C14.5125 111.58 14.5375 111.42 14.5875 111.25C14.6275 111.07 14.6825 110.925 14.7525 110.815L15.8775 111.01C15.8575 111.05 15.8375 111.12 15.8175 111.22C15.7975 111.31 15.7875 111.395 15.7875 111.475C15.7875 111.605 15.8275 111.72 15.9075 111.82C15.9875 111.91 16.1225 111.955 16.3125 111.955H20.1075V112.975H16.2375ZM22.4011 122.65C22.0111 122.65 21.6311 122.61 21.2611 122.53C20.9011 122.45 20.5161 122.3 20.1061 122.08L20.5261 121.06C20.7461 121.19 20.9961 121.305 21.2761 121.405C21.5561 121.495 21.8811 121.54 22.2511 121.54C22.9911 121.54 23.5661 121.27 23.9761 120.73C24.3961 120.18 24.6061 119.39 24.6061 118.36C24.6061 117.35 24.3911 116.58 23.9611 116.05C23.5411 115.51 22.8911 115.24 22.0111 115.24C21.6911 115.24 21.3661 115.275 21.0361 115.345C20.7061 115.415 20.4161 115.52 20.1661 115.66V114.535C20.4561 114.385 20.7711 114.28 21.1111 114.22C21.4611 114.16 21.8111 114.13 22.1611 114.13C23.0611 114.13 23.7911 114.31 24.3511 114.67C24.9111 115.02 25.3211 115.51 25.5811 116.14C25.8411 116.77 25.9711 117.51 25.9711 118.36C25.9711 119.68 25.6711 120.725 25.0711 121.495C24.4811 122.265 23.5911 122.65 22.4011 122.65ZM28.1339 122.5V117.25C28.1339 116.24 28.4039 115.47 28.9439 114.94C29.4839 114.4 30.3439 114.13 31.5239 114.13C32.7139 114.13 33.5739 114.4 34.1039 114.94C34.6439 115.47 34.9139 116.24 34.9139 117.25V122.5H33.5789V117.25C33.5789 116.58 33.4039 116.08 33.0539 115.75C32.7039 115.41 32.1889 115.24 31.5089 115.24C30.8389 115.24 30.3289 115.41 29.9789 115.75C29.6389 116.08 29.4689 116.58 29.4689 117.25V118.915L29.5139 118.93C29.7339 118.54 30.0039 118.285 30.3239 118.165C30.6439 118.035 31.0939 117.97 31.6739 117.97H32.1689V119.065H31.6739C31.0639 119.065 30.5989 119.15 30.2789 119.32C29.9689 119.49 29.7539 119.715 29.6339 119.995C29.5239 120.265 29.4689 120.57 29.4689 120.91V122.5H28.1339ZM32.965 126.475C32.325 126.475 31.84 126.345 31.51 126.085C31.17 125.835 31 125.475 31 125.005V124.75C31 124.58 30.96 124.475 30.88 124.435C30.79 124.405 30.67 124.41 30.52 124.45L30.43 123.55C30.57 123.51 30.71 123.485 30.85 123.475C30.98 123.465 31.08 123.46 31.15 123.46C31.51 123.46 31.77 123.54 31.93 123.7C32.08 123.86 32.155 124.085 32.155 124.375V124.885C32.155 125.075 32.215 125.235 32.335 125.365C32.455 125.495 32.66 125.56 32.95 125.56C33.25 125.56 33.46 125.495 33.58 125.365C33.69 125.235 33.745 125.075 33.745 124.885V123.505H34.915V124.96C34.915 125.45 34.75 125.825 34.42 126.085C34.09 126.345 33.605 126.475 32.965 126.475ZM39.0428 122.65C38.7628 122.65 38.4928 122.605 38.2328 122.515C37.9828 122.425 37.7778 122.265 37.6178 122.035C37.4678 121.805 37.3928 121.485 37.3928 121.075V119.62C37.3928 119 37.5228 118.55 37.7828 118.27C38.0528 117.99 38.4028 117.795 38.8328 117.685L38.8478 117.64L37.1228 117.01V116.515C37.1228 116.075 37.2528 115.675 37.5128 115.315C37.7828 114.955 38.1578 114.67 38.6378 114.46C39.1278 114.24 39.6978 114.13 40.3478 114.13C40.8978 114.13 41.4178 114.22 41.9078 114.4C42.4078 114.58 42.8128 114.88 43.1228 115.3C43.4328 115.71 43.5878 116.26 43.5878 116.95V119.815C43.5878 120.415 43.7228 120.85 43.9928 121.12C44.2728 121.39 44.6428 121.525 45.1028 121.525C45.5028 121.525 45.8528 121.425 46.1528 121.225C46.4528 121.015 46.6878 120.73 46.8578 120.37C47.0278 120 47.1128 119.57 47.1128 119.08V114.28H48.4478V122.5H47.3528L47.2778 121.195H47.2028C47.0328 121.655 46.7278 122.015 46.2878 122.275C45.8578 122.525 45.3728 122.65 44.8328 122.65C44.0728 122.65 43.4528 122.44 42.9728 122.02C42.4928 121.6 42.2528 120.9 42.2528 119.92V117.085C42.2528 116.605 42.1628 116.23 41.9828 115.96C41.8028 115.69 41.5628 115.505 41.2628 115.405C40.9728 115.295 40.6628 115.24 40.3328 115.24C39.8028 115.24 39.3628 115.355 39.0128 115.585C38.6728 115.815 38.4978 116.15 38.4878 116.59L40.1978 117.4L40.0778 118.12C39.7078 118.12 39.3878 118.235 39.1178 118.465C38.8578 118.695 38.7278 119.075 38.7278 119.605V120.925C38.7278 121.145 38.7778 121.305 38.8778 121.405C38.9778 121.505 39.1378 121.555 39.3578 121.555C39.4578 121.555 39.5528 121.55 39.6428 121.54C39.7428 121.52 39.8328 121.495 39.9128 121.465L40.1078 122.425C39.9178 122.515 39.7328 122.575 39.5528 122.605C39.3828 122.635 39.2128 122.65 39.0428 122.65ZM52.8455 122.65C52.5755 122.65 52.3155 122.605 52.0655 122.515C51.8155 122.425 51.6105 122.265 51.4505 122.035C51.2905 121.805 51.2105 121.485 51.2105 121.075V114.28H52.5455V120.91C52.5455 121.14 52.5955 121.305 52.6955 121.405C52.7955 121.505 52.9555 121.555 53.1755 121.555C53.2655 121.555 53.3605 121.545 53.4605 121.525C53.5605 121.505 53.6555 121.48 53.7455 121.45L53.9255 122.425C53.7355 122.515 53.5505 122.575 53.3705 122.605C53.1905 122.635 53.0155 122.65 52.8455 122.65ZM58.5482 122.65C57.3682 122.65 56.5232 122.38 56.0132 121.84C55.5032 121.3 55.2482 120.53 55.2482 119.53V114.28H56.5832V119.545C56.5832 120.215 56.7432 120.715 57.0632 121.045C57.3832 121.375 57.8782 121.54 58.5482 121.54C59.2282 121.54 59.7282 121.375 60.0482 121.045C60.3782 120.715 60.5432 120.215 60.5432 119.545V111.325H61.8782V119.53C61.8782 120.53 61.6182 121.3 61.0982 121.84C60.5882 122.38 59.7382 122.65 58.5482 122.65ZM55.7199 112.975V112.315C55.9099 112.275 56.1049 112.22 56.3049 112.15C56.4949 112.07 56.6599 111.97 56.7999 111.85C56.9299 111.72 56.9949 111.57 56.9949 111.4C56.9949 111.26 56.9599 111.15 56.8899 111.07C56.8099 110.99 56.6999 110.95 56.5599 110.95C56.4499 110.95 56.3449 110.97 56.2449 111.01C56.1349 111.05 56.0399 111.085 55.9599 111.115L55.6449 110.29C55.8549 110.13 56.0849 110.025 56.3349 109.975C56.5749 109.925 56.7749 109.9 56.9349 109.9C57.3249 109.9 57.6349 110.01 57.8649 110.23C58.0949 110.45 58.2099 110.74 58.2099 111.1C58.2099 111.32 58.1599 111.525 58.0599 111.715C57.9499 111.905 57.7599 112.055 57.4899 112.165L57.3099 111.925H59.7099V112.975H55.7199ZM66.6552 122.5V116.665C66.6552 116.175 66.5402 115.815 66.3102 115.585C66.0902 115.355 65.7152 115.24 65.1852 115.24C64.8252 115.24 64.4852 115.29 64.1652 115.39C63.8552 115.48 63.5552 115.61 63.2652 115.78V114.58C63.4652 114.48 63.7502 114.38 64.1202 114.28C64.4902 114.18 64.9302 114.13 65.4402 114.13C65.9602 114.13 66.4102 114.205 66.7902 114.355C67.1702 114.505 67.4652 114.755 67.6752 115.105C67.8852 115.445 67.9902 115.9 67.9902 116.47V122.5H66.6552ZM70.544 122.5V114.28H71.879V117.835H71.924L75.344 114.28H76.904V114.325L71.879 119.41V122.5H70.544ZM75.644 122.5V119.605C75.644 119.015 75.464 118.555 75.104 118.225C74.744 117.895 74.149 117.73 73.319 117.73L74.099 116.755C74.729 116.755 75.254 116.87 75.674 117.1C76.104 117.32 76.429 117.64 76.649 118.06C76.869 118.48 76.979 118.985 76.979 119.575V122.5H75.644ZM83.1877 122.65C82.5477 122.65 81.9927 122.525 81.5227 122.275C81.0627 122.015 80.7477 121.655 80.5777 121.195H80.5177L80.4427 122.5H79.3477V114.28H80.6827V119.035C80.6827 119.535 80.7677 119.975 80.9377 120.355C81.1177 120.725 81.3727 121.015 81.7027 121.225C82.0427 121.425 82.4477 121.525 82.9177 121.525C83.5077 121.525 83.9477 121.37 84.2377 121.06C84.5277 120.75 84.6727 120.295 84.6727 119.695V114.28H86.0077V119.785C86.0077 120.445 85.8927 120.985 85.6627 121.405C85.4427 121.825 85.1227 122.14 84.7027 122.35C84.2827 122.55 83.7777 122.65 83.1877 122.65ZM90.7666 122.5V116.665C90.7666 116.175 90.6516 115.815 90.4216 115.585C90.2016 115.355 89.8266 115.24 89.2966 115.24C88.9366 115.24 88.5966 115.29 88.2766 115.39C87.9666 115.48 87.6666 115.61 87.3766 115.78V114.58C87.5766 114.48 87.8616 114.38 88.2316 114.28C88.6016 114.18 89.0416 114.13 89.5516 114.13C90.0716 114.13 90.5216 114.205 90.9016 114.355C91.2816 114.505 91.5766 114.755 91.7866 115.105C91.9966 115.445 92.1016 115.9 92.1016 116.47V122.5H90.7666ZM97.7003 122.635C96.8903 122.635 96.2403 122.53 95.7503 122.32C95.2703 122.11 94.9203 121.815 94.7003 121.435C94.4903 121.055 94.3853 120.605 94.3853 120.085C94.3853 119.625 94.4503 119.26 94.5803 118.99C94.7203 118.71 94.8903 118.505 95.0903 118.375C95.3003 118.245 95.5153 118.16 95.7353 118.12V118.06C95.5353 118 95.3253 117.9 95.1053 117.76C94.8853 117.62 94.7003 117.425 94.5503 117.175C94.4103 116.925 94.3403 116.61 94.3403 116.23C94.3403 115.88 94.4203 115.55 94.5803 115.24C94.7403 114.93 95.0003 114.675 95.3603 114.475C95.7203 114.275 96.1953 114.175 96.7853 114.175C97.0253 114.175 97.2753 114.195 97.5353 114.235C97.7953 114.265 97.9953 114.32 98.1353 114.4L97.8953 115.435C97.7853 115.395 97.6403 115.36 97.4603 115.33C97.2903 115.29 97.1103 115.27 96.9203 115.27C96.5003 115.27 96.1903 115.37 95.9903 115.57C95.7903 115.76 95.6903 116.015 95.6903 116.335C95.6903 116.685 95.7753 116.95 95.9453 117.13C96.1253 117.31 96.3503 117.435 96.6203 117.505C96.9003 117.565 97.1903 117.595 97.4903 117.595H97.7753V118.57H97.4903C96.8903 118.57 96.4453 118.68 96.1553 118.9C95.8753 119.11 95.7353 119.465 95.7353 119.965C95.7353 120.255 95.7903 120.52 95.9003 120.76C96.0203 121 96.2203 121.19 96.5003 121.33C96.7903 121.47 97.1903 121.54 97.7003 121.54C98.2103 121.54 98.6053 121.47 98.8853 121.33C99.1753 121.19 99.3803 120.99 99.5003 120.73C99.6203 120.46 99.6803 120.14 99.6803 119.77V114.28H101.015V119.68C101.015 120.73 100.745 121.485 100.205 121.945C99.6753 122.405 98.8403 122.635 97.7003 122.635Z" fill="#A6A6A6"/>
<rect x="10.5" y="134" width="409" height="49" rx="9.5" fill="white"/>
<rect x="10.5" y="134" width="439" height="49" rx="9.5" fill="white"/>
<path d="M37.9145 153.08C38.9345 153.08 39.7895 153.365 40.4495 153.965C41.0945 154.565 41.4245 155.33 41.4245 156.275C41.4245 157.205 41.0645 158.045 40.3745 158.81C39.9545 159.245 39.2195 159.815 38.1545 160.535C36.9995 161.3 36.3095 161.975 36.0845 162.56H41.4395V164H34.0595C34.0595 162.935 34.4045 162.005 35.1245 161.195C35.5145 160.73 36.3245 160.085 37.5395 159.245C38.2595 158.735 38.7695 158.33 39.0695 158.015C39.5495 157.475 39.8045 156.89 39.8045 156.26C39.8045 155.66 39.6395 155.21 39.3095 154.91C38.9795 154.61 38.4845 154.46 37.8545 154.46C37.1795 154.46 36.6695 154.685 36.3245 155.15C35.9645 155.6 35.7845 156.245 35.7545 157.115H34.1195C34.1345 155.915 34.4795 154.955 35.1545 154.235C35.8445 153.455 36.7745 153.08 37.9145 153.08Z" fill="#484848"/>
<path d="M417.207 153.29H419.202L421.812 157.16L424.422 153.29H426.417L422.787 158.465L426.672 164H424.677L421.812 159.755L418.947 164H416.952L420.807 158.465L417.207 153.29Z" fill="#A6A6A6"/>
<rect x="10.5" y="134" width="439" height="49" rx="9.5" stroke="#ECECEC"/>
<rect x="10.5" y="134" width="409" height="49" rx="9.5" stroke="#ECECEC"/>
</svg>
