<svg width="460" height="290" viewBox="0 0 460 290" fill="none" xmlns="http://www.w3.org/2000/svg">
<rect width="460" height="290" rx="10" fill="#0D131C"/>
<path d="M35.735 110.815V124.03H34.295V123.145H26.735V124.06H25.28V110.815H35.735ZM26.735 121.765H34.295V119.275H26.735V121.765ZM26.735 117.985H34.295V115.675H26.735V117.985ZM26.735 114.355H34.295V112.195H26.735V114.355ZM40.7 110.245H42.095V112.96H43.715V114.325H42.095V115.3C42.8 116.005 43.52 116.785 44.24 117.655L43.43 118.87C42.92 118.06 42.47 117.385 42.095 116.845V124.03H40.7V117.22C40.265 118.435 39.74 119.56 39.11 120.58L38.495 119.02C39.5 117.64 40.235 116.08 40.685 114.325H38.99V112.96H40.7V110.245ZM45.125 117.055L46.43 117.34C45.95 119.44 45.275 121.24 44.405 122.77L43.16 121.975C44.09 120.445 44.735 118.81 45.125 117.055ZM50.9 116.935C51.5 118.615 52.01 120.415 52.445 122.335L51.14 122.92C50.675 120.82 50.165 118.975 49.625 117.355L50.9 116.935ZM47.345 123.88H45.83L45.545 122.545C45.995 122.605 46.445 122.635 46.865 122.635C47.225 122.635 47.42 122.425 47.42 122.02V115.96H43.895V114.595H52.4V115.96H48.845V122.365C48.845 123.37 48.335 123.88 47.345 123.88ZM44.675 110.98H51.62V112.33H44.675V110.98ZM65.66 119.065H63.905C62.855 119.065 62.345 118.525 62.345 117.445V114.595H63.74V115.63C64.7 115.48 65.585 115.24 66.38 114.91L66.815 116.095C65.915 116.41 64.895 116.65 63.74 116.815V117.175C63.74 117.625 63.92 117.865 64.295 117.865H65.39C65.54 117.865 65.66 117.805 65.75 117.715C65.84 117.595 65.9 117.28 65.915 116.74L67.25 117.16C67.145 118.09 66.965 118.63 66.725 118.795C66.485 118.975 66.14 119.065 65.66 119.065ZM53.84 112.84H59.795V111.94C58.445 112 56.99 112.03 55.46 112.03L55.055 110.785C59.03 110.785 62.375 110.575 65.105 110.155L65.795 111.34C64.475 111.565 62.945 111.745 61.205 111.865V112.84H67.145V114.16H61.205V118C62.765 119.665 64.805 120.97 67.355 121.915L66.56 123.295C64.49 122.395 62.705 121.195 61.205 119.68V124.06H59.795V119.755C58.295 121.195 56.54 122.395 54.5 123.355L53.615 122.02C56.3 120.91 58.355 119.59 59.795 118.045V114.16H53.84V112.84ZM57.14 114.61H58.55V119.05H57.14V118.495C56.3 118.69 55.355 118.885 54.32 119.065L53.93 117.79C55.1 117.655 56.165 117.505 57.14 117.355V116.515H54.32V115.27H57.14V114.61ZM78.005 113.74C77.945 113.98 77.885 114.205 77.825 114.415C78.155 115.975 78.59 117.34 79.115 118.51C79.61 117.13 79.88 115.54 79.94 113.74H78.005ZM78.47 119.965C77.96 118.93 77.51 117.76 77.135 116.455C76.895 116.995 76.655 117.505 76.385 117.955L75.485 116.845C76.325 115.195 76.895 112.975 77.195 110.185L78.59 110.425C78.5 111.115 78.41 111.76 78.29 112.375H82.1V113.74H81.23C81.14 116.185 80.69 118.27 79.88 119.995C80.63 121.24 81.5 122.215 82.52 122.905L81.725 124.06C80.75 123.355 79.91 122.425 79.19 121.27C78.485 122.365 77.6 123.295 76.55 124.045L75.815 122.86C76.925 122.11 77.81 121.15 78.47 119.965ZM71.36 117.16L72.695 117.325C72.605 117.565 72.53 117.79 72.44 118.03H75.5V119.185C75.23 120.085 74.75 120.88 74.06 121.57C74.675 121.84 75.275 122.14 75.845 122.44L75.08 123.55C74.495 123.19 73.79 122.83 72.965 122.455C71.975 123.1 70.73 123.61 69.245 124L68.585 122.83C69.71 122.56 70.685 122.23 71.495 121.81C70.88 121.555 70.22 121.3 69.53 121.03C69.89 120.4 70.22 119.815 70.505 119.245H68.93V118.03H71.045C71.165 117.73 71.27 117.43 71.36 117.16ZM72.755 121.03C73.415 120.505 73.895 119.905 74.225 119.245H71.9C71.69 119.665 71.465 120.07 71.225 120.46C71.75 120.64 72.26 120.82 72.755 121.03ZM70.325 110.425C70.655 110.995 70.94 111.595 71.195 112.255L70.175 112.72C69.875 112 69.545 111.355 69.2 110.8L70.325 110.425ZM74.63 110.41L75.635 110.89C75.335 111.52 74.96 112.15 74.495 112.765L73.505 112.255C73.985 111.625 74.36 111.01 74.63 110.41ZM68.96 112.975H71.795V110.215H73.1V112.975H75.71V114.22H73.1V114.295C73.895 114.625 74.705 115.015 75.53 115.45L74.78 116.575C74.12 116.05 73.565 115.63 73.1 115.33V117.01H71.795V114.475C71.3 115.555 70.475 116.5 69.32 117.31L68.615 116.155C69.665 115.555 70.4 114.91 70.85 114.22H68.96V112.975Z" fill="#7C8499"/>
<rect x="23.5" y="134" width="413" height="49" rx="9.5" fill="#161F2C"/>
<path d="M55.3974 153.08C56.4174 153.08 57.2724 153.365 57.9324 153.965C58.5774 154.565 58.9074 155.33 58.9074 156.275C58.9074 157.205 58.5474 158.045 57.8574 158.81C57.4374 159.245 56.7024 159.815 55.6374 160.535C54.4824 161.3 53.7924 161.975 53.5674 162.56H58.9224V164H51.5424C51.5424 162.935 51.8874 162.005 52.6074 161.195C52.9974 160.73 53.8074 160.085 55.0224 159.245C55.7424 158.735 56.2524 158.33 56.5524 158.015C57.0324 157.475 57.2874 156.89 57.2874 156.26C57.2874 155.66 57.1224 155.21 56.7924 154.91C56.4624 154.61 55.9674 154.46 55.3374 154.46C54.6624 154.46 54.1524 154.685 53.8074 155.15C53.4474 155.6 53.2674 156.245 53.2374 157.115H51.6024C51.6174 155.915 51.9624 154.955 52.6374 154.235C53.3274 153.455 54.2574 153.08 55.3974 153.08Z" fill="white"/>
<path d="M399.725 153.29H401.72L404.33 157.16L406.94 153.29H408.935L405.305 158.465L409.19 164H407.195L404.33 159.755L401.465 164H399.47L403.325 158.465L399.725 153.29Z" fill="#7C8499"/>
<rect x="23.5" y="134" width="413" height="49" rx="9.5" stroke="#55657E"/>
</svg>
