<svg width="460" height="290" viewBox="0 0 460 290" fill="none" xmlns="http://www.w3.org/2000/svg">
<rect width="460" height="290" rx="10" fill="#F4F7FD"/>
<path d="M22.735 110.815V124.03H21.295V123.145H13.735V124.06H12.28V110.815H22.735ZM13.735 121.765H21.295V119.275H13.735V121.765ZM13.735 117.985H21.295V115.675H13.735V117.985ZM13.735 114.355H21.295V112.195H13.735V114.355ZM27.7 110.245H29.095V112.96H30.715V114.325H29.095V115.3C29.8 116.005 30.52 116.785 31.24 117.655L30.43 118.87C29.92 118.06 29.47 117.385 29.095 116.845V124.03H27.7V117.22C27.265 118.435 26.74 119.56 26.11 120.58L25.495 119.02C26.5 117.64 27.235 116.08 27.685 114.325H25.99V112.96H27.7V110.245ZM32.125 117.055L33.43 117.34C32.95 119.44 32.275 121.24 31.405 122.77L30.16 121.975C31.09 120.445 31.735 118.81 32.125 117.055ZM37.9 116.935C38.5 118.615 39.01 120.415 39.445 122.335L38.14 122.92C37.675 120.82 37.165 118.975 36.625 117.355L37.9 116.935ZM34.345 123.88H32.83L32.545 122.545C32.995 122.605 33.445 122.635 33.865 122.635C34.225 122.635 34.42 122.425 34.42 122.02V115.96H30.895V114.595H39.4V115.96H35.845V122.365C35.845 123.37 35.335 123.88 34.345 123.88ZM31.675 110.98H38.62V112.33H31.675V110.98ZM52.66 119.065H50.905C49.855 119.065 49.345 118.525 49.345 117.445V114.595H50.74V115.63C51.7 115.48 52.585 115.24 53.38 114.91L53.815 116.095C52.915 116.41 51.895 116.65 50.74 116.815V117.175C50.74 117.625 50.92 117.865 51.295 117.865H52.39C52.54 117.865 52.66 117.805 52.75 117.715C52.84 117.595 52.9 117.28 52.915 116.74L54.25 117.16C54.145 118.09 53.965 118.63 53.725 118.795C53.485 118.975 53.14 119.065 52.66 119.065ZM40.84 112.84H46.795V111.94C45.445 112 43.99 112.03 42.46 112.03L42.055 110.785C46.03 110.785 49.375 110.575 52.105 110.155L52.795 111.34C51.475 111.565 49.945 111.745 48.205 111.865V112.84H54.145V114.16H48.205V118C49.765 119.665 51.805 120.97 54.355 121.915L53.56 123.295C51.49 122.395 49.705 121.195 48.205 119.68V124.06H46.795V119.755C45.295 121.195 43.54 122.395 41.5 123.355L40.615 122.02C43.3 120.91 45.355 119.59 46.795 118.045V114.16H40.84V112.84ZM44.14 114.61H45.55V119.05H44.14V118.495C43.3 118.69 42.355 118.885 41.32 119.065L40.93 117.79C42.1 117.655 43.165 117.505 44.14 117.355V116.515H41.32V115.27H44.14V114.61ZM65.005 113.74C64.945 113.98 64.885 114.205 64.825 114.415C65.155 115.975 65.59 117.34 66.115 118.51C66.61 117.13 66.88 115.54 66.94 113.74H65.005ZM65.47 119.965C64.96 118.93 64.51 117.76 64.135 116.455C63.895 116.995 63.655 117.505 63.385 117.955L62.485 116.845C63.325 115.195 63.895 112.975 64.195 110.185L65.59 110.425C65.5 111.115 65.41 111.76 65.29 112.375H69.1V113.74H68.23C68.14 116.185 67.69 118.27 66.88 119.995C67.63 121.24 68.5 122.215 69.52 122.905L68.725 124.06C67.75 123.355 66.91 122.425 66.19 121.27C65.485 122.365 64.6 123.295 63.55 124.045L62.815 122.86C63.925 122.11 64.81 121.15 65.47 119.965ZM58.36 117.16L59.695 117.325C59.605 117.565 59.53 117.79 59.44 118.03H62.5V119.185C62.23 120.085 61.75 120.88 61.06 121.57C61.675 121.84 62.275 122.14 62.845 122.44L62.08 123.55C61.495 123.19 60.79 122.83 59.965 122.455C58.975 123.1 57.73 123.61 56.245 124L55.585 122.83C56.71 122.56 57.685 122.23 58.495 121.81C57.88 121.555 57.22 121.3 56.53 121.03C56.89 120.4 57.22 119.815 57.505 119.245H55.93V118.03H58.045C58.165 117.73 58.27 117.43 58.36 117.16ZM59.755 121.03C60.415 120.505 60.895 119.905 61.225 119.245H58.9C58.69 119.665 58.465 120.07 58.225 120.46C58.75 120.64 59.26 120.82 59.755 121.03ZM57.325 110.425C57.655 110.995 57.94 111.595 58.195 112.255L57.175 112.72C56.875 112 56.545 111.355 56.2 110.8L57.325 110.425ZM61.63 110.41L62.635 110.89C62.335 111.52 61.96 112.15 61.495 112.765L60.505 112.255C60.985 111.625 61.36 111.01 61.63 110.41ZM55.96 112.975H58.795V110.215H60.1V112.975H62.71V114.22H60.1V114.295C60.895 114.625 61.705 115.015 62.53 115.45L61.78 116.575C61.12 116.05 60.565 115.63 60.1 115.33V117.01H58.795V114.475C58.3 115.555 57.475 116.5 56.32 117.31L55.615 116.155C56.665 115.555 57.4 114.91 57.85 114.22H55.96V112.975Z" fill="#A6A6A6"/>
<rect x="10.5" y="134" width="409" height="49" rx="9.5" fill="white"/>
<rect x="10.5" y="134" width="439" height="49" rx="9.5" fill="white"/>
<path d="M37.9145 153.08C38.9345 153.08 39.7895 153.365 40.4495 153.965C41.0945 154.565 41.4245 155.33 41.4245 156.275C41.4245 157.205 41.0645 158.045 40.3745 158.81C39.9545 159.245 39.2195 159.815 38.1545 160.535C36.9995 161.3 36.3095 161.975 36.0845 162.56H41.4395V164H34.0595C34.0595 162.935 34.4045 162.005 35.1245 161.195C35.5145 160.73 36.3245 160.085 37.5395 159.245C38.2595 158.735 38.7695 158.33 39.0695 158.015C39.5495 157.475 39.8045 156.89 39.8045 156.26C39.8045 155.66 39.6395 155.21 39.3095 154.91C38.9795 154.61 38.4845 154.46 37.8545 154.46C37.1795 154.46 36.6695 154.685 36.3245 155.15C35.9645 155.6 35.7845 156.245 35.7545 157.115H34.1195C34.1345 155.915 34.4795 154.955 35.1545 154.235C35.8445 153.455 36.7745 153.08 37.9145 153.08Z" fill="#484848"/>
<path d="M417.207 153.29H419.202L421.812 157.16L424.422 153.29H426.417L422.787 158.465L426.672 164H424.677L421.812 159.755L418.947 164H416.952L420.807 158.465L417.207 153.29Z" fill="#A6A6A6"/>
<rect x="10.5" y="134" width="439" height="49" rx="9.5" stroke="#ECECEC"/>
<rect x="10.5" y="134" width="409" height="49" rx="9.5" stroke="#ECECEC"/>
</svg>
