<svg width="460" height="290" viewBox="0 0 460 290" fill="none" xmlns="http://www.w3.org/2000/svg">
<rect width="460" height="290" rx="10" fill="#F4F7FD"/>
<path d="M14.62 114.535C15.76 114.535 16.585 114.97 17.065 115.84C17.41 115.36 17.785 115.015 18.175 114.82C18.535 114.625 18.97 114.535 19.495 114.535C20.29 114.535 20.95 114.79 21.475 115.33C21.985 115.855 22.255 116.545 22.255 117.415V122.5H20.665V117.685C20.665 117.055 20.53 116.59 20.26 116.305C19.99 116.005 19.54 115.87 18.94 115.87C18.49 115.87 18.13 116.035 17.83 116.365C17.53 116.695 17.38 117.16 17.38 117.73V122.5H15.79V117.7C15.79 116.47 15.25 115.87 14.2 115.87C13.69 115.87 13.27 116.065 12.97 116.455C12.64 116.83 12.49 117.295 12.49 117.835V122.5H10.9V114.745H12.49V115.6C13.12 114.88 13.84 114.535 14.62 114.535ZM24.0543 114.745H25.6443V119.47C25.6443 120.13 25.7793 120.61 26.0643 120.91C26.3343 121.21 26.7843 121.375 27.3993 121.375C27.8193 121.375 28.1943 121.195 28.5543 120.865C28.9143 120.52 29.1693 120.055 29.3043 119.485V114.745H30.8943V122.5H29.3043V121.45C28.6443 122.29 27.8343 122.71 26.8593 122.71C24.9843 122.71 24.0543 121.66 24.0543 119.575V114.745ZM35.5615 123.475C35.7715 123.475 35.9665 123.55 36.1165 123.7C36.2665 123.85 36.3565 124.045 36.3565 124.27C36.3565 124.48 36.2665 124.675 36.1165 124.825C35.9665 124.975 35.7715 125.05 35.5615 125.05C35.3365 125.05 35.1565 124.975 35.0065 124.825C34.8415 124.675 34.7665 124.48 34.7665 124.27C34.7665 124.045 34.8415 123.85 35.0065 123.7C35.1565 123.55 35.3365 123.475 35.5615 123.475ZM36.1615 114.535C37.1515 114.535 37.9465 114.76 38.5465 115.21C39.1465 115.69 39.5365 116.41 39.6865 117.37H38.1115C38.0065 116.845 37.7965 116.455 37.4665 116.215C37.1365 115.96 36.7015 115.84 36.1615 115.84C35.5015 115.84 34.9915 116.08 34.6165 116.575C34.2265 117.055 34.0465 117.745 34.0465 118.615C34.0465 119.485 34.2265 120.175 34.6015 120.67C34.9465 121.15 35.4565 121.405 36.1465 121.405C37.3315 121.405 37.9915 120.805 38.1415 119.635H39.7165C39.5365 120.67 39.1315 121.45 38.5315 121.96C37.9315 122.455 37.1215 122.71 36.1315 122.71C34.9465 122.71 34.0315 122.32 33.3715 121.54C32.7265 120.79 32.4115 119.83 32.4115 118.63C32.4115 117.46 32.7265 116.5 33.3565 115.75C34.0315 114.94 34.9615 114.535 36.1615 114.535ZM48.4259 112.24V114.745H50.1959V116.065H48.4259V120.565C48.4259 120.775 48.4709 120.925 48.5609 121.03C48.6509 121.12 48.7859 121.18 48.9809 121.18H50.0009V122.5H48.7259C48.0659 122.5 47.5709 122.32 47.2709 121.975C46.9709 121.645 46.8359 121.18 46.8359 120.565V116.065H45.3959V114.745H46.8359V112.9L48.4259 112.24ZM52.6012 111.64C52.9162 111.64 53.1862 111.73 53.3962 111.94C53.6062 112.135 53.7112 112.39 53.7112 112.705C53.7112 113.02 53.5912 113.275 53.3812 113.485C53.1712 113.68 52.9012 113.785 52.6012 113.785C52.2862 113.785 52.0312 113.68 51.8212 113.485C51.6112 113.275 51.5062 113.005 51.5062 112.705C51.5062 112.39 51.6112 112.135 51.8212 111.94C52.0312 111.73 52.2862 111.64 52.6012 111.64ZM51.8062 114.745H53.3962V122.5H51.8062V114.745ZM58.1884 111.76H59.5834L61.1284 113.665H60.1234L58.8934 112.45L57.6334 113.665H56.6284L58.1884 111.76ZM58.8334 114.535C60.0934 114.535 61.0684 114.955 61.7284 115.825C62.3284 116.605 62.6434 117.685 62.6584 119.065H56.7784C56.8384 119.815 57.0334 120.4 57.3934 120.805C57.7534 121.195 58.2484 121.405 58.8784 121.405C59.4334 121.405 59.8834 121.27 60.2284 121.015C60.4984 120.805 60.7234 120.46 60.9334 120.01H62.5234C62.3434 120.73 61.9984 121.345 61.4584 121.825C60.7834 122.41 59.9284 122.71 58.8934 122.71C57.7534 122.71 56.8384 122.35 56.1784 121.645C55.4584 120.895 55.0984 119.89 55.0984 118.615C55.0984 117.46 55.4284 116.5 56.1184 115.72C56.7784 114.925 57.6934 114.535 58.8334 114.535ZM58.8784 115.84C58.2784 115.84 57.8134 116.005 57.4534 116.365C57.1234 116.71 56.8984 117.205 56.8084 117.865H60.9934C60.8434 116.515 60.1384 115.84 58.8784 115.84ZM64.0152 114.745H65.6052V119.47C65.6052 120.13 65.7402 120.61 66.0252 120.91C66.2952 121.21 66.7452 121.375 67.3602 121.375C67.7802 121.375 68.1552 121.195 68.5152 120.865C68.8752 120.52 69.1302 120.055 69.2652 119.485V114.745H70.8552V122.5H69.2652V121.45C68.6052 122.29 67.7952 122.71 66.8202 122.71C64.9452 122.71 64.0152 121.66 64.0152 119.575V114.745ZM81.5976 114.535C83.5176 114.535 84.4926 115.585 84.4926 117.715V122.5H82.9026V117.85C82.9026 116.53 82.2876 115.87 81.0876 115.87C80.6376 115.87 80.2326 116.02 79.9026 116.35C79.5426 116.71 79.3176 117.205 79.2576 117.835V122.5H77.6676V114.745H79.2576V115.705C79.5576 115.315 79.9026 115.03 80.2926 114.835C80.6826 114.625 81.1176 114.535 81.5976 114.535ZM86.3102 111.58H87.9002V115.84C88.1852 115.39 88.5452 115.045 88.9802 114.835C89.3702 114.625 89.8052 114.535 90.3002 114.535C91.2302 114.535 91.9352 114.805 92.4152 115.36C92.8652 115.885 93.0902 116.665 93.0902 117.685V122.5H91.5002V117.955C91.5002 117.265 91.3502 116.755 91.0802 116.395C90.7802 116.02 90.3152 115.84 89.7152 115.84C89.1752 115.84 88.7402 116.05 88.4102 116.485C88.0652 116.92 87.9002 117.475 87.9002 118.15V122.5H86.3102V111.58ZM97.6091 111.76H99.0041L100.564 113.665H99.5591L98.2991 112.45L97.0691 113.665H95.9741L97.6091 111.76ZM98.3891 114.535C99.5291 114.535 100.369 114.82 100.909 115.39C101.374 115.885 101.614 116.605 101.614 117.55V122.5H100.144V121.405C99.8441 121.795 99.4541 122.11 99.0041 122.35C98.4941 122.59 97.8941 122.71 97.2191 122.71C96.4091 122.71 95.7791 122.5 95.3291 122.095C94.8341 121.69 94.5941 121.165 94.5941 120.52C94.5941 119.65 94.9391 118.975 95.6291 118.51C96.2591 118.06 97.1591 117.835 98.2991 117.805L100.039 117.76V117.445C100.039 116.365 99.4541 115.825 98.2841 115.825C97.7891 115.825 97.3841 115.915 97.0841 116.095C96.7241 116.305 96.4991 116.62 96.4091 117.055L94.8341 116.92C94.9991 116.08 95.4191 115.45 96.0791 115.06C96.6491 114.7 97.4291 114.535 98.3891 114.535ZM100.039 118.915L98.4041 118.96C96.9491 118.99 96.2291 119.5 96.2291 120.46C96.2291 120.76 96.3491 121 96.6041 121.195C96.8441 121.39 97.1741 121.495 97.5791 121.495C98.2541 121.495 98.8241 121.285 99.3041 120.88C99.7841 120.475 100.039 119.965 100.039 119.365V118.915ZM107.364 114.535C109.284 114.535 110.259 115.585 110.259 117.715V122.5H108.669V117.85C108.669 116.53 108.054 115.87 106.854 115.87C106.404 115.87 105.999 116.02 105.669 116.35C105.309 116.71 105.084 117.205 105.024 117.835V122.5H103.434V114.745H105.024V115.705C105.324 115.315 105.669 115.03 106.059 114.835C106.449 114.625 106.884 114.535 107.364 114.535Z" fill="#A6A6A6"/>
<rect x="10.5" y="134" width="409" height="49" rx="9.5" fill="white"/>
<rect x="10.5" y="134" width="439" height="49" rx="9.5" fill="white"/>
<path d="M37.9145 153.08C38.9345 153.08 39.7895 153.365 40.4495 153.965C41.0945 154.565 41.4245 155.33 41.4245 156.275C41.4245 157.205 41.0645 158.045 40.3745 158.81C39.9545 159.245 39.2195 159.815 38.1545 160.535C36.9995 161.3 36.3095 161.975 36.0845 162.56H41.4395V164H34.0595C34.0595 162.935 34.4045 162.005 35.1245 161.195C35.5145 160.73 36.3245 160.085 37.5395 159.245C38.2595 158.735 38.7695 158.33 39.0695 158.015C39.5495 157.475 39.8045 156.89 39.8045 156.26C39.8045 155.66 39.6395 155.21 39.3095 154.91C38.9795 154.61 38.4845 154.46 37.8545 154.46C37.1795 154.46 36.6695 154.685 36.3245 155.15C35.9645 155.6 35.7845 156.245 35.7545 157.115H34.1195C34.1345 155.915 34.4795 154.955 35.1545 154.235C35.8445 153.455 36.7745 153.08 37.9145 153.08Z" fill="#484848"/>
<path d="M417.207 153.29H419.202L421.812 157.16L424.422 153.29H426.417L422.787 158.465L426.672 164H424.677L421.812 159.755L418.947 164H416.952L420.807 158.465L417.207 153.29Z" fill="#A6A6A6"/>
<rect x="10.5" y="134" width="439" height="49" rx="9.5" stroke="#ECECEC"/>
<rect x="10.5" y="134" width="409" height="49" rx="9.5" stroke="#ECECEC"/>
</svg>
