<svg width="14" height="14" viewBox="0 0 14 14" fill="none" xmlns="http://www.w3.org/2000/svg">
<path d="M7 14C5.14413 13.9979 3.36503 13.2597 2.05273 11.9474C0.740438 10.6351 0.00211736 8.85587 0 7C0.00211736 5.14413 0.740438 3.36489 2.05273 2.05259C3.36503 0.740295 5.14413 0.00211736 7 0C8.85587 0.00211736 10.635 0.740295 11.9473 2.05259C13.2596 3.36489 13.9979 5.14413 14 7C13.9979 8.85587 13.2596 10.6351 11.9473 11.9474C10.635 13.2597 8.85587 13.9979 7 14ZM6.2207 10.112V11.667H7.77734V10.111L6.2207 10.112ZM6.2207 2.334V8.555H7.77734V2.333L6.2207 2.334Z" fill="#F04E23"/>
</svg>
