<svg xmlns="http://www.w3.org/2000/svg" width="54" height="54" viewBox="0 0 54 54">
  <g id="语音" transform="translate(-633 -455)">
    <path id="交叉_3" data-name="交叉 3" d="M-18641.629-5956.935A18,18,0,0,1-18626-5966a17.979,17.979,0,0,1,14.83,7.8,20.947,20.947,0,0,1-15.83,7.2A20.931,20.931,0,0,1-18641.629-5956.935Z" transform="translate(19287 6454)" fill="#f04e23" opacity="0.32"/>
    <g id="组_80" data-name="组 80" transform="translate(633 455)">
      <path id="路径_27" data-name="路径 27" d="M51.885,16.492a27.018,27.018,0,0,0-49.76,0A26.987,26.987,0,0,0,27,54,27.028,27.028,0,0,0,51.885,16.492ZM48.969,36.28A23.919,23.919,0,1,1,50.841,27,23.816,23.816,0,0,1,48.969,36.28Z" fill="#656565"/>
      <path id="路径_28" data-name="路径 28" d="M235.548,264.652A1.591,1.591,0,0,0,234,266.274v7.138a1.55,1.55,0,1,0,3.1,0v-7.138A1.591,1.591,0,0,0,235.548,264.652Zm6.4-3.461a1.591,1.591,0,0,0-1.548,1.622v14.059a1.55,1.55,0,1,0,3.1,0V262.813A1.591,1.591,0,0,0,241.949,261.191Zm6.4-5.191a1.591,1.591,0,0,0-1.548,1.622v24.442a1.55,1.55,0,1,0,3.1,0V257.622A1.591,1.591,0,0,0,248.349,256Zm12.8,8.652a1.591,1.591,0,0,0-1.548,1.622v7.138a1.55,1.55,0,1,0,3.1,0v-7.138A1.591,1.591,0,0,0,261.15,264.652Zm-6.4-3.461a1.591,1.591,0,0,0-1.548,1.622v14.059a1.55,1.55,0,1,0,3.1,0V262.813A1.591,1.591,0,0,0,254.75,261.191Z" transform="translate(-221.347 -242.84)" fill="#656565"/>
    </g>
  </g>
</svg>
