<svg xmlns="http://www.w3.org/2000/svg" xmlns:xlink="http://www.w3.org/1999/xlink" width="60" height="60" viewBox="0 0 60 60">
  <defs>
    <clipPath id="clip-path">
      <rect id="矩形_9289" data-name="矩形 9289" width="60" height="60" transform="translate(879 294)" fill="#fff" stroke="#707070" stroke-width="1"/>
    </clipPath>
  </defs>
  <g id="手机" transform="translate(-879 -294)" clip-path="url(#clip-path)">
    <g id="组_10" data-name="组 10" transform="translate(-31 -64)">
      <g id="组_9" data-name="组 9" transform="translate(668.979 314.9)">
        <path id="路径_13" data-name="路径 13" d="M282.593,107.439H259.424A5.431,5.431,0,0,1,254,102.016V54.224a5.431,5.431,0,0,1,5.424-5.424h23.169a5.431,5.431,0,0,1,5.424,5.424v47.792A5.427,5.427,0,0,1,282.593,107.439ZM259.424,51.3a2.919,2.919,0,0,0-2.914,2.914v47.792a2.919,2.919,0,0,0,2.914,2.914h23.169a2.919,2.919,0,0,0,2.914-2.914V54.218a2.919,2.919,0,0,0-2.914-2.914Z" transform="translate(0 -5.34)" fill="#656565"/>
        <path id="路径_14" data-name="路径 14" d="M384.733,266.141h-14.8a2.439,2.439,0,0,1-2.434-2.434V237.934a2.439,2.439,0,0,1,2.434-2.434h14.8a2.439,2.439,0,0,1,2.434,2.434v25.773A2.443,2.443,0,0,1,384.733,266.141Z" transform="translate(-106.325 -180.237)" fill="#f04e23" opacity="0.679"/>
        <path id="路径_15" data-name="路径 15" d="M294.6,51.5H261V48.84a5.744,5.744,0,0,1,5.74-5.74h22.119a5.744,5.744,0,0,1,5.74,5.74Zm-31.09-2.51h28.58V48.84a3.232,3.232,0,0,0-3.23-3.23H266.734a3.232,3.232,0,0,0-3.23,3.23v.152Z" transform="translate(-6.558)" fill="#656565"/>
        <path id="路径_16" data-name="路径 16" d="M487.4,838.976a2.251,2.251,0,1,0,2.251-2.276,2.263,2.263,0,0,0-2.251,2.276Z" transform="translate(-218.645 -743.432)" fill="#656565"/>
        <path id="路径_17" data-name="路径 17" d="M276.2,760.6h30.761v2.51H276.2Z" transform="translate(-20.797 -672.142)" fill="#656565"/>
      </g>
    </g>
  </g>
</svg>
