<svg data-name="组 3601" xmlns="http://www.w3.org/2000/svg" width="140" height="150.001" viewBox="0 0 140 150.001">
    <path data-name="联合 27" d="M4.828 150C2.163 150 0 148.209 0 146V4c0-2.21 2.163-4 4.828-4h130.346C137.84 0 140 1.792 140 4v142c0 2.208-2.16 4-4.828 4zM2.415 4v142a2.236 2.236 0 0 0 2.412 2h130.345a2.236 2.236 0 0 0 2.412-2V20.678L117.463 2H4.828a2.238 2.238 0 0 0-2.413 2z" style="fill:#f04e23"/>
    <path data-name="Path 5193" d="m4157.112 243-4.289-3.914.911-1 3.3 3.008 5.5-5.966.993.916z" transform="translate(-4026.099 -231.415)" style="fill:#fff"/>
</svg>
