<svg width="70" height="59" viewBox="0 0 70 59" fill="none" xmlns="http://www.w3.org/2000/svg">
<path d="M26 2.5H2V53H23L34.5 56.5V14.5L31.5 6L26 2.5Z" fill="#FB6943"/>
<path opacity="0.5" d="M44.3692 3L68 3V52.5648H47.3231L36 56V14.7778L38.9538 6.43519L44.3692 3Z" fill="#FB6943" fill-opacity="0.56"/>
<path d="M68.0442 0H47.5744C43.6943 0 40.0482 1.42337 37.301 4.00738C36.3685 4.88987 35.6374 5.897 34.9962 6.94883C34.3579 5.89691 33.6315 4.88987 32.6904 4.00738C29.9455 1.42337 26.2975 0 22.421 0H1.9556C0.875024 0 0 0.821695 0 1.84011V52.7994C0 53.8219 0.875108 54.6482 1.9556 54.6482H20.3728C21.1416 54.6482 21.9228 54.709 22.7054 54.8467C23.474 54.986 24.229 55.1912 24.9618 55.4599L34.2864 58.8755C34.3069 58.8888 34.3286 58.8802 34.342 58.8888C34.5564 58.9582 34.7757 59 34.9962 59C35.2243 59 35.4391 58.9582 35.6508 58.8888C35.6636 58.8802 35.6869 58.8802 35.701 58.8755L44.6642 55.5958C45.5178 55.285 46.4009 55.0432 47.3033 54.8855C48.1905 54.7264 49.1157 54.6483 50.0354 54.6483H68.0439C69.1265 54.6483 70 53.8223 70 52.7995V1.84011C70 0.821695 69.1266 0 68.0442 0ZM23.4163 51.228C22.413 51.0515 21.3879 50.9648 20.3727 50.9648H3.9055V3.67764H22.4209C25.2539 3.67764 27.9269 4.72491 29.9321 6.61868C31.9392 8.50688 33.0475 11.0255 33.0475 13.7034V54.47L26.3692 52.0249C25.3941 51.6708 24.4002 51.403 23.4163 51.2279V51.228ZM66.0939 50.9648H50.0354C48.8668 50.9648 47.7004 51.0631 46.5848 51.26C45.4534 51.4682 44.3229 51.7707 43.2495 52.1656L36.9521 54.4701V13.7035C36.9521 11.0256 38.0563 8.50697 40.0616 6.61876C42.0679 4.725 44.7414 3.67772 47.5744 3.67772H66.0938V50.9648H66.0939Z" fill="#F04E23"/>
</svg>
