<svg xmlns="http://www.w3.org/2000/svg" width="18" height="15" viewBox="0 0 18 15">
  <g id="组_6574" data-name="组 6574" transform="translate(-1640 -30)">
    <g id="路径_12882" data-name="路径 12882" transform="translate(1640 30)" fill="none">
      <path d="M2,0H16a2.005,2.005,0,0,1,2,2.01v8.042a2.005,2.005,0,0,1-2,2.01H11.9L5.157,15V12.063H2a2.005,2.005,0,0,1-2-2.01V2.01A2.005,2.005,0,0,1,2,0Z" stroke="none"/>
      <path d="M 2 0.9999990463256836 C 1.448600769042969 0.9999990463256836 1 1.453289985656738 1 2.010469436645508 L 1 10.05235958099365 C 1 10.60953903198242 1.448600769042969 11.06282997131348 2 11.06282997131348 L 6.156979560852051 11.06282997131348 L 6.156979560852051 13.47355270385742 L 11.69038009643555 11.06282997131348 L 16 11.06282997131348 C 16.55139923095703 11.06282997131348 17 10.60953903198242 17 10.05235958099365 L 17 2.010469436645508 C 17 1.453289985656738 16.55139923095703 0.9999990463256836 16 0.9999990463256836 L 2 0.9999990463256836 M 2 -9.5367431640625e-07 L 16 -9.5367431640625e-07 C 17.10457038879395 -9.5367431640625e-07 18 0.9001197814941406 18 2.010469436645508 L 18 10.05235958099365 C 18 11.16270923614502 17.10457038879395 12.06282997131348 16 12.06282997131348 L 11.89875984191895 12.06282997131348 L 5.156979560852051 15 L 5.156979560852051 12.06282997131348 L 2 12.06282997131348 C 0.8954296112060547 12.06282997131348 0 11.16270923614502 0 10.05235958099365 L 0 2.010469436645508 C 0 0.9001197814941406 0.8954296112060547 -9.5367431640625e-07 2 -9.5367431640625e-07 Z" stroke="none" fill="#707070"/>
    </g>
    <g id="矩形_7257" data-name="矩形 7257" transform="translate(1644 34)" fill="#707070" stroke="#707070" stroke-width="1">
      <rect width="10" height="1" stroke="none"/>
      <rect x="0.5" y="0.5" width="9" fill="none"/>
    </g>
    <g id="矩形_7258" data-name="矩形 7258" transform="translate(1644 37)" fill="#707070" stroke="#707070" stroke-width="1">
      <rect width="10" height="1" stroke="none"/>
      <rect x="0.5" y="0.5" width="9" fill="none"/>
    </g>
  </g>
</svg>
