<svg xmlns="http://www.w3.org/2000/svg" width="18" height="18" viewBox="0 0 18 18">
  <g id="组_81" data-name="组 81" transform="translate(-1634 -232)">
    <path id="排除_3" data-name="排除 3" d="M1353,113a9,9,0,1,1,9-9A9.01,9.01,0,0,1,1353,113Zm-4.231-9.4a.836.836,0,0,0-.591,1.427l2.945,2.946.013.012.016.016a.8.8,0,0,0,1.125,0l.024-.023c.013-.013.022-.022.031-.032l5.52-5.519a.8.8,0,1,0-1.125-1.125l-4.955,4.955-2.41-2.41A.831.831,0,0,0,1348.769,103.6Z" transform="translate(290 137)" fill="#15bf7b"/>
  </g>
</svg>
