<svg xmlns="http://www.w3.org/2000/svg" width="14" height="13" viewBox="0 0 14 13">
  <g id="组_6555" data-name="组 6555" transform="translate(-10514 -4533)">
    <g id="组_4114" data-name="组 4114">
      <rect id="矩形_1929" data-name="矩形 1929" width="14" height="10" rx="1" transform="translate(10514 4536)" fill="#fff"/>
      <g id="组_4113" data-name="组 4113" transform="translate(0 -0.5)">
        <path id="矩形_1930" data-name="矩形 1930" d="M1.5,0H5A0,0,0,0,1,5,0V3A0,0,0,0,1,5,3H1.5A1.5,1.5,0,0,1,0,1.5v0A1.5,1.5,0,0,1,1.5,0Z" transform="translate(10523 4540)" fill="#e95731"/>
        <circle id="椭圆_30" data-name="椭圆 30" cx="0.5" cy="0.5" r="0.5" transform="translate(10524 4541)" fill="#fff"/>
      </g>
    </g>
    <path id="路径_5184" data-name="路径 5184" d="M5.121.468C5.967.5,6.959,3,6.959,3S.014,3.038,0,3,4.275.441,5.121.468Z" transform="translate(10519 4532.532)" fill="#fff"/>
  </g>
</svg>
