<svg xmlns="http://www.w3.org/2000/svg" width="440" height="100" viewBox="0 0 440 100">
    <g data-name="组 7585">
        <g data-name="减去 29" style="fill:#fff">
            <path d="M436.268 99.5H3.73c-.889 0-1.72-.252-2.34-.708-.575-.423-.891-.97-.891-1.539V63.59a19.618 19.618 0 0 0 3.625-6.034A21.145 21.145 0 0 0 5.499 50c0-2.62-.463-5.162-1.374-7.556A19.622 19.622 0 0 0 .5 36.41V2.747c0-.57.316-1.116.89-1.539C2.01.752 2.843.5 3.732.5h432.537c.89 0 1.72.252 2.341.708.575.423.891.97.891 1.539V35.36c-3.816 3.695-6.001 9.018-6.001 14.64s2.185 10.945 6.001 14.64v32.613c0 .57-.316 1.116-.89 1.539-.621.456-1.453.708-2.342.708z" style="stroke:none"/>
            <path d="M436.268 99c.772 0 1.518-.223 2.045-.61.257-.19.687-.588.687-1.137V64.85C435.181 61.068 433 55.682 433 50S435.18 38.932 439 35.15V2.747c0-.549-.43-.947-.687-1.136-.527-.388-1.273-.611-2.045-.611H3.73c-.772 0-1.517.223-2.044.61C1.43 1.8 1 2.199 1 2.748v33.475a20.14 20.14 0 0 1 3.592 6.044A21.645 21.645 0 0 1 5.999 50c0 2.681-.474 5.284-1.407 7.734A20.139 20.139 0 0 1 1 63.778v33.475c0 .549.43.947.687 1.136.527.388 1.272.61 2.044.61h432.537m0 1H3.73C1.674 100 0 98.769 0 97.254V63.4a19.1 19.1 0 0 0 3.657-6.022A20.647 20.647 0 0 0 5 50c0-2.559-.452-5.041-1.342-7.378A19.102 19.102 0 0 0 0 36.6V2.747C0 1.232 1.674 0 3.731 0h432.537C438.326 0 440 1.232 440 2.747v32.827C436.186 39.18 434 44.438 434 50c0 5.562 2.187 10.82 6.001 14.426v32.827c0 1.515-1.674 2.747-3.732 2.747z" style="fill:#eaecef;stroke:none"/>
        </g>
    </g>
</svg>
