<svg width="18" height="18" viewBox="0 0 18 18" fill="none" xmlns="http://www.w3.org/2000/svg">
<path d="M5.73732 9.95639L4.81482 13.5001C4.79008 13.5849 4.78564 13.6743 4.80185 13.7611C4.81807 13.8479 4.85449 13.9296 4.90816 13.9997C4.96183 14.0698 5.03125 14.1263 5.1108 14.1646C5.19035 14.2029 5.2778 14.2219 5.36607 14.2201H5.59107L8.76357 13.3539H8.86482L17.5723 4.35389C17.7118 4.20398 17.8181 4.02623 17.884 3.83233C17.9499 3.63844 17.9741 3.43278 17.9548 3.22889C17.9531 2.76847 17.7761 2.32598 17.4598 1.99139L16.6273 1.02389C16.3319 0.712757 15.9304 0.524025 15.5023 0.495143C15.1271 0.498135 14.7678 0.647485 14.5011 0.911393L5.80482 9.91139L5.73732 9.95639ZM16.6948 3.26264L15.8398 4.15139L14.4336 2.66639L15.2886 1.77764C15.3635 1.70806 15.4619 1.66938 15.5642 1.66938C15.6664 1.66938 15.7649 1.70806 15.8398 1.77764L16.6723 2.62139C16.755 2.71042 16.8029 2.82622 16.8073 2.94764C16.8066 3.03803 16.7748 3.12542 16.7173 3.19514L16.6948 3.26264ZM7.28982 10.1251L13.4998 3.60014L14.9061 5.08514L8.69607 11.5651L7.28982 10.1251ZM6.16482 12.7576L6.62607 11.0364L7.82982 12.3076L6.16482 12.7576ZM17.1111 6.91889C17.0412 6.91076 16.9705 6.91869 16.9042 6.94209C16.8379 6.96549 16.7778 7.00373 16.7286 7.05389C16.6581 7.11201 16.6028 7.18644 16.5675 7.27072C16.5322 7.35501 16.518 7.44663 16.5261 7.53764V15.9414C16.5234 16.1485 16.4414 16.3468 16.297 16.4954C16.1526 16.6439 15.9568 16.7315 15.7498 16.7401H2.24982C2.14785 16.737 2.04755 16.7135 1.95481 16.6709C1.86208 16.6284 1.77878 16.5678 1.70982 16.4926C1.56557 16.3454 1.48479 16.1475 1.48482 15.9414V2.14889C1.48333 2.04492 1.50244 1.94168 1.54106 1.84514C1.57968 1.7486 1.63704 1.66065 1.70982 1.58639C1.77934 1.51276 1.86299 1.45389 1.95577 1.4133C2.04855 1.37271 2.14855 1.35123 2.24982 1.35014H11.1373C11.2945 1.33859 11.441 1.26643 11.546 1.14888C11.6509 1.03133 11.7061 0.877602 11.6998 0.720143C11.7 0.558006 11.6399 0.401597 11.5311 0.281393C11.4613 0.21477 11.3779 0.164154 11.2865 0.133067C11.1952 0.101981 11.0982 0.0911719 11.0023 0.101393H2.12607C1.87154 0.100276 1.6193 0.149385 1.38378 0.245909C1.14826 0.342432 0.934103 0.484472 0.753568 0.663893C0.393617 1.03468 0.191911 1.53088 0.191068 2.04764V15.9414C0.184483 16.1947 0.228893 16.4467 0.32166 16.6825C0.414427 16.9183 0.553655 17.133 0.731068 17.3139C0.903928 17.4988 1.11298 17.6461 1.34523 17.7468C1.57748 17.8474 1.82795 17.8992 2.08107 17.8989H15.7498C16.0005 17.896 16.248 17.8435 16.4783 17.7445C16.7086 17.6456 16.9171 17.502 17.0917 17.3222C17.2663 17.1423 17.4036 16.9298 17.4958 16.6967C17.5879 16.4635 17.633 16.2145 17.6286 15.9639V7.51514C17.6316 7.43439 17.6183 7.35386 17.5893 7.27844C17.5602 7.20301 17.5162 7.13427 17.4598 7.07639C17.4021 7.01901 17.3337 6.97358 17.2584 6.94269C17.1831 6.9118 17.1024 6.89607 17.0211 6.89639L17.1111 6.91889Z" fill="white"/>
</svg>
