<svg xmlns="http://www.w3.org/2000/svg" xmlns:xlink="http://www.w3.org/1999/xlink" width="98.352" height="80" viewBox="0 0 98.352 80">
  <defs>
    <linearGradient id="linear-gradient" x1="0.5" x2="0.5" y2="1" gradientUnits="objectBoundingBox">
      <stop offset="0" stop-color="#f5f5f5"/>
      <stop offset="1" stop-color="#e6e8ea"/>
    </linearGradient>
    <linearGradient id="linear-gradient-2" x1="0.5" x2="0.5" y2="1" gradientUnits="objectBoundingBox">
      <stop offset="0" stop-color="#e6e8ea"/>
      <stop offset="1" stop-color="#e6e8ea"/>
    </linearGradient>
    <linearGradient id="linear-gradient-3" x1="0.5" x2="0.5" y2="1" gradientUnits="objectBoundingBox">
      <stop offset="0" stop-color="#7e8795"/>
      <stop offset="1" stop-color="#8d95a1"/>
    </linearGradient>
  </defs>
  <g id="组_184" data-name="组 184" transform="translate(-6756.648 4723)">
    <rect id="矩形_342" data-name="矩形 342" width="8" height="4" transform="translate(6771 -4666)" fill="#e6e8ea"/>
    <rect id="矩形_343" data-name="矩形 343" width="8" height="4" transform="translate(6771 -4654)" fill="#e6e8ea"/>
    <rect id="矩形_332" data-name="矩形 332" width="60" height="80" transform="translate(6779 -4723)" fill="url(#linear-gradient)"/>
    <rect id="矩形_333" data-name="矩形 333" width="8" height="65" transform="translate(6831 -4708)" fill="url(#linear-gradient-2)"/>
    <circle id="椭圆_40" data-name="椭圆 40" cx="18" cy="18" r="18" transform="translate(6788 -4714)" fill="#fff"/>
    <circle id="椭圆_41" data-name="椭圆 41" cx="5" cy="5" r="5" transform="translate(6801 -4706)" fill="#e6e8ea"/>
    <path id="矩形_334" data-name="矩形 334" d="M5,0H15a5,5,0,0,1,5,5V8a0,0,0,0,1,0,0H0A0,0,0,0,1,0,8V5A5,5,0,0,1,5,0Z" transform="translate(6796 -4694)" fill="#e6e8ea"/>
    <rect id="矩形_335" data-name="矩形 335" width="8" height="4" transform="translate(6771 -4714)" fill="#e6e8ea"/>
    <rect id="矩形_336" data-name="矩形 336" width="8" height="4" transform="translate(6771 -4702)" fill="#e6e8ea"/>
    <rect id="矩形_337" data-name="矩形 337" width="8" height="4" transform="translate(6771 -4690)" fill="#e6e8ea"/>
    <rect id="矩形_338" data-name="矩形 338" width="8" height="4" transform="translate(6771 -4678)" fill="#e6e8ea"/>
    <path id="多边形_23" data-name="多边形 23" d="M3,0,6,3,3,6,0,3Z" transform="translate(6783 -4720)" fill="#e6e8ea"/>
    <path id="多边形_24" data-name="多边形 24" d="M3,0,6,3,3,6,0,3Z" transform="translate(6818 -4667)" fill="#fff"/>
    <rect id="矩形_341" data-name="矩形 341" width="6.724" height="21" transform="translate(6771.498 -4671.604) rotate(45)" fill="url(#linear-gradient-3)"/>
    <path id="多边形_25" data-name="多边形 25" d="M3,0,6,3,3,6,0,3Z" transform="translate(6849 -4689)" fill="#e6e8ea"/>
    <path id="减去_47" data-name="减去 47" d="M21,42A21,21,0,0,1,6.151,6.151a21,21,0,1,1,29.7,29.7A20.863,20.863,0,0,1,21,42ZM21,4A17,17,0,1,0,38,21,17.019,17.019,0,0,0,21,4Z" transform="translate(6766 -4702)" fill="#838d9a"/>
  </g>
</svg>
