<svg width="21" height="20" viewBox="0 0 21 20" fill="none" xmlns="http://www.w3.org/2000/svg">
<g clip-path="url(#clip0_1679_6250)">
<path d="M5.00049 12C5.00049 13.4587 5.57995 14.8576 6.6114 15.8891C7.64285 16.9205 9.0418 17.5 10.5005 17.5C11.9592 17.5 13.3581 16.9205 14.3896 15.8891C15.421 14.8576 16.0005 13.4587 16.0005 12C16.0005 10.5413 15.421 9.14236 14.3896 8.11091C13.3581 7.07946 11.9592 6.5 10.5005 6.5C9.0418 6.5 7.64285 7.07946 6.6114 8.11091C5.57995 9.14236 5.00049 10.5413 5.00049 12Z" fill="#F04E23"/>
<path d="M12.8981 11.0703H11.6185C11.6145 11.0869 11.6122 11.0869 11.6122 11.0869H12.9957C12.965 11.0786 12.9322 11.0703 12.8981 11.0703Z" fill="white"/>
<path d="M11.3675 11.0697C11.4371 10.893 12.2376 9.24258 11.1103 8.55638C11.1103 8.55638 10.3953 8.30951 10.3247 9.03091C10.2679 9.61203 10.2844 10.5186 9.28833 10.8821V15.3794L12.8653 15.3667C13.0386 15.3667 13.1797 15.2263 13.1797 15.053L13.4623 11.3833C13.4623 11.3483 13.4565 11.3148 13.446 11.2834C13.4145 11.1899 13.3404 11.1161 13.2465 11.0853" fill="white"/>
<path d="M9.03931 14.7589C9.03931 15.1054 8.75845 15.3862 8.412 15.3862H8.06456C7.71811 15.3862 7.43726 15.1054 7.43726 14.7589V11.3402C7.43726 10.9937 7.71811 10.7129 8.06456 10.7129H8.412C8.75845 10.7129 9.03931 10.9937 9.03931 11.3402V14.7589Z" fill="white"/>
<path d="M15.9585 6.15782L17.498 0H3.50294L5.0424 6.15782C3.86932 7.25324 3.053 8.67628 2.69958 10.2419C2.34617 11.8075 2.47202 13.4432 3.06077 14.9364C3.64952 16.4295 4.67392 17.7109 6.00076 18.614C7.32759 19.5171 8.89546 20 10.5005 20C12.1055 20 13.6733 19.5171 15.0002 18.614C16.327 17.7109 17.3514 16.4295 17.9402 14.9364C18.5289 13.4432 18.6548 11.8075 18.3014 10.2419C17.9479 8.67628 17.1316 7.25324 15.9585 6.15782ZM10.5005 17.9936C9.3142 17.9936 8.15457 17.6419 7.16823 16.9828C6.18188 16.3238 5.41312 15.387 4.95915 14.291C4.50519 13.1951 4.38641 11.9891 4.61784 10.8256C4.84927 9.66215 5.42051 8.59343 6.25933 7.75461C7.09815 6.9158 8.16687 6.34455 9.33034 6.11312C10.4938 5.8817 11.6998 6.00047 12.7958 6.45444C13.8917 6.9084 14.8285 7.67717 15.4875 8.66351C16.1466 9.64986 16.4983 10.8095 16.4983 11.9958C16.4983 12.7834 16.3432 13.5633 16.0418 14.291C15.7404 15.0187 15.2986 15.6799 14.7416 16.2369C14.1847 16.7938 13.5235 17.2356 12.7958 17.5371C12.0681 17.8385 11.2881 17.9936 10.5005 17.9936Z" fill="#F04E23"/>
</g>
<defs>
<clipPath id="clip0_1679_6250">
<rect width="20" height="20" fill="white" transform="translate(0.500488)"/>
</clipPath>
</defs>
</svg>
