<svg xmlns="http://www.w3.org/2000/svg" id="身份证" width="16.545" height="13" viewBox="0 0 16.545 13">
    <defs>
        <style>
            .cls-1{fill:#ff580e}
        </style>
    </defs>
    <path id="路径_4" d="M78.182 160H66.364A2.371 2.371 0 0 0 64 162.364v8.273A2.371 2.371 0 0 0 66.364 173h11.818a2.371 2.371 0 0 0 2.364-2.364v-8.273A2.371 2.371 0 0 0 78.182 160zm1.182 10.636a1.185 1.185 0 0 1-1.182 1.182H66.364a1.185 1.185 0 0 1-1.182-1.182v-8.273a1.185 1.185 0 0 1 1.182-1.182h11.818a1.185 1.185 0 0 1 1.182 1.182z" class="cls-1" transform="translate(-64 -160)"/>
    <path id="路径_5" d="M196.95 292.558a2.436 2.436 0 1 0-2.59 0 3.7 3.7 0 0 0-2.36 3.461.609.609 0 1 0 1.218 0 2.437 2.437 0 1 1 4.873 0 .609.609 0 1 0 1.218 0 3.7 3.7 0 0 0-2.359-3.461zm-1.3-3.324a1.234 1.234 0 1 1-1.218 1.234 1.226 1.226 0 0 1 1.223-1.234zm7.918 1.234h-3.045a.617.617 0 0 0 0 1.234h3.045a.617.617 0 0 0 0-1.234zm-1.827 2.468h-1.218a.617.617 0 0 0 0 1.234h1.218a.617.617 0 0 0 0-1.234z" class="cls-1" transform="translate(-189.818 -285.818)"/>
</svg>
