<svg xmlns="http://www.w3.org/2000/svg" id="护照" width="12.758" height="16.405" viewBox="0 0 12.758 16.405">
    <defs>
        <style>
            .cls-1{fill:#ff580e}
        </style>
    </defs>
    <path id="路径_19" d="M443.139 289.521l-.866-.35c1.174-2.9.093-6.566.082-6.6l.895-.268c.05.159 1.184 4.021-.111 7.218zm-2.524 0c-1.3-3.2-.159-7.06-.111-7.221l.895.268c-.011.038-1.087 3.714.082 6.6z" class="cls-1" transform="translate(-435.526 -279.534)"/>
    <path id="路径_20" d="M386.417 365.031a8.116 8.116 0 0 0-5.651 0l-.365-.859a8.943 8.943 0 0 1 6.369 0zm-2.722-2.274a8.968 8.968 0 0 1-3.257-.6l.365-.859-.184.43.182-.43a8.131 8.131 0 0 0 5.651 0l.35.866a8.253 8.253 0 0 1-3.102.593z" class="cls-1" transform="translate(-377.249 -356.785)"/>
    <path id="路径_22" d="M248.524 173.8H238.1v-16.4h10.424a2.337 2.337 0 0 1 2.334 2.334v11.734a2.335 2.335 0 0 1-2.334 2.332zm-9.489-.935h9.489a1.4 1.4 0 0 0 1.4-1.4v-11.731a1.4 1.4 0 0 0-1.4-1.4h-9.489z" class="cls-1" transform="translate(-238.1 -157.4)"/>
    <path id="路径_23" d="M361.5 688.6h7.213v.934H361.5z" class="cls-1" transform="translate(-358.767 -676.837)"/>
    <path id="路径_24" d="M345.561 262.623a4.061 4.061 0 1 1 4.061-4.061 4.067 4.067 0 0 1-4.061 4.061zm0-7.186a3.127 3.127 0 1 0 3.127 3.127 3.129 3.129 0 0 0-3.127-3.127z" class="cls-1" transform="translate(-339.21 -252.35)"/>
</svg>
