<svg xmlns="http://www.w3.org/2000/svg" width="40" height="40" viewBox="0 0 40 40">
    <g data-name="组 6952">
        <g data-name="组 6909">
            <path data-name="减去 33" d="M-1521.377 103.622a18.876 18.876 0 0 1-13.435-5.565 18.875 18.875 0 0 1-5.565-13.435 18.875 18.875 0 0 1 5.565-13.435 18.876 18.876 0 0 1 13.435-5.565 18.876 18.876 0 0 1 13.435 5.565 18.876 18.876 0 0 1 5.565 13.435 18.876 18.876 0 0 1-5.565 13.435 18.876 18.876 0 0 1-13.435 5.565zm.092-28.048-9.141 9.139 9.141 9.14 9.139-9.14-9.139-9.14z" transform="translate(1541.377 -64.622)" style="fill:#f04e23"/>
        </g>
        <path data-name="矩形 8289" style="fill:none" d="M0 0h40v40H0z"/>
    </g>
</svg>
