<svg width="52" height="60" viewBox="0 0 52 60" fill="none" xmlns="http://www.w3.org/2000/svg">
<path d="M0 0H52V43.7838L26 60L0 43.7838V0Z" fill="url(#paint0_linear_131_1921)"/>
<rect x="7.04102" y="9.72974" width="37.375" height="29.7297" fill="#E6E8EA"/>
<path d="M31.9577 10L7.04102 34.8649V10H31.9577Z" fill="url(#paint1_linear_131_1921)"/>
<path fill-rule="evenodd" clip-rule="evenodd" d="M26 59.9999L51.9998 43.7838V0H26V59.9999Z" fill="url(#paint2_linear_131_1921)"/>
<path d="M19.2298 10L44.1465 34.8649V10H19.2298Z" fill="url(#paint3_linear_131_1921)"/>
<path d="M44.416 39.4595L25.7285 20.5406L7.04102 39.4595H11.1035H40.3535H44.416Z" fill="url(#paint4_linear_131_1921)"/>
<path d="M44.416 15.1351L25.7285 33.7838L7.04102 15.1351V10H44.416V15.1351Z" fill="url(#paint5_linear_131_1921)"/>
<rect width="3.24662" height="3.24662" transform="matrix(0.707842 -0.706371 0.707842 0.706371 31.959 4.45557)" fill="white"/>
<rect width="4.32883" height="4.32883" transform="matrix(0.707842 -0.706371 0.707842 0.706371 14.625 47.3821)" fill="white"/>
<rect x="45.5" y="29.1892" width="2.70833" height="2.7027" fill="white"/>
<defs>
<linearGradient id="paint0_linear_131_1921" x1="26" y1="0" x2="26" y2="60" gradientUnits="userSpaceOnUse">
<stop stop-color="#F8F8F8"/>
<stop offset="1" stop-color="#E9EAEC"/>
</linearGradient>
<linearGradient id="paint1_linear_131_1921" x1="19.4993" y1="10" x2="19.4993" y2="34.8649" gradientUnits="userSpaceOnUse">
<stop stop-color="#787E88"/>
<stop offset="1" stop-color="#9098A4"/>
</linearGradient>
<linearGradient id="paint2_linear_131_1921" x1="39" y1="0" x2="39" y2="60" gradientUnits="userSpaceOnUse">
<stop stop-color="#D9D9D9"/>
<stop offset="1" stop-color="#FCFCFC"/>
</linearGradient>
<linearGradient id="paint3_linear_131_1921" x1="31.6882" y1="10" x2="31.6882" y2="34.8649" gradientUnits="userSpaceOnUse">
<stop stop-color="#969CA5"/>
<stop offset="1" stop-color="#8E96A3"/>
</linearGradient>
<linearGradient id="paint4_linear_131_1921" x1="25.7285" y1="39.4595" x2="25.7285" y2="20.5406" gradientUnits="userSpaceOnUse">
<stop stop-color="#7C8088"/>
<stop offset="1" stop-color="#828A96"/>
</linearGradient>
<linearGradient id="paint5_linear_131_1921" x1="25.7285" y1="10" x2="25.7285" y2="33.7838" gradientUnits="userSpaceOnUse">
<stop stop-color="#F04E23"/>
<stop offset="1" stop-color="#FFB185"/>
</linearGradient>
</defs>
</svg>
