<svg xmlns="http://www.w3.org/2000/svg" id="组_3406" width="56.672" height="56.764" viewBox="0 0 56.672 56.764">
    <defs>
        <clipPath id="clip-path">
            <path id="矩形_2050" d="M0 0H56.672V56.764H0z" class="cls-1"/>
        </clipPath>
        <style>
            .cls-1{fill:#ef605f}
        </style>
    </defs>
    <g id="组_2913" transform="translate(0 0)">
        <g id="组_2912" clip-path="url(#clip-path)">
            <path id="路径_4769" d="M362.166 250.838a28.324 28.324 0 1 1-28.324 28.324 28.323 28.323 0 0 1 28.324-28.324zm0 4.357a23.967 23.967 0 1 0 23.965 23.967 23.968 23.968 0 0 0-23.965-23.967zm.077 33.772a2.724 2.724 0 1 1-2.723 2.725 2.724 2.724 0 0 1 2.723-2.725zm-.077-25.056a2.179 2.179 0 0 1 2.163 1.923l.014.256v17.429a2.178 2.178 0 0 1-4.34.256l-.016-.256V266.09a2.179 2.179 0 0 1 2.18-2.18zm0 0" class="cls-1" transform="translate(-333.851 -250.804)"/>
        </g>
    </g>
</svg>
