<svg xmlns="http://www.w3.org/2000/svg" width="10.002" height="12.001" viewBox="0 0 10.002 12.001">
  <g id="组_128" data-name="组 128" transform="translate(-479.999 -248.999)">
    <path id="减去_8" data-name="减去 8" d="M13340,11816h-6a2,2,0,0,1-2-2v-5h10v5A2,2,0,0,1,13340,11816Zm-7-6v4a1,1,0,0,0,1,1h6a1,1,0,0,0,1-1v-4Z" transform="translate(-12852 -11555)" fill="#707a8a"/>
    <path id="减去_9" data-name="减去 9" d="M13338,11814h-6v-3a3,3,0,1,1,6,0v3Zm-3-5a2,2,0,0,0-2,2v2h4v-2A2,2,0,0,0,13335,11809Z" transform="translate(-12850 -11559)" fill="#707a8a"/>
    <rect id="矩形_111" data-name="矩形 111" width="2" height="3" rx="1" transform="translate(484 256)" fill="#707a8a"/>
  </g>
</svg>
