<svg xmlns="http://www.w3.org/2000/svg" width="24" height="24" viewBox="0 0 24 24">
  <g id="play_gray_24x24px" transform="translate(-6087 -4378)">
    <g id="组_769" data-name="组 769" transform="translate(4910.002 4136.999)">
      <path id="联合_167" data-name="联合 167" d="M-4895-4158a9.011,9.011,0,0,1,9-9,9.009,9.009,0,0,1,9,9,9.009,9.009,0,0,1-9,9A9.012,9.012,0,0,1-4895-4158Zm2,0a7.008,7.008,0,0,0,7,7,7.007,7.007,0,0,0,7-7,7.007,7.007,0,0,0-7-7A7.008,7.008,0,0,0-4893-4158Zm4.5-3.5,6,3.5-6,3.5Z" transform="translate(6075 4411)" fill="#707a8a"/>
    </g>
    <rect id="矩形_1261" data-name="矩形 1261" width="24" height="24" transform="translate(6087 4378)" fill="none"/>
  </g>
</svg>
