<svg xmlns="http://www.w3.org/2000/svg" xmlns:xlink="http://www.w3.org/1999/xlink" width="90" height="90" viewBox="0 0 90 90">
  <defs>
    <linearGradient id="linear-gradient" x1="0.5" x2="0.5" y2="1" gradientUnits="objectBoundingBox">
      <stop offset="0" stop-color="#eff1f3"/>
      <stop offset="1" stop-color="#d7dae5"/>
    </linearGradient>
  </defs>
  <g id="组_70" data-name="组 70" transform="translate(-243 -657)">
    <g id="组_58" data-name="组 58" transform="translate(-631.795 160.029)">
      <g id="组_22" data-name="组 22" transform="translate(890.877 501.942)">
        <path id="路径_20" data-name="路径 20" d="M130.824-5.986,117.343-19.238A2.748,2.748,0,0,0,115.422-20H72.341a2.912,2.912,0,0,0-1.991.815,2.472,2.472,0,0,0-.756,1.885V57.391a2.718,2.718,0,0,0,2.728,2.667H128.9a2.715,2.715,0,0,0,2.728-2.7V-4.081a2.59,2.59,0,0,0-.808-1.905Z" transform="translate(-69.591 20)" fill="url(#linear-gradient)"/>
        <path id="路径_21" data-name="路径 21" d="M323.216,236.032a9.481,9.481,0,0,0-9.481,9.481,2.4,2.4,0,1,0,4.781,0,4.754,4.754,0,1,1,9.481,0c0,2.709-6.894,6.176-7.138,12.055v.244a2.357,2.357,0,0,0,1.192,2.059,2.33,2.33,0,0,0,2.37,0,2.384,2.384,0,0,0,1.151-2.018c-.068-5.5,7.124-6.854,7.124-12.3a9.481,9.481,0,0,0-9.481-9.522Zm0,27.617a2.452,2.452,0,1,0,2.438,2.452A2.452,2.452,0,0,0,323.216,263.649Z" transform="translate(-293.746 -212.263)" fill="#fff"/>
        <circle id="椭圆_12" data-name="椭圆 12" cx="3.334" cy="3.334" r="3.334" transform="translate(64.736 41.532)" fill="#ebebeb"/>
        <circle id="椭圆_13" data-name="椭圆 13" cx="2.593" cy="2.593" r="2.593" transform="translate(40.287 61.536)" fill="#fff"/>
      </g>
      <g id="组_23" data-name="组 23" transform="translate(877.309 520.55)">
        <path id="路径_22" data-name="路径 22" d="M86.219,64A20.043,20.043,0,0,0,70.851,96.91l-8.666,8.852a1.751,1.751,0,1,0,2.477,2.477l8.664-8.85A20.043,20.043,0,1,0,86.219,64Zm0,3.5a16.54,16.54,0,1,1-16.54,16.54A16.54,16.54,0,0,1,86.219,67.5Z" transform="translate(-61.673 -64)" fill="#9a9baa"/>
      </g>
    </g>
    <rect id="矩形_58" data-name="矩形 58" width="90" height="90" transform="translate(243 657)" fill="none"/>
  </g>
</svg>
