<svg xmlns="http://www.w3.org/2000/svg" width="29.529" height="32.38" viewBox="0 0 29.529 32.38">
    <g data-name="组 1">
        <path data-name="路径 2" d="M648.529 167.421a1.42 1.42 0 0 1-1.421 1.421H620.42a1.421 1.421 0 0 1 0-2.841h26.688a1.422 1.422 0 0 1 1.421 1.421zm0 29.539a1.42 1.42 0 0 1-1.421 1.421H620.42a1.421 1.421 0 0 1 0-2.841h26.688a1.423 1.423 0 0 1 1.421 1.42zm-7.317-3.087a1.42 1.42 0 0 1-1.42 1.42h-12.058a1.42 1.42 0 1 1 0-2.841h12.06a1.422 1.422 0 0 1 1.417 1.421zm-7.449-9.808a1.42 1.42 0 0 1 1.421 1.421v2.772a1.421 1.421 0 0 1-2.841 0v-2.775a1.422 1.422 0 0 1 1.42-1.417zm0-6.167a1.421 1.421 0 1 1-1.42 1.421 1.42 1.42 0 0 1 1.42-1.421zm0 0" transform="translate(-619 -166)" style="fill:#fb6943"/>
        <path data-name="路径 3" d="M695.94 172.559a1.42 1.42 0 0 1 1.42 1.42v5.166a1.42 1.42 0 1 1-2.841 0v-5.166a1.422 1.422 0 0 1 1.42-1.42zm20.029 0a1.42 1.42 0 0 1 1.421 1.42v5.166a1.421 1.421 0 0 1-2.841 0v-5.166a1.42 1.42 0 0 1 1.42-1.42zm-20.029 31.555a1.42 1.42 0 0 0 1.42-1.421v-4.538a1.42 1.42 0 1 0-2.841 0v4.538a1.422 1.422 0 0 0 1.42 1.421zm20.029 0a1.42 1.42 0 0 0 1.421-1.421v-4.538a1.421 1.421 0 1 0-2.841 0v4.538a1.42 1.42 0 0 0 1.42 1.421zm0 0" transform="translate(-691.25 -172.275)" style="fill:#fb6943"/>
        <path data-name="路径 4" d="M703.932 323.656a8.6 8.6 0 0 1-6.493-8.336v-.12H694.6v.121a11.438 11.438 0 0 0 9.33 11.239zm13.533-8.457h-2.837v.121a8.6 8.6 0 0 1-6.517 8.339v2.9a11.436 11.436 0 0 0 9.354-11.243zm0 0" transform="translate(-691.328 -308.738)" style="fill:#fb6943"/>
        <path data-name="路径 5" d="M703.936 513.227v-2.9a11.438 11.438 0 0 0-9.333 11.239v.121h2.841v-.121a8.6 8.6 0 0 1 6.493-8.336zm4.178-2.907v2.9a8.6 8.6 0 0 1 6.517 8.339v.121h2.838v-.121a11.436 11.436 0 0 0-9.354-11.243zm0 0" transform="translate(-691.328 -495.408)" style="fill:#fb6943"/>
        <path data-name="路径 6" d="M875.978 512.906a1.455 1.455 0 1 0-.486-1.372 1.455 1.455 0 0 0 .486 1.372zm0 0" transform="translate(-864.361 -495.432)" style="fill:#fb6943"/>
        <path data-name="路径 7" d="M976.965 513.014a1.455 1.455 0 1 0-.485-1.372 1.455 1.455 0 0 0 .485 1.372zm0 0" transform="translate(-960.975 -495.535)" style="fill:#fb6943"/>
    </g>
</svg>
