<svg xmlns="http://www.w3.org/2000/svg" width="40" height="40" viewBox="0 0 40 40">
  <g id="组_791" data-name="组 791" transform="translate(-659 -254)">
    <g id="组_361" data-name="组 361" transform="translate(-5 -638)">
      <g id="椭圆_95" data-name="椭圆 95" transform="translate(664 892)" fill="none" stroke="#f04e23" stroke-width="1">
        <circle cx="20" cy="20" r="20" stroke="none"/>
        <circle cx="20" cy="20" r="19.5" fill="none"/>
      </g>
      <line id="直线_9" data-name="直线 9" x2="12" transform="translate(689.75 915.5) rotate(180)" fill="none" stroke="#f04e23" stroke-width="1"/>
      <g id="联合_51" data-name="联合 51" transform="translate(-16083 12152)" fill="#f04e23">
        <path d="M 16769.75 -11233.1220703125 L 16769.75 -11235.498046875 L 16769.75 -11235.998046875 L 16769.25 -11235.998046875 L 16760.501953125 -11235.998046875 L 16760.501953125 -11236.998046875 L 16769.25 -11236.998046875 L 16769.75 -11236.998046875 L 16769.75 -11237.498046875 L 16769.75 -11239.87890625 L 16773.50390625 -11236.5 L 16769.75 -11233.1220703125 Z" stroke="none"/>
        <path d="M 16770.25 -11234.2451171875 L 16772.7578125 -11236.5 L 16770.25 -11238.755859375 L 16770.25 -11234.2451171875 M 16769.25 -11232 L 16769.25 -11235.498046875 L 16760.001953125 -11235.498046875 L 16760.001953125 -11237.498046875 L 16769.25 -11237.498046875 L 16769.25 -11241.0009765625 L 16774.251953125 -11236.5 L 16769.25 -11232 Z" stroke="none" fill="#f04e23"/>
      </g>
      <g id="联合_52" data-name="联合 52" transform="translate(691.252 913) rotate(180)" fill="#f04e23">
        <path d="M 9.748400688171387 7.87724494934082 L 9.748400688171387 5.499899864196777 L 9.748400688171387 4.999899864196777 L 9.248400688171387 4.999899864196777 L 0.4982002079486847 4.999899864196777 L 0.4982002079486847 4.000100135803223 L 9.248400688171387 4.000100135803223 L 9.748400688171387 4.000100135803223 L 9.748400688171387 3.500099897384644 L 9.748400688171387 1.122755169868469 L 13.50051975250244 4.5 L 9.748400688171387 7.87724494934082 Z" stroke="none"/>
        <path d="M 10.24840068817139 6.754489898681641 L 12.75313854217529 4.5 L 10.24840068817139 2.245510339736938 L 10.24840068817139 6.754489898681641 M 9.248400688171387 9 L 9.248400688171387 5.499899864196777 L -0.001799787161871791 5.499899864196777 L -0.001799787161871791 3.500099897384644 L 9.248400688171387 3.500099897384644 L 9.248400688171387 0 L 14.24790000915527 4.5 L 9.248400688171387 9 Z" stroke="none" fill="#f04e23"/>
      </g>
    </g>
  </g>
</svg>
