<svg width="18" height="18" viewBox="0 0 18 18" fill="none" xmlns="http://www.w3.org/2000/svg">
<path fill-rule="evenodd" clip-rule="evenodd" d="M16.375 1.49984V0.231445L15.1416 0.527455L5.76661 2.77745L4.99999 2.96145V3.74984V12.1246H3.5625C2.28534 12.1246 1.25 13.16 1.25 14.4371C1.25 15.7143 2.28534 16.7496 3.5625 16.7496H4.65C5.94786 16.7496 7 15.6975 7 14.3996V13.1246V12.1246H6.99999V7.55702L14.375 5.81091V10.6248H12.5625C11.2853 10.6248 10.25 11.6602 10.25 12.9373C10.25 14.2145 11.2853 15.2498 12.5625 15.2498H14.025C15.3229 15.2498 16.375 14.1977 16.375 12.8998V11.6248V10.6248H16.375V1.49984ZM14.375 12.6248V12.6345H14.375V12.8998C14.375 13.0931 14.2183 13.2498 14.025 13.2498H12.5625C12.3899 13.2498 12.25 13.1099 12.25 12.9373C12.25 12.7648 12.3899 12.6248 12.5625 12.6248H14.375ZM14.375 3.75562V2.76824L6.99999 4.53824V5.50173L14.375 3.75562ZM4.99999 14.1246V14.2498H5V14.3996C5 14.5929 4.84329 14.7496 4.65 14.7496H3.5625C3.38991 14.7496 3.25 14.6097 3.25 14.4371C3.25 14.2645 3.38991 14.1246 3.5625 14.1246H4.99999Z" fill="white"/>
<rect x="15.0653" y="16.0078" width="20.398" height="2" transform="rotate(-135 15.0653 16.0078)" fill="white"/>
</svg>
