<svg width="18" height="18" viewBox="0 0 18 18" fill="none" xmlns="http://www.w3.org/2000/svg">
<path fill-rule="evenodd" clip-rule="evenodd" d="M16.3768 1.49984V0.231445L15.1434 0.527455L5.76845 2.77745L5.00182 2.96145V3.74984V12.1246H3.56433C2.28717 12.1246 1.25183 13.16 1.25183 14.4371C1.25183 15.7143 2.28717 16.7496 3.56433 16.7496H4.65183C5.94969 16.7496 7.00183 15.6975 7.00183 14.3996V13.1246V12.1246H7.00182V7.55702L14.3768 5.81091V10.6248H12.5643C11.2872 10.6248 10.2518 11.6602 10.2518 12.9373C10.2518 14.2145 11.2872 15.2498 12.5643 15.2498H14.0268C15.3247 15.2498 16.3768 14.1977 16.3768 12.8998V11.6248V10.6248H16.3768V1.49984ZM14.3768 12.6248V12.6345H14.3768V12.8998C14.3768 13.0931 14.2201 13.2498 14.0268 13.2498H12.5643C12.3917 13.2498 12.2518 13.1099 12.2518 12.9373C12.2518 12.7648 12.3917 12.6248 12.5643 12.6248H14.3768ZM14.3768 3.75562V2.76824L7.00182 4.53824V5.50173L14.3768 3.75562ZM5.00182 14.1246V14.2498H5.00183V14.3996C5.00183 14.5929 4.84512 14.7496 4.65183 14.7496H3.56433C3.39174 14.7496 3.25183 14.6097 3.25183 14.4371C3.25183 14.2645 3.39174 14.1246 3.56433 14.1246H5.00182Z" fill="white"/>
</svg>
