<svg width="364" height="364" viewBox="0 0 364 364" fill="none" xmlns="http://www.w3.org/2000/svg">
<g clip-path="url(#clip0_2796_15179)">
<path d="M3.12613 161.742C2.33306 168.755 1.93765 175.732 1.95426 182.61L182.585 182.135L3.12613 161.742Z" fill="#FA305C" stroke="#0D131C" stroke-width="3"/>
<path d="M6.70312 141.109C5.09626 147.998 3.94855 154.864 3.12268 161.741L182.581 182.135L6.70312 141.109Z" fill="#5D6B8F" stroke="#0D131C" stroke-width="3"/>
<path d="M1.95291 182.609C2.00232 189.625 2.37356 196.651 3.23266 203.531L182.583 182.134L1.95291 182.609Z" fill="#5D6B8F" stroke="#0D131C" stroke-width="3"/>
<path d="M253.698 347.045C260.118 344.262 266.378 341.053 272.45 337.54L182.582 182.137L253.698 347.045Z" fill="#FA305C" stroke="#0D131C" stroke-width="3"/>
<path d="M289.853 326.035C295.514 321.778 300.987 317.218 306.163 312.264L182.582 182.137L289.853 326.035Z" fill="#32D54E" stroke="#0D131C" stroke-width="3"/>
<path d="M172.135 361.743C179.111 362.138 186.064 362.074 192.904 361.659L182.582 182.137L172.135 361.743Z" fill="#FA305C" stroke="#0D131C" stroke-width="3"/>
<path d="M213.636 359.231C220.54 357.988 227.407 356.347 234.1 354.341L182.582 182.137L213.636 359.231Z" fill="#FA305C" stroke="#0D131C" stroke-width="3"/>
<path d="M192.966 361.673C199.944 361.226 206.808 360.427 213.636 359.231L182.582 182.137L192.966 361.673Z" fill="#5D6B8F" stroke="#0D131C" stroke-width="3"/>
<path d="M272.45 337.54C278.46 334.013 284.281 330.183 289.853 326.035L182.582 182.137L272.45 337.54Z" fill="#5D6B8F" stroke="#0D131C" stroke-width="3"/>
<path d="M351.208 243.131C353.586 236.552 355.609 229.825 357.23 222.875L182.582 182.137L351.208 243.131Z" fill="#5D6B8F" stroke="#0D131C" stroke-width="3"/>
<path d="M343.055 262.242C346.113 256.081 348.831 249.711 351.208 243.131L182.582 182.137L343.055 262.242Z" fill="#FA305C" stroke="#0D131C" stroke-width="3"/>
<path d="M332.65 280.438C336.479 274.587 339.968 268.526 343.069 262.18L182.582 182.137L332.65 280.438Z" fill="#5D6B8F" stroke="#0D131C" stroke-width="3"/>
<path d="M320.157 297.304C324.638 291.994 328.807 286.351 332.65 280.438L182.582 182.137L320.157 297.304Z" fill="#32D54E" stroke="#0D131C" stroke-width="3"/>
<path d="M306.102 312.25C311.021 307.56 315.752 302.568 320.157 297.304L182.582 182.137L306.102 312.25Z" fill="#5D6B8F" stroke="#0D131C" stroke-width="3"/>
<path d="M234.053 354.266C240.76 352.198 247.34 349.842 253.698 347.045L182.582 182.137L234.053 354.266Z" fill="#5D6B8F" stroke="#0D131C" stroke-width="3"/>
<path d="M21.2984 263.133C24.4922 269.455 28.0038 275.527 31.8946 281.364L182.584 182.137L21.2984 263.133Z" fill="#5D6B8F" stroke="#0D131C" stroke-width="3"/>
<path d="M31.8941 281.364C35.7377 287.124 39.8232 292.682 44.3023 297.942L182.583 182.137L31.8941 281.364Z" fill="#32D54E" stroke="#0D131C" stroke-width="3"/>
<path d="M13.0014 243.944C15.4327 250.477 18.153 256.884 21.3141 263.069L182.585 182.135L13.0014 243.944Z" fill="#FA305C" stroke="#0D131C" stroke-width="3"/>
<path d="M3.23431 203.532C4.06471 210.535 5.30712 217.44 6.96156 224.246L182.585 182.135L3.23431 203.532Z" fill="#FA305C" stroke="#0D131C" stroke-width="3"/>
<path d="M6.9613 224.247C8.56859 230.978 10.6022 237.548 12.9864 244.006L182.585 182.136L6.9613 224.247Z" fill="#5D6B8F" stroke="#0D131C" stroke-width="3"/>
<path d="M44.3043 297.939C48.8777 303.351 53.7073 308.499 58.869 313.335L182.585 182.135L44.3043 297.939Z" fill="#5D6B8F" stroke="#0D131C" stroke-width="3"/>
<path d="M111.255 347.54C117.563 350.244 124.094 352.545 130.819 354.568L182.583 182.135L111.255 347.54Z" fill="#5D6B8F" stroke="#0D131C" stroke-width="3"/>
<path d="M151.358 359.361C158.332 360.599 165.283 361.377 172.197 361.758L182.582 182.137L151.358 359.361Z" fill="#5D6B8F" stroke="#0D131C" stroke-width="3"/>
<path d="M58.8689 313.338C63.9219 318.083 69.2455 322.503 74.8868 326.672L182.585 182.138L58.8689 313.338Z" fill="#32D54E" stroke="#0D131C" stroke-width="3"/>
<path d="M130.819 354.569C134.159 355.542 137.574 356.469 141.079 357.286C144.523 358.089 147.934 358.755 151.359 359.36L182.583 182.135L130.819 354.569Z" fill="#FA305C" stroke="#0D131C" stroke-width="3"/>
<path d="M74.8718 326.733C80.5131 330.902 86.3635 334.731 92.5459 338.249L182.585 182.137L74.8718 326.733Z" fill="#5D6B8F" stroke="#0D131C" stroke-width="3"/>
<path d="M92.4862 338.233C98.4985 341.646 104.767 344.794 111.198 347.526L182.586 182.135L92.4862 338.233Z" fill="#FA305C" stroke="#0D131C" stroke-width="3"/>
<path d="M12.6864 121.04C15.0783 114.399 17.8106 107.967 20.8688 101.806L182.647 182.151L12.6864 121.04Z" fill="#5D6B8F" stroke="#0D131C" stroke-width="3"/>
<path d="M6.76562 141.125C8.37249 134.236 10.3811 127.571 12.6829 121.039L182.644 182.15L6.76562 141.125Z" fill="#32D54E" stroke="#0D131C" stroke-width="3"/>
<path d="M20.8674 101.805C24.0158 95.5351 27.4573 89.3986 31.2719 83.6085L182.646 182.15L20.8674 101.805Z" fill="#32D54E" stroke="#0D131C" stroke-width="3"/>
<path d="M319.384 65.7285C323.91 71.0646 328.104 76.7124 331.995 82.5488L182.645 182.152L319.384 65.7285Z" fill="#5D6B8F" stroke="#0D131C" stroke-width="3"/>
<path d="M342.512 100.567C345.705 106.889 348.596 113.4 351.046 120.133L182.645 182.152L342.512 100.567Z" fill="#5D6B8F" stroke="#0D131C" stroke-width="3"/>
<path d="M252.742 16.4599C259.173 19.1921 265.38 22.3261 271.33 25.7247L182.645 182.152L252.742 16.4599Z" fill="#5D6B8F" stroke="#0D131C" stroke-width="3"/>
<path d="M288.849 37.0745C294.49 41.244 299.922 45.7538 305.037 50.5137L182.645 182.152L288.849 37.0745Z" fill="#5D6B8F" stroke="#0D131C" stroke-width="3"/>
<path d="M271.392 25.739C277.451 29.2277 283.255 32.9809 288.849 37.0745L182.645 182.152L271.392 25.739Z" fill="#FA305C" stroke="#0D131C" stroke-width="3"/>
<path d="M331.995 82.5488C335.825 88.3709 339.35 94.3816 342.512 100.567L182.645 182.152L331.995 82.5488Z" fill="#32D54E" stroke="#0D131C" stroke-width="3"/>
<path d="M360.855 202.06C360.076 209.013 358.914 215.94 357.293 222.891L182.645 182.152L360.855 202.06Z" fill="#FA305C" stroke="#0D131C" stroke-width="3"/>
<path d="M361.998 181.315C362.014 188.193 361.633 195.108 360.855 202.06L182.645 182.152L361.998 181.315Z" fill="#5D6B8F" stroke="#0D131C" stroke-width="3"/>
<path d="M360.718 160.393C361.563 167.335 362.01 174.313 361.983 181.376L182.645 182.152L360.718 160.393Z" fill="#FA305C" stroke="#0D131C" stroke-width="3"/>
<path d="M356.976 139.74C358.645 146.485 359.888 153.389 360.718 160.393L182.645 182.152L356.976 139.74Z" fill="#5D6B8F" stroke="#0D131C" stroke-width="3"/>
<path d="M350.984 120.118C353.321 126.5 355.355 133.071 356.976 139.74L182.645 182.152L350.984 120.118Z" fill="#32D54E" stroke="#0D131C" stroke-width="3"/>
<path d="M304.961 50.5609C310.061 55.3823 314.919 60.4068 319.384 65.7285L182.645 182.152L304.961 50.5609Z" fill="#FA305C" stroke="#0D131C" stroke-width="3"/>
<path d="M73.8423 38.1526C79.5038 33.8958 85.3396 30.0039 91.4111 26.4913L182.646 182.149L73.8423 38.1526Z" fill="#FA305C" stroke="#0D131C" stroke-width="3"/>
<path d="M91.4106 26.4916C97.4063 23.0261 103.529 19.8497 109.873 17.1141L182.646 182.149L91.4106 26.4916Z" fill="#5D6B8F" stroke="#0D131C" stroke-width="3"/>
<path d="M57.9127 51.6892C62.9838 46.9055 68.258 42.3638 73.8293 38.2157L182.648 182.151L57.9127 51.6892Z" fill="#5D6B8F" stroke="#0D131C" stroke-width="3"/>
<path d="M31.2735 83.609C35.1168 77.6959 39.286 72.0534 43.7811 66.6814L182.647 182.15L31.2735 83.609Z" fill="#5D6B8F" stroke="#0D131C" stroke-width="3"/>
<path d="M43.7809 66.6825C48.2002 61.3577 52.9311 56.365 57.9264 51.6286L182.647 182.151L43.7809 66.6825Z" fill="#FA305C" stroke="#0D131C" stroke-width="3"/>
<path d="M109.875 17.1152C116.371 14.2853 122.98 11.8059 129.748 9.75291L182.648 182.15L109.875 17.1152Z" fill="#FA305C" stroke="#0D131C" stroke-width="3"/>
<path d="M191.862 2.25675C198.715 2.62297 205.59 3.44845 212.516 4.61014L182.645 182.15L191.862 2.25675Z" fill="#32D54E" stroke="#0D131C" stroke-width="3"/>
<path d="M233.055 9.40333C239.857 11.3789 246.435 13.7564 252.804 16.4743L182.645 182.152L233.055 9.40333Z" fill="#FA305C" stroke="#0D131C" stroke-width="3"/>
<path d="M129.748 9.75209C136.379 7.73194 143.109 6.12387 150.013 4.88071L182.648 182.149L129.748 9.75209Z" fill="#5D6B8F" stroke="#0D131C" stroke-width="3"/>
<path d="M212.517 4.61092C215.942 5.21534 219.414 5.89562 222.92 6.71325C226.363 7.51654 229.717 8.4285 233.056 9.40197L182.645 182.151L212.517 4.61092Z" fill="#5D6B8F" stroke="#0D131C" stroke-width="3"/>
<path d="M150.027 4.82194C156.93 3.57878 163.871 2.73336 170.972 2.31435L182.647 182.152L150.027 4.82194Z" fill="#32D54E" stroke="#0D131C" stroke-width="3"/>
<path d="M170.912 2.29847C177.814 1.89793 184.829 1.84793 191.804 2.24285L182.649 182.151L170.912 2.29847Z" fill="#E7C300" stroke="#0D131C" stroke-width="3"/>
<g clip-path="url(#clip1_2796_15179)">
<circle cx="182" cy="182" r="168" fill="url(#paint0_radial_2796_15179)"/>
</g>
</g>
<defs>
<radialGradient id="paint0_radial_2796_15179" cx="0" cy="0" r="1" gradientUnits="userSpaceOnUse" gradientTransform="translate(182 182) rotate(90) scale(168)">
<stop offset="0.515625" stop-color="#0D131C"/>
<stop offset="1" stop-color="#0D131C" stop-opacity="0.67"/>
</radialGradient>
<clipPath id="clip0_2796_15179">
<rect width="364" height="364" fill="white"/>
</clipPath>
<clipPath id="clip1_2796_15179">
<rect width="336" height="336" fill="white" transform="translate(14 14)"/>
</clipPath>
</defs>
</svg>
