<svg width="364" height="364" viewBox="0 0 364 364" fill="none" xmlns="http://www.w3.org/2000/svg">
<g clip-path="url(#clip0_2796_15116)">
<path d="M3.13004 161.742C2.33697 168.755 1.94156 175.732 1.95817 182.61L182.589 182.135L3.13004 161.742Z" fill="#FA305C" stroke="#F4F7FD" stroke-width="3"/>
<path d="M6.70703 141.109C5.10016 147.998 3.95246 154.864 3.12658 161.741L182.585 182.135L6.70703 141.109Z" fill="#5D6B8F" stroke="#F4F7FD" stroke-width="3"/>
<path d="M1.95682 182.609C2.00623 189.625 2.37747 196.651 3.23656 203.531L182.587 182.134L1.95682 182.609Z" fill="#5D6B8F" stroke="#F4F7FD" stroke-width="3"/>
<path d="M253.702 347.045C260.122 344.262 266.382 341.053 272.454 337.54L182.586 182.137L253.702 347.045Z" fill="#FA305C" stroke="#F4F7FD" stroke-width="3"/>
<path d="M289.857 326.035C295.518 321.778 300.991 317.218 306.167 312.264L182.586 182.137L289.857 326.035Z" fill="#32D54E" stroke="#F4F7FD" stroke-width="3"/>
<path d="M172.139 361.743C179.115 362.138 186.068 362.074 192.908 361.659L182.586 182.137L172.139 361.743Z" fill="#FA305C" stroke="#F4F7FD" stroke-width="3"/>
<path d="M213.64 359.231C220.544 357.988 227.411 356.347 234.104 354.342L182.586 182.137L213.64 359.231Z" fill="#FA305C" stroke="#F4F7FD" stroke-width="3"/>
<path d="M192.97 361.673C199.948 361.226 206.812 360.427 213.64 359.231L182.586 182.137L192.97 361.673Z" fill="#5D6B8F" stroke="#F4F7FD" stroke-width="3"/>
<path d="M272.454 337.54C278.464 334.013 284.285 330.183 289.857 326.035L182.586 182.137L272.454 337.54Z" fill="#5D6B8F" stroke="#F4F7FD" stroke-width="3"/>
<path d="M351.212 243.131C353.59 236.552 355.613 229.825 357.234 222.875L182.586 182.137L351.212 243.131Z" fill="#5D6B8F" stroke="#F4F7FD" stroke-width="3"/>
<path d="M343.059 262.242C346.117 256.081 348.835 249.711 351.212 243.131L182.586 182.137L343.059 262.242Z" fill="#FA305C" stroke="#F4F7FD" stroke-width="3"/>
<path d="M332.654 280.438C336.483 274.587 339.972 268.526 343.073 262.18L182.586 182.137L332.654 280.438Z" fill="#5D6B8F" stroke="#F4F7FD" stroke-width="3"/>
<path d="M320.161 297.304C324.642 291.994 328.811 286.352 332.654 280.438L182.586 182.137L320.161 297.304Z" fill="#32D54E" stroke="#F4F7FD" stroke-width="3"/>
<path d="M306.105 312.25C311.025 307.56 315.756 302.568 320.161 297.304L182.586 182.137L306.105 312.25Z" fill="#5D6B8F" stroke="#F4F7FD" stroke-width="3"/>
<path d="M234.057 354.266C240.764 352.198 247.344 349.842 253.702 347.045L182.586 182.137L234.057 354.266Z" fill="#5D6B8F" stroke="#F4F7FD" stroke-width="3"/>
<path d="M21.3023 263.133C24.4961 269.455 28.0077 275.527 31.8985 281.364L182.588 182.137L21.3023 263.133Z" fill="#5D6B8F" stroke="#F4F7FD" stroke-width="3"/>
<path d="M31.898 281.364C35.7416 287.124 39.8271 292.682 44.3062 297.942L182.587 182.137L31.898 281.364Z" fill="#32D54E" stroke="#F4F7FD" stroke-width="3"/>
<path d="M13.0053 243.944C15.4366 250.477 18.157 256.884 21.318 263.069L182.589 182.135L13.0053 243.944Z" fill="#FA305C" stroke="#F4F7FD" stroke-width="3"/>
<path d="M3.23821 203.532C4.06861 210.535 5.31103 217.44 6.96547 224.246L182.589 182.135L3.23821 203.532Z" fill="#FA305C" stroke="#F4F7FD" stroke-width="3"/>
<path d="M6.96521 224.247C8.57249 230.978 10.6061 237.548 12.9903 244.006L182.589 182.136L6.96521 224.247Z" fill="#5D6B8F" stroke="#F4F7FD" stroke-width="3"/>
<path d="M44.3082 297.939C48.8816 303.351 53.7112 308.499 58.8729 313.335L182.589 182.135L44.3082 297.939Z" fill="#5D6B8F" stroke="#F4F7FD" stroke-width="3"/>
<path d="M111.259 347.54C117.567 350.244 124.097 352.545 130.823 354.568L182.587 182.135L111.259 347.54Z" fill="#5D6B8F" stroke="#F4F7FD" stroke-width="3"/>
<path d="M151.362 359.361C158.336 360.599 165.287 361.377 172.201 361.758L182.586 182.137L151.362 359.361Z" fill="#5D6B8F" stroke="#F4F7FD" stroke-width="3"/>
<path d="M58.8728 313.338C63.9258 318.083 69.2494 322.503 74.8907 326.672L182.589 182.138L58.8728 313.338Z" fill="#32D54E" stroke="#F4F7FD" stroke-width="3"/>
<path d="M130.823 354.569C134.163 355.542 137.578 356.469 141.083 357.286C144.527 358.089 147.938 358.755 151.363 359.36L182.587 182.135L130.823 354.569Z" fill="#FA305C" stroke="#F4F7FD" stroke-width="3"/>
<path d="M74.8757 326.733C80.517 330.902 86.3674 334.731 92.5498 338.249L182.589 182.137L74.8757 326.733Z" fill="#5D6B8F" stroke="#F4F7FD" stroke-width="3"/>
<path d="M92.4901 338.233C98.5025 341.646 104.771 344.794 111.201 347.526L182.59 182.135L92.4901 338.233Z" fill="#FA305C" stroke="#F4F7FD" stroke-width="3"/>
<path d="M12.6903 121.04C15.0822 114.399 17.8145 107.967 20.8727 101.806L182.651 182.151L12.6903 121.04Z" fill="#5D6B8F" stroke="#F4F7FD" stroke-width="3"/>
<path d="M6.76953 141.125C8.3764 134.236 10.385 127.571 12.6868 121.039L182.648 182.15L6.76953 141.125Z" fill="#32D54E" stroke="#F4F7FD" stroke-width="3"/>
<path d="M20.8713 101.805C24.0197 95.5351 27.4612 89.3986 31.2758 83.6085L182.65 182.15L20.8713 101.805Z" fill="#32D54E" stroke="#F4F7FD" stroke-width="3"/>
<path d="M319.388 65.7285C323.914 71.0646 328.108 76.7124 331.999 82.5488L182.648 182.152L319.388 65.7285Z" fill="#5D6B8F" stroke="#F4F7FD" stroke-width="3"/>
<path d="M342.515 100.567C345.709 106.889 348.6 113.4 351.05 120.133L182.648 182.152L342.515 100.567Z" fill="#5D6B8F" stroke="#F4F7FD" stroke-width="3"/>
<path d="M252.746 16.4599C259.176 19.1921 265.383 22.3261 271.334 25.7247L182.648 182.152L252.746 16.4599Z" fill="#5D6B8F" stroke="#F4F7FD" stroke-width="3"/>
<path d="M288.853 37.0745C294.494 41.244 299.926 45.7538 305.041 50.5137L182.648 182.152L288.853 37.0745Z" fill="#5D6B8F" stroke="#F4F7FD" stroke-width="3"/>
<path d="M271.396 25.739C277.455 29.2277 283.258 32.9809 288.853 37.0745L182.648 182.152L271.396 25.739Z" fill="#FA305C" stroke="#F4F7FD" stroke-width="3"/>
<path d="M331.999 82.5488C335.828 88.3709 339.354 94.3816 342.515 100.567L182.648 182.152L331.999 82.5488Z" fill="#32D54E" stroke="#F4F7FD" stroke-width="3"/>
<path d="M360.859 202.06C360.08 209.013 358.918 215.94 357.297 222.891L182.648 182.152L360.859 202.06Z" fill="#FA305C" stroke="#F4F7FD" stroke-width="3"/>
<path d="M362.002 181.315C362.018 188.193 361.637 195.108 360.859 202.06L182.648 182.152L362.002 181.315Z" fill="#5D6B8F" stroke="#F4F7FD" stroke-width="3"/>
<path d="M360.722 160.393C361.567 167.335 362.014 174.313 361.987 181.376L182.648 182.152L360.722 160.393Z" fill="#FA305C" stroke="#F4F7FD" stroke-width="3"/>
<path d="M356.98 139.74C358.649 146.485 359.892 153.389 360.722 160.393L182.648 182.152L356.98 139.74Z" fill="#5D6B8F" stroke="#F4F7FD" stroke-width="3"/>
<path d="M350.988 120.118C353.325 126.5 355.359 133.071 356.98 139.74L182.648 182.152L350.988 120.118Z" fill="#32D54E" stroke="#F4F7FD" stroke-width="3"/>
<path d="M304.965 50.5609C310.065 55.3823 314.923 60.4068 319.388 65.7285L182.648 182.152L304.965 50.5609Z" fill="#FA305C" stroke="#F4F7FD" stroke-width="3"/>
<path d="M73.8462 38.1526C79.5077 33.8958 85.3435 30.0039 91.415 26.4913L182.65 182.149L73.8462 38.1526Z" fill="#FA305C" stroke="#F4F7FD" stroke-width="3"/>
<path d="M91.4145 26.4916C97.4102 23.0261 103.533 19.8497 109.877 17.1141L182.65 182.149L91.4145 26.4916Z" fill="#5D6B8F" stroke="#F4F7FD" stroke-width="3"/>
<path d="M57.9166 51.6892C62.9878 46.9055 68.2619 42.3638 73.8332 38.2157L182.652 182.151L57.9166 51.6892Z" fill="#5D6B8F" stroke="#F4F7FD" stroke-width="3"/>
<path d="M31.2774 83.609C35.1207 77.6959 39.2899 72.0534 43.785 66.6814L182.651 182.15L31.2774 83.609Z" fill="#5D6B8F" stroke="#F4F7FD" stroke-width="3"/>
<path d="M43.7848 66.6825C48.2041 61.3577 52.935 56.365 57.9303 51.6286L182.651 182.151L43.7848 66.6825Z" fill="#FA305C" stroke="#F4F7FD" stroke-width="3"/>
<path d="M109.879 17.1152C116.375 14.2853 122.984 11.8059 129.752 9.7529L182.652 182.15L109.879 17.1152Z" fill="#FA305C" stroke="#F4F7FD" stroke-width="3"/>
<path d="M191.866 2.25673C198.719 2.62296 205.594 3.44844 212.52 4.61013L182.649 182.15L191.866 2.25673Z" fill="#32D54E" stroke="#F4F7FD" stroke-width="3"/>
<path d="M233.059 9.40332C239.861 11.3789 246.439 13.7564 252.808 16.4742L182.648 182.152L233.059 9.40332Z" fill="#FA305C" stroke="#F4F7FD" stroke-width="3"/>
<path d="M129.752 9.75208C136.383 7.73193 143.113 6.12386 150.017 4.8807L182.652 182.149L129.752 9.75208Z" fill="#5D6B8F" stroke="#F4F7FD" stroke-width="3"/>
<path d="M212.52 4.61091C215.946 5.21533 219.418 5.89561 222.923 6.71324C226.367 7.51653 229.721 8.42849 233.06 9.40196L182.649 182.151L212.52 4.61091Z" fill="#5D6B8F" stroke="#F4F7FD" stroke-width="3"/>
<path d="M150.031 4.82193C156.934 3.57877 163.875 2.73335 170.976 2.31434L182.651 182.152L150.031 4.82193Z" fill="#32D54E" stroke="#F4F7FD" stroke-width="3"/>
<path d="M170.916 2.29846C177.818 1.89792 184.832 1.84792 191.808 2.24284L182.653 182.151L170.916 2.29846Z" fill="#FED700" stroke="#F4F7FD" stroke-width="3"/>
<g clip-path="url(#clip1_2796_15116)">
<circle cx="182" cy="182" r="168" fill="url(#paint0_radial_2796_15116)"/>
</g>
</g>
<defs>
<radialGradient id="paint0_radial_2796_15116" cx="0" cy="0" r="1" gradientUnits="userSpaceOnUse" gradientTransform="translate(182 182) rotate(90) scale(168)">
<stop offset="0.890625" stop-color="white"/>
<stop offset="1" stop-color="white" stop-opacity="0.67"/>
</radialGradient>
<clipPath id="clip0_2796_15116">
<rect width="364" height="364" fill="white"/>
</clipPath>
<clipPath id="clip1_2796_15116">
<rect width="336" height="336" fill="white" transform="translate(14 14)"/>
</clipPath>
</defs>
</svg>
