<svg width="18" height="18" viewBox="0 0 18 18" fill="none" xmlns="http://www.w3.org/2000/svg">
<path d="M3 6.00012C4.65685 6.00012 6 4.65698 6 3.00012C6 1.34327 4.65685 0.00012207 3 0.00012207C1.34315 0.00012207 0 1.34327 0 3.00012C0 4.65698 1.34315 6.00012 3 6.00012Z" fill="#FB6943"/>
<path d="M15 6.00012C16.6569 6.00012 18 4.65698 18 3.00012C18 1.34327 16.6569 0.00012207 15 0.00012207C13.3431 0.00012207 12 1.34327 12 3.00012C12 4.65698 13.3431 6.00012 15 6.00012Z" fill="#FB6943"/>
<path d="M3 8.00012C3.79565 8.00012 4.55871 8.31619 5.12132 8.8788C5.68393 9.44141 6 10.2045 6 11.0001V18.0001H0V11.0001C0 10.2045 0.31607 9.44141 0.87868 8.8788C1.44129 8.31619 2.20435 8.00012 3 8.00012V8.00012Z" fill="#FB6943"/>
<path d="M15 8.00012C15.7956 8.00012 16.5587 8.31619 17.1213 8.8788C17.6839 9.44141 18 10.2045 18 11.0001V18.0001H12V11.0001C12 10.2045 12.3161 9.44141 12.8787 8.8788C13.4413 8.31619 14.2044 8.00012 15 8.00012V8.00012Z" fill="#FB6943"/>
<path d="M9.00001 15.3283C8.85688 15.3283 8.71535 15.2975 8.5851 15.2382C8.45485 15.1788 8.33891 15.0923 8.24501 14.9843L5.24501 11.5321C5.07103 11.3319 4.98377 11.0709 5.00233 10.8063C5.0209 10.5417 5.14377 10.2952 5.34401 10.1212C5.54425 9.94725 5.80535 9.85999 6.06996 9.87855C6.33457 9.89712 6.58104 10.0199 6.75502 10.2201L9.00001 12.8031L11.245 10.2201C11.419 10.0199 11.6655 9.89712 11.9301 9.87855C12.1947 9.85999 12.4558 9.94725 12.656 10.1212C12.8563 10.2952 12.9791 10.5417 12.9977 10.8063C13.0163 11.0709 12.929 11.3319 12.755 11.5321L9.75502 14.9843C9.66112 15.0923 9.54518 15.1788 9.41493 15.2382C9.28468 15.2975 9.14315 15.3283 9.00001 15.3283Z" fill="#FB6943"/>
</svg>
