<svg width="460" height="324" viewBox="0 0 460 324" fill="none" xmlns="http://www.w3.org/2000/svg">
<rect width="460" height="324" rx="10" fill="#0D131C"/>
<g clip-path="url(#clip0_2870_22239)">
<rect x="23.5" y="20.5" width="412" height="99" rx="9.5" fill="#161F2C"/>
<g clip-path="url(#clip1_2870_22239)">
<g clip-path="url(#clip2_2870_22239)">
<path d="M191.138 53.4029C189.536 59.8315 183.024 63.7438 176.595 62.1407C170.168 60.538 166.256 54.0265 167.859 47.5984C169.461 41.169 175.973 37.2564 182.4 38.8591C188.829 40.4618 192.741 46.974 191.138 53.403L191.138 53.4029H191.138Z" fill="#F7931A"/>
<path d="M184.791 48.7894C185.03 47.1924 183.814 46.334 182.152 45.7614L182.691 43.5982L181.374 43.27L180.849 45.3763C180.503 45.2899 180.147 45.2086 179.794 45.1279L180.323 43.0078L179.007 42.6797L178.467 44.8422C178.181 44.777 177.899 44.7125 177.626 44.6446L177.628 44.6378L175.812 44.1843L175.462 45.5907C175.462 45.5907 176.439 45.8147 176.418 45.8285C176.951 45.9615 177.048 46.3145 177.032 46.5943L176.417 49.0587C176.454 49.068 176.502 49.0815 176.554 49.1026C176.51 49.0917 176.464 49.0798 176.415 49.0682L175.554 52.5205C175.489 52.6825 175.323 52.9256 174.951 52.8333C174.964 52.8524 173.994 52.5944 173.994 52.5944L173.34 54.1017L175.053 54.5289C175.372 54.6089 175.685 54.6925 175.992 54.7712L175.447 56.9592L176.763 57.2873L177.302 55.1225C177.662 55.22 178.01 55.31 178.352 55.3948L177.814 57.5494L179.131 57.8775L179.676 55.6936C181.921 56.1186 183.609 55.9472 184.32 53.9163C184.893 52.2811 184.292 51.3379 183.11 50.7229C183.971 50.5244 184.619 49.9585 184.792 48.7895L184.791 48.7892L184.791 48.7894ZM181.782 53.0082C181.376 54.6433 178.622 53.7594 177.73 53.5378L178.453 50.639C179.345 50.8619 182.208 51.3028 181.783 53.0082H181.782ZM182.19 48.7657C181.818 50.253 179.527 49.4974 178.784 49.3121L179.439 46.6831C180.183 46.8684 182.576 47.2142 182.19 48.7657H182.19Z" fill="white"/>
</g>
<path d="M196.596 49.0874C196.596 47.0464 196.962 45.6182 197.694 44.8027C198.432 43.9873 199.552 43.5796 201.056 43.5796C201.779 43.5796 202.372 43.6699 202.836 43.8506C203.3 44.0264 203.678 44.2583 203.971 44.5464C204.264 44.8296 204.494 45.1299 204.66 45.4473C204.831 45.7598 204.967 46.126 205.07 46.5459C205.27 47.3467 205.37 48.1816 205.37 49.0508C205.37 50.999 205.041 52.4248 204.381 53.3281C203.722 54.2314 202.587 54.6831 200.976 54.6831C200.072 54.6831 199.342 54.5391 198.786 54.251C198.229 53.9629 197.772 53.5405 197.416 52.9839C197.157 52.5884 196.955 52.0488 196.808 51.3652C196.667 50.6768 196.596 49.9175 196.596 49.0874ZM199.555 49.0947C199.555 50.4619 199.674 51.397 199.914 51.8999C200.158 52.3979 200.509 52.647 200.968 52.647C201.271 52.647 201.532 52.542 201.752 52.332C201.977 52.1172 202.14 51.7803 202.243 51.3213C202.35 50.8623 202.404 50.147 202.404 49.1753C202.404 47.7495 202.282 46.7925 202.038 46.3042C201.798 45.811 201.437 45.5645 200.954 45.5645C200.46 45.5645 200.104 45.8159 199.884 46.3188C199.665 46.8169 199.555 47.7422 199.555 49.0947ZM206.894 51.5117H210.08V54.5H206.894V51.5117ZM211.596 49.0874C211.596 47.0464 211.962 45.6182 212.694 44.8027C213.432 43.9873 214.552 43.5796 216.056 43.5796C216.779 43.5796 217.372 43.6699 217.836 43.8506C218.3 44.0264 218.678 44.2583 218.971 44.5464C219.264 44.8296 219.494 45.1299 219.66 45.4473C219.831 45.7598 219.967 46.126 220.07 46.5459C220.27 47.3467 220.37 48.1816 220.37 49.0508C220.37 50.999 220.041 52.4248 219.381 53.3281C218.722 54.2314 217.587 54.6831 215.976 54.6831C215.072 54.6831 214.342 54.5391 213.786 54.251C213.229 53.9629 212.772 53.5405 212.416 52.9839C212.157 52.5884 211.955 52.0488 211.808 51.3652C211.667 50.6768 211.596 49.9175 211.596 49.0874ZM214.555 49.0947C214.555 50.4619 214.674 51.397 214.914 51.8999C215.158 52.3979 215.509 52.647 215.968 52.647C216.271 52.647 216.532 52.542 216.752 52.332C216.977 52.1172 217.14 51.7803 217.243 51.3213C217.35 50.8623 217.404 50.147 217.404 49.1753C217.404 47.7495 217.282 46.7925 217.038 46.3042C216.798 45.811 216.437 45.5645 215.954 45.5645C215.46 45.5645 215.104 45.8159 214.884 46.3188C214.665 46.8169 214.555 47.7422 214.555 49.0947ZM221.601 49.0874C221.601 47.0464 221.967 45.6182 222.699 44.8027C223.437 43.9873 224.557 43.5796 226.061 43.5796C226.784 43.5796 227.377 43.6699 227.841 43.8506C228.305 44.0264 228.683 44.2583 228.976 44.5464C229.269 44.8296 229.499 45.1299 229.665 45.4473C229.835 45.7598 229.972 46.126 230.075 46.5459C230.275 47.3467 230.375 48.1816 230.375 49.0508C230.375 50.999 230.045 52.4248 229.386 53.3281C228.727 54.2314 227.592 54.6831 225.98 54.6831C225.077 54.6831 224.347 54.5391 223.791 54.251C223.234 53.9629 222.777 53.5405 222.421 52.9839C222.162 52.5884 221.959 52.0488 221.813 51.3652C221.671 50.6768 221.601 49.9175 221.601 49.0874ZM224.56 49.0947C224.56 50.4619 224.679 51.397 224.918 51.8999C225.163 52.3979 225.514 52.647 225.973 52.647C226.276 52.647 226.537 52.542 226.757 52.332C226.981 52.1172 227.145 51.7803 227.248 51.3213C227.355 50.8623 227.409 50.147 227.409 49.1753C227.409 47.7495 227.287 46.7925 227.042 46.3042C226.803 45.811 226.442 45.5645 225.958 45.5645C225.465 45.5645 225.109 45.8159 224.889 46.3188C224.669 46.8169 224.56 47.7422 224.56 49.0947ZM231.605 49.0874C231.605 47.0464 231.972 45.6182 232.704 44.8027C233.441 43.9873 234.562 43.5796 236.066 43.5796C236.789 43.5796 237.382 43.6699 237.846 43.8506C238.31 44.0264 238.688 44.2583 238.981 44.5464C239.274 44.8296 239.503 45.1299 239.669 45.4473C239.84 45.7598 239.977 46.126 240.08 46.5459C240.28 47.3467 240.38 48.1816 240.38 49.0508C240.38 50.999 240.05 52.4248 239.391 53.3281C238.732 54.2314 237.597 54.6831 235.985 54.6831C235.082 54.6831 234.352 54.5391 233.795 54.251C233.239 53.9629 232.782 53.5405 232.426 52.9839C232.167 52.5884 231.964 52.0488 231.818 51.3652C231.676 50.6768 231.605 49.9175 231.605 49.0874ZM234.564 49.0947C234.564 50.4619 234.684 51.397 234.923 51.8999C235.167 52.3979 235.519 52.647 235.978 52.647C236.281 52.647 236.542 52.542 236.762 52.332C236.986 52.1172 237.15 51.7803 237.252 51.3213C237.36 50.8623 237.414 50.147 237.414 49.1753C237.414 47.7495 237.292 46.7925 237.047 46.3042C236.808 45.811 236.447 45.5645 235.963 45.5645C235.47 45.5645 235.114 45.8159 234.894 46.3188C234.674 46.8169 234.564 47.7422 234.564 49.0947ZM241.61 49.0874C241.61 47.0464 241.977 45.6182 242.709 44.8027C243.446 43.9873 244.567 43.5796 246.071 43.5796C246.793 43.5796 247.387 43.6699 247.851 43.8506C248.314 44.0264 248.693 44.2583 248.986 44.5464C249.279 44.8296 249.508 45.1299 249.674 45.4473C249.845 45.7598 249.982 46.126 250.084 46.5459C250.285 47.3467 250.385 48.1816 250.385 49.0508C250.385 50.999 250.055 52.4248 249.396 53.3281C248.737 54.2314 247.602 54.6831 245.99 54.6831C245.087 54.6831 244.357 54.5391 243.8 54.251C243.244 53.9629 242.787 53.5405 242.431 52.9839C242.172 52.5884 241.969 52.0488 241.823 51.3652C241.681 50.6768 241.61 49.9175 241.61 49.0874ZM244.569 49.0947C244.569 50.4619 244.689 51.397 244.928 51.8999C245.172 52.3979 245.524 52.647 245.983 52.647C246.286 52.647 246.547 52.542 246.767 52.332C246.991 52.1172 247.155 51.7803 247.257 51.3213C247.365 50.8623 247.418 50.147 247.418 49.1753C247.418 47.7495 247.296 46.7925 247.052 46.3042C246.813 45.811 246.452 45.5645 245.968 45.5645C245.475 45.5645 245.119 45.8159 244.899 46.3188C244.679 46.8169 244.569 47.7422 244.569 49.0947ZM258.375 43.5796V54.5H255.358V47.3442C254.87 47.7153 254.396 48.0156 253.937 48.2451C253.483 48.4746 252.912 48.6943 252.223 48.9043V46.458C253.239 46.1309 254.027 45.7378 254.589 45.2788C255.15 44.8198 255.59 44.2534 255.907 43.5796H258.375ZM261.62 49.0874C261.62 47.0464 261.986 45.6182 262.719 44.8027C263.456 43.9873 264.577 43.5796 266.081 43.5796C266.803 43.5796 267.396 43.6699 267.86 43.8506C268.324 44.0264 268.703 44.2583 268.996 44.5464C269.289 44.8296 269.518 45.1299 269.684 45.4473C269.855 45.7598 269.992 46.126 270.094 46.5459C270.294 47.3467 270.395 48.1816 270.395 49.0508C270.395 50.999 270.065 52.4248 269.406 53.3281C268.747 54.2314 267.611 54.6831 266 54.6831C265.097 54.6831 264.367 54.5391 263.81 54.251C263.253 53.9629 262.797 53.5405 262.44 52.9839C262.182 52.5884 261.979 52.0488 261.833 51.3652C261.691 50.6768 261.62 49.9175 261.62 49.0874ZM264.579 49.0947C264.579 50.4619 264.699 51.397 264.938 51.8999C265.182 52.3979 265.534 52.647 265.993 52.647C266.295 52.647 266.557 52.542 266.776 52.332C267.001 52.1172 267.165 51.7803 267.267 51.3213C267.375 50.8623 267.428 50.147 267.428 49.1753C267.428 47.7495 267.306 46.7925 267.062 46.3042C266.823 45.811 266.461 45.5645 265.978 45.5645C265.485 45.5645 265.128 45.8159 264.909 46.3188C264.689 46.8169 264.579 47.7422 264.579 49.0947ZM271.625 49.0874C271.625 47.0464 271.991 45.6182 272.724 44.8027C273.461 43.9873 274.582 43.5796 276.085 43.5796C276.808 43.5796 277.401 43.6699 277.865 43.8506C278.329 44.0264 278.708 44.2583 279 44.5464C279.293 44.8296 279.523 45.1299 279.689 45.4473C279.86 45.7598 279.997 46.126 280.099 46.5459C280.299 47.3467 280.399 48.1816 280.399 49.0508C280.399 50.999 280.07 52.4248 279.411 53.3281C278.751 54.2314 277.616 54.6831 276.005 54.6831C275.102 54.6831 274.372 54.5391 273.815 54.251C273.258 53.9629 272.802 53.5405 272.445 52.9839C272.187 52.5884 271.984 52.0488 271.837 51.3652C271.696 50.6768 271.625 49.9175 271.625 49.0874ZM274.584 49.0947C274.584 50.4619 274.704 51.397 274.943 51.8999C275.187 52.3979 275.539 52.647 275.998 52.647C276.3 52.647 276.562 52.542 276.781 52.332C277.006 52.1172 277.169 51.7803 277.272 51.3213C277.379 50.8623 277.433 50.147 277.433 49.1753C277.433 47.7495 277.311 46.7925 277.067 46.3042C276.828 45.811 276.466 45.5645 275.983 45.5645C275.49 45.5645 275.133 45.8159 274.914 46.3188C274.694 46.8169 274.584 47.7422 274.584 49.0947ZM281.63 49.0874C281.63 47.0464 281.996 45.6182 282.729 44.8027C283.466 43.9873 284.586 43.5796 286.09 43.5796C286.813 43.5796 287.406 43.6699 287.87 43.8506C288.334 44.0264 288.712 44.2583 289.005 44.5464C289.298 44.8296 289.528 45.1299 289.694 45.4473C289.865 45.7598 290.001 46.126 290.104 46.5459C290.304 47.3467 290.404 48.1816 290.404 49.0508C290.404 50.999 290.075 52.4248 289.416 53.3281C288.756 54.2314 287.621 54.6831 286.01 54.6831C285.106 54.6831 284.376 54.5391 283.82 54.251C283.263 53.9629 282.807 53.5405 282.45 52.9839C282.191 52.5884 281.989 52.0488 281.842 51.3652C281.701 50.6768 281.63 49.9175 281.63 49.0874ZM284.589 49.0947C284.589 50.4619 284.708 51.397 284.948 51.8999C285.192 52.3979 285.543 52.647 286.002 52.647C286.305 52.647 286.566 52.542 286.786 52.332C287.011 52.1172 287.174 51.7803 287.277 51.3213C287.384 50.8623 287.438 50.147 287.438 49.1753C287.438 47.7495 287.316 46.7925 287.072 46.3042C286.833 45.811 286.471 45.5645 285.988 45.5645C285.495 45.5645 285.138 45.8159 284.918 46.3188C284.699 46.8169 284.589 47.7422 284.589 49.0947Z" fill="white"/>
<path d="M203.751 66.3843L201.39 66.7588C201.271 66.4583 201.163 66.251 201.066 66.1367C200.973 66.0182 200.816 65.8997 200.596 65.7812V67.6157C201.883 67.9585 202.742 68.3203 203.173 68.7012C203.745 69.2132 204.03 69.8628 204.03 70.6499C204.03 71.1112 203.927 71.5343 203.719 71.9194C203.516 72.3045 203.254 72.6261 202.932 72.8843C202.615 73.1424 202.276 73.3307 201.917 73.4492C201.557 73.5635 201.117 73.6312 200.596 73.6523V74.8521H199.669V73.6523C199.047 73.5973 198.542 73.4979 198.152 73.354C197.767 73.2059 197.433 73.0028 197.149 72.7446C196.87 72.4865 196.654 72.2093 196.502 71.9131C196.35 71.6126 196.235 71.2508 196.159 70.8276L198.724 70.5293C198.8 70.9482 198.901 71.2508 199.028 71.437C199.16 71.6232 199.373 71.7882 199.669 71.9321V69.6914C198.815 69.4544 198.207 69.2492 197.848 69.0757C197.492 68.9022 197.183 68.625 196.921 68.2441C196.659 67.859 196.527 67.3914 196.527 66.8413C196.527 66.0881 196.79 65.4596 197.314 64.9561C197.843 64.4482 198.628 64.1668 199.669 64.1118V63.4834H200.596V64.1118C201.544 64.1711 202.268 64.3953 202.767 64.7847C203.271 65.174 203.599 65.7072 203.751 66.3843ZM199.669 65.7495C199.399 65.8384 199.21 65.9484 199.104 66.0796C198.999 66.2108 198.946 66.3652 198.946 66.543C198.946 66.7292 198.999 66.8921 199.104 67.0317C199.215 67.1672 199.403 67.2814 199.669 67.3745V65.7495ZM200.596 71.9956C200.956 71.9152 201.218 71.784 201.383 71.6021C201.553 71.4159 201.637 71.2085 201.637 70.98C201.637 70.7811 201.565 70.5991 201.421 70.4341C201.282 70.2648 201.007 70.1082 200.596 69.9644V71.9956ZM209.464 71.7607H204.754V69.6343L209.464 64.0356H211.717V69.7549H212.885V71.7607H211.717V73.5H209.464V71.7607ZM209.464 69.7549V66.8286L206.976 69.7549H209.464ZM213.945 70.9102H216.707V73.5H213.945V70.9102ZM222.464 71.7607H217.754V69.6343L222.464 64.0356H224.717V69.7549H225.885V71.7607H224.717V73.5H222.464V71.7607ZM222.464 69.7549V66.8286L219.976 69.7549H222.464ZM226.691 68.8091C226.691 67.0402 227.009 65.8024 227.644 65.0957C228.283 64.389 229.254 64.0356 230.557 64.0356C231.183 64.0356 231.698 64.1139 232.1 64.2705C232.502 64.4229 232.83 64.6239 233.083 64.8735C233.337 65.119 233.536 65.3792 233.68 65.6543C233.828 65.9251 233.947 66.2425 234.036 66.6064C234.209 67.3005 234.296 68.0241 234.296 68.7773C234.296 70.4658 234.01 71.7015 233.439 72.4844C232.868 73.2673 231.884 73.6587 230.487 73.6587C229.704 73.6587 229.072 73.5339 228.589 73.2842C228.107 73.0345 227.711 72.6685 227.402 72.186C227.178 71.8433 227.002 71.3757 226.875 70.7832C226.753 70.1865 226.691 69.5285 226.691 68.8091ZM229.256 68.8154C229.256 70.0003 229.36 70.8107 229.567 71.2466C229.778 71.6782 230.083 71.894 230.481 71.894C230.743 71.894 230.97 71.8031 231.16 71.6211C231.355 71.4349 231.497 71.1429 231.585 70.7451C231.679 70.3473 231.725 69.7274 231.725 68.8853C231.725 67.6496 231.619 66.8201 231.408 66.397C231.2 65.9696 230.887 65.7559 230.468 65.7559C230.041 65.7559 229.732 65.9738 229.542 66.4097C229.351 66.8413 229.256 67.6432 229.256 68.8154ZM235.362 68.8091C235.362 67.0402 235.68 65.8024 236.314 65.0957C236.953 64.389 237.925 64.0356 239.228 64.0356C239.854 64.0356 240.368 64.1139 240.771 64.2705C241.173 64.4229 241.5 64.6239 241.754 64.8735C242.008 65.119 242.207 65.3792 242.351 65.6543C242.499 65.9251 242.618 66.2425 242.707 66.6064C242.88 67.3005 242.967 68.0241 242.967 68.7773C242.967 70.4658 242.681 71.7015 242.11 72.4844C241.539 73.2673 240.555 73.6587 239.158 73.6587C238.375 73.6587 237.743 73.5339 237.26 73.2842C236.778 73.0345 236.382 72.6685 236.073 72.186C235.849 71.8433 235.673 71.3757 235.546 70.7832C235.424 70.1865 235.362 69.5285 235.362 68.8091ZM237.927 68.8154C237.927 70.0003 238.03 70.8107 238.238 71.2466C238.449 71.6782 238.754 71.894 239.152 71.894C239.414 71.894 239.641 71.8031 239.831 71.6211C240.026 71.4349 240.167 71.1429 240.256 70.7451C240.349 70.3473 240.396 69.7274 240.396 68.8853C240.396 67.6496 240.29 66.8201 240.079 66.397C239.871 65.9696 239.558 65.7559 239.139 65.7559C238.712 65.7559 238.403 65.9738 238.212 66.4097C238.022 66.8413 237.927 67.6432 237.927 68.8154ZM244.033 68.8091C244.033 67.0402 244.351 65.8024 244.985 65.0957C245.624 64.389 246.596 64.0356 247.899 64.0356C248.525 64.0356 249.039 64.1139 249.441 64.2705C249.843 64.4229 250.171 64.6239 250.425 64.8735C250.679 65.119 250.878 65.3792 251.022 65.6543C251.17 65.9251 251.289 66.2425 251.377 66.6064C251.551 67.3005 251.638 68.0241 251.638 68.7773C251.638 70.4658 251.352 71.7015 250.781 72.4844C250.209 73.2673 249.226 73.6587 247.829 73.6587C247.046 73.6587 246.414 73.5339 245.931 73.2842C245.449 73.0345 245.053 72.6685 244.744 72.186C244.52 71.8433 244.344 71.3757 244.217 70.7832C244.095 70.1865 244.033 69.5285 244.033 68.8091ZM246.598 68.8154C246.598 70.0003 246.701 70.8107 246.909 71.2466C247.12 71.6782 247.425 71.894 247.823 71.894C248.085 71.894 248.312 71.8031 248.502 71.6211C248.697 71.4349 248.838 71.1429 248.927 70.7451C249.02 70.3473 249.067 69.7274 249.067 68.8853C249.067 67.6496 248.961 66.8201 248.75 66.397C248.542 65.9696 248.229 65.7559 247.81 65.7559C247.383 65.7559 247.074 65.9738 246.883 66.4097C246.693 66.8413 246.598 67.6432 246.598 68.8154ZM252.704 68.8091C252.704 67.0402 253.021 65.8024 253.656 65.0957C254.295 64.389 255.266 64.0356 256.57 64.0356C257.196 64.0356 257.71 64.1139 258.112 64.2705C258.514 64.4229 258.842 64.6239 259.096 64.8735C259.35 65.119 259.549 65.3792 259.693 65.6543C259.841 65.9251 259.959 66.2425 260.048 66.6064C260.222 67.3005 260.309 68.0241 260.309 68.7773C260.309 70.4658 260.023 71.7015 259.452 72.4844C258.88 73.2673 257.896 73.6587 256.5 73.6587C255.717 73.6587 255.084 73.5339 254.602 73.2842C254.12 73.0345 253.724 72.6685 253.415 72.186C253.191 71.8433 253.015 71.3757 252.888 70.7832C252.765 70.1865 252.704 69.5285 252.704 68.8091ZM255.269 68.8154C255.269 70.0003 255.372 70.8107 255.58 71.2466C255.791 71.6782 256.096 71.894 256.494 71.894C256.756 71.894 256.982 71.8031 257.173 71.6211C257.368 71.4349 257.509 71.1429 257.598 70.7451C257.691 70.3473 257.738 69.7274 257.738 68.8853C257.738 67.6496 257.632 66.8201 257.42 66.397C257.213 65.9696 256.9 65.7559 256.481 65.7559C256.054 65.7559 255.745 65.9738 255.554 66.4097C255.364 66.8413 255.269 67.6432 255.269 68.8154ZM261.375 68.8091C261.375 67.0402 261.692 65.8024 262.327 65.0957C262.966 64.389 263.937 64.0356 265.241 64.0356C265.867 64.0356 266.381 64.1139 266.783 64.2705C267.185 64.4229 267.513 64.6239 267.767 64.8735C268.021 65.119 268.22 65.3792 268.364 65.6543C268.512 65.9251 268.63 66.2425 268.719 66.6064C268.893 67.3005 268.979 68.0241 268.979 68.7773C268.979 70.4658 268.694 71.7015 268.123 72.4844C267.551 73.2673 266.567 73.6587 265.171 73.6587C264.388 73.6587 263.755 73.5339 263.273 73.2842C262.791 73.0345 262.395 72.6685 262.086 72.186C261.862 71.8433 261.686 71.3757 261.559 70.7832C261.436 70.1865 261.375 69.5285 261.375 68.8091ZM263.939 68.8154C263.939 70.0003 264.043 70.8107 264.25 71.2466C264.462 71.6782 264.767 71.894 265.165 71.894C265.427 71.894 265.653 71.8031 265.844 71.6211C266.038 71.4349 266.18 71.1429 266.269 70.7451C266.362 70.3473 266.409 69.7274 266.409 68.8853C266.409 67.6496 266.303 66.8201 266.091 66.397C265.884 65.9696 265.571 65.7559 265.152 65.7559C264.724 65.7559 264.416 65.9738 264.225 66.4097C264.035 66.8413 263.939 67.6432 263.939 68.8154ZM270.046 68.8091C270.046 67.0402 270.363 65.8024 270.998 65.0957C271.637 64.389 272.608 64.0356 273.912 64.0356C274.538 64.0356 275.052 64.1139 275.454 64.2705C275.856 64.4229 276.184 64.6239 276.438 64.8735C276.692 65.119 276.891 65.3792 277.035 65.6543C277.183 65.9251 277.301 66.2425 277.39 66.6064C277.564 67.3005 277.65 68.0241 277.65 68.7773C277.65 70.4658 277.365 71.7015 276.793 72.4844C276.222 73.2673 275.238 73.6587 273.842 73.6587C273.059 73.6587 272.426 73.5339 271.944 73.2842C271.461 73.0345 271.066 72.6685 270.757 72.186C270.533 71.8433 270.357 71.3757 270.23 70.7832C270.107 70.1865 270.046 69.5285 270.046 68.8091ZM272.61 68.8154C272.61 70.0003 272.714 70.8107 272.921 71.2466C273.133 71.6782 273.438 71.894 273.835 71.894C274.098 71.894 274.324 71.8031 274.515 71.6211C274.709 71.4349 274.851 71.1429 274.94 70.7451C275.033 70.3473 275.08 69.7274 275.08 68.8853C275.08 67.6496 274.974 66.8201 274.762 66.397C274.555 65.9696 274.242 65.7559 273.823 65.7559C273.395 65.7559 273.086 65.9738 272.896 66.4097C272.706 66.8413 272.61 67.6432 272.61 68.8154Z" fill="#7C8499"/>
</g>
<path d="M179.377 86.218V87.141H182.653V95.5H183.706V87.141H186.982V86.218H179.377ZM196.461 84.606V85.386C196.461 85.932 196.175 86.218 195.616 86.218H194.433V91.951C194.433 92.861 194.225 93.55 193.822 94.018C193.38 94.499 192.704 94.746 191.794 94.746C190.871 94.746 190.195 94.499 189.766 94.018C189.35 93.55 189.155 92.861 189.155 91.951V86.218H188.089V91.938C188.089 93.147 188.401 94.07 189.025 94.72C189.649 95.357 190.572 95.682 191.794 95.682C193.016 95.682 193.939 95.357 194.576 94.707C195.187 94.07 195.499 93.147 195.499 91.938V86.985H195.928C196.877 86.985 197.358 86.478 197.358 85.464V84.606H196.461ZM192.423 96.436C192.241 96.436 192.111 96.488 192.007 96.605C191.89 96.709 191.838 96.852 191.838 97.034C191.838 97.19 191.89 97.333 192.007 97.45C192.111 97.554 192.241 97.606 192.423 97.606C192.592 97.606 192.735 97.554 192.852 97.45C192.956 97.333 193.008 97.19 193.008 97.034C193.008 96.852 192.956 96.709 192.852 96.605C192.735 96.488 192.592 96.436 192.423 96.436ZM206.091 86.218C207.018 86.218 207.824 86.3913 208.509 86.738C209.193 87.0847 209.722 87.596 210.095 88.272C210.476 88.9393 210.667 89.7713 210.667 90.768C210.667 91.808 210.472 92.679 210.082 93.381C209.7 94.083 209.146 94.6117 208.418 94.967C207.698 95.3223 206.827 95.5 205.805 95.5H203.322V91.418H202.36V90.404H203.322V86.218H206.091ZM205.922 87.219H204.492V90.404H206.806V91.418H204.492V94.499H205.662C206.927 94.499 207.872 94.1913 208.496 93.576C209.12 92.952 209.432 92.029 209.432 90.807C209.432 89.9837 209.293 89.3077 209.016 88.779C208.738 88.2503 208.34 87.8603 207.82 87.609C207.3 87.349 206.667 87.219 205.922 87.219ZM216.016 83.891L214.612 85.542H215.314L216.458 84.385L217.589 85.542H218.291L216.887 83.891H216.016ZM216.458 86.036C215.054 86.036 213.962 86.504 213.156 87.44C212.389 88.324 212.012 89.468 212.012 90.872C212.012 92.263 212.389 93.407 213.156 94.291C213.962 95.214 215.054 95.682 216.445 95.682C217.836 95.682 218.941 95.214 219.747 94.291C220.501 93.407 220.891 92.276 220.891 90.872C220.891 89.455 220.501 88.311 219.747 87.427C218.941 86.491 217.836 86.036 216.458 86.036ZM216.458 86.985C217.524 86.985 218.356 87.336 218.954 88.051C219.526 88.753 219.825 89.689 219.825 90.872C219.825 92.042 219.526 92.965 218.954 93.667C218.356 94.369 217.511 94.733 216.445 94.733C215.379 94.733 214.534 94.369 213.936 93.641C213.364 92.939 213.078 92.016 213.078 90.872C213.078 89.715 213.364 88.792 213.936 88.09C214.547 87.349 215.392 86.985 216.458 86.985ZM216.442 96.436C216.26 96.436 216.13 96.488 216.026 96.605C215.909 96.709 215.857 96.852 215.857 97.034C215.857 97.19 215.909 97.333 216.026 97.45C216.13 97.554 216.26 97.606 216.442 97.606C216.611 97.606 216.754 97.554 216.871 97.45C216.975 97.333 217.027 97.19 217.027 97.034C217.027 96.852 216.975 96.709 216.871 96.605C216.754 96.488 216.611 96.436 216.442 96.436ZM222.368 86.218V95.5H223.434V87.869H223.473L228.751 95.5H229.843V86.218H228.777V93.771H228.738L223.486 86.218H222.368ZM235.676 86.036C234.311 86.036 233.232 86.517 232.439 87.492C231.685 88.389 231.321 89.52 231.321 90.898C231.321 92.276 231.698 93.407 232.452 94.278C233.258 95.214 234.402 95.682 235.871 95.682C236.638 95.682 237.353 95.578 238.029 95.37C238.666 95.162 239.212 94.889 239.654 94.525V90.729H235.689V91.652H238.601V94.018C238.276 94.226 237.886 94.408 237.431 94.538C236.963 94.668 236.482 94.746 235.975 94.746C234.766 94.746 233.856 94.382 233.245 93.667C232.673 92.991 232.387 92.068 232.387 90.898C232.387 89.702 232.673 88.753 233.271 88.051C233.869 87.336 234.662 86.985 235.676 86.985C236.495 86.985 237.158 87.18 237.665 87.583C238.146 87.96 238.458 88.493 238.601 89.195H239.667C239.498 88.181 239.095 87.414 238.445 86.881C237.756 86.309 236.833 86.036 235.676 86.036Z" fill="white"/>
<rect x="244.5" y="81.5" width="36" height="20" rx="10" fill="#7C8499"/>
<circle cx="270.5" cy="91.5" r="8" fill="white"/>
<rect x="23.5" y="20.5" width="412" height="99" rx="9.5" stroke="#55657E"/>
<rect x="23" y="125" width="204" height="28" rx="10" fill="#383C45"/>
<path d="M117.881 133.79V144.5H116.246V135.755C115.586 136.375 114.766 136.825 113.786 137.105V135.485C114.266 135.365 114.776 135.155 115.316 134.855C115.856 134.515 116.296 134.16 116.636 133.79H117.881ZM128.315 132.2L123.08 146H121.685L126.935 132.2H128.315ZM133.415 133.58C134.455 133.58 135.3 133.875 135.95 134.465C136.6 135.065 136.925 135.835 136.925 136.775C136.925 137.685 136.575 138.53 135.875 139.31C135.455 139.74 134.715 140.315 133.655 141.035C132.505 141.795 131.815 142.47 131.585 143.06H136.94V144.5H129.56C129.56 143.43 129.915 142.495 130.625 141.695C130.995 141.255 131.8 140.605 133.04 139.745C133.77 139.225 134.28 138.815 134.57 138.515C135.06 137.965 135.305 137.38 135.305 136.76C135.305 136.16 135.14 135.71 134.81 135.41C134.48 135.11 133.995 134.96 133.355 134.96C132.675 134.96 132.165 135.19 131.825 135.65C131.475 136.09 131.285 136.745 131.255 137.615H129.62C129.64 136.415 129.985 135.455 130.655 134.735C131.335 133.965 132.255 133.58 133.415 133.58Z" fill="#7C8499"/>
<rect x="232" y="125" width="204" height="28" rx="10" fill="#383C45"/>
<path d="M330.191 133.58C331.231 133.58 332.076 133.875 332.726 134.465C333.376 135.065 333.701 135.835 333.701 136.775C333.701 137.685 333.351 138.53 332.651 139.31C332.231 139.74 331.491 140.315 330.431 141.035C329.281 141.795 328.591 142.47 328.361 143.06H333.716V144.5H326.336C326.336 143.43 326.691 142.495 327.401 141.695C327.771 141.255 328.576 140.605 329.816 139.745C330.546 139.225 331.056 138.815 331.346 138.515C331.836 137.965 332.081 137.38 332.081 136.76C332.081 136.16 331.916 135.71 331.586 135.41C331.256 135.11 330.771 134.96 330.131 134.96C329.451 134.96 328.941 135.19 328.601 135.65C328.251 136.09 328.061 136.745 328.031 137.615H326.396C326.416 136.415 326.761 135.455 327.431 134.735C328.111 133.965 329.031 133.58 330.191 133.58ZM336.8 136.745L338.51 139.205L340.205 136.745H342.065L339.38 140.375L342.395 144.5H340.535L338.51 141.545L336.47 144.5H334.595L337.625 140.375L334.94 136.745H336.8Z" fill="#7C8499"/>
<rect x="24" y="194" width="201" height="50" rx="10" fill="#343F5A"/>
<g filter="url(#filter0_d_2870_22239)">
<path d="M118.778 212.396C120.026 212.396 121.04 212.75 121.82 213.458C122.6 214.178 122.99 215.102 122.99 216.23C122.99 217.322 122.57 218.336 121.73 219.272C121.226 219.788 120.338 220.478 119.066 221.342C117.686 222.254 116.858 223.064 116.582 223.772H123.008V225.5H114.152C114.152 224.216 114.578 223.094 115.43 222.134C115.874 221.606 116.84 220.826 118.328 219.794C119.204 219.17 119.816 218.678 120.164 218.318C120.752 217.658 121.046 216.956 121.046 216.212C121.046 215.492 120.848 214.952 120.452 214.592C120.056 214.232 119.474 214.052 118.706 214.052C117.89 214.052 117.278 214.328 116.87 214.88C116.45 215.408 116.222 216.194 116.186 217.238H114.224C114.248 215.798 114.662 214.646 115.466 213.782C116.282 212.858 117.386 212.396 118.778 212.396ZM126.763 212.648L129.895 217.292L133.027 212.648H135.421L131.065 218.858L135.727 225.5H133.333L129.895 220.406L126.457 225.5H124.063L128.689 218.858L124.369 212.648H126.763Z" fill="white"/>
</g>
<rect x="235" y="194" width="201" height="50" rx="10" fill="#FA305C"/>
<g filter="url(#filter1_d_2870_22239)">
<path d="M329.706 212.396C331.002 212.396 332.04 212.708 332.82 213.332C333.588 213.968 333.972 214.832 333.972 215.924C333.972 217.34 333.264 218.282 331.848 218.75C332.592 218.978 333.168 219.332 333.576 219.812C334.008 220.292 334.224 220.916 334.224 221.684C334.224 222.872 333.816 223.844 333 224.6C332.124 225.368 331.002 225.752 329.634 225.752C328.326 225.752 327.27 225.416 326.466 224.744C325.566 223.988 325.062 222.89 324.954 221.45H326.934C326.97 222.326 327.252 222.992 327.78 223.448C328.248 223.88 328.86 224.096 329.616 224.096C330.432 224.096 331.098 223.856 331.614 223.376C332.058 222.932 332.28 222.398 332.28 221.774C332.28 221.018 332.046 220.46 331.578 220.1C331.146 219.74 330.504 219.56 329.652 219.56H328.716V218.084H329.634C330.414 218.084 331.008 217.91 331.416 217.562C331.824 217.214 332.028 216.716 332.028 216.068C332.028 215.432 331.842 214.94 331.47 214.592C331.086 214.244 330.504 214.07 329.724 214.07C328.944 214.07 328.338 214.268 327.906 214.664C327.462 215.072 327.204 215.666 327.132 216.446H325.206C325.314 215.174 325.788 214.178 326.628 213.458C327.408 212.75 328.434 212.396 329.706 212.396ZM337.763 212.648L340.895 217.292L344.027 212.648H346.421L342.065 218.858L346.727 225.5H344.333L340.895 220.406L337.457 225.5H335.063L339.689 218.858L335.369 212.648H337.763Z" fill="white"/>
</g>
<rect x="24" y="254" width="201" height="50" rx="10" fill="#32D54E"/>
<g filter="url(#filter2_d_2870_22239)">
<path d="M122.63 272.648V274.376H116.474L116.096 278.084H116.15C116.546 277.676 117.002 277.382 117.518 277.202C117.974 277.01 118.502 276.914 119.102 276.914C120.314 276.914 121.298 277.31 122.054 278.102C122.822 278.906 123.206 279.992 123.206 281.36C123.206 282.68 122.714 283.766 121.73 284.618C120.818 285.374 119.72 285.752 118.436 285.752C117.296 285.752 116.306 285.434 115.466 284.798C114.554 284.114 114.05 283.172 113.954 281.972H115.88C115.952 282.704 116.234 283.25 116.726 283.61C117.158 283.934 117.734 284.096 118.454 284.096C119.234 284.096 119.9 283.85 120.452 283.358C120.992 282.854 121.262 282.194 121.262 281.378C121.262 280.478 121.028 279.776 120.56 279.272C120.092 278.768 119.432 278.516 118.58 278.516C117.992 278.516 117.494 278.618 117.086 278.822C116.63 279.026 116.276 279.368 116.024 279.848H114.188L114.89 272.648H122.63ZM126.763 272.648L129.895 277.292L133.027 272.648H135.421L131.065 278.858L135.727 285.5H133.333L129.895 280.406L126.457 285.5H124.063L128.689 278.858L124.369 272.648H126.763Z" fill="white"/>
</g>
<rect x="235" y="254" width="201" height="50" rx="10" fill="#E7C300"/>
<g filter="url(#filter3_d_2870_22239)">
<path d="M328.233 272.648V274.376H322.077L321.699 278.084H321.753C322.149 277.676 322.605 277.382 323.121 277.202C323.577 277.01 324.105 276.914 324.705 276.914C325.917 276.914 326.901 277.31 327.657 278.102C328.425 278.906 328.809 279.992 328.809 281.36C328.809 282.68 328.317 283.766 327.333 284.618C326.421 285.374 325.323 285.752 324.039 285.752C322.899 285.752 321.909 285.434 321.069 284.798C320.157 284.114 319.653 283.172 319.557 281.972H321.483C321.555 282.704 321.837 283.25 322.329 283.61C322.761 283.934 323.337 284.096 324.057 284.096C324.837 284.096 325.503 283.85 326.055 283.358C326.595 282.854 326.865 282.194 326.865 281.378C326.865 280.478 326.631 279.776 326.163 279.272C325.695 278.768 325.035 278.516 324.183 278.516C323.595 278.516 323.097 278.618 322.689 278.822C322.233 279.026 321.879 279.368 321.627 279.848H319.791L320.493 272.648H328.233ZM334.976 272.396C336.488 272.396 337.658 273.032 338.486 274.304C339.242 275.492 339.62 277.082 339.62 279.074C339.62 281.066 339.242 282.656 338.486 283.844C337.646 285.116 336.476 285.752 334.976 285.752C333.476 285.752 332.306 285.116 331.466 283.844C330.71 282.656 330.332 281.066 330.332 279.074C330.332 277.058 330.71 275.468 331.466 274.304C332.294 273.032 333.464 272.396 334.976 272.396ZM334.976 274.052C333.92 274.052 333.176 274.634 332.744 275.798C332.432 276.566 332.276 277.658 332.276 279.074C332.276 280.478 332.432 281.57 332.744 282.35C333.176 283.514 333.92 284.096 334.976 284.096C336.032 284.096 336.776 283.514 337.208 282.35C337.52 281.522 337.676 280.43 337.676 279.074C337.676 277.694 337.52 276.602 337.208 275.798C336.776 274.634 336.032 274.052 334.976 274.052ZM343.159 272.648L346.291 277.292L349.423 272.648H351.817L347.461 278.858L352.123 285.5H349.729L346.291 280.406L342.853 285.5H340.459L345.085 278.858L340.765 272.648H343.159Z" fill="white"/>
</g>
</g>
<defs>
<filter id="filter0_d_2870_22239" x="110.152" y="210.395" width="29.5742" height="21.1055" filterUnits="userSpaceOnUse" color-interpolation-filters="sRGB">
<feFlood flood-opacity="0" result="BackgroundImageFix"/>
<feColorMatrix in="SourceAlpha" type="matrix" values="0 0 0 0 0 0 0 0 0 0 0 0 0 0 0 0 0 0 127 0" result="hardAlpha"/>
<feOffset dy="2"/>
<feGaussianBlur stdDeviation="2"/>
<feComposite in2="hardAlpha" operator="out"/>
<feColorMatrix type="matrix" values="0 0 0 0 0 0 0 0 0 0 0 0 0 0 0 0 0 0 0.3 0"/>
<feBlend mode="normal" in2="BackgroundImageFix" result="effect1_dropShadow_2870_22239"/>
<feBlend mode="normal" in="SourceGraphic" in2="effect1_dropShadow_2870_22239" result="shape"/>
</filter>
<filter id="filter1_d_2870_22239" x="320.953" y="210.395" width="29.7734" height="21.3594" filterUnits="userSpaceOnUse" color-interpolation-filters="sRGB">
<feFlood flood-opacity="0" result="BackgroundImageFix"/>
<feColorMatrix in="SourceAlpha" type="matrix" values="0 0 0 0 0 0 0 0 0 0 0 0 0 0 0 0 0 0 127 0" result="hardAlpha"/>
<feOffset dy="2"/>
<feGaussianBlur stdDeviation="2"/>
<feComposite in2="hardAlpha" operator="out"/>
<feColorMatrix type="matrix" values="0 0 0 0 0 0 0 0 0 0 0 0 0 0 0 0 0 0 0.3 0"/>
<feBlend mode="normal" in2="BackgroundImageFix" result="effect1_dropShadow_2870_22239"/>
<feBlend mode="normal" in="SourceGraphic" in2="effect1_dropShadow_2870_22239" result="shape"/>
</filter>
<filter id="filter2_d_2870_22239" x="109.953" y="270.648" width="29.7734" height="21.1055" filterUnits="userSpaceOnUse" color-interpolation-filters="sRGB">
<feFlood flood-opacity="0" result="BackgroundImageFix"/>
<feColorMatrix in="SourceAlpha" type="matrix" values="0 0 0 0 0 0 0 0 0 0 0 0 0 0 0 0 0 0 127 0" result="hardAlpha"/>
<feOffset dy="2"/>
<feGaussianBlur stdDeviation="2"/>
<feComposite in2="hardAlpha" operator="out"/>
<feColorMatrix type="matrix" values="0 0 0 0 0 0 0 0 0 0 0 0 0 0 0 0 0 0 0.3 0"/>
<feBlend mode="normal" in2="BackgroundImageFix" result="effect1_dropShadow_2870_22239"/>
<feBlend mode="normal" in="SourceGraphic" in2="effect1_dropShadow_2870_22239" result="shape"/>
</filter>
<filter id="filter3_d_2870_22239" x="315.559" y="270.395" width="40.5664" height="21.3594" filterUnits="userSpaceOnUse" color-interpolation-filters="sRGB">
<feFlood flood-opacity="0" result="BackgroundImageFix"/>
<feColorMatrix in="SourceAlpha" type="matrix" values="0 0 0 0 0 0 0 0 0 0 0 0 0 0 0 0 0 0 127 0" result="hardAlpha"/>
<feOffset dy="2"/>
<feGaussianBlur stdDeviation="2"/>
<feComposite in2="hardAlpha" operator="out"/>
<feColorMatrix type="matrix" values="0 0 0 0 0 0 0 0 0 0 0 0 0 0 0 0 0 0 0.3 0"/>
<feBlend mode="normal" in2="BackgroundImageFix" result="effect1_dropShadow_2870_22239"/>
<feBlend mode="normal" in="SourceGraphic" in2="effect1_dropShadow_2870_22239" result="shape"/>
</filter>
<clipPath id="clip0_2870_22239">
<rect width="413" height="284" fill="white" transform="translate(23.5 20)"/>
</clipPath>
<clipPath id="clip1_2870_22239">
<rect width="124" height="39" fill="white" transform="translate(167.5 38.5)"/>
</clipPath>
<clipPath id="clip2_2870_22239">
<rect width="24" height="24" fill="white" transform="translate(167.5 38.5)"/>
</clipPath>
</defs>
</svg>
