<svg width="460" height="323" viewBox="0 0 460 323" fill="none" xmlns="http://www.w3.org/2000/svg">
<rect width="460" height="323" rx="10" fill="#0D131C"/>
<g clip-path="url(#clip0_2870_22250)">
<circle cx="230" cy="161.5" r="141.5" fill="#0D131C"/>
<path d="M95.4525 145.526C94.8271 150.802 94.5012 156.051 94.4858 161.229L230.439 161.604L95.4525 145.526Z" fill="#FA305C" stroke="#0D131C" stroke-width="2.25798"/>
<path d="M98.2305 130.012C96.9931 135.19 96.1014 140.353 95.4519 145.525L230.438 161.603L98.2305 130.012Z" fill="#5D6B8F" stroke="#0D131C" stroke-width="2.25798"/>
<path d="M94.4837 161.228C94.4924 166.508 94.7433 171.798 95.362 176.98L230.437 161.603L94.4837 161.228Z" fill="#5D6B8F" stroke="#0D131C" stroke-width="2.25798"/>
<path d="M283.294 286.012C288.137 283.944 292.862 281.554 297.446 278.934L230.438 161.605L283.294 286.012Z" fill="#FA305C" stroke="#0D131C" stroke-width="2.25798"/>
<path d="M310.591 270.346C314.869 267.165 319.007 263.755 322.922 260.047L230.438 161.605L310.591 270.346Z" fill="#32D54E" stroke="#0D131C" stroke-width="2.25798"/>
<path d="M221.846 296.744C227.094 297.069 232.328 297.049 237.478 296.765L230.438 161.605L221.846 296.744Z" fill="#FA305C" stroke="#0D131C" stroke-width="2.25798"/>
<path d="M253.092 295.022C258.293 294.114 263.468 292.907 268.513 291.424L230.438 161.605L253.092 295.022Z" fill="#FA305C" stroke="#0D131C" stroke-width="2.25798"/>
<path d="M237.524 296.776C242.778 296.467 247.948 295.894 253.092 295.022L230.438 161.605L237.524 296.776Z" fill="#5D6B8F" stroke="#0D131C" stroke-width="2.25798"/>
<path d="M297.446 278.934C301.984 276.304 306.381 273.445 310.591 270.346L230.438 161.605L297.446 278.934Z" fill="#5D6B8F" stroke="#0D131C" stroke-width="2.25798"/>
<path d="M357.106 208.197C358.923 203.255 360.472 198.2 361.721 192.976L230.438 161.605L357.106 208.197Z" fill="#5D6B8F" stroke="#0D131C" stroke-width="2.25798"/>
<path d="M350.892 222.548C353.219 217.923 355.29 213.14 357.106 208.197L230.438 161.605L350.892 222.548Z" fill="#FA305C" stroke="#0D131C" stroke-width="2.25798"/>
<path d="M342.987 236.201C345.893 231.813 348.543 227.265 350.903 222.502L230.438 161.605L342.987 236.201Z" fill="#5D6B8F" stroke="#0D131C" stroke-width="2.25798"/>
<path d="M333.516 248.845C336.91 244.866 340.07 240.636 342.987 236.201L230.438 161.605L333.516 248.845Z" fill="#32D54E" stroke="#0D131C" stroke-width="2.25798"/>
<path d="M322.876 260.036C326.598 256.527 330.179 252.788 333.516 248.845L230.438 161.605L322.876 260.036Z" fill="#5D6B8F" stroke="#0D131C" stroke-width="2.25798"/>
<path d="M268.478 291.367C273.535 289.838 278.497 288.091 283.294 286.012L230.438 161.605L268.478 291.367Z" fill="#5D6B8F" stroke="#0D131C" stroke-width="2.25798"/>
<path d="M108.719 221.911C111.097 226.683 113.716 231.267 116.62 235.676L230.439 161.605L108.719 221.911Z" fill="#5D6B8F" stroke="#0D131C" stroke-width="2.25798"/>
<path d="M116.62 235.677C119.49 240.029 122.542 244.228 125.892 248.205L230.439 161.606L116.62 235.677Z" fill="#32D54E" stroke="#0D131C" stroke-width="2.25798"/>
<path d="M102.552 207.437C104.356 212.364 106.377 217.197 108.731 221.865L230.44 161.605L102.552 207.437Z" fill="#FA305C" stroke="#0D131C" stroke-width="2.25798"/>
<path d="M95.365 176.981C95.9616 182.256 96.8686 187.458 98.0862 192.587L230.44 161.605L95.365 176.981Z" fill="#FA305C" stroke="#0D131C" stroke-width="2.25798"/>
<path d="M98.082 192.586C99.2644 197.658 100.768 202.612 102.537 207.482L230.436 161.604L98.082 192.586Z" fill="#5D6B8F" stroke="#0D131C" stroke-width="2.25798"/>
<path d="M125.891 248.202C129.311 252.294 132.925 256.188 136.79 259.849L230.438 161.603L125.891 248.202Z" fill="#5D6B8F" stroke="#0D131C" stroke-width="2.25798"/>
<path d="M176.082 285.808C180.819 287.869 185.725 289.627 190.778 291.177L230.438 161.606L176.082 285.808Z" fill="#5D6B8F" stroke="#0D131C" stroke-width="2.25798"/>
<path d="M206.218 294.867C211.461 295.826 216.69 296.44 221.892 296.755L230.438 161.605L206.218 294.867Z" fill="#5D6B8F" stroke="#0D131C" stroke-width="2.25798"/>
<path d="M136.792 259.85C140.576 263.442 144.565 266.79 148.794 269.951L230.44 161.604L136.792 259.85Z" fill="#32D54E" stroke="#0D131C" stroke-width="2.25798"/>
<path d="M190.78 291.175C193.289 291.921 195.856 292.632 198.49 293.261C201.079 293.88 203.644 294.395 206.219 294.864L230.439 161.603L190.78 291.175Z" fill="#FA305C" stroke="#0D131C" stroke-width="2.25798"/>
<path d="M148.783 269.996C153.012 273.157 157.4 276.063 162.039 278.736L230.44 161.603L148.783 269.996Z" fill="#5D6B8F" stroke="#0D131C" stroke-width="2.25798"/>
<path d="M161.992 278.728C166.503 281.321 171.209 283.716 176.037 285.799L230.44 161.607L161.992 278.728Z" fill="#FA305C" stroke="#0D131C" stroke-width="2.25798"/>
<path d="M102.813 114.931C104.64 109.942 106.723 105.112 109.05 100.488L230.486 161.616L102.813 114.931Z" fill="#5D6B8F" stroke="#0D131C" stroke-width="2.25798"/>
<path d="M98.2734 130.023C99.5108 124.845 101.05 119.837 102.809 114.93L230.481 161.615L98.2734 130.023Z" fill="#32D54E" stroke="#0D131C" stroke-width="2.25798"/>
<path d="M109.048 100.487C111.443 95.7809 114.058 91.1762 116.952 86.8338L230.484 161.615L109.048 100.487Z" fill="#32D54E" stroke="#0D131C" stroke-width="2.25798"/>
<path d="M333.874 74.546C337.259 78.5805 340.393 82.8484 343.297 87.2569L230.484 161.617L333.874 74.546Z" fill="#5D6B8F" stroke="#0D131C" stroke-width="2.25798"/>
<path d="M351.139 100.861C353.517 105.632 355.666 110.544 357.483 115.622L230.484 161.617L351.139 100.861Z" fill="#5D6B8F" stroke="#0D131C" stroke-width="2.25798"/>
<path d="M283.916 37.1935C288.745 39.276 293.404 41.66 297.869 44.2421L230.484 161.617L283.916 37.1935Z" fill="#5D6B8F" stroke="#0D131C" stroke-width="2.25798"/>
<path d="M311.008 52.8556C315.237 56.0167 319.307 59.433 323.137 63.0363L230.484 161.617L311.008 52.8556Z" fill="#5D6B8F" stroke="#0D131C" stroke-width="2.25798"/>
<path d="M297.915 44.2531C302.461 46.9035 306.814 49.7519 311.008 52.8556L230.484 161.617L297.915 44.2531Z" fill="#FA305C" stroke="#0D131C" stroke-width="2.25798"/>
<path d="M343.297 87.2569C346.156 91.6544 348.785 96.1927 351.139 100.861L230.484 161.617L343.297 87.2569Z" fill="#32D54E" stroke="#0D131C" stroke-width="2.25798"/>
<path d="M364.533 177.324C363.919 182.554 363.016 187.763 361.768 192.988L230.484 161.617L364.533 177.324Z" fill="#FA305C" stroke="#0D131C" stroke-width="2.25798"/>
<path d="M365.478 161.715C365.462 166.892 365.147 172.095 364.533 177.324L230.484 161.617L365.478 161.715Z" fill="#5D6B8F" stroke="#0D131C" stroke-width="2.25798"/>
<path d="M364.599 145.963C365.207 151.191 365.515 156.445 365.467 161.761L230.484 161.617L364.599 145.963Z" fill="#FA305C" stroke="#0D131C" stroke-width="2.25798"/>
<path d="M361.867 130.403C363.096 135.486 364.003 140.688 364.6 145.963L230.484 161.617L361.867 130.403Z" fill="#5D6B8F" stroke="#0D131C" stroke-width="2.25798"/>
<path d="M357.437 115.611C359.17 120.423 360.674 125.377 361.867 130.403L230.484 161.617L357.437 115.611Z" fill="#32D54E" stroke="#0D131C" stroke-width="2.25798"/>
<path d="M323.08 63.0715C326.899 66.7211 330.535 70.5224 333.874 74.546L230.484 161.617L323.08 63.0715Z" fill="#FA305C" stroke="#0D131C" stroke-width="2.25798"/>
<path d="M149.179 52.796C153.458 49.6151 157.866 46.7096 162.45 44.0905L230.486 161.616L149.179 52.796Z" fill="#FA305C" stroke="#0D131C" stroke-width="2.25798"/>
<path d="M162.446 44.0883C166.973 41.5044 171.594 39.1385 176.38 37.1053L230.482 161.614L162.446 44.0883Z" fill="#5D6B8F" stroke="#0D131C" stroke-width="2.25798"/>
<path d="M137.131 62.9187C140.967 59.3389 144.955 55.942 149.166 52.8425L230.483 161.617L137.131 62.9187Z" fill="#5D6B8F" stroke="#0D131C" stroke-width="2.25798"/>
<path d="M116.955 86.8352C119.872 82.4003 123.033 78.1703 126.438 74.1454L230.487 161.617L116.955 86.8352Z" fill="#5D6B8F" stroke="#0D131C" stroke-width="2.25798"/>
<path d="M126.438 74.1444C129.785 70.1546 133.366 66.4161 137.145 62.8715L230.486 161.616L126.438 74.1444Z" fill="#FA305C" stroke="#0D131C" stroke-width="2.25798"/>
<path d="M176.383 37.1062C181.283 35.0026 186.267 33.1633 191.37 31.6457L230.485 161.615L176.383 37.1062Z" fill="#FA305C" stroke="#0D131C" stroke-width="2.25798"/>
<path d="M238.152 26.2581C243.308 26.5616 248.48 27.2108 253.688 28.1132L230.485 161.617L238.152 26.2581Z" fill="#32D54E" stroke="#0D131C" stroke-width="2.25798"/>
<path d="M269.127 31.8025C274.238 33.317 279.179 35.1331 283.962 37.2046L230.484 161.617L269.127 31.8025Z" fill="#FA305C" stroke="#0D131C" stroke-width="2.25798"/>
<path d="M191.372 31.6465C196.371 30.153 201.442 28.97 206.644 28.0624L230.487 161.616L191.372 31.6465Z" fill="#5D6B8F" stroke="#0D131C" stroke-width="2.25798"/>
<path d="M253.689 28.1106C256.265 28.5794 258.876 29.1055 261.51 29.7351C264.099 30.3537 266.619 31.0537 269.129 31.7999L230.486 161.615L253.689 28.1106Z" fill="#5D6B8F" stroke="#0D131C" stroke-width="2.25798"/>
<path d="M206.651 28.0154C211.852 27.1077 217.079 26.4996 222.425 26.213L230.483 161.615L206.651 28.0154Z" fill="#32D54E" stroke="#0D131C" stroke-width="2.25798"/>
<path d="M222.383 26.2017C227.579 25.9282 232.859 25.919 238.107 26.2446L230.486 161.615L222.383 26.2017Z" fill="#E7C300" stroke="#0D131C" stroke-width="2.25798"/>
<g clip-path="url(#clip1_2870_22250)">
<circle cx="230.001" cy="161.501" r="126.447" fill="url(#paint0_radial_2870_22250)"/>
<path d="M181.148 192.685C179.498 192.685 178.208 193.24 177.308 194.38C176.483 195.4 176.078 196.705 176.078 198.295C176.078 199.885 176.468 201.175 177.278 202.165C178.163 203.26 179.438 203.815 181.103 203.815C182.243 203.815 183.233 203.485 184.058 202.84C184.943 202.15 185.498 201.175 185.738 199.93H184.553C184.343 200.86 183.908 201.565 183.278 202.045C182.678 202.495 181.958 202.72 181.103 202.72C179.843 202.72 178.898 202.3 178.238 201.475C177.608 200.695 177.308 199.63 177.308 198.295C177.308 196.96 177.623 195.895 178.253 195.085C178.928 194.215 179.888 193.78 181.133 193.78C181.973 193.78 182.678 193.975 183.263 194.38C183.863 194.8 184.253 195.4 184.403 196.18H185.588C185.438 195.115 184.958 194.26 184.148 193.63C183.338 193 182.333 192.685 181.148 192.685ZM187.441 192.895V203.605H188.671V198.61H194.866V203.605H196.096V192.895H194.866V197.545H188.671V192.895H187.441ZM198.327 192.895V203.605H199.542V192.895H198.327ZM201.796 192.895V203.605H209.641V202.54H203.026V198.61H209.026V197.545H203.026V193.96H209.386V192.895H201.796ZM208.501 189.325L207.061 191.02L207.676 191.155L209.731 189.325H208.501ZM204.991 190.435L203.371 192.115H204.181L205.501 190.945L206.806 192.115H207.616L206.011 190.435H204.991ZM211.347 192.895V203.605H212.577V194.8H212.622L218.712 203.605H219.972V192.895H218.742V201.61H218.697L212.637 192.895H211.347ZM226.298 192.895V193.96H230.078V203.605H231.293V193.96H235.073V192.895H226.298ZM236.411 192.895V203.605H237.641V198.61H243.836V203.605H245.066V192.895H243.836V197.545H237.641V192.895H236.411ZM248.826 190.195C249.006 191.5 249.741 192.16 251.061 192.16C252.351 192.16 253.101 191.5 253.281 190.195H252.621C252.441 191.035 251.931 191.455 251.061 191.455C250.176 191.455 249.651 191.035 249.486 190.195H248.826ZM250.341 192.895L246.126 203.605H247.446L248.586 200.605H253.506L254.646 203.605H255.981L251.766 192.895H250.341ZM248.976 199.57L251.031 194.215H251.091L253.116 199.57H248.976ZM251.123 186.775L249.608 188.965H250.433L252.488 186.775H251.123ZM257.065 192.895V203.605H258.295V194.8H258.34L264.43 203.605H265.69V192.895H264.46V201.61H264.415L258.355 192.895H257.065ZM272.421 192.685C270.846 192.685 269.601 193.24 268.686 194.365C267.816 195.4 267.396 196.705 267.396 198.295C267.396 199.885 267.831 201.19 268.701 202.195C269.631 203.275 270.951 203.815 272.646 203.815C273.531 203.815 274.356 203.695 275.136 203.455C275.871 203.215 276.501 202.9 277.011 202.48V198.1H272.436V199.165H275.796V201.895C275.421 202.135 274.971 202.345 274.446 202.495C273.906 202.645 273.351 202.735 272.766 202.735C271.371 202.735 270.321 202.315 269.616 201.49C268.956 200.71 268.626 199.645 268.626 198.295C268.626 196.915 268.956 195.82 269.646 195.01C270.336 194.185 271.251 193.78 272.421 193.78C273.366 193.78 274.131 194.005 274.716 194.47C275.271 194.905 275.631 195.52 275.796 196.33H277.026C276.831 195.16 276.366 194.275 275.616 193.66C274.821 193 273.756 192.685 272.421 192.685ZM281.422 192.895L281.077 200.575H279.892L279.547 192.895H281.422ZM280.477 201.46C280.807 201.46 281.072 201.56 281.272 201.76C281.482 201.95 281.587 202.205 281.587 202.525C281.587 202.835 281.482 203.095 281.272 203.305C281.042 203.505 280.777 203.605 280.477 203.605C280.177 203.605 279.922 203.5 279.712 203.29C279.492 203.08 279.382 202.825 279.382 202.525C279.382 202.205 279.492 201.95 279.712 201.76C279.912 201.56 280.167 201.46 280.477 201.46Z" fill="#7C8499"/>
<path d="M170.089 157.995H177.9L180.633 162.781L183.802 157.995H191.062L185.209 166.177L191.483 175.168H183.802L180.633 169.638L176.897 175.168H169.766L176.008 166.177L170.089 157.995ZM195.703 151.462H211.34V156.718H200.749L200.183 160.275C200.916 159.93 201.638 159.671 202.349 159.499C203.072 159.326 203.783 159.24 204.484 159.24C206.856 159.24 208.78 159.957 210.257 161.391C211.734 162.825 212.472 164.63 212.472 166.808C212.472 168.339 212.089 169.81 211.324 171.222C210.569 172.635 209.491 173.713 208.09 174.456C206.699 175.2 204.915 175.572 202.737 175.572C201.174 175.572 199.832 175.427 198.711 175.136C197.601 174.834 196.652 174.392 195.865 173.81C195.089 173.217 194.458 172.548 193.973 171.805C193.488 171.061 193.084 170.134 192.76 169.023L199.423 168.296C199.584 169.363 199.962 170.177 200.554 170.737C201.147 171.287 201.854 171.562 202.673 171.562C203.589 171.562 204.344 171.217 204.937 170.527C205.54 169.826 205.842 168.786 205.842 167.406C205.842 165.994 205.54 164.959 204.937 164.301C204.333 163.644 203.53 163.315 202.527 163.315C201.891 163.315 201.277 163.471 200.684 163.784C200.242 164.01 199.757 164.42 199.229 165.013L193.617 164.204L195.703 151.462ZM221.511 158.318L215.286 157.203C215.803 155.219 216.795 153.699 218.261 152.643C219.738 151.586 221.824 151.058 224.519 151.058C227.613 151.058 229.85 151.635 231.23 152.788C232.61 153.942 233.3 155.392 233.3 157.138C233.3 158.162 233.019 159.089 232.459 159.919C231.898 160.749 231.052 161.477 229.92 162.102C230.836 162.329 231.537 162.593 232.022 162.895C232.809 163.38 233.418 164.021 233.849 164.819C234.291 165.606 234.512 166.549 234.512 167.649C234.512 169.029 234.151 170.355 233.429 171.627C232.707 172.888 231.666 173.864 230.308 174.553C228.95 175.233 227.166 175.572 224.956 175.572C222.8 175.572 221.096 175.319 219.846 174.812C218.606 174.306 217.582 173.567 216.773 172.597C215.976 171.616 215.361 170.387 214.93 168.91L221.511 168.037C221.77 169.363 222.169 170.285 222.708 170.802C223.258 171.309 223.953 171.562 224.794 171.562C225.678 171.562 226.411 171.239 226.993 170.592C227.586 169.945 227.882 169.083 227.882 168.004C227.882 166.905 227.597 166.053 227.025 165.45C226.465 164.846 225.699 164.544 224.729 164.544C224.212 164.544 223.5 164.673 222.595 164.932L222.934 160.227C223.301 160.28 223.587 160.307 223.791 160.307C224.654 160.307 225.371 160.032 225.942 159.483C226.524 158.933 226.815 158.281 226.815 157.526C226.815 156.804 226.6 156.227 226.168 155.796C225.737 155.365 225.144 155.149 224.39 155.149C223.613 155.149 222.983 155.386 222.498 155.86C222.013 156.324 221.684 157.143 221.511 158.318ZM237.86 168.57H244.894V175.168H237.86V168.57ZM248.241 163.218C248.241 158.712 249.05 155.559 250.667 153.758C252.294 151.958 254.768 151.058 258.089 151.058C259.684 151.058 260.994 151.257 262.018 151.656C263.042 152.044 263.878 152.556 264.525 153.192C265.171 153.818 265.678 154.481 266.045 155.181C266.422 155.871 266.724 156.68 266.95 157.607C267.392 159.375 267.613 161.218 267.613 163.137C267.613 167.439 266.886 170.586 265.43 172.581C263.975 174.575 261.468 175.572 257.911 175.572C255.917 175.572 254.305 175.254 253.076 174.618C251.847 173.982 250.839 173.05 250.052 171.821C249.481 170.947 249.033 169.756 248.71 168.247C248.397 166.727 248.241 165.051 248.241 163.218ZM254.774 163.234C254.774 166.253 255.038 168.317 255.566 169.427C256.105 170.527 256.881 171.077 257.895 171.077C258.563 171.077 259.14 170.845 259.625 170.382C260.121 169.907 260.482 169.163 260.708 168.15C260.946 167.137 261.064 165.557 261.064 163.412C261.064 160.264 260.795 158.151 260.256 157.073C259.727 155.984 258.93 155.44 257.862 155.44C256.774 155.44 255.987 155.995 255.502 157.106C255.016 158.205 254.774 160.248 254.774 163.234ZM270.621 169.848L277.17 169.023C277.342 169.94 277.633 170.586 278.043 170.964C278.453 171.341 278.954 171.53 279.547 171.53C280.603 171.53 281.428 170.996 282.021 169.929C282.452 169.142 282.776 167.476 282.991 164.932C282.204 165.741 281.396 166.334 280.566 166.711C279.736 167.088 278.776 167.277 277.687 167.277C275.564 167.277 273.769 166.522 272.303 165.013C270.847 163.504 270.12 161.596 270.12 159.289C270.12 157.715 270.492 156.281 271.235 154.987C271.979 153.694 273.003 152.718 274.308 152.06C275.612 151.392 277.251 151.058 279.224 151.058C281.595 151.058 283.498 151.468 284.932 152.287C286.366 153.095 287.508 154.389 288.36 156.168C289.222 157.936 289.653 160.275 289.653 163.186C289.653 167.465 288.753 170.603 286.953 172.597C285.153 174.58 282.657 175.572 279.466 175.572C277.58 175.572 276.092 175.357 275.003 174.925C273.914 174.483 273.009 173.842 272.286 173.001C271.564 172.16 271.009 171.109 270.621 169.848ZM282.749 159.272C282.749 157.99 282.425 156.987 281.778 156.265C281.132 155.532 280.345 155.165 279.418 155.165C278.544 155.165 277.817 155.494 277.235 156.152C276.663 156.809 276.378 157.796 276.378 159.111C276.378 160.437 276.674 161.45 277.267 162.151C277.871 162.851 278.62 163.202 279.515 163.202C280.442 163.202 281.213 162.862 281.827 162.183C282.441 161.504 282.749 160.534 282.749 159.272Z" fill="#E6C300"/>
</g>
<circle cx="230" cy="161.5" r="140.371" stroke="#55657E" stroke-width="2.25798"/>
<path d="M229.998 31.6317L223.342 23.765L236.655 23.765L229.998 31.6317Z" fill="#E6C300" stroke="#0D131C" stroke-width="1.50532"/>
</g>
<defs>
<radialGradient id="paint0_radial_2870_22250" cx="0" cy="0" r="1" gradientUnits="userSpaceOnUse" gradientTransform="translate(230.001 161.502) rotate(90) scale(126.447)">
<stop offset="0.515625" stop-color="#0D131C"/>
<stop offset="1" stop-color="#0D131C" stop-opacity="0.67"/>
</radialGradient>
<clipPath id="clip0_2870_22250">
<rect width="283" height="283" fill="white" transform="translate(88.5 20)"/>
</clipPath>
<clipPath id="clip1_2870_22250">
<rect width="252.894" height="252.894" fill="white" transform="translate(103.555 35.0547)"/>
</clipPath>
</defs>
</svg>
