<svg width="236" height="171" viewBox="0 0 236 171" fill="none" xmlns="http://www.w3.org/2000/svg">
<path d="M197.372 170.707L38.1288 170.707C33.0413 170.715 28.0049 169.692 23.3238 167.699C14.1846 163.802 6.90514 156.523 3.00804 147.383C1.01552 142.702 -0.00738822 137.666 4.01699e-05 132.578L4.01699e-05 117.752C0.00109978 116.143 0.577359 114.587 1.62438 113.365C2.68068 112.14 4.12053 111.309 5.71016 111.008C12.6546 109.672 18.9172 105.959 23.4206 100.507C27.9241 95.0543 30.3878 88.2034 30.3878 81.1316C30.3878 74.0599 27.9241 67.209 23.4206 61.7566C18.9172 56.3041 12.6546 52.591 5.71016 51.2549C4.12086 50.9536 2.68128 50.1226 1.62438 48.898C0.577495 47.6767 0.00122197 46.1217 4.01699e-05 44.5131L4.01699e-05 38.1288C-0.00717099 33.0413 1.01573 28.005 3.00804 23.3238C6.90583 14.185 14.185 6.90583 23.3238 3.00804C28.0049 1.01552 33.0413 -0.00738822 38.1288 4.01699e-05L197.372 4.01699e-05C202.459 -0.00738822 207.496 1.01552 212.177 3.00804C221.315 6.90583 228.595 14.185 232.492 23.3238C234.485 28.005 235.508 33.0413 235.5 38.1288V46.9342C235.499 48.5434 234.923 50.0991 233.876 51.3211C232.819 52.5467 231.378 53.3778 229.787 53.678C222.844 55.0184 216.584 58.7345 212.083 64.1883C207.581 69.642 205.119 76.4927 205.119 83.5643C205.119 90.6359 207.581 97.4875 212.083 102.941C216.584 108.395 222.844 112.111 229.787 113.452C231.378 113.752 232.819 114.582 233.876 115.808C234.923 117.03 235.499 118.586 235.5 120.195V132.567C235.508 137.654 234.485 142.691 232.492 147.372C228.595 156.511 221.316 163.79 212.177 167.688C207.496 169.684 202.46 170.711 197.372 170.707Z" fill="white" fill-opacity="0.2"/>
</svg>
