<svg width="100" height="73" viewBox="0 0 100 73" fill="none" xmlns="http://www.w3.org/2000/svg">
<path d="M83.8094 72.4138L16.1906 72.4138C14.0303 72.4169 11.8917 71.983 9.90392 71.1378C6.02316 69.4846 2.93211 66.3967 1.2773 62.5199C0.431219 60.5341 -0.00313724 58.3977 1.70573e-05 56.2396L1.70573e-05 49.9503C0.000466997 49.2677 0.245163 48.6078 0.689756 48.0894C1.13829 47.5696 1.74969 47.2171 2.42469 47.0896C5.37349 46.5229 8.03276 44.9478 9.94505 42.6348C11.8573 40.3219 12.9035 37.4158 12.9035 34.416C12.9035 31.4161 11.8573 28.51 9.94505 26.1971C8.03276 23.8841 5.37349 22.309 2.42469 21.7423C1.74983 21.6145 1.13854 21.262 0.689756 20.7425C0.24522 20.2244 0.000518881 19.5648 1.70573e-05 18.8824L1.70573e-05 16.1742C-0.003045 14.0161 0.431308 11.8797 1.2773 9.89392C2.93241 6.01728 6.02336 2.92945 9.90392 1.27601C11.8917 0.430784 14.0303 -0.00313408 16.1906 1.704e-05L83.8094 1.704e-05C85.9697 -0.00313408 88.1083 0.430784 90.0961 1.27601C93.9766 2.92945 97.0676 6.01728 98.7227 9.89392C99.5687 11.8797 100.003 14.0161 100 16.1742V19.9094C99.9995 20.5921 99.7548 21.252 99.3102 21.7704C98.8615 22.2902 98.2494 22.6428 97.5741 22.7702C94.6257 23.3388 91.9677 24.9151 90.0562 27.2286C88.1447 29.5421 87.0993 32.4481 87.0993 35.4479C87.0993 38.4477 88.1447 41.3541 90.0562 43.6676C91.9677 45.9811 94.6257 47.5574 97.5741 48.126C98.2493 48.2536 98.8613 48.6057 99.3102 49.1254C99.7548 49.6438 99.9995 50.3041 100 50.9867V56.2347C100.003 58.3928 99.5688 60.5293 98.7227 62.515C97.0679 66.3918 93.9768 69.4798 90.0961 71.1329C88.1087 71.9798 85.9701 72.4153 83.8094 72.4138Z" fill="white" fill-opacity="0.2"/>
</svg>
