<svg width="18" height="18" viewBox="0 0 18 18" fill="none" xmlns="http://www.w3.org/2000/svg">
<path d="M9 18C13.9706 18 18 13.9706 18 9C18 4.02944 13.9706 0 9 0C4.02944 0 0 4.02944 0 9C0 13.9706 4.02944 18 9 18Z" fill="#2775C9"/>
<path fill-rule="evenodd" clip-rule="evenodd" d="M8.46 5.66224V5.09652C8.46 4.95331 8.51689 4.81596 8.61816 4.71469C8.71943 4.61342 8.85678 4.55652 9 4.55652C9.14322 4.55652 9.28057 4.61342 9.38184 4.71469C9.48311 4.81596 9.54 4.95331 9.54 5.09652V5.66224C9.96208 5.68987 10.365 5.84874 10.6923 6.11661C11.0197 6.38449 11.2551 6.74797 11.3657 7.15624C11.3757 7.20268 11.3751 7.25076 11.3641 7.29696C11.3531 7.34316 11.3319 7.38632 11.3021 7.42329C11.2723 7.46026 11.2346 7.4901 11.1918 7.51063C11.1489 7.53116 11.1021 7.54186 11.0546 7.54195H10.7627C10.6469 7.54189 10.5336 7.50884 10.4359 7.44668C10.3382 7.38451 10.2602 7.29581 10.2111 7.19095C10.0912 6.97951 9.91237 6.8075 9.69642 6.69588C9.48047 6.58425 9.23672 6.53782 8.99486 6.56224C8.25943 6.56224 7.76314 6.92352 7.76314 7.46224C7.76314 7.89552 8.09229 8.14752 8.89071 8.33781L9.64029 8.50881C10.962 8.81095 11.5213 9.35738 11.5213 10.3268C11.5143 10.8499 11.3032 11.3495 10.9331 11.7191C10.563 12.0888 10.0631 12.2992 9.54 12.3055V12.9561C9.54 13.0993 9.48311 13.2367 9.38184 13.3379C9.28057 13.4392 9.14322 13.4961 9 13.4961C8.85678 13.4961 8.71943 13.4392 8.61816 13.3379C8.51689 13.2367 8.46 13.0993 8.46 12.9561V12.3132C7.99752 12.3068 7.55026 12.147 7.18841 11.859C6.82656 11.5709 6.5706 11.1708 6.46071 10.7215C6.45322 10.6832 6.45419 10.6436 6.46356 10.6056C6.47292 10.5677 6.49046 10.5322 6.51494 10.5017C6.53943 10.4713 6.57027 10.4465 6.60532 10.4292C6.64036 10.4118 6.67877 10.4023 6.71786 10.4014H7.16143C7.25987 10.4008 7.35642 10.4284 7.43961 10.4811C7.52279 10.5337 7.58912 10.6092 7.63071 10.6984C7.77252 10.9321 7.97718 11.1213 8.22135 11.2443C8.46551 11.3673 8.73934 11.4191 9.01157 11.394C9.79714 11.394 10.3423 11.0082 10.3423 10.4644C10.3423 9.9951 10.008 9.7251 9.18514 9.53095L8.34171 9.33295C7.14214 9.05781 6.57257 8.48052 6.57257 7.55095C6.59367 7.05703 6.79926 6.58898 7.14872 6.23928C7.49818 5.88958 7.96609 5.68368 8.46 5.66224ZM2.25 9.0051C2.25073 7.58679 2.69956 6.20498 3.53241 5.05696C4.36526 3.90894 5.53953 3.05341 6.88757 2.61252C6.93632 2.59643 6.98819 2.59215 7.03892 2.60004C7.08965 2.60792 7.13777 2.62775 7.17933 2.65789C7.22089 2.68802 7.2547 2.7276 7.27796 2.77336C7.30123 2.81913 7.31329 2.86976 7.31314 2.9211V3.11138C7.31302 3.2531 7.27063 3.39157 7.19138 3.50906C7.11213 3.62656 6.99964 3.71774 6.86829 3.77095C5.82561 4.19126 4.9324 4.9137 4.30338 5.84545C3.67436 6.77721 3.33827 7.87575 3.33827 8.99995C3.33827 10.1242 3.67436 11.2227 4.30338 12.1545C4.9324 13.0862 5.82561 13.8086 6.86829 14.229C7.00053 14.2827 7.11374 14.3746 7.19345 14.493C7.27315 14.6114 7.31572 14.7509 7.31571 14.8937V15.048C7.31561 15.1024 7.30261 15.1561 7.27776 15.2045C7.25291 15.253 7.21693 15.2949 7.17277 15.3267C7.12861 15.3586 7.07752 15.3795 7.0237 15.3879C6.96988 15.3962 6.91486 15.3916 6.86314 15.3745C5.52341 14.9307 4.35714 14.0769 3.52928 12.9338C2.70142 11.7908 2.2539 10.4164 2.25 9.0051ZM15.75 9.0051C15.7483 10.414 15.3044 11.7869 14.4809 12.9301C13.6574 14.0733 12.4958 14.9292 11.16 15.3771C11.1062 15.3953 11.0488 15.4004 10.9926 15.392C10.9364 15.3835 10.883 15.3618 10.8368 15.3286C10.7907 15.2955 10.7532 15.2517 10.7273 15.2011C10.7014 15.1505 10.688 15.0945 10.6881 15.0377V14.9091C10.6881 14.7629 10.7316 14.62 10.8131 14.4986C10.8946 14.3772 11.0105 14.2829 11.1459 14.2277C12.1849 13.8055 13.0745 13.083 13.7008 12.1526C14.3271 11.2221 14.6616 10.126 14.6616 9.00445C14.6616 7.88288 14.3271 6.78679 13.7008 5.85635C13.0745 4.92591 12.1849 4.20341 11.1459 3.78124C11.01 3.72416 10.894 3.62814 10.8125 3.50528C10.7311 3.38242 10.6878 3.23821 10.6881 3.09081V2.9751C10.6883 2.91789 10.7019 2.86153 10.7281 2.81065C10.7542 2.75977 10.7921 2.71583 10.8385 2.68244C10.885 2.64904 10.9387 2.62716 10.9953 2.61858C11.0518 2.61 11.1096 2.61498 11.1639 2.6331C12.499 3.08168 13.6597 3.93786 14.4824 5.08101C15.3052 6.22416 15.7485 7.59665 15.75 9.0051Z" fill="white"/>
</svg>
