<svg width="21" height="20" viewBox="0 0 21 20" fill="none" xmlns="http://www.w3.org/2000/svg">
<g clip-path="url(#clip0_1410_8540)">
<path d="M18.4253 1.73633L11.4458 6.90083L12.7441 3.85733L18.4253 1.73633Z" fill="#E17726" stroke="#E17726" stroke-width="0.177" stroke-linecap="round" stroke-linejoin="round"/>
<path d="M2.32568 1.73633L9.24368 6.94883L8.00768 3.85658L2.32568 1.73633Z" fill="#E27625" stroke="#E27625" stroke-width="0.177" stroke-linecap="round" stroke-linejoin="round"/>
<path d="M15.9102 13.7109L14.0532 16.5482L18.0282 17.6432L19.1675 13.7732L15.9102 13.7109Z" fill="#E27625" stroke="#E27625" stroke-width="0.177" stroke-linecap="round" stroke-linejoin="round"/>
<path d="M1.58545 13.7732L2.71795 17.6432L6.68545 16.5482L4.8382 13.7109L1.58545 13.7732Z" fill="#E27625" stroke="#E27625" stroke-width="0.177" stroke-linecap="round" stroke-linejoin="round"/>
<path d="M6.47487 8.91854L5.37012 10.585L9.30537 10.7643L9.17412 6.52979L6.47487 8.91854Z" fill="#E27625" stroke="#E27625" stroke-width="0.177" stroke-linecap="round" stroke-linejoin="round"/>
<path d="M14.2763 8.91846L11.5358 6.48096L11.4458 10.7642L15.3811 10.585L14.2763 8.91846Z" fill="#E27625" stroke="#E27625" stroke-width="0.177" stroke-linecap="round" stroke-linejoin="round"/>
<path d="M6.68555 16.548L9.06755 15.3983L7.01705 13.8008L6.68555 16.548Z" fill="#E27625" stroke="#E27625" stroke-width="0.177" stroke-linecap="round" stroke-linejoin="round"/>
<path d="M11.6807 15.3983L14.0559 16.548L13.7312 13.8008L11.6807 15.3983Z" fill="#E27625" stroke="#E27625" stroke-width="0.177" stroke-linecap="round" stroke-linejoin="round"/>
<path d="M14.0552 16.5482L11.6807 15.3984L11.8742 16.9412L11.8532 17.5952L14.0552 16.5482Z" fill="#D5BFB2" stroke="#D5BFB2" stroke-width="0.177" stroke-linecap="round" stroke-linejoin="round"/>
<path d="M6.68555 16.5481L8.89505 17.5981L8.88155 16.9441L9.0683 15.4014L6.68555 16.5481Z" fill="#D5BFB2" stroke="#D5BFB2" stroke-width="0.177" stroke-linecap="round" stroke-linejoin="round"/>
<path d="M8.93959 12.7817L6.96484 12.2035L8.35909 11.563L8.93959 12.7817Z" fill="#233447" stroke="#233447" stroke-width="0.177" stroke-linecap="round" stroke-linejoin="round"/>
<path d="M11.812 12.7817L12.3918 11.563L13.7935 12.2035L11.812 12.7817Z" fill="#233447" stroke="#233447" stroke-width="0.177" stroke-linecap="round" stroke-linejoin="round"/>
<path d="M6.6857 16.5482L7.0307 13.7109L4.83545 13.7732L6.6857 16.5482Z" fill="#CC6228" stroke="#CC6228" stroke-width="0.177" stroke-linecap="round" stroke-linejoin="round"/>
<path d="M13.7168 13.7109L14.055 16.5482L15.9105 13.7732L13.7168 13.7109Z" fill="#CC6228" stroke="#CC6228" stroke-width="0.177" stroke-linecap="round" stroke-linejoin="round"/>
<path d="M15.3811 10.585L11.4458 10.7642L11.8118 12.7817L12.3916 11.563L13.7933 12.2035L15.3811 10.585Z" fill="#CC6228" stroke="#CC6228" stroke-width="0.177" stroke-linecap="round" stroke-linejoin="round"/>
<path d="M6.96537 12.2025L8.35962 11.562L8.93937 12.7807L9.30537 10.7632L5.37012 10.584L6.96537 12.2025Z" fill="#CC6228" stroke="#CC6228" stroke-width="0.177" stroke-linecap="round" stroke-linejoin="round"/>
<path d="M5.37012 10.585L7.02012 13.801L6.96462 12.2035L5.37012 10.585Z" fill="#E27525" stroke="#E27525" stroke-width="0.177" stroke-linecap="round" stroke-linejoin="round"/>
<path d="M13.7932 12.2025L13.731 13.8L15.381 10.584L13.7932 12.2025Z" fill="#E27525" stroke="#E27525" stroke-width="0.177" stroke-linecap="round" stroke-linejoin="round"/>
<path d="M9.30545 10.7632L8.93945 12.7807L9.4022 15.1634L9.5057 12.0232L9.30545 10.7632Z" fill="#E27525" stroke="#E27525" stroke-width="0.177" stroke-linecap="round" stroke-linejoin="round"/>
<path d="M11.4459 10.7632L11.2524 12.0164L11.3492 15.1664L11.8119 12.7837L11.4459 10.7632Z" fill="#E27525" stroke="#E27525" stroke-width="0.177" stroke-linecap="round" stroke-linejoin="round"/>
<path d="M11.8119 12.7814L11.3491 15.1641L11.6806 15.3981L13.7311 13.8006L13.7934 12.2031L11.8119 12.7814Z" fill="#F5841F" stroke="#F5841F" stroke-width="0.177" stroke-linecap="round" stroke-linejoin="round"/>
<path d="M6.96533 12.2026L7.02083 13.8001L9.07133 15.3976L9.40283 15.1636L8.94008 12.7809L6.96533 12.2026Z" fill="#F5841F" stroke="#F5841F" stroke-width="0.177" stroke-linecap="round" stroke-linejoin="round"/>
<path d="M11.853 17.5944L11.874 16.9404L11.6948 16.7904H9.05705L8.88455 16.9404L8.89805 17.5944L6.68555 16.5481L7.4588 17.1819L9.02555 18.2634H11.7113L13.2855 17.1796L14.052 16.5459L11.853 17.5944Z" fill="#C0AC9D" stroke="#C0AC9D" stroke-width="0.177" stroke-linecap="round" stroke-linejoin="round"/>
<path d="M11.6806 15.3985L11.3491 15.1646H9.39911L9.06761 15.3985L8.88086 16.9413L9.05336 16.7913H11.6904L11.8696 16.9413L11.6806 15.3985Z" fill="#161616" stroke="#161616" stroke-width="0.177" stroke-linecap="round" stroke-linejoin="round"/>
<path d="M18.7224 7.23833L19.3089 4.38833L18.4254 1.73633L11.6807 6.72833L14.2764 8.91833L17.9424 9.98558L18.7502 9.04208L18.3984 8.78708L18.9579 8.27783L18.5297 7.94708L19.0892 7.52033L18.7224 7.23833Z" fill="#763E1A" stroke="#763E1A" stroke-width="0.177" stroke-linecap="round" stroke-linejoin="round"/>
<path d="M1.44238 4.38683L2.03638 7.23683L1.65688 7.51883L2.22313 7.94558L1.79488 8.27633L2.35438 8.78558L2.00263 9.04058L2.81038 9.98408L6.47638 8.91683L9.07213 6.72683L2.32588 1.73633L1.44238 4.38683Z" fill="#763E1A" stroke="#763E1A" stroke-width="0.177" stroke-linecap="round" stroke-linejoin="round"/>
<path d="M17.9422 9.98571L14.2762 8.91846L15.381 10.585L13.731 13.801L15.9105 13.7732H19.1692L17.9422 9.98571Z" fill="#F5841F" stroke="#F5841F" stroke-width="0.177" stroke-linecap="round" stroke-linejoin="round"/>
<path d="M6.4747 8.91846L2.8087 9.98571L1.58545 13.7732H4.8382L7.01995 13.801L5.36995 10.585L6.4747 8.91846Z" fill="#F5841F" stroke="#F5841F" stroke-width="0.177" stroke-linecap="round" stroke-linejoin="round"/>
<path d="M11.4458 10.7632L11.6806 6.7282L12.7441 3.85645H8.00781L9.07056 6.7282L9.30531 10.7632L9.39531 12.0299L9.40206 15.1634H11.3521L11.3588 12.0299L11.4458 10.7632Z" fill="#F5841F" stroke="#F5841F" stroke-width="0.177" stroke-linecap="round" stroke-linejoin="round"/>
</g>
<defs>
<clipPath id="clip0_1410_8540">
<rect width="18" height="18" fill="white" transform="translate(1.375 1)"/>
</clipPath>
</defs>
</svg>
