<svg width="24" height="31" viewBox="0 0 24 31" fill="none" xmlns="http://www.w3.org/2000/svg">
<path d="M20.5 4.00098H3C1.34315 4.00098 0 5.34412 0 7.00098V27.501C0 29.1578 1.34315 30.501 3 30.501H20.5C22.1569 30.501 23.5 29.1578 23.5 27.501V7.00098C23.5 5.34412 22.1569 4.00098 20.5 4.00098Z" fill="#707A8A"/>
<path d="M17.1814 1.60779C17.1777 1.50599 17.1946 1.4045 17.231 1.30937C17.2674 1.21424 17.3226 1.12742 17.3933 1.05409C17.464 0.980773 17.5487 0.922453 17.6425 0.88262C17.7362 0.842787 17.837 0.822258 17.9389 0.822258C18.0408 0.822258 18.1416 0.842787 18.2353 0.88262C18.3291 0.922453 18.4138 0.980773 18.4845 1.05409C18.5552 1.12742 18.6104 1.21424 18.6469 1.30937C18.6833 1.4045 18.7001 1.50599 18.6964 1.60779V6.02378C18.7001 6.12558 18.6833 6.22707 18.6469 6.3222C18.6104 6.41734 18.5552 6.50416 18.4845 6.57748C18.4138 6.6508 18.3291 6.70912 18.2353 6.74895C18.1416 6.78878 18.0408 6.80931 17.9389 6.80931C17.837 6.80931 17.7362 6.78878 17.6425 6.74895C17.5487 6.70912 17.464 6.6508 17.3933 6.57748C17.3226 6.50416 17.2674 6.41734 17.231 6.3222C17.1946 6.22707 17.1777 6.12558 17.1814 6.02378V1.60779ZM11.2624 1.52479C11.2587 1.42299 11.2755 1.3215 11.312 1.22637C11.3484 1.13124 11.4036 1.04442 11.4743 0.971094C11.545 0.897773 11.6297 0.839452 11.7235 0.79962C11.8172 0.759787 11.918 0.739258 12.0199 0.739258C12.1218 0.739258 12.2226 0.759787 12.3163 0.79962C12.4101 0.839452 12.4948 0.897773 12.5656 0.971094C12.6363 1.04442 12.6914 1.13124 12.7278 1.22637C12.7642 1.3215 12.7811 1.42299 12.7774 1.52479V6.02479C12.7811 6.12658 12.7642 6.22807 12.7278 6.3232C12.6914 6.41834 12.6363 6.50516 12.5656 6.57848C12.4948 6.6518 12.4101 6.71012 12.3163 6.74995C12.2226 6.78978 12.1218 6.81031 12.0199 6.81031C11.918 6.81031 11.8172 6.78978 11.7235 6.74995C11.6297 6.71012 11.545 6.6518 11.4743 6.57848C11.4036 6.50516 11.3484 6.41834 11.312 6.3232C11.2755 6.22807 11.2587 6.12658 11.2624 6.02479V1.52479ZM5.67441 1.51278C5.68154 1.31665 5.76445 1.13092 5.90573 0.99468C6.04701 0.858441 6.23565 0.782312 6.43192 0.782312C6.62818 0.782312 6.81679 0.858441 6.95807 0.99468C7.09935 1.13092 7.1823 1.31665 7.18942 1.51278V6.02279C7.19312 6.12458 7.17626 6.22607 7.13986 6.3212C7.10346 6.41634 7.04824 6.50316 6.97754 6.57648C6.90683 6.6498 6.82208 6.70812 6.72833 6.74795C6.63458 6.78778 6.53377 6.80831 6.43192 6.80831C6.33006 6.80831 6.22925 6.78778 6.1355 6.74795C6.04175 6.70812 5.95697 6.6498 5.88626 6.57648C5.81556 6.50316 5.76037 6.41634 5.72397 6.3212C5.68757 6.22607 5.67071 6.12458 5.67441 6.02279V1.51278ZM5.87442 13.2558C5.77263 13.2595 5.67112 13.2426 5.57599 13.2062C5.48086 13.1698 5.39403 13.1146 5.32071 13.0439C5.24739 12.9732 5.18906 12.8885 5.14923 12.7947C5.1094 12.701 5.08887 12.6001 5.08887 12.4983C5.08887 12.3964 5.1094 12.2956 5.14923 12.2019C5.18906 12.1081 5.24739 12.0234 5.32071 11.9527C5.39403 11.8819 5.48086 11.8267 5.57599 11.7903C5.67112 11.7539 5.77263 11.7371 5.87442 11.7408H18.5054C18.7015 11.7479 18.8873 11.8308 19.0235 11.9721C19.1597 12.1134 19.2359 12.302 19.2359 12.4983C19.2359 12.6946 19.1597 12.8832 19.0235 13.0245C18.8873 13.1657 18.7015 13.2487 18.5054 13.2558H5.87442ZM5.87442 18.9148C5.77263 18.9185 5.67112 18.9016 5.57599 18.8652C5.48086 18.8288 5.39403 18.7736 5.32071 18.7029C5.24739 18.6322 5.18906 18.5475 5.14923 18.4537C5.1094 18.36 5.08887 18.2591 5.08887 18.1573C5.08887 18.0554 5.1094 17.9546 5.14923 17.8609C5.18906 17.7671 5.24739 17.6824 5.32071 17.6117C5.39403 17.5409 5.48086 17.4857 5.57599 17.4493C5.67112 17.4129 5.77263 17.3961 5.87442 17.3998H18.5054C18.7015 17.4069 18.8873 17.4898 19.0235 17.6311C19.1597 17.7724 19.2359 17.961 19.2359 18.1573C19.2359 18.3536 19.1597 18.5422 19.0235 18.6834C18.8873 18.8247 18.7015 18.9077 18.5054 18.9148H5.87442ZM5.87442 24.7388C5.77263 24.7425 5.67112 24.7256 5.57599 24.6892C5.48086 24.6528 5.39403 24.5976 5.32071 24.5269C5.24739 24.4562 5.18906 24.3715 5.14923 24.2777C5.1094 24.184 5.08887 24.0831 5.08887 23.9813C5.08887 23.8794 5.1094 23.7786 5.14923 23.6849C5.18906 23.5911 5.24739 23.5064 5.32071 23.4357C5.39403 23.3649 5.48086 23.3097 5.57599 23.2733C5.67112 23.2369 5.77263 23.2201 5.87442 23.2238H18.5054C18.7015 23.2309 18.8873 23.3138 19.0235 23.4551C19.1597 23.5964 19.2359 23.785 19.2359 23.9813C19.2359 24.1776 19.1597 24.3662 19.0235 24.5075C18.8873 24.6487 18.7015 24.7317 18.5054 24.7388H5.87442Z" fill="#B7BDC6"/>
</svg>
