<svg data-name="组 173" xmlns="http://www.w3.org/2000/svg" width="136" height="79" viewBox="0 0 136 79">
    <path data-name="减去 44" d="M93 71H7a7.008 7.008 0 0 1-7-7V7a7.008 7.008 0 0 1 7-7h86a7.008 7.008 0 0 1 7 7v57a7.008 7.008 0 0 1-7 7zM9 4a5.006 5.006 0 0 0-5 5v53a5.006 5.006 0 0 0 5 5h82a5.006 5.006 0 0 0 5-5V9a5.006 5.006 0 0 0-5-5z" transform="translate(17 4)" style="fill:#3d4a53"/>
    <path data-name="路径 30" d="m110.949 226.688 16.237 16.119a1.5 1.5 0 0 0 2.121 0l2.121-2.105a1.478 1.478 0 0 0 0-2.105l-16.244-16.111a8.87 8.87 0 0 0-1.755-10.147 9.032 9.032 0 0 0-10.221-1.742l5.988 5.944-4.233 4.2-5.991-5.941a8.87 8.87 0 0 0 1.756 10.146 9.032 9.032 0 0 0 10.221 1.742z" transform="translate(-47.98 -183.726)" style="fill:#fb6943"/>
    <rect data-name="矩形 320" width="40" height="6" rx="2" transform="translate(47 73)" style="fill:#3d4a53"/>
    <circle data-name="椭圆 32" cx="2" cy="2" r="2" transform="translate(125 26)" style="fill:#1e2329"/>
    <circle data-name="椭圆 33" cx="2.5" cy="2.5" r="2.5" transform="translate(131 1)" style="fill:#fb6943"/>
    <circle data-name="椭圆 34" cx="1.5" cy="1.5" r="1.5" transform="translate(0 48)" style="fill:#1e2329"/>
    <circle data-name="椭圆 35" cx="1" cy="1" r="1" transform="translate(119)" style="fill:#fb6943"/>
    <circle data-name="椭圆 36" cx="2.5" cy="2.5" r="2.5" transform="translate(2 64)" style="fill:#fb6943"/>
</svg>
