<svg xmlns="http://www.w3.org/2000/svg" width="403" height="301" viewBox="0 0 403 301">
    <defs>
        <clipPath id="rdazztnfsa">
            <path data-name="矩形 11467" transform="translate(609 226)" style="stroke:#707070;fill:#fff" d="M0 0h403v301H0z"/>
        </clipPath>
    </defs>
    <g data-name="蒙版组 6549" transform="translate(-609 -226)" style="clip-path:url(#rdazztnfsa)">
        <g data-name="组 12613">
            <g transform="translate(557.11 233.096)" style="opacity:.108">
                <path data-name="路径 23405" d="m222.803 168.575-5.1-8.894-7.989 1.178-6.561-8.293 3.4-8.262-8.917-5.914-6.655 6.709-8.761-1.56-3.589-10.297-10.648 1.123-.609 9.019-7.911 4.049-8.394-5.953-8.519 6.241 4.431 9.51-5.071 7.638-9.214-.491-2.4 11.367 8.769 3.37.78 9.549-9.081 5.219 4.338 9.853 9.409-1.467 6.241 7.193-3.253 8.964 8.582 6.085 6.721-7.269 9.362 2.52 2.9 9.627 10.368-.694 1.334-8.652 8.894-5.1 7.271 5.8 9.2-6.858-4.681-8.1 4.533-8.121 9.323.687 2.863-10.571-8.012-4.338-1.108-9.635zm-36.113 31.112a20.955 20.955 0 1 1 7.739-28.608 20.955 20.955 0 0 1-7.739 28.608z"/>
                <path data-name="路径 23406" d="M185.544 175.417a21.064 21.064 0 0 0-1.709-2.114 11.008 11.008 0 0 0-6.5-3.2 10.844 10.844 0 0 0-5 .53 10.93 10.93 0 0 0-7.209 9.089 10.828 10.828 0 0 0 6.4 11.156 10.328 10.328 0 0 0 3.121.866 10.47 10.47 0 0 0 3.121-.086 10.992 10.992 0 0 0 8.707-13.7 22.439 22.439 0 0 0-.967-2.543.882.882 0 0 1 .094.156l.257.46a5.545 5.545 0 0 1 .374.78 7.867 7.867 0 0 1 .39 1.108 10.338 10.338 0 0 1 .452 3.2 11.2 11.2 0 0 1-9.268 10.914 10.432 10.432 0 0 1-3.238.1 10.674 10.674 0 0 1-3.261-.882 11.23 11.23 0 1 1 10.048-20.05 10.4 10.4 0 0 1 2.535 2 7.984 7.984 0 0 1 .78.9 5.79 5.79 0 0 1 .484.71l.265.46a1.368 1.368 0 0 1 .117.148z"/>
                <path data-name="路径 23407" d="M195.509 152.083c.1.062-2.77 4.579-6.4 10.087s-6.647 9.931-6.741 9.869 2.777-4.579 6.405-10.087 6.636-9.932 6.736-9.869z"/>
                <path data-name="路径 23408" d="M205.804 188.757a27.872 27.872 0 0 1-2.809-.827c-1.732-.538-4.127-1.233-6.8-1.888s-5.126-1.139-6.9-1.459a29.264 29.264 0 0 1-2.879-.554 2.569 2.569 0 0 1 .78 0c.507.039 1.233.125 2.138.25 1.794.25 4.26.687 6.951 1.342a70.523 70.523 0 0 1 6.787 2.013c.858.3 1.56.562 2 .78a2.69 2.69 0 0 1 .726.343z"/>
                <path data-name="路径 23409" d="M180.613 191.184a16.019 16.019 0 0 1 .866 2.457c.468 1.56 1.061 3.69 1.615 6.077s.975 4.587 1.225 6.179a14.823 14.823 0 0 1 .312 2.59 19.149 19.149 0 0 1-.593-2.543c-.328-1.56-.78-3.745-1.342-6.132s-1.1-4.533-1.5-6.093a18.974 18.974 0 0 1-.585-2.536z"/>
                <path data-name="路径 23410" d="M169.293 189.897c.094.062-1.787 3.362-4.213 7.372a84.717 84.717 0 0 1-4.556 7.162c-.094-.055 1.787-3.355 4.213-7.372s4.462-7.217 4.556-7.162z"/>
                <path data-name="路径 23411" d="M167.686 154.173c.109 0 1.279 3.464 2.621 7.8a77.788 77.788 0 0 1 2.223 7.919 79.249 79.249 0 0 1-2.613-7.8q-1.313-3.9-2.231-7.919z"/>
                <path data-name="路径 23412" d="M165.314 178.843a53.95 53.95 0 0 1-6.545-.421 51.288 51.288 0 0 1-6.5-.827 53.834 53.834 0 0 1 6.538.421 53.316 53.316 0 0 1 6.506.827z"/>
                <circle data-name="椭圆 625" cx="8.644" cy="8.644" r="8.644" transform="rotate(-80.54 193.976 -3.943)"/>
                <path data-name="路径 23413" d="M180.105 181.003a12.813 12.813 0 0 1-1.186-.7 8.012 8.012 0 0 0-6.327-.687 11.608 11.608 0 0 1-1.311.437c-.031-.055.4-.382 1.217-.71a7.185 7.185 0 0 1 6.569.71 3.066 3.066 0 0 1 1.038.95z"/>
                <path data-name="路径 23414" d="M176.626 175.94a20.287 20.287 0 0 0-1.365 4.01 20.806 20.806 0 0 0-.117 4.236 8.972 8.972 0 0 1 1.482-8.246z"/>
                <path data-name="路径 23415" d="m225.775 18.24-2.567-4.47-4.026.593-3.323-4.174 1.716-4.158-4.486-2.98-3.347 3.378-4.416-.78L203.541.46l-5.36.57-.3 4.533-3.983 2.074-4.228-2.988-4.291 3.121 2.231 4.806-2.551 3.838-4.634-.242-1.217 5.718 4.439 1.662.382 4.806-4.579 2.621 2.192 4.962 4.728-.733 3.121 3.62-1.638 4.509 4.338 3.066 3.386-3.667 4.681 1.272 1.459 4.845 5.219-.351.671-4.353 4.478-2.567 3.659 2.918 4.626-3.448-2.34-4.08 2.286-4.08 4.681.343 1.459-5.313-4.033-2.184-.546-4.837zm-18.177 15.665a7.727 7.727 0 1 1 .016 0z"/>
                <path data-name="路径 23416" d="M207.052 21.682a9.249 9.249 0 0 0-.858-1.069 5.586 5.586 0 0 0-3.269-1.607 5.48 5.48 0 0 0-6.109 4.845 5.461 5.461 0 0 0 .686 3.339 5.539 5.539 0 0 0 2.481 2.292 5.2 5.2 0 0 0 1.56.429 5.071 5.071 0 0 0 1.56-.039 5.461 5.461 0 0 0 2.621-1.225 5.321 5.321 0 0 0 1.5-2.036 5.5 5.5 0 0 0 .257-3.635 10.221 10.221 0 0 0-.429-1.3l.047.078.133.234a3.127 3.127 0 0 1 .187.39 4.08 4.08 0 0 1 .2.554 5.244 5.244 0 0 1 .226 1.607 5.562 5.562 0 0 1-.421 2.106 5.625 5.625 0 0 1-1.56 2.114 5.7 5.7 0 0 1-2.707 1.287 5.173 5.173 0 0 1-1.631.047 5.118 5.118 0 0 1-1.638-.445 5.656 5.656 0 0 1-2.637-2.34 5.757 5.757 0 0 1-.71-3.464 5.64 5.64 0 0 1 8.4-4.275 5.462 5.462 0 0 1 1.334.991 3.583 3.583 0 0 1 .382.452 2.229 2.229 0 0 1 .242.359l.14.234a.28.28 0 0 1 .013.077z"/>
                <path data-name="路径 23417" d="M212.052 9.979c.047 0-1.4 2.34-3.222 5.079s-3.339 5-3.394 4.97 1.4-2.34 3.222-5.079 3.349-5.041 3.394-4.97z"/>
                <path data-name="路径 23418" d="M217.231 28.405a14.72 14.72 0 0 1-1.412-.421c-.866-.265-2.075-.616-3.425-.952s-2.574-.57-3.472-.726a11.946 11.946 0 0 1-1.443-.289 1.848 1.848 0 0 1 .39 0 9.721 9.721 0 0 1 1.077.125c.9.125 2.145.351 3.5.679a35.058 35.058 0 0 1 3.417 1.014c.429.148.78.281 1.006.382a1.209 1.209 0 0 1 .359.187z"/>
                <path data-name="路径 23419" d="M204.555 29.622a8.124 8.124 0 0 1 .437 1.24c.234.78.531 1.857.78 3.058s.491 2.34.616 3.121a6.691 6.691 0 0 1 .156 1.311 9.361 9.361 0 0 1-.3-1.279c-.164-.78-.4-1.888-.671-3.121s-.554-2.286-.78-3.066a8.711 8.711 0 0 1-.242-1.264z"/>
                <path data-name="路径 23420" d="M198.86 28.975c.047 0-.9 1.693-2.122 3.714s-2.247 3.635-2.294 3.6.9-1.693 2.122-3.69 2.239-3.647 2.294-3.624z"/>
                <path data-name="路径 23421" d="M198.049 10.992c.055 0 .64 1.748 1.318 3.9a37.825 37.825 0 0 1 1.123 3.987 40.709 40.709 0 0 1-1.318-3.9 40.758 40.758 0 0 1-1.123-3.987z"/>
                <path data-name="路径 23422" d="M196.855 23.412a27.228 27.228 0 0 1-3.292-.211 24.481 24.481 0 0 1-3.277-.421 26.4 26.4 0 0 1 3.292.218 26.806 26.806 0 0 1 3.277.414z"/>
                <path data-name="路径 23423" d="M205.968 22.304a4.338 4.338 0 1 1-2.634-2.038 4.345 4.345 0 0 1 2.634 2.038z"/>
                <path data-name="路径 23424" d="M204.298 24.497s-.226-.148-.593-.351a4.314 4.314 0 0 0-1.56-.5 4.135 4.135 0 0 0-1.631.156c-.406.117-.64.242-.655.218a1.435 1.435 0 0 1 .609-.359 3.651 3.651 0 0 1 3.308.359 1.56 1.56 0 0 1 .523.476z"/>
                <path data-name="路径 23425" d="M202.558 21.953a10.381 10.381 0 0 0-.687 2.013 10.447 10.447 0 0 0-.062 2.138 3.9 3.9 0 0 1-.14-2.169 3.784 3.784 0 0 1 .889-1.982z"/>
                <path data-name="路径 23436" d="m416.351 121.61-6.46-11.265-10.142 1.49-8.363-10.513 4.314-10.47-11.3-7.489-8.433 8.527-11.1-1.943-4.5-13.06-13.5 1.428-.78 11.421-10.056 5.11-10.641-7.536-10.8 7.864 5.609 12.085-6.421 9.682-11.7-.616-2.968 14.366 11.1 4.275.96 12.1-11.515 6.608 5.461 12.482 11.936-1.849 7.9 9.12-4.127 11.351 10.922 7.716 8.519-9.221 11.827 3.2 3.674 12.2 13.138-.889 1.693-10.922 11.265-6.467 9.221 7.349 11.648-8.683-5.89-10.267 5.742-10.282 11.819.866 3.628-13.4-10.145-5.456-1.35-12.209zm-45.771 39.421a26.525 26.525 0 1 1 12.424-16.092 26.525 26.525 0 0 1-12.424 16.092z"/>
                <path data-name="路径 23437" d="M369.121 130.285a24.009 24.009 0 0 0-2.161-2.684 13.836 13.836 0 1 0-15.58 22.273 13.03 13.03 0 0 0 3.987 1.092 13.185 13.185 0 0 0 3.963-.1 13.84 13.84 0 0 0 10.384-8.215 14 14 0 0 0 .648-9.151 23.8 23.8 0 0 0-1.233-3.214.841.841 0 0 1 .125.187l.328.585a6.17 6.17 0 0 1 .468.983 10.636 10.636 0 0 1 .507 1.4 13.443 13.443 0 0 1 .57 4.049 14.175 14.175 0 0 1-4.916 10.623 14.262 14.262 0 1 1-2.27-23.186 13.358 13.358 0 0 1 3.206 2.535 10.349 10.349 0 0 1 .96 1.139 7.21 7.21 0 0 1 .616.9l.335.577a1.351 1.351 0 0 1 .063.207z"/>
                <path data-name="路径 23438" d="M381.759 100.71c.117.078-3.511 5.8-8.114 12.787s-8.418 12.584-8.535 12.482 3.511-5.8 8.106-12.787 8.418-12.56 8.543-12.482z"/>
                <path data-name="路径 23439" d="M394.803 147.183a34.488 34.488 0 0 1-3.565-1.045c-2.184-.679-5.219-1.56-8.582-2.4s-6.491-1.435-8.745-1.841a34.965 34.965 0 0 1-3.643-.71 3.5 3.5 0 0 1 1 0c.64.055 1.56.156 2.7.32a89.02 89.02 0 0 1 8.816 1.7c3.4.835 6.436 1.779 8.582 2.543a50.74 50.74 0 0 1 2.543.967 3.9 3.9 0 0 1 .894.466z"/>
                <path data-name="路径 23440" d="M362.879 150.257a18.621 18.621 0 0 1 1.092 3.121c.6 1.95 1.35 4.681 2.052 7.7s1.233 5.812 1.56 7.8a19.6 19.6 0 0 1 .4 3.284 23.207 23.207 0 0 1-.78-3.222c-.414-1.989-.991-4.743-1.693-7.8s-1.4-5.75-1.9-7.723a23.269 23.269 0 0 1-.726-3.16z"/>
                <path data-name="路径 23441" d="M348.532 148.627c.125.078-2.262 4.26-5.328 9.362a105.448 105.448 0 0 1-5.781 9.073c-.125-.078 2.27-4.252 5.336-9.362s5.655-9.143 5.773-9.073z"/>
                <path data-name="路径 23442" d="M346.496 103.362a102.594 102.594 0 0 1 3.316 9.892c1.693 5.508 2.965 10 2.832 10.041s-1.623-4.384-3.323-9.892-2.962-10.002-2.825-10.041z"/>
                <path data-name="路径 23443" d="M343.492 134.61a65.241 65.241 0 0 1-8.293-.53 67.555 67.555 0 0 1-8.238-1.045 68.756 68.756 0 0 1 8.293.53 65.762 65.762 0 0 1 8.238 1.045z"/>
                <circle data-name="椭圆 627" cx="10.953" cy="10.953" r="10.953" transform="rotate(-74.66 266.776 -152.729)"/>
                <path data-name="路径 23444" d="M362.231 137.361a16.5 16.5 0 0 1-1.5-.9 10.735 10.735 0 0 0-3.9-1.264 10.477 10.477 0 0 0-4.1.4 14.446 14.446 0 0 1-1.662.546 3.9 3.9 0 0 1 1.56-.889 9.1 9.1 0 0 1 8.324.9c.888.622 1.348 1.16 1.278 1.207z"/>
                <path data-name="路径 23445" d="M357.844 130.94a26.641 26.641 0 0 0-1.732 5.079 28.077 28.077 0 0 0-.148 5.367c-.148.023-.921-2.4-.351-5.461a9.839 9.839 0 0 1 2.231-4.985z"/>
                <path data-name="路径 23446" d="m296.925 191.254-3.175-5.539-4.985.726-4.111-5.165 2.122-5.141-5.555-3.69-4.147 4.181-5.461-.96-2.216-6.421-6.639.7-.374 5.617-4.946 2.512-5.235-3.706-5.305 3.9 2.762 5.945-3.16 4.759-5.742-.3-1.5 7.076 5.461 2.106.468 5.945-5.664 3.253 2.707 6.14 5.859-.913 3.9 4.486-2.028 5.586 5.367 3.792 4.189-4.533 5.812 1.56 1.81 6 6.46-.437.835-5.383 5.539-3.183 4.533 3.62 5.726-4.275-2.894-5.048 2.824-5.055 5.812.421 1.779-6.584-4.985-2.7-.663-6.007zm-22.5 19.387a13.06 13.06 0 1 1 4.821-17.826 13.06 13.06 0 0 1-4.821 17.826z"/>
                <path data-name="路径 23447" d="M273.708 195.522a11.515 11.515 0 0 0-1.061-1.326 6.886 6.886 0 0 0-10.111.351 6.3 6.3 0 0 0-1.022 1.662 6.39 6.39 0 0 0-.53 1.958 6.764 6.764 0 0 0 3.994 6.951 6.813 6.813 0 0 0 9.323-8.043 12.055 12.055 0 0 0-.6-1.56l.062.086.156.289a3.256 3.256 0 0 1 .234.491 5.668 5.668 0 0 1 .25.687 6.506 6.506 0 0 1 .273 1.989 6.8 6.8 0 0 1-.523 2.606 6.9 6.9 0 0 1-1.888 2.613 7.022 7.022 0 0 1-3.347 1.56 6.67 6.67 0 0 1-2.013.062 6.381 6.381 0 0 1-2.036-.554 7.014 7.014 0 0 1-2.52-10.946 7.068 7.068 0 0 1 3.05-2.091 6.928 6.928 0 0 1 3.214-.312 7.021 7.021 0 0 1 2.52.858 6.718 6.718 0 0 1 1.56 1.24 5.232 5.232 0 0 1 .468.562 3.828 3.828 0 0 1 .3.445l.172.289z"/>
                <path data-name="路径 23448" d="M279.918 180.972c.062.039-1.724 2.855-3.987 6.288s-4.143 6.194-4.2 6.155 1.724-2.855 3.987-6.288 4.146-6.186 4.2-6.155z"/>
                <path data-name="路径 23449" d="M286.331 203.83s-.671-.187-1.748-.515-2.567-.78-4.236-1.178-3.191-.71-4.3-.9a16.383 16.383 0 0 1-1.794-.351 2.149 2.149 0 0 1 .492 0 11.653 11.653 0 0 1 1.326.156 45.83 45.83 0 0 1 4.338.835 41.971 41.971 0 0 1 4.228 1.256c.53.187.96.351 1.248.468a1.739 1.739 0 0 1 .445.234z"/>
                <path data-name="路径 23450" d="M270.634 205.336a9.092 9.092 0 0 1 .538 1.56c.3.96.663 2.294 1.014 3.792s.6 2.855.78 3.846a9.188 9.188 0 0 1 .2 1.615 12.761 12.761 0 0 1-.367-1.56c-.2-.983-.492-2.34-.835-3.823s-.687-2.832-.936-3.8a11.845 11.845 0 0 1-.394-1.63z"/>
                <path data-name="路径 23451" d="M263.581 204.54c.062.039-1.116 2.091-2.621 4.6s-2.777 4.494-2.84 4.462 1.116-2.091 2.621-4.6a52.318 52.318 0 0 1 2.84-4.462z"/>
                <path data-name="路径 23452" d="M262.583 182.282c.062 0 .78 2.153 1.631 4.86a50.3 50.3 0 0 1 1.389 4.938 103.485 103.485 0 0 1-3.019-9.8z"/>
                <path data-name="路径 23453" d="M261.101 197.651a66.754 66.754 0 0 1-8.129-.78 32.4 32.4 0 0 1 4.08.265 31.74 31.74 0 0 1 4.049.515z"/>
                <circle data-name="椭圆 628" cx="5.383" cy="5.383" r="5.383" transform="rotate(-72.18 269.338 -77.762)"/>
                <path data-name="路径 23454" d="M270.322 199.001a8.894 8.894 0 0 0-.78-.445 5.329 5.329 0 0 0-1.927-.616 5.063 5.063 0 0 0-2.013.2 7.315 7.315 0 0 1-.819.265 1.912 1.912 0 0 1 .78-.437 4.447 4.447 0 0 1 4.1.445 1.9 1.9 0 0 1 .663.593z"/>
                <path data-name="路径 23455" d="M268.161 195.841a8.777 8.777 0 0 0-.921 5.133 4.681 4.681 0 0 1-.179-2.676 4.767 4.767 0 0 1 1.1-2.457z"/>
                <path data-name="路径 23456" d="m334.848 35.333-5.1-8.894-8.012 1.178-6.587-8.277 3.4-8.262-8.909-5.929-6.631 6.709-8.761-1.56-3.557-10.3-10.649 1.123-.6 9.011-7.958 4.058-8.4-5.953-8.519 6.241 4.423 9.541-5.069 7.639-9.214-.491-2.406 11.367 8.769 3.331.78 9.549-9.089 5.219 4.345 9.853 9.4-1.467 6.241 7.193-3.261 8.964 8.621 6.085 6.714-7.271 9.362 2.52 2.9 9.627 10.368-.694 1.349-8.653 8.886-5.1 7.271 5.8 9.12-6.85-4.681-8.1 4.533-8.121 9.362.687 2.863-10.571-8-4.338-1.069-9.627zm-36.113 31.112a20.963 20.963 0 1 1 7.739-28.616 20.963 20.963 0 0 1-7.739 28.616z"/>
                <path data-name="路径 23457" d="M297.547 42.175a19.71 19.71 0 0 0-1.708-2.114 10.977 10.977 0 0 0-6.491-3.2 10.828 10.828 0 0 0-5 .531 10.921 10.921 0 0 0-7.216 9.089 10.829 10.829 0 0 0 6.4 11.156 10.384 10.384 0 0 0 3.121.866 10.517 10.517 0 0 0 3.121-.086 10.922 10.922 0 0 0 8.192-6.475 11.063 11.063 0 0 0 .507-7.224 19.19 19.19 0 0 0-.967-2.543.639.639 0 0 1 .1.156l.257.46a4.825 4.825 0 0 1 .367.78 7.8 7.8 0 0 1 .4 1.108 10.79 10.79 0 0 1 .452 3.2 11.172 11.172 0 0 1-9.245 10.922 10.431 10.431 0 0 1-3.238.1 10.555 10.555 0 0 1-3.261-.882 11.2 11.2 0 0 1-6.647-11.57 10.844 10.844 0 0 1 .882-3.261 10.547 10.547 0 0 1 1.794-2.785 11.242 11.242 0 0 1 4.915-3.323 11.047 11.047 0 0 1 5.149-.507 11.3 11.3 0 0 1 4.049 1.373 10.7 10.7 0 0 1 2.5 2 7.231 7.231 0 0 1 .78.9 5.012 5.012 0 0 1 .484.71l.273.46a.717.717 0 0 1 .023.156z"/>
                <path data-name="路径 23458" d="M307.551 18.841c.094.062-2.77 4.579-6.4 10.087s-6.647 9.916-6.725 9.869 2.77-4.579 6.4-10.087 6.631-9.929 6.725-9.869z"/>
                <path data-name="路径 23459" d="M317.833 55.515a28.563 28.563 0 0 1-2.809-.827c-1.724-.538-4.119-1.233-6.8-1.888s-5.126-1.139-6.9-1.459a28.735 28.735 0 0 1-2.871-.554 2.535 2.535 0 0 1 .78 0 19.136 19.136 0 0 1 2.13.25c1.794.25 4.267.687 6.951 1.342a70.763 70.763 0 0 1 6.8 2.013c.85.3 1.56.562 2.005.78a2.545 2.545 0 0 1 .718.343z"/>
                <path data-name="路径 23460" d="M292.65 57.934a14.46 14.46 0 0 1 .866 2.465c.468 1.56 1.061 3.69 1.623 6.077s.967 4.587 1.225 6.179a14.268 14.268 0 0 1 .3 2.59 19.162 19.162 0 0 1-.593-2.543c-.32-1.56-.78-3.745-1.334-6.132s-1.1-4.533-1.506-6.093a18.6 18.6 0 0 1-.581-2.543z"/>
                <path data-name="路径 23461" d="M281.33 56.655c.1.062-1.787 3.362-4.205 7.372s-4.462 7.224-4.556 7.162 1.787-3.355 4.205-7.372 4.463-7.217 4.556-7.162z"/>
                <path data-name="路径 23462" d="M279.723 20.9c.109 0 1.279 3.464 2.621 7.8a81.566 81.566 0 0 1 2.232 7.928 82.075 82.075 0 0 1-2.621-7.8 77.019 77.019 0 0 1-2.232-7.928z"/>
                <path data-name="路径 23463" d="M277.351 45.6a105.627 105.627 0 0 1-13.044-1.248 53.876 53.876 0 0 1 6.545.421 53.051 53.051 0 0 1 6.5.827z"/>
                <circle data-name="椭圆 629" cx="8.62" cy="8.62" r="8.62" transform="rotate(-15.709 288.113 -980.732)"/>
                <path data-name="路径 23464" d="M292.143 47.761c-.039.047-.452-.3-1.186-.7a8 8 0 0 0-6.327-.687 11.612 11.612 0 0 1-1.311.437 2.91 2.91 0 0 1 1.217-.71 7.185 7.185 0 0 1 6.569.71c.725.489 1.077.918 1.038.95z"/>
                <path data-name="路径 23465" d="M288.679 42.698a21.24 21.24 0 0 0-1.357 4.01 21.18 21.18 0 0 0-.125 4.236 8.972 8.972 0 0 1 1.482-8.246z"/>
                <path data-name="路径 23466" d="m177.406 52.356-1.326-2.34-2.067.3-1.755-2.114.882-2.145-2.34-1.56-1.724 1.74-2.27-.4-.921-2.676-2.762.3-.156 2.34-2.052 1.045-2.177-1.56-2.208 1.607 1.147 2.473-1.318 1.974-2.387-.125-.624 2.949 2.27.874.2 2.473-2.34 1.35 1.123 2.559 2.434-.382 1.646 1.911-.843 2.34 2.231 1.56 1.748-1.888 2.418.655.78 2.5 2.692-.179.343-2.247 2.3-1.318 1.888 1.506 2.379-1.779-1.2-2.1 1.178-2.106 2.411.179.741-2.738-2.075-1.123-.273-2.5zm-9.362 8.059a5.461 5.461 0 1 1 2.005-7.411 5.461 5.461 0 0 1-2.005 7.411z"/>
                <path data-name="路径 23467" d="M167.71 54.127a5.942 5.942 0 0 0-.484-.507 2.879 2.879 0 0 0-1.662-.78 2.7 2.7 0 1 0 2.161 3.76 2.926 2.926 0 0 0 .179-1.818c-.1-.429-.226-.655-.2-.671a1.451 1.451 0 0 1 .343.632 2.809 2.809 0 0 1-.062 1.966 3 3 0 0 1-2.247 1.841 3.042 3.042 0 1 1-.14-6 2.848 2.848 0 0 1 1.732.944 1.482 1.482 0 0 1 .38.633z"/>
                <path data-name="路径 23468" d="M170.292 48.081a11.929 11.929 0 0 1-1.56 2.692 11.7 11.7 0 0 1-1.872 2.481 11.881 11.881 0 0 1 1.56-2.7 11.772 11.772 0 0 1 1.872-2.473z"/>
                <path data-name="路径 23469" d="M172.959 57.568a13.386 13.386 0 0 1-2.528-.554 13.146 13.146 0 0 1-2.5-.671 9.728 9.728 0 0 1 5.028 1.225z"/>
                <path data-name="路径 23470" d="M166.429 58.215a5.726 5.726 0 0 1 .78 2.177 5.563 5.563 0 0 1 .25 2.3 7.989 7.989 0 0 1-.64-2.208 8.05 8.05 0 0 1-.39-2.269z"/>
                <path data-name="路径 23471" d="M163.496 57.879a6.242 6.242 0 0 1-.96 1.989 6.382 6.382 0 0 1-1.311 1.779 5.976 5.976 0 0 1 .96-1.989 6.241 6.241 0 0 1 1.311-1.779z"/>
                <path data-name="路径 23472" d="M163.083 48.619a5.851 5.851 0 0 1 .819 1.982 6.069 6.069 0 0 1 .437 2.1 5.859 5.859 0 0 1-.827-1.982 5.742 5.742 0 0 1-.429-2.1z"/>
                <path data-name="路径 23473" d="M162.47 55.016a3.846 3.846 0 0 1-1.709 0 3.729 3.729 0 0 1-1.677-.367 3.9 3.9 0 0 1 1.716 0 3.6 3.6 0 0 1 1.669.367z"/>
                <path data-name="路径 23474" d="M167.155 54.447a2.239 2.239 0 1 1-3.058-.827 2.239 2.239 0 0 1 3.058.827z"/>
                <path data-name="路径 23475" d="M166.297 55.57c-.078.086-.515-.226-1.123-.289s-1.108.14-1.162.047.429-.531 1.2-.452 1.178.631 1.085.694z"/>
                <path data-name="路径 23476" d="M165.4 54.26c.094.07-.109.507-.2 1.069s-.07 1.038-.179 1.069-.343-.476-.218-1.139.511-1.069.597-.999z"/>
                <path data-name="路径 23477" d="M393.383 42.746 391.231 39l-3.362.491-2.785-3.487 1.4-3.511-3.753-2.5-2.8 2.832-3.69-.648-1.459-4.345-4.486.476-.257 3.8-3.339 1.693-3.542-2.5-3.589 2.614 1.865 4.018-2.138 3.253-3.9-.211-1.006 4.79 3.69 1.42.32 4.026-3.831 2.192 1.826 4.15 3.963-.616 2.645 2.972-1.372 3.767 3.628 2.567 2.832-3.066 3.9 1.061 1.225 4.057 4.369-.289.562-3.643 3.745-2.153 3.066 2.442 3.9-2.887-1.958-3.409 1.911-3.417 3.9.289 1.209-4.455-3.355-1.787-.453-4.057zM378.17 55.853a23.849 23.849 0 1 0 0-.031z"/>
                <path data-name="路径 23478" d="M377.687 45.592c-.039 0-.234-.343-.78-.858a4.735 4.735 0 0 0-2.715-1.3 4.494 4.494 0 1 0 3.581 6.241 4.681 4.681 0 0 0 .25-3c-.187-.7-.406-1.061-.367-1.084a1.181 1.181 0 0 1 .172.25 3.669 3.669 0 0 1 .343.78 4.626 4.626 0 0 1-.133 3.121 4.813 4.813 0 0 1-3.6 2.91 4.743 4.743 0 0 1-2.8-.335 4.83 4.83 0 0 1 2.59-9.214 4.681 4.681 0 0 1 2.785 1.474 3.656 3.656 0 0 1 .515.694 1.265 1.265 0 0 1 .156.312z"/>
                <path data-name="路径 23479" d="M381.883 35.762a31.29 31.29 0 0 1-2.6 4.322 31.74 31.74 0 0 1-2.933 4.088 31.484 31.484 0 0 1 2.6-4.314 32.19 32.19 0 0 1 2.933-4.1z"/>
                <path data-name="路径 23480" d="M386.221 51.209c0 .117-1.826-.484-4.072-1.022s-4.1-.85-4.1-.967a14.112 14.112 0 0 1 4.189.57 14.355 14.355 0 0 1 3.979 1.42z"/>
                <path data-name="路径 23481" d="M375.611 52.231a13.729 13.729 0 0 1 1.162 3.573 13.622 13.622 0 0 1 .531 3.721 24.234 24.234 0 0 1-.928-3.628 23.81 23.81 0 0 1-.765-3.667z"/>
                <path data-name="路径 23482" d="M370.884 51.693a16.033 16.033 0 0 1-1.677 3.167 15.365 15.365 0 0 1-2.021 2.957 16.03 16.03 0 0 1 1.677-3.167 15.368 15.368 0 0 1 2.021-2.957z"/>
                <path data-name="路径 23483" d="M370.166 36.644a15.3 15.3 0 0 1 1.217 3.253 15.6 15.6 0 0 1 .827 3.378 14.819 14.819 0 0 1-1.217-3.253 14.965 14.965 0 0 1-.827-3.378z"/>
                <path data-name="路径 23484" d="M369.167 47.035a9.26 9.26 0 0 1-2.769-.062 9.487 9.487 0 0 1-2.723-.46 19.168 19.168 0 0 1 5.461.523z"/>
                <path data-name="路径 23485" d="M376.798 46.107a3.636 3.636 0 1 1-2.206-1.7 3.643 3.643 0 0 1 2.206 1.7z"/>
                <path data-name="路径 23486" d="M375.393 47.948a9.216 9.216 0 0 0-1.81-.6 9.58 9.58 0 0 0-1.9.2 2.13 2.13 0 0 1 1.943-.6c1.205.134 1.868.945 1.767 1z"/>
                <path data-name="路径 23487" d="M373.942 45.818c.094.062-.3.78-.46 1.709s-.055 1.732-.164 1.763a2.341 2.341 0 0 1-.242-1.841c.187-1.046.78-1.709.866-1.631z"/>
                <path data-name="路径 23488" d="m115.065 220.689-2.153-3.745-3.362.5-2.785-3.5 1.435-3.479-3.753-2.489-2.8 2.824-3.69-.647-1.5-4.361-4.486.468-.257 3.8-3.339 1.7-3.542-2.5-3.589 2.614 1.865 4.018-2.13 3.214-3.9-.2-1.014 4.782 3.7 1.42.312 4.026-3.823 2.192 1.826 4.15 3.963-.616 2.622 3.036-1.357 3.792 3.636 2.559 2.832-3.066 3.9 1.069 1.225 4.049 4.369-.289.562-3.643 3.745-2.153 3.066 2.45 3.9-2.894-1.958-3.409 1.911-3.417 3.9.289 1.209-4.455-3.378-1.826-.445-4.057zm-15.213 13.107a8.831 8.831 0 1 1 3.261-12.053 8.831 8.831 0 0 1-3.261 12.053z"/>
                <path data-name="路径 23489" d="M99.392 223.576a11.062 11.062 0 0 0-.78-.866 4.735 4.735 0 0 0-2.715-1.3 4.494 4.494 0 1 0 3.581 6.241 4.744 4.744 0 0 0 .25-3c-.187-.7-.406-1.061-.367-1.077a.974.974 0 0 1 .172.242 4.1 4.1 0 0 1 .343.78 4.626 4.626 0 0 1-.133 3.121 4.821 4.821 0 0 1-6.4 2.582 4.9 4.9 0 0 1-2.262-2.028 4.822 4.822 0 0 1 4.86-7.185 4.6 4.6 0 0 1 2.793 1.467 3.433 3.433 0 0 1 .515.7.968.968 0 0 1 .143.323z"/>
                <path data-name="路径 23490" d="M103.565 213.746a62.632 62.632 0 0 1-5.531 8.4 62.627 62.627 0 0 1 5.531-8.4z"/>
                <path data-name="路径 23491" d="M107.902 229.201c-.047.109-1.826-.492-4.072-1.03s-4.111-.85-4.1-.967a14.135 14.135 0 0 1 4.189.57 13.933 13.933 0 0 1 3.983 1.427z"/>
                <path data-name="路径 23492" d="M97.293 230.215a13.309 13.309 0 0 1 1.155 3.565 13.5 13.5 0 0 1 .538 3.721q-1.008-3.6-1.693-7.287z"/>
                <path data-name="路径 23493" d="M92.526 229.668a16.032 16.032 0 0 1-1.677 3.167 15.066 15.066 0 0 1-2.021 2.957 16.274 16.274 0 0 1 1.677-3.167 15.682 15.682 0 0 1 2.021-2.957z"/>
                <path data-name="路径 23494" d="M91.847 214.627a14.877 14.877 0 0 1 1.217 3.253 15.477 15.477 0 0 1 .827 3.37 14.62 14.62 0 0 1-1.217-3.253 15.051 15.051 0 0 1-.827-3.37z"/>
                <path data-name="路径 23495" d="M90.848 225.011a9.416 9.416 0 0 1-2.77-.055 9.643 9.643 0 0 1-2.731-.437 19.169 19.169 0 0 1 5.461.523z"/>
                <path data-name="路径 23496" d="M98.478 224.083a3.636 3.636 0 1 1-2.206-1.7 3.643 3.643 0 0 1 2.206 1.7z"/>
                <path data-name="路径 23497" d="M97.051 225.924a9.22 9.22 0 0 0-1.81-.6 8.661 8.661 0 0 0-1.9.2 2.083 2.083 0 0 1 1.943-.6 2.114 2.114 0 0 1 1.767 1z"/>
                <path data-name="路径 23498" d="M95.616 223.794c.1.062-.3.78-.452 1.709s-.055 1.732-.172 1.763a2.34 2.34 0 0 1-.234-1.833 2.389 2.389 0 0 1 .858-1.639z"/>
            </g>
            <g data-name="组 12612">
                <g data-name="组 12611">
                    <g data-name="Operating system upgrade-pana">
                        <path data-name="路径 23169" d="M69.606 109.07a17.114 17.114 0 0 1-3.495 6.031 3.707 3.707 0 0 1-4.833 1.165 7.063 7.063 0 0 0-6.031-.093c-2.217.959-3.275.559-4.9-1.385a17.767 17.767 0 0 1-4.294-12.222 8.376 8.376 0 0 1 3.635-7.123A6.078 6.078 0 0 1 55.96 95a4.66 4.66 0 0 0 4.121.067 7.256 7.256 0 0 1 6.856.18 5.061 5.061 0 0 1 .546.346c1.564 1.152 1.578 1.331.213 2.663a6.617 6.617 0 0 0 .839 10.085z" transform="translate(578.504 178.457)" style="opacity:.189"/>
                        <path data-name="路径 23170" d="M69.727 83.815c.533 2.982-2.769 6.923-5.572 6.384-.646-3.461 3.345-6.756 5.572-6.384z" transform="translate(572.472 181.971)" style="opacity:.189"/>
                        <path data-name="路径 23171" d="M71.336 118.643a5.6 5.6 0 0 0 1.944-.413 5.159 5.159 0 0 0 3.169-4.393V72.033a5.046 5.046 0 0 0-.486-1.957 5.106 5.106 0 0 0-3.049-2.663 6.164 6.164 0 0 0-2.11-.226H30.2a5.059 5.059 0 0 0-5.021 4.513c-.053.805 0 1.658 0 2.483v39.075a5.419 5.419 0 0 0 .32 2 5.059 5.059 0 0 0 2.569 2.822 4.946 4.946 0 0 0 1.831.479c.632.04 1.278 0 1.91 0h10.617l21.155.047-21.155.047H29.765a5.292 5.292 0 0 1-4.613-3.448 5.652 5.652 0 0 1-.333-2.057V71.7a5.325 5.325 0 0 1 5.325-4.766h40.62a6.43 6.43 0 0 1 2.19.246 5.325 5.325 0 0 1 3.189 2.783 5.172 5.172 0 0 1 .506 2.057v20.662c0 8.933 0 16.156-.067 21.155a5.172 5.172 0 0 1-4.706 4.786z" transform="translate(585.601 187.61)" style="opacity:.189"/>
                        <path data-name="路径 23172" d="M54.5 207.862c-3.268-.353-3.328-.386-3.288-3.515s.04-6.331.047-9.5c0-.579.053-.965.792-.959 5.046.073 10.1.113 15.144.173a3.843 3.843 0 0 1 .493.073v10.891c0 2.283-.479 2.763-2.763 2.876a6.935 6.935 0 0 0-.712.087c0 1.331.04 2.663 0 3.954a1.7 1.7 0 0 1-2.044 1.791 1.544 1.544 0 0 1-1.464-1.691v-3.328c0-.666-.24-.919-.885-.879a8.322 8.322 0 0 1-1.078 0c-.572-.047-.772.213-.766.759v3.135c0 1.331-.666 2-1.764 2s-1.731-.666-1.744-2 .032-2.562.032-3.867z" transform="translate(576.78 145.161)" style="opacity:.189"/>
                        <path data-name="路径 23173" d="M64.88 179.25c-.419.766-.872 1.658-1.278 2.4 3.328 1.6 4.247 4.114 4.094 6.417H51.3a7.635 7.635 0 0 1 4.294-6.464l-1.271-2.483.233-.133 1.425 2.443a9.559 9.559 0 0 1 7.249 0l1.385-2.33z" transform="translate(576.747 150.142)" style="opacity:.189"/>
                        <path data-name="路径 23174" d="M80.775 199.2v3.774a1.772 1.772 0 1 1-3.528.087c0-2.55 0-5.106.053-7.655a1.751 1.751 0 1 1 3.495.126v3.668z" transform="translate(568.074 145.246)" style="opacity:.189"/>
                        <path data-name="路径 23175" d="M48.261 198.98c0 1.225.04 2.45 0 3.674-.067 1.558-1.331 2.463-2.523 1.8a1.811 1.811 0 0 1-.912-1.2q-.08-4.094.073-8.194c.04-1.158.666-1.644 1.611-1.618a1.684 1.684 0 0 1 1.771 1.864c.04 1.225 0 2.45 0 3.668z" transform="translate(578.92 145.309)" style="opacity:.189"/>
                        <path data-name="路径 23176" d="M71.273 214.106a5.838 5.838 0 0 0 1.944-.413 5.139 5.139 0 0 0 3.162-4.393v-41.8a4.906 4.906 0 0 0-.486-1.957 5.092 5.092 0 0 0-3.042-2.663 6.2 6.2 0 0 0-2.11-.233h-40.68a5.205 5.205 0 0 0-2.383.6 5.006 5.006 0 0 0-2.663 3.914c-.06.8 0 1.658 0 2.483v39.075a5.439 5.439 0 0 0 .313 2 5.126 5.126 0 0 0 2.572 2.821 5.212 5.212 0 0 0 1.837.479c.626.033 1.278 0 1.91 0h10.736l21.142.027-21.155.047H29.7a5.146 5.146 0 0 1-1.924-.5 5.325 5.325 0 0 1-2.7-2.942 5.7 5.7 0 0 1-.333-2.057V167.01a5.325 5.325 0 0 1 2.829-4 5.439 5.439 0 0 1 2.516-.626H70.7a6.39 6.39 0 0 1 2.183.24 5.308 5.308 0 0 1 3.7 4.839v20.662c0 8.927 0 16.156-.06 21.155a5.226 5.226 0 0 1-3.255 4.44 5.325 5.325 0 0 1-1.451.346z" transform="translate(585.624 155.698)" style="opacity:.189"/>
                        <path data-name="路径 23177" d="M75.111 290.39H62.43v-9.319l12.681-1.851z" transform="translate(573.026 116.632)" style="opacity:.189"/>
                        <path data-name="路径 23178" d="M62.38 297.91h12.694v11.01l-12.694-1.631z" transform="translate(573.042 110.383)" style="opacity:.189"/>
                        <path data-name="路径 23179" d="M55.452 282.1v9.253H45.76v-7.482c0-.18.32-.479.519-.513 3.042-.453 6.064-.845 9.173-1.258z" transform="translate(578.599 115.669)" style="opacity:.189"/>
                        <path data-name="路径 23180" d="M45.93 297.86h9.592v9.186l-9.592-1.231z" transform="translate(578.542 110.4)" style="opacity:.189"/>
                        <path data-name="路径 23181" d="M71.209 309.5a5.486 5.486 0 0 0 1.944-.406 5.166 5.166 0 0 0 3.162-4.4V262.9a5.019 5.019 0 0 0-.486-1.957 5.086 5.086 0 0 0-3.049-2.663 6.164 6.164 0 0 0-2.11-.233H30.058a5.2 5.2 0 0 0-2.383.592 5.279 5.279 0 0 0-1.811 1.638 5.145 5.145 0 0 0-.825 2.277c-.06.805 0 1.664-.033 2.483v39.075a5.458 5.458 0 0 0 .313 2 5.066 5.066 0 0 0 2.569 2.816 4.946 4.946 0 0 0 1.837.479c.626.04 1.278 0 1.9 0H42.3l21.148.047-21.148.04H29.625a5.292 5.292 0 0 1-4.613-3.448 5.638 5.638 0 0 1-.333-2.05v-40.32c0-.413 0-.832.033-1.265a5.325 5.325 0 0 1 5.325-4.766H70.65a6.6 6.6 0 0 1 2.19.246 5.325 5.325 0 0 1 3.2 2.789 5.252 5.252 0 0 1 .506 2.05v20.656c0 8.933 0 16.156-.067 21.162a5.232 5.232 0 0 1-3.3 4.586 5.38 5.38 0 0 1-1.458.346 4.837 4.837 0 0 1-.512.02z" transform="translate(585.648 123.849)" style="opacity:.189"/>
                        <path data-name="矩形 11455" transform="translate(898.954 518.122)" style="fill:#e0e0e0" d="M0 0h3.102v5.698H0z"/>
                        <path data-name="路径 23205" d="m457.191 130.758-10.111-8.188" transform="translate(444.426 169.005)" style="fill:#fff"/>
                        <g>
                            <path data-name="路径 23208" d="M320.778 471.383c0 .093-64.57.173-144.2.173s-144.211-.08-144.211-.173 64.57-.173 144.211-.173 144.2.073 144.2.173z" transform="translate(583.076 52.444)" style="fill:#263238"/>
                        </g>
                        <g>
                            <path data-name="路径 23314" d="M353.09 386.48c0 1.331 20.749 56.582 20.749 56.582h8.347L361.5 386.48z" transform="translate(475.849 80.772)" style="fill:#455a64"/>
                            <path data-name="矩形 11463" transform="translate(799.237 464.59)" style="fill:#455a64" d="M0 0h8.321v59.238H0z"/>
                            <path data-name="矩形 11464" transform="translate(827.062 485.119)" style="fill:#455a64" d="M0 0h26.487v5.898H0z"/>
                            <path data-name="矩形 11465" transform="translate(799.237 463.544)" style="fill:#455a64" d="M0 0h46.058v5.898H0z"/>
                            <path data-name="矩形 11466" transform="translate(834.404 506.693)" style="fill:#455a64" d="M0 0h27.412v5.898H0z"/>
                            <path data-name="路径 23315" d="M354.75 389.963c0 .093-10.391.173-23.205.173s-23.205-.08-23.205-.173 10.384-.173 23.205-.173 23.205.073 23.205.173z" transform="translate(490.81 79.666)" style="fill:#263238"/>
                            <path data-name="路径 23316" d="M321.123 444.249c-.093 0-.173-12.135-.173-27.1s.08-27.1.173-27.1.173 12.128.173 27.1-.073 27.1-.173 27.1z" transform="translate(486.594 79.579)" style="fill:#263238"/>
                            <path data-name="路径 23317" d="M374.163 444.112c-.093 0-4.66-12.135-10.211-27.179s-9.985-27.259-9.892-27.292 4.66 12.128 10.218 27.173 9.971 27.264 9.885 27.298z" transform="translate(475.525 79.716)" style="fill:#263238"/>
                            <path data-name="路径 23318" d="M386.9 444.112c-.087 0-4.66-12.135-10.211-27.179s-9.985-27.259-9.892-27.292 4.66 12.128 10.218 27.173 9.974 27.264 9.885 27.298z" transform="translate(471.266 79.716)" style="fill:#263238"/>
                            <path data-name="路径 23319" d="M430.526 194.3a24.206 24.206 0 0 0-3.608-7.362 31.838 31.838 0 0 1-7.649 3.428l.785 13.859c3.089.093 6.51-.073 8.714-2.237 1.958-1.908 2.384-4.988 1.758-7.688z" transform="translate(453.723 147.484)" style="fill:#ffbe9d"/>
                            <path data-name="路径 23320" d="m418.053 161.36-6.743 15.31a25.016 25.016 0 0 1 5.718 8.614 40.007 40.007 0 0 0 10.87-7.842c-3.308-4.613-7.135-13.932-9.845-16.082z" transform="translate(456.384 156.037)" style="fill:#ff725e"/>
                            <path data-name="路径 23321" d="m395.081 103.487-2.716 26.434c-.466 4.493-2.064 11-9.133 9.945-6.071-1.378-7.029-7.382-6.59-11.576.206-2 .373-3.648.379-3.854 0 0-6.657-1.331-6.464-8.035.093-3.242.839-9.905 1.578-15.923a12.5 12.5 0 0 1 12.941-10.964h.666c6.936.732 10.231 7.036 9.339 13.973z" transform="translate(470.01 180.061)" style="fill:#ffbe9d"/>
                            <path data-name="路径 23322" d="M380.217 140.767a15.583 15.583 0 0 0 8.847-2.117s-2.27 4.74-8.933 3.854z" transform="translate(466.809 163.629)" style="fill:#eb996e"/>
                            <path data-name="路径 23323" d="M374.215 110.9c.113.14 1.065 0 2.25.339a18.93 18.93 0 0 1 2.1 1c.153-.06 0-.253-.333-.566a4.326 4.326 0 0 0-1.651-.919 3.794 3.794 0 0 0-1.824-.146c-.422.076-.595.243-.542.292z" transform="translate(468.789 173.023)" style="fill:#263238"/>
                            <path data-name="路径 23324" d="M389.667 112.783a20.992 20.992 0 0 1 2.157-.666c1.218-.173 2.2.08 2.317-.047s-.126-.213-.552-.346a4.353 4.353 0 0 0-1.877-.087 3.868 3.868 0 0 0-1.691.666c-.341.22-.434.447-.354.48z" transform="translate(463.629 172.682)" style="fill:#263238"/>
                            <path data-name="路径 23325" d="M389.74 116.367a.746.746 0 0 0 .666.772.7.7 0 0 0 .785-.632.739.739 0 0 0-.666-.779.712.712 0 0 0-.786.639z" transform="translate(463.596 171.294)" style="fill:#263238"/>
                            <path data-name="路径 23326" d="M375 115.17a.732.732 0 0 0 .666.772.706.706 0 0 0 .792-.666.739.739 0 0 0-.666-.779.706.706 0 0 0-.792.672z" transform="translate(468.524 171.706)" style="fill:#263238"/>
                            <path data-name="路径 23327" d="M382.717 118.877a7.116 7.116 0 0 0-1.658-.366c-.266-.04-.513-.107-.546-.286a1.291 1.291 0 0 1 .206-.772l.859-2a40.788 40.788 0 0 0 2-5.166 38.319 38.319 0 0 0-2.376 4.993 59.974 59.974 0 0 0-.832 2 1.525 1.525 0 0 0-.18 1.032.666.666 0 0 0 .413.4 1.811 1.811 0 0 0 .446.08 6.657 6.657 0 0 0 1.668.085z" transform="translate(466.797 173.111)" style="fill:#263238"/>
                            <path data-name="路径 23328" d="M390.995 105.519c.08.26.992.173 2.05.353s1.91.513 2.064.293c.067-.107-.073-.353-.406-.619a3.449 3.449 0 0 0-1.518-.619 3.248 3.248 0 0 0-1.618.133c-.426.146-.632.332-.572.459z" transform="translate(463.179 174.92)" style="fill:#263238"/>
                            <path data-name="路径 23329" d="M374.717 106.787c.093.213.985.087 2.044.18s1.917.32 2.05.126c.06-.093-.093-.3-.439-.5a3.941 3.941 0 0 0-3.122-.233c-.386.147-.573.353-.533.427z" transform="translate(468.62 174.497)" style="fill:#263238"/>
                            <path data-name="路径 23330" d="M405.993 117.855c.12-.04 4.66-1.165 4.327 3.415s-4.866 3.288-4.859 3.162.532-6.577.532-6.577z" transform="translate(458.34 170.632)" style="fill:#ffbe9d"/>
                            <path data-name="路径 23331" d="M407.747 123.563a1.488 1.488 0 0 0 .206.133.8.8 0 0 0 .592.053 2 2 0 0 0 1.045-1.7 2.543 2.543 0 0 0-.14-1.158.905.905 0 0 0-.552-.666.393.393 0 0 0-.486.18c-.073.126-.047.22-.073.226s-.093-.087-.04-.273a.492.492 0 0 1 .2-.273.619.619 0 0 1 .446-.087 1.138 1.138 0 0 1 .785.772 2.77 2.77 0 0 1 .18 1.3 2.061 2.061 0 0 1-1.331 1.891.852.852 0 0 1-.719-.173c-.113-.119-.133-.219-.113-.225z" transform="translate(457.578 169.87)" style="fill:#eb996e"/>
                            <path data-name="路径 23332" d="M385.059 126.785c-.04-.12.885-.286 1.611-1.052a5.083 5.083 0 0 0 .766-1.118c.173-.313.3-.506.346-.486s0 .24-.106.592a3.455 3.455 0 0 1-.739 1.265 2.809 2.809 0 0 1-1.271.759c-.36.1-.6.08-.607.04z" transform="translate(465.161 168.484)" style="fill:#263238"/>
                            <path data-name="路径 23333" d="M364.674 93.6a1.245 1.245 0 0 0-.852.905 1.451 1.451 0 0 0 .859 1.551 1.851 1.851 0 0 0 1.819-.256 2.71 2.71 0 0 0-.666.506 1.178 1.178 0 0 0 1.531 1.757 11.4 11.4 0 0 1 .4 1.125v.073a4.62 4.62 0 0 0 .266.666l1.232 3.182c.313-1.864.459-4.527.772-6.384a10.5 10.5 0 0 0 7.835-2.576c1.152-1.012 2.117-2.336 3.561-2.856 1.864-.666 3.888.206 5.671 1.065l-.067-.08a8.368 8.368 0 0 1 2.356 2.157 26.135 26.135 0 0 0-.146 11.1 3.668 3.668 0 0 0 .965 2c.979.513 1.371-.5 2.05-.985a2.749 2.749 0 0 1 1.917-.24 42.536 42.536 0 0 0 1.8-4.586l.819-1.538V98.35c-.766-1.717 1.331-2.317 1.032-4.167s-1.1-3.828-2.783-4.66h-.047a4.807 4.807 0 0 0-4.873-.1 6.268 6.268 0 0 0-4.147-5.4 15.53 15.53 0 0 0-8.314-.3 17.017 17.017 0 0 0-5.864 3.557c-.952.779-2.17 3.635-2.976 4.553z" transform="translate(472.266 182.135)" style="fill:#263238"/>
                            <path data-name="路径 23334" d="M387.577 80.746c.32.093 7.988 3.062 9.093 9.259s.26 7.928.26 7.928a3.8 3.8 0 0 1 .719.832c.273.439-.479 2.23-1.484 1.864-7.236-4.573-16.355-6.277-26.627-7.469l-7.8-1.258c-2.23-.067-2.909-.766-1.9-1.178.766-.313 7.322-1.891 7.322-1.891l1.331-.706 3.894-3.994s-.306-.666.559-1.085 8.296-4.14 14.633-2.302z" transform="translate(473.746 183.158)" style="fill:#ff725e"/>
                            <path data-name="路径 23335" d="m373.15 92.12.306.047.879.107c.759.08 1.857.253 3.209.486a61.241 61.241 0 0 1 10.3 2.849 93.647 93.647 0 0 1 9.779 4.327c1.225.612 2.21 1.132 2.889 1.478.313.166.566.3.785.406l.273.133-.266-.153-.772-.426a108.3 108.3 0 0 0-2.862-1.524 87.351 87.351 0 0 0-9.785-4.367 57.754 57.754 0 0 0-10.325-2.816c-2.713-.454-4.41-.547-4.41-.547z" transform="translate(469.142 179.186)" style="fill:#263238"/>
                            <g data-name="组 12608" style="opacity:.3">
                                <path data-name="路径 23336" d="M868.047 268.477s-8.341-2.663-12.435-1.371l.479-.16-3.854 1.058a2.29 2.29 0 0 1-1.95-.06 17.308 17.308 0 0 1 5.944-2.13c3.748-.679 9.506-.359 11.816 2.663z"/>
                            </g>
                            <path data-name="路径 23337" d="M400.964 86.41a5.923 5.923 0 0 0-.666-.619 10.937 10.937 0 0 0-2.15-1.331 12.954 12.954 0 0 0-3.581-1.065 10.7 10.7 0 0 0-4.56.213 19.2 19.2 0 0 0-2.25.805c-.706.3-1.391.559-2.03.872a12.18 12.18 0 0 1-1.817.805 3.715 3.715 0 0 1-1.7.087c-2.1-.28-3.328-.905-3.215-1.025a.359.359 0 0 0 .146.193 2.976 2.976 0 0 0 .612.313 11.477 11.477 0 0 0 2.443.612 3.815 3.815 0 0 0 1.744-.073 11.79 11.79 0 0 0 1.837-.805c.626-.3 1.331-.559 2-.859a19.079 19.079 0 0 1 2.25-.785 10.77 10.77 0 0 1 4.507-.22 13.074 13.074 0 0 1 3.561 1.032 10.764 10.764 0 0 1 2.157 1.278c.24.173.419.32.539.426z" transform="translate(467.19 182.154)" style="fill:#263238"/>
                            <g data-name="组 12609" style="opacity:.3">
                                <path data-name="路径 23338" d="M870.816 275.759a19.445 19.445 0 0 1-4.107-1.331c-1.564-.592-3.129-1.112-4.66-1.777-1.172-.506-2.563-1.012-3.229-2a1.8 1.8 0 0 0 .3 1.737 8.494 8.494 0 0 0 2.376 1.5 45.265 45.265 0 0 0 9.413 3.328 10.215 10.215 0 0 0-.14-1.425"/>
                            </g>
                            <path data-name="路径 23339" d="M409.381 92.555c.912.559 1.464.932 1.371 1.764-.08.666-.346 1.511-1.038 1.531a1.678 1.678 0 0 1-.619-.14l-10.258-3.688a1.591 1.591 0 0 1-.905-.592 1.092 1.092 0 0 1 .579-1.4 2.962 2.962 0 0 1 1.671-.12 35.281 35.281 0 0 1 9.2 2.663" transform="translate(460.883 179.949)" style="fill:#ff725e"/>
                            <path data-name="路径 23340" d="M398.042 91.41a1.138 1.138 0 0 1-.22-.506 1.331 1.331 0 0 1 .632-1.271 3.328 3.328 0 0 1 2.2-.153c.845.166 1.771.359 2.729.6a28.51 28.51 0 0 1 4.806 1.611c.592.26 1.058.5 1.378.666l.373.2c.087.04.126.067.133.06l-.12-.087-.359-.22a21.95 21.95 0 0 0-1.331-.712 25.775 25.775 0 0 0-4.813-1.651 48.507 48.507 0 0 0-2.736-.592 3.368 3.368 0 0 0-2.27.193 1.385 1.385 0 0 0-.666 1.331.912.912 0 0 0 .16.393z" transform="translate(460.911 180.149)" style="fill:#263238"/>
                            <path data-name="路径 23341" d="m376.478 88 6.67.839-.839 1.791-7.209-1.219z" transform="translate(468.49 180.563)" style="fill:#fff"/>
                            <path data-name="路径 23342" d="M384.471 97.224s-2.889-.892-6.484-1.917-6.51-1.837-6.517-1.8 2.889.892 6.484 1.924 6.517 1.833 6.517 1.793z" transform="translate(469.704 178.722)" style="fill:#263238"/>
                            <path data-name="路径 23343" d="m388.829 199.079 3.4-8.84 8.654-3.841 6.69 5.206 1.9-1.9a20.363 20.363 0 0 0-34.122-9.905l-89.666-34.282a20.37 20.37 0 0 0-31.952-15.53l-1.9 1.9 10.491 1.411 3.841 8.654-3.4 8.833-8.654 3.848-9.126-2.776-1.365 1.371c1.917 5.425 8.654 10.265 14.425 12.495a20.356 20.356 0 0 0 21.574-4.467l89.679 34.3a20.376 20.376 0 0 0 13.034 17.773c6.55 2.516 14.412 1.8 19.77-1.917l-9.413-3.674z" transform="translate(512.448 167.743)" style="fill:#e0e0e0"/>
                            <g data-name="组 12610" style="opacity:.3">
                                <path data-name="路径 23344" d="m901.277 366.823 3.4-8.84 8.654-3.841 6.69 5.206 1.9-1.9a20.363 20.363 0 0 0-34.122-9.905l-89.666-34.282a20.37 20.37 0 0 0-31.952-15.53l-1.9 1.9 10.491 1.411 3.841 8.654-3.4 8.833-8.654 3.848-9.126-2.776-1.365 1.371c1.877 5.525 8.554 10.238 14.425 12.495A20.356 20.356 0 0 0 792.067 329l89.679 34.3a20.376 20.376 0 0 0 13.034 17.773c6.55 2.516 14.412 1.8 19.77-1.917l-9.413-3.674z"/>
                            </g>
                            <path data-name="路径 23345" d="m386.945 201.935 3.388-8.84 8.654-3.841 8.587 3.328a20.37 20.37 0 0 0-34.122-9.912l-89.626-34.3a20.376 20.376 0 0 0-31.952-15.53l8.587 3.328 3.848 8.654-3.4 8.84-8.654 3.841-8.594-3.328a20.37 20.37 0 0 0 34.1 9.932l89.694 34.293a20.369 20.369 0 0 0 31.952 15.5l-8.587-3.328z" transform="translate(512.435 166.784)" style="fill:#e0e0e0"/>
                            <path data-name="路径 23346" d="M300.044 163.94a1.791 1.791 0 0 1 0 .546 11.585 11.585 0 0 1-.126 1.491 16.389 16.389 0 0 1-1.451 4.706 16.151 16.151 0 0 1-2.776 4.061 10.771 10.771 0 0 1-1.085 1.032c-.273.22-.426.339-.446.32s.539-.566 1.331-1.511a18.692 18.692 0 0 0 4.167-8.654 17.345 17.345 0 0 0 .386-1.991z" transform="translate(495.551 155.174)" style="fill:#263238"/>
                            <path data-name="路径 23347" d="m386.795 201.833.253.553c.173.373.419.919.746 1.644l2.889 6.437 8.594 3.288.12.047-.107.073a20.855 20.855 0 0 1-7.875 3.328 20.463 20.463 0 0 1-19.557-7.023 20.789 20.789 0 0 1-4.713-11.862l.08.107-89.712-34.262.173-.033a20.809 20.809 0 0 1-9.06 5.159 20.15 20.15 0 0 1-10.651 0 20.529 20.529 0 0 1-9.366-5.478 20.8 20.8 0 0 1-5.325-9.692l-.073-.313.306.113 8.587 3.328h-.133l8.654-3.841-.093.093 3.4-8.833v.12l-3.834-8.654.093.087-8.591-3.329-.306-.12.266-.186a20.5 20.5 0 0 1 21.042-1.431 20.176 20.176 0 0 1 7.941 7.136 20.889 20.889 0 0 1 3.268 9.985l-.113-.14 89.652 34.315h-.126a20.729 20.729 0 0 1 11.163-5.612 20.483 20.483 0 0 1 19.3 7.575 20.834 20.834 0 0 1 3.841 7.988v.146l-.14-.053-8.587-3.328h.053l-8.654 3.828a931.345 931.345 0 0 1-2.6 6.657c-.28.726-.493 1.258-.632 1.618s-.213.526-.213.526.053-.173.186-.526l.612-1.618c.552-1.458 1.4-3.674 2.556-6.71l8.654-3.861 8.714 3.3-.107.093a20.682 20.682 0 0 0-3.828-7.941 20.3 20.3 0 0 0-19.1-7.462 20.562 20.562 0 0 0-11.024 5.565l-.06.06-.073-.033-89.695-34.241-.107-.033v-.113a20.19 20.19 0 0 0-31.693-15.39l-.04-.306 8.594 3.328h.067v.06q1.91 4.307 3.841 8.654v.126c-1.165 3.029-2.323 6.044-3.4 8.84v.067l-.067.033-8.654 3.841H252l-8.59-3.327.233-.2a20.13 20.13 0 0 0 14.425 14.918 19.75 19.75 0 0 0 10.471 0 20.476 20.476 0 0 0 8.92-5.072l.073-.073.1.04L367.3 198.2h.073v.073a20.636 20.636 0 0 0 4.66 11.742 20.316 20.316 0 0 0 19.344 6.97 20.8 20.8 0 0 0 7.822-3.268v.12l-8.587-3.328c-1.251-2.842-2.2-5.012-2.849-6.47l-.712-1.651a3.667 3.667 0 0 1-.256-.555z" transform="translate(512.585 166.886)" style="fill:#263238"/>
                            <path data-name="路径 23348" d="m365.138 152.208-6.377 50.924a4.946 4.946 0 0 0 3.694 5.405l32.877 5.691a3.222 3.222 0 0 0 3.774-3.135c.08-7.009.366-22.18 1.365-31.633 1.1-10.424 3.888-18.932 0-23.9s-10.651-8.434-10.651-8.434l-.738-3.126s-14.192 0-16.642 2.143l-1.5 2.6z" transform="translate(473.966 161.841)" style="fill:#ff725e"/>
                            <path data-name="路径 23349" d="M422.12 173.94a.88.88 0 0 1 0 .326 7.194 7.194 0 0 1-.047.939c-.06.865-.146 2-.246 3.442-.22 2.9-.546 6.91-.932 11.316s-.759 8.434-1.038 11.316c-.146 1.4-.266 2.563-.359 3.428l-.113.932a1.032 1.032 0 0 1-.06.32 1.117 1.117 0 0 1 0-.326 7.134 7.134 0 0 1 .047-.939c.06-.865.146-2 .246-3.442.22-2.9.553-6.916.939-11.316s.752-8.427 1.038-11.316c.146-1.411.26-2.569.353-3.435.047-.366.08-.666.113-.932a1.367 1.367 0 0 1 .06-.313z" transform="translate(453.709 151.831)" style="fill:#263238"/>
                            <path data-name="路径 23350" d="M395.962 148.652a3.069 3.069 0 0 1-.739.073l-2 .1c-1.711.087-4.067.233-6.657.473s-4.939.513-6.657.706l-2 .226a2.662 2.662 0 0 1-.746.04 3.554 3.554 0 0 1 .726-.173c.473-.087 1.152-.2 2-.333 1.7-.26 4.041-.572 6.657-.812s4.966-.353 6.657-.373h2a2.8 2.8 0 0 1 .759.073z" transform="translate(467.798 160.311)" style="fill:#263238"/>
                            <path data-name="路径 23351" d="m322.49 348.743 5.592 12.461s-14.711 5.751-14.831 8.494l28.624-.519-.033-2.39-6.317-20.549z" transform="translate(489.169 94.226)" style="fill:#ff725e"/>
                            <path data-name="路径 23352" d="M347.438 365.306a1.172 1.172 0 0 1 .832 1.331 1.118 1.118 0 0 1-1.3.832 1.225 1.225 0 0 1-.872-1.4 1.158 1.158 0 0 1 1.445-.719" transform="translate(478.192 87.854)" style="fill:#e0e0e0"/>
                            <path data-name="路径 23353" d="m341.867 379.46-.033-2.39-27.486 1.43s-1.265.579-1.105 1.478z" transform="translate(489.175 83.918)" style="fill:#263238"/>
                            <path data-name="路径 23354" d="M334.82 368.4c0 .14.712.186 1.4.626s1.072 1.018 1.2.959-.093-.859-.945-1.371-1.682-.337-1.655-.214z" transform="translate(481.957 86.86)" style="fill:#263238"/>
                            <path data-name="路径 23355" d="M330.349 370.39c-.033.133.579.359 1.065.945s.632 1.2.772 1.192.213-.8-.406-1.511-1.431-.759-1.431-.626z" transform="translate(483.452 86.171)" style="fill:#263238"/>
                            <path data-name="路径 23356" d="M327.3 374.658c.133 0 .313-.666-.06-1.431s-1.032-1.052-1.092-.939.359.519.666 1.152.352 1.205.486 1.218z" transform="translate(484.859 85.525)" style="fill:#263238"/>
                            <path data-name="路径 23357" d="M333.257 363.314c.06.126.7-.08 1.491-.04s1.411.28 1.478.16-.533-.612-1.464-.666-1.578.439-1.505.546z" transform="translate(482.481 88.701)" style="fill:#263238"/>
                            <path data-name="路径 23358" d="m395.051 410.47.639 23.758-12.495-.033-.666-23.179z" transform="translate(466.006 72.752)" style="fill:#ff725e"/>
                            <path data-name="路径 23359" d="M392.795 432.983c-.1 0-.26-5.066-.346-11.316s-.08-11.316 0-11.316.26 5.059.346 11.316.093 11.316 0 11.316z" transform="translate(462.711 72.792)" style="fill:#263238"/>
                            <path data-name="路径 23360" d="M383.21 433.057a1.777 1.777 0 0 1 .306-.513 8.655 8.655 0 0 1 1.092-1.218 8.287 8.287 0 0 1 2-1.4 6.657 6.657 0 0 1 7.808 1.265 5.719 5.719 0 0 1 .945 1.331 1.738 1.738 0 0 1 .213.559 12.977 12.977 0 0 0-1.331-1.711 6.656 6.656 0 0 0-4.726-1.811 7.655 7.655 0 0 0-4.706 1.957 16.733 16.733 0 0 0-1.601 1.541z" transform="translate(465.779 66.493)" style="fill:#263238"/>
                            <path data-name="路径 23361" d="M395.938 444.752 383.5 444.7l-.093-2.809 12.541.06z" transform="translate(465.712 62.247)" style="fill:#263238"/>
                            <path data-name="路径 23362" d="m371.593 245.27-27.326-4.72-.12 2.962c-6.6 5.285-24.177 20.4-34.795 30.747 0 0-3.934 5.219-2.376 10.032l14.738 37.77 16.9-3.9-10.314-31.953 31.719-14.818c6.171-2.277 11.722-10.065 13.034-14.525 1.13-3.827-1.293-6.696-1.46-11.595z" transform="translate(491.388 129.561)" style="fill:#263238"/>
                            <path data-name="路径 23363" d="m371.55 286.963 6.5 87.243 16.149.406s2.776-25.761 2.43-42.217-.366-56.795-.366-56.795z" transform="translate(469.677 117.843)" style="fill:#263238"/>
                            <path data-name="路径 23364" d="m393.608 247.64 8.534 1.571s.313 20.929-.293 23.032-5.691 8.121-5.691 8.121l-23.7 4.527v-18.752z" transform="translate(469.373 127.191)" style="fill:#263238"/>
                            <path data-name="路径 23365" d="m408.06 264.33.612 5.891h6.484l-1.105-5.891z" transform="translate(457.471 121.611)" style="fill:#263238"/>
                            <path data-name="路径 23366" d="M380.3 273.18a2.862 2.862 0 0 1-.206.446 12.642 12.642 0 0 1-.666 1.238 17.447 17.447 0 0 1-3.328 3.994 29.875 29.875 0 0 1-6.384 4.294c-2.569 1.331-5.5 2.583-8.521 3.994l-15.523 7.116-4.726 2.117-1.291.559a2.063 2.063 0 0 1-.459.173 3.872 3.872 0 0 1 .433-.233l1.265-.619 4.66-2.223 15.483-7.216c3.022-1.411 5.951-2.663 8.514-3.961a30.548 30.548 0 0 0 6.364-4.187 18.286 18.286 0 0 0 3.362-3.881c.679-1.019.978-1.631 1.023-1.611z" transform="translate(480.496 118.652)" style="fill:#455a64"/>
                            <path data-name="路径 23367" d="M404.058 295a105.155 105.155 0 0 1-10.3 6.43 55.165 55.165 0 0 1 5.059-3.362 53.817 53.817 0 0 1 5.241-3.068z" transform="translate(462.252 111.357)" style="fill:#455a64"/>
                            <path data-name="路径 23368" d="M414.052 264.33a9.937 9.937 0 0 1 .413 1.638c.22 1.032.519 2.5.852 4.227l.04.186h-6.83v-.14c-.166-1.731-.3-3.2-.379-4.247a8.962 8.962 0 0 1-.073-1.664 10.513 10.513 0 0 1 .266 1.644c.14 1.038.313 2.51.506 4.227l-.16-.14h6.484l-.16.193a214.407 214.407 0 0 1-.732-4.254 11.057 11.057 0 0 1-.227-1.67z" transform="translate(457.469 121.611)" style="fill:#455a64"/>
                            <path data-name="路径 23369" d="m369.784 258.317.286.033.852.146 3.235.579 11.23 2.117h.153v.16c-.273 1.851-.572 3.834-.879 5.891v.186l-.186-.04-.18-.04a2092.162 2092.162 0 0 1-16.136-3.754l-.12-.033.04-.113c.533-1.6.965-2.9 1.278-3.828.14-.413.253-.746.346-1.005a2.234 2.234 0 0 1 .126-.326 2.364 2.364 0 0 1-.093.379c-.08.273-.18.612-.3 1.038l-1.145 3.808-.08-.146c3.868.852 9.679 2.157 16.162 3.641l.18.04-.213.146c.313-2.057.612-4.047.892-5.891l.133.186-11.1-2.243-3.248-.666-.879-.193a1.451 1.451 0 0 1-.359-.073z" transform="translate(470.851 123.63)" style="fill:#455a64"/>
                            <path data-name="路径 23370" d="M322.68 306.764a7.189 7.189 0 0 1 1.791-.346 19.644 19.644 0 0 1 4.407 0 18.338 18.338 0 0 1 4.294 1.005 6.363 6.363 0 0 1 1.644.785 17.01 17.01 0 0 1-1.724-.552 22.987 22.987 0 0 0-4.254-.892 25.205 25.205 0 0 0-4.34-.093 14.812 14.812 0 0 1-1.818.093z" transform="translate(486.016 107.581)" style="fill:#455a64"/>
                            <path data-name="路径 23371" d="M369.894 244.347c-.093 0-.1-.473 0-1.025s.24-.985.333-.972.1.479 0 1.025-.24.992-.333.972z" transform="translate(470.255 128.959)" style="fill:#455a64"/>
                            <path data-name="路径 23372" d="M371.9 244.83c-.093 0-.08-.553.033-1.2s.286-1.152.379-1.132.08.553-.033 1.2-.287 1.132-.379 1.132z" transform="translate(469.581 128.909)" style="fill:#455a64"/>
                            <path data-name="路径 23373" d="M388.494 247.64c-.093 0-.1-.513 0-1.112s.24-1.072.333-1.058.1.513 0 1.112-.24 1.071-.333 1.058z" transform="translate(464.036 127.916)" style="fill:#455a64"/>
                            <path data-name="路径 23374" d="M390.384 248.3c-.093 0-.1-.6 0-1.331s.24-1.278.339-1.265.093.6 0 1.331-.246 1.274-.339 1.265z" transform="translate(463.405 127.839)" style="fill:#455a64"/>
                            <path data-name="路径 23375" d="M406.387 251.106c-.093 0-.113-.579-.047-1.271s.206-1.238.3-1.225.12.572.047 1.265-.2 1.238-.3 1.231z" transform="translate(458.059 126.866)" style="fill:#455a64"/>
                            <path data-name="路径 23376" d="M408.8 251.579c-.1 0-.14-.666-.093-1.425s.16-1.411.26-1.4a5.99 5.99 0 0 1-.167 2.825z" transform="translate(457.26 126.82)" style="fill:#455a64"/>
                            <path data-name="路径 23377" d="m350.35 183.7 20.276 5.858s3.1-11.443 4.58-18.186c1.631-7.382.326-11.223-4.593-14.645a8.354 8.354 0 0 0-3.741-1.445 8.887 8.887 0 0 0-9.18 5.325 78 78 0 0 0-3.282 9.319c-1.937 6.583-4.06 13.774-4.06 13.774z" transform="translate(476.765 158.089)" style="fill:#ff725e"/>
                            <path data-name="路径 23378" d="M375.1 174.107a1.329 1.329 0 0 1-.047.346l-.206 1.005c-.186.872-.466 2.143-.845 3.754-.759 3.215-1.9 7.768-3.328 13.12l-.04.16-.153-.047-12.768-3.674-7.513-2.171-.166-.047.053-.16c2-6.657 3.681-12.495 5.006-16.6a67.103 67.103 0 0 1 1.737-4.76c.226-.546.413-.959.539-1.245a1.923 1.923 0 0 1 .22-.413 3.725 3.725 0 0 1-.16.439l-.493 1.265a94.488 94.488 0 0 0-1.638 4.78c-1.265 4.114-2.909 9.952-4.893 16.642l-.113-.206 7.515 2.13 12.761 3.7-.193.113c1.451-5.325 2.663-9.885 3.441-13.087.4-1.578.712-2.836.939-3.734.1-.413.186-.739.246-.992a2.536 2.536 0 0 1 .1-.313z" transform="translate(476.872 155.365)" style="fill:#263238"/>
                            <path data-name="路径 23379" d="M379.946 160.375c-.053.033-.453-.572-1.285-1.378a10.79 10.79 0 0 0-3.774-2.4 10.99 10.99 0 0 0-4.427-.666c-1.152.073-1.857.273-1.871.22s.166-.1.479-.193a8.317 8.317 0 0 1 1.371-.266 9.919 9.919 0 0 1 8.407 3.135 8.235 8.235 0 0 1 .865 1.1 1.7 1.7 0 0 1 .235.448z" transform="translate(470.667 157.954)" style="fill:#263238"/>
                            <path data-name="路径 23380" d="m341.036 196.493-1.025 3.4-19.4-8.394-4.194 6.444s15.231 11.316 20 14.918a9.273 9.273 0 0 0 13.506-1.871c3.3-4.334 4.573-10.551 4.573-10.551z" transform="translate(488.109 145.96)" style="fill:#ffbe9d"/>
                            <path data-name="路径 23381" d="M353.95 208.377c-.1 0-.333-1.018-.912-2.177s-1.251-2-1.172-2.05a5.878 5.878 0 0 1 2.084 4.227z" transform="translate(476.26 141.731)" style="fill:#eb996e"/>
                            <path data-name="路径 23382" d="m317.814 187.335-2.563-1.771c-1.331-4.054-3.894-11.4-4.66-11.177s-1.165.965-.932 2.53c.566 3.734-.359 5.385-2.543 4.893-.752-.173-7.289-1.218-7.289-1.218s-1.8 1.032 0 2.8a2.05 2.05 0 0 0 1.524 2.856s.3 2.609 2.1 2.716a47.436 47.436 0 0 0 5.991 2.583l3.255 1.95z" transform="translate(493.924 151.683)" style="fill:#ffbe9d"/>
                            <path data-name="路径 23383" d="M305.2 189.34a8.431 8.431 0 0 1-2.782-.666c-.533-.173-1.032-.339-1.445-.439l.053-.286.246.053-.053.26a2.888 2.888 0 0 1-1.005-.393 3.329 3.329 0 0 1 1.072.133l-.053.266h-.253l.053-.286a10.353 10.353 0 0 1 1.5.4 21.664 21.664 0 0 1 2.667.958z" transform="translate(493.528 147.175)" style="fill:#eb996e"/>
                            <path data-name="路径 23384" d="M306.464 193.724a5.152 5.152 0 0 1-2.057-.539 5.266 5.266 0 0 1-1.877-1.005 9.085 9.085 0 0 1 2 .666 9.379 9.379 0 0 1 1.934.878z" transform="translate(492.753 145.733)" style="fill:#eb996e"/>
                        </g>
                    </g>
                    <path data-name="路径 23385" d="M196.709 165.364a17.022 17.022 0 0 1 4.16-1.8l.859-4.12 6.956-.12 1 4.087a16.814 16.814 0 0 1 4.22 1.658l3.521-2.3 5 4.833-2.177 3.595a16.929 16.929 0 0 1 1.811 4.16l4.114.852.12 6.956-4.074 1.005a16.934 16.934 0 0 1-1.664 4.22l2.31 3.515-4.835 4.995-3.595-2.183a17.04 17.04 0 0 1-4.16 1.811l-.859 4.12-6.956.12-1-4.087a17.074 17.074 0 0 1-4.22-1.658l-3.515 2.3-5.006-4.833 2.181-3.59a17.188 17.188 0 0 1-1.811-4.16l-4.147-.859-.12-6.95 4.081-1.005a16.935 16.935 0 0 1 1.664-4.22l-2.3-3.515 4.833-5.006 3.595 2.177zm3.708 9.266a7.469 7.469 0 1 0 10.558-.18 7.469 7.469 0 0 0-10.558.18z" transform="translate(532.107 156.718)" style="fill:#ff725e"/>
                </g>
                <path data-name="路径 23386" d="M248.228 138.848a7.323 7.323 0 0 1 2-.073l1.025-1.564 2.9 1.092-.253 1.851a7.616 7.616 0 0 1 1.531 1.378l1.831-.379 1.278 2.822-1.484 1.125a7.662 7.662 0 0 1 .067 2l1.564 1.025-1.118 2.929-1.857-.26a7.416 7.416 0 0 1-1.378 1.478l.379 1.831-2.816 1.285-1.132-1.491a7.616 7.616 0 0 1-2 .067l-1.032 1.564-2.9-1.085.253-1.851a7.828 7.828 0 0 1-1.478-1.378l-1.831.379-1.285-2.822 1.491-1.132a7.6 7.6 0 0 1-.067-2l-1.564-1.025 1.085-2.9 1.857.253a7.549 7.549 0 0 1 1.371-1.471l-.373-1.837 2.816-1.278 1.132 1.491zm0 4.44a6.663 6.663 0 1 0 .02 0z" transform="translate(513.538 164.11)" style="fill:#ff725e"/>
                <path data-name="路径 23387" d="M173.078 150.542a6.451 6.451 0 0 1 1.4-1.052l-.047-1.624 2.6-.666.739 1.445a6.491 6.491 0 0 1 1.737.253l1.118-1.185 2.31 1.371-.5 1.544a6.91 6.91 0 0 1 1.052 1.4l1.624-.047.666 2.609-1.445.739a6.657 6.657 0 0 1-.246 1.731l1.178 1.118-1.371 2.31-1.544-.5a6.45 6.45 0 0 1-1.4 1.052l.051 1.63-2.6.666-.739-1.445a6.49 6.49 0 0 1-1.737-.253l-1.118 1.185-2.31-1.371.5-1.544a6.909 6.909 0 0 1-1.052-1.4l-1.624.047-.666-2.609 1.451-.739a6.656 6.656 0 0 1 .246-1.731l-1.178-1.118 1.371-2.31 1.544.5zm2.217 3.149a1.377 1.377 0 1 1 0 .033z" transform="translate(537.179 160.77)" style="fill:#ff725e"/>
            </g>
            <path data-name="路径 22845" d="M367.136 465.367c0 .069-75.116.128-167.731.128s-167.775-.059-167.775-.128 75.1-.128 167.775-.128 167.731.055 167.731.128z" transform="translate(584.157 58.505)" style="fill:#263238"/>
            <path data-name="路径 23153" d="m116 422.16-.039-2.354 4.978-7.415 5.694 7.4v2.369z" transform="translate(541.186 85.435)" style="fill:#ff725e"/>
            <g data-name="组 12596" style="opacity:.3">
                <path data-name="路径 23154" d="m657.186 507.595-.039-2.354 4.978-7.415 5.694 7.4v2.369z"/>
            </g>
            <path data-name="路径 23155" d="M75.89 414.081c.118-.064 25.106 0 25.106 0v2.089H77.607z" transform="translate(561.604 84.588)" style="fill:#ff725e"/>
            <g data-name="组 12597" style="opacity:.3">
                <path data-name="路径 23156" d="M637.494 498.669c.118-.064 25.106 0 25.106 0v2.089h-23.389z"/>
            </g>
            <path data-name="路径 23157" d="M66.917 412.39 60.88 420v18.54h11.668v-18.95z" transform="translate(569.252 85.435)" style="fill:#ff725e"/>
            <path data-name="路径 23158" d="M106.923 438.54v-19.024l-5.223-7.126h-2.571l5.709 7.4v2.369H80.885v-2.992l-5.9-6.778H73.19l5.63 7.2v18.951z" transform="translate(562.979 85.435)" style="fill:#ff725e"/>
            <path data-name="路径 23159" d="M112.466 435.3c0 .069-6.307.128-14.081.128S84.3 435.366 84.3 435.3s6.3-.128 14.085-.128 14.081.057 14.081.128z" transform="translate(557.318 73.827)" style="fill:#263238"/>
            <path data-name="路径 23160" d="M112.286 463.428c0 .074-6.307.128-14.085.128s-14.081-.054-14.081-.128 6.3-.128 14.081-.128 14.085.059 14.085.128z" transform="translate(557.41 59.493)" style="fill:#263238"/>
            <g data-name="组 12598" style="opacity:.1">
                <path data-name="路径 23161" d="M66.917 412.39 60.88 420v18.54h11.668v-18.95z" transform="translate(569.252 85.435)" style="fill:#fff"/>
            </g>
            <g>
                <path data-name="路径 23162" d="M589.58 460.486v-.981a4.085 4.085 0 0 1 4.085-4.085h34.424a4.085 4.085 0 0 1 4.085 4.085v.981z" transform="translate(299.849 63.509)" style="fill:#ff725e"/>
                <path data-name="路径 23163" d="M617.342 375.737 604.89 414.35h26.6l-11.56-38.583a1.354 1.354 0 0 0-2.585-.029z" transform="translate(292.048 104.589)" style="fill:#ff725e"/>
                <g data-name="组 12599" style="opacity:.5">
                    <path data-name="路径 23164" d="M616.976 402.36h10.4l4.5 15.012H612.13z" transform="translate(288.358 90.546)" style="fill:#fff"/>
                </g>
                <g data-name="组 12600" style="opacity:.3">
                    <path data-name="路径 23165" d="M896.933 518.937h26.6l-.961-3.212-25.119 1.612z"/>
                </g>
                <g data-name="组 12601" style="opacity:.2">
                    <path data-name="路径 23166" d="M597.178 458.054c0 .039-.329-.029-.849 0a4.149 4.149 0 0 0-3.4 1.839c-.294.432-.417.736-.451.721a1.687 1.687 0 0 1 .294-.814 3.84 3.84 0 0 1 3.561-1.927 1.673 1.673 0 0 1 .845.181z" transform="translate(298.371 62.263)" style="fill:#fff"/>
                </g>
                <g data-name="组 12602" style="opacity:.2">
                    <path data-name="路径 23167" d="M611.791 435.11a25.5 25.5 0 0 1-1.133 3.433 26.522 26.522 0 0 1-1.368 3.35 24.84 24.84 0 0 1 1.128-3.433 26 26 0 0 1 1.373-3.35z" transform="translate(289.806 73.858)" style="fill:#fff"/>
                </g>
                <g data-name="组 12603" style="opacity:.2">
                    <path data-name="路径 23168" d="M628.426 377.33a12.613 12.613 0 0 1-.49 1.633c-.343 1.064-.78 2.408-1.265 3.894s-.907 2.83-1.246 3.9a12.527 12.527 0 0 1-.564 1.6 10.293 10.293 0 0 1 .392-1.658c.275-1.01.687-2.4 1.177-3.924s.981-2.894 1.334-3.879a10.522 10.522 0 0 1 .662-1.569z" transform="translate(281.872 103.3)" style="fill:#fff"/>
                </g>
            </g>
        </g>
    </g>
</svg>
