<svg xmlns="http://www.w3.org/2000/svg" width="324" height="194" viewBox="0 0 324 194">
    <defs>
        <linearGradient id="b1jhsufxwa" x1="1.356" y1=".189" x2=".078" y2=".5" gradientUnits="objectBoundingBox">
            <stop offset="0" stop-color="#b69354"/>
            <stop offset="1" stop-color="#f0cf8f"/>
        </linearGradient>
    </defs>
    <g data-name="组 12557">
        <g data-name="路径 18218" style="fill:rgba(250,250,250,.1)">
            <path d="M12 0h300a12 12 0 0 1 12 12v170a12 12 0 0 1-12 12H12a12 12 0 0 1-12-12V12A12 12 0 0 1 12 0z" style="stroke:none"/>
            <path d="M12 1C9.062 1 6.3 2.144 4.222 4.222A10.928 10.928 0 0 0 1 12v170c0 2.938 1.144 5.7 3.222 7.778A10.928 10.928 0 0 0 12 193h300c2.938 0 5.7-1.144 7.778-3.222A10.928 10.928 0 0 0 323 182V12c0-2.938-1.144-5.7-3.222-7.778A10.928 10.928 0 0 0 312 1H12m0-1h300c6.627 0 12 5.373 12 12v170c0 6.627-5.373 12-12 12H12c-6.627 0-12-5.373-12-12V12C0 5.373 5.373 0 12 0z" style="fill:rgba(112,112,112,.13);stroke:none"/>
        </g>
        <path data-name="路径 18219" d="M158.557 8.9v53.787a22.088 22.088 0 0 1-2.294 9.623 45.436 45.436 0 0 1-6.011 9.288 66.661 66.661 0 0 1-8.489 8.512 92.276 92.276 0 0 1-9.682 7.158 74 74 0 0 1-9.545 5.227 43.443 43.443 0 0 1-8.122 2.854l-1.1.193-1.01-.193a44.788 44.788 0 0 1-8.304-2.855 80.3 80.3 0 0 1-9.82-5.227 92.274 92.274 0 0 1-10-7.158 69.266 69.266 0 0 1-8.771-8.509 45.23 45.23 0 0 1-6.236-9.288 21.3 21.3 0 0 1-2.391-9.623V8.9l3.763-.583L112.762 0 155.8 8.319l2.753.583zm-45.781-1.113-.509-.106-36.234 6.494v33.933h36.742V7.787zm36.531 40.321h-36.531v48.3a50.054 50.054 0 0 0 7.668-2.606 68.084 68.084 0 0 0 8.173-4.148 72.977 72.977 0 0 0 7.773-5.318 46.453 46.453 0 0 0 6.61-6.282 31.1 31.1 0 0 0 4.589-6.966 16.921 16.921 0 0 0 1.716-7.342V48.108z" transform="translate(46.89 6.214)" style="opacity:.04"/>
        <g data-name="组 12544">
            <g data-name="组 11019">
                <g data-name="组 12545">
                    <path data-name="路径 18177" d="M2636.1 1010.045a2.945 2.945 0 0 1-1.146 2.539 5.464 5.464 0 0 1-3.276.841h-4.334v-12.067h4.49a4.543 4.543 0 0 1 2.87.8 2.818 2.818 0 0 1 1.014 2.357 2.762 2.762 0 0 1-1.422 2.636 2.879 2.879 0 0 1 1.8 2.895m-6.883-6.969v3.329h2.427a2.487 2.487 0 0 0 1.578-.407 1.611 1.611 0 0 0 .5-1.326 1.455 1.455 0 0 0-.468-1.256 2.854 2.854 0 0 0-1.613-.339zm4.334 8.244a1.615 1.615 0 0 0 .555-1.413 1.586 1.586 0 0 0-.581-1.4 3.384 3.384 0 0 0-1.864-.4h-2.445v3.607h2.462a3.377 3.377 0 0 0 1.873-.39" transform="translate(-2377.36 -970.087)" style="fill:#54657a"/>
                    <path data-name="路径 18178" d="M2658.213 1010.445h-5.531l-1.11 2.981h-1.872l4.61-12.067h2.358l4.612 12.067h-1.959zm-.607-1.6-2.15-5.755-2.167 5.755z" transform="translate(-2388.95 -970.087)" style="fill:#54657a"/>
                    <path data-name="路径 18179" d="M2689.068 1001.359v12.067h-1.873l-6.137-8.7v8.7h-1.872v-12.067h1.872l6.137 8.686v-8.686z" transform="translate(-2404.235 -970.087)" style="fill:#54657a"/>
                    <path data-name="路径 18180" d="m2711.417 1008.121-1.56 1.8v3.5h-1.872v-12.067h1.872v5.929l5.08-5.929h2.289l-4.525 5.253 4.854 6.814h-2.34z" transform="translate(-2419.165 -970.087)" style="fill:#54657a"/>
                    <g data-name="组 12546">
                        <path data-name="路径 18215" d="M2206.589 1109.693h-26.968c-7.247 0-9.632-2.386-9.632-9.632v-15.411c0-7.246 2.385-9.632 9.632-9.632h26.968c7.246 0 9.632 2.386 9.632 9.632v15.411c0 7.246-2.386 9.632-9.632 9.632" transform="translate(-2149.259 -1055.05)" style="fill:url(#b1jhsufxwa)"/>
                        <path data-name="路径 18217" d="M2205.159 1099.565v-6.712h11.061v-.994h-11.061v-6.712h11.061v-.5c0-.172-.008-.329-.01-.5h-17.818a5.319 5.319 0 0 0-4.791-4.791v-4.344h-.993v4.344a5.32 5.32 0 0 0-4.791 4.791h-5.774v-9.135h-.993v9.135H2170c0 .167-.011.324-.011.5v.5h11.062v6.713h-11.062v.993h11.062v6.711h-11.062v.5c0 .173.008.329.011.5h11.051v9.135h.993v-9.135h5.774a5.319 5.319 0 0 0 4.791 4.791v4.344h.993v-4.344a5.318 5.318 0 0 0 4.791-4.791h5.774v9.135h.994v-9.135h11.05c0-.167.01-.324.01-.5v-.5zm-23.117-14.418h5.776a7.459 7.459 0 0 0 1.533 3.751 6.31 6.31 0 0 1 1.3 2.962h-8.612zm0 14.418v-6.711h8.612a6.317 6.317 0 0 1-1.3 2.961 7.451 7.451 0 0 0-1.533 3.75zm11.062 4.816a4.324 4.324 0 0 1-4.319-4.319 6.134 6.134 0 0 1 1.39-3.693 6.118 6.118 0 0 0 0-8.024 6.139 6.139 0 0 1-1.39-3.694 4.319 4.319 0 0 1 8.638 0 6.136 6.136 0 0 1-1.391 3.694 6.121 6.121 0 0 0 0 8.024 6.13 6.13 0 0 1 1.391 3.693 4.324 4.324 0 0 1-4.319 4.319m11.062-4.816h-5.776a7.442 7.442 0 0 0-1.533-3.75 6.313 6.313 0 0 1-1.3-2.962h8.611zm0-7.705h-8.611a6.306 6.306 0 0 1 1.3-2.961 7.451 7.451 0 0 0 1.533-3.751h5.776z" transform="translate(-2149.258 -1055.05)" style="fill:#7a5e3e;opacity:.25"/>
                    </g>
                </g>
            </g>
        </g>
        <path data-name="矩形 11429" transform="translate(1 119)" style="fill:#b7bdc6;opacity:.1" d="M0 0h322v39H0z"/>
        <path data-name="路径 18220" d="M85.338 1.892v11.434a4.894 4.894 0 0 1-.464 2.046 9.729 9.729 0 0 1-1.215 1.974 13.85 13.85 0 0 1-1.716 1.81 18.745 18.745 0 0 1-1.958 1.522 14.752 14.752 0 0 1-1.93 1.111 8.5 8.5 0 0 1-1.642.607l-.223.041-.2-.041a8.756 8.756 0 0 1-1.679-.607 15.983 15.983 0 0 1-1.985-1.111 18.7 18.7 0 0 1-2.026-1.522 14.356 14.356 0 0 1-1.772-1.81 9.663 9.663 0 0 1-1.261-1.974 4.717 4.717 0 0 1-.483-2.046V1.892l.761-.124L76.079 0l8.7 1.769.557.124zm-9.256-.237-.1-.022-7.326 1.38v7.214h7.429V1.655zm7.386 8.572h-7.386V20.5a9.783 9.783 0 0 0 1.55-.554 13.52 13.52 0 0 0 1.652-.882 14.748 14.748 0 0 0 1.572-1.131 9.612 9.612 0 0 0 1.337-1.335 6.652 6.652 0 0 0 .928-1.481 3.75 3.75 0 0 0 .347-1.561v-3.329z" transform="translate(225.367 164.569)" style="opacity:.097;fill:#54657a"/>
    </g>
</svg>
