<svg width="88" height="88" viewBox="0 0 88 88" fill="none" xmlns="http://www.w3.org/2000/svg">
<rect width="88" height="88" fill="#E5E5E5"/>
<g clip-path="url(#clip0_56_2)">
<rect width="1920" height="1298" transform="translate(-1247 -309)" fill="#F4F7FD"/>
<rect width="878" height="789" transform="translate(-726 -201)" fill="#F4F7FD"/>
<path d="M-726 -151H152V582C152 585.314 149.314 588 146 588H-720C-723.314 588 -726 585.314 -726 582V-151Z" fill="#F4F7FD"/>
<g clip-path="url(#clip1_56_2)">
<rect x="-47" y="-141" width="183" height="380" rx="10" fill="white"/>
<g style="mix-blend-mode:screen">
<ellipse cx="43.9828" cy="43.9984" rx="43.5375" ry="43.5375" fill="url(#paint0_radial_56_2)"/>
</g>
<g clip-path="url(#clip2_56_2)">
<path fill-rule="evenodd" clip-rule="evenodd" d="M44.0643 28.9375C57.089 28.9375 67.6209 39.2637 67.6209 51.973C67.6209 64.6822 57.061 75.0084 44.0643 75.0084C31.0676 75.0084 20.5078 64.7096 20.5078 51.973C20.5078 39.2364 31.0676 28.9375 44.0643 28.9375Z" fill="url(#paint1_radial_56_2)"/>
<path style="mix-blend-mode:multiply" fill-rule="evenodd" clip-rule="evenodd" d="M44.0643 28.9375C57.089 28.9375 67.6209 39.2637 67.6209 51.973C67.6209 64.6822 57.061 75.0084 44.0643 75.0084C31.0676 75.0084 20.5078 64.7096 20.5078 51.973C20.5078 39.2364 31.0676 28.9375 44.0643 28.9375Z" fill="url(#paint2_radial_56_2)"/>
<path style="mix-blend-mode:screen" opacity="0.4" fill-rule="evenodd" clip-rule="evenodd" d="M51.3478 34.6874C56.6418 39.8642 55.5494 49.3687 48.8829 55.8877C42.2165 62.4066 32.497 63.5022 27.2031 58.298C21.9092 53.1212 23.0016 43.6167 29.668 37.0977C36.3344 30.5788 46.0539 29.4832 51.3478 34.6874Z" fill="url(#paint3_radial_56_2)"/>
<path style="mix-blend-mode:screen" opacity="0.75" fill-rule="evenodd" clip-rule="evenodd" d="M30.5651 38.1957C35.8591 33.0188 43.3938 32.0328 47.4272 36.0044C51.4607 39.9486 50.4523 47.3441 45.1864 52.4935C39.8925 57.6703 32.3578 58.6564 28.3243 54.6848C24.2909 50.7405 25.2992 43.3451 30.5651 38.1957Z" fill="url(#paint4_radial_56_2)"/>
<path style="mix-blend-mode:screen" fill-rule="evenodd" clip-rule="evenodd" d="M61.5443 40.0572C63.6451 43.3167 64.8495 47.1787 64.8495 51.3147C64.8495 63.0379 55.13 72.5424 43.1697 72.5424C39.9205 72.5424 36.8394 71.8302 34.0664 70.5977C35.747 70.9811 37.4836 71.2002 39.2763 71.2002C51.6568 71.2002 61.6844 61.3944 61.6844 49.2878C61.6844 45.4531 60.676 41.865 58.9114 38.715C58.2111 37.4551 60.704 38.7972 61.5443 40.112V40.0572Z" fill="url(#paint5_radial_56_2)"/>
<path style="mix-blend-mode:screen" fill-rule="evenodd" clip-rule="evenodd" d="M44.0643 28.9375C57.089 28.9375 67.6209 39.2637 67.6209 51.973C67.6209 64.6822 57.061 75.0084 44.0643 75.0084C31.0676 75.0084 20.5078 64.7096 20.5078 51.973C20.5078 39.2364 31.0676 28.9375 44.0643 28.9375Z" fill="url(#paint6_radial_56_2)"/>
<path fill-rule="evenodd" clip-rule="evenodd" d="M52.5788 23.2657L65.2393 30.4146L60.7857 36.6597C60.2535 37.5909 57.2284 36.8788 54.0353 35.071C50.8421 33.2632 48.7134 31.072 49.2456 30.1407L52.5508 23.2383L52.5788 23.2657Z" fill="url(#paint7_radial_56_2)"/>
<path fill-rule="evenodd" clip-rule="evenodd" d="M60.0006 25.0183C63.5018 26.9904 65.8547 29.4008 65.2385 30.4143C64.6502 31.4277 61.317 30.6334 57.8438 28.6613C54.3425 26.6892 51.9896 24.2788 52.6059 23.2653C53.1941 22.2519 56.5273 23.0462 60.0006 25.0183Z" fill="url(#paint8_radial_56_2)"/>
<g style="mix-blend-mode:multiply" opacity="0.5">
<path fill-rule="evenodd" clip-rule="evenodd" d="M49.8057 31.7839C50.9261 29.5379 52.0465 27.2919 53.1669 25.0458C52.6067 24.3611 52.3826 23.7859 52.5227 23.375L49.2455 30.1679L49.1895 30.25C49.0494 30.6061 49.2735 31.1539 49.7777 31.7839H49.8057Z" fill="#1181C7"/>
</g>
<path style="mix-blend-mode:screen" fill-rule="evenodd" clip-rule="evenodd" d="M54.317 26.2266C53.1686 28.4452 51.9922 30.6364 50.8438 32.8551C51.432 33.3755 52.1322 33.8959 52.9445 34.4163C54.177 32.2525 55.4094 30.0886 56.6138 27.9522C55.7175 27.377 54.9612 26.8018 54.317 26.2266Z" fill="url(#paint9_radial_56_2)"/>
<path style="mix-blend-mode:screen" opacity="0.6" fill-rule="evenodd" clip-rule="evenodd" d="M61.7666 30.4141C60.3941 32.4957 59.0216 34.5774 57.6211 36.6591C59.2457 37.1795 60.4501 37.2069 60.7862 36.6591L65.1838 30.4962C64.7357 31.0167 63.4472 30.9619 61.7666 30.4141Z" fill="url(#paint10_linear_56_2)"/>
<path d="M59.8909 27.3755C59.5267 27.7042 58.2103 27.3207 57.9021 26.5264C57.6501 25.8964 58.5744 24.6638 59.0506 24.2803C59.2186 23.4586 60.0869 21.4591 60.5911 20.8839C60.4231 20.4457 60.5911 18.1996 61.0393 17.5423C60.7032 17.104 60.255 14.4197 60.5071 13.8445C59.8348 12.8859 59.9749 11.2698 61.3194 10.8042C62.2717 10.4755 63.2241 11.0507 63.3641 11.982C63.9523 12.5572 64.3725 15.1593 64.1484 16.0906C64.5125 16.8849 64.0924 19.2953 63.8123 19.98C63.9803 20.9935 62.8879 23.0204 62.4958 23.623C62.2437 24.8555 60.9552 26.4442 59.8629 27.4029L59.8909 27.3755Z" fill="url(#paint11_radial_56_2)"/>
<g style="mix-blend-mode:multiply">
<path fill-rule="evenodd" clip-rule="evenodd" d="M62.9975 16.3381C64.5381 16.5572 63.6418 19.5701 61.9051 20.2275C64.4541 20.2275 62.5214 23.1857 60.9528 23.5966C62.4933 24.5552 60.0845 27.5134 58.0117 26.7739C58.4599 27.4038 59.5523 27.7051 59.8884 27.4038C60.9808 26.4178 62.2693 24.8565 62.5214 23.6239C62.9135 23.0214 64.0059 20.9945 63.8378 19.981C64.1179 19.3236 64.5101 16.9133 64.174 16.0915C64.398 15.1877 63.9779 12.5582 63.3897 11.983C63.2776 11.1886 62.5214 10.6408 61.7091 10.723C62.4653 10.8599 62.8575 11.4899 62.3813 12.3116C63.8939 12.3664 64.0339 15.215 62.9975 16.3107V16.3381Z" fill="#CBBBA0"/>
</g>
<path style="mix-blend-mode:screen" fill-rule="evenodd" clip-rule="evenodd" d="M60.7882 11.3804C60.3401 11.8735 60.144 12.9965 60.5081 13.3252C60.5921 13.4073 60.7602 13.4347 60.8442 13.38C61.2924 13.0513 62.0207 12.2022 62.1327 11.627C62.3288 10.6409 61.2924 10.8052 60.7882 11.353V11.3804ZM62.0767 12.9965C61.6565 13.3526 61.0683 13.873 61.0123 13.9278C60.8722 14.0921 60.7602 14.3112 60.7322 14.5304C60.6482 14.996 60.7322 15.7629 60.8722 16.3381C60.9843 16.8859 61.2924 17.2146 61.6845 16.9407C62.3848 16.4477 63.1411 15.7903 63.3371 14.9412C63.4492 14.4482 63.4772 13.873 63.4212 13.4621C63.3091 12.613 62.7489 12.4213 62.0767 12.9691V12.9965ZM62.5248 16.8859C62.1327 17.0777 61.7686 17.2694 61.4325 17.5707C60.9563 18.009 60.5081 19.762 60.8162 20.0906C60.9003 20.2002 61.0963 20.2002 61.2084 20.1454C62.3848 19.7893 63.029 19.0224 63.3652 17.872C63.5892 17.0777 63.5052 16.3655 62.4968 16.8859H62.5248ZM62.2728 20.3919C61.6565 20.3919 60.7322 20.9671 60.3961 21.4602C60.0319 22.0354 59.7238 22.638 59.4717 23.2679C59.4157 23.4323 59.3317 23.5966 59.3317 23.7884C59.3317 23.9527 59.5558 23.8979 59.8359 23.8158C60.284 23.6788 61.2644 23.2132 61.6565 22.9393C62.3008 22.501 63.1411 21.4328 62.7769 20.6384C62.6929 20.4741 62.4688 20.3645 62.3008 20.3645L62.2728 20.3919ZM60.4801 24.0075C59.3877 24.1171 58.4914 24.747 58.1273 25.7605C58.0712 25.87 58.0432 26.0618 58.1273 26.144C58.7155 26.5548 60.5641 25.4318 60.9563 24.6923C61.1804 24.2814 60.9283 23.9527 60.4521 24.0075H60.4801Z" fill="url(#paint12_radial_56_2)"/>
<path style="mix-blend-mode:screen" opacity="0.35" fill-rule="evenodd" clip-rule="evenodd" d="M33.755 36.8509C37.8165 34.2762 42.7463 34.6597 44.735 37.7001C46.7517 40.7404 45.0711 45.2872 41.0096 47.862C36.9482 50.4367 32.0184 50.0532 30.0297 47.0128C28.0129 43.9725 29.6935 39.4257 33.755 36.8509Z" fill="url(#paint13_radial_56_2)"/>
</g>
<g style="mix-blend-mode:color-dodge">
<ellipse cx="43.9828" cy="43.9984" rx="43.5375" ry="43.5375" fill="url(#paint14_radial_56_2)"/>
</g>
<g style="mix-blend-mode:color-dodge">
<ellipse cx="64.2528" cy="30.5397" rx="0.373913" ry="7.85217" fill="url(#paint15_radial_56_2)"/>
</g>
<g style="mix-blend-mode:color-dodge">
<ellipse cx="64.2533" cy="30.9119" rx="0.747826" ry="7.85217" transform="rotate(90 64.2533 30.9119)" fill="url(#paint16_radial_56_2)"/>
</g>
<g style="mix-blend-mode:color-dodge">
<ellipse cx="42.9431" cy="39.8884" rx="0.747826" ry="20.9391" fill="url(#paint17_radial_56_2)"/>
</g>
<g style="mix-blend-mode:color-dodge">
<ellipse cx="42.9398" cy="40.2624" rx="1.12174" ry="20.9391" transform="rotate(90 42.9398 40.2624)" fill="url(#paint18_radial_56_2)"/>
</g>
</g>
</g>
<defs>
<radialGradient id="paint0_radial_56_2" cx="0" cy="0" r="1" gradientUnits="userSpaceOnUse" gradientTransform="translate(43.9828 43.9984) rotate(90) scale(43.5375 43.5375)">
<stop stop-color="#D36565"/>
<stop offset="1" stop-color="#590808" stop-opacity="0"/>
</radialGradient>
<radialGradient id="paint1_radial_56_2" cx="0" cy="0" r="1" gradientUnits="userSpaceOnUse" gradientTransform="translate(38.8825 38.6885) scale(37.1134 36.2925)">
<stop stop-color="#4D6187"/>
<stop offset="0.88" stop-color="#0F2036"/>
</radialGradient>
<radialGradient id="paint2_radial_56_2" cx="0" cy="0" r="1" gradientUnits="userSpaceOnUse" gradientTransform="translate(44.4005 60.6832) scale(42.9675 42.0171)">
<stop offset="0.54" stop-color="white"/>
<stop offset="0.58" stop-color="#EDEDED"/>
<stop offset="0.68" stop-color="#BFBFBF"/>
<stop offset="0.81" stop-color="#747474"/>
<stop offset="0.98" stop-color="#0F0F0F"/>
<stop offset="1"/>
</radialGradient>
<radialGradient id="paint3_radial_56_2" cx="0" cy="0" r="1" gradientUnits="userSpaceOnUse" gradientTransform="translate(32.525 32.5235) scale(31.8475 31.1431)">
<stop stop-color="#312169"/>
<stop offset="1"/>
</radialGradient>
<radialGradient id="paint4_radial_56_2" cx="0" cy="0" r="1" gradientUnits="userSpaceOnUse" gradientTransform="translate(26.7558 30.4715) scale(39.7464 38.8672)">
<stop stop-color="#232C69"/>
<stop offset="1"/>
</radialGradient>
<radialGradient id="paint5_radial_56_2" cx="0" cy="0" r="1" gradientUnits="userSpaceOnUse" gradientTransform="translate(42.6375 37.0716) scale(36.5252 35.7173)">
<stop stop-color="#232C69"/>
<stop offset="1"/>
</radialGradient>
<radialGradient id="paint6_radial_56_2" cx="0" cy="0" r="1" gradientUnits="userSpaceOnUse" gradientTransform="translate(42.1877 49.9187) scale(27.4779 26.8701)">
<stop offset="0.83"/>
<stop offset="0.85" stop-color="#000711"/>
<stop offset="0.9" stop-color="#001B3F"/>
<stop offset="0.96" stop-color="#003B89"/>
<stop offset="1" stop-color="#0052BD"/>
</radialGradient>
<radialGradient id="paint7_radial_56_2" cx="0" cy="0" r="1" gradientUnits="userSpaceOnUse" gradientTransform="translate(56.4722 25.0461) scale(18.1506 17.7491)">
<stop stop-color="#4D6187"/>
<stop offset="0.86" stop-color="#0F2036"/>
</radialGradient>
<radialGradient id="paint8_radial_56_2" cx="0" cy="0" r="1" gradientUnits="userSpaceOnUse" gradientTransform="translate(52.3258 28.0039) scale(19.8312 19.3925)">
<stop stop-color="#374969"/>
<stop offset="0.86" stop-color="#141B24"/>
</radialGradient>
<radialGradient id="paint9_radial_56_2" cx="0" cy="0" r="1" gradientUnits="userSpaceOnUse" gradientTransform="translate(50.8157 23.7888) scale(14.9574 14.6266)">
<stop stop-color="#232C69"/>
<stop offset="1"/>
</radialGradient>
<linearGradient id="paint10_linear_56_2" x1="58.6295" y1="31.674" x2="62.3817" y2="34.3826" gradientUnits="userSpaceOnUse">
<stop offset="0.17"/>
<stop offset="0.28" stop-color="#000711"/>
<stop offset="0.5" stop-color="#001B3F"/>
<stop offset="0.8" stop-color="#003B89"/>
<stop offset="1" stop-color="#0052BD"/>
</linearGradient>
<radialGradient id="paint11_radial_56_2" cx="0" cy="0" r="1" gradientUnits="userSpaceOnUse" gradientTransform="translate(58.6584 11.5437) scale(18.1785 17.7765)">
<stop stop-color="#AD8550"/>
<stop offset="0.37" stop-color="#95713D"/>
<stop offset="1" stop-color="#664918"/>
</radialGradient>
<radialGradient id="paint12_radial_56_2" cx="0" cy="0" r="1" gradientUnits="userSpaceOnUse" gradientTransform="translate(57.371 18.3103) scale(8.93525 8.73759)">
<stop offset="0.35" stop-color="#B17F4A"/>
<stop offset="1"/>
</radialGradient>
<radialGradient id="paint13_radial_56_2" cx="0" cy="0" r="1" gradientUnits="userSpaceOnUse" gradientTransform="translate(27.5693 25.378) rotate(11.8204) scale(27.8993 27.3346)">
<stop stop-color="#636BA3"/>
<stop offset="1"/>
</radialGradient>
<radialGradient id="paint14_radial_56_2" cx="0" cy="0" r="1" gradientUnits="userSpaceOnUse" gradientTransform="translate(43.9828 43.9984) rotate(90) scale(43.5375 43.5375)">
<stop stop-color="#B10000"/>
<stop offset="1" stop-color="#400000" stop-opacity="0"/>
</radialGradient>
<radialGradient id="paint15_radial_56_2" cx="0" cy="0" r="1" gradientUnits="userSpaceOnUse" gradientTransform="translate(64.2528 30.5397) rotate(90) scale(7.85217 0.373913)">
<stop stop-color="#FF0000"/>
<stop offset="1" stop-color="#400000" stop-opacity="0"/>
</radialGradient>
<radialGradient id="paint16_radial_56_2" cx="0" cy="0" r="1" gradientUnits="userSpaceOnUse" gradientTransform="translate(64.2533 30.9119) rotate(90) scale(7.85217 0.747826)">
<stop stop-color="#FF0000"/>
<stop offset="1" stop-color="#400000" stop-opacity="0"/>
</radialGradient>
<radialGradient id="paint17_radial_56_2" cx="0" cy="0" r="1" gradientUnits="userSpaceOnUse" gradientTransform="translate(42.9431 39.8884) rotate(90) scale(20.9391 0.747826)">
<stop stop-color="#FF0000"/>
<stop offset="1" stop-color="#400000" stop-opacity="0"/>
</radialGradient>
<radialGradient id="paint18_radial_56_2" cx="0" cy="0" r="1" gradientUnits="userSpaceOnUse" gradientTransform="translate(42.9398 40.2624) rotate(90) scale(20.9391 1.12174)">
<stop stop-color="#FF0000"/>
<stop offset="1" stop-color="#400000" stop-opacity="0"/>
</radialGradient>
<clipPath id="clip0_56_2">
<rect width="1920" height="1298" fill="white" transform="translate(-1247 -309)"/>
</clipPath>
<clipPath id="clip1_56_2">
<rect x="-47" y="-141" width="183" height="380" rx="10" fill="white"/>
</clipPath>
<clipPath id="clip2_56_2">
<rect width="47.113" height="64.313" fill="white" transform="translate(20.5078 10.7227)"/>
</clipPath>
</defs>
</svg>
