<svg width="90" height="88" viewBox="0 0 90 88" fill="none" xmlns="http://www.w3.org/2000/svg">
<rect width="90" height="88" fill="#E5E5E5"/>
<g clip-path="url(#clip0_56_2)">
<rect width="1920" height="1298" transform="translate(-582 -309)" fill="#F4F7FD"/>
<rect width="878" height="789" transform="translate(-61 -201)" fill="#F4F7FD"/>
<path d="M-61 -151H817V582C817 585.314 814.314 588 811 588H-55C-58.3137 588 -61 585.314 -61 582V-151Z" fill="#F4F7FD"/>
<g clip-path="url(#clip1_56_2)">
<rect x="-45" y="-141" width="183" height="380" rx="10" fill="white"/>
<g style="mix-blend-mode:screen">
<ellipse cx="45.9828" cy="43.9984" rx="43.5375" ry="43.5375" fill="url(#paint0_radial_56_2)"/>
</g>
<g clip-path="url(#clip2_56_2)">
<path fill-rule="evenodd" clip-rule="evenodd" d="M55.7593 27.2976L67.4924 36.7616L69.4264 43.3812L60.4783 43.2778L45.857 36.5289L34.1239 27.0649L32.1641 20.4453L41.138 20.5487L55.7593 27.2976Z" fill="url(#paint1_radial_56_2)"/>
<path fill-rule="evenodd" clip-rule="evenodd" d="M32.1636 20.4453L20.6367 24.505L23.2928 33.5294L34.1234 27.0649L32.1636 20.4453Z" fill="url(#paint2_radial_56_2)"/>
<path fill-rule="evenodd" clip-rule="evenodd" d="M34.1236 27.0664L23.293 33.5309L39.3068 46.4598L45.8567 36.5304L34.1236 27.0664Z" fill="url(#paint3_radial_56_2)"/>
<path fill-rule="evenodd" clip-rule="evenodd" d="M45.8546 36.5273L60.4759 43.2762L59.2639 55.6622L39.3047 46.4568L45.8546 36.5273Z" fill="url(#paint4_radial_56_2)"/>
<path fill-rule="evenodd" clip-rule="evenodd" d="M69.4257 43.3808L71.4887 55.7926L59.2656 55.6633L60.4776 43.2773L69.4257 43.3808Z" fill="url(#paint5_radial_56_2)"/>
<path fill-rule="evenodd" clip-rule="evenodd" d="M23.293 33.5312L30.2813 67.5602L39.3068 46.4602L23.293 33.5312Z" fill="url(#paint6_radial_56_2)"/>
<path fill-rule="evenodd" clip-rule="evenodd" d="M39.3067 46.457L59.266 55.6624L30.2812 67.5571L39.3067 46.457Z" fill="url(#paint7_radial_56_2)"/>
<path fill-rule="evenodd" clip-rule="evenodd" d="M71.489 55.7934L30.2812 67.5587L59.266 55.6641L71.489 55.7934Z" fill="url(#paint8_radial_56_2)"/>
<path fill-rule="evenodd" clip-rule="evenodd" d="M20.6367 24.5039L30.2811 67.5573L23.2928 33.5283L20.6367 24.5039Z" fill="#85F2FF"/>
<path style="mix-blend-mode:screen" opacity="0.5" fill-rule="evenodd" clip-rule="evenodd" d="M44.5141 22.1016C48.5369 26.0061 56.4793 38.2369 58.5938 42.4259L60.4505 43.2792L64.5507 43.3309H65.2469C62.9003 41.2622 54.339 28.7988 53.3848 26.213L44.4883 22.1016H44.5141Z" fill="url(#paint9_radial_56_2)"/>
<g style="mix-blend-mode:screen" opacity="0.75">
<path fill-rule="evenodd" clip-rule="evenodd" d="M25.0207 41.9585C24.866 35.8819 27.3931 37.6919 30.0234 40.4329C38.3269 48.9918 35.5676 53.9307 31.9574 63.6015C34.4072 57.8869 36.8312 52.1724 39.281 46.4578C33.943 42.1654 28.6051 37.8471 23.293 33.5547C23.8603 36.3473 24.4534 39.1658 25.0207 41.9585Z" fill="#9FDFFF"/>
</g>
<path style="mix-blend-mode:screen" opacity="0.5" fill-rule="evenodd" clip-rule="evenodd" d="M45.4972 49.3008C53.6717 53.1019 50.2678 57.5236 43.3569 60.9885L30.3086 67.5306L59.2933 55.6618L45.523 49.3008H45.4972Z" fill="url(#paint10_radial_56_2)"/>
<g style="mix-blend-mode:screen">
<path fill-rule="evenodd" clip-rule="evenodd" d="M34.1241 27.0664L32.3448 21.0156C32.9895 24.0927 33.3763 25.2046 32.4738 26.5234C31.5712 27.868 29.302 29.859 27.5742 30.9709L34.1241 27.0664Z" fill="#8FFCFF"/>
</g>
<path fill-rule="evenodd" clip-rule="evenodd" d="M45.8573 36.5562L34.1241 27.0664L27.5742 30.9709C30.8492 29.1868 32.8348 28.5403 34.0726 29.0316C35.3361 29.497 36.8834 30.5831 39.4363 32.5224C42.1439 34.5652 43.3301 36.6338 43.3559 37.7457C43.3559 39.1162 42.0924 41.8054 40.3388 44.8566L45.8315 36.5304L45.8573 36.5562Z" fill="white"/>
<g style="mix-blend-mode:screen" opacity="0.5">
<path fill-rule="evenodd" clip-rule="evenodd" d="M45.8559 36.5273L40.3633 44.8536C42.8904 41.2335 44.876 39.5527 46.2685 39.2166C48.151 38.777 50.8586 39.3976 56.1966 41.2852L45.8817 36.5273H45.8559Z" fill="#8FFCFF"/>
</g>
<path style="mix-blend-mode:screen" fill-rule="evenodd" clip-rule="evenodd" d="M38.5851 20.5229L32.1641 20.4453L33.4792 24.9187L34.1239 27.0908L45.857 36.5548L51.5302 39.1664C47.9716 36.0118 38.9461 23.2638 38.5851 20.5229Z" fill="url(#paint11_radial_56_2)"/>
</g>
<g style="mix-blend-mode:color-dodge">
<ellipse cx="45.9828" cy="43.9984" rx="43.5375" ry="43.5375" fill="url(#paint12_radial_56_2)"/>
</g>
<g style="mix-blend-mode:color-dodge">
<ellipse cx="43.4449" cy="36.5235" rx="1.49565" ry="29.5391" fill="url(#paint13_radial_56_2)"/>
</g>
<g style="mix-blend-mode:color-dodge">
<ellipse cx="43.4452" cy="36.523" rx="1.49565" ry="29.5391" transform="rotate(90 43.4452 36.523)" fill="url(#paint14_radial_56_2)"/>
</g>
<g style="mix-blend-mode:color-dodge">
<ellipse cx="21.0124" cy="24.5574" rx="1.12174" ry="20.5652" fill="url(#paint15_radial_56_2)"/>
</g>
<g style="mix-blend-mode:color-dodge">
<ellipse cx="21.009" cy="24.5553" rx="1.12174" ry="20.5652" transform="rotate(90 21.009 24.5553)" fill="url(#paint16_radial_56_2)"/>
</g>
<g style="mix-blend-mode:color-dodge">
<ellipse cx="59.1491" cy="55.9654" rx="1.12174" ry="14.5826" fill="url(#paint17_radial_56_2)"/>
</g>
<g style="mix-blend-mode:color-dodge">
<ellipse cx="59.1518" cy="55.9655" rx="1.12174" ry="14.5826" transform="rotate(90 59.1518 55.9655)" fill="url(#paint18_radial_56_2)"/>
</g>
<g style="mix-blend-mode:color-dodge">
<ellipse cx="67.7517" cy="36.8971" rx="0.747826" ry="11.2174" fill="url(#paint19_radial_56_2)"/>
</g>
<g style="mix-blend-mode:color-dodge">
<ellipse cx="67.7514" cy="36.8963" rx="0.747827" ry="11.2174" transform="rotate(90 67.7514 36.8963)" fill="url(#paint20_radial_56_2)"/>
</g>
<g style="mix-blend-mode:color-dodge">
<ellipse cx="30.3572" cy="67.5572" rx="0.747826" ry="11.2174" fill="url(#paint21_radial_56_2)"/>
</g>
<g style="mix-blend-mode:color-dodge">
<ellipse cx="30.3568" cy="67.5564" rx="0.747827" ry="11.2174" transform="rotate(90 30.3568 67.5564)" fill="url(#paint22_radial_56_2)"/>
</g>
</g>
</g>
<defs>
<radialGradient id="paint0_radial_56_2" cx="0" cy="0" r="1" gradientUnits="userSpaceOnUse" gradientTransform="translate(45.9828 43.9984) rotate(90) scale(43.5375 43.5375)">
<stop stop-color="#4FA9CF"/>
<stop offset="1" stop-color="#083259" stop-opacity="0"/>
</radialGradient>
<radialGradient id="paint1_radial_56_2" cx="0" cy="0" r="1" gradientUnits="userSpaceOnUse" gradientTransform="translate(35.0006 27.5562) scale(46.8036 46.932)">
<stop stop-color="#C4EEFF"/>
<stop offset="0.33" stop-color="#4CCAFF"/>
<stop offset="1" stop-color="#003EB0"/>
</radialGradient>
<radialGradient id="paint2_radial_56_2" cx="0" cy="0" r="1" gradientUnits="userSpaceOnUse" gradientTransform="translate(19.3474 18.2991) scale(17.7931 17.8419)">
<stop stop-color="#A5E2FF"/>
<stop offset="1" stop-color="#218CF3"/>
</radialGradient>
<radialGradient id="paint3_radial_56_2" cx="0" cy="0" r="1" gradientUnits="userSpaceOnUse" gradientTransform="translate(34.3299 28.6955) scale(51.4453 51.5865)">
<stop stop-color="#A5E2FF"/>
<stop offset="1" stop-color="#0088FF"/>
</radialGradient>
<radialGradient id="paint4_radial_56_2" cx="0" cy="0" r="1" gradientUnits="userSpaceOnUse" gradientTransform="translate(42.657 69.8323) scale(35.7667 35.8649)">
<stop stop-color="#A5E2FF"/>
<stop offset="1" stop-color="#0069C2"/>
</radialGradient>
<radialGradient id="paint5_radial_56_2" cx="0" cy="0" r="1" gradientUnits="userSpaceOnUse" gradientTransform="translate(73.7838 35.8044) scale(25.9676 26.0389)">
<stop stop-color="#4CCAFF"/>
<stop offset="1" stop-color="#003EB0"/>
</radialGradient>
<radialGradient id="paint6_radial_56_2" cx="0" cy="0" r="1" gradientUnits="userSpaceOnUse" gradientTransform="translate(19.3733 53.8297) scale(22.6927 22.7549)">
<stop stop-color="#A5E2FF"/>
<stop offset="1" stop-color="#218CF3"/>
</radialGradient>
<radialGradient id="paint7_radial_56_2" cx="0" cy="0" r="1" gradientUnits="userSpaceOnUse" gradientTransform="translate(36.5475 75.1334) scale(41.7235 41.838)">
<stop stop-color="#77D6FF"/>
<stop offset="1" stop-color="#001FB0"/>
</radialGradient>
<radialGradient id="paint8_radial_56_2" cx="0" cy="0" r="1" gradientUnits="userSpaceOnUse" gradientTransform="translate(30.9775 69.1102) scale(37.8555 37.9594)">
<stop stop-color="#A5E2FF"/>
<stop offset="1" stop-color="#0081FF"/>
</radialGradient>
<radialGradient id="paint9_radial_56_2" cx="0" cy="0" r="1" gradientUnits="userSpaceOnUse" gradientTransform="translate(61.353 44.391) scale(22.0738 22.1343)">
<stop stop-color="#00000D"/>
<stop offset="1" stop-color="white"/>
</radialGradient>
<radialGradient id="paint10_radial_56_2" cx="0" cy="0" r="1" gradientUnits="userSpaceOnUse" gradientTransform="translate(39.0246 47.3097) scale(23.7499 23.8151)">
<stop offset="0.31" stop-color="#00000D"/>
<stop offset="1" stop-color="#1CB4FF"/>
</radialGradient>
<radialGradient id="paint11_radial_56_2" cx="0" cy="0" r="1" gradientUnits="userSpaceOnUse" gradientTransform="translate(60.4525 11.1365) scale(38.5517 38.6575)">
<stop offset="0.57" stop-color="#00000D"/>
<stop offset="0.6" stop-color="#030512"/>
<stop offset="0.63" stop-color="#0C1523"/>
<stop offset="0.68" stop-color="#1B2F3F"/>
<stop offset="0.72" stop-color="#305366"/>
<stop offset="0.77" stop-color="#4C8297"/>
<stop offset="0.82" stop-color="#6DBAD3"/>
<stop offset="0.86" stop-color="#85E3FF"/>
</radialGradient>
<radialGradient id="paint12_radial_56_2" cx="0" cy="0" r="1" gradientUnits="userSpaceOnUse" gradientTransform="translate(45.9828 43.9984) rotate(90) scale(43.5375 43.5375)">
<stop stop-color="#007CB1"/>
<stop offset="1" stop-color="#400000" stop-opacity="0"/>
</radialGradient>
<radialGradient id="paint13_radial_56_2" cx="0" cy="0" r="1" gradientUnits="userSpaceOnUse" gradientTransform="translate(43.4449 36.5235) rotate(90) scale(29.5391 1.49565)">
<stop stop-color="#007CB1"/>
<stop offset="1" stop-color="#400000" stop-opacity="0"/>
</radialGradient>
<radialGradient id="paint14_radial_56_2" cx="0" cy="0" r="1" gradientUnits="userSpaceOnUse" gradientTransform="translate(43.4452 36.523) rotate(90) scale(29.5391 1.49565)">
<stop stop-color="#007CB1"/>
<stop offset="1" stop-color="#400000" stop-opacity="0"/>
</radialGradient>
<radialGradient id="paint15_radial_56_2" cx="0" cy="0" r="1" gradientUnits="userSpaceOnUse" gradientTransform="translate(21.0124 24.5574) rotate(90) scale(20.5652 1.12174)">
<stop stop-color="#007CB1"/>
<stop offset="1" stop-color="#400000" stop-opacity="0"/>
</radialGradient>
<radialGradient id="paint16_radial_56_2" cx="0" cy="0" r="1" gradientUnits="userSpaceOnUse" gradientTransform="translate(21.009 24.5553) rotate(90) scale(20.5652 1.12174)">
<stop stop-color="#007CB1"/>
<stop offset="1" stop-color="#400000" stop-opacity="0"/>
</radialGradient>
<radialGradient id="paint17_radial_56_2" cx="0" cy="0" r="1" gradientUnits="userSpaceOnUse" gradientTransform="translate(59.1491 55.9654) rotate(90) scale(14.5826 1.12174)">
<stop stop-color="#007CB1"/>
<stop offset="1" stop-color="#400000" stop-opacity="0"/>
</radialGradient>
<radialGradient id="paint18_radial_56_2" cx="0" cy="0" r="1" gradientUnits="userSpaceOnUse" gradientTransform="translate(59.1518 55.9655) rotate(90) scale(14.5826 1.12174)">
<stop stop-color="#007CB1"/>
<stop offset="1" stop-color="#400000" stop-opacity="0"/>
</radialGradient>
<radialGradient id="paint19_radial_56_2" cx="0" cy="0" r="1" gradientUnits="userSpaceOnUse" gradientTransform="translate(67.7517 36.8971) rotate(90) scale(11.2174 0.747826)">
<stop stop-color="#007CB1"/>
<stop offset="1" stop-color="#400000" stop-opacity="0"/>
</radialGradient>
<radialGradient id="paint20_radial_56_2" cx="0" cy="0" r="1" gradientUnits="userSpaceOnUse" gradientTransform="translate(67.7514 36.8963) rotate(90) scale(11.2174 0.747827)">
<stop stop-color="#007CB1"/>
<stop offset="1" stop-color="#400000" stop-opacity="0"/>
</radialGradient>
<radialGradient id="paint21_radial_56_2" cx="0" cy="0" r="1" gradientUnits="userSpaceOnUse" gradientTransform="translate(30.3572 67.5572) rotate(90) scale(11.2174 0.747826)">
<stop stop-color="#007CB1"/>
<stop offset="1" stop-color="#400000" stop-opacity="0"/>
</radialGradient>
<radialGradient id="paint22_radial_56_2" cx="0" cy="0" r="1" gradientUnits="userSpaceOnUse" gradientTransform="translate(30.3568 67.5564) rotate(90) scale(11.2174 0.747827)">
<stop stop-color="#007CB1"/>
<stop offset="1" stop-color="#400000" stop-opacity="0"/>
</radialGradient>
<clipPath id="clip0_56_2">
<rect width="1920" height="1298" fill="white" transform="translate(-582 -309)"/>
</clipPath>
<clipPath id="clip1_56_2">
<rect x="-45" y="-141" width="183" height="380" rx="10" fill="white"/>
</clipPath>
<clipPath id="clip2_56_2">
<rect width="50.8522" height="47.113" fill="white" transform="translate(20.6367 20.4453)"/>
</clipPath>
</defs>
</svg>
