<svg width="75" height="64" viewBox="0 0 75 64" fill="none" xmlns="http://www.w3.org/2000/svg">
<g style="mix-blend-mode:screen">
<ellipse cx="37.772" cy="32.0016" rx="37.1587" ry="37.4625" fill="url(#paint0_radial_1501_14563)"/>
</g>
<g clip-path="url(#clip0_1501_14563)">
<path fill-rule="evenodd" clip-rule="evenodd" d="M46.1187 17.6267L56.1328 25.7701L57.7835 31.466L50.1463 31.377L37.6672 25.5698L27.6532 17.4264L25.9805 11.7305L33.6396 11.8195L46.1187 17.6267Z" fill="url(#paint1_radial_1501_14563)"/>
<path fill-rule="evenodd" clip-rule="evenodd" d="M25.9786 11.7305L16.1406 15.2237L18.4076 22.9889L27.6513 17.4264L25.9786 11.7305Z" fill="url(#paint2_radial_1501_14563)"/>
<path fill-rule="evenodd" clip-rule="evenodd" d="M27.65 17.4258L18.4062 22.9882L32.0738 34.1131L37.6641 25.5692L27.65 17.4258Z" fill="url(#paint3_radial_1501_14563)"/>
<path fill-rule="evenodd" clip-rule="evenodd" d="M37.6645 25.5703L50.1436 31.3775L49.1092 42.0352L32.0742 34.1142L37.6645 25.5703Z" fill="url(#paint4_radial_1501_14563)"/>
<path fill-rule="evenodd" clip-rule="evenodd" d="M57.7809 31.4679L59.5416 42.1478L49.1094 42.0366L50.1438 31.3789L57.7809 31.4679Z" fill="url(#paint5_radial_1501_14563)"/>
<path fill-rule="evenodd" clip-rule="evenodd" d="M18.4062 22.9883L24.3707 52.269L32.0738 34.1132L18.4062 22.9883Z" fill="url(#paint6_radial_1501_14563)"/>
<path fill-rule="evenodd" clip-rule="evenodd" d="M32.0742 34.1133L49.1092 42.0342L24.3711 52.2691L32.0742 34.1133Z" fill="url(#paint7_radial_1501_14563)"/>
<path fill-rule="evenodd" clip-rule="evenodd" d="M59.5415 42.1464L24.3711 52.2701L49.1092 42.0352L59.5415 42.1464Z" fill="url(#paint8_radial_1501_14563)"/>
<path fill-rule="evenodd" clip-rule="evenodd" d="M16.1406 15.2227L24.372 52.2686L18.4076 22.9878L16.1406 15.2227Z" fill="#85F2FF"/>
<path style="mix-blend-mode:screen" opacity="0.5" fill-rule="evenodd" clip-rule="evenodd" d="M36.522 13.1562C39.9554 16.516 46.7342 27.0401 48.5389 30.6446L50.1236 31.3788L53.623 31.4233H54.2172C52.2144 29.6434 44.9074 18.9189 44.0931 16.694L36.5 13.1562H36.522Z" fill="url(#paint9_radial_1501_14563)"/>
<g style="mix-blend-mode:screen" opacity="0.75">
<path fill-rule="evenodd" clip-rule="evenodd" d="M19.8809 30.2429C19.7488 25.0142 21.9057 26.5717 24.1506 28.9302C31.2375 36.2948 28.8825 40.5446 25.8013 48.866C27.8921 43.9488 29.961 39.0316 32.0518 34.1144C27.496 30.4209 22.9401 26.7052 18.4062 23.0117C18.8904 25.4147 19.3967 27.8399 19.8809 30.2429Z" fill="#9FDFFF"/>
</g>
<path style="mix-blend-mode:screen" opacity="0.5" fill-rule="evenodd" clip-rule="evenodd" d="M37.3578 36.5625C44.3347 39.8332 41.4295 43.6379 35.5311 46.6194L24.3945 52.2486L49.1326 42.036L37.3798 36.5625H37.3578Z" fill="url(#paint10_radial_1501_14563)"/>
<g style="mix-blend-mode:screen">
<path fill-rule="evenodd" clip-rule="evenodd" d="M27.6528 17.4252L26.1342 12.2188C26.6844 14.8665 27.0145 15.8232 26.2442 16.958C25.4739 18.1149 23.5371 19.8282 22.0625 20.7849L27.6528 17.4252Z" fill="#8FFCFF"/>
</g>
<path fill-rule="evenodd" clip-rule="evenodd" d="M37.6669 25.5915L27.6528 17.4258L22.0625 20.7855C24.8576 19.2503 26.5523 18.694 27.6088 19.1168C28.6872 19.5173 30.0077 20.4518 32.1866 22.1205C34.4976 23.8782 35.51 25.6582 35.532 26.6149C35.532 27.7942 34.4536 30.1082 32.957 32.7336L37.6449 25.5692L37.6669 25.5915Z" fill="white"/>
<g style="mix-blend-mode:screen" opacity="0.5">
<path fill-rule="evenodd" clip-rule="evenodd" d="M37.6645 25.5703L32.9766 32.7347C35.1334 29.6198 36.8281 28.1735 38.0166 27.8843C39.6233 27.506 41.9342 28.04 46.4901 29.6643L37.6865 25.5703H37.6645Z" fill="#8FFCFF"/>
</g>
<path style="mix-blend-mode:screen" fill-rule="evenodd" clip-rule="evenodd" d="M31.4607 11.7972L25.9805 11.7305L27.1029 15.5797L27.6532 17.4487L37.6672 25.5921L42.5092 27.8393C39.472 25.1248 31.7688 14.1557 31.4607 11.7972Z" fill="url(#paint11_radial_1501_14563)"/>
</g>
<g style="mix-blend-mode:color-dodge">
<ellipse cx="37.772" cy="32.0016" rx="37.1587" ry="37.4625" fill="url(#paint12_radial_1501_14563)"/>
</g>
<g style="mix-blend-mode:color-dodge">
<ellipse cx="35.6086" cy="25.5658" rx="1.27652" ry="25.4174" fill="url(#paint13_radial_1501_14563)"/>
</g>
<g style="mix-blend-mode:color-dodge">
<ellipse cx="35.609" cy="25.5643" rx="1.28696" ry="25.2113" transform="rotate(90 35.609 25.5643)" fill="url(#paint14_radial_1501_14563)"/>
</g>
<g style="mix-blend-mode:color-dodge">
<ellipse cx="16.4613" cy="15.2699" rx="0.957391" ry="17.6957" fill="url(#paint15_radial_1501_14563)"/>
</g>
<g style="mix-blend-mode:color-dodge">
<ellipse cx="16.4595" cy="15.2699" rx="0.965218" ry="17.5522" transform="rotate(90 16.4595 15.2699)" fill="url(#paint16_radial_1501_14563)"/>
</g>
<g style="mix-blend-mode:color-dodge">
<ellipse cx="49.0121" cy="42.2939" rx="0.957391" ry="12.5478" fill="url(#paint17_radial_1501_14563)"/>
</g>
<g style="mix-blend-mode:color-dodge">
<ellipse cx="49.0109" cy="42.2972" rx="0.965218" ry="12.4461" transform="rotate(90 49.0109 42.2972)" fill="url(#paint18_radial_1501_14563)"/>
</g>
<g style="mix-blend-mode:color-dodge">
<ellipse cx="56.3492" cy="25.8865" rx="0.638261" ry="9.65217" fill="url(#paint19_radial_1501_14563)"/>
</g>
<g style="mix-blend-mode:color-dodge">
<ellipse cx="56.3519" cy="25.8857" rx="0.643479" ry="9.57391" transform="rotate(90 56.3519 25.8857)" fill="url(#paint20_radial_1501_14563)"/>
</g>
<g style="mix-blend-mode:color-dodge">
<ellipse cx="24.439" cy="52.2694" rx="0.638261" ry="9.65217" fill="url(#paint21_radial_1501_14563)"/>
</g>
<g style="mix-blend-mode:color-dodge">
<ellipse cx="24.4378" cy="52.2685" rx="0.643479" ry="9.57391" transform="rotate(90 24.4378 52.2685)" fill="url(#paint22_radial_1501_14563)"/>
</g>
<defs>
<radialGradient id="paint0_radial_1501_14563" cx="0" cy="0" r="1" gradientUnits="userSpaceOnUse" gradientTransform="translate(37.772 32.0016) rotate(90) scale(37.4625 37.1587)">
<stop stop-color="#4FA9CF"/>
<stop offset="1" stop-color="#083259" stop-opacity="0"/>
</radialGradient>
<radialGradient id="paint1_radial_1501_14563" cx="0" cy="0" r="1" gradientUnits="userSpaceOnUse" gradientTransform="translate(28.4015 17.8492) scale(39.9463 40.3834)">
<stop stop-color="#C4EEFF"/>
<stop offset="0.33" stop-color="#4CCAFF"/>
<stop offset="1" stop-color="#003EB0"/>
</radialGradient>
<radialGradient id="paint2_radial_1501_14563" cx="0" cy="0" r="1" gradientUnits="userSpaceOnUse" gradientTransform="translate(15.0402 9.88374) scale(15.1862 15.3524)">
<stop stop-color="#A5E2FF"/>
<stop offset="1" stop-color="#218CF3"/>
</radialGradient>
<radialGradient id="paint3_radial_1501_14563" cx="0" cy="0" r="1" gradientUnits="userSpaceOnUse" gradientTransform="translate(27.8261 18.8275) scale(43.9079 44.3883)">
<stop stop-color="#A5E2FF"/>
<stop offset="1" stop-color="#0088FF"/>
</radialGradient>
<radialGradient id="paint4_radial_1501_14563" cx="0" cy="0" r="1" gradientUnits="userSpaceOnUse" gradientTransform="translate(34.9354 54.2281) scale(30.5265 30.8605)">
<stop stop-color="#A5E2FF"/>
<stop offset="1" stop-color="#0069C2"/>
</radialGradient>
<radialGradient id="paint5_radial_1501_14563" cx="0" cy="0" r="1" gradientUnits="userSpaceOnUse" gradientTransform="translate(61.5004 24.9487) scale(22.1631 22.4056)">
<stop stop-color="#4CCAFF"/>
<stop offset="1" stop-color="#003EB0"/>
</radialGradient>
<radialGradient id="paint6_radial_1501_14563" cx="0" cy="0" r="1" gradientUnits="userSpaceOnUse" gradientTransform="translate(15.0609 40.4544) scale(19.3679 19.5798)">
<stop stop-color="#A5E2FF"/>
<stop offset="1" stop-color="#218CF3"/>
</radialGradient>
<radialGradient id="paint7_radial_1501_14563" cx="0" cy="0" r="1" gradientUnits="userSpaceOnUse" gradientTransform="translate(29.7193 58.7883) scale(35.6106 36.0002)">
<stop stop-color="#77D6FF"/>
<stop offset="1" stop-color="#001FB0"/>
</radialGradient>
<radialGradient id="paint8_radial_1501_14563" cx="0" cy="0" r="1" gradientUnits="userSpaceOnUse" gradientTransform="translate(24.9653 53.605) scale(32.3092 32.6627)">
<stop stop-color="#A5E2FF"/>
<stop offset="1" stop-color="#0081FF"/>
</radialGradient>
<radialGradient id="paint9_radial_1501_14563" cx="0" cy="0" r="1" gradientUnits="userSpaceOnUse" gradientTransform="translate(50.8939 32.3356) scale(18.8397 19.0458)">
<stop stop-color="#00000D"/>
<stop offset="1" stop-color="white"/>
</radialGradient>
<radialGradient id="paint10_radial_1501_14563" cx="0" cy="0" r="1" gradientUnits="userSpaceOnUse" gradientTransform="translate(31.8336 34.8493) scale(20.2703 20.4921)">
<stop offset="0.31" stop-color="#00000D"/>
<stop offset="1" stop-color="#1CB4FF"/>
</radialGradient>
<radialGradient id="paint11_radial_1501_14563" cx="0" cy="0" r="1" gradientUnits="userSpaceOnUse" gradientTransform="translate(50.1243 3.72054) scale(32.9035 33.2634)">
<stop offset="0.57" stop-color="#00000D"/>
<stop offset="0.6" stop-color="#030512"/>
<stop offset="0.63" stop-color="#0C1523"/>
<stop offset="0.68" stop-color="#1B2F3F"/>
<stop offset="0.72" stop-color="#305366"/>
<stop offset="0.77" stop-color="#4C8297"/>
<stop offset="0.82" stop-color="#6DBAD3"/>
<stop offset="0.86" stop-color="#85E3FF"/>
</radialGradient>
<radialGradient id="paint12_radial_1501_14563" cx="0" cy="0" r="1" gradientUnits="userSpaceOnUse" gradientTransform="translate(37.772 32.0016) rotate(90) scale(37.4625 37.1587)">
<stop stop-color="#007CB1"/>
<stop offset="1" stop-color="#400000" stop-opacity="0"/>
</radialGradient>
<radialGradient id="paint13_radial_1501_14563" cx="0" cy="0" r="1" gradientUnits="userSpaceOnUse" gradientTransform="translate(35.6086 25.5658) rotate(90) scale(25.4174 1.27652)">
<stop stop-color="#007CB1"/>
<stop offset="1" stop-color="#400000" stop-opacity="0"/>
</radialGradient>
<radialGradient id="paint14_radial_1501_14563" cx="0" cy="0" r="1" gradientUnits="userSpaceOnUse" gradientTransform="translate(35.609 25.5643) rotate(90) scale(25.2113 1.28696)">
<stop stop-color="#007CB1"/>
<stop offset="1" stop-color="#400000" stop-opacity="0"/>
</radialGradient>
<radialGradient id="paint15_radial_1501_14563" cx="0" cy="0" r="1" gradientUnits="userSpaceOnUse" gradientTransform="translate(16.4613 15.2699) rotate(90) scale(17.6957 0.957391)">
<stop stop-color="#007CB1"/>
<stop offset="1" stop-color="#400000" stop-opacity="0"/>
</radialGradient>
<radialGradient id="paint16_radial_1501_14563" cx="0" cy="0" r="1" gradientUnits="userSpaceOnUse" gradientTransform="translate(16.4595 15.2699) rotate(90) scale(17.5522 0.965218)">
<stop stop-color="#007CB1"/>
<stop offset="1" stop-color="#400000" stop-opacity="0"/>
</radialGradient>
<radialGradient id="paint17_radial_1501_14563" cx="0" cy="0" r="1" gradientUnits="userSpaceOnUse" gradientTransform="translate(49.0121 42.2939) rotate(90) scale(12.5478 0.957391)">
<stop stop-color="#007CB1"/>
<stop offset="1" stop-color="#400000" stop-opacity="0"/>
</radialGradient>
<radialGradient id="paint18_radial_1501_14563" cx="0" cy="0" r="1" gradientUnits="userSpaceOnUse" gradientTransform="translate(49.0109 42.2972) rotate(90) scale(12.4461 0.965218)">
<stop stop-color="#007CB1"/>
<stop offset="1" stop-color="#400000" stop-opacity="0"/>
</radialGradient>
<radialGradient id="paint19_radial_1501_14563" cx="0" cy="0" r="1" gradientUnits="userSpaceOnUse" gradientTransform="translate(56.3492 25.8865) rotate(90) scale(9.65217 0.638261)">
<stop stop-color="#007CB1"/>
<stop offset="1" stop-color="#400000" stop-opacity="0"/>
</radialGradient>
<radialGradient id="paint20_radial_1501_14563" cx="0" cy="0" r="1" gradientUnits="userSpaceOnUse" gradientTransform="translate(56.3519 25.8857) rotate(90) scale(9.57391 0.643479)">
<stop stop-color="#007CB1"/>
<stop offset="1" stop-color="#400000" stop-opacity="0"/>
</radialGradient>
<radialGradient id="paint21_radial_1501_14563" cx="0" cy="0" r="1" gradientUnits="userSpaceOnUse" gradientTransform="translate(24.439 52.2694) rotate(90) scale(9.65217 0.638261)">
<stop stop-color="#007CB1"/>
<stop offset="1" stop-color="#400000" stop-opacity="0"/>
</radialGradient>
<radialGradient id="paint22_radial_1501_14563" cx="0" cy="0" r="1" gradientUnits="userSpaceOnUse" gradientTransform="translate(24.4378 52.2685) rotate(90) scale(9.57391 0.643479)">
<stop stop-color="#007CB1"/>
<stop offset="1" stop-color="#400000" stop-opacity="0"/>
</radialGradient>
<clipPath id="clip0_1501_14563">
<rect width="43.4017" height="40.5391" fill="white" transform="translate(16.1406 11.7305)"/>
</clipPath>
</defs>
</svg>
