<svg width="183" height="66" viewBox="0 0 183 66" fill="none" xmlns="http://www.w3.org/2000/svg">
<g clip-path="url(#clip0_1514_49640)">
<path opacity="0.05" d="M221.524 53.0901C212.46 95.0738 192.784 88.3995 184.08 79.8144C164.184 37.1373 164.739 59.2656 79.8368 47.9611C-5.06582 36.6565 98.6323 -3.28317 85.0313 -40.8998C71.4302 -78.5165 124.244 -123.026 205.466 -56.9038C286.689 9.21818 232.855 0.610388 221.524 53.0901Z" fill="#2283F6"/>
<path opacity="0.05" d="M202.68 36.4331C196.15 66.6764 181.977 61.8685 175.707 55.6841C161.375 24.9414 161.775 40.8817 100.614 32.7384C39.4541 24.595 114.154 -4.1758 104.356 -31.2732C94.5586 -58.3707 132.603 -90.4333 191.113 -42.8018C249.622 4.82966 210.842 -1.37104 202.68 36.4331Z" fill="#2283F6"/>
</g>
<defs>
<clipPath id="clip0_1514_49640">
<rect width="183" height="66" rx="10" fill="white"/>
</clipPath>
</defs>
</svg>
