<svg width="183" height="66" viewBox="0 0 183 66" fill="none" xmlns="http://www.w3.org/2000/svg">
<g clip-path="url(#clip0_1514_49684)">
<path opacity="0.05" d="M-49.2429 20.7303C-40.1783 -21.2535 -20.5032 -14.5792 -11.7988 -5.99405C8.09695 36.6831 7.54183 14.5547 92.4445 25.8593C177.347 37.1638 73.649 77.1035 87.25 114.72C100.851 152.337 48.0376 196.846 -33.1852 130.724C-114.408 64.6021 -60.5735 73.2099 -49.2429 20.7303Z" fill="#2283F6"/>
<path opacity="0.05" d="M-30.3986 37.3872C-23.8689 7.14392 -9.69583 11.9518 -3.42549 18.1362C10.9065 48.879 10.5066 32.9386 71.6669 41.082C132.827 49.2253 58.1274 77.9961 67.925 105.094C77.7226 132.191 39.6781 164.254 -18.8314 116.622C-77.3408 68.9907 -38.5608 75.1913 -30.3986 37.3872Z" fill="#2283F6"/>
</g>
<defs>
<clipPath id="clip0_1514_49684">
<rect width="183" height="66" rx="10" fill="white"/>
</clipPath>
</defs>
</svg>
