<svg width="183" height="66" viewBox="0 0 183 66" fill="none" xmlns="http://www.w3.org/2000/svg">
<g clip-path="url(#clip0_1514_49603)">
<path opacity="0.05" d="M222.024 53.0901C212.96 95.0738 193.284 88.3995 184.58 79.8144C164.684 37.1373 165.239 59.2656 80.3368 47.961C-4.56582 36.6565 99.1323 -3.28317 85.5312 -40.8998C71.9302 -78.5165 124.744 -123.026 205.966 -56.9038C287.189 9.21819 233.355 0.610387 222.024 53.0901Z" fill="#FA305C"/>
<path opacity="0.05" d="M203.18 36.4331C196.65 66.6764 182.477 61.8685 176.207 55.6841C161.875 24.9414 162.275 40.8817 101.114 32.7384C39.9541 24.595 114.654 -4.1758 104.856 -31.2732C95.0586 -58.3707 133.103 -90.4333 191.613 -42.8018C250.122 4.82966 211.342 -1.37104 203.18 36.4331Z" fill="#FA305C"/>
</g>
<defs>
<clipPath id="clip0_1514_49603">
<rect width="183" height="66" rx="10" fill="white"/>
</clipPath>
</defs>
</svg>
