<svg width="183" height="66" viewBox="0 0 183 66" fill="none" xmlns="http://www.w3.org/2000/svg">
<g clip-path="url(#clip0_1514_49691)">
<path opacity="0.05" d="M-48.7429 20.7303C-39.6783 -21.2535 -20.0032 -14.5792 -11.2988 -5.99405C8.59695 36.6831 8.04183 14.5547 92.9445 25.8593C177.847 37.1638 74.149 77.1035 87.75 114.72C101.351 152.337 48.5376 196.846 -32.6852 130.724C-113.908 64.6021 -60.0735 73.2099 -48.7429 20.7303Z" fill="#FA305C"/>
<path opacity="0.05" d="M-29.8986 37.3872C-23.3689 7.14392 -9.19583 11.9518 -2.92549 18.1362C11.4065 48.879 11.0066 32.9386 72.1669 41.082C133.327 49.2253 58.6274 77.9961 68.425 105.094C78.2226 132.191 40.1781 164.254 -18.3314 116.622C-76.8408 68.9907 -38.0608 75.1913 -29.8986 37.3872Z" fill="#FA305C"/>
</g>
<defs>
<clipPath id="clip0_1514_49691">
<rect width="183" height="66" rx="10" fill="white"/>
</clipPath>
</defs>
</svg>
