<svg width="460" height="324" viewBox="0 0 460 324" fill="none" xmlns="http://www.w3.org/2000/svg">
<rect width="460" height="324" rx="10" fill="#F4F7FD"/>
<g clip-path="url(#clip0_1889_20794)">
<rect x="23.5" y="20.5" width="412" height="79" rx="9.5" fill="white"/>
<rect x="31" y="28" width="50" height="28" rx="10" fill="#F1F1F1"/>
<path d="M43.5939 47.65C42.6539 47.65 41.9239 47.425 41.4039 46.975C40.8939 46.515 40.6389 45.83 40.6389 44.92V44.005C40.6389 43.505 40.7089 43.11 40.8489 42.82C40.9889 42.53 41.1389 42.28 41.2989 42.07C41.4689 41.84 41.6139 41.64 41.7339 41.47C41.8639 41.3 41.9289 41.095 41.9289 40.855C41.9289 40.645 41.8739 40.495 41.7639 40.405C41.6639 40.315 41.5339 40.27 41.3739 40.27C41.2539 40.27 41.1239 40.29 40.9839 40.33C40.8539 40.37 40.7239 40.42 40.5939 40.48L40.2939 39.52C40.4739 39.4 40.6939 39.315 40.9539 39.265C41.2239 39.215 41.4589 39.19 41.6589 39.19C42.0289 39.19 42.3239 39.255 42.5439 39.385C42.7739 39.515 42.9389 39.695 43.0389 39.925C43.1389 40.145 43.1889 40.405 43.1889 40.705C43.1889 41.075 43.1239 41.38 42.9939 41.62C42.8739 41.86 42.7289 42.095 42.5589 42.325C42.3889 42.575 42.2489 42.815 42.1389 43.045C42.0289 43.275 41.9739 43.575 41.9739 43.945V44.83C41.9739 45.29 42.0489 45.645 42.1989 45.895C42.3489 46.145 42.5489 46.32 42.7989 46.42C43.0489 46.51 43.3139 46.555 43.5939 46.555C44.0939 46.555 44.4739 46.44 44.7339 46.21C45.0039 45.97 45.1389 45.605 45.1389 45.115V39.28H46.4739V45.19C46.4739 45.96 46.2289 46.565 45.7389 47.005C45.2589 47.435 44.5439 47.65 43.5939 47.65ZM44.5496 37.975C44.1296 37.975 43.7946 37.915 43.5446 37.795C43.2946 37.675 43.1146 37.52 43.0046 37.33C42.8846 37.14 42.8246 36.94 42.8246 36.73C42.8246 36.58 42.8496 36.42 42.8996 36.25C42.9396 36.07 42.9946 35.925 43.0646 35.815L44.1896 36.01C44.1696 36.05 44.1496 36.12 44.1296 36.22C44.1096 36.31 44.0996 36.395 44.0996 36.475C44.0996 36.605 44.1396 36.72 44.2196 36.82C44.2996 36.91 44.4346 36.955 44.6246 36.955H48.4196V37.975H44.5496ZM44.3737 35.81V35.285C44.5037 35.255 44.6437 35.21 44.7937 35.15C44.9437 35.09 45.0737 35.015 45.1837 34.925C45.2937 34.825 45.3487 34.7 45.3487 34.55C45.3487 34.44 45.3187 34.355 45.2587 34.295C45.1987 34.235 45.1137 34.205 45.0037 34.205C44.9237 34.205 44.8437 34.22 44.7637 34.25C44.6737 34.27 44.5887 34.305 44.5087 34.355L44.2387 33.665C44.4187 33.545 44.6237 33.465 44.8537 33.425C45.0737 33.385 45.2487 33.365 45.3787 33.365C45.6387 33.365 45.8737 33.435 46.0837 33.575C46.2937 33.705 46.3987 33.93 46.3987 34.25C46.3987 34.38 46.3737 34.53 46.3237 34.7C46.2637 34.86 46.1437 34.99 45.9637 35.09L45.8737 34.805H48.1537V35.81H44.3737ZM51.737 47.65C51.147 47.65 50.637 47.55 50.207 47.35C49.787 47.14 49.462 46.825 49.232 46.405C49.012 45.985 48.902 45.44 48.902 44.77V39.28H50.237V44.695C50.237 45.295 50.387 45.75 50.687 46.06C50.997 46.37 51.442 46.525 52.022 46.525C52.722 46.525 53.262 46.3 53.642 45.85C54.032 45.4 54.227 44.795 54.227 44.035V39.28H55.562V47.5H54.452L54.392 46.285H54.317C54.137 46.685 53.822 47.015 53.372 47.275C52.932 47.525 52.387 47.65 51.737 47.65ZM61.0112 47.65C60.1712 47.65 59.5212 47.46 59.0612 47.08C58.6012 46.69 58.2812 46.165 58.1012 45.505C57.9212 44.835 57.8312 44.075 57.8312 43.225C57.8312 42.245 57.9212 41.455 58.1012 40.855C58.2912 40.255 58.5662 39.82 58.9262 39.55C59.2862 39.27 59.7262 39.13 60.2462 39.13C60.5962 39.13 60.8912 39.19 61.1312 39.31C61.3812 39.43 61.5562 39.63 61.6562 39.91H61.7162C61.8162 39.62 61.9962 39.42 62.2562 39.31C62.5162 39.19 62.8212 39.13 63.1712 39.13C63.8212 39.13 64.3212 39.305 64.6712 39.655C65.0312 39.995 65.2112 40.52 65.2112 41.23V47.5H63.8762V41.245C63.8762 40.855 63.7912 40.59 63.6212 40.45C63.4512 40.31 63.2362 40.24 62.9762 40.24C62.6862 40.24 62.4712 40.31 62.3312 40.45C62.2012 40.59 62.1212 40.82 62.0912 41.14H61.2512C61.2112 40.79 61.1062 40.555 60.9362 40.435C60.7662 40.305 60.5762 40.24 60.3662 40.24C59.9662 40.24 59.6662 40.475 59.4662 40.945C59.2662 41.405 59.1662 42.17 59.1662 43.24C59.1662 43.93 59.2162 44.52 59.3162 45.01C59.4262 45.5 59.6262 45.88 59.9162 46.15C60.2062 46.41 60.6262 46.54 61.1762 46.54C61.3762 46.54 61.5412 46.53 61.6712 46.51C61.8012 46.49 61.9262 46.465 62.0462 46.435L62.1812 47.455C62.0312 47.525 61.8512 47.575 61.6412 47.605C61.4312 47.635 61.2212 47.65 61.0112 47.65ZM63.9638 38.335C63.4638 38.335 63.0688 38.22 62.7788 37.99C62.4888 37.75 62.3438 37.415 62.3438 36.985C62.3438 36.545 62.4888 36.21 62.7788 35.98C63.0688 35.75 63.4638 35.635 63.9638 35.635C64.4638 35.635 64.8638 35.75 65.1638 35.98C65.4638 36.21 65.6138 36.545 65.6138 36.985C65.6138 37.415 65.4638 37.75 65.1638 37.99C64.8638 38.22 64.4638 38.335 63.9638 38.335ZM63.9638 37.63C64.2038 37.63 64.3888 37.57 64.5188 37.45C64.6388 37.33 64.6988 37.175 64.6988 36.985C64.6988 36.785 64.6388 36.63 64.5188 36.52C64.3888 36.4 64.2038 36.34 63.9638 36.34C63.7338 36.34 63.5588 36.4 63.4388 36.52C63.3088 36.63 63.2438 36.785 63.2438 36.985C63.2438 37.175 63.3088 37.33 63.4388 37.45C63.5588 37.57 63.7338 37.63 63.9638 37.63ZM63.3293 34.81V32.365H64.6043V34.81H63.3293ZM69.9624 47.5V41.665C69.9624 41.175 69.8474 40.815 69.6174 40.585C69.3974 40.355 69.0224 40.24 68.4924 40.24C68.1324 40.24 67.7924 40.29 67.4724 40.39C67.1624 40.48 66.8624 40.61 66.5724 40.78V39.58C66.7724 39.48 67.0574 39.38 67.4274 39.28C67.7974 39.18 68.2374 39.13 68.7474 39.13C69.2674 39.13 69.7174 39.205 70.0974 39.355C70.4774 39.505 70.7724 39.755 70.9824 40.105C71.1924 40.445 71.2974 40.9 71.2974 41.47V47.5H69.9624Z" fill="#A6A6A6"/>
<rect x="31" y="64" width="50" height="28" rx="10" fill="#F1F1F1"/>
<path d="M42.4733 83.65C41.5333 83.65 40.8033 83.425 40.2833 82.975C39.7733 82.515 39.5183 81.83 39.5183 80.92V80.005C39.5183 79.505 39.5883 79.11 39.7283 78.82C39.8683 78.53 40.0183 78.28 40.1783 78.07C40.3483 77.84 40.4933 77.64 40.6133 77.47C40.7433 77.3 40.8083 77.095 40.8083 76.855C40.8083 76.645 40.7533 76.495 40.6433 76.405C40.5433 76.315 40.4133 76.27 40.2533 76.27C40.1333 76.27 40.0033 76.29 39.8633 76.33C39.7333 76.37 39.6033 76.42 39.4733 76.48L39.1733 75.52C39.3533 75.4 39.5733 75.315 39.8333 75.265C40.1033 75.215 40.3383 75.19 40.5383 75.19C40.9083 75.19 41.2033 75.255 41.4233 75.385C41.6533 75.515 41.8183 75.695 41.9183 75.925C42.0183 76.145 42.0683 76.405 42.0683 76.705C42.0683 77.075 42.0033 77.38 41.8733 77.62C41.7533 77.86 41.6083 78.095 41.4383 78.325C41.2683 78.575 41.1283 78.815 41.0183 79.045C40.9083 79.275 40.8533 79.575 40.8533 79.945V80.83C40.8533 81.29 40.9283 81.645 41.0783 81.895C41.2283 82.145 41.4283 82.32 41.6783 82.42C41.9283 82.51 42.1933 82.555 42.4733 82.555C42.9733 82.555 43.3533 82.44 43.6133 82.21C43.8833 81.97 44.0183 81.605 44.0183 81.115V75.28H45.3533V81.19C45.3533 81.96 45.1083 82.565 44.6183 83.005C44.1383 83.435 43.4233 83.65 42.4733 83.65ZM38.9589 73.975V73.39L40.0539 72.91H45.3339V73.975H38.9589ZM44.0889 73.39V71.695H45.3489V73.39H44.0889ZM50.5864 83.65C49.7864 83.65 49.1564 83.465 48.6964 83.095C48.2464 82.715 47.9264 82.205 47.7364 81.565C47.5564 80.925 47.4664 80.22 47.4664 79.45C47.4664 78.6 47.5514 77.9 47.7214 77.35C47.9014 76.79 48.1514 76.35 48.4714 76.03C48.8014 75.7 49.1914 75.47 49.6414 75.34C50.1014 75.2 50.6064 75.13 51.1564 75.13C51.9564 75.13 52.6064 75.25 53.1064 75.49C53.6164 75.72 53.9914 76.05 54.2314 76.48C54.4714 76.91 54.5914 77.425 54.5914 78.025V83.5H53.2714V78.145C53.2714 77.525 53.1164 77.055 52.8064 76.735C52.4964 76.405 51.9614 76.24 51.2014 76.24C50.7414 76.24 50.3264 76.325 49.9564 76.495C49.5964 76.665 49.3114 76.98 49.1014 77.44C48.9014 77.9 48.8014 78.575 48.8014 79.465C48.8014 80.045 48.8564 80.57 48.9664 81.04C49.0864 81.5 49.2914 81.865 49.5814 82.135C49.8714 82.405 50.2764 82.54 50.7964 82.54C50.9464 82.54 51.0864 82.53 51.2164 82.51C51.3464 82.49 51.4714 82.46 51.5914 82.42L51.7264 83.455C51.5664 83.525 51.3814 83.575 51.1714 83.605C50.9714 83.635 50.7764 83.65 50.5864 83.65ZM61.8396 83.5V78.025C61.8396 77.375 61.6896 76.915 61.3896 76.645C61.0996 76.365 60.6096 76.225 59.9196 76.225C59.4196 76.225 58.9396 76.295 58.4796 76.435C58.0296 76.565 57.5996 76.75 57.1896 76.99V75.745C57.4796 75.595 57.8696 75.455 58.3596 75.325C58.8596 75.195 59.4196 75.13 60.0396 75.13C60.5696 75.13 61.0196 75.19 61.3896 75.31C61.7696 75.43 62.0496 75.65 62.2296 75.97C62.5796 76.13 62.8196 76.38 62.9496 76.72C63.0896 77.06 63.1596 77.47 63.1596 77.95V83.5H61.8396ZM59.2596 83.65C58.3796 83.65 57.7046 83.45 57.2346 83.05C56.7746 82.64 56.5446 82.055 56.5446 81.295C56.5446 80.465 56.8446 79.825 57.4446 79.375C58.0546 78.925 59.0396 78.66 60.3996 78.58L62.1096 78.475V79.585L60.5796 79.69C59.5596 79.76 58.8546 79.92 58.4646 80.17C58.0846 80.42 57.8946 80.785 57.8946 81.265C57.8946 81.715 58.0346 82.045 58.3146 82.255C58.6046 82.465 59.0046 82.57 59.5146 82.57C59.6846 82.57 59.8396 82.56 59.9796 82.54C60.1196 82.51 60.2546 82.475 60.3846 82.435L60.5946 83.44C60.4046 83.51 60.1946 83.56 59.9646 83.59C59.7446 83.63 59.5096 83.65 59.2596 83.65ZM62.1846 76.435L61.4346 75.73C61.6946 75.69 61.9396 75.59 62.1696 75.43C62.3996 75.27 62.5146 75.04 62.5146 74.74H63.8196C63.8196 75.05 63.7446 75.325 63.5946 75.565C63.4546 75.795 63.2596 75.985 63.0096 76.135C62.7596 76.275 62.4846 76.375 62.1846 76.435ZM61.9611 87.415V85.825C61.9611 85.575 61.8511 85.45 61.6311 85.45C61.5811 85.45 61.5311 85.455 61.4811 85.465C61.4211 85.475 61.3661 85.49 61.3161 85.51L61.2111 84.61C61.3611 84.56 61.5261 84.52 61.7061 84.49C61.8761 84.47 62.0161 84.46 62.1261 84.46C62.4761 84.46 62.7361 84.54 62.9061 84.7C63.0661 84.87 63.1461 85.1 63.1461 85.39V87.415H61.9611ZM68.4136 83.65C67.6136 83.65 66.9836 83.465 66.5236 83.095C66.0736 82.715 65.7536 82.205 65.5636 81.565C65.3836 80.925 65.2936 80.22 65.2936 79.45C65.2936 78.6 65.3786 77.9 65.5486 77.35C65.7286 76.79 65.9786 76.35 66.2986 76.03C66.6286 75.7 67.0186 75.47 67.4686 75.34C67.9286 75.2 68.4336 75.13 68.9836 75.13C69.7836 75.13 70.4336 75.25 70.9336 75.49C71.4436 75.72 71.8186 76.05 72.0586 76.48C72.2986 76.91 72.4186 77.425 72.4186 78.025V83.5H71.0986V78.145C71.0986 77.525 70.9436 77.055 70.6336 76.735C70.3236 76.405 69.7886 76.24 69.0286 76.24C68.5686 76.24 68.1536 76.325 67.7836 76.495C67.4236 76.665 67.1386 76.98 66.9286 77.44C66.7286 77.9 66.6286 78.575 66.6286 79.465C66.6286 80.045 66.6836 80.57 66.7936 81.04C66.9136 81.5 67.1186 81.865 67.4086 82.135C67.6986 82.405 68.1036 82.54 68.6236 82.54C68.7736 82.54 68.9136 82.53 69.0436 82.51C69.1736 82.49 69.2986 82.46 69.4186 82.42L69.5536 83.455C69.3936 83.525 69.2086 83.575 68.9986 83.605C68.7986 83.635 68.6036 83.65 68.4136 83.65Z" fill="#A6A6A6"/>
<g clip-path="url(#clip1_1889_20794)">
<g clip-path="url(#clip2_1889_20794)">
<path d="M181.638 62.4029C180.036 68.8315 173.524 72.7438 167.095 71.1407C160.668 69.538 156.756 63.0265 158.359 56.5984C159.961 50.169 166.473 46.2564 172.9 47.8591C179.329 49.4618 183.241 55.974 181.638 62.403L181.638 62.4029H181.638Z" fill="#F7931A"/>
<path d="M175.291 57.7894C175.53 56.1924 174.314 55.334 172.652 54.7614L173.191 52.5982L171.874 52.27L171.349 54.3763C171.003 54.2899 170.647 54.2086 170.294 54.1279L170.823 52.0078L169.507 51.6797L168.967 53.8422C168.681 53.777 168.399 53.7125 168.126 53.6446L168.128 53.6378L166.312 53.1843L165.962 54.5907C165.962 54.5907 166.939 54.8147 166.918 54.8285C167.451 54.9615 167.548 55.3145 167.532 55.5943L166.917 58.0587C166.954 58.068 167.002 58.0815 167.054 58.1026C167.01 58.0917 166.964 58.0798 166.915 58.0682L166.054 61.5205C165.989 61.6825 165.823 61.9256 165.451 61.8333C165.464 61.8524 164.494 61.5944 164.494 61.5944L163.84 63.1017L165.553 63.5289C165.872 63.6089 166.185 63.6925 166.492 63.7712L165.947 65.9592L167.263 66.2873L167.802 64.1225C168.162 64.22 168.51 64.31 168.852 64.3948L168.314 66.5494L169.631 66.8775L170.176 64.6936C172.421 65.1186 174.109 64.9472 174.82 62.9163C175.393 61.2811 174.792 60.3379 173.61 59.7229C174.471 59.5244 175.119 58.9585 175.292 57.7895L175.291 57.7892L175.291 57.7894ZM172.282 62.0082C171.876 63.6433 169.122 62.7594 168.23 62.5378L168.953 59.639C169.845 59.8619 172.708 60.3028 172.283 62.0082H172.282ZM172.69 57.7657C172.318 59.253 170.027 58.4974 169.284 58.3121L169.939 55.6831C170.683 55.8684 173.076 56.2142 172.69 57.7657H172.69Z" fill="white"/>
</g>
<path d="M187.215 61.0049C187.215 58.5557 187.654 56.8418 188.533 55.8633C189.418 54.8848 190.763 54.3955 192.567 54.3955C193.435 54.3955 194.146 54.5039 194.703 54.7207C195.26 54.9316 195.714 55.21 196.065 55.5557C196.417 55.8955 196.692 56.2559 196.892 56.6367C197.097 57.0117 197.261 57.4512 197.384 57.9551C197.624 58.916 197.744 59.918 197.744 60.9609C197.744 63.2988 197.349 65.0098 196.558 66.0938C195.767 67.1777 194.404 67.7197 192.471 67.7197C191.387 67.7197 190.511 67.5469 189.843 67.2012C189.175 66.8555 188.627 66.3486 188.199 65.6807C187.889 65.2061 187.646 64.5586 187.47 63.7383C187.3 62.9121 187.215 62.001 187.215 61.0049ZM190.766 61.0137C190.766 62.6543 190.909 63.7764 191.196 64.3799C191.489 64.9775 191.911 65.2764 192.462 65.2764C192.825 65.2764 193.139 65.1504 193.402 64.8984C193.672 64.6406 193.868 64.2363 193.991 63.6855C194.12 63.1348 194.185 62.2764 194.185 61.1104C194.185 59.3994 194.038 58.251 193.745 57.665C193.458 57.0732 193.024 56.7773 192.444 56.7773C191.853 56.7773 191.425 57.0791 191.161 57.6826C190.897 58.2803 190.766 59.3906 190.766 61.0137ZM199.572 63.9141H203.396V67.5H199.572V63.9141ZM205.215 61.0049C205.215 58.5557 205.654 56.8418 206.533 55.8633C207.418 54.8848 208.763 54.3955 210.567 54.3955C211.435 54.3955 212.146 54.5039 212.703 54.7207C213.26 54.9316 213.714 55.21 214.065 55.5557C214.417 55.8955 214.692 56.2559 214.892 56.6367C215.097 57.0117 215.261 57.4512 215.384 57.9551C215.624 58.916 215.744 59.918 215.744 60.9609C215.744 63.2988 215.349 65.0098 214.558 66.0938C213.767 67.1777 212.404 67.7197 210.471 67.7197C209.387 67.7197 208.511 67.5469 207.843 67.2012C207.175 66.8555 206.627 66.3486 206.199 65.6807C205.889 65.2061 205.646 64.5586 205.47 63.7383C205.3 62.9121 205.215 62.001 205.215 61.0049ZM208.766 61.0137C208.766 62.6543 208.909 63.7764 209.196 64.3799C209.489 64.9775 209.911 65.2764 210.462 65.2764C210.825 65.2764 211.139 65.1504 211.402 64.8984C211.672 64.6406 211.868 64.2363 211.991 63.6855C212.12 63.1348 212.185 62.2764 212.185 61.1104C212.185 59.3994 212.038 58.251 211.745 57.665C211.458 57.0732 211.024 56.7773 210.444 56.7773C209.853 56.7773 209.425 57.0791 209.161 57.6826C208.897 58.2803 208.766 59.3906 208.766 61.0137ZM217.221 61.0049C217.221 58.5557 217.66 56.8418 218.539 55.8633C219.424 54.8848 220.769 54.3955 222.573 54.3955C223.44 54.3955 224.152 54.5039 224.709 54.7207C225.266 54.9316 225.72 55.21 226.071 55.5557C226.423 55.8955 226.698 56.2559 226.897 56.6367C227.103 57.0117 227.267 57.4512 227.39 57.9551C227.63 58.916 227.75 59.918 227.75 60.9609C227.75 63.2988 227.354 65.0098 226.563 66.0938C225.772 67.1777 224.41 67.7197 222.477 67.7197C221.393 67.7197 220.517 67.5469 219.849 67.2012C219.181 66.8555 218.633 66.3486 218.205 65.6807C217.895 65.2061 217.651 64.5586 217.476 63.7383C217.306 62.9121 217.221 62.001 217.221 61.0049ZM220.771 61.0137C220.771 62.6543 220.915 63.7764 221.202 64.3799C221.495 64.9775 221.917 65.2764 222.468 65.2764C222.831 65.2764 223.145 65.1504 223.408 64.8984C223.678 64.6406 223.874 64.2363 223.997 63.6855C224.126 63.1348 224.19 62.2764 224.19 61.1104C224.19 59.3994 224.044 58.251 223.751 57.665C223.464 57.0732 223.03 56.7773 222.45 56.7773C221.858 56.7773 221.431 57.0791 221.167 57.6826C220.903 58.2803 220.771 59.3906 220.771 61.0137ZM229.227 61.0049C229.227 58.5557 229.666 56.8418 230.545 55.8633C231.43 54.8848 232.774 54.3955 234.579 54.3955C235.446 54.3955 236.158 54.5039 236.715 54.7207C237.271 54.9316 237.726 55.21 238.077 55.5557C238.429 55.8955 238.704 56.2559 238.903 56.6367C239.108 57.0117 239.272 57.4512 239.396 57.9551C239.636 58.916 239.756 59.918 239.756 60.9609C239.756 63.2988 239.36 65.0098 238.569 66.0938C237.778 67.1777 236.416 67.7197 234.482 67.7197C233.398 67.7197 232.522 67.5469 231.854 67.2012C231.187 66.8555 230.639 66.3486 230.211 65.6807C229.9 65.2061 229.657 64.5586 229.481 63.7383C229.312 62.9121 229.227 62.001 229.227 61.0049ZM232.777 61.0137C232.777 62.6543 232.921 63.7764 233.208 64.3799C233.501 64.9775 233.923 65.2764 234.474 65.2764C234.837 65.2764 235.15 65.1504 235.414 64.8984C235.684 64.6406 235.88 64.2363 236.003 63.6855C236.132 63.1348 236.196 62.2764 236.196 61.1104C236.196 59.3994 236.05 58.251 235.757 57.665C235.47 57.0732 235.036 56.7773 234.456 56.7773C233.864 56.7773 233.437 57.0791 233.173 57.6826C232.909 58.2803 232.777 59.3906 232.777 61.0137ZM241.232 61.0049C241.232 58.5557 241.672 56.8418 242.551 55.8633C243.436 54.8848 244.78 54.3955 246.585 54.3955C247.452 54.3955 248.164 54.5039 248.721 54.7207C249.277 54.9316 249.731 55.21 250.083 55.5557C250.435 55.8955 250.71 56.2559 250.909 56.6367C251.114 57.0117 251.278 57.4512 251.401 57.9551C251.642 58.916 251.762 59.918 251.762 60.9609C251.762 63.2988 251.366 65.0098 250.575 66.0938C249.784 67.1777 248.422 67.7197 246.488 67.7197C245.404 67.7197 244.528 67.5469 243.86 67.2012C243.192 66.8555 242.645 66.3486 242.217 65.6807C241.906 65.2061 241.663 64.5586 241.487 63.7383C241.317 62.9121 241.232 62.001 241.232 61.0049ZM244.783 61.0137C244.783 62.6543 244.927 63.7764 245.214 64.3799C245.507 64.9775 245.929 65.2764 246.479 65.2764C246.843 65.2764 247.156 65.1504 247.42 64.8984C247.689 64.6406 247.886 64.2363 248.009 63.6855C248.138 63.1348 248.202 62.2764 248.202 61.1104C248.202 59.3994 248.056 58.251 247.763 57.665C247.476 57.0732 247.042 56.7773 246.462 56.7773C245.87 56.7773 245.442 57.0791 245.179 57.6826C244.915 58.2803 244.783 59.3906 244.783 61.0137ZM261.351 54.3955V67.5H257.729V58.9131C257.144 59.3584 256.575 59.7188 256.024 59.9941C255.479 60.2695 254.794 60.5332 253.968 60.7852V57.8496C255.187 57.457 256.133 56.9854 256.807 56.4346C257.48 55.8838 258.008 55.2041 258.389 54.3955H261.351ZM265.244 61.0049C265.244 58.5557 265.684 56.8418 266.562 55.8633C267.447 54.8848 268.792 54.3955 270.597 54.3955C271.464 54.3955 272.176 54.5039 272.732 54.7207C273.289 54.9316 273.743 55.21 274.095 55.5557C274.446 55.8955 274.722 56.2559 274.921 56.6367C275.126 57.0117 275.29 57.4512 275.413 57.9551C275.653 58.916 275.773 59.918 275.773 60.9609C275.773 63.2988 275.378 65.0098 274.587 66.0938C273.796 67.1777 272.434 67.7197 270.5 67.7197C269.416 67.7197 268.54 67.5469 267.872 67.2012C267.204 66.8555 266.656 66.3486 266.229 65.6807C265.918 65.2061 265.675 64.5586 265.499 63.7383C265.329 62.9121 265.244 62.001 265.244 61.0049ZM268.795 61.0137C268.795 62.6543 268.938 63.7764 269.226 64.3799C269.519 64.9775 269.94 65.2764 270.491 65.2764C270.854 65.2764 271.168 65.1504 271.432 64.8984C271.701 64.6406 271.897 64.2363 272.021 63.6855C272.149 63.1348 272.214 62.2764 272.214 61.1104C272.214 59.3994 272.067 58.251 271.774 57.665C271.487 57.0732 271.054 56.7773 270.474 56.7773C269.882 56.7773 269.454 57.0791 269.19 57.6826C268.927 58.2803 268.795 59.3906 268.795 61.0137ZM277.25 61.0049C277.25 58.5557 277.689 56.8418 278.568 55.8633C279.453 54.8848 280.798 54.3955 282.603 54.3955C283.47 54.3955 284.182 54.5039 284.738 54.7207C285.295 54.9316 285.749 55.21 286.101 55.5557C286.452 55.8955 286.728 56.2559 286.927 56.6367C287.132 57.0117 287.296 57.4512 287.419 57.9551C287.659 58.916 287.779 59.918 287.779 60.9609C287.779 63.2988 287.384 65.0098 286.593 66.0938C285.802 67.1777 284.439 67.7197 282.506 67.7197C281.422 67.7197 280.546 67.5469 279.878 67.2012C279.21 66.8555 278.662 66.3486 278.234 65.6807C277.924 65.2061 277.681 64.5586 277.505 63.7383C277.335 62.9121 277.25 62.001 277.25 61.0049ZM280.801 61.0137C280.801 62.6543 280.944 63.7764 281.231 64.3799C281.524 64.9775 281.946 65.2764 282.497 65.2764C282.86 65.2764 283.174 65.1504 283.438 64.8984C283.707 64.6406 283.903 64.2363 284.026 63.6855C284.155 63.1348 284.22 62.2764 284.22 61.1104C284.22 59.3994 284.073 58.251 283.78 57.665C283.493 57.0732 283.06 56.7773 282.479 56.7773C281.888 56.7773 281.46 57.0791 281.196 57.6826C280.933 58.2803 280.801 59.3906 280.801 61.0137ZM289.256 61.0049C289.256 58.5557 289.695 56.8418 290.574 55.8633C291.459 54.8848 292.804 54.3955 294.608 54.3955C295.476 54.3955 296.188 54.5039 296.744 54.7207C297.301 54.9316 297.755 55.21 298.106 55.5557C298.458 55.8955 298.733 56.2559 298.933 56.6367C299.138 57.0117 299.302 57.4512 299.425 57.9551C299.665 58.916 299.785 59.918 299.785 60.9609C299.785 63.2988 299.39 65.0098 298.599 66.0938C297.808 67.1777 296.445 67.7197 294.512 67.7197C293.428 67.7197 292.552 67.5469 291.884 67.2012C291.216 66.8555 290.668 66.3486 290.24 65.6807C289.93 65.2061 289.687 64.5586 289.511 63.7383C289.341 62.9121 289.256 62.001 289.256 61.0049ZM292.807 61.0137C292.807 62.6543 292.95 63.7764 293.237 64.3799C293.53 64.9775 293.952 65.2764 294.503 65.2764C294.866 65.2764 295.18 65.1504 295.443 64.8984C295.713 64.6406 295.909 64.2363 296.032 63.6855C296.161 63.1348 296.226 62.2764 296.226 61.1104C296.226 59.3994 296.079 58.251 295.786 57.665C295.499 57.0732 295.065 56.7773 294.485 56.7773C293.894 56.7773 293.466 57.0791 293.202 57.6826C292.938 58.2803 292.807 59.3906 292.807 61.0137Z" fill="#484848"/>
</g>
<rect x="378" y="28" width="50" height="28" rx="10" fill="#F1F1F1"/>
<path d="M395.171 36.79C394.811 37.18 394.361 37.525 393.821 37.855C393.281 38.155 392.786 38.365 392.306 38.485V40.105C393.296 39.82 394.121 39.37 394.766 38.755V47.5H396.401V36.79H395.171ZM403.499 35.2L398.249 49H399.644L404.879 35.2H403.499ZM409.979 36.58C408.839 36.58 407.909 36.955 407.219 37.735C406.544 38.455 406.199 39.415 406.184 40.615H407.819C407.849 39.745 408.029 39.1 408.389 38.65C408.734 38.185 409.244 37.96 409.919 37.96C410.549 37.96 411.044 38.11 411.374 38.41C411.704 38.71 411.869 39.16 411.869 39.76C411.869 40.39 411.614 40.975 411.134 41.515C410.834 41.83 410.324 42.235 409.604 42.745C408.389 43.585 407.579 44.23 407.189 44.695C406.469 45.505 406.124 46.435 406.124 47.5H413.504V46.06H408.149C408.374 45.475 409.064 44.8 410.219 44.035C411.284 43.315 412.019 42.745 412.439 42.31C413.129 41.545 413.489 40.705 413.489 39.775C413.489 38.83 413.159 38.065 412.514 37.465C411.854 36.865 410.999 36.58 409.979 36.58Z" fill="#A6A6A6"/>
<rect x="378" y="64" width="50" height="28" rx="10" fill="#F1F1F1"/>
<path d="M399.191 72.58C398.051 72.58 397.121 72.955 396.431 73.735C395.756 74.455 395.411 75.415 395.396 76.615H397.031C397.061 75.745 397.241 75.1 397.601 74.65C397.946 74.185 398.456 73.96 399.131 73.96C399.761 73.96 400.256 74.11 400.586 74.41C400.916 74.71 401.081 75.16 401.081 75.76C401.081 76.39 400.826 76.975 400.346 77.515C400.046 77.83 399.536 78.235 398.816 78.745C397.601 79.585 396.791 80.23 396.401 80.695C395.681 81.505 395.336 82.435 395.336 83.5H402.716V82.06H397.361C397.586 81.475 398.276 80.8 399.431 80.035C400.496 79.315 401.231 78.745 401.651 78.31C402.341 77.545 402.701 76.705 402.701 75.775C402.701 74.83 402.371 74.065 401.726 73.465C401.066 72.865 400.211 72.58 399.191 72.58ZM403.94 75.745L406.625 79.375L403.595 83.5H405.47L407.51 80.545L409.535 83.5H411.395L408.38 79.375L411.065 75.745H409.205L407.51 78.205L405.8 75.745H403.94Z" fill="#A6A6A6"/>
<rect x="23.5" y="20.5" width="412" height="79" rx="9.5" stroke="#ECECEC"/>
<rect x="23" y="122" width="196.5" height="80" rx="10" fill="white"/>
<path d="M35.665 167.13C35.431 167.13 35.2057 167.091 34.989 167.013C34.7723 166.935 34.5947 166.796 34.456 166.597C34.3173 166.398 34.248 166.12 34.248 165.765V159.876H35.405V165.622C35.405 165.821 35.4483 165.964 35.535 166.051C35.6217 166.138 35.7603 166.181 35.951 166.181C36.029 166.181 36.1113 166.172 36.198 166.155C36.2847 166.138 36.367 166.116 36.445 166.09L36.601 166.935C36.4363 167.013 36.276 167.065 36.12 167.091C35.964 167.117 35.8123 167.13 35.665 167.13ZM41.933 167V162.255C41.933 161.692 41.803 161.293 41.543 161.059C41.2917 160.816 40.867 160.695 40.269 160.695C39.8357 160.695 39.4197 160.756 39.021 160.877C38.631 160.99 38.2584 161.15 37.903 161.358V160.279C38.1544 160.149 38.4924 160.028 38.917 159.915C39.3504 159.802 39.8357 159.746 40.373 159.746C40.8324 159.746 41.2224 159.798 41.543 159.902C41.8724 160.006 42.115 160.197 42.271 160.474C42.5744 160.613 42.7824 160.829 42.895 161.124C43.0164 161.419 43.077 161.774 43.077 162.19V167H41.933ZM39.697 167.13C38.9344 167.13 38.3494 166.957 37.942 166.61C37.5434 166.255 37.344 165.748 37.344 165.089C37.344 164.37 37.604 163.815 38.124 163.425C38.6527 163.035 39.5064 162.805 40.685 162.736L42.167 162.645V163.607L40.841 163.698C39.957 163.759 39.346 163.897 39.008 164.114C38.6787 164.331 38.514 164.647 38.514 165.063C38.514 165.453 38.6354 165.739 38.878 165.921C39.1294 166.103 39.476 166.194 39.918 166.194C40.0654 166.194 40.1997 166.185 40.321 166.168C40.4424 166.142 40.5594 166.112 40.672 166.077L40.854 166.948C40.6894 167.009 40.5074 167.052 40.308 167.078C40.1174 167.113 39.9137 167.13 39.697 167.13ZM42.232 160.877L41.582 160.266C41.8074 160.231 42.0197 160.145 42.219 160.006C42.4184 159.867 42.518 159.668 42.518 159.408H43.649C43.649 159.677 43.584 159.915 43.454 160.123C43.3327 160.322 43.1637 160.487 42.947 160.617C42.7304 160.738 42.492 160.825 42.232 160.877ZM37.5534 158.745V158.238L38.5024 157.822H43.0784V158.745H37.5534ZM41.9994 158.238V156.769H43.0914V158.238H41.9994ZM41.9864 156.002V153.883H43.0914V156.002H41.9864ZM47.9425 167.117C47.2405 167.117 46.6772 167.026 46.2525 166.844C45.8365 166.662 45.5332 166.406 45.3425 166.077C45.1605 165.748 45.0695 165.358 45.0695 164.907C45.0695 164.508 45.1258 164.192 45.2385 163.958C45.3598 163.715 45.5072 163.538 45.6805 163.425C45.8625 163.312 46.0488 163.239 46.2395 163.204V163.152C46.0662 163.1 45.8842 163.013 45.6935 162.892C45.5028 162.771 45.3425 162.602 45.2125 162.385C45.0912 162.168 45.0305 161.895 45.0305 161.566C45.0305 161.263 45.0998 160.977 45.2385 160.708C45.3772 160.439 45.6025 160.218 45.9145 160.045C46.2265 159.872 46.6382 159.785 47.1495 159.785C47.3575 159.785 47.5742 159.802 47.7995 159.837C48.0248 159.863 48.1982 159.911 48.3195 159.98L48.1115 160.877C48.0162 160.842 47.8905 160.812 47.7345 160.786C47.5872 160.751 47.4312 160.734 47.2665 160.734C46.9025 160.734 46.6338 160.821 46.4605 160.994C46.2872 161.159 46.2005 161.38 46.2005 161.657C46.2005 161.96 46.2742 162.19 46.4215 162.346C46.5775 162.502 46.7725 162.61 47.0065 162.671C47.2492 162.723 47.5005 162.749 47.7605 162.749H48.0075V163.594H47.7605C47.2405 163.594 46.8548 163.689 46.6035 163.88C46.3608 164.062 46.2395 164.37 46.2395 164.803C46.2395 165.054 46.2872 165.284 46.3825 165.492C46.4865 165.7 46.6598 165.865 46.9025 165.986C47.1538 166.107 47.5005 166.168 47.9425 166.168C48.3845 166.168 48.7268 166.107 48.9695 165.986C49.2208 165.865 49.3985 165.691 49.5025 165.466C49.6065 165.232 49.6585 164.955 49.6585 164.634V159.876H50.8155V164.556C50.8155 165.466 50.5815 166.12 50.1135 166.519C49.6542 166.918 48.9305 167.117 47.9425 167.117ZM54.0882 167L51.8652 159.876H53.0352L54.9592 165.999H55.1152C55.3232 165.999 55.5269 165.951 55.7262 165.856C55.9256 165.752 56.0946 165.622 56.2332 165.466C56.4932 165.18 56.6839 164.82 56.8052 164.387C56.9266 163.945 56.9872 163.512 56.9872 163.087C56.9872 162.368 56.8226 161.804 56.4932 161.397C56.1726 160.981 55.7262 160.773 55.1542 160.773C55.0416 160.773 54.9289 160.782 54.8162 160.799C54.7122 160.816 54.6256 160.838 54.5562 160.864L54.2702 159.941C54.4522 159.889 54.6212 159.854 54.7772 159.837C54.9419 159.82 55.0892 159.811 55.2192 159.811C55.6526 159.811 56.0382 159.876 56.3762 160.006C56.7229 160.127 57.0176 160.309 57.2602 160.552C57.5636 160.847 57.7846 161.215 57.9232 161.657C58.0706 162.099 58.1442 162.589 58.1442 163.126C58.1442 163.802 58.0402 164.404 57.8322 164.933C57.6242 165.453 57.3642 165.869 57.0522 166.181C56.8009 166.432 56.4932 166.632 56.1292 166.779C55.7652 166.926 55.3016 167 54.7382 167H54.0882ZM64.9448 160.331C64.6588 160.331 64.4378 160.422 64.2688 160.617C64.0738 160.799 63.9828 161.033 63.9828 161.306C63.9828 161.566 64.0738 161.8 64.2688 161.995C64.4378 162.177 64.6588 162.268 64.9448 162.268C65.2048 162.268 65.4388 162.177 65.6338 161.995C65.8158 161.8 65.9198 161.566 65.9198 161.306C65.9198 161.033 65.8158 160.799 65.6338 160.617C65.4388 160.422 65.2048 160.331 64.9448 160.331ZM64.9448 165.089C64.6588 165.089 64.4378 165.18 64.2688 165.375C64.0738 165.557 63.9828 165.791 63.9828 166.064C63.9828 166.324 64.0738 166.558 64.2688 166.753C64.4378 166.935 64.6588 167.026 64.9448 167.026C65.2048 167.026 65.4388 166.935 65.6338 166.753C65.8158 166.558 65.9198 166.324 65.9198 166.064C65.9198 165.791 65.8158 165.557 65.6338 165.375C65.4388 165.18 65.2048 165.089 64.9448 165.089Z" fill="#A6A6A6"/>
<rect x="73.5" y="132.5" width="135.5" height="59" rx="9.5" fill="white"/>
<path d="M88.575 167.13C87.847 167.13 87.2837 166.965 86.885 166.636C86.4863 166.298 86.209 165.843 86.053 165.271C85.897 164.69 85.819 164.032 85.819 163.295C85.819 162.446 85.897 161.761 86.053 161.241C86.2177 160.721 86.456 160.344 86.768 160.11C87.08 159.867 87.4613 159.746 87.912 159.746C88.2153 159.746 88.471 159.798 88.679 159.902C88.8957 160.006 89.0473 160.179 89.134 160.422H89.186C89.2727 160.171 89.4287 159.997 89.654 159.902C89.8793 159.798 90.1437 159.746 90.447 159.746C91.0103 159.746 91.4437 159.898 91.747 160.201C92.059 160.496 92.215 160.951 92.215 161.566V167H91.058V161.579C91.058 161.241 90.9843 161.011 90.837 160.89C90.6897 160.769 90.5033 160.708 90.278 160.708C90.0267 160.708 89.8403 160.769 89.719 160.89C89.6063 161.011 89.537 161.211 89.511 161.488H88.783C88.7483 161.185 88.6573 160.981 88.51 160.877C88.3627 160.764 88.198 160.708 88.016 160.708C87.6693 160.708 87.4093 160.912 87.236 161.319C87.0627 161.718 86.976 162.381 86.976 163.308C86.976 163.906 87.0193 164.417 87.106 164.842C87.2013 165.267 87.3747 165.596 87.626 165.83C87.8773 166.055 88.2413 166.168 88.718 166.168C88.8913 166.168 89.0343 166.159 89.147 166.142C89.2597 166.125 89.368 166.103 89.472 166.077L89.589 166.961C89.459 167.022 89.303 167.065 89.121 167.091C88.939 167.117 88.757 167.13 88.575 167.13ZM91.1339 159.057C90.7005 159.057 90.3582 158.957 90.1069 158.758C89.8555 158.55 89.7299 158.26 89.7299 157.887C89.7299 157.506 89.8555 157.215 90.1069 157.016C90.3582 156.817 90.7005 156.717 91.1339 156.717C91.5672 156.717 91.9139 156.817 92.1739 157.016C92.4339 157.215 92.5639 157.506 92.5639 157.887C92.5639 158.26 92.4339 158.55 92.1739 158.758C91.9139 158.957 91.5672 159.057 91.1339 159.057ZM91.1339 158.446C91.3419 158.446 91.5022 158.394 91.6149 158.29C91.7189 158.186 91.7709 158.052 91.7709 157.887C91.7709 157.714 91.7189 157.579 91.6149 157.484C91.5022 157.38 91.3419 157.328 91.1339 157.328C90.9345 157.328 90.7829 157.38 90.6789 157.484C90.5662 157.579 90.5099 157.714 90.5099 157.887C90.5099 158.052 90.5662 158.186 90.6789 158.29C90.7829 158.394 90.9345 158.446 91.1339 158.446ZM90.584 156.002V153.883H91.689V156.002H90.584ZM96.3326 167V161.943C96.3326 161.518 96.233 161.206 96.0336 161.007C95.843 160.808 95.518 160.708 95.0586 160.708C94.7466 160.708 94.452 160.751 94.1746 160.838C93.906 160.916 93.646 161.029 93.3946 161.176V160.136C93.568 160.049 93.815 159.963 94.1356 159.876C94.4563 159.789 94.8376 159.746 95.2796 159.746C95.7303 159.746 96.1203 159.811 96.4496 159.941C96.779 160.071 97.0346 160.288 97.2166 160.591C97.3986 160.886 97.4896 161.28 97.4896 161.774V167H96.3326Z" fill="#484848"/>
<path fill-rule="evenodd" clip-rule="evenodd" d="M186.5 166.375L179.5 159.805L180.565 158.5L186.5 164.07L192.435 158.5L193.5 159.805L186.5 166.375Z" fill="#A6A6A6"/>
<rect x="73.5" y="132.5" width="135.5" height="59" rx="9.5" stroke="#ECECEC"/>
<rect x="239.5" y="122" width="196.5" height="80" rx="10" fill="white"/>
<path d="M252.165 167.13C251.931 167.13 251.706 167.091 251.489 167.013C251.272 166.935 251.095 166.796 250.956 166.597C250.817 166.398 250.748 166.12 250.748 165.765V159.876H251.905V165.622C251.905 165.821 251.948 165.964 252.035 166.051C252.122 166.138 252.26 166.181 252.451 166.181C252.529 166.181 252.611 166.172 252.698 166.155C252.785 166.138 252.867 166.116 252.945 166.09L253.101 166.935C252.936 167.013 252.776 167.065 252.62 167.091C252.464 167.117 252.312 167.13 252.165 167.13ZM255.714 167.13C255.48 167.13 255.255 167.091 255.038 167.013C254.821 166.935 254.644 166.796 254.505 166.597C254.366 166.398 254.297 166.12 254.297 165.765V159.876H255.454V165.622C255.454 165.821 255.497 165.964 255.584 166.051C255.671 166.138 255.809 166.181 256 166.181C256.078 166.181 256.16 166.172 256.247 166.155C256.334 166.138 256.416 166.116 256.494 166.09L256.65 166.935C256.485 167.013 256.325 167.065 256.169 167.091C256.013 167.117 255.861 167.13 255.714 167.13ZM259.22 167.13C258.978 167.13 258.744 167.091 258.518 167.013C258.302 166.935 258.124 166.796 257.985 166.597C257.855 166.398 257.79 166.12 257.79 165.765V164.504C257.79 163.967 257.903 163.577 258.128 163.334C258.362 163.091 258.666 162.922 259.038 162.827L259.051 162.788L257.556 162.242V161.813C257.556 161.458 257.673 161.124 257.907 160.812C258.141 160.491 258.475 160.236 258.908 160.045C259.35 159.846 259.879 159.746 260.494 159.746C261.032 159.746 261.526 159.833 261.976 160.006C262.427 160.171 262.787 160.435 263.055 160.799C263.333 161.154 263.471 161.622 263.471 162.203V167H262.314V162.32C262.314 161.739 262.137 161.328 261.781 161.085C261.426 160.834 260.993 160.708 260.481 160.708C259.944 160.708 259.519 160.821 259.207 161.046C258.895 161.263 258.739 161.54 258.739 161.878L260.221 162.58L260.117 163.204C259.797 163.213 259.519 163.295 259.285 163.451C259.06 163.598 258.947 163.902 258.947 164.361V165.635C258.947 165.826 258.991 165.964 259.077 166.051C259.164 166.138 259.303 166.181 259.493 166.181C259.58 166.181 259.662 166.177 259.74 166.168C259.827 166.151 259.905 166.129 259.974 166.103L260.143 166.935C259.979 167.013 259.818 167.065 259.662 167.091C259.515 167.117 259.368 167.13 259.22 167.13ZM267.002 167.13C266.664 167.13 266.334 167.095 266.014 167.026C265.702 166.957 265.368 166.827 265.013 166.636L265.377 165.752C265.567 165.865 265.784 165.964 266.027 166.051C266.269 166.129 266.551 166.168 266.872 166.168C267.513 166.168 268.011 165.934 268.367 165.466C268.731 164.989 268.913 164.305 268.913 163.412C268.913 162.537 268.726 161.869 268.354 161.41C267.99 160.942 267.426 160.708 266.664 160.708C266.386 160.708 266.105 160.738 265.819 160.799C265.533 160.86 265.281 160.951 265.065 161.072V160.097C265.316 159.967 265.589 159.876 265.884 159.824C266.187 159.772 266.49 159.746 266.794 159.746C267.574 159.746 268.206 159.902 268.692 160.214C269.177 160.517 269.532 160.942 269.758 161.488C269.983 162.034 270.096 162.675 270.096 163.412C270.096 164.556 269.836 165.462 269.316 166.129C268.804 166.796 268.033 167.13 267.002 167.13ZM277.014 160.331C276.728 160.331 276.507 160.422 276.338 160.617C276.143 160.799 276.052 161.033 276.052 161.306C276.052 161.566 276.143 161.8 276.338 161.995C276.507 162.177 276.728 162.268 277.014 162.268C277.274 162.268 277.508 162.177 277.703 161.995C277.885 161.8 277.989 161.566 277.989 161.306C277.989 161.033 277.885 160.799 277.703 160.617C277.508 160.422 277.274 160.331 277.014 160.331ZM277.014 165.089C276.728 165.089 276.507 165.18 276.338 165.375C276.143 165.557 276.052 165.791 276.052 166.064C276.052 166.324 276.143 166.558 276.338 166.753C276.507 166.935 276.728 167.026 277.014 167.026C277.274 167.026 277.508 166.935 277.703 166.753C277.885 166.558 277.989 166.324 277.989 166.064C277.989 165.791 277.885 165.557 277.703 165.375C277.508 165.18 277.274 165.089 277.014 165.089Z" fill="#A6A6A6"/>
<rect x="286" y="132.5" width="139.5" height="59" rx="9.5" fill="white"/>
<path d="M300.516 157.718C300.204 158.056 299.814 158.355 299.346 158.641C298.878 158.901 298.449 159.083 298.033 159.187V160.591C298.891 160.344 299.606 159.954 300.165 159.421V167H301.582V157.718H300.516ZM306.85 157.536C305.862 157.536 305.056 157.861 304.458 158.537C303.873 159.161 303.574 159.993 303.561 161.033H304.978C305.004 160.279 305.16 159.72 305.472 159.33C305.771 158.927 306.213 158.732 306.798 158.732C307.344 158.732 307.773 158.862 308.059 159.122C308.345 159.382 308.488 159.772 308.488 160.292C308.488 160.838 308.267 161.345 307.851 161.813C307.591 162.086 307.149 162.437 306.525 162.879C305.472 163.607 304.77 164.166 304.432 164.569C303.808 165.271 303.509 166.077 303.509 167H309.905V165.752H305.264C305.459 165.245 306.057 164.66 307.058 163.997C307.981 163.373 308.618 162.879 308.982 162.502C309.58 161.839 309.892 161.111 309.892 160.305C309.892 159.486 309.606 158.823 309.047 158.303C308.475 157.783 307.734 157.536 306.85 157.536ZM317.596 167.13C317.362 167.13 317.136 167.091 316.92 167.013C316.703 166.935 316.525 166.796 316.387 166.597C316.248 166.398 316.179 166.12 316.179 165.765V159.876H317.336V165.622C317.336 165.821 317.379 165.964 317.466 166.051C317.552 166.138 317.691 166.181 317.882 166.181C317.96 166.181 318.042 166.172 318.129 166.155C318.215 166.138 318.298 166.116 318.376 166.09L318.532 166.935C318.367 167.013 318.207 167.065 318.051 167.091C317.895 167.117 317.743 167.13 317.596 167.13ZM321.145 167.13C320.911 167.13 320.685 167.091 320.469 167.013C320.252 166.935 320.074 166.796 319.936 166.597C319.797 166.398 319.728 166.12 319.728 165.765V159.876H320.885V165.622C320.885 165.821 320.928 165.964 321.015 166.051C321.101 166.138 321.24 166.181 321.431 166.181C321.509 166.181 321.591 166.172 321.678 166.155C321.764 166.138 321.847 166.116 321.925 166.09L322.081 166.935C321.916 167.013 321.756 167.065 321.6 167.091C321.444 167.117 321.292 167.13 321.145 167.13ZM324.651 167.13C324.408 167.13 324.174 167.091 323.949 167.013C323.732 166.935 323.555 166.796 323.416 166.597C323.286 166.398 323.221 166.12 323.221 165.765V164.504C323.221 163.967 323.334 163.577 323.559 163.334C323.793 163.091 324.096 162.922 324.469 162.827L324.482 162.788L322.987 162.242V161.813C322.987 161.458 323.104 161.124 323.338 160.812C323.572 160.491 323.906 160.236 324.339 160.045C324.781 159.846 325.31 159.746 325.925 159.746C326.462 159.746 326.956 159.833 327.407 160.006C327.858 160.171 328.217 160.435 328.486 160.799C328.763 161.154 328.902 161.622 328.902 162.203V167H327.745V162.32C327.745 161.739 327.567 161.328 327.212 161.085C326.857 160.834 326.423 160.708 325.912 160.708C325.375 160.708 324.95 160.821 324.638 161.046C324.326 161.263 324.17 161.54 324.17 161.878L325.652 162.58L325.548 163.204C325.227 163.213 324.95 163.295 324.716 163.451C324.491 163.598 324.378 163.902 324.378 164.361V165.635C324.378 165.826 324.421 165.964 324.508 166.051C324.595 166.138 324.733 166.181 324.924 166.181C325.011 166.181 325.093 166.177 325.171 166.168C325.258 166.151 325.336 166.129 325.405 166.103L325.574 166.935C325.409 167.013 325.249 167.065 325.093 167.091C324.946 167.117 324.798 167.13 324.651 167.13ZM332.432 167.13C332.094 167.13 331.765 167.095 331.444 167.026C331.132 166.957 330.799 166.827 330.443 166.636L330.807 165.752C330.998 165.865 331.215 165.964 331.457 166.051C331.7 166.129 331.982 166.168 332.302 166.168C332.944 166.168 333.442 165.934 333.797 165.466C334.161 164.989 334.343 164.305 334.343 163.412C334.343 162.537 334.157 161.869 333.784 161.41C333.42 160.942 332.857 160.708 332.094 160.708C331.817 160.708 331.535 160.738 331.249 160.799C330.963 160.86 330.712 160.951 330.495 161.072V160.097C330.747 159.967 331.02 159.876 331.314 159.824C331.618 159.772 331.921 159.746 332.224 159.746C333.004 159.746 333.637 159.902 334.122 160.214C334.608 160.517 334.963 160.942 335.188 161.488C335.414 162.034 335.526 162.675 335.526 163.412C335.526 164.556 335.266 165.462 334.746 166.129C334.235 166.796 333.464 167.13 332.432 167.13Z" fill="#484848"/>
<path fill-rule="evenodd" clip-rule="evenodd" d="M403 166.375L396 159.805L397.065 158.5L403 164.07L408.935 158.5L410 159.805L403 166.375Z" fill="#A6A6A6"/>
<rect x="286" y="132.5" width="139.5" height="59" rx="9.5" stroke="#ECECEC"/>
<rect x="23" y="224" width="413" height="80" rx="10" fill="#FB6943"/>
<g filter="url(#filter0_d_1889_20794)">
<path d="M207.772 270.68C207.448 270.68 207.136 270.626 206.836 270.518C206.536 270.41 206.29 270.218 206.098 269.942C205.906 269.666 205.81 269.282 205.81 268.79V260.636H207.412V268.592C207.412 268.868 207.472 269.066 207.592 269.186C207.712 269.306 207.904 269.366 208.168 269.366C208.276 269.366 208.39 269.354 208.51 269.33C208.63 269.306 208.744 269.276 208.852 269.24L209.068 270.41C208.84 270.518 208.618 270.59 208.402 270.626C208.186 270.662 207.976 270.68 207.772 270.68ZM214.039 270.68C213.079 270.68 212.323 270.458 211.771 270.014C211.231 269.558 210.847 268.946 210.619 268.178C210.403 267.41 210.295 266.564 210.295 265.64C210.295 264.62 210.397 263.78 210.601 263.12C210.817 262.448 211.117 261.92 211.501 261.536C211.897 261.14 212.365 260.864 212.905 260.708C213.457 260.54 214.063 260.456 214.723 260.456C215.683 260.456 216.463 260.6 217.063 260.888C217.675 261.164 218.125 261.56 218.413 262.076C218.701 262.592 218.845 263.21 218.845 263.93V270.5H217.261V264.074C217.261 263.33 217.075 262.766 216.703 262.382C216.331 261.986 215.689 261.788 214.777 261.788C214.225 261.788 213.727 261.89 213.283 262.094C212.851 262.298 212.509 262.676 212.257 263.228C212.017 263.78 211.897 264.59 211.897 265.658C211.897 266.354 211.963 266.984 212.095 267.548C212.239 268.1 212.485 268.538 212.833 268.862C213.181 269.186 213.667 269.348 214.291 269.348C214.471 269.348 214.639 269.336 214.795 269.312C214.951 269.288 215.101 269.252 215.245 269.204L215.407 270.446C215.215 270.53 214.993 270.59 214.741 270.626C214.501 270.662 214.267 270.68 214.039 270.68ZM211.055 259.07V258.368L212.369 257.792H218.705V259.07H211.055ZM226.517 270.68C225.749 270.68 225.083 270.53 224.519 270.23C223.967 269.918 223.589 269.486 223.385 268.934H223.313L223.223 270.5H221.909V260.636H223.511V266.342C223.511 266.942 223.613 267.47 223.817 267.926C224.033 268.37 224.339 268.718 224.735 268.97C225.143 269.21 225.629 269.33 226.193 269.33C226.901 269.33 227.429 269.144 227.777 268.772C228.125 268.4 228.299 267.854 228.299 267.134V260.636H229.901V267.242C229.901 268.034 229.763 268.682 229.487 269.186C229.223 269.69 228.839 270.068 228.335 270.32C227.831 270.56 227.225 270.68 226.517 270.68ZM233.883 270.5L232.101 260.636H233.739L234.441 264.92C234.501 265.268 234.561 265.718 234.621 266.27C234.681 266.822 234.753 267.476 234.837 268.232H234.891C234.999 267.716 235.101 267.254 235.197 266.846C235.305 266.438 235.401 266.072 235.485 265.748C235.581 265.412 235.665 265.118 235.737 264.866L236.943 260.636H238.257L239.481 264.866C239.553 265.118 239.631 265.412 239.715 265.748C239.811 266.072 239.907 266.438 240.003 266.846C240.111 267.254 240.219 267.716 240.327 268.232H240.399C240.471 267.476 240.537 266.822 240.597 266.27C240.657 265.718 240.717 265.268 240.777 264.92L241.497 260.636H243.135L241.353 270.5H239.787L238.131 265.136C238.047 264.836 237.963 264.524 237.879 264.2C237.807 263.876 237.735 263.45 237.663 262.922H237.591C237.543 263.27 237.489 263.576 237.429 263.84C237.369 264.104 237.309 264.338 237.249 264.542C237.189 264.746 237.129 264.944 237.069 265.136L235.449 270.5H233.883ZM240.096 259.07C239.592 259.07 239.19 258.998 238.89 258.854C238.59 258.71 238.374 258.524 238.242 258.296C238.098 258.068 238.026 257.828 238.026 257.576C238.026 257.396 238.056 257.204 238.116 257C238.164 256.784 238.23 256.61 238.314 256.478L239.664 256.712C239.64 256.76 239.616 256.844 239.592 256.964C239.568 257.072 239.556 257.174 239.556 257.27C239.556 257.426 239.604 257.564 239.7 257.684C239.796 257.792 239.958 257.846 240.186 257.846H244.74V259.07H240.096ZM248.739 270.68C248.031 270.68 247.419 270.56 246.903 270.32C246.399 270.068 246.009 269.69 245.733 269.186C245.469 268.682 245.337 268.028 245.337 267.224V260.636H246.939V267.134C246.939 267.854 247.119 268.4 247.479 268.772C247.851 269.144 248.385 269.33 249.081 269.33C249.921 269.33 250.569 269.06 251.025 268.52C251.493 267.98 251.727 267.254 251.727 266.342V260.636H253.329V270.5H251.997L251.925 269.042H251.835C251.619 269.522 251.241 269.918 250.701 270.23C250.173 270.53 249.519 270.68 248.739 270.68Z" fill="white"/>
</g>
</g>
<defs>
<filter id="filter0_d_1889_20794" x="201.809" y="254.477" width="55.5195" height="22.2031" filterUnits="userSpaceOnUse" color-interpolation-filters="sRGB">
<feFlood flood-opacity="0" result="BackgroundImageFix"/>
<feColorMatrix in="SourceAlpha" type="matrix" values="0 0 0 0 0 0 0 0 0 0 0 0 0 0 0 0 0 0 127 0" result="hardAlpha"/>
<feOffset dy="2"/>
<feGaussianBlur stdDeviation="2"/>
<feComposite in2="hardAlpha" operator="out"/>
<feColorMatrix type="matrix" values="0 0 0 0 0 0 0 0 0 0 0 0 0 0 0 0 0 0 0.3 0"/>
<feBlend mode="normal" in2="BackgroundImageFix" result="effect1_dropShadow_1889_20794"/>
<feBlend mode="normal" in="SourceGraphic" in2="effect1_dropShadow_1889_20794" result="shape"/>
</filter>
<clipPath id="clip0_1889_20794">
<rect width="413" height="284" fill="white" transform="translate(23.5 20)"/>
</clipPath>
<clipPath id="clip1_1889_20794">
<rect width="143" height="25" fill="white" transform="translate(158 47.5)"/>
</clipPath>
<clipPath id="clip2_1889_20794">
<rect width="24" height="24" fill="white" transform="translate(158 47.5)"/>
</clipPath>
</defs>
</svg>
