<svg width="460" height="324" viewBox="0 0 460 324" fill="none" xmlns="http://www.w3.org/2000/svg">
<rect width="460" height="324" rx="10" fill="#0D131C"/>
<g clip-path="url(#clip0_1887_18629)">
<rect x="23.5" y="20.5" width="412" height="79" rx="9.5" fill="#161F2C"/>
<rect x="31" y="28" width="67" height="28" rx="10" fill="#383C45"/>
<path d="M38.4508 37.24L36.8608 37.9V39.745H35.4208V41.065H36.8608V45.565C36.8608 46.18 36.9958 46.645 37.2958 46.975C37.5958 47.32 38.0908 47.5 38.7508 47.5H40.0258V46.18H39.0058C38.8108 46.18 38.6758 46.12 38.5858 46.03C38.4958 45.925 38.4508 45.775 38.4508 45.565V41.065H40.2208V39.745H38.4508V37.24ZM44.3811 36.76L42.8361 38.665H43.8411L45.0711 37.45L46.3311 38.665H47.3361L45.7761 36.76H44.3811ZM45.0711 39.535C43.9011 39.535 42.9561 39.925 42.2361 40.735C41.5461 41.485 41.2011 42.46 41.2011 43.63C41.2011 44.8 41.5461 45.76 42.2361 46.51C42.9411 47.305 43.8861 47.71 45.0711 47.71C46.2561 47.71 47.2011 47.305 47.9211 46.51C48.5961 45.76 48.9411 44.8 48.9411 43.63C48.9411 42.46 48.5961 41.485 47.9211 40.735C47.2011 39.925 46.2411 39.535 45.0711 39.535ZM45.0711 40.84C45.7611 40.84 46.3011 41.08 46.7061 41.59C47.0961 42.1 47.3061 42.775 47.3061 43.63C47.3061 44.47 47.0961 45.13 46.7061 45.64C46.3011 46.15 45.7611 46.405 45.0711 46.405C44.3811 46.405 43.8411 46.15 43.4361 45.64C43.0461 45.13 42.8511 44.47 42.8511 43.63C42.8511 42.775 43.0461 42.1 43.4361 41.59C43.8411 41.08 44.3811 40.84 45.0711 40.84ZM44.9038 33.67L43.4788 35.86H44.5288L46.6588 33.67H44.9038ZM51.5763 36.64C51.2613 36.64 51.0063 36.73 50.7963 36.94C50.5863 37.135 50.4813 37.39 50.4813 37.705C50.4813 38.005 50.5863 38.275 50.7963 38.485C51.0063 38.68 51.2613 38.785 51.5763 38.785C51.8763 38.785 52.1463 38.68 52.3563 38.485C52.5663 38.275 52.6863 38.02 52.6863 37.705C52.6863 37.39 52.5813 37.135 52.3713 36.94C52.1613 36.73 51.8913 36.64 51.5763 36.64ZM50.7813 39.745V47.5H52.3713V39.745H50.7813ZM61.8737 37.24L60.2837 37.9V39.745H58.8437V41.065H60.2837V45.565C60.2837 46.18 60.4187 46.645 60.7187 46.975C61.0187 47.32 61.5137 47.5 62.1737 47.5H63.4487V46.18H62.4287C62.2337 46.18 62.0987 46.12 62.0087 46.03C61.9187 45.925 61.8737 45.775 61.8737 45.565V41.065H63.6437V39.745H61.8737V37.24ZM64.9239 36.58V47.5H66.5139V43.15C66.5139 42.475 66.6789 41.92 67.0239 41.485C67.3539 41.05 67.7889 40.84 68.3289 40.84C68.9289 40.84 69.3939 41.02 69.6939 41.395C69.9639 41.755 70.1139 42.265 70.1139 42.955V47.5H71.7039V42.685C71.7039 41.665 71.4789 40.885 71.0289 40.36C70.5489 39.805 69.8439 39.535 68.9139 39.535C68.4189 39.535 67.9839 39.625 67.5939 39.835C67.1589 40.045 66.7989 40.39 66.5139 40.84V36.58H64.9239ZM74.6329 36.64C74.3179 36.64 74.0629 36.73 73.8529 36.94C73.6429 37.135 73.5379 37.39 73.5379 37.705C73.5379 38.005 73.6429 38.275 73.8529 38.485C74.0629 38.68 74.3179 38.785 74.6329 38.785C74.9329 38.785 75.2029 38.68 75.4129 38.485C75.6229 38.275 75.7429 38.02 75.7429 37.705C75.7429 37.39 75.6379 37.135 75.4279 36.94C75.2179 36.73 74.9479 36.64 74.6329 36.64ZM73.8379 39.745V47.5H75.4279V39.745H73.8379ZM80.2202 36.76L78.6602 38.665H79.6652L80.9252 37.45L82.1552 38.665H83.1602L81.6152 36.76H80.2202ZM80.8652 39.535C79.7252 39.535 78.8102 39.925 78.1502 40.72C77.4602 41.5 77.1302 42.46 77.1302 43.615C77.1302 44.89 77.4902 45.895 78.2102 46.645C78.8702 47.35 79.7852 47.71 80.9252 47.71C81.9602 47.71 82.8152 47.41 83.4902 46.825C84.0302 46.345 84.3752 45.73 84.5552 45.01H82.9652C82.7552 45.46 82.5302 45.805 82.2602 46.015C81.9152 46.27 81.4652 46.405 80.9102 46.405C80.2802 46.405 79.7852 46.195 79.4252 45.805C79.0652 45.4 78.8702 44.815 78.8102 44.065H84.6902C84.6752 42.685 84.3602 41.605 83.7602 40.825C83.1002 39.955 82.1252 39.535 80.8652 39.535ZM80.9102 40.84C82.1702 40.84 82.8752 41.515 83.0252 42.865H78.8402C78.9302 42.205 79.1552 41.71 79.4852 41.365C79.8452 41.005 80.3102 40.84 80.9102 40.84ZM80.7789 33.415C80.3289 33.415 79.8789 33.49 79.4289 33.655V34.39C79.8639 34.18 80.2839 34.075 80.6889 34.075C81.2739 34.075 81.5739 34.24 81.5739 34.57C81.5739 34.9 81.2139 35.245 80.4939 35.605L80.9139 36.04C81.8889 35.665 82.3839 35.17 82.3839 34.555C82.3839 33.79 81.8439 33.415 80.7789 33.415ZM86.047 39.745V44.575C86.047 46.66 86.977 47.71 88.852 47.71C89.827 47.71 90.637 47.29 91.297 46.45V47.5H92.887V39.745H91.297V44.485C91.162 45.055 90.907 45.52 90.547 45.865C90.187 46.195 89.812 46.375 89.392 46.375C88.777 46.375 88.327 46.21 88.057 45.91C87.772 45.61 87.637 45.13 87.637 44.47V39.745H86.047Z" fill="#7C8499"/>
<rect x="31" y="64" width="50" height="28" rx="10" fill="#383C45"/>
<path d="M38.6227 73.24L37.0327 73.9V75.745H35.5927V77.065H37.0327V81.565C37.0327 82.18 37.1677 82.645 37.4677 82.975C37.7677 83.32 38.2627 83.5 38.9227 83.5H40.1977V82.18H39.1777C38.9827 82.18 38.8477 82.12 38.7577 82.03C38.6677 81.925 38.6227 81.775 38.6227 81.565V77.065H40.3927V75.745H38.6227V73.24ZM44.5529 72.76L43.0079 74.665H44.0129L45.2429 73.45L46.5029 74.665H47.5079L45.9479 72.76H44.5529ZM45.2429 75.535C44.0729 75.535 43.1279 75.925 42.4079 76.735C41.7179 77.485 41.3729 78.46 41.3729 79.63C41.3729 80.8 41.7179 81.76 42.4079 82.51C43.1129 83.305 44.0579 83.71 45.2429 83.71C46.4279 83.71 47.3729 83.305 48.0929 82.51C48.7679 81.76 49.113 80.8 49.113 79.63C49.113 78.46 48.7679 77.485 48.0929 76.735C47.3729 75.925 46.4129 75.535 45.2429 75.535ZM45.2429 76.84C45.9329 76.84 46.4729 77.08 46.8779 77.59C47.2679 78.1 47.4779 78.775 47.4779 79.63C47.4779 80.47 47.2679 81.13 46.8779 81.64C46.4729 82.15 45.9329 82.405 45.2429 82.405C44.5529 82.405 44.0129 82.15 43.6079 81.64C43.2179 81.13 43.0229 80.47 43.0229 79.63C43.0229 78.775 43.2179 78.1 43.6079 77.59C44.0129 77.08 44.5529 76.84 45.2429 76.84ZM45.0757 69.67L43.6507 71.86H44.7007L46.8307 69.67H45.0757ZM51.7481 72.64C51.4331 72.64 51.1781 72.73 50.9681 72.94C50.7581 73.135 50.6531 73.39 50.6531 73.705C50.6531 74.005 50.7581 74.275 50.9681 74.485C51.1781 74.68 51.4331 74.785 51.7481 74.785C52.0481 74.785 52.3181 74.68 52.5281 74.485C52.7381 74.275 52.8581 74.02 52.8581 73.705C52.8581 73.39 52.7531 73.135 52.5431 72.94C52.3331 72.73 52.0631 72.64 51.7481 72.64ZM50.9531 75.745V83.5H52.5431V75.745H50.9531ZM62.7805 73.75V74.68H65.2705V76.9C64.6405 75.985 63.8455 75.535 62.9005 75.535C61.7755 75.535 60.9055 75.94 60.2755 76.75C59.6755 77.5 59.3905 78.445 59.3905 79.585C59.3905 80.77 59.6905 81.745 60.2905 82.495C60.9355 83.305 61.8355 83.71 62.9755 83.71C64.0255 83.71 64.8355 83.32 65.3755 82.57V83.5H66.8605V74.68H68.0905V73.75H66.8605V72.58H65.2705V73.75H62.7805ZM63.2605 76.825C63.8455 76.825 64.3255 77.05 64.7155 77.53C65.1055 78.04 65.3155 78.715 65.3155 79.555V79.69C65.3155 80.47 65.1505 81.115 64.8205 81.595C64.4305 82.135 63.9055 82.42 63.2155 82.42C62.4355 82.42 61.8505 82.135 61.4905 81.58C61.1755 81.1 61.0255 80.44 61.0255 79.585C61.0255 78.73 61.1905 78.07 61.5205 77.62C61.8955 77.08 62.4805 76.825 63.2605 76.825ZM72.4873 75.535C71.5273 75.535 70.7473 75.7 70.1773 76.06C69.5173 76.45 69.0973 77.08 68.9323 77.92L70.5073 78.055C70.5973 77.62 70.8223 77.305 71.1823 77.095C71.4823 76.915 71.8873 76.825 72.3823 76.825C73.5523 76.825 74.1373 77.365 74.1373 78.445V78.76L72.3973 78.805C71.2573 78.835 70.3573 79.06 69.7273 79.51C69.0373 79.975 68.6923 80.65 68.6923 81.52C68.6923 82.165 68.9323 82.69 69.4273 83.095C69.8773 83.5 70.5073 83.71 71.3173 83.71C72.0073 83.71 72.6073 83.575 73.1173 83.335C73.5673 83.11 73.9423 82.795 74.2423 82.405V83.5H75.7123V78.55C75.7123 77.605 75.4723 76.885 75.0073 76.39C74.4673 75.82 73.6273 75.535 72.4873 75.535ZM74.1373 79.915V80.365C74.1373 80.965 73.8823 81.475 73.4023 81.88C72.9223 82.285 72.3523 82.495 71.6773 82.495C71.2723 82.495 70.9423 82.39 70.7023 82.195C70.4473 82 70.3273 81.76 70.3273 81.46C70.3273 80.5 71.0473 79.99 72.5023 79.96L74.1373 79.915Z" fill="#7C8499"/>
<g clip-path="url(#clip1_1887_18629)">
<g clip-path="url(#clip2_1887_18629)">
<path d="M181.638 62.4029C180.036 68.8315 173.524 72.7438 167.095 71.1407C160.668 69.538 156.756 63.0265 158.359 56.5984C159.961 50.169 166.473 46.2564 172.9 47.8591C179.329 49.4618 183.241 55.974 181.638 62.403L181.638 62.4029H181.638Z" fill="#F7931A"/>
<path d="M175.291 57.7894C175.53 56.1924 174.314 55.334 172.652 54.7614L173.191 52.5982L171.874 52.27L171.349 54.3763C171.003 54.2899 170.647 54.2086 170.294 54.1279L170.823 52.0078L169.507 51.6797L168.967 53.8422C168.681 53.777 168.399 53.7125 168.126 53.6446L168.128 53.6378L166.312 53.1843L165.962 54.5907C165.962 54.5907 166.939 54.8147 166.918 54.8285C167.451 54.9615 167.548 55.3145 167.532 55.5943L166.917 58.0587C166.954 58.068 167.002 58.0815 167.054 58.1026C167.01 58.0917 166.964 58.0798 166.915 58.0682L166.054 61.5205C165.989 61.6825 165.823 61.9256 165.451 61.8333C165.464 61.8524 164.494 61.5944 164.494 61.5944L163.84 63.1017L165.553 63.5289C165.872 63.6089 166.185 63.6925 166.492 63.7712L165.947 65.9592L167.263 66.2873L167.802 64.1225C168.162 64.22 168.51 64.31 168.852 64.3948L168.314 66.5494L169.631 66.8775L170.176 64.6936C172.421 65.1186 174.109 64.9472 174.82 62.9163C175.393 61.2811 174.792 60.3379 173.61 59.7229C174.471 59.5244 175.119 58.9585 175.292 57.7895L175.291 57.7892L175.291 57.7894ZM172.282 62.0082C171.876 63.6433 169.122 62.7594 168.23 62.5378L168.953 59.639C169.845 59.8619 172.708 60.3028 172.283 62.0082H172.282ZM172.69 57.7657C172.318 59.253 170.027 58.4974 169.284 58.3121L169.939 55.6831C170.683 55.8684 173.076 56.2142 172.69 57.7657H172.69Z" fill="white"/>
</g>
<path d="M187.215 61.0049C187.215 58.5557 187.654 56.8418 188.533 55.8633C189.418 54.8848 190.763 54.3955 192.567 54.3955C193.435 54.3955 194.146 54.5039 194.703 54.7207C195.26 54.9316 195.714 55.21 196.065 55.5557C196.417 55.8955 196.692 56.2559 196.892 56.6367C197.097 57.0117 197.261 57.4512 197.384 57.9551C197.624 58.916 197.744 59.918 197.744 60.9609C197.744 63.2988 197.349 65.0098 196.558 66.0938C195.767 67.1777 194.404 67.7197 192.471 67.7197C191.387 67.7197 190.511 67.5469 189.843 67.2012C189.175 66.8555 188.627 66.3486 188.199 65.6807C187.889 65.2061 187.646 64.5586 187.47 63.7383C187.3 62.9121 187.215 62.001 187.215 61.0049ZM190.766 61.0137C190.766 62.6543 190.909 63.7764 191.196 64.3799C191.489 64.9775 191.911 65.2764 192.462 65.2764C192.825 65.2764 193.139 65.1504 193.402 64.8984C193.672 64.6406 193.868 64.2363 193.991 63.6855C194.12 63.1348 194.185 62.2764 194.185 61.1104C194.185 59.3994 194.038 58.251 193.745 57.665C193.458 57.0732 193.024 56.7773 192.444 56.7773C191.853 56.7773 191.425 57.0791 191.161 57.6826C190.897 58.2803 190.766 59.3906 190.766 61.0137ZM199.572 63.9141H203.396V67.5H199.572V63.9141ZM205.215 61.0049C205.215 58.5557 205.654 56.8418 206.533 55.8633C207.418 54.8848 208.763 54.3955 210.567 54.3955C211.435 54.3955 212.146 54.5039 212.703 54.7207C213.26 54.9316 213.714 55.21 214.065 55.5557C214.417 55.8955 214.692 56.2559 214.892 56.6367C215.097 57.0117 215.261 57.4512 215.384 57.9551C215.624 58.916 215.744 59.918 215.744 60.9609C215.744 63.2988 215.349 65.0098 214.558 66.0938C213.767 67.1777 212.404 67.7197 210.471 67.7197C209.387 67.7197 208.511 67.5469 207.843 67.2012C207.175 66.8555 206.627 66.3486 206.199 65.6807C205.889 65.2061 205.646 64.5586 205.47 63.7383C205.3 62.9121 205.215 62.001 205.215 61.0049ZM208.766 61.0137C208.766 62.6543 208.909 63.7764 209.196 64.3799C209.489 64.9775 209.911 65.2764 210.462 65.2764C210.825 65.2764 211.139 65.1504 211.402 64.8984C211.672 64.6406 211.868 64.2363 211.991 63.6855C212.12 63.1348 212.185 62.2764 212.185 61.1104C212.185 59.3994 212.038 58.251 211.745 57.665C211.458 57.0732 211.024 56.7773 210.444 56.7773C209.853 56.7773 209.425 57.0791 209.161 57.6826C208.897 58.2803 208.766 59.3906 208.766 61.0137ZM217.221 61.0049C217.221 58.5557 217.66 56.8418 218.539 55.8633C219.424 54.8848 220.769 54.3955 222.573 54.3955C223.44 54.3955 224.152 54.5039 224.709 54.7207C225.266 54.9316 225.72 55.21 226.071 55.5557C226.423 55.8955 226.698 56.2559 226.897 56.6367C227.103 57.0117 227.267 57.4512 227.39 57.9551C227.63 58.916 227.75 59.918 227.75 60.9609C227.75 63.2988 227.354 65.0098 226.563 66.0938C225.772 67.1777 224.41 67.7197 222.477 67.7197C221.393 67.7197 220.517 67.5469 219.849 67.2012C219.181 66.8555 218.633 66.3486 218.205 65.6807C217.895 65.2061 217.651 64.5586 217.476 63.7383C217.306 62.9121 217.221 62.001 217.221 61.0049ZM220.771 61.0137C220.771 62.6543 220.915 63.7764 221.202 64.3799C221.495 64.9775 221.917 65.2764 222.468 65.2764C222.831 65.2764 223.145 65.1504 223.408 64.8984C223.678 64.6406 223.874 64.2363 223.997 63.6855C224.126 63.1348 224.19 62.2764 224.19 61.1104C224.19 59.3994 224.044 58.251 223.751 57.665C223.464 57.0732 223.03 56.7773 222.45 56.7773C221.858 56.7773 221.431 57.0791 221.167 57.6826C220.903 58.2803 220.771 59.3906 220.771 61.0137ZM229.227 61.0049C229.227 58.5557 229.666 56.8418 230.545 55.8633C231.43 54.8848 232.774 54.3955 234.579 54.3955C235.446 54.3955 236.158 54.5039 236.715 54.7207C237.271 54.9316 237.726 55.21 238.077 55.5557C238.429 55.8955 238.704 56.2559 238.903 56.6367C239.108 57.0117 239.272 57.4512 239.396 57.9551C239.636 58.916 239.756 59.918 239.756 60.9609C239.756 63.2988 239.36 65.0098 238.569 66.0938C237.778 67.1777 236.416 67.7197 234.482 67.7197C233.398 67.7197 232.522 67.5469 231.854 67.2012C231.187 66.8555 230.639 66.3486 230.211 65.6807C229.9 65.2061 229.657 64.5586 229.481 63.7383C229.312 62.9121 229.227 62.001 229.227 61.0049ZM232.777 61.0137C232.777 62.6543 232.921 63.7764 233.208 64.3799C233.501 64.9775 233.923 65.2764 234.474 65.2764C234.837 65.2764 235.15 65.1504 235.414 64.8984C235.684 64.6406 235.88 64.2363 236.003 63.6855C236.132 63.1348 236.196 62.2764 236.196 61.1104C236.196 59.3994 236.05 58.251 235.757 57.665C235.47 57.0732 235.036 56.7773 234.456 56.7773C233.864 56.7773 233.437 57.0791 233.173 57.6826C232.909 58.2803 232.777 59.3906 232.777 61.0137ZM241.232 61.0049C241.232 58.5557 241.672 56.8418 242.551 55.8633C243.436 54.8848 244.78 54.3955 246.585 54.3955C247.452 54.3955 248.164 54.5039 248.721 54.7207C249.277 54.9316 249.731 55.21 250.083 55.5557C250.435 55.8955 250.71 56.2559 250.909 56.6367C251.114 57.0117 251.278 57.4512 251.401 57.9551C251.642 58.916 251.762 59.918 251.762 60.9609C251.762 63.2988 251.366 65.0098 250.575 66.0938C249.784 67.1777 248.422 67.7197 246.488 67.7197C245.404 67.7197 244.528 67.5469 243.86 67.2012C243.192 66.8555 242.645 66.3486 242.217 65.6807C241.906 65.2061 241.663 64.5586 241.487 63.7383C241.317 62.9121 241.232 62.001 241.232 61.0049ZM244.783 61.0137C244.783 62.6543 244.927 63.7764 245.214 64.3799C245.507 64.9775 245.929 65.2764 246.479 65.2764C246.843 65.2764 247.156 65.1504 247.42 64.8984C247.689 64.6406 247.886 64.2363 248.009 63.6855C248.138 63.1348 248.202 62.2764 248.202 61.1104C248.202 59.3994 248.056 58.251 247.763 57.665C247.476 57.0732 247.042 56.7773 246.462 56.7773C245.87 56.7773 245.442 57.0791 245.179 57.6826C244.915 58.2803 244.783 59.3906 244.783 61.0137ZM261.351 54.3955V67.5H257.729V58.9131C257.144 59.3584 256.575 59.7188 256.024 59.9941C255.479 60.2695 254.794 60.5332 253.968 60.7852V57.8496C255.187 57.457 256.133 56.9854 256.807 56.4346C257.48 55.8838 258.008 55.2041 258.389 54.3955H261.351ZM265.244 61.0049C265.244 58.5557 265.684 56.8418 266.562 55.8633C267.447 54.8848 268.792 54.3955 270.597 54.3955C271.464 54.3955 272.176 54.5039 272.732 54.7207C273.289 54.9316 273.743 55.21 274.095 55.5557C274.446 55.8955 274.722 56.2559 274.921 56.6367C275.126 57.0117 275.29 57.4512 275.413 57.9551C275.653 58.916 275.773 59.918 275.773 60.9609C275.773 63.2988 275.378 65.0098 274.587 66.0938C273.796 67.1777 272.434 67.7197 270.5 67.7197C269.416 67.7197 268.54 67.5469 267.872 67.2012C267.204 66.8555 266.656 66.3486 266.229 65.6807C265.918 65.2061 265.675 64.5586 265.499 63.7383C265.329 62.9121 265.244 62.001 265.244 61.0049ZM268.795 61.0137C268.795 62.6543 268.938 63.7764 269.226 64.3799C269.519 64.9775 269.94 65.2764 270.491 65.2764C270.854 65.2764 271.168 65.1504 271.432 64.8984C271.701 64.6406 271.897 64.2363 272.021 63.6855C272.149 63.1348 272.214 62.2764 272.214 61.1104C272.214 59.3994 272.067 58.251 271.774 57.665C271.487 57.0732 271.054 56.7773 270.474 56.7773C269.882 56.7773 269.454 57.0791 269.19 57.6826C268.927 58.2803 268.795 59.3906 268.795 61.0137ZM277.25 61.0049C277.25 58.5557 277.689 56.8418 278.568 55.8633C279.453 54.8848 280.798 54.3955 282.603 54.3955C283.47 54.3955 284.182 54.5039 284.738 54.7207C285.295 54.9316 285.749 55.21 286.101 55.5557C286.452 55.8955 286.728 56.2559 286.927 56.6367C287.132 57.0117 287.296 57.4512 287.419 57.9551C287.659 58.916 287.779 59.918 287.779 60.9609C287.779 63.2988 287.384 65.0098 286.593 66.0938C285.802 67.1777 284.439 67.7197 282.506 67.7197C281.422 67.7197 280.546 67.5469 279.878 67.2012C279.21 66.8555 278.662 66.3486 278.234 65.6807C277.924 65.2061 277.681 64.5586 277.505 63.7383C277.335 62.9121 277.25 62.001 277.25 61.0049ZM280.801 61.0137C280.801 62.6543 280.944 63.7764 281.231 64.3799C281.524 64.9775 281.946 65.2764 282.497 65.2764C282.86 65.2764 283.174 65.1504 283.438 64.8984C283.707 64.6406 283.903 64.2363 284.026 63.6855C284.155 63.1348 284.22 62.2764 284.22 61.1104C284.22 59.3994 284.073 58.251 283.78 57.665C283.493 57.0732 283.06 56.7773 282.479 56.7773C281.888 56.7773 281.46 57.0791 281.196 57.6826C280.933 58.2803 280.801 59.3906 280.801 61.0137ZM289.256 61.0049C289.256 58.5557 289.695 56.8418 290.574 55.8633C291.459 54.8848 292.804 54.3955 294.608 54.3955C295.476 54.3955 296.188 54.5039 296.744 54.7207C297.301 54.9316 297.755 55.21 298.106 55.5557C298.458 55.8955 298.733 56.2559 298.933 56.6367C299.138 57.0117 299.302 57.4512 299.425 57.9551C299.665 58.916 299.785 59.918 299.785 60.9609C299.785 63.2988 299.39 65.0098 298.599 66.0938C297.808 67.1777 296.445 67.7197 294.512 67.7197C293.428 67.7197 292.552 67.5469 291.884 67.2012C291.216 66.8555 290.668 66.3486 290.24 65.6807C289.93 65.2061 289.687 64.5586 289.511 63.7383C289.341 62.9121 289.256 62.001 289.256 61.0049ZM292.807 61.0137C292.807 62.6543 292.95 63.7764 293.237 64.3799C293.53 64.9775 293.952 65.2764 294.503 65.2764C294.866 65.2764 295.18 65.1504 295.443 64.8984C295.713 64.6406 295.909 64.2363 296.032 63.6855C296.161 63.1348 296.226 62.2764 296.226 61.1104C296.226 59.3994 296.079 58.251 295.786 57.665C295.499 57.0732 295.065 56.7773 294.485 56.7773C293.894 56.7773 293.466 57.0791 293.202 57.6826C292.938 58.2803 292.807 59.3906 292.807 61.0137Z" fill="white"/>
</g>
<rect x="378" y="28" width="50" height="28" rx="10" fill="#383C45"/>
<path d="M395.171 36.79C394.811 37.18 394.361 37.525 393.821 37.855C393.281 38.155 392.786 38.365 392.306 38.485V40.105C393.296 39.82 394.121 39.37 394.766 38.755V47.5H396.401V36.79H395.171ZM403.499 35.2L398.249 49H399.644L404.879 35.2H403.499ZM409.979 36.58C408.839 36.58 407.909 36.955 407.219 37.735C406.544 38.455 406.199 39.415 406.184 40.615H407.819C407.849 39.745 408.029 39.1 408.389 38.65C408.734 38.185 409.244 37.96 409.919 37.96C410.549 37.96 411.044 38.11 411.374 38.41C411.704 38.71 411.869 39.16 411.869 39.76C411.869 40.39 411.614 40.975 411.134 41.515C410.834 41.83 410.324 42.235 409.604 42.745C408.389 43.585 407.579 44.23 407.189 44.695C406.469 45.505 406.124 46.435 406.124 47.5H413.504V46.06H408.149C408.374 45.475 409.064 44.8 410.219 44.035C411.284 43.315 412.019 42.745 412.439 42.31C413.129 41.545 413.489 40.705 413.489 39.775C413.489 38.83 413.159 38.065 412.514 37.465C411.854 36.865 410.999 36.58 409.979 36.58Z" fill="#7C8499"/>
<rect x="378" y="64" width="50" height="28" rx="10" fill="#383C45"/>
<path d="M399.191 72.58C398.051 72.58 397.121 72.955 396.431 73.735C395.756 74.455 395.411 75.415 395.396 76.615H397.031C397.061 75.745 397.241 75.1 397.601 74.65C397.946 74.185 398.456 73.96 399.131 73.96C399.761 73.96 400.256 74.11 400.586 74.41C400.916 74.71 401.081 75.16 401.081 75.76C401.081 76.39 400.826 76.975 400.346 77.515C400.046 77.83 399.536 78.235 398.816 78.745C397.601 79.585 396.791 80.23 396.401 80.695C395.681 81.505 395.336 82.435 395.336 83.5H402.716V82.06H397.361C397.586 81.475 398.276 80.8 399.431 80.035C400.496 79.315 401.231 78.745 401.651 78.31C402.341 77.545 402.701 76.705 402.701 75.775C402.701 74.83 402.371 74.065 401.726 73.465C401.066 72.865 400.211 72.58 399.191 72.58ZM403.94 75.745L406.625 79.375L403.595 83.5H405.47L407.51 80.545L409.535 83.5H411.395L408.38 79.375L411.065 75.745H409.205L407.51 78.205L405.8 75.745H403.94Z" fill="#7C8499"/>
<rect x="23.5" y="20.5" width="412" height="79" rx="9.5" stroke="#55657E"/>
<rect x="23" y="122" width="196.5" height="80" rx="10" fill="#161F2C"/>
<path d="M36.9 160.097C36.484 160.097 36.12 160.214 35.808 160.474C35.548 160.656 35.327 160.929 35.158 161.293V160.279H33.78V167H35.158V163.438C35.158 162.853 35.327 162.372 35.678 162.008C36.003 161.67 36.38 161.501 36.796 161.501C37.108 161.501 37.433 161.54 37.771 161.644V160.266C37.537 160.149 37.238 160.097 36.9 160.097ZM38.6169 160.279V164.465C38.6169 166.272 39.4229 167.182 41.0479 167.182C41.8929 167.182 42.5949 166.818 43.1669 166.09V167H44.5449V160.279H43.1669V164.387C43.0499 164.881 42.8289 165.284 42.5169 165.583C42.2049 165.869 41.8799 166.025 41.5159 166.025C40.9829 166.025 40.5929 165.882 40.3589 165.622C40.1119 165.362 39.9949 164.946 39.9949 164.374V160.279H38.6169ZM41.478 156.393C41.088 156.393 40.698 156.458 40.308 156.601V157.238C40.685 157.056 41.049 156.965 41.4 156.965C41.907 156.965 42.167 157.108 42.167 157.394C42.167 157.68 41.855 157.979 41.231 158.291L41.595 158.668C42.44 158.343 42.869 157.914 42.869 157.381C42.869 156.718 42.401 156.393 41.478 156.393ZM47.0948 157.588C46.8218 157.588 46.6008 157.666 46.4188 157.848C46.2368 158.017 46.1458 158.238 46.1458 158.511C46.1458 158.771 46.2368 159.005 46.4188 159.187C46.6008 159.356 46.8218 159.447 47.0948 159.447C47.3548 159.447 47.5888 159.356 47.7708 159.187C47.9528 159.005 48.0568 158.784 48.0568 158.511C48.0568 158.238 47.9658 158.017 47.7838 157.848C47.6018 157.666 47.3678 157.588 47.0948 157.588ZM46.4058 160.279V167H47.7838V160.279H46.4058ZM57.0982 160.097C56.6822 160.097 56.3182 160.214 56.0062 160.474C55.7462 160.656 55.5252 160.929 55.3562 161.293V160.279H53.9782V167H55.3562V163.438C55.3562 162.853 55.5252 162.372 55.8762 162.008C56.2012 161.67 56.5782 161.501 56.9942 161.501C57.3062 161.501 57.6312 161.54 57.9692 161.644V160.266C57.7352 160.149 57.4362 160.097 57.0982 160.097ZM61.9092 160.097C60.8952 160.097 60.0762 160.435 59.4652 161.111C58.8542 161.774 58.5552 162.619 58.5552 163.646C58.5552 164.66 58.8542 165.505 59.4522 166.155C60.0762 166.831 60.8952 167.182 61.9092 167.182C62.9232 167.182 63.7422 166.831 64.3662 166.155C64.9642 165.505 65.2632 164.66 65.2632 163.646C65.2632 162.619 64.9512 161.774 64.3532 161.111C63.7422 160.435 62.9232 160.097 61.9092 160.097ZM61.9092 161.228C62.5462 161.228 63.0402 161.475 63.4042 161.982C63.7162 162.411 63.8722 162.97 63.8722 163.646C63.8722 164.309 63.7162 164.855 63.4042 165.297C63.0402 165.791 62.5462 166.051 61.9092 166.051C61.2722 166.051 60.7782 165.791 60.4272 165.297C60.1152 164.868 59.9722 164.322 59.9722 163.646C59.9722 162.97 60.1152 162.411 60.4272 161.982C60.7782 161.475 61.2722 161.228 61.9092 161.228ZM71.8891 160.331C71.6031 160.331 71.3821 160.422 71.2131 160.617C71.0181 160.799 70.9271 161.033 70.9271 161.306C70.9271 161.566 71.0181 161.8 71.2131 161.995C71.3821 162.177 71.6031 162.268 71.8891 162.268C72.1491 162.268 72.3831 162.177 72.5781 161.995C72.7601 161.8 72.8641 161.566 72.8641 161.306C72.8641 161.033 72.7601 160.799 72.5781 160.617C72.3831 160.422 72.1491 160.331 71.8891 160.331ZM71.8891 165.089C71.6031 165.089 71.3821 165.18 71.2131 165.375C71.0181 165.557 70.9271 165.791 70.9271 166.064C70.9271 166.324 71.0181 166.558 71.2131 166.753C71.3821 166.935 71.6031 167.026 71.8891 167.026C72.1491 167.026 72.3831 166.935 72.5781 166.753C72.7601 166.558 72.8641 166.324 72.8641 166.064C72.8641 165.791 72.7601 165.557 72.5781 165.375C72.3831 165.18 72.1491 165.089 71.8891 165.089Z" fill="#7C8499"/>
<rect x="80.5" y="132.5" width="128.5" height="59" rx="9.5" fill="#161F2C"/>
<path d="M92.195 157.718V158.927H95.302V167H96.706V158.927H99.8V157.718H92.195ZM100.791 157.536V167H102.169V163.23C102.169 162.645 102.312 162.164 102.611 161.787C102.897 161.41 103.274 161.228 103.742 161.228C104.262 161.228 104.665 161.384 104.925 161.709C105.159 162.021 105.289 162.463 105.289 163.061V167H106.667V162.827C106.667 161.943 106.472 161.267 106.082 160.812C105.666 160.331 105.055 160.097 104.249 160.097C103.82 160.097 103.443 160.175 103.105 160.357C102.728 160.539 102.416 160.838 102.169 161.228V157.536H100.791ZM110.583 157.692L109.166 159.343H110.115L111.181 158.29L112.273 159.343H113.144L111.792 157.692H110.583ZM111.259 160.097C110.427 160.097 109.751 160.24 109.257 160.552C108.685 160.89 108.321 161.436 108.178 162.164L109.543 162.281C109.621 161.904 109.816 161.631 110.128 161.449C110.388 161.293 110.739 161.215 111.168 161.215C112.182 161.215 112.689 161.683 112.689 162.619V162.892L111.181 162.931C110.193 162.957 109.413 163.152 108.867 163.542C108.269 163.945 107.97 164.53 107.97 165.284C107.97 165.843 108.178 166.298 108.607 166.649C108.997 167 109.543 167.182 110.245 167.182C110.83 167.182 111.35 167.078 111.792 166.87C112.182 166.662 112.52 166.389 112.78 166.051V167H114.054V162.71C114.054 161.891 113.846 161.267 113.443 160.838C112.975 160.344 112.247 160.097 111.259 160.097ZM112.689 163.893V164.283C112.689 164.803 112.468 165.245 112.052 165.596C111.636 165.947 111.142 166.129 110.557 166.129C110.206 166.129 109.92 166.038 109.712 165.869C109.491 165.7 109.387 165.492 109.387 165.232C109.387 164.4 110.011 163.958 111.272 163.932L112.689 163.893ZM111.002 154.614L109.767 156.512H110.677L112.523 154.614H111.002ZM118.999 160.097C118.089 160.097 117.387 160.422 116.919 161.085V160.279H115.632V169.574H117.01V166.012C117.556 166.792 118.232 167.182 119.064 167.182C120.026 167.182 120.793 166.831 121.339 166.129C121.846 165.479 122.106 164.66 122.106 163.672C122.106 162.632 121.846 161.8 121.326 161.15C120.754 160.448 119.987 160.097 118.999 160.097ZM118.791 161.215C119.467 161.215 119.961 161.449 120.286 161.943C120.546 162.359 120.689 162.931 120.689 163.672C120.689 164.413 120.533 164.985 120.247 165.401C119.922 165.843 119.428 166.064 118.752 166.064C118.232 166.064 117.816 165.856 117.504 165.453C117.14 165.011 116.971 164.426 116.971 163.711V163.594C116.971 162.905 117.114 162.346 117.4 161.93C117.725 161.449 118.193 161.215 118.791 161.215Z" fill="white"/>
<path fill-rule="evenodd" clip-rule="evenodd" d="M186.5 166.375L179.5 159.805L180.565 158.5L186.5 164.07L192.435 158.5L193.5 159.805L186.5 166.375Z" fill="#7C8499"/>
<rect x="80.5" y="132.5" width="128.5" height="59" rx="9.5" stroke="#55657E"/>
<rect x="239.5" y="122" width="196.5" height="80" rx="10" fill="#161F2C"/>
<path d="M253.686 160.097C253.27 160.097 252.893 160.175 252.555 160.357C252.217 160.526 251.918 160.773 251.658 161.111V160.279H250.28V167H251.658V162.957C251.71 162.411 251.905 161.982 252.217 161.67C252.503 161.384 252.854 161.254 253.244 161.254C254.284 161.254 254.817 161.826 254.817 162.97V167H256.195V162.853C256.195 161.007 255.35 160.097 253.686 160.097ZM260.565 160.097C259.655 160.097 258.914 160.409 258.355 161.046C257.783 161.67 257.51 162.476 257.51 163.49C257.51 164.504 257.783 165.31 258.355 165.921C258.914 166.532 259.655 166.844 260.565 166.844C261.449 166.844 262.125 166.467 262.619 165.726V166.766C262.619 168.027 262.034 168.664 260.864 168.664C260.318 168.664 259.915 168.573 259.668 168.417C259.408 168.248 259.252 167.962 259.174 167.572H257.796C257.926 168.313 258.225 168.859 258.719 169.223C259.213 169.574 259.928 169.756 260.864 169.756C262.944 169.756 263.997 168.69 263.997 166.558V160.279H262.619V161.176C262.125 160.448 261.449 160.097 260.565 160.097ZM260.773 161.215C261.358 161.215 261.813 161.41 262.151 161.826C262.463 162.229 262.632 162.788 262.632 163.49C262.632 164.179 262.463 164.725 262.151 165.128C261.813 165.518 261.358 165.713 260.773 165.713C260.097 165.713 259.616 165.479 259.317 165.037C259.057 164.66 258.927 164.14 258.927 163.49C258.927 162.775 259.083 162.216 259.421 161.826C259.733 161.41 260.188 161.215 260.773 161.215ZM268.581 160.097C267.749 160.097 267.073 160.24 266.579 160.552C266.007 160.89 265.643 161.436 265.5 162.164L266.865 162.281C266.943 161.904 267.138 161.631 267.45 161.449C267.71 161.293 268.061 161.215 268.49 161.215C269.504 161.215 270.011 161.683 270.011 162.619V162.892L268.503 162.931C267.515 162.957 266.735 163.152 266.189 163.542C265.591 163.945 265.292 164.53 265.292 165.284C265.292 165.843 265.5 166.298 265.929 166.649C266.319 167 266.865 167.182 267.567 167.182C268.165 167.182 268.685 167.065 269.127 166.857C269.517 166.662 269.842 166.389 270.102 166.051V167H271.376V162.71C271.376 161.891 271.168 161.267 270.765 160.838C270.297 160.344 269.569 160.097 268.581 160.097ZM270.011 163.893V164.283C270.011 164.803 269.79 165.245 269.374 165.596C268.958 165.947 268.464 166.129 267.879 166.129C267.528 166.129 267.242 166.038 267.034 165.869C266.813 165.7 266.709 165.492 266.709 165.232C266.709 164.4 267.333 163.958 268.594 163.932L270.011 163.893ZM276.36 160.097C275.944 160.097 275.567 160.175 275.229 160.357C274.891 160.526 274.592 160.773 274.332 161.111V160.279H272.954V167H274.332V162.957C274.384 162.411 274.579 161.982 274.891 161.67C275.177 161.384 275.528 161.254 275.918 161.254C276.958 161.254 277.491 161.826 277.491 162.97V167H278.869V162.853C278.869 161.007 278.024 160.097 276.36 160.097ZM283.239 160.097C282.329 160.097 281.588 160.409 281.029 161.046C280.457 161.67 280.184 162.476 280.184 163.49C280.184 164.504 280.457 165.31 281.029 165.921C281.588 166.532 282.329 166.844 283.239 166.844C284.123 166.844 284.799 166.467 285.293 165.726V166.766C285.293 168.027 284.708 168.664 283.538 168.664C282.992 168.664 282.589 168.573 282.342 168.417C282.082 168.248 281.926 167.962 281.848 167.572H280.47C280.6 168.313 280.899 168.859 281.393 169.223C281.887 169.574 282.602 169.756 283.538 169.756C285.618 169.756 286.671 168.69 286.671 166.558V160.279H285.293V161.176C284.799 160.448 284.123 160.097 283.239 160.097ZM283.447 161.215C284.032 161.215 284.487 161.41 284.825 161.826C285.137 162.229 285.306 162.788 285.306 163.49C285.306 164.179 285.137 164.725 284.825 165.128C284.487 165.518 284.032 165.713 283.447 165.713C282.771 165.713 282.29 165.479 281.991 165.037C281.731 164.66 281.601 164.14 281.601 163.49C281.601 162.775 281.757 162.216 282.095 161.826C282.407 161.41 282.862 161.215 283.447 161.215ZM293.543 160.331C293.257 160.331 293.036 160.422 292.867 160.617C292.672 160.799 292.581 161.033 292.581 161.306C292.581 161.566 292.672 161.8 292.867 161.995C293.036 162.177 293.257 162.268 293.543 162.268C293.803 162.268 294.037 162.177 294.232 161.995C294.414 161.8 294.518 161.566 294.518 161.306C294.518 161.033 294.414 160.799 294.232 160.617C294.037 160.422 293.803 160.331 293.543 160.331ZM293.543 165.089C293.257 165.089 293.036 165.18 292.867 165.375C292.672 165.557 292.581 165.791 292.581 166.064C292.581 166.324 292.672 166.558 292.867 166.753C293.036 166.935 293.257 167.026 293.543 167.026C293.803 167.026 294.037 166.935 294.232 166.753C294.414 166.558 294.518 166.324 294.518 166.064C294.518 165.791 294.414 165.557 294.232 165.375C294.037 165.18 293.803 165.089 293.543 165.089Z" fill="#7C8499"/>
<rect x="302" y="132.5" width="123.5" height="59" rx="9.5" fill="#161F2C"/>
<path d="M316.516 157.718C316.204 158.056 315.814 158.355 315.346 158.641C314.878 158.901 314.449 159.083 314.033 159.187V160.591C314.891 160.344 315.606 159.954 316.165 159.421V167H317.582V157.718H316.516ZM322.85 157.536C321.862 157.536 321.056 157.861 320.458 158.537C319.873 159.161 319.574 159.993 319.561 161.033H320.978C321.004 160.279 321.16 159.72 321.472 159.33C321.771 158.927 322.213 158.732 322.798 158.732C323.344 158.732 323.773 158.862 324.059 159.122C324.345 159.382 324.488 159.772 324.488 160.292C324.488 160.838 324.267 161.345 323.851 161.813C323.591 162.086 323.149 162.437 322.525 162.879C321.472 163.607 320.77 164.166 320.432 164.569C319.808 165.271 319.509 166.077 319.509 167H325.905V165.752H321.264C321.459 165.245 322.057 164.66 323.058 163.997C323.981 163.373 324.618 162.879 324.982 162.502C325.58 161.839 325.892 161.111 325.892 160.305C325.892 159.486 325.606 158.823 325.047 158.303C324.475 157.783 323.734 157.536 322.85 157.536ZM331.711 157.536V167H333.089V163.23C333.089 162.645 333.232 162.164 333.531 161.787C333.817 161.41 334.194 161.228 334.662 161.228C335.182 161.228 335.585 161.384 335.845 161.709C336.079 162.021 336.209 162.463 336.209 163.061V167H337.587V162.827C337.587 161.943 337.392 161.267 337.002 160.812C336.586 160.331 335.975 160.097 335.169 160.097C334.74 160.097 334.363 160.175 334.025 160.357C333.648 160.539 333.336 160.838 333.089 161.228V157.536H331.711ZM340.19 157.614L342.049 159.512H342.946L341.711 157.614H340.19ZM342.179 160.097C341.347 160.097 340.671 160.24 340.177 160.552C339.605 160.89 339.241 161.436 339.098 162.164L340.463 162.281C340.541 161.904 340.736 161.631 341.048 161.449C341.308 161.293 341.659 161.215 342.088 161.215C343.102 161.215 343.609 161.683 343.609 162.619V162.892L342.101 162.931C341.113 162.957 340.333 163.152 339.787 163.542C339.189 163.945 338.89 164.53 338.89 165.284C338.89 165.843 339.098 166.298 339.527 166.649C339.917 167 340.463 167.182 341.165 167.182C341.75 167.182 342.27 167.078 342.712 166.87C343.102 166.662 343.44 166.389 343.7 166.051V167H344.974V162.71C344.974 161.891 344.766 161.267 344.363 160.838C343.895 160.344 343.167 160.097 342.179 160.097ZM343.609 163.893V164.283C343.609 164.803 343.388 165.245 342.972 165.596C342.556 165.947 342.062 166.129 341.477 166.129C341.126 166.129 340.84 166.038 340.632 165.869C340.411 165.7 340.307 165.492 340.307 165.232C340.307 164.4 340.931 163.958 342.192 163.932L343.609 163.893ZM349.957 160.097C349.541 160.097 349.164 160.175 348.826 160.357C348.488 160.526 348.189 160.773 347.929 161.111V160.279H346.551V167H347.929V162.957C347.981 162.411 348.176 161.982 348.488 161.67C348.774 161.384 349.125 161.254 349.515 161.254C350.555 161.254 351.088 161.826 351.088 162.97V167H352.466V162.853C352.466 161.007 351.621 160.097 349.957 160.097ZM356.837 160.097C355.927 160.097 355.186 160.409 354.627 161.046C354.055 161.67 353.782 162.476 353.782 163.49C353.782 164.504 354.055 165.31 354.627 165.921C355.186 166.532 355.927 166.844 356.837 166.844C357.721 166.844 358.397 166.467 358.891 165.726V166.766C358.891 168.027 358.306 168.664 357.136 168.664C356.59 168.664 356.187 168.573 355.94 168.417C355.68 168.248 355.524 167.962 355.446 167.572H354.068C354.198 168.313 354.497 168.859 354.991 169.223C355.485 169.574 356.2 169.756 357.136 169.756C359.216 169.756 360.269 168.69 360.269 166.558V160.279H358.891V161.176C358.397 160.448 357.721 160.097 356.837 160.097ZM357.045 161.215C357.63 161.215 358.085 161.41 358.423 161.826C358.735 162.229 358.904 162.788 358.904 163.49C358.904 164.179 358.735 164.725 358.423 165.128C358.085 165.518 357.63 165.713 357.045 165.713C356.369 165.713 355.888 165.479 355.589 165.037C355.329 164.66 355.199 164.14 355.199 163.49C355.199 162.775 355.355 162.216 355.693 161.826C356.005 161.41 356.46 161.215 357.045 161.215Z" fill="white"/>
<path fill-rule="evenodd" clip-rule="evenodd" d="M403 166.375L396 159.805L397.065 158.5L403 164.07L408.935 158.5L410 159.805L403 166.375Z" fill="#7C8499"/>
<rect x="302" y="132.5" width="123.5" height="59" rx="9.5" stroke="#55657E"/>
<rect x="23" y="224" width="413" height="80" rx="10" fill="#F04E23"/>
<g filter="url(#filter0_d_1887_18629)">
<path d="M195.607 258.8V259.916H198.595V262.58C197.839 261.482 196.885 260.942 195.751 260.942C194.401 260.942 193.357 261.428 192.601 262.4C191.881 263.3 191.539 264.434 191.539 265.802C191.539 267.224 191.899 268.394 192.619 269.294C193.393 270.266 194.473 270.752 195.841 270.752C197.101 270.752 198.073 270.284 198.721 269.384V270.5H200.503V259.916H201.979V258.8H200.503V257.396H198.595V258.8H195.607ZM196.183 262.49C196.885 262.49 197.461 262.76 197.929 263.336C198.397 263.948 198.649 264.758 198.649 265.766V265.928C198.649 266.864 198.451 267.638 198.055 268.214C197.587 268.862 196.957 269.204 196.129 269.204C195.193 269.204 194.491 268.862 194.059 268.196C193.681 267.62 193.501 266.828 193.501 265.802C193.501 264.776 193.699 263.984 194.095 263.444C194.545 262.796 195.247 262.49 196.183 262.49ZM207.255 260.942C206.103 260.942 205.167 261.14 204.483 261.572C203.691 262.04 203.187 262.796 202.989 263.804L204.879 263.966C204.987 263.444 205.257 263.066 205.689 262.814C206.049 262.598 206.535 262.49 207.129 262.49C208.533 262.49 209.235 263.138 209.235 264.434V264.812L207.147 264.866C205.779 264.902 204.699 265.172 203.943 265.712C203.115 266.27 202.701 267.08 202.701 268.124C202.701 268.898 202.989 269.528 203.583 270.014C204.123 270.5 204.879 270.752 205.851 270.752C206.679 270.752 207.399 270.59 208.011 270.302C208.551 270.032 209.001 269.654 209.361 269.186V270.5H211.125V264.56C211.125 263.426 210.837 262.562 210.279 261.968C209.631 261.284 208.623 260.942 207.255 260.942ZM209.235 266.198V266.738C209.235 267.458 208.929 268.07 208.353 268.556C207.777 269.042 207.093 269.294 206.283 269.294C205.797 269.294 205.401 269.168 205.113 268.934C204.807 268.7 204.663 268.412 204.663 268.052C204.663 266.9 205.527 266.288 207.273 266.252L209.235 266.198ZM207.097 271.67C206.827 271.67 206.611 271.76 206.431 271.94C206.233 272.12 206.143 272.354 206.143 272.624C206.143 272.876 206.233 273.11 206.431 273.29C206.611 273.47 206.827 273.56 207.097 273.56C207.349 273.56 207.583 273.47 207.763 273.29C207.943 273.11 208.051 272.876 208.051 272.624C208.051 272.354 207.943 272.12 207.763 271.94C207.583 271.76 207.349 271.67 207.097 271.67ZM204.343 257.594C204.559 259.16 205.477 259.952 207.097 259.952C208.717 259.952 209.635 259.16 209.851 257.594H208.879C208.681 258.458 208.087 258.89 207.097 258.89C206.089 258.89 205.495 258.458 205.315 257.594H204.343ZM216.135 258.188L214.227 258.98V261.194H212.499V262.778H214.227V268.178C214.227 268.916 214.389 269.474 214.749 269.87C215.109 270.284 215.703 270.5 216.495 270.5H218.025V268.916H216.801C216.567 268.916 216.405 268.844 216.297 268.736C216.189 268.61 216.135 268.43 216.135 268.178V262.778H218.259V261.194H216.135V258.188ZM229.93 260.942C228.49 260.942 227.374 261.428 226.564 262.4C225.808 263.3 225.43 264.452 225.43 265.856C225.43 267.296 225.808 268.448 226.582 269.348C227.374 270.284 228.472 270.752 229.894 270.752C231.082 270.752 232.054 270.446 232.774 269.852C233.494 269.24 233.98 268.304 234.196 267.062H232.306C232.126 268.466 231.334 269.186 229.912 269.186C229.084 269.186 228.472 268.88 228.058 268.304C227.608 267.71 227.392 266.882 227.392 265.838C227.392 264.794 227.608 263.966 228.076 263.39C228.526 262.796 229.138 262.508 229.93 262.508C230.578 262.508 231.1 262.652 231.496 262.958C231.892 263.246 232.144 263.714 232.27 264.344H234.16C233.98 263.192 233.512 262.328 232.792 261.752C232.072 261.212 231.118 260.942 229.93 260.942ZM244.845 258.962V260.114C244.845 260.834 244.485 261.194 243.783 261.194H242.127V266.882C241.965 267.566 241.659 268.124 241.227 268.538C240.795 268.934 240.345 269.15 239.841 269.15C239.103 269.15 238.563 268.952 238.239 268.592C237.897 268.232 237.735 267.656 237.735 266.864V261.194H235.827V266.99C235.827 269.492 236.943 270.752 239.193 270.752C240.363 270.752 241.335 270.248 242.127 269.24V270.5H244.035V262.562H244.377C245.781 262.562 246.483 261.788 246.483 260.276V258.962H244.845ZM256.146 258.926V260.078C256.146 260.942 255.84 261.392 255.228 261.392C255.03 261.392 254.598 261.32 253.932 261.176C253.266 261.014 252.69 260.942 252.222 260.942C250.818 260.942 249.684 261.41 248.838 262.346C247.992 263.264 247.578 264.434 247.578 265.856C247.578 267.26 247.992 268.43 248.82 269.33C249.684 270.266 250.818 270.752 252.222 270.752C253.626 270.752 254.76 270.266 255.624 269.33C256.452 268.43 256.866 267.26 256.866 265.856C256.866 264.596 256.542 263.552 255.912 262.706L255.966 262.616H256.254C256.668 262.616 257.028 262.436 257.316 262.112C257.622 261.716 257.784 261.194 257.784 260.51V258.926H256.146ZM252.222 262.508C253.104 262.508 253.788 262.85 254.292 263.552C254.724 264.146 254.94 264.92 254.94 265.856C254.94 266.774 254.724 267.53 254.292 268.142C253.788 268.826 253.104 269.186 252.222 269.186C251.34 269.186 250.656 268.826 250.17 268.142C249.738 267.548 249.54 266.792 249.54 265.856C249.54 264.92 249.738 264.146 250.17 263.552C250.656 262.85 251.34 262.508 252.222 262.508ZM252.501 271.67C252.231 271.67 252.015 271.76 251.835 271.94C251.637 272.12 251.547 272.354 251.547 272.624C251.547 272.876 251.637 273.11 251.835 273.29C252.015 273.47 252.231 273.56 252.501 273.56C252.753 273.56 252.987 273.47 253.167 273.29C253.347 273.11 253.455 272.876 253.455 272.624C253.455 272.354 253.347 272.12 253.167 271.94C252.987 271.76 252.753 271.67 252.501 271.67ZM263.364 260.942C261.924 260.942 260.808 261.428 259.998 262.4C259.242 263.3 258.864 264.452 258.864 265.856C258.864 267.296 259.242 268.448 260.016 269.348C260.808 270.284 261.906 270.752 263.328 270.752C264.516 270.752 265.488 270.446 266.208 269.852C266.928 269.24 267.414 268.304 267.63 267.062H265.74C265.56 268.466 264.768 269.186 263.346 269.186C262.518 269.186 261.906 268.88 261.492 268.304C261.042 267.71 260.826 266.882 260.826 265.838C260.826 264.794 261.042 263.966 261.51 263.39C261.96 262.796 262.572 262.508 263.364 262.508C264.012 262.508 264.534 262.652 264.93 262.958C265.326 263.246 265.578 263.714 265.704 264.344H267.594C267.414 263.192 266.946 262.328 266.226 261.752C265.506 261.212 264.552 260.942 263.364 260.942Z" fill="white"/>
</g>
</g>
<defs>
<filter id="filter0_d_1887_18629" x="187.539" y="255.395" width="84.0898" height="24.1641" filterUnits="userSpaceOnUse" color-interpolation-filters="sRGB">
<feFlood flood-opacity="0" result="BackgroundImageFix"/>
<feColorMatrix in="SourceAlpha" type="matrix" values="0 0 0 0 0 0 0 0 0 0 0 0 0 0 0 0 0 0 127 0" result="hardAlpha"/>
<feOffset dy="2"/>
<feGaussianBlur stdDeviation="2"/>
<feComposite in2="hardAlpha" operator="out"/>
<feColorMatrix type="matrix" values="0 0 0 0 0 0 0 0 0 0 0 0 0 0 0 0 0 0 0.3 0"/>
<feBlend mode="normal" in2="BackgroundImageFix" result="effect1_dropShadow_1887_18629"/>
<feBlend mode="normal" in="SourceGraphic" in2="effect1_dropShadow_1887_18629" result="shape"/>
</filter>
<clipPath id="clip0_1887_18629">
<rect width="413" height="284" fill="white" transform="translate(23.5 20)"/>
</clipPath>
<clipPath id="clip1_1887_18629">
<rect width="143" height="25" fill="white" transform="translate(158 47.5)"/>
</clipPath>
<clipPath id="clip2_1887_18629">
<rect width="24" height="24" fill="white" transform="translate(158 47.5)"/>
</clipPath>
</defs>
</svg>
