<svg width="460" height="324" viewBox="0 0 460 324" fill="none" xmlns="http://www.w3.org/2000/svg">
<rect width="460" height="324" rx="10" fill="#F4F7FD"/>
<g clip-path="url(#clip0_1889_22048)">
<rect x="23.5" y="20.5" width="412" height="79" rx="9.5" fill="white"/>
<rect x="31" y="28" width="50" height="28" rx="10" fill="#F1F1F1"/>
<path d="M41.87 40.96V42.1H43.175V47.05L41.885 47.11L42.065 48.31C44.09 48.175 45.785 48.025 47.15 47.86V49.09H48.515V47.68C48.8 47.62 49.07 47.575 49.31 47.53V46.435L48.515 46.57V42.1H55.16V40.96H41.87ZM44.48 46.975V45.94H47.15V46.75C46.34 46.84 45.455 46.915 44.48 46.975ZM44.48 44.92V44.005H47.15V44.92H44.48ZM44.48 42.985V42.1H47.15V42.985H44.48ZM43.64 35.665V40.21H53.45V35.665H43.64ZM52.085 39.22H45.005V38.425H52.085V39.22ZM45.005 37.45V36.7H52.085V37.45H45.005ZM49.61 44.02C49.88 45.01 50.39 45.925 51.155 46.765C50.555 47.245 49.835 47.65 48.98 48.01L49.715 49.105C50.63 48.715 51.425 48.235 52.115 47.665C52.775 48.19 53.555 48.67 54.485 49.105L55.22 47.92C54.365 47.575 53.63 47.185 53.015 46.75C53.66 45.955 54.11 45.025 54.365 43.945V42.865H49.145V44.02H49.61ZM52.025 45.925C51.47 45.355 51.08 44.71 50.84 44.02H53.09C52.865 44.71 52.505 45.34 52.025 45.925ZM62.675 48.88C63.875 48.88 64.49 48.25 64.49 46.99V35.425H63.005V46.615C63.005 47.2 62.705 47.5 62.135 47.5C61.505 47.5 60.845 47.455 60.125 47.395L60.47 48.88H62.675ZM58.97 38.905C58.415 41.515 57.56 43.6 56.42 45.16L57.665 46.255C58.79 44.695 59.705 42.43 60.395 39.475L58.97 38.905ZM68 38.53L66.695 39.34C67.745 41.92 68.585 44.245 69.215 46.33L70.505 45.445C69.92 43.465 69.08 41.17 68 38.53Z" fill="#A6A6A6"/>
<rect x="31" y="64" width="50" height="28" rx="10" fill="#F1F1F1"/>
<path d="M41.87 76.96V78.1H43.175V83.05L41.885 83.11L42.065 84.31C44.09 84.175 45.785 84.025 47.15 83.86V85.09H48.515V83.68C48.8 83.62 49.07 83.575 49.31 83.53V82.435L48.515 82.57V78.1H55.16V76.96H41.87ZM44.48 82.975V81.94H47.15V82.75C46.34 82.84 45.455 82.915 44.48 82.975ZM44.48 80.92V80.005H47.15V80.92H44.48ZM44.48 78.985V78.1H47.15V78.985H44.48ZM43.64 71.665V76.21H53.45V71.665H43.64ZM52.085 75.22H45.005V74.425H52.085V75.22ZM45.005 73.45V72.7H52.085V73.45H45.005ZM49.61 80.02C49.88 81.01 50.39 81.925 51.155 82.765C50.555 83.245 49.835 83.65 48.98 84.01L49.715 85.105C50.63 84.715 51.425 84.235 52.115 83.665C52.775 84.19 53.555 84.67 54.485 85.105L55.22 83.92C54.365 83.575 53.63 83.185 53.015 82.75C53.66 81.955 54.11 81.025 54.365 79.945V78.865H49.145V80.02H49.61ZM52.025 81.925C51.47 81.355 51.08 80.71 50.84 80.02H53.09C52.865 80.71 52.505 81.34 52.025 81.925ZM56.87 75.025V76.405H62.375C61.58 79.915 59.63 82.435 56.54 83.935L57.455 85.135C60.5 83.53 62.525 81.01 63.515 77.575C64.655 80.755 66.68 83.23 69.56 85L70.445 83.845C67.475 82.09 65.45 79.615 64.4 76.405H70.13V75.025H64.04C64.16 74.125 64.22 73.18 64.22 72.19V71.215H62.78V72.52C62.765 73.39 62.705 74.23 62.615 75.025H56.87Z" fill="#A6A6A6"/>
<g clip-path="url(#clip1_1889_22048)">
<g clip-path="url(#clip2_1889_22048)">
<path d="M181.638 62.4029C180.036 68.8315 173.524 72.7438 167.095 71.1407C160.668 69.538 156.756 63.0265 158.359 56.5984C159.961 50.169 166.473 46.2564 172.9 47.8591C179.329 49.4618 183.241 55.974 181.638 62.403L181.638 62.4029H181.638Z" fill="#F7931A"/>
<path d="M175.291 57.7894C175.53 56.1924 174.314 55.334 172.652 54.7614L173.191 52.5982L171.874 52.27L171.349 54.3763C171.003 54.2899 170.647 54.2086 170.294 54.1279L170.823 52.0078L169.507 51.6797L168.967 53.8422C168.681 53.777 168.399 53.7125 168.126 53.6446L168.128 53.6378L166.312 53.1843L165.962 54.5907C165.962 54.5907 166.939 54.8147 166.918 54.8285C167.451 54.9615 167.548 55.3145 167.532 55.5943L166.917 58.0587C166.954 58.068 167.002 58.0815 167.054 58.1026C167.01 58.0917 166.964 58.0798 166.915 58.0682L166.054 61.5205C165.989 61.6825 165.823 61.9256 165.451 61.8333C165.464 61.8524 164.494 61.5944 164.494 61.5944L163.84 63.1017L165.553 63.5289C165.872 63.6089 166.185 63.6925 166.492 63.7712L165.947 65.9592L167.263 66.2873L167.802 64.1225C168.162 64.22 168.51 64.31 168.852 64.3948L168.314 66.5494L169.631 66.8775L170.176 64.6936C172.421 65.1186 174.109 64.9472 174.82 62.9163C175.393 61.2811 174.792 60.3379 173.61 59.7229C174.471 59.5244 175.119 58.9585 175.292 57.7895L175.291 57.7892L175.291 57.7894ZM172.282 62.0082C171.876 63.6433 169.122 62.7594 168.23 62.5378L168.953 59.639C169.845 59.8619 172.708 60.3028 172.283 62.0082H172.282ZM172.69 57.7657C172.318 59.253 170.027 58.4974 169.284 58.3121L169.939 55.6831C170.683 55.8684 173.076 56.2142 172.69 57.7657H172.69Z" fill="white"/>
</g>
<path d="M187.215 61.0049C187.215 58.5557 187.654 56.8418 188.533 55.8633C189.418 54.8848 190.763 54.3955 192.567 54.3955C193.435 54.3955 194.146 54.5039 194.703 54.7207C195.26 54.9316 195.714 55.21 196.065 55.5557C196.417 55.8955 196.692 56.2559 196.892 56.6367C197.097 57.0117 197.261 57.4512 197.384 57.9551C197.624 58.916 197.744 59.918 197.744 60.9609C197.744 63.2988 197.349 65.0098 196.558 66.0938C195.767 67.1777 194.404 67.7197 192.471 67.7197C191.387 67.7197 190.511 67.5469 189.843 67.2012C189.175 66.8555 188.627 66.3486 188.199 65.6807C187.889 65.2061 187.646 64.5586 187.47 63.7383C187.3 62.9121 187.215 62.001 187.215 61.0049ZM190.766 61.0137C190.766 62.6543 190.909 63.7764 191.196 64.3799C191.489 64.9775 191.911 65.2764 192.462 65.2764C192.825 65.2764 193.139 65.1504 193.402 64.8984C193.672 64.6406 193.868 64.2363 193.991 63.6855C194.12 63.1348 194.185 62.2764 194.185 61.1104C194.185 59.3994 194.038 58.251 193.745 57.665C193.458 57.0732 193.024 56.7773 192.444 56.7773C191.853 56.7773 191.425 57.0791 191.161 57.6826C190.897 58.2803 190.766 59.3906 190.766 61.0137ZM199.572 63.9141H203.396V67.5H199.572V63.9141ZM205.215 61.0049C205.215 58.5557 205.654 56.8418 206.533 55.8633C207.418 54.8848 208.763 54.3955 210.567 54.3955C211.435 54.3955 212.146 54.5039 212.703 54.7207C213.26 54.9316 213.714 55.21 214.065 55.5557C214.417 55.8955 214.692 56.2559 214.892 56.6367C215.097 57.0117 215.261 57.4512 215.384 57.9551C215.624 58.916 215.744 59.918 215.744 60.9609C215.744 63.2988 215.349 65.0098 214.558 66.0938C213.767 67.1777 212.404 67.7197 210.471 67.7197C209.387 67.7197 208.511 67.5469 207.843 67.2012C207.175 66.8555 206.627 66.3486 206.199 65.6807C205.889 65.2061 205.646 64.5586 205.47 63.7383C205.3 62.9121 205.215 62.001 205.215 61.0049ZM208.766 61.0137C208.766 62.6543 208.909 63.7764 209.196 64.3799C209.489 64.9775 209.911 65.2764 210.462 65.2764C210.825 65.2764 211.139 65.1504 211.402 64.8984C211.672 64.6406 211.868 64.2363 211.991 63.6855C212.12 63.1348 212.185 62.2764 212.185 61.1104C212.185 59.3994 212.038 58.251 211.745 57.665C211.458 57.0732 211.024 56.7773 210.444 56.7773C209.853 56.7773 209.425 57.0791 209.161 57.6826C208.897 58.2803 208.766 59.3906 208.766 61.0137ZM217.221 61.0049C217.221 58.5557 217.66 56.8418 218.539 55.8633C219.424 54.8848 220.769 54.3955 222.573 54.3955C223.44 54.3955 224.152 54.5039 224.709 54.7207C225.266 54.9316 225.72 55.21 226.071 55.5557C226.423 55.8955 226.698 56.2559 226.897 56.6367C227.103 57.0117 227.267 57.4512 227.39 57.9551C227.63 58.916 227.75 59.918 227.75 60.9609C227.75 63.2988 227.354 65.0098 226.563 66.0938C225.772 67.1777 224.41 67.7197 222.477 67.7197C221.393 67.7197 220.517 67.5469 219.849 67.2012C219.181 66.8555 218.633 66.3486 218.205 65.6807C217.895 65.2061 217.651 64.5586 217.476 63.7383C217.306 62.9121 217.221 62.001 217.221 61.0049ZM220.771 61.0137C220.771 62.6543 220.915 63.7764 221.202 64.3799C221.495 64.9775 221.917 65.2764 222.468 65.2764C222.831 65.2764 223.145 65.1504 223.408 64.8984C223.678 64.6406 223.874 64.2363 223.997 63.6855C224.126 63.1348 224.19 62.2764 224.19 61.1104C224.19 59.3994 224.044 58.251 223.751 57.665C223.464 57.0732 223.03 56.7773 222.45 56.7773C221.858 56.7773 221.431 57.0791 221.167 57.6826C220.903 58.2803 220.771 59.3906 220.771 61.0137ZM229.227 61.0049C229.227 58.5557 229.666 56.8418 230.545 55.8633C231.43 54.8848 232.774 54.3955 234.579 54.3955C235.446 54.3955 236.158 54.5039 236.715 54.7207C237.271 54.9316 237.726 55.21 238.077 55.5557C238.429 55.8955 238.704 56.2559 238.903 56.6367C239.108 57.0117 239.272 57.4512 239.396 57.9551C239.636 58.916 239.756 59.918 239.756 60.9609C239.756 63.2988 239.36 65.0098 238.569 66.0938C237.778 67.1777 236.416 67.7197 234.482 67.7197C233.398 67.7197 232.522 67.5469 231.854 67.2012C231.187 66.8555 230.639 66.3486 230.211 65.6807C229.9 65.2061 229.657 64.5586 229.481 63.7383C229.312 62.9121 229.227 62.001 229.227 61.0049ZM232.777 61.0137C232.777 62.6543 232.921 63.7764 233.208 64.3799C233.501 64.9775 233.923 65.2764 234.474 65.2764C234.837 65.2764 235.15 65.1504 235.414 64.8984C235.684 64.6406 235.88 64.2363 236.003 63.6855C236.132 63.1348 236.196 62.2764 236.196 61.1104C236.196 59.3994 236.05 58.251 235.757 57.665C235.47 57.0732 235.036 56.7773 234.456 56.7773C233.864 56.7773 233.437 57.0791 233.173 57.6826C232.909 58.2803 232.777 59.3906 232.777 61.0137ZM241.232 61.0049C241.232 58.5557 241.672 56.8418 242.551 55.8633C243.436 54.8848 244.78 54.3955 246.585 54.3955C247.452 54.3955 248.164 54.5039 248.721 54.7207C249.277 54.9316 249.731 55.21 250.083 55.5557C250.435 55.8955 250.71 56.2559 250.909 56.6367C251.114 57.0117 251.278 57.4512 251.401 57.9551C251.642 58.916 251.762 59.918 251.762 60.9609C251.762 63.2988 251.366 65.0098 250.575 66.0938C249.784 67.1777 248.422 67.7197 246.488 67.7197C245.404 67.7197 244.528 67.5469 243.86 67.2012C243.192 66.8555 242.645 66.3486 242.217 65.6807C241.906 65.2061 241.663 64.5586 241.487 63.7383C241.317 62.9121 241.232 62.001 241.232 61.0049ZM244.783 61.0137C244.783 62.6543 244.927 63.7764 245.214 64.3799C245.507 64.9775 245.929 65.2764 246.479 65.2764C246.843 65.2764 247.156 65.1504 247.42 64.8984C247.689 64.6406 247.886 64.2363 248.009 63.6855C248.138 63.1348 248.202 62.2764 248.202 61.1104C248.202 59.3994 248.056 58.251 247.763 57.665C247.476 57.0732 247.042 56.7773 246.462 56.7773C245.87 56.7773 245.442 57.0791 245.179 57.6826C244.915 58.2803 244.783 59.3906 244.783 61.0137ZM261.351 54.3955V67.5H257.729V58.9131C257.144 59.3584 256.575 59.7188 256.024 59.9941C255.479 60.2695 254.794 60.5332 253.968 60.7852V57.8496C255.187 57.457 256.133 56.9854 256.807 56.4346C257.48 55.8838 258.008 55.2041 258.389 54.3955H261.351ZM265.244 61.0049C265.244 58.5557 265.684 56.8418 266.562 55.8633C267.447 54.8848 268.792 54.3955 270.597 54.3955C271.464 54.3955 272.176 54.5039 272.732 54.7207C273.289 54.9316 273.743 55.21 274.095 55.5557C274.446 55.8955 274.722 56.2559 274.921 56.6367C275.126 57.0117 275.29 57.4512 275.413 57.9551C275.653 58.916 275.773 59.918 275.773 60.9609C275.773 63.2988 275.378 65.0098 274.587 66.0938C273.796 67.1777 272.434 67.7197 270.5 67.7197C269.416 67.7197 268.54 67.5469 267.872 67.2012C267.204 66.8555 266.656 66.3486 266.229 65.6807C265.918 65.2061 265.675 64.5586 265.499 63.7383C265.329 62.9121 265.244 62.001 265.244 61.0049ZM268.795 61.0137C268.795 62.6543 268.938 63.7764 269.226 64.3799C269.519 64.9775 269.94 65.2764 270.491 65.2764C270.854 65.2764 271.168 65.1504 271.432 64.8984C271.701 64.6406 271.897 64.2363 272.021 63.6855C272.149 63.1348 272.214 62.2764 272.214 61.1104C272.214 59.3994 272.067 58.251 271.774 57.665C271.487 57.0732 271.054 56.7773 270.474 56.7773C269.882 56.7773 269.454 57.0791 269.19 57.6826C268.927 58.2803 268.795 59.3906 268.795 61.0137ZM277.25 61.0049C277.25 58.5557 277.689 56.8418 278.568 55.8633C279.453 54.8848 280.798 54.3955 282.603 54.3955C283.47 54.3955 284.182 54.5039 284.738 54.7207C285.295 54.9316 285.749 55.21 286.101 55.5557C286.452 55.8955 286.728 56.2559 286.927 56.6367C287.132 57.0117 287.296 57.4512 287.419 57.9551C287.659 58.916 287.779 59.918 287.779 60.9609C287.779 63.2988 287.384 65.0098 286.593 66.0938C285.802 67.1777 284.439 67.7197 282.506 67.7197C281.422 67.7197 280.546 67.5469 279.878 67.2012C279.21 66.8555 278.662 66.3486 278.234 65.6807C277.924 65.2061 277.681 64.5586 277.505 63.7383C277.335 62.9121 277.25 62.001 277.25 61.0049ZM280.801 61.0137C280.801 62.6543 280.944 63.7764 281.231 64.3799C281.524 64.9775 281.946 65.2764 282.497 65.2764C282.86 65.2764 283.174 65.1504 283.438 64.8984C283.707 64.6406 283.903 64.2363 284.026 63.6855C284.155 63.1348 284.22 62.2764 284.22 61.1104C284.22 59.3994 284.073 58.251 283.78 57.665C283.493 57.0732 283.06 56.7773 282.479 56.7773C281.888 56.7773 281.46 57.0791 281.196 57.6826C280.933 58.2803 280.801 59.3906 280.801 61.0137ZM289.256 61.0049C289.256 58.5557 289.695 56.8418 290.574 55.8633C291.459 54.8848 292.804 54.3955 294.608 54.3955C295.476 54.3955 296.188 54.5039 296.744 54.7207C297.301 54.9316 297.755 55.21 298.106 55.5557C298.458 55.8955 298.733 56.2559 298.933 56.6367C299.138 57.0117 299.302 57.4512 299.425 57.9551C299.665 58.916 299.785 59.918 299.785 60.9609C299.785 63.2988 299.39 65.0098 298.599 66.0938C297.808 67.1777 296.445 67.7197 294.512 67.7197C293.428 67.7197 292.552 67.5469 291.884 67.2012C291.216 66.8555 290.668 66.3486 290.24 65.6807C289.93 65.2061 289.687 64.5586 289.511 63.7383C289.341 62.9121 289.256 62.001 289.256 61.0049ZM292.807 61.0137C292.807 62.6543 292.95 63.7764 293.237 64.3799C293.53 64.9775 293.952 65.2764 294.503 65.2764C294.866 65.2764 295.18 65.1504 295.443 64.8984C295.713 64.6406 295.909 64.2363 296.032 63.6855C296.161 63.1348 296.226 62.2764 296.226 61.1104C296.226 59.3994 296.079 58.251 295.786 57.665C295.499 57.0732 295.065 56.7773 294.485 56.7773C293.894 56.7773 293.466 57.0791 293.202 57.6826C292.938 58.2803 292.807 59.3906 292.807 61.0137Z" fill="#484848"/>
</g>
<rect x="378" y="28" width="50" height="28" rx="10" fill="#F1F1F1"/>
<path d="M395.171 36.79C394.811 37.18 394.361 37.525 393.821 37.855C393.281 38.155 392.786 38.365 392.306 38.485V40.105C393.296 39.82 394.121 39.37 394.766 38.755V47.5H396.401V36.79H395.171ZM403.499 35.2L398.249 49H399.644L404.879 35.2H403.499ZM409.979 36.58C408.839 36.58 407.909 36.955 407.219 37.735C406.544 38.455 406.199 39.415 406.184 40.615H407.819C407.849 39.745 408.029 39.1 408.389 38.65C408.734 38.185 409.244 37.96 409.919 37.96C410.549 37.96 411.044 38.11 411.374 38.41C411.704 38.71 411.869 39.16 411.869 39.76C411.869 40.39 411.614 40.975 411.134 41.515C410.834 41.83 410.324 42.235 409.604 42.745C408.389 43.585 407.579 44.23 407.189 44.695C406.469 45.505 406.124 46.435 406.124 47.5H413.504V46.06H408.149C408.374 45.475 409.064 44.8 410.219 44.035C411.284 43.315 412.019 42.745 412.439 42.31C413.129 41.545 413.489 40.705 413.489 39.775C413.489 38.83 413.159 38.065 412.514 37.465C411.854 36.865 410.999 36.58 409.979 36.58Z" fill="#A6A6A6"/>
<rect x="378" y="64" width="50" height="28" rx="10" fill="#F1F1F1"/>
<path d="M399.191 72.58C398.051 72.58 397.121 72.955 396.431 73.735C395.756 74.455 395.411 75.415 395.396 76.615H397.031C397.061 75.745 397.241 75.1 397.601 74.65C397.946 74.185 398.456 73.96 399.131 73.96C399.761 73.96 400.256 74.11 400.586 74.41C400.916 74.71 401.081 75.16 401.081 75.76C401.081 76.39 400.826 76.975 400.346 77.515C400.046 77.83 399.536 78.235 398.816 78.745C397.601 79.585 396.791 80.23 396.401 80.695C395.681 81.505 395.336 82.435 395.336 83.5H402.716V82.06H397.361C397.586 81.475 398.276 80.8 399.431 80.035C400.496 79.315 401.231 78.745 401.651 78.31C402.341 77.545 402.701 76.705 402.701 75.775C402.701 74.83 402.371 74.065 401.726 73.465C401.066 72.865 400.211 72.58 399.191 72.58ZM403.94 75.745L406.625 79.375L403.595 83.5H405.47L407.51 80.545L409.535 83.5H411.395L408.38 79.375L411.065 75.745H409.205L407.51 78.205L405.8 75.745H403.94Z" fill="#A6A6A6"/>
<rect x="23.5" y="20.5" width="412" height="79" rx="9.5" stroke="#ECECEC"/>
<rect x="23" y="122" width="196.5" height="80" rx="10" fill="white"/>
<path d="M37.537 159.265L36.523 159.889C37.329 160.929 38.057 161.93 38.733 162.892C37.979 163.984 37.043 164.946 35.938 165.778L36.77 166.831C37.81 166.051 38.72 165.115 39.5 164.036C40.098 164.92 40.618 165.778 41.086 166.61L42.204 165.843C41.671 164.933 41.021 163.932 40.267 162.84C40.891 161.735 41.398 160.487 41.788 159.083L40.566 158.875C40.28 159.889 39.916 160.838 39.448 161.722C38.863 160.942 38.226 160.123 37.537 159.265ZM34.937 156.782V161.93C34.898 164.166 34.43 166.025 33.546 167.507L34.586 168.352C35.613 166.623 36.146 164.478 36.172 161.93V157.978H42.321V162.099C42.321 164.556 42.477 166.181 42.802 166.987C43.114 167.806 43.608 168.222 44.284 168.222C44.544 168.222 44.791 168.053 45.012 167.741C45.207 167.403 45.389 166.727 45.558 165.739L44.453 165.206C44.375 166.233 44.271 166.753 44.154 166.753C43.998 166.753 43.868 166.467 43.764 165.921C43.634 165.362 43.582 164.088 43.582 162.099V156.782H34.937ZM46.962 156.808V168.352H48.158V157.926H49.861C49.536 158.979 49.094 160.162 48.522 161.475C49.38 162.567 49.809 163.542 49.809 164.426C49.809 164.634 49.744 164.79 49.64 164.881C49.523 164.972 49.289 165.024 48.951 165.05C48.782 165.05 48.574 165.024 48.314 164.985L48.691 166.22C49.601 166.207 50.251 166.038 50.628 165.713C50.888 165.453 51.018 165.024 51.018 164.426C50.94 163.529 50.511 162.489 49.731 161.293C50.251 160.045 50.693 158.862 51.07 157.744V156.808H46.962ZM52.448 160.422V161.137H56.582V160.448C56.998 160.864 57.466 161.241 57.986 161.605L58.649 160.591C56.933 159.382 55.737 157.965 55.035 156.353H53.943C53.124 158.108 51.954 159.538 50.42 160.63L51.044 161.605C51.538 161.267 52.006 160.864 52.448 160.422ZM56.166 160.019H52.825C53.449 159.317 53.995 158.498 54.489 157.562C54.918 158.459 55.477 159.278 56.166 160.019ZM50.576 166.779V167.962H58.363V166.779H56.361C56.92 165.401 57.388 163.841 57.778 162.086L56.569 161.761C56.166 163.737 55.698 165.401 55.152 166.779H50.576ZM52.24 162.164L51.187 162.528C51.642 163.698 52.019 164.933 52.318 166.207L53.384 165.947C53.046 164.517 52.669 163.256 52.24 162.164ZM54.307 161.696L53.254 162.034C53.644 163.178 53.969 164.361 54.229 165.609L55.282 165.336C54.996 163.958 54.671 162.749 54.307 161.696ZM65.0971 160.331C64.8111 160.331 64.5901 160.422 64.4211 160.617C64.2261 160.799 64.1351 161.033 64.1351 161.306C64.1351 161.566 64.2261 161.8 64.4211 161.995C64.5901 162.177 64.8111 162.268 65.0971 162.268C65.3571 162.268 65.5911 162.177 65.7861 161.995C65.9681 161.8 66.0721 161.566 66.0721 161.306C66.0721 161.033 65.9681 160.799 65.7861 160.617C65.5911 160.422 65.3571 160.331 65.0971 160.331ZM65.0971 165.089C64.8111 165.089 64.5901 165.18 64.4211 165.375C64.2261 165.557 64.1351 165.791 64.1351 166.064C64.1351 166.324 64.2261 166.558 64.4211 166.753C64.5901 166.935 64.8111 167.026 65.0971 167.026C65.3571 167.026 65.5911 166.935 65.7861 166.753C65.9681 166.558 66.0721 166.324 66.0721 166.064C66.0721 165.791 65.9681 165.557 65.7861 165.375C65.5911 165.18 65.3571 165.089 65.0971 165.089Z" fill="#A6A6A6"/>
<rect x="73.5" y="132.5" width="135.5" height="59" rx="9.5" fill="white"/>
<path d="M90.811 162.203H93.528C93.606 162.853 93.697 163.425 93.814 163.945C94.126 165.375 94.529 166.441 95.01 167.13C95.478 167.819 95.933 168.17 96.362 168.17C96.869 168.17 97.259 167.195 97.519 165.271L96.505 164.712C96.388 166.038 96.271 166.714 96.154 166.714C96.024 166.714 95.842 166.454 95.582 165.947C95.322 165.427 95.101 164.608 94.893 163.477C94.815 163.126 94.763 162.697 94.711 162.203H97.246V161.02H94.607C94.555 160.201 94.516 159.239 94.503 158.121C95.361 157.913 96.115 157.705 96.752 157.484L96.076 156.496C94.49 157.016 92.345 157.471 89.615 157.887V166.259C89.615 166.571 89.446 166.779 89.121 166.896L89.433 167.949C90.395 167.637 91.24 167.325 91.968 167.039L91.76 165.973C91.448 166.129 91.136 166.272 90.811 166.415V162.203ZM93.32 158.381C93.333 159.33 93.372 160.214 93.424 161.02H90.811V158.823C91.721 158.68 92.553 158.537 93.32 158.381ZM92.904 165.336L92.059 165.934C92.696 166.805 93.216 167.598 93.619 168.326L94.542 167.676C94.152 167 93.606 166.22 92.904 165.336ZM88.315 156.301C87.691 158.277 86.729 160.019 85.416 161.501L85.806 162.801C86.248 162.333 86.651 161.865 87.028 161.384V168.365H88.224V159.577C88.718 158.693 89.121 157.783 89.433 156.821L88.315 156.301ZM101.354 163.477V164.53H102.225C102.771 165.232 103.447 165.843 104.266 166.389C103.148 166.818 101.861 167.13 100.418 167.338L100.951 168.417C102.667 168.131 104.188 167.689 105.488 167.078C106.723 167.676 108.205 168.131 109.934 168.417L110.467 167.351C109.037 167.169 107.763 166.857 106.658 166.441C107.594 165.869 108.387 165.193 109.05 164.387V163.477H101.354ZM103.551 164.53H107.386C106.814 165.037 106.151 165.492 105.397 165.882C104.682 165.492 104.071 165.05 103.551 164.53ZM100.782 160.76H102.732V162.762H108.179V160.76H110.129V159.616H108.179V158.732H106.983V159.616H103.928V158.745H102.732V159.616H100.782V158.42H110.129V157.25H105.761C105.631 156.886 105.488 156.548 105.345 156.249L104.032 156.457C104.188 156.691 104.344 156.964 104.487 157.25H99.56V161.488C99.534 164.036 99.157 166.038 98.455 167.468L99.391 168.3C100.275 166.584 100.73 164.322 100.782 161.488V160.76ZM103.928 160.76H106.983V161.735H103.928V160.76Z" fill="#484848"/>
<path fill-rule="evenodd" clip-rule="evenodd" d="M186.5 166.375L179.5 159.805L180.565 158.5L186.5 164.07L192.435 158.5L193.5 159.805L186.5 166.375Z" fill="#A6A6A6"/>
<rect x="73.5" y="132.5" width="135.5" height="59" rx="9.5" stroke="#ECECEC"/>
<rect x="239.5" y="122" width="196.5" height="80" rx="10" fill="white"/>
<path d="M256.117 156.353V158.329H254.18V159.447H256.117V161.345H254.427V162.463H256.117V164.452H253.699V165.57H256.117V168.339H257.3V156.353H256.117ZM251.502 168.222C252.36 168.222 252.802 167.806 252.802 167V163.425C253.179 163.256 253.556 163.074 253.92 162.892V161.631C253.556 161.826 253.179 162.008 252.802 162.19V159.915H253.855V158.732H252.802V156.379H251.606V158.732H250.306V159.915H251.606V162.671C251.086 162.853 250.566 162.996 250.046 163.113L250.345 164.361C250.774 164.231 251.19 164.075 251.606 163.919V166.701C251.606 166.961 251.424 167.091 251.073 167.091C250.748 167.091 250.41 167.065 250.046 167.026L250.319 168.222H251.502ZM258.561 156.353V168.339H259.757V165.57H261.967V164.452H259.757V162.463H261.564V161.345H259.757V159.447H261.876V158.329H259.757V156.353H258.561ZM271.171 159.408H272.848C272.796 160.968 272.562 162.346 272.133 163.542C271.678 162.528 271.301 161.345 271.015 159.993C271.067 159.811 271.119 159.616 271.171 159.408ZM271.574 164.803C271.002 165.83 270.235 166.662 269.273 167.312L269.91 168.339C270.82 167.689 271.587 166.883 272.198 165.934C272.822 166.935 273.55 167.741 274.395 168.352L275.084 167.351C274.2 166.753 273.446 165.908 272.796 164.829C273.498 163.334 273.888 161.527 273.966 159.408H274.72V158.225H271.418C271.522 157.692 271.6 157.133 271.678 156.535L270.469 156.327C270.209 158.745 269.715 160.669 268.987 162.099L269.767 163.061C270.001 162.671 270.209 162.229 270.417 161.761C270.742 162.892 271.132 163.906 271.574 164.803ZM265.412 162.372C265.334 162.606 265.243 162.866 265.139 163.126H263.306V164.179H264.671C264.424 164.673 264.138 165.18 263.826 165.726C264.424 165.96 264.996 166.181 265.529 166.402C264.827 166.766 263.982 167.052 263.007 167.286L263.579 168.3C264.866 167.962 265.945 167.52 266.803 166.961C267.518 167.286 268.129 167.598 268.636 167.91L269.299 166.948C268.805 166.688 268.285 166.428 267.752 166.194C268.35 165.596 268.766 164.907 269 164.127V163.126H266.348C266.426 162.918 266.491 162.723 266.569 162.515L265.412 162.372ZM266.621 165.726C266.192 165.544 265.75 165.388 265.295 165.232C265.503 164.894 265.698 164.543 265.88 164.179H267.895C267.609 164.751 267.193 165.271 266.621 165.726ZM264.515 156.535L263.54 156.86C263.839 157.341 264.125 157.9 264.385 158.524L265.269 158.121C265.048 157.549 264.801 157.029 264.515 156.535ZM268.246 156.522C268.012 157.042 267.687 157.575 267.271 158.121L268.129 158.563C268.532 158.03 268.857 157.484 269.117 156.938L268.246 156.522ZM263.332 158.745V159.824H264.97C264.58 160.422 263.943 160.981 263.033 161.501L263.644 162.502C264.645 161.8 265.36 160.981 265.789 160.045V162.242H266.92V160.786C267.323 161.046 267.804 161.41 268.376 161.865L269.026 160.89C268.311 160.513 267.609 160.175 266.92 159.889V159.824H269.182V158.745H266.92V156.353H265.789V158.745H263.332ZM281.597 160.331C281.311 160.331 281.09 160.422 280.921 160.617C280.726 160.799 280.635 161.033 280.635 161.306C280.635 161.566 280.726 161.8 280.921 161.995C281.09 162.177 281.311 162.268 281.597 162.268C281.857 162.268 282.091 162.177 282.286 161.995C282.468 161.8 282.572 161.566 282.572 161.306C282.572 161.033 282.468 160.799 282.286 160.617C282.091 160.422 281.857 160.331 281.597 160.331ZM281.597 165.089C281.311 165.089 281.09 165.18 280.921 165.375C280.726 165.557 280.635 165.791 280.635 166.064C280.635 166.324 280.726 166.558 280.921 166.753C281.09 166.935 281.311 167.026 281.597 167.026C281.857 167.026 282.091 166.935 282.286 166.753C282.468 166.558 282.572 166.324 282.572 166.064C282.572 165.791 282.468 165.557 282.286 165.375C282.091 165.18 281.857 165.089 281.597 165.089Z" fill="#A6A6A6"/>
<rect x="290" y="132.5" width="135.5" height="59" rx="9.5" fill="white"/>
<path d="M304.516 157.718C304.204 158.056 303.814 158.355 303.346 158.641C302.878 158.901 302.449 159.083 302.033 159.187V160.591C302.891 160.344 303.606 159.954 304.165 159.421V167H305.582V157.718H304.516ZM310.85 157.536C309.862 157.536 309.056 157.861 308.458 158.537C307.873 159.161 307.574 159.993 307.561 161.033H308.978C309.004 160.279 309.16 159.72 309.472 159.33C309.771 158.927 310.213 158.732 310.798 158.732C311.344 158.732 311.773 158.862 312.059 159.122C312.345 159.382 312.488 159.772 312.488 160.292C312.488 160.838 312.267 161.345 311.851 161.813C311.591 162.086 311.149 162.437 310.525 162.879C309.472 163.607 308.77 164.166 308.432 164.569C307.808 165.271 307.509 166.077 307.509 167H313.905V165.752H309.264C309.459 165.245 310.057 164.66 311.058 163.997C311.981 163.373 312.618 162.879 312.982 162.502C313.58 161.839 313.892 161.111 313.892 160.305C313.892 159.486 313.606 158.823 313.047 158.303C312.475 157.783 311.734 157.536 310.85 157.536ZM321.219 156.353V158.329H319.282V159.447H321.219V161.345H319.529V162.463H321.219V164.452H318.801V165.57H321.219V168.339H322.402V156.353H321.219ZM316.604 168.222C317.462 168.222 317.904 167.806 317.904 167V163.425C318.281 163.256 318.658 163.074 319.022 162.892V161.631C318.658 161.826 318.281 162.008 317.904 162.19V159.915H318.957V158.732H317.904V156.379H316.708V158.732H315.408V159.915H316.708V162.671C316.188 162.853 315.668 162.996 315.148 163.113L315.447 164.361C315.876 164.231 316.292 164.075 316.708 163.919V166.701C316.708 166.961 316.526 167.091 316.175 167.091C315.85 167.091 315.512 167.065 315.148 167.026L315.421 168.222H316.604ZM323.663 156.353V168.339H324.859V165.57H327.069V164.452H324.859V162.463H326.666V161.345H324.859V159.447H326.978V158.329H324.859V156.353H323.663Z" fill="#484848"/>
<path fill-rule="evenodd" clip-rule="evenodd" d="M403 166.375L396 159.805L397.065 158.5L403 164.07L408.935 158.5L410 159.805L403 166.375Z" fill="#A6A6A6"/>
<rect x="290" y="132.5" width="135.5" height="59" rx="9.5" stroke="#ECECEC"/>
<rect x="23" y="224" width="413" height="80" rx="10" fill="#FB6943"/>
<g filter="url(#filter0_d_1889_22048)">
<path d="M213.426 256.694V258.35H216.594V262.274C216.594 262.382 216.576 262.526 216.576 262.67H212.49V264.326H216.45C216.306 265.604 216.072 266.72 215.73 267.656C215.208 268.952 214.218 270.032 212.778 270.878L213.696 272.318C215.298 271.508 216.45 270.338 217.134 268.826C217.674 267.62 218.016 266.126 218.196 264.326H223.02V272.12H224.73V264.326H228.528V262.67H224.73V258.35H227.61V256.694H213.426ZM218.322 258.35H223.02V262.67H218.304C218.304 262.544 218.322 262.418 218.322 262.274V258.35ZM232.254 255.632C232.11 256.802 231.948 257.936 231.786 259.034H230.256V260.672H231.516C231.192 262.454 230.814 264.11 230.418 265.622C231.246 266.414 232.002 267.17 232.704 267.89C232.074 269.114 231.264 270.194 230.256 271.094L231.336 272.444C232.344 271.508 233.19 270.41 233.874 269.15C234.486 269.834 235.008 270.464 235.458 271.076L236.61 269.726C236.106 269.06 235.44 268.304 234.648 267.476C235.476 265.352 235.944 262.868 236.052 259.988V259.034H233.496C233.64 258.026 233.784 256.928 233.928 255.776L232.254 255.632ZM233.424 266.234C233.064 265.874 232.668 265.514 232.254 265.118C232.596 263.93 232.92 262.436 233.226 260.672H234.468C234.36 262.742 234 264.596 233.424 266.234ZM245.52 264.47H237.33V272.372H238.95V271.364H243.882V272.372H245.52V264.47ZM238.95 269.762V266.036H243.882V269.762H238.95ZM236.718 263.156C239.58 262.976 242.19 262.724 244.53 262.4C244.71 262.796 244.89 263.228 245.07 263.696L246.636 262.94C245.808 261.05 244.944 259.322 244.008 257.756L242.55 258.458C242.982 259.232 243.432 260.06 243.864 260.96C242.244 261.212 240.57 261.392 238.842 261.5C239.85 260.096 240.822 258.332 241.794 256.244L240.174 255.704C238.572 259.358 237.33 261.32 236.448 261.608L236.718 263.156Z" fill="white"/>
</g>
</g>
<defs>
<filter id="filter0_d_1889_22048" x="208.488" y="253.633" width="42.1484" height="24.8125" filterUnits="userSpaceOnUse" color-interpolation-filters="sRGB">
<feFlood flood-opacity="0" result="BackgroundImageFix"/>
<feColorMatrix in="SourceAlpha" type="matrix" values="0 0 0 0 0 0 0 0 0 0 0 0 0 0 0 0 0 0 127 0" result="hardAlpha"/>
<feOffset dy="2"/>
<feGaussianBlur stdDeviation="2"/>
<feComposite in2="hardAlpha" operator="out"/>
<feColorMatrix type="matrix" values="0 0 0 0 0 0 0 0 0 0 0 0 0 0 0 0 0 0 0.3 0"/>
<feBlend mode="normal" in2="BackgroundImageFix" result="effect1_dropShadow_1889_22048"/>
<feBlend mode="normal" in="SourceGraphic" in2="effect1_dropShadow_1889_22048" result="shape"/>
</filter>
<clipPath id="clip0_1889_22048">
<rect width="413" height="284" fill="white" transform="translate(23.5 20)"/>
</clipPath>
<clipPath id="clip1_1889_22048">
<rect width="143" height="25" fill="white" transform="translate(158 47.5)"/>
</clipPath>
<clipPath id="clip2_1889_22048">
<rect width="24" height="24" fill="white" transform="translate(158 47.5)"/>
</clipPath>
</defs>
</svg>
