<svg width="460" height="324" viewBox="0 0 460 324" fill="none" xmlns="http://www.w3.org/2000/svg">
<rect width="460" height="324" rx="10" fill="#0D131C"/>
<g clip-path="url(#clip0_1887_17972)">
<rect x="23.5" y="20.5" width="412" height="79" rx="9.5" fill="#161F2C"/>
<rect x="31" y="28" width="50" height="28" rx="10" fill="#383C45"/>
<path d="M43.9543 36.79V47.5H45.5893V39.85H45.6493L48.9343 47.5H50.3443L53.6293 39.85H53.6893V47.5H55.3243V36.79H53.3893L49.6693 45.37H49.6243L45.8893 36.79H43.9543ZM58.4059 36.64C58.0909 36.64 57.8359 36.73 57.6259 36.94C57.4159 37.135 57.3109 37.39 57.3109 37.705C57.3109 38.005 57.4159 38.275 57.6259 38.485C57.8359 38.68 58.0909 38.785 58.4059 38.785C58.7059 38.785 58.9759 38.68 59.1859 38.485C59.3959 38.275 59.5159 38.02 59.5159 37.705C59.5159 37.39 59.4109 37.135 59.2009 36.94C58.9909 36.73 58.7209 36.64 58.4059 36.64ZM57.6109 39.745V47.5H59.2009V39.745H57.6109ZM65.2831 39.535C64.8031 39.535 64.3681 39.625 63.9781 39.835C63.5881 40.03 63.2431 40.315 62.9431 40.705V39.745H61.3531V47.5H62.9431V42.835C63.0031 42.205 63.2281 41.71 63.5881 41.35C63.9181 41.02 64.3231 40.87 64.7731 40.87C65.9731 40.87 66.5881 41.53 66.5881 42.85V47.5H68.1781V42.715C68.1781 40.585 67.2031 39.535 65.2831 39.535Z" fill="#7C8499"/>
<rect x="31" y="64" width="50" height="28" rx="10" fill="#383C45"/>
<path d="M42.0646 72.79V83.5H43.6996V75.85H43.7596L47.0446 83.5H48.4546L51.7396 75.85H51.7996V83.5H53.4346V72.79H51.4996L47.7796 81.37H47.7346L43.9996 72.79H42.0646ZM58.8862 75.535C57.9262 75.535 57.1462 75.7 56.5762 76.06C55.9162 76.45 55.4962 77.08 55.3312 77.92L56.9062 78.055C56.9962 77.62 57.2212 77.305 57.5812 77.095C57.8812 76.915 58.2862 76.825 58.7812 76.825C59.9512 76.825 60.5362 77.365 60.5362 78.445V78.76L58.7962 78.805C57.6562 78.835 56.7562 79.06 56.1262 79.51C55.4362 79.975 55.0912 80.65 55.0912 81.52C55.0912 82.165 55.3312 82.69 55.8262 83.095C56.2762 83.5 56.9062 83.71 57.7162 83.71C58.4062 83.71 59.0062 83.575 59.5162 83.335C59.9662 83.11 60.3412 82.795 60.6412 82.405V83.5H62.1112V78.55C62.1112 77.605 61.8712 76.885 61.4062 76.39C60.8662 75.82 60.0262 75.535 58.8862 75.535ZM60.5362 79.915V80.365C60.5362 80.965 60.2812 81.475 59.8012 81.88C59.3212 82.285 58.7512 82.495 58.0762 82.495C57.6712 82.495 57.3412 82.39 57.1012 82.195C56.8462 82 56.7262 81.76 56.7262 81.46C56.7262 80.5 57.4462 79.99 58.9012 79.96L60.5362 79.915ZM63.4513 75.745L66.1363 79.375L63.1063 83.5H64.9813L67.0213 80.545L69.0463 83.5H70.9063L67.8913 79.375L70.5763 75.745H68.7163L67.0213 78.205L65.3113 75.745H63.4513Z" fill="#7C8499"/>
<g clip-path="url(#clip1_1887_17972)">
<g clip-path="url(#clip2_1887_17972)">
<path d="M181.638 62.4029C180.036 68.8315 173.524 72.7438 167.095 71.1407C160.668 69.538 156.756 63.0265 158.359 56.5984C159.961 50.169 166.473 46.2564 172.9 47.8591C179.329 49.4618 183.241 55.974 181.638 62.403L181.638 62.4029H181.638Z" fill="#F7931A"/>
<path d="M175.291 57.7894C175.53 56.1924 174.314 55.334 172.652 54.7614L173.191 52.5982L171.874 52.27L171.349 54.3763C171.003 54.2899 170.647 54.2086 170.294 54.1279L170.823 52.0078L169.507 51.6797L168.967 53.8422C168.681 53.777 168.399 53.7125 168.126 53.6446L168.128 53.6378L166.312 53.1843L165.962 54.5907C165.962 54.5907 166.939 54.8147 166.918 54.8285C167.451 54.9615 167.548 55.3145 167.532 55.5943L166.917 58.0587C166.954 58.068 167.002 58.0815 167.054 58.1026C167.01 58.0917 166.964 58.0798 166.915 58.0682L166.054 61.5205C165.989 61.6825 165.823 61.9256 165.451 61.8333C165.464 61.8524 164.494 61.5944 164.494 61.5944L163.84 63.1017L165.553 63.5289C165.872 63.6089 166.185 63.6925 166.492 63.7712L165.947 65.9592L167.263 66.2873L167.802 64.1225C168.162 64.22 168.51 64.31 168.852 64.3948L168.314 66.5494L169.631 66.8775L170.176 64.6936C172.421 65.1186 174.109 64.9472 174.82 62.9163C175.393 61.2811 174.792 60.3379 173.61 59.7229C174.471 59.5244 175.119 58.9585 175.292 57.7895L175.291 57.7892L175.291 57.7894ZM172.282 62.0082C171.876 63.6433 169.122 62.7594 168.23 62.5378L168.953 59.639C169.845 59.8619 172.708 60.3028 172.283 62.0082H172.282ZM172.69 57.7657C172.318 59.253 170.027 58.4974 169.284 58.3121L169.939 55.6831C170.683 55.8684 173.076 56.2142 172.69 57.7657H172.69Z" fill="white"/>
</g>
<path d="M187.215 61.0049C187.215 58.5557 187.654 56.8418 188.533 55.8633C189.418 54.8848 190.763 54.3955 192.567 54.3955C193.435 54.3955 194.146 54.5039 194.703 54.7207C195.26 54.9316 195.714 55.21 196.065 55.5557C196.417 55.8955 196.692 56.2559 196.892 56.6367C197.097 57.0117 197.261 57.4512 197.384 57.9551C197.624 58.916 197.744 59.918 197.744 60.9609C197.744 63.2988 197.349 65.0098 196.558 66.0938C195.767 67.1777 194.404 67.7197 192.471 67.7197C191.387 67.7197 190.511 67.5469 189.843 67.2012C189.175 66.8555 188.627 66.3486 188.199 65.6807C187.889 65.2061 187.646 64.5586 187.47 63.7383C187.3 62.9121 187.215 62.001 187.215 61.0049ZM190.766 61.0137C190.766 62.6543 190.909 63.7764 191.196 64.3799C191.489 64.9775 191.911 65.2764 192.462 65.2764C192.825 65.2764 193.139 65.1504 193.402 64.8984C193.672 64.6406 193.868 64.2363 193.991 63.6855C194.12 63.1348 194.185 62.2764 194.185 61.1104C194.185 59.3994 194.038 58.251 193.745 57.665C193.458 57.0732 193.024 56.7773 192.444 56.7773C191.853 56.7773 191.425 57.0791 191.161 57.6826C190.897 58.2803 190.766 59.3906 190.766 61.0137ZM199.572 63.9141H203.396V67.5H199.572V63.9141ZM205.215 61.0049C205.215 58.5557 205.654 56.8418 206.533 55.8633C207.418 54.8848 208.763 54.3955 210.567 54.3955C211.435 54.3955 212.146 54.5039 212.703 54.7207C213.26 54.9316 213.714 55.21 214.065 55.5557C214.417 55.8955 214.692 56.2559 214.892 56.6367C215.097 57.0117 215.261 57.4512 215.384 57.9551C215.624 58.916 215.744 59.918 215.744 60.9609C215.744 63.2988 215.349 65.0098 214.558 66.0938C213.767 67.1777 212.404 67.7197 210.471 67.7197C209.387 67.7197 208.511 67.5469 207.843 67.2012C207.175 66.8555 206.627 66.3486 206.199 65.6807C205.889 65.2061 205.646 64.5586 205.47 63.7383C205.3 62.9121 205.215 62.001 205.215 61.0049ZM208.766 61.0137C208.766 62.6543 208.909 63.7764 209.196 64.3799C209.489 64.9775 209.911 65.2764 210.462 65.2764C210.825 65.2764 211.139 65.1504 211.402 64.8984C211.672 64.6406 211.868 64.2363 211.991 63.6855C212.12 63.1348 212.185 62.2764 212.185 61.1104C212.185 59.3994 212.038 58.251 211.745 57.665C211.458 57.0732 211.024 56.7773 210.444 56.7773C209.853 56.7773 209.425 57.0791 209.161 57.6826C208.897 58.2803 208.766 59.3906 208.766 61.0137ZM217.221 61.0049C217.221 58.5557 217.66 56.8418 218.539 55.8633C219.424 54.8848 220.769 54.3955 222.573 54.3955C223.44 54.3955 224.152 54.5039 224.709 54.7207C225.266 54.9316 225.72 55.21 226.071 55.5557C226.423 55.8955 226.698 56.2559 226.897 56.6367C227.103 57.0117 227.267 57.4512 227.39 57.9551C227.63 58.916 227.75 59.918 227.75 60.9609C227.75 63.2988 227.354 65.0098 226.563 66.0938C225.772 67.1777 224.41 67.7197 222.477 67.7197C221.393 67.7197 220.517 67.5469 219.849 67.2012C219.181 66.8555 218.633 66.3486 218.205 65.6807C217.895 65.2061 217.651 64.5586 217.476 63.7383C217.306 62.9121 217.221 62.001 217.221 61.0049ZM220.771 61.0137C220.771 62.6543 220.915 63.7764 221.202 64.3799C221.495 64.9775 221.917 65.2764 222.468 65.2764C222.831 65.2764 223.145 65.1504 223.408 64.8984C223.678 64.6406 223.874 64.2363 223.997 63.6855C224.126 63.1348 224.19 62.2764 224.19 61.1104C224.19 59.3994 224.044 58.251 223.751 57.665C223.464 57.0732 223.03 56.7773 222.45 56.7773C221.858 56.7773 221.431 57.0791 221.167 57.6826C220.903 58.2803 220.771 59.3906 220.771 61.0137ZM229.227 61.0049C229.227 58.5557 229.666 56.8418 230.545 55.8633C231.43 54.8848 232.774 54.3955 234.579 54.3955C235.446 54.3955 236.158 54.5039 236.715 54.7207C237.271 54.9316 237.726 55.21 238.077 55.5557C238.429 55.8955 238.704 56.2559 238.903 56.6367C239.108 57.0117 239.272 57.4512 239.396 57.9551C239.636 58.916 239.756 59.918 239.756 60.9609C239.756 63.2988 239.36 65.0098 238.569 66.0938C237.778 67.1777 236.416 67.7197 234.482 67.7197C233.398 67.7197 232.522 67.5469 231.854 67.2012C231.187 66.8555 230.639 66.3486 230.211 65.6807C229.9 65.2061 229.657 64.5586 229.481 63.7383C229.312 62.9121 229.227 62.001 229.227 61.0049ZM232.777 61.0137C232.777 62.6543 232.921 63.7764 233.208 64.3799C233.501 64.9775 233.923 65.2764 234.474 65.2764C234.837 65.2764 235.15 65.1504 235.414 64.8984C235.684 64.6406 235.88 64.2363 236.003 63.6855C236.132 63.1348 236.196 62.2764 236.196 61.1104C236.196 59.3994 236.05 58.251 235.757 57.665C235.47 57.0732 235.036 56.7773 234.456 56.7773C233.864 56.7773 233.437 57.0791 233.173 57.6826C232.909 58.2803 232.777 59.3906 232.777 61.0137ZM241.232 61.0049C241.232 58.5557 241.672 56.8418 242.551 55.8633C243.436 54.8848 244.78 54.3955 246.585 54.3955C247.452 54.3955 248.164 54.5039 248.721 54.7207C249.277 54.9316 249.731 55.21 250.083 55.5557C250.435 55.8955 250.71 56.2559 250.909 56.6367C251.114 57.0117 251.278 57.4512 251.401 57.9551C251.642 58.916 251.762 59.918 251.762 60.9609C251.762 63.2988 251.366 65.0098 250.575 66.0938C249.784 67.1777 248.422 67.7197 246.488 67.7197C245.404 67.7197 244.528 67.5469 243.86 67.2012C243.192 66.8555 242.645 66.3486 242.217 65.6807C241.906 65.2061 241.663 64.5586 241.487 63.7383C241.317 62.9121 241.232 62.001 241.232 61.0049ZM244.783 61.0137C244.783 62.6543 244.927 63.7764 245.214 64.3799C245.507 64.9775 245.929 65.2764 246.479 65.2764C246.843 65.2764 247.156 65.1504 247.42 64.8984C247.689 64.6406 247.886 64.2363 248.009 63.6855C248.138 63.1348 248.202 62.2764 248.202 61.1104C248.202 59.3994 248.056 58.251 247.763 57.665C247.476 57.0732 247.042 56.7773 246.462 56.7773C245.87 56.7773 245.442 57.0791 245.179 57.6826C244.915 58.2803 244.783 59.3906 244.783 61.0137ZM261.351 54.3955V67.5H257.729V58.9131C257.144 59.3584 256.575 59.7188 256.024 59.9941C255.479 60.2695 254.794 60.5332 253.968 60.7852V57.8496C255.187 57.457 256.133 56.9854 256.807 56.4346C257.48 55.8838 258.008 55.2041 258.389 54.3955H261.351ZM265.244 61.0049C265.244 58.5557 265.684 56.8418 266.562 55.8633C267.447 54.8848 268.792 54.3955 270.597 54.3955C271.464 54.3955 272.176 54.5039 272.732 54.7207C273.289 54.9316 273.743 55.21 274.095 55.5557C274.446 55.8955 274.722 56.2559 274.921 56.6367C275.126 57.0117 275.29 57.4512 275.413 57.9551C275.653 58.916 275.773 59.918 275.773 60.9609C275.773 63.2988 275.378 65.0098 274.587 66.0938C273.796 67.1777 272.434 67.7197 270.5 67.7197C269.416 67.7197 268.54 67.5469 267.872 67.2012C267.204 66.8555 266.656 66.3486 266.229 65.6807C265.918 65.2061 265.675 64.5586 265.499 63.7383C265.329 62.9121 265.244 62.001 265.244 61.0049ZM268.795 61.0137C268.795 62.6543 268.938 63.7764 269.226 64.3799C269.519 64.9775 269.94 65.2764 270.491 65.2764C270.854 65.2764 271.168 65.1504 271.432 64.8984C271.701 64.6406 271.897 64.2363 272.021 63.6855C272.149 63.1348 272.214 62.2764 272.214 61.1104C272.214 59.3994 272.067 58.251 271.774 57.665C271.487 57.0732 271.054 56.7773 270.474 56.7773C269.882 56.7773 269.454 57.0791 269.19 57.6826C268.927 58.2803 268.795 59.3906 268.795 61.0137ZM277.25 61.0049C277.25 58.5557 277.689 56.8418 278.568 55.8633C279.453 54.8848 280.798 54.3955 282.603 54.3955C283.47 54.3955 284.182 54.5039 284.738 54.7207C285.295 54.9316 285.749 55.21 286.101 55.5557C286.452 55.8955 286.728 56.2559 286.927 56.6367C287.132 57.0117 287.296 57.4512 287.419 57.9551C287.659 58.916 287.779 59.918 287.779 60.9609C287.779 63.2988 287.384 65.0098 286.593 66.0938C285.802 67.1777 284.439 67.7197 282.506 67.7197C281.422 67.7197 280.546 67.5469 279.878 67.2012C279.21 66.8555 278.662 66.3486 278.234 65.6807C277.924 65.2061 277.681 64.5586 277.505 63.7383C277.335 62.9121 277.25 62.001 277.25 61.0049ZM280.801 61.0137C280.801 62.6543 280.944 63.7764 281.231 64.3799C281.524 64.9775 281.946 65.2764 282.497 65.2764C282.86 65.2764 283.174 65.1504 283.438 64.8984C283.707 64.6406 283.903 64.2363 284.026 63.6855C284.155 63.1348 284.22 62.2764 284.22 61.1104C284.22 59.3994 284.073 58.251 283.78 57.665C283.493 57.0732 283.06 56.7773 282.479 56.7773C281.888 56.7773 281.46 57.0791 281.196 57.6826C280.933 58.2803 280.801 59.3906 280.801 61.0137ZM289.256 61.0049C289.256 58.5557 289.695 56.8418 290.574 55.8633C291.459 54.8848 292.804 54.3955 294.608 54.3955C295.476 54.3955 296.188 54.5039 296.744 54.7207C297.301 54.9316 297.755 55.21 298.106 55.5557C298.458 55.8955 298.733 56.2559 298.933 56.6367C299.138 57.0117 299.302 57.4512 299.425 57.9551C299.665 58.916 299.785 59.918 299.785 60.9609C299.785 63.2988 299.39 65.0098 298.599 66.0938C297.808 67.1777 296.445 67.7197 294.512 67.7197C293.428 67.7197 292.552 67.5469 291.884 67.2012C291.216 66.8555 290.668 66.3486 290.24 65.6807C289.93 65.2061 289.687 64.5586 289.511 63.7383C289.341 62.9121 289.256 62.001 289.256 61.0049ZM292.807 61.0137C292.807 62.6543 292.95 63.7764 293.237 64.3799C293.53 64.9775 293.952 65.2764 294.503 65.2764C294.866 65.2764 295.18 65.1504 295.443 64.8984C295.713 64.6406 295.909 64.2363 296.032 63.6855C296.161 63.1348 296.226 62.2764 296.226 61.1104C296.226 59.3994 296.079 58.251 295.786 57.665C295.499 57.0732 295.065 56.7773 294.485 56.7773C293.894 56.7773 293.466 57.0791 293.202 57.6826C292.938 58.2803 292.807 59.3906 292.807 61.0137Z" fill="white"/>
</g>
<rect x="378" y="28" width="50" height="28" rx="10" fill="#383C45"/>
<path d="M395.171 36.79C394.811 37.18 394.361 37.525 393.821 37.855C393.281 38.155 392.786 38.365 392.306 38.485V40.105C393.296 39.82 394.121 39.37 394.766 38.755V47.5H396.401V36.79H395.171ZM403.499 35.2L398.249 49H399.644L404.879 35.2H403.499ZM409.979 36.58C408.839 36.58 407.909 36.955 407.219 37.735C406.544 38.455 406.199 39.415 406.184 40.615H407.819C407.849 39.745 408.029 39.1 408.389 38.65C408.734 38.185 409.244 37.96 409.919 37.96C410.549 37.96 411.044 38.11 411.374 38.41C411.704 38.71 411.869 39.16 411.869 39.76C411.869 40.39 411.614 40.975 411.134 41.515C410.834 41.83 410.324 42.235 409.604 42.745C408.389 43.585 407.579 44.23 407.189 44.695C406.469 45.505 406.124 46.435 406.124 47.5H413.504V46.06H408.149C408.374 45.475 409.064 44.8 410.219 44.035C411.284 43.315 412.019 42.745 412.439 42.31C413.129 41.545 413.489 40.705 413.489 39.775C413.489 38.83 413.159 38.065 412.514 37.465C411.854 36.865 410.999 36.58 409.979 36.58Z" fill="#7C8499"/>
<rect x="378" y="64" width="50" height="28" rx="10" fill="#383C45"/>
<path d="M399.191 72.58C398.051 72.58 397.121 72.955 396.431 73.735C395.756 74.455 395.411 75.415 395.396 76.615H397.031C397.061 75.745 397.241 75.1 397.601 74.65C397.946 74.185 398.456 73.96 399.131 73.96C399.761 73.96 400.256 74.11 400.586 74.41C400.916 74.71 401.081 75.16 401.081 75.76C401.081 76.39 400.826 76.975 400.346 77.515C400.046 77.83 399.536 78.235 398.816 78.745C397.601 79.585 396.791 80.23 396.401 80.695C395.681 81.505 395.336 82.435 395.336 83.5H402.716V82.06H397.361C397.586 81.475 398.276 80.8 399.431 80.035C400.496 79.315 401.231 78.745 401.651 78.31C402.341 77.545 402.701 76.705 402.701 75.775C402.701 74.83 402.371 74.065 401.726 73.465C401.066 72.865 400.211 72.58 399.191 72.58ZM403.94 75.745L406.625 79.375L403.595 83.5H405.47L407.51 80.545L409.535 83.5H411.395L408.38 79.375L411.065 75.745H409.205L407.51 78.205L405.8 75.745H403.94Z" fill="#7C8499"/>
<rect x="23.5" y="20.5" width="412" height="79" rx="9.5" stroke="#55657E"/>
<rect x="23" y="122" width="196.5" height="80" rx="10" fill="#161F2C"/>
<path d="M33.91 157.718V167H35.327V163.165H37.836C38.369 163.165 38.772 163.269 39.058 163.503C39.331 163.737 39.5 164.101 39.552 164.621L39.669 165.778C39.721 166.298 39.851 166.714 40.072 167H41.606C41.294 166.662 41.112 166.207 41.06 165.635L40.904 164.153C40.8 163.243 40.345 162.697 39.513 162.515V162.489C40.02 162.359 40.423 162.086 40.722 161.67C40.982 161.293 41.112 160.864 41.112 160.37C41.112 159.486 40.826 158.823 40.254 158.355C39.708 157.926 38.954 157.718 38.018 157.718H33.91ZM35.327 158.927H37.823C38.473 158.927 38.941 159.044 39.253 159.291C39.539 159.525 39.695 159.902 39.695 160.422C39.695 160.916 39.539 161.293 39.24 161.553C38.928 161.813 38.46 161.956 37.836 161.956H35.327V158.927ZM43.756 157.588C43.483 157.588 43.262 157.666 43.08 157.848C42.898 158.017 42.807 158.238 42.807 158.511C42.807 158.771 42.898 159.005 43.08 159.187C43.262 159.356 43.483 159.447 43.756 159.447C44.016 159.447 44.25 159.356 44.432 159.187C44.614 159.005 44.718 158.784 44.718 158.511C44.718 158.238 44.627 158.017 44.445 157.848C44.263 157.666 44.029 157.588 43.756 157.588ZM43.067 160.279V167H44.445V160.279H43.067ZM48.8193 160.097C48.0133 160.097 47.3503 160.266 46.8433 160.617C46.3363 160.955 46.0893 161.436 46.0893 162.047C46.0893 162.619 46.3493 163.074 46.8693 163.399C47.1813 163.607 47.7403 163.802 48.5333 163.984C49.2223 164.14 49.6773 164.27 49.8853 164.374C50.2753 164.556 50.4833 164.816 50.4833 165.141C50.4833 165.739 49.9373 166.051 48.8713 166.051C48.3513 166.051 47.9873 165.96 47.7533 165.791C47.5193 165.609 47.3503 165.284 47.2723 164.829H45.9203C46.0763 166.389 47.0643 167.182 48.9103 167.182C50.8993 167.182 51.9003 166.467 51.9003 165.05C51.9003 164.452 51.6273 163.984 51.0943 163.646C50.7303 163.412 50.1583 163.191 49.3913 163.009C48.7153 162.84 48.2733 162.71 48.0393 162.606C47.6753 162.437 47.4933 162.242 47.4933 162.008C47.4933 161.748 47.6103 161.54 47.8573 161.41C48.0653 161.28 48.3773 161.228 48.7933 161.228C49.2613 161.228 49.6253 161.306 49.8593 161.462C50.0803 161.605 50.2363 161.852 50.3403 162.216H51.6793C51.5233 160.799 50.5613 160.097 48.8193 160.097ZM53.0642 157.536V167H54.4422V164.647L55.2092 163.932L57.6272 167H59.3952L56.1582 163.048L59.1352 160.279H57.3542L54.4422 163.048V157.536H53.0642ZM65.4907 160.331C65.2047 160.331 64.9837 160.422 64.8147 160.617C64.6197 160.799 64.5287 161.033 64.5287 161.306C64.5287 161.566 64.6197 161.8 64.8147 161.995C64.9837 162.177 65.2047 162.268 65.4907 162.268C65.7507 162.268 65.9847 162.177 66.1797 161.995C66.3617 161.8 66.4657 161.566 66.4657 161.306C66.4657 161.033 66.3617 160.799 66.1797 160.617C65.9847 160.422 65.7507 160.331 65.4907 160.331ZM65.4907 165.089C65.2047 165.089 64.9837 165.18 64.8147 165.375C64.6197 165.557 64.5287 165.791 64.5287 166.064C64.5287 166.324 64.6197 166.558 64.8147 166.753C64.9837 166.935 65.2047 167.026 65.4907 167.026C65.7507 167.026 65.9847 166.935 66.1797 166.753C66.3617 166.558 66.4657 166.324 66.4657 166.064C66.4657 165.791 66.3617 165.557 66.1797 165.375C65.9847 165.18 65.7507 165.089 65.4907 165.089Z" fill="#7C8499"/>
<rect x="74.5" y="132.5" width="134.5" height="59" rx="9.5" fill="#161F2C"/>
<path d="M86.91 157.718V167H93.423V165.791H88.314V157.718H86.91ZM97.5547 160.097C96.5407 160.097 95.7217 160.435 95.1107 161.111C94.4997 161.774 94.2007 162.619 94.2007 163.646C94.2007 164.66 94.4997 165.505 95.0977 166.155C95.7217 166.831 96.5407 167.182 97.5547 167.182C98.5687 167.182 99.3877 166.831 100.012 166.155C100.61 165.505 100.909 164.66 100.909 163.646C100.909 162.619 100.597 161.774 99.9987 161.111C99.3877 160.435 98.5687 160.097 97.5547 160.097ZM97.5547 161.228C98.1917 161.228 98.6857 161.475 99.0497 161.982C99.3617 162.411 99.5177 162.97 99.5177 163.646C99.5177 164.309 99.3617 164.855 99.0497 165.297C98.6857 165.791 98.1917 166.051 97.5547 166.051C96.9177 166.051 96.4237 165.791 96.0727 165.297C95.7607 164.868 95.6177 164.322 95.6177 163.646C95.6177 162.97 95.7607 162.411 96.0727 161.982C96.4237 161.475 96.9177 161.228 97.5547 161.228ZM101.503 160.279L103.778 167H105.052L106.456 161.969L107.86 167H109.134L111.409 160.279H109.888L108.471 165.362L107.093 160.279H105.819L104.441 165.362L103.024 160.279H101.503Z" fill="white"/>
<path fill-rule="evenodd" clip-rule="evenodd" d="M186.5 166.375L179.5 159.805L180.565 158.5L186.5 164.07L192.435 158.5L193.5 159.805L186.5 166.375Z" fill="#7C8499"/>
<rect x="74.5" y="132.5" width="134.5" height="59" rx="9.5" stroke="#55657E"/>
<rect x="239.5" y="122" width="196.5" height="80" rx="10" fill="#161F2C"/>
<path d="M250.41 157.718V167H251.827V163.165H254.336C254.869 163.165 255.272 163.269 255.558 163.503C255.831 163.737 256 164.101 256.052 164.621L256.169 165.778C256.221 166.298 256.351 166.714 256.572 167H258.106C257.794 166.662 257.612 166.207 257.56 165.635L257.404 164.153C257.3 163.243 256.845 162.697 256.013 162.515V162.489C256.52 162.359 256.923 162.086 257.222 161.67C257.482 161.293 257.612 160.864 257.612 160.37C257.612 159.486 257.326 158.823 256.754 158.355C256.208 157.926 255.454 157.718 254.518 157.718H250.41ZM251.827 158.927H254.323C254.973 158.927 255.441 159.044 255.753 159.291C256.039 159.525 256.195 159.902 256.195 160.422C256.195 160.916 256.039 161.293 255.74 161.553C255.428 161.813 254.96 161.956 254.336 161.956H251.827V158.927ZM262.375 160.097C261.361 160.097 260.542 160.435 259.931 161.111C259.32 161.774 259.021 162.619 259.021 163.646C259.021 164.66 259.32 165.505 259.918 166.155C260.542 166.831 261.361 167.182 262.375 167.182C263.389 167.182 264.208 166.831 264.832 166.155C265.43 165.505 265.729 164.66 265.729 163.646C265.729 162.619 265.417 161.774 264.819 161.111C264.208 160.435 263.389 160.097 262.375 160.097ZM262.375 161.228C263.012 161.228 263.506 161.475 263.87 161.982C264.182 162.411 264.338 162.97 264.338 163.646C264.338 164.309 264.182 164.855 263.87 165.297C263.506 165.791 263.012 166.051 262.375 166.051C261.738 166.051 261.244 165.791 260.893 165.297C260.581 164.868 260.438 164.322 260.438 163.646C260.438 162.97 260.581 162.411 260.893 161.982C261.244 161.475 261.738 161.228 262.375 161.228ZM266.323 160.279L268.598 167H269.872L271.276 161.969L272.68 167H273.954L276.229 160.279H274.708L273.291 165.362L271.913 160.279H270.639L269.261 165.362L267.844 160.279H266.323ZM279.589 160.097C278.783 160.097 278.12 160.266 277.613 160.617C277.106 160.955 276.859 161.436 276.859 162.047C276.859 162.619 277.119 163.074 277.639 163.399C277.951 163.607 278.51 163.802 279.303 163.984C279.992 164.14 280.447 164.27 280.655 164.374C281.045 164.556 281.253 164.816 281.253 165.141C281.253 165.739 280.707 166.051 279.641 166.051C279.121 166.051 278.757 165.96 278.523 165.791C278.289 165.609 278.12 165.284 278.042 164.829H276.69C276.846 166.389 277.834 167.182 279.68 167.182C281.669 167.182 282.67 166.467 282.67 165.05C282.67 164.452 282.397 163.984 281.864 163.646C281.5 163.412 280.928 163.191 280.161 163.009C279.485 162.84 279.043 162.71 278.809 162.606C278.445 162.437 278.263 162.242 278.263 162.008C278.263 161.748 278.38 161.54 278.627 161.41C278.835 161.28 279.147 161.228 279.563 161.228C280.031 161.228 280.395 161.306 280.629 161.462C280.85 161.605 281.006 161.852 281.11 162.216H282.449C282.293 160.799 281.331 160.097 279.589 160.097ZM289.151 160.331C288.865 160.331 288.644 160.422 288.475 160.617C288.28 160.799 288.189 161.033 288.189 161.306C288.189 161.566 288.28 161.8 288.475 161.995C288.644 162.177 288.865 162.268 289.151 162.268C289.411 162.268 289.645 162.177 289.84 161.995C290.022 161.8 290.126 161.566 290.126 161.306C290.126 161.033 290.022 160.799 289.84 160.617C289.645 160.422 289.411 160.331 289.151 160.331ZM289.151 165.089C288.865 165.089 288.644 165.18 288.475 165.375C288.28 165.557 288.189 165.791 288.189 166.064C288.189 166.324 288.28 166.558 288.475 166.753C288.644 166.935 288.865 167.026 289.151 167.026C289.411 167.026 289.645 166.935 289.84 166.753C290.022 166.558 290.126 166.324 290.126 166.064C290.126 165.791 290.022 165.557 289.84 165.375C289.645 165.18 289.411 165.089 289.151 165.089Z" fill="#7C8499"/>
<rect x="298" y="132.5" width="127.5" height="59" rx="9.5" fill="#161F2C"/>
<path d="M312.516 157.718C312.204 158.056 311.814 158.355 311.346 158.641C310.878 158.901 310.449 159.083 310.033 159.187V160.591C310.891 160.344 311.606 159.954 312.165 159.421V167H313.582V157.718H312.516ZM318.85 157.536C317.862 157.536 317.056 157.861 316.458 158.537C315.873 159.161 315.574 159.993 315.561 161.033H316.978C317.004 160.279 317.16 159.72 317.472 159.33C317.771 158.927 318.213 158.732 318.798 158.732C319.344 158.732 319.773 158.862 320.059 159.122C320.345 159.382 320.488 159.772 320.488 160.292C320.488 160.838 320.267 161.345 319.851 161.813C319.591 162.086 319.149 162.437 318.525 162.879C317.472 163.607 316.77 164.166 316.432 164.569C315.808 165.271 315.509 166.077 315.509 167H321.905V165.752H317.264C317.459 165.245 318.057 164.66 319.058 163.997C319.981 163.373 320.618 162.879 320.982 162.502C321.58 161.839 321.892 161.111 321.892 160.305C321.892 159.486 321.606 158.823 321.047 158.303C320.475 157.783 319.734 157.536 318.85 157.536ZM327.841 157.718V167H329.258V163.165H331.767C332.3 163.165 332.703 163.269 332.989 163.503C333.262 163.737 333.431 164.101 333.483 164.621L333.6 165.778C333.652 166.298 333.782 166.714 334.003 167H335.537C335.225 166.662 335.043 166.207 334.991 165.635L334.835 164.153C334.731 163.243 334.276 162.697 333.444 162.515V162.489C333.951 162.359 334.354 162.086 334.653 161.67C334.913 161.293 335.043 160.864 335.043 160.37C335.043 159.486 334.757 158.823 334.185 158.355C333.639 157.926 332.885 157.718 331.949 157.718H327.841ZM329.258 158.927H331.754C332.404 158.927 332.872 159.044 333.184 159.291C333.47 159.525 333.626 159.902 333.626 160.422C333.626 160.916 333.47 161.293 333.171 161.553C332.859 161.813 332.391 161.956 331.767 161.956H329.258V158.927ZM339.806 160.097C338.792 160.097 337.973 160.435 337.362 161.111C336.751 161.774 336.452 162.619 336.452 163.646C336.452 164.66 336.751 165.505 337.349 166.155C337.973 166.831 338.792 167.182 339.806 167.182C340.82 167.182 341.639 166.831 342.263 166.155C342.861 165.505 343.16 164.66 343.16 163.646C343.16 162.619 342.848 161.774 342.25 161.111C341.639 160.435 340.82 160.097 339.806 160.097ZM339.806 161.228C340.443 161.228 340.937 161.475 341.301 161.982C341.613 162.411 341.769 162.97 341.769 163.646C341.769 164.309 341.613 164.855 341.301 165.297C340.937 165.791 340.443 166.051 339.806 166.051C339.169 166.051 338.675 165.791 338.324 165.297C338.012 164.868 337.869 164.322 337.869 163.646C337.869 162.97 338.012 162.411 338.324 161.982C338.675 161.475 339.169 161.228 339.806 161.228ZM343.753 160.279L346.028 167H347.302L348.706 161.969L350.11 167H351.384L353.659 160.279H352.138L350.721 165.362L349.343 160.279H348.069L346.691 165.362L345.274 160.279H343.753ZM357.019 160.097C356.213 160.097 355.55 160.266 355.043 160.617C354.536 160.955 354.289 161.436 354.289 162.047C354.289 162.619 354.549 163.074 355.069 163.399C355.381 163.607 355.94 163.802 356.733 163.984C357.422 164.14 357.877 164.27 358.085 164.374C358.475 164.556 358.683 164.816 358.683 165.141C358.683 165.739 358.137 166.051 357.071 166.051C356.551 166.051 356.187 165.96 355.953 165.791C355.719 165.609 355.55 165.284 355.472 164.829H354.12C354.276 166.389 355.264 167.182 357.11 167.182C359.099 167.182 360.1 166.467 360.1 165.05C360.1 164.452 359.827 163.984 359.294 163.646C358.93 163.412 358.358 163.191 357.591 163.009C356.915 162.84 356.473 162.71 356.239 162.606C355.875 162.437 355.693 162.242 355.693 162.008C355.693 161.748 355.81 161.54 356.057 161.41C356.265 161.28 356.577 161.228 356.993 161.228C357.461 161.228 357.825 161.306 358.059 161.462C358.28 161.605 358.436 161.852 358.54 162.216H359.879C359.723 160.799 358.761 160.097 357.019 160.097Z" fill="white"/>
<path fill-rule="evenodd" clip-rule="evenodd" d="M403 166.375L396 159.805L397.065 158.5L403 164.07L408.935 158.5L410 159.805L403 166.375Z" fill="#7C8499"/>
<rect x="298" y="132.5" width="127.5" height="59" rx="9.5" stroke="#55657E"/>
<rect x="23" y="224" width="413" height="80" rx="10" fill="#F04E23"/>
<g filter="url(#filter0_d_1887_17972)">
<path d="M216.258 257.648V270.5H222.126C223.494 270.5 224.556 270.248 225.312 269.744C226.194 269.132 226.644 268.196 226.644 266.9C226.644 266.036 226.428 265.334 225.996 264.812C225.564 264.29 224.916 263.948 224.07 263.786C224.718 263.552 225.204 263.192 225.564 262.724C225.924 262.22 226.104 261.608 226.104 260.888C226.104 259.898 225.762 259.124 225.078 258.548C224.358 257.936 223.386 257.648 222.126 257.648H216.258ZM218.22 259.268H221.64C222.504 259.268 223.152 259.412 223.548 259.718C223.944 260.006 224.142 260.474 224.142 261.122C224.142 261.806 223.944 262.31 223.548 262.634C223.152 262.94 222.504 263.102 221.604 263.102H218.22V259.268ZM218.22 264.704H221.91C222.846 264.704 223.548 264.866 223.998 265.208C224.448 265.55 224.682 266.108 224.682 266.864C224.682 267.602 224.376 268.142 223.8 268.484C223.332 268.736 222.684 268.88 221.856 268.88H218.22V264.704ZM232.377 260.942C231.009 260.942 229.911 261.41 229.119 262.364C228.291 263.3 227.895 264.452 227.895 265.838C227.895 267.368 228.327 268.574 229.191 269.474C229.983 270.32 231.081 270.752 232.449 270.752C233.691 270.752 234.717 270.392 235.527 269.69C236.175 269.114 236.589 268.376 236.805 267.512H234.897C234.645 268.052 234.375 268.466 234.051 268.718C233.637 269.024 233.097 269.186 232.431 269.186C231.675 269.186 231.081 268.934 230.649 268.466C230.217 267.98 229.983 267.278 229.911 266.378H236.967C236.949 264.722 236.571 263.426 235.851 262.49C235.059 261.446 233.889 260.942 232.377 260.942ZM232.431 262.508C233.943 262.508 234.789 263.318 234.969 264.938H229.947C230.055 264.146 230.325 263.552 230.721 263.138C231.153 262.706 231.711 262.508 232.431 262.508ZM241.422 258.188L239.514 258.98V261.194H237.786V262.778H239.514V268.178C239.514 268.916 239.676 269.474 240.036 269.87C240.396 270.284 240.99 270.5 241.782 270.5H243.312V268.916H242.088C241.854 268.916 241.692 268.844 241.584 268.736C241.476 268.61 241.422 268.43 241.422 268.178V262.778H243.546V261.194H241.422V258.188Z" fill="white"/>
</g>
</g>
<defs>
<filter id="filter0_d_1887_17972" x="212.258" y="255.648" width="35.2891" height="21.1055" filterUnits="userSpaceOnUse" color-interpolation-filters="sRGB">
<feFlood flood-opacity="0" result="BackgroundImageFix"/>
<feColorMatrix in="SourceAlpha" type="matrix" values="0 0 0 0 0 0 0 0 0 0 0 0 0 0 0 0 0 0 127 0" result="hardAlpha"/>
<feOffset dy="2"/>
<feGaussianBlur stdDeviation="2"/>
<feComposite in2="hardAlpha" operator="out"/>
<feColorMatrix type="matrix" values="0 0 0 0 0 0 0 0 0 0 0 0 0 0 0 0 0 0 0.3 0"/>
<feBlend mode="normal" in2="BackgroundImageFix" result="effect1_dropShadow_1887_17972"/>
<feBlend mode="normal" in="SourceGraphic" in2="effect1_dropShadow_1887_17972" result="shape"/>
</filter>
<clipPath id="clip0_1887_17972">
<rect width="413" height="284" fill="white" transform="translate(23.5 20)"/>
</clipPath>
<clipPath id="clip1_1887_17972">
<rect width="143" height="25" fill="white" transform="translate(158 47.5)"/>
</clipPath>
<clipPath id="clip2_1887_17972">
<rect width="24" height="24" fill="white" transform="translate(158 47.5)"/>
</clipPath>
</defs>
</svg>
