<svg width="460" height="324" viewBox="0 0 460 324" fill="none" xmlns="http://www.w3.org/2000/svg">
<rect width="460" height="324" rx="10" fill="#F4F7FD"/>
<rect x="31" y="20" width="53.4286" height="36" rx="4" fill="white"/>
<g filter="url(#filter0_d_1889_20500)">
<path d="M56.9287 43H49.1719C49.2607 42.234 49.5295 41.5146 49.978 40.8418C50.4308 40.1647 51.2772 39.367 52.5171 38.4487C53.2746 37.8859 53.7591 37.4585 53.9707 37.1665C54.1823 36.8745 54.2881 36.5973 54.2881 36.335C54.2881 36.0514 54.1823 35.8102 53.9707 35.6113C53.7633 35.4082 53.501 35.3066 53.1836 35.3066C52.8535 35.3066 52.5827 35.4103 52.3711 35.6177C52.1637 35.825 52.0241 36.1911 51.9521 36.7158L49.3623 36.5063C49.4639 35.7785 49.6501 35.2114 49.9209 34.8052C50.1917 34.3947 50.5726 34.0815 51.0635 33.8657C51.5586 33.6457 52.242 33.5356 53.1138 33.5356C54.0236 33.5356 54.7303 33.6393 55.2339 33.8467C55.7417 34.054 56.1395 34.3735 56.4272 34.8052C56.7192 35.2326 56.8652 35.7129 56.8652 36.2461C56.8652 36.8132 56.6981 37.3548 56.3638 37.8711C56.0337 38.3874 55.4307 38.9544 54.5547 39.5723C54.0342 39.932 53.6851 40.1838 53.5073 40.3276C53.3338 40.4715 53.1286 40.6598 52.8916 40.8926H56.9287V43ZM57.6968 36.2588H60.7627L61.8354 38.1377L63.0796 36.2588H65.9297L63.6318 39.4707L66.0947 43H63.0796L61.8354 40.8291L60.3691 43H57.5698L60.02 39.4707L57.6968 36.2588Z" fill="#F07923"/>
</g>
<rect x="88.4297" y="20" width="53.4286" height="36" rx="4" fill="white"/>
<g filter="url(#filter1_d_1889_20500)">
<path d="M106.151 33.5356V43H103.536V36.7983C103.112 37.12 102.702 37.3802 102.304 37.5791C101.911 37.778 101.416 37.9684 100.819 38.1504V36.0303C101.699 35.7467 102.382 35.4061 102.869 35.0083C103.356 34.6105 103.737 34.1196 104.012 33.5356H106.151ZM109.217 40.4102H111.978V43H109.217V40.4102ZM119.151 33.5356V43H116.536V36.7983C116.112 37.12 115.702 37.3802 115.304 37.5791C114.911 37.778 114.416 37.9684 113.819 38.1504V36.0303C114.699 35.7467 115.382 35.4061 115.869 35.0083C116.356 34.6105 116.737 34.1196 117.012 33.5356H119.151ZM121.626 36.2588H124.692L125.765 38.1377L127.009 36.2588H129.859L127.562 39.4707L130.024 43H127.009L125.765 40.8291L124.299 43H121.5L123.95 39.4707L121.626 36.2588Z" fill="#F08523"/>
</g>
<rect x="145.855" y="20" width="53.4286" height="36" rx="4" fill="white"/>
<g filter="url(#filter2_d_1889_20500)">
<path d="M157.718 38.3091C157.718 36.5402 158.035 35.3024 158.67 34.5957C159.309 33.889 160.28 33.5356 161.583 33.5356C162.21 33.5356 162.724 33.6139 163.126 33.7705C163.528 33.9229 163.856 34.1239 164.11 34.3735C164.364 34.619 164.563 34.8792 164.707 35.1543C164.855 35.4251 164.973 35.7425 165.062 36.1064C165.236 36.8005 165.322 37.5241 165.322 38.2773C165.322 39.9658 165.037 41.2015 164.465 41.9844C163.894 42.7673 162.91 43.1587 161.514 43.1587C160.731 43.1587 160.098 43.0339 159.616 42.7842C159.133 42.5345 158.738 42.1685 158.429 41.686C158.204 41.3433 158.029 40.8757 157.902 40.2832C157.779 39.6865 157.718 39.0285 157.718 38.3091ZM160.282 38.3154C160.282 39.5003 160.386 40.3107 160.593 40.7466C160.805 41.1782 161.11 41.394 161.507 41.394C161.77 41.394 161.996 41.3031 162.187 41.1211C162.381 40.9349 162.523 40.6429 162.612 40.2451C162.705 39.8473 162.751 39.2274 162.751 38.3853C162.751 37.1496 162.646 36.3201 162.434 35.897C162.227 35.4696 161.914 35.2559 161.495 35.2559C161.067 35.2559 160.758 35.4738 160.568 35.9097C160.377 36.3413 160.282 37.1432 160.282 38.3154ZM166.643 40.4102H169.404V43H166.643V40.4102ZM178.202 35.7891L175.631 36.1064C175.563 35.7467 175.449 35.4928 175.288 35.3447C175.132 35.1966 174.937 35.1226 174.704 35.1226C174.285 35.1226 173.959 35.3341 173.727 35.7573C173.557 36.062 173.432 36.7137 173.352 37.7124C173.661 37.3993 173.978 37.1686 174.304 37.0205C174.63 36.8682 175.007 36.792 175.434 36.792C176.264 36.792 176.964 37.0882 177.535 37.6807C178.111 38.2731 178.398 39.0243 178.398 39.9341C178.398 40.5477 178.252 41.1084 177.96 41.6162C177.673 42.124 177.271 42.5091 176.754 42.7715C176.242 43.0296 175.599 43.1587 174.825 43.1587C173.894 43.1587 173.147 43 172.584 42.6826C172.021 42.3652 171.57 41.8595 171.232 41.1655C170.898 40.4673 170.73 39.5448 170.73 38.3979C170.73 36.7179 171.084 35.4886 171.791 34.71C172.497 33.9271 173.477 33.5356 174.729 33.5356C175.47 33.5356 176.054 33.6224 176.481 33.7959C176.913 33.9652 177.271 34.2148 177.554 34.5449C177.838 34.875 178.054 35.2897 178.202 35.7891ZM173.441 39.9341C173.441 40.4377 173.568 40.8333 173.822 41.1211C174.076 41.4046 174.387 41.5464 174.755 41.5464C175.093 41.5464 175.377 41.4173 175.605 41.1592C175.834 40.901 175.948 40.516 175.948 40.0039C175.948 39.4792 175.83 39.0793 175.593 38.8042C175.356 38.5291 175.062 38.3916 174.71 38.3916C174.351 38.3916 174.048 38.5249 173.803 38.7915C173.562 39.0581 173.441 39.439 173.441 39.9341ZM179.052 36.2588H182.118L183.191 38.1377L184.435 36.2588H187.285L184.987 39.4707L187.45 43H184.435L183.191 40.8291L181.725 43H178.925L181.375 39.4707L179.052 36.2588Z" fill="#F09223"/>
</g>
<rect x="203.285" y="20" width="53.4286" height="36" rx="4" fill="white"/>
<g filter="url(#filter3_d_1889_20500)">
<path d="M215.147 38.3091C215.147 36.5402 215.465 35.3024 216.1 34.5957C216.739 33.889 217.71 33.5356 219.013 33.5356C219.639 33.5356 220.154 33.6139 220.556 33.7705C220.958 33.9229 221.286 34.1239 221.54 34.3735C221.793 34.619 221.992 34.8792 222.136 35.1543C222.284 35.4251 222.403 35.7425 222.492 36.1064C222.665 36.8005 222.752 37.5241 222.752 38.2773C222.752 39.9658 222.466 41.2015 221.895 41.9844C221.324 42.7673 220.34 43.1587 218.943 43.1587C218.16 43.1587 217.528 43.0339 217.045 42.7842C216.563 42.5345 216.167 42.1685 215.858 41.686C215.634 41.3433 215.458 40.8757 215.332 40.2832C215.209 39.6865 215.147 39.0285 215.147 38.3091ZM217.712 38.3154C217.712 39.5003 217.816 40.3107 218.023 40.7466C218.235 41.1782 218.539 41.394 218.937 41.394C219.199 41.394 219.426 41.3031 219.616 41.1211C219.811 40.9349 219.953 40.6429 220.042 40.2451C220.135 39.8473 220.181 39.2274 220.181 38.3853C220.181 37.1496 220.075 36.3201 219.864 35.897C219.656 35.4696 219.343 35.2559 218.924 35.2559C218.497 35.2559 218.188 35.4738 217.998 35.9097C217.807 36.3413 217.712 37.1432 217.712 38.3154ZM224.072 40.4102H226.833V43H224.072V40.4102ZM230.655 36.3857L228.211 35.9478C228.414 35.1691 228.803 34.5724 229.379 34.1577C229.959 33.743 230.778 33.5356 231.835 33.5356C233.05 33.5356 233.928 33.762 234.47 34.2148C235.011 34.6676 235.282 35.2368 235.282 35.9224C235.282 36.3244 235.172 36.6883 234.952 37.0142C234.732 37.34 234.4 37.6257 233.956 37.8711C234.315 37.96 234.59 38.0636 234.781 38.1821C235.09 38.3726 235.329 38.6243 235.498 38.9375C235.672 39.2464 235.758 39.6167 235.758 40.0483C235.758 40.59 235.617 41.1105 235.333 41.6099C235.049 42.105 234.641 42.488 234.108 42.7588C233.575 43.0254 232.874 43.1587 232.007 43.1587C231.16 43.1587 230.492 43.0592 230.001 42.8604C229.514 42.6615 229.112 42.3716 228.795 41.9907C228.482 41.6056 228.241 41.1232 228.071 40.5435L230.655 40.2007C230.756 40.7212 230.913 41.083 231.125 41.2861C231.34 41.485 231.613 41.5845 231.943 41.5845C232.29 41.5845 232.578 41.4575 232.807 41.2036C233.039 40.9497 233.156 40.6112 233.156 40.188C233.156 39.7563 233.044 39.422 232.819 39.1851C232.599 38.9481 232.299 38.8296 231.918 38.8296C231.715 38.8296 231.436 38.8804 231.08 38.9819L231.213 37.1348C231.357 37.1559 231.469 37.1665 231.55 37.1665C231.888 37.1665 232.17 37.0586 232.394 36.8428C232.623 36.627 232.737 36.3709 232.737 36.0747C232.737 35.7912 232.652 35.5648 232.483 35.3955C232.314 35.2262 232.081 35.1416 231.785 35.1416C231.48 35.1416 231.232 35.2347 231.042 35.4209C230.852 35.6029 230.722 35.9245 230.655 36.3857ZM236.482 36.2588H239.548L240.621 38.1377L241.865 36.2588H244.715L242.417 39.4707L244.88 43H241.865L240.621 40.8291L239.154 43H236.355L238.805 39.4707L236.482 36.2588Z" fill="#F09E23"/>
</g>
<rect x="260.715" y="20" width="53.4286" height="36" rx="4" fill="white"/>
<g filter="url(#filter4_d_1889_20500)">
<path d="M272.577 38.3091C272.577 36.5402 272.895 35.3024 273.529 34.5957C274.168 33.889 275.139 33.5356 276.443 33.5356C277.069 33.5356 277.583 33.6139 277.985 33.7705C278.387 33.9229 278.715 34.1239 278.969 34.3735C279.223 34.619 279.422 34.8792 279.566 35.1543C279.714 35.4251 279.833 35.7425 279.921 36.1064C280.095 36.8005 280.182 37.5241 280.182 38.2773C280.182 39.9658 279.896 41.2015 279.325 41.9844C278.753 42.7673 277.77 43.1587 276.373 43.1587C275.59 43.1587 274.958 43.0339 274.475 42.7842C273.993 42.5345 273.597 42.1685 273.288 41.686C273.064 41.3433 272.888 40.8757 272.761 40.2832C272.639 39.6865 272.577 39.0285 272.577 38.3091ZM275.142 38.3154C275.142 39.5003 275.245 40.3107 275.453 40.7466C275.664 41.1782 275.969 41.394 276.367 41.394C276.629 41.394 276.855 41.3031 277.046 41.1211C277.241 40.9349 277.382 40.6429 277.471 40.2451C277.564 39.8473 277.611 39.2274 277.611 38.3853C277.611 37.1496 277.505 36.3201 277.293 35.897C277.086 35.4696 276.773 35.2559 276.354 35.2559C275.927 35.2559 275.618 35.4738 275.427 35.9097C275.237 36.3413 275.142 37.1432 275.142 38.3154ZM281.502 40.4102H284.263V43H281.502V40.4102ZM293.061 35.7891L290.49 36.1064C290.423 35.7467 290.308 35.4928 290.147 35.3447C289.991 35.1966 289.796 35.1226 289.563 35.1226C289.145 35.1226 288.819 35.3341 288.586 35.7573C288.417 36.062 288.292 36.7137 288.211 37.7124C288.52 37.3993 288.838 37.1686 289.164 37.0205C289.489 36.8682 289.866 36.792 290.293 36.792C291.123 36.792 291.823 37.0882 292.395 37.6807C292.97 38.2731 293.258 39.0243 293.258 39.9341C293.258 40.5477 293.112 41.1084 292.82 41.6162C292.532 42.124 292.13 42.5091 291.614 42.7715C291.102 43.0296 290.458 43.1587 289.684 43.1587C288.753 43.1587 288.006 43 287.443 42.6826C286.881 42.3652 286.43 41.8595 286.091 41.1655C285.757 40.4673 285.59 39.5448 285.59 38.3979C285.59 36.7179 285.943 35.4886 286.65 34.71C287.357 33.9271 288.336 33.5356 289.589 33.5356C290.329 33.5356 290.913 33.6224 291.341 33.7959C291.772 33.9652 292.13 34.2148 292.414 34.5449C292.697 34.875 292.913 35.2897 293.061 35.7891ZM288.3 39.9341C288.3 40.4377 288.427 40.8333 288.681 41.1211C288.935 41.4046 289.246 41.5464 289.614 41.5464C289.953 41.5464 290.236 41.4173 290.465 41.1592C290.693 40.901 290.808 40.516 290.808 40.0039C290.808 39.4792 290.689 39.0793 290.452 38.8042C290.215 38.5291 289.921 38.3916 289.57 38.3916C289.21 38.3916 288.908 38.5249 288.662 38.7915C288.421 39.0581 288.3 39.439 288.3 39.9341ZM293.912 36.2588H296.978L298.05 38.1377L299.294 36.2588H302.145L299.847 39.4707L302.31 43H299.294L298.05 40.8291L296.584 43H293.785L296.235 39.4707L293.912 36.2588Z" fill="#F09223"/>
</g>
<rect x="318.145" y="20" width="53.4286" height="36" rx="4" fill="white"/>
<g filter="url(#filter5_d_1889_20500)">
<path d="M335.866 33.5356V43H333.25V36.7983C332.827 37.12 332.417 37.3802 332.019 37.5791C331.625 37.778 331.13 37.9684 330.534 38.1504V36.0303C331.414 35.7467 332.097 35.4061 332.584 35.0083C333.071 34.6105 333.451 34.1196 333.727 33.5356H335.866ZM338.932 40.4102H341.693V43H338.932V40.4102ZM348.866 33.5356V43H346.25V36.7983C345.827 37.12 345.417 37.3802 345.019 37.5791C344.625 37.778 344.13 37.9684 343.534 38.1504V36.0303C344.414 35.7467 345.097 35.4061 345.584 35.0083C346.071 34.6105 346.451 34.1196 346.727 33.5356H348.866ZM351.341 36.2588H354.407L355.48 38.1377L356.724 36.2588H359.574L357.276 39.4707L359.739 43H356.724L355.48 40.8291L354.014 43H351.214L353.665 39.4707L351.341 36.2588Z" fill="#F08523"/>
</g>
<rect x="375.57" y="20" width="53.4286" height="36" rx="4" fill="white"/>
<g filter="url(#filter6_d_1889_20500)">
<path d="M401.499 43H393.742C393.831 42.234 394.1 41.5146 394.548 40.8418C395.001 40.1647 395.847 39.367 397.087 38.4487C397.845 37.8859 398.329 37.4585 398.541 37.1665C398.753 36.8745 398.858 36.5973 398.858 36.335C398.858 36.0514 398.753 35.8102 398.541 35.6113C398.334 35.4082 398.071 35.3066 397.754 35.3066C397.424 35.3066 397.153 35.4103 396.941 35.6177C396.734 35.825 396.594 36.1911 396.522 36.7158L393.933 36.5063C394.034 35.7785 394.22 35.2114 394.491 34.8052C394.762 34.3947 395.143 34.0815 395.634 33.8657C396.129 33.6457 396.812 33.5356 397.684 33.5356C398.594 33.5356 399.301 33.6393 399.804 33.8467C400.312 34.054 400.71 34.3735 400.998 34.8052C401.29 35.2326 401.436 35.7129 401.436 36.2461C401.436 36.8132 401.268 37.3548 400.934 37.8711C400.604 38.3874 400.001 38.9544 399.125 39.5723C398.604 39.932 398.255 40.1838 398.078 40.3276C397.904 40.4715 397.699 40.6598 397.462 40.8926H401.499V43ZM402.267 36.2588H405.333L406.406 38.1377L407.65 36.2588H410.5L408.202 39.4707L410.665 43H407.65L406.406 40.8291L404.939 43H402.14L404.59 39.4707L402.267 36.2588Z" fill="#F07923"/>
</g>
<path d="M196.093 73.097C195.677 73.097 195.313 73.214 195.001 73.474C194.741 73.656 194.52 73.929 194.351 74.293V73.279H192.973V80H194.351V76.438C194.351 75.853 194.52 75.372 194.871 75.008C195.196 74.67 195.573 74.501 195.989 74.501C196.301 74.501 196.626 74.54 196.964 74.644V73.266C196.73 73.149 196.431 73.097 196.093 73.097ZM197.81 73.279V77.465C197.81 79.272 198.616 80.182 200.241 80.182C201.086 80.182 201.788 79.818 202.36 79.09V80H203.738V73.279H202.36V77.387C202.243 77.881 202.022 78.284 201.71 78.583C201.398 78.869 201.073 79.025 200.709 79.025C200.176 79.025 199.786 78.882 199.552 78.622C199.305 78.362 199.188 77.946 199.188 77.374V73.279H197.81ZM200.671 69.393C200.281 69.393 199.891 69.458 199.501 69.601V70.238C199.878 70.056 200.242 69.965 200.593 69.965C201.1 69.965 201.36 70.108 201.36 70.394C201.36 70.68 201.048 70.979 200.424 71.291L200.788 71.668C201.633 71.343 202.062 70.914 202.062 70.381C202.062 69.718 201.594 69.393 200.671 69.393ZM206.288 70.588C206.015 70.588 205.794 70.666 205.612 70.848C205.43 71.017 205.339 71.238 205.339 71.511C205.339 71.771 205.43 72.005 205.612 72.187C205.794 72.356 206.015 72.447 206.288 72.447C206.548 72.447 206.782 72.356 206.964 72.187C207.146 72.005 207.25 71.784 207.25 71.511C207.25 71.238 207.159 71.017 206.977 70.848C206.795 70.666 206.561 70.588 206.288 70.588ZM205.599 73.279V80H206.977V73.279H205.599ZM216.292 73.097C215.876 73.097 215.512 73.214 215.2 73.474C214.94 73.656 214.719 73.929 214.55 74.293V73.279H213.172V80H214.55V76.438C214.55 75.853 214.719 75.372 215.07 75.008C215.395 74.67 215.772 74.501 216.188 74.501C216.5 74.501 216.825 74.54 217.163 74.644V73.266C216.929 73.149 216.63 73.097 216.292 73.097ZM221.103 73.097C220.089 73.097 219.27 73.435 218.659 74.111C218.048 74.774 217.749 75.619 217.749 76.646C217.749 77.66 218.048 78.505 218.646 79.155C219.27 79.831 220.089 80.182 221.103 80.182C222.117 80.182 222.936 79.831 223.56 79.155C224.158 78.505 224.457 77.66 224.457 76.646C224.457 75.619 224.145 74.774 223.547 74.111C222.936 73.435 222.117 73.097 221.103 73.097ZM221.103 74.228C221.74 74.228 222.234 74.475 222.598 74.982C222.91 75.411 223.066 75.97 223.066 76.646C223.066 77.309 222.91 77.855 222.598 78.297C222.234 78.791 221.74 79.051 221.103 79.051C220.466 79.051 219.972 78.791 219.621 78.297C219.309 77.868 219.166 77.322 219.166 76.646C219.166 75.97 219.309 75.411 219.621 74.982C219.972 74.475 220.466 74.228 221.103 74.228ZM231.082 73.331C230.796 73.331 230.575 73.422 230.406 73.617C230.211 73.799 230.12 74.033 230.12 74.306C230.12 74.566 230.211 74.8 230.406 74.995C230.575 75.177 230.796 75.268 231.082 75.268C231.342 75.268 231.576 75.177 231.771 74.995C231.953 74.8 232.057 74.566 232.057 74.306C232.057 74.033 231.953 73.799 231.771 73.617C231.576 73.422 231.342 73.331 231.082 73.331ZM231.082 78.089C230.796 78.089 230.575 78.18 230.406 78.375C230.211 78.557 230.12 78.791 230.12 79.064C230.12 79.324 230.211 79.558 230.406 79.753C230.575 79.935 230.796 80.026 231.082 80.026C231.342 80.026 231.576 79.935 231.771 79.753C231.953 79.558 232.057 79.324 232.057 79.064C232.057 78.791 231.953 78.557 231.771 78.375C231.576 78.18 231.342 78.089 231.082 78.089ZM237.381 70.718V71.927H240.488V80H241.892V71.927H244.986V70.718H237.381ZM245.976 70.536V80H247.354V76.23C247.354 75.645 247.497 75.164 247.796 74.787C248.082 74.41 248.459 74.228 248.927 74.228C249.447 74.228 249.85 74.384 250.11 74.709C250.344 75.021 250.474 75.463 250.474 76.061V80H251.852V75.827C251.852 74.943 251.657 74.267 251.267 73.812C250.851 73.331 250.24 73.097 249.434 73.097C249.005 73.097 248.628 73.175 248.29 73.357C247.913 73.539 247.601 73.838 247.354 74.228V70.536H245.976ZM255.769 70.692L254.352 72.343H255.301L256.367 71.29L257.459 72.343H258.33L256.978 70.692H255.769ZM256.445 73.097C255.613 73.097 254.937 73.24 254.443 73.552C253.871 73.89 253.507 74.436 253.364 75.164L254.729 75.281C254.807 74.904 255.002 74.631 255.314 74.449C255.574 74.293 255.925 74.215 256.354 74.215C257.368 74.215 257.875 74.683 257.875 75.619V75.892L256.367 75.931C255.379 75.957 254.599 76.152 254.053 76.542C253.455 76.945 253.156 77.53 253.156 78.284C253.156 78.843 253.364 79.298 253.793 79.649C254.183 80 254.729 80.182 255.431 80.182C256.016 80.182 256.536 80.078 256.978 79.87C257.368 79.662 257.706 79.389 257.966 79.051V80H259.24V75.71C259.24 74.891 259.032 74.267 258.629 73.838C258.161 73.344 257.433 73.097 256.445 73.097ZM257.875 76.893V77.283C257.875 77.803 257.654 78.245 257.238 78.596C256.822 78.947 256.328 79.129 255.743 79.129C255.392 79.129 255.106 79.038 254.898 78.869C254.677 78.7 254.573 78.492 254.573 78.232C254.573 77.4 255.197 76.958 256.458 76.932L257.875 76.893ZM256.187 67.614L254.952 69.512H255.862L257.708 67.614H256.187ZM264.184 73.097C263.274 73.097 262.572 73.422 262.104 74.085V73.279H260.817V82.574H262.195V79.012C262.741 79.792 263.417 80.182 264.249 80.182C265.211 80.182 265.978 79.831 266.524 79.129C267.031 78.479 267.291 77.66 267.291 76.672C267.291 75.632 267.031 74.8 266.511 74.15C265.939 73.448 265.172 73.097 264.184 73.097ZM263.976 74.215C264.652 74.215 265.146 74.449 265.471 74.943C265.731 75.359 265.874 75.931 265.874 76.672C265.874 77.413 265.718 77.985 265.432 78.401C265.107 78.843 264.613 79.064 263.937 79.064C263.417 79.064 263.001 78.856 262.689 78.453C262.325 78.011 262.156 77.426 262.156 76.711V76.594C262.156 75.905 262.299 75.346 262.585 74.93C262.91 74.449 263.378 74.215 263.976 74.215Z" fill="#A6A6A6"/>
<rect x="31" y="130" width="53.4286" height="36" rx="4" fill="white"/>
<g filter="url(#filter7_d_1889_20500)">
<path d="M53.8057 151.261H49.0957V149.134L53.8057 143.536H56.0591V149.255H57.2271V151.261H56.0591V153H53.8057V151.261ZM53.8057 149.255V146.329L51.3174 149.255H53.8057ZM57.6968 146.259H60.7627L61.8354 148.138L63.0796 146.259H65.9297L63.6318 149.471L66.0947 153H63.0796L61.8354 150.829L60.3691 153H57.5698L60.02 149.471L57.6968 146.259Z" fill="#F07923"/>
</g>
<rect x="88.4297" y="130" width="53.4286" height="36" rx="4" fill="white"/>
<g filter="url(#filter8_d_1889_20500)">
<path d="M107.858 153H100.102C100.19 152.234 100.459 151.515 100.908 150.842C101.361 150.165 102.207 149.367 103.447 148.449C104.204 147.886 104.689 147.458 104.9 147.167C105.112 146.875 105.218 146.597 105.218 146.335C105.218 146.051 105.112 145.81 104.9 145.611C104.693 145.408 104.431 145.307 104.113 145.307C103.783 145.307 103.512 145.41 103.301 145.618C103.093 145.825 102.954 146.191 102.882 146.716L100.292 146.506C100.394 145.778 100.58 145.211 100.851 144.805C101.121 144.395 101.502 144.082 101.993 143.866C102.488 143.646 103.172 143.536 104.043 143.536C104.953 143.536 105.66 143.639 106.164 143.847C106.671 144.054 107.069 144.374 107.357 144.805C107.649 145.233 107.795 145.713 107.795 146.246C107.795 146.813 107.628 147.355 107.293 147.871C106.963 148.387 106.36 148.954 105.484 149.572C104.964 149.932 104.615 150.184 104.437 150.328C104.264 150.472 104.058 150.66 103.821 150.893H107.858V153ZM109.217 150.41H111.978V153H109.217V150.41ZM120.858 153H113.102C113.19 152.234 113.459 151.515 113.908 150.842C114.361 150.165 115.207 149.367 116.447 148.449C117.204 147.886 117.689 147.458 117.9 147.167C118.112 146.875 118.218 146.597 118.218 146.335C118.218 146.051 118.112 145.81 117.9 145.611C117.693 145.408 117.431 145.307 117.113 145.307C116.783 145.307 116.512 145.41 116.301 145.618C116.093 145.825 115.954 146.191 115.882 146.716L113.292 146.506C113.394 145.778 113.58 145.211 113.851 144.805C114.121 144.395 114.502 144.082 114.993 143.866C115.488 143.646 116.172 143.536 117.043 143.536C117.953 143.536 118.66 143.639 119.164 143.847C119.671 144.054 120.069 144.374 120.357 144.805C120.649 145.233 120.795 145.713 120.795 146.246C120.795 146.813 120.628 147.355 120.293 147.871C119.963 148.387 119.36 148.954 118.484 149.572C117.964 149.932 117.615 150.184 117.437 150.328C117.264 150.472 117.058 150.66 116.821 150.893H120.858V153ZM121.626 146.259H124.692L125.765 148.138L127.009 146.259H129.859L127.562 149.471L130.024 153H127.009L125.765 150.829L124.299 153H121.5L123.95 149.471L121.626 146.259Z" fill="#F08523"/>
</g>
<rect x="145.855" y="130" width="53.4286" height="36" rx="4" fill="white"/>
<g filter="url(#filter9_d_1889_20500)">
<path d="M163.577 143.536V153H160.961V146.798C160.538 147.12 160.128 147.38 159.73 147.579C159.336 147.778 158.841 147.968 158.245 148.15V146.03C159.125 145.747 159.808 145.406 160.295 145.008C160.782 144.611 161.162 144.12 161.438 143.536H163.577ZM166.643 150.41H169.404V153H166.643V150.41ZM178.284 153H170.527C170.616 152.234 170.885 151.515 171.333 150.842C171.786 150.165 172.633 149.367 173.873 148.449C174.63 147.886 175.115 147.458 175.326 147.167C175.538 146.875 175.644 146.597 175.644 146.335C175.644 146.051 175.538 145.81 175.326 145.611C175.119 145.408 174.856 145.307 174.539 145.307C174.209 145.307 173.938 145.41 173.727 145.618C173.519 145.825 173.38 146.191 173.308 146.716L170.718 146.506C170.819 145.778 171.006 145.211 171.276 144.805C171.547 144.395 171.928 144.082 172.419 143.866C172.914 143.646 173.597 143.536 174.469 143.536C175.379 143.536 176.086 143.639 176.589 143.847C177.097 144.054 177.495 144.374 177.783 144.805C178.075 145.233 178.221 145.713 178.221 146.246C178.221 146.813 178.054 147.355 177.719 147.871C177.389 148.387 176.786 148.954 175.91 149.572C175.39 149.932 175.041 150.184 174.863 150.328C174.689 150.472 174.484 150.66 174.247 150.893H178.284V153ZM179.052 146.259H182.118L183.191 148.138L184.435 146.259H187.285L184.987 149.471L187.45 153H184.435L183.191 150.829L181.725 153H178.925L181.375 149.471L179.052 146.259Z" fill="#F09223"/>
</g>
<rect x="203.285" y="130" width="53.4286" height="36" rx="4" fill="white"/>
<g filter="url(#filter10_d_1889_20500)">
<path d="M215.147 148.309C215.147 146.54 215.465 145.302 216.1 144.596C216.739 143.889 217.71 143.536 219.013 143.536C219.639 143.536 220.154 143.614 220.556 143.771C220.958 143.923 221.286 144.124 221.54 144.374C221.793 144.619 221.992 144.879 222.136 145.154C222.284 145.425 222.403 145.743 222.492 146.106C222.665 146.8 222.752 147.524 222.752 148.277C222.752 149.966 222.466 151.201 221.895 151.984C221.324 152.767 220.34 153.159 218.943 153.159C218.16 153.159 217.528 153.034 217.045 152.784C216.563 152.535 216.167 152.168 215.858 151.686C215.634 151.343 215.458 150.876 215.332 150.283C215.209 149.687 215.147 149.028 215.147 148.309ZM217.712 148.315C217.712 149.5 217.816 150.311 218.023 150.747C218.235 151.178 218.539 151.394 218.937 151.394C219.199 151.394 219.426 151.303 219.616 151.121C219.811 150.935 219.953 150.643 220.042 150.245C220.135 149.847 220.181 149.227 220.181 148.385C220.181 147.15 220.075 146.32 219.864 145.897C219.656 145.47 219.343 145.256 218.924 145.256C218.497 145.256 218.188 145.474 217.998 145.91C217.807 146.341 217.712 147.143 217.712 148.315ZM224.072 150.41H226.833V153H224.072V150.41ZM235.631 145.789L233.061 146.106C232.993 145.747 232.879 145.493 232.718 145.345C232.561 145.197 232.367 145.123 232.134 145.123C231.715 145.123 231.389 145.334 231.156 145.757C230.987 146.062 230.862 146.714 230.782 147.712C231.091 147.399 231.408 147.169 231.734 147.021C232.06 146.868 232.436 146.792 232.864 146.792C233.693 146.792 234.394 147.088 234.965 147.681C235.54 148.273 235.828 149.024 235.828 149.934C235.828 150.548 235.682 151.108 235.39 151.616C235.102 152.124 234.7 152.509 234.184 152.771C233.672 153.03 233.029 153.159 232.254 153.159C231.323 153.159 230.576 153 230.014 152.683C229.451 152.365 229 151.86 228.662 151.166C228.327 150.467 228.16 149.545 228.16 148.398C228.16 146.718 228.514 145.489 229.22 144.71C229.927 143.927 230.907 143.536 232.159 143.536C232.9 143.536 233.484 143.622 233.911 143.796C234.343 143.965 234.7 144.215 234.984 144.545C235.267 144.875 235.483 145.29 235.631 145.789ZM230.871 149.934C230.871 150.438 230.998 150.833 231.251 151.121C231.505 151.405 231.816 151.546 232.185 151.546C232.523 151.546 232.807 151.417 233.035 151.159C233.264 150.901 233.378 150.516 233.378 150.004C233.378 149.479 233.259 149.079 233.022 148.804C232.785 148.529 232.491 148.392 232.14 148.392C231.78 148.392 231.478 148.525 231.232 148.792C230.991 149.058 230.871 149.439 230.871 149.934ZM236.482 146.259H239.548L240.621 148.138L241.865 146.259H244.715L242.417 149.471L244.88 153H241.865L240.621 150.829L239.154 153H236.355L238.805 149.471L236.482 146.259Z" fill="#F09E23"/>
</g>
<rect x="260.715" y="130" width="53.4286" height="36" rx="4" fill="white"/>
<g filter="url(#filter11_d_1889_20500)">
<path d="M278.436 143.536V153H275.821V146.798C275.398 147.12 274.987 147.38 274.589 147.579C274.196 147.778 273.701 147.968 273.104 148.15V146.03C273.984 145.747 274.668 145.406 275.154 145.008C275.641 144.611 276.022 144.12 276.297 143.536H278.436ZM281.502 150.41H284.263V153H281.502V150.41ZM293.144 153H285.387C285.476 152.234 285.744 151.515 286.193 150.842C286.646 150.165 287.492 149.367 288.732 148.449C289.489 147.886 289.974 147.458 290.186 147.167C290.397 146.875 290.503 146.597 290.503 146.335C290.503 146.051 290.397 145.81 290.186 145.611C289.978 145.408 289.716 145.307 289.398 145.307C289.068 145.307 288.798 145.41 288.586 145.618C288.379 145.825 288.239 146.191 288.167 146.716L285.577 146.506C285.679 145.778 285.865 145.211 286.136 144.805C286.407 144.395 286.787 144.082 287.278 143.866C287.773 143.646 288.457 143.536 289.329 143.536C290.238 143.536 290.945 143.639 291.449 143.847C291.957 144.054 292.354 144.374 292.642 144.805C292.934 145.233 293.08 145.713 293.08 146.246C293.08 146.813 292.913 147.355 292.579 147.871C292.249 148.387 291.646 148.954 290.77 149.572C290.249 149.932 289.9 150.184 289.722 150.328C289.549 150.472 289.343 150.66 289.106 150.893H293.144V153ZM293.912 146.259H296.978L298.05 148.138L299.294 146.259H302.145L299.847 149.471L302.31 153H299.294L298.05 150.829L296.584 153H293.785L296.235 149.471L293.912 146.259Z" fill="#F09223"/>
</g>
<rect x="318.145" y="130" width="53.4286" height="36" rx="4" fill="white"/>
<g filter="url(#filter12_d_1889_20500)">
<path d="M337.573 153H329.816C329.905 152.234 330.174 151.515 330.623 150.842C331.075 150.165 331.922 149.367 333.162 148.449C333.919 147.886 334.404 147.458 334.615 147.167C334.827 146.875 334.933 146.597 334.933 146.335C334.933 146.051 334.827 145.81 334.615 145.611C334.408 145.408 334.146 145.307 333.828 145.307C333.498 145.307 333.227 145.41 333.016 145.618C332.808 145.825 332.669 146.191 332.597 146.716L330.007 146.506C330.108 145.778 330.295 145.211 330.565 144.805C330.836 144.395 331.217 144.082 331.708 143.866C332.203 143.646 332.887 143.536 333.758 143.536C334.668 143.536 335.375 143.639 335.878 143.847C336.386 144.054 336.784 144.374 337.072 144.805C337.364 145.233 337.51 145.713 337.51 146.246C337.51 146.813 337.343 147.355 337.008 147.871C336.678 148.387 336.075 148.954 335.199 149.572C334.679 149.932 334.33 150.184 334.152 150.328C333.978 150.472 333.773 150.66 333.536 150.893H337.573V153ZM338.932 150.41H341.693V153H338.932V150.41ZM350.573 153H342.816C342.905 152.234 343.174 151.515 343.623 150.842C344.075 150.165 344.922 149.367 346.162 148.449C346.919 147.886 347.404 147.458 347.615 147.167C347.827 146.875 347.933 146.597 347.933 146.335C347.933 146.051 347.827 145.81 347.615 145.611C347.408 145.408 347.146 145.307 346.828 145.307C346.498 145.307 346.227 145.41 346.016 145.618C345.808 145.825 345.669 146.191 345.597 146.716L343.007 146.506C343.108 145.778 343.295 145.211 343.565 144.805C343.836 144.395 344.217 144.082 344.708 143.866C345.203 143.646 345.887 143.536 346.758 143.536C347.668 143.536 348.375 143.639 348.878 143.847C349.386 144.054 349.784 144.374 350.072 144.805C350.364 145.233 350.51 145.713 350.51 146.246C350.51 146.813 350.343 147.355 350.008 147.871C349.678 148.387 349.075 148.954 348.199 149.572C347.679 149.932 347.33 150.184 347.152 150.328C346.978 150.472 346.773 150.66 346.536 150.893H350.573V153ZM351.341 146.259H354.407L355.48 148.138L356.724 146.259H359.574L357.276 149.471L359.739 153H356.724L355.48 150.829L354.014 153H351.214L353.665 149.471L351.341 146.259Z" fill="#F08523"/>
</g>
<rect x="375.57" y="130" width="53.4286" height="36" rx="4" fill="white"/>
<g filter="url(#filter13_d_1889_20500)">
<path d="M398.376 151.261H393.666V149.134L398.376 143.536H400.629V149.255H401.797V151.261H400.629V153H398.376V151.261ZM398.376 149.255V146.329L395.888 149.255H398.376ZM402.267 146.259H405.333L406.406 148.138L407.65 146.259H410.5L408.202 149.471L410.665 153H407.65L406.406 150.829L404.939 153H402.14L404.59 149.471L402.267 146.259Z" fill="#F07923"/>
</g>
<path d="M191.434 183.097C191.018 183.097 190.654 183.214 190.342 183.474C190.082 183.656 189.861 183.929 189.692 184.293V183.279H188.314V190H189.692V186.438C189.692 185.853 189.861 185.372 190.212 185.008C190.537 184.67 190.914 184.501 191.33 184.501C191.642 184.501 191.967 184.54 192.305 184.644V183.266C192.071 183.149 191.772 183.097 191.434 183.097ZM193.151 183.279V187.465C193.151 189.272 193.957 190.182 195.582 190.182C196.427 190.182 197.129 189.818 197.701 189.09V190H199.079V183.279H197.701V187.387C197.584 187.881 197.363 188.284 197.051 188.583C196.739 188.869 196.414 189.025 196.05 189.025C195.517 189.025 195.127 188.882 194.893 188.622C194.646 188.362 194.529 187.946 194.529 187.374V183.279H193.151ZM196.012 179.393C195.622 179.393 195.232 179.458 194.842 179.601V180.238C195.219 180.056 195.583 179.965 195.934 179.965C196.441 179.965 196.701 180.108 196.701 180.394C196.701 180.68 196.389 180.979 195.765 181.291L196.129 181.668C196.974 181.343 197.403 180.914 197.403 180.381C197.403 179.718 196.935 179.393 196.012 179.393ZM201.629 180.588C201.356 180.588 201.135 180.666 200.953 180.848C200.771 181.017 200.68 181.238 200.68 181.511C200.68 181.771 200.771 182.005 200.953 182.187C201.135 182.356 201.356 182.447 201.629 182.447C201.889 182.447 202.123 182.356 202.305 182.187C202.487 182.005 202.591 181.784 202.591 181.511C202.591 181.238 202.5 181.017 202.318 180.848C202.136 180.666 201.902 180.588 201.629 180.588ZM200.94 183.279V190H202.318V183.279H200.94ZM211.632 183.097C211.216 183.097 210.852 183.214 210.54 183.474C210.28 183.656 210.059 183.929 209.89 184.293V183.279H208.512V190H209.89V186.438C209.89 185.853 210.059 185.372 210.41 185.008C210.735 184.67 211.112 184.501 211.528 184.501C211.84 184.501 212.165 184.54 212.503 184.644V183.266C212.269 183.149 211.97 183.097 211.632 183.097ZM216.443 183.097C215.429 183.097 214.61 183.435 213.999 184.111C213.388 184.774 213.089 185.619 213.089 186.646C213.089 187.66 213.388 188.505 213.986 189.155C214.61 189.831 215.429 190.182 216.443 190.182C217.457 190.182 218.276 189.831 218.9 189.155C219.498 188.505 219.797 187.66 219.797 186.646C219.797 185.619 219.485 184.774 218.887 184.111C218.276 183.435 217.457 183.097 216.443 183.097ZM216.443 184.228C217.08 184.228 217.574 184.475 217.938 184.982C218.25 185.411 218.406 185.97 218.406 186.646C218.406 187.309 218.25 187.855 217.938 188.297C217.574 188.791 217.08 189.051 216.443 189.051C215.806 189.051 215.312 188.791 214.961 188.297C214.649 187.868 214.506 187.322 214.506 186.646C214.506 185.97 214.649 185.411 214.961 184.982C215.312 184.475 215.806 184.228 216.443 184.228ZM226.423 183.331C226.137 183.331 225.916 183.422 225.747 183.617C225.552 183.799 225.461 184.033 225.461 184.306C225.461 184.566 225.552 184.8 225.747 184.995C225.916 185.177 226.137 185.268 226.423 185.268C226.683 185.268 226.917 185.177 227.112 184.995C227.294 184.8 227.398 184.566 227.398 184.306C227.398 184.033 227.294 183.799 227.112 183.617C226.917 183.422 226.683 183.331 226.423 183.331ZM226.423 188.089C226.137 188.089 225.916 188.18 225.747 188.375C225.552 188.557 225.461 188.791 225.461 189.064C225.461 189.324 225.552 189.558 225.747 189.753C225.916 189.935 226.137 190.026 226.423 190.026C226.683 190.026 226.917 189.935 227.112 189.753C227.294 189.558 227.398 189.324 227.398 189.064C227.398 188.791 227.294 188.557 227.112 188.375C226.917 188.18 226.683 188.089 226.423 188.089ZM239.234 181.641V182.473C239.234 183.097 239.013 183.422 238.571 183.422C238.428 183.422 238.116 183.37 237.635 183.266C237.154 183.149 236.738 183.097 236.4 183.097C235.386 183.097 234.567 183.435 233.956 184.111C233.345 184.774 233.046 185.619 233.046 186.646C233.046 187.66 233.345 188.505 233.943 189.155C234.567 189.831 235.386 190.182 236.4 190.182C237.414 190.182 238.233 189.831 238.857 189.155C239.455 188.505 239.754 187.66 239.754 186.646C239.754 185.736 239.52 184.982 239.065 184.371L239.104 184.306H239.312C239.611 184.306 239.871 184.176 240.079 183.942C240.3 183.656 240.417 183.279 240.417 182.785V181.641H239.234ZM236.4 184.228C237.037 184.228 237.531 184.475 237.895 184.982C238.207 185.411 238.363 185.97 238.363 186.646C238.363 187.309 238.207 187.855 237.895 188.297C237.531 188.791 237.037 189.051 236.4 189.051C235.763 189.051 235.269 188.791 234.918 188.297C234.606 187.868 234.463 187.322 234.463 186.646C234.463 185.97 234.606 185.411 234.918 184.982C235.269 184.475 235.763 184.228 236.4 184.228ZM236.485 178.393C236.095 178.393 235.705 178.458 235.315 178.601V179.238C235.692 179.056 236.056 178.965 236.407 178.965C236.914 178.965 237.174 179.108 237.174 179.394C237.174 179.68 236.862 179.979 236.238 180.291L236.602 180.668C237.447 180.343 237.876 179.914 237.876 179.381C237.876 178.718 237.408 178.393 236.485 178.393ZM248.581 183.097C247.671 183.097 246.93 183.409 246.371 184.046C245.799 184.67 245.526 185.476 245.526 186.49C245.526 187.504 245.799 188.31 246.371 188.921C246.93 189.532 247.671 189.844 248.581 189.844C249.465 189.844 250.141 189.467 250.635 188.726V189.766C250.635 191.027 250.05 191.664 248.88 191.664C248.334 191.664 247.931 191.573 247.684 191.417C247.424 191.248 247.268 190.962 247.19 190.572H245.812C245.942 191.313 246.241 191.859 246.735 192.223C247.229 192.574 247.944 192.756 248.88 192.756C250.96 192.756 252.013 191.69 252.013 189.558V183.279H250.635V184.176C250.141 183.448 249.465 183.097 248.581 183.097ZM248.789 184.215C249.374 184.215 249.829 184.41 250.167 184.826C250.479 185.229 250.648 185.788 250.648 186.49C250.648 187.179 250.479 187.725 250.167 188.128C249.829 188.518 249.374 188.713 248.789 188.713C248.113 188.713 247.632 188.479 247.333 188.037C247.073 187.66 246.943 187.14 246.943 186.49C246.943 185.775 247.099 185.216 247.437 184.826C247.749 184.41 248.204 184.215 248.789 184.215ZM254.543 180.588C254.27 180.588 254.049 180.666 253.867 180.848C253.685 181.017 253.594 181.238 253.594 181.511C253.594 181.771 253.685 182.005 253.867 182.187C254.049 182.356 254.27 182.447 254.543 182.447C254.803 182.447 255.037 182.356 255.219 182.187C255.401 182.005 255.505 181.784 255.505 181.511C255.505 181.238 255.414 181.017 255.232 180.848C255.05 180.666 254.816 180.588 254.543 180.588ZM253.854 183.279V190H255.232V183.279H253.854ZM263.61 181.667V182.499C263.61 183.019 263.35 183.279 262.843 183.279H261.647V187.387C261.53 187.881 261.309 188.284 260.997 188.583C260.685 188.869 260.36 189.025 259.996 189.025C259.463 189.025 259.073 188.882 258.839 188.622C258.592 188.362 258.475 187.946 258.475 187.374V183.279H257.097V187.465C257.097 189.272 257.903 190.182 259.528 190.182C260.373 190.182 261.075 189.818 261.647 189.09V190H263.025V184.267H263.272C264.286 184.267 264.793 183.708 264.793 182.616V181.667H263.61ZM259.788 178.861C259.385 178.861 259.008 179.121 258.644 179.667L259.229 180.148C259.463 179.849 259.671 179.706 259.84 179.706C260.022 179.706 260.295 179.784 260.659 179.94C261.01 180.096 261.322 180.187 261.595 180.187C261.998 180.187 262.375 179.914 262.726 179.394L262.128 178.913C261.894 179.199 261.699 179.355 261.543 179.355C261.335 179.355 261.062 179.264 260.711 179.108C260.347 178.939 260.048 178.861 259.788 178.861ZM268.873 183.097C268.041 183.097 267.365 183.24 266.871 183.552C266.299 183.89 265.935 184.436 265.792 185.164L267.157 185.281C267.235 184.904 267.43 184.631 267.742 184.449C268.002 184.293 268.353 184.215 268.782 184.215C269.796 184.215 270.303 184.683 270.303 185.619V185.892L268.795 185.931C267.807 185.957 267.027 186.152 266.481 186.542C265.883 186.945 265.584 187.53 265.584 188.284C265.584 188.843 265.792 189.298 266.221 189.649C266.611 190 267.157 190.182 267.859 190.182C268.457 190.182 268.977 190.065 269.419 189.857C269.809 189.662 270.134 189.389 270.394 189.051V190H271.668V185.71C271.668 184.891 271.46 184.267 271.057 183.838C270.589 183.344 269.861 183.097 268.873 183.097ZM270.303 186.893V187.283C270.303 187.803 270.082 188.245 269.666 188.596C269.25 188.947 268.756 189.129 268.171 189.129C267.82 189.129 267.534 189.038 267.326 188.869C267.105 188.7 267.001 188.492 267.001 188.232C267.001 187.4 267.625 186.958 268.886 186.932L270.303 186.893Z" fill="#A6A6A6"/>
<rect x="31" y="240" width="53.4286" height="36" rx="4" fill="white"/>
<g filter="url(#filter14_d_1889_20500)">
<path d="M50.9175 257.998C50.5112 257.782 50.215 257.541 50.0288 257.274C49.7749 256.91 49.6479 256.492 49.6479 256.018C49.6479 255.239 50.014 254.602 50.7461 254.107C51.3174 253.726 52.0728 253.536 53.0122 253.536C54.2563 253.536 55.1746 253.773 55.7671 254.247C56.3638 254.721 56.6621 255.317 56.6621 256.037C56.6621 256.456 56.5436 256.847 56.3066 257.211C56.1289 257.482 55.8496 257.744 55.4688 257.998C55.9723 258.239 56.3468 258.559 56.5923 258.957C56.842 259.354 56.9668 259.794 56.9668 260.277C56.9668 260.742 56.8589 261.178 56.6431 261.584C56.4315 261.986 56.1691 262.298 55.856 262.518C55.547 262.738 55.1598 262.898 54.6943 263C54.2331 263.106 53.7401 263.159 53.2153 263.159C52.2293 263.159 51.4761 263.042 50.9556 262.81C50.4351 262.577 50.0394 262.234 49.7686 261.781C49.4977 261.328 49.3623 260.823 49.3623 260.264C49.3623 259.718 49.4893 259.257 49.7432 258.88C49.9971 258.5 50.3885 258.205 50.9175 257.998ZM52.0791 256.17C52.0791 256.492 52.1785 256.752 52.3774 256.951C52.5806 257.145 52.8493 257.243 53.1836 257.243C53.4798 257.243 53.7231 257.145 53.9136 256.951C54.104 256.756 54.1992 256.504 54.1992 256.195C54.1992 255.874 54.0998 255.613 53.9009 255.415C53.702 255.211 53.4481 255.11 53.1392 255.11C52.826 255.11 52.57 255.209 52.3711 255.408C52.1764 255.603 52.0791 255.857 52.0791 256.17ZM51.9395 260.175C51.9395 260.586 52.0643 260.922 52.314 261.185C52.5636 261.443 52.8493 261.572 53.1709 261.572C53.4798 261.572 53.757 261.441 54.0024 261.178C54.2479 260.912 54.3706 260.575 54.3706 260.169C54.3706 259.758 54.2458 259.422 53.9961 259.16C53.7507 258.897 53.465 258.766 53.1392 258.766C52.8175 258.766 52.5361 258.893 52.2949 259.147C52.0579 259.401 51.9395 259.744 51.9395 260.175ZM57.6968 256.259H60.7627L61.8354 258.138L63.0796 256.259H65.9297L63.6318 259.471L66.0947 263H63.0796L61.8354 260.829L60.3691 263H57.5698L60.02 259.471L57.6968 256.259Z" fill="#F07923"/>
</g>
<rect x="88.4297" y="240" width="53.4286" height="36" rx="4" fill="white"/>
<g filter="url(#filter15_d_1889_20500)">
<path d="M104.735 261.261H100.025V259.134L104.735 253.536H106.989V259.255H108.157V261.261H106.989V263H104.735V261.261ZM104.735 259.255V256.329L102.247 259.255H104.735ZM109.217 260.41H111.978V263H109.217V260.41ZM117.735 261.261H113.025V259.134L117.735 253.536H119.989V259.255H121.157V261.261H119.989V263H117.735V261.261ZM117.735 259.255V256.329L115.247 259.255H117.735ZM121.626 256.259H124.692L125.765 258.138L127.009 256.259H129.859L127.562 259.471L130.024 263H127.009L125.765 260.829L124.299 263H121.5L123.95 259.471L121.626 256.259Z" fill="#F08523"/>
</g>
<rect x="145.855" y="240" width="53.4286" height="36" rx="4" fill="white"/>
<g filter="url(#filter16_d_1889_20500)">
<path d="M165.284 263H157.527C157.616 262.234 157.885 261.515 158.333 260.842C158.786 260.165 159.633 259.367 160.873 258.449C161.63 257.886 162.115 257.458 162.326 257.167C162.538 256.875 162.644 256.597 162.644 256.335C162.644 256.051 162.538 255.81 162.326 255.611C162.119 255.408 161.856 255.307 161.539 255.307C161.209 255.307 160.938 255.41 160.727 255.618C160.519 255.825 160.38 256.191 160.308 256.716L157.718 256.506C157.819 255.778 158.006 255.211 158.276 254.805C158.547 254.395 158.928 254.082 159.419 253.866C159.914 253.646 160.597 253.536 161.469 253.536C162.379 253.536 163.086 253.639 163.589 253.847C164.097 254.054 164.495 254.374 164.783 254.805C165.075 255.233 165.221 255.713 165.221 256.246C165.221 256.813 165.054 257.355 164.719 257.871C164.389 258.387 163.786 258.954 162.91 259.572C162.39 259.932 162.041 260.184 161.863 260.328C161.689 260.472 161.484 260.66 161.247 260.893H165.284V263ZM166.643 260.41H169.404V263H166.643V260.41ZM175.161 261.261H170.451V259.134L175.161 253.536H177.415V259.255H178.583V261.261H177.415V263H175.161V261.261ZM175.161 259.255V256.329L172.673 259.255H175.161ZM179.052 256.259H182.118L183.191 258.138L184.435 256.259H187.285L184.987 259.471L187.45 263H184.435L183.191 260.829L181.725 263H178.925L181.375 259.471L179.052 256.259Z" fill="#F09223"/>
</g>
<rect x="203.285" y="240" width="53.4286" height="36" rx="4" fill="white"/>
<g filter="url(#filter17_d_1889_20500)">
<path d="M221.006 253.536V263H218.391V256.798C217.968 257.12 217.557 257.38 217.16 257.579C216.766 257.778 216.271 257.968 215.674 258.15V256.03C216.555 255.747 217.238 255.406 217.725 255.008C218.211 254.611 218.592 254.12 218.867 253.536H221.006ZM224.072 260.41H226.833V263H224.072V260.41ZM235.714 263H227.957C228.046 262.234 228.315 261.515 228.763 260.842C229.216 260.165 230.062 259.367 231.302 258.449C232.06 257.886 232.544 257.458 232.756 257.167C232.967 256.875 233.073 256.597 233.073 256.335C233.073 256.051 232.967 255.81 232.756 255.611C232.549 255.408 232.286 255.307 231.969 255.307C231.639 255.307 231.368 255.41 231.156 255.618C230.949 255.825 230.809 256.191 230.737 256.716L228.147 256.506C228.249 255.778 228.435 255.211 228.706 254.805C228.977 254.395 229.358 254.082 229.849 253.866C230.344 253.646 231.027 253.536 231.899 253.536C232.809 253.536 233.515 253.639 234.019 253.847C234.527 254.054 234.925 254.374 235.212 254.805C235.504 255.233 235.65 255.713 235.65 256.246C235.65 256.813 235.483 257.355 235.149 257.871C234.819 258.387 234.216 258.954 233.34 259.572C232.819 259.932 232.47 260.184 232.292 260.328C232.119 260.472 231.914 260.66 231.677 260.893H235.714V263ZM236.482 256.259H239.548L240.621 258.138L241.865 256.259H244.715L242.417 259.471L244.88 263H241.865L240.621 260.829L239.154 263H236.355L238.805 259.471L236.482 256.259Z" fill="#F09E23"/>
</g>
<rect x="260.715" y="240" width="53.4286" height="36" rx="4" fill="white"/>
<g filter="url(#filter18_d_1889_20500)">
<path d="M280.144 263H272.387C272.476 262.234 272.744 261.515 273.193 260.842C273.646 260.165 274.492 259.367 275.732 258.449C276.489 257.886 276.974 257.458 277.186 257.167C277.397 256.875 277.503 256.597 277.503 256.335C277.503 256.051 277.397 255.81 277.186 255.611C276.978 255.408 276.716 255.307 276.398 255.307C276.068 255.307 275.798 255.41 275.586 255.618C275.379 255.825 275.239 256.191 275.167 256.716L272.577 256.506C272.679 255.778 272.865 255.211 273.136 254.805C273.407 254.395 273.787 254.082 274.278 253.866C274.773 253.646 275.457 253.536 276.329 253.536C277.238 253.536 277.945 253.639 278.449 253.847C278.957 254.054 279.354 254.374 279.642 254.805C279.934 255.233 280.08 255.713 280.08 256.246C280.08 256.813 279.913 257.355 279.579 257.871C279.249 258.387 278.646 258.954 277.77 259.572C277.249 259.932 276.9 260.184 276.722 260.328C276.549 260.472 276.343 260.66 276.106 260.893H280.144V263ZM281.502 260.41H284.263V263H281.502V260.41ZM290.021 261.261H285.311V259.134L290.021 253.536H292.274V259.255H293.442V261.261H292.274V263H290.021V261.261ZM290.021 259.255V256.329L287.532 259.255H290.021ZM293.912 256.259H296.978L298.05 258.138L299.294 256.259H302.145L299.847 259.471L302.31 263H299.294L298.05 260.829L296.584 263H293.785L296.235 259.471L293.912 256.259Z" fill="#F09223"/>
</g>
<rect x="318.145" y="240" width="53.4286" height="36" rx="4" fill="white"/>
<g filter="url(#filter19_d_1889_20500)">
<path d="M334.45 261.261H329.74V259.134L334.45 253.536H336.704V259.255H337.872V261.261H336.704V263H334.45V261.261ZM334.45 259.255V256.329L331.962 259.255H334.45ZM338.932 260.41H341.693V263H338.932V260.41ZM347.45 261.261H342.74V259.134L347.45 253.536H349.704V259.255H350.872V261.261H349.704V263H347.45V261.261ZM347.45 259.255V256.329L344.962 259.255H347.45ZM351.341 256.259H354.407L355.48 258.138L356.724 256.259H359.574L357.276 259.471L359.739 263H356.724L355.48 260.829L354.014 263H351.214L353.665 259.471L351.341 256.259Z" fill="#F08523"/>
</g>
<rect x="375.57" y="240" width="53.4286" height="36" rx="4" fill="white"/>
<g filter="url(#filter20_d_1889_20500)">
<path d="M395.488 257.998C395.082 257.782 394.785 257.541 394.599 257.274C394.345 256.91 394.218 256.492 394.218 256.018C394.218 255.239 394.584 254.602 395.316 254.107C395.888 253.726 396.643 253.536 397.583 253.536C398.827 253.536 399.745 253.773 400.337 254.247C400.934 254.721 401.232 255.317 401.232 256.037C401.232 256.456 401.114 256.847 400.877 257.211C400.699 257.482 400.42 257.744 400.039 257.998C400.543 258.239 400.917 258.559 401.163 258.957C401.412 259.354 401.537 259.794 401.537 260.277C401.537 260.742 401.429 261.178 401.213 261.584C401.002 261.986 400.739 262.298 400.426 262.518C400.117 262.738 399.73 262.898 399.265 263C398.803 263.106 398.31 263.159 397.786 263.159C396.8 263.159 396.046 263.042 395.526 262.81C395.005 262.577 394.61 262.234 394.339 261.781C394.068 261.328 393.933 260.823 393.933 260.264C393.933 259.718 394.06 259.257 394.313 258.88C394.567 258.5 394.959 258.205 395.488 257.998ZM396.649 256.17C396.649 256.492 396.749 256.752 396.948 256.951C397.151 257.145 397.42 257.243 397.754 257.243C398.05 257.243 398.293 257.145 398.484 256.951C398.674 256.756 398.77 256.504 398.77 256.195C398.77 255.874 398.67 255.613 398.471 255.415C398.272 255.211 398.018 255.11 397.709 255.11C397.396 255.11 397.14 255.209 396.941 255.408C396.747 255.603 396.649 255.857 396.649 256.17ZM396.51 260.175C396.51 260.586 396.635 260.922 396.884 261.185C397.134 261.443 397.42 261.572 397.741 261.572C398.05 261.572 398.327 261.441 398.573 261.178C398.818 260.912 398.941 260.575 398.941 260.169C398.941 259.758 398.816 259.422 398.566 259.16C398.321 258.897 398.035 258.766 397.709 258.766C397.388 258.766 397.106 258.893 396.865 259.147C396.628 259.401 396.51 259.744 396.51 260.175ZM402.267 256.259H405.333L406.406 258.138L407.65 256.259H410.5L408.202 259.471L410.665 263H407.65L406.406 260.829L404.939 263H402.14L404.59 259.471L402.267 256.259Z" fill="#F07923"/>
</g>
<path d="M200.2 293.097C199.784 293.097 199.42 293.214 199.108 293.474C198.848 293.656 198.627 293.929 198.458 294.293V293.279H197.08V300H198.458V296.438C198.458 295.853 198.627 295.372 198.978 295.008C199.303 294.67 199.68 294.501 200.096 294.501C200.408 294.501 200.733 294.54 201.071 294.644V293.266C200.837 293.149 200.538 293.097 200.2 293.097ZM201.917 293.279V297.465C201.917 299.272 202.723 300.182 204.348 300.182C205.193 300.182 205.895 299.818 206.467 299.09V300H207.845V293.279H206.467V297.387C206.35 297.881 206.129 298.284 205.817 298.583C205.505 298.869 205.18 299.025 204.816 299.025C204.283 299.025 203.893 298.882 203.659 298.622C203.412 298.362 203.295 297.946 203.295 297.374V293.279H201.917ZM204.778 289.393C204.388 289.393 203.998 289.458 203.608 289.601V290.238C203.985 290.056 204.349 289.965 204.7 289.965C205.207 289.965 205.467 290.108 205.467 290.394C205.467 290.68 205.155 290.979 204.531 291.291L204.895 291.668C205.74 291.343 206.169 290.914 206.169 290.381C206.169 289.718 205.701 289.393 204.778 289.393ZM210.395 290.588C210.122 290.588 209.901 290.666 209.719 290.848C209.537 291.017 209.446 291.238 209.446 291.511C209.446 291.771 209.537 292.005 209.719 292.187C209.901 292.356 210.122 292.447 210.395 292.447C210.655 292.447 210.889 292.356 211.071 292.187C211.253 292.005 211.357 291.784 211.357 291.511C211.357 291.238 211.266 291.017 211.084 290.848C210.902 290.666 210.668 290.588 210.395 290.588ZM209.706 293.279V300H211.084V293.279H209.706ZM220.399 293.097C219.983 293.097 219.619 293.214 219.307 293.474C219.047 293.656 218.826 293.929 218.657 294.293V293.279H217.279V300H218.657V296.438C218.657 295.853 218.826 295.372 219.177 295.008C219.502 294.67 219.879 294.501 220.295 294.501C220.607 294.501 220.932 294.54 221.27 294.644V293.266C221.036 293.149 220.737 293.097 220.399 293.097ZM225.209 293.097C224.195 293.097 223.376 293.435 222.765 294.111C222.154 294.774 221.855 295.619 221.855 296.646C221.855 297.66 222.154 298.505 222.752 299.155C223.376 299.831 224.195 300.182 225.209 300.182C226.223 300.182 227.042 299.831 227.666 299.155C228.264 298.505 228.563 297.66 228.563 296.646C228.563 295.619 228.251 294.774 227.653 294.111C227.042 293.435 226.223 293.097 225.209 293.097ZM225.209 294.228C225.846 294.228 226.34 294.475 226.704 294.982C227.016 295.411 227.172 295.97 227.172 296.646C227.172 297.309 227.016 297.855 226.704 298.297C226.34 298.791 225.846 299.051 225.209 299.051C224.572 299.051 224.078 298.791 223.727 298.297C223.415 297.868 223.272 297.322 223.272 296.646C223.272 295.97 223.415 295.411 223.727 294.982C224.078 294.475 224.572 294.228 225.209 294.228ZM235.189 293.331C234.903 293.331 234.682 293.422 234.513 293.617C234.318 293.799 234.227 294.033 234.227 294.306C234.227 294.566 234.318 294.8 234.513 294.995C234.682 295.177 234.903 295.268 235.189 295.268C235.449 295.268 235.683 295.177 235.878 294.995C236.06 294.8 236.164 294.566 236.164 294.306C236.164 294.033 236.06 293.799 235.878 293.617C235.683 293.422 235.449 293.331 235.189 293.331ZM235.189 298.089C234.903 298.089 234.682 298.18 234.513 298.375C234.318 298.557 234.227 298.791 234.227 299.064C234.227 299.324 234.318 299.558 234.513 299.753C234.682 299.935 234.903 300.026 235.189 300.026C235.449 300.026 235.683 299.935 235.878 299.753C236.06 299.558 236.164 299.324 236.164 299.064C236.164 298.791 236.06 298.557 235.878 298.375C235.683 298.18 235.449 298.089 235.189 298.089ZM245.062 293.097C244.022 293.097 243.216 293.448 242.631 294.15C242.085 294.8 241.812 295.632 241.812 296.646C241.812 297.686 242.085 298.518 242.644 299.168C243.216 299.844 244.009 300.182 245.036 300.182C245.894 300.182 246.596 299.961 247.116 299.532C247.636 299.09 247.987 298.414 248.143 297.517H246.778C246.648 298.531 246.076 299.051 245.049 299.051C244.451 299.051 244.009 298.83 243.71 298.414C243.385 297.985 243.229 297.387 243.229 296.633C243.229 295.879 243.385 295.281 243.723 294.865C244.048 294.436 244.49 294.228 245.062 294.228C245.53 294.228 245.907 294.332 246.193 294.553C246.479 294.761 246.661 295.099 246.752 295.554H248.117C247.987 294.722 247.649 294.098 247.129 293.682C246.609 293.292 245.92 293.097 245.062 293.097ZM252.351 293.097C251.519 293.097 250.843 293.24 250.349 293.552C249.777 293.89 249.413 294.436 249.27 295.164L250.635 295.281C250.713 294.904 250.908 294.631 251.22 294.449C251.48 294.293 251.831 294.215 252.26 294.215C253.274 294.215 253.781 294.683 253.781 295.619V295.892L252.273 295.931C251.285 295.957 250.505 296.152 249.959 296.542C249.361 296.945 249.062 297.53 249.062 298.284C249.062 298.843 249.27 299.298 249.699 299.649C250.089 300 250.635 300.182 251.337 300.182C251.935 300.182 252.455 300.065 252.897 299.857C253.287 299.662 253.612 299.389 253.872 299.051V300H255.146V295.71C255.146 294.891 254.938 294.267 254.535 293.838C254.067 293.344 253.339 293.097 252.351 293.097ZM253.781 296.893V297.283C253.781 297.803 253.56 298.245 253.144 298.596C252.728 298.947 252.234 299.129 251.649 299.129C251.298 299.129 251.012 299.038 250.804 298.869C250.583 298.7 250.479 298.492 250.479 298.232C250.479 297.4 251.103 296.958 252.364 296.932L253.781 296.893ZM259.817 293.097C258.803 293.097 257.984 293.435 257.373 294.111C256.762 294.774 256.463 295.619 256.463 296.646C256.463 297.66 256.762 298.505 257.36 299.155C257.984 299.831 258.803 300.182 259.817 300.182C260.831 300.182 261.65 299.831 262.274 299.155C262.872 298.505 263.171 297.66 263.171 296.646C263.171 295.619 262.859 294.774 262.261 294.111C261.65 293.435 260.831 293.097 259.817 293.097ZM259.817 294.228C260.454 294.228 260.948 294.475 261.312 294.982C261.624 295.411 261.78 295.97 261.78 296.646C261.78 297.309 261.624 297.855 261.312 298.297C260.948 298.791 260.454 299.051 259.817 299.051C259.18 299.051 258.686 298.791 258.335 298.297C258.023 297.868 257.88 297.322 257.88 296.646C257.88 295.97 258.023 295.411 258.335 294.982C258.686 294.475 259.18 294.228 259.817 294.228Z" fill="#A6A6A6"/>
<defs>
<filter id="filter0_d_1889_20500" x="45.1719" y="31.5352" width="24.9219" height="17.4648" filterUnits="userSpaceOnUse" color-interpolation-filters="sRGB">
<feFlood flood-opacity="0" result="BackgroundImageFix"/>
<feColorMatrix in="SourceAlpha" type="matrix" values="0 0 0 0 0 0 0 0 0 0 0 0 0 0 0 0 0 0 127 0" result="hardAlpha"/>
<feOffset dy="2"/>
<feGaussianBlur stdDeviation="2"/>
<feComposite in2="hardAlpha" operator="out"/>
<feColorMatrix type="matrix" values="0 0 0 0 0 0 0 0 0 0 0 0 0 0 0 0 0 0 0.3 0"/>
<feBlend mode="normal" in2="BackgroundImageFix" result="effect1_dropShadow_1889_20500"/>
<feBlend mode="normal" in="SourceGraphic" in2="effect1_dropShadow_1889_20500" result="shape"/>
</filter>
<filter id="filter1_d_1889_20500" x="96.8203" y="31.5352" width="37.2031" height="17.4648" filterUnits="userSpaceOnUse" color-interpolation-filters="sRGB">
<feFlood flood-opacity="0" result="BackgroundImageFix"/>
<feColorMatrix in="SourceAlpha" type="matrix" values="0 0 0 0 0 0 0 0 0 0 0 0 0 0 0 0 0 0 127 0" result="hardAlpha"/>
<feOffset dy="2"/>
<feGaussianBlur stdDeviation="2"/>
<feComposite in2="hardAlpha" operator="out"/>
<feColorMatrix type="matrix" values="0 0 0 0 0 0 0 0 0 0 0 0 0 0 0 0 0 0 0.3 0"/>
<feBlend mode="normal" in2="BackgroundImageFix" result="effect1_dropShadow_1889_20500"/>
<feBlend mode="normal" in="SourceGraphic" in2="effect1_dropShadow_1889_20500" result="shape"/>
</filter>
<filter id="filter2_d_1889_20500" x="153.719" y="31.5352" width="37.7305" height="17.625" filterUnits="userSpaceOnUse" color-interpolation-filters="sRGB">
<feFlood flood-opacity="0" result="BackgroundImageFix"/>
<feColorMatrix in="SourceAlpha" type="matrix" values="0 0 0 0 0 0 0 0 0 0 0 0 0 0 0 0 0 0 127 0" result="hardAlpha"/>
<feOffset dy="2"/>
<feGaussianBlur stdDeviation="2"/>
<feComposite in2="hardAlpha" operator="out"/>
<feColorMatrix type="matrix" values="0 0 0 0 0 0 0 0 0 0 0 0 0 0 0 0 0 0 0.3 0"/>
<feBlend mode="normal" in2="BackgroundImageFix" result="effect1_dropShadow_1889_20500"/>
<feBlend mode="normal" in="SourceGraphic" in2="effect1_dropShadow_1889_20500" result="shape"/>
</filter>
<filter id="filter3_d_1889_20500" x="211.148" y="31.5352" width="37.7305" height="17.625" filterUnits="userSpaceOnUse" color-interpolation-filters="sRGB">
<feFlood flood-opacity="0" result="BackgroundImageFix"/>
<feColorMatrix in="SourceAlpha" type="matrix" values="0 0 0 0 0 0 0 0 0 0 0 0 0 0 0 0 0 0 127 0" result="hardAlpha"/>
<feOffset dy="2"/>
<feGaussianBlur stdDeviation="2"/>
<feComposite in2="hardAlpha" operator="out"/>
<feColorMatrix type="matrix" values="0 0 0 0 0 0 0 0 0 0 0 0 0 0 0 0 0 0 0.3 0"/>
<feBlend mode="normal" in2="BackgroundImageFix" result="effect1_dropShadow_1889_20500"/>
<feBlend mode="normal" in="SourceGraphic" in2="effect1_dropShadow_1889_20500" result="shape"/>
</filter>
<filter id="filter4_d_1889_20500" x="268.578" y="31.5352" width="37.7305" height="17.625" filterUnits="userSpaceOnUse" color-interpolation-filters="sRGB">
<feFlood flood-opacity="0" result="BackgroundImageFix"/>
<feColorMatrix in="SourceAlpha" type="matrix" values="0 0 0 0 0 0 0 0 0 0 0 0 0 0 0 0 0 0 127 0" result="hardAlpha"/>
<feOffset dy="2"/>
<feGaussianBlur stdDeviation="2"/>
<feComposite in2="hardAlpha" operator="out"/>
<feColorMatrix type="matrix" values="0 0 0 0 0 0 0 0 0 0 0 0 0 0 0 0 0 0 0.3 0"/>
<feBlend mode="normal" in2="BackgroundImageFix" result="effect1_dropShadow_1889_20500"/>
<feBlend mode="normal" in="SourceGraphic" in2="effect1_dropShadow_1889_20500" result="shape"/>
</filter>
<filter id="filter5_d_1889_20500" x="326.535" y="31.5352" width="37.2031" height="17.4648" filterUnits="userSpaceOnUse" color-interpolation-filters="sRGB">
<feFlood flood-opacity="0" result="BackgroundImageFix"/>
<feColorMatrix in="SourceAlpha" type="matrix" values="0 0 0 0 0 0 0 0 0 0 0 0 0 0 0 0 0 0 127 0" result="hardAlpha"/>
<feOffset dy="2"/>
<feGaussianBlur stdDeviation="2"/>
<feComposite in2="hardAlpha" operator="out"/>
<feColorMatrix type="matrix" values="0 0 0 0 0 0 0 0 0 0 0 0 0 0 0 0 0 0 0.3 0"/>
<feBlend mode="normal" in2="BackgroundImageFix" result="effect1_dropShadow_1889_20500"/>
<feBlend mode="normal" in="SourceGraphic" in2="effect1_dropShadow_1889_20500" result="shape"/>
</filter>
<filter id="filter6_d_1889_20500" x="389.742" y="31.5352" width="24.9219" height="17.4648" filterUnits="userSpaceOnUse" color-interpolation-filters="sRGB">
<feFlood flood-opacity="0" result="BackgroundImageFix"/>
<feColorMatrix in="SourceAlpha" type="matrix" values="0 0 0 0 0 0 0 0 0 0 0 0 0 0 0 0 0 0 127 0" result="hardAlpha"/>
<feOffset dy="2"/>
<feGaussianBlur stdDeviation="2"/>
<feComposite in2="hardAlpha" operator="out"/>
<feColorMatrix type="matrix" values="0 0 0 0 0 0 0 0 0 0 0 0 0 0 0 0 0 0 0.3 0"/>
<feBlend mode="normal" in2="BackgroundImageFix" result="effect1_dropShadow_1889_20500"/>
<feBlend mode="normal" in="SourceGraphic" in2="effect1_dropShadow_1889_20500" result="shape"/>
</filter>
<filter id="filter7_d_1889_20500" x="45.0938" y="141.535" width="25" height="17.4648" filterUnits="userSpaceOnUse" color-interpolation-filters="sRGB">
<feFlood flood-opacity="0" result="BackgroundImageFix"/>
<feColorMatrix in="SourceAlpha" type="matrix" values="0 0 0 0 0 0 0 0 0 0 0 0 0 0 0 0 0 0 127 0" result="hardAlpha"/>
<feOffset dy="2"/>
<feGaussianBlur stdDeviation="2"/>
<feComposite in2="hardAlpha" operator="out"/>
<feColorMatrix type="matrix" values="0 0 0 0 0 0 0 0 0 0 0 0 0 0 0 0 0 0 0.3 0"/>
<feBlend mode="normal" in2="BackgroundImageFix" result="effect1_dropShadow_1889_20500"/>
<feBlend mode="normal" in="SourceGraphic" in2="effect1_dropShadow_1889_20500" result="shape"/>
</filter>
<filter id="filter8_d_1889_20500" x="96.1016" y="141.535" width="37.9219" height="17.4648" filterUnits="userSpaceOnUse" color-interpolation-filters="sRGB">
<feFlood flood-opacity="0" result="BackgroundImageFix"/>
<feColorMatrix in="SourceAlpha" type="matrix" values="0 0 0 0 0 0 0 0 0 0 0 0 0 0 0 0 0 0 127 0" result="hardAlpha"/>
<feOffset dy="2"/>
<feGaussianBlur stdDeviation="2"/>
<feComposite in2="hardAlpha" operator="out"/>
<feColorMatrix type="matrix" values="0 0 0 0 0 0 0 0 0 0 0 0 0 0 0 0 0 0 0.3 0"/>
<feBlend mode="normal" in2="BackgroundImageFix" result="effect1_dropShadow_1889_20500"/>
<feBlend mode="normal" in="SourceGraphic" in2="effect1_dropShadow_1889_20500" result="shape"/>
</filter>
<filter id="filter9_d_1889_20500" x="154.246" y="141.535" width="37.2031" height="17.4648" filterUnits="userSpaceOnUse" color-interpolation-filters="sRGB">
<feFlood flood-opacity="0" result="BackgroundImageFix"/>
<feColorMatrix in="SourceAlpha" type="matrix" values="0 0 0 0 0 0 0 0 0 0 0 0 0 0 0 0 0 0 127 0" result="hardAlpha"/>
<feOffset dy="2"/>
<feGaussianBlur stdDeviation="2"/>
<feComposite in2="hardAlpha" operator="out"/>
<feColorMatrix type="matrix" values="0 0 0 0 0 0 0 0 0 0 0 0 0 0 0 0 0 0 0.3 0"/>
<feBlend mode="normal" in2="BackgroundImageFix" result="effect1_dropShadow_1889_20500"/>
<feBlend mode="normal" in="SourceGraphic" in2="effect1_dropShadow_1889_20500" result="shape"/>
</filter>
<filter id="filter10_d_1889_20500" x="211.148" y="141.535" width="37.7305" height="17.625" filterUnits="userSpaceOnUse" color-interpolation-filters="sRGB">
<feFlood flood-opacity="0" result="BackgroundImageFix"/>
<feColorMatrix in="SourceAlpha" type="matrix" values="0 0 0 0 0 0 0 0 0 0 0 0 0 0 0 0 0 0 127 0" result="hardAlpha"/>
<feOffset dy="2"/>
<feGaussianBlur stdDeviation="2"/>
<feComposite in2="hardAlpha" operator="out"/>
<feColorMatrix type="matrix" values="0 0 0 0 0 0 0 0 0 0 0 0 0 0 0 0 0 0 0.3 0"/>
<feBlend mode="normal" in2="BackgroundImageFix" result="effect1_dropShadow_1889_20500"/>
<feBlend mode="normal" in="SourceGraphic" in2="effect1_dropShadow_1889_20500" result="shape"/>
</filter>
<filter id="filter11_d_1889_20500" x="269.105" y="141.535" width="37.2031" height="17.4648" filterUnits="userSpaceOnUse" color-interpolation-filters="sRGB">
<feFlood flood-opacity="0" result="BackgroundImageFix"/>
<feColorMatrix in="SourceAlpha" type="matrix" values="0 0 0 0 0 0 0 0 0 0 0 0 0 0 0 0 0 0 127 0" result="hardAlpha"/>
<feOffset dy="2"/>
<feGaussianBlur stdDeviation="2"/>
<feComposite in2="hardAlpha" operator="out"/>
<feColorMatrix type="matrix" values="0 0 0 0 0 0 0 0 0 0 0 0 0 0 0 0 0 0 0.3 0"/>
<feBlend mode="normal" in2="BackgroundImageFix" result="effect1_dropShadow_1889_20500"/>
<feBlend mode="normal" in="SourceGraphic" in2="effect1_dropShadow_1889_20500" result="shape"/>
</filter>
<filter id="filter12_d_1889_20500" x="325.816" y="141.535" width="37.9219" height="17.4648" filterUnits="userSpaceOnUse" color-interpolation-filters="sRGB">
<feFlood flood-opacity="0" result="BackgroundImageFix"/>
<feColorMatrix in="SourceAlpha" type="matrix" values="0 0 0 0 0 0 0 0 0 0 0 0 0 0 0 0 0 0 127 0" result="hardAlpha"/>
<feOffset dy="2"/>
<feGaussianBlur stdDeviation="2"/>
<feComposite in2="hardAlpha" operator="out"/>
<feColorMatrix type="matrix" values="0 0 0 0 0 0 0 0 0 0 0 0 0 0 0 0 0 0 0.3 0"/>
<feBlend mode="normal" in2="BackgroundImageFix" result="effect1_dropShadow_1889_20500"/>
<feBlend mode="normal" in="SourceGraphic" in2="effect1_dropShadow_1889_20500" result="shape"/>
</filter>
<filter id="filter13_d_1889_20500" x="389.664" y="141.535" width="25" height="17.4648" filterUnits="userSpaceOnUse" color-interpolation-filters="sRGB">
<feFlood flood-opacity="0" result="BackgroundImageFix"/>
<feColorMatrix in="SourceAlpha" type="matrix" values="0 0 0 0 0 0 0 0 0 0 0 0 0 0 0 0 0 0 127 0" result="hardAlpha"/>
<feOffset dy="2"/>
<feGaussianBlur stdDeviation="2"/>
<feComposite in2="hardAlpha" operator="out"/>
<feColorMatrix type="matrix" values="0 0 0 0 0 0 0 0 0 0 0 0 0 0 0 0 0 0 0.3 0"/>
<feBlend mode="normal" in2="BackgroundImageFix" result="effect1_dropShadow_1889_20500"/>
<feBlend mode="normal" in="SourceGraphic" in2="effect1_dropShadow_1889_20500" result="shape"/>
</filter>
<filter id="filter14_d_1889_20500" x="45.3633" y="251.535" width="24.7305" height="17.625" filterUnits="userSpaceOnUse" color-interpolation-filters="sRGB">
<feFlood flood-opacity="0" result="BackgroundImageFix"/>
<feColorMatrix in="SourceAlpha" type="matrix" values="0 0 0 0 0 0 0 0 0 0 0 0 0 0 0 0 0 0 127 0" result="hardAlpha"/>
<feOffset dy="2"/>
<feGaussianBlur stdDeviation="2"/>
<feComposite in2="hardAlpha" operator="out"/>
<feColorMatrix type="matrix" values="0 0 0 0 0 0 0 0 0 0 0 0 0 0 0 0 0 0 0.3 0"/>
<feBlend mode="normal" in2="BackgroundImageFix" result="effect1_dropShadow_1889_20500"/>
<feBlend mode="normal" in="SourceGraphic" in2="effect1_dropShadow_1889_20500" result="shape"/>
</filter>
<filter id="filter15_d_1889_20500" x="96.0234" y="251.535" width="38" height="17.4648" filterUnits="userSpaceOnUse" color-interpolation-filters="sRGB">
<feFlood flood-opacity="0" result="BackgroundImageFix"/>
<feColorMatrix in="SourceAlpha" type="matrix" values="0 0 0 0 0 0 0 0 0 0 0 0 0 0 0 0 0 0 127 0" result="hardAlpha"/>
<feOffset dy="2"/>
<feGaussianBlur stdDeviation="2"/>
<feComposite in2="hardAlpha" operator="out"/>
<feColorMatrix type="matrix" values="0 0 0 0 0 0 0 0 0 0 0 0 0 0 0 0 0 0 0.3 0"/>
<feBlend mode="normal" in2="BackgroundImageFix" result="effect1_dropShadow_1889_20500"/>
<feBlend mode="normal" in="SourceGraphic" in2="effect1_dropShadow_1889_20500" result="shape"/>
</filter>
<filter id="filter16_d_1889_20500" x="153.527" y="251.535" width="37.9219" height="17.4648" filterUnits="userSpaceOnUse" color-interpolation-filters="sRGB">
<feFlood flood-opacity="0" result="BackgroundImageFix"/>
<feColorMatrix in="SourceAlpha" type="matrix" values="0 0 0 0 0 0 0 0 0 0 0 0 0 0 0 0 0 0 127 0" result="hardAlpha"/>
<feOffset dy="2"/>
<feGaussianBlur stdDeviation="2"/>
<feComposite in2="hardAlpha" operator="out"/>
<feColorMatrix type="matrix" values="0 0 0 0 0 0 0 0 0 0 0 0 0 0 0 0 0 0 0.3 0"/>
<feBlend mode="normal" in2="BackgroundImageFix" result="effect1_dropShadow_1889_20500"/>
<feBlend mode="normal" in="SourceGraphic" in2="effect1_dropShadow_1889_20500" result="shape"/>
</filter>
<filter id="filter17_d_1889_20500" x="211.676" y="251.535" width="37.2031" height="17.4648" filterUnits="userSpaceOnUse" color-interpolation-filters="sRGB">
<feFlood flood-opacity="0" result="BackgroundImageFix"/>
<feColorMatrix in="SourceAlpha" type="matrix" values="0 0 0 0 0 0 0 0 0 0 0 0 0 0 0 0 0 0 127 0" result="hardAlpha"/>
<feOffset dy="2"/>
<feGaussianBlur stdDeviation="2"/>
<feComposite in2="hardAlpha" operator="out"/>
<feColorMatrix type="matrix" values="0 0 0 0 0 0 0 0 0 0 0 0 0 0 0 0 0 0 0.3 0"/>
<feBlend mode="normal" in2="BackgroundImageFix" result="effect1_dropShadow_1889_20500"/>
<feBlend mode="normal" in="SourceGraphic" in2="effect1_dropShadow_1889_20500" result="shape"/>
</filter>
<filter id="filter18_d_1889_20500" x="268.387" y="251.535" width="37.9219" height="17.4648" filterUnits="userSpaceOnUse" color-interpolation-filters="sRGB">
<feFlood flood-opacity="0" result="BackgroundImageFix"/>
<feColorMatrix in="SourceAlpha" type="matrix" values="0 0 0 0 0 0 0 0 0 0 0 0 0 0 0 0 0 0 127 0" result="hardAlpha"/>
<feOffset dy="2"/>
<feGaussianBlur stdDeviation="2"/>
<feComposite in2="hardAlpha" operator="out"/>
<feColorMatrix type="matrix" values="0 0 0 0 0 0 0 0 0 0 0 0 0 0 0 0 0 0 0.3 0"/>
<feBlend mode="normal" in2="BackgroundImageFix" result="effect1_dropShadow_1889_20500"/>
<feBlend mode="normal" in="SourceGraphic" in2="effect1_dropShadow_1889_20500" result="shape"/>
</filter>
<filter id="filter19_d_1889_20500" x="325.742" y="251.535" width="37.9961" height="17.4648" filterUnits="userSpaceOnUse" color-interpolation-filters="sRGB">
<feFlood flood-opacity="0" result="BackgroundImageFix"/>
<feColorMatrix in="SourceAlpha" type="matrix" values="0 0 0 0 0 0 0 0 0 0 0 0 0 0 0 0 0 0 127 0" result="hardAlpha"/>
<feOffset dy="2"/>
<feGaussianBlur stdDeviation="2"/>
<feComposite in2="hardAlpha" operator="out"/>
<feColorMatrix type="matrix" values="0 0 0 0 0 0 0 0 0 0 0 0 0 0 0 0 0 0 0.3 0"/>
<feBlend mode="normal" in2="BackgroundImageFix" result="effect1_dropShadow_1889_20500"/>
<feBlend mode="normal" in="SourceGraphic" in2="effect1_dropShadow_1889_20500" result="shape"/>
</filter>
<filter id="filter20_d_1889_20500" x="389.934" y="251.535" width="24.7305" height="17.625" filterUnits="userSpaceOnUse" color-interpolation-filters="sRGB">
<feFlood flood-opacity="0" result="BackgroundImageFix"/>
<feColorMatrix in="SourceAlpha" type="matrix" values="0 0 0 0 0 0 0 0 0 0 0 0 0 0 0 0 0 0 127 0" result="hardAlpha"/>
<feOffset dy="2"/>
<feGaussianBlur stdDeviation="2"/>
<feComposite in2="hardAlpha" operator="out"/>
<feColorMatrix type="matrix" values="0 0 0 0 0 0 0 0 0 0 0 0 0 0 0 0 0 0 0.3 0"/>
<feBlend mode="normal" in2="BackgroundImageFix" result="effect1_dropShadow_1889_20500"/>
<feBlend mode="normal" in="SourceGraphic" in2="effect1_dropShadow_1889_20500" result="shape"/>
</filter>
</defs>
</svg>
