<svg width="460" height="324" viewBox="0 0 460 324" fill="none" xmlns="http://www.w3.org/2000/svg">
<rect width="460" height="324" rx="10" fill="#F4F7FD"/>
<rect x="31" y="20" width="53.4286" height="36" rx="4" fill="white"/>
<g filter="url(#filter0_d_1889_20221)">
<path d="M56.9287 43H49.1719C49.2607 42.234 49.5295 41.5146 49.978 40.8418C50.4308 40.1647 51.2772 39.367 52.5171 38.4487C53.2746 37.8859 53.7591 37.4585 53.9707 37.1665C54.1823 36.8745 54.2881 36.5973 54.2881 36.335C54.2881 36.0514 54.1823 35.8102 53.9707 35.6113C53.7633 35.4082 53.501 35.3066 53.1836 35.3066C52.8535 35.3066 52.5827 35.4103 52.3711 35.6177C52.1637 35.825 52.0241 36.1911 51.9521 36.7158L49.3623 36.5063C49.4639 35.7785 49.6501 35.2114 49.9209 34.8052C50.1917 34.3947 50.5726 34.0815 51.0635 33.8657C51.5586 33.6457 52.242 33.5356 53.1138 33.5356C54.0236 33.5356 54.7303 33.6393 55.2339 33.8467C55.7417 34.054 56.1395 34.3735 56.4272 34.8052C56.7192 35.2326 56.8652 35.7129 56.8652 36.2461C56.8652 36.8132 56.6981 37.3548 56.3638 37.8711C56.0337 38.3874 55.4307 38.9544 54.5547 39.5723C54.0342 39.932 53.6851 40.1838 53.5073 40.3276C53.3338 40.4715 53.1286 40.6598 52.8916 40.8926H56.9287V43ZM57.6968 36.2588H60.7627L61.8354 38.1377L63.0796 36.2588H65.9297L63.6318 39.4707L66.0947 43H63.0796L61.8354 40.8291L60.3691 43H57.5698L60.02 39.4707L57.6968 36.2588Z" fill="#F07923"/>
</g>
<rect x="88.4297" y="20" width="53.4286" height="36" rx="4" fill="white"/>
<g filter="url(#filter1_d_1889_20221)">
<path d="M106.151 33.5356V43H103.536V36.7983C103.112 37.12 102.702 37.3802 102.304 37.5791C101.911 37.778 101.416 37.9684 100.819 38.1504V36.0303C101.699 35.7467 102.382 35.4061 102.869 35.0083C103.356 34.6105 103.737 34.1196 104.012 33.5356H106.151ZM109.217 40.4102H111.978V43H109.217V40.4102ZM119.151 33.5356V43H116.536V36.7983C116.112 37.12 115.702 37.3802 115.304 37.5791C114.911 37.778 114.416 37.9684 113.819 38.1504V36.0303C114.699 35.7467 115.382 35.4061 115.869 35.0083C116.356 34.6105 116.737 34.1196 117.012 33.5356H119.151ZM121.626 36.2588H124.692L125.765 38.1377L127.009 36.2588H129.859L127.562 39.4707L130.024 43H127.009L125.765 40.8291L124.299 43H121.5L123.95 39.4707L121.626 36.2588Z" fill="#F08523"/>
</g>
<rect x="145.855" y="20" width="53.4286" height="36" rx="4" fill="white"/>
<g filter="url(#filter2_d_1889_20221)">
<path d="M157.718 38.3091C157.718 36.5402 158.035 35.3024 158.67 34.5957C159.309 33.889 160.28 33.5356 161.583 33.5356C162.21 33.5356 162.724 33.6139 163.126 33.7705C163.528 33.9229 163.856 34.1239 164.11 34.3735C164.364 34.619 164.563 34.8792 164.707 35.1543C164.855 35.4251 164.973 35.7425 165.062 36.1064C165.236 36.8005 165.322 37.5241 165.322 38.2773C165.322 39.9658 165.037 41.2015 164.465 41.9844C163.894 42.7673 162.91 43.1587 161.514 43.1587C160.731 43.1587 160.098 43.0339 159.616 42.7842C159.133 42.5345 158.738 42.1685 158.429 41.686C158.204 41.3433 158.029 40.8757 157.902 40.2832C157.779 39.6865 157.718 39.0285 157.718 38.3091ZM160.282 38.3154C160.282 39.5003 160.386 40.3107 160.593 40.7466C160.805 41.1782 161.11 41.394 161.507 41.394C161.77 41.394 161.996 41.3031 162.187 41.1211C162.381 40.9349 162.523 40.6429 162.612 40.2451C162.705 39.8473 162.751 39.2274 162.751 38.3853C162.751 37.1496 162.646 36.3201 162.434 35.897C162.227 35.4696 161.914 35.2559 161.495 35.2559C161.067 35.2559 160.758 35.4738 160.568 35.9097C160.377 36.3413 160.282 37.1432 160.282 38.3154ZM166.643 40.4102H169.404V43H166.643V40.4102ZM178.202 35.7891L175.631 36.1064C175.563 35.7467 175.449 35.4928 175.288 35.3447C175.132 35.1966 174.937 35.1226 174.704 35.1226C174.285 35.1226 173.959 35.3341 173.727 35.7573C173.557 36.062 173.432 36.7137 173.352 37.7124C173.661 37.3993 173.978 37.1686 174.304 37.0205C174.63 36.8682 175.007 36.792 175.434 36.792C176.264 36.792 176.964 37.0882 177.535 37.6807C178.111 38.2731 178.398 39.0243 178.398 39.9341C178.398 40.5477 178.252 41.1084 177.96 41.6162C177.673 42.124 177.271 42.5091 176.754 42.7715C176.242 43.0296 175.599 43.1587 174.825 43.1587C173.894 43.1587 173.147 43 172.584 42.6826C172.021 42.3652 171.57 41.8595 171.232 41.1655C170.898 40.4673 170.73 39.5448 170.73 38.3979C170.73 36.7179 171.084 35.4886 171.791 34.71C172.497 33.9271 173.477 33.5356 174.729 33.5356C175.47 33.5356 176.054 33.6224 176.481 33.7959C176.913 33.9652 177.271 34.2148 177.554 34.5449C177.838 34.875 178.054 35.2897 178.202 35.7891ZM173.441 39.9341C173.441 40.4377 173.568 40.8333 173.822 41.1211C174.076 41.4046 174.387 41.5464 174.755 41.5464C175.093 41.5464 175.377 41.4173 175.605 41.1592C175.834 40.901 175.948 40.516 175.948 40.0039C175.948 39.4792 175.83 39.0793 175.593 38.8042C175.356 38.5291 175.062 38.3916 174.71 38.3916C174.351 38.3916 174.048 38.5249 173.803 38.7915C173.562 39.0581 173.441 39.439 173.441 39.9341ZM179.052 36.2588H182.118L183.191 38.1377L184.435 36.2588H187.285L184.987 39.4707L187.45 43H184.435L183.191 40.8291L181.725 43H178.925L181.375 39.4707L179.052 36.2588Z" fill="#F09223"/>
</g>
<rect x="203.285" y="20" width="53.4286" height="36" rx="4" fill="white"/>
<g filter="url(#filter3_d_1889_20221)">
<path d="M215.147 38.3091C215.147 36.5402 215.465 35.3024 216.1 34.5957C216.739 33.889 217.71 33.5356 219.013 33.5356C219.639 33.5356 220.154 33.6139 220.556 33.7705C220.958 33.9229 221.286 34.1239 221.54 34.3735C221.793 34.619 221.992 34.8792 222.136 35.1543C222.284 35.4251 222.403 35.7425 222.492 36.1064C222.665 36.8005 222.752 37.5241 222.752 38.2773C222.752 39.9658 222.466 41.2015 221.895 41.9844C221.324 42.7673 220.34 43.1587 218.943 43.1587C218.16 43.1587 217.528 43.0339 217.045 42.7842C216.563 42.5345 216.167 42.1685 215.858 41.686C215.634 41.3433 215.458 40.8757 215.332 40.2832C215.209 39.6865 215.147 39.0285 215.147 38.3091ZM217.712 38.3154C217.712 39.5003 217.816 40.3107 218.023 40.7466C218.235 41.1782 218.539 41.394 218.937 41.394C219.199 41.394 219.426 41.3031 219.616 41.1211C219.811 40.9349 219.953 40.6429 220.042 40.2451C220.135 39.8473 220.181 39.2274 220.181 38.3853C220.181 37.1496 220.075 36.3201 219.864 35.897C219.656 35.4696 219.343 35.2559 218.924 35.2559C218.497 35.2559 218.188 35.4738 217.998 35.9097C217.807 36.3413 217.712 37.1432 217.712 38.3154ZM224.072 40.4102H226.833V43H224.072V40.4102ZM230.655 36.3857L228.211 35.9478C228.414 35.1691 228.803 34.5724 229.379 34.1577C229.959 33.743 230.778 33.5356 231.835 33.5356C233.05 33.5356 233.928 33.762 234.47 34.2148C235.011 34.6676 235.282 35.2368 235.282 35.9224C235.282 36.3244 235.172 36.6883 234.952 37.0142C234.732 37.34 234.4 37.6257 233.956 37.8711C234.315 37.96 234.59 38.0636 234.781 38.1821C235.09 38.3726 235.329 38.6243 235.498 38.9375C235.672 39.2464 235.758 39.6167 235.758 40.0483C235.758 40.59 235.617 41.1105 235.333 41.6099C235.049 42.105 234.641 42.488 234.108 42.7588C233.575 43.0254 232.874 43.1587 232.007 43.1587C231.16 43.1587 230.492 43.0592 230.001 42.8604C229.514 42.6615 229.112 42.3716 228.795 41.9907C228.482 41.6056 228.241 41.1232 228.071 40.5435L230.655 40.2007C230.756 40.7212 230.913 41.083 231.125 41.2861C231.34 41.485 231.613 41.5845 231.943 41.5845C232.29 41.5845 232.578 41.4575 232.807 41.2036C233.039 40.9497 233.156 40.6112 233.156 40.188C233.156 39.7563 233.044 39.422 232.819 39.1851C232.599 38.9481 232.299 38.8296 231.918 38.8296C231.715 38.8296 231.436 38.8804 231.08 38.9819L231.213 37.1348C231.357 37.1559 231.469 37.1665 231.55 37.1665C231.888 37.1665 232.17 37.0586 232.394 36.8428C232.623 36.627 232.737 36.3709 232.737 36.0747C232.737 35.7912 232.652 35.5648 232.483 35.3955C232.314 35.2262 232.081 35.1416 231.785 35.1416C231.48 35.1416 231.232 35.2347 231.042 35.4209C230.852 35.6029 230.722 35.9245 230.655 36.3857ZM236.482 36.2588H239.548L240.621 38.1377L241.865 36.2588H244.715L242.417 39.4707L244.88 43H241.865L240.621 40.8291L239.154 43H236.355L238.805 39.4707L236.482 36.2588Z" fill="#F09E23"/>
</g>
<rect x="260.715" y="20" width="53.4286" height="36" rx="4" fill="white"/>
<g filter="url(#filter4_d_1889_20221)">
<path d="M272.577 38.3091C272.577 36.5402 272.895 35.3024 273.529 34.5957C274.168 33.889 275.139 33.5356 276.443 33.5356C277.069 33.5356 277.583 33.6139 277.985 33.7705C278.387 33.9229 278.715 34.1239 278.969 34.3735C279.223 34.619 279.422 34.8792 279.566 35.1543C279.714 35.4251 279.833 35.7425 279.921 36.1064C280.095 36.8005 280.182 37.5241 280.182 38.2773C280.182 39.9658 279.896 41.2015 279.325 41.9844C278.753 42.7673 277.77 43.1587 276.373 43.1587C275.59 43.1587 274.958 43.0339 274.475 42.7842C273.993 42.5345 273.597 42.1685 273.288 41.686C273.064 41.3433 272.888 40.8757 272.761 40.2832C272.639 39.6865 272.577 39.0285 272.577 38.3091ZM275.142 38.3154C275.142 39.5003 275.245 40.3107 275.453 40.7466C275.664 41.1782 275.969 41.394 276.367 41.394C276.629 41.394 276.855 41.3031 277.046 41.1211C277.241 40.9349 277.382 40.6429 277.471 40.2451C277.564 39.8473 277.611 39.2274 277.611 38.3853C277.611 37.1496 277.505 36.3201 277.293 35.897C277.086 35.4696 276.773 35.2559 276.354 35.2559C275.927 35.2559 275.618 35.4738 275.427 35.9097C275.237 36.3413 275.142 37.1432 275.142 38.3154ZM281.502 40.4102H284.263V43H281.502V40.4102ZM293.061 35.7891L290.49 36.1064C290.423 35.7467 290.308 35.4928 290.147 35.3447C289.991 35.1966 289.796 35.1226 289.563 35.1226C289.145 35.1226 288.819 35.3341 288.586 35.7573C288.417 36.062 288.292 36.7137 288.211 37.7124C288.52 37.3993 288.838 37.1686 289.164 37.0205C289.489 36.8682 289.866 36.792 290.293 36.792C291.123 36.792 291.823 37.0882 292.395 37.6807C292.97 38.2731 293.258 39.0243 293.258 39.9341C293.258 40.5477 293.112 41.1084 292.82 41.6162C292.532 42.124 292.13 42.5091 291.614 42.7715C291.102 43.0296 290.458 43.1587 289.684 43.1587C288.753 43.1587 288.006 43 287.443 42.6826C286.881 42.3652 286.43 41.8595 286.091 41.1655C285.757 40.4673 285.59 39.5448 285.59 38.3979C285.59 36.7179 285.943 35.4886 286.65 34.71C287.357 33.9271 288.336 33.5356 289.589 33.5356C290.329 33.5356 290.913 33.6224 291.341 33.7959C291.772 33.9652 292.13 34.2148 292.414 34.5449C292.697 34.875 292.913 35.2897 293.061 35.7891ZM288.3 39.9341C288.3 40.4377 288.427 40.8333 288.681 41.1211C288.935 41.4046 289.246 41.5464 289.614 41.5464C289.953 41.5464 290.236 41.4173 290.465 41.1592C290.693 40.901 290.808 40.516 290.808 40.0039C290.808 39.4792 290.689 39.0793 290.452 38.8042C290.215 38.5291 289.921 38.3916 289.57 38.3916C289.21 38.3916 288.908 38.5249 288.662 38.7915C288.421 39.0581 288.3 39.439 288.3 39.9341ZM293.912 36.2588H296.978L298.05 38.1377L299.294 36.2588H302.145L299.847 39.4707L302.31 43H299.294L298.05 40.8291L296.584 43H293.785L296.235 39.4707L293.912 36.2588Z" fill="#F09223"/>
</g>
<rect x="318.145" y="20" width="53.4286" height="36" rx="4" fill="white"/>
<g filter="url(#filter5_d_1889_20221)">
<path d="M335.866 33.5356V43H333.25V36.7983C332.827 37.12 332.417 37.3802 332.019 37.5791C331.625 37.778 331.13 37.9684 330.534 38.1504V36.0303C331.414 35.7467 332.097 35.4061 332.584 35.0083C333.071 34.6105 333.451 34.1196 333.727 33.5356H335.866ZM338.932 40.4102H341.693V43H338.932V40.4102ZM348.866 33.5356V43H346.25V36.7983C345.827 37.12 345.417 37.3802 345.019 37.5791C344.625 37.778 344.13 37.9684 343.534 38.1504V36.0303C344.414 35.7467 345.097 35.4061 345.584 35.0083C346.071 34.6105 346.451 34.1196 346.727 33.5356H348.866ZM351.341 36.2588H354.407L355.48 38.1377L356.724 36.2588H359.574L357.276 39.4707L359.739 43H356.724L355.48 40.8291L354.014 43H351.214L353.665 39.4707L351.341 36.2588Z" fill="#F08523"/>
</g>
<rect x="375.57" y="20" width="53.4286" height="36" rx="4" fill="white"/>
<g filter="url(#filter6_d_1889_20221)">
<path d="M401.499 43H393.742C393.831 42.234 394.1 41.5146 394.548 40.8418C395.001 40.1647 395.847 39.367 397.087 38.4487C397.845 37.8859 398.329 37.4585 398.541 37.1665C398.753 36.8745 398.858 36.5973 398.858 36.335C398.858 36.0514 398.753 35.8102 398.541 35.6113C398.334 35.4082 398.071 35.3066 397.754 35.3066C397.424 35.3066 397.153 35.4103 396.941 35.6177C396.734 35.825 396.594 36.1911 396.522 36.7158L393.933 36.5063C394.034 35.7785 394.22 35.2114 394.491 34.8052C394.762 34.3947 395.143 34.0815 395.634 33.8657C396.129 33.6457 396.812 33.5356 397.684 33.5356C398.594 33.5356 399.301 33.6393 399.804 33.8467C400.312 34.054 400.71 34.3735 400.998 34.8052C401.29 35.2326 401.436 35.7129 401.436 36.2461C401.436 36.8132 401.268 37.3548 400.934 37.8711C400.604 38.3874 400.001 38.9544 399.125 39.5723C398.604 39.932 398.255 40.1838 398.078 40.3276C397.904 40.4715 397.699 40.6598 397.462 40.8926H401.499V43ZM402.267 36.2588H405.333L406.406 38.1377L407.65 36.2588H410.5L408.202 39.4707L410.665 43H407.65L406.406 40.8291L404.939 43H402.14L404.59 39.4707L402.267 36.2588Z" fill="#F07923"/>
</g>
<path d="M206.868 80.13C206.634 80.13 206.409 80.091 206.192 80.013C205.975 79.935 205.798 79.7963 205.659 79.597C205.52 79.3977 205.451 79.1203 205.451 78.765V72.876H206.608V78.622C206.608 78.8213 206.651 78.9643 206.738 79.051C206.825 79.1377 206.963 79.181 207.154 79.181C207.232 79.181 207.314 79.1723 207.401 79.155C207.488 79.1377 207.57 79.116 207.648 79.09L207.804 79.935C207.639 80.013 207.479 80.065 207.323 80.091C207.167 80.117 207.015 80.13 206.868 80.13ZM213.136 80V75.255C213.136 74.6917 213.006 74.293 212.746 74.059C212.495 73.8163 212.07 73.695 211.472 73.695C211.039 73.695 210.623 73.7557 210.224 73.877C209.834 73.9897 209.461 74.15 209.106 74.358V73.279C209.357 73.149 209.695 73.0277 210.12 72.915C210.553 72.8023 211.039 72.746 211.576 72.746C212.035 72.746 212.425 72.798 212.746 72.902C213.075 73.006 213.318 73.1967 213.474 73.474C213.777 73.6127 213.985 73.8293 214.098 74.124C214.219 74.4187 214.28 74.774 214.28 75.19V80H213.136ZM210.9 80.13C210.137 80.13 209.552 79.9567 209.145 79.61C208.746 79.2547 208.547 78.7477 208.547 78.089C208.547 77.3697 208.807 76.815 209.327 76.425C209.856 76.035 210.709 75.8053 211.888 75.736L213.37 75.645V76.607L212.044 76.698C211.16 76.7587 210.549 76.8973 210.211 77.114C209.882 77.3307 209.717 77.647 209.717 78.063C209.717 78.453 209.838 78.739 210.081 78.921C210.332 79.103 210.679 79.194 211.121 79.194C211.268 79.194 211.403 79.1853 211.524 79.168C211.645 79.142 211.762 79.1117 211.875 79.077L212.057 79.948C211.892 80.0087 211.71 80.052 211.511 80.078C211.32 80.1127 211.117 80.13 210.9 80.13ZM213.435 73.877L212.785 73.266C213.01 73.2313 213.223 73.1447 213.422 73.006C213.621 72.8673 213.721 72.668 213.721 72.408H214.852C214.852 72.6767 214.787 72.915 214.657 73.123C214.536 73.3223 214.367 73.487 214.15 73.617C213.933 73.7383 213.695 73.825 213.435 73.877ZM208.756 71.745V71.238L209.705 70.822H214.281V71.745H208.756ZM213.202 71.238V69.769H214.294V71.238H213.202ZM213.189 69.002V66.883H214.294V69.002H213.189ZM219.146 80.117C218.444 80.117 217.88 80.026 217.456 79.844C217.04 79.662 216.736 79.4063 216.546 79.077C216.364 78.7477 216.273 78.3577 216.273 77.907C216.273 77.5083 216.329 77.192 216.442 76.958C216.563 76.7153 216.71 76.5377 216.884 76.425C217.066 76.3123 217.252 76.2387 217.443 76.204V76.152C217.269 76.1 217.087 76.0133 216.897 75.892C216.706 75.7707 216.546 75.6017 216.416 75.385C216.294 75.1683 216.234 74.8953 216.234 74.566C216.234 74.2627 216.303 73.9767 216.442 73.708C216.58 73.4393 216.806 73.2183 217.118 73.045C217.43 72.8717 217.841 72.785 218.353 72.785C218.561 72.785 218.777 72.8023 219.003 72.837C219.228 72.863 219.401 72.9107 219.523 72.98L219.315 73.877C219.219 73.8423 219.094 73.812 218.938 73.786C218.79 73.7513 218.634 73.734 218.47 73.734C218.106 73.734 217.837 73.8207 217.664 73.994C217.49 74.1587 217.404 74.3797 217.404 74.657C217.404 74.9603 217.477 75.19 217.625 75.346C217.781 75.502 217.976 75.6103 218.21 75.671C218.452 75.723 218.704 75.749 218.964 75.749H219.211V76.594H218.964C218.444 76.594 218.058 76.6893 217.807 76.88C217.564 77.062 217.443 77.3697 217.443 77.803C217.443 78.0543 217.49 78.284 217.586 78.492C217.69 78.7 217.863 78.8647 218.106 78.986C218.357 79.1073 218.704 79.168 219.146 79.168C219.588 79.168 219.93 79.1073 220.173 78.986C220.424 78.8647 220.602 78.6913 220.706 78.466C220.81 78.232 220.862 77.9547 220.862 77.634V72.876H222.019V77.556C222.019 78.466 221.785 79.1203 221.317 79.519C220.857 79.9177 220.134 80.117 219.146 80.117ZM225.291 80L223.068 72.876H224.238L226.162 78.999H226.318C226.526 78.999 226.73 78.9513 226.929 78.856C227.129 78.752 227.298 78.622 227.436 78.466C227.696 78.18 227.887 77.8203 228.008 77.387C228.13 76.945 228.19 76.5117 228.19 76.087C228.19 75.3677 228.026 74.8043 227.696 74.397C227.376 73.981 226.929 73.773 226.357 73.773C226.245 73.773 226.132 73.7817 226.019 73.799C225.915 73.8163 225.829 73.838 225.759 73.864L225.473 72.941C225.655 72.889 225.824 72.8543 225.98 72.837C226.145 72.8197 226.292 72.811 226.422 72.811C226.856 72.811 227.241 72.876 227.579 73.006C227.926 73.1273 228.221 73.3093 228.463 73.552C228.767 73.8467 228.988 74.215 229.126 74.657C229.274 75.099 229.347 75.5887 229.347 76.126C229.347 76.802 229.243 77.4043 229.035 77.933C228.827 78.453 228.567 78.869 228.255 79.181C228.004 79.4323 227.696 79.6317 227.332 79.779C226.968 79.9263 226.505 80 225.941 80H225.291ZM236.148 73.331C235.862 73.331 235.641 73.422 235.472 73.617C235.277 73.799 235.186 74.033 235.186 74.306C235.186 74.566 235.277 74.8 235.472 74.995C235.641 75.177 235.862 75.268 236.148 75.268C236.408 75.268 236.642 75.177 236.837 74.995C237.019 74.8 237.123 74.566 237.123 74.306C237.123 74.033 237.019 73.799 236.837 73.617C236.642 73.422 236.408 73.331 236.148 73.331ZM236.148 78.089C235.862 78.089 235.641 78.18 235.472 78.375C235.277 78.557 235.186 78.791 235.186 79.064C235.186 79.324 235.277 79.558 235.472 79.753C235.641 79.935 235.862 80.026 236.148 80.026C236.408 80.026 236.642 79.935 236.837 79.753C237.019 79.558 237.123 79.324 237.123 79.064C237.123 78.791 237.019 78.557 236.837 78.375C236.642 78.18 236.408 78.089 236.148 78.089ZM245.826 80.13C245.098 80.13 244.535 79.9653 244.136 79.636C243.737 79.298 243.46 78.843 243.304 78.271C243.148 77.6903 243.07 77.0317 243.07 76.295C243.07 75.4457 243.148 74.761 243.304 74.241C243.469 73.721 243.707 73.344 244.019 73.11C244.331 72.8673 244.712 72.746 245.163 72.746C245.466 72.746 245.722 72.798 245.93 72.902C246.147 73.006 246.298 73.1793 246.385 73.422H246.437C246.524 73.1707 246.68 72.9973 246.905 72.902C247.13 72.798 247.395 72.746 247.698 72.746C248.261 72.746 248.695 72.8977 248.998 73.201C249.31 73.4957 249.466 73.9507 249.466 74.566V80H248.309V74.579C248.309 74.241 248.235 74.0113 248.088 73.89C247.941 73.7687 247.754 73.708 247.529 73.708C247.278 73.708 247.091 73.7687 246.97 73.89C246.857 74.0113 246.788 74.2107 246.762 74.488H246.034C245.999 74.1847 245.908 73.981 245.761 73.877C245.614 73.7643 245.449 73.708 245.267 73.708C244.92 73.708 244.66 73.9117 244.487 74.319C244.314 74.7177 244.227 75.3807 244.227 76.308C244.227 76.906 244.27 77.4173 244.357 77.842C244.452 78.2667 244.626 78.596 244.877 78.83C245.128 79.0553 245.492 79.168 245.969 79.168C246.142 79.168 246.285 79.1593 246.398 79.142C246.511 79.1247 246.619 79.103 246.723 79.077L246.84 79.961C246.71 80.0217 246.554 80.065 246.372 80.091C246.19 80.117 246.008 80.13 245.826 80.13ZM248.385 72.057C247.952 72.057 247.609 71.9573 247.358 71.758C247.107 71.55 246.981 71.2597 246.981 70.887C246.981 70.5057 247.107 70.2153 247.358 70.016C247.609 69.8167 247.952 69.717 248.385 69.717C248.818 69.717 249.165 69.8167 249.425 70.016C249.685 70.2153 249.815 70.5057 249.815 70.887C249.815 71.2597 249.685 71.55 249.425 71.758C249.165 71.9573 248.818 72.057 248.385 72.057ZM248.385 71.446C248.593 71.446 248.753 71.394 248.866 71.29C248.97 71.186 249.022 71.0517 249.022 70.887C249.022 70.7137 248.97 70.5793 248.866 70.484C248.753 70.38 248.593 70.328 248.385 70.328C248.186 70.328 248.034 70.38 247.93 70.484C247.817 70.5793 247.761 70.7137 247.761 70.887C247.761 71.0517 247.817 71.186 247.93 71.29C248.034 71.394 248.186 71.446 248.385 71.446ZM247.835 69.002V66.883H248.94V69.002H247.835ZM253.584 80V74.943C253.584 74.5183 253.484 74.2063 253.285 74.007C253.094 73.8077 252.769 73.708 252.31 73.708C251.998 73.708 251.703 73.7513 251.426 73.838C251.157 73.916 250.897 74.0287 250.646 74.176V73.136C250.819 73.0493 251.066 72.9627 251.387 72.876C251.707 72.7893 252.089 72.746 252.531 72.746C252.981 72.746 253.371 72.811 253.701 72.941C254.03 73.071 254.286 73.2877 254.468 73.591C254.65 73.8857 254.741 74.28 254.741 74.774V80H253.584Z" fill="#A6A6A6"/>
<rect x="31" y="130" width="53.4286" height="36" rx="4" fill="white"/>
<g filter="url(#filter7_d_1889_20221)">
<path d="M53.8057 151.261H49.0957V149.134L53.8057 143.536H56.0591V149.255H57.2271V151.261H56.0591V153H53.8057V151.261ZM53.8057 149.255V146.329L51.3174 149.255H53.8057ZM57.6968 146.259H60.7627L61.8354 148.138L63.0796 146.259H65.9297L63.6318 149.471L66.0947 153H63.0796L61.8354 150.829L60.3691 153H57.5698L60.02 149.471L57.6968 146.259Z" fill="#F07923"/>
</g>
<rect x="88.4297" y="130" width="53.4286" height="36" rx="4" fill="white"/>
<g filter="url(#filter8_d_1889_20221)">
<path d="M107.858 153H100.102C100.19 152.234 100.459 151.515 100.908 150.842C101.361 150.165 102.207 149.367 103.447 148.449C104.204 147.886 104.689 147.458 104.9 147.167C105.112 146.875 105.218 146.597 105.218 146.335C105.218 146.051 105.112 145.81 104.9 145.611C104.693 145.408 104.431 145.307 104.113 145.307C103.783 145.307 103.512 145.41 103.301 145.618C103.093 145.825 102.954 146.191 102.882 146.716L100.292 146.506C100.394 145.778 100.58 145.211 100.851 144.805C101.121 144.395 101.502 144.082 101.993 143.866C102.488 143.646 103.172 143.536 104.043 143.536C104.953 143.536 105.66 143.639 106.164 143.847C106.671 144.054 107.069 144.374 107.357 144.805C107.649 145.233 107.795 145.713 107.795 146.246C107.795 146.813 107.628 147.355 107.293 147.871C106.963 148.387 106.36 148.954 105.484 149.572C104.964 149.932 104.615 150.184 104.437 150.328C104.264 150.472 104.058 150.66 103.821 150.893H107.858V153ZM109.217 150.41H111.978V153H109.217V150.41ZM120.858 153H113.102C113.19 152.234 113.459 151.515 113.908 150.842C114.361 150.165 115.207 149.367 116.447 148.449C117.204 147.886 117.689 147.458 117.9 147.167C118.112 146.875 118.218 146.597 118.218 146.335C118.218 146.051 118.112 145.81 117.9 145.611C117.693 145.408 117.431 145.307 117.113 145.307C116.783 145.307 116.512 145.41 116.301 145.618C116.093 145.825 115.954 146.191 115.882 146.716L113.292 146.506C113.394 145.778 113.58 145.211 113.851 144.805C114.121 144.395 114.502 144.082 114.993 143.866C115.488 143.646 116.172 143.536 117.043 143.536C117.953 143.536 118.66 143.639 119.164 143.847C119.671 144.054 120.069 144.374 120.357 144.805C120.649 145.233 120.795 145.713 120.795 146.246C120.795 146.813 120.628 147.355 120.293 147.871C119.963 148.387 119.36 148.954 118.484 149.572C117.964 149.932 117.615 150.184 117.437 150.328C117.264 150.472 117.058 150.66 116.821 150.893H120.858V153ZM121.626 146.259H124.692L125.765 148.138L127.009 146.259H129.859L127.562 149.471L130.024 153H127.009L125.765 150.829L124.299 153H121.5L123.95 149.471L121.626 146.259Z" fill="#F08523"/>
</g>
<rect x="145.855" y="130" width="53.4286" height="36" rx="4" fill="white"/>
<g filter="url(#filter9_d_1889_20221)">
<path d="M163.577 143.536V153H160.961V146.798C160.538 147.12 160.128 147.38 159.73 147.579C159.336 147.778 158.841 147.968 158.245 148.15V146.03C159.125 145.747 159.808 145.406 160.295 145.008C160.782 144.611 161.162 144.12 161.438 143.536H163.577ZM166.643 150.41H169.404V153H166.643V150.41ZM178.284 153H170.527C170.616 152.234 170.885 151.515 171.333 150.842C171.786 150.165 172.633 149.367 173.873 148.449C174.63 147.886 175.115 147.458 175.326 147.167C175.538 146.875 175.644 146.597 175.644 146.335C175.644 146.051 175.538 145.81 175.326 145.611C175.119 145.408 174.856 145.307 174.539 145.307C174.209 145.307 173.938 145.41 173.727 145.618C173.519 145.825 173.38 146.191 173.308 146.716L170.718 146.506C170.819 145.778 171.006 145.211 171.276 144.805C171.547 144.395 171.928 144.082 172.419 143.866C172.914 143.646 173.597 143.536 174.469 143.536C175.379 143.536 176.086 143.639 176.589 143.847C177.097 144.054 177.495 144.374 177.783 144.805C178.075 145.233 178.221 145.713 178.221 146.246C178.221 146.813 178.054 147.355 177.719 147.871C177.389 148.387 176.786 148.954 175.91 149.572C175.39 149.932 175.041 150.184 174.863 150.328C174.689 150.472 174.484 150.66 174.247 150.893H178.284V153ZM179.052 146.259H182.118L183.191 148.138L184.435 146.259H187.285L184.987 149.471L187.45 153H184.435L183.191 150.829L181.725 153H178.925L181.375 149.471L179.052 146.259Z" fill="#F09223"/>
</g>
<rect x="203.285" y="130" width="53.4286" height="36" rx="4" fill="white"/>
<g filter="url(#filter10_d_1889_20221)">
<path d="M215.147 148.309C215.147 146.54 215.465 145.302 216.1 144.596C216.739 143.889 217.71 143.536 219.013 143.536C219.639 143.536 220.154 143.614 220.556 143.771C220.958 143.923 221.286 144.124 221.54 144.374C221.793 144.619 221.992 144.879 222.136 145.154C222.284 145.425 222.403 145.743 222.492 146.106C222.665 146.8 222.752 147.524 222.752 148.277C222.752 149.966 222.466 151.201 221.895 151.984C221.324 152.767 220.34 153.159 218.943 153.159C218.16 153.159 217.528 153.034 217.045 152.784C216.563 152.535 216.167 152.168 215.858 151.686C215.634 151.343 215.458 150.876 215.332 150.283C215.209 149.687 215.147 149.028 215.147 148.309ZM217.712 148.315C217.712 149.5 217.816 150.311 218.023 150.747C218.235 151.178 218.539 151.394 218.937 151.394C219.199 151.394 219.426 151.303 219.616 151.121C219.811 150.935 219.953 150.643 220.042 150.245C220.135 149.847 220.181 149.227 220.181 148.385C220.181 147.15 220.075 146.32 219.864 145.897C219.656 145.47 219.343 145.256 218.924 145.256C218.497 145.256 218.188 145.474 217.998 145.91C217.807 146.341 217.712 147.143 217.712 148.315ZM224.072 150.41H226.833V153H224.072V150.41ZM235.631 145.789L233.061 146.106C232.993 145.747 232.879 145.493 232.718 145.345C232.561 145.197 232.367 145.123 232.134 145.123C231.715 145.123 231.389 145.334 231.156 145.757C230.987 146.062 230.862 146.714 230.782 147.712C231.091 147.399 231.408 147.169 231.734 147.021C232.06 146.868 232.436 146.792 232.864 146.792C233.693 146.792 234.394 147.088 234.965 147.681C235.54 148.273 235.828 149.024 235.828 149.934C235.828 150.548 235.682 151.108 235.39 151.616C235.102 152.124 234.7 152.509 234.184 152.771C233.672 153.03 233.029 153.159 232.254 153.159C231.323 153.159 230.576 153 230.014 152.683C229.451 152.365 229 151.86 228.662 151.166C228.327 150.467 228.16 149.545 228.16 148.398C228.16 146.718 228.514 145.489 229.22 144.71C229.927 143.927 230.907 143.536 232.159 143.536C232.9 143.536 233.484 143.622 233.911 143.796C234.343 143.965 234.7 144.215 234.984 144.545C235.267 144.875 235.483 145.29 235.631 145.789ZM230.871 149.934C230.871 150.438 230.998 150.833 231.251 151.121C231.505 151.405 231.816 151.546 232.185 151.546C232.523 151.546 232.807 151.417 233.035 151.159C233.264 150.901 233.378 150.516 233.378 150.004C233.378 149.479 233.259 149.079 233.022 148.804C232.785 148.529 232.491 148.392 232.14 148.392C231.78 148.392 231.478 148.525 231.232 148.792C230.991 149.058 230.871 149.439 230.871 149.934ZM236.482 146.259H239.548L240.621 148.138L241.865 146.259H244.715L242.417 149.471L244.88 153H241.865L240.621 150.829L239.154 153H236.355L238.805 149.471L236.482 146.259Z" fill="#F09E23"/>
</g>
<rect x="260.715" y="130" width="53.4286" height="36" rx="4" fill="white"/>
<g filter="url(#filter11_d_1889_20221)">
<path d="M278.436 143.536V153H275.821V146.798C275.398 147.12 274.987 147.38 274.589 147.579C274.196 147.778 273.701 147.968 273.104 148.15V146.03C273.984 145.747 274.668 145.406 275.154 145.008C275.641 144.611 276.022 144.12 276.297 143.536H278.436ZM281.502 150.41H284.263V153H281.502V150.41ZM293.144 153H285.387C285.476 152.234 285.744 151.515 286.193 150.842C286.646 150.165 287.492 149.367 288.732 148.449C289.489 147.886 289.974 147.458 290.186 147.167C290.397 146.875 290.503 146.597 290.503 146.335C290.503 146.051 290.397 145.81 290.186 145.611C289.978 145.408 289.716 145.307 289.398 145.307C289.068 145.307 288.798 145.41 288.586 145.618C288.379 145.825 288.239 146.191 288.167 146.716L285.577 146.506C285.679 145.778 285.865 145.211 286.136 144.805C286.407 144.395 286.787 144.082 287.278 143.866C287.773 143.646 288.457 143.536 289.329 143.536C290.238 143.536 290.945 143.639 291.449 143.847C291.957 144.054 292.354 144.374 292.642 144.805C292.934 145.233 293.08 145.713 293.08 146.246C293.08 146.813 292.913 147.355 292.579 147.871C292.249 148.387 291.646 148.954 290.77 149.572C290.249 149.932 289.9 150.184 289.722 150.328C289.549 150.472 289.343 150.66 289.106 150.893H293.144V153ZM293.912 146.259H296.978L298.05 148.138L299.294 146.259H302.145L299.847 149.471L302.31 153H299.294L298.05 150.829L296.584 153H293.785L296.235 149.471L293.912 146.259Z" fill="#F09223"/>
</g>
<rect x="318.145" y="130" width="53.4286" height="36" rx="4" fill="white"/>
<g filter="url(#filter12_d_1889_20221)">
<path d="M337.573 153H329.816C329.905 152.234 330.174 151.515 330.623 150.842C331.075 150.165 331.922 149.367 333.162 148.449C333.919 147.886 334.404 147.458 334.615 147.167C334.827 146.875 334.933 146.597 334.933 146.335C334.933 146.051 334.827 145.81 334.615 145.611C334.408 145.408 334.146 145.307 333.828 145.307C333.498 145.307 333.227 145.41 333.016 145.618C332.808 145.825 332.669 146.191 332.597 146.716L330.007 146.506C330.108 145.778 330.295 145.211 330.565 144.805C330.836 144.395 331.217 144.082 331.708 143.866C332.203 143.646 332.887 143.536 333.758 143.536C334.668 143.536 335.375 143.639 335.878 143.847C336.386 144.054 336.784 144.374 337.072 144.805C337.364 145.233 337.51 145.713 337.51 146.246C337.51 146.813 337.343 147.355 337.008 147.871C336.678 148.387 336.075 148.954 335.199 149.572C334.679 149.932 334.33 150.184 334.152 150.328C333.978 150.472 333.773 150.66 333.536 150.893H337.573V153ZM338.932 150.41H341.693V153H338.932V150.41ZM350.573 153H342.816C342.905 152.234 343.174 151.515 343.623 150.842C344.075 150.165 344.922 149.367 346.162 148.449C346.919 147.886 347.404 147.458 347.615 147.167C347.827 146.875 347.933 146.597 347.933 146.335C347.933 146.051 347.827 145.81 347.615 145.611C347.408 145.408 347.146 145.307 346.828 145.307C346.498 145.307 346.227 145.41 346.016 145.618C345.808 145.825 345.669 146.191 345.597 146.716L343.007 146.506C343.108 145.778 343.295 145.211 343.565 144.805C343.836 144.395 344.217 144.082 344.708 143.866C345.203 143.646 345.887 143.536 346.758 143.536C347.668 143.536 348.375 143.639 348.878 143.847C349.386 144.054 349.784 144.374 350.072 144.805C350.364 145.233 350.51 145.713 350.51 146.246C350.51 146.813 350.343 147.355 350.008 147.871C349.678 148.387 349.075 148.954 348.199 149.572C347.679 149.932 347.33 150.184 347.152 150.328C346.978 150.472 346.773 150.66 346.536 150.893H350.573V153ZM351.341 146.259H354.407L355.48 148.138L356.724 146.259H359.574L357.276 149.471L359.739 153H356.724L355.48 150.829L354.014 153H351.214L353.665 149.471L351.341 146.259Z" fill="#F08523"/>
</g>
<rect x="375.57" y="130" width="53.4286" height="36" rx="4" fill="white"/>
<g filter="url(#filter13_d_1889_20221)">
<path d="M398.376 151.261H393.666V149.134L398.376 143.536H400.629V149.255H401.797V151.261H400.629V153H398.376V151.261ZM398.376 149.255V146.329L395.888 149.255H398.376ZM402.267 146.259H405.333L406.406 148.138L407.65 146.259H410.5L408.202 149.471L410.665 153H407.65L406.406 150.829L404.939 153H402.14L404.59 149.471L402.267 146.259Z" fill="#F07923"/>
</g>
<path d="M199.898 190.13C199.664 190.13 199.439 190.091 199.222 190.013C199.006 189.935 198.828 189.796 198.689 189.597C198.551 189.398 198.481 189.12 198.481 188.765V182.876H199.638V188.622C199.638 188.821 199.682 188.964 199.768 189.051C199.855 189.138 199.994 189.181 200.184 189.181C200.262 189.181 200.345 189.172 200.431 189.155C200.518 189.138 200.6 189.116 200.678 189.09L200.834 189.935C200.67 190.013 200.509 190.065 200.353 190.091C200.197 190.117 200.046 190.13 199.898 190.13ZM206.166 190V185.255C206.166 184.692 206.036 184.293 205.776 184.059C205.525 183.816 205.1 183.695 204.502 183.695C204.069 183.695 203.653 183.756 203.254 183.877C202.864 183.99 202.492 184.15 202.136 184.358V183.279C202.388 183.149 202.726 183.028 203.15 182.915C203.584 182.802 204.069 182.746 204.606 182.746C205.066 182.746 205.456 182.798 205.776 182.902C206.106 183.006 206.348 183.197 206.504 183.474C206.808 183.613 207.016 183.829 207.128 184.124C207.25 184.419 207.31 184.774 207.31 185.19V190H206.166ZM203.93 190.13C203.168 190.13 202.583 189.957 202.175 189.61C201.777 189.255 201.577 188.748 201.577 188.089C201.577 187.37 201.837 186.815 202.357 186.425C202.886 186.035 203.74 185.805 204.918 185.736L206.4 185.645V186.607L205.074 186.698C204.19 186.759 203.579 186.897 203.241 187.114C202.912 187.331 202.747 187.647 202.747 188.063C202.747 188.453 202.869 188.739 203.111 188.921C203.363 189.103 203.709 189.194 204.151 189.194C204.299 189.194 204.433 189.185 204.554 189.168C204.676 189.142 204.793 189.112 204.905 189.077L205.087 189.948C204.923 190.009 204.741 190.052 204.541 190.078C204.351 190.113 204.147 190.13 203.93 190.13ZM206.465 183.877L205.815 183.266C206.041 183.231 206.253 183.145 206.452 183.006C206.652 182.867 206.751 182.668 206.751 182.408H207.882C207.882 182.677 207.817 182.915 207.687 183.123C207.566 183.322 207.397 183.487 207.18 183.617C206.964 183.738 206.725 183.825 206.465 183.877ZM201.787 181.745V181.238L202.736 180.822H207.312V181.745H201.787ZM206.233 181.238V179.769H207.325V181.238H206.233ZM206.22 179.002V176.883H207.325V179.002H206.22ZM212.176 190.117C211.474 190.117 210.911 190.026 210.486 189.844C210.07 189.662 209.767 189.406 209.576 189.077C209.394 188.748 209.303 188.358 209.303 187.907C209.303 187.508 209.359 187.192 209.472 186.958C209.593 186.715 209.741 186.538 209.914 186.425C210.096 186.312 210.282 186.239 210.473 186.204V186.152C210.3 186.1 210.118 186.013 209.927 185.892C209.736 185.771 209.576 185.602 209.446 185.385C209.325 185.168 209.264 184.895 209.264 184.566C209.264 184.263 209.333 183.977 209.472 183.708C209.611 183.439 209.836 183.218 210.148 183.045C210.46 182.872 210.872 182.785 211.383 182.785C211.591 182.785 211.808 182.802 212.033 182.837C212.258 182.863 212.432 182.911 212.553 182.98L212.345 183.877C212.25 183.842 212.124 183.812 211.968 183.786C211.821 183.751 211.665 183.734 211.5 183.734C211.136 183.734 210.867 183.821 210.694 183.994C210.521 184.159 210.434 184.38 210.434 184.657C210.434 184.96 210.508 185.19 210.655 185.346C210.811 185.502 211.006 185.61 211.24 185.671C211.483 185.723 211.734 185.749 211.994 185.749H212.241V186.594H211.994C211.474 186.594 211.088 186.689 210.837 186.88C210.594 187.062 210.473 187.37 210.473 187.803C210.473 188.054 210.521 188.284 210.616 188.492C210.72 188.7 210.893 188.865 211.136 188.986C211.387 189.107 211.734 189.168 212.176 189.168C212.618 189.168 212.96 189.107 213.203 188.986C213.454 188.865 213.632 188.691 213.736 188.466C213.84 188.232 213.892 187.955 213.892 187.634V182.876H215.049V187.556C215.049 188.466 214.815 189.12 214.347 189.519C213.888 189.918 213.164 190.117 212.176 190.117ZM218.322 190L216.099 182.876H217.269L219.193 188.999H219.349C219.557 188.999 219.76 188.951 219.96 188.856C220.159 188.752 220.328 188.622 220.467 188.466C220.727 188.18 220.917 187.82 221.039 187.387C221.16 186.945 221.221 186.512 221.221 186.087C221.221 185.368 221.056 184.804 220.727 184.397C220.406 183.981 219.96 183.773 219.388 183.773C219.275 183.773 219.162 183.782 219.05 183.799C218.946 183.816 218.859 183.838 218.79 183.864L218.504 182.941C218.686 182.889 218.855 182.854 219.011 182.837C219.175 182.82 219.323 182.811 219.453 182.811C219.886 182.811 220.272 182.876 220.61 183.006C220.956 183.127 221.251 183.309 221.494 183.552C221.797 183.847 222.018 184.215 222.157 184.657C222.304 185.099 222.378 185.589 222.378 186.126C222.378 186.802 222.274 187.404 222.066 187.933C221.858 188.453 221.598 188.869 221.286 189.181C221.034 189.432 220.727 189.632 220.363 189.779C219.999 189.926 219.535 190 218.972 190H218.322ZM229.178 183.331C228.892 183.331 228.671 183.422 228.502 183.617C228.307 183.799 228.216 184.033 228.216 184.306C228.216 184.566 228.307 184.8 228.502 184.995C228.671 185.177 228.892 185.268 229.178 185.268C229.438 185.268 229.672 185.177 229.867 184.995C230.049 184.8 230.153 184.566 230.153 184.306C230.153 184.033 230.049 183.799 229.867 183.617C229.672 183.422 229.438 183.331 229.178 183.331ZM229.178 188.089C228.892 188.089 228.671 188.18 228.502 188.375C228.307 188.557 228.216 188.791 228.216 189.064C228.216 189.324 228.307 189.558 228.502 189.753C228.671 189.935 228.892 190.026 229.178 190.026C229.438 190.026 229.672 189.935 229.867 189.753C230.049 189.558 230.153 189.324 230.153 189.064C230.153 188.791 230.049 188.557 229.867 188.375C229.672 188.18 229.438 188.089 229.178 188.089ZM236.269 190V187.53C236.269 186.984 236.391 186.59 236.633 186.347C236.876 186.096 237.184 185.922 237.556 185.827L237.569 185.788L236.139 185.242V184.813C236.139 184.458 236.256 184.124 236.49 183.812C236.724 183.491 237.058 183.236 237.491 183.045C237.933 182.846 238.458 182.746 239.064 182.746C239.593 182.746 240.083 182.833 240.533 183.006C240.984 183.171 241.344 183.435 241.612 183.799C241.89 184.154 242.028 184.622 242.028 185.203V190H240.871V185.32C240.871 184.739 240.694 184.328 240.338 184.085C239.992 183.834 239.563 183.708 239.051 183.708C238.523 183.708 238.102 183.821 237.79 184.046C237.478 184.263 237.322 184.54 237.322 184.878L238.726 185.58L238.622 186.204C238.302 186.204 238.02 186.312 237.777 186.529C237.543 186.737 237.426 187.071 237.426 187.53V190H236.269ZM248.302 190V185.255C248.302 184.692 248.172 184.293 247.912 184.059C247.661 183.816 247.236 183.695 246.638 183.695C246.205 183.695 245.789 183.756 245.39 183.877C245 183.99 244.628 184.15 244.272 184.358V183.279C244.524 183.149 244.862 183.028 245.286 182.915C245.72 182.802 246.205 182.746 246.742 182.746C247.202 182.746 247.6 182.798 247.938 182.902C248.276 182.997 248.554 183.145 248.77 183.344C248.996 183.543 249.165 183.799 249.277 184.111C249.39 184.414 249.446 184.774 249.446 185.19V190H248.302ZM246.066 190.13C245.304 190.13 244.719 189.957 244.311 189.61C243.913 189.255 243.713 188.748 243.713 188.089C243.713 187.37 243.973 186.815 244.493 186.425C245.022 186.035 245.876 185.805 247.054 185.736L248.536 185.645V186.607L247.21 186.698C246.326 186.759 245.715 186.897 245.377 187.114C245.048 187.331 244.883 187.647 244.883 188.063C244.883 188.453 245.005 188.739 245.247 188.921C245.499 189.103 245.845 189.194 246.287 189.194C246.435 189.194 246.569 189.185 246.69 189.168C246.812 189.142 246.929 189.112 247.041 189.077L247.223 189.948C247.059 190.009 246.877 190.052 246.677 190.078C246.487 190.113 246.283 190.13 246.066 190.13ZM253.571 190V184.943C253.571 184.518 253.471 184.206 253.272 184.007C253.081 183.808 252.756 183.708 252.297 183.708C251.985 183.708 251.69 183.751 251.413 183.838C251.144 183.916 250.884 184.029 250.633 184.176V183.136C250.806 183.049 251.053 182.963 251.374 182.876C251.695 182.789 252.076 182.746 252.518 182.746C252.969 182.746 253.359 182.811 253.688 182.941C254.017 183.071 254.273 183.288 254.455 183.591C254.637 183.886 254.728 184.28 254.728 184.774V190H253.571ZM258.007 190L255.784 182.876H256.954L258.878 188.999H259.034C259.242 188.999 259.446 188.951 259.645 188.856C259.845 188.752 260.014 188.622 260.152 188.466C260.412 188.18 260.603 187.82 260.724 187.387C260.846 186.945 260.906 186.512 260.906 186.087C260.906 185.368 260.742 184.804 260.412 184.397C260.092 183.981 259.645 183.773 259.073 183.773C258.961 183.773 258.848 183.782 258.735 183.799C258.631 183.816 258.545 183.838 258.475 183.864L258.189 182.941C258.371 182.889 258.54 182.854 258.696 182.837C258.861 182.82 259.008 182.811 259.138 182.811C259.572 182.811 259.957 182.876 260.295 183.006C260.642 183.127 260.937 183.309 261.179 183.552C261.483 183.847 261.704 184.215 261.842 184.657C261.99 185.099 262.063 185.589 262.063 186.126C262.063 186.802 261.959 187.404 261.751 187.933C261.543 188.453 261.283 188.869 260.971 189.181C260.72 189.432 260.412 189.632 260.048 189.779C259.684 189.926 259.221 190 258.657 190H258.007Z" fill="#A6A6A6"/>
<rect x="31" y="240" width="53.4286" height="36" rx="4" fill="white"/>
<g filter="url(#filter14_d_1889_20221)">
<path d="M50.9175 257.998C50.5112 257.782 50.215 257.541 50.0288 257.274C49.7749 256.91 49.6479 256.492 49.6479 256.018C49.6479 255.239 50.014 254.602 50.7461 254.107C51.3174 253.726 52.0728 253.536 53.0122 253.536C54.2563 253.536 55.1746 253.773 55.7671 254.247C56.3638 254.721 56.6621 255.317 56.6621 256.037C56.6621 256.456 56.5436 256.847 56.3066 257.211C56.1289 257.482 55.8496 257.744 55.4688 257.998C55.9723 258.239 56.3468 258.559 56.5923 258.957C56.842 259.354 56.9668 259.794 56.9668 260.277C56.9668 260.742 56.8589 261.178 56.6431 261.584C56.4315 261.986 56.1691 262.298 55.856 262.518C55.547 262.738 55.1598 262.898 54.6943 263C54.2331 263.106 53.7401 263.159 53.2153 263.159C52.2293 263.159 51.4761 263.042 50.9556 262.81C50.4351 262.577 50.0394 262.234 49.7686 261.781C49.4977 261.328 49.3623 260.823 49.3623 260.264C49.3623 259.718 49.4893 259.257 49.7432 258.88C49.9971 258.5 50.3885 258.205 50.9175 257.998ZM52.0791 256.17C52.0791 256.492 52.1785 256.752 52.3774 256.951C52.5806 257.145 52.8493 257.243 53.1836 257.243C53.4798 257.243 53.7231 257.145 53.9136 256.951C54.104 256.756 54.1992 256.504 54.1992 256.195C54.1992 255.874 54.0998 255.613 53.9009 255.415C53.702 255.211 53.4481 255.11 53.1392 255.11C52.826 255.11 52.57 255.209 52.3711 255.408C52.1764 255.603 52.0791 255.857 52.0791 256.17ZM51.9395 260.175C51.9395 260.586 52.0643 260.922 52.314 261.185C52.5636 261.443 52.8493 261.572 53.1709 261.572C53.4798 261.572 53.757 261.441 54.0024 261.178C54.2479 260.912 54.3706 260.575 54.3706 260.169C54.3706 259.758 54.2458 259.422 53.9961 259.16C53.7507 258.897 53.465 258.766 53.1392 258.766C52.8175 258.766 52.5361 258.893 52.2949 259.147C52.0579 259.401 51.9395 259.744 51.9395 260.175ZM57.6968 256.259H60.7627L61.8354 258.138L63.0796 256.259H65.9297L63.6318 259.471L66.0947 263H63.0796L61.8354 260.829L60.3691 263H57.5698L60.02 259.471L57.6968 256.259Z" fill="#F07923"/>
</g>
<rect x="88.4297" y="240" width="53.4286" height="36" rx="4" fill="white"/>
<g filter="url(#filter15_d_1889_20221)">
<path d="M104.735 261.261H100.025V259.134L104.735 253.536H106.989V259.255H108.157V261.261H106.989V263H104.735V261.261ZM104.735 259.255V256.329L102.247 259.255H104.735ZM109.217 260.41H111.978V263H109.217V260.41ZM117.735 261.261H113.025V259.134L117.735 253.536H119.989V259.255H121.157V261.261H119.989V263H117.735V261.261ZM117.735 259.255V256.329L115.247 259.255H117.735ZM121.626 256.259H124.692L125.765 258.138L127.009 256.259H129.859L127.562 259.471L130.024 263H127.009L125.765 260.829L124.299 263H121.5L123.95 259.471L121.626 256.259Z" fill="#F08523"/>
</g>
<rect x="145.855" y="240" width="53.4286" height="36" rx="4" fill="white"/>
<g filter="url(#filter16_d_1889_20221)">
<path d="M165.284 263H157.527C157.616 262.234 157.885 261.515 158.333 260.842C158.786 260.165 159.633 259.367 160.873 258.449C161.63 257.886 162.115 257.458 162.326 257.167C162.538 256.875 162.644 256.597 162.644 256.335C162.644 256.051 162.538 255.81 162.326 255.611C162.119 255.408 161.856 255.307 161.539 255.307C161.209 255.307 160.938 255.41 160.727 255.618C160.519 255.825 160.38 256.191 160.308 256.716L157.718 256.506C157.819 255.778 158.006 255.211 158.276 254.805C158.547 254.395 158.928 254.082 159.419 253.866C159.914 253.646 160.597 253.536 161.469 253.536C162.379 253.536 163.086 253.639 163.589 253.847C164.097 254.054 164.495 254.374 164.783 254.805C165.075 255.233 165.221 255.713 165.221 256.246C165.221 256.813 165.054 257.355 164.719 257.871C164.389 258.387 163.786 258.954 162.91 259.572C162.39 259.932 162.041 260.184 161.863 260.328C161.689 260.472 161.484 260.66 161.247 260.893H165.284V263ZM166.643 260.41H169.404V263H166.643V260.41ZM175.161 261.261H170.451V259.134L175.161 253.536H177.415V259.255H178.583V261.261H177.415V263H175.161V261.261ZM175.161 259.255V256.329L172.673 259.255H175.161ZM179.052 256.259H182.118L183.191 258.138L184.435 256.259H187.285L184.987 259.471L187.45 263H184.435L183.191 260.829L181.725 263H178.925L181.375 259.471L179.052 256.259Z" fill="#F09223"/>
</g>
<rect x="203.285" y="240" width="53.4286" height="36" rx="4" fill="white"/>
<g filter="url(#filter17_d_1889_20221)">
<path d="M221.006 253.536V263H218.391V256.798C217.968 257.12 217.557 257.38 217.16 257.579C216.766 257.778 216.271 257.968 215.674 258.15V256.03C216.555 255.747 217.238 255.406 217.725 255.008C218.211 254.611 218.592 254.12 218.867 253.536H221.006ZM224.072 260.41H226.833V263H224.072V260.41ZM235.714 263H227.957C228.046 262.234 228.315 261.515 228.763 260.842C229.216 260.165 230.062 259.367 231.302 258.449C232.06 257.886 232.544 257.458 232.756 257.167C232.967 256.875 233.073 256.597 233.073 256.335C233.073 256.051 232.967 255.81 232.756 255.611C232.549 255.408 232.286 255.307 231.969 255.307C231.639 255.307 231.368 255.41 231.156 255.618C230.949 255.825 230.809 256.191 230.737 256.716L228.147 256.506C228.249 255.778 228.435 255.211 228.706 254.805C228.977 254.395 229.358 254.082 229.849 253.866C230.344 253.646 231.027 253.536 231.899 253.536C232.809 253.536 233.515 253.639 234.019 253.847C234.527 254.054 234.925 254.374 235.212 254.805C235.504 255.233 235.65 255.713 235.65 256.246C235.65 256.813 235.483 257.355 235.149 257.871C234.819 258.387 234.216 258.954 233.34 259.572C232.819 259.932 232.47 260.184 232.292 260.328C232.119 260.472 231.914 260.66 231.677 260.893H235.714V263ZM236.482 256.259H239.548L240.621 258.138L241.865 256.259H244.715L242.417 259.471L244.88 263H241.865L240.621 260.829L239.154 263H236.355L238.805 259.471L236.482 256.259Z" fill="#F09E23"/>
</g>
<rect x="260.715" y="240" width="53.4286" height="36" rx="4" fill="white"/>
<g filter="url(#filter18_d_1889_20221)">
<path d="M280.144 263H272.387C272.476 262.234 272.744 261.515 273.193 260.842C273.646 260.165 274.492 259.367 275.732 258.449C276.489 257.886 276.974 257.458 277.186 257.167C277.397 256.875 277.503 256.597 277.503 256.335C277.503 256.051 277.397 255.81 277.186 255.611C276.978 255.408 276.716 255.307 276.398 255.307C276.068 255.307 275.798 255.41 275.586 255.618C275.379 255.825 275.239 256.191 275.167 256.716L272.577 256.506C272.679 255.778 272.865 255.211 273.136 254.805C273.407 254.395 273.787 254.082 274.278 253.866C274.773 253.646 275.457 253.536 276.329 253.536C277.238 253.536 277.945 253.639 278.449 253.847C278.957 254.054 279.354 254.374 279.642 254.805C279.934 255.233 280.08 255.713 280.08 256.246C280.08 256.813 279.913 257.355 279.579 257.871C279.249 258.387 278.646 258.954 277.77 259.572C277.249 259.932 276.9 260.184 276.722 260.328C276.549 260.472 276.343 260.66 276.106 260.893H280.144V263ZM281.502 260.41H284.263V263H281.502V260.41ZM290.021 261.261H285.311V259.134L290.021 253.536H292.274V259.255H293.442V261.261H292.274V263H290.021V261.261ZM290.021 259.255V256.329L287.532 259.255H290.021ZM293.912 256.259H296.978L298.05 258.138L299.294 256.259H302.145L299.847 259.471L302.31 263H299.294L298.05 260.829L296.584 263H293.785L296.235 259.471L293.912 256.259Z" fill="#F09223"/>
</g>
<rect x="318.145" y="240" width="53.4286" height="36" rx="4" fill="white"/>
<g filter="url(#filter19_d_1889_20221)">
<path d="M334.45 261.261H329.74V259.134L334.45 253.536H336.704V259.255H337.872V261.261H336.704V263H334.45V261.261ZM334.45 259.255V256.329L331.962 259.255H334.45ZM338.932 260.41H341.693V263H338.932V260.41ZM347.45 261.261H342.74V259.134L347.45 253.536H349.704V259.255H350.872V261.261H349.704V263H347.45V261.261ZM347.45 259.255V256.329L344.962 259.255H347.45ZM351.341 256.259H354.407L355.48 258.138L356.724 256.259H359.574L357.276 259.471L359.739 263H356.724L355.48 260.829L354.014 263H351.214L353.665 259.471L351.341 256.259Z" fill="#F08523"/>
</g>
<rect x="375.57" y="240" width="53.4286" height="36" rx="4" fill="white"/>
<g filter="url(#filter20_d_1889_20221)">
<path d="M395.488 257.998C395.082 257.782 394.785 257.541 394.599 257.274C394.345 256.91 394.218 256.492 394.218 256.018C394.218 255.239 394.584 254.602 395.316 254.107C395.888 253.726 396.643 253.536 397.583 253.536C398.827 253.536 399.745 253.773 400.337 254.247C400.934 254.721 401.232 255.317 401.232 256.037C401.232 256.456 401.114 256.847 400.877 257.211C400.699 257.482 400.42 257.744 400.039 257.998C400.543 258.239 400.917 258.559 401.163 258.957C401.412 259.354 401.537 259.794 401.537 260.277C401.537 260.742 401.429 261.178 401.213 261.584C401.002 261.986 400.739 262.298 400.426 262.518C400.117 262.738 399.73 262.898 399.265 263C398.803 263.106 398.31 263.159 397.786 263.159C396.8 263.159 396.046 263.042 395.526 262.81C395.005 262.577 394.61 262.234 394.339 261.781C394.068 261.328 393.933 260.823 393.933 260.264C393.933 259.718 394.06 259.257 394.313 258.88C394.567 258.5 394.959 258.205 395.488 257.998ZM396.649 256.17C396.649 256.492 396.749 256.752 396.948 256.951C397.151 257.145 397.42 257.243 397.754 257.243C398.05 257.243 398.293 257.145 398.484 256.951C398.674 256.756 398.77 256.504 398.77 256.195C398.77 255.874 398.67 255.613 398.471 255.415C398.272 255.211 398.018 255.11 397.709 255.11C397.396 255.11 397.14 255.209 396.941 255.408C396.747 255.603 396.649 255.857 396.649 256.17ZM396.51 260.175C396.51 260.586 396.635 260.922 396.884 261.185C397.134 261.443 397.42 261.572 397.741 261.572C398.05 261.572 398.327 261.441 398.573 261.178C398.818 260.912 398.941 260.575 398.941 260.169C398.941 259.758 398.816 259.422 398.566 259.16C398.321 258.897 398.035 258.766 397.709 258.766C397.388 258.766 397.106 258.893 396.865 259.147C396.628 259.401 396.51 259.744 396.51 260.175ZM402.267 256.259H405.333L406.406 258.138L407.65 256.259H410.5L408.202 259.471L410.665 263H407.65L406.406 260.829L404.939 263H402.14L404.59 259.471L402.267 256.259Z" fill="#F07923"/>
</g>
<path d="M206.43 300.13C206.196 300.13 205.971 300.091 205.754 300.013C205.537 299.935 205.36 299.796 205.221 299.597C205.082 299.398 205.013 299.12 205.013 298.765V292.876H206.17V298.622C206.17 298.821 206.213 298.964 206.3 299.051C206.387 299.138 206.525 299.181 206.716 299.181C206.794 299.181 206.876 299.172 206.963 299.155C207.05 299.138 207.132 299.116 207.21 299.09L207.366 299.935C207.201 300.013 207.041 300.065 206.885 300.091C206.729 300.117 206.577 300.13 206.43 300.13ZM212.698 300V295.255C212.698 294.692 212.568 294.293 212.308 294.059C212.057 293.816 211.632 293.695 211.034 293.695C210.601 293.695 210.185 293.756 209.786 293.877C209.396 293.99 209.024 294.15 208.668 294.358V293.279C208.92 293.149 209.258 293.028 209.682 292.915C210.116 292.802 210.601 292.746 211.138 292.746C211.598 292.746 211.988 292.798 212.308 292.902C212.638 293.006 212.88 293.197 213.036 293.474C213.34 293.613 213.548 293.829 213.66 294.124C213.782 294.419 213.842 294.774 213.842 295.19V300H212.698ZM210.462 300.13C209.7 300.13 209.115 299.957 208.707 299.61C208.309 299.255 208.109 298.748 208.109 298.089C208.109 297.37 208.369 296.815 208.889 296.425C209.418 296.035 210.272 295.805 211.45 295.736L212.932 295.645V296.607L211.606 296.698C210.722 296.759 210.111 296.897 209.773 297.114C209.444 297.331 209.279 297.647 209.279 298.063C209.279 298.453 209.401 298.739 209.643 298.921C209.895 299.103 210.241 299.194 210.683 299.194C210.831 299.194 210.965 299.185 211.086 299.168C211.208 299.142 211.325 299.112 211.437 299.077L211.619 299.948C211.455 300.009 211.273 300.052 211.073 300.078C210.883 300.113 210.679 300.13 210.462 300.13ZM212.997 293.877L212.347 293.266C212.573 293.231 212.785 293.145 212.984 293.006C213.184 292.867 213.283 292.668 213.283 292.408H214.414C214.414 292.677 214.349 292.915 214.219 293.123C214.098 293.322 213.929 293.487 213.712 293.617C213.496 293.738 213.257 293.825 212.997 293.877ZM208.318 291.745V291.238L209.267 290.822H213.843V291.745H208.318ZM212.764 291.238V289.769H213.856V291.238H212.764ZM212.751 289.002V286.883H213.856V289.002H212.751ZM218.708 300.117C218.006 300.117 217.442 300.026 217.018 299.844C216.602 299.662 216.298 299.406 216.108 299.077C215.926 298.748 215.835 298.358 215.835 297.907C215.835 297.508 215.891 297.192 216.004 296.958C216.125 296.715 216.272 296.538 216.446 296.425C216.628 296.312 216.814 296.239 217.005 296.204V296.152C216.831 296.1 216.649 296.013 216.459 295.892C216.268 295.771 216.108 295.602 215.978 295.385C215.856 295.168 215.796 294.895 215.796 294.566C215.796 294.263 215.865 293.977 216.004 293.708C216.142 293.439 216.368 293.218 216.68 293.045C216.992 292.872 217.403 292.785 217.915 292.785C218.123 292.785 218.339 292.802 218.565 292.837C218.79 292.863 218.963 292.911 219.085 292.98L218.877 293.877C218.781 293.842 218.656 293.812 218.5 293.786C218.352 293.751 218.196 293.734 218.032 293.734C217.668 293.734 217.399 293.821 217.226 293.994C217.052 294.159 216.966 294.38 216.966 294.657C216.966 294.96 217.039 295.19 217.187 295.346C217.343 295.502 217.538 295.61 217.772 295.671C218.014 295.723 218.266 295.749 218.526 295.749H218.773V296.594H218.526C218.006 296.594 217.62 296.689 217.369 296.88C217.126 297.062 217.005 297.37 217.005 297.803C217.005 298.054 217.052 298.284 217.148 298.492C217.252 298.7 217.425 298.865 217.668 298.986C217.919 299.107 218.266 299.168 218.708 299.168C219.15 299.168 219.492 299.107 219.735 298.986C219.986 298.865 220.164 298.691 220.268 298.466C220.372 298.232 220.424 297.955 220.424 297.634V292.876H221.581V297.556C221.581 298.466 221.347 299.12 220.879 299.519C220.419 299.918 219.696 300.117 218.708 300.117ZM224.853 300L222.63 292.876H223.8L225.724 298.999H225.88C226.088 298.999 226.292 298.951 226.491 298.856C226.691 298.752 226.86 298.622 226.998 298.466C227.258 298.18 227.449 297.82 227.57 297.387C227.692 296.945 227.752 296.512 227.752 296.087C227.752 295.368 227.588 294.804 227.258 294.397C226.938 293.981 226.491 293.773 225.919 293.773C225.807 293.773 225.694 293.782 225.581 293.799C225.477 293.816 225.391 293.838 225.321 293.864L225.035 292.941C225.217 292.889 225.386 292.854 225.542 292.837C225.707 292.82 225.854 292.811 225.984 292.811C226.418 292.811 226.803 292.876 227.141 293.006C227.488 293.127 227.783 293.309 228.025 293.552C228.329 293.847 228.55 294.215 228.688 294.657C228.836 295.099 228.909 295.589 228.909 296.126C228.909 296.802 228.805 297.404 228.597 297.933C228.389 298.453 228.129 298.869 227.817 299.181C227.566 299.432 227.258 299.632 226.894 299.779C226.53 299.926 226.067 300 225.503 300H224.853ZM235.71 293.331C235.424 293.331 235.203 293.422 235.034 293.617C234.839 293.799 234.748 294.033 234.748 294.306C234.748 294.566 234.839 294.8 235.034 294.995C235.203 295.177 235.424 295.268 235.71 295.268C235.97 295.268 236.204 295.177 236.399 294.995C236.581 294.8 236.685 294.566 236.685 294.306C236.685 294.033 236.581 293.799 236.399 293.617C236.204 293.422 235.97 293.331 235.71 293.331ZM235.71 298.089C235.424 298.089 235.203 298.18 235.034 298.375C234.839 298.557 234.748 298.791 234.748 299.064C234.748 299.324 234.839 299.558 235.034 299.753C235.203 299.935 235.424 300.026 235.71 300.026C235.97 300.026 236.204 299.935 236.399 299.753C236.581 299.558 236.685 299.324 236.685 299.064C236.685 298.791 236.581 298.557 236.399 298.375C236.204 298.18 235.97 298.089 235.71 298.089ZM247.039 300V295.255C247.039 294.692 246.909 294.293 246.649 294.059C246.398 293.816 245.973 293.695 245.375 293.695C244.942 293.695 244.526 293.756 244.127 293.877C243.737 293.99 243.364 294.15 243.009 294.358V293.279C243.26 293.149 243.598 293.028 244.023 292.915C244.456 292.802 244.942 292.746 245.479 292.746C245.938 292.746 246.328 292.798 246.649 292.902C246.978 293.006 247.221 293.197 247.377 293.474C247.68 293.613 247.888 293.829 248.001 294.124C248.122 294.419 248.183 294.774 248.183 295.19V300H247.039ZM244.803 300.13C244.04 300.13 243.455 299.957 243.048 299.61C242.649 299.255 242.45 298.748 242.45 298.089C242.45 297.37 242.71 296.815 243.23 296.425C243.759 296.035 244.612 295.805 245.791 295.736L247.273 295.645V296.607L245.947 296.698C245.063 296.759 244.452 296.897 244.114 297.114C243.785 297.331 243.62 297.647 243.62 298.063C243.62 298.453 243.741 298.739 243.984 298.921C244.235 299.103 244.582 299.194 245.024 299.194C245.171 299.194 245.306 299.185 245.427 299.168C245.548 299.142 245.665 299.112 245.778 299.077L245.96 299.948C245.795 300.009 245.613 300.052 245.414 300.078C245.223 300.113 245.02 300.13 244.803 300.13ZM247.338 293.877L246.688 293.266C246.913 293.231 247.126 293.145 247.325 293.006C247.524 292.867 247.624 292.668 247.624 292.408H248.755C248.755 292.677 248.69 292.915 248.56 293.123C248.439 293.322 248.27 293.487 248.053 293.617C247.836 293.738 247.598 293.825 247.338 293.877ZM246.494 303.445C245.94 303.445 245.519 303.332 245.233 303.107C244.939 302.89 244.791 302.578 244.791 302.171V301.95C244.791 301.803 244.757 301.712 244.687 301.677C244.609 301.651 244.505 301.655 244.375 301.69L244.297 300.91C244.419 300.875 244.54 300.854 244.661 300.845C244.774 300.836 244.861 300.832 244.921 300.832C245.233 300.832 245.459 300.901 245.597 301.04C245.727 301.179 245.792 301.374 245.792 301.625V302.067C245.792 302.232 245.844 302.37 245.948 302.483C246.052 302.596 246.23 302.652 246.481 302.652C246.741 302.652 246.923 302.596 247.027 302.483C247.123 302.37 247.17 302.232 247.17 302.067V300.871H248.184V302.132C248.184 302.557 248.041 302.882 247.755 303.107C247.469 303.332 247.049 303.445 246.494 303.445ZM251.475 300L249.252 292.876H250.422L252.346 298.999H252.502C252.71 298.999 252.914 298.951 253.113 298.856C253.313 298.752 253.482 298.622 253.62 298.466C253.88 298.18 254.071 297.82 254.192 297.387C254.314 296.945 254.374 296.512 254.374 296.087C254.374 295.368 254.21 294.804 253.88 294.397C253.56 293.981 253.113 293.773 252.541 293.773C252.429 293.773 252.316 293.782 252.203 293.799C252.099 293.816 252.013 293.838 251.943 293.864L251.657 292.941C251.839 292.889 252.008 292.854 252.164 292.837C252.329 292.82 252.476 292.811 252.606 292.811C253.04 292.811 253.425 292.876 253.763 293.006C254.11 293.127 254.405 293.309 254.647 293.552C254.951 293.847 255.172 294.215 255.31 294.657C255.458 295.099 255.531 295.589 255.531 296.126C255.531 296.802 255.427 297.404 255.219 297.933C255.011 298.453 254.751 298.869 254.439 299.181C254.188 299.432 253.88 299.632 253.516 299.779C253.152 299.926 252.689 300 252.125 300H251.475Z" fill="#A6A6A6"/>
<defs>
<filter id="filter0_d_1889_20221" x="45.1719" y="31.5352" width="24.9219" height="17.4648" filterUnits="userSpaceOnUse" color-interpolation-filters="sRGB">
<feFlood flood-opacity="0" result="BackgroundImageFix"/>
<feColorMatrix in="SourceAlpha" type="matrix" values="0 0 0 0 0 0 0 0 0 0 0 0 0 0 0 0 0 0 127 0" result="hardAlpha"/>
<feOffset dy="2"/>
<feGaussianBlur stdDeviation="2"/>
<feComposite in2="hardAlpha" operator="out"/>
<feColorMatrix type="matrix" values="0 0 0 0 0 0 0 0 0 0 0 0 0 0 0 0 0 0 0.3 0"/>
<feBlend mode="normal" in2="BackgroundImageFix" result="effect1_dropShadow_1889_20221"/>
<feBlend mode="normal" in="SourceGraphic" in2="effect1_dropShadow_1889_20221" result="shape"/>
</filter>
<filter id="filter1_d_1889_20221" x="96.8203" y="31.5352" width="37.2031" height="17.4648" filterUnits="userSpaceOnUse" color-interpolation-filters="sRGB">
<feFlood flood-opacity="0" result="BackgroundImageFix"/>
<feColorMatrix in="SourceAlpha" type="matrix" values="0 0 0 0 0 0 0 0 0 0 0 0 0 0 0 0 0 0 127 0" result="hardAlpha"/>
<feOffset dy="2"/>
<feGaussianBlur stdDeviation="2"/>
<feComposite in2="hardAlpha" operator="out"/>
<feColorMatrix type="matrix" values="0 0 0 0 0 0 0 0 0 0 0 0 0 0 0 0 0 0 0.3 0"/>
<feBlend mode="normal" in2="BackgroundImageFix" result="effect1_dropShadow_1889_20221"/>
<feBlend mode="normal" in="SourceGraphic" in2="effect1_dropShadow_1889_20221" result="shape"/>
</filter>
<filter id="filter2_d_1889_20221" x="153.719" y="31.5352" width="37.7305" height="17.625" filterUnits="userSpaceOnUse" color-interpolation-filters="sRGB">
<feFlood flood-opacity="0" result="BackgroundImageFix"/>
<feColorMatrix in="SourceAlpha" type="matrix" values="0 0 0 0 0 0 0 0 0 0 0 0 0 0 0 0 0 0 127 0" result="hardAlpha"/>
<feOffset dy="2"/>
<feGaussianBlur stdDeviation="2"/>
<feComposite in2="hardAlpha" operator="out"/>
<feColorMatrix type="matrix" values="0 0 0 0 0 0 0 0 0 0 0 0 0 0 0 0 0 0 0.3 0"/>
<feBlend mode="normal" in2="BackgroundImageFix" result="effect1_dropShadow_1889_20221"/>
<feBlend mode="normal" in="SourceGraphic" in2="effect1_dropShadow_1889_20221" result="shape"/>
</filter>
<filter id="filter3_d_1889_20221" x="211.148" y="31.5352" width="37.7305" height="17.625" filterUnits="userSpaceOnUse" color-interpolation-filters="sRGB">
<feFlood flood-opacity="0" result="BackgroundImageFix"/>
<feColorMatrix in="SourceAlpha" type="matrix" values="0 0 0 0 0 0 0 0 0 0 0 0 0 0 0 0 0 0 127 0" result="hardAlpha"/>
<feOffset dy="2"/>
<feGaussianBlur stdDeviation="2"/>
<feComposite in2="hardAlpha" operator="out"/>
<feColorMatrix type="matrix" values="0 0 0 0 0 0 0 0 0 0 0 0 0 0 0 0 0 0 0.3 0"/>
<feBlend mode="normal" in2="BackgroundImageFix" result="effect1_dropShadow_1889_20221"/>
<feBlend mode="normal" in="SourceGraphic" in2="effect1_dropShadow_1889_20221" result="shape"/>
</filter>
<filter id="filter4_d_1889_20221" x="268.578" y="31.5352" width="37.7305" height="17.625" filterUnits="userSpaceOnUse" color-interpolation-filters="sRGB">
<feFlood flood-opacity="0" result="BackgroundImageFix"/>
<feColorMatrix in="SourceAlpha" type="matrix" values="0 0 0 0 0 0 0 0 0 0 0 0 0 0 0 0 0 0 127 0" result="hardAlpha"/>
<feOffset dy="2"/>
<feGaussianBlur stdDeviation="2"/>
<feComposite in2="hardAlpha" operator="out"/>
<feColorMatrix type="matrix" values="0 0 0 0 0 0 0 0 0 0 0 0 0 0 0 0 0 0 0.3 0"/>
<feBlend mode="normal" in2="BackgroundImageFix" result="effect1_dropShadow_1889_20221"/>
<feBlend mode="normal" in="SourceGraphic" in2="effect1_dropShadow_1889_20221" result="shape"/>
</filter>
<filter id="filter5_d_1889_20221" x="326.535" y="31.5352" width="37.2031" height="17.4648" filterUnits="userSpaceOnUse" color-interpolation-filters="sRGB">
<feFlood flood-opacity="0" result="BackgroundImageFix"/>
<feColorMatrix in="SourceAlpha" type="matrix" values="0 0 0 0 0 0 0 0 0 0 0 0 0 0 0 0 0 0 127 0" result="hardAlpha"/>
<feOffset dy="2"/>
<feGaussianBlur stdDeviation="2"/>
<feComposite in2="hardAlpha" operator="out"/>
<feColorMatrix type="matrix" values="0 0 0 0 0 0 0 0 0 0 0 0 0 0 0 0 0 0 0.3 0"/>
<feBlend mode="normal" in2="BackgroundImageFix" result="effect1_dropShadow_1889_20221"/>
<feBlend mode="normal" in="SourceGraphic" in2="effect1_dropShadow_1889_20221" result="shape"/>
</filter>
<filter id="filter6_d_1889_20221" x="389.742" y="31.5352" width="24.9219" height="17.4648" filterUnits="userSpaceOnUse" color-interpolation-filters="sRGB">
<feFlood flood-opacity="0" result="BackgroundImageFix"/>
<feColorMatrix in="SourceAlpha" type="matrix" values="0 0 0 0 0 0 0 0 0 0 0 0 0 0 0 0 0 0 127 0" result="hardAlpha"/>
<feOffset dy="2"/>
<feGaussianBlur stdDeviation="2"/>
<feComposite in2="hardAlpha" operator="out"/>
<feColorMatrix type="matrix" values="0 0 0 0 0 0 0 0 0 0 0 0 0 0 0 0 0 0 0.3 0"/>
<feBlend mode="normal" in2="BackgroundImageFix" result="effect1_dropShadow_1889_20221"/>
<feBlend mode="normal" in="SourceGraphic" in2="effect1_dropShadow_1889_20221" result="shape"/>
</filter>
<filter id="filter7_d_1889_20221" x="45.0938" y="141.535" width="25" height="17.4648" filterUnits="userSpaceOnUse" color-interpolation-filters="sRGB">
<feFlood flood-opacity="0" result="BackgroundImageFix"/>
<feColorMatrix in="SourceAlpha" type="matrix" values="0 0 0 0 0 0 0 0 0 0 0 0 0 0 0 0 0 0 127 0" result="hardAlpha"/>
<feOffset dy="2"/>
<feGaussianBlur stdDeviation="2"/>
<feComposite in2="hardAlpha" operator="out"/>
<feColorMatrix type="matrix" values="0 0 0 0 0 0 0 0 0 0 0 0 0 0 0 0 0 0 0.3 0"/>
<feBlend mode="normal" in2="BackgroundImageFix" result="effect1_dropShadow_1889_20221"/>
<feBlend mode="normal" in="SourceGraphic" in2="effect1_dropShadow_1889_20221" result="shape"/>
</filter>
<filter id="filter8_d_1889_20221" x="96.1016" y="141.535" width="37.9219" height="17.4648" filterUnits="userSpaceOnUse" color-interpolation-filters="sRGB">
<feFlood flood-opacity="0" result="BackgroundImageFix"/>
<feColorMatrix in="SourceAlpha" type="matrix" values="0 0 0 0 0 0 0 0 0 0 0 0 0 0 0 0 0 0 127 0" result="hardAlpha"/>
<feOffset dy="2"/>
<feGaussianBlur stdDeviation="2"/>
<feComposite in2="hardAlpha" operator="out"/>
<feColorMatrix type="matrix" values="0 0 0 0 0 0 0 0 0 0 0 0 0 0 0 0 0 0 0.3 0"/>
<feBlend mode="normal" in2="BackgroundImageFix" result="effect1_dropShadow_1889_20221"/>
<feBlend mode="normal" in="SourceGraphic" in2="effect1_dropShadow_1889_20221" result="shape"/>
</filter>
<filter id="filter9_d_1889_20221" x="154.246" y="141.535" width="37.2031" height="17.4648" filterUnits="userSpaceOnUse" color-interpolation-filters="sRGB">
<feFlood flood-opacity="0" result="BackgroundImageFix"/>
<feColorMatrix in="SourceAlpha" type="matrix" values="0 0 0 0 0 0 0 0 0 0 0 0 0 0 0 0 0 0 127 0" result="hardAlpha"/>
<feOffset dy="2"/>
<feGaussianBlur stdDeviation="2"/>
<feComposite in2="hardAlpha" operator="out"/>
<feColorMatrix type="matrix" values="0 0 0 0 0 0 0 0 0 0 0 0 0 0 0 0 0 0 0.3 0"/>
<feBlend mode="normal" in2="BackgroundImageFix" result="effect1_dropShadow_1889_20221"/>
<feBlend mode="normal" in="SourceGraphic" in2="effect1_dropShadow_1889_20221" result="shape"/>
</filter>
<filter id="filter10_d_1889_20221" x="211.148" y="141.535" width="37.7305" height="17.625" filterUnits="userSpaceOnUse" color-interpolation-filters="sRGB">
<feFlood flood-opacity="0" result="BackgroundImageFix"/>
<feColorMatrix in="SourceAlpha" type="matrix" values="0 0 0 0 0 0 0 0 0 0 0 0 0 0 0 0 0 0 127 0" result="hardAlpha"/>
<feOffset dy="2"/>
<feGaussianBlur stdDeviation="2"/>
<feComposite in2="hardAlpha" operator="out"/>
<feColorMatrix type="matrix" values="0 0 0 0 0 0 0 0 0 0 0 0 0 0 0 0 0 0 0.3 0"/>
<feBlend mode="normal" in2="BackgroundImageFix" result="effect1_dropShadow_1889_20221"/>
<feBlend mode="normal" in="SourceGraphic" in2="effect1_dropShadow_1889_20221" result="shape"/>
</filter>
<filter id="filter11_d_1889_20221" x="269.105" y="141.535" width="37.2031" height="17.4648" filterUnits="userSpaceOnUse" color-interpolation-filters="sRGB">
<feFlood flood-opacity="0" result="BackgroundImageFix"/>
<feColorMatrix in="SourceAlpha" type="matrix" values="0 0 0 0 0 0 0 0 0 0 0 0 0 0 0 0 0 0 127 0" result="hardAlpha"/>
<feOffset dy="2"/>
<feGaussianBlur stdDeviation="2"/>
<feComposite in2="hardAlpha" operator="out"/>
<feColorMatrix type="matrix" values="0 0 0 0 0 0 0 0 0 0 0 0 0 0 0 0 0 0 0.3 0"/>
<feBlend mode="normal" in2="BackgroundImageFix" result="effect1_dropShadow_1889_20221"/>
<feBlend mode="normal" in="SourceGraphic" in2="effect1_dropShadow_1889_20221" result="shape"/>
</filter>
<filter id="filter12_d_1889_20221" x="325.816" y="141.535" width="37.9219" height="17.4648" filterUnits="userSpaceOnUse" color-interpolation-filters="sRGB">
<feFlood flood-opacity="0" result="BackgroundImageFix"/>
<feColorMatrix in="SourceAlpha" type="matrix" values="0 0 0 0 0 0 0 0 0 0 0 0 0 0 0 0 0 0 127 0" result="hardAlpha"/>
<feOffset dy="2"/>
<feGaussianBlur stdDeviation="2"/>
<feComposite in2="hardAlpha" operator="out"/>
<feColorMatrix type="matrix" values="0 0 0 0 0 0 0 0 0 0 0 0 0 0 0 0 0 0 0.3 0"/>
<feBlend mode="normal" in2="BackgroundImageFix" result="effect1_dropShadow_1889_20221"/>
<feBlend mode="normal" in="SourceGraphic" in2="effect1_dropShadow_1889_20221" result="shape"/>
</filter>
<filter id="filter13_d_1889_20221" x="389.664" y="141.535" width="25" height="17.4648" filterUnits="userSpaceOnUse" color-interpolation-filters="sRGB">
<feFlood flood-opacity="0" result="BackgroundImageFix"/>
<feColorMatrix in="SourceAlpha" type="matrix" values="0 0 0 0 0 0 0 0 0 0 0 0 0 0 0 0 0 0 127 0" result="hardAlpha"/>
<feOffset dy="2"/>
<feGaussianBlur stdDeviation="2"/>
<feComposite in2="hardAlpha" operator="out"/>
<feColorMatrix type="matrix" values="0 0 0 0 0 0 0 0 0 0 0 0 0 0 0 0 0 0 0.3 0"/>
<feBlend mode="normal" in2="BackgroundImageFix" result="effect1_dropShadow_1889_20221"/>
<feBlend mode="normal" in="SourceGraphic" in2="effect1_dropShadow_1889_20221" result="shape"/>
</filter>
<filter id="filter14_d_1889_20221" x="45.3633" y="251.535" width="24.7305" height="17.625" filterUnits="userSpaceOnUse" color-interpolation-filters="sRGB">
<feFlood flood-opacity="0" result="BackgroundImageFix"/>
<feColorMatrix in="SourceAlpha" type="matrix" values="0 0 0 0 0 0 0 0 0 0 0 0 0 0 0 0 0 0 127 0" result="hardAlpha"/>
<feOffset dy="2"/>
<feGaussianBlur stdDeviation="2"/>
<feComposite in2="hardAlpha" operator="out"/>
<feColorMatrix type="matrix" values="0 0 0 0 0 0 0 0 0 0 0 0 0 0 0 0 0 0 0.3 0"/>
<feBlend mode="normal" in2="BackgroundImageFix" result="effect1_dropShadow_1889_20221"/>
<feBlend mode="normal" in="SourceGraphic" in2="effect1_dropShadow_1889_20221" result="shape"/>
</filter>
<filter id="filter15_d_1889_20221" x="96.0234" y="251.535" width="38" height="17.4648" filterUnits="userSpaceOnUse" color-interpolation-filters="sRGB">
<feFlood flood-opacity="0" result="BackgroundImageFix"/>
<feColorMatrix in="SourceAlpha" type="matrix" values="0 0 0 0 0 0 0 0 0 0 0 0 0 0 0 0 0 0 127 0" result="hardAlpha"/>
<feOffset dy="2"/>
<feGaussianBlur stdDeviation="2"/>
<feComposite in2="hardAlpha" operator="out"/>
<feColorMatrix type="matrix" values="0 0 0 0 0 0 0 0 0 0 0 0 0 0 0 0 0 0 0.3 0"/>
<feBlend mode="normal" in2="BackgroundImageFix" result="effect1_dropShadow_1889_20221"/>
<feBlend mode="normal" in="SourceGraphic" in2="effect1_dropShadow_1889_20221" result="shape"/>
</filter>
<filter id="filter16_d_1889_20221" x="153.527" y="251.535" width="37.9219" height="17.4648" filterUnits="userSpaceOnUse" color-interpolation-filters="sRGB">
<feFlood flood-opacity="0" result="BackgroundImageFix"/>
<feColorMatrix in="SourceAlpha" type="matrix" values="0 0 0 0 0 0 0 0 0 0 0 0 0 0 0 0 0 0 127 0" result="hardAlpha"/>
<feOffset dy="2"/>
<feGaussianBlur stdDeviation="2"/>
<feComposite in2="hardAlpha" operator="out"/>
<feColorMatrix type="matrix" values="0 0 0 0 0 0 0 0 0 0 0 0 0 0 0 0 0 0 0.3 0"/>
<feBlend mode="normal" in2="BackgroundImageFix" result="effect1_dropShadow_1889_20221"/>
<feBlend mode="normal" in="SourceGraphic" in2="effect1_dropShadow_1889_20221" result="shape"/>
</filter>
<filter id="filter17_d_1889_20221" x="211.676" y="251.535" width="37.2031" height="17.4648" filterUnits="userSpaceOnUse" color-interpolation-filters="sRGB">
<feFlood flood-opacity="0" result="BackgroundImageFix"/>
<feColorMatrix in="SourceAlpha" type="matrix" values="0 0 0 0 0 0 0 0 0 0 0 0 0 0 0 0 0 0 127 0" result="hardAlpha"/>
<feOffset dy="2"/>
<feGaussianBlur stdDeviation="2"/>
<feComposite in2="hardAlpha" operator="out"/>
<feColorMatrix type="matrix" values="0 0 0 0 0 0 0 0 0 0 0 0 0 0 0 0 0 0 0.3 0"/>
<feBlend mode="normal" in2="BackgroundImageFix" result="effect1_dropShadow_1889_20221"/>
<feBlend mode="normal" in="SourceGraphic" in2="effect1_dropShadow_1889_20221" result="shape"/>
</filter>
<filter id="filter18_d_1889_20221" x="268.387" y="251.535" width="37.9219" height="17.4648" filterUnits="userSpaceOnUse" color-interpolation-filters="sRGB">
<feFlood flood-opacity="0" result="BackgroundImageFix"/>
<feColorMatrix in="SourceAlpha" type="matrix" values="0 0 0 0 0 0 0 0 0 0 0 0 0 0 0 0 0 0 127 0" result="hardAlpha"/>
<feOffset dy="2"/>
<feGaussianBlur stdDeviation="2"/>
<feComposite in2="hardAlpha" operator="out"/>
<feColorMatrix type="matrix" values="0 0 0 0 0 0 0 0 0 0 0 0 0 0 0 0 0 0 0.3 0"/>
<feBlend mode="normal" in2="BackgroundImageFix" result="effect1_dropShadow_1889_20221"/>
<feBlend mode="normal" in="SourceGraphic" in2="effect1_dropShadow_1889_20221" result="shape"/>
</filter>
<filter id="filter19_d_1889_20221" x="325.742" y="251.535" width="37.9961" height="17.4648" filterUnits="userSpaceOnUse" color-interpolation-filters="sRGB">
<feFlood flood-opacity="0" result="BackgroundImageFix"/>
<feColorMatrix in="SourceAlpha" type="matrix" values="0 0 0 0 0 0 0 0 0 0 0 0 0 0 0 0 0 0 127 0" result="hardAlpha"/>
<feOffset dy="2"/>
<feGaussianBlur stdDeviation="2"/>
<feComposite in2="hardAlpha" operator="out"/>
<feColorMatrix type="matrix" values="0 0 0 0 0 0 0 0 0 0 0 0 0 0 0 0 0 0 0.3 0"/>
<feBlend mode="normal" in2="BackgroundImageFix" result="effect1_dropShadow_1889_20221"/>
<feBlend mode="normal" in="SourceGraphic" in2="effect1_dropShadow_1889_20221" result="shape"/>
</filter>
<filter id="filter20_d_1889_20221" x="389.934" y="251.535" width="24.7305" height="17.625" filterUnits="userSpaceOnUse" color-interpolation-filters="sRGB">
<feFlood flood-opacity="0" result="BackgroundImageFix"/>
<feColorMatrix in="SourceAlpha" type="matrix" values="0 0 0 0 0 0 0 0 0 0 0 0 0 0 0 0 0 0 127 0" result="hardAlpha"/>
<feOffset dy="2"/>
<feGaussianBlur stdDeviation="2"/>
<feComposite in2="hardAlpha" operator="out"/>
<feColorMatrix type="matrix" values="0 0 0 0 0 0 0 0 0 0 0 0 0 0 0 0 0 0 0.3 0"/>
<feBlend mode="normal" in2="BackgroundImageFix" result="effect1_dropShadow_1889_20221"/>
<feBlend mode="normal" in="SourceGraphic" in2="effect1_dropShadow_1889_20221" result="shape"/>
</filter>
</defs>
</svg>
