<svg width="460" height="324" viewBox="0 0 460 324" fill="none" xmlns="http://www.w3.org/2000/svg">
<rect width="460" height="324" rx="10" fill="#0D131C"/>
<rect x="31" y="20" width="53.4286" height="36" rx="4" fill="#161F2C"/>
<g filter="url(#filter0_d_1887_17693)">
<path d="M56.9287 43H49.1719C49.2607 42.234 49.5295 41.5146 49.978 40.8418C50.4308 40.1647 51.2772 39.367 52.5171 38.4487C53.2746 37.8859 53.7591 37.4585 53.9707 37.1665C54.1823 36.8745 54.2881 36.5973 54.2881 36.335C54.2881 36.0514 54.1823 35.8102 53.9707 35.6113C53.7633 35.4082 53.501 35.3066 53.1836 35.3066C52.8535 35.3066 52.5827 35.4103 52.3711 35.6177C52.1637 35.825 52.0241 36.1911 51.9521 36.7158L49.3623 36.5063C49.4639 35.7785 49.6501 35.2114 49.9209 34.8052C50.1917 34.3947 50.5726 34.0815 51.0635 33.8657C51.5586 33.6457 52.242 33.5356 53.1138 33.5356C54.0236 33.5356 54.7303 33.6393 55.2339 33.8467C55.7417 34.054 56.1395 34.3735 56.4272 34.8052C56.7192 35.2326 56.8652 35.7129 56.8652 36.2461C56.8652 36.8132 56.6981 37.3548 56.3638 37.8711C56.0337 38.3874 55.4307 38.9544 54.5547 39.5723C54.0342 39.932 53.6851 40.1838 53.5073 40.3276C53.3338 40.4715 53.1286 40.6598 52.8916 40.8926H56.9287V43ZM57.6968 36.2588H60.7627L61.8354 38.1377L63.0796 36.2588H65.9297L63.6318 39.4707L66.0947 43H63.0796L61.8354 40.8291L60.3691 43H57.5698L60.02 39.4707L57.6968 36.2588Z" fill="#F07923"/>
</g>
<rect x="88.4297" y="20" width="53.4286" height="36" rx="4" fill="#161F2C"/>
<g filter="url(#filter1_d_1887_17693)">
<path d="M106.151 33.5356V43H103.536V36.7983C103.112 37.12 102.702 37.3802 102.304 37.5791C101.911 37.778 101.416 37.9684 100.819 38.1504V36.0303C101.699 35.7467 102.382 35.4061 102.869 35.0083C103.356 34.6105 103.737 34.1196 104.012 33.5356H106.151ZM109.217 40.4102H111.978V43H109.217V40.4102ZM119.151 33.5356V43H116.536V36.7983C116.112 37.12 115.702 37.3802 115.304 37.5791C114.911 37.778 114.416 37.9684 113.819 38.1504V36.0303C114.699 35.7467 115.382 35.4061 115.869 35.0083C116.356 34.6105 116.737 34.1196 117.012 33.5356H119.151ZM121.626 36.2588H124.692L125.765 38.1377L127.009 36.2588H129.859L127.562 39.4707L130.024 43H127.009L125.765 40.8291L124.299 43H121.5L123.95 39.4707L121.626 36.2588Z" fill="#F08523"/>
</g>
<rect x="145.855" y="20" width="53.4286" height="36" rx="4" fill="#161F2C"/>
<g filter="url(#filter2_d_1887_17693)">
<path d="M157.718 38.3091C157.718 36.5402 158.035 35.3024 158.67 34.5957C159.309 33.889 160.28 33.5356 161.583 33.5356C162.21 33.5356 162.724 33.6139 163.126 33.7705C163.528 33.9229 163.856 34.1239 164.11 34.3735C164.364 34.619 164.563 34.8792 164.707 35.1543C164.855 35.4251 164.973 35.7425 165.062 36.1064C165.236 36.8005 165.322 37.5241 165.322 38.2773C165.322 39.9658 165.037 41.2015 164.465 41.9844C163.894 42.7673 162.91 43.1587 161.514 43.1587C160.731 43.1587 160.098 43.0339 159.616 42.7842C159.133 42.5345 158.738 42.1685 158.429 41.686C158.204 41.3433 158.029 40.8757 157.902 40.2832C157.779 39.6865 157.718 39.0285 157.718 38.3091ZM160.282 38.3154C160.282 39.5003 160.386 40.3107 160.593 40.7466C160.805 41.1782 161.11 41.394 161.507 41.394C161.77 41.394 161.996 41.3031 162.187 41.1211C162.381 40.9349 162.523 40.6429 162.612 40.2451C162.705 39.8473 162.751 39.2274 162.751 38.3853C162.751 37.1496 162.646 36.3201 162.434 35.897C162.227 35.4696 161.914 35.2559 161.495 35.2559C161.067 35.2559 160.758 35.4738 160.568 35.9097C160.377 36.3413 160.282 37.1432 160.282 38.3154ZM166.643 40.4102H169.404V43H166.643V40.4102ZM178.202 35.7891L175.631 36.1064C175.563 35.7467 175.449 35.4928 175.288 35.3447C175.132 35.1966 174.937 35.1226 174.704 35.1226C174.285 35.1226 173.959 35.3341 173.727 35.7573C173.557 36.062 173.432 36.7137 173.352 37.7124C173.661 37.3993 173.978 37.1686 174.304 37.0205C174.63 36.8682 175.007 36.792 175.434 36.792C176.264 36.792 176.964 37.0882 177.535 37.6807C178.111 38.2731 178.398 39.0243 178.398 39.9341C178.398 40.5477 178.252 41.1084 177.96 41.6162C177.673 42.124 177.271 42.5091 176.754 42.7715C176.242 43.0296 175.599 43.1587 174.825 43.1587C173.894 43.1587 173.147 43 172.584 42.6826C172.021 42.3652 171.57 41.8595 171.232 41.1655C170.898 40.4673 170.73 39.5448 170.73 38.3979C170.73 36.7179 171.084 35.4886 171.791 34.71C172.497 33.9271 173.477 33.5356 174.729 33.5356C175.47 33.5356 176.054 33.6224 176.481 33.7959C176.913 33.9652 177.271 34.2148 177.554 34.5449C177.838 34.875 178.054 35.2897 178.202 35.7891ZM173.441 39.9341C173.441 40.4377 173.568 40.8333 173.822 41.1211C174.076 41.4046 174.387 41.5464 174.755 41.5464C175.093 41.5464 175.377 41.4173 175.605 41.1592C175.834 40.901 175.948 40.516 175.948 40.0039C175.948 39.4792 175.83 39.0793 175.593 38.8042C175.356 38.5291 175.062 38.3916 174.71 38.3916C174.351 38.3916 174.048 38.5249 173.803 38.7915C173.562 39.0581 173.441 39.439 173.441 39.9341ZM179.052 36.2588H182.118L183.191 38.1377L184.435 36.2588H187.285L184.987 39.4707L187.45 43H184.435L183.191 40.8291L181.725 43H178.925L181.375 39.4707L179.052 36.2588Z" fill="#F09223"/>
</g>
<rect x="203.285" y="20" width="53.4286" height="36" rx="4" fill="#161F2C"/>
<g filter="url(#filter3_d_1887_17693)">
<path d="M215.147 38.3091C215.147 36.5402 215.465 35.3024 216.1 34.5957C216.739 33.889 217.71 33.5356 219.013 33.5356C219.639 33.5356 220.154 33.6139 220.556 33.7705C220.958 33.9229 221.286 34.1239 221.54 34.3735C221.793 34.619 221.992 34.8792 222.136 35.1543C222.284 35.4251 222.403 35.7425 222.492 36.1064C222.665 36.8005 222.752 37.5241 222.752 38.2773C222.752 39.9658 222.466 41.2015 221.895 41.9844C221.324 42.7673 220.34 43.1587 218.943 43.1587C218.16 43.1587 217.528 43.0339 217.045 42.7842C216.563 42.5345 216.167 42.1685 215.858 41.686C215.634 41.3433 215.458 40.8757 215.332 40.2832C215.209 39.6865 215.147 39.0285 215.147 38.3091ZM217.712 38.3154C217.712 39.5003 217.816 40.3107 218.023 40.7466C218.235 41.1782 218.539 41.394 218.937 41.394C219.199 41.394 219.426 41.3031 219.616 41.1211C219.811 40.9349 219.953 40.6429 220.042 40.2451C220.135 39.8473 220.181 39.2274 220.181 38.3853C220.181 37.1496 220.075 36.3201 219.864 35.897C219.656 35.4696 219.343 35.2559 218.924 35.2559C218.497 35.2559 218.188 35.4738 217.998 35.9097C217.807 36.3413 217.712 37.1432 217.712 38.3154ZM224.072 40.4102H226.833V43H224.072V40.4102ZM230.655 36.3857L228.211 35.9478C228.414 35.1691 228.803 34.5724 229.379 34.1577C229.959 33.743 230.778 33.5356 231.835 33.5356C233.05 33.5356 233.928 33.762 234.47 34.2148C235.011 34.6676 235.282 35.2368 235.282 35.9224C235.282 36.3244 235.172 36.6883 234.952 37.0142C234.732 37.34 234.4 37.6257 233.956 37.8711C234.315 37.96 234.59 38.0636 234.781 38.1821C235.09 38.3726 235.329 38.6243 235.498 38.9375C235.672 39.2464 235.758 39.6167 235.758 40.0483C235.758 40.59 235.617 41.1105 235.333 41.6099C235.049 42.105 234.641 42.488 234.108 42.7588C233.575 43.0254 232.874 43.1587 232.007 43.1587C231.16 43.1587 230.492 43.0592 230.001 42.8604C229.514 42.6615 229.112 42.3716 228.795 41.9907C228.482 41.6056 228.241 41.1232 228.071 40.5435L230.655 40.2007C230.756 40.7212 230.913 41.083 231.125 41.2861C231.34 41.485 231.613 41.5845 231.943 41.5845C232.29 41.5845 232.578 41.4575 232.807 41.2036C233.039 40.9497 233.156 40.6112 233.156 40.188C233.156 39.7563 233.044 39.422 232.819 39.1851C232.599 38.9481 232.299 38.8296 231.918 38.8296C231.715 38.8296 231.436 38.8804 231.08 38.9819L231.213 37.1348C231.357 37.1559 231.469 37.1665 231.55 37.1665C231.888 37.1665 232.17 37.0586 232.394 36.8428C232.623 36.627 232.737 36.3709 232.737 36.0747C232.737 35.7912 232.652 35.5648 232.483 35.3955C232.314 35.2262 232.081 35.1416 231.785 35.1416C231.48 35.1416 231.232 35.2347 231.042 35.4209C230.852 35.6029 230.722 35.9245 230.655 36.3857ZM236.482 36.2588H239.548L240.621 38.1377L241.865 36.2588H244.715L242.417 39.4707L244.88 43H241.865L240.621 40.8291L239.154 43H236.355L238.805 39.4707L236.482 36.2588Z" fill="#F09E23"/>
</g>
<rect x="260.715" y="20" width="53.4286" height="36" rx="4" fill="#161F2C"/>
<g filter="url(#filter4_d_1887_17693)">
<path d="M272.577 38.3091C272.577 36.5402 272.895 35.3024 273.529 34.5957C274.168 33.889 275.139 33.5356 276.443 33.5356C277.069 33.5356 277.583 33.6139 277.985 33.7705C278.387 33.9229 278.715 34.1239 278.969 34.3735C279.223 34.619 279.422 34.8792 279.566 35.1543C279.714 35.4251 279.833 35.7425 279.921 36.1064C280.095 36.8005 280.182 37.5241 280.182 38.2773C280.182 39.9658 279.896 41.2015 279.325 41.9844C278.753 42.7673 277.77 43.1587 276.373 43.1587C275.59 43.1587 274.958 43.0339 274.475 42.7842C273.993 42.5345 273.597 42.1685 273.288 41.686C273.064 41.3433 272.888 40.8757 272.761 40.2832C272.639 39.6865 272.577 39.0285 272.577 38.3091ZM275.142 38.3154C275.142 39.5003 275.245 40.3107 275.453 40.7466C275.664 41.1782 275.969 41.394 276.367 41.394C276.629 41.394 276.855 41.3031 277.046 41.1211C277.241 40.9349 277.382 40.6429 277.471 40.2451C277.564 39.8473 277.611 39.2274 277.611 38.3853C277.611 37.1496 277.505 36.3201 277.293 35.897C277.086 35.4696 276.773 35.2559 276.354 35.2559C275.927 35.2559 275.618 35.4738 275.427 35.9097C275.237 36.3413 275.142 37.1432 275.142 38.3154ZM281.502 40.4102H284.263V43H281.502V40.4102ZM293.061 35.7891L290.49 36.1064C290.423 35.7467 290.308 35.4928 290.147 35.3447C289.991 35.1966 289.796 35.1226 289.563 35.1226C289.145 35.1226 288.819 35.3341 288.586 35.7573C288.417 36.062 288.292 36.7137 288.211 37.7124C288.52 37.3993 288.838 37.1686 289.164 37.0205C289.489 36.8682 289.866 36.792 290.293 36.792C291.123 36.792 291.823 37.0882 292.395 37.6807C292.97 38.2731 293.258 39.0243 293.258 39.9341C293.258 40.5477 293.112 41.1084 292.82 41.6162C292.532 42.124 292.13 42.5091 291.614 42.7715C291.102 43.0296 290.458 43.1587 289.684 43.1587C288.753 43.1587 288.006 43 287.443 42.6826C286.881 42.3652 286.43 41.8595 286.091 41.1655C285.757 40.4673 285.59 39.5448 285.59 38.3979C285.59 36.7179 285.943 35.4886 286.65 34.71C287.357 33.9271 288.336 33.5356 289.589 33.5356C290.329 33.5356 290.913 33.6224 291.341 33.7959C291.772 33.9652 292.13 34.2148 292.414 34.5449C292.697 34.875 292.913 35.2897 293.061 35.7891ZM288.3 39.9341C288.3 40.4377 288.427 40.8333 288.681 41.1211C288.935 41.4046 289.246 41.5464 289.614 41.5464C289.953 41.5464 290.236 41.4173 290.465 41.1592C290.693 40.901 290.808 40.516 290.808 40.0039C290.808 39.4792 290.689 39.0793 290.452 38.8042C290.215 38.5291 289.921 38.3916 289.57 38.3916C289.21 38.3916 288.908 38.5249 288.662 38.7915C288.421 39.0581 288.3 39.439 288.3 39.9341ZM293.912 36.2588H296.978L298.05 38.1377L299.294 36.2588H302.145L299.847 39.4707L302.31 43H299.294L298.05 40.8291L296.584 43H293.785L296.235 39.4707L293.912 36.2588Z" fill="#F09223"/>
</g>
<rect x="318.145" y="20" width="53.4286" height="36" rx="4" fill="#161F2C"/>
<g filter="url(#filter5_d_1887_17693)">
<path d="M335.866 33.5356V43H333.25V36.7983C332.827 37.12 332.417 37.3802 332.019 37.5791C331.625 37.778 331.13 37.9684 330.534 38.1504V36.0303C331.414 35.7467 332.097 35.4061 332.584 35.0083C333.071 34.6105 333.451 34.1196 333.727 33.5356H335.866ZM338.932 40.4102H341.693V43H338.932V40.4102ZM348.866 33.5356V43H346.25V36.7983C345.827 37.12 345.417 37.3802 345.019 37.5791C344.625 37.778 344.13 37.9684 343.534 38.1504V36.0303C344.414 35.7467 345.097 35.4061 345.584 35.0083C346.071 34.6105 346.451 34.1196 346.727 33.5356H348.866ZM351.341 36.2588H354.407L355.48 38.1377L356.724 36.2588H359.574L357.276 39.4707L359.739 43H356.724L355.48 40.8291L354.014 43H351.214L353.665 39.4707L351.341 36.2588Z" fill="#F08523"/>
</g>
<rect x="375.57" y="20" width="53.4286" height="36" rx="4" fill="#161F2C"/>
<g filter="url(#filter6_d_1887_17693)">
<path d="M401.499 43H393.742C393.831 42.234 394.1 41.5146 394.548 40.8418C395.001 40.1647 395.847 39.367 397.087 38.4487C397.845 37.8859 398.329 37.4585 398.541 37.1665C398.753 36.8745 398.858 36.5973 398.858 36.335C398.858 36.0514 398.753 35.8102 398.541 35.6113C398.334 35.4082 398.071 35.3066 397.754 35.3066C397.424 35.3066 397.153 35.4103 396.941 35.6177C396.734 35.825 396.594 36.1911 396.522 36.7158L393.933 36.5063C394.034 35.7785 394.22 35.2114 394.491 34.8052C394.762 34.3947 395.143 34.0815 395.634 33.8657C396.129 33.6457 396.812 33.5356 397.684 33.5356C398.594 33.5356 399.301 33.6393 399.804 33.8467C400.312 34.054 400.71 34.3735 400.998 34.8052C401.29 35.2326 401.436 35.7129 401.436 36.2461C401.436 36.8132 401.268 37.3548 400.934 37.8711C400.604 38.3874 400.001 38.9544 399.125 39.5723C398.604 39.932 398.255 40.1838 398.078 40.3276C397.904 40.4715 397.699 40.6598 397.462 40.8926H401.499V43ZM402.267 36.2588H405.333L406.406 38.1377L407.65 36.2588H410.5L408.202 39.4707L410.665 43H407.65L406.406 40.8291L404.939 43H402.14L404.59 39.4707L402.267 36.2588Z" fill="#F07923"/>
</g>
<path d="M198.873 70.718V80H200.29V76.165H202.799C203.332 76.165 203.735 76.269 204.021 76.503C204.294 76.737 204.463 77.101 204.515 77.621L204.632 78.778C204.684 79.298 204.814 79.714 205.035 80H206.569C206.257 79.662 206.075 79.207 206.023 78.635L205.867 77.153C205.763 76.243 205.308 75.697 204.476 75.515V75.489C204.983 75.359 205.386 75.086 205.685 74.67C205.945 74.293 206.075 73.864 206.075 73.37C206.075 72.486 205.789 71.823 205.217 71.355C204.671 70.926 203.917 70.718 202.981 70.718H198.873ZM200.29 71.927H202.786C203.436 71.927 203.904 72.044 204.216 72.291C204.502 72.525 204.658 72.902 204.658 73.422C204.658 73.916 204.502 74.293 204.203 74.553C203.891 74.813 203.423 74.956 202.799 74.956H200.29V71.927ZM208.719 70.588C208.446 70.588 208.225 70.666 208.043 70.848C207.861 71.017 207.77 71.238 207.77 71.511C207.77 71.771 207.861 72.005 208.043 72.187C208.225 72.356 208.446 72.447 208.719 72.447C208.979 72.447 209.213 72.356 209.395 72.187C209.577 72.005 209.681 71.784 209.681 71.511C209.681 71.238 209.59 71.017 209.408 70.848C209.226 70.666 208.992 70.588 208.719 70.588ZM208.03 73.279V80H209.408V73.279H208.03ZM213.783 73.097C212.977 73.097 212.314 73.266 211.807 73.617C211.3 73.955 211.053 74.436 211.053 75.047C211.053 75.619 211.313 76.074 211.833 76.399C212.145 76.607 212.704 76.802 213.497 76.984C214.186 77.14 214.641 77.27 214.849 77.374C215.239 77.556 215.447 77.816 215.447 78.141C215.447 78.739 214.901 79.051 213.835 79.051C213.315 79.051 212.951 78.96 212.717 78.791C212.483 78.609 212.314 78.284 212.236 77.829H210.884C211.04 79.389 212.028 80.182 213.874 80.182C215.863 80.182 216.864 79.467 216.864 78.05C216.864 77.452 216.591 76.984 216.058 76.646C215.694 76.412 215.122 76.191 214.355 76.009C213.679 75.84 213.237 75.71 213.003 75.606C212.639 75.437 212.457 75.242 212.457 75.008C212.457 74.748 212.574 74.54 212.821 74.41C213.029 74.28 213.341 74.228 213.757 74.228C214.225 74.228 214.589 74.306 214.823 74.462C215.044 74.605 215.2 74.852 215.304 75.216H216.643C216.487 73.799 215.525 73.097 213.783 73.097ZM218.028 70.536V80H219.406V77.647L220.173 76.932L222.591 80H224.359L221.122 76.048L224.099 73.279H222.318L219.406 76.048V70.536H218.028ZM230.454 73.331C230.168 73.331 229.947 73.422 229.778 73.617C229.583 73.799 229.492 74.033 229.492 74.306C229.492 74.566 229.583 74.8 229.778 74.995C229.947 75.177 230.168 75.268 230.454 75.268C230.714 75.268 230.948 75.177 231.143 74.995C231.325 74.8 231.429 74.566 231.429 74.306C231.429 74.033 231.325 73.799 231.143 73.617C230.948 73.422 230.714 73.331 230.454 73.331ZM230.454 78.089C230.168 78.089 229.947 78.18 229.778 78.375C229.583 78.557 229.492 78.791 229.492 79.064C229.492 79.324 229.583 79.558 229.778 79.753C229.947 79.935 230.168 80.026 230.454 80.026C230.714 80.026 230.948 79.935 231.143 79.753C231.325 79.558 231.429 79.324 231.429 79.064C231.429 78.791 231.325 78.557 231.143 78.375C230.948 78.18 230.714 78.089 230.454 78.089ZM237.467 70.718V80H243.98V78.791H238.871V70.718H237.467ZM248.112 73.097C247.098 73.097 246.279 73.435 245.668 74.111C245.057 74.774 244.758 75.619 244.758 76.646C244.758 77.66 245.057 78.505 245.655 79.155C246.279 79.831 247.098 80.182 248.112 80.182C249.126 80.182 249.945 79.831 250.569 79.155C251.167 78.505 251.466 77.66 251.466 76.646C251.466 75.619 251.154 74.774 250.556 74.111C249.945 73.435 249.126 73.097 248.112 73.097ZM248.112 74.228C248.749 74.228 249.243 74.475 249.607 74.982C249.919 75.411 250.075 75.97 250.075 76.646C250.075 77.309 249.919 77.855 249.607 78.297C249.243 78.791 248.749 79.051 248.112 79.051C247.475 79.051 246.981 78.791 246.63 78.297C246.318 77.868 246.175 77.322 246.175 76.646C246.175 75.97 246.318 75.411 246.63 74.982C246.981 74.475 247.475 74.228 248.112 74.228ZM252.06 73.279L254.335 80H255.609L257.013 74.969L258.417 80H259.691L261.966 73.279H260.445L259.028 78.362L257.65 73.279H256.376L254.998 78.362L253.581 73.279H252.06Z" fill="#7C8499"/>
<rect x="31" y="130" width="53.4286" height="36" rx="4" fill="#161F2C"/>
<g filter="url(#filter7_d_1887_17693)">
<path d="M53.8057 151.261H49.0957V149.134L53.8057 143.536H56.0591V149.255H57.2271V151.261H56.0591V153H53.8057V151.261ZM53.8057 149.255V146.329L51.3174 149.255H53.8057ZM57.6968 146.259H60.7627L61.8354 148.138L63.0796 146.259H65.9297L63.6318 149.471L66.0947 153H63.0796L61.8354 150.829L60.3691 153H57.5698L60.02 149.471L57.6968 146.259Z" fill="#F07923"/>
</g>
<rect x="88.4297" y="130" width="53.4286" height="36" rx="4" fill="#161F2C"/>
<g filter="url(#filter8_d_1887_17693)">
<path d="M107.858 153H100.102C100.19 152.234 100.459 151.515 100.908 150.842C101.361 150.165 102.207 149.367 103.447 148.449C104.204 147.886 104.689 147.458 104.9 147.167C105.112 146.875 105.218 146.597 105.218 146.335C105.218 146.051 105.112 145.81 104.9 145.611C104.693 145.408 104.431 145.307 104.113 145.307C103.783 145.307 103.512 145.41 103.301 145.618C103.093 145.825 102.954 146.191 102.882 146.716L100.292 146.506C100.394 145.778 100.58 145.211 100.851 144.805C101.121 144.395 101.502 144.082 101.993 143.866C102.488 143.646 103.172 143.536 104.043 143.536C104.953 143.536 105.66 143.639 106.164 143.847C106.671 144.054 107.069 144.374 107.357 144.805C107.649 145.233 107.795 145.713 107.795 146.246C107.795 146.813 107.628 147.355 107.293 147.871C106.963 148.387 106.36 148.954 105.484 149.572C104.964 149.932 104.615 150.184 104.437 150.328C104.264 150.472 104.058 150.66 103.821 150.893H107.858V153ZM109.217 150.41H111.978V153H109.217V150.41ZM120.858 153H113.102C113.19 152.234 113.459 151.515 113.908 150.842C114.361 150.165 115.207 149.367 116.447 148.449C117.204 147.886 117.689 147.458 117.9 147.167C118.112 146.875 118.218 146.597 118.218 146.335C118.218 146.051 118.112 145.81 117.9 145.611C117.693 145.408 117.431 145.307 117.113 145.307C116.783 145.307 116.512 145.41 116.301 145.618C116.093 145.825 115.954 146.191 115.882 146.716L113.292 146.506C113.394 145.778 113.58 145.211 113.851 144.805C114.121 144.395 114.502 144.082 114.993 143.866C115.488 143.646 116.172 143.536 117.043 143.536C117.953 143.536 118.66 143.639 119.164 143.847C119.671 144.054 120.069 144.374 120.357 144.805C120.649 145.233 120.795 145.713 120.795 146.246C120.795 146.813 120.628 147.355 120.293 147.871C119.963 148.387 119.36 148.954 118.484 149.572C117.964 149.932 117.615 150.184 117.437 150.328C117.264 150.472 117.058 150.66 116.821 150.893H120.858V153ZM121.626 146.259H124.692L125.765 148.138L127.009 146.259H129.859L127.562 149.471L130.024 153H127.009L125.765 150.829L124.299 153H121.5L123.95 149.471L121.626 146.259Z" fill="#F08523"/>
</g>
<rect x="145.855" y="130" width="53.4286" height="36" rx="4" fill="#161F2C"/>
<g filter="url(#filter9_d_1887_17693)">
<path d="M163.577 143.536V153H160.961V146.798C160.538 147.12 160.128 147.38 159.73 147.579C159.336 147.778 158.841 147.968 158.245 148.15V146.03C159.125 145.747 159.808 145.406 160.295 145.008C160.782 144.611 161.162 144.12 161.438 143.536H163.577ZM166.643 150.41H169.404V153H166.643V150.41ZM178.284 153H170.527C170.616 152.234 170.885 151.515 171.333 150.842C171.786 150.165 172.633 149.367 173.873 148.449C174.63 147.886 175.115 147.458 175.326 147.167C175.538 146.875 175.644 146.597 175.644 146.335C175.644 146.051 175.538 145.81 175.326 145.611C175.119 145.408 174.856 145.307 174.539 145.307C174.209 145.307 173.938 145.41 173.727 145.618C173.519 145.825 173.38 146.191 173.308 146.716L170.718 146.506C170.819 145.778 171.006 145.211 171.276 144.805C171.547 144.395 171.928 144.082 172.419 143.866C172.914 143.646 173.597 143.536 174.469 143.536C175.379 143.536 176.086 143.639 176.589 143.847C177.097 144.054 177.495 144.374 177.783 144.805C178.075 145.233 178.221 145.713 178.221 146.246C178.221 146.813 178.054 147.355 177.719 147.871C177.389 148.387 176.786 148.954 175.91 149.572C175.39 149.932 175.041 150.184 174.863 150.328C174.689 150.472 174.484 150.66 174.247 150.893H178.284V153ZM179.052 146.259H182.118L183.191 148.138L184.435 146.259H187.285L184.987 149.471L187.45 153H184.435L183.191 150.829L181.725 153H178.925L181.375 149.471L179.052 146.259Z" fill="#F09223"/>
</g>
<rect x="203.285" y="130" width="53.4286" height="36" rx="4" fill="#161F2C"/>
<g filter="url(#filter10_d_1887_17693)">
<path d="M215.147 148.309C215.147 146.54 215.465 145.302 216.1 144.596C216.739 143.889 217.71 143.536 219.013 143.536C219.639 143.536 220.154 143.614 220.556 143.771C220.958 143.923 221.286 144.124 221.54 144.374C221.793 144.619 221.992 144.879 222.136 145.154C222.284 145.425 222.403 145.743 222.492 146.106C222.665 146.8 222.752 147.524 222.752 148.277C222.752 149.966 222.466 151.201 221.895 151.984C221.324 152.767 220.34 153.159 218.943 153.159C218.16 153.159 217.528 153.034 217.045 152.784C216.563 152.535 216.167 152.168 215.858 151.686C215.634 151.343 215.458 150.876 215.332 150.283C215.209 149.687 215.147 149.028 215.147 148.309ZM217.712 148.315C217.712 149.5 217.816 150.311 218.023 150.747C218.235 151.178 218.539 151.394 218.937 151.394C219.199 151.394 219.426 151.303 219.616 151.121C219.811 150.935 219.953 150.643 220.042 150.245C220.135 149.847 220.181 149.227 220.181 148.385C220.181 147.15 220.075 146.32 219.864 145.897C219.656 145.47 219.343 145.256 218.924 145.256C218.497 145.256 218.188 145.474 217.998 145.91C217.807 146.341 217.712 147.143 217.712 148.315ZM224.072 150.41H226.833V153H224.072V150.41ZM235.631 145.789L233.061 146.106C232.993 145.747 232.879 145.493 232.718 145.345C232.561 145.197 232.367 145.123 232.134 145.123C231.715 145.123 231.389 145.334 231.156 145.757C230.987 146.062 230.862 146.714 230.782 147.712C231.091 147.399 231.408 147.169 231.734 147.021C232.06 146.868 232.436 146.792 232.864 146.792C233.693 146.792 234.394 147.088 234.965 147.681C235.54 148.273 235.828 149.024 235.828 149.934C235.828 150.548 235.682 151.108 235.39 151.616C235.102 152.124 234.7 152.509 234.184 152.771C233.672 153.03 233.029 153.159 232.254 153.159C231.323 153.159 230.576 153 230.014 152.683C229.451 152.365 229 151.86 228.662 151.166C228.327 150.467 228.16 149.545 228.16 148.398C228.16 146.718 228.514 145.489 229.22 144.71C229.927 143.927 230.907 143.536 232.159 143.536C232.9 143.536 233.484 143.622 233.911 143.796C234.343 143.965 234.7 144.215 234.984 144.545C235.267 144.875 235.483 145.29 235.631 145.789ZM230.871 149.934C230.871 150.438 230.998 150.833 231.251 151.121C231.505 151.405 231.816 151.546 232.185 151.546C232.523 151.546 232.807 151.417 233.035 151.159C233.264 150.901 233.378 150.516 233.378 150.004C233.378 149.479 233.259 149.079 233.022 148.804C232.785 148.529 232.491 148.392 232.14 148.392C231.78 148.392 231.478 148.525 231.232 148.792C230.991 149.058 230.871 149.439 230.871 149.934ZM236.482 146.259H239.548L240.621 148.138L241.865 146.259H244.715L242.417 149.471L244.88 153H241.865L240.621 150.829L239.154 153H236.355L238.805 149.471L236.482 146.259Z" fill="#F09E23"/>
</g>
<rect x="260.715" y="130" width="53.4286" height="36" rx="4" fill="#161F2C"/>
<g filter="url(#filter11_d_1887_17693)">
<path d="M278.436 143.536V153H275.821V146.798C275.398 147.12 274.987 147.38 274.589 147.579C274.196 147.778 273.701 147.968 273.104 148.15V146.03C273.984 145.747 274.668 145.406 275.154 145.008C275.641 144.611 276.022 144.12 276.297 143.536H278.436ZM281.502 150.41H284.263V153H281.502V150.41ZM293.144 153H285.387C285.476 152.234 285.744 151.515 286.193 150.842C286.646 150.165 287.492 149.367 288.732 148.449C289.489 147.886 289.974 147.458 290.186 147.167C290.397 146.875 290.503 146.597 290.503 146.335C290.503 146.051 290.397 145.81 290.186 145.611C289.978 145.408 289.716 145.307 289.398 145.307C289.068 145.307 288.798 145.41 288.586 145.618C288.379 145.825 288.239 146.191 288.167 146.716L285.577 146.506C285.679 145.778 285.865 145.211 286.136 144.805C286.407 144.395 286.787 144.082 287.278 143.866C287.773 143.646 288.457 143.536 289.329 143.536C290.238 143.536 290.945 143.639 291.449 143.847C291.957 144.054 292.354 144.374 292.642 144.805C292.934 145.233 293.08 145.713 293.08 146.246C293.08 146.813 292.913 147.355 292.579 147.871C292.249 148.387 291.646 148.954 290.77 149.572C290.249 149.932 289.9 150.184 289.722 150.328C289.549 150.472 289.343 150.66 289.106 150.893H293.144V153ZM293.912 146.259H296.978L298.05 148.138L299.294 146.259H302.145L299.847 149.471L302.31 153H299.294L298.05 150.829L296.584 153H293.785L296.235 149.471L293.912 146.259Z" fill="#F09223"/>
</g>
<rect x="318.145" y="130" width="53.4286" height="36" rx="4" fill="#161F2C"/>
<g filter="url(#filter12_d_1887_17693)">
<path d="M337.573 153H329.816C329.905 152.234 330.174 151.515 330.623 150.842C331.075 150.165 331.922 149.367 333.162 148.449C333.919 147.886 334.404 147.458 334.615 147.167C334.827 146.875 334.933 146.597 334.933 146.335C334.933 146.051 334.827 145.81 334.615 145.611C334.408 145.408 334.146 145.307 333.828 145.307C333.498 145.307 333.227 145.41 333.016 145.618C332.808 145.825 332.669 146.191 332.597 146.716L330.007 146.506C330.108 145.778 330.295 145.211 330.565 144.805C330.836 144.395 331.217 144.082 331.708 143.866C332.203 143.646 332.887 143.536 333.758 143.536C334.668 143.536 335.375 143.639 335.878 143.847C336.386 144.054 336.784 144.374 337.072 144.805C337.364 145.233 337.51 145.713 337.51 146.246C337.51 146.813 337.343 147.355 337.008 147.871C336.678 148.387 336.075 148.954 335.199 149.572C334.679 149.932 334.33 150.184 334.152 150.328C333.978 150.472 333.773 150.66 333.536 150.893H337.573V153ZM338.932 150.41H341.693V153H338.932V150.41ZM350.573 153H342.816C342.905 152.234 343.174 151.515 343.623 150.842C344.075 150.165 344.922 149.367 346.162 148.449C346.919 147.886 347.404 147.458 347.615 147.167C347.827 146.875 347.933 146.597 347.933 146.335C347.933 146.051 347.827 145.81 347.615 145.611C347.408 145.408 347.146 145.307 346.828 145.307C346.498 145.307 346.227 145.41 346.016 145.618C345.808 145.825 345.669 146.191 345.597 146.716L343.007 146.506C343.108 145.778 343.295 145.211 343.565 144.805C343.836 144.395 344.217 144.082 344.708 143.866C345.203 143.646 345.887 143.536 346.758 143.536C347.668 143.536 348.375 143.639 348.878 143.847C349.386 144.054 349.784 144.374 350.072 144.805C350.364 145.233 350.51 145.713 350.51 146.246C350.51 146.813 350.343 147.355 350.008 147.871C349.678 148.387 349.075 148.954 348.199 149.572C347.679 149.932 347.33 150.184 347.152 150.328C346.978 150.472 346.773 150.66 346.536 150.893H350.573V153ZM351.341 146.259H354.407L355.48 148.138L356.724 146.259H359.574L357.276 149.471L359.739 153H356.724L355.48 150.829L354.014 153H351.214L353.665 149.471L351.341 146.259Z" fill="#F08523"/>
</g>
<rect x="375.57" y="130" width="53.4286" height="36" rx="4" fill="#161F2C"/>
<g filter="url(#filter13_d_1887_17693)">
<path d="M398.376 151.261H393.666V149.134L398.376 143.536H400.629V149.255H401.797V151.261H400.629V153H398.376V151.261ZM398.376 149.255V146.329L395.888 149.255H398.376ZM402.267 146.259H405.333L406.406 148.138L407.65 146.259H410.5L408.202 149.471L410.665 153H407.65L406.406 150.829L404.939 153H402.14L404.59 149.471L402.267 146.259Z" fill="#F07923"/>
</g>
<path d="M190.945 180.718V190H192.362V186.165H194.871C195.404 186.165 195.807 186.269 196.093 186.503C196.366 186.737 196.535 187.101 196.587 187.621L196.704 188.778C196.756 189.298 196.886 189.714 197.107 190H198.641C198.329 189.662 198.147 189.207 198.095 188.635L197.939 187.153C197.835 186.243 197.38 185.697 196.548 185.515V185.489C197.055 185.359 197.458 185.086 197.757 184.67C198.017 184.293 198.147 183.864 198.147 183.37C198.147 182.486 197.861 181.823 197.289 181.355C196.743 180.926 195.989 180.718 195.053 180.718H190.945ZM192.362 181.927H194.858C195.508 181.927 195.976 182.044 196.288 182.291C196.574 182.525 196.73 182.902 196.73 183.422C196.73 183.916 196.574 184.293 196.275 184.553C195.963 184.813 195.495 184.956 194.871 184.956H192.362V181.927ZM200.791 180.588C200.518 180.588 200.297 180.666 200.115 180.848C199.933 181.017 199.842 181.238 199.842 181.511C199.842 181.771 199.933 182.005 200.115 182.187C200.297 182.356 200.518 182.447 200.791 182.447C201.051 182.447 201.285 182.356 201.467 182.187C201.649 182.005 201.753 181.784 201.753 181.511C201.753 181.238 201.662 181.017 201.48 180.848C201.298 180.666 201.064 180.588 200.791 180.588ZM200.102 183.279V190H201.48V183.279H200.102ZM205.854 183.097C205.048 183.097 204.385 183.266 203.878 183.617C203.371 183.955 203.124 184.436 203.124 185.047C203.124 185.619 203.384 186.074 203.904 186.399C204.216 186.607 204.775 186.802 205.568 186.984C206.257 187.14 206.712 187.27 206.92 187.374C207.31 187.556 207.518 187.816 207.518 188.141C207.518 188.739 206.972 189.051 205.906 189.051C205.386 189.051 205.022 188.96 204.788 188.791C204.554 188.609 204.385 188.284 204.307 187.829H202.955C203.111 189.389 204.099 190.182 205.945 190.182C207.934 190.182 208.935 189.467 208.935 188.05C208.935 187.452 208.662 186.984 208.129 186.646C207.765 186.412 207.193 186.191 206.426 186.009C205.75 185.84 205.308 185.71 205.074 185.606C204.71 185.437 204.528 185.242 204.528 185.008C204.528 184.748 204.645 184.54 204.892 184.41C205.1 184.28 205.412 184.228 205.828 184.228C206.296 184.228 206.66 184.306 206.894 184.462C207.115 184.605 207.271 184.852 207.375 185.216H208.714C208.558 183.799 207.596 183.097 205.854 183.097ZM210.099 180.536V190H211.477V187.647L212.244 186.932L214.662 190H216.43L213.193 186.048L216.17 183.279H214.389L211.477 186.048V180.536H210.099ZM222.526 183.331C222.24 183.331 222.019 183.422 221.85 183.617C221.655 183.799 221.564 184.033 221.564 184.306C221.564 184.566 221.655 184.8 221.85 184.995C222.019 185.177 222.24 185.268 222.526 185.268C222.786 185.268 223.02 185.177 223.215 184.995C223.397 184.8 223.501 184.566 223.501 184.306C223.501 184.033 223.397 183.799 223.215 183.617C223.02 183.422 222.786 183.331 222.526 183.331ZM222.526 188.089C222.24 188.089 222.019 188.18 221.85 188.375C221.655 188.557 221.564 188.791 221.564 189.064C221.564 189.324 221.655 189.558 221.85 189.753C222.019 189.935 222.24 190.026 222.526 190.026C222.786 190.026 223.02 189.935 223.215 189.753C223.397 189.558 223.501 189.324 223.501 189.064C223.501 188.791 223.397 188.557 223.215 188.375C223.02 188.18 222.786 188.089 222.526 188.089ZM229.539 180.718V190H230.956V183.37H231.008L233.855 190H235.077L237.924 183.37H237.976V190H239.393V180.718H237.716L234.492 188.154H234.453L231.216 180.718H229.539ZM242.064 180.588C241.791 180.588 241.57 180.666 241.388 180.848C241.206 181.017 241.115 181.238 241.115 181.511C241.115 181.771 241.206 182.005 241.388 182.187C241.57 182.356 241.791 182.447 242.064 182.447C242.324 182.447 242.558 182.356 242.74 182.187C242.922 182.005 243.026 181.784 243.026 181.511C243.026 181.238 242.935 181.017 242.753 180.848C242.571 180.666 242.337 180.588 242.064 180.588ZM241.375 183.279V190H242.753V183.279H241.375ZM249.454 180.536V184.28C248.908 183.487 248.219 183.097 247.4 183.097C246.438 183.097 245.671 183.448 245.125 184.15C244.605 184.8 244.358 185.619 244.358 186.607C244.358 187.634 244.618 188.479 245.138 189.129C245.697 189.831 246.477 190.182 247.465 190.182C248.375 190.182 249.077 189.844 249.545 189.194V190H250.832V180.536H249.454ZM247.712 184.215C248.219 184.215 248.635 184.41 248.973 184.826C249.311 185.268 249.493 185.853 249.493 186.581V186.698C249.493 187.374 249.35 187.92 249.064 188.349C248.726 188.817 248.271 189.064 247.673 189.064C246.997 189.064 246.49 188.817 246.178 188.336C245.905 187.92 245.775 187.348 245.775 186.607C245.775 185.866 245.918 185.294 246.204 184.904C246.529 184.436 247.036 184.215 247.712 184.215ZM257.223 180.536V184.28C256.677 183.487 255.988 183.097 255.169 183.097C254.207 183.097 253.44 183.448 252.894 184.15C252.374 184.8 252.127 185.619 252.127 186.607C252.127 187.634 252.387 188.479 252.907 189.129C253.466 189.831 254.246 190.182 255.234 190.182C256.144 190.182 256.846 189.844 257.314 189.194V190H258.601V180.536H257.223ZM255.481 184.215C255.988 184.215 256.404 184.41 256.742 184.826C257.08 185.268 257.262 185.853 257.262 186.581V186.698C257.262 187.374 257.119 187.92 256.833 188.349C256.495 188.817 256.04 189.064 255.442 189.064C254.766 189.064 254.259 188.817 253.947 188.336C253.674 187.92 253.544 187.348 253.544 186.607C253.544 185.866 253.687 185.294 253.973 184.904C254.298 184.436 254.805 184.215 255.481 184.215ZM260.313 180.536V190H261.691V180.536H260.313ZM266.254 183.097C265.266 183.097 264.473 183.435 263.901 184.124C263.303 184.8 263.017 185.632 263.017 186.633C263.017 187.738 263.329 188.609 263.953 189.259C264.525 189.87 265.318 190.182 266.306 190.182C267.203 190.182 267.944 189.922 268.529 189.415C268.997 188.999 269.296 188.466 269.452 187.842H268.074C267.892 188.232 267.697 188.531 267.463 188.713C267.164 188.934 266.774 189.051 266.293 189.051C265.747 189.051 265.318 188.869 265.006 188.531C264.694 188.18 264.525 187.673 264.473 187.023H269.569C269.556 185.827 269.283 184.891 268.763 184.215C268.191 183.461 267.346 183.097 266.254 183.097ZM266.293 184.228C267.385 184.228 267.996 184.813 268.126 185.983H264.499C264.577 185.411 264.772 184.982 265.058 184.683C265.37 184.371 265.773 184.228 266.293 184.228Z" fill="#7C8499"/>
<rect x="31" y="240" width="53.4286" height="36" rx="4" fill="#161F2C"/>
<g filter="url(#filter14_d_1887_17693)">
<path d="M50.9175 257.998C50.5112 257.782 50.215 257.541 50.0288 257.274C49.7749 256.91 49.6479 256.492 49.6479 256.018C49.6479 255.239 50.014 254.602 50.7461 254.107C51.3174 253.726 52.0728 253.536 53.0122 253.536C54.2563 253.536 55.1746 253.773 55.7671 254.247C56.3638 254.721 56.6621 255.317 56.6621 256.037C56.6621 256.456 56.5436 256.847 56.3066 257.211C56.1289 257.482 55.8496 257.744 55.4688 257.998C55.9723 258.239 56.3468 258.559 56.5923 258.957C56.842 259.354 56.9668 259.794 56.9668 260.277C56.9668 260.742 56.8589 261.178 56.6431 261.584C56.4315 261.986 56.1691 262.298 55.856 262.518C55.547 262.738 55.1598 262.898 54.6943 263C54.2331 263.106 53.7401 263.159 53.2153 263.159C52.2293 263.159 51.4761 263.042 50.9556 262.81C50.4351 262.577 50.0394 262.234 49.7686 261.781C49.4977 261.328 49.3623 260.823 49.3623 260.264C49.3623 259.718 49.4893 259.257 49.7432 258.88C49.9971 258.5 50.3885 258.205 50.9175 257.998ZM52.0791 256.17C52.0791 256.492 52.1785 256.752 52.3774 256.951C52.5806 257.145 52.8493 257.243 53.1836 257.243C53.4798 257.243 53.7231 257.145 53.9136 256.951C54.104 256.756 54.1992 256.504 54.1992 256.195C54.1992 255.874 54.0998 255.613 53.9009 255.415C53.702 255.211 53.4481 255.11 53.1392 255.11C52.826 255.11 52.57 255.209 52.3711 255.408C52.1764 255.603 52.0791 255.857 52.0791 256.17ZM51.9395 260.175C51.9395 260.586 52.0643 260.922 52.314 261.185C52.5636 261.443 52.8493 261.572 53.1709 261.572C53.4798 261.572 53.757 261.441 54.0024 261.178C54.2479 260.912 54.3706 260.575 54.3706 260.169C54.3706 259.758 54.2458 259.422 53.9961 259.16C53.7507 258.897 53.465 258.766 53.1392 258.766C52.8175 258.766 52.5361 258.893 52.2949 259.147C52.0579 259.401 51.9395 259.744 51.9395 260.175ZM57.6968 256.259H60.7627L61.8354 258.138L63.0796 256.259H65.9297L63.6318 259.471L66.0947 263H63.0796L61.8354 260.829L60.3691 263H57.5698L60.02 259.471L57.6968 256.259Z" fill="#F07923"/>
</g>
<rect x="88.4297" y="240" width="53.4286" height="36" rx="4" fill="#161F2C"/>
<g filter="url(#filter15_d_1887_17693)">
<path d="M104.735 261.261H100.025V259.134L104.735 253.536H106.989V259.255H108.157V261.261H106.989V263H104.735V261.261ZM104.735 259.255V256.329L102.247 259.255H104.735ZM109.217 260.41H111.978V263H109.217V260.41ZM117.735 261.261H113.025V259.134L117.735 253.536H119.989V259.255H121.157V261.261H119.989V263H117.735V261.261ZM117.735 259.255V256.329L115.247 259.255H117.735ZM121.626 256.259H124.692L125.765 258.138L127.009 256.259H129.859L127.562 259.471L130.024 263H127.009L125.765 260.829L124.299 263H121.5L123.95 259.471L121.626 256.259Z" fill="#F08523"/>
</g>
<rect x="145.855" y="240" width="53.4286" height="36" rx="4" fill="#161F2C"/>
<g filter="url(#filter16_d_1887_17693)">
<path d="M165.284 263H157.527C157.616 262.234 157.885 261.515 158.333 260.842C158.786 260.165 159.633 259.367 160.873 258.449C161.63 257.886 162.115 257.458 162.326 257.167C162.538 256.875 162.644 256.597 162.644 256.335C162.644 256.051 162.538 255.81 162.326 255.611C162.119 255.408 161.856 255.307 161.539 255.307C161.209 255.307 160.938 255.41 160.727 255.618C160.519 255.825 160.38 256.191 160.308 256.716L157.718 256.506C157.819 255.778 158.006 255.211 158.276 254.805C158.547 254.395 158.928 254.082 159.419 253.866C159.914 253.646 160.597 253.536 161.469 253.536C162.379 253.536 163.086 253.639 163.589 253.847C164.097 254.054 164.495 254.374 164.783 254.805C165.075 255.233 165.221 255.713 165.221 256.246C165.221 256.813 165.054 257.355 164.719 257.871C164.389 258.387 163.786 258.954 162.91 259.572C162.39 259.932 162.041 260.184 161.863 260.328C161.689 260.472 161.484 260.66 161.247 260.893H165.284V263ZM166.643 260.41H169.404V263H166.643V260.41ZM175.161 261.261H170.451V259.134L175.161 253.536H177.415V259.255H178.583V261.261H177.415V263H175.161V261.261ZM175.161 259.255V256.329L172.673 259.255H175.161ZM179.052 256.259H182.118L183.191 258.138L184.435 256.259H187.285L184.987 259.471L187.45 263H184.435L183.191 260.829L181.725 263H178.925L181.375 259.471L179.052 256.259Z" fill="#F09223"/>
</g>
<rect x="203.285" y="240" width="53.4286" height="36" rx="4" fill="#161F2C"/>
<g filter="url(#filter17_d_1887_17693)">
<path d="M221.006 253.536V263H218.391V256.798C217.968 257.12 217.557 257.38 217.16 257.579C216.766 257.778 216.271 257.968 215.674 258.15V256.03C216.555 255.747 217.238 255.406 217.725 255.008C218.211 254.611 218.592 254.12 218.867 253.536H221.006ZM224.072 260.41H226.833V263H224.072V260.41ZM235.714 263H227.957C228.046 262.234 228.315 261.515 228.763 260.842C229.216 260.165 230.062 259.367 231.302 258.449C232.06 257.886 232.544 257.458 232.756 257.167C232.967 256.875 233.073 256.597 233.073 256.335C233.073 256.051 232.967 255.81 232.756 255.611C232.549 255.408 232.286 255.307 231.969 255.307C231.639 255.307 231.368 255.41 231.156 255.618C230.949 255.825 230.809 256.191 230.737 256.716L228.147 256.506C228.249 255.778 228.435 255.211 228.706 254.805C228.977 254.395 229.358 254.082 229.849 253.866C230.344 253.646 231.027 253.536 231.899 253.536C232.809 253.536 233.515 253.639 234.019 253.847C234.527 254.054 234.925 254.374 235.212 254.805C235.504 255.233 235.65 255.713 235.65 256.246C235.65 256.813 235.483 257.355 235.149 257.871C234.819 258.387 234.216 258.954 233.34 259.572C232.819 259.932 232.47 260.184 232.292 260.328C232.119 260.472 231.914 260.66 231.677 260.893H235.714V263ZM236.482 256.259H239.548L240.621 258.138L241.865 256.259H244.715L242.417 259.471L244.88 263H241.865L240.621 260.829L239.154 263H236.355L238.805 259.471L236.482 256.259Z" fill="#F09E23"/>
</g>
<rect x="260.715" y="240" width="53.4286" height="36" rx="4" fill="#161F2C"/>
<g filter="url(#filter18_d_1887_17693)">
<path d="M280.144 263H272.387C272.476 262.234 272.744 261.515 273.193 260.842C273.646 260.165 274.492 259.367 275.732 258.449C276.489 257.886 276.974 257.458 277.186 257.167C277.397 256.875 277.503 256.597 277.503 256.335C277.503 256.051 277.397 255.81 277.186 255.611C276.978 255.408 276.716 255.307 276.398 255.307C276.068 255.307 275.798 255.41 275.586 255.618C275.379 255.825 275.239 256.191 275.167 256.716L272.577 256.506C272.679 255.778 272.865 255.211 273.136 254.805C273.407 254.395 273.787 254.082 274.278 253.866C274.773 253.646 275.457 253.536 276.329 253.536C277.238 253.536 277.945 253.639 278.449 253.847C278.957 254.054 279.354 254.374 279.642 254.805C279.934 255.233 280.08 255.713 280.08 256.246C280.08 256.813 279.913 257.355 279.579 257.871C279.249 258.387 278.646 258.954 277.77 259.572C277.249 259.932 276.9 260.184 276.722 260.328C276.549 260.472 276.343 260.66 276.106 260.893H280.144V263ZM281.502 260.41H284.263V263H281.502V260.41ZM290.021 261.261H285.311V259.134L290.021 253.536H292.274V259.255H293.442V261.261H292.274V263H290.021V261.261ZM290.021 259.255V256.329L287.532 259.255H290.021ZM293.912 256.259H296.978L298.05 258.138L299.294 256.259H302.145L299.847 259.471L302.31 263H299.294L298.05 260.829L296.584 263H293.785L296.235 259.471L293.912 256.259Z" fill="#F09223"/>
</g>
<rect x="318.145" y="240" width="53.4286" height="36" rx="4" fill="#161F2C"/>
<g filter="url(#filter19_d_1887_17693)">
<path d="M334.45 261.261H329.74V259.134L334.45 253.536H336.704V259.255H337.872V261.261H336.704V263H334.45V261.261ZM334.45 259.255V256.329L331.962 259.255H334.45ZM338.932 260.41H341.693V263H338.932V260.41ZM347.45 261.261H342.74V259.134L347.45 253.536H349.704V259.255H350.872V261.261H349.704V263H347.45V261.261ZM347.45 259.255V256.329L344.962 259.255H347.45ZM351.341 256.259H354.407L355.48 258.138L356.724 256.259H359.574L357.276 259.471L359.739 263H356.724L355.48 260.829L354.014 263H351.214L353.665 259.471L351.341 256.259Z" fill="#F08523"/>
</g>
<rect x="375.57" y="240" width="53.4286" height="36" rx="4" fill="#161F2C"/>
<g filter="url(#filter20_d_1887_17693)">
<path d="M395.488 257.998C395.082 257.782 394.785 257.541 394.599 257.274C394.345 256.91 394.218 256.492 394.218 256.018C394.218 255.239 394.584 254.602 395.316 254.107C395.888 253.726 396.643 253.536 397.583 253.536C398.827 253.536 399.745 253.773 400.337 254.247C400.934 254.721 401.232 255.317 401.232 256.037C401.232 256.456 401.114 256.847 400.877 257.211C400.699 257.482 400.42 257.744 400.039 257.998C400.543 258.239 400.917 258.559 401.163 258.957C401.412 259.354 401.537 259.794 401.537 260.277C401.537 260.742 401.429 261.178 401.213 261.584C401.002 261.986 400.739 262.298 400.426 262.518C400.117 262.738 399.73 262.898 399.265 263C398.803 263.106 398.31 263.159 397.786 263.159C396.8 263.159 396.046 263.042 395.526 262.81C395.005 262.577 394.61 262.234 394.339 261.781C394.068 261.328 393.933 260.823 393.933 260.264C393.933 259.718 394.06 259.257 394.313 258.88C394.567 258.5 394.959 258.205 395.488 257.998ZM396.649 256.17C396.649 256.492 396.749 256.752 396.948 256.951C397.151 257.145 397.42 257.243 397.754 257.243C398.05 257.243 398.293 257.145 398.484 256.951C398.674 256.756 398.77 256.504 398.77 256.195C398.77 255.874 398.67 255.613 398.471 255.415C398.272 255.211 398.018 255.11 397.709 255.11C397.396 255.11 397.14 255.209 396.941 255.408C396.747 255.603 396.649 255.857 396.649 256.17ZM396.51 260.175C396.51 260.586 396.635 260.922 396.884 261.185C397.134 261.443 397.42 261.572 397.741 261.572C398.05 261.572 398.327 261.441 398.573 261.178C398.818 260.912 398.941 260.575 398.941 260.169C398.941 259.758 398.816 259.422 398.566 259.16C398.321 258.897 398.035 258.766 397.709 258.766C397.388 258.766 397.106 258.893 396.865 259.147C396.628 259.401 396.51 259.744 396.51 260.175ZM402.267 256.259H405.333L406.406 258.138L407.65 256.259H410.5L408.202 259.471L410.665 263H407.65L406.406 260.829L404.939 263H402.14L404.59 259.471L402.267 256.259Z" fill="#F07923"/>
</g>
<path d="M197.477 290.718V300H198.894V296.165H201.403C201.936 296.165 202.339 296.269 202.625 296.503C202.898 296.737 203.067 297.101 203.119 297.621L203.236 298.778C203.288 299.298 203.418 299.714 203.639 300H205.173C204.861 299.662 204.679 299.207 204.627 298.635L204.471 297.153C204.367 296.243 203.912 295.697 203.08 295.515V295.489C203.587 295.359 203.99 295.086 204.289 294.67C204.549 294.293 204.679 293.864 204.679 293.37C204.679 292.486 204.393 291.823 203.821 291.355C203.275 290.926 202.521 290.718 201.585 290.718H197.477ZM198.894 291.927H201.39C202.04 291.927 202.508 292.044 202.82 292.291C203.106 292.525 203.262 292.902 203.262 293.422C203.262 293.916 203.106 294.293 202.807 294.553C202.495 294.813 202.027 294.956 201.403 294.956H198.894V291.927ZM207.323 290.588C207.05 290.588 206.829 290.666 206.647 290.848C206.465 291.017 206.374 291.238 206.374 291.511C206.374 291.771 206.465 292.005 206.647 292.187C206.829 292.356 207.05 292.447 207.323 292.447C207.583 292.447 207.817 292.356 207.999 292.187C208.181 292.005 208.285 291.784 208.285 291.511C208.285 291.238 208.194 291.017 208.012 290.848C207.83 290.666 207.596 290.588 207.323 290.588ZM206.634 293.279V300H208.012V293.279H206.634ZM212.386 293.097C211.58 293.097 210.917 293.266 210.41 293.617C209.903 293.955 209.656 294.436 209.656 295.047C209.656 295.619 209.916 296.074 210.436 296.399C210.748 296.607 211.307 296.802 212.1 296.984C212.789 297.14 213.244 297.27 213.452 297.374C213.842 297.556 214.05 297.816 214.05 298.141C214.05 298.739 213.504 299.051 212.438 299.051C211.918 299.051 211.554 298.96 211.32 298.791C211.086 298.609 210.917 298.284 210.839 297.829H209.487C209.643 299.389 210.631 300.182 212.477 300.182C214.466 300.182 215.467 299.467 215.467 298.05C215.467 297.452 215.194 296.984 214.661 296.646C214.297 296.412 213.725 296.191 212.958 296.009C212.282 295.84 211.84 295.71 211.606 295.606C211.242 295.437 211.06 295.242 211.06 295.008C211.06 294.748 211.177 294.54 211.424 294.41C211.632 294.28 211.944 294.228 212.36 294.228C212.828 294.228 213.192 294.306 213.426 294.462C213.647 294.605 213.803 294.852 213.907 295.216H215.246C215.09 293.799 214.128 293.097 212.386 293.097ZM216.631 290.536V300H218.009V297.647L218.776 296.932L221.194 300H222.962L219.725 296.048L222.702 293.279H220.921L218.009 296.048V290.536H216.631ZM229.058 293.331C228.772 293.331 228.551 293.422 228.382 293.617C228.187 293.799 228.096 294.033 228.096 294.306C228.096 294.566 228.187 294.8 228.382 294.995C228.551 295.177 228.772 295.268 229.058 295.268C229.318 295.268 229.552 295.177 229.747 294.995C229.929 294.8 230.033 294.566 230.033 294.306C230.033 294.033 229.929 293.799 229.747 293.617C229.552 293.422 229.318 293.331 229.058 293.331ZM229.058 298.089C228.772 298.089 228.551 298.18 228.382 298.375C228.187 298.557 228.096 298.791 228.096 299.064C228.096 299.324 228.187 299.558 228.382 299.753C228.551 299.935 228.772 300.026 229.058 300.026C229.318 300.026 229.552 299.935 229.747 299.753C229.929 299.558 230.033 299.324 230.033 299.064C230.033 298.791 229.929 298.557 229.747 298.375C229.552 298.18 229.318 298.089 229.058 298.089ZM236.071 290.718V300H237.488V295.84H242.35V300H243.767V290.718H242.35V294.631H237.488V290.718H236.071ZM246.437 290.588C246.164 290.588 245.943 290.666 245.761 290.848C245.579 291.017 245.488 291.238 245.488 291.511C245.488 291.771 245.579 292.005 245.761 292.187C245.943 292.356 246.164 292.447 246.437 292.447C246.697 292.447 246.931 292.356 247.113 292.187C247.295 292.005 247.399 291.784 247.399 291.511C247.399 291.238 247.308 291.017 247.126 290.848C246.944 290.666 246.71 290.588 246.437 290.588ZM245.748 293.279V300H247.126V293.279H245.748ZM251.786 293.097C250.876 293.097 250.135 293.409 249.576 294.046C249.004 294.67 248.731 295.476 248.731 296.49C248.731 297.504 249.004 298.31 249.576 298.921C250.135 299.532 250.876 299.844 251.786 299.844C252.67 299.844 253.346 299.467 253.84 298.726V299.766C253.84 301.027 253.255 301.664 252.085 301.664C251.539 301.664 251.136 301.573 250.889 301.417C250.629 301.248 250.473 300.962 250.395 300.572H249.017C249.147 301.313 249.446 301.859 249.94 302.223C250.434 302.574 251.149 302.756 252.085 302.756C254.165 302.756 255.218 301.69 255.218 299.558V293.279H253.84V294.176C253.346 293.448 252.67 293.097 251.786 293.097ZM251.994 294.215C252.579 294.215 253.034 294.41 253.372 294.826C253.684 295.229 253.853 295.788 253.853 296.49C253.853 297.179 253.684 297.725 253.372 298.128C253.034 298.518 252.579 298.713 251.994 298.713C251.318 298.713 250.837 298.479 250.538 298.037C250.278 297.66 250.148 297.14 250.148 296.49C250.148 295.775 250.304 295.216 250.642 294.826C250.954 294.41 251.409 294.215 251.994 294.215ZM256.774 290.536V300H258.152V296.23C258.152 295.645 258.295 295.164 258.594 294.787C258.88 294.41 259.257 294.228 259.725 294.228C260.245 294.228 260.648 294.384 260.908 294.709C261.142 295.021 261.272 295.463 261.272 296.061V300H262.65V295.827C262.65 294.943 262.455 294.267 262.065 293.812C261.649 293.331 261.038 293.097 260.232 293.097C259.803 293.097 259.426 293.175 259.088 293.357C258.711 293.539 258.399 293.838 258.152 294.228V290.536H256.774Z" fill="#7C8499"/>
<defs>
<filter id="filter0_d_1887_17693" x="45.1719" y="31.5352" width="24.9219" height="17.4648" filterUnits="userSpaceOnUse" color-interpolation-filters="sRGB">
<feFlood flood-opacity="0" result="BackgroundImageFix"/>
<feColorMatrix in="SourceAlpha" type="matrix" values="0 0 0 0 0 0 0 0 0 0 0 0 0 0 0 0 0 0 127 0" result="hardAlpha"/>
<feOffset dy="2"/>
<feGaussianBlur stdDeviation="2"/>
<feComposite in2="hardAlpha" operator="out"/>
<feColorMatrix type="matrix" values="0 0 0 0 0 0 0 0 0 0 0 0 0 0 0 0 0 0 0.3 0"/>
<feBlend mode="normal" in2="BackgroundImageFix" result="effect1_dropShadow_1887_17693"/>
<feBlend mode="normal" in="SourceGraphic" in2="effect1_dropShadow_1887_17693" result="shape"/>
</filter>
<filter id="filter1_d_1887_17693" x="96.8203" y="31.5352" width="37.2031" height="17.4648" filterUnits="userSpaceOnUse" color-interpolation-filters="sRGB">
<feFlood flood-opacity="0" result="BackgroundImageFix"/>
<feColorMatrix in="SourceAlpha" type="matrix" values="0 0 0 0 0 0 0 0 0 0 0 0 0 0 0 0 0 0 127 0" result="hardAlpha"/>
<feOffset dy="2"/>
<feGaussianBlur stdDeviation="2"/>
<feComposite in2="hardAlpha" operator="out"/>
<feColorMatrix type="matrix" values="0 0 0 0 0 0 0 0 0 0 0 0 0 0 0 0 0 0 0.3 0"/>
<feBlend mode="normal" in2="BackgroundImageFix" result="effect1_dropShadow_1887_17693"/>
<feBlend mode="normal" in="SourceGraphic" in2="effect1_dropShadow_1887_17693" result="shape"/>
</filter>
<filter id="filter2_d_1887_17693" x="153.719" y="31.5352" width="37.7305" height="17.625" filterUnits="userSpaceOnUse" color-interpolation-filters="sRGB">
<feFlood flood-opacity="0" result="BackgroundImageFix"/>
<feColorMatrix in="SourceAlpha" type="matrix" values="0 0 0 0 0 0 0 0 0 0 0 0 0 0 0 0 0 0 127 0" result="hardAlpha"/>
<feOffset dy="2"/>
<feGaussianBlur stdDeviation="2"/>
<feComposite in2="hardAlpha" operator="out"/>
<feColorMatrix type="matrix" values="0 0 0 0 0 0 0 0 0 0 0 0 0 0 0 0 0 0 0.3 0"/>
<feBlend mode="normal" in2="BackgroundImageFix" result="effect1_dropShadow_1887_17693"/>
<feBlend mode="normal" in="SourceGraphic" in2="effect1_dropShadow_1887_17693" result="shape"/>
</filter>
<filter id="filter3_d_1887_17693" x="211.148" y="31.5352" width="37.7305" height="17.625" filterUnits="userSpaceOnUse" color-interpolation-filters="sRGB">
<feFlood flood-opacity="0" result="BackgroundImageFix"/>
<feColorMatrix in="SourceAlpha" type="matrix" values="0 0 0 0 0 0 0 0 0 0 0 0 0 0 0 0 0 0 127 0" result="hardAlpha"/>
<feOffset dy="2"/>
<feGaussianBlur stdDeviation="2"/>
<feComposite in2="hardAlpha" operator="out"/>
<feColorMatrix type="matrix" values="0 0 0 0 0 0 0 0 0 0 0 0 0 0 0 0 0 0 0.3 0"/>
<feBlend mode="normal" in2="BackgroundImageFix" result="effect1_dropShadow_1887_17693"/>
<feBlend mode="normal" in="SourceGraphic" in2="effect1_dropShadow_1887_17693" result="shape"/>
</filter>
<filter id="filter4_d_1887_17693" x="268.578" y="31.5352" width="37.7305" height="17.625" filterUnits="userSpaceOnUse" color-interpolation-filters="sRGB">
<feFlood flood-opacity="0" result="BackgroundImageFix"/>
<feColorMatrix in="SourceAlpha" type="matrix" values="0 0 0 0 0 0 0 0 0 0 0 0 0 0 0 0 0 0 127 0" result="hardAlpha"/>
<feOffset dy="2"/>
<feGaussianBlur stdDeviation="2"/>
<feComposite in2="hardAlpha" operator="out"/>
<feColorMatrix type="matrix" values="0 0 0 0 0 0 0 0 0 0 0 0 0 0 0 0 0 0 0.3 0"/>
<feBlend mode="normal" in2="BackgroundImageFix" result="effect1_dropShadow_1887_17693"/>
<feBlend mode="normal" in="SourceGraphic" in2="effect1_dropShadow_1887_17693" result="shape"/>
</filter>
<filter id="filter5_d_1887_17693" x="326.535" y="31.5352" width="37.2031" height="17.4648" filterUnits="userSpaceOnUse" color-interpolation-filters="sRGB">
<feFlood flood-opacity="0" result="BackgroundImageFix"/>
<feColorMatrix in="SourceAlpha" type="matrix" values="0 0 0 0 0 0 0 0 0 0 0 0 0 0 0 0 0 0 127 0" result="hardAlpha"/>
<feOffset dy="2"/>
<feGaussianBlur stdDeviation="2"/>
<feComposite in2="hardAlpha" operator="out"/>
<feColorMatrix type="matrix" values="0 0 0 0 0 0 0 0 0 0 0 0 0 0 0 0 0 0 0.3 0"/>
<feBlend mode="normal" in2="BackgroundImageFix" result="effect1_dropShadow_1887_17693"/>
<feBlend mode="normal" in="SourceGraphic" in2="effect1_dropShadow_1887_17693" result="shape"/>
</filter>
<filter id="filter6_d_1887_17693" x="389.742" y="31.5352" width="24.9219" height="17.4648" filterUnits="userSpaceOnUse" color-interpolation-filters="sRGB">
<feFlood flood-opacity="0" result="BackgroundImageFix"/>
<feColorMatrix in="SourceAlpha" type="matrix" values="0 0 0 0 0 0 0 0 0 0 0 0 0 0 0 0 0 0 127 0" result="hardAlpha"/>
<feOffset dy="2"/>
<feGaussianBlur stdDeviation="2"/>
<feComposite in2="hardAlpha" operator="out"/>
<feColorMatrix type="matrix" values="0 0 0 0 0 0 0 0 0 0 0 0 0 0 0 0 0 0 0.3 0"/>
<feBlend mode="normal" in2="BackgroundImageFix" result="effect1_dropShadow_1887_17693"/>
<feBlend mode="normal" in="SourceGraphic" in2="effect1_dropShadow_1887_17693" result="shape"/>
</filter>
<filter id="filter7_d_1887_17693" x="45.0938" y="141.535" width="25" height="17.4648" filterUnits="userSpaceOnUse" color-interpolation-filters="sRGB">
<feFlood flood-opacity="0" result="BackgroundImageFix"/>
<feColorMatrix in="SourceAlpha" type="matrix" values="0 0 0 0 0 0 0 0 0 0 0 0 0 0 0 0 0 0 127 0" result="hardAlpha"/>
<feOffset dy="2"/>
<feGaussianBlur stdDeviation="2"/>
<feComposite in2="hardAlpha" operator="out"/>
<feColorMatrix type="matrix" values="0 0 0 0 0 0 0 0 0 0 0 0 0 0 0 0 0 0 0.3 0"/>
<feBlend mode="normal" in2="BackgroundImageFix" result="effect1_dropShadow_1887_17693"/>
<feBlend mode="normal" in="SourceGraphic" in2="effect1_dropShadow_1887_17693" result="shape"/>
</filter>
<filter id="filter8_d_1887_17693" x="96.1016" y="141.535" width="37.9219" height="17.4648" filterUnits="userSpaceOnUse" color-interpolation-filters="sRGB">
<feFlood flood-opacity="0" result="BackgroundImageFix"/>
<feColorMatrix in="SourceAlpha" type="matrix" values="0 0 0 0 0 0 0 0 0 0 0 0 0 0 0 0 0 0 127 0" result="hardAlpha"/>
<feOffset dy="2"/>
<feGaussianBlur stdDeviation="2"/>
<feComposite in2="hardAlpha" operator="out"/>
<feColorMatrix type="matrix" values="0 0 0 0 0 0 0 0 0 0 0 0 0 0 0 0 0 0 0.3 0"/>
<feBlend mode="normal" in2="BackgroundImageFix" result="effect1_dropShadow_1887_17693"/>
<feBlend mode="normal" in="SourceGraphic" in2="effect1_dropShadow_1887_17693" result="shape"/>
</filter>
<filter id="filter9_d_1887_17693" x="154.246" y="141.535" width="37.2031" height="17.4648" filterUnits="userSpaceOnUse" color-interpolation-filters="sRGB">
<feFlood flood-opacity="0" result="BackgroundImageFix"/>
<feColorMatrix in="SourceAlpha" type="matrix" values="0 0 0 0 0 0 0 0 0 0 0 0 0 0 0 0 0 0 127 0" result="hardAlpha"/>
<feOffset dy="2"/>
<feGaussianBlur stdDeviation="2"/>
<feComposite in2="hardAlpha" operator="out"/>
<feColorMatrix type="matrix" values="0 0 0 0 0 0 0 0 0 0 0 0 0 0 0 0 0 0 0.3 0"/>
<feBlend mode="normal" in2="BackgroundImageFix" result="effect1_dropShadow_1887_17693"/>
<feBlend mode="normal" in="SourceGraphic" in2="effect1_dropShadow_1887_17693" result="shape"/>
</filter>
<filter id="filter10_d_1887_17693" x="211.148" y="141.535" width="37.7305" height="17.625" filterUnits="userSpaceOnUse" color-interpolation-filters="sRGB">
<feFlood flood-opacity="0" result="BackgroundImageFix"/>
<feColorMatrix in="SourceAlpha" type="matrix" values="0 0 0 0 0 0 0 0 0 0 0 0 0 0 0 0 0 0 127 0" result="hardAlpha"/>
<feOffset dy="2"/>
<feGaussianBlur stdDeviation="2"/>
<feComposite in2="hardAlpha" operator="out"/>
<feColorMatrix type="matrix" values="0 0 0 0 0 0 0 0 0 0 0 0 0 0 0 0 0 0 0.3 0"/>
<feBlend mode="normal" in2="BackgroundImageFix" result="effect1_dropShadow_1887_17693"/>
<feBlend mode="normal" in="SourceGraphic" in2="effect1_dropShadow_1887_17693" result="shape"/>
</filter>
<filter id="filter11_d_1887_17693" x="269.105" y="141.535" width="37.2031" height="17.4648" filterUnits="userSpaceOnUse" color-interpolation-filters="sRGB">
<feFlood flood-opacity="0" result="BackgroundImageFix"/>
<feColorMatrix in="SourceAlpha" type="matrix" values="0 0 0 0 0 0 0 0 0 0 0 0 0 0 0 0 0 0 127 0" result="hardAlpha"/>
<feOffset dy="2"/>
<feGaussianBlur stdDeviation="2"/>
<feComposite in2="hardAlpha" operator="out"/>
<feColorMatrix type="matrix" values="0 0 0 0 0 0 0 0 0 0 0 0 0 0 0 0 0 0 0.3 0"/>
<feBlend mode="normal" in2="BackgroundImageFix" result="effect1_dropShadow_1887_17693"/>
<feBlend mode="normal" in="SourceGraphic" in2="effect1_dropShadow_1887_17693" result="shape"/>
</filter>
<filter id="filter12_d_1887_17693" x="325.816" y="141.535" width="37.9219" height="17.4648" filterUnits="userSpaceOnUse" color-interpolation-filters="sRGB">
<feFlood flood-opacity="0" result="BackgroundImageFix"/>
<feColorMatrix in="SourceAlpha" type="matrix" values="0 0 0 0 0 0 0 0 0 0 0 0 0 0 0 0 0 0 127 0" result="hardAlpha"/>
<feOffset dy="2"/>
<feGaussianBlur stdDeviation="2"/>
<feComposite in2="hardAlpha" operator="out"/>
<feColorMatrix type="matrix" values="0 0 0 0 0 0 0 0 0 0 0 0 0 0 0 0 0 0 0.3 0"/>
<feBlend mode="normal" in2="BackgroundImageFix" result="effect1_dropShadow_1887_17693"/>
<feBlend mode="normal" in="SourceGraphic" in2="effect1_dropShadow_1887_17693" result="shape"/>
</filter>
<filter id="filter13_d_1887_17693" x="389.664" y="141.535" width="25" height="17.4648" filterUnits="userSpaceOnUse" color-interpolation-filters="sRGB">
<feFlood flood-opacity="0" result="BackgroundImageFix"/>
<feColorMatrix in="SourceAlpha" type="matrix" values="0 0 0 0 0 0 0 0 0 0 0 0 0 0 0 0 0 0 127 0" result="hardAlpha"/>
<feOffset dy="2"/>
<feGaussianBlur stdDeviation="2"/>
<feComposite in2="hardAlpha" operator="out"/>
<feColorMatrix type="matrix" values="0 0 0 0 0 0 0 0 0 0 0 0 0 0 0 0 0 0 0.3 0"/>
<feBlend mode="normal" in2="BackgroundImageFix" result="effect1_dropShadow_1887_17693"/>
<feBlend mode="normal" in="SourceGraphic" in2="effect1_dropShadow_1887_17693" result="shape"/>
</filter>
<filter id="filter14_d_1887_17693" x="45.3633" y="251.535" width="24.7305" height="17.625" filterUnits="userSpaceOnUse" color-interpolation-filters="sRGB">
<feFlood flood-opacity="0" result="BackgroundImageFix"/>
<feColorMatrix in="SourceAlpha" type="matrix" values="0 0 0 0 0 0 0 0 0 0 0 0 0 0 0 0 0 0 127 0" result="hardAlpha"/>
<feOffset dy="2"/>
<feGaussianBlur stdDeviation="2"/>
<feComposite in2="hardAlpha" operator="out"/>
<feColorMatrix type="matrix" values="0 0 0 0 0 0 0 0 0 0 0 0 0 0 0 0 0 0 0.3 0"/>
<feBlend mode="normal" in2="BackgroundImageFix" result="effect1_dropShadow_1887_17693"/>
<feBlend mode="normal" in="SourceGraphic" in2="effect1_dropShadow_1887_17693" result="shape"/>
</filter>
<filter id="filter15_d_1887_17693" x="96.0234" y="251.535" width="38" height="17.4648" filterUnits="userSpaceOnUse" color-interpolation-filters="sRGB">
<feFlood flood-opacity="0" result="BackgroundImageFix"/>
<feColorMatrix in="SourceAlpha" type="matrix" values="0 0 0 0 0 0 0 0 0 0 0 0 0 0 0 0 0 0 127 0" result="hardAlpha"/>
<feOffset dy="2"/>
<feGaussianBlur stdDeviation="2"/>
<feComposite in2="hardAlpha" operator="out"/>
<feColorMatrix type="matrix" values="0 0 0 0 0 0 0 0 0 0 0 0 0 0 0 0 0 0 0.3 0"/>
<feBlend mode="normal" in2="BackgroundImageFix" result="effect1_dropShadow_1887_17693"/>
<feBlend mode="normal" in="SourceGraphic" in2="effect1_dropShadow_1887_17693" result="shape"/>
</filter>
<filter id="filter16_d_1887_17693" x="153.527" y="251.535" width="37.9219" height="17.4648" filterUnits="userSpaceOnUse" color-interpolation-filters="sRGB">
<feFlood flood-opacity="0" result="BackgroundImageFix"/>
<feColorMatrix in="SourceAlpha" type="matrix" values="0 0 0 0 0 0 0 0 0 0 0 0 0 0 0 0 0 0 127 0" result="hardAlpha"/>
<feOffset dy="2"/>
<feGaussianBlur stdDeviation="2"/>
<feComposite in2="hardAlpha" operator="out"/>
<feColorMatrix type="matrix" values="0 0 0 0 0 0 0 0 0 0 0 0 0 0 0 0 0 0 0.3 0"/>
<feBlend mode="normal" in2="BackgroundImageFix" result="effect1_dropShadow_1887_17693"/>
<feBlend mode="normal" in="SourceGraphic" in2="effect1_dropShadow_1887_17693" result="shape"/>
</filter>
<filter id="filter17_d_1887_17693" x="211.676" y="251.535" width="37.2031" height="17.4648" filterUnits="userSpaceOnUse" color-interpolation-filters="sRGB">
<feFlood flood-opacity="0" result="BackgroundImageFix"/>
<feColorMatrix in="SourceAlpha" type="matrix" values="0 0 0 0 0 0 0 0 0 0 0 0 0 0 0 0 0 0 127 0" result="hardAlpha"/>
<feOffset dy="2"/>
<feGaussianBlur stdDeviation="2"/>
<feComposite in2="hardAlpha" operator="out"/>
<feColorMatrix type="matrix" values="0 0 0 0 0 0 0 0 0 0 0 0 0 0 0 0 0 0 0.3 0"/>
<feBlend mode="normal" in2="BackgroundImageFix" result="effect1_dropShadow_1887_17693"/>
<feBlend mode="normal" in="SourceGraphic" in2="effect1_dropShadow_1887_17693" result="shape"/>
</filter>
<filter id="filter18_d_1887_17693" x="268.387" y="251.535" width="37.9219" height="17.4648" filterUnits="userSpaceOnUse" color-interpolation-filters="sRGB">
<feFlood flood-opacity="0" result="BackgroundImageFix"/>
<feColorMatrix in="SourceAlpha" type="matrix" values="0 0 0 0 0 0 0 0 0 0 0 0 0 0 0 0 0 0 127 0" result="hardAlpha"/>
<feOffset dy="2"/>
<feGaussianBlur stdDeviation="2"/>
<feComposite in2="hardAlpha" operator="out"/>
<feColorMatrix type="matrix" values="0 0 0 0 0 0 0 0 0 0 0 0 0 0 0 0 0 0 0.3 0"/>
<feBlend mode="normal" in2="BackgroundImageFix" result="effect1_dropShadow_1887_17693"/>
<feBlend mode="normal" in="SourceGraphic" in2="effect1_dropShadow_1887_17693" result="shape"/>
</filter>
<filter id="filter19_d_1887_17693" x="325.742" y="251.535" width="37.9961" height="17.4648" filterUnits="userSpaceOnUse" color-interpolation-filters="sRGB">
<feFlood flood-opacity="0" result="BackgroundImageFix"/>
<feColorMatrix in="SourceAlpha" type="matrix" values="0 0 0 0 0 0 0 0 0 0 0 0 0 0 0 0 0 0 127 0" result="hardAlpha"/>
<feOffset dy="2"/>
<feGaussianBlur stdDeviation="2"/>
<feComposite in2="hardAlpha" operator="out"/>
<feColorMatrix type="matrix" values="0 0 0 0 0 0 0 0 0 0 0 0 0 0 0 0 0 0 0.3 0"/>
<feBlend mode="normal" in2="BackgroundImageFix" result="effect1_dropShadow_1887_17693"/>
<feBlend mode="normal" in="SourceGraphic" in2="effect1_dropShadow_1887_17693" result="shape"/>
</filter>
<filter id="filter20_d_1887_17693" x="389.934" y="251.535" width="24.7305" height="17.625" filterUnits="userSpaceOnUse" color-interpolation-filters="sRGB">
<feFlood flood-opacity="0" result="BackgroundImageFix"/>
<feColorMatrix in="SourceAlpha" type="matrix" values="0 0 0 0 0 0 0 0 0 0 0 0 0 0 0 0 0 0 127 0" result="hardAlpha"/>
<feOffset dy="2"/>
<feGaussianBlur stdDeviation="2"/>
<feComposite in2="hardAlpha" operator="out"/>
<feColorMatrix type="matrix" values="0 0 0 0 0 0 0 0 0 0 0 0 0 0 0 0 0 0 0.3 0"/>
<feBlend mode="normal" in2="BackgroundImageFix" result="effect1_dropShadow_1887_17693"/>
<feBlend mode="normal" in="SourceGraphic" in2="effect1_dropShadow_1887_17693" result="shape"/>
</filter>
</defs>
</svg>
