<svg width="460" height="324" viewBox="0 0 460 324" fill="none" xmlns="http://www.w3.org/2000/svg">
<rect width="460" height="324" rx="10" fill="#0D131C"/>
<g clip-path="url(#clip0_1881_17226)">
<circle cx="223.5" cy="19.25" r="5" fill="#7C8499"/>
<circle cx="262.5" cy="19.25" r="5" fill="#7C8499"/>
<circle cx="301.5" cy="19.25" r="5" fill="#7C8499"/>
<circle cx="340.5" cy="19.25" r="5" fill="#7C8499"/>
<circle cx="379.5" cy="19.25" r="5" fill="#7C8499"/>
<circle cx="418.5" cy="19.25" r="5" fill="#7C8499"/>
<circle cx="204" cy="43.75" r="5" fill="#7C8499"/>
<circle cx="243" cy="43.75" r="5" fill="#7C8499"/>
<circle cx="282" cy="43.75" r="5" fill="#7C8499"/>
<circle cx="321" cy="43.75" r="5" fill="#7C8499"/>
<circle cx="360" cy="43.75" r="5" fill="#7C8499"/>
<circle cx="399" cy="43.75" r="5" fill="#7C8499"/>
<circle cx="438" cy="43.75" r="5" fill="#7C8499"/>
<circle cx="184.5" cy="68.25" r="5" fill="#7C8499"/>
<circle cx="223.5" cy="68.25" r="5" fill="#7C8499"/>
<circle cx="262.5" cy="68.25" r="5" fill="#7C8499"/>
<circle cx="301.5" cy="68.25" r="5" fill="#7C8499"/>
<circle cx="340.5" cy="68.25" r="5" fill="#7C8499"/>
<circle cx="379.5" cy="68.25" r="5" fill="#7C8499"/>
<circle cx="418.5" cy="68.25" r="5" fill="#7C8499"/>
<circle cx="165" cy="92.75" r="5" fill="#7C8499"/>
<circle cx="204" cy="92.75" r="5" fill="#7C8499"/>
<circle cx="243" cy="92.75" r="5" fill="#7C8499"/>
<circle cx="282" cy="92.75" r="5" fill="#7C8499"/>
<circle cx="321" cy="92.75" r="5" fill="#7C8499"/>
<circle cx="360" cy="92.75" r="5" fill="#7C8499"/>
<circle cx="399" cy="92.75" r="5" fill="#7C8499"/>
<circle cx="438" cy="92.75" r="5" fill="#7C8499"/>
<circle cx="145.5" cy="117.25" r="5" fill="#7C8499"/>
<circle cx="184.5" cy="117.25" r="5" fill="#7C8499"/>
<circle cx="223.5" cy="117.25" r="5" fill="#7C8499"/>
<circle cx="262.5" cy="117.25" r="5" fill="#7C8499"/>
<circle cx="301.5" cy="117.25" r="5" fill="#7C8499"/>
<circle cx="340.5" cy="117.25" r="5" fill="#7C8499"/>
<circle cx="379.5" cy="117.25" r="5" fill="#7C8499"/>
<circle cx="418.5" cy="117.25" r="5" fill="#7C8499"/>
<circle cx="126" cy="141.75" r="5" fill="#7C8499"/>
<circle cx="165" cy="141.75" r="5" fill="#7C8499"/>
<circle cx="204" cy="141.75" r="5" fill="#7C8499"/>
<circle cx="243" cy="141.75" r="5" fill="#7C8499"/>
<circle cx="282" cy="141.75" r="5" fill="#7C8499"/>
<circle cx="321" cy="141.75" r="5" fill="#7C8499"/>
<circle cx="360" cy="141.75" r="5" fill="#7C8499"/>
<circle cx="399" cy="141.75" r="5" fill="#7C8499"/>
<circle cx="438" cy="141.75" r="5" fill="#7C8499"/>
<circle cx="106.5" cy="166.25" r="5" fill="#7C8499"/>
<circle cx="145.5" cy="166.25" r="5" fill="#7C8499"/>
<circle cx="184.5" cy="166.25" r="5" fill="#7C8499"/>
<circle cx="223.5" cy="166.25" r="5" fill="#7C8499"/>
<circle cx="262.5" cy="166.25" r="5" fill="#7C8499"/>
<circle cx="301.5" cy="166.25" r="5" fill="#7C8499"/>
<circle cx="340.5" cy="166.25" r="5" fill="#7C8499"/>
<circle cx="379.5" cy="166.25" r="5" fill="#7C8499"/>
<circle cx="418.5" cy="166.25" r="5" fill="#7C8499"/>
<circle cx="87" cy="190.75" r="5" fill="#7C8499"/>
<circle cx="126" cy="190.75" r="5" fill="#7C8499"/>
<circle cx="165" cy="190.75" r="5" fill="#7C8499"/>
<circle cx="204" cy="190.75" r="5" fill="#7C8499"/>
<circle cx="243" cy="190.75" r="5" fill="#7C8499"/>
<circle cx="282" cy="190.75" r="5" fill="#7C8499"/>
<circle cx="321" cy="190.75" r="5" fill="#7C8499"/>
<circle cx="360" cy="190.75" r="5" fill="#7C8499"/>
<circle cx="399" cy="190.75" r="5" fill="#7C8499"/>
<circle cx="438" cy="190.75" r="5" fill="#7C8499"/>
<circle cx="67.5" cy="215.25" r="5" fill="#7C8499"/>
<circle cx="106.5" cy="215.25" r="5" fill="#7C8499"/>
<circle cx="145.5" cy="215.25" r="5" fill="#7C8499"/>
<circle cx="184.5" cy="215.25" r="5" fill="#7C8499"/>
<circle cx="223.5" cy="215.25" r="5" fill="#7C8499"/>
<circle cx="262.5" cy="215.25" r="5" fill="#7C8499"/>
<circle cx="301.5" cy="215.25" r="5" fill="#7C8499"/>
<circle cx="340.5" cy="215.25" r="5" fill="#7C8499"/>
<circle cx="379.5" cy="215.25" r="5" fill="#7C8499"/>
<circle cx="418.5" cy="215.25" r="5" fill="#7C8499"/>
<circle cx="48" cy="239.75" r="5" fill="#7C8499"/>
<circle cx="87" cy="239.75" r="5" fill="#7C8499"/>
<circle cx="126" cy="239.75" r="5" fill="#7C8499"/>
<circle cx="165" cy="239.75" r="5" fill="#7C8499"/>
<circle cx="204" cy="239.75" r="5" fill="#7C8499"/>
<circle cx="243" cy="239.75" r="5" fill="#7C8499"/>
<circle cx="282" cy="239.75" r="5" fill="#7C8499"/>
<circle cx="321" cy="239.75" r="5" fill="#7C8499"/>
<circle cx="360" cy="239.75" r="5" fill="#7C8499"/>
<circle cx="399" cy="239.75" r="5" fill="#7C8499"/>
<circle cx="438" cy="239.75" r="5" fill="#7C8499"/>
<circle cx="28.5" cy="264.25" r="5" fill="#7C8499"/>
<circle cx="67.5" cy="264.25" r="5" fill="#7C8499"/>
<circle cx="106.5" cy="264.25" r="5" fill="#7C8499"/>
<circle cx="145.5" cy="264.25" r="5" fill="#7C8499"/>
<circle cx="184.5" cy="264.25" r="5" fill="#7C8499"/>
<circle cx="223.5" cy="264.25" r="5" fill="#7C8499"/>
<circle cx="262.5" cy="264.25" r="5" fill="#7C8499"/>
<circle cx="301.5" cy="264.25" r="5" fill="#7C8499"/>
<circle cx="340.5" cy="264.25" r="5" fill="#7C8499"/>
<circle cx="379.5" cy="264.25" r="5" fill="#7C8499"/>
<circle cx="418.5" cy="264.25" r="5" fill="#7C8499"/>
<path d="M171 262.5C171 266.09 168.09 269 164.5 269C160.91 269 158 266.09 158 262.5C158 258.91 160.91 256 164.5 256C168.09 256 171 258.91 171 262.5Z" fill="#2283F6"/>
<path d="M249 262.5C249 266.09 246.09 269 242.5 269C238.91 269 236 266.09 236 262.5C236 258.91 238.91 256 242.5 256C246.09 256 249 258.91 249 262.5Z" fill="#2283F6"/>
<rect x="30.5" y="278" width="35" height="26" rx="4" fill="#161F2C"/>
<g filter="url(#filter0_d_1881_17226)">
<path d="M35.6411 293.912L38.2119 293.588C38.2796 293.948 38.3939 294.201 38.5547 294.35C38.7155 294.498 38.9123 294.572 39.145 294.572C39.5597 294.572 39.8835 294.362 40.1162 293.943C40.2855 293.634 40.4124 292.981 40.4971 291.982C40.1882 292.299 39.8708 292.532 39.5449 292.68C39.2191 292.828 38.8424 292.902 38.415 292.902C37.5814 292.902 36.8768 292.606 36.3013 292.014C35.73 291.421 35.4443 290.672 35.4443 289.767C35.4443 289.149 35.5903 288.586 35.8823 288.078C36.1743 287.57 36.5763 287.187 37.0884 286.929C37.6004 286.667 38.2437 286.536 39.0181 286.536C39.9491 286.536 40.696 286.696 41.2588 287.018C41.8216 287.335 42.2702 287.843 42.6045 288.542C42.943 289.236 43.1123 290.154 43.1123 291.296C43.1123 292.976 42.759 294.208 42.0522 294.991C41.3455 295.769 40.3659 296.159 39.1133 296.159C38.3727 296.159 37.7887 296.074 37.3613 295.905C36.9339 295.731 36.5785 295.479 36.2949 295.149C36.0114 294.819 35.7935 294.407 35.6411 293.912ZM40.4019 289.76C40.4019 289.257 40.2749 288.863 40.021 288.58C39.7671 288.292 39.4582 288.148 39.0942 288.148C38.7515 288.148 38.4658 288.277 38.2373 288.535C38.013 288.793 37.9009 289.181 37.9009 289.697C37.9009 290.217 38.0173 290.615 38.25 290.89C38.487 291.165 38.7811 291.303 39.1323 291.303C39.4963 291.303 39.7988 291.169 40.04 290.903C40.2812 290.636 40.4019 290.255 40.4019 289.76ZM44.312 293.912L46.8828 293.588C46.9505 293.948 47.0648 294.201 47.2256 294.35C47.3864 294.498 47.5832 294.572 47.8159 294.572C48.2306 294.572 48.5544 294.362 48.7871 293.943C48.9564 293.634 49.0833 292.981 49.168 291.982C48.859 292.299 48.5417 292.532 48.2158 292.68C47.89 292.828 47.5133 292.902 47.0859 292.902C46.2523 292.902 45.5477 292.606 44.9722 292.014C44.4009 291.421 44.1152 290.672 44.1152 289.767C44.1152 289.149 44.2612 288.586 44.5532 288.078C44.8452 287.57 45.2472 287.187 45.7593 286.929C46.2713 286.667 46.9146 286.536 47.689 286.536C48.62 286.536 49.3669 286.696 49.9297 287.018C50.4925 287.335 50.9411 287.843 51.2754 288.542C51.6139 289.236 51.7832 290.154 51.7832 291.296C51.7832 292.976 51.4299 294.208 50.7231 294.991C50.0164 295.769 49.0368 296.159 47.7842 296.159C47.0436 296.159 46.4596 296.074 46.0322 295.905C45.6048 295.731 45.2493 295.479 44.9658 295.149C44.6823 294.819 44.4644 294.407 44.312 293.912ZM49.0728 289.76C49.0728 289.257 48.9458 288.863 48.6919 288.58C48.438 288.292 48.1291 288.148 47.7651 288.148C47.4224 288.148 47.1367 288.277 46.9082 288.535C46.6839 288.793 46.5718 289.181 46.5718 289.697C46.5718 290.217 46.6882 290.615 46.9209 290.89C47.1579 291.165 47.452 291.303 47.8032 291.303C48.1672 291.303 48.4697 291.169 48.7109 290.903C48.9521 290.636 49.0728 290.255 49.0728 289.76ZM52.5322 289.259H55.5981L56.6709 291.138L57.915 289.259H60.7651L58.4673 292.471L60.9302 296H57.915L56.6709 293.829L55.2046 296H52.4053L54.8555 292.471L52.5322 289.259Z" fill="#EC23F0"/>
</g>
<rect x="69.5" y="278" width="35" height="26" rx="4" fill="#161F2C"/>
<g filter="url(#filter1_d_1881_17226)">
<path d="M82.0107 288.789L79.4399 289.106C79.3722 288.747 79.258 288.493 79.0972 288.345C78.9406 288.197 78.7459 288.123 78.5132 288.123C78.0942 288.123 77.7684 288.334 77.5356 288.757C77.3664 289.062 77.2415 289.714 77.1611 290.712C77.4701 290.399 77.7874 290.169 78.1133 290.021C78.4391 289.868 78.8158 289.792 79.2432 289.792C80.0726 289.792 80.7729 290.088 81.3442 290.681C81.9198 291.273 82.2075 292.024 82.2075 292.934C82.2075 293.548 82.0615 294.108 81.7695 294.616C81.4818 295.124 81.0798 295.509 80.5635 295.771C80.0514 296.03 79.4082 296.159 78.6338 296.159C77.7028 296.159 76.9559 296 76.3931 295.683C75.8302 295.365 75.3796 294.86 75.041 294.166C74.7067 293.467 74.5396 292.545 74.5396 291.398C74.5396 289.718 74.8929 288.489 75.5996 287.71C76.3063 286.927 77.286 286.536 78.5386 286.536C79.2791 286.536 79.8631 286.622 80.2905 286.796C80.7222 286.965 81.0798 287.215 81.3633 287.545C81.6468 287.875 81.8626 288.29 82.0107 288.789ZM77.25 292.934C77.25 293.438 77.377 293.833 77.6309 294.121C77.8848 294.405 78.1958 294.546 78.564 294.546C78.9025 294.546 79.186 294.417 79.4146 294.159C79.6431 293.901 79.7573 293.516 79.7573 293.004C79.7573 292.479 79.6388 292.079 79.4019 291.804C79.1649 291.529 78.8708 291.392 78.5195 291.392C78.1598 291.392 77.8573 291.525 77.6118 291.792C77.3706 292.058 77.25 292.439 77.25 292.934ZM90.6816 288.789L88.1108 289.106C88.0431 288.747 87.9289 288.493 87.7681 288.345C87.6115 288.197 87.4168 288.123 87.1841 288.123C86.7651 288.123 86.4393 288.334 86.2065 288.757C86.0373 289.062 85.9124 289.714 85.832 290.712C86.141 290.399 86.4583 290.169 86.7842 290.021C87.11 289.868 87.4867 289.792 87.9141 289.792C88.7435 289.792 89.4438 290.088 90.0151 290.681C90.5907 291.273 90.8784 292.024 90.8784 292.934C90.8784 293.548 90.7324 294.108 90.4404 294.616C90.1527 295.124 89.7507 295.509 89.2344 295.771C88.7223 296.03 88.0791 296.159 87.3047 296.159C86.3737 296.159 85.6268 296 85.064 295.683C84.5011 295.365 84.0505 294.86 83.7119 294.166C83.3776 293.467 83.2104 292.545 83.2104 291.398C83.2104 289.718 83.5638 288.489 84.2705 287.71C84.9772 286.927 85.9569 286.536 87.2095 286.536C87.95 286.536 88.534 286.622 88.9614 286.796C89.3931 286.965 89.7507 287.215 90.0342 287.545C90.3177 287.875 90.5335 288.29 90.6816 288.789ZM85.9209 292.934C85.9209 293.438 86.0479 293.833 86.3018 294.121C86.5557 294.405 86.8667 294.546 87.2349 294.546C87.5734 294.546 87.8569 294.417 88.0854 294.159C88.314 293.901 88.4282 293.516 88.4282 293.004C88.4282 292.479 88.3097 292.079 88.0728 291.804C87.8358 291.529 87.5417 291.392 87.1904 291.392C86.8307 291.392 86.5282 291.525 86.2827 291.792C86.0415 292.058 85.9209 292.439 85.9209 292.934ZM91.5322 289.259H94.5981L95.6709 291.138L96.915 289.259H99.7651L97.4673 292.471L99.9302 296H96.915L95.6709 293.829L94.2046 296H91.4053L93.8555 292.471L91.5322 289.259Z" fill="#FF2775"/>
</g>
<rect x="108.5" y="278" width="35" height="26" rx="4" fill="#161F2C"/>
<g filter="url(#filter2_d_1881_17226)">
<path d="M116.034 289.386L113.59 288.948C113.793 288.169 114.183 287.572 114.758 287.158C115.338 286.743 116.157 286.536 117.215 286.536C118.429 286.536 119.307 286.762 119.849 287.215C120.391 287.668 120.662 288.237 120.662 288.922C120.662 289.324 120.552 289.688 120.332 290.014C120.111 290.34 119.779 290.626 119.335 290.871C119.695 290.96 119.97 291.064 120.16 291.182C120.469 291.373 120.708 291.624 120.877 291.938C121.051 292.246 121.138 292.617 121.138 293.048C121.138 293.59 120.996 294.111 120.712 294.61C120.429 295.105 120.021 295.488 119.487 295.759C118.954 296.025 118.254 296.159 117.386 296.159C116.54 296.159 115.871 296.059 115.38 295.86C114.894 295.661 114.492 295.372 114.174 294.991C113.861 294.606 113.62 294.123 113.451 293.543L116.034 293.201C116.136 293.721 116.292 294.083 116.504 294.286C116.72 294.485 116.993 294.584 117.323 294.584C117.67 294.584 117.958 294.458 118.186 294.204C118.419 293.95 118.535 293.611 118.535 293.188C118.535 292.756 118.423 292.422 118.199 292.185C117.979 291.948 117.678 291.83 117.297 291.83C117.094 291.83 116.815 291.88 116.459 291.982L116.593 290.135C116.737 290.156 116.849 290.167 116.929 290.167C117.268 290.167 117.549 290.059 117.773 289.843C118.002 289.627 118.116 289.371 118.116 289.075C118.116 288.791 118.032 288.565 117.862 288.396C117.693 288.226 117.46 288.142 117.164 288.142C116.859 288.142 116.612 288.235 116.421 288.421C116.231 288.603 116.102 288.924 116.034 289.386ZM124.705 289.386L122.261 288.948C122.464 288.169 122.854 287.572 123.429 287.158C124.009 286.743 124.828 286.536 125.886 286.536C127.1 286.536 127.978 286.762 128.52 287.215C129.062 287.668 129.333 288.237 129.333 288.922C129.333 289.324 129.222 289.688 129.002 290.014C128.782 290.34 128.45 290.626 128.006 290.871C128.366 290.96 128.641 291.064 128.831 291.182C129.14 291.373 129.379 291.624 129.548 291.938C129.722 292.246 129.809 292.617 129.809 293.048C129.809 293.59 129.667 294.111 129.383 294.61C129.1 295.105 128.691 295.488 128.158 295.759C127.625 296.025 126.925 296.159 126.057 296.159C125.211 296.159 124.542 296.059 124.051 295.86C123.565 295.661 123.163 295.372 122.845 294.991C122.532 294.606 122.291 294.123 122.122 293.543L124.705 293.201C124.807 293.721 124.963 294.083 125.175 294.286C125.391 294.485 125.664 294.584 125.994 294.584C126.341 294.584 126.628 294.458 126.857 294.204C127.09 293.95 127.206 293.611 127.206 293.188C127.206 292.756 127.094 292.422 126.87 292.185C126.65 291.948 126.349 291.83 125.968 291.83C125.765 291.83 125.486 291.88 125.13 291.982L125.264 290.135C125.408 290.156 125.52 290.167 125.6 290.167C125.939 290.167 126.22 290.059 126.444 289.843C126.673 289.627 126.787 289.371 126.787 289.075C126.787 288.791 126.702 288.565 126.533 288.396C126.364 288.226 126.131 288.142 125.835 288.142C125.53 288.142 125.283 288.235 125.092 288.421C124.902 288.603 124.773 288.924 124.705 289.386ZM130.532 289.259H133.598L134.671 291.138L135.915 289.259H138.765L136.467 292.471L138.93 296H135.915L134.671 293.829L133.205 296H130.405L132.855 292.471L130.532 289.259Z" fill="#F02323"/>
</g>
<rect x="148" y="278.5" width="34" height="25" rx="3.5" fill="#161F2C"/>
<g filter="url(#filter3_d_1881_17226)">
<path d="M158.386 286.536V296H155.771V289.798C155.347 290.12 154.937 290.38 154.539 290.579C154.146 290.778 153.65 290.968 153.054 291.15V289.03C153.934 288.747 154.617 288.406 155.104 288.008C155.591 287.611 155.972 287.12 156.247 286.536H158.386ZM167.057 286.536V296H164.441V289.798C164.018 290.12 163.608 290.38 163.21 290.579C162.816 290.778 162.321 290.968 161.725 291.15V289.03C162.605 288.747 163.288 288.406 163.775 288.008C164.262 287.611 164.642 287.12 164.917 286.536H167.057ZM169.532 289.259H172.598L173.671 291.138L174.915 289.259H177.765L175.467 292.471L177.93 296H174.915L173.671 293.829L172.205 296H169.405L171.855 292.471L169.532 289.259Z" fill="#F05423"/>
</g>
<rect x="148" y="278.5" width="34" height="25" rx="3.5" stroke="#2283F6"/>
<rect x="186.5" y="278" width="35" height="26" rx="4" fill="#161F2C"/>
<g filter="url(#filter4_d_1881_17226)">
<path d="M200.306 294.261H195.596V292.134L200.306 286.536H202.559V292.255H203.727V294.261H202.559V296H200.306V294.261ZM200.306 292.255V289.329L197.817 292.255H200.306ZM204.197 289.259H207.263L208.335 291.138L209.58 289.259H212.43L210.132 292.471L212.595 296H209.58L208.335 293.829L206.869 296H204.07L206.52 292.471L204.197 289.259Z" fill="#F06D23"/>
</g>
<rect x="226" y="278.5" width="34" height="25" rx="3.5" fill="#161F2C"/>
<g filter="url(#filter5_d_1881_17226)">
<path d="M242.429 296H234.672C234.761 295.234 235.029 294.515 235.478 293.842C235.931 293.165 236.777 292.367 238.017 291.449C238.775 290.886 239.259 290.458 239.471 290.167C239.682 289.875 239.788 289.597 239.788 289.335C239.788 289.051 239.682 288.81 239.471 288.611C239.263 288.408 239.001 288.307 238.684 288.307C238.354 288.307 238.083 288.41 237.871 288.618C237.664 288.825 237.524 289.191 237.452 289.716L234.862 289.506C234.964 288.778 235.15 288.211 235.421 287.805C235.692 287.395 236.073 287.082 236.563 286.866C237.059 286.646 237.742 286.536 238.614 286.536C239.524 286.536 240.23 286.639 240.734 286.847C241.242 287.054 241.639 287.374 241.927 287.805C242.219 288.233 242.365 288.713 242.365 289.246C242.365 289.813 242.198 290.355 241.864 290.871C241.534 291.387 240.931 291.954 240.055 292.572C239.534 292.932 239.185 293.184 239.007 293.328C238.834 293.472 238.629 293.66 238.392 293.893H242.429V296ZM243.197 289.259H246.263L247.335 291.138L248.58 289.259H251.43L249.132 292.471L251.595 296H248.58L247.335 293.829L245.869 296H243.07L245.52 292.471L243.197 289.259Z" fill="#F07923"/>
</g>
<rect x="226" y="278.5" width="34" height="25" rx="3.5" stroke="#2283F6"/>
<g clip-path="url(#clip1_1881_17226)">
<rect x="264.5" y="278" width="35" height="26" rx="4" fill="#161F2C"/>
<g filter="url(#filter6_d_1881_17226)">
<path d="M273.221 286.536V296H270.606V289.798C270.183 290.12 269.772 290.38 269.375 290.579C268.981 290.778 268.486 290.968 267.889 291.15V289.03C268.769 288.747 269.453 288.406 269.939 288.008C270.426 287.611 270.807 287.12 271.082 286.536H273.221ZM276.287 293.41H279.048V296H276.287V293.41ZM286.221 286.536V296H283.606V289.798C283.183 290.12 282.772 290.38 282.375 290.579C281.981 290.778 281.486 290.968 280.889 291.15V289.03C281.769 288.747 282.453 288.406 282.939 288.008C283.426 287.611 283.807 287.12 284.082 286.536H286.221ZM288.697 289.259H291.763L292.835 291.138L294.08 289.259H296.93L294.632 292.471L297.095 296H294.08L292.835 293.829L291.369 296H288.57L291.02 292.471L288.697 289.259Z" fill="#F08523"/>
</g>
</g>
<g clip-path="url(#clip2_1881_17226)">
<rect x="303.5" y="278" width="35" height="26" rx="4" fill="#161F2C"/>
<g filter="url(#filter7_d_1881_17226)">
<path d="M306.362 291.309C306.362 289.54 306.68 288.302 307.314 287.596C307.953 286.889 308.925 286.536 310.228 286.536C310.854 286.536 311.368 286.614 311.771 286.771C312.173 286.923 312.5 287.124 312.754 287.374C313.008 287.619 313.207 287.879 313.351 288.154C313.499 288.425 313.618 288.743 313.707 289.106C313.88 289.8 313.967 290.524 313.967 291.277C313.967 292.966 313.681 294.201 313.11 294.984C312.539 295.767 311.555 296.159 310.158 296.159C309.375 296.159 308.743 296.034 308.26 295.784C307.778 295.535 307.382 295.168 307.073 294.686C306.849 294.343 306.673 293.876 306.546 293.283C306.424 292.687 306.362 292.028 306.362 291.309ZM308.927 291.315C308.927 292.5 309.03 293.311 309.238 293.747C309.449 294.178 309.754 294.394 310.152 294.394C310.414 294.394 310.641 294.303 310.831 294.121C311.026 293.935 311.167 293.643 311.256 293.245C311.349 292.847 311.396 292.227 311.396 291.385C311.396 290.15 311.29 289.32 311.079 288.897C310.871 288.47 310.558 288.256 310.139 288.256C309.712 288.256 309.403 288.474 309.212 288.91C309.022 289.341 308.927 290.143 308.927 291.315ZM315.287 293.41H318.048V296H315.287V293.41ZM326.846 288.789L324.275 289.106C324.208 288.747 324.093 288.493 323.933 288.345C323.776 288.197 323.581 288.123 323.349 288.123C322.93 288.123 322.604 288.334 322.371 288.757C322.202 289.062 322.077 289.714 321.997 290.712C322.306 290.399 322.623 290.169 322.949 290.021C323.275 289.868 323.651 289.792 324.079 289.792C324.908 289.792 325.608 290.088 326.18 290.681C326.755 291.273 327.043 292.024 327.043 292.934C327.043 293.548 326.897 294.108 326.605 294.616C326.317 295.124 325.915 295.509 325.399 295.771C324.887 296.03 324.244 296.159 323.469 296.159C322.538 296.159 321.791 296 321.229 295.683C320.666 295.365 320.215 294.86 319.876 294.166C319.542 293.467 319.375 292.545 319.375 291.398C319.375 289.718 319.728 288.489 320.435 287.71C321.142 286.927 322.121 286.536 323.374 286.536C324.115 286.536 324.699 286.622 325.126 286.796C325.558 286.965 325.915 287.215 326.199 287.545C326.482 287.875 326.698 288.29 326.846 288.789ZM322.085 292.934C322.085 293.438 322.212 293.833 322.466 294.121C322.72 294.405 323.031 294.546 323.399 294.546C323.738 294.546 324.021 294.417 324.25 294.159C324.479 293.901 324.593 293.516 324.593 293.004C324.593 292.479 324.474 292.079 324.237 291.804C324 291.529 323.706 291.392 323.355 291.392C322.995 291.392 322.693 291.525 322.447 291.792C322.206 292.058 322.085 292.439 322.085 292.934ZM327.697 289.259H330.763L331.835 291.138L333.08 289.259H335.93L333.632 292.471L336.095 296H333.08L331.835 293.829L330.369 296H327.57L330.02 292.471L327.697 289.259Z" fill="#F09223"/>
</g>
</g>
<g clip-path="url(#clip3_1881_17226)">
<rect x="342.5" y="278" width="35" height="26" rx="4" fill="#161F2C"/>
<g filter="url(#filter8_d_1881_17226)">
<path d="M345.362 291.309C345.362 289.54 345.68 288.302 346.314 287.596C346.953 286.889 347.925 286.536 349.228 286.536C349.854 286.536 350.368 286.614 350.771 286.771C351.173 286.923 351.5 287.124 351.754 287.374C352.008 287.619 352.207 287.879 352.351 288.154C352.499 288.425 352.618 288.743 352.707 289.106C352.88 289.8 352.967 290.524 352.967 291.277C352.967 292.966 352.681 294.201 352.11 294.984C351.539 295.767 350.555 296.159 349.158 296.159C348.375 296.159 347.743 296.034 347.26 295.784C346.778 295.535 346.382 295.168 346.073 294.686C345.849 294.343 345.673 293.876 345.546 293.283C345.424 292.687 345.362 292.028 345.362 291.309ZM347.927 291.315C347.927 292.5 348.03 293.311 348.238 293.747C348.449 294.178 348.754 294.394 349.152 294.394C349.414 294.394 349.641 294.303 349.831 294.121C350.026 293.935 350.167 293.643 350.256 293.245C350.349 292.847 350.396 292.227 350.396 291.385C350.396 290.15 350.29 289.32 350.079 288.897C349.871 288.47 349.558 288.256 349.139 288.256C348.712 288.256 348.403 288.474 348.212 288.91C348.022 289.341 347.927 290.143 347.927 291.315ZM354.287 293.41H357.048V296H354.287V293.41ZM360.87 289.386L358.426 288.948C358.629 288.169 359.018 287.572 359.594 287.158C360.174 286.743 360.992 286.536 362.05 286.536C363.265 286.536 364.143 286.762 364.685 287.215C365.226 287.668 365.497 288.237 365.497 288.922C365.497 289.324 365.387 289.688 365.167 290.014C364.947 290.34 364.615 290.626 364.17 290.871C364.53 290.96 364.805 291.064 364.996 291.182C365.305 291.373 365.544 291.624 365.713 291.938C365.886 292.246 365.973 292.617 365.973 293.048C365.973 293.59 365.831 294.111 365.548 294.61C365.264 295.105 364.856 295.488 364.323 295.759C363.79 296.025 363.089 296.159 362.222 296.159C361.375 296.159 360.707 296.059 360.216 295.86C359.729 295.661 359.327 295.372 359.01 294.991C358.697 294.606 358.455 294.123 358.286 293.543L360.87 293.201C360.971 293.721 361.128 294.083 361.339 294.286C361.555 294.485 361.828 294.584 362.158 294.584C362.505 294.584 362.793 294.458 363.021 294.204C363.254 293.95 363.371 293.611 363.371 293.188C363.371 292.756 363.258 292.422 363.034 292.185C362.814 291.948 362.514 291.83 362.133 291.83C361.93 291.83 361.65 291.88 361.295 291.982L361.428 290.135C361.572 290.156 361.684 290.167 361.765 290.167C362.103 290.167 362.385 290.059 362.609 289.843C362.837 289.627 362.952 289.371 362.952 289.075C362.952 288.791 362.867 288.565 362.698 288.396C362.528 288.226 362.296 288.142 362 288.142C361.695 288.142 361.447 288.235 361.257 288.421C361.066 288.603 360.937 288.924 360.87 289.386ZM366.697 289.259H369.763L370.835 291.138L372.08 289.259H374.93L372.632 292.471L375.095 296H372.08L370.835 293.829L369.369 296H366.57L369.02 292.471L366.697 289.259Z" fill="#F09E23"/>
</g>
</g>
<g clip-path="url(#clip4_1881_17226)">
<rect x="381.5" y="278" width="35" height="26" rx="4" fill="#161F2C"/>
<g filter="url(#filter9_d_1881_17226)">
<path d="M384.362 291.309C384.362 289.54 384.68 288.302 385.314 287.596C385.953 286.889 386.925 286.536 388.228 286.536C388.854 286.536 389.368 286.614 389.771 286.771C390.173 286.923 390.5 287.124 390.754 287.374C391.008 287.619 391.207 287.879 391.351 288.154C391.499 288.425 391.618 288.743 391.707 289.106C391.88 289.8 391.967 290.524 391.967 291.277C391.967 292.966 391.681 294.201 391.11 294.984C390.539 295.767 389.555 296.159 388.158 296.159C387.375 296.159 386.743 296.034 386.26 295.784C385.778 295.535 385.382 295.168 385.073 294.686C384.849 294.343 384.673 293.876 384.546 293.283C384.424 292.687 384.362 292.028 384.362 291.309ZM386.927 291.315C386.927 292.5 387.03 293.311 387.238 293.747C387.449 294.178 387.754 294.394 388.152 294.394C388.414 294.394 388.641 294.303 388.831 294.121C389.026 293.935 389.167 293.643 389.256 293.245C389.349 292.847 389.396 292.227 389.396 291.385C389.396 290.15 389.29 289.32 389.079 288.897C388.871 288.47 388.558 288.256 388.139 288.256C387.712 288.256 387.403 288.474 387.212 288.91C387.022 289.341 386.927 290.143 386.927 291.315ZM393.287 293.41H396.048V296H393.287V293.41ZM404.846 288.789L402.275 289.106C402.208 288.747 402.093 288.493 401.933 288.345C401.776 288.197 401.581 288.123 401.349 288.123C400.93 288.123 400.604 288.334 400.371 288.757C400.202 289.062 400.077 289.714 399.997 290.712C400.306 290.399 400.623 290.169 400.949 290.021C401.275 289.868 401.651 289.792 402.079 289.792C402.908 289.792 403.608 290.088 404.18 290.681C404.755 291.273 405.043 292.024 405.043 292.934C405.043 293.548 404.897 294.108 404.605 294.616C404.317 295.124 403.915 295.509 403.399 295.771C402.887 296.03 402.244 296.159 401.469 296.159C400.538 296.159 399.791 296 399.229 295.683C398.666 295.365 398.215 294.86 397.876 294.166C397.542 293.467 397.375 292.545 397.375 291.398C397.375 289.718 397.728 288.489 398.435 287.71C399.142 286.927 400.121 286.536 401.374 286.536C402.115 286.536 402.699 286.622 403.126 286.796C403.558 286.965 403.915 287.215 404.199 287.545C404.482 287.875 404.698 288.29 404.846 288.789ZM400.085 292.934C400.085 293.438 400.212 293.833 400.466 294.121C400.72 294.405 401.031 294.546 401.399 294.546C401.738 294.546 402.021 294.417 402.25 294.159C402.479 293.901 402.593 293.516 402.593 293.004C402.593 292.479 402.474 292.079 402.237 291.804C402 291.529 401.706 291.392 401.355 291.392C400.995 291.392 400.693 291.525 400.447 291.792C400.206 292.058 400.085 292.439 400.085 292.934ZM405.697 289.259H408.763L409.835 291.138L411.08 289.259H413.93L411.632 292.471L414.095 296H411.08L409.835 293.829L408.369 296H405.57L408.02 292.471L405.697 289.259Z" fill="#F09223"/>
</g>
</g>
<g clip-path="url(#clip5_1881_17226)">
<rect x="420.5" y="278" width="35" height="26" rx="4" fill="#161F2C"/>
<g filter="url(#filter10_d_1881_17226)">
<path d="M429.221 286.536V296H426.606V289.798C426.183 290.12 425.772 290.38 425.375 290.579C424.981 290.778 424.486 290.968 423.889 291.15V289.03C424.769 288.747 425.453 288.406 425.939 288.008C426.426 287.611 426.807 287.12 427.082 286.536H429.221ZM432.287 293.41H435.048V296H432.287V293.41ZM442.221 286.536V296H439.606V289.798C439.183 290.12 438.772 290.38 438.375 290.579C437.981 290.778 437.486 290.968 436.889 291.15V289.03C437.769 288.747 438.453 288.406 438.939 288.008C439.426 287.611 439.807 287.12 440.082 286.536H442.221ZM444.697 289.259H447.763L448.835 291.138L450.08 289.259H452.93L450.632 292.471L453.095 296H450.08L448.835 293.829L447.369 296H444.57L447.02 292.471L444.697 289.259Z" fill="#F08523"/>
</g>
</g>
</g>
<defs>
<filter id="filter0_d_1881_17226" x="31.4453" y="284.535" width="33.4844" height="17.625" filterUnits="userSpaceOnUse" color-interpolation-filters="sRGB">
<feFlood flood-opacity="0" result="BackgroundImageFix"/>
<feColorMatrix in="SourceAlpha" type="matrix" values="0 0 0 0 0 0 0 0 0 0 0 0 0 0 0 0 0 0 127 0" result="hardAlpha"/>
<feOffset dy="2"/>
<feGaussianBlur stdDeviation="2"/>
<feComposite in2="hardAlpha" operator="out"/>
<feColorMatrix type="matrix" values="0 0 0 0 0 0 0 0 0 0 0 0 0 0 0 0 0 0 0.3 0"/>
<feBlend mode="normal" in2="BackgroundImageFix" result="effect1_dropShadow_1881_17226"/>
<feBlend mode="normal" in="SourceGraphic" in2="effect1_dropShadow_1881_17226" result="shape"/>
</filter>
<filter id="filter1_d_1881_17226" x="70.5391" y="284.535" width="33.3906" height="17.625" filterUnits="userSpaceOnUse" color-interpolation-filters="sRGB">
<feFlood flood-opacity="0" result="BackgroundImageFix"/>
<feColorMatrix in="SourceAlpha" type="matrix" values="0 0 0 0 0 0 0 0 0 0 0 0 0 0 0 0 0 0 127 0" result="hardAlpha"/>
<feOffset dy="2"/>
<feGaussianBlur stdDeviation="2"/>
<feComposite in2="hardAlpha" operator="out"/>
<feColorMatrix type="matrix" values="0 0 0 0 0 0 0 0 0 0 0 0 0 0 0 0 0 0 0.3 0"/>
<feBlend mode="normal" in2="BackgroundImageFix" result="effect1_dropShadow_1881_17226"/>
<feBlend mode="normal" in="SourceGraphic" in2="effect1_dropShadow_1881_17226" result="shape"/>
</filter>
<filter id="filter2_d_1881_17226" x="109.449" y="284.535" width="33.4805" height="17.625" filterUnits="userSpaceOnUse" color-interpolation-filters="sRGB">
<feFlood flood-opacity="0" result="BackgroundImageFix"/>
<feColorMatrix in="SourceAlpha" type="matrix" values="0 0 0 0 0 0 0 0 0 0 0 0 0 0 0 0 0 0 127 0" result="hardAlpha"/>
<feOffset dy="2"/>
<feGaussianBlur stdDeviation="2"/>
<feComposite in2="hardAlpha" operator="out"/>
<feColorMatrix type="matrix" values="0 0 0 0 0 0 0 0 0 0 0 0 0 0 0 0 0 0 0.3 0"/>
<feBlend mode="normal" in2="BackgroundImageFix" result="effect1_dropShadow_1881_17226"/>
<feBlend mode="normal" in="SourceGraphic" in2="effect1_dropShadow_1881_17226" result="shape"/>
</filter>
<filter id="filter3_d_1881_17226" x="149.055" y="284.535" width="32.875" height="17.4648" filterUnits="userSpaceOnUse" color-interpolation-filters="sRGB">
<feFlood flood-opacity="0" result="BackgroundImageFix"/>
<feColorMatrix in="SourceAlpha" type="matrix" values="0 0 0 0 0 0 0 0 0 0 0 0 0 0 0 0 0 0 127 0" result="hardAlpha"/>
<feOffset dy="2"/>
<feGaussianBlur stdDeviation="2"/>
<feComposite in2="hardAlpha" operator="out"/>
<feColorMatrix type="matrix" values="0 0 0 0 0 0 0 0 0 0 0 0 0 0 0 0 0 0 0.3 0"/>
<feBlend mode="normal" in2="BackgroundImageFix" result="effect1_dropShadow_1881_17226"/>
<feBlend mode="normal" in="SourceGraphic" in2="effect1_dropShadow_1881_17226" result="shape"/>
</filter>
<filter id="filter4_d_1881_17226" x="191.594" y="284.535" width="25" height="17.4648" filterUnits="userSpaceOnUse" color-interpolation-filters="sRGB">
<feFlood flood-opacity="0" result="BackgroundImageFix"/>
<feColorMatrix in="SourceAlpha" type="matrix" values="0 0 0 0 0 0 0 0 0 0 0 0 0 0 0 0 0 0 127 0" result="hardAlpha"/>
<feOffset dy="2"/>
<feGaussianBlur stdDeviation="2"/>
<feComposite in2="hardAlpha" operator="out"/>
<feColorMatrix type="matrix" values="0 0 0 0 0 0 0 0 0 0 0 0 0 0 0 0 0 0 0.3 0"/>
<feBlend mode="normal" in2="BackgroundImageFix" result="effect1_dropShadow_1881_17226"/>
<feBlend mode="normal" in="SourceGraphic" in2="effect1_dropShadow_1881_17226" result="shape"/>
</filter>
<filter id="filter5_d_1881_17226" x="230.672" y="284.535" width="24.9219" height="17.4648" filterUnits="userSpaceOnUse" color-interpolation-filters="sRGB">
<feFlood flood-opacity="0" result="BackgroundImageFix"/>
<feColorMatrix in="SourceAlpha" type="matrix" values="0 0 0 0 0 0 0 0 0 0 0 0 0 0 0 0 0 0 127 0" result="hardAlpha"/>
<feOffset dy="2"/>
<feGaussianBlur stdDeviation="2"/>
<feComposite in2="hardAlpha" operator="out"/>
<feColorMatrix type="matrix" values="0 0 0 0 0 0 0 0 0 0 0 0 0 0 0 0 0 0 0.3 0"/>
<feBlend mode="normal" in2="BackgroundImageFix" result="effect1_dropShadow_1881_17226"/>
<feBlend mode="normal" in="SourceGraphic" in2="effect1_dropShadow_1881_17226" result="shape"/>
</filter>
<filter id="filter6_d_1881_17226" x="263.891" y="284.535" width="37.2031" height="17.4648" filterUnits="userSpaceOnUse" color-interpolation-filters="sRGB">
<feFlood flood-opacity="0" result="BackgroundImageFix"/>
<feColorMatrix in="SourceAlpha" type="matrix" values="0 0 0 0 0 0 0 0 0 0 0 0 0 0 0 0 0 0 127 0" result="hardAlpha"/>
<feOffset dy="2"/>
<feGaussianBlur stdDeviation="2"/>
<feComposite in2="hardAlpha" operator="out"/>
<feColorMatrix type="matrix" values="0 0 0 0 0 0 0 0 0 0 0 0 0 0 0 0 0 0 0.3 0"/>
<feBlend mode="normal" in2="BackgroundImageFix" result="effect1_dropShadow_1881_17226"/>
<feBlend mode="normal" in="SourceGraphic" in2="effect1_dropShadow_1881_17226" result="shape"/>
</filter>
<filter id="filter7_d_1881_17226" x="302.363" y="284.535" width="37.7305" height="17.625" filterUnits="userSpaceOnUse" color-interpolation-filters="sRGB">
<feFlood flood-opacity="0" result="BackgroundImageFix"/>
<feColorMatrix in="SourceAlpha" type="matrix" values="0 0 0 0 0 0 0 0 0 0 0 0 0 0 0 0 0 0 127 0" result="hardAlpha"/>
<feOffset dy="2"/>
<feGaussianBlur stdDeviation="2"/>
<feComposite in2="hardAlpha" operator="out"/>
<feColorMatrix type="matrix" values="0 0 0 0 0 0 0 0 0 0 0 0 0 0 0 0 0 0 0.3 0"/>
<feBlend mode="normal" in2="BackgroundImageFix" result="effect1_dropShadow_1881_17226"/>
<feBlend mode="normal" in="SourceGraphic" in2="effect1_dropShadow_1881_17226" result="shape"/>
</filter>
<filter id="filter8_d_1881_17226" x="341.363" y="284.535" width="37.7305" height="17.625" filterUnits="userSpaceOnUse" color-interpolation-filters="sRGB">
<feFlood flood-opacity="0" result="BackgroundImageFix"/>
<feColorMatrix in="SourceAlpha" type="matrix" values="0 0 0 0 0 0 0 0 0 0 0 0 0 0 0 0 0 0 127 0" result="hardAlpha"/>
<feOffset dy="2"/>
<feGaussianBlur stdDeviation="2"/>
<feComposite in2="hardAlpha" operator="out"/>
<feColorMatrix type="matrix" values="0 0 0 0 0 0 0 0 0 0 0 0 0 0 0 0 0 0 0.3 0"/>
<feBlend mode="normal" in2="BackgroundImageFix" result="effect1_dropShadow_1881_17226"/>
<feBlend mode="normal" in="SourceGraphic" in2="effect1_dropShadow_1881_17226" result="shape"/>
</filter>
<filter id="filter9_d_1881_17226" x="380.363" y="284.535" width="37.7305" height="17.625" filterUnits="userSpaceOnUse" color-interpolation-filters="sRGB">
<feFlood flood-opacity="0" result="BackgroundImageFix"/>
<feColorMatrix in="SourceAlpha" type="matrix" values="0 0 0 0 0 0 0 0 0 0 0 0 0 0 0 0 0 0 127 0" result="hardAlpha"/>
<feOffset dy="2"/>
<feGaussianBlur stdDeviation="2"/>
<feComposite in2="hardAlpha" operator="out"/>
<feColorMatrix type="matrix" values="0 0 0 0 0 0 0 0 0 0 0 0 0 0 0 0 0 0 0.3 0"/>
<feBlend mode="normal" in2="BackgroundImageFix" result="effect1_dropShadow_1881_17226"/>
<feBlend mode="normal" in="SourceGraphic" in2="effect1_dropShadow_1881_17226" result="shape"/>
</filter>
<filter id="filter10_d_1881_17226" x="419.891" y="284.535" width="37.2031" height="17.4648" filterUnits="userSpaceOnUse" color-interpolation-filters="sRGB">
<feFlood flood-opacity="0" result="BackgroundImageFix"/>
<feColorMatrix in="SourceAlpha" type="matrix" values="0 0 0 0 0 0 0 0 0 0 0 0 0 0 0 0 0 0 127 0" result="hardAlpha"/>
<feOffset dy="2"/>
<feGaussianBlur stdDeviation="2"/>
<feComposite in2="hardAlpha" operator="out"/>
<feColorMatrix type="matrix" values="0 0 0 0 0 0 0 0 0 0 0 0 0 0 0 0 0 0 0.3 0"/>
<feBlend mode="normal" in2="BackgroundImageFix" result="effect1_dropShadow_1881_17226"/>
<feBlend mode="normal" in="SourceGraphic" in2="effect1_dropShadow_1881_17226" result="shape"/>
</filter>
<clipPath id="clip0_1881_17226">
<rect width="413" height="284" fill="white" transform="translate(23.5 20)"/>
</clipPath>
<clipPath id="clip1_1881_17226">
<rect x="264.5" y="278" width="35" height="26" rx="4" fill="white"/>
</clipPath>
<clipPath id="clip2_1881_17226">
<rect x="303.5" y="278" width="35" height="26" rx="4" fill="white"/>
</clipPath>
<clipPath id="clip3_1881_17226">
<rect x="342.5" y="278" width="35" height="26" rx="4" fill="white"/>
</clipPath>
<clipPath id="clip4_1881_17226">
<rect x="381.5" y="278" width="35" height="26" rx="4" fill="white"/>
</clipPath>
<clipPath id="clip5_1881_17226">
<rect x="420.5" y="278" width="35" height="26" rx="4" fill="white"/>
</clipPath>
</defs>
</svg>
