<svg width="30" height="30" viewBox="0 0 30 30" fill="none" xmlns="http://www.w3.org/2000/svg">
<path d="M27.3116 22.9298H18.9395V25.133L20.7021 26.8956V27.3362H9.24551V26.8956L11.0081 25.133V22.9298H2.63599C1.90597 22.9298 1.31409 22.3382 1.31409 21.6079V3.98258C1.31409 3.25273 1.90597 2.66064 2.63599 2.66064H27.3115C28.0417 2.66064 28.6335 3.25273 28.6335 3.98258V21.6079C28.6335 22.3382 28.0417 22.9298 27.3115 22.9298H27.3116ZM26.871 4.42323H3.07667V19.4048H26.871V4.42323Z" fill="#009EF7"/>
<path d="M17.6901 11.7189C17.6774 10.4267 18.7368 9.80753 18.7839 9.77676C18.1893 8.89989 17.2623 8.77938 16.9313 8.76528C16.1418 8.6858 15.3919 9.2332 14.9921 9.2332C14.5922 9.2332 13.9747 8.7781 13.3202 8.78964C12.4608 8.80246 11.6675 9.29346 11.2244 10.069C10.3306 11.6305 10.9952 13.9432 11.8662 15.2085C12.2914 15.8277 12.7995 16.5238 13.4654 16.4994C14.1071 16.4738 14.3491 16.0815 15.1245 16.0815C15.8999 16.0815 16.1176 16.4994 16.7976 16.4866C17.4877 16.4738 17.9257 15.8546 18.3484 15.2328C18.8373 14.5137 19.0385 13.8175 19.05 13.7829C19.0347 13.7752 17.7029 13.2624 17.6901 11.7189ZM16.4143 7.92815C16.7683 7.49613 17.0064 6.89745 16.9414 6.30005C16.4321 6.32056 15.8146 6.64105 15.4492 7.0718C15.1219 7.45511 14.8342 8.06533 14.9118 8.64991C15.4797 8.69477 16.0603 8.3589 16.4143 7.92815Z" fill="#009EF7"/>
</svg>
