<svg width="30" height="30" viewBox="0 0 30 30" fill="none" xmlns="http://www.w3.org/2000/svg">
<path d="M27.3116 22.9298H18.9395V25.133L20.7021 26.8956V27.3362H9.24551V26.8956L11.0081 25.133V22.9298H2.63599C1.90597 22.9298 1.31409 22.3382 1.31409 21.6079V3.98258C1.31409 3.25273 1.90597 2.66064 2.63599 2.66064H27.3115C28.0417 2.66064 28.6335 3.25273 28.6335 3.98258V21.6079C28.6335 22.3382 28.0417 22.9298 27.3115 22.9298H27.3116ZM26.871 4.42323H3.07667V19.4048H26.871V4.42323Z" fill="#F70068"/>
<g clip-path="url(#clip0_13657_151555)">
<path d="M14.665 6.69929C14.665 6.69929 13.5119 6.54261 11.765 7.84457C11.765 7.84444 10.2016 9.29112 10.0891 10.3868C10.0891 10.3869 11.7759 8.09384 14.665 6.69929ZM19.6547 9.29152C19.9751 8.9916 20.065 7.92883 20.065 7.92883C20.1656 6.81015 19.646 6.34656 19.646 6.34656C18.7737 5.45968 16.6614 6.18343 16.6614 6.18343C13.9952 7.03013 11.7825 9.11415 11.7825 9.11415C8.27839 12.1818 8.01031 15.3172 8.01031 15.3172C7.85981 17.47 9.7205 17.486 9.7205 17.486C11.6434 17.5814 12.5457 16.8957 12.6585 16.8023C13.8708 17.4404 14.9687 17.4019 14.9687 17.4019C19.2267 17.1316 20.0779 13.7424 20.0779 13.7424H17.2479C16.6107 15.2676 14.7166 14.9627 14.7166 14.9627C12.8555 14.5893 12.8385 12.6064 12.8385 12.6064H20.349L20.3492 12.6059C20.4381 11.1769 20.1192 10.0978 19.6547 9.29152ZM17.2932 7.25037C14.4653 8.91044 13.7948 9.71158 13.7948 9.71158C14.4669 9.14075 15.3843 9.18322 15.3843 9.18322C17.4829 9.41501 17.4145 11.1755 17.416 11.183H12.8383C13.0093 10.4664 13.265 10.1605 13.3699 10.0601C11.4323 11.7034 10.251 14.148 10.251 14.148C10.6063 15.2141 11.5777 16.157 12.3857 16.6482C11.7803 17.0468 11.0784 17.1138 11.0784 17.1138C9.36817 17.3168 9.41842 15.9779 9.41842 15.9779C9.46774 14.5878 10.8599 12.4203 10.8599 12.4203C12.1337 10.6057 13.8902 9.08096 13.8902 9.08096C15.6255 7.64476 17.1217 6.94601 17.1217 6.94601C18.6931 6.1579 19.4229 6.76769 19.4229 6.76769V6.76756H19.4233C20.3508 7.4655 19.7007 8.8634 19.5623 9.13578C18.6284 7.64664 17.2932 7.25037 17.2932 7.25037Z" fill="#F70068"/>
</g>
<defs>
<clipPath id="clip0_13657_151555">
<rect width="12.9" height="12.9" fill="white" transform="translate(7.79999 5.25)"/>
</clipPath>
</defs>
</svg>
