<svg width="440" height="174" viewBox="0 0 440 174" fill="none" xmlns="http://www.w3.org/2000/svg">
<rect x="0.5" y="0.5" width="439" height="76" rx="7.5" fill="#161F2C"/>
<rect x="8" y="9" width="26.5" height="26.5" rx="6" fill="#383C45"/>
<path d="M19.082 22.6816H23.418V24.9888H19.082V22.6816Z" fill="#7C8499"/>
<path d="M226.949 35H212.629C212.793 33.5859 213.289 32.2578 214.117 31.0156C214.953 29.7656 216.516 28.293 218.805 26.5977C220.203 25.5586 221.098 24.7695 221.488 24.2305C221.879 23.6914 222.074 23.1797 222.074 22.6953C222.074 22.1719 221.879 21.7266 221.488 21.3594C221.105 20.9844 220.621 20.7969 220.035 20.7969C219.426 20.7969 218.926 20.9883 218.535 21.3711C218.152 21.7539 217.895 22.4297 217.762 23.3984L212.98 23.0117C213.168 21.668 213.512 20.6211 214.012 19.8711C214.512 19.1133 215.215 18.5352 216.121 18.1367C217.035 17.7305 218.297 17.5273 219.906 17.5273C221.586 17.5273 222.891 17.7188 223.82 18.1016C224.758 18.4844 225.492 19.0742 226.023 19.8711C226.562 20.6602 226.832 21.5469 226.832 22.5312C226.832 23.5781 226.523 24.5781 225.906 25.5312C225.297 26.4844 224.184 27.5312 222.566 28.6719C221.605 29.3359 220.961 29.8008 220.633 30.0664C220.312 30.332 219.934 30.6797 219.496 31.1094H226.949V35Z" fill="white"/>
<rect x="405.5" y="9" width="26.5" height="26.5" rx="6" fill="#383C45"/>
<path d="M414.729 21.2021H417.534V18.3823H419.9V21.2021H422.72V23.5752H419.9V26.3804H417.534V23.5752H414.729V21.2021Z" fill="#7C8499"/>
<path d="M173.748 58.6128L176.655 59.4917C176.46 60.3071 176.152 60.9883 175.732 61.5352C175.312 62.082 174.79 62.4946 174.165 62.7729C173.545 63.0513 172.754 63.1904 171.792 63.1904C170.625 63.1904 169.67 63.022 168.928 62.6851C168.191 62.3433 167.554 61.7451 167.017 60.8906C166.479 60.0361 166.211 58.9424 166.211 57.6094C166.211 55.832 166.682 54.4673 167.625 53.5151C168.572 52.5581 169.91 52.0796 171.638 52.0796C172.991 52.0796 174.053 52.353 174.824 52.8999C175.601 53.4468 176.177 54.2866 176.553 55.4194L173.623 56.0713C173.521 55.7441 173.413 55.5049 173.301 55.3535C173.115 55.0996 172.888 54.9043 172.62 54.7676C172.351 54.6309 172.051 54.5625 171.719 54.5625C170.967 54.5625 170.391 54.8652 169.99 55.4707C169.688 55.9199 169.536 56.6255 169.536 57.5874C169.536 58.7788 169.717 59.5967 170.078 60.041C170.439 60.4805 170.947 60.7002 171.602 60.7002C172.236 60.7002 172.715 60.522 173.037 60.1655C173.364 59.8091 173.601 59.2915 173.748 58.6128ZM184.88 61.2275H181.101L180.581 63H177.19L181.226 52.2627H184.844L188.879 63H185.408L184.88 61.2275ZM184.185 58.9058L182.998 55.0459L181.819 58.9058H184.185ZM189.37 59.4478L192.527 59.25C192.595 59.7627 192.734 60.1533 192.944 60.4219C193.286 60.8564 193.774 61.0737 194.409 61.0737C194.883 61.0737 195.247 60.9639 195.5 60.7441C195.759 60.5195 195.889 60.2607 195.889 59.9678C195.889 59.6895 195.767 59.4404 195.522 59.2207C195.278 59.001 194.712 58.7935 193.823 58.5981C192.368 58.271 191.331 57.8364 190.71 57.2944C190.085 56.7524 189.773 56.0615 189.773 55.2217C189.773 54.6699 189.932 54.1499 190.249 53.6616C190.571 53.1685 191.052 52.7827 191.692 52.5044C192.336 52.2212 193.218 52.0796 194.336 52.0796C195.708 52.0796 196.753 52.3359 197.471 52.8486C198.193 53.3564 198.623 54.167 198.76 55.2803L195.632 55.4634C195.549 54.98 195.374 54.6284 195.105 54.4087C194.841 54.189 194.475 54.0791 194.006 54.0791C193.621 54.0791 193.33 54.1621 193.135 54.3281C192.939 54.4893 192.842 54.687 192.842 54.9214C192.842 55.0923 192.922 55.2461 193.083 55.3828C193.24 55.5244 193.611 55.6562 194.197 55.7783C195.647 56.0908 196.685 56.4082 197.31 56.7305C197.939 57.0479 198.396 57.4434 198.679 57.917C198.967 58.3906 199.111 58.9204 199.111 59.5063C199.111 60.1948 198.921 60.8296 198.54 61.4106C198.159 61.9917 197.627 62.4336 196.943 62.7363C196.26 63.0342 195.398 63.1831 194.358 63.1831C192.532 63.1831 191.267 62.8315 190.564 62.1284C189.861 61.4253 189.463 60.5317 189.37 59.4478ZM200.803 52.2627H204.121V56.02H207.747V52.2627H211.079V63H207.747V58.6567H204.121V63H200.803V52.2627ZM212.866 57.6387C212.866 55.8857 213.354 54.521 214.331 53.5444C215.308 52.5679 216.667 52.0796 218.411 52.0796C220.198 52.0796 221.575 52.5605 222.542 53.5225C223.508 54.4795 223.992 55.8223 223.992 57.5508C223.992 58.8057 223.779 59.8359 223.354 60.6416C222.935 61.4424 222.324 62.0674 221.523 62.5166C220.728 62.9609 219.734 63.1831 218.542 63.1831C217.332 63.1831 216.328 62.9902 215.532 62.6045C214.741 62.2188 214.099 61.6084 213.606 60.7734C213.113 59.9385 212.866 58.8936 212.866 57.6387ZM216.184 57.6533C216.184 58.7373 216.384 59.5161 216.785 59.9897C217.19 60.4634 217.739 60.7002 218.433 60.7002C219.146 60.7002 219.697 60.4683 220.088 60.0044C220.479 59.5405 220.674 58.708 220.674 57.5068C220.674 56.4961 220.469 55.7588 220.059 55.2949C219.653 54.8262 219.102 54.5918 218.403 54.5918C217.734 54.5918 217.197 54.8286 216.792 55.3022C216.387 55.7759 216.184 56.5596 216.184 57.6533ZM232.766 52.2627H236.077V58.6641C236.077 59.2988 235.977 59.8994 235.776 60.4658C235.581 61.0273 235.271 61.5205 234.846 61.9453C234.426 62.3652 233.984 62.6606 233.521 62.8315C232.876 63.0708 232.102 63.1904 231.199 63.1904C230.676 63.1904 230.105 63.1538 229.485 63.0806C228.87 63.0073 228.354 62.8633 227.939 62.6484C227.524 62.4287 227.144 62.1187 226.797 61.7183C226.455 61.3179 226.221 60.9053 226.094 60.4805C225.889 59.7969 225.786 59.1914 225.786 58.6641V52.2627H229.097V58.8179C229.097 59.4038 229.258 59.8628 229.58 60.1948C229.907 60.522 230.359 60.6855 230.935 60.6855C231.506 60.6855 231.953 60.5244 232.275 60.2021C232.603 59.875 232.766 59.4136 232.766 58.8179V52.2627ZM237.52 52.2627H247.605V54.9141H244.221V63H240.903V54.9141H237.52V52.2627ZM260.73 61.2275H256.951L256.431 63H253.04L257.075 52.2627H260.693L264.729 63H261.257L260.73 61.2275ZM260.034 58.9058L258.848 55.0459L257.668 58.9058H260.034ZM264.004 52.2627H274.089V54.9141H270.706V63H267.388V54.9141H264.004V52.2627Z" fill="#7C8499"/>
<rect x="0.5" y="0.5" width="439" height="76" rx="7.5" stroke="#55657E"/>
<rect y="97" width="440" height="77" rx="8" fill="#F04E23"/>
<g filter="url(#filter0_d_1722_52045)">
<path d="M195.672 138.737L199.46 138.5C199.542 139.115 199.709 139.584 199.961 139.906C200.371 140.428 200.957 140.688 201.719 140.688C202.287 140.688 202.724 140.557 203.028 140.293C203.339 140.023 203.494 139.713 203.494 139.361C203.494 139.027 203.348 138.729 203.055 138.465C202.762 138.201 202.082 137.952 201.016 137.718C199.27 137.325 198.024 136.804 197.28 136.153C196.53 135.503 196.155 134.674 196.155 133.666C196.155 133.004 196.346 132.38 196.727 131.794C197.113 131.202 197.69 130.739 198.458 130.405C199.231 130.065 200.289 129.896 201.631 129.896C203.277 129.896 204.531 130.203 205.393 130.818C206.26 131.428 206.775 132.4 206.939 133.736L203.187 133.956C203.087 133.376 202.876 132.954 202.554 132.69C202.237 132.427 201.798 132.295 201.235 132.295C200.772 132.295 200.424 132.395 200.189 132.594C199.955 132.787 199.838 133.024 199.838 133.306C199.838 133.511 199.935 133.695 200.128 133.859C200.315 134.029 200.761 134.188 201.464 134.334C203.204 134.709 204.449 135.09 205.199 135.477C205.955 135.857 206.503 136.332 206.843 136.9C207.188 137.469 207.361 138.104 207.361 138.808C207.361 139.634 207.133 140.396 206.676 141.093C206.219 141.79 205.58 142.32 204.76 142.684C203.939 143.041 202.905 143.22 201.657 143.22C199.466 143.22 197.948 142.798 197.104 141.954C196.261 141.11 195.783 140.038 195.672 138.737ZM213.452 130.115V133.666H215.421V136.276H213.452V139.59C213.452 139.988 213.49 140.252 213.566 140.381C213.684 140.58 213.889 140.68 214.182 140.68C214.445 140.68 214.814 140.604 215.289 140.451L215.553 142.921C214.668 143.114 213.842 143.211 213.074 143.211C212.184 143.211 211.527 143.097 211.105 142.868C210.684 142.64 210.37 142.294 210.165 141.831C209.966 141.362 209.866 140.606 209.866 139.563V136.276H208.548V133.666H209.866V131.952L213.452 130.115ZM220.396 136.689L216.977 136.329C217.105 135.731 217.29 135.263 217.53 134.923C217.776 134.577 218.128 134.278 218.585 134.026C218.913 133.845 219.364 133.704 219.938 133.604C220.513 133.505 221.134 133.455 221.802 133.455C222.874 133.455 223.735 133.517 224.386 133.64C225.036 133.757 225.578 134.006 226.012 134.387C226.316 134.65 226.557 135.025 226.732 135.512C226.908 135.992 226.996 136.452 226.996 136.892V141.014C226.996 141.453 227.022 141.799 227.075 142.051C227.134 142.297 227.257 142.613 227.444 143H224.087C223.952 142.76 223.864 142.578 223.823 142.455C223.782 142.326 223.741 142.127 223.7 141.857C223.231 142.309 222.766 142.631 222.303 142.824C221.67 143.082 220.935 143.211 220.097 143.211C218.983 143.211 218.137 142.953 217.557 142.438C216.982 141.922 216.695 141.286 216.695 140.53C216.695 139.821 216.903 139.238 217.319 138.781C217.735 138.324 218.503 137.984 219.622 137.762C220.964 137.492 221.834 137.305 222.232 137.199C222.631 137.088 223.053 136.944 223.498 136.769C223.498 136.329 223.407 136.021 223.226 135.846C223.044 135.67 222.725 135.582 222.268 135.582C221.682 135.582 221.242 135.676 220.949 135.863C220.721 136.01 220.536 136.285 220.396 136.689ZM223.498 138.57C223.006 138.746 222.493 138.901 221.96 139.036C221.233 139.229 220.773 139.42 220.58 139.607C220.381 139.801 220.281 140.021 220.281 140.267C220.281 140.548 220.378 140.779 220.571 140.961C220.771 141.137 221.061 141.225 221.441 141.225C221.84 141.225 222.209 141.128 222.549 140.935C222.895 140.741 223.138 140.507 223.278 140.231C223.425 139.95 223.498 139.587 223.498 139.142V138.57ZM229.176 133.666H232.524V135.195C232.847 134.533 233.178 134.079 233.518 133.833C233.863 133.581 234.288 133.455 234.792 133.455C235.319 133.455 235.896 133.619 236.523 133.947L235.416 136.496C234.994 136.32 234.66 136.232 234.414 136.232C233.945 136.232 233.582 136.426 233.324 136.812C232.955 137.357 232.771 138.377 232.771 139.871V143H229.176V133.666ZM242.351 130.115V133.666H244.319V136.276H242.351V139.59C242.351 139.988 242.389 140.252 242.465 140.381C242.582 140.58 242.787 140.68 243.08 140.68C243.344 140.68 243.713 140.604 244.188 140.451L244.451 142.921C243.566 143.114 242.74 143.211 241.973 143.211C241.082 143.211 240.426 143.097 240.004 142.868C239.582 142.64 239.269 142.294 239.063 141.831C238.864 141.362 238.765 140.606 238.765 139.563V136.276H237.446V133.666H238.765V131.952L242.351 130.115Z" fill="white"/>
</g>
<defs>
<filter id="filter0_d_1722_52045" x="191.672" y="127.895" width="56.7793" height="21.3242" filterUnits="userSpaceOnUse" color-interpolation-filters="sRGB">
<feFlood flood-opacity="0" result="BackgroundImageFix"/>
<feColorMatrix in="SourceAlpha" type="matrix" values="0 0 0 0 0 0 0 0 0 0 0 0 0 0 0 0 0 0 127 0" result="hardAlpha"/>
<feOffset dy="2"/>
<feGaussianBlur stdDeviation="2"/>
<feComposite in2="hardAlpha" operator="out"/>
<feColorMatrix type="matrix" values="0 0 0 0 0 0 0 0 0 0 0 0 0 0 0 0 0 0 0.3 0"/>
<feBlend mode="normal" in2="BackgroundImageFix" result="effect1_dropShadow_1722_52045"/>
<feBlend mode="normal" in="SourceGraphic" in2="effect1_dropShadow_1722_52045" result="shape"/>
</filter>
</defs>
</svg>
