<svg width="440" height="174" viewBox="0 0 440 174" fill="none" xmlns="http://www.w3.org/2000/svg">
<rect x="0.5" y="0.5" width="439" height="76" rx="7.5" fill="#161F2C"/>
<rect x="8" y="9" width="26.5" height="26.5" rx="6" fill="#383C45"/>
<path d="M19.082 22.6816H23.418V24.9888H19.082V22.6816Z" fill="#7C8499"/>
<path d="M226.949 35H212.629C212.793 33.5859 213.289 32.2578 214.117 31.0156C214.953 29.7656 216.516 28.293 218.805 26.5977C220.203 25.5586 221.098 24.7695 221.488 24.2305C221.879 23.6914 222.074 23.1797 222.074 22.6953C222.074 22.1719 221.879 21.7266 221.488 21.3594C221.105 20.9844 220.621 20.7969 220.035 20.7969C219.426 20.7969 218.926 20.9883 218.535 21.3711C218.152 21.7539 217.895 22.4297 217.762 23.3984L212.98 23.0117C213.168 21.668 213.512 20.6211 214.012 19.8711C214.512 19.1133 215.215 18.5352 216.121 18.1367C217.035 17.7305 218.297 17.5273 219.906 17.5273C221.586 17.5273 222.891 17.7188 223.82 18.1016C224.758 18.4844 225.492 19.0742 226.023 19.8711C226.562 20.6602 226.832 21.5469 226.832 22.5312C226.832 23.5781 226.523 24.5781 225.906 25.5312C225.297 26.4844 224.184 27.5312 222.566 28.6719C221.605 29.3359 220.961 29.8008 220.633 30.0664C220.312 30.332 219.934 30.6797 219.496 31.1094H226.949V35Z" fill="white"/>
<rect x="405.5" y="9" width="26.5" height="26.5" rx="6" fill="#383C45"/>
<path d="M414.729 21.2021H417.534V18.3823H419.9V21.2021H422.72V23.5752H419.9V26.3804H417.534V23.5752H414.729V21.2021Z" fill="#7C8499"/>
<path d="M209.86 58.56C209.605 60.555 209.125 62.025 205.705 62.835C206.08 63.195 206.545 63.93 206.74 64.395C210.64 63.285 211.435 61.29 211.765 58.56H209.86ZM208.225 50.895C208.78 51.735 209.38 52.875 209.605 53.595L211.315 52.83C211.045 52.095 210.4 51.03 209.815 50.235L208.225 50.895ZM215.125 50.265C214.705 51.27 213.955 52.605 213.31 53.46L214.885 54.015C215.53 53.205 216.34 51.99 217.03 50.835L215.125 50.265ZM213.265 58.53V61.92C213.265 63.6 213.775 64.095 215.47 64.095C215.815 64.095 217.03 64.095 217.405 64.095C218.83 64.095 219.31 63.525 219.505 61.365C219.01 61.26 218.215 60.96 217.855 60.675C217.78 62.205 217.69 62.445 217.225 62.445C216.94 62.445 215.995 62.445 215.755 62.445C215.23 62.445 215.14 62.385 215.14 61.89V58.53H213.265ZM209.065 54.765H215.815V57.285H209.065V54.765ZM207.22 53.16V58.89H217.795V53.16H207.22ZM220.615 51.12V52.8H225.91V51.12H220.615ZM220.84 55.44V57.105H225.595V55.44H220.84ZM220.345 61.14L220.69 62.865C222.235 62.43 224.245 61.905 226.12 61.38L225.895 59.745C223.9 60.285 221.77 60.84 220.345 61.14ZM222.46 51.81V61.275L224.185 60.99V51.81H222.46ZM226.39 50.94V58.935H228.1V52.485H231.925V58.935H233.71V50.94H226.39ZM229.78 58.89V62.415C229.78 63.705 230.275 64.05 231.52 64.05H232.63C234.16 64.05 234.415 63.36 234.565 61.005C234.145 60.915 233.575 60.675 233.17 60.345C233.11 62.31 233.02 62.745 232.63 62.745H231.865C231.55 62.745 231.445 62.625 231.445 62.22V58.89H229.78ZM229.165 53.415V55.8C229.165 58.125 228.745 61.11 224.905 63.105C225.25 63.375 225.82 64.035 226.03 64.38C230.08 62.235 230.83 58.515 230.83 55.83V53.415H229.165Z" fill="#7C8499"/>
<rect x="0.5" y="0.5" width="439" height="76" rx="7.5" stroke="#55657E"/>
<rect y="97" width="440" height="77" rx="8" fill="#F04E23"/>
<g filter="url(#filter0_d_1722_52052)">
<path d="M203.926 128.194V129.85H207.094V133.774C207.094 133.882 207.076 134.026 207.076 134.17H202.99V135.826H206.95C206.806 137.104 206.572 138.22 206.23 139.156C205.708 140.452 204.718 141.532 203.278 142.378L204.196 143.818C205.798 143.008 206.95 141.838 207.634 140.326C208.174 139.12 208.516 137.626 208.696 135.826H213.52V143.62H215.23V135.826H219.028V134.17H215.23V129.85H218.11V128.194H203.926ZM208.822 129.85H213.52V134.17H208.804C208.804 134.044 208.822 133.918 208.822 133.774V129.85ZM222.754 127.132C222.61 128.302 222.448 129.436 222.286 130.534H220.756V132.172H222.016C221.692 133.954 221.314 135.61 220.918 137.122C221.746 137.914 222.502 138.67 223.204 139.39C222.574 140.614 221.764 141.694 220.756 142.594L221.836 143.944C222.844 143.008 223.69 141.91 224.374 140.65C224.986 141.334 225.508 141.964 225.958 142.576L227.11 141.226C226.606 140.56 225.94 139.804 225.148 138.976C225.976 136.852 226.444 134.368 226.552 131.488V130.534H223.996C224.14 129.526 224.284 128.428 224.428 127.276L222.754 127.132ZM223.924 137.734C223.564 137.374 223.168 137.014 222.754 136.618C223.096 135.43 223.42 133.936 223.726 132.172H224.968C224.86 134.242 224.5 136.096 223.924 137.734ZM236.02 135.97H227.83V143.872H229.45V142.864H234.382V143.872H236.02V135.97ZM229.45 141.262V137.536H234.382V141.262H229.45ZM227.218 134.656C230.08 134.476 232.69 134.224 235.03 133.9C235.21 134.296 235.39 134.728 235.57 135.196L237.136 134.44C236.308 132.55 235.444 130.822 234.508 129.256L233.05 129.958C233.482 130.732 233.932 131.56 234.364 132.46C232.744 132.712 231.07 132.892 229.342 133C230.35 131.596 231.322 129.832 232.294 127.744L230.674 127.204C229.072 130.858 227.83 132.82 226.948 133.108L227.218 134.656Z" fill="white"/>
</g>
<defs>
<filter id="filter0_d_1722_52052" x="198.99" y="125.133" width="42.1465" height="24.8105" filterUnits="userSpaceOnUse" color-interpolation-filters="sRGB">
<feFlood flood-opacity="0" result="BackgroundImageFix"/>
<feColorMatrix in="SourceAlpha" type="matrix" values="0 0 0 0 0 0 0 0 0 0 0 0 0 0 0 0 0 0 127 0" result="hardAlpha"/>
<feOffset dy="2"/>
<feGaussianBlur stdDeviation="2"/>
<feComposite in2="hardAlpha" operator="out"/>
<feColorMatrix type="matrix" values="0 0 0 0 0 0 0 0 0 0 0 0 0 0 0 0 0 0 0.3 0"/>
<feBlend mode="normal" in2="BackgroundImageFix" result="effect1_dropShadow_1722_52052"/>
<feBlend mode="normal" in="SourceGraphic" in2="effect1_dropShadow_1722_52052" result="shape"/>
</filter>
</defs>
</svg>
