<svg width="440" height="174" viewBox="0 0 440 174" fill="none" xmlns="http://www.w3.org/2000/svg">
<rect x="0.5" y="0.5" width="439" height="76" rx="7.5" fill="white"/>
<rect x="8" y="9" width="26.5" height="26.5" rx="6" fill="#F1F1F1"/>
<path d="M19.082 22.6816H23.418V24.9888H19.082V22.6816Z" fill="#A6A6A6"/>
<path d="M226.949 35H212.629C212.793 33.5859 213.289 32.2578 214.117 31.0156C214.953 29.7656 216.516 28.293 218.805 26.5977C220.203 25.5586 221.098 24.7695 221.488 24.2305C221.879 23.6914 222.074 23.1797 222.074 22.6953C222.074 22.1719 221.879 21.7266 221.488 21.3594C221.105 20.9844 220.621 20.7969 220.035 20.7969C219.426 20.7969 218.926 20.9883 218.535 21.3711C218.152 21.7539 217.895 22.4297 217.762 23.3984L212.98 23.0117C213.168 21.668 213.512 20.6211 214.012 19.8711C214.512 19.1133 215.215 18.5352 216.121 18.1367C217.035 17.7305 218.297 17.5273 219.906 17.5273C221.586 17.5273 222.891 17.7188 223.82 18.1016C224.758 18.4844 225.492 19.0742 226.023 19.8711C226.562 20.6602 226.832 21.5469 226.832 22.5312C226.832 23.5781 226.523 24.5781 225.906 25.5312C225.297 26.4844 224.184 27.5312 222.566 28.6719C221.605 29.3359 220.961 29.8008 220.633 30.0664C220.312 30.332 219.934 30.6797 219.496 31.1094H226.949V35Z" fill="#484848"/>
<rect x="405.5" y="9" width="26.5" height="26.5" rx="6" fill="#F1F1F1"/>
<path d="M414.729 21.2021H417.534V18.3823H419.9V21.2021H422.72V23.5752H419.9V26.3804H417.534V23.5752H414.729V21.2021Z" fill="#A6A6A6"/>
<path d="M204.566 63.15C204.116 63.15 203.736 63.08 203.426 62.94C203.116 62.8 202.881 62.59 202.721 62.31C202.561 62.02 202.481 61.66 202.481 61.23V54.78H204.731V60.96C204.731 61.15 204.771 61.29 204.851 61.38C204.941 61.47 205.076 61.515 205.256 61.515C205.336 61.515 205.421 61.505 205.511 61.485C205.601 61.465 205.686 61.44 205.766 61.41L205.976 62.85C205.786 62.95 205.571 63.025 205.331 63.075C205.091 63.125 204.836 63.15 204.566 63.15ZM208.354 63L205.969 54.78H208.234L210.049 61.185H210.139C210.299 61.185 210.449 61.14 210.589 61.05C210.729 60.96 210.849 60.84 210.949 60.69C211.149 60.41 211.299 60.08 211.399 59.7C211.499 59.31 211.549 58.925 211.549 58.545C211.549 57.875 211.419 57.36 211.159 57C210.909 56.64 210.559 56.46 210.109 56.46C210.019 56.46 209.934 56.465 209.854 56.475C209.784 56.485 209.719 56.505 209.659 56.535L209.239 54.81C209.469 54.74 209.684 54.7 209.884 54.69C210.094 54.67 210.264 54.66 210.394 54.66C210.924 54.66 211.384 54.73 211.774 54.87C212.164 55.01 212.499 55.22 212.779 55.5C213.129 55.84 213.389 56.265 213.559 56.775C213.739 57.285 213.829 57.86 213.829 58.5C213.829 59.31 213.699 60.02 213.439 60.63C213.189 61.23 212.884 61.705 212.524 62.055C212.224 62.345 211.844 62.575 211.384 62.745C210.934 62.915 210.314 63 209.524 63H208.354ZM206.203 53.64V52.695L207.718 52.065H213.073V53.64H206.203ZM218.318 63.15C217.708 63.15 217.193 63.035 216.773 62.805C216.363 62.565 216.048 62.21 215.828 61.74C215.618 61.27 215.513 60.695 215.513 60.015V54.78H217.763V59.625C217.763 60.175 217.873 60.575 218.093 60.825C218.313 61.075 218.633 61.2 219.053 61.2C219.583 61.2 219.993 61 220.283 60.6C220.573 60.19 220.718 59.56 220.718 58.71V54.78H222.968V63H221.258L221.018 61.74H220.883C220.713 62.14 220.418 62.475 219.998 62.745C219.588 63.015 219.028 63.15 218.318 63.15ZM229.89 63V57.66C229.89 57.18 229.76 56.835 229.5 56.625C229.24 56.415 228.84 56.31 228.3 56.31C227.78 56.31 227.27 56.39 226.77 56.55C226.28 56.7 225.855 56.88 225.495 57.09V55.23C225.785 55.09 226.195 54.95 226.725 54.81C227.255 54.66 227.865 54.585 228.555 54.585C229.085 54.585 229.56 54.65 229.98 54.78C230.41 54.91 230.72 55.165 230.91 55.545C231.33 55.675 231.63 55.93 231.81 56.31C232 56.68 232.095 57.16 232.095 57.75V63H229.89ZM227.43 63.15C226.57 63.15 225.905 62.945 225.435 62.535C224.975 62.125 224.745 61.55 224.745 60.81C224.745 60.01 225.03 59.37 225.6 58.89C226.18 58.41 227.09 58.12 228.33 58.02L230.25 57.87V59.49L228.585 59.655C227.985 59.715 227.565 59.835 227.325 60.015C227.095 60.195 226.98 60.435 226.98 60.735C226.98 61.035 227.075 61.26 227.265 61.41C227.465 61.56 227.72 61.635 228.03 61.635C228.15 61.635 228.27 61.625 228.39 61.605C228.51 61.575 228.62 61.545 228.72 61.515L228.915 62.925C228.725 62.995 228.5 63.05 228.24 63.09C227.98 63.13 227.71 63.15 227.43 63.15ZM230.865 56.415L229.635 55.38C229.985 55.26 230.26 55.11 230.46 54.93C230.66 54.74 230.765 54.51 230.775 54.24H232.74C232.74 54.55 232.675 54.85 232.545 55.14C232.425 55.42 232.225 55.67 231.945 55.89C231.675 56.11 231.315 56.285 230.865 56.415ZM237.189 63.15C236.379 63.15 235.734 62.975 235.254 62.625C234.774 62.265 234.429 61.775 234.219 61.155C234.009 60.525 233.904 59.805 233.904 58.995C233.904 58.125 233.999 57.405 234.189 56.835C234.389 56.255 234.669 55.805 235.029 55.485C235.389 55.155 235.814 54.925 236.304 54.795C236.804 54.655 237.349 54.585 237.939 54.585C238.839 54.585 239.559 54.71 240.099 54.96C240.639 55.21 241.029 55.565 241.269 56.025C241.519 56.485 241.644 57.025 241.644 57.645V63H239.394V57.825C239.394 57.355 239.279 57 239.049 56.76C238.829 56.51 238.459 56.385 237.939 56.385C237.589 56.385 237.279 56.46 237.009 56.61C236.749 56.75 236.544 57.005 236.394 57.375C236.254 57.745 236.184 58.275 236.184 58.965C236.184 59.435 236.229 59.85 236.319 60.21C236.409 60.57 236.554 60.85 236.754 61.05C236.964 61.25 237.244 61.35 237.594 61.35C237.704 61.35 237.809 61.345 237.909 61.335C238.019 61.315 238.114 61.295 238.194 61.275L238.404 62.955C238.244 63.025 238.049 63.075 237.819 63.105C237.599 63.135 237.389 63.15 237.189 63.15Z" fill="#A6A6A6"/>
<rect x="0.5" y="0.5" width="439" height="76" rx="7.5" stroke="#ECECEC"/>
<rect y="97" width="440" height="77" rx="8" fill="#FB6943"/>
<g filter="url(#filter0_d_1722_52055)">
<path d="M204.125 143.18C203.585 143.18 203.129 143.096 202.757 142.928C202.385 142.76 202.103 142.508 201.911 142.172C201.719 141.824 201.623 141.392 201.623 140.876V133.136H204.323V140.552C204.323 140.78 204.371 140.948 204.467 141.056C204.575 141.164 204.737 141.218 204.953 141.218C205.049 141.218 205.151 141.206 205.259 141.182C205.367 141.158 205.469 141.128 205.565 141.092L205.817 142.82C205.589 142.94 205.331 143.03 205.043 143.09C204.755 143.15 204.449 143.18 204.125 143.18ZM210.801 143.234C210.093 143.234 209.379 143.156 208.659 143C207.951 142.844 207.321 142.622 206.769 142.334L207.525 140.192C207.765 140.324 208.053 140.462 208.389 140.606C208.725 140.75 209.091 140.87 209.487 140.966C209.883 141.062 210.285 141.11 210.693 141.11C211.173 141.11 211.533 141.044 211.773 140.912C212.025 140.768 212.151 140.552 212.151 140.264C212.151 140.048 212.067 139.874 211.899 139.742C211.743 139.598 211.509 139.466 211.197 139.346C210.885 139.214 210.513 139.076 210.081 138.932C209.445 138.704 208.899 138.458 208.443 138.194C207.987 137.93 207.633 137.606 207.381 137.222C207.141 136.838 207.021 136.358 207.021 135.782C207.021 135.122 207.189 134.582 207.525 134.162C207.861 133.742 208.335 133.43 208.947 133.226C209.559 133.01 210.273 132.902 211.089 132.902C211.761 132.902 212.367 132.956 212.907 133.064C213.447 133.172 213.867 133.31 214.167 133.478V135.602C213.963 135.506 213.693 135.41 213.357 135.314C213.033 135.218 212.679 135.14 212.295 135.08C211.923 135.008 211.563 134.972 211.215 134.972C210.723 134.972 210.351 135.038 210.099 135.17C209.847 135.302 209.721 135.488 209.721 135.728C209.721 135.92 209.805 136.082 209.973 136.214C210.153 136.346 210.411 136.472 210.747 136.592C211.083 136.7 211.485 136.838 211.953 137.006C212.577 137.222 213.105 137.462 213.537 137.726C213.969 137.99 214.293 138.314 214.509 138.698C214.737 139.082 214.851 139.556 214.851 140.12C214.851 140.66 214.725 141.17 214.473 141.65C214.233 142.118 213.819 142.502 213.231 142.802C212.643 143.09 211.833 143.234 210.801 143.234ZM206.019 131.768V130.634L207.837 129.878H214.263V131.768H206.019ZM211.941 128.682V125.334H214.281V128.682H211.941ZM222.548 143.18C221.696 143.18 221.006 143.018 220.478 142.694C219.962 142.37 219.596 141.956 219.38 141.452H219.236L218.948 143H216.896V133.136H219.596V137.852C219.596 138.536 219.674 139.1 219.83 139.544C219.986 139.976 220.214 140.3 220.514 140.516C220.814 140.732 221.174 140.84 221.594 140.84C222.098 140.84 222.482 140.69 222.746 140.39C223.01 140.09 223.142 139.61 223.142 138.95V133.136H225.842V139.544C225.842 140.324 225.716 140.984 225.464 141.524C225.224 142.064 224.858 142.478 224.366 142.766C223.874 143.042 223.268 143.18 222.548 143.18ZM229 134.936V132.308C229 131.852 229.042 131.486 229.126 131.21C229.21 130.922 229.324 130.688 229.468 130.508C229.612 130.328 229.762 130.178 229.918 130.058L229.9 129.986H227.11L227.614 128.042H233.338V129.986C232.894 129.986 232.51 130.13 232.186 130.418C231.862 130.706 231.7 131.234 231.7 132.002V134.936H229ZM231.502 143.18C230.962 143.18 230.506 143.096 230.134 142.928C229.762 142.76 229.48 142.508 229.288 142.172C229.096 141.824 229 141.392 229 140.876V133.136H231.7V140.552C231.7 140.78 231.748 140.948 231.844 141.056C231.952 141.164 232.114 141.218 232.33 141.218C232.426 141.218 232.528 141.206 232.636 141.182C232.744 141.158 232.846 141.128 232.942 141.092L233.194 142.82C232.966 142.94 232.708 143.03 232.42 143.09C232.132 143.15 231.826 143.18 231.502 143.18ZM237.981 143.18C237.009 143.18 236.235 142.97 235.659 142.55C235.083 142.118 234.669 141.53 234.417 140.786C234.165 140.03 234.039 139.166 234.039 138.194C234.039 137.15 234.153 136.286 234.381 135.602C234.621 134.906 234.957 134.366 235.389 133.982C235.821 133.586 236.331 133.31 236.919 133.154C237.519 132.986 238.173 132.902 238.881 132.902C239.961 132.902 240.825 133.052 241.473 133.352C242.121 133.652 242.589 134.078 242.877 134.63C243.177 135.182 243.327 135.83 243.327 136.574V143H240.627V136.79C240.627 136.226 240.489 135.8 240.213 135.512C239.949 135.212 239.505 135.062 238.881 135.062C238.461 135.062 238.089 135.152 237.765 135.332C237.453 135.5 237.207 135.806 237.027 136.25C236.859 136.694 236.775 137.33 236.775 138.158C236.775 138.722 236.829 139.22 236.937 139.652C237.045 140.084 237.219 140.42 237.459 140.66C237.711 140.9 238.047 141.02 238.467 141.02C238.599 141.02 238.725 141.014 238.845 141.002C238.977 140.978 239.091 140.954 239.187 140.93L239.439 142.946C239.247 143.03 239.013 143.09 238.737 143.126C238.473 143.162 238.221 143.18 237.981 143.18ZM237.514 131.786V130.886C237.682 130.838 237.868 130.772 238.072 130.688C238.276 130.604 238.456 130.49 238.612 130.346C238.768 130.202 238.846 130.022 238.846 129.806C238.846 129.638 238.798 129.506 238.702 129.41C238.606 129.314 238.486 129.266 238.342 129.266C238.246 129.266 238.144 129.284 238.036 129.32C237.928 129.356 237.832 129.392 237.748 129.428L237.406 128.222C237.646 128.018 237.946 127.886 238.306 127.826C238.654 127.754 238.948 127.718 239.188 127.718C239.728 127.718 240.154 127.844 240.466 128.096C240.766 128.348 240.916 128.72 240.916 129.212C240.916 129.476 240.85 129.722 240.718 129.95C240.574 130.178 240.358 130.364 240.07 130.508L239.998 130.04H243.4V131.786H237.514Z" fill="white"/>
</g>
<defs>
<filter id="filter0_d_1722_52055" x="197.623" y="123.334" width="49.7773" height="25.9004" filterUnits="userSpaceOnUse" color-interpolation-filters="sRGB">
<feFlood flood-opacity="0" result="BackgroundImageFix"/>
<feColorMatrix in="SourceAlpha" type="matrix" values="0 0 0 0 0 0 0 0 0 0 0 0 0 0 0 0 0 0 127 0" result="hardAlpha"/>
<feOffset dy="2"/>
<feGaussianBlur stdDeviation="2"/>
<feComposite in2="hardAlpha" operator="out"/>
<feColorMatrix type="matrix" values="0 0 0 0 0 0 0 0 0 0 0 0 0 0 0 0 0 0 0.3 0"/>
<feBlend mode="normal" in2="BackgroundImageFix" result="effect1_dropShadow_1722_52055"/>
<feBlend mode="normal" in="SourceGraphic" in2="effect1_dropShadow_1722_52055" result="shape"/>
</filter>
</defs>
</svg>
