<svg width="315" height="147" viewBox="0 0 315 147" fill="none" xmlns="http://www.w3.org/2000/svg">
<rect x="0.5" y="0.5" width="314" height="49" rx="9.5" fill="#161F2C"/>
<path d="M14.86 26.06C14.605 28.055 14.125 29.525 10.705 30.335C11.08 30.695 11.545 31.43 11.74 31.895C15.64 30.785 16.435 28.79 16.765 26.06H14.86ZM13.225 18.395C13.78 19.235 14.38 20.375 14.605 21.095L16.315 20.33C16.045 19.595 15.4 18.53 14.815 17.735L13.225 18.395ZM20.125 17.765C19.705 18.77 18.955 20.105 18.31 20.96L19.885 21.515C20.53 20.705 21.34 19.49 22.03 18.335L20.125 17.765ZM18.265 26.03V29.42C18.265 31.1 18.775 31.595 20.47 31.595C20.815 31.595 22.03 31.595 22.405 31.595C23.83 31.595 24.31 31.025 24.505 28.865C24.01 28.76 23.215 28.46 22.855 28.175C22.78 29.705 22.69 29.945 22.225 29.945C21.94 29.945 20.995 29.945 20.755 29.945C20.23 29.945 20.14 29.885 20.14 29.39V26.03H18.265ZM14.065 22.265H20.815V24.785H14.065V22.265ZM12.22 20.66V26.39H22.795V20.66H12.22ZM25.615 18.62V20.3H30.91V18.62H25.615ZM25.84 22.94V24.605H30.595V22.94H25.84ZM25.345 28.64L25.69 30.365C27.235 29.93 29.245 29.405 31.12 28.88L30.895 27.245C28.9 27.785 26.77 28.34 25.345 28.64ZM27.46 19.31V28.775L29.185 28.49V19.31H27.46ZM31.39 18.44V26.435H33.1V19.985H36.925V26.435H38.71V18.44H31.39ZM34.78 26.39V29.915C34.78 31.205 35.275 31.55 36.52 31.55H37.63C39.16 31.55 39.415 30.86 39.565 28.505C39.145 28.415 38.575 28.175 38.17 27.845C38.11 29.81 38.02 30.245 37.63 30.245H36.865C36.55 30.245 36.445 30.125 36.445 29.72V26.39H34.78ZM34.165 20.915V23.3C34.165 25.625 33.745 28.61 29.905 30.605C30.25 30.875 30.82 31.535 31.03 31.88C35.08 29.735 35.83 26.015 35.83 23.33V20.915H34.165Z" fill="#7C8499"/>
<rect x="182" y="11.75" width="26.5" height="26.5" rx="6" fill="#383C45"/>
<path d="M193.082 25.4316H197.418V27.7388H193.082V25.4316Z" fill="#7C8499"/>
<path d="M249.291 33H237.357C237.494 31.8216 237.908 30.7148 238.598 29.6797C239.294 28.638 240.596 27.4108 242.504 25.998C243.669 25.1322 244.415 24.4746 244.74 24.0254C245.066 23.5762 245.229 23.1497 245.229 22.7461C245.229 22.3099 245.066 21.9388 244.74 21.6328C244.421 21.3203 244.018 21.1641 243.529 21.1641C243.021 21.1641 242.605 21.3236 242.279 21.6426C241.96 21.9616 241.745 22.5247 241.635 23.332L237.65 23.0098C237.807 21.89 238.093 21.0176 238.51 20.3926C238.926 19.7611 239.512 19.2793 240.268 18.9473C241.029 18.6087 242.081 18.4395 243.422 18.4395C244.822 18.4395 245.909 18.599 246.684 18.918C247.465 19.237 248.077 19.7285 248.52 20.3926C248.969 21.0501 249.193 21.7891 249.193 22.6094C249.193 23.4818 248.936 24.3151 248.422 25.1094C247.914 25.9036 246.986 26.776 245.639 27.7266C244.838 28.2799 244.301 28.6673 244.027 28.8887C243.76 29.11 243.445 29.3997 243.08 29.7578H249.291V33Z" fill="white"/>
<rect x="278.5" y="11.75" width="26.5" height="26.5" rx="6" fill="#383C45"/>
<path d="M287.729 23.9521H290.534V21.1323H292.9V23.9521H295.72V26.3252H292.9V29.1304H290.534V26.3252H287.729V23.9521Z" fill="#7C8499"/>
<rect x="0.5" y="0.5" width="314" height="49" rx="9.5" stroke="#55657E"/>
<rect y="70" width="315" height="77" rx="8" fill="#F04E23"/>
<g filter="url(#filter0_d_1722_52051)">
<path d="M141.426 101.194V102.85H144.594V106.774C144.594 106.882 144.576 107.026 144.576 107.17H140.49V108.826H144.45C144.306 110.104 144.072 111.22 143.73 112.156C143.208 113.452 142.218 114.532 140.778 115.378L141.696 116.818C143.298 116.008 144.45 114.838 145.134 113.326C145.674 112.12 146.016 110.626 146.196 108.826H151.02V116.62H152.73V108.826H156.528V107.17H152.73V102.85H155.61V101.194H141.426ZM146.322 102.85H151.02V107.17H146.304C146.304 107.044 146.322 106.918 146.322 106.774V102.85ZM160.254 100.132C160.11 101.302 159.948 102.436 159.786 103.534H158.256V105.172H159.516C159.192 106.954 158.814 108.61 158.418 110.122C159.246 110.914 160.002 111.67 160.704 112.39C160.074 113.614 159.264 114.694 158.256 115.594L159.336 116.944C160.344 116.008 161.19 114.91 161.874 113.65C162.486 114.334 163.008 114.964 163.458 115.576L164.61 114.226C164.106 113.56 163.44 112.804 162.648 111.976C163.476 109.852 163.944 107.368 164.052 104.488V103.534H161.496C161.64 102.526 161.784 101.428 161.928 100.276L160.254 100.132ZM161.424 110.734C161.064 110.374 160.668 110.014 160.254 109.618C160.596 108.43 160.92 106.936 161.226 105.172H162.468C162.36 107.242 162 109.096 161.424 110.734ZM173.52 108.97H165.33V116.872H166.95V115.864H171.882V116.872H173.52V108.97ZM166.95 114.262V110.536H171.882V114.262H166.95ZM164.718 107.656C167.58 107.476 170.19 107.224 172.53 106.9C172.71 107.296 172.89 107.728 173.07 108.196L174.636 107.44C173.808 105.55 172.944 103.822 172.008 102.256L170.55 102.958C170.982 103.732 171.432 104.56 171.864 105.46C170.244 105.712 168.57 105.892 166.842 106C167.85 104.596 168.822 102.832 169.794 100.744L168.174 100.204C166.572 103.858 165.33 105.82 164.448 106.108L164.718 107.656Z" fill="white"/>
</g>
<defs>
<filter id="filter0_d_1722_52051" x="136.49" y="98.1328" width="42.1465" height="24.8105" filterUnits="userSpaceOnUse" color-interpolation-filters="sRGB">
<feFlood flood-opacity="0" result="BackgroundImageFix"/>
<feColorMatrix in="SourceAlpha" type="matrix" values="0 0 0 0 0 0 0 0 0 0 0 0 0 0 0 0 0 0 127 0" result="hardAlpha"/>
<feOffset dy="2"/>
<feGaussianBlur stdDeviation="2"/>
<feComposite in2="hardAlpha" operator="out"/>
<feColorMatrix type="matrix" values="0 0 0 0 0 0 0 0 0 0 0 0 0 0 0 0 0 0 0.3 0"/>
<feBlend mode="normal" in2="BackgroundImageFix" result="effect1_dropShadow_1722_52051"/>
<feBlend mode="normal" in="SourceGraphic" in2="effect1_dropShadow_1722_52051" result="shape"/>
</filter>
</defs>
</svg>
