<svg width="315" height="147" viewBox="0 0 315 147" fill="none" xmlns="http://www.w3.org/2000/svg">
<rect x="0.5" y="0.5" width="314" height="49" rx="9.5" fill="#161F2C"/>
<path d="M13.36 30.65C12.91 30.65 12.53 30.58 12.22 30.44C11.91 30.3 11.675 30.09 11.515 29.81C11.355 29.52 11.275 29.16 11.275 28.73V22.28H13.525V28.46C13.525 28.65 13.565 28.79 13.645 28.88C13.735 28.97 13.87 29.015 14.05 29.015C14.13 29.015 14.215 29.005 14.305 28.985C14.395 28.965 14.48 28.94 14.56 28.91L14.77 30.35C14.58 30.45 14.365 30.525 14.125 30.575C13.885 30.625 13.63 30.65 13.36 30.65ZM17.1475 30.5L14.7625 22.28H17.0275L18.8425 28.685H18.9325C19.0925 28.685 19.2425 28.64 19.3825 28.55C19.5225 28.46 19.6425 28.34 19.7425 28.19C19.9425 27.91 20.0925 27.58 20.1925 27.2C20.2925 26.81 20.3425 26.425 20.3425 26.045C20.3425 25.375 20.2125 24.86 19.9525 24.5C19.7025 24.14 19.3525 23.96 18.9025 23.96C18.8125 23.96 18.7275 23.965 18.6475 23.975C18.5775 23.985 18.5125 24.005 18.4525 24.035L18.0325 22.31C18.2625 22.24 18.4775 22.2 18.6775 22.19C18.8875 22.17 19.0575 22.16 19.1875 22.16C19.7175 22.16 20.1775 22.23 20.5675 22.37C20.9575 22.51 21.2925 22.72 21.5725 23C21.9225 23.34 22.1825 23.765 22.3525 24.275C22.5325 24.785 22.6225 25.36 22.6225 26C22.6225 26.81 22.4925 27.52 22.2325 28.13C21.9825 28.73 21.6775 29.205 21.3175 29.555C21.0175 29.845 20.6375 30.075 20.1775 30.245C19.7275 30.415 19.1075 30.5 18.3175 30.5H17.1475ZM14.9968 21.14V20.195L16.5118 19.565H21.8668V21.14H14.9968ZM27.1118 30.65C26.5018 30.65 25.9868 30.535 25.5668 30.305C25.1568 30.065 24.8418 29.71 24.6218 29.24C24.4118 28.77 24.3068 28.195 24.3068 27.515V22.28H26.5568V27.125C26.5568 27.675 26.6668 28.075 26.8868 28.325C27.1068 28.575 27.4268 28.7 27.8468 28.7C28.3768 28.7 28.7868 28.5 29.0768 28.1C29.3668 27.69 29.5118 27.06 29.5118 26.21V22.28H31.7618V30.5H30.0518L29.8118 29.24H29.6768C29.5068 29.64 29.2118 29.975 28.7918 30.245C28.3818 30.515 27.8218 30.65 27.1118 30.65ZM38.6841 30.5V25.16C38.6841 24.68 38.5541 24.335 38.2941 24.125C38.0341 23.915 37.6341 23.81 37.0941 23.81C36.5741 23.81 36.0641 23.89 35.5641 24.05C35.0741 24.2 34.6491 24.38 34.2891 24.59V22.73C34.5791 22.59 34.9891 22.45 35.5191 22.31C36.0491 22.16 36.6591 22.085 37.3491 22.085C37.8791 22.085 38.3541 22.15 38.7741 22.28C39.2041 22.41 39.5141 22.665 39.7041 23.045C40.1241 23.175 40.4241 23.43 40.6041 23.81C40.7941 24.18 40.8891 24.66 40.8891 25.25V30.5H38.6841ZM36.2241 30.65C35.3641 30.65 34.6991 30.445 34.2291 30.035C33.7691 29.625 33.5391 29.05 33.5391 28.31C33.5391 27.51 33.8241 26.87 34.3941 26.39C34.9741 25.91 35.8841 25.62 37.1241 25.52L39.0441 25.37V26.99L37.3791 27.155C36.7791 27.215 36.3591 27.335 36.1191 27.515C35.8891 27.695 35.7741 27.935 35.7741 28.235C35.7741 28.535 35.8691 28.76 36.0591 28.91C36.2591 29.06 36.5141 29.135 36.8241 29.135C36.9441 29.135 37.0641 29.125 37.1841 29.105C37.3041 29.075 37.4141 29.045 37.5141 29.015L37.7091 30.425C37.5191 30.495 37.2941 30.55 37.0341 30.59C36.7741 30.63 36.5041 30.65 36.2241 30.65ZM39.6591 23.915L38.4291 22.88C38.7791 22.76 39.0541 22.61 39.2541 22.43C39.4541 22.24 39.5591 22.01 39.5691 21.74H41.5341C41.5341 22.05 41.4691 22.35 41.3391 22.64C41.2191 22.92 41.0191 23.17 40.7391 23.39C40.4691 23.61 40.1091 23.785 39.6591 23.915ZM45.9825 30.65C45.1725 30.65 44.5275 30.475 44.0475 30.125C43.5675 29.765 43.2225 29.275 43.0125 28.655C42.8025 28.025 42.6975 27.305 42.6975 26.495C42.6975 25.625 42.7925 24.905 42.9825 24.335C43.1825 23.755 43.4625 23.305 43.8225 22.985C44.1825 22.655 44.6075 22.425 45.0975 22.295C45.5975 22.155 46.1425 22.085 46.7325 22.085C47.6325 22.085 48.3525 22.21 48.8925 22.46C49.4325 22.71 49.8225 23.065 50.0625 23.525C50.3125 23.985 50.4375 24.525 50.4375 25.145V30.5H48.1875V25.325C48.1875 24.855 48.0725 24.5 47.8425 24.26C47.6225 24.01 47.2525 23.885 46.7325 23.885C46.3825 23.885 46.0725 23.96 45.8025 24.11C45.5425 24.25 45.3375 24.505 45.1875 24.875C45.0475 25.245 44.9775 25.775 44.9775 26.465C44.9775 26.935 45.0225 27.35 45.1125 27.71C45.2025 28.07 45.3475 28.35 45.5475 28.55C45.7575 28.75 46.0375 28.85 46.3875 28.85C46.4975 28.85 46.6025 28.845 46.7025 28.835C46.8125 28.815 46.9075 28.795 46.9875 28.775L47.1975 30.455C47.0375 30.525 46.8425 30.575 46.6125 30.605C46.3925 30.635 46.1825 30.65 45.9825 30.65Z" fill="#7C8499"/>
<rect x="182" y="11.75" width="26.5" height="26.5" rx="6" fill="#383C45"/>
<path d="M193.082 25.4316H197.418V27.7388H193.082V25.4316Z" fill="#7C8499"/>
<path d="M249.291 33H237.357C237.494 31.8216 237.908 30.7148 238.598 29.6797C239.294 28.638 240.596 27.4108 242.504 25.998C243.669 25.1322 244.415 24.4746 244.74 24.0254C245.066 23.5762 245.229 23.1497 245.229 22.7461C245.229 22.3099 245.066 21.9388 244.74 21.6328C244.421 21.3203 244.018 21.1641 243.529 21.1641C243.021 21.1641 242.605 21.3236 242.279 21.6426C241.96 21.9616 241.745 22.5247 241.635 23.332L237.65 23.0098C237.807 21.89 238.093 21.0176 238.51 20.3926C238.926 19.7611 239.512 19.2793 240.268 18.9473C241.029 18.6087 242.081 18.4395 243.422 18.4395C244.822 18.4395 245.909 18.599 246.684 18.918C247.465 19.237 248.077 19.7285 248.52 20.3926C248.969 21.0501 249.193 21.7891 249.193 22.6094C249.193 23.4818 248.936 24.3151 248.422 25.1094C247.914 25.9036 246.986 26.776 245.639 27.7266C244.838 28.2799 244.301 28.6673 244.027 28.8887C243.76 29.11 243.445 29.3997 243.08 29.7578H249.291V33Z" fill="white"/>
<rect x="278.5" y="11.75" width="26.5" height="26.5" rx="6" fill="#383C45"/>
<path d="M287.729 23.9521H290.534V21.1323H292.9V23.9521H295.72V26.3252H292.9V29.1304H290.534V26.3252H287.729V23.9521Z" fill="#7C8499"/>
<rect x="0.5" y="0.5" width="314" height="49" rx="9.5" stroke="#55657E"/>
<rect y="70" width="315" height="77" rx="8" fill="#F04E23"/>
<g filter="url(#filter0_d_1722_52050)">
<path d="M141.625 116.18C141.085 116.18 140.629 116.096 140.257 115.928C139.885 115.76 139.603 115.508 139.411 115.172C139.219 114.824 139.123 114.392 139.123 113.876V106.136H141.823V113.552C141.823 113.78 141.871 113.948 141.967 114.056C142.075 114.164 142.237 114.218 142.453 114.218C142.549 114.218 142.651 114.206 142.759 114.182C142.867 114.158 142.969 114.128 143.065 114.092L143.317 115.82C143.089 115.94 142.831 116.03 142.543 116.09C142.255 116.15 141.949 116.18 141.625 116.18ZM148.301 116.234C147.593 116.234 146.879 116.156 146.159 116C145.451 115.844 144.821 115.622 144.269 115.334L145.025 113.192C145.265 113.324 145.553 113.462 145.889 113.606C146.225 113.75 146.591 113.87 146.987 113.966C147.383 114.062 147.785 114.11 148.193 114.11C148.673 114.11 149.033 114.044 149.273 113.912C149.525 113.768 149.651 113.552 149.651 113.264C149.651 113.048 149.567 112.874 149.399 112.742C149.243 112.598 149.009 112.466 148.697 112.346C148.385 112.214 148.013 112.076 147.581 111.932C146.945 111.704 146.399 111.458 145.943 111.194C145.487 110.93 145.133 110.606 144.881 110.222C144.641 109.838 144.521 109.358 144.521 108.782C144.521 108.122 144.689 107.582 145.025 107.162C145.361 106.742 145.835 106.43 146.447 106.226C147.059 106.01 147.773 105.902 148.589 105.902C149.261 105.902 149.867 105.956 150.407 106.064C150.947 106.172 151.367 106.31 151.667 106.478V108.602C151.463 108.506 151.193 108.41 150.857 108.314C150.533 108.218 150.179 108.14 149.795 108.08C149.423 108.008 149.063 107.972 148.715 107.972C148.223 107.972 147.851 108.038 147.599 108.17C147.347 108.302 147.221 108.488 147.221 108.728C147.221 108.92 147.305 109.082 147.473 109.214C147.653 109.346 147.911 109.472 148.247 109.592C148.583 109.7 148.985 109.838 149.453 110.006C150.077 110.222 150.605 110.462 151.037 110.726C151.469 110.99 151.793 111.314 152.009 111.698C152.237 112.082 152.351 112.556 152.351 113.12C152.351 113.66 152.225 114.17 151.973 114.65C151.733 115.118 151.319 115.502 150.731 115.802C150.143 116.09 149.333 116.234 148.301 116.234ZM143.519 104.768V103.634L145.337 102.878H151.763V104.768H143.519ZM149.441 101.682V98.334H151.781V101.682H149.441ZM160.048 116.18C159.196 116.18 158.506 116.018 157.978 115.694C157.462 115.37 157.096 114.956 156.88 114.452H156.736L156.448 116H154.396V106.136H157.096V110.852C157.096 111.536 157.174 112.1 157.33 112.544C157.486 112.976 157.714 113.3 158.014 113.516C158.314 113.732 158.674 113.84 159.094 113.84C159.598 113.84 159.982 113.69 160.246 113.39C160.51 113.09 160.642 112.61 160.642 111.95V106.136H163.342V112.544C163.342 113.324 163.216 113.984 162.964 114.524C162.724 115.064 162.358 115.478 161.866 115.766C161.374 116.042 160.768 116.18 160.048 116.18ZM166.5 107.936V105.308C166.5 104.852 166.542 104.486 166.626 104.21C166.71 103.922 166.824 103.688 166.968 103.508C167.112 103.328 167.262 103.178 167.418 103.058L167.4 102.986H164.61L165.114 101.042H170.838V102.986C170.394 102.986 170.01 103.13 169.686 103.418C169.362 103.706 169.2 104.234 169.2 105.002V107.936H166.5ZM169.002 116.18C168.462 116.18 168.006 116.096 167.634 115.928C167.262 115.76 166.98 115.508 166.788 115.172C166.596 114.824 166.5 114.392 166.5 113.876V106.136H169.2V113.552C169.2 113.78 169.248 113.948 169.344 114.056C169.452 114.164 169.614 114.218 169.83 114.218C169.926 114.218 170.028 114.206 170.136 114.182C170.244 114.158 170.346 114.128 170.442 114.092L170.694 115.82C170.466 115.94 170.208 116.03 169.92 116.09C169.632 116.15 169.326 116.18 169.002 116.18ZM175.481 116.18C174.509 116.18 173.735 115.97 173.159 115.55C172.583 115.118 172.169 114.53 171.917 113.786C171.665 113.03 171.539 112.166 171.539 111.194C171.539 110.15 171.653 109.286 171.881 108.602C172.121 107.906 172.457 107.366 172.889 106.982C173.321 106.586 173.831 106.31 174.419 106.154C175.019 105.986 175.673 105.902 176.381 105.902C177.461 105.902 178.325 106.052 178.973 106.352C179.621 106.652 180.089 107.078 180.377 107.63C180.677 108.182 180.827 108.83 180.827 109.574V116H178.127V109.79C178.127 109.226 177.989 108.8 177.713 108.512C177.449 108.212 177.005 108.062 176.381 108.062C175.961 108.062 175.589 108.152 175.265 108.332C174.953 108.5 174.707 108.806 174.527 109.25C174.359 109.694 174.275 110.33 174.275 111.158C174.275 111.722 174.329 112.22 174.437 112.652C174.545 113.084 174.719 113.42 174.959 113.66C175.211 113.9 175.547 114.02 175.967 114.02C176.099 114.02 176.225 114.014 176.345 114.002C176.477 113.978 176.591 113.954 176.687 113.93L176.939 115.946C176.747 116.03 176.513 116.09 176.237 116.126C175.973 116.162 175.721 116.18 175.481 116.18ZM175.014 104.786V103.886C175.182 103.838 175.368 103.772 175.572 103.688C175.776 103.604 175.956 103.49 176.112 103.346C176.268 103.202 176.346 103.022 176.346 102.806C176.346 102.638 176.298 102.506 176.202 102.41C176.106 102.314 175.986 102.266 175.842 102.266C175.746 102.266 175.644 102.284 175.536 102.32C175.428 102.356 175.332 102.392 175.248 102.428L174.906 101.222C175.146 101.018 175.446 100.886 175.806 100.826C176.154 100.754 176.448 100.718 176.688 100.718C177.228 100.718 177.654 100.844 177.966 101.096C178.266 101.348 178.416 101.72 178.416 102.212C178.416 102.476 178.35 102.722 178.218 102.95C178.074 103.178 177.858 103.364 177.57 103.508L177.498 103.04H180.9V104.786H175.014Z" fill="white"/>
</g>
<defs>
<filter id="filter0_d_1722_52050" x="135.123" y="96.334" width="49.7773" height="25.9004" filterUnits="userSpaceOnUse" color-interpolation-filters="sRGB">
<feFlood flood-opacity="0" result="BackgroundImageFix"/>
<feColorMatrix in="SourceAlpha" type="matrix" values="0 0 0 0 0 0 0 0 0 0 0 0 0 0 0 0 0 0 127 0" result="hardAlpha"/>
<feOffset dy="2"/>
<feGaussianBlur stdDeviation="2"/>
<feComposite in2="hardAlpha" operator="out"/>
<feColorMatrix type="matrix" values="0 0 0 0 0 0 0 0 0 0 0 0 0 0 0 0 0 0 0.3 0"/>
<feBlend mode="normal" in2="BackgroundImageFix" result="effect1_dropShadow_1722_52050"/>
<feBlend mode="normal" in="SourceGraphic" in2="effect1_dropShadow_1722_52050" result="shape"/>
</filter>
</defs>
</svg>
