<svg width="315" height="147" viewBox="0 0 315 147" fill="none" xmlns="http://www.w3.org/2000/svg">
<rect x="0.5" y="0.5" width="314" height="49" rx="9.5" fill="white"/>
<path d="M18.2471 26.1128L21.1548 26.9917C20.9595 27.8071 20.6519 28.4883 20.2319 29.0352C19.812 29.582 19.2896 29.9946 18.6646 30.2729C18.0444 30.5513 17.2534 30.6904 16.2915 30.6904C15.1245 30.6904 14.1699 30.522 13.4277 30.1851C12.6904 29.8433 12.0532 29.2451 11.5161 28.3906C10.979 27.5361 10.7104 26.4424 10.7104 25.1094C10.7104 23.332 11.1816 21.9673 12.124 21.0151C13.0713 20.0581 14.4092 19.5796 16.1377 19.5796C17.4902 19.5796 18.5522 19.853 19.3237 20.3999C20.1001 20.9468 20.6763 21.7866 21.0522 22.9194L18.1226 23.5713C18.02 23.2441 17.9126 23.0049 17.8003 22.8535C17.6147 22.5996 17.3877 22.4043 17.1191 22.2676C16.8506 22.1309 16.5503 22.0625 16.2183 22.0625C15.4663 22.0625 14.8901 22.3652 14.4897 22.9707C14.187 23.4199 14.0356 24.1255 14.0356 25.0874C14.0356 26.2788 14.2163 27.0967 14.5776 27.541C14.939 27.9805 15.4468 28.2002 16.1011 28.2002C16.7358 28.2002 17.2144 28.022 17.5366 27.6655C17.8638 27.3091 18.1006 26.7915 18.2471 26.1128ZM29.3799 28.7275H25.6006L25.0806 30.5H21.6895L25.7251 19.7627H29.3433L33.3789 30.5H29.9072L29.3799 28.7275ZM28.6841 26.4058L27.4976 22.5459L26.3184 26.4058H28.6841ZM33.8696 26.9478L37.0264 26.75C37.0947 27.2627 37.2339 27.6533 37.4438 27.9219C37.7856 28.3564 38.2739 28.5737 38.9087 28.5737C39.3823 28.5737 39.7461 28.4639 40 28.2441C40.2588 28.0195 40.3882 27.7607 40.3882 27.4678C40.3882 27.1895 40.2661 26.9404 40.022 26.7207C39.7778 26.501 39.2114 26.2935 38.3228 26.0981C36.8677 25.771 35.8301 25.3364 35.21 24.7944C34.585 24.2524 34.2725 23.5615 34.2725 22.7217C34.2725 22.1699 34.4312 21.6499 34.7485 21.1616C35.0708 20.6685 35.5518 20.2827 36.1914 20.0044C36.8359 19.7212 37.7173 19.5796 38.8354 19.5796C40.2075 19.5796 41.2524 19.8359 41.9702 20.3486C42.6929 20.8564 43.1226 21.667 43.2593 22.7803L40.1318 22.9634C40.0488 22.48 39.873 22.1284 39.6045 21.9087C39.3408 21.689 38.9746 21.5791 38.5059 21.5791C38.1201 21.5791 37.8296 21.6621 37.6343 21.8281C37.439 21.9893 37.3413 22.187 37.3413 22.4214C37.3413 22.5923 37.4219 22.7461 37.583 22.8828C37.7393 23.0244 38.1104 23.1562 38.6963 23.2783C40.1465 23.5908 41.1841 23.9082 41.8091 24.2305C42.439 24.5479 42.8955 24.9434 43.1787 25.417C43.4668 25.8906 43.6108 26.4204 43.6108 27.0063C43.6108 27.6948 43.4204 28.3296 43.0396 28.9106C42.6587 29.4917 42.1265 29.9336 41.4429 30.2363C40.7593 30.5342 39.8975 30.6831 38.8574 30.6831C37.0312 30.6831 35.7666 30.3315 35.0635 29.6284C34.3604 28.9253 33.9624 28.0317 33.8696 26.9478ZM45.3027 19.7627H48.6206V23.52H52.2461V19.7627H55.5786V30.5H52.2461V26.1567H48.6206V30.5H45.3027V19.7627ZM57.3657 25.1387C57.3657 23.3857 57.854 22.021 58.8306 21.0444C59.8071 20.0679 61.167 19.5796 62.9102 19.5796C64.6973 19.5796 66.0742 20.0605 67.041 21.0225C68.0078 21.9795 68.4912 23.3223 68.4912 25.0508C68.4912 26.3057 68.2788 27.3359 67.854 28.1416C67.4341 28.9424 66.8237 29.5674 66.0229 30.0166C65.2271 30.4609 64.2334 30.6831 63.042 30.6831C61.8311 30.6831 60.8276 30.4902 60.0317 30.1045C59.2407 29.7188 58.5986 29.1084 58.1055 28.2734C57.6123 27.4385 57.3657 26.3936 57.3657 25.1387ZM60.6836 25.1533C60.6836 26.2373 60.8838 27.0161 61.2842 27.4897C61.6895 27.9634 62.2388 28.2002 62.9321 28.2002C63.645 28.2002 64.1968 27.9683 64.5874 27.5044C64.978 27.0405 65.1733 26.208 65.1733 25.0068C65.1733 23.9961 64.9683 23.2588 64.5581 22.7949C64.1528 22.3262 63.6011 22.0918 62.9028 22.0918C62.2339 22.0918 61.6968 22.3286 61.2915 22.8022C60.8862 23.2759 60.6836 24.0596 60.6836 25.1533ZM77.2656 19.7627H80.5762V26.1641C80.5762 26.7988 80.4761 27.3994 80.2759 27.9658C80.0806 28.5273 79.7705 29.0205 79.3457 29.4453C78.9258 29.8652 78.4839 30.1606 78.02 30.3315C77.3755 30.5708 76.6016 30.6904 75.6982 30.6904C75.1758 30.6904 74.6045 30.6538 73.9844 30.5806C73.3691 30.5073 72.854 30.3633 72.439 30.1484C72.0239 29.9287 71.6431 29.6187 71.2964 29.2183C70.9546 28.8179 70.7202 28.4053 70.5933 27.9805C70.3882 27.2969 70.2856 26.6914 70.2856 26.1641V19.7627H73.5962V26.3179C73.5962 26.9038 73.7573 27.3628 74.0796 27.6948C74.4067 28.022 74.8584 28.1855 75.4346 28.1855C76.0059 28.1855 76.4526 28.0244 76.7749 27.7021C77.1021 27.375 77.2656 26.9136 77.2656 26.3179V19.7627ZM82.019 19.7627H92.1045V22.4141H88.7207V30.5H85.4028V22.4141H82.019V19.7627ZM105.229 28.7275H101.45L100.93 30.5H97.5391L101.575 19.7627H105.193L109.229 30.5H105.757L105.229 28.7275ZM104.534 26.4058L103.347 22.5459L102.168 26.4058H104.534ZM108.503 19.7627H118.589V22.4141H115.205V30.5H111.887V22.4141H108.503V19.7627Z" fill="#A6A6A6"/>
<rect x="182" y="11.75" width="26.5" height="26.5" rx="6" fill="#F1F1F1"/>
<path d="M193.082 25.4316H197.418V27.7388H193.082V25.4316Z" fill="#A6A6A6"/>
<path d="M249.291 33H237.357C237.494 31.8216 237.908 30.7148 238.598 29.6797C239.294 28.638 240.596 27.4108 242.504 25.998C243.669 25.1322 244.415 24.4746 244.74 24.0254C245.066 23.5762 245.229 23.1497 245.229 22.7461C245.229 22.3099 245.066 21.9388 244.74 21.6328C244.421 21.3203 244.018 21.1641 243.529 21.1641C243.021 21.1641 242.605 21.3236 242.279 21.6426C241.96 21.9616 241.745 22.5247 241.635 23.332L237.65 23.0098C237.807 21.89 238.093 21.0176 238.51 20.3926C238.926 19.7611 239.512 19.2793 240.268 18.9473C241.029 18.6087 242.081 18.4395 243.422 18.4395C244.822 18.4395 245.909 18.599 246.684 18.918C247.465 19.237 248.077 19.7285 248.52 20.3926C248.969 21.0501 249.193 21.7891 249.193 22.6094C249.193 23.4818 248.936 24.3151 248.422 25.1094C247.914 25.9036 246.986 26.776 245.639 27.7266C244.838 28.2799 244.301 28.6673 244.027 28.8887C243.76 29.11 243.445 29.3997 243.08 29.7578H249.291V33Z" fill="#484848"/>
<rect x="278.5" y="11.75" width="26.5" height="26.5" rx="6" fill="#F1F1F1"/>
<path d="M287.729 23.9521H290.534V21.1323H292.9V23.9521H295.72V26.3252H292.9V29.1304H290.534V26.3252H287.729V23.9521Z" fill="#A6A6A6"/>
<rect x="0.5" y="0.5" width="314" height="49" rx="9.5" stroke="#ECECEC"/>
<rect y="70" width="315" height="77" rx="8" fill="#FB6943"/>
<g filter="url(#filter0_d_1722_52057)">
<path d="M133.172 111.737L136.96 111.5C137.042 112.115 137.209 112.584 137.461 112.906C137.871 113.428 138.457 113.688 139.219 113.688C139.787 113.688 140.224 113.557 140.528 113.293C140.839 113.023 140.994 112.713 140.994 112.361C140.994 112.027 140.848 111.729 140.555 111.465C140.262 111.201 139.582 110.952 138.516 110.718C136.77 110.325 135.524 109.804 134.78 109.153C134.03 108.503 133.655 107.674 133.655 106.666C133.655 106.004 133.846 105.38 134.227 104.794C134.613 104.202 135.19 103.739 135.958 103.405C136.731 103.065 137.789 102.896 139.131 102.896C140.777 102.896 142.031 103.203 142.893 103.818C143.76 104.428 144.275 105.4 144.439 106.736L140.687 106.956C140.587 106.376 140.376 105.954 140.054 105.69C139.737 105.427 139.298 105.295 138.735 105.295C138.272 105.295 137.924 105.395 137.689 105.594C137.455 105.787 137.338 106.024 137.338 106.306C137.338 106.511 137.435 106.695 137.628 106.859C137.815 107.029 138.261 107.188 138.964 107.334C140.704 107.709 141.949 108.09 142.699 108.477C143.455 108.857 144.003 109.332 144.343 109.9C144.688 110.469 144.861 111.104 144.861 111.808C144.861 112.634 144.633 113.396 144.176 114.093C143.719 114.79 143.08 115.32 142.26 115.684C141.439 116.041 140.405 116.22 139.157 116.22C136.966 116.22 135.448 115.798 134.604 114.954C133.761 114.11 133.283 113.038 133.172 111.737ZM150.952 103.115V106.666H152.921V109.276H150.952V112.59C150.952 112.988 150.99 113.252 151.066 113.381C151.184 113.58 151.389 113.68 151.682 113.68C151.945 113.68 152.314 113.604 152.789 113.451L153.053 115.921C152.168 116.114 151.342 116.211 150.574 116.211C149.684 116.211 149.027 116.097 148.605 115.868C148.184 115.64 147.87 115.294 147.665 114.831C147.466 114.362 147.366 113.606 147.366 112.563V109.276H146.048V106.666H147.366V104.952L150.952 103.115ZM157.896 109.689L154.477 109.329C154.605 108.731 154.79 108.263 155.03 107.923C155.276 107.577 155.628 107.278 156.085 107.026C156.413 106.845 156.864 106.704 157.438 106.604C158.013 106.505 158.634 106.455 159.302 106.455C160.374 106.455 161.235 106.517 161.886 106.64C162.536 106.757 163.078 107.006 163.512 107.387C163.816 107.65 164.057 108.025 164.232 108.512C164.408 108.992 164.496 109.452 164.496 109.892V114.014C164.496 114.453 164.522 114.799 164.575 115.051C164.634 115.297 164.757 115.613 164.944 116H161.587C161.452 115.76 161.364 115.578 161.323 115.455C161.282 115.326 161.241 115.127 161.2 114.857C160.731 115.309 160.266 115.631 159.803 115.824C159.17 116.082 158.435 116.211 157.597 116.211C156.483 116.211 155.637 115.953 155.057 115.438C154.482 114.922 154.195 114.286 154.195 113.53C154.195 112.821 154.403 112.238 154.819 111.781C155.235 111.324 156.003 110.984 157.122 110.762C158.464 110.492 159.334 110.305 159.732 110.199C160.131 110.088 160.553 109.944 160.998 109.769C160.998 109.329 160.907 109.021 160.726 108.846C160.544 108.67 160.225 108.582 159.768 108.582C159.182 108.582 158.742 108.676 158.449 108.863C158.221 109.01 158.036 109.285 157.896 109.689ZM160.998 111.57C160.506 111.746 159.993 111.901 159.46 112.036C158.733 112.229 158.273 112.42 158.08 112.607C157.881 112.801 157.781 113.021 157.781 113.267C157.781 113.548 157.878 113.779 158.071 113.961C158.271 114.137 158.561 114.225 158.941 114.225C159.34 114.225 159.709 114.128 160.049 113.935C160.395 113.741 160.638 113.507 160.778 113.231C160.925 112.95 160.998 112.587 160.998 112.142V111.57ZM166.676 106.666H170.024V108.195C170.347 107.533 170.678 107.079 171.018 106.833C171.363 106.581 171.788 106.455 172.292 106.455C172.819 106.455 173.396 106.619 174.023 106.947L172.916 109.496C172.494 109.32 172.16 109.232 171.914 109.232C171.445 109.232 171.082 109.426 170.824 109.812C170.455 110.357 170.271 111.377 170.271 112.871V116H166.676V106.666ZM179.851 103.115V106.666H181.819V109.276H179.851V112.59C179.851 112.988 179.889 113.252 179.965 113.381C180.082 113.58 180.287 113.68 180.58 113.68C180.844 113.68 181.213 113.604 181.688 113.451L181.951 115.921C181.066 116.114 180.24 116.211 179.473 116.211C178.582 116.211 177.926 116.097 177.504 115.868C177.082 115.64 176.769 115.294 176.563 114.831C176.364 114.362 176.265 113.606 176.265 112.563V109.276H174.946V106.666H176.265V104.952L179.851 103.115Z" fill="white"/>
</g>
<defs>
<filter id="filter0_d_1722_52057" x="129.172" y="100.895" width="56.7793" height="21.3242" filterUnits="userSpaceOnUse" color-interpolation-filters="sRGB">
<feFlood flood-opacity="0" result="BackgroundImageFix"/>
<feColorMatrix in="SourceAlpha" type="matrix" values="0 0 0 0 0 0 0 0 0 0 0 0 0 0 0 0 0 0 127 0" result="hardAlpha"/>
<feOffset dy="2"/>
<feGaussianBlur stdDeviation="2"/>
<feComposite in2="hardAlpha" operator="out"/>
<feColorMatrix type="matrix" values="0 0 0 0 0 0 0 0 0 0 0 0 0 0 0 0 0 0 0.3 0"/>
<feBlend mode="normal" in2="BackgroundImageFix" result="effect1_dropShadow_1722_52057"/>
<feBlend mode="normal" in="SourceGraphic" in2="effect1_dropShadow_1722_52057" result="shape"/>
</filter>
</defs>
</svg>
