<svg width="14" height="14" viewBox="0 0 14 14" fill="none" xmlns="http://www.w3.org/2000/svg">
<path fill-rule="evenodd" clip-rule="evenodd" d="M4.60355 2.03932C4.88485 1.75801 5.26638 1.59998 5.66421 1.59998H8.68578C9.0836 1.59998 9.46514 1.75801 9.74644 2.03932L10.5607 2.85353C10.6544 2.9473 10.7816 2.99998 10.9142 2.99998H11.6C12.4284 2.99998 13.1 3.67155 13.1 4.49998V10.9C13.1 11.7284 12.4284 12.4 11.6 12.4H2.39999C1.57157 12.4 0.899994 11.7284 0.899994 10.9V4.49998C0.899994 3.67155 1.57157 2.99998 2.39999 2.99998H3.43578C3.56839 2.99998 3.69557 2.9473 3.78933 2.85353L4.60355 2.03932ZM5.66421 2.59998C5.5316 2.59998 5.40442 2.65265 5.31065 2.74642L4.49644 3.56064C4.21514 3.84194 3.8336 3.99998 3.43578 3.99998H2.39999C2.12385 3.99998 1.89999 4.22383 1.89999 4.49998V10.9C1.89999 11.1761 2.12385 11.4 2.39999 11.4H11.6C11.8761 11.4 12.1 11.1761 12.1 10.9V4.49998C12.1 4.22383 11.8761 3.99998 11.6 3.99998H10.9142C10.5164 3.99998 10.1349 3.84194 9.85355 3.56064L9.03933 2.74642C8.94557 2.65265 8.81839 2.59998 8.68578 2.59998H5.66421Z" fill="#1E2329"/>
<path fill-rule="evenodd" clip-rule="evenodd" d="M7.00001 8.79995C7.99412 8.79995 8.80001 7.99406 8.80001 6.99995C8.80001 6.00584 7.99412 5.19995 7.00001 5.19995C6.0059 5.19995 5.20001 6.00584 5.20001 6.99995C5.20001 7.99406 6.0059 8.79995 7.00001 8.79995ZM7.00001 9.79995C8.54641 9.79995 9.80001 8.54635 9.80001 6.99995C9.80001 5.45355 8.54641 4.19995 7.00001 4.19995C5.45361 4.19995 4.20001 5.45355 4.20001 6.99995C4.20001 8.54635 5.45361 9.79995 7.00001 9.79995Z" fill="#1E2329"/>
</svg>
