<svg width="14" height="14" viewBox="0 0 14 14" fill="none" xmlns="http://www.w3.org/2000/svg">
<g clip-path="url(#clip0_7125_66149)">
<path d="M5.22701 5.542V10.792C5.22829 10.8309 5.22151 10.8697 5.20708 10.9058C5.19266 10.942 5.17091 10.9747 5.1432 11.0021C5.11549 11.0294 5.08242 11.0507 5.04607 11.0646C5.00972 11.0786 4.97089 11.0848 4.93201 11.083H4.34001C4.30104 11.0848 4.26211 11.0785 4.2257 11.0646C4.18928 11.0506 4.15616 11.0292 4.12843 11.0017C4.10071 10.9743 4.07898 10.9414 4.06462 10.9051C4.05026 10.8688 4.04358 10.83 4.04501 10.791V5.541C4.04372 5.5021 4.0505 5.46335 4.06493 5.4272C4.07935 5.39104 4.1011 5.35827 4.12881 5.33093C4.15652 5.3036 4.18959 5.2823 4.22594 5.26837C4.26229 5.25444 4.30112 5.24818 4.34001 5.25H4.93001C4.96897 5.24818 5.0079 5.25446 5.04431 5.26845C5.08073 5.28243 5.11385 5.30383 5.14158 5.33127C5.1693 5.35871 5.19103 5.39161 5.20539 5.42789C5.21975 5.46416 5.22643 5.50301 5.22501 5.542H5.22601H5.22701ZM7.59101 5.542V10.792C7.5923 10.831 7.58549 10.8698 7.57101 10.9061C7.55652 10.9423 7.53468 10.9751 7.50686 11.0025C7.47904 11.0298 7.44585 11.0511 7.40938 11.0649C7.37291 11.0788 7.33397 11.085 7.29501 11.083H6.70501C6.66604 11.0848 6.62711 11.0785 6.5907 11.0646C6.55428 11.0506 6.52116 11.0292 6.49343 11.0017C6.46571 10.9743 6.44398 10.9414 6.42962 10.9051C6.41526 10.8688 6.40858 10.83 6.41001 10.791V5.541C6.40872 5.5021 6.4155 5.46335 6.42993 5.4272C6.44435 5.39104 6.4661 5.35827 6.49381 5.33093C6.52152 5.3036 6.55459 5.2823 6.59094 5.26837C6.62729 5.25444 6.66612 5.24818 6.70501 5.25H7.29501C7.33397 5.24818 7.3729 5.25446 7.40931 5.26845C7.44573 5.28243 7.47885 5.30383 7.50658 5.33127C7.5343 5.35871 7.55603 5.39161 7.57039 5.42789C7.58475 5.46416 7.59143 5.50301 7.59001 5.542H7.59101ZM9.95501 5.542V10.792C9.9563 10.831 9.94949 10.8698 9.93501 10.9061C9.92052 10.9423 9.89868 10.9751 9.87086 11.0025C9.84304 11.0298 9.80985 11.0511 9.77338 11.0649C9.73692 11.0788 9.69797 11.085 9.65901 11.083H9.06901C9.03004 11.0848 8.99111 11.0785 8.9547 11.0646C8.91828 11.0506 8.88516 11.0292 8.85744 11.0017C8.82971 10.9743 8.80798 10.9414 8.79362 10.9051C8.77926 10.8688 8.77258 10.83 8.77401 10.791L8.77301 5.541C8.77172 5.5021 8.7785 5.46335 8.79293 5.4272C8.80735 5.39104 8.8291 5.35827 8.85681 5.33093C8.88452 5.3036 8.91759 5.2823 8.95394 5.26837C8.99029 5.25444 9.02912 5.24818 9.06801 5.25H9.65901C9.69798 5.24818 9.7369 5.25446 9.77332 5.26845C9.80973 5.28243 9.84285 5.30383 9.87058 5.33127C9.8983 5.35871 9.92003 5.39161 9.93439 5.42789C9.94875 5.46416 9.95543 5.50301 9.95401 5.542H9.95501ZM11.136 12.141V3.5H2.86401V12.14C2.86162 12.3613 2.9311 12.5775 3.06201 12.756C3.10801 12.808 3.14101 12.833 3.15901 12.833H10.841C10.859 12.833 10.891 12.808 10.938 12.756C11.0691 12.5779 11.1389 12.3621 11.137 12.141H11.136ZM4.93201 2.333H9.06801L8.62501 1.267C8.58681 1.21543 8.53089 1.17982 8.46801 1.167H5.54101C5.47812 1.17982 5.4222 1.21543 5.38401 1.267L4.93201 2.333ZM13.5 2.625V3.208C13.5014 3.24699 13.4948 3.28584 13.4804 3.32211C13.466 3.35839 13.4443 3.39129 13.4166 3.41873C13.3889 3.44617 13.3557 3.46757 13.3193 3.48155C13.2829 3.49554 13.244 3.50182 13.205 3.5H12.318V12.14C12.318 12.645 12.174 13.08 11.884 13.449C11.594 13.816 11.247 14 10.841 14H3.15901C2.75301 14 2.40501 13.822 2.11601 13.467C1.82601 13.111 1.68201 12.681 1.68201 12.177V3.5H0.795005C0.756037 3.50182 0.717113 3.49554 0.680696 3.48155C0.644279 3.46757 0.61116 3.44617 0.583434 3.41873C0.555709 3.39129 0.533978 3.35839 0.519618 3.32211C0.505258 3.28584 0.498579 3.24699 0.500005 3.208V2.625C0.498579 2.58601 0.505258 2.54716 0.519618 2.51089C0.533978 2.47461 0.555709 2.44171 0.583434 2.41427C0.61116 2.38683 0.644279 2.36543 0.680696 2.35145C0.717113 2.33746 0.756037 2.33118 0.795005 2.333H3.64801L4.29501 0.811C4.38701 0.586 4.55301 0.395 4.793 0.237C5.03301 0.079 5.27701 0 5.52301 0H8.47701C8.72301 0 8.96701 0.079 9.20701 0.237C9.44701 0.395 9.61301 0.587 9.70501 0.811L10.352 2.333H13.205C13.244 2.33118 13.2829 2.33746 13.3193 2.35145C13.3557 2.36543 13.3889 2.38683 13.4166 2.41427C13.4443 2.44171 13.466 2.47461 13.4804 2.51089C13.4948 2.54716 13.5014 2.58601 13.5 2.625Z" fill="#B1BAD3"/>
</g>
<defs>
<clipPath id="clip0_7125_66149">
<rect width="14" height="14" fill="white"/>
</clipPath>
</defs>
</svg>
