<svg width="20" height="20" viewBox="0 0 20 20" fill="none" xmlns="http://www.w3.org/2000/svg">
<g id="Frame">
<path id="Vector" d="M9.99977 1.23999C11.2131 1.23999 12.3498 1.46999 13.4098 1.92999C14.4698 2.38999 15.3964 3.01332 16.1898 3.79999C16.9831 4.58666 17.6098 5.51332 18.0698 6.57999C18.5298 7.64666 18.7598 8.77999 18.7598 9.97999C18.7598 11.1933 18.5298 12.33 18.0698 13.39C17.6098 14.45 16.9831 15.3767 16.1898 16.17C15.3964 16.9633 14.4698 17.59 13.4098 18.05C12.3498 18.51 11.2131 18.74 9.99977 18.74C8.79977 18.74 7.66643 18.51 6.59977 18.05C5.5331 17.59 4.60643 16.9633 3.81977 16.17C3.0331 15.3767 2.40977 14.45 1.94977 13.39C1.48977 12.33 1.25977 11.1933 1.25977 9.97999C1.25977 8.77999 1.48977 7.64666 1.94977 6.57999C2.40977 5.51332 3.0331 4.58666 3.81977 3.79999C4.60643 3.01332 5.5331 2.38999 6.59977 1.92999C7.66643 1.46999 8.79977 1.23999 9.99977 1.23999ZM13.0998 4.93999C12.6464 4.93999 12.2631 5.12666 11.9498 5.49999C11.6364 5.87332 11.4798 6.32666 11.4798 6.85999C11.4798 7.40666 11.6364 7.86666 11.9498 8.23999C12.2631 8.61332 12.6464 8.79999 13.0998 8.79999C13.5531 8.79999 13.9364 8.61332 14.2498 8.23999C14.5631 7.86666 14.7198 7.40666 14.7198 6.85999C14.7198 6.32666 14.5631 5.87332 14.2498 5.49999C13.9364 5.12666 13.5531 4.93999 13.0998 4.93999ZM4.95977 8.71999H8.71977V7.47999H4.95977V8.71999ZM14.9598 12.48C14.9731 12.4533 14.9798 12.4067 14.9798 12.34C14.9798 12.2733 14.9698 12.2 14.9498 12.12C14.9298 12.04 14.8898 11.9667 14.8298 11.9C14.7698 11.8333 14.6864 11.78 14.5798 11.74C14.2731 12.1133 13.8931 12.4467 13.4398 12.74C13.0531 12.9933 12.5631 13.2233 11.9698 13.43C11.3764 13.6367 10.6798 13.74 9.87977 13.74C9.07977 13.74 8.39977 13.6367 7.83977 13.43C7.27977 13.2233 6.80643 12.9933 6.41977 12.74C5.97977 12.4467 5.60643 12.1133 5.29977 11.74C5.1931 11.7667 5.1131 11.8133 5.05977 11.88C5.00643 11.9467 4.96643 12.02 4.93977 12.1C4.9131 12.18 4.89977 12.2533 4.89977 12.32C4.89977 12.3867 4.90643 12.44 4.91977 12.48C4.9331 12.4933 4.93643 12.5033 4.92977 12.51C4.9231 12.5167 4.92643 12.5267 4.93977 12.54C5.05977 12.9 5.2731 13.2367 5.57977 13.55C5.88643 13.8633 6.25977 14.1367 6.69977 14.37C7.13977 14.6033 7.63643 14.7833 8.18977 14.91C8.7431 15.0367 9.32643 15.1 9.93977 15.1C11.1531 15.1 12.1998 14.88 13.0798 14.44C13.9598 14 14.5598 13.42 14.8798 12.7C14.8798 12.6733 14.8864 12.6467 14.8998 12.62C14.9131 12.5933 14.9331 12.5467 14.9598 12.48Z" fill="#3F4F60"/>
</g>
</svg>
