<svg width="20" height="20" viewBox="0 0 20 20" fill="none" xmlns="http://www.w3.org/2000/svg">
<g id="Frame">
<path id="Vector" d="M3.17179 0.0666504H13.1034L18.07 5.03332V18.6912C18.07 18.8543 18.0379 19.0158 17.9755 19.1665C17.9131 19.3172 17.8216 19.4542 17.7062 19.5695C17.5909 19.6849 17.454 19.7763 17.3033 19.8388C17.1526 19.9012 16.991 19.9333 16.8279 19.9333H3.17179C3.00868 19.9333 2.84716 19.9012 2.69646 19.8388C2.54576 19.7763 2.40883 19.6849 2.29349 19.5695C2.17815 19.4542 2.08666 19.3172 2.02424 19.1665C1.96182 19.0158 1.92969 18.8543 1.92969 18.6912V1.30876C1.92969 1.14564 1.96182 0.984122 2.02424 0.833423C2.08666 0.682723 2.17815 0.545795 2.29349 0.430455C2.40883 0.315114 2.54576 0.223622 2.69646 0.1612C2.84716 0.0987784 3.00868 0.0666504 3.17179 0.0666504Z" fill="#FF8909"/>
<path id="Vector_2" d="M13.2258 13.4456C12.5494 13.4007 11.9054 13.1393 11.389 12.7C10.3783 12.9279 9.38974 13.2443 8.4346 13.6456C7.66442 15.014 6.94513 15.7105 6.32934 15.7105C6.19668 15.7178 6.06499 15.6841 5.95214 15.614C5.82461 15.5544 5.71692 15.4594 5.64195 15.3402C5.56698 15.2211 5.52788 15.0829 5.52934 14.9421C5.52934 14.7175 5.58021 14.0947 7.93811 13.0737C8.4732 12.0889 8.91376 11.0556 9.2539 9.98772C8.95565 9.38947 8.31004 7.92105 8.75741 7.1807C8.83257 7.0461 8.94567 6.93658 9.08261 6.86577C9.21955 6.79496 9.3743 6.76598 9.52758 6.78245C9.65246 6.78203 9.77577 6.81028 9.88801 6.86503C10.0002 6.91978 10.0984 6.99957 10.175 7.09824C10.4978 7.54561 10.4732 8.49298 10.0521 9.88596C10.4479 10.6315 10.967 11.3047 11.5872 11.8772C12.1016 11.7694 12.625 11.7107 13.1504 11.7018C14.3188 11.7263 14.4925 12.2737 14.4662 12.5982C14.4662 13.4439 13.6469 13.4439 13.2258 13.4439V13.4456ZM6.27495 14.9895L6.34863 14.9649C6.69481 14.833 6.98441 14.585 7.16793 14.2632C6.80491 14.4097 6.49396 14.6614 6.27495 14.986V14.9895ZM9.5767 7.52105H9.50127C9.46664 7.51737 9.43184 7.52608 9.40302 7.54561C9.31494 7.97403 9.36723 8.41942 9.55214 8.81579C9.69687 8.39763 9.70547 7.94439 9.5767 7.52105ZM9.75214 11.1316L9.72758 11.1807L9.70302 11.1561C9.47846 11.7281 9.23109 12.3 8.95741 12.8491L9.00653 12.8246V12.8737C9.56076 12.6732 10.1267 12.5068 10.7013 12.3754L10.6749 12.3509H10.7504C10.3782 11.9766 10.0455 11.5651 9.75741 11.1228L9.75214 11.1316ZM13.1258 12.4561C12.9095 12.4481 12.6929 12.4646 12.4802 12.5053C12.7143 12.6173 12.9671 12.6851 13.2258 12.7053C13.393 12.7271 13.563 12.7097 13.7223 12.6544C13.7223 12.5807 13.6223 12.4561 13.1258 12.4561Z" fill="white"/>
<path id="Vector_3" d="M13.1035 0.0666504L18.0702 5.03332H14.3456C14.0165 5.03332 13.7008 4.90269 13.4679 4.67013C13.2351 4.43757 13.104 4.12209 13.1035 3.79297V0.0666504Z" fill="#FFCFA4"/>
</g>
</svg>
