<svg width="20" height="20" viewBox="0 0 20 20" fill="none" xmlns="http://www.w3.org/2000/svg">
<g id="Frame">
<path id="Vector" d="M10.04 1.21997C11.2533 1.21997 12.3966 1.44997 13.47 1.90997C14.5433 2.36997 15.48 2.99997 16.28 3.79997C17.08 4.59997 17.71 5.53664 18.17 6.60997C18.63 7.6833 18.86 8.82664 18.86 10.04C18.86 11.2666 18.63 12.4133 18.17 13.48C17.71 14.5466 17.08 15.48 16.28 16.28C15.48 17.08 14.5433 17.71 13.47 18.17C12.3966 18.63 11.2533 18.86 10.04 18.86C8.81328 18.86 7.66328 18.63 6.58995 18.17C5.51662 17.71 4.57995 17.08 3.77995 16.28C2.97995 15.48 2.34995 14.5466 1.88995 13.48C1.42995 12.4133 1.19995 11.2666 1.19995 10.04C1.19995 8.82664 1.42995 7.6833 1.88995 6.60997C2.34995 5.53664 2.97995 4.59997 3.77995 3.79997C4.57995 2.99997 5.51662 2.36997 6.58995 1.90997C7.66328 1.44997 8.81328 1.21997 10.04 1.21997ZM15.08 11.26C15.4266 11.26 15.72 11.1366 15.96 10.89C16.2 10.6433 16.32 10.3466 16.32 9.99997C16.32 9.6533 16.2 9.35997 15.96 9.11997C15.72 8.87997 15.4266 8.75997 15.08 8.75997H11.32V4.99997C11.32 4.6533 11.1966 4.35664 10.95 4.10997C10.7033 3.8633 10.4066 3.73997 10.06 3.73997C9.71329 3.73997 9.41995 3.8633 9.17995 4.10997C8.93995 4.35664 8.81995 4.6533 8.81995 4.99997V8.75997H5.05995C4.71328 8.75997 4.41995 8.87997 4.17995 9.11997C3.93995 9.35997 3.81995 9.6533 3.81995 9.99997C3.81995 10.3466 3.93995 10.6433 4.17995 10.89C4.41995 11.1366 4.71328 11.26 5.05995 11.26H8.81995V15C8.81995 15.3466 8.93995 15.6433 9.17995 15.89C9.41995 16.1366 9.71329 16.26 10.06 16.26C10.4066 16.26 10.7033 16.1366 10.95 15.89C11.1966 15.6433 11.32 15.3466 11.32 15V11.26H15.08Z" fill="#3F4F60"/>
</g>
</svg>
