<svg width="20" height="20" viewBox="0 0 20 20" fill="none" xmlns="http://www.w3.org/2000/svg">
<g id="Frame">
<path id="Vector" d="M10 1.23999C11.2133 1.23999 12.35 1.46999 13.41 1.92999C14.47 2.38999 15.3967 3.01332 16.19 3.79999C16.9833 4.58666 17.61 5.51332 18.07 6.57999C18.53 7.64666 18.76 8.77999 18.76 9.97999C18.76 11.1933 18.53 12.33 18.07 13.39C17.61 14.45 16.9833 15.3767 16.19 16.17C15.3967 16.9633 14.47 17.59 13.41 18.05C12.35 18.51 11.2133 18.74 10 18.74C8.80001 18.74 7.66668 18.51 6.60001 18.05C5.53334 17.59 4.60668 16.9633 3.82001 16.17C3.03334 15.3767 2.41001 14.45 1.95001 13.39C1.49001 12.33 1.26001 11.1933 1.26001 9.97999C1.26001 8.77999 1.49001 7.64666 1.95001 6.57999C2.41001 5.51332 3.03334 4.58666 3.82001 3.79999C4.60668 3.01332 5.53334 2.38999 6.60001 1.92999C7.66668 1.46999 8.80001 1.23999 10 1.23999ZM13.1 4.93999C12.6467 4.93999 12.2633 5.12666 11.95 5.49999C11.6367 5.87332 11.48 6.32666 11.48 6.85999C11.48 7.40666 11.6367 7.86666 11.95 8.23999C12.2633 8.61332 12.6467 8.79999 13.1 8.79999C13.5533 8.79999 13.9367 8.61332 14.25 8.23999C14.5633 7.86666 14.72 7.40666 14.72 6.85999C14.72 6.32666 14.5633 5.87332 14.25 5.49999C13.9367 5.12666 13.5533 4.93999 13.1 4.93999ZM4.96001 8.71999H8.72001V7.47999H4.96001V8.71999ZM14.96 12.48C14.9733 12.4533 14.98 12.4067 14.98 12.34C14.98 12.2733 14.97 12.2 14.95 12.12C14.93 12.04 14.89 11.9667 14.83 11.9C14.77 11.8333 14.6867 11.78 14.58 11.74C14.2733 12.1133 13.8933 12.4467 13.44 12.74C13.0533 12.9933 12.5633 13.2233 11.97 13.43C11.3767 13.6367 10.68 13.74 9.88001 13.74C9.08001 13.74 8.40001 13.6367 7.84001 13.43C7.28001 13.2233 6.80668 12.9933 6.42001 12.74C5.98001 12.4467 5.60668 12.1133 5.30001 11.74C5.19334 11.7667 5.11334 11.8133 5.06001 11.88C5.00668 11.9467 4.96668 12.02 4.94001 12.1C4.91334 12.18 4.90001 12.2533 4.90001 12.32C4.90001 12.3867 4.90668 12.44 4.92001 12.48C4.93334 12.4933 4.93668 12.5033 4.93001 12.51C4.92334 12.5167 4.92668 12.5267 4.94001 12.54C5.06001 12.9 5.27334 13.2367 5.58001 13.55C5.88668 13.8633 6.26001 14.1367 6.70001 14.37C7.14001 14.6033 7.63668 14.7833 8.19001 14.91C8.74334 15.0367 9.32668 15.1 9.94001 15.1C11.1533 15.1 12.2 14.88 13.08 14.44C13.96 14 14.56 13.42 14.88 12.7C14.88 12.6733 14.8867 12.6467 14.9 12.62C14.9133 12.5933 14.9333 12.5467 14.96 12.48Z" fill="#3F4F60"/>
</g>
</svg>
