<svg width="30" height="30" viewBox="0 0 30 30" fill="none" xmlns="http://www.w3.org/2000/svg">
<path d="M27.9188 11.7198C27.9188 11.1512 27.7564 10.9882 27.1895 10.9882H2.89661C2.32973 10.9882 2.08446 11.1512 2.08446 11.8029V24.556C2.08446 26.2619 2.81377 27 4.43319 27H25.6513C27.2756 27 28 26.2684 28 24.6439C27.9188 20.2495 27.9188 16.0246 27.9188 11.7198ZM2.73418 9.68798H26.5381C27.9155 9.68798 27.9155 9.68798 27.9155 8.38449C27.9155 6.84148 27.2658 6.26631 25.804 6.26631H15.5287C14.2293 6.26631 14.2293 6.26631 14.2293 4.96282C14.2293 3.58112 13.5796 3.00758 12.2054 3.00758H4.11158C2.64972 2.92611 2.08771 3.49639 2 4.96282V8.95803C2.01137 9.60814 2.1738 9.68798 2.73418 9.68798Z" fill="#3F4F60"/>
</svg>
