<svg width="30" height="30" viewBox="0 0 30 30" fill="none" xmlns="http://www.w3.org/2000/svg">
<path d="M24.5683 3C25.879 3 26.9712 4.092 26.9712 5.43V21.021L21.812 15.861L19.3545 18.318L12.4735 11.4375L3.00001 20.91V5.43C3.00001 4.092 4.09223 3 5.4302 3H24.5683ZM19.3545 20.9385L21.812 18.5085L27 23.6685V24.57C27 25.908 25.9078 27 24.5683 27H5.4302C4.78255 26.9948 4.16332 26.7363 3.70791 26.2809C3.2525 25.8256 2.99799 25.2104 3.00001 24.57C3.00001 23.9145 3.24576 23.3145 3.70995 22.8495L12.4735 14.085L19.3545 20.9385ZM21.5662 10.7265C22.6038 10.7265 23.4488 9.8805 23.4488 8.8425C23.4488 7.806 22.6038 6.9585 21.5662 6.9585C20.5286 6.9585 19.6821 7.806 19.6821 8.8425C19.6821 9.8805 20.5286 10.7265 21.5662 10.7265Z" fill="#3F4F60"/>
</svg>
