<svg width="18" height="18" viewBox="0 0 18 18" fill="none" xmlns="http://www.w3.org/2000/svg">
<path d="M12 15H6C5.46957 15 4.96086 14.7893 4.58579 14.4142C4.21071 14.0391 4 13.5304 4 13V8H14V13C14 13.5304 13.7893 14.0391 13.4142 14.4142C13.0391 14.7893 12.5304 15 12 15ZM5 9V13C5 13.2652 5.10536 13.5196 5.29289 13.7071C5.48043 13.8946 5.73478 14 6 14H12C12.2652 14 12.5196 13.8946 12.7071 13.7071C12.8946 13.5196 13 13.2652 13 13V9H5Z" fill="white"/>
<path d="M12 9H6V6C6 5.20435 6.31607 4.44129 6.87868 3.87868C7.44129 3.31607 8.20435 3 9 3C9.79565 3 10.5587 3.31607 11.1213 3.87868C11.6839 4.44129 12 5.20435 12 6V9ZM9 4C8.46957 4 7.96086 4.21071 7.58579 4.58579C7.21071 4.96086 7 5.46957 7 6V8H11V6C11 5.46957 10.7893 4.96086 10.4142 4.58579C10.0391 4.21071 9.53043 4 9 4Z" fill="white"/>
<path d="M10 11C10 10.4477 9.55228 10 9 10C8.44772 10 8 10.4477 8 11V12C8 12.5523 8.44772 13 9 13C9.55228 13 10 12.5523 10 12V11Z" fill="white"/>
</svg>
