<svg width="14" height="14" viewBox="0 0 14 14" fill="none" xmlns="http://www.w3.org/2000/svg">
<g id="Frame" clip-path="url(#clip0_4327_8084)">
<path id="Vector" d="M12.5436 0.795166H1.39707C0.711242 0.795166 0.155273 1.35113 0.155273 2.03696V9.48014C0.155273 10.166 0.711242 10.7219 1.39707 10.7219H3.77515C4.02504 10.7219 4.22763 10.5193 4.22763 10.2695C4.22763 10.0196 4.02504 9.81697 3.77515 9.81697H1.39707C1.21103 9.81697 1.06024 9.66616 1.06024 9.48014V2.03696C1.06024 1.85094 1.21105 1.70013 1.39707 1.70013H12.5436C12.7297 1.70013 12.8805 1.85094 12.8805 2.03696V9.48014C12.8805 9.66617 12.7297 9.81697 12.5436 9.81697H7.30121C7.14228 9.81697 6.98964 9.87895 6.87568 9.98973L4.35336 12.442C4.17273 12.6147 4.1663 12.9011 4.33899 13.0817C4.51169 13.2624 4.7981 13.2688 4.97873 13.0961L7.23861 10.8951C7.3526 10.7841 7.50542 10.7219 7.66453 10.7219H12.5436C13.2295 10.7219 13.7854 10.166 13.7854 9.48014V2.03696C13.7854 1.35113 13.2295 0.795166 12.5436 0.795166Z" fill="#707A8A"/>
<path id="Vector_2" d="M3.40771 5.72862C3.40771 5.82049 3.42581 5.91146 3.46097 5.99633C3.49612 6.08121 3.54765 6.15833 3.61261 6.22329C3.67757 6.28825 3.75469 6.33978 3.83957 6.37493C3.92444 6.41009 4.01541 6.42818 4.10728 6.42818C4.19915 6.42818 4.29012 6.41009 4.37499 6.37493C4.45987 6.33978 4.53699 6.28825 4.60195 6.22329C4.66691 6.15833 4.71844 6.08121 4.75359 5.99633C4.78875 5.91146 4.80685 5.82049 4.80685 5.72862C4.80685 5.63675 4.78875 5.54578 4.75359 5.46091C4.71844 5.37603 4.66691 5.29891 4.60195 5.23395C4.53699 5.16899 4.45987 5.11746 4.37499 5.0823C4.29012 5.04715 4.19915 5.02905 4.10728 5.02905C4.01541 5.02905 3.92444 5.04715 3.83957 5.0823C3.75469 5.11746 3.67757 5.16899 3.61261 5.23395C3.54765 5.29891 3.49612 5.37603 3.46097 5.46091C3.42581 5.54578 3.40771 5.63675 3.40771 5.72862Z" fill="#707A8A"/>
<path id="Vector_3" d="M6.26611 5.72862C6.26611 5.91415 6.33982 6.09209 6.47101 6.22329C6.60221 6.35448 6.78014 6.42818 6.96568 6.42818C7.15122 6.42818 7.32915 6.35448 7.46035 6.22329C7.59154 6.09209 7.66524 5.91415 7.66524 5.72862C7.66524 5.54308 7.59154 5.36514 7.46035 5.23395C7.32915 5.10276 7.15122 5.02905 6.96568 5.02905C6.78014 5.02905 6.60221 5.10276 6.47101 5.23395C6.33982 5.36514 6.26611 5.54308 6.26611 5.72862Z" fill="#707A8A"/>
<path id="Vector_4" d="M9.07983 5.72862C9.07983 5.91415 9.15354 6.09209 9.28473 6.22329C9.41593 6.35448 9.59386 6.42818 9.7794 6.42818C9.96494 6.42818 10.1429 6.35448 10.2741 6.22329C10.4053 6.09209 10.479 5.91415 10.479 5.72862C10.479 5.54308 10.4053 5.36514 10.2741 5.23395C10.1429 5.10276 9.96494 5.02905 9.7794 5.02905C9.59386 5.02905 9.41593 5.10276 9.28473 5.23395C9.15354 5.36514 9.07983 5.54308 9.07983 5.72862Z" fill="#707A8A"/>
</g>
<defs>
<clipPath id="clip0_4327_8084">
<rect width="14" height="14" fill="white"/>
</clipPath>
</defs>
</svg>
