<svg width="18" height="18" viewBox="0 0 18 18" fill="none" xmlns="http://www.w3.org/2000/svg">
<path d="M8.96448 0.777344C4.42327 0.777344 0.741821 4.4584 0.741821 9C0.741821 13.5416 4.42327 17.2227 8.96448 17.2227C13.5057 17.2227 17.1871 13.5408 17.1871 9C17.1871 4.45918 13.5057 0.777344 8.96448 0.777344ZM8.96448 13.4027C8.77528 13.4023 8.59044 13.3459 8.43331 13.2405C8.27619 13.1351 8.15383 12.9855 8.08169 12.8106C8.00955 12.6357 7.99088 12.4433 8.02803 12.2578C8.06517 12.0723 8.15648 11.9019 8.2904 11.7683C8.42432 11.6346 8.59485 11.5437 8.78044 11.5069C8.96603 11.4702 9.15836 11.4892 9.33312 11.5617C9.50788 11.6342 9.65723 11.7569 9.76231 11.9142C9.86738 12.0715 9.92346 12.2565 9.92346 12.4457C9.92346 12.5715 9.89864 12.6962 9.85043 12.8124C9.80221 12.9286 9.73154 13.0342 9.64246 13.1231C9.55339 13.212 9.44766 13.2825 9.33132 13.3304C9.21498 13.3784 9.09032 13.403 8.96448 13.4027ZM9.92346 9.25781C9.91987 9.50976 9.81726 9.75016 9.63782 9.92705C9.45839 10.1039 9.21654 10.2031 8.96457 10.2031C8.71261 10.2031 8.47076 10.1039 8.29133 9.92705C8.11189 9.75016 8.00928 9.50976 8.00569 9.25781V4.79375C8.00928 4.54181 8.11189 4.3014 8.29133 4.12451C8.47076 3.94762 8.71261 3.84845 8.96457 3.84845C9.21654 3.84845 9.45839 3.94762 9.63782 4.12451C9.81726 4.3014 9.91987 4.54181 9.92346 4.79375V9.25781Z" fill="#F04E23"/>
</svg>
