<svg width="14" height="14" viewBox="0 0 14 14" fill="none" xmlns="http://www.w3.org/2000/svg">
<g clip-path="url(#clip0_2605_6536)">
<path d="M13.513 11.838L11.569 9.89401C11.3324 9.65712 11.0118 9.5234 10.677 9.52202L10.301 9.14601C11.1659 7.98633 11.5596 6.54212 11.4027 5.10393C11.2459 3.66574 10.5502 2.34031 9.45558 1.39435C8.36098 0.448383 6.94873 -0.0479285 5.50299 0.00527912C4.05726 0.0584867 2.68532 0.657271 1.66322 1.68114C0.641118 2.705 0.0447116 4.07798 -0.00600111 5.5238C-0.0567138 6.96963 0.442028 8.38101 1.38988 9.47397C2.33773 10.5669 3.66435 11.2604 5.10281 11.4147C6.54127 11.5691 7.98481 11.173 9.14299 10.306L9.427 10.59C9.39459 10.7873 9.40951 10.9894 9.47054 11.1798C9.53156 11.3702 9.63694 11.5433 9.778 11.685L11.722 13.629C11.9595 13.8665 12.2816 13.9999 12.6175 13.9999C12.9534 13.9999 13.2755 13.8665 13.513 13.629C13.7505 13.3915 13.8839 13.0694 13.8839 12.7335C13.8839 12.3976 13.7505 12.0755 13.513 11.838ZM2.569 8.87901C1.94523 8.25587 1.5203 7.46173 1.34796 6.59703C1.17563 5.73234 1.26363 4.83594 1.60084 4.02127C1.93805 3.2066 2.50931 2.51026 3.24236 2.02032C3.9754 1.53039 4.8373 1.26887 5.719 1.26887C6.6007 1.26887 7.46259 1.53039 8.19564 2.02032C8.92868 2.51026 9.49994 3.2066 9.83715 4.02127C10.1744 4.83594 10.2624 5.73234 10.09 6.59703C9.91769 7.46173 9.49277 8.25587 8.869 8.87901C8.0325 9.71243 6.89981 10.1804 5.719 10.1804C4.53818 10.1804 3.40549 9.71243 2.569 8.87901Z" fill="#B1BAD3"/>
</g>
<defs>
<clipPath id="clip0_2605_6536">
<rect width="14" height="14" fill="white"/>
</clipPath>
</defs>
</svg>
