<svg width="14" height="14" viewBox="0 0 14 14" fill="none" xmlns="http://www.w3.org/2000/svg">
<path d="M11.3837 12.7243L1.55217 2.65663C1.506 2.61009 1.48007 2.54702 1.48007 2.48146C1.48007 2.4159 1.506 2.35283 1.55217 2.30629L2.56453 1.27065C2.58647 1.24805 2.61275 1.22993 2.64175 1.21767C2.67076 1.2054 2.7019 1.19887 2.7334 1.19887C2.76489 1.19887 2.79614 1.2054 2.82515 1.21767C2.85416 1.22993 2.88033 1.24805 2.90227 1.27065L3.95233 2.34389L6.73573 2.03456C6.8633 2.02053 6.99149 2.01289 7.11983 2.01234C7.4949 2.00531 7.86759 2.07422 8.21571 2.214C8.56383 2.35379 8.88031 2.5622 9.14636 2.82668L13.0969 6.87355C13.2328 7.05203 13.2956 7.27506 13.2722 7.49818C13.2488 7.72131 13.141 7.9269 12.971 8.07326L11.2629 9.83266L12.7347 11.34C12.7797 11.3861 12.8049 11.4482 12.8049 11.5126C12.8049 11.577 12.7797 11.6382 12.7347 11.6843L11.7223 12.7217C11.7006 12.7446 11.6744 12.763 11.6453 12.7755C11.6163 12.788 11.5851 12.7943 11.5535 12.7943C11.5219 12.7948 11.4906 12.7884 11.4614 12.7764C11.4322 12.7643 11.4058 12.7468 11.3837 12.7243V12.7243ZM10.0116 8.55605L10.9112 7.62892C10.9683 7.57041 11.0002 7.49191 11.0002 7.41017C11.0002 7.32843 10.9683 7.24993 10.9112 7.19142L7.89677 4.10585C7.79204 4.01005 7.66947 3.9353 7.53596 3.8871C7.40246 3.8389 7.26075 3.81793 7.11897 3.82472C7.0541 3.82439 6.98921 3.82738 6.92468 3.83412L5.55354 3.98878L10.0116 8.55605ZM8.33961 12.3338L6.55373 12.2466C5.97007 12.2093 5.42173 11.9538 5.01724 11.5314L0.751617 7.1675C0.732584 7.14776 0.721924 7.12143 0.721924 7.09401C0.721924 7.06659 0.732584 7.04026 0.751617 7.02052L2.00548 5.73537C2.02447 5.71661 2.05003 5.70631 2.07672 5.70631C2.10342 5.70631 2.12907 5.71661 2.14807 5.73537L8.41566 12.156C8.42957 12.1704 8.43898 12.1885 8.44279 12.2081C8.44661 12.2278 8.44475 12.2486 8.43724 12.2671C8.42974 12.2856 8.417 12.3018 8.4006 12.3132C8.38421 12.3247 8.36483 12.3305 8.34485 12.3312L8.33961 12.3338Z" fill="#B1BAD3"/>
</svg>
