<svg width="18" height="18" viewBox="0 0 18 18" fill="none" xmlns="http://www.w3.org/2000/svg">
<path d="M11.2389 16.7143C11.0958 16.714 10.9543 16.6846 10.823 16.6277C10.6917 16.5709 10.5734 16.4878 10.4753 16.3837C10.0984 15.8844 9.5538 15.5377 8.94152 15.4073C8.424 15.4073 7.79723 15.9814 7.49488 16.2569L7.48605 16.2646L7.45515 16.2922L7.41874 16.3253L7.4066 16.3341L7.39667 16.3473C7.30231 16.4532 7.1858 16.5372 7.05537 16.5931C6.92494 16.6491 6.78379 16.6758 6.6419 16.6713C6.50356 16.6637 6.36762 16.632 6.24024 16.5776L6.22589 16.5699L4.3831 15.4855L4.36765 15.4767C4.16848 15.3335 4.02121 15.1297 3.94798 14.8958C3.87475 14.6619 3.87952 14.4105 3.96157 14.1796C4.04994 13.9398 4.10273 13.6885 4.11827 13.4335C4.13315 12.9207 3.94422 12.4228 3.59273 12.0486C3.24124 11.6745 2.75578 11.4544 2.24238 11.4366H2.19934C1.8385 11.4366 1.54388 11.1148 1.44898 10.6167V10.6057C1.44898 10.5913 1.44015 10.5506 1.43574 10.5098C1.23578 9.54062 1.23578 8.54091 1.43574 7.57174C1.43574 7.5475 1.44236 7.52215 1.44567 7.50342L1.45229 7.46154V7.45603C1.54167 6.94138 1.82085 6.63391 2.20265 6.63391H2.28541C2.79881 6.61607 3.28428 6.39604 3.63577 6.02188C3.98725 5.64772 4.17619 5.14985 4.1613 4.63701C4.14866 4.35904 4.08547 4.08569 3.97482 3.83032L3.96488 3.80497C3.87242 3.58947 3.85377 3.34951 3.91184 3.12235C3.9699 2.89518 4.10142 2.69351 4.28599 2.54864L6.27224 1.40693L6.28438 1.40142L6.29982 1.39591C6.42081 1.34694 6.54906 1.31826 6.67941 1.31105C6.82253 1.3113 6.96409 1.34076 7.0954 1.39761C7.22671 1.45447 7.34499 1.53751 7.44301 1.64166C7.83087 2.09455 8.35767 2.40681 8.94152 2.52991C9.52793 2.398 10.0546 2.07694 10.44 1.61631C10.6429 1.41144 10.9174 1.29296 11.2058 1.28571C11.3442 1.29326 11.4801 1.32497 11.6075 1.37938L13.5022 2.51558C13.7229 2.63005 13.8946 2.82052 13.9854 3.05171C14.0763 3.2829 14.0803 3.53915 13.9965 3.77301C13.9077 4.01261 13.8549 4.26403 13.8398 4.51909C13.8249 5.03192 14.0139 5.5298 14.3653 5.90396C14.7168 6.27812 15.2023 6.49815 15.7157 6.51599H15.7985C16.1593 6.51599 16.4539 6.83779 16.5488 7.33591V7.34141V7.35244C16.5488 7.36897 16.5576 7.40974 16.5643 7.45162C16.6498 7.93702 16.6999 8.42799 16.7143 8.92064C16.7021 9.41635 16.6519 9.9104 16.5643 10.3985V10.404C16.5576 10.4404 16.5521 10.4723 16.551 10.4899V10.501V10.5087C16.4617 11.0233 16.1825 11.3308 15.8007 11.3308H15.7179C15.205 11.3484 14.7199 11.5679 14.3684 11.9414C14.017 12.3149 13.8277 12.812 13.842 13.3244V13.3376C13.8301 13.6042 13.878 13.87 13.9822 14.1157V14.1509L14.0075 14.1785C14.0928 14.3924 14.1066 14.6281 14.047 14.8505C13.9874 15.0728 13.8574 15.2701 13.6765 15.4128L13.6633 15.4238L11.7311 16.5578C11.5835 16.6518 11.4138 16.7058 11.2389 16.7143ZM8.85655 14.2898C9.46036 14.3287 10.0356 14.5605 10.4974 14.951H10.504H10.5106C10.7443 15.0891 10.9587 15.2573 11.1485 15.4513L11.2312 15.5362L12.9239 14.5543L12.8787 14.4198C12.7698 14.0971 12.711 13.7597 12.7043 13.4192C12.6994 12.6225 12.9885 11.852 13.5165 11.2548C13.98 10.723 14.6219 10.3785 15.3218 10.2861L15.4409 10.2717L15.4586 10.145C15.5106 9.75662 15.5382 9.36537 15.5414 8.97354C15.5308 8.61368 15.5009 8.25463 15.452 7.89795V7.87591C15.452 7.85166 15.452 7.82852 15.4454 7.81199L15.4354 7.67644L15.3074 7.65991C14.6167 7.56809 13.9823 7.23038 13.5209 6.70885C12.9898 6.1056 12.7002 5.32785 12.7077 4.5246C12.716 4.18337 12.7771 3.84548 12.8886 3.52285L12.9317 3.3906L11.2478 2.38995L11.1628 2.4704C10.9863 2.64326 10.7958 2.80138 10.5934 2.94317C10.1468 3.30841 9.59872 3.52804 9.02317 3.57244C8.43407 3.53365 7.87121 3.31472 7.41101 2.94538L7.38895 2.93105C7.18848 2.78551 7.00359 2.61969 6.83721 2.43623L6.75224 2.34477L4.9867 3.38509L5.03194 3.51954C5.14217 3.84233 5.20136 4.1803 5.20739 4.52129C5.21232 5.31795 4.92319 6.08848 4.39523 6.6857C3.93519 7.21234 3.30058 7.55585 2.60762 7.6533L2.49506 7.67754L2.47631 7.80097C2.47631 7.8208 2.47631 7.84174 2.46969 7.85938C2.46969 7.8704 2.46969 7.88141 2.46969 7.89464V7.91338C2.42117 8.26529 2.39169 8.61956 2.38141 8.97464C2.39199 9.33451 2.42183 9.69355 2.47079 10.0502V10.0701C2.47425 10.092 2.47645 10.114 2.47741 10.1362L2.48734 10.2717L2.61534 10.2883C3.3061 10.3801 3.94047 10.7178 4.40186 11.2393C4.93298 11.8426 5.22256 12.6203 5.21511 13.4236C5.20828 13.7662 5.1495 14.1058 5.04077 14.4308L4.99773 14.5609L6.6099 15.5373L6.69486 15.4458C6.86152 15.2643 7.0464 15.1003 7.24659 14.9565C7.69817 14.5683 8.26237 14.3346 8.85655 14.2898Z" fill="#B1BAD3"/>
<path d="M9.00651 12.0432C8.19607 12.0419 7.41931 11.7193 6.84703 11.1462C6.42224 10.7203 6.13331 10.1784 6.0167 9.58867C5.90009 8.99898 5.96103 8.38802 6.19184 7.8329C6.42265 7.27778 6.81297 6.80341 7.31353 6.46967C7.81409 6.13593 8.40247 5.95778 9.00432 5.95773C9.81476 5.95901 10.5915 6.28168 11.1638 6.85479C11.5913 7.27957 11.8826 7.82175 12.0008 8.41234C12.1189 9.00293 12.0585 9.61526 11.8272 10.1715C11.596 10.7277 11.2043 11.2026 10.702 11.5359C10.1997 11.8692 9.60955 12.0458 9.00651 12.0432ZM9.00651 7.1788C8.64477 7.18032 8.29161 7.28884 7.99158 7.49066C7.69154 7.69248 7.45811 7.97855 7.32073 8.31275C7.18336 8.64696 7.1482 9.01434 7.21971 9.36848C7.29121 9.72263 7.46619 10.0476 7.72251 10.3026C7.97884 10.5575 8.30503 10.7309 8.65993 10.8008C9.01483 10.8707 9.38253 10.8341 9.71658 10.6955C10.0506 10.5569 10.3361 10.3225 10.5369 10.022C10.7377 9.72152 10.8449 9.36835 10.8449 9.00708C10.8434 8.5213 10.649 8.05595 10.3044 7.71317C9.95968 7.37039 9.49292 7.17821 9.00651 7.1788Z" fill="#B1BAD3"/>
</svg>
