<svg width="14" height="14" viewBox="0 0 14 14" fill="none" xmlns="http://www.w3.org/2000/svg">
<path d="M10.1286 13.652L7.30917 12.5096C7.10991 12.4291 6.88718 12.4291 6.68791 12.5096L3.86843 13.652C3.639 13.746 3.38622 13.7673 3.14432 13.7128C2.90242 13.6584 2.6831 13.5309 2.51605 13.3477C2.40211 13.2251 2.31505 13.0801 2.26047 12.9218C2.20588 12.7636 2.18498 12.5957 2.19911 12.4289L2.42953 9.49085C2.44742 9.27088 2.37751 9.05277 2.23508 8.88418L0.298388 6.65582C0.161037 6.49793 0.0667843 6.30725 0.0247582 6.10224C-0.0172679 5.89723 -0.00564322 5.68485 0.0585065 5.48565C0.122656 5.28645 0.237157 5.1072 0.39092 4.96524C0.544683 4.82329 0.732497 4.72344 0.936174 4.67538L3.86454 3.9812C3.96967 3.95606 4.0688 3.91039 4.15623 3.84682C4.24365 3.78325 4.31766 3.70304 4.37399 3.61078L5.96846 1.07033C6.07787 0.895764 6.22984 0.751851 6.4101 0.652092C6.59036 0.552334 6.793 0.5 6.99903 0.5C7.20505 0.5 7.4077 0.552334 7.58796 0.652092C7.76822 0.751851 7.92018 0.895764 8.0296 1.07033L9.62406 3.61078C9.73901 3.79548 9.92261 3.92697 10.1345 3.97634L13.0638 4.67052C13.2675 4.71858 13.4553 4.81842 13.6091 4.96038C13.7628 5.10234 13.8773 5.28159 13.9415 5.48079C14.0056 5.67998 14.0173 5.89237 13.9752 6.09738C13.9332 6.30239 13.839 6.49307 13.7016 6.65096L11.763 8.88418C11.6911 8.96721 11.6364 9.06367 11.602 9.16796C11.5677 9.27226 11.5543 9.38233 11.5627 9.49183L11.7951 12.4289C11.8091 12.5958 11.788 12.7637 11.7332 12.9219C11.6785 13.0802 11.5913 13.2252 11.4771 13.3477C11.3101 13.5309 11.0908 13.6584 10.8489 13.7128C10.607 13.7673 10.3542 13.746 10.1248 13.652H10.1286ZM7.84001 11.202L10.3678 12.2257L10.1607 9.60072C10.1381 9.30465 10.1742 9.00703 10.2672 8.72502C10.3601 8.44301 10.508 8.1822 10.7023 7.95764L12.4251 5.97331L9.80878 5.354C9.23553 5.21967 8.73901 4.86336 8.42821 4.36329L6.99903 2.08243L5.57082 4.36329C5.25986 4.86321 4.7634 5.21947 4.19024 5.354L1.57396 5.97331L3.29773 7.95959C3.49188 8.18419 3.6396 8.44503 3.73238 8.72704C3.82517 9.00906 3.86116 9.30666 3.83829 9.60266L3.63218 12.2277L6.15999 11.2039C6.69899 10.9853 7.30198 10.9853 7.84098 11.2039L7.84001 11.202Z" fill="#B1BAD3"/>
</svg>
