<svg width="13" height="14" viewBox="0 0 13 14" fill="none" xmlns="http://www.w3.org/2000/svg">
<path d="M4.24398 10.1019H11.418C11.8254 10.0896 12.2128 9.92227 12.5011 9.63402C12.7893 9.34577 12.9567 8.95838 12.969 8.55092V2.35092C12.9696 2.14682 12.93 1.9446 12.8524 1.75584C12.7747 1.56709 12.6606 1.39552 12.5165 1.25097C12.3724 1.10641 12.2012 0.991719 12.0127 0.913461C11.8242 0.835204 11.6221 0.794921 11.418 0.794922L3.66198 0.794922C3.25063 0.794922 2.85614 0.95833 2.56527 1.2492C2.2744 1.54007 2.11098 1.93457 2.11098 2.34592V2.74592C2.11098 2.89603 2.17061 3.04 2.27676 3.14614C2.3829 3.25229 2.52687 3.31192 2.67698 3.31192C2.82709 3.31192 2.97106 3.25229 3.0772 3.14614C3.18335 3.04 3.24299 2.89603 3.24299 2.74592V2.69492C3.24299 2.48911 3.32474 2.29174 3.47027 2.14621C3.6158 2.00068 3.81318 1.91892 4.01899 1.91892H11.061C11.2668 1.91892 11.4642 2.00068 11.6097 2.14621C11.7552 2.29174 11.837 2.48911 11.837 2.69492V8.19492C11.837 8.40073 11.7552 8.59811 11.6097 8.74364C11.4642 8.88916 11.2668 8.97092 11.061 8.97092H4.01899C3.81318 8.97092 3.6158 8.88916 3.47027 8.74364C3.32474 8.59811 3.24299 8.40073 3.24299 8.19492V8.14692C3.24299 7.99681 3.18335 7.85284 3.0772 7.7467C2.97106 7.64055 2.82709 7.58092 2.67698 7.58092C2.52687 7.58092 2.3829 7.64055 2.27676 7.7467C2.17061 7.85284 2.11098 7.99681 2.11098 8.14692V10.8769C2.1072 10.9001 2.1072 10.9237 2.11098 10.9469C2.10713 10.9985 2.10713 11.0503 2.11098 11.1019C2.11361 11.6581 2.33571 12.1907 2.72897 12.5839C3.12222 12.9772 3.65485 13.1993 4.21099 13.2019H12.389C12.5433 13.2019 12.6914 13.1406 12.8005 13.0315C12.9097 12.9223 12.971 12.7743 12.971 12.6199C12.9708 12.5197 12.9451 12.4212 12.8963 12.3337C12.8475 12.2462 12.7772 12.1727 12.692 12.1199C12.6017 12.0644 12.4979 12.035 12.392 12.0349H4.24798C3.99085 12.0349 3.74426 11.9328 3.56245 11.751C3.38063 11.5691 3.27848 11.3225 3.27848 11.0654C3.27848 10.8083 3.38063 10.5617 3.56245 10.3799C3.74426 10.1981 3.99085 10.0959 4.24798 10.0959L4.24398 10.1019Z" fill="#B7BDC6"/>
<path d="M5.40699 6.02994H1.14099C1.06191 6.04132 0.981271 6.0341 0.905466 6.00888C0.829662 5.98366 0.76078 5.9411 0.704289 5.88461C0.647797 5.82812 0.605252 5.75925 0.58003 5.68344C0.554807 5.60764 0.547603 5.52701 0.558987 5.44794C0.547603 5.36886 0.554807 5.28821 0.58003 5.2124C0.605252 5.1366 0.647797 5.06772 0.704289 5.01123C0.76078 4.95474 0.829662 4.91219 0.905466 4.88696C0.981271 4.86174 1.06191 4.85455 1.14099 4.86594H5.40699C5.48606 4.85455 5.5667 4.86174 5.64251 4.88696C5.71831 4.91219 5.78719 4.95474 5.84369 5.01123C5.90018 5.06772 5.94272 5.1366 5.96794 5.2124C5.99317 5.28821 6.00037 5.36886 5.98899 5.44794C6.00037 5.52701 5.99317 5.60764 5.96794 5.68344C5.94272 5.75925 5.90018 5.82812 5.84369 5.88461C5.78719 5.9411 5.71831 5.98366 5.64251 6.00888C5.5667 6.0341 5.48606 6.04132 5.40699 6.02994Z" fill="#B7BDC6"/>
<path d="M8.114 5.12191L5.989 3.76492C5.93038 3.72667 5.86252 3.705 5.79259 3.70219C5.72266 3.69938 5.65325 3.71553 5.59175 3.74894C5.53026 3.78235 5.47895 3.83179 5.44325 3.89199C5.40756 3.95219 5.38881 4.02092 5.38899 4.0909V6.79791C5.38881 6.86789 5.40756 6.93663 5.44325 6.99683C5.47895 7.05704 5.53026 7.10646 5.59175 7.13987C5.65325 7.17328 5.72266 7.18945 5.79259 7.18664C5.86252 7.18383 5.93038 7.16215 5.989 7.12391L8.114 5.77491C8.16827 5.7397 8.21288 5.69147 8.24376 5.63462C8.27464 5.57777 8.29082 5.51411 8.29082 5.44941C8.29082 5.38471 8.27464 5.32105 8.24376 5.2642C8.21288 5.20735 8.16827 5.15912 8.114 5.12391V5.12191Z" fill="#B7BDC6"/>
</svg>
