<svg width="15" height="14" viewBox="0 0 15 14" fill="none" xmlns="http://www.w3.org/2000/svg">
<path d="M11.144 13H3C2.20435 13 1.44129 12.6839 0.87868 12.1213C0.31607 11.5587 0 10.7956 0 10L0 4C0 3.20435 0.31607 2.44129 0.87868 1.87868C1.44129 1.31607 2.20435 1 3 1L11 1V2.714H2.571C2.30578 2.714 2.05143 2.81936 1.86389 3.00689C1.67636 3.19443 1.571 3.44878 1.571 3.714V10.286C1.571 10.5512 1.67636 10.8056 1.86389 10.9931C2.05143 11.1806 2.30578 11.286 2.571 11.286H13.854C13.6091 11.7975 13.2249 12.2297 12.7456 12.5328C12.2662 12.836 11.7112 12.9979 11.144 13Z" fill="#B1BAD3"/>
<path d="M14.0029 13H7.40293V11.4H12.4029V6.6H1.00293V5H14.0029V13Z" fill="#B1BAD3"/>
<path d="M10.0029 9C10.5552 9 11.0029 8.55228 11.0029 8C11.0029 7.44772 10.5552 7 10.0029 7C9.45064 7 9.00293 7.44772 9.00293 8C9.00293 8.55228 9.45064 9 10.0029 9Z" fill="#B1BAD3"/>
</svg>
