<svg id="Group_3483" data-name="Group 3483" xmlns="http://www.w3.org/2000/svg" width="18" height="18">
    <defs>
        <style>
            .cls-1{fill:#f04e23}
        </style>
    </defs>
    <g id="Group_3482" data-name="Group 3482">
        <g id="Group_3481" data-name="Group 3481">
            <path id="Path_5203" data-name="Path 5203" class="cls-1" d="M23.329 18.677a4.189 4.189 0 0 0-3.659-3.649 4.337 4.337 0 0 0-.5-.028 4.178 4.178 0 0 0-2.937 7.144 3.293 3.293 0 0 1 1.014 2.338v.483h3.857v-.485a3.219 3.219 0 0 1 .978-2.3 4.166 4.166 0 0 0 1.243-3.5z" transform="translate(-10.18 -10.178)"/>
            <path id="Path_5204" data-name="Path 5204" class="cls-1" d="M26.08 54.643a.966.966 0 0 0 .91-.643h-1.819a.966.966 0 0 0 .909.643z" transform="translate(-17.08 -36.643)"/>
            <path id="Path_5205" data-name="Path 5205" class="cls-1" d="M23 48.964a.322.322 0 0 0 .321.321h2.571a.322.322 0 0 0 .321-.321V48H23z" transform="translate(-15.607 -32.571)"/>
            <path id="Path_5206" data-name="Path 5206" class="cls-1" d="M26.643 2.893a.643.643 0 0 0 .643-.643V.643a.643.643 0 0 0-1.286 0V2.25a.643.643 0 0 0 .643.643z" transform="translate(-17.643)"/>
            <path id="Path_5207" data-name="Path 5207" class="cls-1" d="M8.325 9.234a.658.658 0 0 0 .909 0 .643.643 0 0 0 0-.909L8.1 7.188a.643.643 0 1 0-.909.909z" transform="translate(-4.75 -4.75)"/>
            <path id="Path_5208" data-name="Path 5208" class="cls-1" d="M2.893 26.643A.643.643 0 0 0 2.25 26H.643a.643.643 0 0 0 0 1.286H2.25a.643.643 0 0 0 .643-.643z" transform="translate(0 -17.643)"/>
            <path id="Path_5209" data-name="Path 5209" class="cls-1" d="M8.946 41.484a.643.643 0 0 0-.622.167l-1.136 1.137a.643.643 0 0 0 0 .909.658.658 0 0 0 .909 0l1.137-1.137a.643.643 0 0 0-.288-1.076z" transform="translate(-4.75 -28.135)"/>
            <path id="Path_5210" data-name="Path 5210" class="cls-1" d="M42.56 41.651a.643.643 0 1 0-.909.909l1.137 1.14a.658.658 0 0 0 .909 0 .643.643 0 0 0 0-.909z" transform="translate(-28.135 -28.135)"/>
            <path id="Path_5211" data-name="Path 5211" class="cls-1" d="M49.25 26h-1.607a.643.643 0 1 0 0 1.286h1.607a.643.643 0 1 0 0-1.286z" transform="translate(-31.893 -17.643)"/>
            <path id="Path_5212" data-name="Path 5212" class="cls-1" d="M42.562 9.234 43.7 8.1a.643.643 0 1 0-.909-.909l-1.139 1.134a.643.643 0 0 0 0 .909.658.658 0 0 0 .91 0z" transform="translate(-28.136 -4.75)"/>
        </g>
    </g>
</svg>
