<svg width="280" height="280" viewBox="0 0 280 280" fill="none" xmlns="http://www.w3.org/2000/svg">
<g opacity="0.2">
<path d="M160.8 101.09C160.669 101.222 160.525 101.707 160.482 102.162C160.351 103.19 160.091 103.675 159.629 103.675C159.108 103.675 158.819 103.22 158.704 102.191L158.603 101.251L157.952 101.207C157.548 101.178 157.186 101.251 157.013 101.384C156.753 101.575 156.738 101.648 156.912 102.265C157.258 103.587 157.1 104.116 156.333 104.116C155.842 104.116 155.596 103.748 155.293 102.588C155.177 102.103 154.989 101.663 154.888 101.604C154.541 101.369 153.472 101.457 153.371 101.707C153.327 101.839 153.371 102.5 153.472 103.19C153.689 104.615 153.602 104.894 152.937 104.967C152.373 105.026 151.983 104.556 151.68 103.469C151.376 102.397 151.188 102.265 150.364 102.5C149.382 102.779 149.338 103.014 149.945 104.321C150.234 104.938 150.437 105.54 150.379 105.658C150.335 105.79 150.119 105.878 149.873 105.878C149.526 105.878 149.324 105.731 148.89 105.188C147.951 104.013 147.719 103.822 147.286 103.822C147.055 103.822 146.751 103.954 146.607 104.116C146.346 104.395 146.346 104.439 146.578 104.894C146.722 105.144 147.055 105.643 147.329 105.996C147.85 106.642 147.994 107.303 147.647 107.435C147.242 107.582 146.679 107.185 146.086 106.333C145.739 105.834 145.421 105.437 145.364 105.437C145.132 105.437 143.86 106.407 143.817 106.612C143.803 106.745 144.077 107.303 144.439 107.861C145.132 108.948 145.219 109.212 144.872 109.344C144.511 109.491 144.034 109.3 143.225 108.669C142.271 107.964 141.823 107.92 141.201 108.507L140.753 108.933L141.331 110.152C141.649 110.828 141.909 111.459 141.909 111.562C141.909 111.68 141.736 111.753 141.49 111.753C141.013 111.753 139.814 110.872 139.669 110.431C139.553 110.079 139.25 110.123 138.469 110.607C137.559 111.166 137.588 111.474 138.686 112.664C139.38 113.442 139.438 113.648 139.019 114.03C138.643 114.382 138.195 114.25 136.75 113.369C136.085 112.957 135.478 112.678 135.348 112.722C135.232 112.766 135.03 112.972 134.9 113.163C134.668 113.516 134.683 113.545 135.535 114.558C136.417 115.586 136.562 115.954 136.244 116.277C135.94 116.585 135.463 116.468 134.567 115.866C133.454 115.102 132.992 115.014 132.471 115.425C132.255 115.601 132.081 115.807 132.081 115.88C132.081 115.954 132.471 116.482 132.948 117.07C133.83 118.127 133.96 118.436 133.642 118.553C133.339 118.656 132.862 118.406 131.98 117.701C131.084 116.996 130.621 116.894 130.087 117.276C129.595 117.613 129.696 117.981 130.564 118.965C131.041 119.508 131.358 120.007 131.358 120.213C131.358 120.947 130.939 120.815 129.48 119.581C128.974 119.156 128.41 118.803 128.237 118.803C127.904 118.803 127.167 119.317 127.167 119.567C127.167 119.64 127.586 120.154 128.107 120.698C128.627 121.241 129.046 121.755 129.046 121.843C129.046 122.093 128.526 122.475 128.179 122.475C127.962 122.475 127.658 122.255 127.326 121.873C126.228 120.58 126.04 120.419 125.621 120.419C124.782 120.419 124.638 121.021 125.216 122.181C125.765 123.268 125.722 123.503 124.941 123.503C124.19 123.503 124.045 123.356 123.554 122.122L123.192 121.226L122.528 121.182C121.574 121.124 121.501 121.271 121.704 122.813C121.834 123.826 121.834 124.12 121.689 124.296C121.415 124.619 121.14 124.59 120.735 124.164C120.417 123.856 120.374 123.679 120.374 122.695V121.594H119.521C118.77 121.594 118.625 121.638 118.38 121.961C118.221 122.166 118.047 122.622 117.989 122.96C117.715 124.707 116.616 124.678 116.616 122.916C116.616 121.711 116.457 121.388 115.749 121.094C114.867 120.742 114.448 121.05 114.448 122.049C114.448 122.666 114.232 123.018 113.783 123.121C113.148 123.283 113.003 123.018 113.003 121.608C113.003 119.596 112.627 119.493 111.052 121.006C110.459 121.564 109.867 122.034 109.722 122.034C109.057 122.034 108.927 121.3 109.39 120.228C109.722 119.479 109.621 119.126 109.014 118.803C108.551 118.539 108.161 118.744 107.41 119.626C106.673 120.492 106.311 120.61 105.805 120.125C105.43 119.772 105.43 119.684 105.69 118.788C105.878 118.171 105.878 118.069 105.661 117.76C105.01 116.791 104.664 116.835 103.926 117.995C103.262 119.053 102.785 119.317 102.308 118.876C101.932 118.539 101.946 118.01 102.322 117.378C102.698 116.761 102.553 116.291 101.874 115.939C101.325 115.645 100.935 115.763 100.617 116.277C100.183 116.982 99.8073 117.334 99.4749 117.334C99.0269 117.334 98.8245 116.894 98.8534 116.086C98.8968 115.278 98.6655 114.999 97.8706 114.881C97.2202 114.793 97.0901 114.911 96.83 115.866C96.5987 116.703 96.1651 117.187 95.6448 117.187C95.139 117.187 95.0089 116.938 94.8644 115.792C94.7487 114.72 94.4886 114.397 93.7804 114.397C93.1011 114.397 92.9855 114.544 92.7831 115.719C92.6241 116.717 92.3784 117.041 91.8147 117.041C91.4101 117.041 90.9765 116.453 90.7597 115.631C90.5573 114.852 90.0226 114.573 89.2276 114.837C88.5772 115.058 88.4761 115.307 88.7796 115.954C89.43 117.364 88.7796 117.599 87.6378 116.38C86.7562 115.454 86.3659 115.366 85.8167 115.954L85.4698 116.321L85.889 117.099C86.3226 117.907 86.3226 118.362 85.9034 118.362C85.5421 118.362 85.1085 118.083 84.646 117.54C84.1835 116.996 83.6921 116.908 83.0272 117.202C82.4491 117.481 82.4347 117.775 82.9983 118.245C83.5187 118.671 83.8077 119.449 83.5476 119.714C83.3308 119.934 82.7815 119.758 82.1456 119.244C81.4952 118.715 81.2206 118.7 80.8015 119.141C80.3534 119.626 80.4112 120.037 81.0038 120.639C81.5819 121.241 81.5964 121.564 81.0183 121.887C80.6425 122.093 80.5702 122.078 79.6886 121.608C78.8503 121.153 78.7202 121.124 78.4022 121.3C77.8241 121.608 77.8241 121.873 78.3878 122.71C79.2261 123.944 78.8792 124.384 77.5351 123.797C75.8007 123.048 75.2948 123.9 76.6823 125.221C77.564 126.059 76.9569 126.191 75.5261 125.456C74.7601 125.075 74.3554 125.104 74.1097 125.589C73.9796 125.838 74.0374 125.971 74.6155 126.514C74.9769 126.852 75.2804 127.175 75.2804 127.234C75.2804 127.425 74.7167 127.307 74.0663 126.955C73.228 126.499 73.0835 126.499 72.5776 126.94C72.1007 127.366 72.1874 127.63 72.9823 128.174C73.4015 128.482 73.6038 128.511 74.4276 128.453C75.8729 128.365 76.4944 127.924 79.2694 125.148C80.6136 123.797 82.2034 122.328 82.796 121.873C87.8835 118.025 92.9565 117.187 99.5616 119.097C101.31 119.596 102.741 120.169 105.415 121.417C108.58 122.886 114 124.825 116.515 125.368C117.483 125.589 118.408 125.633 121.53 125.633C125.144 125.618 125.418 125.603 126.3 125.28C128.641 124.443 131.98 122.122 135.319 119.023C137.328 117.158 138.6 116.086 141.259 114.044C147.416 109.271 150.928 107.053 153.891 106.04C157.432 104.821 164.471 105.129 169.442 106.715C173.33 107.964 178.114 111.503 182.161 116.159C182.956 117.07 184.373 118.656 185.312 119.67C186.251 120.683 187.321 121.902 187.682 122.401C188.362 123.312 189.908 124.737 192.51 126.808C195.415 129.143 196.585 129.701 199.042 129.966C199.765 130.039 200.416 130.171 200.502 130.259C200.734 130.509 199.852 131.243 199.187 131.376C197.93 131.611 195.718 130.891 193.753 129.613C191.903 128.409 187.769 124.59 184.04 120.639C177.478 113.692 175.253 111.665 172.304 109.976C169.688 108.478 167.65 107.758 164.659 107.259C162.693 106.936 159.022 106.891 157.591 107.185C155.264 107.655 152.417 108.948 149.497 110.886C148.008 111.871 144.236 114.72 138.007 119.552C131.517 124.59 128.569 126.47 126.372 126.969C124.985 127.292 120.114 127.41 118.033 127.175C114.68 126.808 113.523 126.441 106.485 123.488C101.585 121.447 99.2147 120.551 97.2636 120.007C96.0784 119.684 95.6015 119.64 93.9972 119.64C91.6558 119.67 88.9964 120.11 87.7823 120.698C85.8312 121.623 82.9694 123.738 80.3101 126.191C77.9542 128.379 77.3761 128.835 76.4366 129.319C75.6562 129.716 75.5983 129.716 72.8233 129.731C69.6581 129.745 69.2968 129.848 68.3718 130.92C67.3312 132.11 67.1577 132.991 67.6636 134.46C68.1261 135.826 68.0538 135.973 66.9409 135.708C65.38 135.356 64.9897 135.356 64.0936 135.679C61.8534 136.472 61.044 137.794 61.5933 139.777C61.7233 140.232 61.7811 140.658 61.7522 140.717C61.7089 140.776 61.2753 140.79 60.7694 140.731C59.9601 140.658 59.8011 140.687 59.3819 140.996C58.6304 141.569 52.0542 148.707 51.4761 149.588C50.8546 150.543 50.9269 150.836 51.8085 150.998C52.589 151.13 53.6007 150.954 57.2862 150.087C60.5815 149.294 63.8046 148.281 65.0186 147.664C65.7702 147.267 66.0304 146.812 66.0304 145.813C66.0304 145.431 66.1315 145.138 66.3194 144.947C66.594 144.668 66.7386 144.653 68.1694 144.741C69.9616 144.844 70.5976 144.712 71.6237 144.021C72.3897 143.507 72.9679 142.538 72.9679 141.789C72.9534 141.554 72.8089 140.878 72.621 140.32C72.1296 138.822 72.2452 138.705 73.6905 139.219C74.6733 139.571 76.3788 139.601 77.4339 139.277C78.937 138.822 79.9054 137.441 79.6886 136.046C79.6308 135.65 79.4718 135.018 79.3128 134.636C78.8937 133.535 78.937 133.3 79.7319 132.712C82.03 131.008 86.1491 128.688 87.9991 128.056C90.1382 127.322 94.214 127.616 97.5382 128.732C99.1858 129.29 102.611 131.052 106.167 133.167C116.226 139.16 122.383 142.112 125.837 142.611C127.471 142.846 130.361 142.7 131.503 142.303C134.061 141.436 135.434 140.555 141.736 135.723C151.029 128.585 151.665 128.159 155.148 126.808C156.825 126.161 156.912 126.147 158.545 126.147C163.705 126.147 167.853 126.955 170.642 128.511C171.249 128.849 172.174 129.363 172.694 129.642C173.937 130.318 175.946 131.684 177.464 132.903C179.054 134.181 181.728 136.12 184.835 138.264C187.307 139.968 189.908 141.363 191.397 141.789C192.741 142.171 194.707 142.332 197.12 142.274C199.433 142.23 199.548 142.2 201.095 141.671C202.873 141.04 206.096 139.468 207.122 138.719C208.032 138.058 209.073 137.647 209.29 137.867C209.738 138.323 208.567 139.336 205.431 141.26C203.682 142.347 201.976 143.096 200.155 143.581C198.941 143.919 198.508 143.963 196.398 143.963C192.611 143.963 189.908 143.39 187.032 142.009C184.951 140.996 183.52 140.1 180.239 137.706C173.07 132.506 169.645 130.553 165.367 129.305C163.56 128.776 162.332 128.6 160.048 128.585C158.14 128.57 157.938 128.6 156.579 129.04C154.975 129.569 153.558 130.347 151.116 132.066C150.234 132.683 149.107 133.461 148.63 133.77C148.153 134.093 146.621 135.253 145.233 136.34C142.531 138.484 139.033 140.996 136.923 142.332C133.165 144.726 130.26 145.505 126.719 145.108C121.458 144.491 117.382 142.538 103.753 134.049C99.4749 131.39 97.3358 130.406 94.3585 129.745C91.5257 129.099 89.5745 129.128 87.5366 129.833C85.2964 130.612 80.8882 133.241 80.8015 133.858C80.7581 134.24 81.9433 136.355 82.2034 136.355C82.319 136.355 82.5358 136.178 82.6948 135.943C82.9983 135.547 82.9694 135.121 82.5792 134.181C82.4925 133.975 82.5503 133.931 82.9116 133.931C83.244 133.931 83.4753 134.078 83.8511 134.519C84.3858 135.15 84.7183 135.238 85.2386 134.856C85.571 134.636 85.571 134.563 85.4843 133.402C85.3976 132.213 85.412 132.169 85.7589 131.934C86.4526 131.464 87.1319 132.007 87.1319 133.05C87.1319 133.74 87.262 133.931 87.7679 133.931C88.794 133.931 88.8663 133.843 88.8663 132.771C88.8663 132.242 88.953 131.64 89.0542 131.434C89.2999 130.95 90.0659 130.7 90.8897 130.847C91.6558 130.994 91.9448 131.346 91.8292 131.948C91.5401 133.491 91.5257 133.432 92.2339 133.623C93.2312 133.916 93.3612 133.828 93.7226 132.756C94.1995 131.361 94.9222 130.92 95.6304 131.581C95.9917 131.934 96.0062 132.081 95.7894 132.991C95.587 133.799 95.7749 134.328 96.3097 134.46C96.6276 134.533 96.8155 134.416 97.5382 133.726C98.4343 132.859 98.8245 132.727 99.3882 133.138C99.8507 133.461 99.7784 133.931 99.1858 134.636C98.5354 135.415 98.5644 135.826 99.3015 136.105C99.8362 136.325 99.8651 136.311 100.747 135.708C101.238 135.371 101.802 135.106 102.019 135.106C102.366 135.106 102.886 135.488 102.886 135.752C102.886 135.811 102.597 136.178 102.235 136.56L101.571 137.28L102.019 137.662C102.279 137.867 102.525 138.044 102.597 138.044C102.669 138.044 103.189 137.809 103.767 137.53C105.574 136.648 105.776 136.869 104.548 138.367C104.114 138.896 103.753 139.38 103.753 139.41C103.753 139.454 104.042 139.733 104.389 140.026L105.025 140.555L105.805 139.747C106.803 138.705 107.655 138.499 108.291 139.16C108.624 139.483 108.58 139.689 108.017 140.482C106.904 142.068 106.976 141.862 107.352 142.171C107.872 142.597 108.132 142.509 109 141.657C109.794 140.864 110.517 140.541 111.052 140.746C111.428 140.878 111.298 141.216 110.474 142.23C110.04 142.773 109.679 143.272 109.679 143.346C109.679 143.522 110.286 143.919 110.56 143.919C110.691 143.919 111.066 143.713 111.413 143.463C112.208 142.876 113.119 142.465 113.596 142.45C113.928 142.45 114.376 142.802 114.665 143.302C114.723 143.434 114.506 143.875 114.073 144.521C113.408 145.49 113.393 145.549 113.639 145.813C113.783 145.975 114.087 146.151 114.318 146.195C114.694 146.283 114.867 146.166 115.865 145.255C116.472 144.682 117.007 144.212 117.05 144.212C117.093 144.212 117.411 144.462 117.758 144.771L118.408 145.329L117.96 146.313L117.512 147.282L118.192 147.723C118.567 147.972 118.943 148.178 119.03 148.178C119.117 148.178 119.464 147.811 119.796 147.356C120.143 146.915 120.533 146.489 120.678 146.401C121.039 146.21 121.574 146.239 121.892 146.474C122.166 146.68 122.166 146.709 121.921 147.752C121.776 148.34 121.718 148.868 121.776 148.912C121.95 149.074 122.831 149.353 123.135 149.353C123.525 149.353 123.8 148.986 124.045 148.134C124.32 147.194 124.681 146.812 125.245 146.886L125.65 146.93L125.664 148.178C125.664 149.794 125.635 149.706 126.228 149.985C127.341 150.528 127.601 150.264 127.76 148.457C127.948 145.99 128.714 146.107 129.566 148.751C129.841 149.559 130.029 149.941 130.188 149.955C130.809 149.999 131.59 149.896 131.72 149.779C131.807 149.691 131.734 149.177 131.517 148.31C131.214 147.106 131.214 146.944 131.402 146.739C131.749 146.386 132.182 146.768 132.876 148.031C133.599 149.368 133.772 149.5 134.451 149.162C134.741 149.03 134.972 148.824 134.972 148.707C134.972 148.589 134.712 147.972 134.379 147.356C134.061 146.739 133.816 146.092 133.844 145.916C133.931 145.27 134.394 145.476 135.564 146.724L136.721 147.943L137.212 147.679C137.891 147.311 137.92 147.106 137.4 146.46C136.417 145.211 136.171 144.286 136.764 144.124C137.313 143.992 137.675 144.183 138.036 144.771C138.209 145.064 138.614 145.593 138.917 145.916C139.525 146.592 139.785 146.621 140.319 146.048L140.637 145.696L139.828 144.565C139.38 143.948 139.019 143.39 139.019 143.331C139.019 143.272 139.149 143.111 139.308 142.964C139.756 142.553 140.291 142.802 141.259 143.86C141.736 144.374 142.213 144.8 142.328 144.8C142.444 144.8 142.849 144.594 143.225 144.345L143.918 143.904L143.167 143.228C141.851 142.068 141.577 141.466 142.213 141.128C142.545 140.937 142.704 141.025 143.86 141.995C144.626 142.641 145.19 142.758 145.58 142.362C145.927 142.009 145.869 141.862 145.147 141.201C144.54 140.673 144.467 140.526 144.453 139.968C144.424 138.499 145.783 138.91 147.055 140.761C147.344 141.187 147.358 141.187 147.719 140.952C148.803 140.232 148.803 139.85 147.763 138.851C146.852 138 146.751 137.574 147.373 137.251C147.748 137.045 147.835 137.06 148.269 137.339C148.543 137.5 149.064 137.897 149.425 138.205C149.786 138.514 150.191 138.778 150.307 138.778C150.581 138.778 151.159 138.176 151.159 137.897C151.159 137.779 150.841 137.397 150.451 137.03C149.656 136.281 149.396 135.65 149.757 135.297C150.075 134.974 150.841 135.268 151.723 136.076C152.229 136.531 152.561 136.722 152.865 136.722C153.298 136.722 154.05 136.237 154.05 135.958C154.05 135.87 153.732 135.444 153.327 135.018C152.489 134.107 152.417 133.726 153.024 133.138C153.558 132.609 153.891 132.712 154.411 133.535C155.264 134.856 155.712 135.091 156.377 134.533L156.724 134.24L156.117 133.079C155.423 131.772 155.336 131.229 155.799 130.994C156.507 130.597 156.883 131.023 157.417 132.756C157.605 133.402 157.62 133.417 158.256 133.417H158.892V131.801V130.186L159.282 130.142C159.629 130.098 159.687 130.156 159.817 130.656C159.903 130.964 160.005 131.581 160.048 132.022C160.149 133.065 160.279 133.241 160.843 133.226C161.493 133.211 161.681 132.991 161.797 132.051C161.97 130.582 162.462 129.995 163.372 130.171C164.167 130.333 164.21 131.17 163.502 132.418C163.025 133.241 163.069 133.461 163.676 133.726C164.413 134.034 164.789 133.902 165.425 133.094C166.277 132.007 167 131.287 167.231 131.287C167.347 131.287 167.549 131.376 167.694 131.478C168.055 131.743 167.925 132.081 167.043 133.123C165.945 134.445 165.945 134.46 166.61 134.812C166.928 134.974 167.26 135.106 167.347 135.106C167.448 135.106 167.968 134.68 168.532 134.166C170.165 132.653 170.758 132.448 171.133 133.285C171.307 133.667 171.278 133.726 170.05 134.871C169.356 135.532 168.792 136.134 168.792 136.222C168.792 136.311 169.052 136.516 169.37 136.707C170.035 137.089 169.833 137.162 171.928 135.708C172.911 135.033 173.114 134.945 173.591 135.003C174.226 135.091 174.848 135.517 174.862 135.87C174.862 136.017 174.371 136.546 173.778 137.045C173.186 137.544 172.694 138.044 172.694 138.146C172.694 138.396 173.46 138.778 173.952 138.778C174.183 138.778 174.66 138.558 175.079 138.249C176.669 137.089 177.695 136.869 178.158 137.574C178.36 137.882 178.331 137.941 177.666 138.602C177.276 138.984 176.727 139.483 176.452 139.703L175.946 140.1L176.293 140.394C176.915 140.937 177.189 140.908 178.736 140.115C180.34 139.292 180.629 139.233 180.976 139.63C181.41 140.1 181.251 140.423 180.109 141.495C179.43 142.141 179.039 142.597 179.112 142.714C179.169 142.802 179.458 142.949 179.748 143.052C180.253 143.199 180.326 143.17 181.265 142.538C182.58 141.642 183.202 141.466 183.809 141.774C184.56 142.171 184.532 142.391 183.549 143.39C183.072 143.889 182.667 144.374 182.667 144.477C182.667 144.682 183.693 145.241 184.098 145.241C184.257 145.241 184.662 144.947 184.994 144.58C185.731 143.772 186.656 143.375 187.335 143.566C188 143.772 188.015 144.212 187.379 145.152C187.09 145.578 186.859 146.063 186.859 146.225C186.859 146.606 187.278 146.974 187.841 147.091C188.26 147.179 188.362 147.121 188.781 146.636C189.026 146.327 189.547 145.755 189.923 145.343C190.587 144.653 190.631 144.624 190.934 144.829C191.411 145.152 191.411 145.431 190.978 146.518C190.544 147.62 190.602 147.943 191.223 148.163C192.076 148.472 192.177 148.398 192.741 147.179C193.348 145.857 193.724 145.387 194.172 145.387C194.808 145.387 194.88 145.711 194.605 147.238C194.446 148.031 194.389 148.692 194.461 148.766C194.605 148.898 196.253 149.118 196.253 149.015C196.253 148.971 196.34 148.442 196.455 147.84C196.947 145.255 197.525 144.976 197.857 147.165C197.944 147.767 198.045 148.398 198.074 148.56C198.103 148.736 198.276 148.912 198.45 148.971C198.956 149.103 199.837 149.074 199.924 148.927C199.982 148.854 199.939 148.163 199.837 147.4C199.65 145.843 199.751 145.343 200.3 145.196C200.69 145.094 201.037 145.637 201.471 147.003C201.904 148.325 202.107 148.619 202.612 148.619C202.959 148.619 203.48 148.31 203.48 148.09C203.48 148.046 203.292 147.517 203.06 146.886C202.338 144.976 202.323 144.536 202.945 144.256C203.48 144.007 203.855 144.33 204.824 145.843C205.33 146.621 205.835 147.238 205.994 147.267C206.356 147.341 206.948 147.003 206.948 146.724C206.948 146.592 206.616 145.99 206.226 145.387C205.445 144.183 205.359 143.86 205.778 143.625C206.197 143.405 206.414 143.551 207.367 144.741C207.859 145.343 208.365 145.843 208.509 145.843C208.972 145.872 209.189 145.813 209.362 145.578C209.608 145.255 209.333 144.771 208.336 143.772C207.469 142.905 207.367 142.641 207.816 142.23C208.191 141.892 208.582 142.009 209.709 142.817C211.125 143.831 211.385 143.948 211.718 143.772C212.036 143.596 212.238 143.023 212.094 142.67C212.05 142.553 211.573 142.156 211.024 141.804C209.868 141.055 209.709 140.79 210.099 140.247C210.518 139.689 211.27 139.762 212.802 140.511C214.189 141.187 214.594 141.26 214.941 140.864C215.476 140.261 215.201 139.836 213.712 138.881C213.264 138.587 212.86 138.22 212.802 138.044C212.672 137.647 213.091 137.162 213.553 137.162C213.741 137.162 214.869 137.486 216.039 137.897C217.21 138.293 218.41 138.631 218.684 138.631C219.248 138.631 222.934 136.501 227.038 133.784C228.353 132.918 230.03 131.86 230.767 131.434C232.256 130.582 232.95 130.054 232.791 129.877C232.733 129.819 230.189 129.716 227.154 129.657C218.887 129.481 217.586 129.187 215.187 126.94C213.944 125.78 214.001 125.809 212.383 125.486C211.761 125.368 210.981 125.104 210.648 124.913C209.911 124.472 209.246 123.327 209.232 122.49C209.217 121.696 209.853 120.566 210.995 119.346L211.935 118.348L214.536 118.26L217.123 118.171L218.8 116.409C219.71 115.44 221.806 113.295 223.454 111.65C225.101 109.991 226.489 108.507 226.547 108.346C226.662 107.978 226.417 107.802 225.015 107.215C221.777 105.878 220.448 105.614 219.407 106.157C218.525 106.612 216.184 108.155 215.823 108.507C215.447 108.874 215.042 110.123 215.042 110.872C215.042 111.694 214.551 112.047 213.394 112.047C210.619 112.061 208.35 113.457 205.648 116.82C203.884 119.038 203.277 119.978 201.586 123.268C200.098 126.132 199.144 127.395 197.93 128.056C197.294 128.409 197.265 128.409 197.019 128.144C196.773 127.895 196.788 127.851 197.554 127.16C198.349 126.455 198.349 126.441 198.132 126.044C197.828 125.501 197.366 125.471 196.354 125.926C194.88 126.587 194.013 126.308 195.01 125.501C195.314 125.251 195.762 124.869 196.007 124.663L196.455 124.281L196.065 123.885C195.574 123.386 195.328 123.4 194.374 124.017C193.55 124.561 192.712 124.693 192.38 124.355C192.105 124.076 192.163 123.988 193.146 123.195C193.666 122.783 194.085 122.372 194.085 122.284C194.085 122.196 193.912 121.946 193.709 121.726L193.333 121.329L192.105 121.931C191.166 122.387 190.819 122.49 190.631 122.372C190.183 122.078 190.327 121.814 191.296 121.153C192.408 120.404 192.625 119.949 192.004 119.67C191.7 119.523 191.484 119.581 190.501 120.051C189.316 120.61 188.708 120.668 188.622 120.242C188.593 120.051 188.839 119.816 189.46 119.435C189.966 119.126 190.53 118.744 190.732 118.568L191.093 118.26L190.616 117.922C190.096 117.54 189.735 117.584 188.116 118.23C187.422 118.495 187.22 118.524 186.916 118.377C186.627 118.245 186.555 118.127 186.598 117.819C186.642 117.466 186.786 117.349 187.682 116.967C189.099 116.365 189.214 116.233 188.694 115.777C188.174 115.337 188.116 115.337 186.815 115.866C186.208 116.101 185.558 116.306 185.37 116.306C185.023 116.306 184.546 115.968 184.546 115.733C184.546 115.513 185.066 115.146 185.89 114.779C186.815 114.353 186.945 114.03 186.396 113.516C185.977 113.119 185.789 113.134 184.922 113.677C184.127 114.176 183.072 114.397 182.884 114.103C182.725 113.839 183.462 113.134 184.271 112.781C184.662 112.62 184.98 112.414 184.98 112.326C184.98 112.252 184.719 111.9 184.416 111.562L183.852 110.945L182.927 111.415C182.421 111.68 181.814 111.944 181.554 111.988C180.962 112.106 180.355 111.959 180.355 111.694C180.355 111.577 180.803 111.063 181.366 110.549L182.378 109.609L181.655 109.065C181.265 108.771 180.904 108.522 180.875 108.522C180.832 108.522 180.398 108.786 179.907 109.109C178.866 109.785 178.042 109.917 178.042 109.403C178.042 109.227 178.331 108.771 178.692 108.39C179.401 107.611 179.473 107.361 179.083 107.009C178.678 106.642 178.244 106.701 177.348 107.273C176.886 107.552 176.337 107.787 176.091 107.802C174.747 107.905 174.646 107.171 175.816 105.834C176.091 105.54 176.308 105.232 176.308 105.158C176.308 105.085 176.134 104.879 175.932 104.718C175.513 104.38 175.426 104.409 174.299 105.217C172.926 106.201 172.564 105.981 173.562 104.762C173.88 104.365 174.14 104.013 174.14 103.969C174.14 103.925 173.778 103.66 173.316 103.381L172.507 102.882L171.466 104.027C170.57 105.026 170.382 105.158 170.006 105.114C169.645 105.07 169.587 105.011 169.616 104.659C169.63 104.424 169.919 103.881 170.252 103.44C170.931 102.529 170.931 102.515 169.76 101.971C168.951 101.589 168.792 101.721 168.069 103.396C167.766 104.086 167.332 104.409 166.711 104.409C166.06 104.409 165.988 104.086 166.35 102.867C166.725 101.589 166.653 101.398 165.714 101.178C165.107 101.046 164.557 101.266 164.485 101.692C164.268 102.985 163.719 103.822 163.083 103.822C162.577 103.822 162.404 103.484 162.433 102.544C162.476 101.398 162.476 101.354 162.187 101.207C161.638 100.914 161.031 100.87 160.8 101.09ZM221.777 108.081C222.558 108.639 222.905 109.271 222.803 109.946C222.688 110.622 222.485 110.857 221.618 111.254C220.751 111.68 220.216 111.694 219.436 111.327C218.019 110.681 217.803 109.197 218.973 108.14C219.407 107.729 219.595 107.67 220.433 107.655C220.982 107.641 221.271 107.729 221.777 108.081ZM159.123 108.463C159.773 109.051 159.311 109.785 157.967 110.299C156.449 110.886 155.539 110.857 155.119 110.226C154.83 109.756 155.004 109.403 155.741 108.962C157.157 108.096 158.516 107.905 159.123 108.463ZM164.803 108.536C165.916 109.432 165.309 110.725 163.791 110.725C163.372 110.725 163.155 110.607 162.707 110.152C162.115 109.55 162.042 109.33 162.332 108.948C162.866 108.228 164.153 108.022 164.803 108.536ZM169.442 110.284C169.558 110.49 169.052 110.975 166.48 113.046C163.719 115.293 160.987 118.025 160.987 118.524C160.987 118.906 161.594 119.581 162.65 120.345C163.401 120.889 164.167 121.608 164.167 121.785C164.167 122.093 163.155 121.726 161.638 120.874C159.932 119.919 159.311 119.787 158.675 120.228C158.473 120.36 157.576 121.153 156.68 121.99C155.784 122.813 154.758 123.679 154.397 123.885C153.804 124.237 153.717 124.252 153.515 124.046C153.139 123.679 153.515 123.004 154.946 121.506C155.64 120.771 156.218 120.066 156.218 119.934C156.218 119.802 156.059 119.581 155.871 119.464C155.553 119.244 155.481 119.244 155.105 119.449C154.888 119.567 154.252 120.14 153.689 120.712C152.214 122.24 151.391 122.827 150.899 122.695C150.278 122.548 149.858 122.196 149.858 121.843C149.858 121.652 150.205 121.08 150.697 120.507C151.145 119.949 151.795 119.126 152.142 118.671L152.764 117.848L152.214 117.599C151.911 117.452 151.578 117.334 151.477 117.334C151.376 117.334 150.581 118.025 149.714 118.876C148.139 120.433 147.85 120.595 147.242 120.272C146.592 119.905 147.242 118.627 148.789 117.246C149.295 116.791 149.714 116.365 149.714 116.321C149.714 116.115 148.558 115.557 148.298 115.631C148.167 115.675 147.445 116.336 146.693 117.099C145.306 118.539 144.93 118.759 144.294 118.509C143.398 118.171 143.658 117.408 145.161 115.924C147.344 113.795 147.618 113.765 150.971 115.513C152.301 116.218 154.137 117.173 155.047 117.643C156.044 118.171 156.868 118.509 157.157 118.509C157.721 118.509 158.183 118.171 161.103 115.689C164.557 112.737 166.957 111.004 168.431 110.387C169.125 110.108 169.327 110.093 169.442 110.284ZM154.209 111.312C154.57 111.68 154.614 111.797 154.483 112.047C154.281 112.429 152.951 113.31 152.142 113.604C151.029 114 150.003 113.736 150.003 113.046C150.003 112.326 152.157 110.872 153.226 110.872C153.645 110.872 153.891 110.975 154.209 111.312ZM161.638 111.944C162.028 112.502 161.378 113.281 159.354 114.661C157.851 115.704 157.432 115.88 156.594 115.91C155.64 115.924 155.206 115.777 155.206 115.41C155.206 114.764 157.013 113.266 159.108 112.179C160.568 111.43 161.233 111.356 161.638 111.944ZM173.359 112.267C174.544 113.104 176.308 114.676 176.481 115.058C176.568 115.249 176.597 115.557 176.553 115.748C176.409 116.306 173.403 119.17 171.22 120.83C168.749 122.725 167.838 123.209 166.769 123.209C165.367 123.209 164.948 122.96 165.757 122.622C166.335 122.372 166.451 121.873 166.06 121.359C165.887 121.138 165.786 120.918 165.829 120.874C165.873 120.83 166.61 120.756 167.462 120.712C168.604 120.639 169.153 120.536 169.486 120.331C170.324 119.846 170.136 119.508 167.997 117.701C166.378 116.321 166.003 115.851 166.321 115.528C166.523 115.322 167.65 115.704 168.619 116.306C170.382 117.422 170.772 117.628 171.119 117.628C171.567 117.628 172.16 117.187 172.001 116.967C171.943 116.879 171.278 116.291 170.526 115.645C168.619 114.015 168.243 113.545 168.648 113.295C168.85 113.178 169.515 113.545 171.249 114.764C173.345 116.218 173.359 116.233 173.793 115.939C173.981 115.821 174.14 115.631 174.14 115.528C174.14 115.44 173.46 114.691 172.622 113.868C171.148 112.443 170.816 111.9 171.292 111.694C171.712 111.503 172.622 111.753 173.359 112.267ZM218.569 112.943C219.306 113.53 218.872 114.691 217.933 114.691C217.369 114.691 216.69 114.338 216.487 113.956C216.271 113.56 216.531 113.104 217.109 112.855C217.759 112.561 218.121 112.59 218.569 112.943ZM215.403 114.984C215.635 115.175 215.692 116.115 215.49 116.424C215.432 116.526 215.114 116.703 214.811 116.82C214.334 116.982 214.175 116.982 213.741 116.806C212.932 116.468 212.701 116.012 213.033 115.41C213.366 114.764 214.84 114.514 215.403 114.984ZM210.186 115.924C210.721 116.145 210.923 116.571 210.793 117.129C210.677 117.599 210.142 117.834 209.492 117.716C208.639 117.555 208.408 116.717 209.044 116.086C209.449 115.66 209.535 115.645 210.186 115.924ZM166.176 117.878C167.217 118.509 167.506 118.847 167.231 119.126C167.101 119.258 166.841 119.258 166.003 119.126C164.196 118.803 163.517 118.274 164.109 117.613C164.485 117.187 165.135 117.276 166.176 117.878ZM179.054 118.216C179.213 118.304 180.383 119.567 181.655 121.05L183.982 123.723L183.621 124.017C183.419 124.179 182.103 124.942 180.701 125.706C179.3 126.47 177.753 127.322 177.276 127.571C175.946 128.321 175.267 128.218 172.405 126.852C170.396 125.897 169.601 125.089 170.122 124.561C170.483 124.193 171.206 124.414 173.591 125.574C174.935 126.235 176.279 126.793 176.582 126.837C177.074 126.911 177.175 126.866 177.392 126.529C177.782 125.926 177.493 124.825 176.308 122.328C175.744 121.153 175.296 120.096 175.296 119.963C175.296 119.626 175.6 119.391 176.048 119.391C176.553 119.391 177.825 120.624 179.198 122.475C180.673 124.458 181.193 124.796 181.54 124.017C181.728 123.576 181.54 123.18 179.805 120.286C178.447 118.039 178.375 117.848 179.054 118.216ZM143.196 119.64C144.872 120.624 148.558 123.004 149.251 123.547C151.087 124.972 151.246 126.47 149.512 125.941C148.413 125.603 146.476 124.34 143.875 122.269C142.733 121.359 141.765 120.301 141.765 119.949C141.765 119.802 142.3 119.244 142.444 119.244C142.487 119.244 142.834 119.42 143.196 119.64ZM207.498 120.213C208.105 120.639 207.787 121.755 207.006 121.946C206.515 122.078 205.691 121.799 205.503 121.447C205.272 121.021 205.33 120.727 205.72 120.345C206.139 119.919 206.992 119.846 207.498 120.213ZM139.741 120.624C139.741 120.903 139.076 121.564 137.964 122.431C135.983 123.944 135.593 124.561 136.345 125.06C136.851 125.398 137.342 125.236 138.932 124.223C140.146 123.444 140.377 123.356 141.057 123.356C141.924 123.356 142.473 123.635 144.944 125.31C147.488 127.043 148.847 128.071 148.847 128.276C148.847 128.497 147.864 129.378 147.618 129.378C147.546 129.378 146.375 128.423 145.031 127.248C143.701 126.073 142.531 125.119 142.43 125.119C142.126 125.119 140.551 125.956 139.553 126.646C139.004 127.013 138.426 127.322 138.267 127.322C137.819 127.322 136.576 126.543 135.81 125.794C135.217 125.221 135.116 125.045 135.116 124.575C135.116 123.767 135.507 123.224 136.778 122.255C137.92 121.388 139.409 120.419 139.626 120.419C139.683 120.419 139.741 120.507 139.741 120.624ZM95.1101 121.52C95.6737 121.931 95.7894 122.122 96.3097 123.532C96.6276 124.399 97.0468 125.31 97.2202 125.559C97.6105 126.088 98.839 126.734 99.4604 126.734C100.053 126.734 100.776 126.382 101.05 125.956C101.325 125.515 101.383 124.751 101.137 124.59C100.833 124.399 99.8651 124.487 99.5038 124.737C98.9546 125.089 98.3187 125.045 98.044 124.619C97.8272 124.296 97.8272 124.223 98.044 123.811C98.5499 122.813 100.198 122.534 101.513 123.224C102.394 123.679 102.727 124.237 102.785 125.339L102.814 126.176L102.048 126.896C100.949 127.924 100.559 128.086 99.3593 128.086C98.5499 128.071 98.1886 127.983 97.4804 127.63C96.3675 127.072 95.9339 126.617 94.9366 124.928C93.9683 123.283 93.6214 123.048 92.205 123.048C91.6558 123.048 91.0632 123.121 90.8897 123.209C90.7163 123.297 90.2249 123.929 89.8058 124.605C89.3722 125.28 88.8952 125.912 88.7362 126C88.2448 126.264 87.3776 126.161 86.0335 125.706C84.5593 125.192 84.1546 125.192 83.7788 125.706C83.403 126.22 83.562 126.558 84.3425 126.896C85.1519 127.248 85.1663 127.66 84.3569 127.733C83.6776 127.792 83.0128 127.439 82.7237 126.881C82.3769 126.206 82.4491 125.765 83.0128 125.133C83.9956 124.046 85.0362 123.826 86.2647 124.458C86.655 124.663 87.103 124.825 87.262 124.825C87.6956 124.825 88.1003 124.37 88.2882 123.635C88.7507 121.829 90.3405 120.977 93.0866 121.05C94.3729 121.08 94.5175 121.109 95.1101 121.52ZM174.458 122.211C174.978 122.769 175.585 123.958 175.585 124.399C175.585 124.663 175.527 124.693 175.195 124.605C174.675 124.487 173.142 123.621 172.723 123.209C172.261 122.769 172.362 122.313 172.983 122.005C173.692 121.638 173.966 121.667 174.458 122.211ZM163.878 123.782C165.352 124.12 166.769 124.443 167.043 124.502C167.318 124.561 167.621 124.737 167.737 124.913C167.91 125.177 167.896 125.266 167.665 125.559C167.405 125.882 167.405 125.882 166.306 125.662C165.699 125.53 164.167 125.324 162.91 125.192C157.707 124.678 157.143 124.575 157.258 124.208C157.331 123.988 158.068 123.532 158.805 123.253C159.585 122.96 160.872 123.092 163.878 123.782ZM205.648 123.694C206.182 124.12 206.255 124.34 206.023 124.796C205.778 125.295 205.532 125.412 204.838 125.412C204.289 125.412 203.769 124.986 203.769 124.546C203.769 124.399 203.899 124.105 204.058 123.9C204.462 123.371 205.142 123.297 205.648 123.694ZM93.4624 125.163C93.9538 125.633 93.8382 126.161 93.1589 126.485C92.6386 126.749 92.6097 126.749 92.1472 126.485C91.5112 126.103 91.439 125.427 92.0026 124.986C92.4651 124.605 92.9421 124.663 93.4624 125.163ZM209.897 125.28C210.316 125.618 210.403 126.294 210.07 126.573C209.781 126.822 208.755 126.837 208.495 126.602C208.177 126.352 208.047 125.633 208.249 125.28C208.466 124.854 209.376 124.869 209.897 125.28ZM107.612 125.633C108.306 126.103 107.771 127.322 106.86 127.322C106.398 127.322 105.574 126.705 105.516 126.323C105.386 125.427 106.673 125.001 107.612 125.633ZM134.22 126.22C134.394 126.426 134.538 126.705 134.538 126.822C134.538 127.41 133.339 127.909 132.601 127.616C131.807 127.322 131.778 126.191 132.544 125.853C133.078 125.633 133.859 125.794 134.22 126.22ZM187.466 126.382C188.766 126.808 189.778 127.469 190.443 128.335C190.992 129.084 191.021 129.51 190.544 129.966C190.197 130.289 190.067 130.303 187.552 130.377C184.373 130.45 184.214 130.509 184.445 131.478C184.56 132.022 184.546 132.227 184.315 132.697C183.896 133.564 183.39 133.858 182.335 133.858C180.817 133.843 179.271 132.786 179.372 131.816C179.401 131.449 179.487 131.346 179.805 131.317C180.138 131.273 180.253 131.376 180.673 132.125C180.947 132.595 181.323 133.05 181.525 133.153C182.002 133.388 182.508 133.241 182.609 132.844C182.696 132.462 182.378 130.524 181.944 128.952C181.482 127.204 181.757 126.896 182.812 127.983C183.158 128.35 183.65 128.702 183.881 128.776C184.575 128.996 188.622 129.407 188.737 129.275C188.998 128.996 189.041 128.232 188.824 128.012C188.622 127.806 187.35 127.454 185.269 127.028C184.286 126.837 184.04 126.69 184.156 126.382C184.387 125.78 185.543 125.78 187.466 126.382ZM206.847 127.057C207.44 127.851 206.601 128.629 205.676 128.144C205.113 127.851 204.968 127.41 205.286 126.94C205.619 126.426 206.428 126.485 206.847 127.057ZM143.369 127.41C143.991 127.983 143.528 128.996 142.415 129.466C141.114 130.01 139.871 129.363 140.377 128.394C140.984 127.19 142.56 126.676 143.369 127.41ZM213.293 127.454C213.842 128.232 213.684 128.6 212.701 128.923C211.978 129.158 211.631 129.026 211.429 128.438C211.241 127.836 211.357 127.527 211.848 127.248C212.469 126.911 212.961 126.969 213.293 127.454ZM110.633 127.983C110.315 128.482 110.344 129.04 110.705 129.231C111.167 129.496 111.572 129.305 112.555 128.423C113.437 127.616 113.74 127.498 114.159 127.762C114.333 127.865 114.246 128.071 113.711 128.893C113.335 129.437 113.003 129.966 112.945 130.068C112.858 130.215 113.234 130.612 114.651 131.904C115.142 132.345 115.185 132.448 115.041 132.727C114.708 133.373 113.899 133.109 112.194 131.787C111.63 131.346 110.922 130.891 110.633 130.773C110.141 130.553 110.055 130.553 109.737 130.773C108.985 131.273 109.534 132.198 111.471 133.711C112.541 134.548 112.873 135.003 112.598 135.282C112.396 135.488 111.587 135.106 110.17 134.137C108.537 133.05 107.453 132.007 107.164 131.273C106.947 130.729 106.947 130.641 107.164 130.171C107.583 129.29 109.737 127.616 110.445 127.616C110.864 127.616 110.864 127.616 110.633 127.983ZM129.783 127.762C129.928 127.851 130.058 128.012 130.058 128.13C130.058 128.335 129.682 128.482 128.179 128.864C127.066 129.143 125.433 129.745 125.071 130.024C124.681 130.318 124.898 130.7 125.462 130.715C126.546 130.759 127.5 130.656 129.436 130.245C131.937 129.731 132.37 129.701 132.37 130.112C132.37 130.303 132.24 130.436 131.98 130.494C131.749 130.538 131.185 130.7 130.708 130.847C130.231 131.008 129.06 131.331 128.107 131.596C126.329 132.066 125.577 132.374 125.577 132.609C125.577 132.83 126.011 133.197 126.387 133.285C126.835 133.402 127.153 133.344 130.91 132.433C133.584 131.787 134.032 131.713 134.336 131.89C135.42 132.462 133.859 133.109 128.15 134.445C126.849 134.739 126.401 134.915 126.228 135.15C125.953 135.561 125.953 135.635 126.3 135.987C126.719 136.413 127.861 136.369 130.058 135.855C131.59 135.488 134.292 134.724 135.723 134.24C135.998 134.137 136.186 134.166 136.374 134.313C136.619 134.504 136.619 134.533 136.244 134.871C135.449 135.591 131.012 137.089 127.875 137.691C126.083 138.029 125.866 138.22 126.473 138.881C126.719 139.145 126.936 139.219 127.471 139.219C129.451 139.219 133.526 138.029 136.547 136.56C138.108 135.811 138.643 135.679 138.498 136.061C138.354 136.428 136.056 137.897 134.712 138.484C131.893 139.718 129.769 140.217 127.066 140.276C125.548 140.32 125.418 140.247 124.71 139.013C123.872 137.5 122.542 132.183 122.744 131.082C122.875 130.377 123.525 129.642 124.392 129.216C125.115 128.864 128.8 127.66 129.234 127.63C129.378 127.63 129.624 127.689 129.783 127.762ZM104.765 128.438C105.43 129.055 105.458 129.216 105.025 129.642C104.259 130.362 103.507 130.318 103.103 129.525C102.77 128.864 102.871 128.467 103.464 128.174C103.739 128.027 104.013 127.909 104.071 127.909C104.143 127.909 104.447 128.144 104.765 128.438ZM180.08 128.188C180.138 128.232 180.225 128.541 180.282 128.879C180.383 129.584 180.225 129.789 179.415 129.921C178.982 129.995 178.823 129.936 178.461 129.598C178.23 129.363 178.042 129.04 178.042 128.864C178.042 128.511 178.403 128.13 178.837 128.012C179.155 127.939 179.95 128.041 180.08 128.188ZM136.677 128.497C137.241 128.849 137.357 129.099 137.14 129.51C136.923 129.951 135.882 130.45 135.463 130.347C134.596 130.127 134.278 129.231 134.871 128.688C135.463 128.13 135.983 128.071 136.677 128.497ZM80.6858 128.879C80.8159 128.937 80.9894 129.099 81.0761 129.246C81.264 129.628 80.8737 130.377 80.4257 130.494C79.8909 130.626 79.1538 130.494 78.9948 130.245C78.5179 129.481 79.7319 128.511 80.6858 128.879ZM119.001 129.29C119.883 129.731 120.143 130.186 119.709 130.509C119.261 130.847 118.322 131.023 117.498 130.95C116.616 130.847 115.113 130.156 115.055 129.804C115.026 129.672 115.272 129.422 115.706 129.172C116.313 128.835 116.515 128.791 117.31 128.835C117.888 128.879 118.481 129.04 119.001 129.29ZM209.882 129.554C210.634 129.848 210.475 130.729 209.55 131.39C209.217 131.625 208.639 131.434 208.076 130.876C207.425 130.259 207.642 129.584 208.538 129.393C209.059 129.275 209.189 129.29 209.882 129.554ZM216.213 129.701C216.791 130.024 216.95 130.494 216.632 130.994C216.314 131.508 214.464 131.038 214.464 130.436C214.464 130.142 215.172 129.378 215.447 129.378C215.562 129.378 215.909 129.525 216.213 129.701ZM145.826 129.966C146.187 130.318 146.231 130.45 146.115 130.685C145.826 131.229 145.219 131.581 144.598 131.581C143.383 131.581 142.979 130.759 143.774 129.951C144.381 129.349 145.233 129.349 145.826 129.966ZM204.39 130.274C205.113 130.656 208.206 133.784 208.61 134.563C208.871 135.077 208.871 135.121 208.654 135.356C208.35 135.65 208.076 135.547 206.977 134.695C204.708 132.976 202.757 130.994 202.757 130.45C202.757 130.259 203.219 129.995 203.595 129.98C203.696 129.966 204.058 130.112 204.39 130.274ZM77.853 131.023C78.2577 131.434 77.8097 132.242 77.3761 131.875C77.2604 131.772 77.1593 131.581 77.1593 131.449C77.1593 131.199 77.4194 130.847 77.5929 130.847C77.6362 130.847 77.7519 130.92 77.853 131.023ZM140.175 130.994C140.912 131.39 140.796 132.462 140.001 132.741C139.279 133.006 138.874 132.932 138.426 132.477C137.949 131.992 137.891 131.581 138.267 131.258C138.73 130.832 139.655 130.715 140.175 130.994ZM220.245 131.141C220.621 131.522 220.607 131.699 220.216 132.125C219.855 132.521 219.523 132.551 218.944 132.242C218.439 131.978 218.395 131.611 218.8 131.17C219.176 130.759 219.855 130.744 220.245 131.141ZM227.197 131.376C227.356 131.581 227.342 131.64 227.11 131.816C226.749 132.095 226.041 132.081 225.94 131.801C225.723 131.243 226.792 130.876 227.197 131.376ZM74.0229 132.242C76.2776 133.402 77.7519 135.444 77.1593 136.56C76.928 137.03 75.9019 137.456 74.789 137.559C73.9507 137.632 73.7628 137.603 73.069 137.236C71.4792 136.428 69.9327 134.68 69.9327 133.726C69.9327 133.138 70.3952 132.389 70.9733 132.007C71.6671 131.581 72.9101 131.669 74.0229 132.242ZM224.003 132.022C224.422 132.448 224.364 132.859 223.844 133.138C223.28 133.432 222.601 133.197 222.471 132.653C222.269 131.875 223.396 131.405 224.003 132.022ZM195.892 132.183C196.643 132.404 197.221 133.035 198.999 135.679C199.794 136.854 200.676 138.132 200.965 138.514L201.471 139.204L200.806 139.601C199.028 140.643 194.085 141.363 193.839 140.599C193.81 140.511 194.403 140.335 195.314 140.188C196.152 140.056 197.337 139.791 197.958 139.615L199.071 139.292L199.042 138.793C198.999 137.853 198.883 137.838 196.224 138.176C193.68 138.499 192.683 138.558 192.38 138.352C192.033 138.132 192.582 137.882 193.897 137.662C197.641 137.06 197.496 137.104 197.351 136.516C197.207 135.943 196.86 135.826 195.646 135.987C194.475 136.134 190.761 136.178 190.414 136.046C190.096 135.929 190.125 135.591 190.472 135.4C190.616 135.312 191.628 135.15 192.698 135.018C195.328 134.71 196.022 134.533 196.08 134.137C196.109 133.975 196.007 133.681 195.848 133.491C195.53 133.094 195.342 133.094 191.845 133.358C189.72 133.52 189.475 133.505 189.041 133.27C188.781 133.138 188.622 132.976 188.68 132.903C188.752 132.83 189.561 132.668 190.472 132.536C191.382 132.404 192.365 132.242 192.64 132.169C193.391 131.992 195.227 132.007 195.892 132.183ZM201.673 132.227C202.251 132.477 202.67 133.211 202.555 133.726C202.352 134.548 200.661 134.754 199.809 134.063C199.288 133.652 199.317 133.153 199.91 132.697C200.285 132.404 200.849 132.095 201.138 132.036C201.153 132.022 201.398 132.11 201.673 132.227ZM213.366 132.345C214.377 132.8 213.727 134.078 212.469 134.078C211.978 134.078 211.284 133.579 211.284 133.226C211.284 133.094 211.458 132.8 211.675 132.58C212.094 132.125 212.73 132.036 213.366 132.345ZM120.837 132.712C121.4 133.241 120.996 134.137 120.114 134.298C119.073 134.475 118.322 133.887 118.654 133.138C119.001 132.374 120.215 132.139 120.837 132.712ZM217.542 133.52C217.918 133.828 217.991 134.416 217.687 134.783C217.311 135.224 216.531 135.268 216.141 134.871C215.403 134.137 216.704 132.888 217.542 133.52ZM187.596 134.475C188.232 135.165 190.905 138.837 190.905 139.028C190.905 139.336 190.342 139.689 190.009 139.615C189.446 139.468 188.232 138.293 186.685 136.413C185.572 135.047 185.269 134.607 185.428 134.504C185.543 134.445 185.76 134.284 185.919 134.166C186.439 133.755 187.032 133.872 187.596 134.475ZM221.257 134.298C221.503 134.431 221.691 134.621 221.691 134.754C221.691 135.091 220.896 135.841 220.549 135.841C220.159 135.841 219.624 135.297 219.725 135.003C219.768 134.886 219.812 134.724 219.812 134.666C219.812 134.533 220.505 134.093 220.722 134.078C220.78 134.078 221.026 134.181 221.257 134.298ZM205.272 135.047C205.879 135.282 205.243 135.943 203.942 136.428C203.017 136.781 202.078 136.839 201.442 136.575C200.719 136.266 200.921 136.031 202.323 135.561C204.13 134.974 204.78 134.856 205.272 135.047ZM118.64 135.973C119.044 136.766 118.466 137.603 117.512 137.603C116.746 137.603 116.284 137.206 116.284 136.575C116.284 135.914 116.631 135.694 117.657 135.694C118.322 135.694 118.51 135.752 118.64 135.973ZM206.948 136.825C206.471 137.706 203.335 138.763 203.335 138.058C203.335 137.853 204.231 137.324 205.633 136.707C206.977 136.12 207.324 136.149 206.948 136.825ZM67.7792 137.897C68.5886 138.323 69.8894 139.586 70.2362 140.291C70.5397 140.878 70.6265 141.686 70.4386 141.995C70.2073 142.391 69.1378 142.744 68.1839 142.744C67.4612 142.744 67.071 142.656 66.5073 142.376C65.1054 141.657 63.2554 139.277 63.5011 138.499C63.8046 137.515 66.3483 137.162 67.7792 137.897ZM122.629 138.132C123.467 138.543 123.453 139.321 122.6 139.733C121.4 140.306 120.085 139.072 120.952 138.191C121.299 137.838 121.964 137.809 122.629 138.132ZM62.2147 143.64C63.6022 144.506 63.371 145.74 61.7378 146.283C61.4343 146.371 61.0296 146.577 60.8272 146.709C60.6249 146.856 59.6565 147.179 58.6593 147.429C56.2456 148.031 56.3468 148.016 56.3468 147.884C56.3468 147.679 58.8183 144.976 59.7577 144.154C60.8417 143.214 61.3765 143.111 62.2147 143.64Z" fill="white"/>
<path d="M219.697 108.801C219.032 109.227 218.829 109.726 219.147 110.196C219.769 111.18 222.081 110.652 221.951 109.565C221.85 108.742 220.506 108.287 219.697 108.801Z" fill="white"/>
<path d="M71.3495 132.844C71.1616 133.021 71.2194 133.623 71.4362 134.049C71.9421 135.018 74.0811 136.575 74.9194 136.575C75.2952 136.575 76.0034 136.046 76.0034 135.767C76.0034 135.327 74.4136 133.667 73.6476 133.27C72.8671 132.888 71.5374 132.639 71.3495 132.844Z" fill="white"/>
<path d="M65.0765 138.705C64.9031 139.16 65.2066 139.747 66.0015 140.541C67.0855 141.613 68.4441 142.039 69.1234 141.525C69.3835 141.334 69.3835 141.304 69.1378 140.79C68.8488 140.144 67.6058 138.969 66.941 138.69C66.2906 138.411 65.1777 138.426 65.0765 138.705Z" fill="white"/>
<path d="M227.241 110.96C226.056 111.782 222.978 114.558 220.824 116.747C217.5 120.11 216.488 121.814 216.488 124.017C216.488 125.236 216.618 125.662 217.312 126.543C218.266 127.762 220.607 128.497 223.556 128.497C225.767 128.497 234.237 127.939 234.873 127.762C235.899 127.469 236.347 126.382 235.639 125.912C235.335 125.706 235.061 125.677 234.034 125.765C233.37 125.824 232.329 125.971 231.736 126.073C230.349 126.352 226.808 126.587 223.498 126.632C221.012 126.661 220.868 126.646 220.203 126.308C219.408 125.912 218.714 125.045 218.57 124.296C218.483 123.782 218.888 122.313 219.422 121.227C219.885 120.272 221.691 118.524 225.449 115.352C229.207 112.208 229.568 111.856 229.438 111.636C229.337 111.459 228.051 110.578 227.906 110.578C227.848 110.578 227.545 110.754 227.241 110.96Z" fill="white"/>
<path d="M229.755 114.529C227.313 115.792 223.83 118.421 221.705 120.609L220.477 121.873L220.881 122.915C221.503 124.531 222.182 125.192 222.847 124.825C223.121 124.678 223.136 124.575 223.049 123.356C222.963 122.181 222.977 122.034 223.208 121.946C223.396 121.873 223.656 122.034 224.191 122.607C225.058 123.532 225.521 123.855 225.81 123.738C226.157 123.606 226.055 123.004 225.506 121.902C225.116 121.153 225 120.786 225.073 120.507C225.304 119.537 226.07 119.904 227.067 121.432C227.486 122.078 227.92 122.651 228.021 122.695C228.267 122.783 229.206 122.357 229.206 122.137C229.206 122.049 228.859 121.388 228.426 120.654C227.298 118.744 227.241 118.171 228.18 118.171C228.758 118.171 228.975 118.362 229.857 119.772C230.767 121.197 231.273 121.652 231.692 121.432C232.054 121.241 231.996 121.006 231.172 119.126C230.825 118.348 230.493 117.554 230.435 117.364C230.305 116.894 230.579 116.6 231.172 116.6C231.707 116.6 232.169 116.967 233.932 118.774C235.016 119.86 235.262 119.993 235.566 119.611C235.71 119.434 235.71 119.302 235.58 119.009C235.045 117.804 231.649 113.956 231.129 113.956C230.984 113.956 230.363 114.22 229.755 114.529Z" fill="white"/>
<path d="M212.441 119.332C211.748 119.64 211.184 120.213 210.779 121.006C210.143 122.299 210.187 122.798 210.982 123.606C212.109 124.766 214.046 124.12 215.144 122.211C215.635 121.373 215.679 120.316 215.26 119.831C214.638 119.112 213.41 118.906 212.441 119.332ZM213.713 120.595C213.988 120.874 213.916 121.344 213.453 122.078C212.745 123.224 211.863 123.356 211.863 122.299C211.863 121.183 213.135 120.008 213.713 120.595Z" fill="white"/>
</g>
<g opacity="0.2">
<path d="M42 163.283C43.3922 163.453 44.6579 163.579 45.797 163.664C46.8939 163.749 47.8431 163.833 48.6447 163.918C49.5729 164.002 50.3956 164.066 51.1128 164.108C51.8722 164.108 52.8425 164.087 54.0238 164.045C55.0363 164.002 56.3231 163.939 57.8841 163.854C59.4451 163.77 61.3647 163.622 63.6429 163.41C62.5459 164.045 61.6389 164.679 60.9217 165.313C60.2467 165.947 59.7193 166.518 59.3396 167.026C58.8755 167.618 58.538 168.21 58.3271 168.802C58.2005 169.605 58.2427 171.17 58.4536 173.495C58.538 174.468 58.6646 175.673 58.8333 177.111C59.0443 178.506 59.2974 180.176 59.5927 182.121C59.9302 184.024 60.331 186.223 60.7951 188.718C61.3014 191.213 61.8709 194.046 62.5038 197.217C63.3475 194.807 64.0437 192.672 64.5921 190.811C65.1406 188.908 65.6046 187.28 65.9843 185.927C66.4062 184.405 66.7648 183.052 67.0602 181.868C67.3555 180.641 67.7141 179.056 68.136 177.111C68.4735 175.462 68.9165 173.326 69.4649 170.704C70.0134 168.083 70.6884 164.848 71.49 161L73.7682 161.317C73.9791 164.319 74.1901 166.962 74.401 169.246C74.6541 171.529 74.8651 173.474 75.0338 175.081C75.2026 176.942 75.3713 178.548 75.5401 179.901C75.7089 181.128 75.962 182.544 76.2995 184.151C76.5948 185.504 76.9745 187.175 77.4386 189.162C77.9027 191.107 78.5144 193.306 79.2738 195.758C80.0332 192.756 80.7082 190.071 81.2989 187.703C81.9317 185.335 82.4591 183.242 82.881 181.424C83.345 179.605 83.7247 178.041 84.0201 176.73C84.3576 175.419 84.6318 174.32 84.8427 173.432C85.3068 171.318 85.581 169.901 85.6654 169.182C85.6232 168.379 85.4334 167.596 85.0959 166.835C84.8005 166.159 84.3365 165.419 83.7036 164.615C83.0708 163.812 82.1426 163.03 80.9192 162.269C83.4927 162.353 85.581 162.417 87.1842 162.459C88.8296 162.459 90.1374 162.459 91.1078 162.459H93.6391H95.9173C96.7611 162.459 97.858 162.459 99.208 162.459C100.6 162.417 102.372 162.353 104.524 162.269C102.668 163.241 101.17 164.129 100.031 164.933C98.8916 165.736 98.0056 166.413 97.3728 166.962C96.6134 167.639 96.065 168.21 95.7274 168.675C95.3899 169.52 94.8415 171.423 94.0821 174.383C93.7446 175.652 93.3649 177.238 92.943 179.14C92.5211 181.001 92.0148 183.242 91.4242 185.864C90.8757 188.485 90.2429 191.551 89.5257 195.061C88.8085 198.528 88.0069 202.503 87.1209 206.985L76.1729 205.843L71.49 186.117C70.7728 189.712 70.2032 192.629 69.7813 194.87C69.3594 197.069 69.043 198.782 68.8321 200.008C68.5789 201.488 68.4313 202.566 68.3891 203.243C68.3469 203.835 68.3047 204.406 68.2625 204.955C68.2203 205.421 68.1571 205.928 68.0727 206.478C68.0305 207.027 67.9672 207.535 67.8828 208H56.6817C55.5848 203.179 54.5934 198.93 53.7074 195.251C52.8636 191.53 52.1042 188.274 51.4292 185.483C50.7542 182.692 50.1635 180.324 49.6573 178.379C49.1932 176.434 48.7713 174.806 48.3916 173.495C47.5478 170.451 46.9361 168.569 46.5564 167.85C46.2611 167.512 45.8814 167.11 45.4173 166.645C45.0376 166.265 44.5735 165.799 44.0251 165.25C43.4344 164.658 42.7594 164.002 42 163.283Z" fill="white"/>
<path d="M94.7782 162.839C96.2548 163.009 97.4994 163.135 98.5119 163.22C99.5244 163.262 100.326 163.305 100.917 163.347C101.634 163.389 102.203 163.41 102.625 163.41C103.343 163.41 104.165 163.389 105.093 163.347C105.895 163.305 106.823 163.241 107.878 163.157C108.975 163.03 110.156 162.839 111.422 162.586C110.831 163.22 110.346 163.833 109.966 164.425C109.586 164.975 109.291 165.482 109.08 165.947C108.827 166.455 108.616 166.92 108.447 167.343C108.279 167.892 108.089 168.738 107.878 169.88C107.667 170.852 107.435 172.227 107.182 174.003C106.971 175.779 106.697 178.104 106.359 180.98C107.793 181.022 109.038 181.043 110.093 181.043C111.147 181.001 112.033 180.98 112.751 180.98H114.839C115.43 180.937 116.105 180.895 116.864 180.853C118.13 180.811 120.049 180.684 122.623 180.472C122.834 178.527 122.939 176.857 122.939 175.462C122.981 174.024 122.96 172.819 122.876 171.846C122.792 170.747 122.665 169.816 122.496 169.055C122.37 168.632 122.18 168.125 121.927 167.533C121.716 167.026 121.42 166.413 121.041 165.694C120.703 164.933 120.239 164.023 119.648 162.966C120.745 163.135 121.716 163.262 122.56 163.347C123.445 163.389 124.184 163.431 124.774 163.474C125.449 163.516 126.019 163.537 126.483 163.537C126.947 163.537 127.559 163.516 128.318 163.474C128.951 163.431 129.732 163.41 130.66 163.41C131.588 163.368 132.727 163.305 134.077 163.22C133.74 163.812 133.444 164.425 133.191 165.059C132.938 165.694 132.727 166.265 132.558 166.772C132.39 167.364 132.221 167.956 132.052 168.548C131.841 169.436 131.651 170.726 131.482 172.417C131.356 174.108 131.229 175.99 131.103 178.062C131.018 180.134 130.934 182.291 130.85 184.532C130.807 186.773 130.765 188.887 130.723 190.874C130.723 192.862 130.744 194.638 130.786 196.202C130.829 197.725 130.913 198.803 131.039 199.437C131.166 200.198 131.377 200.981 131.672 201.784C131.925 202.503 132.263 203.285 132.685 204.131C133.107 204.934 133.655 205.695 134.33 206.414L119.079 207.556C119.712 206.964 120.218 206.393 120.598 205.843C120.977 205.251 121.273 204.744 121.484 204.321C121.695 203.856 121.842 203.412 121.927 202.989C121.969 202.482 122.032 201.594 122.117 200.325C122.201 199.268 122.285 197.767 122.37 195.822C122.454 193.877 122.538 191.297 122.623 188.084C122.032 188.084 121.315 188.105 120.471 188.147C119.67 188.147 118.91 188.168 118.193 188.211C117.349 188.253 116.463 188.274 115.535 188.274C114.607 188.316 113.637 188.359 112.624 188.401C111.78 188.485 110.831 188.57 109.776 188.655C108.764 188.697 107.751 188.76 106.739 188.845C106.654 190.621 106.654 192.185 106.739 193.538C106.823 194.849 106.95 195.97 107.118 196.9C107.287 198 107.498 198.951 107.751 199.754C108.004 200.516 108.279 201.277 108.574 202.038C108.827 202.714 109.122 203.433 109.46 204.194C109.84 204.955 110.219 205.632 110.599 206.224C109.797 206.139 109.059 206.076 108.384 206.034C107.709 205.949 107.118 205.865 106.612 205.78C106.022 205.738 105.452 205.695 104.904 205.653C104.355 205.653 103.701 205.632 102.942 205.59C102.267 205.547 101.423 205.526 100.41 205.526C99.3979 205.484 98.2166 205.463 96.8665 205.463C97.6681 204.659 98.301 203.877 98.765 203.116C99.2713 202.313 99.6299 201.594 99.8409 200.96C100.094 200.198 100.263 199.501 100.347 198.866C100.389 198.317 100.41 197.281 100.41 195.758C100.453 194.236 100.453 192.502 100.41 190.557C100.41 188.57 100.389 186.498 100.347 184.341C100.305 182.143 100.242 180.092 100.157 178.189C100.115 176.286 100.052 174.658 99.9674 173.305C99.9252 171.91 99.883 171.043 99.8409 170.704C99.6299 169.943 99.3135 169.119 98.8916 168.231C98.5119 167.512 98.0056 166.687 97.3728 165.757C96.74 164.785 95.8751 163.812 94.7782 162.839Z" fill="white"/>
<path d="M132.368 164.552C135.322 164.637 137.769 164.7 139.709 164.742C141.692 164.742 143.295 164.742 144.519 164.742H147.873H166.731C166.816 165.588 166.879 166.413 166.921 167.216C167.005 167.977 167.048 168.654 167.048 169.246C167.048 169.964 167.027 170.62 166.984 171.212C166.942 171.804 166.879 172.438 166.794 173.115C166.71 173.707 166.626 174.341 166.541 175.018C166.457 175.694 166.309 176.392 166.098 177.111C165.508 174.827 164.706 173.094 163.694 171.91C162.723 170.726 161.732 169.859 160.719 169.309C159.538 168.675 158.293 168.336 156.986 168.294C155.256 168.379 153.906 168.527 152.935 168.738C151.965 168.95 151.206 169.246 150.657 169.626C150.109 170.007 149.687 170.451 149.392 170.958C149.138 171.423 148.864 171.952 148.569 172.544C148.316 173.051 148.084 173.834 147.873 174.891C147.662 175.779 147.451 176.984 147.24 178.506C147.071 180.028 146.881 181.995 146.67 184.405C147.81 184.067 148.717 183.749 149.392 183.453C150.109 183.157 150.678 182.904 151.1 182.692C151.564 182.439 151.902 182.206 152.113 181.995C152.282 181.741 152.535 181.276 152.872 180.599C153.125 180.007 153.463 179.204 153.885 178.189C154.349 177.174 154.897 175.779 155.53 174.003C155.614 175.948 155.657 177.576 155.657 178.887C155.657 180.155 155.678 181.191 155.72 181.995C155.72 182.925 155.741 183.665 155.783 184.215V186.625C155.783 187.513 155.783 188.718 155.783 190.24C155.825 191.72 155.889 193.602 155.973 195.885C155.467 194.321 155.003 193.094 154.581 192.206C154.201 191.276 153.864 190.578 153.568 190.113C153.231 189.564 152.935 189.183 152.682 188.972C152.387 188.887 151.986 188.803 151.48 188.718C151.016 188.676 150.425 188.655 149.708 188.655C149.033 188.655 148.168 188.76 147.113 188.972C146.987 191.297 146.966 193.179 147.05 194.617C147.177 196.012 147.345 197.09 147.556 197.852C147.767 198.74 148.02 199.374 148.316 199.754C148.695 200.135 149.455 200.452 150.594 200.706C151.733 200.917 153.02 201.002 154.454 200.96C155.931 200.875 157.429 200.621 158.947 200.198C160.466 199.776 161.816 199.078 162.997 198.105C163.883 197.302 164.833 196.287 165.845 195.061C166.689 194.004 167.617 192.672 168.63 191.065C169.684 189.458 170.718 187.513 171.731 185.229C171.562 187.132 171.435 188.718 171.351 189.987C171.309 191.213 171.245 192.206 171.161 192.968C171.077 193.856 171.013 194.532 170.971 194.997C170.971 195.505 170.908 196.224 170.781 197.154C170.697 197.957 170.549 199.057 170.338 200.452C170.17 201.805 169.938 203.539 169.642 205.653C167.659 205.695 165.782 205.738 164.01 205.78C162.238 205.78 160.677 205.801 159.327 205.843C157.724 205.886 156.247 205.928 154.897 205.97C153.505 205.97 151.965 206.034 150.278 206.161C148.801 206.245 147.05 206.372 145.025 206.541C143.042 206.71 140.848 206.943 138.444 207.239C138.655 204.363 138.802 201.657 138.887 199.12C139.013 196.541 139.098 194.278 139.14 192.333C139.182 190.05 139.182 187.936 139.14 185.991C139.351 181.128 139.266 177.195 138.887 174.193C138.507 171.191 138.064 169.267 137.558 168.421C137.305 168.125 136.946 167.766 136.482 167.343C136.102 167.004 135.575 166.603 134.9 166.138C134.225 165.673 133.381 165.144 132.368 164.552Z" fill="white"/>
<path d="M170.465 164.552C173.418 164.637 175.865 164.7 177.806 164.742C179.789 164.742 181.392 164.742 182.615 164.742H185.969H204.828C204.912 165.588 204.975 166.413 205.018 167.216C205.102 167.977 205.144 168.654 205.144 169.246C205.144 169.964 205.123 170.62 205.081 171.212C205.039 171.804 204.975 172.438 204.891 173.115C204.807 173.707 204.722 174.341 204.638 175.018C204.553 175.694 204.406 176.392 204.195 177.111C203.604 174.827 202.803 173.094 201.79 171.91C200.82 170.726 199.828 169.859 198.816 169.309C197.635 168.675 196.39 168.336 195.082 168.294C193.352 168.379 192.002 168.527 191.032 168.738C190.062 168.95 189.302 169.246 188.754 169.626C188.205 170.007 187.783 170.451 187.488 170.958C187.235 171.423 186.961 171.952 186.665 172.544C186.412 173.051 186.18 173.834 185.969 174.891C185.758 175.779 185.547 176.984 185.336 178.506C185.168 180.028 184.978 181.995 184.767 184.405C185.906 184.067 186.813 183.749 187.488 183.453C188.205 183.157 188.775 182.904 189.197 182.692C189.661 182.439 189.998 182.206 190.209 181.995C190.378 181.741 190.631 181.276 190.969 180.599C191.222 180.007 191.559 179.204 191.981 178.189C192.445 177.174 192.994 175.779 193.627 174.003C193.711 175.948 193.753 177.576 193.753 178.887C193.753 180.155 193.774 181.191 193.816 181.995C193.816 182.925 193.838 183.665 193.88 184.215V186.625C193.88 187.513 193.88 188.718 193.88 190.24C193.922 191.72 193.985 193.602 194.07 195.885C193.563 194.321 193.099 193.094 192.677 192.206C192.298 191.276 191.96 190.578 191.665 190.113C191.327 189.564 191.032 189.183 190.779 188.972C190.484 188.887 190.083 188.803 189.576 188.718C189.112 188.676 188.522 188.655 187.805 188.655C187.129 188.655 186.265 188.76 185.21 188.972C185.083 191.297 185.062 193.179 185.147 194.617C185.273 196.012 185.442 197.09 185.653 197.852C185.864 198.74 186.117 199.374 186.412 199.754C186.792 200.135 187.551 200.452 188.69 200.706C189.83 200.917 191.116 201.002 192.551 200.96C194.027 200.875 195.525 200.621 197.044 200.198C198.563 199.776 199.913 199.078 201.094 198.105C201.98 197.302 202.929 196.287 203.942 195.061C204.786 194.004 205.714 192.672 206.726 191.065C207.781 189.458 208.815 187.513 209.827 185.229C209.658 187.132 209.532 188.718 209.447 189.987C209.405 191.213 209.342 192.206 209.258 192.968C209.173 193.856 209.11 194.532 209.068 194.997C209.068 195.505 209.004 196.224 208.878 197.154C208.793 197.957 208.646 199.057 208.435 200.452C208.266 201.805 208.034 203.539 207.739 205.653C205.756 205.695 203.878 205.738 202.107 205.78C200.335 205.78 198.774 205.801 197.424 205.843C195.82 205.886 194.344 205.928 192.994 205.97C191.602 205.97 190.062 206.034 188.374 206.161C186.897 206.245 185.147 206.372 183.122 206.541C181.139 206.71 178.945 206.943 176.54 207.239C176.751 204.363 176.899 201.657 176.983 199.12C177.11 196.541 177.194 194.278 177.236 192.333C177.278 190.05 177.278 187.936 177.236 185.991C177.447 181.128 177.363 177.195 176.983 174.193C176.603 171.191 176.16 169.267 175.654 168.421C175.401 168.125 175.042 167.766 174.578 167.343C174.199 167.004 173.671 166.603 172.996 166.138C172.321 165.673 171.477 165.144 170.465 164.552Z" fill="white"/>
<path d="M211.789 161.888C213.012 162.099 214.088 162.247 215.016 162.332C215.987 162.417 216.788 162.48 217.421 162.522C218.18 162.565 218.834 162.586 219.383 162.586C219.931 162.586 220.712 162.543 221.724 162.459C222.568 162.374 223.665 162.269 225.015 162.142C226.407 162.015 228.116 161.803 230.141 161.507C229.55 161.677 229.002 162.163 228.496 162.966C228.032 163.727 227.61 164.552 227.23 165.44C226.766 166.497 226.365 167.66 226.028 168.928C225.732 170.07 225.353 171.635 224.888 173.622C224.467 175.61 224.045 177.766 223.623 180.092C223.243 182.417 222.948 184.785 222.737 187.196C222.526 189.564 222.484 191.741 222.61 193.729C222.779 195.716 223.18 197.365 223.813 198.676C224.445 199.945 225.416 200.621 226.724 200.706C228.707 200.875 230.352 200.896 231.66 200.769C233.01 200.6 234.107 200.368 234.951 200.072C235.794 199.776 236.448 199.437 236.912 199.057C237.376 198.634 237.735 198.232 237.988 197.852C238.663 196.879 239.359 195.632 240.076 194.109C240.794 192.587 241.426 191.128 241.975 189.733C242.566 188.337 243.051 187.153 243.43 186.181C243.81 185.208 244 184.743 244 184.785C244 184.87 243.979 185.356 243.937 186.244C243.937 187.09 243.916 188.126 243.873 189.352C243.873 190.536 243.852 191.784 243.81 193.094C243.81 194.405 243.789 195.526 243.747 196.456C243.705 197.217 243.662 198.063 243.62 198.993C243.578 199.797 243.536 200.748 243.494 201.848C243.494 202.947 243.452 204.152 243.367 205.463C241.595 205.336 239.908 205.251 238.305 205.209C236.701 205.167 235.288 205.146 234.065 205.146C232.63 205.146 231.301 205.167 230.078 205.209C228.77 205.251 227.251 205.315 225.521 205.399C224.045 205.484 222.209 205.59 220.016 205.717C217.822 205.801 215.291 205.928 212.422 206.097C212.759 205.505 213.033 204.955 213.244 204.448C213.497 203.941 213.687 203.518 213.814 203.179C213.983 202.757 214.088 202.397 214.13 202.101C214.383 200.748 214.594 199.036 214.763 196.964C214.932 194.849 215.058 192.608 215.143 190.24C215.269 187.872 215.333 185.462 215.333 183.009C215.375 180.515 215.375 178.21 215.333 176.096C215.291 173.982 215.206 172.142 215.08 170.578C214.995 169.013 214.869 167.935 214.7 167.343C214.489 166.666 214.236 165.99 213.94 165.313C213.687 164.721 213.371 164.129 212.991 163.537C212.654 162.903 212.253 162.353 211.789 161.888Z" fill="white"/>
</g>
</svg>
