<svg width="21" height="20" viewBox="0 0 21 20" fill="none" xmlns="http://www.w3.org/2000/svg">
<path d="M10.625 1C5.1025 1 0.625 4.49583 0.625 8.80667C0.625 12.8117 4.49 16.11 9.46583 16.5567C9.54803 16.5704 9.62652 16.6009 9.69647 16.6462C9.76642 16.6915 9.82633 16.7506 9.8725 16.82C10.0267 17.4803 9.9894 18.1709 9.765 18.8108C9.59333 19.6725 10.5258 19.2275 10.7325 19.1258C13.1871 17.771 15.5015 16.1762 17.6417 14.365C18.5354 13.733 19.2701 12.902 19.7878 11.9376C20.3055 10.9731 20.5921 9.90162 20.625 8.8075C20.625 4.49583 16.1483 1 10.625 1ZM7.29167 10.85C7.28969 10.9907 7.232 11.1249 7.13125 11.2232C7.03049 11.3214 6.89489 11.3757 6.75417 11.3742H4.92583C4.60333 11.3742 4.17583 11.2633 4.17583 10.745V6.86833C4.17759 6.72842 4.23452 6.59485 4.33424 6.49669C4.43396 6.39853 4.56841 6.34372 4.70833 6.34417H4.81583C4.88554 6.34329 4.95475 6.35614 5.01949 6.38201C5.08423 6.40788 5.14324 6.44624 5.19315 6.49492C5.24307 6.54359 5.2829 6.60162 5.31039 6.66569C5.33787 6.72976 5.35246 6.79862 5.35333 6.86833V10.2217H6.75417C6.89475 10.2201 7.03022 10.2743 7.13096 10.3724C7.23169 10.4704 7.28947 10.6044 7.29167 10.745V10.85ZM8.79833 10.7458C8.79833 10.8883 8.74175 11.0249 8.64102 11.1256C8.5403 11.2263 8.40369 11.2829 8.26125 11.2829C8.11881 11.2829 7.9822 11.2263 7.88147 11.1256C7.78075 11.0249 7.72417 10.8883 7.72417 10.7458V6.97917C7.72417 6.83672 7.78075 6.70011 7.88147 6.59939C7.9822 6.49867 8.11881 6.44208 8.26125 6.44208C8.40369 6.44208 8.5403 6.49867 8.64102 6.59939C8.74175 6.70011 8.79833 6.83672 8.79833 6.97917V10.7458ZM13.5283 10.7458C13.5132 10.8819 13.4514 11.0085 13.3534 11.1041C13.2554 11.1997 13.1272 11.2583 12.9908 11.27C12.8671 11.2911 12.74 11.2735 12.6266 11.2197C12.5133 11.1658 12.4193 11.0784 12.3575 10.9692L10.625 8.56V10.745C10.625 10.8876 10.5684 11.0243 10.4676 11.1251C10.3668 11.2259 10.2301 11.2825 10.0875 11.2825C9.94495 11.2825 9.80823 11.2259 9.70743 11.1251C9.60663 11.0243 9.55 10.8876 9.55 10.745V6.9725C9.55087 6.90279 9.56546 6.83393 9.59295 6.76986C9.62043 6.70579 9.66027 6.64776 9.71018 6.59908C9.76009 6.55041 9.8191 6.51204 9.88384 6.48618C9.94859 6.46031 10.0178 6.44745 10.0875 6.44833C10.215 6.44893 10.3398 6.48534 10.4477 6.55341C10.5555 6.62148 10.6421 6.71847 10.6975 6.83333C10.8642 7.0775 12.455 9.2775 12.455 9.2775V6.9725C12.4605 6.8335 12.5195 6.70201 12.6198 6.6056C12.7201 6.50919 12.8538 6.45534 12.9929 6.45534C13.132 6.45534 13.2657 6.50919 13.366 6.6056C13.4663 6.70201 13.5254 6.8335 13.5308 6.9725V10.745L13.5283 10.7458ZM16.7542 8.33333C16.823 8.33333 16.8912 8.34689 16.9548 8.37323C17.0184 8.39957 17.0761 8.43818 17.1248 8.48686C17.1735 8.53553 17.2121 8.59331 17.2384 8.65691C17.2648 8.7205 17.2783 8.78866 17.2783 8.8575C17.2783 8.92633 17.2648 8.99449 17.2384 9.05809C17.2121 9.12168 17.1735 9.17947 17.1248 9.22814C17.0761 9.27681 17.0184 9.31542 16.9548 9.34177C16.8912 9.36811 16.823 9.38167 16.7542 9.38167H15.3567V10.22H16.755C16.849 10.2176 16.9419 10.2402 17.0242 10.2856C17.1065 10.331 17.1753 10.3976 17.2233 10.4783C17.2709 10.5587 17.296 10.6504 17.296 10.7437C17.296 10.8371 17.2709 10.9288 17.2233 11.0092C17.1753 11.0899 17.1065 11.1565 17.0242 11.2019C16.9419 11.2473 16.849 11.2699 16.755 11.2675H14.6575C14.5304 11.269 14.4079 11.2201 14.3167 11.1317C14.2719 11.0883 14.2361 11.0366 14.2113 10.9794C14.1866 10.9222 14.1734 10.8606 14.1725 10.7983V6.92083C14.1733 6.85857 14.1864 6.79709 14.211 6.73989C14.2356 6.68269 14.2712 6.6309 14.3158 6.5875C14.4071 6.49903 14.5296 6.45021 14.6567 6.45167H16.7533C16.8473 6.44925 16.9402 6.4719 17.0225 6.51731C17.1049 6.56271 17.1736 6.62922 17.2217 6.71C17.2693 6.79035 17.2944 6.88203 17.2944 6.97542C17.2944 7.06881 17.2693 7.16048 17.2217 7.24083C17.1736 7.32161 17.1049 7.38812 17.0225 7.43353C16.9402 7.47893 16.8473 7.50159 16.7533 7.49917H15.3567V8.33333H16.755H16.7542Z" fill="#00C300"/>
</svg>
