<svg width="460" height="324" viewBox="0 0 460 324" fill="none" xmlns="http://www.w3.org/2000/svg">
<rect width="460" height="324" rx="10" fill="#0D131C"/>
<g filter="url(#filter0_d_2147_13787)">
<g clip-path="url(#clip0_2147_13787)">
<rect x="146" y="20" width="168" height="122" rx="5.7" fill="url(#paint0_linear_2147_13787)"/>
<path d="M224.919 59.8539L219.317 58.5145L221.339 40.542H241.259V46.2162H227.11L226.234 54.0823C226.704 53.8063 227.419 53.514 228.377 53.2056C229.335 52.8809 230.406 52.7185 231.591 52.7185C233.312 52.7185 234.838 52.9864 236.17 53.5222C237.501 54.0579 238.629 54.8372 239.555 55.86C240.496 56.8829 241.211 58.133 241.698 59.6104C242.185 61.0878 242.428 62.7601 242.428 64.6271C242.428 66.202 242.185 67.7037 241.698 69.1324C241.211 70.5449 240.472 71.8113 239.482 72.9315C238.491 74.0355 237.249 74.9041 235.756 75.5373C234.262 76.1705 232.492 76.4871 230.447 76.4871C228.921 76.4871 227.443 76.2598 226.014 75.8052C224.602 75.3506 223.327 74.6768 222.191 73.7839C221.071 72.8909 220.17 71.8113 219.488 70.5449C218.822 69.2623 218.473 67.8011 218.441 66.1614H225.406C225.503 67.168 225.763 68.0366 226.185 68.7672C226.623 69.4815 227.2 70.0335 227.914 70.4232C228.628 70.8128 229.464 71.0076 230.422 71.0076C231.315 71.0076 232.078 70.8372 232.711 70.4962C233.345 70.1553 233.856 69.6844 234.246 69.0837C234.635 68.4668 234.919 67.7524 235.098 66.9407C235.293 66.1127 235.39 65.2197 235.39 64.2618C235.39 63.304 235.277 62.4354 235.049 61.6561C234.822 60.8768 234.473 60.203 234.002 59.6348C233.531 59.0665 232.931 58.6282 232.2 58.3197C231.486 58.0112 230.65 57.857 229.692 57.857C228.393 57.857 227.386 58.0599 226.672 58.4658C225.974 58.8717 225.389 59.3344 224.919 59.8539Z" fill="#EE3D3D"/>
<rect x="230.203" y="99.5703" width="21.9257" height="21.9257" transform="rotate(45 230.203 99.5703)" fill="#EE3D3D"/>
</g>
<rect x="146.356" y="20.3562" width="167.288" height="121.287" rx="5.34375" stroke="#ECECEC" stroke-width="0.7125"/>
</g>
<g clip-path="url(#clip1_2147_13787)">
<rect x="24" y="146.5" width="412" height="76" rx="9.5" fill="#161F2C" stroke="#FA305C"/>
<path fill-rule="evenodd" clip-rule="evenodd" d="M51.2491 179.34C50.8513 178.892 50.1521 178.892 49.7543 179.34L44.9811 184.709C44.4079 185.354 44.8657 186.374 45.7285 186.374H55.2748C56.1377 186.374 56.5955 185.354 56.0222 184.709L51.2491 179.34ZM54.0017 186.374H47.0017V191.499C47.0017 192.051 47.4494 192.499 48.0017 192.499H53.0017C53.554 192.499 54.0017 192.051 54.0017 191.499V186.374Z" fill="#FA305C"/>
<path d="M62.505 179.21H75.51V180.545H69.705V181.58H74.295V187.745H69.495C69.335 188.605 69.08 189.315 68.73 189.875C70.77 190.675 73.195 191.12 76.005 191.21L75.645 192.59C72.635 192.45 70.025 191.89 67.815 190.91C66.735 191.75 65.035 192.305 62.715 192.575L62.1 191.27C64.03 191.15 65.47 190.8 66.42 190.22C65.63 189.78 64.895 189.275 64.215 188.705L65.31 187.955C65.91 188.425 66.61 188.87 67.41 189.29C67.69 188.85 67.905 188.335 68.055 187.745H63.75V181.58H68.295V180.545H62.505V179.21ZM72.885 186.5V185.225H69.705V185.585C69.705 185.905 69.69 186.21 69.66 186.5H72.885ZM68.25 186.5C68.28 186.2 68.295 185.895 68.295 185.585V185.225H65.16V186.5H68.25ZM65.16 184.055H68.295V182.795H65.16V184.055ZM69.705 182.795V184.055H72.885V182.795H69.705ZM84.42 178.61C84.56 179.01 84.695 179.42 84.825 179.84H90.66V181.16H77.325V179.84H83.28C83.15 179.51 83 179.19 82.83 178.88L84.42 178.61ZM86.985 192.5L86.655 191.225L87.81 191.285C88.37 191.285 88.65 191.085 88.65 190.685V186.89H79.35V192.545H78V185.66H90V190.985C90 191.995 89.41 192.5 88.23 192.5H86.985ZM79.68 181.865H88.335V184.985H79.68V181.865ZM86.97 183.905V182.945H81.045V183.905H86.97ZM80.955 187.61H87.06V190.76H80.955V187.61ZM85.8 189.71V188.66H82.23V189.71H85.8Z" fill="#FA305C"/>
<path d="M220.898 180.08C221.978 180.08 222.843 180.34 223.493 180.86C224.133 181.39 224.453 182.11 224.453 183.02C224.453 184.2 223.863 184.985 222.683 185.375C223.303 185.565 223.783 185.86 224.123 186.26C224.483 186.66 224.663 187.18 224.663 187.82C224.663 188.81 224.323 189.62 223.643 190.25C222.913 190.89 221.978 191.21 220.838 191.21C219.748 191.21 218.868 190.93 218.198 190.37C217.448 189.74 217.028 188.825 216.938 187.625H218.588C218.618 188.355 218.853 188.91 219.293 189.29C219.683 189.65 220.193 189.83 220.823 189.83C221.503 189.83 222.058 189.63 222.488 189.23C222.858 188.86 223.043 188.415 223.043 187.895C223.043 187.265 222.848 186.8 222.458 186.5C222.098 186.2 221.563 186.05 220.853 186.05H220.073V184.82H220.838C221.488 184.82 221.983 184.675 222.323 184.385C222.663 184.095 222.833 183.68 222.833 183.14C222.833 182.61 222.678 182.2 222.368 181.91C222.048 181.62 221.563 181.475 220.913 181.475C220.263 181.475 219.758 181.64 219.398 181.97C219.028 182.31 218.813 182.805 218.753 183.455H217.148C217.238 182.395 217.633 181.565 218.333 180.965C218.983 180.375 219.838 180.08 220.898 180.08ZM229.787 180.08C230.927 180.08 231.832 180.38 232.502 180.98C233.102 181.52 233.402 182.19 233.402 182.99C233.402 183.54 233.282 184.005 233.042 184.385C232.772 184.785 232.367 185.09 231.827 185.3V185.345C232.347 185.465 232.787 185.765 233.147 186.245C233.567 186.755 233.777 187.345 233.777 188.015C233.777 188.955 233.432 189.725 232.742 190.325C232.032 190.915 231.047 191.21 229.787 191.21C228.517 191.21 227.532 190.915 226.832 190.325C226.142 189.725 225.797 188.955 225.797 188.015C225.797 187.345 226.007 186.755 226.427 186.245C226.787 185.765 227.227 185.465 227.747 185.345V185.3C227.207 185.09 226.802 184.785 226.532 184.385C226.292 184.005 226.172 183.54 226.172 182.99C226.172 182.19 226.472 181.52 227.072 180.98C227.732 180.38 228.637 180.08 229.787 180.08ZM229.787 181.385C229.117 181.385 228.592 181.56 228.212 181.91C227.872 182.21 227.702 182.59 227.702 183.05C227.702 183.57 227.842 183.975 228.122 184.265C228.472 184.625 229.027 184.805 229.787 184.805C230.537 184.805 231.092 184.625 231.452 184.265C231.732 183.955 231.872 183.55 231.872 183.05C231.872 182.6 231.702 182.22 231.362 181.91C230.982 181.56 230.457 181.385 229.787 181.385ZM229.787 186.02C228.987 186.02 228.397 186.21 228.017 186.59C227.617 186.95 227.417 187.425 227.417 188.015C227.417 188.575 227.622 189.025 228.032 189.365C228.442 189.715 229.027 189.89 229.787 189.89C230.537 189.89 231.132 189.715 231.572 189.365C231.962 189.015 232.157 188.565 232.157 188.015C232.157 187.415 231.962 186.945 231.572 186.605C231.152 186.215 230.557 186.02 229.787 186.02ZM236.321 188.855C236.651 188.855 236.916 188.955 237.116 189.155C237.326 189.345 237.431 189.6 237.431 189.92C237.431 190.22 237.321 190.48 237.101 190.7C236.881 190.9 236.621 191 236.321 191C236.011 191 235.751 190.895 235.541 190.685C235.331 190.475 235.226 190.22 235.226 189.92C235.226 189.6 235.331 189.345 235.541 189.155C235.741 188.955 236.001 188.855 236.321 188.855ZM245.448 180.29V187.37H247.068V188.675H245.448V191H243.888V188.675H238.668V187.13L243.948 180.29H245.448ZM243.843 182.36L240.003 187.37H243.888V182.36H243.843ZM252.027 180.08C253.067 180.08 253.912 180.375 254.562 180.965C255.212 181.565 255.537 182.335 255.537 183.275C255.537 184.185 255.187 185.03 254.487 185.81C254.067 186.24 253.327 186.815 252.267 187.535C251.117 188.295 250.427 188.97 250.197 189.56H255.552V191H248.172C248.172 189.93 248.527 188.995 249.237 188.195C249.607 187.755 250.412 187.105 251.652 186.245C252.382 185.725 252.892 185.315 253.182 185.015C253.672 184.465 253.917 183.88 253.917 183.26C253.917 182.66 253.752 182.21 253.422 181.91C253.092 181.61 252.607 181.46 251.967 181.46C251.287 181.46 250.777 181.69 250.437 182.15C250.087 182.59 249.897 183.245 249.867 184.115H248.232C248.252 182.915 248.597 181.955 249.267 181.235C249.947 180.465 250.867 180.08 252.027 180.08ZM267.651 185.135C268.481 185.135 269.116 185.43 269.556 186.02C269.956 186.54 270.156 187.225 270.156 188.075C270.156 188.905 269.956 189.59 269.556 190.13C269.096 190.71 268.461 191 267.651 191C266.821 191 266.176 190.71 265.716 190.13C265.316 189.6 265.116 188.915 265.116 188.075C265.116 187.205 265.316 186.52 265.716 186.02C266.156 185.43 266.801 185.135 267.651 185.135ZM267.396 180.08L261.381 191.21H260.166L266.166 180.08H267.396ZM259.941 180.29C260.771 180.29 261.406 180.585 261.846 181.175C262.246 181.695 262.446 182.38 262.446 183.23C262.446 184.06 262.246 184.745 261.846 185.285C261.386 185.865 260.751 186.155 259.941 186.155C259.111 186.155 258.466 185.865 258.006 185.285C257.606 184.755 257.406 184.07 257.406 183.23C257.406 182.36 257.606 181.675 258.006 181.175C258.446 180.585 259.091 180.29 259.941 180.29ZM267.651 186.17C267.261 186.17 266.976 186.365 266.796 186.755C266.666 187.055 266.601 187.495 266.601 188.075C266.601 188.625 266.666 189.06 266.796 189.38C266.976 189.77 267.261 189.965 267.651 189.965C268.021 189.965 268.296 189.76 268.476 189.35C268.606 189.01 268.671 188.585 268.671 188.075C268.671 187.535 268.601 187.1 268.461 186.77C268.301 186.37 268.031 186.17 267.651 186.17ZM259.941 181.325C259.551 181.325 259.266 181.52 259.086 181.91C258.956 182.21 258.891 182.65 258.891 183.23C258.891 183.78 258.956 184.215 259.086 184.535C259.266 184.925 259.551 185.12 259.941 185.12C260.311 185.12 260.586 184.915 260.766 184.505C260.896 184.165 260.961 183.74 260.961 183.23C260.961 182.69 260.891 182.255 260.751 181.925C260.591 181.525 260.321 181.325 259.941 181.325Z" fill="#FA305C"/>
<path d="M334.115 180.08C335.155 180.08 336 180.375 336.65 180.965C337.3 181.565 337.625 182.335 337.625 183.275C337.625 184.185 337.275 185.03 336.575 185.81C336.155 186.24 335.415 186.815 334.355 187.535C333.205 188.295 332.515 188.97 332.285 189.56H337.64V191H330.26C330.26 189.93 330.615 188.995 331.325 188.195C331.695 187.755 332.5 187.105 333.74 186.245C334.47 185.725 334.98 185.315 335.27 185.015C335.76 184.465 336.005 183.88 336.005 183.26C336.005 182.66 335.84 182.21 335.51 181.91C335.18 181.61 334.695 181.46 334.055 181.46C333.375 181.46 332.865 181.69 332.525 182.15C332.175 182.59 331.985 183.245 331.955 184.115H330.32C330.34 182.915 330.685 181.955 331.355 181.235C332.035 180.465 332.955 180.08 334.115 180.08ZM340.484 188.855C340.814 188.855 341.079 188.955 341.279 189.155C341.489 189.345 341.594 189.6 341.594 189.92C341.594 190.22 341.484 190.48 341.264 190.7C341.044 190.9 340.784 191 340.484 191C340.174 191 339.914 190.895 339.704 190.685C339.494 190.475 339.389 190.22 339.389 189.92C339.389 189.6 339.494 189.345 339.704 189.155C339.904 188.955 340.164 188.855 340.484 188.855ZM350.406 180.29V181.73H345.276L344.961 184.82H345.006C345.336 184.48 345.716 184.235 346.146 184.085C346.526 183.925 346.966 183.845 347.466 183.845C348.476 183.845 349.296 184.175 349.926 184.835C350.566 185.505 350.886 186.41 350.886 187.55C350.886 188.65 350.476 189.555 349.656 190.265C348.896 190.895 347.981 191.21 346.911 191.21C345.961 191.21 345.136 190.945 344.436 190.415C343.676 189.845 343.256 189.06 343.176 188.06H344.781C344.841 188.67 345.076 189.125 345.486 189.425C345.846 189.695 346.326 189.83 346.926 189.83C347.576 189.83 348.131 189.625 348.591 189.215C349.041 188.795 349.266 188.245 349.266 187.565C349.266 186.815 349.071 186.23 348.681 185.81C348.291 185.39 347.741 185.18 347.031 185.18C346.541 185.18 346.126 185.265 345.786 185.435C345.406 185.605 345.111 185.89 344.901 186.29H343.371L343.956 180.29H350.406ZM359.4 180.29V181.73H354.27L353.955 184.82H354C354.33 184.48 354.71 184.235 355.14 184.085C355.52 183.925 355.96 183.845 356.46 183.845C357.47 183.845 358.29 184.175 358.92 184.835C359.56 185.505 359.88 186.41 359.88 187.55C359.88 188.65 359.47 189.555 358.65 190.265C357.89 190.895 356.975 191.21 355.905 191.21C354.955 191.21 354.13 190.945 353.43 190.415C352.67 189.845 352.25 189.06 352.17 188.06H353.775C353.835 188.67 354.07 189.125 354.48 189.425C354.84 189.695 355.32 189.83 355.92 189.83C356.57 189.83 357.125 189.625 357.585 189.215C358.035 188.795 358.26 188.245 358.26 187.565C358.26 186.815 358.065 186.23 357.675 185.81C357.285 185.39 356.735 185.18 356.025 185.18C355.535 185.18 355.12 185.265 354.78 185.435C354.4 185.605 354.105 185.89 353.895 186.29H352.365L352.95 180.29H359.4ZM368.394 180.29V181.73H363.264L362.949 184.82H362.994C363.324 184.48 363.704 184.235 364.134 184.085C364.514 183.925 364.954 183.845 365.454 183.845C366.464 183.845 367.284 184.175 367.914 184.835C368.554 185.505 368.874 186.41 368.874 187.55C368.874 188.65 368.464 189.555 367.644 190.265C366.884 190.895 365.969 191.21 364.899 191.21C363.949 191.21 363.124 190.945 362.424 190.415C361.664 189.845 361.244 189.06 361.164 188.06H362.769C362.829 188.67 363.064 189.125 363.474 189.425C363.834 189.695 364.314 189.83 364.914 189.83C365.564 189.83 366.119 189.625 366.579 189.215C367.029 188.795 367.254 188.245 367.254 187.565C367.254 186.815 367.059 186.23 366.669 185.81C366.279 185.39 365.729 185.18 365.019 185.18C364.529 185.18 364.114 185.265 363.774 185.435C363.394 185.605 363.099 185.89 362.889 186.29H361.359L361.944 180.29H368.394ZM377.389 180.29V181.73H372.259L371.944 184.82H371.989C372.319 184.48 372.699 184.235 373.129 184.085C373.509 183.925 373.949 183.845 374.449 183.845C375.459 183.845 376.279 184.175 376.909 184.835C377.549 185.505 377.869 186.41 377.869 187.55C377.869 188.65 377.459 189.555 376.639 190.265C375.879 190.895 374.964 191.21 373.894 191.21C372.944 191.21 372.119 190.945 371.419 190.415C370.659 189.845 370.239 189.06 370.159 188.06H371.764C371.824 188.67 372.059 189.125 372.469 189.425C372.829 189.695 373.309 189.83 373.909 189.83C374.559 189.83 375.114 189.625 375.574 189.215C376.024 188.795 376.249 188.245 376.249 187.565C376.249 186.815 376.054 186.23 375.664 185.81C375.274 185.39 374.724 185.18 374.014 185.18C373.524 185.18 373.109 185.265 372.769 185.435C372.389 185.605 372.094 185.89 371.884 186.29H370.354L370.939 180.29H377.389ZM380.833 180.29L383.443 184.16L386.053 180.29H388.048L384.418 185.465L388.303 191H386.308L383.443 186.755L380.578 191H378.583L382.438 185.465L378.838 180.29H380.833Z" fill="#FA305C"/>
</g>
<g clip-path="url(#clip2_2147_13787)">
<rect x="24" y="227.5" width="412" height="76" rx="9.5" fill="#161F2C" stroke="#2283F6"/>
<path fill-rule="evenodd" clip-rule="evenodd" d="M49.7509 272.66C50.1487 273.108 50.8479 273.108 51.2457 272.66L56.0189 267.291C56.5921 266.646 56.1343 265.626 55.2715 265.626L45.7252 265.626C44.8623 265.626 44.4045 266.646 44.9778 267.291L49.7509 272.66ZM46.9983 265.626L53.9983 265.626L53.9983 260.501C53.9983 259.949 53.5506 259.501 52.9983 259.501L47.9983 259.501C47.446 259.501 46.9983 259.949 46.9983 260.501L46.9983 265.626Z" fill="#2283F6"/>
<path d="M62.505 260.21H75.51V261.545H69.705V262.58H74.295V268.745H69.495C69.335 269.605 69.08 270.315 68.73 270.875C70.77 271.675 73.195 272.12 76.005 272.21L75.645 273.59C72.635 273.45 70.025 272.89 67.815 271.91C66.735 272.75 65.035 273.305 62.715 273.575L62.1 272.27C64.03 272.15 65.47 271.8 66.42 271.22C65.63 270.78 64.895 270.275 64.215 269.705L65.31 268.955C65.91 269.425 66.61 269.87 67.41 270.29C67.69 269.85 67.905 269.335 68.055 268.745H63.75V262.58H68.295V261.545H62.505V260.21ZM72.885 267.5V266.225H69.705V266.585C69.705 266.905 69.69 267.21 69.66 267.5H72.885ZM68.25 267.5C68.28 267.2 68.295 266.895 68.295 266.585V266.225H65.16V267.5H68.25ZM65.16 265.055H68.295V263.795H65.16V265.055ZM69.705 263.795V265.055H72.885V263.795H69.705ZM83.205 266.465V271.325C83.625 271.145 83.99 270.975 84.3 270.815L84.54 272.045C83.55 272.435 82.575 272.785 81.615 273.095L81.255 271.88C81.635 271.74 81.825 271.495 81.825 271.145V261.485C85.015 260.995 87.5 260.46 89.28 259.88L90.06 261.02C89.38 261.25 88.515 261.495 87.465 261.755C87.475 262.945 87.515 264.06 87.585 265.1H90.63V266.465H87.705C87.775 267.125 87.845 267.615 87.915 267.935C88.155 269.265 88.42 270.215 88.71 270.785C89.01 271.375 89.23 271.67 89.37 271.67C89.5 271.67 89.635 270.9 89.775 269.36L90.945 270.005C90.645 272.235 90.2 273.35 89.61 273.35C89.11 273.35 88.59 272.95 88.05 272.15C87.49 271.35 87.03 270.125 86.67 268.475C86.54 267.915 86.43 267.245 86.34 266.465H83.205ZM86.1 262.055C85.31 262.215 84.345 262.385 83.205 262.565V265.1H86.22C86.15 264.07 86.11 263.055 86.1 262.055ZM85.62 270.08C86.43 271.1 87.06 272 87.51 272.78L86.445 273.53C85.995 272.71 85.395 271.79 84.645 270.77L85.62 270.08ZM81.615 260.255C81.265 261.345 80.8 262.405 80.22 263.435V273.575H78.84V265.52C78.4 266.08 77.93 266.625 77.43 267.155L76.98 265.655C78.48 263.955 79.595 261.955 80.325 259.655L81.615 260.255Z" fill="#2283F6"/>
<path d="M220.898 261.08C221.978 261.08 222.843 261.34 223.493 261.86C224.133 262.39 224.453 263.11 224.453 264.02C224.453 265.2 223.863 265.985 222.683 266.375C223.303 266.565 223.783 266.86 224.123 267.26C224.483 267.66 224.663 268.18 224.663 268.82C224.663 269.81 224.323 270.62 223.643 271.25C222.913 271.89 221.978 272.21 220.838 272.21C219.748 272.21 218.868 271.93 218.198 271.37C217.448 270.74 217.028 269.825 216.938 268.625H218.588C218.618 269.355 218.853 269.91 219.293 270.29C219.683 270.65 220.193 270.83 220.823 270.83C221.503 270.83 222.058 270.63 222.488 270.23C222.858 269.86 223.043 269.415 223.043 268.895C223.043 268.265 222.848 267.8 222.458 267.5C222.098 267.2 221.563 267.05 220.853 267.05H220.073V265.82H220.838C221.488 265.82 221.983 265.675 222.323 265.385C222.663 265.095 222.833 264.68 222.833 264.14C222.833 263.61 222.678 263.2 222.368 262.91C222.048 262.62 221.563 262.475 220.913 262.475C220.263 262.475 219.758 262.64 219.398 262.97C219.028 263.31 218.813 263.805 218.753 264.455H217.148C217.238 263.395 217.633 262.565 218.333 261.965C218.983 261.375 219.838 261.08 220.898 261.08ZM229.787 261.08C230.927 261.08 231.832 261.38 232.502 261.98C233.102 262.52 233.402 263.19 233.402 263.99C233.402 264.54 233.282 265.005 233.042 265.385C232.772 265.785 232.367 266.09 231.827 266.3V266.345C232.347 266.465 232.787 266.765 233.147 267.245C233.567 267.755 233.777 268.345 233.777 269.015C233.777 269.955 233.432 270.725 232.742 271.325C232.032 271.915 231.047 272.21 229.787 272.21C228.517 272.21 227.532 271.915 226.832 271.325C226.142 270.725 225.797 269.955 225.797 269.015C225.797 268.345 226.007 267.755 226.427 267.245C226.787 266.765 227.227 266.465 227.747 266.345V266.3C227.207 266.09 226.802 265.785 226.532 265.385C226.292 265.005 226.172 264.54 226.172 263.99C226.172 263.19 226.472 262.52 227.072 261.98C227.732 261.38 228.637 261.08 229.787 261.08ZM229.787 262.385C229.117 262.385 228.592 262.56 228.212 262.91C227.872 263.21 227.702 263.59 227.702 264.05C227.702 264.57 227.842 264.975 228.122 265.265C228.472 265.625 229.027 265.805 229.787 265.805C230.537 265.805 231.092 265.625 231.452 265.265C231.732 264.955 231.872 264.55 231.872 264.05C231.872 263.6 231.702 263.22 231.362 262.91C230.982 262.56 230.457 262.385 229.787 262.385ZM229.787 267.02C228.987 267.02 228.397 267.21 228.017 267.59C227.617 267.95 227.417 268.425 227.417 269.015C227.417 269.575 227.622 270.025 228.032 270.365C228.442 270.715 229.027 270.89 229.787 270.89C230.537 270.89 231.132 270.715 231.572 270.365C231.962 270.015 232.157 269.565 232.157 269.015C232.157 268.415 231.962 267.945 231.572 267.605C231.152 267.215 230.557 267.02 229.787 267.02ZM236.321 269.855C236.651 269.855 236.916 269.955 237.116 270.155C237.326 270.345 237.431 270.6 237.431 270.92C237.431 271.22 237.321 271.48 237.101 271.7C236.881 271.9 236.621 272 236.321 272C236.011 272 235.751 271.895 235.541 271.685C235.331 271.475 235.226 271.22 235.226 270.92C235.226 270.6 235.331 270.345 235.541 270.155C235.741 269.955 236.001 269.855 236.321 269.855ZM245.448 261.29V268.37H247.068V269.675H245.448V272H243.888V269.675H238.668V268.13L243.948 261.29H245.448ZM243.843 263.36L240.003 268.37H243.888V263.36H243.843ZM252.027 261.08C253.067 261.08 253.912 261.375 254.562 261.965C255.212 262.565 255.537 263.335 255.537 264.275C255.537 265.185 255.187 266.03 254.487 266.81C254.067 267.24 253.327 267.815 252.267 268.535C251.117 269.295 250.427 269.97 250.197 270.56H255.552V272H248.172C248.172 270.93 248.527 269.995 249.237 269.195C249.607 268.755 250.412 268.105 251.652 267.245C252.382 266.725 252.892 266.315 253.182 266.015C253.672 265.465 253.917 264.88 253.917 264.26C253.917 263.66 253.752 263.21 253.422 262.91C253.092 262.61 252.607 262.46 251.967 262.46C251.287 262.46 250.777 262.69 250.437 263.15C250.087 263.59 249.897 264.245 249.867 265.115H248.232C248.252 263.915 248.597 262.955 249.267 262.235C249.947 261.465 250.867 261.08 252.027 261.08ZM267.651 266.135C268.481 266.135 269.116 266.43 269.556 267.02C269.956 267.54 270.156 268.225 270.156 269.075C270.156 269.905 269.956 270.59 269.556 271.13C269.096 271.71 268.461 272 267.651 272C266.821 272 266.176 271.71 265.716 271.13C265.316 270.6 265.116 269.915 265.116 269.075C265.116 268.205 265.316 267.52 265.716 267.02C266.156 266.43 266.801 266.135 267.651 266.135ZM267.396 261.08L261.381 272.21H260.166L266.166 261.08H267.396ZM259.941 261.29C260.771 261.29 261.406 261.585 261.846 262.175C262.246 262.695 262.446 263.38 262.446 264.23C262.446 265.06 262.246 265.745 261.846 266.285C261.386 266.865 260.751 267.155 259.941 267.155C259.111 267.155 258.466 266.865 258.006 266.285C257.606 265.755 257.406 265.07 257.406 264.23C257.406 263.36 257.606 262.675 258.006 262.175C258.446 261.585 259.091 261.29 259.941 261.29ZM267.651 267.17C267.261 267.17 266.976 267.365 266.796 267.755C266.666 268.055 266.601 268.495 266.601 269.075C266.601 269.625 266.666 270.06 266.796 270.38C266.976 270.77 267.261 270.965 267.651 270.965C268.021 270.965 268.296 270.76 268.476 270.35C268.606 270.01 268.671 269.585 268.671 269.075C268.671 268.535 268.601 268.1 268.461 267.77C268.301 267.37 268.031 267.17 267.651 267.17ZM259.941 262.325C259.551 262.325 259.266 262.52 259.086 262.91C258.956 263.21 258.891 263.65 258.891 264.23C258.891 264.78 258.956 265.215 259.086 265.535C259.266 265.925 259.551 266.12 259.941 266.12C260.311 266.12 260.586 265.915 260.766 265.505C260.896 265.165 260.961 264.74 260.961 264.23C260.961 263.69 260.891 263.255 260.751 262.925C260.591 262.525 260.321 262.325 259.941 262.325Z" fill="#2283F6"/>
<path d="M334.115 261.08C335.155 261.08 336 261.375 336.65 261.965C337.3 262.565 337.625 263.335 337.625 264.275C337.625 265.185 337.275 266.03 336.575 266.81C336.155 267.24 335.415 267.815 334.355 268.535C333.205 269.295 332.515 269.97 332.285 270.56H337.64V272H330.26C330.26 270.93 330.615 269.995 331.325 269.195C331.695 268.755 332.5 268.105 333.74 267.245C334.47 266.725 334.98 266.315 335.27 266.015C335.76 265.465 336.005 264.88 336.005 264.26C336.005 263.66 335.84 263.21 335.51 262.91C335.18 262.61 334.695 262.46 334.055 262.46C333.375 262.46 332.865 262.69 332.525 263.15C332.175 263.59 331.985 264.245 331.955 265.115H330.32C330.34 263.915 330.685 262.955 331.355 262.235C332.035 261.465 332.955 261.08 334.115 261.08ZM340.484 269.855C340.814 269.855 341.079 269.955 341.279 270.155C341.489 270.345 341.594 270.6 341.594 270.92C341.594 271.22 341.484 271.48 341.264 271.7C341.044 271.9 340.784 272 340.484 272C340.174 272 339.914 271.895 339.704 271.685C339.494 271.475 339.389 271.22 339.389 270.92C339.389 270.6 339.494 270.345 339.704 270.155C339.904 269.955 340.164 269.855 340.484 269.855ZM350.406 261.29V262.73H345.276L344.961 265.82H345.006C345.336 265.48 345.716 265.235 346.146 265.085C346.526 264.925 346.966 264.845 347.466 264.845C348.476 264.845 349.296 265.175 349.926 265.835C350.566 266.505 350.886 267.41 350.886 268.55C350.886 269.65 350.476 270.555 349.656 271.265C348.896 271.895 347.981 272.21 346.911 272.21C345.961 272.21 345.136 271.945 344.436 271.415C343.676 270.845 343.256 270.06 343.176 269.06H344.781C344.841 269.67 345.076 270.125 345.486 270.425C345.846 270.695 346.326 270.83 346.926 270.83C347.576 270.83 348.131 270.625 348.591 270.215C349.041 269.795 349.266 269.245 349.266 268.565C349.266 267.815 349.071 267.23 348.681 266.81C348.291 266.39 347.741 266.18 347.031 266.18C346.541 266.18 346.126 266.265 345.786 266.435C345.406 266.605 345.111 266.89 344.901 267.29H343.371L343.956 261.29H350.406ZM359.4 261.29V262.73H354.27L353.955 265.82H354C354.33 265.48 354.71 265.235 355.14 265.085C355.52 264.925 355.96 264.845 356.46 264.845C357.47 264.845 358.29 265.175 358.92 265.835C359.56 266.505 359.88 267.41 359.88 268.55C359.88 269.65 359.47 270.555 358.65 271.265C357.89 271.895 356.975 272.21 355.905 272.21C354.955 272.21 354.13 271.945 353.43 271.415C352.67 270.845 352.25 270.06 352.17 269.06H353.775C353.835 269.67 354.07 270.125 354.48 270.425C354.84 270.695 355.32 270.83 355.92 270.83C356.57 270.83 357.125 270.625 357.585 270.215C358.035 269.795 358.26 269.245 358.26 268.565C358.26 267.815 358.065 267.23 357.675 266.81C357.285 266.39 356.735 266.18 356.025 266.18C355.535 266.18 355.12 266.265 354.78 266.435C354.4 266.605 354.105 266.89 353.895 267.29H352.365L352.95 261.29H359.4ZM368.394 261.29V262.73H363.264L362.949 265.82H362.994C363.324 265.48 363.704 265.235 364.134 265.085C364.514 264.925 364.954 264.845 365.454 264.845C366.464 264.845 367.284 265.175 367.914 265.835C368.554 266.505 368.874 267.41 368.874 268.55C368.874 269.65 368.464 270.555 367.644 271.265C366.884 271.895 365.969 272.21 364.899 272.21C363.949 272.21 363.124 271.945 362.424 271.415C361.664 270.845 361.244 270.06 361.164 269.06H362.769C362.829 269.67 363.064 270.125 363.474 270.425C363.834 270.695 364.314 270.83 364.914 270.83C365.564 270.83 366.119 270.625 366.579 270.215C367.029 269.795 367.254 269.245 367.254 268.565C367.254 267.815 367.059 267.23 366.669 266.81C366.279 266.39 365.729 266.18 365.019 266.18C364.529 266.18 364.114 266.265 363.774 266.435C363.394 266.605 363.099 266.89 362.889 267.29H361.359L361.944 261.29H368.394ZM377.389 261.29V262.73H372.259L371.944 265.82H371.989C372.319 265.48 372.699 265.235 373.129 265.085C373.509 264.925 373.949 264.845 374.449 264.845C375.459 264.845 376.279 265.175 376.909 265.835C377.549 266.505 377.869 267.41 377.869 268.55C377.869 269.65 377.459 270.555 376.639 271.265C375.879 271.895 374.964 272.21 373.894 272.21C372.944 272.21 372.119 271.945 371.419 271.415C370.659 270.845 370.239 270.06 370.159 269.06H371.764C371.824 269.67 372.059 270.125 372.469 270.425C372.829 270.695 373.309 270.83 373.909 270.83C374.559 270.83 375.114 270.625 375.574 270.215C376.024 269.795 376.249 269.245 376.249 268.565C376.249 267.815 376.054 267.23 375.664 266.81C375.274 266.39 374.724 266.18 374.014 266.18C373.524 266.18 373.109 266.265 372.769 266.435C372.389 266.605 372.094 266.89 371.884 267.29H370.354L370.939 261.29H377.389ZM380.833 261.29L383.443 265.16L386.053 261.29H388.048L384.418 266.465L388.303 272H386.308L383.443 267.755L380.578 272H378.583L382.438 266.465L378.838 261.29H380.833Z" fill="#2283F6"/>
</g>
<defs>
<filter id="filter0_d_2147_13787" x="135.312" y="12.1625" width="189.375" height="143.375" filterUnits="userSpaceOnUse" color-interpolation-filters="sRGB">
<feFlood flood-opacity="0" result="BackgroundImageFix"/>
<feColorMatrix in="SourceAlpha" type="matrix" values="0 0 0 0 0 0 0 0 0 0 0 0 0 0 0 0 0 0 127 0" result="hardAlpha"/>
<feOffset dy="2.85"/>
<feGaussianBlur stdDeviation="5.34375"/>
<feComposite in2="hardAlpha" operator="out"/>
<feColorMatrix type="matrix" values="0 0 0 0 0 0 0 0 0 0 0 0 0 0 0 0 0 0 0.25 0"/>
<feBlend mode="normal" in2="BackgroundImageFix" result="effect1_dropShadow_2147_13787"/>
<feBlend mode="normal" in="SourceGraphic" in2="effect1_dropShadow_2147_13787" result="shape"/>
</filter>
<linearGradient id="paint0_linear_2147_13787" x1="230" y1="20" x2="230" y2="142" gradientUnits="userSpaceOnUse">
<stop stop-color="#F9F9F9"/>
<stop offset="1" stop-color="#ECECEC"/>
</linearGradient>
<clipPath id="clip0_2147_13787">
<rect x="146" y="20" width="168" height="122" rx="5.7" fill="white"/>
</clipPath>
<clipPath id="clip1_2147_13787">
<rect width="413" height="77" fill="white" transform="translate(23.5 146)"/>
</clipPath>
<clipPath id="clip2_2147_13787">
<rect width="413" height="77" fill="white" transform="translate(23.5 227)"/>
</clipPath>
</defs>
</svg>
