<svg width="460" height="324" viewBox="0 0 460 324" fill="none" xmlns="http://www.w3.org/2000/svg">
<rect width="460" height="323.999" rx="10" fill="#0D131C"/>
<g filter="url(#filter0_d_2147_15649)">
<g clip-path="url(#clip0_2147_15649)">
<rect x="23.6719" y="20" width="91.7977" height="132.597" rx="4.0799" fill="url(#paint0_linear_2147_15649)"/>
<path d="M66.0338 66.9548L62.0247 65.9961L63.4714 53.1319H77.7302V57.1934H67.6026L66.9751 62.8236C67.3121 62.6261 67.8234 62.4169 68.5091 62.1961C69.1947 61.9637 69.9617 61.8475 70.81 61.8475C72.0418 61.8475 73.1341 62.0392 74.0871 62.4227C75.04 62.8062 75.8476 63.364 76.51 64.0961C77.184 64.8282 77.6953 65.723 78.0439 66.7805C78.3926 67.838 78.5669 69.035 78.5669 70.3713C78.5669 71.4986 78.3926 72.5735 78.0439 73.5961C77.6953 74.6071 77.1666 75.5136 76.4577 76.3154C75.7488 77.1056 74.8598 77.7273 73.7907 78.1805C72.7216 78.6337 71.4549 78.8603 69.9907 78.8603C68.8984 78.8603 67.8409 78.6977 66.8182 78.3723C65.8072 78.0469 64.895 77.5646 64.0815 76.9255C63.2797 76.2863 62.6347 75.5136 62.1467 74.6071C61.6702 73.6891 61.4204 72.6432 61.3971 71.4695H66.3825C66.4522 72.19 66.6381 72.8117 66.9403 73.3347C67.254 73.846 67.6666 74.2411 68.1779 74.52C68.6892 74.7989 69.2877 74.9383 69.9733 74.9383C70.6124 74.9383 71.1586 74.8163 71.6118 74.5723C72.065 74.3282 72.4311 73.9912 72.71 73.5613C72.9889 73.1197 73.1922 72.6084 73.3201 72.0273C73.4595 71.4346 73.5293 70.7955 73.5293 70.1099C73.5293 69.4243 73.4479 68.8025 73.2852 68.2447C73.1225 67.6869 72.8727 67.2047 72.5357 66.7979C72.1987 66.3912 71.7687 66.0775 71.2458 65.8567C70.7344 65.6359 70.136 65.5255 69.4504 65.5255C68.5207 65.5255 67.8002 65.6707 67.2889 65.9613C66.7892 66.2518 66.3708 66.583 66.0338 66.9548Z" fill="#EE3D3D"/>
<rect x="69.8164" y="95.793" width="15.6938" height="15.6938" transform="rotate(45 69.8164 95.793)" fill="#EE3D3D"/>
</g>
<rect x="23.9269" y="20.255" width="91.2877" height="132.087" rx="3.8249" stroke="#ECECEC" stroke-width="0.509987"/>
</g>
<g filter="url(#filter1_d_2147_15649)">
<g clip-path="url(#clip1_2147_15649)">
<rect x="130.625" y="20" width="91.7977" height="132.597" rx="4.0799" fill="url(#paint1_linear_2147_15649)"/>
<path d="M170.25 53.0796V78.5117H165.23V58.8668L159.199 60.7842V56.8273L169.71 53.0796H170.25ZM195.595 63.5906V67.9833C195.595 69.8891 195.392 71.5334 194.985 72.9163C194.578 74.2876 193.992 75.4148 193.225 76.298C192.469 77.1695 191.569 77.8145 190.523 78.2328C189.477 78.6512 188.315 78.8603 187.037 78.8603C186.014 78.8603 185.061 78.7325 184.178 78.4769C183.295 78.2096 182.499 77.797 181.79 77.2392C181.092 76.6814 180.488 75.9784 179.977 75.1301C179.477 74.2701 179.094 73.2475 178.826 72.0622C178.559 70.8769 178.425 69.5172 178.425 67.9833V63.5906C178.425 61.6848 178.629 60.0521 179.036 58.6924C179.454 57.3212 180.041 56.1998 180.796 55.3282C181.563 54.4567 182.47 53.8175 183.515 53.4108C184.561 52.9924 185.723 52.7833 187.002 52.7833C188.024 52.7833 188.971 52.9169 189.843 53.1842C190.726 53.4398 191.522 53.8408 192.231 54.3869C192.94 54.9331 193.544 55.6362 194.044 56.4961C194.544 57.3444 194.927 58.3612 195.194 59.5466C195.462 60.7203 195.595 62.0683 195.595 63.5906ZM190.558 68.6457V62.9108C190.558 61.9927 190.505 61.1909 190.401 60.5053C190.308 59.8197 190.163 59.2386 189.965 58.7622C189.767 58.2741 189.523 57.879 189.233 57.5768C188.942 57.2747 188.611 57.0539 188.239 56.9145C187.867 56.775 187.455 56.7053 187.002 56.7053C186.432 56.7053 185.927 56.8157 185.485 57.0365C185.055 57.2573 184.689 57.6117 184.387 58.0998C184.085 58.5762 183.852 59.2154 183.69 60.0172C183.539 60.8074 183.463 61.772 183.463 62.9108V68.6457C183.463 69.5637 183.51 70.3713 183.603 71.0686C183.707 71.7658 183.858 72.3643 184.056 72.864C184.265 73.3521 184.509 73.753 184.788 74.0668C185.078 74.3689 185.41 74.5897 185.781 74.7291C186.165 74.8686 186.583 74.9383 187.037 74.9383C187.594 74.9383 188.088 74.8279 188.518 74.6071C188.96 74.3747 189.332 74.0145 189.634 73.5264C189.948 73.0267 190.18 72.3759 190.331 71.5741C190.482 70.7723 190.558 69.7961 190.558 68.6457Z" fill="#242424"/>
<path fill-rule="evenodd" clip-rule="evenodd" d="M181.563 112.053C185.509 112.098 187.936 109.57 186.601 106.909C185.266 104.249 183.935 103.65 181.839 101.721C179.742 99.792 176.692 96.4551 176.707 95.668C176.722 96.4551 173.798 99.792 171.701 101.721C169.606 103.65 168.275 104.249 166.939 106.909C165.604 109.57 168.033 112.098 171.977 112.053C174.686 112.023 175.905 110.467 176.402 109.495L176.402 110.768C176.402 110.768 175.537 115.359 169.435 115.862L168.462 115.862L168.462 116.577L185.079 116.577L185.079 115.862L184.105 115.862C178.004 115.359 177.138 110.768 177.138 110.768L177.138 109.662C177.724 110.635 179.004 112.025 181.563 112.053Z" fill="#242424"/>
</g>
<rect x="130.88" y="20.255" width="91.2877" height="132.087" rx="3.8249" stroke="#ECECEC" stroke-width="0.509987"/>
</g>
<g filter="url(#filter2_d_2147_15649)">
<g clip-path="url(#clip2_2147_15649)">
<rect x="237.574" y="20" width="91.7977" height="132.597" rx="4.0799" fill="url(#paint2_linear_2147_15649)"/>
<path d="M279.866 53.1319V78.5117H274.637V53.1319H279.866ZM295.066 53.1319L285.009 65.6649L279.204 71.9053L278.263 66.9548L282.185 61.586L288.652 53.1319H295.066ZM289.122 78.5117L281.644 66.7805L285.514 63.5383L295.311 78.5117H289.122Z" fill="#242424"/>
<path fill-rule="evenodd" clip-rule="evenodd" d="M289.249 103.069C288.614 103.069 288.008 103.204 287.456 103.449C287.975 102.649 288.279 101.68 288.279 100.634C288.279 97.8915 286.188 95.668 283.609 95.668C281.03 95.668 278.94 97.8915 278.94 100.634C278.94 101.629 279.216 102.555 279.69 103.332C279.219 103.162 278.714 103.069 278.189 103.069C275.61 103.069 273.52 105.292 273.52 108.035C273.52 110.778 275.61 113.001 278.189 113.001C278.772 113.001 279.329 112.887 279.843 112.68C279.843 112.681 282.016 112.057 283.445 109.291V110.956C283.445 110.956 282.712 116.205 277.548 116.779H276.724V117.597H290.788V116.779H289.964C284.8 116.205 284.067 110.956 284.067 110.956V109.403C284.333 110.026 285.804 113.073 289.111 112.998C289.157 112.999 289.203 113.001 289.249 113.001C291.828 113.001 293.919 110.778 293.919 108.035C293.919 105.292 291.828 103.069 289.249 103.069Z" fill="#242424"/>
</g>
<rect x="237.829" y="20.255" width="91.2877" height="132.087" rx="3.8249" stroke="#ECECEC" stroke-width="0.509987"/>
</g>
<g filter="url(#filter3_d_2147_15649)">
<g clip-path="url(#clip3_2147_15649)">
<rect x="344.527" y="20" width="91.7977" height="132.597" rx="4.0799" fill="url(#paint3_linear_2147_15649)"/>
<path d="M386.889 66.9548L382.88 65.9961L384.327 53.1319H398.586V57.1934H388.458L387.831 62.8236C388.168 62.6261 388.679 62.4169 389.365 62.1961C390.05 61.9637 390.817 61.8475 391.665 61.8475C392.897 61.8475 393.99 62.0392 394.943 62.4227C395.895 62.8062 396.703 63.364 397.365 64.0961C398.039 64.8282 398.551 65.723 398.899 66.7805C399.248 67.838 399.422 69.035 399.422 70.3713C399.422 71.4986 399.248 72.5735 398.899 73.5961C398.551 74.6071 398.022 75.5136 397.313 76.3154C396.604 77.1056 395.715 77.7273 394.646 78.1805C393.577 78.6337 392.31 78.8603 390.846 78.8603C389.754 78.8603 388.696 78.6977 387.674 78.3723C386.663 78.0469 385.75 77.5646 384.937 76.9255C384.135 76.2863 383.49 75.5136 383.002 74.6071C382.526 73.6891 382.276 72.6432 382.253 71.4695H387.238C387.308 72.19 387.494 72.8117 387.796 73.3347C388.109 73.846 388.522 74.2411 389.033 74.52C389.545 74.7989 390.143 74.9383 390.829 74.9383C391.468 74.9383 392.014 74.8163 392.467 74.5723C392.921 74.3282 393.287 73.9912 393.565 73.5613C393.844 73.1197 394.048 72.6084 394.176 72.0273C394.315 71.4346 394.385 70.7955 394.385 70.1099C394.385 69.4243 394.303 68.8025 394.141 68.2447C393.978 67.6869 393.728 67.2047 393.391 66.7979C393.054 66.3912 392.624 66.0775 392.101 65.8567C391.59 65.6359 390.991 65.5255 390.306 65.5255C389.376 65.5255 388.656 65.6707 388.144 65.9613C387.645 66.2518 387.226 66.583 386.889 66.9548Z" fill="#EE3D3D"/>
<path fill-rule="evenodd" clip-rule="evenodd" d="M395.707 96.1804C391.564 96.2384 390.741 100.528 390.741 100.528C390.741 100.528 389.785 96.2384 385.642 96.1804C381.5 96.1224 378.95 99.4265 380.352 102.905C381.754 106.383 383.151 107.165 385.353 109.687C387.554 112.208 390.757 116.57 390.741 117.599C390.725 116.57 393.795 112.208 395.996 109.687C398.198 107.165 399.595 106.383 400.997 102.905C402.399 99.4265 399.85 96.1224 395.707 96.1804Z" fill="#EE3D3D"/>
</g>
<rect x="344.782" y="20.255" width="91.2877" height="132.087" rx="3.8249" stroke="#ECECEC" stroke-width="0.509987"/>
</g>
<g filter="url(#filter4_d_2147_15649)">
<rect x="102.287" y="66.4117" width="41.6731" height="41.6731" rx="8.52404" fill="url(#paint4_linear_2147_15649)" stroke="#55657E" stroke-width="5.68269"/>
<path fill-rule="evenodd" clip-rule="evenodd" d="M124.541 78.4209C123.788 77.5732 122.463 77.5732 121.71 78.4209L115.51 85.3961C114.424 86.6176 115.291 88.5487 116.925 88.5487H117.916V95.7705C117.916 96.8167 118.764 97.6647 119.81 97.6647H126.44C127.486 97.6647 128.335 96.8167 128.335 95.7705V88.5487H129.326C130.96 88.5487 131.827 86.6177 130.741 85.3961L124.541 78.4209Z" fill="white"/>
</g>
<g filter="url(#filter5_d_2147_15649)">
<rect x="208.365" y="66.4117" width="41.6731" height="41.6731" rx="8.52404" fill="url(#paint5_linear_2147_15649)" stroke="#55657E" stroke-width="5.68269"/>
<path fill-rule="evenodd" clip-rule="evenodd" d="M230.619 78.4209C229.866 77.5732 228.541 77.5732 227.788 78.4209L221.588 85.3961C220.502 86.6176 221.369 88.5487 223.003 88.5487H223.994V95.7705C223.994 96.8167 224.842 97.6647 225.889 97.6647H232.518C233.565 97.6647 234.413 96.8167 234.413 95.7705V88.5487H235.404C237.038 88.5487 237.905 86.6177 236.819 85.3961L230.619 78.4209Z" fill="white"/>
</g>
<g filter="url(#filter6_d_2147_15649)">
<rect x="314.439" y="66.4117" width="41.6731" height="41.6731" rx="8.52404" fill="url(#paint6_linear_2147_15649)" stroke="#55657E" stroke-width="5.68269"/>
<path fill-rule="evenodd" clip-rule="evenodd" d="M336.694 78.4209C335.94 77.5732 334.615 77.5732 333.862 78.4209L327.662 85.3961C326.576 86.6176 327.443 88.5487 329.078 88.5487H330.069V95.7705C330.069 96.8167 330.917 97.6647 331.963 97.6647H338.593C339.639 97.6647 340.487 96.8167 340.487 95.7705V88.5487H341.478C343.112 88.5487 343.979 86.6177 342.894 85.3961L336.694 78.4209Z" fill="white"/>
</g>
<path d="M201.653 180.134C202.684 180.134 203.551 180.407 204.253 180.953C204.955 181.499 205.371 182.235 205.501 183.163H204.474C204.344 182.495 204.015 181.975 203.486 181.603C202.983 181.256 202.368 181.083 201.64 181.083C200.565 181.083 199.733 181.46 199.144 182.214C198.598 182.916 198.325 183.843 198.325 184.996C198.325 186.166 198.594 187.084 199.131 187.752C199.703 188.471 200.531 188.831 201.614 188.831C202.351 188.831 202.979 188.636 203.499 188.246C204.054 187.821 204.422 187.21 204.604 186.413H205.631C205.423 187.505 204.938 188.345 204.175 188.935C203.456 189.498 202.602 189.78 201.614 189.78C200.175 189.78 199.07 189.303 198.299 188.35C197.606 187.5 197.259 186.382 197.259 184.996C197.259 183.609 197.614 182.478 198.325 181.603C199.096 180.623 200.206 180.134 201.653 180.134ZM209.98 182.695C210.994 182.695 211.796 183.041 212.385 183.735C212.957 184.393 213.243 185.23 213.243 186.244C213.243 187.24 212.961 188.068 212.398 188.727C211.791 189.429 210.985 189.78 209.98 189.78C208.975 189.78 208.173 189.429 207.575 188.727C207.003 188.077 206.717 187.249 206.717 186.244C206.717 185.23 207.003 184.393 207.575 183.735C208.164 183.041 208.966 182.695 209.98 182.695ZM209.98 183.566C209.261 183.566 208.706 183.839 208.316 184.385C207.961 184.87 207.783 185.49 207.783 186.244C207.783 186.989 207.961 187.604 208.316 188.09C208.706 188.636 209.261 188.909 209.98 188.909C210.682 188.909 211.241 188.636 211.657 188.09C212.012 187.587 212.19 186.972 212.19 186.244C212.19 185.507 212.012 184.887 211.657 184.385C211.241 183.839 210.682 183.566 209.98 183.566ZM217.363 182.695C218.446 182.695 219.261 183.059 219.807 183.787C220.301 184.437 220.561 185.351 220.587 186.53H215.283C215.335 187.292 215.539 187.877 215.894 188.285C216.258 188.701 216.761 188.909 217.402 188.909C217.948 188.909 218.394 188.77 218.741 188.493C219.018 188.267 219.244 187.916 219.417 187.44H220.457C220.301 188.081 219.998 188.61 219.547 189.026C218.975 189.528 218.26 189.78 217.402 189.78C216.44 189.78 215.669 189.463 215.088 188.831C214.499 188.189 214.204 187.323 214.204 186.231C214.204 185.225 214.486 184.398 215.049 183.748C215.621 183.046 216.392 182.695 217.363 182.695ZM217.389 183.566C216.791 183.566 216.31 183.761 215.946 184.151C215.591 184.532 215.378 185.056 215.309 185.724H219.508C219.378 184.285 218.672 183.566 217.389 183.566ZM225.783 180.316V181.213H224.626C224.323 181.213 224.11 181.286 223.989 181.434C223.859 181.572 223.794 181.806 223.794 182.136V182.877H227.889V189.598H226.862V183.748H223.794V189.598H222.754V183.748H221.064V182.877H222.754V182.11C222.754 181.546 222.897 181.109 223.183 180.797C223.478 180.476 223.915 180.316 224.496 180.316H225.783ZM233.692 180.316V181.213H232.535C232.232 181.213 232.02 181.286 231.898 181.434C231.768 181.572 231.703 181.806 231.703 182.136V182.877H233.601V183.748H231.703V189.598H230.663V183.748H228.973V182.877H230.663V182.11C230.663 181.546 230.806 181.109 231.092 180.797C231.387 180.476 231.825 180.316 232.405 180.316H233.692ZM237.463 182.695C238.295 182.695 238.962 182.89 239.465 183.28C239.976 183.678 240.292 184.289 240.414 185.113H239.387C239.3 184.593 239.092 184.203 238.763 183.943C238.433 183.691 238 183.566 237.463 183.566C236.813 183.566 236.297 183.813 235.916 184.307C235.552 184.783 235.37 185.433 235.37 186.257C235.37 187.089 235.547 187.734 235.903 188.194C236.258 188.67 236.774 188.909 237.45 188.909C238.602 188.909 239.257 188.328 239.413 187.167H240.453C240.297 188.042 239.963 188.696 239.452 189.13C238.94 189.563 238.273 189.78 237.45 189.78C236.444 189.78 235.66 189.442 235.097 188.766C234.568 188.133 234.304 187.301 234.304 186.27C234.304 185.238 234.568 184.402 235.097 183.761C235.669 183.05 236.457 182.695 237.463 182.695ZM242.531 180.342C242.757 180.342 242.943 180.415 243.09 180.563C243.246 180.693 243.324 180.875 243.324 181.109C243.324 181.325 243.246 181.512 243.09 181.668C242.926 181.815 242.739 181.889 242.531 181.889C242.323 181.889 242.137 181.815 241.972 181.668C241.825 181.52 241.751 181.334 241.751 181.109C241.751 180.866 241.825 180.684 241.972 180.563C242.12 180.415 242.306 180.342 242.531 180.342ZM242.011 182.877H243.051V189.598H242.011V182.877ZM247.768 182.695C248.852 182.695 249.666 183.059 250.212 183.787C250.706 184.437 250.966 185.351 250.992 186.53H245.688C245.74 187.292 245.944 187.877 246.299 188.285C246.663 188.701 247.166 188.909 247.807 188.909C248.353 188.909 248.8 188.77 249.146 188.493C249.424 188.267 249.649 187.916 249.822 187.44H250.862C250.706 188.081 250.403 188.61 249.952 189.026C249.38 189.528 248.665 189.78 247.807 189.78C246.845 189.78 246.074 189.463 245.493 188.831C244.904 188.189 244.609 187.323 244.609 186.231C244.609 185.225 244.891 184.398 245.454 183.748C246.026 183.046 246.798 182.695 247.768 182.695ZM247.794 183.566C247.196 183.566 246.715 183.761 246.351 184.151C245.996 184.532 245.784 185.056 245.714 185.724H249.913C249.783 184.285 249.077 183.566 247.794 183.566ZM255.356 182.695C257.029 182.695 257.865 183.618 257.865 185.464V189.598H256.825V185.542C256.825 184.233 256.236 183.579 255.057 183.579C254.589 183.579 254.186 183.748 253.848 184.086C253.493 184.441 253.294 184.926 253.25 185.542V189.598H252.21V182.877H253.25V183.865C253.484 183.483 253.783 183.197 254.147 183.007C254.511 182.799 254.914 182.695 255.356 182.695ZM261.266 182.877H262.93V183.748H261.266V188.025C261.266 188.285 261.314 188.462 261.409 188.558C261.504 188.67 261.669 188.727 261.903 188.727H262.761V189.598H261.747C261.192 189.598 260.798 189.455 260.564 189.169C260.347 188.917 260.239 188.536 260.239 188.025V183.748H258.887V182.877H260.239V181.135L261.266 180.706V182.877Z" fill="white"/>
<path d="M185.433 224.598H180.233V201.718L174.433 206.758V201.158L180.233 196.118H185.433V224.598ZM211.831 204.678C211.831 206.544 211.045 209.078 209.471 212.278L203.431 224.598H197.791L203.711 212.838C203.125 213.078 202.418 213.198 201.591 213.198C199.565 213.198 197.805 212.424 196.311 210.878C194.818 209.331 194.071 207.291 194.071 204.758C194.071 202.011 194.898 199.851 196.551 198.278C198.231 196.678 200.365 195.878 202.951 195.878C205.538 195.878 207.658 196.664 209.311 198.238C210.991 199.784 211.831 201.931 211.831 204.678ZM205.591 207.758C206.285 207.011 206.631 205.998 206.631 204.718C206.631 203.438 206.285 202.424 205.591 201.678C204.925 200.931 204.045 200.558 202.951 200.558C201.858 200.558 200.965 200.931 200.271 201.678C199.605 202.424 199.271 203.438 199.271 204.718C199.271 205.971 199.605 206.984 200.271 207.758C200.965 208.504 201.858 208.878 202.951 208.878C204.045 208.878 204.925 208.504 205.591 207.758ZM222.43 224.598H216.47V218.678H222.43V224.598ZM245.276 200.798L236.036 224.598H230.396L239.636 200.798H232.116V205.278H227.156V196.118H245.276V200.798ZM266.995 200.798L257.755 224.598H252.115L261.355 200.798H253.835V205.278H248.875V196.118H266.995V200.798ZM289.194 224.598H282.954L279.114 218.358L275.314 224.598H269.074L276.274 213.958L269.354 203.758H275.594L279.114 209.718L282.674 203.758H288.914L281.994 213.958L289.194 224.598Z" fill="white"/>
<g clip-path="url(#clip4_2147_15649)">
<rect x="23.5" y="256.598" width="413" height="47.4023" rx="10" fill="#F04E23"/>
<g filter="url(#filter7_d_2147_15649)">
<path d="M124.786 287.797V274.912H131.422C132.652 274.912 133.593 275.018 134.243 275.229C134.894 275.439 135.418 275.832 135.816 276.406C136.215 276.975 136.414 277.669 136.414 278.489C136.414 279.204 136.262 279.822 135.957 280.344C135.652 280.859 135.233 281.278 134.7 281.601C134.36 281.806 133.895 281.976 133.303 282.11C133.777 282.269 134.123 282.427 134.34 282.585C134.486 282.69 134.697 282.916 134.973 283.262C135.254 283.607 135.441 283.874 135.535 284.062L137.46 287.797H132.96L130.833 283.859C130.563 283.35 130.323 283.019 130.112 282.866C129.825 282.667 129.5 282.567 129.137 282.567H128.785V287.797H124.786ZM128.785 280.133H130.464C130.646 280.133 130.997 280.074 131.519 279.957C131.782 279.904 131.996 279.77 132.16 279.553C132.33 279.336 132.415 279.087 132.415 278.806C132.415 278.39 132.283 278.07 132.02 277.848C131.756 277.625 131.261 277.514 130.534 277.514H128.785V280.133ZM147.128 274.912H151.101V282.594C151.101 283.355 150.98 284.076 150.74 284.756C150.506 285.43 150.134 286.021 149.624 286.531C149.12 287.035 148.59 287.39 148.033 287.595C147.26 287.882 146.331 288.025 145.247 288.025C144.62 288.025 143.935 287.981 143.19 287.894C142.452 287.806 141.834 287.633 141.336 287.375C140.838 287.111 140.381 286.739 139.965 286.259C139.555 285.778 139.273 285.283 139.121 284.773C138.875 283.953 138.752 283.227 138.752 282.594V274.912H142.725V282.778C142.725 283.481 142.918 284.032 143.305 284.431C143.697 284.823 144.239 285.02 144.931 285.02C145.616 285.02 146.152 284.826 146.539 284.439C146.932 284.047 147.128 283.493 147.128 282.778V274.912ZM144.834 271.502H147.91L145.071 274.13H143.357L144.834 271.502ZM152.832 274.912H164.935V278.094H160.874V287.797H156.893V278.094H152.832V274.912ZM171.852 274.912H183.954V278.094H179.894V287.797H175.912V278.094H171.852V274.912ZM185.923 274.912H189.913V287.797H185.923V274.912ZM193.566 273.685C193.77 273.457 193.98 273.205 194.196 272.929C194.412 272.641 194.628 272.353 194.844 272.065C195.072 271.765 195.276 271.483 195.456 271.219H198.228C198.42 271.483 198.624 271.765 198.84 272.065C199.056 272.353 199.272 272.641 199.488 272.929C199.716 273.205 199.926 273.457 200.118 273.685V273.919H198.696C198.396 273.715 198.09 273.493 197.778 273.253C197.466 273.001 197.154 272.737 196.842 272.461C196.542 272.737 196.23 273.001 195.906 273.253C195.594 273.493 195.288 273.715 194.988 273.919H193.566V273.685ZM193.008 272.209C192.672 271.957 192.318 271.681 191.946 271.381C191.586 271.069 191.274 270.739 191.01 270.391V270.211H193.134C193.326 270.595 193.518 270.925 193.71 271.201C193.902 271.465 194.112 271.723 194.34 271.975V272.209H193.008ZM200.478 287.797H193.08V274.945H200.478V277.177H195.798V280.003H200.154V282.235H195.798V285.547H200.478V287.797ZM202.877 274.912H206.595L211.446 282.04V274.912H215.199V287.797H211.446L206.621 280.722V287.797H202.877V274.912ZM231.389 274.692V287.797H227.768V279.21C227.182 279.655 226.613 280.016 226.062 280.291C225.518 280.566 224.832 280.83 224.006 281.082V278.146C225.225 277.754 226.171 277.282 226.845 276.731C227.519 276.181 228.046 275.501 228.427 274.692H231.389ZM235.634 284.211H239.457V287.797H235.634V284.211ZM241.276 281.302C241.276 278.853 241.716 277.139 242.595 276.16C243.479 275.182 244.824 274.692 246.629 274.692C247.496 274.692 248.208 274.801 248.765 275.018C249.321 275.229 249.775 275.507 250.127 275.853C250.479 276.192 250.754 276.553 250.953 276.934C251.158 277.309 251.322 277.748 251.445 278.252C251.686 279.213 251.806 280.215 251.806 281.258C251.806 283.596 251.41 285.307 250.619 286.391C249.828 287.475 248.466 288.017 246.532 288.017C245.448 288.017 244.572 287.844 243.904 287.498C243.236 287.152 242.688 286.646 242.261 285.978C241.95 285.503 241.707 284.855 241.531 284.035C241.361 283.209 241.276 282.298 241.276 281.302ZM244.827 281.311C244.827 282.951 244.971 284.073 245.258 284.677C245.551 285.274 245.973 285.573 246.523 285.573C246.887 285.573 247.2 285.447 247.464 285.195C247.733 284.938 247.93 284.533 248.053 283.982C248.182 283.432 248.246 282.573 248.246 281.407C248.246 279.696 248.1 278.548 247.807 277.962C247.52 277.37 247.086 277.074 246.506 277.074C245.914 277.074 245.486 277.376 245.223 277.979C244.959 278.577 244.827 279.688 244.827 281.311ZM253.282 281.302C253.282 278.853 253.722 277.139 254.601 276.16C255.485 275.182 256.83 274.692 258.635 274.692C259.502 274.692 260.214 274.801 260.771 275.018C261.327 275.229 261.781 275.507 262.133 275.853C262.484 276.192 262.76 276.553 262.959 276.934C263.164 277.309 263.328 277.748 263.451 278.252C263.691 279.213 263.812 280.215 263.812 281.258C263.812 283.596 263.416 285.307 262.625 286.391C261.834 287.475 260.472 288.017 258.538 288.017C257.454 288.017 256.578 287.844 255.91 287.498C255.242 287.152 254.694 286.646 254.267 285.978C253.956 285.503 253.713 284.855 253.537 284.035C253.367 283.209 253.282 282.298 253.282 281.302ZM256.833 281.311C256.833 282.951 256.977 284.073 257.264 284.677C257.557 285.274 257.979 285.573 258.529 285.573C258.893 285.573 259.206 285.447 259.47 285.195C259.739 284.938 259.936 284.533 260.059 283.982C260.188 283.432 260.252 282.573 260.252 281.407C260.252 279.696 260.105 278.548 259.812 277.962C259.525 277.37 259.092 277.074 258.512 277.074C257.92 277.074 257.492 277.376 257.229 277.979C256.965 278.577 256.833 279.688 256.833 281.311ZM265.288 281.302C265.288 278.853 265.728 277.139 266.606 276.16C267.491 275.182 268.836 274.692 270.641 274.692C271.508 274.692 272.22 274.801 272.776 275.018C273.333 275.229 273.787 275.507 274.139 275.853C274.49 276.192 274.766 276.553 274.965 276.934C275.17 277.309 275.334 277.748 275.457 278.252C275.697 279.213 275.817 280.215 275.817 281.258C275.817 283.596 275.422 285.307 274.631 286.391C273.84 287.475 272.478 288.017 270.544 288.017C269.46 288.017 268.584 287.844 267.916 287.498C267.248 287.152 266.7 286.646 266.272 285.978C265.962 285.503 265.719 284.855 265.543 284.035C265.373 283.209 265.288 282.298 265.288 281.302ZM268.839 281.311C268.839 282.951 268.982 284.073 269.27 284.677C269.562 285.274 269.984 285.573 270.535 285.573C270.898 285.573 271.212 285.447 271.476 285.195C271.745 284.938 271.941 284.533 272.064 283.982C272.193 283.432 272.258 282.573 272.258 281.407C272.258 279.696 272.111 278.548 271.818 277.962C271.531 277.37 271.098 277.074 270.518 277.074C269.926 277.074 269.498 277.376 269.234 277.979C268.971 278.577 268.839 279.688 268.839 281.311ZM277.294 281.302C277.294 278.853 277.733 277.139 278.612 276.16C279.497 275.182 280.842 274.692 282.646 274.692C283.514 274.692 284.226 274.801 284.782 275.018C285.339 275.229 285.793 275.507 286.145 275.853C286.496 276.192 286.771 276.553 286.971 276.934C287.176 277.309 287.34 277.748 287.463 278.252C287.703 279.213 287.823 280.215 287.823 281.258C287.823 283.596 287.428 285.307 286.637 286.391C285.846 287.475 284.483 288.017 282.55 288.017C281.466 288.017 280.59 287.844 279.922 287.498C279.254 287.152 278.706 286.646 278.278 285.978C277.968 285.503 277.725 284.855 277.549 284.035C277.379 283.209 277.294 282.298 277.294 281.302ZM280.845 281.311C280.845 282.951 280.988 284.073 281.275 284.677C281.568 285.274 281.99 285.573 282.541 285.573C282.904 285.573 283.218 285.447 283.481 285.195C283.751 284.938 283.947 284.533 284.07 283.982C284.199 283.432 284.264 282.573 284.264 281.407C284.264 279.696 284.117 278.548 283.824 277.962C283.537 277.37 283.104 277.074 282.523 277.074C281.932 277.074 281.504 277.376 281.24 277.979C280.977 278.577 280.845 279.688 280.845 281.311ZM289.3 281.302C289.3 278.853 289.739 277.139 290.618 276.16C291.503 275.182 292.848 274.692 294.652 274.692C295.52 274.692 296.231 274.801 296.788 275.018C297.345 275.229 297.799 275.507 298.15 275.853C298.502 276.192 298.777 276.553 298.977 276.934C299.182 277.309 299.346 277.748 299.469 278.252C299.709 279.213 299.829 280.215 299.829 281.258C299.829 283.596 299.434 285.307 298.643 286.391C297.852 287.475 296.489 288.017 294.556 288.017C293.472 288.017 292.596 287.844 291.928 287.498C291.26 287.152 290.712 286.646 290.284 285.978C289.974 285.503 289.73 284.855 289.555 284.035C289.385 283.209 289.3 282.298 289.3 281.302ZM292.851 281.311C292.851 282.951 292.994 284.073 293.281 284.677C293.574 285.274 293.996 285.573 294.547 285.573C294.91 285.573 295.224 285.447 295.487 285.195C295.757 284.938 295.953 284.533 296.076 283.982C296.205 283.432 296.27 282.573 296.27 281.407C296.27 279.696 296.123 278.548 295.83 277.962C295.543 277.37 295.109 277.074 294.529 277.074C293.938 277.074 293.51 277.376 293.246 277.979C292.982 278.577 292.851 279.688 292.851 281.311ZM301.306 281.302C301.306 278.853 301.745 277.139 302.624 276.16C303.509 275.182 304.854 274.692 306.658 274.692C307.525 274.692 308.237 274.801 308.794 275.018C309.351 275.229 309.805 275.507 310.156 275.853C310.508 276.192 310.783 276.553 310.982 276.934C311.188 277.309 311.352 277.748 311.475 278.252C311.715 279.213 311.835 280.215 311.835 281.258C311.835 283.596 311.439 285.307 310.648 286.391C309.857 287.475 308.495 288.017 306.562 288.017C305.478 288.017 304.602 287.844 303.934 287.498C303.266 287.152 302.718 286.646 302.29 285.978C301.979 285.503 301.736 284.855 301.561 284.035C301.391 283.209 301.306 282.298 301.306 281.302ZM304.856 281.311C304.856 282.951 305 284.073 305.287 284.677C305.58 285.274 306.002 285.573 306.553 285.573C306.916 285.573 307.229 285.447 307.493 285.195C307.763 284.938 307.959 284.533 308.082 283.982C308.211 283.432 308.275 282.573 308.275 281.407C308.275 279.696 308.129 278.548 307.836 277.962C307.549 277.37 307.115 277.074 306.535 277.074C305.943 277.074 305.516 277.376 305.252 277.979C304.988 278.577 304.856 279.688 304.856 281.311ZM313.312 281.302C313.312 278.853 313.751 277.139 314.63 276.16C315.515 275.182 316.859 274.692 318.664 274.692C319.531 274.692 320.243 274.801 320.8 275.018C321.356 275.229 321.811 275.507 322.162 275.853C322.514 276.192 322.789 276.553 322.988 276.934C323.193 277.309 323.357 277.748 323.48 278.252C323.721 279.213 323.841 280.215 323.841 281.258C323.841 283.596 323.445 285.307 322.654 286.391C321.863 287.475 320.501 288.017 318.567 288.017C317.483 288.017 316.607 287.844 315.939 287.498C315.271 287.152 314.724 286.646 314.296 285.978C313.985 285.503 313.742 284.855 313.566 284.035C313.396 283.209 313.312 282.298 313.312 281.302ZM316.862 281.311C316.862 282.951 317.006 284.073 317.293 284.677C317.586 285.274 318.008 285.573 318.559 285.573C318.922 285.573 319.235 285.447 319.499 285.195C319.769 284.938 319.965 284.533 320.088 283.982C320.217 283.432 320.281 282.573 320.281 281.407C320.281 279.696 320.135 278.548 319.842 277.962C319.555 277.37 319.121 277.074 318.541 277.074C317.949 277.074 317.521 277.376 317.258 277.979C316.994 278.577 316.862 279.688 316.862 281.311ZM325.317 281.302C325.317 278.853 325.757 277.139 326.636 276.16C327.521 275.182 328.865 274.692 330.67 274.692C331.537 274.692 332.249 274.801 332.806 275.018C333.362 275.229 333.816 275.507 334.168 275.853C334.52 276.192 334.795 276.553 334.994 276.934C335.199 277.309 335.363 277.748 335.486 278.252C335.727 279.213 335.847 280.215 335.847 281.258C335.847 283.596 335.451 285.307 334.66 286.391C333.869 287.475 332.507 288.017 330.573 288.017C329.489 288.017 328.613 287.844 327.945 287.498C327.277 287.152 326.729 286.646 326.302 285.978C325.991 285.503 325.748 284.855 325.572 284.035C325.402 283.209 325.317 282.298 325.317 281.302ZM328.868 281.311C328.868 282.951 329.012 284.073 329.299 284.677C329.592 285.274 330.014 285.573 330.564 285.573C330.928 285.573 331.241 285.447 331.505 285.195C331.774 284.938 331.971 284.533 332.094 283.982C332.223 283.432 332.287 282.573 332.287 281.407C332.287 279.696 332.141 278.548 331.848 277.962C331.561 277.37 331.127 277.074 330.547 277.074C329.955 277.074 329.527 277.376 329.264 277.979C329 278.577 328.868 279.688 328.868 281.311Z" fill="white"/>
</g>
</g>
<defs>
<filter id="filter0_d_2147_15649" x="16.0221" y="14.3901" width="107.096" height="147.897" filterUnits="userSpaceOnUse" color-interpolation-filters="sRGB">
<feFlood flood-opacity="0" result="BackgroundImageFix"/>
<feColorMatrix in="SourceAlpha" type="matrix" values="0 0 0 0 0 0 0 0 0 0 0 0 0 0 0 0 0 0 127 0" result="hardAlpha"/>
<feOffset dy="2.03995"/>
<feGaussianBlur stdDeviation="3.8249"/>
<feComposite in2="hardAlpha" operator="out"/>
<feColorMatrix type="matrix" values="0 0 0 0 0 0 0 0 0 0 0 0 0 0 0 0 0 0 0.25 0"/>
<feBlend mode="normal" in2="BackgroundImageFix" result="effect1_dropShadow_2147_15649"/>
<feBlend mode="normal" in="SourceGraphic" in2="effect1_dropShadow_2147_15649" result="shape"/>
</filter>
<filter id="filter1_d_2147_15649" x="122.975" y="14.3901" width="107.096" height="147.897" filterUnits="userSpaceOnUse" color-interpolation-filters="sRGB">
<feFlood flood-opacity="0" result="BackgroundImageFix"/>
<feColorMatrix in="SourceAlpha" type="matrix" values="0 0 0 0 0 0 0 0 0 0 0 0 0 0 0 0 0 0 127 0" result="hardAlpha"/>
<feOffset dy="2.03995"/>
<feGaussianBlur stdDeviation="3.8249"/>
<feComposite in2="hardAlpha" operator="out"/>
<feColorMatrix type="matrix" values="0 0 0 0 0 0 0 0 0 0 0 0 0 0 0 0 0 0 0.25 0"/>
<feBlend mode="normal" in2="BackgroundImageFix" result="effect1_dropShadow_2147_15649"/>
<feBlend mode="normal" in="SourceGraphic" in2="effect1_dropShadow_2147_15649" result="shape"/>
</filter>
<filter id="filter2_d_2147_15649" x="229.924" y="14.3901" width="107.096" height="147.897" filterUnits="userSpaceOnUse" color-interpolation-filters="sRGB">
<feFlood flood-opacity="0" result="BackgroundImageFix"/>
<feColorMatrix in="SourceAlpha" type="matrix" values="0 0 0 0 0 0 0 0 0 0 0 0 0 0 0 0 0 0 127 0" result="hardAlpha"/>
<feOffset dy="2.03995"/>
<feGaussianBlur stdDeviation="3.8249"/>
<feComposite in2="hardAlpha" operator="out"/>
<feColorMatrix type="matrix" values="0 0 0 0 0 0 0 0 0 0 0 0 0 0 0 0 0 0 0.25 0"/>
<feBlend mode="normal" in2="BackgroundImageFix" result="effect1_dropShadow_2147_15649"/>
<feBlend mode="normal" in="SourceGraphic" in2="effect1_dropShadow_2147_15649" result="shape"/>
</filter>
<filter id="filter3_d_2147_15649" x="336.878" y="14.3901" width="107.096" height="147.897" filterUnits="userSpaceOnUse" color-interpolation-filters="sRGB">
<feFlood flood-opacity="0" result="BackgroundImageFix"/>
<feColorMatrix in="SourceAlpha" type="matrix" values="0 0 0 0 0 0 0 0 0 0 0 0 0 0 0 0 0 0 127 0" result="hardAlpha"/>
<feOffset dy="2.03995"/>
<feGaussianBlur stdDeviation="3.8249"/>
<feComposite in2="hardAlpha" operator="out"/>
<feColorMatrix type="matrix" values="0 0 0 0 0 0 0 0 0 0 0 0 0 0 0 0 0 0 0.25 0"/>
<feBlend mode="normal" in2="BackgroundImageFix" result="effect1_dropShadow_2147_15649"/>
<feBlend mode="normal" in="SourceGraphic" in2="effect1_dropShadow_2147_15649" result="shape"/>
</filter>
<filter id="filter4_d_2147_15649" x="84.4453" y="52.5703" width="77.3555" height="77.3555" filterUnits="userSpaceOnUse" color-interpolation-filters="sRGB">
<feFlood flood-opacity="0" result="BackgroundImageFix"/>
<feColorMatrix in="SourceAlpha" type="matrix" values="0 0 0 0 0 0 0 0 0 0 0 0 0 0 0 0 0 0 127 0" result="hardAlpha"/>
<feOffset dy="4"/>
<feGaussianBlur stdDeviation="7.5"/>
<feComposite in2="hardAlpha" operator="out"/>
<feColorMatrix type="matrix" values="0 0 0 0 0 0 0 0 0 0 0 0 0 0 0 0 0 0 0.25 0"/>
<feBlend mode="normal" in2="BackgroundImageFix" result="effect1_dropShadow_2147_15649"/>
<feBlend mode="normal" in="SourceGraphic" in2="effect1_dropShadow_2147_15649" result="shape"/>
</filter>
<filter id="filter5_d_2147_15649" x="190.523" y="52.5703" width="77.3555" height="77.3555" filterUnits="userSpaceOnUse" color-interpolation-filters="sRGB">
<feFlood flood-opacity="0" result="BackgroundImageFix"/>
<feColorMatrix in="SourceAlpha" type="matrix" values="0 0 0 0 0 0 0 0 0 0 0 0 0 0 0 0 0 0 127 0" result="hardAlpha"/>
<feOffset dy="4"/>
<feGaussianBlur stdDeviation="7.5"/>
<feComposite in2="hardAlpha" operator="out"/>
<feColorMatrix type="matrix" values="0 0 0 0 0 0 0 0 0 0 0 0 0 0 0 0 0 0 0.25 0"/>
<feBlend mode="normal" in2="BackgroundImageFix" result="effect1_dropShadow_2147_15649"/>
<feBlend mode="normal" in="SourceGraphic" in2="effect1_dropShadow_2147_15649" result="shape"/>
</filter>
<filter id="filter6_d_2147_15649" x="296.598" y="52.5703" width="77.3555" height="77.3555" filterUnits="userSpaceOnUse" color-interpolation-filters="sRGB">
<feFlood flood-opacity="0" result="BackgroundImageFix"/>
<feColorMatrix in="SourceAlpha" type="matrix" values="0 0 0 0 0 0 0 0 0 0 0 0 0 0 0 0 0 0 127 0" result="hardAlpha"/>
<feOffset dy="4"/>
<feGaussianBlur stdDeviation="7.5"/>
<feComposite in2="hardAlpha" operator="out"/>
<feColorMatrix type="matrix" values="0 0 0 0 0 0 0 0 0 0 0 0 0 0 0 0 0 0 0.25 0"/>
<feBlend mode="normal" in2="BackgroundImageFix" result="effect1_dropShadow_2147_15649"/>
<feBlend mode="normal" in="SourceGraphic" in2="effect1_dropShadow_2147_15649" result="shape"/>
</filter>
<filter id="filter7_d_2147_15649" x="120.785" y="268.211" width="219.062" height="25.8125" filterUnits="userSpaceOnUse" color-interpolation-filters="sRGB">
<feFlood flood-opacity="0" result="BackgroundImageFix"/>
<feColorMatrix in="SourceAlpha" type="matrix" values="0 0 0 0 0 0 0 0 0 0 0 0 0 0 0 0 0 0 127 0" result="hardAlpha"/>
<feOffset dy="2"/>
<feGaussianBlur stdDeviation="2"/>
<feComposite in2="hardAlpha" operator="out"/>
<feColorMatrix type="matrix" values="0 0 0 0 0 0 0 0 0 0 0 0 0 0 0 0 0 0 0.3 0"/>
<feBlend mode="normal" in2="BackgroundImageFix" result="effect1_dropShadow_2147_15649"/>
<feBlend mode="normal" in="SourceGraphic" in2="effect1_dropShadow_2147_15649" result="shape"/>
</filter>
<linearGradient id="paint0_linear_2147_15649" x1="69.5707" y1="20" x2="69.5707" y2="152.597" gradientUnits="userSpaceOnUse">
<stop stop-color="#F9F9F9"/>
<stop offset="1" stop-color="#ECECEC"/>
</linearGradient>
<linearGradient id="paint1_linear_2147_15649" x1="176.524" y1="20" x2="176.524" y2="152.597" gradientUnits="userSpaceOnUse">
<stop stop-color="#F9F9F9"/>
<stop offset="1" stop-color="#ECECEC"/>
</linearGradient>
<linearGradient id="paint2_linear_2147_15649" x1="283.473" y1="20" x2="283.473" y2="152.597" gradientUnits="userSpaceOnUse">
<stop stop-color="#F9F9F9"/>
<stop offset="1" stop-color="#ECECEC"/>
</linearGradient>
<linearGradient id="paint3_linear_2147_15649" x1="390.426" y1="20" x2="390.426" y2="152.597" gradientUnits="userSpaceOnUse">
<stop stop-color="#F9F9F9"/>
<stop offset="1" stop-color="#ECECEC"/>
</linearGradient>
<linearGradient id="paint4_linear_2147_15649" x1="123.123" y1="63.5703" x2="123.123" y2="110.926" gradientUnits="userSpaceOnUse">
<stop stop-color="#FA305C"/>
<stop offset="1" stop-color="#D90F3B"/>
</linearGradient>
<linearGradient id="paint5_linear_2147_15649" x1="229.201" y1="63.5703" x2="229.201" y2="110.926" gradientUnits="userSpaceOnUse">
<stop stop-color="#FA305C"/>
<stop offset="1" stop-color="#D90F3B"/>
</linearGradient>
<linearGradient id="paint6_linear_2147_15649" x1="335.276" y1="63.5703" x2="335.276" y2="110.926" gradientUnits="userSpaceOnUse">
<stop stop-color="#FA305C"/>
<stop offset="1" stop-color="#D90F3B"/>
</linearGradient>
<clipPath id="clip0_2147_15649">
<rect x="23.6719" y="20" width="91.7977" height="132.597" rx="4.0799" fill="white"/>
</clipPath>
<clipPath id="clip1_2147_15649">
<rect x="130.625" y="20" width="91.7977" height="132.597" rx="4.0799" fill="white"/>
</clipPath>
<clipPath id="clip2_2147_15649">
<rect x="237.574" y="20" width="91.7977" height="132.597" rx="4.0799" fill="white"/>
</clipPath>
<clipPath id="clip3_2147_15649">
<rect x="344.527" y="20" width="91.7977" height="132.597" rx="4.0799" fill="white"/>
</clipPath>
<clipPath id="clip4_2147_15649">
<rect x="23.5" y="256.598" width="413" height="47.4023" rx="10" fill="white"/>
</clipPath>
</defs>
</svg>
