<svg width="460" height="324" viewBox="0 0 460 324" fill="none" xmlns="http://www.w3.org/2000/svg">
<rect width="460" height="323.999" rx="10" fill="#F4F7FD"/>
<g filter="url(#filter0_d_2147_15072)">
<g clip-path="url(#clip0_2147_15072)">
<rect x="23.6719" y="20" width="91.7977" height="132.597" rx="4.0799" fill="url(#paint0_linear_2147_15072)"/>
<path d="M66.0338 66.9548L62.0247 65.9961L63.4714 53.1319H77.7302V57.1934H67.6026L66.9751 62.8236C67.3121 62.6261 67.8234 62.4169 68.5091 62.1961C69.1947 61.9637 69.9617 61.8475 70.81 61.8475C72.0418 61.8475 73.1341 62.0392 74.0871 62.4227C75.04 62.8062 75.8476 63.364 76.51 64.0961C77.184 64.8282 77.6953 65.723 78.0439 66.7805C78.3926 67.838 78.5669 69.035 78.5669 70.3713C78.5669 71.4986 78.3926 72.5735 78.0439 73.5961C77.6953 74.6071 77.1666 75.5136 76.4577 76.3154C75.7488 77.1056 74.8598 77.7273 73.7907 78.1805C72.7216 78.6337 71.4549 78.8603 69.9907 78.8603C68.8984 78.8603 67.8409 78.6977 66.8182 78.3723C65.8072 78.0469 64.895 77.5646 64.0815 76.9255C63.2797 76.2863 62.6347 75.5136 62.1467 74.6071C61.6702 73.6891 61.4204 72.6432 61.3971 71.4695H66.3825C66.4522 72.19 66.6381 72.8117 66.9403 73.3347C67.254 73.846 67.6666 74.2411 68.1779 74.52C68.6892 74.7989 69.2877 74.9383 69.9733 74.9383C70.6124 74.9383 71.1586 74.8163 71.6118 74.5723C72.065 74.3282 72.4311 73.9912 72.71 73.5613C72.9889 73.1197 73.1922 72.6084 73.3201 72.0273C73.4595 71.4346 73.5293 70.7955 73.5293 70.1099C73.5293 69.4243 73.4479 68.8025 73.2852 68.2447C73.1225 67.6869 72.8727 67.2047 72.5357 66.7979C72.1987 66.3912 71.7687 66.0775 71.2458 65.8567C70.7344 65.6359 70.136 65.5255 69.4504 65.5255C68.5207 65.5255 67.8002 65.6707 67.2889 65.9613C66.7892 66.2518 66.3708 66.583 66.0338 66.9548Z" fill="#EE3D3D"/>
<rect x="69.8164" y="95.793" width="15.6938" height="15.6938" transform="rotate(45 69.8164 95.793)" fill="#EE3D3D"/>
</g>
<rect x="23.9269" y="20.255" width="91.2877" height="132.087" rx="3.8249" stroke="#ECECEC" stroke-width="0.509987"/>
</g>
<g filter="url(#filter1_d_2147_15072)">
<g clip-path="url(#clip1_2147_15072)">
<rect x="130.625" y="20" width="91.7977" height="132.597" rx="4.0799" fill="url(#paint1_linear_2147_15072)"/>
<path d="M170.25 53.0796V78.5117H165.23V58.8668L159.199 60.7842V56.8273L169.71 53.0796H170.25ZM195.595 63.5906V67.9833C195.595 69.8891 195.392 71.5334 194.985 72.9163C194.578 74.2876 193.992 75.4148 193.225 76.298C192.469 77.1695 191.569 77.8145 190.523 78.2328C189.477 78.6512 188.315 78.8603 187.037 78.8603C186.014 78.8603 185.061 78.7325 184.178 78.4769C183.295 78.2096 182.499 77.797 181.79 77.2392C181.092 76.6814 180.488 75.9784 179.977 75.1301C179.477 74.2701 179.094 73.2475 178.826 72.0622C178.559 70.8769 178.425 69.5172 178.425 67.9833V63.5906C178.425 61.6848 178.629 60.0521 179.036 58.6924C179.454 57.3212 180.041 56.1998 180.796 55.3282C181.563 54.4567 182.47 53.8175 183.515 53.4108C184.561 52.9924 185.723 52.7833 187.002 52.7833C188.024 52.7833 188.971 52.9169 189.843 53.1842C190.726 53.4398 191.522 53.8408 192.231 54.3869C192.94 54.9331 193.544 55.6362 194.044 56.4961C194.544 57.3444 194.927 58.3612 195.194 59.5466C195.462 60.7203 195.595 62.0683 195.595 63.5906ZM190.558 68.6457V62.9108C190.558 61.9927 190.505 61.1909 190.401 60.5053C190.308 59.8197 190.163 59.2386 189.965 58.7622C189.767 58.2741 189.523 57.879 189.233 57.5768C188.942 57.2747 188.611 57.0539 188.239 56.9145C187.867 56.775 187.455 56.7053 187.002 56.7053C186.432 56.7053 185.927 56.8157 185.485 57.0365C185.055 57.2573 184.689 57.6117 184.387 58.0998C184.085 58.5762 183.852 59.2154 183.69 60.0172C183.539 60.8074 183.463 61.772 183.463 62.9108V68.6457C183.463 69.5637 183.51 70.3713 183.603 71.0686C183.707 71.7658 183.858 72.3643 184.056 72.864C184.265 73.3521 184.509 73.753 184.788 74.0668C185.078 74.3689 185.41 74.5897 185.781 74.7291C186.165 74.8686 186.583 74.9383 187.037 74.9383C187.594 74.9383 188.088 74.8279 188.518 74.6071C188.96 74.3747 189.332 74.0145 189.634 73.5264C189.948 73.0267 190.18 72.3759 190.331 71.5741C190.482 70.7723 190.558 69.7961 190.558 68.6457Z" fill="#242424"/>
<path fill-rule="evenodd" clip-rule="evenodd" d="M181.563 112.053C185.509 112.098 187.936 109.57 186.601 106.909C185.266 104.249 183.935 103.65 181.839 101.721C179.742 99.792 176.692 96.4551 176.707 95.668C176.722 96.4551 173.798 99.792 171.701 101.721C169.606 103.65 168.275 104.249 166.939 106.909C165.604 109.57 168.033 112.098 171.977 112.053C174.686 112.023 175.905 110.467 176.402 109.495L176.402 110.768C176.402 110.768 175.537 115.359 169.435 115.862L168.462 115.862L168.462 116.577L185.079 116.577L185.079 115.862L184.105 115.862C178.004 115.359 177.138 110.768 177.138 110.768L177.138 109.662C177.724 110.635 179.004 112.025 181.563 112.053Z" fill="#242424"/>
</g>
<rect x="130.88" y="20.255" width="91.2877" height="132.087" rx="3.8249" stroke="#ECECEC" stroke-width="0.509987"/>
</g>
<g filter="url(#filter2_d_2147_15072)">
<g clip-path="url(#clip2_2147_15072)">
<rect x="237.574" y="20" width="91.7977" height="132.597" rx="4.0799" fill="url(#paint2_linear_2147_15072)"/>
<path d="M279.866 53.1319V78.5117H274.637V53.1319H279.866ZM295.066 53.1319L285.009 65.6649L279.204 71.9053L278.263 66.9548L282.185 61.586L288.652 53.1319H295.066ZM289.122 78.5117L281.644 66.7805L285.514 63.5383L295.311 78.5117H289.122Z" fill="#242424"/>
<path fill-rule="evenodd" clip-rule="evenodd" d="M289.249 103.069C288.614 103.069 288.008 103.204 287.456 103.449C287.975 102.649 288.279 101.68 288.279 100.634C288.279 97.8915 286.188 95.668 283.609 95.668C281.03 95.668 278.94 97.8915 278.94 100.634C278.94 101.629 279.216 102.555 279.69 103.332C279.219 103.162 278.714 103.069 278.189 103.069C275.61 103.069 273.52 105.292 273.52 108.035C273.52 110.778 275.61 113.001 278.189 113.001C278.772 113.001 279.329 112.887 279.843 112.68C279.843 112.681 282.016 112.057 283.445 109.291V110.956C283.445 110.956 282.712 116.205 277.548 116.779H276.724V117.597H290.788V116.779H289.964C284.8 116.205 284.067 110.956 284.067 110.956V109.403C284.333 110.026 285.804 113.073 289.111 112.998C289.157 112.999 289.203 113.001 289.249 113.001C291.828 113.001 293.919 110.778 293.919 108.035C293.919 105.292 291.828 103.069 289.249 103.069Z" fill="#242424"/>
</g>
<rect x="237.829" y="20.255" width="91.2877" height="132.087" rx="3.8249" stroke="#ECECEC" stroke-width="0.509987"/>
</g>
<g filter="url(#filter3_d_2147_15072)">
<g clip-path="url(#clip3_2147_15072)">
<rect x="344.527" y="20" width="91.7977" height="132.597" rx="4.0799" fill="url(#paint3_linear_2147_15072)"/>
<path d="M386.889 66.9548L382.88 65.9961L384.327 53.1319H398.586V57.1934H388.458L387.831 62.8236C388.168 62.6261 388.679 62.4169 389.365 62.1961C390.05 61.9637 390.817 61.8475 391.665 61.8475C392.897 61.8475 393.99 62.0392 394.943 62.4227C395.895 62.8062 396.703 63.364 397.365 64.0961C398.039 64.8282 398.551 65.723 398.899 66.7805C399.248 67.838 399.422 69.035 399.422 70.3713C399.422 71.4986 399.248 72.5735 398.899 73.5961C398.551 74.6071 398.022 75.5136 397.313 76.3154C396.604 77.1056 395.715 77.7273 394.646 78.1805C393.577 78.6337 392.31 78.8603 390.846 78.8603C389.754 78.8603 388.696 78.6977 387.674 78.3723C386.663 78.0469 385.75 77.5646 384.937 76.9255C384.135 76.2863 383.49 75.5136 383.002 74.6071C382.526 73.6891 382.276 72.6432 382.253 71.4695H387.238C387.308 72.19 387.494 72.8117 387.796 73.3347C388.109 73.846 388.522 74.2411 389.033 74.52C389.545 74.7989 390.143 74.9383 390.829 74.9383C391.468 74.9383 392.014 74.8163 392.467 74.5723C392.921 74.3282 393.287 73.9912 393.565 73.5613C393.844 73.1197 394.048 72.6084 394.176 72.0273C394.315 71.4346 394.385 70.7955 394.385 70.1099C394.385 69.4243 394.303 68.8025 394.141 68.2447C393.978 67.6869 393.728 67.2047 393.391 66.7979C393.054 66.3912 392.624 66.0775 392.101 65.8567C391.59 65.6359 390.991 65.5255 390.306 65.5255C389.376 65.5255 388.656 65.6707 388.144 65.9613C387.645 66.2518 387.226 66.583 386.889 66.9548Z" fill="#EE3D3D"/>
<path fill-rule="evenodd" clip-rule="evenodd" d="M395.707 96.1804C391.564 96.2384 390.741 100.528 390.741 100.528C390.741 100.528 389.785 96.2384 385.642 96.1804C381.5 96.1224 378.95 99.4265 380.352 102.905C381.754 106.383 383.151 107.165 385.353 109.687C387.554 112.208 390.757 116.57 390.741 117.599C390.725 116.57 393.795 112.208 395.996 109.687C398.198 107.165 399.595 106.383 400.997 102.905C402.399 99.4265 399.85 96.1224 395.707 96.1804Z" fill="#EE3D3D"/>
</g>
<rect x="344.782" y="20.255" width="91.2877" height="132.087" rx="3.8249" stroke="#ECECEC" stroke-width="0.509987"/>
</g>
<g filter="url(#filter4_d_2147_15072)">
<rect x="102.287" y="66.4117" width="41.6731" height="41.6731" rx="8.52404" fill="url(#paint4_linear_2147_15072)" stroke="#ECECEC" stroke-width="5.68269"/>
<path fill-rule="evenodd" clip-rule="evenodd" d="M124.541 78.4209C123.788 77.5732 122.463 77.5732 121.71 78.4209L115.51 85.3961C114.424 86.6176 115.291 88.5487 116.925 88.5487H117.916V95.7705C117.916 96.8167 118.764 97.6647 119.81 97.6647H126.44C127.486 97.6647 128.335 96.8167 128.335 95.7705V88.5487H129.326C130.96 88.5487 131.827 86.6177 130.741 85.3961L124.541 78.4209Z" fill="white"/>
</g>
<g filter="url(#filter5_d_2147_15072)">
<rect x="208.365" y="66.4117" width="41.6731" height="41.6731" rx="8.52404" fill="url(#paint5_linear_2147_15072)" stroke="#ECECEC" stroke-width="5.68269"/>
<path fill-rule="evenodd" clip-rule="evenodd" d="M230.619 78.4209C229.866 77.5732 228.541 77.5732 227.788 78.4209L221.588 85.3961C220.502 86.6176 221.369 88.5487 223.003 88.5487H223.994V95.7705C223.994 96.8167 224.842 97.6647 225.889 97.6647H232.518C233.565 97.6647 234.413 96.8167 234.413 95.7705V88.5487H235.404C237.038 88.5487 237.905 86.6177 236.819 85.3961L230.619 78.4209Z" fill="white"/>
</g>
<g filter="url(#filter6_d_2147_15072)">
<rect x="314.439" y="66.4117" width="41.6731" height="41.6731" rx="8.52404" fill="url(#paint6_linear_2147_15072)" stroke="#ECECEC" stroke-width="5.68269"/>
<path fill-rule="evenodd" clip-rule="evenodd" d="M336.694 78.4209C335.94 77.5732 334.615 77.5732 333.862 78.4209L327.662 85.3961C326.576 86.6176 327.443 88.5487 329.078 88.5487H330.069V95.7705C330.069 96.8167 330.917 97.6647 331.963 97.6647H338.593C339.639 97.6647 340.487 96.8167 340.487 95.7705V88.5487H341.478C343.112 88.5487 343.979 86.6177 342.894 85.3961L336.694 78.4209Z" fill="white"/>
</g>
<path d="M196.857 189.728C196.467 189.728 196.138 189.667 195.869 189.546C195.601 189.424 195.397 189.242 195.258 189C195.12 188.748 195.05 188.436 195.05 188.064V182.474H197V187.83C197 187.994 197.035 188.116 197.104 188.194C197.182 188.272 197.299 188.311 197.455 188.311C197.525 188.311 197.598 188.302 197.676 188.285C197.754 188.267 197.828 188.246 197.897 188.22L198.079 189.468C197.915 189.554 197.728 189.619 197.52 189.663C197.312 189.706 197.091 189.728 196.857 189.728ZM200.77 189.728C200.38 189.728 200.051 189.667 199.782 189.546C199.514 189.424 199.31 189.242 199.171 189C199.033 188.748 198.963 188.436 198.963 188.064V182.474H200.913V187.83C200.913 187.994 200.948 188.116 201.017 188.194C201.095 188.272 201.212 188.311 201.368 188.311C201.438 188.311 201.511 188.302 201.589 188.285C201.667 188.267 201.741 188.246 201.81 188.22L201.992 189.468C201.828 189.554 201.641 189.619 201.433 189.663C201.225 189.706 201.004 189.728 200.77 189.728ZM203.131 189.598V187.427C203.131 186.881 203.239 186.46 203.456 186.166C203.673 185.871 203.98 185.663 204.379 185.542L204.392 185.49L203.001 184.983V184.645C203.001 184.22 203.127 183.83 203.378 183.475C203.629 183.119 203.998 182.838 204.483 182.63C204.977 182.413 205.575 182.305 206.277 182.305C206.936 182.305 207.503 182.409 207.98 182.617C208.457 182.816 208.825 183.119 209.085 183.527C209.354 183.925 209.488 184.432 209.488 185.048V189.598H207.538V185.165C207.538 184.731 207.421 184.406 207.187 184.19C206.962 183.973 206.641 183.865 206.225 183.865C205.826 183.865 205.527 183.951 205.328 184.125C205.129 184.289 205.02 184.493 205.003 184.736L206.16 185.269L206.017 186.114C205.705 186.131 205.471 186.244 205.315 186.452C205.159 186.66 205.081 186.941 205.081 187.297V189.598H203.131ZM205.357 181.499V180.849C205.478 180.814 205.612 180.766 205.76 180.706C205.907 180.645 206.037 180.563 206.15 180.459C206.262 180.355 206.319 180.225 206.319 180.069C206.319 179.947 206.284 179.852 206.215 179.783C206.145 179.713 206.059 179.679 205.955 179.679C205.885 179.679 205.812 179.692 205.734 179.718C205.656 179.744 205.586 179.77 205.526 179.796L205.279 178.925C205.452 178.777 205.669 178.682 205.929 178.639C206.18 178.587 206.392 178.561 206.566 178.561C206.956 178.561 207.263 178.652 207.489 178.834C207.705 179.016 207.814 179.284 207.814 179.64C207.814 179.83 207.766 180.008 207.671 180.173C207.567 180.337 207.411 180.472 207.203 180.576L207.151 180.238H209.608V181.499H205.357ZM211.763 183.774V181.876C211.763 181.546 211.794 181.282 211.854 181.083C211.915 180.875 211.997 180.706 212.101 180.576C212.205 180.446 212.314 180.337 212.426 180.251L212.413 180.199H210.398L210.762 178.795H214.896V180.199C214.576 180.199 214.298 180.303 214.064 180.511C213.83 180.719 213.713 181.1 213.713 181.655V183.774H211.763ZM213.57 189.728C213.18 189.728 212.851 189.667 212.582 189.546C212.314 189.424 212.11 189.242 211.971 189C211.833 188.748 211.763 188.436 211.763 188.064V182.474H213.713V187.83C213.713 187.994 213.748 188.116 213.817 188.194C213.895 188.272 214.012 188.311 214.168 188.311C214.238 188.311 214.311 188.302 214.389 188.285C214.467 188.267 214.541 188.246 214.61 188.22L214.792 189.468C214.628 189.554 214.441 189.619 214.233 189.663C214.025 189.706 213.804 189.728 213.57 189.728ZM218.334 189.767C217.363 189.767 216.631 189.55 216.137 189.117C215.643 188.683 215.396 188.051 215.396 187.219V186.699C215.396 186.343 215.444 186.053 215.539 185.828C215.634 185.594 215.751 185.381 215.89 185.191C216.029 185 216.141 184.831 216.228 184.684C216.323 184.528 216.371 184.367 216.371 184.203C216.371 184.047 216.332 183.938 216.254 183.878C216.185 183.808 216.089 183.774 215.968 183.774C215.881 183.774 215.79 183.787 215.695 183.813C215.608 183.839 215.509 183.878 215.396 183.93L215.084 182.708C215.327 182.578 215.587 182.491 215.864 182.448C216.15 182.396 216.401 182.37 216.618 182.37C216.999 182.37 217.303 182.43 217.528 182.552C217.762 182.673 217.931 182.846 218.035 183.072C218.139 183.297 218.191 183.566 218.191 183.878C218.191 184.146 218.152 184.385 218.074 184.593C217.996 184.792 217.896 185 217.775 185.217C217.662 185.416 217.558 185.602 217.463 185.776C217.376 185.949 217.333 186.2 217.333 186.53V187.05C217.333 187.327 217.372 187.557 217.45 187.739C217.537 187.912 217.654 188.042 217.801 188.129C217.957 188.207 218.139 188.246 218.347 188.246C218.685 188.246 218.936 188.15 219.101 187.96C219.266 187.76 219.348 187.479 219.348 187.115V182.474H221.285V187.167C221.285 188.025 221.034 188.675 220.531 189.117C220.028 189.55 219.296 189.767 218.334 189.767ZM223.557 183.774V181.876C223.557 181.546 223.588 181.282 223.648 181.083C223.709 180.875 223.791 180.706 223.895 180.576C223.999 180.446 224.108 180.337 224.22 180.251L224.207 180.199H222.192L222.556 178.795H226.69V180.199C226.37 180.199 226.092 180.303 225.858 180.511C225.624 180.719 225.507 181.1 225.507 181.655V183.774H223.557ZM225.364 189.728C224.974 189.728 224.645 189.667 224.376 189.546C224.108 189.424 223.904 189.242 223.765 189C223.627 188.748 223.557 188.436 223.557 188.064V182.474H225.507V187.83C225.507 187.994 225.542 188.116 225.611 188.194C225.689 188.272 225.806 188.311 225.962 188.311C226.032 188.311 226.105 188.302 226.183 188.285C226.261 188.267 226.335 188.246 226.404 188.22L226.586 189.468C226.422 189.554 226.235 189.619 226.027 189.663C225.819 189.706 225.598 189.728 225.364 189.728ZM230.043 189.728C229.341 189.728 228.782 189.576 228.366 189.273C227.95 188.961 227.651 188.536 227.469 187.999C227.287 187.453 227.196 186.829 227.196 186.127C227.196 185.373 227.279 184.749 227.443 184.255C227.617 183.752 227.859 183.362 228.171 183.085C228.483 182.799 228.852 182.599 229.276 182.487C229.71 182.365 230.182 182.305 230.693 182.305C231.473 182.305 232.097 182.413 232.565 182.63C233.033 182.846 233.371 183.154 233.579 183.553C233.796 183.951 233.904 184.419 233.904 184.957V189.598H231.954V185.113C231.954 184.705 231.855 184.398 231.655 184.19C231.465 183.973 231.144 183.865 230.693 183.865C230.39 183.865 230.121 183.93 229.887 184.06C229.662 184.181 229.484 184.402 229.354 184.723C229.233 185.043 229.172 185.503 229.172 186.101C229.172 186.508 229.211 186.868 229.289 187.18C229.367 187.492 229.493 187.734 229.666 187.908C229.848 188.081 230.091 188.168 230.394 188.168C230.49 188.168 230.581 188.163 230.667 188.155C230.763 188.137 230.845 188.12 230.914 188.103L231.096 189.559C230.958 189.619 230.789 189.663 230.589 189.689C230.399 189.715 230.217 189.728 230.043 189.728ZM229.706 181.499V180.849C229.828 180.814 229.962 180.766 230.109 180.706C230.257 180.645 230.387 180.563 230.499 180.459C230.612 180.355 230.668 180.225 230.668 180.069C230.668 179.947 230.634 179.852 230.564 179.783C230.495 179.713 230.408 179.679 230.304 179.679C230.235 179.679 230.161 179.692 230.083 179.718C230.005 179.744 229.936 179.77 229.875 179.796L229.628 178.925C229.802 178.777 230.018 178.682 230.278 178.639C230.53 178.587 230.742 178.561 230.915 178.561C231.305 178.561 231.613 178.652 231.838 178.834C232.055 179.016 232.163 179.284 232.163 179.64C232.163 179.83 232.116 180.008 232.02 180.173C231.916 180.337 231.76 180.472 231.552 180.576L231.5 180.238H233.957V181.499H229.706ZM238.283 189.728C237.581 189.728 237.022 189.576 236.606 189.273C236.19 188.961 235.891 188.536 235.709 187.999C235.527 187.453 235.436 186.829 235.436 186.127C235.436 185.373 235.518 184.749 235.683 184.255C235.856 183.752 236.099 183.362 236.411 183.085C236.723 182.799 237.091 182.599 237.516 182.487C237.949 182.365 238.421 182.305 238.933 182.305C239.713 182.305 240.337 182.413 240.805 182.63C241.273 182.846 241.611 183.154 241.819 183.553C242.035 183.951 242.144 184.419 242.144 184.957V189.598H240.194V185.113C240.194 184.705 240.094 184.398 239.895 184.19C239.704 183.973 239.383 183.865 238.933 183.865C238.629 183.865 238.361 183.93 238.127 184.06C237.901 184.181 237.724 184.402 237.594 184.723C237.472 185.043 237.412 185.503 237.412 186.101C237.412 186.508 237.451 186.868 237.529 187.18C237.607 187.492 237.732 187.734 237.906 187.908C238.088 188.081 238.33 188.168 238.634 188.168C238.729 188.168 238.82 188.163 238.907 188.155C239.002 188.137 239.084 188.12 239.154 188.103L239.336 189.559C239.197 189.619 239.028 189.663 238.829 189.689C238.638 189.715 238.456 189.728 238.283 189.728ZM237.945 181.499V180.849C238.067 180.814 238.201 180.766 238.348 180.706C238.496 180.645 238.626 180.563 238.738 180.459C238.851 180.355 238.907 180.225 238.907 180.069C238.907 179.947 238.873 179.852 238.803 179.783C238.734 179.713 238.647 179.679 238.543 179.679C238.474 179.679 238.4 179.692 238.322 179.718C238.244 179.744 238.175 179.77 238.114 179.796L237.867 178.925C238.041 178.777 238.257 178.682 238.517 178.639C238.769 178.587 238.981 178.561 239.154 178.561C239.544 178.561 239.852 178.652 240.077 178.834C240.294 179.016 240.402 179.284 240.402 179.64C240.402 179.83 240.355 180.008 240.259 180.173C240.155 180.337 239.999 180.472 239.791 180.576L239.739 180.238H242.196V181.499H237.945ZM245.859 189.767C245.417 189.767 245.001 189.715 244.611 189.611C244.221 189.515 243.857 189.377 243.519 189.195L244.039 187.778C244.229 187.89 244.459 187.99 244.728 188.077C244.996 188.163 245.261 188.207 245.521 188.207C246.006 188.207 246.392 188.025 246.678 187.661C246.964 187.288 247.107 186.733 247.107 185.997C247.107 185.303 246.964 184.775 246.678 184.411C246.392 184.047 245.945 183.865 245.339 183.865C245.053 183.865 244.758 183.908 244.455 183.995C244.151 184.073 243.9 184.172 243.701 184.294V182.695C243.969 182.573 244.273 182.478 244.611 182.409C244.949 182.339 245.308 182.305 245.69 182.305C246.487 182.305 247.137 182.452 247.64 182.747C248.142 183.041 248.511 183.466 248.745 184.021C248.979 184.567 249.096 185.225 249.096 185.997C249.096 187.227 248.814 188.163 248.251 188.805C247.687 189.446 246.89 189.767 245.859 189.767ZM253.655 189.767C252.875 189.767 252.251 189.676 251.783 189.494C251.315 189.303 250.972 189.039 250.756 188.701C250.548 188.363 250.444 187.973 250.444 187.531C250.444 187.149 250.5 186.842 250.613 186.608C250.734 186.374 250.886 186.196 251.068 186.075C251.258 185.945 251.449 185.858 251.64 185.815V185.737C251.44 185.667 251.25 185.572 251.068 185.451C250.886 185.329 250.734 185.165 250.613 184.957C250.5 184.749 250.444 184.489 250.444 184.177C250.444 183.856 250.517 183.557 250.665 183.28C250.821 183.002 251.068 182.781 251.406 182.617C251.744 182.443 252.19 182.357 252.745 182.357C253.013 182.357 253.273 182.378 253.525 182.422C253.776 182.456 253.971 182.508 254.11 182.578L253.811 183.891C253.741 183.873 253.646 183.856 253.525 183.839C253.412 183.813 253.295 183.8 253.174 183.8C252.905 183.8 252.706 183.865 252.576 183.995C252.446 184.116 252.381 184.276 252.381 184.476C252.381 184.684 252.437 184.844 252.55 184.957C252.662 185.069 252.805 185.147 252.979 185.191C253.161 185.234 253.347 185.256 253.538 185.256H253.811V186.465H253.538C253.165 186.465 252.883 186.53 252.693 186.66C252.511 186.79 252.42 187.002 252.42 187.297C252.42 187.453 252.454 187.609 252.524 187.765C252.602 187.912 252.732 188.038 252.914 188.142C253.096 188.237 253.356 188.285 253.694 188.285C254.014 188.285 254.266 188.237 254.448 188.142C254.63 188.046 254.76 187.921 254.838 187.765C254.916 187.6 254.955 187.418 254.955 187.219V182.474H256.905V187.154C256.905 188.046 256.64 188.705 256.112 189.13C255.592 189.554 254.773 189.767 253.655 189.767ZM261.286 189.728C260.584 189.728 260.025 189.576 259.609 189.273C259.193 188.961 258.894 188.536 258.712 187.999C258.53 187.453 258.439 186.829 258.439 186.127C258.439 185.373 258.522 184.749 258.686 184.255C258.86 183.752 259.102 183.362 259.414 183.085C259.726 182.799 260.095 182.599 260.519 182.487C260.953 182.365 261.425 182.305 261.936 182.305C262.716 182.305 263.34 182.413 263.808 182.63C264.276 182.846 264.614 183.154 264.822 183.553C265.039 183.951 265.147 184.419 265.147 184.957V189.598H263.197V185.113C263.197 184.705 263.098 184.398 262.898 184.19C262.708 183.973 262.387 183.865 261.936 183.865C261.633 183.865 261.364 183.93 261.13 184.06C260.905 184.181 260.727 184.402 260.597 184.723C260.476 185.043 260.415 185.503 260.415 186.101C260.415 186.508 260.454 186.868 260.532 187.18C260.61 187.492 260.736 187.734 260.909 187.908C261.091 188.081 261.334 188.168 261.637 188.168C261.733 188.168 261.824 188.163 261.91 188.155C262.006 188.137 262.088 188.12 262.157 188.103L262.339 189.559C262.201 189.619 262.032 189.663 261.832 189.689C261.642 189.715 261.46 189.728 261.286 189.728ZM258.896 181.486V180.667L260.209 180.121H264.85V181.486H258.896ZM263.186 180.693V179.224H264.85V180.693H263.186Z" fill="#484848"/>
<path d="M185.433 224.598H180.233V201.718L174.433 206.758V201.158L180.233 196.118H185.433V224.598ZM211.831 204.678C211.831 206.544 211.045 209.078 209.471 212.278L203.431 224.598H197.791L203.711 212.838C203.125 213.078 202.418 213.198 201.591 213.198C199.565 213.198 197.805 212.424 196.311 210.878C194.818 209.331 194.071 207.291 194.071 204.758C194.071 202.011 194.898 199.851 196.551 198.278C198.231 196.678 200.365 195.878 202.951 195.878C205.538 195.878 207.658 196.664 209.311 198.238C210.991 199.784 211.831 201.931 211.831 204.678ZM205.591 207.758C206.285 207.011 206.631 205.998 206.631 204.718C206.631 203.438 206.285 202.424 205.591 201.678C204.925 200.931 204.045 200.558 202.951 200.558C201.858 200.558 200.965 200.931 200.271 201.678C199.605 202.424 199.271 203.438 199.271 204.718C199.271 205.971 199.605 206.984 200.271 207.758C200.965 208.504 201.858 208.878 202.951 208.878C204.045 208.878 204.925 208.504 205.591 207.758ZM222.43 224.598H216.47V218.678H222.43V224.598ZM245.276 200.798L236.036 224.598H230.396L239.636 200.798H232.116V205.278H227.156V196.118H245.276V200.798ZM266.995 200.798L257.755 224.598H252.115L261.355 200.798H253.835V205.278H248.875V196.118H266.995V200.798ZM289.194 224.598H282.954L279.114 218.358L275.314 224.598H269.074L276.274 213.958L269.354 203.758H275.594L279.114 209.718L282.674 203.758H288.914L281.994 213.958L289.194 224.598Z" fill="#484848"/>
<g clip-path="url(#clip4_2147_15072)">
<rect x="23.5" y="256.598" width="413" height="47.4023" rx="10" fill="#FB6943"/>
<g filter="url(#filter7_d_2147_15072)">
<path d="M143.944 287.977C143.404 287.977 142.948 287.893 142.576 287.725C142.204 287.557 141.922 287.305 141.73 286.969C141.538 286.621 141.442 286.189 141.442 285.673V277.933H144.142V285.349C144.142 285.577 144.19 285.745 144.286 285.853C144.394 285.961 144.556 286.015 144.772 286.015C144.868 286.015 144.97 286.003 145.078 285.979C145.186 285.955 145.288 285.925 145.384 285.889L145.636 287.617C145.408 287.737 145.15 287.827 144.862 287.887C144.574 287.947 144.268 287.977 143.944 287.977ZM148.489 287.797L145.627 277.933H148.345L150.523 285.619H150.631C150.823 285.619 151.003 285.565 151.171 285.457C151.339 285.349 151.483 285.205 151.603 285.025C151.843 284.689 152.023 284.293 152.143 283.837C152.263 283.369 152.323 282.907 152.323 282.451C152.323 281.647 152.167 281.029 151.855 280.597C151.555 280.165 151.135 279.949 150.595 279.949C150.487 279.949 150.385 279.955 150.289 279.967C150.205 279.979 150.127 280.003 150.055 280.039L149.551 277.969C149.827 277.885 150.085 277.837 150.325 277.825C150.577 277.801 150.781 277.789 150.937 277.789C151.573 277.789 152.125 277.873 152.593 278.041C153.061 278.209 153.463 278.461 153.799 278.797C154.219 279.205 154.531 279.715 154.735 280.327C154.951 280.939 155.059 281.629 155.059 282.397C155.059 283.369 154.903 284.221 154.591 284.953C154.291 285.673 153.925 286.243 153.493 286.663C153.133 287.011 152.677 287.287 152.125 287.491C151.585 287.695 150.841 287.797 149.893 287.797H148.489ZM145.908 276.565V275.431L147.726 274.675H154.152V276.565H145.908ZM160.446 287.977C159.714 287.977 159.096 287.839 158.592 287.563C158.1 287.275 157.722 286.849 157.458 286.285C157.206 285.721 157.08 285.031 157.08 284.215V277.933H159.78V283.747C159.78 284.407 159.912 284.887 160.176 285.187C160.44 285.487 160.824 285.637 161.328 285.637C161.964 285.637 162.456 285.397 162.804 284.917C163.152 284.425 163.326 283.669 163.326 282.649V277.933H166.026V287.797H163.974L163.686 286.285H163.524C163.32 286.765 162.966 287.167 162.462 287.491C161.97 287.815 161.298 287.977 160.446 287.977ZM172.641 288.031C171.177 288.031 170.091 287.677 169.383 286.969C168.675 286.249 168.321 285.187 168.321 283.783C168.321 283.543 168.327 283.255 168.339 282.919C168.363 282.571 168.393 282.265 168.429 282.001H172.749V283.711H170.967V283.963C170.967 284.443 171.027 284.839 171.147 285.151C171.267 285.451 171.447 285.673 171.687 285.817C171.939 285.961 172.251 286.033 172.623 286.033C173.031 286.033 173.373 285.943 173.649 285.763C173.937 285.583 174.153 285.277 174.297 284.845C174.453 284.413 174.531 283.819 174.531 283.063C174.531 282.355 174.447 281.767 174.279 281.299C174.123 280.819 173.853 280.459 173.469 280.219C173.097 279.979 172.581 279.859 171.921 279.859C171.561 279.859 171.189 279.901 170.805 279.985C170.421 280.057 170.055 280.153 169.707 280.273C169.371 280.393 169.077 280.525 168.825 280.669V278.419C169.089 278.275 169.413 278.149 169.797 278.041C170.193 277.933 170.619 277.849 171.075 277.789C171.531 277.729 171.981 277.699 172.425 277.699C173.589 277.699 174.525 277.915 175.233 278.347C175.953 278.767 176.475 279.367 176.799 280.147C177.135 280.927 177.303 281.851 177.303 282.919C177.303 284.011 177.141 284.941 176.817 285.709C176.505 286.465 176.007 287.041 175.323 287.437C174.639 287.833 173.745 288.031 172.641 288.031ZM183.311 288.031C181.847 288.031 180.761 287.677 180.053 286.969C179.345 286.249 178.991 285.187 178.991 283.783C178.991 283.543 178.997 283.255 179.009 282.919C179.033 282.571 179.063 282.265 179.099 282.001H183.419V283.711H181.637V283.963C181.637 284.443 181.697 284.839 181.817 285.151C181.937 285.451 182.117 285.673 182.357 285.817C182.609 285.961 182.921 286.033 183.293 286.033C183.701 286.033 184.043 285.943 184.319 285.763C184.607 285.583 184.823 285.277 184.967 284.845C185.123 284.413 185.201 283.819 185.201 283.063C185.201 282.355 185.117 281.767 184.949 281.299C184.793 280.819 184.523 280.459 184.139 280.219C183.767 279.979 183.251 279.859 182.591 279.859C182.231 279.859 181.859 279.901 181.475 279.985C181.091 280.057 180.725 280.153 180.377 280.273C180.041 280.393 179.747 280.525 179.495 280.669V278.419C179.759 278.275 180.083 278.149 180.467 278.041C180.863 277.933 181.289 277.849 181.745 277.789C182.201 277.729 182.651 277.699 183.095 277.699C184.259 277.699 185.195 277.915 185.903 278.347C186.623 278.767 187.145 279.367 187.469 280.147C187.805 280.927 187.973 281.851 187.973 282.919C187.973 284.011 187.811 284.941 187.487 285.709C187.175 286.465 186.677 287.041 185.993 287.437C185.309 287.833 184.415 288.031 183.311 288.031ZM189.967 287.797V284.791C189.967 284.035 190.117 283.453 190.417 283.045C190.717 282.637 191.143 282.349 191.695 282.181L191.713 282.109L189.787 281.407V280.939C189.787 280.351 189.961 279.811 190.309 279.319C190.657 278.827 191.167 278.437 191.839 278.149C192.523 277.849 193.351 277.699 194.323 277.699C195.235 277.699 196.021 277.843 196.681 278.131C197.341 278.407 197.851 278.827 198.211 279.391C198.583 279.943 198.769 280.645 198.769 281.497V287.797H196.069V281.659C196.069 281.059 195.907 280.609 195.583 280.309C195.271 280.009 194.827 279.859 194.251 279.859C193.699 279.859 193.285 279.979 193.009 280.219C192.733 280.447 192.583 280.729 192.559 281.065L194.161 281.803L193.963 282.973C193.531 282.997 193.207 283.153 192.991 283.441C192.775 283.729 192.667 284.119 192.667 284.611V287.797H189.967ZM214.892 274.692V287.797H211.271V279.21C210.685 279.655 210.116 280.016 209.565 280.291C209.021 280.566 208.335 280.83 207.509 281.082V278.146C208.728 277.754 209.674 277.282 210.348 276.731C211.021 276.181 211.549 275.501 211.93 274.692H214.892ZM219.137 284.211H222.96V287.797H219.137V284.211ZM224.779 281.302C224.779 278.853 225.219 277.139 226.098 276.16C226.982 275.182 228.327 274.692 230.132 274.692C230.999 274.692 231.711 274.801 232.268 275.018C232.824 275.229 233.278 275.507 233.63 275.853C233.981 276.192 234.257 276.553 234.456 276.934C234.661 277.309 234.825 277.748 234.948 278.252C235.188 279.213 235.309 280.215 235.309 281.258C235.309 283.596 234.913 285.307 234.122 286.391C233.331 287.475 231.969 288.017 230.035 288.017C228.951 288.017 228.075 287.844 227.407 287.498C226.739 287.152 226.191 286.646 225.764 285.978C225.453 285.503 225.21 284.855 225.034 284.035C224.864 283.209 224.779 282.298 224.779 281.302ZM228.33 281.311C228.33 282.951 228.474 284.073 228.761 284.677C229.054 285.274 229.476 285.573 230.026 285.573C230.39 285.573 230.703 285.447 230.967 285.195C231.236 284.938 231.433 284.533 231.556 283.982C231.685 283.432 231.749 282.573 231.749 281.407C231.749 279.696 231.603 278.548 231.31 277.962C231.022 277.37 230.589 277.074 230.009 277.074C229.417 277.074 228.989 277.376 228.726 277.979C228.462 278.577 228.33 279.688 228.33 281.311ZM236.785 281.302C236.785 278.853 237.225 277.139 238.104 276.16C238.988 275.182 240.333 274.692 242.138 274.692C243.005 274.692 243.717 274.801 244.273 275.018C244.83 275.229 245.284 275.507 245.636 275.853C245.987 276.192 246.263 276.553 246.462 276.934C246.667 277.309 246.831 277.748 246.954 278.252C247.194 279.213 247.314 280.215 247.314 281.258C247.314 283.596 246.919 285.307 246.128 286.391C245.337 287.475 243.975 288.017 242.041 288.017C240.957 288.017 240.081 287.844 239.413 287.498C238.745 287.152 238.197 286.646 237.77 285.978C237.459 285.503 237.216 284.855 237.04 284.035C236.87 283.209 236.785 282.298 236.785 281.302ZM240.336 281.311C240.336 282.951 240.479 284.073 240.767 284.677C241.06 285.274 241.481 285.573 242.032 285.573C242.396 285.573 242.709 285.447 242.973 285.195C243.242 284.938 243.438 284.533 243.562 283.982C243.69 283.432 243.755 282.573 243.755 281.407C243.755 279.696 243.608 278.548 243.315 277.962C243.028 277.37 242.595 277.074 242.015 277.074C241.423 277.074 240.995 277.376 240.731 277.979C240.468 278.577 240.336 279.688 240.336 281.311ZM248.791 281.302C248.791 278.853 249.23 277.139 250.109 276.16C250.994 275.182 252.339 274.692 254.144 274.692C255.011 274.692 255.723 274.801 256.279 275.018C256.836 275.229 257.29 275.507 257.642 275.853C257.993 276.192 258.269 276.553 258.468 276.934C258.673 277.309 258.837 277.748 258.96 278.252C259.2 279.213 259.32 280.215 259.32 281.258C259.32 283.596 258.925 285.307 258.134 286.391C257.343 287.475 255.98 288.017 254.047 288.017C252.963 288.017 252.087 287.844 251.419 287.498C250.751 287.152 250.203 286.646 249.775 285.978C249.465 285.503 249.222 284.855 249.046 284.035C248.876 283.209 248.791 282.298 248.791 281.302ZM252.342 281.311C252.342 282.951 252.485 284.073 252.772 284.677C253.065 285.274 253.487 285.573 254.038 285.573C254.401 285.573 254.715 285.447 254.979 285.195C255.248 284.938 255.444 284.533 255.567 283.982C255.696 283.432 255.761 282.573 255.761 281.407C255.761 279.696 255.614 278.548 255.321 277.962C255.034 277.37 254.601 277.074 254.021 277.074C253.429 277.074 253.001 277.376 252.737 277.979C252.474 278.577 252.342 279.688 252.342 281.311ZM260.797 281.302C260.797 278.853 261.236 277.139 262.115 276.16C263 275.182 264.345 274.692 266.149 274.692C267.017 274.692 267.729 274.801 268.285 275.018C268.842 275.229 269.296 275.507 269.647 275.853C269.999 276.192 270.274 276.553 270.474 276.934C270.679 277.309 270.843 277.748 270.966 278.252C271.206 279.213 271.326 280.215 271.326 281.258C271.326 283.596 270.931 285.307 270.14 286.391C269.349 287.475 267.986 288.017 266.053 288.017C264.969 288.017 264.093 287.844 263.425 287.498C262.757 287.152 262.209 286.646 261.781 285.978C261.471 285.503 261.228 284.855 261.052 284.035C260.882 283.209 260.797 282.298 260.797 281.302ZM264.348 281.311C264.348 282.951 264.491 284.073 264.778 284.677C265.071 285.274 265.493 285.573 266.044 285.573C266.407 285.573 266.721 285.447 266.984 285.195C267.254 284.938 267.45 284.533 267.573 283.982C267.702 283.432 267.767 282.573 267.767 281.407C267.767 279.696 267.62 278.548 267.327 277.962C267.04 277.37 266.606 277.074 266.026 277.074C265.435 277.074 265.007 277.376 264.743 277.979C264.479 278.577 264.348 279.688 264.348 281.311ZM272.803 281.302C272.803 278.853 273.242 277.139 274.121 276.16C275.006 275.182 276.351 274.692 278.155 274.692C279.022 274.692 279.734 274.801 280.291 275.018C280.848 275.229 281.302 275.507 281.653 275.853C282.005 276.192 282.28 276.553 282.479 276.934C282.685 277.309 282.849 277.748 282.972 278.252C283.212 279.213 283.332 280.215 283.332 281.258C283.332 283.596 282.937 285.307 282.146 286.391C281.354 287.475 279.992 288.017 278.059 288.017C276.975 288.017 276.099 287.844 275.431 287.498C274.763 287.152 274.215 286.646 273.787 285.978C273.477 285.503 273.233 284.855 273.058 284.035C272.888 283.209 272.803 282.298 272.803 281.302ZM276.354 281.311C276.354 282.951 276.497 284.073 276.784 284.677C277.077 285.274 277.499 285.573 278.05 285.573C278.413 285.573 278.727 285.447 278.99 285.195C279.26 284.938 279.456 284.533 279.579 283.982C279.708 283.432 279.772 282.573 279.772 281.407C279.772 279.696 279.626 278.548 279.333 277.962C279.046 277.37 278.612 277.074 278.032 277.074C277.44 277.074 277.013 277.376 276.749 277.979C276.485 278.577 276.354 279.688 276.354 281.311ZM284.809 281.302C284.809 278.853 285.248 277.139 286.127 276.16C287.012 275.182 288.356 274.692 290.161 274.692C291.028 274.692 291.74 274.801 292.297 275.018C292.854 275.229 293.308 275.507 293.659 275.853C294.011 276.192 294.286 276.553 294.485 276.934C294.69 277.309 294.854 277.748 294.978 278.252C295.218 279.213 295.338 280.215 295.338 281.258C295.338 283.596 294.942 285.307 294.151 286.391C293.36 287.475 291.998 288.017 290.064 288.017C288.98 288.017 288.104 287.844 287.437 287.498C286.769 287.152 286.221 286.646 285.793 285.978C285.482 285.503 285.239 284.855 285.063 284.035C284.894 283.209 284.809 282.298 284.809 281.302ZM288.359 281.311C288.359 282.951 288.503 284.073 288.79 284.677C289.083 285.274 289.505 285.573 290.056 285.573C290.419 285.573 290.732 285.447 290.996 285.195C291.266 284.938 291.462 284.533 291.585 283.982C291.714 283.432 291.778 282.573 291.778 281.407C291.778 279.696 291.632 278.548 291.339 277.962C291.052 277.37 290.618 277.074 290.038 277.074C289.446 277.074 289.019 277.376 288.755 277.979C288.491 278.577 288.359 279.688 288.359 281.311ZM296.814 281.302C296.814 278.853 297.254 277.139 298.133 276.16C299.018 275.182 300.362 274.692 302.167 274.692C303.034 274.692 303.746 274.801 304.303 275.018C304.859 275.229 305.313 275.507 305.665 275.853C306.017 276.192 306.292 276.553 306.491 276.934C306.696 277.309 306.86 277.748 306.983 278.252C307.224 279.213 307.344 280.215 307.344 281.258C307.344 283.596 306.948 285.307 306.157 286.391C305.366 287.475 304.004 288.017 302.07 288.017C300.986 288.017 300.11 287.844 299.442 287.498C298.774 287.152 298.227 286.646 297.799 285.978C297.488 285.503 297.245 284.855 297.069 284.035C296.899 283.209 296.814 282.298 296.814 281.302ZM300.365 281.311C300.365 282.951 300.509 284.073 300.796 284.677C301.089 285.274 301.511 285.573 302.062 285.573C302.425 285.573 302.738 285.447 303.002 285.195C303.271 284.938 303.468 284.533 303.591 283.982C303.72 283.432 303.784 282.573 303.784 281.407C303.784 279.696 303.638 278.548 303.345 277.962C303.058 277.37 302.624 277.074 302.044 277.074C301.452 277.074 301.024 277.376 300.761 277.979C300.497 278.577 300.365 279.688 300.365 281.311ZM308.82 281.302C308.82 278.853 309.26 277.139 310.139 276.16C311.023 275.182 312.368 274.692 314.173 274.692C315.04 274.692 315.752 274.801 316.309 275.018C316.865 275.229 317.319 275.507 317.671 275.853C318.022 276.192 318.298 276.553 318.497 276.934C318.702 277.309 318.866 277.748 318.989 278.252C319.229 279.213 319.35 280.215 319.35 281.258C319.35 283.596 318.954 285.307 318.163 286.391C317.372 287.475 316.01 288.017 314.076 288.017C312.992 288.017 312.116 287.844 311.448 287.498C310.78 287.152 310.232 286.646 309.805 285.978C309.494 285.503 309.251 284.855 309.075 284.035C308.905 283.209 308.82 282.298 308.82 281.302ZM312.371 281.311C312.371 282.951 312.515 284.073 312.802 284.677C313.095 285.274 313.517 285.573 314.067 285.573C314.431 285.573 314.744 285.447 315.008 285.195C315.277 284.938 315.474 284.533 315.597 283.982C315.726 283.432 315.79 282.573 315.79 281.407C315.79 279.696 315.644 278.548 315.351 277.962C315.063 277.37 314.63 277.074 314.05 277.074C313.458 277.074 313.03 277.376 312.767 277.979C312.503 278.577 312.371 279.688 312.371 281.311Z" fill="white"/>
</g>
</g>
<defs>
<filter id="filter0_d_2147_15072" x="16.0221" y="14.3901" width="107.096" height="147.897" filterUnits="userSpaceOnUse" color-interpolation-filters="sRGB">
<feFlood flood-opacity="0" result="BackgroundImageFix"/>
<feColorMatrix in="SourceAlpha" type="matrix" values="0 0 0 0 0 0 0 0 0 0 0 0 0 0 0 0 0 0 127 0" result="hardAlpha"/>
<feOffset dy="2.03995"/>
<feGaussianBlur stdDeviation="3.8249"/>
<feComposite in2="hardAlpha" operator="out"/>
<feColorMatrix type="matrix" values="0 0 0 0 0 0 0 0 0 0 0 0 0 0 0 0 0 0 0.25 0"/>
<feBlend mode="normal" in2="BackgroundImageFix" result="effect1_dropShadow_2147_15072"/>
<feBlend mode="normal" in="SourceGraphic" in2="effect1_dropShadow_2147_15072" result="shape"/>
</filter>
<filter id="filter1_d_2147_15072" x="122.975" y="14.3901" width="107.096" height="147.897" filterUnits="userSpaceOnUse" color-interpolation-filters="sRGB">
<feFlood flood-opacity="0" result="BackgroundImageFix"/>
<feColorMatrix in="SourceAlpha" type="matrix" values="0 0 0 0 0 0 0 0 0 0 0 0 0 0 0 0 0 0 127 0" result="hardAlpha"/>
<feOffset dy="2.03995"/>
<feGaussianBlur stdDeviation="3.8249"/>
<feComposite in2="hardAlpha" operator="out"/>
<feColorMatrix type="matrix" values="0 0 0 0 0 0 0 0 0 0 0 0 0 0 0 0 0 0 0.25 0"/>
<feBlend mode="normal" in2="BackgroundImageFix" result="effect1_dropShadow_2147_15072"/>
<feBlend mode="normal" in="SourceGraphic" in2="effect1_dropShadow_2147_15072" result="shape"/>
</filter>
<filter id="filter2_d_2147_15072" x="229.924" y="14.3901" width="107.096" height="147.897" filterUnits="userSpaceOnUse" color-interpolation-filters="sRGB">
<feFlood flood-opacity="0" result="BackgroundImageFix"/>
<feColorMatrix in="SourceAlpha" type="matrix" values="0 0 0 0 0 0 0 0 0 0 0 0 0 0 0 0 0 0 127 0" result="hardAlpha"/>
<feOffset dy="2.03995"/>
<feGaussianBlur stdDeviation="3.8249"/>
<feComposite in2="hardAlpha" operator="out"/>
<feColorMatrix type="matrix" values="0 0 0 0 0 0 0 0 0 0 0 0 0 0 0 0 0 0 0.25 0"/>
<feBlend mode="normal" in2="BackgroundImageFix" result="effect1_dropShadow_2147_15072"/>
<feBlend mode="normal" in="SourceGraphic" in2="effect1_dropShadow_2147_15072" result="shape"/>
</filter>
<filter id="filter3_d_2147_15072" x="336.878" y="14.3901" width="107.096" height="147.897" filterUnits="userSpaceOnUse" color-interpolation-filters="sRGB">
<feFlood flood-opacity="0" result="BackgroundImageFix"/>
<feColorMatrix in="SourceAlpha" type="matrix" values="0 0 0 0 0 0 0 0 0 0 0 0 0 0 0 0 0 0 127 0" result="hardAlpha"/>
<feOffset dy="2.03995"/>
<feGaussianBlur stdDeviation="3.8249"/>
<feComposite in2="hardAlpha" operator="out"/>
<feColorMatrix type="matrix" values="0 0 0 0 0 0 0 0 0 0 0 0 0 0 0 0 0 0 0.25 0"/>
<feBlend mode="normal" in2="BackgroundImageFix" result="effect1_dropShadow_2147_15072"/>
<feBlend mode="normal" in="SourceGraphic" in2="effect1_dropShadow_2147_15072" result="shape"/>
</filter>
<filter id="filter4_d_2147_15072" x="84.4453" y="52.5703" width="77.3555" height="77.3555" filterUnits="userSpaceOnUse" color-interpolation-filters="sRGB">
<feFlood flood-opacity="0" result="BackgroundImageFix"/>
<feColorMatrix in="SourceAlpha" type="matrix" values="0 0 0 0 0 0 0 0 0 0 0 0 0 0 0 0 0 0 127 0" result="hardAlpha"/>
<feOffset dy="4"/>
<feGaussianBlur stdDeviation="7.5"/>
<feComposite in2="hardAlpha" operator="out"/>
<feColorMatrix type="matrix" values="0 0 0 0 0 0 0 0 0 0 0 0 0 0 0 0 0 0 0.25 0"/>
<feBlend mode="normal" in2="BackgroundImageFix" result="effect1_dropShadow_2147_15072"/>
<feBlend mode="normal" in="SourceGraphic" in2="effect1_dropShadow_2147_15072" result="shape"/>
</filter>
<filter id="filter5_d_2147_15072" x="190.523" y="52.5703" width="77.3555" height="77.3555" filterUnits="userSpaceOnUse" color-interpolation-filters="sRGB">
<feFlood flood-opacity="0" result="BackgroundImageFix"/>
<feColorMatrix in="SourceAlpha" type="matrix" values="0 0 0 0 0 0 0 0 0 0 0 0 0 0 0 0 0 0 127 0" result="hardAlpha"/>
<feOffset dy="4"/>
<feGaussianBlur stdDeviation="7.5"/>
<feComposite in2="hardAlpha" operator="out"/>
<feColorMatrix type="matrix" values="0 0 0 0 0 0 0 0 0 0 0 0 0 0 0 0 0 0 0.25 0"/>
<feBlend mode="normal" in2="BackgroundImageFix" result="effect1_dropShadow_2147_15072"/>
<feBlend mode="normal" in="SourceGraphic" in2="effect1_dropShadow_2147_15072" result="shape"/>
</filter>
<filter id="filter6_d_2147_15072" x="296.598" y="52.5703" width="77.3555" height="77.3555" filterUnits="userSpaceOnUse" color-interpolation-filters="sRGB">
<feFlood flood-opacity="0" result="BackgroundImageFix"/>
<feColorMatrix in="SourceAlpha" type="matrix" values="0 0 0 0 0 0 0 0 0 0 0 0 0 0 0 0 0 0 127 0" result="hardAlpha"/>
<feOffset dy="4"/>
<feGaussianBlur stdDeviation="7.5"/>
<feComposite in2="hardAlpha" operator="out"/>
<feColorMatrix type="matrix" values="0 0 0 0 0 0 0 0 0 0 0 0 0 0 0 0 0 0 0.25 0"/>
<feBlend mode="normal" in2="BackgroundImageFix" result="effect1_dropShadow_2147_15072"/>
<feBlend mode="normal" in="SourceGraphic" in2="effect1_dropShadow_2147_15072" result="shape"/>
</filter>
<filter id="filter7_d_2147_15072" x="137.441" y="272.676" width="185.91" height="21.3555" filterUnits="userSpaceOnUse" color-interpolation-filters="sRGB">
<feFlood flood-opacity="0" result="BackgroundImageFix"/>
<feColorMatrix in="SourceAlpha" type="matrix" values="0 0 0 0 0 0 0 0 0 0 0 0 0 0 0 0 0 0 127 0" result="hardAlpha"/>
<feOffset dy="2"/>
<feGaussianBlur stdDeviation="2"/>
<feComposite in2="hardAlpha" operator="out"/>
<feColorMatrix type="matrix" values="0 0 0 0 0 0 0 0 0 0 0 0 0 0 0 0 0 0 0.3 0"/>
<feBlend mode="normal" in2="BackgroundImageFix" result="effect1_dropShadow_2147_15072"/>
<feBlend mode="normal" in="SourceGraphic" in2="effect1_dropShadow_2147_15072" result="shape"/>
</filter>
<linearGradient id="paint0_linear_2147_15072" x1="69.5707" y1="20" x2="69.5707" y2="152.597" gradientUnits="userSpaceOnUse">
<stop stop-color="#F9F9F9"/>
<stop offset="1" stop-color="#ECECEC"/>
</linearGradient>
<linearGradient id="paint1_linear_2147_15072" x1="176.524" y1="20" x2="176.524" y2="152.597" gradientUnits="userSpaceOnUse">
<stop stop-color="#F9F9F9"/>
<stop offset="1" stop-color="#ECECEC"/>
</linearGradient>
<linearGradient id="paint2_linear_2147_15072" x1="283.473" y1="20" x2="283.473" y2="152.597" gradientUnits="userSpaceOnUse">
<stop stop-color="#F9F9F9"/>
<stop offset="1" stop-color="#ECECEC"/>
</linearGradient>
<linearGradient id="paint3_linear_2147_15072" x1="390.426" y1="20" x2="390.426" y2="152.597" gradientUnits="userSpaceOnUse">
<stop stop-color="#F9F9F9"/>
<stop offset="1" stop-color="#ECECEC"/>
</linearGradient>
<linearGradient id="paint4_linear_2147_15072" x1="123.123" y1="63.5703" x2="123.123" y2="110.926" gradientUnits="userSpaceOnUse">
<stop stop-color="#FF7B98"/>
<stop offset="1" stop-color="#ED456A"/>
</linearGradient>
<linearGradient id="paint5_linear_2147_15072" x1="229.201" y1="63.5703" x2="229.201" y2="110.926" gradientUnits="userSpaceOnUse">
<stop stop-color="#FF7B98"/>
<stop offset="1" stop-color="#ED456A"/>
</linearGradient>
<linearGradient id="paint6_linear_2147_15072" x1="335.276" y1="63.5703" x2="335.276" y2="110.926" gradientUnits="userSpaceOnUse">
<stop stop-color="#FF7B98"/>
<stop offset="1" stop-color="#ED456A"/>
</linearGradient>
<clipPath id="clip0_2147_15072">
<rect x="23.6719" y="20" width="91.7977" height="132.597" rx="4.0799" fill="white"/>
</clipPath>
<clipPath id="clip1_2147_15072">
<rect x="130.625" y="20" width="91.7977" height="132.597" rx="4.0799" fill="white"/>
</clipPath>
<clipPath id="clip2_2147_15072">
<rect x="237.574" y="20" width="91.7977" height="132.597" rx="4.0799" fill="white"/>
</clipPath>
<clipPath id="clip3_2147_15072">
<rect x="344.527" y="20" width="91.7977" height="132.597" rx="4.0799" fill="white"/>
</clipPath>
<clipPath id="clip4_2147_15072">
<rect x="23.5" y="256.598" width="413" height="47.4023" rx="10" fill="white"/>
</clipPath>
</defs>
</svg>
