<svg width="32" height="32" viewBox="0 0 32 32" fill="none" xmlns="http://www.w3.org/2000/svg">
<g opacity="0.8">
<path d="M16 8.5C14.5166 8.5 13.0666 8.93987 11.8332 9.76398C10.5999 10.5881 9.63856 11.7594 9.0709 13.1299C8.50325 14.5003 8.35472 16.0083 8.64411 17.4632C8.9335 18.918 9.64781 20.2544 10.6967 21.3033C11.7456 22.3522 13.082 23.0665 14.5368 23.3559C15.9917 23.6453 17.4997 23.4968 18.8701 22.9291C20.2406 22.3614 21.4119 21.4001 22.236 20.1668C23.0601 18.9334 23.5 17.4834 23.5 16C23.4979 14.0115 22.707 12.1051 21.301 10.699C19.8949 9.29297 17.9885 8.50212 16 8.5ZM16 6C17.9778 6 19.9112 6.58649 21.5557 7.6853C23.2002 8.78412 24.4819 10.3459 25.2388 12.1732C25.9957 14.0004 26.1937 16.0111 25.8079 17.9509C25.422 19.8907 24.4696 21.6725 23.0711 23.0711C21.6725 24.4696 19.8907 25.422 17.9509 25.8079C16.0111 26.1937 14.0004 25.9957 12.1732 25.2388C10.3459 24.4819 8.78412 23.2002 7.6853 21.5557C6.58649 19.9112 6 17.9778 6 16C6 13.3478 7.05357 10.8043 8.92893 8.92893C10.8043 7.05357 13.3478 6 16 6V6Z" fill="#B1BAD3"/>
<path d="M16 19.416C17.8866 19.416 19.416 17.8866 19.416 16C19.416 14.1134 17.8866 12.584 16 12.584C14.1134 12.584 12.584 14.1134 12.584 16C12.584 17.8866 14.1134 19.416 16 19.416Z" fill="#B1BAD3"/>
</g>
</svg>
