<svg width="32" height="32" viewBox="0 0 32 32" fill="none" xmlns="http://www.w3.org/2000/svg">
<path opacity="0.8" d="M18.3702 13.604C18.5521 13.7748 18.7922 13.8698 19.0417 13.8698C19.2912 13.8698 19.5313 13.7748 19.7132 13.604L23.1082 10.256V12.956C23.1056 13.0486 23.1219 13.1408 23.1562 13.2269C23.1904 13.313 23.2419 13.3913 23.3074 13.4568C23.3729 13.5223 23.4512 13.5738 23.5373 13.608C23.6234 13.6423 23.7156 13.6586 23.8082 13.656H24.3022C24.388 13.6649 24.4748 13.6563 24.5571 13.6306C24.6395 13.6049 24.7158 13.5627 24.7813 13.5065C24.8468 13.4504 24.9001 13.3815 24.9381 13.304C24.9761 13.2265 24.9979 13.1421 25.0022 13.056V7.74698C25.0065 7.56877 24.9544 7.39375 24.8532 7.24698C24.7187 7.12184 24.5429 7.05064 24.3592 7.04698H24.0142L19.0812 7.00098C18.8969 7.0053 18.7214 7.08043 18.591 7.21078C18.4607 7.34114 18.3855 7.51668 18.3812 7.70098V8.20098C18.3988 8.39821 18.4918 8.58107 18.6408 8.71146C18.7898 8.84186 18.9834 8.90974 19.1812 8.90098H21.7742L18.4352 12.249C18.3293 12.3251 18.2419 12.4241 18.1796 12.5387C18.1174 12.6533 18.0818 12.7805 18.0755 12.9108C18.0693 13.0411 18.0925 13.1711 18.1436 13.2911C18.1946 13.4111 18.2721 13.5181 18.3702 13.604ZM13.6322 18.398C13.4503 18.2272 13.2102 18.1321 12.9607 18.1321C12.7112 18.1321 12.4711 18.2272 12.2892 18.398L8.89422 21.746V19.097C8.89685 19.0043 8.88053 18.9121 8.84628 18.826C8.81203 18.7399 8.76057 18.6617 8.69504 18.5962C8.62951 18.5306 8.55129 18.4792 8.46518 18.4449C8.37906 18.4107 8.28686 18.3944 8.19423 18.397H7.70123C7.61541 18.388 7.52868 18.3967 7.44632 18.4224C7.36395 18.4481 7.28769 18.4903 7.22219 18.5464C7.15668 18.6026 7.1033 18.6715 7.06531 18.749C7.02732 18.8264 7.00552 18.9108 7.00122 18.997V24.248C6.99691 24.4262 7.04906 24.6012 7.15022 24.748C7.2847 24.8731 7.46057 24.9443 7.64422 24.948H7.98923L12.9232 24.995C13.1075 24.9907 13.2831 24.9155 13.4134 24.7852C13.5438 24.6548 13.6189 24.4793 13.6232 24.295V23.795C13.6057 23.5977 13.5127 23.4149 13.3636 23.2845C13.2146 23.1541 13.021 23.0862 12.8232 23.095H10.2472L13.6412 19.741C13.8046 19.5549 13.8939 19.3154 13.8923 19.0678C13.8906 18.8202 13.7981 18.5818 13.6322 18.398ZM18.3512 18.398C18.1845 18.5837 18.0923 18.8244 18.0923 19.074C18.0923 19.3235 18.1845 19.5643 18.3512 19.75L21.7462 23.098H19.1532C18.9558 23.0907 18.763 23.1591 18.6143 23.2892C18.4656 23.4193 18.3722 23.6013 18.3532 23.798V24.298C18.3558 24.4828 18.4304 24.6594 18.5611 24.7901C18.6918 24.9208 18.8684 24.9954 19.0532 24.998L23.9872 24.951H24.3322C24.5154 24.9448 24.6904 24.8739 24.8262 24.751C24.9287 24.6048 24.981 24.4294 24.9752 24.251V19.004C24.9717 18.9176 24.9503 18.8328 24.9126 18.755C24.8748 18.6772 24.8214 18.608 24.7558 18.5517C24.6901 18.4954 24.6135 18.4532 24.5309 18.4278C24.4482 18.4024 24.3612 18.3943 24.2752 18.404H23.7812C23.6886 18.4014 23.5964 18.4177 23.5103 18.4519C23.4242 18.4862 23.3459 18.5376 23.2804 18.6032C23.2149 18.6687 23.1634 18.7469 23.1292 18.833C23.0949 18.9191 23.0786 19.0113 23.0812 19.104V21.753L19.6812 18.407C19.5014 18.2383 19.2646 18.1436 19.018 18.142C18.7714 18.1403 18.5333 18.2317 18.3512 18.398ZM10.2932 8.90398H12.8862C13.0837 8.91126 13.2765 8.84286 13.4252 8.71275C13.5738 8.58264 13.6672 8.40065 13.6862 8.20398V7.70398C13.6834 7.51921 13.6087 7.3428 13.4781 7.21214C13.3474 7.08147 13.171 7.00681 12.9862 7.00398L8.04322 7.05098H7.70123C7.60805 7.04722 7.51516 7.06359 7.42887 7.09896C7.34259 7.13434 7.26495 7.18789 7.20123 7.25598C7.09695 7.39897 7.04441 7.57318 7.05223 7.74998V13.057C7.05223 13.457 7.35222 13.657 7.75222 13.657H8.24623C8.33886 13.6596 8.43106 13.6433 8.51718 13.609C8.60329 13.5748 8.6815 13.5233 8.74704 13.4578C8.81257 13.3923 8.86403 13.314 8.89828 13.2279C8.93253 13.1418 8.94885 13.0496 8.94622 12.957V10.257L12.3412 13.605C12.5231 13.7758 12.7632 13.8708 13.0127 13.8708C13.2622 13.8708 13.5023 13.7758 13.6842 13.605C13.8509 13.4193 13.9431 13.1785 13.9431 12.929C13.9431 12.6794 13.8509 12.4387 13.6842 12.253L10.2932 8.90398Z" fill="#B1BAD3"/>
</svg>
