<svg width="48" height="181" viewBox="0 0 48 181" fill="none" xmlns="http://www.w3.org/2000/svg">
<defs>
<filter id="filter0_d_1221_14019" x="0.00183105" y="0" width="48" height="181" filterUnits="userSpaceOnUse" color-interpolation-filters="sRGB">
<feFlood flood-opacity="0" result="BackgroundImageFix"/>
<feColorMatrix in="SourceAlpha" type="matrix" values="0 0 0 0 0 0 0 0 0 0 0 0 0 0 0 0 0 0 127 0" result="hardAlpha"/>
<feOffset dx="-4"/>
<feGaussianBlur stdDeviation="2"/>
<feComposite in2="hardAlpha" operator="out"/>
<feColorMatrix type="matrix" values="0 0 0 0 0 0 0 0 0 0 0 0 0 0 0 0 0 0 0.25 0"/>
<feBlend mode="normal" in2="BackgroundImageFix" result="effect1_dropShadow_1221_14019"/>
<feBlend mode="normal" in="SourceGraphic" in2="effect1_dropShadow_1221_14019" result="shape"/>
</filter>
<linearGradient id="paint0_linear_1221_14019" x1="8.00183" y1="84.4651" x2="48.0018" y2="84.4651" gradientUnits="userSpaceOnUse">
<stop stop-color="#40AFFF"/>
<stop offset="1" stop-color="#0057FF"/>
</linearGradient>
</defs>
<g filter="url(#filter0_d_1221_14019)">
<path d="M8.00183 24C8.00183 12.9543 16.9561 4 28.0018 4H48.0018V177H28.0018C16.9561 177 8.00183 168.046 8.00183 157V24Z" fill="url(#paint0_linear_1221_14019)"/>
</g>
<path d="M15.0058 141.576L15.0058 137.124C15.0058 136.102 15.2298 135.29 15.6918 134.702C16.1958 134.086 16.9238 133.764 17.8758 133.764C18.3938 133.764 18.8558 133.904 19.2618 134.184C19.7098 134.492 20.0038 134.926 20.1438 135.458L20.1718 135.458C20.3678 134.59 20.9418 134.1 21.9218 133.988L23.5318 133.82C24.1478 133.764 24.6378 133.554 25.0018 133.218L25.0018 134.996C24.6938 135.234 24.2598 135.374 23.6998 135.43L22.4678 135.556C21.9218 135.612 21.5298 135.78 21.2918 136.06C21.0398 136.354 20.9278 136.788 20.9278 137.348L20.9278 139.938L25.0018 139.938L25.0018 141.576L15.0058 141.576ZM16.4058 139.938L19.5278 139.938L19.5278 137.348C19.5278 136.704 19.3878 136.214 19.1218 135.878C18.8418 135.57 18.4498 135.416 17.9458 135.416C17.3998 135.416 17.0078 135.57 16.7698 135.878C16.5178 136.186 16.4058 136.676 16.4058 137.348L16.4058 139.938ZM15.0058 131.814L15.0058 124.604L16.4058 124.604L16.4058 130.176L19.1778 130.176L19.1778 124.94L20.5778 124.94L20.5778 130.176L23.6018 130.176L23.6018 124.366L25.0018 124.366L25.0018 131.814L15.0058 131.814ZM14.8098 118.492C14.8098 117.204 15.0898 116.196 15.6638 115.454C16.2238 114.74 17.0498 114.292 18.1698 114.11L18.1698 115.762C17.5258 115.902 17.0498 116.21 16.7278 116.658C16.4058 117.12 16.2518 117.736 16.2518 118.492C16.2518 119.43 16.5598 120.172 17.2038 120.718C17.8758 121.32 18.8138 121.614 20.0458 121.614C21.2218 121.614 22.1318 121.348 22.7618 120.816C23.4338 120.242 23.7698 119.346 23.7698 118.128C23.7698 117.652 23.7138 117.204 23.6018 116.784C23.4898 116.392 23.3358 116.042 23.1398 115.706L21.0818 115.706L21.0818 118.352L19.6818 118.352L19.6818 114.068L23.9098 114.068C24.3298 114.6 24.6378 115.202 24.8618 115.888C25.0858 116.616 25.1978 117.414 25.1978 118.31C25.1978 119.906 24.6938 121.138 23.6858 122.02C22.7478 122.846 21.5298 123.252 20.0458 123.252C18.5478 123.252 17.3158 122.846 16.3498 122.02C15.3138 121.152 14.8098 119.976 14.8098 118.492ZM15.0058 112.249L15.0058 110.611L25.0018 110.611L25.0018 112.249L15.0058 112.249ZM14.8098 105.126C14.8098 103.95 15.0478 103.026 15.5378 102.368C16.0558 101.668 16.8678 101.262 17.9598 101.164L17.9598 102.788C17.3438 102.928 16.8958 103.194 16.6298 103.558C16.3498 103.922 16.2238 104.482 16.2238 105.21C16.2238 105.84 16.3078 106.316 16.4898 106.652C16.6998 107.072 17.0498 107.268 17.5258 107.268C17.9458 107.268 18.2958 107.044 18.5478 106.568C18.6598 106.358 18.8698 105.784 19.1638 104.86C19.5838 103.502 19.9198 102.634 20.1438 102.242C20.6618 101.374 21.3758 100.94 22.2998 100.94C23.1958 100.94 23.9098 101.29 24.4278 101.99C24.9318 102.69 25.1978 103.684 25.1978 104.958C25.1978 106.19 24.9598 107.156 24.4838 107.842C23.8958 108.682 22.9718 109.144 21.6978 109.214L21.6978 107.59C22.4538 107.478 22.9998 107.212 23.3218 106.778C23.6018 106.386 23.7558 105.784 23.7558 104.958C23.7558 104.23 23.6298 103.642 23.3918 103.222C23.1398 102.802 22.8178 102.578 22.3978 102.578C21.8658 102.578 21.4458 102.9 21.1378 103.516C21.0398 103.712 20.8158 104.356 20.4798 105.462C20.0878 106.694 19.8078 107.464 19.6398 107.758C19.1778 108.528 18.5058 108.906 17.6238 108.906C16.7418 108.906 16.0418 108.542 15.5378 107.786C15.0478 107.086 14.8098 106.204 14.8098 105.126ZM15.0058 100.305L15.0058 92.1146L16.4058 92.1146L16.4058 95.3906L25.0018 95.3906L25.0018 97.0286L16.4058 97.0286L16.4058 100.305L15.0058 100.305ZM15.0058 90.9214L15.0058 86.4694C15.0058 85.4474 15.2298 84.6354 15.6918 84.0474C16.1958 83.4314 16.9238 83.1094 17.8758 83.1094C18.3938 83.1094 18.8558 83.2494 19.2618 83.5294C19.7098 83.8374 20.0038 84.2714 20.1438 84.8034L20.1718 84.8034C20.3678 83.9354 20.9418 83.4454 21.9218 83.3334L23.5318 83.1654C24.1478 83.1094 24.6378 82.8994 25.0018 82.5634L25.0018 84.3414C24.6938 84.5794 24.2598 84.7194 23.6998 84.7754L22.4678 84.9014C21.9218 84.9574 21.5298 85.1254 21.2918 85.4054C21.0398 85.6994 20.9278 86.1334 20.9278 86.6934L20.9278 89.2834L25.0018 89.2834L25.0018 90.9214L15.0058 90.9214ZM16.4058 89.2834L19.5278 89.2834L19.5278 86.6934C19.5278 86.0494 19.3878 85.5594 19.1218 85.2234C18.8418 84.9154 18.4498 84.7614 17.9458 84.7614C17.3998 84.7614 17.0078 84.9154 16.7698 85.2234C16.5178 85.5314 16.4058 86.0214 16.4058 86.6934L16.4058 89.2834ZM14.8098 76.7216C14.8098 75.1956 15.2998 73.9916 16.2938 73.1096C17.2318 72.2696 18.4778 71.8496 20.0178 71.8496C21.5578 71.8496 22.7898 72.2696 23.7278 73.1096C24.7078 73.9916 25.1978 75.1956 25.1978 76.7216C25.1978 78.2616 24.6938 79.4656 23.7138 80.3336C22.7618 81.1736 21.5298 81.5796 20.0178 81.5796C18.4918 81.5796 17.2598 81.1736 16.3078 80.3336C15.2998 79.4656 14.8098 78.2616 14.8098 76.7216ZM16.2518 76.7216C16.2518 77.7576 16.6018 78.5556 17.3018 79.1296C17.9738 79.6756 18.8698 79.9416 20.0178 79.9416C21.1518 79.9416 22.0478 79.6756 22.7198 79.1296C23.4058 78.5696 23.7558 77.7576 23.7558 76.7216C23.7558 75.6856 23.4198 74.8876 22.7618 74.3276C22.1038 73.7816 21.1938 73.5016 20.0178 73.5016C18.8418 73.5016 17.9178 73.7816 17.2458 74.3276C16.5738 74.8876 16.2518 75.6856 16.2518 76.7216ZM14.8098 66.7762C14.8098 65.6002 15.0478 64.6762 15.5378 64.0182C16.0558 63.3182 16.8678 62.9122 17.9598 62.8142L17.9598 64.4382C17.3438 64.5782 16.8958 64.8442 16.6298 65.2082C16.3498 65.5722 16.2238 66.1322 16.2238 66.8602C16.2238 67.4902 16.3078 67.9662 16.4898 68.3022C16.6998 68.7222 17.0498 68.9182 17.5258 68.9182C17.9458 68.9182 18.2958 68.6942 18.5478 68.2182C18.6598 68.0082 18.8698 67.4342 19.1638 66.5102C19.5838 65.1522 19.9198 64.2842 20.1438 63.8922C20.6618 63.0242 21.3758 62.5902 22.2998 62.5902C23.1958 62.5902 23.9098 62.9402 24.4278 63.6402C24.9318 64.3402 25.1978 65.3342 25.1978 66.6082C25.1978 67.8402 24.9598 68.8062 24.4838 69.4922C23.8958 70.3322 22.9718 70.7942 21.6978 70.8642L21.6978 69.2402C22.4538 69.1282 22.9998 68.8622 23.3218 68.4282C23.6018 68.0362 23.7558 67.4342 23.7558 66.6082C23.7558 65.8802 23.6298 65.2922 23.3918 64.8722C23.1398 64.4522 22.8178 64.2282 22.3978 64.2282C21.8658 64.2282 21.4458 64.5502 21.1378 65.1662C21.0398 65.3622 20.8158 66.0062 20.4798 67.1122C20.0878 68.3442 19.8078 69.1142 19.6398 69.4082C19.1778 70.1782 18.5058 70.5562 17.6238 70.5562C16.7418 70.5562 16.0418 70.1922 15.5378 69.4362C15.0478 68.7362 14.8098 67.8542 14.8098 66.7762ZM15.0058 56.5229L15.0058 52.8689C15.0058 51.2449 15.4538 50.0269 16.3498 49.1869C17.1898 48.3889 18.4078 47.9829 20.0038 47.9829C21.5858 47.9829 22.8038 48.3889 23.6578 49.1869C24.5538 50.0269 25.0018 51.2449 25.0018 52.8689L25.0018 56.5229L15.0058 56.5229ZM16.4058 54.8849L23.6018 54.8849L23.6018 53.1769C23.6018 51.9309 23.3078 51.0209 22.7338 50.4469C22.1458 49.8869 21.2358 49.6069 20.0038 49.6069C18.7438 49.6069 17.8198 49.8869 17.2598 50.4469C16.6858 51.0209 16.4058 51.9309 16.4058 53.1769L16.4058 54.8849ZM15.0058 46.4468L15.0058 39.2368L16.4058 39.2368L16.4058 44.8088L19.1778 44.8088L19.1778 39.5728L20.5778 39.5728L20.5778 44.8088L23.6018 44.8088L23.6018 38.9988L25.0018 38.9988L25.0018 46.4468L15.0058 46.4468ZM31.0058 162.371L31.0058 160.593L39.1538 157.849L39.1538 157.807L31.0058 155.063L31.0058 153.285L41.0018 156.841L41.0018 158.815L31.0058 162.371ZM31.0058 152.233L31.0058 150.595L41.0018 150.595L41.0018 152.233L31.0058 152.233ZM31.0058 149.407L31.0058 141.217L32.4058 141.217L32.4058 144.493L41.0018 144.493L41.0018 146.131L32.4058 146.131L32.4058 149.407L31.0058 149.407ZM28.3878 135.236L28.3878 133.486L30.4318 135.502L30.4318 136.538L28.3878 135.236ZM30.8098 135.586C30.8098 134.06 31.2998 132.856 32.2938 131.974C33.2318 131.134 34.4778 130.714 36.0178 130.714C37.5578 130.714 38.7898 131.134 39.7278 131.974C40.7078 132.856 41.1978 134.06 41.1978 135.586C41.1978 137.126 40.6938 138.33 39.7138 139.198C38.7618 140.038 37.5298 140.444 36.0178 140.444C34.4918 140.444 33.2598 140.038 32.3078 139.198C31.2998 138.33 30.8098 137.126 30.8098 135.586ZM32.2518 135.586C32.2518 136.622 32.6018 137.42 33.3018 137.994C33.9738 138.54 34.8698 138.806 36.0178 138.806C37.1518 138.806 38.0478 138.54 38.7198 137.994C39.4058 137.434 39.7558 136.622 39.7558 135.586C39.7558 134.55 39.4198 133.752 38.7618 133.192C38.1038 132.646 37.1938 132.366 36.0178 132.366C34.8418 132.366 33.9178 132.646 33.2458 133.192C32.5738 133.752 32.2518 134.55 32.2518 135.586ZM31.0058 129.168L31.0058 124.716C31.0058 123.694 31.2298 122.882 31.6918 122.294C32.1958 121.678 32.9238 121.356 33.8758 121.356C34.3938 121.356 34.8558 121.496 35.2618 121.776C35.7098 122.084 36.0038 122.518 36.1438 123.05L36.1718 123.05C36.3678 122.182 36.9418 121.692 37.9218 121.58L39.5318 121.412C40.1478 121.356 40.6378 121.146 41.0018 120.81L41.0018 122.588C40.6938 122.826 40.2598 122.966 39.6998 123.022L38.4678 123.148C37.9218 123.204 37.5298 123.372 37.2918 123.652C37.0398 123.946 36.9278 124.38 36.9278 124.94L36.9278 127.53L41.0018 127.53L41.0018 129.168L31.0058 129.168ZM32.4058 127.53L35.5278 127.53L35.5278 124.94C35.5278 124.296 35.3878 123.806 35.1218 123.47C34.8418 123.162 34.4498 123.008 33.9458 123.008C33.3998 123.008 33.0078 123.162 32.7698 123.47C32.5178 123.778 32.4058 124.268 32.4058 124.94L32.4058 127.53ZM31.0058 119.407L31.0058 117.769L41.0018 117.769L41.0018 119.407L31.0058 119.407ZM31.0058 112.969L31.0058 111.107L41.0018 107.285L41.0018 109.035L38.4958 109.945L38.4958 114.131L41.0018 115.041L41.0018 116.791L31.0058 112.969ZM37.1518 113.641L37.1518 110.435L32.7698 112.003L32.7698 112.059L37.1518 113.641ZM30.8098 102.781C30.8098 101.605 31.0478 100.681 31.5378 100.023C32.0558 99.3231 32.8678 98.9171 33.9598 98.8191L33.9598 100.443C33.3438 100.583 32.8958 100.849 32.6298 101.213C32.3498 101.577 32.2238 102.137 32.2238 102.865C32.2238 103.495 32.3078 103.971 32.4898 104.307C32.6998 104.727 33.0498 104.923 33.5258 104.923C33.9458 104.923 34.2958 104.699 34.5478 104.223C34.6598 104.013 34.8698 103.439 35.1638 102.515C35.5838 101.157 35.9198 100.289 36.1438 99.8971C36.6618 99.0291 37.3758 98.5951 38.2998 98.5951C39.1958 98.5951 39.9098 98.9451 40.4278 99.6451C40.9318 100.345 41.1978 101.339 41.1978 102.613C41.1978 103.845 40.9598 104.811 40.4838 105.497C39.8958 106.337 38.9718 106.799 37.6978 106.869L37.6978 105.245C38.4538 105.133 38.9998 104.867 39.3218 104.433C39.6018 104.041 39.7558 103.439 39.7558 102.613C39.7558 101.885 39.6298 101.297 39.3918 100.877C39.1398 100.457 38.8178 100.233 38.3978 100.233C37.8658 100.233 37.4458 100.555 37.1378 101.171C37.0398 101.367 36.8158 102.011 36.4798 103.117C36.0878 104.349 35.8078 105.119 35.6398 105.413C35.1778 106.183 34.5058 106.561 33.6238 106.561C32.7418 106.561 32.0418 106.197 31.5378 105.441C31.0478 104.741 30.8098 103.859 30.8098 102.781ZM31.0058 92.5278L31.0058 88.0758C31.0058 87.0538 31.2298 86.2418 31.6918 85.6538C32.1958 85.0378 32.9238 84.7158 33.8758 84.7158C34.3938 84.7158 34.8558 84.8558 35.2618 85.1358C35.7098 85.4438 36.0038 85.8778 36.1438 86.4098L36.1718 86.4098C36.3678 85.5418 36.9418 85.0518 37.9218 84.9398L39.5318 84.7718C40.1478 84.7158 40.6378 84.5058 41.0018 84.1698L41.0018 85.9478C40.6938 86.1858 40.2598 86.3258 39.6998 86.3818L38.4678 86.5078C37.9218 86.5638 37.5298 86.7318 37.2918 87.0118C37.0398 87.3058 36.9278 87.7398 36.9278 88.2998L36.9278 90.8898L41.0018 90.8898L41.0018 92.5278L31.0058 92.5278ZM32.4058 90.8898L35.5278 90.8898L35.5278 88.2998C35.5278 87.6558 35.3878 87.1658 35.1218 86.8298C34.8418 86.5218 34.4498 86.3678 33.9458 86.3678C33.3998 86.3678 33.0078 86.5218 32.7698 86.8298C32.5178 87.1378 32.4058 87.6278 32.4058 88.2998L32.4058 90.8898ZM31.0058 82.7661L31.0058 75.5561L32.4058 75.5561L32.4058 81.1281L35.1778 81.1281L35.1778 75.8921L36.5778 75.8921L36.5778 81.1281L39.6018 81.1281L39.6018 75.3181L41.0018 75.3181L41.0018 82.7661L31.0058 82.7661ZM30.8098 69.4437C30.8098 68.2677 31.1178 67.2877 31.7338 66.5317C32.3218 65.8037 33.1338 65.3697 34.1418 65.2157L34.1418 66.8117C33.4838 66.9797 33.0078 67.2877 32.6998 67.7497C32.3918 68.1977 32.2518 68.7717 32.2518 69.4717C32.2518 70.5217 32.6018 71.3057 33.3298 71.8377C33.9738 72.3277 34.8698 72.5657 36.0178 72.5657C37.1938 72.5657 38.1038 72.3277 38.7338 71.8517C39.4058 71.3337 39.7558 70.5217 39.7558 69.4297C39.7558 68.7157 39.5738 68.1277 39.2378 67.6797C38.8598 67.2037 38.2858 66.8677 37.5298 66.6717L37.5298 65.0757C38.7058 65.2997 39.6158 65.8177 40.2738 66.6437C40.8898 67.4137 41.1978 68.3377 41.1978 69.4157C41.1978 71.0817 40.6658 72.3277 39.6298 73.1397C38.7338 73.8537 37.5298 74.2037 36.0178 74.2037C34.5338 74.2037 33.3158 73.8397 32.3918 73.0977C31.3278 72.2577 30.8098 71.0397 30.8098 69.4437ZM31.0058 63.5298L31.0058 56.3198L32.4058 56.3198L32.4058 61.8918L35.1778 61.8918L35.1778 56.6558L36.5778 56.6558L36.5778 61.8918L39.6018 61.8918L39.6018 56.0818L41.0018 56.0818L41.0018 63.5298L31.0058 63.5298ZM31.0058 54.5473L31.0058 52.9093L38.2158 47.9673L38.2158 47.9113L31.0058 47.9113L31.0058 46.2593L41.0018 46.2593L41.0018 47.8553L33.6938 52.8533L33.6938 52.9093L41.0018 52.9093L41.0018 54.5473L31.0058 54.5473ZM31.0058 45.0634L31.0058 36.8734L32.4058 36.8734L32.4058 40.1494L41.0018 40.1494L41.0018 41.7874L32.4058 41.7874L32.4058 45.0634L31.0058 45.0634ZM31.0058 35.6802L31.0058 28.4702L32.4058 28.4702L32.4058 34.0422L35.1778 34.0422L35.1778 28.8062L36.5778 28.8062L36.5778 34.0422L39.6018 34.0422L39.6018 28.2322L41.0018 28.2322L41.0018 35.6802L31.0058 35.6802ZM30.8098 23.1697C30.8098 21.9937 31.0478 21.0697 31.5378 20.4117C32.0558 19.7117 32.8678 19.3057 33.9598 19.2077L33.9598 20.8317C33.3438 20.9717 32.8958 21.2377 32.6298 21.6017C32.3498 21.9657 32.2238 22.5257 32.2238 23.2537C32.2238 23.8837 32.3078 24.3597 32.4898 24.6957C32.6998 25.1157 33.0498 25.3117 33.5258 25.3117C33.9458 25.3117 34.2958 25.0877 34.5478 24.6117C34.6598 24.4017 34.8698 23.8277 35.1638 22.9037C35.5838 21.5457 35.9198 20.6777 36.1438 20.2857C36.6618 19.4177 37.3758 18.9837 38.2998 18.9837C39.1958 18.9837 39.9098 19.3337 40.4278 20.0337C40.9318 20.7337 41.1978 21.7277 41.1978 23.0017C41.1978 24.2337 40.9598 25.1997 40.4838 25.8857C39.8958 26.7257 38.9718 27.1877 37.6978 27.2577L37.6978 25.6337C38.4538 25.5217 38.9998 25.2557 39.3218 24.8217C39.6018 24.4297 39.7558 23.8277 39.7558 23.0017C39.7558 22.2737 39.6298 21.6857 39.3918 21.2657C39.1398 20.8457 38.8178 20.6217 38.3978 20.6217C37.8658 20.6217 37.4458 20.9437 37.1378 21.5597C37.0398 21.7557 36.8158 22.3997 36.4798 23.5057C36.0878 24.7377 35.8078 25.5077 35.6398 25.8017C35.1778 26.5717 34.5058 26.9497 33.6238 26.9497C32.7418 26.9497 32.0418 26.5857 31.5378 25.8297C31.0478 25.1297 30.8098 24.2477 30.8098 23.1697Z" fill="white"/>
</svg>
