<svg width="48" height="181" viewBox="0 0 48 181" fill="none" xmlns="http://www.w3.org/2000/svg">
<defs>
<filter id="filter0_d_1221_14016" x="0.00183105" y="0" width="48" height="181" filterUnits="userSpaceOnUse" color-interpolation-filters="sRGB">
<feFlood flood-opacity="0" result="BackgroundImageFix"/>
<feColorMatrix in="SourceAlpha" type="matrix" values="0 0 0 0 0 0 0 0 0 0 0 0 0 0 0 0 0 0 127 0" result="hardAlpha"/>
<feOffset dx="-4"/>
<feGaussianBlur stdDeviation="2"/>
<feComposite in2="hardAlpha" operator="out"/>
<feColorMatrix type="matrix" values="0 0 0 0 0 0 0 0 0 0 0 0 0 0 0 0 0 0 0.25 0"/>
<feBlend mode="normal" in2="BackgroundImageFix" result="effect1_dropShadow_1221_14016"/>
<feBlend mode="normal" in="SourceGraphic" in2="effect1_dropShadow_1221_14016" result="shape"/>
</filter>
<linearGradient id="paint0_linear_1221_14016" x1="8.00183" y1="84.4651" x2="48.0018" y2="84.4651" gradientUnits="userSpaceOnUse">
<stop stop-color="#40AFFF"/>
<stop offset="1" stop-color="#0057FF"/>
</linearGradient>
</defs>
<g filter="url(#filter0_d_1221_14016)">
<path d="M8.00183 24C8.00183 12.9543 16.9561 4 28.0018 4H48.0018V177H28.0018C16.9561 177 8.00183 168.046 8.00183 157V24Z" fill="url(#paint0_linear_1221_14016)"/>
</g>
<path d="M15.0058 133.84L19.7238 138.488L15.0058 138.488L15.0058 140.126L25.0018 140.126L25.0018 138.488L21.5578 138.488L20.3678 137.27L25.0018 133.322L25.0018 131.11L19.2898 136.164L15.0058 131.768L15.0058 133.84ZM15.0058 131.042L21.0258 127.094L25.0018 127.094L25.0018 125.456L21.0258 125.456L15.0058 121.508L15.0058 123.482L19.4998 126.268L15.0058 129.068L15.0058 131.042ZM11.6558 126.398C11.6558 126.832 11.7258 127.252 11.8798 127.672L12.5938 127.672C12.3978 127.266 12.2998 126.874 12.2998 126.496C12.2998 125.964 12.4398 125.698 12.7338 125.698C13.0138 125.698 13.3358 126.034 13.6858 126.692L14.1198 126.272C13.7558 125.348 13.2938 124.886 12.7198 124.886C12.0058 124.886 11.6558 125.39 11.6558 126.398ZM15.0058 115.791L25.0018 115.791L25.0018 108.763L23.6018 108.763L23.6018 114.167L15.0058 114.167L15.0058 115.791ZM15.0058 107.505L21.2078 107.505C22.5098 107.505 23.5038 107.141 24.2038 106.399C24.8618 105.699 25.1978 104.677 25.1978 103.347C25.1978 102.031 24.8618 101.009 24.1898 100.281C23.5038 99.5534 22.5098 99.1894 21.2078 99.1894L15.0058 99.1894L15.0058 100.827L21.2358 100.827C22.1038 100.827 22.7338 101.037 23.1538 101.429C23.5598 101.835 23.7698 102.479 23.7698 103.347C23.7698 104.229 23.5598 104.873 23.1538 105.265C22.7338 105.671 22.1038 105.867 21.2358 105.867L15.0058 105.867L15.0058 107.505ZM25.8838 103.345C25.8838 103.569 25.9538 103.751 26.1078 103.891C26.2478 104.045 26.4298 104.115 26.6538 104.115C26.8638 104.115 27.0458 104.045 27.1998 103.891C27.3398 103.751 27.4238 103.569 27.4238 103.345C27.4238 103.135 27.3398 102.953 27.1998 102.799C27.0458 102.659 26.8638 102.575 26.6538 102.575C26.4298 102.575 26.2478 102.659 26.1078 102.799C25.9538 102.953 25.8838 103.135 25.8838 103.345ZM14.8098 92.8841C14.8098 94.4801 15.3278 95.6981 16.3918 96.5381C17.3158 97.2801 18.5338 97.6441 20.0178 97.6441C21.5298 97.6441 22.7338 97.2941 23.6298 96.5801C24.6658 95.7681 25.1978 94.5221 25.1978 92.8561C25.1978 91.7781 24.8898 90.8541 24.2738 90.0841C23.6158 89.2581 22.7058 88.7401 21.5298 88.5161L21.5298 90.1121C22.2858 90.3081 22.8598 90.6441 23.2378 91.1201C23.5738 91.5681 23.7558 92.1561 23.7558 92.8701C23.7558 93.9621 23.4058 94.7741 22.7338 95.2921C22.1038 95.7681 21.1938 96.0061 20.0178 96.0061C18.8698 96.0061 17.9738 95.7681 17.3298 95.2781C16.6018 94.7461 16.2518 93.9621 16.2518 92.9121C16.2518 92.2121 16.3918 91.6381 16.6998 91.1901C17.0078 90.7281 17.4838 90.4201 18.1418 90.2521L18.1418 88.6561C17.1338 88.8101 16.3218 89.2441 15.7338 89.9721C15.1178 90.7281 14.8098 91.7081 14.8098 92.8841ZM14.8098 77.9681C14.8098 79.5641 15.3278 80.7821 16.3918 81.6221C17.3158 82.3641 18.5338 82.7281 20.0178 82.7281C21.5298 82.7281 22.7338 82.3781 23.6298 81.6641C24.6658 80.8521 25.1978 79.6061 25.1978 77.9401C25.1978 76.8621 24.8898 75.9381 24.2738 75.1681C23.6158 74.3421 22.7058 73.8241 21.5298 73.6001L21.5298 75.1961C22.2858 75.3921 22.8598 75.7281 23.2378 76.2041C23.5738 76.6521 23.7558 77.2401 23.7558 77.9541C23.7558 79.0461 23.4058 79.8581 22.7338 80.3761C22.1038 80.8521 21.1938 81.0901 20.0178 81.0901C18.8698 81.0901 17.9738 80.8521 17.3298 80.3621C16.6018 79.8301 16.2518 79.0461 16.2518 77.9961C16.2518 77.2961 16.3918 76.7221 16.6998 76.2741C17.0078 75.8121 17.4838 75.5041 18.1418 75.3361L18.1418 73.7401C17.1338 73.8941 16.3218 74.3281 15.7338 75.0561C15.1178 75.8121 14.8098 76.7921 14.8098 77.9681ZM15.0058 72.0542L25.0018 72.0542L25.0018 70.4162L20.5778 70.4162L20.5778 65.3482L25.0018 65.3482L25.0018 63.7102L15.0058 63.7102L15.0058 65.3482L19.1778 65.3482L19.1778 70.4162L15.0058 70.4162L15.0058 72.0542ZM15.0058 61.7456L25.0018 61.7456L25.0018 60.1076L15.0058 60.1076L15.0058 61.7456ZM15.0058 58.1499L25.0018 58.1499L25.0018 50.7019L23.6018 50.7019L23.6018 56.5119L20.5778 56.5119L20.5778 51.2759L19.1778 51.2759L19.1778 56.5119L16.4058 56.5119L16.4058 50.9399L15.0058 50.9399L15.0058 58.1499ZM11.6738 51.8779L13.2138 53.0819L13.3818 52.3679L11.6738 50.3659L11.6738 51.8779ZM12.7098 55.3359L14.2778 56.7639L14.2778 55.7699L13.3118 54.6219L14.2778 53.4879L14.2778 52.4939L12.7098 53.9219L12.7098 55.3359ZM15.0058 49.1675L25.0018 49.1675L25.0018 47.5295L17.6938 47.5295L17.6938 47.4735L25.0018 42.4755L25.0018 40.8795L15.0058 40.8795L15.0058 42.5315L22.2158 42.5315L22.2158 42.5875L15.0058 47.5295L15.0058 49.1675ZM31.0058 149.523L32.4058 149.523L32.4058 146.247L41.0018 146.247L41.0018 144.609L32.4058 144.609L32.4058 141.333L31.0058 141.333L31.0058 149.523ZM31.0058 140.14L41.0018 140.14L41.0018 138.502L36.5778 138.502L36.5778 133.434L41.0018 133.434L41.0018 131.796L31.0058 131.796L31.0058 133.434L35.1778 133.434L35.1778 138.502L31.0058 138.502L31.0058 140.14ZM28.4858 128.222C29.7038 128.054 30.3198 127.326 30.3198 126.052C30.3198 124.792 29.7038 124.064 28.4858 123.882L28.4858 124.694C29.1158 124.848 29.4378 125.296 29.4378 126.052C29.4378 126.808 29.1158 127.27 28.4858 127.41L28.4858 128.222ZM31.0058 126.99L41.0018 130.812L41.0018 129.062L38.4958 128.152L38.4958 123.966L41.0018 123.056L41.0018 121.306L31.0058 125.128L31.0058 126.99ZM37.1518 127.662L32.7698 126.08L32.7698 126.024L37.1518 124.456L37.1518 127.662ZM25.8938 126.291L27.9378 127.593L27.9378 126.557L25.8938 124.541L25.8938 126.291ZM31.0058 120.33L41.0018 120.33L41.0018 118.692L33.6938 118.692L33.6938 118.636L41.0018 113.638L41.0018 112.042L31.0058 112.042L31.0058 113.694L38.2158 113.694L38.2158 113.75L31.0058 118.692L31.0058 120.33ZM30.8098 105.736C30.8098 107.22 31.3138 108.396 32.3498 109.264C33.3158 110.09 34.5478 110.496 36.0458 110.496C37.5298 110.496 38.7478 110.09 39.6858 109.264C40.6938 108.382 41.1978 107.15 41.1978 105.554C41.1978 104.658 41.0858 103.86 40.8618 103.132C40.6378 102.446 40.3298 101.844 39.9098 101.312L35.6818 101.312L35.6818 105.596L37.0818 105.596L37.0818 102.95L39.1398 102.95C39.3358 103.286 39.4898 103.636 39.6018 104.028C39.7138 104.448 39.7698 104.896 39.7698 105.372C39.7698 106.59 39.4338 107.486 38.7618 108.06C38.1318 108.592 37.2218 108.858 36.0458 108.858C34.8138 108.858 33.8758 108.564 33.2038 107.962C32.5598 107.416 32.2518 106.674 32.2518 105.736C32.2518 104.98 32.4058 104.364 32.7278 103.902C33.0498 103.454 33.5258 103.146 34.1698 103.006L34.1698 101.354C33.0498 101.536 32.2238 101.984 31.6638 102.698C31.0898 103.44 30.8098 104.448 30.8098 105.736ZM30.8098 90.4915C30.8098 91.9755 31.3138 93.1515 32.3498 94.0195C33.3158 94.8455 34.5478 95.2515 36.0458 95.2515C37.5298 95.2515 38.7478 94.8455 39.6858 94.0195C40.6938 93.1375 41.1978 91.9055 41.1978 90.3095C41.1978 89.4135 41.0858 88.6155 40.8618 87.8875C40.6378 87.2015 40.3298 86.5995 39.9098 86.0675L35.6818 86.0675L35.6818 90.3515L37.0818 90.3515L37.0818 87.7055L39.1398 87.7055C39.3358 88.0415 39.4898 88.3915 39.6018 88.7835C39.7138 89.2035 39.7698 89.6515 39.7698 90.1275C39.7698 91.3455 39.4338 92.2415 38.7618 92.8155C38.1318 93.3475 37.2218 93.6135 36.0458 93.6135C34.8138 93.6135 33.8758 93.3195 33.2038 92.7175C32.5598 92.1715 32.2518 91.4295 32.2518 90.4915C32.2518 89.7355 32.4058 89.1195 32.7278 88.6575C33.0498 88.2095 33.5258 87.9015 34.1698 87.7615L34.1698 86.1095C33.0498 86.2915 32.2238 86.7395 31.6638 87.4535C31.0898 88.1955 30.8098 89.2035 30.8098 90.4915ZM28.4998 81.1835L30.2778 82.6115L30.2778 81.6175L29.1718 80.4695L30.2778 79.3355L30.2778 78.3415L28.4998 79.7695L28.4998 81.1835ZM31.0058 81.4075L41.0018 85.2295L41.0018 83.4795L38.4958 82.5695L38.4958 78.3835L41.0018 77.4735L41.0018 75.7235L31.0058 79.5455L31.0058 81.4075ZM37.1518 82.0795L32.7698 80.4975L32.7698 80.4415L37.1518 78.8735L37.1518 82.0795ZM25.8938 82.0114L27.9378 79.9954L27.9378 78.9594L25.8938 80.2614L25.8938 82.0114ZM31.0058 74.7475L41.0018 74.7475L41.0018 73.1095L33.6938 73.1095L33.6938 73.0535L41.0018 68.0555L41.0018 66.4595L31.0058 66.4595L31.0058 68.1115L38.2158 68.1115L38.2158 68.1675L31.0058 73.1095L31.0058 74.7475ZM31.0058 56.4155C31.0058 55.3702 31.1925 54.4649 31.5658 53.6995C31.9392 52.9249 32.4898 52.3275 33.2178 51.9075C33.9365 51.4782 34.8325 51.2635 35.9058 51.2635C37.0258 51.2635 37.9638 51.4782 38.7198 51.9075C39.4758 52.3369 40.0452 52.9622 40.4278 53.7835C40.8105 54.5955 41.0018 55.5755 41.0018 56.7235L41.0018 59.5515L36.9278 59.5515L36.9278 60.4895L35.1918 60.4895L35.1918 59.5515L31.0058 59.5515L31.0058 56.4155ZM32.7418 56.3175L32.7418 57.4375L35.1918 57.4375L35.1918 55.8135L36.9278 55.8135L36.9278 57.4375L39.2518 57.4375L39.2518 56.5415C39.2518 55.5149 38.9765 54.7449 38.4258 54.2315C37.8752 53.7182 37.0538 53.4615 35.9618 53.4615C35.2245 53.4615 34.6178 53.5735 34.1418 53.7975C33.6658 54.0215 33.3158 54.3482 33.0918 54.7775C32.8585 55.1975 32.7418 55.7109 32.7418 56.3175ZM28.4998 46.4022L30.2778 47.8302L30.2778 46.8362L29.1718 45.6882L30.2778 44.5542L30.2778 43.5602L28.4998 44.9882L28.4998 46.4022ZM31.0058 46.6262L41.0018 50.4482L41.0018 48.6982L38.4958 47.7882L38.4958 43.6022L41.0018 42.6922L41.0018 40.9422L31.0058 44.7642L31.0058 46.6262ZM37.1518 47.2982L32.7698 45.7162L32.7698 45.6602L37.1518 44.0922L37.1518 47.2982ZM31.0058 40.8763L37.0258 36.9283L41.0018 36.9283L41.0018 35.2903L37.0258 35.2903L31.0058 31.3423L31.0058 33.3163L35.4998 36.1023L31.0058 38.9023L31.0058 40.8763Z" fill="white"/>
</svg>
