<svg width="48" height="181" viewBox="0 0 48 181" fill="none" xmlns="http://www.w3.org/2000/svg">
<defs>
<filter id="filter0_d_1221_14022" x="0.00183105" y="0" width="48" height="181" filterUnits="userSpaceOnUse" color-interpolation-filters="sRGB">
<feFlood flood-opacity="0" result="BackgroundImageFix"/>
<feColorMatrix in="SourceAlpha" type="matrix" values="0 0 0 0 0 0 0 0 0 0 0 0 0 0 0 0 0 0 127 0" result="hardAlpha"/>
<feOffset dx="-4"/>
<feGaussianBlur stdDeviation="2"/>
<feComposite in2="hardAlpha" operator="out"/>
<feColorMatrix type="matrix" values="0 0 0 0 0 0 0 0 0 0 0 0 0 0 0 0 0 0 0.25 0"/>
<feBlend mode="normal" in2="BackgroundImageFix" result="effect1_dropShadow_1221_14022"/>
<feBlend mode="normal" in="SourceGraphic" in2="effect1_dropShadow_1221_14022" result="shape"/>
</filter>
<linearGradient id="paint0_linear_1221_14022" x1="8.00183" y1="84.4651" x2="48.0018" y2="84.4651" gradientUnits="userSpaceOnUse">
<stop stop-color="#40AFFF"/>
<stop offset="1" stop-color="#0057FF"/>
</linearGradient>
</defs>
<g filter="url(#filter0_d_1221_14022)">
<path d="M8.00183 24C8.00183 12.9543 16.9561 4 28.0018 4H48.0018V177H28.0018C16.9561 177 8.00183 168.046 8.00183 157V24Z" fill="url(#paint0_linear_1221_14022)"/>
</g>
<path d="M14.8098 137.412C14.8098 136.236 15.0478 135.312 15.5378 134.654C16.0558 133.954 16.8678 133.548 17.9598 133.45L17.9598 135.074C17.3438 135.214 16.8958 135.48 16.6298 135.844C16.3498 136.208 16.2238 136.768 16.2238 137.496C16.2238 138.126 16.3078 138.602 16.4898 138.938C16.6998 139.358 17.0498 139.554 17.5258 139.554C17.9458 139.554 18.2958 139.33 18.5478 138.854C18.6598 138.644 18.8698 138.07 19.1638 137.146C19.5838 135.788 19.9198 134.92 20.1438 134.528C20.6618 133.66 21.3758 133.226 22.2998 133.226C23.1958 133.226 23.9098 133.576 24.4278 134.276C24.9318 134.976 25.1978 135.97 25.1978 137.244C25.1978 138.476 24.9598 139.442 24.4838 140.128C23.8958 140.968 22.9718 141.43 21.6978 141.5L21.6978 139.876C22.4538 139.764 22.9998 139.498 23.3218 139.064C23.6018 138.672 23.7558 138.07 23.7558 137.244C23.7558 136.516 23.6298 135.928 23.3918 135.508C23.1398 135.088 22.8178 134.864 22.3978 134.864C21.8658 134.864 21.4458 135.186 21.1378 135.802C21.0398 135.998 20.8158 136.642 20.4798 137.748C20.0878 138.98 19.8078 139.75 19.6398 140.044C19.1778 140.814 18.5058 141.192 17.6238 141.192C16.7418 141.192 16.0418 140.828 15.5378 140.072C15.0478 139.372 14.8098 138.49 14.8098 137.412ZM14.8098 127.383C14.8098 125.857 15.2998 124.653 16.2938 123.771C17.2318 122.931 18.4778 122.511 20.0178 122.511C21.5578 122.511 22.7898 122.931 23.7278 123.771C24.7078 124.653 25.1978 125.857 25.1978 127.383C25.1978 128.923 24.6938 130.127 23.7138 130.995C22.7618 131.835 21.5298 132.241 20.0178 132.241C18.4918 132.241 17.2598 131.835 16.3078 130.995C15.2998 130.127 14.8098 128.923 14.8098 127.383ZM16.2518 127.383C16.2518 128.419 16.6018 129.217 17.3018 129.791C17.9738 130.337 18.8698 130.603 20.0178 130.603C21.1518 130.603 22.0478 130.337 22.7198 129.791C23.4058 129.231 23.7558 128.419 23.7558 127.383C23.7558 126.347 23.4198 125.549 22.7618 124.989C22.1038 124.443 21.1938 124.163 20.0178 124.163C18.8418 124.163 17.9178 124.443 17.2458 124.989C16.5738 125.549 16.2518 126.347 16.2518 127.383ZM15.0058 120.965L15.0058 119.327L22.2158 114.385L22.2158 114.329L15.0058 114.329L15.0058 112.677L25.0018 112.677L25.0018 114.273L17.6938 119.271L17.6938 119.327L25.0018 119.327L25.0018 120.965L15.0058 120.965ZM15.0058 99.7633L15.0058 97.6913L19.2898 102.087L25.0018 97.0333L25.0018 99.2453L20.3678 103.193L21.5578 104.411L25.0018 104.411L25.0018 106.049L15.0058 106.049L15.0058 104.411L19.7238 104.411L15.0058 99.7633ZM15.0058 93.2132L15.0058 91.3512L25.0018 87.5292L25.0018 89.2792L22.4958 90.1892L22.4958 94.3752L25.0018 95.2852L25.0018 97.0352L15.0058 93.2132ZM21.1518 93.8852L21.1518 90.6792L16.7698 92.2472L16.7698 92.3032L21.1518 93.8852ZM15.0058 86.7632L15.0058 79.2732L16.3078 79.2732L23.6018 85.0412L23.6018 78.9372L25.0018 78.9372L25.0018 87.1832L23.7138 87.1832L16.4058 81.4012L16.4058 86.7632L15.0058 86.7632ZM15.0058 74.7698L15.0058 72.9078L25.0018 69.0858L25.0018 70.8358L22.4958 71.7458L22.4958 75.9318L25.0018 76.8418L25.0018 78.5918L15.0058 74.7698ZM21.1518 75.4418L21.1518 72.2358L16.7698 73.8038L16.7698 73.8598L21.1518 75.4418ZM15.0058 68.1098L15.0058 66.4718L22.2158 61.5298L22.2158 61.4738L15.0058 61.4738L15.0058 59.8218L25.0018 59.8218L25.0018 61.4178L17.6938 66.4158L17.6938 66.4718L25.0018 66.4718L25.0018 68.1098L15.0058 68.1098ZM15.0058 55.0139L15.0058 53.1519L25.0018 49.3299L25.0018 51.0799L22.4958 51.9899L22.4958 56.1759L25.0018 57.0859L25.0018 58.8359L15.0058 55.0139ZM21.1518 55.6859L21.1518 52.4799L16.7698 54.0479L16.7698 54.1039L21.1518 55.6859ZM15.0058 48.354L15.0058 46.716L22.2158 41.774L22.2158 41.718L15.0058 41.718L15.0058 40.066L25.0018 40.066L25.0018 41.662L17.6938 46.66L17.6938 46.716L25.0018 46.716L25.0018 48.354L15.0058 48.354ZM31.0058 117.701L31.0058 115.629L35.2898 120.025L41.0018 114.971L41.0018 117.183L36.3678 121.131L37.5578 122.349L41.0018 122.349L41.0018 123.987L31.0058 123.987L31.0058 122.349L35.7238 122.349L31.0058 117.701ZM31.0058 111.151L31.0058 109.289L41.0018 105.467L41.0018 107.217L38.4958 108.127L38.4958 112.313L41.0018 113.223L41.0018 114.973L31.0058 111.151ZM37.1518 111.823L37.1518 108.617L32.7698 110.185L32.7698 110.241L37.1518 111.823ZM31.0058 105.401L31.0058 103.427L35.4998 100.627L31.0058 97.8407L31.0058 95.8667L37.0258 99.8147L41.0018 99.8147L41.0018 101.453L37.0258 101.453L31.0058 105.401ZM31.0058 94.811L31.0058 93.173L41.0018 93.173L41.0018 94.811L31.0058 94.811ZM31.0058 91.9853L31.0058 83.7953L32.4058 83.7953L32.4058 87.0713L41.0018 87.0713L41.0018 88.7093L32.4058 88.7093L32.4058 91.9853L31.0058 91.9853ZM31.0058 82.602L31.0058 80.978L39.6018 80.978L39.6018 75.574L41.0018 75.574L41.0018 82.602L31.0058 82.602ZM31.0058 71.4749L31.0058 69.6129L41.0018 65.7909L41.0018 67.5409L38.4958 68.4509L38.4958 72.6369L41.0018 73.5469L41.0018 75.2969L31.0058 71.4749ZM37.1518 72.1469L37.1518 68.9409L32.7698 70.5089L32.7698 70.5649L37.1518 72.1469ZM31.0058 64.8149L31.0058 60.3629C31.0058 59.3409 31.2298 58.5289 31.6918 57.9409C32.1958 57.3249 32.9238 57.0029 33.8758 57.0029C34.3938 57.0029 34.8558 57.1429 35.2618 57.4229C35.7098 57.7309 36.0038 58.1649 36.1438 58.6969L36.1718 58.6969C36.3678 57.8289 36.9418 57.3389 37.9218 57.2269L39.5318 57.0589C40.1478 57.0029 40.6378 56.7929 41.0018 56.4569L41.0018 58.2349C40.6938 58.4729 40.2598 58.6129 39.6998 58.6689L38.4678 58.7949C37.9218 58.8509 37.5298 59.0189 37.2918 59.2989C37.0398 59.5929 36.9278 60.0269 36.9278 60.5869L36.9278 63.1769L41.0018 63.1769L41.0018 64.8149L31.0058 64.8149ZM32.4058 63.1769L35.5278 63.1769L35.5278 60.5869C35.5278 59.9429 35.3878 59.4529 35.1218 59.1169C34.8418 58.8089 34.4498 58.6549 33.9458 58.6549C33.3998 58.6549 33.0078 58.8089 32.7698 59.1169C32.5178 59.4249 32.4058 59.9149 32.4058 60.5869L32.4058 63.1769Z" fill="white"/>
</svg>
