<svg width="18" height="18" viewBox="0 0 18 18" fill="none" xmlns="http://www.w3.org/2000/svg">
<path d="M15.2512 16.875L14.7279 15.5186H12.0279L11.5085 16.875H9.78952L12.7647 9.67503H13.9964L16.9715 16.875H15.2512ZM14.8809 15.2949L15.4055 16.65L14.8809 15.2949H11.8788L11.3542 16.65L11.8775 15.2949H14.8809ZM14.5608 14.4219L13.4037 11.4262L12.2169 14.4219L13.4037 11.4262L14.5608 14.4219ZM12.5512 14.1969H14.2329L13.4037 12.0446L12.5512 14.1969Z" fill="#B1BAD3"/>
<path d="M10.7177 8.325V7.146L14.022 2.49429H10.8668V1.125H16.0418V2.25643L12.7131 6.95443H16.0418V8.325H10.7177ZM10.9427 8.1H15.8155H10.9427ZM15.8155 2.18571L12.2785 7.17943L15.8155 2.18443V2.18571Z" fill="#B1BAD3"/>
<path d="M1.28577 10.1019H3.34291V1.28572H4.37148V10.1019H6.42862L3.8572 16.7143L1.28577 10.1019Z" fill="#B1BAD3"/>
</svg>
