<svg xmlns="http://www.w3.org/2000/svg" width="66" height="66" viewBox="0 0 66 66">
    <g data-name="组 8530">
        <g data-name="组 8294">
            <g data-name="椭圆 499" style="stroke:#707070;stroke-dasharray:1 5;fill:none">
                <circle cx="33" cy="33" r="33" style="stroke:none"/>
                <circle cx="33" cy="33" r="32.5" style="fill:none"/>
            </g>
        </g>
        <g data-name="组 8531">
            <path data-name="路径 16069" d="M8 4h32" style="stroke-linecap:round;stroke-linejoin:round;stroke-width:2px;stroke:#aeb4bc;fill:none" transform="translate(10 9)"/>
            <path data-name="路径 16070" d="M8 44h32" style="stroke-linecap:round;stroke-linejoin:round;stroke-width:2px;stroke:#aeb4bc;fill:none" transform="translate(10 9)"/>
            <path data-name="路径 16071" d="M12 4v12l9 10" style="stroke-linecap:round;stroke-linejoin:round;stroke-width:2px;stroke:#aeb4bc;fill:none" transform="translate(10 9)"/>
            <path data-name="路径 16072" d="M36 44V29.5L27 21" style="stroke-linecap:round;stroke-linejoin:round;stroke-width:2px;stroke:#aeb4bc;fill:none" transform="translate(10 9)"/>
            <path data-name="路径 16073" d="M12 44V30l6.5-6.5" style="stroke-linecap:round;stroke-linejoin:round;stroke-width:2px;stroke:#aeb4bc;fill:none" transform="translate(10 9)"/>
            <path data-name="路径 16074" d="M36 4v12l-6.5 7.5" style="stroke-linecap:round;stroke-linejoin:round;stroke-width:2px;stroke:#aeb4bc;fill:none" transform="translate(10 9)"/>
            <path data-name="路径 16075" d="M18 33h1" style="stroke:#f06844;stroke-linecap:round;stroke-linejoin:round;stroke-width:2px;fill:none" transform="translate(10 9)"/>
            <path data-name="路径 16076" d="m29.146 32.646.707.707" style="stroke:#f06844;stroke-linecap:round;stroke-linejoin:round;stroke-width:2px;fill:none" transform="translate(10 9)"/>
            <path data-name="路径 16077" d="M24 38h1" style="stroke:#f06844;stroke-linecap:round;stroke-linejoin:round;stroke-width:2px;fill:none" transform="translate(10 9)"/>
        </g>
    </g>
</svg>
