<svg width="20" height="20" viewBox="0 0 20 20" fill="none" xmlns="http://www.w3.org/2000/svg">
<path d="M16.0922 8.14889L11.8496 3.90625L4.77854 10.9773L9.02118 15.22L16.0922 8.14889Z" style="fill: currentColor; stroke: currentColor;"/>
<path opacity="0.3" d="M3.36403 16.6345L4.77824 10.9777L9.02089 15.2203L3.36403 16.6345Z" style="fill: currentColor; stroke: currentColor;"/>
<path opacity="0.3" d="M15.2208 1.94929L18.0492 4.77772C18.2367 4.96526 18.3421 5.21961 18.3421 5.48483C18.3421 5.75004 18.2367 6.0044 18.0492 6.19193L16.0919 8.14921L11.8493 3.90657L13.8066 1.94929C13.9941 1.76176 14.2485 1.6564 14.5137 1.6564C14.7789 1.6564 15.0332 1.76176 15.2208 1.94929V1.94929Z" style="fill: currentColor; stroke: currentColor;"/>
<path d="M3.364 16.6338L3.92969 14.3711L5.62674 16.0682L3.364 16.6338Z" style="fill: currentColor; stroke: currentColor;"/>
</svg>
