<svg width="26" height="26" viewBox="0 0 26 26" fill="none" xmlns="http://www.w3.org/2000/svg">
<g opacity="0.499">
<path d="M8.04901 18.7384C8.34901 18.9034 8.58701 19.0384 8.76901 19.1204C10.5342 19.9595 12.4479 20.4415 14.4 20.5384C14.441 20.5477 14.4829 20.5524 14.525 20.5524C16.3821 20.5111 18.1494 19.745 19.4492 18.4178C20.7489 17.0907 21.478 15.3078 21.4806 13.4502C21.4832 11.5926 20.7591 9.80768 19.4631 8.47689C18.1671 7.1461 16.402 6.37501 14.545 6.32843C12.5145 6.27275 10.507 6.76978 8.73699 7.76643C7.35762 8.58998 5.86514 9.20718 4.307 9.59843C3.85697 9.69677 3.38976 9.68396 2.9458 9.56112C2.50183 9.43828 2.09447 9.20911 1.759 8.89343C1.69701 8.81685 1.61591 8.75797 1.52389 8.72275C1.43187 8.68753 1.3322 8.67721 1.23492 8.69283C1.13764 8.70845 1.04621 8.74946 0.969844 8.81172C0.893481 8.87398 0.834874 8.95529 0.799983 9.04743C-0.259499 11.8768 -0.259499 14.994 0.799983 17.8234C0.831163 17.9056 0.881237 17.9793 0.946131 18.0386C1.01103 18.0979 1.08895 18.1411 1.17361 18.1648C1.25827 18.1884 1.34727 18.1918 1.4335 18.1747C1.51972 18.1577 1.60075 18.1206 1.67001 18.0664C1.69067 18.0503 1.71036 18.0329 1.729 18.0144C2.48072 17.4398 3.42402 17.175 4.36498 17.2744C5.6766 17.5179 6.92806 18.0152 8.04901 18.7384ZM1.608 16.7504C0.959786 14.6088 0.95491 12.3239 1.59399 10.1794C2.45317 10.67 3.45264 10.8568 4.43099 10.7094C6.1365 10.2943 7.77167 9.6305 9.28399 8.73943C10.8699 7.85349 12.6627 7.40485 14.479 7.43943H14.522C16.0669 7.49306 17.5315 8.14088 18.6104 9.24785C19.6894 10.3548 20.2995 11.8355 20.3136 13.3813C20.3276 14.927 19.7446 16.4186 18.6859 17.545C17.6272 18.6714 16.1747 19.3457 14.631 19.4274C14.5948 19.4201 14.5579 19.4164 14.521 19.4164C12.6937 19.3347 10.9012 18.8883 9.24899 18.1034C9.08999 18.0284 8.864 17.9034 8.591 17.7524C7.31596 16.9265 5.87986 16.3811 4.37799 16.1524C3.4187 16.1115 2.46497 16.3174 1.608 16.7504Z" fill="#494B74"/>
<path d="M12.4879 0.937509C10.4171 0.935029 8.37807 1.44733 6.55432 2.42833C4.73057 3.40932 3.17926 4.82826 2.03992 6.55751C1.95658 6.6868 1.92761 6.84376 1.95932 6.99428C1.99103 7.1448 2.08084 7.27674 2.20926 7.36142C2.33767 7.44611 2.49433 7.47671 2.64517 7.44659C2.79602 7.41646 2.92889 7.32803 3.01492 7.20051C4.35625 5.1653 6.31799 3.61678 8.60904 2.78474C10.9001 1.95269 13.3983 1.88147 15.7331 2.58165C18.0678 3.28182 20.1146 4.71606 21.5697 6.67155C23.0248 8.62704 23.8106 10.9995 23.8106 13.437C23.8106 15.8745 23.0248 18.247 21.5697 20.2025C20.1146 22.158 18.0678 23.5922 15.7331 24.2924C13.3983 24.9925 10.9001 24.9213 8.60904 24.0893C6.31799 23.2572 4.35625 21.7087 3.01492 19.6735C2.92889 19.546 2.79602 19.4576 2.64517 19.4274C2.49433 19.3973 2.33767 19.4279 2.20926 19.5126C2.08084 19.5973 1.99103 19.7292 1.95932 19.8797C1.92761 20.0303 1.95658 20.1872 2.03992 20.3165C3.22915 22.1261 4.86777 23.596 6.79544 24.5823C8.72312 25.5687 10.8738 26.0378 13.0371 25.9437C15.2005 25.8496 17.3023 25.1955 19.1371 24.0455C20.9718 22.8954 22.4766 21.2888 23.5042 19.3828C24.5318 17.4768 25.0471 15.3367 24.9995 13.1718C24.952 11.007 24.3432 8.89153 23.2329 7.03247C22.1226 5.17342 20.5488 3.63442 18.6653 2.56605C16.7818 1.49768 14.6533 0.936536 12.4879 0.937509Z" fill="#494B74"/>
</g>
</svg>
