<svg width="25" height="26" viewBox="0 0 25 26" fill="none" xmlns="http://www.w3.org/2000/svg">
<g opacity="0.504">
<path d="M12.5 0.941406C10.0277 0.941406 7.611 1.67452 5.55538 3.04804C3.49977 4.42155 1.89761 6.37379 0.951515 8.65786C0.00541961 10.9419 -0.242127 13.4553 0.240188 15.88C0.722504 18.3048 1.91301 20.5321 3.66117 22.2802C5.40933 24.0284 7.63662 25.2189 10.0614 25.7012C12.4861 26.1835 14.9995 25.936 17.2836 24.9899C19.5676 24.0438 21.5199 22.4416 22.8934 20.386C24.2669 18.3304 25 15.9137 25 13.4414C24.9963 10.1273 23.6782 6.95007 21.3347 4.60666C18.9913 2.26326 15.8141 0.945112 12.5 0.941406ZM12.5 24.7934C10.2551 24.7932 8.06062 24.1273 6.19411 22.88C4.3276 21.6327 2.87287 19.8599 2.01386 17.7858C1.15486 15.7117 0.930151 13.4295 1.36816 11.2277C1.80618 9.02591 2.88723 7.00344 4.47464 5.41604C6.06205 3.82863 8.08451 2.74757 10.2863 2.30956C12.4881 1.87155 14.7703 2.09625 16.8444 2.95526C18.9185 3.81426 20.6913 5.269 21.9386 7.13551C23.1859 9.00201 23.8518 11.1965 23.852 13.4414C23.8475 16.4504 22.6499 19.3348 20.5219 21.4621C18.3938 23.5894 15.509 24.786 12.5 24.7894V24.7934Z" fill="#a1a5b7"/>
<path d="M22.4142 12.8836H17.0942C17.2209 11.8233 17.6897 10.8331 18.4295 10.063C19.1693 9.2929 20.1398 8.7848 21.1942 8.61563C21.2665 8.60467 21.3358 8.57959 21.3984 8.54181C21.4609 8.50404 21.5154 8.45433 21.5587 8.3955C21.602 8.33667 21.6333 8.26989 21.6508 8.19897C21.6683 8.12804 21.6717 8.05436 21.6607 7.98213C21.6498 7.90991 21.6247 7.84055 21.5869 7.77801C21.5491 7.71548 21.4994 7.661 21.4406 7.61768C21.3818 7.57436 21.315 7.54306 21.2441 7.52555C21.1731 7.50804 21.0995 7.50467 21.0272 7.51563C19.7104 7.72427 18.5001 8.36422 17.5863 9.33504C16.6725 10.3059 16.1069 11.5526 15.9782 12.8796H13.0522V3.52363C13.0462 3.38065 12.9851 3.24553 12.8818 3.1465C12.7784 3.04747 12.6409 2.99219 12.4977 2.99219C12.3546 2.99219 12.217 3.04747 12.1137 3.1465C12.0104 3.24553 11.9493 3.38065 11.9432 3.52363V12.8836H9.18724C9.06247 11.523 8.47542 10.2461 7.52383 9.26561C6.57225 8.2851 5.31354 7.66009 3.95724 7.49463C3.88285 7.48116 3.8065 7.48302 3.73286 7.5001C3.65923 7.51718 3.58985 7.54913 3.529 7.59398C3.46815 7.63883 3.4171 7.69564 3.37899 7.76092C3.34088 7.82621 3.3165 7.89859 3.30736 7.97363C3.29822 8.04867 3.3045 8.12478 3.32583 8.19731C3.34715 8.26983 3.38307 8.33724 3.43137 8.39538C3.47968 8.45353 3.53935 8.5012 3.60674 8.53546C3.67412 8.56972 3.74779 8.58986 3.82323 8.59463C4.91031 8.72865 5.92073 9.2244 6.69196 10.0022C7.46318 10.7799 7.9504 11.7945 8.07524 12.8826H2.58624C2.43917 12.8826 2.29813 12.9411 2.19415 13.045C2.09016 13.149 2.03174 13.2901 2.03174 13.4371C2.03174 13.5842 2.09016 13.7252 2.19415 13.8292C2.29813 13.9332 2.43917 13.9916 2.58624 13.9916H8.07423C7.94697 15.0501 7.47915 16.0385 6.74127 16.8079C6.00339 17.5774 5.03543 18.0862 3.98324 18.2576C3.83737 18.28 3.70638 18.3595 3.61908 18.4785C3.53178 18.5975 3.49533 18.7463 3.51774 18.8921C3.54015 19.038 3.61959 19.169 3.73858 19.2563C3.85757 19.3436 4.00637 19.38 4.15224 19.3576C5.47261 19.161 6.68804 18.5247 7.60193 17.5517C8.51582 16.5786 9.07473 15.3257 9.18824 13.9956H11.9452V23.3546C11.9513 23.4976 12.0124 23.6327 12.1157 23.7318C12.219 23.8308 12.3566 23.8861 12.4997 23.8861C12.6429 23.8861 12.7804 23.8308 12.8838 23.7318C12.9871 23.6327 13.0482 23.4976 13.0542 23.3546V13.9926H15.9792C16.0966 15.2887 16.6341 16.5109 17.5099 17.4733C18.3858 18.4358 19.552 19.0859 20.8312 19.3246C20.9758 19.3512 21.1249 19.3192 21.2459 19.2357C21.3669 19.1523 21.4497 19.0242 21.4762 18.8796C21.5028 18.7351 21.4708 18.5859 21.3873 18.465C21.3039 18.344 21.1758 18.2612 21.0312 18.2346C20.0067 18.0425 19.0707 17.5269 18.3609 16.7636C17.651 16.0003 17.2046 15.0294 17.0872 13.9936H22.4082C22.5553 13.9936 22.6963 13.9352 22.8003 13.8312C22.9043 13.7272 22.9627 13.5862 22.9627 13.4391C22.9627 13.2921 22.9043 13.151 22.8003 13.047C22.6963 12.9431 22.5553 12.8846 22.4082 12.8846L22.4142 12.8836Z" fill="#a1a5b7"/>
</g>
</svg>
