<svg width="25" height="26" viewBox="0 0 25 26" fill="none" xmlns="http://www.w3.org/2000/svg">
<g opacity="0.504">
<path d="M4.01391 5.62855H4.02091C4.09539 5.62845 4.16911 5.61355 4.23778 5.58471C4.30645 5.55587 4.3687 5.51366 4.42091 5.46055C5.65517 4.21199 7.1609 3.26509 8.82091 2.69355L12.1359 4.98455C12.2341 5.05278 12.3513 5.08835 12.4709 5.08619C12.5904 5.08404 12.7062 5.04428 12.8019 4.97255L16.2559 2.39355C16.3397 2.33132 16.4042 2.24682 16.4423 2.14968C16.4804 2.05253 16.4904 1.94665 16.4712 1.84409C16.452 1.74153 16.4044 1.64642 16.3338 1.5696C16.2632 1.49277 16.1725 1.43732 16.0719 1.40955C14.8765 1.07566 13.6389 0.917333 12.3979 0.939552C9.0932 0.988584 5.93905 2.32964 3.61091 4.67555C3.55895 4.72787 3.51794 4.79003 3.49026 4.85838C3.46259 4.92673 3.44882 4.99991 3.44975 5.07365C3.45068 5.14739 3.4663 5.2202 3.49569 5.28783C3.52507 5.35546 3.56765 5.41656 3.62091 5.46755C3.72599 5.57028 3.86696 5.62804 4.01391 5.62855ZM10.2389 2.30455C11.677 2.00651 13.1581 1.98006 14.6059 2.22655L12.4509 3.83355L10.2389 2.30455Z" fill="#a1a5b7"/>
<path d="M17.7079 3.28261C19.2683 4.08585 20.6213 5.23969 21.6609 6.65361L20.3999 10.4536C20.362 10.5658 20.361 10.6871 20.397 10.8C20.4329 10.9128 20.5041 11.0111 20.5999 11.0806L24.0939 13.6046C24.184 13.6694 24.2911 13.7066 24.4019 13.7116H24.4289C24.576 13.7117 24.7175 13.6551 24.8239 13.5536C24.8792 13.5005 24.9228 13.4367 24.9523 13.3659C24.9817 13.2952 24.9962 13.2192 24.9949 13.1426C24.9503 10.8924 24.2984 8.69612 23.1083 6.78589C21.9182 4.87567 20.2341 3.3225 18.2339 2.29061C18.1012 2.22175 17.9467 2.2078 17.8038 2.25175C17.6609 2.29571 17.541 2.39407 17.4699 2.52561C17.4354 2.59078 17.4143 2.66215 17.4076 2.73557C17.4009 2.80899 17.4088 2.88301 17.431 2.95334C17.4531 3.02366 17.489 3.08889 17.5365 3.14524C17.5841 3.20159 17.6423 3.24795 17.7079 3.28161V3.28261ZM21.6079 10.4156L22.4489 7.87861C23.1531 9.15106 23.6072 10.5465 23.7869 11.9896L21.6079 10.4156Z" fill="#a1a5b7"/>
<path d="M24.421 14.7043C24.2731 14.6843 24.1233 14.7235 24.004 14.8133C23.9446 14.8582 23.8948 14.9144 23.8576 14.9789C23.8203 15.0433 23.7963 15.1145 23.787 15.1883C23.5679 16.921 22.946 18.5783 21.971 20.0273L17.93 20.1843C17.8109 20.1884 17.6962 20.23 17.6022 20.3033C17.5082 20.3766 17.4399 20.4778 17.407 20.5923L16.234 24.7093C16.2007 24.8248 16.206 24.9481 16.249 25.0603C16.2759 25.1298 16.3162 25.1934 16.3677 25.2472C16.4192 25.3011 16.4808 25.3443 16.549 25.3743C16.6182 25.4044 16.6926 25.4207 16.768 25.4223H16.781C16.8515 25.4223 16.9214 25.4091 16.987 25.3833C18.1409 24.9348 19.223 24.32 20.199 23.5583C22.7981 21.5477 24.4929 18.5876 24.911 15.3283C24.9206 15.2554 24.9154 15.1812 24.8958 15.1103C24.8762 15.0394 24.8426 14.9731 24.797 14.9153C24.7514 14.8571 24.6946 14.8085 24.6301 14.7723C24.5656 14.736 24.4945 14.713 24.421 14.7043ZM21.084 21.1833C20.1188 22.2822 18.9552 23.1893 17.654 23.8573L18.386 21.2883L21.084 21.1833Z" fill="#a1a5b7"/>
<path d="M14.4154 24.7302C12.6671 24.954 10.8907 24.7731 9.2234 24.2012L8.0594 20.3712C8.02486 20.2569 7.95491 20.1566 7.85965 20.0847C7.76438 20.0128 7.64873 19.973 7.5294 19.9712L3.2024 19.8712C3.06993 19.8692 2.94077 19.9126 2.8364 19.9942C2.72251 20.083 2.64779 20.2127 2.62818 20.3558C2.60857 20.4989 2.6456 20.644 2.7314 20.7602C3.91038 22.3624 5.44912 23.6654 7.22371 24.5642C8.9983 25.4631 10.9592 25.9326 12.9484 25.9352C13.0817 25.9352 13.2134 25.9332 13.3434 25.9292C13.7504 25.9162 14.1594 25.8852 14.5574 25.8352C14.6311 25.8264 14.7024 25.8032 14.7671 25.7668C14.8318 25.7304 14.8886 25.6816 14.9344 25.6232C14.9801 25.5654 15.0137 25.4992 15.0333 25.4282C15.0528 25.3573 15.058 25.2831 15.0484 25.2102C15.0275 25.0628 14.9493 24.9297 14.8307 24.8398C14.7122 24.7499 14.5629 24.7105 14.4154 24.7302ZM6.0094 22.4932C5.42692 22.0551 4.88719 21.5629 4.3974 21.0232L7.0974 21.0822L7.8744 23.6382C7.21819 23.3159 6.59377 22.9325 6.0094 22.4932Z" fill="#a1a5b7"/>
<path d="M1.13416 13.5109L4.38516 11.1319C4.48143 11.0623 4.55282 10.9636 4.58882 10.8504C4.62482 10.7372 4.62354 10.6154 4.58516 10.5029L3.21116 6.44894C3.17674 6.34972 3.11553 6.26195 3.03431 6.19537C2.95309 6.12879 2.85503 6.08598 2.75098 6.0717C2.64694 6.05741 2.54097 6.0722 2.4448 6.11442C2.34864 6.15665 2.26605 6.22467 2.20616 6.31094C1.50737 7.32503 0.962779 8.43712 0.590157 9.61094C0.0935822 11.1563 -0.0924402 12.7846 0.0427978 14.4021C0.178036 16.0197 0.631864 17.5945 1.37816 19.0359C1.42597 19.1286 1.4984 19.2063 1.5875 19.2604C1.67659 19.3146 1.77889 19.3431 1.88316 19.3429H1.91116C2.00504 19.3394 2.09652 19.3124 2.17716 19.2642C2.2578 19.216 2.32499 19.1482 2.37253 19.0672C2.42007 18.9862 2.44643 18.8945 2.44916 18.8006C2.45189 18.7067 2.43091 18.6136 2.38816 18.5299C1.58292 16.9782 1.15338 15.2591 1.13416 13.5109ZM1.21116 12.0609C1.38294 10.6169 1.82857 9.21896 2.52416 7.94194L3.38116 10.4729L1.21116 12.0609Z" fill="#a1a5b7"/>
<path d="M16.7981 19.4393C16.8961 19.5521 17.0334 19.6233 17.182 19.6383C17.3307 19.6534 17.4795 19.6112 17.5981 19.5203C17.6555 19.4743 17.7033 19.4174 17.7385 19.3528C17.7738 19.2882 17.7959 19.2172 17.8035 19.144C17.8111 19.0708 17.8042 18.9968 17.783 18.9263C17.7618 18.8558 17.7268 18.7902 17.6801 18.7333L15.9701 16.6533L15.9511 16.6323L17.3631 12.3323L19.6631 11.4753C19.7327 11.45 19.7966 11.411 19.851 11.3607C19.9055 11.3104 19.9493 11.2498 19.9801 11.1823C20.011 11.1156 20.0281 11.0433 20.0305 10.9698C20.0329 10.8962 20.0205 10.823 19.9941 10.7543C19.9401 10.6146 19.8331 10.5018 19.6964 10.4406C19.5597 10.3793 19.4043 10.3746 19.2641 10.4273L16.8781 11.3163L13.2111 8.68134V6.28134C13.2111 6.1311 13.1514 5.98701 13.0451 5.88077C12.9389 5.77453 12.7948 5.71484 12.6446 5.71484C12.4943 5.71484 12.3502 5.77453 12.244 5.88077C12.1378 5.98701 12.0781 6.1311 12.0781 6.28134V8.68134L8.35307 11.3603L5.98707 10.5123C5.84598 10.4612 5.69043 10.4677 5.55407 10.5303C5.45284 10.5765 5.36771 10.6519 5.30962 10.7467C5.25154 10.8416 5.22315 10.9517 5.22809 11.0629C5.23304 11.174 5.27109 11.2811 5.33737 11.3705C5.40366 11.4599 5.49514 11.5274 5.60007 11.5643L7.95007 12.4063L9.35007 16.6603L9.34107 16.6713L7.64107 18.7623C7.59461 18.8195 7.55998 18.8854 7.53919 18.956C7.5184 19.0267 7.51186 19.1008 7.51996 19.174C7.52805 19.2473 7.55062 19.3182 7.58634 19.3826C7.62207 19.447 7.67025 19.5037 7.72807 19.5493C7.82891 19.6289 7.9536 19.6723 8.08207 19.6723C8.16668 19.6728 8.25031 19.6542 8.3268 19.618C8.40329 19.5819 8.4707 19.529 8.52407 19.4633L10.1301 17.4853H15.1941L16.8031 19.4423L16.7981 19.4393ZM16.2051 12.2223L14.8431 16.3653H10.4381L9.07607 12.2223L12.6411 9.66134L16.2051 12.2223Z" fill="#a1a5b7"/>
</g>
</svg>
