<svg width="75" height="72" viewBox="0 0 75 72" fill="none" xmlns="http://www.w3.org/2000/svg">
<path d="M33.956 1.1364C34.9657 0.400235 36.213 0 37.4977 0C38.7824 0 40.0298 0.400235 41.0394 1.1364L72.8112 24.3021C73.7157 24.9609 74.3852 25.8568 74.7326 26.8732C75.08 27.8896 75.0891 28.9794 74.7588 30.0006L62.4421 68.0332C62.0881 69.1267 61.3631 70.0853 60.3748 70.7668C59.3865 71.4483 58.1875 71.8163 56.9557 71.8163H18.0409C16.8091 71.8163 15.61 71.4483 14.6217 70.7668C13.6334 70.0853 12.9085 69.1267 12.5545 68.0332L0.241213 30.0006C-0.0890996 28.9794 -0.0799763 27.8896 0.267395 26.8732C0.614766 25.8568 1.28429 24.9609 2.18879 24.3021L33.956 1.1364Z" fill="#E4E6EF"/>
</svg>
