<svg width="18" height="18" viewBox="0 0 18 18" fill="none" xmlns="http://www.w3.org/2000/svg">
<path d="M8.99889 1.26253L15.08 2.50998C15.2313 2.54171 15.3669 2.62512 15.4636 2.74594C15.5603 2.86676 15.6121 3.0175 15.6101 3.17235V12.25C15.6103 12.3648 15.5812 12.4778 15.5254 12.5781C15.4696 12.6784 15.3891 12.7627 15.2916 12.8229L8.99889 16.6867L2.70846 12.8549C2.61023 12.7947 2.52914 12.7101 2.47297 12.6094C2.41681 12.5087 2.38745 12.3952 2.38775 12.2798V3.16901C2.38575 3.01417 2.43752 2.86346 2.53422 2.74264C2.63091 2.62181 2.76654 2.5384 2.91785 2.50668L8.99781 1.25812L8.99889 1.26253ZM8.99889 2.63032L3.7091 3.71549V11.8989L8.99889 15.1191L14.2887 11.8658V3.71549L8.99889 2.63032ZM11.3231 6.17723L11.7992 6.64309C11.862 6.70539 11.8979 6.78981 11.8993 6.87831C11.9008 6.96681 11.8676 7.05238 11.8069 7.11669L8.59225 10.4925C8.53859 10.5484 8.46708 10.5836 8.39015 10.5921C8.31323 10.6006 8.23577 10.5817 8.17128 10.5389L8.12497 10.5014L6.22287 8.6379C6.15984 8.57575 6.12372 8.49127 6.12227 8.40268C6.12083 8.3141 6.15416 8.22851 6.21513 8.16433L6.67471 7.6819C6.73552 7.61869 6.81888 7.58225 6.90649 7.5806C6.99411 7.57894 7.0788 7.61221 7.14195 7.67307L8.32995 8.83771L10.8569 6.18828C10.9177 6.12508 11.0011 6.08863 11.0888 6.08698C11.1764 6.08532 11.2611 6.11859 11.3242 6.17946L11.3231 6.17723Z" fill="#B1BAD3"/>
</svg>
