<svg width="18" height="18" viewBox="0 0 18 18" fill="none" xmlns="http://www.w3.org/2000/svg">
<path d="M3.48973 3.64284C3.19745 3.64284 2.91714 3.75572 2.71047 3.95665C2.50379 4.15759 2.38769 4.43011 2.38769 4.71427V13.2857C2.38769 13.5699 2.50379 13.8424 2.71047 14.0433C2.91714 14.2442 3.19745 14.3571 3.48973 14.3571H14.5101C14.8024 14.3571 15.0827 14.2442 15.2894 14.0433C15.4961 13.8424 15.6122 13.5699 15.6122 13.2857V4.71427C15.6122 4.43011 15.4961 4.15759 15.2894 3.95665C15.0827 3.75572 14.8024 3.64284 14.5101 3.64284H3.48973ZM3.48973 2.57141H14.5101C15.0947 2.57141 15.6553 2.79718 16.0687 3.19904C16.482 3.6009 16.7142 4.14595 16.7142 4.71427V13.2857C16.7142 13.854 16.482 14.3991 16.0687 14.8009C15.6553 15.2028 15.0947 15.4286 14.5101 15.4286H3.48973C2.90517 15.4286 2.34455 15.2028 1.93121 14.8009C1.51786 14.3991 1.28564 13.854 1.28564 13.2857V4.71427C1.28564 4.14595 1.51786 3.6009 1.93121 3.19904C2.34455 2.79718 2.90517 2.57141 3.48973 2.57141V2.57141Z" fill="#B1BAD3"/>
<path d="M7.09173 11.5714L6.42871 11.0107L10.9086 6.42853L11.5716 6.98922L7.09173 11.5714Z" fill="#B1BAD3"/>
<path d="M6.42829 7.28567C6.34353 7.28567 6.26067 7.31081 6.19019 7.3579C6.11971 7.40499 6.06478 7.47192 6.03234 7.55023C5.99991 7.62855 5.99142 7.71472 6.00796 7.79785C6.02449 7.88099 6.06531 7.95735 6.12525 8.01729C6.18518 8.07722 6.26155 8.11804 6.34468 8.13458C6.42782 8.15111 6.51399 8.14263 6.5923 8.11019C6.67061 8.07775 6.73754 8.02282 6.78464 7.95234C6.83173 7.88187 6.85686 7.79901 6.85686 7.71424C6.85686 7.60058 6.81171 7.49157 6.73134 7.4112C6.65097 7.33082 6.54196 7.28567 6.42829 7.28567ZM6.42829 6.42853C6.68258 6.42853 6.93116 6.50393 7.1426 6.64521C7.35403 6.78649 7.51882 6.98729 7.61614 7.22222C7.71345 7.45715 7.73891 7.71567 7.6893 7.96507C7.63969 8.21448 7.51724 8.44357 7.33743 8.62338C7.15762 8.80319 6.92853 8.92564 6.67912 8.97525C6.42972 9.02486 6.1712 8.9994 5.93627 8.90209C5.70134 8.80477 5.50054 8.63998 5.35926 8.42855C5.21798 8.21711 5.14258 7.96853 5.14258 7.71424C5.14258 7.37325 5.27804 7.04622 5.51916 6.8051C5.76027 6.56399 6.0873 6.42853 6.42829 6.42853V6.42853Z" fill="#B1BAD3"/>
<path d="M11.5714 9.85714C11.4866 9.85714 11.4037 9.88228 11.3333 9.92937C11.2628 9.97646 11.2078 10.0434 11.1754 10.1217C11.143 10.2 11.1345 10.2862 11.151 10.3693C11.1676 10.4525 11.2084 10.5288 11.2683 10.5888C11.3282 10.6487 11.4046 10.6895 11.4877 10.7061C11.5709 10.7226 11.6571 10.7141 11.7354 10.6817C11.8137 10.6492 11.8806 10.5943 11.9277 10.5238C11.9748 10.4533 11.9999 10.3705 11.9999 10.2857C11.9999 10.172 11.9548 10.063 11.8744 9.98267C11.794 9.9023 11.685 9.85714 11.5714 9.85714ZM11.5714 9C11.8256 9 12.0742 9.07541 12.2857 9.21668C12.4971 9.35796 12.6619 9.55876 12.7592 9.79369C12.8565 10.0286 12.882 10.2871 12.8324 10.5365C12.7828 10.7859 12.6603 11.015 12.4805 11.1949C12.3007 11.3747 12.0716 11.4971 11.8222 11.5467C11.5728 11.5963 11.3143 11.5709 11.0793 11.4736C10.8444 11.3762 10.6436 11.2115 10.5023 11C10.3611 10.7886 10.2856 10.54 10.2856 10.2857C10.2856 9.94472 10.4211 9.6177 10.6622 9.37658C10.9033 9.13546 11.2304 9 11.5714 9V9Z" fill="#B1BAD3"/>
</svg>
