<svg width="18" height="18" viewBox="0 0 18 18" fill="none" xmlns="http://www.w3.org/2000/svg">
<path d="M16.1056 14.2027C15.3207 12.287 13.8494 10.7617 12.0015 9.94796C11.8128 9.86438 11.6219 9.79014 11.4289 9.72523C11.6824 9.55336 11.9179 9.35442 12.1314 9.13169C12.7518 8.4893 13.1744 7.6706 13.3459 6.77912C13.5174 5.88765 13.4299 4.96349 13.0946 4.12356C12.7593 3.28363 12.1912 2.56567 11.4622 2.06052C10.7332 1.55538 9.8761 1.28577 8.99926 1.28577C8.12241 1.28577 7.26528 1.55538 6.53629 2.06052C5.8073 2.56567 5.2392 3.28363 4.90389 4.12356C4.56858 4.96349 4.48115 5.88765 4.65261 6.77912C4.82406 7.6706 5.24669 8.4893 5.86709 9.13169C6.0814 9.35352 6.31677 9.55238 6.56958 9.72523C6.3766 9.79059 6.1836 9.8666 5.99705 9.94796C4.59899 10.5595 3.40618 11.5853 2.56806 12.8966C1.72994 14.208 1.28382 15.7467 1.28565 17.3198C1.28565 17.5 1.35456 17.6728 1.47733 17.8004C1.60011 17.9279 1.76668 17.9997 1.94048 18.0001H16.0593C16.2331 17.9997 16.3997 17.9279 16.5224 17.8004C16.6452 17.6728 16.7142 17.5 16.7142 17.3198C16.7165 16.2504 16.5104 15.1916 16.1082 14.2068L16.1056 14.2027ZM8.99863 2.64552C9.61575 2.64552 10.219 2.83525 10.7321 3.19071C11.2452 3.54617 11.6451 4.0514 11.8812 4.6425C12.1173 5.23359 12.179 5.88396 12.0585 6.51142C11.938 7.13887 11.6407 7.7152 11.2043 8.16749C10.7678 8.61978 10.2118 8.92775 9.6065 9.0524C9.00121 9.17705 8.37385 9.11278 7.80378 8.86776C7.23371 8.62275 6.74656 8.20799 6.40389 7.67591C6.06123 7.14384 5.87846 6.51836 5.87871 5.87859C5.87973 5.02122 6.20878 4.19928 6.7937 3.59315C7.37861 2.98702 8.1716 2.64623 8.99863 2.64552ZM2.62884 16.6369C2.7935 15.0048 3.53543 13.4938 4.7115 12.3954C5.88758 11.297 7.41437 10.6892 8.99729 10.6892C10.5802 10.6892 12.1071 11.297 13.2832 12.3954C14.4592 13.4938 15.2012 15.0048 15.3658 16.6369H2.62884Z" fill="#B1BAD3"/>
</svg>
