<svg width="18" height="18" viewBox="0 0 18 18" fill="none" xmlns="http://www.w3.org/2000/svg">
<path d="M16.1015 5.22558H13.2538C13.5249 4.81768 13.6698 4.33892 13.6704 3.84914C13.6565 3.15619 13.3684 2.49703 12.8693 2.01611C12.3702 1.5352 11.7008 1.27178 11.0078 1.28358C10.6305 1.28228 10.257 1.36006 9.91158 1.51191C9.56612 1.66376 9.2563 1.88633 9.00212 2.16524C8.74789 1.88638 8.43807 1.66386 8.09262 1.51201C7.74717 1.36016 7.37377 1.28235 6.99643 1.28358C6.30344 1.27178 5.63404 1.5352 5.13495 2.01611C4.63586 2.49703 4.34778 3.15619 4.33388 3.84914C4.33365 4.33904 4.4786 4.81802 4.75044 5.22558H1.90278C1.82315 5.22397 1.74398 5.23812 1.66982 5.26718C1.59566 5.29625 1.52796 5.33969 1.47062 5.39498C1.41328 5.45027 1.36743 5.51631 1.33569 5.58937C1.30395 5.66243 1.28693 5.74105 1.28564 5.82069V9.53897C1.28651 9.57911 1.30322 9.61731 1.33212 9.64518C1.36103 9.67305 1.39976 9.68835 1.43991 9.68775H2.21135V16.0796C2.21264 16.1592 2.22966 16.2378 2.2614 16.3109C2.29314 16.384 2.33899 16.45 2.39633 16.5053C2.45367 16.5606 2.52137 16.604 2.59553 16.6331C2.66969 16.6622 2.74886 16.6763 2.8285 16.6747H15.1714C15.251 16.6763 15.3302 16.6622 15.4043 16.6331C15.4785 16.604 15.5462 16.5606 15.6035 16.5053C15.6609 16.45 15.7067 16.384 15.7385 16.3109C15.7702 16.2378 15.7872 16.1592 15.7885 16.0796V9.68775H16.5599C16.6001 9.68835 16.6388 9.67305 16.6677 9.64518C16.6966 9.61731 16.7133 9.57911 16.7142 9.53897V5.82069C16.7128 5.74109 16.6957 5.66256 16.6639 5.58957C16.6321 5.51658 16.5862 5.45055 16.5289 5.39528C16.4716 5.34002 16.404 5.2966 16.3299 5.26748C16.2558 5.23837 16.1767 5.22412 16.0971 5.22558H16.1015ZM9.65894 3.84914C9.64906 3.57998 9.71984 3.314 9.86221 3.08536C10.0046 2.85672 10.212 2.67587 10.458 2.56599C10.7039 2.45611 10.977 2.42224 11.2423 2.46873C11.5076 2.51521 11.753 2.63993 11.9469 2.82687C12.1408 3.01381 12.2744 3.25444 12.3305 3.51787C12.3867 3.78129 12.3628 4.05548 12.262 4.30525C12.1612 4.55502 11.9881 4.76896 11.7648 4.9196C11.5415 5.07024 11.2783 5.15069 11.0089 5.15065H9.65894V3.84914ZM6.99643 2.54763C7.34789 2.54172 7.68734 2.67542 7.9404 2.91939C8.19346 3.16336 8.33945 3.4977 8.3464 3.84914V5.15065H6.99643C6.821 5.15787 6.64593 5.12956 6.48173 5.06741C6.31753 5.00526 6.16756 4.91054 6.04089 4.78897C5.91421 4.66741 5.81341 4.52148 5.74456 4.35997C5.67571 4.19846 5.64023 4.02471 5.64023 3.84914C5.64023 3.67357 5.67571 3.49981 5.74456 3.33831C5.81341 3.1768 5.91421 3.03087 6.04089 2.9093C6.16756 2.78773 6.31753 2.69302 6.48173 2.63087C6.64593 2.56871 6.821 2.54041 6.99643 2.54763ZM2.59815 8.42371V6.48962H8.3464V8.42152L2.59815 8.42371ZM3.5239 9.68775H8.3464V15.4184H3.5239V9.68775ZM14.4815 15.4184H9.65894V9.68775H14.4815V15.4184ZM15.4072 8.42701H9.65894V6.49295H15.4072V8.42701Z" fill="#B1BAD3"/>
</svg>
