<svg width="18" height="18" viewBox="0 0 18 18" fill="none" xmlns="http://www.w3.org/2000/svg">
<path d="M8.6144 16.8126C8.18481 16.8126 7.77281 16.6419 7.46905 16.3381C7.16528 16.0344 6.99462 15.6224 6.99462 15.1928C6.99462 14.7632 7.16528 14.3512 7.46905 14.0474C7.77281 13.7437 8.18481 13.573 8.6144 13.573H9.78332C10.0248 13.5717 10.2635 13.6245 10.4819 13.7275C10.7003 13.8305 10.8928 13.9811 11.0454 14.1683C11.6925 13.9163 12.2875 13.5469 12.8003 13.0787C12.468 12.6824 12.2851 12.1821 12.2836 11.6649V10.0878C12.2867 9.5523 12.4832 9.03594 12.837 8.63391C13.1908 8.23188 13.6779 7.97128 14.2087 7.90014C14.0567 6.62642 13.4429 5.45266 12.4836 4.60106C11.5243 3.74947 10.286 3.27915 9.00327 3.27915C7.72051 3.27915 6.48226 3.74947 5.52295 4.60106C4.56365 5.45266 3.94987 6.62642 3.79781 7.90014C4.32796 7.97197 4.81431 8.2329 5.16733 8.63488C5.52036 9.03686 5.71629 9.55284 5.71906 10.0878V11.6618C5.70825 12.2407 5.4707 12.7922 5.05749 13.1978C4.64428 13.6033 4.08842 13.8305 3.50943 13.8305C2.93044 13.8305 2.37458 13.6033 1.96137 13.1978C1.54816 12.7922 1.31061 12.2407 1.2998 11.6618V10.0878C1.30071 9.68457 1.41208 9.28928 1.62182 8.94487C1.83156 8.60046 2.13165 8.3201 2.48951 8.13423C2.58842 6.47454 3.31743 4.91528 4.52756 3.77512C5.73768 2.63496 7.33755 2 9.00019 2C10.6628 2 12.2627 2.63496 13.4728 3.77512C14.6829 4.91528 15.412 6.47454 15.5109 8.13423C15.8685 8.32027 16.1684 8.60069 16.378 8.94508C16.5876 9.28947 16.6989 9.68467 16.6998 10.0878V11.6618C16.6992 12.0017 16.6202 12.3368 16.4689 12.6412C16.3177 12.9455 16.0983 13.2109 15.8278 13.4167C15.5573 13.6224 15.243 13.7631 14.9093 13.8276C14.5756 13.8921 14.2315 13.8787 13.9038 13.7886C13.1936 14.5037 12.3362 15.0556 11.3912 15.4057C11.3412 15.7955 11.1503 16.1536 10.8546 16.4125C10.5588 16.6713 10.1786 16.8131 9.78563 16.811L8.6144 16.8126ZM8.27173 15.1909C8.27122 15.2359 8.27971 15.2806 8.29671 15.3223C8.31371 15.364 8.33887 15.4019 8.37072 15.4338C8.40257 15.4656 8.44047 15.4908 8.48218 15.5078C8.5239 15.5248 8.56859 15.5333 8.61363 15.5328H9.78255C9.87282 15.5328 9.95939 15.4969 10.0232 15.4331C10.087 15.3692 10.1229 15.2827 10.1229 15.1924C10.1229 15.1021 10.087 15.0156 10.0232 14.9517C9.95939 14.8879 9.87282 14.852 9.78255 14.852H8.6144C8.56931 14.8509 8.52444 14.8589 8.48248 14.8754C8.44052 14.8919 8.40231 14.9168 8.37013 14.9484C8.33795 14.98 8.31245 15.0177 8.29515 15.0594C8.27785 15.101 8.2691 15.1458 8.26942 15.1909H8.27173ZM13.5634 10.0878V11.6618C13.5704 11.9033 13.6712 12.1327 13.8446 12.3011C14.0179 12.4695 14.2501 12.5637 14.4917 12.5637C14.7334 12.5637 14.9655 12.4695 15.1389 12.3011C15.3122 12.1327 15.413 11.9033 15.42 11.6618V10.0878C15.413 9.84625 15.3122 9.61691 15.1389 9.44851C14.9655 9.2801 14.7334 9.18589 14.4917 9.18589C14.2501 9.18589 14.0179 9.2801 13.8446 9.44851C13.6712 9.61691 13.5704 9.84625 13.5634 10.0878ZM2.58192 10.0878V11.6618C2.58192 11.9078 2.67964 12.1437 2.85358 12.3176C3.02752 12.4916 3.26344 12.5893 3.50943 12.5893C3.75542 12.5893 3.99134 12.4916 4.16528 12.3176C4.33922 12.1437 4.43694 11.9078 4.43694 11.6618V10.0878C4.43694 9.84183 4.33922 9.60591 4.16528 9.43197C3.99134 9.25803 3.75542 9.16031 3.50943 9.16031C3.26344 9.16031 3.02752 9.25803 2.85358 9.43197C2.67964 9.60591 2.58192 9.84183 2.58192 10.0878Z" fill="#B1BAD3"/>
</svg>
