<svg width="18" height="18" viewBox="0 0 18 18" fill="none" xmlns="http://www.w3.org/2000/svg">
<path d="M8.99354 17.8069C7.08852 17.8054 5.23532 17.1863 3.71197 16.0424C2.18862 14.8985 1.07723 13.2915 0.544547 11.4625C0.0118622 9.63348 0.0865977 7.68104 0.757539 5.89808C1.42848 4.11513 2.65946 2.5978 4.2658 1.5737C5.87214 0.549604 7.76724 0.0739602 9.66679 0.218137C11.5663 0.362315 13.3679 1.11854 14.8013 2.37335C16.2347 3.62816 17.2225 5.31391 17.6167 7.17771C18.0108 9.04151 17.79 10.9829 16.9874 12.7105C16.9585 12.7964 16.9118 12.8753 16.8504 12.9418C16.7889 13.0084 16.7141 13.0613 16.6308 13.0969C16.5475 13.1326 16.4576 13.1502 16.367 13.1487C16.2764 13.1472 16.1871 13.1266 16.105 13.0882C16.023 13.0498 15.9499 12.9945 15.8907 12.926C15.8315 12.8574 15.7874 12.777 15.7614 12.6902C15.7354 12.6035 15.728 12.5121 15.7397 12.4223C15.7514 12.3324 15.782 12.2461 15.8294 12.1689C16.604 10.5066 16.7462 8.61898 16.2293 6.85943C15.7125 5.09987 14.5721 3.58902 13.0216 2.60971C11.4711 1.63039 9.61677 1.24974 7.80585 1.53905C5.99493 1.82836 4.35152 2.76778 3.18331 4.18144C2.0151 5.5951 1.40218 7.38607 1.45928 9.21907C1.51638 11.0521 2.2396 12.8014 3.49354 14.1396C4.74748 15.4778 6.44617 16.3131 8.27159 16.4892C10.097 16.6652 11.924 16.1699 13.4105 15.096C13.4785 15.0406 13.557 14.9998 13.6412 14.9759C13.7255 14.952 13.8137 14.9455 13.9006 14.9569C13.9874 14.9683 14.071 14.9974 14.1463 15.0422C14.2215 15.0871 14.2868 15.1468 14.3381 15.2178C14.3894 15.2888 14.4257 15.3695 14.4448 15.455C14.4638 15.5405 14.4652 15.629 14.4488 15.715C14.4324 15.8011 14.3986 15.8829 14.3495 15.9554C14.3004 16.0279 14.237 16.0897 14.1632 16.1368C12.6612 17.2286 10.8504 17.8135 8.99354 17.8069Z" fill="#B1BAD3"/>
<path d="M8.99345 18C7.04669 17.9986 5.15287 17.366 3.59609 16.1971C2.03932 15.0282 0.903515 13.386 0.359093 11.5169C-0.185328 9.6478 -0.109022 7.65258 0.576562 5.83053C1.26215 4.00848 2.52004 2.45783 4.16155 1.41124C5.80305 0.364648 7.73966 -0.121475 9.68084 0.025798C11.622 0.173071 13.4632 0.945807 14.928 2.22807C16.3928 3.51033 17.4023 5.23299 17.8052 7.13762C18.208 9.04225 17.9825 11.0261 17.1623 12.7917C17.0951 12.9351 16.9885 13.0564 16.855 13.1416C16.7216 13.2268 16.5667 13.2723 16.4083 13.2729C16.2686 13.2728 16.1312 13.2375 16.0088 13.1702C15.8863 13.103 15.7828 13.0059 15.7078 12.8881C15.6328 12.7702 15.5886 12.6354 15.5795 12.496C15.5704 12.3566 15.5966 12.2171 15.6556 12.0905C16.4113 10.4691 16.5501 8.62792 16.0461 6.91157C15.5421 5.19522 14.4298 3.72142 12.9175 2.76606C11.4051 1.8107 9.59641 1.43928 7.82997 1.72136C6.06353 2.00343 4.46045 2.91964 3.32085 4.29847C2.18124 5.6773 1.58325 7.42422 1.63882 9.21218C1.69438 11.0001 2.39969 12.7066 3.62272 14.012C4.84574 15.3174 6.50262 16.1323 8.28317 16.3041C10.0637 16.476 11.8458 15.993 13.2959 14.9455C13.3844 14.8815 13.4846 14.8355 13.5908 14.8102C13.6971 14.7849 13.8072 14.7807 13.9151 14.798C14.0229 14.8153 14.1262 14.8536 14.2193 14.9108C14.3123 14.968 14.3931 15.043 14.4571 15.1314C14.5212 15.2199 14.5672 15.3201 14.5925 15.4263C14.6178 15.5326 14.6219 15.6427 14.6047 15.7506C14.5874 15.8584 14.5491 15.9618 14.4919 16.0548C14.4346 16.1478 14.3597 16.2286 14.2712 16.2927C12.7378 17.4075 10.8893 18.0054 8.99345 18ZM8.99345 0.366696C7.63261 0.366566 6.29105 0.688327 5.07831 1.3057C3.86557 1.92307 2.81606 2.81853 2.01548 3.91897C1.21491 5.01942 0.685982 6.29363 0.471901 7.63752C0.257821 8.98142 0.36466 10.3569 0.783684 11.6516C1.20271 12.9463 1.92204 14.1236 2.88293 15.0872C3.84381 16.0508 5.01902 16.7735 6.31254 17.1962C7.60606 17.6189 8.98123 17.7297 10.3257 17.5194C11.6702 17.3092 12.9459 16.7839 14.0486 15.9864C14.0972 15.9517 14.1383 15.9076 14.1697 15.8568C14.2011 15.806 14.222 15.7495 14.2313 15.6905C14.2498 15.5718 14.2207 15.4507 14.1503 15.3534C14.1154 15.3051 14.0714 15.2642 14.0207 15.2329C13.97 15.2017 13.9136 15.1807 13.8548 15.1713C13.796 15.1618 13.736 15.1641 13.678 15.1779C13.6201 15.1917 13.5655 15.2168 13.5173 15.2518C11.9991 16.3457 10.1343 16.8491 8.27186 16.6678C6.40939 16.4865 4.67678 15.6329 3.39812 14.2666C2.11946 12.9003 1.38235 11.115 1.32468 9.24463C1.267 7.37425 1.89271 5.5469 3.08477 4.10444C4.27682 2.66198 5.95355 1.70322 7.80131 1.40749C9.64907 1.11176 11.5413 1.49934 13.124 2.4977C14.7067 3.49607 15.8715 5.03684 16.4004 6.8318C16.9294 8.62677 16.7863 10.553 15.9979 12.2501C15.9724 12.3038 15.958 12.3621 15.9553 12.4215C15.9527 12.481 15.9619 12.5403 15.9825 12.5962C16.0027 12.6525 16.034 12.7042 16.0744 12.7484C16.1148 12.7926 16.1636 12.8283 16.2179 12.8535C16.2775 12.8815 16.3425 12.896 16.4083 12.8959C16.4942 12.8961 16.5784 12.872 16.6512 12.8265C16.724 12.781 16.7826 12.7159 16.8201 12.6386C17.4303 11.3235 17.6995 9.87595 17.6028 8.42942C17.5061 6.98288 17.0466 5.58399 16.2668 4.36184C15.4869 3.1397 14.4118 2.13366 13.1406 1.43655C11.8695 0.739437 10.4432 0.373718 8.99345 0.373136V0.366696Z" fill="#B1BAD3"/>
<path d="M13.6266 10.9055H8.72965C8.55631 10.9055 8.39004 10.8366 8.26747 10.7141C8.14489 10.5915 8.07605 10.4252 8.07605 10.2519V5.234C8.08352 5.06584 8.15557 4.90706 8.2772 4.7907C8.39884 4.67434 8.5607 4.60938 8.72903 4.60938C8.89735 4.60938 9.05917 4.67434 9.18081 4.7907C9.30245 4.90706 9.3745 5.06584 9.38196 5.234V9.60855H13.6279C13.7161 9.60463 13.8041 9.61865 13.8867 9.6497C13.9694 9.68075 14.0449 9.72819 14.1087 9.7892C14.1725 9.85022 14.2232 9.92355 14.2579 10.0047C14.2926 10.0859 14.3105 10.1732 14.3105 10.2615C14.3105 10.3498 14.2926 10.4372 14.2579 10.5184C14.2232 10.5995 14.1725 10.6728 14.1087 10.7338C14.0449 10.7949 13.9694 10.8423 13.8867 10.8734C13.8041 10.9044 13.7161 10.9184 13.6279 10.9145L13.6266 10.9055Z" fill="#B1BAD3"/>
<path d="M13.6242 11.0999H8.72724C8.50271 11.0999 8.28738 11.0107 8.12861 10.8519C7.96984 10.6932 7.88065 10.4778 7.88065 10.2533V5.23541C7.87621 5.12154 7.89479 5.00797 7.93531 4.90146C7.97582 4.79495 8.0374 4.69771 8.1164 4.61557C8.19539 4.53344 8.29017 4.46808 8.39502 4.42345C8.49987 4.37882 8.61266 4.35583 8.72661 4.35583C8.84057 4.35583 8.95335 4.37882 9.0582 4.42345C9.16305 4.46808 9.2578 4.53344 9.33679 4.61557C9.41578 4.69771 9.47737 4.79495 9.51788 4.90146C9.55839 5.00797 9.57702 5.12154 9.57257 5.23541V9.41312H13.6242C13.738 9.40868 13.8516 9.42726 13.9582 9.46778C14.0647 9.50829 14.1619 9.56987 14.244 9.64887C14.3261 9.72786 14.3915 9.82264 14.4361 9.92749C14.4808 10.0323 14.5038 10.1451 14.5038 10.2591C14.5038 10.373 14.4808 10.4858 14.4361 10.5907C14.3915 10.6955 14.3261 10.7903 14.244 10.8693C14.1619 10.9483 14.0647 11.0099 13.9582 11.0504C13.8516 11.0909 13.738 11.1095 13.6242 11.105V11.0999ZM8.72724 4.76965C8.60508 4.76965 8.48792 4.81818 8.40154 4.90456C8.31515 4.99094 8.26662 5.1081 8.26662 5.23026V10.2481C8.26662 10.3703 8.31515 10.4874 8.40154 10.5738C8.48792 10.6602 8.60508 10.7087 8.72724 10.7087H13.6242C13.6866 10.712 13.7491 10.7026 13.8078 10.681C13.8664 10.6594 13.9201 10.626 13.9655 10.583C14.0109 10.5399 14.047 10.4881 14.0717 10.4307C14.0964 10.3732 14.1091 10.3113 14.1091 10.2488C14.1091 10.1863 14.0964 10.1244 14.0717 10.0669C14.047 10.0095 14.0109 9.95761 13.9655 9.91457C13.9201 9.87153 13.8664 9.83819 13.8078 9.81657C13.7491 9.79494 13.6866 9.7855 13.6242 9.78881H9.18656V5.22512C9.18521 5.10385 9.13608 4.98803 9.04984 4.90276C8.9636 4.81748 8.84722 4.76964 8.72594 4.76965H8.72724Z" fill="#B1BAD3"/>
</svg>
