<svg width="18" height="18" viewBox="0 0 18 18" fill="none" xmlns="http://www.w3.org/2000/svg">
<path d="M16.0712 2.57331H1.92862C1.77154 2.56034 1.61603 2.61432 1.4957 2.72358C1.37537 2.83284 1.29991 2.98856 1.28564 3.15713V14.8428C1.29991 15.0114 1.37537 15.1671 1.4957 15.2764C1.61603 15.3856 1.77154 15.4396 1.92862 15.4267H16.0712C16.2283 15.4396 16.3838 15.3856 16.5042 15.2764C16.6245 15.1671 16.6999 15.0114 16.7142 14.8428V3.15713C16.6999 2.98856 16.6245 2.83284 16.5042 2.72358C16.3838 2.61432 16.2283 2.56034 16.0712 2.57331ZM15.4282 10.1683H10.9283C10.77 10.1976 10.6076 10.1894 10.4525 10.1442C10.2974 10.099 10.1534 10.018 10.0305 9.90679C9.90758 9.79557 9.80876 9.65682 9.74099 9.50029C9.67322 9.34375 9.63813 9.1732 9.63813 9.00056C9.63813 8.82793 9.67322 8.65741 9.74099 8.50088C9.80876 8.34435 9.90758 8.2056 10.0305 8.09437C10.1534 7.98315 10.2974 7.90213 10.4525 7.85696C10.6076 7.8118 10.77 7.80357 10.9283 7.83288H15.4282V10.1683ZM10.9283 6.66272C10.6116 6.60409 10.2868 6.62051 9.97664 6.71085C9.66645 6.80119 9.37837 6.96325 9.13258 7.1857C8.88678 7.40815 8.68921 7.68562 8.55367 7.99868C8.41813 8.31175 8.34791 8.65285 8.34791 8.99813C8.34791 9.3434 8.41813 9.68451 8.55367 9.99757C8.68921 10.3106 8.88678 10.5881 9.13258 10.8105C9.37837 11.033 9.66645 11.1951 9.97664 11.2854C10.2868 11.3757 10.6116 11.3922 10.9283 11.3335H15.4282V14.2553H2.57164V3.73855H15.4282V6.66888L10.9283 6.66272Z" fill="#B1BAD3"/>
<path d="M10.2856 9.00003C10.2856 9.12717 10.3233 9.25146 10.394 9.35718C10.4646 9.46289 10.565 9.5453 10.6825 9.59396C10.8 9.64262 10.9292 9.65534 11.0539 9.63054C11.1786 9.60573 11.2932 9.54451 11.3831 9.4546C11.473 9.3647 11.5342 9.25013 11.559 9.12543C11.5838 9.00073 11.5711 8.87148 11.5224 8.75402C11.4738 8.63655 11.3914 8.53615 11.2857 8.46551C11.18 8.39488 11.0557 8.35718 10.9285 8.35718C10.7581 8.35748 10.5948 8.42531 10.4743 8.54581C10.3538 8.6663 10.2859 8.82963 10.2856 9.00003Z" fill="#B1BAD3"/>
</svg>
