<svg width="14" height="14" viewBox="0 0 14 14" fill="none" xmlns="http://www.w3.org/2000/svg">
<rect x="0.5" y="1.5" width="12.997" height="11" rx="0.5" stroke="#B1BAD3"/>
<path d="M3.59922 5.2C3.79922 5.4 3.99922 5.5 4.19922 5.5C4.39922 5.5 4.69922 5.5 4.89922 5.5C5.09922 5.5 5.29922 5.3 5.49922 5.1C5.69922 4.9 5.79922 4.7 5.79922 4.5C5.79922 4.3 5.79922 4 5.69922 3.8C5.59922 3.6 5.39922 3.4 5.19922 3.3C5.09922 3.1 4.79922 3.1 4.59922 3C4.39922 3 4.09922 3 3.89922 3.1C3.79922 3.2 3.69922 3.3 3.59922 3.4C3.39922 3.6 3.19922 3.9 3.19922 4.1C3.19922 4.4 3.19922 4.7 3.39922 4.9C3.39922 5 3.49922 5.1 3.59922 5.2Z" fill="#B1BAD3"/>
<path d="M6.59852 7.60001C6.49854 7.30001 6.29858 7.00001 6.09863 6.80001C5.89867 6.60001 5.59874 6.40001 5.2988 6.30001C5.09884 6.20001 4.69893 6.10001 4.39899 6.10001C3.8991 6.10001 3.39921 6.30001 2.9993 6.60001C2.4994 7.00001 2.19947 7.40001 2.09949 7.90001C2.09949 8.10001 1.99951 8.30001 1.99951 8.50001H6.79848C6.79848 8.20001 6.79848 7.90001 6.59852 7.60001Z" fill="#B1BAD3"/>
<path d="M11.9973 4.8H7.09839V5.8H11.9973V4.8Z" fill="#B1BAD3"/>
<path d="M11.9973 6.7H7.09839V7.7H11.9973V6.7Z" fill="#B1BAD3"/>
<path d="M11.6974 9.7H2.19946V10.7H11.6974V9.7Z" fill="#B1BAD3"/>
</svg>
