<svg width="14" height="14" viewBox="0 0 14 14" fill="none" xmlns="http://www.w3.org/2000/svg">
<path d="M5.39995 6.9L5.19995 8.9V9C5.19995 9 5.19995 9.1 5.29995 9.1L5.39995 9.2H5.49995L7.49995 9C7.59995 9 7.59995 9 7.69995 8.9L10.5 6.1L12.9 3.6C13 3.5 13.1 3.3 13.1 3.1C13.1 2.9 13 2.8 12.9 2.6L12.2 1.9L11.5 1.2C11.4 1.1 11.2 1 11 1C10.9 1 10.8 1 10.8 1C10.7 1 10.7 1.1 10.6 1.1L8.29995 3.8L5.49995 6.7C5.39995 6.7 5.39995 6.8 5.39995 6.9ZM6.29995 7.2L8.99995 4.5L11.2 2.3L11.7 2.8L12.1 3.2L9.89995 5.4L7.19995 8.1L6.19995 8.2L6.29995 7.2Z" fill="#B1BAD3"/>
<path d="M12.7 6.8C12.6 6.8 12.4 6.9 12.4 6.9C12.3 7 12.3 7.1 12.3 7.2V10.9C12.3 11.3 12.1 11.7 11.9 11.9C11.6 12.2 11.3 12.3 10.9 12.3H3.4C3 12.3 2.6 12.1 2.4 11.9C2.1 11.6 2 11.3 2 10.9V3.6C2 3.2 2.2 2.8 2.4 2.6C2.6 2.4 3 2.2 3.4 2.2H7.1C7.2 2.2 7.2 2.2 7.3 2.2C7.4 2.2 7.4 2.1 7.5 2.1C7.5 2.1 7.6 2 7.6 1.9C7.6 1.8 7.6 1.8 7.6 1.7C7.6 1.6 7.6 1.6 7.6 1.5C7.6 1.4 7.5 1.4 7.5 1.3C7.5 1.3 7.4 1.2 7.3 1.2C7.2 1.2 7.2 1.2 7.1 1.2H3.4C2.8 1.2 2.1 1.4 1.7 1.9C1.2 2.3 1 3 1 3.6V11C1 11.6 1.3 12.3 1.7 12.7C2.2 13.2 2.8 13.4 3.4 13.4H10.8C11.4 13.4 12.1 13.1 12.5 12.7C13 12.2 13.2 11.6 13.2 11V7.3C13.2 7.2 13.1 7 13.1 7C13 6.9 12.9 6.8 12.7 6.8Z" fill="#B1BAD3"/>
</svg>
