<svg width="22" height="22" viewBox="0 0 22 22" fill="none" xmlns="http://www.w3.org/2000/svg">
<g clip-path="url(#clip0_1658_1467)">
<path d="M11 1.9998C9.21993 1.9998 7.47983 2.52765 5.99976 3.51661C4.51968 4.50556 3.3661 5.9112 2.6849 7.55577C2.0037 9.20034 1.82546 11.01 2.17274 12.7559C2.52001 14.5017 3.3772 16.1054 4.6359 17.3641C5.8946 18.6228 7.49828 19.48 9.24415 19.8273C10.99 20.1745 12.7997 19.9963 14.4442 19.3151C16.0888 18.6339 17.4944 17.4803 18.4834 16.0002C19.4723 14.5202 20.0002 12.7801 20.0002 11C19.9976 8.6138 19.0485 6.32609 17.3612 4.63879C15.6739 2.95149 13.3862 2.00242 11 1.9998ZM11 0C13.9174 0 16.7153 1.15893 18.7782 3.22183C20.8411 5.28473 22 8.08262 22 11C22 13.9174 20.8411 16.7153 18.7782 18.7782C16.7153 20.8411 13.9174 22 11 22C8.08262 22 5.28473 20.8411 3.22183 18.7782C1.15893 16.7153 0 13.9174 0 11C0 8.08262 1.15893 5.28473 3.22183 3.22183C5.28473 1.15893 8.08262 0 11 0Z" fill="#B1BAD3"/>
<path d="M11 11.571C11.3939 11.571 11.784 11.4971 12.1479 11.3535C12.5119 11.2099 12.8425 10.9995 13.1211 10.7342C13.3996 10.4689 13.6206 10.154 13.7714 9.80737C13.9221 9.46076 13.9997 9.08926 13.9997 8.7141C13.9997 8.33893 13.9221 7.96743 13.7714 7.62082C13.6206 7.27421 13.3996 6.95928 13.1211 6.69399C12.8425 6.42871 12.5119 6.21827 12.1479 6.0747C11.784 5.93113 11.3939 5.85724 11 5.85724C10.2044 5.85724 9.44143 6.15823 8.87888 6.69399C8.31633 7.22976 8.00029 7.95641 8.00029 8.7141C8.00029 9.47178 8.31633 10.1984 8.87888 10.7342C9.44143 11.27 10.2044 11.571 11 11.571ZM16.0006 12.3252H6.00049V15.1821H15.9995V12.3252H16.0006Z" fill="#F04E23"/>
</g>
<defs>
<clipPath id="clip0_1658_1467">
<rect width="22" height="22" fill="white"/>
</clipPath>
</defs>
</svg>
