<svg width="16" height="16" viewBox="0 0 16 16" fill="none" xmlns="http://www.w3.org/2000/svg">
<path d="M8 14.7622L5.85643 16L4.61881 13.8564H2.144V11.3813L0 10.1436L1.23762 8L0 5.85644L2.144 4.61867V2.14356H4.61881L5.85643 0L8 1.23733L10.1436 0L11.3812 2.14356H13.8569V4.61911L16 5.85644L14.7624 8L16 10.1436L13.8569 11.3809V13.8564H11.3812L10.144 16L8 14.7622Z" fill="#FB6943"/>
<path d="M8.41899 9.37464L7.40061 10.3929L4.68494 7.67686L5.70331 6.65864L7.40061 8.35597L10.7373 5.01953L11.7556 6.03775L8.41899 9.37464Z" fill="white"/>
</svg>
