<svg width="14" height="14" viewBox="0 0 14 14" fill="none" xmlns="http://www.w3.org/2000/svg">
<path fill-rule="evenodd" clip-rule="evenodd" d="M6.99995 12.3C9.92706 12.3 12.3 9.92706 12.3 6.99995C12.3 4.07284 9.92706 1.69995 6.99995 1.69995C4.07284 1.69995 1.69995 4.07284 1.69995 6.99995C1.69995 9.92706 4.07284 12.3 6.99995 12.3ZM6.99995 13.3C10.4793 13.3 13.3 10.4793 13.3 6.99995C13.3 3.52056 10.4793 0.699951 6.99995 0.699951C3.52056 0.699951 0.699951 3.52056 0.699951 6.99995C0.699951 10.4793 3.52056 13.3 6.99995 13.3Z" fill="#557086"/>
<rect x="8.85608" y="4.40137" width="1.05" height="6.3" transform="rotate(45 8.85608 4.40137)" fill="#557086"/>
<rect x="9.59863" y="8.85632" width="1.05" height="6.3" transform="rotate(135 9.59863 8.85632)" fill="#557086"/>
</svg>
