<svg xmlns="http://www.w3.org/2000/svg" width="8.729" height="10.424" viewBox="0 0 8.729 10.424">
    <defs>
        <clipPath id="bbmu6gyi8a">
            <path data-name="矩形 9372" style="fill:#78cbfb" d="M0 0h8.729v10.424H0z"/>
        </clipPath>
    </defs>
    <g data-name="组 6930" style="clip-path:url(#bbmu6gyi8a)">
        <path data-name="路径 5449" d="M757.48 395.818a1.006 1.006 0 0 0 1.02-1.021h-2.042a1.007 1.007 0 0 0 1.021 1.021zm3.35-3.323v-2.654a3.4 3.4 0 0 0-2.608-3.285v-.334a.745.745 0 1 0-1.485-.009v.353a3.383 3.383 0 0 0-2.607 3.276v2.658l-1.012 1.04v.52h8.724v-.52zm0 0" transform="translate(-753.118 -385.408)" style="fill:#78cbfb"/>
    </g>
</svg>
