<svg id="圖標_功能图标" data-name="圖標/功能图标" xmlns="http://www.w3.org/2000/svg" width="20" height="20" viewBox="0 0 20 20">
  <rect id="Rectangle_2337" data-name="Rectangle 2337" width="20" height="20" fill="none"/>
  <path id="Path_5459" data-name="Path 5459" d="M152.68,16.628H150.53v-.513a1.557,1.557,0,0,0-1.556-1.556h-1.556a1.557,1.557,0,0,0-1.556,1.556v.513H143.7a1.465,1.465,0,0,0-1.46,1.46.247.247,0,0,0,.241.241h11.4a.247.247,0,0,0,.241-.241A1.431,1.431,0,0,0,152.68,16.628Zm-5.55-.529a.287.287,0,0,1,.289-.289h1.556a.287.287,0,0,1,.289.289v.513H147.13Z" transform="translate(-138.181 -12.17)" fill="#a1a5b7"/>
  <path id="Path_5460" data-name="Path 5460" d="M182.439,175.28h-9.752a.212.212,0,0,0-.209.209V184.2a1.7,1.7,0,0,0,1.7,1.7h6.785a1.7,1.7,0,0,0,1.7-1.7V175.5a.219.219,0,0,0-.225-.225Zm-5.935,7.138a.642.642,0,0,1-1.283,0v-3.657a.642.642,0,0,1,1.283,0Zm3.4,0a.642.642,0,0,1-1.283,0v-3.657a.642.642,0,0,1,1.283,0Z" transform="translate(-167.555 -168.287)" fill="#a1a5b7"/>
</svg>
