<svg xmlns="http://www.w3.org/2000/svg" width="8.651" height="7.842" viewBox="0 0 8.651 7.842">
    <defs>
        <clipPath id="eoxua2h75a">
            <path data-name="矩形 9373" style="fill:#78cbfb" d="M0 0h8.651v7.842H0z"/>
        </clipPath>
    </defs>
    <g data-name="组 6931">
        <g data-name="组 6933" style="clip-path:url(#eoxua2h75a)">
            <path data-name="路径 5450" d="M734.055 389.841a3.256 3.256 0 0 0-3.137 1.538 1.08 1.08 0 1 0-2.159 0A.9.9 0 1 0 727 391.3a1.08 1.08 0 0 1-1.376-1.462l.344-1.548a.539.539 0 0 1 .527-.423h6.692a.54.54 0 0 1 .527.423zm-.445 1.988a.533.533 0 0 1 .007.09v3.239a.54.54 0 0 1-.54.539H726.6a.539.539 0 0 1-.539-.539v-3.239a.6.6 0 0 1 .007-.09 2.524 2.524 0 0 1 2.692.09 1.618 1.618 0 0 1 2.159 0 1.618 1.618 0 0 1 2.159 0 1.624 1.624 0 0 0 .533-.09zm-5.8 1.169a.4.4 0 0 0-.4.405v.81a.4.4 0 1 0 .81 0v-.81a.4.4 0 0 0-.405-.405zm0 0" transform="translate(-725.52 -387.871)" style="fill:#78cbfb"/>
        </g>
    </g>
</svg>
