<?xml version="1.0" encoding="utf-8"?>
<!-- Generator: Adobe Illustrator 26.0.1, SVG Export Plug-In . SVG Version: 6.00 Build 0)  -->
<svg version="1.1" id="圖層_1" xmlns="http://www.w3.org/2000/svg" xmlns:xlink="http://www.w3.org/1999/xlink" x="0px" y="0px"
	 viewBox="0 0 24 24" style="enable-background:new 0 0 24 24;" xml:space="preserve">
<g id="admin-game" transform="translate(.5)">
	<path id="Subtraction_49" class="st0" d="M20,20.1c-0.7,0-1.2-0.5-1.9-1.2l0,0c-0.4-0.4-0.9-0.9-1.4-1.2c-3.2-2.2-7.3-2.2-10.5,0
		c-0.5,0.4-0.9,0.8-1.3,1.2l0,0c-0.7,0.7-1.2,1.2-1.9,1.2c-0.2,0-0.5-0.1-0.7-0.1c-0.6-0.2-0.8-1.2-0.8-2.9c0.1-1.6,0.3-3.1,0.5-4.6
		C2.3,10.7,3,9,4,7.4c0.4-0.7,1.2-1.2,2-1.3c0.6,0,1.2,0.2,1.7,0.5c2.5,1.1,5.2,1.1,7.7,0c0.5-0.3,1.1-0.4,1.7-0.5
		c0.8,0.1,1.6,0.6,2,1.3c1,1.5,1.6,3.2,1.9,5c0.6,3.2,1,7-0.2,7.5C20.5,20.1,20.3,20.1,20,20.1L20,20.1z M14.5,11.1
		c-0.6,0-1,0.4-1,1s0.4,1,1,1s1-0.4,1-1S15.1,11.1,14.5,11.1C14.5,11.1,14.5,11.1,14.5,11.1L14.5,11.1z M7.5,9.1c-1.1,0-2,0.9-2,2
		s0.9,2,2,2s2-0.9,2-2c0,0,0,0,0,0C9.5,10,8.6,9.1,7.5,9.1L7.5,9.1L7.5,9.1z M16.5,9.1c-0.6,0-1,0.4-1,1s0.4,1,1,1s1-0.4,1-1
		S17.1,9.1,16.5,9.1C16.5,9.1,16.5,9.1,16.5,9.1L16.5,9.1z" fill="#000000"/>
	<path id="Path_5385" class="st1" d="M7.5,13.1c-1.1,0-2-0.9-2-2s0.9-2,2-2s2,0.9,2,2S8.6,13.1,7.5,13.1" fill="#000000" opacity="0.3"/>
	<path id="Path_5386" class="st1" d="M14.5,13.1c-0.6,0-1-0.4-1-1c0-0.6,0.4-1,1-1s1,0.4,1,1C15.5,12.7,15.1,13.1,14.5,13.1" fill="#000000" opacity="0.3"/>
	<path id="Path_5387" class="st1" d="M16.5,11.1c-0.6,0-1-0.4-1-1c0-0.6,0.4-1,1-1c0.6,0,1,0.4,1,1C17.5,10.7,17.1,11.1,16.5,11.1" fill="#000000" opacity="0.3"/>
</g>
</svg>
