<svg xmlns="http://www.w3.org/2000/svg" width="24" height="24" viewBox="0 0 24 24">
    <defs>
        <style>
            .cls-3{fill:#d8dce1}
        </style>
    </defs>
    <g id="Group_62" data-name="Group 62" transform="translate(-312 -107)">
        <circle id="Ellipse_4" data-name="Ellipse 4" cx="3.648" cy="3.648" r="3.648" transform="translate(320.074 115.379)" style="fill:none"/>
        <g id="隐藏字" transform="translate(314.188 111)">
            <path id="Path_31" data-name="Path 31" class="cls-3" d="M-355.649 322s-.77-.8-1.084-1.113-3.225-3.238-3.484-3.464a7.489 7.489 0 0 0-5.432-2.161 8.13 8.13 0 0 0-2.391.341l2.008 2.008a4.464 4.464 0 0 1 .51-.03 4.422 4.422 0 0 1 4.422 4.422 4.4 4.4 0 0 1-.676 2.347l-10.154-10.15-1.4 1.4 14.213 14.214 1.4-1.4-2.146-2.146c.848-.833 2.87-2.864 3.129-3.123.314-.314 1.084-1.113 1.084-1.113l-.058-.014z" transform="translate(375.649 -314.2)"/>
            <path id="Path_32" data-name="Path 32" class="cls-3" d="M-385.363 366.2a4.422 4.422 0 0 1-4.422-4.422 4.459 4.459 0 0 1 .033-.537l-2.616-2.616c-.88.878-1.862 1.864-2.037 2.039-.314.314-1.084 1.113-1.084 1.113l.058.014-.058.014s.77.8 1.084 1.113 3.225 3.238 3.484 3.464a7.489 7.489 0 0 0 5.432 2.161 8.037 8.037 0 0 0 2.623-.416l-1.96-1.96a4.467 4.467 0 0 1-.537.033z" transform="translate(395.49 -353.973)"/>
        </g>
    </g>
</svg>
