<svg xmlns="http://www.w3.org/2000/svg" width="24" height="24" viewBox="0 0 24 24">
    <defs>
        <style>
            .cls-2{fill:#d8dce1}
        </style>
    </defs>
    <g id="显示密码_默认_" data-name="显示密码（默认）" transform="translate(-276 -107)">
        <g id="显示字" transform="translate(278 112)">
            <g id="Group_83" data-name="Group 83" transform="translate(375.39 27.097)">
                <path id="Path_29" data-name="Path 29" class="cls-2" d="M-355.39-20.359s-.77-.8-1.084-1.113-3.225-3.238-3.484-3.464a7.489 7.489 0 0 0-5.432-2.164 7.489 7.489 0 0 0-5.432 2.161c-.259.226-3.17 3.15-3.484 3.464s-1.084 1.113-1.084 1.113l.058.014-.058.014s.77.8 1.084 1.113 3.225 3.238 3.484 3.464a7.489 7.489 0 0 0 5.432 2.161 7.489 7.489 0 0 0 5.432-2.161c.259-.226 3.17-3.15 3.484-3.464s1.084-1.113 1.084-1.113l-.058-.014zm-3.011.024s-.538.558-.758.778-2.254 2.263-2.435 2.421a5.234 5.234 0 0 1-3.8 1.51 5.234 5.234 0 0 1-3.8-1.51c-.181-.158-2.215-2.2-2.435-2.421s-.758-.778-.758-.778l.041-.01-.041-.01s.538-.558.758-.778 2.254-2.263 2.435-2.421a5.234 5.234 0 0 1 3.8-1.51 5.234 5.234 0 0 1 3.8 1.51c.181.158 2.215 2.2 2.435 2.421s.758.778.758.778l-.041.01z"/>
                <path id="Path_30" data-name="Path 30" class="cls-2" d="M-300.225 14.677a2.378 2.378 0 0 0-2.378 2.378 2.377 2.377 0 0 0 2.378 2.378 2.377 2.377 0 0 0 2.378-2.378h-2.378z" transform="translate(-65.165 -37.399)"/>
            </g>
        </g>
    </g>
</svg>
