<svg xmlns="http://www.w3.org/2000/svg" width="22" height="22" viewBox="0 0 22 22">
    <g data-name="组 214">
        <path data-name="路径 13223" d="M159.807 14.37h9.076V7.563a4.538 4.538 0 0 0-9.076 0v6.807zm10.588 0h.756v1.513h-13.613V14.37h.756V7.563a6.053 6.053 0 0 1 4.916-5.945V0h2.269v1.618a6.053 6.053 0 0 1 4.921 5.945v6.807zm-4.538-7.185v5.672h1.513V7.185h-1.513z" transform="translate(-153.345 1.168)" style="fill:#fff"/>
        <path data-name="路径 13224" d="M162.833 16.639a1.513 1.513 0 1 0 3.025 0h1.513a3.025 3.025 0 1 1-6.05 0z" transform="translate(-153.346 1.168)" style="fill:#7fcefb"/>
    </g>
</svg>
