<svg width="30" height="30" viewBox="0 0 30 30" fill="none" xmlns="http://www.w3.org/2000/svg">
<path fill-rule="evenodd" clip-rule="evenodd" d="M22.625 1.85225C21.625 0.102248 19.25 -0.522752 17.5 0.477248L12.5 3.35225L11.625 2.85225C9.75001 1.85225 7.50001 2.35225 6.50001 4.22725L3.17771 10.0175C1.34006 10.2801 0 11.7975 0 13.7273V17.4773C1.25 17.7273 2.125 18.7273 2.125 19.9773C2.125 21.2273 1.125 22.2273 0 22.4773V26.2273C0 28.3523 1.625 29.9773 3.75 29.9773H26.25C28.375 29.9773 30 28.3523 30 26.2273V22.3523C29.125 21.9773 28.375 21.1023 28.375 19.9773C28.375 18.8523 29 17.9773 30 17.6023V13.7273C30 12.0034 28.9306 10.6086 27.3924 10.1434L22.625 1.85225ZM24.3405 9.97725L20.5 3.22725C20.125 2.60225 19.375 2.35225 18.75 2.72725L15 4.97725L23.75 9.97725H24.3405ZM20.1215 9.97725L13.125 6.10225L10.625 4.60225C9.75001 3.97725 8.62501 4.35225 8.12501 5.22725L5.36338 9.97725H20.1215ZM12.5 18.7273C11.75 18.7273 11.25 18.2272 11.25 17.4772C11.25 16.7272 11.75 16.2273 12.5 16.2273H17.5C18.25 16.2273 18.75 16.7272 18.75 17.4772C18.75 18.2272 18.25 18.7273 17.5 18.7273H12.5ZM11.25 22.3523C11.25 21.7273 11.875 21.1022 12.5 21.1022H17.5C18.25 21.1022 18.75 21.7273 18.75 22.3523C18.75 22.9773 18.125 23.6023 17.5 23.6023H12.5C11.75 23.6023 11.25 22.9773 11.25 22.3523ZM28.125 16.6023C27.125 17.3523 26.5 18.6023 26.5 19.9773C26.5 21.3523 27.125 22.6023 28.125 23.3523V26.2273C28.125 27.2273 27.25 28.1023 26.25 28.1023H3.75C2.75 28.1023 1.875 27.2273 1.875 26.2273V23.7273C3.125 22.9773 4 21.6023 4 19.9773C4 18.3523 3.125 16.9773 1.875 16.2273V13.7273C1.875 12.7273 2.75 11.8523 3.75 11.8523H26.25C27.25 11.8523 28.125 12.7273 28.125 13.7273V16.6023Z" fill="#009EF7"/>
</svg>
