<svg width="24" height="24" viewBox="0 0 24 24" fill="currentColor" xmlns="http://www.w3.org/2000/svg">
<path d="M12.0024 22C9.44047 22 6.88809 21.019 4.9357 19.0667C1.02143 15.1619 1.02143 8.8381 4.9357 4.93334C6.88809 2.98096 9.44047 2 12.0024 2C14.5643 2 17.1166 2.98096 19.069 4.93334C22.9833 8.8381 22.9833 15.1619 19.069 19.0667C17.1166 21.019 14.5643 22 12.0024 22ZM12.0024 21C13.1738 21 14.3071 20.781 15.3928 20.3429C16.5071 19.8857 17.5071 19.219 18.3643 18.3619C19.2214 17.5048 19.8881 16.5048 20.3452 15.3905C20.7833 14.3048 21.0024 13.1714 21.0024 12C21.0024 10.8286 20.7833 9.69524 20.3452 8.60952C19.8881 7.49523 19.2214 6.49523 18.3643 5.6381C17.5071 4.78097 16.5071 4.11428 15.3928 3.65714C14.3071 3.21905 13.1738 3 12.0024 3C10.8309 3 9.6976 3.21905 8.61189 3.65714C7.4976 4.11428 6.4976 4.78094 5.64047 5.6381C4.78333 6.49526 4.11665 7.49523 3.65951 8.60952C3.22141 9.69524 3.00236 10.8286 3.00236 12C3.00236 13.1714 3.22141 14.3048 3.65951 15.3905C4.11665 16.5048 4.78333 17.5048 5.64047 18.3619C6.4976 19.219 7.4976 19.8857 8.61189 20.3429C9.6976 20.781 10.8309 21 12.0024 21Z" fill="currentColor"/>
<path d="M15.4768 12.9991C15.5731 12.9945 15.6685 13.0204 15.7493 13.0731C15.8692 13.1501 15.9497 13.2745 15.9827 13.4125C16.0173 13.5539 15.9996 13.7031 15.9327 13.8324L14.433 15.7201C14.2945 15.986 13.9886 16.077 13.7497 15.9235C13.5107 15.77 13.4287 15.4301 13.5667 15.1642L14.4165 14.0944H8.54918C8.40387 14.0944 8.26452 14.0367 8.16177 13.9339C8.05902 13.8312 8.00129 13.6918 8.00129 13.5465C8.00129 13.4012 8.05902 13.2618 8.16177 13.1591C8.26452 13.0563 8.40387 12.9986 8.54918 12.9986H15.4518L15.4768 12.9991ZM8.52319 10.999C8.42685 11.0036 8.33151 10.9777 8.25074 10.925C8.13196 10.8463 8.04828 10.7247 8.01729 10.5856C7.98266 10.4442 8.00042 10.295 8.06728 10.1657L9.56748 8.27803C9.70545 8.01208 10.0114 7.9211 10.2503 8.07457C10.4893 8.22804 10.5713 8.56797 10.4333 8.83392L9.58348 9.90371H15.4513C15.5233 9.90371 15.5945 9.91788 15.661 9.94541C15.7275 9.97295 15.7879 10.0133 15.8387 10.0642C15.8896 10.1151 15.93 10.1755 15.9575 10.2419C15.985 10.3084 15.9992 10.3796 15.9992 10.4516C15.9992 10.5235 15.985 10.5948 15.9575 10.6613C15.93 10.7277 15.8896 10.7881 15.8387 10.839C15.7879 10.8899 15.7275 10.9303 15.661 10.9578C15.5945 10.9853 15.5233 10.9995 15.4513 10.9995H8.54868L8.52319 10.999Z" fill="currentColor"/>
</svg>
