<svg xmlns="http://www.w3.org/2000/svg" width="70.002" height="70.002" viewBox="0 0 70.002 70.002">
    <defs>
        <style>
            .cls-1{fill:#009ef7}
        </style>
    </defs>
    <g id="Group_4652" data-name="Group 4652" transform="translate(-537.999 -274)">
        <g id="Group_3898" data-name="Group 3898" transform="translate(-160.999 -548)">
            <path id="Subtraction_48" data-name="Subtraction 48" class="cls-1" d="M16434 18240a34.9 34.9 0 1 1 13.623-2.752A34.748 34.748 0 0 1 16434 18240zm0-67a31.887 31.887 0 1 0 12.457 2.514A31.837 31.837 0 0 0 16434 18173z" transform="translate(-15700 -17348)"/>
        </g>
        <g id="Group_4651" data-name="Group 4651" transform="translate(-227.438 -117.661)">
            <path id="Line_90" data-name="Line 90" d="M29.45-7.286H0V-10h29.45z" transform="translate(785.781 449.364)" style="opacity:.5;fill:#009ef7"/>
            <path id="Union_28" data-name="Union 28" class="cls-1" d="m.177 30.8-.1-1.252a23.19 23.19 0 0 1 .008-3.793 4.077 4.077 0 0 1 .995-2.371 5.888 5.888 0 0 1 2.61-1.93 6.8 6.8 0 0 1 2.191-.428 3.172 3.172 0 0 0 1.654-.416 4.447 4.447 0 0 0 1.587-1.76l.095-.164a5.059 5.059 0 0 0 .4-2.01 6.64 6.64 0 0 0-.663-2.55 11.669 11.669 0 0 0-.737-1.573 11.09 11.09 0 0 1-.785-1.707A7.271 7.271 0 0 1 7.1 6.193 7.534 7.534 0 0 1 8.95 2.68a7.611 7.611 0 0 1 3.7-2.334A11.953 11.953 0 0 1 15.4 0a7.5 7.5 0 0 1 3.261.686 9.2 9.2 0 0 1 3.512 3.353 9.122 9.122 0 0 1 .837 5.536c-.02.09-.293 1.15-.293 1.15l-.031.121-.053.112s-.408.872-.539 1.159l-.018.067-.087.152c-1.241 2.164-1.464 2.554-1.464 4.569 0 1.961 0 1.961 1.009 3.065a4.79 4.79 0 0 0 2.77 1.1 7.438 7.438 0 0 1 3.465.984 5.113 5.113 0 0 1 2.161 3.71 29 29 0 0 1 .008 3.751l-.07 1.283zm5.888-7.066a4.223 4.223 0 0 0-1.373.244 3.1 3.1 0 0 0-1.422 1.011l-.138.209-.109.086a2.046 2.046 0 0 0-.245.828 13.96 13.96 0 0 0-.054 1.974h24.552a16.635 16.635 0 0 0-.04-1.985 2.444 2.444 0 0 0-1.006-1.809 5.131 5.131 0 0 0-2.076-.51 8.281 8.281 0 0 1-1.177-.176H7.2a8.95 8.95 0 0 1-1.135.128zm12.692-2.841c-.814-1.074-.946-1.881-.946-3.987 0-2.591.431-3.487 1.79-5.86.076-.171.222-.483.521-1.123.066-.254.214-.829.239-.931a6.381 6.381 0 0 0-.561-3.647 6.68 6.68 0 0 0-2.305-2.211 6.45 6.45 0 0 0-4.209-.148 4.928 4.928 0 0 0-2.254 1.439A4.914 4.914 0 0 0 9.745 6.8a4.612 4.612 0 0 0 .241 3.12 8.447 8.447 0 0 0 .617 1.334 14.311 14.311 0 0 1 .884 1.891 9.192 9.192 0 0 1 .838 3.33 7.355 7.355 0 0 1-.767 3.584l-.077.134c-.1.182-.242.423-.425.7z" transform="translate(785.438 407.073)"/>
        </g>
    </g>
</svg>
