<svg xmlns="http://www.w3.org/2000/svg" width="20" height="20" viewBox="0 0 20 20" fill="currentColor">
  <g id="Group_2" data-name="Group 2" transform="translate(-1708 -569)" fill="currentColor">
    <rect id="Rectangle_1" data-name="Rectangle 1" width="20" height="20" transform="translate(1708 569)" fill="#fff" opacity="0"/>
    <path id="Union_2" data-name="Union 2" d="M590.7,94.4a1.7,1.7,0,0,1-1.7-1.7v-5a1.7,1.7,0,0,1,1.7-1.7h5a1.7,1.7,0,0,1,1.7,1.7v5a1.7,1.7,0,0,1-1.7,1.7Zm-.55-6.7v5a.55.55,0,0,0,.55.55h5a.55.55,0,0,0,.55-.55v-5a.55.55,0,0,0-.55-.549h-5A.55.55,0,0,0,590.15,87.7Zm-3.45,2.7a1.7,1.7,0,0,1-1.7-1.7v-5a1.7,1.7,0,0,1,1.7-1.7h5a1.7,1.7,0,0,1,1.7,1.7v1.45H592.25V83.7a.551.551,0,0,0-.551-.55h-5a.55.55,0,0,0-.55.55v5a.551.551,0,0,0,.55.551h1.45V90.4H586.7Z" transform="translate(1126.8 490.8)" fill="currentColor"/>
  </g>
</svg>
