<svg width="16" height="16" viewBox="0 0 16 16" fill="none" xmlns="http://www.w3.org/2000/svg">
<path d="M8.18367 0.836792C12.2414 0.836792 15.5306 4.12602 15.5306 8.18373C15.5306 12.2414 12.2414 15.5307 8.18367 15.5307C4.12596 15.5307 0.836731 12.2414 0.836731 8.18373C0.836731 4.12602 4.12596 0.836792 8.18367 0.836792ZM8.18367 2.30618C4.93742 2.30618 2.30612 4.93749 2.30612 8.18373C2.30612 11.43 4.93742 14.0613 8.18367 14.0613C11.4299 14.0613 14.0612 11.43 14.0612 8.18373C14.0612 4.93749 11.4299 2.30618 8.18367 2.30618ZM7.99779 10.134C8.18367 10.134 8.33318 10.1443 8.44669 10.1648C8.56057 10.1854 8.648 10.2269 8.71008 10.2886C8.77179 10.3507 8.81477 10.4385 8.83865 10.552C8.86289 10.6655 8.87502 10.8117 8.87502 10.9903C8.87502 11.1761 8.86289 11.3256 8.83902 11.4392C8.81477 11.553 8.77179 11.6405 8.71008 11.7025C8.648 11.7643 8.5602 11.8054 8.44669 11.8263C8.29823 11.8495 8.14803 11.8599 7.99779 11.8572C7.81228 11.8572 7.6624 11.8469 7.54889 11.8263C7.43538 11.8058 7.34612 11.7643 7.28073 11.7025C7.21534 11.6405 7.17236 11.5527 7.15179 11.4392C7.1286 11.2907 7.11827 11.1405 7.12093 10.9903C7.12093 10.8117 7.13122 10.6655 7.15179 10.552C7.17236 10.4381 7.21534 10.3507 7.28073 10.2886C7.34612 10.2269 7.43538 10.1858 7.54889 10.1648C7.69736 10.1416 7.84755 10.1313 7.99779 10.134ZM7.90522 4.51026C8.32473 4.51026 8.68583 4.53781 8.98853 4.59291C9.29122 4.64802 9.54065 4.74426 9.73681 4.88165C9.93261 5.0194 10.0755 5.20675 10.1648 5.44406C10.2544 5.68136 10.2989 5.97891 10.2989 6.33671C10.2989 6.57732 10.2834 6.78377 10.2526 6.95569C10.2245 7.11897 10.1724 7.27718 10.0979 7.42516C10.0255 7.56622 9.92894 7.697 9.80881 7.81749C9.68832 7.93798 9.54249 8.06361 9.3702 8.19402C9.21224 8.31083 9.08477 8.41442 8.98853 8.50369C8.90622 8.57803 8.83028 8.65913 8.76151 8.74614C8.7064 8.81851 8.66857 8.89051 8.648 8.96287C8.62651 9.04187 8.61612 9.12347 8.61714 9.20532V9.44263H7.35824V8.9783L7.36045 8.87214C7.36485 8.76818 7.37624 8.6712 7.39424 8.58083C7.41849 8.46071 7.46147 8.34573 7.52318 8.23553C7.58526 8.12532 7.66791 8.01512 7.77077 7.90491C7.874 7.79471 8.00147 7.67459 8.15281 7.54381C8.26302 7.45455 8.35375 7.37189 8.42612 7.29622C8.49167 7.2294 8.5489 7.1549 8.59657 7.07434C8.63761 7.00248 8.66548 6.92385 8.67885 6.84218C8.69355 6.74665 8.70043 6.65009 8.69942 6.55344C8.69943 6.39549 8.68253 6.26802 8.648 6.1714C8.61536 6.07736 8.5516 5.99727 8.46726 5.94438C8.3813 5.88928 8.26779 5.85181 8.1271 5.83124C7.9543 5.80852 7.78011 5.79808 7.60583 5.80002C7.38657 5.8005 7.1676 5.81609 6.95049 5.84667C6.72714 5.87753 6.52583 5.92051 6.34694 5.97524V4.69614L6.44612 4.66932C6.64123 4.62187 6.83895 4.58593 7.03828 4.56169C7.30645 4.52753 7.59555 4.51026 7.90522 4.51026Z" fill="#A1A5B7"/>
</svg>
