<svg width="267" height="127" viewBox="0 0 267 127" fill="none" xmlns="http://www.w3.org/2000/svg">
<mask id="path-1-inside-1_1_677" fill="white">
<path fill-rule="evenodd" clip-rule="evenodd" d="M42.0881 0H6C2.68629 0 0 2.68629 0 6V121C0 124.314 2.68629 127 6 127H43.2521C45.4305 123.972 48.985 122 53 122C57.015 122 60.5695 123.972 62.7479 127H261C262.131 127 263.189 126.687 264.092 126.143C264.38 124.823 265.319 123.747 266.556 123.268C266.842 122.569 267 121.803 267 121V116.874C265.275 116.43 264 114.864 264 113C264 111.136 265.275 109.57 267 109.126V102.874C265.275 102.43 264 100.864 264 99C264 97.1362 265.275 95.5701 267 95.126V88.874C265.275 88.4299 264 86.8638 264 85C264 83.1362 265.275 81.5701 267 81.126V74.874C265.275 74.4299 264 72.8638 264 71C264 69.1362 265.275 67.5701 267 67.126V60.874C265.275 60.4299 264 58.8638 264 57C264 55.1362 265.275 53.5701 267 53.126V46.874C265.275 46.4299 264 44.8638 264 43C264 41.1362 265.275 39.5701 267 39.126V32.874C265.275 32.4299 264 30.8638 264 29C264 27.1362 265.275 25.5701 267 25.126V18.874C265.275 18.4299 264 16.8638 264 15C264 13.1362 265.275 11.5701 267 11.126V6C267 5.60442 266.962 5.21779 266.889 4.84359C265.22 4.36203 264 2.82351 264 1C264 0.934752 264.002 0.869868 264.005 0.805385C263.121 0.29321 262.095 0 261 0H63.9119C62.0159 4.13106 57.843 7 53 7C48.157 7 43.9841 4.13106 42.0881 0Z"/>
</mask>
<path d="M42.0881 0L42.9969 -0.41713C42.8339 -0.772325 42.4789 -1 42.0881 -1V0ZM43.2521 127V128C43.5739 128 43.876 127.845 44.0639 127.584L43.2521 127ZM62.7479 127L61.9361 127.584C62.124 127.845 62.4261 128 62.7479 128V127ZM264.092 126.143L264.608 127C264.844 126.858 265.01 126.625 265.069 126.356L264.092 126.143ZM266.556 123.268L266.917 124.201C267.174 124.102 267.378 123.901 267.482 123.647L266.556 123.268ZM267 116.874H268C268 116.418 267.691 116.019 267.249 115.906L267 116.874ZM267 109.126L267.249 110.094C267.691 109.981 268 109.582 268 109.126H267ZM267 102.874H268C268 102.418 267.691 102.019 267.249 101.906L267 102.874ZM267 95.126L267.249 96.0945C267.691 95.9807 268 95.5823 268 95.126H267ZM267 88.874H268C268 88.4177 267.691 88.0193 267.249 87.9055L267 88.874ZM267 81.126L267.249 82.0945C267.691 81.9807 268 81.5823 268 81.126H267ZM267 74.874H268C268 74.4177 267.691 74.0193 267.249 73.9055L267 74.874ZM267 67.126L267.249 68.0945C267.691 67.9807 268 67.5823 268 67.126H267ZM267 60.874H268C268 60.4177 267.691 60.0193 267.249 59.9055L267 60.874ZM267 53.126L267.249 54.0945C267.691 53.9807 268 53.5823 268 53.126H267ZM267 46.874H268C268 46.4177 267.691 46.0193 267.249 45.9055L267 46.874ZM267 39.126L267.249 40.0945C267.691 39.9807 268 39.5823 268 39.126H267ZM267 32.874H268C268 32.4177 267.691 32.0193 267.249 31.9055L267 32.874ZM267 25.126L267.249 26.0945C267.691 25.9807 268 25.5823 268 25.126H267ZM267 18.874H268C268 18.4177 267.691 18.0193 267.249 17.9055L267 18.874ZM267 11.126L267.249 12.0945C267.691 11.9807 268 11.5823 268 11.126H267ZM266.889 4.84359L267.87 4.65197C267.798 4.2838 267.526 3.98683 267.166 3.88281L266.889 4.84359ZM264.005 0.805385L265.003 0.85313C265.021 0.479794 264.83 0.127669 264.506 -0.059773L264.005 0.805385ZM63.9119 0V-1C63.5211 -1 63.1661 -0.772325 63.0031 -0.41713L63.9119 0ZM6 1H42.0881V-1H6V1ZM1 6C1 3.23857 3.23858 1 6 1V-1C2.13401 -1 -1 2.134 -1 6H1ZM1 121V6H-1V121H1ZM6 126C3.23858 126 1 123.761 1 121H-1C-1 124.866 2.134 128 6 128V126ZM43.2521 126H6V128H43.2521V126ZM53 121C48.6496 121 44.7985 123.138 42.4403 126.416L44.0639 127.584C46.0624 124.806 49.3203 123 53 123V121ZM63.5597 126.416C61.2015 123.138 57.3504 121 53 121V123C56.6797 123 59.9376 124.806 61.9361 127.584L63.5597 126.416ZM261 126H62.7479V128H261V126ZM263.576 125.286C262.824 125.739 261.944 126 261 126V128C262.318 128 263.554 127.635 264.608 127L263.576 125.286ZM265.069 126.356C265.285 125.369 265.989 124.56 266.917 124.201L266.195 122.336C264.65 122.934 263.476 124.278 263.115 125.93L265.069 126.356ZM266 121C266 121.671 265.868 122.308 265.631 122.89L267.482 123.647C267.816 122.829 268 121.935 268 121H266ZM266 116.874V121H268V116.874H266ZM267.249 115.906C265.955 115.572 265 114.397 265 113H263C263 115.331 264.594 117.287 266.751 117.842L267.249 115.906ZM265 113C265 111.603 265.955 110.428 267.249 110.094L266.751 108.158C264.594 108.713 263 110.669 263 113H265ZM266 102.874V109.126H268V102.874H266ZM267.249 101.906C265.955 101.572 265 100.397 265 99H263C263 101.331 264.594 103.287 266.751 103.842L267.249 101.906ZM265 99C265 97.6035 265.955 96.4275 267.249 96.0945L266.751 94.1576C264.594 94.7126 263 96.6688 263 99H265ZM266 88.874V95.126H268V88.874H266ZM267.249 87.9055C265.955 87.5725 265 86.3965 265 85H263C263 87.3312 264.594 89.2874 266.751 89.8424L267.249 87.9055ZM265 85C265 83.6035 265.955 82.4275 267.249 82.0945L266.751 80.1576C264.594 80.7126 263 82.6688 263 85H265ZM266 74.874V81.126H268V74.874H266ZM263 71C263 73.3312 264.594 75.2874 266.751 75.8424L267.249 73.9055C265.955 73.5725 265 72.3965 265 71H263ZM266.751 66.1576C264.594 66.7126 263 68.6688 263 71H265C265 69.6035 265.955 68.4275 267.249 68.0945L266.751 66.1576ZM266 60.874V67.126H268V60.874H266ZM263 57C263 59.3312 264.594 61.2874 266.751 61.8424L267.249 59.9055C265.955 59.5725 265 58.3965 265 57H263ZM266.751 52.1576C264.594 52.7126 263 54.6688 263 57H265C265 55.6035 265.955 54.4275 267.249 54.0945L266.751 52.1576ZM266 46.874V53.126H268V46.874H266ZM263 43C263 45.3312 264.594 47.2874 266.751 47.8424L267.249 45.9055C265.955 45.5725 265 44.3965 265 43H263ZM266.751 38.1576C264.594 38.7126 263 40.6688 263 43H265C265 41.6035 265.955 40.4275 267.249 40.0945L266.751 38.1576ZM266 32.874V39.126H268V32.874H266ZM263 29C263 31.3312 264.594 33.2874 266.751 33.8424L267.249 31.9055C265.955 31.5725 265 30.3965 265 29H263ZM266.751 24.1576C264.594 24.7126 263 26.6688 263 29H265C265 27.6035 265.955 26.4275 267.249 26.0945L266.751 24.1576ZM266 18.874V25.126H268V18.874H266ZM263 15C263 17.3312 264.594 19.2874 266.751 19.8424L267.249 17.9055C265.955 17.5725 265 16.3965 265 15H263ZM266.751 10.1576C264.594 10.7126 263 12.6688 263 15H265C265 13.6035 265.955 12.4275 267.249 12.0945L266.751 10.1576ZM266 6V11.126H268V6H266ZM265.907 5.03522C265.968 5.3466 266 5.66906 266 6H268C268 5.53978 267.955 5.08898 267.87 4.65197L265.907 5.03522ZM267.166 3.88281C265.914 3.52147 265 2.36617 265 1H263C263 3.28085 264.526 5.20259 266.611 5.80437L267.166 3.88281ZM265 1C265 0.950656 265.001 0.901693 265.003 0.85313L263.006 0.75764C263.002 0.838044 263 0.918847 263 1H265ZM261 1C261.914 1 262.768 1.24432 263.503 1.67054L264.506 -0.059773C263.474 -0.657894 262.276 -1 261 -1V1ZM63.9119 1H261V-1H63.9119V1ZM63.0031 -0.41713C61.264 3.37191 57.4379 6 53 6V8C58.2481 8 62.7678 4.89021 64.8208 0.41713L63.0031 -0.41713ZM53 6C48.5621 6 44.736 3.37191 42.9969 -0.41713L41.1792 0.41713C43.2322 4.89021 47.7519 8 53 8V6Z" fill="#EDEDED" mask="url(#path-1-inside-1_1_677)"/>
<path d="M92.736 36.504V42.2H103.264V36.504H100.832C101.296 35.864 101.76 35.112 102.208 34.248L100.608 33.656C100.16 34.648 99.648 35.608 99.056 36.504H95.888L96.832 36.024C96.288 35.192 95.744 34.408 95.168 33.704L93.744 34.408C94.288 35.032 94.816 35.736 95.296 36.504H92.736ZM101.584 40.632H94.416V38.072H101.584V40.632ZM92.064 43.256C91.776 44.6 91.28 45.88 90.56 47.08L92.016 47.992C92.72 46.76 93.264 45.288 93.648 43.592L92.064 43.256ZM98.64 42.504L97.168 43C97.632 43.816 98.064 44.744 98.448 45.8L99.984 45.112C99.6 44.184 99.152 43.32 98.64 42.504ZM103.648 42.888L102.048 43.416C102.688 44.584 103.28 45.944 103.824 47.48L105.36 46.792C104.88 45.4 104.304 44.104 103.648 42.888ZM100.336 48.472C100.976 48.472 101.44 48.328 101.76 48.072C102.08 47.784 102.304 46.888 102.432 45.384L100.848 44.856C100.8 45.816 100.704 46.408 100.576 46.616C100.448 46.792 100.272 46.888 100.032 46.888H96.688C96.336 46.888 96.16 46.664 96.16 46.248V43.368H94.464V46.616C94.464 47.848 95.024 48.472 96.176 48.472H100.336ZM107.552 39.08H111.44C110.352 42.36 108.736 44.952 106.576 46.872L107.456 48.424C109.168 47.032 110.592 45.176 111.728 42.872C112.24 43.752 112.976 44.584 113.952 45.384C112.864 46.04 111.536 46.648 109.984 47.208L110.864 48.776C112.656 48.072 114.176 47.288 115.424 46.424C116.72 47.24 118.32 47.992 120.224 48.696L121.088 47.112C119.44 46.568 118.016 45.976 116.816 45.32C117.952 44.264 118.72 43.112 119.104 41.864V40.456H112.768C112.912 40.008 113.056 39.56 113.216 39.08H120.912V37.496H113.632C113.904 36.408 114.128 35.256 114.32 34.024L112.608 33.816C112.432 35.096 112.192 36.328 111.904 37.496H109.696L110.496 34.6L108.832 34.328L107.552 39.08ZM112.944 41.96H117.408C116.976 42.824 116.288 43.656 115.344 44.424C114.272 43.656 113.472 42.84 112.944 41.96ZM117.008 33.8L115.872 34.888C117.056 35.784 117.952 36.648 118.576 37.464L119.76 36.264C119.024 35.432 118.096 34.616 117.008 33.8ZM124.24 33.992L123.088 35.08C124.24 36.008 125.12 36.872 125.728 37.672L126.928 36.488C126.192 35.656 125.296 34.824 124.24 33.992ZM133.344 48.408H137.008L137.408 46.76C136.976 46.792 136.352 46.824 135.536 46.856C134.704 46.856 133.904 46.872 133.104 46.872C131.856 46.872 130.784 46.856 129.856 46.84C128.912 46.808 128.208 46.68 127.744 46.44C127.36 46.232 126.992 45.912 126.624 45.496L126.448 45.32V39.24H122.784V40.776H124.896V45.16C124.256 45.512 123.552 46.328 122.752 47.608L123.984 48.744C124.784 47.304 125.328 46.6 125.648 46.6C125.824 46.6 126.016 46.728 126.24 47C126.72 47.544 127.28 47.912 127.92 48.104C128.592 48.264 129.44 48.36 130.48 48.376C131.504 48.392 132.464 48.408 133.344 48.408ZM127.632 39.992V41.56H130.944C130.4 42.904 129.248 43.992 127.488 44.84L128.544 46.2C130.832 44.936 132.224 43.384 132.72 41.56H136.928V39.992H133.008C133.072 39.448 133.12 38.808 133.136 38.104H136.384V36.568H134.672C135.056 35.896 135.408 35.128 135.728 34.296L134.16 33.736C133.824 34.728 133.424 35.672 132.976 36.568H130.672L131.504 36.152C131.088 35.32 130.64 34.552 130.192 33.88L128.704 34.6C129.136 35.176 129.552 35.832 129.936 36.568H128.176V38.104H131.488C131.472 38.792 131.424 39.416 131.344 39.992H127.632ZM133.52 42.248L132.544 43.352C133.664 44.168 134.752 45.128 135.776 46.248L136.944 44.968C135.92 44.008 134.768 43.096 133.52 42.248ZM151.2 33.768C150.432 34.808 149.856 35.896 149.44 37.048C148.944 38.392 148.704 39.784 148.704 41.256C148.704 42.696 148.944 44.104 149.44 45.448C149.856 46.568 150.432 47.656 151.2 48.712H152.72C152.048 47.592 151.536 46.488 151.184 45.4C150.704 44.008 150.48 42.616 150.48 41.24C150.48 39.848 150.704 38.456 151.184 37.08C151.536 35.976 152.048 34.872 152.72 33.768H151.2ZM161.376 33.88V40.296H160.272V41.928H161.376V46.472C161.376 46.824 161.168 47.08 160.752 47.24L161.472 48.776C163.04 48.344 164.416 47.8 165.632 47.128L165.312 45.544C164.528 46.008 163.76 46.376 162.992 46.664V41.928H164.384C165.296 44.792 166.624 46.968 168.368 48.472L169.52 47.176C167.968 45.944 166.752 44.2 165.888 41.928H169.232V40.296H162.992V33.88H161.376ZM167.552 34.568C166.656 35.944 165.28 37.16 163.424 38.248L164.4 39.56C166.32 38.424 167.744 37.16 168.704 35.768L167.552 34.568ZM156.736 39.448H159.632V34.36H154.832V35.896H158.048V37.928H155.264L154.736 43.048H158.24C158.24 44.712 158.176 45.784 158.064 46.28C157.936 46.792 157.472 47.048 156.656 47.048C156.176 47.048 155.696 47.016 155.248 46.984L155.664 48.504C156.128 48.536 156.576 48.568 157.024 48.568C158.544 48.472 159.408 47.96 159.6 47.032C159.776 46.104 159.872 44.28 159.872 41.544H156.48L156.736 39.448ZM171.28 33.768C171.936 34.872 172.448 35.976 172.816 37.08C173.28 38.456 173.52 39.848 173.52 41.24C173.52 42.616 173.28 44.008 172.816 45.4C172.448 46.488 171.936 47.592 171.28 48.712H172.8C173.552 47.656 174.144 46.568 174.56 45.448C175.04 44.104 175.296 42.696 175.296 41.256C175.296 39.784 175.04 38.392 174.56 37.048C174.144 35.896 173.552 34.808 172.8 33.768H171.28Z" fill="white"/>
<path d="M104.424 72.152C103.656 72.952 102.696 73.688 101.544 74.392C100.392 75.032 99.304 75.48 98.28 75.736V79.448C100.392 78.84 102.12 77.912 103.496 76.664V95H107.24V72.152H104.424ZM117.549 72.152C116.781 72.952 115.821 73.688 114.669 74.392C113.517 75.032 112.429 75.48 111.405 75.736V79.448C113.517 78.84 115.245 77.912 116.621 76.664V95H120.365V72.152H117.549ZM126.194 72.152L124.946 85.016H128.434C128.882 84.216 129.49 83.64 130.29 83.256C130.994 82.904 131.858 82.744 132.85 82.744C134.322 82.744 135.474 83.16 136.242 84.056C137.01 84.92 137.426 86.136 137.426 87.672C137.426 89.08 136.946 90.2 136.05 91.032C135.122 91.864 133.97 92.28 132.626 92.28C131.378 92.28 130.386 91.992 129.682 91.48C128.85 90.872 128.37 89.944 128.21 88.696H124.53C124.69 90.808 125.586 92.504 127.25 93.752C128.722 94.872 130.514 95.448 132.594 95.448C134.866 95.448 136.818 94.776 138.482 93.432C140.274 91.928 141.17 90.008 141.17 87.64C141.17 85.176 140.466 83.224 139.122 81.816C137.778 80.408 136.018 79.704 133.874 79.704C132.85 79.704 131.922 79.864 131.09 80.184C130.162 80.504 129.362 81.016 128.658 81.72H128.562L129.202 75.448H140.114V72.152H126.194ZM152.038 71.704C149.574 71.704 147.622 72.344 146.182 73.656C144.87 74.808 144.23 76.248 144.23 77.976C144.23 79.128 144.486 80.12 144.998 80.92C145.542 81.752 146.374 82.424 147.526 82.872V82.936C146.438 83.224 145.542 83.864 144.774 84.856C143.878 85.944 143.462 87.192 143.462 88.6C143.462 90.648 144.198 92.28 145.702 93.56C147.174 94.808 149.286 95.448 152.038 95.448C154.758 95.448 156.87 94.808 158.374 93.56C159.846 92.28 160.614 90.648 160.614 88.6C160.614 87.192 160.166 85.944 159.302 84.856C158.534 83.864 157.606 83.224 156.55 82.936V82.872C157.67 82.424 158.502 81.752 159.078 80.92C159.59 80.12 159.846 79.128 159.846 77.976C159.846 76.248 159.174 74.808 157.894 73.656C156.422 72.344 154.47 71.704 152.038 71.704ZM152.038 74.68C153.382 74.68 154.438 75.032 155.27 75.768C155.974 76.408 156.326 77.176 156.326 78.104C156.326 79.16 156.038 79.992 155.462 80.6C154.758 81.336 153.606 81.72 152.038 81.72C150.438 81.72 149.318 81.336 148.614 80.6C148.038 79.992 147.75 79.16 147.75 78.104C147.75 77.176 148.102 76.408 148.806 75.768C149.606 75.032 150.694 74.68 152.038 74.68ZM152.038 84.504C153.638 84.504 154.854 84.888 155.718 85.688C156.486 86.392 156.902 87.384 156.902 88.6C156.902 89.752 156.486 90.648 155.686 91.352C154.79 92.056 153.574 92.44 152.038 92.44C150.47 92.44 149.286 92.088 148.454 91.384C147.59 90.68 147.174 89.752 147.174 88.6C147.174 87.384 147.558 86.392 148.39 85.656C149.222 84.888 150.438 84.504 152.038 84.504ZM162.585 72.152V75.544H174.265L166.073 95H170.041L178.041 75.16V72.152H162.585Z" fill="white"/>
</svg>
