<svg xmlns="http://www.w3.org/2000/svg" width="26" height="26" viewBox="0 0 26 26">
    <defs>
        <clipPath id="a">
            <path data-name="矩形 9268" transform="translate(14 31)" style="fill:#fff;stroke:#707070" d="M0 0h26v26H0z"/>
        </clipPath>
    </defs>
    <g data-name="蒙版组 5" transform="translate(-14 -31)" style="clip-path:url(#a)">
        <g data-name="组 3884">
            <path data-name="路径 5430" d="M-.727 141.12a1.178 1.178 0 0 1-.932-.465 1.653 1.653 0 0 1-.389-1.095v-2.08a1.6 1.6 0 0 1 .389-1.081 1.191 1.191 0 0 1 .932-.451h17.314a3.821 3.821 0 0 0-.684.287 1.7 1.7 0 0 0-.59.561q-.755.985-1.51 2.121t-1.439 2.2H-.727zm14.861 5.09v.219q0 .164.012.534t.012 1.081H-.727a1.191 1.191 0 0 1-.932-.452 1.638 1.638 0 0 1-.389-1.108v-2.052a1.6 1.6 0 0 1 .389-1.081 1.191 1.191 0 0 1 .932-.452h11.912a.555.555 0 0 0-.13.151 1.2 1.2 0 0 1-.106.15 2.051 2.051 0 0 0-.283.9 2.648 2.648 0 0 0 .094 1 1.919 1.919 0 0 0 .46.807 1.056 1.056 0 0 0 .79.328h1.11zm7.03-3.065.354.684a1.034 1.034 0 0 1 .142.438.239.239 0 0 1-.177.233 1.748 1.748 0 0 1-.578.068H19.63a.972.972 0 0 0-.778.3 1.173 1.173 0 0 0-.259.794v2.654a1.534 1.534 0 0 1-.354.93 1.042 1.042 0 0 1-.849.465h-.92a.808.808 0 0 1-.625-.315 1.722 1.722 0 0 1-.271-1.108q0-.356.012-.451a2.087 2.087 0 0 0 .012-.246q0-.15.012-.506t.012-1.231a1.836 1.836 0 0 0-.2-.985.8.8 0 0 0-.719-.3h-1.277q-.543 0-.684-.26t.236-.807q.354-.547.79-1.272t.9-1.5l.9-1.519q.436-.739.837-1.313a1.127 1.127 0 0 1 .425-.342 1.412 1.412 0 0 1 .543-.137 1.366 1.366 0 0 1 .519.068.649.649 0 0 1 .354.274q.283.575.649 1.272t.767 1.409q.4.711.79 1.409t.719 1.3z" transform="translate(17.194 -94.712)" style="fill:#7e4aeb"/>
            <path data-name="路径 5434" d="M-.727 138.906a1.178 1.178 0 0 1-.932-.465 1.653 1.653 0 0 1-.389-1.095v-2.08a1.6 1.6 0 0 1 .389-1.081 1.191 1.191 0 0 1 .932-.451h17.314a3.822 3.822 0 0 0-.684.287 1.7 1.7 0 0 0-.59.561q-.755.985-1.51 2.121t-1.439 2.2H-.727zm2.949-6.923a1.178 1.178 0 0 1-.932-.465 1.652 1.652 0 0 1-.39-1.094v-1.915a1.6 1.6 0 0 1 .389-1.081 1.191 1.191 0 0 1 .932-.451h17.952a1.226 1.226 0 0 1 .944.451 1.572 1.572 0 0 1 .4 1.081v1.915a1.623 1.623 0 0 1-.4 1.095 1.212 1.212 0 0 1-.944.465H2.222zM14.134 144v.219q0 .164.012.534t.012 1.081H-.727a1.191 1.191 0 0 1-.932-.452 1.638 1.638 0 0 1-.389-1.108v-2.052a1.6 1.6 0 0 1 .389-1.081 1.191 1.191 0 0 1 .932-.451h11.912a.555.555 0 0 0-.13.15 1.2 1.2 0 0 1-.106.15 2.051 2.051 0 0 0-.283.9 2.648 2.648 0 0 0 .094 1 1.919 1.919 0 0 0 .46.807 1.056 1.056 0 0 0 .79.328h1.11zm7.03-3.065.354.684a1.034 1.034 0 0 1 .142.438.239.239 0 0 1-.177.233 1.748 1.748 0 0 1-.578.068H19.63a.972.972 0 0 0-.778.3 1.173 1.173 0 0 0-.259.794v2.648a1.533 1.533 0 0 1-.354.93 1.042 1.042 0 0 1-.849.465h-.92a.808.808 0 0 1-.625-.315 1.722 1.722 0 0 1-.271-1.108q0-.356.012-.451a2.087 2.087 0 0 0 .012-.246q0-.15.012-.506t.012-1.231a1.836 1.836 0 0 0-.2-.985.8.8 0 0 0-.719-.3h-1.277q-.543 0-.684-.26t.236-.807q.354-.547.79-1.272t.9-1.5l.9-1.519q.436-.739.837-1.313a1.127 1.127 0 0 1 .425-.342 1.413 1.413 0 0 1 .543-.137 1.366 1.366 0 0 1 .519.068.65.65 0 0 1 .354.274q.283.575.649 1.272t.767 1.409q.4.711.79 1.409t.719 1.3z" transform="translate(17.194 -92.498)" style="opacity:.493;fill:#7e4aeb"/>
        </g>
    </g>
</svg>
