<svg xmlns="http://www.w3.org/2000/svg" width="26" height="26" viewBox="0 0 26 26">
    <g data-name="蒙版组 8" transform="translate(-336 -995)">
      <path d="M208.722 206.209v1.412a2.73 2.73 0 0 0 2.627 2.815h10.436a2.728 2.728 0 0 0 2.627-2.815v-1.412h1.314a2.714 2.714 0 0 1 2.608 2.818v18.318a2.719 2.719 0 0 1-2.608 2.818h-18.318a2.516 2.516 0 0 1-1.847-.825 2.925 2.925 0 0 1-.761-1.993v-18.318a2.719 2.719 0 0 1 2.608-2.818zM218.5 220.3l2.9-3.127a1.561 1.561 0 0 0 0-2.076 1.292 1.292 0 0 0-1.926 0l-2.9 3.125-2.9-3.125a1.3 1.3 0 0 0-1.926 0 1.547 1.547 0 0 0 0 2.076l2.9 3.127-2.9 3.127a1.561 1.561 0 0 0 0 2.076 1.29 1.29 0 0 0 1.926 0l2.9-3.125 2.9 3.125a1.3 1.3 0 0 0 1.926 0 1.545 1.545 0 0 0 0-2.076zm-8.469-13.386a2.042 2.042 0 0 1 1.957-2.114h9.16a2.12 2.12 0 0 1 0 4.227h-9.16a1.886 1.886 0 0 1-1.386-.618 2.193 2.193 0 0 1-.572-1.495z" transform="translate(132.433 790.2)" style="fill:#5f5f5f"/>
      <path data-name="手术订单取消" d="M210.911 206.914a2.042 2.042 0 0 1 1.957-2.114h9.16a2.12 2.12 0 0 1 0 4.227h-9.16a1.886 1.886 0 0 1-1.386-.618 2.193 2.193 0 0 1-.571-1.495z" transform="translate(131.552 790.2)" style="fill:#c1c1c1"/>
    </g>
</svg>
