<svg xmlns="http://www.w3.org/2000/svg" width="26" height="26" viewBox="0 0 26 26">
    <defs>
        <clipPath id="a">
            <path data-name="矩形 9270" transform="translate(12.082 27)" style="fill:#fff;stroke:#707070" d="M0 0h26v26H0z"/>
        </clipPath>
    </defs>
    <g data-name="蒙版组 7" transform="translate(-12.082 -27)" style="clip-path:url(#a)">
        <g data-name="组 3880">
            <g data-name="组件 86 – 2">
                <path data-name="24gf-banknotes" d="M57.884 141.831a2.731 2.731 0 1 1-2.717-3.007 2.873 2.873 0 0 1 2.717 3.007zm6.522-3.067v6.136a2.885 2.885 0 0 0-2.119 2.345h-14.24a2.885 2.885 0 0 0-2.119-2.345v-6.134a2.885 2.885 0 0 0 2.119-2.345h14.239a2.885 2.885 0 0 0 2.12 2.343zm-15.217 3.067a.546.546 0 1 0-.543.6.575.575 0 0 0 .542-.6zm9.783 0a3.824 3.824 0 1 0-3.8 4.209 4.022 4.022 0 0 0 3.799-4.209zm3.261 0a.546.546 0 1 0-.543.6.575.575 0 0 0 .543-.6zm5.435-7.517v15.034a1.438 1.438 0 0 1-1.359 1.5H44.025a1.438 1.438 0 0 1-1.359-1.5v-15.034a1.438 1.438 0 0 1 1.359-1.5h22.283a1.438 1.438 0 0 1 1.359 1.5zm-2.174 3.909a.575.575 0 0 0-.543-.6 1.726 1.726 0 0 1-1.63-1.8.575.575 0 0 0-.543-.6h-15.22a.575.575 0 0 0-.543.6 1.726 1.726 0 0 1-1.63 1.8.575.575 0 0 0-.543.6v7.216a.575.575 0 0 0 .543.6 1.726 1.726 0 0 1 1.63 1.8.575.575 0 0 0 .543.6h15.217a.575.575 0 0 0 .543-.6 1.726 1.726 0 0 1 1.63-1.8.575.575 0 0 0 .543-.6zm.543-6.615H44.3a.6.6 0 0 1 0-1.2h21.736a.6.6 0 0 1 0 1.2zm-1.088-2.408H45.384a.6.6 0 0 1 0-1.2h19.565a.6.6 0 0 1 0 1.2z" transform="translate(-29.585 -98.852)" style="fill:#77be43"/>
                <path data-name="24gf-banknotes" d="M58.686 142.594a2.754 2.754 0 1 1-2.744-2.99 2.875 2.875 0 0 1 2.744 2.99zm6.584-3.05v6.1a2.886 2.886 0 0 0-2.14 2.332H48.754a2.886 2.886 0 0 0-2.14-2.332v-6.1a2.886 2.886 0 0 0 2.14-2.332H63.13a2.886 2.886 0 0 0 2.14 2.331zm-15.364 3.05a.551.551 0 1 0-.549.6.575.575 0 0 0 .549-.6zm9.877 0a3.855 3.855 0 1 0-3.841 4.187 4.025 4.025 0 0 0 3.841-4.187zm3.292 0a.551.551 0 1 0-.549.6.575.575 0 0 0 .549-.6z" transform="translate(-30.334 -99.603)" style="fill:#96c971"/>
            </g>
        </g>
    </g>
</svg>
