<svg xmlns="http://www.w3.org/2000/svg" width="20" height="20" viewBox="0 0 20 20" fill="currentColor">
  <g id="Group_3" data-name="Group 3" transform="translate(-1708 -569)" fill="currentColor">
    <g id="Group_1" data-name="Group 1" transform="translate(-953.011 562.99)">
      <path id="Path_1" data-name="Path 1" d="M5.186,160.784,4.081,161.89a1.419,1.419,0,1,1-2.007-2.007l2.219-2.219a1.418,1.418,0,0,1,2.007,0,.609.609,0,0,0,.87.009l.7-.7a3.08,3.08,0,0,0-4.751-.484L.9,158.7a3.08,3.08,0,1,0,4.356,4.356l1.989-1.989A3.9,3.9,0,0,1,5.186,160.784Zm0,0" transform="translate(2664.998 -141.939)" fill="#currentColor"/>
      <path id="Path_2" data-name="Path 2" d="M184.1.9a3.084,3.084,0,0,0-4.356,0L177.75,2.889a3.9,3.9,0,0,1,2.062.287l1.105-1.105a1.419,1.419,0,0,1,2.007,2.007L180.706,6.3a1.413,1.413,0,0,1-1.868.107,1.391,1.391,0,0,1-.131-.116.622.622,0,0,0-.879,0l-.7.7a3.08,3.08,0,0,0,4.751.484L184.1,5.256A3.084,3.084,0,0,0,184.1.9Zm0,0" transform="translate(2492.027 10)" fill="#currentColor"/>
    </g>
  </g>
</svg>
