<?xml version="1.0" encoding="utf-8"?>
<!-- Generator: Adobe Illustrator 16.0.0, SVG Export Plug-In . SVG Version: 6.00 Build 0)  -->
<!DOCTYPE svg PUBLIC "-//W3C//DTD SVG 1.1//EN" "http://www.w3.org/Graphics/SVG/1.1/DTD/svg11.dtd">
<svg version="1.1" id="Layer_1" xmlns="http://www.w3.org/2000/svg" xmlns:xlink="http://www.w3.org/1999/xlink" x="0px" y="0px"
	 width="800px" height="800px" viewBox="0 0 800 800" enable-background="new 0 0 800 800" xml:space="preserve">
<path fill="#EFB533" d="M681.676,681.676c155.658-155.656,155.658-407.919,0-563.351c-155.657-155.656-407.693-155.656-563.351,0
	c-155.656,155.657-155.656,407.694,0,563.351C273.982,837.333,526.019,837.332,681.676,681.676z"/>
<path fill="#E5AA17" d="M681.676,681.676c155.658-155.656,155.658-407.919,0-563.351L118.324,681.676
	C273.981,837.332,526.019,837.332,681.676,681.676z"/>
<path fill="#F4DE7F" d="M644.118,644.118c134.844-134.841,134.844-353.395,0-488.235c-134.841-134.842-353.395-134.842-488.237,0
	c-134.842,134.84-134.842,353.395,0,488.235C290.724,778.96,509.277,778.96,644.118,644.118z"/>
<path fill="#F2D55A" d="M644.118,644.118c134.844-134.841,134.844-353.395,0-488.235L155.88,644.118
	C290.724,778.96,509.277,778.96,644.118,644.118z"/>
<path fill="#E5AA17" d="M532.354,280.769c0,25.338-28.736,43.438-30.546,41.176c-21.491-24.887-58.146-43.439-95.477-43.439
	c-37.782,0-60.859,16.969-60.859,42.308c0,29.411,30.998,37.33,74.437,46.833c51.81,11.312,120.134,32.127,120.134,106.109
	c0,57.014-39.592,96.383-105.43,106.563v21.947c0,26.017-10.181,38.461-32.807,38.461h-2.939c-23.76,0-32.132-11.765-32.132-38.461
	V581.45c-68.323-7.24-107.24-38.462-107.24-69.906c0-24.208,27.15-41.857,29.413-39.597c21.494,26.018,63.123,47.286,107.239,47.286
	c40.045,0,63.123-16.969,63.123-42.305c0-31-35.067-39.594-76.244-49.096c-49.551-10.634-115.161-30.542-115.161-104.979
	c0-54.071,38.462-92.987,99.322-104.298v-20.817c0-26.018,9.502-38.461,32.128-38.461h3.393c23.077,0,32.13,11.765,32.13,38.461
	v19.232C497.964,223.754,532.354,251.809,532.354,280.769z"/>
<g>
	<path fill="#F2D55A" d="M459.502,476.923c0-30.999-35.068-39.594-76.245-49.094c-2.944-0.679-6.111-1.358-9.276-2.036
		l-64.93,64.933c22.847,16.741,54.296,28.734,87.101,28.734C436.424,519.23,459.502,502.488,459.502,476.923z"/>
	<path fill="#F2D55A" d="M644.118,155.882L530.545,269.457c1.13,3.619,1.81,7.465,1.81,11.312c0,25.338-28.736,43.438-30.546,41.176
		c-3.619-4.071-7.69-8.144-11.991-11.765l-59.727,59.727c50.227,11.991,109.951,34.615,109.951,103.844
		c0,57.015-39.591,96.383-105.431,106.563v21.947c0,26.019-10.181,38.462-32.805,38.462h-2.943
		c-23.758,0-32.128-11.765-32.128-38.462v-20.815c-52.037-5.655-86.878-24.883-100.679-47.736L155.649,644.117
		c134.842,134.844,353.396,134.844,488.236,0C778.959,509.277,778.959,290.724,644.118,155.882z"/>
</g>
<g>
	<path fill="#EFB533" d="M289.14,471.945c-2.262-2.259-29.412,15.161-29.412,39.598c0,7.462,2.262,15.156,6.561,22.172
		l42.987-42.987C301.356,484.841,294.57,478.508,289.14,471.945z"/>
	<path fill="#EFB533" d="M420.135,367.647c-43.438-9.502-74.435-17.422-74.435-46.833c0-25.34,23.078-42.308,60.862-42.308
		c30.995,0,61.766,12.896,83.482,31.675l40.499-40.498c-7.692-24.661-40.726-46.605-95.249-52.488v-19.23
		c0-26.47-9.05-38.46-32.131-38.46h-3.393c-22.625,0-32.127,12.442-32.127,38.46v20.815
		c-60.859,11.313-99.321,50.225-99.321,104.299c0,69.909,57.692,91.629,105.883,102.942l56.107-56.11
		C426.696,369.004,423.304,368.326,420.135,367.647z"/>
</g>
<path fill="#E5AA17" d="M501.812,321.944c1.581,2.263,30.544-15.838,30.544-41.176c0-3.847-0.68-7.466-1.81-11.312l-40.499,40.496
	C494.343,313.801,498.19,317.646,501.812,321.944z"/>
</svg>
