<svg xmlns="http://www.w3.org/2000/svg" width="20" height="20" viewBox="0 0 20 20">
    <g data-name="Group 3743">
        <g data-name="Group 3745">
            <path data-name="Path 5414" d="M19.381 0H14.81a1.59 1.59 0 0 0-.976.4L8.166 6.072a.573.573 0 0 0 0 .808l4.906 4.906a.573.573 0 0 0 .808 0l5.668-5.668a1.591 1.591 0 0 0 .4-.976V.571A.573.573 0 0 0 19.381 0m-2.857 4.571a1.143 1.143 0 1 1 1.143-1.143 1.143 1.143 0 0 1-1.143 1.143" transform="translate(-2.453 4.024)" style="fill:#009ef7"/>
            <path data-name="Path 5415" d="M1.286 6.476 7.762 0H6.81a1.59 1.59 0 0 0-.976.4L.166 6.072a.573.573 0 0 0 0 .808l4.906 4.906a.573.573 0 0 0 .808 0l.358-.358-4.952-4.952z" transform="translate(2.5 4.024)" style="opacity:.5;fill:#009ef7"/>
        </g>
    </g>
</svg>
