<svg width="17" height="16" viewBox="0 0 17 16" fill="none" xmlns="http://www.w3.org/2000/svg">
<path d="M8.5 0C4.08214 0 0.5 3.58214 0.5 8C0.5 12.4179 4.08214 16 8.5 16C12.9179 16 16.5 12.4179 16.5 8C16.5 3.58214 12.9179 0 8.5 0ZM4.525 3.7875L6.14107 5.40357L5.33214 6.2125L3.71607 4.59643L4.525 3.7875ZM7.92857 2.85714H9.07143V5.14286H7.92857V2.85714ZM4.5 12H5.64286V9C5.64286 7.42143 6.92143 6.14286 8.5 6.14286C10.0786 6.14286 11.3571 7.42143 11.3571 9V12H12.5V13.1429H4.5V12ZM11.3821 6.2125L10.5732 5.40357L12.1893 3.7875L12.9982 4.59643L11.3821 6.2125Z" fill="#0075FF"/>
</svg>
