<svg width="17" height="17" viewBox="0 0 17 17" fill="none" xmlns="http://www.w3.org/2000/svg">
<g clip-path="url(#clip0_2488_135)">
<path d="M12.3642 16.3704C11.753 16.3144 11.1658 16.0856 10.673 15.7144C10.4954 15.5816 10.1994 15.2792 10.0586 15.092C9.70499 14.6168 9.49859 14.1256 9.42019 13.572C9.38819 13.3496 9.38979 12.9032 9.42179 12.6728C9.58019 11.5208 10.3642 10.5288 11.4682 10.0792C12.1498 9.80079 12.953 9.77359 13.6586 10.0056C14.6058 10.316 15.3802 11.0568 15.737 11.996C15.9418 12.5352 15.9914 13.1768 15.8746 13.772C15.8026 14.1352 15.609 14.5912 15.3882 14.924C14.8682 15.7032 14.065 16.2136 13.1562 16.3464C12.9386 16.3784 12.5674 16.3896 12.3642 16.3704ZM12.4186 14.9864C12.4746 14.9704 12.5322 14.9352 12.593 14.8808C12.6426 14.836 13.1498 14.3368 13.7178 13.7704C14.6778 12.8152 14.7578 12.732 14.8138 12.6232C14.8986 12.4568 14.8906 12.4312 14.697 12.2184C14.5194 12.0248 14.4506 11.9816 14.3402 11.9912C14.1994 12.0056 14.193 12.0104 13.1482 13.044C12.817 13.372 12.5978 13.5768 12.5578 13.5944C12.473 13.6344 12.3818 13.644 12.3242 13.62C12.2746 13.5992 12.057 13.372 11.7434 13.0088C11.5466 12.7816 11.4906 12.7368 11.3722 12.7064C11.3098 12.6904 11.2922 12.692 11.2298 12.724C11.1482 12.7624 10.7482 13.1448 10.6938 13.236C10.625 13.3512 10.6666 13.516 10.8042 13.676C10.8426 13.7208 11.0538 13.9512 11.2746 14.188C11.6826 14.628 11.9066 14.8568 11.9994 14.9288C12.1098 15.012 12.2618 15.0328 12.4186 14.9864Z" fill="#7D5CFF"/>
<path d="M2.4934 15.7864C2.0838 15.7224 1.7718 15.5688 1.5654 15.3272C1.399 15.132 1.3046 14.9128 1.2326 14.5624L1.1958 14.38V8.66001C1.1958 4.05841 1.2006 2.91281 1.2166 2.79921C1.2502 2.56721 1.3126 2.35761 1.399 2.18001C1.4694 2.03441 1.4982 1.99281 1.6182 1.87441C1.7366 1.75601 1.7798 1.72401 1.9238 1.65361C2.2614 1.48881 2.3734 1.47601 3.5494 1.47601H4.479L4.4646 1.56881C4.455 1.61841 4.4518 1.72881 4.4566 1.81201C4.4854 2.37041 4.8326 2.87601 5.2854 3.02001L5.4134 3.06001H8.0102C10.887 3.06001 10.6662 3.06801 10.8838 2.95441C11.0758 2.85361 11.2358 2.68561 11.3638 2.44721C11.4982 2.19921 11.5462 1.98641 11.5382 1.67921L11.5318 1.47601H12.4358C13.5382 1.47601 13.6726 1.48881 13.991 1.62641C14.2006 1.71761 14.2918 1.78001 14.4678 1.95601C14.6134 2.10161 14.647 2.14641 14.7174 2.28401C14.8054 2.45361 14.8678 2.62641 14.911 2.82001C14.9366 2.93041 14.9382 3.21041 14.943 6.20881L14.9478 9.47761L14.9126 9.46641C14.8934 9.46161 14.8678 9.44561 14.855 9.43441C14.8438 9.42161 14.8166 9.40721 14.7942 9.40241C14.7734 9.39761 14.7558 9.38641 14.7558 9.38001C14.7558 9.37361 14.7318 9.35921 14.7046 9.34641C14.6758 9.33521 14.6486 9.32081 14.6438 9.31601C14.631 9.30001 14.4278 9.20401 14.407 9.20401C14.3958 9.20401 14.3878 9.19761 14.3878 9.19121C14.3878 9.18321 14.3574 9.16881 14.3206 9.15761C14.2838 9.14641 14.239 9.12721 14.2214 9.11601C14.2022 9.10481 14.1494 9.08561 14.1046 9.07441C14.0582 9.06321 14.0198 9.04881 14.0198 9.04241C14.0198 9.03761 13.975 9.02321 13.9206 9.01201C13.8646 9.00081 13.8166 8.98481 13.8118 8.97841C13.807 8.97041 13.7494 8.95601 13.6838 8.94641C13.6182 8.93521 13.5606 8.92081 13.5558 8.91441C13.551 8.90641 13.4646 8.89201 13.3638 8.88081C13.263 8.87121 13.175 8.85361 13.1686 8.84561C13.151 8.82001 12.183 8.82161 12.167 8.84561C12.1606 8.85681 12.1158 8.86801 12.0646 8.86961L11.975 8.87601L11.9334 8.80881C11.8806 8.72721 11.8006 8.66481 11.6982 8.62641C11.623 8.59761 11.4902 8.59601 8.0358 8.59601C4.487 8.59601 4.4518 8.59601 4.367 8.62801C4.1782 8.69841 4.0598 8.86641 4.063 9.05841C4.0646 9.11601 4.0758 9.19441 4.0886 9.23121C4.1286 9.33681 4.2374 9.48561 4.3158 9.54001C4.4662 9.64241 4.247 9.63601 7.3462 9.63601C9.5702 9.63761 10.1654 9.64081 10.1382 9.65681C10.1206 9.66801 10.095 9.68561 10.0822 9.69681C10.0694 9.70801 10.031 9.73681 9.9958 9.76401C9.871 9.85521 9.5654 10.1464 9.4294 10.3016C9.3318 10.4136 9.0918 10.7352 9.0918 10.7544C9.0918 10.764 9.0854 10.772 9.0758 10.772C9.0678 10.772 9.0486 10.7992 9.0326 10.8328C9.0182 10.8648 8.9958 10.9016 8.9846 10.9128C8.9734 10.924 8.9638 10.94 8.9638 10.948C8.9638 10.956 8.9542 10.972 8.9446 10.9832C8.9334 10.996 8.8982 11.0552 8.8678 11.116C8.8374 11.1768 8.8022 11.236 8.7926 11.2488C8.7814 11.26 8.7718 11.2776 8.7718 11.2856C8.7718 11.2952 8.7574 11.3336 8.7398 11.3736C8.7222 11.412 8.6934 11.4744 8.6774 11.5128C8.6598 11.5496 8.6406 11.6008 8.6358 11.6248C8.6294 11.6488 8.6182 11.6728 8.6102 11.676C8.6038 11.6808 8.6006 11.6952 8.607 11.708C8.6118 11.7208 8.6086 11.732 8.599 11.732C8.591 11.732 8.575 11.7752 8.5622 11.828C8.551 11.8808 8.5366 11.924 8.5302 11.924C8.5238 11.924 8.5094 11.9784 8.4982 12.044C8.4886 12.1096 8.4742 12.164 8.4678 12.164C8.4614 12.164 8.447 12.2376 8.4358 12.3288C8.4246 12.4184 8.4086 12.5 8.4022 12.5096C8.375 12.5432 8.3574 13.1112 8.3734 13.42C8.383 13.5864 8.3942 13.7272 8.4006 13.732C8.4086 13.7368 8.4214 13.812 8.4326 13.8984C8.4438 13.9864 8.4582 14.0648 8.4662 14.0744C8.4726 14.084 8.4886 14.1448 8.4998 14.2088C8.511 14.2712 8.5254 14.324 8.5318 14.324C8.5382 14.324 8.551 14.364 8.5622 14.412C8.5734 14.4616 8.5926 14.5208 8.6054 14.5448C8.6182 14.5688 8.6278 14.596 8.6278 14.6072C8.6278 14.6184 8.6454 14.6648 8.6662 14.7112C8.687 14.7576 8.7094 14.812 8.7158 14.8328C8.7206 14.852 8.7318 14.868 8.7398 14.868C8.7478 14.868 8.759 14.892 8.7638 14.9208C8.7702 14.948 8.7846 14.9832 8.7942 14.996C8.8054 15.0088 8.823 15.044 8.8358 15.0728C8.847 15.1 8.8614 15.124 8.8678 15.124C8.8742 15.124 8.8886 15.1528 8.8998 15.1864C8.911 15.2216 8.9302 15.2536 8.9398 15.2584C8.951 15.2616 8.9654 15.2872 8.9718 15.3144C8.9782 15.3416 8.9878 15.364 8.9958 15.364C9.0038 15.364 9.0198 15.3816 9.031 15.4024C9.0982 15.524 9.1222 15.5608 9.215 15.6808L9.319 15.812L5.9766 15.8104C3.2166 15.8088 2.6118 15.8056 2.4934 15.7864ZM7.975 12.5448C8.103 12.4856 8.2134 12.3768 8.2758 12.2504C8.3206 12.1576 8.327 12.132 8.319 12.0536C8.2998 11.8472 8.1926 11.6808 8.0262 11.596L7.9318 11.548H4.5558L4.4614 11.596C4.2982 11.6792 4.1798 11.8728 4.1798 12.0584C4.1798 12.2408 4.287 12.4648 4.407 12.532C4.439 12.5496 4.4982 12.572 4.535 12.58C4.5734 12.5864 5.3414 12.5912 6.2438 12.5912L7.8838 12.588L7.975 12.5448ZM11.8198 6.53681C11.9414 6.47281 12.039 6.37361 12.0902 6.26001C12.1478 6.13041 12.1558 6.06961 12.1238 5.96241C12.0678 5.77041 11.983 5.66321 11.8278 5.58961L11.7398 5.54801H4.5718L4.4838 5.59121C4.1718 5.74481 4.087 6.11761 4.295 6.42321C4.3478 6.50001 4.4342 6.55921 4.5222 6.58161C4.5494 6.58801 6.1814 6.59121 8.1478 6.59121L11.7238 6.58801L11.8198 6.53681Z" fill="#7D5CFF"/>
<path d="M6.0985 2.1992C5.8505 2.1336 5.6521 1.924 5.5801 1.6504C5.5417 1.5096 5.5497 1.292 5.5961 1.1416C5.6393 1.0072 5.7321 0.863199 5.8281 0.783199C5.9017 0.719199 6.0457 0.651999 6.1449 0.629599C6.2569 0.605599 9.8313 0.603999 9.9577 0.627999C10.2553 0.683999 10.4985 0.954399 10.5513 1.2888C10.6009 1.6168 10.4521 1.9576 10.1817 2.1304C10.0265 2.2296 10.0841 2.228 8.0521 2.2264C6.3609 2.2264 6.1945 2.2232 6.0985 2.1992Z" fill="#7D5CFF"/>
</g>
<defs>
<clipPath id="clip0_2488_135">
<rect width="16" height="16" fill="white" transform="translate(0.5 0.5)"/>
</clipPath>
</defs>
</svg>
