<svg xmlns="http://www.w3.org/2000/svg" width="40.001" height="40.001" viewBox="0 0 40.001 40.001">
    <defs>
        <style>
            .cls-1{fill:#ffc700}
        </style>
    </defs>
    <g id="组_555" data-name="组 555" transform="translate(-780 -470)">
        <path id="减去_47" data-name="减去 47" class="cls-1" d="M-2050-9116a19.871 19.871 0 0 1-7.785-1.571 19.942 19.942 0 0 1-6.357-4.286 19.935 19.935 0 0 1-4.286-6.358A19.866 19.866 0 0 1-2070-9136a19.875 19.875 0 0 1 1.572-7.785 19.92 19.92 0 0 1 4.286-6.357 19.94 19.94 0 0 1 6.357-4.287A19.887 19.887 0 0 1-2050-9156a19.885 19.885 0 0 1 7.785 1.571 19.939 19.939 0 0 1 6.357 4.287 19.927 19.927 0 0 1 4.286 6.357A19.875 19.875 0 0 1-2030-9136a19.866 19.866 0 0 1-1.572 7.784 19.935 19.935 0 0 1-4.286 6.358 19.943 19.943 0 0 1-6.357 4.286A19.868 19.868 0 0 1-2050-9116zm0-37a16.887 16.887 0 0 0-12.021 4.979A16.888 16.888 0 0 0-2067-9136a16.885 16.885 0 0 0 4.979 12.02A16.888 16.888 0 0 0-2050-9119a16.888 16.888 0 0 0 12.021-4.979A16.884 16.884 0 0 0-2033-9136a16.888 16.888 0 0 0-4.979-12.021A16.888 16.888 0 0 0-2050-9153z" transform="translate(2850 9626)"/>
        <path id="路径_5358" data-name="路径 5358" class="cls-1" d="M15.66 8.814a3.167 3.167 0 0 1-1.743 3.433c1.943.466 3.168 1.623 2.927 4.219-.306 3.234-2.7 4.1-6.135 4.285v3.393H8.66V20.8c-.519 0-1.065 0-1.623-.014v3.354h-2.05v-3.389c-.479 0-.958-.014-1.451-.014H.875l.412-2.437a11.49 11.49 0 0 0 1.477 0 .729.729 0 0 0 .772-.679v-5.35h.213a1.264 1.264 0 0 0-.213-.014V8.441a1.057 1.057 0 0 0-1.185-.9 11.507 11.507 0 0 0-1.477 0V5.354l2.826.014c.412 0 .852 0 1.291-.014V2h2.045v3.287a63.763 63.763 0 0 1 1.623-.026V2h2.049v3.354c2.635.227 4.725 1.038 4.95 3.46zm-2.86 7.253c0-2.635-4.339-2.249-5.723-2.249v4.5c1.384 0 5.723.293 5.723-2.249zm-.945-6.335c0-2.409-3.62-2.049-4.777-2.049v4.086c1.157 0 4.777.266 4.777-2.037z" transform="translate(791.126 477)"/>
    </g>
</svg>
