<svg xmlns="http://www.w3.org/2000/svg" width="14.378" height="12.016" viewBox="0 0 14.378 12.016">
    <g data-name="组 8154">
        <path data-name="路径 5488" d="M75.4 104.329a1.46 1.46 0 0 0 .616-.205h.1l-2.054-2.054v.1a1.46 1.46 0 0 0-.205.616l-.719 2.259 2.259-.719zm7.189-8.216-.616-.719a.877.877 0 0 0-1.335 0l-.616.719 1.951 1.951.616-.616a.876.876 0 0 0 0-1.335zm-1.23 2.567-1.951-1.951-4.622 4.622 1.951 1.951 4.622-4.622z" transform="translate(-72.116 -95.086)" style="fill:currentColor"/>
        <path data-name="路径 5489" d="M0 877.714h14.378v1.027H0v-1.027z" transform="translate(0 -866.725)" style="fill:currentColor"/>
    </g>
</svg>
