<svg xmlns="http://www.w3.org/2000/svg" width="21" height="21" viewBox="0 0 21 21">
    <g data-name="Group 6826">
        <g data-name="Group 3898">
            <path data-name="Subtraction 48" d="M10 20A10 10 0 0 1 2.929 2.929a10 10 0 1 1 10.964 16.285A9.93 9.93 0 0 1 10 20zM10 .856a9.111 9.111 0 1 0 3.559.718A9.1 9.1 0 0 0 10 .856z" transform="translate(.5 .5)" style="stroke:currentColor"/>
        </g>
        <g data-name="Group 4651">
            <path data-name="Line 90" d="M8.619-9.206H0V-10h8.619z" transform="translate(6.453 24.95)" style="opacity:.5;stroke-width:.5px;fill:currentColor;stroke:currentColor"/>
            <path data-name="Union 28" d="m.052 9.014-.029-.367a6.787 6.787 0 0 1 0-1.11 1.193 1.193 0 0 1 .291-.694 1.723 1.723 0 0 1 .764-.565 1.989 1.989 0 0 1 .641-.125.928.928 0 0 0 .484-.122 1.3 1.3 0 0 0 .465-.515l.032-.048a1.481 1.481 0 0 0 .117-.588 1.943 1.943 0 0 0-.194-.746 3.415 3.415 0 0 0-.216-.46 3.246 3.246 0 0 1-.23-.5 2.128 2.128 0 0 1-.1-1.362A2.2 2.2 0 0 1 2.619.784 2.228 2.228 0 0 1 3.7.1a3.5 3.5 0 0 1 .8-.1 2.2 2.2 0 0 1 .954.2 2.693 2.693 0 0 1 1.028.981A2.67 2.67 0 0 1 6.734 2.8l-.086.337-.009.036-.015.033-.158.339-.005.02-.026.045a2.027 2.027 0 0 0-.429 1.337c0 .574 0 .574.3.9a1.4 1.4 0 0 0 .811.322 2.177 2.177 0 0 1 1.014.288 1.5 1.5 0 0 1 .632 1.086 8.487 8.487 0 0 1 0 1.1l-.021.375zm1.723-2.068a1.236 1.236 0 0 0-.4.071.906.906 0 0 0-.416.3l-.04.061-.034.022a.6.6 0 0 0-.072.242 4.086 4.086 0 0 0-.013.577h7.183a4.868 4.868 0 0 0-.012-.581.715.715 0 0 0-.294-.529 1.5 1.5 0 0 0-.607-.149 2.423 2.423 0 0 1-.345-.051H2.106a2.619 2.619 0 0 1-.331.037zm3.714-.832a1.614 1.614 0 0 1-.277-1.167 2.759 2.759 0 0 1 .524-1.715l.152-.329.07-.272a1.867 1.867 0 0 0-.165-1.067 1.955 1.955 0 0 0-.674-.647A1.888 1.888 0 0 0 3.887.874a1.442 1.442 0 0 0-.66.421 1.438 1.438 0 0 0-.376.7 1.35 1.35 0 0 0 .071.913 2.472 2.472 0 0 0 .181.39 4.188 4.188 0 0 1 .259.553 2.69 2.69 0 0 1 .245.975 2.152 2.152 0 0 1-.224 1.049l-.023.035c-.03.053-.071.124-.124.2z" transform="translate(6.352 4.5)" style="stroke-width:.5px;fill:currentColor;stroke:currentColor"/>
        </g>
    </g>
</svg>
