<svg width="18" height="18" viewBox="0 0 18 18" fill="none" xmlns="http://www.w3.org/2000/svg">
<g clip-path="url(#clip0_182_413)">
<path d="M9 16.5C11.071 16.5 12.946 15.6605 14.3033 14.3033C15.6605 12.946 16.5 11.071 16.5 9C16.5 6.92895 15.6605 5.05395 14.3033 3.6967C12.946 2.33947 11.071 1.5 9 1.5C6.92895 1.5 5.05395 2.33947 3.6967 3.6967C2.33947 5.05395 1.5 6.92895 1.5 9C1.5 11.071 2.33947 12.946 3.6967 14.3033C5.05395 15.6605 6.92895 16.5 9 16.5Z" fill="#50CD89" stroke="#50CD89" stroke-width="1.16667"/>
<path fill-rule="evenodd" clip-rule="evenodd" d="M9 13.875C9.51776 13.875 9.9375 13.4553 9.9375 12.9375C9.9375 12.4197 9.51776 12 9 12C8.48224 12 8.0625 12.4197 8.0625 12.9375C8.0625 13.4553 8.48224 13.875 9 13.875Z" fill="white"/>
<path d="M9 4.5V10.5" stroke="white" stroke-width="1.16667"/>
</g>
<defs>
<clipPath id="clip0_182_413">
<rect width="18" height="18" fill="white"/>
</clipPath>
</defs>
</svg>
