<svg width="10" height="12" viewBox="0 0 10 12" fill="none" xmlns="http://www.w3.org/2000/svg">
<path d="M6.1791 7.15519C6.11528 7.13441 5.71226 6.95269 5.96411 6.18712H5.96063C6.61695 5.5112 7.11863 4.42294 7.11863 3.35195C7.11863 1.70489 6.02327 0.841797 4.75051 0.841797C3.47698 0.841797 2.38786 1.70491 2.38786 3.35195C2.38786 4.42728 2.88678 5.51989 3.54705 6.19416C3.80436 6.86929 3.34416 7.11989 3.24787 7.15519C1.9148 7.63721 0.351074 8.51595 0.351074 9.38339V9.70839C0.351074 10.8903 2.64242 11.1589 4.76302 11.1589C6.88676 11.1589 9.14912 10.8903 9.14912 9.70839V9.38339C9.1491 8.48972 7.57756 7.61808 6.1791 7.15519Z" fill="white"/>
</svg>
