<svg xmlns="http://www.w3.org/2000/svg" width="489.892" height="408.724" viewBox="0 0 489.892 408.724">
    <g data-name="Email campaign-rafiki">
        <path data-name="路径 13810" d="M552.912 447.154v-61.282h-5.24v-29.2h-7.664V255.146h-11.07v-13.1l-23.646-11.03v-13.2h-3.275v37.335h-4.585v101.521h-4.585v-53.383H480.4v-27.51h-3.471v80.893h-9.458v-30.786h-6.221v-7.86h-14.41v-26.855h-7.886v-19h-9.694V244.5h-3.471v27.681h-9.694v19h-7.9v26.855h-14.41v7.86h-6.223v30.785h-7.375v-38.655h-14.41v-83.185h-4.585v-9.17h-30.786v9.17h-6.55V295.1h-26.2v5.9h-9.825v4.585h9.825v23.58h-27.51v-78.6h-5.9v-16.7h-12.768V174.58h-3.6v59.278h-9.17v16.7h-53.765v-5.5h-3.275v37.335h-4.585v.655h-2.751v37.335h-4.585v10.153h-9.694v-27.51h-3.472v65.5h-3.865v-27.51h-3.472v42.9h-2.109v-30.782h-6.223v-7.86H126.5v-26.855h-7.9v-19h-9.69v-27.662h-3.458v27.667h-9.708v19h-7.886v26.855h-14.41v7.86h-6.223v30.13H66.1v.655h-3.08v63.234z" transform="translate(-63.02 -38.43)" style="opacity:.1;fill:#ebebeb"/>
        <path data-name="路径 13732" d="m297.268 188.362.353-8.812s2.36-2.337 2.36-3.853-2.713-10.192-3.9-10.6-7.558 2.611-7.672 4.56 3.306 9.12 3.9 9.644l-.946 9.359z" transform="translate(40.377 -55.553)" style="fill:#e4897b"/>
        <path data-name="路径 13733" d="m381.234 177.434-3.032-8.721a24.533 24.533 0 0 1-3.58-3.124c-.832-1.14 3.808-9.359 4.492-9.359a23.587 23.587 0 0 1 6.247 3.488c.684.821-2.941 7.524-2.941 7.524l4.5 7.524z" transform="translate(52.434 -56.788)" style="fill:#e4897b"/>
        <path data-name="路径 13734" d="M365.091 174.1c4.184.41 24.282 21.9 24.282 21.9l-8.673-24.1 6.84-2.337s16.94 26.984 13.224 36.89-36.9-12.8-36.9-12.8z" transform="translate(50.941 -54.922)" style="fill:#f04e23"/>
        <path data-name="路径 13735" d="m309.1 401.037-4.685-6.122 7.934-7.661 7.216-6.954 6.783 6.338-9.12 7.627z" transform="translate(42.618 -25.419)" style="fill:#e4897b"/>
        <path data-name="路径 13736" d="M305.425 391.472c.7-.49 6.5 8.208 6.5 8.208s-1.288 9.12 1.334 14.923-2.474 5.358-6.715-.182l-10.465-13.68c-3.012-3.979 2.221-4.104 9.346-9.269z" transform="translate(41.33 -23.857)" style="fill:#2e353a"/>
        <path data-name="路径 13737" d="M309.79 400.2s3.887-1.254 4.343.844c.513 2.417-4.343-.844-4.343-.844s3.922 2.918 2.884 4.241c-1.574 1.979-2.884-4.241-2.884-4.241z" transform="translate(43.371 -22.685)" style="stroke:#f04e23;stroke-width:.483px;fill:none;stroke-linecap:round;stroke-linejoin:round"/>
        <path data-name="路径 13738" d="m316.249 394.265-4.879-7.011 7.216-6.954 6.783 6.338z" transform="translate(43.592 -25.419)" style="isolation:isolate;opacity:.2"/>
        <path data-name="路径 13739" d="M350.893 409.712h-7.718l-1.265-10.739-1.14-9.85 9.154-1.493.513 11.7z" transform="translate(47.708 -24.392)" style="fill:#e4897b"/>
        <path data-name="路径 13740" d="M341.571 406.623c0-.855 10.465-.182 10.465-.182s6.43 6.532 12.665 7.98 2.759 5.233-4.241 5.233h-17.236c-4.959-.001-1.859-4.219-1.653-13.031z" transform="translate(47.66 -21.794)" style="fill:#2e353a"/>
        <path data-name="路径 13741" d="M351.74 407.748s1.368-3.853 3.306-2.941c2.28 1.06-3.306 2.941-3.306 2.941s4.708-1.345 5.119.274c.627 2.462-5.119-.274-5.119-.274z" transform="translate(49.244 -22.007)" style="stroke:#f04e23;stroke-width:.483px;fill:none;stroke-linecap:round;stroke-linejoin:round"/>
        <path data-name="路径 13742" d="m350.437 399.559-8.527-.376-1.14-9.964 9.154-1.539z" transform="translate(47.708 -24.385)" style="isolation:isolate;opacity:.2"/>
        <path data-name="路径 13743" d="M373.809 244.26s22.8 53.865 26.368 77.52-77.36 86.993-77.36 86.993l-8.276-8.8s60.215-61.9 60.215-72.55-23.484-59.28-23.484-59.28-2.272-19.619 22.537-23.883z" transform="translate(44.036 -44.464)" style="fill:#f04e23"/>
        <path data-name="路径 13744" d="M357.313 379.276c-8.265 7.615-16.268 14.489-22.481 19.688-7.216 6.019-12.016 9.781-12.016 9.781l-8.276-8.8s8.276-8.493 18.673-19.745c8.185-8.846 17.7-19.38 25.559-28.819 9.12-10.944 15.96-20.395 15.96-23.94 0-5.62-6.532-21.785-12.7-35.83a906.788 906.788 0 0 0-10.784-23.45 20.1 20.1 0 0 1 .65-6.658c1.585-6.1 6.589-14.569 21.9-17.2 0 0 22.8 53.865 26.357 77.52 1.983 12.845-21.319 37.64-42.842 57.453z" transform="translate(44.036 -44.459)" style="opacity:.6;fill:#fff;isolation:isolate"/>
        <path data-name="路径 13745" d="m356.492 338.23-1.459 27.9c-8.265 7.615-16.268 14.489-22.481 19.688a66.405 66.405 0 0 1-1.619-18.764c8.185-8.854 17.704-19.385 25.559-28.824z" transform="translate(46.316 -31.308)" style="isolation:isolate;opacity:.2"/>
        <path data-name="路径 13746" d="M357.55 289.6a906.788 906.788 0 0 0-10.784-23.45 20.1 20.1 0 0 1 .65-6.658A7.877 7.877 0 0 1 350 258.35s6.741 10.636 7.55 31.25z" transform="translate(48.541 -42.492)" style="isolation:isolate;opacity:.2"/>
        <path data-name="路径 13747" d="M331.768 136.678s6.92-8.63 18.24-6.7 9.359 22.868 9.359 22.868a15.128 15.128 0 0 1 4.879 15c-2.212 9.5-28.033 14.991-37.905 8.39s-2.28-27.542 2.519-30.506 2.908-9.052 2.908-9.052z" transform="translate(45.014 -60.503)" style="fill:#2e353a"/>
        <path data-name="路径 13748" d="m353.267 262.874 1.379 75.833v77.611H341.73c-30.848-147.06-9.7-183.928-9.7-183.928h.08a.179.179 0 0 1 .068-.171c4.959-11.012 37.449-2.9 37.449-2.9 2.337 9.12 3.773 27.668 3.773 27.668z" transform="translate(45.494 -46.959)" style="fill:#f04e23"/>
        <path data-name="路径 13749" d="m353.267 262.874 1.379 75.833v77.611H341.73c-30.848-147.06-9.7-183.928-9.7-183.928h.08a.179.179 0 0 1 .068-.171c4.959-11.012 37.449-2.9 37.449-2.9 2.337 9.12 3.773 27.668 3.773 27.668z" transform="translate(45.494 -46.959)" style="opacity:.6;fill:#fff;isolation:isolate"/>
        <path data-name="路径 13750" d="M331 227.157v5.518l37.62-2.884v-6.521z" transform="translate(46.34 -47.403)" style="fill:#2e353a"/>
        <path data-name="矩形 9927" transform="rotate(-2.92 3677.577 -7524.45)" style="fill:#f04e23" d="M0 0h1.87v9.519H0z"/>
        <path data-name="矩形 9928" transform="rotate(-5.12 2188.76 -4362.452)" style="fill:#fff" d="M0 0h8.254v6.259H0z"/>
        <path data-name="矩形 9929" transform="rotate(-2.92 3639.109 -7976.85)" style="fill:#f04e23" d="M0 0h1.87v9.519H0z"/>
        <path data-name="矩形 9930" transform="rotate(-2.92 3677.577 -7524.45)" style="opacity:.6;fill:#fff;isolation:isolate" d="M0 0h1.87v9.519H0z"/>
        <path data-name="矩形 9931" transform="rotate(-2.92 3639.109 -7976.85)" style="opacity:.6;fill:#fff;isolation:isolate" d="M0 0h1.87v9.519H0z"/>
        <path data-name="路径 13751" d="m370.285 230.864-37.62 3.249c-.889-13.988-1.778-23.005-10.066-47.88a390.33 390.33 0 0 0-2.348-6.931 111.718 111.718 0 0 1 15.618-3.773 119.934 119.934 0 0 1 16.895-1.778c7.319 0 15.732.764 15.732.764s1.2.285 1.949 8.048c.672 7.227 1.344 21.796-.16 48.301z" transform="translate(44.835 -54.336)" style="fill:#f04e23"/>
        <path data-name="路径 13752" d="m370.285 230.864-37.62 3.249c-.889-13.988-1.778-23.005-10.066-47.88a390.33 390.33 0 0 0-2.348-6.931 111.718 111.718 0 0 1 15.618-3.773 119.934 119.934 0 0 1 16.895-1.778c7.319 0 15.732.764 15.732.764s1.2.285 1.949 8.048c.672 7.227 1.344 21.796-.16 48.301z" transform="translate(44.835 -54.336)" style="opacity:.3;isolation:isolate"/>
        <path data-name="路径 13753" d="M347.481 183.5c-9.28-1.14-12.061-5.153-12.061-5.153 5.882-5.552.992-15.173.992-15.173l11.161 2.086a31.553 31.553 0 0 0-.433 4.708c-.091 6.772 2.975 6.84 2.975 6.84 2.006 3.656-2.634 6.692-2.634 6.692z" transform="translate(46.959 -55.817)" style="fill:#e4897b"/>
        <path data-name="路径 13754" d="M347.491 165.262a31.549 31.549 0 0 0-.433 4.708c-5.381-1.254-10.727-6.84-10.727-6.84z" transform="translate(47.087 -55.822)" style="isolation:isolate;opacity:.2"/>
        <path data-name="路径 13755" d="M338.5 137.963c9.462-2.28 13.68 2.109 16.7 11.685 3.751 11.97 3.1 21.261-9.337 21.466-16.924.274-23.058-29.423-7.363-33.151z" transform="translate(46.122 -59.429)" style="fill:#e4897b"/>
        <path data-name="路径 13756" d="M346.57 149a20.656 20.656 0 0 0 3.682 3.272 2.656 2.656 0 0 1-2.28 1.653z" transform="translate(48.52 -57.801)" style="fill:#de5753"/>
        <path data-name="路径 13757" d="M341.565 149.613c.205.775 0 1.5-.559 1.642s-1.14-.376-1.3-1.14 0-1.5.559-1.642 1.107.365 1.3 1.14z" transform="translate(47.551 -57.877)" style="fill:#2e353a"/>
        <path data-name="路径 13758" d="m340 148.68 1.516-1.14s-.456 1.66-1.516 1.14z" transform="translate(47.6 -58.005)" style="fill:#2e353a"/>
        <path data-name="路径 13759" d="M349.956 147.273c.205.764-.057 1.5-.57 1.642s-1.14-.388-1.3-1.14.057-1.5.57-1.642 1.095.367 1.3 1.14z" transform="translate(48.725 -58.205)" style="fill:#2e353a"/>
        <path data-name="路径 13760" d="m348.4 146.33 1.5-1.14s-.463 1.676-1.5 1.14z" transform="translate(48.776 -58.334)" style="fill:#2e353a"/>
        <path data-name="路径 13761" d="M340.352 143.76a5.061 5.061 0 0 0-3.762 2.405" transform="translate(47.123 -58.534)" style="stroke-width:.725px;stroke:#2e353a;fill:none;stroke-linecap:round;stroke-linejoin:round"/>
        <path data-name="路径 13762" d="M345.84 142.063a4.56 4.56 0 0 1 3.956-.114" transform="translate(48.418 -58.843)" style="stroke-width:.725px;stroke:#2e353a;fill:none;stroke-linecap:round;stroke-linejoin:round"/>
        <path data-name="路径 13763" d="M348.215 156.856a25.458 25.458 0 0 0-.331 3.545l-.616.091c-2.816.376-4.252-.388-4.982-1.334a3.774 3.774 0 0 1-.673-1.607 3.508 3.508 0 0 1 0-.992 13.384 13.384 0 0 0 5.7.41c.526-.044.902-.113.902-.113z" transform="translate(47.821 -56.742)" style="fill:#2e353a"/>
        <path data-name="路径 13764" d="m347.246 156.97-.114 1.049c-2.656.342-4.56.228-5.518-.467a3.509 3.509 0 0 1 0-.992 13.384 13.384 0 0 0 5.632.41z" transform="translate(47.821 -56.742)" style="fill:#fff"/>
        <path data-name="路径 13765" d="M347.182 160.171c-2.816.376-4.252-.388-4.982-1.334a9.12 9.12 0 0 1 3.192.194 3.42 3.42 0 0 1 1.79 1.14z" transform="translate(47.908 -56.432)" style="fill:#de5753"/>
        <path data-name="路径 13766" d="M332.371 156.733s2.576-8.812.49-14.649c0 0 16.918-12.1 22.355 6.7 0 0-2.166-17.328-18.514-13.851s-10.636 27.246-.57 32.342c.001.025-5.346-5.013-3.761-10.542z" transform="translate(45.699 -59.834)" style="fill:#2e353a"/>
        <path data-name="路径 13767" d="M334.283 155.81a4.264 4.264 0 0 0-5.358-2.725c-2.861 1-2.827 7.353 4.8 7.079 1.094-.045 1.447-1.208.558-4.354z" transform="translate(45.805 -57.258)" style="fill:#e4897b"/>
        <path data-name="路径 13768" d="M370.438 182.512c-14.136 6.988-35.8 5.358-47.88 3.671a390.33 390.33 0 0 0-2.348-6.931 111.715 111.715 0 0 1 15.618-3.773 119.924 119.924 0 0 1 16.895-1.778c7.319 0 15.732.764 15.732.764s1.231.284 1.983 8.047z" transform="translate(44.83 -54.343)" style="fill:#e4897b"/>
        <path data-name="路径 13769" d="M328.385 175.23s10.135 12.95 10.442 26.984-9.052 78.774-9.052 78.774L318.49 277.8s8.527-49.818 0-97.937z" transform="translate(44.589 -54.128)" style="fill:#f04e23"/>
        <path data-name="路径 13770" d="M354.72 174s4.127 13.418 3.58 23.062 9.884 57.125 9.884 57.125l3.032 7.3-3-29.446s1.814-43.221-1.845-58.041z" transform="translate(49.661 -54.301)" style="fill:#f04e23"/>
        <path data-name="路径 13771" d="M340.082 138.414s3.5 11.913-7.159 17.305c-12.882 6.521-11.651 20.611.912 22.4 0 0-12.688-1.277-15.151-9.565s4.56-21.044 4.56-21.044-3.853-7.011 6.555-12.54c5.837-3.077 10.283 3.444 10.283 3.444z" transform="translate(44.543 -59.88)" style="fill:#2e353a"/>
        <path data-name="路径 13772" d="m338.21 391.661 16.142-2.371-1.345 6.452-13.327 1.79z" transform="translate(47.35 -24.16)" style="fill:#f04e23"/>
        <path data-name="路径 13773" d="M314.9 378.22 325.731 390l-5.415 3.1-8.356-8.869z" transform="translate(43.675 -25.71)" style="fill:#f04e23"/>
        <path data-name="路径 13774" d="M372.171 151.868c-1.949-3.488-5.7-5.084-8.459-3.557s-3.34 5.575-1.4 9.063 5.7 5.073 8.459 3.557 3.349-5.586 1.4-9.063z" transform="translate(50.564 -57.978)" style="fill:#f04e23"/>
        <path data-name="路径 13775" d="m392.453 142.153-6.7-12.323s-4.674 10.043-11.4 13.805l3.42 6.11.536.958 3.42 6.11c6.726-3.762 17.727-2.5 17.727-2.5z" transform="translate(52.409 -60.484)" style="fill:#f04e23"/>
        <path data-name="路径 13776" d="M372.171 151.868c-1.949-3.488-5.7-5.084-8.459-3.557s-3.34 5.575-1.4 9.063 5.7 5.073 8.459 3.557 3.349-5.586 1.4-9.063z" transform="translate(50.564 -57.978)" style="opacity:.8;fill:#fff;isolation:isolate"/>
        <path data-name="路径 13777" d="m392.453 142.153-6.7-12.323s-4.674 10.043-11.4 13.805l3.42 6.11.536.958 3.42 6.11c6.726-3.762 17.727-2.5 17.727-2.5z" transform="translate(52.409 -60.484)" style="opacity:.8;fill:#fff;isolation:isolate"/>
        <path data-name="路径 13778" d="M370.42 158.164s4.845 7.011 9.371 9.576a.741.741 0 0 0 .946-.205l3.865-4.777a.764.764 0 0 0-.285-1.14c-1.9-.844-6.35-3.01-8.915-6.042-3.329-3.967-4.982 2.588-4.982 2.588z" transform="translate(51.859 -57.058)" style="fill:#f04e23"/>
        <path data-name="路径 13779" d="M370.42 158.164s4.845 7.011 9.371 9.576a.741.741 0 0 0 .946-.205l3.865-4.777a.764.764 0 0 0-.285-1.14c-1.9-.844-6.35-3.01-8.915-6.042-3.329-3.967-4.982 2.588-4.982 2.588z" transform="translate(51.859 -57.058)" style="opacity:.3;isolation:isolate"/>
        <path data-name="路径 13780" d="M398.079 154.71c-1.539.855-5.917-4.036-9.77-10.933s-5.7-13.178-4.184-14.045 5.917 4.036 9.77 10.921 5.734 13.19 4.184 14.057z" transform="translate(53.704 -60.512)" style="fill:#fff"/>
        <path data-name="路径 13781" d="M397.3 152.534c-1.14.65-4.56-3.2-7.786-8.732-.182-.308-.365-.638-.547-.969s-.433-.775-.638-1.14c-2.953-5.586-4.412-10.4-3.272-11.035s4.982 3.659 8.356 9.7 5.119 11.492 3.887 12.176z" transform="translate(53.854 -60.377)" style="opacity:.4;isolation:isolate"/>
        <path data-name="路径 13782" d="M369.959 163.178s-1.653-1.14-4.651-6.544c-3.249-5.814-3.158-7.433-3.158-7.433l15.014-8.4s.182 2.109 3.226 7.558 4.56 6.418 4.56 6.418z" transform="translate(50.701 -58.949)" style="fill:#f04e23"/>
        <path data-name="路径 13783" d="M389.066 142.5c-.182-.308-.365-.638-.547-.969s-.433-.775-.638-1.14l1.55-.49a.707.707 0 0 1 .855.388l.125.228a.7.7 0 0 1-.114.923z" transform="translate(54.304 -59.078)" style="fill:#fff"/>
        <path data-name="路径 13784" d="M389.066 142.5c-.182-.308-.365-.638-.547-.969s-.433-.775-.638-1.14l1.55-.49a.707.707 0 0 1 .855.388l.125.228a.7.7 0 0 1-.114.923z" transform="translate(54.304 -59.078)" style="isolation:isolate;opacity:.2"/>
        <path data-name="路径 13785" d="M322.659 179.28c-5.233 2.28-23.94 35.682-23.94 35.682l-.365-31.578-8.447-1.14s-5.141 44.791 5.871 47.356 31.213-29.366 31.213-29.366z" transform="translate(40.42 -53.561)" style="fill:#f04e23"/>
        <path data-name="路径 13786" d="M336.33 136.65s4.845 3.5 1.243 12.631" transform="translate(47.087 -59.53)" style="stroke-width:.5px;stroke:#2e353a;fill:none;stroke-linecap:round;stroke-linejoin:round"/>
        <path data-name="路径 13787" d="M353.81 149.35s13.327 8.63 4.685 19.745" transform="translate(49.534 -57.752)" style="stroke-width:.5px;stroke:#2e353a;fill:none;stroke-linecap:round;stroke-linejoin:round"/>
        <g>
            <g data-name="freepik--group--inject-153" transform="translate(120.35)">
                <rect data-name="矩形 9932" width="215.164" height="386.996" rx="10.4" style="fill:#2e353a"/>
                <path data-name="路径 13788" d="M312.64 89.856v360.377a5.267 5.267 0 0 1-5.347 5.267H116.777a4.72 4.72 0 0 1-4.777-4.834V89.423A4.252 4.252 0 0 1 116.093 85h47.629a3.352 3.352 0 0 1 3.067 2.143L168.761 92a3.352 3.352 0 0 0 3.067 2.12h81.088a3.317 3.317 0 0 0 3.067-2.086l1.938-4.879a3.42 3.42 0 0 1 3.1-2.155h46.945a4.811 4.811 0 0 1 4.674 4.856z" transform="translate(-104.67 -76.883)" style="fill:#f04e23"/>
                <path data-name="矩形 9933" transform="translate(7.33 31.487)" style="fill:#fff;isolation:isolate;opacity:.2" d="M0 0h200.64v45.03H0z"/>
                <path data-name="矩形 9934" transform="rotate(180 16.216 11.315)" style="opacity:.6;fill:#fff;isolation:isolate" d="M0 0h2.474v3.306H0z"/>
                <path data-name="矩形 9935" transform="rotate(180 14.198 11.32)" style="opacity:.6;fill:#fff;isolation:isolate" d="M0 0h2.474v4.412H0z"/>
                <path data-name="矩形 9936" transform="rotate(180 12.181 11.32)" style="opacity:.6;fill:#fff;isolation:isolate" d="M0 0h2.474v5.506H0z"/>
                <path data-name="矩形 9937" transform="rotate(180 10.158 11.315)" style="opacity:.6;fill:#fff;isolation:isolate" d="M0 0h2.474v6.612H0z"/>
                <path data-name="矩形 9938" transform="translate(184.315 18.126)" style="opacity:.6;fill:#fff;isolation:isolate" d="M0 0h1.471v3.306H0z"/>
                <path data-name="矩形 9939" transform="rotate(180 99.243 11.32)" style="opacity:.6;fill:#fff;isolation:isolate" d="M0 0h11.708v5.711H0z"/>
                <circle data-name="椭圆 502" cx="2.759" cy="2.759" r="2.759" transform="translate(100.343 5.825)" style="opacity:.6;fill:#fff;isolation:isolate"/>
                <path data-name="路径 13789" d="M203.754 85.627a1.767 1.767 0 1 1-1.767-1.767 1.767 1.767 0 0 1 1.767 1.767z" transform="translate(-92.319 -77.043)" style="opacity:.6;fill:#fff;isolation:isolate"/>
                <path data-name="路径 13790" d="M312.64 350v63.133a5.267 5.267 0 0 1-5.347 5.267H116.777a4.72 4.72 0 0 1-4.777-4.834V350z" transform="translate(-104.67 -39.783)" style="fill:#fff;isolation:isolate;opacity:.2"/>
                <path data-name="路径 13791" d="m131.33 252.281 78.215-65.721 78.2 65.721-61.321 82.251-55.073-1.106z" transform="translate(-101.964 -62.665)" style="fill:#f04e23"/>
                <path data-name="路径 13792" d="m131.33 252.281 78.215-65.721 78.2 65.721-61.321 82.251-55.073-1.106z" transform="translate(-101.964 -62.665)" style="opacity:.3;isolation:isolate"/>
                <rect data-name="矩形 9940" width="111.253" height="162.655" rx="2.25" transform="translate(51.95 102.235)" style="fill:#fff"/>
                <rect data-name="矩形 9941" width="87.575" height="3.306" rx=".72" transform="translate(63.794 116.918)" style="isolation:isolate;opacity:.2"/>
                <rect data-name="矩形 9942" width="87.575" height="3.306" rx=".72" transform="translate(63.794 127.942)" style="isolation:isolate;opacity:.2"/>
                <rect data-name="矩形 9943" width="87.575" height="3.306" rx=".72" transform="translate(63.794 138.966)" style="isolation:isolate;opacity:.2"/>
                <rect data-name="矩形 9944" width="87.575" height="3.306" rx=".72" transform="translate(63.794 149.99)" style="isolation:isolate;opacity:.2"/>
                <rect data-name="矩形 9945" width="87.575" height="3.306" rx=".72" transform="translate(63.794 161.014)" style="isolation:isolate;opacity:.2"/>
                <rect data-name="矩形 9946" width="87.575" height="3.306" rx=".72" transform="translate(63.794 172.037)" style="isolation:isolate;opacity:.2"/>
                <rect data-name="矩形 9947" width="87.575" height="3.306" rx=".72" transform="translate(63.794 183.061)" style="isolation:isolate;opacity:.2"/>
                <rect data-name="矩形 9948" width="87.575" height="3.306" rx=".72" transform="translate(63.794 194.074)" style="isolation:isolate;opacity:.2"/>
                <rect data-name="矩形 9949" width="87.575" height="3.306" rx=".72" transform="translate(63.794 205.097)" style="isolation:isolate;opacity:.2"/>
                <path data-name="路径 13793" d="m213.775 301.529-.433-.239a5.187 5.187 0 0 0-5.073 0l-2.109 1.2L131 244.21v96.19a5.05 5.05 0 0 0 5.153 5.027H283.03c2.827 0 4.15-2.177 4.15-5.027v-96.19z" transform="translate(-102.01 -54.594)" style="fill:#f04e23"/>
                <path data-name="路径 13794" d="m213.775 301.529-.433-.239a5.187 5.187 0 0 0-5.073 0l-2.109 1.2L131 244.21v96.19a5.05 5.05 0 0 0 5.153 5.027H283.03c2.827 0 4.15-2.177 4.15-5.027v-96.19z" transform="translate(-102.01 -54.594)" style="opacity:.6;fill:#fff;isolation:isolate"/>
                <path data-name="路径 13795" d="m200.055 293.04 3.4 2.633-53.115 30.153z" transform="translate(-99.302 -47.758)" style="isolation:isolate;opacity:.2"/>
                <path data-name="路径 13796" d="M261.634 327.014 203.54 294.8l2.679-2.1z" transform="translate(-91.854 -47.805)" style="isolation:isolate;opacity:.2"/>
                <rect data-name="矩形 9950" width="65.356" height="6.076" rx=".83" transform="translate(76.87 38.521)" style="fill:#f04e23"/>
                <path data-name="路径 13797" d="M279.73 140.6h-29.264a3.808 3.808 0 0 1-3.8-3.808 3.8 3.8 0 0 1 3.8-3.8h29.264a3.8 3.8 0 0 1 3.8 3.8 3.808 3.808 0 0 1-3.8 3.808z" transform="translate(-85.816 -70.163)" style="fill:#f04e23"/>
                <path data-name="矩形 9951" transform="translate(21.774 319.713)" style="fill:#f04e23" d="M0 0h29.264v27.736H0z"/>
                <path data-name="矩形 9952" transform="translate(57.365 319.713)" style="fill:#f04e23" d="M0 0h29.264v27.736H0z"/>
                <path data-name="矩形 9953" transform="translate(92.967 319.713)" style="fill:#f04e23" d="M0 0h29.264v27.736H0z"/>
                <path data-name="矩形 9954" transform="translate(128.569 319.713)" style="fill:#f04e23" d="M0 0h29.264v27.736H0z"/>
                <path data-name="矩形 9955" transform="translate(164.16 319.713)" style="fill:#f04e23" d="M0 0h29.264v27.736H0z"/>
                <path data-name="路径 13798" d="M279.73 400.764h-29.264a3.8 3.8 0 0 1-3.8-3.8 3.808 3.808 0 0 1 3.8-3.808h29.264a3.808 3.808 0 0 1 3.8 3.808 3.8 3.8 0 0 1-3.8 3.8z" transform="translate(-85.816 -33.741)" style="fill:#f04e23"/>
                <path data-name="路径 13799" d="M292.975 78 105.57 344.669V226.531L209.857 78z" transform="translate(-105.57 -77.863)" style="fill:#fff;isolation:isolate;opacity:.1"/>
                <path data-name="路径 13800" d="M184.5 78 106 190.108V89.788A11.332 11.332 0 0 1 117.4 78z" transform="translate(-105.511 -77.863)" style="fill:#fff;isolation:isolate;opacity:.1"/>
            </g>
        </g>
        <g>
            <g data-name="freepik--group--inject-153">
                <g data-name="freepik--group--inject-153">
                    <path data-name="路径 13801" d="M372.148 94.911c-50.263 7.079-117.215 27.029-174.716 52.052-37.415 16.279-102.68 48.689-119.358 82.821-4.993 10.26-5.039 19.768-.114 28.306s16.359 14.478 32.479 18.525v-1.87c-15.39-3.887-26.357-9.508-30.951-17.5s-4.56-17.02.171-26.71c12-24.578 55.2-54.469 118.56-82.012 57.274-25.012 124.055-44.859 174.169-51.916a.858.858 0 1 0-.239-1.7z" transform="translate(10.402 -65.374)" style="fill:#fff"/>
                    <path data-name="路径 13802" d="M372.148 94.911c-50.263 7.079-117.215 27.029-174.716 52.052-37.415 16.279-102.68 48.689-119.358 82.821-4.993 10.26-5.039 19.768-.114 28.306s16.359 14.478 32.479 18.525v-1.87c-15.39-3.887-26.357-9.508-30.951-17.5s-4.56-17.02.171-26.71c12-24.578 55.2-54.469 118.56-82.012 57.274-25.012 124.055-44.859 174.169-51.916a.858.858 0 1 0-.239-1.7z" transform="translate(10.402 -65.374)" style="fill:#fff"/>
                    <path data-name="路径 13803" d="M78.7 258.524a.844.844 0 0 1-.741-.433c-4.925-8.539-4.879-18.069.114-28.306 16.678-34.132 81.943-66.542 119.358-82.821 57.5-25.023 124.454-44.973 174.716-52.052a.858.858 0 0 1 .239 1.7c-50.16 7.057-116.9 26.95-174.272 51.916-63.3 27.542-106.5 57.433-118.457 82.012-4.731 9.69-4.788 18.685-.171 26.71a.855.855 0 0 1-.319 1.14.843.843 0 0 1-.467.137z" transform="translate(10.402 -65.374)" style="fill:#fff"/>
                </g>
                <g data-name="组 8291" style="opacity:.8;isolation:isolate">
                    <path data-name="路径 13804" d="M78.7 258.524a.844.844 0 0 1-.741-.433c-4.925-8.539-4.879-18.069.114-28.306 16.678-34.132 81.943-66.542 119.358-82.821 57.5-25.023 124.454-44.973 174.716-52.052a.858.858 0 0 1 .239 1.7c-50.16 7.057-116.9 26.95-174.272 51.916-63.3 27.542-106.5 57.433-118.457 82.012-4.731 9.69-4.788 18.685-.171 26.71a.855.855 0 0 1-.319 1.14.843.843 0 0 1-.467.137z" transform="translate(10.402 -65.374)" style="fill:#fff"/>
                </g>
            </g>
            <g data-name="freepik--group--inject-153">
                <path data-name="路径 13805" d="M356.18 108.65 404.607 83l-42.362 13.942z" transform="translate(49.866 -67.04)" style="fill:#f04e23"/>
                <path data-name="路径 13806" d="M356.18 108.65 404.607 83l-42.362 13.942z" transform="translate(49.866 -67.04)" style="opacity:.3;isolation:isolate"/>
                <path data-name="路径 13807" d="m346.14 85.941 8.96 6.179 2.485 16.53 6.065-11.708 15.344 7.718L406.013 83z" transform="translate(48.46 -67.04)" style="fill:#f04e23"/>
                <path data-name="路径 13808" d="m346.14 85.941 8.96 6.179 2.485 16.53 6.065-11.708 15.344 7.718L406.013 83z" transform="translate(48.46 -67.04)" style="opacity:.6;fill:#fff;isolation:isolate"/>
                <path data-name="路径 13809" d="M354 92.12 404.912 83 362.55 96.942l-6.065 11.708z" transform="translate(49.56 -67.04)" style="isolation:isolate;opacity:.2"/>
            </g>
        </g>
    </g>
</svg>
