<svg xmlns="http://www.w3.org/2000/svg" width="375" height="374" viewBox="0 0 375 374">
    <defs>
        <clipPath id="dl4fsuadga">
            <path data-name="矩形 10002" transform="translate(0 144)" style="stroke:#707070;fill:#fff" d="M0 0h375v374H0z"/>
        </clipPath>
        <clipPath id="j4p4sp3ovb">
            <path data-name="矩形 8542" style="stroke:#fb6943;fill:none" d="M0 0h324v67.965H0z"/>
        </clipPath>
    </defs>
    <g data-name="蒙版组 2346" transform="translate(0 -144)" style="clip-path:url(#dl4fsuadga)">
        <g data-name="组 8572">
            <g data-name="Email campaign-rafiki">
                <path data-name="路径 13810" d="M478.257 405.616v-51.943h-4.442v-24.75h-6.5v-86.055h-9.383v-11.1l-20.042-9.349v-11.196h-2.776v31.646h-3.886v86.054h-3.886v-45.248H416.8v-23.318h-2.942v68.566h-8.017v-26.094h-5.274v-6.662H388.35V273.4h-6.684v-16.1h-8.217v-23.459h-2.942V257.3h-8.217v16.1h-6.7v22.763h-12.21v6.662h-5.274v26.094h-6.252v-32.753H319.64v-70.509h-3.886v-7.773h-26.095v7.773h-5.552v51.077H261.9v5h-8.328v3.886h8.328v19.98h-23.318v-66.618h-5v-14.157h-10.823V174.58h-3.054v50.245h-7.773v14.157h-45.57v-4.664h-2.776v31.646H159.7v.555h-2.332v31.646h-3.886v8.605h-8.217v-23.317h-2.942v55.519h-3.276v-23.318h-2.943v36.365h-1.788v-26.094h-5.274v-6.662h-12.213V296.5h-6.7v-16.1h-8.217v-23.452h-2.927V280.4h-8.228v16.1h-6.684v22.763H71.859v6.662h-5.275v25.539h-.955v.555H63.02v53.6z" transform="translate(-63.02 112.365)" style="opacity:.1;fill:#ebebeb"/>
                <path data-name="路径 13732" d="m289.718 176.317-.171-4.258s-1.14-1.129-1.14-1.862 1.311-4.924 1.884-5.122 3.652 1.261 3.707 2.2-1.6 4.406-1.884 4.66l.457 4.522z" transform="translate(-77.38 200.472)" style="fill:#e4897b"/>
                <path data-name="路径 13733" d="m377.271 166.475 1.465-4.213a11.854 11.854 0 0 0 1.729-1.509c.4-.551-1.84-4.522-2.17-4.522a11.394 11.394 0 0 0-3.018 1.685c-.331.4 1.421 3.635 1.421 3.635l-2.176 3.635z" transform="translate(-211.326 204.437)" style="fill:#e4897b"/>
                <path data-name="路径 13734" d="M381.351 171.752c-2.021.2-11.732 10.581-11.732 10.581l4.191-11.644-3.3-1.129s-8.185 13.037-6.389 17.823 17.829-6.185 17.829-6.185z" transform="translate(-206.885 198.449)" style="fill:#f04e23"/>
                <path data-name="路径 13735" d="m312.743 390.319 2.264-2.958-3.833-3.7-3.486-3.36-3.277 3.062 4.406 3.685z" transform="translate(-107.202 103.781)" style="fill:#e4897b"/>
                <path data-name="路径 13736" d="M299.339 391.462c-.336-.237-3.139 3.966-3.139 3.966s.622 4.406-.644 7.21 1.2 2.589 3.244-.088l5.056-6.609c1.454-1.923-1.074-1.984-4.517-4.479z" transform="translate(-91.402 98.771)" style="fill:#2e353a"/>
                <path data-name="路径 13737" d="M311.907 400s-1.878-.606-2.1.408c-.248 1.168 2.1-.408 2.1-.408s-1.895 1.41-1.393 2.049c.759.962 1.393-2.049 1.393-2.049z" transform="translate(-107.065 95.011)" style="stroke-linecap:round;stroke-linejoin:round;stroke:#f04e23;stroke-width:.483px;fill:none"/>
                <path data-name="路径 13738" d="m315.776 387.047 2.357-3.387-3.486-3.36-3.277 3.062z" transform="translate(-114.162 103.781)" style="isolation:isolate;opacity:.2"/>
                <path data-name="路径 13739" d="M340.77 398.3h3.73l.611-5.188.551-4.759-4.423-.722-.248 5.651z" transform="translate(-157.882 100.489)" style="fill:#e4897b"/>
                <path data-name="路径 13740" d="M353.17 406.4c0-.413-5.056-.088-5.056-.088s-3.106 3.156-6.119 3.855-1.333 2.528 2.049 2.528h8.328c2.395-.001.897-2.038.798-6.295z" transform="translate(-165.755 92.151)" style="fill:#2e353a"/>
                <path data-name="路径 13741" d="M354.236 406.156s-.661-1.862-1.6-1.421c-1.1.512 1.6 1.421 1.6 1.421s-2.275-.65-2.473.132c-.303 1.19 2.473-.132 2.473-.132z" transform="translate(-172.5 92.835)" style="stroke-linecap:round;stroke-linejoin:round;stroke:#f04e23;stroke-width:.483px;fill:none"/>
                <path data-name="路径 13742" d="m340.77 393.419 4.12-.182.551-4.814-4.423-.744z" transform="translate(-157.662 100.466)" style="isolation:isolate;opacity:.2"/>
                <path data-name="路径 13743" d="M327.335 244.26s-11.016 26.025-12.74 37.453 37.376 42.03 37.376 42.03l4-4.252s-29.092-29.908-29.092-35.052 11.345-28.639 11.345-28.639 1.096-9.48-10.889-11.54z" transform="translate(-153.745 164.893)" style="fill:#f04e23"/>
                <path data-name="路径 13744" d="M335.3 309.513c3.993 3.679 7.86 7 10.861 9.512 3.486 2.908 5.805 4.726 5.805 4.726l4-4.252s-4-4.1-9.022-9.54c-3.955-4.274-8.554-9.363-12.349-13.924-4.406-5.288-7.711-9.853-7.711-11.566 0-2.715 3.156-10.525 6.136-17.311 2.677-6.059 5.21-11.33 5.21-11.33a9.711 9.711 0 0 0-.314-3.217c-.766-2.947-3.184-7.039-10.581-8.311 0 0-11.016 26.025-12.734 37.453-.962 6.208 10.299 18.187 20.699 27.76z" transform="translate(-153.735 164.875)" style="opacity:.6;isolation:isolate;fill:#fff"/>
                <path data-name="路径 13745" d="m330.828 338.23.7 13.478c3.993 3.679 7.86 7 10.861 9.512a32.087 32.087 0 0 0 .782-9.066c-3.949-4.274-8.548-9.364-12.343-13.924z" transform="translate(-149.973 122.68)" style="isolation:isolate;opacity:.2"/>
                <path data-name="路径 13746" d="M346.717 273.447c2.677-6.059 5.21-11.33 5.21-11.33a9.71 9.71 0 0 0-.314-3.217 3.807 3.807 0 0 0-1.25-.551s-3.255 5.14-3.646 15.098z" transform="translate(-167.448 158.563)" style="isolation:isolate;opacity:.2"/>
                <path data-name="路径 13747" d="M337.416 133.068a9.758 9.758 0 0 0-8.813-3.239c-5.469.931-4.522 11.049-4.522 11.049a7.309 7.309 0 0 0-2.357 7.248c1.069 4.588 13.544 7.243 18.314 4.054s1.1-13.307-1.217-14.739-1.405-4.373-1.405-4.373z" transform="translate(-143.986 216.358)" style="fill:#2e353a"/>
                <path data-name="路径 13748" d="m334.684 244.044-.666 36.638v37.5h6.24c14.9-71.051 4.687-88.863 4.687-88.863h-.039a.086.086 0 0 0-.033-.083c-2.4-5.321-18.093-1.4-18.093-1.4-1.129 4.406-1.823 13.368-1.823 13.368z" transform="translate(-151.874 172.897)" style="fill:#f04e23"/>
                <path data-name="路径 13749" d="m334.684 244.044-.666 36.638v37.5h6.24c14.9-71.051 4.687-88.863 4.687-88.863h-.039a.086.086 0 0 0-.033-.083c-2.4-5.321-18.093-1.4-18.093-1.4-1.129 4.406-1.823 13.368-1.823 13.368z" transform="translate(-151.874 172.897)" style="opacity:.6;isolation:isolate;fill:#fff"/>
                <path data-name="路径 13750" d="M349.176 225.148v2.666L331 226.42v-3.15z" transform="translate(-156.016 174.322)" style="fill:#2e353a"/>
                <path data-name="矩形 9927" transform="scale(-1) rotate(2.92 7803.14 -3880.148)" style="fill:#f04e23" d="M0 0h.903v4.599H0z"/>
                <path data-name="矩形 9928" transform="rotate(-174.88 100.42 196.71)" style="fill:#fff" d="M0 0h3.988v3.024H0z"/>
                <path data-name="矩形 9929" transform="scale(-1) rotate(2.92 7784.59 -3661.831)" style="fill:#f04e23" d="M0 0h.903v4.599H0z"/>
                <path data-name="矩形 9930" transform="scale(-1) rotate(2.92 7803.14 -3880.148)" style="opacity:.6;isolation:isolate;fill:#fff" d="M0 0h.903v4.599H0z"/>
                <path data-name="矩形 9931" transform="scale(-1) rotate(2.92 7784.59 -3661.831)" style="opacity:.6;isolation:isolate;fill:#fff" d="M0 0h.903v4.599H0z"/>
                <path data-name="路径 13751" d="m320.688 201.344 18.176 1.57c.43-6.758.859-11.115 4.863-23.133.347-1.052.721-2.17 1.135-3.349a53.974 53.974 0 0 0-7.546-1.823 57.949 57.949 0 0 0-8.163-.859c-3.536 0-7.6.369-7.6.369s-.578.138-.942 3.889c-.325 3.492-.65 10.531.077 23.336z" transform="translate(-145.782 196.567)" style="fill:#f04e23"/>
                <path data-name="路径 13752" d="m320.688 201.344 18.176 1.57c.43-6.758.859-11.115 4.863-23.133.347-1.052.721-2.17 1.135-3.349a53.974 53.974 0 0 0-7.546-1.823 57.949 57.949 0 0 0-8.163-.859c-3.536 0-7.6.369-7.6.369s-.578.138-.942 3.889c-.325 3.492-.65 10.531.077 23.336z" transform="translate(-145.782 196.567)" style="opacity:.3;isolation:isolate"/>
                <path data-name="路径 13753" d="M336.936 172.99c4.483-.551 5.827-2.49 5.827-2.49-2.842-2.682-.479-7.331-.479-7.331l-5.392 1.008a15.243 15.243 0 0 1 .209 2.275c.044 3.272-1.437 3.3-1.437 3.3-.97 1.773 1.272 3.238 1.272 3.238z" transform="translate(-152.037 201.32)" style="fill:#e4897b"/>
                <path data-name="路径 13754" d="M336.33 164.16a15.238 15.238 0 0 1 .209 2.275c2.6-.606 5.183-3.3 5.183-3.3z" transform="translate(-151.498 201.338)" style="isolation:isolate;opacity:.2"/>
                <path data-name="路径 13755" d="M338.479 137.657c-4.572-1.1-6.609 1.019-8.069 5.646-1.812 5.783-1.5 10.272 4.511 10.371 8.179.132 11.142-14.216 3.558-16.017z" transform="translate(-148.838 212.909)" style="fill:#e4897b"/>
                <path data-name="路径 13756" d="M348.349 149a9.984 9.984 0 0 1-1.779 1.581 1.283 1.283 0 0 0 1.1.8z" transform="translate(-163.765 207.685)" style="fill:#de5753"/>
                <path data-name="路径 13757" d="M339.686 149.012c-.1.375 0 .727.27.793s.551-.182.628-.551 0-.727-.27-.793-.534.176-.628.551z" transform="translate(-152.216 207.932)" style="fill:#2e353a"/>
                <path data-name="路径 13758" d="m340.733 148.091-.733-.551s.22.804.733.551z" transform="translate(-152.53 208.341)" style="fill:#2e353a"/>
                <path data-name="路径 13759" d="M348.069 146.672c-.1.369.028.727.275.793s.551-.187.628-.551-.028-.727-.275-.793-.529.179-.628.551z" transform="translate(-165.219 208.983)" style="fill:#2e353a"/>
                <path data-name="路径 13760" d="m349.127 145.741-.727-.551s.226.81.727.551z" transform="translate(-165.551 209.397)" style="fill:#2e353a"/>
                <path data-name="路径 13761" d="M336.59 143.76a2.445 2.445 0 0 1 1.818 1.162" transform="translate(-148.327 210.039)" style="stroke-width:.725px;stroke:#2e353a;stroke-linecap:round;stroke-linejoin:round;fill:none"/>
                <path data-name="路径 13762" d="M347.751 141.8a2.2 2.2 0 0 0-1.911-.055" transform="translate(-162.765 211.031)" style="stroke-width:.725px;stroke:#2e353a;stroke-linecap:round;stroke-linejoin:round;fill:none"/>
                <path data-name="路径 13763" d="M341.579 156.7a12.31 12.31 0 0 1 .16 1.713l.3.044c1.36.182 2.054-.187 2.407-.644a1.824 1.824 0 0 0 .325-.777 1.7 1.7 0 0 0 0-.479 6.467 6.467 0 0 1-2.754.2c-.256-.021-.438-.057-.438-.057z" transform="translate(-157.452 204.289)" style="fill:#2e353a"/>
                <path data-name="路径 13764" d="m341.579 156.758.055.507a4.114 4.114 0 0 0 2.666-.226 1.7 1.7 0 0 0 0-.479 6.467 6.467 0 0 1-2.721.198z" transform="translate(-156.984 204.289)" style="fill:#fff"/>
                <path data-name="路径 13765" d="M342.2 159.45c1.36.182 2.054-.187 2.407-.644a4.406 4.406 0 0 0-1.542.094 1.652 1.652 0 0 0-.865.55z" transform="translate(-157.616 203.293)" style="fill:#de5753"/>
                <path data-name="路径 13766" d="M337.458 145.229s-1.245-4.258-.237-7.078c0 0-8.174-5.844-10.8 3.239 0 0 1.046-8.372 8.945-6.692s5.139 13.164.275 15.626c0 .011 2.583-2.424 1.817-5.095z" transform="translate(-144.651 214.21)" style="fill:#2e353a"/>
                <path data-name="路径 13767" d="M327.418 154.295a2.06 2.06 0 0 1 2.589-1.316c1.382.485 1.366 3.553-2.319 3.42-.529-.022-.7-.584-.27-2.104z" transform="translate(-135.586 205.943)" style="fill:#e4897b"/>
                <path data-name="路径 13768" d="M320.21 177.958c6.83 3.376 17.295 2.589 23.133 1.774.347-1.052.722-2.17 1.135-3.349a53.976 53.976 0 0 0-7.546-1.823 57.939 57.939 0 0 0-8.163-.859c-3.536 0-7.6.369-7.6.369s-.595.137-.959 3.888z" transform="translate(-145.375 196.589)" style="fill:#e4897b"/>
                <path data-name="路径 13769" d="M323.539 175.23s-4.9 6.257-5.045 13.037 4.373 38.059 4.373 38.059l5.453-1.542s-4.12-24.069 0-47.318z" transform="translate(-128.269 195.902)" style="fill:#f04e23"/>
                <path data-name="路径 13770" d="M362.69 174s-1.994 6.483-1.729 11.142-4.775 27.6-4.775 27.6l-1.465 3.525 1.449-14.227s-.876-20.88.892-28.04z" transform="translate(-182.595 196.455)" style="fill:#f04e23"/>
                <path data-name="路径 13771" d="M318.426 136.208s-1.691 5.756 3.459 8.361c6.224 3.15 5.629 9.958-.441 10.823 0 0 6.13-.617 7.32-4.621s-2.2-10.167-2.2-10.167 1.862-3.387-3.167-6.059c-2.823-1.487-4.971 1.663-4.971 1.663z" transform="translate(-128.786 214.358)" style="fill:#2e353a"/>
                <path data-name="路径 13772" d="m346.009 390.436-7.8-1.146.65 3.117 6.439.865z" transform="translate(-156.82 99.743)" style="fill:#f04e23"/>
                <path data-name="路径 13773" d="m317.192 378.22-5.232 5.69 2.616 1.5 4.037-4.285z" transform="translate(-114.967 104.716)" style="fill:#f04e23"/>
                <path data-name="路径 13774" d="M361.724 149.73c.942-1.685 2.754-2.457 4.087-1.718s1.614 2.693.677 4.379-2.754 2.451-4.087 1.718-1.619-2.699-.677-4.379z" transform="translate(-190.496 208.255)" style="fill:#f04e23"/>
                <path data-name="路径 13775" d="m377.732 135.784 3.239-5.954s2.258 4.852 5.508 6.67l-1.652 2.952-.259.463-1.652 2.952c-3.25-1.818-8.565-1.206-8.565-1.206z" transform="translate(-217.195 216.297)" style="fill:#f04e23"/>
                <path data-name="路径 13776" d="M361.724 149.73c.942-1.685 2.754-2.457 4.087-1.718s1.614 2.693.677 4.379-2.754 2.451-4.087 1.718-1.619-2.699-.677-4.379z" transform="translate(-190.496 208.255)" style="opacity:.8;isolation:isolate;fill:#fff"/>
                <path data-name="路径 13777" d="m377.732 135.784 3.239-5.954s2.258 4.852 5.508 6.67l-1.652 2.952-.259.463-1.652 2.952c-3.25-1.818-8.565-1.206-8.565-1.206z" transform="translate(-217.195 216.297)" style="opacity:.8;isolation:isolate;fill:#fff"/>
                <path data-name="路径 13778" d="M377.343 156.168s-2.341 3.387-4.527 4.627a.358.358 0 0 1-.457-.1l-1.867-2.308a.369.369 0 0 1 .138-.551 12.9 12.9 0 0 0 4.307-2.919c1.608-1.917 2.406 1.251 2.406 1.251z" transform="translate(-205.895 205.304)" style="fill:#f04e23"/>
                <path data-name="路径 13779" d="M377.343 156.168s-2.341 3.387-4.527 4.627a.358.358 0 0 1-.457-.1l-1.867-2.308a.369.369 0 0 1 .138-.551 12.9 12.9 0 0 0 4.307-2.919c1.608-1.917 2.406 1.251 2.406 1.251z" transform="translate(-205.895 205.304)" style="opacity:.3;isolation:isolate"/>
                <path data-name="路径 13780" d="M383.858 141.749c.744.413 2.859-1.95 4.72-5.282s2.754-6.367 2.021-6.786-2.859 1.95-4.72 5.277-2.77 6.372-2.021 6.791z" transform="translate(-226.665 216.385)" style="fill:#fff"/>
                <path data-name="路径 13781" d="M384.861 141.195c.551.314 2.2-1.548 3.762-4.219.088-.149.176-.308.264-.468s.209-.375.308-.551c1.427-2.7 2.132-5.023 1.581-5.332s-2.407 1.768-4.037 4.687-2.473 5.552-1.878 5.883z" transform="translate(-227.364 215.953)" style="opacity:.4;isolation:isolate"/>
                <path data-name="路径 13782" d="M369.393 151.612a10.261 10.261 0 0 0 2.247-3.161c1.57-2.809 1.526-3.591 1.526-3.591l-7.254-4.059a11.3 11.3 0 0 1-1.559 3.652c-1.471 2.633-2.2 3.1-2.2 3.1z" transform="translate(-197.163 211.369)" style="fill:#f04e23"/>
                <path data-name="路径 13783" d="M388.59 141.143c.088-.149.176-.308.264-.468s.209-.375.308-.551l-.749-.237a.342.342 0 0 0-.413.187l-.061.11a.336.336 0 0 0 .055.446z" transform="translate(-227.332 211.786)" style="fill:#fff"/>
                <path data-name="路径 13784" d="M388.59 141.143c.088-.149.176-.308.264-.468s.209-.375.308-.551l-.749-.237a.342.342 0 0 0-.413.187l-.061.11a.336.336 0 0 0 .055.446z" transform="translate(-227.332 211.786)" style="isolation:isolate;opacity:.2"/>
                <path data-name="路径 13785" d="M290.8 179.28c2.528 1.1 11.566 17.24 11.566 17.24l.176-15.257 4.081-.551s2.484 21.64-2.837 22.88-15.078-14.192-15.078-14.192z" transform="translate(-90.751 194.083)" style="fill:#f04e23"/>
                <path data-name="路径 13786" d="M337.574 136.65s-2.341 1.691-.6 6.1" transform="translate(-147.35 213.233)" style="stroke-width:.5px;stroke:#2e353a;stroke-linecap:round;stroke-linejoin:round;fill:none"/>
                <path data-name="路径 13787" d="M357.482 149.35s-6.439 4.169-2.264 9.54" transform="translate(-176.885 207.528)" style="stroke-width:.5px;stroke:#2e353a;stroke-linecap:round;stroke-linejoin:round;fill:none"/>
                <g>
                    <g data-name="freepik--group--inject-153" transform="translate(205.619 277.887)">
                        <rect data-name="矩形 9932" width="126.186" height="226.959" rx="10.4" style="fill:#2e353a"/>
                        <path data-name="路径 13788" d="M229.667 87.848V299.2a3.089 3.089 0 0 1-3.136 3.089H114.8a2.768 2.768 0 0 1-2.8-2.835V87.594A2.494 2.494 0 0 1 114.4 85h27.933a1.966 1.966 0 0 1 1.8 1.257l1.157 2.848a1.966 1.966 0 0 0 1.8 1.244h47.555a1.946 1.946 0 0 0 1.8-1.223l1.137-2.861A2.006 2.006 0 0 1 199.394 85h27.532a2.821 2.821 0 0 1 2.741 2.848z" transform="translate(-107.7 -80.24)" style="fill:#f04e23"/>
                        <path data-name="矩形 9933" transform="translate(4.299 18.466)" style="isolation:isolate;opacity:.2;fill:#fff" d="M0 0h117.668v26.408H0z"/>
                        <path data-name="矩形 9934" transform="rotate(180 9.51 6.636)" style="opacity:.6;isolation:isolate;fill:#fff" d="M0 0h1.451v1.939H0z"/>
                        <path data-name="矩形 9935" transform="rotate(180 8.327 6.639)" style="opacity:.6;isolation:isolate;fill:#fff" d="M0 0h1.451v2.587H0z"/>
                        <path data-name="矩形 9936" transform="rotate(180 7.144 6.639)" style="opacity:.6;isolation:isolate;fill:#fff" d="M0 0h1.451v3.229H0z"/>
                        <path data-name="矩形 9937" transform="rotate(180 5.957 6.636)" style="opacity:.6;isolation:isolate;fill:#fff" d="M0 0h1.451v3.878H0z"/>
                        <path data-name="矩形 9938" transform="translate(108.094 10.63)" style="opacity:.6;isolation:isolate;fill:#fff" d="M0 0h.862v1.939H0z"/>
                        <path data-name="矩形 9939" transform="rotate(180 58.202 6.639)" style="opacity:.6;isolation:isolate;fill:#fff" d="M0 0h6.866v3.35H0z"/>
                        <circle data-name="椭圆 502" cx="1.618" cy="1.618" r="1.618" transform="translate(58.847 3.416)" style="opacity:.6;isolation:isolate;fill:#fff"/>
                        <path data-name="路径 13789" d="M202.293 84.9a1.036 1.036 0 1 1-1.036-1.036 1.036 1.036 0 0 1 1.036 1.036z" transform="translate(-136.94 -79.862)" style="opacity:.6;isolation:isolate;fill:#fff"/>
                        <path data-name="路径 13790" d="M229.668 350v37.025a3.089 3.089 0 0 1-3.136 3.089H114.8a2.768 2.768 0 0 1-2.8-2.835V350z" transform="translate(-107.701 -168.069)" style="isolation:isolate;opacity:.2;fill:#fff"/>
                        <path data-name="路径 13791" d="m131.33 225.1 45.87-38.54 45.864 38.54-35.964 48.24-32.3-.648z" transform="translate(-114.108 -113.9)" style="fill:#f04e23"/>
                        <path data-name="路径 13792" d="m131.33 225.1 45.87-38.54 45.864 38.54-35.964 48.24-32.3-.648z" transform="translate(-114.108 -113.9)" style="opacity:.3;isolation:isolate"/>
                        <rect data-name="矩形 9940" width="65.246" height="95.391" rx="2.25" transform="translate(30.467 59.957)" style="fill:#fff"/>
                        <rect data-name="矩形 9941" width="51.359" height="1.939" rx=".72" transform="translate(37.413 68.568)" style="isolation:isolate;opacity:.2"/>
                        <rect data-name="矩形 9942" width="51.359" height="1.939" rx=".72" transform="translate(37.413 75.033)" style="isolation:isolate;opacity:.2"/>
                        <rect data-name="矩形 9943" width="51.359" height="1.939" rx=".72" transform="translate(37.413 81.498)" style="isolation:isolate;opacity:.2"/>
                        <rect data-name="矩形 9944" width="51.359" height="1.939" rx=".72" transform="translate(37.413 87.964)" style="isolation:isolate;opacity:.2"/>
                        <rect data-name="矩形 9945" width="51.359" height="1.939" rx=".72" transform="translate(37.413 94.429)" style="isolation:isolate;opacity:.2"/>
                        <rect data-name="矩形 9946" width="51.359" height="1.939" rx=".72" transform="translate(37.413 100.894)" style="isolation:isolate;opacity:.2"/>
                        <rect data-name="矩形 9947" width="51.359" height="1.939" rx=".72" transform="translate(37.413 107.359)" style="isolation:isolate;opacity:.2"/>
                        <rect data-name="矩形 9948" width="51.359" height="1.939" rx=".72" transform="translate(37.413 113.817)" style="isolation:isolate;opacity:.2"/>
                        <rect data-name="矩形 9949" width="51.359" height="1.939" rx=".72" transform="translate(37.413 120.282)" style="isolation:isolate;opacity:.2"/>
                        <path data-name="路径 13793" d="m179.545 277.826-.254-.14a3.042 3.042 0 0 0-2.975 0l-1.237.7L131 244.21v56.414a2.962 2.962 0 0 0 3.022 2.948h86.138c1.658 0 2.434-1.277 2.434-2.948V244.21z" transform="translate(-113.998 -133.007)" style="fill:#f04e23"/>
                        <path data-name="路径 13794" d="m179.545 277.826-.254-.14a3.042 3.042 0 0 0-2.975 0l-1.237.7L131 244.21v56.414a2.962 2.962 0 0 0 3.022 2.948h86.138c1.658 0 2.434-1.277 2.434-2.948V244.21z" transform="translate(-113.998 -133.007)" style="opacity:.6;isolation:isolate;fill:#fff"/>
                        <path data-name="路径 13795" d="m179.5 293.04 1.992 1.544-31.152 17.684z" transform="translate(-120.408 -149.191)" style="isolation:isolate;opacity:.2"/>
                        <path data-name="路径 13796" d="m237.61 312.824-34.07-18.894 1.571-1.23z" transform="translate(-138.04 -149.078)" style="isolation:isolate;opacity:.2"/>
                        <rect data-name="矩形 9950" width="38.329" height="3.563" rx=".83" transform="translate(45.082 22.591)" style="fill:#f04e23"/>
                        <path data-name="路径 13797" d="M266.058 137.459H248.9a2.233 2.233 0 0 1-2.226-2.233A2.226 2.226 0 0 1 248.9 133h17.162a2.226 2.226 0 0 1 2.226 2.226 2.233 2.233 0 0 1-2.226 2.233z" transform="translate(-152.335 -96.149)" style="fill:#f04e23"/>
                        <path data-name="矩形 9951" transform="translate(12.77 187.5)" style="fill:#f04e23" d="M0 0h17.162v16.266H0z"/>
                        <path data-name="矩形 9952" transform="translate(33.642 187.5)" style="fill:#f04e23" d="M0 0h17.162v16.266H0z"/>
                        <path data-name="矩形 9953" transform="translate(54.522 187.5)" style="fill:#f04e23" d="M0 0h17.162v16.266H0z"/>
                        <path data-name="矩形 9954" transform="translate(75.401 187.5)" style="fill:#f04e23" d="M0 0h17.162v16.266H0z"/>
                        <path data-name="矩形 9955" transform="translate(96.274 187.5)" style="fill:#f04e23" d="M0 0h17.162v16.266H0z"/>
                        <path data-name="路径 13798" d="M266.058 397.619H248.9a2.226 2.226 0 0 1-2.226-2.226 2.233 2.233 0 0 1 2.226-2.233h17.162a2.233 2.233 0 0 1 2.226 2.233 2.226 2.226 0 0 1-2.23 2.226z" transform="translate(-152.335 -182.374)" style="fill:#f04e23"/>
                        <path data-name="路径 13799" d="M215.476 78 105.57 234.391v-69.283L166.731 78z" transform="translate(-105.57 -77.92)" style="isolation:isolate;opacity:.1;fill:#fff"/>
                        <path data-name="路径 13800" d="M152.035 78 106 143.747V84.913A6.646 6.646 0 0 1 112.683 78z" transform="translate(-105.71 -77.92)" style="isolation:isolate;opacity:.1;fill:#fff"/>
                    </g>
                </g>
                <g>
                    <g data-name="freepik--group--inject-153">
                        <g data-name="freepik--group--inject-153">
                            <path data-name="路径 13801" d="M74.939 94.908c33.011 4.65 76.984 17.752 114.75 34.187 24.573 10.692 67.438 31.978 78.391 54.395 3.279 6.739 3.309 12.983.075 18.591s-10.744 9.509-21.331 12.167v-1.228c10.108-2.553 17.311-6.244 20.328-11.493s2.995-11.178-.112-17.543c-7.884-16.142-36.253-35.774-77.867-53.863-37.616-16.427-81.476-29.462-114.39-34.1a.563.563 0 0 1 .157-1.116z" transform="translate(88.44 157.382)" style="fill:#fff"/>
                            <path data-name="路径 13802" d="M74.939 94.908c33.011 4.65 76.984 17.752 114.75 34.187 24.573 10.692 67.438 31.978 78.391 54.395 3.279 6.739 3.309 12.983.075 18.591s-10.744 9.509-21.331 12.167v-1.228c10.108-2.553 17.311-6.244 20.328-11.493s2.995-11.178-.112-17.543c-7.884-16.142-36.253-35.774-77.867-53.863-37.616-16.427-81.476-29.462-114.39-34.1a.563.563 0 0 1 .157-1.116z" transform="translate(88.44 157.382)" style="fill:#fff"/>
                            <path data-name="路径 13803" d="M267.668 202.365a.554.554 0 0 0 .487-.285c3.234-5.608 3.2-11.867-.075-18.591-10.954-22.417-53.818-43.7-78.391-54.395-37.766-16.434-81.738-29.537-114.75-34.187a.563.563 0 0 0-.157 1.116c32.944 4.635 76.774 17.7 114.458 34.1 41.577 18.089 69.946 37.721 77.8 53.863 3.107 6.364 3.145 12.272.112 17.543a.562.562 0 0 0 .21.749.554.554 0 0 0 .306.087z" transform="translate(88.44 157.382)" style="fill:#fff"/>
                        </g>
                        <g data-name="组 8291" style="opacity:.8;isolation:isolate">
                            <path data-name="路径 13804" d="M267.668 202.365a.554.554 0 0 0 .487-.285c3.234-5.608 3.2-11.867-.075-18.591-10.954-22.417-53.818-43.7-78.391-54.395-37.766-16.434-81.738-29.537-114.75-34.187a.563.563 0 0 0-.157 1.116c32.944 4.635 76.774 17.7 114.458 34.1 41.577 18.089 69.946 37.721 77.8 53.863 3.107 6.364 3.145 12.272.112 17.543a.562.562 0 0 0 .21.749.554.554 0 0 0 .306.087z" transform="translate(88.44 157.382)" style="fill:#fff"/>
                        </g>
                    </g>
                    <g data-name="freepik--group--inject-153">
                        <path data-name="路径 13805" d="M387.986 99.846 356.18 83 384 92.157z" transform="translate(-240.038 160.373)" style="fill:#f04e23"/>
                        <path data-name="路径 13806" d="M387.986 99.846 356.18 83 384 92.157z" transform="translate(-240.038 160.373)" style="opacity:.3;isolation:isolate"/>
                        <path data-name="路径 13807" d="m385.463 84.932-5.885 4.058-1.632 10.856-3.983-7.689-10.078 5.069L346.14 83z" transform="translate(-229.998 160.373)" style="fill:#f04e23"/>
                        <path data-name="路径 13808" d="m385.463 84.932-5.885 4.058-1.632 10.856-3.983-7.689-10.078 5.069L346.14 83z" transform="translate(-229.998 160.373)" style="opacity:.6;isolation:isolate;fill:#fff"/>
                        <path data-name="路径 13809" d="M387.438 88.99 354 83l27.823 9.157 3.983 7.689z" transform="translate(-237.858 160.373)" style="isolation:isolate;opacity:.2"/>
                    </g>
                </g>
            </g>
            <g data-name="组 8181" style="opacity:.116">
                <g data-name="组 8180" transform="translate(0 144)" style="clip-path:url(#j4p4sp3ovb)">
                    <path data-name="路径 5254" d="m13.363 1 21.93 50.538h.361L57.494 1h12.363v64.435H59.3v-44.4h-.361l-18.952 44.4h-9.115l-18.952-44.4h-.361v44.4H1V1z" transform="translate(.133 .133)" style="stroke-miterlimit:10;stroke-width:2px;stroke:#fb6943;fill:none"/>
                    <path data-name="路径 5255" d="M108.816 20.723q4.331 4.467 4.332 13V63.5h-9.567v-6.137a18.234 18.234 0 0 1-6.681 5.325 25.322 25.322 0 0 1-10.559 2.075c-4.873 0-8.664-1.263-11.462-3.7a12.126 12.126 0 0 1-4.328-9.563c0-5.234 1.986-9.295 6.137-12.093q5.684-4.061 15.974-4.332l10.2-.271V33c0-6.136-3.34-9.116-10.017-9.116a12.676 12.676 0 0 0-6.859 1.535 8.1 8.1 0 0 0-3.88 5.415l-10.2-.812c.992-5.144 3.518-8.934 7.58-11.282 3.43-2.165 8.122-3.158 14.078-3.158 6.859-.003 12.003 1.712 15.252 5.141zm-15.432 21.75c-8.213.18-12.273 3.068-12.273 8.663a4.808 4.808 0 0 0 2.075 4.064 8.9 8.9 0 0 0 5.5 1.715 15.149 15.149 0 0 0 10.017-3.429 11.39 11.39 0 0 0 4.152-8.934V42.2z" transform="translate(9.369 2.069)" style="stroke-miterlimit:10;stroke-width:2px;stroke:#fb6943;fill:none"/>
                    <path data-name="路径 5256" d="M132.811 18.461h10.379v8.484h-10.379V53.3a3.672 3.672 0 0 0 .723 2.527 3.086 3.086 0 0 0 2.346.812h6.136v8.482h-7.851q-6.092 0-8.933-3.249c-1.806-1.985-2.709-4.783-2.709-8.573V26.944h-8.393v-8.483h8.393V7.631l10.288-4.241z" transform="translate(15.156 .451)" style="stroke-miterlimit:10;stroke-width:2px;stroke:#fb6943;fill:none"/>
                    <path data-name="路径 5257" d="M161.65 18.461h10.379v8.484H161.65V53.3a3.672 3.672 0 0 0 .723 2.527 3.086 3.086 0 0 0 2.346.812h6.136v8.482H163q-6.092 0-8.933-3.249c-1.806-1.985-2.709-4.783-2.709-8.573V26.944h-8.388v-8.483h8.392V7.631L161.65 3.39z" transform="translate(18.986 .451)" style="stroke-miterlimit:10;stroke-width:2px;stroke:#fb6943;fill:none"/>
                    <path data-name="路径 5258" d="M213.166 23.341c3.7 4.693 5.594 11.28 5.594 19.673h-34.924c.36 4.332 1.535 7.67 3.52 9.927s4.872 3.43 8.573 3.43a12.662 12.662 0 0 0 7.67-2.166 15.454 15.454 0 0 0 4.152-5.687h10.288a21.188 21.188 0 0 1-6.5 10.92 23.143 23.143 0 0 1-15.522 5.324c-6.95 0-12.454-2.166-16.515-6.407-4.332-4.422-6.5-10.468-6.5-18.229 0-6.949 1.985-12.725 6.137-17.418 3.969-4.783 9.475-7.129 16.424-7.129 7.675.001 13.537 2.527 17.603 7.762zm-25.36 3.52q-2.843 2.843-3.79 8.393h24.006c-.9-7.581-4.964-11.28-12.183-11.28-3.43-.001-6.047.901-8.033 2.886z" transform="translate(22.975 2.069)" style="stroke-miterlimit:10;stroke-width:2px;stroke:#fb6943;fill:none"/>
                    <path data-name="路径 5259" d="M248.452 16.753v10.288a22.213 22.213 0 0 0-6.678-.992 10 10 0 0 0-7.31 3.158 12.581 12.581 0 0 0-3.7 9.565V63.5h-10.2V16.843h10.2v6.678a15.889 15.889 0 0 1 4.421-5.415 11.161 11.161 0 0 1 7.4-2.527 13.092 13.092 0 0 1 5.867 1.174z" transform="translate(29.291 2.069)" style="stroke-miterlimit:10;stroke-width:2px;stroke:#fb6943;fill:none"/>
                    <path data-name="路径 5260" d="M288.4 30.379h-10.015a8.583 8.583 0 0 0-3.249-4.964c-1.533-.992-3.88-1.443-7.039-1.443-2.706 0-4.782.36-6.136 1.172a3.959 3.959 0 0 0-2.346 3.881c0 1.444 1.172 2.8 3.7 3.88a80.6 80.6 0 0 0 9.295 2.709c5.235 1.263 9.205 2.706 11.731 4.421a11.155 11.155 0 0 1 5.595 9.837c0 9.927-7.038 14.89-21.027 14.89-13 0-19.943-5.5-20.936-16.424h10.017c.542 2.978 1.624 5.053 3.158 6.318 1.535 1.083 3.97 1.715 7.4 1.715 7.219 0 10.83-1.986 10.83-5.776q0-3.249-4.061-5.144c-1.444-.722-4.512-1.534-9.205-2.617q-8.258-1.9-11.642-4.061a10.606 10.606 0 0 1-5.415-9.476 11.186 11.186 0 0 1 5.324-10.017c3.52-2.527 8.122-3.7 13.9-3.7 12.272-.001 19.041 4.871 20.121 14.799z" transform="translate(32.931 2.069)" style="stroke-miterlimit:10;stroke-width:2px;stroke:#fb6943;fill:none"/>
                </g>
            </g>
        </g>
    </g>
</svg>
