<svg xmlns="http://www.w3.org/2000/svg" width="757" height="158.794" viewBox="0 0 757 158.794">
    <defs>
        <clipPath id="fhssqtec1a">
            <path data-name="矩形 8542" style="fill:none;stroke:#fb6943" d="M0 0h757v158.794H0z"/>
        </clipPath>
    </defs>
    <g data-name="组 8181" style="opacity:.2">
        <g data-name="组 8180" style="clip-path:url(#fhssqtec1a)">
            <path data-name="路径 5254" d="m29.886 1 51.238 118.077h.844L132.993 1h28.887v150.547h-24.67V47.809h-.844l-44.28 103.738H70.793L26.514 47.809h-.844v103.738H1V1z" transform="translate(1.647 1.648)" style="stroke-miterlimit:10;stroke-width:2px;fill:none;stroke:#fb6943"/>
            <path data-name="路径 5255" d="M159.954 27.6q10.12 10.437 10.121 30.363v69.582h-22.352v-14.34a42.6 42.6 0 0 1-15.6 12.439c-6.958 3.163-15.181 4.849-24.67 4.849-11.386 0-20.242-2.951-26.779-8.644A28.331 28.331 0 0 1 70.551 99.5c0-12.228 4.64-21.716 14.34-28.253q13.28-9.488 37.321-10.121l23.826-.633v-4.218c0-14.337-7.8-21.3-23.4-21.3-6.746 0-12.019 1.056-16.026 3.586a18.934 18.934 0 0 0-9.065 12.651l-23.826-1.9c2.314-12.012 8.216-20.87 17.705-26.354 8.014-5.058 18.977-7.379 32.893-7.379 16.025 0 28.044 4.007 35.635 12.021zM123.9 78.414c-19.189.421-28.674 7.167-28.674 20.239a11.234 11.234 0 0 0 4.849 9.488 20.786 20.786 0 0 0 12.86 4.007c9.279 0 17.079-2.739 23.4-8.012a26.611 26.611 0 0 0 9.7-20.874v-5.48z" transform="translate(116.176 25.655)" style="stroke-miterlimit:10;stroke-width:2px;fill:none;stroke:#fb6943"/>
            <path data-name="路径 5256" d="M157.777 38.6h24.249v19.823h-24.249v61.567c0 2.53.423 4.428 1.689 5.9 1.262 1.262 2.951 1.9 5.481 1.9h14.337v19.818h-18.345q-14.233 0-20.872-7.591c-4.219-4.637-6.328-11.174-6.328-20.03V58.423H114.13V38.6h19.609V13.3l24.038-9.91z" transform="translate(187.937 5.583)" style="stroke-miterlimit:10;stroke-width:2px;fill:none;stroke:#fb6943"/>
            <path data-name="路径 5257" d="M186.614 38.6h24.249v19.823h-24.249v61.567c0 2.53.423 4.428 1.689 5.9 1.262 1.262 2.951 1.9 5.481 1.9h14.337v19.818h-18.344q-14.233 0-20.872-7.591c-4.219-4.637-6.328-11.174-6.328-20.03V58.423H142.97V38.6h19.607V13.3l24.037-9.91z" transform="translate(235.428 5.583)" style="stroke-miterlimit:10;stroke-width:2px;fill:none;stroke:#fb6943"/>
            <path data-name="路径 5258" d="M266.837 33.713c8.642 10.965 13.069 26.356 13.069 45.965h-81.6c.842 10.121 3.586 17.921 8.223 23.193s11.383 8.014 20.03 8.014c7.379 0 13.284-1.689 17.921-5.06 3.586-2.742 6.749-7.17 9.7-13.286h24.04a49.506 49.506 0 0 1-15.181 25.514c-9.7 8.223-21.716 12.439-36.265 12.439-16.237 0-29.1-5.06-38.586-14.97-10.121-10.333-15.181-24.458-15.181-42.591 0-16.235 4.637-29.73 14.34-40.7 9.273-11.17 22.136-16.651 38.373-16.651 17.921 0 31.628 5.902 41.117 18.133zm-59.252 8.223q-6.642 6.642-8.856 19.609h56.089c-2.109-17.712-11.6-26.356-28.465-26.356-8.014 0-14.128 2.111-18.768 6.747z" transform="translate(284.888 25.657)" style="stroke-miterlimit:10;stroke-width:2px;fill:none;stroke:#fb6943"/>
            <path data-name="路径 5259" d="M285.718 18.321v24.037a51.9 51.9 0 0 0-15.6-2.319c-6.326 0-12.019 2.319-17.079 7.379-5.9 5.693-8.644 13.072-8.644 22.349v57.775h-23.828V18.533h23.826v15.6c2.951-5.481 6.323-9.7 10.33-12.651a26.076 26.076 0 0 1 17.291-5.9 30.589 30.589 0 0 1 13.704 2.739z" transform="translate(363.207 25.655)" style="stroke-miterlimit:10;stroke-width:2px;fill:none;stroke:#fb6943"/>
            <path data-name="路径 5260" d="M342.434 50.158h-23.4c-1.683-5.481-4.216-9.488-7.591-11.6-3.581-2.319-9.065-3.372-16.447-3.372-6.323 0-11.172.842-14.337 2.739-3.793 1.9-5.481 4.849-5.481 9.068 0 3.375 2.739 6.535 8.647 9.065 3.581 1.477 10.751 3.586 21.716 6.328 12.23 2.951 21.507 6.323 27.409 10.33C341.592 78.2 346.017 86 346.017 95.7c0 23.193-16.444 34.788-49.128 34.788-30.363 0-46.6-12.86-48.916-38.374h23.4c1.265 6.958 3.8 11.807 7.379 14.761 3.586 2.53 9.277 4.007 17.291 4.007 16.867 0 25.3-4.64 25.3-13.5q0-7.591-9.488-12.019c-3.375-1.686-10.542-3.584-21.507-6.114q-19.294-4.431-27.2-9.488Q250.5 61.859 250.5 47.628c0-10.121 4-17.921 12.439-23.4 8.223-5.9 18.977-8.644 32.47-8.644 28.68-.005 44.491 11.378 47.025 34.574z" transform="translate(408.336 25.655)" style="stroke-miterlimit:10;stroke-width:2px;fill:none;stroke:#fb6943"/>
        </g>
    </g>
</svg>
