<svg width="14" height="14" viewBox="0 0 14 14" fill="none" xmlns="http://www.w3.org/2000/svg">
<path d="M6.11686 1.00067H2.5V10H4.7137V7.67457H6.11424C6.99349 7.69315 7.84394 7.35213 8.47879 6.72644C9.11364 6.10075 9.48093 5.24156 9.5 4.33762C9.48093 3.43415 9.114 2.57538 8.47972 1.94977C7.84545 1.32415 6.99566 0.982814 6.11686 1.00067ZM5.9339 5.64432H4.7137V2.98772H5.9339C6.28394 2.98024 6.62255 3.11595 6.87532 3.36502C7.12808 3.61409 7.27433 3.95615 7.28192 4.31602C7.27433 4.6759 7.12808 5.01795 6.87532 5.26702C6.62255 5.5161 6.28394 5.6518 5.9339 5.64432V5.64432Z" fill="#707A8A"/>
<path d="M7.5 11H2.5V13H6.5L7.5 11Z" fill="#707A8A"/>
<path d="M8.5 13V9H11.4884V10.0459H9.75145V10.4756H11.2832V11.5215H9.75145V11.9541H11.5V13H8.5Z" fill="#707A8A"/>
</svg>
