<svg width="22" height="23" viewBox="0 0 22 23" fill="none" xmlns="http://www.w3.org/2000/svg">
<path d="M22 22.0978H0.432007V0.531799H22V22.0978ZM19.277 11.3148C19.2771 11.163 19.2473 11.0126 19.1893 10.8723C19.1312 10.7319 19.0461 10.6045 18.9387 10.4971C18.8313 10.3897 18.7039 10.3046 18.5635 10.2465C18.4232 10.1885 18.2729 10.1587 18.121 10.1588H12.345V4.3828C12.345 4.07621 12.2232 3.78218 12.0064 3.56538C11.7896 3.34859 11.4956 3.2268 11.189 3.2268C10.8824 3.2268 10.5884 3.34859 10.3716 3.56538C10.1548 3.78218 10.033 4.07621 10.033 4.3828V10.1588H4.257C4.1052 10.1588 3.95487 10.1887 3.81462 10.2468C3.67437 10.3049 3.54694 10.39 3.43959 10.4974C3.33225 10.6047 3.2471 10.7322 3.189 10.8724C3.13091 11.0127 3.10101 11.163 3.10101 11.3148C3.10101 11.4666 3.13091 11.6169 3.189 11.7572C3.2471 11.8974 3.33225 12.0249 3.43959 12.1322C3.54694 12.2396 3.67437 12.3247 3.81462 12.3828C3.95487 12.4409 4.1052 12.4708 4.257 12.4708H10.032V18.2468C10.032 18.5534 10.1538 18.8474 10.3706 19.0642C10.5874 19.281 10.8814 19.4028 11.188 19.4028C11.4946 19.4028 11.7886 19.281 12.0054 19.0642C12.2222 18.8474 12.344 18.5534 12.344 18.2468V12.4708H18.12C18.4267 12.4708 18.7208 12.349 18.9378 12.1323C19.1547 11.9155 19.2767 11.6215 19.277 11.3148Z" fill="#B7BDC6"/>
</svg>
