<svg width="18" height="18" viewBox="0 0 18 18" fill="none" xmlns="http://www.w3.org/2000/svg">
<path fill-rule="evenodd" clip-rule="evenodd" d="M18 9C18 13.9706 13.9706 18 9 18C4.02944 18 0 13.9706 0 9C0 4.02944 4.02944 0 9 0C13.9706 0 18 4.02944 18 9ZM4.17732 10.0238L7.13656 12.983L7.15212 13.0014C7.30215 13.1514 7.50563 13.2357 7.7178 13.2357C7.92998 13.2357 8.13346 13.1514 8.28349 13.0014L8.31036 12.9745L8.33723 12.9477L13.8569 7.428C14.0069 7.27797 14.0912 7.07449 14.0912 6.86232C14.0912 6.65014 14.0069 6.44666 13.8569 6.29663C13.7069 6.1466 13.5034 6.06232 13.2912 6.06232C13.079 6.06232 12.8756 6.1466 12.7255 6.29663L7.77013 11.252L5.3596 8.84151C5.20282 8.68473 4.99018 8.59665 4.76846 8.59665C4.54674 8.59665 4.3341 8.68473 4.17732 8.84151C4.02054 8.99829 3.93246 9.21093 3.93246 9.43265C3.93246 9.65437 4.02054 9.86701 4.17732 10.0238Z" fill="#B1BAD3"/>
</svg>
