<svg width="14" height="14" viewBox="0 0 14 14" fill="none" xmlns="http://www.w3.org/2000/svg">
<path d="M8.38083 12.3829L6.53886 12.2957C5.94044 12.2612 5.37617 12.0055 4.95517 11.5788L0.557419 7.18076C0.537916 7.16109 0.526978 7.13497 0.526978 7.10727C0.526978 7.07957 0.537916 7.0526 0.557419 7.03293L1.84973 5.74265C1.85899 5.73263 1.87024 5.72419 1.88274 5.71872C1.89523 5.71325 1.90872 5.71103 1.92236 5.71103C1.93601 5.71103 1.9496 5.71325 1.9621 5.71872C1.9746 5.72419 1.98574 5.73263 1.995 5.74265L8.45869 12.2069C8.47226 12.2214 8.48129 12.2394 8.48486 12.259C8.48843 12.2786 8.48632 12.2987 8.47878 12.3171C8.47123 12.3355 8.45864 12.3518 8.44235 12.3633C8.42606 12.3747 8.4068 12.3812 8.38692 12.3821L8.38083 12.3829ZM9.75977 8.92734L11.0311 7.64475C11.0595 7.61612 11.0819 7.58219 11.0969 7.54477C11.112 7.50735 11.1193 7.46717 11.1186 7.42685C11.1193 7.38614 11.112 7.34593 11.0969 7.30808C11.0819 7.27023 11.0596 7.23554 11.0311 7.20639L7.92314 4.09775C7.70292 3.90226 7.4149 3.80059 7.12077 3.81491C7.05412 3.81537 6.98752 3.8189 6.92125 3.82602L4.88254 4.04648L3.23145 2.39816L2.70636 2.45542L6.73145 2.01792C6.86312 2.00409 6.99542 1.99672 7.12782 1.99655C7.5131 1.9881 7.8962 2.05592 8.255 2.1965C8.61381 2.33708 8.94114 2.54808 9.21812 2.81601L13.293 6.88767C13.4174 7.01901 13.4851 7.19469 13.4812 7.37558C13.4738 7.64978 13.3586 7.90929 13.1609 8.09934L11.0547 10.2168L9.75977 8.92734ZM4.61829 7.02268C4.61829 6.43555 4.85147 5.87241 5.26663 5.45725C5.68179 5.04209 6.24494 4.80869 6.83206 4.80869C7.4188 4.80915 7.98135 5.04297 8.396 5.4581C8.81064 5.87324 9.0434 6.43594 9.04317 7.02268C9.04317 7.6091 8.81024 8.17173 8.39557 8.5864C7.9809 9.00106 7.41849 9.2341 6.83206 9.2341C6.5415 9.23433 6.25367 9.17677 5.98515 9.06577C5.71664 8.95476 5.47264 8.79173 5.26706 8.5864C5.06148 8.38106 4.89837 8.13786 4.78705 7.86948C4.67572 7.60109 4.6184 7.31323 4.61829 7.02268Z" fill="#B1BAD3"/>
</svg>
