<svg width="18" height="18" viewBox="0 0 18 18" fill="none" xmlns="http://www.w3.org/2000/svg">
<path fill-rule="evenodd" clip-rule="evenodd" d="M14.1799 3.81998H10.2896V2.57147H14.8042L15.4284 3.19573V7.71033H14.1799V3.81998Z" fill="#B1BAD3"/>
<path fill-rule="evenodd" clip-rule="evenodd" d="M4.16338 3.81995C4.07232 3.81995 3.98499 3.85612 3.9206 3.92051C3.85622 3.9849 3.82004 4.07223 3.82004 4.16329V13.8367C3.82004 13.9278 3.85622 14.0151 3.9206 14.0795C3.98499 14.1439 4.07232 14.1801 4.16338 14.1801H13.8393C13.9304 14.1801 14.0177 14.1439 14.0821 14.0795C14.1465 14.0151 14.1827 13.9278 14.1827 13.8367V10.7654H15.4312V13.8367C15.4312 14.2589 15.2635 14.6638 14.9649 14.9623C14.6664 15.2609 14.2615 15.4286 13.8393 15.4286H4.16338C3.7412 15.4286 3.3363 15.2609 3.03777 14.9623C2.73924 14.6638 2.57153 14.2589 2.57153 13.8367V4.16329C2.57153 3.74111 2.73924 3.33621 3.03777 3.03768C3.3363 2.73915 3.7412 2.57144 4.16338 2.57144H7.06616V3.81995H4.16338Z" fill="#B1BAD3"/>
<path fill-rule="evenodd" clip-rule="evenodd" d="M14.955 3.92801L10.0221 8.86211L9.13916 7.97939L14.072 3.04529L14.955 3.92801Z" fill="#B1BAD3"/>
</svg>
