<svg width="14" height="14" viewBox="0 0 14 14" fill="none" xmlns="http://www.w3.org/2000/svg">
<path d="M1.87762 6.243C2.15371 6.243 2.4185 6.35268 2.61372 6.5479C2.80895 6.74313 2.91862 7.00791 2.91862 7.284V10.766H9.88262V9.966C9.88262 9.82783 9.93751 9.6953 10.0352 9.5976C10.1329 9.49989 10.2654 9.445 10.4036 9.445H13.0396C13.1778 9.445 13.3103 9.49989 13.408 9.5976C13.5057 9.6953 13.5606 9.82783 13.5606 9.966V12.602C13.5606 12.7402 13.5057 12.8727 13.408 12.9704C13.3103 13.0681 13.1778 13.123 13.0396 13.123H10.4036C10.2654 13.123 10.1329 13.0681 10.0352 12.9704C9.93751 12.8727 9.88262 12.7402 9.88262 12.602V11.802H2.91862C2.64253 11.802 2.37775 11.6923 2.18253 11.4971C1.9873 11.3019 1.87762 11.0371 1.87762 10.761V6.243ZM3.71562 0.125C3.78404 0.125 3.85179 0.138475 3.915 0.164658C3.97821 0.19084 4.03565 0.229216 4.08403 0.277596C4.13241 0.325975 4.17079 0.383414 4.19697 0.446625C4.22315 0.509835 4.23663 0.577585 4.23663 0.646004V1.446H11.2006C11.4767 1.446 11.7415 1.55567 11.9367 1.7509C12.1319 1.94613 12.2416 2.21091 12.2416 2.487V7.01C11.9655 7.01 11.7007 6.90033 11.5055 6.7051C11.3103 6.50988 11.2006 6.24509 11.2006 5.969V2.487H4.23663V3.287C4.23663 3.35542 4.22315 3.42317 4.19697 3.48638C4.17079 3.54959 4.13241 3.60702 4.08403 3.6554C4.03565 3.70378 3.97821 3.74216 3.915 3.76834C3.85179 3.79452 3.78404 3.808 3.71562 3.808H1.07962C0.941443 3.808 0.808926 3.75311 0.71122 3.6554C0.613513 3.5577 0.558624 3.42518 0.558624 3.287V0.651001C0.558624 0.512823 0.613513 0.380307 0.71122 0.2826C0.808926 0.184894 0.941443 0.129997 1.07962 0.129997L3.71562 0.125Z" fill="#B7BDC6"/>
</svg>
