<svg width="21" height="21" viewBox="0 0 21 21" fill="none" xmlns="http://www.w3.org/2000/svg">
<g id="Frame" clip-path="url(#clip0_1367_4105)">
<path id="Vector" d="M20.0741 16.893L12.2345 3.31556C11.2756 1.65556 9.70848 1.65556 8.74984 3.31556L0.910168 16.893C-0.0484785 18.5547 0.735796 19.9102 2.65175 19.9102H18.3325C20.2485 19.9102 21.032 18.5546 20.0741 16.893ZM9.41537 7.16801C9.69709 6.86343 10.0553 6.71111 10.4921 6.71111C10.9291 6.71111 11.2869 6.86182 11.5689 7.16192C11.8491 7.46269 11.9892 7.83884 11.9892 8.29117C11.9892 8.68033 11.4043 11.542 11.2093 13.6239H9.80067C9.62959 11.542 8.99502 8.68033 8.99502 8.29117C8.99506 7.84571 9.13533 7.47111 9.41537 7.16801ZM11.5492 17.0675C11.2529 17.356 10.9003 17.4999 10.4922 17.4999C10.0841 17.4999 9.73143 17.356 9.43516 17.0675C9.1397 16.7795 8.99286 16.4308 8.99286 16.0212C8.99286 15.6138 9.1397 15.2613 9.43516 14.9658C9.73143 14.6703 10.0841 14.5225 10.4922 14.5225C10.9003 14.5225 11.2529 14.6703 11.5492 14.9658C11.8445 15.2613 11.9917 15.6138 11.9917 16.0212C11.9917 16.4308 11.8445 16.7795 11.5492 17.0675Z" fill="#CF304A"/>
</g>
<defs>
<clipPath id="clip0_1367_4105">
<rect width="20" height="20" fill="white" transform="translate(0.5 0.5)"/>
</clipPath>
</defs>
</svg>
