<svg width="60" height="61" viewBox="0 0 60 61" fill="none" xmlns="http://www.w3.org/2000/svg">
<path d="M22.5 0.5H37.5C52.5 0.5 60 8 60 23V38C60 53 52.5 60.5 37.5 60.5H22.5C7.5 60.5 0 53 0 38V23C0 8 7.5 0.5 22.5 0.5Z" fill="#FFA26C" fill-opacity="0.2"/>
<path d="M40.8697 32.6957C39.4046 32.6957 38.2022 31.4311 38.2022 29.8903C38.2022 28.345 39.4001 27.0848 40.8697 27.0848H49.2193V24.7514C49.2193 23.2462 48.0525 22.0172 46.6231 22.0172H17.562C16.1325 22.0172 14.9658 23.2462 14.9658 24.7514V43.6326C14.9658 45.1378 16.1325 46.3668 17.562 46.3668H46.6231C48.0525 46.3668 49.2193 45.1378 49.2193 43.6326V32.6957H40.8697Z" fill="#FFA26C"/>
<path d="M39.0969 29.8903C39.0969 30.3745 39.2893 30.8389 39.6317 31.1813C39.9741 31.5237 40.4385 31.7161 40.9227 31.7161C41.4069 31.7161 41.8713 31.5237 42.2137 31.1813C42.5561 30.8389 42.7485 30.3745 42.7485 29.8903C42.7485 29.4061 42.5561 28.9417 42.2137 28.5993C41.8713 28.2569 41.4069 28.0645 40.9227 28.0645C40.4385 28.0645 39.9741 28.2569 39.6317 28.5993C39.2893 28.9417 39.0969 29.4061 39.0969 29.8903V29.8903Z" fill="#FFCFB2"/>
<path opacity="0.4" d="M21.7043 34.0127C20.1992 34.0127 21.7043 32.5075 21.7043 34.0127L45.7249 22.436L43.3647 15.547C42.8793 14.1264 41.3163 13.3605 39.8913 13.8459L12.647 23.1886C11.2265 23.6739 10.4606 25.237 10.9459 26.662L14.8246 37.9774L21.7043 34.0127Z" fill="#FFA26C"/>
</svg>
