<svg width="60" height="61" viewBox="0 0 60 61" fill="none" xmlns="http://www.w3.org/2000/svg">
<path d="M22.5 0.5H37.5C52.5 0.5 60 8 60 23V38C60 53 52.5 60.5 37.5 60.5H22.5C7.5 60.5 0 53 0 38V23C0 8 7.5 0.5 22.5 0.5Z" fill="#FCD97E" fill-opacity="0.2"/>
<path d="M25.2566 43.1832C25.4949 42.2941 24.9672 41.3802 24.0781 41.142C23.189 40.9037 22.2751 41.4314 22.0369 42.3205L20.7428 47.1501C20.5046 48.0392 21.0322 48.9531 21.9213 49.1913C22.8104 49.4296 23.7243 48.9019 23.9626 48.0128L25.2566 43.1832Z" fill="#FFD059"/>
<path d="M34.0768 43.1832C33.8386 42.2941 34.3662 41.3802 35.2554 41.142C36.1445 40.9037 37.0584 41.4314 37.2966 42.3205L38.5907 47.1501C38.8289 48.0392 38.3013 48.9531 37.4122 49.1913C36.5231 49.4296 35.6092 48.9019 35.3709 48.0128L34.0768 43.1832Z" fill="#FFD059"/>
<path fill-rule="evenodd" clip-rule="evenodd" d="M20.6957 46H38.6356C39.2669 46 39.844 46.3567 40.1263 46.9213L41.3324 49.3334H17.999L19.205 46.9213C19.4874 46.3567 20.0645 46 20.6957 46Z" fill="#FFE195"/>
<path fill-rule="evenodd" clip-rule="evenodd" d="M19.6678 47.6667H39.6678C41.5088 47.6667 43.0011 49.1591 43.0011 51H16.3345C16.3345 49.1591 17.8269 47.6667 19.6678 47.6667Z" fill="#FFD059"/>
<path d="M43.6957 18.6738C42.2267 16.387 40.2157 14.4835 37.8419 13.1443C35.4259 11.7814 32.6383 11 29.6667 11C20.4619 11 13 18.4619 13 27.6667C13 30.9799 13.9707 34.0646 15.6376 36.6595C17.1066 38.9463 19.1177 40.8498 21.4915 42.189C23.9074 43.5519 26.6951 44.3333 29.6667 44.3333C38.8714 44.3333 46.3333 36.8714 46.3333 27.6667C46.3333 24.3533 45.3625 21.2687 43.6957 18.6738Z" fill="#FFC459" fill-opacity="0.37"/>
<mask id="mask0_5521_101291" style="mask-type:alpha" maskUnits="userSpaceOnUse" x="14" y="12" width="31" height="31">
<path d="M42.2926 19.5731C40.9705 17.515 39.1606 15.8019 37.0242 14.5966C34.8498 13.3699 32.3409 12.6667 29.6665 12.6667C21.3822 12.6667 14.6665 19.3824 14.6665 27.6667C14.6665 30.6487 15.5402 33.4248 17.0404 35.7603C18.3624 37.8184 20.1724 39.5315 22.3088 40.7368C24.4832 41.9634 26.9921 42.6667 29.6665 42.6667C37.9508 42.6667 44.6665 35.9509 44.6665 27.6667C44.6665 24.6847 43.7928 21.9085 42.2926 19.5731Z" fill="white"/>
</mask>
<g mask="url(#mask0_5521_101291)">
<path d="M42.2926 19.5731C40.9705 17.515 39.1606 15.8019 37.0242 14.5966C34.8498 13.3699 32.3409 12.6667 29.6665 12.6667C21.3822 12.6667 14.6665 19.3824 14.6665 27.6667C14.6665 30.6487 15.5402 33.4248 17.0404 35.7603C18.3624 37.8184 20.1724 39.5315 22.3088 40.7368C24.4832 41.9634 26.9921 42.6667 29.6665 42.6667C37.9508 42.6667 44.6665 35.9509 44.6665 27.6667C44.6665 24.6847 43.7928 21.9085 42.2926 19.5731Z" fill="#FFD159"/>
<path d="M29.6362 27.6667L25.2982 12.1538C23.7376 12.5895 22.274 13.2499 20.9429 14.105L29.6362 27.6667Z" fill="#FFE195"/>
<path d="M45.1552 23.3267C44.7185 21.7668 44.0599 20.2996 43.2049 18.9685L29.6357 27.6667L45.1552 23.3267Z" fill="#FFE195"/>
<path d="M29.6357 27.6667H29.6359L37.5431 13.6202C36.1683 12.8446 34.6665 12.2702 33.0797 11.9234L29.6357 27.6667Z" fill="#FFE195"/>
<path d="M29.6357 27.6669L33.9738 43.1797C35.5344 42.744 36.998 42.0835 38.3291 41.2285L29.6357 27.6669Z" fill="#FFE195"/>
<path d="M21.7295 41.7132C23.1043 42.4888 24.606 43.0632 26.1928 43.41L29.6366 27.667L21.7295 41.7132Z" fill="#FFE195"/>
<path d="M29.6363 27.6667L15.5953 19.7624C14.8195 21.1374 14.2394 22.6352 13.8936 24.2228L29.6363 27.6667Z" fill="#FFE195"/>
<path d="M29.6363 27.6667L14.1167 32.0066C14.5534 33.5665 15.212 35.0337 16.067 36.3648H16.0671L29.6363 27.6667Z" fill="#FFE195"/>
<path d="M29.6357 27.6667L43.6768 35.5709C44.4526 34.1959 45.0327 32.6981 45.3786 31.1105L29.6357 27.6667Z" fill="#FFE195"/>
</g>
<path d="M29.6675 32.6667C32.4289 32.6667 34.6675 30.4281 34.6675 27.6667C34.6675 24.9052 32.4289 22.6667 29.6675 22.6667C26.9061 22.6667 24.6675 24.9052 24.6675 27.6667C24.6675 30.4281 26.9061 32.6667 29.6675 32.6667Z" fill="#FDC841"/>
</svg>
