<svg width="60" height="61" viewBox="0 0 60 61" fill="none" xmlns="http://www.w3.org/2000/svg">
<path d="M22.5 0.5H37.5C52.5 0.5 60 8 60 23V38C60 53 52.5 60.5 37.5 60.5H22.5C7.5 60.5 0 53 0 38V23C0 8 7.5 0.5 22.5 0.5Z" fill="#867EFC" fill-opacity="0.2"/>
<path opacity="0.8" d="M19.4311 17.7838V25.7696C19.4311 31.4882 23.8801 36.364 29.5934 36.5667C35.5948 36.7801 40.5293 31.979 40.5293 26.0256V17.7838C40.5293 17.3517 40.1772 16.9996 39.7451 16.9996H20.21C19.7779 16.9996 19.4258 17.3517 19.4258 17.7838H19.4311Z" fill="#B8A7FD"/>
<path d="M42.599 20.137H41.1427C40.3905 20.1904 38.9395 20.4037 38.9182 21.332V26.5865C38.9182 29.9633 37.1151 33.0893 34.1917 34.7804C31.2631 36.4714 27.6622 36.4714 24.7336 34.7804C21.8049 33.0893 20.0018 29.9686 20.0072 26.5865V18.6647H40.3745C41.18 18.6647 41.8308 18.0139 41.8308 17.2083C41.8308 16.4028 41.18 15.752 40.3745 15.752H20.8767C20.1672 15.752 19.4044 15.752 18.6949 15.752C17.4252 15.752 17.1105 16.2535 17.0945 17.0323V20.1157H16.369C13.9524 20.121 12 22.0788 12 24.4847V27.3973C12 29.8086 13.9524 31.761 16.3637 31.761H18.2414C20.0552 35.6606 23.7627 38.3385 28.0357 38.8346V44.8573H20.7593C19.9538 44.8573 19.303 45.5081 19.303 46.3137C19.303 47.1192 19.9538 47.77 20.7593 47.77H38.2193C39.0248 47.77 39.6757 47.1192 39.6757 46.3137C39.6757 45.5081 39.0248 44.8573 38.2193 44.8573H30.943V39.0373C30.9483 38.968 30.9483 38.8986 30.943 38.8346C35.216 38.3385 38.9235 35.6606 40.7372 31.761H42.631C43.7886 31.761 44.8982 31.3022 45.7197 30.4807C46.5359 29.6645 47 28.5496 47 27.392V24.4793C47 23.3164 46.5306 22.2068 45.7037 21.3906C44.8768 20.5744 43.7619 20.121 42.6043 20.1263L42.599 20.137ZM16.4117 28.8643C16.0276 28.8643 15.6542 28.7096 15.3821 28.4376C15.11 28.1655 14.9553 27.7921 14.9553 27.408V24.4953C14.9553 23.6898 15.6062 23.039 16.4117 23.039H17.1372V26.5758C17.1372 27.344 17.2065 28.1068 17.3559 28.859H16.4117V28.8643ZM44.0607 27.408C44.0607 28.2135 43.4098 28.8643 42.6043 28.8643H41.6601C41.7988 28.1122 41.8735 27.344 41.8788 26.5812V23.0443H42.6043C43.4098 23.0443 44.0607 23.6952 44.0607 24.5007V27.4133V27.408Z" fill="#9786FF"/>
</svg>
