<svg width="60" height="61" viewBox="0 0 60 61" fill="none" xmlns="http://www.w3.org/2000/svg">
    <path fill="#7ECFFC" fill-opacity="0.2" d="M22.5,0.5h15C52.5,0.5,60,8,60,23v15c0,15-7.5,22.5-22.5,22.5h-15C7.5,60.5,0,53,0,38V23
	C0,8,7.5,0.5,22.5,0.5z"/>
    <path fill="#009EF7" d="M33.132,18.292c0,2.08-1.711,3.792-3.826,3.792c-2.099,0-3.81-1.712-3.81-3.792
	c0-2.096,1.711-3.792,3.81-3.792C31.421,14.5,33.132,16.196,33.132,18.292z M44.318,32.052c-1.162-0.368-2.163-0.911-2.905-1.584
	c-0.323-0.288-0.759-0.752-1.228-1.312c-0.226-0.256-0.419-0.496-0.581-0.704c0.355-0.944,0.662-1.632,0.921-2.177
	c0.129-0.256,0.516-1.071,0.08-1.887c-0.193-0.353-0.694-0.961-1.84-1.009c-2.341-0.112-4.424,0.416-6.15,1.552
	c-0.323,0.192-0.533,0.256-0.872,0.209c-0.129-0.017-0.274-0.017-0.403-0.033h-0.178c-2.324-0.08-4.729-0.159-7.151,0.192
	c-1.759,0.257-3.309,0.769-4.568,1.536c-1.275,0.768-2.356,1.872-3.164,3.152c-0.936,1.535-1.437,3.279-1.437,5.023v0.08
	c0.032,2.32,1.05,4.656,3.132,7.137c0.323,0.367,0.565,0.896,0.759,1.359c0.017,0.048,0.032,0.192,0.049,0.288
	c0.064,0.353,0.145,0.849,0.436,1.408c0.161,0.304,0.322,0.544,0.436,0.704c0.227,0.304,0.581,0.479,0.952,0.479l4.246,0.032h0.016
	c0.501,0,0.953-0.32,1.13-0.784c0.081-0.192,0.162-0.416,0.259-0.624l3.438-0.016c0.146,0.271,0.274,0.527,0.42,0.783
	c0.21,0.369,0.613,0.608,1.049,0.608l4.245-0.016c0.598,0,1.114-0.433,1.195-1.04c0.064-0.448,0.193-0.88,0.387-1.28
	c0.13-0.272,0.291-0.528,0.484-0.768c1.243-0.257,2.293-0.753,3.116-1.472c0.5-0.416,0.823-0.849,1.113-1.232
	c0.371-0.465,0.646-0.832,1.211-1.184c0.371-0.225,0.807-0.4,1.259-0.513c0.55-0.144,0.921-0.608,0.937-1.168l0.049-4.592
	C45.158,32.691,44.819,32.212,44.318,32.052z M35.101,32.148c0-0.721,0.598-1.297,1.324-1.297c0.347,0,0.68,0.137,0.925,0.38
	s0.383,0.573,0.383,0.917s-0.138,0.673-0.383,0.916s-0.578,0.379-0.925,0.379C35.698,33.443,35.101,32.868,35.101,32.148z
	 M25.448,31.284c0-0.656,0.532-1.2,1.21-1.2h5.312c0.32,0,0.629,0.127,0.855,0.352c0.228,0.225,0.354,0.53,0.354,0.849
	s-0.127,0.623-0.354,0.849c-0.227,0.225-0.535,0.352-0.855,0.352h-5.312C25.98,32.484,25.448,31.939,25.448,31.284z"/>
</svg>
