<svg width="60" height="61" viewBox="0 0 60 61" fill="none" xmlns="http://www.w3.org/2000/svg">
<path d="M22.5 0.5H37.5C52.5 0.5 60 8 60 23V38C60 53 52.5 60.5 37.5 60.5H22.5C7.5 60.5 0 53 0 38V23C0 8 7.5 0.5 22.5 0.5Z" fill="#36CF00" fill-opacity="0.2"/>
<g clip-path="url(#clip0_13260_22567)">
<path d="M24.75 41.5H17.75C17.2859 41.5 16.8408 41.3156 16.5126 40.9874C16.1844 40.6592 16 40.2141 16 39.75V34.5C16.4596 34.5 16.9148 34.4095 17.3394 34.2336C17.764 34.0577 18.1499 33.7999 18.4749 33.4749C18.7999 33.1499 19.0577 32.764 19.2336 32.3394C19.4095 31.9148 19.5 31.4596 19.5 31C19.5 30.5404 19.4095 30.0852 19.2336 29.6606C19.0577 29.236 18.7999 28.8501 18.4749 28.5251C18.1499 28.2001 17.764 27.9423 17.3394 27.7664C16.9148 27.5905 16.4596 27.5 16 27.5V22.25C16 21.7859 16.1844 21.3408 16.5126 21.0126C16.8408 20.6844 17.2859 20.5 17.75 20.5H24.75V21.375C24.75 21.6071 24.8422 21.8296 25.0063 21.9937C25.1704 22.1578 25.3929 22.25 25.625 22.25C25.8571 22.25 26.0796 22.1578 26.2437 21.9937C26.4078 21.8296 26.5 21.6071 26.5 21.375V20.5H42.25C42.7141 20.5 43.1592 20.6844 43.4874 21.0126C43.8156 21.3408 44 21.7859 44 22.25V27.5C43.5404 27.5 43.0852 27.5905 42.6606 27.7664C42.236 27.9423 41.8501 28.2001 41.5251 28.5251C41.2001 28.8501 40.9423 29.236 40.7664 29.6606C40.5905 30.0852 40.5 30.5404 40.5 31C40.5 31.4596 40.5905 31.9148 40.7664 32.3394C40.9423 32.764 41.2001 33.1499 41.5251 33.4749C41.8501 33.7999 42.236 34.0577 42.6606 34.2336C43.0852 34.4095 43.5404 34.5 44 34.5V39.75C44 40.2141 43.8156 40.6592 43.4874 40.9874C43.1592 41.3156 42.7141 41.5 42.25 41.5H26.5V40.625C26.5 40.3929 26.4078 40.1704 26.2437 40.0063C26.0796 39.8422 25.8571 39.75 25.625 39.75C25.3929 39.75 25.1704 39.8422 25.0063 40.0063C24.8422 40.1704 24.75 40.3929 24.75 40.625V41.5ZM25.625 25.75C25.3929 25.75 25.1704 25.8422 25.0063 26.0063C24.8422 26.1704 24.75 26.3929 24.75 26.625V28.375C24.75 28.6071 24.8422 28.8296 25.0063 28.9937C25.1704 29.1578 25.3929 29.25 25.625 29.25C25.8571 29.25 26.0796 29.1578 26.2437 28.9937C26.4078 28.8296 26.5 28.6071 26.5 28.375V26.625C26.5 26.5101 26.4774 26.3963 26.4334 26.2902C26.3894 26.184 26.325 26.0875 26.2437 26.0063C26.1625 25.925 26.066 25.8606 25.9598 25.8166C25.8537 25.7726 25.7399 25.75 25.625 25.75ZM25.625 32.75C25.3929 32.75 25.1704 32.8422 25.0063 33.0063C24.8422 33.1704 24.75 33.3929 24.75 33.625V35.375C24.75 35.6071 24.8422 35.8296 25.0063 35.9937C25.1704 36.1578 25.3929 36.25 25.625 36.25C25.8571 36.25 26.0796 36.1578 26.2437 35.9937C26.4078 35.8296 26.5 35.6071 26.5 35.375V33.625C26.5 33.5101 26.4774 33.3963 26.4334 33.2902C26.3894 33.184 26.325 33.0875 26.2437 33.0063C26.1625 32.925 26.066 32.8606 25.9598 32.8166C25.8537 32.7726 25.7399 32.75 25.625 32.75Z" fill="#36CF00"/>
</g>
<defs>
<clipPath id="clip0_13260_22567">
<rect width="32" height="32" fill="white" transform="translate(14 15)"/>
</clipPath>
</defs>
</svg>
