<svg width="60" height="61" viewBox="0 0 60 61" fill="none" xmlns="http://www.w3.org/2000/svg">
<path d="M22.5 0.5H37.5C52.5 0.5 60 8 60 23V38C60 53 52.5 60.5 37.5 60.5H22.5C7.5 60.5 0 53 0 38V23C0 8 7.5 0.5 22.5 0.5Z" fill="#36CF00" fill-opacity="0.2"/>
<g clip-path="url(#clip0_13342_180905)">
<path d="M33.7549 44.2729H37.7117L37.7655 39.8567L33.7549 37.5055V44.2729ZM37.9603 24.0688L38.0467 17H28.8125L31.7391 17.4898L33.7466 17.8227L33.7549 26.4547L37.9603 24.0688Z" fill="#8BE66B"/>
<path d="M39.8552 30.1975V25.6519L33.7543 29.1045V34.8919L39.8552 38.3795V33.834H45V30.1978L39.8552 30.1975ZM15.3311 44.2729L31.3204 47V19.7275L15 17L15.3311 44.2729Z" fill="#36CF00"/>
</g>
<defs>
<clipPath id="clip0_13342_180905">
<rect width="32" height="32" fill="white" transform="translate(14 15)"/>
</clipPath>
</defs>
</svg>
