<svg width="60" height="61" viewBox="0 0 60 61" fill="none" xmlns="http://www.w3.org/2000/svg">
<path d="M22.5 0.5H37.5C52.5 0.5 60 8 60 23V38C60 53 52.5 60.5 37.5 60.5H22.5C7.5 60.5 0 53 0 38V23C0 8 7.5 0.5 22.5 0.5Z" fill="#FCAC72" fill-opacity="0.2"/>
<g clip-path="url(#clip0_13592_34804)">
<path d="M32.1753 29.2248C31.2125 29.6212 30.3299 30.1499 29.5275 30.8106C28.7252 31.4714 28.0314 32.2265 27.4461 33.0761C26.8609 33.9257 26.4078 34.8555 26.0868 35.8655C25.7659 36.8755 25.6054 37.9375 25.6054 39.0513C25.6054 40.033 25.7328 40.9723 25.9877 41.869C26.2426 42.7658 26.5965 43.6106 27.0496 44.4035H26.285C25.7375 44.4035 25.1004 44.3847 24.3735 44.3469C23.6467 44.3091 22.8962 44.2572 22.1222 44.1912C21.3482 44.1251 20.5788 44.0496 19.8142 43.9646C19.0496 43.8796 18.3558 43.79 17.7328 43.6956C17.1098 43.6012 16.5812 43.5068 16.147 43.4124C15.7128 43.318 15.439 43.2236 15.3257 43.1292C15.1181 42.9782 14.9623 42.5109 14.8585 41.7274C14.7547 40.944 14.7971 39.9386 14.9859 38.7115C15.0614 38.2395 15.2172 37.8525 15.4532 37.5504C15.6892 37.2484 15.9771 36.9888 16.3169 36.7717C16.6567 36.5546 17.0343 36.3799 17.4496 36.2478C17.865 36.1156 18.2898 35.9882 18.724 35.8655C19.1582 35.7428 19.5783 35.6106 19.9842 35.469C20.3901 35.3274 20.7629 35.1528 21.1027 34.9451C21.4992 34.6997 21.806 34.459 22.0231 34.223C22.2402 33.987 22.396 33.7558 22.4903 33.5292C22.5847 33.3027 22.6319 33.0667 22.6319 32.8212C22.6319 32.5758 22.6225 32.3021 22.6036 32C22.5659 31.5658 22.4148 31.2212 22.1505 30.9664C21.8862 30.7115 21.5936 30.4519 21.2726 30.1876C21.1216 30.0555 20.9847 29.8714 20.862 29.6354C20.7393 29.3994 20.6308 29.1587 20.5364 28.9133C20.442 28.6301 20.3476 28.3375 20.2532 28.0354C20.121 27.9976 19.9889 27.9316 19.8567 27.8372C19.7434 27.7428 19.6207 27.6106 19.4886 27.4407C19.3564 27.2708 19.2432 27.0254 19.1488 26.7044C19.0544 26.3835 19.0166 26.0909 19.0355 25.8265C19.0544 25.5622 19.111 25.3263 19.2054 25.1186C19.2809 24.9109 19.4036 24.7127 19.5735 24.5239C19.5735 23.8065 19.6113 23.0891 19.6868 22.3717C19.7623 21.7676 19.8945 21.1162 20.0833 20.4177C20.2721 19.7192 20.5647 19.0962 20.9611 18.5487C21.3387 18.0201 21.7446 17.5906 22.1788 17.2602C22.6131 16.9298 23.0662 16.6702 23.5381 16.4814C24.0101 16.2926 24.4774 16.1652 24.9399 16.0991C25.4024 16.033 25.8508 16 26.285 16C26.8325 16 27.3753 16.0614 27.9134 16.1841C28.4514 16.3068 28.9564 16.472 29.4284 16.6796C29.9004 16.8873 30.3204 17.1233 30.6886 17.3876C31.0567 17.6519 31.3446 17.9162 31.5523 18.1805C32.0432 18.7847 32.4019 19.4501 32.6284 20.177C32.855 20.9038 33.0154 21.5976 33.1098 22.2584C33.2042 23.0136 33.2514 23.7782 33.2514 24.5522C33.3836 24.6466 33.4874 24.7693 33.5629 24.9204C33.6384 25.0525 33.6998 25.2224 33.747 25.4301C33.7942 25.6378 33.7989 25.8926 33.7611 26.1947C33.7234 26.61 33.6432 26.9357 33.5204 27.1717C33.3977 27.4077 33.2609 27.5917 33.1098 27.7239C32.9399 27.8749 32.7606 27.9788 32.5718 28.0354C32.534 28.1487 32.4962 28.2714 32.4585 28.4035L32.3169 28.8C32.2791 28.9322 32.2319 29.0737 32.1753 29.2248ZM36.2249 30.131C37.452 30.131 38.6083 30.367 39.6939 30.8389C40.7794 31.3109 41.7234 31.9528 42.5257 32.7646C43.3281 33.5764 43.9653 34.5251 44.4373 35.6106C44.9092 36.6962 45.1452 37.8525 45.1452 39.0796C45.1452 40.3068 44.9092 41.4631 44.4373 42.5487C43.9653 43.6342 43.3281 44.5829 42.5257 45.3947C41.7234 46.2065 40.7794 46.8437 39.6939 47.3062C38.6083 47.7687 37.452 48 36.2249 48C34.9788 48 33.8131 47.7687 32.7275 47.3062C31.642 46.8437 30.698 46.2065 29.8957 45.3947C29.0933 44.5829 28.4561 43.6342 27.9842 42.5487C27.5122 41.4631 27.2762 40.3068 27.2762 39.0796C27.2762 37.8525 27.5122 36.6962 27.9842 35.6106C28.4561 34.5251 29.0933 33.5764 29.8957 32.7646C30.698 31.9528 31.642 31.3109 32.7275 30.8389C33.8131 30.367 34.9788 30.131 36.2249 30.131ZM41.4355 37.3239C41.5488 36.9463 41.4968 36.6018 41.2797 36.2903C41.0626 35.9788 40.7747 35.7569 40.416 35.6248C40.0573 35.4926 39.6986 35.4832 39.3399 35.5965C38.9812 35.7097 38.7169 36.0024 38.547 36.4743C38.4526 36.7953 38.3629 37.0926 38.278 37.3664C38.193 37.6401 38.108 37.928 38.0231 38.2301C37.9381 38.5322 37.8343 38.8578 37.7116 39.2071C37.5889 39.5563 37.4331 39.9575 37.2443 40.4106C37.0555 40.9015 36.7865 41.1327 36.4373 41.1044C36.088 41.0761 35.819 40.8732 35.6302 40.4956C35.4225 40.118 35.229 39.7121 35.0496 39.2779C34.8703 38.8437 34.6957 38.4189 34.5257 38.0035C34.3558 37.5882 34.2048 37.2106 34.0726 36.8708C33.9405 36.531 33.8272 36.2572 33.7328 36.0496C33.5818 35.7475 33.3316 35.5776 32.9824 35.5398C32.6331 35.5021 32.2933 35.554 31.9629 35.6956C31.6325 35.8372 31.3588 36.059 31.1417 36.3611C30.9246 36.6631 30.8915 36.9935 31.0426 37.3522C31.1747 37.7298 31.3257 38.1546 31.4957 38.6265C31.6656 39.0985 31.8449 39.5799 32.0337 40.0708C32.2225 40.5617 32.4019 41.0431 32.5718 41.515C32.7417 41.987 32.8927 42.3929 33.0249 42.7327C33.308 43.4501 33.7375 43.9882 34.3134 44.3469C34.8892 44.7056 35.4933 44.8944 36.1257 44.9133C36.7582 44.9322 37.3623 44.7906 37.9381 44.4885C38.5139 44.1864 38.934 43.7333 39.1983 43.1292C39.406 42.6383 39.6184 42.1239 39.8355 41.5858C40.0526 41.0478 40.2603 40.5239 40.4585 40.0142C40.6567 39.5044 40.8408 39.0136 41.0107 38.5416C41.1806 38.0696 41.3222 37.6637 41.4355 37.3239Z" fill="#FCAC72"/>
</g>
<defs>
<clipPath id="clip0_13592_34804">
<rect width="32" height="32" fill="white" transform="translate(14 16)"/>
</clipPath>
</defs>
</svg>
