<svg width="60" height="61" viewBox="0 0 60 61" fill="none" xmlns="http://www.w3.org/2000/svg">
<path d="M22.5 0.5H37.5C52.5 0.5 60 8 60 23V38C60 53 52.5 60.5 37.5 60.5H22.5C7.5 60.5 0 53 0 38V23C0 8 7.5 0.5 22.5 0.5Z" fill="#FCD37E" fill-opacity="0.3"/>
<path d="M16.5 21.5H48C50 21.5 51 22.5 51 24.5V48.5C51 50.5 50 51.5 48 51.5H16.5C14.5 51.5 13.5 50.5 13.5 48.5V24.5C13.5 22.5 14.5 21.5 16.5 21.5Z" fill="#FCCF72" fill-opacity="0.4"/>
<path d="M9.75 15.5C9.75 14.7044 10.0661 13.9413 10.6287 13.3787C11.1913 12.8161 11.9544 12.5 12.75 12.5H30.018C30.6631 12.5 31.291 12.708 31.8085 13.093C32.3261 13.478 32.7058 14.0197 32.8913 14.6375L33.825 17.75H44.25C45.0457 17.75 45.8087 18.0661 46.3713 18.6287C46.9339 19.1913 47.25 19.9544 47.25 20.75V44.75C47.25 45.5457 46.9339 46.3087 46.3713 46.8713C45.8087 47.4339 45.0457 47.75 44.25 47.75H12.75C11.9544 47.75 11.1913 47.4339 10.6287 46.8713C10.0661 46.3087 9.75 45.5457 9.75 44.75V15.5Z" fill="#FCCF72"/>
<path d="M40.5 38.75C40.8978 38.75 41.2794 38.908 41.5607 39.1893C41.842 39.4706 42 39.8522 42 40.25C42 40.6478 41.842 41.0294 41.5607 41.3107C41.2794 41.592 40.8978 41.75 40.5 41.75H17.25C16.8522 41.75 16.4706 41.592 16.1893 41.3107C15.908 41.0294 15.75 40.6478 15.75 40.25C15.75 39.8522 15.908 39.4706 16.1893 39.1893C16.4706 38.908 16.8522 38.75 17.25 38.75H40.5ZM40.5 32C40.8978 32 41.2794 32.158 41.5607 32.4393C41.842 32.7206 42 33.1022 42 33.5C42 33.8978 41.842 34.2794 41.5607 34.5607C41.2794 34.842 40.8978 35 40.5 35H17.25C16.8522 35 16.4706 34.842 16.1893 34.5607C15.908 34.2794 15.75 33.8978 15.75 33.5C15.75 33.1022 15.908 32.7206 16.1893 32.4393C16.4706 32.158 16.8522 32 17.25 32H40.5ZM40.5 24.5C40.697 24.5 40.892 24.5388 41.074 24.6142C41.256 24.6896 41.4214 24.8001 41.5607 24.9393C41.7 25.0786 41.8104 25.244 41.8858 25.426C41.9612 25.608 42 25.803 42 26C42 26.197 41.9612 26.392 41.8858 26.574C41.8104 26.756 41.7 26.9214 41.5607 27.0607C41.4214 27.1999 41.256 27.3104 41.074 27.3858C40.892 27.4612 40.697 27.5 40.5 27.5H17.25C17.053 27.5 16.858 27.4612 16.676 27.3858C16.494 27.3104 16.3286 27.1999 16.1893 27.0607C16.0501 26.9214 15.9396 26.756 15.8642 26.574C15.7888 26.392 15.75 26.197 15.75 26C15.75 25.803 15.7888 25.608 15.8642 25.426C15.9396 25.244 16.0501 25.0786 16.1893 24.9393C16.3286 24.8001 16.494 24.6896 16.676 24.6142C16.858 24.5388 17.053 24.5 17.25 24.5H40.5Z" fill="white" fill-opacity="0.4"/>
<path d="M30.1314 42.47V40.25C31.4266 39.9913 32.4256 39.3853 33.1284 38.4328C33.8311 37.4803 34.1829 36.3373 34.1829 35.0053C34.1829 34.043 33.9189 33.2105 33.3924 32.5078C32.8644 31.805 31.4446 30.926 29.1324 29.8715C27.9481 29.3353 27.3564 28.6595 27.3564 27.8458C27.3564 27.1985 27.5784 26.6713 28.0224 26.264C28.4664 25.8568 29.0214 25.6535 29.6874 25.6535C30.7419 25.6535 31.6576 26.1343 32.4346 27.0965L33.6556 25.3205C32.7489 24.1918 31.5744 23.5535 30.1314 23.4058V21.2968H28.4941V23.378C27.2919 23.6 26.3484 24.1363 25.6636 24.9875C24.9789 25.8388 24.6369 26.8925 24.6369 28.151C24.6369 29.8715 25.7004 31.2313 27.8281 32.2303C28.9381 32.7478 29.7331 33.1228 30.2146 33.3538C30.6954 33.5855 31.0194 33.8585 31.1859 34.1728C31.3524 34.4878 31.4356 34.8478 31.4356 35.255C31.4356 37.0678 30.5656 37.9745 28.8271 37.9745C27.5139 37.9745 26.4039 37.0955 25.4971 35.3383L23.6934 37.0588C24.8034 39.0388 26.4039 40.139 28.4941 40.361V42.47H30.1314Z" fill="#FFAF08"/>
</svg>
