<svg width="60" height="61" viewBox="0 0 60 61" fill="none" xmlns="http://www.w3.org/2000/svg">
<path d="M22.5 0.5H37.5C52.5 0.5 60 8 60 23V38C60 53 52.5 60.5 37.5 60.5H22.5C7.5 60.5 0 53 0 38V23C0 8 7.5 0.5 22.5 0.5Z" fill="#D17EFC" fill-opacity="0.2"/>
<path d="M40.3436 13.7C44.2757 13.7 47.4632 16.8876 47.4632 20.8196V40.8436C47.4632 44.7757 44.2757 47.9633 40.3436 47.9633H20.3196C16.3875 47.9633 13.2 44.7757 13.2 40.8436V20.8196C13.2 16.8876 16.3875 13.7 20.3196 13.7H40.3436ZM22.9895 31.7661C20.9251 31.7661 19.2516 33.4396 19.2516 35.5039C19.2516 37.5682 20.9251 39.2417 22.9895 39.2417C25.0538 39.2417 26.7273 37.5682 26.7273 35.5039C26.7273 33.4396 25.0538 31.7661 22.9895 31.7661ZM22.9895 33.546C24.0708 33.546 24.9473 34.4226 24.9473 35.5039C24.9473 36.5852 24.0708 37.4618 22.9895 37.4618C21.9081 37.4618 21.0315 36.5852 21.0315 35.5039C21.0315 34.4226 21.9081 33.546 22.9895 33.546ZM41.8565 34.3469H31.5331C30.8941 34.3469 30.3761 34.8649 30.3761 35.5039C30.3761 36.1428 30.8941 36.6608 31.5331 36.6608H41.8565C42.4955 36.6608 43.0135 36.1428 43.0135 35.5039C43.0135 34.8649 42.4955 34.3469 41.8565 34.3469ZM27.3628 21.8642C27.0308 21.5141 26.4779 21.4995 26.1278 21.8315L22.4586 25.3115L20.5949 23.4478C20.2493 23.1022 19.689 23.1022 19.3434 23.4478C18.9978 23.7934 18.9978 24.3537 19.3434 24.6993L21.6462 27.002C21.6847 27.0406 21.7267 27.0756 21.7717 27.1065C21.7871 27.1255 21.8032 27.144 21.82 27.1618C22.152 27.5118 22.7049 27.5264 23.055 27.1944L27.3286 23.1412C27.6863 22.8018 27.706 22.2384 27.3728 21.875C27.3695 21.8713 27.3661 21.8677 27.3628 21.8642ZM41.8565 23.4005H31.5331C30.8941 23.4005 30.3761 23.9185 30.3761 24.5574C30.3761 25.1964 30.8941 25.7144 31.5331 25.7144H41.8565C42.4955 25.7144 43.0135 25.1964 43.0135 24.5574C43.0135 23.9185 42.4955 23.4005 41.8565 23.4005Z" fill="#D17EFC"/>
</svg>
