<svg width="60" height="61" viewBox="0 0 60 61" fill="none" xmlns="http://www.w3.org/2000/svg">
<path d="M22.5 0.5H37.5C52.5 0.5 60 8 60 23V38C60 53 52.5 60.5 37.5 60.5H22.5C7.5 60.5 0 53 0 38V23C0 8 7.5 0.5 22.5 0.5Z" fill="#867EFC" fill-opacity="0.2"/>
<path d="M24.6 44.3C24.3599 44.4201 24.1198 44.5401 23.7596 44.5401C24.3599 45.5007 25.7974 47.4288 26.878 47.0686L46.0888 41.3053C47.4095 40.9451 48.25 39.5043 47.7697 38.0635L46.449 33.8599C46.3289 33.9799 46.2088 33.9799 46.0888 34.1L34.2 38.3L24.6 44.3ZM44.768 26.8973L44.6479 26.297C44.2877 25.0963 43.0871 24.2558 41.8864 24.3759C41.8864 24.4959 42.0065 24.616 42.0065 24.7361C42.4867 25.9368 43.5673 26.6572 44.768 26.8973Z" fill="#B8A7FD"/>
<path d="M48.8506 29.0585L47.0496 25.2163C45.3687 25.8167 43.5677 25.0963 42.8473 23.5354C42.1269 21.8545 42.6071 19.9334 44.0479 19.0929L41.7666 14.5304C40.9262 12.7294 38.765 12.009 37.084 12.8494L12.8304 24.7361C11.0294 25.5766 10.309 27.7378 11.1495 29.4187L13.3107 33.8612C14.9916 33.2608 16.9127 33.9813 17.6331 35.6622C18.3535 37.3431 17.8732 39.2642 16.4324 40.1047L18.2335 43.9468C19.0739 45.7478 21.2351 46.4682 22.9161 45.6278L47.1697 33.7411C48.9707 32.7806 49.6911 30.7394 48.8506 29.0585ZM22.4358 24.3759L29.2796 21.014C30 20.6538 30.9606 20.8939 31.3208 21.7344C31.681 22.4548 31.4409 23.4153 30.6004 23.7755L23.7565 27.1374C23.3963 27.3776 22.9161 27.3776 22.5559 27.2575C22.1957 27.1374 21.8355 26.8973 21.7154 26.5371C21.3552 25.5766 21.7154 24.7361 22.4358 24.3759ZM18.1134 26.417C17.9933 26.417 17.8732 26.5371 17.7532 26.5371C17.393 26.5371 17.2729 26.417 17.0328 26.0568L16.6726 25.3364C16.5525 24.9762 16.6726 24.4959 17.0328 24.3759C17.393 24.2558 17.8732 24.3759 17.9933 24.7361L18.3535 25.4565C18.7137 25.8167 18.4736 26.297 18.1134 26.417ZM19.7943 29.899C19.6743 29.899 19.5542 30.019 19.4341 30.019C19.0739 30.019 18.9539 29.899 18.7137 29.5388L18.3535 28.8184C18.2335 28.4582 18.3535 27.9779 18.7137 27.8578C19.0739 27.7378 19.5542 27.8578 19.6743 28.218L20.0345 28.9384C20.3947 29.2986 20.1545 29.6588 19.7943 29.899ZM21.3552 33.2608C21.2351 33.2608 21.2351 33.3809 20.995 33.3809C20.6348 33.3809 20.5147 33.2608 20.2746 32.9006L19.9144 32.1802C19.7943 31.82 19.9144 31.3398 20.2746 31.2197C20.6348 31.0996 21.1151 31.2197 21.2351 31.5799L21.5953 32.3003C21.9555 32.6605 21.8355 33.0207 21.3552 33.2608ZM23.0361 36.5027C22.9161 36.6227 22.9161 36.6227 22.6759 36.6227C22.3157 36.6227 22.1957 36.5027 21.9555 36.1425L21.5953 35.4221C21.4753 35.0619 21.5953 34.5816 21.9555 34.4615C22.3157 34.3415 22.796 34.4615 22.9161 34.8217L23.2763 35.5421C23.6365 35.9023 23.5164 36.3826 23.0361 36.5027ZM24.7171 39.8645C24.597 39.9846 24.597 39.9846 24.3569 39.9846C23.9967 39.9846 23.8766 39.8645 23.6365 39.5043L23.2763 38.7839C23.1562 38.4237 23.2763 37.9435 23.6365 37.8234C23.9967 37.7033 24.477 37.8234 24.597 38.1836L24.9572 38.904C25.3174 39.2642 25.1974 39.7445 24.7171 39.8645ZM38.765 26.5371L26.5181 32.6605C25.7977 33.0207 24.8372 32.7806 24.477 31.9401C24.1167 31.2197 24.3569 30.2592 25.1974 29.899L37.4442 23.7755C38.1646 23.4153 39.1252 23.6555 39.4854 24.4959C39.8456 25.2163 39.4854 26.1769 38.765 26.5371Z" fill="#9786FF"/>
</svg>
