<svg width="60" height="61" viewBox="0 0 60 61" fill="none" xmlns="http://www.w3.org/2000/svg">
<path opacity="0.2" d="M22.5 0.5H37.5C52.5 0.5 60 8 60 23V38C60 53 52.5 60.5 37.5 60.5H22.5C7.5 60.5 0 53 0 38V23C0 8 7.5 0.5 22.5 0.5Z" fill="#91CF2E"/>
<path d="M15.704 30.909C15.8559 30.9092 16.0064 30.8794 16.1467 30.8213C16.2871 30.7632 16.4146 30.6779 16.522 30.5705L26.016 21.0765L30.2215 25.282C30.3289 25.3895 30.4564 25.4747 30.5967 25.5329C30.7371 25.591 30.8875 25.6209 31.0394 25.6209C31.1914 25.6209 31.3418 25.591 31.4822 25.5329C31.6225 25.4747 31.75 25.3895 31.8574 25.282L39.4358 17.6805V19.9305C39.4358 20.2372 39.5576 20.5314 39.7745 20.7483C39.9914 20.9652 40.2856 21.087 40.5923 21.087C40.899 21.087 41.1932 20.9652 41.4101 20.7483C41.627 20.5314 41.7488 20.2372 41.7488 19.9305V14.8565C41.7488 14.5498 41.627 14.2556 41.4101 14.0387C41.1932 13.8219 40.899 13.7 40.5923 13.7H35.512C35.2053 13.7 34.9111 13.8219 34.6942 14.0387C34.4773 14.2556 34.3555 14.5498 34.3555 14.8565C34.3555 15.1633 34.4773 15.4574 34.6942 15.6743C34.9111 15.8912 35.2053 16.013 35.512 16.013H37.8377L31.031 22.8197L26.8255 18.6142C26.6083 18.3977 26.3142 18.2761 26.0075 18.2761C25.7009 18.2761 25.4067 18.3977 25.1896 18.6142L14.886 28.9177C14.7242 29.0794 14.614 29.2855 14.5694 29.5099C14.5247 29.7343 14.5476 29.9669 14.6352 30.1783C14.7227 30.3897 14.871 30.5703 15.0613 30.6974C15.2516 30.8245 15.4752 30.8923 15.704 30.8922V30.909Z" fill="#91CF2E" fill-opacity="0.4"/>
<path d="M45.7486 45.0499H44.2766V25.2839C44.2761 25.0332 44.1762 24.7928 43.9989 24.6155C43.8215 24.4381 43.5812 24.3383 43.3304 24.3377H38.0525C37.8015 24.3377 37.5608 24.4374 37.3834 24.6149C37.2059 24.7923 37.1062 25.033 37.1062 25.2839V45.0499H33.7061V31.4093C33.7055 31.1585 33.6056 30.9181 33.4283 30.7408C33.251 30.5635 33.0106 30.4636 32.7598 30.463H27.484C27.2332 30.4636 26.9929 30.5635 26.8155 30.7408C26.6382 30.9181 26.5383 31.1585 26.5378 31.4093V45.0499H23.1565V38.2874C23.156 38.0366 23.0561 37.7963 22.8788 37.6189C22.7014 37.4416 22.4611 37.3417 22.2103 37.3412H16.9345C16.6851 37.3439 16.4469 37.4448 16.2714 37.6219C16.0959 37.799 15.9972 38.0381 15.9966 38.2874V45.0604H14.2513C13.9725 45.0604 13.7051 45.1712 13.5079 45.3684C13.3107 45.5655 13.2 45.8329 13.2 46.1118C13.2 46.3906 13.3107 46.6581 13.5079 46.8552C13.7051 47.0524 13.9725 47.1632 14.2513 47.1632H45.7486C46.0274 47.1632 46.2948 47.0524 46.492 46.8552C46.6892 46.6581 46.7999 46.3906 46.7999 46.1118C46.7999 45.8329 46.6892 45.5655 46.492 45.3684C46.2948 45.1712 46.0274 45.0604 45.7486 45.0604V45.0499Z" fill="#91CF2E"/>
</svg>
