<svg width="60" height="61" viewBox="0 0 60 61" fill="none" xmlns="http://www.w3.org/2000/svg">
<path d="M22.5 0.5H37.5C52.5 0.5 60 8 60 23V38C60 53 52.5 60.5 37.5 60.5H22.5C7.5 60.5 0 53 0 38V23C0 8 7.5 0.5 22.5 0.5Z" fill="#D17EFC" fill-opacity="0.2"/>
<path d="M13.6943 18.5585L42.9218 13.4045C43.6008 13.2847 44.2968 13.2998 44.9699 13.449C45.6431 13.5982 46.2803 13.8785 46.8451 14.2739C47.4099 14.6694 47.8913 15.1722 48.2618 15.7537C48.6323 16.3352 48.8846 16.984 49.0043 17.663L52.0643 35.0203C52.1841 35.6993 52.169 36.3952 52.0198 37.0684C51.8707 37.7415 51.5903 38.3787 51.1949 38.9436C50.7995 39.5084 50.2966 39.9898 49.7151 40.3603C49.1336 40.7307 48.4848 40.983 47.8058 41.1028L18.5783 46.256C17.8993 46.3758 17.2034 46.3607 16.5302 46.2115C15.857 46.0624 15.2199 45.782 14.655 45.3866C14.0902 44.9911 13.6088 44.4883 13.2383 43.9068C12.8679 43.3253 12.6155 42.6765 12.4958 41.9975L9.43582 24.6403C9.31601 23.9613 9.33113 23.2653 9.4803 22.5921C9.62948 21.919 9.90979 21.2818 10.3052 20.717C10.7007 20.1521 11.2035 19.6708 11.785 19.3003C12.3665 18.9298 13.0153 18.6775 13.6943 18.5578V18.5585Z" fill="#D17EFC" fill-opacity="0.6"/>
<path d="M15.1072 18.1783H44.7854C48.2854 18.1783 50.0354 19.9283 50.0354 23.4283V41.0533C50.0354 44.5533 48.2854 46.3033 44.7854 46.3033H15.1072C11.6072 46.3033 9.85718 44.5533 9.85718 41.0533V23.4283C9.85718 19.9283 11.6072 18.1783 15.1072 18.1783Z" fill="#D17EFC"/>
<path d="M18.2966 31.8395L21.1766 23.807H19.8491L17.5766 30.467H17.5429L15.2591 23.807H13.9316L16.8116 31.8395H18.2966ZM23.2579 31.8395V23.807H22.0429V31.8395H23.2579ZM26.0816 31.8395V28.712H28.1629C30.0866 28.712 31.0541 27.8907 31.0541 26.2482C31.0541 24.617 30.0979 23.807 28.1854 23.807H24.8554V31.8395H26.0816ZM28.0841 27.6657H26.0816V24.8532H28.0841C28.6804 24.8532 29.1191 24.9657 29.4004 25.1907C29.6816 25.3932 29.8279 25.7532 29.8279 26.2482C29.8279 26.7432 29.6816 27.1032 29.4116 27.3282C29.1304 27.5532 28.6916 27.6657 28.0841 27.6657Z" fill="white" fill-opacity="0.6"/>
</svg>
