<svg width="26" height="26" viewBox="0 0 26 26" fill="none" xmlns="http://www.w3.org/2000/svg">
<g clip-path="url(#clip0_7842_56750)">
<path d="M12.6668 25.5C10.1945 25.5 7.77774 24.7669 5.72212 23.3934C3.66651 22.0198 2.06436 20.0676 1.11826 17.7835C0.172167 15.4995 -0.0753784 12.9861 0.406937 10.5614C0.889252 8.13661 2.07976 5.90932 3.82792 4.16117C5.57607 2.41301 7.80336 1.2225 10.2281 0.740189C12.6529 0.257874 15.1662 0.505419 17.4503 1.45151C19.7344 2.39761 21.6866 3.99976 23.0601 6.05538C24.4336 8.11099 25.1667 10.5277 25.1667 13C25.1667 16.3152 23.8498 19.4946 21.5056 21.8388C19.1614 24.183 15.982 25.5 12.6668 25.5ZM13.9168 14.25V13H17.6667V10.5H14.4346L17.0873 7.84911L15.3159 6.08036L12.665 8.73304L10.0141 6.08036L8.24532 7.85001L10.898 10.5H7.66586V13H11.4159V14.25H7.66586V16.75H11.4159V19.25H13.9159V16.75H17.6659V14.25H13.9168Z" fill="#FF8C4A"/>
</g>
<defs>
<clipPath id="clip0_7842_56750">
<rect width="25" height="25" fill="white" transform="translate(0.166748 0.5)"/>
</clipPath>
</defs>
</svg>
