<svg width="20" height="26" viewBox="0 0 20 26" fill="none" xmlns="http://www.w3.org/2000/svg">
<g clip-path="url(#clip0_158_30145)">
<path d="M6.37505 19.9623L1.65565 18.6547C1.26621 18.5468 1.03516 18.143 1.13727 17.7487L2.37476 12.9708C2.37845 12.9565 2.37845 12.9416 2.37476 12.9273L1.13727 8.14941C1.03516 7.75514 1.26621 7.35132 1.65565 7.24342L6.37505 5.93586C6.38911 5.93196 6.40195 5.92448 6.41232 5.91414L9.89423 2.44376C10.1816 2.1574 10.6437 2.1574 10.931 2.44376L14.4129 5.91414C14.4233 5.92448 14.4361 5.93196 14.4502 5.93586L19.1696 7.24342C19.559 7.35132 19.79 7.75514 19.6879 8.1494L18.4504 12.9273C18.4468 12.9416 18.4468 12.9565 18.4504 12.9708L19.6879 17.7487C19.79 18.143 19.559 18.5468 19.1696 18.6547L14.4502 19.9623C14.4361 19.9662 14.4233 19.9736 14.4129 19.984L10.931 23.4544C10.6437 23.7407 10.1815 23.7407 9.89423 23.4544L6.41232 19.984C6.40194 19.9736 6.38911 19.9662 6.37505 19.9623Z" fill="url(#paint0_linear_158_30145)"/>
<path d="M6.40337 20.0194L1.68397 18.7118C1.29453 18.6039 1.06348 18.2001 1.16559 17.8058L2.40308 13.0279C2.40677 13.0137 2.40677 12.9987 2.40308 12.9845L1.16559 8.20653C1.06348 7.81227 1.29453 7.40845 1.68397 7.30055L6.40337 5.99299C6.41743 5.98909 6.43027 5.98161 6.44064 5.97127L9.92255 2.50089C10.2099 2.21453 10.672 2.21453 10.9593 2.50089L14.4412 5.97127C14.4516 5.98161 14.4644 5.98909 14.4785 5.99299L19.1979 7.30055C19.5873 7.40845 19.8184 7.81227 19.7163 8.20653L18.4788 12.9845C18.4751 12.9987 18.4751 13.0137 18.4788 13.0279L19.7163 17.8058C19.8184 18.2001 19.5873 18.6039 19.1979 18.7118L14.4785 20.0194C14.4644 20.0233 14.4516 20.0308 14.4412 20.0411L10.9593 23.5115C10.672 23.7979 10.2099 23.7979 9.92255 23.5115L6.44064 20.0411C6.43027 20.0308 6.41743 20.0233 6.40337 20.0194Z" fill="#FFAC47"/>
<path d="M6.3916 5.92895C6.39523 5.92709 6.39932 5.92447 6.40387 5.92107C7.33614 4.99414 7.87281 4.45763 7.96798 4.36163C8.06147 4.26732 8.16486 4.16787 8.27512 4.05744C8.51957 3.81264 8.97933 3.3547 9.65439 2.68362C9.75706 2.57982 9.81872 2.51732 9.83937 2.49612C9.93868 2.3942 10.0201 2.3293 10.1273 2.28756C10.2575 2.22953 10.3726 2.22921 10.4312 2.22953C10.4325 2.54762 10.4328 6.22425 10.4321 13.2595L6.52182 6.17563L6.3916 5.92895Z" fill="url(#paint1_linear_158_30145)"/>
<path d="M15.0283 6.82345C14.7673 6.62437 14.5167 6.41823 14.2765 6.20505C14.2739 6.20252 14.4246 5.94283 14.4328 5.92889C14.4128 5.91532 14.4051 5.90685 14.3909 5.89262C14.0907 5.59218 13.5037 5.01358 13.2267 4.72778C12.679 4.19269 11.2195 2.72346 10.8974 2.41076C10.7307 2.25993 10.5109 2.22633 10.4322 2.22972C10.4308 2.54766 10.4312 6.12071 10.4332 12.9488L15.0283 6.82345Z" fill="url(#paint2_linear_158_30145)"/>
<path d="M6.27073 13.2596C5.35213 13.3812 4.89412 13.3684 4.8967 13.2211C4.88876 12.9798 3.33273 12.9792 2.3776 12.95C2.37761 12.9439 2.37649 12.9375 2.37595 12.9331C2.30118 12.6396 2.28898 12.6395 2.15593 12.0818C2.0464 11.7037 1.64049 10.0526 1.32911 8.89867C1.26388 8.62876 1.18806 8.35186 1.12076 8.08513C1.09998 7.93156 1.11617 7.74917 1.2147 7.58405C1.46855 7.75038 4.54629 9.73449 10.4479 13.5364L6.27073 13.2596Z" fill="url(#paint3_linear_158_30145)"/>
<path d="M8.59311 16.736C8.23821 17.5995 7.99819 17.9934 7.87305 17.9174C7.66202 17.8038 6.89939 19.1533 6.39672 19.9733C6.38262 19.9667 6.37285 19.9618 6.3617 19.9587C6.07659 19.8801 6.01778 19.8646 5.51495 19.7251C4.95515 19.5698 3.52344 19.1692 2.37248 18.8567C2.10822 18.7787 1.82726 18.7055 1.63108 18.6481C1.47081 18.5972 1.28652 18.4852 1.19407 18.3165C1.46375 18.1779 4.72461 16.4345 10.9767 13.0863L8.59311 16.736Z" fill="url(#paint4_linear_158_30145)"/>
<path d="M12.5413 16.3346C13.1303 17.0562 13.3622 17.4549 13.2371 17.5308C13.0385 17.6654 13.9544 19.1348 14.4359 19.9676C14.4186 19.9766 14.4127 19.9843 14.4049 19.9922C14.2776 20.1219 14.1671 20.2258 13.7849 20.6186C13.5252 20.9127 12.3584 22.0212 11.4982 22.8891C11.3059 23.088 11.1217 23.2625 10.9205 23.465C10.7978 23.5778 10.6417 23.6656 10.4507 23.6688C10.4559 23.3634 10.4925 19.6783 10.5604 12.6134L12.5413 16.3346Z" fill="url(#paint5_linear_158_30145)"/>
<path d="M14.4996 12.715C15.4159 12.5772 15.8741 12.582 15.8741 12.7293C15.8862 12.9704 17.2108 12.8187 18.4447 12.9493C18.5286 13.258 18.5257 13.2601 18.671 13.8255C18.787 14.2016 19.1791 15.7902 19.4855 16.9585C19.5554 17.2273 19.6278 17.4993 19.697 17.7828C19.7234 17.9283 19.7234 18.1179 19.6278 18.2847C19.3711 18.1229 16.2679 16.1986 10.3182 12.5118L14.4996 12.715Z" fill="url(#paint6_linear_158_30145)"/>
<path d="M6.39162 5.92912C6.37667 5.93458 6.36355 5.93886 6.35227 5.94197C5.42517 6.1976 4.66845 6.4083 4.06508 6.57532C2.70289 6.95238 2.08052 7.12492 1.74702 7.21783C1.52793 7.27078 1.34813 7.35387 1.21435 7.58408C1.46738 7.75267 4.53775 9.72857 10.4255 13.5118L6.39162 5.92912Z" fill="url(#paint7_linear_158_30145)"/>
<path d="M2.3774 12.95C2.37716 12.9593 2.37449 12.9726 2.3694 12.99C2.12524 13.928 1.91218 14.71 1.75384 15.3208C1.39636 16.6997 1.23325 17.3299 1.14624 17.6678C1.08214 17.8857 1.06356 18.0844 1.19424 18.3164C1.46544 18.1796 4.72633 16.4361 10.9769 13.0861L2.3774 12.95Z" fill="url(#paint8_linear_158_30145)"/>
<path d="M6.39569 19.9711C6.41818 19.9899 6.43824 20.0098 6.45589 20.0309C7.25138 20.8114 7.66642 21.2457 8.13346 21.6982C8.5335 22.1023 9.60618 23.1931 9.86099 23.4292C10.0216 23.5887 10.1862 23.6767 10.4505 23.6691C10.4582 23.3633 10.4917 19.6888 10.5513 12.6457L6.39569 19.9711Z" fill="url(#paint9_linear_158_30145)"/>
<path d="M14.4359 19.9676C14.4533 19.9614 14.4686 19.9566 14.4819 19.9531C15.429 19.6883 16.2197 19.484 16.8201 19.3064C17.171 19.2026 17.4681 19.133 17.726 19.0611C18.4643 18.8553 18.8595 18.7475 19.1054 18.6743C19.3214 18.6197 19.4979 18.517 19.6275 18.2844C19.3717 18.1203 16.2761 16.2041 10.3407 12.5358L14.4359 19.9676Z" fill="url(#paint10_linear_158_30145)"/>
<path d="M14.4329 5.92918C14.4446 5.93468 14.46 5.9395 14.4792 5.94366C14.6905 6.00232 14.8057 6.03489 14.9535 6.07507C15.186 6.1383 18.5192 7.06288 18.9975 7.19595C19.0918 7.23028 19.4059 7.24358 19.6093 7.58418C19.3486 7.73982 16.3504 9.44262 10.6147 12.6926L14.4329 5.92918Z" fill="url(#paint11_linear_158_30145)"/>
<path d="M18.4444 12.9492C18.6023 12.3354 18.9966 10.7538 19.1088 10.3681C19.3333 9.59693 19.4337 9.10394 19.5722 8.5743C19.7296 8.09107 19.7685 7.85676 19.609 7.58423C19.3474 7.73768 16.3494 9.44112 10.6148 12.6945C15.4239 12.8232 18.0337 12.9081 18.4444 12.9492Z" fill="url(#paint12_linear_158_30145)"/>
<path d="M10.3865 21.678C15.1385 21.678 18.9907 17.7978 18.9907 13.0113C18.9907 8.2249 15.1385 4.34473 10.3865 4.34473C5.63448 4.34473 1.78223 8.2249 1.78223 13.0113C1.78223 17.7978 5.63448 21.678 10.3865 21.678Z" fill="url(#paint13_linear_158_30145)"/>
<path d="M10.3863 20.2725C14.3518 20.2725 17.6176 16.8783 17.5665 13.121C17.5665 9.06735 14.3518 5.78125 10.3863 5.78125C6.42075 5.78125 3.20605 9.06735 3.20605 13.121C3.26952 17.1643 6.42075 20.2725 10.3863 20.2725Z" fill="white"/>
<path d="M10.3864 20.21C14.3177 20.21 17.5554 16.8451 17.5047 13.1202C17.5047 9.10152 14.3177 5.84375 10.3864 5.84375C6.45505 5.84375 3.26807 9.10152 3.26807 13.1202C3.33099 17.1286 6.45505 20.21 10.3864 20.21Z" fill="url(#paint14_linear_158_30145)"/>
<path d="M10.3555 19.0859C13.6716 19.0859 16.3599 16.3733 16.3599 13.0271C16.3599 9.68089 13.6716 6.96826 10.3555 6.96826C7.03934 6.96826 4.35107 9.68089 4.35107 13.0271C4.35107 16.3733 7.03934 19.0859 10.3555 19.0859Z" fill="black"/>
<path d="M10.3555 19.0859C13.6716 19.0859 16.3599 16.3733 16.3599 13.0271C16.3599 9.68089 13.6716 6.96826 10.3555 6.96826C7.03934 6.96826 4.35107 9.68089 4.35107 13.0271C4.35107 16.3733 7.03934 19.0859 10.3555 19.0859Z" fill="#FFF2DA"/>
<path d="M10.359 19.0831C13.641 19.0831 16.3015 16.6282 16.3015 13.2457C16.3015 9.86317 13.641 7.09033 10.359 7.09033C7.07705 7.09033 4.4165 9.86317 4.4165 13.2457C4.4165 16.6282 7.07705 19.0831 10.359 19.0831Z" fill="url(#paint15_linear_158_30145)"/>
<path d="M5.80294 6.58643C5.89568 6.84946 5.95094 7.11249 5.96872 7.37552C6.22721 7.39796 6.48571 7.46718 6.74421 7.5832C6.48569 7.67718 6.22717 7.73325 5.96864 7.75142C5.95072 8.01396 5.89549 8.27647 5.80294 8.53898C5.68868 8.27649 5.62051 8.01401 5.59841 7.75152C5.33937 7.73348 5.08033 7.67737 4.82129 7.5832C5.08029 7.46696 5.33929 7.39769 5.59829 7.37539C5.62024 7.1124 5.68846 6.84941 5.80294 6.58643Z" fill="white"/>
<path opacity="0.718308" d="M8.3902 5.4209C8.43805 5.58376 8.46585 5.74662 8.47359 5.90948C8.63379 5.9192 8.79398 5.95404 8.95417 6.01395C8.79397 6.06248 8.63377 6.09069 8.47357 6.09859C8.46578 6.26127 8.438 6.42393 8.3902 6.5866C8.3312 6.42394 8.2969 6.26129 8.28729 6.09863C8.12693 6.09076 7.96654 6.06254 7.80615 6.01395C7.96652 5.95397 8.12689 5.91913 8.28726 5.90942C8.29682 5.74658 8.33113 5.58374 8.3902 5.4209Z" fill="white"/>
<path opacity="0.881022" d="M14.5323 20.3125C14.5801 20.4754 14.6079 20.6382 14.6157 20.8011C14.7759 20.8108 14.9361 20.8456 15.0963 20.9055C14.9361 20.9541 14.7759 20.9823 14.6157 20.9902C14.6079 21.1529 14.5801 21.3155 14.5323 21.4782C14.4733 21.3155 14.439 21.1529 14.4294 20.9902C14.269 20.9824 14.1086 20.9541 13.9482 20.9055C14.1086 20.8456 14.269 20.8107 14.4294 20.801C14.4389 20.6382 14.4732 20.4753 14.5323 20.3125Z" fill="white"/>
<g filter="url(#filter0_d_158_30145)">
<path d="M12.7301 17.0706V15.929H11.3296V9.97168H10.2314C9.75788 10.2499 9.24404 10.4321 8.49846 10.5665V11.4394H9.84856V15.929H8.24658V17.0706H12.7301Z" fill="black"/>
</g>
<path d="M12.7301 17.0706V15.929H11.3296V9.97168H10.2314C9.75788 10.2499 9.24404 10.4321 8.49846 10.5665V11.4394H9.84856V15.929H8.24658V17.0706H12.7301Z" fill="white"/>
<path d="M12.7301 17.0706V15.929H11.3296V9.97168H10.2314C9.75788 10.2499 9.24404 10.4321 8.49846 10.5665V11.4394H9.84856V15.929H8.24658V17.0706H12.7301Z" fill="url(#paint16_linear_158_30145)"/>
<path d="M1.13861 16.9073L1.74001 14.6178C1.62461 14.1068 1.56829 13.5775 1.57104 13.0299C1.57379 12.4822 1.63583 11.871 1.75718 11.1962L0.963932 8.13042C0.862836 7.7397 1.0943 7.3388 1.48322 7.23099L4.65201 6.35261C4.95894 6.04312 5.33385 5.76212 5.77671 5.50961C6.21958 5.2571 6.73068 5.03293 7.31002 4.8371L9.71625 2.45446C10.0036 2.16991 10.4649 2.16893 10.751 2.45228L13.2151 4.89192C13.5731 4.9893 13.9502 5.15274 14.3465 5.38225C14.7428 5.61177 15.1623 5.90971 15.6051 6.27608L18.964 7.19403C19.3525 7.30019 19.5822 7.70012 19.4795 8.09127L18.7877 10.7251L2.13445 17.7721C1.75927 17.9309 1.32803 17.7553 1.17123 17.3798C1.10882 17.2304 1.09736 17.0643 1.13861 16.9073Z" fill="url(#paint17_linear_158_30145)"/>
</g>
<defs>
<filter id="filter0_d_158_30145" x="4.24658" y="6.97168" width="12.4834" height="15.0991" filterUnits="userSpaceOnUse" color-interpolation-filters="sRGB">
<feFlood flood-opacity="0" result="BackgroundImageFix"/>
<feColorMatrix in="SourceAlpha" type="matrix" values="0 0 0 0 0 0 0 0 0 0 0 0 0 0 0 0 0 0 127 0" result="hardAlpha"/>
<feOffset dy="1"/>
<feGaussianBlur stdDeviation="2"/>
<feColorMatrix type="matrix" values="0 0 0 0 1 0 0 0 0 1 0 0 0 0 1 0 0 0 0.499508 0"/>
<feBlend mode="normal" in2="BackgroundImageFix" result="effect1_dropShadow_158_30145"/>
<feBlend mode="normal" in="SourceGraphic" in2="effect1_dropShadow_158_30145" result="shape"/>
</filter>
<linearGradient id="paint0_linear_158_30145" x1="15.1658" y1="4.71629" x2="5.98876" y2="21.0253" gradientUnits="userSpaceOnUse">
<stop stop-color="#FCD427"/>
<stop offset="0.902116" stop-color="#FB9300"/>
<stop offset="1" stop-color="#FFC24B"/>
</linearGradient>
<linearGradient id="paint1_linear_158_30145" x1="8.41203" y1="2.75315" x2="9.42164" y2="3.61607" gradientUnits="userSpaceOnUse">
<stop stop-color="#FFF5D9"/>
<stop offset="1" stop-color="#FFC222"/>
</linearGradient>
<linearGradient id="paint2_linear_158_30145" x1="12.6559" y1="5.37393" x2="13.045" y2="3.46366" gradientUnits="userSpaceOnUse">
<stop stop-color="#FDC841"/>
<stop offset="1" stop-color="#FFEFC6"/>
</linearGradient>
<linearGradient id="paint3_linear_158_30145" x1="4.72128" y1="9.7484" x2="1.25077" y2="8.68736" gradientUnits="userSpaceOnUse">
<stop stop-color="#FB8805"/>
<stop offset="1" stop-color="#FCD47C"/>
</linearGradient>
<linearGradient id="paint4_linear_158_30145" x1="4.73983" y1="18.0458" x2="2.69311" y2="19.2574" gradientUnits="userSpaceOnUse">
<stop stop-color="#FB9705"/>
<stop offset="1" stop-color="#F2C45E"/>
</linearGradient>
<linearGradient id="paint5_linear_158_30145" x1="10.9737" y1="21.5492" x2="11.4735" y2="23.4143" gradientUnits="userSpaceOnUse">
<stop stop-color="#EB8819"/>
<stop offset="1" stop-color="#FFD892"/>
</linearGradient>
<linearGradient id="paint6_linear_158_30145" x1="18.2892" y1="15.6626" x2="20.2442" y2="15.5369" gradientUnits="userSpaceOnUse">
<stop stop-color="#FF9F37"/>
<stop offset="1" stop-color="#FFDD92"/>
</linearGradient>
<linearGradient id="paint7_linear_158_30145" x1="3.9563" y1="7.9995" x2="1.99309" y2="6.72865" gradientUnits="userSpaceOnUse">
<stop stop-color="#FFC347"/>
<stop offset="1" stop-color="#FFEEC0"/>
</linearGradient>
<linearGradient id="paint8_linear_158_30145" x1="3.19008" y1="16.5034" x2="1.86219" y2="17.0511" gradientUnits="userSpaceOnUse">
<stop stop-color="#FFC54C"/>
<stop offset="1" stop-color="#FBDB94"/>
</linearGradient>
<linearGradient id="paint9_linear_158_30145" x1="10.2205" y1="22.0879" x2="9.83083" y2="23.5534" gradientUnits="userSpaceOnUse">
<stop stop-color="#FF8A00"/>
<stop offset="1" stop-color="#FFD480"/>
</linearGradient>
<linearGradient id="paint10_linear_158_30145" x1="18.5087" y1="18.5712" x2="18.2674" y2="17.8963" gradientUnits="userSpaceOnUse">
<stop stop-color="#FEBD59"/>
<stop offset="1" stop-color="#FC8003"/>
</linearGradient>
<linearGradient id="paint11_linear_158_30145" x1="18.7759" y1="7.61062" x2="17.2681" y2="8.43472" gradientUnits="userSpaceOnUse">
<stop stop-color="#FFE9B1"/>
<stop offset="1" stop-color="#F4B94A"/>
</linearGradient>
<linearGradient id="paint12_linear_158_30145" x1="17.5" y1="9.18169" x2="19.8076" y2="8.69121" gradientUnits="userSpaceOnUse">
<stop stop-color="#FCA11A"/>
<stop offset="1" stop-color="#FED169"/>
</linearGradient>
<linearGradient id="paint13_linear_158_30145" x1="6.69746" y1="5.97215" x2="14.7105" y2="19.9114" gradientUnits="userSpaceOnUse">
<stop stop-color="#FEE6A7"/>
<stop offset="1" stop-color="#FDC63C"/>
</linearGradient>
<linearGradient id="paint14_linear_158_30145" x1="7.499" y1="7.46481" x2="13.884" y2="18.5919" gradientUnits="userSpaceOnUse">
<stop stop-color="#F89D11"/>
<stop offset="1" stop-color="#FEDB80"/>
</linearGradient>
<linearGradient id="paint15_linear_158_30145" x1="8.16086" y1="7.7688" x2="13.1701" y2="18.3664" gradientUnits="userSpaceOnUse">
<stop stop-color="#FFE8AE"/>
<stop offset="1" stop-color="#FEAE12"/>
</linearGradient>
<linearGradient id="paint16_linear_158_30145" x1="10.4883" y1="11.2033" x2="10.4883" y2="19.0429" gradientUnits="userSpaceOnUse">
<stop stop-color="#804000"/>
<stop offset="1" stop-color="#FFC85B"/>
</linearGradient>
<linearGradient id="paint17_linear_158_30145" x1="13.0353" y1="3.74316" x2="4.08923" y2="19.2382" gradientUnits="userSpaceOnUse">
<stop stop-color="#FFFEFE" stop-opacity="0.569039"/>
<stop offset="1" stop-color="white" stop-opacity="0"/>
</linearGradient>
<clipPath id="clip0_158_30145">
<rect width="20" height="25.3846" fill="white" transform="translate(0 0.307617)"/>
</clipPath>
</defs>
</svg>
