<svg width="20" height="22" viewBox="0 0 20 22" fill="none" xmlns="http://www.w3.org/2000/svg">
<path d="M10.5591 0.695809L18.4059 5.18532C18.8623 5.4464 19.1434 5.92889 19.1434 6.45105V15.4301C19.1434 15.9522 18.8623 16.4347 18.4059 16.6958L10.5591 21.1853C10.1028 21.4464 9.54058 21.4464 9.08426 21.1853L1.23742 16.6958C0.781103 16.4347 0.5 15.9522 0.5 15.4301V6.45105C0.5 5.92889 0.781103 5.4464 1.23742 5.18532L9.08426 0.695809C9.54058 0.43473 10.1028 0.43473 10.5591 0.695809Z" fill="url(#paint0_linear_981_1968)"/>
<path d="M10.5591 2.10597L17.1735 5.89035C17.6298 6.15143 17.9109 6.63392 17.9109 7.15608V14.7249C17.9109 15.247 17.6298 15.7295 17.1735 15.9906L10.5591 19.775C10.1028 20.036 9.54057 20.036 9.08425 19.775L2.46984 15.9906C2.01352 15.7295 1.73242 15.247 1.73242 14.7249V7.15608C1.73242 6.63392 2.01352 6.15143 2.46984 5.89035L9.08425 2.10597C9.54057 1.84489 10.1028 1.84489 10.5591 2.10597Z" fill="#F7FAFF"/>
<path d="M10.5592 2.18311L17.1064 5.92904C17.5627 6.19012 17.8439 6.67261 17.8439 7.19477V14.6866C17.8439 15.2088 17.5627 15.6913 17.1064 15.9523L10.5592 19.6983C10.1029 19.9593 9.54073 19.9593 9.08441 19.6983L2.53723 15.9523C2.08091 15.6913 1.7998 15.2088 1.7998 14.6866V7.19477C1.7998 6.67261 2.08091 6.19012 2.53723 5.92904L9.08441 2.18311C9.54073 1.92204 10.1029 1.92204 10.5592 2.18311Z" fill="url(#paint1_linear_981_1968)"/>
<path fill-rule="evenodd" clip-rule="evenodd" d="M10.5592 3.10597L16.2997 6.39035C16.756 6.65143 17.0371 7.13392 17.0371 7.65608V14.2249C17.0371 14.747 16.756 15.2295 16.2997 15.4906L10.5592 18.775C10.1029 19.036 9.54068 19.036 9.08437 18.775L3.34387 15.4906C2.88755 15.2295 2.60645 14.747 2.60645 14.2249V7.65608C2.60645 7.13392 2.88755 6.65143 3.34387 6.39035L9.08437 3.10597C9.54068 2.84489 10.1029 2.84489 10.5592 3.10597Z" fill="url(#paint2_linear_981_1968)"/>
<g opacity="0.101494">
<path d="M10.5592 3.10597L16.2997 6.39035C16.756 6.65143 17.0371 7.13392 17.0371 7.65608V14.2249C17.0371 14.747 16.756 15.2295 16.2997 15.4906L10.5592 18.775C10.1029 19.036 9.54068 19.036 9.08437 18.775L3.34387 15.4906C2.88755 15.2295 2.60645 14.747 2.60645 14.2249V7.65608C2.60645 7.13392 2.88755 6.65143 3.34387 6.39035L9.08437 3.10597C9.54068 2.84489 10.1029 2.84489 10.5592 3.10597Z" fill="black"/>
</g>
<path d="M7.52975 7.63721C7.57878 7.77659 7.608 7.91596 7.6174 8.05534C7.75406 8.06723 7.89073 8.10392 8.02741 8.1654C7.89071 8.2152 7.75401 8.24492 7.61731 8.25454C7.60789 8.39363 7.57869 8.53275 7.52975 8.67186C7.46934 8.53277 7.43329 8.39367 7.42161 8.25458C7.28467 8.24503 7.1477 8.2153 7.01074 8.1654C7.14768 8.1038 7.28462 8.06709 7.42156 8.05528C7.43316 7.91593 7.46922 7.77657 7.52975 7.63721Z" fill="white"/>
<path opacity="0.718308" d="M8.52721 7.63721C8.54663 7.71081 8.55776 7.78442 8.56061 7.85803C8.63285 7.86158 8.70511 7.87557 8.77738 7.89995C8.70511 7.91969 8.63284 7.93102 8.56057 7.93392C8.55775 8.00744 8.54662 8.08099 8.52721 8.15454C8.50326 8.08099 8.48952 8.00745 8.486 7.93391C8.4137 7.93104 8.34137 7.91971 8.26904 7.89995C8.34137 7.87555 8.41369 7.86156 8.48601 7.85799C8.4895 7.78441 8.50324 7.71081 8.52721 7.63721Z" fill="white"/>
<path opacity="0.881022" d="M13.984 13.3276C14.0264 13.4722 14.051 13.6167 14.0579 13.7613C14.1997 13.7699 14.3416 13.8008 14.4835 13.854C14.3416 13.8971 14.1997 13.9221 14.0579 13.9291C14.051 14.0735 14.0264 14.2179 13.984 14.3623C13.9318 14.2179 13.9014 14.0736 13.8929 13.9292C13.7509 13.9222 13.6088 13.8971 13.4668 13.854C13.6088 13.8008 13.7508 13.7699 13.8929 13.7612C13.9013 13.6167 13.9317 13.4722 13.984 13.3276Z" fill="white"/>
<path d="M10.7373 0.7562L18.5842 5.26452C19.0405 5.52669 19.3216 6.01121 19.3216 6.53555L3.63066 18.0958L1.41564 16.8232C0.959326 16.5611 0.678223 16.0765 0.678223 15.5522V6.53555C0.678223 6.01121 0.959326 5.52669 1.41564 5.26452L9.26248 0.7562C9.7188 0.494027 10.281 0.494027 10.7373 0.7562Z" fill="url(#paint3_linear_981_1968)"/>
<defs>
<linearGradient id="paint0_linear_981_1968" x1="9.82168" y1="0.5" x2="9.82168" y2="21.3811" gradientUnits="userSpaceOnUse">
<stop stop-color="#EFF3FB"/>
<stop offset="1" stop-color="#B4BFCD"/>
</linearGradient>
<linearGradient id="paint1_linear_981_1968" x1="9.82183" y1="2.41412" x2="9.82183" y2="19.2892" gradientUnits="userSpaceOnUse">
<stop stop-color="#99A0B2"/>
<stop offset="1" stop-color="#ECEEF6"/>
</linearGradient>
<linearGradient id="paint2_linear_981_1968" x1="9.82179" y1="2.91016" x2="9.82179" y2="18.6063" gradientUnits="userSpaceOnUse">
<stop stop-color="#B2B7C5"/>
<stop offset="1" stop-color="#99A0B2"/>
</linearGradient>
<linearGradient id="paint3_linear_981_1968" x1="9.9999" y1="0.55957" x2="9.9999" y2="18.0958" gradientUnits="userSpaceOnUse">
<stop stop-color="#FFFEFE" stop-opacity="0.569039"/>
<stop offset="1" stop-color="white" stop-opacity="0"/>
</linearGradient>
</defs>
</svg>
