<svg width="14" height="14" viewBox="0 0 14 14" fill="none" xmlns="http://www.w3.org/2000/svg">
<path d="M6.28513 5.78739C6.85744 5.78739 7.41689 5.61768 7.89275 5.29972C8.36861 4.98176 8.73949 4.52984 8.95851 4.00109C9.17752 3.47235 9.23483 2.89053 9.12317 2.32922C9.01152 1.7679 8.73593 1.25231 8.33124 0.847622C7.92656 0.442939 7.41096 0.167345 6.84965 0.0556935C6.28834 -0.0559585 5.70652 0.00134532 5.17777 0.220359C4.64903 0.439372 4.1971 0.810258 3.87915 1.28612C3.56119 1.76197 3.39148 2.32143 3.39148 2.89374C3.39118 3.27382 3.46582 3.65024 3.61113 4.00144C3.75645 4.35265 3.96958 4.67177 4.23834 4.94053C4.5071 5.20928 4.82621 5.42242 5.17742 5.56773C5.52863 5.71304 5.90504 5.78769 6.28513 5.78739ZM6.28513 1.02156C6.65559 1.02156 7.01773 1.13142 7.32575 1.33726C7.63377 1.54309 7.87383 1.83565 8.01557 2.17793C8.15731 2.52021 8.19435 2.89684 8.12202 3.26017C8.04969 3.62351 7.87124 3.95723 7.60923 4.21914C7.34721 4.48104 7.01342 4.65936 6.65005 4.73154C6.28669 4.80373 5.91008 4.76653 5.56786 4.62465C5.22564 4.48278 4.93317 4.2426 4.72746 3.9345C4.52175 3.62639 4.41204 3.2642 4.41219 2.89374C4.41219 2.64789 4.46065 2.40445 4.5548 2.17734C4.64895 1.95023 4.78695 1.74391 4.9609 1.57018C5.13484 1.39644 5.34133 1.25869 5.56855 1.16482C5.79578 1.07094 6.03928 1.02278 6.28513 1.02308V1.02156ZM6.28513 6.48253C4.61846 6.48293 3.02016 7.14514 1.84158 8.32358C0.663003 9.50202 0.000603524 11.1002 0 12.7669C2.01843e-09 12.9024 0.0538092 13.0323 0.14959 13.128C0.245371 13.2238 0.375278 13.2776 0.510733 13.2776C0.646188 13.2776 0.776095 13.2238 0.871876 13.128C0.967656 13.0323 1.02147 12.9024 1.02147 12.7669C1.02115 11.4916 1.48336 10.2596 2.32235 9.29915C3.16134 8.33875 4.32017 7.71522 5.58391 7.54422L4.51464 11.0169C4.49157 11.0968 4.48759 11.181 4.50301 11.2627C4.51844 11.3444 4.55283 11.4214 4.60343 11.4874L5.89354 13.0871C5.94156 13.1466 6.00226 13.1945 6.07119 13.2274C6.14013 13.2603 6.21556 13.2774 6.29196 13.2774C6.36835 13.2774 6.44378 13.2603 6.51272 13.2274C6.58166 13.1945 6.64236 13.1466 6.69037 13.0871L7.97062 11.4874C8.0235 11.4226 8.05982 11.3459 8.07648 11.264C8.09314 11.182 8.08962 11.0972 8.06624 11.0169L6.99317 7.54422C7.66887 7.62502 8.32039 7.84547 8.90633 8.19155C9.01746 8.25493 9.14826 8.2745 9.27307 8.24642C9.39789 8.21834 9.5077 8.14464 9.58099 8.03977C9.61942 7.98492 9.64657 7.92298 9.66086 7.85754C9.67515 7.79211 9.67629 7.72448 9.66422 7.6586C9.65214 7.59272 9.62709 7.5299 9.59053 7.47378C9.55396 7.41767 9.50661 7.36938 9.45121 7.33173C8.49489 6.76085 7.39878 6.46686 6.28513 6.48253ZM7.00683 11.051L6.28513 11.9511L5.57025 11.0518L6.28513 8.73036L7.00683 11.051ZM10.9766 9.21909H13.4893C13.6247 9.21909 13.7546 9.16528 13.8504 9.0695C13.9462 8.97372 14 8.84381 14 8.70835C14 8.5729 13.9462 8.44299 13.8504 8.34721C13.7546 8.25143 13.6247 8.19762 13.4893 8.19762H10.9766C10.8411 8.19762 10.7112 8.25143 10.6154 8.34721C10.5197 8.44299 10.4658 8.5729 10.4658 8.70835C10.4658 8.84381 10.5197 8.97372 10.6154 9.0695C10.7112 9.16528 10.8411 9.21909 10.9766 9.21909ZM13.4893 10.0539H12.2295C12.0941 10.0539 11.9641 10.1077 11.8684 10.2035C11.7726 10.2992 11.7188 10.4291 11.7188 10.5646C11.7188 10.7001 11.7726 10.83 11.8684 10.9257C11.9641 11.0215 12.0941 11.0753 12.2295 11.0753H13.4893C13.6247 11.0753 13.7546 11.0215 13.8504 10.9257C13.9462 10.83 14 10.7001 14 10.5646C14 10.4291 13.9462 10.2992 13.8504 10.2035C13.7546 10.1077 13.6247 10.0539 13.4893 10.0539ZM13.4893 11.9162H10.9766C10.8411 11.9162 10.7112 11.97 10.6154 12.0658C10.5197 12.1616 10.4658 12.2915 10.4658 12.4269C10.4658 12.5624 10.5197 12.6923 10.6154 12.7881C10.7112 12.8838 10.8411 12.9376 10.9766 12.9376H13.4893C13.6247 12.9376 13.7546 12.8838 13.8504 12.7881C13.9462 12.6923 14 12.5624 14 12.4269C14 12.2915 13.9462 12.1616 13.8504 12.0658C13.7546 11.97 13.6247 11.9162 13.4893 11.9162Z" fill="#969BAD"/>
</svg>
