<svg width="20" height="26" viewBox="0 0 20 26" fill="none" xmlns="http://www.w3.org/2000/svg">
<g clip-path="url(#clip0_950_217)">
<path d="M5.57313 20.3651L0.745817 19.0328C0.34748 18.9229 0.111143 18.5114 0.215592 18.1097L1.48138 13.2416C1.48515 13.2271 1.48515 13.2118 1.48138 13.1973L0.215591 8.32921C0.111142 7.9275 0.34748 7.51605 0.745818 7.40612L5.57313 6.07387C5.58752 6.0699 5.60065 6.06228 5.61126 6.05175L9.17279 2.51586C9.46668 2.22408 9.93935 2.22408 10.2332 2.51586L13.7948 6.05175C13.8054 6.06229 13.8185 6.0699 13.8329 6.07387L18.6602 7.40612C19.0585 7.51605 19.2949 7.9275 19.1904 8.32921L17.9247 13.1973C17.9209 13.2119 17.9209 13.2271 17.9247 13.2416L19.1904 18.1097C19.2949 18.5114 19.0585 18.9229 18.6602 19.0328L13.8329 20.3651C13.8185 20.369 13.8054 20.3767 13.7948 20.3872L10.2332 23.9231C9.93935 24.2149 9.46668 24.2149 9.17279 23.9231L5.61126 20.3872C5.60065 20.3767 5.58752 20.369 5.57313 20.3651Z" fill="url(#paint0_linear_950_217)"/>
<path d="M5.60194 20.4232L0.774626 19.0909C0.376288 18.981 0.139951 18.5695 0.244401 18.1678L1.51019 13.2997C1.51396 13.2852 1.51396 13.27 1.51019 13.2554L0.2444 8.38731C0.139951 7.98561 0.376288 7.57416 0.774626 7.46422L5.60194 6.13198C5.61633 6.12801 5.62946 6.12039 5.64007 6.10985L9.2016 2.57396C9.49549 2.28219 9.96816 2.28219 10.262 2.57396L13.8236 6.10985C13.8342 6.12039 13.8473 6.12801 13.8617 6.13198L18.689 7.46422C19.0874 7.57416 19.3237 7.98561 19.2192 8.38731L17.9535 13.2554C17.9497 13.27 17.9497 13.2852 17.9535 13.2997L19.2192 18.1678C19.3237 18.5695 19.0874 18.981 18.689 19.0909L13.8617 20.4232C13.8473 20.4271 13.8342 20.4348 13.8236 20.4453L10.262 23.9812C9.96816 24.273 9.49548 24.273 9.2016 23.9812L5.64007 20.4453C5.62945 20.4348 5.61633 20.4271 5.60194 20.4232Z" fill="#979EB0"/>
<path d="M5.59033 6.06714C5.59404 6.06525 5.59822 6.06258 5.60288 6.05912C6.55647 5.11469 7.10541 4.56805 7.20275 4.47024C7.29839 4.37415 7.40414 4.27282 7.51692 4.16031C7.76696 3.91089 8.23723 3.4443 8.92773 2.76056C9.03274 2.65479 9.09581 2.59111 9.11694 2.56952C9.21852 2.46567 9.30177 2.39954 9.41142 2.35701C9.54463 2.29789 9.66239 2.29756 9.72233 2.29789C9.72359 2.62198 9.7239 6.36802 9.72327 13.5361L5.72353 6.31848L5.59033 6.06714Z" fill="url(#paint1_linear_950_217)"/>
<path d="M14.4243 6.97854C14.1574 6.77569 13.901 6.56567 13.6553 6.34846C13.6527 6.34588 13.8068 6.08129 13.8152 6.06708C13.7948 6.05326 13.7868 6.04463 13.7723 6.03013C13.4652 5.72402 12.8648 5.13449 12.5815 4.8433C12.0213 4.29811 10.5284 2.80115 10.1989 2.48254C10.0284 2.32886 9.80362 2.29463 9.72306 2.29808C9.7217 2.62203 9.72204 6.26252 9.72409 13.2196L14.4243 6.97854Z" fill="url(#paint2_linear_950_217)"/>
<path d="M5.46606 13.5359C4.52645 13.6598 4.05797 13.6467 4.06061 13.4966C4.0525 13.2508 2.46088 13.2502 1.48391 13.2204C1.48392 13.2142 1.48277 13.2077 1.48222 13.2033C1.40574 12.9041 1.39326 12.9041 1.25717 12.3358C1.14513 11.9506 0.72995 10.2683 0.411444 9.09262C0.344718 8.81761 0.267173 8.53549 0.198335 8.26372C0.177073 8.10726 0.193638 7.92142 0.294415 7.75319C0.554069 7.92265 3.70219 9.94422 9.73877 13.8179L5.46606 13.5359Z" fill="url(#paint3_linear_950_217)"/>
<path d="M7.84244 17.0777C7.47942 17.9575 7.23391 18.3588 7.1059 18.2814C6.89006 18.1656 6.10998 19.5406 5.59582 20.3761C5.5814 20.3693 5.57141 20.3644 5.56 20.3612C5.26837 20.2812 5.20822 20.2653 4.69389 20.1232C4.12129 19.965 2.65684 19.5569 1.47956 19.2384C1.20925 19.159 0.921875 19.0844 0.721207 19.0259C0.557275 18.974 0.368768 18.8599 0.274207 18.6881C0.550046 18.5468 3.88547 16.7705 10.2805 13.3591L7.84244 17.0777Z" fill="url(#paint4_linear_950_217)"/>
<path d="M11.8805 16.6688C12.483 17.404 12.7202 17.8103 12.5921 17.8876C12.3891 18.0248 13.3259 19.5218 13.8184 20.3704C13.8007 20.3795 13.7946 20.3874 13.7867 20.3955C13.6565 20.5276 13.5434 20.6334 13.1525 21.0337C12.8869 21.3333 11.6934 22.4628 10.8135 23.3471C10.6168 23.5497 10.4284 23.7274 10.2226 23.9338C10.0971 24.0487 9.9374 24.1382 9.74206 24.1414C9.74744 23.8303 9.78483 20.0756 9.85424 12.8773L11.8805 16.6688Z" fill="url(#paint5_linear_950_217)"/>
<path d="M13.8832 12.9808C14.8206 12.8404 15.2892 12.8453 15.2892 12.9954C15.3015 13.241 16.6565 13.0865 17.9186 13.2195C18.0044 13.534 18.0014 13.5362 18.15 14.1123C18.2687 14.4955 18.6698 16.114 18.9832 17.3044C19.0547 17.5782 19.1287 17.8554 19.1995 18.1443C19.2266 18.2925 19.2266 18.4857 19.1287 18.6557C18.8662 18.4908 15.692 16.5302 9.60629 12.7738L13.8832 12.9808Z" fill="url(#paint6_linear_950_217)"/>
<path d="M5.59027 6.06698C5.57498 6.07253 5.56156 6.0769 5.55002 6.08007C4.60172 6.34052 3.8277 6.5552 3.21053 6.72537C1.8172 7.10955 1.18059 7.28535 0.839469 7.38001C0.615363 7.43396 0.431459 7.51862 0.294617 7.75317C0.553428 7.92495 3.69401 9.93815 9.71636 13.7928L5.59027 6.06698Z" fill="url(#paint7_linear_950_217)"/>
<path d="M1.48439 13.2204C1.48414 13.2299 1.48142 13.2435 1.47621 13.2612C1.22647 14.2169 1.00853 15.0137 0.84657 15.636C0.480918 17.041 0.314082 17.683 0.225083 18.0273C0.159515 18.2493 0.140505 18.4517 0.274174 18.6881C0.551583 18.5487 3.88703 16.7724 10.2805 13.3591L1.48439 13.2204Z" fill="url(#paint8_linear_950_217)"/>
<path d="M5.59469 20.374C5.61769 20.3931 5.63821 20.4134 5.65626 20.435C6.46994 21.2302 6.89447 21.6727 7.37219 22.1337C7.78138 22.5454 8.87858 23.6568 9.13922 23.8974C9.3035 24.0599 9.47188 24.1495 9.74226 24.1418C9.75006 23.8302 9.78439 20.0864 9.84527 12.9103L5.59469 20.374Z" fill="url(#paint9_linear_950_217)"/>
<path d="M13.8185 20.3707C13.8363 20.3644 13.852 20.3595 13.8656 20.356C14.8343 20.0861 15.6431 19.878 16.2572 19.697C16.6161 19.5913 16.92 19.5203 17.1838 19.4471C17.9391 19.2374 18.3433 19.1276 18.5948 19.053C18.8157 18.9973 18.9963 18.8927 19.1289 18.6557C18.8672 18.4886 15.7008 16.5362 9.62964 12.7986L13.8185 20.3707Z" fill="url(#paint10_linear_950_217)"/>
<path d="M13.8154 6.06704C13.8273 6.07264 13.8431 6.07756 13.8627 6.08179C14.0788 6.14156 14.1967 6.17475 14.3478 6.21568C14.5856 6.28011 17.9951 7.22214 18.4843 7.35772C18.5808 7.3927 18.9021 7.40625 19.1101 7.75328C18.8435 7.91186 15.7767 9.6468 9.90985 12.9581L13.8154 6.06704Z" fill="url(#paint11_linear_950_217)"/>
<path d="M17.9188 13.2193C18.0803 12.5939 18.4836 10.9825 18.5985 10.5895C18.8281 9.80377 18.9308 9.30148 19.0724 8.76184C19.2335 8.26949 19.2732 8.03075 19.1101 7.75308C18.8425 7.90943 15.7759 9.64502 9.91023 12.9599C14.8292 13.091 17.4988 13.1775 17.9188 13.2193Z" fill="url(#paint12_linear_950_217)"/>
<path d="M9.67649 22.1136C14.5371 22.1136 18.4775 18.1601 18.4775 13.2833C18.4775 8.40655 14.5371 4.45312 9.67649 4.45312C4.81583 4.45312 0.875488 8.40655 0.875488 13.2833C0.875488 18.1601 4.81583 22.1136 9.67649 22.1136Z" fill="url(#paint13_linear_950_217)"/>
<path d="M9.67596 20.6818C13.7322 20.6818 17.0726 17.2235 17.0204 13.3952C17.0204 9.26512 13.7322 5.91699 9.67596 5.91699C5.61975 5.91699 2.33154 9.26512 2.33154 13.3952C2.39646 17.5149 5.61975 20.6818 9.67596 20.6818Z" fill="white"/>
<path d="M9.67612 20.6179C13.6974 20.6179 17.009 17.1895 16.9572 13.3943C16.9572 9.29973 13.6974 5.98047 9.67612 5.98047C5.65488 5.98047 2.39502 9.29973 2.39502 13.3943C2.45938 17.4784 5.65488 20.6179 9.67612 20.6179Z" fill="url(#paint14_linear_950_217)"/>
<path d="M9.64463 19.4724C13.0366 19.4724 15.7863 16.7085 15.7863 13.2992C15.7863 9.88981 13.0366 7.12598 9.64463 7.12598C6.25266 7.12598 3.50293 9.88981 3.50293 13.2992C3.50293 16.7085 6.25266 19.4724 9.64463 19.4724Z" fill="black"/>
<path d="M9.64463 19.4724C13.0366 19.4724 15.7863 16.7085 15.7863 13.2992C15.7863 9.88981 13.0366 7.12598 9.64463 7.12598C6.25266 7.12598 3.50293 9.88981 3.50293 13.2992C3.50293 16.7085 6.25266 19.4724 9.64463 19.4724Z" fill="#FFFFFE"/>
<path d="M9.64479 19.4725C13.0018 19.4725 15.7232 16.9713 15.7232 13.525C15.7232 10.0786 13.0018 7.25342 9.64479 7.25342C6.28779 7.25342 3.56641 10.0786 3.56641 13.525C3.56641 16.9713 6.28779 19.4725 9.64479 19.4725Z" fill="url(#paint15_linear_950_217)"/>
<path d="M4.73333 6.85547C4.83153 7.1228 4.89004 7.39013 4.90887 7.65746C5.18259 7.68026 5.45632 7.75062 5.73005 7.86854C5.4563 7.96405 5.18254 8.02104 4.90879 8.03951C4.88981 8.30634 4.83133 8.57314 4.73333 8.83993C4.61234 8.57316 4.54015 8.30638 4.51674 8.03961C4.24245 8.02127 3.96815 7.96424 3.69385 7.86854C3.9681 7.7504 4.24236 7.67999 4.51662 7.65733C4.53987 7.39004 4.61211 7.12276 4.73333 6.85547Z" fill="white"/>
<path opacity="0.718308" d="M7.47295 5.6709C7.52362 5.83642 7.55305 6.00194 7.56124 6.16747C7.73088 6.17735 7.90051 6.21275 8.07013 6.27364C7.9005 6.32296 7.73086 6.35164 7.56123 6.35967C7.55298 6.525 7.52356 6.69033 7.47295 6.85565C7.41047 6.69034 7.37415 6.52502 7.36398 6.35971C7.19417 6.35171 7.02433 6.32302 6.85449 6.27364C7.02431 6.21268 7.19413 6.17727 7.36395 6.1674C7.37406 6.00191 7.4104 5.8364 7.47295 5.6709Z" fill="white"/>
<path opacity="0.881022" d="M13.9769 20.8062C14.0275 20.9717 14.057 21.1372 14.0652 21.3027C14.2348 21.3126 14.4044 21.348 14.574 21.4089C14.4044 21.4582 14.2348 21.4869 14.0651 21.4949C14.0569 21.6603 14.0275 21.8256 13.9769 21.9909C13.9144 21.8256 13.8781 21.6603 13.8679 21.495C13.6981 21.487 13.5282 21.4583 13.3584 21.4089C13.5282 21.3479 13.698 21.3125 13.8679 21.3027C13.878 21.1372 13.9143 20.9717 13.9769 20.8062Z" fill="white"/>
<g filter="url(#filter0_d_950_217)">
<path d="M12.0011 16.9398V15.8797H10.6248C10.3341 15.8797 9.91525 15.9139 9.59895 15.9481C10.753 14.8197 11.7019 13.5887 11.7019 12.4432C11.7019 11.2635 10.9069 10.4941 9.71009 10.4941C8.84668 10.4941 8.28247 10.8361 7.70117 11.4516L8.38506 12.1355C8.70136 11.785 9.08604 11.4858 9.54766 11.4858C10.1461 11.4858 10.4966 11.8705 10.4966 12.5116C10.4966 13.4861 9.47928 14.6744 7.76101 16.2131V16.9398H12.0011Z" fill="black"/>
</g>
<path d="M12.0011 16.9398V15.8797H10.6248C10.3341 15.8797 9.91525 15.9139 9.59895 15.9481C10.753 14.8197 11.7019 13.5887 11.7019 12.4432C11.7019 11.2635 10.9069 10.4941 9.71009 10.4941C8.84668 10.4941 8.28247 10.8361 7.70117 11.4516L8.38506 12.1355C8.70136 11.785 9.08604 11.4858 9.54766 11.4858C10.1461 11.4858 10.4966 11.8705 10.4966 12.5116C10.4966 13.4861 9.47928 14.6744 7.76101 16.2131V16.9398H12.0011Z" fill="#FF339A"/>
<path d="M12.0011 16.9398V15.8797H10.6248C10.3341 15.8797 9.91525 15.9139 9.59895 15.9481C10.753 14.8197 11.7019 13.5887 11.7019 12.4432C11.7019 11.2635 10.9069 10.4941 9.71009 10.4941C8.84668 10.4941 8.28247 10.8361 7.70117 11.4516L8.38506 12.1355C8.70136 11.785 9.08604 11.4858 9.54766 11.4858C10.1461 11.4858 10.4966 11.8705 10.4966 12.5116C10.4966 13.4861 9.47928 14.6744 7.76101 16.2131V16.9398H12.0011Z" fill="url(#paint16_linear_950_217)"/>
<path d="M0.532487 17.4252L1.15161 15.0702C1.03317 14.5448 0.975471 14.0004 0.978502 13.4372C0.981534 12.8739 1.04555 12.2453 1.17055 11.5512L0.356207 8.39838C0.252421 7.99657 0.490528 7.58416 0.8904 7.47313L4.14841 6.56854C4.46408 6.25011 4.8496 5.96096 5.30499 5.70109C5.76038 5.44123 6.2859 5.21048 6.88157 5.00885L9.35619 2.55743C9.65174 2.26466 10.1259 2.26349 10.42 2.55479L12.9522 5.06301C13.3203 5.16303 13.708 5.33099 14.1153 5.56689C14.5226 5.80279 14.9538 6.10906 15.4088 6.4857L18.8616 7.42854C19.2609 7.53758 19.497 7.94881 19.3912 8.35114L18.679 11.0602L1.55594 18.3143C1.17017 18.4778 0.726892 18.2973 0.565841 17.9112C0.501737 17.7575 0.490016 17.5867 0.532487 17.4252Z" fill="url(#paint17_linear_950_217)"/>
</g>
<defs>
<filter id="filter0_d_950_217" x="3.70117" y="6.49414" width="12.2998" height="14.4458" filterUnits="userSpaceOnUse" color-interpolation-filters="sRGB">
<feFlood flood-opacity="0" result="BackgroundImageFix"/>
<feColorMatrix in="SourceAlpha" type="matrix" values="0 0 0 0 0 0 0 0 0 0 0 0 0 0 0 0 0 0 127 0" result="hardAlpha"/>
<feOffset/>
<feGaussianBlur stdDeviation="2"/>
<feColorMatrix type="matrix" values="0 0 0 0 1 0 0 0 0 1 0 0 0 0 1 0 0 0 1 0"/>
<feBlend mode="normal" in2="BackgroundImageFix" result="effect1_dropShadow_950_217"/>
<feBlend mode="normal" in="SourceGraphic" in2="effect1_dropShadow_950_217" result="shape"/>
</filter>
<linearGradient id="paint0_linear_950_217" x1="14.5188" y1="4.87829" x2="5.22143" y2="21.4024" gradientUnits="userSpaceOnUse">
<stop stop-color="#FCD427"/>
<stop offset="0.902116" stop-color="#FB9300"/>
<stop offset="1" stop-color="#FFC24B"/>
</linearGradient>
<linearGradient id="paint1_linear_950_217" x1="7.65696" y1="2.83139" x2="8.56238" y2="3.68575" gradientUnits="userSpaceOnUse">
<stop stop-color="#F4F6FB"/>
<stop offset="1" stop-color="#D0DAEA"/>
</linearGradient>
<linearGradient id="paint2_linear_950_217" x1="11.6375" y1="4.71569" x2="12.3038" y2="4.32119" gradientUnits="userSpaceOnUse">
<stop stop-color="#B8BCC8"/>
<stop offset="1" stop-color="#E9EDF4"/>
</linearGradient>
<linearGradient id="paint3_linear_950_217" x1="1.49286" y1="10.2865" x2="0.00543402" y2="10.2589" gradientUnits="userSpaceOnUse">
<stop stop-color="#BEC6D2"/>
<stop offset="1" stop-color="#E0E6F1"/>
</linearGradient>
<linearGradient id="paint4_linear_950_217" x1="2.53158" y1="18.0329" x2="1.27073" y2="19.2086" gradientUnits="userSpaceOnUse">
<stop stop-color="#A3ABB8"/>
<stop offset="1" stop-color="#C7D1DD"/>
</linearGradient>
<linearGradient id="paint5_linear_950_217" x1="10.2783" y1="21.9811" x2="10.7874" y2="23.8814" gradientUnits="userSpaceOnUse">
<stop stop-color="#9EACBC"/>
<stop offset="1" stop-color="#E0E6F0"/>
</linearGradient>
<linearGradient id="paint6_linear_950_217" x1="17.7588" y1="15.981" x2="19.7575" y2="15.8547" gradientUnits="userSpaceOnUse">
<stop stop-color="#A3ABB9"/>
<stop offset="1" stop-color="#E0E6F1"/>
</linearGradient>
<linearGradient id="paint7_linear_950_217" x1="4.28988" y1="8.90157" x2="1.45274" y2="8.03417" gradientUnits="userSpaceOnUse">
<stop stop-color="#B0B9C6"/>
<stop offset="1" stop-color="#F0F2F6"/>
</linearGradient>
<linearGradient id="paint8_linear_950_217" x1="2.32387" y1="16.8477" x2="0.967077" y2="17.4068" gradientUnits="userSpaceOnUse">
<stop stop-color="#A9B2BF"/>
<stop offset="1" stop-color="#DCE3EE"/>
</linearGradient>
<linearGradient id="paint9_linear_950_217" x1="9.50203" y1="22.5324" x2="9.10315" y2="24.0256" gradientUnits="userSpaceOnUse">
<stop stop-color="#A5ACB8"/>
<stop offset="1" stop-color="#D7DDE7"/>
</linearGradient>
<linearGradient id="paint10_linear_950_217" x1="17.9848" y1="18.95" x2="17.735" y2="18.2556" gradientUnits="userSpaceOnUse">
<stop stop-color="#E0E6F1"/>
<stop offset="1" stop-color="#A2AAB7"/>
</linearGradient>
<linearGradient id="paint11_linear_950_217" x1="18.2575" y1="7.77817" x2="16.9311" y2="8.96848" gradientUnits="userSpaceOnUse">
<stop stop-color="#EDF2F3"/>
<stop offset="1" stop-color="#C8D0DD"/>
</linearGradient>
<linearGradient id="paint12_linear_950_217" x1="16.9531" y1="9.38222" x2="19.3357" y2="8.87578" gradientUnits="userSpaceOnUse">
<stop stop-color="#A8B0BE"/>
<stop offset="1" stop-color="#E2E4E8"/>
</linearGradient>
<linearGradient id="paint13_linear_950_217" x1="9.67649" y1="5.02998" x2="8.98068" y2="21.4462" gradientUnits="userSpaceOnUse">
<stop stop-color="#EFF4FC"/>
<stop offset="1" stop-color="#B3BECC"/>
</linearGradient>
<linearGradient id="paint14_linear_950_217" x1="9.67642" y1="6.88005" x2="9.67642" y2="19.8554" gradientUnits="userSpaceOnUse">
<stop stop-color="#99A0B1"/>
<stop offset="1" stop-color="#DCDDE4"/>
</linearGradient>
<linearGradient id="paint15_linear_950_217" x1="8.90514" y1="7.25342" x2="9.65237" y2="19.1388" gradientUnits="userSpaceOnUse">
<stop stop-color="#E6EBF5"/>
<stop offset="1" stop-color="#C1C2CA"/>
</linearGradient>
<linearGradient id="paint16_linear_950_217" x1="9.85114" y1="11.4458" x2="9.85114" y2="16.9398" gradientUnits="userSpaceOnUse">
<stop stop-color="#737580"/>
<stop offset="1" stop-color="#C4C3C3"/>
</linearGradient>
<linearGradient id="paint17_linear_950_217" x1="12.7679" y1="3.88159" x2="3.565" y2="19.8214" gradientUnits="userSpaceOnUse">
<stop stop-color="#FFFEFE" stop-opacity="0.569039"/>
<stop offset="1" stop-color="white" stop-opacity="0"/>
</linearGradient>
<clipPath id="clip0_950_217">
<rect width="20" height="25.6" fill="white" transform="translate(0 0.200195)"/>
</clipPath>
</defs>
</svg>
