<svg width="13" height="12" viewBox="0 0 13 12" fill="none" xmlns="http://www.w3.org/2000/svg">
<path d="M10.8007 2.93475V0.838867H2.22036V2.93475H5.38384V4.30389C2.81209 4.41639 0.875977 4.926 0.875977 5.53463C0.875977 6.14325 2.81209 6.6495 5.38384 6.76537V11.1596H7.63384V6.76427C10.1955 6.65177 12.1226 6.141 12.1226 5.53463C12.1226 4.92826 10.1955 4.42202 7.63384 4.30502V2.93475H10.8007ZM11.1562 5.40976C11.1562 5.81026 9.65883 6.14551 7.6372 6.23889H7.50671H7.49208H7.36948H7.35595L7.07924 6.24675H7.0781H6.95324H6.05998H5.94747H5.93398L5.52446 6.23326H5.3906C3.35885 6.14101 1.85136 5.80463 1.85136 5.403C1.85136 5.00137 3.35885 4.66499 5.3906 4.57274V5.844C5.74385 5.862 6.11846 5.87215 6.50771 5.87215C6.89696 5.87215 7.28509 5.86202 7.64397 5.8429V4.57727C9.66897 4.66952 11.1652 5.00589 11.1652 5.40527L11.1562 5.40976Z" fill="white"/>
</svg>
