<svg width="460" height="284" viewBox="0 0 460 284" fill="none" xmlns="http://www.w3.org/2000/svg">
<rect width="460" height="284" rx="10" fill="#F4F7FD"/>
<rect x="10" y="20" width="50" height="50" rx="10" fill="#FB6943"/>
<path d="M35.4185 39.79H36.6485V50.5H35.0135V41.755C34.3685 42.37 33.5435 42.82 32.5535 43.105V41.485C33.0335 41.365 33.5285 41.155 34.0685 40.855C34.6085 40.525 35.0585 40.18 35.4185 39.79Z" fill="white"/>
<rect x="70" y="20" width="50" height="50" rx="10" fill="#F1F1F1"/>
<path d="M95.1679 39.58C96.1879 39.58 97.0429 39.865 97.7029 40.465C98.3479 41.065 98.6779 41.83 98.6779 42.775C98.6779 43.705 98.3179 44.545 97.6279 45.31C97.2079 45.745 96.4729 46.315 95.4079 47.035C94.2529 47.8 93.5629 48.475 93.3379 49.06H98.6929V50.5H91.3129C91.3129 49.435 91.6579 48.505 92.3779 47.695C92.7679 47.23 93.5779 46.585 94.7929 45.745C95.5129 45.235 96.0229 44.83 96.3229 44.515C96.8029 43.975 97.0579 43.39 97.0579 42.76C97.0579 42.16 96.8929 41.71 96.5629 41.41C96.2329 41.11 95.7379 40.96 95.1079 40.96C94.4329 40.96 93.9229 41.185 93.5779 41.65C93.2179 42.1 93.0379 42.745 93.0079 43.615H91.3729C91.3879 42.415 91.7329 41.455 92.4079 40.735C93.0979 39.955 94.0279 39.58 95.1679 39.58Z" fill="#A6A6A6"/>
<rect x="130" y="20" width="50" height="50" rx="10" fill="#F1F1F1"/>
<path d="M155.108 39.58C156.188 39.58 157.043 39.835 157.703 40.36C158.333 40.885 158.663 41.605 158.663 42.52C158.663 43.69 158.063 44.485 156.893 44.875C157.523 45.07 158.003 45.37 158.333 45.76C158.693 46.165 158.873 46.69 158.873 47.32C158.873 48.31 158.528 49.12 157.853 49.75C157.133 50.38 156.188 50.71 155.048 50.71C153.953 50.71 153.068 50.425 152.408 49.87C151.658 49.24 151.238 48.325 151.148 47.125H152.798C152.828 47.845 153.053 48.4 153.503 48.79C153.893 49.15 154.403 49.33 155.033 49.33C155.723 49.33 156.278 49.12 156.698 48.73C157.058 48.37 157.253 47.935 157.253 47.395C157.253 46.765 157.058 46.3 156.668 46C156.308 45.7 155.768 45.55 155.063 45.55H154.283V44.32H155.048C155.708 44.32 156.203 44.17 156.533 43.885C156.863 43.6 157.043 43.18 157.043 42.64C157.043 42.1 156.878 41.695 156.578 41.41C156.248 41.11 155.753 40.975 155.123 40.975C154.478 40.975 153.968 41.14 153.608 41.47C153.248 41.8 153.023 42.295 152.963 42.955H151.358C151.448 41.89 151.838 41.065 152.543 40.465C153.203 39.865 154.058 39.58 155.108 39.58Z" fill="#A6A6A6"/>
<rect x="190" y="20" width="50" height="50" rx="10" fill="#F1F1F1"/>
<path d="M216.083 39.79H217.583V46.87H219.203V48.175H217.583V50.5H216.023V48.175H210.803V46.63L216.083 39.79ZM215.978 41.86L212.138 46.87H216.023V41.86H215.978Z" fill="#A6A6A6"/>
<rect x="250.5" y="20.5" width="199" height="49" rx="9.5" fill="white"/>
<path d="M262.225 39.79H271V41.185H267.43V50.5H265.81V41.185H262.225V39.79ZM272.293 39.79H279.988V41.185H273.928V44.305H279.628V45.7H273.928V49.105H280.243V50.5H272.293V39.79ZM281.903 39.79H289.598V41.185H283.538V44.305H289.238V45.7H283.538V49.105H289.853V50.5H281.903V39.79ZM291.512 39.79H293.447L297.182 48.37H297.227L300.947 39.79H302.882V50.5H301.247V42.85H301.187L297.902 50.5H296.492L293.207 42.85H293.147V50.5H291.512V39.79ZM309.728 39.58C311.348 39.58 312.638 40.105 313.583 41.17C314.483 42.175 314.933 43.51 314.933 45.16C314.933 46.795 314.483 48.115 313.583 49.135C312.638 50.185 311.348 50.71 309.728 50.71C308.093 50.71 306.803 50.17 305.873 49.12C304.973 48.1 304.538 46.78 304.538 45.16C304.538 43.525 304.973 42.205 305.873 41.185C306.803 40.105 308.093 39.58 309.728 39.58ZM309.728 41.02C308.588 41.02 307.703 41.395 307.073 42.175C306.473 42.91 306.173 43.9 306.173 45.16C306.173 46.405 306.473 47.395 307.073 48.13C307.703 48.88 308.588 49.27 309.728 49.27C310.868 49.27 311.753 48.895 312.368 48.16C312.968 47.44 313.283 46.435 313.283 45.16C313.283 43.87 312.968 42.865 312.368 42.13C311.753 41.38 310.868 41.02 309.728 41.02Z" fill="#484848"/>
<path fill-rule="evenodd" clip-rule="evenodd" d="M427 49.375L420 42.8052L421.065 41.5L427 47.0705L432.935 41.5L434 42.8052L427 49.375Z" fill="#A6A6A6"/>
<rect x="250.5" y="20.5" width="199" height="49" rx="9.5" stroke="#ECECEC"/>
<rect x="10.5" y="90.5" width="439" height="76" rx="9.5" fill="white"/>
<rect x="18" y="98" width="50" height="26.5" rx="10" fill="#F1F1F1"/>
<path d="M28.87 110.21H42.16V111.35H35.515V115.82L36.31 115.685V116.78C36.07 116.825 35.8 116.87 35.515 116.93V118.34H34.15V117.11C32.785 117.275 31.09 117.425 29.065 117.56L28.885 116.36L30.175 116.3V111.35H28.87V110.21ZM31.48 116.225C32.455 116.165 33.34 116.09 34.15 116V115.19H31.48V116.225ZM31.48 114.17H34.15V113.255H31.48V114.17ZM31.48 112.235H34.15V111.35H31.48V112.235ZM30.64 104.915H40.45V109.46H30.64V104.915ZM39.085 108.47V107.675H32.005V108.47H39.085ZM32.005 106.7H39.085V105.95H32.005V106.7ZM36.61 113.27H36.145V112.115H41.365V113.195C41.11 114.275 40.66 115.205 40.015 116C40.63 116.435 41.365 116.825 42.22 117.17L41.485 118.355C40.555 117.92 39.775 117.44 39.115 116.915C38.425 117.485 37.63 117.965 36.715 118.355L35.98 117.26C36.835 116.9 37.555 116.495 38.155 116.015C37.39 115.175 36.88 114.26 36.61 113.27ZM39.025 115.175C39.505 114.59 39.865 113.96 40.09 113.27H37.84C38.08 113.96 38.47 114.605 39.025 115.175ZM49.675 118.13H47.47L47.125 116.645C47.845 116.705 48.505 116.75 49.135 116.75C49.705 116.75 50.005 116.45 50.005 115.865V104.675H51.49V116.24C51.49 117.5 50.875 118.13 49.675 118.13ZM45.97 108.155L47.395 108.725C46.705 111.68 45.79 113.945 44.665 115.505L43.42 114.41C44.56 112.85 45.415 110.765 45.97 108.155ZM55 107.78C56.08 110.42 56.92 112.715 57.505 114.695L56.215 115.58C55.585 113.495 54.745 111.17 53.695 108.59L55 107.78Z" fill="#A6A6A6"/>
<rect x="18" y="132.5" width="50" height="26.5" rx="10" fill="#F1F1F1"/>
<path d="M28.87 144.71H42.16V145.85H35.515V150.32L36.31 150.185V151.28C36.07 151.325 35.8 151.37 35.515 151.43V152.84H34.15V151.61C32.785 151.775 31.09 151.925 29.065 152.06L28.885 150.86L30.175 150.8V145.85H28.87V144.71ZM31.48 150.725C32.455 150.665 33.34 150.59 34.15 150.5V149.69H31.48V150.725ZM31.48 148.67H34.15V147.755H31.48V148.67ZM31.48 146.735H34.15V145.85H31.48V146.735ZM30.64 139.415H40.45V143.96H30.64V139.415ZM39.085 142.97V142.175H32.005V142.97H39.085ZM32.005 141.2H39.085V140.45H32.005V141.2ZM36.61 147.77H36.145V146.615H41.365V147.695C41.11 148.775 40.66 149.705 40.015 150.5C40.63 150.935 41.365 151.325 42.22 151.67L41.485 152.855C40.555 152.42 39.775 151.94 39.115 151.415C38.425 151.985 37.63 152.465 36.715 152.855L35.98 151.76C36.835 151.4 37.555 150.995 38.155 150.515C37.39 149.675 36.88 148.76 36.61 147.77ZM39.025 149.675C39.505 149.09 39.865 148.46 40.09 147.77H37.84C38.08 148.46 38.47 149.105 39.025 149.675ZM43.87 142.775H49.615C49.705 141.98 49.765 141.14 49.78 140.27V138.965H51.22V139.94C51.22 140.93 51.16 141.875 51.04 142.775H57.13V144.155H51.4C52.45 147.365 54.475 149.84 57.445 151.595L56.56 152.75C53.68 150.98 51.655 148.505 50.515 145.325C49.525 148.76 47.5 151.28 44.455 152.885L43.54 151.685C46.63 150.185 48.58 147.665 49.375 144.155H43.87V142.775Z" fill="#A6A6A6"/>
<g clip-path="url(#clip0_0_5405)">
<g clip-path="url(#clip1_0_5405)">
<path d="M182.139 120.403C180.537 126.831 174.025 130.744 167.596 129.141C161.169 127.538 157.257 121.026 158.86 114.598C160.462 108.169 166.974 104.256 173.401 105.859C179.83 107.462 183.742 113.974 182.139 120.403L182.139 120.403H182.139Z" fill="#F7931A"/>
<path d="M175.791 115.79C176.03 114.193 174.814 113.335 173.152 112.762L173.691 110.599L172.374 110.271L171.849 112.377C171.503 112.291 171.147 112.21 170.794 112.129L171.323 110.009L170.007 109.681L169.467 111.843C169.181 111.778 168.899 111.713 168.626 111.646L168.628 111.639L166.812 111.185L166.462 112.592C166.462 112.592 167.439 112.816 167.418 112.829C167.951 112.963 168.048 113.316 168.032 113.595L167.417 116.06C167.454 116.069 167.502 116.082 167.554 116.104C167.51 116.093 167.464 116.081 167.415 116.069L166.554 119.521C166.489 119.683 166.323 119.927 165.951 119.834C165.964 119.853 164.994 119.595 164.994 119.595L164.34 121.103L166.053 121.53C166.372 121.61 166.685 121.693 166.992 121.772L166.447 123.96L167.763 124.288L168.302 122.123C168.662 122.221 169.01 122.311 169.352 122.396L168.814 124.55L170.131 124.878L170.676 122.695C172.921 123.12 174.609 122.948 175.32 120.917C175.893 119.282 175.292 118.339 174.11 117.724C174.971 117.525 175.619 116.96 175.792 115.791L175.791 115.79L175.791 115.79ZM172.782 120.009C172.376 121.644 169.622 120.76 168.73 120.539L169.453 117.64C170.345 117.863 173.208 118.304 172.783 120.009H172.782ZM173.19 115.767C172.818 117.254 170.527 116.498 169.784 116.313L170.439 113.684C171.183 113.869 173.576 114.215 173.19 115.767H173.19Z" fill="white"/>
</g>
<path d="M187.715 119.005C187.715 116.556 188.154 114.842 189.033 113.863C189.918 112.885 191.263 112.396 193.067 112.396C193.935 112.396 194.646 112.504 195.203 112.721C195.76 112.932 196.214 113.21 196.565 113.556C196.917 113.896 197.192 114.256 197.392 114.637C197.597 115.012 197.761 115.451 197.884 115.955C198.124 116.916 198.244 117.918 198.244 118.961C198.244 121.299 197.849 123.01 197.058 124.094C196.267 125.178 194.904 125.72 192.971 125.72C191.887 125.72 191.011 125.547 190.343 125.201C189.675 124.855 189.127 124.349 188.699 123.681C188.389 123.206 188.146 122.559 187.97 121.738C187.8 120.912 187.715 120.001 187.715 119.005ZM191.266 119.014C191.266 120.654 191.409 121.776 191.696 122.38C191.989 122.978 192.411 123.276 192.962 123.276C193.325 123.276 193.639 123.15 193.902 122.898C194.172 122.641 194.368 122.236 194.491 121.686C194.62 121.135 194.685 120.276 194.685 119.11C194.685 117.399 194.538 116.251 194.245 115.665C193.958 115.073 193.524 114.777 192.944 114.777C192.353 114.777 191.925 115.079 191.661 115.683C191.397 116.28 191.266 117.391 191.266 119.014ZM200.072 121.914H203.896V125.5H200.072V121.914ZM205.715 119.005C205.715 116.556 206.154 114.842 207.033 113.863C207.918 112.885 209.263 112.396 211.067 112.396C211.935 112.396 212.646 112.504 213.203 112.721C213.76 112.932 214.214 113.21 214.565 113.556C214.917 113.896 215.192 114.256 215.392 114.637C215.597 115.012 215.761 115.451 215.884 115.955C216.124 116.916 216.244 117.918 216.244 118.961C216.244 121.299 215.849 123.01 215.058 124.094C214.267 125.178 212.904 125.72 210.971 125.72C209.887 125.72 209.011 125.547 208.343 125.201C207.675 124.855 207.127 124.349 206.699 123.681C206.389 123.206 206.146 122.559 205.97 121.738C205.8 120.912 205.715 120.001 205.715 119.005ZM209.266 119.014C209.266 120.654 209.409 121.776 209.696 122.38C209.989 122.978 210.411 123.276 210.962 123.276C211.325 123.276 211.639 123.15 211.902 122.898C212.172 122.641 212.368 122.236 212.491 121.686C212.62 121.135 212.685 120.276 212.685 119.11C212.685 117.399 212.538 116.251 212.245 115.665C211.958 115.073 211.524 114.777 210.944 114.777C210.353 114.777 209.925 115.079 209.661 115.683C209.397 116.28 209.266 117.391 209.266 119.014ZM217.721 119.005C217.721 116.556 218.16 114.842 219.039 113.863C219.924 112.885 221.269 112.396 223.073 112.396C223.94 112.396 224.652 112.504 225.209 112.721C225.766 112.932 226.22 113.21 226.571 113.556C226.923 113.896 227.198 114.256 227.397 114.637C227.603 115.012 227.767 115.451 227.89 115.955C228.13 116.916 228.25 117.918 228.25 118.961C228.25 121.299 227.854 123.01 227.063 124.094C226.272 125.178 224.91 125.72 222.977 125.72C221.893 125.72 221.017 125.547 220.349 125.201C219.681 124.855 219.133 124.349 218.705 123.681C218.395 123.206 218.151 122.559 217.976 121.738C217.806 120.912 217.721 120.001 217.721 119.005ZM221.271 119.014C221.271 120.654 221.415 121.776 221.702 122.38C221.995 122.978 222.417 123.276 222.968 123.276C223.331 123.276 223.645 123.15 223.908 122.898C224.178 122.641 224.374 122.236 224.497 121.686C224.626 121.135 224.69 120.276 224.69 119.11C224.69 117.399 224.544 116.251 224.251 115.665C223.964 115.073 223.53 114.777 222.95 114.777C222.358 114.777 221.931 115.079 221.667 115.683C221.403 116.28 221.271 117.391 221.271 119.014ZM229.727 119.005C229.727 116.556 230.166 114.842 231.045 113.863C231.93 112.885 233.274 112.396 235.079 112.396C235.946 112.396 236.658 112.504 237.215 112.721C237.771 112.932 238.226 113.21 238.577 113.556C238.929 113.896 239.204 114.256 239.403 114.637C239.608 115.012 239.772 115.451 239.896 115.955C240.136 116.916 240.256 117.918 240.256 118.961C240.256 121.299 239.86 123.01 239.069 124.094C238.278 125.178 236.916 125.72 234.982 125.72C233.898 125.72 233.022 125.547 232.354 125.201C231.687 124.855 231.139 124.349 230.711 123.681C230.4 123.206 230.157 122.559 229.981 121.738C229.812 120.912 229.727 120.001 229.727 119.005ZM233.277 119.014C233.277 120.654 233.421 121.776 233.708 122.38C234.001 122.978 234.423 123.276 234.974 123.276C235.337 123.276 235.65 123.15 235.914 122.898C236.184 122.641 236.38 122.236 236.503 121.686C236.632 121.135 236.696 120.276 236.696 119.11C236.696 117.399 236.55 116.251 236.257 115.665C235.97 115.073 235.536 114.777 234.956 114.777C234.364 114.777 233.937 115.079 233.673 115.683C233.409 116.28 233.277 117.391 233.277 119.014ZM241.732 119.005C241.732 116.556 242.172 114.842 243.051 113.863C243.936 112.885 245.28 112.396 247.085 112.396C247.952 112.396 248.664 112.504 249.221 112.721C249.777 112.932 250.231 113.21 250.583 113.556C250.935 113.896 251.21 114.256 251.409 114.637C251.614 115.012 251.778 115.451 251.901 115.955C252.142 116.916 252.262 117.918 252.262 118.961C252.262 121.299 251.866 123.01 251.075 124.094C250.284 125.178 248.922 125.72 246.988 125.72C245.904 125.72 245.028 125.547 244.36 125.201C243.692 124.855 243.145 124.349 242.717 123.681C242.406 123.206 242.163 122.559 241.987 121.738C241.817 120.912 241.732 120.001 241.732 119.005ZM245.283 119.014C245.283 120.654 245.427 121.776 245.714 122.38C246.007 122.978 246.429 123.276 246.979 123.276C247.343 123.276 247.656 123.15 247.92 122.898C248.189 122.641 248.386 122.236 248.509 121.686C248.638 121.135 248.702 120.276 248.702 119.11C248.702 117.399 248.556 116.251 248.263 115.665C247.976 115.073 247.542 114.777 246.962 114.777C246.37 114.777 245.942 115.079 245.679 115.683C245.415 116.28 245.283 117.391 245.283 119.014ZM261.851 112.396V125.5H258.229V116.913C257.644 117.358 257.075 117.719 256.524 117.994C255.979 118.27 255.294 118.533 254.468 118.785V115.85C255.687 115.457 256.633 114.985 257.307 114.435C257.98 113.884 258.508 113.204 258.889 112.396H261.851ZM265.744 119.005C265.744 116.556 266.184 114.842 267.062 113.863C267.947 112.885 269.292 112.396 271.097 112.396C271.964 112.396 272.676 112.504 273.232 112.721C273.789 112.932 274.243 113.21 274.595 113.556C274.946 113.896 275.222 114.256 275.421 114.637C275.626 115.012 275.79 115.451 275.913 115.955C276.153 116.916 276.273 117.918 276.273 118.961C276.273 121.299 275.878 123.01 275.087 124.094C274.296 125.178 272.934 125.72 271 125.72C269.916 125.72 269.04 125.547 268.372 125.201C267.704 124.855 267.156 124.349 266.729 123.681C266.418 123.206 266.175 122.559 265.999 121.738C265.829 120.912 265.744 120.001 265.744 119.005ZM269.295 119.014C269.295 120.654 269.438 121.776 269.726 122.38C270.019 122.978 270.44 123.276 270.991 123.276C271.354 123.276 271.668 123.15 271.932 122.898C272.201 122.641 272.397 122.236 272.521 121.686C272.649 121.135 272.714 120.276 272.714 119.11C272.714 117.399 272.567 116.251 272.274 115.665C271.987 115.073 271.554 114.777 270.974 114.777C270.382 114.777 269.954 115.079 269.69 115.683C269.427 116.28 269.295 117.391 269.295 119.014ZM277.75 119.005C277.75 116.556 278.189 114.842 279.068 113.863C279.953 112.885 281.298 112.396 283.103 112.396C283.97 112.396 284.682 112.504 285.238 112.721C285.795 112.932 286.249 113.21 286.601 113.556C286.952 113.896 287.228 114.256 287.427 114.637C287.632 115.012 287.796 115.451 287.919 115.955C288.159 116.916 288.279 117.918 288.279 118.961C288.279 121.299 287.884 123.01 287.093 124.094C286.302 125.178 284.939 125.72 283.006 125.72C281.922 125.72 281.046 125.547 280.378 125.201C279.71 124.855 279.162 124.349 278.734 123.681C278.424 123.206 278.181 122.559 278.005 121.738C277.835 120.912 277.75 120.001 277.75 119.005ZM281.301 119.014C281.301 120.654 281.444 121.776 281.731 122.38C282.024 122.978 282.446 123.276 282.997 123.276C283.36 123.276 283.674 123.15 283.938 122.898C284.207 122.641 284.403 122.236 284.526 121.686C284.655 121.135 284.72 120.276 284.72 119.11C284.72 117.399 284.573 116.251 284.28 115.665C283.993 115.073 283.56 114.777 282.979 114.777C282.388 114.777 281.96 115.079 281.696 115.683C281.433 116.28 281.301 117.391 281.301 119.014ZM289.756 119.005C289.756 116.556 290.195 114.842 291.074 113.863C291.959 112.885 293.304 112.396 295.108 112.396C295.976 112.396 296.688 112.504 297.244 112.721C297.801 112.932 298.255 113.21 298.606 113.556C298.958 113.896 299.233 114.256 299.433 114.637C299.638 115.012 299.802 115.451 299.925 115.955C300.165 116.916 300.285 117.918 300.285 118.961C300.285 121.299 299.89 123.01 299.099 124.094C298.308 125.178 296.945 125.72 295.012 125.72C293.928 125.72 293.052 125.547 292.384 125.201C291.716 124.855 291.168 124.349 290.74 123.681C290.43 123.206 290.187 122.559 290.011 121.738C289.841 120.912 289.756 120.001 289.756 119.005ZM293.307 119.014C293.307 120.654 293.45 121.776 293.737 122.38C294.03 122.978 294.452 123.276 295.003 123.276C295.366 123.276 295.68 123.15 295.943 122.898C296.213 122.641 296.409 122.236 296.532 121.686C296.661 121.135 296.726 120.276 296.726 119.11C296.726 117.399 296.579 116.251 296.286 115.665C295.999 115.073 295.565 114.777 294.985 114.777C294.394 114.777 293.966 115.079 293.702 115.683C293.438 116.28 293.307 117.391 293.307 119.014Z" fill="#484848"/>
<path d="M190.421 146.911V143.842C189.464 143.568 188.761 143.156 188.312 142.604C187.867 142.047 187.645 141.374 187.645 140.583C187.645 139.782 187.896 139.11 188.399 138.568C188.907 138.021 189.581 137.707 190.421 137.624V136.898H191.483V137.624C192.259 137.716 192.877 137.982 193.336 138.422C193.795 138.856 194.088 139.44 194.215 140.172L192.362 140.414C192.25 139.838 191.957 139.447 191.483 139.242V142.106C192.655 142.423 193.453 142.836 193.878 143.344C194.303 143.847 194.515 144.494 194.515 145.285C194.515 146.168 194.247 146.913 193.709 147.519C193.177 148.124 192.435 148.495 191.483 148.632V150.001H190.421V148.668C189.576 148.566 188.89 148.251 188.363 147.724C187.835 147.196 187.499 146.452 187.352 145.49L189.264 145.285C189.342 145.675 189.488 146.012 189.703 146.295C189.918 146.579 190.157 146.784 190.421 146.911ZM190.421 139.22C190.133 139.318 189.903 139.484 189.732 139.718C189.562 139.953 189.476 140.211 189.476 140.495C189.476 140.753 189.554 140.995 189.71 141.22C189.867 141.439 190.104 141.618 190.421 141.754V139.22ZM191.483 147.013C191.849 146.945 192.147 146.776 192.376 146.508C192.606 146.234 192.721 145.915 192.721 145.548C192.721 145.221 192.623 144.94 192.428 144.706C192.237 144.467 191.922 144.284 191.483 144.157V147.013ZM199.862 148.5V146.339H195.467V144.538L200.125 137.719H201.854V144.53H203.187V146.339H201.854V148.5H199.862ZM199.862 144.53V140.861L197.394 144.53H199.862ZM204.615 148.5V146.442H206.673V148.5H204.615ZM212.386 148.5V146.339H207.992V144.538L212.65 137.719H214.378V144.53H215.711V146.339H214.378V148.5H212.386ZM212.386 144.53V140.861L209.918 144.53H212.386ZM220.179 137.719C221.219 137.719 222.032 138.09 222.618 138.832C223.316 139.711 223.666 141.168 223.666 143.205C223.666 145.236 223.314 146.696 222.611 147.584C222.03 148.317 221.219 148.683 220.179 148.683C219.134 148.683 218.292 148.283 217.652 147.482C217.013 146.676 216.693 145.243 216.693 143.183C216.693 141.161 217.044 139.706 217.748 138.817C218.329 138.085 219.139 137.719 220.179 137.719ZM220.179 139.425C219.93 139.425 219.708 139.506 219.513 139.667C219.317 139.823 219.166 140.106 219.059 140.517C218.917 141.049 218.846 141.945 218.846 143.205C218.846 144.464 218.91 145.331 219.037 145.805C219.164 146.273 219.322 146.586 219.513 146.742C219.708 146.898 219.93 146.977 220.179 146.977C220.428 146.977 220.65 146.898 220.846 146.742C221.041 146.581 221.192 146.295 221.3 145.885C221.441 145.358 221.512 144.464 221.512 143.205C221.512 141.945 221.449 141.081 221.322 140.612C221.195 140.138 221.034 139.823 220.838 139.667C220.648 139.506 220.428 139.425 220.179 139.425ZM228.529 137.719C229.569 137.719 230.382 138.09 230.968 138.832C231.666 139.711 232.015 141.168 232.015 143.205C232.015 145.236 231.664 146.696 230.96 147.584C230.379 148.317 229.569 148.683 228.529 148.683C227.484 148.683 226.642 148.283 226.002 147.482C225.362 146.676 225.042 145.243 225.042 143.183C225.042 141.161 225.394 139.706 226.097 138.817C226.678 138.085 227.489 137.719 228.529 137.719ZM228.529 139.425C228.28 139.425 228.058 139.506 227.862 139.667C227.667 139.823 227.516 140.106 227.408 140.517C227.267 141.049 227.196 141.945 227.196 143.205C227.196 144.464 227.259 145.331 227.386 145.805C227.513 146.273 227.672 146.586 227.862 146.742C228.058 146.898 228.28 146.977 228.529 146.977C228.778 146.977 229 146.898 229.195 146.742C229.391 146.581 229.542 146.295 229.649 145.885C229.791 145.358 229.862 144.464 229.862 143.205C229.862 141.945 229.798 141.081 229.671 140.612C229.544 140.138 229.383 139.823 229.188 139.667C228.998 139.506 228.778 139.425 228.529 139.425ZM236.878 137.719C237.918 137.719 238.731 138.09 239.317 138.832C240.016 139.711 240.365 141.168 240.365 143.205C240.365 145.236 240.013 146.696 239.31 147.584C238.729 148.317 237.918 148.683 236.878 148.683C235.833 148.683 234.991 148.283 234.352 147.482C233.712 146.676 233.392 145.243 233.392 143.183C233.392 141.161 233.744 139.706 234.447 138.817C235.028 138.085 235.838 137.719 236.878 137.719ZM236.878 139.425C236.629 139.425 236.407 139.506 236.212 139.667C236.017 139.823 235.865 140.106 235.758 140.517C235.616 141.049 235.545 141.945 235.545 143.205C235.545 144.464 235.609 145.331 235.736 145.805C235.863 146.273 236.021 146.586 236.212 146.742C236.407 146.898 236.629 146.977 236.878 146.977C237.127 146.977 237.35 146.898 237.545 146.742C237.74 146.581 237.892 146.295 237.999 145.885C238.141 145.358 238.211 144.464 238.211 143.205C238.211 141.945 238.148 141.081 238.021 140.612C237.894 140.138 237.733 139.823 237.538 139.667C237.347 139.506 237.127 139.425 236.878 139.425ZM245.228 137.719C246.268 137.719 247.081 138.09 247.667 138.832C248.365 139.711 248.714 141.168 248.714 143.205C248.714 145.236 248.363 146.696 247.66 147.584C247.079 148.317 246.268 148.683 245.228 148.683C244.183 148.683 243.341 148.283 242.701 147.482C242.062 146.676 241.742 145.243 241.742 143.183C241.742 141.161 242.093 139.706 242.796 138.817C243.377 138.085 244.188 137.719 245.228 137.719ZM245.228 139.425C244.979 139.425 244.757 139.506 244.562 139.667C244.366 139.823 244.215 140.106 244.107 140.517C243.966 141.049 243.895 141.945 243.895 143.205C243.895 144.464 243.958 145.331 244.085 145.805C244.212 146.273 244.371 146.586 244.562 146.742C244.757 146.898 244.979 146.977 245.228 146.977C245.477 146.977 245.699 146.898 245.895 146.742C246.09 146.581 246.241 146.295 246.349 145.885C246.49 145.358 246.561 144.464 246.561 143.205C246.561 141.945 246.498 141.081 246.371 140.612C246.244 140.138 246.083 139.823 245.887 139.667C245.697 139.506 245.477 139.425 245.228 139.425ZM253.578 137.719C254.618 137.719 255.431 138.09 256.017 138.832C256.715 139.711 257.064 141.168 257.064 143.205C257.064 145.236 256.712 146.696 256.009 147.584C255.428 148.317 254.618 148.683 253.578 148.683C252.533 148.683 251.69 148.283 251.051 147.482C250.411 146.676 250.091 145.243 250.091 143.183C250.091 141.161 250.443 139.706 251.146 138.817C251.727 138.085 252.538 137.719 253.578 137.719ZM253.578 139.425C253.329 139.425 253.106 139.506 252.911 139.667C252.716 139.823 252.564 140.106 252.457 140.517C252.315 141.049 252.245 141.945 252.245 143.205C252.245 144.464 252.308 145.331 252.435 145.805C252.562 146.273 252.721 146.586 252.911 146.742C253.106 146.898 253.329 146.977 253.578 146.977C253.827 146.977 254.049 146.898 254.244 146.742C254.439 146.581 254.591 146.295 254.698 145.885C254.84 145.358 254.911 144.464 254.911 143.205C254.911 141.945 254.847 141.081 254.72 140.612C254.593 140.138 254.432 139.823 254.237 139.667C254.046 139.506 253.827 139.425 253.578 139.425ZM261.927 137.719C262.967 137.719 263.78 138.09 264.366 138.832C265.064 139.711 265.414 141.168 265.414 143.205C265.414 145.236 265.062 146.696 264.359 147.584C263.778 148.317 262.967 148.683 261.927 148.683C260.882 148.683 260.04 148.283 259.4 147.482C258.761 146.676 258.441 145.243 258.441 143.183C258.441 141.161 258.792 139.706 259.496 138.817C260.077 138.085 260.887 137.719 261.927 137.719ZM261.927 139.425C261.678 139.425 261.456 139.506 261.261 139.667C261.065 139.823 260.914 140.106 260.807 140.517C260.665 141.049 260.594 141.945 260.594 143.205C260.594 144.464 260.658 145.331 260.785 145.805C260.912 146.273 261.07 146.586 261.261 146.742C261.456 146.898 261.678 146.977 261.927 146.977C262.176 146.977 262.398 146.898 262.594 146.742C262.789 146.581 262.94 146.295 263.048 145.885C263.189 145.358 263.26 144.464 263.26 143.205C263.26 141.945 263.197 141.081 263.07 140.612C262.943 140.138 262.782 139.823 262.586 139.667C262.396 139.506 262.176 139.425 261.927 139.425Z" fill="#A6A6A6"/>
</g>
<rect x="392" y="98" width="50" height="26.5" rx="10" fill="#F1F1F1"/>
<path d="M409.171 106.04H410.401V116.75H408.766V108.005C408.121 108.62 407.296 109.07 406.306 109.355V107.735C406.786 107.615 407.281 107.405 407.821 107.105C408.361 106.775 408.811 106.43 409.171 106.04ZM417.499 104.45H418.879L413.644 118.25H412.249L417.499 104.45ZM423.979 105.83C424.999 105.83 425.854 106.115 426.514 106.715C427.159 107.315 427.489 108.08 427.489 109.025C427.489 109.955 427.129 110.795 426.439 111.56C426.019 111.995 425.284 112.565 424.219 113.285C423.064 114.05 422.374 114.725 422.149 115.31H427.504V116.75H420.124C420.124 115.685 420.469 114.755 421.189 113.945C421.579 113.48 422.389 112.835 423.604 111.995C424.324 111.485 424.834 111.08 425.134 110.765C425.614 110.225 425.869 109.64 425.869 109.01C425.869 108.41 425.704 107.96 425.374 107.66C425.044 107.36 424.549 107.21 423.919 107.21C423.244 107.21 422.734 107.435 422.389 107.9C422.029 108.35 421.849 108.995 421.819 109.865H420.184C420.199 108.665 420.544 107.705 421.219 106.985C421.909 106.205 422.839 105.83 423.979 105.83Z" fill="#A6A6A6"/>
<rect x="392" y="132.5" width="50" height="26.5" rx="10" fill="#F1F1F1"/>
<path d="M413.191 140.33C414.211 140.33 415.066 140.615 415.726 141.215C416.371 141.815 416.701 142.58 416.701 143.525C416.701 144.455 416.341 145.295 415.651 146.06C415.231 146.495 414.496 147.065 413.431 147.785C412.276 148.55 411.586 149.225 411.361 149.81H416.716V151.25H409.336C409.336 150.185 409.681 149.255 410.401 148.445C410.791 147.98 411.601 147.335 412.816 146.495C413.536 145.985 414.046 145.58 414.346 145.265C414.826 144.725 415.081 144.14 415.081 143.51C415.081 142.91 414.916 142.46 414.586 142.16C414.256 141.86 413.761 141.71 413.131 141.71C412.456 141.71 411.946 141.935 411.601 142.4C411.241 142.85 411.061 143.495 411.031 144.365H409.396C409.411 143.165 409.756 142.205 410.431 141.485C411.121 140.705 412.051 140.33 413.191 140.33ZM417.94 143.495H419.8L421.51 145.955L423.205 143.495H425.065L422.38 147.125L425.395 151.25H423.535L421.51 148.295L419.47 151.25H417.595L420.625 147.125L417.94 143.495Z" fill="#A6A6A6"/>
<rect x="10.5" y="90.5" width="439" height="76" rx="9.5" stroke="#ECECEC"/>
<rect x="10" y="187" width="440" height="77" rx="10" fill="#FB6943"/>
<g filter="url(#filter0_d_0_5405)">
<path d="M213.926 218.194H228.11V219.85H225.23V224.17H229.028V225.826H225.23V233.62H223.52V225.826H218.696C218.516 227.626 218.174 229.12 217.634 230.326C216.95 231.838 215.798 233.008 214.196 233.818L213.278 232.378C214.718 231.532 215.708 230.452 216.23 229.156C216.572 228.22 216.806 227.104 216.95 225.826H212.99V224.17H217.076C217.076 224.026 217.094 223.882 217.094 223.774V219.85H213.926V218.194ZM218.822 219.85V223.774C218.822 223.918 218.804 224.044 218.804 224.17H223.52V219.85H218.822ZM232.754 217.132L234.428 217.276C234.284 218.428 234.14 219.526 233.996 220.534H236.552V221.488C236.444 224.368 235.976 226.852 235.148 228.976C235.94 229.804 236.606 230.56 237.11 231.226L235.958 232.576C235.508 231.964 234.986 231.334 234.374 230.65C233.69 231.91 232.844 233.008 231.836 233.944L230.756 232.594C231.764 231.694 232.574 230.614 233.204 229.39C232.502 228.67 231.746 227.914 230.918 227.122C231.314 225.61 231.692 223.954 232.016 222.172H230.756V220.534H232.286C232.448 219.436 232.61 218.302 232.754 217.132ZM233.924 227.734C234.5 226.096 234.86 224.242 234.968 222.172H233.726C233.42 223.936 233.096 225.43 232.754 226.618C233.168 227.014 233.564 227.374 233.924 227.734ZM246.02 225.97V233.872H244.382V232.864H239.45V233.872H237.83V225.97H246.02ZM239.45 231.262H244.382V227.536H239.45V231.262ZM237.218 224.656L236.948 223.108C237.83 222.82 239.072 220.858 240.674 217.204L242.294 217.744C241.322 219.832 240.35 221.596 239.342 223C241.07 222.892 242.744 222.712 244.364 222.46C243.932 221.56 243.482 220.732 243.05 219.958L244.508 219.256C245.444 220.822 246.308 222.55 247.136 224.44L245.57 225.196C245.39 224.728 245.21 224.296 245.03 223.9C242.69 224.224 240.08 224.476 237.218 224.656Z" fill="white"/>
</g>
<defs>
<filter id="filter0_d_0_5405" x="208.99" y="215.132" width="42.1455" height="24.812" filterUnits="userSpaceOnUse" color-interpolation-filters="sRGB">
<feFlood flood-opacity="0" result="BackgroundImageFix"/>
<feColorMatrix in="SourceAlpha" type="matrix" values="0 0 0 0 0 0 0 0 0 0 0 0 0 0 0 0 0 0 127 0" result="hardAlpha"/>
<feOffset dy="2"/>
<feGaussianBlur stdDeviation="2"/>
<feComposite in2="hardAlpha" operator="out"/>
<feColorMatrix type="matrix" values="0 0 0 0 0 0 0 0 0 0 0 0 0 0 0 0 0 0 0.3 0"/>
<feBlend mode="normal" in2="BackgroundImageFix" result="effect1_dropShadow_0_5405"/>
<feBlend mode="normal" in="SourceGraphic" in2="effect1_dropShadow_0_5405" result="shape"/>
</filter>
<clipPath id="clip0_0_5405">
<rect width="143" height="46" fill="white" transform="translate(158.5 105.5)"/>
</clipPath>
<clipPath id="clip1_0_5405">
<rect width="24" height="24" fill="white" transform="translate(158.5 105.5)"/>
</clipPath>
</defs>
</svg>
