<svg width="23" height="22" viewBox="0 0 23 22" fill="none" xmlns="http://www.w3.org/2000/svg">
<path fill-rule="evenodd" clip-rule="evenodd" d="M6.79412 13.5882V12.6471C6.79412 12.1273 6.37274 11.7059 5.85294 11.7059C5.33314 11.7059 4.91176 12.1273 4.91176 12.6471V13.5882C4.91176 14.108 5.33314 14.5294 5.85294 14.5294C6.37274 14.5294 6.79412 14.108 6.79412 13.5882ZM5.85294 10.2941C4.55345 10.2941 3.5 11.3476 3.5 12.6471V13.5882C3.5 14.8877 4.55345 15.9412 5.85294 15.9412C7.15243 15.9412 8.20588 14.8877 8.20588 13.5882V12.6471C8.20588 11.3476 7.15243 10.2941 5.85294 10.2941Z" fill="#B1BAD3"/>
<path fill-rule="evenodd" clip-rule="evenodd" d="M18.0881 13.5882V12.6471C18.0881 12.1273 17.6667 11.7059 17.1469 11.7059C16.6271 11.7059 16.2057 12.1273 16.2057 12.6471V13.5882C16.2057 14.108 16.6271 14.5294 17.1469 14.5294C17.6667 14.5294 18.0881 14.108 18.0881 13.5882ZM17.1469 10.2941C15.8474 10.2941 14.7939 11.3476 14.7939 12.6471V13.5882C14.7939 14.8877 15.8474 15.9412 17.1469 15.9412C18.4464 15.9412 19.4998 14.8877 19.4998 13.5882V12.6471C19.4998 11.3476 18.4464 10.2941 17.1469 10.2941Z" fill="#B1BAD3"/>
<path fill-rule="evenodd" clip-rule="evenodd" d="M11.9705 16.4118H11.0293C10.7694 16.4118 10.5587 16.6225 10.5587 16.8824C10.5587 17.1423 10.7694 17.3529 11.0293 17.3529H11.9705C12.2304 17.3529 12.4411 17.1423 12.4411 16.8824C12.4411 16.6225 12.2304 16.4118 11.9705 16.4118ZM11.0293 15C9.98973 15 9.14697 15.8428 9.14697 16.8824C9.14697 17.9219 9.98973 18.7647 11.0293 18.7647H11.9705C13.0101 18.7647 13.8529 17.9219 13.8529 16.8824C13.8529 15.8428 13.0101 15 11.9705 15H11.0293Z" fill="#B1BAD3"/>
<path fill-rule="evenodd" clip-rule="evenodd" d="M4.67627 9.82353C4.67627 6.055 7.73127 3 11.4998 3C15.2683 3 18.3233 6.055 18.3233 9.82353V11.2353H16.9116V9.82353C16.9116 6.83469 14.4886 4.41176 11.4998 4.41176C8.51096 4.41176 6.08803 6.83469 6.08803 9.82353V11.2353H4.67627V9.82353Z" fill="#B1BAD3"/>
<path fill-rule="evenodd" clip-rule="evenodd" d="M12.796 16.1865L13.5436 16.0619C14.6251 15.8816 15.5551 15.1948 16.0454 14.2141L17.3081 14.8455C16.6158 16.2301 15.3027 17.1999 13.7757 17.4544L13.0281 17.579L12.796 16.1865Z" fill="#B1BAD3"/>
</svg>
