<svg width="23" height="22" viewBox="0 0 23 22" fill="none" xmlns="http://www.w3.org/2000/svg">
<path fill-rule="evenodd" clip-rule="evenodd" d="M17.6176 5.41176H5.38235C5.12245 5.41176 4.91176 5.62245 4.91176 5.88235V15.2941C4.91176 15.554 5.12245 15.7647 5.38235 15.7647H17.6176C17.8775 15.7647 18.0882 15.554 18.0882 15.2941V5.88235C18.0882 5.62245 17.8775 5.41176 17.6176 5.41176ZM5.38235 4C4.34276 4 3.5 4.84276 3.5 5.88235V15.2941C3.5 16.3337 4.34276 17.1765 5.38235 17.1765H17.6176C18.6572 17.1765 19.5 16.3337 19.5 15.2941V5.88235C19.5 4.84276 18.6572 4 17.6176 4H5.38235Z" fill="#B1BAD3"/>
<path fill-rule="evenodd" clip-rule="evenodd" d="M18.0884 9.17647H14.7942C14.0145 9.17647 13.3825 9.80854 13.3825 10.5882C13.3825 11.3679 14.0145 12 14.7942 12H18.0884V9.17647ZM14.7942 7.76471C13.2348 7.76471 11.9707 9.02885 11.9707 10.5882C11.9707 12.1476 13.2348 13.4118 14.7942 13.4118H19.5001V7.76471H14.7942Z" fill="#B1BAD3"/>
<path d="M14.353 10.5882C14.353 10.3446 14.5505 10.1471 14.7942 10.1471C15.0379 10.1471 15.2354 10.3446 15.2354 10.5882C15.2354 10.8319 15.0379 11.0294 14.7942 11.0294C14.5505 11.0294 14.353 10.8319 14.353 10.5882Z" stroke="#B1BAD3" stroke-width="0.941176"/>
</svg>
