<svg width="23" height="22" viewBox="0 0 23 22" fill="none" xmlns="http://www.w3.org/2000/svg">
<path d="M18.7726 15.5556C18.9655 15.5556 19.1506 15.6316 19.287 15.7671C19.4234 15.9025 19.5 16.0862 19.5 16.2778C19.5 16.4693 19.4234 16.653 19.287 16.7885C19.1506 16.9239 18.9655 17 18.7726 17H4.22736C4.03446 17 3.84944 16.9239 3.71304 16.7885C3.57663 16.653 3.5 16.4693 3.5 16.2778C3.5 16.0862 3.57663 15.9025 3.71304 15.7671C3.84944 15.6316 4.03446 15.5556 4.22736 15.5556H18.7726ZM18.7726 9.77779C18.9613 9.78417 19.14 9.86304 19.2712 9.99778C19.4023 10.1325 19.4757 10.3126 19.4757 10.5C19.4757 10.6874 19.4023 10.8675 19.2712 11.0022C19.14 11.137 18.9613 11.2158 18.7726 11.2222H4.22736C4.03875 11.2158 3.86 11.137 3.72884 11.0022C3.59768 10.8675 3.52437 10.6874 3.52437 10.5C3.52437 10.3126 3.59768 10.1325 3.72884 9.99778C3.86 9.86304 4.03875 9.78417 4.22736 9.77779H18.7726ZM18.7726 4C18.9655 4 19.1506 4.07609 19.287 4.21154C19.4234 4.34698 19.5 4.53069 19.5 4.72224C19.5 4.91378 19.4234 5.09747 19.287 5.23291C19.1506 5.36835 18.9655 5.44445 18.7726 5.44445H4.22736C4.03446 5.44445 3.84944 5.36835 3.71304 5.23291C3.57663 5.09747 3.5 4.91378 3.5 4.72224C3.5 4.53069 3.57663 4.34698 3.71304 4.21154C3.84944 4.07609 4.03446 4 4.22736 4H18.7726Z" fill="#B1BAD3"/>
</svg>
