<svg width="14" height="14" viewBox="0 0 14 14" fill="none" xmlns="http://www.w3.org/2000/svg">
<path d="M13.0844 8.74841C13.253 8.74034 13.4199 8.78565 13.5612 8.87789C13.7712 9.01261 13.912 9.23044 13.9697 9.4719C14.0303 9.71937 13.9993 9.98042 13.8823 10.2067L11.2578 13.5101C11.0155 13.9755 10.4801 14.1347 10.0619 13.8661C9.64373 13.5976 9.50026 13.0027 9.74171 12.5373L11.2289 10.6652H0.961071C0.706779 10.6652 0.462902 10.5641 0.28309 10.3843C0.103278 10.2045 0.00226134 9.96064 0.00226134 9.70635C0.00226134 9.45206 0.103278 9.20818 0.28309 9.02837C0.462902 8.84856 0.706779 8.74754 0.961071 8.74754H13.0407L13.0844 8.74841ZM0.91558 5.24823C0.74699 5.25631 0.580149 5.211 0.4388 5.11876C0.230922 4.98104 0.0844916 4.76814 0.0302558 4.52475C-0.0303469 4.27728 0.000730356 4.01623 0.117738 3.7899L2.74309 0.486552C2.98454 0.0211444 3.51994 -0.138074 3.93811 0.130497C4.35627 0.399069 4.49975 0.993951 4.25829 1.45936L2.77109 3.33149H13.0398C13.1657 3.33149 13.2904 3.35629 13.4067 3.40447C13.5231 3.45266 13.6288 3.52328 13.7178 3.61232C13.8068 3.70135 13.8774 3.80705 13.9256 3.92338C13.9738 4.03971 13.9986 4.16439 13.9986 4.2903C13.9986 4.41621 13.9738 4.54089 13.9256 4.65722C13.8774 4.77355 13.8068 4.87925 13.7178 4.96828C13.6288 5.05731 13.5231 5.12794 13.4067 5.17612C13.2904 5.22431 13.1657 5.24911 13.0398 5.24911H0.960196L0.91558 5.24823Z" fill="#333333"/>
</svg>
