<svg width="12" height="12" viewBox="0 0 12 12" fill="none" xmlns="http://www.w3.org/2000/svg">
<path d="M6 12C9.31371 12 12 9.31371 12 6C12 2.68629 9.31371 0 6 0C2.68629 0 0 2.68629 0 6C0 9.31371 2.68629 12 6 12Z" fill="#F1416D"/>
<path d="M7 3C7 2.44772 6.55228 2 6 2C5.44772 2 5 2.44772 5 3V6C5 6.55228 5.44772 7 6 7C6.55228 7 7 6.55228 7 6V3Z" fill="white"/>
<path d="M7 9C7 8.44772 6.55228 8 6 8C5.44772 8 5 8.44772 5 9C5 9.55228 5.44772 10 6 10C6.55228 10 7 9.55228 7 9Z" fill="white"/>
</svg>
