<svg width="18" height="18" viewBox="0 0 18 18" fill="none" xmlns="http://www.w3.org/2000/svg">
<path d="M1 16.3783V1.62226C1 1.45723 1.06556 1.29895 1.18226 1.18226C1.29895 1.06556 1.45723 1 1.62226 1C1.7873 1 1.94557 1.06556 2.06227 1.18226C2.17897 1.29895 2.24453 1.45723 2.24453 1.62226V15.7555H16.3777C16.5428 15.7555 16.701 15.821 16.8177 15.9377C16.9344 16.0544 17 16.2127 17 16.3777C17 16.5428 16.9344 16.701 16.8177 16.8177C16.701 16.9344 16.5428 17 16.3777 17H1.62169C1.4569 16.9997 1.29895 16.9341 1.18242 16.8176C1.0659 16.7011 1.0003 16.5431 1 16.3783ZM10.2968 11.2173C10.2869 11.2082 10.2777 11.1983 10.2694 11.1876L7.64776 8.56602L5.19642 11.0174C5.07873 11.1256 4.92386 11.1844 4.76399 11.1814C4.60411 11.1784 4.45153 11.1139 4.33795 11.0014C4.22437 10.8888 4.15852 10.7369 4.15409 10.577C4.14966 10.4172 4.20699 10.2618 4.31417 10.1431L7.20549 7.25178C7.26324 7.19393 7.33182 7.14804 7.40732 7.11673C7.48281 7.08542 7.56374 7.06931 7.64548 7.06931C7.72721 7.06931 7.80814 7.08542 7.88364 7.11673C7.95914 7.14804 8.02772 7.19393 8.08546 7.25178L10.7368 9.89625L15.0795 5.56041C15.1962 5.44387 15.3544 5.37846 15.5193 5.37856C15.6842 5.37867 15.8424 5.44429 15.9589 5.56098C16.0754 5.67767 16.1408 5.83588 16.1407 6.0008C16.1406 6.16572 16.075 6.32384 15.9583 6.44038L11.1779 11.2173C11.0612 11.3339 10.9029 11.3993 10.7379 11.3993C10.573 11.3993 10.4136 11.3339 10.2968 11.2173Z" fill="#B1BAD3" stroke="#B1BAD3" stroke-width="0.4"/>
</svg>
