<svg width="428" height="2871" viewBox="0 0 428 2871" fill="none" xmlns="http://www.w3.org/2000/svg">
<g clip-path="url(#clip0_1687_49707)">
<rect x="34" y="2029.5" width="2" height="76" rx="1" fill="url(#paint0_linear_1687_49707)" fill-opacity="0.1"/>
<rect x="54" y="1999.5" width="2" height="136" rx="1" fill="url(#paint1_linear_1687_49707)" fill-opacity="0.1"/>
<rect x="74" y="1967" width="2" height="201" rx="1" fill="url(#paint2_linear_1687_49707)" fill-opacity="0.1"/>
<rect x="94" y="1891" width="2" height="353" rx="1" fill="url(#paint3_linear_1687_49707)" fill-opacity="0.1"/>
<rect x="114" y="1967" width="2" height="201" rx="1" fill="url(#paint4_linear_1687_49707)" fill-opacity="0.1"/>
<rect x="134" y="1999.5" width="2" height="136" rx="1" fill="url(#paint5_linear_1687_49707)" fill-opacity="0.1"/>
<rect x="154" y="2029.5" width="2" height="76" rx="1" fill="url(#paint6_linear_1687_49707)" fill-opacity="0.1"/>
<rect x="34" y="2627.5" width="2" height="76" rx="1" fill="url(#paint7_linear_1687_49707)" fill-opacity="0.1"/>
<rect x="54" y="2597.5" width="2" height="136" rx="1" fill="url(#paint8_linear_1687_49707)" fill-opacity="0.1"/>
<rect x="74" y="2565" width="2" height="201" rx="1" fill="url(#paint9_linear_1687_49707)" fill-opacity="0.1"/>
<rect x="94" y="2489" width="2" height="353" rx="1" fill="url(#paint10_linear_1687_49707)" fill-opacity="0.1"/>
<rect x="114" y="2565" width="2" height="201" rx="1" fill="url(#paint11_linear_1687_49707)" fill-opacity="0.1"/>
<rect x="134" y="2597.5" width="2" height="136" rx="1" fill="url(#paint12_linear_1687_49707)" fill-opacity="0.1"/>
<rect x="154" y="2627.5" width="2" height="76" rx="1" fill="url(#paint13_linear_1687_49707)" fill-opacity="0.1"/>
<rect x="260" y="2253.97" width="2" height="136.068" rx="1" fill="url(#paint14_linear_1687_49707)" fill-opacity="0.1"/>
<rect x="280" y="2200.25" width="2" height="243.49" rx="1" fill="url(#paint15_linear_1687_49707)" fill-opacity="0.1"/>
<rect x="300" y="2142.07" width="2" height="359.864" rx="1" fill="url(#paint16_linear_1687_49707)" fill-opacity="0.1"/>
<rect x="320" y="2006" width="2" height="632" rx="1" fill="url(#paint17_linear_1687_49707)" fill-opacity="0.1"/>
<rect x="340" y="2142.07" width="2" height="359.864" rx="1" fill="url(#paint18_linear_1687_49707)" fill-opacity="0.1"/>
<rect x="360" y="2200.25" width="2" height="243.49" rx="1" fill="url(#paint19_linear_1687_49707)" fill-opacity="0.1"/>
<rect x="380" y="2253.97" width="2" height="136.068" rx="1" fill="url(#paint20_linear_1687_49707)" fill-opacity="0.1"/>
<g opacity="0.05" clip-path="url(#clip1_1687_49707)">
<path d="M155.29 1947.61C161.478 1944.37 177.689 1944.81 177.689 1944.81C179.388 1943.13 179.729 1938.95 180.412 1936.66C182.65 1929.15 191.922 1924.62 199.237 1927.46C199.125 1915.32 212.36 1905.01 224.128 1908.07C224.808 1904.82 228.012 1902.58 231.284 1901.98C234.555 1901.38 237.908 1902.08 241.16 1902.78C241.22 1892.79 251.691 1885.98 261.501 1883.99C271.712 1881.92 282.706 1883.03 291.874 1887.98C301.044 1892.92 308.177 1901.86 310.069 1912.09C320.865 1907.26 333.457 1906.58 344.714 1910.21C352.694 1912.78 360.674 1918.49 361.808 1926.79C370.175 1924.56 379.771 1930.86 381.04 1939.41C386.392 1937.72 391.98 1936.28 397.563 1936.87C403.146 1937.46 408.771 1940.46 411.095 1945.57C416.524 1944.8 422.267 1948.08 424.365 1953.14C426.347 1959.83 424.365 1965.23 408.752 1959.82C406.353 1958.99 404.087 1961.82 401.754 1962.82C394.682 1965.84 387.57 1968.89 380.086 1970.67C366.172 1973.99 351.205 1972.74 338.032 1967.17C336.202 1966.39 334.385 1965.53 332.432 1965.17C328.766 1964.49 325.04 1965.62 321.331 1966.02C317.623 1966.41 313.313 1965.76 311.253 1962.65C303.173 1968.29 292.551 1970.13 283.042 1967.54C260.811 1981.78 230.115 1981.46 208.193 1966.75C206.818 1965.82 205.316 1964.81 203.667 1964.97C202.398 1965.09 201.32 1965.9 200.236 1966.56C192.275 1971.46 180.62 1968.87 175.488 1961.07C170.206 1964.77 163.601 1966.54 157.174 1966C154.092 1965.73 150.715 1965.03 148.733 1962.66C144.02 1957.03 149.859 1950.45 155.292 1947.61L155.29 1947.61Z" fill="white"/>
<path d="M410.883 1945.28C410.092 1943.54 408.921 1942.05 407.5 1940.81C408.077 1942.61 408.214 1944.5 407.735 1946.34C406.573 1950.82 400.814 1953.88 396.955 1951.33C395.692 1950.49 394.655 1949.15 393.152 1948.95C392.098 1948.8 391.066 1949.27 390.111 1949.74C387.294 1951.12 384.399 1952.64 381.262 1952.72C378.122 1952.8 374.674 1950.9 374.184 1947.8C373.561 1943.86 377.326 1941.62 380.81 1939.04C379.487 1930.53 369.93 1924.28 361.593 1926.5C360.461 1918.2 352.481 1912.49 344.499 1909.92C339.532 1908.31 334.304 1907.56 329.083 1907.62C328.933 1907.83 328.786 1908.04 328.65 1908.27C336.305 1908.41 343.682 1913.26 346.825 1920.24C349.969 1927.21 348.721 1935.94 343.747 1941.76C336.996 1933.69 323.637 1932.29 315.357 1938.78C316.637 1935.16 313.137 1931.58 309.606 1930.05C306.075 1928.52 301.939 1927.76 299.474 1924.81C305.294 1923.05 308.445 1917.64 309.791 1911.49C307.811 1901.39 300.735 1892.59 291.662 1887.69C287.533 1885.47 283.036 1884.02 278.406 1883.29C284.181 1888.62 288.403 1895.65 290.113 1903.32C291.338 1908.82 291.303 1914.76 288.941 1919.88C286.578 1924.99 281.601 1929.09 275.97 1929.41C282.376 1934.45 284.912 1943.86 281.908 1951.43C278.905 1959.01 270.611 1964.13 262.482 1963.43C259.752 1963.19 256.483 1961.58 256.691 1958.85C251.299 1963.65 243.759 1966.44 236.718 1964.84C229.676 1963.24 223.724 1956.56 224.243 1949.37C221.877 1952 217.736 1952.86 214.518 1951.38C211.299 1949.9 209.261 1946.2 209.73 1942.69C206.432 1948.79 202.81 1955.21 196.728 1958.55C190.644 1961.89 181.408 1960.43 178.955 1953.95C176.09 1955.44 172.337 1955.03 169.865 1952.95C164.299 1958.3 157.675 1958.8 150.443 1959.69C149.336 1959.83 148.256 1959.98 147.215 1960.19C147.496 1960.93 147.923 1961.66 148.52 1962.37C150.503 1964.74 153.88 1965.45 156.961 1965.71C163.391 1966.26 169.994 1964.48 175.276 1960.78C180.407 1968.58 192.063 1971.17 200.024 1966.28C201.109 1965.61 202.187 1964.8 203.454 1964.68C205.103 1964.52 206.605 1965.53 207.98 1966.46C229.903 1981.17 260.6 1981.5 282.829 1967.25C292.339 1969.84 302.961 1968 311.041 1962.36C313.1 1965.47 317.41 1966.12 321.119 1965.73C324.827 1965.34 328.553 1964.2 332.219 1964.88C334.173 1965.24 335.991 1966.11 337.819 1966.88C350.993 1972.45 365.959 1973.7 379.873 1970.38C387.355 1968.6 394.47 1965.56 401.541 1962.53C403.875 1961.53 406.141 1958.7 408.54 1959.53C424.152 1964.94 426.135 1959.54 424.152 1952.85C422.054 1947.79 416.311 1944.52 410.883 1945.28V1945.28Z" fill="#C9C9C9"/>
<path d="M231.055 1926.94C233.064 1924.45 236.454 1923.6 239.625 1923.14C242.168 1922.78 244.777 1922.58 247.29 1923.11C249.803 1923.64 252.235 1924.99 253.596 1927.16C253.772 1926.31 253.292 1925.48 252.831 1924.74C251.103 1921.97 249.219 1919.07 246.27 1917.67C244.342 1916.76 242.145 1916.59 240.008 1916.59C237.59 1916.59 235.097 1916.81 232.954 1917.93C230.812 1919.05 229.089 1921.25 229.167 1923.66C228.897 1922.97 228.033 1922.75 227.29 1922.67C222.334 1922.17 217.064 1924.09 214.024 1928.03C211.087 1931.83 210.459 1937.9 213.467 1941.86C212.383 1937.35 214.206 1935.35 217.075 1932.12C218.859 1930.11 220.845 1928.51 223.404 1927.58C224.669 1927.12 226 1926.84 227.342 1926.74C227.794 1926.7 230.941 1927.08 231.055 1926.94Z" fill="#C9C9C9"/>
<path d="M246.11 1936.12C248.4 1934.23 251.659 1933.57 254.507 1934.42C257.355 1935.28 259.71 1937.62 260.574 1940.46C263.494 1939.58 266.957 1940.51 268.822 1942.92C270.687 1945.33 270.621 1949.12 268.477 1951.29C270.309 1949.64 271.759 1947.48 272.195 1945.06C272.631 1942.64 271.94 1939.95 270.114 1938.3C268.288 1936.64 265.301 1936.27 263.303 1937.71C263.675 1936.11 262.186 1934.7 260.755 1933.87C258.233 1932.42 255.379 1931.53 252.474 1931.31C251.42 1931.23 250.324 1931.25 249.35 1931.66C248.234 1932.13 247.391 1933.09 246.724 1934.1C245.476 1935.99 244.714 1938.44 245.625 1940.52C244.932 1938.26 245.804 1935.61 247.705 1934.2L246.11 1936.12V1936.12Z" fill="#C9C9C9"/>
<path d="M298.457 1954.28C299.327 1951.04 301.924 1948.31 305.126 1947.27C308.327 1946.24 312.035 1946.93 314.646 1949.04C315.562 1946.91 317.821 1945.42 320.148 1945.42C322.476 1945.42 324.736 1946.9 325.656 1949.04C325.804 1946.29 323.996 1943.55 321.41 1942.6C318.823 1941.65 315.669 1942.58 314 1944.77C314.076 1944.14 313.484 1943.64 312.93 1943.33C308.572 1940.86 302.495 1942.03 299.365 1945.93C296.236 1949.84 296.428 1956.02 299.797 1959.72C298.741 1957.38 298.719 1954.59 299.741 1952.24L298.457 1954.28Z" fill="white"/>
<path d="M345.645 1945.41C346.762 1944.14 348.349 1943.36 349.982 1942.93C351.83 1942.44 353.855 1942.36 355.604 1943.13C357.355 1943.9 358.751 1945.63 358.749 1947.53C360.009 1945.97 362.431 1945.61 364.226 1946.51C366.02 1947.41 367.148 1949.37 367.317 1951.37C367.485 1953.37 366.783 1955.38 365.649 1957.03C364.321 1958.97 362.392 1960.49 360.198 1961.34C362.974 1959.94 364.756 1956.78 364.519 1953.69C364.463 1952.95 364.284 1952.18 363.782 1951.64C362.849 1950.63 361.229 1950.77 359.885 1951.07C357.982 1951.51 355.891 1952.31 355.168 1954.13C356.379 1952.13 355.44 1949.23 353.375 1948.13C351.311 1947.04 348.532 1947.75 347.072 1949.58C345.615 1951.4 345.472 1954.1 346.529 1956.18C344.895 1952.96 342.76 1948.68 345.642 1945.41H345.645Z" fill="white"/>
</g>
<g opacity="0.05">
<g clip-path="url(#clip2_1687_49707)">
<path d="M414.059 1695.23C405.89 1690.94 384.489 1691.53 384.489 1691.53C382.246 1689.3 381.795 1683.78 380.894 1680.74C377.938 1670.8 365.697 1664.8 356.04 1668.57C356.188 1652.5 338.715 1638.84 323.18 1642.89C322.282 1638.59 318.053 1635.62 313.732 1634.83C309.414 1634.04 304.987 1634.97 300.695 1635.9C300.616 1622.66 286.791 1613.66 273.84 1611.02C260.36 1608.28 245.845 1609.76 233.742 1616.3C221.636 1622.85 212.219 1634.67 209.721 1648.22C195.469 1641.83 178.844 1640.92 163.984 1645.72C153.449 1649.13 142.914 1656.69 141.417 1667.67C130.37 1664.72 117.702 1673.06 116.026 1684.38C108.961 1682.14 101.583 1680.23 94.213 1681.01C86.8425 1681.8 79.4161 1685.77 76.3483 1692.53C69.1815 1691.52 61.5997 1695.85 58.8298 1702.55C56.2126 1711.4 58.8298 1718.55 79.4415 1711.39C82.6086 1710.3 85.6001 1714.04 88.6807 1715.36C98.0166 1719.37 107.406 1723.39 117.287 1725.75C135.655 1730.14 155.414 1728.49 172.805 1721.12C175.222 1720.1 177.62 1718.96 180.199 1718.48C185.039 1717.58 189.957 1719.07 194.853 1719.59C199.749 1720.11 205.439 1719.25 208.158 1715.14C218.826 1722.6 232.848 1725.04 245.402 1721.61C274.752 1740.46 315.275 1740.03 344.217 1720.56C346.032 1719.34 348.016 1717.99 350.192 1718.21C351.868 1718.37 353.291 1719.44 354.722 1720.32C365.231 1726.8 380.619 1723.37 387.393 1713.05C394.367 1717.94 403.086 1720.29 411.572 1719.57C415.64 1719.22 420.098 1718.29 422.716 1715.15C428.938 1707.7 421.229 1698.99 414.057 1695.23L414.059 1695.23Z" fill="white"/>
<path d="M76.6279 1692.14C77.6718 1689.85 79.2171 1687.88 81.0935 1686.24C80.3322 1688.61 80.1515 1691.12 80.7828 1693.56C82.318 1699.48 89.9202 1703.53 95.0145 1700.15C96.6821 1699.05 98.0518 1697.27 100.035 1697C101.428 1696.81 102.79 1697.43 104.05 1698.05C107.77 1699.88 111.591 1701.89 115.733 1701.99C119.878 1702.1 124.43 1699.59 125.077 1695.49C125.899 1690.26 120.929 1687.3 116.329 1683.88C118.075 1672.62 130.693 1664.35 141.699 1667.29C143.194 1656.31 153.729 1648.74 164.266 1645.34C170.824 1643.22 177.726 1642.21 184.618 1642.3C184.817 1642.57 185.01 1642.85 185.191 1643.16C175.084 1643.34 165.346 1649.77 161.196 1659C157.046 1668.23 158.693 1679.79 165.259 1687.48C174.172 1676.81 191.808 1674.96 202.74 1683.54C201.05 1678.75 205.67 1674.01 210.332 1671.99C214.994 1669.97 220.455 1668.96 223.708 1665.06C216.025 1662.72 211.865 1655.56 210.088 1647.42C212.702 1634.05 222.043 1622.4 234.022 1615.92C239.473 1612.98 245.41 1611.06 251.522 1610.09C243.897 1617.15 238.324 1626.45 236.066 1636.61C234.449 1643.89 234.495 1651.75 237.614 1658.52C240.733 1665.29 247.304 1670.71 254.738 1671.14C246.28 1677.82 242.932 1690.26 246.899 1700.29C250.863 1710.32 261.813 1717.09 272.544 1716.17C276.149 1715.86 280.464 1713.72 280.189 1710.11C287.308 1716.46 297.262 1720.15 306.558 1718.03C315.855 1715.92 323.712 1707.08 323.027 1697.56C326.151 1701.05 331.617 1702.18 335.866 1700.22C340.115 1698.26 342.806 1693.36 342.188 1688.72C346.541 1696.79 351.322 1705.29 359.352 1709.71C367.385 1714.13 379.577 1712.21 382.815 1703.62C386.599 1705.6 391.553 1705.05 394.817 1702.3C402.164 1709.38 410.91 1710.05 420.457 1711.23C421.918 1711.41 423.344 1711.61 424.719 1711.88C424.347 1712.86 423.784 1713.82 422.995 1714.77C420.378 1717.9 415.92 1718.84 411.852 1719.19C403.364 1719.91 394.646 1717.56 387.673 1712.66C380.898 1722.99 365.511 1726.42 355.001 1719.94C353.568 1719.05 352.145 1717.99 350.472 1717.83C348.295 1717.61 346.312 1718.96 344.497 1720.18C315.555 1739.65 275.029 1740.08 245.682 1721.23C233.128 1724.66 219.105 1722.22 208.438 1714.76C205.719 1718.87 200.029 1719.73 195.133 1719.21C190.237 1718.69 185.318 1717.2 180.479 1718.1C177.899 1718.57 175.499 1719.72 173.085 1720.74C155.694 1728.11 135.935 1729.76 117.566 1725.37C107.688 1723.01 98.2962 1718.99 88.9603 1714.98C85.8798 1713.66 82.8883 1709.92 79.7212 1711.01C59.1095 1718.17 56.4922 1711.02 59.1094 1702.17C61.8794 1695.47 69.4612 1691.14 76.6279 1692.15V1692.14Z" fill="#C9C9C9"/>
<path d="M314.032 1667.87C311.379 1664.57 306.904 1663.45 302.718 1662.85C299.36 1662.37 295.915 1662.1 292.598 1662.8C289.281 1663.5 286.07 1665.29 284.273 1668.17C284.041 1667.04 284.675 1665.94 285.284 1664.96C287.565 1661.3 290.052 1657.45 293.945 1655.6C296.491 1654.39 299.391 1654.17 302.211 1654.18C305.404 1654.18 308.696 1654.47 311.524 1655.95C314.353 1657.43 316.626 1660.34 316.525 1663.53C316.881 1662.62 318.022 1662.32 319.002 1662.23C325.545 1661.56 332.503 1664.1 336.515 1669.31C340.393 1674.35 341.223 1682.38 337.251 1687.62C338.682 1681.65 336.276 1679.01 332.487 1674.73C330.132 1672.07 327.51 1669.95 324.132 1668.72C322.462 1668.11 320.705 1667.74 318.933 1667.6C318.337 1667.56 314.182 1668.05 314.032 1667.87Z" fill="#C9C9C9"/>
<path d="M294.157 1680.03C291.135 1677.52 286.832 1676.64 283.072 1677.78C279.311 1678.91 276.203 1682.01 275.062 1685.77C271.208 1684.61 266.635 1685.84 264.173 1689.03C261.711 1692.22 261.798 1697.23 264.629 1700.1C262.21 1697.92 260.296 1695.06 259.721 1691.86C259.145 1688.65 260.057 1685.1 262.468 1682.91C264.879 1680.72 268.822 1680.23 271.46 1682.13C270.968 1680.01 272.934 1678.14 274.823 1677.05C278.153 1675.12 281.921 1673.95 285.755 1673.66C287.148 1673.56 288.594 1673.57 289.88 1674.12C291.354 1674.75 292.466 1676.01 293.347 1677.35C294.994 1679.85 296 1683.1 294.798 1685.84C295.712 1682.86 294.561 1679.35 292.051 1677.49L294.157 1680.03V1680.03Z" fill="#C9C9C9"/>
<path d="M225.05 1704.07C223.902 1699.77 220.473 1696.15 216.247 1694.78C212.02 1693.41 207.125 1694.33 203.677 1697.13C202.468 1694.3 199.487 1692.33 196.414 1692.33C193.341 1692.33 190.357 1694.29 189.143 1697.12C188.947 1693.48 191.335 1689.86 194.749 1688.6C198.163 1687.35 202.328 1688.57 204.53 1691.47C204.431 1690.64 205.213 1689.98 205.943 1689.56C211.697 1686.3 219.719 1687.84 223.851 1693.01C227.983 1698.19 227.729 1706.36 223.281 1711.26C224.676 1708.16 224.704 1704.48 223.355 1701.35L225.05 1704.07Z" fill="white"/>
<path d="M162.753 1692.32C161.279 1690.64 159.183 1689.61 157.027 1689.04C154.588 1688.39 151.915 1688.29 149.605 1689.3C147.294 1690.32 145.451 1692.6 145.453 1695.13C143.791 1693.06 140.593 1692.59 138.223 1693.78C135.855 1694.97 134.366 1697.57 134.142 1700.21C133.92 1702.86 134.847 1705.51 136.344 1707.7C138.098 1710.27 140.644 1712.29 143.541 1713.41C139.875 1711.55 137.523 1707.37 137.836 1703.27C137.91 1702.3 138.146 1701.29 138.808 1700.57C140.04 1699.23 142.179 1699.41 143.954 1699.82C146.466 1700.39 149.226 1701.46 150.181 1703.86C148.582 1701.21 149.822 1697.37 152.549 1695.93C155.273 1694.48 158.941 1695.42 160.869 1697.83C162.793 1700.25 162.982 1703.82 161.587 1706.58C163.743 1702.31 166.561 1696.64 162.758 1692.32H162.753Z" fill="white"/>
</g>
<g clip-path="url(#clip3_1687_49707)">
<path d="M316.06 1631.94C308.877 1628.18 290.061 1628.69 290.061 1628.69C288.089 1626.73 287.693 1621.88 286.901 1619.22C284.302 1610.49 273.54 1605.22 265.05 1608.53C265.179 1594.42 249.817 1582.43 236.158 1585.98C235.368 1582.21 231.65 1579.6 227.852 1578.91C224.055 1578.21 220.163 1579.03 216.389 1579.85C216.32 1568.23 204.165 1560.32 192.778 1558C180.926 1555.6 168.165 1556.89 157.524 1562.64C146.88 1568.39 138.6 1578.77 136.404 1590.66C123.874 1585.05 109.257 1584.25 96.1915 1588.47C86.929 1591.46 77.6665 1598.1 76.3503 1607.74C66.6379 1605.16 55.4996 1612.47 54.0267 1622.42C47.8152 1620.44 41.3283 1618.77 34.8481 1619.46C28.368 1620.15 21.8386 1623.63 19.1413 1629.57C12.8402 1628.68 6.17426 1632.48 3.73886 1638.36C1.43781 1646.14 3.73886 1652.41 21.8609 1646.13C24.6455 1645.16 27.2756 1648.45 29.9841 1649.61C38.1923 1653.13 46.4475 1656.66 55.1347 1658.74C71.2848 1662.59 88.657 1661.14 103.947 1654.67C106.072 1653.77 108.18 1652.77 110.448 1652.35C114.703 1651.56 119.028 1652.87 123.332 1653.33C127.636 1653.78 132.639 1653.03 135.03 1649.42C144.409 1655.97 156.738 1658.11 167.775 1655.1C193.58 1671.65 229.208 1671.27 254.654 1654.18C256.25 1653.11 257.994 1651.92 259.908 1652.11C261.381 1652.26 262.632 1653.19 263.89 1653.97C273.13 1659.65 286.659 1656.65 292.615 1647.58C298.746 1651.88 306.413 1653.94 313.873 1653.31C317.45 1653 321.37 1652.18 323.671 1649.43C329.142 1642.88 322.364 1635.24 316.058 1631.94L316.06 1631.94Z" fill="white"/>
<path d="M19.3886 1629.23C20.3063 1627.21 21.665 1625.48 23.3147 1624.04C22.6454 1626.13 22.4865 1628.33 23.0416 1630.47C24.3914 1635.67 31.0753 1639.22 35.5543 1636.26C37.0204 1635.29 38.2247 1633.73 39.9684 1633.49C41.1928 1633.33 42.3904 1633.87 43.4984 1634.42C46.7686 1636.02 50.1285 1637.79 53.7704 1637.88C57.4145 1637.97 61.4167 1635.76 61.9853 1632.16C62.7083 1627.58 58.3389 1624.98 54.2942 1621.97C55.8297 1612.09 66.9232 1604.83 76.5998 1607.41C77.9137 1597.77 87.1762 1591.12 96.441 1588.13C102.207 1586.27 108.275 1585.39 114.335 1585.46C114.509 1585.7 114.679 1585.95 114.838 1586.22C105.952 1586.38 97.3901 1592.02 93.7415 1600.13C90.0929 1608.23 91.5411 1618.38 97.3139 1625.14C105.151 1615.77 120.656 1614.14 130.268 1621.67C128.781 1617.47 132.844 1613.31 136.943 1611.53C141.041 1609.76 145.842 1608.88 148.703 1605.45C141.948 1603.4 138.29 1597.11 136.728 1589.96C139.026 1578.22 147.239 1567.99 157.771 1562.31C162.563 1559.72 167.783 1558.04 173.158 1557.19C166.454 1563.38 161.554 1571.55 159.568 1580.47C158.147 1586.86 158.187 1593.77 160.929 1599.71C163.671 1605.65 169.449 1610.41 175.985 1610.79C168.549 1616.65 165.605 1627.58 169.093 1636.38C172.578 1645.18 182.205 1651.13 191.64 1650.32C194.81 1650.05 198.604 1648.17 198.362 1645C204.621 1650.58 213.373 1653.82 221.545 1651.96C229.72 1650.1 236.627 1642.34 236.025 1633.98C238.772 1637.05 243.578 1638.04 247.313 1636.32C251.049 1634.6 253.415 1630.3 252.871 1626.22C256.699 1633.31 260.903 1640.77 267.963 1644.65C275.025 1648.53 285.745 1646.84 288.592 1639.31C291.918 1641.04 296.274 1640.56 299.144 1638.14C305.604 1644.36 313.293 1644.95 321.687 1645.98C322.971 1646.14 324.225 1646.32 325.434 1646.56C325.107 1647.41 324.612 1648.26 323.918 1649.09C321.617 1651.84 317.698 1652.67 314.121 1652.97C306.658 1653.61 298.994 1651.54 292.863 1647.24C286.906 1656.31 273.377 1659.32 264.137 1653.63C262.877 1652.85 261.626 1651.92 260.155 1651.78C258.241 1651.59 256.498 1652.77 254.902 1653.84C229.456 1670.94 193.825 1671.32 168.023 1654.76C156.985 1657.77 144.656 1655.64 135.277 1649.09C132.887 1652.69 127.884 1653.45 123.579 1652.99C119.275 1652.54 114.95 1651.22 110.695 1652.01C108.428 1652.43 106.317 1653.44 104.195 1654.34C88.9043 1660.81 71.5321 1662.26 55.382 1658.4C46.697 1656.33 38.4396 1652.8 30.2314 1649.28C27.5229 1648.12 24.8928 1644.83 22.1082 1645.8C3.98618 1652.08 1.68509 1645.8 3.98615 1638.03C6.42154 1632.15 13.0875 1628.34 19.3886 1629.23V1629.23Z" fill="#C9C9C9"/>
<path d="M228.116 1607.91C225.784 1605.02 221.849 1604.03 218.169 1603.51C215.216 1603.08 212.188 1602.85 209.271 1603.47C206.354 1604.08 203.532 1605.65 201.952 1608.18C201.748 1607.19 202.305 1606.22 202.84 1605.36C204.846 1602.15 207.033 1598.77 210.455 1597.15C212.694 1596.08 215.243 1595.89 217.723 1595.89C220.53 1595.89 223.424 1596.15 225.911 1597.45C228.398 1598.75 230.397 1601.3 230.308 1604.11C230.621 1603.3 231.624 1603.04 232.485 1602.96C238.238 1602.38 244.356 1604.6 247.883 1609.18C251.293 1613.6 252.022 1620.65 248.53 1625.26C249.788 1620.01 247.673 1617.7 244.342 1613.94C242.272 1611.6 239.966 1609.74 236.996 1608.66C235.527 1608.13 233.983 1607.8 232.425 1607.68C231.901 1607.64 228.248 1608.08 228.116 1607.91Z" fill="#C9C9C9"/>
<path d="M210.642 1618.59C207.985 1616.39 204.202 1615.62 200.896 1616.61C197.59 1617.61 194.856 1620.33 193.854 1623.63C190.465 1622.61 186.445 1623.69 184.28 1626.49C182.116 1629.29 182.192 1633.7 184.681 1636.21C182.554 1634.3 180.871 1631.79 180.365 1628.97C179.859 1626.16 180.661 1623.04 182.78 1621.12C184.9 1619.19 188.367 1618.76 190.686 1620.44C190.254 1618.57 191.982 1616.93 193.643 1615.97C196.571 1614.28 199.884 1613.26 203.255 1613C204.479 1612.91 205.751 1612.92 206.881 1613.4C208.177 1613.95 209.155 1615.06 209.93 1616.23C211.378 1618.43 212.262 1621.28 211.206 1623.7C212.009 1621.07 210.998 1617.99 208.791 1616.36L210.642 1618.59V1618.59Z" fill="#C9C9C9"/>
<path d="M149.882 1639.7C148.872 1635.92 145.857 1632.75 142.141 1631.55C138.426 1630.34 134.121 1631.15 131.09 1633.61C130.027 1631.13 127.406 1629.4 124.704 1629.39C122.003 1629.39 119.379 1631.12 118.311 1633.6C118.139 1630.4 120.239 1627.22 123.24 1626.12C126.242 1625.02 129.904 1626.09 131.84 1628.64C131.753 1627.9 132.44 1627.33 133.083 1626.96C138.141 1624.1 145.195 1625.45 148.827 1629.99C152.46 1634.53 152.237 1641.71 148.326 1646.02C149.553 1643.29 149.577 1640.06 148.391 1637.31L149.882 1639.7Z" fill="white"/>
<path d="M95.1084 1629.38C93.8123 1627.91 91.9701 1627.01 90.0742 1626.5C87.9298 1625.93 85.5795 1625.84 83.5493 1626.73C81.5168 1627.62 79.8962 1629.63 79.8984 1631.85C78.4368 1630.04 75.6253 1629.62 73.5414 1630.66C71.4597 1631.71 70.1502 1633.99 69.9533 1636.31C69.7585 1638.63 70.5733 1640.96 71.8895 1642.89C73.4317 1645.14 75.6701 1646.91 78.2174 1647.9C74.9941 1646.27 72.9259 1642.6 73.2012 1639C73.2661 1638.14 73.4742 1637.25 74.0562 1636.62C75.1396 1635.45 77.0199 1635.61 78.58 1635.96C80.7893 1636.47 83.2158 1637.41 84.0552 1639.51C82.6495 1637.19 83.7395 1633.82 86.1369 1632.55C88.5319 1631.28 91.7575 1632.11 93.452 1634.22C95.1442 1636.34 95.3098 1639.48 94.0832 1641.9C95.9791 1638.15 98.457 1633.18 95.1128 1629.38H95.1084Z" fill="white"/>
</g>
<g clip-path="url(#clip4_1687_49707)">
<path d="M368.95 1564.24C366.245 1562.8 359.161 1563 359.161 1563C358.419 1562.25 358.27 1560.4 357.971 1559.38C356.993 1556.04 352.941 1554.03 349.745 1555.29C349.794 1549.9 344.01 1545.32 338.868 1546.68C338.57 1545.23 337.17 1544.24 335.74 1543.97C334.311 1543.7 332.845 1544.02 331.425 1544.33C331.398 1539.89 326.822 1536.86 322.536 1535.98C318.073 1535.06 313.269 1535.56 309.263 1537.75C305.255 1539.95 302.138 1543.92 301.311 1548.46C296.594 1546.32 291.091 1546.01 286.172 1547.63C282.685 1548.77 279.198 1551.31 278.702 1554.99C275.045 1554 270.852 1556.8 270.297 1560.6C267.959 1559.85 265.517 1559.21 263.077 1559.47C260.637 1559.73 258.179 1561.07 257.164 1563.33C254.791 1562.99 252.282 1564.45 251.365 1566.7C250.498 1569.67 251.365 1572.07 258.188 1569.66C259.236 1569.3 260.226 1570.55 261.246 1571C264.336 1572.34 267.444 1573.69 270.715 1574.48C276.795 1575.96 283.335 1575.4 289.092 1572.93C289.892 1572.59 290.686 1572.2 291.539 1572.04C293.141 1571.74 294.769 1572.24 296.39 1572.42C298.011 1572.59 299.894 1572.3 300.794 1570.92C304.325 1573.43 308.967 1574.24 313.122 1573.09C322.837 1579.42 336.251 1579.28 345.831 1572.74C346.432 1572.33 347.088 1571.88 347.809 1571.95C348.363 1572.01 348.834 1572.36 349.308 1572.66C352.787 1574.83 357.88 1573.69 360.123 1570.22C362.431 1571.86 365.317 1572.65 368.126 1572.41C369.473 1572.29 370.948 1571.98 371.815 1570.93C373.874 1568.42 371.323 1565.5 368.949 1564.24L368.95 1564.24Z" fill="white"/>
<path d="M257.257 1563.21C257.602 1562.44 258.114 1561.77 258.735 1561.22C258.483 1562.02 258.423 1562.86 258.632 1563.68C259.14 1565.67 261.657 1567.03 263.343 1565.89C263.895 1565.52 264.348 1564.93 265.005 1564.84C265.466 1564.77 265.917 1564.98 266.334 1565.19C267.565 1565.8 268.83 1566.48 270.201 1566.51C271.573 1566.55 273.08 1565.7 273.294 1564.33C273.566 1562.57 271.921 1561.58 270.398 1560.43C270.976 1556.65 275.153 1553.88 278.796 1554.87C279.291 1551.18 282.778 1548.64 286.266 1547.5C288.437 1546.79 290.721 1546.45 293.003 1546.48C293.068 1546.57 293.132 1546.66 293.192 1546.77C289.847 1546.83 286.623 1548.98 285.25 1552.08C283.876 1555.18 284.421 1559.06 286.595 1561.64C289.545 1558.06 295.383 1557.44 299.001 1560.32C298.442 1558.71 299.971 1557.12 301.514 1556.44C303.057 1555.76 304.865 1555.43 305.942 1554.12C303.399 1553.33 302.022 1550.93 301.433 1548.19C302.299 1543.71 305.391 1539.8 309.356 1537.63C311.16 1536.64 313.125 1535.99 315.149 1535.67C312.625 1538.04 310.78 1541.16 310.033 1544.57C309.497 1547.01 309.513 1549.65 310.545 1551.92C311.577 1554.19 313.752 1556.01 316.213 1556.16C313.414 1558.4 312.305 1562.57 313.618 1565.94C314.93 1569.3 318.555 1571.58 322.107 1571.27C323.3 1571.16 324.729 1570.45 324.638 1569.23C326.994 1571.37 330.289 1572.6 333.366 1571.89C336.444 1571.18 339.044 1568.22 338.818 1565.02C339.852 1566.19 341.661 1566.57 343.067 1565.91C344.474 1565.26 345.365 1563.61 345.16 1562.06C346.601 1564.77 348.184 1567.62 350.842 1569.1C353.5 1570.58 357.536 1569.94 358.608 1567.06C359.86 1567.72 361.5 1567.54 362.581 1566.61C365.013 1568.99 367.908 1569.21 371.068 1569.61C371.552 1569.67 372.023 1569.74 372.479 1569.83C372.355 1570.16 372.169 1570.48 371.908 1570.8C371.042 1571.85 369.566 1572.16 368.219 1572.28C365.41 1572.52 362.524 1571.73 360.216 1570.09C357.974 1573.56 352.88 1574.71 349.401 1572.53C348.927 1572.24 348.456 1571.88 347.902 1571.82C347.182 1571.75 346.525 1572.2 345.924 1572.61C336.344 1579.15 322.93 1579.29 313.215 1572.97C309.06 1574.12 304.418 1573.3 300.887 1570.8C299.987 1572.17 298.104 1572.46 296.483 1572.29C294.863 1572.12 293.234 1571.61 291.632 1571.91C290.779 1572.08 289.984 1572.46 289.185 1572.8C283.429 1575.28 276.888 1575.83 270.808 1574.36C267.538 1573.57 264.429 1572.21 261.339 1570.87C260.319 1570.43 259.329 1569.17 258.281 1569.54C251.458 1571.94 250.592 1569.54 251.458 1566.57C252.375 1564.32 254.885 1562.87 257.257 1563.21V1563.21Z" fill="#C9C9C9"/>
<path d="M335.841 1555.06C334.963 1553.95 333.481 1553.57 332.096 1553.37C330.984 1553.21 329.844 1553.12 328.746 1553.36C327.648 1553.59 326.585 1554.19 325.99 1555.16C325.914 1554.78 326.123 1554.41 326.325 1554.08C327.08 1552.85 327.903 1551.56 329.192 1550.94C330.034 1550.54 330.994 1550.46 331.928 1550.46C332.985 1550.46 334.075 1550.56 335.011 1551.06C335.947 1551.55 336.7 1552.53 336.666 1553.6C336.784 1553.3 337.161 1553.2 337.486 1553.16C339.652 1552.94 341.955 1553.79 343.283 1555.54C344.566 1557.23 344.841 1559.93 343.527 1561.69C344 1559.68 343.204 1558.8 341.95 1557.36C341.17 1556.47 340.302 1555.76 339.184 1555.34C338.631 1555.14 338.05 1555.01 337.463 1554.97C337.266 1554.95 335.891 1555.12 335.841 1555.06Z" fill="#C9C9C9"/>
<path d="M329.261 1559.14C328.261 1558.3 326.837 1558 325.592 1558.38C324.347 1558.76 323.318 1559.8 322.941 1561.07C321.665 1560.68 320.151 1561.09 319.337 1562.16C318.522 1563.23 318.55 1564.91 319.487 1565.88C318.687 1565.14 318.053 1564.18 317.863 1563.11C317.672 1562.03 317.974 1560.84 318.772 1560.1C319.57 1559.37 320.875 1559.2 321.748 1559.85C321.586 1559.13 322.236 1558.51 322.862 1558.14C323.964 1557.49 325.211 1557.1 326.48 1557C326.941 1556.97 327.42 1556.97 327.846 1557.16C328.333 1557.37 328.702 1557.79 328.993 1558.24C329.539 1559.08 329.871 1560.17 329.474 1561.09C329.776 1560.09 329.395 1558.91 328.564 1558.29L329.261 1559.14V1559.14Z" fill="#C9C9C9"/>
<path d="M306.387 1567.21C306.007 1565.76 304.872 1564.55 303.473 1564.09C302.074 1563.63 300.453 1563.94 299.312 1564.88C298.912 1563.93 297.925 1563.27 296.908 1563.27C295.891 1563.27 294.903 1563.93 294.501 1564.88C294.436 1563.65 295.227 1562.44 296.357 1562.02C297.487 1561.6 298.865 1562.01 299.594 1562.98C299.562 1562.7 299.82 1562.48 300.062 1562.34C301.967 1561.24 304.622 1561.76 305.99 1563.5C307.358 1565.23 307.273 1567.98 305.801 1569.62C306.263 1568.58 306.272 1567.34 305.825 1566.3L306.387 1567.21Z" fill="white"/>
<path d="M285.765 1563.26C285.277 1562.7 284.583 1562.35 283.87 1562.16C283.062 1561.94 282.178 1561.91 281.413 1562.25C280.648 1562.59 280.038 1563.36 280.039 1564.21C279.488 1563.51 278.43 1563.35 277.645 1563.75C276.862 1564.15 276.369 1565.02 276.294 1565.91C276.221 1566.8 276.528 1567.69 277.023 1568.43C277.604 1569.29 278.447 1569.96 279.406 1570.34C278.192 1569.72 277.414 1568.32 277.517 1566.94C277.542 1566.61 277.62 1566.27 277.839 1566.03C278.247 1565.58 278.955 1565.64 279.542 1565.78C280.374 1565.97 281.288 1566.33 281.604 1567.14C281.074 1566.25 281.485 1564.96 282.387 1564.47C283.289 1563.99 284.503 1564.3 285.141 1565.11C285.778 1565.92 285.841 1567.12 285.379 1568.05C286.093 1566.62 287.026 1564.71 285.767 1563.26H285.765Z" fill="white"/>
</g>
</g>
<g opacity="0.05">
<g clip-path="url(#clip5_1687_49707)">
<path d="M13.9425 799.689C22.1124 795.404 43.5134 795.988 43.5134 795.988C45.7564 793.76 46.207 788.234 47.1082 785.201C50.0641 775.258 62.3048 769.26 71.9615 773.025C71.8139 756.955 89.2865 743.3 104.822 747.348C105.72 743.046 109.949 740.081 114.27 739.289C118.587 738.496 123.015 739.429 127.307 740.356C127.386 727.123 141.211 718.115 154.162 715.48C167.642 712.737 182.157 714.215 194.26 720.761C206.366 727.306 215.783 739.13 218.281 752.675C232.533 746.285 249.158 745.378 264.018 750.18C274.553 753.585 285.088 761.15 286.585 772.133C297.632 769.184 310.3 777.521 311.976 788.843C319.04 786.595 326.419 784.689 333.789 785.474C341.159 786.259 348.586 790.23 351.654 796.987C358.82 795.977 366.402 800.311 369.172 807.006C371.789 815.861 369.172 823.008 348.56 815.853C345.393 814.755 342.402 818.497 339.321 819.819C329.985 823.826 320.596 827.853 310.715 830.214C292.346 834.603 272.588 832.954 255.196 825.58C252.78 824.555 250.382 823.416 247.803 822.934C242.963 822.034 238.045 823.533 233.149 824.053C228.253 824.573 222.563 823.709 219.844 819.603C209.176 827.063 195.153 829.5 182.6 826.072C153.25 844.923 112.727 844.492 83.7848 825.022C81.9695 823.801 79.9863 822.452 77.8095 822.666C76.1343 822.832 74.7111 823.898 73.2803 824.779C62.7707 831.259 47.3832 827.833 40.6085 817.505C33.6352 822.401 24.9155 824.754 16.4299 824.028C12.3615 823.681 7.90363 822.745 5.28642 819.61C-0.935806 812.158 6.77324 803.453 13.9451 799.691L13.9425 799.689Z" fill="white"/>
<path d="M351.374 796.602C350.33 794.308 348.785 792.335 346.908 790.696C347.67 793.072 347.85 795.577 347.219 798.014C345.684 803.935 338.082 807.988 332.987 804.61C331.32 803.504 329.95 801.728 327.967 801.46C326.574 801.271 325.212 801.893 323.952 802.513C320.232 804.343 316.411 806.351 312.269 806.453C308.124 806.555 303.572 804.045 302.925 799.946C302.103 794.723 307.073 791.759 311.673 788.341C309.926 777.08 297.309 768.812 286.303 771.751C284.808 760.768 274.273 753.203 263.736 749.797C257.178 747.677 250.276 746.673 243.384 746.757C243.185 747.029 242.992 747.312 242.811 747.616C252.918 747.799 262.656 754.227 266.806 763.457C270.956 772.686 269.309 784.245 262.743 791.943C253.83 781.271 236.194 779.415 225.262 788C226.952 783.205 222.332 778.467 217.67 776.446C213.008 774.424 207.547 773.423 204.294 769.518C211.977 767.181 216.137 760.016 217.914 751.875C215.3 738.506 205.959 726.858 193.98 720.381C188.529 717.435 182.592 715.518 176.48 714.547C184.105 721.607 189.678 730.91 191.936 741.068C193.552 748.345 193.507 756.213 190.388 762.98C187.269 769.75 180.698 775.171 173.264 775.599C181.722 782.277 185.069 794.721 181.103 804.748C177.139 814.775 166.189 821.553 155.458 820.627C151.853 820.316 147.538 818.178 147.812 814.566C140.694 820.918 130.74 824.611 121.444 822.493C112.147 820.375 104.29 811.538 104.975 802.018C101.851 805.508 96.3849 806.639 92.1358 804.677C87.8867 802.717 85.1956 797.82 85.8143 793.176C81.4608 801.251 76.6795 809.746 68.6497 814.169C60.6173 818.591 48.4249 816.667 45.1865 808.082C41.4033 810.06 36.4489 809.512 33.185 806.754C25.8375 813.842 17.0923 814.505 7.54507 815.685C6.08371 815.866 4.658 816.065 3.2832 816.343C3.65491 817.316 4.21756 818.282 5.00679 819.228C7.624 822.363 12.0819 823.299 16.1503 823.645C24.6384 824.372 33.3556 822.019 40.3289 817.123C47.1036 827.453 62.4911 830.879 73.0007 824.397C74.434 823.513 75.8572 822.447 77.5299 822.284C79.7066 822.07 81.6899 823.416 83.5051 824.639C112.447 844.11 152.973 844.543 182.32 825.689C194.874 829.118 208.897 826.681 219.564 819.22C222.283 823.329 227.973 824.191 232.869 823.673C237.765 823.153 242.684 821.655 247.523 822.554C250.102 823.034 252.503 824.175 254.917 825.2C272.308 832.574 292.067 834.223 310.436 829.834C320.314 827.474 329.706 823.446 339.042 819.44C342.122 818.117 345.114 814.375 348.281 815.474C368.892 822.626 371.51 815.481 368.893 806.624C366.123 799.931 358.541 795.595 351.374 796.605V796.602Z" fill="#C9C9C9"/>
<path d="M113.97 772.327C116.623 769.032 121.098 767.908 125.284 767.309C128.642 766.827 132.087 766.557 135.404 767.26C138.721 767.964 141.932 769.748 143.729 772.628C143.961 771.501 143.327 770.395 142.718 769.419C140.437 765.759 137.95 761.913 134.057 760.062C131.511 758.851 128.611 758.632 125.791 758.635C122.598 758.635 119.306 758.925 116.478 760.406C113.649 761.887 111.376 764.798 111.477 767.992C111.121 767.074 109.98 766.781 109 766.684C102.457 766.021 95.4992 768.555 91.4868 773.77C87.6094 778.809 86.7794 786.838 90.7511 792.083C89.3203 786.109 91.7262 783.471 95.5145 779.189C97.8695 776.528 100.492 774.405 103.87 773.176C105.54 772.569 107.297 772.195 109.069 772.062C109.665 772.019 113.82 772.513 113.97 772.327Z" fill="#C9C9C9"/>
<path d="M133.845 784.488C136.867 781.977 141.17 781.103 144.93 782.235C148.691 783.367 151.799 786.468 152.94 790.233C156.794 789.066 161.367 790.297 163.829 793.488C166.291 796.679 166.204 801.693 163.373 804.56C165.791 802.381 167.706 799.524 168.281 796.315C168.857 793.108 167.945 789.555 165.534 787.366C163.123 785.176 159.18 784.684 156.542 786.593C157.034 784.465 155.068 782.599 153.179 781.506C149.849 779.579 146.081 778.412 142.247 778.121C140.854 778.016 139.408 778.032 138.122 778.577C136.648 779.204 135.536 780.466 134.655 781.804C133.008 784.307 132.002 787.557 133.204 790.302C132.29 787.315 133.441 783.807 135.951 781.947L133.845 784.485V784.488Z" fill="#C9C9C9"/>
<path d="M202.951 808.525C204.1 804.228 207.529 800.614 211.755 799.242C215.982 797.871 220.877 798.786 224.324 801.59C225.534 798.763 228.515 796.793 231.588 796.79C234.661 796.79 237.645 798.753 238.859 801.58C239.055 797.942 236.667 794.315 233.253 793.061C229.839 791.807 225.674 793.028 223.472 795.929C223.571 795.095 222.789 794.438 222.059 794.022C216.305 790.757 208.283 792.302 204.151 797.473C200.019 802.645 200.273 810.819 204.721 815.723C203.326 812.624 203.298 808.936 204.647 805.813L202.951 808.525Z" fill="white"/>
<path d="M265.249 796.778C266.723 795.101 268.819 794.071 270.975 793.495C273.414 792.845 276.087 792.746 278.396 793.76C280.708 794.775 282.551 797.064 282.549 799.589C284.211 797.522 287.409 797.048 289.779 798.239C292.147 799.431 293.636 802.026 293.86 804.672C294.082 807.318 293.155 809.971 291.658 812.16C289.904 814.73 287.358 816.746 284.461 817.865C288.127 816.012 290.479 811.832 290.166 807.733C290.092 806.759 289.856 805.745 289.194 805.026C287.962 803.688 285.823 803.869 284.048 804.274C281.536 804.848 278.776 805.918 277.821 808.317C279.42 805.674 278.18 801.832 275.453 800.385C272.729 798.937 269.061 799.88 267.133 802.294C265.209 804.707 265.02 808.278 266.415 811.036C264.259 806.77 261.441 801.103 265.244 796.778H265.249Z" fill="white"/>
</g>
<g clip-path="url(#clip6_1687_49707)">
<path d="M111.942 736.396C119.125 732.634 137.941 733.147 137.941 733.147C139.913 731.191 140.309 726.339 141.101 723.676C143.7 714.947 154.462 709.681 162.952 712.986C162.823 698.877 178.185 686.889 191.843 690.443C192.634 686.665 196.352 684.063 200.15 683.367C203.946 682.671 207.839 683.49 211.613 684.305C211.682 672.686 223.837 664.777 235.224 662.464C247.076 660.056 259.837 661.354 270.478 667.1C281.122 672.847 289.402 683.228 291.598 695.12C304.128 689.51 318.745 688.713 331.811 692.929C341.073 695.919 350.335 702.561 351.652 712.203C361.364 709.614 372.502 716.934 373.975 726.874C380.187 724.9 386.674 723.227 393.154 723.916C399.634 724.605 406.163 728.092 408.861 734.024C415.162 733.138 421.828 736.942 424.263 742.821C426.564 750.595 424.263 756.87 406.141 750.588C403.356 749.624 400.726 752.909 398.018 754.07C389.81 757.588 381.554 761.124 372.867 763.196C356.717 767.05 339.345 765.602 324.054 759.128C321.93 758.228 319.822 757.228 317.554 756.805C313.299 756.015 308.974 757.331 304.67 757.787C300.365 758.244 295.363 757.485 292.972 753.88C283.593 760.43 271.264 762.569 260.227 759.56C234.422 776.11 198.794 775.732 173.348 758.638C171.752 757.566 170.008 756.382 168.094 756.57C166.621 756.715 165.37 757.651 164.112 758.425C154.872 764.114 141.343 761.106 135.387 752.038C129.256 756.337 121.589 758.403 114.128 757.765C110.552 757.461 106.632 756.639 104.331 753.887C98.8604 747.343 105.638 739.701 111.944 736.398L111.942 736.396Z" fill="white"/>
<path d="M408.613 733.686C407.696 731.672 406.337 729.94 404.687 728.501C405.357 730.587 405.515 732.787 404.96 734.926C403.611 740.124 396.927 743.682 392.448 740.717C390.982 739.746 389.777 738.186 388.034 737.951C386.809 737.786 385.612 738.332 384.504 738.876C381.233 740.482 377.873 742.246 374.232 742.335C370.587 742.425 366.585 740.221 366.017 736.622C365.294 732.037 369.663 729.434 373.708 726.433C372.172 716.547 361.079 709.287 351.402 711.868C350.088 702.225 340.826 695.583 331.561 692.593C325.795 690.731 319.727 689.85 313.667 689.924C313.493 690.163 313.323 690.411 313.164 690.678C322.05 690.839 330.612 696.483 334.26 704.586C337.909 712.689 336.461 722.837 330.688 729.595C322.851 720.226 307.346 718.597 297.734 726.134C299.221 721.924 295.158 717.764 291.059 715.99C286.961 714.215 282.16 713.336 279.299 709.907C286.054 707.855 289.712 701.565 291.274 694.417C288.975 682.68 280.763 672.453 270.231 666.767C265.439 664.18 260.219 662.497 254.844 661.645C261.548 667.843 266.448 676.011 268.434 684.929C269.855 691.318 269.815 698.226 267.073 704.167C264.331 710.111 258.553 714.871 252.017 715.247C259.453 721.11 262.397 732.035 258.909 740.838C255.424 749.642 245.797 755.592 236.362 754.78C233.192 754.507 229.398 752.629 229.64 749.458C223.381 755.035 214.629 758.277 206.457 756.418C198.282 754.558 191.375 746.8 191.977 738.441C189.23 741.505 184.424 742.499 180.688 740.775C176.953 739.055 174.587 734.756 175.131 730.679C171.303 737.768 167.099 745.226 160.039 749.109C152.977 752.992 142.257 751.302 139.41 743.765C136.084 745.502 131.728 745.021 128.858 742.599C122.398 748.823 114.709 749.404 106.315 750.441C105.031 750.599 103.777 750.774 102.568 751.018C102.895 751.873 103.39 752.721 104.084 753.551C106.385 756.304 110.304 757.125 113.881 757.429C121.344 758.067 129.008 756.002 135.139 751.703C141.096 760.772 154.625 763.78 163.865 758.089C165.125 757.313 166.376 756.377 167.847 756.234C169.761 756.046 171.504 757.228 173.1 758.302C198.546 775.397 234.177 775.777 259.979 759.224C271.017 762.234 283.346 760.094 292.725 753.544C295.115 757.152 300.118 757.908 304.423 757.454C308.727 756.997 313.052 755.681 317.307 756.471C319.574 756.892 321.685 757.895 323.807 758.794C339.098 765.268 356.47 766.716 372.62 762.863C381.305 760.79 389.562 757.255 397.771 753.737C400.479 752.575 403.109 749.29 405.894 750.255C424.016 756.534 426.317 750.262 424.016 742.485C421.58 736.609 414.914 732.802 408.613 733.688V733.686Z" fill="#C9C9C9"/>
<path d="M199.886 712.373C202.218 709.48 206.153 708.493 209.833 707.967C212.786 707.544 215.814 707.307 218.731 707.924C221.648 708.542 224.47 710.108 226.05 712.637C226.254 711.648 225.697 710.677 225.162 709.82C223.156 706.606 220.969 703.229 217.547 701.605C215.308 700.542 212.759 700.349 210.279 700.352C207.472 700.352 204.577 700.607 202.091 701.907C199.604 703.207 197.605 705.763 197.694 708.567C197.381 707.761 196.378 707.504 195.516 707.419C189.764 706.837 183.646 709.061 180.119 713.64C176.709 718.064 175.98 725.113 179.472 729.718C178.214 724.473 180.329 722.157 183.66 718.397C185.73 716.061 188.036 714.197 191.006 713.118C192.474 712.586 194.019 712.257 195.577 712.14C196.101 712.102 199.754 712.536 199.886 712.373Z" fill="#C9C9C9"/>
<path d="M217.36 723.05C220.017 720.845 223.8 720.078 227.106 721.071C230.412 722.065 233.145 724.788 234.148 728.094C237.537 727.069 241.557 728.15 243.722 730.951C245.886 733.753 245.81 738.155 243.321 740.672C245.448 738.759 247.131 736.25 247.637 733.433C248.143 730.618 247.341 727.498 245.222 725.576C243.102 723.654 239.635 723.222 237.316 724.898C237.748 723.029 236.02 721.391 234.359 720.431C231.431 718.74 228.118 717.715 224.747 717.46C223.523 717.368 222.251 717.381 221.121 717.86C219.825 718.411 218.847 719.518 218.072 720.693C216.624 722.891 215.74 725.744 216.796 728.154C215.993 725.531 217.004 722.452 219.211 720.818L217.36 723.047V723.05Z" fill="#C9C9C9"/>
<path d="M278.12 744.155C279.13 740.382 282.145 737.209 285.861 736.005C289.576 734.801 293.881 735.604 296.912 738.066C297.975 735.584 300.596 733.854 303.298 733.852C305.999 733.852 308.623 735.575 309.691 738.057C309.863 734.864 307.763 731.679 304.762 730.578C301.76 729.477 298.098 730.549 296.162 733.096C296.249 732.364 295.562 731.787 294.919 731.422C289.861 728.555 282.807 729.911 279.174 734.452C275.542 738.992 275.765 746.169 279.676 750.475C278.449 747.753 278.425 744.515 279.611 741.774L278.12 744.155Z" fill="white"/>
<path d="M332.894 733.841C334.19 732.368 336.032 731.464 337.928 730.958C340.072 730.388 342.422 730.3 344.453 731.191C346.485 732.082 348.106 734.091 348.104 736.309C349.565 734.494 352.377 734.078 354.461 735.123C356.542 736.17 357.852 738.448 358.049 740.771C358.243 743.094 357.429 745.424 356.113 747.346C354.57 749.602 352.332 751.372 349.785 752.354C353.008 750.727 355.076 747.057 354.801 743.459C354.736 742.604 354.528 741.713 353.946 741.082C352.862 739.907 350.982 740.066 349.422 740.422C347.213 740.926 344.786 741.865 343.947 743.971C345.353 741.651 344.262 738.278 341.865 737.007C339.47 735.736 336.244 736.564 334.55 738.683C332.858 740.802 332.692 743.938 333.919 746.359C332.023 742.613 329.545 737.638 332.889 733.841H332.894Z" fill="white"/>
</g>
<g clip-path="url(#clip7_1687_49707)">
<path d="M59.0524 668.699C61.7568 667.261 68.8407 667.457 68.8407 667.457C69.5831 666.71 69.7323 664.855 70.0306 663.837C71.009 660.5 75.0609 658.488 78.2573 659.751C78.2085 654.358 83.9921 649.776 89.1344 651.134C89.4319 649.69 90.8316 648.695 92.2617 648.429C93.691 648.163 95.1565 648.476 96.5774 648.788C96.6035 644.347 101.179 641.324 105.466 640.439C109.929 639.519 114.733 640.015 118.739 642.212C122.747 644.408 125.864 648.376 126.69 652.922C131.408 650.777 136.911 650.473 141.83 652.084C145.317 653.227 148.804 655.766 149.3 659.452C152.957 658.462 157.15 661.26 157.704 665.06C160.043 664.305 162.485 663.665 164.925 663.929C167.365 664.192 169.823 665.525 170.838 667.792C173.211 667.454 175.72 668.908 176.637 671.155C177.503 674.127 176.637 676.525 169.814 674.124C168.766 673.755 167.776 675.011 166.756 675.455C163.666 676.8 160.558 678.151 157.287 678.943C151.207 680.416 144.667 679.863 138.91 677.388C138.11 677.044 137.316 676.662 136.463 676.5C134.861 676.198 133.233 676.701 131.612 676.876C129.991 677.05 128.108 676.76 127.208 675.382C123.677 677.886 119.035 678.704 114.88 677.553C105.165 683.88 91.7511 683.735 82.1709 677.201C81.5701 676.791 80.9136 676.339 80.1931 676.41C79.6386 676.466 79.1675 676.824 78.6939 677.119C75.2151 679.294 70.1217 678.144 67.8792 674.678C65.5709 676.321 62.6846 677.111 59.8758 676.867C58.5291 676.751 57.0535 676.437 56.1872 675.385C54.1276 672.884 56.6793 669.963 59.0533 668.7L59.0524 668.699Z" fill="white"/>
<path d="M170.745 667.664C170.4 666.894 169.888 666.232 169.267 665.682C169.519 666.479 169.579 667.32 169.37 668.138C168.862 670.125 166.345 671.485 164.659 670.352C164.107 669.98 163.654 669.384 162.997 669.294C162.536 669.231 162.085 669.44 161.668 669.648C160.437 670.262 159.172 670.936 157.801 670.97C156.429 671.004 154.922 670.162 154.708 668.786C154.436 667.034 156.081 666.039 157.604 664.892C157.026 661.113 152.849 658.338 149.206 659.324C148.711 655.638 145.224 653.1 141.736 651.957C139.565 651.245 137.28 650.908 134.999 650.936C134.934 651.028 134.869 651.123 134.81 651.225C138.155 651.286 141.379 653.443 142.752 656.541C144.126 659.638 143.581 663.517 141.407 666.1C138.457 662.519 132.619 661.896 129.001 664.777C129.56 663.168 128.031 661.578 126.488 660.9C124.945 660.221 123.137 659.885 122.06 658.575C124.603 657.79 125.98 655.386 126.569 652.654C125.703 648.167 122.611 644.258 118.646 642.085C116.842 641.096 114.877 640.453 112.853 640.127C115.377 642.496 117.222 645.618 117.969 649.027C118.505 651.469 118.489 654.11 117.457 656.381C116.425 658.653 114.25 660.472 111.789 660.616C114.588 662.857 115.697 667.033 114.384 670.398C113.072 673.763 109.447 676.037 105.895 675.727C104.702 675.623 103.273 674.905 103.364 673.693C101.008 675.824 97.7128 677.064 94.636 676.353C91.5584 675.642 88.9577 672.677 89.1844 669.482C88.1504 670.653 86.3411 671.033 84.9346 670.374C83.5281 669.716 82.6373 668.073 82.8421 666.514C81.401 669.224 79.8184 672.075 77.1604 673.559C74.5016 675.043 70.4658 674.398 69.3939 671.517C68.1416 672.18 66.5016 671.997 65.4213 671.071C62.9891 673.45 60.0944 673.672 56.9342 674.068C56.4504 674.129 55.9785 674.196 55.5234 674.289C55.6465 674.616 55.8327 674.94 56.094 675.257C56.9603 676.309 58.4359 676.623 59.7826 676.74C62.5922 676.983 65.4777 676.194 67.7859 674.551C70.0284 678.018 75.1219 679.167 78.6006 676.992C79.0751 676.695 79.5462 676.338 80.0999 676.283C80.8204 676.211 81.4769 676.663 82.0777 677.073C91.6578 683.607 105.072 683.753 114.786 677.426C118.942 678.576 123.584 677.758 127.115 675.255C128.015 676.634 129.898 676.923 131.519 676.749C133.139 676.575 134.767 676.072 136.37 676.374C137.223 676.534 138.018 676.918 138.817 677.261C144.573 679.736 151.114 680.289 157.194 678.816C160.464 678.024 163.573 676.673 166.663 675.328C167.683 674.884 168.673 673.629 169.721 673.997C176.544 676.397 177.41 674 176.544 671.027C175.627 668.781 173.117 667.326 170.745 667.665V667.664Z" fill="#C9C9C9"/>
<path d="M92.1611 659.517C93.0392 658.411 94.5207 658.034 95.9062 657.833C97.0177 657.671 98.1579 657.58 99.256 657.816C100.354 658.053 101.417 658.651 102.012 659.618C102.088 659.24 101.879 658.869 101.677 658.541C100.922 657.313 100.099 656.022 98.8102 655.401C97.9675 654.995 97.0076 654.921 96.0739 654.922C95.0171 654.922 93.9274 655.019 92.9912 655.516C92.0549 656.013 91.3023 656.99 91.3361 658.062C91.2181 657.754 90.8405 657.656 90.5161 657.623C88.3503 657.401 86.0471 658.251 84.719 660.001C83.4355 661.692 83.1608 664.387 84.4754 666.147C84.0018 664.142 84.7982 663.257 86.0522 661.82C86.8317 660.927 87.6997 660.214 88.818 659.802C89.3708 659.598 89.9523 659.472 90.5388 659.428C90.736 659.413 92.1114 659.579 92.1611 659.517Z" fill="#C9C9C9"/>
<path d="M98.7406 663.598C99.741 662.756 101.165 662.462 102.41 662.842C103.655 663.222 104.684 664.263 105.061 665.526C106.337 665.134 107.851 665.547 108.665 666.618C109.48 667.689 109.452 669.372 108.515 670.334C109.315 669.603 109.949 668.644 110.139 667.567C110.33 666.491 110.028 665.299 109.23 664.564C108.432 663.829 107.127 663.664 106.254 664.305C106.416 663.59 105.766 662.964 105.14 662.597C104.038 661.951 102.791 661.559 101.522 661.461C101.061 661.426 100.582 661.431 100.156 661.614C99.6685 661.825 99.3002 662.248 99.0086 662.697C98.4634 663.537 98.1305 664.628 98.5283 665.549C98.2257 664.547 98.6066 663.37 99.4376 662.745L98.7406 663.597V663.598Z" fill="#C9C9C9"/>
<path d="M121.615 671.665C121.995 670.223 123.13 669.01 124.529 668.55C125.928 668.09 127.549 668.397 128.69 669.338C129.09 668.389 130.077 667.728 131.094 667.727C132.111 667.727 133.099 668.386 133.501 669.334C133.566 668.114 132.775 666.896 131.645 666.476C130.515 666.055 129.137 666.465 128.408 667.438C128.44 667.158 128.182 666.938 127.94 666.798C126.035 665.702 123.38 666.221 122.012 667.956C120.644 669.692 120.729 672.435 122.201 674.081C121.739 673.041 121.73 671.803 122.176 670.755L121.615 671.665Z" fill="white"/>
<path d="M142.237 667.722C142.725 667.159 143.418 666.814 144.132 666.621C144.94 666.402 145.824 666.369 146.589 666.71C147.354 667.05 147.964 667.818 147.963 668.666C148.514 667.972 149.572 667.813 150.357 668.212C151.14 668.613 151.633 669.484 151.708 670.371C151.781 671.259 151.474 672.15 150.979 672.885C150.398 673.747 149.555 674.423 148.596 674.799C149.81 674.177 150.588 672.774 150.485 671.399C150.46 671.072 150.382 670.732 150.163 670.49C149.755 670.041 149.047 670.102 148.46 670.238C147.628 670.43 146.714 670.79 146.398 671.595C146.928 670.708 146.517 669.419 145.615 668.933C144.713 668.447 143.499 668.763 142.861 669.573C142.223 670.383 142.161 671.582 142.623 672.507C141.909 671.075 140.976 669.174 142.235 667.722H142.237Z" fill="white"/>
</g>
</g>
<g opacity="0.05" clip-path="url(#clip8_1687_49707)">
<path d="M7.66482 2319.53C11.8943 2317.35 22.9735 2317.64 22.9735 2317.64C24.1346 2316.51 24.3679 2313.7 24.8345 2312.15C26.3647 2307.09 32.7017 2304.04 37.7009 2305.96C37.6245 2297.78 46.6699 2290.83 54.7124 2292.89C55.1777 2290.7 57.3669 2289.19 59.6035 2288.78C61.8389 2288.38 64.1309 2288.86 66.3531 2289.33C66.3939 2282.59 73.5507 2278.01 80.2554 2276.67C87.2343 2275.27 94.7482 2276.02 101.014 2279.36C107.281 2282.69 112.156 2288.7 113.449 2295.6C120.828 2292.35 129.434 2291.88 137.127 2294.33C142.581 2296.06 148.035 2299.91 148.81 2305.5C154.529 2304 161.087 2308.24 161.955 2314.01C165.612 2312.86 169.432 2311.89 173.247 2312.29C177.063 2312.69 180.908 2314.71 182.496 2318.15C186.206 2317.64 190.131 2319.84 191.565 2323.25C192.92 2327.76 191.565 2331.39 180.895 2327.75C179.255 2327.19 177.706 2329.1 176.111 2329.77C171.278 2331.81 166.418 2333.86 161.302 2335.06C151.793 2337.3 141.564 2336.46 132.561 2332.7C131.31 2332.18 130.068 2331.6 128.733 2331.36C126.228 2330.9 123.681 2331.66 121.147 2331.93C118.612 2332.19 115.666 2331.75 114.259 2329.66C108.736 2333.46 101.477 2334.7 94.9776 2332.95C79.7836 2342.55 58.8048 2342.33 43.8217 2332.42C42.882 2331.8 41.8553 2331.11 40.7284 2331.22C39.8611 2331.3 39.1243 2331.85 38.3836 2332.3C32.9429 2335.59 24.9769 2333.85 21.4696 2328.59C17.8596 2331.09 13.3454 2332.28 8.95252 2331.91C6.84634 2331.74 4.53851 2331.26 3.1836 2329.67C-0.0376127 2325.87 3.95331 2321.44 7.66614 2319.53L7.66482 2319.53Z" fill="white"/>
<path d="M182.205 2317.76C181.664 2316.59 180.864 2315.59 179.893 2314.76C180.287 2315.97 180.38 2317.24 180.054 2318.48C179.259 2321.49 175.323 2323.56 172.686 2321.84C171.823 2321.28 171.114 2320.37 170.087 2320.24C169.366 2320.14 168.661 2320.46 168.008 2320.77C166.083 2321.7 164.104 2322.72 161.96 2322.78C159.814 2322.83 157.458 2321.55 157.123 2319.46C156.697 2316.81 159.27 2315.3 161.652 2313.56C160.747 2307.83 154.215 2303.62 148.518 2305.11C147.744 2299.52 142.29 2295.67 136.835 2293.94C133.44 2292.86 129.867 2292.35 126.299 2292.39C126.196 2292.53 126.096 2292.68 126.002 2292.83C131.235 2292.92 136.276 2296.2 138.424 2300.89C140.573 2305.59 139.72 2311.47 136.321 2315.39C131.706 2309.96 122.577 2309.02 116.917 2313.38C117.792 2310.94 115.4 2308.53 112.987 2307.5C110.574 2306.48 107.746 2305.97 106.062 2303.98C110.04 2302.79 112.193 2299.14 113.113 2295C111.76 2288.19 106.924 2282.27 100.723 2278.97C97.9009 2277.47 94.8273 2276.49 91.6627 2276C95.6102 2279.59 98.4953 2284.33 99.6644 2289.5C100.501 2293.2 100.478 2297.21 98.863 2300.65C97.2485 2304.1 93.8467 2306.86 89.9981 2307.07C94.3765 2310.47 96.1097 2316.81 94.0562 2321.91C92.0041 2327.01 86.3354 2330.46 80.78 2329.99C78.9137 2329.83 76.6796 2328.74 76.822 2326.91C73.1368 2330.14 67.9834 2332.02 63.1714 2330.94C58.358 2329.86 54.2906 2325.36 54.6452 2320.52C53.028 2322.3 50.1982 2322.87 47.9985 2321.87C45.7987 2320.87 44.4056 2318.38 44.7259 2316.02C42.4721 2320.13 39.9968 2324.45 35.8398 2326.7C31.6815 2328.95 25.3696 2327.97 23.6931 2323.61C21.7345 2324.61 19.1697 2324.33 17.48 2322.93C13.6762 2326.54 9.14887 2326.87 4.20634 2327.48C3.44981 2327.57 2.71172 2327.67 2 2327.81C2.19243 2328.31 2.48371 2328.8 2.89229 2329.28C4.2472 2330.87 6.55503 2331.35 8.66121 2331.53C13.0554 2331.9 17.5683 2330.7 21.1783 2328.21C24.6855 2333.46 32.6516 2335.21 38.0923 2331.91C38.8344 2331.46 39.5711 2330.92 40.4371 2330.83C41.564 2330.72 42.5907 2331.41 43.5304 2332.03C58.5135 2341.94 79.4936 2342.16 94.6862 2332.57C101.185 2334.31 108.445 2333.07 113.967 2329.27C115.375 2331.37 118.321 2331.8 120.855 2331.54C123.39 2331.28 125.936 2330.51 128.442 2330.97C129.777 2331.22 131.02 2331.8 132.269 2332.32C141.273 2336.07 151.502 2336.91 161.011 2334.68C166.125 2333.47 170.987 2331.43 175.82 2329.39C177.415 2328.71 178.964 2326.81 180.603 2327.37C191.274 2331.01 192.629 2327.37 191.274 2322.86C189.84 2319.46 185.915 2317.25 182.205 2317.76V2317.76Z" fill="#C9C9C9"/>
<path d="M59.4487 2305.6C60.822 2303.92 63.1391 2303.35 65.3059 2303.05C67.0444 2302.8 68.8276 2302.66 70.545 2303.02C72.2623 2303.38 73.9244 2304.29 74.8549 2305.75C74.9748 2305.18 74.6466 2304.62 74.3316 2304.12C73.1507 2302.26 71.863 2300.3 69.8478 2299.36C68.5298 2298.74 67.0285 2298.63 65.5682 2298.63C63.9154 2298.63 62.2112 2298.78 60.7469 2299.53C59.2826 2300.29 58.1056 2301.77 58.1584 2303.39C57.9738 2302.93 57.3834 2302.78 56.8759 2302.73C53.4887 2302.39 49.8865 2303.68 47.8094 2306.33C45.802 2308.9 45.3724 2312.98 47.4285 2315.65C46.6877 2312.61 47.9333 2311.27 49.8944 2309.09C51.1136 2307.74 52.4712 2306.66 54.2201 2306.03C55.0848 2305.72 55.9942 2305.53 56.9115 2305.46C57.2199 2305.44 59.3709 2305.69 59.4487 2305.6Z" fill="#C9C9C9"/>
<path d="M69.7383 2311.79C71.3027 2310.51 73.5302 2310.07 75.4769 2310.64C77.4236 2311.22 79.0329 2312.8 79.6233 2314.71C81.6188 2314.12 83.9859 2314.75 85.2604 2316.37C86.535 2317.99 86.4901 2320.55 85.0245 2322C86.2766 2320.9 87.2678 2319.44 87.5656 2317.81C87.8635 2316.18 87.3917 2314.37 86.1435 2313.25C84.8953 2312.14 82.8538 2311.89 81.4883 2312.86C81.7427 2311.78 80.7252 2310.83 79.7472 2310.27C78.0233 2309.29 76.0726 2308.7 74.0877 2308.55C73.3667 2308.5 72.6181 2308.5 71.9525 2308.78C71.1894 2309.1 70.6134 2309.74 70.1574 2310.42C69.3046 2311.7 68.784 2313.35 69.4061 2314.75C68.933 2313.23 69.5287 2311.44 70.8283 2310.5L69.7383 2311.79V2311.79Z" fill="#C9C9C9"/>
<path d="M105.514 2324.02C106.109 2321.84 107.884 2320 110.072 2319.3C112.26 2318.6 114.794 2319.07 116.579 2320.49C117.205 2319.05 118.748 2318.05 120.339 2318.05C121.93 2318.05 123.475 2319.05 124.104 2320.49C124.205 2318.64 122.969 2316.79 121.201 2316.15C119.434 2315.51 117.278 2316.14 116.137 2317.61C116.189 2317.19 115.784 2316.85 115.406 2316.64C112.427 2314.98 108.274 2315.77 106.135 2318.4C103.996 2321.03 104.128 2325.19 106.43 2327.69C105.708 2326.11 105.694 2324.23 106.392 2322.64L105.514 2324.02Z" fill="white"/>
<path d="M137.765 2318.04C138.528 2317.19 139.613 2316.67 140.73 2316.37C141.992 2316.04 143.376 2315.99 144.572 2316.51C145.768 2317.02 146.723 2318.19 146.721 2319.47C147.582 2318.42 149.237 2318.18 150.464 2318.79C151.69 2319.39 152.461 2320.71 152.577 2322.06C152.692 2323.41 152.212 2324.76 151.437 2325.87C150.529 2327.18 149.211 2328.21 147.711 2328.78C149.609 2327.83 150.827 2325.71 150.665 2323.62C150.626 2323.12 150.504 2322.61 150.161 2322.24C149.523 2321.56 148.416 2321.65 147.498 2321.86C146.197 2322.15 144.768 2322.7 144.274 2323.92C145.101 2322.57 144.46 2320.62 143.048 2319.88C141.638 2319.14 139.738 2319.62 138.741 2320.85C137.744 2322.08 137.647 2323.9 138.369 2325.3C137.253 2323.13 135.794 2320.25 137.763 2318.04H137.765Z" fill="white"/>
</g>
<circle cx="112.646" cy="1465.59" r="18" transform="rotate(45 112.646 1465.59)" fill="url(#paint21_radial_1687_49707)" fill-opacity="0.1"/>
<circle cx="87.8984" cy="1522.87" r="18" transform="rotate(45 87.8984 1522.87)" fill="url(#paint22_radial_1687_49707)" fill-opacity="0.1"/>
<path d="M112.646 1465.59L112.647 1247.81" stroke="url(#paint23_linear_1687_49707)"/>
<circle cx="58.9062" cy="1437.31" r="18" transform="rotate(45 58.9062 1437.31)" fill="url(#paint24_radial_1687_49707)" fill-opacity="0.1"/>
<path d="M58.9062 1437.31L58.9063 1219.52" stroke="url(#paint25_linear_1687_49707)"/>
<path d="M87.8984 1522.87L87.8984 1218.82" stroke="url(#paint26_linear_1687_49707)"/>
<g opacity="0.5">
<circle cx="277.756" cy="1288" r="6.56652" transform="rotate(45 277.756 1288)" fill="url(#paint27_radial_1687_49707)" fill-opacity="0.1"/>
<circle cx="268.727" cy="1308.9" r="6.56652" transform="rotate(45 268.727 1308.9)" fill="url(#paint28_radial_1687_49707)" fill-opacity="0.1"/>
<path d="M277.756 1288L277.756 1208.55" stroke="url(#paint29_linear_1687_49707)"/>
<circle cx="258.15" cy="1277.68" r="6.56652" transform="rotate(45 258.15 1277.68)" fill="url(#paint30_radial_1687_49707)" fill-opacity="0.1"/>
<path d="M258.15 1277.68L258.15 1198.23" stroke="url(#paint31_linear_1687_49707)"/>
<path d="M268.727 1308.9L268.727 1197.98" stroke="url(#paint32_linear_1687_49707)"/>
</g>
<g opacity="0.5">
<circle cx="87.7559" cy="991.002" r="6.56652" transform="rotate(45 87.7559 991.002)" fill="url(#paint33_radial_1687_49707)" fill-opacity="0.1"/>
<circle cx="78.7266" cy="1011.9" r="6.56652" transform="rotate(45 78.7266 1011.9)" fill="url(#paint34_radial_1687_49707)" fill-opacity="0.1"/>
<path d="M87.7559 991.003L87.7559 911.552" stroke="url(#paint35_linear_1687_49707)"/>
<circle cx="68.1504" cy="980.684" r="6.56652" transform="rotate(45 68.1504 980.684)" fill="url(#paint36_radial_1687_49707)" fill-opacity="0.1"/>
<path d="M68.1504 980.685L68.1504 901.234" stroke="url(#paint37_linear_1687_49707)"/>
<path d="M78.7266 1011.9L78.7266 900.976" stroke="url(#paint38_linear_1687_49707)"/>
</g>
<g opacity="0.2" clip-path="url(#clip9_1687_49707)">
<circle cx="113" cy="1310" r="1" fill="#0068FF"/>
<circle cx="177" cy="1341" r="1" fill="#0068FF"/>
<circle cx="310" cy="1308" r="1" fill="#0068FF"/>
<circle cx="396" cy="1452" r="1" fill="#0068FF"/>
<circle cx="226" cy="1424" r="1" fill="#0068FF"/>
<g opacity="0.2">
<circle cx="327" cy="1408" r="1" fill="#0068FF"/>
<circle cx="157" cy="1380" r="1" fill="#0068FF"/>
</g>
</g>
<g opacity="0.2" clip-path="url(#clip10_1687_49707)">
<circle cx="127" cy="943" r="1" fill="#FF00C7"/>
<circle cx="191" cy="974" r="1" fill="#FF00C7"/>
<circle cx="324" cy="941" r="1" fill="#FF00C7"/>
<circle cx="410" cy="1085" r="1" fill="#FF00C7"/>
<circle cx="240" cy="1057" r="1" fill="#FF00C7"/>
<g opacity="0.2">
<circle cx="138" cy="1035" r="1" fill="#0068FF"/>
<circle cx="271" cy="1002" r="1" fill="#0068FF"/>
</g>
</g>
<circle cx="253.414" cy="1157.23" r="1" fill="#0068FF" fill-opacity="0.7"/>
<circle cx="82.457" cy="1035.41" r="1" transform="rotate(45 82.457 1035.41)" fill="#0068FF" fill-opacity="0.7"/>
<circle cx="199.836" cy="1106.13" r="1" transform="rotate(45 199.836 1106.13)" fill="#0068FF" fill-opacity="0.7"/>
<circle cx="58.4141" cy="1128.75" r="1" transform="rotate(45 58.4141 1128.75)" fill="#0068FF" fill-opacity="0.7"/>
<circle cx="219.637" cy="1210.78" r="1" transform="rotate(45 219.637 1210.78)" fill="#0068FF" fill-opacity="0.7"/>
<circle cx="269.574" cy="1542.8" r="1" transform="rotate(90 269.574 1542.8)" fill="#0068FF" fill-opacity="0.7"/>
<circle cx="391.389" cy="1371.85" r="1" transform="rotate(135 391.389 1371.85)" fill="#0068FF" fill-opacity="0.7"/>
<circle cx="320.678" cy="1489.22" r="1" transform="rotate(135 320.678 1489.22)" fill="#0068FF" fill-opacity="0.7"/>
<circle cx="298.049" cy="1347.8" r="1" transform="rotate(135 298.049 1347.8)" fill="#0068FF" fill-opacity="0.7"/>
<circle cx="216.025" cy="1509.03" r="1" transform="rotate(135 216.025 1509.03)" fill="#0068FF" fill-opacity="0.7"/>
<ellipse cx="268.963" cy="522.391" rx="1.32963" ry="1" transform="rotate(90 268.963 522.391)" fill="#FF00C7" fill-opacity="0.7"/>
<ellipse rx="1.17672" ry="1.17672" transform="matrix(-0.600912 0.799315 -0.600912 -0.799315 390.777 294.99)" fill="#FF00C7" fill-opacity="0.7"/>
<ellipse rx="1.17672" ry="1.17672" transform="matrix(-0.600912 0.799315 -0.600912 -0.799315 320.066 451.124)" fill="#FF00C7" fill-opacity="0.7"/>
<ellipse rx="1.17672" ry="1.17672" transform="matrix(-0.600912 0.799315 -0.600912 -0.799315 297.437 263.009)" fill="#FF00C7" fill-opacity="0.7"/>
<ellipse rx="1.17672" ry="1.17672" transform="matrix(-0.600912 0.799315 -0.600912 -0.799315 215.414 477.463)" fill="#FF00C7" fill-opacity="0.7"/>
<ellipse cx="105.963" cy="955.194" rx="1.32963" ry="1" transform="rotate(90 105.963 955.194)" fill="#195163" fill-opacity="0.7"/>
<ellipse rx="1.17672" ry="1.17672" transform="matrix(-0.600912 0.799315 -0.600912 -0.799315 227.777 727.793)" fill="#195163" fill-opacity="0.7"/>
<ellipse rx="1.17672" ry="1.17672" transform="matrix(-0.600912 0.799315 -0.600912 -0.799315 157.066 883.927)" fill="#195163" fill-opacity="0.7"/>
<ellipse rx="1.17672" ry="1.17672" transform="matrix(-0.600912 0.799315 -0.600912 -0.799315 134.437 695.812)" fill="#195163" fill-opacity="0.7"/>
<ellipse rx="1.17672" ry="1.17672" transform="matrix(-0.600912 0.799315 -0.600912 -0.799315 52.4139 910.266)" fill="#195163" fill-opacity="0.7"/>
<g opacity="0.5">
<circle cx="141.758" cy="469.002" r="6.56652" transform="rotate(45 141.758 469.002)" fill="url(#paint39_radial_1687_49707)" fill-opacity="0.1"/>
<circle cx="132.729" cy="489.898" r="6.56652" transform="rotate(45 132.729 489.898)" fill="url(#paint40_radial_1687_49707)" fill-opacity="0.1"/>
<path d="M141.758 469.002L141.758 389.551" stroke="url(#paint41_linear_1687_49707)"/>
<circle cx="122.152" cy="458.683" r="6.56652" transform="rotate(45 122.152 458.683)" fill="url(#paint42_radial_1687_49707)" fill-opacity="0.1"/>
<path d="M122.152 458.683L122.152 379.232" stroke="url(#paint43_linear_1687_49707)"/>
<path d="M132.729 489.897L132.729 378.976" stroke="url(#paint44_linear_1687_49707)"/>
</g>
<rect x="34" y="179.5" width="2" height="76" rx="1" fill="url(#paint45_linear_1687_49707)" fill-opacity="0.1"/>
<rect x="54" y="149.5" width="2" height="136" rx="1" fill="url(#paint46_linear_1687_49707)" fill-opacity="0.1"/>
<rect x="74" y="117" width="2" height="201" rx="1" fill="url(#paint47_linear_1687_49707)" fill-opacity="0.1"/>
<rect x="94" y="41" width="2" height="353" rx="1" fill="url(#paint48_linear_1687_49707)" fill-opacity="0.1"/>
<rect x="114" y="117" width="2" height="201" rx="1" fill="url(#paint49_linear_1687_49707)" fill-opacity="0.1"/>
<rect x="134" y="149.5" width="2" height="136" rx="1" fill="url(#paint50_linear_1687_49707)" fill-opacity="0.1"/>
<rect x="154" y="179.5" width="2" height="76" rx="1" fill="url(#paint51_linear_1687_49707)" fill-opacity="0.1"/>
<rect x="260" y="403.967" width="2" height="136.068" rx="1" fill="url(#paint52_linear_1687_49707)" fill-opacity="0.1"/>
<rect x="280" y="350.255" width="2" height="243.49" rx="1" fill="url(#paint53_linear_1687_49707)" fill-opacity="0.1"/>
<rect x="300" y="292.067" width="2" height="359.864" rx="1" fill="url(#paint54_linear_1687_49707)" fill-opacity="0.1"/>
<rect x="320" y="156" width="2" height="632" rx="1" fill="url(#paint55_linear_1687_49707)" fill-opacity="0.1"/>
<rect x="340" y="292.067" width="2" height="359.864" rx="1" fill="url(#paint56_linear_1687_49707)" fill-opacity="0.1"/>
<rect x="360" y="350.255" width="2" height="243.49" rx="1" fill="url(#paint57_linear_1687_49707)" fill-opacity="0.1"/>
<rect x="380" y="403.967" width="2" height="136.068" rx="1" fill="url(#paint58_linear_1687_49707)" fill-opacity="0.1"/>
<rect x="154" y="1023.5" width="2" height="76" rx="1" fill="url(#paint59_linear_1687_49707)" fill-opacity="0.1"/>
<rect x="174" y="993.5" width="2" height="136" rx="1" fill="url(#paint60_linear_1687_49707)" fill-opacity="0.1"/>
<rect x="194" y="961" width="2" height="201" rx="1" fill="url(#paint61_linear_1687_49707)" fill-opacity="0.1"/>
<rect x="214" y="885" width="2" height="353" rx="1" fill="url(#paint62_linear_1687_49707)" fill-opacity="0.1"/>
<rect x="234" y="961" width="2" height="201" rx="1" fill="url(#paint63_linear_1687_49707)" fill-opacity="0.1"/>
<rect x="254" y="993.5" width="2" height="136" rx="1" fill="url(#paint64_linear_1687_49707)" fill-opacity="0.1"/>
<rect x="274" y="1023.5" width="2" height="76" rx="1" fill="url(#paint65_linear_1687_49707)" fill-opacity="0.1"/>
</g>
<defs>
<linearGradient id="paint0_linear_1687_49707" x1="35" y1="2029.5" x2="35" y2="2105.5" gradientUnits="userSpaceOnUse">
<stop stop-color="#D9D9D9" stop-opacity="0"/>
<stop offset="0.541667" stop-color="#D9D9D9"/>
<stop offset="1" stop-color="#D9D9D9" stop-opacity="0"/>
</linearGradient>
<linearGradient id="paint1_linear_1687_49707" x1="55" y1="1999.5" x2="55" y2="2135.5" gradientUnits="userSpaceOnUse">
<stop stop-color="#D9D9D9" stop-opacity="0"/>
<stop offset="0.541667" stop-color="#D9D9D9"/>
<stop offset="1" stop-color="#D9D9D9" stop-opacity="0"/>
</linearGradient>
<linearGradient id="paint2_linear_1687_49707" x1="75" y1="1967" x2="75" y2="2168" gradientUnits="userSpaceOnUse">
<stop stop-color="#D9D9D9" stop-opacity="0"/>
<stop offset="0.541667" stop-color="#D9D9D9"/>
<stop offset="1" stop-color="#D9D9D9" stop-opacity="0"/>
</linearGradient>
<linearGradient id="paint3_linear_1687_49707" x1="95" y1="1891" x2="95" y2="2244" gradientUnits="userSpaceOnUse">
<stop stop-color="#D9D9D9" stop-opacity="0"/>
<stop offset="0.541667" stop-color="#D9D9D9"/>
<stop offset="1" stop-color="#D9D9D9" stop-opacity="0"/>
</linearGradient>
<linearGradient id="paint4_linear_1687_49707" x1="115" y1="1967" x2="115" y2="2168" gradientUnits="userSpaceOnUse">
<stop stop-color="#D9D9D9" stop-opacity="0"/>
<stop offset="0.541667" stop-color="#D9D9D9"/>
<stop offset="1" stop-color="#D9D9D9" stop-opacity="0"/>
</linearGradient>
<linearGradient id="paint5_linear_1687_49707" x1="135" y1="1999.5" x2="135" y2="2135.5" gradientUnits="userSpaceOnUse">
<stop stop-color="#D9D9D9" stop-opacity="0"/>
<stop offset="0.541667" stop-color="#D9D9D9"/>
<stop offset="1" stop-color="#D9D9D9" stop-opacity="0"/>
</linearGradient>
<linearGradient id="paint6_linear_1687_49707" x1="155" y1="2029.5" x2="155" y2="2105.5" gradientUnits="userSpaceOnUse">
<stop stop-color="#D9D9D9" stop-opacity="0"/>
<stop offset="0.541667" stop-color="#D9D9D9"/>
<stop offset="1" stop-color="#D9D9D9" stop-opacity="0"/>
</linearGradient>
<linearGradient id="paint7_linear_1687_49707" x1="35" y1="2627.5" x2="35" y2="2703.5" gradientUnits="userSpaceOnUse">
<stop stop-color="#D9D9D9" stop-opacity="0"/>
<stop offset="0.541667" stop-color="#D9D9D9"/>
<stop offset="1" stop-color="#D9D9D9" stop-opacity="0"/>
</linearGradient>
<linearGradient id="paint8_linear_1687_49707" x1="55" y1="2597.5" x2="55" y2="2733.5" gradientUnits="userSpaceOnUse">
<stop stop-color="#D9D9D9" stop-opacity="0"/>
<stop offset="0.541667" stop-color="#D9D9D9"/>
<stop offset="1" stop-color="#D9D9D9" stop-opacity="0"/>
</linearGradient>
<linearGradient id="paint9_linear_1687_49707" x1="75" y1="2565" x2="75" y2="2766" gradientUnits="userSpaceOnUse">
<stop stop-color="#D9D9D9" stop-opacity="0"/>
<stop offset="0.541667" stop-color="#D9D9D9"/>
<stop offset="1" stop-color="#D9D9D9" stop-opacity="0"/>
</linearGradient>
<linearGradient id="paint10_linear_1687_49707" x1="95" y1="2489" x2="95" y2="2842" gradientUnits="userSpaceOnUse">
<stop stop-color="#D9D9D9" stop-opacity="0"/>
<stop offset="0.541667" stop-color="#D9D9D9"/>
<stop offset="1" stop-color="#D9D9D9" stop-opacity="0"/>
</linearGradient>
<linearGradient id="paint11_linear_1687_49707" x1="115" y1="2565" x2="115" y2="2766" gradientUnits="userSpaceOnUse">
<stop stop-color="#D9D9D9" stop-opacity="0"/>
<stop offset="0.541667" stop-color="#D9D9D9"/>
<stop offset="1" stop-color="#D9D9D9" stop-opacity="0"/>
</linearGradient>
<linearGradient id="paint12_linear_1687_49707" x1="135" y1="2597.5" x2="135" y2="2733.5" gradientUnits="userSpaceOnUse">
<stop stop-color="#D9D9D9" stop-opacity="0"/>
<stop offset="0.541667" stop-color="#D9D9D9"/>
<stop offset="1" stop-color="#D9D9D9" stop-opacity="0"/>
</linearGradient>
<linearGradient id="paint13_linear_1687_49707" x1="155" y1="2627.5" x2="155" y2="2703.5" gradientUnits="userSpaceOnUse">
<stop stop-color="#D9D9D9" stop-opacity="0"/>
<stop offset="0.541667" stop-color="#D9D9D9"/>
<stop offset="1" stop-color="#D9D9D9" stop-opacity="0"/>
</linearGradient>
<linearGradient id="paint14_linear_1687_49707" x1="261" y1="2253.97" x2="261" y2="2390.03" gradientUnits="userSpaceOnUse">
<stop stop-color="#D9D9D9" stop-opacity="0"/>
<stop offset="0.541667" stop-color="#D9D9D9"/>
<stop offset="1" stop-color="#D9D9D9" stop-opacity="0"/>
</linearGradient>
<linearGradient id="paint15_linear_1687_49707" x1="281" y1="2200.25" x2="281" y2="2443.74" gradientUnits="userSpaceOnUse">
<stop stop-color="#D9D9D9" stop-opacity="0"/>
<stop offset="0.541667" stop-color="#D9D9D9"/>
<stop offset="1" stop-color="#D9D9D9" stop-opacity="0"/>
</linearGradient>
<linearGradient id="paint16_linear_1687_49707" x1="301" y1="2142.07" x2="301" y2="2501.93" gradientUnits="userSpaceOnUse">
<stop stop-color="#D9D9D9" stop-opacity="0"/>
<stop offset="0.541667" stop-color="#D9D9D9"/>
<stop offset="1" stop-color="#D9D9D9" stop-opacity="0"/>
</linearGradient>
<linearGradient id="paint17_linear_1687_49707" x1="321" y1="2006" x2="321" y2="2638" gradientUnits="userSpaceOnUse">
<stop stop-color="#D9D9D9" stop-opacity="0"/>
<stop offset="0.541667" stop-color="#D9D9D9"/>
<stop offset="1" stop-color="#D9D9D9" stop-opacity="0"/>
</linearGradient>
<linearGradient id="paint18_linear_1687_49707" x1="341" y1="2142.07" x2="341" y2="2501.93" gradientUnits="userSpaceOnUse">
<stop stop-color="#D9D9D9" stop-opacity="0"/>
<stop offset="0.541667" stop-color="#D9D9D9"/>
<stop offset="1" stop-color="#D9D9D9" stop-opacity="0"/>
</linearGradient>
<linearGradient id="paint19_linear_1687_49707" x1="361" y1="2200.25" x2="361" y2="2443.74" gradientUnits="userSpaceOnUse">
<stop stop-color="#D9D9D9" stop-opacity="0"/>
<stop offset="0.541667" stop-color="#D9D9D9"/>
<stop offset="1" stop-color="#D9D9D9" stop-opacity="0"/>
</linearGradient>
<linearGradient id="paint20_linear_1687_49707" x1="381" y1="2253.97" x2="381" y2="2390.03" gradientUnits="userSpaceOnUse">
<stop stop-color="#D9D9D9" stop-opacity="0"/>
<stop offset="0.541667" stop-color="#D9D9D9"/>
<stop offset="1" stop-color="#D9D9D9" stop-opacity="0"/>
</linearGradient>
<radialGradient id="paint21_radial_1687_49707" cx="0" cy="0" r="1" gradientUnits="userSpaceOnUse" gradientTransform="translate(112.646 1465.59) rotate(90) scale(18)">
<stop stop-color="#10D4FF"/>
<stop offset="0.713542" stop-color="#D9D9D9" stop-opacity="0.19"/>
<stop offset="1" stop-color="#D9D9D9" stop-opacity="0"/>
</radialGradient>
<radialGradient id="paint22_radial_1687_49707" cx="0" cy="0" r="1" gradientUnits="userSpaceOnUse" gradientTransform="translate(87.8984 1522.87) rotate(90) scale(18)">
<stop stop-color="#10D4FF"/>
<stop offset="0.713542" stop-color="#D9D9D9" stop-opacity="0.19"/>
<stop offset="1" stop-color="#D9D9D9" stop-opacity="0"/>
</radialGradient>
<linearGradient id="paint23_linear_1687_49707" x1="58.1993" y1="1411.15" x2="167.094" y2="1302.25" gradientUnits="userSpaceOnUse">
<stop stop-color="#438EA6"/>
<stop offset="1" stop-color="#438EA6" stop-opacity="0"/>
</linearGradient>
<radialGradient id="paint24_radial_1687_49707" cx="0" cy="0" r="1" gradientUnits="userSpaceOnUse" gradientTransform="translate(58.9062 1437.31) rotate(90) scale(18)">
<stop stop-color="#10D4FF"/>
<stop offset="0.713542" stop-color="#D9D9D9" stop-opacity="0.19"/>
<stop offset="1" stop-color="#D9D9D9" stop-opacity="0"/>
</radialGradient>
<linearGradient id="paint25_linear_1687_49707" x1="4.45903" y1="1382.86" x2="113.353" y2="1273.97" gradientUnits="userSpaceOnUse">
<stop stop-color="#438EA6"/>
<stop offset="1" stop-color="#438EA6" stop-opacity="0"/>
</linearGradient>
<linearGradient id="paint26_linear_1687_49707" x1="33.4512" y1="1468.42" x2="142.346" y2="1359.53" gradientUnits="userSpaceOnUse">
<stop stop-color="#438EA6"/>
<stop offset="1" stop-color="#438EA6" stop-opacity="0"/>
</linearGradient>
<radialGradient id="paint27_radial_1687_49707" cx="0" cy="0" r="1" gradientUnits="userSpaceOnUse" gradientTransform="translate(277.756 1288) rotate(90) scale(6.56652)">
<stop stop-color="#10D4FF"/>
<stop offset="0.713542" stop-color="#D9D9D9" stop-opacity="0.19"/>
<stop offset="1" stop-color="#D9D9D9" stop-opacity="0"/>
</radialGradient>
<radialGradient id="paint28_radial_1687_49707" cx="0" cy="0" r="1" gradientUnits="userSpaceOnUse" gradientTransform="translate(268.727 1308.9) rotate(90) scale(6.56652)">
<stop stop-color="#10D4FF"/>
<stop offset="0.713542" stop-color="#D9D9D9" stop-opacity="0.19"/>
<stop offset="1" stop-color="#D9D9D9" stop-opacity="0"/>
</radialGradient>
<linearGradient id="paint29_linear_1687_49707" x1="257.893" y1="1268.14" x2="297.619" y2="1228.41" gradientUnits="userSpaceOnUse">
<stop stop-color="#438EA6"/>
<stop offset="1" stop-color="#438EA6" stop-opacity="0"/>
</linearGradient>
<radialGradient id="paint30_radial_1687_49707" cx="0" cy="0" r="1" gradientUnits="userSpaceOnUse" gradientTransform="translate(258.15 1277.68) rotate(90) scale(6.56652)">
<stop stop-color="#10D4FF"/>
<stop offset="0.713542" stop-color="#D9D9D9" stop-opacity="0.19"/>
<stop offset="1" stop-color="#D9D9D9" stop-opacity="0"/>
</radialGradient>
<linearGradient id="paint31_linear_1687_49707" x1="238.288" y1="1257.82" x2="278.013" y2="1218.1" gradientUnits="userSpaceOnUse">
<stop stop-color="#438EA6"/>
<stop offset="1" stop-color="#438EA6" stop-opacity="0"/>
</linearGradient>
<linearGradient id="paint32_linear_1687_49707" x1="248.864" y1="1289.03" x2="288.589" y2="1249.31" gradientUnits="userSpaceOnUse">
<stop stop-color="#438EA6"/>
<stop offset="1" stop-color="#438EA6" stop-opacity="0"/>
</linearGradient>
<radialGradient id="paint33_radial_1687_49707" cx="0" cy="0" r="1" gradientUnits="userSpaceOnUse" gradientTransform="translate(87.7559 991.002) rotate(90) scale(6.56652)">
<stop stop-color="#FFB800"/>
<stop offset="0.713542" stop-color="#D9D9D9" stop-opacity="0.19"/>
<stop offset="1" stop-color="#D9D9D9" stop-opacity="0"/>
</radialGradient>
<radialGradient id="paint34_radial_1687_49707" cx="0" cy="0" r="1" gradientUnits="userSpaceOnUse" gradientTransform="translate(78.7266 1011.9) rotate(90) scale(6.56652)">
<stop stop-color="#FFB800"/>
<stop offset="0.713542" stop-color="#D9D9D9" stop-opacity="0.19"/>
<stop offset="1" stop-color="#D9D9D9" stop-opacity="0"/>
</radialGradient>
<linearGradient id="paint35_linear_1687_49707" x1="67.8931" y1="971.14" x2="107.619" y2="931.415" gradientUnits="userSpaceOnUse">
<stop stop-color="#AB880C"/>
<stop offset="1" stop-color="#A64343" stop-opacity="0"/>
</linearGradient>
<radialGradient id="paint36_radial_1687_49707" cx="0" cy="0" r="1" gradientUnits="userSpaceOnUse" gradientTransform="translate(68.1504 980.684) rotate(90) scale(6.56652)">
<stop stop-color="#FFB800"/>
<stop offset="0.713542" stop-color="#D9D9D9" stop-opacity="0.19"/>
<stop offset="1" stop-color="#D9D9D9" stop-opacity="0"/>
</radialGradient>
<linearGradient id="paint37_linear_1687_49707" x1="48.2877" y1="960.822" x2="88.0131" y2="921.096" gradientUnits="userSpaceOnUse">
<stop stop-color="#AB880C"/>
<stop offset="1" stop-color="#A64343" stop-opacity="0"/>
</linearGradient>
<linearGradient id="paint38_linear_1687_49707" x1="58.8638" y1="992.035" x2="98.5893" y2="952.309" gradientUnits="userSpaceOnUse">
<stop stop-color="#AB880C"/>
<stop offset="1" stop-color="#A65B43" stop-opacity="0"/>
</linearGradient>
<radialGradient id="paint39_radial_1687_49707" cx="0" cy="0" r="1" gradientUnits="userSpaceOnUse" gradientTransform="translate(141.758 469.002) rotate(90) scale(6.56652)">
<stop stop-color="#10D4FF"/>
<stop offset="0.713542" stop-color="#D9D9D9" stop-opacity="0.19"/>
<stop offset="1" stop-color="#D9D9D9" stop-opacity="0"/>
</radialGradient>
<radialGradient id="paint40_radial_1687_49707" cx="0" cy="0" r="1" gradientUnits="userSpaceOnUse" gradientTransform="translate(132.729 489.898) rotate(90) scale(6.56652)">
<stop stop-color="#10D4FF"/>
<stop offset="0.713542" stop-color="#D9D9D9" stop-opacity="0.19"/>
<stop offset="1" stop-color="#D9D9D9" stop-opacity="0"/>
</radialGradient>
<linearGradient id="paint41_linear_1687_49707" x1="121.895" y1="449.139" x2="161.621" y2="409.414" gradientUnits="userSpaceOnUse">
<stop stop-color="#438EA6"/>
<stop offset="1" stop-color="#438EA6" stop-opacity="0"/>
</linearGradient>
<radialGradient id="paint42_radial_1687_49707" cx="0" cy="0" r="1" gradientUnits="userSpaceOnUse" gradientTransform="translate(122.152 458.683) rotate(90) scale(6.56652)">
<stop stop-color="#10D4FF"/>
<stop offset="0.713542" stop-color="#D9D9D9" stop-opacity="0.19"/>
<stop offset="1" stop-color="#D9D9D9" stop-opacity="0"/>
</radialGradient>
<linearGradient id="paint43_linear_1687_49707" x1="102.29" y1="438.82" x2="142.015" y2="399.094" gradientUnits="userSpaceOnUse">
<stop stop-color="#438EA6"/>
<stop offset="1" stop-color="#438EA6" stop-opacity="0"/>
</linearGradient>
<linearGradient id="paint44_linear_1687_49707" x1="112.866" y1="470.035" x2="152.591" y2="430.309" gradientUnits="userSpaceOnUse">
<stop stop-color="#438EA6"/>
<stop offset="1" stop-color="#438EA6" stop-opacity="0"/>
</linearGradient>
<linearGradient id="paint45_linear_1687_49707" x1="35" y1="179.5" x2="35" y2="255.5" gradientUnits="userSpaceOnUse">
<stop stop-color="#D9D9D9" stop-opacity="0"/>
<stop offset="0.541667" stop-color="#D9D9D9"/>
<stop offset="1" stop-color="#D9D9D9" stop-opacity="0"/>
</linearGradient>
<linearGradient id="paint46_linear_1687_49707" x1="55" y1="149.5" x2="55" y2="285.5" gradientUnits="userSpaceOnUse">
<stop stop-color="#D9D9D9" stop-opacity="0"/>
<stop offset="0.541667" stop-color="#D9D9D9"/>
<stop offset="1" stop-color="#D9D9D9" stop-opacity="0"/>
</linearGradient>
<linearGradient id="paint47_linear_1687_49707" x1="75" y1="117" x2="75" y2="318" gradientUnits="userSpaceOnUse">
<stop stop-color="#D9D9D9" stop-opacity="0"/>
<stop offset="0.541667" stop-color="#D9D9D9"/>
<stop offset="1" stop-color="#D9D9D9" stop-opacity="0"/>
</linearGradient>
<linearGradient id="paint48_linear_1687_49707" x1="95" y1="41" x2="95" y2="394" gradientUnits="userSpaceOnUse">
<stop stop-color="#D9D9D9" stop-opacity="0"/>
<stop offset="0.541667" stop-color="#D9D9D9"/>
<stop offset="1" stop-color="#D9D9D9" stop-opacity="0"/>
</linearGradient>
<linearGradient id="paint49_linear_1687_49707" x1="115" y1="117" x2="115" y2="318" gradientUnits="userSpaceOnUse">
<stop stop-color="#D9D9D9" stop-opacity="0"/>
<stop offset="0.541667" stop-color="#D9D9D9"/>
<stop offset="1" stop-color="#D9D9D9" stop-opacity="0"/>
</linearGradient>
<linearGradient id="paint50_linear_1687_49707" x1="135" y1="149.5" x2="135" y2="285.5" gradientUnits="userSpaceOnUse">
<stop stop-color="#D9D9D9" stop-opacity="0"/>
<stop offset="0.541667" stop-color="#D9D9D9"/>
<stop offset="1" stop-color="#D9D9D9" stop-opacity="0"/>
</linearGradient>
<linearGradient id="paint51_linear_1687_49707" x1="155" y1="179.5" x2="155" y2="255.5" gradientUnits="userSpaceOnUse">
<stop stop-color="#D9D9D9" stop-opacity="0"/>
<stop offset="0.541667" stop-color="#D9D9D9"/>
<stop offset="1" stop-color="#D9D9D9" stop-opacity="0"/>
</linearGradient>
<linearGradient id="paint52_linear_1687_49707" x1="261" y1="403.967" x2="261" y2="540.035" gradientUnits="userSpaceOnUse">
<stop stop-color="#D9D9D9" stop-opacity="0"/>
<stop offset="0.541667" stop-color="#D9D9D9"/>
<stop offset="1" stop-color="#D9D9D9" stop-opacity="0"/>
</linearGradient>
<linearGradient id="paint53_linear_1687_49707" x1="281" y1="350.255" x2="281" y2="593.745" gradientUnits="userSpaceOnUse">
<stop stop-color="#D9D9D9" stop-opacity="0"/>
<stop offset="0.541667" stop-color="#D9D9D9"/>
<stop offset="1" stop-color="#D9D9D9" stop-opacity="0"/>
</linearGradient>
<linearGradient id="paint54_linear_1687_49707" x1="301" y1="292.067" x2="301" y2="651.931" gradientUnits="userSpaceOnUse">
<stop stop-color="#D9D9D9" stop-opacity="0"/>
<stop offset="0.541667" stop-color="#D9D9D9"/>
<stop offset="1" stop-color="#D9D9D9" stop-opacity="0"/>
</linearGradient>
<linearGradient id="paint55_linear_1687_49707" x1="321" y1="156" x2="321" y2="788" gradientUnits="userSpaceOnUse">
<stop stop-color="#D9D9D9" stop-opacity="0"/>
<stop offset="0.541667" stop-color="#D9D9D9"/>
<stop offset="1" stop-color="#D9D9D9" stop-opacity="0"/>
</linearGradient>
<linearGradient id="paint56_linear_1687_49707" x1="341" y1="292.067" x2="341" y2="651.931" gradientUnits="userSpaceOnUse">
<stop stop-color="#D9D9D9" stop-opacity="0"/>
<stop offset="0.541667" stop-color="#D9D9D9"/>
<stop offset="1" stop-color="#D9D9D9" stop-opacity="0"/>
</linearGradient>
<linearGradient id="paint57_linear_1687_49707" x1="361" y1="350.255" x2="361" y2="593.745" gradientUnits="userSpaceOnUse">
<stop stop-color="#D9D9D9" stop-opacity="0"/>
<stop offset="0.541667" stop-color="#D9D9D9"/>
<stop offset="1" stop-color="#D9D9D9" stop-opacity="0"/>
</linearGradient>
<linearGradient id="paint58_linear_1687_49707" x1="381" y1="403.967" x2="381" y2="540.035" gradientUnits="userSpaceOnUse">
<stop stop-color="#D9D9D9" stop-opacity="0"/>
<stop offset="0.541667" stop-color="#D9D9D9"/>
<stop offset="1" stop-color="#D9D9D9" stop-opacity="0"/>
</linearGradient>
<linearGradient id="paint59_linear_1687_49707" x1="155" y1="1023.5" x2="155" y2="1099.5" gradientUnits="userSpaceOnUse">
<stop stop-color="#D9D9D9" stop-opacity="0"/>
<stop offset="0.541667" stop-color="#D9D9D9"/>
<stop offset="1" stop-color="#D9D9D9" stop-opacity="0"/>
</linearGradient>
<linearGradient id="paint60_linear_1687_49707" x1="175" y1="993.5" x2="175" y2="1129.5" gradientUnits="userSpaceOnUse">
<stop stop-color="#D9D9D9" stop-opacity="0"/>
<stop offset="0.541667" stop-color="#D9D9D9"/>
<stop offset="1" stop-color="#D9D9D9" stop-opacity="0"/>
</linearGradient>
<linearGradient id="paint61_linear_1687_49707" x1="195" y1="961" x2="195" y2="1162" gradientUnits="userSpaceOnUse">
<stop stop-color="#D9D9D9" stop-opacity="0"/>
<stop offset="0.541667" stop-color="#D9D9D9"/>
<stop offset="1" stop-color="#D9D9D9" stop-opacity="0"/>
</linearGradient>
<linearGradient id="paint62_linear_1687_49707" x1="215" y1="885" x2="215" y2="1238" gradientUnits="userSpaceOnUse">
<stop stop-color="#D9D9D9" stop-opacity="0"/>
<stop offset="0.541667" stop-color="#D9D9D9"/>
<stop offset="1" stop-color="#D9D9D9" stop-opacity="0"/>
</linearGradient>
<linearGradient id="paint63_linear_1687_49707" x1="235" y1="961" x2="235" y2="1162" gradientUnits="userSpaceOnUse">
<stop stop-color="#D9D9D9" stop-opacity="0"/>
<stop offset="0.541667" stop-color="#D9D9D9"/>
<stop offset="1" stop-color="#D9D9D9" stop-opacity="0"/>
</linearGradient>
<linearGradient id="paint64_linear_1687_49707" x1="255" y1="993.5" x2="255" y2="1129.5" gradientUnits="userSpaceOnUse">
<stop stop-color="#D9D9D9" stop-opacity="0"/>
<stop offset="0.541667" stop-color="#D9D9D9"/>
<stop offset="1" stop-color="#D9D9D9" stop-opacity="0"/>
</linearGradient>
<linearGradient id="paint65_linear_1687_49707" x1="275" y1="1023.5" x2="275" y2="1099.5" gradientUnits="userSpaceOnUse">
<stop stop-color="#D9D9D9" stop-opacity="0"/>
<stop offset="0.541667" stop-color="#D9D9D9"/>
<stop offset="1" stop-color="#D9D9D9" stop-opacity="0"/>
</linearGradient>
<clipPath id="clip0_1687_49707">
<rect width="428" height="2871" fill="white"/>
</clipPath>
<clipPath id="clip1_1687_49707">
<rect width="278" height="95" fill="white" transform="translate(147 1883)"/>
</clipPath>
<clipPath id="clip2_1687_49707">
<rect width="367.012" height="125.747" fill="white" transform="matrix(-1 0 0 1 425.002 1609.71)"/>
</clipPath>
<clipPath id="clip3_1687_49707">
<rect width="322.681" height="110.402" fill="white" transform="matrix(-1 0 0 1 325.682 1556.85)"/>
</clipPath>
<clipPath id="clip4_1687_49707">
<rect width="121.485" height="42.2" fill="white" transform="matrix(-1 0 0 1 372.572 1535.54)"/>
</clipPath>
<clipPath id="clip5_1687_49707">
<rect width="367.012" height="125.747" fill="white" transform="translate(3 714.17)"/>
</clipPath>
<clipPath id="clip6_1687_49707">
<rect width="322.681" height="110.402" fill="white" transform="translate(102.32 661.313)"/>
</clipPath>
<clipPath id="clip7_1687_49707">
<rect width="121.485" height="42.2" fill="white" transform="translate(55.4297 640)"/>
</clipPath>
<clipPath id="clip8_1687_49707">
<rect width="190" height="64" fill="white" transform="translate(2 2276)"/>
</clipPath>
<clipPath id="clip9_1687_49707">
<rect width="285" height="146" fill="white" transform="translate(112 1307)"/>
</clipPath>
<clipPath id="clip10_1687_49707">
<rect width="285" height="146" fill="white" transform="translate(126 940)"/>
</clipPath>
</defs>
</svg>
