<svg width="423" height="609" viewBox="0 0 423 609" fill="none" xmlns="http://www.w3.org/2000/svg">
<g clip-path="url(#clip0_1833_53252)">
<circle cx="211.5" cy="608.5" r="211.5" fill="url(#paint0_radial_1833_53252)" fill-opacity="0.2"/>
<path opacity="0.35" d="M283.05 556L305 585.475L285.5 609H246L283.05 556Z" fill="#55657E"/>
<path opacity="0.35" d="M205 590.5L220.5 608.5H243L256.5 590.5C254 586.9 241.1 585 231.5 585C221.9 585 207.5 587.3 205 590.5Z" fill="#55657E"/>
<path opacity="0.35" d="M185.623 571L218 609H193.5L174 585.311L185.623 571Z" fill="#55657E"/>
<path opacity="0.5" d="M354.42 529.5L423 609H288.5L354.42 529.5Z" fill="#55657E"/>
<path opacity="0.5" d="M94.5 494L189.5 609H0L94.5 494Z" fill="#55657E"/>
<path opacity="0.5" d="M28 570L25 565L22 570H24L22 573H24V578.5L26 576.5V573H28L26 570H28Z" fill="#55657E"/>
<path opacity="0.5" d="M36 560L33 555L30 560H32L30 563H32V568.5L34 566.5V563H36L34 560H36Z" fill="#55657E"/>
<path opacity="0.5" d="M46 548L43 543L40 548H42L40 551H42V556.5L44 554.5V551H46L44 548H46Z" fill="#55657E"/>
<path opacity="0.5" d="M56 536L53 531L50 536H52L50 539H52V544.5L54 542.5V539H56L54 536H56Z" fill="#55657E"/>
<path opacity="0.5" d="M65 524L62 519L59 524H61L59 527H61V532.5L63 530.5V527H65L63 524H65Z" fill="#55657E"/>
<path opacity="0.5" d="M312 577L309 572L306 577H308L306 580H308V585.5L310 583.5V580H312L310 577H312Z" fill="#55657E"/>
<path opacity="0.5" d="M320 567L317 562L314 567H316L314 570H316V575.5L318 573.5V570H320L318 567H320Z" fill="#55657E"/>
<path opacity="0.5" d="M330 555L327 550L324 555H326L324 558H326V563.5L328 561.5V558H330L328 555H330Z" fill="#55657E"/>
<path opacity="0.5" d="M340 543L337 538L334 543H336L334 546H336V551.5L338 549.5V546H340L338 543H340Z" fill="#55657E"/>
<path opacity="0.5" d="M349 532L346 527L343 532H345L343 535H345V540.5L347 538.5V535H349L347 532H349Z" fill="#55657E"/>
<path opacity="0.5" d="M409 588L412 583L415 588H413L415 591H413V596.5L411 594.5V591H409L411 588H409Z" fill="#55657E"/>
<path opacity="0.5" d="M401 578L404 573L407 578H405L407 581H405V586.5L403 584.5V581H401L403 578H401Z" fill="#55657E"/>
<path opacity="0.5" d="M391 566L394 561L397 566H395L397 569H395V574.5L393 572.5V569H391L393 566H391Z" fill="#55657E"/>
<path opacity="0.5" d="M381 554L384 549L387 554H385L387 557H385V562.5L383 560.5V557H381L383 554H381Z" fill="#55657E"/>
<path opacity="0.5" d="M155 561L158 556L161 561H159L161 564H159V569.5L157 567.5V564H155L157 561H155Z" fill="#55657E"/>
<path opacity="0.5" d="M147 551L150 546L153 551H151L153 554H151V559.5L149 557.5V554H147L149 551H147Z" fill="#55657E"/>
<path opacity="0.5" d="M137 539L140 534L143 539H141L143 542H141V547.5L139 545.5V542H137L139 539H137Z" fill="#55657E"/>
<path opacity="0.5" d="M127 527L130 522L133 527H131L133 530H131V535.5L129 533.5V530H127L129 527H127Z" fill="#55657E"/>
<path opacity="0.5" d="M102 499L105 494L108 499H106L108 502H106V507.5L104 505.5V502H102L104 499H102Z" fill="#55657E"/>
<path opacity="0.35" d="M261 585.593L259.5 583L258 585.593H259L258 587.148H259V590L260 588.963V587.148H261L260 585.593H261Z" fill="#55657E"/>
<path opacity="0.35" d="M266 576.963L264.5 574L263 576.963H264L263 578.741H264V582L265 580.815V578.741H266L265 576.963H266Z" fill="#55657E"/>
<path opacity="0.35" d="M272 569.593L270.5 567L269 569.593H270L269 571.148H270V574L271 572.963V571.148H272L271 569.593H272Z" fill="#55657E"/>
<g opacity="0.3">
<g filter="url(#filter0_f_1833_53252)">
<path d="M212 122.417C279.609 122.417 334.417 67.6089 334.417 -0.000419617C334.417 -67.6098 279.609 -122.418 212 -122.418C144.39 -122.418 89.582 -67.6098 89.582 -0.000419617C89.582 67.6089 144.39 122.417 212 122.417Z" fill="#9DAAB6" style="mix-blend-mode:screen"/>
</g>
<path d="M289.5 77.5C332.302 34.6979 332.302 -34.6979 289.5 -77.5C246.698 -120.302 177.302 -120.302 134.5 -77.5C91.6979 -34.6979 91.6979 34.6979 134.5 77.5C177.302 120.302 246.698 120.302 289.5 77.5Z" fill="#9DAAB6" style="mix-blend-mode:screen"/>
<g opacity="0.7">
<path style="mix-blend-mode:screen" opacity="0.7" d="M146.211 -51.8768C143.678 -59.5085 141.553 -67.2689 139.868 -75.126C120.407 -56.2884 108.311 -29.8943 108.311 -0.677216C108.311 16.8509 112.668 33.3485 120.343 47.8175C117.971 39.1233 116.704 29.9674 116.704 20.5218C116.704 -7.65411 127.953 -33.2002 146.2 -51.8876L146.211 -51.8768Z" fill="#9DAAB6"/>
</g>
<g style="mix-blend-mode:multiply" opacity="0.5">
<path d="M285.814 -78.0771C289.345 -68.5564 291.288 -58.2735 291.288 -47.5184C291.288 0.94416 252.003 40.2294 203.54 40.2294C155.078 40.2294 115.793 0.94416 115.793 -47.5184C115.793 -47.7009 115.803 -47.8833 115.803 -48.0765C108.483 -33.5431 104.361 -17.1206 104.361 0.267952C104.361 59.7218 152.556 107.916 212.009 107.916C271.463 107.916 319.657 59.7218 319.657 0.267952C319.657 -30.6128 306.659 -58.4453 285.836 -78.0771H285.814Z" fill="#9DAAB6" style="mix-blend-mode:screen"/>
</g>
<g style="mix-blend-mode:multiply" opacity="0.5">
<path d="M314.323 -16.0791C314.323 -15.9288 314.323 -15.7678 314.323 -15.6176C314.323 43.5894 267.739 91.5904 210.281 91.5904C157.096 91.5904 113.238 50.4697 107.002 -2.59761C107.26 56.3839 153.736 104.117 211.033 104.117C268.329 104.117 315.074 56.1156 315.074 -3.09136C315.074 -7.49216 314.806 -11.8178 314.312 -16.0791H314.323Z" fill="#9DAAB6" style="mix-blend-mode:screen"/>
</g>
<g style="mix-blend-mode:multiply" opacity="0.5">
<path d="M316.114 21.9187C318.89 7.96479 315.767 -4.41589 309.139 -5.7343C302.51 -7.05272 294.887 3.19039 292.112 17.1443C289.336 31.0983 292.459 43.4789 299.087 44.7974C305.715 46.1158 313.339 35.8727 316.114 21.9187Z" fill="#9DAAB6" style="mix-blend-mode:screen"/>
</g>
<g style="mix-blend-mode:multiply" opacity="0.5">
<path d="M303.729 -4.48633C298.78 -1.3521 294.122 6.89136 292.093 17.1313C289.839 28.4768 291.482 38.7918 295.743 42.9565C300.691 39.8115 305.349 31.5788 307.378 21.3389C309.632 9.99339 307.99 -0.321662 303.729 -4.48633Z" fill="#9DAAB6" style="mix-blend-mode:screen"/>
</g>
<g style="mix-blend-mode:multiply" opacity="0.5">
<path d="M219.574 87.0066C233.774 86.1232 244.945 79.9392 244.526 73.1943C244.106 66.4493 232.255 61.6977 218.055 62.5811C203.855 63.4645 192.684 69.6485 193.104 76.3934C193.523 83.1384 205.375 87.8901 219.574 87.0066Z" fill="#9DAAB6" style="mix-blend-mode:screen"/>
</g>
<g style="mix-blend-mode:multiply" opacity="0.5">
<path d="M241.932 68.2979C237.628 64.3157 228.482 61.9221 218.06 62.5661C206.511 63.2853 196.968 67.5143 194.027 72.6987C198.332 76.6809 207.477 79.0745 217.899 78.4305C229.448 77.7113 238.991 73.4823 241.932 68.2979Z" fill="#9DAAB6" style="mix-blend-mode:screen"/>
</g>
<g style="mix-blend-mode:multiply" opacity="0.5">
<path d="M205.473 46.5882C213.437 34.6777 208.397 17.3343 194.214 7.85084C180.032 -1.63264 162.079 0.334911 154.114 12.2455C146.15 24.1561 151.19 41.4994 165.373 50.9829C179.555 60.4664 197.509 58.4988 205.473 46.5882Z" fill="#9DAAB6" style="mix-blend-mode:screen"/>
</g>
<g style="mix-blend-mode:multiply" opacity="0.5">
<path d="M194.202 7.82508C181.408 -0.729664 165.543 0.0431619 156.72 9.01651C151.837 20.5981 157.182 35.518 169.966 44.062C182.76 52.6167 198.625 51.8439 207.448 42.8705C212.332 31.2889 206.986 16.3691 194.202 7.82508Z" fill="#9DAAB6" style="mix-blend-mode:screen"/>
</g>
<g style="mix-blend-mode:multiply" opacity="0.5">
<path d="M269.47 43.4448C280.158 34.7431 282.897 20.4106 275.588 11.4323C268.278 2.45401 253.688 2.22984 243 10.9316C232.311 19.6333 229.572 33.9658 236.881 42.9441C244.191 51.9224 258.781 52.1466 269.47 43.4448Z" fill="#9DAAB6" style="mix-blend-mode:screen"/>
</g>
<g style="mix-blend-mode:multiply" opacity="0.5">
<path d="M242.995 10.9483C233.356 18.7946 230.179 31.2242 235.02 40.176C242.802 46.7021 255.596 46.1118 265.225 38.2655C274.863 30.4191 278.041 17.9895 273.2 9.03766C265.418 2.51159 252.623 3.10194 242.995 10.9483Z" fill="#9DAAB6" style="mix-blend-mode:screen"/>
</g>
<g style="mix-blend-mode:multiply" opacity="0.5">
<path d="M143.48 70.5503C149.302 67.1203 148.169 54.4022 140.948 42.1436C133.727 29.8849 123.153 22.7278 117.33 26.1577C111.507 29.5877 112.641 42.3058 119.862 54.5644C127.083 66.8231 137.657 73.9802 143.48 70.5503Z" fill="#9DAAB6" style="mix-blend-mode:screen"/>
</g>
<g style="mix-blend-mode:multiply" opacity="0.5">
<path d="M146.665 66.0224C148.265 60.3872 146.258 51.1455 140.955 42.14C135.084 32.1684 126.991 25.5779 121.033 25.3096C119.434 30.9447 121.441 40.1864 126.744 49.192C132.615 59.1636 140.708 65.754 146.665 66.0224Z" fill="#9DAAB6" style="mix-blend-mode:screen"/>
</g>
<g style="mix-blend-mode:multiply" opacity="0.5">
<path d="M228.401 97.5255C227.467 93.8116 233.049 89.2176 240.863 87.2533C248.677 85.2998 255.761 86.7166 256.695 90.4305C257.629 94.1443 252.047 98.7384 244.233 100.703C236.419 102.656 229.335 101.239 228.401 97.5255Z" fill="#9DAAB6" style="mix-blend-mode:screen"/>
</g>
<g style="mix-blend-mode:multiply" opacity="0.5">
<path d="M254.741 87.9833C251.939 86.2122 246.594 85.8258 240.862 87.2641C234.508 88.8527 229.635 92.1909 228.529 95.3788C231.331 97.1498 236.676 97.5363 242.408 96.0979C248.762 94.5094 253.635 91.1712 254.741 87.9833Z" fill="#9DAAB6" style="mix-blend-mode:screen"/>
</g>
<g style="mix-blend-mode:multiply" opacity="0.5">
<path d="M114.408 -9.14514C118.229 -9.33834 121.653 -2.96254 122.05 5.07698C122.447 13.1165 119.678 19.7928 115.846 19.9861C112.014 20.1793 108.601 13.8035 108.204 5.76394C107.807 -2.27558 110.576 -8.95193 114.408 -9.14514Z" fill="#9DAAB6" style="mix-blend-mode:screen"/>
</g>
<g style="mix-blend-mode:multiply" opacity="0.5">
<path d="M118.637 18.5478C120.923 16.1435 122.34 10.9806 122.05 5.07704C121.728 -1.4705 119.399 -6.90174 116.49 -8.59766C114.204 -6.19331 112.787 -1.03042 113.077 4.8731C113.399 11.4206 115.728 16.8519 118.637 18.5478Z" fill="#9DAAB6" style="mix-blend-mode:screen"/>
</g>
<g style="mix-blend-mode:multiply" opacity="0.5">
<path d="M177.366 93.383C178.235 89.6584 185.298 88.1235 193.144 89.9483C200.991 91.7837 206.636 96.2811 205.767 100.016C204.898 103.741 197.835 105.276 189.988 103.451C182.142 101.616 176.496 97.1183 177.366 93.3938V93.383Z" fill="#9DAAB6" style="mix-blend-mode:screen"/>
</g>
<g style="mix-blend-mode:multiply" opacity="0.5">
<path d="M205.157 96.9469C203.471 94.0917 198.899 91.301 193.146 89.9593C186.77 88.4673 180.898 89.2079 178.473 91.5371C180.158 94.3923 184.73 97.183 190.484 98.5247C196.859 100.017 202.731 99.2761 205.157 96.9469Z" fill="#9DAAB6" style="mix-blend-mode:screen"/>
</g>
<g style="mix-blend-mode:multiply" opacity="0.5">
<path d="M284.591 67.4826C282.326 65.6149 283.689 60.2374 287.628 55.4716C291.568 50.7058 296.591 48.3659 298.856 50.2336C301.121 52.1012 299.758 57.4788 295.818 62.2445C291.879 67.0103 286.856 69.3502 284.591 67.4826Z" fill="#9DAAB6" style="mix-blend-mode:screen"/>
</g>
<g style="mix-blend-mode:multiply" opacity="0.5">
<path d="M296.537 49.6113C293.993 49.7938 290.516 51.9835 287.628 55.4719C284.43 59.3468 282.927 63.6295 283.7 66.0983C286.244 65.9158 289.721 63.7261 292.609 60.2377C295.807 56.3628 297.31 52.0801 296.537 49.6113Z" fill="#9DAAB6" style="mix-blend-mode:screen"/>
</g>
<g style="mix-blend-mode:multiply" opacity="0.5">
<path d="M129.48 11.0021C131.38 10.3795 133.988 13.1273 135.287 17.131C136.585 21.1346 136.102 24.8807 134.202 25.5032C132.303 26.1258 129.694 23.378 128.396 19.3743C127.086 15.3707 127.58 11.6246 129.48 11.0021Z" fill="#9DAAB6" style="mix-blend-mode:screen"/>
</g>
<g style="mix-blend-mode:multiply" opacity="0.5">
<path d="M135.413 24.3976C136.24 22.8734 136.24 20.0719 135.285 17.1309C134.222 13.8786 132.301 11.4528 130.605 10.9912C129.778 12.5154 129.778 15.3169 130.733 18.2579C131.796 21.5102 133.717 23.936 135.413 24.3976Z" fill="#9DAAB6" style="mix-blend-mode:screen"/>
</g>
<g style="mix-blend-mode:multiply" opacity="0.5">
<path d="M284.104 11.9673C281.603 11.216 280.358 8.00662 281.314 4.79725C282.269 1.58788 285.081 -0.40858 287.582 0.332043C290.083 1.0834 291.328 4.29277 290.373 7.50214C289.418 10.7115 286.605 12.708 284.104 11.9673Z" fill="#9DAAB6" style="mix-blend-mode:screen"/>
</g>
<g style="mix-blend-mode:multiply" opacity="0.5">
<path d="M285.555 0.299805C283.709 0.739885 282.013 2.44653 281.305 4.79721C280.521 7.40549 281.208 10.0245 282.829 11.3018C284.675 10.8617 286.371 9.15508 287.079 6.80441C287.863 4.19613 287.176 1.57711 285.555 0.299805Z" fill="#9DAAB6" style="mix-blend-mode:screen"/>
</g>
<g style="mix-blend-mode:multiply" opacity="0.5">
<path d="M263.96 68.5345C264.808 70.0158 263.369 72.4309 260.75 73.9121C258.131 75.4041 255.33 75.4148 254.482 73.9228C253.634 72.4416 255.072 70.0265 257.691 68.5453C260.31 67.0533 263.112 67.0425 263.96 68.5345Z" fill="#9DAAB6" style="mix-blend-mode:screen"/>
</g>
<g style="mix-blend-mode:multiply" opacity="0.5">
<path d="M269.233 59.9254C269.748 60.827 268.878 62.2975 267.279 63.1991C265.69 64.1008 263.984 64.1115 263.469 63.1991C262.953 62.2868 263.823 60.827 265.422 59.9254C267.011 59.0237 268.717 59.013 269.233 59.9254Z" fill="#9DAAB6" style="mix-blend-mode:screen"/>
</g>
<g style="mix-blend-mode:multiply" opacity="0.5">
<path d="M149.012 45.4891C147.316 46.3478 144.708 44.609 143.205 41.6035C141.692 38.6089 141.853 35.4746 143.549 34.6267C145.245 33.7787 147.853 35.5068 149.356 38.5122C150.869 41.5069 150.708 44.6412 149.012 45.4891Z" fill="#9DAAB6" style="mix-blend-mode:screen"/>
</g>
<g style="mix-blend-mode:multiply" opacity="0.5">
<path d="M154.809 52.3053C153.778 52.8206 152.211 51.7686 151.299 49.9547C150.386 48.1407 150.483 46.2515 151.503 45.7363C152.533 45.2211 154.1 46.273 155.013 48.087C155.925 49.901 155.828 51.7901 154.809 52.3053Z" fill="#9DAAB6" style="mix-blend-mode:screen"/>
</g>
<g style="mix-blend-mode:multiply" opacity="0.5">
<path d="M125.871 8.59749C124.937 8.70483 124.025 7.47046 123.832 5.82821C123.638 4.18596 124.229 2.7691 125.162 2.65103C126.096 2.5437 127.009 3.77807 127.202 5.42032C127.395 7.06257 126.805 8.47942 125.871 8.59749Z" fill="#9DAAB6" style="mix-blend-mode:screen"/>
</g>
<g style="mix-blend-mode:multiply" opacity="0.5">
<path d="M165.311 85.1284C164.248 86.4594 161.479 86.0301 159.118 84.1517C156.767 82.2733 155.715 79.6757 156.778 78.3447C157.84 77.0138 160.61 77.4431 162.971 79.3215C165.322 81.1999 166.374 83.7975 165.311 85.1284Z" fill="#9DAAB6" style="mix-blend-mode:screen"/>
</g>
<g style="mix-blend-mode:multiply" opacity="0.5">
<path d="M175.26 86.8247C174.616 87.6405 172.93 87.3721 171.492 86.2343C170.064 85.0966 169.42 83.508 170.064 82.703C170.709 81.8872 172.394 82.1555 173.832 83.2933C175.26 84.4311 175.904 86.0197 175.26 86.8247Z" fill="#9DAAB6" style="mix-blend-mode:screen"/>
</g>
<g style="mix-blend-mode:multiply" opacity="0.5">
<path d="M157.474 72.9353C156.83 73.751 155.145 73.4827 153.707 72.3449C152.279 71.2071 151.635 69.6186 152.279 68.8135C152.923 68.0085 154.609 68.2661 156.047 69.4039C157.474 70.5417 158.118 72.1302 157.474 72.9353Z" fill="#9DAAB6" style="mix-blend-mode:screen"/>
</g>
</g>
</g>
<defs>
<filter id="filter0_f_1833_53252" x="69.582" y="-142.418" width="284.836" height="284.835" filterUnits="userSpaceOnUse" color-interpolation-filters="sRGB">
<feFlood flood-opacity="0" result="BackgroundImageFix"/>
<feBlend mode="normal" in="SourceGraphic" in2="BackgroundImageFix" result="shape"/>
<feGaussianBlur stdDeviation="10" result="effect1_foregroundBlur_1833_53252"/>
</filter>
<radialGradient id="paint0_radial_1833_53252" cx="0" cy="0" r="1" gradientUnits="userSpaceOnUse" gradientTransform="translate(211.5 608.5) rotate(90) scale(211.5)">
<stop stop-color="#70C3FF"/>
<stop offset="0.713542" stop-color="#D9D9D9" stop-opacity="0.19"/>
<stop offset="1" stop-color="#D9D9D9" stop-opacity="0"/>
</radialGradient>
<clipPath id="clip0_1833_53252">
<rect width="423" height="609" fill="white"/>
</clipPath>
</defs>
</svg>
