<svg width="14" height="14" viewBox="0 0 14 14" fill="none" xmlns="http://www.w3.org/2000/svg">
<path fill-rule="evenodd" clip-rule="evenodd" d="M7 0.666667C5.25125 0.666667 3.66723 1.3761 2.52166 2.52165L2.52165 2.52166C1.3761 3.66723 0.666667 5.25125 0.666667 7C0.666667 8.74875 1.3761 10.3328 2.52165 11.4783L2.8449 11.1551L2.52166 11.4783C3.66723 12.6239 5.25125 13.3333 7 13.3333C8.74875 13.3333 10.3328 12.6239 11.4783 11.4783C12.6239 10.3328 13.3333 8.74875 13.3333 7C13.3333 5.25125 12.6239 3.66723 11.4783 2.52166L11.1248 2.87521L11.4783 2.52165C10.3328 1.3761 8.74875 0.666667 7 0.666667ZM3.22876 3.22877C4.19447 2.26307 5.52712 1.66667 7 1.66667C8.47288 1.66667 9.80553 2.26307 10.7712 3.22876C11.7369 4.19447 12.3333 5.52712 12.3333 7C12.3333 8.47288 11.7369 9.80553 10.7712 10.7712C9.80553 11.7369 8.47288 12.3333 7 12.3333C5.52712 12.3333 4.19447 11.7369 3.22876 10.7712C2.26307 9.80553 1.66667 8.47288 1.66667 7C1.66667 5.52712 2.26307 4.19447 3.22876 3.22877ZM7.72917 3.9375C7.72917 3.5348 7.4027 3.20833 7 3.20833C6.5973 3.20833 6.27083 3.5348 6.27083 3.9375C6.27083 4.3402 6.5973 4.66667 7 4.66667C7.4027 4.66667 7.72917 4.3402 7.72917 3.9375ZM6.0625 5.83333C6.0625 5.55719 6.28636 5.33333 6.5625 5.33333H6.85417H7.14583L7.64583 5.83333V9.41667H8.16667C8.44281 9.41667 8.66667 9.64052 8.66667 9.91667C8.66667 10.1928 8.44281 10.4167 8.16667 10.4167L7.14583 10.4167L6.125 10.4167C5.84886 10.4167 5.625 10.1928 5.625 9.91667C5.625 9.64052 5.84886 9.41667 6.125 9.41667H6.64583V6.33333H6.5625C6.28636 6.33333 6.0625 6.10948 6.0625 5.83333Z" fill="#5D6678"/>
</svg>
