<svg width="18" height="18" viewBox="0 0 18 18" fill="none" xmlns="http://www.w3.org/2000/svg">
<path d="M11.3159 6.91548C11.3924 6.91211 11.4687 6.92426 11.5404 6.9512C11.6121 6.97814 11.6775 7.01932 11.7329 7.07225C11.7882 7.12518 11.8322 7.18877 11.8623 7.25918C11.8924 7.32958 11.9079 7.40533 11.9079 7.48189C11.9079 7.55845 11.8924 7.63423 11.8623 7.70464C11.8322 7.77504 11.7882 7.83864 11.7329 7.89157C11.6775 7.9445 11.6121 7.98568 11.5404 8.01262C11.4687 8.03956 11.3924 8.05171 11.3159 8.04833H6.68304C6.60656 8.05171 6.53018 8.03956 6.45851 8.01262C6.38685 7.98568 6.32138 7.9445 6.26606 7.89157C6.21074 7.83864 6.16671 7.77504 6.13663 7.70464C6.10655 7.63423 6.09105 7.55845 6.09105 7.48189C6.09105 7.40533 6.10655 7.32958 6.13663 7.25918C6.16671 7.18877 6.21074 7.12518 6.26606 7.07225C6.32138 7.01932 6.38685 6.97814 6.45851 6.9512C6.53018 6.92426 6.60656 6.91211 6.68304 6.91548H11.3159ZM11.3159 9.93675C11.3924 9.93337 11.4687 9.94552 11.5404 9.97247C11.6121 9.99941 11.6775 10.0406 11.7329 10.0935C11.7882 10.1464 11.8322 10.21 11.8623 10.2804C11.8924 10.3509 11.9079 10.4266 11.9079 10.5032C11.9079 10.5798 11.8924 10.6555 11.8623 10.7259C11.8322 10.7963 11.7882 10.8599 11.7329 10.9128C11.6775 10.9658 11.6121 11.0069 11.5404 11.0339C11.4687 11.0608 11.3924 11.073 11.3159 11.0696H6.68304C6.60656 11.073 6.53018 11.0608 6.45851 11.0339C6.38685 11.0069 6.32138 10.9658 6.26606 10.9128C6.21074 10.8599 6.16671 10.7963 6.13663 10.7259C6.10655 10.6555 6.09105 10.5798 6.09105 10.5032C6.09105 10.4266 6.10655 10.3509 6.13663 10.2804C6.16671 10.21 6.21074 10.1464 6.26606 10.0935C6.32138 10.0406 6.38685 9.99941 6.45851 9.97247C6.53018 9.94552 6.60656 9.93337 6.68304 9.93675H11.3159ZM1.86264 7.67326C1.78736 7.67414 1.71268 7.66016 1.64282 7.63213C1.57295 7.60409 1.50931 7.56256 1.45552 7.5099C1.40173 7.45724 1.35882 7.39448 1.32932 7.32523C1.29981 7.25597 1.28426 7.18159 1.28354 7.10632V4.45894C1.28598 4.18306 1.3429 3.91037 1.45097 3.65652C1.55905 3.40268 1.71619 3.17268 1.91337 2.9797C2.11054 2.78672 2.34387 2.63457 2.59999 2.53198C2.8561 2.4294 3.12996 2.37839 3.40584 2.38188H14.5931C14.8689 2.37853 15.1426 2.42967 15.3986 2.53232C15.6546 2.63497 15.8878 2.78714 16.0849 2.9801C16.2819 3.17307 16.4389 3.40302 16.5469 3.65679C16.6549 3.91057 16.7118 4.18315 16.7143 4.45894V7.10632C16.7136 7.1815 16.698 7.25577 16.6686 7.32496C16.6392 7.39414 16.5964 7.45685 16.5427 7.5095C16.489 7.56214 16.4255 7.60373 16.3558 7.63183C16.286 7.65993 16.2114 7.67399 16.1363 7.67326C15.7852 7.67326 15.4485 7.81272 15.2003 8.06096C14.9521 8.3092 14.8126 8.64589 14.8126 8.99695C14.8126 9.34801 14.9521 9.68471 15.2003 9.93295C15.4485 10.1812 15.7852 10.3206 16.1363 10.3206C16.2114 10.3199 16.286 10.334 16.3558 10.3621C16.4255 10.3902 16.489 10.4318 16.5427 10.4844C16.5964 10.5371 16.6392 10.5998 16.6686 10.6689C16.698 10.7381 16.7136 10.8124 16.7143 10.8876V13.535C16.7118 13.8108 16.6549 14.0833 16.5469 14.3371C16.4389 14.5909 16.2819 14.8208 16.0849 15.0138C15.8878 15.2068 15.6546 15.3589 15.3986 15.4616C15.1426 15.5642 14.8689 15.6154 14.5931 15.612H3.40584C3.12821 15.6163 2.8525 15.5653 2.59473 15.4621C2.33697 15.3588 2.10228 15.2054 1.90431 15.0107C1.70634 14.8161 1.54903 14.584 1.44152 14.328C1.334 14.072 1.27842 13.7972 1.27802 13.5195V10.8722C1.27874 10.7969 1.29432 10.7225 1.32383 10.6532C1.35334 10.584 1.39621 10.5212 1.45 10.4686C1.50379 10.4159 1.56743 10.3744 1.6373 10.3463C1.70716 10.3183 1.78188 10.3043 1.85715 10.3052C2.20821 10.3052 2.54487 10.1657 2.79311 9.91749C3.04135 9.66926 3.1808 9.33256 3.1808 8.9815C3.1808 8.63044 3.04135 8.29378 2.79311 8.04554C2.54487 7.7973 2.20821 7.65785 1.85715 7.65785L1.86264 7.67326ZM4.33463 8.99695C4.33017 9.55887 4.13548 10.1027 3.78232 10.5398C3.42917 10.9769 2.93837 11.2814 2.38993 11.4038V13.5636C2.39011 13.6891 2.41535 13.8133 2.46422 13.9288C2.5131 14.0444 2.58461 14.149 2.67451 14.2365C2.85834 14.4157 3.10498 14.5159 3.36171 14.5156H14.6361C14.8929 14.516 15.1395 14.4158 15.3233 14.2365C15.4132 14.1489 15.4846 14.0443 15.5335 13.9288C15.5824 13.8132 15.6076 13.6891 15.6079 13.5636V11.4038C15.0578 11.2848 14.5651 10.981 14.2118 10.543C13.8584 10.105 13.6656 9.5592 13.6656 8.99641C13.6656 8.43363 13.8584 7.88779 14.2118 7.44978C14.5651 7.01177 15.0578 6.70797 15.6079 6.58895V4.42918C15.6076 4.30373 15.5824 4.17959 15.5335 4.06404C15.4846 3.9485 15.4132 3.84385 15.3233 3.7563C15.1392 3.57759 14.8927 3.47787 14.6361 3.47835H3.36171C3.10516 3.47787 2.85859 3.57759 2.67451 3.7563C2.58476 3.84393 2.51336 3.94858 2.46449 4.06411C2.41563 4.17964 2.39029 4.30375 2.38993 4.42918V6.58895C2.93826 6.71179 3.42882 7.01666 3.78175 7.45392C4.13468 7.89117 4.32916 8.43505 4.33352 8.99695H4.33463Z" fill="#1E2329"/>
</svg>
