<svg width="18" height="18" viewBox="0 0 18 18" fill="none" xmlns="http://www.w3.org/2000/svg">
<path d="M17.2411 4.09589L10.7178 3.41708C10.6073 3.40589 10.4958 3.4166 10.3894 3.44862C10.283 3.48064 10.1839 3.53334 10.0979 3.60368C10.012 3.67401 9.94074 3.76062 9.88828 3.85854C9.83582 3.95646 9.80317 4.06377 9.79224 4.17432L8.79334 13.9065C8.76991 14.1297 8.83583 14.3532 8.97679 14.5279C9.11776 14.7026 9.32222 14.8143 9.54538 14.8386L16.0686 15.5174C16.1791 15.5286 16.2909 15.5179 16.3972 15.4858C16.5036 15.4538 16.6025 15.4011 16.6885 15.3308C16.7745 15.2604 16.8457 15.1738 16.8982 15.0759C16.9506 14.978 16.9833 14.8707 16.9942 14.7601L17.9933 5.02797C18.0167 4.80473 17.9506 4.58128 17.8097 4.40658C17.6687 4.23189 17.4642 4.12017 17.2411 4.09589ZM16.5173 7.07084C16.0793 7.01341 15.6607 7.28682 15.2613 7.89107L13.9576 9.9262L13.7249 11.7094C13.5955 12.323 13.8016 12.6393 14.3432 12.6582L14.2726 13.2007L11.2822 12.806L11.353 12.2635C11.9049 12.3894 12.1972 12.1388 12.2298 11.5114L12.4264 9.99949L11.5664 7.20582C11.3658 6.65386 11.1088 6.35687 10.7951 6.31487L10.8709 5.73378L13.6786 6.10405L13.6028 6.68515C13.3354 6.65001 13.1726 6.66799 13.1143 6.73913C13.0286 6.80684 13.0329 6.96498 13.1271 7.21353L13.6825 9.21783L14.6646 7.65193C14.7937 7.50585 14.8824 7.32857 14.9219 7.13767C14.945 6.95768 14.738 6.83855 14.3009 6.78027L14.3767 6.19917L16.6009 6.49229L16.5173 7.07084Z" fill="#B1BAD3"/>
<path d="M9.83585 12.8072L8.12854 3.17783C8.10959 3.06841 8.06921 2.96381 8.00974 2.87003C7.95026 2.77624 7.87293 2.69513 7.78202 2.63134C7.69112 2.56756 7.5885 2.52234 7.48008 2.49831C7.37166 2.47428 7.25954 2.47191 7.1502 2.49131L0.69508 3.64836C0.474116 3.68872 0.278165 3.81506 0.150196 3.99967C0.0222273 4.18427 -0.0273254 4.41208 0.012406 4.63316L1.71972 14.2625C1.73866 14.3719 1.77905 14.4765 1.83852 14.5703C1.89799 14.6641 1.97533 14.7452 2.06624 14.809C2.15714 14.8728 2.25976 14.918 2.36818 14.942C2.4766 14.966 2.58872 14.9684 2.69806 14.949L9.15318 13.7919C9.37414 13.7516 9.57009 13.6252 9.69806 13.4406C9.82603 13.256 9.87558 13.0282 9.83585 12.8072ZM7.11802 11.7787L4.62006 9.13027L4.20732 9.7088L4.44916 10.9623C4.50059 11.4877 4.83903 11.6891 5.4647 11.5665L5.56498 12.0808L2.38827 12.703L2.28799 12.1888C2.89909 12.1202 3.12355 11.7954 2.96156 11.2143L2.22113 7.37925C2.14999 6.75529 1.83074 6.52431 1.26335 6.6863L1.15789 6.14119L4.26272 5.53309L4.36944 6.08591C3.75834 6.15448 3.53627 6.49131 3.7034 7.09641L4.0518 8.90272C4.69581 8.02588 5.22908 7.07288 5.63952 6.06534C5.68324 5.90335 5.4887 5.86478 5.05588 5.94963L4.94916 5.39681L7.72866 4.85171L7.83538 5.40453C7.47695 5.4736 7.13982 5.62594 6.85108 5.84925C6.56233 6.07257 6.33009 6.36061 6.17311 6.69016L5.45575 7.82536L7.9319 10.3632C8.07353 10.5545 8.26673 10.7014 8.48902 10.7866C8.71131 10.8718 8.95338 10.8917 9.18661 10.844L9.28689 11.3583L7.11802 11.7787Z" fill="#B1BAD3"/>
</svg>
