<svg width="18" height="18" viewBox="0 0 18 18" fill="none" xmlns="http://www.w3.org/2000/svg">
<path d="M8.81743 16.7671C8.73364 16.7019 8.66774 16.6165 8.62586 16.5189L8.60014 16.4714C7.72414 14.9508 6.84814 13.4294 5.97214 11.9071C5.95414 11.8762 5.94 11.8441 5.92329 11.8119C5.90657 11.7798 5.91043 11.7837 5.904 11.7708C5.72571 11.4622 5.54657 11.1537 5.36657 10.8451C5.03486 10.2708 4.70314 9.69565 4.37143 9.11965C4.18757 8.8008 4.00371 8.4768 3.825 8.15794C3.75043 8.02937 3.67586 7.89308 3.6 7.75937L3.54857 7.66551L3.81214 7.21037C4.041 6.81823 4.27757 6.41194 4.50514 6.01208L4.572 5.90408V5.89637C4.08729 5.89637 3.60643 5.89637 3.12686 5.90665H2.54057L2.49429 5.81151C2.31171 5.50551 2.13943 5.2008 1.95943 4.88965C1.665 4.38694 1.36929 3.8778 1.07871 3.36737C0.865286 3.00608 0.654429 2.63965 0.443571 2.27323C0.320143 2.04951 0.189 1.82708 0.0604286 1.60208L0 1.49537L0.0758571 1.39765C0.102798 1.36231 0.137654 1.33378 0.177624 1.31435C0.217594 1.29493 0.261564 1.28515 0.306 1.2858H16.812C16.8429 1.2858 16.875 1.2858 16.9046 1.2858H18L17.8419 1.57123C17.7596 1.70751 17.6786 1.8438 17.6027 1.97751C17.5101 2.14594 17.4137 2.30794 17.3224 2.47123L11.6254 12.3571C11.6254 12.3571 11.6254 12.3674 11.6164 12.3789C11.5868 12.4527 11.5322 12.5136 11.4621 12.5512L11.3053 12.6258L11.2191 12.4715C11.1214 12.3044 11.0199 12.1347 10.9234 11.9572C10.6714 11.5445 10.4143 11.1009 10.1571 10.6715C10.1204 10.609 10.1028 10.5371 10.1065 10.4646C10.1101 10.3922 10.1349 10.3225 10.1777 10.2639L10.1867 10.2485L10.9671 8.89465C11.3747 8.19265 11.7759 7.49451 12.1783 6.79251L12.4354 6.35408C12.9587 5.43865 13.4884 4.52194 14.013 3.60523H13.7893C13.7379 3.60523 13.6813 3.60523 13.6324 3.60523H3.86871L5.01429 5.57108H5.07857H10.44L10.4747 5.71508C10.4856 5.76302 10.4854 5.8128 10.4743 5.86068C10.4632 5.90856 10.4413 5.95329 10.4104 5.99151L10.3989 6.00823C10.2536 6.26537 10.107 6.51351 9.96043 6.76551C9.70329 7.21423 9.43329 7.67708 9.17486 8.1348C9.13767 8.20973 9.07911 8.27196 9.00656 8.31361C8.93401 8.35526 8.85075 8.37446 8.76729 8.3688C8.34557 8.3688 7.93157 8.3688 7.51114 8.3688H6.59057C6.81429 8.7588 7.03543 9.14451 7.254 9.52594L7.89686 10.6574L8.21443 11.1987C8.44671 11.5955 8.67857 11.9924 8.91 12.3892C9.26143 12.9952 9.61286 13.6017 9.96429 14.2085L10.242 14.6881L10.1893 14.7819C9.825 15.4231 9.45857 16.0672 9.09 16.7144L8.98586 16.8944L8.81743 16.7671Z" fill="#B1BAD3"/>
</svg>
