<svg width="18" height="19" viewBox="0 0 18 19" fill="none" xmlns="http://www.w3.org/2000/svg">
<path d="M3.61791 3.70157C3.30659 3.70157 3.00804 3.57788 2.78789 3.35774C2.56775 3.13759 2.4441 2.83904 2.4441 2.52772C2.4441 2.21639 2.56775 1.9178 2.78789 1.69766C3.00804 1.47752 3.30659 1.35383 3.61791 1.35383H7.12789V0H3.61791C2.94769 0 2.3049 0.266247 1.83099 0.740165C1.35707 1.21408 1.09082 1.85683 1.09082 2.52705C1.09082 3.19727 1.35707 3.84006 1.83099 4.31398C2.3049 4.7879 2.94769 5.05414 3.61791 5.05414H4.10908V3.70027L3.61791 3.70157Z" fill="#B1BAD3"/>
<path d="M4.60134 5.00907C4.91266 5.00907 5.21121 5.13272 5.43135 5.35286C5.65149 5.573 5.77515 5.87159 5.77515 6.18292C5.77515 6.49424 5.65149 6.79279 5.43135 7.01294C5.21121 7.23308 4.91266 7.35677 4.60134 7.35677H1.45642V8.71064H4.60134C5.26169 8.69574 5.88993 8.42295 6.35169 7.95066C6.81345 7.47836 7.072 6.84407 7.072 6.18355C7.072 5.52303 6.81345 4.88877 6.35169 4.41647C5.88993 3.94418 5.26169 3.67139 4.60134 3.65649H3.619V5.01032L4.60134 5.00907Z" fill="#B1BAD3"/>
<path d="M8.46497 6.09683L12.2926 0.393433L16.6871 8.39572H14.6365L12.632 4.9114L8.46497 6.09683Z" fill="#B1BAD3"/>
<path d="M8.18076 6.72044L7.36047 8.33272H9.62075L10.9566 6.05188L8.18076 6.72044Z" fill="#B1BAD3"/>
<path d="M8.68616 15.3282L12.5138 9.62476L16.9083 17.627H14.8589L12.8544 14.1428L8.68616 15.3282Z" fill="#B1BAD3"/>
<path d="M8.40085 16.0137L7.58057 17.6259H9.84085L11.1767 15.3451L8.40085 16.0137Z" fill="#B1BAD3"/>
<path d="M7.6178 12.1615C7.6178 11.8333 7.55311 11.5083 7.4275 11.2051C7.30189 10.9018 7.11781 10.6263 6.88572 10.3942C6.65362 10.1621 6.37809 9.97798 6.07485 9.85237C5.7716 9.72676 5.44656 9.66211 5.11833 9.66211H1.41162V18.0013H5.11833C5.44656 18.0013 5.7716 17.9366 6.07485 17.811C6.37809 17.6854 6.65362 17.5013 6.88572 17.2692C7.11781 17.0371 7.30189 16.7616 7.4275 16.4583C7.55311 16.1551 7.6178 15.8301 7.6178 15.5019C7.19772 15.0466 6.96443 14.4498 6.96443 13.8304C6.96443 13.211 7.19772 12.6142 7.6178 12.159V12.1615ZM3.03548 11.286H5.11833C5.33719 11.2843 5.5487 11.3647 5.71112 11.5114C5.87354 11.6581 5.97507 11.8604 5.99559 12.0783C6.0161 12.2962 5.95412 12.5139 5.82193 12.6883C5.68973 12.8627 5.49696 12.9812 5.28163 13.0204C5.22635 13.0204 5.1749 13.0037 5.11833 13.0037H3.03548V11.286ZM5.11833 16.3774H3.03548V14.661H5.11833C5.17362 14.661 5.22635 14.6481 5.28163 14.6443C5.49696 14.6834 5.68973 14.802 5.82193 14.9764C5.95412 15.1508 6.0161 15.3685 5.99559 15.5864C5.97507 15.8043 5.87354 16.0066 5.71112 16.1533C5.5487 16.3 5.33719 16.3804 5.11833 16.3787V16.3774Z" fill="#B1BAD3"/>
</svg>
