<svg width="18" height="18" viewBox="0 0 18 18" fill="none" xmlns="http://www.w3.org/2000/svg">
<path d="M9.16973 0.758521H3.85718V13.6157H7.10874V10.2934H9.16589C10.4574 10.3199 11.7065 9.83272 12.639 8.93881C13.5715 8.04489 14.111 6.81739 14.139 5.52595C14.111 4.23519 13.572 3.00828 12.6404 2.11448C11.7087 1.22068 10.4605 0.733015 9.16973 0.758521ZM8.901 7.39281H7.10874V3.59738H8.901C9.41515 3.58669 9.91252 3.78057 10.2838 4.13642C10.6551 4.49226 10.8699 4.98095 10.881 5.49509C10.8699 6.00924 10.6551 6.49792 10.2838 6.85377C9.91252 7.20961 9.41515 7.40349 8.901 7.39281Z" fill="#B1BAD3"/>
<path d="M14.1429 14.67H3.85718V17.2415H14.1429V14.67Z" fill="#B1BAD3"/>
</svg>
