<?xml version="1.0" standalone="no"?>
<svg id="侧边icon/双赢棋牌" width="20" height="20" viewBox="0 0 20 20" fill="none" xmlns="http://www.w3.org/2000/svg" style="max-width: 100%; max-height: 100%;">
<path d="M5.70792 15.5975L5.70561 15.5958C4.83267 14.648 3.77103 12.8034 4.60867 11.1191C5.14334 10.044 6.38146 9.01247 7.82943 8.16186C5.86141 9.64764 4.91824 11.729 5.43131 13.3678C5.43179 13.3684 5.43228 13.369 5.43276 13.3696C5.70275 14.2313 6.37463 14.9697 7.51132 15.4342C7.30025 16.4057 6.12913 17.0383 5.1992 17.326C5.26855 17.5191 5.45859 17.6858 5.72136 17.8275C6.11648 18.747 9.27071 19.053 9.77326 18.8975C10.446 18.8408 10.0143 18.415 9.65889 18.0646C9.5223 17.9298 9.39697 17.8062 9.34996 17.719C10.8738 17.4047 10.9585 16.2262 10.9585 16.2262C10.9585 16.2262 10.8008 16.0964 10.4898 15.9541C11.1079 15.9619 11.786 15.9253 12.5267 15.8379C12.5272 15.8373 12.5276 15.8367 12.5281 15.8362L12.5665 15.8317C12.2279 16.4603 10.8733 17.5602 9.85736 17.7174C11.8977 18.7702 14.9505 18.5062 16.3237 17.9625C16.0608 17.8733 15.553 17.8325 14.4448 17.8894C14.6 17.8489 14.6832 17.7975 14.6832 17.7975C14.6832 17.7975 16.5457 17.1689 17.5617 12.9262C17.4628 12.8344 17.2483 12.6889 17.087 12.5839C16.9329 12.4598 16.7978 12.3762 16.7978 12.3762C16.7978 12.3762 14.8134 13.7559 12.6495 13.8596C12.6177 13.8611 12.5858 13.8624 12.5539 13.8634C12.5371 13.8611 12.5209 13.8592 12.5076 13.86C12.499 13.8604 12.4915 13.8619 12.4857 13.865C12.1753 13.8705 11.862 13.8492 11.5499 13.7905C9.01005 13.319 8.67141 11.4334 11.2112 9.862C13.751 8.29062 19 5.14786 19 5.14786C19 5.14786 18.8612 4.8274 18.6631 4.36081L18.5968 4.20189C18.3656 3.65132 18.0693 2.94556 17.8151 2.31936C17.4324 1.37496 17.1463 1.05125 16.7399 1.34982C16.8349 1.52905 16.9321 1.72679 17.0346 1.93526C17.4308 2.74117 17.9058 3.70742 18.6362 4.38406C17.3734 5.48452 15.8005 6.39589 14.2224 7.31021C13.808 7.55031 13.3933 7.79061 12.9837 8.03459C13.3936 7.79036 13.8086 7.54982 14.2232 7.30948C15.8007 6.39514 17.373 5.4838 18.635 4.38419C17.9074 3.71017 17.4343 2.74879 17.0386 1.94475C16.9343 1.7328 16.8354 1.53179 16.7386 1.34985C16.6065 1.44728 16.4592 1.61384 16.2899 1.84798C15.9339 2.3435 15.2973 3.09945 14.036 4.11583C13.759 3.40484 13.3653 2.40427 13.1594 1.92654C12.9996 1.55572 12.8397 1.42992 12.6621 1.48307L12.6501 1.45511C12.3114 0.669416 11.9728 0.983693 11.4648 1.76938C10.9569 2.55507 8.41706 5.06928 4.18403 7.26922C0.962819 8.9433 -0.101294 12.6193 2.33473 14.4887C3.07869 15.3246 4.34577 15.9282 6.21722 16.069C6.06906 15.959 5.89316 15.7985 5.70792 15.5975ZM12.9684 15.1201C12.9688 15.1195 12.9691 15.1189 12.9695 15.1183C11.6407 15.3496 10.5416 15.4061 9.62816 15.344C9.62877 15.3443 9.62938 15.3445 9.62998 15.3447C10.5428 15.4068 11.641 15.3506 12.9684 15.1201ZM8.18595 15.1193C8.18595 15.1193 8.18595 15.1193 8.18595 15.1193ZM9.29902 10.9571C8.50497 12.5805 10.4787 13.932 12.1214 13.8996C10.4789 13.9315 8.50607 12.5801 9.29902 10.9571Z" fill="#8E949C" stroke-dasharray="0,0,0,146.50807189941406"><animate attributeType="XML" attributeName="stroke-dasharray" repeatCount="1" dur="2.5s" values="0,0,0,146.50807189941406; 
          0,73.25403594970703,73.25403594970703,0; 
          146.50807189941406,0,0,0" keyTimes="0; 0.5; 1" fill="freeze"></animate></path>
<path d="M9.85677 17.7189C10.3647 18.6618 13.4125 19.6046 16.9683 18.5046C16.7717 18.4138 16.7032 18.3122 16.6391 18.2172C16.5735 18.1198 16.5125 18.0293 16.3231 17.9641C14.95 18.5078 11.8988 18.7702 9.85677 17.7189Z" fill="#8E949C" stroke-dasharray="0,0,0,14.986940383911133"><animate attributeType="XML" attributeName="stroke-dasharray" repeatCount="1" dur="2.5s" values="0,0,0,14.986940383911133; 
          0,7.493470191955566,7.493470191955566,0; 
          14.986940383911133,0,0,0" keyTimes="0; 0.5; 1" fill="freeze"></animate></path>
<setting>{"type":"direct","speed":20,"random":1,"shift":1,"size":1,"rupture":50}</setting></svg>