<svg width="18" height="18" viewBox="0 0 18 18" fill="none" xmlns="http://www.w3.org/2000/svg">
<path d="M12.8563 2.82375C12.8561 3.02828 12.7747 3.22436 12.63 3.36889L7.00501 8.99518L12.63 14.6228C12.7026 14.6942 12.7602 14.7793 12.7997 14.8732C12.8392 14.9671 12.8597 15.0678 12.8601 15.1696C12.8604 15.2715 12.8406 15.3724 12.8018 15.4665C12.7629 15.5606 12.7059 15.6462 12.6338 15.7181C12.5618 15.7901 12.4762 15.8471 12.382 15.8858C12.2878 15.9245 12.1869 15.9442 12.0851 15.9437C11.9832 15.9433 11.8825 15.9226 11.7887 15.883C11.6949 15.8434 11.6098 15.7857 11.5384 15.713L5.36701 9.54161C5.23115 9.405 5.15133 9.22251 5.14324 9.03002C5.13515 8.83753 5.19938 8.64898 5.32329 8.50146L5.32329 8.48089L5.33229 8.47189L5.33229 8.45903L11.5037 2.28761C11.5787 2.20989 11.6692 2.14879 11.7693 2.10826C11.8694 2.06773 11.9769 2.04867 12.0849 2.05232C12.2894 2.0525 12.4855 2.13389 12.63 2.27861C12.7747 2.42314 12.8561 2.61922 12.8563 2.82375Z" fill="#B1BAD3"/>
</svg>
