<svg width="36" height="31" viewBox="0 0 36 31" fill="none" xmlns="http://www.w3.org/2000/svg">
<path fill-rule="evenodd" clip-rule="evenodd" d="M1.2207e-05 4.5C1.2207e-05 2.29086 1.79087 0.5 4.00001 0.5H32C34.2091 0.5 36 2.29086 36 4.5V26.5C36 28.7091 34.2091 30.5 32 30.5H4.00001C1.79087 30.5 1.2207e-05 28.7091 1.2207e-05 26.5L0 23.44H8.20309C9.24215 23.44 10.2437 23.0518 11.0113 22.3515L11.6807 21.7408C12.9653 20.5689 14.9474 20.625 16.1637 21.8677C17.4203 23.1517 19.4834 23.1628 20.7538 21.8924L22.3432 20.3029C24.1055 18.5405 26.9107 18.3836 28.8586 19.9386C29.7259 20.6309 30.8028 21.008 31.9126 21.008H36V17.664H33.8249C32.3438 17.664 30.9066 17.1611 29.7486 16.2376L28.9361 15.5897C26.9154 13.9782 24.0274 14.0573 22.098 15.7771L20.7463 16.9819C19.447 18.1401 17.4762 18.1069 16.2166 16.9056C14.9555 15.703 12.9821 15.6713 11.683 16.8327L9.77382 18.5397C8.65278 19.5419 7.20176 20.096 5.69801 20.096H0L1.2207e-05 4.5ZM8.85244 12.2C10.3192 12.2 11.5082 10.9912 11.5082 9.50005C11.5082 8.00888 10.3192 6.80005 8.85244 6.80005C7.38572 6.80005 6.19671 8.00888 6.19671 9.50005C6.19671 10.9912 7.38572 12.2 8.85244 12.2Z" fill="#557086"/>
</svg>
