<svg width="14" height="14" viewBox="0 0 14 14" fill="none" xmlns="http://www.w3.org/2000/svg">
<path d="M8 7L11.8 3.2C11.9 3.1 12 2.9 12 2.7C12 2.5 11.9 2.3 11.8 2.2C11.7 2.1 11.7 2.1 11.6 2C11.5 2 11.4 2 11.3 2C11.2 2 11.1 2 11 2.1C10.9 2.1 10.8 2.2 10.8 2.3L7 6L3.2 2.2C3.1 2.1 3.1 2.1 3 2.1C2.9 2 2.8 2 2.7 2C2.6 2 2.5 2 2.4 2.1C2.3 2.2 2.3 2.1 2.2 2.2C2.1 2.3 2 2.5 2 2.7C2 2.9 2.1 3.1 2.2 3.2L6 7L2.2 10.8C2.1 10.9 2 11.1 2 11.3C2 11.5 2.1 11.7 2.2 11.8C2.3 11.9 2.3 11.9 2.4 12C2.5 12 2.6 12 2.7 12C2.8 12 2.9 12 3 11.9C3.1 11.9 3.2 11.8 3.2 11.7L7 8L10.8 11.8C10.9 11.9 10.9 11.9 11 12C11.1 12 11.2 12.1 11.3 12.1C11.4 12.1 11.5 12.1 11.6 12C11.7 12 11.8 11.9 11.8 11.8C11.9 11.7 12 11.5 12 11.3C12 11.1 11.9 10.9 11.8 10.8L8 7Z" fill="#1E2329"/>
</svg>
