<svg width="16" height="16" viewBox="0 0 16 16" fill="none" xmlns="http://www.w3.org/2000/svg">
<path fill-rule="evenodd" clip-rule="evenodd" d="M10.2066 9.11616L14.4001 13.3096L13.3096 14.4001L9.11616 10.2066C8.33309 10.7701 7.38901 11.1141 6.3571 11.1141C3.72977 11.1141 1.6001 8.98443 1.6001 6.3571C1.6001 3.72977 3.72977 1.6001 6.3571 1.6001C8.98443 1.6001 11.1141 3.72977 11.1141 6.3571C11.1141 7.38901 10.7701 8.33309 10.2066 9.11616ZM6.3571 3.06379C4.5348 3.06379 3.06379 4.5348 3.06379 6.3571C3.06379 8.1794 4.5348 9.65041 6.3571 9.65041C8.1794 9.65041 9.65041 8.1794 9.65041 6.3571C9.65041 4.5348 8.1794 3.06379 6.3571 3.06379Z" fill="#BEC1CC"/>
</svg>
