<svg width="291" height="114" viewBox="0 0 291 114" fill="none" xmlns="http://www.w3.org/2000/svg">
<path d="M3.19553 4.54387C2.92926 4.85452 2.60752 5.13189 2.25249 5.36488C1.89746 5.58677 1.53134 5.75319 1.16521 5.86414V6.552C1.91965 6.33011 2.55204 5.9418 3.0624 5.38707V12.4655H3.75027V4.54387H3.19553ZM8.38211 4.38855C7.42797 4.38855 6.71791 4.82124 6.25194 5.69772C5.86362 6.39668 5.67502 7.32863 5.67502 8.50466C5.67502 9.6696 5.86362 10.6016 6.25194 11.3116C6.71791 12.177 7.42797 12.6208 8.38211 12.6208C9.33625 12.6208 10.0463 12.177 10.5123 11.3116C10.8895 10.6016 11.0892 9.6696 11.0892 8.50466C11.0892 7.32863 10.8895 6.39668 10.5123 5.69772C10.0463 4.82124 9.33625 4.38855 8.38211 4.38855ZM8.38211 4.98766C9.13655 4.98766 9.69128 5.37597 10.0352 6.16369C10.2793 6.74061 10.4124 7.52833 10.4124 8.50466C10.4124 9.48099 10.2793 10.2576 10.0352 10.8456C9.69128 11.6223 9.13655 12.0217 8.38211 12.0217C7.61658 12.0217 7.06185 11.6223 6.72901 10.8456C6.48493 10.2576 6.36288 9.48099 6.36288 8.50466C6.36288 7.52833 6.48493 6.74061 6.72901 6.16369C7.06185 5.37597 7.61658 4.98766 8.38211 4.98766ZM12.4051 4.38855V12.4655H13.0708V10.4351L14.1692 9.43661L16.5434 12.4655H17.4199L14.6463 9.00392L17.1647 6.72952H16.255L13.0708 9.62522V4.38855H12.4051Z" fill="#718EBF"/>
<path d="M10.9719 30.8937L6.88905 36.3079V36.9625H10.9719V38.8153H11.6265V36.9625H12.9689V36.3967H11.6265V30.8937H10.9719ZM10.9386 31.8146H10.9719V36.3967H7.49926L10.9386 31.8146ZM13.952 30.7384V38.8153H14.6177V36.785L15.7161 35.7865L18.0903 38.8153H18.9668L16.1931 35.3538L18.7116 33.0794H17.8019L14.6177 35.9751V30.7384H13.952Z" fill="#718EBF"/>
<path d="M9.02884 57.0881C8.25221 57.0881 7.63091 57.3433 7.16494 57.8537C6.67677 58.364 6.43269 59.063 6.43269 59.9506H7.12056C7.12056 59.2183 7.29807 58.6525 7.6531 58.2642C7.98594 57.8759 8.44082 57.6872 9.01774 57.6872C9.56138 57.6872 9.99407 57.8315 10.3158 58.1199C10.6376 58.4084 10.804 58.8189 10.804 59.3403C10.804 59.884 10.5821 60.3943 10.1494 60.8603C9.9386 61.0711 9.49481 61.4261 8.80694 61.9143C8.01922 62.4579 7.46449 62.9128 7.14275 63.2789C6.6102 63.867 6.35503 64.4994 6.35503 65.165H11.5029V64.5437H7.18712C7.30917 63.9335 7.93047 63.2457 9.06212 62.4801C9.90531 61.9032 10.449 61.4816 10.7041 61.2153C11.2256 60.6606 11.4918 60.0393 11.4918 59.3514C11.4918 58.6636 11.2589 58.1199 10.7929 57.7094C10.3269 57.2878 9.73889 57.0881 9.02884 57.0881ZM12.952 57.0881V65.165H13.6177V63.1347L14.7161 62.1362L17.0903 65.165H17.9668L15.1931 61.7035L17.7116 59.4291H16.8019L13.6177 62.3248V57.0881H12.952Z" fill="#718EBF"/>
<path d="M13.8 84.8247C12.8458 84.8247 12.1358 85.2574 11.6698 86.1339C11.2815 86.8328 11.0929 87.7648 11.0929 88.9408C11.0929 90.1058 11.2815 91.0377 11.6698 91.7478C12.1358 92.6132 12.8458 93.0569 13.8 93.0569C14.7541 93.0569 15.4642 92.6132 15.9301 91.7478C16.3074 91.0377 16.5071 90.1058 16.5071 88.9408C16.5071 87.7648 16.3074 86.8328 15.9301 86.1339C15.4642 85.2574 14.7541 84.8247 13.8 84.8247ZM13.8 85.4238C14.5544 85.4238 15.1091 85.8121 15.4531 86.5998C15.6971 87.1768 15.8303 87.9645 15.8303 88.9408C15.8303 89.9172 15.6971 90.6938 15.4531 91.2818C15.1091 92.0584 14.5544 92.4578 13.8 92.4578C13.0344 92.4578 12.4797 92.0584 12.1469 91.2818C11.9028 90.6938 11.7807 89.9172 11.7807 88.9408C11.7807 87.9645 11.9028 87.1768 12.1469 86.5998C12.4797 85.8121 13.0344 85.4238 13.8 85.4238Z" fill="#718EBF"/>
<path d="M44.0779 101.467C43.2791 101.467 42.6134 101.633 42.1031 101.977C41.5262 102.343 41.2488 102.865 41.2488 103.553C41.2488 104.196 41.5483 104.695 42.1586 105.039C42.4248 105.195 43.035 105.406 43.9781 105.672C44.8767 105.916 45.4537 106.127 45.7199 106.282C46.2525 106.582 46.5298 107.003 46.5298 107.547C46.5298 108.013 46.308 108.39 45.8864 108.667C45.4537 108.934 44.8878 109.078 44.1889 109.078C43.4566 109.078 42.8908 108.911 42.4914 108.59C42.0476 108.224 41.7924 107.669 41.7148 106.925H41.0491C41.1157 107.88 41.4485 108.601 42.0476 109.078C42.5691 109.488 43.2902 109.699 44.2 109.699C45.0986 109.699 45.8198 109.511 46.3634 109.133C46.9293 108.734 47.2177 108.19 47.2177 107.514C47.2177 106.792 46.8849 106.238 46.2303 105.849C45.8753 105.627 45.1985 105.383 44.1889 105.095C43.4122 104.873 42.9019 104.695 42.6689 104.585C42.1696 104.318 41.9256 103.974 41.9256 103.531C41.9256 103.031 42.1253 102.654 42.5469 102.41C42.913 102.188 43.4122 102.077 44.0557 102.077C44.7436 102.077 45.2761 102.232 45.6534 102.554C46.0306 102.876 46.2636 103.342 46.3523 103.963H47.0291C46.9625 103.142 46.663 102.521 46.1415 102.099C45.6312 101.678 44.9433 101.467 44.0779 101.467Z" fill="#718EBF"/>
<path d="M29.5391 80.9017C29.5391 78.6039 31.4018 76.7412 33.6996 76.7412H53.1152C55.413 76.7412 57.2757 78.6039 57.2757 80.9017V93.3832H29.5391V80.9017Z" fill="#E8F2FF"/>
<path d="M72.5198 101.622V109.544H73.1965V102.743H73.2409L76.2032 109.544H76.8578L79.8311 102.743H79.8644V109.544H80.5412V101.622H79.6425L76.5582 108.69H76.5249L73.4184 101.622H72.5198Z" fill="#718EBF"/>
<path d="M62.8232 72.5808C62.8232 70.283 64.686 68.4203 66.9837 68.4203H86.3994C88.6972 68.4203 90.5599 70.283 90.5599 72.5808V93.3833H62.8232V72.5808Z" fill="#E8F2FF"/>
<path d="M107.456 101.622V102.221H110.363V109.544H111.04V102.221H113.947V101.622H107.456Z" fill="#718EBF"/>
<path d="M96.1074 39.2968C96.1074 36.9991 97.9701 35.1364 100.268 35.1364H119.684C121.981 35.1364 123.844 36.9991 123.844 39.2968V93.3833H96.1074V39.2968Z" fill="#E8F2FF"/>
<path d="M139.181 101.622L141.455 109.544H142.254L144.195 102.576H144.229L146.17 109.544H146.969L149.243 101.622H148.478L146.581 108.634H146.547L144.606 101.622H143.818L141.877 108.634H141.843L139.946 101.622H139.181Z" fill="#718EBF"/>
<path d="M129.391 54.552C129.391 52.2542 131.253 50.3915 133.551 50.3915H152.967C155.265 50.3915 157.127 52.2542 157.127 54.552V93.3832H129.391V54.552Z" fill="#3734A9"/>
<path d="M174.024 101.622V102.221H176.931V109.544H177.607V102.221H180.514V101.622H174.024Z" fill="#718EBF"/>
<path d="M162.675 15.7208C162.675 13.423 164.538 11.5603 166.835 11.5603H186.251C188.549 11.5603 190.411 13.423 190.411 15.7208V93.3833H162.675V15.7208Z" fill="#3734A9"/>
<path d="M209.565 101.622V109.544H210.242V105.761H214.58V105.162H210.242V102.221H214.813V101.622H209.565Z" fill="#718EBF"/>
<path d="M195.959 80.902C195.959 78.6042 197.822 76.7415 200.119 76.7415H219.535C221.833 76.7415 223.696 78.6042 223.696 80.9019V93.3834H195.959V80.902Z" fill="#E8F2FF"/>
<path d="M243.782 101.467C242.983 101.467 242.318 101.633 241.807 101.977C241.23 102.343 240.953 102.865 240.953 103.553C240.953 104.196 241.252 104.695 241.863 105.039C242.129 105.195 242.739 105.406 243.682 105.672C244.581 105.916 245.158 106.127 245.424 106.282C245.957 106.582 246.234 107.003 246.234 107.547C246.234 108.013 246.012 108.39 245.59 108.667C245.158 108.934 244.592 109.078 243.893 109.078C243.161 109.078 242.595 108.911 242.195 108.59C241.752 108.224 241.497 107.669 241.419 106.925H240.753C240.82 107.88 241.153 108.601 241.752 109.078C242.273 109.488 242.994 109.699 243.904 109.699C244.803 109.699 245.524 109.511 246.068 109.133C246.633 108.734 246.922 108.19 246.922 107.514C246.922 106.792 246.589 106.238 245.934 105.849C245.579 105.627 244.903 105.383 243.893 105.095C243.116 104.873 242.606 104.695 242.373 104.585C241.874 104.318 241.63 103.974 241.63 103.531C241.63 103.031 241.829 102.654 242.251 102.41C242.617 102.188 243.116 102.077 243.76 102.077C244.448 102.077 244.98 102.232 245.357 102.554C245.735 102.876 245.968 103.342 246.056 103.963H246.733C246.667 103.142 246.367 102.521 245.846 102.099C245.335 101.678 244.647 101.467 243.782 101.467Z" fill="#718EBF"/>
<path d="M229.243 54.5521C229.243 52.2543 231.106 50.3916 233.404 50.3916H252.819C255.117 50.3916 256.98 52.2543 256.98 54.5521V93.3834H229.243V54.5521Z" fill="#3734A9"/>
<path d="M278.452 101.467C277.653 101.467 276.987 101.633 276.477 101.977C275.9 102.343 275.623 102.865 275.623 103.553C275.623 104.196 275.922 104.695 276.533 105.039C276.799 105.195 277.409 105.406 278.352 105.672C279.251 105.916 279.828 106.127 280.094 106.282C280.627 106.582 280.904 107.003 280.904 107.547C280.904 108.013 280.682 108.39 280.26 108.667C279.828 108.934 279.262 109.078 278.563 109.078C277.831 109.078 277.265 108.911 276.865 108.59C276.422 108.224 276.166 107.669 276.089 106.925H275.423C275.49 107.88 275.823 108.601 276.422 109.078C276.943 109.488 277.664 109.699 278.574 109.699C279.473 109.699 280.194 109.511 280.737 109.133C281.303 108.734 281.592 108.19 281.592 107.514C281.592 106.792 281.259 106.238 280.604 105.849C280.249 105.627 279.573 105.383 278.563 105.095C277.786 104.873 277.276 104.695 277.043 104.585C276.544 104.318 276.3 103.974 276.3 103.531C276.3 103.031 276.499 102.654 276.921 102.41C277.287 102.188 277.786 102.077 278.43 102.077C279.118 102.077 279.65 102.232 280.027 102.554C280.405 102.876 280.638 103.342 280.726 103.963H281.403C281.337 103.142 281.037 102.521 280.516 102.099C280.005 101.678 279.317 101.467 278.452 101.467Z" fill="#718EBF"/>
<path d="M262.526 33.7496C262.526 31.4518 264.389 29.5891 266.687 29.5891H286.102C288.4 29.5891 290.263 31.4518 290.263 33.7496V93.3834H262.526V33.7496Z" fill="#3734A9"/>
</svg>
