<svg width="189" height="118" viewBox="0 0 189 118" fill="none" xmlns="http://www.w3.org/2000/svg">
<path fill-rule="evenodd" clip-rule="evenodd" d="M37.8662 39.297L53.3992 35.1347C47.4618 34.5703 42.3983 36.0193 37.8662 39.297ZM146.353 74.9111C139.299 74.3828 132.244 73.8539 125.189 73.3249C132.136 75.5816 139.194 76.0923 146.353 74.9111ZM184.153 57.3038C186.496 61.0604 187.438 64.5649 183.703 67.739C182.072 69.1243 178.392 69.4084 176.36 68.2787C177.277 70.1791 177.131 71.3964 174.923 72.2966C173.103 73.0379 171.717 74.7998 169.921 75.6537C162.677 79.101 155.273 82.2484 147.05 82.0603C144.942 82.0113 142.818 80.0141 140.881 82.4639C135.185 82.5614 129.481 82.6828 123.929 81.1061C122.602 80.7287 121.352 80.0749 120.074 79.53C114.675 77.225 109.272 74.927 103.895 72.5692C103.534 72.4103 103.428 71.7368 103.121 71.3718C102.855 71.0529 102.471 70.8307 102.14 70.5643C100.55 72.6478 99.3019 70.4903 98.509 69.888C96.1216 68.072 94.0741 65.8088 91.8982 63.7156C91.6448 63.473 91.4544 63.0405 91.1682 62.9733C88.0356 62.2318 85.7236 60.6741 84.3305 57.5575C83.8383 56.4584 82.0778 55.927 81.245 54.6852C80.5752 54.6545 79.7569 54.8655 79.2591 54.5568C74.0598 51.3378 68.9117 48.0357 63.6718 44.7075C61.3872 45.5547 55.7362 43.8491 54.3211 41.5853C54.1148 42.2296 53.965 42.6942 53.9606 42.7089C52.4973 42.7303 51.1239 42.4771 49.9139 42.8138C43.7418 44.5266 37.6804 46.335 32.38 50.3424C26.9485 54.4481 20.9317 57.7716 15.366 61.7124C13.3941 63.1083 11.9199 65.253 10.3639 67.1731C9.4466 68.3051 8.76151 68.762 7.53465 67.5834C4.26166 64.4404 3.65232 61.6562 6.83668 58.2479C11.1393 53.6424 15.6583 48.9944 20.8609 45.5339C27.2825 41.2634 34.3708 37.9054 41.4133 34.6849C48.974 31.2273 56.5396 33.0461 63.8395 36.0605C71.8255 39.3558 78.9436 44.006 85.373 49.8107C93.152 56.8347 102.15 61.9471 111.727 66.1578C121.76 70.5683 132.187 72.9165 143.129 72.4984C151.488 72.18 159.636 70.7401 167.062 66.475C172.452 63.3784 177.924 60.4245 183.367 57.4223C183.583 57.3034 183.885 57.3406 184.153 57.3038Z" fill="#F9896B"/>
<path fill-rule="evenodd" clip-rule="evenodd" d="M143.706 49.8327C140.623 46.6448 140.437 45.6151 142.483 42.0003C144.668 38.1392 147.039 34.3846 149.316 30.5756C149.686 29.9544 149.915 29.2367 150.343 28.6636C151.093 27.6562 151.944 26.7261 152.753 25.7629C153.352 27.1078 154.39 28.4395 154.435 29.8032C154.489 31.4389 154.043 33.3081 153.209 34.7201C150.236 39.7498 147.008 44.6276 143.706 49.8327Z" fill="#F9896B"/>
<path fill-rule="evenodd" clip-rule="evenodd" d="M109.339 28.3008C109.305 24.909 109.17 21.3962 109.313 17.894C109.344 17.1445 110.382 16.4347 110.955 15.7066C111.64 16.2818 112.469 16.7542 112.97 17.4607C113.474 18.1673 113.815 19.0833 113.943 19.9498C114.522 23.8932 115.013 27.851 115.504 31.8078C115.593 32.523 115.633 33.2753 115.503 33.9739C115.413 34.4523 115.029 35.1962 114.706 35.2351C114.19 35.2988 113.368 35.0335 113.104 34.6289C111.829 32.6713 110.698 30.6192 109.339 28.3008Z" fill="#F9896B"/>
<path fill-rule="evenodd" clip-rule="evenodd" d="M38.1733 82.6193C35.5082 81.355 34.9595 79.8094 35.8383 77.8501C37.0193 75.2178 38.1942 72.5633 39.6548 70.0858C40.1234 69.2925 41.4885 69.0282 42.443 68.5219C42.974 69.947 44.3306 71.7452 43.8851 72.729C42.3418 76.1417 40.1717 79.271 38.1733 82.6193Z" fill="#F9896B"/>
<path fill-rule="evenodd" clip-rule="evenodd" d="M56.8636 89.8803C53.0555 85.1032 56.0075 80.2984 56.3886 75.5966C56.4242 75.1657 57.7052 74.3669 57.9019 74.4985C58.8778 75.1501 60.5178 76.1859 60.4142 76.8504C59.7546 81.0689 58.7029 85.2267 57.7455 89.3966C57.7077 89.561 57.3125 89.6431 56.8636 89.8803Z" fill="#F9896B"/>
<path fill-rule="evenodd" clip-rule="evenodd" d="M132.433 35.8803C131.912 34.612 130.905 33.3186 130.964 32.078C131.128 28.6725 131.666 25.2764 132.232 21.9061C132.353 21.1885 133.215 20.5952 133.736 19.9451C134.357 20.6182 135.49 21.2776 135.509 21.9672C135.585 24.7317 135.467 27.5254 135.121 30.2706C134.883 32.1574 134.15 33.9812 133.638 35.8339C133.236 35.8494 132.835 35.8649 132.433 35.8803Z" fill="#F9896B"/>
<path fill-rule="evenodd" clip-rule="evenodd" d="M82.5293 81.9548C81.4872 81.7941 80.9746 81.8672 80.6847 81.6467C77.6574 79.3355 74.5776 77.0798 71.7225 74.5692C70.9125 73.8566 70.7863 72.3654 70.7579 71.0386C75.3022 73.9268 80.0779 76.3337 82.5293 81.9548Z" fill="#F9896B"/>
</svg>
