<svg width="97" height="97" viewBox="0 0 97 97" fill="none" xmlns="http://www.w3.org/2000/svg">
<rect width="97" height="97" rx="10" fill="#FF6E1A"/>
<path opacity="0.5" fill-rule="evenodd" clip-rule="evenodd" d="M52.1264 49.7269C48.6 48.7491 45.2784 48.7693 41.8656 49.7179C40.1512 50.1936 39 51.6404 39 53.3176V54.2496C39 54.6638 39.3576 55 39.8 55H54.2C54.6424 55 55 54.6638 55 54.2496V53.3281C55 51.6509 53.8456 50.2034 52.1264 49.7269Z" fill="white"/>
<path opacity="0.5" fill-rule="evenodd" clip-rule="evenodd" d="M47.5 47C50.0343 47 52 44.1054 52 41.6154C52 39.07 49.9818 37 47.5 37C45.0182 37 43 39.07 43 41.6154C43 44.1054 44.9657 47 47.5 47Z" fill="white"/>
<path fill-rule="evenodd" clip-rule="evenodd" d="M61.2135 59C60.5411 59.7998 59.7999 60.5408 59 61.213L64.7865 67L67 64.7862L61.2135 59Z" fill="white"/>
<path fill-rule="evenodd" clip-rule="evenodd" d="M47.5 31C56.5978 31 64 38.4014 64 47.5C64 56.5986 56.5978 64 47.5 64C38.4022 64 31 56.5986 31 47.5C31 38.4014 38.4022 31 47.5 31ZM32.5714 47.5C32.5714 55.7319 39.2681 62.4286 47.5 62.4286C55.7319 62.4286 62.4286 55.7319 62.4286 47.5C62.4286 39.2681 55.7319 32.5714 47.5 32.5714C39.2681 32.5714 32.5714 39.2681 32.5714 47.5Z" fill="white"/>
</svg>
