<svg width="1920" height="403" viewBox="0 0 1920 403" fill="none" xmlns="http://www.w3.org/2000/svg">
<rect width="1920" height="403" fill="#040404"/>
<g opacity="0.3">
<path d="M190 58H194V62H190V58Z" fill="#C4C4C4"/>
<path d="M214 58H218V62H214V58Z" fill="#C4C4C4"/>
<path d="M238 58H242V62H238V58Z" fill="#C4C4C4"/>
<path d="M262 58H266V62H262V58Z" fill="#C4C4C4"/>
<path d="M286 58H290V62H286V58Z" fill="#C4C4C4"/>
<path d="M310 58H314V62H310V58Z" fill="#C4C4C4"/>
<path d="M334 58H338V62H334V58Z" fill="#C4C4C4"/>
<path d="M190 82H194V86H190V82Z" fill="#C4C4C4"/>
<path d="M214 82H218V86H214V82Z" fill="#C4C4C4"/>
<path d="M238 82H242V86H238V82Z" fill="#C4C4C4"/>
<path d="M262 82H266V86H262V82Z" fill="#C4C4C4"/>
<path d="M286 82H290V86H286V82Z" fill="#C4C4C4"/>
<path d="M310 82H314V86H310V82Z" fill="#C4C4C4"/>
<path d="M334 82H338V86H334V82Z" fill="#C4C4C4"/>
<path d="M190 106H194V110H190V106Z" fill="#C4C4C4"/>
<path d="M214 106H218V110H214V106Z" fill="#C4C4C4"/>
<path d="M238 106H242V110H238V106Z" fill="#C4C4C4"/>
<path d="M262 106H266V110H262V106Z" fill="#C4C4C4"/>
<path d="M286 106H290V110H286V106Z" fill="#C4C4C4"/>
<path d="M310 106H314V110H310V106Z" fill="#C4C4C4"/>
<path d="M334 106H338V110H334V106Z" fill="#C4C4C4"/>
<path d="M190 130H194V134H190V130Z" fill="#C4C4C4"/>
<path d="M214 130H218V134H214V130Z" fill="#C4C4C4"/>
<path d="M238 130H242V134H238V130Z" fill="#C4C4C4"/>
<path d="M262 130H266V134H262V130Z" fill="#C4C4C4"/>
<path d="M286 130H290V134H286V130Z" fill="#C4C4C4"/>
<path d="M310 130H314V134H310V130Z" fill="#C4C4C4"/>
<path d="M334 130H338V134H334V130Z" fill="#C4C4C4"/>
<path d="M190 154H194V158H190V154Z" fill="#C4C4C4"/>
<path d="M214 154H218V158H214V154Z" fill="#C4C4C4"/>
<path d="M238 154H242V158H238V154Z" fill="#C4C4C4"/>
<path d="M262 154H266V158H262V154Z" fill="#C4C4C4"/>
<path d="M286 154H290V158H286V154Z" fill="#C4C4C4"/>
<path d="M310 154H314V158H310V154Z" fill="#C4C4C4"/>
<path d="M334 154H338V158H334V154Z" fill="#C4C4C4"/>
<path d="M190 178H194V182H190V178Z" fill="#C4C4C4"/>
<path d="M214 178H218V182H214V178Z" fill="#C4C4C4"/>
<path d="M238 178H242V182H238V178Z" fill="#C4C4C4"/>
<path d="M262 178H266V182H262V178Z" fill="#C4C4C4"/>
<path d="M286 178H290V182H286V178Z" fill="#C4C4C4"/>
<path d="M310 178H314V182H310V178Z" fill="#C4C4C4"/>
<path d="M334 178H338V182H334V178Z" fill="#C4C4C4"/>
<path d="M190 202H194V206H190V202Z" fill="#C4C4C4"/>
<path d="M214 202H218V206H214V202Z" fill="#C4C4C4"/>
<path d="M238 202H242V206H238V202Z" fill="#C4C4C4"/>
<path d="M262 202H266V206H262V202Z" fill="#C4C4C4"/>
<path d="M286 202H290V206H286V202Z" fill="#C4C4C4"/>
<path d="M310 202H314V206H310V202Z" fill="#C4C4C4"/>
<path d="M334 202H338V206H334V202Z" fill="#C4C4C4"/>
</g>
<path d="M981.583 60.6668L990.75 52.3335L999.083 60.6668L1006.17 53.5835L1013.25 60.6668L1020.33 53.5835L1027.42 60.6668L1034.5 53.5835L1041.58 60.6668L1048.67 53.5835L1055.75 60.6668L1062.83 53.5835L1069.92 60.6668L1077 53.5835" stroke="#E6EFFF" stroke-width="2" stroke-linecap="round" stroke-linejoin="round"/>
<circle cx="1077" cy="54" r="4" fill="#002F86" stroke="white" stroke-width="2"/>
<circle cx="982" cy="60.6667" r="4" fill="#002F86" stroke="white" stroke-width="2"/>
<path d="M130.2 298.4L122.2 289.6L130.2 281.6L123.4 274.8L130.2 268L123.4 261.2L130.2 254.4L123.4 247.6L130.2 240.8L123.4 234L130.2 227.2L123.4 220.4L130.2 213.6L123.4 206.8" stroke="#E6EFFF" stroke-width="2" stroke-linecap="round" stroke-linejoin="round"/>
<circle cx="123.8" cy="206.8" r="3.80001" transform="rotate(-90 123.8 206.8)" fill="#002F86" stroke="white" stroke-width="2"/>
<circle cx="130.2" cy="298" r="3.80001" transform="rotate(-90 130.2 298)" fill="#002F86" stroke="white" stroke-width="2"/>
<path opacity="0.4" d="M1800.28 225.413C1809.18 225.413 1817.98 223.661 1826.2 220.258C1834.41 216.855 1841.88 211.867 1848.17 205.579C1854.45 199.292 1859.44 191.827 1862.85 183.611C1866.25 175.396 1868 166.59 1868 157.698L1800.28 157.698L1800.28 225.413Z" fill="#FDBC64"/>
<path opacity="0.3" d="M1759.37 170.747C1766.25 170.747 1773.06 169.392 1779.42 166.76C1785.77 164.128 1791.54 160.27 1796.41 155.407C1801.27 150.544 1805.13 144.77 1807.76 138.416C1810.39 132.062 1811.75 125.251 1811.75 118.374L1759.37 118.374L1759.37 170.747Z" fill="#E8F2FF"/>
</svg>
