<svg width="23" height="22" viewBox="0 0 23 22" fill="none" xmlns="http://www.w3.org/2000/svg">
<path d="M17.2987 3.50085C17.5973 3.51036 17.8911 3.57889 18.1633 3.70253C18.4355 3.82617 18.6808 4.00248 18.8851 4.2214C19.0894 4.44032 19.2488 4.69754 19.3541 4.97837C19.4594 5.2592 19.5086 5.55812 19.4988 5.85804V8.8572C19.504 9.0224 19.4437 9.18293 19.3311 9.30347C19.2185 9.42401 19.0629 9.4947 18.8985 9.49999C18.5186 9.52398 18.1622 9.69245 17.9017 9.97112C17.6411 10.2498 17.4961 10.6177 17.4961 11C17.4961 11.3823 17.6411 11.7502 17.9017 12.0289C18.1622 12.3076 18.5186 12.476 18.8985 12.5C19.0629 12.5053 19.2185 12.576 19.3311 12.6965C19.4437 12.8171 19.504 12.9776 19.4988 13.1428V16.1428C19.5086 16.4427 19.4594 16.7416 19.3541 17.0225C19.2488 17.3033 19.0894 17.5605 18.8851 17.7795C18.6808 17.9984 18.4355 18.1747 18.1633 18.2983C17.8911 18.422 17.5973 18.4905 17.2987 18.5H5.7013C5.40272 18.4905 5.10892 18.422 4.83671 18.2983C4.56451 18.1747 4.31923 17.9984 4.11491 17.7795C3.91058 17.5605 3.75121 17.3033 3.64591 17.0225C3.54061 16.7416 3.49144 16.4427 3.50122 16.1428V13.1428C3.496 12.9777 3.55619 12.8173 3.66859 12.6968C3.78099 12.5763 3.9364 12.5055 4.1007 12.5C4.48052 12.476 4.83697 12.3076 5.09749 12.0289C5.35802 11.7502 5.50304 11.3823 5.50304 11C5.50304 10.6177 5.35802 10.2498 5.09749 9.97112C4.83697 9.69245 4.48052 9.52398 4.1007 9.49999C3.9364 9.49448 3.78099 9.42369 3.66859 9.30317C3.55619 9.18265 3.496 9.02226 3.50122 8.8572V5.85721C3.49144 5.55728 3.54061 5.25836 3.64591 4.97753C3.75121 4.6967 3.91058 4.43947 4.11491 4.22055C4.31923 4.00163 4.56451 3.82531 4.83671 3.70168C5.10892 3.57804 5.40272 3.50951 5.7013 3.5L17.2987 3.50085ZM17.2987 4.78644H5.7013C5.42726 4.79549 5.168 4.91343 4.98045 5.11436C4.79291 5.31528 4.69241 5.58275 4.70104 5.85804V8.28968C5.27949 8.46673 5.786 8.82578 6.14592 9.31391C6.50585 9.80203 6.70013 10.3934 6.70013 11.0008C6.70013 11.6083 6.50585 12.1997 6.14592 12.6878C5.786 13.1759 5.27949 13.535 4.70104 13.712V16.1436C4.69241 16.4189 4.79291 16.6864 4.98045 16.8873C5.168 17.0883 5.42726 17.2062 5.7013 17.2153H17.2987C17.5727 17.2062 17.832 17.0883 18.0195 16.8873C18.2071 16.6864 18.3076 16.4189 18.299 16.1436V13.712C17.7205 13.535 17.214 13.1759 16.8541 12.6878C16.4942 12.1997 16.2999 11.6083 16.2999 11.0008C16.2999 10.3934 16.4942 9.80203 16.8541 9.31391C17.214 8.82578 17.7205 8.46673 18.299 8.28968V5.85804C18.3076 5.58275 18.2071 5.31528 18.0195 5.11436C17.832 4.91343 17.5727 4.79549 17.2987 4.78644ZM9.11468 7.2925C9.17404 7.23928 9.24375 7.19904 9.31941 7.17432C9.39507 7.1496 9.47501 7.14094 9.55417 7.14889C9.63334 7.15685 9.70999 7.18124 9.77928 7.22052C9.84856 7.2598 9.90897 7.31311 9.95666 7.37708L11.4958 9.35621L13.0349 7.37708C13.0826 7.31311 13.143 7.2598 13.2123 7.22052C13.2816 7.18124 13.3582 7.15685 13.4374 7.14889C13.5166 7.14094 13.5965 7.1496 13.6722 7.17432C13.7478 7.19904 13.8175 7.23928 13.8769 7.2925C13.9994 7.40697 14.075 7.56313 14.0892 7.73056C14.1034 7.898 14.055 8.06474 13.9535 8.19833L12.6064 9.92966H13.4921C13.6501 9.93459 13.8001 10.0001 13.9115 10.1127C14.0228 10.2254 14.087 10.3766 14.0908 10.5352V10.5733C14.096 10.7385 14.0357 10.899 13.9231 11.0196C13.8105 11.1401 13.6549 11.2108 13.4904 11.2161H12.1997V12.0712H13.4997C13.6576 12.0761 13.8077 12.1416 13.919 12.2543C14.0304 12.3669 14.0945 12.5181 14.0983 12.6768V12.7148C14.1036 12.8799 14.0434 13.0403 13.931 13.1608C13.8186 13.2813 13.6632 13.3521 13.4989 13.3576H12.1997V14.2153C12.2042 14.3743 12.1484 14.5291 12.0435 14.6484C11.9385 14.7676 11.7924 14.8422 11.6347 14.8572H11.5993C11.435 14.8517 11.2796 14.7809 11.1672 14.6604C11.0548 14.5399 10.9946 14.3795 10.9999 14.2144V13.3568H9.5003C9.34237 13.3519 9.1923 13.2863 9.08096 13.1737C8.96962 13.0611 8.90546 12.9099 8.90166 12.7512V12.7131C8.89644 12.5479 8.95675 12.3874 9.06933 12.2669C9.1819 12.1463 9.33753 12.0756 9.50199 12.0703H11.0015V11.2136H9.5003C9.34237 11.2086 9.1923 11.1431 9.08096 11.0305C8.96962 10.9179 8.90546 10.7667 8.90166 10.608V10.5699C8.89644 10.4047 8.95675 10.2442 9.06933 10.1237C9.1819 10.0031 9.33753 9.93242 9.50199 9.92712H10.3861L9.0389 8.1958C8.94126 8.06764 8.89244 7.90865 8.90124 7.74751C8.91004 7.58637 8.97588 7.43369 9.0869 7.31703L9.11468 7.2925Z" fill="#B1BAD3"/>
</svg>
