<svg width="21" height="20" viewBox="0 0 21 20" fill="none" xmlns="http://www.w3.org/2000/svg">
<path d="M5.65165 9.99966C5.65283 9.42874 5.74706 8.8618 5.93064 8.32119L2.82303 5.99658C2.2009 7.23802 1.87695 8.60747 1.87695 9.99607C1.87695 11.3847 2.2009 12.7541 2.82303 13.9955L5.92974 11.6673C5.74997 11.1291 5.65878 10.5653 5.65975 9.99785" fill="#FBBC05"/>
<path d="M11.1109 4.6971C12.3469 4.69384 13.5468 5.11369 14.511 5.88687L17.1975 3.25714C16.1297 2.33939 14.8682 1.67488 13.5074 1.3133C12.1467 0.951712 10.7218 0.902404 9.33924 1.16906C7.95672 1.43571 6.65235 2.01143 5.52366 2.85318C4.39498 3.69492 3.47117 4.78091 2.82129 6.02996L5.9307 8.35459C6.30237 7.27925 7.00231 6.34775 7.93175 5.69152C8.86119 5.03529 9.97323 4.68746 11.1109 4.6971Z" fill="#EA4335"/>
<path d="M11.111 15.3052C9.97289 15.3146 8.86053 14.9663 7.93092 14.3096C7.00131 13.6529 6.30137 12.7209 5.92987 11.645L2.82227 13.9697C3.60128 15.4946 4.78924 16.7728 6.25324 17.6611C7.71724 18.5494 9.39955 19.0129 11.1119 18.9996C13.3277 19.024 15.473 18.2218 17.1291 16.7497L14.1781 14.5159C13.2488 15.0585 12.1869 15.3321 11.111 15.3061" fill="#34A853"/>
<path d="M19.8737 9.96822C19.8655 9.41485 19.7948 8.86418 19.6631 8.32666H11.0566V11.8158H16.0065C15.8975 12.3729 15.673 12.901 15.3474 13.366C15.0219 13.831 14.6027 14.2227 14.1166 14.5158L17.0666 16.7495C17.9888 15.8836 18.7155 14.8308 19.1982 13.6615C19.6808 12.4922 19.9084 11.2334 19.8656 9.9691" fill="#4285F4"/>
</svg>
