<svg width="18" height="18" viewBox="0 0 18 18" fill="none" xmlns="http://www.w3.org/2000/svg">
<path d="M15.0186 8.19869L14.5043 6.86411H11.8506L11.3363 8.19869H9.64041L12.5693 1.10797H13.7817L16.7118 8.19869H15.0186ZM14.6547 6.63654L15.169 7.97111L14.6547 6.63654H11.6976L11.1833 7.97626L11.6976 6.63654H14.6547ZM14.3397 5.77769L13.2031 2.83211L12.0344 5.78283L13.2031 2.83211L14.3397 5.77769ZM12.361 5.5604H14.0118L13.2006 3.44154L12.361 5.5604Z" fill="#1CB7EA"/>
<path d="M10.5557 16.6189V15.4618L13.8099 10.8769H10.7023V9.5282H15.7989V10.6403L12.5216 15.2689H15.7989V16.6189H10.5557ZM10.7769 16.3965H15.57H10.7769ZM15.57 10.5709L12.0986 15.4913L15.57 10.5709Z" fill="#1CB7EA"/>
<path d="M1.28577 10.1015H3.34291V1.28531H4.37148V10.1015H6.42862L3.8572 16.7139L1.28577 10.1015Z" fill="#1CB7EA"/>
</svg>
