<svg width="111" height="111" viewBox="0 0 111 111" fill="none" xmlns="http://www.w3.org/2000/svg">
<path opacity="0.999" d="M55.5 111C86.1518 111 111 86.1518 111 55.5C111 24.8482 86.1518 0 55.5 0C24.8482 0 0 24.8482 0 55.5C0 86.1518 24.8482 111 55.5 111Z" fill="#F5F5F5"/>
<path d="M26.511 44.229L22.256 48.459L18 44.229L22.256 40L26.511 44.229Z" fill="#F0B90B"/>
<path fill-rule="evenodd" clip-rule="evenodd" d="M84 88V65.7338C83.9916 63.4103 82.9394 61.1849 81.0749 59.547C79.2103 57.9092 76.6861 56.993 74.0574 57H68V65.7338H74.0574V88H84Z" fill="#F8D33A"/>
<path fill-rule="evenodd" clip-rule="evenodd" d="M28 88V65.7338C28.0084 63.4103 29.0606 61.1849 30.9251 59.547C32.7897 57.9092 35.3139 56.993 37.9426 57H44V65.7338H37.9426V88H28Z" fill="#F8D33A"/>
<path d="M56 64L49.0908 57H37V88H75V57H62.9092L56 64Z" fill="#F8D33A"/>
<path d="M69.729 37.5C69.729 41.0804 68.3067 44.5142 65.7749 47.0459C63.2432 49.5777 59.8094 51 56.229 51C52.6486 51 49.2148 49.5777 46.6831 47.0459C44.1513 44.5142 42.729 41.0804 42.729 37.5H69.729Z" fill="#E8A37D"/>
<path d="M69.7305 37.5C69.7305 33.9196 68.3082 30.4858 65.7764 27.9541C63.2447 25.4223 59.8109 24 56.2305 24C52.65 24 49.2163 25.4223 46.6845 27.9541C44.1528 30.4858 42.7305 33.9196 42.7305 37.5H69.7305Z" fill="#0B0E11"/>
</svg>
