<svg width="30" height="30" viewBox="0 0 30 30" fill="none" xmlns="http://www.w3.org/2000/svg">
<g clip-path="url(#clip0_2055_8068)">
<path fill-rule="evenodd" clip-rule="evenodd" d="M11.2918 21.8302C10.7025 21.1672 9.65671 20.6631 9.65671 20.6631C9.65671 20.6631 9.33818 23.9891 11.3343 24.159C11.7431 24.1919 11.7749 24.2466 11.7802 24.2631C11.7962 24.1645 12.0616 22.6905 11.2918 21.8302Z" fill="#EFCA58"/>
<path fill-rule="evenodd" clip-rule="evenodd" d="M6.51922 25.7973C6.51922 25.7973 8.18619 26.6137 9.16831 26.5151C10.8618 26.3397 11.3396 25.0192 11.3396 25.0137C11.3343 25.0137 11.2759 24.9808 10.8671 24.7617C8.70114 23.5726 6.51392 25.8028 6.51392 25.8028L6.51922 25.7973Z" fill="#EFCA58"/>
<path fill-rule="evenodd" clip-rule="evenodd" d="M8.56305 20.7012C8.21267 19.9231 7.41104 19.145 7.41104 19.145C7.41104 19.145 6.23249 22.0217 7.97908 22.7998C8.33477 22.9587 8.3507 23.019 8.3507 23.0354C8.37724 22.9861 9.03023 21.7313 8.56836 20.7067L8.56305 20.7012Z" fill="#EFCA58"/>
<path fill-rule="evenodd" clip-rule="evenodd" d="M7.64993 23.4738C7.64993 23.4738 7.60746 23.4245 7.31548 23.0793C5.78654 21.2492 3.15869 22.4108 3.15869 22.4108C3.15869 22.4108 4.36379 23.7369 5.26097 23.9999C6.80583 24.4601 7.64462 23.4793 7.64993 23.4738Z" fill="#EFCA58"/>
<path fill-rule="evenodd" clip-rule="evenodd" d="M6.55107 18.7726C6.43959 17.9507 5.91933 16.9863 5.91933 16.9863C5.91933 16.9863 4.06125 19.2439 5.44684 20.5041C5.72821 20.7617 5.72821 20.8219 5.7229 20.8329C5.76006 20.7945 6.69441 19.8521 6.55107 18.7726Z" fill="#EFCA58"/>
<path fill-rule="evenodd" clip-rule="evenodd" d="M4.63984 20.7014C4.63984 20.7014 4.6133 20.6411 4.44341 20.2356C3.54623 18.0822 0.828125 18.3123 0.828125 18.3123C0.828125 18.3123 1.57136 19.9014 2.31459 20.4329C3.59932 21.3425 4.63453 20.7068 4.63984 20.7068V20.7014Z" fill="#EFCA58"/>
<path fill-rule="evenodd" clip-rule="evenodd" d="M5.23448 16.2796C5.29818 15.4522 4.98497 14.3892 4.98497 14.3892C4.98497 14.3892 2.7128 16.1481 3.80641 17.7097C4.02938 18.0275 4.01346 18.0878 4.00815 18.0987C4.05062 18.0714 5.16016 17.3755 5.23979 16.2851L5.23448 16.2796Z" fill="#EFCA58"/>
<path fill-rule="evenodd" clip-rule="evenodd" d="M3.22775 17.7807C3.22775 17.7807 3.21182 17.715 3.13219 17.2821C2.69687 14.9643 0 14.5479 0 14.5479C0 14.5479 0.39816 16.2739 1.01929 16.9698C2.08636 18.1643 3.22775 17.7917 3.23306 17.7862L3.22775 17.7807Z" fill="#EFCA58"/>
<path fill-rule="evenodd" clip-rule="evenodd" d="M3.02599 14.6902C3.06846 14.6848 4.21516 14.4656 4.61332 13.5505C4.91592 12.8601 4.97432 11.8354 4.97432 11.8354C4.97432 11.8354 2.52165 12.5642 2.9729 14.2848C3.06315 14.6354 3.03661 14.6793 3.02599 14.6848V14.6902Z" fill="#EFCA58"/>
<path fill-rule="evenodd" clip-rule="evenodd" d="M0.499064 10.5098C0.499064 10.5098 0.371653 12.1426 0.716724 12.9426C1.31131 14.318 2.38899 14.3509 2.3943 14.3509C2.3943 14.3509 2.39961 14.2906 2.44739 13.8796C2.70221 11.7207 0.499064 10.5098 0.499064 10.5098Z" fill="#EFCA58"/>
<path fill-rule="evenodd" clip-rule="evenodd" d="M4.53367 10.9751C4.9159 10.3998 5.12825 9.46826 5.12825 9.46826C5.12825 9.46826 2.77115 9.68744 2.91449 11.3477C2.94634 11.682 2.91449 11.7203 2.89856 11.7258C2.94103 11.7258 4.02402 11.7368 4.52836 10.9751H4.53367Z" fill="#EFCA58"/>
<path fill-rule="evenodd" clip-rule="evenodd" d="M1.46517 7.21642C1.46517 7.21642 1.04578 8.66847 1.20504 9.46847C1.48641 10.8438 2.45791 11.1068 2.46322 11.1068C2.46322 11.1068 2.47915 11.052 2.60125 10.6904C3.23831 8.78902 1.46517 7.21094 1.46517 7.21094V7.21642Z" fill="#EFCA58"/>
<path fill-rule="evenodd" clip-rule="evenodd" d="M3.57285 8.52078C3.51445 8.81119 3.47729 8.8331 3.46667 8.8331C3.50384 8.84406 4.41695 9.16187 5.02746 8.66324C5.48933 8.28516 5.89279 7.56187 5.89279 7.56187C5.89279 7.56187 3.8436 7.0742 3.56754 8.5153L3.57285 8.52078Z" fill="#EFCA58"/>
<path fill-rule="evenodd" clip-rule="evenodd" d="M3.1693 7.96165C3.1693 7.96165 3.19585 7.91782 3.38696 7.6548C4.40625 6.24659 3.31795 4.39453 3.31795 4.39453C3.31795 4.39453 2.59595 5.49042 2.52694 6.20823C2.41015 7.45206 3.164 7.96165 3.1693 7.96165Z" fill="#EFCA58"/>
<path fill-rule="evenodd" clip-rule="evenodd" d="M6.9758 5.79186C6.9758 5.79186 5.13365 5.00829 4.67709 6.30144C4.58684 6.56446 4.54437 6.5809 4.53906 6.57542C4.57092 6.59186 5.37785 7.03569 6.01491 6.66857C6.49801 6.39459 6.9758 5.78638 6.9758 5.78638V5.79186Z" fill="#EFCA58"/>
<path fill-rule="evenodd" clip-rule="evenodd" d="M4.74077 5.18915C5.87154 4.03299 5.10176 2.14258 5.10176 2.14258C5.10176 2.14258 4.28421 3.05217 4.13025 3.71518C3.86481 4.85491 4.50187 5.44669 4.50187 5.44669C4.50187 5.44669 4.52311 5.42477 4.74607 5.19463L4.74077 5.18915Z" fill="#EFCA58"/>
<path fill-rule="evenodd" clip-rule="evenodd" d="M8.16498 4.55361C8.16498 4.55361 6.69445 3.47416 6.04677 4.52074C5.90874 4.73991 5.87689 4.73991 5.87158 4.73443C5.89282 4.75087 6.51925 5.32074 7.15631 5.12896C7.6341 4.98649 8.17029 4.55361 8.17029 4.55361H8.16498Z" fill="#EFCA58"/>
<path fill-rule="evenodd" clip-rule="evenodd" d="M7.06604 0.723145C7.06604 0.723145 6.21664 1.41903 5.99367 1.98342C5.60612 2.96424 6.09984 3.58342 6.09984 3.58342C6.09984 3.58342 6.12108 3.56698 6.34936 3.39164C7.51198 2.52588 7.06073 0.723145 7.06073 0.723145H7.06604Z" fill="#EFCA58"/>
<path fill-rule="evenodd" clip-rule="evenodd" d="M7.67122 3.19474C7.5385 3.38652 7.50665 3.38105 7.50134 3.37557C7.51727 3.392 8.06408 3.94543 8.64804 3.8194C9.08867 3.72077 9.59832 3.35913 9.59832 3.35913C9.59832 3.35913 8.30828 2.28515 7.67122 3.19474Z" fill="#EFCA58"/>
<path fill-rule="evenodd" clip-rule="evenodd" d="M10.3203 2.29571C10.7185 2.08749 11.122 1.61625 11.122 1.61625C11.122 1.61625 9.67266 0.931322 9.25858 1.95598C9.17364 2.16968 9.14178 2.17516 9.13647 2.17516C9.15771 2.18612 9.78946 2.56968 10.3203 2.29571Z" fill="#EFCA58"/>
<path fill-rule="evenodd" clip-rule="evenodd" d="M9.11516 0C9.11516 0 8.24982 0.471233 7.96315 0.942466C7.46943 1.75342 7.81981 2.39452 7.81981 2.39452C7.81981 2.39452 7.84105 2.38356 8.07463 2.26849C9.24788 1.69315 9.11516 0 9.11516 0Z" fill="#EFCA58"/>
<path fill-rule="evenodd" clip-rule="evenodd" d="M20.3433 20.6631C20.3433 20.6631 19.2974 21.1672 18.7082 21.8302C17.9437 22.6905 18.2038 24.1645 18.2197 24.2631C18.2197 24.2466 18.2569 24.1919 18.6604 24.159C20.6618 23.9891 20.338 20.6631 20.338 20.6631H20.3433Z" fill="#EFCA58"/>
<path fill-rule="evenodd" clip-rule="evenodd" d="M19.1329 24.7564C18.7241 24.9811 18.6657 25.0084 18.6604 25.0084C18.6604 25.0139 19.1435 26.3345 20.8317 26.5098C21.8138 26.6139 23.4808 25.792 23.4808 25.792C23.4808 25.792 21.2936 23.5619 19.1276 24.7509L19.1329 24.7564Z" fill="#EFCA58"/>
<path fill-rule="evenodd" clip-rule="evenodd" d="M22.0208 22.7998C23.7674 22.0217 22.5889 19.145 22.5889 19.145C22.5889 19.145 21.7872 19.9231 21.4369 20.7012C20.975 21.7258 21.628 22.9806 21.6545 23.03C21.6545 23.0135 21.6704 22.9532 22.0208 22.7943V22.7998Z" fill="#EFCA58"/>
<path fill-rule="evenodd" clip-rule="evenodd" d="M22.6792 23.0793C22.3925 23.4245 22.35 23.4684 22.3447 23.4738C22.3447 23.4738 23.1888 24.4656 24.7337 23.9999C25.6309 23.7314 26.836 22.4108 26.836 22.4108C26.836 22.4108 24.2081 21.2492 22.6792 23.0793Z" fill="#EFCA58"/>
<path fill-rule="evenodd" clip-rule="evenodd" d="M24.5532 20.5041C25.9388 19.2439 24.0807 16.9863 24.0807 16.9863C24.0807 16.9863 23.5604 17.9507 23.4489 18.7726C23.3056 19.8576 24.2453 20.8 24.2771 20.8329C24.2718 20.8219 24.2665 20.7617 24.5532 20.5041Z" fill="#EFCA58"/>
<path fill-rule="evenodd" clip-rule="evenodd" d="M25.5565 20.2357C25.3867 20.6412 25.3654 20.696 25.3601 20.7015C25.3601 20.7015 26.4006 21.3371 27.6854 20.4275C28.4339 19.9015 29.1718 18.3069 29.1718 18.3069C29.1718 18.3069 26.4537 18.0768 25.5565 20.2302V20.2357Z" fill="#EFCA58"/>
<path fill-rule="evenodd" clip-rule="evenodd" d="M25.0204 14.3834C25.0204 14.3834 24.7072 15.4464 24.7709 16.2738C24.8505 17.3642 25.9547 18.0601 26.0025 18.0875C25.9919 18.0766 25.9813 18.0163 26.2043 17.6985C27.2979 16.1423 25.0257 14.3779 25.0257 14.3779L25.0204 14.3834Z" fill="#EFCA58"/>
<path fill-rule="evenodd" clip-rule="evenodd" d="M28.9807 16.9644C29.6018 16.274 30 14.5425 30 14.5425C30 14.5425 27.3031 14.9644 26.8678 17.2767C26.7881 17.7151 26.7722 17.7699 26.7722 17.7754C26.7775 17.7754 27.9189 18.148 28.986 16.9589L28.9807 16.9644Z" fill="#EFCA58"/>
<path fill-rule="evenodd" clip-rule="evenodd" d="M27.0271 14.2906C27.4836 12.5701 25.0256 11.8413 25.0256 11.8413C25.0256 11.8413 25.084 12.866 25.3866 13.5564C25.7848 14.4714 26.9315 14.6851 26.974 14.6961C26.9633 14.6961 26.9315 14.6468 27.0271 14.2961V14.2906Z" fill="#EFCA58"/>
<path fill-rule="evenodd" clip-rule="evenodd" d="M29.2834 12.9426C29.6284 12.1426 29.501 10.5098 29.501 10.5098C29.501 10.5098 27.3032 11.7262 27.5527 13.8796C27.6005 14.2851 27.6058 14.3454 27.6058 14.3509C27.6058 14.3509 28.6888 14.318 29.2834 12.9426Z" fill="#EFCA58"/>
<path fill-rule="evenodd" clip-rule="evenodd" d="M24.8718 9.47412C24.8718 9.47412 25.0841 10.4001 25.4663 10.981C25.9707 11.7426 27.0537 11.7317 27.0961 11.7317C27.0855 11.7317 27.0537 11.6933 27.0802 11.3536C27.2289 9.6933 24.8665 9.47412 24.8665 9.47412H24.8718Z" fill="#EFCA58"/>
<path fill-rule="evenodd" clip-rule="evenodd" d="M27.3987 10.6957C27.5208 11.0573 27.5314 11.1066 27.5368 11.1121C27.5368 11.1121 28.5136 10.8491 28.7949 9.47373C28.9595 8.67373 28.5348 7.22168 28.5348 7.22168C28.5348 7.22168 26.767 8.79976 27.3987 10.7011V10.6957Z" fill="#EFCA58"/>
<path fill-rule="evenodd" clip-rule="evenodd" d="M24.102 7.56713C24.102 7.56713 24.5055 8.29042 24.9673 8.6685C25.5778 9.16713 26.4909 8.84933 26.5281 8.83837C26.5175 8.83837 26.4803 8.81645 26.4219 8.52604C26.1459 7.08494 24.0967 7.57261 24.0967 7.57261L24.102 7.56713Z" fill="#EFCA58"/>
<path fill-rule="evenodd" clip-rule="evenodd" d="M26.6821 4.39453C26.6821 4.39453 25.5937 6.24659 26.613 7.6548C26.8042 7.9233 26.8307 7.95617 26.8307 7.96165C26.8307 7.96165 27.5845 7.45206 27.4731 6.20823C27.4094 5.49042 26.6821 4.39453 26.6821 4.39453Z" fill="#EFCA58"/>
<path fill-rule="evenodd" clip-rule="evenodd" d="M23.9852 6.67394C24.6222 7.04106 25.4292 6.59723 25.461 6.58079C25.4504 6.58079 25.4133 6.56983 25.323 6.30682C24.8664 5.01366 23.0243 5.79723 23.0243 5.79723C23.0243 5.79723 23.5021 6.40545 23.9852 6.67942V6.67394Z" fill="#EFCA58"/>
<path fill-rule="evenodd" clip-rule="evenodd" d="M24.8983 2.14269C24.8983 2.14269 24.1232 4.0331 25.2592 5.18926C25.4822 5.4194 25.5035 5.44132 25.5035 5.44132C25.5035 5.44132 26.1405 4.84954 25.8751 3.70981C25.7211 3.05228 24.9036 2.13721 24.9036 2.13721L24.8983 2.14269Z" fill="#EFCA58"/>
<path fill-rule="evenodd" clip-rule="evenodd" d="M24.1337 4.72858C24.1337 4.72858 24.0913 4.73405 23.9585 4.51488C23.3109 3.4683 21.8403 4.54775 21.8403 4.54775C21.8403 4.54775 22.3765 4.98063 22.8543 5.1231C23.4914 5.3094 24.1178 4.74501 24.139 4.72858H24.1337Z" fill="#EFCA58"/>
<path fill-rule="evenodd" clip-rule="evenodd" d="M24.0063 1.98342C23.7834 1.41903 22.934 0.723145 22.934 0.723145C22.934 0.723145 22.488 2.52588 23.6453 3.39164C23.8736 3.5615 23.8949 3.57794 23.8949 3.58342C23.8949 3.58342 24.3886 2.96424 24.001 1.98342H24.0063Z" fill="#EFCA58"/>
<path fill-rule="evenodd" clip-rule="evenodd" d="M22.4987 3.38094C22.4987 3.38094 22.4615 3.38642 22.3288 3.20011C21.6918 2.29053 20.4017 3.3645 20.4017 3.3645C20.4017 3.3645 20.9061 3.72614 21.352 3.82477C21.936 3.95628 22.4828 3.39738 22.4987 3.38094Z" fill="#EFCA58"/>
<path fill-rule="evenodd" clip-rule="evenodd" d="M20.6777 1.95598C20.2636 0.931322 18.8143 1.61625 18.8143 1.61625C18.8143 1.61625 19.2178 2.08749 19.616 2.29571C20.1415 2.56968 20.7786 2.18612 20.7998 2.17516C20.7945 2.17516 20.7627 2.17516 20.6777 1.95598Z" fill="#EFCA58"/>
<path fill-rule="evenodd" clip-rule="evenodd" d="M22.0368 0.942466C21.7501 0.471233 20.8848 0 20.8848 0C20.8848 0 20.752 1.69315 21.9253 2.26849C22.1536 2.38356 22.1801 2.39452 22.1801 2.39452C22.1801 2.39452 22.5305 1.75342 22.0368 0.942466Z" fill="#EFCA58"/>
<path fill-rule="evenodd" clip-rule="evenodd" d="M15.0132 25.0355L11.8333 24.5807L12.2792 25.6163L12.1836 26.6519L14.3974 26.0875C13.7763 26.8382 13.0649 28.104 13.0649 29.9889C13.0649 30.0656 13.4684 29.8409 13.4684 29.8409L13.7922 29.819C13.7922 29.819 13.8984 27.3314 15.0132 26.093C16.1281 27.3368 16.2342 29.819 16.2342 29.819L16.5528 29.8026C16.5528 29.8026 16.9615 30.0656 16.9615 29.9834C16.9615 28.104 16.2502 26.8327 15.629 26.082L17.8481 26.6464L17.7526 25.6108L18.1985 24.5752L15.0185 25.03L15.0132 25.0355Z" fill="#EFCA58"/>
<path d="M16.7047 21.2002H13.9606V10.8584C12.958 11.7959 11.7763 12.4893 10.4156 12.9385V10.4482C11.1318 10.2139 11.9098 9.77116 12.7496 9.12012C13.5895 8.46257 14.1656 7.69759 14.4781 6.8252H16.7047V21.2002Z" fill="#EFCA58"/>
</g>
<defs>
<clipPath id="clip0_2055_8068">
<rect width="30" height="30" fill="white"/>
</clipPath>
</defs>
</svg>
