<svg width="125" height="125" viewBox="0 0 125 125" fill="none" xmlns="http://www.w3.org/2000/svg">
<g clip-path="url(#clip0_1211_5287)">
<g clip-path="url(#clip1_1211_5287)">
<path fill-rule="evenodd" clip-rule="evenodd" d="M109.689 44.2054C105.762 52.2844 102.937 54.8345 96.5738 58.7108C92.856 52.2748 90.9971 49.0574 87.2793 42.6214C93.6384 38.7463 96.4653 36.1914 100.394 28.1099C96.6691 21.6667 94.8066 18.4432 91.0851 12C87.1552 20.0827 84.3295 22.6327 77.9668 26.5078C81.6918 32.9511 83.5543 36.1745 87.2781 42.6214C80.9191 46.4965 77.1808 47.4697 69.6041 49.2417C65.8791 42.7984 64.0166 39.575 60.2927 33.1281C52.7197 34.9001 48.6776 35.3506 41.1058 37.1237C44.8272 43.5706 46.6897 46.794 50.4148 53.2372C42.849 55.0091 39.1179 55.986 32.7612 59.8551C29.0398 53.4119 27.1773 50.1885 23.4523 43.7416C17.6742 47.265 14.8136 49.6934 11.3899 56.1667C10.71 55.8246 9.87578 55.8222 9.16814 56.2318C8.05063 56.8774 7.66848 58.3048 8.31343 59.4215L67.4896 161.836C68.1358 162.949 69.5643 163.332 70.6818 162.687C71.7994 162.041 72.1815 160.614 71.5365 159.497L39.5205 104.089C42.849 97.9063 45.7121 95.5092 51.3719 92.0605C47.6469 85.6136 45.7844 82.3902 42.0606 75.947C48.416 72.0743 52.1483 71.1022 59.7141 69.3291C63.4355 75.7759 65.3016 78.9957 69.0231 85.4426C76.5985 83.6671 80.6418 83.2202 88.2172 81.447C84.4922 75.0002 82.6261 71.7804 78.9058 65.3335C86.4789 63.5616 90.2172 62.5847 96.5763 58.7096C100.301 65.1564 102.164 68.3799 105.888 74.8231C112.247 70.948 115.074 68.3967 119.002 60.3153C115.281 53.872 113.415 50.6486 109.691 44.2054H109.689ZM20.9098 71.884C24.2419 65.7033 27.1013 63.3038 32.7612 59.8551C36.4826 66.2911 38.3415 69.511 42.0594 75.9482C36.4007 79.3969 33.54 81.7939 30.208 87.977L20.9098 71.884ZM50.4136 53.2372C57.9866 51.4653 62.0287 51.0148 69.6041 49.2417C73.3219 55.6777 75.1808 58.8975 78.9022 65.3347C71.3268 67.1066 67.2835 67.5571 59.7117 69.3303C55.9903 62.8943 54.1314 59.6744 50.4136 53.2372Z" fill="#748090"/>
</g>
</g>
<defs>
<clipPath id="clip0_1211_5287">
<rect width="112" height="112" fill="white" transform="translate(7 6)"/>
</clipPath>
<clipPath id="clip1_1211_5287">
<rect width="111" height="151" fill="white" transform="translate(8 12)"/>
</clipPath>
</defs>
</svg>
