<svg width="15" height="14" viewBox="0 0 15 14" fill="none" xmlns="http://www.w3.org/2000/svg">
<path fill-rule="evenodd" clip-rule="evenodd" d="M14.8334 7C14.8334 10.8662 11.6995 14 7.83337 14C3.96722 14 0.833374 10.8662 0.833374 7C0.833374 3.13384 3.96722 0 7.83337 0C11.6995 0 14.8334 3.13384 14.8334 7Z" fill="white"/>
<path d="M7.35545 9.79939C7.3069 9.79945 7.25881 9.78887 7.21396 9.76825C7.1691 9.74763 7.12836 9.71737 7.09408 9.67922L4.44169 6.73617C4.37233 6.65921 4.33337 6.55483 4.33337 6.446C4.33337 6.33716 4.37233 6.23279 4.44169 6.15583C4.51104 6.07887 4.60511 6.03564 4.7032 6.03564C4.80128 6.03564 4.89535 6.07887 4.96471 6.15583L7.35628 8.80949L11.4023 4.32009C11.4716 4.24318 11.5657 4.19998 11.6637 4.20001C11.7618 4.20004 11.8558 4.24329 11.9252 4.32024C11.9945 4.3972 12.0334 4.50156 12.0334 4.61036C12.0333 4.71917 11.9944 4.82351 11.925 4.90043L7.61764 9.67984C7.58332 9.71801 7.54254 9.74827 7.49764 9.76889C7.45273 9.78952 7.4046 9.80009 7.356 9.80001L7.35545 9.79939Z" fill="#FB6943"/>
</svg>
