<svg width="16" height="16" viewBox="0 0 16 16" fill="none" xmlns="http://www.w3.org/2000/svg">
<path d="M2.58734 3.6475L7.50171 0.698874C7.80979 0.514031 8.19334 0.508655 8.50647 0.684792L13.7629 3.64153C14.1424 3.85497 14.3421 4.28968 14.2414 4.71324C13.4071 8.22403 11.6222 12.4127 8.61294 15.0895C8.26424 15.3997 7.74036 15.3916 7.39265 15.0803C3.74749 11.8169 2.75257 8.15747 2.11915 4.6743C2.04528 4.26811 2.23332 3.85991 2.58734 3.6475Z" stroke="#2FD850"/>
<path d="M11.1197 5.03988C11.0397 4.95988 10.8797 4.87988 10.7997 4.87988C10.6397 4.87988 10.5597 4.95988 10.4797 5.03988L6.87973 8.79988L5.51973 7.43988C5.43973 7.35988 5.27973 7.27988 5.19973 7.27988C5.03973 7.27988 4.95973 7.35988 4.87973 7.43988C4.79973 7.51988 4.71973 7.67988 4.71973 7.75988C4.71973 7.83988 4.79973 7.99988 4.87973 8.07988L6.55973 9.75988C6.63973 9.83988 6.79973 9.91988 6.87973 9.91988H6.95973C7.03973 9.91988 7.11973 9.83988 7.19973 9.75988L11.1997 5.75988C11.2797 5.67988 11.3597 5.51988 11.3597 5.43988C11.2797 5.27988 11.1997 5.19988 11.1197 5.03988Z" fill="#2FD850"/>
</svg>
