<svg width="32" height="32" viewBox="0 0 32 32" fill="none" xmlns="http://www.w3.org/2000/svg">
<path d="M32.001 32L0 0H29.5237C30.1807 0 30.8108 0.261002 31.2754 0.725589C31.74 1.19018 32.001 1.82029 32.001 2.47732V32Z" fill="#FB6943"/>
<path d="M21.7309 13.3599L18.7985 10.4275C18.6431 10.2722 18.5558 10.0615 18.5558 9.84176C18.5558 9.62205 18.6431 9.41134 18.7985 9.25598C18.9538 9.10063 19.1645 9.01335 19.3842 9.01335C19.6039 9.01335 19.8147 9.10063 19.97 9.25598L22.3587 11.6446L27.2656 6.7377C27.3357 6.65193 27.423 6.58182 27.5219 6.53187C27.6208 6.48192 27.7291 6.45325 27.8397 6.44772C27.9504 6.44218 28.0609 6.45989 28.1643 6.49971C28.2677 6.53953 28.3616 6.60058 28.4399 6.67891C28.5182 6.75725 28.5793 6.85113 28.6191 6.95451C28.6589 7.05788 28.6766 7.16846 28.6711 7.2791C28.6656 7.38975 28.6369 7.498 28.5869 7.59688C28.537 7.69576 28.4669 7.78308 28.3811 7.8532L22.9157 13.3186C22.9066 13.3277 22.8982 13.3361 22.8891 13.3452C22.88 13.3543 22.8716 13.3627 22.8625 13.3718C22.7138 13.5205 22.5122 13.604 22.3019 13.604C22.0917 13.604 21.89 13.5205 21.7414 13.3718L21.7309 13.3599Z" fill="white"/>
</svg>
