<svg xmlns="http://www.w3.org/2000/svg" width="18" height="14" viewBox="0 0 18 14">
    <defs>
        <style>
            .cls-1{fill:#21252e}
        </style>
    </defs>
    <g id="相机" transform="translate(-75.98 -146.278)">
        <path id="路径_56" d="M91.595 160.278h-13.23A2.333 2.333 0 0 1 75.98 158v-7.218a2.333 2.333 0 0 1 2.385-2.273h1.528a.364.364 0 0 0 .339-.223l.356-.893a1.834 1.834 0 0 1 1.706-1.121h5.193a1.814 1.814 0 0 1 1.7 1.107l.372.91a.36.36 0 0 0 .337.22h1.7a2.333 2.333 0 0 1 2.385 2.273V158a2.333 2.333 0 0 1-2.385 2.273zm-13.23-10.37a.9.9 0 0 0-.923.879V158a.9.9 0 0 0 .923.879h13.23a.9.9 0 0 0 .923-.879v-7.218a.9.9 0 0 0-.923-.879H89.9a1.817 1.817 0 0 1-1.7-1.107l-.372-.91a.36.36 0 0 0-.337-.22h-5.198a.364.364 0 0 0-.339.223l-.356.893a1.834 1.834 0 0 1-1.706 1.121z" class="cls-1"/>
        <path id="路径_57" d="M358.809 402.328a3.071 3.071 0 1 1 3.071-3.071 3.075 3.075 0 0 1-3.071 3.071zm0-4.778a1.707 1.707 0 1 0 1.707 1.707 1.709 1.709 0 0 0-1.707-1.706z" class="cls-1" transform="translate(-273.829 -244.967)"/>
    </g>
</svg>
