<svg xmlns="http://www.w3.org/2000/svg" width="31.426" height="31.119" viewBox="0 0 31.426 31.119">
    <g data-name="组 397">
        <path data-name="路径 220" d="M17.615 15.089 3.473 8.611a.973.973 0 0 1 0-1.751L17.615.4a1.945 1.945 0 0 1 1.751 0l14.142 6.46a.973.973 0 0 1 0 1.751l-14.142 6.478a1.945 1.945 0 0 1-1.751 0zm.875 16.224a1.556 1.556 0 0 1-.584-.117L3.8 25.146a1.459 1.459 0 0 1-.755-1.946 1.478 1.478 0 0 1 1.945-.778l11.964 5.194a4.007 4.007 0 0 0 3.074 0l12.08-5.155a1.478 1.478 0 0 1 1.945.778 1.459 1.459 0 0 1-.759 1.945L19.074 31.2a1.556 1.556 0 0 1-.584.117z" transform="translate(-2.826 -.194)" style="fill:#2697ff"/>
        <path data-name="路径 221" d="M15.665 473.133a1.556 1.556 0 0 1-.584-.117l-14.1-6.05a1.459 1.459 0 1 1 1.164-2.666l11.983 5.174a4.007 4.007 0 0 0 3.074 0l12.08-5.174a1.459 1.459 0 1 1 1.167 2.665l-14.2 6.05a1.556 1.556 0 0 1-.584.118z" transform="translate(0 -450.029)" style="fill:#2697ff"/>
    </g>
</svg>
