<svg xmlns="http://www.w3.org/2000/svg" width="29.517" height="30.546" viewBox="0 0 29.517 30.546">
    <path data-name="路径 5506" d="M121.354 81.493h-21.191A4.17 4.17 0 0 0 96 85.656v22.221a4.17 4.17 0 0 0 4.163 4.163h21.191a4.17 4.17 0 0 0 4.163-4.163V85.656a4.17 4.17 0 0 0-4.163-4.163zm-23.083 4.163a1.9 1.9 0 0 1 1.892-1.892h21.191a1.9 1.9 0 0 1 1.892 1.892v12.109a1.892 1.892 0 0 1-1.892 1.892h-2.278l-.265-.727.477-.174a2.658 2.658 0 0 0 1.582-3.4l-3.07-8.376a2.657 2.657 0 0 0-3.4-1.582l-10.355 3.792a2.651 2.651 0 0 0-1.574 3.4l.129.356-.59.219a2.627 2.627 0 0 0-1.491 1.37 2.655 2.655 0 0 0-.083 2.028l1.135 3.1h-1.408a1.892 1.892 0 0 1-1.892-1.892zm14.645 9.612a1.137 1.137 0 0 0-1.453-.674l-5.154 1.885-2.134.78-.938.341-.666-1.816a.358.358 0 0 1 .008-.288.362.362 0 0 1 .212-.2l.59-.219 2.134-.78 7.75-2.831a.42.42 0 0 1 .3.008.4.4 0 0 1 .189.219l2.149 5.881.757 2.081h-12.433l.727-.265 2.134-.78 5.154-1.885a1.135 1.135 0 0 0 .674-1.461zm-8.091-3.951 10.361-3.784a.42.42 0 0 1 .129-.023.345.345 0 0 1 .159.038.362.362 0 0 1 .2.212l3.065 8.378a.379.379 0 0 1-.227.484l-.477.174-2.149-5.881a2.641 2.641 0 0 0-3.4-1.582l-7.75 2.831-.129-.356a.38.38 0 0 1 .218-.491zm18.421 16.56a1.9 1.9 0 0 1-1.892 1.892h-21.191a1.9 1.9 0 0 1-1.892-1.892v-6.41a4.089 4.089 0 0 0 1.892.462h21.191a4.089 4.089 0 0 0 1.892-.462z" transform="translate(-96 -81.493)" style="fill:#fe9d40"/>
</svg>
