<svg xmlns="http://www.w3.org/2000/svg" width="27.662" height="26.509" viewBox="0 0 27.662 26.509">
    <path data-name="路径 272" d="M21.9 0a3.458 3.458 0 0 1 3.452 3.255l.006.2v6.915a1.153 1.153 0 0 1-2.3.135l-.008-.135V3.458a1.153 1.153 0 0 0-1.018-1.144l-.132-.009H3.458a1.153 1.153 0 0 0-1.145 1.018l-.008.135v19.593A1.153 1.153 0 0 0 3.323 24.2l.135.008h8.068a1.153 1.153 0 0 1 .135 2.3l-.135.008H3.458a3.458 3.458 0 0 1-3.452-3.262L0 23.051V3.458A3.458 3.458 0 0 1 3.255.006L3.458 0zm5.359 15.26a1.153 1.153 0 0 1 .213 1.51l-.088.115-6.915 8.068a1.153 1.153 0 0 1-1.566.173l-4.61-3.458a1.153 1.153 0 0 1 1.262-1.924l.121.08 3.746 2.809 6.212-7.247a1.153 1.153 0 0 1 1.625-.124zm-14.58-1.429a1.153 1.153 0 0 1 0 2.305H6.915a1.153 1.153 0 0 1 0-2.305zm5.763-5.763a1.153 1.153 0 1 1 0 2.305H6.915a1.153 1.153 0 0 1 0-2.305h11.526z" style="fill:#13a926"/>
</svg>
