<svg xmlns="http://www.w3.org/2000/svg" width="38.2" height="24.718" viewBox="0 0 38.2 24.718">
    <g data-name="组 397">
        <path data-name="路径 5502" d="M58.972 195.606H25.266a2.247 2.247 0 0 0-2.247 2.247v20.224a2.247 2.247 0 0 0 2.247 2.247h33.706a2.248 2.248 0 0 0 2.247-2.247v-20.224a2.248 2.248 0 0 0-2.247-2.247zm0 22.471H25.266v-20.224h33.706z" transform="translate(-23.019 -195.606)" style="fill:#319ef7"/>
        <path data-name="路径 5503" d="M138.07 312.906h2.247v11.235h-2.247zm26.965 0h2.247v11.235h-2.247zm-14.606 6.741h1.123v2.246h-3.371v2.248h3.371v2.246h2.248v-2.246h1.123a3.371 3.371 0 0 0 0-6.742H153.8v-2.247h3.371v-2.246H153.8v-2.248h-2.248v2.248h-1.123a3.371 3.371 0 0 0 0 6.741zm3.371 0h1.123a1.123 1.123 0 1 1 0 2.246H153.8zm-3.371-4.5h1.123v2.253h-1.123a1.124 1.124 0 0 1 0-2.247z" transform="translate(-133.576 -306.164)" style="fill:#319ef7"/>
    </g>
</svg>
