<svg xmlns="http://www.w3.org/2000/svg" width="26.655" height="29.702" viewBox="0 0 26.655 29.702">
    <g data-name="组 403">
        <path data-name="路径 5507" d="M161.544 102.1 155 96.281a1.141 1.141 0 0 0-1.519 0l-2.681 2.391-1.538-1.372a1.141 1.141 0 0 0-1.519 0l-5.41 4.817a4.193 4.193 0 0 0-3.665 4.152V121.5a4.194 4.194 0 0 0 4.189 4.189h18.278a4.194 4.194 0 0 0 4.189-4.189v-15.227a4.2 4.2 0 0 0-3.78-4.173zm-7.3-3.442 3.841 3.421h-3.455l-2.113-1.883 1.727-1.538zm-3.445 3.068.4.353h-.799zm-2.3-2.046.58.516-2.114 1.883h-1.158zm14.538 21.82a1.906 1.906 0 0 1-1.9 1.9h-18.282a1.906 1.906 0 0 1-1.9-1.9v-15.227a1.906 1.906 0 0 1 1.9-1.9h18.278a1.906 1.906 0 0 1 1.9 1.9z" transform="translate(-138.667 -95.991)" style="fill:#6fd608"/>
        <path data-name="路径 5508" d="M590.094 501.333a3.427 3.427 0 1 0 3.427 3.427 3.431 3.431 0 0 0-3.427-3.427zm0 4.569a1.142 1.142 0 1 1 1.142-1.142 1.144 1.144 0 0 1-1.142 1.14z" transform="translate(-570.674 -486.862)" style="fill:#6fd608"/>
    </g>
</svg>
