<svg xmlns="http://www.w3.org/2000/svg" width="29.337" height="31.097" viewBox="0 0 29.337 31.097">
    <g data-name="组 403">
        <path data-name="路径 222" d="M56.09 37.5c-1.565 0-4.89-.978-4.89-4.3V12.267c0-4.107 2.543-5.867 4.89-5.867h17.015c2.934 0 4.89 1.956 4.89 5.085v7.041a1.293 1.293 0 0 1-1.174 1.374c-.978-.2-1.369-.587-1.369-1.369v-6.85a2.941 2.941 0 0 0-2.738-2.934H56.285c-1.173 0-2.543 1.173-2.738 3.716v19.558c0 2.934 1.956 2.934 2.738 2.934h5.867c.782-.2 1.173.587 1.173 1.173a1.293 1.293 0 0 1-1.172 1.372z" transform="translate(-51.2 -6.4)" style="fill:#ffa113"/>
        <path data-name="路径 223" d="M237.778 172.8h13.3a.978.978 0 1 1 0 1.956h-13.3a.978.978 0 1 1 0-1.956zm0 5.867h13.3a.978.978 0 1 1 0 1.956h-13.3a.978.978 0 1 1 0-1.956zm0 5.672h5.672a.978.978 0 1 1 0 1.956h-5.672a.978.978 0 1 1 0-1.956zm7.823 14.277c-.391 0-.782-.391-.978-.978v-4.5a.719.719 0 0 1 .2-.587l9-9a3.3 3.3 0 0 1 1.956-.587 1.907 1.907 0 0 1 1.76.782l2.151 2.151a2.389 2.389 0 0 1 .782 1.76 1.907 1.907 0 0 1-.782 1.76l-9 9a.718.718 0 0 1-.587.2zm3.912-1.76-3.129-3.129.2 3.129zm1.369-.978 5.281-5.281-3.325-3.325-5.281 5.281zm6.65-6.65.978-.978a.733.733 0 0 0 0-1.173l-2.151-1.956a.978.978 0 0 0-1.173 0l-.978.978z" transform="translate(-231.128 -167.715)" style="fill:#ffa113"/>
    </g>
</svg>
