<svg width="460" height="324" viewBox="0 0 460 324" fill="none" xmlns="http://www.w3.org/2000/svg">
<rect width="460" height="324" rx="10" fill="#0D131C"/>
<g clip-path="url(#clip0_64_5855)">
<rect x="23.5" y="122.5" width="412" height="76" rx="9.5" fill="#161F2C"/>
<rect x="31" y="130" width="50" height="26.5" rx="10" fill="#383C45"/>
<path d="M43.5939 148.9C42.6539 148.9 41.9239 148.675 41.4039 148.225C40.8939 147.765 40.6389 147.08 40.6389 146.17V145.255C40.6389 144.755 40.7089 144.36 40.8489 144.07C40.9889 143.78 41.1389 143.53 41.2989 143.32C41.4689 143.09 41.6139 142.89 41.7339 142.72C41.8639 142.55 41.9289 142.345 41.9289 142.105C41.9289 141.895 41.8739 141.745 41.7639 141.655C41.6639 141.565 41.5339 141.52 41.3739 141.52C41.2539 141.52 41.1239 141.54 40.9839 141.58C40.8539 141.62 40.7239 141.67 40.5939 141.73L40.2939 140.77C40.4739 140.65 40.6939 140.565 40.9539 140.515C41.2239 140.465 41.4589 140.44 41.6589 140.44C42.0289 140.44 42.3239 140.505 42.5439 140.635C42.7739 140.765 42.9389 140.945 43.0389 141.175C43.1389 141.395 43.1889 141.655 43.1889 141.955C43.1889 142.325 43.1239 142.63 42.9939 142.87C42.8739 143.11 42.7289 143.345 42.5589 143.575C42.3889 143.825 42.2489 144.065 42.1389 144.295C42.0289 144.525 41.9739 144.825 41.9739 145.195V146.08C41.9739 146.54 42.0489 146.895 42.1989 147.145C42.3489 147.395 42.5489 147.57 42.7989 147.67C43.0489 147.76 43.3139 147.805 43.5939 147.805C44.0939 147.805 44.4739 147.69 44.7339 147.46C45.0039 147.22 45.1389 146.855 45.1389 146.365V140.53H46.4739V146.44C46.4739 147.21 46.2289 147.815 45.7389 148.255C45.2589 148.685 44.5439 148.9 43.5939 148.9ZM44.5496 139.225C44.1296 139.225 43.7946 139.165 43.5446 139.045C43.2946 138.925 43.1146 138.77 43.0046 138.58C42.8846 138.39 42.8246 138.19 42.8246 137.98C42.8246 137.83 42.8496 137.67 42.8996 137.5C42.9396 137.32 42.9946 137.175 43.0646 137.065L44.1896 137.26C44.1696 137.3 44.1496 137.37 44.1296 137.47C44.1096 137.56 44.0996 137.645 44.0996 137.725C44.0996 137.855 44.1396 137.97 44.2196 138.07C44.2996 138.16 44.4346 138.205 44.6246 138.205H48.4196V139.225H44.5496ZM44.3737 137.06V136.535C44.5037 136.505 44.6437 136.46 44.7937 136.4C44.9437 136.34 45.0737 136.265 45.1837 136.175C45.2937 136.075 45.3487 135.95 45.3487 135.8C45.3487 135.69 45.3187 135.605 45.2587 135.545C45.1987 135.485 45.1137 135.455 45.0037 135.455C44.9237 135.455 44.8437 135.47 44.7637 135.5C44.6737 135.52 44.5887 135.555 44.5087 135.605L44.2387 134.915C44.4187 134.795 44.6237 134.715 44.8537 134.675C45.0737 134.635 45.2487 134.615 45.3787 134.615C45.6387 134.615 45.8737 134.685 46.0837 134.825C46.2937 134.955 46.3987 135.18 46.3987 135.5C46.3987 135.63 46.3737 135.78 46.3237 135.95C46.2637 136.11 46.1437 136.24 45.9637 136.34L45.8737 136.055H48.1537V137.06H44.3737ZM51.737 148.9C51.147 148.9 50.637 148.8 50.207 148.6C49.787 148.39 49.462 148.075 49.232 147.655C49.012 147.235 48.902 146.69 48.902 146.02V140.53H50.237V145.945C50.237 146.545 50.387 147 50.687 147.31C50.997 147.62 51.442 147.775 52.022 147.775C52.722 147.775 53.262 147.55 53.642 147.1C54.032 146.65 54.227 146.045 54.227 145.285V140.53H55.562V148.75H54.452L54.392 147.535H54.317C54.137 147.935 53.822 148.265 53.372 148.525C52.932 148.775 52.387 148.9 51.737 148.9ZM61.0112 148.9C60.1712 148.9 59.5212 148.71 59.0612 148.33C58.6012 147.94 58.2812 147.415 58.1012 146.755C57.9212 146.085 57.8312 145.325 57.8312 144.475C57.8312 143.495 57.9212 142.705 58.1012 142.105C58.2912 141.505 58.5662 141.07 58.9262 140.8C59.2862 140.52 59.7262 140.38 60.2462 140.38C60.5962 140.38 60.8912 140.44 61.1312 140.56C61.3812 140.68 61.5562 140.88 61.6562 141.16H61.7162C61.8162 140.87 61.9962 140.67 62.2562 140.56C62.5162 140.44 62.8212 140.38 63.1712 140.38C63.8212 140.38 64.3212 140.555 64.6712 140.905C65.0312 141.245 65.2112 141.77 65.2112 142.48V148.75H63.8762V142.495C63.8762 142.105 63.7912 141.84 63.6212 141.7C63.4512 141.56 63.2362 141.49 62.9762 141.49C62.6862 141.49 62.4712 141.56 62.3312 141.7C62.2012 141.84 62.1212 142.07 62.0912 142.39H61.2512C61.2112 142.04 61.1062 141.805 60.9362 141.685C60.7662 141.555 60.5762 141.49 60.3662 141.49C59.9662 141.49 59.6662 141.725 59.4662 142.195C59.2662 142.655 59.1662 143.42 59.1662 144.49C59.1662 145.18 59.2162 145.77 59.3162 146.26C59.4262 146.75 59.6262 147.13 59.9162 147.4C60.2062 147.66 60.6262 147.79 61.1762 147.79C61.3762 147.79 61.5412 147.78 61.6712 147.76C61.8012 147.74 61.9262 147.715 62.0462 147.685L62.1812 148.705C62.0312 148.775 61.8512 148.825 61.6412 148.855C61.4312 148.885 61.2212 148.9 61.0112 148.9ZM63.9638 139.585C63.4638 139.585 63.0688 139.47 62.7788 139.24C62.4888 139 62.3438 138.665 62.3438 138.235C62.3438 137.795 62.4888 137.46 62.7788 137.23C63.0688 137 63.4638 136.885 63.9638 136.885C64.4638 136.885 64.8638 137 65.1638 137.23C65.4638 137.46 65.6138 137.795 65.6138 138.235C65.6138 138.665 65.4638 139 65.1638 139.24C64.8638 139.47 64.4638 139.585 63.9638 139.585ZM63.9638 138.88C64.2038 138.88 64.3888 138.82 64.5188 138.7C64.6388 138.58 64.6988 138.425 64.6988 138.235C64.6988 138.035 64.6388 137.88 64.5188 137.77C64.3888 137.65 64.2038 137.59 63.9638 137.59C63.7338 137.59 63.5588 137.65 63.4388 137.77C63.3088 137.88 63.2438 138.035 63.2438 138.235C63.2438 138.425 63.3088 138.58 63.4388 138.7C63.5588 138.82 63.7338 138.88 63.9638 138.88ZM63.3293 136.06V133.615H64.6043V136.06H63.3293ZM69.9624 148.75V142.915C69.9624 142.425 69.8474 142.065 69.6174 141.835C69.3974 141.605 69.0224 141.49 68.4924 141.49C68.1324 141.49 67.7924 141.54 67.4724 141.64C67.1624 141.73 66.8624 141.86 66.5724 142.03V140.83C66.7724 140.73 67.0574 140.63 67.4274 140.53C67.7974 140.43 68.2374 140.38 68.7474 140.38C69.2674 140.38 69.7174 140.455 70.0974 140.605C70.4774 140.755 70.7724 141.005 70.9824 141.355C71.1924 141.695 71.2974 142.15 71.2974 142.72V148.75H69.9624Z" fill="#7C8499"/>
<rect x="31" y="164.5" width="50" height="26.5" rx="10" fill="#383C45"/>
<path d="M42.4733 183.4C41.5333 183.4 40.8033 183.175 40.2833 182.725C39.7733 182.265 39.5183 181.58 39.5183 180.67V179.755C39.5183 179.255 39.5883 178.86 39.7283 178.57C39.8683 178.28 40.0183 178.03 40.1783 177.82C40.3483 177.59 40.4933 177.39 40.6133 177.22C40.7433 177.05 40.8083 176.845 40.8083 176.605C40.8083 176.395 40.7533 176.245 40.6433 176.155C40.5433 176.065 40.4133 176.02 40.2533 176.02C40.1333 176.02 40.0033 176.04 39.8633 176.08C39.7333 176.12 39.6033 176.17 39.4733 176.23L39.1733 175.27C39.3533 175.15 39.5733 175.065 39.8333 175.015C40.1033 174.965 40.3383 174.94 40.5383 174.94C40.9083 174.94 41.2033 175.005 41.4233 175.135C41.6533 175.265 41.8183 175.445 41.9183 175.675C42.0183 175.895 42.0683 176.155 42.0683 176.455C42.0683 176.825 42.0033 177.13 41.8733 177.37C41.7533 177.61 41.6083 177.845 41.4383 178.075C41.2683 178.325 41.1283 178.565 41.0183 178.795C40.9083 179.025 40.8533 179.325 40.8533 179.695V180.58C40.8533 181.04 40.9283 181.395 41.0783 181.645C41.2283 181.895 41.4283 182.07 41.6783 182.17C41.9283 182.26 42.1933 182.305 42.4733 182.305C42.9733 182.305 43.3533 182.19 43.6133 181.96C43.8833 181.72 44.0183 181.355 44.0183 180.865V175.03H45.3533V180.94C45.3533 181.71 45.1083 182.315 44.6183 182.755C44.1383 183.185 43.4233 183.4 42.4733 183.4ZM38.9589 173.725V173.14L40.0539 172.66H45.3339V173.725H38.9589ZM44.0889 173.14V171.445H45.3489V173.14H44.0889ZM50.5864 183.4C49.7864 183.4 49.1564 183.215 48.6964 182.845C48.2464 182.465 47.9264 181.955 47.7364 181.315C47.5564 180.675 47.4664 179.97 47.4664 179.2C47.4664 178.35 47.5514 177.65 47.7214 177.1C47.9014 176.54 48.1514 176.1 48.4714 175.78C48.8014 175.45 49.1914 175.22 49.6414 175.09C50.1014 174.95 50.6064 174.88 51.1564 174.88C51.9564 174.88 52.6064 175 53.1064 175.24C53.6164 175.47 53.9914 175.8 54.2314 176.23C54.4714 176.66 54.5914 177.175 54.5914 177.775V183.25H53.2714V177.895C53.2714 177.275 53.1164 176.805 52.8064 176.485C52.4964 176.155 51.9614 175.99 51.2014 175.99C50.7414 175.99 50.3264 176.075 49.9564 176.245C49.5964 176.415 49.3114 176.73 49.1014 177.19C48.9014 177.65 48.8014 178.325 48.8014 179.215C48.8014 179.795 48.8564 180.32 48.9664 180.79C49.0864 181.25 49.2914 181.615 49.5814 181.885C49.8714 182.155 50.2764 182.29 50.7964 182.29C50.9464 182.29 51.0864 182.28 51.2164 182.26C51.3464 182.24 51.4714 182.21 51.5914 182.17L51.7264 183.205C51.5664 183.275 51.3814 183.325 51.1714 183.355C50.9714 183.385 50.7764 183.4 50.5864 183.4ZM61.8396 183.25V177.775C61.8396 177.125 61.6896 176.665 61.3896 176.395C61.0996 176.115 60.6096 175.975 59.9196 175.975C59.4196 175.975 58.9396 176.045 58.4796 176.185C58.0296 176.315 57.5996 176.5 57.1896 176.74V175.495C57.4796 175.345 57.8696 175.205 58.3596 175.075C58.8596 174.945 59.4196 174.88 60.0396 174.88C60.5696 174.88 61.0196 174.94 61.3896 175.06C61.7696 175.18 62.0496 175.4 62.2296 175.72C62.5796 175.88 62.8196 176.13 62.9496 176.47C63.0896 176.81 63.1596 177.22 63.1596 177.7V183.25H61.8396ZM59.2596 183.4C58.3796 183.4 57.7046 183.2 57.2346 182.8C56.7746 182.39 56.5446 181.805 56.5446 181.045C56.5446 180.215 56.8446 179.575 57.4446 179.125C58.0546 178.675 59.0396 178.41 60.3996 178.33L62.1096 178.225V179.335L60.5796 179.44C59.5596 179.51 58.8546 179.67 58.4646 179.92C58.0846 180.17 57.8946 180.535 57.8946 181.015C57.8946 181.465 58.0346 181.795 58.3146 182.005C58.6046 182.215 59.0046 182.32 59.5146 182.32C59.6846 182.32 59.8396 182.31 59.9796 182.29C60.1196 182.26 60.2546 182.225 60.3846 182.185L60.5946 183.19C60.4046 183.26 60.1946 183.31 59.9646 183.34C59.7446 183.38 59.5096 183.4 59.2596 183.4ZM62.1846 176.185L61.4346 175.48C61.6946 175.44 61.9396 175.34 62.1696 175.18C62.3996 175.02 62.5146 174.79 62.5146 174.49H63.8196C63.8196 174.8 63.7446 175.075 63.5946 175.315C63.4546 175.545 63.2596 175.735 63.0096 175.885C62.7596 176.025 62.4846 176.125 62.1846 176.185ZM61.9611 187.165V185.575C61.9611 185.325 61.8511 185.2 61.6311 185.2C61.5811 185.2 61.5311 185.205 61.4811 185.215C61.4211 185.225 61.3661 185.24 61.3161 185.26L61.2111 184.36C61.3611 184.31 61.5261 184.27 61.7061 184.24C61.8761 184.22 62.0161 184.21 62.1261 184.21C62.4761 184.21 62.7361 184.29 62.9061 184.45C63.0661 184.62 63.1461 184.85 63.1461 185.14V187.165H61.9611ZM68.4136 183.4C67.6136 183.4 66.9836 183.215 66.5236 182.845C66.0736 182.465 65.7536 181.955 65.5636 181.315C65.3836 180.675 65.2936 179.97 65.2936 179.2C65.2936 178.35 65.3786 177.65 65.5486 177.1C65.7286 176.54 65.9786 176.1 66.2986 175.78C66.6286 175.45 67.0186 175.22 67.4686 175.09C67.9286 174.95 68.4336 174.88 68.9836 174.88C69.7836 174.88 70.4336 175 70.9336 175.24C71.4436 175.47 71.8186 175.8 72.0586 176.23C72.2986 176.66 72.4186 177.175 72.4186 177.775V183.25H71.0986V177.895C71.0986 177.275 70.9436 176.805 70.6336 176.485C70.3236 176.155 69.7886 175.99 69.0286 175.99C68.5686 175.99 68.1536 176.075 67.7836 176.245C67.4236 176.415 67.1386 176.73 66.9286 177.19C66.7286 177.65 66.6286 178.325 66.6286 179.215C66.6286 179.795 66.6836 180.32 66.7936 180.79C66.9136 181.25 67.1186 181.615 67.4086 181.885C67.6986 182.155 68.1036 182.29 68.6236 182.29C68.7736 182.29 68.9136 182.28 69.0436 182.26C69.1736 182.24 69.2986 182.21 69.4186 182.17L69.5536 183.205C69.3936 183.275 69.2086 183.325 68.9986 183.355C68.7986 183.385 68.6036 183.4 68.4136 183.4Z" fill="#7C8499"/>
<g clip-path="url(#clip1_64_5855)">
<g clip-path="url(#clip2_64_5855)">
<path d="M181.639 152.403C180.037 158.831 173.525 162.744 167.096 161.141C160.669 159.538 156.757 153.026 158.36 146.598C159.962 140.169 166.474 136.256 172.901 137.859C179.33 139.462 183.242 145.974 181.639 152.403L181.639 152.403H181.639Z" fill="#F7931A"/>
<path d="M175.291 147.79C175.53 146.193 174.314 145.335 172.652 144.762L173.191 142.599L171.874 142.271L171.349 144.377C171.003 144.291 170.647 144.21 170.294 144.129L170.823 142.009L169.507 141.681L168.967 143.843C168.681 143.778 168.399 143.713 168.126 143.646L168.128 143.639L166.312 143.185L165.962 144.592C165.962 144.592 166.939 144.816 166.918 144.829C167.451 144.963 167.548 145.316 167.532 145.595L166.917 148.06C166.954 148.069 167.002 148.082 167.054 148.104C167.01 148.093 166.964 148.081 166.915 148.069L166.054 151.521C165.989 151.683 165.823 151.927 165.451 151.834C165.464 151.853 164.494 151.595 164.494 151.595L163.84 153.103L165.553 153.53C165.872 153.61 166.185 153.693 166.492 153.772L165.947 155.96L167.263 156.288L167.802 154.123C168.162 154.221 168.51 154.311 168.852 154.396L168.314 156.55L169.631 156.878L170.176 154.695C172.421 155.12 174.109 154.948 174.82 152.917C175.393 151.282 174.792 150.339 173.61 149.724C174.471 149.525 175.119 148.96 175.292 147.791L175.291 147.79L175.291 147.79ZM172.282 152.009C171.876 153.644 169.122 152.76 168.23 152.539L168.953 149.64C169.845 149.863 172.708 150.304 172.283 152.009H172.282ZM172.69 147.767C172.318 149.254 170.027 148.498 169.284 148.313L169.939 145.684C170.683 145.869 173.076 146.215 172.69 147.767H172.69Z" fill="white"/>
</g>
<path d="M187.215 151.005C187.215 148.556 187.654 146.842 188.533 145.863C189.418 144.885 190.763 144.396 192.567 144.396C193.435 144.396 194.146 144.504 194.703 144.721C195.26 144.932 195.714 145.21 196.065 145.556C196.417 145.896 196.692 146.256 196.892 146.637C197.097 147.012 197.261 147.451 197.384 147.955C197.624 148.916 197.744 149.918 197.744 150.961C197.744 153.299 197.349 155.01 196.558 156.094C195.767 157.178 194.404 157.72 192.471 157.72C191.387 157.72 190.511 157.547 189.843 157.201C189.175 156.855 188.627 156.349 188.199 155.681C187.889 155.206 187.646 154.559 187.47 153.738C187.3 152.912 187.215 152.001 187.215 151.005ZM190.766 151.014C190.766 152.654 190.909 153.776 191.196 154.38C191.489 154.978 191.911 155.276 192.462 155.276C192.825 155.276 193.139 155.15 193.402 154.898C193.672 154.641 193.868 154.236 193.991 153.686C194.12 153.135 194.185 152.276 194.185 151.11C194.185 149.399 194.038 148.251 193.745 147.665C193.458 147.073 193.024 146.777 192.444 146.777C191.853 146.777 191.425 147.079 191.161 147.683C190.897 148.28 190.766 149.391 190.766 151.014ZM199.572 153.914H203.396V157.5H199.572V153.914ZM205.215 151.005C205.215 148.556 205.654 146.842 206.533 145.863C207.418 144.885 208.763 144.396 210.567 144.396C211.435 144.396 212.146 144.504 212.703 144.721C213.26 144.932 213.714 145.21 214.065 145.556C214.417 145.896 214.692 146.256 214.892 146.637C215.097 147.012 215.261 147.451 215.384 147.955C215.624 148.916 215.744 149.918 215.744 150.961C215.744 153.299 215.349 155.01 214.558 156.094C213.767 157.178 212.404 157.72 210.471 157.72C209.387 157.72 208.511 157.547 207.843 157.201C207.175 156.855 206.627 156.349 206.199 155.681C205.889 155.206 205.646 154.559 205.47 153.738C205.3 152.912 205.215 152.001 205.215 151.005ZM208.766 151.014C208.766 152.654 208.909 153.776 209.196 154.38C209.489 154.978 209.911 155.276 210.462 155.276C210.825 155.276 211.139 155.15 211.402 154.898C211.672 154.641 211.868 154.236 211.991 153.686C212.12 153.135 212.185 152.276 212.185 151.11C212.185 149.399 212.038 148.251 211.745 147.665C211.458 147.073 211.024 146.777 210.444 146.777C209.853 146.777 209.425 147.079 209.161 147.683C208.897 148.28 208.766 149.391 208.766 151.014ZM217.221 151.005C217.221 148.556 217.66 146.842 218.539 145.863C219.424 144.885 220.769 144.396 222.573 144.396C223.44 144.396 224.152 144.504 224.709 144.721C225.266 144.932 225.72 145.21 226.071 145.556C226.423 145.896 226.698 146.256 226.897 146.637C227.103 147.012 227.267 147.451 227.39 147.955C227.63 148.916 227.75 149.918 227.75 150.961C227.75 153.299 227.354 155.01 226.563 156.094C225.772 157.178 224.41 157.72 222.477 157.72C221.393 157.72 220.517 157.547 219.849 157.201C219.181 156.855 218.633 156.349 218.205 155.681C217.895 155.206 217.651 154.559 217.476 153.738C217.306 152.912 217.221 152.001 217.221 151.005ZM220.771 151.014C220.771 152.654 220.915 153.776 221.202 154.38C221.495 154.978 221.917 155.276 222.468 155.276C222.831 155.276 223.145 155.15 223.408 154.898C223.678 154.641 223.874 154.236 223.997 153.686C224.126 153.135 224.19 152.276 224.19 151.11C224.19 149.399 224.044 148.251 223.751 147.665C223.464 147.073 223.03 146.777 222.45 146.777C221.858 146.777 221.431 147.079 221.167 147.683C220.903 148.28 220.771 149.391 220.771 151.014ZM229.227 151.005C229.227 148.556 229.666 146.842 230.545 145.863C231.43 144.885 232.774 144.396 234.579 144.396C235.446 144.396 236.158 144.504 236.715 144.721C237.271 144.932 237.726 145.21 238.077 145.556C238.429 145.896 238.704 146.256 238.903 146.637C239.108 147.012 239.272 147.451 239.396 147.955C239.636 148.916 239.756 149.918 239.756 150.961C239.756 153.299 239.36 155.01 238.569 156.094C237.778 157.178 236.416 157.72 234.482 157.72C233.398 157.72 232.522 157.547 231.854 157.201C231.187 156.855 230.639 156.349 230.211 155.681C229.9 155.206 229.657 154.559 229.481 153.738C229.312 152.912 229.227 152.001 229.227 151.005ZM232.777 151.014C232.777 152.654 232.921 153.776 233.208 154.38C233.501 154.978 233.923 155.276 234.474 155.276C234.837 155.276 235.15 155.15 235.414 154.898C235.684 154.641 235.88 154.236 236.003 153.686C236.132 153.135 236.196 152.276 236.196 151.11C236.196 149.399 236.05 148.251 235.757 147.665C235.47 147.073 235.036 146.777 234.456 146.777C233.864 146.777 233.437 147.079 233.173 147.683C232.909 148.28 232.777 149.391 232.777 151.014ZM241.232 151.005C241.232 148.556 241.672 146.842 242.551 145.863C243.436 144.885 244.78 144.396 246.585 144.396C247.452 144.396 248.164 144.504 248.721 144.721C249.277 144.932 249.731 145.21 250.083 145.556C250.435 145.896 250.71 146.256 250.909 146.637C251.114 147.012 251.278 147.451 251.401 147.955C251.642 148.916 251.762 149.918 251.762 150.961C251.762 153.299 251.366 155.01 250.575 156.094C249.784 157.178 248.422 157.72 246.488 157.72C245.404 157.72 244.528 157.547 243.86 157.201C243.192 156.855 242.645 156.349 242.217 155.681C241.906 155.206 241.663 154.559 241.487 153.738C241.317 152.912 241.232 152.001 241.232 151.005ZM244.783 151.014C244.783 152.654 244.927 153.776 245.214 154.38C245.507 154.978 245.929 155.276 246.479 155.276C246.843 155.276 247.156 155.15 247.42 154.898C247.689 154.641 247.886 154.236 248.009 153.686C248.138 153.135 248.202 152.276 248.202 151.11C248.202 149.399 248.056 148.251 247.763 147.665C247.476 147.073 247.042 146.777 246.462 146.777C245.87 146.777 245.442 147.079 245.179 147.683C244.915 148.28 244.783 149.391 244.783 151.014ZM261.351 144.396V157.5H257.729V148.913C257.144 149.358 256.575 149.719 256.024 149.994C255.479 150.27 254.794 150.533 253.968 150.785V147.85C255.187 147.457 256.133 146.985 256.807 146.435C257.48 145.884 258.008 145.204 258.389 144.396H261.351ZM265.244 151.005C265.244 148.556 265.684 146.842 266.562 145.863C267.447 144.885 268.792 144.396 270.597 144.396C271.464 144.396 272.176 144.504 272.732 144.721C273.289 144.932 273.743 145.21 274.095 145.556C274.446 145.896 274.722 146.256 274.921 146.637C275.126 147.012 275.29 147.451 275.413 147.955C275.653 148.916 275.773 149.918 275.773 150.961C275.773 153.299 275.378 155.01 274.587 156.094C273.796 157.178 272.434 157.72 270.5 157.72C269.416 157.72 268.54 157.547 267.872 157.201C267.204 156.855 266.656 156.349 266.229 155.681C265.918 155.206 265.675 154.559 265.499 153.738C265.329 152.912 265.244 152.001 265.244 151.005ZM268.795 151.014C268.795 152.654 268.938 153.776 269.226 154.38C269.519 154.978 269.94 155.276 270.491 155.276C270.854 155.276 271.168 155.15 271.432 154.898C271.701 154.641 271.897 154.236 272.021 153.686C272.149 153.135 272.214 152.276 272.214 151.11C272.214 149.399 272.067 148.251 271.774 147.665C271.487 147.073 271.054 146.777 270.474 146.777C269.882 146.777 269.454 147.079 269.19 147.683C268.927 148.28 268.795 149.391 268.795 151.014ZM277.25 151.005C277.25 148.556 277.689 146.842 278.568 145.863C279.453 144.885 280.798 144.396 282.603 144.396C283.47 144.396 284.182 144.504 284.738 144.721C285.295 144.932 285.749 145.21 286.101 145.556C286.452 145.896 286.728 146.256 286.927 146.637C287.132 147.012 287.296 147.451 287.419 147.955C287.659 148.916 287.779 149.918 287.779 150.961C287.779 153.299 287.384 155.01 286.593 156.094C285.802 157.178 284.439 157.72 282.506 157.72C281.422 157.72 280.546 157.547 279.878 157.201C279.21 156.855 278.662 156.349 278.234 155.681C277.924 155.206 277.681 154.559 277.505 153.738C277.335 152.912 277.25 152.001 277.25 151.005ZM280.801 151.014C280.801 152.654 280.944 153.776 281.231 154.38C281.524 154.978 281.946 155.276 282.497 155.276C282.86 155.276 283.174 155.15 283.438 154.898C283.707 154.641 283.903 154.236 284.026 153.686C284.155 153.135 284.22 152.276 284.22 151.11C284.22 149.399 284.073 148.251 283.78 147.665C283.493 147.073 283.06 146.777 282.479 146.777C281.888 146.777 281.46 147.079 281.196 147.683C280.933 148.28 280.801 149.391 280.801 151.014ZM289.256 151.005C289.256 148.556 289.695 146.842 290.574 145.863C291.459 144.885 292.804 144.396 294.608 144.396C295.476 144.396 296.188 144.504 296.744 144.721C297.301 144.932 297.755 145.21 298.106 145.556C298.458 145.896 298.733 146.256 298.933 146.637C299.138 147.012 299.302 147.451 299.425 147.955C299.665 148.916 299.785 149.918 299.785 150.961C299.785 153.299 299.39 155.01 298.599 156.094C297.808 157.178 296.445 157.72 294.512 157.72C293.428 157.72 292.552 157.547 291.884 157.201C291.216 156.855 290.668 156.349 290.24 155.681C289.93 155.206 289.687 154.559 289.511 153.738C289.341 152.912 289.256 152.001 289.256 151.005ZM292.807 151.014C292.807 152.654 292.95 153.776 293.237 154.38C293.53 154.978 293.952 155.276 294.503 155.276C294.866 155.276 295.18 155.15 295.443 154.898C295.713 154.641 295.909 154.236 296.032 153.686C296.161 153.135 296.226 152.276 296.226 151.11C296.226 149.399 296.079 148.251 295.786 147.665C295.499 147.073 295.065 146.777 294.485 146.777C293.894 146.777 293.466 147.079 293.202 147.683C292.938 148.28 292.807 149.391 292.807 151.014Z" fill="white"/>
<path d="M189.921 178.911V175.842C188.964 175.568 188.261 175.156 187.812 174.604C187.367 174.047 187.145 173.374 187.145 172.583C187.145 171.782 187.396 171.11 187.899 170.568C188.407 170.021 189.081 169.707 189.921 169.624V168.898H190.983V169.624C191.759 169.716 192.377 169.982 192.836 170.422C193.295 170.856 193.588 171.44 193.715 172.172L191.862 172.414C191.75 171.838 191.457 171.447 190.983 171.242V174.106C192.155 174.423 192.953 174.836 193.378 175.344C193.803 175.847 194.015 176.494 194.015 177.285C194.015 178.168 193.747 178.913 193.209 179.519C192.677 180.124 191.935 180.495 190.983 180.632V182.001H189.921V180.668C189.076 180.566 188.39 180.251 187.863 179.724C187.335 179.196 186.999 178.452 186.852 177.49L188.764 177.285C188.842 177.675 188.988 178.012 189.203 178.295C189.418 178.579 189.657 178.784 189.921 178.911ZM189.921 171.22C189.633 171.318 189.403 171.484 189.232 171.718C189.062 171.953 188.976 172.211 188.976 172.495C188.976 172.753 189.054 172.995 189.21 173.22C189.367 173.439 189.604 173.618 189.921 173.754V171.22ZM190.983 179.013C191.349 178.945 191.647 178.776 191.876 178.508C192.106 178.234 192.221 177.915 192.221 177.548C192.221 177.221 192.123 176.94 191.928 176.706C191.737 176.467 191.422 176.284 190.983 176.157V179.013ZM199.362 180.5V178.339H194.967V176.538L199.625 169.719H201.354V176.53H202.687V178.339H201.354V180.5H199.362ZM199.362 176.53V172.861L196.894 176.53H199.362ZM204.115 180.5V178.442H206.173V180.5H204.115ZM211.886 180.5V178.339H207.492V176.538L212.15 169.719H213.878V176.53H215.211V178.339H213.878V180.5H211.886ZM211.886 176.53V172.861L209.418 176.53H211.886ZM219.679 169.719C220.719 169.719 221.532 170.09 222.118 170.832C222.816 171.711 223.166 173.168 223.166 175.205C223.166 177.236 222.814 178.696 222.111 179.584C221.53 180.317 220.719 180.683 219.679 180.683C218.634 180.683 217.792 180.283 217.152 179.482C216.513 178.676 216.193 177.243 216.193 175.183C216.193 173.161 216.544 171.706 217.248 170.817C217.829 170.085 218.639 169.719 219.679 169.719ZM219.679 171.425C219.43 171.425 219.208 171.506 219.013 171.667C218.817 171.823 218.666 172.106 218.559 172.517C218.417 173.049 218.346 173.945 218.346 175.205C218.346 176.464 218.41 177.331 218.537 177.805C218.664 178.273 218.822 178.586 219.013 178.742C219.208 178.898 219.43 178.977 219.679 178.977C219.928 178.977 220.15 178.898 220.346 178.742C220.541 178.581 220.692 178.295 220.8 177.885C220.941 177.358 221.012 176.464 221.012 175.205C221.012 173.945 220.949 173.081 220.822 172.612C220.695 172.138 220.534 171.823 220.338 171.667C220.148 171.506 219.928 171.425 219.679 171.425ZM228.029 169.719C229.069 169.719 229.882 170.09 230.468 170.832C231.166 171.711 231.515 173.168 231.515 175.205C231.515 177.236 231.164 178.696 230.46 179.584C229.879 180.317 229.069 180.683 228.029 180.683C226.984 180.683 226.142 180.283 225.502 179.482C224.862 178.676 224.542 177.243 224.542 175.183C224.542 173.161 224.894 171.706 225.597 170.817C226.178 170.085 226.989 169.719 228.029 169.719ZM228.029 171.425C227.78 171.425 227.558 171.506 227.362 171.667C227.167 171.823 227.016 172.106 226.908 172.517C226.767 173.049 226.696 173.945 226.696 175.205C226.696 176.464 226.759 177.331 226.886 177.805C227.013 178.273 227.172 178.586 227.362 178.742C227.558 178.898 227.78 178.977 228.029 178.977C228.278 178.977 228.5 178.898 228.695 178.742C228.891 178.581 229.042 178.295 229.149 177.885C229.291 177.358 229.362 176.464 229.362 175.205C229.362 173.945 229.298 173.081 229.171 172.612C229.044 172.138 228.883 171.823 228.688 171.667C228.498 171.506 228.278 171.425 228.029 171.425ZM236.378 169.719C237.418 169.719 238.231 170.09 238.817 170.832C239.516 171.711 239.865 173.168 239.865 175.205C239.865 177.236 239.513 178.696 238.81 179.584C238.229 180.317 237.418 180.683 236.378 180.683C235.333 180.683 234.491 180.283 233.852 179.482C233.212 178.676 232.892 177.243 232.892 175.183C232.892 173.161 233.244 171.706 233.947 170.817C234.528 170.085 235.338 169.719 236.378 169.719ZM236.378 171.425C236.129 171.425 235.907 171.506 235.712 171.667C235.517 171.823 235.365 172.106 235.258 172.517C235.116 173.049 235.045 173.945 235.045 175.205C235.045 176.464 235.109 177.331 235.236 177.805C235.363 178.273 235.521 178.586 235.712 178.742C235.907 178.898 236.129 178.977 236.378 178.977C236.627 178.977 236.85 178.898 237.045 178.742C237.24 178.581 237.392 178.295 237.499 177.885C237.641 177.358 237.711 176.464 237.711 175.205C237.711 173.945 237.648 173.081 237.521 172.612C237.394 172.138 237.233 171.823 237.038 171.667C236.847 171.506 236.627 171.425 236.378 171.425ZM244.728 169.719C245.768 169.719 246.581 170.09 247.167 170.832C247.865 171.711 248.214 173.168 248.214 175.205C248.214 177.236 247.863 178.696 247.16 179.584C246.579 180.317 245.768 180.683 244.728 180.683C243.683 180.683 242.841 180.283 242.201 179.482C241.562 178.676 241.242 177.243 241.242 175.183C241.242 173.161 241.593 171.706 242.296 170.817C242.877 170.085 243.688 169.719 244.728 169.719ZM244.728 171.425C244.479 171.425 244.257 171.506 244.062 171.667C243.866 171.823 243.715 172.106 243.607 172.517C243.466 173.049 243.395 173.945 243.395 175.205C243.395 176.464 243.458 177.331 243.585 177.805C243.712 178.273 243.871 178.586 244.062 178.742C244.257 178.898 244.479 178.977 244.728 178.977C244.977 178.977 245.199 178.898 245.395 178.742C245.59 178.581 245.741 178.295 245.849 177.885C245.99 177.358 246.061 176.464 246.061 175.205C246.061 173.945 245.998 173.081 245.871 172.612C245.744 172.138 245.583 171.823 245.387 171.667C245.197 171.506 244.977 171.425 244.728 171.425ZM253.078 169.719C254.118 169.719 254.931 170.09 255.517 170.832C256.215 171.711 256.564 173.168 256.564 175.205C256.564 177.236 256.212 178.696 255.509 179.584C254.928 180.317 254.118 180.683 253.078 180.683C252.033 180.683 251.19 180.283 250.551 179.482C249.911 178.676 249.591 177.243 249.591 175.183C249.591 173.161 249.943 171.706 250.646 170.817C251.227 170.085 252.038 169.719 253.078 169.719ZM253.078 171.425C252.829 171.425 252.606 171.506 252.411 171.667C252.216 171.823 252.064 172.106 251.957 172.517C251.815 173.049 251.745 173.945 251.745 175.205C251.745 176.464 251.808 177.331 251.935 177.805C252.062 178.273 252.221 178.586 252.411 178.742C252.606 178.898 252.829 178.977 253.078 178.977C253.327 178.977 253.549 178.898 253.744 178.742C253.939 178.581 254.091 178.295 254.198 177.885C254.34 177.358 254.411 176.464 254.411 175.205C254.411 173.945 254.347 173.081 254.22 172.612C254.093 172.138 253.932 171.823 253.737 171.667C253.546 171.506 253.327 171.425 253.078 171.425ZM261.427 169.719C262.467 169.719 263.28 170.09 263.866 170.832C264.564 171.711 264.914 173.168 264.914 175.205C264.914 177.236 264.562 178.696 263.859 179.584C263.278 180.317 262.467 180.683 261.427 180.683C260.382 180.683 259.54 180.283 258.9 179.482C258.261 178.676 257.941 177.243 257.941 175.183C257.941 173.161 258.292 171.706 258.996 170.817C259.577 170.085 260.387 169.719 261.427 169.719ZM261.427 171.425C261.178 171.425 260.956 171.506 260.761 171.667C260.565 171.823 260.414 172.106 260.307 172.517C260.165 173.049 260.094 173.945 260.094 175.205C260.094 176.464 260.158 177.331 260.285 177.805C260.412 178.273 260.57 178.586 260.761 178.742C260.956 178.898 261.178 178.977 261.427 178.977C261.676 178.977 261.898 178.898 262.094 178.742C262.289 178.581 262.44 178.295 262.548 177.885C262.689 177.358 262.76 176.464 262.76 175.205C262.76 173.945 262.697 173.081 262.57 172.612C262.443 172.138 262.282 171.823 262.086 171.667C261.896 171.506 261.676 171.425 261.427 171.425Z" fill="#7C8499"/>
</g>
<rect x="378" y="130" width="50" height="26.5" rx="10" fill="#383C45"/>
<path d="M395.671 138.04V148.75H394.441V139.54C393.781 140.22 392.941 140.71 391.921 141.01V139.78C392.391 139.65 392.891 139.43 393.421 139.12C393.911 138.82 394.341 138.46 394.711 138.04H395.671ZM405.13 136.45H406.195L400.885 150.25H399.805L405.13 136.45ZM411.4 137.83C412.39 137.83 413.205 138.115 413.845 138.685C414.485 139.265 414.805 140.02 414.805 140.95C414.805 141.87 414.455 142.71 413.755 143.47C413.345 143.9 412.605 144.475 411.535 145.195C410.175 146.105 409.395 146.925 409.195 147.655H414.82V148.75H407.68C407.68 147.76 408.035 146.875 408.745 146.095C409.205 145.575 409.98 144.94 411.07 144.19C411.92 143.58 412.48 143.135 412.75 142.855C413.3 142.255 413.575 141.615 413.575 140.935C413.575 140.285 413.38 139.78 412.99 139.42C412.6 139.06 412.055 138.88 411.355 138.88C410.605 138.88 410.04 139.13 409.66 139.63C409.23 140.12 409.01 140.835 409 141.775H407.77C407.77 140.585 408.105 139.63 408.775 138.91C409.435 138.19 410.31 137.83 411.4 137.83Z" fill="#7C8499"/>
<rect x="378" y="164.5" width="50" height="26.5" rx="10" fill="#383C45"/>
<path d="M399.337 172.33C400.327 172.33 401.142 172.615 401.782 173.185C402.422 173.765 402.742 174.52 402.742 175.45C402.742 176.37 402.392 177.21 401.692 177.97C401.282 178.4 400.542 178.975 399.472 179.695C398.112 180.605 397.332 181.425 397.132 182.155H402.757V183.25H395.617C395.617 182.26 395.972 181.375 396.682 180.595C397.142 180.075 397.917 179.44 399.007 178.69C399.857 178.08 400.417 177.635 400.687 177.355C401.237 176.755 401.512 176.115 401.512 175.435C401.512 174.785 401.317 174.28 400.927 173.92C400.537 173.56 399.992 173.38 399.292 173.38C398.542 173.38 397.977 173.63 397.597 174.13C397.167 174.62 396.947 175.335 396.937 176.275H395.707C395.707 175.085 396.042 174.13 396.712 173.41C397.372 172.69 398.247 172.33 399.337 172.33ZM404.086 175.495H405.496L407.506 178.255L409.501 175.495H410.911L408.166 179.14L411.241 183.25H409.816L407.506 180.025L405.181 183.25H403.756L406.831 179.14L404.086 175.495Z" fill="#7C8499"/>
<rect x="23.5" y="122.5" width="412" height="76" rx="9.5" stroke="#55657E"/>
<rect x="23" y="231" width="413" height="64" rx="10" fill="#F04E23"/>
<g filter="url(#filter0_d_64_5855)">
<path d="M207.772 269.68C207.448 269.68 207.136 269.626 206.836 269.518C206.536 269.41 206.29 269.218 206.098 268.942C205.906 268.666 205.81 268.282 205.81 267.79V259.636H207.412V267.592C207.412 267.868 207.472 268.066 207.592 268.186C207.712 268.306 207.904 268.366 208.168 268.366C208.276 268.366 208.39 268.354 208.51 268.33C208.63 268.306 208.744 268.276 208.852 268.24L209.068 269.41C208.84 269.518 208.618 269.59 208.402 269.626C208.186 269.662 207.976 269.68 207.772 269.68ZM214.039 269.68C213.079 269.68 212.323 269.458 211.771 269.014C211.231 268.558 210.847 267.946 210.619 267.178C210.403 266.41 210.295 265.564 210.295 264.64C210.295 263.62 210.397 262.78 210.601 262.12C210.817 261.448 211.117 260.92 211.501 260.536C211.897 260.14 212.365 259.864 212.905 259.708C213.457 259.54 214.063 259.456 214.723 259.456C215.683 259.456 216.463 259.6 217.063 259.888C217.675 260.164 218.125 260.56 218.413 261.076C218.701 261.592 218.845 262.21 218.845 262.93V269.5H217.261V263.074C217.261 262.33 217.075 261.766 216.703 261.382C216.331 260.986 215.689 260.788 214.777 260.788C214.225 260.788 213.727 260.89 213.283 261.094C212.851 261.298 212.509 261.676 212.257 262.228C212.017 262.78 211.897 263.59 211.897 264.658C211.897 265.354 211.963 265.984 212.095 266.548C212.239 267.1 212.485 267.538 212.833 267.862C213.181 268.186 213.667 268.348 214.291 268.348C214.471 268.348 214.639 268.336 214.795 268.312C214.951 268.288 215.101 268.252 215.245 268.204L215.407 269.446C215.215 269.53 214.993 269.59 214.741 269.626C214.501 269.662 214.267 269.68 214.039 269.68ZM211.055 258.07V257.368L212.369 256.792H218.705V258.07H211.055ZM226.517 269.68C225.749 269.68 225.083 269.53 224.519 269.23C223.967 268.918 223.589 268.486 223.385 267.934H223.313L223.223 269.5H221.909V259.636H223.511V265.342C223.511 265.942 223.613 266.47 223.817 266.926C224.033 267.37 224.339 267.718 224.735 267.97C225.143 268.21 225.629 268.33 226.193 268.33C226.901 268.33 227.429 268.144 227.777 267.772C228.125 267.4 228.299 266.854 228.299 266.134V259.636H229.901V266.242C229.901 267.034 229.763 267.682 229.487 268.186C229.223 268.69 228.839 269.068 228.335 269.32C227.831 269.56 227.225 269.68 226.517 269.68ZM233.883 269.5L232.101 259.636H233.739L234.441 263.92C234.501 264.268 234.561 264.718 234.621 265.27C234.681 265.822 234.753 266.476 234.837 267.232H234.891C234.999 266.716 235.101 266.254 235.197 265.846C235.305 265.438 235.401 265.072 235.485 264.748C235.581 264.412 235.665 264.118 235.737 263.866L236.943 259.636H238.257L239.481 263.866C239.553 264.118 239.631 264.412 239.715 264.748C239.811 265.072 239.907 265.438 240.003 265.846C240.111 266.254 240.219 266.716 240.327 267.232H240.399C240.471 266.476 240.537 265.822 240.597 265.27C240.657 264.718 240.717 264.268 240.777 263.92L241.497 259.636H243.135L241.353 269.5H239.787L238.131 264.136C238.047 263.836 237.963 263.524 237.879 263.2C237.807 262.876 237.735 262.45 237.663 261.922H237.591C237.543 262.27 237.489 262.576 237.429 262.84C237.369 263.104 237.309 263.338 237.249 263.542C237.189 263.746 237.129 263.944 237.069 264.136L235.449 269.5H233.883ZM240.096 258.07C239.592 258.07 239.19 257.998 238.89 257.854C238.59 257.71 238.374 257.524 238.242 257.296C238.098 257.068 238.026 256.828 238.026 256.576C238.026 256.396 238.056 256.204 238.116 256C238.164 255.784 238.23 255.61 238.314 255.478L239.664 255.712C239.64 255.76 239.616 255.844 239.592 255.964C239.568 256.072 239.556 256.174 239.556 256.27C239.556 256.426 239.604 256.564 239.7 256.684C239.796 256.792 239.958 256.846 240.186 256.846H244.74V258.07H240.096ZM248.739 269.68C248.031 269.68 247.419 269.56 246.903 269.32C246.399 269.068 246.009 268.69 245.733 268.186C245.469 267.682 245.337 267.028 245.337 266.224V259.636H246.939V266.134C246.939 266.854 247.119 267.4 247.479 267.772C247.851 268.144 248.385 268.33 249.081 268.33C249.921 268.33 250.569 268.06 251.025 267.52C251.493 266.98 251.727 266.254 251.727 265.342V259.636H253.329V269.5H251.997L251.925 268.042H251.835C251.619 268.522 251.241 268.918 250.701 269.23C250.173 269.53 249.519 269.68 248.739 269.68Z" fill="white"/>
</g>
<rect x="24" y="36" width="50" height="50" rx="10" fill="#F04E23"/>
<path d="M49.9179 55.79V66.5H48.6879V57.29C48.0279 57.97 47.1879 58.46 46.1679 58.76V57.53C46.6379 57.4 47.1379 57.18 47.6679 56.87C48.1579 56.57 48.5879 56.21 48.9579 55.79H49.9179Z" fill="white"/>
<rect x="84" y="36" width="50" height="50" rx="10" fill="#383C45"/>
<path d="M109.153 55.58C110.143 55.58 110.958 55.865 111.598 56.435C112.238 57.015 112.558 57.77 112.558 58.7C112.558 59.62 112.208 60.46 111.508 61.22C111.098 61.65 110.358 62.225 109.288 62.945C107.928 63.855 107.148 64.675 106.948 65.405H112.573V66.5H105.433C105.433 65.51 105.788 64.625 106.498 63.845C106.958 63.325 107.733 62.69 108.823 61.94C109.673 61.33 110.233 60.885 110.503 60.605C111.053 60.005 111.328 59.365 111.328 58.685C111.328 58.035 111.133 57.53 110.743 57.17C110.353 56.81 109.808 56.63 109.108 56.63C108.358 56.63 107.793 56.88 107.413 57.38C106.983 57.87 106.763 58.585 106.753 59.525H105.523C105.523 58.335 105.858 57.38 106.528 56.66C107.188 55.94 108.063 55.58 109.153 55.58Z" fill="#7C8499"/>
<rect x="144" y="36" width="50" height="50" rx="10" fill="#383C45"/>
<path d="M169.108 55.58C170.148 55.58 170.978 55.84 171.598 56.36C172.218 56.89 172.528 57.6 172.528 58.49C172.528 59.7 171.943 60.5 170.773 60.89C171.413 61.09 171.893 61.395 172.213 61.805C172.573 62.225 172.753 62.75 172.753 63.38C172.753 64.35 172.413 65.145 171.733 65.765C171.043 66.395 170.143 66.71 169.033 66.71C168.033 66.71 167.203 66.45 166.543 65.93C165.783 65.3 165.358 64.385 165.268 63.185H166.513C166.543 64.025 166.823 64.665 167.353 65.105C167.813 65.475 168.373 65.66 169.033 65.66C169.793 65.66 170.408 65.44 170.878 65C171.308 64.57 171.523 64.045 171.523 63.425C171.523 62.785 171.313 62.285 170.893 61.925C170.483 61.575 169.903 61.4 169.153 61.4H168.283V60.44H169.108C169.818 60.44 170.363 60.28 170.743 59.96C171.123 59.63 171.313 59.165 171.313 58.565C171.313 57.975 171.128 57.51 170.758 57.17C170.378 56.82 169.833 56.645 169.123 56.645C168.393 56.645 167.833 56.835 167.443 57.215C167.033 57.595 166.788 58.15 166.708 58.88H165.493C165.583 57.85 165.963 57.04 166.633 56.45C167.253 55.87 168.078 55.58 169.108 55.58Z" fill="#7C8499"/>
<rect x="204" y="36" width="50" height="50" rx="10" fill="#383C45"/>
<path d="M230.263 55.79H231.418V63.065H233.158V64.07H231.418V66.5H230.248V64.07H224.863V62.9L230.263 55.79ZM230.203 57.395L225.898 63.065H230.248V57.395H230.203Z" fill="#7C8499"/>
<rect x="264" y="36" width="50" height="50" rx="10" fill="#383C45"/>
<path d="M286.078 55.79H292.303V56.885H287.083L286.723 60.47H286.783C287.083 60.11 287.468 59.84 287.938 59.66C288.338 59.49 288.793 59.405 289.303 59.405C290.323 59.405 291.148 59.725 291.778 60.365C292.418 61.035 292.738 61.94 292.738 63.08C292.738 64.16 292.353 65.045 291.583 65.735C290.853 66.385 289.963 66.71 288.913 66.71C287.963 66.71 287.158 66.455 286.498 65.945C285.758 65.375 285.348 64.6 285.268 63.62H286.483C286.543 64.3 286.813 64.82 287.293 65.18C287.723 65.5 288.268 65.66 288.928 65.66C289.678 65.66 290.298 65.42 290.788 64.94C291.278 64.45 291.523 63.835 291.523 63.095C291.523 62.255 291.293 61.595 290.833 61.115C290.403 60.645 289.793 60.41 289.003 60.41C288.493 60.41 288.038 60.52 287.638 60.74C287.208 60.95 286.888 61.27 286.678 61.7H285.508L286.078 55.79Z" fill="#7C8499"/>
<rect x="324" y="36" width="50" height="50" rx="10" fill="#383C45"/>
<path d="M349.153 55.58C351.133 55.58 352.273 56.535 352.573 58.445H351.358C351.118 57.225 350.378 56.615 349.138 56.615C348.288 56.615 347.628 57.03 347.158 57.86C346.688 58.62 346.453 59.62 346.453 60.86C346.453 60.99 346.458 61.12 346.468 61.25H346.528C346.808 60.68 347.193 60.25 347.683 59.96C348.153 59.65 348.708 59.495 349.348 59.495C350.368 59.495 351.193 59.825 351.823 60.485C352.443 61.155 352.753 62.005 352.753 63.035C352.753 64.085 352.413 64.96 351.733 65.66C351.033 66.36 350.168 66.71 349.138 66.71C347.848 66.71 346.868 66.225 346.198 65.255C345.578 64.355 345.268 63.08 345.268 61.43C345.268 59.71 345.603 58.32 346.273 57.26C346.973 56.14 347.933 55.58 349.153 55.58ZM349.108 60.515C348.408 60.515 347.823 60.755 347.353 61.235C346.893 61.705 346.663 62.315 346.663 63.065C346.663 63.825 346.883 64.44 347.323 64.91C347.773 65.42 348.368 65.675 349.108 65.675C349.818 65.675 350.403 65.43 350.863 64.94C351.313 64.43 351.538 63.795 351.538 63.035C351.538 62.285 351.318 61.68 350.878 61.22C350.438 60.75 349.848 60.515 349.108 60.515Z" fill="#7C8499"/>
<rect x="384" y="36" width="50" height="50" rx="10" fill="#383C45"/>
<path d="M405.493 55.79H412.528V56.795L408.583 66.5H407.278L411.268 56.915H405.493V55.79Z" fill="#7C8499"/>
</g>
<defs>
<filter id="filter0_d_64_5855" x="201.81" y="253.478" width="55.519" height="22.2021" filterUnits="userSpaceOnUse" color-interpolation-filters="sRGB">
<feFlood flood-opacity="0" result="BackgroundImageFix"/>
<feColorMatrix in="SourceAlpha" type="matrix" values="0 0 0 0 0 0 0 0 0 0 0 0 0 0 0 0 0 0 127 0" result="hardAlpha"/>
<feOffset dy="2"/>
<feGaussianBlur stdDeviation="2"/>
<feComposite in2="hardAlpha" operator="out"/>
<feColorMatrix type="matrix" values="0 0 0 0 0 0 0 0 0 0 0 0 0 0 0 0 0 0 0.3 0"/>
<feBlend mode="normal" in2="BackgroundImageFix" result="effect1_dropShadow_64_5855"/>
<feBlend mode="normal" in="SourceGraphic" in2="effect1_dropShadow_64_5855" result="shape"/>
</filter>
<clipPath id="clip0_64_5855">
<rect width="413" height="284" fill="white" transform="translate(23.5 20)"/>
</clipPath>
<clipPath id="clip1_64_5855">
<rect width="143" height="46" fill="white" transform="translate(158 137.5)"/>
</clipPath>
<clipPath id="clip2_64_5855">
<rect width="24" height="24" fill="white" transform="translate(158 137.5)"/>
</clipPath>
</defs>
</svg>
