<svg width="460" height="324" viewBox="0 0 460 324" fill="none" xmlns="http://www.w3.org/2000/svg">
<rect width="460" height="324" rx="10" fill="#F4F7FD"/>
<g clip-path="url(#clip0_53_5913)">
<rect x="23.5" y="122.5" width="412" height="76" rx="9.5" fill="white"/>
<rect x="31" y="130" width="58" height="26.5" rx="10" fill="#F1F1F1"/>
<path d="M34.4136 138.49V140.995H36.3336V142H34.4136V146.935C34.4136 147.235 34.4686 147.44 34.5786 147.55C34.6886 147.68 34.8786 147.745 35.1486 147.745H36.1386V148.75H34.9686C34.3286 148.75 33.8736 148.585 33.6036 148.255C33.3536 147.965 33.2286 147.525 33.2286 146.935V142H31.6686V140.995H33.2286V138.985L34.4136 138.49ZM40.6306 138.01H41.6506L43.2706 139.915H42.4606L41.1406 138.58L39.8356 139.915H39.0256L40.6306 138.01ZM41.1406 140.785C42.3006 140.785 43.2306 141.195 43.9306 142.015C44.5806 142.775 44.9056 143.73 44.9056 144.88C44.9056 146.02 44.5806 146.975 43.9306 147.745C43.2406 148.555 42.3106 148.96 41.1406 148.96C39.9706 148.96 39.0406 148.555 38.3506 147.745C37.7006 146.995 37.3756 146.04 37.3756 144.88C37.3756 143.71 37.7006 142.755 38.3506 142.015C39.0406 141.195 39.9706 140.785 41.1406 140.785ZM41.1406 141.79C40.3506 141.79 39.7256 142.08 39.2656 142.66C38.8256 143.22 38.6056 143.96 38.6056 144.88C38.6056 145.78 38.8256 146.51 39.2656 147.07C39.7356 147.66 40.3606 147.955 41.1406 147.955C41.9106 147.955 42.5356 147.66 43.0156 147.07C43.4556 146.49 43.6756 145.76 43.6756 144.88C43.6756 143.98 43.4556 143.24 43.0156 142.66C42.5356 142.08 41.9106 141.79 41.1406 141.79ZM41.2151 134.92H42.5801L40.5251 137.11H39.7001L41.2151 134.92ZM47.4547 138.07C47.7147 138.07 47.9297 138.155 48.0997 138.325C48.2797 138.475 48.3697 138.685 48.3697 138.955C48.3697 139.205 48.2797 139.42 48.0997 139.6C47.9097 139.77 47.6947 139.855 47.4547 139.855C47.2147 139.855 46.9997 139.77 46.8097 139.6C46.6397 139.43 46.5547 139.215 46.5547 138.955C46.5547 138.675 46.6397 138.465 46.8097 138.325C46.9797 138.155 47.1947 138.07 47.4547 138.07ZM46.8547 140.995H48.0547V148.75H46.8547V140.995ZM57.3677 138.49V140.995H59.2877V142H57.3677V146.935C57.3677 147.235 57.4227 147.44 57.5327 147.55C57.6427 147.68 57.8327 147.745 58.1027 147.745H59.0927V148.75H57.9227C57.2827 148.75 56.8277 148.585 56.5577 148.255C56.3077 147.965 56.1827 147.525 56.1827 146.935V142H54.6227V140.995H56.1827V138.985L57.3677 138.49ZM60.6297 137.83H61.8297V142.27C62.0997 141.77 62.4597 141.395 62.9097 141.145C63.3297 140.905 63.7997 140.785 64.3197 140.785C65.2397 140.785 65.9347 141.05 66.4047 141.58C66.8847 142.1 67.1247 142.86 67.1247 143.86V148.75H65.9247V144.04C65.9247 143.33 65.7547 142.775 65.4147 142.375C65.0547 141.985 64.5547 141.79 63.9147 141.79C63.3147 141.79 62.8197 142.03 62.4297 142.51C62.0297 142.98 61.8297 143.585 61.8297 144.325V148.75H60.6297V137.83ZM69.9547 138.07C70.2147 138.07 70.4297 138.155 70.5997 138.325C70.7797 138.475 70.8697 138.685 70.8697 138.955C70.8697 139.205 70.7797 139.42 70.5997 139.6C70.4097 139.77 70.1947 139.855 69.9547 139.855C69.7147 139.855 69.4997 139.77 69.3097 139.6C69.1397 139.43 69.0547 139.215 69.0547 138.955C69.0547 138.675 69.1397 138.465 69.3097 138.325C69.4797 138.155 69.6947 138.07 69.9547 138.07ZM69.3547 140.995H70.5547V148.75H69.3547V140.995ZM75.5326 138.01H76.5526L78.1576 139.915H77.3476L76.0426 138.58L74.7226 139.915H73.9126L75.5326 138.01ZM75.9976 140.785C77.2476 140.785 78.1876 141.205 78.8176 142.045C79.3876 142.795 79.6876 143.85 79.7176 145.21H73.5976C73.6576 146.09 73.8926 146.765 74.3026 147.235C74.7226 147.715 75.3026 147.955 76.0426 147.955C76.6726 147.955 77.1876 147.795 77.5876 147.475C77.9076 147.215 78.1676 146.81 78.3676 146.26H79.5676C79.3876 147 79.0376 147.61 78.5176 148.09C77.8576 148.67 77.0326 148.96 76.0426 148.96C74.9326 148.96 74.0426 148.595 73.3726 147.865C72.6926 147.125 72.3526 146.125 72.3526 144.865C72.3526 143.705 72.6776 142.75 73.3276 142C73.9876 141.19 74.8776 140.785 75.9976 140.785ZM76.0276 141.79C75.3376 141.79 74.7826 142.015 74.3626 142.465C73.9526 142.905 73.7076 143.51 73.6276 144.28H78.4726C78.3226 142.62 77.5076 141.79 76.0276 141.79ZM75.9427 134.695C76.9727 134.695 77.4877 135.07 77.4877 135.82C77.4877 136.42 77.0127 136.9 76.0627 137.26L75.7027 136.885C76.4627 136.555 76.8427 136.2 76.8427 135.82C76.8427 135.43 76.5177 135.235 75.8677 135.235C75.4277 135.235 74.9977 135.33 74.5777 135.52V134.935C75.0177 134.775 75.4727 134.695 75.9427 134.695ZM81.1229 140.995H82.3229V145.735C82.3229 146.485 82.4779 147.035 82.7879 147.385C83.1079 147.755 83.6179 147.94 84.3179 147.94C84.8179 147.94 85.2779 147.74 85.6979 147.34C86.1179 146.92 86.3729 146.38 86.4629 145.72V140.995H87.6629V148.75H86.4629V147.55C85.8229 148.49 84.9829 148.96 83.9429 148.96C82.0629 148.96 81.1229 147.905 81.1229 145.795V140.995Z" fill="#A6A6A6"/>
<rect x="31" y="164.5" width="50" height="26.5" rx="10" fill="#F1F1F1"/>
<path d="M38.7119 172.99V175.495H40.6319V176.5H38.7119V181.435C38.7119 181.735 38.7669 181.94 38.8769 182.05C38.9869 182.18 39.1769 182.245 39.4469 182.245H40.4369V183.25H39.2669C38.6269 183.25 38.1719 183.085 37.9019 182.755C37.6519 182.465 37.5269 182.025 37.5269 181.435V176.5H35.9669V175.495H37.5269V173.485L38.7119 172.99ZM44.9289 172.51H45.9489L47.5689 174.415H46.7589L45.4389 173.08L44.1339 174.415H43.3239L44.9289 172.51ZM45.4389 175.285C46.5989 175.285 47.5289 175.695 48.2289 176.515C48.8789 177.275 49.2039 178.23 49.2039 179.38C49.2039 180.52 48.8789 181.475 48.2289 182.245C47.5389 183.055 46.6089 183.46 45.4389 183.46C44.2689 183.46 43.3389 183.055 42.6489 182.245C41.9989 181.495 41.6739 180.54 41.6739 179.38C41.6739 178.21 41.9989 177.255 42.6489 176.515C43.3389 175.695 44.2689 175.285 45.4389 175.285ZM45.4389 176.29C44.6489 176.29 44.0239 176.58 43.5639 177.16C43.1239 177.72 42.9039 178.46 42.9039 179.38C42.9039 180.28 43.1239 181.01 43.5639 181.57C44.0339 182.16 44.6589 182.455 45.4389 182.455C46.2089 182.455 46.8339 182.16 47.3139 181.57C47.7539 180.99 47.9739 180.26 47.9739 179.38C47.9739 178.48 47.7539 177.74 47.3139 177.16C46.8339 176.58 46.2089 176.29 45.4389 176.29ZM45.5135 169.42H46.8785L44.8235 171.61H43.9985L45.5135 169.42ZM51.753 172.57C52.013 172.57 52.228 172.655 52.398 172.825C52.578 172.975 52.668 173.185 52.668 173.455C52.668 173.705 52.578 173.92 52.398 174.1C52.208 174.27 51.993 174.355 51.753 174.355C51.513 174.355 51.298 174.27 51.108 174.1C50.938 173.93 50.853 173.715 50.853 173.455C50.853 173.175 50.938 172.965 51.108 172.825C51.278 172.655 51.493 172.57 51.753 172.57ZM51.153 175.495H52.353V183.25H51.153V175.495ZM62.686 173.605H65.326V172.33H66.526V173.605H67.906V174.355H66.526V183.25H65.401V181.975C64.861 182.965 64.001 183.46 62.821 183.46C61.691 183.46 60.806 183.05 60.166 182.23C59.586 181.49 59.296 180.53 59.296 179.35C59.296 178.21 59.586 177.27 60.166 176.53C60.776 175.7 61.641 175.285 62.761 175.285C63.871 175.285 64.726 175.83 65.326 176.92V174.355H62.686V173.605ZM63.016 176.275C62.156 176.275 61.516 176.575 61.096 177.175C60.716 177.685 60.526 178.41 60.526 179.35C60.526 180.29 60.711 181.025 61.081 181.555C61.511 182.165 62.141 182.47 62.971 182.47C63.751 182.47 64.356 182.17 64.786 181.57C65.166 181.02 65.356 180.315 65.356 179.455V179.305C65.356 178.415 65.141 177.685 64.711 177.115C64.281 176.555 63.716 176.275 63.016 176.275ZM72.2142 175.285C73.3142 175.285 74.1342 175.575 74.6742 176.155C75.1342 176.675 75.3642 177.38 75.3642 178.27V183.25H74.2392V181.945C73.9292 182.375 73.5292 182.725 73.0392 182.995C72.4492 183.305 71.8092 183.46 71.1192 183.46C70.3392 183.46 69.7192 183.26 69.2592 182.86C68.7792 182.45 68.5392 181.905 68.5392 181.225C68.5392 180.235 68.9342 179.515 69.7242 179.065C70.3642 178.685 71.2242 178.495 72.3042 178.495L74.1642 178.48V178.225C74.1642 176.925 73.4892 176.275 72.1392 176.275C71.5092 176.275 71.0192 176.405 70.6692 176.665C70.2792 176.935 70.0392 177.335 69.9492 177.865H68.7642C68.8842 176.975 69.2642 176.315 69.9042 175.885C70.4642 175.485 71.2342 175.285 72.2142 175.285ZM74.1642 179.425L72.3792 179.44C70.6392 179.44 69.7692 180.03 69.7692 181.21C69.7692 181.59 69.9092 181.9 70.1892 182.14C70.4792 182.37 70.8742 182.485 71.3742 182.485C72.1542 182.485 72.8192 182.245 73.3692 181.765C73.8992 181.285 74.1642 180.73 74.1642 180.1V179.425Z" fill="#A6A6A6"/>
<g clip-path="url(#clip1_53_5913)">
<g clip-path="url(#clip2_53_5913)">
<path d="M181.639 152.403C180.037 158.831 173.526 162.744 167.096 161.141C160.67 159.538 156.757 153.026 158.361 146.598C159.963 140.169 166.474 136.256 172.901 137.859C179.33 139.462 183.242 145.974 181.639 152.403L181.639 152.403H181.639Z" fill="#F7931A"/>
<path d="M175.292 147.79C175.53 146.193 174.315 145.335 172.652 144.762L173.191 142.599L171.875 142.271L171.35 144.377C171.003 144.291 170.648 144.21 170.295 144.129L170.823 142.009L169.507 141.681L168.968 143.843C168.681 143.778 168.4 143.713 168.127 143.646L168.128 143.639L166.313 143.185L165.962 144.592C165.962 144.592 166.939 144.816 166.919 144.829C167.452 144.963 167.548 145.316 167.532 145.595L166.918 148.06C166.955 148.069 167.002 148.082 167.055 148.104C167.011 148.093 166.964 148.081 166.916 148.069L166.055 151.521C165.989 151.683 165.824 151.927 165.451 151.834C165.464 151.853 164.494 151.595 164.494 151.595L163.84 153.103L165.554 153.53C165.873 153.61 166.185 153.693 166.493 153.772L165.948 155.96L167.263 156.288L167.803 154.123C168.162 154.221 168.511 154.311 168.852 154.396L168.314 156.55L169.631 156.878L170.176 154.695C172.421 155.12 174.11 154.948 174.821 152.917C175.393 151.282 174.792 150.339 173.611 149.724C174.471 149.525 175.119 148.96 175.292 147.791L175.292 147.79L175.292 147.79ZM172.283 152.009C171.876 153.644 169.123 152.76 168.23 152.539L168.953 149.64C169.846 149.863 172.708 150.304 172.283 152.009H172.283ZM172.69 147.767C172.319 149.254 170.027 148.498 169.284 148.313L169.94 145.684C170.683 145.869 173.077 146.215 172.69 147.767H172.69Z" fill="white"/>
</g>
<path d="M187.215 151.005C187.215 148.556 187.654 146.842 188.533 145.863C189.418 144.885 190.763 144.396 192.567 144.396C193.435 144.396 194.146 144.504 194.703 144.721C195.26 144.932 195.714 145.21 196.065 145.556C196.417 145.896 196.692 146.256 196.892 146.637C197.097 147.012 197.261 147.451 197.384 147.955C197.624 148.916 197.744 149.918 197.744 150.961C197.744 153.299 197.349 155.01 196.558 156.094C195.767 157.178 194.404 157.72 192.471 157.72C191.387 157.72 190.511 157.547 189.843 157.201C189.175 156.855 188.627 156.349 188.199 155.681C187.889 155.206 187.646 154.559 187.47 153.738C187.3 152.912 187.215 152.001 187.215 151.005ZM190.766 151.014C190.766 152.654 190.909 153.776 191.196 154.38C191.489 154.978 191.911 155.276 192.462 155.276C192.825 155.276 193.139 155.15 193.402 154.898C193.672 154.641 193.868 154.236 193.991 153.686C194.12 153.135 194.185 152.276 194.185 151.11C194.185 149.399 194.038 148.251 193.745 147.665C193.458 147.073 193.024 146.777 192.444 146.777C191.853 146.777 191.425 147.079 191.161 147.683C190.897 148.28 190.766 149.391 190.766 151.014ZM199.572 153.914H203.396V157.5H199.572V153.914ZM205.215 151.005C205.215 148.556 205.654 146.842 206.533 145.863C207.418 144.885 208.763 144.396 210.567 144.396C211.435 144.396 212.146 144.504 212.703 144.721C213.26 144.932 213.714 145.21 214.065 145.556C214.417 145.896 214.692 146.256 214.892 146.637C215.097 147.012 215.261 147.451 215.384 147.955C215.624 148.916 215.744 149.918 215.744 150.961C215.744 153.299 215.349 155.01 214.558 156.094C213.767 157.178 212.404 157.72 210.471 157.72C209.387 157.72 208.511 157.547 207.843 157.201C207.175 156.855 206.627 156.349 206.199 155.681C205.889 155.206 205.646 154.559 205.47 153.738C205.3 152.912 205.215 152.001 205.215 151.005ZM208.766 151.014C208.766 152.654 208.909 153.776 209.196 154.38C209.489 154.978 209.911 155.276 210.462 155.276C210.825 155.276 211.139 155.15 211.402 154.898C211.672 154.641 211.868 154.236 211.991 153.686C212.12 153.135 212.185 152.276 212.185 151.11C212.185 149.399 212.038 148.251 211.745 147.665C211.458 147.073 211.024 146.777 210.444 146.777C209.853 146.777 209.425 147.079 209.161 147.683C208.897 148.28 208.766 149.391 208.766 151.014ZM217.221 151.005C217.221 148.556 217.66 146.842 218.539 145.863C219.424 144.885 220.769 144.396 222.573 144.396C223.44 144.396 224.152 144.504 224.709 144.721C225.266 144.932 225.72 145.21 226.071 145.556C226.423 145.896 226.698 146.256 226.897 146.637C227.103 147.012 227.267 147.451 227.39 147.955C227.63 148.916 227.75 149.918 227.75 150.961C227.75 153.299 227.354 155.01 226.563 156.094C225.772 157.178 224.41 157.72 222.477 157.72C221.393 157.72 220.517 157.547 219.849 157.201C219.181 156.855 218.633 156.349 218.205 155.681C217.895 155.206 217.651 154.559 217.476 153.738C217.306 152.912 217.221 152.001 217.221 151.005ZM220.771 151.014C220.771 152.654 220.915 153.776 221.202 154.38C221.495 154.978 221.917 155.276 222.468 155.276C222.831 155.276 223.145 155.15 223.408 154.898C223.678 154.641 223.874 154.236 223.997 153.686C224.126 153.135 224.19 152.276 224.19 151.11C224.19 149.399 224.044 148.251 223.751 147.665C223.464 147.073 223.03 146.777 222.45 146.777C221.858 146.777 221.431 147.079 221.167 147.683C220.903 148.28 220.771 149.391 220.771 151.014ZM229.227 151.005C229.227 148.556 229.666 146.842 230.545 145.863C231.43 144.885 232.774 144.396 234.579 144.396C235.446 144.396 236.158 144.504 236.715 144.721C237.271 144.932 237.726 145.21 238.077 145.556C238.429 145.896 238.704 146.256 238.903 146.637C239.108 147.012 239.272 147.451 239.396 147.955C239.636 148.916 239.756 149.918 239.756 150.961C239.756 153.299 239.36 155.01 238.569 156.094C237.778 157.178 236.416 157.72 234.482 157.72C233.398 157.72 232.522 157.547 231.854 157.201C231.187 156.855 230.639 156.349 230.211 155.681C229.9 155.206 229.657 154.559 229.481 153.738C229.312 152.912 229.227 152.001 229.227 151.005ZM232.777 151.014C232.777 152.654 232.921 153.776 233.208 154.38C233.501 154.978 233.923 155.276 234.474 155.276C234.837 155.276 235.15 155.15 235.414 154.898C235.684 154.641 235.88 154.236 236.003 153.686C236.132 153.135 236.196 152.276 236.196 151.11C236.196 149.399 236.05 148.251 235.757 147.665C235.47 147.073 235.036 146.777 234.456 146.777C233.864 146.777 233.437 147.079 233.173 147.683C232.909 148.28 232.777 149.391 232.777 151.014ZM241.232 151.005C241.232 148.556 241.672 146.842 242.551 145.863C243.436 144.885 244.78 144.396 246.585 144.396C247.452 144.396 248.164 144.504 248.721 144.721C249.277 144.932 249.731 145.21 250.083 145.556C250.435 145.896 250.71 146.256 250.909 146.637C251.114 147.012 251.278 147.451 251.401 147.955C251.642 148.916 251.762 149.918 251.762 150.961C251.762 153.299 251.366 155.01 250.575 156.094C249.784 157.178 248.422 157.72 246.488 157.72C245.404 157.72 244.528 157.547 243.86 157.201C243.192 156.855 242.645 156.349 242.217 155.681C241.906 155.206 241.663 154.559 241.487 153.738C241.317 152.912 241.232 152.001 241.232 151.005ZM244.783 151.014C244.783 152.654 244.927 153.776 245.214 154.38C245.507 154.978 245.929 155.276 246.479 155.276C246.843 155.276 247.156 155.15 247.42 154.898C247.689 154.641 247.886 154.236 248.009 153.686C248.138 153.135 248.202 152.276 248.202 151.11C248.202 149.399 248.056 148.251 247.763 147.665C247.476 147.073 247.042 146.777 246.462 146.777C245.87 146.777 245.442 147.079 245.179 147.683C244.915 148.28 244.783 149.391 244.783 151.014ZM261.351 144.396V157.5H257.729V148.913C257.144 149.358 256.575 149.719 256.024 149.994C255.479 150.27 254.794 150.533 253.968 150.785V147.85C255.187 147.457 256.133 146.985 256.807 146.435C257.48 145.884 258.008 145.204 258.389 144.396H261.351ZM265.244 151.005C265.244 148.556 265.684 146.842 266.562 145.863C267.447 144.885 268.792 144.396 270.597 144.396C271.464 144.396 272.176 144.504 272.732 144.721C273.289 144.932 273.743 145.21 274.095 145.556C274.446 145.896 274.722 146.256 274.921 146.637C275.126 147.012 275.29 147.451 275.413 147.955C275.653 148.916 275.773 149.918 275.773 150.961C275.773 153.299 275.378 155.01 274.587 156.094C273.796 157.178 272.434 157.72 270.5 157.72C269.416 157.72 268.54 157.547 267.872 157.201C267.204 156.855 266.656 156.349 266.229 155.681C265.918 155.206 265.675 154.559 265.499 153.738C265.329 152.912 265.244 152.001 265.244 151.005ZM268.795 151.014C268.795 152.654 268.938 153.776 269.226 154.38C269.519 154.978 269.94 155.276 270.491 155.276C270.854 155.276 271.168 155.15 271.432 154.898C271.701 154.641 271.897 154.236 272.021 153.686C272.149 153.135 272.214 152.276 272.214 151.11C272.214 149.399 272.067 148.251 271.774 147.665C271.487 147.073 271.054 146.777 270.474 146.777C269.882 146.777 269.454 147.079 269.19 147.683C268.927 148.28 268.795 149.391 268.795 151.014ZM277.25 151.005C277.25 148.556 277.689 146.842 278.568 145.863C279.453 144.885 280.798 144.396 282.603 144.396C283.47 144.396 284.182 144.504 284.738 144.721C285.295 144.932 285.749 145.21 286.101 145.556C286.452 145.896 286.728 146.256 286.927 146.637C287.132 147.012 287.296 147.451 287.419 147.955C287.659 148.916 287.779 149.918 287.779 150.961C287.779 153.299 287.384 155.01 286.593 156.094C285.802 157.178 284.439 157.72 282.506 157.72C281.422 157.72 280.546 157.547 279.878 157.201C279.21 156.855 278.662 156.349 278.234 155.681C277.924 155.206 277.681 154.559 277.505 153.738C277.335 152.912 277.25 152.001 277.25 151.005ZM280.801 151.014C280.801 152.654 280.944 153.776 281.231 154.38C281.524 154.978 281.946 155.276 282.497 155.276C282.86 155.276 283.174 155.15 283.438 154.898C283.707 154.641 283.903 154.236 284.026 153.686C284.155 153.135 284.22 152.276 284.22 151.11C284.22 149.399 284.073 148.251 283.78 147.665C283.493 147.073 283.06 146.777 282.479 146.777C281.888 146.777 281.46 147.079 281.196 147.683C280.933 148.28 280.801 149.391 280.801 151.014ZM289.256 151.005C289.256 148.556 289.695 146.842 290.574 145.863C291.459 144.885 292.804 144.396 294.608 144.396C295.476 144.396 296.188 144.504 296.744 144.721C297.301 144.932 297.755 145.21 298.106 145.556C298.458 145.896 298.733 146.256 298.933 146.637C299.138 147.012 299.302 147.451 299.425 147.955C299.665 148.916 299.785 149.918 299.785 150.961C299.785 153.299 299.39 155.01 298.599 156.094C297.808 157.178 296.445 157.72 294.512 157.72C293.428 157.72 292.552 157.547 291.884 157.201C291.216 156.855 290.668 156.349 290.24 155.681C289.93 155.206 289.687 154.559 289.511 153.738C289.341 152.912 289.256 152.001 289.256 151.005ZM292.807 151.014C292.807 152.654 292.95 153.776 293.237 154.38C293.53 154.978 293.952 155.276 294.503 155.276C294.866 155.276 295.18 155.15 295.443 154.898C295.713 154.641 295.909 154.236 296.032 153.686C296.161 153.135 296.226 152.276 296.226 151.11C296.226 149.399 296.079 148.251 295.786 147.665C295.499 147.073 295.065 146.777 294.485 146.777C293.894 146.777 293.466 147.079 293.202 147.683C292.938 148.28 292.807 149.391 292.807 151.014Z" fill="#484848"/>
<path d="M189.921 178.911V175.842C188.964 175.568 188.261 175.156 187.812 174.604C187.367 174.047 187.145 173.374 187.145 172.583C187.145 171.782 187.396 171.11 187.899 170.568C188.407 170.021 189.081 169.707 189.921 169.624V168.898H190.983V169.624C191.759 169.716 192.377 169.982 192.836 170.422C193.295 170.856 193.588 171.44 193.715 172.172L191.862 172.414C191.75 171.838 191.457 171.447 190.983 171.242V174.106C192.155 174.423 192.953 174.836 193.378 175.344C193.803 175.847 194.015 176.494 194.015 177.285C194.015 178.168 193.747 178.913 193.209 179.519C192.677 180.124 191.935 180.495 190.983 180.632V182.001H189.921V180.668C189.076 180.566 188.39 180.251 187.863 179.724C187.335 179.196 186.999 178.452 186.852 177.49L188.764 177.285C188.842 177.675 188.988 178.012 189.203 178.295C189.418 178.579 189.657 178.784 189.921 178.911ZM189.921 171.22C189.633 171.318 189.403 171.484 189.232 171.718C189.062 171.953 188.976 172.211 188.976 172.495C188.976 172.753 189.054 172.995 189.21 173.22C189.367 173.439 189.604 173.618 189.921 173.754V171.22ZM190.983 179.013C191.349 178.945 191.647 178.776 191.876 178.508C192.106 178.234 192.221 177.915 192.221 177.548C192.221 177.221 192.123 176.94 191.928 176.706C191.737 176.467 191.422 176.284 190.983 176.157V179.013ZM199.362 180.5V178.339H194.967V176.538L199.625 169.719H201.354V176.53H202.687V178.339H201.354V180.5H199.362ZM199.362 176.53V172.861L196.894 176.53H199.362ZM204.115 180.5V178.442H206.173V180.5H204.115ZM211.886 180.5V178.339H207.492V176.538L212.15 169.719H213.878V176.53H215.211V178.339H213.878V180.5H211.886ZM211.886 176.53V172.861L209.418 176.53H211.886ZM219.679 169.719C220.719 169.719 221.532 170.09 222.118 170.832C222.816 171.711 223.166 173.168 223.166 175.205C223.166 177.236 222.814 178.696 222.111 179.584C221.53 180.317 220.719 180.683 219.679 180.683C218.634 180.683 217.792 180.283 217.152 179.482C216.513 178.676 216.193 177.243 216.193 175.183C216.193 173.161 216.544 171.706 217.248 170.817C217.829 170.085 218.639 169.719 219.679 169.719ZM219.679 171.425C219.43 171.425 219.208 171.506 219.013 171.667C218.817 171.823 218.666 172.106 218.559 172.517C218.417 173.049 218.346 173.945 218.346 175.205C218.346 176.464 218.41 177.331 218.537 177.805C218.664 178.273 218.822 178.586 219.013 178.742C219.208 178.898 219.43 178.977 219.679 178.977C219.928 178.977 220.15 178.898 220.346 178.742C220.541 178.581 220.692 178.295 220.8 177.885C220.941 177.358 221.012 176.464 221.012 175.205C221.012 173.945 220.949 173.081 220.822 172.612C220.695 172.138 220.534 171.823 220.338 171.667C220.148 171.506 219.928 171.425 219.679 171.425ZM228.029 169.719C229.069 169.719 229.882 170.09 230.468 170.832C231.166 171.711 231.515 173.168 231.515 175.205C231.515 177.236 231.164 178.696 230.46 179.584C229.879 180.317 229.069 180.683 228.029 180.683C226.984 180.683 226.142 180.283 225.502 179.482C224.862 178.676 224.542 177.243 224.542 175.183C224.542 173.161 224.894 171.706 225.597 170.817C226.178 170.085 226.989 169.719 228.029 169.719ZM228.029 171.425C227.78 171.425 227.558 171.506 227.362 171.667C227.167 171.823 227.016 172.106 226.908 172.517C226.767 173.049 226.696 173.945 226.696 175.205C226.696 176.464 226.759 177.331 226.886 177.805C227.013 178.273 227.172 178.586 227.362 178.742C227.558 178.898 227.78 178.977 228.029 178.977C228.278 178.977 228.5 178.898 228.695 178.742C228.891 178.581 229.042 178.295 229.149 177.885C229.291 177.358 229.362 176.464 229.362 175.205C229.362 173.945 229.298 173.081 229.171 172.612C229.044 172.138 228.883 171.823 228.688 171.667C228.498 171.506 228.278 171.425 228.029 171.425ZM236.378 169.719C237.418 169.719 238.231 170.09 238.817 170.832C239.516 171.711 239.865 173.168 239.865 175.205C239.865 177.236 239.513 178.696 238.81 179.584C238.229 180.317 237.418 180.683 236.378 180.683C235.333 180.683 234.491 180.283 233.852 179.482C233.212 178.676 232.892 177.243 232.892 175.183C232.892 173.161 233.244 171.706 233.947 170.817C234.528 170.085 235.338 169.719 236.378 169.719ZM236.378 171.425C236.129 171.425 235.907 171.506 235.712 171.667C235.517 171.823 235.365 172.106 235.258 172.517C235.116 173.049 235.045 173.945 235.045 175.205C235.045 176.464 235.109 177.331 235.236 177.805C235.363 178.273 235.521 178.586 235.712 178.742C235.907 178.898 236.129 178.977 236.378 178.977C236.627 178.977 236.85 178.898 237.045 178.742C237.24 178.581 237.392 178.295 237.499 177.885C237.641 177.358 237.711 176.464 237.711 175.205C237.711 173.945 237.648 173.081 237.521 172.612C237.394 172.138 237.233 171.823 237.038 171.667C236.847 171.506 236.627 171.425 236.378 171.425ZM244.728 169.719C245.768 169.719 246.581 170.09 247.167 170.832C247.865 171.711 248.214 173.168 248.214 175.205C248.214 177.236 247.863 178.696 247.16 179.584C246.579 180.317 245.768 180.683 244.728 180.683C243.683 180.683 242.841 180.283 242.201 179.482C241.562 178.676 241.242 177.243 241.242 175.183C241.242 173.161 241.593 171.706 242.296 170.817C242.877 170.085 243.688 169.719 244.728 169.719ZM244.728 171.425C244.479 171.425 244.257 171.506 244.062 171.667C243.866 171.823 243.715 172.106 243.607 172.517C243.466 173.049 243.395 173.945 243.395 175.205C243.395 176.464 243.458 177.331 243.585 177.805C243.712 178.273 243.871 178.586 244.062 178.742C244.257 178.898 244.479 178.977 244.728 178.977C244.977 178.977 245.199 178.898 245.395 178.742C245.59 178.581 245.741 178.295 245.849 177.885C245.99 177.358 246.061 176.464 246.061 175.205C246.061 173.945 245.998 173.081 245.871 172.612C245.744 172.138 245.583 171.823 245.387 171.667C245.197 171.506 244.977 171.425 244.728 171.425ZM253.078 169.719C254.118 169.719 254.931 170.09 255.517 170.832C256.215 171.711 256.564 173.168 256.564 175.205C256.564 177.236 256.212 178.696 255.509 179.584C254.928 180.317 254.118 180.683 253.078 180.683C252.033 180.683 251.19 180.283 250.551 179.482C249.911 178.676 249.591 177.243 249.591 175.183C249.591 173.161 249.943 171.706 250.646 170.817C251.227 170.085 252.038 169.719 253.078 169.719ZM253.078 171.425C252.829 171.425 252.606 171.506 252.411 171.667C252.216 171.823 252.064 172.106 251.957 172.517C251.815 173.049 251.745 173.945 251.745 175.205C251.745 176.464 251.808 177.331 251.935 177.805C252.062 178.273 252.221 178.586 252.411 178.742C252.606 178.898 252.829 178.977 253.078 178.977C253.327 178.977 253.549 178.898 253.744 178.742C253.939 178.581 254.091 178.295 254.198 177.885C254.34 177.358 254.411 176.464 254.411 175.205C254.411 173.945 254.347 173.081 254.22 172.612C254.093 172.138 253.932 171.823 253.737 171.667C253.546 171.506 253.327 171.425 253.078 171.425ZM261.427 169.719C262.467 169.719 263.28 170.09 263.866 170.832C264.564 171.711 264.914 173.168 264.914 175.205C264.914 177.236 264.562 178.696 263.859 179.584C263.278 180.317 262.467 180.683 261.427 180.683C260.382 180.683 259.54 180.283 258.9 179.482C258.261 178.676 257.941 177.243 257.941 175.183C257.941 173.161 258.292 171.706 258.996 170.817C259.577 170.085 260.387 169.719 261.427 169.719ZM261.427 171.425C261.178 171.425 260.956 171.506 260.761 171.667C260.565 171.823 260.414 172.106 260.307 172.517C260.165 173.049 260.094 173.945 260.094 175.205C260.094 176.464 260.158 177.331 260.285 177.805C260.412 178.273 260.57 178.586 260.761 178.742C260.956 178.898 261.178 178.977 261.427 178.977C261.676 178.977 261.898 178.898 262.094 178.742C262.289 178.581 262.44 178.295 262.548 177.885C262.689 177.358 262.76 176.464 262.76 175.205C262.76 173.945 262.697 173.081 262.57 172.612C262.443 172.138 262.282 171.823 262.086 171.667C261.896 171.506 261.676 171.425 261.427 171.425Z" fill="#A6A6A6"/>
</g>
<rect x="378" y="130" width="50" height="26.5" rx="10" fill="#F1F1F1"/>
<path d="M395.671 138.04V148.75H394.441V139.54C393.781 140.22 392.941 140.71 391.921 141.01V139.78C392.391 139.65 392.891 139.43 393.421 139.12C393.911 138.82 394.341 138.46 394.711 138.04H395.671ZM405.13 136.45H406.195L400.885 150.25H399.805L405.13 136.45ZM411.4 137.83C412.39 137.83 413.205 138.115 413.845 138.685C414.485 139.265 414.805 140.02 414.805 140.95C414.805 141.87 414.455 142.71 413.755 143.47C413.345 143.9 412.605 144.475 411.535 145.195C410.175 146.105 409.395 146.925 409.195 147.655H414.82V148.75H407.68C407.68 147.76 408.035 146.875 408.745 146.095C409.205 145.575 409.98 144.94 411.07 144.19C411.92 143.58 412.48 143.135 412.75 142.855C413.3 142.255 413.575 141.615 413.575 140.935C413.575 140.285 413.38 139.78 412.99 139.42C412.6 139.06 412.055 138.88 411.355 138.88C410.605 138.88 410.04 139.13 409.66 139.63C409.23 140.12 409.01 140.835 409 141.775H407.77C407.77 140.585 408.105 139.63 408.775 138.91C409.435 138.19 410.31 137.83 411.4 137.83Z" fill="#A6A6A6"/>
<rect x="378" y="164.5" width="50" height="26.5" rx="10" fill="#F1F1F1"/>
<path d="M399.337 172.33C400.327 172.33 401.142 172.615 401.782 173.185C402.422 173.765 402.742 174.52 402.742 175.45C402.742 176.37 402.392 177.21 401.692 177.97C401.282 178.4 400.542 178.975 399.472 179.695C398.112 180.605 397.332 181.425 397.132 182.155H402.757V183.25H395.617C395.617 182.26 395.972 181.375 396.682 180.595C397.142 180.075 397.917 179.44 399.007 178.69C399.857 178.08 400.417 177.635 400.687 177.355C401.237 176.755 401.512 176.115 401.512 175.435C401.512 174.785 401.317 174.28 400.927 173.92C400.537 173.56 399.992 173.38 399.292 173.38C398.542 173.38 397.977 173.63 397.597 174.13C397.167 174.62 396.947 175.335 396.937 176.275H395.707C395.707 175.085 396.042 174.13 396.712 173.41C397.372 172.69 398.247 172.33 399.337 172.33ZM404.086 175.495H405.496L407.506 178.255L409.501 175.495H410.911L408.166 179.14L411.241 183.25H409.816L407.506 180.025L405.181 183.25H403.756L406.831 179.14L404.086 175.495Z" fill="#A6A6A6"/>
<rect x="23.5" y="122.5" width="412" height="76" rx="9.5" stroke="#ECECEC"/>
<rect x="24" y="36" width="50" height="50" rx="10" fill="#FB6943"/>
<path d="M49.9179 55.79V66.5H48.6879V57.29C48.0279 57.97 47.1879 58.46 46.1679 58.76V57.53C46.6379 57.4 47.1379 57.18 47.6679 56.87C48.1579 56.57 48.5879 56.21 48.9579 55.79H49.9179Z" fill="white"/>
<rect x="84" y="36" width="50" height="50" rx="10" fill="#F1F1F1"/>
<path d="M109.153 55.58C110.143 55.58 110.958 55.865 111.598 56.435C112.238 57.015 112.558 57.77 112.558 58.7C112.558 59.62 112.208 60.46 111.508 61.22C111.098 61.65 110.358 62.225 109.288 62.945C107.928 63.855 107.148 64.675 106.948 65.405H112.573V66.5H105.433C105.433 65.51 105.788 64.625 106.498 63.845C106.958 63.325 107.733 62.69 108.823 61.94C109.673 61.33 110.233 60.885 110.503 60.605C111.053 60.005 111.328 59.365 111.328 58.685C111.328 58.035 111.133 57.53 110.743 57.17C110.353 56.81 109.808 56.63 109.108 56.63C108.358 56.63 107.793 56.88 107.413 57.38C106.983 57.87 106.763 58.585 106.753 59.525H105.523C105.523 58.335 105.858 57.38 106.528 56.66C107.188 55.94 108.063 55.58 109.153 55.58Z" fill="#A6A6A6"/>
<rect x="144" y="36" width="50" height="50" rx="10" fill="#F1F1F1"/>
<path d="M169.108 55.58C170.148 55.58 170.978 55.84 171.598 56.36C172.218 56.89 172.528 57.6 172.528 58.49C172.528 59.7 171.943 60.5 170.773 60.89C171.413 61.09 171.893 61.395 172.213 61.805C172.573 62.225 172.753 62.75 172.753 63.38C172.753 64.35 172.413 65.145 171.733 65.765C171.043 66.395 170.143 66.71 169.033 66.71C168.033 66.71 167.203 66.45 166.543 65.93C165.783 65.3 165.358 64.385 165.268 63.185H166.513C166.543 64.025 166.823 64.665 167.353 65.105C167.813 65.475 168.373 65.66 169.033 65.66C169.793 65.66 170.408 65.44 170.878 65C171.308 64.57 171.523 64.045 171.523 63.425C171.523 62.785 171.313 62.285 170.893 61.925C170.483 61.575 169.903 61.4 169.153 61.4H168.283V60.44H169.108C169.818 60.44 170.363 60.28 170.743 59.96C171.123 59.63 171.313 59.165 171.313 58.565C171.313 57.975 171.128 57.51 170.758 57.17C170.378 56.82 169.833 56.645 169.123 56.645C168.393 56.645 167.833 56.835 167.443 57.215C167.033 57.595 166.788 58.15 166.708 58.88H165.493C165.583 57.85 165.963 57.04 166.633 56.45C167.253 55.87 168.078 55.58 169.108 55.58Z" fill="#A6A6A6"/>
<rect x="204" y="36" width="50" height="50" rx="10" fill="#F1F1F1"/>
<path d="M230.263 55.79H231.418V63.065H233.158V64.07H231.418V66.5H230.248V64.07H224.863V62.9L230.263 55.79ZM230.203 57.395L225.898 63.065H230.248V57.395H230.203Z" fill="#A6A6A6"/>
<rect x="264" y="36" width="50" height="50" rx="10" fill="#F1F1F1"/>
<path d="M286.078 55.79H292.303V56.885H287.083L286.723 60.47H286.783C287.083 60.11 287.468 59.84 287.938 59.66C288.338 59.49 288.793 59.405 289.303 59.405C290.323 59.405 291.148 59.725 291.778 60.365C292.418 61.035 292.738 61.94 292.738 63.08C292.738 64.16 292.353 65.045 291.583 65.735C290.853 66.385 289.963 66.71 288.913 66.71C287.963 66.71 287.158 66.455 286.498 65.945C285.758 65.375 285.348 64.6 285.268 63.62H286.483C286.543 64.3 286.813 64.82 287.293 65.18C287.723 65.5 288.268 65.66 288.928 65.66C289.678 65.66 290.298 65.42 290.788 64.94C291.278 64.45 291.523 63.835 291.523 63.095C291.523 62.255 291.293 61.595 290.833 61.115C290.403 60.645 289.793 60.41 289.003 60.41C288.493 60.41 288.038 60.52 287.638 60.74C287.208 60.95 286.888 61.27 286.678 61.7H285.508L286.078 55.79Z" fill="#A6A6A6"/>
<rect x="324" y="36" width="50" height="50" rx="10" fill="#F1F1F1"/>
<path d="M349.153 55.58C351.133 55.58 352.273 56.535 352.573 58.445H351.358C351.118 57.225 350.378 56.615 349.138 56.615C348.288 56.615 347.628 57.03 347.158 57.86C346.688 58.62 346.453 59.62 346.453 60.86C346.453 60.99 346.458 61.12 346.468 61.25H346.528C346.808 60.68 347.193 60.25 347.683 59.96C348.153 59.65 348.708 59.495 349.348 59.495C350.368 59.495 351.193 59.825 351.823 60.485C352.443 61.155 352.753 62.005 352.753 63.035C352.753 64.085 352.413 64.96 351.733 65.66C351.033 66.36 350.168 66.71 349.138 66.71C347.848 66.71 346.868 66.225 346.198 65.255C345.578 64.355 345.268 63.08 345.268 61.43C345.268 59.71 345.603 58.32 346.273 57.26C346.973 56.14 347.933 55.58 349.153 55.58ZM349.108 60.515C348.408 60.515 347.823 60.755 347.353 61.235C346.893 61.705 346.663 62.315 346.663 63.065C346.663 63.825 346.883 64.44 347.323 64.91C347.773 65.42 348.368 65.675 349.108 65.675C349.818 65.675 350.403 65.43 350.863 64.94C351.313 64.43 351.538 63.795 351.538 63.035C351.538 62.285 351.318 61.68 350.878 61.22C350.438 60.75 349.848 60.515 349.108 60.515Z" fill="#A6A6A6"/>
<rect x="384" y="36" width="50" height="50" rx="10" fill="#F1F1F1"/>
<path d="M405.493 55.79H412.528V56.795L408.583 66.5H407.278L411.268 56.915H405.493V55.79Z" fill="#A6A6A6"/>
<rect x="23" y="231" width="413" height="64" rx="10" fill="#FB6943"/>
<g filter="url(#filter0_d_53_5913)">
<path d="M200.586 256.396C202.014 256.396 203.214 256.774 204.186 257.53C205.158 258.286 205.734 259.306 205.914 260.59H204.492C204.312 259.666 203.856 258.946 203.124 258.43C202.428 257.95 201.576 257.71 200.568 257.71C199.08 257.71 197.928 258.232 197.112 259.276C196.356 260.248 195.978 261.532 195.978 263.128C195.978 264.748 196.35 266.02 197.094 266.944C197.886 267.94 199.032 268.438 200.532 268.438C201.552 268.438 202.422 268.168 203.142 267.628C203.91 267.04 204.42 266.194 204.672 265.09H206.094C205.806 266.602 205.134 267.766 204.078 268.582C203.082 269.362 201.9 269.752 200.532 269.752C198.54 269.752 197.01 269.092 195.942 267.772C194.982 266.596 194.502 265.048 194.502 263.128C194.502 261.208 194.994 259.642 195.978 258.43C197.046 257.074 198.582 256.396 200.586 256.396ZM212.44 256.504H214.078L211.63 259.132H210.64L212.44 256.504ZM212.008 259.942C213.328 259.942 214.312 260.29 214.96 260.986C215.512 261.61 215.788 262.456 215.788 263.524V269.5H214.438V267.934C214.066 268.45 213.586 268.87 212.998 269.194C212.29 269.566 211.522 269.752 210.694 269.752C209.758 269.752 209.014 269.512 208.462 269.032C207.886 268.54 207.598 267.886 207.598 267.07C207.598 265.882 208.072 265.018 209.02 264.478C209.788 264.022 210.82 263.794 212.116 263.794L214.348 263.776V263.47C214.348 261.91 213.538 261.13 211.918 261.13C211.162 261.13 210.574 261.286 210.154 261.598C209.686 261.922 209.398 262.402 209.29 263.038H207.868C208.012 261.97 208.468 261.178 209.236 260.662C209.908 260.182 210.832 259.942 212.008 259.942ZM214.348 264.91L212.206 264.928C210.118 264.928 209.074 265.636 209.074 267.052C209.074 267.508 209.242 267.88 209.578 268.168C209.926 268.444 210.4 268.582 211 268.582C211.936 268.582 212.734 268.294 213.394 267.718C214.03 267.142 214.348 266.476 214.348 265.72V264.91ZM228.021 259.942C229.173 259.942 230.097 260.212 230.793 260.752C231.501 261.304 231.939 262.15 232.107 263.29H230.685C230.565 262.57 230.277 262.03 229.821 261.67C229.365 261.322 228.765 261.148 228.021 261.148C227.121 261.148 226.407 261.49 225.879 262.174C225.375 262.834 225.123 263.734 225.123 264.874C225.123 266.026 225.369 266.92 225.861 267.556C226.353 268.216 227.067 268.546 228.003 268.546C229.599 268.546 230.505 267.742 230.721 266.134H232.161C231.945 267.346 231.483 268.252 230.775 268.852C230.067 269.452 229.143 269.752 228.003 269.752C226.611 269.752 225.525 269.284 224.745 268.348C224.013 267.472 223.647 266.32 223.647 264.892C223.647 263.464 224.013 262.306 224.745 261.418C225.537 260.434 226.629 259.942 228.021 259.942ZM242.706 257.962H243.966V259.15C243.966 260.554 243.306 261.256 241.986 261.256H241.698V269.5H240.258V268.06C239.49 269.188 238.482 269.752 237.234 269.752C234.978 269.752 233.85 268.486 233.85 265.954V260.194H235.29V265.882C235.29 266.782 235.476 267.442 235.848 267.862C236.232 268.306 236.844 268.528 237.684 268.528C238.284 268.528 238.836 268.288 239.34 267.808C239.844 267.304 240.15 266.656 240.258 265.864V260.194H241.572C242.328 260.194 242.706 259.816 242.706 259.06V257.962ZM253.749 258.052H255.009V259.402C255.009 260.062 254.847 260.572 254.523 260.932C254.235 261.22 253.887 261.364 253.479 261.364H253.029L252.993 261.436C253.773 262.324 254.163 263.464 254.163 264.856C254.163 266.236 253.773 267.382 252.993 268.294C252.153 269.266 251.037 269.752 249.645 269.752C248.253 269.752 247.143 269.266 246.315 268.294C245.523 267.394 245.127 266.248 245.127 264.856C245.127 263.452 245.529 262.294 246.333 261.382C247.149 260.422 248.259 259.942 249.663 259.942C250.167 259.942 250.749 260.02 251.409 260.176C252.081 260.32 252.537 260.392 252.777 260.392C253.425 260.392 253.749 259.966 253.749 259.114V258.052ZM249.645 261.148C248.649 261.148 247.881 261.526 247.341 262.282C246.849 262.954 246.603 263.812 246.603 264.856C246.603 265.888 246.849 266.74 247.341 267.412C247.881 268.168 248.649 268.546 249.645 268.546C250.617 268.546 251.391 268.168 251.967 267.412C252.459 266.716 252.705 265.864 252.705 264.856C252.705 263.836 252.459 262.978 251.967 262.282C251.391 261.526 250.617 261.148 249.645 261.148ZM249.891 270.796C250.131 270.796 250.329 270.874 250.485 271.03C250.629 271.174 250.701 271.372 250.701 271.624C250.701 271.84 250.629 272.032 250.485 272.2C250.329 272.344 250.131 272.416 249.891 272.416C249.651 272.416 249.459 272.344 249.315 272.2C249.159 272.044 249.081 271.852 249.081 271.624C249.081 271.372 249.159 271.174 249.315 271.03C249.459 270.874 249.651 270.796 249.891 270.796ZM260.54 259.942C261.692 259.942 262.616 260.212 263.312 260.752C264.02 261.304 264.458 262.15 264.626 263.29H263.204C263.084 262.57 262.796 262.03 262.34 261.67C261.884 261.322 261.284 261.148 260.54 261.148C259.64 261.148 258.926 261.49 258.398 262.174C257.894 262.834 257.642 263.734 257.642 264.874C257.642 266.026 257.888 266.92 258.38 267.556C258.872 268.216 259.586 268.546 260.522 268.546C262.118 268.546 263.024 267.742 263.24 266.134H264.68C264.464 267.346 264.002 268.252 263.294 268.852C262.586 269.452 261.662 269.752 260.522 269.752C259.13 269.752 258.044 269.284 257.264 268.348C256.532 267.472 256.166 266.32 256.166 264.892C256.166 263.464 256.532 262.306 257.264 261.418C258.056 260.434 259.148 259.942 260.54 259.942Z" fill="white"/>
</g>
</g>
<defs>
<filter id="filter0_d_53_5913" x="190.502" y="254.396" width="78.178" height="24.02" filterUnits="userSpaceOnUse" color-interpolation-filters="sRGB">
<feFlood flood-opacity="0" result="BackgroundImageFix"/>
<feColorMatrix in="SourceAlpha" type="matrix" values="0 0 0 0 0 0 0 0 0 0 0 0 0 0 0 0 0 0 127 0" result="hardAlpha"/>
<feOffset dy="2"/>
<feGaussianBlur stdDeviation="2"/>
<feComposite in2="hardAlpha" operator="out"/>
<feColorMatrix type="matrix" values="0 0 0 0 0 0 0 0 0 0 0 0 0 0 0 0 0 0 0.3 0"/>
<feBlend mode="normal" in2="BackgroundImageFix" result="effect1_dropShadow_53_5913"/>
<feBlend mode="normal" in="SourceGraphic" in2="effect1_dropShadow_53_5913" result="shape"/>
</filter>
<clipPath id="clip0_53_5913">
<rect width="413" height="284" fill="white" transform="translate(23.5 20)"/>
</clipPath>
<clipPath id="clip1_53_5913">
<rect width="143" height="46" fill="white" transform="translate(158 137.5)"/>
</clipPath>
<clipPath id="clip2_53_5913">
<rect width="24" height="24" fill="white" transform="translate(158 137.5)"/>
</clipPath>
</defs>
</svg>
