<svg width="460" height="324" viewBox="0 0 460 324" fill="none" xmlns="http://www.w3.org/2000/svg">
<rect width="460" height="324" rx="10" fill="#0D131C"/>
<g clip-path="url(#clip0_53_5006)">
<rect x="23.5" y="122.5" width="412" height="76" rx="9.5" fill="#161F2C"/>
<rect x="31" y="130" width="50" height="26.5" rx="10" fill="#383C45"/>
<path d="M41.9 142.345H55.13V143.215H48.395V147.955L49.265 147.82V148.675L48.395 148.825V150.28H47.345V148.96C45.835 149.13 44.08 149.275 42.08 149.395L41.945 148.465L43.34 148.405V143.215H41.9V142.345ZM44.315 148.36C45.445 148.28 46.455 148.19 47.345 148.09V147.07H44.315V148.36ZM44.315 146.275H47.345V145.15H44.315V146.275ZM44.315 144.34H47.345V143.215H44.315V144.34ZM43.805 137.035H53.285V141.355H43.805V137.035ZM52.25 140.575V139.57H44.84V140.575H52.25ZM44.84 138.805H52.25V137.845H44.84V138.805ZM49.175 145.105V144.22H54.29V145.06C54.01 146.2 53.505 147.195 52.775 148.045C53.435 148.535 54.225 148.975 55.145 149.365L54.59 150.265C53.59 149.795 52.755 149.285 52.085 148.735C51.395 149.335 50.56 149.845 49.58 150.265L49.025 149.425C49.965 149.015 50.74 148.555 51.35 148.045C50.52 147.185 49.955 146.205 49.655 145.105H49.175ZM52.01 147.4C52.61 146.71 53.045 145.945 53.315 145.105H50.585C50.855 145.975 51.33 146.74 52.01 147.4ZM60.455 150.085L60.2 148.96C60.92 149.02 61.6 149.05 62.24 149.05C62.87 149.05 63.185 148.725 63.185 148.075V136.72H64.295V148.345C64.295 149.505 63.74 150.085 62.63 150.085H60.455ZM60.275 140.62C59.555 143.58 58.61 145.84 57.44 147.4L56.51 146.575C57.69 145.025 58.585 142.9 59.195 140.2L60.275 140.62ZM67.715 139.84C68.925 142.6 69.835 144.95 70.445 146.89L69.485 147.55C68.825 145.46 67.91 143.095 66.74 140.455L67.715 139.84Z" fill="#7C8499"/>
<rect x="31" y="164.5" width="50" height="26.5" rx="10" fill="#383C45"/>
<path d="M41.9 176.845H55.13V177.715H48.395V182.455L49.265 182.32V183.175L48.395 183.325V184.78H47.345V183.46C45.835 183.63 44.08 183.775 42.08 183.895L41.945 182.965L43.34 182.905V177.715H41.9V176.845ZM44.315 182.86C45.445 182.78 46.455 182.69 47.345 182.59V181.57H44.315V182.86ZM44.315 180.775H47.345V179.65H44.315V180.775ZM44.315 178.84H47.345V177.715H44.315V178.84ZM43.805 171.535H53.285V175.855H43.805V171.535ZM52.25 175.075V174.07H44.84V175.075H52.25ZM44.84 173.305H52.25V172.345H44.84V173.305ZM49.175 179.605V178.72H54.29V179.56C54.01 180.7 53.505 181.695 52.775 182.545C53.435 183.035 54.225 183.475 55.145 183.865L54.59 184.765C53.59 184.295 52.755 183.785 52.085 183.235C51.395 183.835 50.56 184.345 49.58 184.765L49.025 183.925C49.965 183.515 50.74 183.055 51.35 182.545C50.52 181.685 49.955 180.705 49.655 179.605H49.175ZM52.01 181.9C52.61 181.21 53.045 180.445 53.315 179.605H50.585C50.855 180.475 51.33 181.24 52.01 181.9ZM56.915 174.94H62.75C62.86 174.11 62.925 173.205 62.945 172.225V171.01H64.055V171.985C64.055 172.945 63.99 173.93 63.86 174.94H70.085V175.99H64.175C65.225 179.38 67.29 181.99 70.37 183.82L69.695 184.69C66.675 182.83 64.605 180.21 63.485 176.83C62.555 180.47 60.49 183.125 57.29 184.795L56.615 183.895C59.805 182.325 61.79 179.69 62.57 175.99H56.915V174.94Z" fill="#7C8499"/>
<g clip-path="url(#clip1_53_5006)">
<g clip-path="url(#clip2_53_5006)">
<path d="M181.639 152.403C180.037 158.831 173.525 162.744 167.096 161.141C160.669 159.538 156.757 153.026 158.36 146.598C159.962 140.169 166.474 136.256 172.901 137.859C179.33 139.462 183.242 145.974 181.639 152.403L181.639 152.403H181.639Z" fill="#F7931A"/>
<path d="M175.291 147.79C175.53 146.193 174.314 145.335 172.652 144.762L173.191 142.599L171.874 142.271L171.349 144.377C171.003 144.291 170.647 144.21 170.294 144.129L170.823 142.009L169.507 141.681L168.967 143.843C168.681 143.778 168.399 143.713 168.126 143.646L168.128 143.639L166.312 143.185L165.962 144.592C165.962 144.592 166.939 144.816 166.918 144.829C167.451 144.963 167.548 145.316 167.532 145.595L166.917 148.06C166.954 148.069 167.002 148.082 167.054 148.104C167.01 148.093 166.964 148.081 166.915 148.069L166.054 151.521C165.989 151.683 165.823 151.927 165.451 151.834C165.464 151.853 164.494 151.595 164.494 151.595L163.84 153.103L165.553 153.53C165.872 153.61 166.185 153.693 166.492 153.772L165.947 155.96L167.263 156.288L167.802 154.123C168.162 154.221 168.51 154.311 168.852 154.396L168.314 156.55L169.631 156.878L170.176 154.695C172.421 155.12 174.109 154.948 174.82 152.917C175.393 151.282 174.792 150.339 173.61 149.724C174.471 149.525 175.119 148.96 175.292 147.791L175.291 147.79L175.291 147.79ZM172.282 152.009C171.876 153.644 169.122 152.76 168.23 152.539L168.953 149.64C169.845 149.863 172.708 150.304 172.283 152.009H172.282ZM172.69 147.767C172.318 149.254 170.027 148.498 169.284 148.313L169.939 145.684C170.683 145.869 173.076 146.215 172.69 147.767H172.69Z" fill="white"/>
</g>
<path d="M187.215 151.005C187.215 148.556 187.654 146.842 188.533 145.863C189.418 144.885 190.763 144.396 192.567 144.396C193.435 144.396 194.146 144.504 194.703 144.721C195.26 144.932 195.714 145.21 196.065 145.556C196.417 145.896 196.692 146.256 196.892 146.637C197.097 147.012 197.261 147.451 197.384 147.955C197.624 148.916 197.744 149.918 197.744 150.961C197.744 153.299 197.349 155.01 196.558 156.094C195.767 157.178 194.404 157.72 192.471 157.72C191.387 157.72 190.511 157.547 189.843 157.201C189.175 156.855 188.627 156.349 188.199 155.681C187.889 155.206 187.646 154.559 187.47 153.738C187.3 152.912 187.215 152.001 187.215 151.005ZM190.766 151.014C190.766 152.654 190.909 153.776 191.196 154.38C191.489 154.978 191.911 155.276 192.462 155.276C192.825 155.276 193.139 155.15 193.402 154.898C193.672 154.641 193.868 154.236 193.991 153.686C194.12 153.135 194.185 152.276 194.185 151.11C194.185 149.399 194.038 148.251 193.745 147.665C193.458 147.073 193.024 146.777 192.444 146.777C191.853 146.777 191.425 147.079 191.161 147.683C190.897 148.28 190.766 149.391 190.766 151.014ZM199.572 153.914H203.396V157.5H199.572V153.914ZM205.215 151.005C205.215 148.556 205.654 146.842 206.533 145.863C207.418 144.885 208.763 144.396 210.567 144.396C211.435 144.396 212.146 144.504 212.703 144.721C213.26 144.932 213.714 145.21 214.065 145.556C214.417 145.896 214.692 146.256 214.892 146.637C215.097 147.012 215.261 147.451 215.384 147.955C215.624 148.916 215.744 149.918 215.744 150.961C215.744 153.299 215.349 155.01 214.558 156.094C213.767 157.178 212.404 157.72 210.471 157.72C209.387 157.72 208.511 157.547 207.843 157.201C207.175 156.855 206.627 156.349 206.199 155.681C205.889 155.206 205.646 154.559 205.47 153.738C205.3 152.912 205.215 152.001 205.215 151.005ZM208.766 151.014C208.766 152.654 208.909 153.776 209.196 154.38C209.489 154.978 209.911 155.276 210.462 155.276C210.825 155.276 211.139 155.15 211.402 154.898C211.672 154.641 211.868 154.236 211.991 153.686C212.12 153.135 212.185 152.276 212.185 151.11C212.185 149.399 212.038 148.251 211.745 147.665C211.458 147.073 211.024 146.777 210.444 146.777C209.853 146.777 209.425 147.079 209.161 147.683C208.897 148.28 208.766 149.391 208.766 151.014ZM217.221 151.005C217.221 148.556 217.66 146.842 218.539 145.863C219.424 144.885 220.769 144.396 222.573 144.396C223.44 144.396 224.152 144.504 224.709 144.721C225.266 144.932 225.72 145.21 226.071 145.556C226.423 145.896 226.698 146.256 226.897 146.637C227.103 147.012 227.267 147.451 227.39 147.955C227.63 148.916 227.75 149.918 227.75 150.961C227.75 153.299 227.354 155.01 226.563 156.094C225.772 157.178 224.41 157.72 222.477 157.72C221.393 157.72 220.517 157.547 219.849 157.201C219.181 156.855 218.633 156.349 218.205 155.681C217.895 155.206 217.651 154.559 217.476 153.738C217.306 152.912 217.221 152.001 217.221 151.005ZM220.771 151.014C220.771 152.654 220.915 153.776 221.202 154.38C221.495 154.978 221.917 155.276 222.468 155.276C222.831 155.276 223.145 155.15 223.408 154.898C223.678 154.641 223.874 154.236 223.997 153.686C224.126 153.135 224.19 152.276 224.19 151.11C224.19 149.399 224.044 148.251 223.751 147.665C223.464 147.073 223.03 146.777 222.45 146.777C221.858 146.777 221.431 147.079 221.167 147.683C220.903 148.28 220.771 149.391 220.771 151.014ZM229.227 151.005C229.227 148.556 229.666 146.842 230.545 145.863C231.43 144.885 232.774 144.396 234.579 144.396C235.446 144.396 236.158 144.504 236.715 144.721C237.271 144.932 237.726 145.21 238.077 145.556C238.429 145.896 238.704 146.256 238.903 146.637C239.108 147.012 239.272 147.451 239.396 147.955C239.636 148.916 239.756 149.918 239.756 150.961C239.756 153.299 239.36 155.01 238.569 156.094C237.778 157.178 236.416 157.72 234.482 157.72C233.398 157.72 232.522 157.547 231.854 157.201C231.187 156.855 230.639 156.349 230.211 155.681C229.9 155.206 229.657 154.559 229.481 153.738C229.312 152.912 229.227 152.001 229.227 151.005ZM232.777 151.014C232.777 152.654 232.921 153.776 233.208 154.38C233.501 154.978 233.923 155.276 234.474 155.276C234.837 155.276 235.15 155.15 235.414 154.898C235.684 154.641 235.88 154.236 236.003 153.686C236.132 153.135 236.196 152.276 236.196 151.11C236.196 149.399 236.05 148.251 235.757 147.665C235.47 147.073 235.036 146.777 234.456 146.777C233.864 146.777 233.437 147.079 233.173 147.683C232.909 148.28 232.777 149.391 232.777 151.014ZM241.232 151.005C241.232 148.556 241.672 146.842 242.551 145.863C243.436 144.885 244.78 144.396 246.585 144.396C247.452 144.396 248.164 144.504 248.721 144.721C249.277 144.932 249.731 145.21 250.083 145.556C250.435 145.896 250.71 146.256 250.909 146.637C251.114 147.012 251.278 147.451 251.401 147.955C251.642 148.916 251.762 149.918 251.762 150.961C251.762 153.299 251.366 155.01 250.575 156.094C249.784 157.178 248.422 157.72 246.488 157.72C245.404 157.72 244.528 157.547 243.86 157.201C243.192 156.855 242.645 156.349 242.217 155.681C241.906 155.206 241.663 154.559 241.487 153.738C241.317 152.912 241.232 152.001 241.232 151.005ZM244.783 151.014C244.783 152.654 244.927 153.776 245.214 154.38C245.507 154.978 245.929 155.276 246.479 155.276C246.843 155.276 247.156 155.15 247.42 154.898C247.689 154.641 247.886 154.236 248.009 153.686C248.138 153.135 248.202 152.276 248.202 151.11C248.202 149.399 248.056 148.251 247.763 147.665C247.476 147.073 247.042 146.777 246.462 146.777C245.87 146.777 245.442 147.079 245.179 147.683C244.915 148.28 244.783 149.391 244.783 151.014ZM261.351 144.396V157.5H257.729V148.913C257.144 149.358 256.575 149.719 256.024 149.994C255.479 150.27 254.794 150.533 253.968 150.785V147.85C255.187 147.457 256.133 146.985 256.807 146.435C257.48 145.884 258.008 145.204 258.389 144.396H261.351ZM265.244 151.005C265.244 148.556 265.684 146.842 266.562 145.863C267.447 144.885 268.792 144.396 270.597 144.396C271.464 144.396 272.176 144.504 272.732 144.721C273.289 144.932 273.743 145.21 274.095 145.556C274.446 145.896 274.722 146.256 274.921 146.637C275.126 147.012 275.29 147.451 275.413 147.955C275.653 148.916 275.773 149.918 275.773 150.961C275.773 153.299 275.378 155.01 274.587 156.094C273.796 157.178 272.434 157.72 270.5 157.72C269.416 157.72 268.54 157.547 267.872 157.201C267.204 156.855 266.656 156.349 266.229 155.681C265.918 155.206 265.675 154.559 265.499 153.738C265.329 152.912 265.244 152.001 265.244 151.005ZM268.795 151.014C268.795 152.654 268.938 153.776 269.226 154.38C269.519 154.978 269.94 155.276 270.491 155.276C270.854 155.276 271.168 155.15 271.432 154.898C271.701 154.641 271.897 154.236 272.021 153.686C272.149 153.135 272.214 152.276 272.214 151.11C272.214 149.399 272.067 148.251 271.774 147.665C271.487 147.073 271.054 146.777 270.474 146.777C269.882 146.777 269.454 147.079 269.19 147.683C268.927 148.28 268.795 149.391 268.795 151.014ZM277.25 151.005C277.25 148.556 277.689 146.842 278.568 145.863C279.453 144.885 280.798 144.396 282.603 144.396C283.47 144.396 284.182 144.504 284.738 144.721C285.295 144.932 285.749 145.21 286.101 145.556C286.452 145.896 286.728 146.256 286.927 146.637C287.132 147.012 287.296 147.451 287.419 147.955C287.659 148.916 287.779 149.918 287.779 150.961C287.779 153.299 287.384 155.01 286.593 156.094C285.802 157.178 284.439 157.72 282.506 157.72C281.422 157.72 280.546 157.547 279.878 157.201C279.21 156.855 278.662 156.349 278.234 155.681C277.924 155.206 277.681 154.559 277.505 153.738C277.335 152.912 277.25 152.001 277.25 151.005ZM280.801 151.014C280.801 152.654 280.944 153.776 281.231 154.38C281.524 154.978 281.946 155.276 282.497 155.276C282.86 155.276 283.174 155.15 283.438 154.898C283.707 154.641 283.903 154.236 284.026 153.686C284.155 153.135 284.22 152.276 284.22 151.11C284.22 149.399 284.073 148.251 283.78 147.665C283.493 147.073 283.06 146.777 282.479 146.777C281.888 146.777 281.46 147.079 281.196 147.683C280.933 148.28 280.801 149.391 280.801 151.014ZM289.256 151.005C289.256 148.556 289.695 146.842 290.574 145.863C291.459 144.885 292.804 144.396 294.608 144.396C295.476 144.396 296.188 144.504 296.744 144.721C297.301 144.932 297.755 145.21 298.106 145.556C298.458 145.896 298.733 146.256 298.933 146.637C299.138 147.012 299.302 147.451 299.425 147.955C299.665 148.916 299.785 149.918 299.785 150.961C299.785 153.299 299.39 155.01 298.599 156.094C297.808 157.178 296.445 157.72 294.512 157.72C293.428 157.72 292.552 157.547 291.884 157.201C291.216 156.855 290.668 156.349 290.24 155.681C289.93 155.206 289.687 154.559 289.511 153.738C289.341 152.912 289.256 152.001 289.256 151.005ZM292.807 151.014C292.807 152.654 292.95 153.776 293.237 154.38C293.53 154.978 293.952 155.276 294.503 155.276C294.866 155.276 295.18 155.15 295.443 154.898C295.713 154.641 295.909 154.236 296.032 153.686C296.161 153.135 296.226 152.276 296.226 151.11C296.226 149.399 296.079 148.251 295.786 147.665C295.499 147.073 295.065 146.777 294.485 146.777C293.894 146.777 293.466 147.079 293.202 147.683C292.938 148.28 292.807 149.391 292.807 151.014Z" fill="white"/>
<path d="M189.921 178.911V175.842C188.964 175.568 188.261 175.156 187.812 174.604C187.367 174.047 187.145 173.374 187.145 172.583C187.145 171.782 187.396 171.11 187.899 170.568C188.407 170.021 189.081 169.707 189.921 169.624V168.898H190.983V169.624C191.759 169.716 192.377 169.982 192.836 170.422C193.295 170.856 193.588 171.44 193.715 172.172L191.862 172.414C191.75 171.838 191.457 171.447 190.983 171.242V174.106C192.155 174.423 192.953 174.836 193.378 175.344C193.803 175.847 194.015 176.494 194.015 177.285C194.015 178.168 193.747 178.913 193.209 179.519C192.677 180.124 191.935 180.495 190.983 180.632V182.001H189.921V180.668C189.076 180.566 188.39 180.251 187.863 179.724C187.335 179.196 186.999 178.452 186.852 177.49L188.764 177.285C188.842 177.675 188.988 178.012 189.203 178.295C189.418 178.579 189.657 178.784 189.921 178.911ZM189.921 171.22C189.633 171.318 189.403 171.484 189.232 171.718C189.062 171.953 188.976 172.211 188.976 172.495C188.976 172.753 189.054 172.995 189.21 173.22C189.367 173.439 189.604 173.618 189.921 173.754V171.22ZM190.983 179.013C191.349 178.945 191.647 178.776 191.876 178.508C192.106 178.234 192.221 177.915 192.221 177.548C192.221 177.221 192.123 176.94 191.928 176.706C191.737 176.467 191.422 176.284 190.983 176.157V179.013ZM199.362 180.5V178.339H194.967V176.538L199.625 169.719H201.354V176.53H202.687V178.339H201.354V180.5H199.362ZM199.362 176.53V172.861L196.894 176.53H199.362ZM204.115 180.5V178.442H206.173V180.5H204.115ZM211.886 180.5V178.339H207.492V176.538L212.15 169.719H213.878V176.53H215.211V178.339H213.878V180.5H211.886ZM211.886 176.53V172.861L209.418 176.53H211.886ZM219.679 169.719C220.719 169.719 221.532 170.09 222.118 170.832C222.816 171.711 223.166 173.168 223.166 175.205C223.166 177.236 222.814 178.696 222.111 179.584C221.53 180.317 220.719 180.683 219.679 180.683C218.634 180.683 217.792 180.283 217.152 179.482C216.513 178.676 216.193 177.243 216.193 175.183C216.193 173.161 216.544 171.706 217.248 170.817C217.829 170.085 218.639 169.719 219.679 169.719ZM219.679 171.425C219.43 171.425 219.208 171.506 219.013 171.667C218.817 171.823 218.666 172.106 218.559 172.517C218.417 173.049 218.346 173.945 218.346 175.205C218.346 176.464 218.41 177.331 218.537 177.805C218.664 178.273 218.822 178.586 219.013 178.742C219.208 178.898 219.43 178.977 219.679 178.977C219.928 178.977 220.15 178.898 220.346 178.742C220.541 178.581 220.692 178.295 220.8 177.885C220.941 177.358 221.012 176.464 221.012 175.205C221.012 173.945 220.949 173.081 220.822 172.612C220.695 172.138 220.534 171.823 220.338 171.667C220.148 171.506 219.928 171.425 219.679 171.425ZM228.029 169.719C229.069 169.719 229.882 170.09 230.468 170.832C231.166 171.711 231.515 173.168 231.515 175.205C231.515 177.236 231.164 178.696 230.46 179.584C229.879 180.317 229.069 180.683 228.029 180.683C226.984 180.683 226.142 180.283 225.502 179.482C224.862 178.676 224.542 177.243 224.542 175.183C224.542 173.161 224.894 171.706 225.597 170.817C226.178 170.085 226.989 169.719 228.029 169.719ZM228.029 171.425C227.78 171.425 227.558 171.506 227.362 171.667C227.167 171.823 227.016 172.106 226.908 172.517C226.767 173.049 226.696 173.945 226.696 175.205C226.696 176.464 226.759 177.331 226.886 177.805C227.013 178.273 227.172 178.586 227.362 178.742C227.558 178.898 227.78 178.977 228.029 178.977C228.278 178.977 228.5 178.898 228.695 178.742C228.891 178.581 229.042 178.295 229.149 177.885C229.291 177.358 229.362 176.464 229.362 175.205C229.362 173.945 229.298 173.081 229.171 172.612C229.044 172.138 228.883 171.823 228.688 171.667C228.498 171.506 228.278 171.425 228.029 171.425ZM236.378 169.719C237.418 169.719 238.231 170.09 238.817 170.832C239.516 171.711 239.865 173.168 239.865 175.205C239.865 177.236 239.513 178.696 238.81 179.584C238.229 180.317 237.418 180.683 236.378 180.683C235.333 180.683 234.491 180.283 233.852 179.482C233.212 178.676 232.892 177.243 232.892 175.183C232.892 173.161 233.244 171.706 233.947 170.817C234.528 170.085 235.338 169.719 236.378 169.719ZM236.378 171.425C236.129 171.425 235.907 171.506 235.712 171.667C235.517 171.823 235.365 172.106 235.258 172.517C235.116 173.049 235.045 173.945 235.045 175.205C235.045 176.464 235.109 177.331 235.236 177.805C235.363 178.273 235.521 178.586 235.712 178.742C235.907 178.898 236.129 178.977 236.378 178.977C236.627 178.977 236.85 178.898 237.045 178.742C237.24 178.581 237.392 178.295 237.499 177.885C237.641 177.358 237.711 176.464 237.711 175.205C237.711 173.945 237.648 173.081 237.521 172.612C237.394 172.138 237.233 171.823 237.038 171.667C236.847 171.506 236.627 171.425 236.378 171.425ZM244.728 169.719C245.768 169.719 246.581 170.09 247.167 170.832C247.865 171.711 248.214 173.168 248.214 175.205C248.214 177.236 247.863 178.696 247.16 179.584C246.579 180.317 245.768 180.683 244.728 180.683C243.683 180.683 242.841 180.283 242.201 179.482C241.562 178.676 241.242 177.243 241.242 175.183C241.242 173.161 241.593 171.706 242.296 170.817C242.877 170.085 243.688 169.719 244.728 169.719ZM244.728 171.425C244.479 171.425 244.257 171.506 244.062 171.667C243.866 171.823 243.715 172.106 243.607 172.517C243.466 173.049 243.395 173.945 243.395 175.205C243.395 176.464 243.458 177.331 243.585 177.805C243.712 178.273 243.871 178.586 244.062 178.742C244.257 178.898 244.479 178.977 244.728 178.977C244.977 178.977 245.199 178.898 245.395 178.742C245.59 178.581 245.741 178.295 245.849 177.885C245.99 177.358 246.061 176.464 246.061 175.205C246.061 173.945 245.998 173.081 245.871 172.612C245.744 172.138 245.583 171.823 245.387 171.667C245.197 171.506 244.977 171.425 244.728 171.425ZM253.078 169.719C254.118 169.719 254.931 170.09 255.517 170.832C256.215 171.711 256.564 173.168 256.564 175.205C256.564 177.236 256.212 178.696 255.509 179.584C254.928 180.317 254.118 180.683 253.078 180.683C252.033 180.683 251.19 180.283 250.551 179.482C249.911 178.676 249.591 177.243 249.591 175.183C249.591 173.161 249.943 171.706 250.646 170.817C251.227 170.085 252.038 169.719 253.078 169.719ZM253.078 171.425C252.829 171.425 252.606 171.506 252.411 171.667C252.216 171.823 252.064 172.106 251.957 172.517C251.815 173.049 251.745 173.945 251.745 175.205C251.745 176.464 251.808 177.331 251.935 177.805C252.062 178.273 252.221 178.586 252.411 178.742C252.606 178.898 252.829 178.977 253.078 178.977C253.327 178.977 253.549 178.898 253.744 178.742C253.939 178.581 254.091 178.295 254.198 177.885C254.34 177.358 254.411 176.464 254.411 175.205C254.411 173.945 254.347 173.081 254.22 172.612C254.093 172.138 253.932 171.823 253.737 171.667C253.546 171.506 253.327 171.425 253.078 171.425ZM261.427 169.719C262.467 169.719 263.28 170.09 263.866 170.832C264.564 171.711 264.914 173.168 264.914 175.205C264.914 177.236 264.562 178.696 263.859 179.584C263.278 180.317 262.467 180.683 261.427 180.683C260.382 180.683 259.54 180.283 258.9 179.482C258.261 178.676 257.941 177.243 257.941 175.183C257.941 173.161 258.292 171.706 258.996 170.817C259.577 170.085 260.387 169.719 261.427 169.719ZM261.427 171.425C261.178 171.425 260.956 171.506 260.761 171.667C260.565 171.823 260.414 172.106 260.307 172.517C260.165 173.049 260.094 173.945 260.094 175.205C260.094 176.464 260.158 177.331 260.285 177.805C260.412 178.273 260.57 178.586 260.761 178.742C260.956 178.898 261.178 178.977 261.427 178.977C261.676 178.977 261.898 178.898 262.094 178.742C262.289 178.581 262.44 178.295 262.548 177.885C262.689 177.358 262.76 176.464 262.76 175.205C262.76 173.945 262.697 173.081 262.57 172.612C262.443 172.138 262.282 171.823 262.086 171.667C261.896 171.506 261.676 171.425 261.427 171.425Z" fill="#7C8499"/>
</g>
<rect x="378" y="130" width="50" height="26.5" rx="10" fill="#383C45"/>
<path d="M395.671 138.04V148.75H394.441V139.54C393.781 140.22 392.941 140.71 391.921 141.01V139.78C392.391 139.65 392.891 139.43 393.421 139.12C393.911 138.82 394.341 138.46 394.711 138.04H395.671ZM405.13 136.45H406.195L400.885 150.25H399.805L405.13 136.45ZM411.4 137.83C412.39 137.83 413.205 138.115 413.845 138.685C414.485 139.265 414.805 140.02 414.805 140.95C414.805 141.87 414.455 142.71 413.755 143.47C413.345 143.9 412.605 144.475 411.535 145.195C410.175 146.105 409.395 146.925 409.195 147.655H414.82V148.75H407.68C407.68 147.76 408.035 146.875 408.745 146.095C409.205 145.575 409.98 144.94 411.07 144.19C411.92 143.58 412.48 143.135 412.75 142.855C413.3 142.255 413.575 141.615 413.575 140.935C413.575 140.285 413.38 139.78 412.99 139.42C412.6 139.06 412.055 138.88 411.355 138.88C410.605 138.88 410.04 139.13 409.66 139.63C409.23 140.12 409.01 140.835 409 141.775H407.77C407.77 140.585 408.105 139.63 408.775 138.91C409.435 138.19 410.31 137.83 411.4 137.83Z" fill="#7C8499"/>
<rect x="378" y="164.5" width="50" height="26.5" rx="10" fill="#383C45"/>
<path d="M399.337 172.33C400.327 172.33 401.142 172.615 401.782 173.185C402.422 173.765 402.742 174.52 402.742 175.45C402.742 176.37 402.392 177.21 401.692 177.97C401.282 178.4 400.542 178.975 399.472 179.695C398.112 180.605 397.332 181.425 397.132 182.155H402.757V183.25H395.617C395.617 182.26 395.972 181.375 396.682 180.595C397.142 180.075 397.917 179.44 399.007 178.69C399.857 178.08 400.417 177.635 400.687 177.355C401.237 176.755 401.512 176.115 401.512 175.435C401.512 174.785 401.317 174.28 400.927 173.92C400.537 173.56 399.992 173.38 399.292 173.38C398.542 173.38 397.977 173.63 397.597 174.13C397.167 174.62 396.947 175.335 396.937 176.275H395.707C395.707 175.085 396.042 174.13 396.712 173.41C397.372 172.69 398.247 172.33 399.337 172.33ZM404.086 175.495H405.496L407.506 178.255L409.501 175.495H410.911L408.166 179.14L411.241 183.25H409.816L407.506 180.025L405.181 183.25H403.756L406.831 179.14L404.086 175.495Z" fill="#7C8499"/>
<rect x="23.5" y="122.5" width="412" height="76" rx="9.5" stroke="#55657E"/>
<rect x="23" y="231" width="413" height="64" rx="10" fill="#F04E23"/>
<g filter="url(#filter0_d_53_5006)">
<path d="M213.516 255.874H227.538V257.134H224.532V261.904H228.474V263.146H224.532V271.12H223.218V263.146H218.016C217.848 265.006 217.5 266.542 216.972 267.754C216.288 269.266 215.154 270.436 213.57 271.264L212.868 270.148C214.332 269.32 215.352 268.222 215.928 266.854C216.3 265.834 216.558 264.598 216.702 263.146H212.544V261.904H216.774L216.792 261.274V257.134H213.516V255.874ZM218.124 257.134V261.598L218.106 261.904H223.218V257.134H218.124ZM233.73 254.83C233.574 256.054 233.412 257.188 233.244 258.232H235.908V258.988C235.764 261.892 235.26 264.406 234.396 266.53C235.296 267.466 235.992 268.264 236.484 268.924L235.62 269.932C235.068 269.2 234.468 268.486 233.82 267.79C233.088 269.182 232.194 270.37 231.138 271.354L230.328 270.328C231.396 269.356 232.266 268.192 232.938 266.836C232.302 266.188 231.528 265.426 230.616 264.55C231.048 262.978 231.426 261.286 231.75 259.474H230.31V258.232H231.966C232.146 257.092 232.308 255.922 232.452 254.722L233.73 254.83ZM233.478 265.594C234.15 263.806 234.552 261.766 234.684 259.474H233.046C232.698 261.418 232.35 262.984 232.002 264.172C232.53 264.652 233.022 265.126 233.478 265.594ZM245.412 263.65V271.318H244.17V270.238H238.662V271.318H237.42V263.65H245.412ZM238.662 269.014H244.17V264.838H238.662V269.014ZM236.52 260.86C237.576 260.32 238.872 258.292 240.408 254.776L241.632 255.19C240.564 257.494 239.484 259.36 238.392 260.788C240.444 260.644 242.37 260.428 244.17 260.14C243.63 259.072 243.12 258.16 242.64 257.404L243.756 256.864C244.776 258.496 245.706 260.23 246.546 262.066L245.34 262.642C244.98 261.814 244.77 261.346 244.71 261.238C242.238 261.586 239.574 261.85 236.718 262.03L236.52 260.86Z" fill="white"/>
</g>
<rect x="24" y="36" width="50" height="50" rx="10" fill="#F04E23"/>
<path d="M49.9179 55.79V66.5H48.6879V57.29C48.0279 57.97 47.1879 58.46 46.1679 58.76V57.53C46.6379 57.4 47.1379 57.18 47.6679 56.87C48.1579 56.57 48.5879 56.21 48.9579 55.79H49.9179Z" fill="white"/>
<rect x="84" y="36" width="50" height="50" rx="10" fill="#383C45"/>
<path d="M109.153 55.58C110.143 55.58 110.958 55.865 111.598 56.435C112.238 57.015 112.558 57.77 112.558 58.7C112.558 59.62 112.208 60.46 111.508 61.22C111.098 61.65 110.358 62.225 109.288 62.945C107.928 63.855 107.148 64.675 106.948 65.405H112.573V66.5H105.433C105.433 65.51 105.788 64.625 106.498 63.845C106.958 63.325 107.733 62.69 108.823 61.94C109.673 61.33 110.233 60.885 110.503 60.605C111.053 60.005 111.328 59.365 111.328 58.685C111.328 58.035 111.133 57.53 110.743 57.17C110.353 56.81 109.808 56.63 109.108 56.63C108.358 56.63 107.793 56.88 107.413 57.38C106.983 57.87 106.763 58.585 106.753 59.525H105.523C105.523 58.335 105.858 57.38 106.528 56.66C107.188 55.94 108.063 55.58 109.153 55.58Z" fill="#7C8499"/>
<rect x="144" y="36" width="50" height="50" rx="10" fill="#383C45"/>
<path d="M169.108 55.58C170.148 55.58 170.978 55.84 171.598 56.36C172.218 56.89 172.528 57.6 172.528 58.49C172.528 59.7 171.943 60.5 170.773 60.89C171.413 61.09 171.893 61.395 172.213 61.805C172.573 62.225 172.753 62.75 172.753 63.38C172.753 64.35 172.413 65.145 171.733 65.765C171.043 66.395 170.143 66.71 169.033 66.71C168.033 66.71 167.203 66.45 166.543 65.93C165.783 65.3 165.358 64.385 165.268 63.185H166.513C166.543 64.025 166.823 64.665 167.353 65.105C167.813 65.475 168.373 65.66 169.033 65.66C169.793 65.66 170.408 65.44 170.878 65C171.308 64.57 171.523 64.045 171.523 63.425C171.523 62.785 171.313 62.285 170.893 61.925C170.483 61.575 169.903 61.4 169.153 61.4H168.283V60.44H169.108C169.818 60.44 170.363 60.28 170.743 59.96C171.123 59.63 171.313 59.165 171.313 58.565C171.313 57.975 171.128 57.51 170.758 57.17C170.378 56.82 169.833 56.645 169.123 56.645C168.393 56.645 167.833 56.835 167.443 57.215C167.033 57.595 166.788 58.15 166.708 58.88H165.493C165.583 57.85 165.963 57.04 166.633 56.45C167.253 55.87 168.078 55.58 169.108 55.58Z" fill="#7C8499"/>
<rect x="204" y="36" width="50" height="50" rx="10" fill="#383C45"/>
<path d="M230.263 55.79H231.418V63.065H233.158V64.07H231.418V66.5H230.248V64.07H224.863V62.9L230.263 55.79ZM230.203 57.395L225.898 63.065H230.248V57.395H230.203Z" fill="#7C8499"/>
<rect x="264" y="36" width="50" height="50" rx="10" fill="#383C45"/>
<path d="M286.078 55.79H292.303V56.885H287.083L286.723 60.47H286.783C287.083 60.11 287.468 59.84 287.938 59.66C288.338 59.49 288.793 59.405 289.303 59.405C290.323 59.405 291.148 59.725 291.778 60.365C292.418 61.035 292.738 61.94 292.738 63.08C292.738 64.16 292.353 65.045 291.583 65.735C290.853 66.385 289.963 66.71 288.913 66.71C287.963 66.71 287.158 66.455 286.498 65.945C285.758 65.375 285.348 64.6 285.268 63.62H286.483C286.543 64.3 286.813 64.82 287.293 65.18C287.723 65.5 288.268 65.66 288.928 65.66C289.678 65.66 290.298 65.42 290.788 64.94C291.278 64.45 291.523 63.835 291.523 63.095C291.523 62.255 291.293 61.595 290.833 61.115C290.403 60.645 289.793 60.41 289.003 60.41C288.493 60.41 288.038 60.52 287.638 60.74C287.208 60.95 286.888 61.27 286.678 61.7H285.508L286.078 55.79Z" fill="#7C8499"/>
<rect x="324" y="36" width="50" height="50" rx="10" fill="#383C45"/>
<path d="M349.153 55.58C351.133 55.58 352.273 56.535 352.573 58.445H351.358C351.118 57.225 350.378 56.615 349.138 56.615C348.288 56.615 347.628 57.03 347.158 57.86C346.688 58.62 346.453 59.62 346.453 60.86C346.453 60.99 346.458 61.12 346.468 61.25H346.528C346.808 60.68 347.193 60.25 347.683 59.96C348.153 59.65 348.708 59.495 349.348 59.495C350.368 59.495 351.193 59.825 351.823 60.485C352.443 61.155 352.753 62.005 352.753 63.035C352.753 64.085 352.413 64.96 351.733 65.66C351.033 66.36 350.168 66.71 349.138 66.71C347.848 66.71 346.868 66.225 346.198 65.255C345.578 64.355 345.268 63.08 345.268 61.43C345.268 59.71 345.603 58.32 346.273 57.26C346.973 56.14 347.933 55.58 349.153 55.58ZM349.108 60.515C348.408 60.515 347.823 60.755 347.353 61.235C346.893 61.705 346.663 62.315 346.663 63.065C346.663 63.825 346.883 64.44 347.323 64.91C347.773 65.42 348.368 65.675 349.108 65.675C349.818 65.675 350.403 65.43 350.863 64.94C351.313 64.43 351.538 63.795 351.538 63.035C351.538 62.285 351.318 61.68 350.878 61.22C350.438 60.75 349.848 60.515 349.108 60.515Z" fill="#7C8499"/>
<rect x="384" y="36" width="50" height="50" rx="10" fill="#383C45"/>
<path d="M405.493 55.79H412.528V56.795L408.583 66.5H407.278L411.268 56.915H405.493V55.79Z" fill="#7C8499"/>
</g>
<defs>
<filter id="filter0_d_53_5006" x="208.544" y="252.722" width="42.002" height="24.6321" filterUnits="userSpaceOnUse" color-interpolation-filters="sRGB">
<feFlood flood-opacity="0" result="BackgroundImageFix"/>
<feColorMatrix in="SourceAlpha" type="matrix" values="0 0 0 0 0 0 0 0 0 0 0 0 0 0 0 0 0 0 127 0" result="hardAlpha"/>
<feOffset dy="2"/>
<feGaussianBlur stdDeviation="2"/>
<feComposite in2="hardAlpha" operator="out"/>
<feColorMatrix type="matrix" values="0 0 0 0 0 0 0 0 0 0 0 0 0 0 0 0 0 0 0.3 0"/>
<feBlend mode="normal" in2="BackgroundImageFix" result="effect1_dropShadow_53_5006"/>
<feBlend mode="normal" in="SourceGraphic" in2="effect1_dropShadow_53_5006" result="shape"/>
</filter>
<clipPath id="clip0_53_5006">
<rect width="413" height="284" fill="white" transform="translate(23.5 20)"/>
</clipPath>
<clipPath id="clip1_53_5006">
<rect width="143" height="46" fill="white" transform="translate(158 137.5)"/>
</clipPath>
<clipPath id="clip2_53_5006">
<rect width="24" height="24" fill="white" transform="translate(158 137.5)"/>
</clipPath>
</defs>
</svg>
