<svg width="188" height="41" viewBox="0 0 188 41" fill="none" xmlns="http://www.w3.org/2000/svg">
<path opacity="0.1" d="M0.12 33H18.92V27.24H13.56V3.96H8.32C6.24 5.24 4.16 6.04 0.96 6.68V11.08H6.44V27.24H0.12V33ZM21.975 40.32H26.615L35.415 0.479999H30.815L21.975 40.32ZM44.4456 20.8L47.8456 14.96C48.6856 13.24 49.4856 11.6 50.2456 9.92H50.4056C50.3256 11.8 50.1656 14.68 50.1656 16.56V20.8H44.4456ZM50.1656 33H56.8056V26.24H60.0856V20.8H56.8056V3.96H48.0056L37.6456 21.28V26.24H50.1656V33ZM73.7213 33H80.8813V21.64H91.0413V15.68H80.8813V9.16H92.7213V3.2H73.7213V33ZM97.8619 33H105.022V3.2H97.8619V33ZM111.846 33H118.646V23.12C118.646 19.52 118.046 15.44 117.726 12.12H117.926L120.846 18.64L128.206 33H135.486V3.2H128.686V13.08C128.686 16.64 129.286 20.92 129.646 24.08H129.446L126.526 17.48L119.126 3.2H111.846V33ZM149.633 18.12C150.393 15.16 151.193 11.68 151.913 8.56H152.073C152.873 11.6 153.633 15.16 154.433 18.12L155.073 20.64H148.993L149.633 18.12ZM138.633 33H145.913L147.633 26.16H156.433L158.153 33H165.673L156.433 3.2H147.873L138.633 33ZM168.799 33H187.559V27H175.959V3.2H168.799V33Z" fill="white"/>
</svg>
