<svg width="188" height="41" viewBox="0 0 188 41" fill="none" xmlns="http://www.w3.org/2000/svg">
<path opacity="0.1" d="M0.487188 33H19.2872V27.24H13.9272V3.96H8.68719C6.60719 5.24 4.52719 6.04 1.32719 6.68V11.08H6.80719V27.24H0.487188V33ZM22.3422 40.32H26.9822L35.7822 0.479999H31.1822L22.3422 40.32ZM49.2528 33.56C55.4928 33.56 59.6528 30.08 59.6528 25.48C59.6528 21.6 57.4528 19.36 54.6528 17.84V17.64C56.6528 16.32 58.4128 14.12 58.4128 11.4C58.4128 6.52 54.8528 3.4 49.4928 3.4C44.0128 3.4 40.0528 6.48 40.0528 11.52C40.0528 14.52 41.6528 16.64 43.9328 18.36V18.52C41.2128 20 39.0528 22.12 39.0528 25.6C39.0528 30.32 43.4128 33.56 49.2528 33.56ZM51.0528 15.96C48.1728 14.8 46.2928 13.72 46.2928 11.52C46.2928 9.32 47.6928 8.36 49.3328 8.36C51.4128 8.36 52.6528 9.72 52.6528 11.88C52.6528 13.32 52.0928 14.64 51.0528 15.96ZM49.4128 28.6C47.0928 28.6 45.1328 27.2 45.1328 24.76C45.1328 23.08 45.9728 21.48 47.1328 20.4C50.7328 21.92 53.0528 22.8 53.0528 25.2C53.0528 27.56 51.4928 28.6 49.4128 28.6ZM74.0884 33H81.2484V21.64H91.4084V15.68H81.2484V9.16H93.0884V3.2H74.0884V33ZM98.2291 33H105.389V3.2H98.2291V33ZM112.213 33H119.013V23.12C119.013 19.52 118.413 15.44 118.093 12.12H118.293L121.213 18.64L128.573 33H135.853V3.2H129.053V13.08C129.053 16.64 129.653 20.92 130.013 24.08H129.813L126.893 17.48L119.493 3.2H112.213V33ZM150 18.12C150.76 15.16 151.56 11.68 152.28 8.56H152.44C153.24 11.6 154 15.16 154.8 18.12L155.44 20.64H149.36L150 18.12ZM139 33H146.28L148 26.16H156.8L158.52 33H166.04L156.8 3.2H148.24L139 33ZM169.167 33H187.927V27H176.327V3.2H169.167V33Z" fill="white"/>
</svg>
