<svg width="78" height="19" viewBox="0 0 78 19" fill="none" xmlns="http://www.w3.org/2000/svg">
<path d="M38.5439 9.50001C39.3237 11.7667 43.4883 14.8328 43.4883 14.8328C47.3916 11.6331 48.1713 9.50001 48.1713 9.50001C48.1713 9.50001 47.3916 7.36689 43.4883 4.16721C43.4883 4.16721 39.326 7.23328 38.5439 9.50001Z" fill="#E51147"/>
<path d="M18.2139 9.49999C18.8652 11.3912 22.3418 13.9528 22.3418 13.9528C25.6006 11.2807 26.2519 9.49999 26.2519 9.49999C26.2519 9.49999 25.6006 7.71931 22.3418 5.04715C22.3418 5.04715 18.8652 7.60644 18.2139 9.49999Z" fill="#E51147"/>
<path d="M0 9.50001C0.479303 10.8937 3.04094 12.7803 3.04094 12.7803C5.44204 10.8131 5.92134 9.50001 5.92134 9.50001C5.92134 9.50001 5.44204 8.18926 3.04094 6.2197C3.04094 6.2197 0.479303 8.10634 0 9.50001Z" fill="#E51147"/>
<path d="M58.8438 9.5C58.8438 4.26164 63.0864 0 68.3014 0C73.5164 0 77.759 4.26164 77.759 9.5C77.759 14.7384 73.5164 19 68.3014 19C63.0864 19 58.8438 14.7384 58.8438 9.5ZM75.3992 9.5C75.3992 5.56777 72.2161 2.37039 68.3014 2.37039C64.3867 2.37039 61.2036 5.56777 61.2036 9.5C61.2036 13.4322 64.3867 16.6296 68.3014 16.6296C72.2161 16.6296 75.3992 13.4322 75.3992 9.5Z" fill="#E51147"/>
<path d="M68.5332 3.91608C68.5332 3.01538 68.7419 2.00641 69.2785 0.912201L71.3953 1.96033C70.1615 4.47125 71.5352 5.87874 71.7278 6.05842C73.5808 7.62486 75.5003 6.55369 75.7136 6.42699L76.9451 8.44954C75.7319 9.20282 72.7598 10.0459 70.189 7.85522C69.4735 7.23325 68.5355 5.82576 68.5355 3.91378L68.5332 3.91608ZM71.7415 6.07224L71.7278 6.06072C71.7278 6.06072 71.7301 6.06302 71.7324 6.06533L71.7415 6.07224Z" fill="#E51147"/>
<path d="M60.7627 6.1736L62.4047 4.47125C64.4068 6.42009 66.1612 5.53781 66.3905 5.40881C68.5118 4.07273 67.9683 1.7438 67.9637 1.72077L70.2547 1.15408C70.5964 2.54545 70.4841 5.64608 67.622 7.43367C66.4341 8.1593 63.4849 8.82273 60.7627 6.17591V6.1736ZM66.4065 5.3996L66.3928 5.40881C66.3928 5.40881 66.3974 5.40881 66.3974 5.40651L66.4065 5.4019V5.3996Z" fill="#E51147"/>
<path d="M61.1507 8.20538L61.2058 5.83499C62.6322 5.86263 65.586 6.77255 66.563 10.0137C66.9551 11.3544 66.829 14.3882 63.5793 16.344L62.3662 14.3099C64.8797 12.7964 64.3063 10.7117 64.2995 10.691C63.5954 8.36203 61.3961 8.2146 61.1484 8.20538H61.1507Z" fill="#E51147"/>
<path d="M70.083 11.9418C70.083 11.6723 70.1014 11.3958 70.138 11.1079C70.3353 9.72342 71.6975 7.01441 75.4631 6.58594L75.7291 8.94251C72.9588 9.2581 72.5231 11.177 72.4772 11.4396C72.1676 13.8515 74.1009 14.895 74.3233 15.0056L73.2959 17.1387C72.1195 16.5743 70.0853 14.8051 70.0853 11.9418H70.083ZM72.4749 11.4396C72.4749 11.4396 72.4749 11.4442 72.4749 11.4465V11.458V11.4419V11.4396Z" fill="#E51147"/>
<path d="M62.4834 15.2659C63.0109 13.9344 64.896 11.4765 68.2603 11.6953C69.6477 11.799 72.4318 12.9807 73.1106 16.7264L70.7898 17.1525C70.2898 14.3974 68.352 14.0911 68.0906 14.0611C65.6734 13.9137 64.7675 15.9224 64.6735 16.1505L62.4834 15.2659ZM68.0883 14.0611C68.0883 14.0611 68.0837 14.0611 68.0814 14.0611H68.0699H68.086H68.0883Z" fill="#E51147"/>
</svg>
