<svg width="22" height="22" viewBox="0 0 22 22" fill="none" xmlns="http://www.w3.org/2000/svg">
<path d="M0.855469 11C0.855469 5.22647 5.53154 0.529449 11.2793 0.529449C17.0271 0.529449 21.7032 5.22647 21.7032 11C21.7032 16.7735 17.0271 21.4705 11.2793 21.4705C5.53154 21.4705 0.855469 16.7735 0.855469 11ZM19.1023 11C19.1023 6.66604 15.5939 3.14201 11.2793 3.14201C6.96469 3.14201 3.45638 6.66604 3.45638 11C3.45638 15.334 6.96469 18.858 11.2793 18.858C15.5939 18.858 19.1023 15.334 19.1023 11Z" fill="#E51147"/>
<path d="M11.5342 4.84562C11.5342 3.85289 11.7642 2.74084 12.3557 1.53485L14.6886 2.69006C13.3288 5.4575 14.8428 7.00878 15.0551 7.20682C17.0974 8.93329 19.2131 7.75269 19.4481 7.61305L20.8054 9.84223C19.4683 10.6725 16.1926 11.6017 13.3591 9.18719C12.5705 8.50168 11.5367 6.95039 11.5367 4.84308L11.5342 4.84562ZM15.0703 7.22205L15.0551 7.20936C15.0551 7.20936 15.0577 7.2119 15.0602 7.21444L15.0703 7.22205Z" fill="#E51147"/>
<path d="M2.97168 7.33378L4.78145 5.45751C6.98805 7.60545 8.92167 6.63304 9.17443 6.49086C11.5125 5.01828 10.9134 2.45142 10.9084 2.42603L13.4335 1.80145C13.8101 3.33497 13.6862 6.75237 10.5318 8.72258C9.22245 9.52234 5.97195 10.2536 2.97168 7.33632V7.33378ZM9.19213 6.4807L9.17696 6.49086C9.17696 6.49086 9.18201 6.49086 9.18201 6.48832L9.19213 6.48324V6.4807Z" fill="#E51147"/>
<path d="M3.39803 9.57313L3.4587 6.96057C5.03087 6.99104 8.28642 7.99392 9.36318 11.5662C9.79541 13.0438 9.65638 16.3876 6.07477 18.5432L4.73767 16.3013C7.50792 14.6332 6.87602 12.3355 6.86844 12.3126C6.09246 9.74578 3.66849 9.58329 3.39551 9.57313H3.39803Z" fill="#E51147"/>
<path d="M13.2432 13.6912C13.2432 13.3942 13.2634 13.0895 13.3038 12.7721C13.5212 11.2462 15.0226 8.26045 19.1729 7.78821L19.4661 10.3855C16.4128 10.7334 15.9325 12.8483 15.882 13.1377C15.5408 15.796 17.6715 16.9461 17.9167 17.068L16.7843 19.419C15.4877 18.797 13.2457 16.8471 13.2457 13.6912H13.2432ZM15.8795 13.1377C15.8795 13.1377 15.8795 13.1428 15.8795 13.1454V13.158V13.1403V13.1377Z" fill="#E51147"/>
<path d="M4.86719 17.3549C5.44854 15.8874 7.52623 13.1784 11.2342 13.4196C12.7634 13.5339 15.8319 14.8363 16.5801 18.9646L14.0222 19.4343C13.4712 16.3978 11.3353 16.0601 11.0472 16.0271C8.38309 15.8646 7.38469 18.0785 7.28106 18.3299L4.86719 17.3549ZM11.0447 16.0271C11.0447 16.0271 11.0396 16.0271 11.0371 16.0271H11.0244H11.0421H11.0447Z" fill="#E51147"/>
</svg>
