<svg width="824" height="73" viewBox="0 0 824 73" fill="none" xmlns="http://www.w3.org/2000/svg">
<g clip-path="url(#clip0_13_16470)">
<path d="M0 73L166.434 0H657.556L824 73H0Z" fill="#47B7AB"/>
<path d="M41.1985 73H0L166.434 0H190.993L41.1985 73Z" fill="#43ADA2"/>
<path d="M123.596 73H82.3975L215.553 0H240.112L123.596 73Z" fill="#43ADA2"/>
<path d="M206.002 73H164.804L264.66 0H289.219L206.002 73Z" fill="#43ADA2"/>
<path d="M288.4 73H247.201L313.779 0H338.328L288.4 73Z" fill="#43ADA2"/>
<path d="M370.796 73H329.598L362.886 0H387.446L370.796 73Z" fill="#43ADA2"/>
<path d="M453.194 73H411.995V0H436.554L453.194 73Z" fill="#43ADA2"/>
<path d="M535.601 73H494.402L461.113 0H485.662L535.601 73Z" fill="#43ADA2"/>
<path d="M617.998 73H576.799L510.222 0H534.781L617.998 73Z" fill="#43ADA2"/>
<path d="M700.395 73H659.196L559.33 0H583.889L700.395 73Z" fill="#43ADA2"/>
<path d="M782.792 73H741.593L608.448 0H632.997L782.792 73Z" fill="#43ADA2"/>
<path d="M767.402 64.7965H56.5977L183.643 2.98834H640.356L767.402 64.7965ZM59.3476 64.2738H764.652L639.766 3.51109H184.233L59.3376 64.2738H59.3476Z" fill="white"/>
<path d="M209.653 52.4851H81.8975L171.744 8.77563H265.061L209.653 52.4851ZM84.6474 51.9623H208.883L262.961 9.3025H172.334L84.6474 51.9623Z" fill="white"/>
<path d="M151.974 37.8974H111.886L152.764 18.0082H187.593L151.964 37.8974H151.974ZM114.636 37.3747H151.334L185.083 18.5309H153.364L114.636 37.3747Z" fill="white"/>
<path d="M126.566 31.5668H113.116L131.056 23.1822H143.795L126.566 31.5668ZM115.936 31.044H125.976L141.055 23.7091H131.636L115.936 31.044Z" fill="white"/>
<path d="M202.763 27.2613C203.143 27.0143 204.682 26.8126 206.202 26.8126C207.722 26.8126 208.642 27.0143 208.272 27.2613C207.892 27.5083 206.352 27.7141 204.832 27.7141C203.312 27.7141 202.383 27.5124 202.773 27.2613H202.763Z" fill="white"/>
<path d="M409.245 27.2613C409.245 27.0143 410.485 26.8126 411.995 26.8126C413.505 26.8126 414.745 27.0143 414.745 27.2613C414.745 27.5083 413.515 27.7141 411.995 27.7141C410.475 27.7141 409.235 27.5124 409.245 27.2613Z" fill="white"/>
<path d="M181.353 4.77064H179.983L183.643 2.98834H194.533L193.693 3.41642C192.023 4.26435 186.103 4.77064 181.353 4.77064ZM184.233 3.51109L182.753 4.23142C186.233 4.16556 189.333 3.86508 191.173 3.51109H184.233Z" fill="white"/>
<path d="M644.016 4.77064H642.646C637.896 4.77064 631.987 4.26435 630.307 3.41642L629.467 2.98834H640.356L644.016 4.77064ZM632.817 3.51109C634.657 3.86508 637.767 4.16556 641.246 4.23142L639.766 3.51109H632.827H632.817Z" fill="white"/>
<path d="M72.6371 64.7965H56.5977L63.7274 61.3266H64.0274C69.1572 61.3266 72.7171 61.8658 73.807 62.8084C74.267 63.2118 74.477 63.8621 72.8271 64.7018L72.6371 64.8006V64.7965ZM59.3376 64.2738H72.0171C72.6271 63.9362 73.1571 63.4711 72.6471 63.0348C71.8171 62.3227 68.6372 61.8699 64.3074 61.8535L59.3276 64.2779L59.3376 64.2738Z" fill="white"/>
<path d="M767.402 64.7965H751.362L751.172 64.6977C749.522 63.8621 749.732 63.2076 750.192 62.8043C751.282 61.8617 754.842 61.3224 759.972 61.3224H760.272L767.402 64.7924V64.7965ZM751.972 64.2737H764.652L759.672 61.8493C755.342 61.8699 752.162 62.3186 751.332 63.0307C750.822 63.467 751.352 63.9321 751.962 64.2696L751.972 64.2737Z" fill="white"/>
<path d="M412.635 3.25177H411.365V64.5372H412.635V3.25177Z" fill="white"/>
<path d="M411.995 37.8974C386.316 37.8974 363.597 35.2055 355.457 31.2046C352.857 29.9286 351.847 28.5867 352.447 27.216C354.697 22.0544 380.856 18.0082 411.995 18.0082C443.134 18.0082 469.283 22.0544 471.543 27.216C472.143 28.5867 471.123 29.9286 468.533 31.2046C460.393 35.2096 437.674 37.8974 411.995 37.8974ZM411.995 18.5309C381.456 18.5309 355.847 22.3878 353.707 27.3066C353.177 28.5167 354.097 29.7145 356.437 30.867C364.347 34.7568 386.666 37.3747 411.995 37.3747C437.324 37.3747 459.643 34.7609 467.553 30.867C469.893 29.7145 470.813 28.5167 470.283 27.3066C468.133 22.3836 442.534 18.5309 411.995 18.5309Z" fill="white"/>
<path d="M229.321 35.8394L249.831 19.6588L250.341 19.7287C258.18 20.7989 263.31 22.2972 265.19 24.0589C266.31 25.1127 266.25 26.2281 265 27.3683C261.46 30.6077 248.961 33.6372 230.721 35.6788L229.321 35.8352V35.8394ZM250.461 20.2968L231.801 35.0161C248.671 33.0445 260.6 30.122 263.85 27.1543C264.95 26.1499 265.01 25.1785 264.04 24.2688C262.35 22.6841 257.66 21.3134 250.461 20.2968Z" fill="white"/>
<path d="M742.093 52.4851H614.338L614.158 52.3451L558.93 8.77563H652.246L742.093 52.4851ZM615.108 51.9623H739.343L651.656 9.3025H561.03L615.108 51.9623Z" fill="white"/>
<path d="M712.104 37.8974H672.015L671.825 37.7904L636.387 18.0082H671.215L712.094 37.8974H712.104ZM672.665 37.3747H709.364L670.635 18.5309H638.917L672.665 37.3747Z" fill="white"/>
<path d="M710.874 31.5668H697.425L680.195 23.1822H692.935L710.874 31.5668ZM698.015 31.044H708.054L692.355 23.7091H682.935L698.015 31.044Z" fill="white"/>
<path d="M621.237 27.2613C620.857 27.0143 619.317 26.8126 617.797 26.8126C616.277 26.8126 615.357 27.0143 615.727 27.2613C616.107 27.5083 617.647 27.7141 619.167 27.7141C620.687 27.7141 621.617 27.5124 621.227 27.2613H621.237Z" fill="white"/>
<path d="M594.679 35.8393L593.279 35.6829C575.029 33.6372 562.54 30.6077 559 27.3724C557.75 26.2281 557.68 25.1126 558.81 24.063C560.69 22.3013 565.83 20.803 573.659 19.7328L574.169 19.6628L594.679 35.8434V35.8393ZM573.539 20.2967C566.34 21.3134 561.66 22.6841 559.96 24.2688C558.99 25.1826 559.05 26.1499 560.15 27.1542C563.4 30.122 575.329 33.0403 592.199 35.0161L573.539 20.2967Z" fill="white"/>
</g>
<defs>
<clipPath id="clip0_13_16470">
<rect width="824" height="73" fill="white"/>
</clipPath>
</defs>
</svg>
