<svg width="390" height="65" viewBox="0 0 390 65" fill="none" xmlns="http://www.w3.org/2000/svg">
<path d="M40.5798 48.342C38.1374 47.1333 35.6403 46.0306 32.6161 44.6226C34.3773 43.8575 35.7046 43.3399 36.9804 42.7163C45.6833 38.4696 49.7809 30.137 48.8007 18.7504C48.0872 10.4982 42.5049 3.91442 34.0945 1.27191C29.502 -0.171505 24.7714 -0.232593 20.1339 0.33963C14.0406 1.08545 8.52895 3.39363 4.76885 8.65936C-3.90833 20.8143 -0.337808 40.7971 12.183 48.9464C21.8147 55.2151 32.6419 59.24 42.7813 64.5732C43.6715 65.0394 44.4557 65.4251 45.2527 64.0235C48.505 58.3077 46.5028 51.2771 40.5798 48.342ZM23.7397 40.2795C16.4991 35.8656 13.5264 23.1128 18.1928 15.9343C21.3455 11.0865 28.7564 11.5012 31.5009 16.6994C32.9536 19.448 33.185 22.4377 33.0725 25.466C33.3618 30.9985 31.5396 35.7146 27.773 39.7619C26.4779 41.1539 25.427 41.305 23.7397 40.2795Z" fill="white"/>
<path d="M305.09 14.7542C302.711 6.71096 297.299 1.73455 289.127 0.448661C281.089 -0.814729 273.373 0.345804 267.739 7.09353C263.224 12.5007 262.163 19.0523 262.253 25.8901C262.369 27.8478 262.398 29.8153 262.61 31.7634C263.802 42.7321 271.271 50.5342 281.234 51.2672C294.118 52.2155 302.383 46.9433 305.388 35.6468C307.239 28.6901 307.14 21.6884 305.09 14.7542ZM289.519 34.8174C288.78 37.2091 287.211 38.7522 284.354 38.7394C281.491 38.7297 280.122 37.0838 279.19 34.7692C277.988 31.7827 278.344 28.5937 278.078 25.7936C278.29 22.4985 278.046 19.4445 279.225 16.5995C280.173 14.3042 281.574 12.6647 284.444 12.7C287.304 12.7354 288.808 14.3203 289.541 16.7152C291.376 22.7268 291.376 28.8123 289.519 34.8174Z" fill="white"/>
<path d="M235.234 37.2188C241.61 37.2188 247.993 37.3474 254.366 37.1609C257.139 37.0806 257.898 37.9839 257.901 40.7132C257.914 50.5406 258.013 50.5407 248.215 50.5407C239.833 50.5407 231.452 50.4828 223.073 50.5792C220.936 50.6049 220.329 50.0102 220.065 47.7631C219.349 41.6294 220.782 37.0902 226.657 33.9237C230.87 31.6509 234.495 28.2722 237.831 24.7199C239.296 23.1575 240.441 21.4313 240.984 19.3706C241.98 15.5933 239.968 13.0054 236.044 12.729C232.319 12.4654 228.752 13.2176 225.297 14.4038C223.414 15.05 222.707 14.9825 222.119 12.7997C219.503 3.08155 219.811 2.53827 229.617 0.795884C234.829 -0.129959 240.016 -0.303572 245.155 0.979106C256.815 3.88522 260.62 16.5223 252.65 25.6168C249.384 29.3427 245.165 31.6862 240.849 33.8883C239.001 34.8302 237.069 35.605 235.176 36.4537C235.196 36.7109 235.212 36.9648 235.231 37.222L235.234 37.2188Z" fill="white"/>
<path d="M325.631 37.2188C332.489 37.2188 338.849 37.3185 345.203 37.1706C347.735 37.1095 348.561 37.8489 348.597 40.4753C348.738 50.5438 348.835 50.5439 338.74 50.5439C330.494 50.5439 322.244 50.4828 314.001 50.5824C311.863 50.6082 310.742 50.0649 311.066 47.7599C311.086 47.6313 311.086 47.4963 311.066 47.3677C310.06 41.3658 311.863 36.9809 317.516 33.9012C321.492 31.7345 324.937 28.5615 328.154 25.2729C329.356 24.0448 330.394 22.7171 331.117 21.158C333.392 16.2362 331.281 12.909 325.949 12.7129C322.343 12.5811 318.943 13.4491 315.62 14.5549C313.788 15.1657 313.242 14.6096 312.978 13.0279C312.956 12.8993 312.95 12.7675 312.921 12.639C310.581 2.69257 310.626 2.62828 320.743 0.750877C325.808 -0.19104 330.863 -0.258535 335.883 0.966278C347.15 3.70844 351.264 15.8022 344.043 24.9385C340.353 29.6063 335.147 32.1106 329.989 34.6727C328.665 35.3318 327.113 35.5953 325.634 37.222L325.631 37.2188Z" fill="white"/>
<path d="M367.002 37.2188C373.336 37.2188 379.674 37.312 386.005 37.1706C388.451 37.116 389.431 37.6978 389.479 40.3917C389.665 50.5406 389.765 50.5374 379.7 50.5374C371.585 50.5374 363.464 50.4217 355.352 50.6017C352.54 50.6628 352.141 49.6502 351.82 47.0623C351.078 41.0572 352.922 36.9648 358.328 33.9462C362.291 31.7345 365.745 28.6033 368.972 25.3243C370.27 24.0062 371.392 22.5789 372.118 20.8654C374.149 16.0723 372.048 12.9058 366.902 12.7064C363.435 12.5746 360.144 13.3366 356.949 14.4167C354.979 15.0822 354.253 14.8443 353.761 12.7193C351.47 2.81151 351.582 2.59292 361.542 0.750876C366.745 -0.210329 371.938 -0.290721 377.071 1.00803C387.904 3.74698 391.976 15.5901 385.208 24.5528C381.445 29.5356 376.001 32.1524 370.576 34.7756C369.348 35.3703 368.117 35.9554 366.886 36.5469C366.925 36.7687 366.963 36.9906 367.002 37.2124V37.2188Z" fill="white"/>
<path d="M91.3055 17.0914C91.3312 14.8828 90.5406 14.2367 88.4935 13.957C82.879 13.1887 77.2035 13.118 71.6597 13.7288C63.3232 14.645 56.7318 18.4833 54.5915 27.4171C53.4795 32.0559 53.3606 36.7623 54.4243 41.4269C56.0409 48.5025 61.0993 52.1963 67.7261 51.2479C71.5987 50.6918 73.993 47.9689 76.294 44.8281C76.9325 48.6043 79.2539 50.4925 83.2582 50.4925C84.9583 50.4925 86.6713 50.3735 88.3585 50.5182C90.5117 50.7078 91.328 50.036 91.3023 47.7246C91.1866 37.5146 91.1834 27.3014 91.3055 17.0914ZM77.4638 28.2626C76.5961 31.5223 76.2169 34.9203 74.6485 37.9679C74.054 39.1284 73.3277 40.3435 71.7497 40.1699C70.3807 40.0189 69.9179 38.778 69.4712 37.7268C68.16 34.6438 67.9543 31.3519 68.4364 28.1244C68.9474 24.7296 71.8911 24.7714 74.3979 24.5303C77.8398 23.9034 78.2223 25.424 77.4638 28.2626Z" fill="white"/>
<path d="M166.769 16.8824C166.792 14.8282 165.992 14.2688 164.147 13.9988C158.407 13.1597 152.6 13.1019 146.927 13.7609C138.941 14.6932 132.498 18.2969 130.235 26.8706C128.943 31.7666 128.792 36.7173 129.952 41.6262C131.566 48.435 136.104 51.8041 142.621 51.2672C146.77 50.9264 149.36 48.2454 151.935 44.3941C152.318 48.4575 154.26 50.4903 157.761 50.4924C159.853 50.4924 161.955 50.3799 164.041 50.5214C166.037 50.6532 166.785 50.0359 166.766 47.911C166.67 37.5692 166.663 27.2242 166.769 16.8824ZM153.011 27.9604C152.147 30.8151 151.642 33.7823 150.729 36.6209C150.228 38.1768 149.534 40.1282 147.528 40.141C145.42 40.1539 145.17 38.0868 144.549 36.5437C143.797 34.676 143.813 32.7214 143.778 30.7701C143.698 25.964 145.112 24.5624 150.376 24.5367C152.902 24.0513 153.885 25.0671 153.011 27.9604Z" fill="white"/>
<path d="M115.335 31.3133C115.354 39.5045 116.469 40.6714 124.683 40.1571C126.856 40.022 127.412 40.3114 127.136 42.5456C126.149 50.576 125.435 51.2801 117.125 51.2704C114.782 51.2704 112.478 51.309 110.148 50.6049C104.157 48.7983 100.963 45.0081 100.702 38.7008C100.561 35.3028 100.574 31.892 100.702 28.494C100.786 26.3241 100.468 24.8742 97.8035 25.3115C95.7659 25.6458 94.9111 24.7681 95.1843 22.6786C95.4221 20.8687 95.5924 19.0395 95.6374 17.2135C95.6856 15.2365 96.1805 13.9281 98.5491 14.2946C99.9278 14.5067 100.554 14.0181 100.728 12.4107C101.104 8.96132 110.652 2.39682 114.207 2.86938C115.63 3.05905 115.286 4.12958 115.306 4.93969C115.367 7.55649 115.399 10.1765 115.319 12.7933C115.257 14.751 116.006 15.4615 117.899 14.87C118.15 14.7929 118.394 14.6642 118.648 14.6417C129.012 13.822 128.116 13.4009 125.869 22.9004C125.419 24.8003 124.494 25.5815 122.604 25.3307C122.218 25.2793 121.82 25.3243 121.428 25.3243C117.355 25.3307 115.323 27.3271 115.331 31.3133H115.335Z" fill="white"/>
<path d="M188.616 23.7683C191.318 19.8046 193.6 16.2587 197.547 14.3942C201.04 12.7418 201.783 13.1629 202.117 17.011C202.368 19.8753 202.535 22.7493 202.798 25.6104C202.981 27.5842 202.303 28.6065 200.182 28.3847C199.404 28.3043 198.614 28.3686 197.826 28.3847C191.434 28.5197 189.188 30.5997 188.702 37.042C188.426 40.6907 188.233 44.3555 188.195 48.0139C188.176 49.8366 187.658 50.5953 185.733 50.5213C182.465 50.3927 179.19 50.412 175.921 50.5149C174.186 50.5695 173.697 49.8912 173.678 48.2292C173.559 37.6335 174.189 27.0216 173.013 16.4516C172.855 15.0307 173.238 14.1723 174.887 14.3106C175.796 14.3877 176.718 14.3042 177.634 14.3202C180.636 14.3717 184.174 13.4683 186.491 14.7606C189.04 16.1783 187.382 20.2771 188.616 23.7716V23.7683Z" fill="white"/>
</svg>
