<svg width="241" height="32" viewBox="0 0 241 32" fill="none" xmlns="http://www.w3.org/2000/svg">
<path opacity="0.1" d="M5.45703 31H14.297L16.897 18.04C17.337 15.76 17.697 13.36 18.097 11.12H18.257C18.537 13.36 18.937 15.76 19.417 18.04L22.097 31H31.097L36.257 1.2H29.497L27.537 14.8C27.177 17.88 26.777 21.04 26.417 24.24H26.217C25.617 21.04 25.097 17.84 24.497 14.8L21.417 1.2H15.377L12.337 14.8C11.737 17.88 11.137 21.04 10.577 24.24H10.417C10.017 21.04 9.61703 17.92 9.21703 14.8L7.33703 1.2H0.0570313L5.45703 31ZM52.5598 31.56C60.6798 31.56 66.1998 25.72 66.1998 15.96C66.1998 6.24 60.6798 0.679999 52.5598 0.679999C44.4398 0.679999 38.9198 6.2 38.9198 15.96C38.9198 25.72 44.4398 31.56 52.5598 31.56ZM52.5598 25.4C48.6398 25.4 46.2398 21.72 46.2398 15.96C46.2398 10.2 48.6398 6.8 52.5598 6.8C56.4798 6.8 58.9198 10.2 58.9198 15.96C58.9198 21.72 56.4798 25.4 52.5598 25.4ZM71.7252 31H78.8852V20.52H82.3252L87.8052 31H95.8052L89.1652 19.2C92.2452 17.76 94.2852 14.96 94.2852 10.6C94.2852 3.4 89.0052 1.2 82.6452 1.2H71.7252V31ZM78.8852 14.88V6.88H82.0852C85.4852 6.88 87.3252 7.8 87.3252 10.6C87.3252 13.4 85.4852 14.88 82.0852 14.88H78.8852ZM100.045 31H118.805V25H107.205V1.2H100.045V31ZM123.952 31H132.912C141.592 31 147.592 26.32 147.592 15.96C147.592 5.6 141.592 1.2 132.512 1.2H123.952V31ZM131.112 25.24V6.92H132.072C136.872 6.92 140.272 8.88 140.272 15.96C140.272 23.04 136.872 25.24 132.072 25.24H131.112ZM174.833 31.56C178.713 31.56 182.033 30.08 184.553 27.16L180.793 22.68C179.393 24.2 177.513 25.4 175.113 25.4C170.913 25.4 168.193 21.96 168.193 16.04C168.193 10.24 171.353 6.8 175.193 6.8C177.313 6.8 178.873 7.76 180.393 9.12L184.113 4.56C182.073 2.48 178.953 0.679999 175.073 0.679999C167.513 0.679999 160.873 6.36 160.873 16.28C160.873 26.36 167.273 31.56 174.833 31.56ZM199.934 31.56C207.854 31.56 211.854 27.04 211.854 17V1.2H204.974V17.76C204.974 23.4 203.174 25.4 199.934 25.4C196.654 25.4 194.974 23.4 194.974 17.76V1.2H187.854V17C187.854 27.04 191.974 31.56 199.934 31.56ZM218.522 31H225.682V21.12H229.162C235.482 21.12 240.922 18 240.922 10.92C240.922 3.56 235.522 1.2 229.002 1.2H218.522V31ZM225.682 15.48V6.88H228.602C232.042 6.88 233.962 7.92 233.962 10.92C233.962 13.84 232.282 15.48 228.802 15.48H225.682Z" fill="white"/>
</svg>
