<svg width="23" height="23" viewBox="0 0 23 23" fill="none" xmlns="http://www.w3.org/2000/svg">
<g clip-path="url(#clip0_2137_14859)">
<path fill-rule="evenodd" clip-rule="evenodd" d="M8.44713 16.5087C8.01499 16.0225 7.24805 15.6528 7.24805 15.6528C7.24805 15.6528 7.01446 18.0919 8.47827 18.2165C8.77804 18.2406 8.8014 18.2808 8.80529 18.2928C8.81697 18.2205 9.01163 17.1396 8.44713 16.5087Z" fill="#FFA082"/>
<path fill-rule="evenodd" clip-rule="evenodd" d="M4.94628 19.4178C4.94628 19.4178 6.16871 20.0165 6.88894 19.9442C8.13085 19.8156 8.48123 18.8472 8.48123 18.8432C8.47733 18.8432 8.43451 18.8191 8.13474 18.6583C6.54635 17.7864 4.94238 19.4218 4.94238 19.4218L4.94628 19.4178Z" fill="#FFA082"/>
<path fill-rule="evenodd" clip-rule="evenodd" d="M6.44538 15.6812C6.18843 15.1106 5.60057 14.54 5.60057 14.54C5.60057 14.54 4.7363 16.6496 6.01713 17.2202C6.27797 17.3368 6.28965 17.381 6.28965 17.393C6.30912 17.3568 6.78797 16.4367 6.44927 15.6852L6.44538 15.6812Z" fill="#FFA082"/>
<path fill-rule="evenodd" clip-rule="evenodd" d="M5.776 17.7141C5.776 17.7141 5.74485 17.6779 5.53073 17.4247C4.40951 16.0826 2.48242 16.9345 2.48242 16.9345C2.48242 16.9345 3.36616 17.9069 4.0241 18.0998C5.15699 18.4373 5.77211 17.7181 5.776 17.7141Z" fill="#FFA082"/>
<path fill-rule="evenodd" clip-rule="evenodd" d="M4.97042 14.2665C4.88867 13.6638 4.50714 12.9565 4.50714 12.9565C4.50714 12.9565 3.14455 14.6121 4.16065 15.5363C4.36699 15.7251 4.36699 15.7693 4.36309 15.7774C4.39035 15.7492 5.07554 15.0581 4.97042 14.2665Z" fill="#FFA082"/>
<path fill-rule="evenodd" clip-rule="evenodd" d="M3.5687 15.681C3.5687 15.681 3.54923 15.6368 3.42465 15.3395C2.76671 13.7603 0.773438 13.9291 0.773438 13.9291C0.773438 13.9291 1.31847 15.0944 1.86351 15.4841C2.80564 16.1512 3.5648 15.685 3.5687 15.685V15.681Z" fill="#FFA082"/>
<path fill-rule="evenodd" clip-rule="evenodd" d="M4.00476 12.4381C4.05148 11.8313 3.82179 11.0518 3.82179 11.0518C3.82179 11.0518 2.15553 12.3416 2.95752 13.4868C3.12103 13.7199 3.10935 13.7641 3.10545 13.7721C3.1366 13.752 3.95026 13.2417 4.00866 12.4421L4.00476 12.4381Z" fill="#FFA082"/>
<path fill-rule="evenodd" clip-rule="evenodd" d="M2.53303 13.5392C2.53303 13.5392 2.52135 13.491 2.46295 13.1736C2.14372 11.4738 0.166016 11.1685 0.166016 11.1685C0.166016 11.1685 0.457999 12.4342 0.913494 12.9445C1.69601 13.8205 2.53303 13.5473 2.53692 13.5433L2.53303 13.5392Z" fill="#FFA082"/>
<path fill-rule="evenodd" clip-rule="evenodd" d="M2.38524 11.2732C2.41638 11.2692 3.25729 11.1085 3.54928 10.4374C3.77119 9.9311 3.81401 9.17969 3.81401 9.17969C3.81401 9.17969 2.01539 9.71412 2.34631 10.9759C2.41249 11.233 2.39302 11.2652 2.38524 11.2692V11.2732Z" fill="#FFA082"/>
<path fill-rule="evenodd" clip-rule="evenodd" d="M0.531508 8.20703C0.531508 8.20703 0.438073 9.40447 0.691125 9.99114C1.12715 10.9997 1.91746 11.0238 1.92135 11.0238C1.92135 11.0238 1.92524 10.9796 1.96028 10.6783C2.14715 9.09507 0.531508 8.20703 0.531508 8.20703Z" fill="#FFA082"/>
<path fill-rule="evenodd" clip-rule="evenodd" d="M3.49107 8.54838C3.77138 8.12646 3.9271 7.44336 3.9271 7.44336C3.9271 7.44336 2.19856 7.60409 2.30367 8.82162C2.32703 9.06674 2.30367 9.09487 2.29199 9.09888C2.32314 9.09888 3.11733 9.10692 3.48718 8.54838H3.49107Z" fill="#FFA082"/>
<path fill-rule="evenodd" clip-rule="evenodd" d="M1.24067 5.7921C1.24067 5.7921 0.933113 6.85694 1.04991 7.44361C1.25624 8.4522 1.96868 8.64507 1.97258 8.64507C1.97258 8.64507 1.98425 8.60489 2.0738 8.33968C2.54097 6.94535 1.24067 5.78809 1.24067 5.78809V5.7921Z" fill="#FFA082"/>
<path fill-rule="evenodd" clip-rule="evenodd" d="M2.78587 6.74828C2.74305 6.96124 2.71579 6.97732 2.70801 6.97732C2.73526 6.98535 3.40488 7.21841 3.85258 6.85275C4.19129 6.57549 4.48716 6.04508 4.48716 6.04508C4.48716 6.04508 2.98442 5.68745 2.78198 6.74426L2.78587 6.74828Z" fill="#FFA082"/>
<path fill-rule="evenodd" clip-rule="evenodd" d="M2.48985 6.33855C2.48985 6.33855 2.50931 6.3064 2.64946 6.11352C3.39694 5.08083 2.59885 3.72266 2.59885 3.72266C2.59885 3.72266 2.06939 4.52631 2.01878 5.0527C1.93313 5.96485 2.48595 6.33855 2.48985 6.33855Z" fill="#FFA082"/>
<path fill-rule="evenodd" clip-rule="evenodd" d="M5.28206 4.7472C5.28206 4.7472 3.93115 4.17259 3.59634 5.1209C3.53016 5.31377 3.49901 5.32583 3.49512 5.32181C3.51848 5.33386 4.11023 5.65934 4.5774 5.39012C4.93168 5.18921 5.28206 4.74318 5.28206 4.74318V4.7472Z" fill="#FFA082"/>
<path fill-rule="evenodd" clip-rule="evenodd" d="M3.64262 4.30544C4.47185 3.45759 3.90735 2.07129 3.90735 2.07129C3.90735 2.07129 3.30781 2.73832 3.19491 3.22453C3.00025 4.06033 3.46743 4.4943 3.46743 4.4943C3.46743 4.4943 3.483 4.47823 3.64651 4.30946L3.64262 4.30544Z" fill="#FFA082"/>
<path fill-rule="evenodd" clip-rule="evenodd" d="M6.15351 3.83906C6.15351 3.83906 5.07511 3.04746 4.60015 3.81495C4.49893 3.97568 4.47557 3.97568 4.47168 3.97166C4.48725 3.98371 4.94664 4.40161 5.41381 4.26097C5.76419 4.1565 6.1574 3.83906 6.1574 3.83906H6.15351Z" fill="#FFA082"/>
<path fill-rule="evenodd" clip-rule="evenodd" d="M5.34742 1.03027C5.34742 1.03027 4.72452 1.54059 4.56101 1.95447C4.27682 2.67374 4.63888 3.12781 4.63888 3.12781C4.63888 3.12781 4.65445 3.11575 4.82185 2.98717C5.67444 2.35228 5.34353 1.03027 5.34353 1.03027H5.34742Z" fill="#FFA082"/>
<path fill-rule="evenodd" clip-rule="evenodd" d="M5.79157 2.84284C5.69424 2.98348 5.67089 2.97947 5.66699 2.97545C5.67867 2.9875 6.07966 3.39335 6.50791 3.30093C6.83103 3.2286 7.20477 2.96339 7.20477 2.96339C7.20477 2.96339 6.25875 2.17581 5.79157 2.84284Z" fill="#FFA082"/>
<path fill-rule="evenodd" clip-rule="evenodd" d="M7.73438 2.18365C8.02636 2.03095 8.32224 1.68538 8.32224 1.68538C8.32224 1.68538 7.25942 1.1831 6.95575 1.93451C6.89346 2.09123 6.8701 2.09525 6.86621 2.09525C6.88178 2.10328 7.34506 2.38456 7.73438 2.18365Z" fill="#FFA082"/>
<path fill-rule="evenodd" clip-rule="evenodd" d="M6.85086 0.5C6.85086 0.5 6.21628 0.845571 6.00605 1.19114C5.64399 1.78584 5.90093 2.25598 5.90093 2.25598C5.90093 2.25598 5.91651 2.24794 6.0878 2.16356C6.94818 1.74164 6.85086 0.5 6.85086 0.5Z" fill="#FFA082"/>
<path fill-rule="evenodd" clip-rule="evenodd" d="M15.0841 15.6528C15.0841 15.6528 14.3172 16.0225 13.8851 16.5087C13.3245 17.1396 13.5152 18.2205 13.5269 18.2928C13.5269 18.2808 13.5541 18.2406 13.85 18.2165C15.3177 18.0919 15.0802 15.6528 15.0802 15.6528H15.0841Z" fill="#FFA082"/>
<path fill-rule="evenodd" clip-rule="evenodd" d="M14.1971 18.6545C13.8973 18.8193 13.8545 18.8394 13.8506 18.8394C13.8506 18.8434 14.2049 19.8118 15.4429 19.9404C16.1631 20.0167 17.3855 19.414 17.3855 19.414C17.3855 19.414 15.7816 17.7785 14.1932 18.6505L14.1971 18.6545Z" fill="#FFA082"/>
<path fill-rule="evenodd" clip-rule="evenodd" d="M16.3147 17.2202C17.5955 16.6496 16.7313 14.54 16.7313 14.54C16.7313 14.54 16.1434 15.1106 15.8865 15.6812C15.5478 16.4326 16.0266 17.3528 16.0461 17.389C16.0461 17.3769 16.0578 17.3327 16.3147 17.2162V17.2202Z" fill="#FFA082"/>
<path fill-rule="evenodd" clip-rule="evenodd" d="M16.797 17.4247C16.5868 17.6779 16.5557 17.71 16.5518 17.7141C16.5518 17.7141 17.1708 18.4414 18.3037 18.0998C18.9616 17.9029 19.8453 16.9345 19.8453 16.9345C19.8453 16.9345 17.9182 16.0826 16.797 17.4247Z" fill="#FFA082"/>
<path fill-rule="evenodd" clip-rule="evenodd" d="M18.1713 15.5363C19.1874 14.6121 17.8248 12.9565 17.8248 12.9565C17.8248 12.9565 17.4432 13.6638 17.3615 14.2665C17.2564 15.0621 17.9455 15.7533 17.9688 15.7774C17.9649 15.7693 17.961 15.7251 18.1713 15.5363Z" fill="#FFA082"/>
<path fill-rule="evenodd" clip-rule="evenodd" d="M18.9077 15.3396C18.7831 15.6369 18.7676 15.6771 18.7637 15.6811C18.7637 15.6811 19.5267 16.1473 20.4689 15.4802C21.0178 15.0945 21.5589 13.9252 21.5589 13.9252C21.5589 13.9252 19.5657 13.7564 18.9077 15.3356V15.3396Z" fill="#FFA082"/>
<path fill-rule="evenodd" clip-rule="evenodd" d="M18.5144 11.048C18.5144 11.048 18.2847 11.8275 18.3315 12.4343C18.3899 13.2339 19.1996 13.7442 19.2347 13.7643C19.2269 13.7563 19.2191 13.7121 19.3826 13.479C20.1846 12.3378 18.5183 11.0439 18.5183 11.0439L18.5144 11.048Z" fill="#FFA082"/>
<path fill-rule="evenodd" clip-rule="evenodd" d="M21.4184 12.9406C21.8739 12.4343 22.1658 11.1646 22.1658 11.1646C22.1658 11.1646 20.1881 11.474 19.8689 13.1697C19.8105 13.4911 19.7988 13.5313 19.7988 13.5353C19.8027 13.5353 20.6397 13.8086 21.4223 12.9366L21.4184 12.9406Z" fill="#FFA082"/>
<path fill-rule="evenodd" clip-rule="evenodd" d="M19.9863 10.9798C20.3211 9.71802 18.5186 9.18359 18.5186 9.18359C18.5186 9.18359 18.5614 9.93501 18.7833 10.4413C19.0753 11.1124 19.9162 11.2691 19.9473 11.2771C19.9395 11.2771 19.9162 11.2409 19.9863 10.9838V10.9798Z" fill="#FFA082"/>
<path fill-rule="evenodd" clip-rule="evenodd" d="M21.6401 9.99114C21.8931 9.40447 21.7997 8.20703 21.7997 8.20703C21.7997 8.20703 20.1879 9.09909 20.3709 10.6783C20.406 10.9756 20.4099 11.0198 20.4099 11.0238C20.4099 11.0238 21.2041 10.9997 21.6401 9.99114Z" fill="#FFA082"/>
<path fill-rule="evenodd" clip-rule="evenodd" d="M18.4053 7.44775C18.4053 7.44775 18.561 8.12684 18.8413 8.55278C19.2111 9.11132 20.0053 9.10328 20.0365 9.10328C20.0287 9.10328 20.0053 9.07515 20.0248 8.82602C20.1338 7.60848 18.4014 7.44775 18.4014 7.44775H18.4053Z" fill="#FFA082"/>
<path fill-rule="evenodd" clip-rule="evenodd" d="M20.2582 8.34348C20.3478 8.60868 20.3556 8.64485 20.3594 8.64887C20.3594 8.64887 21.0758 8.45599 21.2821 7.44741C21.4028 6.86074 21.0914 5.7959 21.0914 5.7959C21.0914 5.7959 19.7949 6.95316 20.2582 8.3475V8.34348Z" fill="#FFA082"/>
<path fill-rule="evenodd" clip-rule="evenodd" d="M17.8408 6.04936C17.8408 6.04936 18.1367 6.57977 18.4754 6.85703C18.9231 7.2227 19.5927 6.98964 19.62 6.9816C19.6122 6.9816 19.5849 6.96553 19.5421 6.75256C19.3397 5.69575 17.8369 6.05338 17.8369 6.05338L17.8408 6.04936Z" fill="#FFA082"/>
<path fill-rule="evenodd" clip-rule="evenodd" d="M19.7325 3.72266C19.7325 3.72266 18.9344 5.08083 19.6819 6.11352C19.822 6.31042 19.8415 6.33453 19.8415 6.33855C19.8415 6.33855 20.3943 5.96485 20.3126 5.0527C20.2659 4.52631 19.7325 3.72266 19.7325 3.72266Z" fill="#FFA082"/>
<path fill-rule="evenodd" clip-rule="evenodd" d="M17.7554 5.39403C18.2226 5.66325 18.8144 5.33777 18.8377 5.32572C18.8299 5.32572 18.8027 5.31768 18.7365 5.1248C18.4017 4.17649 17.0508 4.7511 17.0508 4.7511C17.0508 4.7511 17.4012 5.19713 17.7554 5.39804V5.39403Z" fill="#FFA082"/>
<path fill-rule="evenodd" clip-rule="evenodd" d="M18.4246 2.07091C18.4246 2.07091 17.8562 3.45721 18.6894 4.30507C18.8529 4.47384 18.8685 4.48991 18.8685 4.48991C18.8685 4.48991 19.3356 4.05594 19.141 3.22014C19.0281 2.73794 18.4285 2.06689 18.4285 2.06689L18.4246 2.07091Z" fill="#FFA082"/>
<path fill-rule="evenodd" clip-rule="evenodd" d="M17.8644 3.96775C17.8644 3.96775 17.8333 3.97177 17.736 3.81104C17.261 3.04355 16.1826 3.83515 16.1826 3.83515C16.1826 3.83515 16.5758 4.15259 16.9262 4.25707C17.3934 4.39369 17.8528 3.97981 17.8683 3.96775H17.8644Z" fill="#FFA082"/>
<path fill-rule="evenodd" clip-rule="evenodd" d="M17.7702 1.95447C17.6067 1.54059 16.9838 1.03027 16.9838 1.03027C16.9838 1.03027 16.6568 2.35228 17.5055 2.98717C17.6729 3.11173 17.6885 3.12379 17.6885 3.12781C17.6885 3.12781 18.0505 2.67374 17.7663 1.95447H17.7702Z" fill="#FFA082"/>
<path fill-rule="evenodd" clip-rule="evenodd" d="M16.6647 2.97935C16.6647 2.97935 16.6375 2.98337 16.5402 2.84675C16.073 2.17972 15.127 2.9673 15.127 2.9673C15.127 2.9673 15.4968 3.2325 15.8238 3.30483C16.2521 3.40127 16.6531 2.99141 16.6647 2.97935Z" fill="#FFA082"/>
<path fill-rule="evenodd" clip-rule="evenodd" d="M15.3294 1.93451C15.0257 1.1831 13.9629 1.68538 13.9629 1.68538C13.9629 1.68538 14.2588 2.03095 14.5508 2.18365C14.9362 2.38456 15.4033 2.10328 15.4189 2.09525C15.415 2.09525 15.3917 2.09525 15.3294 1.93451Z" fill="#FFA082"/>
<path fill-rule="evenodd" clip-rule="evenodd" d="M16.3266 1.19114C16.1164 0.845571 15.4818 0.5 15.4818 0.5C15.4818 0.5 15.3845 1.74164 16.2449 2.16356C16.4123 2.24794 16.4317 2.25598 16.4317 2.25598C16.4317 2.25598 16.6887 1.78584 16.3266 1.19114Z" fill="#FFA082"/>
<path fill-rule="evenodd" clip-rule="evenodd" d="M11.1757 18.8595L8.84375 18.526L9.17077 19.2854L9.1007 20.0449L10.7241 19.631C10.2686 20.1815 9.74695 21.1097 9.74695 22.492C9.74695 22.5483 10.0428 22.3835 10.0428 22.3835L10.2803 22.3675C10.2803 22.3675 10.3582 20.5432 11.1757 19.635C11.9933 20.5472 12.0711 22.3675 12.0711 22.3675L12.3047 22.3554C12.3047 22.3554 12.6045 22.5483 12.6045 22.488C12.6045 21.1097 12.0828 20.1775 11.6273 19.627L13.2547 20.0409L13.1846 19.2814L13.5116 18.522L11.1796 18.8555L11.1757 18.8595Z" fill="#FFA082"/>
<path d="M7.64551 12.457L9.59342 12.2207C9.65549 12.7172 9.82259 13.0968 10.0947 13.3594C10.3669 13.622 10.6963 13.7533 11.083 13.7533C11.4984 13.7533 11.8469 13.5957 12.1286 13.2806C12.415 12.9655 12.5583 12.5406 12.5583 12.0059C12.5583 11.4998 12.4222 11.0987 12.1501 10.8027C11.8779 10.5067 11.5461 10.3587 11.1546 10.3587C10.8968 10.3587 10.5889 10.4089 10.2308 10.5091L10.4528 8.86914C10.9971 8.88346 11.4124 8.76649 11.6989 8.51823C11.9854 8.26519 12.1286 7.93099 12.1286 7.51562C12.1286 7.16233 12.0235 6.88064 11.8135 6.67057C11.6034 6.4605 11.3241 6.35547 10.9756 6.35547C10.6318 6.35547 10.3382 6.47483 10.0947 6.71354C9.85124 6.95226 9.70323 7.30078 9.65072 7.75911L7.7959 7.44401C7.9248 6.80903 8.11816 6.30295 8.37598 5.92578C8.63856 5.54384 9.00141 5.24544 9.46452 5.0306C9.9324 4.81098 10.4552 4.70117 11.0329 4.70117C12.0212 4.70117 12.8137 5.01628 13.4105 5.64648C13.9022 6.16211 14.1481 6.74457 14.1481 7.39388C14.1481 8.31532 13.6444 9.05056 12.637 9.59961C13.2386 9.72852 13.7184 10.0174 14.0765 10.4661C14.4393 10.9149 14.6208 11.4568 14.6208 12.0918C14.6208 13.0132 14.2842 13.7986 13.611 14.4479C12.9378 15.0972 12.0999 15.4219 11.0973 15.4219C10.1472 15.4219 9.35948 15.1497 8.73405 14.6055C8.10862 14.0564 7.74577 13.3403 7.64551 12.457Z" fill="#FFA082"/>
</g>
<defs>
<clipPath id="clip0_2137_14859">
<rect width="22" height="22" fill="white" transform="translate(0.166016 0.5)"/>
</clipPath>
</defs>
</svg>
