<svg width="23" height="23" viewBox="0 0 23 23" fill="none" xmlns="http://www.w3.org/2000/svg">
<g clip-path="url(#clip0_2137_14812)">
<path fill-rule="evenodd" clip-rule="evenodd" d="M8.78111 16.5087C8.34898 16.0225 7.58203 15.6528 7.58203 15.6528C7.58203 15.6528 7.34844 18.0919 8.81226 18.2165C9.11203 18.2406 9.13539 18.2808 9.13928 18.2928C9.15096 18.2205 9.34561 17.1396 8.78111 16.5087Z" fill="#E0E0E0"/>
<path fill-rule="evenodd" clip-rule="evenodd" d="M5.28026 19.4178C5.28026 19.4178 6.5027 20.0165 7.22293 19.9442C8.46483 19.8156 8.81521 18.8472 8.81521 18.8432C8.81132 18.8432 8.76849 18.8191 8.46872 18.6583C6.88033 17.7864 5.27637 19.4218 5.27637 19.4218L5.28026 19.4178Z" fill="#E0E0E0"/>
<path fill-rule="evenodd" clip-rule="evenodd" d="M6.77936 15.6812C6.52241 15.1106 5.93455 14.54 5.93455 14.54C5.93455 14.54 5.07028 16.6496 6.35112 17.2202C6.61196 17.3368 6.62364 17.381 6.62364 17.393C6.6431 17.3568 7.12195 16.4367 6.78325 15.6852L6.77936 15.6812Z" fill="#E0E0E0"/>
<path fill-rule="evenodd" clip-rule="evenodd" d="M6.10998 17.7141C6.10998 17.7141 6.07884 17.6779 5.86472 17.4247C4.7435 16.0826 2.81641 16.9345 2.81641 16.9345C2.81641 16.9345 3.70014 17.9069 4.35808 18.0998C5.49098 18.4373 6.10609 17.7181 6.10998 17.7141Z" fill="#E0E0E0"/>
<path fill-rule="evenodd" clip-rule="evenodd" d="M5.30441 14.2665C5.22265 13.6638 4.84112 12.9565 4.84112 12.9565C4.84112 12.9565 3.47853 14.6121 4.49464 15.5363C4.70097 15.7251 4.70097 15.7693 4.69708 15.7774C4.72433 15.7492 5.40952 15.0581 5.30441 14.2665Z" fill="#E0E0E0"/>
<path fill-rule="evenodd" clip-rule="evenodd" d="M3.90268 15.681C3.90268 15.681 3.88321 15.6368 3.75863 15.3395C3.1007 13.7603 1.10742 13.9291 1.10742 13.9291C1.10742 13.9291 1.65246 15.0944 2.19749 15.4841C3.13963 16.1512 3.89879 15.685 3.90268 15.685V15.681Z" fill="#E0E0E0"/>
<path fill-rule="evenodd" clip-rule="evenodd" d="M4.33875 12.4381C4.38547 11.8313 4.15577 11.0518 4.15577 11.0518C4.15577 11.0518 2.48952 12.3416 3.2915 13.4868C3.45501 13.7199 3.44333 13.7641 3.43944 13.7721C3.47058 13.752 4.28424 13.2417 4.34264 12.4421L4.33875 12.4381Z" fill="#E0E0E0"/>
<path fill-rule="evenodd" clip-rule="evenodd" d="M2.86701 13.5392C2.86701 13.5392 2.85534 13.491 2.79694 13.1736C2.4777 11.4738 0.5 11.1685 0.5 11.1685C0.5 11.1685 0.791984 12.4342 1.24748 12.9445C2.02999 13.8205 2.86701 13.5473 2.87091 13.5433L2.86701 13.5392Z" fill="#E0E0E0"/>
<path fill-rule="evenodd" clip-rule="evenodd" d="M2.71922 11.2732C2.75037 11.2692 3.59128 11.1085 3.88326 10.4374C4.10517 9.9311 4.14799 9.17969 4.14799 9.17969C4.14799 9.17969 2.34937 9.71412 2.68029 10.9759C2.74647 11.233 2.72701 11.2652 2.71922 11.2692V11.2732Z" fill="#E0E0E0"/>
<path fill-rule="evenodd" clip-rule="evenodd" d="M0.865492 8.20703C0.865492 8.20703 0.772057 9.40447 1.02511 9.99114C1.46114 10.9997 2.25144 11.0238 2.25533 11.0238C2.25533 11.0238 2.25923 10.9796 2.29427 10.6783C2.48114 9.09507 0.865492 8.20703 0.865492 8.20703Z" fill="#E0E0E0"/>
<path fill-rule="evenodd" clip-rule="evenodd" d="M3.82506 8.54838C4.10536 8.12646 4.26109 7.44336 4.26109 7.44336C4.26109 7.44336 2.53254 7.60409 2.63766 8.82162C2.66101 9.06674 2.63766 9.09487 2.62598 9.09888C2.65712 9.09888 3.45132 9.10692 3.82116 8.54838H3.82506Z" fill="#E0E0E0"/>
<path fill-rule="evenodd" clip-rule="evenodd" d="M1.57465 5.7921C1.57465 5.7921 1.2671 6.85694 1.38389 7.44361C1.59023 8.4522 2.30267 8.64507 2.30656 8.64507C2.30656 8.64507 2.31824 8.60489 2.40778 8.33968C2.87495 6.94535 1.57465 5.78809 1.57465 5.78809V5.7921Z" fill="#E0E0E0"/>
<path fill-rule="evenodd" clip-rule="evenodd" d="M3.11985 6.74828C3.07703 6.96124 3.04978 6.97732 3.04199 6.97732C3.06924 6.98535 3.73886 7.21841 4.18657 6.85275C4.52527 6.57549 4.82115 6.04508 4.82115 6.04508C4.82115 6.04508 3.3184 5.68745 3.11596 6.74426L3.11985 6.74828Z" fill="#E0E0E0"/>
<path fill-rule="evenodd" clip-rule="evenodd" d="M2.82383 6.33855C2.82383 6.33855 2.8433 6.3064 2.98345 6.11352C3.73093 5.08083 2.93284 3.72266 2.93284 3.72266C2.93284 3.72266 2.40337 4.52631 2.35276 5.0527C2.26712 5.96485 2.81994 6.33855 2.82383 6.33855Z" fill="#E0E0E0"/>
<path fill-rule="evenodd" clip-rule="evenodd" d="M5.61604 4.7472C5.61604 4.7472 4.26513 4.17259 3.93032 5.1209C3.86414 5.31377 3.83299 5.32583 3.8291 5.32181C3.85246 5.33386 4.44421 5.65934 4.91139 5.39012C5.26566 5.18921 5.61604 4.74318 5.61604 4.74318V4.7472Z" fill="#E0E0E0"/>
<path fill-rule="evenodd" clip-rule="evenodd" d="M3.9766 4.30544C4.80584 3.45759 4.24133 2.07129 4.24133 2.07129C4.24133 2.07129 3.64179 2.73832 3.52889 3.22453C3.33424 4.06033 3.80141 4.4943 3.80141 4.4943C3.80141 4.4943 3.81698 4.47823 3.9805 4.30946L3.9766 4.30544Z" fill="#E0E0E0"/>
<path fill-rule="evenodd" clip-rule="evenodd" d="M6.48749 3.83906C6.48749 3.83906 5.4091 3.04746 4.93414 3.81495C4.83292 3.97568 4.80956 3.97568 4.80566 3.97166C4.82124 3.98371 5.28062 4.40161 5.7478 4.26097C6.09818 4.1565 6.49138 3.83906 6.49138 3.83906H6.48749Z" fill="#E0E0E0"/>
<path fill-rule="evenodd" clip-rule="evenodd" d="M5.68141 1.03027C5.68141 1.03027 5.05851 1.54059 4.895 1.95447C4.6108 2.67374 4.97286 3.12781 4.97286 3.12781C4.97286 3.12781 4.98843 3.11575 5.15584 2.98717C6.00843 2.35228 5.67751 1.03027 5.67751 1.03027H5.68141Z" fill="#E0E0E0"/>
<path fill-rule="evenodd" clip-rule="evenodd" d="M6.12556 2.84284C6.02823 2.98348 6.00487 2.97947 6.00098 2.97545C6.01266 2.9875 6.41365 3.39335 6.84189 3.30093C7.16502 3.2286 7.53876 2.96339 7.53876 2.96339C7.53876 2.96339 6.59273 2.17581 6.12556 2.84284Z" fill="#E0E0E0"/>
<path fill-rule="evenodd" clip-rule="evenodd" d="M8.06836 2.18365C8.36034 2.03095 8.65622 1.68538 8.65622 1.68538C8.65622 1.68538 7.5934 1.1831 7.28974 1.93451C7.22745 2.09123 7.20409 2.09525 7.2002 2.09525C7.21577 2.10328 7.67905 2.38456 8.06836 2.18365Z" fill="#E0E0E0"/>
<path fill-rule="evenodd" clip-rule="evenodd" d="M7.18484 0.5C7.18484 0.5 6.55026 0.845571 6.34003 1.19114C5.97797 1.78584 6.23492 2.25598 6.23492 2.25598C6.23492 2.25598 6.25049 2.24794 6.42179 2.16356C7.28217 1.74164 7.18484 0.5 7.18484 0.5Z" fill="#E0E0E0"/>
<path fill-rule="evenodd" clip-rule="evenodd" d="M15.4181 15.6528C15.4181 15.6528 14.6512 16.0225 14.219 16.5087C13.6584 17.1396 13.8492 18.2205 13.8609 18.2928C13.8609 18.2808 13.8881 18.2406 14.184 18.2165C15.6517 18.0919 15.4142 15.6528 15.4142 15.6528H15.4181Z" fill="#E0E0E0"/>
<path fill-rule="evenodd" clip-rule="evenodd" d="M14.5311 18.6545C14.2313 18.8193 14.1885 18.8394 14.1846 18.8394C14.1846 18.8434 14.5388 19.8118 15.7769 19.9404C16.4971 20.0167 17.7195 19.414 17.7195 19.414C17.7195 19.414 16.1156 17.7785 14.5272 18.6505L14.5311 18.6545Z" fill="#E0E0E0"/>
<path fill-rule="evenodd" clip-rule="evenodd" d="M16.6487 17.2202C17.9295 16.6496 17.0652 14.54 17.0652 14.54C17.0652 14.54 16.4774 15.1106 16.2204 15.6812C15.8817 16.4326 16.3606 17.3528 16.3801 17.389C16.3801 17.3769 16.3917 17.3327 16.6487 17.2162V17.2202Z" fill="#E0E0E0"/>
<path fill-rule="evenodd" clip-rule="evenodd" d="M17.131 17.4247C16.9208 17.6779 16.8896 17.71 16.8857 17.7141C16.8857 17.7141 17.5047 18.4414 18.6376 18.0998C19.2956 17.9029 20.1793 16.9345 20.1793 16.9345C20.1793 16.9345 18.2522 16.0826 17.131 17.4247Z" fill="#E0E0E0"/>
<path fill-rule="evenodd" clip-rule="evenodd" d="M18.5052 15.5363C19.5213 14.6121 18.1588 12.9565 18.1588 12.9565C18.1588 12.9565 17.7772 13.6638 17.6955 14.2665C17.5904 15.0621 18.2794 15.7533 18.3028 15.7774C18.2989 15.7693 18.295 15.7251 18.5052 15.5363Z" fill="#E0E0E0"/>
<path fill-rule="evenodd" clip-rule="evenodd" d="M19.2417 15.3396C19.1171 15.6369 19.1015 15.6771 19.0977 15.6811C19.0977 15.6811 19.8607 16.1473 20.8028 15.4802C21.3518 15.0945 21.8929 13.9252 21.8929 13.9252C21.8929 13.9252 19.8996 13.7564 19.2417 15.3356V15.3396Z" fill="#E0E0E0"/>
<path fill-rule="evenodd" clip-rule="evenodd" d="M18.8484 11.048C18.8484 11.048 18.6187 11.8275 18.6654 12.4343C18.7238 13.2339 19.5336 13.7442 19.5687 13.7643C19.5609 13.7563 19.5531 13.7121 19.7166 13.479C20.5186 12.3378 18.8523 11.0439 18.8523 11.0439L18.8484 11.048Z" fill="#E0E0E0"/>
<path fill-rule="evenodd" clip-rule="evenodd" d="M21.7523 12.9406C22.2078 12.4343 22.4998 11.1646 22.4998 11.1646C22.4998 11.1646 20.5221 11.474 20.2029 13.1697C20.1445 13.4911 20.1328 13.5313 20.1328 13.5353C20.1367 13.5353 20.9737 13.8086 21.7562 12.9366L21.7523 12.9406Z" fill="#E0E0E0"/>
<path fill-rule="evenodd" clip-rule="evenodd" d="M20.3202 10.9798C20.6551 9.71802 18.8525 9.18359 18.8525 9.18359C18.8525 9.18359 18.8954 9.93501 19.1173 10.4413C19.4093 11.1124 20.2502 11.2691 20.2813 11.2771C20.2735 11.2771 20.2502 11.2409 20.3202 10.9838V10.9798Z" fill="#E0E0E0"/>
<path fill-rule="evenodd" clip-rule="evenodd" d="M21.9741 9.99114C22.2271 9.40447 22.1337 8.20703 22.1337 8.20703C22.1337 8.20703 20.5219 9.09909 20.7049 10.6783C20.7399 10.9756 20.7438 11.0198 20.7438 11.0238C20.7438 11.0238 21.538 10.9997 21.9741 9.99114Z" fill="#E0E0E0"/>
<path fill-rule="evenodd" clip-rule="evenodd" d="M18.7392 7.44775C18.7392 7.44775 18.895 8.12684 19.1753 8.55278C19.5451 9.11132 20.3393 9.10328 20.3705 9.10328C20.3627 9.10328 20.3393 9.07515 20.3588 8.82602C20.4678 7.60848 18.7354 7.44775 18.7354 7.44775H18.7392Z" fill="#E0E0E0"/>
<path fill-rule="evenodd" clip-rule="evenodd" d="M20.5922 8.34348C20.6818 8.60868 20.6895 8.64485 20.6934 8.64887C20.6934 8.64887 21.4098 8.45599 21.6161 7.44741C21.7368 6.86074 21.4253 5.7959 21.4253 5.7959C21.4253 5.7959 20.1289 6.95316 20.5922 8.3475V8.34348Z" fill="#E0E0E0"/>
<path fill-rule="evenodd" clip-rule="evenodd" d="M18.1748 6.04936C18.1748 6.04936 18.4707 6.57977 18.8094 6.85703C19.2571 7.2227 19.9267 6.98964 19.9539 6.9816C19.9462 6.9816 19.9189 6.96553 19.8761 6.75256C19.6736 5.69575 18.1709 6.05338 18.1709 6.05338L18.1748 6.04936Z" fill="#E0E0E0"/>
<path fill-rule="evenodd" clip-rule="evenodd" d="M20.0665 3.72266C20.0665 3.72266 19.2684 5.08083 20.0159 6.11352C20.156 6.31042 20.1755 6.33453 20.1755 6.33855C20.1755 6.33855 20.7283 5.96485 20.6466 5.0527C20.5998 4.52631 20.0665 3.72266 20.0665 3.72266Z" fill="#E0E0E0"/>
<path fill-rule="evenodd" clip-rule="evenodd" d="M18.0894 5.39403C18.5566 5.66325 19.1483 5.33777 19.1717 5.32572C19.1639 5.32572 19.1367 5.31768 19.0705 5.1248C18.7357 4.17649 17.3848 4.7511 17.3848 4.7511C17.3848 4.7511 17.7351 5.19713 18.0894 5.39804V5.39403Z" fill="#E0E0E0"/>
<path fill-rule="evenodd" clip-rule="evenodd" d="M18.7586 2.07091C18.7586 2.07091 18.1902 3.45721 19.0234 4.30507C19.1869 4.47384 19.2024 4.48991 19.2024 4.48991C19.2024 4.48991 19.6696 4.05594 19.475 3.22014C19.3621 2.73794 18.7625 2.06689 18.7625 2.06689L18.7586 2.07091Z" fill="#E0E0E0"/>
<path fill-rule="evenodd" clip-rule="evenodd" d="M18.1984 3.96775C18.1984 3.96775 18.1673 3.97177 18.07 3.81104C17.595 3.04355 16.5166 3.83515 16.5166 3.83515C16.5166 3.83515 16.9098 4.15259 17.2602 4.25707C17.7274 4.39369 18.1867 3.97981 18.2023 3.96775H18.1984Z" fill="#E0E0E0"/>
<path fill-rule="evenodd" clip-rule="evenodd" d="M18.1042 1.95447C17.9407 1.54059 17.3178 1.03027 17.3178 1.03027C17.3178 1.03027 16.9908 2.35228 17.8395 2.98717C18.0069 3.11173 18.0225 3.12379 18.0225 3.12781C18.0225 3.12781 18.3845 2.67374 18.1003 1.95447H18.1042Z" fill="#E0E0E0"/>
<path fill-rule="evenodd" clip-rule="evenodd" d="M16.9987 2.97935C16.9987 2.97935 16.9715 2.98337 16.8741 2.84675C16.407 2.17972 15.4609 2.9673 15.4609 2.9673C15.4609 2.9673 15.8308 3.2325 16.1578 3.30483C16.586 3.40127 16.987 2.99141 16.9987 2.97935Z" fill="#E0E0E0"/>
<path fill-rule="evenodd" clip-rule="evenodd" d="M15.6634 1.93451C15.3597 1.1831 14.2969 1.68538 14.2969 1.68538C14.2969 1.68538 14.5928 2.03095 14.8847 2.18365C15.2702 2.38456 15.7373 2.10328 15.7529 2.09525C15.749 2.09525 15.7256 2.09525 15.6634 1.93451Z" fill="#E0E0E0"/>
<path fill-rule="evenodd" clip-rule="evenodd" d="M16.6606 1.19114C16.4504 0.845571 15.8158 0.5 15.8158 0.5C15.8158 0.5 15.7185 1.74164 16.5789 2.16356C16.7463 2.24794 16.7657 2.25598 16.7657 2.25598C16.7657 2.25598 17.0227 1.78584 16.6606 1.19114Z" fill="#E0E0E0"/>
<path fill-rule="evenodd" clip-rule="evenodd" d="M11.5097 18.8595L9.17773 18.526L9.50476 19.2854L9.43468 20.0449L11.0581 19.631C10.6026 20.1815 10.0809 21.1097 10.0809 22.492C10.0809 22.5483 10.3768 22.3835 10.3768 22.3835L10.6143 22.3675C10.6143 22.3675 10.6922 20.5432 11.5097 19.635C12.3273 20.5472 12.4051 22.3675 12.4051 22.3675L12.6387 22.3554C12.6387 22.3554 12.9385 22.5483 12.9385 22.488C12.9385 21.1097 12.4168 20.1775 11.9613 19.627L13.5886 20.0409L13.5186 19.2814L13.8456 18.522L11.5136 18.8555L11.5097 18.8595Z" fill="#E0E0E0"/>
<path d="M15.0335 13.3737V15.2428H7.97949C8.05588 14.5362 8.28505 13.8678 8.66699 13.2376C9.04894 12.6026 9.80328 11.7624 10.93 10.7168C11.8371 9.87174 12.3933 9.29883 12.5986 8.99805C12.8755 8.58268 13.014 8.17209 13.014 7.76628C13.014 7.31749 12.8923 6.97374 12.6488 6.73503C12.41 6.49154 12.0782 6.36979 11.6533 6.36979C11.2332 6.36979 10.899 6.49631 10.6507 6.74935C10.4025 7.00239 10.2592 7.42253 10.221 8.00977L8.21582 7.80924C8.33518 6.70161 8.70996 5.90668 9.34017 5.42448C9.97038 4.94227 10.7581 4.70117 11.7035 4.70117C12.7395 4.70117 13.5535 4.98047 14.1455 5.53906C14.7375 6.09766 15.0335 6.79232 15.0335 7.62305C15.0335 8.0957 14.9476 8.54687 14.7757 8.97656C14.6086 9.40148 14.3413 9.84787 13.9736 10.3158C13.7301 10.6261 13.2909 11.0725 12.6559 11.6549C12.0209 12.2374 11.6175 12.6241 11.4456 12.8151C11.2785 13.0061 11.1425 13.1923 11.0374 13.3737H15.0335Z" fill="#E0E0E0"/>
</g>
<defs>
<clipPath id="clip0_2137_14812">
<rect width="22" height="22" fill="white" transform="translate(0.5 0.5)"/>
</clipPath>
</defs>
</svg>
