<svg width="23" height="23" viewBox="0 0 23 23" fill="none" xmlns="http://www.w3.org/2000/svg">
<g clip-path="url(#clip0_2137_14765)">
<path fill-rule="evenodd" clip-rule="evenodd" d="M9.11412 16.5087C8.68198 16.0225 7.91504 15.6528 7.91504 15.6528C7.91504 15.6528 7.68145 18.0919 9.14526 18.2165C9.44503 18.2406 9.46839 18.2808 9.47229 18.2928C9.48397 18.2205 9.67862 17.1396 9.11412 16.5087Z" fill="#EFCA58"/>
<path fill-rule="evenodd" clip-rule="evenodd" d="M5.61327 19.4178C5.61327 19.4178 6.83571 20.0165 7.55593 19.9442C8.79784 19.8156 9.14822 18.8472 9.14822 18.8432C9.14433 18.8432 9.1015 18.8191 8.80173 18.6583C7.21334 17.7864 5.60938 19.4218 5.60938 19.4218L5.61327 19.4178Z" fill="#EFCA58"/>
<path fill-rule="evenodd" clip-rule="evenodd" d="M7.11237 15.6812C6.85542 15.1106 6.26756 14.54 6.26756 14.54C6.26756 14.54 5.40329 16.6496 6.68412 17.2202C6.94496 17.3368 6.95664 17.381 6.95664 17.393C6.97611 17.3568 7.45496 16.4367 7.11626 15.6852L7.11237 15.6812Z" fill="#EFCA58"/>
<path fill-rule="evenodd" clip-rule="evenodd" d="M6.44299 17.7141C6.44299 17.7141 6.41185 17.6779 6.19772 17.4247C5.07651 16.0826 3.14941 16.9345 3.14941 16.9345C3.14941 16.9345 4.03315 17.9069 4.69109 18.0998C5.82399 18.4373 6.4391 17.7181 6.44299 17.7141Z" fill="#EFCA58"/>
<path fill-rule="evenodd" clip-rule="evenodd" d="M5.63741 14.2665C5.55566 13.6638 5.17413 12.9565 5.17413 12.9565C5.17413 12.9565 3.81154 14.6121 4.82765 15.5363C5.03398 15.7251 5.03398 15.7693 5.03009 15.7774C5.05734 15.7492 5.74253 15.0581 5.63741 14.2665Z" fill="#EFCA58"/>
<path fill-rule="evenodd" clip-rule="evenodd" d="M4.23569 15.681C4.23569 15.681 4.21622 15.6368 4.09164 15.3395C3.43371 13.7603 1.44043 13.9291 1.44043 13.9291C1.44043 13.9291 1.98547 15.0944 2.5305 15.4841C3.47264 16.1512 4.23179 15.685 4.23569 15.685V15.681Z" fill="#EFCA58"/>
<path fill-rule="evenodd" clip-rule="evenodd" d="M4.67176 12.4381C4.71847 11.8313 4.48878 11.0518 4.48878 11.0518C4.48878 11.0518 2.82253 12.3416 3.62451 13.4868C3.78802 13.7199 3.77634 13.7641 3.77245 13.7721C3.80359 13.752 4.61725 13.2417 4.67565 12.4421L4.67176 12.4381Z" fill="#EFCA58"/>
<path fill-rule="evenodd" clip-rule="evenodd" d="M3.20002 13.5392C3.20002 13.5392 3.18834 13.491 3.12995 13.1736C2.81071 11.4738 0.833008 11.1685 0.833008 11.1685C0.833008 11.1685 1.12499 12.4342 1.58049 12.9445C2.363 13.8205 3.20002 13.5473 3.20392 13.5433L3.20002 13.5392Z" fill="#EFCA58"/>
<path fill-rule="evenodd" clip-rule="evenodd" d="M3.05223 11.2732C3.08337 11.2692 3.92429 11.1085 4.21627 10.4374C4.43818 9.9311 4.481 9.17969 4.481 9.17969C4.481 9.17969 2.68238 9.71412 3.0133 10.9759C3.07948 11.233 3.06001 11.2652 3.05223 11.2692V11.2732Z" fill="#EFCA58"/>
<path fill-rule="evenodd" clip-rule="evenodd" d="M1.1985 8.20703C1.1985 8.20703 1.10506 9.40447 1.35812 9.99114C1.79415 10.9997 2.58445 11.0238 2.58834 11.0238C2.58834 11.0238 2.59224 10.9796 2.62727 10.6783C2.81414 9.09507 1.1985 8.20703 1.1985 8.20703Z" fill="#EFCA58"/>
<path fill-rule="evenodd" clip-rule="evenodd" d="M4.15806 8.54838C4.43837 8.12646 4.59409 7.44336 4.59409 7.44336C4.59409 7.44336 2.86555 7.60409 2.97066 8.82162C2.99402 9.06674 2.97066 9.09487 2.95898 9.09888C2.99013 9.09888 3.78432 9.10692 4.15417 8.54838H4.15806Z" fill="#EFCA58"/>
<path fill-rule="evenodd" clip-rule="evenodd" d="M1.90766 5.7921C1.90766 5.7921 1.60011 6.85694 1.7169 7.44361C1.92323 8.4522 2.63567 8.64507 2.63957 8.64507C2.63957 8.64507 2.65125 8.60489 2.74079 8.33968C3.20796 6.94535 1.90766 5.78809 1.90766 5.78809V5.7921Z" fill="#EFCA58"/>
<path fill-rule="evenodd" clip-rule="evenodd" d="M3.45286 6.74828C3.41004 6.96124 3.38279 6.97732 3.375 6.97732C3.40225 6.98535 4.07187 7.21841 4.51958 6.85275C4.85828 6.57549 5.15415 6.04508 5.15415 6.04508C5.15415 6.04508 3.65141 5.68745 3.44897 6.74426L3.45286 6.74828Z" fill="#EFCA58"/>
<path fill-rule="evenodd" clip-rule="evenodd" d="M3.15684 6.33855C3.15684 6.33855 3.1763 6.3064 3.31646 6.11352C4.06393 5.08083 3.26585 3.72266 3.26585 3.72266C3.26585 3.72266 2.73638 4.52631 2.68577 5.0527C2.60012 5.96485 3.15295 6.33855 3.15684 6.33855Z" fill="#EFCA58"/>
<path fill-rule="evenodd" clip-rule="evenodd" d="M5.94905 4.7472C5.94905 4.7472 4.59814 4.17259 4.26333 5.1209C4.19715 5.31377 4.166 5.32583 4.16211 5.32181C4.18547 5.33386 4.77722 5.65934 5.2444 5.39012C5.59867 5.18921 5.94905 4.74318 5.94905 4.74318V4.7472Z" fill="#EFCA58"/>
<path fill-rule="evenodd" clip-rule="evenodd" d="M4.30961 4.30544C5.13884 3.45759 4.57434 2.07129 4.57434 2.07129C4.57434 2.07129 3.9748 2.73832 3.8619 3.22453C3.66725 4.06033 4.13442 4.4943 4.13442 4.4943C4.13442 4.4943 4.14999 4.47823 4.3135 4.30946L4.30961 4.30544Z" fill="#EFCA58"/>
<path fill-rule="evenodd" clip-rule="evenodd" d="M6.8205 3.83906C6.8205 3.83906 5.7421 3.04746 5.26714 3.81495C5.16592 3.97568 5.14256 3.97568 5.13867 3.97166C5.15424 3.98371 5.61363 4.40161 6.08081 4.26097C6.43119 4.1565 6.82439 3.83906 6.82439 3.83906H6.8205Z" fill="#EFCA58"/>
<path fill-rule="evenodd" clip-rule="evenodd" d="M6.01441 1.03027C6.01441 1.03027 5.39152 1.54059 5.22801 1.95447C4.94381 2.67374 5.30587 3.12781 5.30587 3.12781C5.30587 3.12781 5.32144 3.11575 5.48884 2.98717C6.34144 2.35228 6.01052 1.03027 6.01052 1.03027H6.01441Z" fill="#EFCA58"/>
<path fill-rule="evenodd" clip-rule="evenodd" d="M6.45856 2.84284C6.36124 2.98348 6.33788 2.97947 6.33398 2.97545C6.34566 2.9875 6.74666 3.39335 7.1749 3.30093C7.49803 3.2286 7.87177 2.96339 7.87177 2.96339C7.87177 2.96339 6.92574 2.17581 6.45856 2.84284Z" fill="#EFCA58"/>
<path fill-rule="evenodd" clip-rule="evenodd" d="M8.40137 2.18365C8.69335 2.03095 8.98923 1.68538 8.98923 1.68538C8.98923 1.68538 7.92641 1.1831 7.62275 1.93451C7.56046 2.09123 7.5371 2.09525 7.5332 2.09525C7.54878 2.10328 8.01206 2.38456 8.40137 2.18365Z" fill="#EFCA58"/>
<path fill-rule="evenodd" clip-rule="evenodd" d="M7.51785 0.5C7.51785 0.5 6.88327 0.845571 6.67304 1.19114C6.31098 1.78584 6.56793 2.25598 6.56793 2.25598C6.56793 2.25598 6.5835 2.24794 6.7548 2.16356C7.61518 1.74164 7.51785 0.5 7.51785 0.5Z" fill="#EFCA58"/>
<path fill-rule="evenodd" clip-rule="evenodd" d="M15.7511 15.6528C15.7511 15.6528 14.9842 16.0225 14.5521 16.5087C13.9914 17.1396 14.1822 18.2205 14.1939 18.2928C14.1939 18.2808 14.2211 18.2406 14.517 18.2165C15.9847 18.0919 15.7472 15.6528 15.7472 15.6528H15.7511Z" fill="#EFCA58"/>
<path fill-rule="evenodd" clip-rule="evenodd" d="M14.8641 18.6545C14.5643 18.8193 14.5215 18.8394 14.5176 18.8394C14.5176 18.8434 14.8719 19.8118 16.1099 19.9404C16.8301 20.0167 18.0525 19.414 18.0525 19.414C18.0525 19.414 16.4486 17.7785 14.8602 18.6505L14.8641 18.6545Z" fill="#EFCA58"/>
<path fill-rule="evenodd" clip-rule="evenodd" d="M16.9817 17.2202C18.2625 16.6496 17.3983 14.54 17.3983 14.54C17.3983 14.54 16.8104 15.1106 16.5534 15.6812C16.2147 16.4326 16.6936 17.3528 16.7131 17.389C16.7131 17.3769 16.7247 17.3327 16.9817 17.2162V17.2202Z" fill="#EFCA58"/>
<path fill-rule="evenodd" clip-rule="evenodd" d="M17.464 17.4247C17.2538 17.6779 17.2226 17.71 17.2188 17.7141C17.2188 17.7141 17.8378 18.4414 18.9707 18.0998C19.6286 17.9029 20.5123 16.9345 20.5123 16.9345C20.5123 16.9345 18.5852 16.0826 17.464 17.4247Z" fill="#EFCA58"/>
<path fill-rule="evenodd" clip-rule="evenodd" d="M18.8382 15.5363C19.8544 14.6121 18.4918 12.9565 18.4918 12.9565C18.4918 12.9565 18.1102 13.6638 18.0285 14.2665C17.9234 15.0621 18.6124 15.7533 18.6358 15.7774C18.6319 15.7693 18.628 15.7251 18.8382 15.5363Z" fill="#EFCA58"/>
<path fill-rule="evenodd" clip-rule="evenodd" d="M19.5747 15.3396C19.4501 15.6369 19.4346 15.6771 19.4307 15.6811C19.4307 15.6811 20.1937 16.1473 21.1358 15.4802C21.6848 15.0945 22.2259 13.9252 22.2259 13.9252C22.2259 13.9252 20.2326 13.7564 19.5747 15.3356V15.3396Z" fill="#EFCA58"/>
<path fill-rule="evenodd" clip-rule="evenodd" d="M19.1814 11.048C19.1814 11.048 18.9517 11.8275 18.9985 12.4343C19.0569 13.2339 19.8666 13.7442 19.9017 13.7643C19.8939 13.7563 19.8861 13.7121 20.0496 13.479C20.8516 12.3378 19.1853 11.0439 19.1853 11.0439L19.1814 11.048Z" fill="#EFCA58"/>
<path fill-rule="evenodd" clip-rule="evenodd" d="M22.0854 12.9406C22.5409 12.4343 22.8328 11.1646 22.8328 11.1646C22.8328 11.1646 20.8551 11.474 20.5359 13.1697C20.4775 13.4911 20.4658 13.5313 20.4658 13.5353C20.4697 13.5353 21.3067 13.8086 22.0892 12.9366L22.0854 12.9406Z" fill="#EFCA58"/>
<path fill-rule="evenodd" clip-rule="evenodd" d="M20.6533 10.9798C20.9881 9.71802 19.1855 9.18359 19.1855 9.18359C19.1855 9.18359 19.2284 9.93501 19.4503 10.4413C19.7423 11.1124 20.5832 11.2691 20.6143 11.2771C20.6065 11.2771 20.5832 11.2409 20.6533 10.9838V10.9798Z" fill="#EFCA58"/>
<path fill-rule="evenodd" clip-rule="evenodd" d="M22.3071 9.99114C22.5601 9.40447 22.4667 8.20703 22.4667 8.20703C22.4667 8.20703 20.8549 9.09909 21.0379 10.6783C21.073 10.9756 21.0768 11.0198 21.0768 11.0238C21.0768 11.0238 21.871 10.9997 22.3071 9.99114Z" fill="#EFCA58"/>
<path fill-rule="evenodd" clip-rule="evenodd" d="M19.0723 7.44775C19.0723 7.44775 19.228 8.12684 19.5083 8.55278C19.8781 9.11132 20.6723 9.10328 20.7035 9.10328C20.6957 9.10328 20.6723 9.07515 20.6918 8.82602C20.8008 7.60848 19.0684 7.44775 19.0684 7.44775H19.0723Z" fill="#EFCA58"/>
<path fill-rule="evenodd" clip-rule="evenodd" d="M20.9252 8.34348C21.0148 8.60868 21.0225 8.64485 21.0264 8.64887C21.0264 8.64887 21.7428 8.45599 21.9491 7.44741C22.0698 6.86074 21.7583 5.7959 21.7583 5.7959C21.7583 5.7959 20.4619 6.95316 20.9252 8.3475V8.34348Z" fill="#EFCA58"/>
<path fill-rule="evenodd" clip-rule="evenodd" d="M18.5078 6.04936C18.5078 6.04936 18.8037 6.57977 19.1424 6.85703C19.5901 7.22269 20.2597 6.98964 20.287 6.9816C20.2792 6.9816 20.2519 6.96553 20.2091 6.75256C20.0066 5.69575 18.5039 6.05338 18.5039 6.05338L18.5078 6.04936Z" fill="#EFCA58"/>
<path fill-rule="evenodd" clip-rule="evenodd" d="M20.3995 3.72266C20.3995 3.72266 19.6014 5.08083 20.3489 6.11352C20.489 6.31042 20.5085 6.33453 20.5085 6.33855C20.5085 6.33855 21.0613 5.96485 20.9796 5.0527C20.9328 4.52631 20.3995 3.72266 20.3995 3.72266Z" fill="#EFCA58"/>
<path fill-rule="evenodd" clip-rule="evenodd" d="M18.4224 5.39403C18.8896 5.66325 19.4814 5.33777 19.5047 5.32572C19.4969 5.32572 19.4697 5.31768 19.4035 5.1248C19.0687 4.17649 17.7178 4.7511 17.7178 4.7511C17.7178 4.7511 18.0682 5.19713 18.4224 5.39804V5.39403Z" fill="#EFCA58"/>
<path fill-rule="evenodd" clip-rule="evenodd" d="M19.0916 2.07091C19.0916 2.07091 18.5232 3.45721 19.3564 4.30507C19.5199 4.47384 19.5354 4.48991 19.5354 4.48991C19.5354 4.48991 20.0026 4.05594 19.808 3.22014C19.6951 2.73794 19.0955 2.06689 19.0955 2.06689L19.0916 2.07091Z" fill="#EFCA58"/>
<path fill-rule="evenodd" clip-rule="evenodd" d="M18.5314 3.96775C18.5314 3.96775 18.5003 3.97177 18.403 3.81104C17.928 3.04355 16.8496 3.83515 16.8496 3.83515C16.8496 3.83515 17.2428 4.15259 17.5932 4.25707C18.0604 4.39369 18.5198 3.97981 18.5353 3.96775H18.5314Z" fill="#EFCA58"/>
<path fill-rule="evenodd" clip-rule="evenodd" d="M18.4372 1.95447C18.2737 1.54059 17.6508 1.03027 17.6508 1.03027C17.6508 1.03027 17.3238 2.35228 18.1725 2.98717C18.3399 3.11173 18.3555 3.12379 18.3555 3.12781C18.3555 3.12781 18.7175 2.67374 18.4333 1.95447H18.4372Z" fill="#EFCA58"/>
<path fill-rule="evenodd" clip-rule="evenodd" d="M17.3317 2.97935C17.3317 2.97935 17.3045 2.98337 17.2071 2.84675C16.74 2.17972 15.7939 2.9673 15.7939 2.9673C15.7939 2.9673 16.1638 3.2325 16.4908 3.30483C16.9191 3.40127 17.32 2.99141 17.3317 2.97935Z" fill="#EFCA58"/>
<path fill-rule="evenodd" clip-rule="evenodd" d="M15.9964 1.93451C15.6927 1.1831 14.6299 1.68538 14.6299 1.68538C14.6299 1.68538 14.9258 2.03095 15.2177 2.18365C15.6032 2.38456 16.0703 2.10328 16.0859 2.09525C16.082 2.09525 16.0587 2.09525 15.9964 1.93451Z" fill="#EFCA58"/>
<path fill-rule="evenodd" clip-rule="evenodd" d="M16.9936 1.19114C16.7834 0.845571 16.1488 0.5 16.1488 0.5C16.1488 0.5 16.0515 1.74164 16.9119 2.16356C17.0793 2.24794 17.0987 2.25598 17.0987 2.25598C17.0987 2.25598 17.3557 1.78584 16.9936 1.19114Z" fill="#EFCA58"/>
<path fill-rule="evenodd" clip-rule="evenodd" d="M11.8427 18.8595L9.51074 18.526L9.83776 19.2854L9.76769 20.0449L11.3911 19.631C10.9356 20.1815 10.4139 21.1097 10.4139 22.492C10.4139 22.5483 10.7098 22.3835 10.7098 22.3835L10.9473 22.3675C10.9473 22.3675 11.0252 20.5432 11.8427 19.635C12.6603 20.5472 12.7381 22.3675 12.7381 22.3675L12.9717 22.3554C12.9717 22.3554 13.2715 22.5483 13.2715 22.488C13.2715 21.1097 12.7498 20.1775 12.2943 19.627L13.9216 20.0409L13.8516 19.2814L14.1786 18.522L11.8466 18.8555L11.8427 18.8595Z" fill="#EFCA58"/>
<path d="M13.0827 16.0465H11.0703V8.46256C10.3351 9.15006 9.46853 9.65853 8.4707 9.98796V8.16178C8.99588 7.98991 9.56641 7.66526 10.1823 7.18783C10.7982 6.70562 11.2207 6.14464 11.4499 5.50488H13.0827V16.0465Z" fill="#EFCA58"/>
</g>
<defs>
<clipPath id="clip0_2137_14765">
<rect width="22" height="22" fill="white" transform="translate(0.833008 0.5)"/>
</clipPath>
</defs>
</svg>
