<svg width="295" height="253" viewBox="0 0 295 253" fill="none" xmlns="http://www.w3.org/2000/svg">
<mask id="mask0_3_6551" style="mask-type:alpha" maskUnits="userSpaceOnUse" x="0" y="0" width="295" height="253">
<rect width="294.416" height="253" fill="#D9D9D9"/>
</mask>
<g mask="url(#mask0_3_6551)">
<path d="M199.182 27.603V207.561C199.203 210.083 198.221 212.51 196.454 214.309C194.687 216.108 192.278 217.132 189.756 217.157H96.6337C94.1134 217.131 91.7065 216.105 89.9413 214.306C88.1762 212.507 87.197 210.081 87.2188 207.561V27.603C87.1954 25.0822 88.1741 22.6553 89.9396 20.8559C91.7051 19.0565 94.1129 18.0318 96.6337 18.0071H189.727C190.978 18.0148 192.216 18.2692 193.369 18.7559C194.522 19.2425 195.567 19.9519 196.445 20.8433C197.324 21.7346 198.018 22.7905 198.487 23.9505C198.957 25.1104 199.193 26.3516 199.182 27.603Z" fill="#263238"/>
<path opacity="0.1" d="M193.264 36.6386V201.637C193.264 206.68 189.487 210.765 184.83 210.765H101.548C96.8789 210.765 93.1024 206.68 93.1024 201.637V36.6386C93.1024 26.3598 96.8789 24.0892 101.548 24.0892H118.224C119.193 24.0892 119.976 25.1866 119.976 26.5524V27.1361C119.976 30.3347 121.727 30.3464 123.88 30.3464H162.462C164.628 30.3464 166.367 30.3464 166.367 27.1361V26.5524C166.367 25.1866 167.15 24.0892 168.118 24.0892H184.806C189.487 24.0892 193.264 27.2237 193.264 36.6386Z" fill="white"/>
<path opacity="0.1" d="M148.442 26.3598H137.936C137.762 26.3598 137.596 26.2909 137.473 26.1683C137.351 26.0457 137.282 25.8794 137.282 25.7061C137.284 25.5337 137.353 25.3689 137.476 25.2476C137.598 25.1262 137.763 25.0582 137.936 25.0582H148.442C148.615 25.0582 148.78 25.1262 148.902 25.2476C149.025 25.3689 149.094 25.5337 149.096 25.7061C149.096 25.8794 149.027 26.0457 148.904 26.1683C148.782 26.2909 148.616 26.3598 148.442 26.3598Z" fill="white"/>
<g opacity="0.05">
<path d="M222.666 193.993H242.173V187.784H222.666V193.993Z" fill="#EBEBEB"/>
<path d="M233.546 201.815C236.786 201.765 245.091 201.627 248.22 201.588H253.053L252.797 201.837V195.629L253.075 195.907C249.835 195.907 241.574 195.868 238.445 195.823L233.568 195.762L233.701 195.629L233.568 201.837L233.546 201.815ZM233.546 201.815L233.418 195.607V195.479H233.551C235.987 195.446 240.875 195.391 243.305 195.368L253.058 195.33H253.336V195.607V201.815V202.07H253.086H248.165C245.058 202.037 236.791 201.893 233.579 201.837L233.546 201.815Z" fill="#EBEBEB"/>
<path d="M186.121 72.7574C189.361 72.7019 197.667 72.5632 200.796 72.5299H205.628L205.373 72.7795V66.5713L205.65 66.8487C202.41 66.8487 194.149 66.8099 191.02 66.7655L186.144 66.7045L186.277 66.5713L186.144 72.7795L186.121 72.7574ZM186.121 72.7574L186.01 66.5491V66.4215H186.144C188.579 66.3882 193.467 66.3328 195.897 66.3106L205.65 66.2717H205.928V66.5491L205.9 72.7574V73.0126H205.65H200.729C197.622 72.9737 189.356 72.835 186.144 72.7795L186.121 72.7574Z" fill="#EBEBEB"/>
<path d="M197.001 80.5856C200.241 80.5301 208.546 80.3914 211.676 80.3581H216.508L216.253 80.6078V74.3996L216.53 74.677C213.29 74.677 205.029 74.6381 201.9 74.5937L197.023 74.5327L197.156 74.3996L197.023 80.6078L197.001 80.5856ZM197.001 80.5856L196.873 74.3774V74.2498H197.007C199.442 74.2165 204.33 74.161 206.76 74.1388L216.513 74.1H216.791V74.3774V80.5856V80.8408H216.524H211.603C208.497 80.802 200.23 80.6633 197.018 80.6078L197.001 80.5856Z" fill="#EBEBEB"/>
<path d="M207.836 72.7629H227.343V66.5547H207.836V72.7629Z" fill="#EBEBEB"/>
<path d="M34.422 16.3951L53.9288 16.3951V10.1869L34.422 10.1869V16.3951Z" fill="#EBEBEB"/>
<path d="M23.5424 24.2178C26.7824 24.1623 35.0878 24.0236 38.2169 23.9903H43.0492L42.794 24.24V18.0317L43.0714 18.3091C39.8314 18.3091 31.5704 18.2703 28.4413 18.2259L23.5646 18.1649L23.6755 17.9874L23.5424 24.1956V24.2178ZM23.5424 24.2178L23.4092 17.9874V17.8598H23.5424C25.978 17.8265 30.8602 17.771 33.2958 17.7488L43.0492 17.71H43.3266V17.9874V24.1956V24.4508H43.077H38.1559C35.049 24.412 26.7769 24.2733 23.5701 24.2178H23.5424Z" fill="#EBEBEB"/>
<path d="M222.666 16.3896C225.906 16.3341 234.212 16.2009 237.341 16.1621H242.173L241.918 16.4118V10.2035L242.195 10.4809L232.442 10.4421C230.012 10.4421 225.118 10.37 222.688 10.3367L222.822 10.2035L222.688 16.4118L222.666 16.3896ZM222.666 16.3896L222.533 10.1813V10.0537H222.666C225.102 10.0204 229.99 9.96496 232.42 9.94277L242.173 9.90393H242.45V10.1813L242.423 16.3896V16.6448H242.173H237.252C234.145 16.6059 225.878 16.4672 222.666 16.4118V16.3896Z" fill="#EBEBEB"/>
<path d="M37.4956 78.2111L37.4235 75.9919C37.4138 75.7621 37.3408 75.5395 37.2125 75.3486C37.0843 75.1577 36.9058 75.0059 36.6967 74.91C36.5469 74.8435 36.4027 74.7713 36.2584 74.6937C36.1142 74.616 35.9755 74.5328 35.8368 74.4496C35.6399 74.3283 35.4133 74.2641 35.1821 74.2641C34.9509 74.2641 34.7243 74.3283 34.5274 74.4496L32.6245 75.6313L28.9572 69.7171L30.8547 68.5354C31.0472 68.4115 31.2012 68.2362 31.2993 68.0293C31.3973 67.8224 31.4355 67.5922 31.4095 67.3647C31.3807 67.0364 31.3715 66.7066 31.3817 66.3772C31.385 66.1506 31.3262 65.9275 31.2118 65.7319C31.0974 65.5364 30.9317 65.3758 30.7326 65.2676L28.7575 64.2135L32.0475 58.0774L34.0226 59.137C34.2262 59.243 34.4551 59.2908 34.6842 59.2752C34.9132 59.2595 35.1335 59.181 35.3208 59.0483C35.5927 58.8596 35.8756 58.6876 36.1641 58.5268C36.3654 58.4208 36.5333 58.2608 36.6489 58.0649C36.7645 57.8689 36.8233 57.6446 36.8188 57.4171L36.7522 55.1979L43.7039 54.9816L43.776 57.2008C43.7993 57.4228 43.8822 57.6345 44.016 57.8132C44.1498 57.992 44.3295 58.1312 44.5361 58.2161L44.9688 58.438L45.3905 58.6765C45.5854 58.7974 45.8102 58.8615 46.0396 58.8615C46.2689 58.8615 46.4938 58.7974 46.6887 58.6765L48.6083 57.4948L52.2755 63.409L50.3615 64.5907C50.1694 64.7151 50.0157 64.8904 49.9177 65.0972C49.8197 65.304 49.7813 65.534 49.8067 65.7614C49.826 66.0884 49.826 66.4163 49.8067 66.7434C49.8034 66.9699 49.8622 67.193 49.9766 67.3886C50.091 67.5842 50.2567 67.7448 50.4558 67.853L52.4309 68.9126L49.1409 75.0487L47.1769 74.0224C46.9743 73.9137 46.7453 73.8639 46.5159 73.8786C46.2865 73.8933 46.0657 73.9719 45.8787 74.1056C45.6102 74.2944 45.3304 74.4667 45.0409 74.6215C44.841 74.7297 44.674 74.8899 44.5578 75.0853C44.4416 75.2806 44.3804 75.5038 44.3807 75.7311L44.4528 77.9503L37.4956 78.2111ZM35.1599 73.6839C35.4988 73.6845 35.8309 73.7786 36.1197 73.9558L36.5192 74.1777C36.6579 74.2554 36.791 74.3219 36.9297 74.3885C37.2333 74.5252 37.4924 74.7443 37.6778 75.0208C37.8631 75.2974 37.9672 75.6203 37.9783 75.9531L38.0338 77.6175L43.8814 77.4344L43.8259 75.77C43.816 75.4366 43.8997 75.1072 44.0673 74.8189C44.235 74.5307 44.48 74.2951 44.7746 74.1389C45.0463 73.9912 45.3093 73.8282 45.5624 73.6506C45.8328 73.4578 46.1519 73.3446 46.4834 73.324C46.8149 73.3034 47.1455 73.3762 47.4377 73.5341L48.9245 74.3275L51.6985 69.1734L50.2172 68.3745C49.9249 68.216 49.6821 67.9798 49.5156 67.6919C49.3492 67.4041 49.2656 67.0758 49.2741 66.7434C49.2935 66.4367 49.2935 66.1291 49.2741 65.8224C49.2418 65.4909 49.3026 65.1569 49.4496 64.858C49.5966 64.5591 49.824 64.3071 50.1063 64.1302L51.5432 63.237L48.4585 58.2438L47.016 59.137C46.7333 59.3113 46.4077 59.4036 46.0756 59.4036C45.7435 59.4036 45.4179 59.3113 45.1352 59.137C45.0076 59.0538 44.8745 58.9817 44.7413 58.9096C44.6082 58.8374 44.4695 58.7653 44.3308 58.7043C44.0276 58.5656 43.7689 58.3453 43.5838 58.068C43.3986 57.7907 43.2942 57.4674 43.2822 57.1342L43.2267 55.4698L37.3236 55.6418L37.3736 57.3062C37.3833 57.6388 37.3002 57.9676 37.1337 58.2557C36.9671 58.5438 36.7236 58.7798 36.4304 58.9373C36.1577 59.0862 35.8928 59.2491 35.637 59.4255C35.3664 59.6175 35.0478 59.7305 34.7167 59.7521C34.3856 59.7736 34.055 59.7028 33.7618 59.5476L32.2749 58.7487L29.5009 63.9083L30.9823 64.7017C31.2742 64.8607 31.5166 65.097 31.683 65.3847C31.8494 65.6725 31.9333 66.0005 31.9254 66.3328C31.9153 66.6438 31.9245 66.9551 31.9532 67.2649C31.9789 67.5924 31.9145 67.9207 31.7668 68.2141C31.6191 68.5075 31.3938 68.7549 31.1154 68.9293L29.684 69.8114L32.7687 74.8046L34.2001 73.9169C34.4907 73.748 34.8242 73.6671 35.1599 73.6839ZM40.6025 72.075C39.3875 72.0774 38.2054 71.6809 37.2375 70.9464C36.2697 70.2119 35.5697 69.18 35.2451 68.0092C34.9205 66.8384 34.9893 65.5934 35.4407 64.4654C35.8922 63.3374 36.7015 62.3888 37.7442 61.7653C38.787 61.1418 40.0057 60.8778 41.213 61.0139C42.4203 61.15 43.5496 61.6787 44.4274 62.5187C45.3052 63.3587 45.8829 64.4637 46.072 65.6639C46.261 66.8641 46.0508 68.0931 45.4737 69.1623C45.0044 70.0457 44.3025 70.784 43.4439 71.2974C42.5854 71.8107 41.6028 72.0797 40.6025 72.075ZM40.6025 61.5837C39.3909 61.583 38.2208 62.0254 37.3127 62.8274C36.4046 63.6295 35.821 64.7359 35.672 65.9384C35.5229 67.1408 35.8187 68.3562 36.5035 69.3557C37.1883 70.3552 38.215 71.0699 39.3901 71.365C40.5652 71.6602 41.8077 71.5156 42.8835 70.9583C43.9594 70.401 44.7944 69.4696 45.2312 68.3395C45.6681 67.2094 45.6767 65.9585 45.2554 64.8225C44.834 63.6865 44.0119 62.7438 42.9438 62.1718C42.2282 61.7899 41.4303 61.588 40.6192 61.5837H40.6025Z" fill="#EBEBEB"/>
<path d="M229.751 95.532C229.991 95.3837 230.268 95.3051 230.55 95.3051C230.832 95.3051 231.109 95.3837 231.349 95.532C231.487 95.6152 231.621 95.6929 231.759 95.765L232.187 95.9814C232.442 96.098 232.66 96.2831 232.817 96.5162C232.974 96.7492 233.063 97.0212 233.074 97.3018L233.135 99.2658L239.538 99.0661L239.477 97.1021C239.47 96.82 239.542 96.5418 239.684 96.298C239.826 96.0543 240.033 95.8544 240.281 95.7206C240.559 95.568 240.83 95.4014 241.091 95.2213C241.321 95.0585 241.591 94.9624 241.872 94.9438C242.153 94.9252 242.434 94.9848 242.683 95.1159L244.409 96.0424L247.438 90.4001L245.707 89.4735C245.461 89.3382 245.257 89.1378 245.117 88.8941C244.977 88.6504 244.906 88.373 244.914 88.0921C244.914 87.7703 244.914 87.4541 244.886 87.1378C244.857 86.8572 244.908 86.5741 245.033 86.321C245.157 86.0679 245.351 85.8549 245.591 85.7064L247.255 84.669L243.876 79.2264L242.212 80.2638C241.973 80.4123 241.697 80.4909 241.416 80.4909C241.134 80.4909 240.859 80.4123 240.62 80.2638L240.209 80.0308L239.787 79.82C239.53 79.7038 239.31 79.5181 239.152 79.2839C238.995 79.0497 238.905 78.7762 238.894 78.494L238.839 76.53L232.436 76.7298L232.497 78.6882C232.505 78.9698 232.434 79.2479 232.293 79.4917C232.152 79.7355 231.946 79.9356 231.698 80.0697C231.416 80.2208 231.144 80.3894 230.883 80.5745C230.652 80.7384 230.381 80.8351 230.099 80.8537C229.817 80.8723 229.535 80.8122 229.285 80.6799L227.56 79.7534L224.53 85.4013L226.256 86.3278C226.504 86.4614 226.71 86.6613 226.851 86.9053C226.992 87.1492 227.063 87.4276 227.055 87.7093C227.035 88.0271 227.035 88.3457 227.055 88.6635C227.082 88.9441 227.031 89.2266 226.906 89.4795C226.782 89.7324 226.589 89.9455 226.35 90.0949L224.686 91.1324L228.064 96.5695L229.751 95.532ZM231.36 85.4235C231.85 84.51 232.6 83.7622 233.515 83.2748C234.43 82.7874 235.469 82.5821 236.5 82.685C237.532 82.7878 238.51 83.1942 239.31 83.8527C240.111 84.5112 240.698 85.3923 240.998 86.3846C241.298 87.377 241.298 88.4359 240.996 89.4277C240.694 90.4196 240.105 91.2997 239.303 91.9568C238.502 92.614 237.523 93.0187 236.491 93.1198C235.46 93.2209 234.421 93.0139 233.507 92.525C232.281 91.8675 231.366 90.7502 230.964 89.4186C230.561 88.087 230.704 86.6501 231.36 85.4235Z" fill="#EBEBEB"/>
<path d="M43.837 34.6314C43.837 38.0868 44.8617 41.4646 46.7814 44.3376C48.7011 47.2106 51.4296 49.4499 54.622 50.7722C57.8143 52.0945 61.3271 52.4405 64.7161 51.7664C68.1051 51.0923 71.2181 49.4284 73.6614 46.9851C76.1047 44.5417 77.7686 41.4287 78.4427 38.0398C79.1168 34.6508 78.7709 31.138 77.4486 27.9457C76.1262 24.7533 73.887 22.0248 71.0139 20.105C68.1409 18.1853 64.7631 17.1607 61.3077 17.1607C56.6742 17.1607 52.2305 19.0014 48.9541 22.2778C45.6777 25.5541 43.837 29.9979 43.837 34.6314ZM53.1466 34.6314C53.1455 33.017 53.6232 31.4386 54.5193 30.0958C55.4154 28.753 56.6896 27.7061 58.1808 27.0875C59.6719 26.469 61.313 26.3066 62.8965 26.6209C64.48 26.9351 65.9346 27.712 67.0766 28.8531C68.2185 29.9942 68.9963 31.4484 69.3116 33.0317C69.627 34.6149 69.4657 36.2561 68.8482 37.7477C68.2306 39.2393 67.1846 40.5142 65.8424 41.4112C64.5002 42.3082 62.9221 42.787 61.3077 42.787C59.1442 42.787 57.0693 41.9279 55.5389 40.3986C54.0086 38.8693 53.1481 36.7949 53.1466 34.6314Z" fill="#EBEBEB"/>
<path d="M57.9456 17.8709H64.6643L64.2981 13.1162H58.3173L57.9456 17.8709Z" fill="#EBEBEB"/>
<path d="M70.7393 20.1345L75.4884 24.8891L78.5898 21.2607L74.3622 17.0331L70.7393 20.1345Z" fill="#EBEBEB"/>
<path d="M78.1792 30.7811V37.4998L82.9339 37.1281V31.1528L78.1792 30.7811Z" fill="#EBEBEB"/>
<path d="M75.9156 43.5693L71.1665 48.3184L74.7894 51.4197L79.0169 47.1977L75.9156 43.5693Z" fill="#EBEBEB"/>
<path d="M65.2745 51.0147H58.5504L58.9221 55.7694H64.8973L65.2745 51.0147Z" fill="#EBEBEB"/>
<path d="M52.4808 48.7456L47.7317 43.9965L44.6304 47.6249L48.858 51.8469L52.4808 48.7456Z" fill="#EBEBEB"/>
<path d="M45.0409 38.1044V31.3858L40.2807 31.7575V37.7327L45.0409 38.1044Z" fill="#EBEBEB"/>
<path d="M47.3045 25.3163L52.0536 20.5617L48.4308 17.4603L44.2032 21.6879L47.3045 25.3163Z" fill="#EBEBEB"/>
<path d="M77.5763 190.411H75.1891V234.531H67.177V190.411H64.7928L71.1845 183.397L77.5763 190.411Z" fill="#EBEBEB"/>
</g>
<g opacity="0.1">
<path opacity="0.1" d="M144.194 239.929C214.382 239.929 271.281 236.607 271.281 232.509C271.281 228.411 214.382 225.089 144.194 225.089C74.0055 225.089 17.1068 228.411 17.1068 232.509C17.1068 236.607 74.0055 239.929 144.194 239.929Z" fill="#F5F5F5"/>
</g>
<path d="M130.612 165.601C111.898 139.894 99.071 109.638 98.1861 100.488L129.55 108.084C129.55 108.084 139.88 139.789 145.425 157.991C151.2 176.914 126.332 227.935 126.332 227.935L118.735 227.148C126.155 198.492 122.851 177.773 130.612 165.601Z" fill="#CE7A63"/>
<path d="M118.886 224.599C120.098 219.486 123.146 201.579 124.529 190.325C134.597 189.368 140.916 191.668 140.916 191.668C140.916 193.333 132.624 216.655 127.446 230.485L118.886 224.599Z" fill="#FA4429"/>
<path d="M124.529 190.325C124.385 191.511 124.221 192.77 124.037 194.087C129.356 193.844 134.684 194.262 139.9 195.332C140.333 194.14 140.67 192.915 140.909 191.668C140.909 191.668 134.597 189.368 124.529 190.325Z" fill="#263238"/>
<path d="M127.905 105.692C127.905 105.692 130.31 107.357 130.526 108.563C132.565 110.477 137.12 122.983 137.691 128.803C138.261 134.624 142.154 137.108 140.922 143.532C137.232 141.283 120.354 150.191 120.354 150.191C115.621 147.32 114.861 140.818 111.833 136.531C108.614 131.982 105.16 122.767 103.528 117.379C101.804 111.709 101.05 107.776 101.05 107.776L127.905 105.692Z" fill="#263238"/>
<path opacity="0.2" d="M112.252 115.701C110.096 111.951 104.662 111.375 102.571 114.075C102.846 115.089 103.165 116.181 103.528 117.352C105.167 122.721 108.614 131.963 111.833 136.518C112.016 136.774 112.193 137.042 112.364 137.318C115.353 131.301 115.805 121.888 112.252 115.701Z" fill="black"/>
<path d="M141.715 233.46C135.39 231.265 131.641 229.724 130.009 225.955C130.009 225.955 131.68 226.25 130.441 224.153C129.202 222.055 125.552 220.666 124.542 223.556C124.542 223.556 120.308 221.59 118.145 223.393L115.523 232.15C115.482 232.319 115.476 232.494 115.504 232.666C115.531 232.838 115.593 233.002 115.685 233.15C115.778 233.298 115.898 233.426 116.04 233.526C116.182 233.627 116.343 233.698 116.513 233.736C120.413 234.49 122.759 234.286 126.535 234.961C130.959 235.748 133.955 236.757 139.218 236.928C142.41 237.007 143.026 233.919 141.715 233.46Z" fill="#263238"/>
<path d="M125.224 235.853L123.906 235.597L123.303 233.624L126.522 234.254L125.224 235.853Z" fill="#263238"/>
<path d="M128.658 236.417L127.347 236.161L126.738 234.188L129.963 234.817L128.658 236.417Z" fill="#263238"/>
<path d="M132.571 237.144L131.241 237.039L130.415 235.145L133.692 235.407L132.571 237.144Z" fill="#263238"/>
<path d="M136.288 237.544L134.951 237.485L134.059 235.623L137.343 235.768L136.288 237.544Z" fill="#263238"/>
<path d="M139.965 237.708L138.628 237.649L137.743 235.787L141.02 235.932L139.965 237.708Z" fill="#263238"/>
<path d="M117.915 234.844L116.598 234.588L115.988 232.615L119.213 233.244L117.915 234.844Z" fill="#263238"/>
<path d="M121.547 235.447L120.236 235.191L119.626 233.211L122.851 233.841L121.547 235.447Z" fill="#263238"/>
<path d="M144.966 55.6344C146.277 56.3948 147.588 57.2141 148.899 58.04C150.21 58.8659 151.488 59.6983 152.753 60.5635L154.66 61.8744L156.542 63.1853L160.179 65.7089L157.348 65.0141C158.875 65.0141 160.415 65.1124 161.969 65.0141C163.522 64.9157 165.089 64.8699 166.662 64.6994C168.235 64.529 169.808 64.3193 171.394 64.044C172.181 63.9063 172.974 63.7621 173.761 63.6048L176.015 63.1263L176.454 63.0346C177.14 62.8909 177.854 62.9875 178.476 63.3082C179.099 63.6289 179.592 64.1541 179.872 64.7956C180.153 65.437 180.204 66.1556 180.018 66.8304C179.831 67.5053 179.417 68.0952 178.847 68.5011L178.191 68.9599L177.595 69.3729C177.189 69.6416 176.795 69.8841 176.389 70.1332C175.576 70.6117 174.757 71.0705 173.918 71.4834C172.239 72.3258 170.507 73.0571 168.733 73.6727C166.949 74.2892 165.127 74.7927 163.28 75.1802C161.413 75.579 159.524 75.8658 157.623 76.0389C156.872 76.1066 156.116 75.9732 155.434 75.6522L154.778 75.3375C153.212 74.5903 151.835 73.9021 150.439 73.1418C149.043 72.3814 147.686 71.6604 146.336 70.887C144.986 70.1135 143.649 69.3204 142.318 68.5142C140.988 67.708 139.696 66.8756 138.385 65.9907C137.088 65.0914 136.187 63.7266 135.87 62.1801C135.553 60.6336 135.844 59.0244 136.683 57.6872C137.523 56.35 138.845 55.3877 140.375 55.0005C141.906 54.6133 143.527 54.831 144.901 55.6082L144.966 55.6344Z" fill="#CE7A63"/>
<path d="M138.805 49.8402C144.658 51.8852 152.124 59.1412 154.372 60.7143C157.361 62.7986 156.784 68.0095 155.224 70.2643C154.005 72.034 151.842 73.9218 148.774 73.2204C145.707 72.5191 141.171 69.9431 141.171 69.9431C141.171 69.9431 131.674 46.9627 138.805 49.8402Z" fill="#FA4429"/>
<path opacity="0.2" d="M138.805 49.8402C144.658 51.8852 152.124 59.1412 154.372 60.7143C157.361 62.7986 156.784 68.0095 155.224 70.2643C154.005 72.034 151.842 73.9218 148.774 73.2204C145.707 72.5191 141.171 69.9431 141.171 69.9431C141.171 69.9431 131.674 46.9627 138.805 49.8402Z" fill="black"/>
<path d="M174.475 63.7753L180.597 61.2386L181.488 69.1042C181.488 69.1042 175.661 70.7494 174.278 67.7932L174.475 63.7753Z" fill="#CE7A63"/>
<path d="M187.001 63.7818L186.844 66.6069C186.814 67.1522 186.591 67.6693 186.215 68.0656C185.84 68.4619 185.335 68.7115 184.792 68.7699L181.515 69.1304L180.597 61.2386L184.772 61.3763C185.077 61.3855 185.377 61.4554 185.655 61.5817C185.933 61.7081 186.183 61.8885 186.39 62.1123C186.598 62.3362 186.758 62.5991 186.863 62.8857C186.968 63.1724 187.015 63.477 187.001 63.7818Z" fill="#CE7A63"/>
<path d="M60.0646 130.003C56.6038 126.031 52.9857 127.256 51.3601 129.262C48.8563 132.336 48.5023 133.654 46.5032 136.931C44.1632 140.766 41.1809 142.214 41.1546 147.484C41.1546 149.699 44.4319 153.036 46.8112 150.053C49.165 147.118 52.0404 144.643 55.2929 142.752C57.7246 142.588 61.0937 141.821 58.9766 139.605C58.9766 139.605 62.3587 132.684 60.0646 130.003Z" fill="#263238"/>
<path d="M51.2028 128.784L52.2319 127.925L54.1458 128.698L51.6223 130.802L51.2028 128.784Z" fill="#263238"/>
<path d="M49.1906 131.556L49.9837 130.475L52.0287 130.763L50.0885 133.418L49.1906 131.556Z" fill="#263238"/>
<path d="M47.4012 134.342L48.1025 133.201L50.1606 133.313L48.4564 136.125L47.4012 134.342Z" fill="#263238"/>
<path d="M45.6839 137.37L46.3787 136.23L48.4368 136.341L46.7326 139.153L45.6839 137.37Z" fill="#263238"/>
<path d="M43.9207 139.625L44.8121 138.629L46.8178 139.114L44.6351 141.565L43.9207 139.625Z" fill="#263238"/>
<path d="M42.2099 141.978L43.0948 140.975L45.1071 141.454L42.9244 143.912L42.2099 141.978Z" fill="#263238"/>
<path d="M41.0367 145.196L41.4955 143.938L43.5405 143.65L42.4197 146.73L41.0367 145.196Z" fill="#263238"/>
<path d="M72.951 145.714C85.2998 128.115 83.6939 108.084 95.6757 100.488L123.146 104.774C123.146 104.774 98.7039 149.634 78.4109 167.371C63.5124 180.395 51.8255 135.961 51.8255 135.961C51.4322 131.504 53.2741 130.009 56.6169 130.501C56.6169 130.508 67.668 135.961 72.951 145.714Z" fill="#CE7A63"/>
<path d="M56.6169 130.508C53.2741 130.016 51.4322 131.51 51.8255 135.968C53.2993 141.321 55.1187 146.574 57.2724 151.692C55.8173 145.059 62.4243 137.514 67.432 138.478C64.2401 135.302 60.5955 132.616 56.6169 130.508Z" fill="#FA4429"/>
<path d="M64.1481 135.496C60.1171 136.092 55.7779 140.857 55.0373 145.983C55.6927 147.785 56.4399 149.713 57.2658 151.659C55.8173 145.033 62.4243 137.482 67.432 138.445C66.3888 137.406 65.2927 136.422 64.1481 135.496Z" fill="#263238"/>
<path d="M94.6925 100.488C94.6925 100.488 92.1362 101.91 91.7954 103.109C89.5799 104.82 83.8119 116.822 82.6714 122.55C81.5309 128.279 77.5654 130.147 78.1553 136.669C86.7615 136.361 97.1243 145.917 97.1243 145.917C102.112 143.525 104.157 136.702 107.651 132.808C111.145 128.915 116.31 120.794 119.416 115.766C121.312 112.657 122.614 109.224 123.257 105.639L94.6925 100.488Z" fill="#263238"/>
<path d="M97.2488 100.612C96.0411 102.155 95.0652 103.867 94.3517 105.692C92.3067 107.101 86.3354 120.649 85.2277 125.251C84.12 129.852 79.9119 132.749 80.338 136.761C80.7771 137.318 82.5993 137.777 84.2707 137.777C83.8447 133.772 87.9479 130.724 89.0556 126.123C90.1633 121.521 96.128 107.973 98.1796 106.557C98.9039 104.739 99.8791 103.031 101.077 101.484L97.2488 100.612Z" fill="white"/>
<path d="M103.469 53.183C101.129 75.2917 94.4107 96.699 93.5782 101.195C124.614 103.752 128.134 113.754 132.65 110.759C138.818 93.7166 145.025 77.5268 147.673 65.2763C148.325 62.2552 147.899 59.1013 146.47 56.3611C145.04 53.6209 142.698 51.4671 139.847 50.2728C132.5 47.2608 124.902 44.8987 117.142 43.2135C115.581 42.8834 113.967 42.8854 112.407 43.2194C110.847 43.5533 109.374 44.2118 108.084 45.152C106.795 46.0921 105.718 47.293 104.923 48.6766C104.127 50.0602 103.632 51.5956 103.469 53.183Z" fill="#FA4429"/>
<path d="M137.271 49.2371C131.231 46.9078 125.035 45.0045 118.728 43.5412C118.592 43.8222 118.532 44.1336 118.553 44.4449C118.573 44.7563 118.674 45.057 118.846 45.3175C120.347 47.9393 125.545 50.299 130.861 51.5444C131.975 51.8337 133.118 52.0007 134.269 52.0425C135.58 52.0425 136.478 51.6296 136.97 50.8233C137.247 50.3442 137.354 49.7848 137.271 49.2371Z" fill="white"/>
<path d="M123.572 32.5885L133.45 34.6794C134.105 39.7133 133.45 42.8071 134.577 46.8644C135.796 49.2044 137.527 51.5444 131.215 50.0696C124.66 48.5424 120.622 45.9795 120.321 44.9242C124.228 43.338 123.572 37.452 123.572 32.5885Z" fill="#CE7A63"/>
<path opacity="0.2" d="M123.434 39.8051C123.328 40.9157 123.007 41.9952 122.491 42.9841C127.511 44.7538 130.723 42.7284 132.611 39.851C129.567 39.4315 126.482 39.4161 123.434 39.8051Z" fill="black"/>
<path d="M119.207 18.896C115.857 20.9869 117.896 24.7951 114.618 27.0433C115.9 27.3052 117.233 27.0908 118.368 26.4403C118.368 26.4403 117.306 29.4161 115.982 30.3337C119.475 30.9171 123.31 29.2522 123.611 27.6529C123.913 26.0536 123.087 16.4642 119.207 18.896Z" fill="#263238"/>
<path d="M135.882 25.7193C136.078 32.2215 136.537 36.0166 133.561 39.6085C129.098 45.0095 120.826 42.7154 118.682 36.3902C116.755 30.6942 116.755 21.0197 122.858 17.9193C124.21 17.2328 125.714 16.9004 127.23 16.9533C128.746 17.0062 130.223 17.4427 131.524 18.2219C132.825 19.0011 133.907 20.0976 134.669 21.4088C135.432 22.72 135.849 24.2031 135.882 25.7193Z" fill="#CE7A63"/>
<path d="M134.649 31.5856C131.516 30.1174 131.13 25.3981 133.017 23.4317C131.097 20.6854 119.62 22.3699 114.474 16.923C117.352 16.6543 120.419 17.1983 123.041 16.3331C125.663 15.4679 128.626 14.2487 133.017 15.0222C138.051 15.9136 139.506 18.7976 138.648 20.5543C142.482 21.1311 141.204 31.1399 134.649 31.5856Z" fill="#263238"/>
<path d="M121.704 37.2685C121.704 37.2685 123.67 36.4426 129.57 35.2366C129.255 36.849 128.259 38.3172 125.27 38.9071C122.281 39.4971 121.704 37.2685 121.704 37.2685Z" fill="#263238"/>
<path d="M126.495 37.2619C125.585 37.4257 124.689 37.6602 123.815 37.9633C123.64 38.0333 123.493 38.1565 123.393 38.3154C123.293 38.4743 123.245 38.6608 123.257 38.8481C123.897 39.0388 124.574 39.0591 125.224 38.9071C126.362 38.7445 127.432 38.2653 128.311 37.5241C128.16 37.1964 127.334 37.0981 126.495 37.2619Z" fill="white"/>
<path d="M121.96 37.1702C122.202 37.452 122.615 38.3107 123.271 38.291C125.001 37.9326 126.705 37.4551 128.37 36.8621C128.888 36.6786 129.124 35.8527 129.32 35.289C126.829 35.7564 124.37 36.3847 121.96 37.1702Z" fill="white"/>
<path d="M139.047 31.0875C138.914 31.8849 138.623 32.6477 138.192 33.3318C137.761 34.0159 137.198 34.6076 136.537 35.0727C134.754 36.3115 133.142 34.8957 133.03 32.8507C132.925 31.0089 133.725 28.1445 135.809 27.725C137.894 27.3055 139.356 29.1211 139.047 31.0875Z" fill="#CE7A63"/>
<path d="M126.273 29.3374C126.325 29.8683 126.082 30.314 125.735 30.3468C125.388 30.3796 125.08 29.9666 125.027 29.4423C124.975 28.9179 125.217 28.4656 125.538 28.4656C125.86 28.4656 126.227 28.813 126.273 29.3374Z" fill="#263238"/>
<path d="M120.039 30.2813C120.092 30.8122 119.849 31.2579 119.502 31.2907C119.154 31.3235 118.846 30.9171 118.794 30.3862C118.741 29.8552 118.984 29.4095 119.331 29.3833C119.679 29.3571 119.993 29.7766 120.039 30.2813Z" fill="#263238"/>
<path d="M122.209 30.6221C122.209 30.6221 121.291 33.7552 120.105 35.3349C121.114 36.128 122.668 35.5971 122.668 35.5971L122.209 30.6221Z" fill="#630F0F"/>
<path d="M126.567 25.2211C126.584 25.1699 126.584 25.115 126.567 25.0638C126.56 25.0236 126.544 24.9854 126.521 24.9513C126.498 24.9172 126.469 24.8881 126.435 24.8655C126.401 24.8429 126.362 24.8274 126.322 24.8198C126.282 24.8122 126.24 24.8127 126.2 24.8213C125.713 24.9068 125.253 25.1072 124.859 25.4058C124.464 25.7044 124.147 26.0928 123.933 26.5386C123.902 26.6152 123.903 26.7006 123.935 26.7766C123.967 26.8526 124.027 26.9131 124.103 26.945C124.18 26.9734 124.266 26.9708 124.342 26.9379C124.417 26.9049 124.477 26.8441 124.509 26.768C124.689 26.4244 124.946 26.1271 125.26 25.8996C125.573 25.6721 125.936 25.5206 126.318 25.4571C126.379 25.4478 126.435 25.4202 126.48 25.378C126.524 25.3358 126.555 25.2811 126.567 25.2211Z" fill="#263238"/>
<path d="M116.972 26.4075C117.01 26.4407 117.055 26.464 117.104 26.4754C117.153 26.4869 117.205 26.486 117.253 26.4731C117.627 26.3602 118.022 26.3389 118.405 26.4107C118.788 26.4826 119.149 26.6456 119.456 26.886C119.515 26.9432 119.593 26.9753 119.675 26.9753C119.757 26.9753 119.836 26.9432 119.895 26.886C119.952 26.8272 119.984 26.7484 119.984 26.6664C119.984 26.5844 119.952 26.5056 119.895 26.4468C119.511 26.1385 119.059 25.9274 118.576 25.8315C118.093 25.7356 117.595 25.7579 117.122 25.8963C117.083 25.9069 117.046 25.9251 117.014 25.95C116.982 25.9749 116.955 26.0059 116.935 26.0413C116.915 26.0766 116.902 26.1156 116.897 26.156C116.892 26.1963 116.895 26.2373 116.906 26.2764C116.916 26.3252 116.938 26.3705 116.972 26.4075Z" fill="#263238"/>
<path d="M90.2419 53.8057C85.3981 56.4276 92.4771 67.4983 98.2975 65.7023C102.283 62.9297 103.948 53.3731 90.2419 53.8057Z" fill="#263238"/>
<path d="M112.757 56.6504L111.204 57.6598L109.676 58.6168C108.654 59.2286 107.625 59.825 106.589 60.4062C104.498 61.5533 102.381 62.6413 100.205 63.6835C98.0288 64.7257 95.7937 65.6499 93.4996 66.5085C92.9096 66.7183 92.3656 66.928 91.7429 67.1312L89.8814 67.7408L87.9151 68.2652C87.2596 68.4159 86.6893 68.5339 86.0667 68.6584C81.3877 69.5186 76.6626 70.1051 71.9153 70.4151C67.255 70.7559 62.6274 70.9329 57.9344 70.8411C57.1948 70.8267 56.4854 70.545 55.9375 70.0481C55.3895 69.5512 55.0401 68.8726 54.9537 68.138C54.8674 67.4033 55.05 66.6622 55.4678 66.0518C55.8856 65.4414 56.5104 65.0029 57.2265 64.8174H57.2658C61.6836 63.677 66.1538 62.6348 70.5585 61.586C72.7608 61.042 74.9566 60.5439 77.1131 59.9736C79.2695 59.4034 81.4194 58.8659 83.4514 58.2366L84.9327 57.7647L86.2436 57.3059L87.5546 56.6504C88.0003 56.4472 88.505 56.1851 88.9703 55.9556C90.8974 55.0249 92.8048 53.9893 94.7253 52.9405C96.6458 51.8918 98.5531 50.7906 100.454 49.6632L106.097 46.3532L106.268 46.2548C107.645 45.4329 109.29 45.1838 110.849 45.561C112.409 45.9382 113.758 46.9117 114.607 48.2725C115.457 49.6333 115.739 51.2728 115.393 52.8392C115.047 54.4056 114.1 55.7739 112.757 56.6504Z" fill="#CE7A63"/>
<path d="M60.7856 65.0271L53.9623 64.0243L55.1028 72.211C55.1028 72.211 61.3886 72.3683 62.0113 69.0451L60.7856 65.0271Z" fill="#CE7A63"/>
<path d="M48.1943 68.252L49.0726 71.0574C49.245 71.597 49.6028 72.0583 50.0827 72.3594C50.5625 72.6605 51.1335 72.7821 51.6944 72.7026L55.1094 72.211L53.9689 64.0243L49.8001 65.2434C49.4947 65.3318 49.2102 65.4804 48.9632 65.6805C48.7162 65.8807 48.5118 66.1283 48.3621 66.4087C48.2124 66.6892 48.1204 66.9968 48.0916 67.3134C48.0628 67.63 48.0977 67.9491 48.1943 68.252Z" fill="#CE7A63"/>
<path d="M116.146 43.0497C111.728 42.0861 106.969 43.6396 104.885 44.7276C102.801 45.8157 96.187 51.0594 90.2419 53.8057C100.598 56.362 99.0644 63.6376 98.2975 65.7023C111.118 62.117 112.56 58.8003 115.051 56.1523C117.542 53.5042 119.639 43.8034 116.146 43.0497Z" fill="#FA4429"/>
<path opacity="0.2" d="M116.146 43.0497C111.728 42.0861 106.969 43.6396 104.885 44.7276C102.801 45.8157 96.187 51.0594 90.2419 53.8057C100.598 56.362 99.0644 63.6376 98.2975 65.7023C111.118 62.117 112.56 58.8003 115.051 56.1523C117.542 53.5042 119.639 43.8034 116.146 43.0497Z" fill="black"/>
<path d="M144.003 69.5433C143.682 71.9947 142.036 73.7972 140.253 73.5678C138.471 73.3384 137.343 71.1623 137.664 68.7108C137.986 66.2594 139.664 64.4569 141.42 64.6929C143.177 64.9288 144.324 67.0919 144.003 69.5433Z" fill="white"/>
<path d="M127.924 21.6424C121.704 21.5768 117.988 23.2089 114.986 22.5993C118.545 20.8755 119.705 18.8501 122.491 18.4699C125.276 18.0898 127.924 21.6424 127.924 21.6424Z" fill="#263238"/>
<path d="M134.197 21.3605C132.231 22.5337 127.459 22.0159 125.184 22.7304C128.599 23.3203 132.788 24.3887 134.669 23.4252C136.55 22.4616 134.197 21.3605 134.197 21.3605Z" fill="#263238"/>
<path d="M135.213 22.088C136.003 21.9309 136.767 21.6616 137.481 21.2884C138.106 20.9013 138.562 20.2928 138.759 19.5842C138.859 19.2252 138.888 18.8499 138.843 18.4798C138.798 18.1098 138.68 17.7522 138.497 17.4277C138.09 16.7327 137.504 16.1599 136.799 15.7694C135.291 14.9599 133.566 14.6479 131.87 14.878C130.992 15.0585 130.087 15.0585 129.209 14.878C128.364 14.5942 127.583 14.149 126.908 13.5671C127.61 14.0936 128.407 14.4787 129.255 14.701C130.117 14.8074 130.992 14.7338 131.824 14.4847C133.621 14.1119 135.49 14.3208 137.16 15.0812C138.027 15.4971 138.767 16.1376 139.303 16.9361C139.869 17.7931 140.072 18.8399 139.867 19.8464C139.656 20.8703 139.072 21.7792 138.228 22.3961C137.417 22.9134 136.533 23.3066 135.606 23.5628C135.413 23.628 135.202 23.6139 135.02 23.5235C134.837 23.4332 134.698 23.274 134.633 23.0811C134.568 22.8881 134.582 22.6772 134.672 22.4946C134.763 22.3121 134.922 22.1729 135.115 22.1077H135.174L135.213 22.088Z" fill="#263238"/>
<path d="M124.49 21.059C124.272 20.6231 123.958 20.2422 123.572 19.9447C123.13 19.6574 122.632 19.4675 122.11 19.3875C120.956 19.2484 119.785 19.3785 118.689 19.7677C118.111 19.9441 117.552 20.1746 117.017 20.4559C116.5 20.7443 115.962 21.1114 115.385 21.3539C114.81 21.6328 114.182 21.7869 113.544 21.8062C112.92 21.8032 112.3 21.7262 111.695 21.5768C112.303 21.6651 112.919 21.6784 113.53 21.6161C114.127 21.5385 114.699 21.3328 115.208 21.0131C115.733 20.7116 116.192 20.3576 116.716 19.9644C117.244 19.6057 117.803 19.2963 118.387 19.0402C119.582 18.4792 120.89 18.2032 122.209 18.2339C122.921 18.2645 123.617 18.4525 124.247 18.7845C124.889 19.1579 125.435 19.6764 125.84 20.2986C125.896 20.3847 125.934 20.481 125.953 20.5819C125.972 20.6828 125.971 20.7865 125.949 20.8869C125.928 20.9873 125.887 21.0826 125.829 21.1672C125.771 21.2518 125.697 21.3242 125.611 21.3801C125.524 21.4361 125.428 21.4745 125.327 21.4933C125.226 21.512 125.123 21.5107 125.022 21.4894C124.922 21.4681 124.827 21.4272 124.742 21.3691C124.657 21.311 124.585 21.2368 124.529 21.1507C124.525 21.129 124.525 21.1069 124.529 21.0852L124.49 21.059Z" fill="#263238"/>
<path d="M117.542 14.7797C117.542 14.7797 119.685 16.982 123.919 17.1393L125.794 15.4482C122.11 16.5166 117.542 14.7797 117.542 14.7797Z" fill="#263238"/>
<path d="M194.807 186.523C205.95 169.239 213.868 150.879 214.95 145.033L194.316 148.159C194.316 148.159 187.886 170.196 184.969 182.151C181.934 194.605 190.744 226.722 190.744 226.722L195.673 227.07C194.067 207.976 200.261 194.1 194.807 186.523Z" fill="#CE7A63"/>
<path d="M196.328 228.381C196.112 224.992 195.889 210.474 197.115 203.237C193.313 201.771 189.166 201.452 185.185 202.32C185.002 203.381 187.964 218.85 189.773 228.23L196.328 228.381Z" fill="#263238"/>
<path d="M180.184 230.124C184.333 228.892 186.739 228.315 188.233 226.126C188.233 226.126 187.138 226.126 188.187 224.926C189.236 223.727 192.992 223.026 193.28 224.985C193.28 224.985 195.6 224.219 196.754 225.641L197.324 231.54C197.332 231.652 197.317 231.765 197.28 231.872C197.242 231.978 197.183 232.075 197.106 232.158C197.029 232.24 196.936 232.306 196.833 232.351C196.729 232.396 196.618 232.419 196.505 232.418C193.936 232.418 192.474 231.999 189.99 231.96C187.086 231.914 185.1 232.517 181.692 232.464C179.633 232.399 179.319 230.386 180.184 230.124Z" fill="#FA4429"/>
<path d="M195.482 232.923H196.348L196.977 231.743H194.853L195.482 232.923Z" fill="#FA4429"/>
<path d="M193.103 232.851H193.968L194.598 231.671H192.474L193.103 232.851Z" fill="#FA4429"/>
<path d="M190.717 232.661H191.582L192.212 231.481H190.088L190.717 232.661Z" fill="#FA4429"/>
<path d="M188.338 232.851H189.203L189.832 231.671H187.709L188.338 232.851Z" fill="#FA4429"/>
<path d="M185.952 232.923H186.817L187.447 231.743H185.323L185.952 232.923Z" fill="#FA4429"/>
<path d="M183.573 232.923H184.438L185.067 231.743H182.944L183.573 232.923Z" fill="#FA4429"/>
<path d="M181.187 232.923H182.052L182.681 231.743H180.558L181.187 232.923Z" fill="#FA4429"/>
<path d="M224.624 185.573C219.531 167.541 219.512 154.353 216.352 148.683L200.765 150.65C200.765 150.65 208.585 175.603 212.695 187.205C219.007 200.792 233.066 218.103 233.066 218.103L237.504 215.219C230.281 201.808 229.881 194.592 224.624 185.573Z" fill="#CE7A63"/>
<path d="M239.923 218.129C238.336 215.317 232.149 203.008 230.209 196.322C226.369 196.64 222.705 198.073 219.669 200.445C219.951 201.428 228.845 213.417 234.279 220.686L239.923 218.129Z" fill="#263238"/>
<path d="M228.78 226.637C230.163 224.736 231.729 222.049 232.103 219.525C232.103 219.525 230.346 219.139 230.753 217.703C231.159 216.268 234.889 214.911 235.944 216.464C235.944 216.464 237.143 213.718 238.71 214.446L241.456 218.955C241.915 219.611 242.112 220.817 240.689 221.669C239.433 222.384 238.28 223.266 237.261 224.291C235.347 226.257 235.636 227.824 232.273 228.741C230.412 229.285 226.905 229.213 228.78 226.637Z" fill="#FA4429"/>
<path d="M241.24 221.688L241.784 221.066L241.332 219.879L240.008 221.4L241.24 221.688Z" fill="#FA4429"/>
<path d="M239.398 222.836L240.132 222.475L240.178 221.21L238.369 222.095L239.398 222.836Z" fill="#FA4429"/>
<path d="M237.891 224.146L238.566 223.681L238.415 222.416L236.763 223.57L237.891 224.146Z" fill="#FA4429"/>
<path d="M236.645 225.792L237.117 225.123L236.553 223.989L235.387 225.634L236.645 225.792Z" fill="#FA4429"/>
<path d="M235.288 227.384L235.839 226.768L235.4 225.582L234.056 227.083L235.288 227.384Z" fill="#FA4429"/>
<path d="M233.545 228.617L234.292 228.282L234.384 227.017L232.542 227.837L233.545 228.617Z" fill="#FA4429"/>
<path d="M231.644 229.213L232.444 229.036L232.785 227.817L230.818 228.256L231.644 229.213Z" fill="#FA4429"/>
<path d="M229.481 229.292L230.3 229.311L230.923 228.21L228.911 228.158L229.481 229.292Z" fill="#FA4429"/>
<path d="M195.515 146.717C195.515 146.717 193.87 147.654 193.66 148.415C192.238 149.536 189.072 159.249 188.889 163.025C188.705 166.8 186.313 168.55 187.342 172.654C191.15 175.603 200.405 177.314 200.405 177.314C203.355 175.288 204.764 170.491 206.566 167.607C208.48 164.552 209.673 157.919 210.532 154.392C211.436 150.676 212.695 149.581 212.695 149.581L195.515 146.717Z" fill="#FA4429"/>
<path opacity="0.2" d="M207.844 158.247C201.893 162.835 201.034 170.851 202.542 175.118C204.161 172.798 205.262 169.717 206.566 167.633C207.936 165.437 208.939 161.406 209.712 157.997L207.844 158.247Z" fill="black"/>
<path d="M192.952 120.885C192.12 121.462 191.268 121.993 190.416 122.517C189.564 123.042 188.698 123.56 187.794 124.051C186.889 124.543 186.031 125.041 185.133 125.513C184.235 125.985 183.343 126.45 182.334 126.935L181.947 127.119C181.877 127.15 181.805 127.176 181.731 127.197C179.006 127.909 176.203 128.277 173.387 128.292C172.017 128.292 170.667 128.259 169.317 128.148C167.956 128.036 166.604 127.846 165.266 127.578C164.744 127.567 164.248 127.35 163.887 126.974C163.525 126.598 163.328 126.093 163.339 125.572C163.349 125.05 163.566 124.554 163.942 124.193C164.319 123.832 164.823 123.634 165.344 123.645H165.456C166.636 123.455 167.907 123.265 169.12 123.048C170.332 122.832 171.558 122.609 172.751 122.347C173.944 122.085 175.104 121.79 176.238 121.482C177.372 121.174 178.454 120.774 179.483 120.381L178.88 120.643L181.233 119.011C182.037 118.447 182.854 117.89 183.684 117.339C184.503 116.782 185.342 116.245 186.175 115.707C187.007 115.17 187.859 114.645 188.718 114.154C189.611 113.592 190.69 113.408 191.718 113.643C192.746 113.877 193.64 114.51 194.201 115.402C194.763 116.295 194.946 117.374 194.712 118.403C194.478 119.431 193.845 120.324 192.952 120.885Z" fill="#CF7A64"/>
<path d="M192.697 110.398C188.915 111.709 184.084 116.409 182.629 117.431C180.702 118.781 181.075 122.15 182.078 123.606C182.871 124.753 184.268 125.972 186.254 125.52C188.24 125.067 196.439 120.63 196.439 120.63C196.439 120.63 197.311 108.556 192.697 110.398Z" fill="#FA4429"/>
<path d="M166.695 123.724L162.408 123.533L163.634 128.535C163.634 128.535 167.534 128.233 167.711 126.129L166.695 123.724Z" fill="#CE7A63"/>
<path d="M159.098 126.522L159.819 128.2C159.96 128.524 160.211 128.788 160.528 128.945C160.844 129.102 161.206 129.142 161.549 129.059L163.634 128.535L162.408 123.507L159.898 124.53C159.711 124.604 159.541 124.715 159.399 124.857C159.257 124.999 159.145 125.168 159.07 125.355C158.995 125.541 158.959 125.741 158.964 125.941C158.969 126.142 159.014 126.34 159.098 126.522Z" fill="#CE7A63"/>
<path d="M217.44 146.527C217.44 146.527 219.341 151.436 219.263 152.229C220.174 153.789 221.563 159.44 221.399 163.222C221.235 167.004 223.287 169.075 221.596 172.85C216.234 171.336 208.729 175.675 208.729 175.675C205.963 173.407 205.727 168.806 204.141 165.804C202.555 162.802 200.294 156.877 199.645 153.101C198.996 149.326 198.688 147.143 198.688 147.143L217.44 146.527Z" fill="#FA4429"/>
<path opacity="0.8" d="M217.702 169.632C214.104 169.711 209.837 171.513 206.96 173.407C207.388 174.276 207.988 175.05 208.723 175.682C208.723 175.682 216.241 171.33 221.596 172.85C221.978 172.025 222.2 171.136 222.251 170.228C220.784 169.756 219.242 169.554 217.702 169.632Z" fill="white"/>
<path d="M216.202 115.439C215.651 129.8 218.371 145.59 217.794 147.464C197.691 146.232 195.253 150.473 192.598 150.086C190.226 138.609 189.354 126.758 188.482 118.703C188.036 114.606 189.197 111.237 193.188 110.182C198.171 108.939 203.253 108.134 208.375 107.776C209.407 107.709 210.44 107.86 211.409 108.219C212.378 108.578 213.261 109.137 213.999 109.86C214.738 110.583 215.315 111.453 215.695 112.415C216.074 113.376 216.247 114.406 216.202 115.439Z" fill="#263238"/>
<path d="M205.314 119.784C205.504 121.829 203.466 123.861 203.466 123.861C203.466 123.861 201.126 122.583 200.936 120.545C200.746 118.506 201.716 118.185 202.902 117.975C204.089 117.765 205.124 117.746 205.314 119.784Z" fill="white"/>
<path opacity="0.2" d="M216.202 115.432C216.241 114.446 216.082 113.463 215.734 112.539C215.386 111.616 214.856 110.772 214.176 110.057C211.181 116.441 213.127 121.856 216.287 125.965C216.129 122.518 216.07 118.919 216.202 115.432Z" fill="black"/>
<path d="M194.938 109.782C199.018 108.854 203.157 108.214 207.327 107.868C207.387 108.061 207.396 108.266 207.353 108.464C207.311 108.661 207.218 108.844 207.084 108.995C205.885 110.529 202.339 111.565 198.819 111.866C198.078 111.953 197.33 111.953 196.59 111.866C196.254 111.855 195.927 111.754 195.643 111.573C195.359 111.392 195.129 111.138 194.978 110.837C194.838 110.502 194.824 110.127 194.938 109.782Z" fill="white"/>
<path d="M205.183 99.6944L197.973 102.028C198.183 105.305 199.684 107.448 196.616 109.126C195.869 109.533 194.565 111.237 198.74 110.877C203.073 110.503 205.898 109.238 206.186 108.589C205.362 105.7 205.023 102.694 205.183 99.6944Z" fill="#CE7A63"/>
<path opacity="0.2" d="M198.294 104.315C198.563 105.849 198.779 107.081 197.914 108.13C200.903 107.711 203.302 105.397 203.531 103.542C202.651 103.314 201.734 103.265 200.835 103.398C199.935 103.531 199.071 103.843 198.294 104.315Z" fill="black"/>
<path d="M193.352 88.9973C191.93 91.416 194.696 92.8317 194.696 92.8317C194.696 92.8317 192.775 98.1279 194.132 101.444C196.702 99.3273 197.298 91.6126 197.298 91.6126L193.352 88.9973Z" fill="#263238"/>
<path d="M206.16 96.2074C205.681 100.389 205.622 102.86 203.387 104.886C200.031 107.927 194.952 105.692 194.165 101.444C193.457 97.6232 194.355 91.4291 198.55 90.0133C199.479 89.6988 200.472 89.625 201.436 89.7989C202.401 89.9728 203.306 90.3886 204.067 91.0075C204.827 91.6264 205.418 92.428 205.784 93.3374C206.15 94.2469 206.279 95.2343 206.16 96.2074Z" fill="#CE7A63"/>
<path d="M204.194 95.3225C203.682 97.5773 201.69 100.324 201.69 100.324C200.052 100.077 198.397 99.9651 196.741 99.9894C194.388 100.068 193.26 99.5306 193.385 101.005C193.51 102.48 194.231 103.798 193.608 106.249C192.985 108.7 200.398 107.462 203.407 105.653C203.685 105.483 203.91 105.239 204.057 104.948C204.204 104.658 204.268 104.332 204.239 104.007C203.958 100.415 204.239 99.3208 205.032 97.9509C205.11 97.4777 205.074 96.9929 204.928 96.5361C204.782 96.0793 204.531 95.6635 204.194 95.3225Z" fill="#263238"/>
<path d="M196.806 97.3676C196.342 98.3846 195.74 99.333 195.017 100.186C195.241 100.368 195.502 100.499 195.781 100.57C196.061 100.64 196.353 100.648 196.636 100.592L196.806 97.3676Z" fill="#BA4D3C"/>
<path d="M205.183 99.6944C202.896 97.5773 204.672 95.2176 204.226 93.3955C203.781 91.5733 196.649 94.608 193.588 90.1968C190.527 85.7856 196.747 81.9708 200.995 85.6938C206.239 90.282 209.765 87.9093 209.044 92.1501C212.531 93.3955 208.192 101.608 205.183 99.6944Z" fill="#263238"/>
<path d="M208.277 92.3926C208.277 92.3926 210.329 91.3504 209.929 89.5217C211.364 91.3373 210.093 92.7531 208.277 92.3926Z" fill="#263238"/>
<path d="M207.877 99.9107C207.354 100.825 206.488 101.495 205.472 101.772C204.115 102.126 203.997 100.461 204.318 99.1504C204.606 97.9968 205.518 96.7842 206.874 96.9939C208.231 97.2037 208.506 98.7702 207.877 99.9107Z" fill="#CE7A63"/>
<path d="M199.527 96.9218C199.527 97.2626 199.31 97.5314 199.087 97.5183C198.865 97.5052 198.701 97.2168 198.714 96.8628C198.727 96.5089 198.93 96.2598 199.153 96.2729C199.376 96.286 199.54 96.581 199.527 96.9218Z" fill="#263238"/>
<path d="M195.45 96.9481C195.45 97.2889 195.233 97.5576 195.011 97.5445C194.788 97.5314 194.624 97.243 194.637 96.8891C194.65 96.5351 194.853 96.2795 195.076 96.2926C195.299 96.3057 195.463 96.6334 195.45 96.9481Z" fill="#263238"/>
<path d="M200.392 94.4507C200.399 94.4184 200.399 94.3848 200.392 94.3524C200.392 94.326 200.387 94.2999 200.376 94.2756C200.366 94.2513 200.351 94.2294 200.332 94.211C200.313 94.1927 200.291 94.1783 200.266 94.1688C200.241 94.1593 200.215 94.1549 200.189 94.1558C199.868 94.1519 199.551 94.2242 199.264 94.3666C198.977 94.509 198.728 94.7176 198.537 94.9751C198.509 95.0197 198.5 95.0733 198.511 95.1246C198.522 95.176 198.552 95.221 198.596 95.2504C198.642 95.2784 198.696 95.2879 198.749 95.2769C198.801 95.2659 198.847 95.2354 198.878 95.1914C199.027 94.9844 199.224 94.8166 199.453 94.7024C199.681 94.5883 199.933 94.5312 200.189 94.536C200.227 94.5446 200.267 94.5411 200.304 94.5258C200.34 94.5105 200.371 94.4843 200.392 94.4507Z" fill="#263238"/>
<path d="M193.759 94.667C193.788 94.6815 193.821 94.689 193.854 94.689C193.887 94.689 193.919 94.6815 193.949 94.667C194.184 94.5781 194.437 94.5471 194.687 94.5768C194.937 94.6064 195.176 94.6958 195.384 94.8374C195.426 94.8698 195.479 94.8845 195.532 94.8784C195.584 94.8723 195.633 94.8458 195.666 94.8047C195.682 94.7838 195.695 94.7598 195.702 94.7342C195.709 94.7085 195.71 94.6817 195.707 94.6553C195.703 94.629 195.694 94.6036 195.68 94.5809C195.666 94.5581 195.648 94.5383 195.627 94.5228C195.367 94.3392 195.067 94.2212 194.752 94.1789C194.437 94.1367 194.116 94.1715 193.818 94.2803C193.784 94.2937 193.755 94.3154 193.732 94.3435C193.709 94.3716 193.694 94.4051 193.688 94.4407C193.682 94.4762 193.686 94.5127 193.698 94.5467C193.71 94.5806 193.731 94.6107 193.759 94.6342V94.667Z" fill="#263238"/>
<path d="M216.68 110.909C217.991 111.84 219.112 112.758 220.278 113.741C221.445 114.724 222.573 115.707 223.674 116.763C225.978 118.892 228.084 121.226 229.966 123.737L230.137 123.966C230.527 124.498 230.739 125.141 230.74 125.801C230.719 127.495 230.568 129.185 230.287 130.855C230.051 132.454 229.717 134.001 229.37 135.535C229.022 137.069 228.609 138.583 228.164 140.084C227.718 141.585 227.246 143.053 226.682 144.541C226.541 145.014 226.227 145.416 225.802 145.668C225.377 145.92 224.874 146.004 224.391 145.901C223.908 145.799 223.481 145.518 223.195 145.116C222.909 144.713 222.785 144.218 222.848 143.728V143.695C222.933 142.194 223.051 140.667 223.162 139.16C223.274 137.652 223.379 136.151 223.471 134.657C223.562 133.162 223.634 131.681 223.68 130.239C223.727 128.866 223.697 127.492 223.589 126.123L224.362 128.187C223.503 127.243 222.527 126.306 221.537 125.362C220.547 124.418 219.479 123.514 218.424 122.596C217.368 121.679 216.267 120.787 215.146 119.889L211.869 117.267L211.823 117.228C211.41 116.912 211.063 116.517 210.802 116.067C210.542 115.616 210.372 115.119 210.304 114.603C210.235 114.087 210.269 113.563 210.403 113.06C210.537 112.558 210.769 112.086 211.086 111.673C211.402 111.26 211.797 110.913 212.247 110.652C212.697 110.392 213.195 110.222 213.71 110.154C214.226 110.085 214.751 110.119 215.253 110.253C215.756 110.387 216.227 110.619 216.641 110.936L216.68 110.909Z" fill="#CF7A64"/>
<path d="M223.91 141.919L221.373 145.59L226.446 147.274C226.446 147.274 228.341 143.676 226.591 142.365L223.91 141.919Z" fill="#CE7A63"/>
<path d="M222.166 150.152L224.047 150.44C224.409 150.496 224.778 150.422 225.09 150.231C225.402 150.04 225.637 149.745 225.752 149.398L226.446 147.274L221.373 145.59L220.881 148.356C220.847 148.558 220.853 148.765 220.899 148.965C220.945 149.166 221.03 149.355 221.149 149.522C221.269 149.689 221.42 149.83 221.595 149.938C221.769 150.047 221.963 150.119 222.166 150.152Z" fill="#CE7A63"/>
<path d="M209.562 107.809C212.465 107.477 215.389 108.221 217.781 109.9C220.521 111.925 221.871 113.321 224.08 116.946C223.367 120.022 221.547 122.728 218.968 124.549C214.543 121.01 210.814 118.349 209.588 116.35C208.362 114.35 207.287 108.058 209.562 107.809Z" fill="#FA4429"/>
<path opacity="0.8" d="M187.243 169.212C187.007 170.351 187.041 171.53 187.342 172.654C191.15 175.603 200.405 177.314 200.405 177.314C201.189 176.752 201.87 176.058 202.417 175.262C199.16 174.397 190.652 171.441 187.243 169.212Z" fill="white"/>
<path d="M231.546 200.196C228.256 201.124 225.103 202.479 222.166 204.227C222.507 204.692 222.868 205.204 223.248 205.735C226.063 204.079 229.082 202.797 232.227 201.92C231.985 201.323 231.756 200.747 231.546 200.196Z" fill="#FA4429"/>
<path d="M232.929 203.604C229.953 204.497 227.093 205.738 224.408 207.301C224.755 207.786 225.122 208.291 225.503 208.802C228.088 207.327 230.835 206.155 233.689 205.309C233.42 204.738 233.171 204.175 232.929 203.604Z" fill="#FA4429"/>
<path d="M185.651 205.938C185.742 206.495 185.847 207.111 185.959 207.767C189.489 207.532 193.035 207.81 196.485 208.592C196.531 207.937 196.584 207.334 196.636 206.731C193.033 205.93 189.331 205.663 185.651 205.938Z" fill="#FA4429"/>
<path d="M186.293 209.68C186.398 210.27 186.509 210.893 186.627 211.529C189.867 211.354 193.115 211.607 196.289 212.283C196.289 211.627 196.335 211.031 196.374 210.415C193.06 209.728 189.671 209.481 186.293 209.68Z" fill="#FA4429"/>
<path d="M80.9164 231.376C89.5415 223.316 90.8271 210.676 83.788 203.143C76.7489 195.611 64.0505 196.038 55.4255 204.098C46.8004 212.158 45.5148 224.798 52.5539 232.331C59.593 239.863 72.2914 239.436 80.9164 231.376Z" fill="white"/>
<path d="M65.4656 238.042C62.9192 238.095 60.3916 237.595 58.0571 236.577C55.7226 235.558 53.6368 234.046 51.9435 232.143C48.5744 228.289 47.1324 223.157 47.8731 217.69C49.3872 206.547 59.6714 197.43 70.8797 197.43C73.426 197.378 75.9533 197.878 78.2877 198.897C80.622 199.915 82.708 201.427 84.4018 203.329C87.7709 207.183 89.2129 212.315 88.4722 217.782L88.1445 217.736L88.4722 217.782C86.9581 228.951 76.6346 238.042 65.4656 238.042ZM70.8797 198.059C60.0253 198.059 49.9902 206.895 48.522 217.756C48.1318 220.224 48.2814 222.747 48.9603 225.151C49.6392 227.556 50.8314 229.785 52.4547 231.684C54.0872 233.516 56.0975 234.972 58.3471 235.952C60.5967 236.932 63.0321 237.413 65.4853 237.36C76.3397 237.36 86.3682 228.525 87.843 217.664C88.2327 215.196 88.0829 212.673 87.404 210.268C86.7251 207.864 85.5332 205.635 83.9102 203.735C82.2748 201.909 80.2633 200.458 78.014 199.483C75.7646 198.508 73.3308 198.031 70.8797 198.085V198.059Z" fill="#263238"/>
<path d="M69.0575 213.082C69.0495 213.142 69.0198 213.198 68.9739 213.238C68.9281 213.277 68.8692 213.299 68.8084 213.299C68.7748 213.295 68.7422 213.284 68.7127 213.267C68.6832 213.25 68.6573 213.228 68.6366 213.201C68.6158 213.174 68.6007 213.144 68.5919 213.111C68.5831 213.078 68.581 213.044 68.5856 213.01L68.6905 212.23L62.6471 216.228L63.3681 216.478C63.4004 216.487 63.4305 216.503 63.4564 216.525C63.4823 216.546 63.5035 216.573 63.5188 216.603C63.5342 216.633 63.5432 216.666 63.5455 216.7C63.5478 216.733 63.5432 216.767 63.532 216.799C63.5138 216.849 63.481 216.893 63.4378 216.924C63.3945 216.956 63.3429 216.974 63.2895 216.976H63.2043L62.2014 216.635L63.5123 223.373L64.1875 222.482C64.2322 222.432 64.2947 222.401 64.3616 222.397C64.4284 222.393 64.4943 222.415 64.545 222.459C64.5956 222.503 64.6271 222.565 64.6326 222.631C64.638 222.698 64.6171 222.764 64.5742 222.816L63.7614 223.792H70.9715L70.3946 222.816C70.3774 222.787 70.3661 222.755 70.3612 222.722C70.3563 222.689 70.358 222.655 70.3663 222.622C70.3745 222.59 70.389 222.559 70.4091 222.532C70.4291 222.505 70.4543 222.482 70.4831 222.465C70.512 222.448 70.5439 222.437 70.5771 222.432C70.6104 222.427 70.6442 222.429 70.6768 222.437C70.7094 222.445 70.74 222.46 70.7669 222.48C70.7939 222.5 70.8166 222.525 70.8338 222.554L71.332 223.393L74.4126 216.655L73.4163 216.963H73.3442C73.2892 216.963 73.2356 216.945 73.1917 216.912C73.1478 216.879 73.1162 216.832 73.1017 216.779C73.081 216.715 73.0867 216.645 73.1174 216.585C73.1481 216.524 73.2013 216.479 73.2656 216.458L74.157 216.183L69.1689 212.178L69.0575 213.082Z" fill="#263238"/>
<path d="M69.1821 212.178L74.1701 216.196L74.937 215.96L69.2869 211.404L69.1821 212.178Z" fill="#263238"/>
<path d="M71.7515 224.061L75.2254 216.517C75.2346 216.478 75.2346 216.438 75.2254 216.399L74.4061 216.654L71.3188 223.366L71.7515 224.061Z" fill="#263238"/>
<path d="M63.1977 224.448H63.2502H71.3778L70.9846 223.792H63.7745L63.1977 224.448Z" fill="#263238"/>
<path d="M61.4673 216.379C61.4673 216.379 61.4673 216.419 61.4673 216.438L62.8962 223.996L63.4533 223.34L62.1424 216.602L61.4673 216.379Z" fill="#263238"/>
<path d="M68.7822 211.352L61.8147 215.96L62.6143 216.228L68.6577 212.23L68.7822 211.352Z" fill="#263238"/>
<path d="M69.6278 205.086L69.7523 204.181C69.762 204.114 69.7979 204.054 69.8519 204.013C69.9059 203.973 69.9738 203.955 70.0407 203.965C70.0735 203.969 70.1052 203.979 70.1339 203.996C70.1627 204.012 70.1878 204.034 70.2079 204.06C70.2281 204.087 70.2428 204.117 70.2512 204.149C70.2596 204.181 70.2616 204.214 70.257 204.247L70.1521 205.033L76.6608 200.727L76.2413 198.524C74.5 198.014 72.6944 197.755 70.8797 197.758C69.0078 197.763 67.1451 198.018 65.3411 198.518L64.2989 200.786L69.6278 205.086Z" fill="#263238"/>
<path d="M64.1023 200.747C64.1396 200.803 64.153 200.872 64.1394 200.938C64.1259 201.005 64.0866 201.063 64.0302 201.1L63.8073 201.245L69.5229 205.833L69.6278 205.066L64.2989 200.766L65.3411 198.498C65.0592 198.57 64.7774 198.656 64.5021 198.741L63.5845 200.707C63.5814 200.72 63.5814 200.734 63.5845 200.747L63.7549 200.635C63.7849 200.619 63.8178 200.61 63.8517 200.607C63.8855 200.604 63.9196 200.608 63.9519 200.618C63.9843 200.628 64.0142 200.645 64.04 200.667C64.0659 200.689 64.087 200.716 64.1023 200.747Z" fill="#263238"/>
<path d="M70.1521 205.033L70.0341 205.905L77.0738 201.251L76.864 201.081C76.8336 201.061 76.8076 201.036 76.7878 201.006C76.768 200.975 76.7548 200.941 76.7491 200.906C76.7434 200.87 76.7453 200.834 76.7546 200.799C76.764 200.764 76.7807 200.732 76.8035 200.704C76.8263 200.676 76.8548 200.653 76.8871 200.637C76.9194 200.621 76.9547 200.611 76.9907 200.61C77.0268 200.608 77.0628 200.615 77.0963 200.628C77.1298 200.641 77.1601 200.662 77.1852 200.688L77.3491 200.819L76.9623 198.754C76.7198 198.669 76.4839 198.597 76.2413 198.525L76.6608 200.727L70.1521 205.033Z" fill="#263238"/>
<path d="M68.6577 212.23L68.5528 213.01C68.5482 213.044 68.5504 213.078 68.5591 213.111C68.5679 213.143 68.5831 213.174 68.6038 213.201C68.6245 213.228 68.6504 213.25 68.6799 213.267C68.7094 213.284 68.742 213.295 68.7757 213.299C68.8364 213.299 68.8953 213.277 68.9411 213.238C68.987 213.198 69.0167 213.142 69.0247 213.082L69.1493 212.178L69.2541 211.404L70.0014 205.905L70.1193 205.033L70.2242 204.247C70.2288 204.214 70.2268 204.181 70.2184 204.149C70.21 204.117 70.1953 204.087 70.1752 204.06C70.155 204.034 70.1299 204.012 70.1012 203.996C70.0724 203.979 70.0407 203.969 70.0079 203.965C69.941 203.955 69.8731 203.973 69.8191 204.013C69.7651 204.054 69.7293 204.114 69.7195 204.181L69.595 205.086L69.4901 205.853L68.7822 211.339L68.6577 212.23Z" fill="#263238"/>
<path d="M55.8697 214.478L55.1487 214.229C55.1164 214.22 55.0863 214.204 55.0604 214.182C55.0345 214.16 55.0133 214.134 54.998 214.104C54.9826 214.074 54.9736 214.041 54.9713 214.007C54.969 213.974 54.9736 213.94 54.9848 213.908C54.9952 213.876 55.0119 213.845 55.0341 213.819C55.0563 213.794 55.0835 213.772 55.1141 213.757C55.1446 213.742 55.1779 213.733 55.212 213.731C55.2461 213.728 55.2803 213.733 55.3125 213.744L56.3154 214.085L54.9586 206.941H52.8349C50.3763 210.042 48.776 213.736 48.1942 217.651L49.5052 218.693L55.8697 214.478Z" fill="#263238"/>
<path d="M49.433 218.85C49.4998 218.839 49.5685 218.853 49.6247 218.891C49.681 218.929 49.7203 218.987 49.7346 219.053L49.7804 219.303L56.6693 214.747L55.8697 214.478L49.5052 218.693L48.1942 217.651C48.1974 217.679 48.1974 217.708 48.1942 217.736C48.1942 217.972 48.1418 218.201 48.1221 218.431L49.2692 219.355L49.2299 219.152C49.2232 219.119 49.2232 219.085 49.2298 219.051C49.2365 219.018 49.2496 218.987 49.2685 218.959C49.2874 218.931 49.3117 218.907 49.3399 218.888C49.3682 218.869 49.3998 218.857 49.433 218.85Z" fill="#263238"/>
<path d="M56.3154 214.085L57.0167 214.328C57.0167 214.328 57.0167 214.288 57.0167 214.269L55.5813 206.678L55.3715 206.816C55.3298 206.847 55.2791 206.863 55.2273 206.862C55.1736 206.86 55.1218 206.842 55.0793 206.809C55.0368 206.776 55.0057 206.73 54.9905 206.679C54.9752 206.627 54.9766 206.572 54.9944 206.522C55.0122 206.471 55.0456 206.427 55.0897 206.397L55.2601 206.279H53.3724C53.1888 206.501 53.0053 206.718 52.8349 206.934H54.9586L56.3154 214.085Z" fill="#263238"/>
<path d="M62.1686 216.615L63.1715 216.956H63.2567C63.3102 216.954 63.3618 216.936 63.405 216.905C63.4482 216.873 63.481 216.829 63.4992 216.779C63.5104 216.747 63.515 216.714 63.5127 216.68C63.5105 216.646 63.5014 216.613 63.4861 216.583C63.4708 216.553 63.4495 216.527 63.4236 216.505C63.3977 216.484 63.3677 216.468 63.3354 216.458L62.6144 216.209L61.8147 215.94L57.0167 214.308L56.3154 214.065L55.3125 213.725C55.2803 213.713 55.2461 213.709 55.212 213.711C55.1779 213.713 55.1446 213.722 55.1141 213.737C55.0835 213.753 55.0564 213.774 55.0342 213.8C55.012 213.826 54.9952 213.856 54.9848 213.889C54.9737 213.92 54.9691 213.954 54.9713 213.988C54.9736 214.021 54.9827 214.054 54.998 214.084C55.0133 214.114 55.0345 214.141 55.0605 214.162C55.0864 214.184 55.1164 214.2 55.1487 214.21L55.8697 214.459L56.6693 214.727L61.4673 216.36L62.1686 216.615Z" fill="#263238"/>
<path d="M81.059 214.052L82.0553 213.744C82.0875 213.734 82.1215 213.731 82.1552 213.734C82.1888 213.737 82.2216 213.747 82.2514 213.762C82.2813 213.778 82.3077 213.8 82.3292 213.826C82.3506 213.852 82.3667 213.882 82.3764 213.915C82.3864 213.947 82.39 213.98 82.3868 214.013C82.3836 214.047 82.3738 214.079 82.3579 214.108C82.342 214.137 82.3203 214.163 82.2942 214.184C82.2682 214.205 82.2382 214.22 82.206 214.229L81.3211 214.511L86.5124 218.693L88.1641 217.598C88.6772 213.953 88.0763 210.238 86.4403 206.941H84.3363L81.059 214.052Z" fill="#263238"/>
<path d="M84.3232 206.751C84.3001 206.781 84.2704 206.806 84.2363 206.823C84.2022 206.84 84.1646 206.849 84.1265 206.849C84.0668 206.848 84.009 206.828 83.9627 206.79L83.7464 206.619L80.2659 214.177C80.2597 214.216 80.2597 214.256 80.2659 214.295L81.0852 214.039L84.3625 206.927H86.4665C86.3485 206.698 86.2305 206.482 86.106 206.272H84.1396L84.3035 206.403C84.328 206.424 84.348 206.45 84.3623 206.479C84.3766 206.509 84.3849 206.54 84.3868 206.573C84.3886 206.605 84.3839 206.638 84.373 206.668C84.3621 206.699 84.3451 206.727 84.3232 206.751Z" fill="#263238"/>
<path d="M88.1772 217.736C88.174 217.69 88.174 217.644 88.1772 217.598L86.5255 218.693L81.3342 214.511L80.5739 214.747L86.1584 219.25L86.2699 218.995C86.2996 218.934 86.3517 218.887 86.4152 218.864C86.4788 218.841 86.5488 218.843 86.6107 218.87C86.6413 218.884 86.6689 218.904 86.6918 218.929C86.7146 218.954 86.7324 218.983 86.7439 219.014C86.7555 219.046 86.7607 219.08 86.7592 219.114C86.7577 219.147 86.7496 219.18 86.7352 219.211L86.6566 219.388H86.6893L88.0396 218.49C88.0724 218.234 88.1117 217.985 88.1772 217.736Z" fill="#263238"/>
<path d="M82.3764 213.915C82.3667 213.882 82.3507 213.852 82.3292 213.826C82.3077 213.8 82.2813 213.778 82.2514 213.762C82.2216 213.747 82.1889 213.737 82.1552 213.734C82.1215 213.731 82.0875 213.734 82.0553 213.744L81.059 214.052L80.2396 214.308L74.937 215.96L74.1767 216.196L73.2852 216.471C73.221 216.492 73.1677 216.538 73.137 216.598C73.1063 216.658 73.1007 216.728 73.1214 216.792C73.1358 216.845 73.1675 216.892 73.2114 216.925C73.2552 216.958 73.3089 216.976 73.3639 216.976H73.436L74.4323 216.668L75.2516 216.412L80.5608 214.76L81.3212 214.524L82.206 214.242C82.2397 214.234 82.2711 214.218 82.2984 214.196C82.3256 214.174 82.3479 214.147 82.364 214.116C82.38 214.085 82.3894 214.052 82.3916 214.017C82.3937 213.982 82.3886 213.947 82.3764 213.915Z" fill="#263238"/>
<path d="M74.4913 228.695L75.0681 229.692C75.0855 229.72 75.097 229.752 75.1019 229.785C75.1067 229.819 75.1048 229.852 75.0962 229.885C75.0876 229.917 75.0726 229.948 75.052 229.974C75.0314 230.001 75.0057 230.023 74.9763 230.039C74.9395 230.064 74.8962 230.078 74.8518 230.078C74.807 230.079 74.7628 230.068 74.7237 230.046C74.6846 230.024 74.6519 229.992 74.6289 229.954L74.1373 229.115L70.9583 236.004L71.8563 236.725C75.8276 235.451 79.3975 233.162 82.2126 230.085L81.9504 228.715L74.4913 228.695Z" fill="#263238"/>
<path d="M82.2257 228.617C82.1913 228.625 82.1552 228.625 82.1208 228.617C82.0606 228.588 82.0139 228.537 81.9906 228.475C81.9673 228.412 81.9694 228.343 81.9963 228.282L82.1011 228.053H74.098L74.4913 228.708H81.9504L82.2126 230.078C82.4027 229.875 82.5862 229.665 82.7697 229.456L82.5534 228.309L82.4682 228.499C82.4418 228.538 82.4054 228.57 82.3628 228.59C82.3202 228.611 82.2729 228.62 82.2257 228.617Z" fill="#263238"/>
<path d="M74.1373 229.095L73.7572 228.381L70.3357 235.807H70.5847C70.6525 235.807 70.7176 235.834 70.7655 235.882C70.8134 235.93 70.8404 235.995 70.8404 236.063C70.8413 236.096 70.8353 236.13 70.8227 236.162C70.8102 236.193 70.7914 236.222 70.7675 236.245C70.7436 236.269 70.715 236.288 70.6836 236.301C70.6522 236.313 70.6186 236.319 70.5847 236.318H70.375L71.1157 236.915C71.3713 236.843 71.6335 236.771 71.8891 236.685L70.9911 235.964L74.1373 229.095Z" fill="#263238"/>
<path d="M71.3451 223.366L70.8469 222.527C70.8297 222.499 70.807 222.473 70.78 222.453C70.7531 222.433 70.7225 222.419 70.6899 222.411C70.6574 222.402 70.6235 222.401 70.5903 222.405C70.557 222.41 70.5251 222.422 70.4963 222.439C70.4674 222.456 70.4423 222.479 70.4222 222.506C70.4021 222.533 70.3876 222.563 70.3794 222.596C70.3712 222.628 70.3694 222.662 70.3743 222.696C70.3792 222.729 70.3906 222.761 70.4078 222.79L70.9846 223.766L71.3778 224.422L73.7572 228.381L74.1701 229.075L74.6617 229.914C74.6847 229.953 74.7174 229.985 74.7565 230.007C74.7956 230.028 74.8398 230.04 74.8846 230.039C74.929 230.038 74.9723 230.025 75.0091 230C75.0528 229.963 75.0824 229.912 75.0932 229.856C75.1039 229.8 75.0951 229.742 75.0681 229.692L74.4913 228.715L74.098 228.059L71.7515 224.087L71.3451 223.366Z" fill="#263238"/>
<path d="M59.1601 229.108L58.4129 229.967C58.3901 229.996 58.3613 230.019 58.3283 230.035C58.2954 230.05 58.2593 230.059 58.2228 230.059C58.1599 230.059 58.0992 230.035 58.0524 229.993C58.0047 229.945 57.978 229.88 57.978 229.813C57.978 229.745 58.0047 229.681 58.0524 229.633L58.8651 228.695H51.4716L50.8161 230.091C52.8407 233.18 55.8401 235.504 59.3371 236.692L60.4907 235.925L59.1601 229.108Z" fill="#263238"/>
<path d="M60.5627 236.082C60.5627 236.015 60.5897 235.95 60.6376 235.902C60.6856 235.854 60.7506 235.827 60.8184 235.827H61.1068L59.7106 228.466L59.1601 229.121L60.471 235.938L59.3174 236.705L60.1236 236.967L61.0216 236.371H60.8249C60.7875 236.373 60.7501 236.367 60.7154 236.353C60.6806 236.339 60.6495 236.317 60.6243 236.29C60.5991 236.262 60.5805 236.229 60.5698 236.193C60.5592 236.157 60.5568 236.119 60.5627 236.082Z" fill="#263238"/>
<path d="M58.8389 228.695L59.4091 228.04H59.3567H51.4322L51.4846 228.328C51.4962 228.394 51.4813 228.462 51.4433 228.517C51.4053 228.572 51.3472 228.61 51.2814 228.623H51.2356C51.1758 228.624 51.1177 228.603 51.072 228.565C51.0263 228.526 50.9959 228.472 50.9865 228.413L50.9472 228.21L50.3966 229.397C50.5342 229.626 50.6719 229.855 50.8161 230.052L51.4715 228.656L58.8389 228.695Z" fill="#263238"/>
<path d="M63.7614 223.792L64.5742 222.849C64.617 222.797 64.638 222.731 64.6325 222.664C64.6271 222.597 64.5956 222.535 64.5449 222.492C64.4942 222.448 64.4284 222.426 64.3615 222.43C64.2947 222.434 64.2322 222.464 64.1874 222.514L63.4468 223.38L62.8896 224.035L59.4091 228.079L58.8389 228.735L58.0261 229.633C57.9785 229.68 57.9518 229.745 57.9518 229.813C57.9518 229.88 57.9785 229.945 58.0261 229.993C58.0729 230.035 58.1336 230.059 58.1965 230.059C58.2331 230.059 58.2692 230.05 58.3021 230.035C58.335 230.019 58.3639 229.996 58.3866 229.967L59.1338 229.108L59.6844 228.453L63.1715 224.409L63.7614 223.792Z" fill="#263238"/>
<path d="M86.5976 218.87C86.5357 218.843 86.4657 218.84 86.4022 218.864C86.3386 218.887 86.2866 218.934 86.2568 218.994L86.1453 219.25L82.1011 228.027L81.9963 228.256C81.9694 228.317 81.9673 228.386 81.9906 228.449C82.0139 228.511 82.0606 228.562 82.1208 228.59C82.1552 228.599 82.1913 228.599 82.2257 228.59C82.2751 228.589 82.3232 228.575 82.3649 228.548C82.4065 228.522 82.44 228.484 82.4617 228.44L82.5469 228.25L86.6435 219.362L86.7221 219.185C86.7433 219.126 86.7423 219.062 86.7194 219.004C86.6964 218.946 86.6531 218.898 86.5976 218.87Z" fill="#263238"/>
<path d="M76.8247 200.727C76.8037 200.753 76.788 200.782 76.7786 200.814C76.7692 200.846 76.7663 200.879 76.7699 200.912C76.7736 200.945 76.7838 200.977 76.8 201.006C76.8161 201.035 76.8379 201.06 76.8641 201.081L77.0738 201.251L83.7464 206.633L83.9627 206.803C84.009 206.841 84.0668 206.862 84.1265 206.862C84.1647 206.862 84.2022 206.853 84.2363 206.836C84.2704 206.819 84.3001 206.794 84.3232 206.764C84.3451 206.738 84.3615 206.709 84.3714 206.677C84.3814 206.645 84.3846 206.611 84.3809 206.578C84.3772 206.545 84.3667 206.513 84.35 206.484C84.3333 206.455 84.3108 206.43 84.2838 206.41L84.12 206.279L77.3491 200.851L77.1852 200.72C77.1365 200.674 77.0712 200.648 77.0036 200.649C76.9361 200.65 76.8717 200.678 76.8247 200.727Z" fill="#263238"/>
<path d="M70.8076 236.082C70.8076 236.015 70.7807 235.949 70.7327 235.902C70.6848 235.854 70.6198 235.827 70.552 235.827H60.8184C60.7506 235.827 60.6856 235.854 60.6376 235.902C60.5897 235.949 60.5628 236.015 60.5628 236.082C60.5619 236.116 60.5679 236.15 60.5804 236.181C60.5929 236.213 60.6117 236.241 60.6356 236.265C60.6596 236.289 60.6881 236.308 60.7195 236.32C60.7509 236.333 60.7846 236.339 60.8184 236.338H70.552C70.5858 236.339 70.6194 236.333 70.6509 236.32C70.6823 236.308 70.7108 236.289 70.7347 236.265C70.7587 236.241 70.7774 236.213 70.79 236.181C70.8025 236.15 70.8085 236.116 70.8076 236.082Z" fill="#263238"/>
<path d="M51.2356 228.617H51.2814C51.3472 228.604 51.4053 228.566 51.4433 228.511C51.4813 228.456 51.4962 228.388 51.4846 228.322L51.4322 228.033L49.7804 219.309L49.7346 219.06C49.7203 218.994 49.681 218.936 49.6247 218.898C49.5685 218.86 49.4998 218.845 49.433 218.857C49.3998 218.863 49.3682 218.876 49.3399 218.895C49.3117 218.913 49.2874 218.937 49.2685 218.965C49.2496 218.993 49.2365 219.025 49.2298 219.058C49.2232 219.091 49.2232 219.125 49.2299 219.158L49.2692 219.362L50.9472 228.21L50.9865 228.413C50.9973 228.471 51.0283 228.523 51.0739 228.561C51.1194 228.598 51.1767 228.618 51.2356 228.617Z" fill="#263238"/>
<path d="M55.0241 206.751C55.0475 206.785 55.0787 206.813 55.1153 206.832C55.1518 206.851 55.1925 206.862 55.2339 206.862C55.2857 206.863 55.3363 206.847 55.3781 206.816L55.5878 206.678L63.8073 201.245L64.0301 201.1C64.0837 201.062 64.1202 201.004 64.132 200.939C64.1439 200.874 64.1302 200.807 64.0938 200.752C64.0574 200.697 64.0011 200.658 63.9367 200.644C63.8723 200.629 63.8048 200.64 63.7483 200.674L63.5779 200.786L55.2666 206.279L55.0962 206.397C55.0398 206.434 55.0005 206.492 54.987 206.559C54.9734 206.625 54.9868 206.694 55.0241 206.751Z" fill="#263238"/>
</g>
</svg>
