<svg width="217" height="217" viewBox="0 0 217 217" fill="none" xmlns="http://www.w3.org/2000/svg">
<g opacity="0.2">
<path d="M174.498 163.288H189.758V158.432H174.498V163.288Z" fill="#EBEBEB"/>
<path d="M183.009 169.408C185.544 169.369 192.041 169.26 194.488 169.23H198.269L198.069 169.425V164.568L198.286 164.785C195.751 164.785 189.289 164.755 186.841 164.72L183.026 164.673L183.131 164.568L183.026 169.425L183.009 169.408ZM183.009 169.408L182.909 164.551V164.451H183.013C184.919 164.425 188.742 164.382 190.643 164.364L198.273 164.334H198.49V164.551V169.408V169.607H198.295H194.445C192.015 169.581 185.548 169.468 183.035 169.425L183.009 169.408Z" fill="#EBEBEB"/>
<path d="M145.911 68.4505C148.445 68.4071 154.942 68.2986 157.39 68.2725H161.17L160.971 68.4678V63.6114L161.188 63.8284C158.653 63.8284 152.191 63.798 149.743 63.7633L145.928 63.7155L146.032 63.6114L145.928 68.4678L145.911 68.4505ZM145.911 68.4505L145.824 63.594V63.4942H145.928C147.833 63.4682 151.657 63.4248 153.558 63.4074L161.188 63.377H161.405V63.594L161.383 68.4505V68.6501H161.188H157.338C154.908 68.6197 148.441 68.5112 145.928 68.4678L145.911 68.4505Z" fill="#EBEBEB"/>
<path d="M154.421 74.5742C156.956 74.5308 163.453 74.4223 165.901 74.3963H169.681L169.481 74.5916V69.7351L169.698 69.9521C167.164 69.9521 160.701 69.9217 158.254 69.887L154.439 69.8393L154.543 69.7351L154.439 74.5916L154.421 74.5742ZM154.421 74.5742L154.322 69.7177V69.6179H154.426C156.331 69.5919 160.155 69.5485 162.056 69.5311L169.685 69.5007H169.902V69.7177V74.5742V74.7738H169.694H165.844C163.414 74.7435 156.947 74.635 154.434 74.5916L154.421 74.5742Z" fill="#EBEBEB"/>
<path d="M162.898 68.4548H178.157V63.5983H162.898V68.4548Z" fill="#EBEBEB"/>
<path d="M27.2421 24.3604L42.5016 24.3604V19.504H27.2421V24.3604Z" fill="#EBEBEB"/>
<path d="M18.7314 30.4798C21.266 30.4364 27.763 30.3279 30.2107 30.3019H33.9909L33.7912 30.4972V25.6407L34.0082 25.8577C31.4737 25.8577 25.0114 25.8273 22.5636 25.7926L18.7488 25.7449L18.8356 25.606L18.7314 30.4624V30.4798ZM18.7314 30.4798L18.6273 25.606V25.5062H18.7314C20.6367 25.4801 24.4559 25.4367 26.3611 25.4194L33.9909 25.389H34.2079V25.606V30.4624V30.6621H34.0126H30.163C27.7326 30.6317 21.2616 30.5232 18.7531 30.4798H18.7314Z" fill="#EBEBEB"/>
<path d="M174.498 24.3561C177.033 24.3127 183.53 24.2085 185.978 24.1781H189.758L189.558 24.3734V19.517L189.775 19.734L182.145 19.7036C180.244 19.7036 176.417 19.6472 174.516 19.6211L174.62 19.517L174.516 24.3734L174.498 24.3561ZM174.498 24.3561L174.394 19.4996V19.3998H174.498C176.404 19.3737 180.227 19.3303 182.128 19.313L189.758 19.2826H189.975V19.4996L189.953 24.3561V24.5557H189.758H185.908C183.478 24.5253 177.011 24.4168 174.498 24.3734V24.3561Z" fill="#EBEBEB"/>
<path d="M29.6465 72.7167L29.5901 70.9807C29.5825 70.8009 29.5254 70.6268 29.4251 70.4774C29.3247 70.3281 29.1851 70.2094 29.0216 70.1344C28.9044 70.0823 28.7916 70.0259 28.6787 69.9651C28.5659 69.9044 28.4574 69.8393 28.3489 69.7742C28.1949 69.6793 28.0176 69.6291 27.8368 69.6291C27.6559 69.6291 27.4786 69.6793 27.3246 69.7742L25.836 70.6986L22.9673 66.0721L24.4516 65.1477C24.6022 65.0508 24.7227 64.9137 24.7994 64.7519C24.8761 64.59 24.9059 64.4099 24.8856 64.232C24.8631 63.9751 24.8558 63.7172 24.8639 63.4595C24.8664 63.2822 24.8204 63.1077 24.7309 62.9547C24.6414 62.8017 24.5118 62.6761 24.3561 62.5915L22.811 61.7669L25.3847 56.9668L26.9297 57.7958C27.089 57.8787 27.2681 57.9161 27.4472 57.9038C27.6264 57.8916 27.7987 57.8302 27.9453 57.7263C28.1579 57.5788 28.3793 57.4442 28.6049 57.3184C28.7624 57.2355 28.8937 57.1103 28.9842 56.957C29.0746 56.8038 29.1206 56.6283 29.1171 56.4504L29.065 54.7144L34.503 54.5451L34.5594 56.2811C34.5776 56.4548 34.6425 56.6204 34.7472 56.7602C34.8519 56.9 34.9924 57.0089 35.154 57.0753L35.4925 57.2489L35.8224 57.4355C35.9748 57.5301 36.1507 57.5802 36.3301 57.5802C36.5096 57.5802 36.6854 57.5301 36.8379 57.4355L38.3396 56.5111L41.2083 61.1376L39.711 62.062C39.5607 62.1592 39.4405 62.2964 39.3639 62.4582C39.2872 62.6199 39.2571 62.7998 39.277 62.9777C39.2921 63.2336 39.2921 63.4901 39.277 63.7459C39.2745 63.9231 39.3204 64.0977 39.4099 64.2507C39.4994 64.4036 39.6291 64.5293 39.7848 64.6139L41.3298 65.4428L38.7562 70.2429L37.2198 69.44C37.0614 69.355 36.8822 69.316 36.7028 69.3275C36.5233 69.339 36.3506 69.4005 36.2043 69.5051C35.9942 69.6528 35.7754 69.7876 35.5489 69.9087C35.3925 69.9933 35.2619 70.1187 35.171 70.2715C35.0801 70.4243 35.0322 70.5989 35.0325 70.7767L35.0889 72.5127L29.6465 72.7167ZM27.8194 69.1752C28.0845 69.1757 28.3443 69.2493 28.5702 69.3879L28.8827 69.5615C28.9912 69.6223 29.0954 69.6743 29.2039 69.7264C29.4413 69.8334 29.644 70.0047 29.789 70.2211C29.934 70.4374 30.0154 70.69 30.0241 70.9503L30.0675 72.2523L34.6419 72.1091L34.5985 70.8071C34.5908 70.5463 34.6562 70.2886 34.7873 70.0631C34.9185 69.8376 35.1101 69.6533 35.3406 69.5311C35.5531 69.4156 35.7589 69.2881 35.9569 69.1492C36.1684 68.9983 36.418 68.9098 36.6773 68.8937C36.9366 68.8776 37.1953 68.9345 37.4238 69.0581L38.5869 69.6787L40.7569 65.6468L39.5982 65.0219C39.3695 64.8979 39.1795 64.7131 39.0493 64.4879C38.9191 64.2627 38.8537 64.0059 38.8604 63.7459C38.8755 63.506 38.8755 63.2654 38.8604 63.0255C38.8351 62.7661 38.8827 62.5049 38.9977 62.2711C39.1127 62.0372 39.2905 61.8401 39.5114 61.7018L40.6354 61.003L38.2224 57.097L37.094 57.7958C36.8728 57.9321 36.6181 58.0043 36.3583 58.0043C36.0985 58.0043 35.8439 57.9321 35.6227 57.7958C35.5229 57.7307 35.4187 57.6742 35.3146 57.6178C35.2104 57.5614 35.1019 57.505 34.9934 57.4572C34.7562 57.3487 34.5539 57.1764 34.409 56.9595C34.2642 56.7426 34.1825 56.4897 34.1732 56.229L34.1298 54.927L29.512 55.0616L29.5511 56.3636C29.5587 56.6238 29.4937 56.881 29.3634 57.1063C29.2331 57.3317 29.0426 57.5163 28.8133 57.6395C28.5999 57.756 28.3927 57.8835 28.1926 58.0214C27.9809 58.1716 27.7317 58.26 27.4727 58.2769C27.2137 58.2937 26.9551 58.2384 26.7257 58.1169L25.5626 57.492L23.3926 61.5282L24.5514 62.1488C24.7797 62.2731 24.9694 62.458 25.0995 62.6831C25.2297 62.9082 25.2953 63.1648 25.2892 63.4247C25.2812 63.668 25.2885 63.9115 25.3109 64.1539C25.331 64.4101 25.2806 64.6669 25.1651 64.8964C25.0495 65.126 24.8733 65.3194 24.6555 65.4559L23.5358 66.1459L25.9489 70.0519L27.0686 69.3575C27.2959 69.2254 27.5568 69.1621 27.8194 69.1752ZM32.0769 67.9166C31.1265 67.9185 30.2017 67.6084 29.4446 67.0338C28.6875 66.4592 28.14 65.652 27.8861 64.7361C27.6321 63.8203 27.6859 62.8463 28.0391 61.964C28.3922 61.0816 29.0253 60.3395 29.841 59.8518C30.6567 59.364 31.61 59.1575 32.5545 59.264C33.4989 59.3704 34.3823 59.784 35.069 60.4411C35.7556 61.0982 36.2076 61.9626 36.3555 62.9015C36.5033 63.8403 36.3389 64.8018 35.8875 65.6381C35.5203 66.3292 34.9713 66.9068 34.2997 67.3083C33.6281 67.7099 32.8594 67.9203 32.0769 67.9166ZM32.0769 59.7097C31.1291 59.7092 30.2138 60.0552 29.5034 60.6826C28.793 61.3101 28.3366 62.1756 28.22 63.1162C28.1034 64.0568 28.3347 65.0076 28.8704 65.7895C29.4061 66.5713 30.2092 67.1304 31.1285 67.3613C32.0477 67.5922 33.0197 67.479 33.8613 67.0431C34.7029 66.6072 35.3561 65.8786 35.6978 64.9945C36.0395 64.1105 36.0463 63.132 35.7167 62.2433C35.3871 61.3547 34.744 60.6172 33.9084 60.1697C33.3486 59.871 32.7245 59.7131 32.09 59.7097H32.0769Z" fill="#EBEBEB"/>
<path d="M180.041 86.2662C180.228 86.1502 180.445 86.0887 180.666 86.0887C180.886 86.0887 181.103 86.1502 181.29 86.2662C181.399 86.3313 181.503 86.392 181.612 86.4485L181.946 86.6177C182.146 86.7089 182.316 86.8537 182.439 87.0361C182.562 87.2184 182.631 87.4311 182.64 87.6506L182.688 89.187L187.696 89.0308L187.649 87.4944C187.644 87.2738 187.7 87.0561 187.811 86.8654C187.922 86.6747 188.084 86.5184 188.278 86.4137C188.496 86.2944 188.707 86.164 188.912 86.0231C189.091 85.8958 189.303 85.8206 189.523 85.8061C189.743 85.7915 189.962 85.8381 190.157 85.9407L191.507 86.6655L193.876 82.2517L192.522 81.5269C192.33 81.421 192.17 81.2642 192.06 81.0736C191.951 80.883 191.896 80.666 191.902 80.4462C191.902 80.1945 191.902 79.9471 191.88 79.6998C191.858 79.4802 191.897 79.2588 191.995 79.0608C192.092 78.8627 192.244 78.6962 192.431 78.58L193.733 77.7685L191.09 73.5109L189.788 74.3225C189.601 74.4386 189.385 74.5001 189.165 74.5001C188.945 74.5001 188.73 74.4386 188.543 74.3225L188.221 74.1402L187.892 73.9753C187.69 73.8844 187.518 73.7391 187.395 73.5559C187.271 73.3727 187.202 73.1588 187.193 72.938L187.149 71.4017L182.141 71.5579L182.189 73.0899C182.195 73.3102 182.139 73.5277 182.029 73.7185C181.919 73.9092 181.758 74.0657 181.564 74.1706C181.343 74.2888 181.13 74.4207 180.926 74.5655C180.746 74.6937 180.533 74.7694 180.313 74.7839C180.092 74.7985 179.872 74.7514 179.676 74.648L178.326 73.9232L175.957 78.3413L177.306 79.0661C177.5 79.1706 177.662 79.327 177.772 79.5178C177.882 79.7087 177.938 79.9264 177.931 80.1468C177.916 80.3954 177.916 80.6447 177.931 80.8933C177.953 81.1127 177.912 81.3337 177.815 81.5316C177.718 81.7294 177.567 81.8961 177.38 82.013L176.078 82.8245L178.721 87.0778L180.041 86.2662ZM181.299 78.3587C181.683 77.6441 182.269 77.0591 182.985 76.6778C183.701 76.2965 184.513 76.136 185.32 76.2164C186.127 76.2969 186.892 76.6148 187.518 77.1299C188.145 77.6451 188.604 78.3343 188.839 79.1106C189.074 79.8868 189.073 80.7152 188.837 81.4911C188.601 82.2669 188.14 82.9554 187.513 83.4695C186.886 83.9835 186.12 84.3001 185.313 84.3792C184.506 84.4583 183.694 84.2964 182.979 83.9139C182.02 83.3996 181.304 82.5256 180.989 81.4839C180.674 80.4423 180.786 79.3182 181.299 78.3587Z" fill="#EBEBEB"/>
<path d="M34.6071 38.6259C34.6071 41.329 35.4087 43.9713 36.9104 46.2187C38.4121 48.4662 40.5465 50.2179 43.0438 51.2523C45.541 52.2867 48.2889 52.5573 50.94 52.03C53.5911 51.5027 56.0262 50.2011 57.9376 48.2897C59.8489 46.3784 61.1505 43.9433 61.6778 41.2922C62.2052 38.6411 61.9345 35.8932 60.9001 33.3959C59.8657 30.8987 58.114 28.7642 55.8666 27.2625C53.6191 25.7608 50.9768 24.9593 48.2738 24.9593C44.6492 24.9593 41.173 26.3992 38.61 28.9622C36.047 31.5252 34.6071 35.0013 34.6071 38.6259ZM41.8896 38.6259C41.8888 37.3631 42.2625 36.1284 42.9634 35.0779C43.6644 34.0275 44.6612 33.2085 45.8277 32.7247C46.9941 32.2408 48.2779 32.1138 49.5166 32.3596C50.7553 32.6055 51.8932 33.2131 52.7865 34.1058C53.6798 34.9985 54.2882 36.136 54.5349 37.3745C54.7816 38.613 54.6554 39.8969 54.1724 41.0637C53.6893 42.2305 52.871 43.2278 51.8211 43.9295C50.7711 44.6312 49.5366 45.0057 48.2738 45.0057C46.5814 45.0057 44.9582 44.3337 43.761 43.1374C42.5639 41.9411 41.8908 40.3184 41.8896 38.6259Z" fill="#EBEBEB"/>
<path d="M45.6437 25.5149H50.8995L50.613 21.7955H45.9345L45.6437 25.5149Z" fill="#EBEBEB"/>
<path d="M55.6518 27.2856L59.3668 31.0049L61.7929 28.1666L58.4858 24.8595L55.6518 27.2856Z" fill="#EBEBEB"/>
<path d="M61.4717 35.614V40.8698L65.1911 40.579V35.9048L61.4717 35.614Z" fill="#EBEBEB"/>
<path d="M59.701 45.6177L55.986 49.3328L58.82 51.7588L62.1271 48.4561L59.701 45.6177Z" fill="#EBEBEB"/>
<path d="M51.3769 51.442H46.1168L46.4076 55.1614H51.0818L51.3769 51.442Z" fill="#EBEBEB"/>
<path d="M41.3689 49.6669L37.6538 45.9519L35.2278 48.7903L38.5349 52.093L41.3689 49.6669Z" fill="#EBEBEB"/>
<path d="M35.5489 41.3428V36.0871L31.8252 36.3779V41.0521L35.5489 41.3428Z" fill="#EBEBEB"/>
<path d="M37.3196 31.3391L41.0347 27.6197L38.2006 25.1937L34.8936 28.5007L37.3196 31.3391Z" fill="#EBEBEB"/>
<path d="M61.0001 160.486H59.1326V195H52.8651V160.486H51.0001L56.0001 155L61.0001 160.486Z" fill="#EBEBEB"/>
</g>
<path d="M17.9893 201.137C75.9761 200.873 141.024 200.868 199.011 201.137C141.024 201.402 75.9761 201.402 17.9893 201.137Z" fill="#263238"/>
<path d="M141.789 24H68.4434C67.4586 24.0062 66.4846 24.2066 65.5773 24.5897C64.6701 24.9727 63.8472 25.5309 63.1559 26.2323C62.4645 26.9337 61.9183 27.7646 61.5484 28.6773C61.1785 29.5901 60.9923 30.5668 61.0003 31.5516V182.584C60.9829 184.571 61.7554 186.483 63.1479 187.901C64.5404 189.319 66.4389 190.126 68.426 190.144H141.772C142.758 190.137 143.733 189.936 144.641 189.552C145.549 189.169 146.372 188.61 147.064 187.908C147.756 187.206 148.303 186.374 148.674 185.461C149.044 184.547 149.231 183.569 149.224 182.584V31.5516C149.238 29.5648 148.463 27.6537 147.069 26.2379C145.675 24.8221 143.776 24.0172 141.789 24ZM144.58 177.927C144.58 181.902 141.603 185.118 137.931 185.118H72.2973C68.6126 185.118 65.6397 181.902 65.6397 177.927V37.2847C65.6397 29.1863 68.6126 28.7914 72.2973 28.7914H85.4432C86.207 28.7914 86.832 29.6594 86.832 30.7357V31.2001C86.832 33.7216 88.2121 33.7303 89.909 33.7303H120.289C122.025 33.7303 123.366 33.7303 123.366 31.2001V30.7357C123.366 29.6594 123.982 28.7914 124.764 28.7914H137.909C141.581 28.7914 144.558 29.8677 144.558 37.2847L144.58 177.927Z" fill="#263238"/>
<path d="M109.257 30.5794H100.963C100.827 30.5794 100.697 30.5255 100.601 30.4294C100.505 30.3334 100.451 30.2031 100.451 30.0673C100.451 29.9315 100.505 29.8012 100.601 29.7052C100.697 29.6091 100.827 29.5552 100.963 29.5552H109.257C109.393 29.5552 109.523 29.6091 109.619 29.7052C109.715 29.8012 109.769 29.9315 109.769 30.0673C109.769 30.2031 109.715 30.3334 109.619 30.4294C109.523 30.5255 109.393 30.5794 109.257 30.5794Z" fill="white"/>
<path opacity="0.2" d="M144.606 37.2848V177.927C144.606 181.902 141.629 185.118 137.957 185.118H72.2973C68.617 185.118 65.6398 181.902 65.6398 177.927V37.2848C65.6398 29.1863 68.617 28.7914 72.2973 28.7914H85.4432C86.207 28.7914 86.832 29.6594 86.832 30.7357V31.2001C86.832 33.7216 88.2121 33.7303 89.909 33.7303H120.302C122.012 33.7303 123.379 33.7303 123.379 31.2001V30.7357C123.379 29.6594 123.995 28.7914 124.772 28.7914H137.922C141.607 28.7914 144.606 29.8677 144.606 37.2848Z" fill="white"/>
<path d="M83.1733 31.9509L83.0475 32.0767L82.9737 32.1462C82.6484 31.8229 82.2084 31.6414 81.7498 31.6414C81.2912 31.6414 80.8512 31.8229 80.5259 32.1462L80.4565 32.0724L80.3306 31.9465L80.4912 31.8033C80.6076 31.7131 80.7326 31.6346 80.8645 31.569C81.0205 31.4902 81.1871 31.4347 81.3592 31.404C81.4373 31.404 81.5198 31.404 81.6023 31.3693H81.8193H81.9885C82.1367 31.3897 82.2822 31.4261 82.4225 31.4778C82.5274 31.5175 82.6289 31.5654 82.7263 31.621C82.8293 31.68 82.9266 31.7483 83.0171 31.825L83.1516 31.9465L83.1733 31.9509Z" fill="#C7C7C7"/>
<path d="M80.9296 32.5454L80.7256 32.3458C80.9979 32.0755 81.3661 31.9238 81.7498 31.9238C82.1336 31.9238 82.5017 32.0755 82.7741 32.3458L82.5701 32.5454C82.3521 32.3286 82.0572 32.207 81.7498 32.207C81.4424 32.207 81.1475 32.3286 80.9296 32.5454Z" fill="#C7C7C7"/>
<path d="M82.3705 32.7494L82.1708 32.9491C82.1162 32.8926 82.0508 32.8478 81.9784 32.8171C81.9061 32.7865 81.8284 32.7707 81.7498 32.7707C81.6713 32.7707 81.5935 32.7865 81.5212 32.8171C81.4489 32.8478 81.3835 32.8926 81.3288 32.9491C81.2637 32.8796 81.1943 32.8145 81.1292 32.7494C81.21 32.6668 81.3066 32.6011 81.4132 32.5562C81.5197 32.5114 81.6342 32.4883 81.7498 32.4883C81.8655 32.4883 81.9799 32.5114 82.0865 32.5562C82.1931 32.6011 82.2896 32.6668 82.3705 32.7494Z" fill="#C7C7C7"/>
<path d="M81.9321 33.127C81.9321 33.1754 81.9129 33.2217 81.8787 33.2559C81.8445 33.2901 81.7982 33.3093 81.7498 33.3093C81.7261 33.3093 81.7026 33.3046 81.6807 33.2954C81.6588 33.2861 81.639 33.2727 81.6225 33.2557C81.6059 33.2387 81.5929 33.2185 81.5842 33.1965C81.5755 33.1744 81.5713 33.1508 81.5719 33.127C81.5719 33.0798 81.5906 33.0346 81.624 33.0012C81.6574 32.9678 81.7026 32.9491 81.7498 32.9491C81.7736 32.9485 81.7972 32.9527 81.8193 32.9614C81.8414 32.97 81.8615 32.9831 81.8785 32.9996C81.8955 33.0162 81.909 33.036 81.9182 33.0579C81.9274 33.0798 81.9321 33.1033 81.9321 33.127Z" fill="#C7C7C7"/>
<path d="M70.787 32.3328C70.787 32.2288 70.8179 32.1271 70.8758 32.0406C70.9337 31.9542 71.016 31.8868 71.1122 31.8472C71.2084 31.8076 71.3142 31.7975 71.4162 31.8181C71.5182 31.8387 71.6117 31.8892 71.685 31.963C71.7583 32.0369 71.8079 32.1309 71.8277 32.233C71.8475 32.3352 71.8365 32.4409 71.7961 32.5368C71.7556 32.6327 71.6877 32.7144 71.6007 32.7716C71.5138 32.8287 71.4118 32.8588 71.3078 32.8579C71.239 32.8579 71.171 32.8443 71.1075 32.8179C71.044 32.7914 70.9864 32.7527 70.938 32.7039C70.8896 32.655 70.8513 32.5971 70.8254 32.5334C70.7995 32.4697 70.7864 32.4016 70.787 32.3328Z" fill="#C7C7C7"/>
<path d="M72.4318 32.3328C72.4318 32.229 72.4626 32.1274 72.5203 32.0411C72.578 31.9547 72.66 31.8874 72.756 31.8477C72.852 31.8079 72.9575 31.7975 73.0594 31.8178C73.1613 31.838 73.2549 31.888 73.3283 31.9615C73.4017 32.0349 73.4518 32.1285 73.472 32.2304C73.4923 32.3322 73.4819 32.4378 73.4421 32.5338C73.4024 32.6297 73.3351 32.7118 73.2487 32.7695C73.1624 32.8272 73.0608 32.858 72.957 32.858C72.888 32.858 72.8197 32.8444 72.756 32.818C72.6923 32.7916 72.6344 32.7529 72.5856 32.7041C72.5369 32.6554 72.4982 32.5975 72.4718 32.5338C72.4454 32.4701 72.4318 32.4018 72.4318 32.3328Z" fill="#C7C7C7"/>
<path d="M74.0811 32.3328C74.0811 32.229 74.1119 32.1274 74.1696 32.0411C74.2273 31.9547 74.3093 31.8874 74.4052 31.8477C74.5012 31.8079 74.6068 31.7975 74.7086 31.8178C74.8105 31.838 74.9041 31.888 74.9775 31.9615C75.051 32.0349 75.101 32.1285 75.1212 32.2304C75.1415 32.3322 75.1311 32.4378 75.0914 32.5338C75.0516 32.6297 74.9843 32.7118 74.8979 32.7695C74.8116 32.8272 74.7101 32.858 74.6062 32.858C74.4669 32.858 74.3333 32.8026 74.2349 32.7041C74.1364 32.6057 74.0811 32.4721 74.0811 32.3328Z" fill="#C7C7C7"/>
<path d="M75.7302 32.3328C75.7302 32.2288 75.7612 32.1271 75.8191 32.0406C75.877 31.9542 75.9592 31.8868 76.0554 31.8472C76.1516 31.8076 76.2575 31.7975 76.3594 31.8181C76.4614 31.8387 76.555 31.8892 76.6282 31.963C76.7015 32.0369 76.7512 32.1309 76.771 32.233C76.7907 32.3352 76.7797 32.4409 76.7393 32.5368C76.6989 32.6327 76.6309 32.7144 76.544 32.7716C76.457 32.8287 76.3551 32.8588 76.251 32.8579C76.1823 32.8579 76.1142 32.8443 76.0507 32.8179C75.9873 32.7914 75.9297 32.7527 75.8812 32.7039C75.8328 32.655 75.7945 32.5971 75.7686 32.5334C75.7427 32.4697 75.7297 32.4016 75.7302 32.3328Z" fill="#C7C7C7"/>
<path d="M77.3795 32.3328C77.3795 32.2288 77.4104 32.1271 77.4683 32.0406C77.5262 31.9542 77.6085 31.8868 77.7047 31.8472C77.8009 31.8076 77.9067 31.7975 78.0087 31.8181C78.1107 31.8387 78.2042 31.8892 78.2775 31.963C78.3507 32.0369 78.4004 32.1309 78.4202 32.233C78.44 32.3352 78.4289 32.4409 78.3885 32.5368C78.3481 32.6327 78.2801 32.7144 78.1932 32.7716C78.1063 32.8287 78.0043 32.8588 77.9003 32.8579C77.8315 32.8579 77.7634 32.8443 77.7 32.8179C77.6365 32.7914 77.5789 32.7527 77.5305 32.7039C77.4821 32.655 77.4438 32.5971 77.4179 32.5334C77.3919 32.4697 77.3789 32.4016 77.3795 32.3328Z" fill="#C7C7C7"/>
<path d="M138.665 33.4786H134.398V31.4995H138.665V33.4786ZM134.62 33.2572H138.439V31.7209H134.624L134.62 33.2572Z" fill="#C7C7C7"/>
<path d="M137.501 31.838H134.754V33.14H137.501V31.838Z" fill="#C7C7C7"/>
<path d="M139.042 31.9595H138.665V33.0142H139.042V31.9595Z" fill="#C7C7C7"/>
<path d="M75.6955 177.519H75.3093V179.29H74.5888V178.387H73.3129V179.29H72.5881V177.519H72.2062L73.9509 175.718L75.6955 177.519Z" fill="#EBEBEB"/>
<path d="M138.183 175.718H133.977V176.317H138.183V175.718Z" fill="#EBEBEB"/>
<path d="M138.183 177.202H133.977V177.805H138.183V177.202Z" fill="#EBEBEB"/>
<path d="M138.183 178.691H133.977V179.294H138.183V178.691Z" fill="#EBEBEB"/>
<path d="M106.431 177.567L105.234 178.843L104.04 177.567L104.248 177.367L105.234 178.417L106.219 177.367L106.431 177.567Z" fill="#EBEBEB"/>
<path d="M105.234 180.162C104.804 180.162 104.385 180.035 104.028 179.796C103.671 179.558 103.393 179.219 103.229 178.822C103.064 178.426 103.022 177.989 103.105 177.569C103.189 177.148 103.396 176.761 103.699 176.457C104.003 176.154 104.389 175.947 104.81 175.864C105.231 175.78 105.667 175.823 106.064 175.987C106.46 176.151 106.799 176.429 107.038 176.786C107.276 177.143 107.404 177.563 107.404 177.992C107.404 178.567 107.175 179.119 106.768 179.526C106.361 179.933 105.809 180.162 105.234 180.162ZM105.234 176.104C104.86 176.103 104.494 176.213 104.183 176.42C103.872 176.627 103.629 176.922 103.486 177.267C103.342 177.613 103.305 177.993 103.377 178.359C103.45 178.726 103.63 179.063 103.894 179.327C104.159 179.591 104.495 179.771 104.862 179.844C105.229 179.916 105.609 179.879 105.954 179.735C106.299 179.592 106.594 179.349 106.801 179.038C107.008 178.727 107.118 178.361 107.117 177.988C107.117 177.488 106.919 177.009 106.565 176.656C106.212 176.302 105.733 176.104 105.234 176.104Z" fill="#EBEBEB"/>
<path d="M110.537 95.1934C111.586 95.1882 112.61 94.872 113.48 94.2848C114.349 93.6975 115.025 92.8657 115.421 91.8944C115.818 90.9231 115.917 89.856 115.707 88.8281C115.497 87.8003 114.987 86.8578 114.241 86.1199C113.495 85.382 112.547 84.8819 111.517 84.6828C110.487 84.4837 109.421 84.5946 108.454 85.0014C107.487 85.4083 106.663 86.0927 106.085 86.9683C105.507 87.8439 105.202 88.8712 105.208 89.9203C105.217 91.3257 105.783 92.6702 106.782 93.6587C107.781 94.6472 109.132 95.1991 110.537 95.1934ZM105.854 89.9203C105.848 88.9989 106.116 88.0964 106.623 87.3271C107.13 86.5578 107.854 85.9562 108.703 85.5985C109.552 85.2407 110.488 85.1429 111.393 85.3174C112.298 85.4919 113.13 85.9308 113.785 86.5787C114.44 87.2265 114.889 88.0542 115.073 88.9569C115.258 89.8596 115.171 90.7968 114.822 91.6499C114.474 92.5029 113.881 93.2335 113.117 93.7492C112.353 94.2648 111.454 94.5424 110.533 94.5467C109.299 94.5525 108.114 94.0686 107.237 93.2012C106.359 92.3338 105.862 91.1538 105.854 89.9203ZM110.537 95.1934C111.586 95.1882 112.61 94.872 113.48 94.2848C114.349 93.6975 115.025 92.8657 115.421 91.8944C115.818 90.9231 115.917 89.856 115.707 88.8281C115.497 87.8003 114.987 86.8578 114.241 86.1199C113.495 85.382 112.547 84.8819 111.517 84.6828C110.487 84.4837 109.421 84.5946 108.454 85.0014C107.487 85.4083 106.663 86.0927 106.085 86.9683C105.507 87.8439 105.202 88.8712 105.208 89.9203C105.217 91.3257 105.783 92.6702 106.782 93.6587C107.781 94.6472 109.132 95.1991 110.537 95.1934ZM105.854 89.9203C105.848 88.9989 106.116 88.0964 106.623 87.3271C107.13 86.5578 107.854 85.9562 108.703 85.5985C109.552 85.2407 110.488 85.1429 111.393 85.3174C112.298 85.4919 113.13 85.9308 113.785 86.5787C114.44 87.2265 114.889 88.0542 115.073 88.9569C115.258 89.8596 115.171 90.7968 114.822 91.6499C114.474 92.5029 113.881 93.2335 113.117 93.7492C112.353 94.2648 111.454 94.5424 110.533 94.5467C109.299 94.5525 108.114 94.0686 107.237 93.2012C106.359 92.3338 105.862 91.1538 105.854 89.9203ZM110.537 95.1934C111.586 95.1882 112.61 94.872 113.48 94.2848C114.349 93.6975 115.025 92.8657 115.421 91.8944C115.818 90.9231 115.917 89.856 115.707 88.8281C115.497 87.8003 114.987 86.8578 114.241 86.1199C113.495 85.382 112.547 84.8819 111.517 84.6828C110.487 84.4837 109.421 84.5946 108.454 85.0014C107.487 85.4083 106.663 86.0927 106.085 86.9683C105.507 87.8439 105.202 88.8712 105.208 89.9203C105.217 91.3257 105.783 92.6702 106.782 93.6587C107.781 94.6472 109.132 95.1991 110.537 95.1934ZM105.854 89.9203C105.848 88.9989 106.116 88.0964 106.623 87.3271C107.13 86.5578 107.854 85.9562 108.703 85.5985C109.552 85.2407 110.488 85.1429 111.393 85.3174C112.298 85.4919 113.13 85.9308 113.785 86.5787C114.44 87.2265 114.889 88.0542 115.073 88.9569C115.258 89.8596 115.171 90.7968 114.822 91.6499C114.474 92.5029 113.881 93.2335 113.117 93.7492C112.353 94.2648 111.454 94.5424 110.533 94.5467C109.299 94.5525 108.114 94.0686 107.237 93.2012C106.359 92.3338 105.862 91.1538 105.854 89.9203ZM110.572 101.065C112.782 101.053 114.939 100.386 116.771 99.1479C118.602 97.9097 120.025 96.1563 120.859 94.1094C121.694 92.0626 121.903 89.8142 121.459 87.6486C121.016 85.483 119.94 83.4976 118.368 81.9434C116.797 80.3892 114.799 79.336 112.629 78.9171C110.458 78.4981 108.212 78.7323 106.175 79.5899C104.138 80.4474 102.401 81.89 101.183 83.7349C99.9656 85.5799 99.3227 87.7445 99.3355 89.955C99.3539 92.9178 100.548 95.7522 102.654 97.8354C104.761 99.9187 107.609 101.08 110.572 101.065ZM104.383 89.9289C104.374 88.7173 104.724 87.53 105.389 86.5175C106.055 85.505 107.006 84.7127 108.122 84.2409C109.238 83.769 110.469 83.6389 111.659 83.867C112.849 84.0951 113.945 84.6711 114.807 85.5221C115.67 86.3731 116.261 87.4609 116.505 88.6477C116.749 89.8346 116.635 91.0672 116.179 92.1895C115.722 93.3118 114.942 94.2735 113.939 94.9526C112.935 95.6318 111.753 95.998 110.541 96.0049C108.921 96.0107 107.363 95.3751 106.209 94.2367C105.056 93.0983 104.399 91.5497 104.383 89.9289ZM105.208 89.9289C105.213 90.9782 105.529 92.0024 106.116 92.8718C106.704 93.7413 107.536 94.4169 108.508 94.8133C109.479 95.2097 110.546 95.309 111.574 95.0986C112.602 94.8882 113.545 94.3776 114.283 93.6314C115.02 92.8851 115.52 91.9369 115.719 90.9066C115.917 89.8762 115.806 88.8102 115.398 87.8432C114.991 86.8763 114.306 86.0519 113.429 85.4745C112.553 84.8971 111.526 84.5926 110.476 84.5994C109.073 84.6086 107.73 85.1738 106.742 86.1711C105.755 87.1685 105.203 88.5167 105.208 89.9203V89.9289ZM105.854 89.9289C105.848 89.0076 106.116 88.1051 106.623 87.3358C107.13 86.5665 107.854 85.9649 108.703 85.6071C109.552 85.2494 110.488 85.1516 111.393 85.3261C112.298 85.5005 113.13 85.9395 113.785 86.5874C114.44 87.2352 114.889 88.0629 115.073 88.9656C115.258 89.8683 115.171 90.8055 114.822 91.6586C114.474 92.5116 113.881 93.2422 113.117 93.7579C112.353 94.2735 111.454 94.5511 110.533 94.5554C109.921 94.5582 109.315 94.4406 108.749 94.2092C108.183 93.9778 107.668 93.6372 107.233 93.2068C106.799 92.7764 106.454 92.2646 106.217 91.7007C105.98 91.1368 105.857 90.5318 105.854 89.9203V89.9289ZM110.537 95.202C111.586 95.1969 112.61 94.8807 113.48 94.2934C114.349 93.7062 115.025 92.8743 115.421 91.903C115.818 90.9317 115.917 89.8647 115.707 88.8368C115.497 87.8089 114.987 86.8665 114.241 86.1286C113.495 85.3907 112.547 84.8906 111.517 84.6915C110.487 84.4924 109.421 84.6033 108.454 85.0101C107.487 85.4169 106.663 86.1014 106.085 86.977C105.507 87.8525 105.202 88.8798 105.208 89.9289C105.219 91.3329 105.786 92.6751 106.785 93.6618C107.784 94.6484 109.133 95.1991 110.537 95.1934V95.202ZM105.854 89.9289C105.848 89.0076 106.116 88.1051 106.623 87.3358C107.13 86.5665 107.854 85.9649 108.703 85.6071C109.552 85.2494 110.488 85.1516 111.393 85.3261C112.298 85.5005 113.13 85.9395 113.785 86.5874C114.44 87.2352 114.889 88.0629 115.073 88.9656C115.258 89.8683 115.171 90.8055 114.822 91.6586C114.474 92.5116 113.881 93.2422 113.117 93.7579C112.353 94.2735 111.454 94.5511 110.533 94.5554C109.921 94.5582 109.315 94.4406 108.749 94.2092C108.183 93.9778 107.668 93.6372 107.233 93.2068C106.799 92.7764 106.454 92.2646 106.217 91.7007C105.98 91.1368 105.857 90.5318 105.854 89.9203V89.9289ZM110.537 95.202C111.586 95.1969 112.61 94.8807 113.48 94.2934C114.349 93.7062 115.025 92.8743 115.421 91.903C115.818 90.9317 115.917 89.8647 115.707 88.8368C115.497 87.8089 114.987 86.8665 114.241 86.1286C113.495 85.3907 112.547 84.8906 111.517 84.6915C110.487 84.4924 109.421 84.6033 108.454 85.0101C107.487 85.4169 106.663 86.1014 106.085 86.977C105.507 87.8525 105.202 88.8798 105.208 89.9289C105.219 91.3329 105.786 92.6751 106.785 93.6618C107.784 94.6484 109.133 95.1991 110.537 95.1934V95.202ZM105.854 89.9289C105.848 89.0076 106.116 88.1051 106.623 87.3358C107.13 86.5665 107.854 85.9649 108.703 85.6071C109.552 85.2494 110.488 85.1516 111.393 85.3261C112.298 85.5005 113.13 85.9395 113.785 86.5874C114.44 87.2352 114.889 88.0629 115.073 88.9656C115.258 89.8683 115.171 90.8055 114.822 91.6586C114.474 92.5116 113.881 93.2422 113.117 93.7579C112.353 94.2735 111.454 94.5511 110.533 94.5554C109.921 94.5582 109.315 94.4406 108.749 94.2092C108.183 93.9778 107.668 93.6372 107.233 93.2068C106.799 92.7764 106.454 92.2646 106.217 91.7007C105.98 91.1368 105.857 90.5318 105.854 89.9203V89.9289Z" fill="#FF4E33"/>
<path d="M108.298 79.1918L112.594 79.1657L112.338 76.1277L108.515 76.1494L108.298 79.1918Z" fill="#FF4E33"/>
<path d="M116.483 80.5936L119.538 83.6099L121.509 81.2793L118.792 78.5972L116.483 80.5936Z" fill="#FF4E33"/>
<path d="M121.283 87.3683L121.309 91.6649L124.347 91.4132L124.325 87.5897L121.283 87.3683Z" fill="#FF4E33"/>
<path d="M119.885 95.5579L116.865 98.6133L119.195 100.584L121.882 97.8625L119.885 95.5579Z" fill="#FF4E33"/>
<path d="M113.106 100.358L108.81 100.38L109.066 103.422L112.885 103.4L113.106 100.358Z" fill="#FF4E33"/>
<path d="M104.917 98.9561L101.861 95.9355L99.8954 98.2661L102.612 100.953L104.917 98.9561Z" fill="#FF4E33"/>
<path d="M100.121 92.177L100.095 87.8804L97.0527 88.1365L97.0744 91.96L100.121 92.177Z" fill="#FF4E33"/>
<path d="M101.518 83.9918L104.539 80.9365L102.209 78.9661L99.5221 81.683L101.518 83.9918Z" fill="#FF4E33"/>
<g opacity="0.5">
<path d="M97.0613 78.033C96.7605 76.7258 96.0789 75.5371 95.1026 74.6172C94.1263 73.6973 92.8993 73.0875 91.5765 72.8649C90.2537 72.6423 88.8946 72.8168 87.671 73.3665C86.4474 73.9161 85.4143 74.8162 84.7021 75.953C83.99 77.0897 83.6309 78.4121 83.6701 79.7529C83.7094 81.0937 84.1453 82.3927 84.9228 83.4858C85.7003 84.579 86.7843 85.417 88.038 85.8941C89.2917 86.3712 90.6587 86.4659 91.9662 86.1662C92.8349 85.9671 93.6559 85.5987 94.3823 85.0821C95.1086 84.5655 95.726 83.9108 96.1992 83.1555C96.6724 82.4002 96.9921 81.559 97.14 80.6801C97.2879 79.8011 97.2612 78.9016 97.0613 78.033ZM91.2804 83.1976C90.5635 83.3627 89.8137 83.3114 89.1259 83.0503C88.4381 82.7891 87.8432 82.3299 87.4164 81.7306C86.9896 81.1313 86.7502 80.419 86.7283 79.6836C86.7065 78.9482 86.9032 78.2229 87.2936 77.5993C87.684 76.9757 88.2506 76.482 88.9216 76.1804C89.5927 75.8789 90.3381 75.7832 91.0636 75.9053C91.7891 76.0275 92.4621 76.362 92.9974 76.8667C93.5327 77.3713 93.9064 78.0234 94.071 78.7405C94.2906 79.7015 94.1201 80.7103 93.597 81.5459C93.0739 82.3814 92.2408 82.9754 91.2804 83.1976Z" fill="#FF4E33"/>
<path d="M87.7217 73.5021L90.2649 72.9205L89.7137 71.1498L87.4526 71.6706L87.7217 73.5021Z" fill="#FF4E33"/>
<path d="M92.7604 73.246L94.9694 74.6348L95.8288 72.9899L93.8627 71.7617L92.7604 73.246Z" fill="#FF4E33"/>
<path d="M96.5015 76.6312L97.0874 79.1701L98.8537 78.6189L98.3329 76.3578L96.5015 76.6312Z" fill="#FF4E33"/>
<path d="M96.7575 81.6656L95.373 83.879L97.0136 84.734L98.2461 82.7679L96.7575 81.6656Z" fill="#FF4E33"/>
<path d="M93.3767 85.4067L90.8334 85.9926L91.3846 87.759L93.6501 87.2382L93.3767 85.4067Z" fill="#FF4E33"/>
<path d="M88.3379 85.6627L86.1288 84.2783L85.2695 85.9188L87.2356 87.1513L88.3379 85.6627Z" fill="#FF4E33"/>
<path d="M84.5968 82.2819L84.011 79.7386L82.2446 80.2942L82.7654 82.5553L84.5968 82.2819Z" fill="#FF4E33"/>
<path d="M84.3408 77.2431L85.7253 75.0341L84.0847 74.1747L82.8522 76.1408L84.3408 77.2431Z" fill="#FF4E33"/>
</g>
<g opacity="0.5">
<path d="M126.526 71.4796C126.424 70.3322 125.985 69.2407 125.263 68.343C124.541 67.4453 123.57 66.7818 122.471 66.4363C121.372 66.0909 120.195 66.079 119.09 66.4022C117.984 66.7254 116.999 67.3692 116.259 68.2521C115.52 69.1351 115.058 70.2175 114.934 71.3626C114.809 72.5077 115.027 73.6641 115.56 74.6854C116.092 75.7068 116.916 76.5473 117.926 77.1006C118.936 77.654 120.088 77.8954 121.235 77.7943C121.997 77.7277 122.739 77.5115 123.418 77.1579C124.096 76.8044 124.698 76.3205 125.19 75.734C125.681 75.1475 126.052 74.4698 126.281 73.7398C126.511 73.0098 126.594 72.2417 126.526 71.4796ZM121.005 75.1729C120.376 75.2287 119.745 75.0967 119.191 74.7938C118.637 74.4909 118.185 74.0306 117.892 73.4711C117.6 72.9115 117.48 72.2778 117.547 71.65C117.615 71.0222 117.867 70.4285 118.271 69.9438C118.676 69.4592 119.215 69.1053 119.821 68.927C120.427 68.7486 121.072 68.7538 121.674 68.9418C122.277 69.1299 122.811 69.4923 123.208 69.9834C123.604 70.4745 123.847 71.0721 123.904 71.7009C123.942 72.1196 123.898 72.5417 123.773 72.9431C123.648 73.3445 123.445 73.7172 123.175 74.0401C122.906 74.363 122.576 74.6296 122.203 74.8247C121.831 75.0199 121.424 75.1397 121.005 75.1773V75.1729Z" fill="#FF4E33"/>
<path d="M119.117 66.532L121.348 66.3367L121.088 64.77L119.1 64.9436L119.117 66.532Z" fill="#FF4E33"/>
<path d="M123.431 66.9096L125.146 68.3461L126.07 67.0528L124.542 65.7725L123.431 66.9096Z" fill="#FF4E33"/>
<path d="M126.213 70.2254L126.413 72.4561L127.98 72.1957L127.806 70.208L126.213 70.2254Z" fill="#FF4E33"/>
<path d="M125.836 74.5393L124.399 76.2536L125.692 77.178L126.973 75.6503L125.836 74.5393Z" fill="#FF4E33"/>
<path d="M122.52 77.3212L120.289 77.5209L120.554 79.0876L122.537 78.914L122.52 77.3212Z" fill="#FF4E33"/>
<path d="M118.21 76.9437L116.492 75.5071L115.567 76.8005L117.095 78.0808L118.21 76.9437Z" fill="#FF4E33"/>
<path d="M115.424 73.6279L115.229 71.3972L113.662 71.6619L113.835 73.6453L115.424 73.6279Z" fill="#FF4E33"/>
<path d="M115.802 69.3183L117.238 67.5997L115.945 66.6752L114.664 68.2029L115.802 69.3183Z" fill="#FF4E33"/>
</g>
<path d="M127.793 122.119H82.4312V118.043H127.793V122.119ZM82.6569 121.902H127.576V118.26H82.6482L82.6569 121.902Z" fill="#FF4E33"/>
<path d="M84.6967 118.885H83.2688V121.277H84.6967V118.885Z" fill="#FF4E33"/>
<path d="M86.6714 118.885H85.2435V121.277H86.6714V118.885Z" fill="#FF4E33"/>
<path d="M88.6461 118.885H87.2182V121.277H88.6461V118.885Z" fill="#FF4E33"/>
<path d="M90.6165 118.885H89.1886V121.277H90.6165V118.885Z" fill="#FF4E33"/>
<path d="M92.5911 118.885H91.1633V121.277H92.5911V118.885Z" fill="#FF4E33"/>
<path d="M94.5659 118.885H93.138V121.277H94.5659V118.885Z" fill="#FF4E33"/>
<path d="M96.5362 118.885H95.1083V121.277H96.5362V118.885Z" fill="#FF4E33"/>
<path d="M98.5109 118.885H97.0831V121.277H98.5109V118.885Z" fill="#FF4E33"/>
<path d="M100.486 118.885H99.0577V121.277H100.486V118.885Z" fill="#FF4E33"/>
<path d="M102.46 118.885H101.032V121.277H102.46V118.885Z" fill="#FF4E33"/>
<path d="M104.431 118.885H103.003V121.277H104.431V118.885Z" fill="#FF4E33"/>
<path d="M106.405 118.885H104.977V121.277H106.405V118.885Z" fill="#FF4E33"/>
<path d="M96.9919 113.96C96.66 113.96 96.3416 113.828 96.1065 113.594C95.8715 113.359 95.7388 113.042 95.7377 112.71V111.165C95.7371 111.133 95.7428 111.102 95.7546 111.073C95.7664 111.043 95.784 111.017 95.8063 110.994C95.8285 110.972 95.8551 110.955 95.8843 110.943C95.9135 110.931 95.9448 110.925 95.9764 110.926C96.0401 110.926 96.1012 110.951 96.1467 110.996C96.1921 111.04 96.2183 111.101 96.2194 111.165V112.71C96.2194 112.915 96.3008 113.111 96.4457 113.256C96.5905 113.401 96.787 113.482 96.9919 113.482C97.1968 113.482 97.3933 113.401 97.5382 113.256C97.683 113.111 97.7644 112.915 97.7644 112.71V111.165C97.7644 111.133 97.7707 111.101 97.783 111.072C97.7953 111.043 97.8132 111.016 97.8359 110.994C97.8585 110.972 97.8853 110.955 97.9148 110.943C97.9443 110.931 97.9758 110.925 98.0075 110.926C98.039 110.925 98.0703 110.931 98.0995 110.943C98.1287 110.955 98.1553 110.972 98.1776 110.994C98.1999 111.017 98.2174 111.043 98.2292 111.073C98.241 111.102 98.2468 111.133 98.2462 111.165V112.71C98.245 113.042 98.1124 113.359 97.8773 113.594C97.6422 113.828 97.3238 113.96 96.9919 113.96Z" fill="#263238"/>
<path d="M100.282 112.779H99.7478V113.721C99.7399 113.779 99.7112 113.833 99.6669 113.871C99.6226 113.91 99.5658 113.931 99.5069 113.931C99.4481 113.931 99.3912 113.91 99.3469 113.871C99.3026 113.833 99.2739 113.779 99.2661 113.721V111.16C99.2661 111.129 99.2722 111.098 99.2842 111.069C99.2962 111.04 99.3138 111.014 99.336 110.991C99.3581 110.969 99.3844 110.952 99.4134 110.94C99.4424 110.928 99.4734 110.922 99.5048 110.922H100.282C100.404 110.922 100.524 110.946 100.637 110.992C100.75 111.039 100.852 111.107 100.938 111.194C101.025 111.28 101.093 111.382 101.14 111.495C101.186 111.608 101.21 111.728 101.21 111.85C101.21 111.972 101.186 112.093 101.14 112.206C101.093 112.318 101.025 112.421 100.938 112.507C100.852 112.593 100.75 112.662 100.637 112.708C100.524 112.755 100.404 112.779 100.282 112.779ZM99.7478 112.297H100.282C100.4 112.297 100.514 112.25 100.598 112.166C100.682 112.083 100.729 111.969 100.729 111.85C100.729 111.732 100.682 111.618 100.598 111.534C100.514 111.45 100.4 111.403 100.282 111.403H99.7478V112.297Z" fill="#263238"/>
<path d="M101.796 113.721V111.16C101.796 111.129 101.801 111.097 101.813 111.068C101.825 111.039 101.843 111.012 101.865 110.99C101.887 110.968 101.914 110.95 101.943 110.939C101.972 110.927 102.003 110.921 102.035 110.922H102.547C102.95 110.922 103.336 111.082 103.621 111.366C103.906 111.651 104.066 112.038 104.066 112.441C104.066 112.843 103.906 113.23 103.621 113.515C103.336 113.8 102.95 113.96 102.547 113.96H102.035C101.972 113.96 101.911 113.934 101.866 113.89C101.821 113.845 101.796 113.784 101.796 113.721ZM102.278 113.478H102.547C102.822 113.478 103.086 113.369 103.281 113.174C103.475 112.979 103.584 112.716 103.584 112.441C103.584 112.165 103.475 111.902 103.281 111.707C103.086 111.513 102.822 111.403 102.547 111.403H102.278V113.478Z" fill="#263238"/>
<path d="M106.184 113.243H105.112L104.899 113.808C104.881 113.853 104.85 113.891 104.81 113.918C104.77 113.945 104.722 113.96 104.674 113.96C104.647 113.966 104.618 113.966 104.591 113.96C104.561 113.948 104.534 113.932 104.51 113.91C104.487 113.888 104.468 113.862 104.455 113.833C104.442 113.804 104.434 113.773 104.433 113.741C104.432 113.709 104.437 113.677 104.448 113.647L105.407 111.095C105.426 111.05 105.457 111.011 105.499 110.983C105.54 110.956 105.588 110.942 105.637 110.943C105.687 110.942 105.735 110.955 105.776 110.983C105.818 111.01 105.849 111.049 105.867 111.095L106.826 113.647C106.837 113.677 106.843 113.709 106.841 113.741C106.84 113.773 106.833 113.804 106.819 113.833C106.806 113.862 106.787 113.888 106.764 113.91C106.74 113.932 106.713 113.948 106.683 113.96C106.656 113.967 106.628 113.967 106.601 113.96C106.553 113.96 106.506 113.946 106.466 113.918C106.426 113.891 106.396 113.853 106.379 113.808L106.184 113.243ZM106.006 112.766L105.655 111.833L105.303 112.766H106.006Z" fill="#263238"/>
<path d="M108.862 111.408H108.172V113.725C108.172 113.788 108.147 113.849 108.102 113.894C108.057 113.939 107.996 113.964 107.933 113.964C107.87 113.964 107.809 113.939 107.764 113.894C107.72 113.849 107.694 113.788 107.694 113.725V111.408H107.009C106.945 111.406 106.884 111.38 106.84 111.335C106.795 111.289 106.77 111.228 106.77 111.165C106.769 111.133 106.775 111.102 106.787 111.073C106.799 111.043 106.816 111.017 106.839 110.994C106.861 110.972 106.887 110.955 106.917 110.943C106.946 110.931 106.977 110.925 107.009 110.926H108.862C108.893 110.926 108.924 110.932 108.953 110.944C108.982 110.956 109.008 110.974 109.031 110.996C109.053 111.018 109.07 111.044 109.082 111.073C109.094 111.102 109.101 111.133 109.101 111.165C109.101 111.228 109.076 111.289 109.031 111.335C108.986 111.38 108.926 111.406 108.862 111.408Z" fill="#263238"/>
<path d="M109.817 113.721V111.16C109.816 111.129 109.822 111.097 109.834 111.068C109.845 111.039 109.863 111.012 109.885 110.99C109.908 110.968 109.934 110.95 109.963 110.939C109.993 110.927 110.024 110.921 110.055 110.922H111.475C111.538 110.922 111.599 110.947 111.643 110.991C111.688 111.036 111.713 111.097 111.713 111.16C111.713 111.224 111.688 111.285 111.644 111.331C111.599 111.376 111.538 111.402 111.475 111.403H110.32V112.198H111.331C111.39 112.205 111.443 112.234 111.482 112.278C111.521 112.323 111.542 112.38 111.542 112.438C111.542 112.497 111.521 112.554 111.482 112.598C111.443 112.643 111.39 112.671 111.331 112.679H110.32V113.478H111.496C111.555 113.486 111.608 113.514 111.647 113.559C111.685 113.603 111.707 113.66 111.707 113.719C111.707 113.778 111.685 113.834 111.647 113.879C111.608 113.923 111.555 113.952 111.496 113.96H110.077C110.044 113.963 110.011 113.959 109.979 113.948C109.947 113.937 109.919 113.92 109.894 113.898C109.87 113.875 109.85 113.848 109.837 113.818C109.823 113.787 109.816 113.754 109.817 113.721Z" fill="#263238"/>
<path d="M112.616 113.343C112.702 113.344 112.784 113.379 112.845 113.44C112.906 113.501 112.94 113.583 112.941 113.669C112.94 113.754 112.905 113.836 112.845 113.896C112.784 113.956 112.701 113.99 112.616 113.99C112.531 113.99 112.449 113.956 112.389 113.896C112.329 113.836 112.295 113.754 112.295 113.669C112.295 113.583 112.328 113.501 112.389 113.44C112.449 113.379 112.53 113.344 112.616 113.343Z" fill="#263238"/>
<path d="M113.614 113.343C113.7 113.344 113.782 113.379 113.843 113.44C113.904 113.501 113.939 113.583 113.94 113.669C113.938 113.754 113.904 113.836 113.843 113.896C113.782 113.956 113.7 113.99 113.614 113.99C113.529 113.99 113.447 113.956 113.387 113.896C113.327 113.836 113.293 113.754 113.293 113.669C113.293 113.583 113.327 113.501 113.387 113.44C113.447 113.379 113.529 113.344 113.614 113.343Z" fill="#263238"/>
<path d="M114.612 113.343C114.698 113.344 114.78 113.379 114.841 113.44C114.902 113.501 114.937 113.583 114.938 113.669C114.937 113.754 114.902 113.836 114.841 113.896C114.78 113.956 114.698 113.99 114.612 113.99C114.527 113.99 114.445 113.956 114.385 113.896C114.325 113.836 114.291 113.754 114.291 113.669C114.291 113.583 114.325 113.501 114.385 113.44C114.445 113.379 114.527 113.344 114.612 113.343Z" fill="#263238"/>
<path d="M171.039 142.387C164.347 153.797 153.84 163.991 151.054 165.029C148.016 166.157 136.71 162.694 131.09 160.667C129.25 160.003 133.012 147.039 134.996 146.371C136.979 145.702 145.742 151.023 147.851 150.507C148.515 150.346 160.189 143.537 166.6 139.249C172.571 135.252 173.071 138.923 171.039 142.387Z" fill="#AD6359"/>
<path d="M131.91 163.063L136.983 145.98C136.983 145.98 145.807 150.151 147.269 149.821C148.732 149.491 162.268 141.167 167.199 138.424C172.129 135.681 175.857 137.426 169.594 146.015C162.837 155.285 155.007 164.134 151.943 165.389C147.907 167.034 131.91 163.063 131.91 163.063Z" fill="#FF4E33"/>
<path d="M151.054 157.069C150.827 157.624 150.681 158.209 150.62 158.805C150.984 158.32 151.277 157.785 151.488 157.217C151.716 156.662 151.862 156.077 151.922 155.481C151.561 155.968 151.269 156.502 151.054 157.069ZM150.546 148.15L150.073 148.415C150.509 148.561 150.96 148.654 151.418 148.693C151.146 148.484 150.854 148.302 150.546 148.15ZM143.194 162.316C142.639 162.088 142.055 161.942 141.458 161.882C142.438 162.603 143.591 163.052 144.8 163.184C144.309 162.82 143.768 162.527 143.194 162.316ZM141.05 152.334C140.808 151.781 140.491 151.264 140.108 150.798C140.299 151.998 140.804 153.127 141.571 154.07C141.48 153.47 141.305 152.885 141.05 152.334ZM159.226 148.532C158.671 148.77 158.152 149.086 157.685 149.47C158.285 149.381 158.87 149.207 159.421 148.953C159.978 148.717 160.497 148.401 160.962 148.016C160.365 148.103 159.784 148.274 159.235 148.524L159.226 148.532ZM133.594 157.368L133.433 157.911C133.903 157.694 134.341 157.413 134.735 157.078C134.349 157.131 133.969 157.225 133.603 157.36L133.594 157.368Z" fill="white"/>
<path d="M136.05 162.711C136.286 162.119 136.486 161.513 136.649 160.897C136.823 160.359 137.005 159.821 137.174 159.274C137.543 158.089 137.917 156.904 138.277 155.719C138.637 154.534 139.006 153.35 139.353 152.165C139.7 150.98 140.091 149.808 140.373 148.606C140.376 148.596 140.375 148.585 140.369 148.575C140.364 148.566 140.355 148.559 140.345 148.556C140.334 148.553 140.323 148.555 140.314 148.56C140.305 148.565 140.298 148.574 140.295 148.584C139.783 149.704 139.388 150.884 138.993 152.056C138.598 153.228 138.22 154.365 137.86 155.528C137.5 156.691 137.166 157.907 136.849 159.1C136.693 159.677 136.562 160.259 136.415 160.836C136.237 161.45 136.099 162.075 136.003 162.707C136.005 162.71 136.008 162.714 136.012 162.716C136.016 162.719 136.021 162.72 136.025 162.72C136.03 162.721 136.035 162.72 136.039 162.719C136.043 162.717 136.047 162.714 136.05 162.711Z" fill="#263238"/>
<path opacity="0.1" d="M139.857 164.742C144.496 165.575 149.839 166.244 151.939 165.384C155.007 164.134 162.837 155.29 169.599 146.015C173.574 140.555 173.505 137.864 171.682 137.335L139.857 164.742Z" fill="black"/>
<path d="M142.821 118.742C142.359 116.797 141.364 115.02 139.947 113.61C138.53 112.2 136.748 111.213 134.8 110.761L136.832 119.32L132.565 122.076L127.518 121.52L125.487 112.957C124.016 114.183 122.899 115.779 122.252 117.58C121.605 119.382 121.45 121.324 121.805 123.205C122.16 125.087 123.011 126.839 124.27 128.281C125.53 129.723 127.151 130.803 128.968 131.408C130.784 132.013 132.729 132.122 134.601 131.724C136.474 131.325 138.206 130.434 139.619 129.142C141.031 127.849 142.073 126.203 142.636 124.373C143.199 122.544 143.263 120.597 142.821 118.734V118.742Z" fill="#DBDBDB"/>
<path d="M136.163 183.795C136.625 185.74 137.62 187.517 139.037 188.928C140.454 190.338 142.236 191.324 144.183 191.776L142.152 183.217L146.414 180.462L151.466 181.008L153.497 189.571C154.968 188.346 156.085 186.75 156.732 184.948C157.379 183.146 157.534 181.204 157.179 179.323C156.824 177.442 155.973 175.689 154.713 174.247C153.454 172.805 151.833 171.726 150.016 171.12C148.2 170.515 146.255 170.406 144.383 170.805C142.51 171.203 140.778 172.094 139.365 173.387C137.953 174.679 136.911 176.325 136.348 178.155C135.785 179.985 135.721 181.932 136.163 183.795Z" fill="#DBDBDB"/>
<path d="M137.84 123.531L128.525 125.741L140.592 176.591L149.908 174.381L137.84 123.531Z" fill="#DBDBDB"/>
<path d="M138.645 139.139L134.811 140.049L139.78 160.989L143.614 160.08L138.645 139.139Z" fill="#C7C7C7"/>
<path d="M140.334 159.994C141.202 158.341 138.763 158.258 138.763 158.258C138.763 158.258 142.339 157.551 142.595 155.489C142.838 153.506 139.865 153.488 139.653 153.484C139.839 153.445 143.125 152.707 143.155 150.611C143.198 148.441 140.208 148.927 140.017 148.958C140.182 148.866 142.365 147.599 142.04 145.998C141.475 143.25 134.931 146.336 132.782 145.598L131.433 141.584C131.275 142.663 130.807 143.673 130.087 144.492C129.089 145.703 128.412 146.505 128.199 147.465C128.087 147.893 128.117 148.347 128.284 148.757C128.45 149.168 128.745 149.513 129.124 149.743C129.124 149.743 127.266 150.455 127.179 152.108C127.136 152.955 128.451 153.775 128.451 153.775C128.451 153.775 126.988 154.409 127.001 155.884C127.001 157.06 128.325 157.703 128.325 157.703C128.325 157.703 127.201 158.961 127.6 160.159C128.395 162.559 138.446 163.536 140.334 159.994Z" fill="#AD6359"/>
<path d="M132.331 144.704L131.463 141.645C131.407 141.54 131.346 141.432 131.285 141.336C129.154 137.864 123.985 137.213 124.732 140.034C125.296 142.183 128.885 143.342 129.145 145.624L132.331 144.704Z" fill="#AD6359"/>
<path d="M128.52 157.811C128.514 157.811 128.507 157.814 128.502 157.819C128.497 157.824 128.494 157.83 128.494 157.837C128.494 157.844 128.497 157.851 128.502 157.856C128.507 157.86 128.514 157.863 128.52 157.863C131.741 158.987 135.625 159.239 138.936 158.258C139.045 158.223 139.036 158.037 138.91 158.05C135.454 158.478 131.954 158.397 128.52 157.811Z" fill="#263238"/>
<path d="M128.399 153.771C128.36 153.771 128.347 153.827 128.399 153.84C131.723 154.981 136.102 155.142 139.761 153.567C139.887 153.51 139.943 153.337 139.796 153.389C137.274 154.252 131.602 154.361 128.399 153.771Z" fill="#263238"/>
<path d="M140.234 148.741C136.671 150.116 133.021 150.216 129.258 149.778C129.21 149.778 129.206 149.839 129.258 149.856C131.038 150.572 133.464 150.602 135.356 150.463C137.11 150.369 138.808 149.817 140.282 148.862C140.343 148.827 140.312 148.71 140.234 148.741Z" fill="#263238"/>
<path d="M52.2016 199.983C53.4602 200.465 89.9856 201.129 91.4178 200.313C91.574 200.222 91.5306 198.611 92.0688 194.441C92.0948 194.241 92.9368 193.469 94.2388 192.375C99.1256 188.282 110.605 179.65 110.605 179.65L92.3769 163.813L74.7131 181.173L70.1171 185.687C70.1171 185.687 55.1918 193.746 53.7162 194.801C52.2406 195.856 50.9473 199.501 52.2016 199.983Z" fill="#AD6359"/>
<path d="M52.2059 199.983C53.4645 200.469 89.9899 201.129 91.4178 200.313C91.5697 200.222 91.5263 198.611 92.0688 194.441C92.0905 194.241 92.9368 193.469 94.2388 192.375C95.9357 190.951 96.743 190.3 99.2689 188.334L76.0933 179.815L74.7045 181.178L70.1127 185.691C70.1127 185.691 55.1875 193.751 53.7119 194.805C52.2363 195.86 50.943 199.501 52.2059 199.983Z" fill="#EBEBEB"/>
<path d="M49.6887 200.508C50.956 200.942 89.8727 201.376 91.2746 200.508C91.6044 200.304 91.9039 198.047 92.1426 194.949C92.1729 194.562 96.1137 191.411 96.6518 190.826L72.8079 182.797L69.7959 185.626C69.7959 185.626 52.2449 193.794 50.8084 194.905C49.3719 196.016 48.4171 200.044 49.6887 200.508Z" fill="#FF4E33"/>
<path d="M50.2269 199.032C56.3419 198.954 83.4626 199.215 89.5125 199.601C89.5603 199.601 89.5603 199.64 89.5125 199.64C83.4365 199.853 56.3332 199.393 50.2269 199.132C50.0967 199.128 50.0967 199.037 50.2269 199.032Z" fill="#263238"/>
<path d="M67.8516 185.869C70.2646 185.435 73.2028 185.869 75.0213 187.605C75.0907 187.67 74.9952 187.77 74.9171 187.744C72.6273 186.974 70.2615 186.451 67.8603 186.186C67.8395 186.187 67.8187 186.183 67.7993 186.176C67.7799 186.168 67.7621 186.157 67.747 186.143C67.7319 186.128 67.7197 186.111 67.7112 186.092C67.7027 186.073 67.6981 186.053 67.6975 186.032C67.6969 186.011 67.7005 185.99 67.7079 185.971C67.7153 185.952 67.7265 185.934 67.7408 185.919C67.7551 185.904 67.7723 185.891 67.7913 185.883C67.8103 185.874 67.8308 185.87 67.8516 185.869Z" fill="#263238"/>
<path d="M66.1069 186.893C68.5156 186.459 71.4538 186.893 73.2723 188.629C73.3417 188.699 73.2462 188.794 73.1681 188.768C70.8776 188.002 68.512 187.481 66.1113 187.215C66.0687 187.215 66.0276 187.199 65.9971 187.169C65.9665 187.139 65.9491 187.099 65.9485 187.056C65.9479 187.014 65.9643 186.973 65.994 186.942C66.0237 186.912 66.0643 186.894 66.1069 186.893Z" fill="#263238"/>
<path d="M64.3579 187.922C66.7666 187.488 69.7048 187.922 71.5232 189.636C71.5927 189.706 71.4972 189.806 71.4191 189.78C69.1291 189.011 66.7633 188.49 64.3622 188.226C64.3423 188.226 64.3225 188.222 64.3039 188.215C64.2854 188.208 64.2685 188.197 64.2542 188.183C64.2253 188.155 64.2087 188.116 64.2081 188.076C64.2076 188.036 64.223 187.997 64.2511 187.968C64.2792 187.939 64.3176 187.923 64.3579 187.922Z" fill="#263238"/>
<path d="M62.6089 188.946C65.0176 188.512 67.9557 188.946 69.7742 190.682C69.8436 190.747 69.7482 190.847 69.67 190.821C67.3795 190.054 65.0139 189.534 62.6132 189.267C62.5706 189.268 62.5295 189.252 62.499 189.222C62.4685 189.192 62.451 189.152 62.4505 189.109C62.4499 189.066 62.4662 189.025 62.4959 188.995C62.5257 188.964 62.5663 188.947 62.6089 188.946Z" fill="#263238"/>
<path d="M64.5141 183.691C66.1981 185.036 68.4201 185.6 70.3862 186.36C70.5901 186.438 70.7551 186.247 70.7681 186.065C70.7781 186.064 70.7878 186.061 70.7964 186.056C70.805 186.051 70.8123 186.043 70.8178 186.035C70.8232 186.027 70.8267 186.017 70.8278 186.007C70.829 185.997 70.8279 185.987 70.8245 185.978C70.1174 183.839 68.8619 181.924 67.1832 180.423C66.1894 179.555 64.436 178.964 63.4769 180.253C62.5698 181.473 63.529 182.909 64.5141 183.691ZM63.9239 181.751C63.5333 179.107 66.35 180.522 67.0574 181.182C67.5072 181.618 67.9277 182.083 68.316 182.575C69.1362 183.586 69.8003 184.693 70.512 185.774C69.5616 185.34 68.5851 184.993 67.6216 184.598C66.4758 184.125 64.1409 183.209 63.9239 181.751Z" fill="#263238"/>
<path d="M78.8969 182.406C78.3327 180.9 76.4795 180.995 75.286 181.538C73.2538 182.516 71.5157 184.013 70.2472 185.878C70.2413 185.886 70.2375 185.896 70.236 185.906C70.2346 185.917 70.2356 185.927 70.239 185.937C70.2424 185.946 70.2481 185.955 70.2555 185.962C70.263 185.97 70.2721 185.975 70.282 185.978C70.2667 186.022 70.2624 186.07 70.2693 186.117C70.2763 186.163 70.2943 186.208 70.322 186.246C70.3496 186.284 70.386 186.315 70.4281 186.337C70.4703 186.358 70.5169 186.369 70.5641 186.368C72.6733 186.186 74.9518 186.255 76.9439 185.435C78.12 184.94 79.422 183.829 78.8969 182.406ZM73.6889 185.444C72.6559 185.557 71.6187 185.618 70.5858 185.769C71.5709 184.932 72.5171 184.033 73.5847 183.309C74.095 182.946 74.6285 182.617 75.1818 182.323C76.0498 181.889 79.1442 181.304 78.0332 183.738C77.4386 185.058 74.9431 185.292 73.7062 185.427L73.6889 185.444Z" fill="#263238"/>
<path d="M74.4484 180.21L96.9773 191.884C96.9773 191.884 120.452 170.618 122.583 170.48C124.714 170.341 156.314 191.746 172.211 191.815C188.677 191.884 189.51 174.633 189.51 174.633L165.493 169.117C148.176 160.584 130.139 145.247 118.343 146.683C105.553 148.237 74.4484 180.21 74.4484 180.21Z" fill="#37474F"/>
<path d="M74.4484 180.21L96.9773 191.884C96.9773 191.884 120.452 170.618 122.583 170.48C124.714 170.341 156.314 191.746 172.211 191.815C188.677 191.884 189.51 174.633 189.51 174.633L165.493 169.117C148.176 160.584 130.139 145.247 118.343 146.683C105.553 148.237 74.4484 180.21 74.4484 180.21Z" fill="#37474F"/>
<path d="M79.9515 177.237C83.7534 179.116 82.6857 178.539 86.4615 180.444C88.3147 181.386 97.6327 186.086 99.2124 187.249C99.2192 187.256 99.2237 187.264 99.2252 187.274C99.2267 187.283 99.2252 187.293 99.2208 187.301C99.2163 187.309 99.2093 187.316 99.2008 187.32C99.1922 187.324 99.1826 187.325 99.1734 187.323C97.3115 186.698 88.0977 181.798 86.2662 180.813C82.5165 178.821 83.6145 179.355 79.8864 177.341C79.8726 177.332 79.8628 177.319 79.8591 177.303C79.8555 177.287 79.8582 177.27 79.8669 177.256C79.8755 177.243 79.8893 177.233 79.9051 177.229C79.921 177.226 79.9377 177.228 79.9515 177.237Z" fill="#263238"/>
<path d="M100.97 186.503C105.375 182.597 119.806 169.972 120.392 169.503C120.848 169.069 121.353 168.691 121.898 168.375C122.122 168.286 122.364 168.251 122.605 168.27C122.846 168.29 123.079 168.364 123.286 168.487C123.955 168.8 124.588 169.138 125.27 169.464L129.176 171.369C134.228 173.834 139.245 176.36 144.331 178.747C149.222 181.039 152.716 183.196 157.824 184.958C162.902 186.75 168.155 188.003 173.496 188.695C174.156 188.777 174.798 188.846 175.475 188.907C175.523 188.907 175.523 188.985 175.475 188.981C170.234 188.672 165.052 187.709 160.051 186.112C154.986 184.558 151.553 182.536 146.748 180.327C141.766 178.031 136.853 175.579 131.945 173.14C129.341 171.838 126.763 170.536 124.163 169.277C123.573 168.987 122.735 168.362 122.063 168.67C121.781 168.827 121.52 169.02 121.286 169.243L120.418 169.963C119.307 170.892 101.612 186.13 101.035 186.568C100.987 186.62 100.927 186.538 100.97 186.503Z" fill="#263238"/>
<path d="M86.8825 186.655L116.711 174.689C109.09 180.922 96.9773 191.884 96.9773 191.884L86.8825 186.655Z" fill="#263238"/>
<path d="M189.528 174.633C189.528 174.633 188.695 191.884 172.229 191.815C158.41 191.759 132.687 175.562 124.831 171.417L151.032 160.919C155.806 163.839 160.693 166.738 165.515 169.117L189.528 174.633Z" fill="#263238"/>
<path d="M189.528 174.633C189.528 174.633 191.932 192.193 183.886 197.96C175.839 203.728 118.855 200.478 110.331 197.301C101.808 194.124 102.151 180.149 111.751 177.337C120.865 174.659 159.209 174.854 160.172 174.52C160.411 174.433 156.878 172.098 156.9 171.968L164.603 167.58L189.528 174.633Z" fill="#37474F"/>
<path d="M178.131 175.596C178.131 175.531 178.248 175.557 178.244 175.596C178.166 177.405 178.725 179.183 179.824 180.622C181.082 182.206 182.996 183.152 184.728 184.125C184.893 184.216 184.754 184.48 184.58 184.42C183.507 184.038 182.48 183.538 181.516 182.931C180.628 182.408 179.856 181.708 179.251 180.874C178.71 180.119 178.332 179.26 178.139 178.352C177.947 177.444 177.944 176.506 178.131 175.596Z" fill="#263238"/>
<path d="M160.862 172.901C161.296 172.415 161.73 171.951 162.164 171.482C163.188 170.362 164.221 169.243 165.289 168.171C165.393 168.067 165.575 168.227 165.48 168.336C164.751 169.204 163.987 170.046 163.232 170.892L162.064 172.194C161.66 172.578 161.295 173.001 160.975 173.457C160.684 173.947 161.018 174.386 161.53 174.464C161.989 174.495 162.442 174.351 162.798 174.06C163.601 173.408 164.34 172.681 165.007 171.89C165.438 171.447 165.872 171.006 166.309 170.566C166.773 170.102 167.268 169.659 167.728 169.195C167.758 169.165 167.815 169.195 167.784 169.247C167.376 169.759 166.995 170.297 166.587 170.809C166.179 171.322 165.758 171.829 165.337 172.333C164.916 172.836 164.525 173.275 164.104 173.73C163.75 174.133 163.332 174.475 162.867 174.741C162.108 175.145 160.819 175.175 160.467 174.208C160.411 173.974 160.417 173.73 160.487 173.501C160.556 173.271 160.686 173.064 160.862 172.901Z" fill="#263238"/>
<path d="M111.503 197.405C114.481 197.592 117.449 197.895 120.422 198.091C123.395 198.286 126.329 198.429 129.284 198.525C135.221 198.733 141.161 198.765 147.104 198.62C153.107 198.468 159.586 198.16 165.567 197.596C168.427 197.331 171.326 197.127 174.16 196.65C176.708 196.28 179.098 195.19 181.047 193.508C185.062 189.944 186.802 184.519 187.649 179.303C187.761 178.604 187.861 177.901 187.948 177.198C187.951 177.19 187.956 177.184 187.962 177.179C187.969 177.174 187.977 177.172 187.985 177.172C187.993 177.172 188.001 177.174 188.008 177.179C188.014 177.184 188.019 177.19 188.022 177.198C187.436 182.558 186.351 188.13 182.779 192.301C181.268 194.125 179.302 195.517 177.081 196.337C174.373 197.288 171.404 197.405 168.579 197.661C162.576 198.208 156.071 198.529 150.047 198.746C144.023 198.963 137.921 198.976 131.858 198.794C125.795 198.611 119.741 198.264 113.704 197.7C112.966 197.631 112.232 197.557 111.499 197.457C111.494 197.461 111.487 197.463 111.481 197.464C111.474 197.464 111.467 197.463 111.461 197.459C111.456 197.456 111.451 197.451 111.448 197.445C111.445 197.439 111.443 197.433 111.444 197.426C111.444 197.42 111.447 197.413 111.451 197.408C111.455 197.403 111.46 197.399 111.467 197.396C111.473 197.394 111.48 197.394 111.486 197.395C111.493 197.397 111.499 197.4 111.503 197.405Z" fill="#263238"/>
<path d="M131.289 175.358C133.177 175.162 135.061 174.976 136.953 174.863C138.845 174.75 140.781 174.663 142.695 174.585C146.479 174.433 150.277 174.312 154.066 174.303C156.236 174.303 158.367 174.381 160.515 174.503C160.584 174.503 160.571 174.607 160.515 174.611C156.717 174.785 152.924 174.854 149.127 174.941C145.329 175.028 141.549 175.188 137.76 175.375C135.612 175.484 133.468 175.544 131.32 175.627C131.15 175.64 131.133 175.371 131.289 175.358Z" fill="#263238"/>
<path d="M156.453 171.751C157.935 172.468 159.353 173.311 160.693 174.268C162.063 175.171 163.368 176.169 164.599 177.254C164.634 177.289 164.599 177.328 164.547 177.311C163.106 176.564 161.726 175.649 160.359 174.772C158.972 173.913 157.639 172.97 156.366 171.951C156.266 171.864 156.331 171.695 156.453 171.751Z" fill="#263238"/>
<path d="M157.134 173.018L190.648 176.885C190.648 176.2 183.981 142.478 175.327 137.244C173.665 136.237 170.684 136.298 168.023 138.728C163.184 143.142 156.7 172.563 157.134 173.018Z" fill="#FF4E33"/>
<path d="M178.413 140.343C177.878 140.576 177.379 140.883 176.929 141.254C177.529 141.166 178.113 140.994 178.665 140.742H178.691C178.591 140.616 178.504 140.468 178.413 140.343ZM172.45 163.501C171.896 163.74 171.378 164.057 170.914 164.443C171.514 164.357 172.099 164.184 172.65 163.93C173.204 163.69 173.723 163.373 174.19 162.989C173.588 163.074 173.002 163.247 172.45 163.501ZM187.306 162.52C187.179 162.609 187.058 162.705 186.941 162.806C187.084 162.806 187.223 162.763 187.375 162.733C187.345 162.663 187.327 162.589 187.306 162.52ZM158.688 164.942C158.631 165.189 158.575 165.428 158.519 165.666C158.708 166.028 158.938 166.368 159.204 166.678C159.117 166.077 158.943 165.492 158.688 164.942ZM178.973 154.547C178.733 153.993 178.417 153.475 178.036 153.007C178.122 153.607 178.294 154.192 178.548 154.743C178.786 155.296 179.102 155.814 179.485 156.279C179.399 155.68 179.226 155.097 178.973 154.547ZM170.844 137.001L170.762 137.031L170.87 137.161C170.866 137.107 170.857 137.054 170.844 137.001ZM165.588 156.943C165.034 156.715 164.449 156.569 163.852 156.509C164.832 157.23 165.985 157.679 167.194 157.811C166.703 157.447 166.162 157.154 165.588 156.943ZM189.992 173.505L189.602 173.34C189.046 173.114 188.462 172.968 187.866 172.906C188.348 173.272 188.882 173.564 189.45 173.774C189.667 173.856 189.884 173.93 190.109 173.995C190.066 173.839 190.031 173.674 189.992 173.505ZM179.954 168.939C179.727 169.494 179.58 170.078 179.52 170.675C180.237 169.695 180.686 168.544 180.822 167.337C180.457 167.827 180.164 168.366 179.954 168.939ZM166.287 171.43C166.059 171.985 165.913 172.569 165.853 173.166C166.565 172.183 167.006 171.031 167.133 169.824C166.776 170.316 166.491 170.857 166.287 171.43ZM169.928 147.321C169.697 147.882 169.55 148.475 169.494 149.079C169.853 148.591 170.145 148.056 170.362 147.491C170.588 146.935 170.734 146.351 170.796 145.755C170.436 146.235 170.143 146.764 169.928 147.326V147.321Z" fill="white"/>
<path d="M178.999 139.666C185.227 144.44 201.636 163.818 198.203 168.414C194.771 173.01 171.265 171.478 164.404 169.499C162.364 168.913 167.602 155.928 169.776 155.285C171.591 154.751 181.768 157.512 181.955 156.921C182.163 156.257 179.906 151.965 176.269 144.118C172.077 135.074 176.247 137.548 178.999 139.666Z" fill="#AD6359"/>
<path d="M159.751 153.033C155.047 153.154 153.857 153.901 149.834 151.9C147.195 150.598 145.221 151.705 147.013 154.196C149.951 158.267 156.049 159.404 158.275 159.165L159.751 153.033Z" fill="#AD6359"/>
<path d="M172.693 155.441C172.693 155.441 167.051 153.428 162.03 153.059C158.558 152.803 150.932 153.094 145.008 161.639C143.606 163.67 143.042 167.554 146.536 165.076C149.023 163.314 150.064 161.448 151.696 160.689C151.696 160.689 151.566 165.714 153.653 167.042C155.476 168.207 157.381 169.238 159.352 170.128C159.597 169.805 159.82 169.465 160.02 169.112C160.02 169.112 162.086 170.167 165.497 169.264L172.693 155.441Z" fill="#AD6359"/>
<path d="M158.675 153.345C157.217 154.443 154.161 156.817 152.338 159.634C150.312 162.759 147.256 169.325 149.578 170.796C151.284 171.873 152.668 169.468 152.668 169.468C152.668 169.468 151.978 172.45 153.732 173.088C155.329 173.669 156.288 171.742 156.288 171.742C156.288 171.742 156.179 173.626 157.824 173.886C159.803 174.203 159.708 170.21 161.986 168.8C162.498 168.483 158.675 153.345 158.675 153.345Z" fill="#AD6359"/>
<path d="M155.997 161.222C154.795 162.477 152.794 166.035 152.633 169.403C152.633 169.477 152.686 169.52 152.703 169.451C153.476 166.59 154.592 163.833 156.027 161.24C156.027 161.24 156.01 161.209 155.997 161.222Z" fill="#263238"/>
<path d="M159.091 163.358C158.167 164.547 156.266 168.305 156.223 171.721C156.223 171.799 156.279 171.838 156.296 171.769C156.919 168.873 157.866 166.057 159.122 163.375L159.091 163.358Z" fill="#263238"/>
<path d="M151.692 160.658C150.264 161.348 149.413 162.242 148.293 163.332C147.745 163.878 147.165 164.393 146.557 164.872C146.002 165.306 145.186 165.953 144.448 165.541C144.27 165.406 144.132 165.225 144.048 165.018C143.964 164.811 143.937 164.585 143.971 164.365C144.052 163.726 144.235 163.105 144.513 162.524C144.513 162.503 144.483 162.481 144.474 162.503C144.2 163.034 143.982 163.593 143.823 164.169C143.721 164.564 143.743 164.98 143.884 165.363C144.24 166.153 145.229 166.101 145.885 165.758C146.271 165.54 146.634 165.284 146.97 164.994C147.295 164.725 147.612 164.438 147.92 164.148C148.554 163.549 149.153 162.915 149.778 162.307C150.389 161.734 151.036 161.199 151.713 160.706C151.716 160.702 151.718 160.696 151.719 160.691C151.719 160.686 151.718 160.681 151.716 160.676C151.714 160.671 151.711 160.667 151.706 160.664C151.702 160.661 151.697 160.659 151.692 160.658Z" fill="#263238"/>
<path d="M149.426 166.448C150.069 164.481 150.837 162.557 151.726 160.689L151.692 160.667C150.707 161.969 149.318 165.215 149.036 166.231C148.754 167.246 148.458 168.505 148.628 169.542C148.888 171.109 149.973 171.23 150.364 171.243C150.835 171.255 151.295 171.101 151.666 170.809C152.094 170.44 152.441 169.987 152.686 169.477C152.686 169.451 152.664 169.429 152.651 169.451C152.217 170.158 151.41 170.918 150.542 170.944C150.351 170.957 150.159 170.932 149.978 170.871C149.797 170.809 149.63 170.711 149.487 170.584C149.192 170.246 149.029 169.813 149.027 169.364C148.994 168.376 149.129 167.39 149.426 166.448Z" fill="#263238"/>
<path d="M172.693 155.441L167.958 171.864C167.958 171.864 197.353 173.539 198.98 168.201C200.608 162.863 186.42 145.39 180.544 140.59C173.717 135.026 173.353 137.361 175.575 142.929C177.901 148.758 181.907 157.078 181.907 157.078L172.693 155.441Z" fill="#FF4E33"/>
<path d="M179.954 168.939C179.727 169.494 179.58 170.078 179.52 170.675C180.237 169.695 180.686 168.544 180.822 167.337C180.457 167.827 180.164 168.366 179.954 168.939ZM186.998 150.759C186.442 150.534 185.858 150.388 185.262 150.325C185.744 150.69 186.278 150.982 186.846 151.193C187.401 151.418 187.985 151.564 188.582 151.627C188.097 151.264 187.564 150.972 186.998 150.759ZM198.095 167.116C197.86 166.559 197.543 166.041 197.153 165.58C197.243 166.179 197.416 166.763 197.665 167.316C197.904 167.871 198.221 168.39 198.607 168.856C198.522 168.254 198.349 167.668 198.095 167.116ZM188.478 161.882C188.068 162.064 187.676 162.282 187.306 162.533C187.179 162.622 187.058 162.718 186.941 162.819C187.084 162.819 187.223 162.776 187.375 162.746C187.822 162.643 188.258 162.498 188.677 162.312C189.232 162.073 189.751 161.758 190.218 161.374C189.616 161.457 189.029 161.628 188.478 161.882ZM172.45 163.514C171.896 163.753 171.378 164.07 170.914 164.456C171.514 164.37 172.099 164.197 172.65 163.944C173.204 163.703 173.723 163.386 174.19 163.002C173.589 163.083 173.003 163.251 172.45 163.501V163.514ZM179.676 139.9C179.264 140.011 178.862 140.156 178.474 140.334L178.422 140.36C177.887 140.593 177.387 140.9 176.937 141.271C177.537 141.184 178.122 141.011 178.673 140.759H178.7C179.116 140.574 179.514 140.35 179.889 140.091L179.676 139.9Z" fill="white"/>
<path d="M191.181 159.712C189.713 159.026 188.197 158.446 186.646 157.976C185.111 157.518 183.544 157.171 181.959 156.939C181.056 156.8 180.145 156.7 179.238 156.6C179.212 156.6 179.207 156.639 179.238 156.644C180.831 156.882 182.409 157.212 183.964 157.633C185.515 158.038 187.054 158.472 188.582 158.935C189.45 159.196 190.318 159.495 191.164 159.803C191.199 159.786 191.216 159.712 191.181 159.712Z" fill="#263238"/>
<path d="M172.762 155.372C172.91 155.372 181.087 156.674 181.36 156.739C181.308 156.631 179.238 152.738 178.93 152.169C178.895 152.113 178.869 152.056 178.838 151.996C178.652 151.752 178.465 151.505 178.292 151.253L177.619 150.277C177.858 150.594 178.096 150.906 178.331 151.223C178.439 151.371 178.543 151.518 178.647 151.657C178.443 151.253 178.239 150.845 178.04 150.437C177.714 149.791 177.415 149.135 177.115 148.471C177.115 148.45 177.141 148.437 177.15 148.471C177.762 149.609 178.404 150.72 179.021 151.852C179.637 152.985 181.959 157.147 181.946 157.143C181.933 157.138 172.91 155.546 172.736 155.502C172.719 155.499 172.704 155.489 172.694 155.474C172.684 155.459 172.681 155.441 172.684 155.424C172.688 155.407 172.698 155.392 172.713 155.382C172.727 155.372 172.745 155.369 172.762 155.372Z" fill="#263238"/>
<path d="M173.886 165.41C174.403 163.579 174.902 161.739 175.488 159.925C175.818 158.896 176.148 157.863 176.486 156.835C176.486 156.796 176.569 156.813 176.56 156.835C176.126 158.696 175.662 160.563 175.132 162.403C174.603 164.243 174.095 166.066 173.539 167.893C173.227 168.93 172.884 169.95 172.506 170.97C172.506 170.97 172.467 170.97 172.472 170.97C172.854 169.099 173.366 167.259 173.886 165.41Z" fill="#263238"/>
<path d="M167.646 172.181C167.85 171.664 168.08 170.927 168.327 170.423C168.383 170.289 168.483 170.297 168.44 170.423C168.292 170.883 168.192 171.391 168.054 171.864C168.461 171.864 168.874 171.864 169.286 171.899L170.714 171.959C171.643 171.999 172.576 172.025 173.505 172.042C175.394 172.077 177.282 172.077 179.168 172.042C182.952 171.971 186.73 171.705 190.487 171.243C191.537 171.109 192.588 170.953 193.629 170.766C194.652 170.597 195.666 170.377 196.667 170.106C196.674 170.106 196.681 170.109 196.686 170.114C196.69 170.119 196.693 170.125 196.693 170.132C196.693 170.139 196.69 170.146 196.686 170.151C196.681 170.156 196.674 170.158 196.667 170.158C195.82 170.488 194.95 170.752 194.063 170.948C193.126 171.152 192.184 171.33 191.233 171.473C189.346 171.764 187.445 171.955 185.539 172.094C181.764 172.369 177.981 172.483 174.19 172.437C173.127 172.437 172.068 172.402 171.005 172.363C170.471 172.363 169.937 172.328 169.403 172.298C168.869 172.268 167.611 172.268 167.646 172.181Z" fill="#263238"/>
<path d="M169.581 143.932C171.499 144.366 174.789 141.436 176.091 139.058C176.178 138.893 175.926 137.179 175.714 135.078C175.588 133.807 175.479 132.383 175.475 131.077C175.475 130.812 167.298 133.095 167.298 133.095C167.772 134.725 168.044 136.407 168.11 138.103C168.107 138.282 168.088 138.461 168.053 138.637V138.728C167.863 139.748 167.728 143.502 169.581 143.932Z" fill="#AD6359"/>
<path d="M174.954 131.116C174.585 133.321 173.218 138.654 168.878 138.772C168.598 138.778 168.318 138.763 168.04 138.728C168.036 138.698 168.036 138.667 168.04 138.637C168.075 138.461 168.094 138.282 168.097 138.103C168.032 136.407 167.759 134.725 167.285 133.095C167.285 133.095 173.166 131.446 174.954 131.116Z" fill="#263238"/>
<path d="M178.018 122.557C178.422 125.548 175.57 133.524 173.244 135.026C169.868 137.196 164.998 136.667 163.332 132.765C161.7 128.985 165.601 118.651 168.14 117.358C171.864 115.444 177.424 118.139 178.018 122.557Z" fill="#AD6359"/>
<path d="M169.182 126.051C169.182 126.051 169.217 126.094 169.208 126.116C168.982 126.641 168.817 127.284 169.234 127.644C169.234 127.644 169.234 127.683 169.234 127.674C168.661 127.366 168.887 126.515 169.182 126.051Z" fill="#263238"/>
<path d="M169.872 125.678C170.74 125.942 170.163 127.691 169.342 127.444C168.522 127.197 169.134 125.456 169.872 125.678Z" fill="#263238"/>
<path d="M166.022 125.074C166.022 125.053 165.97 125.074 165.966 125.109C165.797 125.656 165.532 126.255 164.963 126.268V126.298C165.584 126.416 165.953 125.621 166.022 125.074Z" fill="#263238"/>
<path d="M165.732 124.345C164.885 123.985 164.226 125.704 165.007 126.042C165.788 126.381 166.443 124.649 165.732 124.345Z" fill="#263238"/>
<path d="M170.779 125.083C170.558 124.961 170.344 124.828 170.137 124.684C169.894 124.528 169.703 124.428 169.559 124.15C169.537 124.07 169.541 123.984 169.57 123.906C169.6 123.828 169.654 123.761 169.724 123.716C169.882 123.648 170.055 123.622 170.226 123.642C170.396 123.662 170.559 123.726 170.697 123.829C171.005 123.998 171.242 124.274 171.361 124.606C171.373 124.681 171.366 124.758 171.339 124.83C171.312 124.901 171.267 124.964 171.208 125.013C171.149 125.061 171.078 125.093 171.003 125.105C170.928 125.118 170.85 125.11 170.779 125.083Z" fill="#263238"/>
<path d="M165.354 123.161C165.605 123.192 165.857 123.211 166.109 123.217C166.373 123.273 166.647 123.241 166.89 123.126C166.96 123.076 167.012 123.004 167.036 122.921C167.06 122.839 167.056 122.75 167.025 122.67C166.938 122.519 166.811 122.394 166.658 122.309C166.505 122.224 166.332 122.182 166.157 122.188C165.808 122.137 165.453 122.221 165.163 122.423C165.106 122.476 165.065 122.544 165.043 122.619C165.021 122.693 165.02 122.773 165.039 122.848C165.059 122.924 165.099 122.993 165.154 123.048C165.209 123.103 165.278 123.142 165.354 123.161Z" fill="#263238"/>
<path d="M167.958 131.242C167.794 131.359 167.595 131.416 167.394 131.402C167.194 131.331 167.012 131.217 166.86 131.068C166.86 131.068 166.821 131.068 166.825 131.09C166.866 131.222 166.942 131.341 167.045 131.434C167.148 131.527 167.275 131.589 167.411 131.615C167.531 131.625 167.652 131.599 167.757 131.54C167.862 131.482 167.947 131.393 168.001 131.285C168.036 131.255 167.997 131.229 167.958 131.242Z" fill="#263238"/>
<path d="M167.958 129.428C167.748 129.596 167.505 129.718 167.245 129.788C166.985 129.857 166.714 129.872 166.448 129.831C166.215 129.798 165.989 129.732 165.775 129.636C165.732 129.62 165.692 129.6 165.653 129.575L165.545 129.519C165.518 129.504 165.497 129.48 165.484 129.452C165.472 129.424 165.469 129.392 165.476 129.362C165.482 129.343 165.49 129.324 165.502 129.306V129.263C165.632 128.829 165.888 128.221 165.888 128.221C165.71 128.247 164.816 128.33 164.903 128.117C165.589 126.257 166.461 124.472 167.507 122.787C167.514 122.777 167.525 122.77 167.537 122.768C167.549 122.765 167.562 122.766 167.573 122.772C167.584 122.778 167.592 122.787 167.597 122.799C167.601 122.811 167.602 122.823 167.598 122.835C166.973 124.571 166.048 126.159 165.393 127.878C165.713 127.845 166.036 127.857 166.352 127.913C166.404 127.948 165.836 129.102 165.792 129.293C165.793 129.3 165.793 129.307 165.792 129.315C166.122 129.465 166.479 129.547 166.841 129.556C167.204 129.566 167.564 129.503 167.902 129.371C167.958 129.332 168.006 129.397 167.958 129.428Z" fill="#263238"/>
<path d="M166.096 129.506C166.223 129.881 166.444 130.217 166.739 130.482C166.903 130.62 167.106 130.705 167.32 130.725C167.793 130.756 167.936 130.365 167.975 129.996C167.998 129.803 167.998 129.608 167.975 129.414C167.375 129.646 166.716 129.678 166.096 129.506Z" fill="#263238"/>
<path d="M166.738 130.482C166.903 130.62 167.106 130.705 167.32 130.725C167.793 130.756 167.936 130.365 167.975 129.996C167.745 129.927 167.497 129.937 167.273 130.025C167.049 130.114 166.86 130.274 166.738 130.482Z" fill="#FF9ABB"/>
<path d="M175.926 128.551C174.624 128.312 174.997 125.304 174.997 125.304C174.997 125.304 171.586 125.574 172.393 121.229C172.393 121.229 168.344 121.733 166.244 119.992C164.451 118.508 164.074 114.875 165.94 113.144C166.999 112.163 169.538 111.577 172.367 115.644C172.367 115.644 177.528 113.422 178.135 119.233C178.135 119.233 180.427 119.984 180.253 122.323C179.98 126.016 177.072 128.759 175.926 128.551Z" fill="#263238"/>
<path d="M172.45 120.925C172.452 120.921 172.455 120.917 172.458 120.914C172.462 120.911 172.466 120.909 172.47 120.907C172.475 120.905 172.479 120.905 172.484 120.905C172.489 120.905 172.493 120.906 172.498 120.908C172.502 120.91 172.506 120.913 172.509 120.916C172.512 120.92 172.515 120.924 172.516 120.928C172.518 120.933 172.519 120.938 172.518 120.942C172.518 120.947 172.517 120.952 172.515 120.956C172.103 121.971 171.669 123.078 172.333 124.098C172.631 124.581 173.08 124.953 173.609 125.157C174.139 125.362 174.721 125.388 175.267 125.231C175.332 125.209 175.371 125.313 175.301 125.331C174.768 125.487 174.201 125.482 173.671 125.316C173.141 125.149 172.672 124.83 172.324 124.397C171.465 123.334 171.799 121.997 172.45 120.925Z" fill="#263238"/>
<path d="M175.961 127.865C177.931 127.301 179.589 126.06 180.158 123.998C180.473 123.025 180.412 121.969 179.988 121.038C179.554 120.201 178.765 119.767 178.088 119.172C178.088 119.172 178.088 119.124 178.109 119.137C182.61 121.277 180.375 127.44 176.013 128.104C175.985 128.103 175.958 128.093 175.936 128.075C175.915 128.057 175.9 128.032 175.894 128.005C175.888 127.977 175.891 127.949 175.903 127.923C175.915 127.898 175.936 127.878 175.961 127.865Z" fill="#263238"/>
<path d="M165.328 113.061C167.867 110.648 171.404 113.322 172.459 115.887C171.434 113.912 168.926 111.668 166.569 112.601C163.722 113.73 163.852 118.508 166.678 119.545C166.76 119.576 166.717 119.723 166.626 119.697C163.97 118.951 163.444 114.854 165.328 113.061Z" fill="#263238"/>
<path d="M175.084 128.95C175.084 128.95 177.428 126.641 178.513 127.527C179.598 128.412 177.489 131.997 175.978 132.257C175.787 132.304 175.588 132.313 175.393 132.281C175.199 132.249 175.013 132.179 174.846 132.073C174.679 131.968 174.536 131.83 174.424 131.668C174.312 131.505 174.234 131.322 174.195 131.129L175.084 128.95Z" fill="#AD6359"/>
<path d="M177.884 128.538V128.577C176.816 128.794 176.126 129.618 175.583 130.504C175.66 130.416 175.754 130.345 175.86 130.296C175.966 130.248 176.081 130.223 176.198 130.223C176.314 130.223 176.429 130.248 176.535 130.296C176.641 130.345 176.735 130.416 176.812 130.504C176.816 130.509 176.819 130.516 176.819 130.522C176.819 130.529 176.817 130.536 176.813 130.541C176.809 130.547 176.803 130.551 176.797 130.553C176.79 130.555 176.783 130.554 176.777 130.552C176.612 130.465 176.425 130.43 176.24 130.454C176.055 130.477 175.882 130.557 175.744 130.682C175.518 130.893 175.314 131.127 175.136 131.381C175.071 131.463 174.919 131.381 174.971 131.289V131.268C175.193 130 176.504 128.416 177.884 128.538Z" fill="#263238"/>
<path d="M163.939 176.295H129.228V177.849H163.939V176.295Z" fill="#C7C7C7"/>
<path d="M129.228 176.295V177.849H152.824L151.635 176.295H129.228Z" fill="#A6A6A6"/>
<path d="M150.138 177.849H116.308L113.491 154.873H147.321L150.138 177.849Z" fill="#A6A6A6"/>
<path d="M148.58 177.849H114.745L111.929 154.873H145.763L148.58 177.849Z" fill="#C7C7C7"/>
<path d="M132.318 166.122C132.365 166.377 132.362 166.638 132.307 166.891C132.252 167.144 132.148 167.383 131.999 167.595C131.851 167.808 131.662 167.988 131.443 168.126C131.225 168.265 130.98 168.358 130.725 168.401C130.2 168.442 129.68 168.277 129.274 167.941C128.869 167.604 128.611 167.123 128.555 166.6C128.508 166.345 128.511 166.084 128.566 165.832C128.62 165.579 128.724 165.34 128.872 165.128C129.02 164.916 129.209 164.735 129.427 164.597C129.645 164.458 129.889 164.364 130.144 164.321C130.669 164.281 131.189 164.446 131.595 164.782C132.001 165.118 132.26 165.599 132.318 166.122Z" fill="white"/>
</svg>
