<svg width="30" height="30" viewBox="0 0 30 30" fill="none" xmlns="http://www.w3.org/2000/svg">
<path d="M19.4858 2.12207C18.2345 2.27213 17.0874 2.89325 16.2778 3.85907C15.8779 4.31136 15.5777 4.8428 15.3968 5.41878C15.2159 5.99476 15.1583 6.60236 15.2278 7.20207C15.857 7.18767 16.4749 7.03145 17.0353 6.74507C17.5958 6.45869 18.0844 6.04954 18.4648 5.54808C18.8528 5.07273 19.1427 4.52524 19.318 3.93721C19.4932 3.34918 19.5503 2.73226 19.4858 2.12207Z" fill="white"/>
<path d="M25.254 9.82008C24.6976 9.01656 23.965 8.35063 23.1122 7.87303C22.2595 7.39543 21.3089 7.11876 20.3331 7.06409C18.0231 7.06409 17.046 8.23108 15.441 8.23108C13.787 8.23108 12.5291 7.06708 10.5311 7.06708C9.41885 7.14073 8.34315 7.49352 7.40334 8.09285C6.46354 8.69218 5.68995 9.51871 5.15406 10.4961C3.29206 13.5431 3.61005 19.2721 6.62905 24.1521C7.70905 25.8981 9.15205 27.8611 11.0391 27.8781C12.7181 27.8951 13.1911 26.7421 15.4661 26.7301C17.7411 26.7181 18.172 27.8941 19.847 27.8751C21.736 27.8601 23.2571 25.6841 24.3371 23.9381C24.9922 22.8936 25.5489 21.7905 26.0001 20.6431C24.9793 20.1913 24.1012 19.4696 23.4604 18.5556C22.8196 17.6416 22.4404 16.5701 22.3636 15.4565C22.2869 14.3429 22.5155 13.2295 23.0249 12.2363C23.5342 11.243 24.305 10.4076 25.254 9.82008Z" fill="white"/>
</svg>
