<svg width="460" height="290" viewBox="0 0 460 290" fill="none" xmlns="http://www.w3.org/2000/svg">
<rect width="460" height="290" rx="10" fill="#0D131C"/>
<rect x="25.2422" y="106.742" width="409.801" height="76.5156" rx="4.60178" fill="#161F2C"/>
<rect x="28.8751" y="110.375" width="60" height="30.6248" rx="10" fill="#383C45"/>
<path d="M46.6291 125.019H58.1471V126.007H52.3881V129.881L53.0771 129.764V130.714C52.8691 130.753 52.6351 130.792 52.3881 130.844V132.066H51.2051V131C50.0221 131.143 48.5531 131.273 46.7981 131.39L46.6421 130.349L47.7601 130.297V126.007H46.6291V125.019ZM48.8911 130.232C49.7361 130.18 50.5031 130.115 51.2051 130.037V129.335H48.8911V130.232ZM48.8911 128.451H51.2051V127.658H48.8911V128.451ZM48.8911 126.774H51.2051V126.007H48.8911V126.774ZM48.1631 120.43H56.6651V124.369H48.1631V120.43ZM55.4821 123.511V122.822H49.3461V123.511H55.4821ZM49.3461 121.977H55.4821V121.327H49.3461V121.977ZM53.3371 127.671H52.9341V126.67H57.4581V127.606C57.2371 128.542 56.8471 129.348 56.2881 130.037C56.8211 130.414 57.4581 130.753 58.1991 131.052L57.5621 132.079C56.7561 131.702 56.0801 131.286 55.5081 130.831C54.9101 131.325 54.2211 131.741 53.4281 132.079L52.7911 131.13C53.5321 130.818 54.1561 130.466 54.6761 130.05C54.0131 129.322 53.5711 128.529 53.3371 127.671ZM55.4301 129.322C55.8461 128.815 56.1581 128.269 56.3531 127.671H54.4031C54.6111 128.269 54.9491 128.828 55.4301 129.322ZM64.6601 131.884H62.7491L62.4501 130.596C63.0741 130.648 63.6461 130.688 64.1921 130.688C64.6861 130.688 64.9461 130.427 64.9461 129.92V120.222H66.2331V130.245C66.2331 131.338 65.7001 131.884 64.6601 131.884ZM61.4491 123.238L62.6841 123.732C62.0861 126.293 61.2931 128.256 60.3181 129.608L59.2391 128.659C60.2271 127.307 60.9681 125.5 61.4491 123.238ZM69.2751 122.913C70.2111 125.201 70.9391 127.19 71.4461 128.906L70.3281 129.673C69.7821 127.866 69.0541 125.851 68.1441 123.615L69.2751 122.913Z" fill="#7C8499"/>
<rect x="28.8751" y="149" width="60" height="30.6248" rx="10" fill="#383C45"/>
<path d="M46.6291 163.644H58.1471V164.632H52.3881V168.506L53.0771 168.389V169.339C52.8691 169.378 52.6351 169.417 52.3881 169.469V170.691H51.2051V169.625C50.0221 169.768 48.5531 169.898 46.7981 170.015L46.6421 168.974L47.7601 168.922V164.632H46.6291V163.644ZM48.8911 168.857C49.7361 168.805 50.5031 168.74 51.2051 168.662V167.96H48.8911V168.857ZM48.8911 167.076H51.2051V166.283H48.8911V167.076ZM48.8911 165.399H51.2051V164.632H48.8911V165.399ZM48.1631 159.055H56.6651V162.994H48.1631V159.055ZM55.4821 162.136V161.447H49.3461V162.136H55.4821ZM49.3461 160.602H55.4821V159.952H49.3461V160.602ZM53.3371 166.296H52.9341V165.295H57.4581V166.231C57.2371 167.167 56.8471 167.973 56.2881 168.662C56.8211 169.039 57.4581 169.378 58.1991 169.677L57.5621 170.704C56.7561 170.327 56.0801 169.911 55.5081 169.456C54.9101 169.95 54.2211 170.366 53.4281 170.704L52.7911 169.755C53.5321 169.443 54.1561 169.091 54.6761 168.675C54.0131 167.947 53.5711 167.154 53.3371 166.296ZM55.4301 167.947C55.8461 167.44 56.1581 166.894 56.3531 166.296H54.4031C54.6111 166.894 54.9491 167.453 55.4301 167.947ZM59.6291 161.968H64.6081C64.6861 161.278 64.7381 160.55 64.7511 159.796V158.665H65.9991V159.51C65.9991 160.368 65.9471 161.188 65.8431 161.968H71.1211V163.163H66.1551C67.0651 165.945 68.8201 168.09 71.3941 169.612L70.6271 170.613C68.1311 169.078 66.3761 166.933 65.3881 164.177C64.5301 167.154 62.7751 169.339 60.1361 170.73L59.3431 169.69C62.0211 168.389 63.7111 166.205 64.4001 163.163H59.6291V161.968Z" fill="#7C8499"/>
<g clip-path="url(#clip0_19_28150)">
<g clip-path="url(#clip1_19_28150)">
<path d="M184.842 134.919C183.506 140.276 178.08 143.537 172.723 142.201C167.367 140.865 164.107 135.439 165.443 130.082C166.778 124.724 172.204 121.464 177.56 122.799C182.917 124.135 186.177 129.562 184.842 134.919L184.842 134.919H184.842Z" fill="#F7931A"/>
<path d="M179.552 131.075C179.751 129.744 178.738 129.029 177.353 128.551L177.802 126.749L176.705 126.475L176.267 128.231C175.979 128.159 175.682 128.091 175.388 128.024L175.829 126.257L174.732 125.983L174.282 127.785C174.044 127.731 173.809 127.677 173.582 127.621L173.583 127.615L172.07 127.237L171.778 128.409C171.778 128.409 172.592 128.596 172.575 128.607C173.019 128.718 173.099 129.012 173.086 129.246L172.574 131.299C172.605 131.307 172.644 131.318 172.688 131.336C172.652 131.327 172.613 131.317 172.572 131.307L171.855 134.184C171.8 134.319 171.662 134.522 171.352 134.445C171.363 134.461 170.554 134.246 170.554 134.246L170.009 135.502L171.437 135.858C171.703 135.924 171.963 135.994 172.22 136.06L171.766 137.883L172.862 138.156L173.311 136.352C173.611 136.434 173.901 136.509 174.186 136.579L173.738 138.375L174.835 138.648L175.289 136.828C177.16 137.182 178.567 137.04 179.16 135.347C179.637 133.985 179.136 133.199 178.151 132.686C178.868 132.521 179.408 132.049 179.552 131.075L179.552 131.075L179.552 131.075ZM177.045 134.59C176.706 135.953 174.412 135.217 173.668 135.032L174.27 132.616C175.014 132.802 177.399 133.169 177.045 134.59H177.045ZM177.384 131.055C177.075 132.295 175.165 131.665 174.546 131.51L175.092 129.32C175.712 129.474 177.707 129.762 177.384 131.055H177.384Z" fill="white"/>
</g>
<path d="M194.75 126.125C196.137 126.125 197.221 126.62 198.002 127.609C198.933 128.781 199.398 130.725 199.398 133.439C199.398 136.148 198.93 138.094 197.992 139.279C197.217 140.256 196.137 140.744 194.75 140.744C193.357 140.744 192.234 140.21 191.381 139.143C190.528 138.068 190.102 136.158 190.102 133.41C190.102 130.715 190.57 128.775 191.508 127.59C192.283 126.613 193.363 126.125 194.75 126.125ZM194.75 128.4C194.418 128.4 194.122 128.508 193.861 128.723C193.601 128.931 193.399 129.309 193.256 129.855C193.067 130.565 192.973 131.76 192.973 133.439C192.973 135.119 193.057 136.275 193.227 136.906C193.396 137.531 193.607 137.948 193.861 138.156C194.122 138.365 194.418 138.469 194.75 138.469C195.082 138.469 195.378 138.365 195.639 138.156C195.899 137.941 196.101 137.561 196.244 137.014C196.433 136.311 196.527 135.119 196.527 133.439C196.527 131.76 196.443 130.607 196.273 129.982C196.104 129.351 195.889 128.931 195.629 128.723C195.375 128.508 195.082 128.4 194.75 128.4ZM201.83 140.5V137.756H204.574V140.5H201.83ZM211.449 126.125C212.836 126.125 213.92 126.62 214.701 127.609C215.632 128.781 216.098 130.725 216.098 133.439C216.098 136.148 215.629 138.094 214.691 139.279C213.917 140.256 212.836 140.744 211.449 140.744C210.056 140.744 208.933 140.21 208.08 139.143C207.227 138.068 206.801 136.158 206.801 133.41C206.801 130.715 207.27 128.775 208.207 127.59C208.982 126.613 210.062 126.125 211.449 126.125ZM211.449 128.4C211.117 128.4 210.821 128.508 210.561 128.723C210.3 128.931 210.098 129.309 209.955 129.855C209.766 130.565 209.672 131.76 209.672 133.439C209.672 135.119 209.757 136.275 209.926 136.906C210.095 137.531 210.307 137.948 210.561 138.156C210.821 138.365 211.117 138.469 211.449 138.469C211.781 138.469 212.077 138.365 212.338 138.156C212.598 137.941 212.8 137.561 212.943 137.014C213.132 136.311 213.227 135.119 213.227 133.439C213.227 131.76 213.142 130.607 212.973 129.982C212.803 129.351 212.589 128.931 212.328 128.723C212.074 128.508 211.781 128.4 211.449 128.4ZM222.582 126.125C223.969 126.125 225.053 126.62 225.834 127.609C226.765 128.781 227.23 130.725 227.23 133.439C227.23 136.148 226.762 138.094 225.824 139.279C225.049 140.256 223.969 140.744 222.582 140.744C221.189 140.744 220.066 140.21 219.213 139.143C218.36 138.068 217.934 136.158 217.934 133.41C217.934 130.715 218.402 128.775 219.34 127.59C220.115 126.613 221.195 126.125 222.582 126.125ZM222.582 128.4C222.25 128.4 221.954 128.508 221.693 128.723C221.433 128.931 221.231 129.309 221.088 129.855C220.899 130.565 220.805 131.76 220.805 133.439C220.805 135.119 220.889 136.275 221.059 136.906C221.228 137.531 221.439 137.948 221.693 138.156C221.954 138.365 222.25 138.469 222.582 138.469C222.914 138.469 223.21 138.365 223.471 138.156C223.731 137.941 223.933 137.561 224.076 137.014C224.265 136.311 224.359 135.119 224.359 133.439C224.359 131.76 224.275 130.607 224.105 129.982C223.936 129.351 223.721 128.931 223.461 128.723C223.207 128.508 222.914 128.4 222.582 128.4ZM233.715 126.125C235.102 126.125 236.186 126.62 236.967 127.609C237.898 128.781 238.363 130.725 238.363 133.439C238.363 136.148 237.895 138.094 236.957 139.279C236.182 140.256 235.102 140.744 233.715 140.744C232.322 140.744 231.199 140.21 230.346 139.143C229.493 138.068 229.066 136.158 229.066 133.41C229.066 130.715 229.535 128.775 230.473 127.59C231.247 126.613 232.328 126.125 233.715 126.125ZM233.715 128.4C233.383 128.4 233.087 128.508 232.826 128.723C232.566 128.931 232.364 129.309 232.221 129.855C232.032 130.565 231.938 131.76 231.938 133.439C231.938 135.119 232.022 136.275 232.191 136.906C232.361 137.531 232.572 137.948 232.826 138.156C233.087 138.365 233.383 138.469 233.715 138.469C234.047 138.469 234.343 138.365 234.604 138.156C234.864 137.941 235.066 137.561 235.209 137.014C235.398 136.311 235.492 135.119 235.492 133.439C235.492 131.76 235.408 130.607 235.238 129.982C235.069 129.351 234.854 128.931 234.594 128.723C234.34 128.508 234.047 128.4 233.715 128.4ZM244.848 126.125C246.234 126.125 247.318 126.62 248.1 127.609C249.031 128.781 249.496 130.725 249.496 133.439C249.496 136.148 249.027 138.094 248.09 139.279C247.315 140.256 246.234 140.744 244.848 140.744C243.454 140.744 242.331 140.21 241.479 139.143C240.626 138.068 240.199 136.158 240.199 133.41C240.199 130.715 240.668 128.775 241.605 127.59C242.38 126.613 243.461 126.125 244.848 126.125ZM244.848 128.4C244.516 128.4 244.219 128.508 243.959 128.723C243.699 128.931 243.497 129.309 243.354 129.855C243.165 130.565 243.07 131.76 243.07 133.439C243.07 135.119 243.155 136.275 243.324 136.906C243.493 137.531 243.705 137.948 243.959 138.156C244.219 138.365 244.516 138.469 244.848 138.469C245.18 138.469 245.476 138.365 245.736 138.156C245.997 137.941 246.199 137.561 246.342 137.014C246.531 136.311 246.625 135.119 246.625 133.439C246.625 131.76 246.54 130.607 246.371 129.982C246.202 129.351 245.987 128.931 245.727 128.723C245.473 128.508 245.18 128.4 244.848 128.4ZM258.363 140.5H255.619V130.158C254.617 131.096 253.435 131.789 252.074 132.238V129.748C252.79 129.514 253.568 129.071 254.408 128.42C255.248 127.762 255.824 126.997 256.137 126.125H258.363V140.5ZM267.113 126.125C268.5 126.125 269.584 126.62 270.365 127.609C271.296 128.781 271.762 130.725 271.762 133.439C271.762 136.148 271.293 138.094 270.355 139.279C269.581 140.256 268.5 140.744 267.113 140.744C265.72 140.744 264.597 140.21 263.744 139.143C262.891 138.068 262.465 136.158 262.465 133.41C262.465 130.715 262.934 128.775 263.871 127.59C264.646 126.613 265.727 126.125 267.113 126.125ZM267.113 128.4C266.781 128.4 266.485 128.508 266.225 128.723C265.964 128.931 265.762 129.309 265.619 129.855C265.43 130.565 265.336 131.76 265.336 133.439C265.336 135.119 265.421 136.275 265.59 136.906C265.759 137.531 265.971 137.948 266.225 138.156C266.485 138.365 266.781 138.469 267.113 138.469C267.445 138.469 267.742 138.365 268.002 138.156C268.262 137.941 268.464 137.561 268.607 137.014C268.796 136.311 268.891 135.119 268.891 133.439C268.891 131.76 268.806 130.607 268.637 129.982C268.467 129.351 268.253 128.931 267.992 128.723C267.738 128.508 267.445 128.4 267.113 128.4ZM278.246 126.125C279.633 126.125 280.717 126.62 281.498 127.609C282.429 128.781 282.895 130.725 282.895 133.439C282.895 136.148 282.426 138.094 281.488 139.279C280.714 140.256 279.633 140.744 278.246 140.744C276.853 140.744 275.73 140.21 274.877 139.143C274.024 138.068 273.598 136.158 273.598 133.41C273.598 130.715 274.066 128.775 275.004 127.59C275.779 126.613 276.859 126.125 278.246 126.125ZM278.246 128.4C277.914 128.4 277.618 128.508 277.357 128.723C277.097 128.931 276.895 129.309 276.752 129.855C276.563 130.565 276.469 131.76 276.469 133.439C276.469 135.119 276.553 136.275 276.723 136.906C276.892 137.531 277.104 137.948 277.357 138.156C277.618 138.365 277.914 138.469 278.246 138.469C278.578 138.469 278.874 138.365 279.135 138.156C279.395 137.941 279.597 137.561 279.74 137.014C279.929 136.311 280.023 135.119 280.023 133.439C280.023 131.76 279.939 130.607 279.77 129.982C279.6 129.351 279.385 128.931 279.125 128.723C278.871 128.508 278.578 128.4 278.246 128.4ZM289.379 126.125C290.766 126.125 291.85 126.62 292.631 127.609C293.562 128.781 294.027 130.725 294.027 133.439C294.027 136.148 293.559 138.094 292.621 139.279C291.846 140.256 290.766 140.744 289.379 140.744C287.986 140.744 286.863 140.21 286.01 139.143C285.157 138.068 284.73 136.158 284.73 133.41C284.73 130.715 285.199 128.775 286.137 127.59C286.911 126.613 287.992 126.125 289.379 126.125ZM289.379 128.4C289.047 128.4 288.751 128.508 288.49 128.723C288.23 128.931 288.028 129.309 287.885 129.855C287.696 130.565 287.602 131.76 287.602 133.439C287.602 135.119 287.686 136.275 287.855 136.906C288.025 137.531 288.236 137.948 288.49 138.156C288.751 138.365 289.047 138.469 289.379 138.469C289.711 138.469 290.007 138.365 290.268 138.156C290.528 137.941 290.73 137.561 290.873 137.014C291.062 136.311 291.156 135.119 291.156 133.439C291.156 131.76 291.072 130.607 290.902 129.982C290.733 129.351 290.518 128.931 290.258 128.723C290.004 128.508 289.711 128.4 289.379 128.4Z" fill="white"/>
<path d="M193.158 162.805V159.531C192.137 159.24 191.387 158.799 190.908 158.211C190.434 157.617 190.197 156.898 190.197 156.055C190.197 155.201 190.465 154.484 191.002 153.906C191.544 153.323 192.262 152.987 193.158 152.898V152.125H194.291V152.898C195.119 152.997 195.778 153.281 196.268 153.75C196.757 154.214 197.07 154.836 197.205 155.617L195.229 155.875C195.109 155.26 194.796 154.844 194.291 154.625V157.68C195.541 158.018 196.393 158.458 196.846 159C197.299 159.536 197.525 160.227 197.525 161.07C197.525 162.013 197.239 162.807 196.666 163.453C196.098 164.099 195.307 164.495 194.291 164.641V166.102H193.158V164.68C192.257 164.57 191.525 164.234 190.963 163.672C190.4 163.109 190.041 162.315 189.885 161.289L191.924 161.07C192.007 161.487 192.163 161.846 192.393 162.148C192.622 162.451 192.877 162.669 193.158 162.805ZM193.158 154.602C192.851 154.706 192.606 154.883 192.424 155.133C192.242 155.383 192.15 155.659 192.15 155.961C192.15 156.237 192.234 156.495 192.4 156.734C192.567 156.969 192.82 157.159 193.158 157.305V154.602ZM194.291 162.914C194.682 162.841 194.999 162.661 195.244 162.375C195.489 162.083 195.611 161.742 195.611 161.352C195.611 161.003 195.507 160.703 195.299 160.453C195.096 160.198 194.76 160.003 194.291 159.867V162.914ZM203.229 164.5V162.195H198.541V160.273L203.51 153H205.354V160.266H206.775V162.195H205.354V164.5H203.229ZM203.229 160.266V156.352L200.596 160.266H203.229ZM208.299 164.5V162.305H210.494V164.5H208.299ZM216.588 164.5V162.195H211.9V160.273L216.869 153H218.713V160.266H220.135V162.195H218.713V164.5H216.588ZM216.588 160.266V156.352L213.955 160.266H216.588ZM224.9 153C226.01 153 226.877 153.396 227.502 154.188C228.247 155.125 228.619 156.68 228.619 158.852C228.619 161.018 228.244 162.576 227.494 163.523C226.874 164.305 226.01 164.695 224.9 164.695C223.786 164.695 222.887 164.268 222.205 163.414C221.523 162.555 221.182 161.026 221.182 158.828C221.182 156.672 221.557 155.12 222.307 154.172C222.926 153.391 223.791 153 224.9 153ZM224.9 154.82C224.635 154.82 224.398 154.906 224.189 155.078C223.981 155.245 223.82 155.547 223.705 155.984C223.554 156.552 223.479 157.508 223.479 158.852C223.479 160.195 223.546 161.12 223.682 161.625C223.817 162.125 223.986 162.458 224.189 162.625C224.398 162.792 224.635 162.875 224.9 162.875C225.166 162.875 225.403 162.792 225.611 162.625C225.82 162.453 225.981 162.148 226.096 161.711C226.247 161.148 226.322 160.195 226.322 158.852C226.322 157.508 226.255 156.586 226.119 156.086C225.984 155.581 225.812 155.245 225.604 155.078C225.4 154.906 225.166 154.82 224.9 154.82ZM233.807 153C234.916 153 235.783 153.396 236.408 154.188C237.153 155.125 237.525 156.68 237.525 158.852C237.525 161.018 237.15 162.576 236.4 163.523C235.781 164.305 234.916 164.695 233.807 164.695C232.692 164.695 231.794 164.268 231.111 163.414C230.429 162.555 230.088 161.026 230.088 158.828C230.088 156.672 230.463 155.12 231.213 154.172C231.833 153.391 232.697 153 233.807 153ZM233.807 154.82C233.541 154.82 233.304 154.906 233.096 155.078C232.887 155.245 232.726 155.547 232.611 155.984C232.46 156.552 232.385 157.508 232.385 158.852C232.385 160.195 232.452 161.12 232.588 161.625C232.723 162.125 232.893 162.458 233.096 162.625C233.304 162.792 233.541 162.875 233.807 162.875C234.072 162.875 234.309 162.792 234.518 162.625C234.726 162.453 234.887 162.148 235.002 161.711C235.153 161.148 235.229 160.195 235.229 158.852C235.229 157.508 235.161 156.586 235.025 156.086C234.89 155.581 234.718 155.245 234.51 155.078C234.307 154.906 234.072 154.82 233.807 154.82ZM242.713 153C243.822 153 244.689 153.396 245.314 154.188C246.059 155.125 246.432 156.68 246.432 158.852C246.432 161.018 246.057 162.576 245.307 163.523C244.687 164.305 243.822 164.695 242.713 164.695C241.598 164.695 240.7 164.268 240.018 163.414C239.335 162.555 238.994 161.026 238.994 158.828C238.994 156.672 239.369 155.12 240.119 154.172C240.739 153.391 241.604 153 242.713 153ZM242.713 154.82C242.447 154.82 242.21 154.906 242.002 155.078C241.794 155.245 241.632 155.547 241.518 155.984C241.367 156.552 241.291 157.508 241.291 158.852C241.291 160.195 241.359 161.12 241.494 161.625C241.63 162.125 241.799 162.458 242.002 162.625C242.21 162.792 242.447 162.875 242.713 162.875C242.979 162.875 243.215 162.792 243.424 162.625C243.632 162.453 243.794 162.148 243.908 161.711C244.059 161.148 244.135 160.195 244.135 158.852C244.135 157.508 244.067 156.586 243.932 156.086C243.796 155.581 243.624 155.245 243.416 155.078C243.213 154.906 242.979 154.82 242.713 154.82ZM251.619 153C252.729 153 253.596 153.396 254.221 154.188C254.965 155.125 255.338 156.68 255.338 158.852C255.338 161.018 254.963 162.576 254.213 163.523C253.593 164.305 252.729 164.695 251.619 164.695C250.505 164.695 249.606 164.268 248.924 163.414C248.242 162.555 247.9 161.026 247.9 158.828C247.9 156.672 248.275 155.12 249.025 154.172C249.645 153.391 250.51 153 251.619 153ZM251.619 154.82C251.354 154.82 251.117 154.906 250.908 155.078C250.7 155.245 250.538 155.547 250.424 155.984C250.273 156.552 250.197 157.508 250.197 158.852C250.197 160.195 250.265 161.12 250.4 161.625C250.536 162.125 250.705 162.458 250.908 162.625C251.117 162.792 251.354 162.875 251.619 162.875C251.885 162.875 252.122 162.792 252.33 162.625C252.538 162.453 252.7 162.148 252.814 161.711C252.965 161.148 253.041 160.195 253.041 158.852C253.041 157.508 252.973 156.586 252.838 156.086C252.702 155.581 252.531 155.245 252.322 155.078C252.119 154.906 251.885 154.82 251.619 154.82ZM260.525 153C261.635 153 262.502 153.396 263.127 154.188C263.872 155.125 264.244 156.68 264.244 158.852C264.244 161.018 263.869 162.576 263.119 163.523C262.499 164.305 261.635 164.695 260.525 164.695C259.411 164.695 258.512 164.268 257.83 163.414C257.148 162.555 256.807 161.026 256.807 158.828C256.807 156.672 257.182 155.12 257.932 154.172C258.551 153.391 259.416 153 260.525 153ZM260.525 154.82C260.26 154.82 260.023 154.906 259.814 155.078C259.606 155.245 259.445 155.547 259.33 155.984C259.179 156.552 259.104 157.508 259.104 158.852C259.104 160.195 259.171 161.12 259.307 161.625C259.442 162.125 259.611 162.458 259.814 162.625C260.023 162.792 260.26 162.875 260.525 162.875C260.791 162.875 261.028 162.792 261.236 162.625C261.445 162.453 261.606 162.148 261.721 161.711C261.872 161.148 261.947 160.195 261.947 158.852C261.947 157.508 261.88 156.586 261.744 156.086C261.609 155.581 261.437 155.245 261.229 155.078C261.025 154.906 260.791 154.82 260.525 154.82ZM269.432 153C270.541 153 271.408 153.396 272.033 154.188C272.778 155.125 273.15 156.68 273.15 158.852C273.15 161.018 272.775 162.576 272.025 163.523C271.406 164.305 270.541 164.695 269.432 164.695C268.317 164.695 267.419 164.268 266.736 163.414C266.054 162.555 265.713 161.026 265.713 158.828C265.713 156.672 266.088 155.12 266.838 154.172C267.458 153.391 268.322 153 269.432 153ZM269.432 154.82C269.166 154.82 268.929 154.906 268.721 155.078C268.512 155.245 268.351 155.547 268.236 155.984C268.085 156.552 268.01 157.508 268.01 158.852C268.01 160.195 268.077 161.12 268.213 161.625C268.348 162.125 268.518 162.458 268.721 162.625C268.929 162.792 269.166 162.875 269.432 162.875C269.697 162.875 269.934 162.792 270.143 162.625C270.351 162.453 270.512 162.148 270.627 161.711C270.778 161.148 270.854 160.195 270.854 158.852C270.854 157.508 270.786 156.586 270.65 156.086C270.515 155.581 270.343 155.245 270.135 155.078C269.932 154.906 269.697 154.82 269.432 154.82Z" fill="#7C8499"/>
</g>
<rect x="369.41" y="110.375" width="62" height="30.6248" rx="10" fill="#383C45"/>
<path d="M392.581 120.477H393.811V131.188H392.176V122.442C391.531 123.057 390.706 123.507 389.716 123.792V122.172C390.196 122.052 390.691 121.842 391.231 121.542C391.771 121.212 392.221 120.867 392.581 120.477ZM400.909 118.887H402.289L397.054 132.688H395.659L400.909 118.887ZM407.389 120.267C408.409 120.267 409.264 120.552 409.924 121.152C410.569 121.752 410.899 122.517 410.899 123.462C410.899 124.392 410.539 125.232 409.849 125.997C409.429 126.432 408.694 127.002 407.629 127.722C406.474 128.487 405.784 129.162 405.559 129.747H410.914V131.188H403.534C403.534 130.122 403.879 129.192 404.599 128.382C404.989 127.917 405.799 127.272 407.014 126.432C407.734 125.922 408.244 125.517 408.544 125.202C409.024 124.662 409.279 124.077 409.279 123.447C409.279 122.847 409.114 122.397 408.784 122.097C408.454 121.797 407.959 121.647 407.329 121.647C406.654 121.647 406.144 121.872 405.799 122.337C405.439 122.787 405.259 123.432 405.229 124.302H403.594C403.609 123.102 403.954 122.142 404.629 121.422C405.319 120.642 406.249 120.267 407.389 120.267Z" fill="#7C8499"/>
<rect x="369.41" y="149" width="62" height="30.6248" rx="10" fill="#383C45"/>
<path d="M396.601 158.892C397.621 158.892 398.476 159.177 399.136 159.777C399.781 160.377 400.111 161.142 400.111 162.087C400.111 163.017 399.751 163.857 399.061 164.622C398.641 165.057 397.906 165.627 396.841 166.347C395.686 167.112 394.996 167.787 394.771 168.372H400.126V169.812H392.746C392.746 168.747 393.091 167.817 393.811 167.007C394.201 166.542 395.011 165.897 396.226 165.057C396.946 164.547 397.456 164.142 397.756 163.827C398.236 163.287 398.491 162.702 398.491 162.072C398.491 161.472 398.326 161.022 397.996 160.722C397.666 160.422 397.171 160.272 396.541 160.272C395.866 160.272 395.356 160.497 395.011 160.962C394.651 161.412 394.471 162.057 394.441 162.927H392.806C392.821 161.727 393.166 160.767 393.841 160.047C394.531 159.267 395.461 158.892 396.601 158.892ZM401.35 162.057H403.21L404.92 164.517L406.615 162.057H408.475L405.79 165.687L408.805 169.812H406.945L404.92 166.857L402.88 169.812H401.005L404.035 165.687L401.35 162.057Z" fill="#7C8499"/>
<rect x="25.2422" y="106.742" width="409.801" height="76.5156" rx="4.60178" stroke="#55657E" stroke-width="0.484398"/>
<defs>
<clipPath id="clip0_19_28150">
<rect width="130" height="45" fill="white" transform="translate(165.143 122.5)"/>
</clipPath>
<clipPath id="clip1_19_28150">
<rect width="20" height="20" fill="white" transform="translate(165.143 122.5)"/>
</clipPath>
</defs>
</svg>
