<svg width="460" height="290" viewBox="0 0 460 290" fill="none" xmlns="http://www.w3.org/2000/svg">
<rect width="460" height="290" rx="10" fill="#0D131C"/>
<rect x="25.2422" y="106.742" width="409.516" height="76.5156" rx="4.60178" fill="#161F2C"/>
<rect x="28.8751" y="110.375" width="60" height="30.6248" rx="10" fill="#383C45"/>
<path d="M48.1232 130.818C47.3085 130.818 46.6758 130.623 46.2252 130.232C45.7832 129.834 45.5622 129.24 45.5622 128.451V127.658C45.5622 127.225 45.6228 126.883 45.7442 126.631C45.8655 126.38 45.9955 126.163 46.1342 125.981C46.2815 125.782 46.4072 125.609 46.5112 125.461C46.6238 125.314 46.6802 125.136 46.6802 124.928C46.6802 124.746 46.6325 124.616 46.5372 124.538C46.4505 124.46 46.3378 124.421 46.1992 124.421C46.0952 124.421 45.9825 124.439 45.8612 124.473C45.7485 124.508 45.6358 124.551 45.5232 124.603L45.2632 123.771C45.4192 123.667 45.6098 123.594 45.8352 123.55C46.0692 123.507 46.2728 123.485 46.4462 123.485C46.7668 123.485 47.0225 123.542 47.2132 123.654C47.4125 123.767 47.5555 123.923 47.6422 124.123C47.7288 124.313 47.7722 124.538 47.7722 124.798C47.7722 125.119 47.7158 125.383 47.6032 125.591C47.4992 125.799 47.3735 126.003 47.2262 126.202C47.0788 126.419 46.9575 126.627 46.8622 126.826C46.7668 127.026 46.7192 127.286 46.7192 127.606V128.373C46.7192 128.772 46.7842 129.08 46.9142 129.296C47.0442 129.513 47.2175 129.665 47.4342 129.751C47.6508 129.829 47.8805 129.868 48.1232 129.868C48.5565 129.868 48.8858 129.769 49.1112 129.569C49.3452 129.361 49.4622 129.045 49.4622 128.62V123.563H50.6192V128.685C50.6192 129.353 50.4068 129.877 49.9822 130.259C49.5662 130.631 48.9465 130.818 48.1232 130.818ZM48.9514 122.432C48.5874 122.432 48.2971 122.38 48.0804 122.276C47.8637 122.172 47.7077 122.038 47.6124 121.873C47.5084 121.709 47.4564 121.535 47.4564 121.353C47.4564 121.223 47.4781 121.085 47.5214 120.937C47.5561 120.781 47.6037 120.656 47.6644 120.56L48.6394 120.729C48.6221 120.764 48.6047 120.825 48.5874 120.911C48.5701 120.989 48.5614 121.063 48.5614 121.132C48.5614 121.245 48.5961 121.345 48.6654 121.431C48.7347 121.509 48.8517 121.548 49.0164 121.548H52.3054V122.432H48.9514ZM48.799 119.689V119.234C48.9116 119.208 49.033 119.169 49.163 119.117C49.293 119.065 49.4056 119 49.501 118.922C49.5963 118.836 49.644 118.727 49.644 118.597C49.644 118.502 49.618 118.428 49.566 118.376C49.514 118.324 49.4403 118.298 49.345 118.298C49.2756 118.298 49.2063 118.311 49.137 118.337C49.059 118.355 48.9853 118.385 48.916 118.428L48.682 117.83C48.838 117.726 49.0156 117.657 49.215 117.623C49.4056 117.588 49.5573 117.57 49.67 117.57C49.8953 117.57 50.099 117.631 50.281 117.752C50.463 117.865 50.554 118.06 50.554 118.337C50.554 118.45 50.5323 118.58 50.489 118.727C50.437 118.866 50.333 118.979 50.177 119.065L50.099 118.818H52.075V119.689H48.799ZM55.1805 130.818C54.6692 130.818 54.2272 130.731 53.8545 130.557C53.4905 130.375 53.2089 130.102 53.0095 129.738C52.8189 129.374 52.7235 128.902 52.7235 128.321V123.563H53.8805V128.256C53.8805 128.776 54.0105 129.171 54.2705 129.439C54.5392 129.708 54.9249 129.842 55.4275 129.842C56.0342 129.842 56.5022 129.647 56.8315 129.257C57.1695 128.867 57.3385 128.343 57.3385 127.684V123.563H58.4955V130.688H57.5335L57.4815 129.634H57.4165C57.2605 129.981 56.9875 130.267 56.5975 130.492C56.2162 130.709 55.7439 130.818 55.1805 130.818ZM63.2182 130.818C62.4902 130.818 61.9269 130.653 61.5282 130.323C61.1295 129.985 60.8522 129.53 60.6962 128.958C60.5402 128.378 60.4622 127.719 60.4622 126.982C60.4622 126.133 60.5402 125.448 60.6962 124.928C60.8609 124.408 61.0992 124.031 61.4112 123.797C61.7232 123.555 62.1045 123.433 62.5552 123.433C62.8585 123.433 63.1142 123.485 63.3222 123.589C63.5389 123.693 63.6905 123.867 63.7772 124.109H63.8292C63.9159 123.858 64.0719 123.685 64.2972 123.589C64.5225 123.485 64.7869 123.433 65.0902 123.433C65.6535 123.433 66.0869 123.585 66.3902 123.888C66.7022 124.183 66.8582 124.638 66.8582 125.253V130.688H65.7012V125.266C65.7012 124.928 65.6275 124.699 65.4802 124.577C65.3329 124.456 65.1465 124.395 64.9212 124.395C64.6699 124.395 64.4835 124.456 64.3622 124.577C64.2495 124.699 64.1802 124.898 64.1542 125.175H63.4262C63.3915 124.872 63.3005 124.668 63.1532 124.564C63.0059 124.452 62.8412 124.395 62.6592 124.395C62.3125 124.395 62.0525 124.599 61.8792 125.006C61.7059 125.405 61.6192 126.068 61.6192 126.995C61.6192 127.593 61.6625 128.105 61.7492 128.529C61.8445 128.954 62.0179 129.283 62.2692 129.517C62.5205 129.743 62.8845 129.855 63.3612 129.855C63.5345 129.855 63.6775 129.847 63.7902 129.83C63.9029 129.812 64.0112 129.79 64.1152 129.764L64.2322 130.648C64.1022 130.709 63.9462 130.753 63.7642 130.779C63.5822 130.805 63.4002 130.818 63.2182 130.818ZM65.7771 122.744C65.3437 122.744 65.0014 122.645 64.7501 122.445C64.4987 122.237 64.3731 121.947 64.3731 121.574C64.3731 121.193 64.4987 120.903 64.7501 120.703C65.0014 120.504 65.3437 120.404 65.7771 120.404C66.2104 120.404 66.5571 120.504 66.8171 120.703C67.0771 120.903 67.2071 121.193 67.2071 121.574C67.2071 121.947 67.0771 122.237 66.8171 122.445C66.5571 122.645 66.2104 122.744 65.7771 122.744ZM65.7771 122.133C65.9851 122.133 66.1454 122.081 66.2581 121.977C66.3621 121.873 66.4141 121.739 66.4141 121.574C66.4141 121.401 66.3621 121.267 66.2581 121.171C66.1454 121.067 65.9851 121.015 65.7771 121.015C65.5777 121.015 65.4261 121.067 65.3221 121.171C65.2094 121.267 65.1531 121.401 65.1531 121.574C65.1531 121.739 65.2094 121.873 65.3221 121.977C65.4261 122.081 65.5777 122.133 65.7771 122.133ZM65.2272 119.689V117.57H66.3322V119.689H65.2272ZM70.9758 130.688V125.63C70.9758 125.206 70.8762 124.894 70.6768 124.694C70.4862 124.495 70.1612 124.395 69.7018 124.395C69.3898 124.395 69.0952 124.439 68.8178 124.525C68.5492 124.603 68.2892 124.716 68.0378 124.863V123.824C68.2112 123.737 68.4582 123.65 68.7788 123.563C69.0995 123.477 69.4808 123.433 69.9228 123.433C70.3735 123.433 70.7635 123.498 71.0928 123.628C71.4222 123.758 71.6778 123.975 71.8598 124.278C72.0418 124.573 72.1328 124.967 72.1328 125.461V130.688H70.9758Z" fill="#7C8499"/>
<rect x="28.8751" y="149" width="60" height="30.6248" rx="10" fill="#383C45"/>
<path d="M47.152 169.443C46.3373 169.443 45.7046 169.248 45.254 168.857C44.812 168.459 44.591 167.865 44.591 167.076V166.283C44.591 165.85 44.6516 165.508 44.773 165.256C44.8943 165.005 45.0243 164.788 45.163 164.606C45.3103 164.407 45.436 164.234 45.54 164.086C45.6526 163.939 45.709 163.761 45.709 163.553C45.709 163.371 45.6613 163.241 45.566 163.163C45.4793 163.085 45.3666 163.046 45.228 163.046C45.124 163.046 45.0113 163.064 44.89 163.098C44.7773 163.133 44.6646 163.176 44.552 163.228L44.292 162.396C44.448 162.292 44.6386 162.219 44.864 162.175C45.098 162.132 45.3016 162.11 45.475 162.11C45.7956 162.11 46.0513 162.167 46.242 162.279C46.4413 162.392 46.5843 162.548 46.671 162.748C46.7576 162.938 46.801 163.163 46.801 163.423C46.801 163.744 46.7446 164.008 46.632 164.216C46.528 164.424 46.4023 164.628 46.255 164.827C46.1076 165.044 45.9863 165.252 45.891 165.451C45.7956 165.651 45.748 165.911 45.748 166.231V166.998C45.748 167.397 45.813 167.705 45.943 167.921C46.073 168.138 46.2463 168.29 46.463 168.376C46.6796 168.454 46.9093 168.493 47.152 168.493C47.5853 168.493 47.9146 168.394 48.14 168.194C48.374 167.986 48.491 167.67 48.491 167.245V162.188H49.648V167.31C49.648 167.978 49.4356 168.502 49.011 168.884C48.595 169.256 47.9753 169.443 47.152 169.443ZM44.1062 161.057V160.55L45.0552 160.134H49.6312V161.057H44.1062ZM48.5522 160.55V159.081H49.6442V160.55H48.5522ZM54.1833 169.443C53.49 169.443 52.944 169.282 52.5453 168.961C52.1553 168.632 51.878 168.19 51.7133 167.635C51.5573 167.081 51.4793 166.47 51.4793 165.802C51.4793 165.066 51.553 164.459 51.7003 163.982C51.8563 163.497 52.073 163.116 52.3503 162.838C52.6363 162.552 52.9743 162.353 53.3643 162.24C53.763 162.119 54.2007 162.058 54.6773 162.058C55.3707 162.058 55.934 162.162 56.3673 162.37C56.8093 162.57 57.1343 162.856 57.3423 163.228C57.5503 163.601 57.6543 164.047 57.6543 164.567V169.312H56.5103V164.671C56.5103 164.134 56.376 163.727 56.1073 163.449C55.8387 163.163 55.375 163.02 54.7163 163.02C54.3177 163.02 53.958 163.094 53.6373 163.241C53.3253 163.389 53.0783 163.662 52.8963 164.06C52.723 164.459 52.6363 165.044 52.6363 165.815C52.6363 166.318 52.684 166.773 52.7793 167.18C52.8833 167.579 53.061 167.895 53.3123 168.129C53.5637 168.363 53.9147 168.48 54.3653 168.48C54.4953 168.48 54.6167 168.472 54.7293 168.455C54.842 168.437 54.9503 168.411 55.0543 168.376L55.1713 169.273C55.0327 169.334 54.8723 169.378 54.6903 169.404C54.517 169.43 54.348 169.443 54.1833 169.443ZM63.9361 169.312V164.567C63.9361 164.004 63.8061 163.605 63.5461 163.371C63.2947 163.129 62.8701 163.007 62.2721 163.007C61.8387 163.007 61.4227 163.068 61.0241 163.189C60.6341 163.302 60.2614 163.462 59.9061 163.67V162.591C60.1574 162.461 60.4954 162.34 60.9201 162.227C61.3534 162.115 61.8387 162.058 62.3761 162.058C62.8354 162.058 63.2254 162.11 63.5461 162.214C63.8754 162.318 64.1181 162.509 64.2741 162.786C64.5774 162.925 64.7854 163.142 64.8981 163.436C65.0194 163.731 65.0801 164.086 65.0801 164.502V169.312H63.9361ZM61.7001 169.443C60.9374 169.443 60.3524 169.269 59.9451 168.922C59.5464 168.567 59.3471 168.06 59.3471 167.402C59.3471 166.682 59.6071 166.127 60.1271 165.737C60.6557 165.347 61.5094 165.118 62.6881 165.048L64.1701 164.957V165.919L62.8441 166.01C61.9601 166.071 61.3491 166.21 61.0111 166.426C60.6817 166.643 60.5171 166.959 60.5171 167.375C60.5171 167.765 60.6384 168.051 60.8811 168.233C61.1324 168.415 61.4791 168.506 61.9211 168.506C62.0684 168.506 62.2027 168.498 62.3241 168.48C62.4454 168.454 62.5624 168.424 62.6751 168.389L62.8571 169.26C62.6924 169.321 62.5104 169.365 62.3111 169.391C62.1204 169.425 61.9167 169.443 61.7001 169.443ZM64.2351 163.189L63.5851 162.578C63.8104 162.544 64.0227 162.457 64.2221 162.318C64.4214 162.18 64.5211 161.98 64.5211 161.72H65.6521C65.6521 161.989 65.5871 162.227 65.4571 162.435C65.3357 162.635 65.1667 162.799 64.9501 162.929C64.7334 163.051 64.4951 163.137 64.2351 163.189ZM64.0414 172.706V171.328C64.0414 171.111 63.9461 171.003 63.7554 171.003C63.7121 171.003 63.6687 171.007 63.6254 171.016C63.5734 171.024 63.5257 171.037 63.4824 171.055L63.3914 170.275C63.5214 170.231 63.6644 170.197 63.8204 170.17C63.9677 170.153 64.0891 170.145 64.1844 170.145C64.4877 170.145 64.7131 170.214 64.8604 170.353C64.9991 170.5 65.0684 170.699 65.0684 170.951V172.706H64.0414ZM69.6335 169.443C68.9402 169.443 68.3942 169.282 67.9955 168.961C67.6055 168.632 67.3282 168.19 67.1635 167.635C67.0075 167.081 66.9295 166.47 66.9295 165.802C66.9295 165.066 67.0032 164.459 67.1505 163.982C67.3065 163.497 67.5232 163.116 67.8005 162.838C68.0865 162.552 68.4245 162.353 68.8145 162.24C69.2132 162.119 69.6509 162.058 70.1275 162.058C70.8209 162.058 71.3842 162.162 71.8175 162.37C72.2595 162.57 72.5845 162.856 72.7925 163.228C73.0005 163.601 73.1045 164.047 73.1045 164.567V169.312H71.9605V164.671C71.9605 164.134 71.8262 163.727 71.5575 163.449C71.2889 163.163 70.8252 163.02 70.1665 163.02C69.7679 163.02 69.4082 163.094 69.0875 163.241C68.7755 163.389 68.5285 163.662 68.3465 164.06C68.1732 164.459 68.0865 165.044 68.0865 165.815C68.0865 166.318 68.1342 166.773 68.2295 167.18C68.3335 167.579 68.5112 167.895 68.7625 168.129C69.0139 168.363 69.3649 168.48 69.8155 168.48C69.9455 168.48 70.0669 168.472 70.1795 168.455C70.2922 168.437 70.4005 168.411 70.5045 168.376L70.6215 169.273C70.4829 169.334 70.3225 169.378 70.1405 169.404C69.9672 169.43 69.7982 169.443 69.6335 169.443Z" fill="#7C8499"/>
<g clip-path="url(#clip0_19_34008)">
<g clip-path="url(#clip1_19_34008)">
<path d="M184.699 134.919C183.364 140.276 177.938 143.537 172.58 142.201C167.224 140.865 163.964 135.439 165.3 130.082C166.635 124.724 172.061 121.464 177.417 122.799C182.775 124.135 186.035 129.562 184.699 134.919L184.699 134.919H184.699Z" fill="#F7931A"/>
<path d="M179.409 131.075C179.609 129.744 178.595 129.029 177.21 128.551L177.659 126.749L176.562 126.475L176.125 128.231C175.836 128.159 175.54 128.091 175.245 128.024L175.686 126.257L174.589 125.983L174.14 127.785C173.901 127.731 173.666 127.677 173.439 127.621L173.44 127.615L171.927 127.237L171.635 128.409C171.635 128.409 172.449 128.596 172.432 128.607C172.876 128.718 172.957 129.012 172.943 129.246L172.432 131.299C172.462 131.307 172.502 131.318 172.546 131.336C172.509 131.327 172.47 131.317 172.43 131.307L171.712 134.184C171.658 134.319 171.52 134.522 171.209 134.445C171.22 134.461 170.412 134.246 170.412 134.246L169.867 135.502L171.295 135.858C171.56 135.924 171.821 135.994 172.077 136.06L171.623 137.883L172.719 138.156L173.169 136.352C173.468 136.434 173.759 136.509 174.043 136.579L173.595 138.375L174.693 138.648L175.147 136.828C177.018 137.182 178.425 137.04 179.017 135.347C179.494 133.985 178.993 133.199 178.009 132.686C178.726 132.521 179.266 132.049 179.41 131.075L179.41 131.075L179.409 131.075ZM176.902 134.59C176.563 135.953 174.269 135.217 173.525 135.032L174.128 132.616C174.871 132.802 177.257 133.169 176.902 134.59H176.902ZM177.242 131.055C176.932 132.295 175.023 131.665 174.403 131.51L174.95 129.32C175.569 129.474 177.564 129.762 177.242 131.055H177.242Z" fill="white"/>
</g>
<path d="M194.607 126.125C195.994 126.125 197.078 126.62 197.859 127.609C198.79 128.781 199.256 130.725 199.256 133.439C199.256 136.148 198.787 138.094 197.85 139.279C197.075 140.256 195.994 140.744 194.607 140.744C193.214 140.744 192.091 140.21 191.238 139.143C190.385 138.068 189.959 136.158 189.959 133.41C189.959 130.715 190.428 128.775 191.365 127.59C192.14 126.613 193.221 126.125 194.607 126.125ZM194.607 128.4C194.275 128.4 193.979 128.508 193.719 128.723C193.458 128.931 193.257 129.309 193.113 129.855C192.924 130.565 192.83 131.76 192.83 133.439C192.83 135.119 192.915 136.275 193.084 136.906C193.253 137.531 193.465 137.948 193.719 138.156C193.979 138.365 194.275 138.469 194.607 138.469C194.939 138.469 195.236 138.365 195.496 138.156C195.757 137.941 195.958 137.561 196.102 137.014C196.29 136.311 196.385 135.119 196.385 133.439C196.385 131.76 196.3 130.607 196.131 129.982C195.962 129.351 195.747 128.931 195.486 128.723C195.232 128.508 194.939 128.4 194.607 128.4ZM201.688 140.5V137.756H204.432V140.5H201.688ZM211.307 126.125C212.693 126.125 213.777 126.62 214.559 127.609C215.49 128.781 215.955 130.725 215.955 133.439C215.955 136.148 215.486 138.094 214.549 139.279C213.774 140.256 212.693 140.744 211.307 140.744C209.913 140.744 208.79 140.21 207.938 139.143C207.085 138.068 206.658 136.158 206.658 133.41C206.658 130.715 207.127 128.775 208.064 127.59C208.839 126.613 209.92 126.125 211.307 126.125ZM211.307 128.4C210.975 128.4 210.678 128.508 210.418 128.723C210.158 128.931 209.956 129.309 209.812 129.855C209.624 130.565 209.529 131.76 209.529 133.439C209.529 135.119 209.614 136.275 209.783 136.906C209.952 137.531 210.164 137.948 210.418 138.156C210.678 138.365 210.975 138.469 211.307 138.469C211.639 138.469 211.935 138.365 212.195 138.156C212.456 137.941 212.658 137.561 212.801 137.014C212.99 136.311 213.084 135.119 213.084 133.439C213.084 131.76 212.999 130.607 212.83 129.982C212.661 129.351 212.446 128.931 212.186 128.723C211.932 128.508 211.639 128.4 211.307 128.4ZM222.439 126.125C223.826 126.125 224.91 126.62 225.691 127.609C226.622 128.781 227.088 130.725 227.088 133.439C227.088 136.148 226.619 138.094 225.682 139.279C224.907 140.256 223.826 140.744 222.439 140.744C221.046 140.744 219.923 140.21 219.07 139.143C218.217 138.068 217.791 136.158 217.791 133.41C217.791 130.715 218.26 128.775 219.197 127.59C219.972 126.613 221.053 126.125 222.439 126.125ZM222.439 128.4C222.107 128.4 221.811 128.508 221.551 128.723C221.29 128.931 221.089 129.309 220.945 129.855C220.757 130.565 220.662 131.76 220.662 133.439C220.662 135.119 220.747 136.275 220.916 136.906C221.085 137.531 221.297 137.948 221.551 138.156C221.811 138.365 222.107 138.469 222.439 138.469C222.771 138.469 223.068 138.365 223.328 138.156C223.589 137.941 223.79 137.561 223.934 137.014C224.122 136.311 224.217 135.119 224.217 133.439C224.217 131.76 224.132 130.607 223.963 129.982C223.794 129.351 223.579 128.931 223.318 128.723C223.064 128.508 222.771 128.4 222.439 128.4ZM233.572 126.125C234.959 126.125 236.043 126.62 236.824 127.609C237.755 128.781 238.221 130.725 238.221 133.439C238.221 136.148 237.752 138.094 236.814 139.279C236.04 140.256 234.959 140.744 233.572 140.744C232.179 140.744 231.056 140.21 230.203 139.143C229.35 138.068 228.924 136.158 228.924 133.41C228.924 130.715 229.393 128.775 230.33 127.59C231.105 126.613 232.186 126.125 233.572 126.125ZM233.572 128.4C233.24 128.4 232.944 128.508 232.684 128.723C232.423 128.931 232.221 129.309 232.078 129.855C231.889 130.565 231.795 131.76 231.795 133.439C231.795 135.119 231.88 136.275 232.049 136.906C232.218 137.531 232.43 137.948 232.684 138.156C232.944 138.365 233.24 138.469 233.572 138.469C233.904 138.469 234.201 138.365 234.461 138.156C234.721 137.941 234.923 137.561 235.066 137.014C235.255 136.311 235.35 135.119 235.35 133.439C235.35 131.76 235.265 130.607 235.096 129.982C234.926 129.351 234.712 128.931 234.451 128.723C234.197 128.508 233.904 128.4 233.572 128.4ZM244.705 126.125C246.092 126.125 247.176 126.62 247.957 127.609C248.888 128.781 249.354 130.725 249.354 133.439C249.354 136.148 248.885 138.094 247.947 139.279C247.173 140.256 246.092 140.744 244.705 140.744C243.312 140.744 242.189 140.21 241.336 139.143C240.483 138.068 240.057 136.158 240.057 133.41C240.057 130.715 240.525 128.775 241.463 127.59C242.238 126.613 243.318 126.125 244.705 126.125ZM244.705 128.4C244.373 128.4 244.077 128.508 243.816 128.723C243.556 128.931 243.354 129.309 243.211 129.855C243.022 130.565 242.928 131.76 242.928 133.439C242.928 135.119 243.012 136.275 243.182 136.906C243.351 137.531 243.562 137.948 243.816 138.156C244.077 138.365 244.373 138.469 244.705 138.469C245.037 138.469 245.333 138.365 245.594 138.156C245.854 137.941 246.056 137.561 246.199 137.014C246.388 136.311 246.482 135.119 246.482 133.439C246.482 131.76 246.398 130.607 246.229 129.982C246.059 129.351 245.844 128.931 245.584 128.723C245.33 128.508 245.037 128.4 244.705 128.4ZM258.221 140.5H255.477V130.158C254.474 131.096 253.292 131.789 251.932 132.238V129.748C252.648 129.514 253.426 129.071 254.266 128.42C255.105 127.762 255.682 126.997 255.994 126.125H258.221V140.5ZM266.971 126.125C268.357 126.125 269.441 126.62 270.223 127.609C271.154 128.781 271.619 130.725 271.619 133.439C271.619 136.148 271.15 138.094 270.213 139.279C269.438 140.256 268.357 140.744 266.971 140.744C265.577 140.744 264.454 140.21 263.602 139.143C262.749 138.068 262.322 136.158 262.322 133.41C262.322 130.715 262.791 128.775 263.729 127.59C264.503 126.613 265.584 126.125 266.971 126.125ZM266.971 128.4C266.639 128.4 266.342 128.508 266.082 128.723C265.822 128.931 265.62 129.309 265.477 129.855C265.288 130.565 265.193 131.76 265.193 133.439C265.193 135.119 265.278 136.275 265.447 136.906C265.617 137.531 265.828 137.948 266.082 138.156C266.342 138.365 266.639 138.469 266.971 138.469C267.303 138.469 267.599 138.365 267.859 138.156C268.12 137.941 268.322 137.561 268.465 137.014C268.654 136.311 268.748 135.119 268.748 133.439C268.748 131.76 268.663 130.607 268.494 129.982C268.325 129.351 268.11 128.931 267.85 128.723C267.596 128.508 267.303 128.4 266.971 128.4ZM278.104 126.125C279.49 126.125 280.574 126.62 281.355 127.609C282.286 128.781 282.752 130.725 282.752 133.439C282.752 136.148 282.283 138.094 281.346 139.279C280.571 140.256 279.49 140.744 278.104 140.744C276.71 140.744 275.587 140.21 274.734 139.143C273.882 138.068 273.455 136.158 273.455 133.41C273.455 130.715 273.924 128.775 274.861 127.59C275.636 126.613 276.717 126.125 278.104 126.125ZM278.104 128.4C277.771 128.4 277.475 128.508 277.215 128.723C276.954 128.931 276.753 129.309 276.609 129.855C276.421 130.565 276.326 131.76 276.326 133.439C276.326 135.119 276.411 136.275 276.58 136.906C276.749 137.531 276.961 137.948 277.215 138.156C277.475 138.365 277.771 138.469 278.104 138.469C278.436 138.469 278.732 138.365 278.992 138.156C279.253 137.941 279.454 137.561 279.598 137.014C279.786 136.311 279.881 135.119 279.881 133.439C279.881 131.76 279.796 130.607 279.627 129.982C279.458 129.351 279.243 128.931 278.982 128.723C278.729 128.508 278.436 128.4 278.104 128.4ZM289.236 126.125C290.623 126.125 291.707 126.62 292.488 127.609C293.419 128.781 293.885 130.725 293.885 133.439C293.885 136.148 293.416 138.094 292.479 139.279C291.704 140.256 290.623 140.744 289.236 140.744C287.843 140.744 286.72 140.21 285.867 139.143C285.014 138.068 284.588 136.158 284.588 133.41C284.588 130.715 285.057 128.775 285.994 127.59C286.769 126.613 287.85 126.125 289.236 126.125ZM289.236 128.4C288.904 128.4 288.608 128.508 288.348 128.723C288.087 128.931 287.885 129.309 287.742 129.855C287.553 130.565 287.459 131.76 287.459 133.439C287.459 135.119 287.544 136.275 287.713 136.906C287.882 137.531 288.094 137.948 288.348 138.156C288.608 138.365 288.904 138.469 289.236 138.469C289.568 138.469 289.865 138.365 290.125 138.156C290.385 137.941 290.587 137.561 290.73 137.014C290.919 136.311 291.014 135.119 291.014 133.439C291.014 131.76 290.929 130.607 290.76 129.982C290.59 129.351 290.376 128.931 290.115 128.723C289.861 128.508 289.568 128.4 289.236 128.4Z" fill="white"/>
<path d="M193.016 162.805V159.531C191.995 159.24 191.245 158.799 190.766 158.211C190.292 157.617 190.055 156.898 190.055 156.055C190.055 155.201 190.323 154.484 190.859 153.906C191.401 153.323 192.12 152.987 193.016 152.898V152.125H194.148V152.898C194.977 152.997 195.635 153.281 196.125 153.75C196.615 154.214 196.927 154.836 197.062 155.617L195.086 155.875C194.966 155.26 194.654 154.844 194.148 154.625V157.68C195.398 158.018 196.25 158.458 196.703 159C197.156 159.536 197.383 160.227 197.383 161.07C197.383 162.013 197.096 162.807 196.523 163.453C195.956 164.099 195.164 164.495 194.148 164.641V166.102H193.016V164.68C192.115 164.57 191.383 164.234 190.82 163.672C190.258 163.109 189.898 162.315 189.742 161.289L191.781 161.07C191.865 161.487 192.021 161.846 192.25 162.148C192.479 162.451 192.734 162.669 193.016 162.805ZM193.016 154.602C192.708 154.706 192.464 154.883 192.281 155.133C192.099 155.383 192.008 155.659 192.008 155.961C192.008 156.237 192.091 156.495 192.258 156.734C192.424 156.969 192.677 157.159 193.016 157.305V154.602ZM194.148 162.914C194.539 162.841 194.857 162.661 195.102 162.375C195.346 162.083 195.469 161.742 195.469 161.352C195.469 161.003 195.365 160.703 195.156 160.453C194.953 160.198 194.617 160.003 194.148 159.867V162.914ZM203.086 164.5V162.195H198.398V160.273L203.367 153H205.211V160.266H206.633V162.195H205.211V164.5H203.086ZM203.086 160.266V156.352L200.453 160.266H203.086ZM208.156 164.5V162.305H210.352V164.5H208.156ZM216.445 164.5V162.195H211.758V160.273L216.727 153H218.57V160.266H219.992V162.195H218.57V164.5H216.445ZM216.445 160.266V156.352L213.812 160.266H216.445ZM224.758 153C225.867 153 226.734 153.396 227.359 154.188C228.104 155.125 228.477 156.68 228.477 158.852C228.477 161.018 228.102 162.576 227.352 163.523C226.732 164.305 225.867 164.695 224.758 164.695C223.643 164.695 222.745 164.268 222.062 163.414C221.38 162.555 221.039 161.026 221.039 158.828C221.039 156.672 221.414 155.12 222.164 154.172C222.784 153.391 223.648 153 224.758 153ZM224.758 154.82C224.492 154.82 224.255 154.906 224.047 155.078C223.839 155.245 223.677 155.547 223.562 155.984C223.411 156.552 223.336 157.508 223.336 158.852C223.336 160.195 223.404 161.12 223.539 161.625C223.674 162.125 223.844 162.458 224.047 162.625C224.255 162.792 224.492 162.875 224.758 162.875C225.023 162.875 225.26 162.792 225.469 162.625C225.677 162.453 225.839 162.148 225.953 161.711C226.104 161.148 226.18 160.195 226.18 158.852C226.18 157.508 226.112 156.586 225.977 156.086C225.841 155.581 225.669 155.245 225.461 155.078C225.258 154.906 225.023 154.82 224.758 154.82ZM233.664 153C234.773 153 235.641 153.396 236.266 154.188C237.01 155.125 237.383 156.68 237.383 158.852C237.383 161.018 237.008 162.576 236.258 163.523C235.638 164.305 234.773 164.695 233.664 164.695C232.549 164.695 231.651 164.268 230.969 163.414C230.286 162.555 229.945 161.026 229.945 158.828C229.945 156.672 230.32 155.12 231.07 154.172C231.69 153.391 232.555 153 233.664 153ZM233.664 154.82C233.398 154.82 233.161 154.906 232.953 155.078C232.745 155.245 232.583 155.547 232.469 155.984C232.318 156.552 232.242 157.508 232.242 158.852C232.242 160.195 232.31 161.12 232.445 161.625C232.581 162.125 232.75 162.458 232.953 162.625C233.161 162.792 233.398 162.875 233.664 162.875C233.93 162.875 234.167 162.792 234.375 162.625C234.583 162.453 234.745 162.148 234.859 161.711C235.01 161.148 235.086 160.195 235.086 158.852C235.086 157.508 235.018 156.586 234.883 156.086C234.747 155.581 234.576 155.245 234.367 155.078C234.164 154.906 233.93 154.82 233.664 154.82ZM242.57 153C243.68 153 244.547 153.396 245.172 154.188C245.917 155.125 246.289 156.68 246.289 158.852C246.289 161.018 245.914 162.576 245.164 163.523C244.544 164.305 243.68 164.695 242.57 164.695C241.456 164.695 240.557 164.268 239.875 163.414C239.193 162.555 238.852 161.026 238.852 158.828C238.852 156.672 239.227 155.12 239.977 154.172C240.596 153.391 241.461 153 242.57 153ZM242.57 154.82C242.305 154.82 242.068 154.906 241.859 155.078C241.651 155.245 241.49 155.547 241.375 155.984C241.224 156.552 241.148 157.508 241.148 158.852C241.148 160.195 241.216 161.12 241.352 161.625C241.487 162.125 241.656 162.458 241.859 162.625C242.068 162.792 242.305 162.875 242.57 162.875C242.836 162.875 243.073 162.792 243.281 162.625C243.49 162.453 243.651 162.148 243.766 161.711C243.917 161.148 243.992 160.195 243.992 158.852C243.992 157.508 243.924 156.586 243.789 156.086C243.654 155.581 243.482 155.245 243.273 155.078C243.07 154.906 242.836 154.82 242.57 154.82ZM251.477 153C252.586 153 253.453 153.396 254.078 154.188C254.823 155.125 255.195 156.68 255.195 158.852C255.195 161.018 254.82 162.576 254.07 163.523C253.451 164.305 252.586 164.695 251.477 164.695C250.362 164.695 249.464 164.268 248.781 163.414C248.099 162.555 247.758 161.026 247.758 158.828C247.758 156.672 248.133 155.12 248.883 154.172C249.503 153.391 250.367 153 251.477 153ZM251.477 154.82C251.211 154.82 250.974 154.906 250.766 155.078C250.557 155.245 250.396 155.547 250.281 155.984C250.13 156.552 250.055 157.508 250.055 158.852C250.055 160.195 250.122 161.12 250.258 161.625C250.393 162.125 250.562 162.458 250.766 162.625C250.974 162.792 251.211 162.875 251.477 162.875C251.742 162.875 251.979 162.792 252.188 162.625C252.396 162.453 252.557 162.148 252.672 161.711C252.823 161.148 252.898 160.195 252.898 158.852C252.898 157.508 252.831 156.586 252.695 156.086C252.56 155.581 252.388 155.245 252.18 155.078C251.977 154.906 251.742 154.82 251.477 154.82ZM260.383 153C261.492 153 262.359 153.396 262.984 154.188C263.729 155.125 264.102 156.68 264.102 158.852C264.102 161.018 263.727 162.576 262.977 163.523C262.357 164.305 261.492 164.695 260.383 164.695C259.268 164.695 258.37 164.268 257.688 163.414C257.005 162.555 256.664 161.026 256.664 158.828C256.664 156.672 257.039 155.12 257.789 154.172C258.409 153.391 259.273 153 260.383 153ZM260.383 154.82C260.117 154.82 259.88 154.906 259.672 155.078C259.464 155.245 259.302 155.547 259.188 155.984C259.036 156.552 258.961 157.508 258.961 158.852C258.961 160.195 259.029 161.12 259.164 161.625C259.299 162.125 259.469 162.458 259.672 162.625C259.88 162.792 260.117 162.875 260.383 162.875C260.648 162.875 260.885 162.792 261.094 162.625C261.302 162.453 261.464 162.148 261.578 161.711C261.729 161.148 261.805 160.195 261.805 158.852C261.805 157.508 261.737 156.586 261.602 156.086C261.466 155.581 261.294 155.245 261.086 155.078C260.883 154.906 260.648 154.82 260.383 154.82ZM269.289 153C270.398 153 271.266 153.396 271.891 154.188C272.635 155.125 273.008 156.68 273.008 158.852C273.008 161.018 272.633 162.576 271.883 163.523C271.263 164.305 270.398 164.695 269.289 164.695C268.174 164.695 267.276 164.268 266.594 163.414C265.911 162.555 265.57 161.026 265.57 158.828C265.57 156.672 265.945 155.12 266.695 154.172C267.315 153.391 268.18 153 269.289 153ZM269.289 154.82C269.023 154.82 268.786 154.906 268.578 155.078C268.37 155.245 268.208 155.547 268.094 155.984C267.943 156.552 267.867 157.508 267.867 158.852C267.867 160.195 267.935 161.12 268.07 161.625C268.206 162.125 268.375 162.458 268.578 162.625C268.786 162.792 269.023 162.875 269.289 162.875C269.555 162.875 269.792 162.792 270 162.625C270.208 162.453 270.37 162.148 270.484 161.711C270.635 161.148 270.711 160.195 270.711 158.852C270.711 157.508 270.643 156.586 270.508 156.086C270.372 155.581 270.201 155.245 269.992 155.078C269.789 154.906 269.555 154.82 269.289 154.82Z" fill="#7C8499"/>
</g>
<rect x="369.125" y="110.375" width="62" height="30.6248" rx="10" fill="#383C45"/>
<path d="M392.296 120.477H393.526V131.188H391.891V122.442C391.246 123.057 390.421 123.507 389.431 123.792V122.172C389.911 122.052 390.406 121.842 390.946 121.542C391.486 121.212 391.936 120.867 392.296 120.477ZM400.624 118.887H402.004L396.769 132.688H395.374L400.624 118.887ZM407.104 120.267C408.124 120.267 408.979 120.552 409.639 121.152C410.284 121.752 410.614 122.517 410.614 123.462C410.614 124.392 410.254 125.232 409.564 125.997C409.144 126.432 408.409 127.002 407.344 127.722C406.189 128.487 405.499 129.162 405.274 129.747H410.629V131.188H403.249C403.249 130.122 403.594 129.192 404.314 128.382C404.704 127.917 405.514 127.272 406.729 126.432C407.449 125.922 407.959 125.517 408.259 125.202C408.739 124.662 408.994 124.077 408.994 123.447C408.994 122.847 408.829 122.397 408.499 122.097C408.169 121.797 407.674 121.647 407.044 121.647C406.369 121.647 405.859 121.872 405.514 122.337C405.154 122.787 404.974 123.432 404.944 124.302H403.309C403.324 123.102 403.669 122.142 404.344 121.422C405.034 120.642 405.964 120.267 407.104 120.267Z" fill="#7C8499"/>
<rect x="369.125" y="149" width="62" height="30.6248" rx="10" fill="#383C45"/>
<path d="M396.316 158.892C397.336 158.892 398.191 159.177 398.851 159.777C399.496 160.377 399.826 161.142 399.826 162.087C399.826 163.017 399.466 163.857 398.776 164.622C398.356 165.057 397.621 165.627 396.556 166.347C395.401 167.112 394.711 167.787 394.486 168.372H399.841V169.812H392.461C392.461 168.747 392.806 167.817 393.526 167.007C393.916 166.542 394.726 165.897 395.941 165.057C396.661 164.547 397.171 164.142 397.471 163.827C397.951 163.287 398.206 162.702 398.206 162.072C398.206 161.472 398.041 161.022 397.711 160.722C397.381 160.422 396.886 160.272 396.256 160.272C395.581 160.272 395.071 160.497 394.726 160.962C394.366 161.412 394.186 162.057 394.156 162.927H392.521C392.536 161.727 392.881 160.767 393.556 160.047C394.246 159.267 395.176 158.892 396.316 158.892ZM401.065 162.057H402.925L404.635 164.517L406.33 162.057H408.19L405.505 165.687L408.52 169.812H406.66L404.635 166.857L402.595 169.812H400.72L403.75 165.687L401.065 162.057Z" fill="#7C8499"/>
<rect x="25.2422" y="106.742" width="409.516" height="76.5156" rx="4.60178" stroke="#55657E" stroke-width="0.484398"/>
<defs>
<clipPath id="clip0_19_34008">
<rect width="130" height="45" fill="white" transform="translate(165 122.5)"/>
</clipPath>
<clipPath id="clip1_19_34008">
<rect width="20" height="20" fill="white" transform="translate(165 122.5)"/>
</clipPath>
</defs>
</svg>
