<svg width="460" height="290" viewBox="0 0 460 290" fill="none" xmlns="http://www.w3.org/2000/svg">
<rect width="460" height="290" rx="10" fill="#F4F7FD"/>
<rect x="25.5" y="107" width="409" height="76" rx="9.5" fill="white"/>
<rect x="33" y="114.5" width="60" height="26.5" rx="10" fill="#F1F1F1"/>
<path d="M36.1349 123.468H43.7399V124.677H40.6459V132.75H39.2419V124.677H36.1349V123.468ZM47.2267 123.442H48.4357L49.7877 125.093H48.9167L47.8247 124.04L46.7587 125.093H45.8877L47.2267 123.442ZM47.8247 125.847C48.8387 125.847 49.6707 126.185 50.2947 126.887C50.8797 127.537 51.1787 128.382 51.1787 129.396C51.1787 130.41 50.8797 131.242 50.2947 131.892C49.6707 132.581 48.8517 132.932 47.8247 132.932C46.7977 132.932 45.9787 132.581 45.3677 131.892C44.7697 131.242 44.4707 130.41 44.4707 129.396C44.4707 128.382 44.7697 127.537 45.3677 126.887C45.9917 126.185 46.8107 125.847 47.8247 125.847ZM47.8247 126.978C47.2267 126.978 46.7587 127.186 46.4077 127.628C46.0697 128.07 45.9007 128.655 45.9007 129.396C45.9007 130.124 46.0697 130.696 46.4077 131.138C46.7587 131.58 47.2267 131.801 47.8247 131.801C48.4227 131.801 48.8907 131.58 49.2417 131.138C49.5797 130.696 49.7617 130.124 49.7617 129.396C49.7617 128.655 49.5797 128.07 49.2417 127.628C48.8907 127.186 48.4227 126.978 47.8247 126.978ZM54.8145 123.364H56.3355L54.4895 125.262H53.5795L54.8145 123.364ZM53.4625 123.338C53.7355 123.338 53.9695 123.416 54.1515 123.598C54.3335 123.767 54.4245 123.988 54.4245 124.261C54.4245 124.534 54.3205 124.755 54.1385 124.937C53.9565 125.106 53.7225 125.197 53.4625 125.197C53.1895 125.197 52.9685 125.106 52.7865 124.937C52.6045 124.755 52.5135 124.521 52.5135 124.261C52.5135 123.988 52.6045 123.767 52.7865 123.598C52.9685 123.416 53.1895 123.338 53.4625 123.338ZM52.7735 126.029H54.1515V132.75H52.7735V126.029ZM62.3869 123.858V126.029H63.9209V127.173H62.3869V131.073C62.3869 131.255 62.4259 131.385 62.5039 131.476C62.5819 131.554 62.6989 131.606 62.8679 131.606H63.7519V132.75H62.6469C62.0749 132.75 61.6459 132.594 61.3859 132.295C61.1259 132.009 61.0089 131.606 61.0089 131.073V127.173H59.7609V126.029H61.0089V124.43L62.3869 123.858ZM65.0305 123.286H66.4085V126.978C66.6555 126.588 66.9675 126.289 67.3445 126.107C67.6825 125.925 68.0595 125.847 68.4885 125.847C69.2945 125.847 69.9055 126.081 70.3215 126.562C70.7115 127.017 70.9065 127.693 70.9065 128.577V132.75H69.5285V128.811C69.5285 128.213 69.3985 127.771 69.1645 127.459C68.9045 127.134 68.5015 126.978 67.9815 126.978C67.5135 126.978 67.1365 127.16 66.8505 127.537C66.5515 127.914 66.4085 128.395 66.4085 128.98V132.75H65.0305V123.286ZM73.4449 123.338C73.7179 123.338 73.9519 123.416 74.1339 123.598C74.3159 123.767 74.4069 123.988 74.4069 124.261C74.4069 124.534 74.3029 124.755 74.1209 124.937C73.9389 125.106 73.7049 125.197 73.4449 125.197C73.1719 125.197 72.9509 125.106 72.7689 124.937C72.5869 124.755 72.4959 124.521 72.4959 124.261C72.4959 123.988 72.5869 123.767 72.7689 123.598C72.9509 123.416 73.1719 123.338 73.4449 123.338ZM72.7559 126.029H74.1339V132.75H72.7559V126.029ZM78.2872 123.442H79.4962L80.8352 125.093H79.9642L78.8982 124.04L77.8062 125.093H76.9352L78.2872 123.442ZM78.8462 125.847C79.9382 125.847 80.7832 126.211 81.3552 126.965C81.8752 127.641 82.1482 128.577 82.1612 129.773H77.0652C77.1172 130.423 77.2862 130.93 77.5982 131.281C77.9102 131.619 78.3392 131.801 78.8852 131.801C79.3662 131.801 79.7562 131.684 80.0552 131.463C80.2892 131.281 80.4842 130.982 80.6662 130.592H82.0442C81.8882 131.216 81.5892 131.749 81.1212 132.165C80.5362 132.672 79.7952 132.932 78.8982 132.932C77.9102 132.932 77.1172 132.62 76.5452 132.009C75.9212 131.359 75.6092 130.488 75.6092 129.383C75.6092 128.382 75.8952 127.55 76.4932 126.874C77.0652 126.185 77.8582 125.847 78.8462 125.847ZM78.8852 126.978C78.3652 126.978 77.9622 127.121 77.6502 127.433C77.3642 127.732 77.1692 128.161 77.0912 128.733H80.7182C80.5882 127.563 79.9772 126.978 78.8852 126.978ZM85.7031 123.143C86.6261 123.143 87.0941 123.468 87.0941 124.131C87.0941 124.664 86.6651 125.093 85.8201 125.418L85.4561 125.041C86.0801 124.729 86.3921 124.43 86.3921 124.144C86.3921 123.858 86.1321 123.715 85.6251 123.715C85.2741 123.715 84.9101 123.806 84.5331 123.988V123.351C84.9231 123.208 85.3131 123.143 85.7031 123.143ZM83.3371 126.029H84.7151V130.124C84.7151 130.696 84.8321 131.112 85.0791 131.372C85.3131 131.632 85.7031 131.775 86.2361 131.775C86.6001 131.775 86.9251 131.619 87.2371 131.333C87.5491 131.034 87.7701 130.631 87.8871 130.137V126.029H89.2651V132.75H87.8871V131.84C87.3151 132.568 86.6131 132.932 85.7681 132.932C84.1431 132.932 83.3371 132.022 83.3371 130.215V126.029Z" fill="#A6A6A6"/>
<rect x="33" y="149" width="60" height="26.5" rx="10" fill="#F1F1F1"/>
<path d="M43.6506 157.968H51.2556V159.177H48.1616V167.25H46.7576V159.177H43.6506V157.968ZM54.7423 157.942H55.9513L57.3033 159.593H56.4323L55.3403 158.54L54.2743 159.593H53.4033L54.7423 157.942ZM55.3403 160.347C56.3543 160.347 57.1863 160.685 57.8103 161.387C58.3953 162.037 58.6943 162.882 58.6943 163.896C58.6943 164.91 58.3953 165.742 57.8103 166.392C57.1863 167.081 56.3673 167.432 55.3403 167.432C54.3133 167.432 53.4943 167.081 52.8833 166.392C52.2853 165.742 51.9863 164.91 51.9863 163.896C51.9863 162.882 52.2853 162.037 52.8833 161.387C53.5073 160.685 54.3263 160.347 55.3403 160.347ZM55.3403 161.478C54.7423 161.478 54.2743 161.686 53.9233 162.128C53.5853 162.57 53.4163 163.155 53.4163 163.896C53.4163 164.624 53.5853 165.196 53.9233 165.638C54.2743 166.08 54.7423 166.301 55.3403 166.301C55.9383 166.301 56.4063 166.08 56.7573 165.638C57.0953 165.196 57.2773 164.624 57.2773 163.896C57.2773 163.155 57.0953 162.57 56.7573 162.128C56.4063 161.686 55.9383 161.478 55.3403 161.478ZM62.3301 157.864H63.8511L62.0051 159.762H61.0951L62.3301 157.864ZM60.9781 157.838C61.2511 157.838 61.4851 157.916 61.6671 158.098C61.8491 158.267 61.9401 158.488 61.9401 158.761C61.9401 159.034 61.8361 159.255 61.6541 159.437C61.4721 159.606 61.2381 159.697 60.9781 159.697C60.7051 159.697 60.4841 159.606 60.3021 159.437C60.1201 159.255 60.0291 159.021 60.0291 158.761C60.0291 158.488 60.1201 158.267 60.3021 158.098C60.4841 157.916 60.7051 157.838 60.9781 157.838ZM60.2891 160.529H61.6671V167.25H60.2891V160.529ZM70.5395 158.8H72.6975V157.786H74.0755V158.8H75.1415V159.606H74.0755V167.25H72.7885V166.444C72.3205 167.094 71.6185 167.432 70.7085 167.432C69.7205 167.432 68.9405 167.081 68.3815 166.379C67.8615 165.729 67.6015 164.884 67.6015 163.857C67.6015 162.869 67.8485 162.05 68.3685 161.4C68.9145 160.698 69.6685 160.347 70.6435 160.347C71.4625 160.347 72.1515 160.737 72.6975 161.53V159.606H70.5395V158.8ZM70.9555 161.465C70.2795 161.465 69.7725 161.686 69.4475 162.154C69.1615 162.544 69.0185 163.116 69.0185 163.857C69.0185 164.598 69.1485 165.17 69.4215 165.586C69.7335 166.067 70.2405 166.314 70.9165 166.314C71.5145 166.314 71.9695 166.067 72.3075 165.599C72.5935 165.183 72.7365 164.624 72.7365 163.948V163.831C72.7365 163.103 72.5545 162.518 72.2165 162.076C71.8785 161.66 71.4625 161.465 70.9555 161.465ZM78.9521 160.347C79.9401 160.347 80.6681 160.594 81.1361 161.088C81.5391 161.517 81.7471 162.141 81.7471 162.96V167.25H80.4731V166.301C80.2131 166.639 79.8881 166.912 79.4981 167.107C79.0561 167.315 78.5361 167.432 77.9381 167.432C77.2361 167.432 76.6901 167.25 76.3001 166.899C75.8711 166.548 75.6631 166.093 75.6631 165.534C75.6631 164.78 75.9621 164.195 76.5601 163.792C77.1061 163.402 77.8861 163.207 78.8741 163.181L80.3821 163.142V162.869C80.3821 161.933 79.8751 161.465 78.8611 161.465C78.4321 161.465 78.0811 161.543 77.8211 161.699C77.5091 161.881 77.3141 162.154 77.2361 162.531L75.8711 162.414C76.0141 161.686 76.3781 161.14 76.9501 160.802C77.4441 160.49 78.1201 160.347 78.9521 160.347ZM80.3821 164.143L78.9651 164.182C77.7041 164.208 77.0801 164.65 77.0801 165.482C77.0801 165.742 77.1841 165.95 77.4051 166.119C77.6131 166.288 77.8991 166.379 78.2501 166.379C78.8351 166.379 79.3291 166.197 79.7451 165.846C80.1611 165.495 80.3821 165.053 80.3821 164.533V164.143Z" fill="#A6A6A6"/>
<g clip-path="url(#clip0_23_13420)">
<g clip-path="url(#clip1_23_13420)">
<path d="M184.699 134.919C183.364 140.276 177.938 143.537 172.58 142.201C167.224 140.865 163.964 135.439 165.3 130.082C166.635 124.724 172.061 121.464 177.417 122.799C182.775 124.135 186.035 129.562 184.699 134.919L184.699 134.919H184.699Z" fill="#F7931A"/>
<path d="M179.41 131.075C179.609 129.744 178.595 129.029 177.21 128.551L177.659 126.749L176.562 126.475L176.125 128.231C175.836 128.159 175.54 128.091 175.245 128.024L175.686 126.257L174.589 125.983L174.14 127.785C173.901 127.731 173.667 127.677 173.439 127.621L173.44 127.615L171.927 127.237L171.635 128.409C171.635 128.409 172.449 128.596 172.432 128.607C172.877 128.718 172.957 129.012 172.944 129.246L172.432 131.299C172.462 131.307 172.502 131.318 172.546 131.336C172.509 131.327 172.47 131.317 172.43 131.307L171.712 134.184C171.658 134.319 171.52 134.522 171.209 134.445C171.22 134.461 170.412 134.246 170.412 134.246L169.867 135.502L171.295 135.858C171.561 135.924 171.821 135.994 172.077 136.06L171.623 137.883L172.719 138.156L173.169 136.352C173.468 136.434 173.759 136.509 174.043 136.579L173.595 138.375L174.693 138.648L175.147 136.828C177.018 137.182 178.425 137.04 179.017 135.347C179.494 133.985 178.993 133.199 178.009 132.686C178.726 132.521 179.266 132.049 179.41 131.075L179.41 131.075L179.41 131.075ZM176.902 134.59C176.563 135.953 174.269 135.217 173.525 135.032L174.128 132.616C174.872 132.802 177.257 133.169 176.903 134.59H176.902ZM177.242 131.055C176.932 132.295 175.023 131.665 174.403 131.51L174.95 129.32C175.569 129.474 177.564 129.762 177.242 131.055H177.242Z" fill="white"/>
</g>
<path d="M194.607 126.125C195.994 126.125 197.078 126.62 197.859 127.609C198.79 128.781 199.256 130.725 199.256 133.439C199.256 136.148 198.787 138.094 197.85 139.279C197.075 140.256 195.994 140.744 194.607 140.744C193.214 140.744 192.091 140.21 191.238 139.143C190.385 138.068 189.959 136.158 189.959 133.41C189.959 130.715 190.428 128.775 191.365 127.59C192.14 126.613 193.221 126.125 194.607 126.125ZM194.607 128.4C194.275 128.4 193.979 128.508 193.719 128.723C193.458 128.931 193.257 129.309 193.113 129.855C192.924 130.565 192.83 131.76 192.83 133.439C192.83 135.119 192.915 136.275 193.084 136.906C193.253 137.531 193.465 137.948 193.719 138.156C193.979 138.365 194.275 138.469 194.607 138.469C194.939 138.469 195.236 138.365 195.496 138.156C195.757 137.941 195.958 137.561 196.102 137.014C196.29 136.311 196.385 135.119 196.385 133.439C196.385 131.76 196.3 130.607 196.131 129.982C195.962 129.351 195.747 128.931 195.486 128.723C195.232 128.508 194.939 128.4 194.607 128.4ZM201.688 140.5V137.756H204.432V140.5H201.688ZM211.307 126.125C212.693 126.125 213.777 126.62 214.559 127.609C215.49 128.781 215.955 130.725 215.955 133.439C215.955 136.148 215.486 138.094 214.549 139.279C213.774 140.256 212.693 140.744 211.307 140.744C209.913 140.744 208.79 140.21 207.938 139.143C207.085 138.068 206.658 136.158 206.658 133.41C206.658 130.715 207.127 128.775 208.064 127.59C208.839 126.613 209.92 126.125 211.307 126.125ZM211.307 128.4C210.975 128.4 210.678 128.508 210.418 128.723C210.158 128.931 209.956 129.309 209.812 129.855C209.624 130.565 209.529 131.76 209.529 133.439C209.529 135.119 209.614 136.275 209.783 136.906C209.952 137.531 210.164 137.948 210.418 138.156C210.678 138.365 210.975 138.469 211.307 138.469C211.639 138.469 211.935 138.365 212.195 138.156C212.456 137.941 212.658 137.561 212.801 137.014C212.99 136.311 213.084 135.119 213.084 133.439C213.084 131.76 212.999 130.607 212.83 129.982C212.661 129.351 212.446 128.931 212.186 128.723C211.932 128.508 211.639 128.4 211.307 128.4ZM222.439 126.125C223.826 126.125 224.91 126.62 225.691 127.609C226.622 128.781 227.088 130.725 227.088 133.439C227.088 136.148 226.619 138.094 225.682 139.279C224.907 140.256 223.826 140.744 222.439 140.744C221.046 140.744 219.923 140.21 219.07 139.143C218.217 138.068 217.791 136.158 217.791 133.41C217.791 130.715 218.26 128.775 219.197 127.59C219.972 126.613 221.053 126.125 222.439 126.125ZM222.439 128.4C222.107 128.4 221.811 128.508 221.551 128.723C221.29 128.931 221.089 129.309 220.945 129.855C220.757 130.565 220.662 131.76 220.662 133.439C220.662 135.119 220.747 136.275 220.916 136.906C221.085 137.531 221.297 137.948 221.551 138.156C221.811 138.365 222.107 138.469 222.439 138.469C222.771 138.469 223.068 138.365 223.328 138.156C223.589 137.941 223.79 137.561 223.934 137.014C224.122 136.311 224.217 135.119 224.217 133.439C224.217 131.76 224.132 130.607 223.963 129.982C223.794 129.351 223.579 128.931 223.318 128.723C223.064 128.508 222.771 128.4 222.439 128.4ZM233.572 126.125C234.959 126.125 236.043 126.62 236.824 127.609C237.755 128.781 238.221 130.725 238.221 133.439C238.221 136.148 237.752 138.094 236.814 139.279C236.04 140.256 234.959 140.744 233.572 140.744C232.179 140.744 231.056 140.21 230.203 139.143C229.35 138.068 228.924 136.158 228.924 133.41C228.924 130.715 229.393 128.775 230.33 127.59C231.105 126.613 232.186 126.125 233.572 126.125ZM233.572 128.4C233.24 128.4 232.944 128.508 232.684 128.723C232.423 128.931 232.221 129.309 232.078 129.855C231.889 130.565 231.795 131.76 231.795 133.439C231.795 135.119 231.88 136.275 232.049 136.906C232.218 137.531 232.43 137.948 232.684 138.156C232.944 138.365 233.24 138.469 233.572 138.469C233.904 138.469 234.201 138.365 234.461 138.156C234.721 137.941 234.923 137.561 235.066 137.014C235.255 136.311 235.35 135.119 235.35 133.439C235.35 131.76 235.265 130.607 235.096 129.982C234.926 129.351 234.712 128.931 234.451 128.723C234.197 128.508 233.904 128.4 233.572 128.4ZM244.705 126.125C246.092 126.125 247.176 126.62 247.957 127.609C248.888 128.781 249.354 130.725 249.354 133.439C249.354 136.148 248.885 138.094 247.947 139.279C247.173 140.256 246.092 140.744 244.705 140.744C243.312 140.744 242.189 140.21 241.336 139.143C240.483 138.068 240.057 136.158 240.057 133.41C240.057 130.715 240.525 128.775 241.463 127.59C242.238 126.613 243.318 126.125 244.705 126.125ZM244.705 128.4C244.373 128.4 244.077 128.508 243.816 128.723C243.556 128.931 243.354 129.309 243.211 129.855C243.022 130.565 242.928 131.76 242.928 133.439C242.928 135.119 243.012 136.275 243.182 136.906C243.351 137.531 243.562 137.948 243.816 138.156C244.077 138.365 244.373 138.469 244.705 138.469C245.037 138.469 245.333 138.365 245.594 138.156C245.854 137.941 246.056 137.561 246.199 137.014C246.388 136.311 246.482 135.119 246.482 133.439C246.482 131.76 246.398 130.607 246.229 129.982C246.059 129.351 245.844 128.931 245.584 128.723C245.33 128.508 245.037 128.4 244.705 128.4ZM258.221 140.5H255.477V130.158C254.474 131.096 253.292 131.789 251.932 132.238V129.748C252.648 129.514 253.426 129.071 254.266 128.42C255.105 127.762 255.682 126.997 255.994 126.125H258.221V140.5ZM266.971 126.125C268.357 126.125 269.441 126.62 270.223 127.609C271.154 128.781 271.619 130.725 271.619 133.439C271.619 136.148 271.15 138.094 270.213 139.279C269.438 140.256 268.357 140.744 266.971 140.744C265.577 140.744 264.454 140.21 263.602 139.143C262.749 138.068 262.322 136.158 262.322 133.41C262.322 130.715 262.791 128.775 263.729 127.59C264.503 126.613 265.584 126.125 266.971 126.125ZM266.971 128.4C266.639 128.4 266.342 128.508 266.082 128.723C265.822 128.931 265.62 129.309 265.477 129.855C265.288 130.565 265.193 131.76 265.193 133.439C265.193 135.119 265.278 136.275 265.447 136.906C265.617 137.531 265.828 137.948 266.082 138.156C266.342 138.365 266.639 138.469 266.971 138.469C267.303 138.469 267.599 138.365 267.859 138.156C268.12 137.941 268.322 137.561 268.465 137.014C268.654 136.311 268.748 135.119 268.748 133.439C268.748 131.76 268.663 130.607 268.494 129.982C268.325 129.351 268.11 128.931 267.85 128.723C267.596 128.508 267.303 128.4 266.971 128.4ZM278.104 126.125C279.49 126.125 280.574 126.62 281.355 127.609C282.286 128.781 282.752 130.725 282.752 133.439C282.752 136.148 282.283 138.094 281.346 139.279C280.571 140.256 279.49 140.744 278.104 140.744C276.71 140.744 275.587 140.21 274.734 139.143C273.882 138.068 273.455 136.158 273.455 133.41C273.455 130.715 273.924 128.775 274.861 127.59C275.636 126.613 276.717 126.125 278.104 126.125ZM278.104 128.4C277.771 128.4 277.475 128.508 277.215 128.723C276.954 128.931 276.753 129.309 276.609 129.855C276.421 130.565 276.326 131.76 276.326 133.439C276.326 135.119 276.411 136.275 276.58 136.906C276.749 137.531 276.961 137.948 277.215 138.156C277.475 138.365 277.771 138.469 278.104 138.469C278.436 138.469 278.732 138.365 278.992 138.156C279.253 137.941 279.454 137.561 279.598 137.014C279.786 136.311 279.881 135.119 279.881 133.439C279.881 131.76 279.796 130.607 279.627 129.982C279.458 129.351 279.243 128.931 278.982 128.723C278.729 128.508 278.436 128.4 278.104 128.4ZM289.236 126.125C290.623 126.125 291.707 126.62 292.488 127.609C293.419 128.781 293.885 130.725 293.885 133.439C293.885 136.148 293.416 138.094 292.479 139.279C291.704 140.256 290.623 140.744 289.236 140.744C287.843 140.744 286.72 140.21 285.867 139.143C285.014 138.068 284.588 136.158 284.588 133.41C284.588 130.715 285.057 128.775 285.994 127.59C286.769 126.613 287.85 126.125 289.236 126.125ZM289.236 128.4C288.904 128.4 288.608 128.508 288.348 128.723C288.087 128.931 287.885 129.309 287.742 129.855C287.553 130.565 287.459 131.76 287.459 133.439C287.459 135.119 287.544 136.275 287.713 136.906C287.882 137.531 288.094 137.948 288.348 138.156C288.608 138.365 288.904 138.469 289.236 138.469C289.568 138.469 289.865 138.365 290.125 138.156C290.385 137.941 290.587 137.561 290.73 137.014C290.919 136.311 291.014 135.119 291.014 133.439C291.014 131.76 290.929 130.607 290.76 129.982C290.59 129.351 290.376 128.931 290.115 128.723C289.861 128.508 289.568 128.4 289.236 128.4Z" fill="#484848"/>
<path d="M193.016 162.805V159.531C191.995 159.24 191.245 158.799 190.766 158.211C190.292 157.617 190.055 156.898 190.055 156.055C190.055 155.201 190.323 154.484 190.859 153.906C191.401 153.323 192.12 152.987 193.016 152.898V152.125H194.148V152.898C194.977 152.997 195.635 153.281 196.125 153.75C196.615 154.214 196.927 154.836 197.062 155.617L195.086 155.875C194.966 155.26 194.654 154.844 194.148 154.625V157.68C195.398 158.018 196.25 158.458 196.703 159C197.156 159.536 197.383 160.227 197.383 161.07C197.383 162.013 197.096 162.807 196.523 163.453C195.956 164.099 195.164 164.495 194.148 164.641V166.102H193.016V164.68C192.115 164.57 191.383 164.234 190.82 163.672C190.258 163.109 189.898 162.315 189.742 161.289L191.781 161.07C191.865 161.487 192.021 161.846 192.25 162.148C192.479 162.451 192.734 162.669 193.016 162.805ZM193.016 154.602C192.708 154.706 192.464 154.883 192.281 155.133C192.099 155.383 192.008 155.659 192.008 155.961C192.008 156.237 192.091 156.495 192.258 156.734C192.424 156.969 192.677 157.159 193.016 157.305V154.602ZM194.148 162.914C194.539 162.841 194.857 162.661 195.102 162.375C195.346 162.083 195.469 161.742 195.469 161.352C195.469 161.003 195.365 160.703 195.156 160.453C194.953 160.198 194.617 160.003 194.148 159.867V162.914ZM203.086 164.5V162.195H198.398V160.273L203.367 153H205.211V160.266H206.633V162.195H205.211V164.5H203.086ZM203.086 160.266V156.352L200.453 160.266H203.086ZM208.156 164.5V162.305H210.352V164.5H208.156ZM216.445 164.5V162.195H211.758V160.273L216.727 153H218.57V160.266H219.992V162.195H218.57V164.5H216.445ZM216.445 160.266V156.352L213.812 160.266H216.445ZM224.758 153C225.867 153 226.734 153.396 227.359 154.188C228.104 155.125 228.477 156.68 228.477 158.852C228.477 161.018 228.102 162.576 227.352 163.523C226.732 164.305 225.867 164.695 224.758 164.695C223.643 164.695 222.745 164.268 222.062 163.414C221.38 162.555 221.039 161.026 221.039 158.828C221.039 156.672 221.414 155.12 222.164 154.172C222.784 153.391 223.648 153 224.758 153ZM224.758 154.82C224.492 154.82 224.255 154.906 224.047 155.078C223.839 155.245 223.677 155.547 223.562 155.984C223.411 156.552 223.336 157.508 223.336 158.852C223.336 160.195 223.404 161.12 223.539 161.625C223.674 162.125 223.844 162.458 224.047 162.625C224.255 162.792 224.492 162.875 224.758 162.875C225.023 162.875 225.26 162.792 225.469 162.625C225.677 162.453 225.839 162.148 225.953 161.711C226.104 161.148 226.18 160.195 226.18 158.852C226.18 157.508 226.112 156.586 225.977 156.086C225.841 155.581 225.669 155.245 225.461 155.078C225.258 154.906 225.023 154.82 224.758 154.82ZM233.664 153C234.773 153 235.641 153.396 236.266 154.188C237.01 155.125 237.383 156.68 237.383 158.852C237.383 161.018 237.008 162.576 236.258 163.523C235.638 164.305 234.773 164.695 233.664 164.695C232.549 164.695 231.651 164.268 230.969 163.414C230.286 162.555 229.945 161.026 229.945 158.828C229.945 156.672 230.32 155.12 231.07 154.172C231.69 153.391 232.555 153 233.664 153ZM233.664 154.82C233.398 154.82 233.161 154.906 232.953 155.078C232.745 155.245 232.583 155.547 232.469 155.984C232.318 156.552 232.242 157.508 232.242 158.852C232.242 160.195 232.31 161.12 232.445 161.625C232.581 162.125 232.75 162.458 232.953 162.625C233.161 162.792 233.398 162.875 233.664 162.875C233.93 162.875 234.167 162.792 234.375 162.625C234.583 162.453 234.745 162.148 234.859 161.711C235.01 161.148 235.086 160.195 235.086 158.852C235.086 157.508 235.018 156.586 234.883 156.086C234.747 155.581 234.576 155.245 234.367 155.078C234.164 154.906 233.93 154.82 233.664 154.82ZM242.57 153C243.68 153 244.547 153.396 245.172 154.188C245.917 155.125 246.289 156.68 246.289 158.852C246.289 161.018 245.914 162.576 245.164 163.523C244.544 164.305 243.68 164.695 242.57 164.695C241.456 164.695 240.557 164.268 239.875 163.414C239.193 162.555 238.852 161.026 238.852 158.828C238.852 156.672 239.227 155.12 239.977 154.172C240.596 153.391 241.461 153 242.57 153ZM242.57 154.82C242.305 154.82 242.068 154.906 241.859 155.078C241.651 155.245 241.49 155.547 241.375 155.984C241.224 156.552 241.148 157.508 241.148 158.852C241.148 160.195 241.216 161.12 241.352 161.625C241.487 162.125 241.656 162.458 241.859 162.625C242.068 162.792 242.305 162.875 242.57 162.875C242.836 162.875 243.073 162.792 243.281 162.625C243.49 162.453 243.651 162.148 243.766 161.711C243.917 161.148 243.992 160.195 243.992 158.852C243.992 157.508 243.924 156.586 243.789 156.086C243.654 155.581 243.482 155.245 243.273 155.078C243.07 154.906 242.836 154.82 242.57 154.82ZM251.477 153C252.586 153 253.453 153.396 254.078 154.188C254.823 155.125 255.195 156.68 255.195 158.852C255.195 161.018 254.82 162.576 254.07 163.523C253.451 164.305 252.586 164.695 251.477 164.695C250.362 164.695 249.464 164.268 248.781 163.414C248.099 162.555 247.758 161.026 247.758 158.828C247.758 156.672 248.133 155.12 248.883 154.172C249.503 153.391 250.367 153 251.477 153ZM251.477 154.82C251.211 154.82 250.974 154.906 250.766 155.078C250.557 155.245 250.396 155.547 250.281 155.984C250.13 156.552 250.055 157.508 250.055 158.852C250.055 160.195 250.122 161.12 250.258 161.625C250.393 162.125 250.562 162.458 250.766 162.625C250.974 162.792 251.211 162.875 251.477 162.875C251.742 162.875 251.979 162.792 252.188 162.625C252.396 162.453 252.557 162.148 252.672 161.711C252.823 161.148 252.898 160.195 252.898 158.852C252.898 157.508 252.831 156.586 252.695 156.086C252.56 155.581 252.388 155.245 252.18 155.078C251.977 154.906 251.742 154.82 251.477 154.82ZM260.383 153C261.492 153 262.359 153.396 262.984 154.188C263.729 155.125 264.102 156.68 264.102 158.852C264.102 161.018 263.727 162.576 262.977 163.523C262.357 164.305 261.492 164.695 260.383 164.695C259.268 164.695 258.37 164.268 257.688 163.414C257.005 162.555 256.664 161.026 256.664 158.828C256.664 156.672 257.039 155.12 257.789 154.172C258.409 153.391 259.273 153 260.383 153ZM260.383 154.82C260.117 154.82 259.88 154.906 259.672 155.078C259.464 155.245 259.302 155.547 259.188 155.984C259.036 156.552 258.961 157.508 258.961 158.852C258.961 160.195 259.029 161.12 259.164 161.625C259.299 162.125 259.469 162.458 259.672 162.625C259.88 162.792 260.117 162.875 260.383 162.875C260.648 162.875 260.885 162.792 261.094 162.625C261.302 162.453 261.464 162.148 261.578 161.711C261.729 161.148 261.805 160.195 261.805 158.852C261.805 157.508 261.737 156.586 261.602 156.086C261.466 155.581 261.294 155.245 261.086 155.078C260.883 154.906 260.648 154.82 260.383 154.82ZM269.289 153C270.398 153 271.266 153.396 271.891 154.188C272.635 155.125 273.008 156.68 273.008 158.852C273.008 161.018 272.633 162.576 271.883 163.523C271.263 164.305 270.398 164.695 269.289 164.695C268.174 164.695 267.276 164.268 266.594 163.414C265.911 162.555 265.57 161.026 265.57 158.828C265.57 156.672 265.945 155.12 266.695 154.172C267.315 153.391 268.18 153 269.289 153ZM269.289 154.82C269.023 154.82 268.786 154.906 268.578 155.078C268.37 155.245 268.208 155.547 268.094 155.984C267.943 156.552 267.867 157.508 267.867 158.852C267.867 160.195 267.935 161.12 268.07 161.625C268.206 162.125 268.375 162.458 268.578 162.625C268.786 162.792 269.023 162.875 269.289 162.875C269.555 162.875 269.792 162.792 270 162.625C270.208 162.453 270.37 162.148 270.484 161.711C270.635 161.148 270.711 160.195 270.711 158.852C270.711 157.508 270.643 156.586 270.508 156.086C270.372 155.581 270.201 155.245 269.992 155.078C269.789 154.906 269.555 154.82 269.289 154.82Z" fill="#A6A6A6"/>
</g>
<rect x="365" y="114.5" width="62" height="26.5" rx="10" fill="#F1F1F1"/>
<path d="M388.171 122.54H389.401V133.25H387.766V124.505C387.121 125.12 386.296 125.57 385.306 125.855V124.235C385.786 124.115 386.281 123.905 386.821 123.605C387.361 123.275 387.811 122.93 388.171 122.54ZM396.499 120.95H397.879L392.644 134.75H391.249L396.499 120.95ZM402.979 122.33C403.999 122.33 404.854 122.615 405.514 123.215C406.159 123.815 406.489 124.58 406.489 125.525C406.489 126.455 406.129 127.295 405.439 128.06C405.019 128.495 404.284 129.065 403.219 129.785C402.064 130.55 401.374 131.225 401.149 131.81H406.504V133.25H399.124C399.124 132.185 399.469 131.255 400.189 130.445C400.579 129.98 401.389 129.335 402.604 128.495C403.324 127.985 403.834 127.58 404.134 127.265C404.614 126.725 404.869 126.14 404.869 125.51C404.869 124.91 404.704 124.46 404.374 124.16C404.044 123.86 403.549 123.71 402.919 123.71C402.244 123.71 401.734 123.935 401.389 124.4C401.029 124.85 400.849 125.495 400.819 126.365H399.184C399.199 125.165 399.544 124.205 400.219 123.485C400.909 122.705 401.839 122.33 402.979 122.33Z" fill="#A6A6A6"/>
<rect x="365" y="149" width="62" height="26.5" rx="10" fill="#F1F1F1"/>
<path d="M392.191 156.83C393.211 156.83 394.066 157.115 394.726 157.715C395.371 158.315 395.701 159.08 395.701 160.025C395.701 160.955 395.341 161.795 394.651 162.56C394.231 162.995 393.496 163.565 392.431 164.285C391.276 165.05 390.586 165.725 390.361 166.31H395.716V167.75H388.336C388.336 166.685 388.681 165.755 389.401 164.945C389.791 164.48 390.601 163.835 391.816 162.995C392.536 162.485 393.046 162.08 393.346 161.765C393.826 161.225 394.081 160.64 394.081 160.01C394.081 159.41 393.916 158.96 393.586 158.66C393.256 158.36 392.761 158.21 392.131 158.21C391.456 158.21 390.946 158.435 390.601 158.9C390.241 159.35 390.061 159.995 390.031 160.865H388.396C388.411 159.665 388.756 158.705 389.431 157.985C390.121 157.205 391.051 156.83 392.191 156.83ZM396.94 159.995H398.8L400.51 162.455L402.205 159.995H404.065L401.38 163.625L404.395 167.75H402.535L400.51 164.795L398.47 167.75H396.595L399.625 163.625L396.94 159.995Z" fill="#A6A6A6"/>
<rect x="25.5" y="107" width="409" height="76" rx="9.5" stroke="#ECECEC"/>
<defs>
<clipPath id="clip0_23_13420">
<rect width="130" height="45" fill="white" transform="translate(165 122.5)"/>
</clipPath>
<clipPath id="clip1_23_13420">
<rect width="20" height="20" fill="white" transform="translate(165 122.5)"/>
</clipPath>
</defs>
</svg>
