<svg width="460" height="290" viewBox="0 0 460 290" fill="none" xmlns="http://www.w3.org/2000/svg">
<rect width="460" height="290" rx="10" fill="#0D131C"/>
<rect x="25.5" y="58.5" width="199" height="76" rx="9.5" fill="#161F2C"/>
<rect x="33" y="66" width="35" height="26.5" rx="10" fill="#383C45"/>
<path d="M39.2085 84.419C38.2379 84.419 37.5055 84.2023 37.0115 83.769C36.5175 83.3357 36.2705 82.703 36.2705 81.871V81.351C36.2705 80.9957 36.3182 80.7053 36.4135 80.48C36.5089 80.246 36.6259 80.0337 36.7645 79.843C36.9032 79.6523 37.0159 79.4833 37.1025 79.336C37.1979 79.18 37.2455 79.0197 37.2455 78.855C37.2455 78.699 37.2065 78.5907 37.1285 78.53C37.0592 78.4607 36.9639 78.426 36.8425 78.426C36.7559 78.426 36.6649 78.439 36.5695 78.465C36.4829 78.491 36.3832 78.53 36.2705 78.582L35.9585 77.36C36.2012 77.23 36.4612 77.1433 36.7385 77.1C37.0245 77.048 37.2759 77.022 37.4925 77.022C37.8739 77.022 38.1772 77.0827 38.4025 77.204C38.6365 77.3253 38.8055 77.4987 38.9095 77.724C39.0135 77.9493 39.0655 78.218 39.0655 78.53C39.0655 78.7987 39.0265 79.037 38.9485 79.245C38.8705 79.4443 38.7709 79.6523 38.6495 79.869C38.5369 80.0683 38.4329 80.2547 38.3375 80.428C38.2509 80.6013 38.2075 80.8527 38.2075 81.182V81.702C38.2075 81.9793 38.2465 82.209 38.3245 82.391C38.4112 82.5643 38.5282 82.6943 38.6755 82.781C38.8315 82.859 39.0135 82.898 39.2215 82.898C39.5595 82.898 39.8109 82.8027 39.9755 82.612C40.1402 82.4127 40.2225 82.131 40.2225 81.767V77.126H42.1595V81.819C42.1595 82.677 41.9082 83.327 41.4055 83.769C40.9029 84.2023 40.1705 84.419 39.2085 84.419ZM40.2562 76.138C39.8488 76.138 39.5282 76.0773 39.2942 75.956C39.0602 75.8347 38.8955 75.683 38.8002 75.501C38.6962 75.3103 38.6442 75.111 38.6442 74.903C38.6442 74.7557 38.6658 74.5997 38.7092 74.435C38.7525 74.2617 38.8175 74.1013 38.9042 73.954L40.3212 74.136C40.3038 74.1967 40.2908 74.2617 40.2822 74.331C40.2648 74.3917 40.2562 74.448 40.2562 74.5C40.2562 74.6213 40.2952 74.7167 40.3732 74.786C40.4425 74.8467 40.5638 74.877 40.7372 74.877H43.5322V76.138H40.2562ZM39.8752 73.187V72.654C39.9619 72.628 40.0702 72.589 40.2002 72.537C40.3215 72.485 40.4299 72.4157 40.5252 72.329C40.6205 72.2423 40.6682 72.134 40.6682 72.004C40.6682 71.9087 40.6422 71.835 40.5902 71.783C40.5295 71.7223 40.4559 71.692 40.3692 71.692C40.3085 71.692 40.2435 71.705 40.1742 71.731C40.0962 71.7483 40.0355 71.7787 39.9922 71.822L39.7582 71.068C39.9142 70.9467 40.1092 70.8687 40.3432 70.834C40.5685 70.7907 40.7635 70.769 40.9282 70.769C41.2575 70.769 41.5262 70.8383 41.7342 70.977C41.9335 71.107 42.0332 71.3237 42.0332 71.627C42.0332 71.757 42.0072 71.8913 41.9552 72.03C41.8945 72.1687 41.7775 72.2813 41.6042 72.368L41.5132 72.095H43.4502V73.187H39.8752ZM46.4079 84.38C45.8792 84.38 45.4329 84.2803 45.0689 84.081C44.7136 83.873 44.4406 83.5653 44.2499 83.158C44.0679 82.7507 43.9769 82.2523 43.9769 81.663V77.126H45.9269V81.325C45.9269 81.8017 46.0222 82.1483 46.2129 82.365C46.4036 82.5817 46.6809 82.69 47.0449 82.69C47.5042 82.69 47.8596 82.5167 48.1109 82.17C48.3622 81.8147 48.4879 81.2687 48.4879 80.532V77.126H50.4379V84.25H48.9559L48.7479 83.158H48.6309C48.4836 83.5047 48.2279 83.795 47.8639 84.029C47.5086 84.263 47.0232 84.38 46.4079 84.38ZM55.0982 84.38C54.3269 84.38 53.7245 84.224 53.2912 83.912C52.8665 83.5913 52.5675 83.1493 52.3942 82.586C52.2295 82.014 52.1472 81.351 52.1472 80.597C52.1472 79.7563 52.2295 79.0717 52.3942 78.543C52.5589 78.0143 52.8059 77.6243 53.1352 77.373C53.4732 77.1217 53.8849 76.996 54.3702 76.996C54.6735 76.996 54.9379 77.0567 55.1632 77.178C55.3972 77.2907 55.5835 77.503 55.7222 77.815H55.7742C55.8955 77.4943 56.0949 77.2777 56.3722 77.165C56.6495 77.0523 56.9485 76.996 57.2692 76.996C57.8672 76.996 58.3135 77.1563 58.6082 77.477C58.9115 77.7977 59.0632 78.2657 59.0632 78.881V84.25H57.1132V79.245C57.1132 78.9763 57.0699 78.7943 56.9832 78.699C56.8965 78.6037 56.7795 78.556 56.6322 78.556C56.4675 78.556 56.3419 78.6037 56.2552 78.699C56.1772 78.7943 56.1252 78.9547 56.0992 79.18H55.3322C55.2975 78.9287 55.2325 78.764 55.1372 78.686C55.0419 78.5993 54.9292 78.556 54.7992 78.556C54.5825 78.556 54.4135 78.712 54.2922 79.024C54.1795 79.336 54.1232 79.8647 54.1232 80.61C54.1232 81.0953 54.1579 81.5113 54.2272 81.858C54.3052 82.196 54.4352 82.456 54.6172 82.638C54.7992 82.8113 55.0592 82.898 55.3972 82.898C55.5012 82.898 55.5965 82.8937 55.6832 82.885C55.7699 82.8677 55.8435 82.846 55.9042 82.82L56.0992 84.211C55.9605 84.2717 55.8089 84.315 55.6442 84.341C55.4795 84.367 55.2975 84.38 55.0982 84.38ZM57.4336 76.424C56.9396 76.424 56.5453 76.3113 56.2506 76.086C55.956 75.8607 55.8086 75.5443 55.8086 75.137C55.8086 74.7297 55.956 74.4133 56.2506 74.188C56.5453 73.9627 56.9396 73.85 57.4336 73.85C57.9276 73.85 58.3263 73.9627 58.6296 74.188C58.9243 74.4133 59.0716 74.7297 59.0716 75.137C59.0716 75.5443 58.9243 75.8607 58.6296 76.086C58.3263 76.3113 57.9276 76.424 57.4336 76.424ZM57.4336 75.67C57.6243 75.67 57.7716 75.6223 57.8756 75.527C57.9796 75.4317 58.0316 75.3017 58.0316 75.137C58.0316 74.9723 57.9796 74.8423 57.8756 74.747C57.7716 74.6517 57.6243 74.604 57.4336 74.604C57.2516 74.604 57.1086 74.6517 57.0046 74.747C56.9006 74.8423 56.8486 74.9723 56.8486 75.137C56.8486 75.3017 56.9006 75.4317 57.0046 75.527C57.1086 75.6223 57.2516 75.67 57.4336 75.67ZM56.6891 73.187V70.769H58.3791V73.187H56.6891ZM62.7721 84.25V79.544C62.7721 79.18 62.6854 78.9157 62.5121 78.751C62.3474 78.5863 62.0744 78.504 61.6931 78.504C61.4071 78.504 61.1427 78.543 60.9001 78.621C60.6661 78.699 60.4451 78.7943 60.2371 78.907V77.347C60.4277 77.2603 60.6964 77.1737 61.0431 77.087C61.3897 77.0003 61.7971 76.957 62.2651 76.957C62.7417 76.957 63.1621 77.0263 63.5261 77.165C63.8987 77.3037 64.1891 77.5377 64.3971 77.867C64.6137 78.1877 64.7221 78.6297 64.7221 79.193V84.25H62.7721Z" fill="#7C8499"/>
<rect x="33" y="100.5" width="35" height="26.5" rx="10" fill="#383C45"/>
<path d="M38.3389 118.919C37.3682 118.919 36.6359 118.702 36.1419 118.269C35.6479 117.836 35.4009 117.203 35.4009 116.371V115.851C35.4009 115.496 35.4486 115.205 35.5439 114.98C35.6392 114.746 35.7562 114.534 35.8949 114.343C36.0336 114.152 36.1462 113.983 36.2329 113.836C36.3282 113.68 36.3759 113.52 36.3759 113.355C36.3759 113.199 36.3369 113.091 36.2589 113.03C36.1896 112.961 36.0942 112.926 35.9729 112.926C35.8862 112.926 35.7952 112.939 35.6999 112.965C35.6132 112.991 35.5136 113.03 35.4009 113.082L35.0889 111.86C35.3316 111.73 35.5916 111.643 35.8689 111.6C36.1549 111.548 36.4062 111.522 36.6229 111.522C37.0042 111.522 37.3076 111.583 37.5329 111.704C37.7669 111.825 37.9359 111.999 38.0399 112.224C38.1439 112.449 38.1959 112.718 38.1959 113.03C38.1959 113.299 38.1569 113.537 38.0789 113.745C38.0009 113.944 37.9012 114.152 37.7799 114.369C37.6672 114.568 37.5632 114.755 37.4679 114.928C37.3812 115.101 37.3379 115.353 37.3379 115.682V116.202C37.3379 116.479 37.3769 116.709 37.4549 116.891C37.5416 117.064 37.6586 117.194 37.8059 117.281C37.9619 117.359 38.1439 117.398 38.3519 117.398C38.6899 117.398 38.9412 117.303 39.1059 117.112C39.2706 116.913 39.3529 116.631 39.3529 116.267V111.626H41.2899V116.319C41.2899 117.177 41.0386 117.827 40.5359 118.269C40.0332 118.702 39.3009 118.919 38.3389 118.919ZM35.3051 110.638V109.819L36.6181 109.273H41.2591V110.638H35.3051ZM39.5951 109.845V108.376H41.2591V109.845H39.5951ZM45.6683 118.88C44.9663 118.88 44.4073 118.728 43.9913 118.425C43.5753 118.113 43.2763 117.688 43.0943 117.151C42.9123 116.605 42.8213 115.981 42.8213 115.279C42.8213 114.525 42.9036 113.901 43.0683 113.407C43.2416 112.904 43.4843 112.514 43.7963 112.237C44.1083 111.951 44.4766 111.752 44.9013 111.639C45.3346 111.518 45.8069 111.457 46.3183 111.457C47.0983 111.457 47.7223 111.565 48.1903 111.782C48.6583 111.999 48.9963 112.306 49.2043 112.705C49.4209 113.104 49.5293 113.572 49.5293 114.109V118.75H47.5793V114.265C47.5793 113.858 47.4796 113.55 47.2803 113.342C47.0896 113.125 46.7689 113.017 46.3183 113.017C46.0149 113.017 45.7463 113.082 45.5123 113.212C45.2869 113.333 45.1093 113.554 44.9793 113.875C44.8579 114.196 44.7973 114.655 44.7973 115.253C44.7973 115.66 44.8363 116.02 44.9143 116.332C44.9923 116.644 45.1179 116.887 45.2913 117.06C45.4733 117.233 45.7159 117.32 46.0193 117.32C46.1146 117.32 46.2056 117.316 46.2923 117.307C46.3876 117.29 46.4699 117.272 46.5393 117.255L46.7213 118.711C46.5826 118.772 46.4136 118.815 46.2143 118.841C46.0236 118.867 45.8416 118.88 45.6683 118.88ZM55.4025 118.75V114.122C55.4025 113.706 55.2899 113.407 55.0645 113.225C54.8392 113.043 54.4925 112.952 54.0245 112.952C53.5739 112.952 53.1319 113.021 52.6985 113.16C52.2739 113.29 51.9055 113.446 51.5935 113.628V112.016C51.8449 111.895 52.2002 111.773 52.6595 111.652C53.1189 111.522 53.6475 111.457 54.2455 111.457C54.7049 111.457 55.1165 111.513 55.4805 111.626C55.8532 111.739 56.1219 111.96 56.2865 112.289C56.6505 112.402 56.9105 112.623 57.0665 112.952C57.2312 113.273 57.3135 113.689 57.3135 114.2V118.75H55.4025ZM53.2705 118.88C52.5252 118.88 51.9489 118.702 51.5415 118.347C51.1429 117.992 50.9435 117.493 50.9435 116.852C50.9435 116.159 51.1905 115.604 51.6845 115.188C52.1872 114.772 52.9759 114.521 54.0505 114.434L55.7145 114.304V115.708L54.2715 115.851C53.7515 115.903 53.3875 116.007 53.1795 116.163C52.9802 116.319 52.8805 116.527 52.8805 116.787C52.8805 117.047 52.9629 117.242 53.1275 117.372C53.3009 117.502 53.5219 117.567 53.7905 117.567C53.8945 117.567 53.9985 117.558 54.1025 117.541C54.2065 117.515 54.3019 117.489 54.3885 117.463L54.5575 118.685C54.3929 118.746 54.1979 118.793 53.9725 118.828C53.7472 118.863 53.5132 118.88 53.2705 118.88ZM56.2475 113.043L55.1815 112.146C55.4849 112.042 55.7232 111.912 55.8965 111.756C56.0699 111.591 56.1609 111.392 56.1695 111.158H57.8725C57.8725 111.427 57.8162 111.687 57.7035 111.938C57.5995 112.181 57.4262 112.397 57.1835 112.588C56.9495 112.779 56.6375 112.93 56.2475 113.043ZM55.6547 122.143V120.986C55.6547 120.769 55.5594 120.661 55.3687 120.661C55.3254 120.661 55.282 120.665 55.2387 120.674C55.1954 120.683 55.152 120.696 55.1087 120.713L55.0177 119.777C55.139 119.734 55.308 119.69 55.5247 119.647C55.7327 119.604 55.945 119.582 56.1617 119.582C56.5864 119.582 56.8854 119.664 57.0587 119.829C57.232 120.002 57.3187 120.236 57.3187 120.531V122.143H55.6547ZM61.7278 118.88C61.0258 118.88 60.4668 118.728 60.0508 118.425C59.6348 118.113 59.3358 117.688 59.1538 117.151C58.9718 116.605 58.8808 115.981 58.8808 115.279C58.8808 114.525 58.9632 113.901 59.1278 113.407C59.3012 112.904 59.5438 112.514 59.8558 112.237C60.1678 111.951 60.5362 111.752 60.9608 111.639C61.3942 111.518 61.8665 111.457 62.3778 111.457C63.1578 111.457 63.7818 111.565 64.2498 111.782C64.7178 111.999 65.0558 112.306 65.2638 112.705C65.4805 113.104 65.5888 113.572 65.5888 114.109V118.75H63.6388V114.265C63.6388 113.858 63.5392 113.55 63.3398 113.342C63.1492 113.125 62.8285 113.017 62.3778 113.017C62.0745 113.017 61.8058 113.082 61.5718 113.212C61.3465 113.333 61.1688 113.554 61.0388 113.875C60.9175 114.196 60.8568 114.655 60.8568 115.253C60.8568 115.66 60.8958 116.02 60.9738 116.332C61.0518 116.644 61.1775 116.887 61.3508 117.06C61.5328 117.233 61.7755 117.32 62.0788 117.32C62.1742 117.32 62.2652 117.316 62.3518 117.307C62.4472 117.29 62.5295 117.272 62.5988 117.255L62.7808 118.711C62.6422 118.772 62.4732 118.815 62.2738 118.841C62.0832 118.867 61.9012 118.88 61.7278 118.88Z" fill="#7C8499"/>
<g clip-path="url(#clip0_19_34248)">
<g clip-path="url(#clip1_19_34248)">
<path d="M92.2898 87.6933C91.3549 91.4434 87.5567 93.7256 83.8062 92.7904C80.0573 91.8555 77.7751 88.0571 78.7104 84.3074C79.6449 80.5569 83.4431 78.2746 87.1924 79.2095C90.9426 80.1444 93.2247 83.9432 92.2897 87.6934L92.2898 87.6933H92.2898Z" fill="#F7931A"/>
<path d="M88.5867 85.0025C88.7261 84.0709 88.0168 83.5702 87.047 83.2361L87.3616 81.9743L86.5935 81.7829L86.2872 83.0115C86.0853 82.9611 85.8779 82.9137 85.6718 82.8666L85.9803 81.6299L85.2126 81.4385L84.8979 82.6999C84.7308 82.6619 84.5666 82.6243 84.4074 82.5847L84.4083 82.5807L83.349 82.3162L83.1447 83.1366C83.1447 83.1366 83.7146 83.2672 83.7026 83.2753C84.0136 83.3529 84.0699 83.5588 84.0605 83.722L83.7021 85.1596C83.7236 85.165 83.7513 85.1729 83.782 85.1852C83.7564 85.1788 83.7291 85.1719 83.7008 85.1651L83.1985 87.1789C83.1605 87.2734 83.064 87.4152 82.8465 87.3614C82.8542 87.3725 82.2882 87.2221 82.2882 87.2221L81.9069 88.1013L82.9065 88.3505C83.0924 88.3972 83.2747 88.446 83.4541 88.4918L83.1363 89.7682L83.9035 89.9596L84.2183 88.6968C84.4279 88.7537 84.6313 88.8062 84.8304 88.8556L84.5167 90.1125L85.2849 90.3039L85.6027 89.0299C86.9125 89.2778 87.8974 89.1779 88.312 87.9931C88.646 87.0393 88.2953 86.4891 87.6063 86.1303C88.1082 86.0146 88.4862 85.6845 88.587 85.0026L88.5868 85.0024L88.5867 85.0025ZM86.8317 87.4634C86.5943 88.4173 84.9883 87.9017 84.4676 87.7724L84.8894 86.0814C85.4101 86.2114 87.0798 86.4686 86.8318 87.4634H86.8317ZM87.0693 84.9886C86.8527 85.8563 85.516 85.4155 85.0824 85.3074L85.4648 83.7738C85.8985 83.8819 87.2949 84.0836 87.0693 84.9886H87.0693Z" fill="white"/>
</g>
<path d="M100.825 81.9375C101.796 81.9375 102.555 82.2839 103.102 82.9766C103.753 83.7969 104.079 85.1572 104.079 87.0576C104.079 88.9535 103.751 90.3161 103.095 91.1455C102.552 91.8291 101.796 92.1709 100.825 92.1709C99.8499 92.1709 99.0638 91.7972 98.4668 91.0498C97.8698 90.2979 97.5713 88.9603 97.5713 87.0371C97.5713 85.1504 97.8994 83.7923 98.5557 82.9629C99.098 82.2793 99.8545 81.9375 100.825 81.9375ZM100.825 83.5303C100.593 83.5303 100.385 83.6055 100.203 83.7559C100.021 83.9017 99.8796 84.166 99.7793 84.5488C99.6471 85.0456 99.5811 85.8818 99.5811 87.0576C99.5811 88.2334 99.6403 89.0423 99.7588 89.4844C99.8773 89.9219 100.025 90.2135 100.203 90.3594C100.385 90.5052 100.593 90.5781 100.825 90.5781C101.058 90.5781 101.265 90.5052 101.447 90.3594C101.63 90.209 101.771 89.9424 101.871 89.5596C102.003 89.0674 102.069 88.2334 102.069 87.0576C102.069 85.8818 102.01 85.0752 101.892 84.6377C101.773 84.1956 101.623 83.9017 101.44 83.7559C101.263 83.6055 101.058 83.5303 100.825 83.5303ZM105.781 92V90.0791H107.702V92H105.781ZM112.515 81.9375C113.485 81.9375 114.244 82.2839 114.791 82.9766C115.443 83.7969 115.769 85.1572 115.769 87.0576C115.769 88.9535 115.44 90.3161 114.784 91.1455C114.242 91.8291 113.485 92.1709 112.515 92.1709C111.539 92.1709 110.753 91.7972 110.156 91.0498C109.559 90.2979 109.261 88.9603 109.261 87.0371C109.261 85.1504 109.589 83.7923 110.245 82.9629C110.787 82.2793 111.544 81.9375 112.515 81.9375ZM112.515 83.5303C112.282 83.5303 112.075 83.6055 111.893 83.7559C111.71 83.9017 111.569 84.166 111.469 84.5488C111.337 85.0456 111.271 85.8818 111.271 87.0576C111.271 88.2334 111.33 89.0423 111.448 89.4844C111.567 89.9219 111.715 90.2135 111.893 90.3594C112.075 90.5052 112.282 90.5781 112.515 90.5781C112.747 90.5781 112.954 90.5052 113.137 90.3594C113.319 90.209 113.46 89.9424 113.561 89.5596C113.693 89.0674 113.759 88.2334 113.759 87.0576C113.759 85.8818 113.7 85.0752 113.581 84.6377C113.463 84.1956 113.312 83.9017 113.13 83.7559C112.952 83.6055 112.747 83.5303 112.515 83.5303ZM120.308 81.9375C121.278 81.9375 122.037 82.2839 122.584 82.9766C123.236 83.7969 123.562 85.1572 123.562 87.0576C123.562 88.9535 123.233 90.3161 122.577 91.1455C122.035 91.8291 121.278 92.1709 120.308 92.1709C119.332 92.1709 118.546 91.7972 117.949 91.0498C117.352 90.2979 117.054 88.9603 117.054 87.0371C117.054 85.1504 117.382 83.7923 118.038 82.9629C118.58 82.2793 119.337 81.9375 120.308 81.9375ZM120.308 83.5303C120.075 83.5303 119.868 83.6055 119.686 83.7559C119.503 83.9017 119.362 84.166 119.262 84.5488C119.13 85.0456 119.063 85.8818 119.063 87.0576C119.063 88.2334 119.123 89.0423 119.241 89.4844C119.36 89.9219 119.508 90.2135 119.686 90.3594C119.868 90.5052 120.075 90.5781 120.308 90.5781C120.54 90.5781 120.747 90.5052 120.93 90.3594C121.112 90.209 121.253 89.9424 121.354 89.5596C121.486 89.0674 121.552 88.2334 121.552 87.0576C121.552 85.8818 121.493 85.0752 121.374 84.6377C121.256 84.1956 121.105 83.9017 120.923 83.7559C120.745 83.6055 120.54 83.5303 120.308 83.5303ZM128.101 81.9375C129.071 81.9375 129.83 82.2839 130.377 82.9766C131.029 83.7969 131.354 85.1572 131.354 87.0576C131.354 88.9535 131.026 90.3161 130.37 91.1455C129.828 91.8291 129.071 92.1709 128.101 92.1709C127.125 92.1709 126.339 91.7972 125.742 91.0498C125.145 90.2979 124.847 88.9603 124.847 87.0371C124.847 85.1504 125.175 83.7923 125.831 82.9629C126.373 82.2793 127.13 81.9375 128.101 81.9375ZM128.101 83.5303C127.868 83.5303 127.661 83.6055 127.479 83.7559C127.296 83.9017 127.155 84.166 127.055 84.5488C126.923 85.0456 126.856 85.8818 126.856 87.0576C126.856 88.2334 126.916 89.0423 127.034 89.4844C127.153 89.9219 127.301 90.2135 127.479 90.3594C127.661 90.5052 127.868 90.5781 128.101 90.5781C128.333 90.5781 128.54 90.5052 128.723 90.3594C128.905 90.209 129.046 89.9424 129.146 89.5596C129.279 89.0674 129.345 88.2334 129.345 87.0576C129.345 85.8818 129.285 85.0752 129.167 84.6377C129.049 84.1956 128.898 83.9017 128.716 83.7559C128.538 83.6055 128.333 83.5303 128.101 83.5303ZM135.894 81.9375C136.864 81.9375 137.623 82.2839 138.17 82.9766C138.822 83.7969 139.147 85.1572 139.147 87.0576C139.147 88.9535 138.819 90.3161 138.163 91.1455C137.621 91.8291 136.864 92.1709 135.894 92.1709C134.918 92.1709 134.132 91.7972 133.535 91.0498C132.938 90.2979 132.64 88.9603 132.64 87.0371C132.64 85.1504 132.968 83.7923 133.624 82.9629C134.166 82.2793 134.923 81.9375 135.894 81.9375ZM135.894 83.5303C135.661 83.5303 135.454 83.6055 135.271 83.7559C135.089 83.9017 134.948 84.166 134.848 84.5488C134.715 85.0456 134.649 85.8818 134.649 87.0576C134.649 88.2334 134.709 89.0423 134.827 89.4844C134.946 89.9219 135.094 90.2135 135.271 90.3594C135.454 90.5052 135.661 90.5781 135.894 90.5781C136.126 90.5781 136.333 90.5052 136.516 90.3594C136.698 90.209 136.839 89.9424 136.939 89.5596C137.072 89.0674 137.138 88.2334 137.138 87.0576C137.138 85.8818 137.078 85.0752 136.96 84.6377C136.841 84.1956 136.691 83.9017 136.509 83.7559C136.331 83.6055 136.126 83.5303 135.894 83.5303ZM145.354 92H143.434V84.7607C142.732 85.417 141.905 85.9023 140.952 86.2168V84.4736C141.453 84.3096 141.998 83.9997 142.586 83.5439C143.174 83.0837 143.577 82.5482 143.796 81.9375H145.354V92ZM151.479 81.9375C152.45 81.9375 153.209 82.2839 153.756 82.9766C154.408 83.7969 154.733 85.1572 154.733 87.0576C154.733 88.9535 154.405 90.3161 153.749 91.1455C153.207 91.8291 152.45 92.1709 151.479 92.1709C150.504 92.1709 149.718 91.7972 149.121 91.0498C148.524 90.2979 148.226 88.9603 148.226 87.0371C148.226 85.1504 148.554 83.7923 149.21 82.9629C149.752 82.2793 150.509 81.9375 151.479 81.9375ZM151.479 83.5303C151.247 83.5303 151.04 83.6055 150.857 83.7559C150.675 83.9017 150.534 84.166 150.434 84.5488C150.301 85.0456 150.235 85.8818 150.235 87.0576C150.235 88.2334 150.295 89.0423 150.413 89.4844C150.532 89.9219 150.68 90.2135 150.857 90.3594C151.04 90.5052 151.247 90.5781 151.479 90.5781C151.712 90.5781 151.919 90.5052 152.102 90.3594C152.284 90.209 152.425 89.9424 152.525 89.5596C152.658 89.0674 152.724 88.2334 152.724 87.0576C152.724 85.8818 152.664 85.0752 152.546 84.6377C152.427 84.1956 152.277 83.9017 152.095 83.7559C151.917 83.6055 151.712 83.5303 151.479 83.5303ZM159.272 81.9375C160.243 81.9375 161.002 82.2839 161.549 82.9766C162.201 83.7969 162.526 85.1572 162.526 87.0576C162.526 88.9535 162.198 90.3161 161.542 91.1455C161 91.8291 160.243 92.1709 159.272 92.1709C158.297 92.1709 157.511 91.7972 156.914 91.0498C156.317 90.2979 156.019 88.9603 156.019 87.0371C156.019 85.1504 156.347 83.7923 157.003 82.9629C157.545 82.2793 158.302 81.9375 159.272 81.9375ZM159.272 83.5303C159.04 83.5303 158.833 83.6055 158.65 83.7559C158.468 83.9017 158.327 84.166 158.227 84.5488C158.094 85.0456 158.028 85.8818 158.028 87.0576C158.028 88.2334 158.088 89.0423 158.206 89.4844C158.325 89.9219 158.473 90.2135 158.65 90.3594C158.833 90.5052 159.04 90.5781 159.272 90.5781C159.505 90.5781 159.712 90.5052 159.895 90.3594C160.077 90.209 160.218 89.9424 160.318 89.5596C160.451 89.0674 160.517 88.2334 160.517 87.0576C160.517 85.8818 160.457 85.0752 160.339 84.6377C160.22 84.1956 160.07 83.9017 159.888 83.7559C159.71 83.6055 159.505 83.5303 159.272 83.5303ZM167.065 81.9375C168.036 81.9375 168.795 82.2839 169.342 82.9766C169.993 83.7969 170.319 85.1572 170.319 87.0576C170.319 88.9535 169.991 90.3161 169.335 91.1455C168.793 91.8291 168.036 92.1709 167.065 92.1709C166.09 92.1709 165.304 91.7972 164.707 91.0498C164.11 90.2979 163.812 88.9603 163.812 87.0371C163.812 85.1504 164.14 83.7923 164.796 82.9629C165.338 82.2793 166.095 81.9375 167.065 81.9375ZM167.065 83.5303C166.833 83.5303 166.626 83.6055 166.443 83.7559C166.261 83.9017 166.12 84.166 166.02 84.5488C165.887 85.0456 165.821 85.8818 165.821 87.0576C165.821 88.2334 165.881 89.0423 165.999 89.4844C166.118 89.9219 166.266 90.2135 166.443 90.3594C166.626 90.5052 166.833 90.5781 167.065 90.5781C167.298 90.5781 167.505 90.5052 167.688 90.3594C167.87 90.209 168.011 89.9424 168.111 89.5596C168.243 89.0674 168.31 88.2334 168.31 87.0576C168.31 85.8818 168.25 85.0752 168.132 84.6377C168.013 84.1956 167.863 83.9017 167.681 83.7559C167.503 83.6055 167.298 83.5303 167.065 83.5303Z" fill="white"/>
<path d="M99.7314 109.623V106.963C98.902 106.726 98.2926 106.368 97.9033 105.89C97.5182 105.408 97.3257 104.824 97.3257 104.138C97.3257 103.444 97.5436 102.862 97.9795 102.393C98.4196 101.919 99.0036 101.646 99.7314 101.574V100.945H100.652V101.574C101.325 101.654 101.86 101.885 102.258 102.266C102.656 102.642 102.91 103.148 103.02 103.783L101.414 103.992C101.316 103.493 101.062 103.154 100.652 102.977V105.458C101.667 105.734 102.359 106.091 102.728 106.531C103.096 106.967 103.28 107.528 103.28 108.213C103.28 108.979 103.047 109.625 102.582 110.149C102.12 110.674 101.477 110.996 100.652 111.114V112.301H99.7314V111.146C98.9993 111.057 98.4048 110.784 97.9478 110.327C97.4907 109.87 97.1987 109.225 97.0718 108.391L98.7285 108.213C98.7962 108.552 98.9232 108.844 99.1094 109.089C99.2956 109.335 99.5029 109.513 99.7314 109.623ZM99.7314 102.958C99.4818 103.042 99.2829 103.186 99.1348 103.389C98.9867 103.592 98.9126 103.817 98.9126 104.062C98.9126 104.286 98.9803 104.496 99.1157 104.69C99.2511 104.881 99.4564 105.035 99.7314 105.154V102.958ZM100.652 109.711C100.969 109.652 101.227 109.506 101.426 109.273C101.625 109.036 101.725 108.759 101.725 108.442C101.725 108.158 101.64 107.915 101.471 107.712C101.306 107.505 101.033 107.346 100.652 107.236V109.711ZM107.914 111V109.127H104.105V107.566L108.142 101.656H109.64V107.56H110.795V109.127H109.64V111H107.914ZM107.914 107.56V104.379L105.774 107.56H107.914ZM112.033 111V109.216H113.817V111H112.033ZM118.768 111V109.127H114.959V107.566L118.997 101.656H120.495V107.56H121.65V109.127H120.495V111H118.768ZM118.768 107.56V104.379L116.629 107.56H118.768ZM125.522 101.656C126.423 101.656 127.128 101.978 127.636 102.621C128.241 103.383 128.543 104.646 128.543 106.411C128.543 108.171 128.239 109.436 127.629 110.207C127.126 110.841 126.423 111.159 125.522 111.159C124.616 111.159 123.886 110.812 123.332 110.118C122.778 109.419 122.5 108.177 122.5 106.392C122.5 104.64 122.805 103.379 123.415 102.608C123.918 101.974 124.621 101.656 125.522 101.656ZM125.522 103.135C125.306 103.135 125.114 103.205 124.944 103.345C124.775 103.48 124.644 103.726 124.551 104.081C124.428 104.542 124.367 105.319 124.367 106.411C124.367 107.502 124.422 108.254 124.532 108.664C124.642 109.07 124.779 109.341 124.944 109.477C125.114 109.612 125.306 109.68 125.522 109.68C125.738 109.68 125.93 109.612 126.1 109.477C126.269 109.337 126.4 109.089 126.493 108.734C126.616 108.277 126.677 107.502 126.677 106.411C126.677 105.319 126.622 104.57 126.512 104.164C126.402 103.753 126.263 103.48 126.093 103.345C125.928 103.205 125.738 103.135 125.522 103.135ZM132.758 101.656C133.66 101.656 134.364 101.978 134.872 102.621C135.477 103.383 135.78 104.646 135.78 106.411C135.78 108.171 135.475 109.436 134.866 110.207C134.362 110.841 133.66 111.159 132.758 111.159C131.853 111.159 131.123 110.812 130.568 110.118C130.014 109.419 129.737 108.177 129.737 106.392C129.737 104.64 130.042 103.379 130.651 102.608C131.154 101.974 131.857 101.656 132.758 101.656ZM132.758 103.135C132.542 103.135 132.35 103.205 132.181 103.345C132.011 103.48 131.88 103.726 131.787 104.081C131.664 104.542 131.603 105.319 131.603 106.411C131.603 107.502 131.658 108.254 131.768 108.664C131.878 109.07 132.016 109.341 132.181 109.477C132.35 109.612 132.542 109.68 132.758 109.68C132.974 109.68 133.167 109.612 133.336 109.477C133.505 109.337 133.636 109.089 133.729 108.734C133.852 108.277 133.914 107.502 133.914 106.411C133.914 105.319 133.859 104.57 133.749 104.164C133.639 103.753 133.499 103.48 133.33 103.345C133.165 103.205 132.974 103.135 132.758 103.135ZM139.995 101.656C140.896 101.656 141.601 101.978 142.108 102.621C142.714 103.383 143.016 104.646 143.016 106.411C143.016 108.171 142.711 109.436 142.102 110.207C141.598 110.841 140.896 111.159 139.995 111.159C139.089 111.159 138.359 110.812 137.805 110.118C137.25 109.419 136.973 108.177 136.973 106.392C136.973 104.64 137.278 103.379 137.887 102.608C138.391 101.974 139.093 101.656 139.995 101.656ZM139.995 103.135C139.779 103.135 139.586 103.205 139.417 103.345C139.248 103.48 139.117 103.726 139.023 104.081C138.901 104.542 138.839 105.319 138.839 106.411C138.839 107.502 138.894 108.254 139.004 108.664C139.114 109.07 139.252 109.341 139.417 109.477C139.586 109.612 139.779 109.68 139.995 109.68C140.21 109.68 140.403 109.612 140.572 109.477C140.742 109.337 140.873 109.089 140.966 108.734C141.089 108.277 141.15 107.502 141.15 106.411C141.15 105.319 141.095 104.57 140.985 104.164C140.875 103.753 140.735 103.48 140.566 103.345C140.401 103.205 140.21 103.135 139.995 103.135ZM147.231 101.656C148.132 101.656 148.837 101.978 149.345 102.621C149.95 103.383 150.252 104.646 150.252 106.411C150.252 108.171 149.948 109.436 149.338 110.207C148.835 110.841 148.132 111.159 147.231 111.159C146.325 111.159 145.595 110.812 145.041 110.118C144.487 109.419 144.209 108.177 144.209 106.392C144.209 104.64 144.514 103.379 145.124 102.608C145.627 101.974 146.33 101.656 147.231 101.656ZM147.231 103.135C147.015 103.135 146.823 103.205 146.653 103.345C146.484 103.48 146.353 103.726 146.26 104.081C146.137 104.542 146.076 105.319 146.076 106.411C146.076 107.502 146.131 108.254 146.241 108.664C146.351 109.07 146.488 109.341 146.653 109.477C146.823 109.612 147.015 109.68 147.231 109.68C147.447 109.68 147.639 109.612 147.809 109.477C147.978 109.337 148.109 109.089 148.202 108.734C148.325 108.277 148.386 107.502 148.386 106.411C148.386 105.319 148.331 104.57 148.221 104.164C148.111 103.753 147.972 103.48 147.802 103.345C147.637 103.205 147.447 103.135 147.231 103.135ZM154.467 101.656C155.369 101.656 156.073 101.978 156.581 102.621C157.186 103.383 157.489 104.646 157.489 106.411C157.489 108.171 157.184 109.436 156.575 110.207C156.071 110.841 155.369 111.159 154.467 111.159C153.562 111.159 152.832 110.812 152.277 110.118C151.723 109.419 151.446 108.177 151.446 106.392C151.446 104.64 151.75 103.379 152.36 102.608C152.863 101.974 153.566 101.656 154.467 101.656ZM154.467 103.135C154.251 103.135 154.059 103.205 153.89 103.345C153.72 103.48 153.589 103.726 153.496 104.081C153.373 104.542 153.312 105.319 153.312 106.411C153.312 107.502 153.367 108.254 153.477 108.664C153.587 109.07 153.725 109.341 153.89 109.477C154.059 109.612 154.251 109.68 154.467 109.68C154.683 109.68 154.876 109.612 155.045 109.477C155.214 109.337 155.345 109.089 155.438 108.734C155.561 108.277 155.623 107.502 155.623 106.411C155.623 105.319 155.568 104.57 155.458 104.164C155.347 103.753 155.208 103.48 155.039 103.345C154.874 103.205 154.683 103.135 154.467 103.135ZM161.704 101.656C162.605 101.656 163.31 101.978 163.817 102.621C164.423 103.383 164.725 104.646 164.725 106.411C164.725 108.171 164.42 109.436 163.811 110.207C163.307 110.841 162.605 111.159 161.704 111.159C160.798 111.159 160.068 110.812 159.514 110.118C158.959 109.419 158.682 108.177 158.682 106.392C158.682 104.64 158.987 103.379 159.596 102.608C160.1 101.974 160.802 101.656 161.704 101.656ZM161.704 103.135C161.488 103.135 161.295 103.205 161.126 103.345C160.957 103.48 160.826 103.726 160.732 104.081C160.61 104.542 160.548 105.319 160.548 106.411C160.548 107.502 160.603 108.254 160.713 108.664C160.823 109.07 160.961 109.341 161.126 109.477C161.295 109.612 161.488 109.68 161.704 109.68C161.919 109.68 162.112 109.612 162.281 109.477C162.451 109.337 162.582 109.089 162.675 108.734C162.798 108.277 162.859 107.502 162.859 106.411C162.859 105.319 162.804 104.57 162.694 104.164C162.584 103.753 162.444 103.48 162.275 103.345C162.11 103.205 161.919 103.135 161.704 103.135Z" fill="#7C8499"/>
</g>
<rect x="182" y="66" width="35" height="26.5" rx="10" fill="#383C45"/>
<path d="M191.671 74.04H192.901V84.75H191.266V76.005C190.621 76.62 189.796 77.07 188.806 77.355V75.735C189.286 75.615 189.781 75.405 190.321 75.105C190.861 74.775 191.311 74.43 191.671 74.04ZM199.999 72.45H201.379L196.144 86.25H194.749L199.999 72.45ZM206.479 73.83C207.499 73.83 208.354 74.115 209.014 74.715C209.659 75.315 209.989 76.08 209.989 77.025C209.989 77.955 209.629 78.795 208.939 79.56C208.519 79.995 207.784 80.565 206.719 81.285C205.564 82.05 204.874 82.725 204.649 83.31H210.004V84.75H202.624C202.624 83.685 202.969 82.755 203.689 81.945C204.079 81.48 204.889 80.835 206.104 79.995C206.824 79.485 207.334 79.08 207.634 78.765C208.114 78.225 208.369 77.64 208.369 77.01C208.369 76.41 208.204 75.96 207.874 75.66C207.544 75.36 207.049 75.21 206.419 75.21C205.744 75.21 205.234 75.435 204.889 75.9C204.529 76.35 204.349 76.995 204.319 77.865H202.684C202.699 76.665 203.044 75.705 203.719 74.985C204.409 74.205 205.339 73.83 206.479 73.83Z" fill="#7C8499"/>
<rect x="182" y="100.5" width="35" height="26.5" rx="10" fill="#383C45"/>
<path d="M195.691 108.33C196.711 108.33 197.566 108.615 198.226 109.215C198.871 109.815 199.201 110.58 199.201 111.525C199.201 112.455 198.841 113.295 198.151 114.06C197.731 114.495 196.996 115.065 195.931 115.785C194.776 116.55 194.086 117.225 193.861 117.81H199.216V119.25H191.836C191.836 118.185 192.181 117.255 192.901 116.445C193.291 115.98 194.101 115.335 195.316 114.495C196.036 113.985 196.546 113.58 196.846 113.265C197.326 112.725 197.581 112.14 197.581 111.51C197.581 110.91 197.416 110.46 197.086 110.16C196.756 109.86 196.261 109.71 195.631 109.71C194.956 109.71 194.446 109.935 194.101 110.4C193.741 110.85 193.561 111.495 193.531 112.365H191.896C191.911 111.165 192.256 110.205 192.931 109.485C193.621 108.705 194.551 108.33 195.691 108.33ZM200.44 111.495H202.3L204.01 113.955L205.705 111.495H207.565L204.88 115.125L207.895 119.25H206.035L204.01 116.295L201.97 119.25H200.095L203.125 115.125L200.44 111.495Z" fill="#7C8499"/>
<rect x="25.5" y="58.5" width="199" height="76" rx="9.5" stroke="#55657E"/>
<g opacity="0.7">
<rect x="245" y="58" width="200" height="77" rx="10" fill="#F04E23"/>
<g filter="url(#filter0_d_19_34248)">
<path d="M307.503 103V99.58C307.503 98.824 307.671 98.278 308.007 97.942C308.343 97.594 308.769 97.354 309.285 97.222L309.303 97.168L307.323 96.412V95.818C307.323 95.326 307.485 94.864 307.809 94.432C308.133 93.988 308.595 93.634 309.195 93.37C309.807 93.094 310.533 92.956 311.373 92.956C312.105 92.956 312.783 93.076 313.407 93.316C314.031 93.544 314.529 93.91 314.901 94.414C315.285 94.906 315.477 95.554 315.477 96.358V103H313.875V96.52C313.875 95.716 313.629 95.146 313.137 94.81C312.657 94.462 312.063 94.288 311.355 94.288C310.623 94.288 310.041 94.444 309.609 94.756C309.177 95.056 308.961 95.44 308.961 95.908L310.905 96.88L310.761 97.744C310.317 97.744 309.927 97.894 309.591 98.194C309.267 98.482 309.105 98.944 309.105 99.58V103H307.503ZM321.176 103V95.998C321.176 95.41 321.038 94.978 320.762 94.702C320.498 94.426 320.048 94.288 319.412 94.288C318.98 94.288 318.572 94.348 318.188 94.468C317.816 94.576 317.456 94.732 317.108 94.936V93.496C317.348 93.376 317.69 93.256 318.134 93.136C318.578 93.016 319.106 92.956 319.718 92.956C320.342 92.956 320.882 93.046 321.338 93.226C321.794 93.406 322.148 93.706 322.4 94.126C322.652 94.534 322.778 95.08 322.778 95.764V103H321.176ZM328.47 103.18C327.762 103.18 327.102 103.114 326.49 102.982C325.89 102.838 325.38 102.67 324.96 102.478L325.428 101.182C325.68 101.278 325.968 101.38 326.292 101.488C326.616 101.596 326.964 101.686 327.336 101.758C327.72 101.818 328.11 101.848 328.506 101.848C329.142 101.848 329.67 101.728 330.09 101.488C330.51 101.248 330.72 100.9 330.72 100.444C330.72 100.168 330.642 99.934 330.486 99.742C330.342 99.538 330.114 99.352 329.802 99.184C329.49 99.016 329.088 98.854 328.596 98.698C327.84 98.458 327.198 98.206 326.67 97.942C326.154 97.666 325.758 97.342 325.482 96.97C325.218 96.586 325.086 96.112 325.086 95.548C325.086 95.044 325.218 94.6 325.482 94.216C325.758 93.82 326.178 93.514 326.742 93.298C327.318 93.07 328.05 92.956 328.938 92.956C329.514 92.956 330.054 93.01 330.558 93.118C331.074 93.214 331.476 93.352 331.764 93.532V94.882C331.56 94.786 331.302 94.69 330.99 94.594C330.69 94.498 330.36 94.42 330 94.36C329.64 94.3 329.268 94.27 328.884 94.27C328.08 94.27 327.51 94.396 327.174 94.648C326.85 94.888 326.688 95.164 326.688 95.476C326.688 95.74 326.76 95.962 326.904 96.142C327.06 96.322 327.318 96.496 327.678 96.664C328.05 96.832 328.548 97.024 329.172 97.24C329.748 97.432 330.276 97.654 330.756 97.906C331.236 98.158 331.614 98.476 331.89 98.86C332.178 99.232 332.322 99.712 332.322 100.3C332.322 100.804 332.196 101.278 331.944 101.722C331.704 102.154 331.302 102.508 330.738 102.784C330.174 103.048 329.418 103.18 328.47 103.18ZM336.719 103.18C336.395 103.18 336.083 103.126 335.783 103.018C335.483 102.91 335.237 102.718 335.045 102.442C334.853 102.166 334.757 101.782 334.757 101.29V93.136H336.359V101.092C336.359 101.368 336.419 101.566 336.539 101.686C336.659 101.806 336.851 101.866 337.115 101.866C337.223 101.866 337.337 101.854 337.457 101.83C337.577 101.806 337.691 101.776 337.799 101.74L338.015 102.91C337.787 103.018 337.565 103.09 337.349 103.126C337.133 103.162 336.923 103.18 336.719 103.18ZM342.986 103.18C342.026 103.18 341.27 102.958 340.718 102.514C340.178 102.058 339.794 101.446 339.566 100.678C339.35 99.91 339.242 99.064 339.242 98.14C339.242 97.12 339.344 96.28 339.548 95.62C339.764 94.948 340.064 94.42 340.448 94.036C340.844 93.64 341.312 93.364 341.852 93.208C342.404 93.04 343.01 92.956 343.67 92.956C344.63 92.956 345.41 93.1 346.01 93.388C346.622 93.664 347.072 94.06 347.36 94.576C347.648 95.092 347.792 95.71 347.792 96.43V103H346.208V96.574C346.208 95.83 346.022 95.266 345.65 94.882C345.278 94.486 344.636 94.288 343.724 94.288C343.172 94.288 342.674 94.39 342.23 94.594C341.798 94.798 341.456 95.176 341.204 95.728C340.964 96.28 340.844 97.09 340.844 98.158C340.844 98.854 340.91 99.484 341.042 100.048C341.186 100.6 341.432 101.038 341.78 101.362C342.128 101.686 342.614 101.848 343.238 101.848C343.418 101.848 343.586 101.836 343.742 101.812C343.898 101.788 344.048 101.752 344.192 101.704L344.354 102.946C344.162 103.03 343.94 103.09 343.688 103.126C343.448 103.162 343.214 103.18 342.986 103.18ZM340.002 91.57V90.868L341.316 90.292H347.652V91.57H340.002ZM355.464 103.18C354.696 103.18 354.03 103.03 353.466 102.73C352.914 102.418 352.536 101.986 352.332 101.434H352.26L352.17 103H350.856V93.136H352.458V98.842C352.458 99.442 352.56 99.97 352.764 100.426C352.98 100.87 353.286 101.218 353.682 101.47C354.09 101.71 354.576 101.83 355.14 101.83C355.848 101.83 356.376 101.644 356.724 101.272C357.072 100.9 357.246 100.354 357.246 99.634V93.136H358.848V99.742C358.848 100.534 358.71 101.182 358.434 101.686C358.17 102.19 357.786 102.568 357.282 102.82C356.778 103.06 356.172 103.18 355.464 103.18ZM362.831 103L361.049 93.136H362.687L363.389 97.42C363.449 97.768 363.509 98.218 363.569 98.77C363.629 99.322 363.701 99.976 363.785 100.732H363.839C363.947 100.216 364.049 99.754 364.145 99.346C364.253 98.938 364.349 98.572 364.433 98.248C364.529 97.912 364.613 97.618 364.685 97.366L365.891 93.136H367.205L368.429 97.366C368.501 97.618 368.579 97.912 368.663 98.248C368.759 98.572 368.855 98.938 368.951 99.346C369.059 99.754 369.167 100.216 369.275 100.732H369.347C369.419 99.976 369.485 99.322 369.545 98.77C369.605 98.218 369.665 97.768 369.725 97.42L370.445 93.136H372.083L370.301 103H368.735L367.079 97.636C366.995 97.336 366.911 97.024 366.827 96.7C366.755 96.376 366.683 95.95 366.611 95.422H366.539C366.491 95.77 366.437 96.076 366.377 96.34C366.317 96.604 366.257 96.838 366.197 97.042C366.137 97.246 366.077 97.444 366.017 97.636L364.397 103H362.831ZM369.044 91.57C368.54 91.57 368.138 91.498 367.838 91.354C367.538 91.21 367.322 91.024 367.19 90.796C367.046 90.568 366.974 90.328 366.974 90.076C366.974 89.896 367.004 89.704 367.064 89.5C367.112 89.284 367.178 89.11 367.262 88.978L368.612 89.212C368.588 89.26 368.564 89.344 368.54 89.464C368.516 89.572 368.504 89.674 368.504 89.77C368.504 89.926 368.552 90.064 368.648 90.184C368.744 90.292 368.906 90.346 369.134 90.346H373.688V91.57H369.044ZM377.686 103.18C376.978 103.18 376.366 103.06 375.85 102.82C375.346 102.568 374.956 102.19 374.68 101.686C374.416 101.182 374.284 100.528 374.284 99.724V93.136H375.886V99.634C375.886 100.354 376.066 100.9 376.426 101.272C376.798 101.644 377.332 101.83 378.028 101.83C378.868 101.83 379.516 101.56 379.972 101.02C380.44 100.48 380.674 99.754 380.674 98.842V93.136H382.276V103H380.944L380.872 101.542H380.782C380.566 102.022 380.188 102.418 379.648 102.73C379.12 103.03 378.466 103.18 377.686 103.18Z" fill="white"/>
</g>
</g>
<rect x="25" y="155" width="200" height="77" rx="6" fill="#4181EE"/>
<g clip-path="url(#clip2_19_34248)">
<path d="M80.9985 193.499C80.9985 204.536 72.0483 213.497 61 213.497C49.9629 213.497 41.0015 204.547 41.0015 193.499C41.0015 182.45 49.9517 173.5 61 173.5C72.0483 173.5 80.9985 182.45 80.9985 193.499Z" fill="url(#paint0_linear_19_34248)"/>
<path d="M61 173.946C66.2228 173.946 71.1332 175.977 74.8271 179.671C78.521 183.365 80.5521 188.276 80.5521 193.499C80.5521 198.721 78.521 203.632 74.8271 207.326C71.1332 211.02 66.2228 213.051 61 213.051C55.7772 213.051 50.8668 211.02 47.1729 207.326C43.479 203.632 41.4479 198.721 41.4479 193.499C41.4479 188.276 43.479 183.365 47.1729 179.671C50.878 175.977 55.7772 173.946 61 173.946ZM61 173.5C49.9629 173.5 41.0015 182.45 41.0015 193.499C41.0015 204.536 49.9517 213.497 61 213.497C72.0483 213.497 80.9985 204.547 80.9985 193.499C80.9985 182.45 72.0483 173.5 61 173.5Z" fill="url(#paint1_linear_19_34248)"/>
<path d="M78.5991 193.499C78.5991 203.219 70.7202 211.098 61 211.098C51.2797 211.098 43.4008 203.219 43.4008 193.499C43.412 183.778 51.2909 175.899 61 175.899C70.7202 175.899 78.5991 183.778 78.5991 193.499Z" fill="url(#paint2_linear_19_34248)"/>
<path d="M77.8515 193.498C77.8515 202.805 70.3074 210.349 61.0001 210.349C51.6927 210.349 44.1486 202.805 44.1486 193.498C44.1486 184.191 51.6927 176.646 61.0001 176.646C70.3074 176.646 77.8515 184.191 77.8515 193.498Z" fill="#EAA434"/>
<path d="M77.1372 193.499C77.1372 202.404 69.9167 209.636 60.9999 209.636C52.0943 209.636 44.8627 202.415 44.8627 193.499C44.8739 184.582 52.0943 177.361 60.9999 177.361C69.9167 177.361 77.1372 184.582 77.1372 193.499Z" fill="url(#paint3_linear_19_34248)"/>
<path d="M60.9999 177.919C65.1626 177.919 69.0685 179.538 72.0148 182.484C74.961 185.43 76.5792 189.336 76.5792 193.499C76.5792 197.661 74.961 201.567 72.0148 204.513C69.0685 207.46 65.1626 209.078 60.9999 209.078C56.8373 209.078 52.9313 207.46 49.9851 204.513C47.0389 201.567 45.4207 197.661 45.4207 193.499C45.4207 189.336 47.0389 185.43 49.9851 182.484C52.9313 179.538 56.8485 177.919 60.9999 177.919ZM60.9999 177.361C52.0943 177.361 44.8627 184.582 44.8627 193.499C44.8627 202.404 52.0832 209.636 60.9999 209.636C69.9055 209.636 77.1372 202.415 77.1372 193.499C77.1372 184.582 69.9167 177.361 60.9999 177.361Z" fill="url(#paint4_linear_19_34248)"/>
<path d="M60.8554 193.733C60.8554 193.733 66.8371 191.378 68.1204 189.381C69.4038 187.383 68.5668 186.1 67.4732 185.475C65.8773 184.548 64.2256 185.809 64.0806 185.954C64.3707 184.548 63.2882 183.153 61.3575 183.153C59.9737 183.153 58.9359 184.414 58.9359 186.01C58.947 188.242 60.8554 193.733 60.8554 193.733Z" fill="#B47400"/>
<path d="M60.8107 193.8C60.8107 193.8 58.8019 187.696 56.8824 186.289C54.9629 184.883 53.6349 185.653 52.943 186.714C51.9274 188.254 53.0992 189.972 53.2332 190.128C51.8382 189.76 50.3874 190.753 50.2758 192.684C50.1977 194.068 51.3918 195.173 52.9876 195.262C55.2196 195.396 60.8107 193.8 60.8107 193.8Z" fill="#B47400"/>
<path d="M60.8777 193.8C60.8777 193.8 54.6951 195.563 53.222 197.427C51.7489 199.29 52.452 200.641 53.4898 201.377C54.9964 202.449 56.7597 201.355 56.9159 201.221C56.4918 202.594 57.4293 204.089 59.3488 204.279C60.7215 204.413 61.8821 203.263 62.0272 201.668C62.2504 199.447 60.8777 193.8 60.8777 193.8Z" fill="#B47400"/>
<path d="M60.9111 193.778C60.9111 193.778 63.6453 199.592 65.721 200.753C67.7968 201.913 69.0244 200.987 69.5824 199.86C70.397 198.208 69.0355 196.646 68.8793 196.512C70.3078 196.702 71.6246 195.541 71.5019 193.61C71.4126 192.227 70.0957 191.278 68.4999 191.378C66.279 191.523 60.9111 193.778 60.9111 193.778Z" fill="#B47400"/>
<path d="M64.5939 203.062C64.3149 202.906 64.1921 202.694 63.969 202.315C62.0494 199.145 60.6321 193.722 60.6321 193.722L61.0897 193.409C61.0897 193.409 62.0718 196.199 62.6632 197.371C63.6007 199.235 63.835 199.48 65.4532 202.036C65.4532 202.036 65.8103 202.616 65.4086 202.906C64.8729 203.319 64.5939 203.062 64.5939 203.062Z" fill="#B47400"/>
<path d="M61.4017 192.952C61.0893 192.014 59.5604 187.405 59.5604 185.452C59.5604 183.923 60.5313 182.763 61.8147 182.763C62.7186 182.763 63.4775 183.086 63.9574 183.667C64.348 184.147 64.5042 184.76 64.3814 185.374C64.3703 185.452 64.4038 185.519 64.4707 185.553C64.493 185.564 64.5265 185.575 64.5488 185.575C64.5935 185.575 64.6381 185.553 64.6716 185.519C64.772 185.419 65.6537 184.749 66.6915 184.749C67.1045 184.749 67.495 184.85 67.8522 185.062C68.2874 185.307 68.8342 185.765 69.0128 186.479C69.169 187.137 68.9793 187.896 68.4436 188.733C67.3053 190.485 62.3615 192.561 61.4017 192.952Z" fill="#FBE993"/>
<path d="M61.8145 182.93C62.6738 182.93 63.3769 183.231 63.8233 183.767C64.1804 184.213 64.3255 184.771 64.2027 185.329C64.1693 185.474 64.2474 185.619 64.3701 185.697C64.4148 185.719 64.4706 185.731 64.5264 185.731C64.6157 185.731 64.7049 185.697 64.7607 185.63C64.7719 185.619 65.6089 184.916 66.6691 184.916C67.0485 184.916 67.4168 185.016 67.7516 185.206C68.1533 185.441 68.6667 185.853 68.8341 186.523C68.9792 187.137 68.8006 187.851 68.2873 188.655C67.2382 190.284 62.752 192.226 61.502 192.739C61.0891 191.523 59.7276 187.293 59.7276 185.463C59.7276 184.012 60.6204 182.93 61.8145 182.93ZM61.8145 182.595C60.4307 182.595 59.3928 183.856 59.3928 185.452C59.3928 187.684 61.3012 193.174 61.3012 193.174C61.3012 193.174 67.2829 190.82 68.5663 188.822C69.8496 186.824 69.0127 185.541 67.919 184.916C67.4949 184.67 67.0708 184.581 66.6691 184.581C65.5531 184.581 64.6268 185.295 64.5264 185.396C64.8165 183.99 63.7452 182.595 61.8145 182.595Z" fill="#D99202"/>
<path d="M53.7013 194.547C53.6121 194.547 53.5228 194.547 53.4335 194.536C52.697 194.491 52.0274 194.223 51.5475 193.777C51.0788 193.33 50.8333 192.75 50.8667 192.136C50.9672 190.44 52.0832 189.659 53.0764 189.659C53.255 189.659 53.4335 189.681 53.6121 189.726C53.6232 189.726 53.6455 189.726 53.6567 189.726C53.7125 189.726 53.7683 189.692 53.8018 189.648C53.8353 189.581 53.8353 189.503 53.7795 189.447C53.7683 189.436 52.5184 187.751 53.5116 186.233C53.8464 185.731 54.4267 185.128 55.3419 185.128C55.9222 185.128 56.5471 185.373 57.2167 185.853C58.9019 187.081 60.6986 192.125 61.0334 193.107C60.1294 193.386 55.7882 194.547 53.7013 194.547Z" fill="#FBE993"/>
<path d="M55.3529 184.983V185.318C55.8886 185.318 56.4912 185.553 57.1273 186.021C58.6897 187.16 60.3748 191.746 60.8212 193.03C59.6383 193.353 55.6654 194.391 53.7012 194.391C53.6119 194.391 53.5227 194.391 53.4445 194.38C52.7415 194.335 52.1165 194.09 51.6701 193.666C51.2349 193.253 51.0117 192.717 51.0452 192.159C51.1344 190.563 52.1723 189.838 53.0874 189.838C53.2548 189.838 53.4111 189.86 53.5785 189.905C53.6119 189.916 53.6343 189.916 53.6677 189.916C53.7793 189.916 53.8909 189.86 53.9579 189.76C54.036 189.637 54.0248 189.47 53.9244 189.358C53.9132 189.347 52.7526 187.751 53.6677 186.356C53.9802 185.887 54.5159 185.329 55.3529 185.329V184.983ZM55.3529 184.983C54.4712 184.983 53.8128 185.519 53.3887 186.166C52.3732 187.706 53.545 189.425 53.6789 189.581C53.4892 189.525 53.2995 189.503 53.0986 189.503C51.9045 189.503 50.8108 190.474 50.7215 192.137C50.6434 193.521 51.8375 194.626 53.4334 194.715C53.5227 194.715 53.6119 194.726 53.7012 194.726C56.0783 194.726 61.2453 193.253 61.2453 193.253C61.2453 193.253 59.2365 187.148 57.317 185.742C56.5805 185.195 55.922 184.983 55.3529 184.983Z" fill="#D99202"/>
<path d="M60.0177 203.563C59.9508 203.563 59.8838 203.563 59.8169 203.552C58.9129 203.463 58.1875 203.072 57.7746 202.447C57.4286 201.934 57.3394 201.298 57.5179 200.718C57.5402 200.651 57.5068 200.573 57.451 200.528C57.4175 200.506 57.3952 200.494 57.3617 200.494C57.3282 200.494 57.2836 200.506 57.2501 200.528C57.1385 200.617 56.3461 201.108 55.4087 201.108C54.8953 201.108 54.4378 200.963 54.036 200.673C53.6343 200.383 53.1209 199.881 53.0205 199.155C52.92 198.486 53.1879 197.749 53.8017 196.968C55.0962 195.339 60.2075 193.743 61.2007 193.441C61.4239 194.401 62.4952 199.133 62.3055 201.086C62.1716 202.526 61.2118 203.563 60.0177 203.563Z" fill="#FBE993"/>
<path d="M61.078 193.664C61.3681 194.914 62.3167 199.255 62.1382 201.086C62.0042 202.425 61.1115 203.407 60.0066 203.407C59.9508 203.407 59.8839 203.407 59.8169 203.396C58.9688 203.318 58.288 202.949 57.8974 202.369C57.5849 201.889 57.4956 201.331 57.663 200.773C57.7077 200.628 57.6519 200.483 57.5291 200.394C57.4733 200.36 57.4064 200.338 57.3394 200.338C57.2613 200.338 57.1832 200.36 57.1274 200.416C57.0158 200.505 56.2569 200.963 55.3864 200.963C54.9177 200.963 54.4825 200.829 54.1142 200.561C53.7348 200.293 53.266 199.825 53.1656 199.155C53.0763 198.53 53.333 197.838 53.9133 197.09C55.1409 195.55 59.7834 194.055 61.078 193.664ZM61.3235 193.24C61.3235 193.24 55.1409 195.003 53.6678 196.867C52.1947 198.731 52.8978 200.081 53.9356 200.818C54.4155 201.164 54.9289 201.287 55.4087 201.287C56.4131 201.287 57.2501 200.751 57.3617 200.673C56.9377 202.045 57.8751 203.541 59.7946 203.731C59.8727 203.742 59.9397 203.742 60.0066 203.742C61.29 203.742 62.3279 202.626 62.473 201.119C62.6962 198.887 61.3235 193.24 61.3235 193.24Z" fill="#D99202"/>
<path d="M67.9412 200.562C67.439 200.562 66.8699 200.395 66.2561 200.049C64.437 199.033 62.0488 194.245 61.5912 193.308C62.5064 192.929 67.0038 191.11 68.9568 190.987C69.0349 190.987 69.113 190.976 69.18 190.976C70.6084 190.976 71.7021 191.846 71.7802 193.051C71.836 193.888 71.6017 194.636 71.1218 195.138C70.7312 195.562 70.1955 195.786 69.6375 195.786C69.5371 195.786 69.4478 195.774 69.3474 195.763C69.3362 195.763 69.3362 195.763 69.3251 195.763C69.2581 195.763 69.2023 195.797 69.1688 195.864C69.1353 195.931 69.1577 196.009 69.2135 196.064C69.2246 196.076 70.6754 197.593 69.8719 199.212C69.6375 199.725 69.0572 200.562 67.9412 200.562Z" fill="#FBE993"/>
<path d="M69.18 191.154C70.5191 191.154 71.5459 191.969 71.6128 193.074C71.6686 193.866 71.4454 194.558 70.999 195.038C70.6419 195.417 70.1509 195.629 69.6375 195.629C69.5482 195.629 69.459 195.618 69.3697 195.607C69.3585 195.607 69.3362 195.607 69.325 195.607C69.1911 195.607 69.0795 195.685 69.0237 195.808C68.9679 195.942 69.0014 196.098 69.113 196.198C69.1242 196.21 70.4745 197.649 69.738 199.145C69.459 199.714 68.9233 200.383 67.9524 200.383C67.4725 200.383 66.9368 200.216 66.3453 199.892C64.649 198.955 62.4282 194.603 61.8256 193.386C63.0197 192.906 67.1377 191.266 68.9791 191.143C69.0349 191.154 69.113 191.154 69.18 191.154ZM69.18 190.819C69.1018 190.819 69.0237 190.819 68.9456 190.83C66.7248 190.976 61.3569 193.23 61.3569 193.23C61.3569 193.23 64.091 199.044 66.1668 200.205C66.8475 200.584 67.439 200.74 67.9412 200.74C68.9791 200.74 69.6487 200.071 70.0281 199.312C70.8428 197.66 69.4813 196.098 69.325 195.964C69.4255 195.975 69.5371 195.986 69.6375 195.986C70.9432 195.986 72.0704 194.859 71.9476 193.074C71.8695 191.746 70.6754 190.819 69.18 190.819Z" fill="#D99202"/>
<path d="M65.2966 202.415C65.1962 202.415 65.1404 202.37 65.1404 202.37C65.1292 202.37 65.118 202.359 65.118 202.348C64.8948 202.225 64.7944 202.046 64.5935 201.734L64.5489 201.667C62.8191 198.81 61.4799 194.034 61.2567 193.23L61.4353 193.107C61.6808 193.777 62.4397 195.886 62.9419 196.879C63.6673 198.319 63.9797 198.799 64.8056 200.105C65.0622 200.495 65.3636 200.975 65.743 201.567C65.743 201.567 66.0108 202.013 65.743 202.214C65.5868 202.359 65.4305 202.415 65.2966 202.415Z" fill="#FBE993"/>
<path d="M61.9375 194.926C62.2276 195.674 62.5513 196.466 62.808 196.968C63.5334 198.408 63.8458 198.899 64.6828 200.205C64.9283 200.584 65.2408 201.064 65.6091 201.666C65.6203 201.689 65.7877 202.001 65.6537 202.102C65.4752 202.236 65.3524 202.258 65.3078 202.258C65.2743 202.258 65.252 202.247 65.2408 202.247C65.2297 202.236 65.2185 202.224 65.1962 202.224C65.0176 202.124 64.9395 202.001 64.7386 201.666L64.694 201.6C63.511 199.635 62.5178 196.778 61.9375 194.926ZM61.5246 192.861L61.067 193.174C61.067 193.174 62.4843 198.598 64.4038 201.767C64.627 202.135 64.7498 202.358 65.0288 202.515C65.0288 202.515 65.1181 202.593 65.2966 202.593C65.4305 202.593 65.6203 202.548 65.8435 202.37C66.234 202.079 65.8881 201.499 65.8881 201.499C64.2699 198.943 64.0355 198.698 63.0981 196.834C62.5066 195.651 61.5246 192.861 61.5246 192.861Z" fill="#D99202"/>
<path d="M62.0158 191.221C62.0158 191.221 64.4486 190.262 64.9731 189.447C65.4976 188.632 65.1517 188.119 64.7165 187.862C64.0692 187.483 63.3996 187.996 63.3326 188.063C63.4442 187.494 63.009 186.925 62.2278 186.925C61.6698 186.925 61.2457 187.438 61.2457 188.085C61.2346 188.989 62.0158 191.221 62.0158 191.221Z" fill="#D99202"/>
<path d="M59.259 192.172C59.259 192.172 58.4332 189.661 57.6408 189.08C56.8485 188.5 56.3016 188.812 56.0227 189.259C55.6097 189.895 56.0896 190.598 56.1454 190.665C55.5763 190.509 54.9736 190.922 54.929 191.714C54.8955 192.283 55.3865 192.741 56.045 192.774C56.9601 192.83 59.259 192.172 59.259 192.172Z" fill="#D99202"/>
<path d="M60.3415 194.993C60.3415 194.993 57.8752 195.696 57.2837 196.444C56.6922 197.192 56.9824 197.727 57.3841 198.017C57.9868 198.442 58.6898 198.006 58.7456 197.962C58.5782 198.509 58.9465 199.1 59.7165 199.178C60.2634 199.234 60.7209 198.776 60.7879 198.14C60.8883 197.247 60.3415 194.993 60.3415 194.993Z" fill="#D99202"/>
<path d="M63.5107 194C63.5107 194 64.5486 196.21 65.341 196.656C66.1333 197.092 66.5909 196.746 66.8141 196.322C67.1265 195.697 66.602 195.094 66.5462 195.049C67.0931 195.128 67.5953 194.681 67.5395 193.945C67.506 193.42 67.0038 193.052 66.4012 193.096C65.553 193.141 63.5107 194 63.5107 194Z" fill="#D99202"/>
<g opacity="0.26">
<mask id="mask0_19_34248" style="mask-type:luminance" maskUnits="userSpaceOnUse" x="41" y="173" width="40" height="41">
<path d="M80.9985 193.499C80.9985 204.536 72.0483 213.497 61 213.497C49.9629 213.497 41.0015 204.547 41.0015 193.499C41.0015 182.45 49.9517 173.5 61 173.5C72.0483 173.5 80.9985 182.45 80.9985 193.499Z" fill="white"/>
</mask>
<g mask="url(#mask0_19_34248)">
<path d="M61.3683 197.203C76.9495 197.203 89.5806 186.841 89.5806 174.058C89.5806 161.275 76.9495 150.912 61.3683 150.912C45.7872 150.912 33.1561 161.275 33.1561 174.058C33.1561 186.841 45.7872 197.203 61.3683 197.203Z" fill="white"/>
</g>
</g>
<path d="M118.159 191.7C117.079 191.7 116.219 191.467 115.579 191C114.939 190.52 114.479 189.867 114.199 189.04C113.919 188.2 113.779 187.24 113.779 186.16C113.779 185 113.906 184.04 114.159 183.28C114.426 182.507 114.799 181.907 115.279 181.48C115.759 181.04 116.326 180.733 116.979 180.56C117.646 180.373 118.372 180.28 119.159 180.28C120.359 180.28 121.319 180.447 122.039 180.78C122.759 181.113 123.279 181.587 123.599 182.2C123.932 182.813 124.099 183.533 124.099 184.36V191.5H121.099V184.6C121.099 183.973 120.946 183.5 120.639 183.18C120.346 182.847 119.852 182.68 119.159 182.68C118.692 182.68 118.279 182.78 117.919 182.98C117.572 183.167 117.299 183.507 117.099 184C116.912 184.493 116.819 185.2 116.819 186.12C116.819 186.747 116.879 187.3 116.999 187.78C117.119 188.26 117.312 188.633 117.579 188.9C117.859 189.167 118.232 189.3 118.699 189.3C118.846 189.3 118.986 189.293 119.119 189.28C119.266 189.253 119.392 189.227 119.499 189.2L119.779 191.44C119.566 191.533 119.306 191.6 118.999 191.64C118.706 191.68 118.426 191.7 118.159 191.7ZM117.64 179.04V178.04C117.827 177.987 118.034 177.913 118.26 177.82C118.487 177.727 118.687 177.6 118.86 177.44C119.034 177.28 119.12 177.08 119.12 176.84C119.12 176.653 119.067 176.507 118.96 176.4C118.854 176.293 118.72 176.24 118.56 176.24C118.454 176.24 118.34 176.26 118.22 176.3C118.1 176.34 117.994 176.38 117.9 176.42L117.52 175.08C117.787 174.853 118.12 174.707 118.52 174.64C118.907 174.56 119.234 174.52 119.5 174.52C120.1 174.52 120.574 174.66 120.92 174.94C121.254 175.22 121.42 175.633 121.42 176.18C121.42 176.473 121.347 176.747 121.2 177C121.04 177.253 120.8 177.46 120.48 177.62L120.4 177.1H124.18V179.04H117.64ZM129.795 191.5V184.26C129.795 183.7 129.661 183.293 129.395 183.04C129.141 182.787 128.721 182.66 128.135 182.66C127.695 182.66 127.288 182.72 126.915 182.84C126.555 182.96 126.215 183.107 125.895 183.28V180.88C126.188 180.747 126.601 180.613 127.135 180.48C127.668 180.347 128.295 180.28 129.015 180.28C129.748 180.28 130.395 180.387 130.955 180.6C131.528 180.813 131.975 181.173 132.295 181.68C132.628 182.173 132.795 182.853 132.795 183.72V191.5H129.795ZM139.326 191.7C138.513 191.7 137.826 191.547 137.266 191.24C136.719 190.92 136.299 190.447 136.006 189.82C135.726 189.193 135.586 188.427 135.586 187.52V180.54H138.586V187C138.586 187.733 138.733 188.267 139.026 188.6C139.319 188.933 139.746 189.1 140.306 189.1C141.013 189.1 141.559 188.833 141.946 188.3C142.333 187.753 142.526 186.913 142.526 185.78V180.54H145.526V191.5H143.246L142.926 189.82H142.746C142.519 190.353 142.126 190.8 141.566 191.16C141.019 191.52 140.273 191.7 139.326 191.7ZM148.696 191.5V180.54H151.656V184.64H151.736L155.136 180.54H158.436V180.64L151.656 188.16V191.5H148.696ZM155.396 191.5V187.88C155.396 187.173 155.189 186.667 154.776 186.36C154.376 186.04 153.789 185.88 153.016 185.88L154.776 183.8C155.576 183.8 156.242 183.96 156.776 184.28C157.309 184.6 157.709 185.033 157.976 185.58C158.256 186.113 158.396 186.727 158.396 187.42V191.5H155.396ZM164.697 191.7C163.884 191.7 163.197 191.547 162.637 191.24C162.09 190.92 161.67 190.447 161.377 189.82C161.097 189.193 160.957 188.427 160.957 187.52V180.54H163.957V187C163.957 187.733 164.104 188.267 164.397 188.6C164.69 188.933 165.117 189.1 165.677 189.1C166.384 189.1 166.93 188.833 167.317 188.3C167.704 187.753 167.897 186.913 167.897 185.78V180.54H170.897V191.5H168.617L168.297 189.82H168.117C167.89 190.353 167.497 190.8 166.937 191.16C166.39 191.52 165.644 191.7 164.697 191.7ZM164.867 179.04V178.04C165.053 177.987 165.26 177.913 165.487 177.82C165.713 177.727 165.913 177.6 166.087 177.44C166.26 177.28 166.347 177.08 166.347 176.84C166.347 176.653 166.293 176.507 166.187 176.4C166.08 176.293 165.947 176.24 165.787 176.24C165.68 176.24 165.567 176.26 165.447 176.3C165.327 176.34 165.22 176.38 165.127 176.42L164.747 175.08C165.013 174.853 165.347 174.707 165.747 174.64C166.133 174.56 166.46 174.52 166.727 174.52C167.327 174.52 167.8 174.66 168.147 174.94C168.48 175.22 168.647 175.633 168.647 176.18C168.647 176.473 168.573 176.747 168.427 177C168.267 177.253 168.027 177.46 167.707 177.62L167.627 177.1H171.407V179.04H164.867ZM176.787 191.5V184.26C176.787 183.7 176.653 183.293 176.387 183.04C176.133 182.787 175.713 182.66 175.127 182.66C174.687 182.66 174.28 182.72 173.907 182.84C173.547 182.96 173.207 183.107 172.887 183.28V180.88C173.18 180.747 173.593 180.613 174.127 180.48C174.66 180.347 175.287 180.28 176.007 180.28C176.74 180.28 177.387 180.387 177.947 180.6C178.52 180.813 178.967 181.173 179.287 181.68C179.62 182.173 179.787 182.853 179.787 183.72V191.5H176.787Z" fill="white"/>
<path d="M100.127 210.5V208.22C100.127 207.716 100.239 207.352 100.463 207.128C100.687 206.896 100.971 206.736 101.315 206.648L101.327 206.612L100.007 206.108V205.712C100.007 205.384 100.115 205.076 100.331 204.788C100.547 204.492 100.855 204.256 101.255 204.08C101.663 203.896 102.147 203.804 102.707 203.804C103.195 203.804 103.647 203.884 104.063 204.044C104.479 204.196 104.811 204.44 105.059 204.776C105.315 205.104 105.443 205.536 105.443 206.072V210.5H104.375V206.18C104.375 205.644 104.211 205.264 103.883 205.04C103.563 204.808 103.167 204.692 102.695 204.692C102.207 204.692 101.819 204.796 101.531 205.004C101.243 205.204 101.099 205.46 101.099 205.772L102.395 206.42L102.299 206.996C102.003 206.996 101.743 207.096 101.519 207.296C101.303 207.488 101.195 207.796 101.195 208.22V210.5H100.127ZM104.467 203.168C104.067 203.168 103.751 203.076 103.519 202.892C103.287 202.7 103.171 202.432 103.171 202.088C103.171 201.736 103.287 201.468 103.519 201.284C103.751 201.1 104.067 201.008 104.467 201.008C104.867 201.008 105.187 201.1 105.427 201.284C105.667 201.468 105.787 201.736 105.787 202.088C105.787 202.432 105.667 202.7 105.427 202.892C105.187 203.076 104.867 203.168 104.467 203.168ZM104.467 202.604C104.659 202.604 104.807 202.556 104.911 202.46C105.007 202.364 105.055 202.24 105.055 202.088C105.055 201.928 105.007 201.804 104.911 201.716C104.807 201.62 104.659 201.572 104.467 201.572C104.283 201.572 104.143 201.62 104.047 201.716C103.943 201.804 103.891 201.928 103.891 202.088C103.891 202.24 103.943 202.364 104.047 202.46C104.143 202.556 104.283 202.604 104.467 202.604ZM109.243 210.5V205.832C109.243 205.44 109.151 205.152 108.967 204.968C108.791 204.784 108.491 204.692 108.067 204.692C107.779 204.692 107.507 204.732 107.251 204.812C107.003 204.884 106.763 204.988 106.531 205.124V204.164C106.691 204.084 106.919 204.004 107.215 203.924C107.511 203.844 107.863 203.804 108.271 203.804C108.687 203.804 109.047 203.864 109.351 203.984C109.655 204.104 109.891 204.304 110.059 204.584C110.227 204.856 110.311 205.22 110.311 205.676V210.5H109.243ZM112.606 205.124V202.976C112.606 202.672 112.634 202.428 112.69 202.244C112.746 202.052 112.822 201.896 112.918 201.776C113.014 201.656 113.118 201.556 113.23 201.476L113.218 201.428H111.13L111.406 200.588H114.79V201.428C114.494 201.428 114.234 201.524 114.01 201.716C113.786 201.908 113.674 202.26 113.674 202.772V205.124H112.606ZM113.914 210.62C113.698 210.62 113.49 210.584 113.29 210.512C113.09 210.44 112.926 210.312 112.798 210.128C112.67 209.944 112.606 209.688 112.606 209.36V203.924H113.674V209.228C113.674 209.412 113.714 209.544 113.794 209.624C113.874 209.704 114.002 209.744 114.178 209.744C114.25 209.744 114.326 209.736 114.406 209.72C114.486 209.704 114.562 209.684 114.634 209.66L114.778 210.44C114.626 210.512 114.478 210.56 114.334 210.584C114.19 210.608 114.05 210.62 113.914 210.62ZM117.633 210.62C117.161 210.62 116.721 210.576 116.313 210.488C115.913 210.392 115.573 210.28 115.293 210.152L115.605 209.288C115.773 209.352 115.965 209.42 116.181 209.492C116.397 209.564 116.629 209.624 116.877 209.672C117.133 209.712 117.393 209.732 117.657 209.732C118.081 209.732 118.433 209.652 118.713 209.492C118.993 209.332 119.133 209.1 119.133 208.796C119.133 208.612 119.081 208.456 118.977 208.328C118.881 208.192 118.729 208.068 118.521 207.956C118.313 207.844 118.045 207.736 117.717 207.632C117.213 207.472 116.785 207.304 116.433 207.128C116.089 206.944 115.825 206.728 115.641 206.48C115.465 206.224 115.377 205.908 115.377 205.532C115.377 205.196 115.465 204.9 115.641 204.644C115.825 204.38 116.105 204.176 116.481 204.032C116.865 203.88 117.353 203.804 117.945 203.804C118.329 203.804 118.689 203.84 119.025 203.912C119.369 203.976 119.637 204.068 119.829 204.188V205.088C119.693 205.024 119.521 204.96 119.313 204.896C119.113 204.832 118.893 204.78 118.653 204.74C118.413 204.7 118.165 204.68 117.909 204.68C117.373 204.68 116.993 204.764 116.769 204.932C116.553 205.092 116.445 205.276 116.445 205.484C116.445 205.66 116.493 205.808 116.589 205.928C116.693 206.048 116.865 206.164 117.105 206.276C117.353 206.388 117.685 206.516 118.101 206.66C118.485 206.788 118.837 206.936 119.157 207.104C119.477 207.272 119.729 207.484 119.913 207.74C120.105 207.988 120.201 208.308 120.201 208.7C120.201 209.036 120.117 209.352 119.949 209.648C119.789 209.936 119.521 210.172 119.145 210.356C118.769 210.532 118.265 210.62 117.633 210.62ZM121.756 205.479V204.277H122.958V205.479H121.756ZM121.756 210.5V209.299H122.958V210.5H121.756ZM124.51 206.264C124.51 205.248 124.614 204.432 124.821 203.814C125.032 203.193 125.342 202.715 125.752 202.379C126.167 202.043 126.686 201.875 127.311 201.875C127.772 201.875 128.176 201.969 128.524 202.156C128.872 202.34 129.159 202.607 129.385 202.959C129.612 203.307 129.79 203.732 129.918 204.236C130.047 204.736 130.112 205.412 130.112 206.264C130.112 207.271 130.008 208.086 129.801 208.707C129.594 209.324 129.284 209.803 128.87 210.143C128.459 210.479 127.94 210.646 127.311 210.646C126.483 210.646 125.833 210.35 125.36 209.756C124.793 209.041 124.51 207.877 124.51 206.264ZM125.594 206.264C125.594 207.674 125.758 208.613 126.086 209.082C126.418 209.547 126.827 209.779 127.311 209.779C127.795 209.779 128.202 209.545 128.53 209.076C128.862 208.607 129.028 207.67 129.028 206.264C129.028 204.85 128.862 203.91 128.53 203.445C128.202 202.98 127.792 202.748 127.299 202.748C126.815 202.748 126.428 202.953 126.139 203.363C125.776 203.887 125.594 204.854 125.594 206.264ZM131.782 210.5V209.299H132.983V210.5H131.782ZM140.073 209.486V210.5H134.395C134.387 210.246 134.428 210.002 134.518 209.768C134.663 209.381 134.893 209 135.209 208.625C135.53 208.25 135.991 207.816 136.592 207.324C137.526 206.559 138.157 205.953 138.485 205.508C138.813 205.059 138.977 204.635 138.977 204.236C138.977 203.818 138.827 203.467 138.526 203.182C138.229 202.893 137.84 202.748 137.36 202.748C136.852 202.748 136.446 202.9 136.141 203.205C135.836 203.51 135.682 203.932 135.678 204.471L134.594 204.359C134.668 203.551 134.948 202.936 135.432 202.514C135.917 202.088 136.567 201.875 137.383 201.875C138.208 201.875 138.86 202.104 139.34 202.561C139.821 203.018 140.061 203.584 140.061 204.26C140.061 204.604 139.991 204.941 139.85 205.273C139.709 205.605 139.475 205.955 139.147 206.322C138.823 206.689 138.282 207.193 137.524 207.834C136.891 208.365 136.485 208.727 136.305 208.918C136.125 209.105 135.977 209.295 135.86 209.486H140.073ZM141.215 208.232L142.27 208.092C142.391 208.689 142.596 209.121 142.885 209.387C143.178 209.648 143.534 209.779 143.952 209.779C144.448 209.779 144.866 209.607 145.206 209.264C145.549 208.92 145.721 208.494 145.721 207.986C145.721 207.502 145.563 207.104 145.247 206.791C144.93 206.475 144.528 206.316 144.04 206.316C143.84 206.316 143.592 206.355 143.295 206.434L143.413 205.508C143.483 205.516 143.54 205.52 143.583 205.52C144.032 205.52 144.436 205.402 144.795 205.168C145.155 204.934 145.334 204.572 145.334 204.084C145.334 203.697 145.204 203.377 144.942 203.123C144.68 202.869 144.342 202.742 143.928 202.742C143.518 202.742 143.176 202.871 142.903 203.129C142.629 203.387 142.454 203.773 142.375 204.289L141.321 204.102C141.45 203.395 141.743 202.848 142.2 202.461C142.657 202.07 143.225 201.875 143.905 201.875C144.374 201.875 144.805 201.977 145.2 202.18C145.594 202.379 145.895 202.652 146.102 203C146.313 203.348 146.418 203.717 146.418 204.107C146.418 204.479 146.319 204.816 146.12 205.121C145.92 205.426 145.625 205.668 145.235 205.848C145.743 205.965 146.137 206.209 146.418 206.58C146.7 206.947 146.84 207.408 146.84 207.963C146.84 208.713 146.567 209.35 146.02 209.873C145.473 210.393 144.782 210.652 143.946 210.652C143.192 210.652 142.565 210.428 142.065 209.979C141.569 209.529 141.286 208.947 141.215 208.232ZM151.27 210.5V208.443H147.543V207.477L151.463 201.91H152.325V207.477H153.485V208.443H152.325V210.5H151.27ZM151.27 207.477V203.604L148.581 207.477H151.27ZM157.95 210.5V208.443H154.223V207.477L158.143 201.91H159.004V207.477H160.165V208.443H159.004V210.5H157.95ZM157.95 207.477V203.604L155.26 207.477H157.95ZM161.254 208.232L162.309 208.092C162.43 208.689 162.635 209.121 162.924 209.387C163.217 209.648 163.573 209.779 163.991 209.779C164.487 209.779 164.905 209.607 165.245 209.264C165.588 208.92 165.76 208.494 165.76 207.986C165.76 207.502 165.602 207.104 165.286 206.791C164.969 206.475 164.567 206.316 164.079 206.316C163.879 206.316 163.631 206.355 163.334 206.434L163.452 205.508C163.522 205.516 163.579 205.52 163.622 205.52C164.071 205.52 164.475 205.402 164.834 205.168C165.194 204.934 165.374 204.572 165.374 204.084C165.374 203.697 165.243 203.377 164.981 203.123C164.719 202.869 164.381 202.742 163.967 202.742C163.557 202.742 163.215 202.871 162.942 203.129C162.668 203.387 162.493 203.773 162.415 204.289L161.36 204.102C161.489 203.395 161.782 202.848 162.239 202.461C162.696 202.07 163.264 201.875 163.944 201.875C164.413 201.875 164.844 201.977 165.239 202.18C165.633 202.379 165.934 202.652 166.141 203C166.352 203.348 166.458 203.717 166.458 204.107C166.458 204.479 166.358 204.816 166.159 205.121C165.959 205.426 165.665 205.668 165.274 205.848C165.782 205.965 166.176 206.209 166.458 206.58C166.739 206.947 166.879 207.408 166.879 207.963C166.879 208.713 166.606 209.35 166.059 209.873C165.512 210.393 164.821 210.652 163.985 210.652C163.231 210.652 162.604 210.428 162.104 209.979C161.608 209.529 161.325 208.947 161.254 208.232ZM171.649 210.5V201.91H174.872C175.528 201.91 176.053 201.998 176.448 202.174C176.846 202.346 177.157 202.613 177.379 202.977C177.606 203.336 177.719 203.713 177.719 204.107C177.719 204.475 177.62 204.82 177.42 205.145C177.221 205.469 176.92 205.73 176.518 205.93C177.038 206.082 177.436 206.342 177.713 206.709C177.995 207.076 178.135 207.51 178.135 208.01C178.135 208.412 178.049 208.787 177.877 209.135C177.709 209.479 177.5 209.744 177.25 209.932C177 210.119 176.686 210.262 176.307 210.359C175.932 210.453 175.471 210.5 174.924 210.5H171.649ZM172.786 205.52H174.643C175.147 205.52 175.508 205.486 175.727 205.42C176.016 205.334 176.233 205.191 176.377 204.992C176.526 204.793 176.6 204.543 176.6 204.242C176.6 203.957 176.532 203.707 176.395 203.492C176.258 203.273 176.063 203.125 175.809 203.047C175.555 202.965 175.12 202.924 174.502 202.924H172.786V205.52ZM172.786 209.486H174.924C175.292 209.486 175.549 209.473 175.698 209.445C175.959 209.398 176.178 209.32 176.354 209.211C176.53 209.102 176.674 208.943 176.788 208.736C176.901 208.525 176.958 208.283 176.958 208.01C176.958 207.689 176.875 207.412 176.711 207.178C176.547 206.939 176.319 206.773 176.026 206.68C175.737 206.582 175.319 206.533 174.772 206.533H172.786V209.486ZM181.885 210.5V202.924H179.055V201.91H185.864V202.924H183.022V210.5H181.885ZM193.165 207.488L194.301 207.775C194.063 208.709 193.633 209.422 193.012 209.914C192.395 210.402 191.639 210.646 190.745 210.646C189.819 210.646 189.065 210.459 188.483 210.084C187.905 209.705 187.463 209.158 187.159 208.443C186.858 207.729 186.708 206.961 186.708 206.141C186.708 205.246 186.877 204.467 187.217 203.803C187.561 203.135 188.047 202.629 188.676 202.285C189.309 201.938 190.004 201.764 190.762 201.764C191.622 201.764 192.344 201.982 192.93 202.42C193.516 202.857 193.924 203.473 194.155 204.266L193.036 204.529C192.836 203.904 192.547 203.449 192.168 203.164C191.79 202.879 191.313 202.736 190.739 202.736C190.079 202.736 189.526 202.895 189.081 203.211C188.639 203.527 188.329 203.953 188.149 204.488C187.969 205.02 187.879 205.568 187.879 206.135C187.879 206.865 187.985 207.504 188.196 208.051C188.411 208.594 188.743 209 189.192 209.27C189.641 209.539 190.127 209.674 190.651 209.674C191.288 209.674 191.827 209.49 192.268 209.123C192.709 208.756 193.008 208.211 193.165 207.488Z" fill="#D6D6D6"/>
</g>
<rect x="245" y="155" width="200" height="77" rx="10" fill="#4181EE"/>
<g clip-path="url(#clip3_19_34248)">
<path d="M288.5 213.276C277.596 213.276 268.723 204.403 268.723 193.499C268.723 182.595 277.596 173.723 288.5 173.723C299.404 173.723 308.277 182.595 308.277 193.499C308.277 204.403 299.404 213.276 288.5 213.276Z" fill="url(#paint5_linear_19_34248)"/>
<path d="M288.5 173.946C293.723 173.946 298.634 175.978 302.328 179.672C306.022 183.366 308.054 188.277 308.054 193.5C308.054 198.723 306.022 203.634 302.328 207.328C298.634 211.022 293.723 213.054 288.5 213.054C283.277 213.054 278.366 211.022 274.672 207.328C270.989 203.634 268.946 198.723 268.946 193.5C268.946 188.277 270.978 183.366 274.672 179.672C278.366 175.989 283.277 173.946 288.5 173.946ZM288.5 173.5C277.462 173.5 268.5 182.451 268.5 193.5C268.5 204.538 277.451 213.5 288.5 213.5C299.549 213.5 308.5 204.549 308.5 193.5C308.5 182.451 299.549 173.5 288.5 173.5Z" fill="#C6DBDF"/>
<path d="M288.5 173.946C293.723 173.946 298.634 175.978 302.328 179.672C306.022 183.366 308.054 188.277 308.054 193.5C308.054 198.723 306.022 203.634 302.328 207.328C298.634 211.022 293.723 213.054 288.5 213.054C283.277 213.054 278.366 211.022 274.672 207.328C270.989 203.634 268.946 198.723 268.946 193.5C268.946 188.277 270.978 183.366 274.672 179.672C278.366 175.989 283.277 173.946 288.5 173.946ZM288.5 173.5C277.462 173.5 268.5 182.451 268.5 193.5C268.5 204.538 277.451 213.5 288.5 213.5C299.549 213.5 308.5 204.549 308.5 193.5C308.5 182.451 299.549 173.5 288.5 173.5Z" fill="url(#paint6_linear_19_34248)"/>
<path d="M306.1 193.5C306.1 203.221 298.221 211.1 288.5 211.1C278.779 211.1 270.9 203.221 270.9 193.5C270.9 183.779 278.779 175.899 288.5 175.899C298.221 175.899 306.1 183.779 306.1 193.5Z" fill="url(#paint7_linear_19_34248)"/>
<path d="M305.353 193.5C305.353 202.808 297.808 210.353 288.5 210.353C279.192 210.353 271.647 202.808 271.647 193.5C271.647 184.192 279.192 176.647 288.5 176.647C297.808 176.647 305.353 184.192 305.353 193.5Z" fill="#839EA0"/>
<path d="M304.638 193.5C304.638 202.406 297.417 209.638 288.5 209.638C279.594 209.638 272.362 202.417 272.362 193.5C272.362 184.593 279.582 177.361 288.5 177.361C297.406 177.361 304.638 184.593 304.638 193.5Z" fill="url(#paint8_linear_19_34248)"/>
<path d="M288.5 177.919C292.663 177.919 296.569 179.538 299.516 182.484C302.462 185.431 304.08 189.337 304.08 193.5C304.08 197.663 302.462 201.569 299.516 204.515C296.569 207.462 292.663 209.08 288.5 209.08C284.337 209.08 280.431 207.462 277.484 204.515C274.549 201.569 272.92 197.663 272.92 193.5C272.92 189.337 274.538 185.431 277.484 182.484C280.431 179.549 284.337 177.919 288.5 177.919ZM288.5 177.361C279.594 177.361 272.362 184.582 272.362 193.5C272.362 202.406 279.582 209.638 288.5 209.638C297.406 209.638 304.638 202.417 304.638 193.5C304.638 184.593 297.406 177.361 288.5 177.361Z" fill="url(#paint9_linear_19_34248)"/>
<path d="M297.316 190.397C296.87 189.951 297.249 189.147 297.249 189.147C297.249 189.147 291.758 190.688 288.79 190.688C285.899 190.688 280.464 189.147 280.464 189.147C280.464 189.147 280.843 189.951 280.408 190.397C278.99 191.714 278.153 193.366 278.153 195.163C278.153 199.449 282.941 202.931 288.857 202.931C294.772 202.931 299.56 199.46 299.56 195.163C299.571 193.366 298.734 191.714 297.316 190.397Z" fill="#98B6B7"/>
<path d="M282.071 190.174C283.142 191.022 287.886 192.205 293.611 192.116C296.089 192.049 298.578 193.187 299.337 195.654C299.292 194.471 299.247 192.473 296.993 190.308C296.725 189.973 296.982 189.471 296.982 189.471C296.982 189.471 293.968 190.687 291.602 190.799C289.236 190.91 282.071 190.174 282.071 190.174Z" fill="#83A0A2"/>
<path d="M281.133 190.174C281.133 190.174 281.647 190.71 283.656 191.156C283.031 191.602 281.569 193.232 281.859 196.033C282.16 198.823 284.057 201.178 286.133 202.205C284.615 201.937 279.984 200.386 279.716 195.922C279.627 193.622 280.988 191.625 281.122 191.078C281.267 190.531 281.133 190.174 281.133 190.174Z" fill="#EFFBFA"/>
<path d="M282.45 196.737C282.328 196.737 282.205 196.725 282.082 196.692L281.1 196.424C280.743 196.324 280.453 196.1 280.263 195.777C280.084 195.453 280.029 195.085 280.129 194.728L280.252 194.259C280.43 193.612 281.044 193.187 281.703 193.243C281.87 193.254 282.004 193.411 281.982 193.578C281.971 193.745 281.814 193.879 281.647 193.857C281.279 193.824 280.955 194.058 280.854 194.404L280.732 194.873C280.676 195.062 280.709 195.274 280.81 195.442C280.91 195.62 281.067 195.743 281.267 195.799L282.25 196.067C282.439 196.123 282.651 196.089 282.819 195.989C282.997 195.888 283.12 195.732 283.176 195.531L283.299 195.062C283.377 194.772 283.276 194.46 283.042 194.27C282.908 194.158 282.886 193.969 282.986 193.835C283.098 193.701 283.287 193.678 283.421 193.779C283.857 194.125 284.046 194.694 283.901 195.23L283.779 195.699C283.678 196.056 283.455 196.346 283.131 196.536C282.919 196.67 282.685 196.737 282.45 196.737Z" fill="#83A0A2"/>
<path d="M297.383 188.567C297.383 189.683 293.566 190.576 288.868 190.576C284.169 190.576 280.352 189.672 280.352 188.567C280.352 187.451 284.169 186.558 288.868 186.558C293.566 186.547 297.383 187.451 297.383 188.567Z" fill="#98B6B7"/>
<path d="M295.866 188.332C295.866 189.08 292.729 189.682 288.868 189.682C285.006 189.682 281.87 189.08 281.87 188.332C281.87 187.584 285.006 186.981 288.868 186.981C292.729 186.981 295.866 187.595 295.866 188.332Z" fill="#83A0A2"/>
<path d="M280.352 188.566C280.352 188.566 280.296 188.857 280.453 189.102C280.609 189.348 281.067 190.174 284.247 190.698C286.078 190.999 289.504 191.211 291.658 190.966C293.812 190.72 295.754 190.285 296.602 189.761C297.45 189.236 297.428 188.745 297.395 188.566C297.015 189.035 293.868 190.52 289.002 190.52C284.113 190.52 280.352 188.566 280.352 188.566Z" fill="#EFFBFA"/>
<path d="M283.633 189.148C284.496 189.148 285.196 188.568 285.196 187.853C285.196 187.138 284.496 186.559 283.633 186.559C282.77 186.559 282.071 187.138 282.071 187.853C282.071 188.568 282.77 189.148 283.633 189.148Z" fill="#EFFBFA"/>
<path d="M286.145 189.628C287.007 189.628 287.707 189.049 287.707 188.334C287.707 187.619 287.007 187.039 286.145 187.039C285.282 187.039 284.582 187.619 284.582 188.334C284.582 189.049 285.282 189.628 286.145 189.628Z" fill="#EFFBFA"/>
<path d="M286.77 187.842C287.632 187.842 288.332 187.263 288.332 186.548C288.332 185.833 287.632 185.253 286.77 185.253C285.907 185.253 285.207 185.833 285.207 186.548C285.207 187.263 285.907 187.842 286.77 187.842Z" fill="#EFFBFA"/>
<path d="M288.633 189.628C289.496 189.628 290.196 189.049 290.196 188.334C290.196 187.619 289.496 187.039 288.633 187.039C287.77 187.039 287.071 187.619 287.071 188.334C287.071 189.049 287.77 189.628 288.633 189.628Z" fill="#EFFBFA"/>
<path d="M289.28 187.842C290.143 187.842 290.843 187.263 290.843 186.548C290.843 185.833 290.143 185.253 289.28 185.253C288.418 185.253 287.718 185.833 287.718 186.548C287.718 187.263 288.418 187.842 289.28 187.842Z" fill="#EFFBFA"/>
<path d="M291.323 189.148C292.186 189.148 292.886 188.568 292.886 187.853C292.886 187.138 292.186 186.559 291.323 186.559C290.46 186.559 289.761 187.138 289.761 187.853C289.761 188.568 290.46 189.148 291.323 189.148Z" fill="#EFFBFA"/>
<path d="M293.511 189.148C294.374 189.148 295.073 188.568 295.073 187.853C295.073 187.138 294.374 186.559 293.511 186.559C292.648 186.559 291.948 187.138 291.948 187.853C291.948 188.568 292.648 189.148 293.511 189.148Z" fill="#EFFBFA"/>
<path d="M292.417 187.039C293.28 187.039 293.979 186.459 293.979 185.744C293.979 185.029 293.28 184.449 292.417 184.449C291.554 184.449 290.854 185.029 290.854 185.744C290.854 186.459 291.554 187.039 292.417 187.039Z" fill="#EFFBFA"/>
<path d="M290.698 185.744C291.561 185.744 292.26 185.289 292.26 184.729C292.26 184.168 291.561 183.713 290.698 183.713C289.835 183.713 289.135 184.168 289.135 184.729C289.135 185.289 289.835 185.744 290.698 185.744Z" fill="#EFFBFA"/>
<g opacity="0.26">
<mask id="mask1_19_34248" style="mask-type:luminance" maskUnits="userSpaceOnUse" x="268" y="173" width="41" height="41">
<path d="M308.5 193.5C308.5 204.538 299.549 213.5 288.5 213.5C277.462 213.5 268.5 204.549 268.5 193.5C268.5 182.451 277.451 173.5 288.5 173.5C299.549 173.5 308.5 182.451 308.5 193.5Z" fill="white"/>
</mask>
<g mask="url(#mask1_19_34248)">
<path d="M288.868 197.206C304.451 197.206 317.083 186.842 317.083 174.058C317.083 161.275 304.451 150.911 288.868 150.911C273.286 150.911 260.654 161.275 260.654 174.058C260.654 186.842 273.286 197.206 288.868 197.206Z" fill="white"/>
</g>
</g>
<path d="M337.272 191.7C336.192 191.7 335.332 191.467 334.692 191C334.052 190.52 333.592 189.867 333.312 189.04C333.032 188.2 332.892 187.24 332.892 186.16C332.892 185 333.018 184.04 333.272 183.28C333.538 182.507 333.912 181.907 334.392 181.48C334.872 181.04 335.438 180.733 336.092 180.56C336.758 180.373 337.485 180.28 338.272 180.28C339.472 180.28 340.432 180.447 341.152 180.78C341.872 181.113 342.392 181.587 342.712 182.2C343.045 182.813 343.212 183.533 343.212 184.36V191.5H340.212V184.6C340.212 183.973 340.058 183.5 339.752 183.18C339.458 182.847 338.965 182.68 338.272 182.68C337.805 182.68 337.392 182.78 337.032 182.98C336.685 183.167 336.412 183.507 336.212 184C336.025 184.493 335.932 185.2 335.932 186.12C335.932 186.747 335.992 187.3 336.112 187.78C336.232 188.26 336.425 188.633 336.692 188.9C336.972 189.167 337.345 189.3 337.812 189.3C337.958 189.3 338.098 189.293 338.232 189.28C338.378 189.253 338.505 189.227 338.612 189.2L338.892 191.44C338.678 191.533 338.418 191.6 338.112 191.64C337.818 191.68 337.538 191.7 337.272 191.7ZM336.753 179.04V178.04C336.94 177.987 337.146 177.913 337.373 177.82C337.6 177.727 337.8 177.6 337.973 177.44C338.146 177.28 338.233 177.08 338.233 176.84C338.233 176.653 338.18 176.507 338.073 176.4C337.966 176.293 337.833 176.24 337.673 176.24C337.566 176.24 337.453 176.26 337.333 176.3C337.213 176.34 337.106 176.38 337.013 176.42L336.633 175.08C336.9 174.853 337.233 174.707 337.633 174.64C338.02 174.56 338.346 174.52 338.613 174.52C339.213 174.52 339.686 174.66 340.033 174.94C340.366 175.22 340.533 175.633 340.533 176.18C340.533 176.473 340.46 176.747 340.313 177C340.153 177.253 339.913 177.46 339.593 177.62L339.513 177.1H343.293V179.04H336.753ZM348.907 191.5V184.26C348.907 183.7 348.774 183.293 348.507 183.04C348.254 182.787 347.834 182.66 347.247 182.66C346.807 182.66 346.401 182.72 346.027 182.84C345.667 182.96 345.327 183.107 345.007 183.28V180.88C345.301 180.747 345.714 180.613 346.247 180.48C346.781 180.347 347.407 180.28 348.127 180.28C348.861 180.28 349.507 180.387 350.067 180.6C350.641 180.813 351.087 181.173 351.407 181.68C351.741 182.173 351.907 182.853 351.907 183.72V191.5H348.907ZM358.439 191.7C357.625 191.7 356.939 191.547 356.379 191.24C355.832 190.92 355.412 190.447 355.119 189.82C354.839 189.193 354.699 188.427 354.699 187.52V180.54H357.699V187C357.699 187.733 357.845 188.267 358.139 188.6C358.432 188.933 358.859 189.1 359.419 189.1C360.125 189.1 360.672 188.833 361.059 188.3C361.445 187.753 361.639 186.913 361.639 185.78V180.54H364.639V191.5H362.359L362.039 189.82H361.859C361.632 190.353 361.239 190.8 360.679 191.16C360.132 191.52 359.385 191.7 358.439 191.7ZM367.809 191.5V180.54H370.769V184.64H370.849L374.249 180.54H377.549V180.64L370.769 188.16V191.5H367.809ZM374.509 191.5V187.88C374.509 187.173 374.302 186.667 373.889 186.36C373.489 186.04 372.902 185.88 372.129 185.88L373.889 183.8C374.689 183.8 375.355 183.96 375.889 184.28C376.422 184.6 376.822 185.033 377.089 185.58C377.369 186.113 377.509 186.727 377.509 187.42V191.5H374.509ZM386.31 191.5V184.38C386.31 183.74 386.137 183.28 385.79 183C385.443 182.72 384.91 182.58 384.19 182.58C383.497 182.58 382.817 182.687 382.15 182.9C381.497 183.1 380.93 183.34 380.45 183.62V181.14C380.837 180.953 381.383 180.767 382.09 180.58C382.797 180.38 383.617 180.28 384.55 180.28C385.23 180.28 385.85 180.353 386.41 180.5C386.983 180.633 387.483 180.867 387.91 181.2C388.337 181.52 388.663 181.953 388.89 182.5C389.13 183.033 389.25 183.7 389.25 184.5V191.5H386.31ZM383.03 191.7C381.883 191.7 380.997 191.427 380.37 190.88C379.757 190.333 379.45 189.567 379.45 188.58C379.45 187.513 379.83 186.66 380.59 186.02C381.363 185.38 382.577 184.993 384.23 184.86L386.79 184.66V186.82L384.57 187.04C383.77 187.12 383.21 187.28 382.89 187.52C382.583 187.76 382.43 188.08 382.43 188.48C382.43 188.88 382.557 189.18 382.81 189.38C383.077 189.58 383.417 189.68 383.83 189.68C383.99 189.68 384.15 189.667 384.31 189.64C384.47 189.6 384.617 189.56 384.75 189.52L385.01 191.4C384.757 191.493 384.457 191.567 384.11 191.62C383.763 191.673 383.403 191.7 383.03 191.7ZM386.143 179.02C385.516 179.02 385.023 178.927 384.663 178.74C384.303 178.553 384.049 178.32 383.903 178.04C383.743 177.747 383.663 177.44 383.663 177.12C383.663 176.893 383.696 176.653 383.763 176.4C383.829 176.133 383.929 175.887 384.063 175.66L386.243 175.94C386.216 176.033 386.196 176.133 386.183 176.24C386.156 176.333 386.143 176.42 386.143 176.5C386.143 176.687 386.203 176.833 386.323 176.94C386.429 177.033 386.616 177.08 386.883 177.08H391.183V179.02H386.143ZM393.923 191.5L390.743 180.54H393.763L396.183 189.08H396.303C396.516 189.08 396.716 189.02 396.903 188.9C397.089 188.78 397.249 188.62 397.383 188.42C397.649 188.047 397.849 187.607 397.983 187.1C398.116 186.58 398.183 186.067 398.183 185.56C398.183 184.667 398.009 183.98 397.663 183.5C397.329 183.02 396.863 182.78 396.263 182.78C396.143 182.78 396.029 182.787 395.923 182.8C395.829 182.813 395.743 182.84 395.663 182.88L395.103 180.58C395.409 180.487 395.696 180.433 395.963 180.42C396.243 180.393 396.469 180.38 396.643 180.38C397.349 180.38 397.963 180.473 398.483 180.66C399.003 180.847 399.449 181.127 399.823 181.5C400.289 181.953 400.636 182.52 400.863 183.2C401.103 183.88 401.223 184.647 401.223 185.5C401.223 186.58 401.049 187.527 400.703 188.34C400.369 189.14 399.963 189.773 399.483 190.24C399.083 190.627 398.576 190.933 397.963 191.16C397.363 191.387 396.536 191.5 395.483 191.5H393.923Z" fill="white"/>
<path d="M320.129 210.5V208.22C320.129 207.716 320.241 207.352 320.465 207.128C320.689 206.896 320.973 206.736 321.317 206.648L321.329 206.612L320.009 206.108V205.712C320.009 205.384 320.117 205.076 320.333 204.788C320.549 204.492 320.857 204.256 321.257 204.08C321.665 203.896 322.149 203.804 322.709 203.804C323.197 203.804 323.649 203.884 324.065 204.044C324.481 204.196 324.813 204.44 325.061 204.776C325.317 205.104 325.445 205.536 325.445 206.072V210.5H324.377V206.18C324.377 205.644 324.213 205.264 323.885 205.04C323.565 204.808 323.169 204.692 322.697 204.692C322.209 204.692 321.821 204.796 321.533 205.004C321.245 205.204 321.101 205.46 321.101 205.772L322.397 206.42L322.301 206.996C322.005 206.996 321.745 207.096 321.521 207.296C321.305 207.488 321.197 207.796 321.197 208.22V210.5H320.129ZM324.469 203.168C324.069 203.168 323.753 203.076 323.521 202.892C323.289 202.7 323.173 202.432 323.173 202.088C323.173 201.736 323.289 201.468 323.521 201.284C323.753 201.1 324.069 201.008 324.469 201.008C324.869 201.008 325.189 201.1 325.429 201.284C325.669 201.468 325.789 201.736 325.789 202.088C325.789 202.432 325.669 202.7 325.429 202.892C325.189 203.076 324.869 203.168 324.469 203.168ZM324.469 202.604C324.661 202.604 324.809 202.556 324.913 202.46C325.009 202.364 325.057 202.24 325.057 202.088C325.057 201.928 325.009 201.804 324.913 201.716C324.809 201.62 324.661 201.572 324.469 201.572C324.285 201.572 324.145 201.62 324.049 201.716C323.945 201.804 323.893 201.928 323.893 202.088C323.893 202.24 323.945 202.364 324.049 202.46C324.145 202.556 324.285 202.604 324.469 202.604ZM329.244 210.5V205.832C329.244 205.44 329.152 205.152 328.968 204.968C328.792 204.784 328.492 204.692 328.068 204.692C327.78 204.692 327.508 204.732 327.252 204.812C327.004 204.884 326.764 204.988 326.532 205.124V204.164C326.692 204.084 326.92 204.004 327.216 203.924C327.512 203.844 327.864 203.804 328.272 203.804C328.688 203.804 329.048 203.864 329.352 203.984C329.656 204.104 329.892 204.304 330.06 204.584C330.228 204.856 330.312 205.22 330.312 205.676V210.5H329.244ZM332.607 205.124V202.976C332.607 202.672 332.635 202.428 332.691 202.244C332.747 202.052 332.823 201.896 332.919 201.776C333.015 201.656 333.119 201.556 333.231 201.476L333.219 201.428H331.131L331.407 200.588H334.791V201.428C334.495 201.428 334.235 201.524 334.011 201.716C333.787 201.908 333.675 202.26 333.675 202.772V205.124H332.607ZM333.915 210.62C333.699 210.62 333.491 210.584 333.291 210.512C333.091 210.44 332.927 210.312 332.799 210.128C332.671 209.944 332.607 209.688 332.607 209.36V203.924H333.675V209.228C333.675 209.412 333.715 209.544 333.795 209.624C333.875 209.704 334.003 209.744 334.179 209.744C334.251 209.744 334.327 209.736 334.407 209.72C334.487 209.704 334.563 209.684 334.635 209.66L334.779 210.44C334.627 210.512 334.479 210.56 334.335 210.584C334.191 210.608 334.051 210.62 333.915 210.62ZM337.634 210.62C337.162 210.62 336.722 210.576 336.314 210.488C335.914 210.392 335.574 210.28 335.294 210.152L335.606 209.288C335.774 209.352 335.966 209.42 336.182 209.492C336.398 209.564 336.63 209.624 336.878 209.672C337.134 209.712 337.394 209.732 337.658 209.732C338.082 209.732 338.434 209.652 338.714 209.492C338.994 209.332 339.134 209.1 339.134 208.796C339.134 208.612 339.082 208.456 338.978 208.328C338.882 208.192 338.73 208.068 338.522 207.956C338.314 207.844 338.046 207.736 337.718 207.632C337.214 207.472 336.786 207.304 336.434 207.128C336.09 206.944 335.826 206.728 335.642 206.48C335.466 206.224 335.378 205.908 335.378 205.532C335.378 205.196 335.466 204.9 335.642 204.644C335.826 204.38 336.106 204.176 336.482 204.032C336.866 203.88 337.354 203.804 337.946 203.804C338.33 203.804 338.69 203.84 339.026 203.912C339.37 203.976 339.638 204.068 339.83 204.188V205.088C339.694 205.024 339.522 204.96 339.314 204.896C339.114 204.832 338.894 204.78 338.654 204.74C338.414 204.7 338.166 204.68 337.91 204.68C337.374 204.68 336.994 204.764 336.77 204.932C336.554 205.092 336.446 205.276 336.446 205.484C336.446 205.66 336.494 205.808 336.59 205.928C336.694 206.048 336.866 206.164 337.106 206.276C337.354 206.388 337.686 206.516 338.102 206.66C338.486 206.788 338.838 206.936 339.158 207.104C339.478 207.272 339.73 207.484 339.914 207.74C340.106 207.988 340.202 208.308 340.202 208.7C340.202 209.036 340.118 209.352 339.95 209.648C339.79 209.936 339.522 210.172 339.146 210.356C338.77 210.532 338.266 210.62 337.634 210.62ZM341.758 205.479V204.277H342.959V205.479H341.758ZM341.758 210.5V209.299H342.959V210.5H341.758ZM344.512 206.264C344.512 205.248 344.615 204.432 344.822 203.814C345.033 203.193 345.344 202.715 345.754 202.379C346.168 202.043 346.688 201.875 347.312 201.875C347.773 201.875 348.178 201.969 348.525 202.156C348.873 202.34 349.16 202.607 349.387 202.959C349.613 203.307 349.791 203.732 349.92 204.236C350.049 204.736 350.113 205.412 350.113 206.264C350.113 207.271 350.01 208.086 349.803 208.707C349.596 209.324 349.285 209.803 348.871 210.143C348.461 210.479 347.941 210.646 347.312 210.646C346.484 210.646 345.834 210.35 345.361 209.756C344.795 209.041 344.512 207.877 344.512 206.264ZM345.596 206.264C345.596 207.674 345.76 208.613 346.088 209.082C346.42 209.547 346.828 209.779 347.312 209.779C347.797 209.779 348.203 209.545 348.531 209.076C348.863 208.607 349.029 207.67 349.029 206.264C349.029 204.85 348.863 203.91 348.531 203.445C348.203 202.98 347.793 202.748 347.301 202.748C346.816 202.748 346.43 202.953 346.141 203.363C345.777 203.887 345.596 204.854 345.596 206.264ZM351.783 210.5V209.299H352.984V210.5H351.783ZM360.074 209.486V210.5H354.396C354.389 210.246 354.43 210.002 354.52 209.768C354.664 209.381 354.895 209 355.211 208.625C355.531 208.25 355.992 207.816 356.594 207.324C357.527 206.559 358.158 205.953 358.486 205.508C358.814 205.059 358.979 204.635 358.979 204.236C358.979 203.818 358.828 203.467 358.527 203.182C358.23 202.893 357.842 202.748 357.361 202.748C356.854 202.748 356.447 202.9 356.143 203.205C355.838 203.51 355.684 203.932 355.68 204.471L354.596 204.359C354.67 203.551 354.949 202.936 355.434 202.514C355.918 202.088 356.568 201.875 357.385 201.875C358.209 201.875 358.861 202.104 359.342 202.561C359.822 203.018 360.062 203.584 360.062 204.26C360.062 204.604 359.992 204.941 359.852 205.273C359.711 205.605 359.477 205.955 359.148 206.322C358.824 206.689 358.283 207.193 357.525 207.834C356.893 208.365 356.486 208.727 356.307 208.918C356.127 209.105 355.979 209.295 355.861 209.486H360.074ZM361.217 208.232L362.271 208.092C362.393 208.689 362.598 209.121 362.887 209.387C363.18 209.648 363.535 209.779 363.953 209.779C364.449 209.779 364.867 209.607 365.207 209.264C365.551 208.92 365.723 208.494 365.723 207.986C365.723 207.502 365.564 207.104 365.248 206.791C364.932 206.475 364.529 206.316 364.041 206.316C363.842 206.316 363.594 206.355 363.297 206.434L363.414 205.508C363.484 205.516 363.541 205.52 363.584 205.52C364.033 205.52 364.438 205.402 364.797 205.168C365.156 204.934 365.336 204.572 365.336 204.084C365.336 203.697 365.205 203.377 364.943 203.123C364.682 202.869 364.344 202.742 363.93 202.742C363.52 202.742 363.178 202.871 362.904 203.129C362.631 203.387 362.455 203.773 362.377 204.289L361.322 204.102C361.451 203.395 361.744 202.848 362.201 202.461C362.658 202.07 363.227 201.875 363.906 201.875C364.375 201.875 364.807 201.977 365.201 202.18C365.596 202.379 365.896 202.652 366.104 203C366.314 203.348 366.42 203.717 366.42 204.107C366.42 204.479 366.32 204.816 366.121 205.121C365.922 205.426 365.627 205.668 365.236 205.848C365.744 205.965 366.139 206.209 366.42 206.58C366.701 206.947 366.842 207.408 366.842 207.963C366.842 208.713 366.568 209.35 366.021 209.873C365.475 210.393 364.783 210.652 363.947 210.652C363.193 210.652 362.566 210.428 362.066 209.979C361.57 209.529 361.287 208.947 361.217 208.232ZM371.271 210.5V208.443H367.545V207.477L371.465 201.91H372.326V207.477H373.486V208.443H372.326V210.5H371.271ZM371.271 207.477V203.604L368.582 207.477H371.271ZM377.951 210.5V208.443H374.225V207.477L378.145 201.91H379.006V207.477H380.166V208.443H379.006V210.5H377.951ZM377.951 207.477V203.604L375.262 207.477H377.951ZM381.256 208.232L382.311 208.092C382.432 208.689 382.637 209.121 382.926 209.387C383.219 209.648 383.574 209.779 383.992 209.779C384.488 209.779 384.906 209.607 385.246 209.264C385.59 208.92 385.762 208.494 385.762 207.986C385.762 207.502 385.604 207.104 385.287 206.791C384.971 206.475 384.568 206.316 384.08 206.316C383.881 206.316 383.633 206.355 383.336 206.434L383.453 205.508C383.523 205.516 383.58 205.52 383.623 205.52C384.072 205.52 384.477 205.402 384.836 205.168C385.195 204.934 385.375 204.572 385.375 204.084C385.375 203.697 385.244 203.377 384.982 203.123C384.721 202.869 384.383 202.742 383.969 202.742C383.559 202.742 383.217 202.871 382.943 203.129C382.67 203.387 382.494 203.773 382.416 204.289L381.361 204.102C381.49 203.395 381.783 202.848 382.24 202.461C382.697 202.07 383.266 201.875 383.945 201.875C384.414 201.875 384.846 201.977 385.24 202.18C385.635 202.379 385.936 202.652 386.143 203C386.354 203.348 386.459 203.717 386.459 204.107C386.459 204.479 386.359 204.816 386.16 205.121C385.961 205.426 385.666 205.668 385.275 205.848C385.783 205.965 386.178 206.209 386.459 206.58C386.74 206.947 386.881 207.408 386.881 207.963C386.881 208.713 386.607 209.35 386.061 209.873C385.514 210.393 384.822 210.652 383.986 210.652C383.232 210.652 382.605 210.428 382.105 209.979C381.609 209.529 381.326 208.947 381.256 208.232ZM391.65 210.5V201.91H394.873C395.529 201.91 396.055 201.998 396.449 202.174C396.848 202.346 397.158 202.613 397.381 202.977C397.607 203.336 397.721 203.713 397.721 204.107C397.721 204.475 397.621 204.82 397.422 205.145C397.223 205.469 396.922 205.73 396.52 205.93C397.039 206.082 397.438 206.342 397.715 206.709C397.996 207.076 398.137 207.51 398.137 208.01C398.137 208.412 398.051 208.787 397.879 209.135C397.711 209.479 397.502 209.744 397.252 209.932C397.002 210.119 396.688 210.262 396.309 210.359C395.934 210.453 395.473 210.5 394.926 210.5H391.65ZM392.787 205.52H394.645C395.148 205.52 395.51 205.486 395.729 205.42C396.018 205.334 396.234 205.191 396.379 204.992C396.527 204.793 396.602 204.543 396.602 204.242C396.602 203.957 396.533 203.707 396.396 203.492C396.26 203.273 396.064 203.125 395.811 203.047C395.557 202.965 395.121 202.924 394.504 202.924H392.787V205.52ZM392.787 209.486H394.926C395.293 209.486 395.551 209.473 395.699 209.445C395.961 209.398 396.18 209.32 396.355 209.211C396.531 209.102 396.676 208.943 396.789 208.736C396.902 208.525 396.959 208.283 396.959 208.01C396.959 207.689 396.877 207.412 396.713 207.178C396.549 206.939 396.32 206.773 396.027 206.68C395.738 206.582 395.32 206.533 394.773 206.533H392.787V209.486ZM401.887 210.5V202.924H399.057V201.91H405.865V202.924H403.023V210.5H401.887ZM413.166 207.488L414.303 207.775C414.064 208.709 413.635 209.422 413.014 209.914C412.396 210.402 411.641 210.646 410.746 210.646C409.82 210.646 409.066 210.459 408.484 210.084C407.906 209.705 407.465 209.158 407.16 208.443C406.859 207.729 406.709 206.961 406.709 206.141C406.709 205.246 406.879 204.467 407.219 203.803C407.562 203.135 408.049 202.629 408.678 202.285C409.311 201.938 410.006 201.764 410.764 201.764C411.623 201.764 412.346 201.982 412.932 202.42C413.518 202.857 413.926 203.473 414.156 204.266L413.037 204.529C412.838 203.904 412.549 203.449 412.17 203.164C411.791 202.879 411.314 202.736 410.74 202.736C410.08 202.736 409.527 202.895 409.082 203.211C408.641 203.527 408.33 203.953 408.15 204.488C407.971 205.02 407.881 205.568 407.881 206.135C407.881 206.865 407.986 207.504 408.197 208.051C408.412 208.594 408.744 209 409.193 209.27C409.643 209.539 410.129 209.674 410.652 209.674C411.289 209.674 411.828 209.49 412.27 209.123C412.711 208.756 413.01 208.211 413.166 207.488Z" fill="#D6D6D6"/>
</g>
<defs>
<filter id="filter0_d_19_34248" x="303.323" y="86.9775" width="82.9534" height="22.2021" filterUnits="userSpaceOnUse" color-interpolation-filters="sRGB">
<feFlood flood-opacity="0" result="BackgroundImageFix"/>
<feColorMatrix in="SourceAlpha" type="matrix" values="0 0 0 0 0 0 0 0 0 0 0 0 0 0 0 0 0 0 127 0" result="hardAlpha"/>
<feOffset dy="2"/>
<feGaussianBlur stdDeviation="2"/>
<feComposite in2="hardAlpha" operator="out"/>
<feColorMatrix type="matrix" values="0 0 0 0 0 0 0 0 0 0 0 0 0 0 0 0 0 0 0.3 0"/>
<feBlend mode="normal" in2="BackgroundImageFix" result="effect1_dropShadow_19_34248"/>
<feBlend mode="normal" in="SourceGraphic" in2="effect1_dropShadow_19_34248" result="shape"/>
</filter>
<linearGradient id="paint0_linear_19_34248" x1="61.0034" y1="213.491" x2="61.0034" y2="173.502" gradientUnits="userSpaceOnUse">
<stop stop-color="#F5AC04"/>
<stop offset="1" stop-color="#FEFAA7"/>
</linearGradient>
<linearGradient id="paint1_linear_19_34248" x1="61.0034" y1="213.491" x2="61.0034" y2="173.502" gradientUnits="userSpaceOnUse">
<stop stop-color="#FEC627"/>
<stop offset="1" stop-color="#FFFED0"/>
</linearGradient>
<linearGradient id="paint2_linear_19_34248" x1="61.0034" y1="211.093" x2="61.0034" y2="175.899" gradientUnits="userSpaceOnUse">
<stop stop-color="#FFDE02"/>
<stop offset="1" stop-color="#FAD66F"/>
</linearGradient>
<linearGradient id="paint3_linear_19_34248" x1="61.0036" y1="209.629" x2="61.0036" y2="177.364" gradientUnits="userSpaceOnUse">
<stop stop-color="#F5B502"/>
<stop offset="1" stop-color="#FDE768"/>
</linearGradient>
<linearGradient id="paint4_linear_19_34248" x1="61.0036" y1="209.629" x2="61.0036" y2="177.364" gradientUnits="userSpaceOnUse">
<stop stop-color="#F5C218"/>
<stop offset="0.257" stop-color="#FEE76A" stop-opacity="0"/>
</linearGradient>
<linearGradient id="paint5_linear_19_34248" x1="288.5" y1="213.272" x2="288.5" y2="173.727" gradientUnits="userSpaceOnUse">
<stop stop-color="#98B8C0"/>
<stop offset="1" stop-color="#ECF6F4"/>
</linearGradient>
<linearGradient id="paint6_linear_19_34248" x1="288.5" y1="213.496" x2="288.5" y2="173.504" gradientUnits="userSpaceOnUse">
<stop stop-color="#B9D3D8"/>
<stop offset="0.2216" stop-color="#C2D9DD"/>
<stop offset="0.5898" stop-color="#DCE9EB"/>
<stop offset="0.9944" stop-color="white"/>
</linearGradient>
<linearGradient id="paint7_linear_19_34248" x1="288.5" y1="211.098" x2="288.5" y2="175.901" gradientUnits="userSpaceOnUse">
<stop stop-color="#C9E2E1"/>
<stop offset="1" stop-color="#D1E3E4"/>
</linearGradient>
<linearGradient id="paint8_linear_19_34248" x1="288.5" y1="209.633" x2="288.5" y2="177.365" gradientUnits="userSpaceOnUse">
<stop stop-color="#9AB9C2"/>
<stop offset="1" stop-color="#DCEAEC"/>
</linearGradient>
<linearGradient id="paint9_linear_19_34248" x1="288.5" y1="209.633" x2="288.5" y2="177.365" gradientUnits="userSpaceOnUse">
<stop stop-color="#A7C6D0"/>
<stop offset="0.257" stop-color="white" stop-opacity="0"/>
</linearGradient>
<clipPath id="clip0_19_34248">
<rect width="93" height="35" fill="white" transform="translate(78.5 79)"/>
</clipPath>
<clipPath id="clip1_19_34248">
<rect width="14" height="14" fill="white" transform="translate(78.5 79)"/>
</clipPath>
<clipPath id="clip2_19_34248">
<rect width="167.997" height="40" fill="white" transform="translate(41.0015 173.5)"/>
</clipPath>
<clipPath id="clip3_19_34248">
<rect width="153" height="40" fill="white" transform="translate(268.5 173.5)"/>
</clipPath>
</defs>
</svg>
