<svg width="460" height="290" viewBox="0 0 460 290" fill="none" xmlns="http://www.w3.org/2000/svg">
<rect width="460" height="290" rx="10" fill="#0D131C"/>
<rect x="25.5" y="58.5" width="199" height="76" rx="9.5" fill="#161F2C"/>
<rect x="33" y="66" width="35" height="26.5" rx="10" fill="#383C45"/>
<path d="M38.4543 74.04H40.3893L44.1243 82.62H44.1693L47.8893 74.04H49.8243V84.75H48.1893V77.1H48.1293L44.8443 84.75H43.4343L40.1493 77.1H40.0893V84.75H38.4543V74.04ZM52.9059 73.89C53.2209 73.89 53.4909 73.98 53.7009 74.19C53.9109 74.385 54.0159 74.64 54.0159 74.955C54.0159 75.27 53.8959 75.525 53.6859 75.735C53.4759 75.93 53.2059 76.035 52.9059 76.035C52.5909 76.035 52.3359 75.93 52.1259 75.735C51.9159 75.525 51.8109 75.255 51.8109 74.955C51.8109 74.64 51.9159 74.385 52.1259 74.19C52.3359 73.98 52.5909 73.89 52.9059 73.89ZM52.1109 76.995H53.7009V84.75H52.1109V76.995ZM59.7831 76.785C61.7031 76.785 62.6781 77.835 62.6781 79.965V84.75H61.0881V80.1C61.0881 78.78 60.4731 78.12 59.2731 78.12C58.8231 78.12 58.4181 78.27 58.0881 78.6C57.7281 78.96 57.5031 79.455 57.4431 80.085V84.75H55.8531V76.995H57.4431V77.955C57.7431 77.565 58.0881 77.28 58.4781 77.085C58.8681 76.875 59.3031 76.785 59.7831 76.785Z" fill="#7C8499"/>
<rect x="33" y="100.5" width="35" height="26.5" rx="10" fill="#383C45"/>
<path d="M36.5646 108.54H38.4996L42.2346 117.12H42.2796L45.9996 108.54H47.9346V119.25H46.2996V111.6H46.2396L42.9546 119.25H41.5446L38.2596 111.6H38.1996V119.25H36.5646V108.54ZM53.3862 111.285C54.5262 111.285 55.3662 111.57 55.9062 112.14C56.3712 112.635 56.6112 113.355 56.6112 114.3V119.25H55.1412V118.155C54.8412 118.545 54.4662 118.86 54.0162 119.085C53.5062 119.325 52.9062 119.46 52.2162 119.46C51.4062 119.46 50.7762 119.25 50.3262 118.845C49.8312 118.44 49.5912 117.915 49.5912 117.27C49.5912 116.4 49.9362 115.725 50.6262 115.26C51.2562 114.81 52.1562 114.585 53.2962 114.555L55.0362 114.51V114.195C55.0362 113.115 54.4512 112.575 53.2812 112.575C52.7862 112.575 52.3812 112.665 52.0812 112.845C51.7212 113.055 51.4962 113.37 51.4062 113.805L49.8312 113.67C49.9962 112.83 50.4162 112.2 51.0762 111.81C51.6462 111.45 52.4262 111.285 53.3862 111.285ZM55.0362 115.665L53.4012 115.71C51.9462 115.74 51.2262 116.25 51.2262 117.21C51.2262 117.51 51.3462 117.75 51.6012 117.945C51.8412 118.14 52.1712 118.245 52.5762 118.245C53.2512 118.245 53.8212 118.035 54.3012 117.63C54.7812 117.225 55.0362 116.715 55.0362 116.115V115.665ZM57.9513 111.495H59.8113L61.5213 113.955L63.2163 111.495H65.0763L62.3913 115.125L65.4063 119.25H63.5463L61.5213 116.295L59.4813 119.25H57.6063L60.6363 115.125L57.9513 111.495Z" fill="#7C8499"/>
<g clip-path="url(#clip0_19_32123)">
<g clip-path="url(#clip1_19_32123)">
<path d="M92.2898 87.6933C91.3549 91.4434 87.5567 93.7256 83.8062 92.7904C80.0573 91.8555 77.7751 88.0571 78.7104 84.3074C79.6449 80.5569 83.4431 78.2746 87.1924 79.2095C90.9426 80.1444 93.2247 83.9432 92.2897 87.6934L92.2898 87.6933H92.2898Z" fill="#F7931A"/>
<path d="M88.5867 85.0025C88.7261 84.0709 88.0168 83.5702 87.047 83.2361L87.3616 81.9743L86.5935 81.7829L86.2872 83.0115C86.0853 82.9611 85.8779 82.9137 85.6718 82.8666L85.9803 81.6299L85.2126 81.4385L84.8979 82.6999C84.7308 82.6619 84.5666 82.6243 84.4074 82.5847L84.4083 82.5807L83.349 82.3162L83.1447 83.1366C83.1447 83.1366 83.7146 83.2672 83.7026 83.2753C84.0136 83.3529 84.0699 83.5588 84.0605 83.722L83.7021 85.1596C83.7236 85.165 83.7513 85.1729 83.782 85.1852C83.7564 85.1788 83.7291 85.1719 83.7008 85.1651L83.1985 87.1789C83.1605 87.2734 83.064 87.4152 82.8465 87.3614C82.8542 87.3725 82.2882 87.2221 82.2882 87.2221L81.9069 88.1013L82.9065 88.3505C83.0924 88.3972 83.2747 88.446 83.4541 88.4918L83.1363 89.7682L83.9035 89.9596L84.2183 88.6968C84.4279 88.7537 84.6313 88.8062 84.8304 88.8556L84.5167 90.1125L85.2849 90.3039L85.6027 89.0299C86.9125 89.2778 87.8974 89.1779 88.312 87.9931C88.646 87.0393 88.2953 86.4891 87.6063 86.1303C88.1082 86.0146 88.4862 85.6845 88.587 85.0026L88.5868 85.0024L88.5867 85.0025ZM86.8317 87.4634C86.5943 88.4173 84.9883 87.9017 84.4676 87.7724L84.8894 86.0814C85.4101 86.2114 87.0798 86.4686 86.8318 87.4634H86.8317ZM87.0693 84.9886C86.8527 85.8563 85.516 85.4155 85.0824 85.3074L85.4648 83.7738C85.8985 83.8819 87.2949 84.0836 87.0693 84.9886H87.0693Z" fill="white"/>
</g>
<path d="M100.825 81.9375C101.796 81.9375 102.555 82.2839 103.102 82.9766C103.753 83.7969 104.079 85.1572 104.079 87.0576C104.079 88.9535 103.751 90.3161 103.095 91.1455C102.552 91.8291 101.796 92.1709 100.825 92.1709C99.8499 92.1709 99.0638 91.7972 98.4668 91.0498C97.8698 90.2979 97.5713 88.9603 97.5713 87.0371C97.5713 85.1504 97.8994 83.7923 98.5557 82.9629C99.098 82.2793 99.8545 81.9375 100.825 81.9375ZM100.825 83.5303C100.593 83.5303 100.385 83.6055 100.203 83.7559C100.021 83.9017 99.8796 84.166 99.7793 84.5488C99.6471 85.0456 99.5811 85.8818 99.5811 87.0576C99.5811 88.2334 99.6403 89.0423 99.7588 89.4844C99.8773 89.9219 100.025 90.2135 100.203 90.3594C100.385 90.5052 100.593 90.5781 100.825 90.5781C101.058 90.5781 101.265 90.5052 101.447 90.3594C101.63 90.209 101.771 89.9424 101.871 89.5596C102.003 89.0674 102.069 88.2334 102.069 87.0576C102.069 85.8818 102.01 85.0752 101.892 84.6377C101.773 84.1956 101.623 83.9017 101.44 83.7559C101.263 83.6055 101.058 83.5303 100.825 83.5303ZM105.781 92V90.0791H107.702V92H105.781ZM112.515 81.9375C113.485 81.9375 114.244 82.2839 114.791 82.9766C115.443 83.7969 115.769 85.1572 115.769 87.0576C115.769 88.9535 115.44 90.3161 114.784 91.1455C114.242 91.8291 113.485 92.1709 112.515 92.1709C111.539 92.1709 110.753 91.7972 110.156 91.0498C109.559 90.2979 109.261 88.9603 109.261 87.0371C109.261 85.1504 109.589 83.7923 110.245 82.9629C110.787 82.2793 111.544 81.9375 112.515 81.9375ZM112.515 83.5303C112.282 83.5303 112.075 83.6055 111.893 83.7559C111.71 83.9017 111.569 84.166 111.469 84.5488C111.337 85.0456 111.271 85.8818 111.271 87.0576C111.271 88.2334 111.33 89.0423 111.448 89.4844C111.567 89.9219 111.715 90.2135 111.893 90.3594C112.075 90.5052 112.282 90.5781 112.515 90.5781C112.747 90.5781 112.954 90.5052 113.137 90.3594C113.319 90.209 113.46 89.9424 113.561 89.5596C113.693 89.0674 113.759 88.2334 113.759 87.0576C113.759 85.8818 113.7 85.0752 113.581 84.6377C113.463 84.1956 113.312 83.9017 113.13 83.7559C112.952 83.6055 112.747 83.5303 112.515 83.5303ZM120.308 81.9375C121.278 81.9375 122.037 82.2839 122.584 82.9766C123.236 83.7969 123.562 85.1572 123.562 87.0576C123.562 88.9535 123.233 90.3161 122.577 91.1455C122.035 91.8291 121.278 92.1709 120.308 92.1709C119.332 92.1709 118.546 91.7972 117.949 91.0498C117.352 90.2979 117.054 88.9603 117.054 87.0371C117.054 85.1504 117.382 83.7923 118.038 82.9629C118.58 82.2793 119.337 81.9375 120.308 81.9375ZM120.308 83.5303C120.075 83.5303 119.868 83.6055 119.686 83.7559C119.503 83.9017 119.362 84.166 119.262 84.5488C119.13 85.0456 119.063 85.8818 119.063 87.0576C119.063 88.2334 119.123 89.0423 119.241 89.4844C119.36 89.9219 119.508 90.2135 119.686 90.3594C119.868 90.5052 120.075 90.5781 120.308 90.5781C120.54 90.5781 120.747 90.5052 120.93 90.3594C121.112 90.209 121.253 89.9424 121.354 89.5596C121.486 89.0674 121.552 88.2334 121.552 87.0576C121.552 85.8818 121.493 85.0752 121.374 84.6377C121.256 84.1956 121.105 83.9017 120.923 83.7559C120.745 83.6055 120.54 83.5303 120.308 83.5303ZM128.101 81.9375C129.071 81.9375 129.83 82.2839 130.377 82.9766C131.029 83.7969 131.354 85.1572 131.354 87.0576C131.354 88.9535 131.026 90.3161 130.37 91.1455C129.828 91.8291 129.071 92.1709 128.101 92.1709C127.125 92.1709 126.339 91.7972 125.742 91.0498C125.145 90.2979 124.847 88.9603 124.847 87.0371C124.847 85.1504 125.175 83.7923 125.831 82.9629C126.373 82.2793 127.13 81.9375 128.101 81.9375ZM128.101 83.5303C127.868 83.5303 127.661 83.6055 127.479 83.7559C127.296 83.9017 127.155 84.166 127.055 84.5488C126.923 85.0456 126.856 85.8818 126.856 87.0576C126.856 88.2334 126.916 89.0423 127.034 89.4844C127.153 89.9219 127.301 90.2135 127.479 90.3594C127.661 90.5052 127.868 90.5781 128.101 90.5781C128.333 90.5781 128.54 90.5052 128.723 90.3594C128.905 90.209 129.046 89.9424 129.146 89.5596C129.279 89.0674 129.345 88.2334 129.345 87.0576C129.345 85.8818 129.285 85.0752 129.167 84.6377C129.049 84.1956 128.898 83.9017 128.716 83.7559C128.538 83.6055 128.333 83.5303 128.101 83.5303ZM135.894 81.9375C136.864 81.9375 137.623 82.2839 138.17 82.9766C138.822 83.7969 139.147 85.1572 139.147 87.0576C139.147 88.9535 138.819 90.3161 138.163 91.1455C137.621 91.8291 136.864 92.1709 135.894 92.1709C134.918 92.1709 134.132 91.7972 133.535 91.0498C132.938 90.2979 132.64 88.9603 132.64 87.0371C132.64 85.1504 132.968 83.7923 133.624 82.9629C134.166 82.2793 134.923 81.9375 135.894 81.9375ZM135.894 83.5303C135.661 83.5303 135.454 83.6055 135.271 83.7559C135.089 83.9017 134.948 84.166 134.848 84.5488C134.715 85.0456 134.649 85.8818 134.649 87.0576C134.649 88.2334 134.709 89.0423 134.827 89.4844C134.946 89.9219 135.094 90.2135 135.271 90.3594C135.454 90.5052 135.661 90.5781 135.894 90.5781C136.126 90.5781 136.333 90.5052 136.516 90.3594C136.698 90.209 136.839 89.9424 136.939 89.5596C137.072 89.0674 137.138 88.2334 137.138 87.0576C137.138 85.8818 137.078 85.0752 136.96 84.6377C136.841 84.1956 136.691 83.9017 136.509 83.7559C136.331 83.6055 136.126 83.5303 135.894 83.5303ZM145.354 92H143.434V84.7607C142.732 85.417 141.905 85.9023 140.952 86.2168V84.4736C141.453 84.3096 141.998 83.9997 142.586 83.5439C143.174 83.0837 143.577 82.5482 143.796 81.9375H145.354V92ZM151.479 81.9375C152.45 81.9375 153.209 82.2839 153.756 82.9766C154.408 83.7969 154.733 85.1572 154.733 87.0576C154.733 88.9535 154.405 90.3161 153.749 91.1455C153.207 91.8291 152.45 92.1709 151.479 92.1709C150.504 92.1709 149.718 91.7972 149.121 91.0498C148.524 90.2979 148.226 88.9603 148.226 87.0371C148.226 85.1504 148.554 83.7923 149.21 82.9629C149.752 82.2793 150.509 81.9375 151.479 81.9375ZM151.479 83.5303C151.247 83.5303 151.04 83.6055 150.857 83.7559C150.675 83.9017 150.534 84.166 150.434 84.5488C150.301 85.0456 150.235 85.8818 150.235 87.0576C150.235 88.2334 150.295 89.0423 150.413 89.4844C150.532 89.9219 150.68 90.2135 150.857 90.3594C151.04 90.5052 151.247 90.5781 151.479 90.5781C151.712 90.5781 151.919 90.5052 152.102 90.3594C152.284 90.209 152.425 89.9424 152.525 89.5596C152.658 89.0674 152.724 88.2334 152.724 87.0576C152.724 85.8818 152.664 85.0752 152.546 84.6377C152.427 84.1956 152.277 83.9017 152.095 83.7559C151.917 83.6055 151.712 83.5303 151.479 83.5303ZM159.272 81.9375C160.243 81.9375 161.002 82.2839 161.549 82.9766C162.201 83.7969 162.526 85.1572 162.526 87.0576C162.526 88.9535 162.198 90.3161 161.542 91.1455C161 91.8291 160.243 92.1709 159.272 92.1709C158.297 92.1709 157.511 91.7972 156.914 91.0498C156.317 90.2979 156.019 88.9603 156.019 87.0371C156.019 85.1504 156.347 83.7923 157.003 82.9629C157.545 82.2793 158.302 81.9375 159.272 81.9375ZM159.272 83.5303C159.04 83.5303 158.833 83.6055 158.65 83.7559C158.468 83.9017 158.327 84.166 158.227 84.5488C158.094 85.0456 158.028 85.8818 158.028 87.0576C158.028 88.2334 158.088 89.0423 158.206 89.4844C158.325 89.9219 158.473 90.2135 158.65 90.3594C158.833 90.5052 159.04 90.5781 159.272 90.5781C159.505 90.5781 159.712 90.5052 159.895 90.3594C160.077 90.209 160.218 89.9424 160.318 89.5596C160.451 89.0674 160.517 88.2334 160.517 87.0576C160.517 85.8818 160.457 85.0752 160.339 84.6377C160.22 84.1956 160.07 83.9017 159.888 83.7559C159.71 83.6055 159.505 83.5303 159.272 83.5303ZM167.065 81.9375C168.036 81.9375 168.795 82.2839 169.342 82.9766C169.993 83.7969 170.319 85.1572 170.319 87.0576C170.319 88.9535 169.991 90.3161 169.335 91.1455C168.793 91.8291 168.036 92.1709 167.065 92.1709C166.09 92.1709 165.304 91.7972 164.707 91.0498C164.11 90.2979 163.812 88.9603 163.812 87.0371C163.812 85.1504 164.14 83.7923 164.796 82.9629C165.338 82.2793 166.095 81.9375 167.065 81.9375ZM167.065 83.5303C166.833 83.5303 166.626 83.6055 166.443 83.7559C166.261 83.9017 166.12 84.166 166.02 84.5488C165.887 85.0456 165.821 85.8818 165.821 87.0576C165.821 88.2334 165.881 89.0423 165.999 89.4844C166.118 89.9219 166.266 90.2135 166.443 90.3594C166.626 90.5052 166.833 90.5781 167.065 90.5781C167.298 90.5781 167.505 90.5052 167.688 90.3594C167.87 90.209 168.011 89.9424 168.111 89.5596C168.243 89.0674 168.31 88.2334 168.31 87.0576C168.31 85.8818 168.25 85.0752 168.132 84.6377C168.013 84.1956 167.863 83.9017 167.681 83.7559C167.503 83.6055 167.298 83.5303 167.065 83.5303Z" fill="white"/>
<path d="M99.7314 109.623V106.963C98.902 106.726 98.2926 106.368 97.9033 105.89C97.5182 105.408 97.3257 104.824 97.3257 104.138C97.3257 103.444 97.5436 102.862 97.9795 102.393C98.4196 101.919 99.0036 101.646 99.7314 101.574V100.945H100.652V101.574C101.325 101.654 101.86 101.885 102.258 102.266C102.656 102.642 102.91 103.148 103.02 103.783L101.414 103.992C101.316 103.493 101.062 103.154 100.652 102.977V105.458C101.667 105.734 102.359 106.091 102.728 106.531C103.096 106.967 103.28 107.528 103.28 108.213C103.28 108.979 103.047 109.625 102.582 110.149C102.12 110.674 101.477 110.996 100.652 111.114V112.301H99.7314V111.146C98.9993 111.057 98.4048 110.784 97.9478 110.327C97.4907 109.87 97.1987 109.225 97.0718 108.391L98.7285 108.213C98.7962 108.552 98.9232 108.844 99.1094 109.089C99.2956 109.335 99.5029 109.513 99.7314 109.623ZM99.7314 102.958C99.4818 103.042 99.2829 103.186 99.1348 103.389C98.9867 103.592 98.9126 103.817 98.9126 104.062C98.9126 104.286 98.9803 104.496 99.1157 104.69C99.2511 104.881 99.4564 105.035 99.7314 105.154V102.958ZM100.652 109.711C100.969 109.652 101.227 109.506 101.426 109.273C101.625 109.036 101.725 108.759 101.725 108.442C101.725 108.158 101.64 107.915 101.471 107.712C101.306 107.505 101.033 107.346 100.652 107.236V109.711ZM107.914 111V109.127H104.105V107.566L108.142 101.656H109.64V107.56H110.795V109.127H109.64V111H107.914ZM107.914 107.56V104.379L105.774 107.56H107.914ZM112.033 111V109.216H113.817V111H112.033ZM118.768 111V109.127H114.959V107.566L118.997 101.656H120.495V107.56H121.65V109.127H120.495V111H118.768ZM118.768 107.56V104.379L116.629 107.56H118.768ZM125.522 101.656C126.423 101.656 127.128 101.978 127.636 102.621C128.241 103.383 128.543 104.646 128.543 106.411C128.543 108.171 128.239 109.436 127.629 110.207C127.126 110.841 126.423 111.159 125.522 111.159C124.616 111.159 123.886 110.812 123.332 110.118C122.778 109.419 122.5 108.177 122.5 106.392C122.5 104.64 122.805 103.379 123.415 102.608C123.918 101.974 124.621 101.656 125.522 101.656ZM125.522 103.135C125.306 103.135 125.114 103.205 124.944 103.345C124.775 103.48 124.644 103.726 124.551 104.081C124.428 104.542 124.367 105.319 124.367 106.411C124.367 107.502 124.422 108.254 124.532 108.664C124.642 109.07 124.779 109.341 124.944 109.477C125.114 109.612 125.306 109.68 125.522 109.68C125.738 109.68 125.93 109.612 126.1 109.477C126.269 109.337 126.4 109.089 126.493 108.734C126.616 108.277 126.677 107.502 126.677 106.411C126.677 105.319 126.622 104.57 126.512 104.164C126.402 103.753 126.263 103.48 126.093 103.345C125.928 103.205 125.738 103.135 125.522 103.135ZM132.758 101.656C133.66 101.656 134.364 101.978 134.872 102.621C135.477 103.383 135.78 104.646 135.78 106.411C135.78 108.171 135.475 109.436 134.866 110.207C134.362 110.841 133.66 111.159 132.758 111.159C131.853 111.159 131.123 110.812 130.568 110.118C130.014 109.419 129.737 108.177 129.737 106.392C129.737 104.64 130.042 103.379 130.651 102.608C131.154 101.974 131.857 101.656 132.758 101.656ZM132.758 103.135C132.542 103.135 132.35 103.205 132.181 103.345C132.011 103.48 131.88 103.726 131.787 104.081C131.664 104.542 131.603 105.319 131.603 106.411C131.603 107.502 131.658 108.254 131.768 108.664C131.878 109.07 132.016 109.341 132.181 109.477C132.35 109.612 132.542 109.68 132.758 109.68C132.974 109.68 133.167 109.612 133.336 109.477C133.505 109.337 133.636 109.089 133.729 108.734C133.852 108.277 133.914 107.502 133.914 106.411C133.914 105.319 133.859 104.57 133.749 104.164C133.639 103.753 133.499 103.48 133.33 103.345C133.165 103.205 132.974 103.135 132.758 103.135ZM139.995 101.656C140.896 101.656 141.601 101.978 142.108 102.621C142.714 103.383 143.016 104.646 143.016 106.411C143.016 108.171 142.711 109.436 142.102 110.207C141.598 110.841 140.896 111.159 139.995 111.159C139.089 111.159 138.359 110.812 137.805 110.118C137.25 109.419 136.973 108.177 136.973 106.392C136.973 104.64 137.278 103.379 137.887 102.608C138.391 101.974 139.093 101.656 139.995 101.656ZM139.995 103.135C139.779 103.135 139.586 103.205 139.417 103.345C139.248 103.48 139.117 103.726 139.023 104.081C138.901 104.542 138.839 105.319 138.839 106.411C138.839 107.502 138.894 108.254 139.004 108.664C139.114 109.07 139.252 109.341 139.417 109.477C139.586 109.612 139.779 109.68 139.995 109.68C140.21 109.68 140.403 109.612 140.572 109.477C140.742 109.337 140.873 109.089 140.966 108.734C141.089 108.277 141.15 107.502 141.15 106.411C141.15 105.319 141.095 104.57 140.985 104.164C140.875 103.753 140.735 103.48 140.566 103.345C140.401 103.205 140.21 103.135 139.995 103.135ZM147.231 101.656C148.132 101.656 148.837 101.978 149.345 102.621C149.95 103.383 150.252 104.646 150.252 106.411C150.252 108.171 149.948 109.436 149.338 110.207C148.835 110.841 148.132 111.159 147.231 111.159C146.325 111.159 145.595 110.812 145.041 110.118C144.487 109.419 144.209 108.177 144.209 106.392C144.209 104.64 144.514 103.379 145.124 102.608C145.627 101.974 146.33 101.656 147.231 101.656ZM147.231 103.135C147.015 103.135 146.823 103.205 146.653 103.345C146.484 103.48 146.353 103.726 146.26 104.081C146.137 104.542 146.076 105.319 146.076 106.411C146.076 107.502 146.131 108.254 146.241 108.664C146.351 109.07 146.488 109.341 146.653 109.477C146.823 109.612 147.015 109.68 147.231 109.68C147.447 109.68 147.639 109.612 147.809 109.477C147.978 109.337 148.109 109.089 148.202 108.734C148.325 108.277 148.386 107.502 148.386 106.411C148.386 105.319 148.331 104.57 148.221 104.164C148.111 103.753 147.972 103.48 147.802 103.345C147.637 103.205 147.447 103.135 147.231 103.135ZM154.467 101.656C155.369 101.656 156.073 101.978 156.581 102.621C157.186 103.383 157.489 104.646 157.489 106.411C157.489 108.171 157.184 109.436 156.575 110.207C156.071 110.841 155.369 111.159 154.467 111.159C153.562 111.159 152.832 110.812 152.277 110.118C151.723 109.419 151.446 108.177 151.446 106.392C151.446 104.64 151.75 103.379 152.36 102.608C152.863 101.974 153.566 101.656 154.467 101.656ZM154.467 103.135C154.251 103.135 154.059 103.205 153.89 103.345C153.72 103.48 153.589 103.726 153.496 104.081C153.373 104.542 153.312 105.319 153.312 106.411C153.312 107.502 153.367 108.254 153.477 108.664C153.587 109.07 153.725 109.341 153.89 109.477C154.059 109.612 154.251 109.68 154.467 109.68C154.683 109.68 154.876 109.612 155.045 109.477C155.214 109.337 155.345 109.089 155.438 108.734C155.561 108.277 155.623 107.502 155.623 106.411C155.623 105.319 155.568 104.57 155.458 104.164C155.347 103.753 155.208 103.48 155.039 103.345C154.874 103.205 154.683 103.135 154.467 103.135ZM161.704 101.656C162.605 101.656 163.31 101.978 163.817 102.621C164.423 103.383 164.725 104.646 164.725 106.411C164.725 108.171 164.42 109.436 163.811 110.207C163.307 110.841 162.605 111.159 161.704 111.159C160.798 111.159 160.068 110.812 159.514 110.118C158.959 109.419 158.682 108.177 158.682 106.392C158.682 104.64 158.987 103.379 159.596 102.608C160.1 101.974 160.802 101.656 161.704 101.656ZM161.704 103.135C161.488 103.135 161.295 103.205 161.126 103.345C160.957 103.48 160.826 103.726 160.732 104.081C160.61 104.542 160.548 105.319 160.548 106.411C160.548 107.502 160.603 108.254 160.713 108.664C160.823 109.07 160.961 109.341 161.126 109.477C161.295 109.612 161.488 109.68 161.704 109.68C161.919 109.68 162.112 109.612 162.281 109.477C162.451 109.337 162.582 109.089 162.675 108.734C162.798 108.277 162.859 107.502 162.859 106.411C162.859 105.319 162.804 104.57 162.694 104.164C162.584 103.753 162.444 103.48 162.275 103.345C162.11 103.205 161.919 103.135 161.704 103.135Z" fill="#7C8499"/>
</g>
<rect x="182" y="66" width="35" height="26.5" rx="10" fill="#383C45"/>
<path d="M191.671 74.04H192.901V84.75H191.266V76.005C190.621 76.62 189.796 77.07 188.806 77.355V75.735C189.286 75.615 189.781 75.405 190.321 75.105C190.861 74.775 191.311 74.43 191.671 74.04ZM199.999 72.45H201.379L196.144 86.25H194.749L199.999 72.45ZM206.479 73.83C207.499 73.83 208.354 74.115 209.014 74.715C209.659 75.315 209.989 76.08 209.989 77.025C209.989 77.955 209.629 78.795 208.939 79.56C208.519 79.995 207.784 80.565 206.719 81.285C205.564 82.05 204.874 82.725 204.649 83.31H210.004V84.75H202.624C202.624 83.685 202.969 82.755 203.689 81.945C204.079 81.48 204.889 80.835 206.104 79.995C206.824 79.485 207.334 79.08 207.634 78.765C208.114 78.225 208.369 77.64 208.369 77.01C208.369 76.41 208.204 75.96 207.874 75.66C207.544 75.36 207.049 75.21 206.419 75.21C205.744 75.21 205.234 75.435 204.889 75.9C204.529 76.35 204.349 76.995 204.319 77.865H202.684C202.699 76.665 203.044 75.705 203.719 74.985C204.409 74.205 205.339 73.83 206.479 73.83Z" fill="#7C8499"/>
<rect x="182" y="100.5" width="35" height="26.5" rx="10" fill="#383C45"/>
<path d="M195.691 108.33C196.711 108.33 197.566 108.615 198.226 109.215C198.871 109.815 199.201 110.58 199.201 111.525C199.201 112.455 198.841 113.295 198.151 114.06C197.731 114.495 196.996 115.065 195.931 115.785C194.776 116.55 194.086 117.225 193.861 117.81H199.216V119.25H191.836C191.836 118.185 192.181 117.255 192.901 116.445C193.291 115.98 194.101 115.335 195.316 114.495C196.036 113.985 196.546 113.58 196.846 113.265C197.326 112.725 197.581 112.14 197.581 111.51C197.581 110.91 197.416 110.46 197.086 110.16C196.756 109.86 196.261 109.71 195.631 109.71C194.956 109.71 194.446 109.935 194.101 110.4C193.741 110.85 193.561 111.495 193.531 112.365H191.896C191.911 111.165 192.256 110.205 192.931 109.485C193.621 108.705 194.551 108.33 195.691 108.33ZM200.44 111.495H202.3L204.01 113.955L205.705 111.495H207.565L204.88 115.125L207.895 119.25H206.035L204.01 116.295L201.97 119.25H200.095L203.125 115.125L200.44 111.495Z" fill="#7C8499"/>
<rect x="25.5" y="58.5" width="199" height="76" rx="9.5" stroke="#55657E"/>
<g opacity="0.7">
<rect x="245" y="58" width="200" height="77" rx="10" fill="#F04E23"/>
<g filter="url(#filter0_d_19_32123)">
<path d="M331.758 90.148H337.626C338.886 90.148 339.858 90.436 340.578 91.048C341.262 91.624 341.604 92.398 341.604 93.388C341.604 94.108 341.424 94.72 341.064 95.224C340.704 95.692 340.218 96.052 339.57 96.286C340.416 96.448 341.064 96.79 341.496 97.312C341.928 97.834 342.144 98.536 342.144 99.4C342.144 100.696 341.694 101.632 340.812 102.244C340.056 102.748 338.994 103 337.626 103H331.758V90.148ZM333.72 91.768V95.602H337.104C338.004 95.602 338.652 95.44 339.048 95.134C339.444 94.81 339.642 94.306 339.642 93.622C339.642 92.974 339.444 92.506 339.048 92.218C338.652 91.912 338.004 91.768 337.14 91.768H333.72ZM333.72 97.204V101.38H337.356C338.184 101.38 338.832 101.236 339.3 100.984C339.876 100.642 340.182 100.102 340.182 99.364C340.182 98.608 339.948 98.05 339.498 97.708C339.048 97.366 338.346 97.204 337.41 97.204H333.72ZM347.877 93.442C349.389 93.442 350.559 93.946 351.351 94.99C352.071 95.926 352.449 97.222 352.467 98.878H345.411C345.483 99.778 345.717 100.48 346.149 100.966C346.581 101.434 347.175 101.686 347.931 101.686C348.597 101.686 349.137 101.524 349.551 101.218C349.875 100.966 350.145 100.552 350.397 100.012H352.305C352.089 100.876 351.675 101.614 351.027 102.19C350.217 102.892 349.191 103.252 347.949 103.252C346.581 103.252 345.483 102.82 344.691 101.974C343.827 101.074 343.395 99.868 343.395 98.338C343.395 96.952 343.791 95.8 344.619 94.864C345.411 93.91 346.509 93.442 347.877 93.442ZM347.931 95.008C347.211 95.008 346.653 95.206 346.221 95.638C345.825 96.052 345.555 96.646 345.447 97.438H350.469C350.289 95.818 349.443 95.008 347.931 95.008ZM356.922 90.688V93.694H359.046V95.278H356.922V100.678C356.922 100.93 356.976 101.11 357.084 101.236C357.192 101.344 357.354 101.416 357.588 101.416H358.812V103H357.282C356.49 103 355.896 102.784 355.536 102.37C355.176 101.974 355.014 101.416 355.014 100.678V95.278H353.286V93.694H355.014V91.48L356.922 90.688Z" fill="white"/>
</g>
</g>
<rect x="25" y="155" width="200" height="77" rx="6" fill="#4181EE"/>
<g clip-path="url(#clip2_19_32123)">
<path d="M80.9985 193.499C80.9985 204.536 72.0483 213.497 61 213.497C49.9629 213.497 41.0015 204.547 41.0015 193.499C41.0015 182.45 49.9517 173.5 61 173.5C72.0483 173.5 80.9985 182.45 80.9985 193.499Z" fill="url(#paint0_linear_19_32123)"/>
<path d="M61 173.946C66.2228 173.946 71.1332 175.977 74.8271 179.671C78.521 183.365 80.5521 188.276 80.5521 193.499C80.5521 198.721 78.521 203.632 74.8271 207.326C71.1332 211.02 66.2228 213.051 61 213.051C55.7772 213.051 50.8668 211.02 47.1729 207.326C43.479 203.632 41.4479 198.721 41.4479 193.499C41.4479 188.276 43.479 183.365 47.1729 179.671C50.878 175.977 55.7772 173.946 61 173.946ZM61 173.5C49.9629 173.5 41.0015 182.45 41.0015 193.499C41.0015 204.536 49.9517 213.497 61 213.497C72.0483 213.497 80.9985 204.547 80.9985 193.499C80.9985 182.45 72.0483 173.5 61 173.5Z" fill="url(#paint1_linear_19_32123)"/>
<path d="M78.5991 193.499C78.5991 203.219 70.7202 211.098 61 211.098C51.2797 211.098 43.4008 203.219 43.4008 193.499C43.412 183.778 51.2909 175.899 61 175.899C70.7202 175.899 78.5991 183.778 78.5991 193.499Z" fill="url(#paint2_linear_19_32123)"/>
<path d="M77.8515 193.498C77.8515 202.805 70.3074 210.349 61.0001 210.349C51.6927 210.349 44.1486 202.805 44.1486 193.498C44.1486 184.191 51.6927 176.646 61.0001 176.646C70.3074 176.646 77.8515 184.191 77.8515 193.498Z" fill="#EAA434"/>
<path d="M77.1372 193.499C77.1372 202.404 69.9167 209.636 60.9999 209.636C52.0943 209.636 44.8627 202.415 44.8627 193.499C44.8739 184.582 52.0943 177.361 60.9999 177.361C69.9167 177.361 77.1372 184.582 77.1372 193.499Z" fill="url(#paint3_linear_19_32123)"/>
<path d="M60.9999 177.919C65.1626 177.919 69.0685 179.538 72.0148 182.484C74.961 185.43 76.5792 189.336 76.5792 193.499C76.5792 197.661 74.961 201.567 72.0148 204.513C69.0685 207.46 65.1626 209.078 60.9999 209.078C56.8373 209.078 52.9313 207.46 49.9851 204.513C47.0389 201.567 45.4207 197.661 45.4207 193.499C45.4207 189.336 47.0389 185.43 49.9851 182.484C52.9313 179.538 56.8485 177.919 60.9999 177.919ZM60.9999 177.361C52.0943 177.361 44.8627 184.582 44.8627 193.499C44.8627 202.404 52.0832 209.636 60.9999 209.636C69.9055 209.636 77.1372 202.415 77.1372 193.499C77.1372 184.582 69.9167 177.361 60.9999 177.361Z" fill="url(#paint4_linear_19_32123)"/>
<path d="M60.8554 193.733C60.8554 193.733 66.8371 191.378 68.1204 189.381C69.4038 187.383 68.5668 186.1 67.4732 185.475C65.8773 184.548 64.2256 185.809 64.0806 185.954C64.3707 184.548 63.2882 183.153 61.3575 183.153C59.9737 183.153 58.9359 184.414 58.9359 186.01C58.947 188.242 60.8554 193.733 60.8554 193.733Z" fill="#B47400"/>
<path d="M60.8107 193.8C60.8107 193.8 58.8019 187.696 56.8824 186.289C54.9629 184.883 53.6349 185.653 52.943 186.714C51.9274 188.254 53.0992 189.972 53.2332 190.128C51.8382 189.76 50.3874 190.753 50.2758 192.684C50.1977 194.068 51.3918 195.173 52.9876 195.262C55.2196 195.396 60.8107 193.8 60.8107 193.8Z" fill="#B47400"/>
<path d="M60.8777 193.8C60.8777 193.8 54.6951 195.563 53.222 197.427C51.7489 199.29 52.452 200.641 53.4898 201.377C54.9964 202.449 56.7597 201.355 56.9159 201.221C56.4918 202.594 57.4293 204.089 59.3488 204.279C60.7215 204.413 61.8821 203.263 62.0272 201.668C62.2504 199.447 60.8777 193.8 60.8777 193.8Z" fill="#B47400"/>
<path d="M60.9111 193.778C60.9111 193.778 63.6453 199.592 65.721 200.753C67.7968 201.913 69.0244 200.987 69.5824 199.86C70.397 198.208 69.0355 196.646 68.8793 196.512C70.3078 196.702 71.6246 195.541 71.5019 193.61C71.4126 192.227 70.0957 191.278 68.4999 191.378C66.279 191.523 60.9111 193.778 60.9111 193.778Z" fill="#B47400"/>
<path d="M64.5939 203.062C64.3149 202.906 64.1921 202.694 63.969 202.315C62.0494 199.145 60.6321 193.722 60.6321 193.722L61.0897 193.409C61.0897 193.409 62.0718 196.199 62.6632 197.371C63.6007 199.235 63.835 199.48 65.4532 202.036C65.4532 202.036 65.8103 202.616 65.4086 202.906C64.8729 203.319 64.5939 203.062 64.5939 203.062Z" fill="#B47400"/>
<path d="M61.4017 192.952C61.0893 192.014 59.5604 187.405 59.5604 185.452C59.5604 183.923 60.5313 182.763 61.8147 182.763C62.7186 182.763 63.4775 183.086 63.9574 183.667C64.348 184.147 64.5042 184.76 64.3814 185.374C64.3703 185.452 64.4038 185.519 64.4707 185.553C64.493 185.564 64.5265 185.575 64.5488 185.575C64.5935 185.575 64.6381 185.553 64.6716 185.519C64.772 185.419 65.6537 184.749 66.6915 184.749C67.1045 184.749 67.495 184.85 67.8522 185.062C68.2874 185.307 68.8342 185.765 69.0128 186.479C69.169 187.137 68.9793 187.896 68.4436 188.733C67.3053 190.485 62.3615 192.561 61.4017 192.952Z" fill="#FBE993"/>
<path d="M61.8145 182.93C62.6738 182.93 63.3769 183.231 63.8233 183.767C64.1804 184.213 64.3255 184.771 64.2027 185.329C64.1693 185.474 64.2474 185.619 64.3701 185.697C64.4148 185.719 64.4706 185.731 64.5264 185.731C64.6157 185.731 64.7049 185.697 64.7607 185.63C64.7719 185.619 65.6089 184.916 66.6691 184.916C67.0485 184.916 67.4168 185.016 67.7516 185.206C68.1533 185.441 68.6667 185.853 68.8341 186.523C68.9792 187.137 68.8006 187.851 68.2873 188.655C67.2382 190.284 62.752 192.226 61.502 192.739C61.0891 191.523 59.7276 187.293 59.7276 185.463C59.7276 184.012 60.6204 182.93 61.8145 182.93ZM61.8145 182.595C60.4307 182.595 59.3928 183.856 59.3928 185.452C59.3928 187.684 61.3012 193.174 61.3012 193.174C61.3012 193.174 67.2829 190.82 68.5663 188.822C69.8496 186.824 69.0127 185.541 67.919 184.916C67.4949 184.67 67.0708 184.581 66.6691 184.581C65.5531 184.581 64.6268 185.295 64.5264 185.396C64.8165 183.99 63.7452 182.595 61.8145 182.595Z" fill="#D99202"/>
<path d="M53.7013 194.547C53.6121 194.547 53.5228 194.547 53.4335 194.536C52.697 194.491 52.0274 194.223 51.5475 193.777C51.0788 193.33 50.8333 192.75 50.8667 192.136C50.9672 190.44 52.0832 189.659 53.0764 189.659C53.255 189.659 53.4335 189.681 53.6121 189.726C53.6232 189.726 53.6455 189.726 53.6567 189.726C53.7125 189.726 53.7683 189.692 53.8018 189.648C53.8353 189.581 53.8353 189.503 53.7795 189.447C53.7683 189.436 52.5184 187.751 53.5116 186.233C53.8464 185.731 54.4267 185.128 55.3419 185.128C55.9222 185.128 56.5471 185.373 57.2167 185.853C58.9019 187.081 60.6986 192.125 61.0334 193.107C60.1294 193.386 55.7882 194.547 53.7013 194.547Z" fill="#FBE993"/>
<path d="M55.3529 184.983V185.318C55.8886 185.318 56.4912 185.553 57.1273 186.021C58.6897 187.16 60.3748 191.746 60.8212 193.03C59.6383 193.353 55.6654 194.391 53.7012 194.391C53.6119 194.391 53.5227 194.391 53.4445 194.38C52.7415 194.335 52.1165 194.09 51.6701 193.666C51.2349 193.253 51.0117 192.717 51.0452 192.159C51.1344 190.563 52.1723 189.838 53.0874 189.838C53.2548 189.838 53.4111 189.86 53.5785 189.905C53.6119 189.916 53.6343 189.916 53.6677 189.916C53.7793 189.916 53.8909 189.86 53.9579 189.76C54.036 189.637 54.0248 189.47 53.9244 189.358C53.9132 189.347 52.7526 187.751 53.6677 186.356C53.9802 185.887 54.5159 185.329 55.3529 185.329V184.983ZM55.3529 184.983C54.4712 184.983 53.8128 185.519 53.3887 186.166C52.3732 187.706 53.545 189.425 53.6789 189.581C53.4892 189.525 53.2995 189.503 53.0986 189.503C51.9045 189.503 50.8108 190.474 50.7215 192.137C50.6434 193.521 51.8375 194.626 53.4334 194.715C53.5227 194.715 53.6119 194.726 53.7012 194.726C56.0783 194.726 61.2453 193.253 61.2453 193.253C61.2453 193.253 59.2365 187.148 57.317 185.742C56.5805 185.195 55.922 184.983 55.3529 184.983Z" fill="#D99202"/>
<path d="M60.0177 203.563C59.9508 203.563 59.8838 203.563 59.8169 203.552C58.9129 203.463 58.1875 203.072 57.7746 202.447C57.4286 201.934 57.3394 201.298 57.5179 200.718C57.5402 200.651 57.5068 200.573 57.451 200.528C57.4175 200.506 57.3952 200.494 57.3617 200.494C57.3282 200.494 57.2836 200.506 57.2501 200.528C57.1385 200.617 56.3461 201.108 55.4087 201.108C54.8953 201.108 54.4378 200.963 54.036 200.673C53.6343 200.383 53.1209 199.881 53.0205 199.155C52.92 198.486 53.1879 197.749 53.8017 196.968C55.0962 195.339 60.2075 193.743 61.2007 193.441C61.4239 194.401 62.4952 199.133 62.3055 201.086C62.1716 202.526 61.2118 203.563 60.0177 203.563Z" fill="#FBE993"/>
<path d="M61.078 193.664C61.3681 194.914 62.3167 199.255 62.1382 201.086C62.0042 202.425 61.1115 203.407 60.0066 203.407C59.9508 203.407 59.8839 203.407 59.8169 203.396C58.9688 203.318 58.288 202.949 57.8974 202.369C57.5849 201.889 57.4956 201.331 57.663 200.773C57.7077 200.628 57.6519 200.483 57.5291 200.394C57.4733 200.36 57.4064 200.338 57.3394 200.338C57.2613 200.338 57.1832 200.36 57.1274 200.416C57.0158 200.505 56.2569 200.963 55.3864 200.963C54.9177 200.963 54.4825 200.829 54.1142 200.561C53.7348 200.293 53.266 199.825 53.1656 199.155C53.0763 198.53 53.333 197.838 53.9133 197.09C55.1409 195.55 59.7834 194.055 61.078 193.664ZM61.3235 193.24C61.3235 193.24 55.1409 195.003 53.6678 196.867C52.1947 198.731 52.8978 200.081 53.9356 200.818C54.4155 201.164 54.9289 201.287 55.4087 201.287C56.4131 201.287 57.2501 200.751 57.3617 200.673C56.9377 202.045 57.8751 203.541 59.7946 203.731C59.8727 203.742 59.9397 203.742 60.0066 203.742C61.29 203.742 62.3279 202.626 62.473 201.119C62.6962 198.887 61.3235 193.24 61.3235 193.24Z" fill="#D99202"/>
<path d="M67.9412 200.562C67.439 200.562 66.8699 200.395 66.2561 200.049C64.437 199.033 62.0488 194.245 61.5912 193.308C62.5064 192.929 67.0038 191.11 68.9568 190.987C69.0349 190.987 69.113 190.976 69.18 190.976C70.6084 190.976 71.7021 191.846 71.7802 193.051C71.836 193.888 71.6017 194.636 71.1218 195.138C70.7312 195.562 70.1955 195.786 69.6375 195.786C69.5371 195.786 69.4478 195.774 69.3474 195.763C69.3362 195.763 69.3362 195.763 69.3251 195.763C69.2581 195.763 69.2023 195.797 69.1688 195.864C69.1353 195.931 69.1577 196.009 69.2135 196.064C69.2246 196.076 70.6754 197.593 69.8719 199.212C69.6375 199.725 69.0572 200.562 67.9412 200.562Z" fill="#FBE993"/>
<path d="M69.18 191.154C70.5191 191.154 71.5459 191.969 71.6128 193.074C71.6686 193.866 71.4454 194.558 70.999 195.038C70.6419 195.417 70.1509 195.629 69.6375 195.629C69.5482 195.629 69.459 195.618 69.3697 195.607C69.3585 195.607 69.3362 195.607 69.325 195.607C69.1911 195.607 69.0795 195.685 69.0237 195.808C68.9679 195.942 69.0014 196.098 69.113 196.198C69.1242 196.21 70.4745 197.649 69.738 199.145C69.459 199.714 68.9233 200.383 67.9524 200.383C67.4725 200.383 66.9368 200.216 66.3453 199.892C64.649 198.955 62.4282 194.603 61.8256 193.386C63.0197 192.906 67.1377 191.266 68.9791 191.143C69.0349 191.154 69.113 191.154 69.18 191.154ZM69.18 190.819C69.1018 190.819 69.0237 190.819 68.9456 190.83C66.7248 190.976 61.3569 193.23 61.3569 193.23C61.3569 193.23 64.091 199.044 66.1668 200.205C66.8475 200.584 67.439 200.74 67.9412 200.74C68.9791 200.74 69.6487 200.071 70.0281 199.312C70.8428 197.66 69.4813 196.098 69.325 195.964C69.4255 195.975 69.5371 195.986 69.6375 195.986C70.9432 195.986 72.0704 194.859 71.9476 193.074C71.8695 191.746 70.6754 190.819 69.18 190.819Z" fill="#D99202"/>
<path d="M65.2966 202.415C65.1962 202.415 65.1404 202.37 65.1404 202.37C65.1292 202.37 65.118 202.359 65.118 202.348C64.8948 202.225 64.7944 202.046 64.5935 201.734L64.5489 201.667C62.8191 198.81 61.4799 194.034 61.2567 193.23L61.4353 193.107C61.6808 193.777 62.4397 195.886 62.9419 196.879C63.6673 198.319 63.9797 198.799 64.8056 200.105C65.0622 200.495 65.3636 200.975 65.743 201.567C65.743 201.567 66.0108 202.013 65.743 202.214C65.5868 202.359 65.4305 202.415 65.2966 202.415Z" fill="#FBE993"/>
<path d="M61.9375 194.926C62.2276 195.674 62.5513 196.466 62.808 196.968C63.5334 198.408 63.8458 198.899 64.6828 200.205C64.9283 200.584 65.2408 201.064 65.6091 201.666C65.6203 201.689 65.7877 202.001 65.6537 202.102C65.4752 202.236 65.3524 202.258 65.3078 202.258C65.2743 202.258 65.252 202.247 65.2408 202.247C65.2297 202.236 65.2185 202.224 65.1962 202.224C65.0176 202.124 64.9395 202.001 64.7386 201.666L64.694 201.6C63.511 199.635 62.5178 196.778 61.9375 194.926ZM61.5246 192.861L61.067 193.174C61.067 193.174 62.4843 198.598 64.4038 201.767C64.627 202.135 64.7498 202.358 65.0288 202.515C65.0288 202.515 65.1181 202.593 65.2966 202.593C65.4305 202.593 65.6203 202.548 65.8435 202.37C66.234 202.079 65.8881 201.499 65.8881 201.499C64.2699 198.943 64.0355 198.698 63.0981 196.834C62.5066 195.651 61.5246 192.861 61.5246 192.861Z" fill="#D99202"/>
<path d="M62.0158 191.221C62.0158 191.221 64.4486 190.262 64.9731 189.447C65.4976 188.632 65.1517 188.119 64.7165 187.862C64.0692 187.483 63.3996 187.996 63.3326 188.063C63.4442 187.494 63.009 186.925 62.2278 186.925C61.6698 186.925 61.2457 187.438 61.2457 188.085C61.2346 188.989 62.0158 191.221 62.0158 191.221Z" fill="#D99202"/>
<path d="M59.259 192.172C59.259 192.172 58.4332 189.661 57.6408 189.08C56.8485 188.5 56.3016 188.812 56.0227 189.259C55.6097 189.895 56.0896 190.598 56.1454 190.665C55.5763 190.509 54.9736 190.922 54.929 191.714C54.8955 192.283 55.3865 192.741 56.045 192.774C56.9601 192.83 59.259 192.172 59.259 192.172Z" fill="#D99202"/>
<path d="M60.3415 194.993C60.3415 194.993 57.8752 195.696 57.2837 196.444C56.6922 197.192 56.9824 197.727 57.3841 198.017C57.9868 198.442 58.6898 198.006 58.7456 197.962C58.5782 198.509 58.9465 199.1 59.7165 199.178C60.2634 199.234 60.7209 198.776 60.7879 198.14C60.8883 197.247 60.3415 194.993 60.3415 194.993Z" fill="#D99202"/>
<path d="M63.5107 194C63.5107 194 64.5486 196.21 65.341 196.656C66.1333 197.092 66.5909 196.746 66.8141 196.322C67.1265 195.697 66.602 195.094 66.5462 195.049C67.0931 195.128 67.5953 194.681 67.5395 193.945C67.506 193.42 67.0038 193.052 66.4012 193.096C65.553 193.141 63.5107 194 63.5107 194Z" fill="#D99202"/>
<g opacity="0.26">
<mask id="mask0_19_32123" style="mask-type:luminance" maskUnits="userSpaceOnUse" x="41" y="173" width="40" height="41">
<path d="M80.9985 193.499C80.9985 204.536 72.0483 213.497 61 213.497C49.9629 213.497 41.0015 204.547 41.0015 193.499C41.0015 182.45 49.9517 173.5 61 173.5C72.0483 173.5 80.9985 182.45 80.9985 193.499Z" fill="white"/>
</mask>
<g mask="url(#mask0_19_32123)">
<path d="M61.3683 197.203C76.9495 197.203 89.5806 186.841 89.5806 174.058C89.5806 161.275 76.9495 150.912 61.3683 150.912C45.7872 150.912 33.1561 161.275 33.1561 174.058C33.1561 186.841 45.7872 197.203 61.3683 197.203Z" fill="white"/>
</g>
</g>
<path d="M129.043 177.7V191.5H126.423V185.66H121.843V191.5H119.223V177.7H121.843V183.38H126.423V177.7H129.043ZM134.031 179.98V183.4H139.271V185.68H134.031V189.22H140.171V191.5H131.411V177.7H140.171V179.98H134.031ZM149.295 188.82H144.555L143.715 191.5H140.955L145.855 177.7H147.995L152.915 191.5H150.135L149.295 188.82ZM148.595 186.64L146.915 181.34L145.255 186.64H148.595ZM154.184 177.7H159.044C160.564 177.7 161.784 178.14 162.664 178.98C163.544 179.84 164.004 181.24 164.004 183.18V186C164.004 187.96 163.544 189.36 162.644 190.22C161.724 191.08 160.504 191.5 158.964 191.5H154.184V177.7ZM159.024 189.22C159.804 189.22 160.384 188.96 160.784 188.44C161.184 187.92 161.384 187.1 161.384 185.98V183.32C161.384 182.16 161.184 181.3 160.804 180.78C160.404 180.26 159.824 179.98 159.024 179.98H156.804V189.22H159.024ZM166.877 190.52C166.037 189.78 165.577 188.7 165.497 187.3H167.977C168.057 188.06 168.297 188.6 168.697 188.92C169.097 189.24 169.677 189.38 170.457 189.38C171.937 189.38 172.677 188.78 172.677 187.56C172.677 187.02 172.517 186.6 172.237 186.32C171.937 186.04 171.477 185.84 170.837 185.72L169.537 185.5C167.037 185.1 165.797 183.82 165.797 181.66C165.797 180.38 166.217 179.38 167.057 178.62C167.897 177.88 169.037 177.5 170.437 177.5C171.797 177.5 172.857 177.86 173.657 178.58C174.457 179.3 174.897 180.32 175.017 181.62H172.497C172.457 180.96 172.257 180.48 171.917 180.16C171.557 179.86 171.057 179.7 170.397 179.7C169.717 179.7 169.197 179.86 168.857 180.18C168.497 180.5 168.337 180.92 168.337 181.46C168.337 181.94 168.477 182.32 168.797 182.6C169.097 182.88 169.577 183.08 170.237 183.2L171.697 183.46C174.057 183.9 175.257 185.18 175.257 187.34C175.257 188.74 174.797 189.8 173.917 190.52C173.037 191.26 171.837 191.62 170.337 191.62C168.857 191.62 167.697 191.26 166.877 190.52Z" fill="white"/>
<path d="M96.0454 212.885V204.277H97.0063V205.086C97.2329 204.77 97.4888 204.533 97.7739 204.377C98.0591 204.217 98.4048 204.137 98.811 204.137C99.3423 204.137 99.811 204.273 100.217 204.547C100.624 204.82 100.93 205.207 101.137 205.707C101.344 206.203 101.448 206.748 101.448 207.342C101.448 207.979 101.333 208.553 101.102 209.064C100.875 209.572 100.543 209.963 100.106 210.236C99.6724 210.506 99.2153 210.641 98.7349 210.641C98.3833 210.641 98.0669 210.566 97.7856 210.418C97.5083 210.27 97.2798 210.082 97.1001 209.855V212.885H96.0454ZM97.0005 207.424C97.0005 208.225 97.1626 208.816 97.4868 209.199C97.811 209.582 98.2036 209.773 98.6646 209.773C99.1333 209.773 99.5337 209.576 99.8657 209.182C100.202 208.783 100.37 208.168 100.37 207.336C100.37 206.543 100.206 205.949 99.8774 205.555C99.5532 205.16 99.1646 204.963 98.7114 204.963C98.2622 204.963 97.8638 205.174 97.5161 205.596C97.1724 206.014 97.0005 206.623 97.0005 207.424ZM102.713 210.5V204.277H103.663V205.221C103.905 204.779 104.127 204.488 104.331 204.348C104.538 204.207 104.764 204.137 105.01 204.137C105.366 204.137 105.727 204.25 106.094 204.477L105.731 205.455C105.473 205.303 105.215 205.227 104.958 205.227C104.727 205.227 104.52 205.297 104.336 205.438C104.153 205.574 104.022 205.766 103.944 206.012C103.827 206.387 103.768 206.797 103.768 207.242V210.5H102.713ZM106.329 207.389C106.329 206.236 106.649 205.383 107.29 204.828C107.825 204.367 108.477 204.137 109.247 204.137C110.102 204.137 110.801 204.418 111.344 204.98C111.887 205.539 112.159 206.312 112.159 207.301C112.159 208.102 112.038 208.732 111.795 209.193C111.557 209.65 111.208 210.006 110.747 210.26C110.29 210.514 109.79 210.641 109.247 210.641C108.375 210.641 107.67 210.361 107.131 209.803C106.596 209.244 106.329 208.439 106.329 207.389ZM107.413 207.389C107.413 208.186 107.586 208.783 107.934 209.182C108.282 209.576 108.719 209.773 109.247 209.773C109.77 209.773 110.206 209.574 110.553 209.176C110.901 208.777 111.075 208.17 111.075 207.354C111.075 206.584 110.899 206.002 110.547 205.607C110.2 205.209 109.766 205.01 109.247 205.01C108.719 205.01 108.282 205.207 107.934 205.602C107.586 205.996 107.413 206.592 107.413 207.389ZM113.653 210.5V205.098H112.721V204.277H113.653V203.615C113.653 203.197 113.69 202.887 113.764 202.684C113.866 202.41 114.043 202.189 114.297 202.021C114.555 201.85 114.915 201.764 115.375 201.764C115.672 201.764 116 201.799 116.36 201.869L116.202 202.789C115.983 202.75 115.776 202.73 115.581 202.73C115.26 202.73 115.034 202.799 114.901 202.936C114.768 203.072 114.702 203.328 114.702 203.703V204.277H115.915V205.098H114.702V210.5H113.653ZM116.747 203.123V201.91H117.801V203.123H116.747ZM116.747 210.5V204.277H117.801V210.5H116.747ZM119.389 210.5V201.91H120.444V210.5H119.389ZM124.387 209.557L124.54 210.488C124.243 210.551 123.977 210.582 123.743 210.582C123.36 210.582 123.063 210.521 122.852 210.4C122.641 210.279 122.493 210.121 122.407 209.926C122.321 209.727 122.278 209.311 122.278 208.678V205.098H121.504V204.277H122.278V202.736L123.327 202.104V204.277H124.387V205.098H123.327V208.736C123.327 209.037 123.344 209.23 123.379 209.316C123.418 209.402 123.479 209.471 123.561 209.521C123.647 209.572 123.768 209.598 123.924 209.598C124.042 209.598 124.196 209.584 124.387 209.557ZM125.717 205.479V204.277H126.918V205.479H125.717ZM125.717 210.5V209.299H126.918V210.5H125.717ZM128.471 206.264C128.471 205.248 128.575 204.432 128.782 203.814C128.993 203.193 129.303 202.715 129.713 202.379C130.127 202.043 130.647 201.875 131.272 201.875C131.733 201.875 132.137 201.969 132.485 202.156C132.833 202.34 133.12 202.607 133.346 202.959C133.573 203.307 133.75 203.732 133.879 204.236C134.008 204.736 134.073 205.412 134.073 206.264C134.073 207.271 133.969 208.086 133.762 208.707C133.555 209.324 133.245 209.803 132.831 210.143C132.42 210.479 131.901 210.646 131.272 210.646C130.444 210.646 129.793 210.35 129.321 209.756C128.754 209.041 128.471 207.877 128.471 206.264ZM129.555 206.264C129.555 207.674 129.719 208.613 130.047 209.082C130.379 209.547 130.788 209.779 131.272 209.779C131.756 209.779 132.163 209.545 132.491 209.076C132.823 208.607 132.989 207.67 132.989 206.264C132.989 204.85 132.823 203.91 132.491 203.445C132.163 202.98 131.752 202.748 131.26 202.748C130.776 202.748 130.389 202.953 130.1 203.363C129.737 203.887 129.555 204.854 129.555 206.264ZM135.743 210.5V209.299H136.944V210.5H135.743ZM144.034 209.486V210.5H138.356C138.348 210.246 138.389 210.002 138.479 209.768C138.624 209.381 138.854 209 139.17 208.625C139.491 208.25 139.952 207.816 140.553 207.324C141.487 206.559 142.118 205.953 142.446 205.508C142.774 205.059 142.938 204.635 142.938 204.236C142.938 203.818 142.788 203.467 142.487 203.182C142.19 202.893 141.801 202.748 141.321 202.748C140.813 202.748 140.407 202.9 140.102 203.205C139.797 203.51 139.643 203.932 139.639 204.471L138.555 204.359C138.629 203.551 138.909 202.936 139.393 202.514C139.877 202.088 140.528 201.875 141.344 201.875C142.168 201.875 142.821 202.104 143.301 202.561C143.782 203.018 144.022 203.584 144.022 204.26C144.022 204.604 143.952 204.941 143.811 205.273C143.67 205.605 143.436 205.955 143.108 206.322C142.784 206.689 142.243 207.193 141.485 207.834C140.852 208.365 140.446 208.727 140.266 208.918C140.086 209.105 139.938 209.295 139.821 209.486H144.034ZM145.176 208.232L146.231 208.092C146.352 208.689 146.557 209.121 146.846 209.387C147.139 209.648 147.495 209.779 147.913 209.779C148.409 209.779 148.827 209.607 149.167 209.264C149.51 208.92 149.682 208.494 149.682 207.986C149.682 207.502 149.524 207.104 149.208 206.791C148.891 206.475 148.489 206.316 148 206.316C147.801 206.316 147.553 206.355 147.256 206.434L147.374 205.508C147.444 205.516 147.5 205.52 147.543 205.52C147.993 205.52 148.397 205.402 148.756 205.168C149.116 204.934 149.295 204.572 149.295 204.084C149.295 203.697 149.165 203.377 148.903 203.123C148.641 202.869 148.303 202.742 147.889 202.742C147.479 202.742 147.137 202.871 146.864 203.129C146.59 203.387 146.415 203.773 146.336 204.289L145.282 204.102C145.411 203.395 145.704 202.848 146.161 202.461C146.618 202.07 147.186 201.875 147.866 201.875C148.334 201.875 148.766 201.977 149.161 202.18C149.555 202.379 149.856 202.652 150.063 203C150.274 203.348 150.379 203.717 150.379 204.107C150.379 204.479 150.28 204.816 150.081 205.121C149.881 205.426 149.586 205.668 149.196 205.848C149.704 205.965 150.098 206.209 150.379 206.58C150.661 206.947 150.801 207.408 150.801 207.963C150.801 208.713 150.528 209.35 149.981 209.873C149.434 210.393 148.743 210.652 147.907 210.652C147.153 210.652 146.526 210.428 146.026 209.979C145.53 209.529 145.247 208.947 145.176 208.232ZM155.231 210.5V208.443H151.504V207.477L155.424 201.91H156.286V207.477H157.446V208.443H156.286V210.5H155.231ZM155.231 207.477V203.604L152.542 207.477H155.231ZM161.911 210.5V208.443H158.184V207.477L162.104 201.91H162.965V207.477H164.125V208.443H162.965V210.5H161.911ZM161.911 207.477V203.604L159.221 207.477H161.911ZM165.215 208.232L166.27 208.092C166.391 208.689 166.596 209.121 166.885 209.387C167.178 209.648 167.534 209.779 167.952 209.779C168.448 209.779 168.866 209.607 169.206 209.264C169.549 208.92 169.721 208.494 169.721 207.986C169.721 207.502 169.563 207.104 169.247 206.791C168.93 206.475 168.528 206.316 168.04 206.316C167.84 206.316 167.592 206.355 167.295 206.434L167.413 205.508C167.483 205.516 167.54 205.52 167.583 205.52C168.032 205.52 168.436 205.402 168.795 205.168C169.155 204.934 169.334 204.572 169.334 204.084C169.334 203.697 169.204 203.377 168.942 203.123C168.68 202.869 168.342 202.742 167.928 202.742C167.518 202.742 167.176 202.871 166.903 203.129C166.629 203.387 166.454 203.773 166.375 204.289L165.321 204.102C165.45 203.395 165.743 202.848 166.2 202.461C166.657 202.07 167.225 201.875 167.905 201.875C168.374 201.875 168.805 201.977 169.2 202.18C169.594 202.379 169.895 202.652 170.102 203C170.313 203.348 170.418 203.717 170.418 204.107C170.418 204.479 170.319 204.816 170.12 205.121C169.92 205.426 169.625 205.668 169.235 205.848C169.743 205.965 170.137 206.209 170.418 206.58C170.7 206.947 170.84 207.408 170.84 207.963C170.84 208.713 170.567 209.35 170.02 209.873C169.473 210.393 168.782 210.652 167.946 210.652C167.192 210.652 166.565 210.428 166.065 209.979C165.569 209.529 165.286 208.947 165.215 208.232ZM175.61 210.5V201.91H178.833C179.489 201.91 180.014 201.998 180.409 202.174C180.807 202.346 181.118 202.613 181.34 202.977C181.567 203.336 181.68 203.713 181.68 204.107C181.68 204.475 181.581 204.82 181.381 205.145C181.182 205.469 180.881 205.73 180.479 205.93C180.999 206.082 181.397 206.342 181.674 206.709C181.956 207.076 182.096 207.51 182.096 208.01C182.096 208.412 182.01 208.787 181.838 209.135C181.67 209.479 181.461 209.744 181.211 209.932C180.961 210.119 180.647 210.262 180.268 210.359C179.893 210.453 179.432 210.5 178.885 210.5H175.61ZM176.747 205.52H178.604C179.108 205.52 179.469 205.486 179.688 205.42C179.977 205.334 180.194 205.191 180.338 204.992C180.487 204.793 180.561 204.543 180.561 204.242C180.561 203.957 180.493 203.707 180.356 203.492C180.219 203.273 180.024 203.125 179.77 203.047C179.516 202.965 179.081 202.924 178.463 202.924H176.747V205.52ZM176.747 209.486H178.885C179.252 209.486 179.51 209.473 179.659 209.445C179.92 209.398 180.139 209.32 180.315 209.211C180.491 209.102 180.635 208.943 180.749 208.736C180.862 208.525 180.918 208.283 180.918 208.01C180.918 207.689 180.836 207.412 180.672 207.178C180.508 206.939 180.28 206.773 179.987 206.68C179.698 206.582 179.28 206.533 178.733 206.533H176.747V209.486ZM185.846 210.5V202.924H183.016V201.91H189.825V202.924H186.983V210.5H185.846ZM197.125 207.488L198.262 207.775C198.024 208.709 197.594 209.422 196.973 209.914C196.356 210.402 195.6 210.646 194.706 210.646C193.78 210.646 193.026 210.459 192.444 210.084C191.866 209.705 191.424 209.158 191.12 208.443C190.819 207.729 190.668 206.961 190.668 206.141C190.668 205.246 190.838 204.467 191.178 203.803C191.522 203.135 192.008 202.629 192.637 202.285C193.27 201.938 193.965 201.764 194.723 201.764C195.583 201.764 196.305 201.982 196.891 202.42C197.477 202.857 197.885 203.473 198.116 204.266L196.997 204.529C196.797 203.904 196.508 203.449 196.129 203.164C195.75 202.879 195.274 202.736 194.7 202.736C194.04 202.736 193.487 202.895 193.042 203.211C192.6 203.527 192.29 203.953 192.11 204.488C191.93 205.02 191.84 205.568 191.84 206.135C191.84 206.865 191.946 207.504 192.157 208.051C192.372 208.594 192.704 209 193.153 209.27C193.602 209.539 194.088 209.674 194.612 209.674C195.249 209.674 195.788 209.49 196.229 209.123C196.67 208.756 196.969 208.211 197.125 207.488Z" fill="#D6D6D6"/>
</g>
<rect x="245" y="155" width="200" height="77" rx="10" fill="#4181EE"/>
<g clip-path="url(#clip3_19_32123)">
<path d="M288.5 213.276C277.596 213.276 268.723 204.403 268.723 193.499C268.723 182.595 277.596 173.723 288.5 173.723C299.404 173.723 308.277 182.595 308.277 193.499C308.277 204.403 299.404 213.276 288.5 213.276Z" fill="url(#paint5_linear_19_32123)"/>
<path d="M288.5 173.946C293.723 173.946 298.634 175.978 302.328 179.672C306.022 183.366 308.054 188.277 308.054 193.5C308.054 198.723 306.022 203.634 302.328 207.328C298.634 211.022 293.723 213.054 288.5 213.054C283.277 213.054 278.366 211.022 274.672 207.328C270.989 203.634 268.946 198.723 268.946 193.5C268.946 188.277 270.978 183.366 274.672 179.672C278.366 175.989 283.277 173.946 288.5 173.946ZM288.5 173.5C277.462 173.5 268.5 182.451 268.5 193.5C268.5 204.538 277.451 213.5 288.5 213.5C299.549 213.5 308.5 204.549 308.5 193.5C308.5 182.451 299.549 173.5 288.5 173.5Z" fill="#C6DBDF"/>
<path d="M288.5 173.946C293.723 173.946 298.634 175.978 302.328 179.672C306.022 183.366 308.054 188.277 308.054 193.5C308.054 198.723 306.022 203.634 302.328 207.328C298.634 211.022 293.723 213.054 288.5 213.054C283.277 213.054 278.366 211.022 274.672 207.328C270.989 203.634 268.946 198.723 268.946 193.5C268.946 188.277 270.978 183.366 274.672 179.672C278.366 175.989 283.277 173.946 288.5 173.946ZM288.5 173.5C277.462 173.5 268.5 182.451 268.5 193.5C268.5 204.538 277.451 213.5 288.5 213.5C299.549 213.5 308.5 204.549 308.5 193.5C308.5 182.451 299.549 173.5 288.5 173.5Z" fill="url(#paint6_linear_19_32123)"/>
<path d="M306.1 193.5C306.1 203.221 298.221 211.1 288.5 211.1C278.779 211.1 270.9 203.221 270.9 193.5C270.9 183.779 278.779 175.899 288.5 175.899C298.221 175.899 306.1 183.779 306.1 193.5Z" fill="url(#paint7_linear_19_32123)"/>
<path d="M305.353 193.5C305.353 202.808 297.808 210.353 288.5 210.353C279.192 210.353 271.647 202.808 271.647 193.5C271.647 184.192 279.192 176.647 288.5 176.647C297.808 176.647 305.353 184.192 305.353 193.5Z" fill="#839EA0"/>
<path d="M304.638 193.5C304.638 202.406 297.417 209.638 288.5 209.638C279.594 209.638 272.362 202.417 272.362 193.5C272.362 184.593 279.582 177.361 288.5 177.361C297.406 177.361 304.638 184.593 304.638 193.5Z" fill="url(#paint8_linear_19_32123)"/>
<path d="M288.5 177.919C292.663 177.919 296.569 179.538 299.516 182.484C302.462 185.431 304.08 189.337 304.08 193.5C304.08 197.663 302.462 201.569 299.516 204.515C296.569 207.462 292.663 209.08 288.5 209.08C284.337 209.08 280.431 207.462 277.484 204.515C274.549 201.569 272.92 197.663 272.92 193.5C272.92 189.337 274.538 185.431 277.484 182.484C280.431 179.549 284.337 177.919 288.5 177.919ZM288.5 177.361C279.594 177.361 272.362 184.582 272.362 193.5C272.362 202.406 279.582 209.638 288.5 209.638C297.406 209.638 304.638 202.417 304.638 193.5C304.638 184.593 297.406 177.361 288.5 177.361Z" fill="url(#paint9_linear_19_32123)"/>
<path d="M297.316 190.397C296.87 189.951 297.249 189.147 297.249 189.147C297.249 189.147 291.758 190.688 288.79 190.688C285.899 190.688 280.464 189.147 280.464 189.147C280.464 189.147 280.843 189.951 280.408 190.397C278.99 191.714 278.153 193.366 278.153 195.163C278.153 199.449 282.941 202.931 288.857 202.931C294.772 202.931 299.56 199.46 299.56 195.163C299.571 193.366 298.734 191.714 297.316 190.397Z" fill="#98B6B7"/>
<path d="M282.071 190.174C283.142 191.022 287.886 192.205 293.611 192.116C296.089 192.049 298.578 193.187 299.337 195.654C299.292 194.471 299.247 192.473 296.993 190.308C296.725 189.973 296.982 189.471 296.982 189.471C296.982 189.471 293.968 190.687 291.602 190.799C289.236 190.91 282.071 190.174 282.071 190.174Z" fill="#83A0A2"/>
<path d="M281.133 190.174C281.133 190.174 281.647 190.71 283.656 191.156C283.031 191.602 281.569 193.232 281.859 196.033C282.16 198.823 284.057 201.178 286.133 202.205C284.615 201.937 279.984 200.386 279.716 195.922C279.627 193.622 280.988 191.625 281.122 191.078C281.267 190.531 281.133 190.174 281.133 190.174Z" fill="#EFFBFA"/>
<path d="M282.45 196.737C282.328 196.737 282.205 196.725 282.082 196.692L281.1 196.424C280.743 196.324 280.453 196.1 280.263 195.777C280.084 195.453 280.029 195.085 280.129 194.728L280.252 194.259C280.43 193.612 281.044 193.187 281.703 193.243C281.87 193.254 282.004 193.411 281.982 193.578C281.971 193.745 281.814 193.879 281.647 193.857C281.279 193.824 280.955 194.058 280.854 194.404L280.732 194.873C280.676 195.062 280.709 195.274 280.81 195.442C280.91 195.62 281.067 195.743 281.267 195.799L282.25 196.067C282.439 196.123 282.651 196.089 282.819 195.989C282.997 195.888 283.12 195.732 283.176 195.531L283.299 195.062C283.377 194.772 283.276 194.46 283.042 194.27C282.908 194.158 282.886 193.969 282.986 193.835C283.098 193.701 283.287 193.678 283.421 193.779C283.857 194.125 284.046 194.694 283.901 195.23L283.779 195.699C283.678 196.056 283.455 196.346 283.131 196.536C282.919 196.67 282.685 196.737 282.45 196.737Z" fill="#83A0A2"/>
<path d="M297.383 188.567C297.383 189.683 293.566 190.576 288.868 190.576C284.169 190.576 280.352 189.672 280.352 188.567C280.352 187.451 284.169 186.558 288.868 186.558C293.566 186.547 297.383 187.451 297.383 188.567Z" fill="#98B6B7"/>
<path d="M295.866 188.332C295.866 189.08 292.729 189.682 288.868 189.682C285.006 189.682 281.87 189.08 281.87 188.332C281.87 187.584 285.006 186.981 288.868 186.981C292.729 186.981 295.866 187.595 295.866 188.332Z" fill="#83A0A2"/>
<path d="M280.352 188.566C280.352 188.566 280.296 188.857 280.453 189.102C280.609 189.348 281.067 190.174 284.247 190.698C286.078 190.999 289.504 191.211 291.658 190.966C293.812 190.72 295.754 190.285 296.602 189.761C297.45 189.236 297.428 188.745 297.395 188.566C297.015 189.035 293.868 190.52 289.002 190.52C284.113 190.52 280.352 188.566 280.352 188.566Z" fill="#EFFBFA"/>
<path d="M283.633 189.148C284.496 189.148 285.196 188.568 285.196 187.853C285.196 187.138 284.496 186.559 283.633 186.559C282.77 186.559 282.071 187.138 282.071 187.853C282.071 188.568 282.77 189.148 283.633 189.148Z" fill="#EFFBFA"/>
<path d="M286.145 189.628C287.007 189.628 287.707 189.049 287.707 188.334C287.707 187.619 287.007 187.039 286.145 187.039C285.282 187.039 284.582 187.619 284.582 188.334C284.582 189.049 285.282 189.628 286.145 189.628Z" fill="#EFFBFA"/>
<path d="M286.77 187.842C287.632 187.842 288.332 187.263 288.332 186.548C288.332 185.833 287.632 185.253 286.77 185.253C285.907 185.253 285.207 185.833 285.207 186.548C285.207 187.263 285.907 187.842 286.77 187.842Z" fill="#EFFBFA"/>
<path d="M288.633 189.628C289.496 189.628 290.196 189.049 290.196 188.334C290.196 187.619 289.496 187.039 288.633 187.039C287.77 187.039 287.071 187.619 287.071 188.334C287.071 189.049 287.77 189.628 288.633 189.628Z" fill="#EFFBFA"/>
<path d="M289.28 187.842C290.143 187.842 290.843 187.263 290.843 186.548C290.843 185.833 290.143 185.253 289.28 185.253C288.418 185.253 287.718 185.833 287.718 186.548C287.718 187.263 288.418 187.842 289.28 187.842Z" fill="#EFFBFA"/>
<path d="M291.323 189.148C292.186 189.148 292.886 188.568 292.886 187.853C292.886 187.138 292.186 186.559 291.323 186.559C290.46 186.559 289.761 187.138 289.761 187.853C289.761 188.568 290.46 189.148 291.323 189.148Z" fill="#EFFBFA"/>
<path d="M293.511 189.148C294.374 189.148 295.073 188.568 295.073 187.853C295.073 187.138 294.374 186.559 293.511 186.559C292.648 186.559 291.948 187.138 291.948 187.853C291.948 188.568 292.648 189.148 293.511 189.148Z" fill="#EFFBFA"/>
<path d="M292.417 187.039C293.28 187.039 293.979 186.459 293.979 185.744C293.979 185.029 293.28 184.449 292.417 184.449C291.554 184.449 290.854 185.029 290.854 185.744C290.854 186.459 291.554 187.039 292.417 187.039Z" fill="#EFFBFA"/>
<path d="M290.698 185.744C291.561 185.744 292.26 185.289 292.26 184.729C292.26 184.168 291.561 183.713 290.698 183.713C289.835 183.713 289.135 184.168 289.135 184.729C289.135 185.289 289.835 185.744 290.698 185.744Z" fill="#EFFBFA"/>
<g opacity="0.26">
<mask id="mask1_19_32123" style="mask-type:luminance" maskUnits="userSpaceOnUse" x="268" y="173" width="41" height="41">
<path d="M308.5 193.5C308.5 204.538 299.549 213.5 288.5 213.5C277.462 213.5 268.5 204.549 268.5 193.5C268.5 182.451 277.451 173.5 288.5 173.5C299.549 173.5 308.5 182.451 308.5 193.5Z" fill="white"/>
</mask>
<g mask="url(#mask1_19_32123)">
<path d="M288.868 197.206C304.451 197.206 317.083 186.842 317.083 174.058C317.083 161.275 304.451 150.911 288.868 150.911C273.286 150.911 260.654 161.275 260.654 174.058C260.654 186.842 273.286 197.206 288.868 197.206Z" fill="white"/>
</g>
</g>
<path d="M353.148 179.98H349.628V191.5H346.988V179.98H343.468V177.7H353.148V179.98ZM360.459 188.82H355.719L354.879 191.5H352.119L357.019 177.7H359.159L364.079 191.5H361.299L360.459 188.82ZM359.759 186.64L358.079 181.34L356.419 186.64H359.759ZM365.468 177.7H368.088V191.5H365.468V177.7ZM370.563 177.7H373.183V189.22H379.223V191.5H370.563V177.7ZM381.575 190.52C380.735 189.78 380.275 188.7 380.195 187.3H382.675C382.755 188.06 382.995 188.6 383.395 188.92C383.795 189.24 384.375 189.38 385.155 189.38C386.635 189.38 387.375 188.78 387.375 187.56C387.375 187.02 387.215 186.6 386.935 186.32C386.635 186.04 386.175 185.84 385.535 185.72L384.235 185.5C381.735 185.1 380.495 183.82 380.495 181.66C380.495 180.38 380.915 179.38 381.755 178.62C382.595 177.88 383.735 177.5 385.135 177.5C386.495 177.5 387.555 177.86 388.355 178.58C389.155 179.3 389.595 180.32 389.715 181.62H387.195C387.155 180.96 386.955 180.48 386.615 180.16C386.255 179.86 385.755 179.7 385.095 179.7C384.415 179.7 383.895 179.86 383.555 180.18C383.195 180.5 383.035 180.92 383.035 181.46C383.035 181.94 383.175 182.32 383.495 182.6C383.795 182.88 384.275 183.08 384.935 183.2L386.395 183.46C388.755 183.9 389.955 185.18 389.955 187.34C389.955 188.74 389.495 189.8 388.615 190.52C387.735 191.26 386.535 191.62 385.035 191.62C383.555 191.62 382.395 191.26 381.575 190.52Z" fill="white"/>
<path d="M316.047 212.885V204.277H317.008V205.086C317.234 204.77 317.49 204.533 317.775 204.377C318.061 204.217 318.406 204.137 318.812 204.137C319.344 204.137 319.812 204.273 320.219 204.547C320.625 204.82 320.932 205.207 321.139 205.707C321.346 206.203 321.449 206.748 321.449 207.342C321.449 207.979 321.334 208.553 321.104 209.064C320.877 209.572 320.545 209.963 320.107 210.236C319.674 210.506 319.217 210.641 318.736 210.641C318.385 210.641 318.068 210.566 317.787 210.418C317.51 210.27 317.281 210.082 317.102 209.855V212.885H316.047ZM317.002 207.424C317.002 208.225 317.164 208.816 317.488 209.199C317.812 209.582 318.205 209.773 318.666 209.773C319.135 209.773 319.535 209.576 319.867 209.182C320.203 208.783 320.371 208.168 320.371 207.336C320.371 206.543 320.207 205.949 319.879 205.555C319.555 205.16 319.166 204.963 318.713 204.963C318.264 204.963 317.865 205.174 317.518 205.596C317.174 206.014 317.002 206.623 317.002 207.424ZM322.715 210.5V204.277H323.664V205.221C323.906 204.779 324.129 204.488 324.332 204.348C324.539 204.207 324.766 204.137 325.012 204.137C325.367 204.137 325.729 204.25 326.096 204.477L325.732 205.455C325.475 205.303 325.217 205.227 324.959 205.227C324.729 205.227 324.521 205.297 324.338 205.438C324.154 205.574 324.023 205.766 323.945 206.012C323.828 206.387 323.77 206.797 323.77 207.242V210.5H322.715ZM326.33 207.389C326.33 206.236 326.65 205.383 327.291 204.828C327.826 204.367 328.479 204.137 329.248 204.137C330.104 204.137 330.803 204.418 331.346 204.98C331.889 205.539 332.16 206.312 332.16 207.301C332.16 208.102 332.039 208.732 331.797 209.193C331.559 209.65 331.209 210.006 330.748 210.26C330.291 210.514 329.791 210.641 329.248 210.641C328.377 210.641 327.672 210.361 327.133 209.803C326.598 209.244 326.33 208.439 326.33 207.389ZM327.414 207.389C327.414 208.186 327.588 208.783 327.936 209.182C328.283 209.576 328.721 209.773 329.248 209.773C329.771 209.773 330.207 209.574 330.555 209.176C330.902 208.777 331.076 208.17 331.076 207.354C331.076 206.584 330.9 206.002 330.549 205.607C330.201 205.209 329.768 205.01 329.248 205.01C328.721 205.01 328.283 205.207 327.936 205.602C327.588 205.996 327.414 206.592 327.414 207.389ZM333.654 210.5V205.098H332.723V204.277H333.654V203.615C333.654 203.197 333.691 202.887 333.766 202.684C333.867 202.41 334.045 202.189 334.299 202.021C334.557 201.85 334.916 201.764 335.377 201.764C335.674 201.764 336.002 201.799 336.361 201.869L336.203 202.789C335.984 202.75 335.777 202.73 335.582 202.73C335.262 202.73 335.035 202.799 334.902 202.936C334.77 203.072 334.703 203.328 334.703 203.703V204.277H335.916V205.098H334.703V210.5H333.654ZM336.748 203.123V201.91H337.803V203.123H336.748ZM336.748 210.5V204.277H337.803V210.5H336.748ZM339.391 210.5V201.91H340.445V210.5H339.391ZM344.389 209.557L344.541 210.488C344.244 210.551 343.979 210.582 343.744 210.582C343.361 210.582 343.064 210.521 342.854 210.4C342.643 210.279 342.494 210.121 342.408 209.926C342.322 209.727 342.279 209.311 342.279 208.678V205.098H341.506V204.277H342.279V202.736L343.328 202.104V204.277H344.389V205.098H343.328V208.736C343.328 209.037 343.346 209.23 343.381 209.316C343.42 209.402 343.48 209.471 343.562 209.521C343.648 209.572 343.77 209.598 343.926 209.598C344.043 209.598 344.197 209.584 344.389 209.557ZM345.719 205.479V204.277H346.92V205.479H345.719ZM345.719 210.5V209.299H346.92V210.5H345.719ZM348.473 206.264C348.473 205.248 348.576 204.432 348.783 203.814C348.994 203.193 349.305 202.715 349.715 202.379C350.129 202.043 350.648 201.875 351.273 201.875C351.734 201.875 352.139 201.969 352.486 202.156C352.834 202.34 353.121 202.607 353.348 202.959C353.574 203.307 353.752 203.732 353.881 204.236C354.01 204.736 354.074 205.412 354.074 206.264C354.074 207.271 353.971 208.086 353.764 208.707C353.557 209.324 353.246 209.803 352.832 210.143C352.422 210.479 351.902 210.646 351.273 210.646C350.445 210.646 349.795 210.35 349.322 209.756C348.756 209.041 348.473 207.877 348.473 206.264ZM349.557 206.264C349.557 207.674 349.721 208.613 350.049 209.082C350.381 209.547 350.789 209.779 351.273 209.779C351.758 209.779 352.164 209.545 352.492 209.076C352.824 208.607 352.99 207.67 352.99 206.264C352.99 204.85 352.824 203.91 352.492 203.445C352.164 202.98 351.754 202.748 351.262 202.748C350.777 202.748 350.391 202.953 350.102 203.363C349.738 203.887 349.557 204.854 349.557 206.264ZM355.744 210.5V209.299H356.945V210.5H355.744ZM364.035 209.486V210.5H358.357C358.35 210.246 358.391 210.002 358.48 209.768C358.625 209.381 358.855 209 359.172 208.625C359.492 208.25 359.953 207.816 360.555 207.324C361.488 206.559 362.119 205.953 362.447 205.508C362.775 205.059 362.939 204.635 362.939 204.236C362.939 203.818 362.789 203.467 362.488 203.182C362.191 202.893 361.803 202.748 361.322 202.748C360.814 202.748 360.408 202.9 360.104 203.205C359.799 203.51 359.645 203.932 359.641 204.471L358.557 204.359C358.631 203.551 358.91 202.936 359.395 202.514C359.879 202.088 360.529 201.875 361.346 201.875C362.17 201.875 362.822 202.104 363.303 202.561C363.783 203.018 364.023 203.584 364.023 204.26C364.023 204.604 363.953 204.941 363.812 205.273C363.672 205.605 363.438 205.955 363.109 206.322C362.785 206.689 362.244 207.193 361.486 207.834C360.854 208.365 360.447 208.727 360.268 208.918C360.088 209.105 359.939 209.295 359.822 209.486H364.035ZM365.178 208.232L366.232 208.092C366.354 208.689 366.559 209.121 366.848 209.387C367.141 209.648 367.496 209.779 367.914 209.779C368.41 209.779 368.828 209.607 369.168 209.264C369.512 208.92 369.684 208.494 369.684 207.986C369.684 207.502 369.525 207.104 369.209 206.791C368.893 206.475 368.49 206.316 368.002 206.316C367.803 206.316 367.555 206.355 367.258 206.434L367.375 205.508C367.445 205.516 367.502 205.52 367.545 205.52C367.994 205.52 368.398 205.402 368.758 205.168C369.117 204.934 369.297 204.572 369.297 204.084C369.297 203.697 369.166 203.377 368.904 203.123C368.643 202.869 368.305 202.742 367.891 202.742C367.48 202.742 367.139 202.871 366.865 203.129C366.592 203.387 366.416 203.773 366.338 204.289L365.283 204.102C365.412 203.395 365.705 202.848 366.162 202.461C366.619 202.07 367.188 201.875 367.867 201.875C368.336 201.875 368.768 201.977 369.162 202.18C369.557 202.379 369.857 202.652 370.064 203C370.275 203.348 370.381 203.717 370.381 204.107C370.381 204.479 370.281 204.816 370.082 205.121C369.883 205.426 369.588 205.668 369.197 205.848C369.705 205.965 370.1 206.209 370.381 206.58C370.662 206.947 370.803 207.408 370.803 207.963C370.803 208.713 370.529 209.35 369.982 209.873C369.436 210.393 368.744 210.652 367.908 210.652C367.154 210.652 366.527 210.428 366.027 209.979C365.531 209.529 365.248 208.947 365.178 208.232ZM375.232 210.5V208.443H371.506V207.477L375.426 201.91H376.287V207.477H377.447V208.443H376.287V210.5H375.232ZM375.232 207.477V203.604L372.543 207.477H375.232ZM381.912 210.5V208.443H378.186V207.477L382.105 201.91H382.967V207.477H384.127V208.443H382.967V210.5H381.912ZM381.912 207.477V203.604L379.223 207.477H381.912ZM385.217 208.232L386.271 208.092C386.393 208.689 386.598 209.121 386.887 209.387C387.18 209.648 387.535 209.779 387.953 209.779C388.449 209.779 388.867 209.607 389.207 209.264C389.551 208.92 389.723 208.494 389.723 207.986C389.723 207.502 389.564 207.104 389.248 206.791C388.932 206.475 388.529 206.316 388.041 206.316C387.842 206.316 387.594 206.355 387.297 206.434L387.414 205.508C387.484 205.516 387.541 205.52 387.584 205.52C388.033 205.52 388.438 205.402 388.797 205.168C389.156 204.934 389.336 204.572 389.336 204.084C389.336 203.697 389.205 203.377 388.943 203.123C388.682 202.869 388.344 202.742 387.93 202.742C387.52 202.742 387.178 202.871 386.904 203.129C386.631 203.387 386.455 203.773 386.377 204.289L385.322 204.102C385.451 203.395 385.744 202.848 386.201 202.461C386.658 202.07 387.227 201.875 387.906 201.875C388.375 201.875 388.807 201.977 389.201 202.18C389.596 202.379 389.896 202.652 390.104 203C390.314 203.348 390.42 203.717 390.42 204.107C390.42 204.479 390.32 204.816 390.121 205.121C389.922 205.426 389.627 205.668 389.236 205.848C389.744 205.965 390.139 206.209 390.42 206.58C390.701 206.947 390.842 207.408 390.842 207.963C390.842 208.713 390.568 209.35 390.021 209.873C389.475 210.393 388.783 210.652 387.947 210.652C387.193 210.652 386.566 210.428 386.066 209.979C385.57 209.529 385.287 208.947 385.217 208.232ZM395.611 210.5V201.91H398.834C399.49 201.91 400.016 201.998 400.41 202.174C400.809 202.346 401.119 202.613 401.342 202.977C401.568 203.336 401.682 203.713 401.682 204.107C401.682 204.475 401.582 204.82 401.383 205.145C401.184 205.469 400.883 205.73 400.48 205.93C401 206.082 401.398 206.342 401.676 206.709C401.957 207.076 402.098 207.51 402.098 208.01C402.098 208.412 402.012 208.787 401.84 209.135C401.672 209.479 401.463 209.744 401.213 209.932C400.963 210.119 400.648 210.262 400.27 210.359C399.895 210.453 399.434 210.5 398.887 210.5H395.611ZM396.748 205.52H398.605C399.109 205.52 399.471 205.486 399.689 205.42C399.979 205.334 400.195 205.191 400.34 204.992C400.488 204.793 400.562 204.543 400.562 204.242C400.562 203.957 400.494 203.707 400.357 203.492C400.221 203.273 400.025 203.125 399.771 203.047C399.518 202.965 399.082 202.924 398.465 202.924H396.748V205.52ZM396.748 209.486H398.887C399.254 209.486 399.512 209.473 399.66 209.445C399.922 209.398 400.141 209.32 400.316 209.211C400.492 209.102 400.637 208.943 400.75 208.736C400.863 208.525 400.92 208.283 400.92 208.01C400.92 207.689 400.838 207.412 400.674 207.178C400.51 206.939 400.281 206.773 399.988 206.68C399.699 206.582 399.281 206.533 398.734 206.533H396.748V209.486ZM405.848 210.5V202.924H403.018V201.91H409.826V202.924H406.984V210.5H405.848ZM417.127 207.488L418.264 207.775C418.025 208.709 417.596 209.422 416.975 209.914C416.357 210.402 415.602 210.646 414.707 210.646C413.781 210.646 413.027 210.459 412.445 210.084C411.867 209.705 411.426 209.158 411.121 208.443C410.82 207.729 410.67 206.961 410.67 206.141C410.67 205.246 410.84 204.467 411.18 203.803C411.523 203.135 412.01 202.629 412.639 202.285C413.271 201.938 413.967 201.764 414.725 201.764C415.584 201.764 416.307 201.982 416.893 202.42C417.479 202.857 417.887 203.473 418.117 204.266L416.998 204.529C416.799 203.904 416.51 203.449 416.131 203.164C415.752 202.879 415.275 202.736 414.701 202.736C414.041 202.736 413.488 202.895 413.043 203.211C412.602 203.527 412.291 203.953 412.111 204.488C411.932 205.02 411.842 205.568 411.842 206.135C411.842 206.865 411.947 207.504 412.158 208.051C412.373 208.594 412.705 209 413.154 209.27C413.604 209.539 414.09 209.674 414.613 209.674C415.25 209.674 415.789 209.49 416.23 209.123C416.672 208.756 416.971 208.211 417.127 207.488Z" fill="#D6D6D6"/>
</g>
<defs>
<filter id="filter0_d_19_32123" x="327.758" y="88.1484" width="35.2876" height="21.1035" filterUnits="userSpaceOnUse" color-interpolation-filters="sRGB">
<feFlood flood-opacity="0" result="BackgroundImageFix"/>
<feColorMatrix in="SourceAlpha" type="matrix" values="0 0 0 0 0 0 0 0 0 0 0 0 0 0 0 0 0 0 127 0" result="hardAlpha"/>
<feOffset dy="2"/>
<feGaussianBlur stdDeviation="2"/>
<feComposite in2="hardAlpha" operator="out"/>
<feColorMatrix type="matrix" values="0 0 0 0 0 0 0 0 0 0 0 0 0 0 0 0 0 0 0.3 0"/>
<feBlend mode="normal" in2="BackgroundImageFix" result="effect1_dropShadow_19_32123"/>
<feBlend mode="normal" in="SourceGraphic" in2="effect1_dropShadow_19_32123" result="shape"/>
</filter>
<linearGradient id="paint0_linear_19_32123" x1="61.0034" y1="213.491" x2="61.0034" y2="173.502" gradientUnits="userSpaceOnUse">
<stop stop-color="#F5AC04"/>
<stop offset="1" stop-color="#FEFAA7"/>
</linearGradient>
<linearGradient id="paint1_linear_19_32123" x1="61.0034" y1="213.491" x2="61.0034" y2="173.502" gradientUnits="userSpaceOnUse">
<stop stop-color="#FEC627"/>
<stop offset="1" stop-color="#FFFED0"/>
</linearGradient>
<linearGradient id="paint2_linear_19_32123" x1="61.0034" y1="211.093" x2="61.0034" y2="175.899" gradientUnits="userSpaceOnUse">
<stop stop-color="#FFDE02"/>
<stop offset="1" stop-color="#FAD66F"/>
</linearGradient>
<linearGradient id="paint3_linear_19_32123" x1="61.0036" y1="209.629" x2="61.0036" y2="177.364" gradientUnits="userSpaceOnUse">
<stop stop-color="#F5B502"/>
<stop offset="1" stop-color="#FDE768"/>
</linearGradient>
<linearGradient id="paint4_linear_19_32123" x1="61.0036" y1="209.629" x2="61.0036" y2="177.364" gradientUnits="userSpaceOnUse">
<stop stop-color="#F5C218"/>
<stop offset="0.257" stop-color="#FEE76A" stop-opacity="0"/>
</linearGradient>
<linearGradient id="paint5_linear_19_32123" x1="288.5" y1="213.272" x2="288.5" y2="173.727" gradientUnits="userSpaceOnUse">
<stop stop-color="#98B8C0"/>
<stop offset="1" stop-color="#ECF6F4"/>
</linearGradient>
<linearGradient id="paint6_linear_19_32123" x1="288.5" y1="213.496" x2="288.5" y2="173.504" gradientUnits="userSpaceOnUse">
<stop stop-color="#B9D3D8"/>
<stop offset="0.2216" stop-color="#C2D9DD"/>
<stop offset="0.5898" stop-color="#DCE9EB"/>
<stop offset="0.9944" stop-color="white"/>
</linearGradient>
<linearGradient id="paint7_linear_19_32123" x1="288.5" y1="211.098" x2="288.5" y2="175.901" gradientUnits="userSpaceOnUse">
<stop stop-color="#C9E2E1"/>
<stop offset="1" stop-color="#D1E3E4"/>
</linearGradient>
<linearGradient id="paint8_linear_19_32123" x1="288.5" y1="209.633" x2="288.5" y2="177.365" gradientUnits="userSpaceOnUse">
<stop stop-color="#9AB9C2"/>
<stop offset="1" stop-color="#DCEAEC"/>
</linearGradient>
<linearGradient id="paint9_linear_19_32123" x1="288.5" y1="209.633" x2="288.5" y2="177.365" gradientUnits="userSpaceOnUse">
<stop stop-color="#A7C6D0"/>
<stop offset="0.257" stop-color="white" stop-opacity="0"/>
</linearGradient>
<clipPath id="clip0_19_32123">
<rect width="93" height="35" fill="white" transform="translate(78.5 79)"/>
</clipPath>
<clipPath id="clip1_19_32123">
<rect width="14" height="14" fill="white" transform="translate(78.5 79)"/>
</clipPath>
<clipPath id="clip2_19_32123">
<rect width="167.997" height="40" fill="white" transform="translate(41.0015 173.5)"/>
</clipPath>
<clipPath id="clip3_19_32123">
<rect width="153" height="40" fill="white" transform="translate(268.5 173.5)"/>
</clipPath>
</defs>
</svg>
