<svg width="460" height="290" viewBox="0 0 460 290" fill="none" xmlns="http://www.w3.org/2000/svg">
<rect width="460" height="290" rx="10" fill="#0D131C"/>
<rect x="25.5" y="58.5" width="199" height="76" rx="9.5" fill="#161F2C"/>
<rect x="33" y="66" width="35" height="26.5" rx="10" fill="#383C45"/>
<path d="M38.254 78.582H49.772V79.57H44.013V83.444L44.702 83.327V84.276C44.494 84.315 44.26 84.354 44.013 84.406V85.628H42.83V84.562C41.647 84.705 40.178 84.835 38.423 84.952L38.267 83.912L39.385 83.86V79.57H38.254V78.582ZM40.516 83.795C41.361 83.743 42.128 83.678 42.83 83.6V82.898H40.516V83.795ZM40.516 82.014H42.83V81.221H40.516V82.014ZM40.516 80.337H42.83V79.57H40.516V80.337ZM39.788 73.993H48.29V77.932H39.788V73.993ZM47.107 77.074V76.385H40.971V77.074H47.107ZM40.971 75.54H47.107V74.89H40.971V75.54ZM44.962 81.234H44.559V80.233H49.083V81.169C48.862 82.105 48.472 82.911 47.913 83.6C48.446 83.977 49.083 84.315 49.824 84.614L49.187 85.641C48.381 85.264 47.705 84.848 47.133 84.393C46.535 84.887 45.846 85.303 45.053 85.641L44.416 84.692C45.157 84.38 45.781 84.029 46.301 83.613C45.638 82.885 45.196 82.092 44.962 81.234ZM47.055 82.885C47.471 82.378 47.783 81.832 47.978 81.234H46.028C46.236 81.832 46.574 82.391 47.055 82.885ZM56.285 85.446H54.374L54.075 84.159C54.699 84.211 55.271 84.25 55.817 84.25C56.311 84.25 56.571 83.99 56.571 83.483V73.785H57.858V83.808C57.858 84.9 57.325 85.446 56.285 85.446ZM53.074 76.801L54.309 77.295C53.711 79.856 52.918 81.819 51.943 83.171L50.864 82.222C51.852 80.87 52.593 79.063 53.074 76.801ZM60.9 76.476C61.836 78.764 62.564 80.753 63.071 82.469L61.953 83.236C61.407 81.429 60.679 79.414 59.769 77.178L60.9 76.476Z" fill="#7C8499"/>
<rect x="33" y="100.5" width="35" height="26.5" rx="10" fill="#383C45"/>
<path d="M36.5646 108.54H38.4996L42.2346 117.12H42.2796L45.9996 108.54H47.9346V119.25H46.2996V111.6H46.2396L42.9546 119.25H41.5446L38.2596 111.6H38.1996V119.25H36.5646V108.54ZM53.3862 111.285C54.5262 111.285 55.3662 111.57 55.9062 112.14C56.3712 112.635 56.6112 113.355 56.6112 114.3V119.25H55.1412V118.155C54.8412 118.545 54.4662 118.86 54.0162 119.085C53.5062 119.325 52.9062 119.46 52.2162 119.46C51.4062 119.46 50.7762 119.25 50.3262 118.845C49.8312 118.44 49.5912 117.915 49.5912 117.27C49.5912 116.4 49.9362 115.725 50.6262 115.26C51.2562 114.81 52.1562 114.585 53.2962 114.555L55.0362 114.51V114.195C55.0362 113.115 54.4512 112.575 53.2812 112.575C52.7862 112.575 52.3812 112.665 52.0812 112.845C51.7212 113.055 51.4962 113.37 51.4062 113.805L49.8312 113.67C49.9962 112.83 50.4162 112.2 51.0762 111.81C51.6462 111.45 52.4262 111.285 53.3862 111.285ZM55.0362 115.665L53.4012 115.71C51.9462 115.74 51.2262 116.25 51.2262 117.21C51.2262 117.51 51.3462 117.75 51.6012 117.945C51.8412 118.14 52.1712 118.245 52.5762 118.245C53.2512 118.245 53.8212 118.035 54.3012 117.63C54.7812 117.225 55.0362 116.715 55.0362 116.115V115.665ZM57.9513 111.495H59.8113L61.5213 113.955L63.2163 111.495H65.0763L62.3913 115.125L65.4063 119.25H63.5463L61.5213 116.295L59.4813 119.25H57.6063L60.6363 115.125L57.9513 111.495Z" fill="#7C8499"/>
<g clip-path="url(#clip0_19_31885)">
<g clip-path="url(#clip1_19_31885)">
<path d="M92.2898 87.6933C91.3549 91.4434 87.5567 93.7256 83.8062 92.7904C80.0573 91.8555 77.7751 88.0571 78.7104 84.3074C79.6449 80.5569 83.4431 78.2746 87.1924 79.2095C90.9426 80.1444 93.2247 83.9432 92.2897 87.6934L92.2898 87.6933H92.2898Z" fill="#F7931A"/>
<path d="M88.5867 85.0025C88.7261 84.0709 88.0168 83.5702 87.047 83.2361L87.3616 81.9743L86.5935 81.7829L86.2872 83.0115C86.0853 82.9611 85.8779 82.9137 85.6718 82.8666L85.9803 81.6299L85.2126 81.4385L84.8979 82.6999C84.7308 82.6619 84.5666 82.6243 84.4074 82.5847L84.4083 82.5807L83.349 82.3162L83.1447 83.1366C83.1447 83.1366 83.7146 83.2672 83.7026 83.2753C84.0136 83.3529 84.0699 83.5588 84.0605 83.722L83.7021 85.1596C83.7236 85.165 83.7513 85.1729 83.782 85.1852C83.7564 85.1788 83.7291 85.1719 83.7008 85.1651L83.1985 87.1789C83.1605 87.2734 83.064 87.4152 82.8465 87.3614C82.8542 87.3725 82.2882 87.2221 82.2882 87.2221L81.9069 88.1013L82.9065 88.3505C83.0924 88.3972 83.2747 88.446 83.4541 88.4918L83.1363 89.7682L83.9035 89.9596L84.2183 88.6968C84.4279 88.7537 84.6313 88.8062 84.8304 88.8556L84.5167 90.1125L85.2849 90.3039L85.6027 89.0299C86.9125 89.2778 87.8974 89.1779 88.312 87.9931C88.646 87.0393 88.2953 86.4891 87.6063 86.1303C88.1082 86.0146 88.4862 85.6845 88.587 85.0026L88.5868 85.0024L88.5867 85.0025ZM86.8317 87.4634C86.5943 88.4173 84.9883 87.9017 84.4676 87.7724L84.8894 86.0814C85.4101 86.2114 87.0798 86.4686 86.8318 87.4634H86.8317ZM87.0693 84.9886C86.8527 85.8563 85.516 85.4155 85.0824 85.3074L85.4648 83.7738C85.8985 83.8819 87.2949 84.0836 87.0693 84.9886H87.0693Z" fill="white"/>
</g>
<path d="M100.825 81.9375C101.796 81.9375 102.555 82.2839 103.102 82.9766C103.753 83.7969 104.079 85.1572 104.079 87.0576C104.079 88.9535 103.751 90.3161 103.095 91.1455C102.552 91.8291 101.796 92.1709 100.825 92.1709C99.8499 92.1709 99.0638 91.7972 98.4668 91.0498C97.8698 90.2979 97.5713 88.9603 97.5713 87.0371C97.5713 85.1504 97.8994 83.7923 98.5557 82.9629C99.098 82.2793 99.8545 81.9375 100.825 81.9375ZM100.825 83.5303C100.593 83.5303 100.385 83.6055 100.203 83.7559C100.021 83.9017 99.8796 84.166 99.7793 84.5488C99.6471 85.0456 99.5811 85.8818 99.5811 87.0576C99.5811 88.2334 99.6403 89.0423 99.7588 89.4844C99.8773 89.9219 100.025 90.2135 100.203 90.3594C100.385 90.5052 100.593 90.5781 100.825 90.5781C101.058 90.5781 101.265 90.5052 101.447 90.3594C101.63 90.209 101.771 89.9424 101.871 89.5596C102.003 89.0674 102.069 88.2334 102.069 87.0576C102.069 85.8818 102.01 85.0752 101.892 84.6377C101.773 84.1956 101.623 83.9017 101.44 83.7559C101.263 83.6055 101.058 83.5303 100.825 83.5303ZM105.781 92V90.0791H107.702V92H105.781ZM112.515 81.9375C113.485 81.9375 114.244 82.2839 114.791 82.9766C115.443 83.7969 115.769 85.1572 115.769 87.0576C115.769 88.9535 115.44 90.3161 114.784 91.1455C114.242 91.8291 113.485 92.1709 112.515 92.1709C111.539 92.1709 110.753 91.7972 110.156 91.0498C109.559 90.2979 109.261 88.9603 109.261 87.0371C109.261 85.1504 109.589 83.7923 110.245 82.9629C110.787 82.2793 111.544 81.9375 112.515 81.9375ZM112.515 83.5303C112.282 83.5303 112.075 83.6055 111.893 83.7559C111.71 83.9017 111.569 84.166 111.469 84.5488C111.337 85.0456 111.271 85.8818 111.271 87.0576C111.271 88.2334 111.33 89.0423 111.448 89.4844C111.567 89.9219 111.715 90.2135 111.893 90.3594C112.075 90.5052 112.282 90.5781 112.515 90.5781C112.747 90.5781 112.954 90.5052 113.137 90.3594C113.319 90.209 113.46 89.9424 113.561 89.5596C113.693 89.0674 113.759 88.2334 113.759 87.0576C113.759 85.8818 113.7 85.0752 113.581 84.6377C113.463 84.1956 113.312 83.9017 113.13 83.7559C112.952 83.6055 112.747 83.5303 112.515 83.5303ZM120.308 81.9375C121.278 81.9375 122.037 82.2839 122.584 82.9766C123.236 83.7969 123.562 85.1572 123.562 87.0576C123.562 88.9535 123.233 90.3161 122.577 91.1455C122.035 91.8291 121.278 92.1709 120.308 92.1709C119.332 92.1709 118.546 91.7972 117.949 91.0498C117.352 90.2979 117.054 88.9603 117.054 87.0371C117.054 85.1504 117.382 83.7923 118.038 82.9629C118.58 82.2793 119.337 81.9375 120.308 81.9375ZM120.308 83.5303C120.075 83.5303 119.868 83.6055 119.686 83.7559C119.503 83.9017 119.362 84.166 119.262 84.5488C119.13 85.0456 119.063 85.8818 119.063 87.0576C119.063 88.2334 119.123 89.0423 119.241 89.4844C119.36 89.9219 119.508 90.2135 119.686 90.3594C119.868 90.5052 120.075 90.5781 120.308 90.5781C120.54 90.5781 120.747 90.5052 120.93 90.3594C121.112 90.209 121.253 89.9424 121.354 89.5596C121.486 89.0674 121.552 88.2334 121.552 87.0576C121.552 85.8818 121.493 85.0752 121.374 84.6377C121.256 84.1956 121.105 83.9017 120.923 83.7559C120.745 83.6055 120.54 83.5303 120.308 83.5303ZM128.101 81.9375C129.071 81.9375 129.83 82.2839 130.377 82.9766C131.029 83.7969 131.354 85.1572 131.354 87.0576C131.354 88.9535 131.026 90.3161 130.37 91.1455C129.828 91.8291 129.071 92.1709 128.101 92.1709C127.125 92.1709 126.339 91.7972 125.742 91.0498C125.145 90.2979 124.847 88.9603 124.847 87.0371C124.847 85.1504 125.175 83.7923 125.831 82.9629C126.373 82.2793 127.13 81.9375 128.101 81.9375ZM128.101 83.5303C127.868 83.5303 127.661 83.6055 127.479 83.7559C127.296 83.9017 127.155 84.166 127.055 84.5488C126.923 85.0456 126.856 85.8818 126.856 87.0576C126.856 88.2334 126.916 89.0423 127.034 89.4844C127.153 89.9219 127.301 90.2135 127.479 90.3594C127.661 90.5052 127.868 90.5781 128.101 90.5781C128.333 90.5781 128.54 90.5052 128.723 90.3594C128.905 90.209 129.046 89.9424 129.146 89.5596C129.279 89.0674 129.345 88.2334 129.345 87.0576C129.345 85.8818 129.285 85.0752 129.167 84.6377C129.049 84.1956 128.898 83.9017 128.716 83.7559C128.538 83.6055 128.333 83.5303 128.101 83.5303ZM135.894 81.9375C136.864 81.9375 137.623 82.2839 138.17 82.9766C138.822 83.7969 139.147 85.1572 139.147 87.0576C139.147 88.9535 138.819 90.3161 138.163 91.1455C137.621 91.8291 136.864 92.1709 135.894 92.1709C134.918 92.1709 134.132 91.7972 133.535 91.0498C132.938 90.2979 132.64 88.9603 132.64 87.0371C132.64 85.1504 132.968 83.7923 133.624 82.9629C134.166 82.2793 134.923 81.9375 135.894 81.9375ZM135.894 83.5303C135.661 83.5303 135.454 83.6055 135.271 83.7559C135.089 83.9017 134.948 84.166 134.848 84.5488C134.715 85.0456 134.649 85.8818 134.649 87.0576C134.649 88.2334 134.709 89.0423 134.827 89.4844C134.946 89.9219 135.094 90.2135 135.271 90.3594C135.454 90.5052 135.661 90.5781 135.894 90.5781C136.126 90.5781 136.333 90.5052 136.516 90.3594C136.698 90.209 136.839 89.9424 136.939 89.5596C137.072 89.0674 137.138 88.2334 137.138 87.0576C137.138 85.8818 137.078 85.0752 136.96 84.6377C136.841 84.1956 136.691 83.9017 136.509 83.7559C136.331 83.6055 136.126 83.5303 135.894 83.5303ZM145.354 92H143.434V84.7607C142.732 85.417 141.905 85.9023 140.952 86.2168V84.4736C141.453 84.3096 141.998 83.9997 142.586 83.5439C143.174 83.0837 143.577 82.5482 143.796 81.9375H145.354V92ZM151.479 81.9375C152.45 81.9375 153.209 82.2839 153.756 82.9766C154.408 83.7969 154.733 85.1572 154.733 87.0576C154.733 88.9535 154.405 90.3161 153.749 91.1455C153.207 91.8291 152.45 92.1709 151.479 92.1709C150.504 92.1709 149.718 91.7972 149.121 91.0498C148.524 90.2979 148.226 88.9603 148.226 87.0371C148.226 85.1504 148.554 83.7923 149.21 82.9629C149.752 82.2793 150.509 81.9375 151.479 81.9375ZM151.479 83.5303C151.247 83.5303 151.04 83.6055 150.857 83.7559C150.675 83.9017 150.534 84.166 150.434 84.5488C150.301 85.0456 150.235 85.8818 150.235 87.0576C150.235 88.2334 150.295 89.0423 150.413 89.4844C150.532 89.9219 150.68 90.2135 150.857 90.3594C151.04 90.5052 151.247 90.5781 151.479 90.5781C151.712 90.5781 151.919 90.5052 152.102 90.3594C152.284 90.209 152.425 89.9424 152.525 89.5596C152.658 89.0674 152.724 88.2334 152.724 87.0576C152.724 85.8818 152.664 85.0752 152.546 84.6377C152.427 84.1956 152.277 83.9017 152.095 83.7559C151.917 83.6055 151.712 83.5303 151.479 83.5303ZM159.272 81.9375C160.243 81.9375 161.002 82.2839 161.549 82.9766C162.201 83.7969 162.526 85.1572 162.526 87.0576C162.526 88.9535 162.198 90.3161 161.542 91.1455C161 91.8291 160.243 92.1709 159.272 92.1709C158.297 92.1709 157.511 91.7972 156.914 91.0498C156.317 90.2979 156.019 88.9603 156.019 87.0371C156.019 85.1504 156.347 83.7923 157.003 82.9629C157.545 82.2793 158.302 81.9375 159.272 81.9375ZM159.272 83.5303C159.04 83.5303 158.833 83.6055 158.65 83.7559C158.468 83.9017 158.327 84.166 158.227 84.5488C158.094 85.0456 158.028 85.8818 158.028 87.0576C158.028 88.2334 158.088 89.0423 158.206 89.4844C158.325 89.9219 158.473 90.2135 158.65 90.3594C158.833 90.5052 159.04 90.5781 159.272 90.5781C159.505 90.5781 159.712 90.5052 159.895 90.3594C160.077 90.209 160.218 89.9424 160.318 89.5596C160.451 89.0674 160.517 88.2334 160.517 87.0576C160.517 85.8818 160.457 85.0752 160.339 84.6377C160.22 84.1956 160.07 83.9017 159.888 83.7559C159.71 83.6055 159.505 83.5303 159.272 83.5303ZM167.065 81.9375C168.036 81.9375 168.795 82.2839 169.342 82.9766C169.993 83.7969 170.319 85.1572 170.319 87.0576C170.319 88.9535 169.991 90.3161 169.335 91.1455C168.793 91.8291 168.036 92.1709 167.065 92.1709C166.09 92.1709 165.304 91.7972 164.707 91.0498C164.11 90.2979 163.812 88.9603 163.812 87.0371C163.812 85.1504 164.14 83.7923 164.796 82.9629C165.338 82.2793 166.095 81.9375 167.065 81.9375ZM167.065 83.5303C166.833 83.5303 166.626 83.6055 166.443 83.7559C166.261 83.9017 166.12 84.166 166.02 84.5488C165.887 85.0456 165.821 85.8818 165.821 87.0576C165.821 88.2334 165.881 89.0423 165.999 89.4844C166.118 89.9219 166.266 90.2135 166.443 90.3594C166.626 90.5052 166.833 90.5781 167.065 90.5781C167.298 90.5781 167.505 90.5052 167.688 90.3594C167.87 90.209 168.011 89.9424 168.111 89.5596C168.243 89.0674 168.31 88.2334 168.31 87.0576C168.31 85.8818 168.25 85.0752 168.132 84.6377C168.013 84.1956 167.863 83.9017 167.681 83.7559C167.503 83.6055 167.298 83.5303 167.065 83.5303Z" fill="white"/>
<path d="M99.7314 109.623V106.963C98.902 106.726 98.2926 106.368 97.9033 105.89C97.5182 105.408 97.3257 104.824 97.3257 104.138C97.3257 103.444 97.5436 102.862 97.9795 102.393C98.4196 101.919 99.0036 101.646 99.7314 101.574V100.945H100.652V101.574C101.325 101.654 101.86 101.885 102.258 102.266C102.656 102.642 102.91 103.148 103.02 103.783L101.414 103.992C101.316 103.493 101.062 103.154 100.652 102.977V105.458C101.667 105.734 102.359 106.091 102.728 106.531C103.096 106.967 103.28 107.528 103.28 108.213C103.28 108.979 103.047 109.625 102.582 110.149C102.12 110.674 101.477 110.996 100.652 111.114V112.301H99.7314V111.146C98.9993 111.057 98.4048 110.784 97.9478 110.327C97.4907 109.87 97.1987 109.225 97.0718 108.391L98.7285 108.213C98.7962 108.552 98.9232 108.844 99.1094 109.089C99.2956 109.335 99.5029 109.513 99.7314 109.623ZM99.7314 102.958C99.4818 103.042 99.2829 103.186 99.1348 103.389C98.9867 103.592 98.9126 103.817 98.9126 104.062C98.9126 104.286 98.9803 104.496 99.1157 104.69C99.2511 104.881 99.4564 105.035 99.7314 105.154V102.958ZM100.652 109.711C100.969 109.652 101.227 109.506 101.426 109.273C101.625 109.036 101.725 108.759 101.725 108.442C101.725 108.158 101.64 107.915 101.471 107.712C101.306 107.505 101.033 107.346 100.652 107.236V109.711ZM107.914 111V109.127H104.105V107.566L108.142 101.656H109.64V107.56H110.795V109.127H109.64V111H107.914ZM107.914 107.56V104.379L105.774 107.56H107.914ZM112.033 111V109.216H113.817V111H112.033ZM118.768 111V109.127H114.959V107.566L118.997 101.656H120.495V107.56H121.65V109.127H120.495V111H118.768ZM118.768 107.56V104.379L116.629 107.56H118.768ZM125.522 101.656C126.423 101.656 127.128 101.978 127.636 102.621C128.241 103.383 128.543 104.646 128.543 106.411C128.543 108.171 128.239 109.436 127.629 110.207C127.126 110.841 126.423 111.159 125.522 111.159C124.616 111.159 123.886 110.812 123.332 110.118C122.778 109.419 122.5 108.177 122.5 106.392C122.5 104.64 122.805 103.379 123.415 102.608C123.918 101.974 124.621 101.656 125.522 101.656ZM125.522 103.135C125.306 103.135 125.114 103.205 124.944 103.345C124.775 103.48 124.644 103.726 124.551 104.081C124.428 104.542 124.367 105.319 124.367 106.411C124.367 107.502 124.422 108.254 124.532 108.664C124.642 109.07 124.779 109.341 124.944 109.477C125.114 109.612 125.306 109.68 125.522 109.68C125.738 109.68 125.93 109.612 126.1 109.477C126.269 109.337 126.4 109.089 126.493 108.734C126.616 108.277 126.677 107.502 126.677 106.411C126.677 105.319 126.622 104.57 126.512 104.164C126.402 103.753 126.263 103.48 126.093 103.345C125.928 103.205 125.738 103.135 125.522 103.135ZM132.758 101.656C133.66 101.656 134.364 101.978 134.872 102.621C135.477 103.383 135.78 104.646 135.78 106.411C135.78 108.171 135.475 109.436 134.866 110.207C134.362 110.841 133.66 111.159 132.758 111.159C131.853 111.159 131.123 110.812 130.568 110.118C130.014 109.419 129.737 108.177 129.737 106.392C129.737 104.64 130.042 103.379 130.651 102.608C131.154 101.974 131.857 101.656 132.758 101.656ZM132.758 103.135C132.542 103.135 132.35 103.205 132.181 103.345C132.011 103.48 131.88 103.726 131.787 104.081C131.664 104.542 131.603 105.319 131.603 106.411C131.603 107.502 131.658 108.254 131.768 108.664C131.878 109.07 132.016 109.341 132.181 109.477C132.35 109.612 132.542 109.68 132.758 109.68C132.974 109.68 133.167 109.612 133.336 109.477C133.505 109.337 133.636 109.089 133.729 108.734C133.852 108.277 133.914 107.502 133.914 106.411C133.914 105.319 133.859 104.57 133.749 104.164C133.639 103.753 133.499 103.48 133.33 103.345C133.165 103.205 132.974 103.135 132.758 103.135ZM139.995 101.656C140.896 101.656 141.601 101.978 142.108 102.621C142.714 103.383 143.016 104.646 143.016 106.411C143.016 108.171 142.711 109.436 142.102 110.207C141.598 110.841 140.896 111.159 139.995 111.159C139.089 111.159 138.359 110.812 137.805 110.118C137.25 109.419 136.973 108.177 136.973 106.392C136.973 104.64 137.278 103.379 137.887 102.608C138.391 101.974 139.093 101.656 139.995 101.656ZM139.995 103.135C139.779 103.135 139.586 103.205 139.417 103.345C139.248 103.48 139.117 103.726 139.023 104.081C138.901 104.542 138.839 105.319 138.839 106.411C138.839 107.502 138.894 108.254 139.004 108.664C139.114 109.07 139.252 109.341 139.417 109.477C139.586 109.612 139.779 109.68 139.995 109.68C140.21 109.68 140.403 109.612 140.572 109.477C140.742 109.337 140.873 109.089 140.966 108.734C141.089 108.277 141.15 107.502 141.15 106.411C141.15 105.319 141.095 104.57 140.985 104.164C140.875 103.753 140.735 103.48 140.566 103.345C140.401 103.205 140.21 103.135 139.995 103.135ZM147.231 101.656C148.132 101.656 148.837 101.978 149.345 102.621C149.95 103.383 150.252 104.646 150.252 106.411C150.252 108.171 149.948 109.436 149.338 110.207C148.835 110.841 148.132 111.159 147.231 111.159C146.325 111.159 145.595 110.812 145.041 110.118C144.487 109.419 144.209 108.177 144.209 106.392C144.209 104.64 144.514 103.379 145.124 102.608C145.627 101.974 146.33 101.656 147.231 101.656ZM147.231 103.135C147.015 103.135 146.823 103.205 146.653 103.345C146.484 103.48 146.353 103.726 146.26 104.081C146.137 104.542 146.076 105.319 146.076 106.411C146.076 107.502 146.131 108.254 146.241 108.664C146.351 109.07 146.488 109.341 146.653 109.477C146.823 109.612 147.015 109.68 147.231 109.68C147.447 109.68 147.639 109.612 147.809 109.477C147.978 109.337 148.109 109.089 148.202 108.734C148.325 108.277 148.386 107.502 148.386 106.411C148.386 105.319 148.331 104.57 148.221 104.164C148.111 103.753 147.972 103.48 147.802 103.345C147.637 103.205 147.447 103.135 147.231 103.135ZM154.467 101.656C155.369 101.656 156.073 101.978 156.581 102.621C157.186 103.383 157.489 104.646 157.489 106.411C157.489 108.171 157.184 109.436 156.575 110.207C156.071 110.841 155.369 111.159 154.467 111.159C153.562 111.159 152.832 110.812 152.277 110.118C151.723 109.419 151.446 108.177 151.446 106.392C151.446 104.64 151.75 103.379 152.36 102.608C152.863 101.974 153.566 101.656 154.467 101.656ZM154.467 103.135C154.251 103.135 154.059 103.205 153.89 103.345C153.72 103.48 153.589 103.726 153.496 104.081C153.373 104.542 153.312 105.319 153.312 106.411C153.312 107.502 153.367 108.254 153.477 108.664C153.587 109.07 153.725 109.341 153.89 109.477C154.059 109.612 154.251 109.68 154.467 109.68C154.683 109.68 154.876 109.612 155.045 109.477C155.214 109.337 155.345 109.089 155.438 108.734C155.561 108.277 155.623 107.502 155.623 106.411C155.623 105.319 155.568 104.57 155.458 104.164C155.347 103.753 155.208 103.48 155.039 103.345C154.874 103.205 154.683 103.135 154.467 103.135ZM161.704 101.656C162.605 101.656 163.31 101.978 163.817 102.621C164.423 103.383 164.725 104.646 164.725 106.411C164.725 108.171 164.42 109.436 163.811 110.207C163.307 110.841 162.605 111.159 161.704 111.159C160.798 111.159 160.068 110.812 159.514 110.118C158.959 109.419 158.682 108.177 158.682 106.392C158.682 104.64 158.987 103.379 159.596 102.608C160.1 101.974 160.802 101.656 161.704 101.656ZM161.704 103.135C161.488 103.135 161.295 103.205 161.126 103.345C160.957 103.48 160.826 103.726 160.732 104.081C160.61 104.542 160.548 105.319 160.548 106.411C160.548 107.502 160.603 108.254 160.713 108.664C160.823 109.07 160.961 109.341 161.126 109.477C161.295 109.612 161.488 109.68 161.704 109.68C161.919 109.68 162.112 109.612 162.281 109.477C162.451 109.337 162.582 109.089 162.675 108.734C162.798 108.277 162.859 107.502 162.859 106.411C162.859 105.319 162.804 104.57 162.694 104.164C162.584 103.753 162.444 103.48 162.275 103.345C162.11 103.205 161.919 103.135 161.704 103.135Z" fill="#7C8499"/>
</g>
<rect x="182" y="66" width="35" height="26.5" rx="10" fill="#383C45"/>
<path d="M191.671 74.04H192.901V84.75H191.266V76.005C190.621 76.62 189.796 77.07 188.806 77.355V75.735C189.286 75.615 189.781 75.405 190.321 75.105C190.861 74.775 191.311 74.43 191.671 74.04ZM199.999 72.45H201.379L196.144 86.25H194.749L199.999 72.45ZM206.479 73.83C207.499 73.83 208.354 74.115 209.014 74.715C209.659 75.315 209.989 76.08 209.989 77.025C209.989 77.955 209.629 78.795 208.939 79.56C208.519 79.995 207.784 80.565 206.719 81.285C205.564 82.05 204.874 82.725 204.649 83.31H210.004V84.75H202.624C202.624 83.685 202.969 82.755 203.689 81.945C204.079 81.48 204.889 80.835 206.104 79.995C206.824 79.485 207.334 79.08 207.634 78.765C208.114 78.225 208.369 77.64 208.369 77.01C208.369 76.41 208.204 75.96 207.874 75.66C207.544 75.36 207.049 75.21 206.419 75.21C205.744 75.21 205.234 75.435 204.889 75.9C204.529 76.35 204.349 76.995 204.319 77.865H202.684C202.699 76.665 203.044 75.705 203.719 74.985C204.409 74.205 205.339 73.83 206.479 73.83Z" fill="#7C8499"/>
<rect x="182" y="100.5" width="35" height="26.5" rx="10" fill="#383C45"/>
<path d="M195.691 108.33C196.711 108.33 197.566 108.615 198.226 109.215C198.871 109.815 199.201 110.58 199.201 111.525C199.201 112.455 198.841 113.295 198.151 114.06C197.731 114.495 196.996 115.065 195.931 115.785C194.776 116.55 194.086 117.225 193.861 117.81H199.216V119.25H191.836C191.836 118.185 192.181 117.255 192.901 116.445C193.291 115.98 194.101 115.335 195.316 114.495C196.036 113.985 196.546 113.58 196.846 113.265C197.326 112.725 197.581 112.14 197.581 111.51C197.581 110.91 197.416 110.46 197.086 110.16C196.756 109.86 196.261 109.71 195.631 109.71C194.956 109.71 194.446 109.935 194.101 110.4C193.741 110.85 193.561 111.495 193.531 112.365H191.896C191.911 111.165 192.256 110.205 192.931 109.485C193.621 108.705 194.551 108.33 195.691 108.33ZM200.44 111.495H202.3L204.01 113.955L205.705 111.495H207.565L204.88 115.125L207.895 119.25H206.035L204.01 116.295L201.97 119.25H200.095L203.125 115.125L200.44 111.495Z" fill="#7C8499"/>
<rect x="25.5" y="58.5" width="199" height="76" rx="9.5" stroke="#55657E"/>
<rect x="245" y="58" width="200" height="77" rx="10" fill="#F04E23"/>
<g filter="url(#filter0_d_19_31885)">
<path d="M334.416 101.002V102.622C332.58 103.27 330.51 103.81 328.17 104.224L327.954 102.568C330.42 102.172 332.58 101.65 334.416 101.002ZM330.816 88.15L332.418 88.762C331.554 90.94 330.69 92.704 329.79 94.072C330.474 94 331.176 93.91 331.896 93.802C332.22 93.19 332.544 92.56 332.904 91.894L334.398 92.434C332.868 95.242 331.59 97.312 330.546 98.608C331.752 98.356 332.976 98.014 334.2 97.582V99.112C332.184 99.796 330.294 100.246 328.494 100.48L328.044 98.95C328.35 98.824 328.602 98.662 328.818 98.464C329.394 97.852 330.132 96.826 331.014 95.35C330.114 95.476 329.16 95.602 328.188 95.746L327.774 94.18C328.026 94.072 328.26 93.856 328.476 93.55C329.376 91.93 330.168 90.13 330.816 88.15ZM334.146 90.328H338.304V88.294H340.014V90.328H344.154V91.984H340.014V94.252H343.632V95.908H334.74V94.252H338.304V91.984H334.146V90.328ZM343.254 97.312V104.8H341.598V104.08H336.846V104.8H335.172V97.312H343.254ZM336.846 102.46H341.598V98.932H336.846V102.46ZM348.024 92.272H355.044L353.73 91.426C354.612 90.4 355.242 89.302 355.62 88.132L357.258 88.492C357.15 88.762 357.06 89.032 356.97 89.284H361.812V90.724H359.13C359.382 91.048 359.58 91.372 359.742 91.66L358.356 92.164C358.086 91.66 357.78 91.192 357.456 90.724H356.268C355.944 91.282 355.566 91.804 355.17 92.272H360.192V99.58H358.086V100.516H362.028V102.01H358.086V104.89H356.412V102.01H351.624C351.444 102.478 351.21 102.874 350.922 103.216C350.292 103.936 349.284 104.476 347.88 104.872L346.998 103.522C348.24 103.18 349.086 102.748 349.554 102.244C349.626 102.154 349.68 102.082 349.716 102.01H345.972V100.516H350.238L350.274 100.138V99.58H348.024V92.272ZM351.966 99.58V100.138C351.966 100.264 351.948 100.39 351.948 100.516H356.412V99.58H351.966ZM358.518 98.284V97.456H349.698V98.284H358.518ZM349.698 96.268H358.518V95.53H349.698V96.268ZM349.698 94.36H358.518V93.568H349.698V94.36ZM348.834 90.796C348.42 91.48 347.952 92.128 347.43 92.704L346.008 91.804C347.088 90.652 347.862 89.428 348.33 88.096L349.95 88.456C349.824 88.78 349.698 89.068 349.59 89.356H353.766V90.796H351.768C351.984 91.084 352.164 91.372 352.326 91.642L350.922 92.146C350.67 91.678 350.382 91.228 350.058 90.796H348.834Z" fill="white"/>
</g>
<rect x="25" y="155" width="200" height="77" rx="6" fill="#4181EE"/>
<g clip-path="url(#clip2_19_31885)">
<path d="M80.9985 193.499C80.9985 204.536 72.0483 213.497 61 213.497C49.9629 213.497 41.0015 204.547 41.0015 193.499C41.0015 182.45 49.9517 173.5 61 173.5C72.0483 173.5 80.9985 182.45 80.9985 193.499Z" fill="url(#paint0_linear_19_31885)"/>
<path d="M61 173.946C66.2228 173.946 71.1332 175.977 74.8271 179.671C78.521 183.365 80.5521 188.276 80.5521 193.499C80.5521 198.721 78.521 203.632 74.8271 207.326C71.1332 211.02 66.2228 213.051 61 213.051C55.7772 213.051 50.8668 211.02 47.1729 207.326C43.479 203.632 41.4479 198.721 41.4479 193.499C41.4479 188.276 43.479 183.365 47.1729 179.671C50.878 175.977 55.7772 173.946 61 173.946ZM61 173.5C49.9629 173.5 41.0015 182.45 41.0015 193.499C41.0015 204.536 49.9517 213.497 61 213.497C72.0483 213.497 80.9985 204.547 80.9985 193.499C80.9985 182.45 72.0483 173.5 61 173.5Z" fill="url(#paint1_linear_19_31885)"/>
<path d="M78.5991 193.499C78.5991 203.219 70.7202 211.098 61 211.098C51.2797 211.098 43.4008 203.219 43.4008 193.499C43.412 183.778 51.2909 175.899 61 175.899C70.7202 175.899 78.5991 183.778 78.5991 193.499Z" fill="url(#paint2_linear_19_31885)"/>
<path d="M77.8515 193.498C77.8515 202.805 70.3074 210.349 61.0001 210.349C51.6927 210.349 44.1486 202.805 44.1486 193.498C44.1486 184.191 51.6927 176.646 61.0001 176.646C70.3074 176.646 77.8515 184.191 77.8515 193.498Z" fill="#EAA434"/>
<path d="M77.1372 193.499C77.1372 202.404 69.9167 209.636 60.9999 209.636C52.0943 209.636 44.8627 202.415 44.8627 193.499C44.8739 184.582 52.0943 177.361 60.9999 177.361C69.9167 177.361 77.1372 184.582 77.1372 193.499Z" fill="url(#paint3_linear_19_31885)"/>
<path d="M60.9999 177.919C65.1626 177.919 69.0685 179.538 72.0148 182.484C74.961 185.43 76.5792 189.336 76.5792 193.499C76.5792 197.661 74.961 201.567 72.0148 204.513C69.0685 207.46 65.1626 209.078 60.9999 209.078C56.8373 209.078 52.9313 207.46 49.9851 204.513C47.0389 201.567 45.4207 197.661 45.4207 193.499C45.4207 189.336 47.0389 185.43 49.9851 182.484C52.9313 179.538 56.8485 177.919 60.9999 177.919ZM60.9999 177.361C52.0943 177.361 44.8627 184.582 44.8627 193.499C44.8627 202.404 52.0832 209.636 60.9999 209.636C69.9055 209.636 77.1372 202.415 77.1372 193.499C77.1372 184.582 69.9167 177.361 60.9999 177.361Z" fill="url(#paint4_linear_19_31885)"/>
<path d="M60.8554 193.733C60.8554 193.733 66.8371 191.378 68.1204 189.381C69.4038 187.383 68.5668 186.1 67.4732 185.475C65.8773 184.548 64.2256 185.809 64.0806 185.954C64.3707 184.548 63.2882 183.153 61.3575 183.153C59.9737 183.153 58.9359 184.414 58.9359 186.01C58.947 188.242 60.8554 193.733 60.8554 193.733Z" fill="#B47400"/>
<path d="M60.8107 193.8C60.8107 193.8 58.8019 187.696 56.8824 186.289C54.9629 184.883 53.6349 185.653 52.943 186.714C51.9274 188.254 53.0992 189.972 53.2332 190.128C51.8382 189.76 50.3874 190.753 50.2758 192.684C50.1977 194.068 51.3918 195.173 52.9876 195.262C55.2196 195.396 60.8107 193.8 60.8107 193.8Z" fill="#B47400"/>
<path d="M60.8777 193.8C60.8777 193.8 54.6951 195.563 53.222 197.427C51.7489 199.29 52.452 200.641 53.4898 201.377C54.9964 202.449 56.7597 201.355 56.9159 201.221C56.4918 202.594 57.4293 204.089 59.3488 204.279C60.7215 204.413 61.8821 203.263 62.0272 201.668C62.2504 199.447 60.8777 193.8 60.8777 193.8Z" fill="#B47400"/>
<path d="M60.9111 193.778C60.9111 193.778 63.6453 199.592 65.721 200.753C67.7968 201.913 69.0244 200.987 69.5824 199.86C70.397 198.208 69.0355 196.646 68.8793 196.512C70.3078 196.702 71.6246 195.541 71.5019 193.61C71.4126 192.227 70.0957 191.278 68.4999 191.378C66.279 191.523 60.9111 193.778 60.9111 193.778Z" fill="#B47400"/>
<path d="M64.5939 203.062C64.3149 202.906 64.1921 202.694 63.969 202.315C62.0494 199.145 60.6321 193.722 60.6321 193.722L61.0897 193.409C61.0897 193.409 62.0718 196.199 62.6632 197.371C63.6007 199.235 63.835 199.48 65.4532 202.036C65.4532 202.036 65.8103 202.616 65.4086 202.906C64.8729 203.319 64.5939 203.062 64.5939 203.062Z" fill="#B47400"/>
<path d="M61.4017 192.952C61.0893 192.014 59.5604 187.405 59.5604 185.452C59.5604 183.923 60.5313 182.763 61.8147 182.763C62.7186 182.763 63.4775 183.086 63.9574 183.667C64.348 184.147 64.5042 184.76 64.3814 185.374C64.3703 185.452 64.4038 185.519 64.4707 185.553C64.493 185.564 64.5265 185.575 64.5488 185.575C64.5935 185.575 64.6381 185.553 64.6716 185.519C64.772 185.419 65.6537 184.749 66.6915 184.749C67.1045 184.749 67.495 184.85 67.8522 185.062C68.2874 185.307 68.8342 185.765 69.0128 186.479C69.169 187.137 68.9793 187.896 68.4436 188.733C67.3053 190.485 62.3615 192.561 61.4017 192.952Z" fill="#FBE993"/>
<path d="M61.8145 182.93C62.6738 182.93 63.3769 183.231 63.8233 183.767C64.1804 184.213 64.3255 184.771 64.2027 185.329C64.1693 185.474 64.2474 185.619 64.3701 185.697C64.4148 185.719 64.4706 185.731 64.5264 185.731C64.6157 185.731 64.7049 185.697 64.7607 185.63C64.7719 185.619 65.6089 184.916 66.6691 184.916C67.0485 184.916 67.4168 185.016 67.7516 185.206C68.1533 185.441 68.6667 185.853 68.8341 186.523C68.9792 187.137 68.8006 187.851 68.2873 188.655C67.2382 190.284 62.752 192.226 61.502 192.739C61.0891 191.523 59.7276 187.293 59.7276 185.463C59.7276 184.012 60.6204 182.93 61.8145 182.93ZM61.8145 182.595C60.4307 182.595 59.3928 183.856 59.3928 185.452C59.3928 187.684 61.3012 193.174 61.3012 193.174C61.3012 193.174 67.2829 190.82 68.5663 188.822C69.8496 186.824 69.0127 185.541 67.919 184.916C67.4949 184.67 67.0708 184.581 66.6691 184.581C65.5531 184.581 64.6268 185.295 64.5264 185.396C64.8165 183.99 63.7452 182.595 61.8145 182.595Z" fill="#D99202"/>
<path d="M53.7013 194.547C53.6121 194.547 53.5228 194.547 53.4335 194.536C52.697 194.491 52.0274 194.223 51.5475 193.777C51.0788 193.33 50.8333 192.75 50.8667 192.136C50.9672 190.44 52.0832 189.659 53.0764 189.659C53.255 189.659 53.4335 189.681 53.6121 189.726C53.6232 189.726 53.6455 189.726 53.6567 189.726C53.7125 189.726 53.7683 189.692 53.8018 189.648C53.8353 189.581 53.8353 189.503 53.7795 189.447C53.7683 189.436 52.5184 187.751 53.5116 186.233C53.8464 185.731 54.4267 185.128 55.3419 185.128C55.9222 185.128 56.5471 185.373 57.2167 185.853C58.9019 187.081 60.6986 192.125 61.0334 193.107C60.1294 193.386 55.7882 194.547 53.7013 194.547Z" fill="#FBE993"/>
<path d="M55.3529 184.983V185.318C55.8886 185.318 56.4912 185.553 57.1273 186.021C58.6897 187.16 60.3748 191.746 60.8212 193.03C59.6383 193.353 55.6654 194.391 53.7012 194.391C53.6119 194.391 53.5227 194.391 53.4445 194.38C52.7415 194.335 52.1165 194.09 51.6701 193.666C51.2349 193.253 51.0117 192.717 51.0452 192.159C51.1344 190.563 52.1723 189.838 53.0874 189.838C53.2548 189.838 53.4111 189.86 53.5785 189.905C53.6119 189.916 53.6343 189.916 53.6677 189.916C53.7793 189.916 53.8909 189.86 53.9579 189.76C54.036 189.637 54.0248 189.47 53.9244 189.358C53.9132 189.347 52.7526 187.751 53.6677 186.356C53.9802 185.887 54.5159 185.329 55.3529 185.329V184.983ZM55.3529 184.983C54.4712 184.983 53.8128 185.519 53.3887 186.166C52.3732 187.706 53.545 189.425 53.6789 189.581C53.4892 189.525 53.2995 189.503 53.0986 189.503C51.9045 189.503 50.8108 190.474 50.7215 192.137C50.6434 193.521 51.8375 194.626 53.4334 194.715C53.5227 194.715 53.6119 194.726 53.7012 194.726C56.0783 194.726 61.2453 193.253 61.2453 193.253C61.2453 193.253 59.2365 187.148 57.317 185.742C56.5805 185.195 55.922 184.983 55.3529 184.983Z" fill="#D99202"/>
<path d="M60.0177 203.563C59.9508 203.563 59.8838 203.563 59.8169 203.552C58.9129 203.463 58.1875 203.072 57.7746 202.447C57.4286 201.934 57.3394 201.298 57.5179 200.718C57.5402 200.651 57.5068 200.573 57.451 200.528C57.4175 200.506 57.3952 200.494 57.3617 200.494C57.3282 200.494 57.2836 200.506 57.2501 200.528C57.1385 200.617 56.3461 201.108 55.4087 201.108C54.8953 201.108 54.4378 200.963 54.036 200.673C53.6343 200.383 53.1209 199.881 53.0205 199.155C52.92 198.486 53.1879 197.749 53.8017 196.968C55.0962 195.339 60.2075 193.743 61.2007 193.441C61.4239 194.401 62.4952 199.133 62.3055 201.086C62.1716 202.526 61.2118 203.563 60.0177 203.563Z" fill="#FBE993"/>
<path d="M61.078 193.664C61.3681 194.914 62.3167 199.255 62.1382 201.086C62.0042 202.425 61.1115 203.407 60.0066 203.407C59.9508 203.407 59.8839 203.407 59.8169 203.396C58.9688 203.318 58.288 202.949 57.8974 202.369C57.5849 201.889 57.4956 201.331 57.663 200.773C57.7077 200.628 57.6519 200.483 57.5291 200.394C57.4733 200.36 57.4064 200.338 57.3394 200.338C57.2613 200.338 57.1832 200.36 57.1274 200.416C57.0158 200.505 56.2569 200.963 55.3864 200.963C54.9177 200.963 54.4825 200.829 54.1142 200.561C53.7348 200.293 53.266 199.825 53.1656 199.155C53.0763 198.53 53.333 197.838 53.9133 197.09C55.1409 195.55 59.7834 194.055 61.078 193.664ZM61.3235 193.24C61.3235 193.24 55.1409 195.003 53.6678 196.867C52.1947 198.731 52.8978 200.081 53.9356 200.818C54.4155 201.164 54.9289 201.287 55.4087 201.287C56.4131 201.287 57.2501 200.751 57.3617 200.673C56.9377 202.045 57.8751 203.541 59.7946 203.731C59.8727 203.742 59.9397 203.742 60.0066 203.742C61.29 203.742 62.3279 202.626 62.473 201.119C62.6962 198.887 61.3235 193.24 61.3235 193.24Z" fill="#D99202"/>
<path d="M67.9412 200.562C67.439 200.562 66.8699 200.395 66.2561 200.049C64.437 199.033 62.0488 194.245 61.5912 193.308C62.5064 192.929 67.0038 191.11 68.9568 190.987C69.0349 190.987 69.113 190.976 69.18 190.976C70.6084 190.976 71.7021 191.846 71.7802 193.051C71.836 193.888 71.6017 194.636 71.1218 195.138C70.7312 195.562 70.1955 195.786 69.6375 195.786C69.5371 195.786 69.4478 195.774 69.3474 195.763C69.3362 195.763 69.3362 195.763 69.3251 195.763C69.2581 195.763 69.2023 195.797 69.1688 195.864C69.1353 195.931 69.1577 196.009 69.2135 196.064C69.2246 196.076 70.6754 197.593 69.8719 199.212C69.6375 199.725 69.0572 200.562 67.9412 200.562Z" fill="#FBE993"/>
<path d="M69.18 191.154C70.5191 191.154 71.5459 191.969 71.6128 193.074C71.6686 193.866 71.4454 194.558 70.999 195.038C70.6419 195.417 70.1509 195.629 69.6375 195.629C69.5482 195.629 69.459 195.618 69.3697 195.607C69.3585 195.607 69.3362 195.607 69.325 195.607C69.1911 195.607 69.0795 195.685 69.0237 195.808C68.9679 195.942 69.0014 196.098 69.113 196.198C69.1242 196.21 70.4745 197.649 69.738 199.145C69.459 199.714 68.9233 200.383 67.9524 200.383C67.4725 200.383 66.9368 200.216 66.3453 199.892C64.649 198.955 62.4282 194.603 61.8256 193.386C63.0197 192.906 67.1377 191.266 68.9791 191.143C69.0349 191.154 69.113 191.154 69.18 191.154ZM69.18 190.819C69.1018 190.819 69.0237 190.819 68.9456 190.83C66.7248 190.976 61.3569 193.23 61.3569 193.23C61.3569 193.23 64.091 199.044 66.1668 200.205C66.8475 200.584 67.439 200.74 67.9412 200.74C68.9791 200.74 69.6487 200.071 70.0281 199.312C70.8428 197.66 69.4813 196.098 69.325 195.964C69.4255 195.975 69.5371 195.986 69.6375 195.986C70.9432 195.986 72.0704 194.859 71.9476 193.074C71.8695 191.746 70.6754 190.819 69.18 190.819Z" fill="#D99202"/>
<path d="M65.2966 202.415C65.1962 202.415 65.1404 202.37 65.1404 202.37C65.1292 202.37 65.118 202.359 65.118 202.348C64.8948 202.225 64.7944 202.046 64.5935 201.734L64.5489 201.667C62.8191 198.81 61.4799 194.034 61.2567 193.23L61.4353 193.107C61.6808 193.777 62.4397 195.886 62.9419 196.879C63.6673 198.319 63.9797 198.799 64.8056 200.105C65.0622 200.495 65.3636 200.975 65.743 201.567C65.743 201.567 66.0108 202.013 65.743 202.214C65.5868 202.359 65.4305 202.415 65.2966 202.415Z" fill="#FBE993"/>
<path d="M61.9375 194.926C62.2276 195.674 62.5513 196.466 62.808 196.968C63.5334 198.408 63.8458 198.899 64.6828 200.205C64.9283 200.584 65.2408 201.064 65.6091 201.666C65.6203 201.689 65.7877 202.001 65.6537 202.102C65.4752 202.236 65.3524 202.258 65.3078 202.258C65.2743 202.258 65.252 202.247 65.2408 202.247C65.2297 202.236 65.2185 202.224 65.1962 202.224C65.0176 202.124 64.9395 202.001 64.7386 201.666L64.694 201.6C63.511 199.635 62.5178 196.778 61.9375 194.926ZM61.5246 192.861L61.067 193.174C61.067 193.174 62.4843 198.598 64.4038 201.767C64.627 202.135 64.7498 202.358 65.0288 202.515C65.0288 202.515 65.1181 202.593 65.2966 202.593C65.4305 202.593 65.6203 202.548 65.8435 202.37C66.234 202.079 65.8881 201.499 65.8881 201.499C64.2699 198.943 64.0355 198.698 63.0981 196.834C62.5066 195.651 61.5246 192.861 61.5246 192.861Z" fill="#D99202"/>
<path d="M62.0158 191.221C62.0158 191.221 64.4486 190.262 64.9731 189.447C65.4976 188.632 65.1517 188.119 64.7165 187.862C64.0692 187.483 63.3996 187.996 63.3326 188.063C63.4442 187.494 63.009 186.925 62.2278 186.925C61.6698 186.925 61.2457 187.438 61.2457 188.085C61.2346 188.989 62.0158 191.221 62.0158 191.221Z" fill="#D99202"/>
<path d="M59.259 192.172C59.259 192.172 58.4332 189.661 57.6408 189.08C56.8485 188.5 56.3016 188.812 56.0227 189.259C55.6097 189.895 56.0896 190.598 56.1454 190.665C55.5763 190.509 54.9736 190.922 54.929 191.714C54.8955 192.283 55.3865 192.741 56.045 192.774C56.9601 192.83 59.259 192.172 59.259 192.172Z" fill="#D99202"/>
<path d="M60.3415 194.993C60.3415 194.993 57.8752 195.696 57.2837 196.444C56.6922 197.192 56.9824 197.727 57.3841 198.017C57.9868 198.442 58.6898 198.006 58.7456 197.962C58.5782 198.509 58.9465 199.1 59.7165 199.178C60.2634 199.234 60.7209 198.776 60.7879 198.14C60.8883 197.247 60.3415 194.993 60.3415 194.993Z" fill="#D99202"/>
<path d="M63.5107 194C63.5107 194 64.5486 196.21 65.341 196.656C66.1333 197.092 66.5909 196.746 66.8141 196.322C67.1265 195.697 66.602 195.094 66.5462 195.049C67.0931 195.128 67.5953 194.681 67.5395 193.945C67.506 193.42 67.0038 193.052 66.4012 193.096C65.553 193.141 63.5107 194 63.5107 194Z" fill="#D99202"/>
<g opacity="0.26">
<mask id="mask0_19_31885" style="mask-type:luminance" maskUnits="userSpaceOnUse" x="41" y="173" width="40" height="41">
<path d="M80.9985 193.499C80.9985 204.536 72.0483 213.497 61 213.497C49.9629 213.497 41.0015 204.547 41.0015 193.499C41.0015 182.45 49.9517 173.5 61 173.5C72.0483 173.5 80.9985 182.45 80.9985 193.499Z" fill="white"/>
</mask>
<g mask="url(#mask0_19_31885)">
<path d="M61.3683 197.203C76.9495 197.203 89.5806 186.841 89.5806 174.058C89.5806 161.275 76.9495 150.912 61.3683 150.912C45.7872 150.912 33.1561 161.275 33.1561 174.058C33.1561 186.841 45.7872 197.203 61.3683 197.203Z" fill="white"/>
</g>
</g>
<path d="M128.559 175.82H145.579V178.16H128.559V175.82ZM137.499 182.56H144.559V184.92H137.499V182.56ZM127.879 190.2H146.159V192.54H127.879V190.2ZM136.319 176.76H138.879V191.34H136.319V176.76ZM130.339 181.26H132.839V191.46H130.339V181.26ZM154.199 183.34H159.339V185.22H154.199V183.34ZM154.199 186.7H159.359V188.58H154.199V186.7ZM150.319 190.08H163.819V192.28H150.319V190.08ZM148.819 179.74H165.159V193.3H162.719V181.94H151.119V193.3H148.819V179.74ZM153.179 181.2H155.319V191.06H153.179V181.2ZM158.399 181.2H160.559V191.04H158.399V181.2ZM155.439 176.7L158.279 177.3C157.799 178.78 157.359 180.34 156.959 181.38L154.759 180.8C155.039 179.64 155.359 177.96 155.439 176.7ZM147.979 175.66H166.059V177.94H147.979V175.66Z" fill="white"/>
<path d="M98.4838 210.332H109.404V211.124H98.4838V210.332ZM98.6998 201.044H106.224V201.824H98.6998V201.044ZM99.8398 207.356H108.06V210.74H107.184V208.088H105.552V210.74H104.712V208.088H103.116V210.74H102.276V208.088H100.68V210.74H99.8398V207.356ZM105.972 203.072H108.42V203.84H105.744L105.972 203.072ZM101.316 202.856H104.244V203.552H101.04L101.316 202.856ZM108.108 203.072H108.996C108.996 203.072 108.984 203.324 108.96 203.456C108.78 205.424 108.612 206.24 108.3 206.54C108.084 206.768 107.856 206.84 107.508 206.864C107.208 206.888 106.644 206.876 106.044 206.84C106.02 206.588 105.912 206.264 105.78 206.036C106.368 206.096 106.944 206.096 107.16 206.096C107.352 206.096 107.484 206.096 107.58 205.988C107.808 205.772 107.964 205.04 108.108 203.192V203.072ZM101.196 201.188L102.096 201.308C101.652 204.044 100.668 206.012 98.9638 207.26C98.8198 207.104 98.4718 206.78 98.2558 206.648C99.9478 205.544 100.836 203.684 101.196 201.188ZM104.016 202.856H104.184L104.328 202.844L104.796 203C104.268 205.28 102.996 206.444 101.268 207.056C101.172 206.864 100.908 206.564 100.752 206.42C102.372 205.916 103.572 204.896 104.016 202.988V202.856ZM101.4 204.536L101.928 204.056C103.092 204.548 104.46 205.436 105.144 206.108L104.592 206.66C103.92 205.964 102.588 205.064 101.4 204.536ZM105.96 201.044H106.836C106.632 202.16 106.332 203.564 106.104 204.452L105.264 204.332C105.504 203.468 105.78 202.1 105.96 201.044ZM110.532 204.044H116.244V204.884H110.532V204.044ZM117.048 201.848H117.924V208.484H117.048V201.848ZM113.052 201.44H113.94V211.448H113.052V201.44ZM120 200.648H120.888V210.26C120.888 210.884 120.732 211.16 120.348 211.304C119.952 211.46 119.28 211.484 118.176 211.472C118.128 211.22 117.984 210.824 117.84 210.56C118.704 210.584 119.448 210.584 119.676 210.572C119.904 210.572 120 210.5 120 210.272V200.648ZM115.44 200.492L116.112 201.188C114.72 201.74 112.548 202.136 110.724 202.376C110.688 202.16 110.556 201.848 110.448 201.656C112.224 201.404 114.312 200.996 115.44 200.492ZM113.016 204.428L113.664 204.692C113.052 206.516 111.876 208.664 110.76 209.804C110.652 209.54 110.424 209.18 110.268 208.952C111.324 207.944 112.488 206.036 113.016 204.428ZM113.82 205.664C114.276 205.988 115.824 207.332 116.208 207.668L115.68 208.424C115.188 207.872 113.88 206.612 113.328 206.144L113.82 205.664ZM123.028 205.479V204.277H124.229V205.479H123.028ZM123.028 210.5V209.299H124.229V210.5H123.028ZM125.782 206.264C125.782 205.248 125.885 204.432 126.092 203.814C126.303 203.193 126.614 202.715 127.024 202.379C127.438 202.043 127.958 201.875 128.583 201.875C129.043 201.875 129.448 201.969 129.795 202.156C130.143 202.34 130.43 202.607 130.657 202.959C130.883 203.307 131.061 203.732 131.19 204.236C131.319 204.736 131.383 205.412 131.383 206.264C131.383 207.271 131.28 208.086 131.073 208.707C130.866 209.324 130.555 209.803 130.141 210.143C129.731 210.479 129.211 210.646 128.583 210.646C127.754 210.646 127.104 210.35 126.631 209.756C126.065 209.041 125.782 207.877 125.782 206.264ZM126.866 206.264C126.866 207.674 127.03 208.613 127.358 209.082C127.69 209.547 128.098 209.779 128.583 209.779C129.067 209.779 129.473 209.545 129.801 209.076C130.133 208.607 130.299 207.67 130.299 206.264C130.299 204.85 130.133 203.91 129.801 203.445C129.473 202.98 129.063 202.748 128.571 202.748C128.086 202.748 127.7 202.953 127.411 203.363C127.047 203.887 126.866 204.854 126.866 206.264ZM133.053 210.5V209.299H134.254V210.5H133.053ZM141.344 209.486V210.5H135.667C135.659 210.246 135.7 210.002 135.79 209.768C135.934 209.381 136.165 209 136.481 208.625C136.801 208.25 137.262 207.816 137.864 207.324C138.797 206.559 139.428 205.953 139.756 205.508C140.084 205.059 140.249 204.635 140.249 204.236C140.249 203.818 140.098 203.467 139.797 203.182C139.5 202.893 139.112 202.748 138.631 202.748C138.124 202.748 137.717 202.9 137.413 203.205C137.108 203.51 136.954 203.932 136.95 204.471L135.866 204.359C135.94 203.551 136.219 202.936 136.704 202.514C137.188 202.088 137.838 201.875 138.655 201.875C139.479 201.875 140.131 202.104 140.612 202.561C141.092 203.018 141.333 203.584 141.333 204.26C141.333 204.604 141.262 204.941 141.122 205.273C140.981 205.605 140.747 205.955 140.418 206.322C140.094 206.689 139.553 207.193 138.795 207.834C138.163 208.365 137.756 208.727 137.577 208.918C137.397 209.105 137.249 209.295 137.131 209.486H141.344ZM142.487 208.232L143.542 208.092C143.663 208.689 143.868 209.121 144.157 209.387C144.45 209.648 144.805 209.779 145.223 209.779C145.719 209.779 146.137 209.607 146.477 209.264C146.821 208.92 146.993 208.494 146.993 207.986C146.993 207.502 146.834 207.104 146.518 206.791C146.202 206.475 145.799 206.316 145.311 206.316C145.112 206.316 144.864 206.355 144.567 206.434L144.684 205.508C144.754 205.516 144.811 205.52 144.854 205.52C145.303 205.52 145.708 205.402 146.067 205.168C146.426 204.934 146.606 204.572 146.606 204.084C146.606 203.697 146.475 203.377 146.213 203.123C145.952 202.869 145.614 202.742 145.2 202.742C144.79 202.742 144.448 202.871 144.174 203.129C143.901 203.387 143.725 203.773 143.647 204.289L142.592 204.102C142.721 203.395 143.014 202.848 143.471 202.461C143.928 202.07 144.497 201.875 145.176 201.875C145.645 201.875 146.077 201.977 146.471 202.18C146.866 202.379 147.167 202.652 147.374 203C147.584 203.348 147.69 203.717 147.69 204.107C147.69 204.479 147.59 204.816 147.391 205.121C147.192 205.426 146.897 205.668 146.506 205.848C147.014 205.965 147.409 206.209 147.69 206.58C147.971 206.947 148.112 207.408 148.112 207.963C148.112 208.713 147.838 209.35 147.292 209.873C146.745 210.393 146.053 210.652 145.217 210.652C144.463 210.652 143.836 210.428 143.336 209.979C142.84 209.529 142.557 208.947 142.487 208.232ZM152.542 210.5V208.443H148.815V207.477L152.735 201.91H153.596V207.477H154.756V208.443H153.596V210.5H152.542ZM152.542 207.477V203.604L149.852 207.477H152.542ZM159.221 210.5V208.443H155.495V207.477L159.415 201.91H160.276V207.477H161.436V208.443H160.276V210.5H159.221ZM159.221 207.477V203.604L156.532 207.477H159.221ZM162.526 208.232L163.581 208.092C163.702 208.689 163.907 209.121 164.196 209.387C164.489 209.648 164.844 209.779 165.262 209.779C165.758 209.779 166.176 209.607 166.516 209.264C166.86 208.92 167.032 208.494 167.032 207.986C167.032 207.502 166.874 207.104 166.557 206.791C166.241 206.475 165.838 206.316 165.35 206.316C165.151 206.316 164.903 206.355 164.606 206.434L164.723 205.508C164.793 205.516 164.85 205.52 164.893 205.52C165.342 205.52 165.747 205.402 166.106 205.168C166.465 204.934 166.645 204.572 166.645 204.084C166.645 203.697 166.514 203.377 166.252 203.123C165.991 202.869 165.653 202.742 165.239 202.742C164.829 202.742 164.487 202.871 164.213 203.129C163.94 203.387 163.764 203.773 163.686 204.289L162.631 204.102C162.76 203.395 163.053 202.848 163.51 202.461C163.967 202.07 164.536 201.875 165.215 201.875C165.684 201.875 166.116 201.977 166.51 202.18C166.905 202.379 167.206 202.652 167.413 203C167.624 203.348 167.729 203.717 167.729 204.107C167.729 204.479 167.629 204.816 167.43 205.121C167.231 205.426 166.936 205.668 166.545 205.848C167.053 205.965 167.448 206.209 167.729 206.58C168.01 206.947 168.151 207.408 168.151 207.963C168.151 208.713 167.877 209.35 167.331 209.873C166.784 210.393 166.092 210.652 165.256 210.652C164.502 210.652 163.875 210.428 163.375 209.979C162.879 209.529 162.596 208.947 162.526 208.232ZM172.92 210.5V201.91H176.143C176.799 201.91 177.325 201.998 177.719 202.174C178.118 202.346 178.428 202.613 178.651 202.977C178.877 203.336 178.991 203.713 178.991 204.107C178.991 204.475 178.891 204.82 178.692 205.145C178.493 205.469 178.192 205.73 177.79 205.93C178.309 206.082 178.708 206.342 178.985 206.709C179.266 207.076 179.407 207.51 179.407 208.01C179.407 208.412 179.321 208.787 179.149 209.135C178.981 209.479 178.772 209.744 178.522 209.932C178.272 210.119 177.958 210.262 177.579 210.359C177.204 210.453 176.743 210.5 176.196 210.5H172.92ZM174.057 205.52H175.915C176.418 205.52 176.78 205.486 176.999 205.42C177.288 205.334 177.504 205.191 177.649 204.992C177.797 204.793 177.872 204.543 177.872 204.242C177.872 203.957 177.803 203.707 177.667 203.492C177.53 203.273 177.334 203.125 177.081 203.047C176.827 202.965 176.391 202.924 175.774 202.924H174.057V205.52ZM174.057 209.486H176.196C176.563 209.486 176.821 209.473 176.969 209.445C177.231 209.398 177.45 209.32 177.625 209.211C177.801 209.102 177.946 208.943 178.059 208.736C178.172 208.525 178.229 208.283 178.229 208.01C178.229 207.689 178.147 207.412 177.983 207.178C177.819 206.939 177.59 206.773 177.297 206.68C177.008 206.582 176.59 206.533 176.043 206.533H174.057V209.486ZM183.157 210.5V202.924H180.327V201.91H187.135V202.924H184.293V210.5H183.157ZM194.436 207.488L195.573 207.775C195.334 208.709 194.905 209.422 194.284 209.914C193.667 210.402 192.911 210.646 192.016 210.646C191.09 210.646 190.336 210.459 189.754 210.084C189.176 209.705 188.735 209.158 188.43 208.443C188.129 207.729 187.979 206.961 187.979 206.141C187.979 205.246 188.149 204.467 188.489 203.803C188.833 203.135 189.319 202.629 189.948 202.285C190.581 201.938 191.276 201.764 192.034 201.764C192.893 201.764 193.616 201.982 194.202 202.42C194.788 202.857 195.196 203.473 195.426 204.266L194.307 204.529C194.108 203.904 193.819 203.449 193.44 203.164C193.061 202.879 192.584 202.736 192.01 202.736C191.35 202.736 190.797 202.895 190.352 203.211C189.911 203.527 189.6 203.953 189.42 204.488C189.241 205.02 189.151 205.568 189.151 206.135C189.151 206.865 189.256 207.504 189.467 208.051C189.682 208.594 190.014 209 190.463 209.27C190.913 209.539 191.399 209.674 191.922 209.674C192.559 209.674 193.098 209.49 193.54 209.123C193.981 208.756 194.28 208.211 194.436 207.488Z" fill="#D6D6D6"/>
</g>
<rect x="245" y="155" width="200" height="77" rx="10" fill="#4181EE"/>
<g clip-path="url(#clip3_19_31885)">
<path d="M288.5 213.276C277.596 213.276 268.723 204.403 268.723 193.499C268.723 182.595 277.596 173.723 288.5 173.723C299.404 173.723 308.277 182.595 308.277 193.499C308.277 204.403 299.404 213.276 288.5 213.276Z" fill="url(#paint5_linear_19_31885)"/>
<path d="M288.5 173.946C293.723 173.946 298.634 175.978 302.328 179.672C306.022 183.366 308.054 188.277 308.054 193.5C308.054 198.723 306.022 203.634 302.328 207.328C298.634 211.022 293.723 213.054 288.5 213.054C283.277 213.054 278.366 211.022 274.672 207.328C270.989 203.634 268.946 198.723 268.946 193.5C268.946 188.277 270.978 183.366 274.672 179.672C278.366 175.989 283.277 173.946 288.5 173.946ZM288.5 173.5C277.462 173.5 268.5 182.451 268.5 193.5C268.5 204.538 277.451 213.5 288.5 213.5C299.549 213.5 308.5 204.549 308.5 193.5C308.5 182.451 299.549 173.5 288.5 173.5Z" fill="#C6DBDF"/>
<path d="M288.5 173.946C293.723 173.946 298.634 175.978 302.328 179.672C306.022 183.366 308.054 188.277 308.054 193.5C308.054 198.723 306.022 203.634 302.328 207.328C298.634 211.022 293.723 213.054 288.5 213.054C283.277 213.054 278.366 211.022 274.672 207.328C270.989 203.634 268.946 198.723 268.946 193.5C268.946 188.277 270.978 183.366 274.672 179.672C278.366 175.989 283.277 173.946 288.5 173.946ZM288.5 173.5C277.462 173.5 268.5 182.451 268.5 193.5C268.5 204.538 277.451 213.5 288.5 213.5C299.549 213.5 308.5 204.549 308.5 193.5C308.5 182.451 299.549 173.5 288.5 173.5Z" fill="url(#paint6_linear_19_31885)"/>
<path d="M306.1 193.5C306.1 203.221 298.221 211.1 288.5 211.1C278.779 211.1 270.9 203.221 270.9 193.5C270.9 183.779 278.779 175.899 288.5 175.899C298.221 175.899 306.1 183.779 306.1 193.5Z" fill="url(#paint7_linear_19_31885)"/>
<path d="M305.353 193.5C305.353 202.808 297.808 210.353 288.5 210.353C279.192 210.353 271.647 202.808 271.647 193.5C271.647 184.192 279.192 176.647 288.5 176.647C297.808 176.647 305.353 184.192 305.353 193.5Z" fill="#839EA0"/>
<path d="M304.638 193.5C304.638 202.406 297.417 209.638 288.5 209.638C279.594 209.638 272.361 202.417 272.361 193.5C272.361 184.593 279.582 177.361 288.5 177.361C297.406 177.361 304.638 184.593 304.638 193.5Z" fill="url(#paint8_linear_19_31885)"/>
<path d="M288.5 177.919C292.663 177.919 296.569 179.538 299.515 182.484C302.462 185.431 304.08 189.337 304.08 193.5C304.08 197.663 302.462 201.569 299.515 204.515C296.569 207.462 292.663 209.08 288.5 209.08C284.337 209.08 280.431 207.462 277.484 204.515C274.549 201.569 272.919 197.663 272.919 193.5C272.919 189.337 274.538 185.431 277.484 182.484C280.431 179.549 284.337 177.919 288.5 177.919ZM288.5 177.361C279.594 177.361 272.361 184.582 272.361 193.5C272.361 202.406 279.582 209.638 288.5 209.638C297.406 209.638 304.638 202.417 304.638 193.5C304.638 184.593 297.406 177.361 288.5 177.361Z" fill="url(#paint9_linear_19_31885)"/>
<path d="M297.316 190.397C296.87 189.951 297.249 189.147 297.249 189.147C297.249 189.147 291.758 190.688 288.79 190.688C285.899 190.688 280.464 189.147 280.464 189.147C280.464 189.147 280.843 189.951 280.408 190.397C278.99 191.714 278.153 193.366 278.153 195.163C278.153 199.449 282.941 202.931 288.857 202.931C294.772 202.931 299.56 199.46 299.56 195.163C299.571 193.366 298.734 191.714 297.316 190.397Z" fill="#98B6B7"/>
<path d="M282.071 190.174C283.142 191.022 287.886 192.205 293.611 192.116C296.089 192.049 298.578 193.187 299.337 195.654C299.292 194.471 299.247 192.473 296.993 190.308C296.725 189.973 296.982 189.471 296.982 189.471C296.982 189.471 293.968 190.687 291.602 190.799C289.236 190.91 282.071 190.174 282.071 190.174Z" fill="#83A0A2"/>
<path d="M281.133 190.174C281.133 190.174 281.647 190.71 283.656 191.156C283.031 191.602 281.569 193.232 281.859 196.033C282.16 198.823 284.057 201.178 286.133 202.205C284.615 201.937 279.984 200.386 279.716 195.922C279.627 193.622 280.988 191.625 281.122 191.078C281.267 190.531 281.133 190.174 281.133 190.174Z" fill="#EFFBFA"/>
<path d="M282.45 196.737C282.328 196.737 282.205 196.725 282.082 196.692L281.1 196.424C280.743 196.324 280.453 196.1 280.263 195.777C280.084 195.453 280.029 195.085 280.129 194.728L280.252 194.259C280.43 193.612 281.044 193.187 281.703 193.243C281.87 193.254 282.004 193.411 281.982 193.578C281.97 193.745 281.814 193.879 281.647 193.857C281.279 193.824 280.955 194.058 280.854 194.404L280.732 194.873C280.676 195.062 280.709 195.274 280.81 195.442C280.91 195.62 281.066 195.743 281.267 195.799L282.249 196.067C282.439 196.123 282.651 196.089 282.819 195.989C282.997 195.888 283.12 195.732 283.176 195.531L283.299 195.062C283.377 194.772 283.276 194.46 283.042 194.27C282.908 194.158 282.886 193.969 282.986 193.835C283.098 193.701 283.287 193.678 283.421 193.779C283.857 194.125 284.046 194.694 283.901 195.23L283.779 195.699C283.678 196.056 283.455 196.346 283.131 196.536C282.919 196.67 282.685 196.737 282.45 196.737Z" fill="#83A0A2"/>
<path d="M297.383 188.567C297.383 189.683 293.566 190.576 288.868 190.576C284.169 190.576 280.352 189.672 280.352 188.567C280.352 187.451 284.169 186.558 288.868 186.558C293.566 186.547 297.383 187.451 297.383 188.567Z" fill="#98B6B7"/>
<path d="M295.866 188.332C295.866 189.08 292.729 189.682 288.868 189.682C285.006 189.682 281.87 189.08 281.87 188.332C281.87 187.584 285.006 186.981 288.868 186.981C292.729 186.981 295.866 187.595 295.866 188.332Z" fill="#83A0A2"/>
<path d="M280.352 188.566C280.352 188.566 280.296 188.857 280.453 189.102C280.609 189.348 281.067 190.174 284.247 190.698C286.078 190.999 289.504 191.211 291.658 190.966C293.812 190.72 295.754 190.285 296.602 189.761C297.45 189.236 297.428 188.745 297.395 188.566C297.015 189.035 293.868 190.52 289.002 190.52C284.113 190.52 280.352 188.566 280.352 188.566Z" fill="#EFFBFA"/>
<path d="M283.633 189.148C284.496 189.148 285.196 188.568 285.196 187.853C285.196 187.138 284.496 186.559 283.633 186.559C282.77 186.559 282.071 187.138 282.071 187.853C282.071 188.568 282.77 189.148 283.633 189.148Z" fill="#EFFBFA"/>
<path d="M286.145 189.628C287.007 189.628 287.707 189.049 287.707 188.334C287.707 187.619 287.007 187.039 286.145 187.039C285.282 187.039 284.582 187.619 284.582 188.334C284.582 189.049 285.282 189.628 286.145 189.628Z" fill="#EFFBFA"/>
<path d="M286.77 187.842C287.632 187.842 288.332 187.263 288.332 186.548C288.332 185.833 287.632 185.253 286.77 185.253C285.907 185.253 285.207 185.833 285.207 186.548C285.207 187.263 285.907 187.842 286.77 187.842Z" fill="#EFFBFA"/>
<path d="M288.633 189.628C289.496 189.628 290.196 189.049 290.196 188.334C290.196 187.619 289.496 187.039 288.633 187.039C287.77 187.039 287.071 187.619 287.071 188.334C287.071 189.049 287.77 189.628 288.633 189.628Z" fill="#EFFBFA"/>
<path d="M289.281 187.842C290.143 187.842 290.843 187.263 290.843 186.548C290.843 185.833 290.143 185.253 289.281 185.253C288.418 185.253 287.718 185.833 287.718 186.548C287.718 187.263 288.418 187.842 289.281 187.842Z" fill="#EFFBFA"/>
<path d="M291.323 189.148C292.186 189.148 292.886 188.568 292.886 187.853C292.886 187.138 292.186 186.559 291.323 186.559C290.46 186.559 289.761 187.138 289.761 187.853C289.761 188.568 290.46 189.148 291.323 189.148Z" fill="#EFFBFA"/>
<path d="M293.511 189.148C294.374 189.148 295.073 188.568 295.073 187.853C295.073 187.138 294.374 186.559 293.511 186.559C292.648 186.559 291.948 187.138 291.948 187.853C291.948 188.568 292.648 189.148 293.511 189.148Z" fill="#EFFBFA"/>
<path d="M292.417 187.039C293.28 187.039 293.979 186.459 293.979 185.744C293.979 185.029 293.28 184.449 292.417 184.449C291.554 184.449 290.854 185.029 290.854 185.744C290.854 186.459 291.554 187.039 292.417 187.039Z" fill="#EFFBFA"/>
<path d="M290.698 185.744C291.561 185.744 292.26 185.289 292.26 184.729C292.26 184.168 291.561 183.713 290.698 183.713C289.835 183.713 289.135 184.168 289.135 184.729C289.135 185.289 289.835 185.744 290.698 185.744Z" fill="#EFFBFA"/>
<g opacity="0.26">
<mask id="mask1_19_31885" style="mask-type:luminance" maskUnits="userSpaceOnUse" x="268" y="173" width="41" height="41">
<path d="M308.5 193.5C308.5 204.538 299.549 213.5 288.5 213.5C277.462 213.5 268.5 204.549 268.5 193.5C268.5 182.451 277.451 173.5 288.5 173.5C299.549 173.5 308.5 182.451 308.5 193.5Z" fill="white"/>
</mask>
<g mask="url(#mask1_19_31885)">
<path d="M288.868 197.206C304.451 197.206 317.083 186.842 317.083 174.058C317.083 161.275 304.451 150.911 288.868 150.911C273.286 150.911 260.654 161.275 260.654 174.058C260.654 186.842 273.286 197.206 288.868 197.206Z" fill="white"/>
</g>
</g>
<path d="M351.3 175.54H365.32V177.92H351.3V175.54ZM351.58 180.74H362.4V183.06H351.58V180.74ZM350.08 175.54H352.5V181.16C352.5 184.66 352.12 189.96 349.74 193.26C349.32 192.84 348.28 192.12 347.7 191.86C349.92 188.82 350.08 184.34 350.08 181.16V175.54ZM361.78 180.74H362.24L362.7 180.64L364.38 181.32C362.74 188.02 358.54 191.52 352.84 193.3C352.54 192.64 351.94 191.62 351.44 191.1C356.58 189.8 360.52 186.48 361.78 181.18V180.74ZM355.38 182.04C356.98 186.72 360.4 189.84 366.14 191.06C365.56 191.6 364.86 192.64 364.52 193.32C358.44 191.78 355.08 188.26 353.06 182.7L355.38 182.04ZM374.2 183.34H379.34V185.22H374.2V183.34ZM374.2 186.7H379.36V188.58H374.2V186.7ZM370.32 190.08H383.82V192.28H370.32V190.08ZM368.82 179.74H385.16V193.3H382.72V181.94H371.12V193.3H368.82V179.74ZM373.18 181.2H375.32V191.06H373.18V181.2ZM378.4 181.2H380.56V191.04H378.4V181.2ZM375.44 176.7L378.28 177.3C377.8 178.78 377.36 180.34 376.96 181.38L374.76 180.8C375.04 179.64 375.36 177.96 375.44 176.7ZM367.98 175.66H386.06V177.94H367.98V175.66Z" fill="white"/>
<path d="M318.485 210.332H329.405V211.124H318.485V210.332ZM318.701 201.044H326.225V201.824H318.701V201.044ZM319.841 207.356H328.061V210.74H327.185V208.088H325.553V210.74H324.713V208.088H323.117V210.74H322.277V208.088H320.681V210.74H319.841V207.356ZM325.973 203.072H328.421V203.84H325.745L325.973 203.072ZM321.317 202.856H324.245V203.552H321.041L321.317 202.856ZM328.109 203.072H328.997C328.997 203.072 328.985 203.324 328.961 203.456C328.781 205.424 328.613 206.24 328.301 206.54C328.085 206.768 327.857 206.84 327.509 206.864C327.209 206.888 326.645 206.876 326.045 206.84C326.021 206.588 325.913 206.264 325.781 206.036C326.369 206.096 326.945 206.096 327.161 206.096C327.353 206.096 327.485 206.096 327.581 205.988C327.809 205.772 327.965 205.04 328.109 203.192V203.072ZM321.197 201.188L322.097 201.308C321.653 204.044 320.669 206.012 318.965 207.26C318.821 207.104 318.473 206.78 318.257 206.648C319.949 205.544 320.837 203.684 321.197 201.188ZM324.017 202.856H324.185L324.329 202.844L324.797 203C324.269 205.28 322.997 206.444 321.269 207.056C321.173 206.864 320.909 206.564 320.753 206.42C322.373 205.916 323.573 204.896 324.017 202.988V202.856ZM321.401 204.536L321.929 204.056C323.093 204.548 324.461 205.436 325.145 206.108L324.593 206.66C323.921 205.964 322.589 205.064 321.401 204.536ZM325.961 201.044H326.837C326.633 202.16 326.333 203.564 326.105 204.452L325.265 204.332C325.505 203.468 325.781 202.1 325.961 201.044ZM330.533 204.044H336.245V204.884H330.533V204.044ZM337.049 201.848H337.925V208.484H337.049V201.848ZM333.053 201.44H333.941V211.448H333.053V201.44ZM340.001 200.648H340.889V210.26C340.889 210.884 340.733 211.16 340.349 211.304C339.953 211.46 339.281 211.484 338.177 211.472C338.129 211.22 337.985 210.824 337.841 210.56C338.705 210.584 339.449 210.584 339.677 210.572C339.905 210.572 340.001 210.5 340.001 210.272V200.648ZM335.441 200.492L336.113 201.188C334.721 201.74 332.549 202.136 330.725 202.376C330.689 202.16 330.557 201.848 330.449 201.656C332.225 201.404 334.313 200.996 335.441 200.492ZM333.017 204.428L333.665 204.692C333.053 206.516 331.877 208.664 330.761 209.804C330.653 209.54 330.425 209.18 330.269 208.952C331.325 207.944 332.489 206.036 333.017 204.428ZM333.821 205.664C334.277 205.988 335.825 207.332 336.209 207.668L335.681 208.424C335.189 207.872 333.881 206.612 333.329 206.144L333.821 205.664ZM343.029 205.479V204.277H344.23V205.479H343.029ZM343.029 210.5V209.299H344.23V210.5H343.029ZM345.783 206.264C345.783 205.248 345.887 204.432 346.094 203.814C346.305 203.193 346.615 202.715 347.025 202.379C347.439 202.043 347.959 201.875 348.584 201.875C349.045 201.875 349.449 201.969 349.797 202.156C350.145 202.34 350.432 202.607 350.658 202.959C350.885 203.307 351.062 203.732 351.191 204.236C351.32 204.736 351.385 205.412 351.385 206.264C351.385 207.271 351.281 208.086 351.074 208.707C350.867 209.324 350.557 209.803 350.143 210.143C349.732 210.479 349.213 210.646 348.584 210.646C347.756 210.646 347.105 210.35 346.633 209.756C346.066 209.041 345.783 207.877 345.783 206.264ZM346.867 206.264C346.867 207.674 347.031 208.613 347.359 209.082C347.691 209.547 348.1 209.779 348.584 209.779C349.068 209.779 349.475 209.545 349.803 209.076C350.135 208.607 350.301 207.67 350.301 206.264C350.301 204.85 350.135 203.91 349.803 203.445C349.475 202.98 349.064 202.748 348.572 202.748C348.088 202.748 347.701 202.953 347.412 203.363C347.049 203.887 346.867 204.854 346.867 206.264ZM353.055 210.5V209.299H354.256V210.5H353.055ZM361.346 209.486V210.5H355.668C355.66 210.246 355.701 210.002 355.791 209.768C355.936 209.381 356.166 209 356.482 208.625C356.803 208.25 357.264 207.816 357.865 207.324C358.799 206.559 359.43 205.953 359.758 205.508C360.086 205.059 360.25 204.635 360.25 204.236C360.25 203.818 360.1 203.467 359.799 203.182C359.502 202.893 359.113 202.748 358.633 202.748C358.125 202.748 357.719 202.9 357.414 203.205C357.109 203.51 356.955 203.932 356.951 204.471L355.867 204.359C355.941 203.551 356.221 202.936 356.705 202.514C357.189 202.088 357.84 201.875 358.656 201.875C359.48 201.875 360.133 202.104 360.613 202.561C361.094 203.018 361.334 203.584 361.334 204.26C361.334 204.604 361.264 204.941 361.123 205.273C360.982 205.605 360.748 205.955 360.42 206.322C360.096 206.689 359.555 207.193 358.797 207.834C358.164 208.365 357.758 208.727 357.578 208.918C357.398 209.105 357.25 209.295 357.133 209.486H361.346ZM362.488 208.232L363.543 208.092C363.664 208.689 363.869 209.121 364.158 209.387C364.451 209.648 364.807 209.779 365.225 209.779C365.721 209.779 366.139 209.607 366.479 209.264C366.822 208.92 366.994 208.494 366.994 207.986C366.994 207.502 366.836 207.104 366.52 206.791C366.203 206.475 365.801 206.316 365.312 206.316C365.113 206.316 364.865 206.355 364.568 206.434L364.686 205.508C364.756 205.516 364.812 205.52 364.855 205.52C365.305 205.52 365.709 205.402 366.068 205.168C366.428 204.934 366.607 204.572 366.607 204.084C366.607 203.697 366.477 203.377 366.215 203.123C365.953 202.869 365.615 202.742 365.201 202.742C364.791 202.742 364.449 202.871 364.176 203.129C363.902 203.387 363.727 203.773 363.648 204.289L362.594 204.102C362.723 203.395 363.016 202.848 363.473 202.461C363.93 202.07 364.498 201.875 365.178 201.875C365.646 201.875 366.078 201.977 366.473 202.18C366.867 202.379 367.168 202.652 367.375 203C367.586 203.348 367.691 203.717 367.691 204.107C367.691 204.479 367.592 204.816 367.393 205.121C367.193 205.426 366.898 205.668 366.508 205.848C367.016 205.965 367.41 206.209 367.691 206.58C367.973 206.947 368.113 207.408 368.113 207.963C368.113 208.713 367.84 209.35 367.293 209.873C366.746 210.393 366.055 210.652 365.219 210.652C364.465 210.652 363.838 210.428 363.338 209.979C362.842 209.529 362.559 208.947 362.488 208.232ZM372.543 210.5V208.443H368.816V207.477L372.736 201.91H373.598V207.477H374.758V208.443H373.598V210.5H372.543ZM372.543 207.477V203.604L369.854 207.477H372.543ZM379.223 210.5V208.443H375.496V207.477L379.416 201.91H380.277V207.477H381.438V208.443H380.277V210.5H379.223ZM379.223 207.477V203.604L376.533 207.477H379.223ZM382.527 208.232L383.582 208.092C383.703 208.689 383.908 209.121 384.197 209.387C384.49 209.648 384.846 209.779 385.264 209.779C385.76 209.779 386.178 209.607 386.518 209.264C386.861 208.92 387.033 208.494 387.033 207.986C387.033 207.502 386.875 207.104 386.559 206.791C386.242 206.475 385.84 206.316 385.352 206.316C385.152 206.316 384.904 206.355 384.607 206.434L384.725 205.508C384.795 205.516 384.852 205.52 384.895 205.52C385.344 205.52 385.748 205.402 386.107 205.168C386.467 204.934 386.646 204.572 386.646 204.084C386.646 203.697 386.516 203.377 386.254 203.123C385.992 202.869 385.654 202.742 385.24 202.742C384.83 202.742 384.488 202.871 384.215 203.129C383.941 203.387 383.766 203.773 383.688 204.289L382.633 204.102C382.762 203.395 383.055 202.848 383.512 202.461C383.969 202.07 384.537 201.875 385.217 201.875C385.686 201.875 386.117 201.977 386.512 202.18C386.906 202.379 387.207 202.652 387.414 203C387.625 203.348 387.73 203.717 387.73 204.107C387.73 204.479 387.631 204.816 387.432 205.121C387.232 205.426 386.938 205.668 386.547 205.848C387.055 205.965 387.449 206.209 387.73 206.58C388.012 206.947 388.152 207.408 388.152 207.963C388.152 208.713 387.879 209.35 387.332 209.873C386.785 210.393 386.094 210.652 385.258 210.652C384.504 210.652 383.877 210.428 383.377 209.979C382.881 209.529 382.598 208.947 382.527 208.232ZM392.922 210.5V201.91H396.145C396.801 201.91 397.326 201.998 397.721 202.174C398.119 202.346 398.43 202.613 398.652 202.977C398.879 203.336 398.992 203.713 398.992 204.107C398.992 204.475 398.893 204.82 398.693 205.145C398.494 205.469 398.193 205.73 397.791 205.93C398.311 206.082 398.709 206.342 398.986 206.709C399.268 207.076 399.408 207.51 399.408 208.01C399.408 208.412 399.322 208.787 399.15 209.135C398.982 209.479 398.773 209.744 398.523 209.932C398.273 210.119 397.959 210.262 397.58 210.359C397.205 210.453 396.744 210.5 396.197 210.5H392.922ZM394.059 205.52H395.916C396.42 205.52 396.781 205.486 397 205.42C397.289 205.334 397.506 205.191 397.65 204.992C397.799 204.793 397.873 204.543 397.873 204.242C397.873 203.957 397.805 203.707 397.668 203.492C397.531 203.273 397.336 203.125 397.082 203.047C396.828 202.965 396.393 202.924 395.775 202.924H394.059V205.52ZM394.059 209.486H396.197C396.564 209.486 396.822 209.473 396.971 209.445C397.232 209.398 397.451 209.32 397.627 209.211C397.803 209.102 397.947 208.943 398.061 208.736C398.174 208.525 398.23 208.283 398.23 208.01C398.23 207.689 398.148 207.412 397.984 207.178C397.82 206.939 397.592 206.773 397.299 206.68C397.01 206.582 396.592 206.533 396.045 206.533H394.059V209.486ZM403.158 210.5V202.924H400.328V201.91H407.137V202.924H404.295V210.5H403.158ZM414.438 207.488L415.574 207.775C415.336 208.709 414.906 209.422 414.285 209.914C413.668 210.402 412.912 210.646 412.018 210.646C411.092 210.646 410.338 210.459 409.756 210.084C409.178 209.705 408.736 209.158 408.432 208.443C408.131 207.729 407.98 206.961 407.98 206.141C407.98 205.246 408.15 204.467 408.49 203.803C408.834 203.135 409.32 202.629 409.949 202.285C410.582 201.938 411.277 201.764 412.035 201.764C412.895 201.764 413.617 201.982 414.203 202.42C414.789 202.857 415.197 203.473 415.428 204.266L414.309 204.529C414.109 203.904 413.82 203.449 413.441 203.164C413.062 202.879 412.586 202.736 412.012 202.736C411.352 202.736 410.799 202.895 410.354 203.211C409.912 203.527 409.602 203.953 409.422 204.488C409.242 205.02 409.152 205.568 409.152 206.135C409.152 206.865 409.258 207.504 409.469 208.051C409.684 208.594 410.016 209 410.465 209.27C410.914 209.539 411.4 209.674 411.924 209.674C412.561 209.674 413.1 209.49 413.541 209.123C413.982 208.756 414.281 208.211 414.438 207.488Z" fill="#D6D6D6"/>
</g>
<defs>
<filter id="filter0_d_19_31885" x="323.774" y="86.0957" width="42.2539" height="24.7939" filterUnits="userSpaceOnUse" color-interpolation-filters="sRGB">
<feFlood flood-opacity="0" result="BackgroundImageFix"/>
<feColorMatrix in="SourceAlpha" type="matrix" values="0 0 0 0 0 0 0 0 0 0 0 0 0 0 0 0 0 0 127 0" result="hardAlpha"/>
<feOffset dy="2"/>
<feGaussianBlur stdDeviation="2"/>
<feComposite in2="hardAlpha" operator="out"/>
<feColorMatrix type="matrix" values="0 0 0 0 0 0 0 0 0 0 0 0 0 0 0 0 0 0 0.3 0"/>
<feBlend mode="normal" in2="BackgroundImageFix" result="effect1_dropShadow_19_31885"/>
<feBlend mode="normal" in="SourceGraphic" in2="effect1_dropShadow_19_31885" result="shape"/>
</filter>
<linearGradient id="paint0_linear_19_31885" x1="61.0034" y1="213.491" x2="61.0034" y2="173.502" gradientUnits="userSpaceOnUse">
<stop stop-color="#F5AC04"/>
<stop offset="1" stop-color="#FEFAA7"/>
</linearGradient>
<linearGradient id="paint1_linear_19_31885" x1="61.0034" y1="213.491" x2="61.0034" y2="173.502" gradientUnits="userSpaceOnUse">
<stop stop-color="#FEC627"/>
<stop offset="1" stop-color="#FFFED0"/>
</linearGradient>
<linearGradient id="paint2_linear_19_31885" x1="61.0034" y1="211.093" x2="61.0034" y2="175.899" gradientUnits="userSpaceOnUse">
<stop stop-color="#FFDE02"/>
<stop offset="1" stop-color="#FAD66F"/>
</linearGradient>
<linearGradient id="paint3_linear_19_31885" x1="61.0036" y1="209.629" x2="61.0036" y2="177.364" gradientUnits="userSpaceOnUse">
<stop stop-color="#F5B502"/>
<stop offset="1" stop-color="#FDE768"/>
</linearGradient>
<linearGradient id="paint4_linear_19_31885" x1="61.0036" y1="209.629" x2="61.0036" y2="177.364" gradientUnits="userSpaceOnUse">
<stop stop-color="#F5C218"/>
<stop offset="0.257" stop-color="#FEE76A" stop-opacity="0"/>
</linearGradient>
<linearGradient id="paint5_linear_19_31885" x1="288.5" y1="213.272" x2="288.5" y2="173.727" gradientUnits="userSpaceOnUse">
<stop stop-color="#98B8C0"/>
<stop offset="1" stop-color="#ECF6F4"/>
</linearGradient>
<linearGradient id="paint6_linear_19_31885" x1="288.5" y1="213.496" x2="288.5" y2="173.504" gradientUnits="userSpaceOnUse">
<stop stop-color="#B9D3D8"/>
<stop offset="0.2216" stop-color="#C2D9DD"/>
<stop offset="0.5898" stop-color="#DCE9EB"/>
<stop offset="0.9944" stop-color="white"/>
</linearGradient>
<linearGradient id="paint7_linear_19_31885" x1="288.5" y1="211.098" x2="288.5" y2="175.901" gradientUnits="userSpaceOnUse">
<stop stop-color="#C9E2E1"/>
<stop offset="1" stop-color="#D1E3E4"/>
</linearGradient>
<linearGradient id="paint8_linear_19_31885" x1="288.5" y1="209.633" x2="288.5" y2="177.365" gradientUnits="userSpaceOnUse">
<stop stop-color="#9AB9C2"/>
<stop offset="1" stop-color="#DCEAEC"/>
</linearGradient>
<linearGradient id="paint9_linear_19_31885" x1="288.5" y1="209.633" x2="288.5" y2="177.365" gradientUnits="userSpaceOnUse">
<stop stop-color="#A7C6D0"/>
<stop offset="0.257" stop-color="white" stop-opacity="0"/>
</linearGradient>
<clipPath id="clip0_19_31885">
<rect width="93" height="35" fill="white" transform="translate(78.5 79)"/>
</clipPath>
<clipPath id="clip1_19_31885">
<rect width="14" height="14" fill="white" transform="translate(78.5 79)"/>
</clipPath>
<clipPath id="clip2_19_31885">
<rect width="167.997" height="40" fill="white" transform="translate(41.0015 173.5)"/>
</clipPath>
<clipPath id="clip3_19_31885">
<rect width="153" height="40" fill="white" transform="translate(268.5 173.5)"/>
</clipPath>
</defs>
</svg>
