<svg width="460" height="290" viewBox="0 0 460 290" fill="none" xmlns="http://www.w3.org/2000/svg">
<rect width="460" height="290" rx="10" fill="#0D131C"/>
<rect x="25.5" y="58.5" width="199" height="76" rx="9.5" fill="#161F2C"/>
<rect x="33" y="66" width="35" height="26.5" rx="10" fill="#383C45"/>
<path d="M41.0085 67.968H48.6135V69.268H45.5715V77.25H44.0505V69.268H41.0085V67.968ZM52.0615 67.942H53.3745L54.7005 69.593H53.7775L52.7115 68.566L51.6585 69.593H50.7355L52.0615 67.942ZM52.7115 70.347C53.7255 70.347 54.5575 70.685 55.1945 71.374C55.7925 72.024 56.0915 72.869 56.0915 73.896C56.0915 74.91 55.7925 75.755 55.1945 76.405C54.5705 77.081 53.7385 77.432 52.7115 77.432C51.6715 77.432 50.8525 77.081 50.2285 76.405C49.6305 75.755 49.3315 74.91 49.3315 73.896C49.3315 72.869 49.6305 72.024 50.2285 71.374C50.8525 70.685 51.6845 70.347 52.7115 70.347ZM52.7115 71.556C52.1395 71.556 51.6975 71.764 51.3595 72.18C51.0215 72.596 50.8655 73.168 50.8655 73.896C50.8655 74.598 51.0215 75.17 51.3595 75.586C51.6975 76.002 52.1395 76.223 52.7115 76.223C53.2705 76.223 53.7255 76.002 54.0635 75.586C54.3885 75.17 54.5575 74.598 54.5575 73.896C54.5575 73.168 54.3885 72.596 54.0635 72.18C53.7255 71.764 53.2705 71.556 52.7115 71.556ZM52.501 65.864H54.126L52.254 67.762H51.292L52.501 65.864ZM58.3874 67.786C58.6734 67.786 58.9204 67.877 59.1154 68.059C59.2974 68.241 59.4014 68.475 59.4014 68.761C59.4014 69.047 59.2974 69.294 59.1024 69.476C58.9074 69.658 58.6734 69.749 58.3874 69.749C58.1014 69.749 57.8674 69.658 57.6724 69.476C57.4774 69.281 57.3864 69.047 57.3864 68.761C57.3864 68.475 57.4774 68.241 57.6724 68.059C57.8674 67.877 58.1014 67.786 58.3874 67.786ZM57.6464 70.529H59.1284V77.25H57.6464V70.529ZM38.0183 81.358V83.529H39.5133V84.751H38.0183V88.547C38.0183 88.703 38.0443 88.82 38.1223 88.911C38.2003 88.989 38.3043 89.028 38.4603 89.028H39.3443V90.25H38.2133C37.6283 90.25 37.1993 90.094 36.9263 89.782C36.6663 89.496 36.5363 89.093 36.5363 88.547V84.751H35.3273V83.529H36.5363V81.969L38.0183 81.358ZM40.6223 80.786H42.1043V84.426C42.3513 84.049 42.6633 83.776 43.0273 83.594C43.3523 83.425 43.7293 83.347 44.1583 83.347C44.9773 83.347 45.5883 83.581 45.9913 84.062C46.3683 84.517 46.5633 85.193 46.5633 86.09V90.25H45.0813V86.35C45.0813 85.778 44.9643 85.336 44.7433 85.037C44.4833 84.712 44.1063 84.556 43.5993 84.556C43.1313 84.556 42.7673 84.738 42.5073 85.102C42.2343 85.466 42.1043 85.921 42.1043 86.493V90.25H40.6223V80.786ZM49.1262 80.786C49.4122 80.786 49.6592 80.877 49.8542 81.059C50.0362 81.241 50.1402 81.475 50.1402 81.761C50.1402 82.047 50.0362 82.294 49.8412 82.476C49.6462 82.658 49.4122 82.749 49.1262 82.749C48.8402 82.749 48.6062 82.658 48.4112 82.476C48.2162 82.281 48.1252 82.047 48.1252 81.761C48.1252 81.475 48.2162 81.241 48.4112 81.059C48.6062 80.877 48.8402 80.786 49.1262 80.786ZM48.3852 83.529H49.8672V90.25H48.3852V83.529ZM53.9543 80.942H55.2673L56.5933 82.593H55.6703L54.6173 81.566L53.5513 82.593H52.6283L53.9543 80.942ZM54.5653 83.347C55.6703 83.347 56.5153 83.711 57.1003 84.465C57.6333 85.141 57.9063 86.09 57.9063 87.299H52.8753C52.9273 87.923 53.0963 88.404 53.3823 88.729C53.6683 89.054 54.0843 89.223 54.6173 89.223C55.0723 89.223 55.4363 89.119 55.7223 88.911C55.9433 88.742 56.1383 88.469 56.3203 88.092H57.8023C57.6463 88.716 57.3343 89.249 56.8663 89.665C56.2683 90.172 55.5273 90.432 54.6303 90.432C53.6293 90.432 52.8363 90.12 52.2513 89.509C51.6273 88.872 51.3153 88.001 51.3153 86.883C51.3153 85.882 51.6013 85.05 52.1993 84.374C52.7713 83.685 53.5643 83.347 54.5653 83.347ZM54.6043 84.556C54.1103 84.556 53.7333 84.686 53.4473 84.972C53.1743 85.245 52.9923 85.648 52.9013 86.181H56.3593C56.2293 85.089 55.6443 84.556 54.6043 84.556ZM54.5029 77.643C55.4389 77.643 55.9069 77.968 55.9069 78.631C55.9069 79.164 55.4779 79.593 54.6199 79.931L54.2299 79.528C54.8409 79.203 55.1529 78.904 55.1529 78.644C55.1529 78.371 54.9059 78.241 54.4119 78.241C54.0609 78.241 53.6969 78.332 53.3199 78.514V77.851C53.7099 77.708 54.0999 77.643 54.5029 77.643ZM59.0813 83.529H60.5633V87.624C60.5633 88.17 60.6673 88.56 60.9013 88.82C61.1353 89.067 61.4993 89.197 62.0193 89.197C62.3443 89.197 62.6563 89.054 62.9553 88.781C63.2543 88.495 63.4753 88.118 63.6053 87.637V83.529H65.0873V90.25H63.6053V89.379C63.0333 90.081 62.3313 90.432 61.4993 90.432C59.8873 90.432 59.0813 89.522 59.0813 87.715V83.529Z" fill="#7C8499"/>
<rect x="33" y="100.5" width="35" height="26.5" rx="10" fill="#383C45"/>
<path d="M35.0506 109.468H42.6556V110.677H39.5616V118.75H38.1576V110.677H35.0506V109.468ZM44.8423 109.442H46.0513L47.4033 111.093H46.5323L45.4403 110.04L44.3743 111.093H43.5033L44.8423 109.442ZM45.4403 111.847C46.4543 111.847 47.2863 112.185 47.9103 112.887C48.4953 113.537 48.7943 114.382 48.7943 115.396C48.7943 116.41 48.4953 117.242 47.9103 117.892C47.2863 118.581 46.4673 118.932 45.4403 118.932C44.4133 118.932 43.5943 118.581 42.9833 117.892C42.3853 117.242 42.0863 116.41 42.0863 115.396C42.0863 114.382 42.3853 113.537 42.9833 112.887C43.6073 112.185 44.4263 111.847 45.4403 111.847ZM45.4403 112.978C44.8423 112.978 44.3743 113.186 44.0233 113.628C43.6853 114.07 43.5163 114.655 43.5163 115.396C43.5163 116.124 43.6853 116.696 44.0233 117.138C44.3743 117.58 44.8423 117.801 45.4403 117.801C46.0383 117.801 46.5063 117.58 46.8573 117.138C47.1953 116.696 47.3773 116.124 47.3773 115.396C47.3773 114.655 47.1953 114.07 46.8573 113.628C46.5063 113.186 46.0383 112.978 45.4403 112.978ZM43.9954 106.364H45.5164L43.6704 108.262H42.7604L43.9954 106.364ZM48.4781 109.338C48.7511 109.338 48.9851 109.416 49.1671 109.598C49.3491 109.767 49.4401 109.988 49.4401 110.261C49.4401 110.534 49.3361 110.755 49.1541 110.937C48.9721 111.106 48.7381 111.197 48.4781 111.197C48.2051 111.197 47.9841 111.106 47.8021 110.937C47.6201 110.755 47.5291 110.521 47.5291 110.261C47.5291 109.988 47.6201 109.767 47.8021 109.598C47.9841 109.416 48.2051 109.338 48.4781 109.338ZM47.7891 112.029H49.1671V118.75H47.7891V112.029ZM55.4395 110.3H57.5975V109.286H58.9755V110.3H60.0415V111.106H58.9755V118.75H57.6885V117.944C57.2205 118.594 56.5185 118.932 55.6085 118.932C54.6205 118.932 53.8405 118.581 53.2815 117.879C52.7615 117.229 52.5015 116.384 52.5015 115.357C52.5015 114.369 52.7485 113.55 53.2685 112.9C53.8145 112.198 54.5685 111.847 55.5435 111.847C56.3625 111.847 57.0515 112.237 57.5975 113.03V111.106H55.4395V110.3ZM55.8555 112.965C55.1795 112.965 54.6725 113.186 54.3475 113.654C54.0615 114.044 53.9185 114.616 53.9185 115.357C53.9185 116.098 54.0485 116.67 54.3215 117.086C54.6335 117.567 55.1405 117.814 55.8165 117.814C56.4145 117.814 56.8695 117.567 57.2075 117.099C57.4935 116.683 57.6365 116.124 57.6365 115.448V115.331C57.6365 114.603 57.4545 114.018 57.1165 113.576C56.7785 113.16 56.3625 112.965 55.8555 112.965ZM62.5521 111.847C63.5401 111.847 64.2681 112.094 64.7361 112.588C65.1391 113.017 65.3471 113.641 65.3471 114.46V118.75H64.0731V117.801C63.8131 118.139 63.4881 118.412 63.0981 118.607C62.6561 118.815 62.1361 118.932 61.5381 118.932C60.8361 118.932 60.2901 118.75 59.9001 118.399C59.4711 118.048 59.2631 117.593 59.2631 117.034C59.2631 116.28 59.5621 115.695 60.1601 115.292C60.7061 114.902 61.4861 114.707 62.4741 114.681L63.9821 114.642V114.369C63.9821 113.433 63.4751 112.965 62.4611 112.965C62.0321 112.965 61.6811 113.043 61.4211 113.199C61.1091 113.381 60.9141 113.654 60.8361 114.031L59.4711 113.914C59.6141 113.186 59.9781 112.64 60.5501 112.302C61.0441 111.99 61.7201 111.847 62.5521 111.847ZM63.9821 115.643L62.5651 115.682C61.3041 115.708 60.6801 116.15 60.6801 116.982C60.6801 117.242 60.7841 117.45 61.0051 117.619C61.2131 117.788 61.4991 117.879 61.8501 117.879C62.4351 117.879 62.9291 117.697 63.3451 117.346C63.7611 116.995 63.9821 116.553 63.9821 116.033V115.643Z" fill="#7C8499"/>
<g clip-path="url(#clip0_19_37785)">
<g clip-path="url(#clip1_19_37785)">
<path d="M92.2898 87.6933C91.3549 91.4434 87.5567 93.7256 83.8062 92.7904C80.0573 91.8555 77.7751 88.0571 78.7104 84.3074C79.6449 80.5569 83.4431 78.2746 87.1924 79.2095C90.9426 80.1444 93.2247 83.9432 92.2897 87.6934L92.2898 87.6933H92.2898Z" fill="#F7931A"/>
<path d="M88.5867 85.0025C88.7261 84.0709 88.0168 83.5702 87.047 83.2361L87.3616 81.9743L86.5935 81.7829L86.2872 83.0115C86.0853 82.9611 85.8779 82.9137 85.6718 82.8666L85.9803 81.6299L85.2126 81.4385L84.8979 82.6999C84.7308 82.6619 84.5666 82.6243 84.4074 82.5847L84.4083 82.5807L83.349 82.3162L83.1447 83.1366C83.1447 83.1366 83.7146 83.2672 83.7026 83.2753C84.0136 83.3529 84.0699 83.5588 84.0605 83.722L83.7021 85.1596C83.7236 85.165 83.7513 85.1729 83.782 85.1852C83.7564 85.1788 83.7291 85.1719 83.7008 85.1651L83.1985 87.1789C83.1605 87.2734 83.064 87.4152 82.8465 87.3614C82.8542 87.3725 82.2882 87.2221 82.2882 87.2221L81.9069 88.1013L82.9065 88.3505C83.0924 88.3972 83.2747 88.446 83.4541 88.4918L83.1363 89.7682L83.9035 89.9596L84.2183 88.6968C84.4279 88.7537 84.6313 88.8062 84.8304 88.8556L84.5167 90.1125L85.2849 90.3039L85.6027 89.0299C86.9125 89.2778 87.8974 89.1779 88.312 87.9931C88.646 87.0393 88.2953 86.4891 87.6063 86.1303C88.1082 86.0146 88.4862 85.6845 88.587 85.0026L88.5868 85.0024L88.5867 85.0025ZM86.8317 87.4634C86.5943 88.4173 84.9883 87.9017 84.4676 87.7724L84.8894 86.0814C85.4101 86.2114 87.0798 86.4686 86.8318 87.4634H86.8317ZM87.0693 84.9886C86.8527 85.8563 85.516 85.4155 85.0824 85.3074L85.4648 83.7738C85.8985 83.8819 87.2949 84.0836 87.0693 84.9886H87.0693Z" fill="white"/>
</g>
<path d="M100.825 81.9375C101.796 81.9375 102.555 82.2839 103.102 82.9766C103.753 83.7969 104.079 85.1572 104.079 87.0576C104.079 88.9535 103.751 90.3161 103.095 91.1455C102.552 91.8291 101.796 92.1709 100.825 92.1709C99.8499 92.1709 99.0638 91.7972 98.4668 91.0498C97.8698 90.2979 97.5713 88.9603 97.5713 87.0371C97.5713 85.1504 97.8994 83.7923 98.5557 82.9629C99.098 82.2793 99.8545 81.9375 100.825 81.9375ZM100.825 83.5303C100.593 83.5303 100.385 83.6055 100.203 83.7559C100.021 83.9017 99.8796 84.166 99.7793 84.5488C99.6471 85.0456 99.5811 85.8818 99.5811 87.0576C99.5811 88.2334 99.6403 89.0423 99.7588 89.4844C99.8773 89.9219 100.025 90.2135 100.203 90.3594C100.385 90.5052 100.593 90.5781 100.825 90.5781C101.058 90.5781 101.265 90.5052 101.447 90.3594C101.63 90.209 101.771 89.9424 101.871 89.5596C102.003 89.0674 102.069 88.2334 102.069 87.0576C102.069 85.8818 102.01 85.0752 101.892 84.6377C101.773 84.1956 101.623 83.9017 101.44 83.7559C101.263 83.6055 101.058 83.5303 100.825 83.5303ZM105.781 92V90.0791H107.702V92H105.781ZM112.515 81.9375C113.485 81.9375 114.244 82.2839 114.791 82.9766C115.443 83.7969 115.769 85.1572 115.769 87.0576C115.769 88.9535 115.44 90.3161 114.784 91.1455C114.242 91.8291 113.485 92.1709 112.515 92.1709C111.539 92.1709 110.753 91.7972 110.156 91.0498C109.559 90.2979 109.261 88.9603 109.261 87.0371C109.261 85.1504 109.589 83.7923 110.245 82.9629C110.787 82.2793 111.544 81.9375 112.515 81.9375ZM112.515 83.5303C112.282 83.5303 112.075 83.6055 111.893 83.7559C111.71 83.9017 111.569 84.166 111.469 84.5488C111.337 85.0456 111.271 85.8818 111.271 87.0576C111.271 88.2334 111.33 89.0423 111.448 89.4844C111.567 89.9219 111.715 90.2135 111.893 90.3594C112.075 90.5052 112.282 90.5781 112.515 90.5781C112.747 90.5781 112.954 90.5052 113.137 90.3594C113.319 90.209 113.46 89.9424 113.561 89.5596C113.693 89.0674 113.759 88.2334 113.759 87.0576C113.759 85.8818 113.7 85.0752 113.581 84.6377C113.463 84.1956 113.312 83.9017 113.13 83.7559C112.952 83.6055 112.747 83.5303 112.515 83.5303ZM120.308 81.9375C121.278 81.9375 122.037 82.2839 122.584 82.9766C123.236 83.7969 123.562 85.1572 123.562 87.0576C123.562 88.9535 123.233 90.3161 122.577 91.1455C122.035 91.8291 121.278 92.1709 120.308 92.1709C119.332 92.1709 118.546 91.7972 117.949 91.0498C117.352 90.2979 117.054 88.9603 117.054 87.0371C117.054 85.1504 117.382 83.7923 118.038 82.9629C118.58 82.2793 119.337 81.9375 120.308 81.9375ZM120.308 83.5303C120.075 83.5303 119.868 83.6055 119.686 83.7559C119.503 83.9017 119.362 84.166 119.262 84.5488C119.13 85.0456 119.063 85.8818 119.063 87.0576C119.063 88.2334 119.123 89.0423 119.241 89.4844C119.36 89.9219 119.508 90.2135 119.686 90.3594C119.868 90.5052 120.075 90.5781 120.308 90.5781C120.54 90.5781 120.747 90.5052 120.93 90.3594C121.112 90.209 121.253 89.9424 121.354 89.5596C121.486 89.0674 121.552 88.2334 121.552 87.0576C121.552 85.8818 121.493 85.0752 121.374 84.6377C121.256 84.1956 121.105 83.9017 120.923 83.7559C120.745 83.6055 120.54 83.5303 120.308 83.5303ZM128.101 81.9375C129.071 81.9375 129.83 82.2839 130.377 82.9766C131.029 83.7969 131.354 85.1572 131.354 87.0576C131.354 88.9535 131.026 90.3161 130.37 91.1455C129.828 91.8291 129.071 92.1709 128.101 92.1709C127.125 92.1709 126.339 91.7972 125.742 91.0498C125.145 90.2979 124.847 88.9603 124.847 87.0371C124.847 85.1504 125.175 83.7923 125.831 82.9629C126.373 82.2793 127.13 81.9375 128.101 81.9375ZM128.101 83.5303C127.868 83.5303 127.661 83.6055 127.479 83.7559C127.296 83.9017 127.155 84.166 127.055 84.5488C126.923 85.0456 126.856 85.8818 126.856 87.0576C126.856 88.2334 126.916 89.0423 127.034 89.4844C127.153 89.9219 127.301 90.2135 127.479 90.3594C127.661 90.5052 127.868 90.5781 128.101 90.5781C128.333 90.5781 128.54 90.5052 128.723 90.3594C128.905 90.209 129.046 89.9424 129.146 89.5596C129.279 89.0674 129.345 88.2334 129.345 87.0576C129.345 85.8818 129.285 85.0752 129.167 84.6377C129.049 84.1956 128.898 83.9017 128.716 83.7559C128.538 83.6055 128.333 83.5303 128.101 83.5303ZM135.894 81.9375C136.864 81.9375 137.623 82.2839 138.17 82.9766C138.822 83.7969 139.147 85.1572 139.147 87.0576C139.147 88.9535 138.819 90.3161 138.163 91.1455C137.621 91.8291 136.864 92.1709 135.894 92.1709C134.918 92.1709 134.132 91.7972 133.535 91.0498C132.938 90.2979 132.64 88.9603 132.64 87.0371C132.64 85.1504 132.968 83.7923 133.624 82.9629C134.166 82.2793 134.923 81.9375 135.894 81.9375ZM135.894 83.5303C135.661 83.5303 135.454 83.6055 135.271 83.7559C135.089 83.9017 134.948 84.166 134.848 84.5488C134.715 85.0456 134.649 85.8818 134.649 87.0576C134.649 88.2334 134.709 89.0423 134.827 89.4844C134.946 89.9219 135.094 90.2135 135.271 90.3594C135.454 90.5052 135.661 90.5781 135.894 90.5781C136.126 90.5781 136.333 90.5052 136.516 90.3594C136.698 90.209 136.839 89.9424 136.939 89.5596C137.072 89.0674 137.138 88.2334 137.138 87.0576C137.138 85.8818 137.078 85.0752 136.96 84.6377C136.841 84.1956 136.691 83.9017 136.509 83.7559C136.331 83.6055 136.126 83.5303 135.894 83.5303ZM145.354 92H143.434V84.7607C142.732 85.417 141.905 85.9023 140.952 86.2168V84.4736C141.453 84.3096 141.998 83.9997 142.586 83.5439C143.174 83.0837 143.577 82.5482 143.796 81.9375H145.354V92ZM151.479 81.9375C152.45 81.9375 153.209 82.2839 153.756 82.9766C154.408 83.7969 154.733 85.1572 154.733 87.0576C154.733 88.9535 154.405 90.3161 153.749 91.1455C153.207 91.8291 152.45 92.1709 151.479 92.1709C150.504 92.1709 149.718 91.7972 149.121 91.0498C148.524 90.2979 148.226 88.9603 148.226 87.0371C148.226 85.1504 148.554 83.7923 149.21 82.9629C149.752 82.2793 150.509 81.9375 151.479 81.9375ZM151.479 83.5303C151.247 83.5303 151.04 83.6055 150.857 83.7559C150.675 83.9017 150.534 84.166 150.434 84.5488C150.301 85.0456 150.235 85.8818 150.235 87.0576C150.235 88.2334 150.295 89.0423 150.413 89.4844C150.532 89.9219 150.68 90.2135 150.857 90.3594C151.04 90.5052 151.247 90.5781 151.479 90.5781C151.712 90.5781 151.919 90.5052 152.102 90.3594C152.284 90.209 152.425 89.9424 152.525 89.5596C152.658 89.0674 152.724 88.2334 152.724 87.0576C152.724 85.8818 152.664 85.0752 152.546 84.6377C152.427 84.1956 152.277 83.9017 152.095 83.7559C151.917 83.6055 151.712 83.5303 151.479 83.5303ZM159.272 81.9375C160.243 81.9375 161.002 82.2839 161.549 82.9766C162.201 83.7969 162.526 85.1572 162.526 87.0576C162.526 88.9535 162.198 90.3161 161.542 91.1455C161 91.8291 160.243 92.1709 159.272 92.1709C158.297 92.1709 157.511 91.7972 156.914 91.0498C156.317 90.2979 156.019 88.9603 156.019 87.0371C156.019 85.1504 156.347 83.7923 157.003 82.9629C157.545 82.2793 158.302 81.9375 159.272 81.9375ZM159.272 83.5303C159.04 83.5303 158.833 83.6055 158.65 83.7559C158.468 83.9017 158.327 84.166 158.227 84.5488C158.094 85.0456 158.028 85.8818 158.028 87.0576C158.028 88.2334 158.088 89.0423 158.206 89.4844C158.325 89.9219 158.473 90.2135 158.65 90.3594C158.833 90.5052 159.04 90.5781 159.272 90.5781C159.505 90.5781 159.712 90.5052 159.895 90.3594C160.077 90.209 160.218 89.9424 160.318 89.5596C160.451 89.0674 160.517 88.2334 160.517 87.0576C160.517 85.8818 160.457 85.0752 160.339 84.6377C160.22 84.1956 160.07 83.9017 159.888 83.7559C159.71 83.6055 159.505 83.5303 159.272 83.5303ZM167.065 81.9375C168.036 81.9375 168.795 82.2839 169.342 82.9766C169.993 83.7969 170.319 85.1572 170.319 87.0576C170.319 88.9535 169.991 90.3161 169.335 91.1455C168.793 91.8291 168.036 92.1709 167.065 92.1709C166.09 92.1709 165.304 91.7972 164.707 91.0498C164.11 90.2979 163.812 88.9603 163.812 87.0371C163.812 85.1504 164.14 83.7923 164.796 82.9629C165.338 82.2793 166.095 81.9375 167.065 81.9375ZM167.065 83.5303C166.833 83.5303 166.626 83.6055 166.443 83.7559C166.261 83.9017 166.12 84.166 166.02 84.5488C165.887 85.0456 165.821 85.8818 165.821 87.0576C165.821 88.2334 165.881 89.0423 165.999 89.4844C166.118 89.9219 166.266 90.2135 166.443 90.3594C166.626 90.5052 166.833 90.5781 167.065 90.5781C167.298 90.5781 167.505 90.5052 167.688 90.3594C167.87 90.209 168.011 89.9424 168.111 89.5596C168.243 89.0674 168.31 88.2334 168.31 87.0576C168.31 85.8818 168.25 85.0752 168.132 84.6377C168.013 84.1956 167.863 83.9017 167.681 83.7559C167.503 83.6055 167.298 83.5303 167.065 83.5303Z" fill="white"/>
<path d="M99.7314 109.623V106.963C98.902 106.726 98.2926 106.368 97.9033 105.89C97.5182 105.408 97.3257 104.824 97.3257 104.138C97.3257 103.444 97.5436 102.862 97.9795 102.393C98.4196 101.919 99.0036 101.646 99.7314 101.574V100.945H100.652V101.574C101.325 101.654 101.86 101.885 102.258 102.266C102.656 102.642 102.91 103.148 103.02 103.783L101.414 103.992C101.316 103.493 101.062 103.154 100.652 102.977V105.458C101.667 105.734 102.359 106.091 102.728 106.531C103.096 106.967 103.28 107.528 103.28 108.213C103.28 108.979 103.047 109.625 102.582 110.149C102.12 110.674 101.477 110.996 100.652 111.114V112.301H99.7314V111.146C98.9993 111.057 98.4048 110.784 97.9478 110.327C97.4907 109.87 97.1987 109.225 97.0718 108.391L98.7285 108.213C98.7962 108.552 98.9232 108.844 99.1094 109.089C99.2956 109.335 99.5029 109.513 99.7314 109.623ZM99.7314 102.958C99.4818 103.042 99.2829 103.186 99.1348 103.389C98.9867 103.592 98.9126 103.817 98.9126 104.062C98.9126 104.286 98.9803 104.496 99.1157 104.69C99.2511 104.881 99.4564 105.035 99.7314 105.154V102.958ZM100.652 109.711C100.969 109.652 101.227 109.506 101.426 109.273C101.625 109.036 101.725 108.759 101.725 108.442C101.725 108.158 101.64 107.915 101.471 107.712C101.306 107.505 101.033 107.346 100.652 107.236V109.711ZM107.914 111V109.127H104.105V107.566L108.142 101.656H109.64V107.56H110.795V109.127H109.64V111H107.914ZM107.914 107.56V104.379L105.774 107.56H107.914ZM112.033 111V109.216H113.817V111H112.033ZM118.768 111V109.127H114.959V107.566L118.997 101.656H120.495V107.56H121.65V109.127H120.495V111H118.768ZM118.768 107.56V104.379L116.629 107.56H118.768ZM125.522 101.656C126.423 101.656 127.128 101.978 127.636 102.621C128.241 103.383 128.543 104.646 128.543 106.411C128.543 108.171 128.239 109.436 127.629 110.207C127.126 110.841 126.423 111.159 125.522 111.159C124.616 111.159 123.886 110.812 123.332 110.118C122.778 109.419 122.5 108.177 122.5 106.392C122.5 104.64 122.805 103.379 123.415 102.608C123.918 101.974 124.621 101.656 125.522 101.656ZM125.522 103.135C125.306 103.135 125.114 103.205 124.944 103.345C124.775 103.48 124.644 103.726 124.551 104.081C124.428 104.542 124.367 105.319 124.367 106.411C124.367 107.502 124.422 108.254 124.532 108.664C124.642 109.07 124.779 109.341 124.944 109.477C125.114 109.612 125.306 109.68 125.522 109.68C125.738 109.68 125.93 109.612 126.1 109.477C126.269 109.337 126.4 109.089 126.493 108.734C126.616 108.277 126.677 107.502 126.677 106.411C126.677 105.319 126.622 104.57 126.512 104.164C126.402 103.753 126.263 103.48 126.093 103.345C125.928 103.205 125.738 103.135 125.522 103.135ZM132.758 101.656C133.66 101.656 134.364 101.978 134.872 102.621C135.477 103.383 135.78 104.646 135.78 106.411C135.78 108.171 135.475 109.436 134.866 110.207C134.362 110.841 133.66 111.159 132.758 111.159C131.853 111.159 131.123 110.812 130.568 110.118C130.014 109.419 129.737 108.177 129.737 106.392C129.737 104.64 130.042 103.379 130.651 102.608C131.154 101.974 131.857 101.656 132.758 101.656ZM132.758 103.135C132.542 103.135 132.35 103.205 132.181 103.345C132.011 103.48 131.88 103.726 131.787 104.081C131.664 104.542 131.603 105.319 131.603 106.411C131.603 107.502 131.658 108.254 131.768 108.664C131.878 109.07 132.016 109.341 132.181 109.477C132.35 109.612 132.542 109.68 132.758 109.68C132.974 109.68 133.167 109.612 133.336 109.477C133.505 109.337 133.636 109.089 133.729 108.734C133.852 108.277 133.914 107.502 133.914 106.411C133.914 105.319 133.859 104.57 133.749 104.164C133.639 103.753 133.499 103.48 133.33 103.345C133.165 103.205 132.974 103.135 132.758 103.135ZM139.995 101.656C140.896 101.656 141.601 101.978 142.108 102.621C142.714 103.383 143.016 104.646 143.016 106.411C143.016 108.171 142.711 109.436 142.102 110.207C141.598 110.841 140.896 111.159 139.995 111.159C139.089 111.159 138.359 110.812 137.805 110.118C137.25 109.419 136.973 108.177 136.973 106.392C136.973 104.64 137.278 103.379 137.887 102.608C138.391 101.974 139.093 101.656 139.995 101.656ZM139.995 103.135C139.779 103.135 139.586 103.205 139.417 103.345C139.248 103.48 139.117 103.726 139.023 104.081C138.901 104.542 138.839 105.319 138.839 106.411C138.839 107.502 138.894 108.254 139.004 108.664C139.114 109.07 139.252 109.341 139.417 109.477C139.586 109.612 139.779 109.68 139.995 109.68C140.21 109.68 140.403 109.612 140.572 109.477C140.742 109.337 140.873 109.089 140.966 108.734C141.089 108.277 141.15 107.502 141.15 106.411C141.15 105.319 141.095 104.57 140.985 104.164C140.875 103.753 140.735 103.48 140.566 103.345C140.401 103.205 140.21 103.135 139.995 103.135ZM147.231 101.656C148.132 101.656 148.837 101.978 149.345 102.621C149.95 103.383 150.252 104.646 150.252 106.411C150.252 108.171 149.948 109.436 149.338 110.207C148.835 110.841 148.132 111.159 147.231 111.159C146.325 111.159 145.595 110.812 145.041 110.118C144.487 109.419 144.209 108.177 144.209 106.392C144.209 104.64 144.514 103.379 145.124 102.608C145.627 101.974 146.33 101.656 147.231 101.656ZM147.231 103.135C147.015 103.135 146.823 103.205 146.653 103.345C146.484 103.48 146.353 103.726 146.26 104.081C146.137 104.542 146.076 105.319 146.076 106.411C146.076 107.502 146.131 108.254 146.241 108.664C146.351 109.07 146.488 109.341 146.653 109.477C146.823 109.612 147.015 109.68 147.231 109.68C147.447 109.68 147.639 109.612 147.809 109.477C147.978 109.337 148.109 109.089 148.202 108.734C148.325 108.277 148.386 107.502 148.386 106.411C148.386 105.319 148.331 104.57 148.221 104.164C148.111 103.753 147.972 103.48 147.802 103.345C147.637 103.205 147.447 103.135 147.231 103.135ZM154.467 101.656C155.369 101.656 156.073 101.978 156.581 102.621C157.186 103.383 157.489 104.646 157.489 106.411C157.489 108.171 157.184 109.436 156.575 110.207C156.071 110.841 155.369 111.159 154.467 111.159C153.562 111.159 152.832 110.812 152.277 110.118C151.723 109.419 151.446 108.177 151.446 106.392C151.446 104.64 151.75 103.379 152.36 102.608C152.863 101.974 153.566 101.656 154.467 101.656ZM154.467 103.135C154.251 103.135 154.059 103.205 153.89 103.345C153.72 103.48 153.589 103.726 153.496 104.081C153.373 104.542 153.312 105.319 153.312 106.411C153.312 107.502 153.367 108.254 153.477 108.664C153.587 109.07 153.725 109.341 153.89 109.477C154.059 109.612 154.251 109.68 154.467 109.68C154.683 109.68 154.876 109.612 155.045 109.477C155.214 109.337 155.345 109.089 155.438 108.734C155.561 108.277 155.623 107.502 155.623 106.411C155.623 105.319 155.568 104.57 155.458 104.164C155.347 103.753 155.208 103.48 155.039 103.345C154.874 103.205 154.683 103.135 154.467 103.135ZM161.704 101.656C162.605 101.656 163.31 101.978 163.817 102.621C164.423 103.383 164.725 104.646 164.725 106.411C164.725 108.171 164.42 109.436 163.811 110.207C163.307 110.841 162.605 111.159 161.704 111.159C160.798 111.159 160.068 110.812 159.514 110.118C158.959 109.419 158.682 108.177 158.682 106.392C158.682 104.64 158.987 103.379 159.596 102.608C160.1 101.974 160.802 101.656 161.704 101.656ZM161.704 103.135C161.488 103.135 161.295 103.205 161.126 103.345C160.957 103.48 160.826 103.726 160.732 104.081C160.61 104.542 160.548 105.319 160.548 106.411C160.548 107.502 160.603 108.254 160.713 108.664C160.823 109.07 160.961 109.341 161.126 109.477C161.295 109.612 161.488 109.68 161.704 109.68C161.919 109.68 162.112 109.612 162.281 109.477C162.451 109.337 162.582 109.089 162.675 108.734C162.798 108.277 162.859 107.502 162.859 106.411C162.859 105.319 162.804 104.57 162.694 104.164C162.584 103.753 162.444 103.48 162.275 103.345C162.11 103.205 161.919 103.135 161.704 103.135Z" fill="#7C8499"/>
</g>
<rect x="182" y="66" width="35" height="26.5" rx="10" fill="#383C45"/>
<path d="M191.671 74.04H192.901V84.75H191.266V76.005C190.621 76.62 189.796 77.07 188.806 77.355V75.735C189.286 75.615 189.781 75.405 190.321 75.105C190.861 74.775 191.311 74.43 191.671 74.04ZM199.999 72.45H201.379L196.144 86.25H194.749L199.999 72.45ZM206.479 73.83C207.499 73.83 208.354 74.115 209.014 74.715C209.659 75.315 209.989 76.08 209.989 77.025C209.989 77.955 209.629 78.795 208.939 79.56C208.519 79.995 207.784 80.565 206.719 81.285C205.564 82.05 204.874 82.725 204.649 83.31H210.004V84.75H202.624C202.624 83.685 202.969 82.755 203.689 81.945C204.079 81.48 204.889 80.835 206.104 79.995C206.824 79.485 207.334 79.08 207.634 78.765C208.114 78.225 208.369 77.64 208.369 77.01C208.369 76.41 208.204 75.96 207.874 75.66C207.544 75.36 207.049 75.21 206.419 75.21C205.744 75.21 205.234 75.435 204.889 75.9C204.529 76.35 204.349 76.995 204.319 77.865H202.684C202.699 76.665 203.044 75.705 203.719 74.985C204.409 74.205 205.339 73.83 206.479 73.83Z" fill="#7C8499"/>
<rect x="182" y="100.5" width="35" height="26.5" rx="10" fill="#383C45"/>
<path d="M195.691 108.33C196.711 108.33 197.566 108.615 198.226 109.215C198.871 109.815 199.201 110.58 199.201 111.525C199.201 112.455 198.841 113.295 198.151 114.06C197.731 114.495 196.996 115.065 195.931 115.785C194.776 116.55 194.086 117.225 193.861 117.81H199.216V119.25H191.836C191.836 118.185 192.181 117.255 192.901 116.445C193.291 115.98 194.101 115.335 195.316 114.495C196.036 113.985 196.546 113.58 196.846 113.265C197.326 112.725 197.581 112.14 197.581 111.51C197.581 110.91 197.416 110.46 197.086 110.16C196.756 109.86 196.261 109.71 195.631 109.71C194.956 109.71 194.446 109.935 194.101 110.4C193.741 110.85 193.561 111.495 193.531 112.365H191.896C191.911 111.165 192.256 110.205 192.931 109.485C193.621 108.705 194.551 108.33 195.691 108.33ZM200.44 111.495H202.3L204.01 113.955L205.705 111.495H207.565L204.88 115.125L207.895 119.25H206.035L204.01 116.295L201.97 119.25H200.095L203.125 115.125L200.44 111.495Z" fill="#7C8499"/>
<rect x="25.5" y="58.5" width="199" height="76" rx="9.5" stroke="#55657E"/>
<rect x="245" y="58" width="200" height="77" rx="10" fill="#F04E23"/>
<g filter="url(#filter0_d_19_37785)">
<path d="M297.194 90.148H307.724V91.822H303.44V103H301.496V91.822H297.194V90.148ZM309.096 89.896H311.004V95.008C311.346 94.468 311.778 94.054 312.3 93.802C312.768 93.55 313.29 93.442 313.884 93.442C315 93.442 315.846 93.766 316.422 94.432C316.962 95.062 317.232 95.998 317.232 97.222V103H315.324V97.546C315.324 96.718 315.144 96.106 314.82 95.674C314.46 95.224 313.902 95.008 313.182 95.008C312.534 95.008 312.012 95.26 311.616 95.782C311.202 96.304 311.004 96.97 311.004 97.78V103H309.096V89.896ZM323.59 93.442C324.958 93.442 325.966 93.784 326.614 94.468C327.172 95.062 327.46 95.926 327.46 97.06V103H325.696V101.686C325.336 102.154 324.886 102.532 324.346 102.802C323.734 103.09 323.014 103.252 322.186 103.252C321.214 103.252 320.458 103 319.918 102.514C319.324 102.028 319.036 101.398 319.036 100.624C319.036 99.58 319.45 98.77 320.278 98.212C321.034 97.672 322.114 97.402 323.482 97.366L325.57 97.312V96.934C325.57 95.638 324.868 94.99 323.464 94.99C322.87 94.99 322.384 95.098 322.024 95.314C321.592 95.566 321.322 95.944 321.214 96.466L319.324 96.304C319.522 95.296 320.026 94.54 320.818 94.072C321.502 93.64 322.438 93.442 323.59 93.442ZM325.57 98.698L323.608 98.752C321.862 98.788 320.998 99.4 320.998 100.552C320.998 100.912 321.142 101.2 321.448 101.434C321.736 101.668 322.132 101.794 322.618 101.794C323.428 101.794 324.112 101.542 324.688 101.056C325.264 100.57 325.57 99.958 325.57 99.238V98.698ZM334.36 93.442C336.664 93.442 337.834 94.702 337.834 97.258V103H335.926V97.42C335.926 95.836 335.188 95.044 333.748 95.044C333.208 95.044 332.722 95.224 332.326 95.62C331.894 96.052 331.624 96.646 331.552 97.402V103H329.644V93.694H331.552V94.846C331.912 94.378 332.326 94.036 332.794 93.802C333.262 93.55 333.784 93.442 334.36 93.442ZM340.016 89.896H341.924V95.008C342.266 94.468 342.698 94.054 343.22 93.802C343.688 93.55 344.21 93.442 344.804 93.442C345.92 93.442 346.766 93.766 347.342 94.432C347.882 95.062 348.152 95.998 348.152 97.222V103H346.244V97.546C346.244 96.718 346.064 96.106 345.74 95.674C345.38 95.224 344.822 95.008 344.102 95.008C343.454 95.008 342.932 95.26 342.536 95.782C342.122 96.304 341.924 96.97 341.924 97.78V103H340.016V89.896ZM359.136 90.688V93.694H361.26V95.278H359.136V100.678C359.136 100.93 359.19 101.11 359.298 101.236C359.406 101.344 359.568 101.416 359.802 101.416H361.026V103H359.496C358.704 103 358.11 102.784 357.75 102.37C357.39 101.974 357.228 101.416 357.228 100.678V95.278H355.5V93.694H357.228V91.48L359.136 90.688ZM367.081 93.442C368.485 93.442 369.619 93.91 370.465 94.846C371.293 95.764 371.725 96.934 371.725 98.356C371.725 99.76 371.311 100.93 370.483 101.83C369.619 102.766 368.485 103.252 367.081 103.252C365.677 103.252 364.543 102.766 363.679 101.83C362.851 100.93 362.437 99.76 362.437 98.356C362.437 96.934 362.851 95.764 363.697 94.846C364.543 93.91 365.677 93.442 367.081 93.442ZM367.081 95.008C366.199 95.008 365.515 95.35 365.029 96.052C364.597 96.646 364.399 97.42 364.399 98.356C364.399 99.292 364.597 100.048 365.029 100.642C365.515 101.326 366.199 101.686 367.081 101.686C367.963 101.686 368.647 101.326 369.151 100.642C369.583 100.03 369.799 99.274 369.799 98.356C369.799 97.42 369.583 96.646 369.151 96.052C368.647 95.35 367.963 95.008 367.081 95.008ZM377.893 90.004H379.999L377.443 92.632H376.183L377.893 90.004ZM377.731 93.442C379.099 93.442 380.107 93.784 380.755 94.468C381.313 95.062 381.601 95.926 381.601 97.06V103H379.837V101.686C379.477 102.154 379.009 102.532 378.469 102.82C377.857 103.108 377.137 103.252 376.327 103.252C375.355 103.252 374.599 103 374.059 102.514C373.465 102.028 373.177 101.398 373.177 100.624C373.177 99.58 373.591 98.77 374.419 98.212C375.175 97.672 376.255 97.402 377.623 97.366L379.711 97.312V96.934C379.711 95.638 379.009 94.99 377.605 94.99C377.011 94.99 376.525 95.098 376.165 95.314C375.733 95.566 375.463 95.944 375.355 96.466L373.465 96.304C373.663 95.296 374.167 94.54 374.959 94.072C375.643 93.64 376.579 93.442 377.731 93.442ZM379.711 98.698L377.749 98.752C376.003 98.788 375.139 99.4 375.139 100.552C375.139 100.912 375.283 101.2 375.589 101.434C375.877 101.668 376.273 101.794 376.759 101.794C377.569 101.794 378.253 101.542 378.829 101.056C379.405 100.57 379.711 99.958 379.711 99.238V98.698ZM388.501 93.442C390.805 93.442 391.975 94.702 391.975 97.258V103H390.067V97.42C390.067 95.836 389.329 95.044 387.889 95.044C387.349 95.044 386.863 95.224 386.467 95.62C386.035 96.052 385.765 96.646 385.693 97.402V103H383.785V93.694H385.693V94.846C386.053 94.378 386.467 94.036 386.935 93.802C387.403 93.55 387.925 93.442 388.501 93.442Z" fill="white"/>
</g>
<rect x="25" y="155" width="200" height="77" rx="6" fill="#4181EE"/>
<g clip-path="url(#clip2_19_37785)">
<path d="M80.9985 193.5C80.9985 204.538 72.0483 213.499 61 213.499C49.9629 213.499 41.0015 204.549 41.0015 193.5C41.0015 182.452 49.9517 173.502 61 173.502C72.0483 173.502 80.9985 182.452 80.9985 193.5Z" fill="url(#paint0_linear_19_37785)"/>
<path d="M61 173.948C66.2228 173.948 71.1332 175.979 74.8271 179.673C78.521 183.367 80.5521 188.278 80.5521 193.5C80.5521 198.723 78.521 203.634 74.8271 207.328C71.1332 211.022 66.2228 213.053 61 213.053C55.7772 213.053 50.8668 211.022 47.1729 207.328C43.479 203.634 41.4479 198.723 41.4479 193.5C41.4479 188.278 43.479 183.367 47.1729 179.673C50.878 175.979 55.7772 173.948 61 173.948ZM61 173.502C49.9629 173.502 41.0015 182.452 41.0015 193.5C41.0015 204.538 49.9517 213.499 61 213.499C72.0483 213.499 80.9985 204.549 80.9985 193.5C80.9985 182.452 72.0483 173.502 61 173.502Z" fill="url(#paint1_linear_19_37785)"/>
<path d="M78.5991 193.501C78.5991 203.221 70.7202 211.1 61 211.1C51.2797 211.1 43.4008 203.221 43.4008 193.501C43.412 183.78 51.2909 175.901 61 175.901C70.7202 175.901 78.5991 183.78 78.5991 193.501Z" fill="url(#paint2_linear_19_37785)"/>
<path d="M77.8515 193.5C77.8515 202.807 70.3074 210.351 61.0001 210.351C51.6927 210.351 44.1486 202.807 44.1486 193.5C44.1486 184.193 51.6927 176.648 61.0001 176.648C70.3074 176.648 77.8515 184.193 77.8515 193.5Z" fill="#EAA434"/>
<path d="M77.1372 193.5C77.1372 202.406 69.9167 209.638 60.9999 209.638C52.0943 209.638 44.8627 202.417 44.8627 193.5C44.8739 184.584 52.0943 177.363 60.9999 177.363C69.9167 177.363 77.1372 184.584 77.1372 193.5Z" fill="url(#paint3_linear_19_37785)"/>
<path d="M60.9999 177.921C65.1626 177.921 69.0685 179.539 72.0148 182.486C74.961 185.432 76.5792 189.338 76.5792 193.5C76.5792 197.663 74.961 201.569 72.0148 204.515C69.0685 207.462 65.1626 209.08 60.9999 209.08C56.8373 209.08 52.9313 207.462 49.9851 204.515C47.0389 201.569 45.4207 197.663 45.4207 193.5C45.4207 189.338 47.0389 185.432 49.9851 182.486C52.9313 179.539 56.8485 177.921 60.9999 177.921ZM60.9999 177.363C52.0943 177.363 44.8627 184.584 44.8627 193.5C44.8627 202.406 52.0832 209.638 60.9999 209.638C69.9055 209.638 77.1372 202.417 77.1372 193.5C77.1372 184.584 69.9167 177.363 60.9999 177.363Z" fill="url(#paint4_linear_19_37785)"/>
<path d="M60.8554 193.735C60.8554 193.735 66.8371 191.38 68.1204 189.382C69.4038 187.385 68.5668 186.101 67.4732 185.477C65.8773 184.55 64.2256 185.811 64.0806 185.956C64.3707 184.55 63.2882 183.155 61.3575 183.155C59.9737 183.155 58.9359 184.416 58.9359 186.012C58.947 188.244 60.8554 193.735 60.8554 193.735Z" fill="#B47400"/>
<path d="M60.8107 193.802C60.8107 193.802 58.8019 187.698 56.8824 186.291C54.9629 184.885 53.6349 185.655 52.943 186.716C51.9274 188.256 53.0992 189.974 53.2332 190.13C51.8382 189.762 50.3874 190.755 50.2758 192.686C50.1977 194.07 51.3918 195.175 52.9876 195.264C55.2196 195.398 60.8107 193.802 60.8107 193.802Z" fill="#B47400"/>
<path d="M60.8777 193.802C60.8777 193.802 54.6951 195.565 53.222 197.429C51.7489 199.292 52.452 200.643 53.4898 201.379C54.9964 202.451 56.7597 201.357 56.9159 201.223C56.4918 202.596 57.4293 204.091 59.3488 204.281C60.7215 204.415 61.8821 203.265 62.0272 201.669C62.2504 199.449 60.8777 193.802 60.8777 193.802Z" fill="#B47400"/>
<path d="M60.9111 193.78C60.9111 193.78 63.6453 199.594 65.721 200.755C67.7968 201.915 69.0244 200.989 69.5824 199.862C70.397 198.21 69.0355 196.648 68.8793 196.514C70.3078 196.704 71.6246 195.543 71.5019 193.612C71.4126 192.228 70.0957 191.28 68.4999 191.38C66.279 191.525 60.9111 193.78 60.9111 193.78Z" fill="#B47400"/>
<path d="M64.5939 203.064C64.3149 202.908 64.1921 202.696 63.969 202.317C62.0494 199.147 60.6321 193.724 60.6321 193.724L61.0897 193.411C61.0897 193.411 62.0718 196.201 62.6632 197.373C63.6007 199.237 63.835 199.482 65.4532 202.038C65.4532 202.038 65.8103 202.618 65.4086 202.908C64.8729 203.321 64.5939 203.064 64.5939 203.064Z" fill="#B47400"/>
<path d="M61.4017 192.954C61.0893 192.016 59.5604 187.407 59.5604 185.454C59.5604 183.925 60.5313 182.765 61.8147 182.765C62.7186 182.765 63.4775 183.088 63.9574 183.669C64.348 184.148 64.5042 184.762 64.3814 185.376C64.3703 185.454 64.4038 185.521 64.4707 185.555C64.493 185.566 64.5265 185.577 64.5488 185.577C64.5935 185.577 64.6381 185.555 64.6716 185.521C64.772 185.421 65.6537 184.751 66.6915 184.751C67.1045 184.751 67.495 184.852 67.8522 185.064C68.2874 185.309 68.8342 185.767 69.0128 186.481C69.169 187.139 68.9793 187.898 68.4436 188.735C67.3053 190.487 62.3615 192.563 61.4017 192.954Z" fill="#FBE993"/>
<path d="M61.8145 182.931C62.6738 182.931 63.3769 183.233 63.8233 183.768C64.1804 184.215 64.3255 184.773 64.2027 185.331C64.1693 185.476 64.2474 185.621 64.3701 185.699C64.4148 185.721 64.4706 185.733 64.5264 185.733C64.6157 185.733 64.7049 185.699 64.7607 185.632C64.7719 185.621 65.6089 184.918 66.6691 184.918C67.0485 184.918 67.4168 185.018 67.7516 185.208C68.1533 185.442 68.6667 185.855 68.8341 186.525C68.9792 187.139 68.8006 187.853 68.2873 188.657C67.2382 190.286 62.752 192.228 61.502 192.741C61.0891 191.525 59.7276 187.295 59.7276 185.465C59.7276 184.014 60.6204 182.931 61.8145 182.931ZM61.8145 182.597C60.4307 182.597 59.3928 183.858 59.3928 185.454C59.3928 187.686 61.3012 193.176 61.3012 193.176C61.3012 193.176 67.2829 190.822 68.5663 188.824C69.8496 186.826 69.0127 185.543 67.919 184.918C67.4949 184.672 67.0708 184.583 66.6691 184.583C65.5531 184.583 64.6268 185.297 64.5264 185.398C64.8165 183.992 63.7452 182.597 61.8145 182.597Z" fill="#D99202"/>
<path d="M53.7013 194.549C53.6121 194.549 53.5228 194.549 53.4335 194.538C52.697 194.493 52.0274 194.225 51.5475 193.779C51.0788 193.332 50.8333 192.752 50.8667 192.138C50.9672 190.442 52.0832 189.661 53.0764 189.661C53.255 189.661 53.4335 189.683 53.6121 189.728C53.6232 189.728 53.6455 189.728 53.6567 189.728C53.7125 189.728 53.7683 189.694 53.8018 189.65C53.8353 189.583 53.8353 189.505 53.7795 189.449C53.7683 189.438 52.5184 187.752 53.5116 186.235C53.8464 185.733 54.4267 185.13 55.3419 185.13C55.9222 185.13 56.5471 185.375 57.2167 185.855C58.9019 187.083 60.6986 192.127 61.0334 193.109C60.1294 193.388 55.7882 194.549 53.7013 194.549Z" fill="#FBE993"/>
<path d="M55.3529 184.985V185.32C55.8886 185.32 56.4912 185.555 57.1273 186.023C58.6897 187.162 60.3748 191.748 60.8212 193.032C59.6383 193.355 55.6654 194.393 53.7012 194.393C53.6119 194.393 53.5227 194.393 53.4445 194.382C52.7415 194.337 52.1165 194.092 51.6701 193.668C51.2349 193.255 51.0117 192.719 51.0452 192.161C51.1344 190.565 52.1723 189.84 53.0874 189.84C53.2548 189.84 53.4111 189.862 53.5785 189.907C53.6119 189.918 53.6343 189.918 53.6677 189.918C53.7793 189.918 53.8909 189.862 53.9579 189.762C54.036 189.639 54.0248 189.472 53.9244 189.36C53.9132 189.349 52.7526 187.753 53.6677 186.358C53.9802 185.889 54.5159 185.331 55.3529 185.331V184.985ZM55.3529 184.985C54.4712 184.985 53.8128 185.521 53.3887 186.168C52.3732 187.708 53.545 189.427 53.6789 189.583C53.4892 189.527 53.2995 189.505 53.0986 189.505C51.9045 189.505 50.8108 190.476 50.7215 192.139C50.6434 193.523 51.8375 194.628 53.4334 194.717C53.5227 194.717 53.6119 194.728 53.7012 194.728C56.0783 194.728 61.2453 193.255 61.2453 193.255C61.2453 193.255 59.2365 187.15 57.317 185.744C56.5805 185.197 55.922 184.985 55.3529 184.985Z" fill="#D99202"/>
<path d="M60.0177 203.565C59.9508 203.565 59.8838 203.565 59.8169 203.554C58.9129 203.465 58.1875 203.074 57.7746 202.449C57.4286 201.936 57.3394 201.3 57.5179 200.72C57.5402 200.653 57.5068 200.575 57.451 200.53C57.4175 200.508 57.3952 200.496 57.3617 200.496C57.3282 200.496 57.2836 200.508 57.2501 200.53C57.1385 200.619 56.3461 201.11 55.4087 201.11C54.8953 201.11 54.4378 200.965 54.036 200.675C53.6343 200.385 53.1209 199.883 53.0205 199.157C52.92 198.488 53.1879 197.751 53.8017 196.97C55.0962 195.341 60.2075 193.745 61.2007 193.443C61.4239 194.403 62.4952 199.135 62.3055 201.088C62.1716 202.528 61.2118 203.565 60.0177 203.565Z" fill="#FBE993"/>
<path d="M61.078 193.666C61.3681 194.916 62.3167 199.257 62.1382 201.088C62.0042 202.427 61.1115 203.409 60.0066 203.409C59.9508 203.409 59.8839 203.409 59.8169 203.398C58.9688 203.32 58.288 202.951 57.8974 202.371C57.5849 201.891 57.4956 201.333 57.663 200.775C57.7077 200.63 57.6519 200.485 57.5291 200.396C57.4733 200.362 57.4064 200.34 57.3394 200.34C57.2613 200.34 57.1832 200.362 57.1274 200.418C57.0158 200.507 56.2569 200.965 55.3864 200.965C54.9177 200.965 54.4825 200.831 54.1142 200.563C53.7348 200.295 53.266 199.827 53.1656 199.157C53.0763 198.532 53.333 197.84 53.9133 197.092C55.1409 195.552 59.7834 194.057 61.078 193.666ZM61.3235 193.242C61.3235 193.242 55.1409 195.005 53.6678 196.869C52.1947 198.733 52.8978 200.083 53.9356 200.82C54.4155 201.166 54.9289 201.288 55.4087 201.288C56.4131 201.288 57.2501 200.753 57.3617 200.675C56.9377 202.047 57.8751 203.543 59.7946 203.732C59.8727 203.744 59.9397 203.744 60.0066 203.744C61.29 203.744 62.3279 202.628 62.473 201.121C62.6962 198.889 61.3235 193.242 61.3235 193.242Z" fill="#D99202"/>
<path d="M67.9412 200.564C67.439 200.564 66.8699 200.396 66.2561 200.051C64.437 199.035 62.0488 194.247 61.5912 193.31C62.5064 192.931 67.0038 191.111 68.9568 190.989C69.0349 190.989 69.113 190.978 69.18 190.978C70.6084 190.978 71.7021 191.848 71.7802 193.053C71.836 193.89 71.6017 194.638 71.1218 195.14C70.7312 195.564 70.1955 195.787 69.6375 195.787C69.5371 195.787 69.4478 195.776 69.3474 195.765C69.3362 195.765 69.3362 195.765 69.3251 195.765C69.2581 195.765 69.2023 195.799 69.1688 195.866C69.1353 195.933 69.1577 196.011 69.2135 196.066C69.2246 196.078 70.6754 197.595 69.8719 199.214C69.6375 199.727 69.0572 200.564 67.9412 200.564Z" fill="#FBE993"/>
<path d="M69.18 191.156C70.5191 191.156 71.5459 191.971 71.6128 193.076C71.6686 193.868 71.4454 194.56 70.999 195.04C70.6419 195.419 70.1509 195.631 69.6375 195.631C69.5482 195.631 69.459 195.62 69.3697 195.609C69.3585 195.609 69.3362 195.609 69.325 195.609C69.1911 195.609 69.0795 195.687 69.0237 195.81C68.9679 195.944 69.0014 196.1 69.113 196.2C69.1242 196.212 70.4745 197.651 69.738 199.147C69.459 199.716 68.9233 200.385 67.9524 200.385C67.4725 200.385 66.9368 200.218 66.3453 199.894C64.649 198.957 62.4282 194.604 61.8256 193.388C63.0197 192.908 67.1377 191.268 68.9791 191.145C69.0349 191.156 69.113 191.156 69.18 191.156ZM69.18 190.821C69.1018 190.821 69.0237 190.821 68.9456 190.832C66.7248 190.978 61.3569 193.232 61.3569 193.232C61.3569 193.232 64.091 199.046 66.1668 200.207C66.8475 200.586 67.439 200.742 67.9412 200.742C68.9791 200.742 69.6487 200.073 70.0281 199.314C70.8428 197.662 69.4813 196.1 69.325 195.966C69.4255 195.977 69.5371 195.988 69.6375 195.988C70.9432 195.988 72.0704 194.861 71.9476 193.076C71.8695 191.748 70.6754 190.821 69.18 190.821Z" fill="#D99202"/>
<path d="M65.2966 202.417C65.1962 202.417 65.1404 202.372 65.1404 202.372C65.1292 202.372 65.118 202.361 65.118 202.35C64.8948 202.227 64.7944 202.048 64.5935 201.736L64.5489 201.669C62.8191 198.812 61.4799 194.036 61.2567 193.232L61.4353 193.109C61.6808 193.779 62.4397 195.888 62.9419 196.881C63.6673 198.321 63.9797 198.801 64.8056 200.107C65.0622 200.497 65.3636 200.977 65.743 201.569C65.743 201.569 66.0108 202.015 65.743 202.216C65.5868 202.361 65.4305 202.417 65.2966 202.417Z" fill="#FBE993"/>
<path d="M61.9375 194.928C62.2276 195.676 62.5513 196.468 62.808 196.97C63.5334 198.41 63.8458 198.901 64.6828 200.206C64.9283 200.586 65.2408 201.066 65.6091 201.668C65.6203 201.691 65.7877 202.003 65.6537 202.104C65.4752 202.238 65.3524 202.26 65.3078 202.26C65.2743 202.26 65.252 202.249 65.2408 202.249C65.2297 202.238 65.2185 202.226 65.1962 202.226C65.0176 202.126 64.9395 202.003 64.7386 201.668L64.694 201.601C63.511 199.637 62.5178 196.78 61.9375 194.928ZM61.5246 192.863L61.067 193.176C61.067 193.176 62.4843 198.599 64.4038 201.769C64.627 202.137 64.7498 202.36 65.0288 202.517C65.0288 202.517 65.1181 202.595 65.2966 202.595C65.4305 202.595 65.6203 202.55 65.8435 202.372C66.234 202.081 65.8881 201.501 65.8881 201.501C64.2699 198.945 64.0355 198.7 63.0981 196.836C62.5066 195.653 61.5246 192.863 61.5246 192.863Z" fill="#D99202"/>
<path d="M62.0158 191.223C62.0158 191.223 64.4486 190.264 64.9731 189.449C65.4976 188.634 65.1517 188.121 64.7165 187.864C64.0692 187.485 63.3996 187.998 63.3326 188.065C63.4442 187.496 63.009 186.927 62.2278 186.927C61.6698 186.927 61.2457 187.44 61.2457 188.087C61.2346 188.991 62.0158 191.223 62.0158 191.223Z" fill="#D99202"/>
<path d="M59.259 192.174C59.259 192.174 58.4332 189.663 57.6408 189.082C56.8485 188.502 56.3016 188.814 56.0227 189.261C55.6097 189.897 56.0896 190.6 56.1454 190.667C55.5763 190.511 54.9736 190.924 54.929 191.716C54.8955 192.285 55.3865 192.743 56.045 192.776C56.9601 192.832 59.259 192.174 59.259 192.174Z" fill="#D99202"/>
<path d="M60.3415 194.995C60.3415 194.995 57.8752 195.698 57.2837 196.446C56.6922 197.194 56.9824 197.729 57.3841 198.019C57.9868 198.444 58.6898 198.008 58.7456 197.964C58.5782 198.51 58.9465 199.102 59.7165 199.18C60.2634 199.236 60.7209 198.778 60.7879 198.142C60.8883 197.249 60.3415 194.995 60.3415 194.995Z" fill="#D99202"/>
<path d="M63.5107 194.002C63.5107 194.002 64.5486 196.212 65.341 196.658C66.1333 197.094 66.5909 196.748 66.8141 196.324C67.1265 195.699 66.602 195.096 66.5462 195.051C67.0931 195.129 67.5953 194.683 67.5395 193.947C67.506 193.422 67.0038 193.054 66.4012 193.098C65.553 193.143 63.5107 194.002 63.5107 194.002Z" fill="#D99202"/>
<g opacity="0.26">
<mask id="mask0_19_37785" style="mask-type:luminance" maskUnits="userSpaceOnUse" x="41" y="173" width="40" height="41">
<path d="M80.9985 193.5C80.9985 204.538 72.0483 213.499 61 213.499C49.9629 213.499 41.0015 204.549 41.0015 193.5C41.0015 182.452 49.9517 173.502 61 173.502C72.0483 173.502 80.9985 182.452 80.9985 193.5Z" fill="white"/>
</mask>
<g mask="url(#mask0_19_37785)">
<path d="M61.3683 197.205C76.9495 197.205 89.5806 186.843 89.5806 174.06C89.5806 161.277 76.9495 150.914 61.3683 150.914C45.7872 150.914 33.1561 161.277 33.1561 174.06C33.1561 186.843 45.7872 197.205 61.3683 197.205Z" fill="white"/>
</g>
</g>
<path d="M114.902 177.702V191.502H112.282V183.322L109.662 188.842H107.902L105.242 183.262V191.502H102.622V177.702H105.242L108.782 185.322L112.282 177.702H114.902ZM122.13 180.362C123.597 180.362 124.717 180.682 125.49 181.322C126.277 181.949 126.67 182.915 126.67 184.222V191.502H124.59L124.01 190.022H123.93C123.624 190.409 123.304 190.729 122.97 190.982C122.65 191.235 122.277 191.415 121.85 191.522C121.437 191.642 120.924 191.702 120.31 191.702C119.67 191.702 119.09 191.582 118.57 191.342C118.064 191.089 117.664 190.709 117.37 190.202C117.077 189.682 116.93 189.029 116.93 188.242C116.93 187.082 117.337 186.229 118.15 185.682C118.964 185.122 120.184 184.815 121.81 184.762L123.71 184.702V184.222C123.71 183.649 123.557 183.229 123.25 182.962C122.957 182.695 122.544 182.562 122.01 182.562C121.477 182.562 120.957 182.642 120.45 182.802C119.944 182.949 119.437 183.135 118.93 183.362L117.95 181.342C118.537 181.035 119.184 180.795 119.89 180.622C120.61 180.449 121.357 180.362 122.13 180.362ZM122.55 186.482C121.59 186.509 120.924 186.682 120.55 187.002C120.177 187.322 119.99 187.742 119.99 188.262C119.99 188.715 120.124 189.042 120.39 189.242C120.657 189.429 121.004 189.522 121.43 189.522C122.07 189.522 122.61 189.335 123.05 188.962C123.49 188.575 123.71 188.035 123.71 187.342V186.442L122.55 186.482ZM126.03 176.082C125.99 176.722 125.797 177.295 125.45 177.802C125.117 178.295 124.67 178.682 124.11 178.962C123.55 179.242 122.897 179.382 122.15 179.382C121.004 179.382 120.097 179.082 119.43 178.482C118.764 177.882 118.404 177.082 118.35 176.082H120.01C120.05 176.455 120.164 176.729 120.35 176.902C120.55 177.075 120.81 177.189 121.13 177.242C121.45 177.282 121.797 177.302 122.17 177.302C122.49 177.302 122.804 177.275 123.11 177.222C123.43 177.155 123.704 177.035 123.93 176.862C124.157 176.689 124.29 176.429 124.33 176.082H126.03ZM121.79 195.702C121.337 195.702 120.95 195.595 120.63 195.382C120.324 195.169 120.17 194.789 120.17 194.242C120.17 193.682 120.324 193.295 120.63 193.082C120.95 192.882 121.337 192.782 121.79 192.782C122.23 192.782 122.61 192.882 122.93 193.082C123.25 193.295 123.41 193.682 123.41 194.242C123.41 194.789 123.25 195.169 122.93 195.382C122.61 195.595 122.23 195.702 121.79 195.702ZM132.58 182.842V188.342C132.58 189.062 132.92 189.402 133.6 189.402H134.38V191.502H133.2C132.24 191.502 131.5 191.242 130.94 190.702C130.38 190.162 130.12 189.422 130.12 188.502V182.842H128.68V181.102H130.12V179.062L132.58 178.202V181.102H134.58V182.842H132.58ZM143.986 182.842V188.342C143.986 189.062 144.326 189.402 145.006 189.402H145.786V191.502H144.606C143.646 191.502 142.906 191.242 142.346 190.702C141.786 190.162 141.526 189.422 141.526 188.502V182.842H140.086V181.102H141.526V179.062L143.986 178.202V181.102H145.986V182.842H143.986ZM147.6 181.102H150.02V182.182C150.26 181.742 150.6 181.422 151.04 181.202C151.46 181.002 151.94 180.882 152.48 180.882C152.78 180.882 153.06 180.922 153.32 180.962V183.282C152.84 183.142 152.44 183.062 152.08 183.062C151.48 183.062 150.98 183.262 150.62 183.642C150.26 184.022 150.08 184.562 150.08 185.262V191.502H147.6V181.102ZM169.808 179.162C169.701 179.709 169.555 180.222 169.368 180.702C169.181 181.182 168.921 181.615 168.588 182.002C168.268 182.375 167.841 182.695 167.308 182.962C166.775 183.215 166.095 183.402 165.268 183.522V191.502H162.988L162.588 190.102H162.408C162.181 190.475 161.888 190.782 161.528 191.022C161.181 191.249 160.795 191.415 160.368 191.522C159.955 191.642 159.521 191.702 159.068 191.702C158.295 191.702 157.615 191.562 157.028 191.282C156.441 191.002 155.988 190.569 155.668 189.982C155.348 189.395 155.188 188.635 155.188 187.702V180.582H158.168V186.962C158.168 187.735 158.308 188.322 158.588 188.722C158.868 189.122 159.315 189.322 159.928 189.322C160.835 189.322 161.455 189.015 161.788 188.402C162.121 187.775 162.288 186.882 162.288 185.722V180.582H165.268V181.722C165.601 181.615 165.875 181.435 166.088 181.182C166.301 180.915 166.461 180.595 166.568 180.222C166.675 179.835 166.728 179.409 166.728 178.942H169.668L169.808 179.162ZM180.363 186.022C180.363 187.235 180.143 188.269 179.703 189.122C179.277 189.962 178.663 190.602 177.863 191.042C177.077 191.482 176.137 191.702 175.043 191.702C174.03 191.702 173.123 191.482 172.323 191.042C171.537 190.602 170.917 189.962 170.463 189.122C170.01 188.269 169.783 187.235 169.783 186.022C169.783 184.209 170.257 182.815 171.203 181.842C172.15 180.869 173.45 180.382 175.103 180.382C175.837 180.382 176.53 180.495 177.183 180.722C177.837 180.949 178.39 181.282 178.843 181.722C179.203 181.615 179.49 181.435 179.703 181.182C179.917 180.915 180.07 180.595 180.163 180.222C180.257 179.835 180.303 179.409 180.303 178.942H183.243L183.383 179.162C183.25 179.802 183.063 180.402 182.823 180.962C182.597 181.509 182.25 181.982 181.783 182.382C181.317 182.782 180.677 183.089 179.863 183.302C180.023 183.689 180.143 184.109 180.223 184.562C180.317 185.015 180.363 185.502 180.363 186.022ZM172.823 186.022C172.823 186.742 172.897 187.349 173.043 187.842C173.203 188.322 173.45 188.689 173.783 188.942C174.117 189.182 174.55 189.302 175.083 189.302C175.617 189.302 176.043 189.182 176.363 188.942C176.697 188.689 176.937 188.322 177.083 187.842C177.243 187.349 177.323 186.742 177.323 186.022C177.323 185.302 177.243 184.702 177.083 184.222C176.937 183.742 176.697 183.382 176.363 183.142C176.03 182.902 175.597 182.782 175.063 182.782C174.277 182.782 173.703 183.055 173.343 183.602C172.997 184.135 172.823 184.942 172.823 186.022ZM178.923 176.382C178.737 176.569 178.49 176.795 178.183 177.062C177.877 177.329 177.543 177.609 177.183 177.902C176.837 178.195 176.49 178.475 176.143 178.742C175.81 178.995 175.517 179.209 175.263 179.382H173.283V179.122C173.497 178.869 173.743 178.575 174.023 178.242C174.317 177.895 174.603 177.542 174.883 177.182C175.163 176.809 175.397 176.475 175.583 176.182H178.923V176.382ZM184.478 190.562C183.718 189.862 183.358 188.762 183.358 187.262V185.322C183.358 183.842 183.718 182.762 184.478 182.042C185.238 181.342 186.258 180.982 187.578 180.982C188.858 180.982 189.858 181.322 190.578 181.962C191.298 182.622 191.658 183.522 191.658 184.682V184.882H189.298V184.762C189.298 184.282 189.138 183.882 188.838 183.602C188.538 183.322 188.138 183.182 187.618 183.182C186.418 183.182 185.818 183.922 185.818 185.362V187.242C185.818 188.042 185.958 188.602 186.278 188.922C186.598 189.262 187.038 189.422 187.618 189.422C188.138 189.422 188.538 189.302 188.838 189.022C189.138 188.762 189.298 188.382 189.298 187.902V187.782H191.658V187.922C191.658 189.082 191.298 189.982 190.578 190.642C189.858 191.302 188.858 191.622 187.578 191.622C186.258 191.622 185.238 191.282 184.478 190.562Z" fill="white"/>
<path d="M94.3667 208.502V201.344H95.314V207.657H98.8394V208.502H94.3667ZM100.436 205.909C100.436 206.55 100.581 207.047 100.871 207.398C101.144 207.73 101.509 207.896 101.964 207.896C102.42 207.896 102.783 207.73 103.053 207.398C103.343 207.044 103.488 206.537 103.488 205.88C103.488 205.258 103.341 204.773 103.048 204.425C102.775 204.093 102.414 203.927 101.964 203.927C101.505 203.927 101.141 204.091 100.871 204.42C100.581 204.771 100.436 205.268 100.436 205.909ZM104.508 204.21V203.189H105.451V203.995C105.451 204.399 105.389 204.708 105.265 204.923C105.106 205.203 104.814 205.46 104.391 205.694C104.391 205.74 104.391 205.787 104.391 205.836C104.391 207.047 104 207.869 103.219 208.302C102.835 208.513 102.417 208.619 101.964 208.619C101.222 208.619 100.635 208.386 100.202 207.921C99.7557 207.439 99.5327 206.769 99.5327 205.909C99.5327 204.949 99.7996 204.238 100.333 203.775C100.779 203.391 101.323 203.199 101.964 203.199C102.677 203.199 103.26 203.432 103.712 203.897C104.054 204.252 104.267 204.71 104.352 205.27C104.573 205.133 104.731 204.991 104.826 204.845C104.923 204.698 104.971 204.487 104.967 204.21H104.508ZM101.427 210.089V209.088H102.428V210.089H101.427ZM106.427 202.354V201.344H107.306V202.354H106.427ZM106.427 208.502V203.316H107.306V208.502H106.427ZM111.432 208.502V203.316H112.223V204.054C112.604 203.484 113.154 203.199 113.874 203.199C114.186 203.199 114.472 203.256 114.733 203.37C114.997 203.481 115.194 203.627 115.324 203.81C115.454 203.992 115.545 204.208 115.597 204.459C115.63 204.622 115.646 204.907 115.646 205.313V208.502H114.767V205.348C114.767 204.99 114.733 204.723 114.665 204.547C114.596 204.368 114.474 204.226 114.298 204.122C114.126 204.015 113.922 203.961 113.688 203.961C113.314 203.961 112.99 204.08 112.716 204.317C112.446 204.555 112.311 205.006 112.311 205.67V208.502H111.432ZM116.999 208.502V201.344H117.877V203.912C118.288 203.437 118.805 203.199 119.43 203.199C119.814 203.199 120.148 203.276 120.431 203.429C120.714 203.578 120.916 203.787 121.037 204.054C121.16 204.321 121.222 204.708 121.222 205.216V208.502H120.343V205.216C120.343 204.776 120.247 204.457 120.055 204.259C119.866 204.057 119.598 203.956 119.25 203.956C118.989 203.956 118.743 204.024 118.512 204.161C118.284 204.295 118.122 204.477 118.024 204.708C117.926 204.939 117.877 205.258 117.877 205.665V208.502H116.999ZM125.963 208.502V207.74C125.56 208.326 125.011 208.619 124.318 208.619C124.012 208.619 123.725 208.561 123.458 208.443C123.195 208.326 122.998 208.18 122.868 208.004C122.741 207.825 122.651 207.607 122.599 207.35C122.563 207.177 122.545 206.904 122.545 206.529V203.316H123.424V206.192C123.424 206.651 123.442 206.961 123.478 207.12C123.533 207.351 123.651 207.534 123.83 207.667C124.009 207.797 124.23 207.862 124.494 207.862C124.757 207.862 125.005 207.796 125.236 207.662C125.467 207.525 125.63 207.341 125.724 207.11C125.822 206.876 125.871 206.537 125.871 206.095V203.316H126.75V208.502H125.963ZM131.515 207.862C131.19 208.139 130.875 208.334 130.573 208.448C130.273 208.562 129.951 208.619 129.606 208.619C129.036 208.619 128.598 208.481 128.292 208.204C127.986 207.924 127.833 207.568 127.833 207.135C127.833 206.881 127.89 206.65 128.004 206.441C128.122 206.23 128.273 206.061 128.458 205.934C128.647 205.807 128.859 205.711 129.093 205.646C129.266 205.6 129.526 205.556 129.875 205.514C130.584 205.429 131.107 205.328 131.442 205.211C131.445 205.09 131.447 205.014 131.447 204.981C131.447 204.623 131.364 204.371 131.198 204.225C130.973 204.026 130.639 203.927 130.197 203.927C129.783 203.927 129.477 204 129.279 204.146C129.083 204.29 128.939 204.545 128.844 204.913L127.985 204.796C128.063 204.428 128.192 204.132 128.371 203.907C128.55 203.679 128.808 203.505 129.147 203.385C129.486 203.261 129.878 203.199 130.324 203.199C130.766 203.199 131.126 203.251 131.403 203.355C131.68 203.46 131.883 203.591 132.013 203.751C132.143 203.907 132.235 204.106 132.287 204.347C132.316 204.496 132.331 204.767 132.331 205.157V206.329C132.331 207.146 132.348 207.664 132.384 207.882C132.423 208.097 132.498 208.303 132.609 208.502H131.691C131.6 208.32 131.541 208.106 131.515 207.862ZM131.442 205.899C131.123 206.03 130.644 206.14 130.006 206.231C129.645 206.284 129.389 206.342 129.24 206.407C129.09 206.472 128.974 206.568 128.893 206.695C128.812 206.819 128.771 206.957 128.771 207.11C128.771 207.345 128.859 207.54 129.035 207.696C129.214 207.853 129.474 207.931 129.816 207.931C130.154 207.931 130.456 207.857 130.719 207.711C130.983 207.561 131.177 207.358 131.3 207.101C131.395 206.902 131.442 206.609 131.442 206.222V205.899ZM130.236 201.842L129.684 202.672H128.678L129.733 201.305H130.67L131.769 202.672H130.773L130.236 201.842ZM129.708 210.089V209.088H130.709V210.089H129.708ZM133.698 208.502V203.316H134.489V204.054C134.87 203.484 135.42 203.199 136.139 203.199C136.452 203.199 136.738 203.256 136.999 203.37C137.262 203.481 137.459 203.627 137.589 203.81C137.72 203.992 137.811 204.208 137.863 204.459C137.895 204.622 137.912 204.907 137.912 205.313V208.502H137.033V205.348C137.033 204.99 136.999 204.723 136.93 204.547C136.862 204.368 136.74 204.226 136.564 204.122C136.391 204.015 136.188 203.961 135.954 203.961C135.579 203.961 135.255 204.08 134.982 204.317C134.712 204.555 134.577 205.006 134.577 205.67V208.502H133.698ZM139.508 204.317V203.316H140.509V204.317H139.508ZM139.508 208.502V207.501H140.509V208.502H139.508ZM141.803 204.972C141.803 204.125 141.889 203.445 142.062 202.931C142.238 202.413 142.497 202.014 142.838 201.734C143.183 201.454 143.616 201.314 144.137 201.314C144.521 201.314 144.858 201.393 145.148 201.549C145.438 201.702 145.677 201.925 145.866 202.218C146.055 202.507 146.203 202.862 146.31 203.282C146.417 203.699 146.471 204.262 146.471 204.972C146.471 205.812 146.385 206.49 146.212 207.008C146.04 207.522 145.781 207.921 145.436 208.204C145.094 208.484 144.661 208.624 144.137 208.624C143.447 208.624 142.905 208.377 142.511 207.882C142.039 207.286 141.803 206.316 141.803 204.972ZM142.707 204.972C142.707 206.147 142.843 206.93 143.117 207.32C143.393 207.708 143.734 207.901 144.137 207.901C144.541 207.901 144.879 207.706 145.153 207.315C145.43 206.925 145.568 206.144 145.568 204.972C145.568 203.793 145.43 203.01 145.153 202.623C144.879 202.236 144.538 202.042 144.127 202.042C143.724 202.042 143.402 202.213 143.161 202.555C142.858 202.991 142.707 203.797 142.707 204.972ZM147.863 208.502V207.501H148.864V208.502H147.863ZM154.772 207.657V208.502H150.041C150.034 208.29 150.068 208.087 150.143 207.892C150.264 207.569 150.456 207.252 150.719 206.939C150.986 206.627 151.37 206.266 151.872 205.855C152.65 205.217 153.175 204.713 153.449 204.342C153.722 203.967 153.859 203.614 153.859 203.282C153.859 202.934 153.734 202.641 153.483 202.403C153.236 202.162 152.912 202.042 152.511 202.042C152.088 202.042 151.75 202.169 151.496 202.423C151.242 202.677 151.113 203.028 151.11 203.478L150.207 203.385C150.268 202.711 150.501 202.198 150.905 201.847C151.308 201.492 151.85 201.314 152.531 201.314C153.218 201.314 153.761 201.505 154.162 201.886C154.562 202.267 154.762 202.739 154.762 203.302C154.762 203.588 154.704 203.87 154.586 204.146C154.469 204.423 154.274 204.715 154 205.021C153.73 205.326 153.279 205.746 152.648 206.28C152.121 206.723 151.782 207.024 151.632 207.184C151.483 207.34 151.359 207.498 151.261 207.657H154.772ZM155.724 206.612L156.603 206.495C156.704 206.993 156.875 207.353 157.116 207.574C157.36 207.792 157.656 207.901 158.004 207.901C158.418 207.901 158.766 207.758 159.049 207.472C159.336 207.185 159.479 206.83 159.479 206.407C159.479 206.004 159.347 205.672 159.083 205.411C158.82 205.147 158.485 205.016 158.078 205.016C157.912 205.016 157.705 205.048 157.458 205.113L157.555 204.342C157.614 204.348 157.661 204.352 157.697 204.352C158.071 204.352 158.408 204.254 158.708 204.059C159.007 203.863 159.157 203.562 159.157 203.155C159.157 202.833 159.048 202.566 158.83 202.354C158.611 202.143 158.33 202.037 157.985 202.037C157.643 202.037 157.358 202.145 157.13 202.359C156.903 202.574 156.756 202.896 156.691 203.326L155.812 203.17C155.919 202.581 156.164 202.125 156.544 201.803C156.925 201.477 157.399 201.314 157.965 201.314C158.356 201.314 158.716 201.399 159.044 201.568C159.373 201.734 159.624 201.962 159.796 202.252C159.972 202.542 160.06 202.849 160.06 203.175C160.06 203.484 159.977 203.766 159.811 204.02C159.645 204.273 159.399 204.475 159.074 204.625C159.497 204.723 159.826 204.926 160.06 205.235C160.294 205.541 160.412 205.925 160.412 206.388C160.412 207.013 160.184 207.543 159.728 207.979C159.272 208.412 158.696 208.629 158 208.629C157.371 208.629 156.849 208.442 156.432 208.067C156.019 207.693 155.783 207.208 155.724 206.612ZM164.103 208.502V206.788H160.998V205.982L164.264 201.344H164.982V205.982H165.949V206.788H164.982V208.502H164.103ZM164.103 205.982V202.755L161.862 205.982H164.103ZM169.669 208.502V206.788H166.564V205.982L169.831 201.344H170.548V205.982H171.515V206.788H170.548V208.502H169.669ZM169.669 205.982V202.755L167.428 205.982H169.669ZM172.423 206.612L173.302 206.495C173.403 206.993 173.574 207.353 173.815 207.574C174.059 207.792 174.355 207.901 174.704 207.901C175.117 207.901 175.465 207.758 175.749 207.472C176.035 207.185 176.178 206.83 176.178 206.407C176.178 206.004 176.046 205.672 175.783 205.411C175.519 205.147 175.184 205.016 174.777 205.016C174.611 205.016 174.404 205.048 174.157 205.113L174.254 204.342C174.313 204.348 174.36 204.352 174.396 204.352C174.77 204.352 175.107 204.254 175.407 204.059C175.706 203.863 175.856 203.562 175.856 203.155C175.856 202.833 175.747 202.566 175.529 202.354C175.311 202.143 175.029 202.037 174.684 202.037C174.342 202.037 174.057 202.145 173.83 202.359C173.602 202.574 173.455 202.896 173.39 203.326L172.511 203.17C172.619 202.581 172.863 202.125 173.244 201.803C173.625 201.477 174.098 201.314 174.665 201.314C175.055 201.314 175.415 201.399 175.744 201.568C176.072 201.734 176.323 201.962 176.496 202.252C176.671 202.542 176.759 202.849 176.759 203.175C176.759 203.484 176.676 203.766 176.51 204.02C176.344 204.273 176.098 204.475 175.773 204.625C176.196 204.723 176.525 204.926 176.759 205.235C176.994 205.541 177.111 205.925 177.111 206.388C177.111 207.013 176.883 207.543 176.427 207.979C175.972 208.412 175.395 208.629 174.699 208.629C174.07 208.629 173.548 208.442 173.131 208.067C172.718 207.693 172.482 207.208 172.423 206.612ZM181.085 208.502V201.344H183.771C184.318 201.344 184.756 201.417 185.084 201.563C185.417 201.707 185.675 201.93 185.861 202.232C186.05 202.532 186.144 202.846 186.144 203.175C186.144 203.481 186.061 203.769 185.895 204.039C185.729 204.309 185.478 204.527 185.143 204.693C185.576 204.82 185.908 205.037 186.139 205.343C186.374 205.649 186.491 206.01 186.491 206.427C186.491 206.762 186.419 207.075 186.276 207.364C186.136 207.651 185.962 207.872 185.753 208.028C185.545 208.185 185.283 208.303 184.967 208.385C184.655 208.463 184.271 208.502 183.815 208.502H181.085ZM182.033 204.352H183.581C184 204.352 184.302 204.324 184.484 204.269C184.725 204.197 184.905 204.078 185.026 203.912C185.15 203.746 185.211 203.538 185.211 203.287C185.211 203.049 185.154 202.841 185.041 202.662C184.927 202.48 184.764 202.356 184.552 202.291C184.341 202.223 183.978 202.188 183.463 202.188H182.033V204.352ZM182.033 207.657H183.815C184.121 207.657 184.336 207.646 184.459 207.623C184.678 207.584 184.86 207.519 185.006 207.428C185.153 207.337 185.273 207.205 185.368 207.032C185.462 206.856 185.509 206.655 185.509 206.427C185.509 206.16 185.441 205.929 185.304 205.733C185.167 205.535 184.977 205.396 184.733 205.318C184.492 205.237 184.144 205.196 183.688 205.196H182.033V207.657ZM189.616 208.502V202.188H187.257V201.344H192.931V202.188H190.563V208.502H189.616ZM199.015 205.992L199.962 206.231C199.764 207.009 199.406 207.604 198.888 208.014C198.374 208.421 197.744 208.624 196.999 208.624C196.227 208.624 195.599 208.468 195.114 208.155C194.632 207.84 194.264 207.384 194.01 206.788C193.76 206.192 193.634 205.553 193.634 204.869C193.634 204.124 193.776 203.474 194.059 202.921C194.346 202.364 194.751 201.943 195.275 201.656C195.802 201.367 196.382 201.222 197.013 201.222C197.729 201.222 198.332 201.404 198.82 201.769C199.308 202.133 199.648 202.646 199.84 203.307L198.908 203.526C198.742 203.006 198.501 202.626 198.185 202.389C197.869 202.151 197.472 202.032 196.994 202.032C196.444 202.032 195.983 202.164 195.612 202.428C195.244 202.691 194.985 203.046 194.835 203.492C194.686 203.935 194.611 204.392 194.611 204.864C194.611 205.473 194.699 206.005 194.875 206.461C195.054 206.913 195.33 207.252 195.705 207.477C196.079 207.701 196.484 207.813 196.92 207.813C197.451 207.813 197.9 207.66 198.268 207.354C198.636 207.049 198.885 206.594 199.015 205.992Z" fill="#D6D6D6"/>
</g>
<rect x="245" y="155" width="200" height="77" rx="10" fill="#4181EE"/>
<g clip-path="url(#clip3_19_37785)">
<path d="M288.5 213.276C277.596 213.276 268.723 204.403 268.723 193.499C268.723 182.595 277.596 173.723 288.5 173.723C299.404 173.723 308.277 182.595 308.277 193.499C308.277 204.403 299.404 213.276 288.5 213.276Z" fill="url(#paint5_linear_19_37785)"/>
<path d="M288.5 173.946C293.723 173.946 298.634 175.978 302.328 179.672C306.022 183.366 308.054 188.277 308.054 193.5C308.054 198.723 306.022 203.634 302.328 207.328C298.634 211.022 293.723 213.054 288.5 213.054C283.277 213.054 278.366 211.022 274.672 207.328C270.989 203.634 268.946 198.723 268.946 193.5C268.946 188.277 270.978 183.366 274.672 179.672C278.366 175.989 283.277 173.946 288.5 173.946ZM288.5 173.5C277.462 173.5 268.5 182.451 268.5 193.5C268.5 204.538 277.451 213.5 288.5 213.5C299.549 213.5 308.5 204.549 308.5 193.5C308.5 182.451 299.549 173.5 288.5 173.5Z" fill="#C6DBDF"/>
<path d="M288.5 173.946C293.723 173.946 298.634 175.978 302.328 179.672C306.022 183.366 308.054 188.277 308.054 193.5C308.054 198.723 306.022 203.634 302.328 207.328C298.634 211.022 293.723 213.054 288.5 213.054C283.277 213.054 278.366 211.022 274.672 207.328C270.989 203.634 268.946 198.723 268.946 193.5C268.946 188.277 270.978 183.366 274.672 179.672C278.366 175.989 283.277 173.946 288.5 173.946ZM288.5 173.5C277.462 173.5 268.5 182.451 268.5 193.5C268.5 204.538 277.451 213.5 288.5 213.5C299.549 213.5 308.5 204.549 308.5 193.5C308.5 182.451 299.549 173.5 288.5 173.5Z" fill="url(#paint6_linear_19_37785)"/>
<path d="M306.1 193.5C306.1 203.221 298.221 211.1 288.5 211.1C278.779 211.1 270.9 203.221 270.9 193.5C270.9 183.779 278.779 175.899 288.5 175.899C298.221 175.899 306.1 183.779 306.1 193.5Z" fill="url(#paint7_linear_19_37785)"/>
<path d="M305.353 193.5C305.353 202.808 297.808 210.353 288.5 210.353C279.192 210.353 271.647 202.808 271.647 193.5C271.647 184.192 279.192 176.647 288.5 176.647C297.808 176.647 305.353 184.192 305.353 193.5Z" fill="#839EA0"/>
<path d="M304.638 193.5C304.638 202.406 297.417 209.638 288.5 209.638C279.594 209.638 272.361 202.417 272.361 193.5C272.361 184.593 279.582 177.361 288.5 177.361C297.406 177.361 304.638 184.593 304.638 193.5Z" fill="url(#paint8_linear_19_37785)"/>
<path d="M288.5 177.919C292.663 177.919 296.569 179.538 299.515 182.484C302.462 185.431 304.08 189.337 304.08 193.5C304.08 197.663 302.462 201.569 299.515 204.515C296.569 207.462 292.663 209.08 288.5 209.08C284.337 209.08 280.431 207.462 277.484 204.515C274.549 201.569 272.919 197.663 272.919 193.5C272.919 189.337 274.538 185.431 277.484 182.484C280.431 179.549 284.337 177.919 288.5 177.919ZM288.5 177.361C279.594 177.361 272.361 184.582 272.361 193.5C272.361 202.406 279.582 209.638 288.5 209.638C297.406 209.638 304.638 202.417 304.638 193.5C304.638 184.593 297.406 177.361 288.5 177.361Z" fill="url(#paint9_linear_19_37785)"/>
<path d="M297.316 190.397C296.87 189.951 297.249 189.147 297.249 189.147C297.249 189.147 291.758 190.688 288.79 190.688C285.899 190.688 280.464 189.147 280.464 189.147C280.464 189.147 280.843 189.951 280.408 190.397C278.99 191.714 278.153 193.366 278.153 195.163C278.153 199.449 282.941 202.931 288.857 202.931C294.772 202.931 299.56 199.46 299.56 195.163C299.571 193.366 298.734 191.714 297.316 190.397Z" fill="#98B6B7"/>
<path d="M282.071 190.174C283.142 191.022 287.886 192.205 293.611 192.116C296.089 192.049 298.578 193.187 299.337 195.654C299.292 194.471 299.247 192.473 296.993 190.308C296.725 189.973 296.982 189.471 296.982 189.471C296.982 189.471 293.968 190.687 291.602 190.799C289.236 190.91 282.071 190.174 282.071 190.174Z" fill="#83A0A2"/>
<path d="M281.133 190.174C281.133 190.174 281.647 190.71 283.656 191.156C283.031 191.602 281.569 193.232 281.859 196.033C282.16 198.823 284.057 201.178 286.133 202.205C284.615 201.937 279.984 200.386 279.716 195.922C279.627 193.622 280.988 191.625 281.122 191.078C281.267 190.531 281.133 190.174 281.133 190.174Z" fill="#EFFBFA"/>
<path d="M282.45 196.737C282.328 196.737 282.205 196.725 282.082 196.692L281.1 196.424C280.743 196.324 280.453 196.1 280.263 195.777C280.084 195.453 280.029 195.085 280.129 194.728L280.252 194.259C280.43 193.612 281.044 193.187 281.703 193.243C281.87 193.254 282.004 193.411 281.982 193.578C281.97 193.745 281.814 193.879 281.647 193.857C281.279 193.824 280.955 194.058 280.854 194.404L280.732 194.873C280.676 195.062 280.709 195.274 280.81 195.442C280.91 195.62 281.066 195.743 281.267 195.799L282.249 196.067C282.439 196.123 282.651 196.089 282.819 195.989C282.997 195.888 283.12 195.732 283.176 195.531L283.299 195.062C283.377 194.772 283.276 194.46 283.042 194.27C282.908 194.158 282.886 193.969 282.986 193.835C283.098 193.701 283.287 193.678 283.421 193.779C283.857 194.125 284.046 194.694 283.901 195.23L283.779 195.699C283.678 196.056 283.455 196.346 283.131 196.536C282.919 196.67 282.685 196.737 282.45 196.737Z" fill="#83A0A2"/>
<path d="M297.383 188.567C297.383 189.683 293.566 190.576 288.868 190.576C284.169 190.576 280.352 189.672 280.352 188.567C280.352 187.451 284.169 186.558 288.868 186.558C293.566 186.547 297.383 187.451 297.383 188.567Z" fill="#98B6B7"/>
<path d="M295.866 188.332C295.866 189.08 292.729 189.682 288.868 189.682C285.006 189.682 281.87 189.08 281.87 188.332C281.87 187.584 285.006 186.981 288.868 186.981C292.729 186.981 295.866 187.595 295.866 188.332Z" fill="#83A0A2"/>
<path d="M280.352 188.566C280.352 188.566 280.296 188.857 280.453 189.102C280.609 189.348 281.067 190.174 284.247 190.698C286.078 190.999 289.504 191.211 291.658 190.966C293.812 190.72 295.754 190.285 296.602 189.761C297.45 189.236 297.428 188.745 297.395 188.566C297.015 189.035 293.868 190.52 289.002 190.52C284.113 190.52 280.352 188.566 280.352 188.566Z" fill="#EFFBFA"/>
<path d="M283.633 189.148C284.496 189.148 285.196 188.568 285.196 187.853C285.196 187.138 284.496 186.559 283.633 186.559C282.77 186.559 282.071 187.138 282.071 187.853C282.071 188.568 282.77 189.148 283.633 189.148Z" fill="#EFFBFA"/>
<path d="M286.145 189.628C287.007 189.628 287.707 189.049 287.707 188.334C287.707 187.619 287.007 187.039 286.145 187.039C285.282 187.039 284.582 187.619 284.582 188.334C284.582 189.049 285.282 189.628 286.145 189.628Z" fill="#EFFBFA"/>
<path d="M286.77 187.842C287.632 187.842 288.332 187.263 288.332 186.548C288.332 185.833 287.632 185.253 286.77 185.253C285.907 185.253 285.207 185.833 285.207 186.548C285.207 187.263 285.907 187.842 286.77 187.842Z" fill="#EFFBFA"/>
<path d="M288.633 189.628C289.496 189.628 290.196 189.049 290.196 188.334C290.196 187.619 289.496 187.039 288.633 187.039C287.77 187.039 287.071 187.619 287.071 188.334C287.071 189.049 287.77 189.628 288.633 189.628Z" fill="#EFFBFA"/>
<path d="M289.281 187.842C290.143 187.842 290.843 187.263 290.843 186.548C290.843 185.833 290.143 185.253 289.281 185.253C288.418 185.253 287.718 185.833 287.718 186.548C287.718 187.263 288.418 187.842 289.281 187.842Z" fill="#EFFBFA"/>
<path d="M291.323 189.148C292.186 189.148 292.886 188.568 292.886 187.853C292.886 187.138 292.186 186.559 291.323 186.559C290.46 186.559 289.761 187.138 289.761 187.853C289.761 188.568 290.46 189.148 291.323 189.148Z" fill="#EFFBFA"/>
<path d="M293.511 189.148C294.374 189.148 295.073 188.568 295.073 187.853C295.073 187.138 294.374 186.559 293.511 186.559C292.648 186.559 291.948 187.138 291.948 187.853C291.948 188.568 292.648 189.148 293.511 189.148Z" fill="#EFFBFA"/>
<path d="M292.417 187.039C293.28 187.039 293.979 186.459 293.979 185.744C293.979 185.029 293.28 184.449 292.417 184.449C291.554 184.449 290.854 185.029 290.854 185.744C290.854 186.459 291.554 187.039 292.417 187.039Z" fill="#EFFBFA"/>
<path d="M290.698 185.744C291.561 185.744 292.26 185.289 292.26 184.729C292.26 184.168 291.561 183.713 290.698 183.713C289.835 183.713 289.135 184.168 289.135 184.729C289.135 185.289 289.835 185.744 290.698 185.744Z" fill="#EFFBFA"/>
<g opacity="0.26">
<mask id="mask1_19_37785" style="mask-type:luminance" maskUnits="userSpaceOnUse" x="268" y="173" width="41" height="41">
<path d="M308.5 193.5C308.5 204.538 299.549 213.5 288.5 213.5C277.462 213.5 268.5 204.549 268.5 193.5C268.5 182.451 277.451 173.5 288.5 173.5C299.549 173.5 308.5 182.451 308.5 193.5Z" fill="white"/>
</mask>
<g mask="url(#mask1_19_37785)">
<path d="M288.868 197.206C304.451 197.206 317.083 186.842 317.083 174.058C317.083 161.275 304.451 150.911 288.868 150.911C273.286 150.911 260.654 161.275 260.654 174.058C260.654 186.842 273.286 197.206 288.868 197.206Z" fill="white"/>
</g>
</g>
<path d="M346.495 177.7V191.5H343.875V183.32L341.255 188.84H339.495L336.835 183.26V191.5H334.215V177.7H336.835L340.375 185.32L343.875 177.7H346.495ZM353.724 180.36C355.19 180.36 356.31 180.68 357.084 181.32C357.87 181.947 358.264 182.913 358.264 184.22V191.5H356.184L355.604 190.02H355.524C355.217 190.407 354.897 190.727 354.564 190.98C354.244 191.233 353.87 191.413 353.444 191.52C353.03 191.64 352.517 191.7 351.904 191.7C351.264 191.7 350.684 191.58 350.164 191.34C349.657 191.087 349.257 190.707 348.964 190.2C348.67 189.68 348.524 189.027 348.524 188.24C348.524 187.08 348.93 186.227 349.744 185.68C350.557 185.12 351.777 184.813 353.404 184.76L355.304 184.7V184.22C355.304 183.647 355.15 183.227 354.844 182.96C354.55 182.693 354.137 182.56 353.604 182.56C353.07 182.56 352.55 182.64 352.044 182.8C351.537 182.947 351.03 183.133 350.524 183.36L349.544 181.34C350.13 181.033 350.777 180.793 351.484 180.62C352.204 180.447 352.95 180.36 353.724 180.36ZM354.144 186.48C353.184 186.507 352.517 186.68 352.144 187C351.77 187.32 351.584 187.74 351.584 188.26C351.584 188.713 351.717 189.04 351.984 189.24C352.25 189.427 352.597 189.52 353.024 189.52C353.664 189.52 354.204 189.333 354.644 188.96C355.084 188.573 355.304 188.033 355.304 187.34V186.44L354.144 186.48ZM357.624 176.08C357.584 176.72 357.39 177.293 357.044 177.8C356.71 178.293 356.264 178.68 355.704 178.96C355.144 179.24 354.49 179.38 353.744 179.38C352.597 179.38 351.69 179.08 351.024 178.48C350.357 177.88 349.997 177.08 349.944 176.08H351.604C351.644 176.453 351.757 176.727 351.944 176.9C352.144 177.073 352.404 177.187 352.724 177.24C353.044 177.28 353.39 177.3 353.764 177.3C354.084 177.3 354.397 177.273 354.704 177.22C355.024 177.153 355.297 177.033 355.524 176.86C355.75 176.687 355.884 176.427 355.924 176.08H357.624ZM353.384 195.7C352.93 195.7 352.544 195.593 352.224 195.38C351.917 195.167 351.764 194.787 351.764 194.24C351.764 193.68 351.917 193.293 352.224 193.08C352.544 192.88 352.93 192.78 353.384 192.78C353.824 192.78 354.204 192.88 354.524 193.08C354.844 193.293 355.004 193.68 355.004 194.24C355.004 194.787 354.844 195.167 354.524 195.38C354.204 195.593 353.824 195.7 353.384 195.7ZM364.173 182.84V188.34C364.173 189.06 364.513 189.4 365.193 189.4H365.973V191.5H364.793C363.833 191.5 363.093 191.24 362.533 190.7C361.973 190.16 361.713 189.42 361.713 188.5V182.84H360.273V181.1H361.713V179.06L364.173 178.2V181.1H366.173V182.84H364.173ZM372.882 190.76C372.162 190.18 371.802 189.4 371.802 188.42V188.34H374.122V188.38C374.122 188.78 374.262 189.08 374.582 189.3C374.902 189.52 375.302 189.62 375.822 189.62C376.362 189.62 376.782 189.54 377.102 189.34C377.402 189.14 377.562 188.86 377.562 188.46C377.562 188.14 377.442 187.9 377.222 187.72C376.982 187.56 376.602 187.42 376.082 187.34L374.982 187.16C373.942 187 373.162 186.68 372.682 186.2C372.182 185.74 371.942 185.08 371.942 184.2C371.942 183.22 372.302 182.44 373.022 181.86C373.742 181.28 374.682 180.98 375.822 180.98C376.582 180.98 377.262 181.12 377.862 181.38C378.462 181.64 378.922 182 379.242 182.46C379.562 182.92 379.742 183.44 379.742 184V184.12H377.442V184.06C377.442 183.7 377.282 183.42 377.002 183.22C376.722 183.02 376.322 182.92 375.822 182.92C375.302 182.92 374.922 183.02 374.662 183.22C374.382 183.42 374.262 183.7 374.262 184.02C374.262 184.34 374.362 184.58 374.562 184.74C374.762 184.92 375.102 185.04 375.582 185.1L376.802 185.28C377.842 185.44 378.622 185.76 379.142 186.24C379.662 186.74 379.922 187.42 379.922 188.28C379.922 189.36 379.522 190.18 378.762 190.76C377.982 191.34 376.982 191.62 375.742 191.62C374.542 191.62 373.602 191.34 372.882 190.76ZM388.435 181.92C389.135 182.54 389.495 183.46 389.495 184.66V191.5H387.095V190.6C386.735 190.96 386.375 191.22 386.015 191.38C385.655 191.54 385.195 191.62 384.635 191.62C383.555 191.62 382.735 191.34 382.155 190.76C381.555 190.2 381.275 189.4 381.275 188.38C381.275 187.46 381.575 186.72 382.215 186.18C382.835 185.64 383.715 185.36 384.835 185.36H387.035V184.54C387.035 183.44 386.475 182.88 385.375 182.88C384.895 182.88 384.535 183 384.255 183.24C383.975 183.48 383.855 183.78 383.855 184.16V184.22H381.555V184.14C381.555 183.18 381.895 182.4 382.595 181.84C383.275 181.28 384.215 180.98 385.395 180.98C386.715 180.98 387.715 181.3 388.435 181.92ZM386.595 189.18C386.875 188.88 387.035 188.42 387.035 187.8V187.06H385.235C384.195 187.06 383.675 187.48 383.675 188.32C383.675 189.2 384.175 189.62 385.195 189.62C385.835 189.62 386.315 189.48 386.595 189.18ZM391.654 187.3V181.1H394.134V187.18C394.134 187.92 394.234 188.48 394.454 188.86C394.674 189.24 395.114 189.42 395.774 189.42C396.414 189.42 396.854 189.24 397.074 188.88C397.294 188.52 397.414 187.96 397.414 187.18V181.1H399.894V187.3C399.894 188.74 399.554 189.82 398.874 190.54C398.194 191.26 397.154 191.62 395.774 191.62C393.014 191.62 391.654 190.18 391.654 187.3Z" fill="white"/>
<path d="M314.368 208.5V201.342H315.315V207.655H318.841V208.5H314.368ZM320.438 205.907C320.438 206.549 320.582 207.045 320.872 207.396C321.146 207.729 321.51 207.895 321.966 207.895C322.422 207.895 322.785 207.729 323.055 207.396C323.344 207.042 323.489 206.535 323.489 205.878C323.489 205.256 323.343 204.771 323.05 204.423C322.776 204.091 322.415 203.925 321.966 203.925C321.507 203.925 321.142 204.089 320.872 204.418C320.582 204.77 320.438 205.266 320.438 205.907ZM324.51 204.208V203.188H325.452V203.993C325.452 204.397 325.39 204.706 325.267 204.921C325.107 205.201 324.816 205.458 324.393 205.692C324.393 205.738 324.393 205.785 324.393 205.834C324.393 207.045 324.002 207.867 323.221 208.3C322.837 208.511 322.418 208.617 321.966 208.617C321.224 208.617 320.636 208.384 320.203 207.919C319.757 207.437 319.534 206.767 319.534 205.907C319.534 204.947 319.801 204.236 320.335 203.773C320.781 203.389 321.325 203.197 321.966 203.197C322.679 203.197 323.261 203.43 323.714 203.896C324.056 204.25 324.269 204.708 324.354 205.268C324.575 205.131 324.733 204.989 324.827 204.843C324.925 204.696 324.972 204.485 324.969 204.208H324.51ZM321.429 210.087V209.086H322.43V210.087H321.429ZM326.429 202.353V201.342H327.308V202.353H326.429ZM326.429 208.5V203.314H327.308V208.5H326.429ZM331.434 208.5V203.314H332.225V204.052C332.605 203.482 333.156 203.197 333.875 203.197C334.188 203.197 334.474 203.254 334.734 203.368C334.998 203.479 335.195 203.625 335.325 203.808C335.455 203.99 335.547 204.206 335.599 204.457C335.631 204.62 335.647 204.905 335.647 205.312V208.5H334.769V205.346C334.769 204.988 334.734 204.721 334.666 204.545C334.598 204.366 334.476 204.224 334.3 204.12C334.127 204.013 333.924 203.959 333.689 203.959C333.315 203.959 332.991 204.078 332.718 204.315C332.448 204.553 332.312 205.004 332.312 205.668V208.5H331.434ZM337 208.5V201.342H337.879V203.91C338.289 203.435 338.807 203.197 339.432 203.197C339.816 203.197 340.149 203.274 340.433 203.427C340.716 203.576 340.918 203.785 341.038 204.052C341.162 204.319 341.224 204.706 341.224 205.214V208.5H340.345V205.214C340.345 204.774 340.249 204.455 340.057 204.257C339.868 204.055 339.599 203.954 339.251 203.954C338.991 203.954 338.745 204.022 338.514 204.159C338.286 204.293 338.123 204.475 338.025 204.706C337.928 204.937 337.879 205.256 337.879 205.663V208.5H337ZM345.965 208.5V207.738C345.561 208.324 345.013 208.617 344.319 208.617C344.013 208.617 343.727 208.559 343.46 208.441C343.196 208.324 342.999 208.178 342.869 208.002C342.742 207.823 342.653 207.605 342.601 207.348C342.565 207.175 342.547 206.902 342.547 206.527V203.314H343.426V206.19C343.426 206.649 343.444 206.959 343.479 207.118C343.535 207.349 343.652 207.532 343.831 207.665C344.01 207.795 344.231 207.86 344.495 207.86C344.759 207.86 345.006 207.794 345.237 207.66C345.468 207.523 345.631 207.34 345.726 207.108C345.823 206.874 345.872 206.535 345.872 206.093V203.314H346.751V208.5H345.965ZM351.517 207.86C351.191 208.137 350.877 208.332 350.574 208.446C350.275 208.56 349.952 208.617 349.607 208.617C349.038 208.617 348.6 208.479 348.294 208.202C347.988 207.922 347.835 207.566 347.835 207.133C347.835 206.879 347.892 206.648 348.006 206.439C348.123 206.228 348.274 206.059 348.46 205.932C348.649 205.805 348.86 205.709 349.095 205.644C349.267 205.598 349.528 205.554 349.876 205.512C350.586 205.427 351.108 205.326 351.443 205.209C351.447 205.089 351.448 205.012 351.448 204.979C351.448 204.621 351.365 204.369 351.199 204.223C350.975 204.024 350.641 203.925 350.198 203.925C349.785 203.925 349.479 203.998 349.28 204.145C349.085 204.288 348.94 204.543 348.846 204.911L347.986 204.794C348.064 204.426 348.193 204.13 348.372 203.905C348.551 203.677 348.81 203.503 349.148 203.383C349.487 203.259 349.879 203.197 350.325 203.197C350.768 203.197 351.128 203.249 351.404 203.354C351.681 203.458 351.884 203.59 352.015 203.749C352.145 203.905 352.236 204.104 352.288 204.345C352.317 204.494 352.332 204.765 352.332 205.155V206.327C352.332 207.144 352.35 207.662 352.386 207.88C352.425 208.095 352.5 208.301 352.61 208.5H351.692C351.601 208.318 351.543 208.104 351.517 207.86ZM351.443 205.897C351.124 206.028 350.646 206.138 350.008 206.229C349.646 206.282 349.391 206.34 349.241 206.405C349.091 206.47 348.976 206.566 348.895 206.693C348.813 206.817 348.772 206.955 348.772 207.108C348.772 207.343 348.86 207.538 349.036 207.694C349.215 207.851 349.476 207.929 349.817 207.929C350.156 207.929 350.457 207.855 350.721 207.709C350.984 207.559 351.178 207.356 351.302 207.099C351.396 206.9 351.443 206.607 351.443 206.22V205.897ZM350.237 201.84L349.686 202.67H348.68L349.734 201.303H350.672L351.771 202.67H350.774L350.237 201.84ZM349.71 210.087V209.086H350.711V210.087H349.71ZM353.699 208.5V203.314H354.49V204.052C354.871 203.482 355.421 203.197 356.141 203.197C356.453 203.197 356.74 203.254 357 203.368C357.264 203.479 357.461 203.625 357.591 203.808C357.721 203.99 357.812 204.206 357.864 204.457C357.897 204.62 357.913 204.905 357.913 205.312V208.5H357.034V205.346C357.034 204.988 357 204.721 356.932 204.545C356.863 204.366 356.741 204.224 356.565 204.12C356.393 204.013 356.189 203.959 355.955 203.959C355.581 203.959 355.257 204.078 354.983 204.315C354.713 204.553 354.578 205.004 354.578 205.668V208.5H353.699ZM359.51 204.315V203.314H360.511V204.315H359.51ZM359.51 208.5V207.499H360.511V208.5H359.51ZM361.805 204.97C361.805 204.123 361.891 203.443 362.063 202.929C362.239 202.411 362.498 202.012 362.84 201.732C363.185 201.452 363.618 201.312 364.139 201.312C364.523 201.312 364.86 201.391 365.149 201.547C365.439 201.7 365.678 201.923 365.867 202.216C366.056 202.506 366.204 202.86 366.312 203.28C366.419 203.697 366.473 204.26 366.473 204.97C366.473 205.81 366.386 206.488 366.214 207.006C366.041 207.52 365.783 207.919 365.438 208.202C365.096 208.482 364.663 208.622 364.139 208.622C363.449 208.622 362.907 208.375 362.513 207.88C362.041 207.284 361.805 206.314 361.805 204.97ZM362.708 204.97C362.708 206.145 362.845 206.928 363.118 207.318C363.395 207.706 363.735 207.899 364.139 207.899C364.542 207.899 364.881 207.704 365.154 207.313C365.431 206.923 365.569 206.142 365.569 204.97C365.569 203.791 365.431 203.008 365.154 202.621C364.881 202.234 364.539 202.04 364.129 202.04C363.725 202.04 363.403 202.211 363.162 202.553C362.859 202.989 362.708 203.795 362.708 204.97ZM367.864 208.5V207.499H368.865V208.5H367.864ZM374.773 207.655V208.5H370.042C370.035 208.288 370.07 208.085 370.145 207.89C370.265 207.567 370.457 207.25 370.721 206.938C370.988 206.625 371.372 206.264 371.873 205.854C372.651 205.215 373.177 204.711 373.45 204.34C373.724 203.965 373.86 203.612 373.86 203.28C373.86 202.932 373.735 202.639 373.484 202.401C373.237 202.16 372.913 202.04 372.513 202.04C372.09 202.04 371.751 202.167 371.497 202.421C371.243 202.675 371.115 203.026 371.111 203.476L370.208 203.383C370.27 202.709 370.503 202.196 370.906 201.845C371.31 201.49 371.852 201.312 372.532 201.312C373.219 201.312 373.763 201.503 374.163 201.884C374.563 202.265 374.764 202.737 374.764 203.3C374.764 203.586 374.705 203.868 374.588 204.145C374.471 204.421 374.275 204.713 374.002 205.019C373.732 205.325 373.281 205.744 372.649 206.278C372.122 206.721 371.784 207.022 371.634 207.182C371.484 207.338 371.36 207.496 371.263 207.655H374.773ZM375.726 206.61L376.604 206.493C376.705 206.991 376.876 207.351 377.117 207.572C377.361 207.79 377.658 207.899 378.006 207.899C378.419 207.899 378.768 207.756 379.051 207.47C379.337 207.183 379.48 206.828 379.48 206.405C379.48 206.002 379.349 205.67 379.085 205.409C378.821 205.146 378.486 205.014 378.079 205.014C377.913 205.014 377.706 205.046 377.459 205.111L377.557 204.34C377.615 204.346 377.662 204.35 377.698 204.35C378.073 204.35 378.41 204.252 378.709 204.057C379.008 203.861 379.158 203.56 379.158 203.153C379.158 202.831 379.049 202.564 378.831 202.353C378.613 202.141 378.331 202.035 377.986 202.035C377.645 202.035 377.36 202.143 377.132 202.357C376.904 202.572 376.757 202.895 376.692 203.324L375.813 203.168C375.921 202.579 376.165 202.123 376.546 201.801C376.927 201.475 377.4 201.312 377.967 201.312C378.357 201.312 378.717 201.397 379.046 201.566C379.375 201.732 379.625 201.96 379.798 202.25C379.974 202.54 380.062 202.847 380.062 203.173C380.062 203.482 379.979 203.764 379.812 204.018C379.646 204.271 379.401 204.473 379.075 204.623C379.498 204.721 379.827 204.924 380.062 205.233C380.296 205.539 380.413 205.924 380.413 206.386C380.413 207.011 380.185 207.541 379.729 207.978C379.274 208.41 378.698 208.627 378.001 208.627C377.373 208.627 376.85 208.44 376.434 208.065C376.02 207.691 375.784 207.206 375.726 206.61ZM384.104 208.5V206.786H380.999V205.98L384.266 201.342H384.983V205.98H385.95V206.786H384.983V208.5H384.104ZM384.104 205.98V202.753L381.863 205.98H384.104ZM389.671 208.5V206.786H386.565V205.98L389.832 201.342H390.55V205.98H391.517V206.786H390.55V208.5H389.671ZM389.671 205.98V202.753L387.43 205.98H389.671ZM392.425 206.61L393.304 206.493C393.405 206.991 393.576 207.351 393.816 207.572C394.061 207.79 394.357 207.899 394.705 207.899C395.118 207.899 395.467 207.756 395.75 207.47C396.036 207.183 396.18 206.828 396.18 206.405C396.18 206.002 396.048 205.67 395.784 205.409C395.521 205.146 395.185 205.014 394.778 205.014C394.612 205.014 394.406 205.046 394.158 205.111L394.256 204.34C394.314 204.346 394.362 204.35 394.397 204.35C394.772 204.35 395.109 204.252 395.408 204.057C395.708 203.861 395.857 203.56 395.857 203.153C395.857 202.831 395.748 202.564 395.53 202.353C395.312 202.141 395.031 202.035 394.686 202.035C394.344 202.035 394.059 202.143 393.831 202.357C393.603 202.572 393.457 202.895 393.392 203.324L392.513 203.168C392.62 202.579 392.864 202.123 393.245 201.801C393.626 201.475 394.1 201.312 394.666 201.312C395.057 201.312 395.416 201.397 395.745 201.566C396.074 201.732 396.325 201.96 396.497 202.25C396.673 202.54 396.761 202.847 396.761 203.173C396.761 203.482 396.678 203.764 396.512 204.018C396.346 204.271 396.1 204.473 395.774 204.623C396.198 204.721 396.526 204.924 396.761 205.233C396.995 205.539 397.112 205.924 397.112 206.386C397.112 207.011 396.884 207.541 396.429 207.978C395.973 208.41 395.397 208.627 394.7 208.627C394.072 208.627 393.549 208.44 393.133 208.065C392.719 207.691 392.483 207.206 392.425 206.61ZM401.087 208.5V201.342H403.772C404.319 201.342 404.757 201.415 405.086 201.562C405.418 201.705 405.677 201.928 405.862 202.23C406.051 202.53 406.146 202.844 406.146 203.173C406.146 203.479 406.062 203.767 405.896 204.037C405.73 204.307 405.48 204.525 405.145 204.691C405.577 204.818 405.91 205.035 406.141 205.341C406.375 205.647 406.492 206.008 406.492 206.425C406.492 206.76 406.421 207.073 406.277 207.362C406.137 207.649 405.963 207.87 405.755 208.026C405.547 208.183 405.285 208.301 404.969 208.383C404.656 208.461 404.272 208.5 403.816 208.5H401.087ZM402.034 204.35H403.582C404.002 204.35 404.303 204.322 404.485 204.267C404.726 204.195 404.907 204.076 405.027 203.91C405.151 203.744 405.213 203.536 405.213 203.285C405.213 203.048 405.156 202.839 405.042 202.66C404.928 202.478 404.765 202.354 404.554 202.289C404.342 202.221 403.979 202.187 403.465 202.187H402.034V204.35ZM402.034 207.655H403.816C404.122 207.655 404.337 207.644 404.461 207.621C404.679 207.582 404.861 207.517 405.008 207.426C405.154 207.335 405.275 207.203 405.369 207.03C405.464 206.854 405.511 206.653 405.511 206.425C405.511 206.158 405.442 205.927 405.306 205.731C405.169 205.533 404.979 205.395 404.734 205.316C404.493 205.235 404.145 205.194 403.689 205.194H402.034V207.655ZM409.617 208.5V202.187H407.259V201.342H412.933V202.187H410.564V208.5H409.617ZM419.017 205.99L419.964 206.229C419.765 207.007 419.407 207.602 418.89 208.012C418.375 208.419 417.745 208.622 417 208.622C416.229 208.622 415.6 208.466 415.115 208.153C414.633 207.838 414.266 207.382 414.012 206.786C413.761 206.19 413.636 205.551 413.636 204.867C413.636 204.122 413.777 203.472 414.061 202.919C414.347 202.362 414.752 201.941 415.276 201.654C415.804 201.365 416.383 201.22 417.015 201.22C417.731 201.22 418.333 201.402 418.821 201.767C419.31 202.131 419.65 202.644 419.842 203.305L418.909 203.524C418.743 203.004 418.502 202.624 418.187 202.387C417.871 202.149 417.474 202.03 416.995 202.03C416.445 202.03 415.984 202.162 415.613 202.426C415.245 202.689 414.987 203.044 414.837 203.49C414.687 203.933 414.612 204.39 414.612 204.862C414.612 205.471 414.7 206.003 414.876 206.459C415.055 206.911 415.332 207.25 415.706 207.475C416.08 207.699 416.486 207.812 416.922 207.812C417.452 207.812 417.902 207.659 418.27 207.353C418.637 207.047 418.886 206.592 419.017 205.99Z" fill="#D6D6D6"/>
</g>
<defs>
<filter id="filter0_d_19_37785" x="293.194" y="87.8965" width="102.781" height="21.3555" filterUnits="userSpaceOnUse" color-interpolation-filters="sRGB">
<feFlood flood-opacity="0" result="BackgroundImageFix"/>
<feColorMatrix in="SourceAlpha" type="matrix" values="0 0 0 0 0 0 0 0 0 0 0 0 0 0 0 0 0 0 127 0" result="hardAlpha"/>
<feOffset dy="2"/>
<feGaussianBlur stdDeviation="2"/>
<feComposite in2="hardAlpha" operator="out"/>
<feColorMatrix type="matrix" values="0 0 0 0 0 0 0 0 0 0 0 0 0 0 0 0 0 0 0.3 0"/>
<feBlend mode="normal" in2="BackgroundImageFix" result="effect1_dropShadow_19_37785"/>
<feBlend mode="normal" in="SourceGraphic" in2="effect1_dropShadow_19_37785" result="shape"/>
</filter>
<linearGradient id="paint0_linear_19_37785" x1="61.0034" y1="213.493" x2="61.0034" y2="173.504" gradientUnits="userSpaceOnUse">
<stop stop-color="#F5AC04"/>
<stop offset="1" stop-color="#FEFAA7"/>
</linearGradient>
<linearGradient id="paint1_linear_19_37785" x1="61.0034" y1="213.493" x2="61.0034" y2="173.504" gradientUnits="userSpaceOnUse">
<stop stop-color="#FEC627"/>
<stop offset="1" stop-color="#FFFED0"/>
</linearGradient>
<linearGradient id="paint2_linear_19_37785" x1="61.0034" y1="211.095" x2="61.0034" y2="175.901" gradientUnits="userSpaceOnUse">
<stop stop-color="#FFDE02"/>
<stop offset="1" stop-color="#FAD66F"/>
</linearGradient>
<linearGradient id="paint3_linear_19_37785" x1="61.0036" y1="209.631" x2="61.0036" y2="177.366" gradientUnits="userSpaceOnUse">
<stop stop-color="#F5B502"/>
<stop offset="1" stop-color="#FDE768"/>
</linearGradient>
<linearGradient id="paint4_linear_19_37785" x1="61.0036" y1="209.631" x2="61.0036" y2="177.366" gradientUnits="userSpaceOnUse">
<stop stop-color="#F5C218"/>
<stop offset="0.257" stop-color="#FEE76A" stop-opacity="0"/>
</linearGradient>
<linearGradient id="paint5_linear_19_37785" x1="288.5" y1="213.272" x2="288.5" y2="173.727" gradientUnits="userSpaceOnUse">
<stop stop-color="#98B8C0"/>
<stop offset="1" stop-color="#ECF6F4"/>
</linearGradient>
<linearGradient id="paint6_linear_19_37785" x1="288.5" y1="213.496" x2="288.5" y2="173.504" gradientUnits="userSpaceOnUse">
<stop stop-color="#B9D3D8"/>
<stop offset="0.2216" stop-color="#C2D9DD"/>
<stop offset="0.5898" stop-color="#DCE9EB"/>
<stop offset="0.9944" stop-color="white"/>
</linearGradient>
<linearGradient id="paint7_linear_19_37785" x1="288.5" y1="211.098" x2="288.5" y2="175.901" gradientUnits="userSpaceOnUse">
<stop stop-color="#C9E2E1"/>
<stop offset="1" stop-color="#D1E3E4"/>
</linearGradient>
<linearGradient id="paint8_linear_19_37785" x1="288.5" y1="209.633" x2="288.5" y2="177.365" gradientUnits="userSpaceOnUse">
<stop stop-color="#9AB9C2"/>
<stop offset="1" stop-color="#DCEAEC"/>
</linearGradient>
<linearGradient id="paint9_linear_19_37785" x1="288.5" y1="209.633" x2="288.5" y2="177.365" gradientUnits="userSpaceOnUse">
<stop stop-color="#A7C6D0"/>
<stop offset="0.257" stop-color="white" stop-opacity="0"/>
</linearGradient>
<clipPath id="clip0_19_37785">
<rect width="93" height="35" fill="white" transform="translate(78.5 79)"/>
</clipPath>
<clipPath id="clip1_19_37785">
<rect width="14" height="14" fill="white" transform="translate(78.5 79)"/>
</clipPath>
<clipPath id="clip2_19_37785">
<rect width="167.997" height="39.9971" fill="white" transform="translate(41.0015 173.502)"/>
</clipPath>
<clipPath id="clip3_19_37785">
<rect width="153" height="40" fill="white" transform="translate(268.5 173.5)"/>
</clipPath>
</defs>
</svg>
