<svg width="30" height="30" viewBox="0 0 30 30" fill="none" xmlns="http://www.w3.org/2000/svg">
<path d="M8.08701 3.12493C7.6218 2.86647 7.09814 2.73152 6.56596 2.73292C6.03379 2.73432 5.51083 2.87204 5.047 3.13295L16.225 13.4449L19.98 9.68994L8.08701 3.12493Z" fill="white"/>
<path d="M3.929 4.18298C3.64995 4.63365 3.50144 5.15292 3.5 5.68298V24.307C3.49994 24.821 3.63809 25.3256 3.89999 25.768L15.141 14.527L3.929 4.18298Z" fill="white"/>
<path d="M24.9586 12.436L21.3766 10.46L17.3516 14.484L22.2846 19.033L24.9596 17.556C25.4239 17.3088 25.8123 16.94 26.0832 16.4891C26.354 16.0381 26.4971 15.522 26.4971 14.996C26.4971 14.4699 26.354 13.9538 26.0832 13.5029C25.8123 13.0519 25.4239 12.6831 24.9596 12.436H24.9586Z" fill="white"/>
<path d="M16.268 15.564L4.99701 26.836C5.46489 27.1101 5.99638 27.2571 6.53865 27.2621C7.08092 27.2672 7.61507 27.1303 8.08801 26.865L20.871 19.81L16.268 15.564Z" fill="white"/>
</svg>
