<svg xmlns="http://www.w3.org/2000/svg" width="32" height="31.733" viewBox="0 0 32 31.733">
    <g data-name="组 404">
        <path data-name="路径 224" d="M30.353 12.477a1.165 1.165 0 1 0-1.219-.123 1.165 1.165 0 0 0 1.219.123zm.482 2.41A1.165 1.165 0 1 0 32 16.052a1.165 1.165 0 0 0-1.165-1.165zm-.341 4.68a1.036 1.036 0 1 0 .02 0zm-3.254 4.941a1.125 1.125 0 0 0 .3 1.627 1.2 1.2 0 0 0 1.326-2.008 1.125 1.125 0 0 0-1.627.382zm-3.093 3.153a1.125 1.125 0 0 0-.241 1.647 1.165 1.165 0 1 0 1.868-1.386 1.125 1.125 0 0 0-1.627-.261zm-3.876 2.049a1.125 1.125 0 0 0-.743 1.486 1.165 1.165 0 1 0 2.209-.743 1.125 1.125 0 0 0-1.466-.743zm-4.338.663a13.878 13.878 0 1 1 9.3-24.1h-1.428a1 1 0 0 0 0 2.008h3.6a1 1 0 0 0 1-1V3.64a1 1 0 1 0-2.008 0v1a15.867 15.867 0 1 0-10.465 27.741 1 1 0 1 0 0-2.008z" transform="translate(0 -.648)" style="fill:#ba6bef"/>
        <path data-name="路径 225" d="M491.655 272.967a1.068 1.068 0 0 0 0-1.517l-8.1-8.12v-7.072a1.068 1.068 0 1 0-2.137 0v7.607a1.068 1.068 0 0 0 .32.748l8.419 8.419a1.068 1.068 0 0 0 1.517 0z" transform="translate(-466.92 -247.884)" style="fill:#ba6bef"/>
    </g>
</svg>
