<svg xmlns="http://www.w3.org/2000/svg" width="32" height="32" viewBox="0 0 32 32">
    <g data-name="组 3">
        <path data-name="路径 12" d="m56.619 63.786-6.779-8.469a1.059 1.059 0 0 1 1.595-1.395l5.284 6.578 13.856-13.75a1.057 1.057 0 0 1 1.5 1.495zm10.666 9.466H48.046a5.828 5.828 0 0 1-5.881-5.879v-19.33a5.828 5.828 0 0 1 5.881-5.879h13.059a1.1 1.1 0 1 1 0 2.192H48.046a3.785 3.785 0 0 0-3.788 3.786v19.43a3.785 3.785 0 0 0 3.788 3.786h19.339a3.785 3.785 0 0 0 3.788-3.786V55.716a1.1 1.1 0 0 1 2.193 0v11.657a6.131 6.131 0 0 1-6.081 5.879z" transform="translate(-41.709 -41.709)" style="fill:#42cd89"/>
        <path data-name="路径 13" d="M55.718 62.118h-19.3a6.274 6.274 0 0 1-6.3-6.3v-19.4a6.274 6.274 0 0 1 6.3-6.3h13.1a1.43 1.43 0 0 1 1.4 1.4 1.506 1.506 0 0 1-1.4 1.4h-13.1a3.543 3.543 0 0 0-3.5 3.5v19.5a3.543 3.543 0 0 0 3.5 3.5h19.4a3.543 3.543 0 0 0 3.5-3.5v-11.8a1.4 1.4 0 1 1 2.8 0v11.7a6.424 6.424 0 0 1-6.4 6.3zm-19.3-31.3a5.507 5.507 0 0 0-5.5 5.6v19.4a5.57 5.57 0 0 0 5.5 5.6h19.4a5.59 5.59 0 0 0 5.6-5.6v-11.7a.7.7 0 0 0-1.4 0v11.8a4.225 4.225 0 0 1-4.2 4.2h-19.4a4.225 4.225 0 0 1-4.2-4.2v-19.5a4.225 4.225 0 0 1 4.2-4.2h13.1a.7.7 0 1 0 0-1.4h-13.1zm8.6 22-7-8.8a1.421 1.421 0 0 1 2.2-1.8l5.1 6.3 13.4-13.6a1.45 1.45 0 0 1 2 0 1.336 1.336 0 0 1 0 2zm-6-10.4a.4.4 0 0 0-.4.2.875.875 0 0 0-.1 1l6.5 8.1 15.2-15.3a.668.668 0 0 0 0-1 .764.764 0 0 0-.5-.2c-.2 0-.3.1-.5.2l-14 14.2-5.6-6.9a.864.864 0 0 0-.6-.3z" transform="translate(-30.118 -30.118)" style="fill:#42cd89"/>
    </g>
</svg>
