<svg xmlns="http://www.w3.org/2000/svg" width="31" height="26.566" viewBox="0 0 31 26.566">
    <path d="M144.68 167.5a1.034 1.034 0 0 0-1.032-1.04 1.02 1.02 0 0 0-.72.289v-.028L136 173.01l-5.566-11.21a1.426 1.426 0 0 0-1.214-.7 1.451 1.451 0 0 0-1.277.775l-5.536 11.135-7.058-6.394a1 1 0 0 0-.585-.2 1.037 1.037 0 0 0-1.032 1.04c0 .036-.02.02-.032.032l2.195 16.481v-.067a3.072 3.072 0 0 0 1.949 2.507c2.274.791 6.453 1.3 11.3 1.257 4.958-.047 9.229-.656 11.487-1.518a3.066 3.066 0 0 0 1.87-2.463 1.564 1.564 0 0 0 .012.237l2.179-16.386c.008-.019-.012-.003-.012-.036zm-15.48 17.926-4.417-6.623 4.417-6.623 4.417 6.623z" transform="translate(-113.7 -161.1)" style="fill:#ff4167"/>
</svg>
