<svg width="33" height="32" viewBox="0 0 33 32" fill="none" xmlns="http://www.w3.org/2000/svg">
<rect x="0.5" width="32" height="32" rx="16" fill="#FFF5F8"/>
<g clip-path="url(#clip0_10916_4314)">
<path d="M24 24H15.5C14.8281 24 13.7844 23.5828 13.0281 23.2328C12.1078 22.8063 11.2141 22.2953 10.6953 21.8969C10.1391 21.4703 9.61875 20.9344 9.22969 20.3891C8.75156 19.7188 8.5 19.0656 8.5 18.5C8.5 17.8359 8.57344 17.325 8.72344 16.9406C9.04375 16.1219 9.66094 16 10 16C10.3203 16 10.6141 16.1422 10.8953 16.4375C11.0938 16.6438 11.2719 16.9047 11.4781 17.2063C11.8906 17.8094 12.4031 18.5594 13.2578 19.0719C14.4922 19.8125 15.6344 19.9625 17.4672 19.9922C17.3734 19.9172 17.2766 19.8391 17.1812 19.7594C15.6734 18.5047 15.5 17.8687 15.5 17.5C15.5 17.0719 15.5672 16.4688 16.1438 16.1781C16.4984 16 16.9406 16 17.5 16C17.6187 16 17.9797 16 19.1438 16.5047C19.8328 16.8031 20.6266 17.2016 21.3781 17.6281C21.9578 17.9563 22.7844 18.4562 23.4375 18.9734C24.1719 19.5547 24.5 20.0062 24.5 20.4375V23.5C24.5 23.7766 24.2766 24 24 24ZM10 17C9.90937 17 9.77344 17 9.65469 17.3047C9.55156 17.5672 9.5 17.9703 9.5 18.5C9.5 18.8516 9.69375 19.3156 10.0438 19.8078C10.3719 20.2688 10.8312 20.7406 11.3047 21.1031C11.7609 21.4531 12.6031 21.9328 13.45 22.325C14.5234 22.8219 15.2125 23 15.5 23H23.5V20.4578C23.4812 20.4125 23.3547 20.1625 22.6734 19.6469C22.1781 19.2719 21.5125 18.8484 20.7484 18.4219C20.0453 18.0297 19.3125 17.6656 18.6875 17.3969C17.7719 17.0047 17.5109 17 17.5 17C17.1062 17 16.7359 17 16.5938 17.0719C16.5094 17.1141 16.5 17.3859 16.5 17.5C16.5 17.5031 16.5156 17.9016 17.8141 18.9859C18.5344 19.5875 19.2703 20.0797 19.2766 20.0844C19.4594 20.2063 19.5422 20.4344 19.4781 20.6453C19.4141 20.8562 19.2203 21 19 21C16.1156 21 14.5266 21 12.7422 19.9281C11.7 19.3031 11.0953 18.4172 10.6531 17.7703C10.4719 17.5047 10.3156 17.2766 10.1734 17.1297C10.0766 17.0266 10.0172 17 10 17Z" fill="#F1416C"/>
<path d="M23.7516 17.2859C23.7062 17.2859 23.6594 17.2797 23.6141 17.2672C23.3484 17.1922 23.1953 16.9141 23.2703 16.65C23.4219 16.1156 23.5 15.5609 23.5 15.0016C23.5 13.3984 22.8766 11.8922 21.7422 10.7594C20.6094 9.62344 19.1031 9 17.5 9C15.8969 9 14.3906 9.62344 13.2578 10.7578C12.125 11.8906 11.5 13.3969 11.5 15V15.0031C11.5 15.2797 11.2766 15.5031 11 15.5031C10.7234 15.5031 10.5 15.2797 10.5 15.0031V15C10.5 14.0547 10.6844 13.1391 11.05 12.275C11.4031 11.4406 11.9078 10.6922 12.55 10.05C13.1922 9.40781 13.9406 8.90313 14.775 8.55C15.6391 8.18438 16.5547 8 17.5 8C18.4453 8 19.3609 8.18438 20.225 8.55C21.0594 8.90313 21.8078 9.40781 22.45 10.05C23.0922 10.6922 23.5969 11.4406 23.95 12.275C24.3156 13.1391 24.5 14.0547 24.5 15C24.5 15.6531 24.4094 16.3 24.2328 16.9234C24.1703 17.1422 23.9688 17.2859 23.7516 17.2859Z" fill="#F1416C"/>
<path d="M20.8672 16.4629C20.8219 16.4629 20.775 16.4566 20.7297 16.4441C20.4641 16.3691 20.3109 16.091 20.3859 15.827C20.4625 15.5598 20.5 15.2832 20.5 15.002C20.5 13.3473 19.1547 12.002 17.5 12.002C15.8453 12.002 14.5 13.3473 14.5 15.002C14.5 15.2785 14.2766 15.502 14 15.502C13.7234 15.502 13.5 15.2785 13.5 15.002C13.5 13.9332 13.9156 12.9285 14.6719 12.1738C15.4281 11.4176 16.4313 11.002 17.5 11.002C18.5687 11.002 19.5734 11.4176 20.3281 12.1738C21.0844 12.9301 21.5 13.9332 21.5 15.002C21.5 15.3754 21.4484 15.7441 21.3469 16.1004C21.2844 16.3191 21.0844 16.4629 20.8672 16.4629Z" fill="#F1416C"/>
</g>
<defs>
<clipPath id="clip0_10916_4314">
<rect width="16" height="16" fill="white" transform="translate(8.5 8)"/>
</clipPath>
</defs>
</svg>
