<svg width="12" height="12" viewBox="0 0 12 12" fill="none" xmlns="http://www.w3.org/2000/svg">
<path d="M0.749756 11.2496C0.749756 10.1357 1.19225 9.06741 1.97991 8.27976C2.76756 7.49211 3.83585 7.04961 4.94976 7.04961C6.06366 7.04961 7.13195 7.49211 7.9196 8.27976C8.70726 9.06741 9.14976 10.1357 9.14976 11.2496H0.749756ZM4.94976 6.52461C3.20938 6.52461 1.79976 5.11498 1.79976 3.37461C1.79976 1.63423 3.20938 0.224609 4.94976 0.224609C6.69013 0.224609 8.09976 1.63423 8.09976 3.37461C8.09976 5.11498 6.69013 6.52461 4.94976 6.52461ZM8.81533 7.69693C9.61839 7.90334 10.3359 8.35783 10.8656 8.9957C11.3954 9.63357 11.7104 10.4223 11.7658 11.2496H10.1998C10.1998 9.87936 9.67476 8.63196 8.81533 7.69693ZM7.75326 6.50203C8.1932 6.10853 8.54504 5.62651 8.7857 5.08755C9.02636 4.54859 9.15042 3.96486 9.14976 3.37461C9.15087 2.65718 8.96736 1.95153 8.61688 1.32553C9.21151 1.44502 9.74642 1.76673 10.1307 2.23599C10.515 2.70525 10.7249 3.29309 10.7248 3.89961C10.7249 4.27365 10.6451 4.64341 10.4907 4.98409C10.3362 5.32477 10.1108 5.62851 9.8294 5.87494C9.54801 6.12138 9.2172 6.30482 8.85913 6.41298C8.50107 6.52113 8.12402 6.55149 7.75326 6.50203Z" fill="#969BAD"/>
</svg>
