<svg width="33" height="32" viewBox="0 0 33 32" fill="none" xmlns="http://www.w3.org/2000/svg">
<rect x="0.5" width="32" height="32" rx="16" fill="#F2FAFF"/>
<g clip-path="url(#clip0_10916_4338)">
<path fill-rule="evenodd" clip-rule="evenodd" d="M21.8134 10.4748H22.7448C23.7125 10.4748 24.5 11.2622 24.5 12.2299V13.4585C24.5 14.4262 23.7125 15.2137 22.7448 15.2137H22.725V20.953C22.725 22.1138 21.9258 23.0581 20.9429 23.0581H12.0571C11.0742 23.0581 10.2739 22.1138 10.2739 20.953V15.2137H10.2552C9.28748 15.2137 8.5 14.4262 8.5 13.4585V12.2311C8.5 11.2634 9.28748 10.4759 10.2552 10.4759H11.1784C11.2966 9.78454 11.6551 9.15707 12.1907 8.70412C12.7263 8.25117 13.4045 8.00181 14.106 8C14.5823 8.00084 15.0514 8.11607 15.4739 8.33598C15.8965 8.55589 16.26 8.87406 16.5339 9.26371C17.0792 8.54995 17.9287 8.08191 18.894 8.08191C19.582 8.08268 20.2486 8.32136 20.7807 8.75748C21.3127 9.1936 21.6776 9.80032 21.8134 10.4748ZM20.5977 10.4748C20.3532 9.76569 19.6862 9.25201 18.894 9.25201C18.5181 9.25309 18.1519 9.37149 17.8465 9.59069C17.5411 9.80989 17.3117 10.119 17.1904 10.4748H20.5977ZM15.8354 10.4759C15.6154 9.72356 14.9274 9.1701 14.106 9.1701C13.7154 9.17137 13.3357 9.29935 13.0241 9.53482C12.7124 9.7703 12.4856 10.1005 12.3777 10.4759H15.8354ZM20.9429 21.8868C21.2693 21.8868 21.5548 21.4503 21.5548 20.9519V15.2137H11.444V20.9519C11.444 21.503 11.7669 21.8868 12.0571 21.8868H20.9429ZM23.1585 13.8722C23.2683 13.7625 23.3299 13.6137 23.3299 13.4585V12.2299C23.3299 12.0748 23.2683 11.9259 23.1585 11.8162C23.0488 11.7065 22.9 11.6449 22.7448 11.6449H10.2552C10.1 11.6449 9.95118 11.7065 9.84146 11.8162C9.73174 11.9259 9.6701 12.0748 9.6701 12.2299V13.4585C9.6701 13.6137 9.73174 13.7625 9.84146 13.8722C9.95118 13.9819 10.1 14.0436 10.2552 14.0436H22.7448C22.9 14.0436 23.0488 13.9819 23.1585 13.8722ZM15.3919 19.5068C15.7745 19.7888 16.0706 19.9023 16.3678 19.9023C16.7212 19.9023 16.8627 19.7818 16.8627 19.5056C16.8627 19.2777 16.5662 19.1292 16.2122 18.9519C15.6882 18.6895 15.0385 18.3641 15.0385 17.6253C15.0385 16.915 15.4528 16.4446 16.1279 16.2949V15.5343H16.9189V16.2621C17.3308 16.3325 17.7071 16.5394 17.9872 16.8495L17.3858 17.5422C17.1319 17.3164 16.9131 17.2029 16.651 17.2029C16.3467 17.2029 16.1981 17.2871 16.1981 17.5703C16.1981 17.781 16.4789 17.9132 16.8202 18.0738C17.3487 18.3226 18.0223 18.6397 18.0223 19.4225C18.0223 20.0989 17.6502 20.6161 16.9201 20.7951V21.572H16.1279V20.8559C15.7231 20.8068 15.2211 20.6441 14.8689 20.327L15.3919 19.5068Z" fill="#009EF7"/>
</g>
<defs>
<clipPath id="clip0_10916_4338">
<rect width="16" height="16" fill="white" transform="translate(8.5 8)"/>
</clipPath>
</defs>
</svg>
