<svg width="20" height="20" viewBox="0 0 20 20" fill="none" xmlns="http://www.w3.org/2000/svg">
<g id="Frame">
<path id="Vector" d="M17.9428 17.2461H2.03764C1.61285 17.2461 1.26953 16.9408 1.26953 16.563V5.40963C1.26953 5.03187 1.61285 4.72656 2.03764 4.72656H17.9428C18.3676 4.72656 18.7109 5.03187 18.7109 5.40963V16.563C18.7109 16.9391 18.3657 17.2461 17.9428 17.2461Z" fill="#FFE9B4"/>
<path id="Vector_2" d="M10 8.02734H1.26953V4.10879C1.26953 3.68354 1.61324 3.33984 2.0385 3.33984H8.0135C8.35334 3.33984 8.65236 3.56121 8.74945 3.88742L10 8.02734Z" fill="#FFB02C"/>
<path id="Vector_3" d="M17.9428 17.2461H2.03764C1.61285 17.2461 1.26953 16.9027 1.26953 16.4779V6.54945C1.26953 6.12461 1.61285 5.78125 2.03764 5.78125H17.9428C18.3676 5.78125 18.7109 6.12461 18.7109 6.54945V16.4779C18.7109 16.9008 18.3657 17.2461 17.9428 17.2461Z" fill="#FFCA28"/>
</g>
</svg>
