<svg width="20" height="20" viewBox="0 0 20 20" fill="none" xmlns="http://www.w3.org/2000/svg">
<g id="Frame">
<path id="Vector" d="M15.6371 18.1789H4.49307C3.05707 18.1789 1.89307 17.0149 1.89307 15.5789V4.41995C1.89307 2.98395 3.05707 1.81995 4.49307 1.81995H15.6371C17.0731 1.81995 18.2371 2.98395 18.2371 4.41995V15.5779C18.2371 17.0139 17.0731 18.1789 15.6371 18.1789Z" fill="#FFAC3E"/>
<path id="Vector_2" d="M18.2371 8.81104L11.3621 13.077C11.1884 13.1849 10.9834 13.2309 10.7803 13.2077C10.5772 13.1845 10.3879 13.0933 10.2431 12.949L8.00607 10.721C7.83746 10.5533 7.60976 10.4583 7.3719 10.4567C7.13405 10.455 6.90503 10.5467 6.73407 10.712L1.89307 15.401V15.651C1.89307 17.047 3.02407 18.178 4.42007 18.178H15.7101C17.1061 18.178 18.2371 17.047 18.2371 15.651V8.81104Z" fill="#FF7C0E"/>
<path id="Vector_3" d="M5.24292 6.55704C5.24292 6.91375 5.38462 7.25586 5.63686 7.50809C5.8891 7.76033 6.2312 7.90204 6.58792 7.90204C6.94464 7.90204 7.28674 7.76033 7.53898 7.50809C7.79121 7.25586 7.93292 6.91375 7.93292 6.55704C7.93292 6.20032 7.79121 5.85821 7.53898 5.60598C7.28674 5.35374 6.94464 5.21204 6.58792 5.21204C6.2312 5.21204 5.8891 5.35374 5.63686 5.60598C5.38462 5.85821 5.24292 6.20032 5.24292 6.55704Z" fill="white"/>
</g>
</svg>
