<svg width="20" height="20" viewBox="0 0 20 20" fill="none" xmlns="http://www.w3.org/2000/svg">
<g id="Frame">
<path id="Vector" d="M3.17204 0.0666504H13.1036L18.0703 5.03332V18.6912C18.0703 18.8543 18.0382 19.0158 17.9757 19.1665C17.9133 19.3172 17.8218 19.4542 17.7065 19.5695C17.5911 19.6849 17.4542 19.7763 17.3035 19.8388C17.1528 19.9012 16.9913 19.9333 16.8282 19.9333H3.17204C3.00892 19.9333 2.8474 19.9012 2.6967 19.8388C2.546 19.7763 2.40908 19.6849 2.29374 19.5695C2.1784 19.4542 2.0869 19.3172 2.02448 19.1665C1.96206 19.0158 1.92993 18.8543 1.92993 18.6912V1.30876C1.92993 1.14564 1.96206 0.984122 2.02448 0.833423C2.0869 0.682723 2.1784 0.545795 2.29374 0.430455C2.40908 0.315114 2.546 0.223622 2.6967 0.1612C2.8474 0.0987784 3.00892 0.0666504 3.17204 0.0666504Z" fill="#FF8909"/>
<path id="Vector_2" d="M13.2263 13.4456C12.5499 13.4007 11.9058 13.1393 11.3895 12.7C10.3788 12.9279 9.39023 13.2443 8.43509 13.6456C7.66491 15.014 6.94561 15.7105 6.32982 15.7105C6.19717 15.7178 6.06548 15.6841 5.95263 15.614C5.8251 15.5544 5.71741 15.4594 5.64244 15.3402C5.56747 15.2211 5.52837 15.0829 5.52982 14.9421C5.52982 14.7175 5.5807 14.0947 7.9386 13.0737C8.47369 12.0889 8.91425 11.0556 9.25439 9.98772C8.95614 9.38947 8.31053 7.92105 8.75789 7.1807C8.83306 7.0461 8.94616 6.93658 9.0831 6.86577C9.22004 6.79496 9.37478 6.76598 9.52807 6.78245C9.65295 6.78203 9.77626 6.81028 9.88849 6.86503C10.0007 6.91978 10.0989 6.99957 10.1754 7.09824C10.4982 7.54561 10.4737 8.49298 10.0526 9.88596C10.4484 10.6315 10.9674 11.3047 11.5877 11.8772C12.1021 11.7694 12.6255 11.7107 13.1509 11.7018C14.3193 11.7263 14.493 12.2737 14.4667 12.5982C14.4667 13.4439 13.6474 13.4439 13.2263 13.4439V13.4456ZM6.27544 14.9895L6.34912 14.9649C6.6953 14.833 6.9849 14.585 7.16842 14.2632C6.8054 14.4097 6.49444 14.6614 6.27544 14.986V14.9895ZM9.57719 7.52105H9.50175C9.46713 7.51737 9.43233 7.52608 9.40351 7.54561C9.31543 7.97403 9.36772 8.41942 9.55263 8.81579C9.69736 8.39763 9.70596 7.94439 9.57719 7.52105ZM9.75263 11.1316L9.72807 11.1807L9.70351 11.1561C9.47895 11.7281 9.23158 12.3 8.95789 12.8491L9.00702 12.8246V12.8737C9.56125 12.6732 10.1272 12.5068 10.7018 12.3754L10.6754 12.3509H10.7509C10.3787 11.9766 10.046 11.5651 9.75789 11.1228L9.75263 11.1316ZM13.1263 12.4561C12.9099 12.4481 12.6934 12.4646 12.4807 12.5053C12.7148 12.6173 12.9676 12.6851 13.2263 12.7053C13.3935 12.7271 13.5635 12.7097 13.7228 12.6544C13.7228 12.5807 13.6228 12.4561 13.1263 12.4561Z" fill="white"/>
<path id="Vector_3" d="M13.1035 0.0666504L18.0702 5.03332H14.3456C14.0165 5.03332 13.7008 4.90269 13.4679 4.67013C13.2351 4.43757 13.104 4.12209 13.1035 3.79297V0.0666504Z" fill="#FFCFA4"/>
</g>
</svg>
