<svg width="16" height="16" viewBox="0 0 16 16" fill="none" xmlns="http://www.w3.org/2000/svg">
<path d="M2.34301 2.34301C-0.781003 5.46702 -0.781003 10.533 2.34301 13.657C5.46702 16.781 10.533 16.781 13.657 13.657C16.781 10.533 16.781 5.46702 13.657 2.34301C10.533 -0.781003 5.46702 -0.781003 2.34301 2.34301ZM8.32085 3.35626C8.99625 3.35626 9.53668 3.91352 9.53668 4.58895C9.53668 5.26435 8.97942 5.82164 8.32085 5.82164C7.64544 5.82164 7.08816 5.26438 7.08816 4.572C7.08816 3.89669 7.64532 3.35629 8.32085 3.35629V3.35626ZM10.0602 11.6138C10.0264 11.7151 9.95886 11.8333 9.89125 11.9008C9.45223 12.3568 8.91183 12.6269 8.27008 12.6269C7.96618 12.6269 7.67899 12.6269 7.37509 12.5762C6.88544 12.5088 6.26055 11.9008 6.34501 11.2591C6.41251 10.8201 6.48012 10.381 6.54761 9.94195C6.68272 9.18208 6.81783 8.40524 6.95292 7.64538C6.95292 7.59473 6.96976 7.54408 6.96976 7.49342C6.96976 7.17255 6.86846 7.05441 6.5476 7.0206C6.41249 7.00376 6.27739 6.9868 6.14229 6.95311C5.99034 6.90246 5.90589 6.76735 5.92273 6.64921C5.93958 6.5141 6.02403 6.42965 6.19294 6.39596C6.2774 6.37912 6.3787 6.37912 6.48 6.37912H7.6114H8.8104C9.09746 6.37912 9.26637 6.51422 9.26637 6.80128C9.26637 7.03768 9.23256 7.2741 9.18191 7.51051C9.02996 8.38864 8.86104 9.24983 8.70909 10.128C8.65844 10.415 8.59083 10.7021 8.55714 10.9891C8.5403 11.1242 8.55714 11.2762 8.59095 11.4113C8.6416 11.5971 8.7767 11.6984 8.96245 11.6815C9.1144 11.6647 9.26635 11.614 9.41842 11.5464C9.53668 11.4958 9.63798 11.4113 9.75612 11.3775C9.95884 11.3099 10.1108 11.428 10.0601 11.6138L10.0602 11.6138Z" fill="#7C8499"/>
</svg>
