<svg width="16" height="16" viewBox="0 0 16 16" fill="none" xmlns="http://www.w3.org/2000/svg">
<g clip-path="url(#clip0_302_320)">
<path d="M1.76528 5.00371C2.33094 5.00371 2.79954 5.45159 2.79954 5.99544V9.85222C2.79954 10.3961 2.34694 10.8443 1.76528 10.8443C1.19998 10.8443 0.731377 10.3961 0.731377 9.85185V5.99581C0.747372 5.45196 1.19998 5.00408 1.76528 5.00408V5.00371ZM14.239 5.00371C14.8039 5.00371 15.2729 5.45159 15.2729 5.99508V9.85222C15.2729 10.3961 14.8206 10.8443 14.239 10.8443C13.6573 10.8443 13.2047 10.3961 13.2047 9.85185V5.99581C13.2047 5.45196 13.6573 5.00408 14.239 5.00408V5.00371ZM12.5747 5.0357V12.092C12.5747 12.5079 12.2192 12.8598 11.7669 12.8598H10.8457V15.0039C10.8457 15.5481 10.3935 15.996 9.81182 15.996C9.24616 15.996 8.77756 15.5481 8.77756 15.0039V12.8598H7.162V15.0039C7.162 15.5481 6.70939 15.996 6.12773 15.996C5.56279 15.996 5.09383 15.5481 5.09383 15.0039V12.8598H4.17299C3.72038 12.8598 3.36484 12.5239 3.36484 12.092V5.03534H12.5747V5.0357ZM5.82091 1.38724L4.96441 0.235188C4.93242 0.15521 4.93242 0.0592355 5.01312 0.0272442C5.07783 -0.0207428 5.17454 0.0112486 5.22325 0.0752312L6.09574 1.27527C6.70727 1.05493 7.35212 0.941307 8.00213 0.939361C8.68086 0.939361 9.32686 1.05133 9.90852 1.27527L10.781 0.0755947C10.8297 -0.00438358 10.9264 -0.0207428 10.9911 0.0272442C11.0226 0.0508077 11.0436 0.0857273 11.0498 0.124567C11.0559 0.163407 11.0466 0.203098 11.0239 0.235188L10.1674 1.3876C11.5081 1.97944 12.4613 3.0995 12.5747 4.41151H3.38084C3.52625 3.09914 4.46382 1.97944 5.82091 1.38724V1.38724ZM9.94088 3.21147C10.2317 3.21147 10.4418 3.00353 10.4418 2.7316C10.4418 2.45931 10.2157 2.25173 9.94088 2.25173C9.65005 2.25173 9.44029 2.45931 9.44029 2.7316C9.44029 3.00353 9.66641 3.21147 9.94088 3.21147ZM5.99868 3.21147C6.28951 3.21147 6.49963 3.00353 6.49963 2.7316C6.49963 2.45931 6.27315 2.25173 5.99868 2.25173C5.70785 2.25173 5.49772 2.45931 5.49772 2.7316C5.49772 3.00353 5.72384 3.21147 5.99868 3.21147Z" fill="#212630"/>
</g>
<defs>
<clipPath id="clip0_302_320">
<rect width="16" height="16" fill="white" transform="matrix(-1 0 0 1 16 0)"/>
</clipPath>
</defs>
</svg>
