<svg width="16" height="16" viewBox="0 0 16 16" fill="none" xmlns="http://www.w3.org/2000/svg">
<g clip-path="url(#clip0_302_326)">
<path fill-rule="evenodd" clip-rule="evenodd" d="M5.81818 1.85454H1.45455V6.21818H5.81818V1.85454ZM0 0.399994V7.67272H7.27273V0.399994H0Z" fill="#212630"/>
<rect x="2.90912" y="3.30908" width="1.45455" height="1.45455" fill="#212630"/>
<path fill-rule="evenodd" clip-rule="evenodd" d="M5.81818 9.85454H1.45455V14.2182H5.81818V9.85454ZM0 8.39999V15.6727H7.27273V8.39999H0Z" fill="#212630"/>
<rect x="2.90912" y="11.3091" width="1.45455" height="1.45455" fill="#212630"/>
<path fill-rule="evenodd" clip-rule="evenodd" d="M14.5455 1.85454H10.1818V6.21818H14.5455V1.85454ZM8.72729 0.399994V7.67272H16V0.399994H8.72729Z" fill="#212630"/>
<rect x="11.6364" y="3.30908" width="1.45455" height="1.45455" fill="#212630"/>
<rect x="8.72729" y="8.39999" width="1.45455" height="1.45455" fill="#212630"/>
<rect x="14.5455" y="8.39999" width="1.45455" height="1.45455" fill="#212630"/>
<rect x="12.3636" y="14.2182" width="3.63636" height="1.45455" fill="#212630"/>
<rect x="14.5455" y="12.0363" width="1.45455" height="3.63636" fill="#212630"/>
<rect x="8.72729" y="14.2182" width="1.45455" height="1.45455" fill="#212630"/>
<rect x="10.1818" y="10.5818" width="2.18182" height="2.90909" fill="#212630"/>
</g>
<defs>
<clipPath id="clip0_302_326">
<rect width="16" height="16" fill="white"/>
</clipPath>
</defs>
</svg>
