<svg xmlns="http://www.w3.org/2000/svg" width="26" height="26" viewBox="0 0 26 26">
    <defs>
        <style>
            .cls-1{fill:#6fbe4f}
        </style>
    </defs>
    <g id="Group_6771" data-name="Group 6771" transform="translate(-1190 -1593)">
        <g id="Group_1041" data-name="Group 1041" transform="translate(1148.695 1551.694)">
            <path id="Path_12870" data-name="Path 12870" class="cls-1" d="M54.306 42.667a11.639 11.639 0 1 1-11.639 11.639 11.673 11.673 0 0 1 11.639-11.639zm0 21.162a9.523 9.523 0 1 0-9.523-9.523 9.551 9.551 0 0 0 9.523 9.523z"/>
            <path id="Path_12871" data-name="Path 12871" class="cls-1" d="M366.551 256a3.758 3.758 0 0 1 3.884 3.67 3.546 3.546 0 0 1-1.165 2.621 3.545 3.545 0 0 1 1.165 2.621 3.89 3.89 0 0 1-7.767 0 3.545 3.545 0 0 1 1.165-2.621 3.546 3.546 0 0 1-1.165-2.621 3.758 3.758 0 0 1 3.883-3.67zm0 5.243a1.575 1.575 0 1 0-1.664-1.573 1.592 1.592 0 0 0 1.664 1.573zm0 5.243a1.575 1.575 0 1 0-1.664-1.573 1.592 1.592 0 0 0 1.664 1.573z" transform="translate(-312.045 -207.785)"/>
        </g>
        <path id="Rectangle_8180" data-name="Rectangle 8180" transform="translate(1190 1593)" style="fill:none" d="M0 0h26v26H0z"/>
    </g>
</svg>
