<svg xmlns="http://www.w3.org/2000/svg" width="26" height="26" viewBox="0 0 26 26">
    <g data-name="Group 6748">
        <path data-name="Path 19" d="M192.23 303.191a2.577 2.577 0 0 1-2.539-2.607v-.814h-6.918v.814a2.577 2.577 0 0 1-2.539 2.607H176.9a2.577 2.577 0 0 1-2.539-2.607v-10.261a5.282 5.282 0 0 1 5.206-5.343h5.792v-2.737h1.741v2.737h5.8a5.281 5.281 0 0 1 5.205 5.343v10.262a2.577 2.577 0 0 1-2.539 2.607zm-.793-2.607a.8.8 0 0 0 .793.814h3.332a.8.8 0 0 0 .793-.814v-10.261a3.51 3.51 0 0 0-3.459-3.551h-13.33a3.51 3.51 0 0 0-3.459 3.551v10.262a.8.8 0 0 0 .793.814h3.333a.8.8 0 0 0 .793-.814v-2.607h10.411zm1.46-5.945a1.239 1.239 0 1 1 1.203-1.239 1.224 1.224 0 0 1-1.2 1.239zm-12.537 0v-2.052h-2v-1.792h2v-2.052h1.746v2.052h2v1.792h-2v2.052zm9.87-3.421a1.224 1.224 0 0 1-1.206-1.238 1.247 1.247 0 0 1 .353-.876 1.184 1.184 0 0 1 .853-.363 1.239 1.239 0 0 1 0 2.477z" transform="translate(-173.231 -279.991)" style="fill:#1dddb8"/>
        <path data-name="Rectangle 8179" style="fill:none" d="M0 0h26v26H0z"/>
    </g>
</svg>
