<svg xmlns="http://www.w3.org/2000/svg" width="110" height="36" viewBox="0 0 110 36">
  <defs>
    <style>
      .cls-1 {
        fill: #fff;
      }

      .cls-2 {
        fill: none;
      }
    </style>
  </defs>
  <g id="组_7088" data-name="组 7088" transform="translate(-541 -1132)">
    <g id="组_6918" data-name="组 6918" transform="translate(155.17 -6.869)">
      <path id="联合_179" data-name="联合 179" class="cls-1" d="M19971.607,7143.024c-.01,0-.025-.015-.07-.035.109-.105.211-.2.3-.3.332-.337.654-.684.986-1.016a.292.292,0,0,1,.221-.091c.8.121,1.6.247,2.4.373a.484.484,0,0,1,.1.045c-.176.136-.332.267-.5.382-.3.207-.619.4-.926.609a.936.936,0,0,1-.539.121c-.17.015-.336.02-.508.02A11.009,11.009,0,0,1,19971.607,7143.024Zm3.918-.231.891-.74a.283.283,0,0,1,.141-.05c.367-.01.725-.015,1.092-.02.02,0,.035.01.061.035a9.122,9.122,0,0,1-2.168.815Zm-5.035,0a10.1,10.1,0,0,1-3.311-1.554.229.229,0,0,1-.1-.161c.02-.6.051-1.217.08-1.826.006-.036.025-.076.045-.146a20.192,20.192,0,0,0,5.025,2.269c-.051.06-.07.1-.105.136-.4.393-.8.785-1.2,1.182a.39.39,0,0,1-.281.125A.584.584,0,0,1,19970.49,7142.8Zm6.795-1.414c-.035,0-.074,0-.15-.01.137-.151.246-.267.348-.393.422-.513.83-1.031,1.252-1.539a.281.281,0,0,1,.172-.1c.633.05,1.268.105,1.9.161a.234.234,0,0,1,.08.03c-.051.065-.09.116-.137.166a9.98,9.98,0,0,1-1.473,1.363.586.586,0,0,1-.246.125c-.574.071-1.148.131-1.721.2Zm-1.211,0a13.584,13.584,0,0,1-2.541-.322,1.452,1.452,0,0,1-.16-.05c.2-.267.387-.5.553-.755.373-.543.734-1.091,1.092-1.645.07-.1.125-.136.246-.106l2.777.694c.025,0,.045.02.1.04-.145.191-.266.377-.412.543-.447.5-.9.986-1.348,1.479a.355.355,0,0,1-.291.121Zm55.879-2.389,1.7-2.042a5.826,5.826,0,0,0,3.764,1.64c1.539,0,2.359-.659,2.359-1.7,0-1.1-.9-1.439-2.225-2l-1.977-.84a4.292,4.292,0,0,1-3-3.979c0-2.425,2.117-4.281,5.115-4.281a6.591,6.591,0,0,1,4.645,1.9l-1.5,1.861a4.738,4.738,0,0,0-3.145-1.217c-1.3,0-2.137.578-2.137,1.559,0,1.056,1.057,1.438,2.318,1.937l1.941.82c1.8.745,2.979,1.881,2.979,4.024,0,2.419-2.018,4.477-5.437,4.477A7.891,7.891,0,0,1,20031.953,7138.99Zm-13.818-4.779v-8.144h2.959v8.4c0,3.083,1.061,4.12,2.8,4.12,1.762,0,2.877-1.036,2.877-4.12v-8.4h2.842v8.144c0,4.919-2.1,6.937-5.719,6.937C20020.293,7141.148,20018.135,7139.131,20018.135,7134.211Zm-29.4-.8c0-4.824,2.7-7.621,6.619-7.621s6.621,2.817,6.621,7.621-2.7,7.736-6.621,7.736S19988.734,7138.21,19988.734,7133.412Zm3.018,0c0,3.159,1.4,5.176,3.6,5.176s3.6-2.017,3.6-5.176c0-3.184-1.4-5.08-3.6-5.08S19991.752,7130.228,19991.752,7133.412Zm13.119,7.459v-14.8h4.863c3.281,0,5.8,1.142,5.8,4.643,0,3.38-2.541,4.9-5.719,4.9h-1.982v5.261Zm2.963-7.6h1.781c2.041,0,3.018-.86,3.018-2.561,0-1.72-1.082-2.3-3.119-2.3h-1.68Zm-35.895,7.369a18.308,18.308,0,0,1-4.23-1.947l-.176-.116c-.236-.151-.252-.171-.191-.443.205-.865.422-1.73.633-2.6.041-.161.066-.171.217-.085a35.448,35.448,0,0,0,4.623,2.2c.508.2,1.016.372,1.529.553.166.06.182.075.08.216-.539.774-1.082,1.539-1.629,2.309a.7.7,0,0,1-.137.116C19972.4,7140.776,19972.17,7140.71,19971.939,7140.64Zm-5.664.025a10.281,10.281,0,0,1-1.615-1.775.452.452,0,0,1-.08-.187c-.064-.558-.131-1.117-.182-1.675a.424.424,0,0,0-.15-.332.585.585,0,0,1-.055-.055c-.4-.387-.4-.387-.367-.946a14.713,14.713,0,0,1,.346-2.344c.012-.045.025-.091.047-.156.07.041.125.07.18.105.795.543,1.58,1.092,2.379,1.63a.238.238,0,0,1,.117.317c-.242.916-.469,1.836-.705,2.756-.039.146-.029.272.127.342.307.146.352.367.291.7-.086.518-.09,1.057-.131,1.584-.006.041-.01.081-.025.161C19966.375,7140.741,19966.326,7140.705,19966.275,7140.665Zm13.047-1.856a1.215,1.215,0,0,1-.115-.041,19.02,19.02,0,0,0,2.289-5.045c.076.06.125.085.166.125l1.268,1.288a.261.261,0,0,1,.066.276,9.948,9.948,0,0,1-1.52,3.36.314.314,0,0,1-.2.125c-.16,0-.326.01-.492.01A10.219,10.219,0,0,1,19979.322,7138.809Zm-2.137-.393c-.514-.125-1.025-.271-1.539-.413-.191-.05-.2-.07-.1-.241a35.731,35.731,0,0,0,2.33-4.889c.156-.4.3-.8.447-1.208.061-.171.08-.181.227-.08.77.528,1.539,1.066,2.309,1.594a.232.232,0,0,1,.1.3,18.078,18.078,0,0,1-2.3,5.04.925.925,0,0,1-.176.176C19978.016,7138.6,19977.6,7138.522,19977.186,7138.417Zm-2.52-.709a36.97,36.97,0,0,1-6.268-2.822.194.194,0,0,1-.105-.276,32.654,32.654,0,0,1,2.047-4.809c.256-.483.527-.951.785-1.434a.2.2,0,0,1,.281-.1c.764.287,1.533.553,2.293.86a33.774,33.774,0,0,1,3.975,1.947,1.5,1.5,0,0,1,.16.141c-.125.357-.23.679-.352,1a35.765,35.765,0,0,1-2.531,5.387c-.055.09-.105.131-.176.131A.293.293,0,0,1,19974.666,7137.708Zm-11.615-3.29a1.723,1.723,0,0,1-.463-1.333c.025-.362.045-.72.07-1.082a1.167,1.167,0,0,1,.035-.181c.172.166.307.317.459.453.176.166.361.322.527.493a.282.282,0,0,1,.086.2c-.092.609-.191,1.212-.287,1.821-.006.021-.016.045-.041.111C19963.3,7134.72,19963.182,7134.559,19963.051,7134.417Zm20,0c-.422-.4-.84-.8-1.262-1.2a.254.254,0,0,1-.1-.262c.131-.774.256-1.549.383-2.319.01-.04.016-.08.025-.121a.423.423,0,0,0,.039-.025c.131.161.262.312.377.478.213.307.418.619.619.941a.771.771,0,0,1,.105.337,9.142,9.142,0,0,1-.049,2.092c-.006.045-.021.091-.035.161A1.165,1.165,0,0,1,19983.055,7134.413Zm-16.217-.407c-.764-.528-1.523-1.066-2.3-1.575a.505.505,0,0,1-.217-.679,18.679,18.679,0,0,1,1.52-3.657c.227-.412.473-.81.719-1.212.141-.231.182-.247.443-.191.387.081.77.151,1.146.242.568.141,1.127.3,1.689.448a.889.889,0,0,1,.146.055c-.045.085-.076.151-.115.221a34.793,34.793,0,0,0-2.49,5.282c-.125.332-.246.664-.357,1-.025.07-.055.1-.09.1A.164.164,0,0,1,19966.838,7134.005Zm14.186-1.429q-1.154-.792-2.314-1.58c-.084-.06-.131-.11-.1-.231q.346-1.312.684-2.625c.016-.061.029-.121.055-.227.242.181.463.327.66.5.482.427.955.865,1.428,1.3a.305.305,0,0,1,.086.191,14,14,0,0,1-.342,2.656.363.363,0,0,1-.035.076C19981.1,7132.617,19981.059,7132.6,19981.023,7132.577Zm-17.953-1.363q-.6-.6-1.191-1.207a.253.253,0,0,1-.045-.211,9.789,9.789,0,0,1,1.338-3.078.623.623,0,0,1,.658-.342c.443.041.891.045,1.334.07a2.067,2.067,0,0,1,.287.056,17.789,17.789,0,0,0-2.2,4.839A1.859,1.859,0,0,1,19963.07,7131.213Zm14.818-.679a30.735,30.735,0,0,0-3.893-1.927c-.725-.307-1.469-.568-2.2-.845l-.23-.09c.154-.247.291-.483.447-.7.418-.588.846-1.167,1.268-1.75a.187.187,0,0,1,.236-.081,17,17,0,0,1,3.455,1.348c.568.292,1.107.629,1.666.941a.2.2,0,0,1,.109.267q-.331,1.381-.664,2.761c-.02.076-.045.111-.1.111A.2.2,0,0,1,19977.889,7130.535Zm4.609-.533a1.052,1.052,0,0,1-.363-.966c.025-.181.006-.367.025-.559a8.27,8.27,0,0,1,.775,1.962l-.051.03A5.229,5.229,0,0,0,19982.5,7130Zm-1.756-1.75c-.383-.317-.779-.614-1.168-.931a.274.274,0,0,1-.1-.206c.041-.559.1-1.117.152-1.675a.4.4,0,0,1,.029-.105,2.02,2.02,0,0,1,.191.146,10.543,10.543,0,0,1,1.379,1.489.579.579,0,0,1,.105.226c.07.523.125,1.051.191,1.575a.916.916,0,0,1-.021.156C19981.234,7128.684,19980.994,7128.457,19980.742,7128.251Zm-2.027-1.494a18.633,18.633,0,0,0-3.225-1.615c-.518-.191-1.047-.357-1.568-.533a.768.768,0,0,1-.111-.04c.262-.271.492-.523.738-.77.191-.191.4-.373.6-.548a.3.3,0,0,1,.227-.055,10.149,10.149,0,0,1,3.477,1.514.262.262,0,0,1,.141.257c-.035.568-.061,1.137-.1,1.7-.01.1-.02.141-.064.141A.329.329,0,0,1,19978.715,7126.757Zm-8.918-.271c-.437-.131-.875-.267-1.318-.377-.523-.125-1.047-.236-1.57-.352-.039-.01-.084-.025-.16-.045.1-.146.182-.271.271-.392a16.43,16.43,0,0,1,1.625-1.821.352.352,0,0,1,.322-.106c.744.1,1.482.186,2.229.272a.374.374,0,0,0,.227-.056c.3-.2.6-.417.9-.624a.511.511,0,0,1,.176-.061,7.977,7.977,0,0,1,1.957.015.322.322,0,0,1,.1.02c-.15.191-.307.393-.463.579s-.352.377-.518.573a.219.219,0,0,1-.232.081c-.457-.09-.914-.166-1.377-.251a.314.314,0,0,0-.348.161c-.523.774-1.061,1.539-1.584,2.309a.171.171,0,0,1-.141.091A.347.347,0,0,1,19969.8,7126.485Zm-6.1-.946c-.5-.05-.992-.09-1.49-.131l-.125-.02c.076-.09.131-.156.186-.216a7.788,7.788,0,0,1,1.424-1.272.613.613,0,0,1,.287-.116c.393-.045.795-.081,1.191-.116a2.035,2.035,0,0,1,.252,0c-.15.161-.281.287-.393.428q-.557.664-1.1,1.343a.222.222,0,0,1-.191.105A.118.118,0,0,1,19963.7,7125.54Zm10.859-2.581c.006,0,.01,0,.01-.01l.055.025Z" transform="translate(-19563.912 -5976.001)"/>
    </g>
    <rect id="矩形_8388" data-name="矩形 8388" class="cls-2" width="110" height="36" transform="translate(541 1132)"/>
  </g>
</svg>
