<svg xmlns="http://www.w3.org/2000/svg" width="110" height="36" viewBox="0 0 110 36">
  <defs>
    <style>
      .cls-1 {
        fill: #fff;
      }

      .cls-2 {
        fill: none;
      }
    </style>
  </defs>
  <g id="组_36" data-name="组 36" transform="translate(-514.72 -1780.856)">
    <path id="联合_193" data-name="联合 193" class="cls-1" d="M-2342.581-5660.5a5.526,5.526,0,0,1-3.262-1.044,5.362,5.362,0,0,1-1.97-2.729,6.24,6.24,0,0,1-.2-.976c-.024-.16-.049-.322-.078-.482v-.016h-19.232l-19.6,0a3.123,3.123,0,0,1-3.287-2.607,3.274,3.274,0,0,1,.1-1.656l.544-1.771c.374-1.222.762-2.485,1.156-3.731a4.716,4.716,0,0,1,1.782-2.433,5.03,5.03,0,0,1,2.933-.931h39.356l.006-.016a9.79,9.79,0,0,1,5.307-4.742,7.653,7.653,0,0,1,2.736-.511c3.208,0,6.471,0,9.626,0h4.718c1.542,0,3.873,0,6.288,0a6.287,6.287,0,0,1,4.051,1.384,5.092,5.092,0,0,1,1.88,3.716.81.81,0,0,0,.017.1v0c0,.014.007.028.01.044l.015.016c.34.01.682.007,1.023,0a16.091,16.091,0,0,1,1.807.056,3.287,3.287,0,0,1,2.83,3.009,5.951,5.951,0,0,1-.368,2.034c-.448,1.415-.879,2.836-1.3,4.26a5.225,5.225,0,0,1-2.99,3.244,5.169,5.169,0,0,1-2.384.528c-.756-.016-1.514-.013-2.27-.017l-.016.016a10.244,10.244,0,0,1-5.218,4.592,8.7,8.7,0,0,1-3.307.656h-14.228C-2338.274-5660.493-2340.45-5660.495-2342.581-5660.5Zm19.459-2.178c.2,0,.412.007.6.014h.067l.1,0c.166.007.372.016.571.016a4.958,4.958,0,0,0,.853-.064,8.123,8.123,0,0,0,3.769-1.625,7.268,7.268,0,0,0,2.284-3.367c.772-2.252,1.461-4.578,2.128-6.828v-.005l.023-.076.164-.552.023-.076c.208-.7.424-1.425.638-2.137a3.85,3.85,0,0,0,.093-2.06,3.275,3.275,0,0,0-3.143-2.522c-.325-.011-.658-.017-1.044-.017h-.619l-.233,0h-.362l-.438,0h-.078v-.02h-1.4c-.282,0-.515,0-.762,0h-.05a7.077,7.077,0,0,0-4.1,1.411,7.045,7.045,0,0,0-2.525,3.522c-.093.3-.187.6-.281.9l-.071.23c-.043.134-.084.268-.126.4-.3.938-.663,2.107-.994,3.232-.164.566-.352,1.138-.535,1.69l-.006.017-.033.1-.024.07a27.914,27.914,0,0,0-1,3.579,3.519,3.519,0,0,0,.669,2.916,3.487,3.487,0,0,0,2.68,1.229c.347.008.725.013,1.226.013h1.118l.807,0Zm-13.014-19.286a7.037,7.037,0,0,0-6.328,4.632c-.862,2.7-1.726,5.446-2.561,8.1l-.019.059-.277.88,0,.009a7.439,7.439,0,0,0-.469,2.386,3.309,3.309,0,0,0,3.127,3.211c.686.024,1.419.036,2.31.036.421,0,.88,0,1.447-.006h.081c.387,0,.823-.007,1.255-.007h.441a3.168,3.168,0,0,0,.655-.049,6.861,6.861,0,0,0,5.3-4.622c.514-1.425.951-2.9,1.377-4.335v0c.212-.713.452-1.523.7-2.3.04-.125.043-.2.013-.237s-.11-.056-.233-.056c-.963,0-2.1,0-3.245,0-1.265,0-2.3,0-3.244,0a.3.3,0,0,0-.342.251l-.16.506-.014.046c-.291.924-.594,1.88-.912,2.81-.046.136-.05.221-.016.27s.12.064.248.064h1.058c.168,0,.317,0,.472-.006h.033c.118,0,.188.02.221.067s.033.13-.01.261c-.244.753-.481,1.492-.686,2.24-.07.251-.191.3-.422.3-.865-.006-1.5-.007-2.113-.007-.642,0-1.238,0-1.825.01h-.02c-.154,0-.237-.022-.274-.073s-.024-.171.02-.313c1-3.157,1.918-6.1,2.81-8.986a.426.426,0,0,1,.488-.351h.011c1.282,0,2.591,0,3.854.006h.582c1.435,0,2.92,0,4.38.006a.379.379,0,0,0,.438-.323c.411-1.318.843-2.662,1.321-4.11.053-.161.06-.248.021-.3s-.123-.076-.281-.076h-.013c-.745.007-1.485.01-2.4.01h-2.4l-1.291,0h-1.291C-2335.065-5681.968-2335.622-5681.965-2336.136-5681.961Zm-38.582,13.612c.388,0,.9,0,1.412.007h.014a.33.33,0,0,0,.384-.277c.318-1.068.665-2.174,1.06-3.379.043-.127.046-.208.013-.254s-.1-.062-.221-.062h-.042c-.264.007-.478.01-.675.01-.234,0-.455-.005-.675-.013a.177.177,0,0,0-.029,0,.315.315,0,0,0-.343.272c-.063.214-.135.437-.2.632l-.009.021c-.081.252-.166.512-.237.772a.332.332,0,0,1-.366.288h-.033c-.135,0-.285-.007-.471-.007h-.345l-.347,0h-.01c-.217,0-.325,0-.364-.056s-.007-.16.057-.372q.208-.677.411-1.351l.007-.019c.334-1.1.75-2.472,1.156-3.768.047-.152.051-.235.014-.285s-.1-.064-.215-.064h-.042c-.217.009-.444.012-.676.012s-.459,0-.676-.012h-.027a.317.317,0,0,0-.342.271l-.033.107-.044.143c-.715,2.325-1.455,4.731-2.2,7.091-.042.134-.046.2-.016.242s.091.056.212.056h.013c.379-.005.79-.007,1.331-.007h2.545Zm21.194,0h.03a.017.017,0,0,0,.009,0c.227,0,.3-.108.365-.318.24-.8.495-1.608.742-2.391l.01-.028.291-.927c.007-.021.013-.043.019-.064.031-.118.061-.229.24-.229h.009c.219,0,.459.006.774.006h.979c-.01.042-.017.073-.023.1v.011a.519.519,0,0,1-.014.053l-.257.849-.007.024c-.258.849-.525,1.726-.795,2.589-.043.14-.047.217-.01.265s.1.065.211.065h.039c.187-.007.391-.01.642-.01.282,0,.581,0,.82.009h.007a.234.234,0,0,0,.264-.187c.125-.419.26-.856.38-1.241.282-.913.575-1.857.822-2.8a1.327,1.327,0,0,0-.194-1.164,1.469,1.469,0,0,0-1.17-.539c-.376-.006-.743-.009-1.087-.009-.275,0-.571,0-.9.006a2.834,2.834,0,0,0-2.609,1.863c-.244.74-.471,1.5-.69,2.238l0,.013-.013.045c-.148.5-.3,1.016-.461,1.521-.033.1-.034.167-.007.2s.093.049.184.049h.313c.148,0,.332,0,.508,0C-2353.9-5668.358-2353.705-5668.354-2353.524-5668.346Zm-7.783,0h.039c.238,0,.32-.123.374-.318.066-.237.14-.477.211-.706l0-.015c.07-.221.147-.469.214-.709a.314.314,0,0,1,.334-.279,2.145,2.145,0,0,0,1.108-.411,2.892,2.892,0,0,0,1.2-1.575c.173-.553.349-1.127.5-1.632.17-.555.381-1.244.588-1.9.042-.13.06-.229.016-.29s-.1-.068-.214-.068h-.046c-.2.007-.388.011-.585.011s-.431,0-.726-.011h-.021a.3.3,0,0,0-.345.268c-.19.664-.4,1.334-.6,1.983l0,.014c-.074.238-.147.477-.221.716-.292.958-.292.958-1.275.958l-.207,0h-.207c-.1,0-.181,0-.26.009-.037,0-.061,0-.083,0-.1,0-.154-.019-.183-.059s-.031-.134.016-.28c.2-.621.384-1.244.566-1.847l.016-.056c.141-.463.285-.944.432-1.414.036-.113.05-.191.014-.238s-.084-.054-.183-.054h-.021c-.2,0-.418.007-.665.007s-.5,0-.8-.007h-.009a.256.256,0,0,0-.287.212c-.13.435-.267.879-.406,1.333-.258.837-.525,1.7-.763,2.563a1.376,1.376,0,0,0,.107,1.107,1.517,1.517,0,0,0,1.017.666c.113.026.177.06.206.113a.309.309,0,0,1-.019.247c-.086.244-.163.5-.23.729l-.006.022c-.058.2-.12.4-.187.6-.04.117-.044.194-.011.24s.1.064.211.064h.031c.214-.006.481-.012.733-.012C-2361.692-5668.358-2361.491-5668.354-2361.307-5668.344Zm-6.235-2.459c.118,0,.19.022.223.071.05.07.016.194-.024.305-.1.3-.2.606-.278.864l-.034.108,0,.01c-.07.225-.143.458-.22.686-.046.13-.078.26-.024.335.036.05.111.074.231.074a.621.621,0,0,0,.072,0c.194-.012.389-.019.595-.019.227,0,.482.01.679.017a.317.317,0,0,0,.039,0c.208,0,.307-.082.372-.315.14-.491.3-.99.445-1.474l0-.016.011-.033c.033-.1.064-.207.1-.31s.07-.229.105-.344l.124-.4.009-.026c.057-.187.114-.372.173-.556l.006-.02,0-.014v-.006c.247-.8.5-1.619.742-2.432a1.573,1.573,0,0,0-.153-1.393,1.538,1.538,0,0,0-1.257-.552c-.111,0-.227,0-.36,0h-1.515a2.937,2.937,0,0,0-1.636.531,2.689,2.689,0,0,0-1.024,1.361c-.381,1.178-.746,2.381-1.1,3.545v0l-.03.1-.158.522c-.144.474-.307,1.01-.468,1.532-.036.117-.039.188-.006.232s.094.062.2.062h.019l.135,0c.183,0,.4-.007.611-.007.232,0,.438.006.636.012h.033c.22,0,.3-.111.351-.3.1-.341.207-.67.325-1.034.108-.333.188-.585.26-.817a.343.343,0,0,1,.364-.3h.03c.247.012.482.016.7.016s.437,0,.648-.016h.051Zm-16.608,2.452h.037c.237,0,.322-.125.379-.315.05-.174.107-.354.158-.512l.034-.108.017-.051,0-.008c.077-.244.158-.5.225-.745a.311.311,0,0,1,.35-.271h.017c.083,0,.167,0,.265,0h.415l.029,0h.379c.205,0,.372,0,.525.011h.094a2.612,2.612,0,0,0,1.538-.561,2.813,2.813,0,0,0,.969-1.257c.278-.8.508-1.546.7-2.28a1.436,1.436,0,0,0-.187-1.248,1.476,1.476,0,0,0-1.185-.54c-.174,0-.378-.005-.679-.005h-2.16c-.36,0-.643,0-.91,0h-.009a.27.27,0,0,0-.312.22c-.653,2.154-1.375,4.5-2.27,7.379-.033.108-.034.181,0,.227s.1.063.211.063h.013c.062,0,.121,0,.181,0h.011c.243,0,.411,0,.563,0C-2384.517-5668.362-2384.327-5668.358-2384.15-5668.351Zm29.954-5.582c.141,0,.244-.012.291-.166.147-.491.294-.967.449-1.472.067-.214.134-.432.2-.652h-1.177c-.324,0-.615,0-.916,0h0c-.167,0-.211.1-.245.22-.043.141-.084.282-.125.423l0,.01c-.134.455-.272.924-.424,1.382-.034.1-.037.167-.009.2s.081.053.188.053h.014c.3,0,.552,0,.793,0C-2354.868-5673.937-2354.562-5673.936-2354.2-5673.933Zm34.029,6.479c-.227,0-.5-.005-.9-.005h-3.16c-.21,0-.315,0-.352-.053s-.009-.148.053-.341l0-.01q.349-1.1.7-2.208l.057-.18.153-.486.586-1.86.089-.281.093-.3c.254-.809.515-1.638.773-2.454l.057-.181.057-.18.014-.044.006-.017c.09-.278.183-.568.262-.856a.312.312,0,0,1,.352-.275h.007c.709.006,1.405.009,2.128.009s1.387,0,2.033-.009h.011c.125,0,.2.02.228.064s.023.137-.017.264c-1.071,3.422-1.971,6.323-2.833,9.125a.329.329,0,0,1-.381.272Zm-62.344-4.921c-.087-.108.014-.37.113-.622l.009-.025,0-.006c.033-.087.066-.17.088-.248s.049-.184.07-.278l0-.011a1.225,1.225,0,0,1,.28-.662.507.507,0,0,1,.356-.1c.086,0,.178.008.268.016h.029l0,0,.031,0a2.648,2.648,0,0,0,.274.02c.017,0,.034,0,.05,0,.042,0,.083,0,.135,0h.408c.208,0,.3.007.335.05s.007.11-.033.235l0,.014-.016.051c-.016.05-.033.107-.05.171-.064.238-.137.474-.2.652-.048.154-.105.338-.158.522-.063.221-.16.313-.337.313a.538.538,0,0,1-.077-.007c-.087-.008-.164-.013-.247-.013h-.2c-.065,0-.154,0-.245,0-.021,0-.047,0-.078,0-.053,0-.111.006-.173.011h-.011l-.05.006-.013,0a2.123,2.123,0,0,1-.257.019A.36.36,0,0,1-2382.511-5672.375Zm15.422.074c-.083-.006-.166-.01-.258-.01-.056,0-.12,0-.2,0h-.211c-.076,0-.153,0-.228,0h-.227c-.114,0-.205,0-.292.006h-.038c-.083,0-.134-.016-.158-.05s-.027-.1.01-.217c.158-.479.311-.983.454-1.494.049-.178.128-.244.3-.244h.014c.2,0,.488.009.769.009.255,0,.511,0,.728-.009h.021c.1,0,.148.017.176.053s.024.1-.013.207c-.2.585-.334,1.034-.448,1.458-.058.211-.147.29-.329.29A.464.464,0,0,1-2367.089-5672.3Zm58.364-9.7a1.626,1.626,0,0,1,1.626-1.626,1.627,1.627,0,0,1,1.626,1.626,1.627,1.627,0,0,1-1.626,1.626A1.626,1.626,0,0,1-2308.725-5682Zm.275,0a1.35,1.35,0,0,0,1.351,1.349,1.35,1.35,0,0,0,1.35-1.349,1.351,1.351,0,0,0-1.35-1.351A1.351,1.351,0,0,0-2308.45-5682Zm1.71.773a.032.032,0,0,1-.027-.017l-.27-.578h-.322v.565a.029.029,0,0,1-.029.03h-.2a.029.029,0,0,1-.029-.03v-1.488a.029.029,0,0,1,.029-.029h.565a.464.464,0,0,1,.524.475.441.441,0,0,1-.285.434l.294.6a.029.029,0,0,1-.014.039.025.025,0,0,1-.011,0Zm-.619-.8h.3c.193,0,.3-.093.3-.264a.261.261,0,0,0-.294-.274h-.3Z" transform="translate(2916.874 7471.174)"/>
    <rect id="矩形_8411" data-name="矩形 8411" class="cls-2" width="110" height="36" transform="translate(514.72 1780.856)"/>
  </g>
</svg>
