<svg xmlns="http://www.w3.org/2000/svg" width="110" height="36" viewBox="0 0 110 36">
  <defs>
    <style>
      .cls-1 {
        fill: #fff;
      }

      .cls-2 {
        fill: none;
      }
    </style>
  </defs>
  <g id="组_7106" data-name="组 7106" transform="translate(-380 -1139)">
    <g id="组_34" data-name="组 34" transform="translate(121.358 -1226.257)">
      <path id="联合_192" data-name="联合 192" class="cls-1" d="M-2476.941-5071.847c.561-1.2,2.43-1.18,3.062-1.164l.17,0a4.067,4.067,0,0,0,3.461-1.4,10.5,10.5,0,0,0,1.811.179,11.518,11.518,0,0,1-1.632,1.861c-.5.424-1.575,2.432,1.028,4.39-1.4-.073-3.729-2.023-2.693-3.851-1.893-.328-4.146.228-4.341,1.844a6.006,6.006,0,0,0,.326,2.758C-2477.333-5069.423-2477.57-5070.509-2476.941-5071.847Zm28.975,1.728-.215-1.348-.421,1.348h-.33l-.416-1.348-.218,1.348h-.367l.34-2.137h.369l.458,1.491.466-1.491h.362l.334,2.137Zm.547,0v-2.135h1.08v.4h-.7v.384h.7v.395h-.7v.561h.7v.4Zm-3.013,0-.154-.439h-.8l-.162.439h-.387l.755-2.135h.379l.751,2.135Zm-.813-.837h.518l-.258-.731Zm-2.438.7a1.01,1.01,0,0,1-.392-.392,1.11,1.11,0,0,1-.144-.55,1.027,1.027,0,0,1,.265-.7,1.055,1.055,0,0,1,.824-.354,1.25,1.25,0,0,1,.5.1,1.126,1.126,0,0,1,.382.287l-.273.266a.8.8,0,0,0-.6-.272.689.689,0,0,0-.5.2.646.646,0,0,0-.2.483.67.67,0,0,0,.21.5.716.716,0,0,0,.518.2.638.638,0,0,0,.338-.084.589.589,0,0,0,.22-.262h-.585v-.362h1.019l0,.084a.992.992,0,0,1-.137.505.964.964,0,0,1-.357.363,1,1,0,0,1-.514.127A1.158,1.158,0,0,1-2453.684-5070.257Zm-2.962.136v-2.135h.371v1.748h.54v.387Zm-.635,0-.152-.439h-.8l-.161.439h-.386l.754-2.135h.379l.752,2.135Zm-.813-.837h.52l-.259-.731Zm-1.677.837v-1.734h-.379v-.4h1.179v.4h-.386v1.734Zm-.957,0-.87-1.4v1.4h-.386v-2.135h.367l.872,1.407v-1.407h.389v2.135Zm-2.6,0v-2.135h1.08v.4h-.7v.384h.7v.395h-.7v.561h.7v.4Zm-.723,0v-2.135h.37v2.135Zm-.7,0-.476-.906h-.037v.906h-.408v-2.135h.43a1.432,1.432,0,0,1,.5.063.5.5,0,0,1,.242.21.634.634,0,0,1,.092.347.6.6,0,0,1-.1.353.641.641,0,0,1-.3.214l.5.948Zm-.513-1.3h.124a.491.491,0,0,0,.269-.051.192.192,0,0,0,.073-.167.2.2,0,0,0-.037-.121.2.2,0,0,0-.1-.074.712.712,0,0,0-.221-.023h-.11Zm-2.437.983a1.039,1.039,0,0,1-.307-.75,1.053,1.053,0,0,1,.143-.536,1.082,1.082,0,0,1,.393-.388,1.057,1.057,0,0,1,.535-.143,1.023,1.023,0,0,1,.75.313,1.031,1.031,0,0,1,.312.759,1.026,1.026,0,0,1-.308.755,1.023,1.023,0,0,1-.751.307A1.019,1.019,0,0,1-2467.7-5070.439Zm.282-1.238a.679.679,0,0,0-.195.5.66.66,0,0,0,.243.539.671.671,0,0,0,.437.155.636.636,0,0,0,.475-.2.686.686,0,0,0,.2-.5.675.675,0,0,0-.2-.494.645.645,0,0,0-.477-.2A.649.649,0,0,0-2467.42-5071.677Zm-10.116-3.484c.824-.358,1.363.041,4.015-.555.36.171,1.158.645,1.762.9-.489.955-3.422,1.038-4.7,1.158-1.208.115-2.107,1.673-1.812,3.118C-2480.067-5073.169-2478.361-5074.8-2477.537-5075.161Zm-1.652-1.964a6.364,6.364,0,0,0-2.668-1.91c-1.492-.294-2.374.931-3.5,2.521.086-.966.551-3.439,2.228-4.088s3.167,1.166,3.954,1.762c1.114.845,2.546,1.164,3.22.783a8.116,8.116,0,0,0,1.15,1.273c-.895.612-1.8.1-3.722.685s-1.371,3.673-1.371,3.673A3.084,3.084,0,0,1-2479.189-5077.125Zm38.639,3.054a4,4,0,0,1-4-4V-5088.9a4,4,0,0,1,4-4h19.458a4,4,0,0,1,4,4v10.829a4,4,0,0,1-4,4Zm15-7.8a2.236,2.236,0,0,0,.637,1.431,2.863,2.863,0,0,0,2.023.562,3.441,3.441,0,0,0,1.378-.241,1.9,1.9,0,0,0,.851-.705,1.812,1.812,0,0,0,.306-1.015,1.618,1.618,0,0,0-.229-.849,1.741,1.741,0,0,0-.731-.634,7.319,7.319,0,0,0-1.661-.505,1.465,1.465,0,0,1-.594-.212.316.316,0,0,1-.129-.246.4.4,0,0,1,.156-.319.719.719,0,0,1,.466-.129.9.9,0,0,1,.588.175.9.9,0,0,1,.279.562l1.669-.1a1.773,1.773,0,0,0-.686-1.3,2.9,2.9,0,0,0-1.674-.408,3.628,3.628,0,0,0-1.409.224,1.717,1.717,0,0,0-.769.618,1.517,1.517,0,0,0-.256.833,1.406,1.406,0,0,0,.5,1.106,3.877,3.877,0,0,0,1.66.7,2.242,2.242,0,0,1,.906.332.526.526,0,0,1,.2.4.532.532,0,0,1-.206.412.863.863,0,0,1-.582.178.937.937,0,0,1-.782-.348,1.3,1.3,0,0,1-.223-.625Zm-5.95-.42a3.419,3.419,0,0,0,.164.968,1.8,1.8,0,0,0,.376.66,2.076,2.076,0,0,0,.608.494,2.408,2.408,0,0,0,.827.233,7.927,7.927,0,0,0,.911.058,3.57,3.57,0,0,0,1.239-.192,2,2,0,0,0,.709-.474,2.1,2.1,0,0,0,.5-.788,2.9,2.9,0,0,0,.159-.959v-3.412h-1.766v3.494a1,1,0,0,1-.26.736.975.975,0,0,1-.717.259.966.966,0,0,1-.72-.264,1,1,0,0,1-.26-.731v-3.494h-1.765Zm-4.733,2.315h4.531v-1.412h-2.762v-4.316h-1.769Zm-5.386,0h1.777v-2.126h.97a2.27,2.27,0,0,0,1.591-.487,1.773,1.773,0,0,0,.522-1.357,1.726,1.726,0,0,0-.479-1.3,2.024,2.024,0,0,0-1.44-.457h-2.941Zm-19,2.131a.66.66,0,0,1-.09-.748l.963-1.843a.182.182,0,0,1,.317-.006,5.6,5.6,0,0,0,4.816,2.751,5.583,5.583,0,0,0,4.11-1.8h-2.057a.142.142,0,0,1-.142-.144v-1.836a.59.59,0,0,1,.591-.591h5.518a8.14,8.14,0,0,1-7.562,6.875c-.152.009-.3.013-.456.013A8.1,8.1,0,0,1-2460.614-5077.846Zm-7.921,2.666c-.065,0-.131,0-.2-.008a8.136,8.136,0,0,1-7.7-7.89,8.122,8.122,0,0,1,8.109-8.323,8.117,8.117,0,0,1,1.641.17,8.245,8.245,0,0,1,3.086,1.344,8.217,8.217,0,0,1,1.412,1.267.474.474,0,0,1,.091.478,11.817,11.817,0,0,1-1.255,2.29,5.6,5.6,0,0,0-4.974-3.035,5.605,5.605,0,0,0-5.6,5.6,5.571,5.571,0,0,0,5.492,5.6,5.6,5.6,0,0,0,4.956-2.8,5.576,5.576,0,0,0,.748-2.688h0c0-.035,0-.068,0-.1a8.056,8.056,0,0,1,1.256-4.328c.051-.078.1-.158.154-.233.009-.013.019-.026.028-.04a8.105,8.105,0,0,1,6.673-3.511,8.127,8.127,0,0,1,7.866,6.129h-2.372a.385.385,0,0,1-.354-.23,5.621,5.621,0,0,0-4.823-3.376,5.606,5.606,0,0,0-5.6,3.742c-.056.163-.106.328-.148.5a5.611,5.611,0,0,0-.165,1.35c0,.144.005.284.015.424a5.357,5.357,0,0,1-.354,2.473,7.758,7.758,0,0,1-.849,1.54,7.942,7.942,0,0,1-1.637,1.708,8.067,8.067,0,0,1-5.287,1.968Zm-11.34-5.452c-1.576-1.212-2.937-2.424-4.732-.009,0,0,.408-3,3-2.971,1.551.033,1.747,1.322,4.276,2.514a6.223,6.223,0,0,0,.718,1.861q-.095.006-.188.006A5.218,5.218,0,0,1-2479.875-5080.632Zm-.269-4.162c-1.114-.991-3.182-.416-4.333,1.175.17-.88,1.725-3.489,4.039-2.717-.061-3.757-.808-4.811-4.7-3.868,4.982-3.6,5.871-.192,5.909,1.337.032,1.306-.392,2.6,1.753,4.293a5.206,5.206,0,0,0-.1,1.641C-2478.221-5082.982-2479.029-5083.8-2480.144-5084.794Zm40.3,1.532v-1.277h.5a.936.936,0,0,1,.676.187.638.638,0,0,1,.18.457.573.573,0,0,1-.207.456,1.126,1.126,0,0,1-.719.178Zm-38.491-6.066c-.172-2.118-.649-3.612-3.452-3.256,3.133-1.751,4.53-.245,4.871.93s0,1.8.514,3.795a6.179,6.179,0,0,0-.832,1.835C-2477.878-5086.33-2478.16-5087.21-2478.331-5089.329Zm2.8-3.167c-.15-1.231-1.11-2.171-3.656-2.122,1.714-.929,3.834-.783,4.668,1.012a11.183,11.183,0,0,0,1.958-2.448c.572-1.142-.44-2.5-2.48-3.688,5.777.93,4.6,4.113,3.068,5.223a4.11,4.11,0,0,0-1.893,3.917,4.206,4.206,0,0,0-1.339,1.24C-2475.544-5089.852-2475.374-5091.219-2475.528-5092.5Zm10.053.719c.7-.792,3.118-.816,4.733-1.029s1.926-1.721,1.7-3.084c1.477,2.008.751,3.836-.506,4.522s-1.477.17-3.853.62A4.372,4.372,0,0,0-2465.475-5091.777Zm-4.453-3.616c1.029-1.346.466-2.681-.9-3.575,2.4.906,2.937,1.628,2.986,3.06s-1.652,2.412-2.423,3.795a14.6,14.6,0,0,0-2.155.735C-2472.24-5092.847-2470.956-5094.046-2469.928-5095.393Zm1.212,3.084a17.712,17.712,0,0,0,2.007-2.522c.894-1.261-.1-2.876-1.444-3.819,2.167.123,3.513,2.779,2.816,3.869a7.053,7.053,0,0,0,2.913-.319c.869-.4,1.922-1.138.979-4.406,1.751,1.787,1.959,3.843,1.151,4.9s-3.073.966-3.672,1a3.611,3.611,0,0,0-2.865,1.421A11.808,11.808,0,0,0-2468.716-5092.308Z" transform="translate(2765.358 7466.743)"/>
      <g id="组_33" data-name="组 33" transform="translate(280 2367)">
        <path id="路径_55" data-name="路径 55" class="cls-1" d="M1345.4,1217.227Z" transform="translate(-1322.901 -1200.67)"/>
      </g>
    </g>
    <rect id="矩形_8410" data-name="矩形 8410" class="cls-2" width="110" height="36" transform="translate(380 1139)"/>
  </g>
</svg>
