<svg xmlns="http://www.w3.org/2000/svg" width="110" height="36" viewBox="0 0 110 36">
  <defs>
    <style>
      .cls-1 {
        fill: #fff;
      }

      .cls-2 {
        fill: none;
      }
    </style>
  </defs>
  <g id="组_7087" data-name="组 7087" transform="translate(-380 -1139)">
    <g id="layer1" transform="translate(377.5 1144.5)">
      <g id="g11933" transform="translate(7.928 2.064)">
        <path id="path11125" class="cls-1" d="M23.237,9.426c-.015-.036-.025-.071-.04-.108-.946-2.21-4.539-2.879-8.682-1.869l-.679-.4a13.329,13.329,0,0,1,5.773-1.156c2.538.183,3.78,1.56,3.629,3.538m-3.683,4.641C16.9,17.29,12.1,19.521,8.833,19.29s-3.755-3.036-1.1-6.259c.053-.066.11-.131.166-.2l.008,4.04a1.194,1.194,0,0,0,1.767,1.1L19.44,12.3a1.117,1.117,0,0,0-.036-1.932L15.444,8.2a8.862,8.862,0,0,1,3.01-.387c3.263.235,3.754,3.035,1.1,6.258M7.135,21.024c-3-.215-4.192-2.1-3.412-4.661a2.926,2.926,0,0,0,.232,1.217c1.172,2.745,6.43,3.116,11.743.838.109-.046.217-.1.324-.143-2.983,1.835-6.306,2.932-8.888,2.749M10.588,6.676l6.555,3.938a.766.766,0,0,1,.026,1.317l-6.621,3.848a.813.813,0,0,1-1.2-.755L9.315,7.383a.847.847,0,0,1,1.272-.706M25.761,8.094C24.387,4.876,18.682,4.168,12.507,6.25L9.767,4.614A1.25,1.25,0,0,0,7.893,5.656l0,2.657C2.574,11.352-.512,15.726.8,18.805c1.523,3.557,8.342,4.045,15.233,1.086s11.246-8.239,9.726-11.8" transform="translate(-0.5 -1.79)"/>
        <path id="path11129" class="cls-1" d="M41.8,14.148l-.6,2.128c-.089.324-.157.619-.211.873a3.1,3.1,0,0,0-.08.578.718.718,0,0,0,.194.533.755.755,0,0,0,.541.194,1.59,1.59,0,0,0,1.089-.574,6.356,6.356,0,0,0,1.084-1.65A20.128,20.128,0,0,0,44.849,13.5a8.341,8.341,0,0,0,.388-2.1,1.52,1.52,0,0,0-.228-.875.683.683,0,0,0-.573-.334,1.794,1.794,0,0,0-1.425.967A10.689,10.689,0,0,0,41.8,14.148M38.064,9.2c.926-.071,1.8-.166,2.643-.271s1.645-.227,2.424-.375l-.655,2.282A8.1,8.1,0,0,1,44.352,8.91,3.133,3.133,0,0,1,46.191,8.3a2.558,2.558,0,0,1,2.02.8,3.339,3.339,0,0,1,.712,2.293,7.9,7.9,0,0,1-.486,2.637,10.246,10.246,0,0,1-1.366,2.574,7.6,7.6,0,0,1-2.156,2.076,4.652,4.652,0,0,1-2.44.7,3.162,3.162,0,0,1-1-.151,2.912,2.912,0,0,1-.838-.447l-.671,2.474a2.614,2.614,0,0,0-.1.462,2.754,2.754,0,0,0-.032.459.706.706,0,0,0,.269.633,2.565,2.565,0,0,0,1.1.227v.578H34.952v-.6a.586.586,0,0,0,.092-.01.427.427,0,0,1,.089-.013,1.165,1.165,0,0,0,.873-.3,3.932,3.932,0,0,0,.6-1.551l2.49-9.85c.044-.158.077-.318.1-.471a2.353,2.353,0,0,0,.04-.349A.593.593,0,0,0,39,9.919a1.844,1.844,0,0,0-.934-.162Z" transform="translate(-11.083 -3.378)"/>
        <path id="path11133" class="cls-1" d="M55.129,1.22c.935-.073,1.828-.172,2.7-.292S59.506.67,60.275.5L56.838,13.708c-.022.073-.048.16-.078.275a1.529,1.529,0,0,0-.062.339.613.613,0,0,0,.092.364.33.33,0,0,0,.281.132.644.644,0,0,0,.424-.252,11.768,11.768,0,0,0,.927-1.312l.548.4A9.658,9.658,0,0,1,56.993,16.1a3.07,3.07,0,0,1-1.952.754,1.871,1.871,0,0,1-1.389-.488,1.917,1.917,0,0,1-.486-1.41,14.7,14.7,0,0,1,.5-2.384l.033-.13,2.281-8.6q.03-.119.086-.351a5.744,5.744,0,0,0,.209-1.087.534.534,0,0,0-.23-.479,1.3,1.3,0,0,0-.716-.156h-.2Z" transform="translate(-16.676 -0.5)"/>
        <path id="path11137" class="cls-1" d="M68.064,10.541a1.158,1.158,0,0,0-.211-.732.672.672,0,0,0-.557-.271,1.337,1.337,0,0,0-.946.455,7.488,7.488,0,0,0-1.055,1.529,14.309,14.309,0,0,0-1.1,2.493,6.914,6.914,0,0,0-.4,2.1,1.374,1.374,0,0,0,.223.827.725.725,0,0,0,.6.292,1.606,1.606,0,0,0,1.135-.629,6.738,6.738,0,0,0,1.106-1.774,19.5,19.5,0,0,0,.875-2.467,7.514,7.514,0,0,0,.331-1.819M72.208,8.66,70.375,15v.023a11.7,11.7,0,0,0-.419,1.707.629.629,0,0,0,.092.365.268.268,0,0,0,.244.136c.3,0,.684-.336,1.15-1.011.14-.193.248-.345.322-.451l.532.4a7.857,7.857,0,0,1-1.8,2.187,3.162,3.162,0,0,1-1.966.7,2.093,2.093,0,0,1-1.329-.363,1.3,1.3,0,0,1-.46-1.08,3.6,3.6,0,0,1,.044-.537c.026-.217.075-.5.139-.839a6.573,6.573,0,0,1-1.81,2.122,3.632,3.632,0,0,1-2.174.7,2.612,2.612,0,0,1-1.954-.728,2.744,2.744,0,0,1-.72-2.006,7.843,7.843,0,0,1,.692-3.091,9.66,9.66,0,0,1,1.853-2.859,7.468,7.468,0,0,1,1.907-1.53A4.036,4.036,0,0,1,66.626,8.3,2.158,2.158,0,0,1,68,8.7a2,2,0,0,1,.663,1.227L69,8.66Z" transform="translate(-18.858 -3.049)"/>
        <path id="path11141" class="cls-1" d="M75.093,9.575v-.6c.893-.1,1.8-.217,2.718-.352s1.412-.2,1.482-.2c.368,0,.85,1.572,1.433,4.721.236,1.254.431,2.264.583,3.019q1.043-2.053,1.428-2.993a4.138,4.138,0,0,0,.382-1.379c0-.229-.215-.507-.642-.824a1.38,1.38,0,0,1-.644-1.1,1.5,1.5,0,0,1,.449-1.139A1.636,1.636,0,0,1,83.464,8.3a1.529,1.529,0,0,1,1.147.426,1.693,1.693,0,0,1,.411,1.2,9.06,9.06,0,0,1-.95,3.112,43.057,43.057,0,0,1-2.594,4.826,21.192,21.192,0,0,1-3.386,4.473,4.436,4.436,0,0,1-2.934,1.407,2.387,2.387,0,0,1-1.471-.4,1.329,1.329,0,0,1-.535-1.118,1.369,1.369,0,0,1,.464-1.064,1.672,1.672,0,0,1,1.173-.42,2.2,2.2,0,0,1,1.2.429,2.11,2.11,0,0,0,.854.426c.256,0,.544-.208.871-.623a1.952,1.952,0,0,0,.5-1.2,9.434,9.434,0,0,0-.078-1.062c-.05-.432-.13-.959-.234-1.585-.216-1.342-.435-2.567-.654-3.667s-.422-1.965-.6-2.6A2.785,2.785,0,0,0,76.173,9.8a1.057,1.057,0,0,0-.788-.246h-.029a2.072,2.072,0,0,1-.262.024" transform="translate(-22.817 -3.378)"/>
        <path id="path11145" class="cls-1" d="M94.253,14.61a10.435,10.435,0,0,1-2.03,2.172,3.034,3.034,0,0,1-1.8.757,1.339,1.339,0,0,1-1.032-.413,1.6,1.6,0,0,1-.381-1.118,3.465,3.465,0,0,1,.051-.551,5.971,5.971,0,0,1,.145-.677L91.181,7.3H89.106l.193-.644a4.935,4.935,0,0,0,2.37-1.242,8.891,8.891,0,0,0,1.853-2.663h.708L93.3,6.506h1.9l-.191.791H93.053l-1.892,7.229c-.044.164-.077.308-.1.444a3.165,3.165,0,0,0-.031.356.809.809,0,0,0,.166.551.546.546,0,0,0,.448.191,1.466,1.466,0,0,0,.884-.434,10.4,10.4,0,0,0,1.3-1.411Z" transform="translate(-27.686 -1.235)"/>
        <path id="path11149" class="cls-1" d="M98.252,13.989a7.072,7.072,0,0,0,3.842-1.208,3.113,3.113,0,0,0,1.552-2.524.95.95,0,0,0-.248-.715,1.039,1.039,0,0,0-.742-.232,3.5,3.5,0,0,0-2.569,1.236,8.488,8.488,0,0,0-1.834,3.443m-.18.793a6.088,6.088,0,0,0-.149.774,4.311,4.311,0,0,0-.048.669,1.969,1.969,0,0,0,.478,1.434,1.882,1.882,0,0,0,1.391.575,4.722,4.722,0,0,0,2.046-.676,14.421,14.421,0,0,0,2.58-1.8l.5.738a14.02,14.02,0,0,1-3.206,2.2,6.771,6.771,0,0,1-2.942.712,2.9,2.9,0,0,1-2.2-.822,3.249,3.249,0,0,1-.783-2.333,7.723,7.723,0,0,1,.61-2.937,8.931,8.931,0,0,1,1.666-2.645,7.515,7.515,0,0,1,2.238-1.688,5.829,5.829,0,0,1,2.513-.587,2.96,2.96,0,0,1,1.871.538,1.755,1.755,0,0,1,.688,1.467,3.491,3.491,0,0,1-2.006,2.914,11.772,11.772,0,0,1-5.25,1.473" transform="translate(-29.754 -3.249)"/>
        <path id="path11153" class="cls-1" d="M116.68,14.944l-.03,1.417a7.88,7.88,0,0,1-2.344,2.29,5.335,5.335,0,0,1-2.775.754,3.541,3.541,0,0,1-2.682-1.078A3.908,3.908,0,0,1,107.82,15.5a6.634,6.634,0,0,1,.582-2.643,7.884,7.884,0,0,1,1.613-2.414,6.78,6.78,0,0,1,2.119-1.491,5.729,5.729,0,0,1,2.386-.531,3.333,3.333,0,0,1,2.045.574,1.808,1.808,0,0,1,.761,1.523,1.337,1.337,0,0,1-.4.975,1.253,1.253,0,0,1-.937.405.948.948,0,0,1-.72-.282,1.012,1.012,0,0,1-.275-.738,1.606,1.606,0,0,1,.222-.74,1.751,1.751,0,0,0,.215-.523.354.354,0,0,0-.223-.318,1.287,1.287,0,0,0-.612-.122,3.16,3.16,0,0,0-1.613.479,4.908,4.908,0,0,0-1.435,1.331,8.393,8.393,0,0,0-1.157,2.17,6.731,6.731,0,0,0-.4,2.239,2.859,2.859,0,0,0,.648,1.977,2.331,2.331,0,0,0,1.77.813,3.359,3.359,0,0,0,1.73-.622,8.591,8.591,0,0,0,2.535-2.612" transform="translate(-33.464 -3.258)"/>
        <path id="path11157" class="cls-1" d="M118.734,16.925l3.881-13.657a1.544,1.544,0,0,0,.047-.26,1.438,1.438,0,0,0,.019-.24.606.606,0,0,0-.184-.5,2.476,2.476,0,0,0-1.05-.129h-.884l.137-.623a13.469,13.469,0,0,0,2-.227,10.923,10.923,0,0,0,1.746-.5h.7l-2.687,9.434a25.436,25.436,0,0,1,3.8-3.175,5.647,5.647,0,0,1,2.754-1.125,1.106,1.106,0,0,1,.8.25,1.08,1.08,0,0,1,.261.784,1.984,1.984,0,0,1-.052.4c-.031.162-.072.34-.122.531l-1.961,6.426a4.088,4.088,0,0,0-.092.411,2.439,2.439,0,0,0-.04.436.3.3,0,0,0,.111.221c.07.063.156.175.248.175a1.851,1.851,0,0,0,.8-.458,6.914,6.914,0,0,0,1.069-1.038l.4.333a9.919,9.919,0,0,1-1.95,1.866,3.135,3.135,0,0,1-1.733.648,1.258,1.258,0,0,1-.815-.244.81.81,0,0,1-.3-.671,1.675,1.675,0,0,1,.032-.325,2.577,2.577,0,0,1,.106-.377l2.014-6.645c.037-.145.061-.257.074-.333a1.311,1.311,0,0,0,.016-.206.494.494,0,0,0-.149-.391.619.619,0,0,0-.422-.129,2.751,2.751,0,0,0-1.267.525,15.5,15.5,0,0,0-1.941,1.5,10.628,10.628,0,0,0-1.452,1.468,4.214,4.214,0,0,0-.668,1.262l-1.336,4.584c-.153-.023-.693-.04-.849-.05s.072-.011-.09-.011-.327,0-.485.011-.312.027-.476.05" transform="translate(-36.822 -0.593)"/>
        <path id="path11161" class="cls-1" d="M85.236,29.284v.178a.785.785,0,0,0,.035.255c.055.215.236.323.544.323a.986.986,0,0,0,.312-.046.471.471,0,0,0,.115-.838,3.044,3.044,0,0,0-.347-.184l-.406-.178a2.346,2.346,0,0,1-.4-.213.74.74,0,0,1-.336-.652.693.693,0,0,1,.376-.66,1.659,1.659,0,0,1,.759-.151,1.323,1.323,0,0,1,.849.216.874.874,0,0,1,.207.683v.063h-.557V28l-.011-.165q-.051-.372-.5-.363-.563,0-.569.438a.522.522,0,0,0,.352.454c.147.075.311.147.494.223a3.3,3.3,0,0,1,.449.212.783.783,0,0,1,.4.72c-.006.581-.4.874-1.192.874a1.469,1.469,0,0,1-.781-.163.694.694,0,0,1-.347-.567l-.008-.256v-.128Z" transform="translate(-26.353 -9.525)"/>
        <path id="path11165" class="cls-1" d="M88.574,28.192a1.747,1.747,0,0,1,.075-.576.718.718,0,0,1,.493-.41,1.87,1.87,0,0,1,.591-.09,1.893,1.893,0,0,1,.591.09.721.721,0,0,1,.489.41,1.758,1.758,0,0,1,.078.576v1.069a3.237,3.237,0,0,1-.033.5c-.062.421-.431.635-1.108.636a1.264,1.264,0,0,1-.987-.3,1.321,1.321,0,0,1-.188-.839Zm.558,1.065a1.5,1.5,0,0,0,.06.522.414.414,0,0,0,.214.191.82.82,0,0,0,.327.069.721.721,0,0,0,.291-.059.416.416,0,0,0,.292-.366c.009-.1.014-.218.016-.358V28.189a1,1,0,0,0-.08-.489.546.546,0,0,0-.519-.225.8.8,0,0,0-.282.047.416.416,0,0,0-.305.371,2.007,2.007,0,0,0-.014.3Z" transform="translate(-27.55 -9.525)"/>
        <path id="path11169" class="cls-1" d="M92.643,27.184H93.2v2.129l.006.281q.029.465.557.468c.352,0,.545-.145.578-.438a2.868,2.868,0,0,0,.021-.31V27.184h.557v2.163c0,.177-.008.314-.019.411a.582.582,0,0,1-.186.372,1.679,1.679,0,0,1-1.875.005.6.6,0,0,1-.182-.377c-.009-.086-.014-.222-.014-.411Z" transform="translate(-28.799 -9.547)"/>
        <path id="path11173" class="cls-1" d="M97.611,27.184h.333a2.273,2.273,0,0,1,.354.029.69.69,0,0,1,.626.766.788.788,0,0,1-.163.536,1.029,1.029,0,0,1-.614.236v0a1.4,1.4,0,0,1,.408.083.394.394,0,0,1,.223.277,1.707,1.707,0,0,1,.036.3l.024.375a1.83,1.83,0,0,0,.046.337,1.671,1.671,0,0,0,.083.256h-.581l-.056-.2a1.028,1.028,0,0,1-.03-.22l-.022-.286-.019-.3a.424.424,0,0,0-.34-.411,1.513,1.513,0,0,0-.291-.026h-.385v1.446h-.559V27.184Zm-.369.36v1.023h.4a2.158,2.158,0,0,0,.309-.02.468.468,0,0,0,.354-.2.726.726,0,0,0,.063-.353.384.384,0,0,0-.187-.369,1.122,1.122,0,0,0-.507-.081Z" transform="translate(-30.04 -9.547)"/>
        <path id="path11177" class="cls-1" d="M102.22,28l0-.148c-.014-.255-.169-.382-.469-.38-.266,0-.439.068-.519.2a.4.4,0,0,0-.073.2l0,.262v1.259a.949.949,0,0,0,.067.44.533.533,0,0,0,.478.207.444.444,0,0,0,.5-.408l.023-.205v-.11h.557v.111l0,.2a.756.756,0,0,1-.252.548.785.785,0,0,1-.324.163,1.851,1.851,0,0,1-.483.059,2.014,2.014,0,0,1-.428-.038.8.8,0,0,1-.693-.894V28.194a2.188,2.188,0,0,1,.027-.386.706.706,0,0,1,.15-.363,1.2,1.2,0,0,1,.955-.329q.964.005,1.039.593a2.124,2.124,0,0,1,.014.252v.124h-.557Z" transform="translate(-31.241 -9.525)"/>
        <path id="path11181" class="cls-1" d="M104.446,27.184h1.823v.36H105v1.011h1.188v.359H105v1.1h1.3v.36h-1.859Z" transform="translate(-32.424 -9.547)"/>
        <path id="path11193" class="cls-1" d="M109.212,28.192a1.661,1.661,0,0,1,.074-.576.712.712,0,0,1,.492-.41,1.87,1.87,0,0,1,.591-.09,1.91,1.91,0,0,1,.593.09.728.728,0,0,1,.489.41,1.762,1.762,0,0,1,.077.576v1.069a3.551,3.551,0,0,1-.031.5c-.066.421-.433.635-1.111.636a1.26,1.26,0,0,1-.987-.3,1.322,1.322,0,0,1-.187-.839Zm.557,1.065a1.489,1.489,0,0,0,.062.522.407.407,0,0,0,.214.191.811.811,0,0,0,.325.069.731.731,0,0,0,.293-.059.417.417,0,0,0,.289-.366c.01-.1.016-.218.017-.358V28.189a1,1,0,0,0-.079-.489.549.549,0,0,0-.52-.225.788.788,0,0,0-.281.047.412.412,0,0,0-.3.371,1.738,1.738,0,0,0-.016.3Z" transform="translate(-33.888 -9.525)"/>
        <path id="path11197" class="cls-1" d="M115.062,27.184v.36h-1.219v1.008h1.173v.358h-1.173v1.463h-.559V27.184Z" transform="translate(-35.139 -9.547)"/>
        <path id="path11209" class="cls-1" d="M118.277,29.284v.178a.717.717,0,0,0,.033.255c.055.215.237.323.542.323a1,1,0,0,0,.313-.046.471.471,0,0,0,.116-.838,3.01,3.01,0,0,0-.349-.184l-.406-.178a2.5,2.5,0,0,1-.4-.213.745.745,0,0,1-.334-.652.7.7,0,0,1,.377-.66,1.65,1.65,0,0,1,.757-.151,1.334,1.334,0,0,1,.851.216.874.874,0,0,1,.205.683v.063h-.557V28l-.011-.165q-.052-.372-.5-.363c-.377,0-.564.146-.569.438a.522.522,0,0,0,.353.454c.146.075.311.147.494.223a3.454,3.454,0,0,1,.451.212.786.786,0,0,1,.4.72c-.006.581-.4.874-1.192.874a1.461,1.461,0,0,1-.781-.163.685.685,0,0,1-.347-.567l-.01-.256v-.128Z" transform="translate(-36.51 -9.525)"/>
        <path id="path11213" class="cls-1" d="M121.644,27.184h.556v2.129l0,.281c.019.31.207.466.557.468s.545-.145.58-.438c.011-.1.017-.205.019-.31V27.184h.558v2.163a3.638,3.638,0,0,1-.021.411.569.569,0,0,1-.183.372,1.684,1.684,0,0,1-1.878.005.608.608,0,0,1-.18-.377c-.008-.086-.012-.222-.012-.411Z" transform="translate(-37.714 -9.547)"/>
        <path id="path11217" class="cls-1" d="M127.338,28l0-.148c-.013-.255-.171-.382-.471-.38a.567.567,0,0,0-.519.2.415.415,0,0,0-.073.2l0,.262v1.259a.929.929,0,0,0,.07.44.527.527,0,0,0,.476.207.446.446,0,0,0,.5-.408l.022-.205v-.11h.557v.111l-.006.2a.75.75,0,0,1-.252.548.789.789,0,0,1-.324.163,1.86,1.86,0,0,1-.482.059,2,2,0,0,1-.428-.038.8.8,0,0,1-.691-.894V28.194a2.132,2.132,0,0,1,.025-.386.677.677,0,0,1,.149-.363,1.2,1.2,0,0,1,.957-.329q.965.005,1.038.593a2.284,2.284,0,0,1,.014.252v.124h-.557Z" transform="translate(-38.962 -9.525)"/>
        <path id="path11221" class="cls-1" d="M131.22,28l0-.148c-.014-.255-.168-.382-.47-.38a.566.566,0,0,0-.519.2.373.373,0,0,0-.071.2l-.006.262v1.259a.953.953,0,0,0,.069.44.532.532,0,0,0,.477.207.443.443,0,0,0,.5-.408l.023-.205v-.11h.557v.111l0,.2a.763.763,0,0,1-.252.548.786.786,0,0,1-.326.163,1.843,1.843,0,0,1-.483.059,2,2,0,0,1-.427-.038.8.8,0,0,1-.692-.894V28.194a2.067,2.067,0,0,1,.026-.386.693.693,0,0,1,.148-.363,1.2,1.2,0,0,1,.957-.329q.965.005,1.038.593a1.99,1.99,0,0,1,.014.252v.124h-.557Z" transform="translate(-40.152 -9.525)"/>
        <path id="path11225" class="cls-1" d="M133.444,27.184h1.823v.36H134v1.011h1.187v.359H134v1.1h1.3v.36h-1.859Z" transform="translate(-41.333 -9.547)"/>
        <path id="path11237" class="cls-1" d="M137.06,29.284v.178a.766.766,0,0,0,.035.255q.083.323.542.323a1,1,0,0,0,.313-.046.47.47,0,0,0,.115-.838,3.056,3.056,0,0,0-.348-.184l-.4-.178a2.379,2.379,0,0,1-.4-.213.744.744,0,0,1-.335-.652.691.691,0,0,1,.376-.66,1.647,1.647,0,0,1,.758-.151,1.336,1.336,0,0,1,.851.216.879.879,0,0,1,.205.683v.063h-.557V28l-.011-.165q-.052-.372-.5-.363c-.374,0-.565.146-.569.438a.522.522,0,0,0,.351.454c.146.075.312.147.5.223a3.514,3.514,0,0,1,.449.212.787.787,0,0,1,.4.72c-.007.581-.4.874-1.193.874a1.46,1.46,0,0,1-.781-.163.683.683,0,0,1-.347-.567l-.01-.256v-.128Z" transform="translate(-42.272 -9.525)"/>
        <path id="path11241" class="cls-1" d="M140.788,29.284v.178a.767.767,0,0,0,.033.255c.055.215.237.323.542.323a.98.98,0,0,0,.312-.046.47.47,0,0,0,.116-.838,3.01,3.01,0,0,0-.349-.184l-.4-.178a2.407,2.407,0,0,1-.4-.213.741.741,0,0,1-.336-.652.7.7,0,0,1,.376-.66,1.651,1.651,0,0,1,.759-.151,1.326,1.326,0,0,1,.849.216.876.876,0,0,1,.208.683v.063h-.557V28l-.013-.165c-.033-.248-.2-.369-.5-.363-.373,0-.564.146-.567.438,0,.186.116.337.353.454.144.075.31.147.493.223a3.315,3.315,0,0,1,.448.212.784.784,0,0,1,.4.72c-.006.581-.4.874-1.191.874a1.466,1.466,0,0,1-.781-.163.683.683,0,0,1-.347-.567l-.01-.256v-.128Z" transform="translate(-43.414 -9.525)"/>
      </g>
    </g>
    <rect id="矩形_8387" data-name="矩形 8387" class="cls-2" width="110" height="36" transform="translate(380 1139)"/>
  </g>
</svg>
