<svg xmlns="http://www.w3.org/2000/svg" width="110" height="36" viewBox="0 0 110 36">
  <defs>
    <style>
      .cls-1 {
        fill: #fff;
      }

      .cls-2 {
        fill: none;
      }
    </style>
  </defs>
  <g id="组_7094" data-name="组 7094" transform="translate(-1024 -1096)">
    <path id="联合_181" data-name="联合 181" class="cls-1" d="M19171.811,8478.364a2.856,2.856,0,0,1-.461-1.719,3.129,3.129,0,0,1,.457-1.811,1.576,1.576,0,0,1,1.406-.669,1.5,1.5,0,0,1,1.578,1.42l-.736.174a1.383,1.383,0,0,0-.346-.775.783.783,0,0,0-.516-.178c-.66,0-.986.592-.986,1.771s.336,1.786,1.01,1.786c.559,0,.838-.409.838-1.223h-.881v-.616h1.643v2.421h-.434l-.111-.587a1.262,1.262,0,0,1-1.18.64A1.5,1.5,0,0,1,19171.811,8478.364Zm-18.986,0a2.843,2.843,0,0,1-.467-1.719,3.174,3.174,0,0,1,.457-1.811,1.589,1.589,0,0,1,1.406-.669,1.5,1.5,0,0,1,1.578,1.42l-.73.174a1.424,1.424,0,0,0-.348-.775.786.786,0,0,0-.52-.178q-.981,0-.982,1.771c0,1.188.338,1.786,1.006,1.786.559,0,.838-.409.838-1.223h-.875v-.616h1.641v2.421h-.434l-.109-.587a1.258,1.258,0,0,1-1.18.64A1.5,1.5,0,0,1,19152.824,8478.364Zm16.869.544-1.811-3.722v3.722h-.684v-4.65h.959l1.611,3.355v-3.355h.68v4.65Zm-4.035,0v-4.65h.814v4.65Zm-1.742,0v-3.967l-1.164,3.967h-.594l-1.141-3.972v3.972h-.678v-4.65h1.2l.977,3.355,1.006-3.355h1.15v4.65Zm-4.824,0-.3-1.165h-1.439l-.3,1.165h-.775l1.42-4.65h.91l1.314,4.65Zm-1.584-1.771h1.117l-.559-2.128Zm-7.977,1.771-.76-1.94h-.766v1.94h-.809v-4.65h1.473a1.748,1.748,0,0,1,1.184.342,1.266,1.266,0,0,1,.381.991,1.247,1.247,0,0,1-.752,1.218l.93,2.1Zm-1.525-2.537h.625a.793.793,0,0,0,.611-.217.833.833,0,0,0,.2-.573c0-.486-.27-.727-.8-.727h-.631Zm-4.193,2.537v-4.65h2.811v.616h-2v1.328h1.568v.621h-1.568v1.459h2.031v.626Zm-2.268,0v-4h-1.979v4h-.814v-4h-1.088v-.038h-1.844v1.328h1.564v.621h-1.564v1.459h2.031v.626h-2.84v-4.65h8.439v.654h-1.1v4Zm-10.693,0v-4.65h1.482a3.229,3.229,0,0,1,.857.086.86.86,0,0,1,.486.381,1.226,1.226,0,0,1,.207.717.985.985,0,0,1-.732,1.017,1.123,1.123,0,0,1,.883,1.169,1.3,1.3,0,0,1-.348.9,1.768,1.768,0,0,1-1.328.381Zm.795-.616h.654c.6,0,.9-.251.9-.751a.793.793,0,0,0-.191-.525.992.992,0,0,0-.775-.235h-.588Zm0-2.1h.516a.984.984,0,0,0,.713-.187.711.711,0,0,0,.172-.491.588.588,0,0,0-.2-.5.988.988,0,0,0-.611-.149h-.592Zm45.787-1.131v-.7l-.178.7h-.174l-.172-.7v.7h-.17v-.891h.271l.158.606.158-.606h.27v.891Zm-1.381,0v-.741h-.266v-.149h.7v.149h-.26v.741Zm-22.4-1.786v-4.429h-.01v-13.413h.01V8451h.746v4.429h7.924v2.557h-6.113v2.494h5.42v2.556h-5.42v3.2h6.113v2.556h-6.113v.049h-1.811v4.429Zm23.436-4.429v-10.856h-3.129v-2.557h8.709v2.557h-3.014v10.856Zm-6.494,0h-.02l-4.742-8.651v8.651h-2.566v-13.331l-.043-.082h2.609v.067l4.762,8.69v-8.758h2.566v13.413Zm-23.721,0v-10.856h-3.086v-2.557h8.709v2.557h-3.057v10.856Zm-12.729,0v-.049h-.01v-2.556h.01v-3.2h-.01v-2.556h.01v-2.494h-.01v-2.557h8.709v2.557h-6.133v2.494h5.436v2.556h-5.436v3.2h6.133v2.556h-6.133v.049Zm-3.754,0h-.029l-4.795-8.738v8.738H19123v-13.413h2.58l4.811,8.781v-8.781h2.564v13.413Z" transform="translate(-18074 -7351)"/>
    <rect id="矩形_8375" data-name="矩形 8375" class="cls-2" width="110" height="36" transform="translate(1024 1096)"/>
  </g>
</svg>
