<svg xmlns="http://www.w3.org/2000/svg" width="110" height="36" viewBox="0 0 110 36">
  <defs>
    <style>
      .cls-1 {
        fill: #fff;
      }

      .cls-2 {
        fill: none;
      }
    </style>
  </defs>
  <g id="组_7092" data-name="组 7092" transform="translate(-380 -1139)">
    <g id="组_6925" data-name="组 6925" transform="translate(1119.277 860.544)">
      <path id="联合_182" data-name="联合 182" class="cls-1" d="M18192.725,6284.885l3.5-19.691,16.166-.048.463-2.688c.023.045,2.92.068,8.617.068,4.271,0,8.984-.014,11.414-.023h.178l-3.621,19.7h-19.35l-.012.06,2.7,2.617v0Zm1.617-2.759h2.723l3.512-4.68h7.1l1.807,4.57.84-4.874-4.3-10.619Zm19.844-10.835a7.221,7.221,0,0,0,.494,6.224,5.984,5.984,0,0,0,4.8,2.59c.2.019.406.028.631.028a8.52,8.52,0,0,0,5.721-2.379,10.873,10.873,0,0,0,1.967-2.379l.262-2.4-6.721-.028-.49,2.379h4.264l-.006,0a7.284,7.284,0,0,1-4.568,2.4,5.236,5.236,0,0,1-.588.032,3.526,3.526,0,0,1-2.869-1.32,5.211,5.211,0,0,1-.994-3.108,5.567,5.567,0,0,1,1.654-3.717,6.2,6.2,0,0,1,3.961-2.021c.137-.009.27-.014.408-.014a4.2,4.2,0,0,1,3.125,1.247,3.9,3.9,0,0,1,.807,1.247h2.713a6.325,6.325,0,0,0-6.174-4.8h-.211A9.19,9.19,0,0,0,18214.186,6271.29Zm44.162,12.462a.924.924,0,0,1-.174-.962c.014-.037.027-.083.045-.138l1.266.161a.341.341,0,0,0,.061.312.694.694,0,0,0,.48.124,1.584,1.584,0,0,0,.715-.133.834.834,0,0,0,.316-.293,2.1,2.1,0,0,0,.215-.527l.193-.637a2.177,2.177,0,0,1-1.518.706,1.123,1.123,0,0,1-1.164-.743,2.257,2.257,0,0,1,.037-1.458,3.336,3.336,0,0,1,1.031-1.673,2.3,2.3,0,0,1,1.484-.578,1.125,1.125,0,0,1,1.119.71l.184-.609h1.076l-1.178,3.905a4.915,4.915,0,0,1-.477,1.15,2.155,2.155,0,0,1-.537.6,2.357,2.357,0,0,1-.715.339,3.578,3.578,0,0,1-1.008.124A2.008,2.008,0,0,1,18258.348,6283.752Zm2.236-4.634a2.063,2.063,0,0,0-.562.981,1.378,1.378,0,0,0-.037,1.013.582.582,0,0,0,.563.321,1.251,1.251,0,0,0,.813-.33,2,2,0,0,0,.586-.977,1.34,1.34,0,0,0,.023-1,.632.632,0,0,0-.605-.33A1.165,1.165,0,0,0,18260.584,6279.119Zm-27,2.952a1.67,1.67,0,0,1-.715-1.132,3.5,3.5,0,0,1,.133-1.6,4.651,4.651,0,0,1,.895-1.668,4.143,4.143,0,0,1,1.494-1.119,3.729,3.729,0,0,1,1.525-.3,2.278,2.278,0,0,1,1.609.467,1.528,1.528,0,0,1,.418,1.3l-1.275.229a.881.881,0,0,0-.266-.7,1.135,1.135,0,0,0-.8-.257,2.188,2.188,0,0,0-1.416.5,2.914,2.914,0,0,0-.922,1.5,2.052,2.052,0,0,0-.01,1.6,1.153,1.153,0,0,0,1.082.532,2.522,2.522,0,0,0,.811-.146,3.55,3.55,0,0,0,.771-.367l.229-.761h-1.389l.3-1.013h2.617l-.725,2.4a5.4,5.4,0,0,1-2.852.931A2.631,2.631,0,0,1,18233.582,6282.07Zm5.4.028a.991.991,0,0,1-.111-.921,1.713,1.713,0,0,1,.377-.66,1.731,1.731,0,0,1,.627-.44,4.858,4.858,0,0,1,1-.271,7.749,7.749,0,0,0,1.2-.28l.037-.119a.492.492,0,0,0-.023-.472c-.078-.1-.271-.142-.572-.142a1,1,0,0,0-.52.124,1.283,1.283,0,0,0-.406.422l-.986-.188a2.489,2.489,0,0,1,.885-.935,2.727,2.727,0,0,1,1.375-.3,2.321,2.321,0,0,1,1.09.184.731.731,0,0,1,.391.463,2.331,2.331,0,0,1-.156,1.031l-.416,1.343a5.315,5.315,0,0,0-.2.848,2,2,0,0,0,.033.582h-1.143c0-.078-.008-.188,0-.339v-.133a3.126,3.126,0,0,1-.766.426,2.115,2.115,0,0,1-.76.147A1.129,1.129,0,0,1,18238.982,6282.1Zm2.117-1.646a2.762,2.762,0,0,0-.687.2.737.737,0,0,0-.354.408.441.441,0,0,0,.463.6,1.285,1.285,0,0,0,.656-.206,1.134,1.134,0,0,0,.389-.38,2.878,2.878,0,0,0,.217-.564l.068-.229C18241.686,6280.324,18241.439,6280.384,18241.1,6280.453Zm14.992,1.911.67-2.223a3.436,3.436,0,0,0,.2-.907.434.434,0,0,0-.141-.326.548.548,0,0,0-.363-.115,1.149,1.149,0,0,0-.586.165,1.31,1.31,0,0,0-.459.436,4.479,4.479,0,0,0-.389,1l-.6,1.971h-1.152l1.313-4.35h1.072l-.2.637a2.441,2.441,0,0,1,1.658-.738,1.441,1.441,0,0,1,.656.138.734.734,0,0,1,.371.353.968.968,0,0,1,.078.481,3.414,3.414,0,0,1-.17.775l-.816,2.7Zm-5.137,0,1.311-4.35h1.15l-1.311,4.35Zm-2.3,0,.746-2.489a1.786,1.786,0,0,0,.137-.834.388.388,0,0,0-.416-.248,1.008,1.008,0,0,0-.5.147,1.245,1.245,0,0,0-.439.436,3.857,3.857,0,0,0-.367.9l-.627,2.09h-1.156l.721-2.383a3.608,3.608,0,0,0,.188-.821.361.361,0,0,0-.105-.275.494.494,0,0,0-.326-.092,1.1,1.1,0,0,0-.521.142,1.292,1.292,0,0,0-.432.417,3.72,3.72,0,0,0-.361.9l-.643,2.113h-1.15l1.316-4.35h1.063l-.184.591a2.369,2.369,0,0,1,1.568-.692,1.151,1.151,0,0,1,.674.174.848.848,0,0,1,.344.518,3.084,3.084,0,0,1,.779-.518,1.778,1.778,0,0,1,.76-.174,1.274,1.274,0,0,1,.752.192.813.813,0,0,1,.326.573,2.435,2.435,0,0,1-.156.9l-.838,2.782Zm3.789-4.941.322-1.068h1.154l-.326,1.068Zm-4.908-2.246a.941.941,0,0,1-.051-.912,1.68,1.68,0,0,1,.408-.651,1.838,1.838,0,0,1,.646-.44,5.328,5.328,0,0,1,1-.266,7.9,7.9,0,0,0,1.205-.279l.041-.115c.082-.22.082-.376.01-.467s-.262-.142-.564-.142a1.078,1.078,0,0,0-.518.119,1.413,1.413,0,0,0-.426.421l-.967-.188a2.632,2.632,0,0,1,.934-.921,2.768,2.768,0,0,1,1.375-.3,2.266,2.266,0,0,1,1.068.179.686.686,0,0,1,.363.458,2.363,2.363,0,0,1-.217,1.022l-.49,1.334a5.128,5.128,0,0,0-.252.834,2.073,2.073,0,0,0,0,.582h-1.127a3.116,3.116,0,0,1,.008-.339c.006-.064.01-.11.01-.133a3.472,3.472,0,0,1-.779.426,2.139,2.139,0,0,1-.76.142A1.048,1.048,0,0,1,18247.535,6275.177Zm2.191-1.632a2.7,2.7,0,0,0-.693.2.78.78,0,0,0-.371.4.444.444,0,0,0,.033.413.424.424,0,0,0,.389.174,1.3,1.3,0,0,0,.66-.2,1.16,1.16,0,0,0,.412-.375,2.893,2.893,0,0,0,.244-.56l.082-.225C18250.322,6273.421,18250.064,6273.476,18249.727,6273.545Zm-8.939,1.636a1.1,1.1,0,0,1-.32-.972l1.205-.174a.6.6,0,0,0,.115.509.749.749,0,0,0,.564.169,1.466,1.466,0,0,0,.723-.161.578.578,0,0,0,.262-.307.271.271,0,0,0,0-.215.647.647,0,0,0-.33-.146,4.388,4.388,0,0,1-1.545-.559.815.815,0,0,1-.164-.967,1.926,1.926,0,0,1,.783-.944,2.713,2.713,0,0,1,1.508-.38,1.89,1.89,0,0,1,1.215.289.984.984,0,0,1,.283.853l-1.145.2a.439.439,0,0,0-.129-.385.736.736,0,0,0-.5-.133,1.526,1.526,0,0,0-.687.124.422.422,0,0,0-.215.233.18.18,0,0,0,.041.207,3.1,3.1,0,0,0,.949.321,2.091,2.091,0,0,1,1.086.509.828.828,0,0,1,.055.848,2.1,2.1,0,0,1-.861,1.018,2.91,2.91,0,0,1-1.623.426A1.835,1.835,0,0,1,18240.787,6275.181Zm4.264.261,1.555-4.313h1.141l-1.559,4.313Zm-6.564,0-.031-1.352h-2.379l-.977,1.352h-1.273l4.463-5.954h1.271l.232,5.954Zm-1.678-2.356h1.623l-.023-2.209Zm-34.5,2.031,2.842-3.878,1.6,3.878Zm44.506-4.57.381-1.059h1.137l-.375,1.059Z" transform="translate(-18912.496 -5976.86)"/>
      <path id="路径_102" data-name="路径 102" class="cls-1" d="M-572.075,461.046l.491-2.739h-3.747Z" transform="translate(-127.668 -152.97)"/>
    </g>
    <rect id="矩形_8391" data-name="矩形 8391" class="cls-2" width="110" height="36" transform="translate(380 1139)"/>
  </g>
</svg>
