<svg xmlns="http://www.w3.org/2000/svg" width="110" height="36" viewBox="0 0 110 36">
  <defs>
    <style>
      .cls-1 {
        fill: #fff;
      }

      .cls-2 {
        fill: none;
      }
    </style>
  </defs>
  <g id="组_7090" data-name="组 7090" transform="translate(-380 -1139)">
    <path id="联合_180" data-name="联合 180" class="cls-1" d="M19696.123,7137l1.025-5.647h-2.023l.471-2.606h2.027l.479-2.63,3.754-.994-.658,3.625h2.8l-.475,2.606h-2.8l-.914,5.039q-.349,1.913,1.211,1.914a3,3,0,0,0,1.311-.346l-.475,2.611a5.978,5.978,0,0,1-2.537.43Q19695.4,7141,19696.123,7137Zm-13.672,2.389a5.287,5.287,0,0,1-.816-4.49,7.8,7.8,0,0,1,2.582-4.653,6.938,6.938,0,0,1,4.688-1.79,4.536,4.536,0,0,1,3.813,1.538,5.173,5.173,0,0,1,.707,4.238l-.271,1.483h-8.1c-.213,1.85.771,2.779,2.941,2.779a7.6,7.6,0,0,0,3.773-.974l-.465,2.562a10.207,10.207,0,0,1-4.574.919A5.262,5.262,0,0,1,19682.451,7139.387Zm4.229-7.809a4.235,4.235,0,0,0-1.242,1.949h4.762q.483-2.685-1.75-2.685A2.672,2.672,0,0,0,19686.68,7131.578Zm-16.646,7.69h-.043l-.264,1.439h-3.594l3.213-17.708h3.6l-1.375,7.571h.045a5.587,5.587,0,0,1,4.416-2.116,3.711,3.711,0,0,1,3.357,1.578,5.921,5.921,0,0,1,.529,4.361,8.708,8.708,0,0,1-2.383,4.792,6,6,0,0,1-4.348,1.814A3.2,3.2,0,0,1,19670.033,7139.268Zm2-7.259a3.911,3.911,0,0,0-1.191,2.25l-.232,1.281a2.484,2.484,0,0,0,.359,1.978,1.963,1.963,0,0,0,1.7.8,2.986,2.986,0,0,0,2.279-1.019,5.661,5.661,0,0,0,1.275-2.878,3.484,3.484,0,0,0-.246-2.418,1.932,1.932,0,0,0-1.795-.87A3.059,3.059,0,0,0,19672.037,7132.009Zm-12.705,8.7,3.215-17.708h3.586l-3.215,17.708Zm-6.744,0L19655.8,7123h3.586l-3.215,17.708Zm-5.775,0-.594-3.842h-6.271l-1.963,3.842H19634l9.35-16.754h4.318l3.15,16.754Zm-2.527-12.452-3.031,5.855h4.594l-.9-5.811a5.8,5.8,0,0,1,0-1.459h-.1A7.464,7.464,0,0,1,19644.285,7128.255Z" transform="translate(-19234 -5975)"/>
    <rect id="矩形_8390" data-name="矩形 8390" class="cls-2" width="110" height="36" transform="translate(380 1139)"/>
  </g>
</svg>
