<svg xmlns="http://www.w3.org/2000/svg" width="26" height="26" viewBox="0 0 26 26">
    <g data-name="Group 6769">
        <g data-name="Group 1045">
            <path data-name="Union 171" d="M17052.752-126.946v-4.641a3.084 3.084 0 0 1 2.09-2.927l2.182-.728a4.334 4.334 0 0 1-1.414-1.118l-.416-.471.391-.523a7.629 7.629 0 0 0 .887-4.105 16.866 16.866 0 0 1 .295-3.008c.854-4.5 3.27-6.968 6.8-6.968a6.232 6.232 0 0 1 5.863 3.938 15.472 15.472 0 0 1 1.242 6.038 7.508 7.508 0 0 0 .922 4.127l.381.5-.42.48a4.386 4.386 0 0 1-1.428 1.118l2.17.724a3.087 3.087 0 0 1 2.094 2.927v4.641zm2.588-6.076a1.514 1.514 0 0 0-1.029 1.436v3.068h18.525l.018-3.077a1.508 1.508 0 0 0-1.029-1.431l-4.207-1.414-.014.009a.453.453 0 0 1-.029.047.268.268 0 0 0-.035.051 2 2 0 0 1-.125.18 4.833 4.833 0 0 1-1.426 1.337h-.01l-.209.111a2.081 2.081 0 0 1-.27.141l-.172.077-.115.047-.3.107h-.051c-.055.017-.111.03-.168.043l-.162.039c-.064.017-.129.03-.193.043v2.824h-1.562v-2.82c-.07-.009-.139-.026-.207-.039a1.958 1.958 0 0 1-.2-.051 1.357 1.357 0 0 1-.176-.051l-.08-.026c-.078-.026-.16-.051-.232-.081l-.115-.047-.164-.077-.209-.1-.24-.137a4.97 4.97 0 0 1-1.238-1.076c-.072-.094-.162-.219-.2-.257s-.051-.077-.072-.111c-.014-.017-.021-.034-.035-.051-.025-.039-.055-.077-.08-.12zm6.072-2.323-.025.017a4.745 4.745 0 0 1-.412.193c-.025.009-.047.021-.072.03a3.257 3.257 0 0 0 .3.386 1.469 1.469 0 0 0 .146.154l.018.017a1.317 1.317 0 0 0 .137.129l.154.124c.082.06.168.12.252.171l.117.069.09.051c.021.013.047.021.072.034l.061.03a1.9 1.9 0 0 0 .23.094l.025.009c.053.021.1.039.154.056a.38.38 0 0 1 .086.03l.061.017h.076l.043.009a2.82 2.82 0 0 0 1.227 0l.043-.009h.047c.055-.013.115-.03.172-.047s.107-.034.158-.056h.018a2.141 2.141 0 0 0 .244-.1l.137-.069a1.388 1.388 0 0 0 .133-.077l.025-.013c.057-.034.111-.069.162-.1h.006l.162-.12.057-.047a.667.667 0 0 0 .1-.086l.027-.021c.037-.034.076-.073.115-.111s.09-.094.119-.129a3.083 3.083 0 0 0 .3-.394c-.076-.03-.154-.06-.227-.094l-.133-.064-.232-.124a1.571 1.571 0 0 1-.137-.081 2.218 2.218 0 0 1-.227-.159h-.008l-.1-.086-.072-.064c-.021-.021-.043-.047-.064-.069a4.434 4.434 0 0 1-1.439.24 4.422 4.422 0 0 1-1.443-.24.116.116 0 0 1-.021.017l-.049.043-.141.116-.057.047-.217.15h-.006c-.051.028-.12.08-.192.127zm5.879-10.914a2.55 2.55 0 0 0 .814 1.063l.176.129.086.21a7.021 7.021 0 0 1 .414 1.5l.01.043v.039a7.629 7.629 0 0 1-.133 3.047l-.025.1-.1.36a8.71 8.71 0 0 1-.291.771c-.074.159-.15.313-.232.467a6.143 6.143 0 0 1-.7 1.02 5.578 5.578 0 0 1-.771.767 1.972 1.972 0 0 0 .2.094 2.211 2.211 0 0 0 .234.086l.049.017a.518.518 0 0 1 .072.03.408.408 0 0 1 .047.017h.035l.184.047.176.039a.638.638 0 0 0 .2.03h.057a2.78 2.78 0 0 0 .381.026 2.849 2.849 0 0 0 1.8-.647 10.392 10.392 0 0 1-.861-4.461 13.835 13.835 0 0 0-1.1-5.369 4.669 4.669 0 0 0-4.449-3.038c-3.465 0-4.777 3.094-5.266 5.691a14.779 14.779 0 0 0-.266 2.717 10.175 10.175 0 0 1-.865 4.457 2.886 2.886 0 0 0 1.795.634 3 3 0 0 0 .395-.03 4.23 4.23 0 0 0 .295-.043l.15-.03.115-.026.229-.069c.09-.03.176-.06.248-.09l.2-.094a5.887 5.887 0 0 1-.771-.763 6.17 6.17 0 0 1-.689-1.028 5.726 5.726 0 0 1-.24-.476l-.035-.081a7.787 7.787 0 0 1-.324-.93l-.047-.176a7.635 7.635 0 0 1-.229-1.885 7.553 7.553 0 0 1 .416-2.464l.176-.518h.541a19.187 19.187 0 0 0 2.836-.33 18.089 18.089 0 0 0 4.02-1.264l.725-.326zm-4.773 2.408a19.784 19.784 0 0 1-2.512.33 6.053 6.053 0 0 0-.158 1.44 6.184 6.184 0 0 0 .158 1.483l.039.146a6.035 6.035 0 0 0 .277.784l.035.064c.043.094.09.193.15.309a5.519 5.519 0 0 0 .527.776 3.708 3.708 0 0 0 1.217.977 2.977 2.977 0 0 0 1.314.309 2.974 2.974 0 0 0 1.3-.3l.086-.043a3.836 3.836 0 0 0 1.178-.934 5.19 5.19 0 0 0 .52-.763l.18-.381a5.492 5.492 0 0 0 .291-.814l.025-.12a6 6 0 0 0 .1-2.473v-.077a6.035 6.035 0 0 0-.244-.934 4.176 4.176 0 0 1-.764-.866 19.7 19.7 0 0 1-3.719 1.087z" transform="translate(-17050.573 152.192)" style="fill:#23acf0"/>
        </g>
        <path data-name="Rectangle 8177" style="fill:none" d="M0 0h26v26H0z"/>
    </g>
</svg>
