<svg xmlns="http://www.w3.org/2000/svg" width="26" height="26" viewBox="0 0 26 26">
    <defs>
        <style>
            .cls-1{fill:#f09f23}
        </style>
    </defs>
    <g id="Group_6768" data-name="Group 6768" transform="translate(-395 -650.248)">
        <g id="Group_6742" data-name="Group 6742" transform="translate(396.199 651.622)">
            <g id="Group_1061" data-name="Group 1061">
                <path id="Subtraction_26" data-name="Subtraction 26" class="cls-1" d="M4.647 9.938A4.987 4.987 0 0 1 0 4.973V1.658A1.662 1.662 0 0 1 1.661 0h2.986v1.658H1.661v3.315a3.3 3.3 0 0 0 2.986 3.3v1.664z" transform="translate(0 1.66)"/>
                <path id="Subtraction_25" data-name="Subtraction 25" class="cls-1" d="M0 9.94V8.274a3.306 3.306 0 0 0 2.986-3.3V1.658H0V0h2.986a1.659 1.659 0 0 1 1.656 1.658v3.315A4.988 4.988 0 0 1 0 9.94z" transform="translate(18.96 1.66)"/>
                <path id="矩形_877_-_轮廓" data-name="矩形 877 - 轮廓" class="cls-1" d="M2.121 1.973v7.89a6.16 6.16 0 0 0 6.363 5.918 6.16 6.16 0 0 0 6.363-5.918v-7.89H2.121m0-1.973h12.726a2.051 2.051 0 0 1 2.121 1.973v7.89c0 4.358-3.8 7.891-8.484 7.891S0 14.221 0 9.863v-7.89A2.051 2.051 0 0 1 2.121 0z" transform="translate(3.319)"/>
                <path id="Rectangle_882" data-name="Rectangle 882" class="cls-1" transform="translate(10.975 17.754)" d="M0 0h1.658v4.975H0z"/>
                <path id="Rectangle_883" data-name="Rectangle 883" class="cls-1" transform="translate(6.913 21.899)" d="M0 0h9.783v1.66H0z"/>
                <path id="Polygon_2" data-name="Polygon 2" class="cls-1" d="m3.69 0 1.254 2.264 2.435.555L5.72 4.773l.25 2.607-2.28-1.056L1.409 7.38l.251-2.607L0 2.819l2.435-.555z" transform="translate(8.112 4.218)"/>
            </g>
        </g>
        <path id="Rectangle_8176" data-name="Rectangle 8176" transform="translate(395 650.248)" style="fill:none" d="M0 0h26v26H0z"/>
    </g>
</svg>
