<svg xmlns="http://www.w3.org/2000/svg" width="18.459" height="22.561" viewBox="0 0 18.459 22.561">
    <g data-name="组 8581">
        <path data-name="路径 13221" d="M604.512 42.667h-3.077l-4.1 5.127h3.076z" transform="translate(-586.053 -42.667)" style="fill:#ff4c4c"/>
        <path data-name="路径 13222" d="M476.512 42.667h-3.077l-4.1 5.127h3.076z" transform="translate(-461.129 -42.667)" style="fill:#3b8cff"/>
        <path data-name="路径 13223" d="M348.512 42.667h-3.076l-4.1 5.127h3.076z" transform="translate(-336.206 -42.667)" style="fill:#f1f1f1"/>
        <path data-name="路径 13224" d="M128 42.667h3.076l4.1 5.127H132.1z" transform="translate(-128 -42.667)" style="fill:#ff4c4c"/>
        <path data-name="路径 13225" d="M256 42.667h3.077l4.1 5.127H260.1z" transform="translate(-252.924 -42.667)" style="fill:#3b8cff"/>
        <path data-name="路径 13226" d="M384 42.667h3.076l4.1 5.127H388.1z" transform="translate(-377.847 -42.667)" style="fill:#fbfbfb"/>
        <path data-name="路径 13227" d="M298.667 256h10.255v5.128h-10.255z" transform="translate(-294.565 -250.873)" style="fill:#e3a815"/>
        <path data-name="路径 13228" d="M192 349.025a7.691 7.691 0 1 0 7.691-7.691 7.691 7.691 0 0 0-7.691 7.691z" transform="translate(-190.462 -334.155)" style="fill:#fddc3a"/>
        <path data-name="路径 13229" d="M256 411.486a6.153 6.153 0 1 0 6.153-6.153 6.153 6.153 0 0 0-6.153 6.153z" transform="translate(-252.924 -396.617)" style="fill:#e3a815"/>
        <path data-name="路径 13230" d="M298.666 453.128a5.128 5.128 0 1 0 5.128-5.128 5.128 5.128 0 0 0-5.127 5.128z" transform="translate(-294.565 -438.258)" style="fill:#f5cf41"/>
        <path data-name="路径 13231" d="M256.513 256h11.28a.513.513 0 0 1 0 1.026h-11.28a.513.513 0 0 1 0-1.026z" transform="translate(-252.924 -250.873)" style="fill:#d19a0e"/>
        <path data-name="路径 13232" d="M248.185 247.877a.308.308 0 0 0 0 .615h11.28a.308.308 0 1 0 0-.615zm0-.41h11.28a.718.718 0 1 1 0 1.436h-11.28a.718.718 0 0 1 0-1.436z" transform="translate(-244.595 -242.545)" style="fill:#f9d525"/>
        <path data-name="路径 13233" d="m353.6 496.82-2.411 1.268.46-2.685-1.951-1.9 2.7-.392 1.206-2.443 1.206 2.443 2.7.392-1.951 1.9.46 2.685z" transform="translate(-344.368 -479.899)" style="fill:#fff2a0"/>
    </g>
</svg>
