<svg xmlns="http://www.w3.org/2000/svg" width="567" height="350" viewBox="0 0 567 350">
    <defs>
        <clipPath id="6z7g70ty5a">
            <path data-name="矩形 10043" transform="translate(720 1230)" style="fill:#fff;stroke:#707070" d="M0 0h567v350H0z"/>
        </clipPath>
    </defs>
    <g data-name="蒙版组 2361" transform="translate(-720 -1230)" style="clip-path:url(#6z7g70ty5a)">
        <path data-name="路径 16136" d="M584.884 451.23c0 .15-119.7.26-267.325.26S50.2 451.38 50.2 451.23s119.675-.23 267.359-.23 267.325.09 267.325.23z" transform="translate(685.958 1075.63)" style="fill:#263238"/>
        <path data-name="路径 16137" d="M618.33 416.32c1.74 2.25 4.87 1.32 6.27-.18s1.91-3.58 2.38-5.58c1.06-4.55 2.13-9.32.94-13.84a7.76 7.76 0 0 0-1.95-3.66 4 4 0 0 0-3.85-1.06c-1.58.5-2.49 2.11-3.13 3.64a32.78 32.78 0 0 0-2.53 14.24 11.3 11.3 0 0 0 1.87 6.44" transform="translate(578.442 1075.63)" style="fill:#ff725e"/>
        <g data-name="组 8648" style="opacity:.2">
            <path data-name="路径 16138" d="M1196.772 1491.95c1.74 2.25 4.87 1.32 6.27-.18s1.91-3.58 2.38-5.58c1.06-4.55 2.13-9.32.94-13.84a7.76 7.76 0 0 0-1.95-3.66 4 4 0 0 0-3.85-1.06c-1.58.5-2.49 2.11-3.13 3.64a32.78 32.78 0 0 0-2.53 14.24 11.3 11.3 0 0 0 1.87 6.44"/>
        </g>
        <path data-name="路径 16139" d="M625 427.8a14.131 14.131 0 0 1 8.71-1.51 7.32 7.32 0 0 1 4.42 1.72c1.15 1.14 1.46 3.23.27 4.32a4.23 4.23 0 0 1-2.7.83c-2.32.09-4.91-.19-6.69 1.3-1 .84-1.65 2.2-2.89 2.66a3 3 0 0 1-3.36-1.3 5.11 5.11 0 0 1-.56-3.74 5.75 5.75 0 0 1 2.8-4.28z" transform="translate(578.442 1075.63)" style="fill:#ff725e"/>
        <path data-name="路径 16140" d="M614 419.89a8.49 8.49 0 0 0 .92-7.86 15.051 15.051 0 0 0-5-6.47 24.929 24.929 0 0 0-8.52-4.46 8.84 8.84 0 0 0-3.74-.44 3.9 3.9 0 0 0-3 2c-.79 1.71.15 3.68 1.14 5.27a62.736 62.736 0 0 0 5.84 8c1.74 2 3.71 4 6.23 4.81s5.1.58 6.33-1.2" transform="translate(578.442 1075.63)" style="fill:#ff725e"/>
        <path data-name="路径 16141" d="M620 451.44a5.083 5.083 0 0 0 .09-1.06c0-.78.09-1.75.14-2.91a39.006 39.006 0 0 1 .43-4.26 33.01 33.01 0 0 1 1.29-5.08 18.541 18.541 0 0 1 2.32-4.65 9.48 9.48 0 0 1 3.1-2.84 8.929 8.929 0 0 1 2.67-1 4.831 4.831 0 0 0 1-.2 4.57 4.57 0 0 0-1.07 0 8.11 8.11 0 0 0-2.79.88 9.4 9.4 0 0 0-3.27 2.87 18.1 18.1 0 0 0-2.41 4.75 30.489 30.489 0 0 0-1.27 5.16 34.772 34.772 0 0 0-.35 4.31v2.91a4.821 4.821 0 0 0 .12 1.12z" transform="translate(578.442 1075.63)" style="fill:#263238"/>
        <path data-name="路径 16142" d="M620.08 449.21a2.992 2.992 0 0 0 0-.49 10.967 10.967 0 0 0-.07-1.41c-.07-1.21-.16-3-.2-5.16-.11-4.36 0-10.38.35-17s1.06-12.64 1.72-16.95c.16-1.08.32-2.05.47-2.9s.27-1.59.4-2.19.19-1 .26-1.38a3 3 0 0 0 .06-.49 1.7 1.7 0 0 0-.15.47l-.34 1.37c-.15.59-.3 1.32-.47 2.17s-.36 1.82-.53 2.9a159.334 159.334 0 0 0-1.86 17c-.39 6.65-.41 12.7-.22 17.06.08 2.19.22 3.95.34 5.17l.15 1.4a1.658 1.658 0 0 0 .09.43z" transform="translate(578.442 1075.63)" style="fill:#263238"/>
        <path data-name="路径 16143" d="M619.52 437.58a8.824 8.824 0 0 0-.09-1.46 39.894 39.894 0 0 0-.65-3.95 49.945 49.945 0 0 0-1.58-5.72 51.348 51.348 0 0 0-2.77-6.73 36.59 36.59 0 0 0-7.66-10.72 18.72 18.72 0 0 0-1.75-1.47c-.27-.2-.51-.4-.75-.56l-.67-.42a12.588 12.588 0 0 0-1.27-.73 46.385 46.385 0 0 1 4.23 3.41 38.361 38.361 0 0 1 7.44 10.69 53 53 0 0 1 2.78 6.66 58.684 58.684 0 0 1 1.66 5.66c.39 1.63.63 3 .79 3.9a8.779 8.779 0 0 0 .29 1.44z" transform="translate(578.442 1075.63)" style="fill:#263238"/>
        <g transform="translate(817.619 1283)">
            <rect data-name="矩形 10032" width="363.83" height="240.6" rx="14.57" transform="translate(15.26)" style="fill:#263238"/>
            <path data-name="路径 16248" d="M192 430.18h394.23v3.25a17.8 17.8 0 0 1-17.8 17.8H209.85a17.8 17.8 0 0 1-17.8-17.8v-3.25z" transform="translate(-192 -207.37)" style="fill:#263238"/>
            <path data-name="矩形 10033" transform="translate(25.03 9.56)" style="fill:#455a64" d="M0 0h343.28v203.18H0z"/>
            <path data-name="路径 16249" d="m353.31 430.18 4.89 7.78h68.83l4.55-7.78z" transform="translate(-192 -207.37)" style="fill:#455a64"/>
            <rect data-name="矩形 10034" width="329.85" height="195.65" rx="3.27" transform="translate(32.1 16.44)" style="fill:#ebebeb"/>
            <path data-name="矩形 10035" transform="translate(32.1 30.78)" style="fill:#fafafa" d="M0 0h329.85v181.32H0z"/>
            <path data-name="路径 16250" d="M251.15 231.37a2.63 2.63 0 1 1-.767-1.866 2.64 2.64 0 0 1 .767 1.866z" transform="translate(-192 -207.37)" style="fill:#263238"/>
            <path data-name="路径 16251" d="M235.19 231.37a2.64 2.64 0 1 1-2.64-2.64 2.64 2.64 0 0 1 2.64 2.64z" transform="translate(-192 -207.37)" style="fill:#263238"/>
            <path data-name="路径 16252" d="M242.85 231.37a2.63 2.63 0 1 1-.767-1.866 2.64 2.64 0 0 1 .767 1.866z" transform="translate(-192 -207.37)" style="fill:#263238"/>
            <path data-name="路径 16253" d="M568 430.18c0 .13-80.75.24-180.34.24s-180.37-.11-180.37-.24 80.74-.24 180.37-.24 180.34.11 180.34.24z" transform="translate(-192 -207.37)" style="fill:#455a64"/>
            <path data-name="矩形 10036" transform="translate(54.96 122.12)" style="fill:#e0e0e0" d="M0 0h75.27v5.04H0z"/>
            <path data-name="矩形 10037" transform="translate(152.18 52.21)" style="fill:#e0e0e0" d="M0 0h75.27v5.04H0z"/>
            <path data-name="路径 16254" d="M531.4 278.33c0 .13-41.91.24-93.61.24s-93.61-.11-93.61-.24 41.91-.23 93.61-.23 93.61.1 93.61.23z" transform="translate(-192 -207.37)" style="fill:#e0e0e0"/>
            <path data-name="路径 16255" d="M531.4 289.33c0 .13-41.91.23-93.61.23s-93.61-.1-93.61-.23 41.91-.24 93.61-.24 93.61.11 93.61.24z" transform="translate(-192 -207.37)" style="fill:#e0e0e0"/>
            <path data-name="路径 16256" d="M531.4 300.32c0 .13-41.91.24-93.61.24s-93.61-.11-93.61-.24 41.91-.23 93.61-.23 93.61.1 93.61.23z" transform="translate(-192 -207.37)" style="fill:#e0e0e0"/>
            <path data-name="路径 16257" d="M531.4 311.32c0 .13-41.91.23-93.61.23s-93.61-.1-93.61-.23 41.91-.24 93.61-.24 93.61.11 93.61.24z" transform="translate(-192 -207.37)" style="fill:#e0e0e0"/>
            <path data-name="路径 16258" d="M531.4 322.31c0 .13-41.91.24-93.61.24s-93.61-.11-93.61-.24 41.91-.23 93.61-.23 93.61.1 93.61.23z" transform="translate(-192 -207.37)" style="fill:#e0e0e0"/>
            <path data-name="路径 16259" d="M417.26 333.31c0 .13-16.36.23-36.54.23s-36.54-.1-36.54-.23 16.36-.24 36.54-.24 36.54.11 36.54.24z" transform="translate(-192 -207.37)" style="fill:#e0e0e0"/>
            <path data-name="路径 16260" d="M530 354.64c0 .13-27.55.24-61.52.24s-61.53-.11-61.53-.24 27.54-.23 61.53-.23 61.52.1 61.52.23z" transform="translate(-192 -207.37)" style="fill:#e0e0e0"/>
            <path data-name="路径 16261" d="M530 366.32c0 .13-27.55.23-61.52.23s-61.53-.1-61.53-.23 27.54-.24 61.53-.24 61.52.11 61.52.24z" transform="translate(-192 -207.37)" style="fill:#e0e0e0"/>
            <path data-name="路径 16262" d="M530 378c0 .13-27.55.23-61.52.23S407 378.12 407 378s27.54-.24 61.53-.24 61.47.1 61.47.24z" transform="translate(-192 -207.37)" style="fill:#e0e0e0"/>
            <path data-name="路径 16263" d="M530 389.66c0 .13-27.55.23-61.52.23s-61.53-.1-61.53-.23 27.54-.24 61.53-.24 61.52.11 61.52.24z" transform="translate(-192 -207.37)" style="fill:#e0e0e0"/>
            <path data-name="路径 16264" d="M322.42 353.53c0 .13-16.42.23-36.68.23s-36.68-.1-36.68-.23 16.42-.24 36.68-.24 36.68.11 36.68.24z" transform="translate(-192 -207.37)" style="fill:#e0e0e0"/>
            <path data-name="路径 16265" d="M322.42 362.69c0 .13-16.42.24-36.68.24s-36.68-.11-36.68-.24 16.42-.23 36.68-.23 36.68.1 36.68.23z" transform="translate(-192 -207.37)" style="fill:#e0e0e0"/>
            <path data-name="路径 16266" d="M322.42 371.86c0 .13-16.42.24-36.68.24s-36.68-.11-36.68-.24 16.42-.24 36.68-.24 36.68.11 36.68.24z" transform="translate(-192 -207.37)" style="fill:#e0e0e0"/>
            <path data-name="路径 16267" d="M322.42 381c0 .13-16.42.23-36.68.23s-36.68-.1-36.68-.23 16.42-.24 36.68-.24 36.68.14 36.68.24z" transform="translate(-192 -207.37)" style="fill:#e0e0e0"/>
            <path data-name="路径 16268" d="M322.42 390.19c0 .13-16.42.24-36.68.24s-36.68-.11-36.68-.24 16.42-.23 36.68-.23 36.68.1 36.68.23z" transform="translate(-192 -207.37)" style="fill:#e0e0e0"/>
            <path data-name="矩形 10038" transform="translate(152.13 141.71)" style="fill:#f5f5f5" d="M0 0h53.4v51.67H0z"/>
            <path data-name="路径 16269" d="m348.27 396.32 14.78-26.59 12.08 17 7.35-9.03 10.92 18.62z" transform="translate(-192 -207.37)" style="fill:#ebebeb"/>
            <path data-name="路径 16270" d="M380.28 364.56a3.85 3.85 0 1 1-3.84-3.84 3.85 3.85 0 0 1 3.84 3.84z" transform="translate(-192 -207.37)" style="fill:#ebebeb"/>
            <path data-name="路径 16271" d="M393.4 396.47a.82.82 0 0 1 0-.22v-2.92c0-2.05 0-5-.06-8.78 0-7.55-.06-18.29-.11-31.2l.22.22h-45.12l.25-.25v43.19l-.22-.23 32.62.12 9.2.05h.09l-9.15.05-32.76.12h-.23v-43.25l.26-.26h45.34v.21c-.05 13-.09 23.76-.11 31.34 0 3.74-.05 6.69-.06 8.73v2.86a1.31 1.31 0 0 1-.16.22z" transform="translate(-192 -207.37)" style="fill:#ebebeb"/>
            <path data-name="矩形 10039" transform="translate(56.38 43.61)" style="fill:#f5f5f5" d="M0 0h72.43v70.08H0z"/>
            <path data-name="路径 16272" d="M253.99 315.06 274.03 279l16.39 23.05 9.96-12.24 14.81 25.25z" transform="translate(-192 -207.37)" style="fill:#e0e0e0"/>
            <path data-name="路径 16273" d="M297.4 272a5.21 5.21 0 1 1-5.21-5.21 5.21 5.21 0 0 1 5.21 5.21z" transform="translate(-192 -207.37)" style="fill:#e0e0e0"/>
            <path data-name="路径 16274" d="M315.19 315.26V311c0-2.78-.05-6.8-.08-11.9 0-10.24-.09-24.81-.15-42.31l.29.29-61.19.05c-.08.07.65-.65.34-.33v58.45l-.3-.3 44.25.15 12.48.08h.13l-12.41.08-44.45.15h-.3v-58.6c-.31.3.42-.44.35-.36l61.19.05h.3v.3c-.06 17.58-.11 32.22-.15 42.5 0 5.07-.06 9.07-.08 11.83v3.88a.71.71 0 0 1-.22.25z" transform="translate(-192 -207.37)" style="fill:#e0e0e0"/>
            <path data-name="路径 16275" d="m330.52 277.61 3.58 7.25 8 1.16-5.79 5.65 1.36 7.97-7.15-3.76-7.16 3.76 1.37-7.97-5.79-5.65 8-1.16z" transform="translate(-192 -207.37)" style="fill:#ff725e"/>
            <path data-name="路径 16276" d="m355.72 252.41 3.58 7.25 8 1.16-5.79 5.65 1.37 7.97-7.16-3.77-7.16 3.77 1.37-7.97-5.79-5.65 8-1.16z" transform="translate(-192 -207.37)" style="fill:#ff725e"/>
            <path data-name="路径 16277" d="m389.4 242.52 3.58 7.25 8 1.16-5.79 5.64 1.37 7.97-7.16-3.76-7.16 3.76 1.37-7.97-5.79-5.64 8-1.16z" transform="translate(-192 -207.37)" style="fill:#ff725e"/>
            <path data-name="路径 16278" d="m424.26 252.65 3.58 7.25 8 1.16-5.79 5.64 1.37 7.97-7.16-3.76-7.16 3.76 1.37-7.97-5.79-5.64 8-1.16z" transform="translate(-192 -207.37)" style="fill:#ff725e"/>
            <path data-name="路径 16279" d="m448.28 276.67 3.58 7.25 8 1.16-5.79 5.65 1.37 7.96-7.16-3.76-7.15 3.76 1.36-7.96-5.79-5.65 8-1.16z" transform="translate(-192 -207.37)" style="fill:#ff725e"/>
            <path data-name="路径 16280" d="m457 311.53 3.58 7.25 8 1.16-5.79 5.64 1.36 7.97-7.15-3.76-7.16 3.76 1.37-7.97-5.79-5.64 8-1.16z" transform="translate(-192 -207.37)" style="fill:#ff725e"/>
            <path data-name="路径 16281" d="m448.52 346.15 3.58 7.25 8 1.16-5.79 5.65 1.37 7.97-7.16-3.77-7.16 3.77 1.37-7.97-5.79-5.65 8-1.16z" transform="translate(-192 -207.37)" style="fill:#ff725e"/>
            <path data-name="路径 16282" d="m423 370.18 3.58 7.25 8 1.16-5.79 5.64 1.37 7.97-7.16-3.76-7.15 3.76 1.36-7.97-5.78-5.64 8-1.16z" transform="translate(-192 -207.37)" style="fill:#ff725e"/>
            <path data-name="路径 16283" d="m388.72 380.08 3.58 7.25 8 1.16-5.79 5.65 1.37 7.96-7.16-3.76-7.15 3.76 1.36-7.96-5.79-5.65 8-1.16z" transform="translate(-192 -207.37)" style="fill:#ff725e"/>
            <path data-name="路径 16284" d="m355.98 370.19 3.58 7.25 8 1.16-5.79 5.64 1.37 7.97-7.16-3.76-7.15 3.76 1.36-7.97-5.79-5.64 8.01-1.16z" transform="translate(-192 -207.37)" style="fill:#ff725e"/>
            <path data-name="路径 16285" d="m330.08 345.52 3.57 7.25 8 1.17-5.78 5.64 1.36 7.97-7.15-3.76-7.16 3.76 1.37-7.97-5.79-5.64 8-1.17z" transform="translate(-192 -207.37)" style="fill:#ff725e"/>
            <path data-name="路径 16286" d="m321.36 311.57 3.58 7.25 8 1.16-5.79 5.65 1.37 7.96-7.16-3.76-7.16 3.76 1.37-7.96-5.79-5.65 8-1.16z" transform="translate(-192 -207.37)" style="fill:#ff725e"/>
            <path data-name="路径 16287" d="M414.09 336.44h-7v-38.1a16.26 16.26 0 1 0-32.52 0v38.1h-7v-38.1a23.26 23.26 0 0 1 46.52 0z" transform="translate(-192 -207.37)" style="fill:#263238"/>
            <rect data-name="矩形 10040" width="62.7" height="40.23" rx="5.81" transform="translate(167.48 112.12)" style="fill:#ff725e"/>
            <path data-name="路径 16288" d="M396.07 334.36a5.24 5.24 0 1 1-5.24-5.24 5.24 5.24 0 0 1 5.24 5.24z" transform="translate(-192 -207.37)" style="fill:#263238"/>
            <path data-name="矩形 10041" transform="translate(197.4 129.07)" style="fill:#263238" d="M0 0h2.86v10.78H0z"/>
            <path data-name="路径 16289" d="M362.82 355.9c-.14 0-.26-6.71-.26-15s.12-15 .26-15 .26 6.71.26 15-.08 15-.26 15z" transform="translate(-192 -207.37)" style="fill:#fafafa"/>
            <path data-name="路径 16290" d="M386.73 341.08a2.46 2.46 0 0 1-.62-.35 6.309 6.309 0 0 1-1.35-1.38 7.35 7.35 0 0 1 2.61-11 6.321 6.321 0 0 1 1.83-.62 1.72 1.72 0 0 1 .7 0 17.234 17.234 0 0 0-2.35 1 7.27 7.27 0 0 0-2.49 10.48 15.606 15.606 0 0 0 1.67 1.87z" transform="translate(-192 -207.37)" style="fill:#fafafa"/>
        </g>
        <g transform="translate(751.688 1367.9)">
            <path data-name="路径 16291" d="M170.27 301.63a11.07 11.07 0 0 0 .16 7 33 33 0 0 0 3.16 6.38 112.817 112.817 0 0 0 4.25-12.24 2.88 2.88 0 0 0-.23-2.72 2.52 2.52 0 0 0-2-.55 9.26 9.26 0 0 0-5.72 2.44" transform="translate(-65.73 -292.27)" style="fill:#263238"/>
            <path data-name="路径 16292" d="m82.09 413.8-16.36 37.39h22.52l16.04-37.69z" transform="translate(-65.73 -292.27)" style="fill:#263238"/>
            <path data-name="路径 16293" d="M179.37 450.75c22.07-7.31 6.94-36.5 6.94-36.5l-96.47 9.07a14 14 0 0 0-14 13.95 14 14 0 0 0 14 14l89.62-.48" transform="translate(-65.73 -292.27)" style="fill:#455a64"/>
            <path data-name="路径 16294" d="M201.31 451.23c21.51-7.26 7.33-37 7.33-37l-94 8.86c-9.18.12-13.67 4.55-13.67 13.93 0 7.7 2.86 14.2 13.64 14l86.74.22" transform="translate(-65.73 -292.27)" style="fill:#455a64"/>
            <path data-name="路径 16295" d="M180.12 419.17h-1.05l-3 .12-11.06.55-36.49 2c-1.79.09-3.55.24-5.28.27s-3.46.1-5.14.2-3.33.23-5 .4a17.621 17.621 0 0 0-4.7 1 11.11 11.11 0 0 0-3.91 2.5 10.54 10.54 0 0 0-2.38 3.81 19.531 19.531 0 0 0-1 4.11 27.721 27.721 0 0 0-.26 3.89 16.49 16.49 0 0 0 1.24 6.55 10.7 10.7 0 0 0 2.93 4 7.94 7.94 0 0 0 2.66 1.51c.66.21.68.14 0-.1a8.56 8.56 0 0 1-2.58-1.56 10.65 10.65 0 0 1-2.79-3.95 16.31 16.31 0 0 1-1.15-6.43 27.05 27.05 0 0 1 .29-3.83 18.52 18.52 0 0 1 1-4 9.81 9.81 0 0 1 2.29-3.63 10.639 10.639 0 0 1 3.77-2.39 17.56 17.56 0 0 1 4.6-.93c1.6-.16 3.25-.29 4.93-.38s3.38-.17 5.12-.2 3.5-.17 5.28-.26l36.56-2.21 11.06-.71 3-.22.78-.07a.7.7 0 0 0 .28-.04z" transform="translate(-65.73 -292.27)" style="fill:#263238"/>
            <path data-name="路径 16296" d="M201.36 428.38a2.33 2.33 0 0 1-.76.38 8.1 8.1 0 0 1-2.29.47 8.93 8.93 0 0 1-9.56-9.81 7.66 7.66 0 0 1 .53-2.27 2.16 2.16 0 0 1 .39-.75 17.081 17.081 0 0 0-.55 3.05 8.84 8.84 0 0 0 9.18 9.41 15.625 15.625 0 0 0 3.06-.48z" transform="translate(-65.73 -292.27)" style="fill:#263238"/>
            <path data-name="路径 16297" d="m153.52 369.25-8.93 30.54-33.03 3.54v5.86l48.54.67 6.6-39.76z" transform="translate(-65.73 -292.27)" style="fill:#ffbe9d"/>
            <path data-name="路径 16298" d="M196.59 337.35c5.86 0 21.73 3 23.12 13.7 1.26 9.66 3.14 20.62 3.14 20.62l-20.88.56 7.11 1.89 3 45.09-54.06-1.88 2.87-23.18 2.4-23.15-11.81-1s4-20.17 11.09-26.4a28.7 28.7 0 0 1 15.56-6.27 163.525 163.525 0 0 1 18.46 0" transform="translate(-65.73 -292.27)" style="fill:#ff725e"/>
            <path data-name="路径 16299" d="M165.23 356c.13 0-.7 8.16-1.84 18.2s-2.17 18.17-2.3 18.15.7-8.16 1.85-18.2 2.17-18.15 2.29-18.15z" transform="translate(-65.73 -292.27)" style="fill:#263238"/>
            <path data-name="路径 16300" d="M198.2 337.42a1.832 1.832 0 0 0 .06.38 6.275 6.275 0 0 1 .06 1.09 12.13 12.13 0 0 1-.59 4 11.67 11.67 0 0 1-3.06 5.2 9 9 0 0 1-3.13 1.94 12.44 12.44 0 0 1-3.93.62 21.6 21.6 0 0 1-4-.27 8.16 8.16 0 0 1-3.43-1.39 9 9 0 0 1-3.25-5.07 13.121 13.121 0 0 1-.45-4 8.468 8.468 0 0 1 .08-1.09 1.49 1.49 0 0 1 .07-.38 13 13 0 0 1 0 1.47 14.49 14.49 0 0 0 .57 3.94 8.85 8.85 0 0 0 3.2 4.83 7.84 7.84 0 0 0 3.27 1.3 21.381 21.381 0 0 0 3.88.26 12.276 12.276 0 0 0 3.788-.6 8.35 8.35 0 0 0 3-1.831 11.64 11.64 0 0 0 3.05-5 13.521 13.521 0 0 0 .71-3.91c.082-.909.072-1.489.102-1.489z" transform="translate(-65.73 -292.27)" style="fill:#263238"/>
            <g data-name="组 8649" style="opacity:.2">
                <path data-name="路径 16301" d="M135.37 63.73c-2 9.57-4.61 19.4-6.61 29a14.54 14.54 0 0 1-2.12 5.8 13.77 13.77 0 0 1-2.86 2.63 50.249 50.249 0 0 1-12.74 7.42 115.74 115.74 0 0 0 19.83-3.45 4.11 4.11 0 0 0 3.87-4.38c1.44-12.27 1-24.64.63-37"/>
            </g>
            <path data-name="路径 16302" d="M223.19 371.83a8.294 8.294 0 0 1-1.57.12l-4.29.16c-3.61.12-8.61.24-14.14.35h-1.99v-.22c-.2-5.13-.11-9.69 0-13 0-1.63.11-2.95.17-3.86a8.089 8.089 0 0 1 .13-1.41 8.582 8.582 0 0 1 0 1.41v3.87c0 3.28-.06 7.84.15 12.94l-.23-.22h1.78c5.52-.11 10.52-.18 14.14-.21h4.29a10.19 10.19 0 0 1 1.56.07z" transform="translate(-65.73 -292.27)" style="fill:#263238"/>
            <path data-name="路径 16303" d="m70.19 374 18.45 36.3h58.18l-2.36-4.73-16.85-.51-13.74-30.58a5.28 5.28 0 0 0-4.83-3.12H71.83a1.84 1.84 0 0 0-1.64 2.64z" transform="translate(-65.73 -292.27)" style="fill:#e0e0e0"/>
            <circle data-name="椭圆 554" cx="2.23" cy="2.23" r="2.23" transform="translate(29.14 95.77)" style="fill:#263238"/>
            <path data-name="路径 16304" d="m198.49 310-2.08 29.52a9.21 9.21 0 0 1-9.18 8.55 9.21 9.21 0 0 1-9.19-9.8c.19-2.81.35-5.12.35-5.12s-7.13-1.11-7.23-8.25c0-3.37.4-10 .9-16.29a14.08 14.08 0 0 1 14-12.95A13.23 13.23 0 0 1 198.49 310z" transform="translate(-65.73 -292.27)" style="fill:#ffbe9d"/>
            <path data-name="路径 16305" d="M178.35 333.52a16.59 16.59 0 0 0 9.32-2.65s-2.21 5.14-9.34 4.5z" transform="translate(-65.73 -292.27)" style="fill:#eb996e"/>
            <path data-name="路径 16306" d="M174.3 313.27a1.028 1.028 0 1 0 1.05-.92 1 1 0 0 0-1.05.92z" transform="translate(-65.73 -292.27)" style="fill:#263238"/>
            <path data-name="路径 16307" d="M173.66 311.87c.13.13.9-.44 2-.44s1.9.55 2 .42-.07-.3-.42-.56a2.86 2.86 0 0 0-1.62-.5 2.72 2.72 0 0 0-1.59.52c-.32.26-.43.5-.37.56z" transform="translate(-65.73 -292.27)" style="fill:#263238"/>
            <path data-name="路径 16308" d="M184.64 313.57a1 1 0 1 0 1-.92 1 1 0 0 0-1 .92z" transform="translate(-65.73 -292.27)" style="fill:#263238"/>
            <path data-name="路径 16309" d="M184.45 312.07c.13.13.91-.44 2-.43s1.9.55 2 .41-.07-.3-.42-.55a2.76 2.76 0 0 0-1.62-.5 2.68 2.68 0 0 0-1.59.51c-.31.26-.43.49-.37.56z" transform="translate(-65.73 -292.27)" style="fill:#263238"/>
            <path data-name="路径 16310" d="M180.47 320.21a7.49 7.49 0 0 0-1.78-.32c-.28 0-.55-.08-.6-.27a1.47 1.47 0 0 1 .19-.84l.83-2.13a37.37 37.37 0 0 0 1.86-5.58 37.711 37.711 0 0 0-2.31 5.42c-.27.75-.54 1.46-.79 2.14a1.58 1.58 0 0 0-.14 1.11.72.72 0 0 0 .46.41 2.159 2.159 0 0 0 .47.06 6.632 6.632 0 0 0 1.81 0z" transform="translate(-65.73 -292.27)" style="fill:#263238"/>
            <path data-name="路径 16311" d="M183.7 321c-.18 0-.18 1.18-1.2 2s-2.29.72-2.3.88.29.23.82.25a2.94 2.94 0 0 0 1.92-.67 2.59 2.59 0 0 0 .93-1.7c.05-.5-.09-.76-.17-.76z" transform="translate(-65.73 -292.27)" style="fill:#263238"/>
            <path data-name="路径 16312" d="M184.17 307.77c.11.3 1.21.16 2.49.31s2.33.51 2.5.24-.1-.41-.52-.7a4.35 4.35 0 0 0-3.8-.42c-.48.19-.72.43-.67.57z" transform="translate(-65.73 -292.27)" style="fill:#263238"/>
            <path data-name="路径 16313" d="M174.07 308.69c.19.25 1 0 1.86 0s1.67.17 1.85-.1 0-.37-.38-.61a2.68 2.68 0 0 0-3 .09c-.31.24-.4.5-.33.62z" transform="translate(-65.73 -292.27)" style="fill:#263238"/>
            <path data-name="路径 16314" d="M196.08 315.83c.12-.06 4.91-1.45 4.75 3.43s-5 3.72-5 3.58.25-7.01.25-7.01z" transform="translate(-65.73 -292.27)" style="fill:#ffbe9d"/>
            <path data-name="路径 16315" d="M197.35 321a2.354 2.354 0 0 0 .23.13.82.82 0 0 0 .63 0 2.09 2.09 0 0 0 1-1.85 3 3 0 0 0-.2-1.23 1 1 0 0 0-.62-.67.43.43 0 0 0-.51.21c-.07.14 0 .24-.07.24s-.1-.08 0-.28a.5.5 0 0 1 .2-.3.62.62 0 0 1 .47-.11 1.19 1.19 0 0 1 .87.78 3 3 0 0 1 .25 1.38 2.24 2.24 0 0 1-1.31 2.07 1 1 0 0 1-.78-.16c-.15-.05-.17-.16-.16-.21z" transform="translate(-65.73 -292.27)" style="fill:#eb996e"/>
            <path data-name="矩形 10042" transform="translate(16.17 118.09)" style="fill:#263238" d="M0 0h71.11v3.47H0z"/>
            <path data-name="路径 16316" d="m131.11 412.1 21.63 39.13h19.37l-19.1-37.4z" transform="translate(-65.73 -292.27)" style="fill:#263238"/>
            <path data-name="路径 16317" d="M153 413.83c0 .14-15.94.34-35.6.44s-35.6.06-35.6-.08 15.94-.34 35.6-.44 35.6-.06 35.6.08z" transform="translate(-65.73 -292.27)" style="fill:#455a64"/>
            <path data-name="路径 16318" d="M170.09 305.43a4.87 4.87 0 0 0 4-.29 1.15 1.15 0 0 0 .2 1.71 2.9 2.9 0 0 0 1.88.41 14.47 14.47 0 0 0 9.49-4.05 3.16 3.16 0 0 0 2.18 2.72 6.39 6.39 0 0 0 3.65 0 13.91 13.91 0 0 0-.22 5.52 4.75 4.75 0 0 0 3.58 3.8 9.25 9.25 0 0 1 .23 2.89c.07 1 .63 2.08 1.61 2.11s1.49-.86 1.61-1.71-.39-2.58.22-3.95.4-1.22 1.05-2.71 1-3.55 1.54-5.1a7.29 7.29 0 0 0 .13-4.81 4 4 0 0 0-3.73-2.65 3.93 3.93 0 0 0-5.78-4.73s-5.56-3.78-11.71-1.69-7.07 7.67-8.41 7.84-5.4-2-4.7-.64 1.86 2.73 2.44 2.79-4.65-2.15-2.85-.17a11.23 11.23 0 0 0 3.59 2.71z" transform="translate(-65.73 -292.27)" style="fill:#263238"/>
            <path data-name="路径 16319" d="M219.11 353a11.9 11.9 0 0 0-1.93-1.85 11.39 11.39 0 0 0-6.86-2c-3.09 0-6.63 1.33-10.11 3.46s-7.05 5-11.47 6.93a17.52 17.52 0 0 1-13.23.49 18.45 18.45 0 0 1-5.12-2.92c-1.45-1.12-2.73-2.25-4-3.16a12.25 12.25 0 0 0-6.64-2.71 8.671 8.671 0 0 0-2.65.35l.16-.08a4.259 4.259 0 0 1 .49-.19 6.689 6.689 0 0 1 2-.28 12.15 12.15 0 0 1 6.86 2.61c2.56 1.77 5.17 4.58 9 5.93a17.37 17.37 0 0 0 12.87-.51c4.32-1.88 7.86-4.79 11.43-6.87s7.17-3.48 10.35-3.42a11.32 11.32 0 0 1 7 2.23 7.57 7.57 0 0 1 1.43 1.42 2.849 2.849 0 0 1 .42.57z" transform="translate(-65.73 -292.27)" style="fill:#fafafa"/>
            <path data-name="路径 16320" d="M201.32 379.32s-.49-.32-1.38-.83a14.11 14.11 0 0 0-4.05-1.56 13.609 13.609 0 0 0-6.36.11c-2.36.59-4.77 1.83-7.45 2.82a18.73 18.73 0 0 1-4.06 1 18.278 18.278 0 0 1-3.9.07 18.52 18.52 0 0 1-6.33-1.73 15.721 15.721 0 0 1-3.71-2.41 8.15 8.15 0 0 1-.87-.83c-.19-.19-.29-.3-.27-.32s.45.36 1.27 1a18 18 0 0 0 3.73 2.24 19.231 19.231 0 0 0 6.22 1.59 17.92 17.92 0 0 0 7.74-1.11 73.148 73.148 0 0 1 7.51-2.79 13.66 13.66 0 0 1 10.64 1.73 11.125 11.125 0 0 1 1 .72 2 2 0 0 1 .27.3z" transform="translate(-65.73 -292.27)" style="fill:#fafafa"/>
            <path data-name="路径 16321" d="M209.19 396.13a15.541 15.541 0 0 0-1.93-.62 11 11 0 0 0-5.43.49 21.663 21.663 0 0 0-3.5 1.5c-1.22.64-2.49 1.4-3.86 2.14a22.66 22.66 0 0 1-4.53 1.95 11 11 0 0 1-5.31.22c-3.63-.79-6.5-2.89-9.14-4.46a17.85 17.85 0 0 0-7.54-3 8.61 8.61 0 0 0-5.27 1.14 8.831 8.831 0 0 0-1.56 1.29 2.08 2.08 0 0 1 .3-.44 5.361 5.361 0 0 1 1.15-1A8.54 8.54 0 0 1 168 394c2.42.12 5.09 1.31 7.76 2.92s5.52 3.61 9 4.36a10.57 10.57 0 0 0 5.07-.2 23 23 0 0 0 4.44-1.88c1.37-.72 2.65-1.47 3.89-2.11a21.77 21.77 0 0 1 3.6-1.46 10.47 10.47 0 0 1 5.57-.33 6.539 6.539 0 0 1 1.44.53c.28.17.43.28.42.3z" transform="translate(-65.73 -292.27)" style="fill:#fafafa"/>
            <path data-name="路径 16322" d="M211.74 415.24a1.71 1.71 0 0 1-.5.21 7.1 7.1 0 0 1-1.55.26 14 14 0 0 1-5.63-1.18 32.909 32.909 0 0 0-3.74-1.21 15.07 15.07 0 0 0-4.45-.26c-3.16.27-6.49 1.47-10 2.49a31.231 31.231 0 0 1-5.32 1.09 23.718 23.718 0 0 1-5.07-.07 34.71 34.71 0 0 1-8.25-2.21A56.245 56.245 0 0 1 162 412c-.61-.3-1.07-.56-1.38-.73a2.28 2.28 0 0 1-.47-.29 1.719 1.719 0 0 1 .51.2l1.42.64c1.24.56 3 1.37 5.28 2.21a35.6 35.6 0 0 0 8.17 2.07 22.77 22.77 0 0 0 5 0 30.42 30.42 0 0 0 5.23-1.08c3.53-1 6.9-2.21 10.15-2.46a15 15 0 0 1 4.59.31 30.074 30.074 0 0 1 3.77 1.29 14.841 14.841 0 0 0 5.49 1.32 11.872 11.872 0 0 0 1.98-.24z" transform="translate(-65.73 -292.27)" style="fill:#fafafa"/>
            <path data-name="路径 16323" d="M222 366.78a2.89 2.89 0 0 1-.61.64 8 8 0 0 1-2.06 1.26 9 9 0 0 1-3.53.69 10 10 0 0 1-4.26-1.13c-1.4-.67-2.66-1.4-3.89-1.84a7.169 7.169 0 0 0-3.37-.37 4.35 4.35 0 0 0-2.1.87c-.42.36-.6.62-.64.59a1.82 1.82 0 0 1 .5-.74 4.15 4.15 0 0 1 2.17-1.08 7.25 7.25 0 0 1 3.6.28 36.068 36.068 0 0 1 4 1.82 9.85 9.85 0 0 0 4 1.12 9 9 0 0 0 3.38-.55 16.151 16.151 0 0 0 2.81-1.56z" transform="translate(-65.73 -292.27)" style="fill:#fafafa"/>
            <path data-name="路径 16324" d="M163.92 366.28a.833.833 0 0 1-.32.35 2.24 2.24 0 0 1-1.26.33 4 4 0 0 1-1.85-.53c-.63-.35-1.23-.84-1.88-1.26a5.09 5.09 0 0 0-3.74-.75c-1 .18-1.55.55-1.6.47a2.81 2.81 0 0 1 1.52-.83 5 5 0 0 1 4.1.68c.69.44 1.27.93 1.84 1.27a3.93 3.93 0 0 0 1.63.58 3 3 0 0 0 1.56-.31z" transform="translate(-65.73 -292.27)" style="fill:#fafafa"/>
            <path data-name="路径 16325" d="m136.76 398.57 14.55-1.75 10.25 6.72 39.2-9.39 1.15-21.88 17.6-.44-.41 25.68a14.9 14.9 0 0 1-15.31 14.58l-57.42-1.59-2.44-4.89-12.32-.36z" transform="translate(-65.73 -292.27)" style="fill:#ffbe9d"/>
            <path data-name="路径 16326" d="M200.27 394.15a6.142 6.142 0 0 1-.74.22l-2.13.56-7.87 2-26 6.3-2.41.57h-.1l-.08-.06-10.25-6.74h.14l-14.55 1.68h.09l-3.84 4.88c-.44.53-.78 1-1 1.28a3.17 3.17 0 0 1-.38.43 3.38 3.38 0 0 1 .32-.48l1-1.33 3.74-5h.06l14.54-1.82h.15l10.26 6.7h-.18l2.42-.58 26-6.17 7.91-1.82 2.15-.47a4.091 4.091 0 0 1 .75-.15z" transform="translate(-65.73 -292.27)" style="fill:#eb996e"/>
            <path data-name="路径 16327" d="M144.71 402.74a36.081 36.081 0 0 1-5.66.23h-.85a27.213 27.213 0 0 1-3.67 2.82 26.551 26.551 0 0 1 3.37-3.16l.07-.06h1.11a34.677 34.677 0 0 1 5.63.17z" transform="translate(-65.73 -292.27)" style="fill:#eb996e"/>
            <path data-name="路径 16328" d="M207.49 398.53a8.54 8.54 0 0 0-6.78-4.27 2.45 2.45 0 0 1 1.26-.1 6.77 6.77 0 0 1 2.91 1 6.6 6.6 0 0 1 2.15 2.19 2.4 2.4 0 0 1 .46 1.18z" transform="translate(-65.73 -292.27)" style="fill:#eb996e"/>
        </g>
    </g>
</svg>
