<svg width="18" height="18" viewBox="0 0 18 18" fill="none" xmlns="http://www.w3.org/2000/svg">
<path d="M5.52336 18C5.03205 17.1917 4.8028 16.2512 4.86702 15.3074C4.93124 14.3637 5.28579 13.4629 5.88207 12.7286C6.49078 11.8395 6.92291 10.8417 7.15493 9.78943C7.40723 10.1762 7.57934 10.6097 7.66105 11.0642C7.74277 11.5187 7.73242 11.985 7.63064 12.4354C8.19584 11.742 8.61593 10.9421 8.86595 10.0831C9.11597 9.22416 9.19082 8.32373 9.08607 7.43529C10.6823 8.61723 11.8224 10.3134 12.3139 12.2378C12.8055 14.1622 12.6186 16.1973 11.7848 18C21.4945 12.5061 14.2006 4.28657 12.9304 3.36086C13.1917 3.8794 13.2976 4.46242 13.2354 5.03976C13.1731 5.61709 12.9453 6.16412 12.5794 6.615C11.1316 1.125 7.5535 0 7.5535 0C7.9765 2.82857 6.01964 5.92586 4.13093 8.23886C4.1459 7.19692 3.89453 6.16842 3.40064 5.25086C3.26693 7.30157 1.69964 8.973 1.27535 11.0276C0.70064 13.8099 1.70607 15.8477 5.52464 18H5.52336Z" fill="#B1BAD3"/>
</svg>
