<svg width="18" height="18" viewBox="0 0 18 18" fill="none" xmlns="http://www.w3.org/2000/svg">
<path d="M5.9953 15.6174C6.14707 14.3676 6.55219 13.1619 7.18587 12.074C7.96043 10.7893 8.91271 9.62062 10.0144 8.60256C10.1233 8.50056 10.2802 8.35656 10.485 8.17056C11.3807 7.49297 12.0366 6.547 12.357 5.47056H6.07116C5.78641 5.45282 5.50311 5.52331 5.25987 5.67242C5.02348 5.86719 4.83481 6.11347 4.7083 6.39242L4.21844 6.2767L5.37559 1.97471H5.47202C5.53253 2.14058 5.64534 2.28228 5.79344 2.37842C5.95921 2.46992 6.14682 2.51438 6.33602 2.50699H13.0089C13.272 2.51799 13.534 2.46551 13.7726 2.35399C13.9817 2.23819 14.1534 2.06513 14.2676 1.85513H14.3833L14.3923 1.92199C14.4112 2.2417 14.4206 2.4817 14.4206 2.64199C14.4222 3.41735 14.3188 4.18936 14.1133 4.93699C13.8283 5.87675 13.447 6.78457 12.9754 7.64599C12.9052 7.78056 12.7963 7.98542 12.6489 8.26056C11.4904 10.2519 10.8317 12.4943 10.7293 14.7958C10.7293 15.0196 10.7293 15.1876 10.7293 15.2998C10.7293 15.4121 10.734 15.5193 10.7434 15.6213L5.9953 15.6174Z" fill="#B1BAD3"/>
<path d="M2.62086 16.2004C2.53531 15.5994 2.57321 14.9873 2.73222 14.4014C2.93336 13.707 3.23164 13.0444 3.61822 12.4334L3.78284 12.1737C4.11433 11.7464 4.30083 11.2244 4.31518 10.6838L1.39062 11.4679C1.25784 11.496 1.13672 11.5637 1.04337 11.6622C0.957501 11.7824 0.900316 11.9207 0.876206 12.0664L0.627422 12.0719L0.631804 9.92363L0.676511 9.91165C0.72501 9.98214 0.795236 10.0348 0.876476 10.0617C0.96705 10.0827 1.06167 10.078 1.14976 10.0483L4.2544 9.21592C4.37766 9.18779 4.4924 9.13055 4.58901 9.049C4.67161 8.96895 4.7297 8.86703 4.75649 8.75518L4.80989 8.74086L4.81822 8.7719C4.86728 8.91849 4.9018 9.02903 4.92178 9.10354C5.01952 9.46453 5.06792 9.83709 5.06564 10.2111C5.04958 10.6841 4.98471 11.1543 4.87208 11.6141L4.79716 11.9403C4.50609 13.0128 4.47942 14.14 4.71944 15.2251C4.74741 15.3294 4.76839 15.4076 4.78237 15.4598C4.79636 15.5119 4.81186 15.5615 4.82887 15.6084L2.62086 16.2004Z" fill="#B1BAD3"/>
<path d="M12.0154 15.371C12.242 14.8079 12.581 14.2968 13.0117 13.8691C13.5333 13.3684 14.1231 12.9439 14.7634 12.6083L15.036 12.4657C15.5367 12.2616 15.9593 11.903 16.2422 11.442L13.3176 10.6579C13.1887 10.6157 13.0499 10.6138 12.9198 10.6524C12.7853 10.7135 12.6666 10.8047 12.5728 10.9188L12.3547 10.7991L13.4332 8.94113L13.4779 8.95312C13.4846 9.03842 13.5191 9.11918 13.576 9.18308C13.6439 9.24654 13.7281 9.28987 13.8193 9.30822L16.9239 10.1406C17.0444 10.1776 17.1719 10.1853 17.2959 10.1632C17.4079 10.1355 17.5096 10.0764 17.5892 9.99286L17.6426 10.0072L17.6342 10.0382C17.6034 10.1897 17.578 10.3027 17.558 10.3772C17.462 10.7386 17.3176 11.0854 17.1285 11.4081C16.8779 11.8097 16.5866 12.1844 16.259 12.5261L16.031 12.7711C15.2424 13.5542 14.6554 14.5168 14.3204 15.5764C14.2924 15.6807 14.2715 15.7589 14.2575 15.8111C14.2435 15.8633 14.2321 15.9139 14.2234 15.963L12.0154 15.371Z" fill="#B1BAD3"/>
</svg>
