<svg width="17" height="16" viewBox="0 0 17 16" fill="none" xmlns="http://www.w3.org/2000/svg">
<path d="M14.9961 3.17485C15.4957 3.33739 15.9167 3.68018 16.1773 4.13637C16.4378 4.59256 16.5191 5.12942 16.4052 5.64228L16.3538 5.83771L13.5572 14.4548C13.3947 14.9547 13.0517 15.376 12.5953 15.6365C12.1388 15.8971 11.6017 15.9782 11.0887 15.864L10.8932 15.8126L5.15492 13.9509C4.65511 13.7883 4.23383 13.4453 3.97328 12.9889C3.71273 12.5325 3.63161 11.9953 3.74577 11.4823L3.79722 11.2869L3.85892 11.1017L5.01095 11.472L4.94921 11.6571C4.88296 11.8604 4.89105 12.0805 4.97206 12.2783C5.05307 12.4761 5.20172 12.6388 5.39149 12.7371L5.52521 12.7989L11.2635 14.6606C11.4667 14.7268 11.6869 14.7187 11.8847 14.6377C12.0825 14.5567 12.2451 14.408 12.3435 14.2183L12.4052 14.0846L15.2018 5.46742C15.268 5.26419 15.2599 5.04404 15.1789 4.84622C15.0979 4.64841 14.9493 4.48582 14.7595 4.38743L14.6258 4.32572L9.96749 2.81372L10.3378 1.66171L14.9961 3.17485Z" fill="#3EB9FE"/>
<path d="M9.59973 13.2754H3.56202C3.00298 13.2745 2.46713 13.0519 2.07204 12.6564C1.67695 12.2609 1.45489 11.7248 1.45459 11.1657L1.45459 2.10857C1.45519 1.54973 1.67738 1.01393 2.07244 0.618661C2.4675 0.22339 3.00317 0.000910234 3.56202 2.85408e-06H9.60773C9.88439 -0.000453551 10.1584 0.0538333 10.414 0.159736C10.6696 0.265639 10.9017 0.421065 11.0969 0.61706C11.2922 0.813055 11.4467 1.04575 11.5516 1.30173C11.6566 1.55771 11.7098 1.83192 11.7083 2.10857V11.1657C11.708 11.725 11.4858 12.2612 11.0905 12.6568C10.6951 13.0523 10.159 13.2748 9.59973 13.2754ZM6.38945 7.92L6.30145 8.6L5.86945 8.91886V9.17257H7.3723V8.93029L6.93002 8.61143L6.81573 7.89714C7.07484 7.90642 7.33243 7.94087 7.58488 8L7.66488 8.01715H7.67402C7.86477 8.06406 8.05955 8.09276 8.25573 8.10286C8.33594 8.11297 8.41734 8.09917 8.48972 8.06318C8.5621 8.02719 8.62224 7.97062 8.66259 7.90057C8.80782 7.57754 8.84001 7.21501 8.75396 6.87144C8.66792 6.52787 8.46865 6.2233 8.1883 6.00686C7.86837 5.63957 7.57288 5.25169 7.30373 4.84572C6.99288 4.40114 6.7243 4.01715 6.60659 4.01715C6.42716 4.01715 5.8763 4.79086 5.34945 5.53829L5.33459 5.55657C5.25345 5.67086 5.17002 5.792 5.08888 5.90629L5.01802 6.00457C4.38145 6.91886 4.25573 7.40914 4.54373 7.89829C4.59804 7.98166 4.67449 8.04827 4.76451 8.09066C4.85454 8.13305 4.95458 8.14954 5.05345 8.13829C5.29357 8.1258 5.53197 8.09059 5.76545 8.03314H5.77345C5.97459 7.992 6.17916 7.94857 6.39288 7.91886L6.38945 7.92Z" fill="#3EB9FE"/>
<path d="M11.9824 6.55428L13.371 5.55658L14.0396 7.09944L12.5539 8.11772L11.9824 6.55428Z" fill="#3EB9FE"/>
</svg>
