<?xml version="1.0" standalone="no"?>
<svg id="侧边icon/博雅棋牌" width="20" height="20" viewBox="0 0 20 20" fill="none" xmlns="http://www.w3.org/2000/svg" style="max-width: 100%; max-height: 100%;">
<path d="M1.00333 4.04065C1.01437 5.57392 0.969576 7.11129 1.05786 8.64047C1.18964 10.9267 3.13391 12.7376 5.31447 12.7076C8.31234 12.6667 10.3423 9.57354 9.30038 6.63453C8.62589 4.73226 6.8147 3.5291 4.90614 3.75896C4.3576 3.82512 3.82203 4.00995 3.2618 4.14432C3.2579 4.11363 3.24037 4.0386 3.23972 3.96357C3.23778 3.2706 3.23193 2.57694 3.24297 1.88397C3.24751 1.6166 3.18 1.48974 2.89761 1.50065C2.37892 1.52043 1.85894 1.5177 1.34025 1.50201C1.08448 1.49451 0.996841 1.5975 1.00009 1.85873C1.00917 2.58581 0.998139 3.31289 1.00333 4.04065ZM5.28656 6.05205C6.43299 6.04864 7.34378 7.00216 7.34638 8.20737C7.34897 9.39756 6.44792 10.3627 5.32681 10.3715C4.16999 10.3804 3.24362 9.41462 3.24232 8.1985C3.24037 7.02876 4.16804 6.05478 5.28656 6.05205Z" fill="#8E949C" stroke-dasharray="0,0,0,47.36882781982422"><animate attributeType="XML" attributeName="stroke-dasharray" repeatCount="1" dur="2.5s" values="0,0,0,47.36882781982422; 
          0,23.68441390991211,23.68441390991211,0; 
          47.36882781982422,0,0,0" keyTimes="0; 0.5; 1" fill="freeze"></animate></path>
<path d="M14.7854 12.7081C17.0957 12.7074 18.986 10.7084 19.0001 8.24973C19.0149 5.76523 17.1163 3.7424 14.7687 3.74172C12.4532 3.74104 10.5436 5.74143 10.5295 8.18174C10.516 10.6805 12.4217 12.7081 14.7854 12.7081ZM14.7886 6.0712C15.9122 6.07868 16.7934 7.02652 16.7915 8.22729C16.7895 9.44099 15.8923 10.3854 14.7487 10.3773C13.6302 10.3698 12.7388 9.41107 12.742 8.21913C12.7459 7.01088 13.6476 6.06372 14.7886 6.0712Z" fill="#8E949C" stroke-dasharray="0,0,0,40.54491424560547"><animate attributeType="XML" attributeName="stroke-dasharray" repeatCount="1" dur="2.5s" values="0,0,0,40.54491424560547; 
          0,20.272457122802734,20.272457122802734,0; 
          40.54491424560547,0,0,0" keyTimes="0; 0.5; 1" fill="freeze"></animate></path>
<path d="M5.13207 14.8856C4.92157 15.1709 4.69563 15.444 4.4729 15.7198C4.20962 16.0459 4.20769 16.0656 4.52891 16.3223C6.14528 17.6151 7.96507 18.2835 10.1357 18.312C10.3816 18.2923 10.7691 18.2808 11.1502 18.2264C12.7794 17.9941 14.2445 17.3433 15.5474 16.2816C15.7592 16.109 15.7714 15.9698 15.5899 15.7639C15.3421 15.4827 15.1071 15.1872 14.8857 14.8822C14.7447 14.6879 14.6198 14.6947 14.4209 14.7919C13.8673 15.0609 13.3169 15.3618 12.735 15.5377C10.2696 16.285 7.87881 16.0764 5.59683 14.7966C5.4005 14.6866 5.27047 14.6981 5.13207 14.8856Z" fill="#8E949C" stroke-dasharray="0,0,0,25.8292293548584"><animate attributeType="XML" attributeName="stroke-dasharray" repeatCount="1" dur="2.5s" values="0,0,0,25.8292293548584; 
          0,12.9146146774292,12.9146146774292,0; 
          25.8292293548584,0,0,0" keyTimes="0; 0.5; 1" fill="freeze"></animate></path>
<setting>{"type":"direct","speed":20,"random":1,"shift":1,"size":1,"rupture":50}</setting></svg>