<svg width="18" height="18" viewBox="0 0 18 18" fill="none" xmlns="http://www.w3.org/2000/svg">
<path d="M14.1104 8.25493C14.611 7.73489 14.8916 7.04183 14.8939 6.32007C14.8725 5.5368 14.5421 4.79381 13.9748 4.25333C13.4075 3.71285 12.6493 3.41881 11.866 3.4354C11.8175 3.4354 11.7701 3.44751 11.7216 3.44751C11.7701 3.51032 11.8417 3.59737 11.8902 3.66789C12.1254 3.96651 12.3049 4.30504 12.4202 4.66727C13.143 4.88765 13.9507 5.54105 13.9507 6.30244C13.9459 6.63932 13.8431 6.96753 13.6549 7.24695C13.4667 7.52638 13.2011 7.74493 12.8907 7.8759C12.7695 7.90627 12.6622 7.97693 12.5865 8.07629C12.5107 8.17566 12.471 8.29782 12.4738 8.42273C12.4766 8.54765 12.5218 8.66789 12.602 8.76374C12.6821 8.85958 12.7925 8.92534 12.9149 8.95021L13.035 8.97556C13.8028 9.1408 14.4916 9.56191 14.9887 10.1699C15.4857 10.7779 15.7616 11.5366 15.771 12.3219V12.7715H14.9038C14.9867 13.1063 15.027 13.4502 15.0239 13.7951H16.1081C16.2641 13.7995 16.4155 13.742 16.5291 13.635C16.6427 13.528 16.7093 13.3803 16.7141 13.2243V12.3428C16.7098 11.4853 16.463 10.6464 16.0023 9.9231C15.5416 9.19978 14.8857 8.62147 14.1104 8.25493ZM5.07518 8.99208L5.19529 8.96674C5.31596 8.9363 5.42351 8.86755 5.50179 8.77079C5.58007 8.67404 5.62485 8.5545 5.62942 8.43013C5.62346 8.30949 5.58065 8.19358 5.50677 8.09802C5.43288 8.00247 5.33148 7.93186 5.21622 7.89573C4.90324 7.76707 4.6353 7.54873 4.4461 7.26816C4.2569 6.9876 4.1549 6.65735 4.15293 6.31897C4.19667 5.93446 4.35608 5.57229 4.61007 5.28033C4.86406 4.98837 5.20068 4.78035 5.57543 4.6838C5.69191 4.30823 5.87559 3.95692 6.11754 3.64695C6.1732 3.58752 6.22544 3.52498 6.27401 3.45963C6.22553 3.45963 6.17815 3.44751 6.12967 3.44751C5.34627 3.42976 4.58784 3.72353 4.02079 4.26434C3.45374 4.80515 3.12441 5.54883 3.10506 6.33219C3.10972 7.05349 3.39 7.7457 3.88848 8.26705C3.11429 8.6299 2.45897 9.20499 1.99865 9.9255C1.53834 10.646 1.29194 11.4823 1.28809 12.3373L1.28809 13.2188C1.28906 13.2964 1.30553 13.3729 1.33653 13.444C1.36753 13.5151 1.41242 13.5793 1.46857 13.6328C1.52473 13.6862 1.59101 13.728 1.66352 13.7555C1.73603 13.783 1.8133 13.7957 1.8908 13.7929H2.97504C2.97785 13.4483 3.01812 13.1051 3.09514 12.7693H2.33596V12.3252C2.34944 11.5424 2.62701 10.7872 3.12363 10.1819C3.62025 9.57671 4.30679 9.15703 5.07188 8.99098L5.07518 8.99208ZM11.0649 8.55134C11.4628 8.2212 11.7826 7.80699 12.0013 7.3385C12.2201 6.87001 12.3322 6.35888 12.3298 5.84186C12.3496 4.945 12.0126 4.07695 11.3928 3.42842C10.773 2.77989 9.9211 2.40392 9.02426 2.38312C8.12821 2.40164 7.27608 2.77477 6.65475 3.42068C6.03343 4.06659 5.69362 4.93254 5.70986 5.82864C5.70606 6.34589 5.81763 6.85748 6.03644 7.32618C6.25526 7.79488 6.57582 8.2089 6.97479 8.53811C5.93423 8.98799 5.04971 9.73518 4.43222 10.6859C3.81474 11.6366 3.4918 12.7486 3.50393 13.8821V15.0303C3.50098 15.1794 3.55733 15.3237 3.66063 15.4313C3.76393 15.5389 3.90571 15.6012 4.05486 15.6044H13.9716C14.1201 15.5992 14.2607 15.5363 14.3636 15.4291C14.4665 15.3219 14.5235 15.1789 14.5225 15.0303V13.8854C14.5306 12.756 14.2069 11.649 13.5917 10.7018C12.9765 9.75455 12.0967 9.00874 11.0616 8.55684L11.0649 8.55134ZM6.83486 5.82974C6.82421 5.23639 7.04887 4.66294 7.45974 4.23473C7.87061 3.80652 8.43428 3.55836 9.02756 3.54448C9.61847 3.56696 10.1777 3.81751 10.5878 4.24352C10.9979 4.66953 11.227 5.23785 11.227 5.82918C11.227 6.42052 10.9979 6.98885 10.5878 7.41486C10.1777 7.84087 9.61847 8.09141 9.02756 8.1139C8.73343 8.10859 8.44323 8.04533 8.17359 7.92772C7.90395 7.8101 7.66015 7.64045 7.45617 7.42849C7.25218 7.21652 7.09201 6.96638 6.98483 6.69243C6.87765 6.41847 6.82556 6.12606 6.83155 5.83194L6.83486 5.82974ZM13.3182 14.4452H4.72369V13.8832C4.70032 12.7182 5.13929 11.5913 5.9446 10.749C6.74991 9.90672 7.856 9.41765 9.02095 9.38875C9.59777 9.40206 10.1663 9.52887 10.6941 9.76197C11.2219 9.99507 11.6986 10.3299 12.0969 10.7473C12.4953 11.1646 12.8075 11.6564 13.0157 12.1945C13.2239 12.7326 13.3241 13.3064 13.3105 13.8832V14.4452H13.3182Z" fill="#B1BAD3"/>
</svg>
