<?xml version="1.0" standalone="no"?>
<svg id="侧边icon/高登棋牌" width="20" height="20" viewBox="0 0 20 20" fill="none" xmlns="http://www.w3.org/2000/svg" style="max-width: 100%; max-height: 100%;">
<path d="M6.71988 1L6.94949 1.03855C7.14084 1.10348 7.35232 1.1603 7.58395 1.21305C8.12172 1.26378 8.51246 1.31654 8.75617 1.36726C9.12677 1.36726 9.46716 1.48292 9.77331 1.71627C9.84985 1.7812 9.95861 1.89685 10.0996 2.06527L10.0231 2.43253C10.011 2.45891 10.013 2.47717 10.0331 2.49138C10.0533 2.50355 10.0875 2.49746 10.1379 2.47109C10.2144 2.44471 10.2849 2.41224 10.3494 2.37369C10.3876 2.36152 10.4158 2.34122 10.436 2.31485C10.4561 2.28847 10.446 2.24992 10.4078 2.19919C10.4581 2.14846 10.5427 2.12208 10.6575 2.12208C10.8106 2.09571 10.9455 2.05107 11.0603 1.98613C11.1248 1.98613 11.1872 1.94149 11.2517 1.85019C11.29 1.86236 11.3605 1.88265 11.4632 1.90903C11.5901 1.83192 11.7069 1.82584 11.8096 1.88874C11.9244 1.87656 12.0009 1.91512 12.0392 2.0044H12.1923C12.3071 2.05512 12.4098 2.05512 12.5005 2.0044C12.6032 2.06933 12.6978 2.08759 12.7885 2.06324C12.8912 2.07541 13 2.13426 13.1148 2.23774C13.0765 2.27629 13.0705 2.32905 13.0946 2.39195C13.0302 2.41833 13.012 2.45079 13.0362 2.48935C13.0483 2.48935 13.0624 2.49543 13.0745 2.50964C13.2276 2.66385 13.2417 2.82618 13.1127 2.99256C13.0866 3.05749 13.0302 3.10822 12.9395 3.14677C12.722 3.32736 12.5105 3.4491 12.3051 3.51403C12.2144 3.4491 12.152 3.46331 12.1137 3.55259C11.9989 3.59114 11.8902 3.61143 11.7874 3.61143C11.3907 3.70274 11.0503 3.83057 10.7703 3.99899C10.7441 3.97261 10.7381 3.95435 10.7502 3.94014C10.7623 3.92594 10.7945 3.91985 10.8468 3.91985C10.7965 3.86912 10.7119 3.86912 10.5971 3.91985C10.5206 3.91985 10.4299 3.94623 10.3292 3.99696C10.2909 4.04768 10.2305 4.08827 10.1459 4.11261C10.0633 4.13899 9.98278 4.15725 9.90624 4.17146C9.73907 4.27494 9.59204 4.35205 9.46515 4.40277C9.4148 4.47988 9.33624 4.51843 9.23554 4.51843C8.87702 4.67264 8.62123 4.7883 8.46815 4.86743L7.12472 5.5837C7.022 5.63443 6.91928 5.6811 6.81656 5.71965C6.76621 5.74603 6.72592 5.78458 6.70175 5.83531C6.61112 5.80893 6.54868 5.84139 6.51041 5.9327C6.47214 5.9327 6.44999 5.93879 6.44395 5.95299C6.4379 5.96517 6.43992 5.99155 6.45402 6.0301C6.50437 6.0301 6.54264 6.01792 6.56882 5.99155C6.65744 6.13358 6.76621 6.21677 6.89511 6.24315C7.12472 6.13967 7.2919 6.06256 7.39462 6.01184C7.47115 5.96111 7.63833 5.8698 7.89412 5.74197L9.10462 5.06425C9.25769 5.01353 9.37048 4.96077 9.44098 4.91004C9.51147 4.85932 9.58398 4.83294 9.66253 4.83294C9.78943 4.71728 9.98882 4.6138 10.2587 4.52249C10.3353 4.45756 10.4058 4.39466 10.4702 4.32973C10.5971 4.279 10.6938 4.22624 10.7582 4.17552C10.8227 4.17552 10.873 4.15522 10.9113 4.11667C11.0523 4.07812 11.1993 4.09638 11.3524 4.17552C11.5196 4.12479 11.6666 4.11667 11.7935 4.15522C11.9727 4.12885 12.1017 4.14914 12.1782 4.21407C12.2547 4.279 12.287 4.38857 12.2749 4.54278C12.2366 4.58133 12.2245 4.61786 12.2366 4.64829C12.2487 4.68076 12.295 4.71525 12.3715 4.7538C12.436 4.88367 12.5568 4.99932 12.7361 5.10281C12.9033 5.30977 12.9859 5.54109 12.9859 5.79878C12.9476 5.95299 12.8771 6.06256 12.7744 6.12749C12.7361 6.16605 12.6535 6.2188 12.5246 6.2817C12.4219 6.34664 12.3333 6.45012 12.2567 6.59215C12.154 6.63071 12.0835 6.67535 12.0453 6.7281C11.9687 6.80521 11.9164 6.83159 11.8922 6.80521C11.8418 6.83159 11.7391 6.89652 11.584 6.99797C11.5458 7.01015 11.5337 7.03044 11.5458 7.05681C11.5578 7.08319 11.5961 7.11566 11.6606 7.15421C11.7109 7.15421 11.7472 7.16436 11.7653 7.18262C11.7834 7.20088 11.7754 7.24349 11.7371 7.30842C11.8015 7.3348 11.8197 7.36726 11.7955 7.40582C11.7834 7.40582 11.7693 7.4119 11.7572 7.42611C11.6283 7.52959 11.3786 7.71627 11.008 7.98816C10.9435 7.96179 10.9093 7.9557 10.9032 7.96787C10.8972 7.98005 10.8992 8.00034 10.9133 8.02672L10.7018 8.08556C10.6515 8.11194 10.589 8.13426 10.5185 8.15252C10.448 8.17281 10.3353 8.2073 10.1822 8.25803C10.156 8.27021 10.0674 8.30267 9.9143 8.35543C9.87603 8.34325 9.85589 8.34325 9.85589 8.35543C9.85589 8.3676 9.86193 8.38789 9.87603 8.41427C9.7995 8.4021 9.72296 8.42036 9.64642 8.47311C9.64642 8.49949 9.64038 8.52384 9.62628 8.55022C9.58801 8.55022 9.5437 8.54413 9.49133 8.52993C9.47925 8.52993 9.46918 8.54007 9.46313 8.55834C9.45709 8.57863 9.45911 8.60703 9.47321 8.64559C9.29395 8.60703 9.13282 8.6395 8.99384 8.74298C8.94349 8.74298 8.90321 8.74907 8.87904 8.76327C8.75013 8.80183 8.64137 8.85458 8.55275 8.91748C8.51448 8.94386 8.47218 8.96009 8.42787 8.96618C8.38356 8.97227 8.3614 8.99459 8.3614 9.03314C8.31105 9.03314 8.27077 9.05343 8.2466 9.09198L7.57388 9.3233C7.52352 9.28475 7.48324 9.29084 7.45907 9.34359C7.38253 9.36997 7.27981 9.41461 7.15091 9.47954C7.08645 9.55664 7.01596 9.63375 6.93942 9.71086C6.92734 9.72303 6.91727 9.73723 6.91122 9.74941C6.90518 9.76158 6.9072 9.77782 6.9213 9.79811C6.93338 9.8184 6.93741 9.83463 6.93137 9.8468C6.92532 9.85898 6.89511 9.85898 6.84476 9.8468C6.72995 9.8468 6.60709 9.84072 6.4802 9.82651L5.6544 10.2323C5.60405 10.2323 5.5255 10.2587 5.42479 10.3094C5.30999 10.3865 5.19518 10.4454 5.07836 10.4839C4.64331 10.6381 4.28479 10.8269 4.00281 11.046C3.97663 11.0582 3.96656 11.0785 3.97462 11.1048C3.98066 11.1312 4.00281 11.1556 4.04108 11.1819C4.06727 11.1698 4.09949 11.1819 4.13776 11.2205C4.24048 11.2469 4.3291 11.2651 4.40564 11.2793C4.99377 11.0724 5.48119 10.8735 5.86589 10.6787C6.08342 10.5509 6.33921 10.4474 6.63327 10.3683C6.74808 10.3176 6.93338 10.2404 7.19119 10.137C7.62624 9.91782 8.13179 9.70477 8.70783 9.4978C8.79646 9.45925 8.88105 9.41461 8.95759 9.36185C9.26575 9.28475 9.55377 9.18735 9.82165 9.07169C9.92437 9.05952 10.0331 9.02097 10.1479 8.95604C10.2366 8.90531 10.3272 8.86676 10.4158 8.84038C10.5185 8.78965 10.6011 8.76327 10.6656 8.76327C10.7542 8.7511 10.8388 8.73081 10.9153 8.70443C10.9536 8.69226 10.9979 8.69226 11.0503 8.70443C11.294 8.56239 11.576 8.45282 11.8962 8.37572C12.0634 8.32499 12.2285 8.27224 12.3957 8.22151C12.434 8.20933 12.5045 8.20122 12.6072 8.20122C12.6576 8.18904 12.7039 8.16875 12.7421 8.14237C12.7925 8.14237 12.8449 8.1302 12.8952 8.10382C13.0483 8.03889 13.2094 8.00034 13.3746 7.98816C13.4511 7.89888 13.5599 7.83395 13.7009 7.7954L14.2185 7.73656C14.2568 7.698 14.289 7.65336 14.3152 7.60061C14.43 7.63916 14.5206 7.6067 14.5831 7.50321C14.6717 7.3348 14.8127 7.25161 15.006 7.25161C15.3525 7.25161 15.6324 7.28407 15.852 7.349C16.0574 7.64525 16.2991 7.89685 16.5811 8.10382C16.8752 8.18093 17.0987 8.38789 17.2538 8.72269L18.138 9.53432C18.138 9.58505 18.0937 9.63172 18.0031 9.67027C18.1561 9.77376 18.279 9.85695 18.3676 9.92188C18.3938 10.0517 18.4945 10.1796 18.6758 10.3094C18.7644 10.3602 18.8289 10.4393 18.8671 10.5408C18.9819 10.7863 18.9638 11.044 18.8087 11.3138C18.706 11.3909 18.5972 11.4944 18.4824 11.6243L18.0977 11.7217C18.0212 11.7095 17.9769 11.7278 17.9628 11.7805C17.8218 11.9104 17.7009 12.0382 17.5982 12.1681C17.56 12.2452 17.5156 12.3162 17.4633 12.3811C17.4512 12.5232 17.3928 12.651 17.2901 12.7687C17.2397 12.8336 17.1994 12.8904 17.1753 12.9432C17.1491 13.0588 17.1048 13.1623 17.0403 13.2536L17.002 13.4078C16.9376 13.485 16.8409 13.627 16.714 13.834C16.6375 13.9882 16.5468 14.1566 16.4461 14.3372C16.2669 14.607 16.146 14.8526 16.0816 15.0717C16.0554 15.1874 15.9909 15.2645 15.8902 15.303C15.8258 15.3679 15.8137 15.4329 15.852 15.4958C15.852 15.5729 15.8077 15.6703 15.717 15.7859C15.6526 15.863 15.6203 15.9604 15.6203 16.0761L15.3525 16.5408L15.141 16.9851C15.1027 16.9851 15.0826 17.0298 15.0826 17.1211C15.0443 17.2103 15 17.3017 14.9476 17.3909C14.857 17.5451 14.7744 17.7136 14.6979 17.8941C14.6858 17.9976 14.6475 18.0869 14.5831 18.164C14.5327 18.164 14.4864 18.2147 14.4481 18.3182C14.3978 18.3182 14.3514 18.3365 14.3132 18.3771C14.3394 18.442 14.3253 18.4866 14.2749 18.513C14.2487 18.5252 14.2165 18.5333 14.1782 18.5333C14.152 18.4826 14.1238 18.4562 14.0916 18.4562C14.0594 18.4562 14.0252 18.4826 13.9869 18.5333C13.9869 18.5719 13.9748 18.5922 13.9486 18.5922C13.9103 18.6307 13.8137 18.7017 13.6606 18.8052C13.5579 18.8052 13.4874 18.8559 13.4491 18.9594C13.3726 18.8945 13.3021 18.8945 13.2376 18.9594C13.147 18.998 13.0906 18.9716 13.0644 18.8823C12.9234 18.7017 12.7562 18.6896 12.5649 18.8438C12.5005 18.9087 12.436 18.9412 12.3736 18.9412H12.297C12.2708 18.9148 12.2527 18.9087 12.2386 18.9209C12.2265 18.933 12.2124 18.9533 12.2003 18.9797C12.1621 18.9919 12.1258 19 12.0956 19C12.0654 19 12.0473 18.9614 12.0473 18.8843C12.009 18.8458 11.9647 18.8255 11.9123 18.8255C11.8861 18.8377 11.8579 18.8417 11.8257 18.8356C11.7935 18.8296 11.7774 18.7991 11.7774 18.7484C11.7512 18.6327 11.7109 18.584 11.6525 18.6023C11.5941 18.6226 11.5538 18.651 11.5276 18.6896C11.5014 18.7281 11.4833 18.7159 11.4692 18.651C11.4309 18.5739 11.3866 18.509 11.3343 18.4582L11.1993 18.2269C11.2255 18.1498 11.2054 18.0788 11.1409 18.0139C11.0906 17.9226 11.0261 17.8394 10.9496 17.7623C10.2205 16.8471 9.50946 16.0274 8.81861 15.305C8.71589 15.2016 8.60713 15.1691 8.49232 15.2076C8.42787 15.234 8.36342 15.2462 8.30098 15.2462C8.33925 15.1813 8.40974 15.1427 8.51246 15.1305C8.52455 15.1042 8.52858 15.0859 8.52253 15.0717C8.51649 15.0595 8.49434 15.0656 8.45607 15.092C8.37953 15.092 8.30299 15.1123 8.22646 15.1508C8.22646 15.1245 8.25868 15.092 8.32313 15.0534C8.38759 15.0413 8.41981 15.0027 8.41981 14.9378L8.01698 15.2076C8.01698 15.1427 8.07137 15.092 8.18013 15.0534C8.28889 15.0149 8.33119 14.9378 8.30501 14.8221L8.11366 14.9966C7.99886 15.0473 7.876 15.094 7.7491 15.1326L8.24861 14.745C8.24861 14.7065 8.23653 14.674 8.21034 14.6476L7.88405 14.3777C7.73098 14.4163 7.58395 14.4366 7.44296 14.4366C7.46914 14.5522 7.46914 14.6679 7.44296 14.7856C7.35232 14.7856 7.31405 14.8444 7.32815 14.9601C7.22543 14.9094 7.16098 14.883 7.13681 14.883C6.85483 14.7146 6.65744 14.5725 6.54062 14.4569C6.44999 14.4183 6.40568 14.3676 6.40568 14.3027C6.44394 14.2519 6.42582 14.187 6.34727 14.1099C6.29691 14.0592 6.24455 14.0064 6.19419 13.9557C6.16801 13.905 6.15592 13.834 6.15592 13.7426C6.11766 13.6655 6.09751 13.5966 6.09751 13.5397V13.3551L6.0391 13.0264C6.0391 12.8843 5.99479 12.7423 5.90416 12.6003C5.94243 12.5232 5.9243 12.4724 5.84575 12.4461C5.79539 12.4339 5.74705 12.4116 5.70274 12.3791C5.65843 12.3466 5.66045 12.304 5.71281 12.2533C5.739 12.2269 5.74705 12.2087 5.74101 12.1945C5.73497 12.1823 5.71281 12.1823 5.67455 12.1945C5.63628 12.1559 5.61614 12.1234 5.61614 12.0971C5.47515 12.1478 5.3543 12.2066 5.25158 12.2716C5.16094 12.2979 5.11663 12.3304 5.11663 12.369C5.09045 12.4461 5.06628 12.5232 5.04009 12.6003C5.09045 12.7809 5.13677 12.9107 5.17504 12.9878C5.13677 13.0528 5.14886 13.1035 5.21331 13.142C5.25158 13.2455 5.2838 13.3429 5.30999 13.4322C5.36034 13.4586 5.40667 13.491 5.44493 13.5296C5.4832 13.6595 5.51543 13.7771 5.54161 13.8867C5.5678 13.9963 5.58592 14.0835 5.60002 14.1485C5.56175 14.3169 5.57988 14.4772 5.65843 14.6314C5.68462 14.7349 5.70274 14.8241 5.71684 14.9013C5.67857 14.9398 5.68462 14.9784 5.73698 15.0169C5.7249 15.0818 5.66649 15.1021 5.56377 15.0758C5.56377 15.2442 5.49932 15.372 5.37242 15.4633C5.30797 15.4633 5.27575 15.5282 5.27575 15.6561C5.14684 15.6561 5.0844 15.7068 5.0844 15.8103C5.00787 15.7981 4.93133 15.7778 4.85479 15.7514C4.7138 15.6743 4.60504 15.7007 4.5285 15.8285L4.29889 15.6743C4.11963 15.5972 3.99073 15.4613 3.91419 15.2685C3.79939 15.1143 3.74098 14.9581 3.74098 14.8039C3.70271 14.7004 3.70875 14.5969 3.76112 14.4934C3.72285 14.325 3.68458 14.1525 3.64631 13.9719C3.51741 13.4302 3.32606 12.9087 3.07027 12.4055C3.032 12.2634 2.94942 12.2066 2.82052 12.231L2.51235 11.882C2.40963 11.8049 2.29483 11.6831 2.16592 11.5147C2.12765 11.3463 2.07528 11.2306 2.01285 11.1657C2.00076 11.1272 1.99673 11.1048 2.00278 11.0987C2.00882 11.0927 2.04507 11.1028 2.10751 11.1272C2.15786 11.1008 2.18405 11.044 2.18405 10.9527C2.2344 10.9141 2.24246 10.8755 2.20419 10.837C2.51235 10.9019 2.82454 10.9405 3.14479 10.9527C3.24751 10.9912 3.34218 10.9851 3.43281 10.9324C3.49726 10.8431 3.58589 10.8553 3.70069 10.9709C3.86787 11.0095 4.00886 10.977 4.12366 10.8735C4.48218 10.5773 4.87896 10.3115 5.31402 10.0801C5.22338 10.0416 5.14684 9.99087 5.0844 9.92594C4.90515 9.84883 4.83465 9.73318 4.87292 9.57694C4.83465 9.40852 4.83465 9.30707 4.87292 9.26649C4.99981 9.163 5.12267 9.05343 5.23748 8.93777C5.24956 8.9256 5.2697 8.92763 5.29589 8.94792C5.32207 8.96821 5.34624 9.00879 5.37242 9.07372C5.56377 9.07372 5.73698 9.01488 5.89006 8.89922C5.86387 8.8485 5.85179 8.78356 5.85179 8.70646C5.87797 8.62935 5.87193 8.57051 5.83165 8.53196V8.3189C5.882 8.00845 5.90819 7.79743 5.90819 7.67974C5.90819 7.47278 5.90214 7.26784 5.88804 7.06087C5.62016 6.97159 5.35027 6.89246 5.08239 6.82956C4.97967 6.791 4.88299 6.81738 4.79437 6.90666C4.79437 6.85594 4.82659 6.79709 4.89105 6.73216C4.89105 6.62868 4.82055 6.55766 4.67956 6.51911C4.64129 6.51911 4.61511 6.50693 4.60303 6.48055C4.59094 6.45418 4.59094 6.42171 4.60303 6.38316C4.79437 6.34461 4.97967 6.32432 5.16094 6.32432C5.11059 6.29794 5.05822 6.27359 5.00787 6.24721C4.93133 6.23504 4.84069 6.21474 4.73999 6.18837C5.04815 6.13764 5.3543 6.13764 5.66246 6.18837C6.02098 5.93067 6.55875 5.5695 7.27578 5.10484C7.35232 5.06628 7.41677 5.02164 7.46713 4.96889C7.42886 4.90396 7.37045 4.89178 7.29391 4.93033C7.22946 4.99527 7.17306 5.03991 7.12069 5.06628C7.00589 5.06628 6.89713 5.10484 6.7944 5.18194C6.72995 5.14339 6.65342 5.16977 6.56479 5.25905C6.33518 5.35036 6.07133 5.45993 5.77727 5.58776C5.72691 5.65269 5.70677 5.7095 5.71886 5.76226C5.64232 5.77443 5.57182 5.75008 5.50737 5.68515C5.43083 5.68515 5.3543 5.70544 5.27776 5.744C5.21331 5.67907 5.13677 5.6466 5.04815 5.6466C4.9837 5.60805 4.9132 5.56341 4.83667 5.51065C4.78631 5.45993 4.6997 5.41123 4.57684 5.36456C4.45599 5.31992 4.4137 5.24484 4.45197 5.14136C4.42578 5.10281 4.4137 5.04396 4.4137 4.96686C4.29889 4.81265 4.24048 4.66452 4.24048 4.52249C4.27875 4.29117 4.22034 4.08421 4.06727 3.90362C4.07935 3.87724 4.12568 3.88333 4.20221 3.92391C4.24048 3.91173 4.26062 3.87318 4.26062 3.80825C4.32507 3.83463 4.38147 3.83463 4.43384 3.80825C4.57483 3.8468 4.70172 3.92391 4.81854 4.03957C4.88299 4.1816 4.97765 4.279 5.10656 4.32973C5.33617 4.25262 5.50939 4.18769 5.62419 4.13696C5.80345 4.09841 5.97667 4.03957 6.14182 3.96246C6.16801 3.97464 6.18614 3.98275 6.20023 3.98275C6.30296 3.9442 6.40568 3.89956 6.5084 3.8468C6.73801 3.79608 6.89914 3.74332 6.98776 3.69259C7.16702 3.62766 7.34024 3.55665 7.50539 3.47954C7.58193 3.45316 7.65243 3.4207 7.71688 3.38214C7.66653 3.35577 7.58193 3.34359 7.46713 3.34359C7.40267 3.30504 7.28183 3.25431 7.10257 3.18938C7.01193 3.22793 6.95554 3.22185 6.92935 3.16909C6.91727 3.14271 6.94949 3.11025 7.02603 3.07169C6.98776 3.00676 6.91122 2.99459 6.79642 3.03314C6.93741 2.94386 7.0784 2.87893 7.21939 2.84038C7.47518 2.80183 7.68667 2.68008 7.85384 2.47311C7.85384 2.33108 7.77126 2.21542 7.60409 2.12411C7.47518 2.08556 7.3926 2.01454 7.35433 1.91106C7.2637 1.83395 7.18716 1.75685 7.12472 1.67974C7.04819 1.64119 6.97769 1.59046 6.91324 1.52553C6.88705 1.49915 6.87094 1.48089 6.8649 1.46669C6.85886 1.45451 6.86087 1.44437 6.87497 1.43828C6.88706 1.43219 6.90921 1.42814 6.94144 1.42814C6.97366 1.42814 6.98978 1.42205 6.98978 1.40785C6.98978 1.39364 6.97366 1.37944 6.94144 1.35915C6.90921 1.33886 6.88706 1.32465 6.87497 1.31045C6.86289 1.29828 6.86893 1.2719 6.89511 1.23334C6.75412 1.18262 6.70377 1.10551 6.74204 1.00203L6.71988 1ZM5.41472 9.95637C5.40264 9.96855 5.39257 9.97869 5.38652 9.98478C5.38048 9.99087 5.38048 9.99493 5.38652 9.99493C5.39257 9.99493 5.40667 9.9929 5.42479 9.98478C5.44493 9.97869 5.45098 9.97261 5.44493 9.96449C5.43889 9.9584 5.42882 9.95435 5.41674 9.95435L5.41472 9.95637ZM10.6192 9.91782C10.2486 10.072 9.81964 10.2283 9.33222 10.3825C9.01197 10.486 8.69776 10.628 8.39161 10.8086C8.04518 10.9242 7.6484 11.0927 7.20126 11.3118C7.03409 11.4031 6.86893 11.4863 6.70175 11.5634C6.61112 11.5634 6.54062 11.5959 6.49027 11.6608C6.26066 11.7379 6.04917 11.8353 5.85582 11.951C5.84373 11.9631 5.8397 11.9794 5.84575 11.9997C5.85179 12.02 5.87999 12.0281 5.93235 12.0281C6.14988 12.0544 6.43186 12.1194 6.77628 12.2208C7.86391 11.7318 8.9455 11.1434 10.0211 10.4596C10.2768 10.3825 10.4762 10.2344 10.6172 10.0152C10.6676 9.97667 10.6918 9.95029 10.6837 9.93811C10.6777 9.92594 10.6555 9.91782 10.6172 9.91782H10.6192ZM6.14585 6.06865C6.10758 6.08083 6.0955 6.09503 6.10758 6.1072C6.11967 6.11938 6.13377 6.12749 6.14585 6.12749C6.17204 6.12749 6.18815 6.12141 6.19419 6.1072C6.20023 6.09503 6.18412 6.08083 6.14585 6.06865ZM10.6394 11.119L10.4279 11.2164C10.3776 11.2164 10.3252 11.2388 10.2748 11.2834C10.2245 11.328 10.1721 11.3646 10.1218 11.3889C9.96868 11.4802 9.80755 11.5634 9.64239 11.6405C9.59204 11.6669 9.5014 11.7054 9.37451 11.7562C9.32416 11.7683 9.27783 11.8069 9.23957 11.8718C8.98377 11.9631 8.78437 12.0585 8.64338 12.162C8.43794 12.2269 8.22646 12.3487 8.00893 12.5293C7.98274 12.5171 7.96462 12.513 7.95052 12.5191C7.93642 12.5252 7.92434 12.5475 7.91225 12.5861C7.88607 12.5739 7.86794 12.5698 7.85384 12.5759C7.84176 12.582 7.8337 12.6043 7.8337 12.6429L7.19925 12.9919C7.16098 13.1075 7.1791 13.2049 7.25766 13.282L9.42688 12.7788C9.57995 12.7667 9.7149 12.7078 9.82971 12.6043L9.98278 12.3345C10.2124 11.884 10.4299 11.5086 10.6354 11.2124C10.6736 11.1738 10.6938 11.1474 10.6938 11.1353C10.6938 11.1231 10.6736 11.115 10.6354 11.115L10.6394 11.119ZM10.581 5.37268C9.68469 5.86371 8.78236 6.36693 7.87398 6.88231C7.72091 6.94724 7.54769 7.05073 7.35635 7.19276C7.33016 7.36118 7.31808 7.60467 7.31808 7.92729C7.27981 8.0815 7.29794 8.19716 7.37649 8.27629C7.95253 8.00643 8.52253 7.72844 9.08649 7.44437C9.12476 7.40582 9.16303 7.36726 9.2013 7.32871C9.27783 7.26378 9.3443 7.19073 9.40271 7.10551C9.46112 7.02232 9.5155 6.97971 9.56586 6.97971C9.93646 6.56781 10.3091 6.07677 10.6797 5.50862C10.6918 5.4579 10.6958 5.41934 10.6897 5.39297C10.6837 5.36659 10.6474 5.3605 10.585 5.37268H10.581ZM8.18013 14.2722C8.08949 14.2722 8.01296 14.2986 7.95052 14.3493C7.98879 14.4264 8.07137 14.4853 8.20027 14.5238C8.20027 14.5117 8.20631 14.5076 8.22041 14.5137C8.2325 14.5198 8.24055 14.5502 8.24055 14.6009C8.26674 14.6273 8.29091 14.6456 8.31709 14.6598C8.39363 14.6598 8.45808 14.6273 8.50843 14.5624C8.50843 14.5238 8.52052 14.5036 8.5467 14.5036C8.58497 14.4772 8.60109 14.4589 8.59504 14.4447C8.589 14.4325 8.55879 14.4244 8.50843 14.4244C8.40571 14.2824 8.29695 14.2317 8.18214 14.2702L8.18013 14.2722ZM8.87098 14.1566C8.66554 14.1566 8.49232 14.189 8.35335 14.254L8.67964 14.4285C8.74409 14.3635 8.83271 14.2925 8.94752 14.2154C8.9596 14.189 8.96363 14.1708 8.95759 14.1566C8.95154 14.1444 8.92133 14.1444 8.87098 14.1566ZM8.42988 14.6983V14.7186C8.45607 14.745 8.47218 14.7552 8.47822 14.747C8.48427 14.741 8.48829 14.7308 8.48829 14.7186C8.48829 14.7065 8.48427 14.6923 8.47822 14.6801C8.47218 14.6679 8.45607 14.674 8.42988 14.6983ZM8.48829 14.6598L8.46815 14.6801C8.50642 14.6801 8.51246 14.674 8.48829 14.6598ZM8.56483 14.8343C8.56483 14.8607 8.58497 14.8789 8.62324 14.8931C8.63533 14.8546 8.64338 14.8282 8.64338 14.816C8.64338 14.8039 8.63734 14.7978 8.62324 14.7978C8.60914 14.7978 8.59101 14.8099 8.56483 14.8363V14.8343ZM8.64137 14.6983C8.64137 14.7633 8.67964 14.8018 8.75617 14.814C8.75617 14.7633 8.7461 14.7268 8.72798 14.7085C8.70783 14.6902 8.67964 14.6862 8.64137 14.6983ZM9.12073 11.7765C9.08246 11.7886 9.06232 11.8028 9.06232 11.815C9.06232 11.8272 9.08246 11.8475 9.12073 11.8739C9.159 11.8353 9.159 11.8028 9.12073 11.7765ZM9.29395 14.8526V14.9114C9.42084 14.95 9.51752 15.0149 9.58197 15.1042C9.59405 15.1042 9.60815 15.094 9.62024 15.0758C9.63232 15.0575 9.6142 15.0271 9.56183 14.9885C9.48529 14.9378 9.39465 14.8911 9.29395 14.8526ZM9.62024 14.6009L9.52356 14.6781C9.44702 14.7166 9.38257 14.7612 9.33222 14.814C9.40875 14.8789 9.50543 14.9357 9.62024 14.9885C9.65851 14.9499 9.69073 14.9439 9.71692 14.9682C9.75518 14.9297 9.79345 14.9418 9.83172 15.0068C9.88208 15.0453 9.92034 15.0575 9.94653 15.0453V14.9966C9.94653 14.9763 9.95056 14.9621 9.9566 14.9479C9.96264 14.9357 9.97875 14.9418 10.0049 14.9662C10.017 14.954 10.0271 14.954 10.0331 14.9662C10.0392 14.9784 10.0432 14.9986 10.0432 15.025H10.1197C10.1197 15.0129 10.1359 15.023 10.1681 15.0534C10.2003 15.0859 10.2547 15.1021 10.3312 15.1021C10.3574 15.1529 10.3957 15.161 10.446 15.1204C10.2668 14.952 10.0351 14.8039 9.75518 14.676C9.75518 14.6375 9.7431 14.6111 9.71692 14.5989C9.69073 14.5867 9.65851 14.5867 9.62024 14.5989V14.6009ZM13.7673 9.24214C13.4854 9.21576 13.2094 9.23605 12.9415 9.30098C12.7623 9.30098 12.6092 9.33345 12.4803 9.39838C11.9546 9.50186 11.3927 9.66216 10.7905 9.8813C10.7784 9.89347 10.7743 9.90362 10.7804 9.90971C10.7864 9.91579 10.8227 9.91985 10.8851 9.91985C11.0523 9.89347 11.294 9.8813 11.6142 9.8813C11.7552 9.8813 11.8257 9.93203 11.8257 10.0355C12.0432 10.2668 12.2547 10.5509 12.4602 10.8857C12.5629 11.0785 12.6273 11.253 12.6515 11.4072C12.5488 11.4721 12.4984 11.5817 12.4984 11.7359C12.4481 11.7866 12.3957 11.8515 12.3454 11.9286C12.2165 11.9936 12.1339 12.0707 12.0956 12.16C11.9667 12.2513 11.8841 12.3527 11.8459 12.4704C11.7431 12.5475 11.7311 12.6449 11.8076 12.7606C11.8841 12.7991 11.9043 12.8762 11.866 12.9919C11.866 13.1339 11.9546 13.2232 12.1339 13.2618C12.0694 13.3003 12.0312 13.3531 12.0191 13.416C12.1218 13.4545 12.1601 13.5316 12.1339 13.6473C12.1218 13.6737 12.1399 13.7244 12.1923 13.8015C12.1802 13.84 12.1661 13.8786 12.154 13.9171C12.1037 13.9293 11.9929 13.9943 11.8277 14.1099C11.6988 14.1363 11.584 14.1931 11.4813 14.2844L11.1349 14.3818C11.0321 14.4589 10.9435 14.4589 10.867 14.3818C10.7643 14.3696 10.6756 14.3696 10.5991 14.3818C10.6636 14.3554 10.7139 14.3169 10.7522 14.2661C10.5608 14.2661 10.4138 14.2986 10.3111 14.3635C10.2345 14.3372 10.1641 14.3372 10.0996 14.3635C10.0734 14.325 10.0412 14.3189 10.0029 14.3433C9.99084 14.3554 9.9707 14.3798 9.94451 14.4102C9.91833 14.4427 9.87402 14.4589 9.80957 14.4589C9.80957 14.4853 9.79748 14.4975 9.7713 14.4975C9.74511 14.5238 9.72094 14.5421 9.69476 14.5563C9.79748 14.607 9.88409 14.6618 9.95458 14.7207C10.0251 14.7795 10.0976 14.8262 10.1761 14.8647C10.1761 14.9155 10.2084 14.9418 10.2728 14.9418C10.2728 14.9804 10.293 15.0068 10.3312 15.0189C10.3957 15.0189 10.4722 15.0453 10.5608 15.096C10.5729 15.1224 10.587 15.1326 10.5991 15.1245C10.6112 15.1184 10.6192 15.1082 10.6192 15.096C10.6575 15.0575 10.722 15.0839 10.8106 15.1731C10.8227 15.1731 10.8368 15.163 10.8489 15.1447C10.8609 15.1245 10.8428 15.096 10.7905 15.0575C10.6615 14.9682 10.5347 14.8972 10.4058 14.8444L10.3856 14.8262C10.436 14.8526 10.4883 14.8708 10.5387 14.885C10.7441 14.9885 11.0382 15.1691 11.4229 15.4268C11.4612 15.4004 11.5256 15.4004 11.6142 15.4268C11.588 15.3375 11.5538 15.2726 11.5095 15.234C11.4652 15.1955 11.4229 15.1569 11.3846 15.1184C11.4612 15.0798 11.5256 15.092 11.576 15.1569C11.729 15.234 11.8519 15.1955 11.9405 15.0413L12.4783 14.0348C12.7462 13.5052 13.0221 12.9716 13.3041 12.4298C13.7009 11.6182 14.1742 10.5854 14.7261 9.33547C14.6878 9.25837 14.6113 9.23808 14.4965 9.27663C14.4844 9.31518 14.4642 9.33547 14.4381 9.33547C14.4119 9.33547 14.3877 9.3233 14.3615 9.29692C14.3112 9.29692 14.2527 9.29083 14.1883 9.27663C14.009 9.23808 13.868 9.2259 13.7653 9.23808L13.7673 9.24214ZM9.7149 15.1224L9.73504 15.1813C9.76123 15.1813 9.77331 15.163 9.77331 15.1224C9.77331 15.1102 9.76727 15.1062 9.75317 15.1123C9.74109 15.1184 9.72699 15.1224 9.7149 15.1224ZM10.3675 11.0399L10.2144 11.1373C10.2023 11.1637 10.1983 11.1819 10.2043 11.1961C10.2104 11.2083 10.2466 11.2083 10.3091 11.1961C10.3594 11.1576 10.3917 11.1251 10.4058 11.0987C10.4178 11.0724 10.4058 11.0541 10.3675 11.0399ZM10.7139 10.904C10.6112 10.9425 10.5226 10.9871 10.446 11.0399C10.5347 11.0663 10.6374 11.0399 10.7542 10.9628C10.7804 10.9242 10.7864 10.9019 10.7743 10.8958C10.7623 10.8898 10.7421 10.8938 10.7159 10.906L10.7139 10.904ZM10.7522 10.9242C10.585 10.9242 10.4843 10.9628 10.444 11.0399C10.4944 11.0399 10.6112 11.0135 10.7905 10.9628V10.9425C10.7905 10.904 10.7784 10.8979 10.7522 10.9222V10.9242ZM10.7522 15.1813H10.6938C10.732 15.2076 10.7522 15.2178 10.7522 15.2097V15.1813Z" fill="#8E949C" stroke-dasharray="0,0,0,183.3951873779297"><animate attributeType="XML" attributeName="stroke-dasharray" repeatCount="1" dur="2.5s" values="0,0,0,183.3951873779297; 
          0,91.69759368896484,91.69759368896484,0; 
          183.3951873779297,0,0,0" keyTimes="0; 0.5; 1" fill="freeze"></animate></path>
<setting>{"type":"direct","speed":20,"random":1,"shift":1,"size":1,"rupture":50}</setting></svg>