<svg width="19" height="18" viewBox="0 0 19 18" fill="none" xmlns="http://www.w3.org/2000/svg">
<path d="M17.0327 12.9433L10.8801 6.7937C10.6764 6.57565 10.5653 6.28694 10.5703 5.98852C10.5754 5.6901 10.6961 5.40531 10.9071 5.19427C11.1181 4.98322 11.4028 4.86243 11.7011 4.85739C11.9994 4.85236 12.288 4.96347 12.506 5.16727L18.6585 11.3207C18.853 11.5403 18.9563 11.8259 18.9473 12.1192C18.9382 12.4125 18.8176 12.6912 18.6099 12.8984C18.4023 13.1056 18.1234 13.2257 17.8302 13.234C17.537 13.2423 17.2517 13.1383 17.0327 12.9433ZM11.4443 12.8494L7.27878 8.68113V11.9918C7.28394 12.1461 7.25802 12.2998 7.20257 12.4439C7.14711 12.5879 7.06325 12.7193 6.95599 12.8303C6.84872 12.9412 6.72024 13.0294 6.57818 13.0897C6.43613 13.15 6.28341 13.181 6.12911 13.181C5.97482 13.181 5.82209 13.15 5.68004 13.0897C5.53799 13.0294 5.4095 12.9412 5.30224 12.8303C5.19497 12.7193 5.11112 12.5879 5.05566 12.4439C5.00021 12.2998 4.97429 12.1461 4.97944 11.9918V6.11098C4.9337 5.88192 4.95833 5.64437 5.05009 5.42958C5.14185 5.21478 5.29645 5.0328 5.49355 4.90755C5.62071 4.82275 5.76353 4.7642 5.91361 4.73535C6.0637 4.7065 6.21803 4.70792 6.36756 4.73954C6.51709 4.77116 6.65879 4.83233 6.78437 4.91947C6.90995 5.00661 7.01687 5.11795 7.09885 5.24698L13.0715 11.223C13.2805 11.4402 13.3959 11.7307 13.393 12.0322C13.39 12.3336 13.269 12.6219 13.0558 12.835C12.8426 13.0481 12.5544 13.169 12.253 13.1717C11.9517 13.1744 11.6613 13.0586 11.4443 12.8494ZM1.00154 11.9918V5.86541C1.03162 5.58119 1.16577 5.31817 1.37816 5.127C1.59056 4.93584 1.86615 4.83007 2.15186 4.83007C2.43756 4.83007 2.71316 4.93584 2.92555 5.127C3.13794 5.31817 3.2721 5.58119 3.30217 5.86541V11.9918C3.31924 12.1532 3.30221 12.3163 3.25218 12.4706C3.20215 12.6249 3.12024 12.767 3.01177 12.8876C2.90329 13.0082 2.77068 13.1046 2.62254 13.1707C2.4744 13.2367 2.31403 13.2708 2.15186 13.2708C1.98968 13.2708 1.82932 13.2367 1.68117 13.1707C1.53303 13.1046 1.40042 13.0082 1.29195 12.8876C1.18347 12.767 1.10156 12.6249 1.05153 12.4706C1.0015 12.3163 0.984473 12.1532 1.00154 11.9918Z" fill="#B1BAD3"/>
</svg>
