<svg width="18" height="18" viewBox="0 0 18 18" fill="none" xmlns="http://www.w3.org/2000/svg">
<path d="M12.6487 10.8009C13.0743 10.7609 13.501 10.8662 13.8591 11.0997C14.2172 11.3332 14.4858 11.681 14.621 12.0866C14.8559 12.5835 14.9817 13.1249 14.99 13.6744C15.0658 14.6479 14.7923 15.6165 14.2185 16.4066C14.0644 16.6246 13.859 16.8014 13.6204 16.9214C13.3819 17.0414 13.1175 17.1008 12.8505 17.0944C12.2 17.0944 11.5494 17.1022 10.8988 17.0944C10.7675 17.1011 10.6361 17.0804 10.5131 17.0338C10.3901 16.9872 10.2781 16.9156 10.1842 16.8235C10.0902 16.7315 10.0163 16.6211 9.96718 16.4991C9.91802 16.3771 9.89462 16.2462 9.89852 16.1147C9.8818 15.6364 9.89854 15.1556 9.89083 14.6773C9.88924 14.6278 9.88493 14.5785 9.87796 14.5294L8.18339 15.3099C8.18339 15.5117 8.18339 15.7431 8.18339 15.9733C8.19548 16.1236 8.17487 16.2747 8.12305 16.4163C8.07122 16.558 7.98942 16.6867 7.88315 16.7937C7.77689 16.9007 7.64875 16.9834 7.5075 17.0362C7.36625 17.089 7.21522 17.1106 7.06483 17.0996C6.86169 17.0996 6.65851 17.0996 6.43994 17.0996V17.8106H6.72794C8.65651 17.8106 10.5851 17.8106 12.5072 17.8106C12.8918 17.8147 13.2762 17.7884 13.6567 17.7322C14.4838 17.5991 15.2425 17.1927 15.8116 16.5779C16.3807 15.9631 16.7274 15.1754 16.7964 14.3404C16.8718 13.5033 16.6718 12.6645 16.2266 11.9515C15.7815 11.2385 15.1157 10.6905 14.3304 10.3907C14.225 10.3522 14.117 10.3162 13.9614 10.2622C14.0771 10.2056 14.1427 10.1722 14.2096 10.1413C14.9118 9.81798 15.4817 9.26327 15.8238 8.57003C16.166 7.87679 16.2597 7.08708 16.0892 6.33302C15.9184 5.57487 15.4899 4.89944 14.8768 4.42187C14.2637 3.94429 13.504 3.69409 12.7271 3.71399C10.7154 3.71399 8.70363 3.71745 6.69192 3.72431H6.44512V4.30156C6.67012 4.30156 6.87581 4.31442 7.07895 4.30156C7.22763 4.29314 7.37645 4.31603 7.51574 4.3687C7.65503 4.42137 7.78172 4.50268 7.88763 4.60738C7.99353 4.71207 8.07623 4.8378 8.1305 4.97648C8.18477 5.11515 8.20941 5.26367 8.2027 5.41244C8.17313 7.89515 8.18593 10.3779 8.18465 12.8606C8.18465 12.9506 8.18465 13.0393 8.18465 13.1357C8.21192 13.1306 8.23863 13.1229 8.26438 13.1126C8.29307 13.0942 8.32059 13.074 8.3467 13.0521C8.83416 12.6775 9.22835 12.1952 9.49846 11.643C9.76856 11.0907 9.90726 10.4835 9.9037 9.86873C9.9037 8.1133 9.9037 6.35615 9.9037 4.59729V4.31059C10.0078 4.30416 10.0823 4.29517 10.1608 4.29517C10.9322 4.29517 11.7037 4.29517 12.4751 4.29517C12.7164 4.28876 12.9552 4.34451 13.1687 4.4571C13.3821 4.56968 13.563 4.73531 13.694 4.93803C13.9911 5.38524 14.1915 5.88954 14.2825 6.41867C14.3735 6.9478 14.3531 7.4901 14.2224 8.01086C14.1795 8.38746 14.0459 8.74802 13.8329 9.06155C13.6199 9.37508 13.3339 9.6322 12.9996 9.81085C12.9581 9.83831 12.928 9.87988 12.9148 9.92786C12.821 10.2107 12.7387 10.4949 12.6487 10.8009Z" fill="#B1BAD3"/>
<path d="M9.72234 18.0011H6.25098V16.9134H7.06098C7.18663 16.9242 7.3131 16.9074 7.43154 16.8641C7.54998 16.8208 7.65746 16.752 7.74645 16.6626C7.83544 16.5733 7.9038 16.4655 7.94664 16.3469C7.98947 16.2282 8.00572 16.1017 7.99435 15.9761C7.99435 15.8154 7.99435 15.6547 7.99435 15.503V15.1854L10.0413 14.2442L10.0669 14.5091V14.5284C10.0738 14.5765 10.0777 14.6251 10.0785 14.6737C10.0785 14.8357 10.0785 14.9977 10.0785 15.1597C10.0785 15.4708 10.0785 15.7922 10.0862 16.1059C10.0825 16.2132 10.1011 16.32 10.141 16.4196C10.1809 16.5193 10.2411 16.6094 10.3178 16.6845C10.3945 16.7595 10.4861 16.8177 10.5866 16.8553C10.6871 16.893 10.7943 16.9092 10.9014 16.9031C11.1136 16.9031 11.3462 16.9031 11.6342 16.9031H12.8621C13.0977 16.9069 13.3306 16.853 13.5406 16.7461C13.7506 16.6392 13.9313 16.4826 14.0668 16.2898C14.6154 15.535 14.875 14.6085 14.7983 13.6785C14.7909 13.1558 14.6717 12.6407 14.4487 12.1678C14.0269 11.327 13.5551 10.9682 12.8711 10.9682C12.8042 10.9682 12.7348 10.9682 12.6641 10.9785L12.3851 11.0068L12.5316 10.5092C12.5972 10.2855 12.6602 10.0734 12.7258 9.86638C12.7542 9.76912 12.8192 9.68667 12.9071 9.63625C13.2171 9.47144 13.4816 9.23263 13.6772 8.94106C13.8728 8.64949 13.9933 8.31415 14.0282 7.9648C14.1547 7.46896 14.1759 6.95209 14.0902 6.44759C14.0045 5.94309 13.8139 5.46219 13.5307 5.03597C13.4175 4.85915 13.2603 4.71466 13.0747 4.61664C12.889 4.51862 12.6811 4.47042 12.4712 4.47668H10.1569H10.0914V6.03368C10.0914 7.30654 10.0914 8.57979 10.0914 9.85351C10.0938 10.4958 9.94841 11.13 9.66663 11.7072C9.38484 12.2844 8.9741 12.7891 8.46621 13.1822C8.43361 13.2097 8.39931 13.2351 8.36341 13.2581C8.33451 13.2756 8.30266 13.2877 8.26948 13.2941L8.2322 13.3031L7.99435 13.3674V12.8454C7.99435 12.1759 7.99435 11.5065 7.99435 10.8371C7.99435 9.05381 7.99437 7.20882 8.01365 5.39596C8.01584 5.27098 7.99331 5.14678 7.94742 5.03051C7.90153 4.91424 7.83317 4.80818 7.74622 4.71838C7.66203 4.63211 7.5599 4.56548 7.447 4.52326C7.33409 4.48103 7.21322 4.46424 7.09308 4.47409C7.01979 4.47409 6.9427 4.48182 6.85012 4.48182H6.65206H6.44512H6.25608V3.52652H6.69067H8.51895C9.89852 3.52652 11.3244 3.52009 12.7271 3.52009C13.5477 3.49689 14.3507 3.7605 14.9979 4.26551C15.6451 4.77052 16.0961 5.48534 16.2731 6.28695C16.4478 7.05342 16.3634 7.85622 16.033 8.56956C15.7027 9.28291 15.145 9.86652 14.4474 10.229C15.2555 10.5546 15.9379 11.1308 16.3943 11.873C16.8506 12.6151 17.0569 13.4841 16.9828 14.3523C16.9132 15.2297 16.55 16.0582 15.952 16.7041C15.3539 17.35 14.5558 17.7756 13.6862 17.9124C13.2959 17.97 12.9017 17.9971 12.5072 17.9934C11.6985 17.9998 10.8396 18.0011 9.72234 18.0011ZM6.62765 17.6231H9.72234C10.8383 17.6231 11.6972 17.6231 12.5046 17.6231C12.8793 17.6268 13.2538 17.6014 13.6245 17.5472C14.4113 17.4229 15.1333 17.0373 15.6742 16.4526C16.2151 15.8678 16.5433 15.118 16.6061 14.324C16.6745 13.5286 16.4831 12.7325 16.0604 12.0553C15.6378 11.3781 15.0068 10.8563 14.2622 10.5684L14.0437 10.4912L13.8971 10.4411L13.4689 10.2919L13.9832 10.0425L14.1298 9.97181C14.7947 9.66757 15.3343 9.14338 15.6578 8.48759C15.9812 7.83181 16.0687 7.08456 15.9054 6.37182C15.7457 5.65479 15.3412 5.01578 14.7614 4.56477C14.1815 4.11376 13.4626 3.87891 12.7284 3.90065C11.3256 3.90065 9.89977 3.90065 8.5202 3.90708H6.69192H6.63409V4.11025H6.85138C6.93495 4.11025 7.00308 4.11023 7.06608 4.10252C7.24081 4.08815 7.41656 4.11251 7.58079 4.17385C7.74503 4.23519 7.89372 4.33199 8.01624 4.45738C8.13792 4.58271 8.2337 4.73077 8.29812 4.89314C8.36254 5.05551 8.39432 5.22899 8.39166 5.40365C8.36981 7.21523 8.37107 9.05894 8.37236 10.8409C8.37236 11.4838 8.37236 12.1267 8.37236 12.7695C8.79801 12.414 9.13925 11.9683 9.37141 11.4646C9.60356 10.9609 9.72082 10.412 9.71465 9.85739C9.71465 8.58454 9.71465 7.31124 9.71465 6.03753V4.12696L9.89083 4.11539L9.98468 4.10895C10.0464 4.10895 10.0991 4.09997 10.1569 4.09997H12.4712C12.7428 4.09289 13.0117 4.15546 13.2523 4.28171C13.4929 4.40797 13.6972 4.59368 13.8457 4.82122C14.1584 5.28811 14.3697 5.81547 14.4658 6.36916C14.562 6.92284 14.5408 7.49052 14.4037 8.03551C14.3574 8.43857 14.2142 8.82446 13.9865 9.16027C13.7588 9.49608 13.4534 9.77185 13.0961 9.96408C13.0957 9.96835 13.0957 9.97267 13.0961 9.97695C13.0331 10.1788 12.9675 10.3819 12.911 10.5954C13.3289 10.6184 13.7306 10.7643 14.0659 11.0147C14.4013 11.2652 14.6552 11.609 14.7958 12.0032C15.0418 12.5239 15.1733 13.0912 15.1815 13.6669C15.2632 14.6838 14.9771 15.6962 14.3754 16.5199C14.206 16.7606 13.9802 16.9561 13.7177 17.0893C13.4552 17.2224 13.164 17.2892 12.8698 17.2837H12.8556C12.5985 17.2837 12.3414 17.2837 12.0842 17.2837H11.6394C11.3488 17.2837 11.1135 17.2837 10.8988 17.2837C10.7439 17.2896 10.5895 17.264 10.4449 17.2083C10.3002 17.1526 10.1683 17.068 10.0574 16.9598C9.94651 16.8515 9.85887 16.7218 9.79972 16.5786C9.74056 16.4353 9.71119 16.2815 9.7134 16.1265C9.70182 15.8051 9.70309 15.4837 9.70437 15.1648C9.70437 15.0508 9.70437 14.9368 9.70437 14.8228L8.37236 15.4348V15.5042C8.37236 15.656 8.37236 15.8179 8.37236 15.9787C8.38462 16.1536 8.35932 16.3292 8.2982 16.4935C8.23708 16.6579 8.14155 16.8073 8.01797 16.9317C7.89439 17.0562 7.74568 17.1527 7.58173 17.215C7.41778 17.2772 7.24236 17.3037 7.06734 17.2927C6.92848 17.2927 6.78837 17.2927 6.64437 17.2927H6.62765V17.6231Z" fill="#B1BAD3"/>
<path d="M11.3271 3.02626C11.2769 2.93241 11.2474 2.86427 11.2075 2.80256C10.7409 2.03895 10.0998 1.39695 9.33681 0.929269C8.5939 0.441019 7.72302 0.18375 6.83405 0.189928C5.94508 0.196106 5.07785 0.465465 4.3418 0.963993C3.47273 1.52377 2.75936 2.29421 2.26797 3.20369C1.24156 5.04856 0.92421 7.20478 1.37565 9.26713C1.63012 10.8546 2.41297 12.3097 3.5974 13.3968C4.18941 13.9813 4.9284 14.3947 5.7362 14.5934C6.54399 14.7922 7.39049 14.7688 8.18607 14.5257C9.38915 14.1587 10.4178 13.3668 11.0803 12.2976C11.7753 11.2583 12.2363 10.0805 12.4314 8.84555C12.6266 7.61062 12.5511 6.34806 12.2104 5.14513C12.1962 5.08728 12.1217 5.0037 12.0741 5.00241C11.5894 4.99213 11.1047 4.996 10.5981 4.996C10.8713 6.08525 10.9583 7.21287 10.8553 8.33113C10.7755 9.61525 10.4249 10.868 9.82664 12.007C9.48353 12.6724 8.97919 13.2413 8.35966 13.6617C7.91482 13.9835 7.37808 14.1532 6.8291 14.1455C6.28013 14.1379 5.74823 13.9533 5.31252 13.6193C4.59031 13.1161 4.02869 12.4152 3.6951 11.6007C2.61732 9.17002 2.52511 6.41587 3.43794 3.91855C3.74673 2.96797 4.30801 2.11918 5.0618 1.46285C5.55178 1.01538 6.19191 0.768141 6.85547 0.770045C7.51903 0.77195 8.15766 1.02286 8.64506 1.47313C9.10696 1.87077 9.49823 2.34374 9.80224 2.87199C9.84081 2.93499 9.91665 3.01727 9.97708 3.01855C10.4104 3.03141 10.8539 3.02626 11.3271 3.02626Z" fill="#B1BAD3"/>
<path d="M6.85018 0.00500488C7.76481 0.0231427 8.65725 0.289819 9.43189 0.776441C10.2197 1.25807 10.8827 1.91884 11.3669 2.70501C11.3973 2.75413 11.4252 2.80476 11.4505 2.85672L11.4942 2.94157L11.6408 3.21802H10.6636C10.472 3.21802 10.2188 3.218 9.96292 3.21029C9.89352 3.198 9.82779 3.17024 9.77059 3.12907C9.71338 3.08789 9.66615 3.03435 9.63247 2.97243C9.34071 2.46207 8.96423 2.00512 8.51909 1.62115C8.05336 1.21064 7.45795 0.977136 6.83731 0.961581C6.22485 0.97588 5.63713 1.20581 5.17752 1.61087C4.44869 2.24504 3.9068 3.06612 3.61024 3.98559C2.71593 6.43872 2.80527 9.14271 3.85963 11.5314C4.17972 12.3128 4.71854 12.9852 5.41145 13.4677C5.81682 13.7791 6.31196 13.9511 6.82303 13.9583C7.33411 13.9655 7.83384 13.8074 8.2478 13.5076C8.84181 13.1043 9.32497 12.5583 9.65303 11.9197C10.2408 10.8046 10.5857 9.57773 10.665 8.31973C10.7652 7.2219 10.6782 6.11501 10.4078 5.0463L10.3486 4.81101H11.2486C11.4904 4.81101 11.7771 4.81101 12.0715 4.81872C12.1462 4.83021 12.2159 4.86338 12.2719 4.91413C12.3279 4.96487 12.3677 5.03095 12.3865 5.10415C12.7325 6.33277 12.8082 7.62175 12.6084 8.88243C12.4087 10.1431 11.9382 11.3455 11.2293 12.407C10.5433 13.5149 9.47684 14.3345 8.22975 14.7123C7.76571 14.8484 7.28496 14.9189 6.80137 14.9219C5.55269 14.9015 4.3581 14.4085 3.45847 13.5423C2.24502 12.4261 1.44178 10.9346 1.17763 9.30715C0.721326 7.20101 1.04621 5.0008 2.09177 3.11643C2.59943 2.18019 3.33481 1.38693 4.22995 0.809871C5.00911 0.297959 5.918 0.0187552 6.85018 0.00500488ZM11.0069 2.84258C10.5618 2.13071 9.95643 1.53279 9.23908 1.09658C8.52215 0.646677 7.69641 0.400043 6.85018 0.383013C5.99254 0.399049 5.1571 0.65807 4.4408 1.13C3.59917 1.67412 2.90801 2.42137 2.43117 3.30287C1.43036 5.10993 1.12057 7.21919 1.55948 9.23772C1.8021 10.7859 2.56485 12.2053 3.72206 13.262C4.55132 14.0649 5.65376 14.5243 6.80781 14.5477C7.25662 14.5447 7.70273 14.4789 8.13331 14.3523C9.29401 13.9986 10.286 13.2338 10.9234 12.2013C11.6017 11.1842 12.0519 10.0323 12.243 8.82475C12.4341 7.6172 12.3615 6.38258 12.0303 5.20572V5.19801C11.7565 5.19801 11.4891 5.19801 11.2589 5.19801H10.8398C11.0736 6.23501 11.143 7.30232 11.0455 8.36087C10.9622 9.67167 10.6021 10.9499 9.98866 12.1113C9.63104 12.8043 9.10491 13.3963 8.45866 13.8329C7.98629 14.1579 7.42869 14.3368 6.85536 14.3471C6.2586 14.3365 5.67987 14.1406 5.19933 13.7866C4.44749 13.2635 3.86265 12.5344 3.51505 11.687C2.42315 9.2118 2.33099 6.41018 3.25789 3.86858C3.57629 2.88526 4.15738 2.00765 4.93833 1.33058C5.46554 0.868564 6.13903 0.607644 6.8399 0.593872C7.55075 0.607588 8.23386 0.87217 8.76848 1.34086C9.24591 1.75164 9.64985 2.24079 9.96292 2.78729C9.97568 2.80819 9.99127 2.82723 10.0092 2.84387C10.2497 2.84387 10.4887 2.85158 10.6713 2.85158L11.0069 2.84258Z" fill="#B1BAD3"/>
<path d="M12.6489 10.8009C12.7389 10.4949 12.8211 10.2095 12.9059 9.9266C12.9191 9.87862 12.9493 9.83705 12.9909 9.8096C13.3251 9.63094 13.611 9.37382 13.824 9.06029C14.037 8.74676 14.1707 8.3862 14.2136 8.0096C14.3442 7.48884 14.3647 6.94654 14.2737 6.41741C14.1827 5.88828 13.9822 5.38398 13.6851 4.93677C13.5542 4.73405 13.3733 4.56842 13.1598 4.45584C12.9463 4.34326 12.7075 4.2875 12.4663 4.29391C11.6948 4.29391 10.9234 4.29391 10.152 4.29391C10.0774 4.29391 10.0015 4.3029 9.89483 4.30933V4.59603C9.89483 6.35146 9.89483 8.10861 9.89483 9.86747C9.89839 10.4822 9.7597 11.0895 9.48959 11.6418C9.21948 12.194 8.82529 12.6763 8.33783 13.0509C8.31172 13.0728 8.2842 13.093 8.25551 13.1113C8.22977 13.1217 8.20313 13.1294 8.17586 13.1345C8.17586 13.0381 8.17586 12.9493 8.17586 12.8593C8.17586 10.3766 8.16426 7.89389 8.19383 5.41118C8.20054 5.26241 8.17598 5.11389 8.12171 4.97522C8.06744 4.83654 7.98466 4.71081 7.87876 4.60612C7.77285 4.50142 7.64616 4.42011 7.50687 4.36744C7.36758 4.31477 7.21876 4.29192 7.07009 4.30034C6.86694 4.31577 6.66125 4.30034 6.43625 4.30034V3.72305H6.68313C8.69485 3.72305 10.7065 3.71963 12.7182 3.71277C13.4951 3.69287 14.2549 3.94303 14.868 4.42061C15.4811 4.89819 15.9095 5.57361 16.0804 6.33176C16.2508 7.08582 16.1571 7.87553 15.815 8.56877C15.4728 9.26201 14.9029 9.81672 14.2007 10.14C14.1338 10.1709 14.0721 10.2043 13.9525 10.2609C14.1081 10.3149 14.2097 10.3509 14.3215 10.3895C15.1068 10.6892 15.7726 11.2373 16.2178 11.9502C16.6629 12.6632 16.863 13.5021 16.7876 14.3392C16.7186 15.1741 16.3718 15.9618 15.8027 16.5766C15.2336 17.1914 14.475 17.5978 13.6478 17.7309C13.2673 17.7872 12.883 17.8134 12.4984 17.8093C10.5699 17.817 8.64129 17.8093 6.71915 17.8093H6.43115V17.0983C6.64972 17.0983 6.85282 17.0983 7.05596 17.0983C7.20635 17.1094 7.35738 17.0878 7.49863 17.035C7.63988 16.9822 7.76802 16.8994 7.87429 16.7924C7.98055 16.6854 8.06243 16.5567 8.11426 16.4151C8.16609 16.2735 8.18662 16.1224 8.17453 15.9721C8.17453 15.7419 8.17453 15.5105 8.17453 15.3086L9.86909 14.5282C9.87607 14.5772 9.88037 14.6265 9.88196 14.676C9.88196 15.1556 9.87293 15.6352 9.88965 16.1135C9.88575 16.2449 9.90915 16.3758 9.95831 16.4978C10.0075 16.6198 10.0814 16.7303 10.1754 16.8223C10.2693 16.9144 10.3813 16.9859 10.5043 17.0326C10.6273 17.0792 10.7586 17.0998 10.89 17.0932C11.5405 17.106 12.1911 17.0932 12.8417 17.0932C13.1086 17.0995 13.373 17.0401 13.6116 16.9201C13.8501 16.8002 14.0556 16.6234 14.2097 16.4053C14.7835 15.6153 15.0569 14.6466 14.9811 13.6732C14.9729 13.1236 14.8471 12.5822 14.6121 12.0853C14.477 11.6816 14.2098 11.3353 13.8535 11.1022C13.4973 10.8692 13.0729 10.763 12.6489 10.8009Z" fill="#B1BAD3"/>
<path d="M9.72234 18.0011H6.25098V16.9134H7.06098C7.18663 16.9242 7.3131 16.9074 7.43154 16.8641C7.54998 16.8208 7.65746 16.752 7.74645 16.6626C7.83544 16.5733 7.9038 16.4655 7.94664 16.3469C7.98947 16.2282 8.00572 16.1017 7.99435 15.9761C7.99435 15.8154 7.99435 15.6547 7.99435 15.503V15.1854L10.0413 14.2442L10.0669 14.5091V14.5284C10.0738 14.5765 10.0777 14.6251 10.0785 14.6737C10.0785 14.8357 10.0785 14.9977 10.0785 15.1597C10.0785 15.4708 10.0785 15.7922 10.0862 16.1059C10.0825 16.2132 10.1011 16.32 10.141 16.4196C10.1809 16.5193 10.2411 16.6094 10.3178 16.6845C10.3945 16.7595 10.4861 16.8177 10.5866 16.8553C10.6871 16.893 10.7943 16.9092 10.9014 16.9031C11.1136 16.9031 11.3462 16.9031 11.6342 16.9031H12.8621C13.0977 16.9069 13.3306 16.853 13.5406 16.7461C13.7506 16.6392 13.9313 16.4826 14.0668 16.2898C14.6154 15.535 14.875 14.6085 14.7983 13.6785C14.7909 13.1558 14.6717 12.6407 14.4487 12.1678C14.0269 11.327 13.5551 10.9682 12.8711 10.9682C12.8042 10.9682 12.7348 10.9682 12.6641 10.9785L12.3851 11.0068L12.5316 10.5092C12.5972 10.2855 12.6602 10.0734 12.7258 9.86638C12.7542 9.76912 12.8192 9.68667 12.9071 9.63625C13.2171 9.47144 13.4816 9.23263 13.6772 8.94106C13.8728 8.64949 13.9933 8.31415 14.0282 7.9648C14.1547 7.46896 14.1759 6.95209 14.0902 6.44759C14.0045 5.94309 13.8139 5.46219 13.5307 5.03597C13.4175 4.85915 13.2603 4.71466 13.0747 4.61664C12.889 4.51862 12.6811 4.47042 12.4712 4.47668H10.1569H10.0914V6.03368C10.0914 7.30654 10.0914 8.57979 10.0914 9.85351C10.0938 10.4958 9.94841 11.13 9.66663 11.7072C9.38484 12.2844 8.9741 12.7891 8.46621 13.1822C8.43361 13.2097 8.39931 13.2351 8.36341 13.2581C8.33451 13.2756 8.30266 13.2877 8.26948 13.2941L8.2322 13.3031L7.99435 13.3674V12.8454C7.99435 12.1759 7.99435 11.5065 7.99435 10.8371C7.99435 9.05381 7.99437 7.20882 8.01365 5.39596C8.01584 5.27098 7.99331 5.14678 7.94742 5.03051C7.90153 4.91424 7.83317 4.80818 7.74622 4.71838C7.66214 4.63196 7.56 4.56522 7.44707 4.52298C7.33414 4.48074 7.21323 4.46406 7.09308 4.47409C7.01979 4.47409 6.9427 4.48182 6.85012 4.48182H6.65206H6.44512H6.25608V3.52652H6.69067H8.51895C9.89852 3.52652 11.3244 3.52009 12.7271 3.52009C13.5477 3.49689 14.3507 3.7605 14.9979 4.26551C15.6451 4.77052 16.0961 5.48534 16.2731 6.28695C16.4478 7.05342 16.3634 7.85622 16.033 8.56956C15.7027 9.28291 15.145 9.86652 14.4474 10.229C15.2555 10.5546 15.9379 11.1308 16.3943 11.873C16.8506 12.6151 17.0569 13.4841 16.9828 14.3523C16.9132 15.2297 16.55 16.0582 15.952 16.7041C15.3539 17.35 14.5558 17.7756 13.6862 17.9124C13.2959 17.97 12.9017 17.9971 12.5072 17.9934C11.6985 17.9998 10.8396 18.0011 9.72234 18.0011ZM6.62765 17.6231H9.72234C10.8396 17.6231 11.6972 17.6231 12.5046 17.6231C12.8793 17.6268 13.2538 17.6014 13.6245 17.5472C14.4113 17.4229 15.1333 17.0373 15.6742 16.4526C16.2151 15.8678 16.5433 15.118 16.6061 14.324C16.6745 13.5286 16.4831 12.7325 16.0604 12.0553C15.6378 11.3781 15.0068 10.8563 14.2622 10.5684L14.0437 10.4912L13.8971 10.4411L13.4689 10.2919L13.9832 10.0425L14.1298 9.97181C14.7947 9.66757 15.3343 9.14338 15.6578 8.48759C15.9812 7.83181 16.0687 7.08456 15.9054 6.37182C15.7457 5.65479 15.3412 5.01578 14.7614 4.56477C14.1815 4.11376 13.4626 3.87891 12.7284 3.90065C11.3256 3.90065 9.89977 3.90065 8.5202 3.90708H6.69192H6.63409V4.11025H6.85138C6.93495 4.11025 7.00308 4.11023 7.06608 4.10252C7.24081 4.08815 7.41656 4.11251 7.58079 4.17385C7.74503 4.23519 7.89372 4.33199 8.01624 4.45738C8.13792 4.58271 8.2337 4.73077 8.29812 4.89314C8.36254 5.05551 8.39432 5.22899 8.39166 5.40365C8.36981 7.21523 8.37107 9.05894 8.37236 10.8409C8.37236 11.4838 8.37236 12.1267 8.37236 12.7695C8.79801 12.414 9.13925 11.9683 9.37141 11.4646C9.60356 10.9609 9.72082 10.412 9.71465 9.85739C9.71465 8.58454 9.71465 7.31124 9.71465 6.03753V4.12696L9.89083 4.11539L9.98468 4.10895C10.0464 4.10895 10.0991 4.09997 10.1569 4.09997H12.4712C12.7428 4.09289 13.0117 4.15546 13.2523 4.28171C13.4929 4.40797 13.6972 4.59368 13.8457 4.82122C14.1584 5.28811 14.3697 5.81547 14.4658 6.36916C14.562 6.92284 14.5408 7.49052 14.4037 8.03551C14.3574 8.43857 14.2142 8.82446 13.9865 9.16027C13.7588 9.49608 13.4534 9.77185 13.0961 9.96408C13.0957 9.96835 13.0957 9.97267 13.0961 9.97695C13.0331 10.1788 12.9675 10.3819 12.911 10.5954C13.3289 10.6184 13.7306 10.7643 14.0659 11.0147C14.4013 11.2652 14.6552 11.609 14.7958 12.0032C15.0418 12.5239 15.1733 13.0912 15.1815 13.6669C15.2632 14.6838 14.9771 15.6962 14.3754 16.5199C14.206 16.7606 13.9802 16.9561 13.7177 17.0893C13.4552 17.2224 13.164 17.2892 12.8698 17.2837H12.8556C12.5985 17.2837 12.3414 17.2837 12.0842 17.2837H11.6394C11.3488 17.2837 11.1135 17.2837 10.8988 17.2837C10.7439 17.2896 10.5895 17.264 10.4449 17.2083C10.3002 17.1526 10.1683 17.068 10.0574 16.9598C9.94651 16.8515 9.85887 16.7218 9.79972 16.5786C9.74056 16.4353 9.71119 16.2815 9.7134 16.1265C9.70182 15.8051 9.70309 15.4837 9.70437 15.1648C9.70437 15.0508 9.70437 14.9368 9.70437 14.8228L8.37236 15.4348V15.5042C8.37236 15.656 8.37236 15.8179 8.37236 15.9787C8.38462 16.1536 8.35932 16.3292 8.2982 16.4935C8.23708 16.6579 8.14155 16.8073 8.01797 16.9317C7.89439 17.0562 7.74568 17.1527 7.58173 17.215C7.41778 17.2772 7.24236 17.3037 7.06734 17.2927C6.92848 17.2927 6.78837 17.2927 6.64437 17.2927H6.62765V17.6231Z" fill="#B1BAD3"/>
<path d="M11.3273 3.02643C10.8528 3.02643 10.4106 3.02644 9.96834 3.02001C9.90791 3.02001 9.832 2.93644 9.79342 2.87344C9.48942 2.3452 9.09822 1.87221 8.63633 1.47457C8.14892 1.0243 7.51021 0.773389 6.84666 0.771484C6.1831 0.769579 5.54305 1.01682 5.05306 1.46429C4.29928 2.12062 3.738 2.96943 3.4292 3.92001C2.51638 6.41732 2.6085 9.17148 3.68628 11.6022C4.01988 12.4167 4.5815 13.1176 5.3037 13.6207C5.73941 13.9548 6.27131 14.1393 6.82029 14.147C7.36926 14.1546 7.906 13.9849 8.35084 13.6632C8.97037 13.2428 9.47479 12.6739 9.81791 12.0084C10.4162 10.8694 10.7667 9.61669 10.8465 8.33257C10.9495 7.21431 10.8625 6.08669 10.5893 4.99743C11.0959 4.99743 11.5806 4.99744 12.0653 5.00387C12.1129 5.00387 12.1875 5.08872 12.2016 5.14657C12.5424 6.34949 12.6177 7.61208 12.4226 8.847C12.2275 10.0819 11.7665 11.2597 11.0714 12.299C10.4101 13.3687 9.38238 14.1615 8.17985 14.5297C7.38427 14.7728 6.53777 14.7962 5.72997 14.5975C4.92218 14.3987 4.18319 13.9853 3.59117 13.4009C2.40675 12.3137 1.6239 10.8586 1.36942 9.27115C0.917984 7.20881 1.23533 5.05259 2.26175 3.20772C2.75313 2.29824 3.4665 1.52778 4.33557 0.968002C5.07162 0.469474 5.93885 0.200135 6.82782 0.193956C7.71679 0.187778 8.58768 0.445047 9.33059 0.933297C10.0943 1.40029 10.7364 2.04186 11.2039 2.80529C11.2476 2.86443 11.2784 2.93257 11.3273 3.02643Z" fill="#B1BAD3"/>
<path d="M6.85018 0.00500488C7.76481 0.0231427 8.65725 0.289819 9.43189 0.776441C10.2197 1.25807 10.8827 1.91884 11.3669 2.70501C11.3973 2.75413 11.4252 2.80476 11.4505 2.85672L11.4942 2.94157L11.6408 3.21802H10.6636C10.472 3.21802 10.2188 3.218 9.96292 3.21029C9.89352 3.198 9.82779 3.17024 9.77059 3.12907C9.71338 3.08789 9.66615 3.03435 9.63247 2.97243C9.34071 2.46207 8.96423 2.00512 8.51909 1.62115C8.05336 1.21064 7.45795 0.977136 6.83731 0.961581C6.22485 0.97588 5.63713 1.20581 5.17752 1.61087C4.44869 2.24504 3.9068 3.06612 3.61024 3.98559C2.71593 6.43872 2.80527 9.14271 3.85963 11.5314C4.17972 12.3128 4.71854 12.9852 5.41145 13.4677C5.81682 13.7791 6.31196 13.9511 6.82303 13.9583C7.33411 13.9655 7.83384 13.8074 8.2478 13.5076C8.84181 13.1043 9.32497 12.5583 9.65303 11.9197C10.2408 10.8046 10.5857 9.57773 10.665 8.31973C10.7652 7.2219 10.6782 6.11501 10.4078 5.0463L10.3486 4.81101H11.2486C11.4904 4.81101 11.7771 4.81101 12.0715 4.81872C12.1462 4.83021 12.2159 4.86338 12.2719 4.91413C12.3279 4.96487 12.3677 5.03095 12.3865 5.10415C12.7325 6.33277 12.8082 7.62175 12.6084 8.88243C12.4087 10.1431 11.9382 11.3455 11.2293 12.407C10.5433 13.5149 9.47684 14.3345 8.22975 14.7123C7.76571 14.8484 7.28496 14.9189 6.80137 14.9219C5.55269 14.9015 4.3581 14.4085 3.45847 13.5423C2.24502 12.4261 1.44178 10.9346 1.17763 9.30715C0.721326 7.20101 1.04621 5.0008 2.09177 3.11643C2.59943 2.18019 3.33481 1.38693 4.22995 0.809871C5.00911 0.297959 5.918 0.0187552 6.85018 0.00500488ZM11.0069 2.84258C10.5618 2.13071 9.95643 1.53279 9.23908 1.09658C8.52215 0.646677 7.69641 0.400043 6.85018 0.383013C5.99254 0.399049 5.1571 0.65807 4.4408 1.13C3.59917 1.67412 2.90801 2.42137 2.43117 3.30287C1.43036 5.10993 1.12057 7.21919 1.55948 9.23772C1.8021 10.7859 2.56485 12.2053 3.72206 13.262C4.55132 14.0649 5.65376 14.5243 6.80781 14.5477C7.25662 14.5447 7.70273 14.4789 8.13331 14.3523C9.29401 13.9986 10.286 13.2338 10.9234 12.2013C11.6017 11.1842 12.0519 10.0323 12.243 8.82475C12.4341 7.6172 12.3615 6.38258 12.0303 5.20572V5.19801C11.7565 5.19801 11.4891 5.19801 11.2589 5.19801H10.8398C11.0736 6.23501 11.143 7.30232 11.0455 8.36087C10.9622 9.67167 10.6021 10.9499 9.98866 12.1113C9.63104 12.8043 9.10491 13.3963 8.45866 13.8329C7.98629 14.1579 7.42869 14.3368 6.85536 14.3471C6.2586 14.3365 5.67987 14.1406 5.19933 13.7866C4.44749 13.2635 3.86265 12.5344 3.51505 11.687C2.42315 9.2118 2.33099 6.41018 3.25789 3.86858C3.57629 2.88526 4.15738 2.00765 4.93833 1.33058C5.46554 0.868564 6.13903 0.607644 6.8399 0.593872C7.55075 0.607588 8.23386 0.87217 8.76848 1.34086C9.24591 1.75164 9.64985 2.24079 9.96292 2.78729C9.97568 2.80819 9.99127 2.82723 10.0092 2.84387C10.2497 2.84387 10.4887 2.85158 10.6713 2.85158L11.0069 2.84258Z" fill="#B1BAD3"/>
</svg>
