<?xml version="1.0" standalone="no"?>
<svg id="侧边icon/云游棋牌" width="20" height="20" viewBox="0 0 20 20" fill="none" xmlns="http://www.w3.org/2000/svg" style="max-width: 100%; max-height: 100%;">
<path d="M17.709 9.24505C17.2352 8.95203 16.752 8.91422 16.1645 8.58338C15.6529 8.29981 15.4823 8.03515 15.3023 7.38293C14.9517 6.06906 14.1843 5.21834 13.2178 4.71737C12.365 4.27311 11.4554 3.94228 10.5648 4.00844C8.99192 4.13132 7.38116 4.33928 6.43366 6.39044C6.15888 6.97648 5.78935 7.09936 5.23032 7.07101C4.22597 7.0332 3.24056 7.35458 2.37833 8.10131C0.663344 9.58533 0.511743 12.7046 2.13198 14.3304C3.99857 16.2209 6.10203 16.4761 8.21497 15.2473C8.8877 14.8597 9.3046 14.8503 9.90153 15.2473C11.3891 16.2209 13.0188 16.2587 14.2601 14.9354C14.9991 14.1508 15.5013 14.8787 16.1551 14.8314C16.6478 14.8503 17.112 14.6896 17.5479 14.4155C18.3059 13.9429 18.9692 13.4041 18.9976 12.1186C19.0355 10.7669 18.6281 9.82164 17.709 9.24505ZM16.6667 13.3096C16.174 13.6404 15.6339 13.7444 15.1318 13.5081C14.6296 13.2718 14.2601 13.3096 13.7958 13.6877C12.943 14.3871 11.9955 14.3777 11.0291 14.0563C10.5269 13.8862 10.1763 13.4797 9.911 12.9504C9.51305 12.1469 9.70255 11.2489 10.2142 10.6062C11.1807 9.39629 12.1376 11.041 12.365 11.3151C12.4598 11.4285 12.583 11.1166 12.6019 10.9181C12.6398 10.0863 12.365 9.48136 11.7586 9.15998C10.8396 8.66845 9.911 8.81024 9.16247 9.53807C8.44237 10.2375 7.74121 10.4077 6.89793 10.2848C6.25363 10.1903 5.59985 10.4077 5.19242 11.0599C4.83237 11.627 4.84185 11.9862 5.07872 12.7141C5.14505 12.922 5.36297 13.1489 5.51458 13.1489C5.76093 13.1489 5.63775 12.8086 5.62828 12.4872C5.59985 11.5798 6.09255 11.3907 6.71791 11.3813C7.37169 11.3624 8.11074 11.9201 8.22444 12.5534C8.32867 13.1678 8.18654 13.6877 7.73174 13.9618C6.31995 14.7936 4.90817 14.6802 3.59114 13.6971C2.86156 13.1583 2.39728 12.2131 2.48256 11.0221C2.56783 9.82164 3.18371 9.16943 3.97014 8.70626C4.55759 8.36598 5.17347 8.32817 5.9599 8.35653C6.38628 8.4416 7.04006 8.09186 7.54224 7.26005C8.774 5.21834 11.0954 4.84025 12.744 6.22029C13.3694 6.74963 13.9379 7.4302 13.9853 8.40379C14.0327 9.49081 14.4685 9.55698 15.1128 9.58533C15.7855 9.61369 16.4298 9.82164 16.9604 10.4549C17.8037 11.4569 17.69 12.629 16.6667 13.3096Z" fill="#8E949C" stroke-dasharray="0,0,0,110.85553741455078"><animate attributeType="XML" attributeName="stroke-dasharray" repeatCount="1" dur="2.5s" values="0,0,0,110.85553741455078; 
          0,55.42776870727539,55.42776870727539,0; 
          110.85553741455078,0,0,0" keyTimes="0; 0.5; 1" fill="freeze"></animate></path>
<setting>{"type":"direct","speed":20,"random":1,"shift":1,"size":1,"rupture":50}</setting></svg>