<svg data-name="组 59" xmlns="http://www.w3.org/2000/svg" width="27.739" height="20.5" viewBox="0 0 27.739 20.5">
    <defs>
        <clipPath id="uo1sbwnw6a">
            <path data-name="矩形 76" style="fill:none" d="M0 0h27.739v20.5H0z"/>
        </clipPath>
    </defs>
    <g data-name="组 58" style="clip-path:url(#uo1sbwnw6a)">
        <path data-name="矩形 74" d="M2.885 0h19.97a2.884 2.884 0 0 1 2.884 2.884v12.731a2.885 2.885 0 0 1-2.885 2.885H2.885A2.885 2.885 0 0 1 0 15.615V2.885A2.885 2.885 0 0 1 2.885 0z" transform="translate(1 1)" style="stroke:#1d1d1e;stroke-miterlimit:10;stroke-width:2px;fill:none"/>
        <path data-name="矩形 75" transform="translate(1 5.757)" style="fill:#1d1d1e" d="M0 0h25.739v3.243H0z"/>
        <path data-name="路径 37" d="M23.506 17.489h-4.924a.676.676 0 0 1-.6-.978l.933-1.866a.674.674 0 0 1 .6-.373h4.924a.675.675 0 0 1 .6.978l-.933 1.865a.675.675 0 0 1-.6.374" style="fill:#1d1d1e"/>
    </g>
</svg>
