<svg data-name="组 67" xmlns="http://www.w3.org/2000/svg" width="27.296" height="27.5" viewBox="0 0 27.296 27.5">
    <defs>
        <clipPath id="yp5ij8hnga">
            <path data-name="矩形 80" style="fill:none" d="M0 0h27.296v27.5H0z"/>
        </clipPath>
    </defs>
    <g data-name="组 66" style="clip-path:url(#yp5ij8hnga)">
        <path data-name="路径 44" d="M1.877 13.21A12.21 12.21 0 1 1 25.8 16.668" style="stroke-linecap:round;stroke-linejoin:round;stroke-width:2px;stroke:#1d1d1e;fill:none"/>
        <path data-name="路径 45" d="M26.3 26.5H11.554s-9.437.026-10.491-8.406c-.814-6.512 6.511 2.442 9.767 3.256a30.5 30.5 0 0 0 6.512.814s-4.28-3.667-2.547-5.5S26.3 21.35 26.3 21.35z" style="stroke-linecap:round;stroke-linejoin:round;stroke-width:2px;stroke:#1d1d1e;fill:none"/>
        <path data-name="路径 46" d="M15.8 6.92a2.352 2.352 0 0 0-1.567-.52c-.793 0-1.315.376-1.315.915 0 1.388 3.559.98 3.559 2.964 0 .866-.76 1.453-1.95 1.568v.906h-.69v-.9a4.61 4.61 0 0 1-2.142-.7l.441-.457a3.584 3.584 0 0 0 1.961.612c.975 0 1.473-.384 1.473-.98 0-1.551-3.558-1.184-3.558-2.98 0-.8.748-1.38 1.825-1.495v-.909h.69v.9a3.057 3.057 0 0 1 1.773.676z" style="fill:#fff"/>
        <path data-name="路径 47" d="M15.8 6.92a2.352 2.352 0 0 0-1.567-.52c-.793 0-1.315.376-1.315.915 0 1.388 3.559.98 3.559 2.964 0 .866-.76 1.453-1.95 1.568v.906h-.69v-.9a4.61 4.61 0 0 1-2.142-.7l.441-.457a3.584 3.584 0 0 0 1.961.612c.975 0 1.473-.384 1.473-.98 0-1.551-3.558-1.184-3.558-2.98 0-.8.748-1.38 1.825-1.495v-.909h.69v.9a3.057 3.057 0 0 1 1.773.676z" style="stroke-miterlimit:10;stroke:#1d1d1e;fill:none"/>
    </g>
</svg>
