<svg xmlns="http://www.w3.org/2000/svg" width="22.326" height="27.962" viewBox="0 0 22.326 27.962">
    <defs>
        <clipPath id="rl590b6yaa">
            <path data-name="矩形 67" style="fill:none" d="M0 0h22.326v27.962H0z"/>
        </clipPath>
    </defs>
    <g data-name="组 53">
        <g data-name="组 52" style="clip-path:url(#rl590b6yaa)" transform="translate(0 .001)">
            <ellipse data-name="椭圆 56" cx="10.163" cy="5.081" rx="10.163" ry="5.081" transform="translate(1 1)" style="stroke-linejoin:round;stroke-width:2px;stroke-linecap:round;stroke:#1d1d1e;fill:none"/>
            <path data-name="路径 28" d="M21.326 10.99c0 2.806-4.55 5.081-10.163 5.081S1 13.8 1 10.99" style="stroke-linecap:square;stroke-linejoin:round;stroke-width:2px;stroke:#1d1d1e;fill:none"/>
            <path data-name="路径 29" d="M21.326 16.435c0 2.806-4.55 5.081-10.163 5.081S1 19.241 1 16.435" style="stroke-linecap:square;stroke-linejoin:round;stroke-width:2px;stroke:#1d1d1e;fill:none"/>
            <path data-name="路径 30" d="M21.326 21.88c0 2.806-4.55 5.081-10.163 5.081S1 24.686 1 21.88" style="stroke-linecap:square;stroke-linejoin:round;stroke-width:2px;stroke:#1d1d1e;fill:none"/>
            <path data-name="直线 53" transform="translate(1 5.691)" style="stroke-linejoin:round;stroke-width:2px;stroke-linecap:round;stroke:#1d1d1e;fill:none" d="M0 0v15.635"/>
            <path data-name="直线 54" transform="translate(21.326 6.472)" style="stroke-linejoin:round;stroke-width:2px;stroke-linecap:round;stroke:#1d1d1e;fill:none" d="M0 0v14.853"/>
            <path data-name="路径 31" d="M13.446 4.761h-.807q-.073-.695-1.1-.834v1.7a4.043 4.043 0 0 1 1.612.556.972.972 0 0 1 .44.889q-.036 1.391-2.052 1.473v.667H11.1v-.671q-2.126-.056-2.088-1.584h.806q0 1.056 1.282 1.112V6.206Q9.122 5.9 9.158 4.789 9.3 3.511 11.1 3.4v-.446h.44V3.4q1.831.167 1.906 1.362m-2.346.777V3.927q-1.064.057-1.136.806 0 .695 1.136.806m.44.723v1.807q1.173-.029 1.209-.89a.855.855 0 0 0-.733-.778z" style="fill:#fff"/>
            <path data-name="路径 32" d="M13.446 4.761h-.807q-.073-.695-1.1-.834v1.7a4.043 4.043 0 0 1 1.612.556.972.972 0 0 1 .44.889q-.036 1.391-2.052 1.473v.667H11.1v-.671q-2.126-.056-2.088-1.584h.806q0 1.056 1.282 1.112V6.206Q9.122 5.9 9.158 4.789 9.3 3.511 11.1 3.4v-.446h.44V3.4q1.831.166 1.906 1.361zm-2.346.778V3.927q-1.064.057-1.136.806 0 .695 1.136.806zm.44.723v1.807q1.173-.029 1.209-.89a.855.855 0 0 0-.733-.778z" style="fill:#1d1d1e;stroke-miterlimit:10;stroke-width:.4px;stroke:#1d1d1e"/>
        </g>
    </g>
</svg>
