<svg data-name="组 61" xmlns="http://www.w3.org/2000/svg" width="24.281" height="23.9" viewBox="0 0 24.281 23.9">
    <defs>
        <clipPath id="zwcz6rv96a">
            <path data-name="矩形 77" style="fill:none" d="M0 0h24.281v23.9H0z"/>
        </clipPath>
    </defs>
    <g data-name="组 60" style="clip-path:url(#zwcz6rv96a)">
        <path data-name="路径 38" d="M17.861 4.514H4.9L17.861.7z" style="stroke:#1d1d1e;stroke-linecap:round;stroke-linejoin:round;stroke-width:1.4px;fill:none"/>
        <path data-name="路径 39" d="M.7 18.223v1.734A3.243 3.243 0 0 0 3.943 23.2h16.4a3.243 3.243 0 0 0 3.242-3.243v-4.384h-5.343a3.051 3.051 0 0 1 0-6.1h5.18a3.232 3.232 0 0 0-3.083-2.288H3.943A3.243 3.243 0 0 0 .7 10.426V14.3" style="stroke:#1d1d1e;stroke-linecap:round;stroke-linejoin:round;stroke-width:1.4px;fill:none"/>
        <path data-name="直线 57" transform="translate(18.242 13.285)" style="stroke:#1d1d1e;stroke-linecap:round;stroke-linejoin:round;stroke-width:1.4px;fill:none" d="M0 0h3.051"/>
        <path data-name="直线 58" transform="translate(.7 17.624)" style="stroke:#1d1d1e;stroke-linecap:round;stroke-linejoin:round;stroke-width:1.4px;fill:none" d="M0 0h9.153"/>
        <path data-name="路径 40" d="m7.946 15.573 2.454 3.051-2.275 2.632" transform="translate(0 -1)" style="stroke:#1d1d1e;stroke-linecap:round;stroke-linejoin:round;stroke-width:1.4px;fill:none"/>
    </g>
</svg>
