<svg data-name="组 6943" xmlns="http://www.w3.org/2000/svg" width="40" height="40" viewBox="0 0 40 40">
    <g data-name="组 6767">
        <path data-name="矩形 8181" d="M0 0h40v40H0z" style="fill:none"/>
    </g>
    <g data-name="组 6771">
        <path data-name="路径 12870" d="M60.776 42.667a18.109 18.109 0 1 1-18.109 18.109 18.109 18.109 0 0 1 18.109-18.109zm0 32.924A14.816 14.816 0 1 0 45.96 60.776a14.816 14.816 0 0 0 14.816 14.815z" transform="translate(-40.776 -40.774)" style="fill:#ebcb9c"/>
        <path data-name="路径 12871" d="M367.994 256a5.735 5.735 0 0 1 5.293 6.151 6.622 6.622 0 0 1-1.589 4.393 6.622 6.622 0 0 1 1.589 4.393 5.353 5.353 0 1 1-10.589 0 6.622 6.622 0 0 1 1.589-4.393 6.622 6.622 0 0 1-1.589-4.393 5.735 5.735 0 0 1 5.3-6.151zm0 8.789a2.667 2.667 0 1 0-2.269-2.636 2.429 2.429 0 0 0 2.269 2.636zm0 8.789a2.667 2.667 0 1 0-2.269-2.636 2.429 2.429 0 0 0 2.269 2.633z" transform="translate(-347.994 -246.545)" style="fill:#ebcb9c"/>
    </g>
</svg>
