<svg xmlns="http://www.w3.org/2000/svg" width="40" height="40" viewBox="0 0 40 40">
    <g data-name="组 6944">
        <g data-name="组 6772">
            <path data-name="矩形 8181" d="M0 0h40v40H0z" style="fill:none"/>
        </g>
        <g data-name="组 1042">
            <path data-name="路径 12872" d="M298.408 20.5a3.909 3.909 0 0 1 4.7-2.524l.184.053L318.18 22.7a3.827 3.827 0 0 1 2.576 4.642l-.056.182-4 12.056-2.164-.72 4-12.053a1.555 1.555 0 0 0-.916-1.9l-.118-.042-14.889-4.667a1.656 1.656 0 0 0-2 .889l-.047.124-.667 2.016-2.156-.7.667-2.018z" transform="translate(-285.171 -16.709)" style="fill:#ebcb9c"/>
            <path data-name="路径 12873" d="M133.426 186.154h-15.713a3.891 3.891 0 0 0-3.907 3.86v24.124a3.891 3.891 0 0 0 3.907 3.86h15.713a3.891 3.891 0 0 0 3.907-3.86v-24.124a3.891 3.891 0 0 0-3.907-3.86zm-15.713 2.267h15.713a1.624 1.624 0 0 1 1.638 1.593v24.124a1.624 1.624 0 0 1-1.638 1.593h-15.713a1.624 1.624 0 0 1-1.64-1.593v-24.124a1.625 1.625 0 0 1 1.64-1.593z" transform="translate(-109.524 -179.141)" style="fill:#ebcb9c"/>
            <path data-name="路径 12874" d="M133.426 186.154h-15.713a3.891 3.891 0 0 0-3.907 3.86v24.124a3.891 3.891 0 0 0 3.907 3.86h15.713a3.891 3.891 0 0 0 3.907-3.86v-24.124a3.891 3.891 0 0 0-3.907-3.86zm-15.713 2.267h15.713a1.624 1.624 0 0 1 1.638 1.593v24.124a1.624 1.624 0 0 1-1.638 1.593h-15.713a1.624 1.624 0 0 1-1.64-1.593v-24.124a1.625 1.625 0 0 1 1.64-1.593z" transform="translate(-109.524 -179.141)" style="fill:#ebcb9c"/>
            <path data-name="路径 12875" d="M220.831 306.343v2.889h-2.267v-2.889zm13.131 20.5v2.889H231.7v-2.889zm-7.687-14.256-.129.127.031.029a4.3 4.3 0 0 0-6.2-.047 4.567 4.567 0 0 0 .044 6.3l5.313 5.484a1.133 1.133 0 0 0 1.629 0l5.312-5.48a4.567 4.567 0 0 0 .047-6.3 4.3 4.3 0 0 0-6.044-.109zm4.52 1.8a2.311 2.311 0 0 1-.153 3.033l-4.5 4.642-4.5-4.642a2.3 2.3 0 0 1-.044-3.151 2.036 2.036 0 0 1 2.944.047l.784.809a1.133 1.133 0 0 0 1.629 0l.787-.809a2.036 2.036 0 0 1 2.944-.049z" transform="translate(-210.293 -294.752)" style="fill:#ebcb9c"/>
        </g>
    </g>
</svg>
