<svg data-name="组 6941" xmlns="http://www.w3.org/2000/svg" width="40" height="40" viewBox="0 0 40 40">
    <path data-name="矩形 8181" d="M0 0h40v40H0z" style="fill:none"/>
    <path data-name="联合 176" d="M10405-5366.085v-7.442a5.011 5.011 0 0 1 3.629-4.724l3.445-1.069a7.435 7.435 0 0 1-2.2-1.68l-.764-.8.719-.9a11.3 11.3 0 0 0 1.482-6.423 24.905 24.905 0 0 1 .494-4.765c1.461-7.159 5.6-11.1 11.662-11.1a10.728 10.728 0 0 1 10.055 6.28 23.254 23.254 0 0 1 2.127 9.586 11.19 11.19 0 0 0 1.533 6.46l.7.854-.768.83a7.583 7.583 0 0 1-2.209 1.673l3.416 1.065a5.013 5.013 0 0 1 3.633 4.724v7.441zm4.541-9.606a2.3 2.3 0 0 0-1.66 2.164v4.746h31.2l.031-4.759a2.288 2.288 0 0 0-1.66-2.158l-7.074-2.209v.019l-.059.085a2.3 2.3 0 0 1-.215.288 8.068 8.068 0 0 1-2.451 2.142h-.018l-.354.183a4.366 4.366 0 0 1-.471.229l-.3.127-.2.071-.523.175h-.09l-.266.071-.277.06c-.084.018-.16.037-.246.048v4.475h-2.887v-4.463a3.05 3.05 0 0 0-.246-.048c-.111-.026-.229-.049-.344-.086a2.034 2.034 0 0 1-.311-.086l-.135-.043a3.134 3.134 0 0 1-.4-.134l-.207-.079-.27-.114-.361-.169-.414-.217a8.483 8.483 0 0 1-2.123-1.721c-.133-.156-.295-.35-.344-.417l-.131-.175c-.018-.029-.037-.059-.057-.086s-.061-.079-.086-.12zm10.332-3.682-.053.022a6.856 6.856 0 0 1-.691.308 3.665 3.665 0 0 0 .414.485v.012a2.591 2.591 0 0 0 .242.231l.041.036a2 2 0 0 0 .221.193l.266.2c.129.09.27.18.412.265l.2.108.162.078a.554.554 0 0 0 .1.053l.1.044a3.731 3.731 0 0 0 .381.146l.053.018c.084.03.162.06.246.086a.66.66 0 0 1 .146.048.546.546 0 0 1 .08.025h.129l.084.012a5.027 5.027 0 0 0 2.027 0l.086-.012h.084l.266-.07a1.978 1.978 0 0 0 .264-.085l.027-.012a3.527 3.527 0 0 0 .4-.15l.234-.113a1.34 1.34 0 0 0 .215-.115l.053-.022c.09-.048.182-.1.266-.156v-.011a3.2 3.2 0 0 0 .266-.184l.1-.084a.85.85 0 0 0 .166-.127l.047-.044a1.066 1.066 0 0 0 .188-.168 2.98 2.98 0 0 0 .186-.187v-.012a5.868 5.868 0 0 0 .424-.5 2.182 2.182 0 0 1-.242-.1l-.234-.1-.385-.193a2.316 2.316 0 0 1-.246-.139 4.505 4.505 0 0 1-.4-.251l-.088-.072-.205-.182-.066-.06a8.229 8.229 0 0 1-2.414.361 8.2 8.2 0 0 1-2.426-.367l-.059.054-.246.187-.107.079-.416.271a3.2 3.2 0 0 1-.3.205zm10.027-17.388a3.881 3.881 0 0 0 1.344 1.637l.324.229.156.361a11.192 11.192 0 0 1 .715 2.39l.016.091v.053a11.335 11.335 0 0 1-.227 4.831l-.045.176-.174.565a11.961 11.961 0 0 1-.5 1.228 6.239 6.239 0 0 1-.4.752 9.65 9.65 0 0 1-1.193 1.628 9.262 9.262 0 0 1-1.186 1.119c.057.024.117.047.178.066a3.828 3.828 0 0 0 .385.14l.084.022c.047.019.086.03.123.049l.066.018h.053l.324.079.3.066a1.35 1.35 0 0 0 .314.045h.105a4.8 4.8 0 0 0 .627.04 4.887 4.887 0 0 0 2.92-.945 15.757 15.757 0 0 1-1.424-7.021 20.546 20.546 0 0 0-1.859-8.437 7.826 7.826 0 0 0-7.441-4.732c-5.809 0-8 4.83-8.818 8.9a22.358 22.358 0 0 0-.459 4.276 15.28 15.28 0 0 1-1.434 7 5.009 5.009 0 0 0 2.9.919 5.367 5.367 0 0 0 .652-.043c.184-.023.346-.042.5-.071l.246-.042.193-.044.381-.107c.143-.044.285-.092.408-.139l.174-.073a9.653 9.653 0 0 1-1.182-1.111 10.366 10.366 0 0 1-1.187-1.643c-.145-.246-.279-.5-.408-.757l-.064-.134a12.215 12.215 0 0 1-.551-1.481l-.084-.283a11.831 11.831 0 0 1-.391-3 11.207 11.207 0 0 1 .711-3.93l.326-.9h1a34.724 34.724 0 0 0 4.795-.518 32.37 32.37 0 0 0 6.8-1.99l1.332-.56zm-8.187 3.96a38.878 38.878 0 0 1-4.2.517 8.45 8.45 0 0 0-.25 2.167 9.131 9.131 0 0 0 .268 2.321l.066.23a9.441 9.441 0 0 0 .471 1.23l.053.1c.07.145.156.294.246.476a7.636 7.636 0 0 0 .879 1.215 6.154 6.154 0 0 0 2.029 1.518 5.139 5.139 0 0 0 2.176.477 5.305 5.305 0 0 0 2.135-.462l.16-.086a6.252 6.252 0 0 0 1.967-1.444 7.938 7.938 0 0 0 .863-1.184c.1-.206.207-.4.3-.6a8.976 8.976 0 0 0 .492-1.262l.055-.191a8.787 8.787 0 0 0 .174-3.864l-.006-.132a7.98 7.98 0 0 0-.4-1.428 6.672 6.672 0 0 1-1.236-1.292 36.116 36.116 0 0 1-6.242 1.693z" transform="translate(-10403.479 5405.542)" style="fill:#ebcb9c"/>
</svg>
