<svg xmlns="http://www.w3.org/2000/svg" width="40" height="40" viewBox="0 0 40 40">
    <g data-name="组 6939">
        <path data-name="矩形 8181" d="M0 0h40v40H0z" style="fill:none"/>
        <g data-name="组 6763">
            <path data-name="路径 3" d="M81.613 99.045a16.9 16.9 0 0 1-8.393-2.222l-.031-.02-.044-.027-.091-.053A16.909 16.909 0 0 1 64.7 82.176v-.162a16.913 16.913 0 0 1 8.431-14.533l.016-.011.033-.02a16.942 16.942 0 0 1 16.869 0h.027l.038.022a16.907 16.907 0 0 1 8.411 14.551v.122A16.924 16.924 0 0 1 90.173 96.7a.966.966 0 0 1-.091.053l-.044.027-.031.02a16.971 16.971 0 0 1-8.4 2.222zm-7.249-4.191a14.667 14.667 0 0 0 14.5 0l.082-.049.044-.027.02-.011a14.74 14.74 0 0 0 7.242-12.622V82a14.709 14.709 0 0 0-7.313-12.564l-.129-.076a14.667 14.667 0 0 0-14.476.044l-.016.011-.031.02a14.718 14.718 0 0 0-7.318 12.591v.147a14.718 14.718 0 0 0 7.242 12.591l.02.011.044.027zm15.669-27.418z" transform="translate(-61.613 -62.123)" style="fill:#ebcb9c"/>
            <path data-name="路径 4" d="M282.291 317.745h-8.929l-4.462-8.222 4.46-8.222h8.929l4.464 8.222zm-7.658-2.347h6.384l3.193-5.876-3.191-5.876h-6.387l-3.189 5.876z" transform="translate(-257.828 -289.547)" style="fill:#ebcb9c"/>
            <path data-name="路径 5" d="M282.1 76.409h-8.929L268.7 68.44l.493-.844.249-.147a16.06 16.06 0 0 1 16.391 0l.331.2.349.889zm-7.658-2.271h6.384l2.942-5.242a13.907 13.907 0 0 0-12.264 0zm3.2 24.909a16.076 16.076 0 0 1-8.16-2.224l-.26-.154-.484-.876.282-.582 4.16-7.411h8.92l4.462 7.958-.507.916-.26.156a16.127 16.127 0 0 1-8.158 2.218zm-6.149-3.707a13.9 13.9 0 0 0 12.3 0l-2.958-5.278h-6.38z" transform="translate(-257.635 -62.124)" style="fill:#ebcb9c"/>
            <path data-name="路径 6" d="M586.951 497.945h-1.111l-4.742-8.222 4.747-8.222h9.493l.524.918v.313a17.466 17.466 0 0 1-8.64 15.053zm-3.142-8.222 3.142 5.453a15.244 15.244 0 0 0 6.522-11.333H587.2z" transform="translate(-558.951 -463.26)" style="fill:#ebcb9c"/>
            <path data-name="路径 7" d="M97.9 136.847h-9.167l-4.589-7.922L88.736 121h.976l.264.156a17.018 17.018 0 0 1 6.1 6.018 16.782 16.782 0 0 1 2.349 8.491v.324zm-7.856-2.26h6.069a14.653 14.653 0 0 0-6.324-10.887l-3.027 5.218zm-15.735 15.842h-1.082l-.264-.156A16.824 16.824 0 0 1 64.6 135.8v-.316l.538-.889h9.171l4.571 7.882-.291.58zm-7.4-13.582a14.667 14.667 0 0 0 6.318 10.918l3.049-5.26-3.284-5.658z" transform="translate(-61.515 -115.742)" style="fill:#ebcb9c"/>
            <path data-name="路径 8" d="M74.44 137.641h-9.48l-.56-.931v-.329a17.462 17.462 0 0 1 8.736-15.022l.273-.156h1.029l4.751 8.222zm-7.64-2.347h6.291l3.393-5.876-3.14-5.418a15.222 15.222 0 0 0-6.544 11.287z" transform="translate(-61.324 -115.932)" style="fill:#ebcb9c"/>
        </g>
    </g>
</svg>
