<svg width="14" height="14" viewBox="0 0 14 14" fill="none" xmlns="http://www.w3.org/2000/svg">
<g clip-path="url(#clip0_61_233)">
<path d="M11.803 9.99669C11.644 9.99655 11.4915 9.93324 11.379 9.82069L7.00304 5.44569L2.62604 9.82069C2.57046 9.87711 2.50425 9.92198 2.43125 9.95269C2.35824 9.9834 2.27988 9.99935 2.20067 9.99963C2.12147 9.9999 2.043 9.9845 1.96978 9.95429C1.89656 9.92409 1.83005 9.87968 1.77408 9.82365C1.7181 9.76761 1.67378 9.70104 1.64366 9.62779C1.61355 9.55454 1.59823 9.47604 1.5986 9.39684C1.59897 9.31764 1.61501 9.23929 1.64581 9.16632C1.67661 9.09335 1.72155 9.0272 1.77804 8.97169L6.57804 4.17169C6.68429 4.06603 6.82623 4.00394 6.97594 3.99765C7.12565 3.99136 7.2723 4.04131 7.38704 4.13769L7.40304 4.13769L7.41004 4.14469L7.42004 4.14469L12.22 8.94469C12.2805 9.00302 12.328 9.0734 12.3595 9.15126C12.3911 9.22912 12.4059 9.31274 12.403 9.39669C12.4029 9.55577 12.3396 9.70828 12.227 9.82069C12.1146 9.93324 11.9621 9.99655 11.803 9.99669Z" fill="#1E2329"/>
</g>
<defs>
<clipPath id="clip0_61_233">
<rect width="14" height="14" fill="white"/>
</clipPath>
</defs>
</svg>
