<svg width="14" height="14" viewBox="0 0 14 14" fill="none" xmlns="http://www.w3.org/2000/svg">
<g clip-path="url(#clip0_61_232)">
<path d="M4.0027 11.8004C4.00284 11.6413 4.06615 11.4888 4.1787 11.3764L8.5537 7.00041L4.1787 2.62341C4.12227 2.56783 4.07741 2.50163 4.0467 2.42862C4.01599 2.35562 4.00003 2.27725 3.99976 2.19805C3.99948 2.11885 4.01489 2.04037 4.0451 1.96716C4.0753 1.89394 4.1197 1.82742 4.17574 1.77145C4.23178 1.71548 4.29834 1.67116 4.3716 1.64104C4.44485 1.61092 4.52334 1.5956 4.60255 1.59597C4.68175 1.59634 4.76009 1.61239 4.83306 1.64318C4.90603 1.67398 4.97218 1.71892 5.0277 1.77541L9.8277 6.57541C9.93336 6.68166 9.99545 6.8236 10.0017 6.97331C10.008 7.12303 9.95808 7.26968 9.8617 7.38441L9.8617 7.40041L9.8547 7.40741L9.8547 7.41741L5.0547 12.2174C4.99637 12.2779 4.92599 12.3254 4.84813 12.3569C4.77027 12.3884 4.68665 12.4033 4.6027 12.4004C4.44362 12.4003 4.29111 12.337 4.1787 12.2244C4.06615 12.112 4.00284 11.9595 4.0027 11.8004Z" fill="#1E2329"/>
</g>
<defs>
<clipPath id="clip0_61_232">
<rect width="14" height="14" fill="white"/>
</clipPath>
</defs>
</svg>
