<svg width="14" height="14" viewBox="0 0 14 14" fill="none" xmlns="http://www.w3.org/2000/svg">
<g clip-path="url(#clip0_61_234)">
<path d="M9.99931 2.19629C9.99917 2.35537 9.93587 2.50788 9.82331 2.62029L5.44831 6.99629L9.82331 11.3733C9.87974 11.4289 9.9246 11.4951 9.95531 11.5681C9.98603 11.6411 10.002 11.7195 10.0023 11.7987C10.0025 11.8779 9.98712 11.9563 9.95692 12.0295C9.92671 12.1028 9.88231 12.1693 9.82627 12.2253C9.77023 12.2812 9.70367 12.3255 9.63041 12.3557C9.55716 12.3858 9.47867 12.4011 9.39947 12.4007C9.32027 12.4004 9.24192 12.3843 9.16895 12.3535C9.09598 12.3227 9.02983 12.2778 8.97431 12.2213L4.17431 7.42129C4.06865 7.31504 4.00657 7.1731 4.00027 7.02339C3.99398 6.87368 4.04394 6.72703 4.14031 6.61229L4.14031 6.59629L4.14731 6.58929L4.14731 6.57929L8.94731 1.77929C9.00565 1.71885 9.07602 1.67132 9.15388 1.6398C9.23175 1.60828 9.31536 1.59345 9.39931 1.59629C9.55839 1.59643 9.7109 1.65974 9.82331 1.77229C9.93587 1.8847 9.99917 2.03721 9.99931 2.19629Z" fill="#1E2329"/>
</g>
<defs>
<clipPath id="clip0_61_234">
<rect width="14" height="14" fill="white"/>
</clipPath>
</defs>
</svg>
