<svg width="14" height="14" viewBox="0 0 14 14" fill="none" xmlns="http://www.w3.org/2000/svg">
<path d="M7 14C5.61553 14 4.26215 13.5895 3.11101 12.8203C1.95987 12.0511 1.06266 10.9579 0.532846 9.67879C0.00303297 8.3997 -0.13559 6.99224 0.134506 5.63437C0.404603 4.2765 1.07129 3.02922 2.05026 2.05026C3.02922 1.07129 4.2765 0.404603 5.63437 0.134506C6.99224 -0.13559 8.3997 0.00303297 9.67879 0.532846C10.9579 1.06266 12.0511 1.95987 12.8203 3.11101C13.5895 4.26215 14 5.61553 14 7C13.9979 8.85588 13.2597 10.6351 11.9474 11.9474C10.6351 13.2597 8.85588 13.9979 7 14ZM7 7.92838L9.625 10.5534L10.5525 9.62588L7.9275 7L10.5569 4.375L9.62938 3.44663L7 6.07163L4.375 3.44225L3.44225 4.375L6.07163 7L3.44225 9.62938L4.375 10.5569L7 7.93188V7.92838Z" fill="#1E2329"/>
</svg>
