<svg width="8" height="6" viewBox="0 0 8 6" fill="none" xmlns="http://www.w3.org/2000/svg">
<path d="M2.97493 5.30471L0.995036 3.32481C0.86376 3.19353 0.790011 3.01549 0.790011 2.82983C0.790011 2.64418 0.86376 2.46613 0.995036 2.33486C1.12631 2.20358 1.30436 2.12983 1.49001 2.12983C1.67566 2.12983 1.85371 2.20358 1.98499 2.33486L3.46991 3.81978L6.43976 0.849935C6.57103 0.718659 6.74908 0.64491 6.93473 0.64491C7.12038 0.64491 7.29843 0.718659 7.42971 0.849935C7.56098 0.98121 7.63473 1.15926 7.63473 1.34491C7.63473 1.53056 7.56098 1.70861 7.42971 1.83988L3.96488 5.30471C3.83361 5.43598 3.65556 5.50973 3.46991 5.50973C3.28426 5.50973 3.10621 5.43598 2.97493 5.30471Z" fill="white"/>
</svg>
