<svg width="17" height="14" viewBox="0 0 17 14" fill="none" xmlns="http://www.w3.org/2000/svg">
<path d="M0.622048 13.8825C0.543284 13.8871 0.464404 13.8756 0.39025 13.8486C0.316096 13.8217 0.248233 13.7799 0.190826 13.7257C0.13342 13.6716 0.0876824 13.6063 0.0564207 13.5339C0.025159 13.4614 0.0090332 13.3834 0.0090332 13.3045C0.0090332 13.2256 0.025159 13.1475 0.0564207 13.0751C0.0876824 13.0026 0.13342 12.9373 0.190826 12.8832C0.248233 12.8291 0.316096 12.7872 0.39025 12.7603C0.464404 12.7333 0.543284 12.7218 0.622048 12.7265V12.7265L1.47305 8.33246L9.83205 0.346462C10.0824 0.123309 10.4061 0 10.7415 0C11.077 0 11.4007 0.123309 11.651 0.346462L13.592 2.19946C13.7067 2.31316 13.7978 2.44845 13.8599 2.59751C13.922 2.74658 13.954 2.90647 13.954 3.06796C13.954 3.22945 13.922 3.38934 13.8599 3.53841C13.7978 3.68748 13.7067 3.82276 13.592 3.93646L5.22805 11.9145L0.628048 12.7255H16.378C16.4568 12.7208 16.5357 12.7323 16.6098 12.7593C16.684 12.7862 16.7519 12.8281 16.8093 12.8822C16.8667 12.9363 16.9124 13.0016 16.9437 13.0741C16.9749 13.1465 16.9911 13.2246 16.9911 13.3035C16.9911 13.3824 16.9749 13.4604 16.9437 13.5329C16.9124 13.6053 16.8667 13.6706 16.8093 13.7247C16.7519 13.7789 16.684 13.8207 16.6098 13.8476C16.5357 13.8746 16.4568 13.8861 16.378 13.8815L0.622048 13.8825ZM2.80405 8.56046L2.07705 11.2235L4.98405 10.6435L10.561 5.32246L8.37905 3.23846L2.80405 8.56046ZM10.075 1.62046L9.10505 2.54446L11.286 4.62846L12.376 3.70046C12.4667 3.60916 12.5367 3.49935 12.581 3.37854C12.6254 3.25773 12.6431 3.12876 12.633 3.00046C12.6247 2.86538 12.5866 2.73382 12.5214 2.61521C12.4562 2.49661 12.3656 2.3939 12.256 2.31446L11.529 1.62246C11.3037 1.4579 11.033 1.36708 10.754 1.36246C10.5029 1.3579 10.2598 1.45031 10.075 1.62046V1.62046Z" fill="#707A8A"/>
</svg>
