<svg width="14" height="14" viewBox="0 0 14 14" fill="none" xmlns="http://www.w3.org/2000/svg">
<path d="M9.15 11.725H4.45C4.46429 11.6824 4.49028 11.6446 4.525 11.616C5.26933 10.7714 5.7094 9.70187 5.775 8.578C5.21773 8.32456 4.74048 7.9234 4.395 7.418C3.48359 7.37548 2.62327 6.98475 1.99155 6.32641C1.35983 5.66808 1.0049 4.79239 1 3.88L1 3.02C1 2.92973 1.03579 2.84315 1.09952 2.77923C1.16326 2.71531 1.24973 2.67926 1.34 2.679H3.076C3.076 2.633 3.076 2.588 3.069 2.544C3.069 2.478 3.061 2.41 3.061 2.344C3.05993 2.29895 3.06792 2.25415 3.08451 2.21226C3.10111 2.17036 3.12596 2.13224 3.15758 2.10014C3.18921 2.06805 3.22697 2.04264 3.26862 2.02544C3.31026 2.00824 3.35494 1.99958 3.4 2H10.2C10.2447 1.9996 10.2891 2.00812 10.3304 2.02508C10.3718 2.04204 10.4094 2.06708 10.441 2.09875C10.4725 2.13041 10.4975 2.16806 10.5143 2.20949C10.5311 2.25092 10.5395 2.29529 10.539 2.34C10.539 2.406 10.539 2.47 10.532 2.533C10.525 2.596 10.526 2.633 10.525 2.68H12.261C12.3511 2.68026 12.4374 2.71617 12.5011 2.77987C12.5648 2.84358 12.6007 2.92991 12.601 3.02V3.88C12.5994 4.46921 12.4502 5.04863 12.167 5.56534C11.8839 6.08205 11.4758 6.51959 10.98 6.838C10.4505 7.18269 9.83984 7.38234 9.209 7.417C8.87722 7.89982 8.42631 8.28872 7.9 8.546L7.879 8.556L7.826 8.579C7.88883 9.7032 8.32927 10.7733 9.076 11.616C9.1102 11.6444 9.13582 11.6818 9.15 11.724V11.725ZM1.679 3.359V3.88C1.68714 4.5339 1.91552 5.16596 2.32724 5.67404C2.73897 6.18212 3.30998 6.53653 3.948 6.68C3.45456 5.63698 3.16827 4.50811 3.105 3.356L1.679 3.359ZM10.493 3.359C10.4289 4.51054 10.143 5.63887 9.651 6.682C10.2887 6.53814 10.8592 6.18356 11.2705 5.67552C11.6819 5.16748 11.91 4.53563 11.918 3.882V3.359H10.493ZM6.8 6.038L7.341 6.319L7.353 6.324L7.369 6.331C7.44247 6.35676 7.52253 6.35676 7.596 6.331C7.63243 6.32433 7.66754 6.31183 7.7 6.294C7.71622 6.28247 7.73129 6.26941 7.745 6.255C7.78166 6.21664 7.80895 6.17032 7.82474 6.11967C7.84052 6.06901 7.84438 6.01539 7.836 5.963L7.736 5.363L8.171 4.934C8.21654 4.89012 8.24877 4.83427 8.26398 4.77289C8.27919 4.7115 8.27677 4.64707 8.257 4.587C8.23717 4.52692 8.20105 4.47352 8.15268 4.43274C8.10431 4.39195 8.04557 4.36539 7.983 4.356L7.383 4.265L7.1 3.715C7.0686 3.66238 7.02408 3.6188 6.97079 3.58855C6.91751 3.55829 6.85728 3.54238 6.796 3.54238C6.73472 3.54238 6.67449 3.55829 6.62121 3.58855C6.56792 3.6188 6.5234 3.66238 6.492 3.715L6.218 4.261L5.618 4.352C5.55544 4.36111 5.49667 4.38753 5.44834 4.42828C5.4 4.46903 5.36403 4.52249 5.34447 4.58261C5.32492 4.64273 5.32256 4.70712 5.33768 4.7685C5.35279 4.82989 5.38477 4.88583 5.43 4.93L5.865 5.359L5.765 5.959C5.75462 6.02122 5.76186 6.0851 5.78589 6.14341C5.80992 6.20173 5.8498 6.25216 5.901 6.289C5.95905 6.33128 6.02919 6.35372 6.101 6.353C6.15593 6.35298 6.21007 6.33996 6.259 6.315L6.8 6.039V6.038Z" fill="#B1BAD3"/>
</svg>
