<svg width="18" height="19" viewBox="0 0 18 19" fill="none" xmlns="http://www.w3.org/2000/svg">
<path d="M13.9711 1.64905H2.93408V17.592H13.9711V1.64905Z" fill="#787F8F"/>
<path d="M4.77409 3.79504H0.788086V6.55404H4.77409V3.79504Z" fill="#787F8F"/>
<path d="M4.77409 8.70004H0.788086V11.153H4.77409V8.70004Z" fill="#787F8F"/>
<path d="M4.77409 12.993H0.788086V15.752H4.77409V12.993Z" fill="#787F8F"/>
<path d="M8.14093 4.73204C7.20493 4.73204 6.47693 5.01804 5.95693 5.59004C5.43693 6.13604 5.18993 6.86404 5.18993 7.77404H6.21693C6.21693 7.13704 6.35993 6.64304 6.64593 6.27904C6.95793 5.85004 7.43893 5.64204 8.08893 5.64204C8.63493 5.64204 9.06393 5.78504 9.36293 6.09704C9.64893 6.38304 9.80493 6.78604 9.80493 7.30604C9.80493 7.67004 9.67493 8.00804 9.41493 8.33304C9.33693 8.43704 9.18093 8.59304 8.97293 8.80104C8.27093 9.42504 7.84193 9.91904 7.65993 10.309C7.50393 10.634 7.42593 11.011 7.42593 11.44V11.739H8.46593V11.44C8.46593 11.089 8.54393 10.777 8.71293 10.491C8.84293 10.257 9.03793 10.023 9.32393 9.77604C9.89593 9.26904 10.2469 8.93104 10.3769 8.77504C10.7019 8.34604 10.8709 7.83904 10.8709 7.25404C10.8709 6.47404 10.6239 5.86304 10.1429 5.42104C9.63593 4.95304 8.97293 4.73204 8.14093 4.73204ZM7.94593 12.649C7.72493 12.649 7.54293 12.714 7.38693 12.87C7.23093 13.013 7.16593 13.195 7.16593 13.416C7.16593 13.637 7.23093 13.819 7.38693 13.975C7.54293 14.118 7.72493 14.196 7.94593 14.196C8.16693 14.196 8.34893 14.118 8.50493 13.975C8.66093 13.832 8.73893 13.65 8.73893 13.416C8.73893 13.195 8.66093 13.013 8.51793 12.87C8.36193 12.714 8.16693 12.649 7.94593 12.649Z" fill="white"/>
</svg>
