<svg width="14" height="14" viewBox="0 0 14 14" fill="none" xmlns="http://www.w3.org/2000/svg">
<path fill-rule="evenodd" clip-rule="evenodd" d="M12.117 9.0949C12.117 8.84674 12.3195 8.64425 12.5691 8.64425C12.8173 8.64425 12.9985 8.84674 12.9985 9.0949V11.8292C12.9985 12.4824 12.4778 13 11.8216 13H9.09642C8.84826 13 8.64425 12.7975 8.64425 12.5494C8.64425 12.3012 8.84826 12.0987 9.09642 12.0987H11.5293C11.846 12.0987 12.117 11.8277 12.117 11.5126V9.0949ZM9.0949 1.00152H11.8049C12.458 1.00152 12.9756 1.51916 13 2.17229V4.90662C13 5.15478 12.7975 5.35727 12.5494 5.35727C12.3012 5.35727 12.0987 5.15478 12.0987 4.90662V2.48896C12.0987 2.17381 11.8277 1.90282 11.5126 1.90282H9.0949C8.84674 1.90282 8.64425 1.70033 8.64425 1.45217C8.64425 1.20401 8.84674 1.00152 9.0949 1.00152ZM1.88302 4.9051C1.88302 5.15326 1.67902 5.35575 1.43086 5.35575C1.26204 5.35575 1.12422 5.08801 1.05287 4.9494C1.01934 4.88426 1.00049 4.84764 1 4.88074V2.17077C1 1.51764 1.52068 1 2.17686 1H4.90206C5.15022 1 5.35423 1.20249 5.35423 1.45065C5.35423 1.69881 5.15174 1.90129 4.90206 1.90129H2.47069C2.15402 1.90129 1.88302 2.17229 1.88302 2.48744V4.9051ZM2.49505 12.1155H4.92641C5.17457 12.1155 5.35575 12.3195 5.35727 12.5463C5.35727 12.7945 5.15326 12.9985 4.9051 12.9985H2.1799C1.52372 12.9985 1.00304 12.4778 1.00304 11.8216V9.09642C1.00304 8.84826 1.20553 8.64425 1.45521 8.64425C1.70337 8.64425 1.90738 8.84674 1.90738 9.09642V11.5278C1.90738 11.8445 2.17838 12.1155 2.49505 12.1155ZM2.69922 10.8407V3.03045C2.69922 3.0137 2.71292 3 2.72967 3H11.2859C11.3026 3 11.3163 3.0137 11.3163 3.03045V10.8407C11.3163 10.8574 11.3026 10.8711 11.2859 10.8711H2.72967C2.71292 10.8711 2.69922 10.8574 2.69922 10.8407ZM8.88039 6.36463H5.13515C4.82457 6.36463 4.57184 6.61736 4.57184 6.92794C4.57184 7.23852 4.82457 7.49125 5.13515 7.49125H8.88039C9.19097 7.49125 9.4437 7.23852 9.4437 6.92794C9.4437 6.61736 9.19097 6.36463 8.88039 6.36463Z" fill="#557086"/>
</svg>
