<svg width="14" height="14" viewBox="0 0 14 14" fill="none" xmlns="http://www.w3.org/2000/svg">
<path d="M12.1409 12.9717L9.06216 9.89356C8.03306 10.7372 6.71896 11.1529 5.3919 11.0544C4.06483 10.956 2.82642 10.3511 1.93302 9.36485C1.03963 8.37862 0.559674 7.08662 0.592507 5.75632C0.625339 4.42601 1.16845 3.15926 2.1094 2.21831C3.05036 1.27735 4.31711 0.734242 5.64741 0.701409C6.97772 0.668576 8.26972 1.14853 9.25595 2.04193C10.2422 2.93532 10.8471 4.17373 10.9455 5.5008C11.0439 6.82787 10.6283 8.14197 9.78466 9.17107L12.8622 12.2498C12.9333 12.3213 12.9816 12.4122 13.0012 12.5111C13.0207 12.6101 13.0105 12.7125 12.972 12.8057C12.9334 12.8988 12.8681 12.9785 12.7843 13.0346C12.7006 13.0907 12.6021 13.1208 12.5012 13.121C12.4343 13.1211 12.368 13.1079 12.3062 13.0822C12.2444 13.0566 12.1882 13.0191 12.1409 12.9717ZM12.2268 12.8852C12.2999 12.9583 12.3991 12.9994 12.5025 12.9994C12.6059 12.9994 12.705 12.9583 12.7782 12.8852C12.8513 12.8121 12.8923 12.7129 12.8923 12.6095C12.8923 12.5061 12.8513 12.4069 12.7782 12.3338C12.8159 12.3696 12.8454 12.4126 12.8663 12.4603C12.8871 12.5079 12.8982 12.5593 12.8988 12.6113C12.8995 12.6633 12.8898 12.7149 12.8702 12.7631C12.8506 12.8113 12.8215 12.855 12.7848 12.8918C12.748 12.9286 12.7042 12.9576 12.6561 12.9772C12.6079 12.9968 12.5563 13.0066 12.5043 13.0059C12.4523 13.0052 12.4009 12.9941 12.3533 12.9733C12.3056 12.9525 12.2626 12.9229 12.2268 12.8852L9.06901 9.72803C8.22913 10.4471 7.17708 10.8716 6.07338 10.9369C7.17721 10.8717 8.22963 10.4477 9.06963 9.72865L12.2268 12.8852ZM2.83105 2.9412C2.05064 3.72161 1.61221 4.78008 1.61221 5.88376C1.61221 6.98743 2.05064 8.0459 2.83105 8.82631C3.61147 9.60673 4.66993 10.0452 5.77361 10.0452C6.87728 10.0452 7.93575 9.60673 8.71616 8.82631C9.49658 8.0459 9.93501 6.98743 9.93501 5.88376C9.93501 4.78008 9.49658 3.72161 8.71616 2.9412C7.93575 2.16078 6.87728 1.72235 5.77361 1.72235C4.66993 1.72235 3.61147 2.16078 2.83105 2.9412ZM9.3534 2.30521C10.255 3.20685 10.7831 4.4155 10.8323 5.68963C10.8814 6.96375 10.4479 8.2095 9.6185 9.17791C10.2472 8.4427 10.6521 7.54274 10.7852 6.58457C10.9184 5.6264 10.7742 4.65015 10.3698 3.77137C9.96536 2.89259 9.31761 2.14808 8.50323 1.62598C7.68884 1.10388 6.74192 0.826049 5.77454 0.825371C6.43929 0.823186 7.09787 0.952852 7.71218 1.20686C8.32648 1.46088 8.88432 1.83419 9.3534 2.30521ZM10.0603 5.88469C10.0622 5.13007 9.86359 4.38849 9.48471 3.73588C9.86244 4.38882 10.06 5.13036 10.0572 5.88469H10.0603ZM2.74517 2.85532C2.34614 3.25223 2.02979 3.72435 1.81445 4.24434C1.5991 4.76433 1.48903 5.32187 1.49061 5.88469C1.49094 4.74862 1.94239 3.65918 2.74571 2.85586C3.54903 2.05254 4.63847 1.60109 5.77454 1.60076C5.21173 1.59925 4.65421 1.70935 4.13423 1.92469C3.61425 2.14003 3.14212 2.45634 2.74517 2.85532Z" fill="#1E2329"/>
</svg>
