<svg width="14" height="14" viewBox="0 0 14 14" fill="none" xmlns="http://www.w3.org/2000/svg">
<path d="M7.30917 12.5096L10.1286 13.652H10.1248C10.3542 13.746 10.607 13.7673 10.8489 13.7128C11.0908 13.6584 11.3101 13.5309 11.4771 13.3477C11.5913 13.2252 11.6785 13.0802 11.7332 12.9219C11.788 12.7637 11.8091 12.5958 11.7951 12.4289L11.5627 9.49183C11.5543 9.38233 11.5677 9.27226 11.602 9.16796C11.6364 9.06367 11.6911 8.96721 11.763 8.88418L13.7016 6.65096C13.839 6.49307 13.9332 6.30239 13.9752 6.09738C14.0173 5.89237 14.0056 5.67998 13.9415 5.48079C13.8773 5.28159 13.7628 5.10234 13.6091 4.96038C13.4553 4.81842 13.2675 4.71858 13.0638 4.67052L10.1345 3.97634C9.92261 3.92697 9.73901 3.79548 9.62406 3.61078L8.0296 1.07033C7.92018 0.895764 7.76822 0.751851 7.58796 0.652092C7.4077 0.552334 7.20505 0.5 6.99903 0.5C6.793 0.5 6.59036 0.552334 6.4101 0.652092C6.22984 0.751851 6.07787 0.895764 5.96846 1.07033L4.37399 3.61078C4.31766 3.70304 4.24365 3.78325 4.15623 3.84682C4.0688 3.91039 3.96967 3.95606 3.86454 3.9812L0.936174 4.67538C0.732497 4.72344 0.544683 4.82329 0.39092 4.96524C0.237157 5.1072 0.122656 5.28645 0.0585065 5.48565C-0.00564322 5.68485 -0.0172679 5.89723 0.0247582 6.10224C0.0667843 6.30725 0.161037 6.49793 0.298388 6.65582L2.23508 8.88418C2.37751 9.05277 2.44742 9.27088 2.42953 9.49085L2.19911 12.4289C2.18498 12.5957 2.20588 12.7636 2.26047 12.9218C2.31505 13.0801 2.40211 13.2251 2.51605 13.3477C2.6831 13.5309 2.90242 13.6584 3.14432 13.7128C3.38622 13.7673 3.639 13.746 3.86843 13.652L6.68791 12.5096C6.88718 12.4291 7.10991 12.4291 7.30917 12.5096Z" fill="#1CB7EA"/>
</svg>
