<svg width="21" height="19" viewBox="0 0 21 19" fill="none" xmlns="http://www.w3.org/2000/svg">
<path d="M15.0231 15C14.9293 14.9972 14.8403 14.9574 14.7756 14.8895C14.7108 14.8216 14.6754 14.7309 14.6771 14.637V12.072C14.6725 11.9947 14.6833 11.9173 14.709 11.8442C14.7347 11.7711 14.7747 11.7039 14.8266 11.6465C14.8786 11.589 14.9415 11.5425 15.0116 11.5097C15.0817 11.4768 15.1577 11.4582 15.2351 11.455C15.3756 11.4615 15.5079 11.5231 15.6033 11.6264C15.6988 11.7297 15.7497 11.8665 15.7451 12.007V13.877H16.9131C16.9879 13.8726 17.0629 13.8832 17.1336 13.9082C17.2043 13.9332 17.2693 13.9721 17.3247 14.0226C17.3802 14.0732 17.4249 14.1342 17.4564 14.2023C17.4879 14.2704 17.5054 14.3441 17.5079 14.419C17.5104 14.494 17.4979 14.5687 17.4712 14.6388C17.4444 14.7088 17.4038 14.7728 17.352 14.8269C17.3001 14.8811 17.2379 14.9243 17.169 14.954C17.1002 14.9837 17.0261 14.9994 16.9511 15H15.0231ZM4.16806 12.34C3.99427 12.3333 3.82967 12.2602 3.7082 12.1358C3.58673 12.0113 3.51765 11.8449 3.51522 11.671C3.51278 11.4971 3.57717 11.3289 3.6951 11.2011C3.81304 11.0733 3.97552 10.9956 4.14906 10.984H7.48606C7.57826 10.9866 7.66891 11.0083 7.75227 11.0478C7.83564 11.0873 7.9099 11.1436 7.97035 11.2133C8.0308 11.2829 8.07612 11.3644 8.10344 11.4525C8.13076 11.5406 8.13948 11.6334 8.12906 11.725C8.1147 11.8915 8.03902 12.0467 7.91669 12.1605C7.79437 12.2743 7.63413 12.3387 7.46706 12.341L4.16806 12.34ZM9.08006 8.78203H4.15306C4.06389 8.78144 3.97572 8.76329 3.89356 8.72862C3.81141 8.69395 3.73689 8.64344 3.67425 8.57997C3.54776 8.45179 3.47737 8.27861 3.47856 8.09853C3.47975 7.91845 3.55244 7.74622 3.68062 7.61972C3.8088 7.49323 3.98198 7.42284 4.16206 7.42403H9.07506C9.25118 7.42875 9.41826 7.50306 9.53971 7.63069C9.66116 7.75833 9.72709 7.92889 9.72306 8.10503C9.72929 8.27758 9.66692 8.44557 9.5496 8.57225C9.43229 8.69894 9.26958 8.774 9.09706 8.78103L9.08006 8.78203ZM4.14906 5.36203C4.06308 5.36103 3.97816 5.34281 3.89933 5.30846C3.8205 5.27411 3.74934 5.22432 3.69006 5.16203C3.62558 5.09304 3.57555 5.01185 3.54292 4.92323C3.51029 4.83461 3.49572 4.74036 3.50006 4.64603C3.50927 4.47495 3.58244 4.31357 3.70506 4.19391C3.82769 4.07425 3.9908 4.00505 4.16206 4.00003H11.2781C11.452 4.0053 11.6173 4.07674 11.7403 4.19976C11.8634 4.32279 11.9348 4.48813 11.9401 4.66203C11.9446 4.75081 11.9314 4.83961 11.9011 4.92319C11.8708 5.00677 11.8241 5.08344 11.7637 5.14868C11.7033 5.21392 11.6304 5.26641 11.5494 5.30305C11.4684 5.33969 11.3809 5.35975 11.2921 5.36203H4.14906Z" fill="#848E9C"/>
<path d="M10.6561 17.58H2.97806C2.69945 17.5795 2.43232 17.469 2.23475 17.2726C2.03719 17.0761 1.92517 16.8096 1.92306 16.531V2.46903C1.92517 2.19043 2.03719 1.92393 2.23475 1.72749C2.43232 1.53105 2.69945 1.42055 2.97806 1.42003H14.0221C14.3007 1.42055 14.5678 1.53105 14.7654 1.72749C14.9629 1.92393 15.075 2.19043 15.0771 2.46903V7.78203C15.0761 7.96136 15.1419 8.13462 15.2617 8.26808C15.3815 8.40155 15.5467 8.48565 15.7251 8.50403C15.8231 8.5132 15.9221 8.50183 16.0155 8.47065C16.1089 8.43946 16.1949 8.38915 16.2678 8.32291C16.3407 8.25667 16.399 8.17597 16.439 8.08594C16.479 7.99591 16.4998 7.89854 16.5001 7.80003V2.46903C16.4977 1.81339 16.2356 1.18541 15.7711 0.722636C15.3066 0.259866 14.6777 2.75063e-05 14.0221 3.18307e-05H2.97806C2.34393 -0.00318622 1.73287 0.237712 1.27154 0.672799C0.810198 1.10789 0.533956 1.7038 0.500061 2.33703L0.500061 16.668C0.535911 17.3001 0.812915 17.8944 1.27396 18.3282C1.73501 18.7621 2.34496 19.0026 2.97806 19H10.6421C10.8304 19.002 11.0117 18.9291 11.1463 18.7974C11.2809 18.6656 11.3576 18.4858 11.3596 18.2975C11.3616 18.1092 11.2887 17.9278 11.1569 17.7933C11.0252 17.6587 10.8454 17.582 10.6571 17.58H10.6561Z" fill="#848E9C"/>
<path d="M15.5001 19H15.4621C14.1514 18.9835 12.899 18.4555 11.9721 17.5287C11.0451 16.6019 10.5169 15.3497 10.5001 14.039C10.4923 13.0485 10.779 12.078 11.3237 11.2506C11.8684 10.4233 12.6465 9.77635 13.5595 9.39192C14.4724 9.0075 15.4789 8.9029 16.4514 9.0914C17.4238 9.2799 18.3184 9.753 19.0216 10.4507C19.7247 11.1484 20.2048 12.0392 20.4009 13.0101C20.597 13.9811 20.5003 14.9884 20.1231 15.9043C19.7458 16.8202 19.105 17.6034 18.2819 18.1546C17.4589 18.7057 16.4906 19 15.5001 19ZM15.5001 10.374C15.019 10.3744 14.5427 10.4704 14.099 10.6564C13.6553 10.8424 13.2531 11.1148 12.9156 11.4577C12.5781 11.8006 12.3121 12.2071 12.1332 12.6537C11.9542 13.1003 11.8658 13.578 11.8731 14.059C11.8945 14.999 12.2782 15.8943 12.9439 16.5582C13.6097 17.2221 14.5061 17.6032 15.4461 17.622H15.4911C16.4522 17.6232 17.3745 17.2426 18.0549 16.5638C18.7354 15.885 19.1184 14.9637 19.1196 14.0025C19.1208 13.0414 18.7401 12.1191 18.0613 11.4387C17.3825 10.7582 16.4612 10.3752 15.5001 10.374Z" fill="#848E9C"/>
</svg>
