<svg xmlns="http://www.w3.org/2000/svg" width="28" height="28" viewBox="0 0 28 28">
    <defs>
        <clipPath id="mnkb876k9a">
            <path data-name="矩形 9997" transform="translate(360 735)" style="fill:#fff;stroke:#707070" d="M0 0h28v28H0z"/>
        </clipPath>
    </defs>
    <g data-name="蒙版组 2353" transform="translate(-360 -735)" style="clip-path:url(#mnkb876k9a)">
        <g data-name="e9e0b710-65d9-4c75-a384-58a0edabf60f (1)">
            <path data-name="路径 16097" d="M12.872 1A11.808 11.808 0 0 1 24.59 12.9a11.808 11.808 0 0 1-11.719 11.9A11.809 11.809 0 0 1 1.153 12.9 11.809 11.809 0 0 1 12.873 1z" transform="translate(361.128 736.103)" style="fill-rule:evenodd;fill:none;stroke:#fb6943;stroke-width:1.4px"/>
            <path data-name="路径 16098" d="M3.218 19.5a38.1 38.1 0 0 0 5.412-.931v-.708l-5.78.956zm6.207 4.74a9.389 9.389 0 0 0 .507-2.642l-.656-.241-.476 2.726a4.07 4.07 0 0 0 .4.125.7.7 0 0 0 .225.027zm-7.81-9.291 2.8-7.239-.564-.4L1.4 14.142zm8.194-.494-2.964-6.81-.677.086 3.05 6.941zM4.574 6l-.992-.176-.382.517 1.054.2zm9.087 9.445 5.521-5.26-.523-.338-5.417 5.162zm3.91-13.4a7.2 7.2 0 0 0-.822-.329l3.435 3.408h.916a43.985 43.985 0 0 1-3.53-3.082zm-8.147-.459a6.732 6.732 0 0 0-1.283 1.531l.283.3 1.683-2.033zm13.291 8.237-.53.469-.569 8.088.61-.526zm-2.093 11.006c.112-.12.222-.241.329-.365l-7.411-1.135-.125.582s6.823 1.107 7.206.918zM17.053 6.712s-.107-.351 0-.475l-7.647-2.12-.283.451 7.929 2.144z" transform="translate(361.106 736.069)" style="fill:#fb6943;fill-rule:evenodd"/>
            <path data-name="路径 16099" d="M13.812 14.937s-1.263-.2-2.657-.542-2.126-.54-2.126-.54a21.962 21.962 0 0 0-1.595 2.165 9.608 9.608 0 0 0-1.063 2.7l3.189 3.247 4.783-2.165-.531-4.87zm9.906 2.5-1.818-.05-2.811 3.013a9.879 9.879 0 0 0 .114 2.568 10.7 10.7 0 0 0 4.516-5.534zm-5.392-6.827 4.028 1.337a12.715 12.715 0 0 0 .905-1.99c.108-.491.362-1.577.362-1.577a11.477 11.477 0 0 0-1.6-2.719 29.611 29.611 0 0 0-2.631-1.549l-2.657 2.166 1.594 4.329zM6.9 8.486l3.188-3.83-1.06-2.166-3.291 1.192-.894.818a16.6 16.6 0 0 0-1.129 1.778 4.514 4.514 0 0 0 0 2.165H6.9zM3.59 20.277 2.77 17.1s-.342-.743-.807-2.028c-.156-.433-.581-.9-.74-1.381a11.526 11.526 0 0 0 2.367 6.587z" transform="translate(361.122 735.969)" style="fill:#fb6943;fill-rule:evenodd"/>
        </g>
    </g>
</svg>
