<svg xmlns="http://www.w3.org/2000/svg" width="28" height="28" viewBox="0 0 28 28">
    <defs>
        <clipPath id="9obn7e5fua">
            <path data-name="矩形 9999" transform="translate(358 727)" style="fill:#fff;stroke:#707070" d="M0 0h28v28H0z"/>
        </clipPath>
    </defs>
    <g data-name="组 2354" transform="translate(-358 -727)" style="clip-path:url(#9obn7e5fua)">
        <path data-name="路径 16104" d="m20.769 14.848-1.045-.418a9.434 9.434 0 0 0 .557-2.786H21.4a8.468 8.468 0 0 1-.631 3.204zm-2.09 3.343-.766-.766a10.609 10.609 0 0 0 1.532-2.368l1.045.418a9.144 9.144 0 0 1-1.811 2.786zm-3.2 2.3-.418-1.045a8.624 8.624 0 0 0 2.368-1.532l.766.766a8.834 8.834 0 0 1-2.72 1.81zm-3.831.905v-1.045a7.643 7.643 0 0 0 2.786-.557l.418 1.045a10.158 10.158 0 0 1-3.2.7zm-3.9-.627.418-1.045a9.434 9.434 0 0 0 2.786.557V21.4a8.468 8.468 0 0 1-3.208-.631zm-2.581-2.856a10.609 10.609 0 0 0 2.368 1.532l-.418 1.045a9.144 9.144 0 0 1-2.786-1.811zM2.1 15.475l1.045-.418a8.624 8.624 0 0 0 1.532 2.368l-.766.766A8.834 8.834 0 0 1 2.1 15.475zm.209-3.831a7.643 7.643 0 0 0 .557 2.786l-1.045.418a10.158 10.158 0 0 1-.7-3.2zm-.488-3.9 1.045.418a9.434 9.434 0 0 0-.557 2.786H1.2a8.468 8.468 0 0 1 .627-3.2zM3.913 4.4l.766.766a10.609 10.609 0 0 0-1.532 2.369L2.1 7.117a9.144 9.144 0 0 1 1.813-2.786zm3.2-2.3.418 1.045a8.624 8.624 0 0 0-2.364 1.534L4.4 3.913A8.834 8.834 0 0 1 7.117 2.1zm3.835-.9v1.041a7.643 7.643 0 0 0-2.786.559l-.348-.975a10.158 10.158 0 0 1 3.2-.7zm3.9.627-.418 1.045a9.434 9.434 0 0 0-2.786-.557V1.2a8.468 8.468 0 0 1 3.204.623zm2.577 2.856a10.609 10.609 0 0 0-2.368-1.532l.418-1.051a9.144 9.144 0 0 1 2.786 1.811zm3.065 2.434-1.045.418a8.624 8.624 0 0 0-1.532-2.368l.766-.766a8.834 8.834 0 0 1 1.811 2.716zm-.7 1.045.975-.418a10.158 10.158 0 0 1 .7 3.2h-1.184a7.643 7.643 0 0 0-.557-2.786zm-.836 6.269a8.219 8.219 0 0 1-4.454 4.457v.07A8.324 8.324 0 0 1 3.634 8.092a8.274 8.274 0 0 1 13.513-2.647 8.219 8.219 0 0 1 1.811 9.055zm3.134-3.483a10.008 10.008 0 0 0-.7-3.483l-.209-.627a10.469 10.469 0 0 0-2.02-2.925l-.488-.488a10.727 10.727 0 0 0-2.925-1.95l-.279-.139-.34-.136a10.009 10.009 0 0 0-3.483-.7h-.7a10.009 10.009 0 0 0-3.483.7l-.279.07-.348.139a10.469 10.469 0 0 0-2.925 2.02l-.488.488a10.727 10.727 0 0 0-1.95 2.925l-.271.623a10.009 10.009 0 0 0-.7 3.483v.7a10.009 10.009 0 0 0 .7 3.483l.209.627a10.469 10.469 0 0 0 2.02 2.925l.488.488a9.356 9.356 0 0 0 2.925 1.95l.627.279a10.009 10.009 0 0 0 3.483.7h.7a10.009 10.009 0 0 0 3.483-.7l.279-.07.348-.139a10.469 10.469 0 0 0 2.925-2.02l.488-.488a9.356 9.356 0 0 0 1.95-2.925l.279-.627a10.008 10.008 0 0 0 .7-3.483v-.7z" style="stroke:#fb6943;stroke-width:.5px;fill:#fb6943;fill-rule:evenodd" transform="translate(360.704 729.704)"/>
        <path data-name="路径 16105" d="M18.039 17.064a.94.94 0 1 1-.94-.94.94.94 0 0 1 .94.94zm-8.08.975a.94.94 0 1 1 .94-.94.94.94 0 0 1-.94.94zm-.975-8.08a.94.94 0 1 1 .94.94.94.94 0 0 1-.94-.94zm8.08-.975a.94.94 0 1 1-.94.94.94.94 0 0 1 .94-.94zm-.975 2.786a2.458 2.458 0 0 0 .975.209 2.09 2.09 0 1 0-1.811-1.045l-1.741 1.741-1.742-1.741a2.458 2.458 0 0 0 .209-.975 2.09 2.09 0 1 0-1.045 1.811l1.741 1.741-1.741 1.741a2.09 2.09 0 1 0 .836.836l1.741-1.741 1.741 1.741a2.09 2.09 0 1 0 .836-.836l-1.741-1.741z" transform="translate(358.489 727.489)" style="stroke:#fff;stroke-width:.7px;fill:#fb6943;fill-rule:evenodd"/>
    </g>
</svg>
