<svg width="14" height="14" viewBox="0 0 14 14" fill="none" xmlns="http://www.w3.org/2000/svg">
<path d="M12.2346 7.58565L7.54095 2.66389C7.38553 2.48938 7.3008 2.25832 7.30464 2.01948C7.30848 1.78064 7.4006 1.55271 7.56154 1.3838C7.72248 1.21489 7.93966 1.11822 8.16724 1.11419C8.39482 1.11016 8.61499 1.19908 8.78127 1.36219L13.4749 6.28704C13.6232 6.46281 13.702 6.69141 13.6951 6.92611C13.6883 7.16082 13.5962 7.3839 13.4378 7.54974C13.2794 7.71558 13.0666 7.81166 12.843 7.81834C12.6193 7.82502 12.4017 7.74178 12.2346 7.58565V7.58565ZM7.97139 7.51054L4.79362 4.17448V6.82419C4.79755 6.94765 4.77778 7.07068 4.73547 7.18596C4.69317 7.30124 4.6292 7.40641 4.54737 7.49521C4.46554 7.58401 4.36752 7.65463 4.25915 7.70285C4.15078 7.75108 4.03428 7.77593 3.91657 7.77593C3.79886 7.77593 3.68235 7.75108 3.57398 7.70285C3.46562 7.65463 3.3676 7.58401 3.28577 7.49521C3.20394 7.40641 3.13997 7.30124 3.09766 7.18596C3.05536 7.07068 3.03559 6.94765 3.03952 6.82419V2.11749C3.00462 1.93416 3.02341 1.74404 3.09341 1.57213C3.16341 1.40022 3.28135 1.25457 3.43172 1.15433C3.52872 1.08646 3.63767 1.0396 3.75217 1.01651C3.86666 0.99342 3.9844 0.99456 4.09847 1.01986C4.21254 1.04517 4.32065 1.09413 4.41645 1.16387C4.51224 1.23361 4.59381 1.32272 4.65635 1.42599L9.21269 6.20884C9.37212 6.38267 9.46018 6.61522 9.45794 6.85648C9.4557 7.09774 9.36334 7.32845 9.20071 7.49899C9.03809 7.66953 8.81819 7.76628 8.5883 7.76844C8.35841 7.7706 8.13689 7.67799 7.97139 7.51054V7.51054ZM0.00490253 6.82419V1.92095C0.0278451 1.69347 0.130189 1.48296 0.292215 1.32997C0.454241 1.17697 0.664486 1.09232 0.882441 1.09232C1.1004 1.09232 1.31064 1.17697 1.47267 1.32997C1.63469 1.48296 1.73704 1.69347 1.75998 1.92095V6.82419C1.773 6.95331 1.76001 7.08386 1.72184 7.20737C1.68368 7.33088 1.62119 7.44458 1.53844 7.54111C1.45569 7.63763 1.35453 7.71481 1.24151 7.76765C1.1285 7.82048 1.00616 7.84778 0.882441 7.84778C0.758722 7.84778 0.636385 7.82048 0.523371 7.76765C0.410357 7.71481 0.309192 7.63763 0.226442 7.54111C0.143691 7.44458 0.0812051 7.33088 0.0430389 7.20737C0.00487275 7.08386 -0.0081205 6.95331 0.00490253 6.82419V6.82419Z" fill="#707A8A"/>
<path d="M2.08536 10.2209C2.07326 10.0897 2.02131 9.98777 1.92951 9.91512C1.83772 9.84247 1.71314 9.80614 1.55578 9.80614C1.44885 9.80614 1.35857 9.82241 1.28493 9.85494C1.21129 9.88639 1.15481 9.9303 1.11546 9.98669C1.07713 10.0431 1.05797 10.1071 1.05797 10.1786C1.05595 10.2383 1.06755 10.2903 1.09277 10.3348C1.119 10.3792 1.15481 10.4177 1.2002 10.4503C1.24559 10.4817 1.29805 10.5094 1.35756 10.5332C1.41708 10.556 1.48063 10.5755 1.54821 10.5918L1.82662 10.6633C1.96179 10.6959 2.08587 10.7392 2.19884 10.7935C2.31182 10.8477 2.40967 10.9144 2.49238 10.9935C2.5751 11.0727 2.63916 11.1659 2.68455 11.2733C2.73095 11.3806 2.75466 11.5037 2.75566 11.6425C2.75466 11.8464 2.70624 12.0231 2.61041 12.1728C2.51559 12.3213 2.3784 12.4368 2.19884 12.5192C2.0203 12.6006 1.80493 12.6412 1.55275 12.6412C1.30258 12.6412 1.0847 12.6 0.899091 12.5176C0.714493 12.4352 0.570244 12.3132 0.466345 12.1516C0.363454 11.989 0.309487 11.7878 0.304443 11.5482H0.938432C0.945493 11.6599 0.975251 11.7531 1.0277 11.8279C1.08117 11.9017 1.15228 11.9575 1.24105 11.9955C1.33083 12.0323 1.43221 12.0508 1.54518 12.0508C1.65615 12.0508 1.75248 12.0334 1.83419 11.9987C1.9169 11.964 1.98096 11.9158 2.02635 11.854C2.07174 11.7922 2.09444 11.7211 2.09444 11.6409C2.09444 11.5661 2.07376 11.5032 2.0324 11.4522C1.99205 11.4012 1.93254 11.3579 1.85386 11.3221C1.77618 11.2863 1.68086 11.2538 1.56788 11.2245L1.23046 11.1334C0.969198 11.0651 0.762912 10.9583 0.611603 10.813C0.460293 10.6677 0.385142 10.4719 0.386151 10.2258C0.385142 10.0241 0.435074 9.84789 0.535948 9.69716C0.63783 9.54644 0.777539 9.42878 0.955076 9.3442C1.13261 9.25962 1.33436 9.21733 1.56032 9.21733C1.79031 9.21733 1.99104 9.25962 2.16253 9.3442C2.33502 9.42878 2.46918 9.54644 2.56501 9.69716C2.66084 9.84789 2.71027 10.0225 2.7133 10.2209H2.08536Z" fill="#707A8A"/>
<path d="M3.06853 12.5941V9.26287H4.29111C4.52615 9.26287 4.72638 9.31113 4.89181 9.40764C5.05724 9.50306 5.18334 9.6359 5.27009 9.80614C5.35785 9.9753 5.40173 10.1705 5.40173 10.3917C5.40173 10.6129 5.35734 10.8081 5.26857 10.9773C5.17981 11.1464 5.05119 11.2782 4.88273 11.3725C4.71528 11.4669 4.51253 11.514 4.27447 11.514H3.49522V10.9496H4.16855C4.29464 10.9496 4.39854 10.9263 4.48025 10.8797C4.56297 10.832 4.6245 10.7664 4.66485 10.6829C4.70621 10.5983 4.72688 10.5012 4.72688 10.3917C4.72688 10.2811 4.70621 10.1846 4.66485 10.1022C4.6245 10.0187 4.56297 9.95416 4.48025 9.90862C4.39753 9.86199 4.29263 9.83867 4.16552 9.83867H3.7237V12.5941H3.06853Z" fill="#707A8A"/>
<path d="M8.54711 10.9285C8.54711 11.2917 8.48306 11.6008 8.35495 11.8556C8.22785 12.1104 8.05435 12.3051 7.83444 12.4395C7.61555 12.5729 7.36942 12.6396 7.09605 12.6396C6.82067 12.6396 6.57353 12.5724 6.35463 12.4379C6.13574 12.3034 5.96274 12.1088 5.83564 11.854C5.70854 11.5991 5.64499 11.2906 5.64499 10.9285C5.64499 10.5652 5.70854 10.2562 5.83564 10.0013C5.96274 9.7465 6.13574 9.5524 6.35463 9.41902C6.57353 9.28456 6.82067 9.21733 7.09605 9.21733C7.36942 9.21733 7.61555 9.28456 7.83444 9.41902C8.05435 9.5524 8.22785 9.7465 8.35495 10.0013C8.48306 10.2562 8.54711 10.5652 8.54711 10.9285ZM7.88286 10.9285C7.88286 10.6932 7.85008 10.4947 7.78451 10.3331C7.71995 10.1716 7.62866 10.049 7.51064 9.96554C7.39262 9.88205 7.25442 9.8403 7.09605 9.8403C6.93768 9.8403 6.79948 9.88205 6.68146 9.96554C6.56344 10.049 6.47164 10.1716 6.40608 10.3331C6.34152 10.4947 6.30924 10.6932 6.30924 10.9285C6.30924 11.1638 6.34152 11.3622 6.40608 11.5238C6.47164 11.6854 6.56344 11.8079 6.68146 11.8914C6.79948 11.9749 6.93768 12.0166 7.09605 12.0166C7.25442 12.0166 7.39262 11.9749 7.51064 11.8914C7.62866 11.8079 7.71995 11.6854 7.78451 11.5238C7.85008 11.3622 7.88286 11.1638 7.88286 10.9285Z" fill="#707A8A"/>
<path d="M8.90461 12.5941V9.26287H10.1272C10.3612 9.26287 10.561 9.30788 10.7264 9.39788C10.8928 9.4868 11.0194 9.61313 11.1062 9.77686C11.1939 9.93952 11.2378 10.1309 11.2378 10.351C11.2378 10.5722 11.1934 10.7626 11.1047 10.922C11.0159 11.0803 10.8873 11.2017 10.7188 11.2863C10.5514 11.3709 10.3486 11.4132 10.1106 11.4132H9.29197V10.8471H10.0046C10.1297 10.8471 10.2336 10.8287 10.3163 10.7918C10.399 10.755 10.4606 10.6997 10.5009 10.6259C10.5423 10.5522 10.563 10.4606 10.563 10.351C10.563 10.2404 10.5423 10.1472 10.5009 10.0713C10.4606 9.99536 10.3985 9.93789 10.3148 9.89886C10.2321 9.85873 10.1277 9.83867 10.0016 9.83867H9.55978V12.5941H8.90461ZM10.5781 11.0781L11.3483 12.5941H10.625L9.87148 11.0781H10.5781Z" fill="#707A8A"/>
<path d="M11.455 9.84355V9.26287H14V9.84355H13.0513V12.5941H12.4037V9.84355H11.455Z" fill="#707A8A"/>
</svg>
