<svg width="14" height="14" viewBox="0 0 14 14" fill="none" xmlns="http://www.w3.org/2000/svg">
<path d="M6.86745 1.00069H3V10.3605H5.36708V7.94191H6.86466C7.80482 7.96123 8.71421 7.60656 9.39304 6.95581C10.0719 6.30505 10.4646 5.41145 10.485 4.4713C10.4646 3.53165 10.0723 2.63848 9.39404 1.98781C8.71582 1.33714 7.80714 0.982126 6.86745 1.00069ZM6.67182 5.83035H5.36708V3.06734H6.67182C7.04612 3.05956 7.40819 3.2007 7.67847 3.45975C7.94875 3.71879 8.10513 4.07455 8.11324 4.44884C8.10513 4.82313 7.94875 5.17889 7.67847 5.43793C7.40819 5.69698 7.04612 5.83812 6.67182 5.83035V5.83035Z" fill="#707A8A"/>
<path d="M10.4878 11.128H3V13H10.4878V11.128Z" fill="#707A8A"/>
</svg>
