<svg width="14" height="14" viewBox="0 0 14 14" fill="none" xmlns="http://www.w3.org/2000/svg">
<path fill-rule="evenodd" clip-rule="evenodd" d="M8.6545 1.66166L8.37074 1.37796L8.40512 1.28554L8.40418 1.28503L8.40977 1.27305L8.41439 1.26063C8.41935 1.24729 8.42566 1.21764 8.42681 1.17436C8.42773 1.13997 8.42519 1.10452 8.41989 1.07311C8.28444 1.10895 8.07264 1.15796 7.88392 1.20065C7.75012 1.23091 7.62111 1.25947 7.5256 1.28046L7.41535 1.30457C7.39404 1.31037 7.37309 1.3148 7.35268 1.31756L7.28536 0.933828L7.32323 0.925605C7.36247 0.913128 7.43247 0.880298 7.53436 0.817461C7.6512 0.745405 7.78472 0.650301 7.919 0.5505C7.9979 0.491859 8.07189 0.435539 8.14253 0.381769C8.1952 0.341678 8.24601 0.303004 8.2956 0.265843C8.39853 0.188709 8.50591 0.110219 8.57739 0.0775157C8.65635 0.0415131 8.7307 0.0163071 8.79971 0.00569711C8.86841 -0.00486398 8.94466 -0.00289861 9.01622 0.0302044C9.17806 0.10507 9.19675 0.270143 9.195 0.353188C9.19305 0.445814 9.16699 0.538969 9.14676 0.599906C9.13599 0.632317 9.12537 0.659996 9.11736 0.679758C9.11334 0.689693 9.10992 0.697769 9.10739 0.703601L9.1043 0.710656L9.10331 0.712856L9.10274 0.714129L9.10187 0.716038L8.77822 1.40547C8.77186 1.42192 8.76341 1.44098 8.75278 1.45967L8.65853 1.66043L8.84181 1.60457L8.85355 1.63198L8.88792 1.71184C8.91776 1.78101 8.96091 1.88064 9.01406 2.0023C9.1204 2.24567 9.26668 2.57697 9.42656 2.92889C9.74957 3.63989 10.1185 4.41334 10.3276 4.73114C10.4911 4.9796 10.6127 5.1894 10.6933 5.36948C10.7732 5.54816 10.8191 5.71119 10.8162 5.86243C10.8104 6.16198 10.6201 6.33749 10.3957 6.46949C10.3901 6.49379 10.3829 6.52133 10.3737 6.55101C10.342 6.65251 10.2826 6.79056 10.1707 6.90802C10.0545 7.02991 9.88809 7.1225 9.66301 7.13327C9.44425 7.14374 9.18535 7.07635 8.87669 6.91254L8.9672 6.5454L8.96927 6.54537L8.97866 6.5452C8.98716 6.54501 8.99998 6.54466 9.01635 6.54398C9.04916 6.54263 9.09586 6.54002 9.15036 6.535C9.26142 6.52477 9.39626 6.50531 9.511 6.46994C9.63827 6.4307 9.68715 6.38781 9.69748 6.36894C9.69834 6.36761 9.70092 6.36362 9.69713 6.34774C9.69177 6.32522 9.67321 6.28148 9.61767 6.21475L9.36903 5.91604L9.75605 5.89542L9.75824 5.89524L9.76417 5.89464L9.77218 5.89367C9.78525 5.89193 9.80407 5.8888 9.82538 5.88342C9.87163 5.87172 9.91222 5.85374 9.93709 5.83185C9.95406 5.81692 9.96702 5.79927 9.96457 5.75653C9.96142 5.70147 9.93065 5.59618 9.80822 5.4254C9.16454 4.52633 8.81846 3.52074 8.47093 1.71761L8.6545 1.66166ZM8.85561 0.195457C8.80642 0.198655 8.742 0.216711 8.6585 0.254788C8.59036 0.285964 8.44101 0.399615 8.26306 0.53503C8.15464 0.617529 8.03561 0.708106 7.91787 0.793032C7.7091 0.943605 7.50437 1.07642 7.36996 1.11495L7.32656 1.12437L7.32673 1.12435L7.36976 1.115L7.36996 1.11495L7.37026 1.11488C7.58052 1.05449 7.96262 0.76372 8.26315 0.535024C8.4411 0.399609 8.59045 0.285957 8.65859 0.254781C8.74204 0.216729 8.80644 0.198672 8.85561 0.195457ZM8.59974 1.32118L8.59982 1.32121C8.65279 1.16507 8.60914 0.843702 8.4892 0.851634C8.52499 0.849319 8.55398 0.876327 8.57563 0.919509C8.6265 1.02096 8.63687 1.21168 8.59974 1.32118ZM7.0121 0.856204L7.01145 0.856113C5.9227 0.704322 5.11003 0.883412 4.51 1.25244C3.91163 1.62044 3.54618 2.16412 3.32602 2.70357C3.10625 3.24206 3.02751 3.78476 3.00644 4.16876C2.9959 4.36081 2.99954 4.51748 3.00846 4.61839C3.01224 4.66124 3.01849 4.71512 3.03253 4.7551L3.03272 4.75565C3.03558 4.76383 3.04701 4.79656 3.07451 4.82741C3.08933 4.84405 3.12543 4.87897 3.18532 4.89038C3.25487 4.90363 3.31259 4.87752 3.34744 4.84881C3.37722 4.82427 3.39242 4.79708 3.3987 4.78478C3.40609 4.7703 3.41048 4.75749 3.41299 4.74927C3.41801 4.73287 3.42063 4.71777 3.42213 4.70766L3.42219 4.70726C3.46947 4.38299 3.54741 4.08883 3.649 3.82197C3.42013 4.53055 3.42876 5.23534 3.67677 5.86839C3.95365 6.57513 4.52154 7.17384 5.34924 7.58409C8.78263 9.28647 9.45341 10.8381 9.36733 11.894C9.32324 12.4349 9.08039 12.8832 8.84173 13.2008C8.72295 13.3588 8.60702 13.4821 8.52129 13.5654C8.4785 13.607 8.44344 13.6384 8.41959 13.659C8.40768 13.6693 8.39859 13.6769 8.39275 13.6817L8.3865 13.6868L8.38548 13.6876L8.38532 13.6877L8.38871 13.6919L8.61858 14C9.41348 13.4352 10.2805 12.3563 10.2222 11.0576C10.1632 9.74385 9.16451 8.30622 6.44911 7.01778L6.33384 6.96308C4.98836 6.29474 4.44102 5.47434 4.22242 4.83401C4.10898 4.50171 4.08176 4.21118 4.08253 4.00538C4.08292 3.90251 4.0903 3.82111 4.0973 3.76669C4.1008 3.7395 4.10419 3.71911 4.10655 3.70621L4.10919 3.69259L4.10962 3.69054L4.10746 3.69012L3.75169 3.57814C4.14629 2.72624 4.78999 2.18133 5.40517 1.83224C5.83275 1.58959 6.24523 1.44274 6.54711 1.356C6.69775 1.31272 6.82038 1.28454 6.9032 1.26688C6.93247 1.26063 6.95567 1.25593 6.97486 1.25204L6.97488 1.25203L6.97488 1.25203L6.99853 1.24721C7.00759 1.24533 7.02101 1.24255 7.03196 1.2396C7.03509 1.23876 7.0407 1.2372 7.04727 1.23493L7.04762 1.23482C7.05096 1.23369 7.0705 1.2271 7.09153 1.21344L7.09202 1.21312C7.09975 1.20812 7.13804 1.18336 7.16183 1.13304C7.17225 1.10599 7.18046 1.04323 7.17626 1.00892C7.16681 0.977682 7.13778 0.927714 7.12069 0.908996C7.08671 0.876317 7.05017 0.865303 7.04204 0.862854L7.04163 0.862729C7.0283 0.858698 7.01736 0.856956 7.0121 0.856204ZM3.22238 4.69889C3.22499 4.69849 3.22737 4.69207 3.22928 4.67914C3.23777 4.62092 3.24721 4.56363 3.25755 4.50724C3.29953 4.27848 3.35648 4.06465 3.4259 3.86479C4.0269 2.13459 5.56262 1.45135 6.40726 1.19409C6.56373 1.14643 6.69649 1.1134 6.79519 1.09103C6.85662 1.07711 6.90486 1.06732 6.93742 1.06071L6.93743 1.06071C6.96383 1.05536 6.97992 1.05209 6.98435 1.05041L6.98436 1.05041C6.98596 1.04981 6.98604 1.04941 6.98453 1.04919C6.92085 1.04031 6.85823 1.03261 6.79664 1.02606C6.65252 1.01071 6.51409 1.00163 6.38112 0.998358C6.32502 0.996979 6.2699 0.996635 6.21573 0.997292C6.45316 0.994418 6.70894 1.01078 6.98448 1.0492C6.99017 1.05001 6.97334 1.05342 6.93737 1.06072C6.5295 1.14347 3.65988 1.72568 3.22923 4.67914C3.22733 4.692 3.22497 4.69842 3.22238 4.69889ZM5.77041 4.41476C6.04942 4.83791 6.84615 5.1274 7.32094 5.29991C7.42398 5.33734 7.51185 5.36927 7.57598 5.39586C7.87289 5.52866 8.12471 5.74287 8.30137 6.0147L8.3014 6.01484C8.12473 5.74294 7.87287 5.52868 7.57591 5.39586C7.55916 5.38892 7.54078 5.3816 7.52094 5.37393C7.46483 5.35221 7.39699 5.32756 7.32086 5.2999C6.84608 5.1274 6.04935 4.83791 5.77034 4.41476C5.45543 3.93761 5.63811 3.51297 5.90211 3.17303C6.01517 3.02746 6.14315 2.89741 6.25335 2.78544C6.28924 2.74897 6.32324 2.71441 6.35424 2.68186L6.35404 2.68214C6.32312 2.71461 6.28921 2.74907 6.25342 2.78544C5.88589 3.1589 5.32065 3.73327 5.77041 4.41476ZM7.25937 5.48499L7.2594 5.485L7.25946 5.48502C7.35862 5.52105 7.43914 5.5503 7.49876 5.57491C7.76077 5.69265 7.98244 5.88176 8.13793 6.12106L8.49379 5.98336C8.42861 5.58506 8.10402 5.30003 7.75024 5.05837C7.58 4.94208 7.38901 4.82704 7.19455 4.70991L7.15398 4.68546C6.94361 4.55868 6.72804 4.42771 6.51724 4.2829C6.34142 4.16211 6.2581 4.0193 6.22365 3.87305C6.1879 3.72128 6.20233 3.55371 6.24504 3.38891C6.28751 3.22506 6.35507 3.07503 6.41333 2.96452C6.44222 2.90972 6.46824 2.86574 6.48673 2.83591C6.49596 2.82102 6.50327 2.80972 6.50807 2.80244L6.5133 2.7946L6.51436 2.79306L6.51437 2.79304L6.51337 2.79239L6.21304 2.54744C6.18586 2.57599 6.15474 2.60754 6.12093 2.64182L6.12084 2.64191L6.12082 2.64194C5.95543 2.8096 5.7256 3.0426 5.57632 3.30996C5.48378 3.4757 5.41487 3.66558 5.40943 3.87481C5.40394 4.08663 5.46394 4.3044 5.60759 4.52207L7.49876 5.57491L5.60763 4.52214C5.71272 4.6815 5.86931 4.81504 6.03719 4.92668C6.20669 5.0394 6.39878 5.13701 6.58623 5.22057C6.77416 5.30435 6.96155 5.3758 7.1225 5.43503C7.171 5.45288 7.21632 5.46935 7.25832 5.48461L7.25907 5.48488L7.25928 5.48496L7.25937 5.48499ZM6.36554 7.19512L6.3656 7.19515V7.19393L6.36554 7.1939V7.19512ZM8.50632 13.8406L8.50566 13.8411C8.50566 13.8411 9.08564 13.387 9.38908 12.6306C9.86634 11.441 9.65949 9.50364 5.43581 7.40942C4.10974 6.75216 3.51829 5.60926 3.716 4.37217C3.75424 4.13291 3.822 3.89013 3.91968 3.64665L3.91959 3.64703C3.31714 5.14925 3.85346 6.6251 5.43587 7.40942C12.2954 10.8106 8.56024 13.7979 8.50632 13.8406ZM9.36077 6.9018C10.1511 7.11601 10.2198 6.34439 10.2198 6.34439C10.7198 6.07876 10.8087 5.81688 10.1647 4.83828C9.8971 4.43153 9.3967 3.34551 9.04725 2.56064C8.824 2.05923 8.66235 1.68072 8.66235 1.68072L8.66242 1.68108C8.67748 1.71633 9.7292 4.17644 10.1646 4.83826C10.8087 5.81685 10.7197 6.07873 10.2197 6.34437C10.2197 6.34437 10.151 7.11592 9.36077 6.9018ZM7.22441 13.3117C7.25006 13.3013 7.27544 13.2903 7.30054 13.2788C7.40996 13.2288 7.51395 13.1689 7.61139 13.1003C8.11365 12.7468 8.44181 12.1626 8.44181 11.5017C8.44181 10.4229 7.56722 9.5483 6.48838 9.5483C6.40408 9.5483 6.32103 9.55364 6.23954 9.564C6.32102 9.55365 6.40405 9.54831 6.48834 9.54831C7.56717 9.54831 8.44177 10.4229 8.44177 11.5017C8.44177 12.3202 7.93842 13.0211 7.22441 13.3117ZM6.17309 9.57361C6.1538 9.57674 6.13461 9.58015 6.11551 9.58384C6.10855 9.58519 6.1016 9.58658 6.09466 9.588C6.12062 9.58268 6.14677 9.57788 6.17309 9.57361ZM6.31046 9.75505C6.31044 9.75505 6.31043 9.75505 6.31041 9.75505V9.75631L5.99716 10.1084L6.13499 10.7412L6.82289 11.0018L6.82291 11.0018L6.13504 10.7412L5.99721 10.1084L6.31046 9.7563V9.75505ZM5.25795 10.2512L5.25789 10.2512C5.00353 10.5006 4.82686 10.8264 4.7617 11.1922L4.90078 11.4391L4.90083 11.4391L4.76175 11.1922C4.82673 10.8273 5.00263 10.5023 5.25589 10.2532L5.25668 10.2525L5.25795 10.2512ZM5.50227 12.9489C5.14015 12.7096 4.89331 12.36 4.78555 11.9265L4.96223 11.5982L4.96218 11.5982L4.78551 11.9265C4.89327 12.36 5.14011 12.7096 5.50222 12.949L5.50227 12.9489ZM7.49906 12.9364C7.49921 12.9363 7.49936 12.9362 7.49951 12.9361L7.50631 12.3625L7.49906 12.9364ZM6.81918 13.2257C6.80256 13.2289 6.78585 13.2319 6.76906 13.2346L6.12752 12.7748L6.16511 12.2147L6.16506 12.2147L6.12747 12.7748L6.76901 13.2346C6.78581 13.2319 6.80254 13.2289 6.81918 13.2257ZM7.59474 12.1846L6.84419 11.8313L6.83417 11.191L7.53334 10.6484L7.53336 10.6485L6.83421 11.191L6.84424 11.8313L7.59479 12.1846L7.59474 12.1846ZM7.2064 10.1182L7.23251 10.4203L6.78743 10.7799L6.30301 10.5963L6.2088 10.1638L6.40512 9.94318C6.43226 9.94183 6.45993 9.94122 6.48838 9.94122C6.74777 9.94122 6.99207 10.0053 7.2064 10.1182ZM5.76123 10.7846L5.42999 11.2367L5.01385 11.2425L4.96708 11.1595C5.02769 10.888 5.158 10.644 5.33971 10.4468L5.71123 10.4498L5.76123 10.7846ZM5.42929 11.7879L5.78518 12.189L5.7355 12.5813L5.51154 12.7159C5.26284 12.5228 5.08659 12.2643 4.99402 11.9505L5.0794 11.7918L5.42929 11.7879ZM6.35205 12.3405L6.74645 12.1484L7.31068 12.4235L7.30585 12.8307C7.15749 12.9225 6.99186 12.9898 6.81495 13.0277L6.32929 12.6796L6.35205 12.3405ZM7.03726 11.7067L7.03066 11.2853L7.55726 10.8767L7.99193 11.0874C8.02869 11.2203 8.04889 11.3599 8.04889 11.503C8.04889 11.5979 8.03966 11.6909 8.02276 11.7821L7.59731 11.9703L7.03726 11.7067ZM6.48838 9.35335C5.30188 9.35335 4.34001 10.3152 4.34001 11.5017C4.34001 12.6882 5.30188 13.6501 6.48838 13.6501C7.67488 13.6501 8.63676 12.6882 8.63676 11.5017C8.63676 10.3152 7.67488 9.35335 6.48838 9.35335Z" fill="#707A8A"/>
</svg>
