<svg width="14" height="14" viewBox="0 0 14 14" fill="none" xmlns="http://www.w3.org/2000/svg">
<path d="M2.8139 2.879C2.57176 2.879 2.33956 2.78279 2.16833 2.61157C1.99711 2.44035 1.90094 2.20815 1.90094 1.966C1.90094 1.72386 1.99711 1.49162 2.16833 1.3204C2.33956 1.14918 2.57176 1.05298 2.8139 1.05298H5.54388V0H2.8139C2.29262 0 1.79268 0.207081 1.42407 0.575684C1.05547 0.944286 0.848389 1.4442 0.848389 1.96548C0.848389 2.48677 1.05547 2.98671 1.42407 3.35532C1.79268 3.72392 2.29262 3.931 2.8139 3.931H3.19592V2.87799L2.8139 2.879Z" fill="#707A8A"/>
<path d="M3.57886 3.896C3.821 3.896 4.05321 3.99217 4.22443 4.16339C4.39565 4.33461 4.49182 4.56685 4.49182 4.80899C4.49182 5.05113 4.39565 5.28334 4.22443 5.45456C4.05321 5.62578 3.821 5.72198 3.57886 5.72198H1.13281V6.77499H3.57886C4.09246 6.76341 4.5811 6.55124 4.94025 6.1839C5.29939 5.81656 5.50049 5.32322 5.50049 4.80948C5.50049 4.29574 5.29939 3.80243 4.94025 3.43509C4.5811 3.06775 4.09246 2.85558 3.57886 2.84399H2.81482V3.89697L3.57886 3.896Z" fill="#707A8A"/>
<path d="M6.58386 4.74197L9.56091 0.306L12.9789 6.53H11.3839L9.82489 3.81998L6.58386 4.74197Z" fill="#707A8A"/>
<path d="M6.36285 5.22699L5.72485 6.48099H7.48285L8.52185 4.707L6.36285 5.22699Z" fill="#707A8A"/>
<path d="M6.75586 11.922L9.73291 7.48599L13.1509 13.71H11.5569L9.99786 11L6.75586 11.922Z" fill="#707A8A"/>
<path d="M6.534 12.455L5.896 13.709H7.65399L8.69299 11.935L6.534 12.455Z" fill="#707A8A"/>
<path d="M5.92493 9.45898C5.92493 9.20369 5.87461 8.95091 5.77692 8.71506C5.67922 8.4792 5.53605 8.2649 5.35553 8.08438C5.17501 7.90386 4.96071 7.76066 4.72485 7.66296C4.489 7.56527 4.23619 7.51498 3.9809 7.51498H1.0979V14.001H3.9809C4.23619 14.001 4.489 13.9507 4.72485 13.853C4.96071 13.7553 5.17501 13.6121 5.35553 13.4316C5.53605 13.2511 5.67922 13.0368 5.77692 12.8009C5.87461 12.5651 5.92493 12.3123 5.92493 12.057C5.5982 11.7029 5.41675 11.2388 5.41675 10.757C5.41675 10.2752 5.5982 9.81108 5.92493 9.457V9.45898ZM2.3609 8.77798H3.9809C4.15112 8.77666 4.31563 8.83924 4.44196 8.95334C4.56828 9.06744 4.64725 9.22475 4.66321 9.39423C4.67916 9.5637 4.63095 9.73301 4.52814 9.86868C4.42532 10.0044 4.27539 10.0965 4.10791 10.127C4.06491 10.127 4.0249 10.114 3.9809 10.114H2.3609V8.77798ZM3.9809 12.738H2.3609V11.403H3.9809C4.0239 11.403 4.06491 11.393 4.10791 11.39C4.27539 11.4205 4.42532 11.5126 4.52814 11.6483C4.63095 11.784 4.67916 11.9533 4.66321 12.1227C4.64725 12.2922 4.56828 12.4496 4.44196 12.5637C4.31563 12.6778 4.15112 12.7393 3.9809 12.738Z" fill="#707A8A"/>
</svg>
