<svg width="18" height="18" viewBox="0 0 18 18" fill="none" xmlns="http://www.w3.org/2000/svg">
<path d="M16.7829 2.19019C16.2996 2.41141 15.7448 2.66533 15.4757 3.2154C15.3203 2.60671 15.3682 1.85791 16.1045 1.34103C16.3558 1.16455 16.6171 1.05143 16.8627 0.945121C17.3363 0.740077 17.7515 0.560334 17.9246 0C18.2053 0.780988 17.6496 1.75585 17.1182 2.03057C17.0141 2.08437 16.9006 2.13631 16.7829 2.19019Z" fill="#8E949C"/>
<path d="M7.85747 4.08356H6.8405L8.36778 0.0966797L0 6.07535L1.73822 8.8218H4.9814L8.02744 17.9998L10.8585 8.4827C10.8585 8.4827 16.4492 9.16126 15.2131 4.41059C15.177 7.06046 10.2674 8.0302 10.0168 5.25084C10.9209 6.66027 13.9723 6.34166 14.3037 4.10368C14.3324 3.90939 14.3586 3.72588 14.3832 3.55252C14.6426 1.72899 14.7423 1.02854 16.1044 0.718544C15.2127 0.302626 13.6003 0.762806 13.1163 2.79081C13.0896 2.91185 13.0649 3.02819 13.0412 3.1397C12.7994 4.27843 12.6649 4.91178 11.5306 4.87113C10.2853 4.82651 10.5498 3.23088 12.0146 3.01688C11.8041 2.80691 10.7514 2.92836 10.5587 3.63106C10.4334 2.94043 10.7648 2.72643 11.7055 2.5728C12.6462 2.41916 13.0405 1.30017 12.1265 0.977166C12.1095 1.58671 11.7191 1.68444 10.96 1.87451C10.7278 1.93265 10.461 1.99943 10.1599 2.09213C8.87444 2.48793 8.22053 4.1644 9.27766 5.95793C8.60103 6.04682 7.91548 4.25732 8.8071 2.76667C8.74255 2.81372 8.6822 2.85617 8.62568 2.89593C8.21163 3.18717 8.00345 3.3336 7.85747 4.08356Z" fill="#8E949C"/>
</svg>
