<svg xmlns="http://www.w3.org/2000/svg" xmlns:xlink="http://www.w3.org/1999/xlink" width="150" height="152.652" viewBox="0 0 150 152.652">
    <defs>
        <linearGradient id="jht2wzta5c" x1="1" y1="-1.217" x2="0" y2="-1.217" gradientUnits="objectBoundingBox">
            <stop offset="0" stop-color="#aeb4bc"/>
            <stop offset="1" stop-color="#929aa5"/>
        </linearGradient>
        <linearGradient id="t0t2yraf3a" x1=".5" y1="1.205" x2=".5" y2="2.205" gradientUnits="objectBoundingBox">
            <stop offset="0" stop-color="#e6e8ea"/>
            <stop offset="1" stop-color="#e6e8ea" stop-opacity="0"/>
        </linearGradient>
        <linearGradient id="6ljykv76rd" x1=".5" y1="6.263" x2=".5" y2="7.263" xlink:href="#t0t2yraf3a"/>
        <linearGradient id="y2egqep1oe" x1=".5" y1="3.116" x2=".5" y2="4.116" xlink:href="#t0t2yraf3a"/>
        <linearGradient id="brw5xfuujf" x1="1.015" y1="-1.734" x2=".017" y2="-1.655" gradientUnits="objectBoundingBox">
            <stop offset="0" stop-color="#f04e23"/>
            <stop offset="1" stop-color="#fff"/>
        </linearGradient>
        <linearGradient id="37lcukeclb" y1="-5.821" x2=".987" y2="-5.821" gradientUnits="objectBoundingBox">
            <stop offset="0" stop-color="#474d57"/>
            <stop offset="1" stop-color="#0b0e11"/>
        </linearGradient>
        <linearGradient id="vtwjgb84mg" x1=".793" y1="1.594" x2="-.036" y2=".766" xlink:href="#37lcukeclb"/>
        <linearGradient id="y14j1y9wth" x1=".5" y1="-8.377" x2=".5" y2="-9.377" xlink:href="#37lcukeclb"/>
        <linearGradient id="nzk4u2906i" x1=".213" y1="-.559" x2="1.004" y2=".07" xlink:href="#jht2wzta5c"/>
    </defs>
    <g transform="translate(-859 -362.999)">
        <path data-name="路径 13133" d="M94.792 92.33v45.549H49.3V92.33h12.253l9.849 9.848 9.848-9.848z" transform="translate(860.972 363)" style="fill:url(#jht2wzta5c)"/>
        <path data-name="路径 13154" d="M36.932 68.939V0H0v68.94l18.466-18.467z" transform="translate(859 363)" style="fill:url(#t0t2yraf3a);opacity:.6;isolation:isolate"/>
        <path data-name="路径 13155" d="M30.777 0v20.928l7.386-7.387 7.386 7.387V0z" transform="translate(859 363)" style="fill:url(#6ljykv76rd);opacity:.6;isolation:isolate"/>
        <path data-name="路径 13156" d="M54.167 0v36.932l11.079-11.08 11.08 11.08V0z" transform="translate(859 363)" style="fill:url(#y2egqep1oe);opacity:.6;isolation:isolate"/>
        <path data-name="路径 13157" d="M106.875 0v36.932l11.08-11.08 11.079 11.08V0z" transform="translate(859 363)" style="fill:url(#y2egqep1oe);opacity:.6;isolation:isolate"/>
        <path data-name="路径 13159" d="M0 152.651h84.943V104.64H0z" transform="translate(859 363)" style="fill:url(#brw5xfuujf)"/>
        <path data-name="路径 13160" d="M0 152.651h36.932l48.011-48.011H0z" transform="translate(859 363)" style="opacity:.7;fill:#f04e23"/>
        <path data-name="路径 13161" d="M84.943 125.568v-13.542H0v13.542z" transform="translate(859 363)" style="fill:url(#37lcukeclb)"/>
        <path data-name="路径 13162" d="M6.155 141.571H81.25v11.08H6.155z" transform="translate(859 363)" style="fill:#f04e23"/>
        <path data-name="路径 13163" d="M6.155 131.723h41.857v9.849H6.155z" transform="translate(859 363)" style="fill:#fff"/>
        <path data-name="路径 13165" d="m18.466 135.417 8.617-8.618 8.618 8.618-8.618 8.617z" transform="translate(859 363)" style="fill:#e8a37d"/>
        <path data-name="路径 13166" d="M62.619 61.795a13.693 13.693 0 0 0 0 19.366l19.366-19.366a13.7 13.7 0 0 0-19.366 0z" transform="translate(859 363)" style="fill:url(#vtwjgb84mg)"/>
        <path data-name="路径 13167" d="M81.985 81.161a13.693 13.693 0 0 1-19.366 0l19.366-19.366a13.693 13.693 0 0 1 0 19.366z" transform="translate(859 363)" style="fill:#e8a37d"/>
        <path data-name="路径 13168" d="M84.943 152.651h4.924v-14.773h-4.924z" transform="translate(859 363)" style="fill:url(#y14j1y9wth)"/>
        <path data-name="路径 13170" d="m107.1 60.937 8 8 8-8-8-8z" transform="translate(859 363)" style="fill:#e8a37d"/>
        <path data-name="路径 13171" d="M18.466 49.243A18.466 18.466 0 1 1 0 67.709a18.465 18.465 0 0 1 18.466-18.466zm0 26.38-7.914-7.914 7.914-7.915 7.914 7.915z" transform="translate(859 363)" style="fill-rule:evenodd;fill:#f04e23"/>
        <path data-name="路径 13172" d="M65.246 25.852a11.08 11.08 0 1 1-11.079 11.08 11.08 11.08 0 0 1 11.079-11.08zm0 15.828L60.5 36.932l4.748-4.749L70 36.932z" transform="translate(859 363)" style="fill-rule:evenodd;fill:#f04e23"/>
        <path data-name="路径 13173" d="M38.163 13.542a7.386 7.386 0 1 1-7.386 7.386 7.386 7.386 0 0 1 7.386-7.386zm0 10.552L35 20.928l3.165-3.166 3.166 3.166z" transform="translate(859 363)" style="fill-rule:evenodd;fill:#f04e23"/>
        <circle data-name="椭圆 168" cx="11.581" cy="11.581" r="11.581" transform="translate(965.545 386.106)" style="fill:#10298e"/>
        <path data-name="路径 13174" d="M112.152 34.084h-1.469a.945.945 0 0 0-.086-.487c-.09-.122-.33-.183-.724-.183a1.849 1.849 0 0 0-.764.1c-.125.071-.186.225-.186.459a.456.456 0 0 0 .165.422.669.669 0 0 0 .315.086l.3.022c.634.043 1.032.072 1.19.09a1.8 1.8 0 0 1 1.093.4 1.069 1.069 0 0 1 .319.663 4.45 4.45 0 0 1 .028.555 2.933 2.933 0 0 1-.136 1.04 1.345 1.345 0 0 1-1.1.763 6.286 6.286 0 0 1-1.1.068 6.889 6.889 0 0 1-1.724-.147 1.128 1.128 0 0 1-.788-.734 3.415 3.415 0 0 1-.108-1.025h1.47v.124c0 .254.071.419.218.49a.8.8 0 0 0 .366.079h.541a1.912 1.912 0 0 0 .527-.043.434.434 0 0 0 .269-.258 1.04 1.04 0 0 0 .032-.283c0-.258-.093-.416-.283-.473a9.078 9.078 0 0 0-.982-.093c-.47-.032-.8-.065-.982-.1a1.318 1.318 0 0 1-.964-.555 2.2 2.2 0 0 1-.212-1.086 2.833 2.833 0 0 1 .115-.886.947.947 0 0 1 .369-.505 1.856 1.856 0 0 1 .953-.312c.323-.028.678-.043 1.072-.043a5.6 5.6 0 0 1 1.319.108 1.306 1.306 0 0 1 .96 1.444 1.373 1.373 0 0 1-.013.3z" transform="translate(859 363)" style="fill:#fff"/>
        <path data-name="路径 13175" d="M118.625 38.087V32.21h2.946a3.211 3.211 0 0 1 .925.1 1.429 1.429 0 0 1 .975.932 3.6 3.6 0 0 1 .129 1.114 4.068 4.068 0 0 1-.144 1.287 1.32 1.32 0 0 1-1.165.889c-.068.011-.362.022-.881.029l-.262.01h-.942v1.52h-1.581zm1.581-2.881h.985a1.806 1.806 0 0 0 .57-.072.425.425 0 0 0 .19-.308 2.524 2.524 0 0 0 .029-.459 1.9 1.9 0 0 0-.061-.552.473.473 0 0 0-.409-.308 2.547 2.547 0 0 0-.308-.011h-1v1.71z" transform="translate(859 363)" style="fill:#fff"/>
        <path data-name="路径 13176" d="M126.975 37.069h-2.114l-.283 1.015h-1.638l1.767-5.878h2.387l1.785 5.878h-1.6zm-.311-1.143-.742-2.548-.721 2.548z" transform="translate(859 363)" style="fill:#fff"/>
        <path data-name="路径 13177" d="M116.442 33.038a2.082 2.082 0 0 1 1.616.77l.341-.731a3 3 0 0 0-4.81 1h-.666l-.395.842h.853a2.66 2.66 0 0 0-.01.236 2.507 2.507 0 0 0 .014.287h-.43l-.394.842h1.039a2.958 2.958 0 0 0 2.727 1.767 3.006 3.006 0 0 0 1.666-.5v-1.03a2.082 2.082 0 0 1-3.311-.236h2.179l.394-.843h-2.892a2.233 2.233 0 0 1-.022-.308c0-.071 0-.14.011-.211h3.148l.394-.842h-3.268a2.106 2.106 0 0 1 1.816-1.043z" transform="translate(859 363)" style="fill:#ffbe00"/>
        <path data-name="路径 13178" d="M116.442 33.063a2.055 2.055 0 0 1 1.6.763l.025.032.018-.036.34-.731.007-.018-.014-.01a3.031 3.031 0 0 0-3.77-.309 2.945 2.945 0 0 0-1.083 1.319l.022-.014h-.687l-.007.014-.394.843-.018.035h.892l-.025-.028c-.007.089-.01.165-.01.236a2.553 2.553 0 0 0 .014.287l.025-.029h-.448l-.007.015-.391.835-.018.036h1.087l-.022-.015a2.989 2.989 0 0 0 2.753 1.785 3.038 3.038 0 0 0 1.68-.505l.011-.007v-1.115l-.043.05a2.058 2.058 0 0 1-3.272-.229l-.022.039h2.2l.008-.014.394-.842.018-.036h-2.932l.025.021a2.234 2.234 0 0 1-.021-.308 2.07 2.07 0 0 1 .01-.208l-.025.022h3.169l.007-.015.394-.842.018-.036h-3.308l.021.04a2.079 2.079 0 0 1 1.779-1.025zm-1.806 1.037h3.264l-.021-.035-.391.842.022-.014h-3.168v.021a2.211 2.211 0 0 0-.011.215 2.28 2.28 0 0 0 .022.316v.021h2.918l-.022-.036-.394.842.021-.014h-2.225l.025.04a2.107 2.107 0 0 0 3.351.236l-.043-.018v1.032l.011-.021a2.968 2.968 0 0 1-1.653.5 2.935 2.935 0 0 1-2.705-1.753l-.008-.014h-1.06l.021.036.391-.842-.022.014h.459v-.029a2.721 2.721 0 0 1-.014-.283c0-.071 0-.147.011-.233V34.9h-.882l.022.035.394-.842-.022.014h.685l.007-.014a2.877 2.877 0 0 1 1.061-1.3 2.992 2.992 0 0 1 3.706.3l-.007-.029-.341.731.043-.007a2.1 2.1 0 0 0-3.462.276l-.022.039z" transform="translate(859 363)" style="fill:#10298e"/>
        <path data-name="矩形 8277" transform="translate(859 363)" style="fill:none" d="M0 0h150v150H0z"/>
        <path data-name="路径 13139" d="M49.3 92.329H32.881a11.953 11.953 0 0 0-11.953 11.953v18.209h12.311V104.64H49.3z" transform="translate(860.972 363)" style="fill:#929aa5;fill-rule:evenodd"/>
        <path data-name="路径 13144" d="M121.26 71.4v21.288a11.953 11.953 0 0 1-11.952 11.952H94.792V92.329h14.157V71.4z" transform="translate(860.972 363)" style="fill:url(#nzk4u2906i);fill-rule:evenodd"/>
    </g>
</svg>
