<svg xmlns="http://www.w3.org/2000/svg" xmlns:xlink="http://www.w3.org/1999/xlink" width="20" height="20" viewBox="0 0 20 20">
  <defs>
    <linearGradient id="linear-gradient" y1="0.716" x2="1" y2="0.716" gradientUnits="objectBoundingBox">
      <stop offset="0" stop-color="#f04e23"/>
      <stop offset="1" stop-color="#f0b90b"/>
    </linearGradient>
  </defs>
  <g id="组_800" data-name="组 800" transform="translate(20566 -9116)">
    <path id="路径_131" data-name="路径 131" d="M8.47,20.2c.856.286,1.141-.5.785-.784A3.117,3.117,0,0,1,7.971,15.92c.428-1.426,1.569-2,1.569-4.136a3.011,3.011,0,0,1,1.141,2.71c1.426-1.64.784-3.779.5-4.777,3.637,1.925,6.774,6.132,3.138,9.7-.428.357,0,1,.641.784C24.871,14.565,17.384,6.151,16.1,5.153A3.158,3.158,0,0,1,15.744,8.5C14.246,2.871,10.61,1.73,10.61,1.73c.428,2.924-1.64,6.061-3.566,8.486A6.456,6.456,0,0,0,6.331,7.15c-.142,2.067-1.782,3.779-2.21,5.918-.571,2.852.428,4.92,4.35,7.13Z" transform="translate(-20567.973 9115.27)" fill="url(#linear-gradient)"/>
    <rect id="矩形_504" data-name="矩形 504" width="20" height="20" transform="translate(-20566 9116)" fill="none"/>
  </g>
</svg>
