<svg xmlns="http://www.w3.org/2000/svg" width="28" height="28" viewBox="0 0 28 28">
  <path id="路径_139" data-name="路径 139" d="M6.31,15.765a2,2,0,0,0-.791,1.157,2.451,2.451,0,0,0,.609,2.191,4.228,4.228,0,0,0,2.516,1.055,6.833,6.833,0,0,0,4.038-1.38,8.623,8.623,0,0,0,1.928-1.907,12.067,12.067,0,0,0-5.8-1.684,5.652,5.652,0,0,0-2.5.568Zm20.574,3.713A14.051,14.051,0,1,0,25.342,22.2c-2.414-1.177-6.371-3.165-8.826-4.342a10.6,10.6,0,0,1-4.829,3.226,6.825,6.825,0,0,1-3.47.264,4.667,4.667,0,0,1-2.475-1.3,5.456,5.456,0,0,1-.751-1.035.122.122,0,0,1,.02.081,2.115,2.115,0,0,1-.2-.528,4.156,4.156,0,0,1-.1-.487.983.983,0,0,1,0-.345,2.381,2.381,0,0,1,.041-.649A3.219,3.219,0,0,1,5.722,15.3,5.629,5.629,0,0,1,9.8,13.919a21.543,21.543,0,0,1,5.8,1.339,18.76,18.76,0,0,0,1.157-3.328H8.339v-.913h4.322V9.191H7.446V8.258h5.214V6.432c0-.243.061-.446.446-.446h2.049V8.258h5.661v.913H15.157V11h4.525a18.341,18.341,0,0,1-1.867,5.032C20.959,17.145,25.4,18.89,26.884,19.478Zm0,0" fill="#06b4fd"/>
</svg>
