<svg xmlns="http://www.w3.org/2000/svg" width="498.654" height="257.287" viewBox="0 0 498.654 257.287">
    <defs>
        <linearGradient id="9cx41w4ria" x1=".225" x2="1.371" y2="1.759" gradientUnits="objectBoundingBox">
            <stop offset="0" stop-color="#0f42a1"/>
            <stop offset="1" stop-color="#082151"/>
        </linearGradient>
        <linearGradient id="ihom7ploab" x1=".5" y1="-1.662" x2=".5" y2="1.158" gradientUnits="objectBoundingBox">
            <stop offset="0" stop-color="#fff"/>
            <stop offset="1" stop-color="#f04e23"/>
        </linearGradient>
        <linearGradient id="rhsdlq6dfc" y1=".5" x2="1" y2=".5" gradientUnits="objectBoundingBox">
            <stop offset="0" stop-color="#0b0e11"/>
            <stop offset="1" stop-color="#474d57"/>
        </linearGradient>
    </defs>
    <g transform="translate(-354.4 -19.733)">
        <g data-name="组 6949">
            <path data-name="路径 13180" d="M538.549 416.982v42.03a78.143 78.143 0 0 1-28.88-41.75z" style="fill:#e6e8ea" transform="translate(-138.021 -197.142)"/>
            <path data-name="路径 13181" d="M662.859 396.182a78.05 78.05 0 0 1-65.79 77.07v-44.76c5.07 8.46 16.4 9.69 16.4 9.69h26.791V416.9h-25.171l-18.02-18.03h-22.74l-10.5 10.57-10.5-10.57h-13.94v-.01l-27.15-.05 19.09-19.21-12.73-12.81-9.18 9.24a78.044 78.044 0 0 1 153.44 20.15z" style="fill:#e6e8ea" transform="translate(-138.021 -197.142)"/>
        </g>
        <circle data-name="椭圆 172" cx="19.764" cy="19.764" r="19.764" transform="translate(462.346 146.788)" style="fill:#0e3070"/>
        <circle data-name="椭圆 171" cx="17.445" cy="17.445" r="17.445" transform="translate(464.666 149.107)" style="fill:url(#9cx41w4ria)"/>
        <path data-name="路径 13179" d="M987.2 315.233a77.864 77.864 0 0 1-27.26 59.26c.01-8.53.02-23.72-.09-25.25-.22-3.24-4.27-7.8-4.27-7.8l-36.37 32.46-.18 18.75a78.044 78.044 0 1 1 68.17-77.42z" transform="translate(-138.021 -198.04)" style="fill:#e6e8ea"/>
        <circle data-name="椭圆 169" cx="19.767" cy="19.767" r="19.767" transform="translate(752.623 47)" style="fill:#f04e23"/>
        <circle data-name="椭圆 170" cx="16.896" cy="16.896" r="16.896" transform="translate(755.494 50)" style="fill:url(#ihom7ploab)"/>
        <path data-name="路径 73" d="M526.334 353.27H543.9v17.681h-17.566z" transform="translate(-138.021 -198.04)" style="fill:#e8a37d"/>
        <path data-name="路径 73" d="m948.562 327.3 10.67-10.67 10.743 10.743-10.67 10.67z" transform="translate(-140.021 -195.948)" style="fill:#e8a37d"/>
        <path data-name="路径 73" d="m809.2 355.793 12.041-12.041 12.123 12.123-12.041 12.041z" transform="translate(-138.021 -198.04)" style="fill:#e8a37d"/>
        <path data-name="路径 73" d="m838.1 255.773 6.548-6.549 6.593 6.593-6.548 6.549z" transform="translate(-138.021 -198.04)" style="fill:#e6e8ea"/>
        <path data-name="路径 73" d="m880.378 230.683 2.277-2.277 2.292 2.292-2.277 2.277zM556.6 309.824l2.276-2.277 2.293 2.293-2.277 2.276zM646.433 463.652l1.941-1.941 1.954 1.954-1.941 1.941zM503.482 442.339l3.251-3.251 3.274 3.274-3.252 3.251z" transform="translate(-138.021 -198.04)" style="fill:#f48365"/>
        <path data-name="路径 73" d="m953.616 221.347 3.574-3.574 3.6 3.6-3.575 3.574z" transform="translate(-138.021 -198.04)" style="fill:#e6e8ea"/>
        <path data-name="路径 73" d="m977.245 267.036 6-6 6.037 6.037-6 6z" transform="translate(-138.021 -198.04)" style="fill:#f48365"/>
        <path data-name="路径 73" d="m676.214 356.043 3.76-3.76 3.786 3.785-3.76 3.76zM629.981 300.533l3.395-3.394 3.417 3.418-3.394 3.394z" transform="translate(-138.021 -198.04)" style="fill:#e6e8ea"/>
        <path data-name="路径 73" d="m479.926 367.693 2.407-2.407 2.424 2.423-2.407 2.408z" transform="translate(368.297 -203.675)" style="fill:#f48365"/>
        <path data-name="路径 73" d="m515.153 333.625 5.941-5.941 5.981 5.982-5.941 5.941z" transform="translate(-138.021 -198.04)" style="fill:#e6e8ea"/>
        <path data-name="路径 73" d="m849.451 395.659 4.036-4.036 4.063 4.064-4.036 4.036z" transform="translate(-138.021 -198.04)" style="fill:#f48365"/>
        <path data-name="路径 73" d="m463.389 389.365 3.374-3.374 3.4 3.4-3.373 3.373z" transform="translate(368.297 -203.675)" style="fill:#e6e8ea"/>
        <path data-name="路径 73" d="m659.617 411.794 13.313 13.312-13.4 13.4-13.316-13.306z" transform="translate(-138.021 -198.04)" style="fill:#e8a37d"/>
        <path data-name="路径 13182" d="m850.779 326.423 7.072-24.581c5.184-18.019 30.765-17.883 35.756.191l6.645 24.059s-49.473.663-49.473.331z" transform="translate(-138.021 -198.04)" style="fill:#5c1929"/>
        <path data-name="路径 13183" d="M881.479 320.791s-18.994 6.074-21.755-14.355c-.1-.774 24.515-.111 24.515-.111z" transform="translate(-138.021 -198.04)" style="fill:#e8a37d"/>
        <path data-name="路径 13184" d="M959.935 374.493a77.761 77.761 0 0 1-40.91 18.16l.18-18.75 36.37-32.46s4.05 4.56 4.27 7.8c.11 1.53.1 16.72.09 25.25z" transform="translate(-138.021 -198.04)" style="fill:#76808f"/>
        <path data-name="路径 13575" d="M917.338 260.544c-.218-2.281-2.188-3.046-4.672-3.265v-3.165h-1.924v3.079c-.51 0-1.023.009-1.538.02v-3.1h-1.924v3.163c-.417.008-.827.016-1.226.014v-.009h-2.65v2.055s1.423-.026 1.4 0a.988.988 0 0 1 1.1.846v3.6a1.526 1.526 0 0 1 .2.013h-.2l-.008 5.045a.683.683 0 0 1-.724.638c.026.022-1.4 0-1.4 0l-.384 2.3h2.507c.466 0 .925.01 1.374.013v3.2h1.923v-3.164c.528.01 1.04.014 1.539.014v3.151h1.925v-3.193c3.238-.184 5.5-1 5.787-4.038a3.276 3.276 0 0 0-2.459-3.928c-.1-.023-.2-.041-.3-.055a2.978 2.978 0 0 0 1.653-3.238zm-2.7 6.84c0 2.391-4.093 2.116-5.4 2.117v-4.239c1.312.004 5.403-.377 5.402 2.122zm-.892-5.982c0 2.176-3.416 1.919-4.5 1.918v-3.843c1.086 0 4.5-.344 4.5 1.924z" transform="translate(-138.57 -197.658)" style="opacity:.8;fill:#fff"/>
        <path data-name="路径 13185" d="M627.841 371.07a7.827 7.827 0 0 1-6.723 4.49c-4.509 0-8.167-4.63-8.167-10.35s3.658-10.35 8.167-10.35a7.778 7.778 0 0 1 6.624 4.31l-1.671.94a5.9 5.9 0 0 0-4.953-3.13c-2.591 0-4.815 2.02-5.784 4.93H623v1.8h-7.932a20.9 20.9 0 0 0-.009 2.95H623v1.8h-7.682c.959 2.94 3.2 4.99 5.8 4.99a5.96 5.96 0 0 0 5.062-3.32z" transform="translate(-138.021 -198.04)" style="fill:#f8d33a"/>
        <path data-name="路径 13186" d="M567.917 356.718a17.2 17.2 0 0 0-12.127 29.407l24.328-24.325a17.145 17.145 0 0 0-12.201-5.082z" transform="translate(-138.021 -198.04)" style="fill:url(#rhsdlq6dfc)"/>
        <path data-name="路径 13187" d="M555.79 386.125a17.2 17.2 0 0 0 24.328-24.325z" transform="translate(-138.021 -198.04)" style="fill:#e8a37d"/>
        <path data-name="路径 13188" d="M640.26 416.9v21.28h-26.791s-11.33-1.23-16.4-9.69v44.76a78.485 78.485 0 0 1-12.25.96 77.671 77.671 0 0 1-46.27-15.2v-42.03l-28.88.28h-.31c-15.09 0-22.64-18.37-11.97-29.11l12.03-12.12 9.18-9.24 12.73 12.81-19.09 19.21 27.15.05v.01h13.94l10.5 10.57 10.5-10.57h22.74l18.02 18.03z" transform="translate(-137.993 -197.192)" style="fill:#76808f"/>
        <path data-name="路径 13189" d="m951.564 294.88.093 19.235 18.056.061-.1-22.259c-.052-15.139-18.379-22.786-29.052-12.123l-28.63 28.63-8.46 8.46.05 14.895-14.9-.051-8.007 8.008-12.61 11.755h-27.937V370.7h28.59a17.982 17.982 0 0 0 12.713-5.265l12.274-12.274 25.656 25.661 39.134-39.134-25.861-25.861z" transform="translate(-138.021 -198.04)" style="fill:#02c076"/>
        <path data-name="矩形 8279" transform="translate(610 128.825)" style="fill:#76808f" d="M0 0h6.515v28.712H0z"/>
        <path data-name="矩形 8280" transform="translate(596 128.825)" style="fill:#76808f" d="M0 0h6.515v28.712H0z"/>
        <path data-name="矩形 8281" transform="translate(583 128.825)" style="fill:#76808f" d="M0 0h6.515v28.712H0z"/>
        <path data-name="矩形 8282" transform="translate(570 128.825)" style="fill:#76808f" d="M0 0h6.515v28.712H0z"/>
        <path data-name="路径 13190" d="M701.147 323.552v6.294h59.3v-6.736l-29.6-22.748z" transform="translate(-138.021 -198.04)" style="fill:#f04e23"/>
        <path data-name="矩形 8283" transform="translate(563.125 154.555)" style="fill:#f04e23" d="M0 0h59.301v9.718H0z"/>
        <path data-name="路径 73" d="m772.974 316.62 5.786-5.786 5.826 5.826-5.786 5.786z" transform="translate(-138.021 -198.04)" style="fill:#e6e8ea"/>
        <path data-name="路径 73" d="m680.876 377.688 5.234-5.235 5.27 5.27-5.234 5.235z" transform="translate(-137.139 -198.04)" style="fill:#f48365"/>
        <path data-name="路径 73" d="m705.888 386.136 2.541-2.542 2.559 2.559-2.541 2.541z" transform="translate(-138.021 -198.04)" style="fill:#e6e8ea"/>
        <path data-name="路径 73" d="m774.354 342.3 2.158-2.158 2.172 2.173-2.158 2.157zM759.777 305.522l3.145-3.145 3.166 3.166-3.144 3.145z" transform="translate(-138.021 -198.04)" style="fill:#f48365"/>
        <g data-name="组 6950" transform="translate(24305.477 -8434.314)">
            <circle data-name="椭圆 173" cx="7.753" cy="7.753" r="7.753" transform="translate(-23720.455 8546.106)" style="fill:#10298e"/>
            <path data-name="路径 13191" d="M110.572 33.474h-.983a.632.632 0 0 0-.058-.326c-.06-.082-.221-.123-.485-.123a1.238 1.238 0 0 0-.511.07c-.084.048-.125.151-.125.307a.305.305 0 0 0 .11.283.448.448 0 0 0 .211.058l.2.015c.424.029.691.048.8.06a1.207 1.207 0 0 1 .732.268.716.716 0 0 1 .214.444 2.979 2.979 0 0 1 .019.372 1.964 1.964 0 0 1-.091.7.9.9 0 0 1-.739.511 4.208 4.208 0 0 1-.736.046 4.612 4.612 0 0 1-1.154-.1.755.755 0 0 1-.528-.491 2.286 2.286 0 0 1-.072-.686h.984v.082c0 .17.048.28.146.328a.534.534 0 0 0 .245.053h.362a1.28 1.28 0 0 0 .353-.029.29.29 0 0 0 .18-.173.7.7 0 0 0 .021-.189c0-.173-.062-.278-.189-.317a6.075 6.075 0 0 0-.657-.062 7.37 7.37 0 0 1-.657-.065.882.882 0 0 1-.645-.372 1.473 1.473 0 0 1-.142-.727 1.9 1.9 0 0 1 .077-.593.634.634 0 0 1 .247-.338 1.242 1.242 0 0 1 .638-.209 8.21 8.21 0 0 1 .718-.029 3.746 3.746 0 0 1 .883.072.874.874 0 0 1 .643.967.918.918 0 0 1-.011.193z" transform="translate(-23827.273 8519.981)" style="fill:#fff"/>
            <path data-name="路径 13192" d="M118.625 36.144V32.21h1.975a2.15 2.15 0 0 1 .619.067.957.957 0 0 1 .653.624 2.407 2.407 0 0 1 .086.746 2.724 2.724 0 0 1-.1.862.883.883 0 0 1-.78.6 7.793 7.793 0 0 1-.59.019l-.175.007h-.631v1.018h-1.058zm1.058-1.929h.659a1.209 1.209 0 0 0 .382-.048.284.284 0 0 0 .127-.206 1.69 1.69 0 0 0 .019-.307 1.274 1.274 0 0 0-.041-.37.317.317 0 0 0-.274-.206 1.7 1.7 0 0 0-.206-.007h-.669v1.145z" transform="translate(-23830.992 8519.991)" style="fill:#fff"/>
            <path data-name="路径 13193" d="M125.641 35.462h-1.415l-.189.679h-1.1l1.183-3.935h1.6l1.195 3.935h-1.072zm-.208-.765-.5-1.706-.483 1.706z" transform="translate(-23832.42 8519.992)" style="fill:#fff"/>
            <path data-name="路径 13194" d="M115.148 32.782a1.394 1.394 0 0 1 1.082.515l.228-.489a2.007 2.007 0 0 0-3.22.672h-.446l-.264.564h.571c0 .053-.007.105-.007.158a1.68 1.68 0 0 0 .009.192h-.288l-.264.564h.7a1.98 1.98 0 0 0 1.826 1.183 2.012 2.012 0 0 0 1.115-.336v-.691a1.394 1.394 0 0 1-2.217-.158h1.459l.264-.564h-1.936a1.493 1.493 0 0 1-.015-.206c0-.048 0-.094.007-.141h2.107l.264-.564h-2.188a1.41 1.41 0 0 1 1.213-.699z" transform="translate(-23828.979 8519.974)" style="fill:#ffbe00"/>
        </g>
    </g>
</svg>
