<svg xmlns="http://www.w3.org/2000/svg" width="14" height="14" viewBox="0 0 14 14">
  <g id="组_4" data-name="组 4" transform="translate(-904.262 -442.263)">
    <g id="椭圆_6" data-name="椭圆 6" transform="translate(904.262 442.263)" fill="none" stroke="#707a8a" stroke-width="1">
      <circle cx="7" cy="7" r="7" stroke="none"/>
      <circle cx="7" cy="7" r="6.5" fill="none"/>
    </g>
    <path id="路径_9" data-name="路径 9" d="M4.716-6.288A2.3,2.3,0,0,0,4.14-8.076a1.956,1.956,0,0,0-1.464-.54,2.034,2.034,0,0,0-1.44.564A2.286,2.286,0,0,0,.672-6.324H1.944a1.372,1.372,0,0,1,.228-.936.662.662,0,0,1,.516-.216.653.653,0,0,1,.516.228,1.309,1.309,0,0,1,.24.924,1.614,1.614,0,0,1-.312,1.116l-.708.948a1.745,1.745,0,0,0-.372,1.032V-2.4H3.324v-.684a1.263,1.263,0,0,1,.276-.78l.708-.948A2.274,2.274,0,0,0,4.716-6.288ZM3.432,0V-1.476H1.944V0Z" transform="translate(908.59 453.879)" fill="#707a8a"/>
  </g>
</svg>
