<svg id="组_173" data-name="组 173" xmlns="http://www.w3.org/2000/svg" width="136" height="79" viewBox="0 0 136 79">
  <path id="减去_44" data-name="减去 44" d="M93,71H7a7.008,7.008,0,0,1-7-7V7A7.008,7.008,0,0,1,7,0H93a7.008,7.008,0,0,1,7,7V64A7.008,7.008,0,0,1,93,71ZM9,4A5.006,5.006,0,0,0,4,9V62a5.006,5.006,0,0,0,5,5H91a5.006,5.006,0,0,0,5-5V9a5.006,5.006,0,0,0-5-5Z" transform="translate(17 4)" fill="#1e2329"/>
  <path id="路径_30" data-name="路径 30" d="M110.949,226.688l16.237,16.119a1.5,1.5,0,0,0,2.121,0l2.121-2.105a1.478,1.478,0,0,0,0-2.105l-16.244-16.111a8.87,8.87,0,0,0-1.755-10.147,9.032,9.032,0,0,0-10.221-1.742l5.988,5.944-4.233,4.2L98.972,214.8a8.87,8.87,0,0,0,1.756,10.146A9.032,9.032,0,0,0,110.949,226.688Z" transform="translate(-47.98 -183.726)" fill="#f04e23"/>
  <rect id="矩形_320" data-name="矩形 320" width="40" height="6" rx="2" transform="translate(47 73)" fill="#1e2329"/>
  <circle id="椭圆_32" data-name="椭圆 32" cx="2" cy="2" r="2" transform="translate(125 26)" fill="#1e2329"/>
  <circle id="椭圆_33" data-name="椭圆 33" cx="2.5" cy="2.5" r="2.5" transform="translate(131 1)" fill="#f04e23"/>
  <circle id="椭圆_34" data-name="椭圆 34" cx="1.5" cy="1.5" r="1.5" transform="translate(0 48)" fill="#1e2329"/>
  <circle id="椭圆_35" data-name="椭圆 35" cx="1" cy="1" r="1" transform="translate(119)" fill="#f04e23"/>
  <circle id="椭圆_36" data-name="椭圆 36" cx="2.5" cy="2.5" r="2.5" transform="translate(2 64)" fill="#f04e23"/>
</svg>
