<svg xmlns="http://www.w3.org/2000/svg" width="13" height="14" viewBox="0 0 13 14">
  <g id="组_895" data-name="组 895" transform="translate(-347 -170)">
    <g id="联合_172" data-name="联合 172" transform="translate(347 170)" fill="none">
      <path d="M1,14V11H0V9H1V8H0V6H1V5H0V3H1V0H13V14Z" stroke="none"/>
      <path d="M 11.99960041046143 13.00040054321289 L 11.99960041046143 1.000000238418579 L 1.999900221824646 1.000000238418579 L 1.999900221824646 3.999700307846069 L 1.000000238418579 4.000400066375732 L 1.999900221824646 4.000400066375732 L 1.999900221824646 13.00040054321289 L 11.99960041046143 13.00040054321289 M 12.99960041046143 14.00040054321289 L 0.999900221824646 14.00040054321289 L 0.999900221824646 10.99980068206787 L 2.052307195299363e-07 10.99980068206787 L 2.052307195299363e-07 9 L 0.999900221824646 9 L 0.999900221824646 8.000100135803223 L 2.052307195299363e-07 8.000100135803223 L 2.052307195299363e-07 6.000300407409668 L 0.999900221824646 6.000300407409668 L 0.999900221824646 5.000400066375732 L 2.052307195299363e-07 5.000400066375732 L 2.052307195299363e-07 2.999700307846069 L 0.999900221824646 2.999700307846069 L 0.999900221824646 2.716064386731887e-07 L 12.99960041046143 2.716064386731887e-07 L 12.99960041046143 14.00040054321289 Z" stroke="none" fill="#707a8a"/>
    </g>
    <path id="路径_154" data-name="路径 154" d="M5.344-6.674a2.594,2.594,0,0,1-.19,1.022,2.687,2.687,0,0,1-.507.788,4.761,4.761,0,0,1-.718.627q-.4.287-.847.557v1.336H2.033V-4.131q.328-.2.765-.478a4.3,4.3,0,0,0,.683-.519,2.311,2.311,0,0,0,.492-.653,1.79,1.79,0,0,0,.176-.806,1.176,1.176,0,0,0-.416-.987A1.709,1.709,0,0,0,2.648-7.9a3.094,3.094,0,0,0-1.1.2A4.4,4.4,0,0,0,.7-7.295H.639v-1.2a6.022,6.022,0,0,1,.99-.284A5.491,5.491,0,0,1,2.76-8.9a2.754,2.754,0,0,1,1.893.612A2.052,2.052,0,0,1,5.344-6.674ZM3.176,0H1.98V-1.236h1.2Z" transform="translate(351 181.902)" fill="#707a8a"/>
  </g>
</svg>
