<svg xmlns="http://www.w3.org/2000/svg" width="35.833" height="16" viewBox="0 0 35.833 16">
  <path id="排除_2" data-name="排除 2" d="M32.833,16h-26a3,3,0,0,1-3-3V11.367a1.026,1.026,0,0,1-.1-.067L.4,8.8a1,1,0,0,1,0-1.6L3.733,4.7a1.02,1.02,0,0,1,.1-.067V3a3,3,0,0,1,3-3h26a3,3,0,0,1,3,3V13A3,3,0,0,1,32.833,16ZM21.911,4.4h0v9.094h.937V4.4h-.937Zm-11.39,6.234a14.859,14.859,0,0,1-1.278,2.438c.3.139.574.277.809.41a23.255,23.255,0,0,0,1.289-2.5l-.82-.352Zm17.625,1.734h0c.088.4.149.714.187.973.713.015,1.341.023,1.864.023,1.065,0,1.6-.564,1.6-1.676V2.854H25.45v.89h5.414v7.8a.775.775,0,0,1-.856.891c-.526,0-1.153-.024-1.863-.071ZM13.2,10.764h0l-.773.339c.342.668.685,1.414,1.02,2.215l.867-.374c-.379-.79-.753-1.524-1.113-2.18Zm5.836-.4h0l-.751.446c.539.843,1.02,1.659,1.43,2.425l.832-.492c-.492-.823-1-1.624-1.511-2.379Zm-2.859.34-.774.339a19.072,19.072,0,0,1,1.043,2.168l.856-.364C16.96,12.126,16.581,11.4,16.181,10.706ZM13.943,5.655l-.5.668c.428.272.867.566,1.307.873a4.73,4.73,0,0,1-2.256,2.514c.257.264.485.521.679.761a5.645,5.645,0,0,0,2.355-2.724c.441.32.89.657,1.337,1l.586-.832c-.518-.358-1.064-.723-1.624-1.084A9.508,9.508,0,0,0,16.1,4.588h1.823A23.19,23.19,0,0,0,18.1,8.549c.233,1.081.69,1.629,1.359,1.629.56,0,.927-.363,1.09-1.078.085-.4.168-.958.247-1.652-.285-.079-.578-.174-.868-.282-.054.66-.117,1.189-.187,1.571-.047.265-.149.4-.305.4-.195,0-.344-.233-.445-.691a24.134,24.134,0,0,1-.153-4.7H16.123c.015-.678.023-1.256.023-1.769h-.9c0,.559,0,1.155-.018,1.769H13.766v.844h1.442a8.212,8.212,0,0,1-.194,1.728C14.686,6.111,14.326,5.888,13.943,5.655ZM9.3,9.147h0c.062.366.109.689.141.96.382.016.749.024,1.09.024.878,0,1.324-.477,1.324-1.418V6.99c.748-.234,1.255-.393,1.3-.41-.016-.241-.023-.541-.023-.89-.425.138-.844.27-1.277.4V4.565h1.382V3.756H11.857V2.021h-.891V3.756H9.3v.809h1.664V6.351c-.584.166-1.191.329-1.8.487l.175.937c.563-.174,1.112-.345,1.629-.509V8.608a.556.556,0,0,1-.621.633A6.614,6.614,0,0,1,9.3,9.147ZM23.107,1.975h0l-.668.6c.516.541,1.04,1.117,1.559,1.711l.761-.668c-.573-.6-1.129-1.149-1.652-1.641Z" fill="#f04e23"/>
</svg>
