<svg xmlns="http://www.w3.org/2000/svg" width="18.003" height="14.001" viewBox="0 0 18.003 14.001">
    <defs>
        <style>
            .cls-1{fill:#707a8a}
        </style>
    </defs>
    <g id="组_2" data-name="组 2" transform="translate(-1040 -630)">
        <g id="组_1" data-name="组 1" transform="translate(1025 549)">
            <path id="减去_5" data-name="减去 5" class="cls-1" d="M10869-1637h-9a3 3 0 0 1-3-3v-8a3 3 0 0 1 3-3h11v2h-11a1 1 0 0 0-1 1v8a1 1 0 0 0 1 1h9v2z" transform="translate(-10842 1732)"/>
            <path id="联合_1" data-name="联合 1" class="cls-1" d="M10874-1640h-15v-2h13v-6h-15v-2h17v10z" transform="translate(-10841 1734.998)"/>
            <circle id="椭圆_5" data-name="椭圆 5" class="cls-1" cx="1" cy="1" r="1" transform="translate(27 89)"/>
        </g>
    </g>
</svg>
