<svg xmlns="http://www.w3.org/2000/svg" width="24" height="24" viewBox="0 0 24 24">
    <defs>
        <clipPath id="k42oki199a">
            <path data-name="矩形 8474" transform="translate(13 13)" style="fill:#fff;stroke:#707070" d="M0 0h24v24H0z"/>
        </clipPath>
    </defs>
    <g data-name="组 7260" transform="translate(-13 -13)" style="clip-path:url(#k42oki199a)">
        <path data-name="路径 13396" d="M168.776 699.6c-.593 1.916-3.746 3.377-7.545 3.377-3.77 0-6.9-1.438-7.53-3.33a2.208 2.208 0 0 0-.1.655c0 2.227 3.424 4.032 7.648 4.032s7.648-1.8 7.648-4.032a2.255 2.255 0 0 0-.121-.702z" transform="translate(-135.878 -670.777)" style="fill:#707a8a"/>
        <path data-name="路径 13397" d="M168.776 568.6c-.593 1.916-3.746 3.377-7.545 3.377-3.77 0-6.9-1.438-7.53-3.33a2.208 2.208 0 0 0-.1.655c0 2.227 3.424 4.032 7.648 4.032s7.648-1.8 7.648-4.032a2.255 2.255 0 0 0-.121-.702z" transform="translate(-135.878 -542.572)" style="fill:#707a8a"/>
        <path data-name="路径 13398" d="M168.776 433.6c-.593 1.916-3.746 3.377-7.545 3.377-3.77 0-6.9-1.438-7.53-3.33a2.208 2.208 0 0 0-.1.655c0 2.227 3.424 4.032 7.648 4.032s7.648-1.8 7.648-4.032a2.255 2.255 0 0 0-.121-.702z" transform="translate(-135.878 -410.452)" style="fill:#707a8a"/>
        <path data-name="路径 13399" d="M153.5 134.932c0 2.227 3.424 4.032 7.648 4.032s7.648-1.805 7.648-4.032-3.424-4.032-7.648-4.032-7.648 1.805-7.648 4.032z" transform="translate(-135.78 -114.209)" style="fill:#707a8a"/>
    </g>
</svg>
