<svg width="460" height="290" viewBox="0 0 460 290" fill="none" xmlns="http://www.w3.org/2000/svg">
<rect width="460" height="290" rx="10" fill="#F4F7FD"/>
<path d="M10 43C10 41.8954 10.8954 41 12 41H207V45H12C10.8954 45 10 44.1046 10 43Z" fill="#60A3F2"/>
<rect opacity="0.4" x="201" y="14" width="58" height="58" rx="14" fill="#484848"/>
<g filter="url(#filter0_d_3311_20244)">
<rect x="207" y="20" width="46" height="46" rx="10" fill="#FFFAFA"/>
<rect x="209" y="22" width="42" height="42" rx="8" stroke="url(#paint0_linear_3311_20244)" stroke-width="4"/>
</g>
<path d="M229.021 46.2C229.021 47.0667 228.934 47.7867 228.761 48.36C228.587 48.9333 228.254 49.4667 227.761 49.96C226.987 50.7333 225.941 51.12 224.621 51.12C223.261 51.12 222.201 50.74 221.441 49.98C220.761 49.3 220.374 48.3133 220.281 47.02H222.881C223.027 48.1933 223.607 48.78 224.621 48.78C225.141 48.78 225.554 48.6267 225.861 48.32C226.234 47.9467 226.421 47.24 226.421 46.2C226.421 44.4933 225.841 43.64 224.681 43.64C223.787 43.64 223.214 44.0267 222.961 44.8H220.581V36.76H228.701V39.1H222.941V42.16C223.447 41.68 224.161 41.44 225.081 41.44C226.214 41.44 227.101 41.76 227.741 42.4C228.594 43.2533 229.021 44.52 229.021 46.2ZM239.76 46.88C239.76 48.1867 239.34 49.22 238.5 49.98C237.673 50.74 236.653 51.12 235.44 51.12C234.227 51.12 233.2 50.74 232.36 49.98C231.52 49.22 231.1 48.1867 231.1 46.88V40.88C231.1 39.5733 231.52 38.54 232.36 37.78C233.2 37.02 234.227 36.64 235.44 36.64C236.653 36.64 237.673 37.02 238.5 37.78C239.34 38.54 239.76 39.5733 239.76 40.88V46.88ZM237.16 46.86V40.92C237.16 40.32 237 39.8467 236.68 39.5C236.373 39.1533 235.96 38.98 235.44 38.98C234.92 38.98 234.5 39.1533 234.18 39.5C233.86 39.8467 233.7 40.32 233.7 40.92V46.86C233.7 47.46 233.86 47.9333 234.18 48.28C234.5 48.6133 234.92 48.78 235.44 48.78C235.96 48.78 236.373 48.6133 236.68 48.28C237 47.9333 237.16 47.46 237.16 46.86Z" fill="#484848"/>
<path d="M253 41H448C449.105 41 450 41.8954 450 43C450 44.1046 449.105 45 448 45H253V41Z" fill="#F96B8A"/>
<rect x="10" y="86" width="440" height="64" rx="6" fill="url(#paint1_linear_3311_20244)"/>
<g filter="url(#filter1_d_3311_20244)">
<path d="M225.152 129.208L224.6 126.832C225.896 126.944 226.944 127 227.744 127C228.704 127 229.184 126.504 229.184 125.512V107.68H231.56V126.112C231.56 128.176 230.568 129.208 228.584 129.208H225.152ZM225.032 114.16C223.928 118.848 222.472 122.448 220.664 124.96L218.672 123.208C220.512 120.696 221.872 117.376 222.752 113.248L225.032 114.16ZM237.2 112.648C238.944 116.92 240.28 120.608 241.208 123.712L239.144 125.152C238.152 121.856 236.808 118.12 235.112 113.944L237.2 112.648Z" fill="white"/>
</g>
<path d="M10 176C10 172.686 12.6863 170 16 170H444C447.314 170 450 172.686 450 176V264C450 267.314 447.314 270 444 270H16C12.6863 270 10 267.314 10 264V176Z" fill="url(#paint2_linear_3311_20244)"/>
<g filter="url(#filter2_d_3311_20244)">
<path d="M207.848 220.708L207.344 218.5C208.032 218.58 208.624 218.62 209.12 218.62C209.712 218.62 210.008 218.324 210.008 217.732V212.548C209.176 212.9 208.28 213.244 207.32 213.58L206.744 211.276C207.96 210.956 209.048 210.612 210.008 210.244V205.228H207.272V203.044H210.008V198.844H212.264V203.044H214.808V205.228H212.264V209.236C213.352 208.66 214.16 208.212 214.688 207.892V210.22C213.808 210.732 213 211.164 212.264 211.516V218.308C212.264 219.908 211.48 220.708 209.912 220.708H207.848ZM215.456 208.9H227.192V211.012C226.52 213.14 225.384 214.98 223.784 216.532C225.336 217.492 227.168 218.332 229.28 219.052L228.056 221.02C225.72 220.092 223.744 219.06 222.128 217.924C220.304 219.252 218.064 220.308 215.408 221.092L214.16 219.172C216.528 218.468 218.56 217.548 220.256 216.412C218.544 214.844 217.384 213.076 216.776 211.108H215.456V208.9ZM218.888 211.108C219.48 212.628 220.472 213.98 221.864 215.164C223.192 213.964 224.2 212.612 224.888 211.108H218.888ZM217.112 199.636H225.704V204.652C225.704 205.18 226.04 205.444 226.712 205.444H228.536V207.556H226.088C224.344 207.556 223.472 206.764 223.472 205.18V201.772H219.344V202.876C219.344 205.18 218.232 206.972 216.008 208.252L214.496 206.5C216.24 205.7 217.112 204.572 217.112 203.116V199.636ZM233.312 199.036C234.944 200.22 236.344 201.42 237.512 202.636L235.904 204.268C234.896 203.116 233.48 201.892 231.656 200.596L233.312 199.036ZM232.736 204.676C234.32 205.876 235.648 207.084 236.72 208.3L235.112 209.908C234.104 208.74 232.768 207.524 231.104 206.26L232.736 204.676ZM237.368 212.284C236.328 215.228 235.136 218.06 233.792 220.78L231.512 219.772C232.936 217.084 234.208 214.308 235.328 211.444L237.368 212.284ZM238.184 202.684H244.328C243.88 201.452 243.392 200.324 242.864 199.3L244.976 198.7C245.648 200.092 246.184 201.412 246.584 202.66L246.512 202.684H252.464V204.916H246.512V210.052H251.816V212.236H246.512V217.924H252.968V220.156H237.584V217.924H244.232V212.236H238.856V210.052H244.232V204.916H238.184V202.684Z" fill="white"/>
</g>
<g filter="url(#filter3_d_3311_20244)">
<path d="M175.626 231.79V242.5H174.396V233.29C173.736 233.97 172.896 234.46 171.876 234.76V233.53C172.396 233.39 172.896 233.175 173.376 232.885C173.876 232.565 174.306 232.2 174.666 231.79H175.626ZM179.276 240.355C179.606 240.355 179.871 240.455 180.071 240.655C180.281 240.845 180.386 241.1 180.386 241.42C180.386 241.72 180.276 241.98 180.056 242.2C179.836 242.4 179.576 242.5 179.276 242.5C178.966 242.5 178.706 242.395 178.496 242.185C178.286 241.975 178.181 241.72 178.181 241.42C178.181 241.1 178.286 240.845 178.496 240.655C178.696 240.455 178.956 240.355 179.276 240.355ZM185.823 231.58C187.083 231.58 188.058 232.11 188.748 233.17C189.378 234.16 189.693 235.485 189.693 237.145C189.693 238.805 189.378 240.13 188.748 241.12C188.048 242.18 187.073 242.71 185.823 242.71C184.573 242.71 183.598 242.18 182.898 241.12C182.268 240.13 181.953 238.805 181.953 237.145C181.953 235.465 182.268 234.14 182.898 233.17C183.588 232.11 184.563 231.58 185.823 231.58ZM185.823 232.96C184.943 232.96 184.323 233.445 183.963 234.415C183.703 235.055 183.573 235.965 183.573 237.145C183.573 238.315 183.703 239.225 183.963 239.875C184.323 240.845 184.943 241.33 185.823 241.33C186.703 241.33 187.323 240.845 187.683 239.875C187.943 239.185 188.073 238.275 188.073 237.145C188.073 235.995 187.943 235.085 187.683 234.415C187.323 233.445 186.703 232.96 185.823 232.96ZM194.817 231.58C196.077 231.58 197.052 232.11 197.742 233.17C198.372 234.16 198.687 235.485 198.687 237.145C198.687 238.805 198.372 240.13 197.742 241.12C197.042 242.18 196.067 242.71 194.817 242.71C193.567 242.71 192.592 242.18 191.892 241.12C191.262 240.13 190.947 238.805 190.947 237.145C190.947 235.465 191.262 234.14 191.892 233.17C192.582 232.11 193.557 231.58 194.817 231.58ZM194.817 232.96C193.937 232.96 193.317 233.445 192.957 234.415C192.697 235.055 192.567 235.965 192.567 237.145C192.567 238.315 192.697 239.225 192.957 239.875C193.317 240.845 193.937 241.33 194.817 241.33C195.697 241.33 196.317 240.845 196.677 239.875C196.937 239.185 197.067 238.275 197.067 237.145C197.067 235.995 196.937 235.085 196.677 234.415C196.317 233.445 195.697 232.96 194.817 232.96ZM203.812 231.58C205.072 231.58 206.047 232.11 206.737 233.17C207.367 234.16 207.682 235.485 207.682 237.145C207.682 238.805 207.367 240.13 206.737 241.12C206.037 242.18 205.062 242.71 203.812 242.71C202.562 242.71 201.587 242.18 200.887 241.12C200.257 240.13 199.942 238.805 199.942 237.145C199.942 235.465 200.257 234.14 200.887 233.17C201.577 232.11 202.552 231.58 203.812 231.58ZM203.812 232.96C202.932 232.96 202.312 233.445 201.952 234.415C201.692 235.055 201.562 235.965 201.562 237.145C201.562 238.315 201.692 239.225 201.952 239.875C202.312 240.845 202.932 241.33 203.812 241.33C204.692 241.33 205.312 240.845 205.672 239.875C205.932 239.185 206.062 238.275 206.062 237.145C206.062 235.995 205.932 235.085 205.672 234.415C205.312 233.445 204.692 232.96 203.812 232.96ZM212.806 231.58C214.066 231.58 215.041 232.11 215.731 233.17C216.361 234.16 216.676 235.485 216.676 237.145C216.676 238.805 216.361 240.13 215.731 241.12C215.031 242.18 214.056 242.71 212.806 242.71C211.556 242.71 210.581 242.18 209.881 241.12C209.251 240.13 208.936 238.805 208.936 237.145C208.936 235.465 209.251 234.14 209.881 233.17C210.571 232.11 211.546 231.58 212.806 231.58ZM212.806 232.96C211.926 232.96 211.306 233.445 210.946 234.415C210.686 235.055 210.556 235.965 210.556 237.145C210.556 238.315 210.686 239.225 210.946 239.875C211.306 240.845 211.926 241.33 212.806 241.33C213.686 241.33 214.306 240.845 214.666 239.875C214.926 239.185 215.056 238.275 215.056 237.145C215.056 235.995 214.926 235.085 214.666 234.415C214.306 233.445 213.686 232.96 212.806 232.96ZM221.8 231.58C223.06 231.58 224.035 232.11 224.725 233.17C225.355 234.16 225.67 235.485 225.67 237.145C225.67 238.805 225.355 240.13 224.725 241.12C224.025 242.18 223.05 242.71 221.8 242.71C220.55 242.71 219.575 242.18 218.875 241.12C218.245 240.13 217.93 238.805 217.93 237.145C217.93 235.465 218.245 234.14 218.875 233.17C219.565 232.11 220.54 231.58 221.8 231.58ZM221.8 232.96C220.92 232.96 220.3 233.445 219.94 234.415C219.68 235.055 219.55 235.965 219.55 237.145C219.55 238.315 219.68 239.225 219.94 239.875C220.3 240.845 220.92 241.33 221.8 241.33C222.68 241.33 223.3 240.845 223.66 239.875C223.92 239.185 224.05 238.275 224.05 237.145C224.05 235.995 223.92 235.085 223.66 234.415C223.3 233.445 222.68 232.96 221.8 232.96ZM230.794 231.58C232.054 231.58 233.029 232.11 233.719 233.17C234.349 234.16 234.664 235.485 234.664 237.145C234.664 238.805 234.349 240.13 233.719 241.12C233.019 242.18 232.044 242.71 230.794 242.71C229.544 242.71 228.569 242.18 227.869 241.12C227.239 240.13 226.924 238.805 226.924 237.145C226.924 235.465 227.239 234.14 227.869 233.17C228.559 232.11 229.534 231.58 230.794 231.58ZM230.794 232.96C229.914 232.96 229.294 233.445 228.934 234.415C228.674 235.055 228.544 235.965 228.544 237.145C228.544 238.315 228.674 239.225 228.934 239.875C229.294 240.845 229.914 241.33 230.794 241.33C231.674 241.33 232.294 240.845 232.654 239.875C232.914 239.185 233.044 238.275 233.044 237.145C233.044 235.995 232.914 235.085 232.654 234.415C232.294 233.445 231.674 232.96 230.794 232.96ZM239.788 231.58C241.048 231.58 242.023 232.11 242.713 233.17C243.343 234.16 243.658 235.485 243.658 237.145C243.658 238.805 243.343 240.13 242.713 241.12C242.013 242.18 241.038 242.71 239.788 242.71C238.538 242.71 237.563 242.18 236.863 241.12C236.233 240.13 235.918 238.805 235.918 237.145C235.918 235.465 236.233 234.14 236.863 233.17C237.553 232.11 238.528 231.58 239.788 231.58ZM239.788 232.96C238.908 232.96 238.288 233.445 237.928 234.415C237.668 235.055 237.538 235.965 237.538 237.145C237.538 238.315 237.668 239.225 237.928 239.875C238.288 240.845 238.908 241.33 239.788 241.33C240.668 241.33 241.288 240.845 241.648 239.875C241.908 239.185 242.038 238.275 242.038 237.145C242.038 235.995 241.908 235.085 241.648 234.415C241.288 233.445 240.668 232.96 239.788 232.96ZM248.782 231.58C250.042 231.58 251.017 232.11 251.707 233.17C252.337 234.16 252.652 235.485 252.652 237.145C252.652 238.805 252.337 240.13 251.707 241.12C251.007 242.18 250.032 242.71 248.782 242.71C247.532 242.71 246.557 242.18 245.857 241.12C245.227 240.13 244.912 238.805 244.912 237.145C244.912 235.465 245.227 234.14 245.857 233.17C246.547 232.11 247.522 231.58 248.782 231.58ZM248.782 232.96C247.902 232.96 247.282 233.445 246.922 234.415C246.662 235.055 246.532 235.965 246.532 237.145C246.532 238.315 246.662 239.225 246.922 239.875C247.282 240.845 247.902 241.33 248.782 241.33C249.662 241.33 250.282 240.845 250.642 239.875C250.902 239.185 251.032 238.275 251.032 237.145C251.032 235.995 250.902 235.085 250.642 234.415C250.282 233.445 249.662 232.96 248.782 232.96ZM259.321 231.79H264.211C265.261 231.79 266.081 232.04 266.671 232.54C267.241 233.02 267.526 233.67 267.526 234.49C267.526 235.09 267.376 235.6 267.076 236.02C266.766 236.42 266.351 236.715 265.831 236.905C266.541 237.045 267.076 237.33 267.436 237.76C267.796 238.19 267.976 238.77 267.976 239.5C267.976 240.57 267.606 241.36 266.866 241.87C266.236 242.29 265.351 242.5 264.211 242.5H259.321V231.79ZM260.956 233.14V236.335H263.776C264.516 236.335 265.056 236.205 265.396 235.945C265.726 235.675 265.891 235.255 265.891 234.685C265.891 234.145 265.726 233.755 265.396 233.515C265.076 233.265 264.546 233.14 263.806 233.14H260.956ZM260.956 237.67V241.15H263.986C264.656 241.15 265.196 241.04 265.606 240.82C266.096 240.53 266.341 240.08 266.341 239.47C266.341 238.84 266.151 238.38 265.771 238.09C265.401 237.81 264.821 237.67 264.031 237.67H260.956ZM268.794 231.79H277.569V233.185H273.999V242.5H272.379V233.185H268.794V231.79ZM283.513 231.58C284.773 231.58 285.803 231.905 286.603 232.555C287.383 233.185 287.858 234.045 288.028 235.135H286.438C286.258 234.405 285.913 233.87 285.403 233.53C284.903 233.19 284.263 233.02 283.483 233.02C282.323 233.02 281.453 233.415 280.873 234.205C280.323 234.915 280.048 235.9 280.048 237.16C280.048 238.44 280.318 239.435 280.858 240.145C281.428 240.895 282.313 241.27 283.513 241.27C284.303 241.27 284.953 241.075 285.463 240.685C286.003 240.265 286.378 239.635 286.588 238.795H288.178C287.938 240.045 287.378 241.02 286.498 241.72C285.678 242.38 284.688 242.71 283.528 242.71C281.778 242.71 280.458 242.15 279.568 241.03C278.798 240.08 278.413 238.79 278.413 237.16C278.413 235.56 278.813 234.265 279.613 233.275C280.503 232.145 281.803 231.58 283.513 231.58Z" fill="white"/>
</g>
<defs>
<filter id="filter0_d_3311_20244" x="203" y="18" width="54" height="54" filterUnits="userSpaceOnUse" color-interpolation-filters="sRGB">
<feFlood flood-opacity="0" result="BackgroundImageFix"/>
<feColorMatrix in="SourceAlpha" type="matrix" values="0 0 0 0 0 0 0 0 0 0 0 0 0 0 0 0 0 0 127 0" result="hardAlpha"/>
<feOffset dy="2"/>
<feGaussianBlur stdDeviation="2"/>
<feComposite in2="hardAlpha" operator="out"/>
<feColorMatrix type="matrix" values="0 0 0 0 0 0 0 0 0 0 0 0 0 0 0 0 0 0 0.3 0"/>
<feBlend mode="normal" in2="BackgroundImageFix" result="effect1_dropShadow_3311_20244"/>
<feBlend mode="normal" in="SourceGraphic" in2="effect1_dropShadow_3311_20244" result="shape"/>
</filter>
<filter id="filter1_d_3311_20244" x="214.672" y="105.68" width="30.5352" height="29.5273" filterUnits="userSpaceOnUse" color-interpolation-filters="sRGB">
<feFlood flood-opacity="0" result="BackgroundImageFix"/>
<feColorMatrix in="SourceAlpha" type="matrix" values="0 0 0 0 0 0 0 0 0 0 0 0 0 0 0 0 0 0 127 0" result="hardAlpha"/>
<feOffset dy="2"/>
<feGaussianBlur stdDeviation="2"/>
<feComposite in2="hardAlpha" operator="out"/>
<feColorMatrix type="matrix" values="0 0 0 0 0 0 0 0 0 0 0 0 0 0 0 0 0 0 0.3 0"/>
<feBlend mode="normal" in2="BackgroundImageFix" result="effect1_dropShadow_3311_20244"/>
<feBlend mode="normal" in="SourceGraphic" in2="effect1_dropShadow_3311_20244" result="shape"/>
</filter>
<filter id="filter2_d_3311_20244" x="202.742" y="196.699" width="54.2266" height="30.3926" filterUnits="userSpaceOnUse" color-interpolation-filters="sRGB">
<feFlood flood-opacity="0" result="BackgroundImageFix"/>
<feColorMatrix in="SourceAlpha" type="matrix" values="0 0 0 0 0 0 0 0 0 0 0 0 0 0 0 0 0 0 127 0" result="hardAlpha"/>
<feOffset dy="2"/>
<feGaussianBlur stdDeviation="2"/>
<feComposite in2="hardAlpha" operator="out"/>
<feColorMatrix type="matrix" values="0 0 0 0 0 0 0 0 0 0 0 0 0 0 0 0 0 0 0.3 0"/>
<feBlend mode="normal" in2="BackgroundImageFix" result="effect1_dropShadow_3311_20244"/>
<feBlend mode="normal" in="SourceGraphic" in2="effect1_dropShadow_3311_20244" result="shape"/>
</filter>
<filter id="filter3_d_3311_20244" x="167.875" y="229.58" width="124.301" height="19.1309" filterUnits="userSpaceOnUse" color-interpolation-filters="sRGB">
<feFlood flood-opacity="0" result="BackgroundImageFix"/>
<feColorMatrix in="SourceAlpha" type="matrix" values="0 0 0 0 0 0 0 0 0 0 0 0 0 0 0 0 0 0 127 0" result="hardAlpha"/>
<feOffset dy="2"/>
<feGaussianBlur stdDeviation="2"/>
<feComposite in2="hardAlpha" operator="out"/>
<feColorMatrix type="matrix" values="0 0 0 0 0 0 0 0 0 0 0 0 0 0 0 0 0 0 0.3 0"/>
<feBlend mode="normal" in2="BackgroundImageFix" result="effect1_dropShadow_3311_20244"/>
<feBlend mode="normal" in="SourceGraphic" in2="effect1_dropShadow_3311_20244" result="shape"/>
</filter>
<linearGradient id="paint0_linear_3311_20244" x1="230" y1="20" x2="230" y2="66" gradientUnits="userSpaceOnUse">
<stop stop-color="white"/>
<stop offset="1" stop-color="#CFCFCF"/>
</linearGradient>
<linearGradient id="paint1_linear_3311_20244" x1="230" y1="86" x2="230" y2="150" gradientUnits="userSpaceOnUse">
<stop stop-color="#6DAEFB"/>
<stop offset="1" stop-color="#4C7EDF"/>
</linearGradient>
<linearGradient id="paint2_linear_3311_20244" x1="10" y1="270" x2="10" y2="170" gradientUnits="userSpaceOnUse">
<stop stop-color="#F36742"/>
<stop offset="1" stop-color="#FC8A3E"/>
</linearGradient>
</defs>
</svg>
