<svg width="460" height="290" viewBox="0 0 460 290" fill="none" xmlns="http://www.w3.org/2000/svg">
<rect width="460" height="290" rx="10" fill="#F4F7FD"/>
<path d="M10 43C10 41.8954 10.8954 41 12 41H207V45H12C10.8954 45 10 44.1046 10 43Z" fill="#60A3F2"/>
<rect opacity="0.4" x="201" y="14" width="58" height="58" rx="14" fill="#484848"/>
<g filter="url(#filter0_d_3311_20677)">
<rect x="207" y="20" width="46" height="46" rx="10" fill="#FFFAFA"/>
<rect x="209" y="22" width="42" height="42" rx="8" stroke="url(#paint0_linear_3311_20677)" stroke-width="4"/>
</g>
<path d="M229.021 46.2C229.021 47.0667 228.934 47.7867 228.761 48.36C228.587 48.9333 228.254 49.4667 227.761 49.96C226.987 50.7333 225.941 51.12 224.621 51.12C223.261 51.12 222.201 50.74 221.441 49.98C220.761 49.3 220.374 48.3133 220.281 47.02H222.881C223.027 48.1933 223.607 48.78 224.621 48.78C225.141 48.78 225.554 48.6267 225.861 48.32C226.234 47.9467 226.421 47.24 226.421 46.2C226.421 44.4933 225.841 43.64 224.681 43.64C223.787 43.64 223.214 44.0267 222.961 44.8H220.581V36.76H228.701V39.1H222.941V42.16C223.447 41.68 224.161 41.44 225.081 41.44C226.214 41.44 227.101 41.76 227.741 42.4C228.594 43.2533 229.021 44.52 229.021 46.2ZM239.76 46.88C239.76 48.1867 239.34 49.22 238.5 49.98C237.673 50.74 236.653 51.12 235.44 51.12C234.227 51.12 233.2 50.74 232.36 49.98C231.52 49.22 231.1 48.1867 231.1 46.88V40.88C231.1 39.5733 231.52 38.54 232.36 37.78C233.2 37.02 234.227 36.64 235.44 36.64C236.653 36.64 237.673 37.02 238.5 37.78C239.34 38.54 239.76 39.5733 239.76 40.88V46.88ZM237.16 46.86V40.92C237.16 40.32 237 39.8467 236.68 39.5C236.373 39.1533 235.96 38.98 235.44 38.98C234.92 38.98 234.5 39.1533 234.18 39.5C233.86 39.8467 233.7 40.32 233.7 40.92V46.86C233.7 47.46 233.86 47.9333 234.18 48.28C234.5 48.6133 234.92 48.78 235.44 48.78C235.96 48.78 236.373 48.6133 236.68 48.28C237 47.9333 237.16 47.46 237.16 46.86Z" fill="#484848"/>
<path d="M253 41H448C449.105 41 450 41.8954 450 43C450 44.1046 449.105 45 448 45H253V41Z" fill="#F96B8A"/>
<rect x="10" y="86" width="440" height="64" rx="6" fill="url(#paint1_linear_3311_20677)"/>
<g filter="url(#filter1_d_3311_20677)">
<path d="M153.832 109.864H161.416C163.176 109.864 164.552 110.256 165.544 111.04C166.6 111.904 167.128 113.144 167.128 114.76C167.128 115.656 166.888 116.456 166.408 117.16C165.864 117.928 165.12 118.432 164.176 118.672V118.72C165.696 119.056 166.552 120.064 166.744 121.744L167.032 124.48C167.128 125.536 167.464 126.376 168.04 127H165.208C164.808 126.488 164.56 125.736 164.464 124.744L164.248 122.608C164.152 121.68 163.848 120.992 163.336 120.544C162.824 120.128 162.072 119.92 161.08 119.92H156.448V127H153.832V109.864ZM156.448 112.096V117.688H161.08C162.216 117.688 163.08 117.44 163.672 116.944C164.232 116.464 164.512 115.768 164.512 114.856C164.512 113.912 164.24 113.216 163.696 112.768C163.136 112.32 162.256 112.096 161.056 112.096H156.448ZM178.034 109.528C180.642 109.528 182.698 110.376 184.202 112.072C185.642 113.672 186.362 115.8 186.362 118.456C186.362 121.064 185.642 123.184 184.202 124.816C182.698 126.496 180.642 127.336 178.034 127.336C175.426 127.336 173.37 126.488 171.866 124.792C170.442 123.176 169.73 121.064 169.73 118.456C169.73 115.832 170.442 113.712 171.866 112.096C173.338 110.384 175.394 109.528 178.034 109.528ZM178.034 111.832C176.194 111.832 174.778 112.448 173.786 113.68C172.826 114.848 172.346 116.44 172.346 118.456C172.346 120.44 172.826 122.024 173.786 123.208C174.81 124.424 176.226 125.032 178.034 125.032C179.858 125.032 181.266 124.44 182.258 123.256C183.234 122.088 183.722 120.488 183.722 118.456C183.722 116.424 183.234 114.808 182.258 113.608C181.282 112.424 179.874 111.832 178.034 111.832ZM189.012 109.864H191.604V124.768H201.036V127H189.012V109.864ZM203.192 109.864H205.784V124.768H215.216V127H203.192V109.864ZM225.364 109.864H227.98V120.52C227.98 122.072 228.332 123.208 229.036 123.928C229.756 124.68 230.892 125.056 232.444 125.056C233.98 125.056 235.108 124.68 235.828 123.928C236.532 123.176 236.884 122.04 236.884 120.52V109.864H239.5V120.472C239.5 122.696 238.884 124.4 237.652 125.584C236.404 126.752 234.668 127.336 232.444 127.336C230.172 127.336 228.436 126.76 227.236 125.608C225.988 124.408 225.364 122.696 225.364 120.472V109.864ZM242.848 109.864H245.488L254.248 122.608H254.344V109.864H256.96V127H254.416L245.56 114.112H245.464V127H242.848V109.864ZM260.332 109.864H266.572C269.324 109.864 271.42 110.64 272.86 112.192C274.204 113.632 274.876 115.712 274.876 118.432C274.876 121.104 274.188 123.192 272.812 124.696C271.372 126.232 269.276 127 266.524 127H260.332V109.864ZM262.948 112.096V124.768H266.044C268.22 124.768 269.812 124.248 270.82 123.208C271.812 122.168 272.308 120.576 272.308 118.432C272.308 116.256 271.82 114.656 270.844 113.632C269.836 112.608 268.252 112.096 266.092 112.096H262.948ZM277.535 109.864H289.847V112.096H280.151V117.088H289.271V119.32H280.151V124.768H290.255V127H277.535V109.864ZM292.91 109.864H300.494C302.254 109.864 303.63 110.256 304.622 111.04C305.678 111.904 306.206 113.144 306.206 114.76C306.206 115.656 305.966 116.456 305.486 117.16C304.942 117.928 304.198 118.432 303.254 118.672V118.72C304.774 119.056 305.63 120.064 305.822 121.744L306.11 124.48C306.206 125.536 306.542 126.376 307.118 127H304.286C303.886 126.488 303.638 125.736 303.542 124.744L303.326 122.608C303.23 121.68 302.926 120.992 302.414 120.544C301.902 120.128 301.15 119.92 300.158 119.92H295.526V127H292.91V109.864ZM295.526 112.096V117.688H300.158C301.294 117.688 302.158 117.44 302.75 116.944C303.31 116.464 303.59 115.768 303.59 114.856C303.59 113.912 303.318 113.216 302.774 112.768C302.214 112.32 301.334 112.096 300.134 112.096H295.526Z" fill="white"/>
</g>
<path d="M10 176C10 172.686 12.6863 170 16 170H444C447.314 170 450 172.686 450 176V264C450 267.314 447.314 270 444 270H16C12.6863 270 10 267.314 10 264V176Z" fill="url(#paint2_linear_3311_20677)"/>
<g filter="url(#filter2_d_3311_20677)">
<path d="M208.36 201.364H216.184C217.864 201.364 219.176 201.764 220.12 202.564C221.032 203.332 221.488 204.372 221.488 205.684C221.488 206.644 221.248 207.46 220.768 208.132C220.272 208.772 219.608 209.244 218.776 209.548C219.912 209.772 220.768 210.228 221.344 210.916C221.92 211.604 222.208 212.532 222.208 213.7C222.208 215.412 221.616 216.676 220.432 217.492C219.424 218.164 218.008 218.5 216.184 218.5H208.36V201.364ZM210.976 203.524V208.636H215.488C216.672 208.636 217.536 208.428 218.08 208.012C218.608 207.58 218.872 206.908 218.872 205.996C218.872 205.132 218.608 204.508 218.08 204.124C217.568 203.724 216.72 203.524 215.536 203.524H210.976ZM210.976 210.772V216.34H215.824C216.896 216.34 217.76 216.164 218.416 215.812C219.2 215.348 219.592 214.628 219.592 213.652C219.592 212.644 219.288 211.908 218.68 211.444C218.088 210.996 217.16 210.772 215.896 210.772H210.976ZM224.836 201.364H237.148V203.596H227.452V208.588H236.572V210.82H227.452V216.268H237.556V218.5H224.836V201.364ZM238.891 201.364H252.931V203.596H247.219V218.5H244.627V203.596H238.891V201.364Z" fill="white"/>
</g>
<g filter="url(#filter3_d_3311_20677)">
<path d="M175.626 231.79V242.5H174.396V233.29C173.736 233.97 172.896 234.46 171.876 234.76V233.53C172.396 233.39 172.896 233.175 173.376 232.885C173.876 232.565 174.306 232.2 174.666 231.79H175.626ZM179.276 240.355C179.606 240.355 179.871 240.455 180.071 240.655C180.281 240.845 180.386 241.1 180.386 241.42C180.386 241.72 180.276 241.98 180.056 242.2C179.836 242.4 179.576 242.5 179.276 242.5C178.966 242.5 178.706 242.395 178.496 242.185C178.286 241.975 178.181 241.72 178.181 241.42C178.181 241.1 178.286 240.845 178.496 240.655C178.696 240.455 178.956 240.355 179.276 240.355ZM185.823 231.58C187.083 231.58 188.058 232.11 188.748 233.17C189.378 234.16 189.693 235.485 189.693 237.145C189.693 238.805 189.378 240.13 188.748 241.12C188.048 242.18 187.073 242.71 185.823 242.71C184.573 242.71 183.598 242.18 182.898 241.12C182.268 240.13 181.953 238.805 181.953 237.145C181.953 235.465 182.268 234.14 182.898 233.17C183.588 232.11 184.563 231.58 185.823 231.58ZM185.823 232.96C184.943 232.96 184.323 233.445 183.963 234.415C183.703 235.055 183.573 235.965 183.573 237.145C183.573 238.315 183.703 239.225 183.963 239.875C184.323 240.845 184.943 241.33 185.823 241.33C186.703 241.33 187.323 240.845 187.683 239.875C187.943 239.185 188.073 238.275 188.073 237.145C188.073 235.995 187.943 235.085 187.683 234.415C187.323 233.445 186.703 232.96 185.823 232.96ZM194.817 231.58C196.077 231.58 197.052 232.11 197.742 233.17C198.372 234.16 198.687 235.485 198.687 237.145C198.687 238.805 198.372 240.13 197.742 241.12C197.042 242.18 196.067 242.71 194.817 242.71C193.567 242.71 192.592 242.18 191.892 241.12C191.262 240.13 190.947 238.805 190.947 237.145C190.947 235.465 191.262 234.14 191.892 233.17C192.582 232.11 193.557 231.58 194.817 231.58ZM194.817 232.96C193.937 232.96 193.317 233.445 192.957 234.415C192.697 235.055 192.567 235.965 192.567 237.145C192.567 238.315 192.697 239.225 192.957 239.875C193.317 240.845 193.937 241.33 194.817 241.33C195.697 241.33 196.317 240.845 196.677 239.875C196.937 239.185 197.067 238.275 197.067 237.145C197.067 235.995 196.937 235.085 196.677 234.415C196.317 233.445 195.697 232.96 194.817 232.96ZM203.812 231.58C205.072 231.58 206.047 232.11 206.737 233.17C207.367 234.16 207.682 235.485 207.682 237.145C207.682 238.805 207.367 240.13 206.737 241.12C206.037 242.18 205.062 242.71 203.812 242.71C202.562 242.71 201.587 242.18 200.887 241.12C200.257 240.13 199.942 238.805 199.942 237.145C199.942 235.465 200.257 234.14 200.887 233.17C201.577 232.11 202.552 231.58 203.812 231.58ZM203.812 232.96C202.932 232.96 202.312 233.445 201.952 234.415C201.692 235.055 201.562 235.965 201.562 237.145C201.562 238.315 201.692 239.225 201.952 239.875C202.312 240.845 202.932 241.33 203.812 241.33C204.692 241.33 205.312 240.845 205.672 239.875C205.932 239.185 206.062 238.275 206.062 237.145C206.062 235.995 205.932 235.085 205.672 234.415C205.312 233.445 204.692 232.96 203.812 232.96ZM212.806 231.58C214.066 231.58 215.041 232.11 215.731 233.17C216.361 234.16 216.676 235.485 216.676 237.145C216.676 238.805 216.361 240.13 215.731 241.12C215.031 242.18 214.056 242.71 212.806 242.71C211.556 242.71 210.581 242.18 209.881 241.12C209.251 240.13 208.936 238.805 208.936 237.145C208.936 235.465 209.251 234.14 209.881 233.17C210.571 232.11 211.546 231.58 212.806 231.58ZM212.806 232.96C211.926 232.96 211.306 233.445 210.946 234.415C210.686 235.055 210.556 235.965 210.556 237.145C210.556 238.315 210.686 239.225 210.946 239.875C211.306 240.845 211.926 241.33 212.806 241.33C213.686 241.33 214.306 240.845 214.666 239.875C214.926 239.185 215.056 238.275 215.056 237.145C215.056 235.995 214.926 235.085 214.666 234.415C214.306 233.445 213.686 232.96 212.806 232.96ZM221.8 231.58C223.06 231.58 224.035 232.11 224.725 233.17C225.355 234.16 225.67 235.485 225.67 237.145C225.67 238.805 225.355 240.13 224.725 241.12C224.025 242.18 223.05 242.71 221.8 242.71C220.55 242.71 219.575 242.18 218.875 241.12C218.245 240.13 217.93 238.805 217.93 237.145C217.93 235.465 218.245 234.14 218.875 233.17C219.565 232.11 220.54 231.58 221.8 231.58ZM221.8 232.96C220.92 232.96 220.3 233.445 219.94 234.415C219.68 235.055 219.55 235.965 219.55 237.145C219.55 238.315 219.68 239.225 219.94 239.875C220.3 240.845 220.92 241.33 221.8 241.33C222.68 241.33 223.3 240.845 223.66 239.875C223.92 239.185 224.05 238.275 224.05 237.145C224.05 235.995 223.92 235.085 223.66 234.415C223.3 233.445 222.68 232.96 221.8 232.96ZM230.794 231.58C232.054 231.58 233.029 232.11 233.719 233.17C234.349 234.16 234.664 235.485 234.664 237.145C234.664 238.805 234.349 240.13 233.719 241.12C233.019 242.18 232.044 242.71 230.794 242.71C229.544 242.71 228.569 242.18 227.869 241.12C227.239 240.13 226.924 238.805 226.924 237.145C226.924 235.465 227.239 234.14 227.869 233.17C228.559 232.11 229.534 231.58 230.794 231.58ZM230.794 232.96C229.914 232.96 229.294 233.445 228.934 234.415C228.674 235.055 228.544 235.965 228.544 237.145C228.544 238.315 228.674 239.225 228.934 239.875C229.294 240.845 229.914 241.33 230.794 241.33C231.674 241.33 232.294 240.845 232.654 239.875C232.914 239.185 233.044 238.275 233.044 237.145C233.044 235.995 232.914 235.085 232.654 234.415C232.294 233.445 231.674 232.96 230.794 232.96ZM239.788 231.58C241.048 231.58 242.023 232.11 242.713 233.17C243.343 234.16 243.658 235.485 243.658 237.145C243.658 238.805 243.343 240.13 242.713 241.12C242.013 242.18 241.038 242.71 239.788 242.71C238.538 242.71 237.563 242.18 236.863 241.12C236.233 240.13 235.918 238.805 235.918 237.145C235.918 235.465 236.233 234.14 236.863 233.17C237.553 232.11 238.528 231.58 239.788 231.58ZM239.788 232.96C238.908 232.96 238.288 233.445 237.928 234.415C237.668 235.055 237.538 235.965 237.538 237.145C237.538 238.315 237.668 239.225 237.928 239.875C238.288 240.845 238.908 241.33 239.788 241.33C240.668 241.33 241.288 240.845 241.648 239.875C241.908 239.185 242.038 238.275 242.038 237.145C242.038 235.995 241.908 235.085 241.648 234.415C241.288 233.445 240.668 232.96 239.788 232.96ZM248.782 231.58C250.042 231.58 251.017 232.11 251.707 233.17C252.337 234.16 252.652 235.485 252.652 237.145C252.652 238.805 252.337 240.13 251.707 241.12C251.007 242.18 250.032 242.71 248.782 242.71C247.532 242.71 246.557 242.18 245.857 241.12C245.227 240.13 244.912 238.805 244.912 237.145C244.912 235.465 245.227 234.14 245.857 233.17C246.547 232.11 247.522 231.58 248.782 231.58ZM248.782 232.96C247.902 232.96 247.282 233.445 246.922 234.415C246.662 235.055 246.532 235.965 246.532 237.145C246.532 238.315 246.662 239.225 246.922 239.875C247.282 240.845 247.902 241.33 248.782 241.33C249.662 241.33 250.282 240.845 250.642 239.875C250.902 239.185 251.032 238.275 251.032 237.145C251.032 235.995 250.902 235.085 250.642 234.415C250.282 233.445 249.662 232.96 248.782 232.96ZM259.321 231.79H264.211C265.261 231.79 266.081 232.04 266.671 232.54C267.241 233.02 267.526 233.67 267.526 234.49C267.526 235.09 267.376 235.6 267.076 236.02C266.766 236.42 266.351 236.715 265.831 236.905C266.541 237.045 267.076 237.33 267.436 237.76C267.796 238.19 267.976 238.77 267.976 239.5C267.976 240.57 267.606 241.36 266.866 241.87C266.236 242.29 265.351 242.5 264.211 242.5H259.321V231.79ZM260.956 233.14V236.335H263.776C264.516 236.335 265.056 236.205 265.396 235.945C265.726 235.675 265.891 235.255 265.891 234.685C265.891 234.145 265.726 233.755 265.396 233.515C265.076 233.265 264.546 233.14 263.806 233.14H260.956ZM260.956 237.67V241.15H263.986C264.656 241.15 265.196 241.04 265.606 240.82C266.096 240.53 266.341 240.08 266.341 239.47C266.341 238.84 266.151 238.38 265.771 238.09C265.401 237.81 264.821 237.67 264.031 237.67H260.956ZM268.794 231.79H277.569V233.185H273.999V242.5H272.379V233.185H268.794V231.79ZM283.513 231.58C284.773 231.58 285.803 231.905 286.603 232.555C287.383 233.185 287.858 234.045 288.028 235.135H286.438C286.258 234.405 285.913 233.87 285.403 233.53C284.903 233.19 284.263 233.02 283.483 233.02C282.323 233.02 281.453 233.415 280.873 234.205C280.323 234.915 280.048 235.9 280.048 237.16C280.048 238.44 280.318 239.435 280.858 240.145C281.428 240.895 282.313 241.27 283.513 241.27C284.303 241.27 284.953 241.075 285.463 240.685C286.003 240.265 286.378 239.635 286.588 238.795H288.178C287.938 240.045 287.378 241.02 286.498 241.72C285.678 242.38 284.688 242.71 283.528 242.71C281.778 242.71 280.458 242.15 279.568 241.03C278.798 240.08 278.413 238.79 278.413 237.16C278.413 235.56 278.813 234.265 279.613 233.275C280.503 232.145 281.803 231.58 283.513 231.58Z" fill="white"/>
</g>
<defs>
<filter id="filter0_d_3311_20677" x="203" y="18" width="54" height="54" filterUnits="userSpaceOnUse" color-interpolation-filters="sRGB">
<feFlood flood-opacity="0" result="BackgroundImageFix"/>
<feColorMatrix in="SourceAlpha" type="matrix" values="0 0 0 0 0 0 0 0 0 0 0 0 0 0 0 0 0 0 127 0" result="hardAlpha"/>
<feOffset dy="2"/>
<feGaussianBlur stdDeviation="2"/>
<feComposite in2="hardAlpha" operator="out"/>
<feColorMatrix type="matrix" values="0 0 0 0 0 0 0 0 0 0 0 0 0 0 0 0 0 0 0.3 0"/>
<feBlend mode="normal" in2="BackgroundImageFix" result="effect1_dropShadow_3311_20677"/>
<feBlend mode="normal" in="SourceGraphic" in2="effect1_dropShadow_3311_20677" result="shape"/>
</filter>
<filter id="filter1_d_3311_20677" x="149.832" y="107.527" width="161.285" height="25.8086" filterUnits="userSpaceOnUse" color-interpolation-filters="sRGB">
<feFlood flood-opacity="0" result="BackgroundImageFix"/>
<feColorMatrix in="SourceAlpha" type="matrix" values="0 0 0 0 0 0 0 0 0 0 0 0 0 0 0 0 0 0 127 0" result="hardAlpha"/>
<feOffset dy="2"/>
<feGaussianBlur stdDeviation="2"/>
<feComposite in2="hardAlpha" operator="out"/>
<feColorMatrix type="matrix" values="0 0 0 0 0 0 0 0 0 0 0 0 0 0 0 0 0 0 0.3 0"/>
<feBlend mode="normal" in2="BackgroundImageFix" result="effect1_dropShadow_3311_20677"/>
<feBlend mode="normal" in="SourceGraphic" in2="effect1_dropShadow_3311_20677" result="shape"/>
</filter>
<filter id="filter2_d_3311_20677" x="204.359" y="199.363" width="52.5703" height="25.1367" filterUnits="userSpaceOnUse" color-interpolation-filters="sRGB">
<feFlood flood-opacity="0" result="BackgroundImageFix"/>
<feColorMatrix in="SourceAlpha" type="matrix" values="0 0 0 0 0 0 0 0 0 0 0 0 0 0 0 0 0 0 127 0" result="hardAlpha"/>
<feOffset dy="2"/>
<feGaussianBlur stdDeviation="2"/>
<feComposite in2="hardAlpha" operator="out"/>
<feColorMatrix type="matrix" values="0 0 0 0 0 0 0 0 0 0 0 0 0 0 0 0 0 0 0.3 0"/>
<feBlend mode="normal" in2="BackgroundImageFix" result="effect1_dropShadow_3311_20677"/>
<feBlend mode="normal" in="SourceGraphic" in2="effect1_dropShadow_3311_20677" result="shape"/>
</filter>
<filter id="filter3_d_3311_20677" x="167.875" y="229.58" width="124.301" height="19.1309" filterUnits="userSpaceOnUse" color-interpolation-filters="sRGB">
<feFlood flood-opacity="0" result="BackgroundImageFix"/>
<feColorMatrix in="SourceAlpha" type="matrix" values="0 0 0 0 0 0 0 0 0 0 0 0 0 0 0 0 0 0 127 0" result="hardAlpha"/>
<feOffset dy="2"/>
<feGaussianBlur stdDeviation="2"/>
<feComposite in2="hardAlpha" operator="out"/>
<feColorMatrix type="matrix" values="0 0 0 0 0 0 0 0 0 0 0 0 0 0 0 0 0 0 0.3 0"/>
<feBlend mode="normal" in2="BackgroundImageFix" result="effect1_dropShadow_3311_20677"/>
<feBlend mode="normal" in="SourceGraphic" in2="effect1_dropShadow_3311_20677" result="shape"/>
</filter>
<linearGradient id="paint0_linear_3311_20677" x1="230" y1="20" x2="230" y2="66" gradientUnits="userSpaceOnUse">
<stop stop-color="white"/>
<stop offset="1" stop-color="#CFCFCF"/>
</linearGradient>
<linearGradient id="paint1_linear_3311_20677" x1="230" y1="86" x2="230" y2="150" gradientUnits="userSpaceOnUse">
<stop stop-color="#6DAEFB"/>
<stop offset="1" stop-color="#4C7EDF"/>
</linearGradient>
<linearGradient id="paint2_linear_3311_20677" x1="10" y1="270" x2="10" y2="170" gradientUnits="userSpaceOnUse">
<stop stop-color="#F36742"/>
<stop offset="1" stop-color="#FC8A3E"/>
</linearGradient>
</defs>
</svg>
