<svg width="460" height="290" viewBox="0 0 460 290" fill="none" xmlns="http://www.w3.org/2000/svg">
<rect width="460" height="290" rx="10" fill="#F4F7FD"/>
<path d="M10 43C10 41.8954 10.8954 41 12 41H207V45H12C10.8954 45 10 44.1046 10 43Z" fill="#60A3F2"/>
<rect opacity="0.4" x="201" y="14" width="58" height="58" rx="14" fill="#484848"/>
<g filter="url(#filter0_d_3311_21113)">
<rect x="207" y="20" width="46" height="46" rx="10" fill="#FFFAFA"/>
<rect x="209" y="22" width="42" height="42" rx="8" stroke="url(#paint0_linear_3311_21113)" stroke-width="4"/>
</g>
<path d="M229.021 46.2C229.021 47.0667 228.934 47.7867 228.761 48.36C228.587 48.9333 228.254 49.4667 227.761 49.96C226.987 50.7333 225.941 51.12 224.621 51.12C223.261 51.12 222.201 50.74 221.441 49.98C220.761 49.3 220.374 48.3133 220.281 47.02H222.881C223.027 48.1933 223.607 48.78 224.621 48.78C225.141 48.78 225.554 48.6267 225.861 48.32C226.234 47.9467 226.421 47.24 226.421 46.2C226.421 44.4933 225.841 43.64 224.681 43.64C223.787 43.64 223.214 44.0267 222.961 44.8H220.581V36.76H228.701V39.1H222.941V42.16C223.447 41.68 224.161 41.44 225.081 41.44C226.214 41.44 227.101 41.76 227.741 42.4C228.594 43.2533 229.021 44.52 229.021 46.2ZM239.76 46.88C239.76 48.1867 239.34 49.22 238.5 49.98C237.673 50.74 236.653 51.12 235.44 51.12C234.227 51.12 233.2 50.74 232.36 49.98C231.52 49.22 231.1 48.1867 231.1 46.88V40.88C231.1 39.5733 231.52 38.54 232.36 37.78C233.2 37.02 234.227 36.64 235.44 36.64C236.653 36.64 237.673 37.02 238.5 37.78C239.34 38.54 239.76 39.5733 239.76 40.88V46.88ZM237.16 46.86V40.92C237.16 40.32 237 39.8467 236.68 39.5C236.373 39.1533 235.96 38.98 235.44 38.98C234.92 38.98 234.5 39.1533 234.18 39.5C233.86 39.8467 233.7 40.32 233.7 40.92V46.86C233.7 47.46 233.86 47.9333 234.18 48.28C234.5 48.6133 234.92 48.78 235.44 48.78C235.96 48.78 236.373 48.6133 236.68 48.28C237 47.9333 237.16 47.46 237.16 46.86Z" fill="#484848"/>
<path d="M253 41H448C449.105 41 450 41.8954 450 43C450 44.1046 449.105 45 448 45H253V41Z" fill="#F96B8A"/>
<rect x="10" y="86" width="440" height="64" rx="6" fill="url(#paint1_linear_3311_21113)"/>
<g filter="url(#filter1_d_3311_21113)">
<path d="M217.447 127.24C217.015 127.24 216.599 127.168 216.199 127.024C215.799 126.88 215.471 126.624 215.215 126.256C214.959 125.888 214.831 125.376 214.831 124.72V113.848H216.967V124.456C216.967 124.824 217.047 125.088 217.207 125.248C217.367 125.408 217.623 125.488 217.975 125.488C218.119 125.488 218.271 125.472 218.431 125.44C218.591 125.408 218.743 125.368 218.887 125.32L219.175 126.88C218.871 127.024 218.575 127.12 218.287 127.168C217.999 127.216 217.719 127.24 217.447 127.24ZM229.019 127V118.24C229.019 117.2 228.779 116.464 228.299 116.032C227.835 115.584 227.051 115.36 225.947 115.36C225.147 115.36 224.379 115.472 223.643 115.696C222.923 115.904 222.235 116.2 221.579 116.584V114.592C222.043 114.352 222.667 114.128 223.451 113.92C224.251 113.712 225.147 113.608 226.139 113.608C226.987 113.608 227.723 113.704 228.347 113.896C228.971 114.072 229.483 114.344 229.883 114.712C230.299 115.08 230.611 115.552 230.819 116.128C231.027 116.688 231.131 117.352 231.131 118.12V127H229.019ZM224.891 127.24C223.483 127.24 222.403 126.92 221.651 126.28C220.915 125.624 220.547 124.688 220.547 123.472C220.547 122.144 221.027 121.12 221.987 120.4C222.963 119.68 224.539 119.256 226.715 119.128L229.451 118.96V120.736L227.003 120.904C225.371 121.016 224.243 121.272 223.619 121.672C223.011 122.072 222.707 122.656 222.707 123.424C222.707 124.144 222.931 124.672 223.379 125.008C223.843 125.344 224.483 125.512 225.299 125.512C225.571 125.512 225.819 125.496 226.043 125.464C226.267 125.416 226.483 125.36 226.691 125.296L227.027 126.904C226.723 127.016 226.387 127.096 226.019 127.144C225.667 127.208 225.291 127.24 224.891 127.24ZM228.286 112.12C227.838 112.12 227.454 112.032 227.134 111.856C226.814 111.664 226.566 111.384 226.39 111.016L225.19 112.048C224.294 112.048 223.574 111.824 223.03 111.376C222.47 110.912 222.19 110.248 222.19 109.384C222.19 108.776 222.318 108.272 222.574 107.872C222.83 107.472 223.166 107.176 223.582 106.984C223.998 106.792 224.446 106.696 224.926 106.696H230.518V108.136H225.238C224.87 108.136 224.558 108.248 224.302 108.472C224.03 108.68 223.894 109.016 223.894 109.48C223.894 109.816 223.982 110.096 224.158 110.32C224.334 110.528 224.63 110.632 225.046 110.632L226.39 109.432H226.846C226.91 109.784 227.046 110.088 227.254 110.344C227.446 110.584 227.718 110.704 228.07 110.704C228.374 110.704 228.606 110.616 228.766 110.44C228.91 110.264 228.982 110.032 228.982 109.744V109.432H230.542V109.768C230.542 110.552 230.342 111.144 229.942 111.544C229.526 111.928 228.974 112.12 228.286 112.12ZM234.906 127V122.44C234.906 121.432 235.13 120.704 235.578 120.256C236.026 119.792 236.594 119.472 237.282 119.296L237.306 119.224L234.666 118.216V117.424C234.666 116.768 234.882 116.152 235.314 115.576C235.746 114.984 236.362 114.512 237.162 114.16C237.978 113.792 238.946 113.608 240.066 113.608C241.042 113.608 241.946 113.768 242.778 114.088C243.61 114.392 244.274 114.88 244.77 115.552C245.282 116.208 245.538 117.072 245.538 118.144V127H243.402V118.36C243.402 117.288 243.074 116.528 242.418 116.08C241.778 115.616 240.986 115.384 240.042 115.384C239.066 115.384 238.29 115.592 237.714 116.008C237.138 116.408 236.85 116.92 236.85 117.544L239.442 118.84L239.25 119.992C238.658 119.992 238.138 120.192 237.69 120.592C237.258 120.976 237.042 121.592 237.042 122.44V127H234.906Z" fill="white"/>
</g>
<path d="M10 176C10 172.686 12.6863 170 16 170H444C447.314 170 450 172.686 450 176V264C450 267.314 447.314 270 444 270H16C12.6863 270 10 267.314 10 264V176Z" fill="url(#paint2_linear_3311_21113)"/>
<g filter="url(#filter2_d_3311_21113)">
<path d="M201.029 218.74C200.597 218.74 200.181 218.668 199.781 218.524C199.381 218.38 199.053 218.124 198.797 217.756C198.541 217.388 198.413 216.876 198.413 216.22V205.348H200.549V215.956C200.549 216.324 200.629 216.588 200.789 216.748C200.949 216.908 201.205 216.988 201.557 216.988C201.701 216.988 201.853 216.972 202.013 216.94C202.173 216.908 202.325 216.868 202.469 216.82L202.757 218.38C202.453 218.524 202.157 218.62 201.869 218.668C201.581 218.716 201.301 218.74 201.029 218.74ZM209.385 218.74C208.105 218.74 207.097 218.444 206.361 217.852C205.641 217.244 205.129 216.428 204.825 215.404C204.537 214.38 204.393 213.252 204.393 212.02C204.393 210.66 204.529 209.54 204.801 208.66C205.089 207.764 205.489 207.06 206.001 206.548C206.529 206.02 207.153 205.652 207.873 205.444C208.609 205.22 209.417 205.108 210.297 205.108C211.577 205.108 212.617 205.3 213.417 205.684C214.233 206.052 214.833 206.58 215.217 207.268C215.601 207.956 215.793 208.78 215.793 209.74V218.5H213.681V209.932C213.681 208.94 213.433 208.188 212.937 207.676C212.441 207.148 211.585 206.884 210.369 206.884C209.633 206.884 208.969 207.02 208.377 207.292C207.801 207.564 207.345 208.068 207.009 208.804C206.689 209.54 206.529 210.62 206.529 212.044C206.529 212.972 206.617 213.812 206.793 214.564C206.985 215.3 207.313 215.884 207.777 216.316C208.241 216.748 208.889 216.964 209.721 216.964C209.961 216.964 210.185 216.948 210.393 216.916C210.601 216.884 210.801 216.836 210.993 216.772L211.209 218.428C210.953 218.54 210.657 218.62 210.321 218.668C210.001 218.716 209.689 218.74 209.385 218.74ZM205.406 203.26V202.324L207.158 201.556H215.606V203.26H205.406ZM226.022 218.74C224.998 218.74 224.11 218.54 223.358 218.14C222.622 217.724 222.118 217.148 221.846 216.412H221.75L221.63 218.5H219.878V205.348H222.014V212.956C222.014 213.756 222.15 214.46 222.422 215.068C222.71 215.66 223.118 216.124 223.646 216.46C224.19 216.78 224.838 216.94 225.59 216.94C226.534 216.94 227.238 216.692 227.702 216.196C228.166 215.7 228.398 214.972 228.398 214.012V205.348H230.534V214.156C230.534 215.212 230.35 216.076 229.982 216.748C229.63 217.42 229.118 217.924 228.446 218.26C227.774 218.58 226.966 218.74 226.022 218.74ZM235.844 218.5L233.468 205.348H235.652L236.588 211.06C236.668 211.524 236.748 212.124 236.828 212.86C236.908 213.596 237.004 214.468 237.116 215.476H237.188C237.332 214.788 237.468 214.172 237.596 213.628C237.74 213.084 237.868 212.596 237.98 212.164C238.108 211.716 238.22 211.324 238.316 210.988L239.924 205.348H241.676L243.308 210.988C243.404 211.324 243.508 211.716 243.62 212.164C243.748 212.596 243.876 213.084 244.004 213.628C244.148 214.172 244.292 214.788 244.436 215.476H244.532C244.628 214.468 244.716 213.596 244.796 212.86C244.876 212.124 244.956 211.524 245.036 211.06L245.996 205.348H248.18L245.804 218.5H243.716L241.508 211.348C241.396 210.948 241.284 210.532 241.172 210.1C241.076 209.668 240.98 209.1 240.884 208.396H240.788C240.724 208.86 240.652 209.268 240.572 209.62C240.492 209.972 240.412 210.284 240.332 210.556C240.252 210.828 240.172 211.092 240.092 211.348L237.932 218.5H235.844ZM244.128 203.26C243.456 203.26 242.92 203.164 242.52 202.972C242.12 202.78 241.832 202.532 241.656 202.228C241.464 201.924 241.368 201.604 241.368 201.268C241.368 201.028 241.408 200.772 241.488 200.5C241.552 200.212 241.64 199.98 241.752 199.804L243.552 200.116C243.52 200.18 243.488 200.292 243.456 200.452C243.424 200.596 243.408 200.732 243.408 200.86C243.408 201.068 243.472 201.252 243.6 201.412C243.728 201.556 243.944 201.628 244.248 201.628H250.321V203.26H244.128ZM255.652 218.74C254.708 218.74 253.892 218.58 253.204 218.26C252.532 217.924 252.012 217.42 251.644 216.748C251.292 216.076 251.116 215.204 251.116 214.132V205.348H253.252V214.012C253.252 214.972 253.492 215.7 253.972 216.196C254.468 216.692 255.18 216.94 256.108 216.94C257.228 216.94 258.092 216.58 258.7 215.86C259.324 215.14 259.636 214.172 259.636 212.956V205.348H261.772V218.5H259.996L259.9 216.556H259.78C259.492 217.196 258.988 217.724 258.268 218.14C257.564 218.54 256.692 218.74 255.652 218.74Z" fill="white"/>
</g>
<g filter="url(#filter3_d_3311_21113)">
<path d="M175.626 231.79V242.5H174.396V233.29C173.736 233.97 172.896 234.46 171.876 234.76V233.53C172.396 233.39 172.896 233.175 173.376 232.885C173.876 232.565 174.306 232.2 174.666 231.79H175.626ZM179.276 240.355C179.606 240.355 179.871 240.455 180.071 240.655C180.281 240.845 180.386 241.1 180.386 241.42C180.386 241.72 180.276 241.98 180.056 242.2C179.836 242.4 179.576 242.5 179.276 242.5C178.966 242.5 178.706 242.395 178.496 242.185C178.286 241.975 178.181 241.72 178.181 241.42C178.181 241.1 178.286 240.845 178.496 240.655C178.696 240.455 178.956 240.355 179.276 240.355ZM185.823 231.58C187.083 231.58 188.058 232.11 188.748 233.17C189.378 234.16 189.693 235.485 189.693 237.145C189.693 238.805 189.378 240.13 188.748 241.12C188.048 242.18 187.073 242.71 185.823 242.71C184.573 242.71 183.598 242.18 182.898 241.12C182.268 240.13 181.953 238.805 181.953 237.145C181.953 235.465 182.268 234.14 182.898 233.17C183.588 232.11 184.563 231.58 185.823 231.58ZM185.823 232.96C184.943 232.96 184.323 233.445 183.963 234.415C183.703 235.055 183.573 235.965 183.573 237.145C183.573 238.315 183.703 239.225 183.963 239.875C184.323 240.845 184.943 241.33 185.823 241.33C186.703 241.33 187.323 240.845 187.683 239.875C187.943 239.185 188.073 238.275 188.073 237.145C188.073 235.995 187.943 235.085 187.683 234.415C187.323 233.445 186.703 232.96 185.823 232.96ZM194.817 231.58C196.077 231.58 197.052 232.11 197.742 233.17C198.372 234.16 198.687 235.485 198.687 237.145C198.687 238.805 198.372 240.13 197.742 241.12C197.042 242.18 196.067 242.71 194.817 242.71C193.567 242.71 192.592 242.18 191.892 241.12C191.262 240.13 190.947 238.805 190.947 237.145C190.947 235.465 191.262 234.14 191.892 233.17C192.582 232.11 193.557 231.58 194.817 231.58ZM194.817 232.96C193.937 232.96 193.317 233.445 192.957 234.415C192.697 235.055 192.567 235.965 192.567 237.145C192.567 238.315 192.697 239.225 192.957 239.875C193.317 240.845 193.937 241.33 194.817 241.33C195.697 241.33 196.317 240.845 196.677 239.875C196.937 239.185 197.067 238.275 197.067 237.145C197.067 235.995 196.937 235.085 196.677 234.415C196.317 233.445 195.697 232.96 194.817 232.96ZM203.812 231.58C205.072 231.58 206.047 232.11 206.737 233.17C207.367 234.16 207.682 235.485 207.682 237.145C207.682 238.805 207.367 240.13 206.737 241.12C206.037 242.18 205.062 242.71 203.812 242.71C202.562 242.71 201.587 242.18 200.887 241.12C200.257 240.13 199.942 238.805 199.942 237.145C199.942 235.465 200.257 234.14 200.887 233.17C201.577 232.11 202.552 231.58 203.812 231.58ZM203.812 232.96C202.932 232.96 202.312 233.445 201.952 234.415C201.692 235.055 201.562 235.965 201.562 237.145C201.562 238.315 201.692 239.225 201.952 239.875C202.312 240.845 202.932 241.33 203.812 241.33C204.692 241.33 205.312 240.845 205.672 239.875C205.932 239.185 206.062 238.275 206.062 237.145C206.062 235.995 205.932 235.085 205.672 234.415C205.312 233.445 204.692 232.96 203.812 232.96ZM212.806 231.58C214.066 231.58 215.041 232.11 215.731 233.17C216.361 234.16 216.676 235.485 216.676 237.145C216.676 238.805 216.361 240.13 215.731 241.12C215.031 242.18 214.056 242.71 212.806 242.71C211.556 242.71 210.581 242.18 209.881 241.12C209.251 240.13 208.936 238.805 208.936 237.145C208.936 235.465 209.251 234.14 209.881 233.17C210.571 232.11 211.546 231.58 212.806 231.58ZM212.806 232.96C211.926 232.96 211.306 233.445 210.946 234.415C210.686 235.055 210.556 235.965 210.556 237.145C210.556 238.315 210.686 239.225 210.946 239.875C211.306 240.845 211.926 241.33 212.806 241.33C213.686 241.33 214.306 240.845 214.666 239.875C214.926 239.185 215.056 238.275 215.056 237.145C215.056 235.995 214.926 235.085 214.666 234.415C214.306 233.445 213.686 232.96 212.806 232.96ZM221.8 231.58C223.06 231.58 224.035 232.11 224.725 233.17C225.355 234.16 225.67 235.485 225.67 237.145C225.67 238.805 225.355 240.13 224.725 241.12C224.025 242.18 223.05 242.71 221.8 242.71C220.55 242.71 219.575 242.18 218.875 241.12C218.245 240.13 217.93 238.805 217.93 237.145C217.93 235.465 218.245 234.14 218.875 233.17C219.565 232.11 220.54 231.58 221.8 231.58ZM221.8 232.96C220.92 232.96 220.3 233.445 219.94 234.415C219.68 235.055 219.55 235.965 219.55 237.145C219.55 238.315 219.68 239.225 219.94 239.875C220.3 240.845 220.92 241.33 221.8 241.33C222.68 241.33 223.3 240.845 223.66 239.875C223.92 239.185 224.05 238.275 224.05 237.145C224.05 235.995 223.92 235.085 223.66 234.415C223.3 233.445 222.68 232.96 221.8 232.96ZM230.794 231.58C232.054 231.58 233.029 232.11 233.719 233.17C234.349 234.16 234.664 235.485 234.664 237.145C234.664 238.805 234.349 240.13 233.719 241.12C233.019 242.18 232.044 242.71 230.794 242.71C229.544 242.71 228.569 242.18 227.869 241.12C227.239 240.13 226.924 238.805 226.924 237.145C226.924 235.465 227.239 234.14 227.869 233.17C228.559 232.11 229.534 231.58 230.794 231.58ZM230.794 232.96C229.914 232.96 229.294 233.445 228.934 234.415C228.674 235.055 228.544 235.965 228.544 237.145C228.544 238.315 228.674 239.225 228.934 239.875C229.294 240.845 229.914 241.33 230.794 241.33C231.674 241.33 232.294 240.845 232.654 239.875C232.914 239.185 233.044 238.275 233.044 237.145C233.044 235.995 232.914 235.085 232.654 234.415C232.294 233.445 231.674 232.96 230.794 232.96ZM239.788 231.58C241.048 231.58 242.023 232.11 242.713 233.17C243.343 234.16 243.658 235.485 243.658 237.145C243.658 238.805 243.343 240.13 242.713 241.12C242.013 242.18 241.038 242.71 239.788 242.71C238.538 242.71 237.563 242.18 236.863 241.12C236.233 240.13 235.918 238.805 235.918 237.145C235.918 235.465 236.233 234.14 236.863 233.17C237.553 232.11 238.528 231.58 239.788 231.58ZM239.788 232.96C238.908 232.96 238.288 233.445 237.928 234.415C237.668 235.055 237.538 235.965 237.538 237.145C237.538 238.315 237.668 239.225 237.928 239.875C238.288 240.845 238.908 241.33 239.788 241.33C240.668 241.33 241.288 240.845 241.648 239.875C241.908 239.185 242.038 238.275 242.038 237.145C242.038 235.995 241.908 235.085 241.648 234.415C241.288 233.445 240.668 232.96 239.788 232.96ZM248.782 231.58C250.042 231.58 251.017 232.11 251.707 233.17C252.337 234.16 252.652 235.485 252.652 237.145C252.652 238.805 252.337 240.13 251.707 241.12C251.007 242.18 250.032 242.71 248.782 242.71C247.532 242.71 246.557 242.18 245.857 241.12C245.227 240.13 244.912 238.805 244.912 237.145C244.912 235.465 245.227 234.14 245.857 233.17C246.547 232.11 247.522 231.58 248.782 231.58ZM248.782 232.96C247.902 232.96 247.282 233.445 246.922 234.415C246.662 235.055 246.532 235.965 246.532 237.145C246.532 238.315 246.662 239.225 246.922 239.875C247.282 240.845 247.902 241.33 248.782 241.33C249.662 241.33 250.282 240.845 250.642 239.875C250.902 239.185 251.032 238.275 251.032 237.145C251.032 235.995 250.902 235.085 250.642 234.415C250.282 233.445 249.662 232.96 248.782 232.96ZM259.321 231.79H264.211C265.261 231.79 266.081 232.04 266.671 232.54C267.241 233.02 267.526 233.67 267.526 234.49C267.526 235.09 267.376 235.6 267.076 236.02C266.766 236.42 266.351 236.715 265.831 236.905C266.541 237.045 267.076 237.33 267.436 237.76C267.796 238.19 267.976 238.77 267.976 239.5C267.976 240.57 267.606 241.36 266.866 241.87C266.236 242.29 265.351 242.5 264.211 242.5H259.321V231.79ZM260.956 233.14V236.335H263.776C264.516 236.335 265.056 236.205 265.396 235.945C265.726 235.675 265.891 235.255 265.891 234.685C265.891 234.145 265.726 233.755 265.396 233.515C265.076 233.265 264.546 233.14 263.806 233.14H260.956ZM260.956 237.67V241.15H263.986C264.656 241.15 265.196 241.04 265.606 240.82C266.096 240.53 266.341 240.08 266.341 239.47C266.341 238.84 266.151 238.38 265.771 238.09C265.401 237.81 264.821 237.67 264.031 237.67H260.956ZM268.794 231.79H277.569V233.185H273.999V242.5H272.379V233.185H268.794V231.79ZM283.513 231.58C284.773 231.58 285.803 231.905 286.603 232.555C287.383 233.185 287.858 234.045 288.028 235.135H286.438C286.258 234.405 285.913 233.87 285.403 233.53C284.903 233.19 284.263 233.02 283.483 233.02C282.323 233.02 281.453 233.415 280.873 234.205C280.323 234.915 280.048 235.9 280.048 237.16C280.048 238.44 280.318 239.435 280.858 240.145C281.428 240.895 282.313 241.27 283.513 241.27C284.303 241.27 284.953 241.075 285.463 240.685C286.003 240.265 286.378 239.635 286.588 238.795H288.178C287.938 240.045 287.378 241.02 286.498 241.72C285.678 242.38 284.688 242.71 283.528 242.71C281.778 242.71 280.458 242.15 279.568 241.03C278.798 240.08 278.413 238.79 278.413 237.16C278.413 235.56 278.813 234.265 279.613 233.275C280.503 232.145 281.803 231.58 283.513 231.58Z" fill="white"/>
</g>
<defs>
<filter id="filter0_d_3311_21113" x="203" y="18" width="54" height="54" filterUnits="userSpaceOnUse" color-interpolation-filters="sRGB">
<feFlood flood-opacity="0" result="BackgroundImageFix"/>
<feColorMatrix in="SourceAlpha" type="matrix" values="0 0 0 0 0 0 0 0 0 0 0 0 0 0 0 0 0 0 127 0" result="hardAlpha"/>
<feOffset dy="2"/>
<feGaussianBlur stdDeviation="2"/>
<feComposite in2="hardAlpha" operator="out"/>
<feColorMatrix type="matrix" values="0 0 0 0 0 0 0 0 0 0 0 0 0 0 0 0 0 0 0.3 0"/>
<feBlend mode="normal" in2="BackgroundImageFix" result="effect1_dropShadow_3311_21113"/>
<feBlend mode="normal" in="SourceGraphic" in2="effect1_dropShadow_3311_21113" result="shape"/>
</filter>
<filter id="filter1_d_3311_21113" x="210.832" y="104.695" width="38.707" height="28.5449" filterUnits="userSpaceOnUse" color-interpolation-filters="sRGB">
<feFlood flood-opacity="0" result="BackgroundImageFix"/>
<feColorMatrix in="SourceAlpha" type="matrix" values="0 0 0 0 0 0 0 0 0 0 0 0 0 0 0 0 0 0 127 0" result="hardAlpha"/>
<feOffset dy="2"/>
<feGaussianBlur stdDeviation="2"/>
<feComposite in2="hardAlpha" operator="out"/>
<feColorMatrix type="matrix" values="0 0 0 0 0 0 0 0 0 0 0 0 0 0 0 0 0 0 0.3 0"/>
<feBlend mode="normal" in2="BackgroundImageFix" result="effect1_dropShadow_3311_21113"/>
<feBlend mode="normal" in="SourceGraphic" in2="effect1_dropShadow_3311_21113" result="shape"/>
</filter>
<filter id="filter2_d_3311_21113" x="194.414" y="197.805" width="71.3594" height="26.9355" filterUnits="userSpaceOnUse" color-interpolation-filters="sRGB">
<feFlood flood-opacity="0" result="BackgroundImageFix"/>
<feColorMatrix in="SourceAlpha" type="matrix" values="0 0 0 0 0 0 0 0 0 0 0 0 0 0 0 0 0 0 127 0" result="hardAlpha"/>
<feOffset dy="2"/>
<feGaussianBlur stdDeviation="2"/>
<feComposite in2="hardAlpha" operator="out"/>
<feColorMatrix type="matrix" values="0 0 0 0 0 0 0 0 0 0 0 0 0 0 0 0 0 0 0.3 0"/>
<feBlend mode="normal" in2="BackgroundImageFix" result="effect1_dropShadow_3311_21113"/>
<feBlend mode="normal" in="SourceGraphic" in2="effect1_dropShadow_3311_21113" result="shape"/>
</filter>
<filter id="filter3_d_3311_21113" x="167.875" y="229.58" width="124.301" height="19.1309" filterUnits="userSpaceOnUse" color-interpolation-filters="sRGB">
<feFlood flood-opacity="0" result="BackgroundImageFix"/>
<feColorMatrix in="SourceAlpha" type="matrix" values="0 0 0 0 0 0 0 0 0 0 0 0 0 0 0 0 0 0 127 0" result="hardAlpha"/>
<feOffset dy="2"/>
<feGaussianBlur stdDeviation="2"/>
<feComposite in2="hardAlpha" operator="out"/>
<feColorMatrix type="matrix" values="0 0 0 0 0 0 0 0 0 0 0 0 0 0 0 0 0 0 0.3 0"/>
<feBlend mode="normal" in2="BackgroundImageFix" result="effect1_dropShadow_3311_21113"/>
<feBlend mode="normal" in="SourceGraphic" in2="effect1_dropShadow_3311_21113" result="shape"/>
</filter>
<linearGradient id="paint0_linear_3311_21113" x1="230" y1="20" x2="230" y2="66" gradientUnits="userSpaceOnUse">
<stop stop-color="white"/>
<stop offset="1" stop-color="#CFCFCF"/>
</linearGradient>
<linearGradient id="paint1_linear_3311_21113" x1="230" y1="86" x2="230" y2="150" gradientUnits="userSpaceOnUse">
<stop stop-color="#6DAEFB"/>
<stop offset="1" stop-color="#4C7EDF"/>
</linearGradient>
<linearGradient id="paint2_linear_3311_21113" x1="10" y1="270" x2="10" y2="170" gradientUnits="userSpaceOnUse">
<stop stop-color="#F36742"/>
<stop offset="1" stop-color="#FC8A3E"/>
</linearGradient>
</defs>
</svg>
