<svg width="460" height="290" viewBox="0 0 460 290" fill="none" xmlns="http://www.w3.org/2000/svg">
<rect width="460" height="290" rx="10" fill="#151A24"/>
<path d="M10 43C10 41.8954 10.8954 41 12 41H207V45H12C10.8954 45 10 44.1046 10 43Z" fill="#60A3F2"/>
<rect opacity="0.4" x="201" y="14" width="58" height="58" rx="14" fill="#484848"/>
<g filter="url(#filter0_d_3311_20895)">
<rect x="207" y="20" width="46" height="46" rx="10" fill="#FFFAFA"/>
<rect x="209" y="22" width="42" height="42" rx="8" stroke="url(#paint0_linear_3311_20895)" stroke-width="4"/>
</g>
<path d="M229.021 46.2C229.021 47.0667 228.934 47.7867 228.761 48.36C228.587 48.9333 228.254 49.4667 227.761 49.96C226.987 50.7333 225.941 51.12 224.621 51.12C223.261 51.12 222.201 50.74 221.441 49.98C220.761 49.3 220.374 48.3133 220.281 47.02H222.881C223.027 48.1933 223.607 48.78 224.621 48.78C225.141 48.78 225.554 48.6267 225.861 48.32C226.234 47.9467 226.421 47.24 226.421 46.2C226.421 44.4933 225.841 43.64 224.681 43.64C223.787 43.64 223.214 44.0267 222.961 44.8H220.581V36.76H228.701V39.1H222.941V42.16C223.447 41.68 224.161 41.44 225.081 41.44C226.214 41.44 227.101 41.76 227.741 42.4C228.594 43.2533 229.021 44.52 229.021 46.2ZM239.76 46.88C239.76 48.1867 239.34 49.22 238.5 49.98C237.673 50.74 236.653 51.12 235.44 51.12C234.227 51.12 233.2 50.74 232.36 49.98C231.52 49.22 231.1 48.1867 231.1 46.88V40.88C231.1 39.5733 231.52 38.54 232.36 37.78C233.2 37.02 234.227 36.64 235.44 36.64C236.653 36.64 237.673 37.02 238.5 37.78C239.34 38.54 239.76 39.5733 239.76 40.88V46.88ZM237.16 46.86V40.92C237.16 40.32 237 39.8467 236.68 39.5C236.373 39.1533 235.96 38.98 235.44 38.98C234.92 38.98 234.5 39.1533 234.18 39.5C233.86 39.8467 233.7 40.32 233.7 40.92V46.86C233.7 47.46 233.86 47.9333 234.18 48.28C234.5 48.6133 234.92 48.78 235.44 48.78C235.96 48.78 236.373 48.6133 236.68 48.28C237 47.9333 237.16 47.46 237.16 46.86Z" fill="#484848"/>
<path d="M253 41H448C449.105 41 450 41.8954 450 43C450 44.1046 449.105 45 448 45H253V41Z" fill="#F96B8A"/>
<rect x="10" y="86" width="440" height="64" rx="6" fill="url(#paint1_linear_3311_20895)"/>
<g filter="url(#filter1_d_3311_20895)">
<path d="M214.098 116.027V126H211.273V113.32H213.934L214.098 116.027ZM213.594 119.191L212.68 119.18C212.688 118.281 212.812 117.457 213.055 116.707C213.305 115.957 213.648 115.312 214.086 114.773C214.531 114.234 215.062 113.82 215.68 113.531C216.297 113.234 216.984 113.086 217.742 113.086C218.352 113.086 218.902 113.172 219.395 113.344C219.895 113.508 220.32 113.777 220.672 114.152C221.031 114.527 221.305 115.016 221.492 115.617C221.68 116.211 221.773 116.941 221.773 117.809V126H218.938V117.797C218.938 117.188 218.848 116.707 218.668 116.355C218.496 115.996 218.242 115.742 217.906 115.594C217.578 115.438 217.168 115.359 216.676 115.359C216.191 115.359 215.758 115.461 215.375 115.664C214.992 115.867 214.668 116.145 214.402 116.496C214.145 116.848 213.945 117.254 213.805 117.715C213.664 118.176 213.594 118.668 213.594 119.191ZM227.445 108V126H224.633V108H227.445ZM226.953 119.191L226.039 119.18C226.047 118.305 226.168 117.496 226.402 116.754C226.645 116.012 226.98 115.367 227.41 114.82C227.848 114.266 228.371 113.84 228.98 113.543C229.59 113.238 230.266 113.086 231.008 113.086C231.633 113.086 232.195 113.172 232.695 113.344C233.203 113.516 233.641 113.793 234.008 114.176C234.375 114.551 234.652 115.043 234.84 115.652C235.035 116.254 235.133 116.988 235.133 117.855V126H232.297V117.832C232.297 117.223 232.207 116.738 232.027 116.379C231.855 116.02 231.602 115.762 231.266 115.605C230.93 115.441 230.52 115.359 230.035 115.359C229.527 115.359 229.078 115.461 228.688 115.664C228.305 115.867 227.984 116.145 227.727 116.496C227.469 116.848 227.273 117.254 227.141 117.715C227.016 118.176 226.953 118.668 226.953 119.191ZM237.453 119.801V119.531C237.453 118.617 237.586 117.77 237.852 116.988C238.117 116.199 238.5 115.516 239 114.938C239.508 114.352 240.125 113.898 240.852 113.578C241.586 113.25 242.414 113.086 243.336 113.086C244.266 113.086 245.094 113.25 245.82 113.578C246.555 113.898 247.176 114.352 247.684 114.938C248.191 115.516 248.578 116.199 248.844 116.988C249.109 117.77 249.242 118.617 249.242 119.531V119.801C249.242 120.715 249.109 121.562 248.844 122.344C248.578 123.125 248.191 123.809 247.684 124.395C247.176 124.973 246.559 125.426 245.832 125.754C245.105 126.074 244.281 126.234 243.359 126.234C242.43 126.234 241.598 126.074 240.863 125.754C240.137 125.426 239.52 124.973 239.012 124.395C238.504 123.809 238.117 123.125 237.852 122.344C237.586 121.562 237.453 120.715 237.453 119.801ZM240.277 119.531V119.801C240.277 120.371 240.336 120.91 240.453 121.418C240.57 121.926 240.754 122.371 241.004 122.754C241.254 123.137 241.574 123.438 241.965 123.656C242.355 123.875 242.82 123.984 243.359 123.984C243.883 123.984 244.336 123.875 244.719 123.656C245.109 123.438 245.43 123.137 245.68 122.754C245.93 122.371 246.113 121.926 246.23 121.418C246.355 120.91 246.418 120.371 246.418 119.801V119.531C246.418 118.969 246.355 118.438 246.23 117.938C246.113 117.43 245.926 116.98 245.668 116.59C245.418 116.199 245.098 115.895 244.707 115.676C244.324 115.449 243.867 115.336 243.336 115.336C242.805 115.336 242.344 115.449 241.953 115.676C241.57 115.895 241.254 116.199 241.004 116.59C240.754 116.98 240.57 117.43 240.453 117.938C240.336 118.438 240.277 118.969 240.277 119.531ZM244.344 111.223H242.246L242.141 109.547C242.539 109.523 242.859 109.484 243.102 109.43C243.344 109.367 243.52 109.281 243.629 109.172C243.746 109.055 243.805 108.902 243.805 108.715C243.805 108.559 243.758 108.426 243.664 108.316C243.578 108.207 243.453 108.121 243.289 108.059C243.125 107.988 242.934 107.941 242.715 107.918C242.496 107.887 242.258 107.871 242 107.871L242.082 106.453C242.746 106.453 243.328 106.508 243.828 106.617C244.336 106.719 244.758 106.867 245.094 107.062C245.438 107.258 245.695 107.492 245.867 107.766C246.047 108.039 246.137 108.348 246.137 108.691C246.137 109.254 245.949 109.668 245.574 109.934C245.199 110.199 244.789 110.363 244.344 110.426V111.223Z" fill="white"/>
</g>
<path d="M10 176C10 172.686 12.6863 170 16 170H444C447.314 170 450 172.686 450 176V264C450 267.314 447.314 270 444 270H16C12.6863 270 10 267.314 10 264V176Z" fill="url(#paint2_linear_3311_20895)"/>
<g filter="url(#filter2_d_3311_20895)">
<path d="M194.094 215.484C194.555 215.484 194.969 215.395 195.336 215.215C195.711 215.027 196.012 214.77 196.238 214.441C196.473 214.113 196.602 213.734 196.625 213.305H199.285C199.27 214.125 199.027 214.871 198.559 215.543C198.09 216.215 197.469 216.75 196.695 217.148C195.922 217.539 195.066 217.734 194.129 217.734C193.16 217.734 192.316 217.57 191.598 217.242C190.879 216.906 190.281 216.445 189.805 215.859C189.328 215.273 188.969 214.598 188.727 213.832C188.492 213.066 188.375 212.246 188.375 211.371V210.961C188.375 210.086 188.492 209.266 188.727 208.5C188.969 207.727 189.328 207.047 189.805 206.461C190.281 205.875 190.879 205.418 191.598 205.09C192.316 204.754 193.156 204.586 194.117 204.586C195.133 204.586 196.023 204.789 196.789 205.195C197.555 205.594 198.156 206.152 198.594 206.871C199.039 207.582 199.27 208.41 199.285 209.355H196.625C196.602 208.887 196.484 208.465 196.273 208.09C196.07 207.707 195.781 207.402 195.406 207.176C195.039 206.949 194.598 206.836 194.082 206.836C193.512 206.836 193.039 206.953 192.664 207.188C192.289 207.414 191.996 207.727 191.785 208.125C191.574 208.516 191.422 208.957 191.328 209.449C191.242 209.934 191.199 210.438 191.199 210.961V211.371C191.199 211.895 191.242 212.402 191.328 212.895C191.414 213.387 191.562 213.828 191.773 214.219C191.992 214.602 192.289 214.91 192.664 215.145C193.039 215.371 193.516 215.484 194.094 215.484ZM208.602 214.957V208.91C208.602 208.457 208.52 208.066 208.355 207.738C208.191 207.41 207.941 207.156 207.605 206.977C207.277 206.797 206.863 206.707 206.363 206.707C205.902 206.707 205.504 206.785 205.168 206.941C204.832 207.098 204.57 207.309 204.383 207.574C204.195 207.84 204.102 208.141 204.102 208.477H201.289C201.289 207.977 201.41 207.492 201.652 207.023C201.895 206.555 202.246 206.137 202.707 205.77C203.168 205.402 203.719 205.113 204.359 204.902C205 204.691 205.719 204.586 206.516 204.586C207.469 204.586 208.312 204.746 209.047 205.066C209.789 205.387 210.371 205.871 210.793 206.52C211.223 207.16 211.438 207.965 211.438 208.934V214.57C211.438 215.148 211.477 215.668 211.555 216.129C211.641 216.582 211.762 216.977 211.918 217.312V217.5H209.023C208.891 217.195 208.785 216.809 208.707 216.34C208.637 215.863 208.602 215.402 208.602 214.957ZM209.012 209.789L209.035 211.535H207.008C206.484 211.535 206.023 211.586 205.625 211.688C205.227 211.781 204.895 211.922 204.629 212.109C204.363 212.297 204.164 212.523 204.031 212.789C203.898 213.055 203.832 213.355 203.832 213.691C203.832 214.027 203.91 214.336 204.066 214.617C204.223 214.891 204.449 215.105 204.746 215.262C205.051 215.418 205.418 215.496 205.848 215.496C206.426 215.496 206.93 215.379 207.359 215.145C207.797 214.902 208.141 214.609 208.391 214.266C208.641 213.914 208.773 213.582 208.789 213.27L209.703 214.523C209.609 214.844 209.449 215.188 209.223 215.555C208.996 215.922 208.699 216.273 208.332 216.609C207.973 216.938 207.539 217.207 207.031 217.418C206.531 217.629 205.953 217.734 205.297 217.734C204.469 217.734 203.73 217.57 203.082 217.242C202.434 216.906 201.926 216.457 201.559 215.895C201.191 215.324 201.008 214.68 201.008 213.961C201.008 213.289 201.133 212.695 201.383 212.18C201.641 211.656 202.016 211.219 202.508 210.867C203.008 210.516 203.617 210.25 204.336 210.07C205.055 209.883 205.875 209.789 206.797 209.789H209.012ZM205.203 203.027L207.488 199.5H210.676L207.488 203.027H205.203ZM225.547 215.484C226.008 215.484 226.422 215.395 226.789 215.215C227.164 215.027 227.465 214.77 227.691 214.441C227.926 214.113 228.055 213.734 228.078 213.305H230.738C230.723 214.125 230.48 214.871 230.012 215.543C229.543 216.215 228.922 216.75 228.148 217.148C227.375 217.539 226.52 217.734 225.582 217.734C224.613 217.734 223.77 217.57 223.051 217.242C222.332 216.906 221.734 216.445 221.258 215.859C220.781 215.273 220.422 214.598 220.18 213.832C219.945 213.066 219.828 212.246 219.828 211.371V210.961C219.828 210.086 219.945 209.266 220.18 208.5C220.422 207.727 220.781 207.047 221.258 206.461C221.734 205.875 222.332 205.418 223.051 205.09C223.77 204.754 224.609 204.586 225.57 204.586C226.586 204.586 227.477 204.789 228.242 205.195C229.008 205.594 229.609 206.152 230.047 206.871C230.492 207.582 230.723 208.41 230.738 209.355H228.078C228.055 208.887 227.938 208.465 227.727 208.09C227.523 207.707 227.234 207.402 226.859 207.176C226.492 206.949 226.051 206.836 225.535 206.836C224.965 206.836 224.492 206.953 224.117 207.188C223.742 207.414 223.449 207.727 223.238 208.125C223.027 208.516 222.875 208.957 222.781 209.449C222.695 209.934 222.652 210.438 222.652 210.961V211.371C222.652 211.895 222.695 212.402 222.781 212.895C222.867 213.387 223.016 213.828 223.227 214.219C223.445 214.602 223.742 214.91 224.117 215.145C224.492 215.371 224.969 215.484 225.547 215.484ZM245.023 203.754H246.875C246.875 204.66 246.746 205.422 246.488 206.039C246.238 206.656 245.805 207.121 245.188 207.434C244.578 207.746 243.73 207.902 242.645 207.902L242.656 206.438C243.391 206.438 243.922 206.344 244.25 206.156C244.586 205.961 244.797 205.668 244.883 205.277C244.977 204.879 245.023 204.371 245.023 203.754ZM240.535 214.512V204.82H243.371V217.5H240.699L240.535 214.512ZM240.934 211.875L241.883 211.852C241.883 212.703 241.789 213.488 241.602 214.207C241.414 214.918 241.125 215.539 240.734 216.07C240.344 216.594 239.844 217.004 239.234 217.301C238.625 217.59 237.895 217.734 237.043 217.734C236.426 217.734 235.859 217.645 235.344 217.465C234.828 217.285 234.383 217.008 234.008 216.633C233.641 216.258 233.355 215.77 233.152 215.168C232.949 214.566 232.848 213.848 232.848 213.012V204.82H235.672V213.035C235.672 213.496 235.727 213.883 235.836 214.195C235.945 214.5 236.094 214.746 236.281 214.934C236.469 215.121 236.688 215.254 236.938 215.332C237.188 215.41 237.453 215.449 237.734 215.449C238.539 215.449 239.172 215.293 239.633 214.98C240.102 214.66 240.434 214.23 240.629 213.691C240.832 213.152 240.934 212.547 240.934 211.875ZM258.406 203.531H260.293C260.293 204.43 260.16 205.203 259.895 205.852C259.637 206.5 259.215 206.996 258.629 207.34C258.051 207.684 257.281 207.855 256.32 207.855V206.461C256.906 206.461 257.348 206.34 257.645 206.098C257.941 205.855 258.141 205.516 258.242 205.078C258.352 204.641 258.406 204.125 258.406 203.531ZM247.051 211.301V211.031C247.051 210.117 247.184 209.27 247.449 208.488C247.715 207.699 248.098 207.016 248.598 206.438C249.105 205.852 249.723 205.398 250.449 205.078C251.184 204.75 252.012 204.586 252.934 204.586C253.863 204.586 254.695 204.75 255.43 205.078C256.164 205.398 256.781 205.852 257.281 206.438C257.789 207.016 258.176 207.699 258.441 208.488C258.707 209.27 258.84 210.117 258.84 211.031V211.301C258.84 212.215 258.707 213.062 258.441 213.844C258.176 214.625 257.789 215.309 257.281 215.895C256.781 216.473 256.168 216.926 255.441 217.254C254.715 217.574 253.887 217.734 252.957 217.734C252.027 217.734 251.195 217.574 250.461 217.254C249.734 216.926 249.117 216.473 248.609 215.895C248.102 215.309 247.715 214.625 247.449 213.844C247.184 213.062 247.051 212.215 247.051 211.301ZM249.875 211.031V211.301C249.875 211.871 249.934 212.41 250.051 212.918C250.168 213.426 250.352 213.871 250.602 214.254C250.859 214.637 251.18 214.938 251.562 215.156C251.953 215.375 252.418 215.484 252.957 215.484C253.488 215.484 253.945 215.375 254.328 215.156C254.711 214.938 255.023 214.637 255.266 214.254C255.516 213.871 255.703 213.426 255.828 212.918C255.953 212.41 256.016 211.871 256.016 211.301V211.031C256.016 210.469 255.953 209.938 255.828 209.438C255.711 208.93 255.527 208.48 255.277 208.09C255.027 207.699 254.707 207.395 254.316 207.176C253.934 206.949 253.473 206.836 252.934 206.836C252.402 206.836 251.945 206.949 251.562 207.176C251.18 207.395 250.859 207.699 250.602 208.09C250.352 208.48 250.168 208.93 250.051 209.438C249.934 209.938 249.875 210.469 249.875 211.031ZM251.293 220.43C251.293 220.023 251.434 219.684 251.715 219.41C252.004 219.137 252.398 219 252.898 219C253.398 219 253.793 219.137 254.082 219.41C254.371 219.684 254.516 220.023 254.516 220.43C254.516 220.828 254.371 221.164 254.082 221.438C253.793 221.711 253.398 221.848 252.898 221.848C252.398 221.848 252.004 221.711 251.715 221.438C251.434 221.164 251.293 220.828 251.293 220.43ZM266.633 215.484C267.094 215.484 267.508 215.395 267.875 215.215C268.25 215.027 268.551 214.77 268.777 214.441C269.012 214.113 269.141 213.734 269.164 213.305H271.824C271.809 214.125 271.566 214.871 271.098 215.543C270.629 216.215 270.008 216.75 269.234 217.148C268.461 217.539 267.605 217.734 266.668 217.734C265.699 217.734 264.855 217.57 264.137 217.242C263.418 216.906 262.82 216.445 262.344 215.859C261.867 215.273 261.508 214.598 261.266 213.832C261.031 213.066 260.914 212.246 260.914 211.371V210.961C260.914 210.086 261.031 209.266 261.266 208.5C261.508 207.727 261.867 207.047 262.344 206.461C262.82 205.875 263.418 205.418 264.137 205.09C264.855 204.754 265.695 204.586 266.656 204.586C267.672 204.586 268.562 204.789 269.328 205.195C270.094 205.594 270.695 206.152 271.133 206.871C271.578 207.582 271.809 208.41 271.824 209.355H269.164C269.141 208.887 269.023 208.465 268.812 208.09C268.609 207.707 268.32 207.402 267.945 207.176C267.578 206.949 267.137 206.836 266.621 206.836C266.051 206.836 265.578 206.953 265.203 207.188C264.828 207.414 264.535 207.727 264.324 208.125C264.113 208.516 263.961 208.957 263.867 209.449C263.781 209.934 263.738 210.438 263.738 210.961V211.371C263.738 211.895 263.781 212.402 263.867 212.895C263.953 213.387 264.102 213.828 264.312 214.219C264.531 214.602 264.828 214.91 265.203 215.145C265.578 215.371 266.055 215.484 266.633 215.484Z" fill="white"/>
</g>
<g filter="url(#filter3_d_3311_20895)">
<path d="M175.626 228.79V239.5H174.396V230.29C173.736 230.97 172.896 231.46 171.876 231.76V230.53C172.396 230.39 172.896 230.175 173.376 229.885C173.876 229.565 174.306 229.2 174.666 228.79H175.626ZM179.276 237.355C179.606 237.355 179.871 237.455 180.071 237.655C180.281 237.845 180.386 238.1 180.386 238.42C180.386 238.72 180.276 238.98 180.056 239.2C179.836 239.4 179.576 239.5 179.276 239.5C178.966 239.5 178.706 239.395 178.496 239.185C178.286 238.975 178.181 238.72 178.181 238.42C178.181 238.1 178.286 237.845 178.496 237.655C178.696 237.455 178.956 237.355 179.276 237.355ZM185.823 228.58C187.083 228.58 188.058 229.11 188.748 230.17C189.378 231.16 189.693 232.485 189.693 234.145C189.693 235.805 189.378 237.13 188.748 238.12C188.048 239.18 187.073 239.71 185.823 239.71C184.573 239.71 183.598 239.18 182.898 238.12C182.268 237.13 181.953 235.805 181.953 234.145C181.953 232.465 182.268 231.14 182.898 230.17C183.588 229.11 184.563 228.58 185.823 228.58ZM185.823 229.96C184.943 229.96 184.323 230.445 183.963 231.415C183.703 232.055 183.573 232.965 183.573 234.145C183.573 235.315 183.703 236.225 183.963 236.875C184.323 237.845 184.943 238.33 185.823 238.33C186.703 238.33 187.323 237.845 187.683 236.875C187.943 236.185 188.073 235.275 188.073 234.145C188.073 232.995 187.943 232.085 187.683 231.415C187.323 230.445 186.703 229.96 185.823 229.96ZM194.817 228.58C196.077 228.58 197.052 229.11 197.742 230.17C198.372 231.16 198.687 232.485 198.687 234.145C198.687 235.805 198.372 237.13 197.742 238.12C197.042 239.18 196.067 239.71 194.817 239.71C193.567 239.71 192.592 239.18 191.892 238.12C191.262 237.13 190.947 235.805 190.947 234.145C190.947 232.465 191.262 231.14 191.892 230.17C192.582 229.11 193.557 228.58 194.817 228.58ZM194.817 229.96C193.937 229.96 193.317 230.445 192.957 231.415C192.697 232.055 192.567 232.965 192.567 234.145C192.567 235.315 192.697 236.225 192.957 236.875C193.317 237.845 193.937 238.33 194.817 238.33C195.697 238.33 196.317 237.845 196.677 236.875C196.937 236.185 197.067 235.275 197.067 234.145C197.067 232.995 196.937 232.085 196.677 231.415C196.317 230.445 195.697 229.96 194.817 229.96ZM203.812 228.58C205.072 228.58 206.047 229.11 206.737 230.17C207.367 231.16 207.682 232.485 207.682 234.145C207.682 235.805 207.367 237.13 206.737 238.12C206.037 239.18 205.062 239.71 203.812 239.71C202.562 239.71 201.587 239.18 200.887 238.12C200.257 237.13 199.942 235.805 199.942 234.145C199.942 232.465 200.257 231.14 200.887 230.17C201.577 229.11 202.552 228.58 203.812 228.58ZM203.812 229.96C202.932 229.96 202.312 230.445 201.952 231.415C201.692 232.055 201.562 232.965 201.562 234.145C201.562 235.315 201.692 236.225 201.952 236.875C202.312 237.845 202.932 238.33 203.812 238.33C204.692 238.33 205.312 237.845 205.672 236.875C205.932 236.185 206.062 235.275 206.062 234.145C206.062 232.995 205.932 232.085 205.672 231.415C205.312 230.445 204.692 229.96 203.812 229.96ZM212.806 228.58C214.066 228.58 215.041 229.11 215.731 230.17C216.361 231.16 216.676 232.485 216.676 234.145C216.676 235.805 216.361 237.13 215.731 238.12C215.031 239.18 214.056 239.71 212.806 239.71C211.556 239.71 210.581 239.18 209.881 238.12C209.251 237.13 208.936 235.805 208.936 234.145C208.936 232.465 209.251 231.14 209.881 230.17C210.571 229.11 211.546 228.58 212.806 228.58ZM212.806 229.96C211.926 229.96 211.306 230.445 210.946 231.415C210.686 232.055 210.556 232.965 210.556 234.145C210.556 235.315 210.686 236.225 210.946 236.875C211.306 237.845 211.926 238.33 212.806 238.33C213.686 238.33 214.306 237.845 214.666 236.875C214.926 236.185 215.056 235.275 215.056 234.145C215.056 232.995 214.926 232.085 214.666 231.415C214.306 230.445 213.686 229.96 212.806 229.96ZM221.8 228.58C223.06 228.58 224.035 229.11 224.725 230.17C225.355 231.16 225.67 232.485 225.67 234.145C225.67 235.805 225.355 237.13 224.725 238.12C224.025 239.18 223.05 239.71 221.8 239.71C220.55 239.71 219.575 239.18 218.875 238.12C218.245 237.13 217.93 235.805 217.93 234.145C217.93 232.465 218.245 231.14 218.875 230.17C219.565 229.11 220.54 228.58 221.8 228.58ZM221.8 229.96C220.92 229.96 220.3 230.445 219.94 231.415C219.68 232.055 219.55 232.965 219.55 234.145C219.55 235.315 219.68 236.225 219.94 236.875C220.3 237.845 220.92 238.33 221.8 238.33C222.68 238.33 223.3 237.845 223.66 236.875C223.92 236.185 224.05 235.275 224.05 234.145C224.05 232.995 223.92 232.085 223.66 231.415C223.3 230.445 222.68 229.96 221.8 229.96ZM230.794 228.58C232.054 228.58 233.029 229.11 233.719 230.17C234.349 231.16 234.664 232.485 234.664 234.145C234.664 235.805 234.349 237.13 233.719 238.12C233.019 239.18 232.044 239.71 230.794 239.71C229.544 239.71 228.569 239.18 227.869 238.12C227.239 237.13 226.924 235.805 226.924 234.145C226.924 232.465 227.239 231.14 227.869 230.17C228.559 229.11 229.534 228.58 230.794 228.58ZM230.794 229.96C229.914 229.96 229.294 230.445 228.934 231.415C228.674 232.055 228.544 232.965 228.544 234.145C228.544 235.315 228.674 236.225 228.934 236.875C229.294 237.845 229.914 238.33 230.794 238.33C231.674 238.33 232.294 237.845 232.654 236.875C232.914 236.185 233.044 235.275 233.044 234.145C233.044 232.995 232.914 232.085 232.654 231.415C232.294 230.445 231.674 229.96 230.794 229.96ZM239.788 228.58C241.048 228.58 242.023 229.11 242.713 230.17C243.343 231.16 243.658 232.485 243.658 234.145C243.658 235.805 243.343 237.13 242.713 238.12C242.013 239.18 241.038 239.71 239.788 239.71C238.538 239.71 237.563 239.18 236.863 238.12C236.233 237.13 235.918 235.805 235.918 234.145C235.918 232.465 236.233 231.14 236.863 230.17C237.553 229.11 238.528 228.58 239.788 228.58ZM239.788 229.96C238.908 229.96 238.288 230.445 237.928 231.415C237.668 232.055 237.538 232.965 237.538 234.145C237.538 235.315 237.668 236.225 237.928 236.875C238.288 237.845 238.908 238.33 239.788 238.33C240.668 238.33 241.288 237.845 241.648 236.875C241.908 236.185 242.038 235.275 242.038 234.145C242.038 232.995 241.908 232.085 241.648 231.415C241.288 230.445 240.668 229.96 239.788 229.96ZM248.782 228.58C250.042 228.58 251.017 229.11 251.707 230.17C252.337 231.16 252.652 232.485 252.652 234.145C252.652 235.805 252.337 237.13 251.707 238.12C251.007 239.18 250.032 239.71 248.782 239.71C247.532 239.71 246.557 239.18 245.857 238.12C245.227 237.13 244.912 235.805 244.912 234.145C244.912 232.465 245.227 231.14 245.857 230.17C246.547 229.11 247.522 228.58 248.782 228.58ZM248.782 229.96C247.902 229.96 247.282 230.445 246.922 231.415C246.662 232.055 246.532 232.965 246.532 234.145C246.532 235.315 246.662 236.225 246.922 236.875C247.282 237.845 247.902 238.33 248.782 238.33C249.662 238.33 250.282 237.845 250.642 236.875C250.902 236.185 251.032 235.275 251.032 234.145C251.032 232.995 250.902 232.085 250.642 231.415C250.282 230.445 249.662 229.96 248.782 229.96ZM259.321 228.79H264.211C265.261 228.79 266.081 229.04 266.671 229.54C267.241 230.02 267.526 230.67 267.526 231.49C267.526 232.09 267.376 232.6 267.076 233.02C266.766 233.42 266.351 233.715 265.831 233.905C266.541 234.045 267.076 234.33 267.436 234.76C267.796 235.19 267.976 235.77 267.976 236.5C267.976 237.57 267.606 238.36 266.866 238.87C266.236 239.29 265.351 239.5 264.211 239.5H259.321V228.79ZM260.956 230.14V233.335H263.776C264.516 233.335 265.056 233.205 265.396 232.945C265.726 232.675 265.891 232.255 265.891 231.685C265.891 231.145 265.726 230.755 265.396 230.515C265.076 230.265 264.546 230.14 263.806 230.14H260.956ZM260.956 234.67V238.15H263.986C264.656 238.15 265.196 238.04 265.606 237.82C266.096 237.53 266.341 237.08 266.341 236.47C266.341 235.84 266.151 235.38 265.771 235.09C265.401 234.81 264.821 234.67 264.031 234.67H260.956ZM268.794 228.79H277.569V230.185H273.999V239.5H272.379V230.185H268.794V228.79ZM283.513 228.58C284.773 228.58 285.803 228.905 286.603 229.555C287.383 230.185 287.858 231.045 288.028 232.135H286.438C286.258 231.405 285.913 230.87 285.403 230.53C284.903 230.19 284.263 230.02 283.483 230.02C282.323 230.02 281.453 230.415 280.873 231.205C280.323 231.915 280.048 232.9 280.048 234.16C280.048 235.44 280.318 236.435 280.858 237.145C281.428 237.895 282.313 238.27 283.513 238.27C284.303 238.27 284.953 238.075 285.463 237.685C286.003 237.265 286.378 236.635 286.588 235.795H288.178C287.938 237.045 287.378 238.02 286.498 238.72C285.678 239.38 284.688 239.71 283.528 239.71C281.778 239.71 280.458 239.15 279.568 238.03C278.798 237.08 278.413 235.79 278.413 234.16C278.413 232.56 278.813 231.265 279.613 230.275C280.503 229.145 281.803 228.58 283.513 228.58Z" fill="white"/>
</g>
<defs>
<filter id="filter0_d_3311_20895" x="203" y="18" width="54" height="54" filterUnits="userSpaceOnUse" color-interpolation-filters="sRGB">
<feFlood flood-opacity="0" result="BackgroundImageFix"/>
<feColorMatrix in="SourceAlpha" type="matrix" values="0 0 0 0 0 0 0 0 0 0 0 0 0 0 0 0 0 0 127 0" result="hardAlpha"/>
<feOffset dy="2"/>
<feGaussianBlur stdDeviation="2"/>
<feComposite in2="hardAlpha" operator="out"/>
<feColorMatrix type="matrix" values="0 0 0 0 0 0 0 0 0 0 0 0 0 0 0 0 0 0 0.3 0"/>
<feBlend mode="normal" in2="BackgroundImageFix" result="effect1_dropShadow_3311_20895"/>
<feBlend mode="normal" in="SourceGraphic" in2="effect1_dropShadow_3311_20895" result="shape"/>
</filter>
<filter id="filter1_d_3311_20895" x="207.273" y="104.453" width="45.9688" height="27.7812" filterUnits="userSpaceOnUse" color-interpolation-filters="sRGB">
<feFlood flood-opacity="0" result="BackgroundImageFix"/>
<feColorMatrix in="SourceAlpha" type="matrix" values="0 0 0 0 0 0 0 0 0 0 0 0 0 0 0 0 0 0 127 0" result="hardAlpha"/>
<feOffset dy="2"/>
<feGaussianBlur stdDeviation="2"/>
<feComposite in2="hardAlpha" operator="out"/>
<feColorMatrix type="matrix" values="0 0 0 0 0 0 0 0 0 0 0 0 0 0 0 0 0 0 0.3 0"/>
<feBlend mode="normal" in2="BackgroundImageFix" result="effect1_dropShadow_3311_20895"/>
<feBlend mode="normal" in="SourceGraphic" in2="effect1_dropShadow_3311_20895" result="shape"/>
</filter>
<filter id="filter2_d_3311_20895" x="184.375" y="197.5" width="91.4492" height="30.3477" filterUnits="userSpaceOnUse" color-interpolation-filters="sRGB">
<feFlood flood-opacity="0" result="BackgroundImageFix"/>
<feColorMatrix in="SourceAlpha" type="matrix" values="0 0 0 0 0 0 0 0 0 0 0 0 0 0 0 0 0 0 127 0" result="hardAlpha"/>
<feOffset dy="2"/>
<feGaussianBlur stdDeviation="2"/>
<feComposite in2="hardAlpha" operator="out"/>
<feColorMatrix type="matrix" values="0 0 0 0 0 0 0 0 0 0 0 0 0 0 0 0 0 0 0.3 0"/>
<feBlend mode="normal" in2="BackgroundImageFix" result="effect1_dropShadow_3311_20895"/>
<feBlend mode="normal" in="SourceGraphic" in2="effect1_dropShadow_3311_20895" result="shape"/>
</filter>
<filter id="filter3_d_3311_20895" x="167.875" y="226.58" width="124.301" height="19.1309" filterUnits="userSpaceOnUse" color-interpolation-filters="sRGB">
<feFlood flood-opacity="0" result="BackgroundImageFix"/>
<feColorMatrix in="SourceAlpha" type="matrix" values="0 0 0 0 0 0 0 0 0 0 0 0 0 0 0 0 0 0 127 0" result="hardAlpha"/>
<feOffset dy="2"/>
<feGaussianBlur stdDeviation="2"/>
<feComposite in2="hardAlpha" operator="out"/>
<feColorMatrix type="matrix" values="0 0 0 0 0 0 0 0 0 0 0 0 0 0 0 0 0 0 0.3 0"/>
<feBlend mode="normal" in2="BackgroundImageFix" result="effect1_dropShadow_3311_20895"/>
<feBlend mode="normal" in="SourceGraphic" in2="effect1_dropShadow_3311_20895" result="shape"/>
</filter>
<linearGradient id="paint0_linear_3311_20895" x1="230" y1="20" x2="230" y2="66" gradientUnits="userSpaceOnUse">
<stop stop-color="white"/>
<stop offset="1" stop-color="#CFCFCF"/>
</linearGradient>
<linearGradient id="paint1_linear_3311_20895" x1="230" y1="86" x2="230" y2="150" gradientUnits="userSpaceOnUse">
<stop stop-color="#6DAEFB"/>
<stop offset="1" stop-color="#4C7EDF"/>
</linearGradient>
<linearGradient id="paint2_linear_3311_20895" x1="10" y1="270" x2="10" y2="170" gradientUnits="userSpaceOnUse">
<stop stop-color="#F36742"/>
<stop offset="1" stop-color="#FC8A3E"/>
</linearGradient>
</defs>
</svg>
