<svg width="460" height="290" viewBox="0 0 460 290" fill="none" xmlns="http://www.w3.org/2000/svg">
<rect width="460" height="290" rx="10" fill="#F4F7FD"/>
<rect x="10" y="32" width="440" height="103" rx="8" fill="white"/>
<path d="M213.841 72C213.841 74.1667 213.624 75.9667 213.191 77.4C212.757 78.8333 211.924 80.1667 210.691 81.4C208.757 83.3333 206.141 84.3 202.841 84.3C199.441 84.3 196.791 83.35 194.891 81.45C193.191 79.75 192.224 77.2833 191.991 74.05H198.491C198.857 76.9833 200.307 78.45 202.841 78.45C204.141 78.45 205.174 78.0667 205.941 77.3C206.874 76.3667 207.341 74.6 207.341 72C207.341 67.7333 205.891 65.6 202.991 65.6C200.757 65.6 199.324 66.5667 198.691 68.5H192.741V48.4H213.041V54.25H198.641V61.9C199.907 60.7 201.691 60.1 203.991 60.1C206.824 60.1 209.041 60.9 210.641 62.5C212.774 64.6333 213.841 67.8 213.841 72ZM240.689 73.7C240.689 76.9667 239.639 79.55 237.539 81.45C235.472 83.35 232.922 84.3 229.889 84.3C226.856 84.3 224.289 83.35 222.189 81.45C220.089 79.55 219.039 76.9667 219.039 73.7V58.7C219.039 55.4333 220.089 52.85 222.189 50.95C224.289 49.05 226.856 48.1 229.889 48.1C232.922 48.1 235.472 49.05 237.539 50.95C239.639 52.85 240.689 55.4333 240.689 58.7V73.7ZM234.189 73.65V58.8C234.189 57.3 233.789 56.1167 232.989 55.25C232.222 54.3833 231.189 53.95 229.889 53.95C228.589 53.95 227.539 54.3833 226.739 55.25C225.939 56.1167 225.539 57.3 225.539 58.8V73.65C225.539 75.15 225.939 76.3333 226.739 77.2C227.539 78.0333 228.589 78.45 229.889 78.45C231.189 78.45 232.222 78.0333 232.989 77.2C233.789 76.3333 234.189 75.15 234.189 73.65ZM247.778 84H244.798V81.04H247.778V84ZM258.981 84H250.321V81.66L255.641 75.48C256.134 74.8933 256.381 74.32 256.381 73.76C256.381 73.2267 256.227 72.8 255.921 72.48C255.627 72.1467 255.207 71.98 254.661 71.98C254.167 71.98 253.754 72.1267 253.421 72.42C253.087 72.7 252.921 73.16 252.921 73.8H250.321C250.321 72.5333 250.727 71.5267 251.541 70.78C252.367 70.02 253.407 69.64 254.661 69.64C255.941 69.64 256.981 70.0133 257.781 70.76C258.581 71.5067 258.981 72.5133 258.981 73.78C258.981 74.42 258.867 74.96 258.641 75.4C258.414 75.84 258.021 76.3867 257.461 77.04L253.481 81.66H258.981V84ZM269.9 79.88C269.9 81.24 269.467 82.2867 268.6 83.02C267.747 83.7533 266.673 84.12 265.38 84.12C264.113 84.12 263.04 83.7733 262.16 83.08C261.293 82.3733 260.853 81.32 260.84 79.92H263.44C263.453 80.5333 263.64 81 264 81.32C264.373 81.6267 264.833 81.78 265.38 81.78C265.953 81.78 266.413 81.6067 266.76 81.26C267.12 80.9133 267.3 80.4267 267.3 79.8C267.3 79.2 267.12 78.7267 266.76 78.38C266.413 78.02 265.927 77.84 265.3 77.84H264.92V75.58H265.3C265.9 75.58 266.347 75.42 266.64 75.1C266.947 74.7667 267.1 74.3333 267.1 73.8C267.1 73.2267 266.933 72.78 266.6 72.46C266.267 72.14 265.853 71.98 265.36 71.98C264.867 71.98 264.453 72.1333 264.12 72.44C263.8 72.7467 263.627 73.1667 263.6 73.7H261C261.027 72.46 261.453 71.4733 262.28 70.74C263.107 70.0067 264.133 69.64 265.36 69.64C266.627 69.64 267.667 70.02 268.48 70.78C269.293 71.54 269.7 72.52 269.7 73.72C269.7 75.08 269.153 76.0533 268.06 76.64C269.287 77.2933 269.9 78.3733 269.9 79.88Z" fill="#484848"/>
<path d="M189.853 114.18C188.845 114.18 188.065 113.952 187.513 113.496C186.961 113.028 186.577 112.398 186.361 111.606C186.145 110.802 186.037 109.89 186.037 108.87C186.037 107.694 186.145 106.746 186.361 106.026C186.589 105.306 186.919 104.784 187.351 104.46C187.783 104.124 188.311 103.956 188.935 103.956C189.355 103.956 189.709 104.028 189.997 104.172C190.297 104.316 190.507 104.556 190.627 104.892H190.699C190.819 104.544 191.035 104.304 191.347 104.172C191.659 104.028 192.025 103.956 192.445 103.956C193.225 103.956 193.825 104.166 194.245 104.586C194.677 104.994 194.893 105.624 194.893 106.476V114H193.291V106.494C193.291 106.026 193.189 105.708 192.985 105.54C192.781 105.372 192.523 105.288 192.211 105.288C191.863 105.288 191.605 105.372 191.437 105.54C191.281 105.708 191.185 105.984 191.149 106.368H190.141C190.093 105.948 189.967 105.666 189.763 105.522C189.559 105.366 189.331 105.288 189.079 105.288C188.599 105.288 188.239 105.57 187.999 106.134C187.759 106.686 187.639 107.604 187.639 108.888C187.639 109.716 187.699 110.424 187.819 111.012C187.951 111.6 188.191 112.056 188.539 112.38C188.887 112.692 189.391 112.848 190.051 112.848C190.291 112.848 190.489 112.836 190.645 112.812C190.801 112.788 190.951 112.758 191.095 112.722L191.257 113.946C191.077 114.03 190.861 114.09 190.609 114.126C190.357 114.162 190.105 114.18 189.853 114.18ZM192.388 102.57C191.884 102.57 191.482 102.498 191.182 102.354C190.882 102.21 190.666 102.024 190.534 101.796C190.39 101.568 190.318 101.328 190.318 101.076C190.318 100.896 190.348 100.704 190.408 100.5C190.456 100.284 190.522 100.11 190.606 99.978L191.956 100.212C191.932 100.26 191.908 100.344 191.884 100.464C191.86 100.572 191.848 100.674 191.848 100.77C191.848 100.926 191.896 101.064 191.992 101.184C192.088 101.292 192.25 101.346 192.478 101.346H197.032V102.57H192.388ZM199.785 114.18C199.317 114.18 198.861 114.132 198.417 114.036C197.985 113.94 197.523 113.76 197.031 113.496L197.535 112.272C197.799 112.428 198.099 112.566 198.435 112.686C198.771 112.794 199.161 112.848 199.605 112.848C200.493 112.848 201.183 112.524 201.675 111.876C202.179 111.216 202.431 110.268 202.431 109.032C202.431 107.82 202.173 106.896 201.657 106.26C201.153 105.612 200.373 105.288 199.317 105.288C198.933 105.288 198.543 105.33 198.147 105.414C197.751 105.498 197.403 105.624 197.103 105.792V104.442C197.451 104.262 197.829 104.136 198.237 104.064C198.657 103.992 199.077 103.956 199.497 103.956C200.577 103.956 201.453 104.172 202.125 104.604C202.797 105.024 203.289 105.612 203.601 106.368C203.913 107.124 204.069 108.012 204.069 109.032C204.069 110.616 203.709 111.87 202.989 112.794C202.281 113.718 201.213 114.18 199.785 114.18ZM208.896 114.18C208.572 114.18 208.26 114.126 207.96 114.018C207.66 113.91 207.414 113.718 207.222 113.442C207.03 113.166 206.934 112.782 206.934 112.29V104.136H208.536V112.092C208.536 112.368 208.596 112.566 208.716 112.686C208.836 112.806 209.028 112.866 209.292 112.866C209.4 112.866 209.514 112.854 209.634 112.83C209.754 112.806 209.868 112.776 209.976 112.74L210.192 113.91C209.964 114.018 209.742 114.09 209.526 114.126C209.31 114.162 209.1 114.18 208.896 114.18ZM217.575 114V107.43C217.575 106.65 217.395 106.098 217.035 105.774C216.687 105.438 216.099 105.27 215.271 105.27C214.671 105.27 214.095 105.354 213.543 105.522C213.003 105.678 212.487 105.9 211.995 106.188V104.694C212.343 104.514 212.811 104.346 213.399 104.19C213.999 104.034 214.671 103.956 215.415 103.956C216.051 103.956 216.603 104.028 217.071 104.172C217.539 104.304 217.923 104.508 218.223 104.784C218.535 105.06 218.769 105.414 218.925 105.846C219.081 106.266 219.159 106.764 219.159 107.34V114H217.575ZM214.479 114.18C213.423 114.18 212.613 113.94 212.049 113.46C211.497 112.968 211.221 112.266 211.221 111.354C211.221 110.358 211.581 109.59 212.301 109.05C213.033 108.51 214.215 108.192 215.847 108.096L217.899 107.97V109.302L216.063 109.428C214.839 109.512 213.993 109.704 213.525 110.004C213.069 110.304 212.841 110.742 212.841 111.318C212.841 111.858 213.009 112.254 213.345 112.506C213.693 112.758 214.173 112.884 214.785 112.884C214.989 112.884 215.175 112.872 215.343 112.848C215.511 112.812 215.673 112.77 215.829 112.722L216.081 113.928C215.853 114.012 215.601 114.072 215.325 114.108C215.061 114.156 214.779 114.18 214.479 114.18ZM225.554 114.18C224.426 114.18 223.55 113.91 222.926 113.37C222.314 112.818 222.008 111.996 222.008 110.904V109.806C222.008 109.206 222.092 108.732 222.26 108.384C222.428 108.036 222.608 107.736 222.8 107.484C223.004 107.208 223.178 106.968 223.322 106.764C223.478 106.56 223.556 106.314 223.556 106.026C223.556 105.774 223.49 105.594 223.358 105.486C223.238 105.378 223.082 105.324 222.89 105.324C222.746 105.324 222.59 105.348 222.422 105.396C222.266 105.444 222.11 105.504 221.954 105.576L221.594 104.424C221.81 104.28 222.074 104.178 222.386 104.118C222.71 104.058 222.992 104.028 223.232 104.028C223.676 104.028 224.03 104.106 224.294 104.262C224.57 104.418 224.768 104.634 224.888 104.91C225.008 105.174 225.068 105.486 225.068 105.846C225.068 106.29 224.99 106.656 224.834 106.944C224.69 107.232 224.516 107.514 224.312 107.79C224.108 108.09 223.94 108.378 223.808 108.654C223.676 108.93 223.61 109.29 223.61 109.734V110.796C223.61 111.348 223.7 111.774 223.88 112.074C224.06 112.374 224.3 112.584 224.6 112.704C224.9 112.812 225.218 112.866 225.554 112.866C226.154 112.866 226.61 112.728 226.922 112.452C227.246 112.164 227.408 111.726 227.408 111.138V104.136H229.01V111.228C229.01 112.152 228.716 112.878 228.128 113.406C227.552 113.922 226.694 114.18 225.554 114.18ZM235.326 114.18C234.618 114.18 234.006 114.06 233.49 113.82C232.986 113.568 232.596 113.19 232.32 112.686C232.056 112.182 231.924 111.528 231.924 110.724V104.136H233.526V110.634C233.526 111.354 233.706 111.9 234.066 112.272C234.438 112.644 234.972 112.83 235.668 112.83C236.508 112.83 237.156 112.56 237.612 112.02C238.08 111.48 238.314 110.754 238.314 109.842V104.136H239.916V114H238.584L238.512 112.542H238.422C238.206 113.022 237.828 113.418 237.288 113.73C236.76 114.03 236.106 114.18 235.326 114.18ZM238.625 103.002C238.025 103.002 237.551 102.864 237.203 102.588C236.855 102.3 236.681 101.898 236.681 101.382C236.681 100.854 236.855 100.452 237.203 100.176C237.551 99.9 238.025 99.762 238.625 99.762C239.225 99.762 239.705 99.9 240.065 100.176C240.425 100.452 240.605 100.854 240.605 101.382C240.605 101.898 240.425 102.3 240.065 102.588C239.705 102.864 239.225 103.002 238.625 103.002ZM238.625 102.156C238.913 102.156 239.135 102.084 239.291 101.94C239.435 101.796 239.507 101.61 239.507 101.382C239.507 101.142 239.435 100.956 239.291 100.824C239.135 100.68 238.913 100.608 238.625 100.608C238.349 100.608 238.139 100.68 237.995 100.824C237.839 100.956 237.761 101.142 237.761 101.382C237.761 101.61 237.839 101.796 237.995 101.94C238.139 102.084 238.349 102.156 238.625 102.156ZM245.753 114V106.998C245.753 106.41 245.615 105.978 245.339 105.702C245.075 105.426 244.625 105.288 243.989 105.288C243.557 105.288 243.149 105.348 242.765 105.468C242.393 105.576 242.033 105.732 241.685 105.936V104.496C241.925 104.376 242.267 104.256 242.711 104.136C243.155 104.016 243.683 103.956 244.295 103.956C244.919 103.956 245.459 104.046 245.915 104.226C246.371 104.406 246.725 104.706 246.977 105.126C247.229 105.534 247.355 106.08 247.355 106.764V114H245.753ZM250.797 105.936V102.408C250.797 101.688 250.623 101.172 250.275 100.86C249.939 100.548 249.507 100.392 248.979 100.392V99.708L250.311 99.132H255.117V100.392H251.463L251.445 100.464C251.709 100.644 251.931 100.92 252.111 101.292C252.303 101.652 252.399 102.126 252.399 102.714V105.936H250.797ZM252.759 114.18C252.435 114.18 252.123 114.126 251.823 114.018C251.523 113.91 251.277 113.718 251.085 113.442C250.893 113.166 250.797 112.782 250.797 112.29V104.136H252.399V112.092C252.399 112.368 252.459 112.566 252.579 112.686C252.699 112.806 252.891 112.866 253.155 112.866C253.263 112.866 253.377 112.854 253.497 112.83C253.617 112.806 253.731 112.776 253.839 112.74L254.055 113.91C253.827 114.018 253.605 114.09 253.389 114.126C253.173 114.162 252.963 114.18 252.759 114.18ZM259.094 114.18C257.954 114.18 257.072 113.91 256.448 113.37C255.836 112.818 255.53 111.996 255.53 110.904V109.806C255.53 109.206 255.614 108.732 255.782 108.384C255.95 108.036 256.13 107.736 256.322 107.484C256.526 107.208 256.7 106.968 256.844 106.764C257 106.56 257.078 106.314 257.078 106.026C257.078 105.774 257.012 105.594 256.88 105.486C256.76 105.378 256.604 105.324 256.412 105.324C256.268 105.324 256.112 105.348 255.944 105.396C255.788 105.444 255.632 105.504 255.476 105.576L255.116 104.424C255.332 104.28 255.596 104.178 255.908 104.118C256.232 104.058 256.514 104.028 256.754 104.028C257.198 104.028 257.552 104.106 257.816 104.262C258.092 104.418 258.29 104.634 258.41 104.91C258.53 105.174 258.59 105.486 258.59 105.846C258.59 106.29 258.512 106.656 258.356 106.944C258.212 107.232 258.038 107.514 257.834 107.79C257.63 108.09 257.462 108.378 257.33 108.654C257.198 108.93 257.132 109.29 257.132 109.734V110.796C257.132 111.348 257.222 111.774 257.402 112.074C257.582 112.374 257.822 112.584 258.122 112.704C258.422 112.812 258.746 112.866 259.094 112.866C259.694 112.866 260.15 112.728 260.462 112.452C260.774 112.164 260.93 111.726 260.93 111.138V108.618C260.93 108.174 260.828 107.838 260.624 107.61C260.42 107.37 260.09 107.25 259.634 107.25H259.562V106.224H259.652C260.144 106.224 260.492 106.11 260.696 105.882C260.9 105.654 261.02 105.378 261.056 105.054C261.104 104.718 261.128 104.412 261.128 104.136H262.73C262.73 104.772 262.652 105.312 262.496 105.756C262.34 106.2 261.986 106.524 261.434 106.728V106.8C261.77 106.884 262.01 107.028 262.154 107.232C262.31 107.424 262.412 107.646 262.46 107.898C262.508 108.138 262.532 108.372 262.532 108.6V111.228C262.532 112.152 262.244 112.878 261.668 113.406C261.092 113.922 260.234 114.18 259.094 114.18ZM265.498 114V107.7C265.498 106.488 265.822 105.564 266.47 104.928C267.118 104.28 268.15 103.956 269.566 103.956C270.994 103.956 272.026 104.28 272.662 104.928C273.31 105.564 273.634 106.488 273.634 107.7V114H272.032V107.7C272.032 106.896 271.822 106.296 271.402 105.9C270.982 105.492 270.364 105.288 269.548 105.288C268.744 105.288 268.132 105.492 267.712 105.9C267.304 106.296 267.1 106.896 267.1 107.7V109.698L267.154 109.716C267.418 109.248 267.742 108.942 268.126 108.798C268.51 108.642 269.05 108.564 269.746 108.564H270.34V109.878H269.746C269.014 109.878 268.456 109.98 268.072 110.184C267.7 110.388 267.442 110.658 267.298 110.994C267.166 111.318 267.1 111.684 267.1 112.092V114H265.498Z" fill="#484848"/>
<path d="M10 208C10 206.895 10.8954 206 12 206H207V210H12C10.8954 210 10 209.105 10 208Z" fill="#60A3F2"/>
<rect opacity="0.4" x="201" y="179" width="58" height="58" rx="14" fill="#484848"/>
<g filter="url(#filter0_d_3311_21122)">
<rect x="207" y="185" width="46" height="46" rx="10" fill="#FFFAFA"/>
<rect x="209" y="187" width="42" height="42" rx="8" stroke="url(#paint0_linear_3311_21122)" stroke-width="4"/>
</g>
<path d="M229.021 211.2C229.021 212.067 228.934 212.787 228.761 213.36C228.587 213.933 228.254 214.467 227.761 214.96C226.987 215.733 225.941 216.12 224.621 216.12C223.261 216.12 222.201 215.74 221.441 214.98C220.761 214.3 220.374 213.313 220.281 212.02H222.881C223.027 213.193 223.607 213.78 224.621 213.78C225.141 213.78 225.554 213.627 225.861 213.32C226.234 212.947 226.421 212.24 226.421 211.2C226.421 209.493 225.841 208.64 224.681 208.64C223.787 208.64 223.214 209.027 222.961 209.8H220.581V201.76H228.701V204.1H222.941V207.16C223.447 206.68 224.161 206.44 225.081 206.44C226.214 206.44 227.101 206.76 227.741 207.4C228.594 208.253 229.021 209.52 229.021 211.2ZM239.76 211.88C239.76 213.187 239.34 214.22 238.5 214.98C237.673 215.74 236.653 216.12 235.44 216.12C234.227 216.12 233.2 215.74 232.36 214.98C231.52 214.22 231.1 213.187 231.1 211.88V205.88C231.1 204.573 231.52 203.54 232.36 202.78C233.2 202.02 234.227 201.64 235.44 201.64C236.653 201.64 237.673 202.02 238.5 202.78C239.34 203.54 239.76 204.573 239.76 205.88V211.88ZM237.16 211.86V205.92C237.16 205.32 237 204.847 236.68 204.5C236.373 204.153 235.96 203.98 235.44 203.98C234.92 203.98 234.5 204.153 234.18 204.5C233.86 204.847 233.7 205.32 233.7 205.92V211.86C233.7 212.46 233.86 212.933 234.18 213.28C234.5 213.613 234.92 213.78 235.44 213.78C235.96 213.78 236.373 213.613 236.68 213.28C237 212.933 237.16 212.46 237.16 211.86Z" fill="#484848"/>
<path d="M253 206H448C449.105 206 450 206.895 450 208C450 209.105 449.105 210 448 210H253V206Z" fill="#F96B8A"/>
<g clip-path="url(#clip0_3311_21122)">
<rect x="10" y="247" width="1" height="11" fill="#ECECEC"/>
<rect x="14.4336" y="247" width="1" height="11" fill="#ECECEC"/>
<rect x="18.8672" y="247" width="1" height="11" fill="#ECECEC"/>
<rect x="23.3047" y="247" width="1" height="11" fill="#ECECEC"/>
<rect x="27.7383" y="247" width="1" height="11" fill="#ECECEC"/>
<rect x="32.1719" y="247" width="1" height="11" fill="#ECECEC"/>
<rect x="36.6055" y="247" width="1" height="11" fill="#ECECEC"/>
<rect x="41.0391" y="247" width="1" height="11" fill="#ECECEC"/>
<rect x="45.4766" y="247" width="1" height="11" fill="#ECECEC"/>
<rect x="49.9102" y="247" width="1" height="11" fill="#ECECEC"/>
<rect x="54.3438" y="247" width="1" height="11" fill="#ECECEC"/>
<rect x="58.7773" y="247" width="1" height="11" fill="#ECECEC"/>
<rect x="63.2109" y="247" width="1" height="11" fill="#ECECEC"/>
<rect x="67.6445" y="247" width="1" height="11" fill="#ECECEC"/>
<rect x="72.082" y="247" width="1" height="11" fill="#ECECEC"/>
<rect x="76.5156" y="247" width="1" height="11" fill="#ECECEC"/>
<rect x="80.9492" y="247" width="1" height="11" fill="#ECECEC"/>
<rect x="85.3828" y="247" width="1" height="11" fill="#ECECEC"/>
<rect x="89.8164" y="247" width="1" height="11" fill="#ECECEC"/>
<rect x="94.2539" y="247" width="1" height="11" fill="#ECECEC"/>
<rect x="98.6875" y="247" width="1" height="11" fill="#ECECEC"/>
<rect x="103.121" y="247" width="1" height="11" fill="#ECECEC"/>
<rect x="107.555" y="247" width="1" height="11" fill="#ECECEC"/>
<rect x="111.988" y="247" width="1" height="11" fill="#ECECEC"/>
<rect x="116.426" y="247" width="1" height="11" fill="#ECECEC"/>
<rect x="120.859" y="247" width="1" height="11" fill="#ECECEC"/>
<rect x="125.293" y="247" width="1" height="11" fill="#ECECEC"/>
<rect x="129.727" y="247" width="1" height="11" fill="#ECECEC"/>
<rect x="134.16" y="247" width="1" height="11" fill="#ECECEC"/>
<rect x="138.598" y="247" width="1" height="11" fill="#ECECEC"/>
<rect x="143.031" y="247" width="1" height="11" fill="#ECECEC"/>
<rect x="147.465" y="247" width="1" height="11" fill="#ECECEC"/>
<rect x="151.898" y="247" width="1" height="11" fill="#ECECEC"/>
<rect x="156.332" y="247" width="1" height="11" fill="#ECECEC"/>
<rect x="160.77" y="247" width="1" height="11" fill="#ECECEC"/>
<rect x="165.203" y="247" width="1" height="11" fill="#ECECEC"/>
<rect x="169.637" y="247" width="1" height="11" fill="#ECECEC"/>
<rect x="174.07" y="247" width="1" height="11" fill="#ECECEC"/>
<rect x="178.504" y="247" width="1" height="11" fill="#ECECEC"/>
<rect x="182.938" y="247" width="1" height="11" fill="#ECECEC"/>
<rect x="187.375" y="247" width="1" height="11" fill="#ECECEC"/>
<rect x="191.809" y="247" width="1" height="11" fill="#ECECEC"/>
<rect x="196.242" y="247" width="1" height="11" fill="#ECECEC"/>
<rect x="200.676" y="247" width="1" height="11" fill="#ECECEC"/>
<rect x="205.109" y="247" width="1" height="11" fill="#ECECEC"/>
<rect x="209.547" y="247" width="1" height="11" fill="#ECECEC"/>
<rect x="213.98" y="247" width="1" height="11" fill="#ECECEC"/>
<rect x="218.414" y="247" width="1" height="11" fill="#ECECEC"/>
<rect x="222.848" y="247" width="1" height="11" fill="#ECECEC"/>
<rect x="227.281" y="247" width="1" height="11" fill="#ECECEC"/>
<rect x="231.719" y="247" width="1" height="11" fill="#ECECEC"/>
<rect x="236.152" y="247" width="1" height="11" fill="#ECECEC"/>
<rect x="240.586" y="247" width="1" height="11" fill="#ECECEC"/>
<rect x="245.02" y="247" width="1" height="11" fill="#ECECEC"/>
<rect x="249.453" y="247" width="1" height="11" fill="#ECECEC"/>
<rect x="253.891" y="247" width="1" height="11" fill="#ECECEC"/>
<rect x="258.324" y="247" width="1" height="11" fill="#ECECEC"/>
<rect x="262.758" y="247" width="1" height="11" fill="#ECECEC"/>
<rect x="267.191" y="247" width="1" height="11" fill="#ECECEC"/>
<rect x="271.625" y="247" width="1" height="11" fill="#ECECEC"/>
<rect x="276.062" y="247" width="1" height="11" fill="#ECECEC"/>
<rect x="280.496" y="247" width="1" height="11" fill="#ECECEC"/>
<rect x="284.93" y="247" width="1" height="11" fill="#ECECEC"/>
<rect x="289.363" y="247" width="1" height="11" fill="#ECECEC"/>
<rect x="293.797" y="247" width="1" height="11" fill="#ECECEC"/>
<rect x="298.23" y="247" width="1" height="11" fill="#ECECEC"/>
<rect x="302.668" y="247" width="1" height="11" fill="#ECECEC"/>
<rect x="307.102" y="247" width="1" height="11" fill="#ECECEC"/>
<rect x="311.535" y="247" width="1" height="11" fill="#ECECEC"/>
<rect x="315.969" y="247" width="1" height="11" fill="#ECECEC"/>
<rect x="320.402" y="247" width="1" height="11" fill="#ECECEC"/>
<rect x="324.84" y="247" width="1" height="11" fill="#ECECEC"/>
<rect x="329.273" y="247" width="1" height="11" fill="#ECECEC"/>
<rect x="333.707" y="247" width="1" height="11" fill="#ECECEC"/>
<rect x="338.141" y="247" width="1" height="11" fill="#ECECEC"/>
<rect x="342.574" y="247" width="1" height="11" fill="#ECECEC"/>
<rect x="347.012" y="247" width="1" height="11" fill="#ECECEC"/>
<rect x="351.445" y="247" width="1" height="11" fill="#ECECEC"/>
<rect x="355.879" y="247" width="1" height="11" fill="#ECECEC"/>
<rect x="360.312" y="247" width="1" height="11" fill="#ECECEC"/>
<rect x="364.746" y="247" width="1" height="11" fill="#ECECEC"/>
<rect x="369.184" y="247" width="1" height="11" fill="#ECECEC"/>
<rect x="373.617" y="247" width="1" height="11" fill="#ECECEC"/>
<rect x="378.051" y="247" width="1" height="11" fill="#ECECEC"/>
<rect x="382.484" y="247" width="1" height="11" fill="#ECECEC"/>
<rect x="386.918" y="247" width="1" height="11" fill="#ECECEC"/>
<rect x="391.355" y="247" width="1" height="11" fill="#ECECEC"/>
<rect x="395.789" y="247" width="1" height="11" fill="#ECECEC"/>
<rect x="400.223" y="247" width="1" height="11" fill="#ECECEC"/>
<rect x="404.656" y="247" width="1" height="11" fill="#ECECEC"/>
<rect x="409.09" y="247" width="1" height="11" fill="#ECECEC"/>
<rect x="413.527" y="247" width="1" height="11" fill="#ECECEC"/>
<rect x="417.961" y="247" width="1" height="11" fill="#ECECEC"/>
<rect x="422.395" y="247" width="1" height="11" fill="#ECECEC"/>
<rect x="426.828" y="247" width="1" height="11" fill="#ECECEC"/>
<rect x="431.262" y="247" width="1" height="11" fill="#ECECEC"/>
<rect x="435.699" y="247" width="1" height="11" fill="#ECECEC"/>
<rect x="440.133" y="247" width="1" height="11" fill="#ECECEC"/>
<rect x="444.566" y="247" width="1" height="11" fill="#ECECEC"/>
<rect x="449" y="247" width="1" height="11" fill="#ECECEC"/>
</g>
<defs>
<filter id="filter0_d_3311_21122" x="203" y="183" width="54" height="54" filterUnits="userSpaceOnUse" color-interpolation-filters="sRGB">
<feFlood flood-opacity="0" result="BackgroundImageFix"/>
<feColorMatrix in="SourceAlpha" type="matrix" values="0 0 0 0 0 0 0 0 0 0 0 0 0 0 0 0 0 0 127 0" result="hardAlpha"/>
<feOffset dy="2"/>
<feGaussianBlur stdDeviation="2"/>
<feComposite in2="hardAlpha" operator="out"/>
<feColorMatrix type="matrix" values="0 0 0 0 0 0 0 0 0 0 0 0 0 0 0 0 0 0 0.3 0"/>
<feBlend mode="normal" in2="BackgroundImageFix" result="effect1_dropShadow_3311_21122"/>
<feBlend mode="normal" in="SourceGraphic" in2="effect1_dropShadow_3311_21122" result="shape"/>
</filter>
<linearGradient id="paint0_linear_3311_21122" x1="230" y1="185" x2="230" y2="231" gradientUnits="userSpaceOnUse">
<stop stop-color="white"/>
<stop offset="1" stop-color="#CFCFCF"/>
</linearGradient>
<clipPath id="clip0_3311_21122">
<rect width="440" height="11" fill="white" transform="translate(10 247)"/>
</clipPath>
</defs>
</svg>
