<svg width="460" height="286" viewBox="0 0 460 286" fill="none" xmlns="http://www.w3.org/2000/svg">
<rect width="460" height="286" rx="10" fill="#F4F7FD"/>
<rect x="10" y="32" width="440" height="99" rx="8" fill="white"/>
<path d="M213.841 72C213.841 74.1667 213.624 75.9667 213.191 77.4C212.757 78.8333 211.924 80.1667 210.691 81.4C208.757 83.3333 206.141 84.3 202.841 84.3C199.441 84.3 196.791 83.35 194.891 81.45C193.191 79.75 192.224 77.2833 191.991 74.05H198.491C198.857 76.9833 200.307 78.45 202.841 78.45C204.141 78.45 205.174 78.0667 205.941 77.3C206.874 76.3667 207.341 74.6 207.341 72C207.341 67.7333 205.891 65.6 202.991 65.6C200.757 65.6 199.324 66.5667 198.691 68.5H192.741V48.4H213.041V54.25H198.641V61.9C199.907 60.7 201.691 60.1 203.991 60.1C206.824 60.1 209.041 60.9 210.641 62.5C212.774 64.6333 213.841 67.8 213.841 72ZM240.689 73.7C240.689 76.9667 239.639 79.55 237.539 81.45C235.472 83.35 232.922 84.3 229.889 84.3C226.856 84.3 224.289 83.35 222.189 81.45C220.089 79.55 219.039 76.9667 219.039 73.7V58.7C219.039 55.4333 220.089 52.85 222.189 50.95C224.289 49.05 226.856 48.1 229.889 48.1C232.922 48.1 235.472 49.05 237.539 50.95C239.639 52.85 240.689 55.4333 240.689 58.7V73.7ZM234.189 73.65V58.8C234.189 57.3 233.789 56.1167 232.989 55.25C232.222 54.3833 231.189 53.95 229.889 53.95C228.589 53.95 227.539 54.3833 226.739 55.25C225.939 56.1167 225.539 57.3 225.539 58.8V73.65C225.539 75.15 225.939 76.3333 226.739 77.2C227.539 78.0333 228.589 78.45 229.889 78.45C231.189 78.45 232.222 78.0333 232.989 77.2C233.789 76.3333 234.189 75.15 234.189 73.65ZM247.778 84H244.798V81.04H247.778V84ZM258.981 84H250.321V81.66L255.641 75.48C256.134 74.8933 256.381 74.32 256.381 73.76C256.381 73.2267 256.227 72.8 255.921 72.48C255.627 72.1467 255.207 71.98 254.661 71.98C254.167 71.98 253.754 72.1267 253.421 72.42C253.087 72.7 252.921 73.16 252.921 73.8H250.321C250.321 72.5333 250.727 71.5267 251.541 70.78C252.367 70.02 253.407 69.64 254.661 69.64C255.941 69.64 256.981 70.0133 257.781 70.76C258.581 71.5067 258.981 72.5133 258.981 73.78C258.981 74.42 258.867 74.96 258.641 75.4C258.414 75.84 258.021 76.3867 257.461 77.04L253.481 81.66H258.981V84ZM269.9 79.88C269.9 81.24 269.467 82.2867 268.6 83.02C267.747 83.7533 266.673 84.12 265.38 84.12C264.113 84.12 263.04 83.7733 262.16 83.08C261.293 82.3733 260.853 81.32 260.84 79.92H263.44C263.453 80.5333 263.64 81 264 81.32C264.373 81.6267 264.833 81.78 265.38 81.78C265.953 81.78 266.413 81.6067 266.76 81.26C267.12 80.9133 267.3 80.4267 267.3 79.8C267.3 79.2 267.12 78.7267 266.76 78.38C266.413 78.02 265.927 77.84 265.3 77.84H264.92V75.58H265.3C265.9 75.58 266.347 75.42 266.64 75.1C266.947 74.7667 267.1 74.3333 267.1 73.8C267.1 73.2267 266.933 72.78 266.6 72.46C266.267 72.14 265.853 71.98 265.36 71.98C264.867 71.98 264.453 72.1333 264.12 72.44C263.8 72.7467 263.627 73.1667 263.6 73.7H261C261.027 72.46 261.453 71.4733 262.28 70.74C263.107 70.0067 264.133 69.64 265.36 69.64C266.627 69.64 267.667 70.02 268.48 70.78C269.293 71.54 269.7 72.52 269.7 73.72C269.7 75.08 269.153 76.0533 268.06 76.64C269.287 77.2933 269.9 78.3733 269.9 79.88Z" fill="#484848"/>
<path d="M188.261 108.704C188.261 108.44 188.22 108.206 188.138 108.001C188.062 107.796 187.924 107.608 187.725 107.438C187.525 107.269 187.244 107.104 186.881 106.946C186.523 106.782 186.066 106.615 185.51 106.445C184.9 106.258 184.338 106.05 183.822 105.821C183.312 105.587 182.867 105.317 182.486 105.013C182.105 104.702 181.81 104.348 181.599 103.949C181.388 103.545 181.282 103.079 181.282 102.552C181.282 102.03 181.391 101.556 181.607 101.128C181.83 100.7 182.144 100.331 182.548 100.021C182.958 99.7041 183.441 99.4609 183.998 99.291C184.555 99.1152 185.17 99.0273 185.844 99.0273C186.793 99.0273 187.61 99.2031 188.296 99.5547C188.987 99.9062 189.518 100.378 189.887 100.97C190.262 101.562 190.449 102.215 190.449 102.93H188.261C188.261 102.508 188.17 102.136 187.988 101.813C187.812 101.485 187.543 101.228 187.18 101.04C186.822 100.853 186.368 100.759 185.817 100.759C185.296 100.759 184.862 100.838 184.517 100.996C184.171 101.154 183.913 101.368 183.743 101.638C183.573 101.907 183.488 102.212 183.488 102.552C183.488 102.792 183.544 103.012 183.655 103.211C183.767 103.404 183.937 103.586 184.165 103.756C184.394 103.92 184.681 104.075 185.026 104.222C185.372 104.368 185.779 104.509 186.248 104.644C186.957 104.854 187.575 105.089 188.103 105.347C188.63 105.599 189.069 105.886 189.421 106.208C189.772 106.53 190.036 106.896 190.212 107.307C190.388 107.711 190.476 108.171 190.476 108.687C190.476 109.226 190.367 109.712 190.15 110.146C189.934 110.573 189.623 110.939 189.219 111.244C188.82 111.543 188.34 111.774 187.777 111.938C187.221 112.097 186.6 112.176 185.914 112.176C185.299 112.176 184.692 112.094 184.095 111.93C183.503 111.766 182.964 111.517 182.478 111.183C181.991 110.843 181.604 110.421 181.317 109.917C181.03 109.407 180.887 108.812 180.887 108.133H183.093C183.093 108.549 183.163 108.903 183.304 109.196C183.45 109.489 183.652 109.729 183.91 109.917C184.168 110.099 184.467 110.233 184.807 110.321C185.152 110.409 185.521 110.453 185.914 110.453C186.43 110.453 186.86 110.38 187.206 110.233C187.558 110.087 187.821 109.882 187.997 109.618C188.173 109.354 188.261 109.05 188.261 108.704ZM191.812 107.351V107.148C191.812 106.463 191.911 105.827 192.11 105.241C192.31 104.649 192.597 104.137 192.972 103.703C193.353 103.264 193.815 102.924 194.36 102.684C194.911 102.438 195.532 102.314 196.224 102.314C196.921 102.314 197.542 102.438 198.087 102.684C198.638 102.924 199.104 103.264 199.484 103.703C199.865 104.137 200.155 104.649 200.354 105.241C200.554 105.827 200.653 106.463 200.653 107.148V107.351C200.653 108.036 200.554 108.672 200.354 109.258C200.155 109.844 199.865 110.356 199.484 110.796C199.104 111.229 198.641 111.569 198.096 111.815C197.551 112.056 196.933 112.176 196.241 112.176C195.544 112.176 194.92 112.056 194.369 111.815C193.824 111.569 193.361 111.229 192.98 110.796C192.6 110.356 192.31 109.844 192.11 109.258C191.911 108.672 191.812 108.036 191.812 107.351ZM193.93 107.148V107.351C193.93 107.778 193.974 108.183 194.062 108.563C194.149 108.944 194.287 109.278 194.475 109.565C194.662 109.853 194.902 110.078 195.195 110.242C195.488 110.406 195.837 110.488 196.241 110.488C196.634 110.488 196.974 110.406 197.261 110.242C197.554 110.078 197.794 109.853 197.981 109.565C198.169 109.278 198.307 108.944 198.395 108.563C198.488 108.183 198.535 107.778 198.535 107.351V107.148C198.535 106.727 198.488 106.328 198.395 105.953C198.307 105.572 198.166 105.235 197.973 104.942C197.785 104.649 197.545 104.421 197.252 104.257C196.965 104.087 196.622 104.002 196.224 104.002C195.825 104.002 195.479 104.087 195.187 104.257C194.899 104.421 194.662 104.649 194.475 104.942C194.287 105.235 194.149 105.572 194.062 105.953C193.974 106.328 193.93 106.727 193.93 107.148ZM192.963 101.163L195.477 99.001H196.856L199.379 101.163H197.577L196.162 99.915L194.756 101.163H192.963ZM198.729 99.8008L200.082 97.4805H201.972L200.082 99.8008H198.729ZM209.029 104.424V112H206.911V102.49H208.906L209.029 104.424ZM208.687 106.894L207.966 106.885C207.966 106.229 208.048 105.622 208.212 105.065C208.376 104.509 208.616 104.025 208.933 103.615C209.249 103.199 209.642 102.88 210.11 102.657C210.585 102.429 211.133 102.314 211.754 102.314C212.188 102.314 212.583 102.379 212.94 102.508C213.304 102.631 213.617 102.827 213.881 103.097C214.15 103.366 214.355 103.712 214.496 104.134C214.643 104.556 214.716 105.065 214.716 105.663V112H212.598V105.848C212.598 105.385 212.527 105.021 212.387 104.758C212.252 104.494 212.056 104.307 211.798 104.195C211.546 104.078 211.244 104.02 210.893 104.02C210.494 104.02 210.154 104.096 209.873 104.248C209.598 104.4 209.372 104.608 209.196 104.872C209.021 105.136 208.892 105.44 208.81 105.786C208.728 106.132 208.687 106.501 208.687 106.894ZM214.584 106.331L213.591 106.551C213.591 105.977 213.67 105.435 213.828 104.925C213.992 104.409 214.229 103.958 214.54 103.571C214.856 103.179 215.246 102.871 215.709 102.648C216.172 102.426 216.702 102.314 217.3 102.314C217.786 102.314 218.22 102.382 218.601 102.517C218.987 102.646 219.315 102.851 219.585 103.132C219.854 103.413 220.06 103.779 220.2 104.23C220.341 104.676 220.411 105.215 220.411 105.848V112H218.284V105.839C218.284 105.358 218.214 104.986 218.073 104.723C217.938 104.459 217.745 104.277 217.493 104.178C217.241 104.072 216.939 104.02 216.588 104.02C216.26 104.02 215.97 104.081 215.718 104.204C215.472 104.321 215.264 104.488 215.094 104.705C214.924 104.916 214.795 105.159 214.707 105.435C214.625 105.71 214.584 106.009 214.584 106.331ZM227.952 110.093V105.558C227.952 105.218 227.891 104.925 227.768 104.679C227.645 104.433 227.457 104.242 227.205 104.107C226.959 103.973 226.648 103.905 226.273 103.905C225.928 103.905 225.629 103.964 225.377 104.081C225.125 104.198 224.929 104.356 224.788 104.556C224.647 104.755 224.577 104.98 224.577 105.232H222.468C222.468 104.857 222.559 104.494 222.74 104.143C222.922 103.791 223.186 103.478 223.531 103.202C223.877 102.927 224.29 102.71 224.771 102.552C225.251 102.394 225.79 102.314 226.388 102.314C227.103 102.314 227.735 102.435 228.286 102.675C228.843 102.915 229.279 103.278 229.596 103.765C229.918 104.245 230.079 104.849 230.079 105.575V109.803C230.079 110.236 230.108 110.626 230.167 110.972C230.231 111.312 230.322 111.607 230.439 111.859V112H228.269C228.169 111.771 228.09 111.481 228.031 111.13C227.979 110.772 227.952 110.427 227.952 110.093ZM228.26 106.217L228.277 107.526H226.757C226.364 107.526 226.019 107.564 225.72 107.641C225.421 107.711 225.172 107.816 224.973 107.957C224.773 108.098 224.624 108.268 224.524 108.467C224.425 108.666 224.375 108.892 224.375 109.144C224.375 109.396 224.434 109.627 224.551 109.838C224.668 110.043 224.838 110.204 225.061 110.321C225.289 110.438 225.564 110.497 225.887 110.497C226.32 110.497 226.698 110.409 227.021 110.233C227.349 110.052 227.606 109.832 227.794 109.574C227.981 109.311 228.081 109.062 228.093 108.827L228.778 109.768C228.708 110.008 228.588 110.266 228.418 110.541C228.248 110.816 228.025 111.08 227.75 111.332C227.48 111.578 227.155 111.78 226.774 111.938C226.399 112.097 225.966 112.176 225.474 112.176C224.853 112.176 224.299 112.053 223.812 111.807C223.326 111.555 222.945 111.218 222.67 110.796C222.395 110.368 222.257 109.885 222.257 109.346C222.257 108.842 222.351 108.396 222.538 108.01C222.731 107.617 223.013 107.289 223.382 107.025C223.757 106.762 224.214 106.562 224.753 106.428C225.292 106.287 225.907 106.217 226.599 106.217H228.26ZM234.913 110.963L237.497 102.49H239.765L235.95 113.45C235.862 113.685 235.748 113.939 235.607 114.215C235.467 114.49 235.282 114.751 235.054 114.997C234.831 115.249 234.553 115.451 234.219 115.604C233.885 115.762 233.48 115.841 233.006 115.841C232.818 115.841 232.637 115.823 232.461 115.788C232.291 115.759 232.13 115.727 231.978 115.691L231.969 114.074C232.027 114.08 232.098 114.086 232.18 114.092C232.268 114.098 232.338 114.101 232.391 114.101C232.742 114.101 233.035 114.057 233.27 113.969C233.504 113.887 233.694 113.752 233.841 113.564C233.993 113.377 234.122 113.125 234.228 112.809L234.913 110.963ZM233.454 102.49L235.713 109.609L236.091 111.842L234.623 112.22L231.169 102.49H233.454ZM247.578 104.424V112H245.46V102.49H247.455L247.578 104.424ZM247.235 106.894L246.515 106.885C246.515 106.229 246.597 105.622 246.761 105.065C246.925 104.509 247.165 104.025 247.481 103.615C247.798 103.199 248.19 102.88 248.659 102.657C249.134 102.429 249.682 102.314 250.303 102.314C250.736 102.314 251.132 102.379 251.489 102.508C251.853 102.631 252.166 102.827 252.43 103.097C252.699 103.366 252.904 103.712 253.045 104.134C253.191 104.556 253.265 105.065 253.265 105.663V112H251.146V105.848C251.146 105.385 251.076 105.021 250.936 104.758C250.801 104.494 250.604 104.307 250.347 104.195C250.095 104.078 249.793 104.02 249.441 104.02C249.043 104.02 248.703 104.096 248.422 104.248C248.146 104.4 247.921 104.608 247.745 104.872C247.569 105.136 247.44 105.44 247.358 105.786C247.276 106.132 247.235 106.501 247.235 106.894ZM253.133 106.331L252.14 106.551C252.14 105.977 252.219 105.435 252.377 104.925C252.541 104.409 252.778 103.958 253.089 103.571C253.405 103.179 253.795 102.871 254.258 102.648C254.721 102.426 255.251 102.314 255.849 102.314C256.335 102.314 256.769 102.382 257.149 102.517C257.536 102.646 257.864 102.851 258.134 103.132C258.403 103.413 258.608 103.779 258.749 104.23C258.89 104.676 258.96 105.215 258.96 105.848V112H256.833V105.839C256.833 105.358 256.763 104.986 256.622 104.723C256.487 104.459 256.294 104.277 256.042 104.178C255.79 104.072 255.488 104.02 255.137 104.02C254.809 104.02 254.519 104.081 254.267 104.204C254.021 104.321 253.812 104.488 253.643 104.705C253.473 104.916 253.344 105.159 253.256 105.435C253.174 105.71 253.133 106.009 253.133 106.331ZM266.501 110.093V105.558C266.501 105.218 266.439 104.925 266.316 104.679C266.193 104.433 266.006 104.242 265.754 104.107C265.508 103.973 265.197 103.905 264.822 103.905C264.477 103.905 264.178 103.964 263.926 104.081C263.674 104.198 263.478 104.356 263.337 104.556C263.196 104.755 263.126 104.98 263.126 105.232H261.017C261.017 104.857 261.107 104.494 261.289 104.143C261.471 103.791 261.734 103.478 262.08 103.202C262.426 102.927 262.839 102.71 263.319 102.552C263.8 102.394 264.339 102.314 264.937 102.314C265.651 102.314 266.284 102.435 266.835 102.675C267.392 102.915 267.828 103.278 268.145 103.765C268.467 104.245 268.628 104.849 268.628 105.575V109.803C268.628 110.236 268.657 110.626 268.716 110.972C268.78 111.312 268.871 111.607 268.988 111.859V112H266.817C266.718 111.771 266.639 111.481 266.58 111.13C266.527 110.772 266.501 110.427 266.501 110.093ZM266.809 106.217L266.826 107.526H265.306C264.913 107.526 264.567 107.564 264.269 107.641C263.97 107.711 263.721 107.816 263.521 107.957C263.322 108.098 263.173 108.268 263.073 108.467C262.974 108.666 262.924 108.892 262.924 109.144C262.924 109.396 262.982 109.627 263.1 109.838C263.217 110.043 263.387 110.204 263.609 110.321C263.838 110.438 264.113 110.497 264.436 110.497C264.869 110.497 265.247 110.409 265.569 110.233C265.897 110.052 266.155 109.832 266.343 109.574C266.53 109.311 266.63 109.062 266.642 108.827L267.327 109.768C267.257 110.008 267.137 110.266 266.967 110.541C266.797 110.816 266.574 111.08 266.299 111.332C266.029 111.578 265.704 111.78 265.323 111.938C264.948 112.097 264.515 112.176 264.022 112.176C263.401 112.176 262.848 112.053 262.361 111.807C261.875 111.555 261.494 111.218 261.219 110.796C260.943 110.368 260.806 109.885 260.806 109.346C260.806 108.842 260.899 108.396 261.087 108.01C261.28 107.617 261.562 107.289 261.931 107.025C262.306 106.762 262.763 106.562 263.302 106.428C263.841 106.287 264.456 106.217 265.147 106.217H266.809ZM266.334 99.2383H267.854C267.854 99.6191 267.737 99.9561 267.503 100.249C267.274 100.542 266.943 100.771 266.51 100.935C266.082 101.099 265.575 101.181 264.989 101.181C264.397 101.181 263.885 101.099 263.451 100.935C263.023 100.771 262.692 100.542 262.458 100.249C262.224 99.9561 262.106 99.6191 262.106 99.2383H263.618C263.618 99.502 263.721 99.7363 263.926 99.9414C264.131 100.141 264.485 100.24 264.989 100.24C265.476 100.24 265.821 100.141 266.026 99.9414C266.231 99.7363 266.334 99.502 266.334 99.2383ZM264.365 99.1416L265.42 97.4453H266.993L265.499 99.1416H264.365ZM272.943 104.521V112H270.825V102.49H272.82L272.943 104.521ZM272.565 106.894L271.88 106.885C271.886 106.211 271.979 105.593 272.161 105.03C272.349 104.468 272.606 103.984 272.935 103.58C273.269 103.176 273.667 102.865 274.13 102.648C274.593 102.426 275.108 102.314 275.677 102.314C276.134 102.314 276.547 102.379 276.916 102.508C277.291 102.631 277.61 102.833 277.874 103.114C278.144 103.396 278.349 103.762 278.489 104.213C278.63 104.658 278.7 105.206 278.7 105.856V112H276.573V105.848C276.573 105.391 276.506 105.03 276.371 104.767C276.242 104.497 276.052 104.307 275.8 104.195C275.554 104.078 275.246 104.02 274.877 104.02C274.514 104.02 274.188 104.096 273.901 104.248C273.614 104.4 273.371 104.608 273.172 104.872C272.979 105.136 272.829 105.44 272.724 105.786C272.618 106.132 272.565 106.501 272.565 106.894Z" fill="#484848"/>
<path d="M10 204C10 202.895 10.8954 202 12 202H207V206H12C10.8954 206 10 205.105 10 204Z" fill="#60A3F2"/>
<rect opacity="0.4" x="201" y="175" width="58" height="58" rx="14" fill="#484848"/>
<g filter="url(#filter0_d_3311_20904)">
<rect x="207" y="181" width="46" height="46" rx="10" fill="#FFFAFA"/>
<rect x="209" y="183" width="42" height="42" rx="8" stroke="url(#paint0_linear_3311_20904)" stroke-width="4"/>
</g>
<path d="M229.021 207.2C229.021 208.067 228.934 208.787 228.761 209.36C228.587 209.933 228.254 210.467 227.761 210.96C226.987 211.733 225.941 212.12 224.621 212.12C223.261 212.12 222.201 211.74 221.441 210.98C220.761 210.3 220.374 209.313 220.281 208.02H222.881C223.027 209.193 223.607 209.78 224.621 209.78C225.141 209.78 225.554 209.627 225.861 209.32C226.234 208.947 226.421 208.24 226.421 207.2C226.421 205.493 225.841 204.64 224.681 204.64C223.787 204.64 223.214 205.027 222.961 205.8H220.581V197.76H228.701V200.1H222.941V203.16C223.447 202.68 224.161 202.44 225.081 202.44C226.214 202.44 227.101 202.76 227.741 203.4C228.594 204.253 229.021 205.52 229.021 207.2ZM239.76 207.88C239.76 209.187 239.34 210.22 238.5 210.98C237.673 211.74 236.653 212.12 235.44 212.12C234.227 212.12 233.2 211.74 232.36 210.98C231.52 210.22 231.1 209.187 231.1 207.88V201.88C231.1 200.573 231.52 199.54 232.36 198.78C233.2 198.02 234.227 197.64 235.44 197.64C236.653 197.64 237.673 198.02 238.5 198.78C239.34 199.54 239.76 200.573 239.76 201.88V207.88ZM237.16 207.86V201.92C237.16 201.32 237 200.847 236.68 200.5C236.373 200.153 235.96 199.98 235.44 199.98C234.92 199.98 234.5 200.153 234.18 200.5C233.86 200.847 233.7 201.32 233.7 201.92V207.86C233.7 208.46 233.86 208.933 234.18 209.28C234.5 209.613 234.92 209.78 235.44 209.78C235.96 209.78 236.373 209.613 236.68 209.28C237 208.933 237.16 208.46 237.16 207.86Z" fill="#484848"/>
<path d="M253 202H448C449.105 202 450 202.895 450 204C450 205.105 449.105 206 448 206H253V202Z" fill="#F96B8A"/>
<g clip-path="url(#clip0_3311_20904)">
<rect x="10" y="243" width="1" height="11" fill="#ECECEC"/>
<rect x="14.4336" y="243" width="1" height="11" fill="#ECECEC"/>
<rect x="18.8672" y="243" width="1" height="11" fill="#ECECEC"/>
<rect x="23.3047" y="243" width="1" height="11" fill="#ECECEC"/>
<rect x="27.7383" y="243" width="1" height="11" fill="#ECECEC"/>
<rect x="32.1719" y="243" width="1" height="11" fill="#ECECEC"/>
<rect x="36.6055" y="243" width="1" height="11" fill="#ECECEC"/>
<rect x="41.0391" y="243" width="1" height="11" fill="#ECECEC"/>
<rect x="45.4766" y="243" width="1" height="11" fill="#ECECEC"/>
<rect x="49.9102" y="243" width="1" height="11" fill="#ECECEC"/>
<rect x="54.3438" y="243" width="1" height="11" fill="#ECECEC"/>
<rect x="58.7773" y="243" width="1" height="11" fill="#ECECEC"/>
<rect x="63.2109" y="243" width="1" height="11" fill="#ECECEC"/>
<rect x="67.6445" y="243" width="1" height="11" fill="#ECECEC"/>
<rect x="72.082" y="243" width="1" height="11" fill="#ECECEC"/>
<rect x="76.5156" y="243" width="1" height="11" fill="#ECECEC"/>
<rect x="80.9492" y="243" width="1" height="11" fill="#ECECEC"/>
<rect x="85.3828" y="243" width="1" height="11" fill="#ECECEC"/>
<rect x="89.8164" y="243" width="1" height="11" fill="#ECECEC"/>
<rect x="94.2539" y="243" width="1" height="11" fill="#ECECEC"/>
<rect x="98.6875" y="243" width="1" height="11" fill="#ECECEC"/>
<rect x="103.121" y="243" width="1" height="11" fill="#ECECEC"/>
<rect x="107.555" y="243" width="1" height="11" fill="#ECECEC"/>
<rect x="111.988" y="243" width="1" height="11" fill="#ECECEC"/>
<rect x="116.426" y="243" width="1" height="11" fill="#ECECEC"/>
<rect x="120.859" y="243" width="1" height="11" fill="#ECECEC"/>
<rect x="125.293" y="243" width="1" height="11" fill="#ECECEC"/>
<rect x="129.727" y="243" width="1" height="11" fill="#ECECEC"/>
<rect x="134.16" y="243" width="1" height="11" fill="#ECECEC"/>
<rect x="138.598" y="243" width="1" height="11" fill="#ECECEC"/>
<rect x="143.031" y="243" width="1" height="11" fill="#ECECEC"/>
<rect x="147.465" y="243" width="1" height="11" fill="#ECECEC"/>
<rect x="151.898" y="243" width="1" height="11" fill="#ECECEC"/>
<rect x="156.332" y="243" width="1" height="11" fill="#ECECEC"/>
<rect x="160.77" y="243" width="1" height="11" fill="#ECECEC"/>
<rect x="165.203" y="243" width="1" height="11" fill="#ECECEC"/>
<rect x="169.637" y="243" width="1" height="11" fill="#ECECEC"/>
<rect x="174.07" y="243" width="1" height="11" fill="#ECECEC"/>
<rect x="178.504" y="243" width="1" height="11" fill="#ECECEC"/>
<rect x="182.938" y="243" width="1" height="11" fill="#ECECEC"/>
<rect x="187.375" y="243" width="1" height="11" fill="#ECECEC"/>
<rect x="191.809" y="243" width="1" height="11" fill="#ECECEC"/>
<rect x="196.242" y="243" width="1" height="11" fill="#ECECEC"/>
<rect x="200.676" y="243" width="1" height="11" fill="#ECECEC"/>
<rect x="205.109" y="243" width="1" height="11" fill="#ECECEC"/>
<rect x="209.547" y="243" width="1" height="11" fill="#ECECEC"/>
<rect x="213.98" y="243" width="1" height="11" fill="#ECECEC"/>
<rect x="218.414" y="243" width="1" height="11" fill="#ECECEC"/>
<rect x="222.848" y="243" width="1" height="11" fill="#ECECEC"/>
<rect x="227.281" y="243" width="1" height="11" fill="#ECECEC"/>
<rect x="231.719" y="243" width="1" height="11" fill="#ECECEC"/>
<rect x="236.152" y="243" width="1" height="11" fill="#ECECEC"/>
<rect x="240.586" y="243" width="1" height="11" fill="#ECECEC"/>
<rect x="245.02" y="243" width="1" height="11" fill="#ECECEC"/>
<rect x="249.453" y="243" width="1" height="11" fill="#ECECEC"/>
<rect x="253.891" y="243" width="1" height="11" fill="#ECECEC"/>
<rect x="258.324" y="243" width="1" height="11" fill="#ECECEC"/>
<rect x="262.758" y="243" width="1" height="11" fill="#ECECEC"/>
<rect x="267.191" y="243" width="1" height="11" fill="#ECECEC"/>
<rect x="271.625" y="243" width="1" height="11" fill="#ECECEC"/>
<rect x="276.062" y="243" width="1" height="11" fill="#ECECEC"/>
<rect x="280.496" y="243" width="1" height="11" fill="#ECECEC"/>
<rect x="284.93" y="243" width="1" height="11" fill="#ECECEC"/>
<rect x="289.363" y="243" width="1" height="11" fill="#ECECEC"/>
<rect x="293.797" y="243" width="1" height="11" fill="#ECECEC"/>
<rect x="298.23" y="243" width="1" height="11" fill="#ECECEC"/>
<rect x="302.668" y="243" width="1" height="11" fill="#ECECEC"/>
<rect x="307.102" y="243" width="1" height="11" fill="#ECECEC"/>
<rect x="311.535" y="243" width="1" height="11" fill="#ECECEC"/>
<rect x="315.969" y="243" width="1" height="11" fill="#ECECEC"/>
<rect x="320.402" y="243" width="1" height="11" fill="#ECECEC"/>
<rect x="324.84" y="243" width="1" height="11" fill="#ECECEC"/>
<rect x="329.273" y="243" width="1" height="11" fill="#ECECEC"/>
<rect x="333.707" y="243" width="1" height="11" fill="#ECECEC"/>
<rect x="338.141" y="243" width="1" height="11" fill="#ECECEC"/>
<rect x="342.574" y="243" width="1" height="11" fill="#ECECEC"/>
<rect x="347.012" y="243" width="1" height="11" fill="#ECECEC"/>
<rect x="351.445" y="243" width="1" height="11" fill="#ECECEC"/>
<rect x="355.879" y="243" width="1" height="11" fill="#ECECEC"/>
<rect x="360.312" y="243" width="1" height="11" fill="#ECECEC"/>
<rect x="364.746" y="243" width="1" height="11" fill="#ECECEC"/>
<rect x="369.184" y="243" width="1" height="11" fill="#ECECEC"/>
<rect x="373.617" y="243" width="1" height="11" fill="#ECECEC"/>
<rect x="378.051" y="243" width="1" height="11" fill="#ECECEC"/>
<rect x="382.484" y="243" width="1" height="11" fill="#ECECEC"/>
<rect x="386.918" y="243" width="1" height="11" fill="#ECECEC"/>
<rect x="391.355" y="243" width="1" height="11" fill="#ECECEC"/>
<rect x="395.789" y="243" width="1" height="11" fill="#ECECEC"/>
<rect x="400.223" y="243" width="1" height="11" fill="#ECECEC"/>
<rect x="404.656" y="243" width="1" height="11" fill="#ECECEC"/>
<rect x="409.09" y="243" width="1" height="11" fill="#ECECEC"/>
<rect x="413.527" y="243" width="1" height="11" fill="#ECECEC"/>
<rect x="417.961" y="243" width="1" height="11" fill="#ECECEC"/>
<rect x="422.395" y="243" width="1" height="11" fill="#ECECEC"/>
<rect x="426.828" y="243" width="1" height="11" fill="#ECECEC"/>
<rect x="431.262" y="243" width="1" height="11" fill="#ECECEC"/>
<rect x="435.699" y="243" width="1" height="11" fill="#ECECEC"/>
<rect x="440.133" y="243" width="1" height="11" fill="#ECECEC"/>
<rect x="444.566" y="243" width="1" height="11" fill="#ECECEC"/>
<rect x="449" y="243" width="1" height="11" fill="#ECECEC"/>
</g>
<defs>
<filter id="filter0_d_3311_20904" x="203" y="179" width="54" height="54" filterUnits="userSpaceOnUse" color-interpolation-filters="sRGB">
<feFlood flood-opacity="0" result="BackgroundImageFix"/>
<feColorMatrix in="SourceAlpha" type="matrix" values="0 0 0 0 0 0 0 0 0 0 0 0 0 0 0 0 0 0 127 0" result="hardAlpha"/>
<feOffset dy="2"/>
<feGaussianBlur stdDeviation="2"/>
<feComposite in2="hardAlpha" operator="out"/>
<feColorMatrix type="matrix" values="0 0 0 0 0 0 0 0 0 0 0 0 0 0 0 0 0 0 0.3 0"/>
<feBlend mode="normal" in2="BackgroundImageFix" result="effect1_dropShadow_3311_20904"/>
<feBlend mode="normal" in="SourceGraphic" in2="effect1_dropShadow_3311_20904" result="shape"/>
</filter>
<linearGradient id="paint0_linear_3311_20904" x1="230" y1="181" x2="230" y2="227" gradientUnits="userSpaceOnUse">
<stop stop-color="white"/>
<stop offset="1" stop-color="#CFCFCF"/>
</linearGradient>
<clipPath id="clip0_3311_20904">
<rect width="440" height="11" fill="white" transform="translate(10 243)"/>
</clipPath>
</defs>
</svg>
