<svg width="460" height="290" viewBox="0 0 460 290" fill="none" xmlns="http://www.w3.org/2000/svg">
<rect width="460" height="290" rx="10" fill="#F4F7FD"/>
<rect x="10" y="32" width="440" height="103" rx="8" fill="white"/>
<path d="M213.841 72C213.841 74.1667 213.624 75.9667 213.191 77.4C212.757 78.8333 211.924 80.1667 210.691 81.4C208.757 83.3333 206.141 84.3 202.841 84.3C199.441 84.3 196.791 83.35 194.891 81.45C193.191 79.75 192.224 77.2833 191.991 74.05H198.491C198.857 76.9833 200.307 78.45 202.841 78.45C204.141 78.45 205.174 78.0667 205.941 77.3C206.874 76.3667 207.341 74.6 207.341 72C207.341 67.7333 205.891 65.6 202.991 65.6C200.757 65.6 199.324 66.5667 198.691 68.5H192.741V48.4H213.041V54.25H198.641V61.9C199.907 60.7 201.691 60.1 203.991 60.1C206.824 60.1 209.041 60.9 210.641 62.5C212.774 64.6333 213.841 67.8 213.841 72ZM240.689 73.7C240.689 76.9667 239.639 79.55 237.539 81.45C235.472 83.35 232.922 84.3 229.889 84.3C226.856 84.3 224.289 83.35 222.189 81.45C220.089 79.55 219.039 76.9667 219.039 73.7V58.7C219.039 55.4333 220.089 52.85 222.189 50.95C224.289 49.05 226.856 48.1 229.889 48.1C232.922 48.1 235.472 49.05 237.539 50.95C239.639 52.85 240.689 55.4333 240.689 58.7V73.7ZM234.189 73.65V58.8C234.189 57.3 233.789 56.1167 232.989 55.25C232.222 54.3833 231.189 53.95 229.889 53.95C228.589 53.95 227.539 54.3833 226.739 55.25C225.939 56.1167 225.539 57.3 225.539 58.8V73.65C225.539 75.15 225.939 76.3333 226.739 77.2C227.539 78.0333 228.589 78.45 229.889 78.45C231.189 78.45 232.222 78.0333 232.989 77.2C233.789 76.3333 234.189 75.15 234.189 73.65ZM247.778 84H244.798V81.04H247.778V84ZM258.981 84H250.321V81.66L255.641 75.48C256.134 74.8933 256.381 74.32 256.381 73.76C256.381 73.2267 256.227 72.8 255.921 72.48C255.627 72.1467 255.207 71.98 254.661 71.98C254.167 71.98 253.754 72.1267 253.421 72.42C253.087 72.7 252.921 73.16 252.921 73.8H250.321C250.321 72.5333 250.727 71.5267 251.541 70.78C252.367 70.02 253.407 69.64 254.661 69.64C255.941 69.64 256.981 70.0133 257.781 70.76C258.581 71.5067 258.981 72.5133 258.981 73.78C258.981 74.42 258.867 74.96 258.641 75.4C258.414 75.84 258.021 76.3867 257.461 77.04L253.481 81.66H258.981V84ZM269.9 79.88C269.9 81.24 269.467 82.2867 268.6 83.02C267.747 83.7533 266.673 84.12 265.38 84.12C264.113 84.12 263.04 83.7733 262.16 83.08C261.293 82.3733 260.853 81.32 260.84 79.92H263.44C263.453 80.5333 263.64 81 264 81.32C264.373 81.6267 264.833 81.78 265.38 81.78C265.953 81.78 266.413 81.6067 266.76 81.26C267.12 80.9133 267.3 80.4267 267.3 79.8C267.3 79.2 267.12 78.7267 266.76 78.38C266.413 78.02 265.927 77.84 265.3 77.84H264.92V75.58H265.3C265.9 75.58 266.347 75.42 266.64 75.1C266.947 74.7667 267.1 74.3333 267.1 73.8C267.1 73.2267 266.933 72.78 266.6 72.46C266.267 72.14 265.853 71.98 265.36 71.98C264.867 71.98 264.453 72.1333 264.12 72.44C263.8 72.7467 263.627 73.1667 263.6 73.7H261C261.027 72.46 261.453 71.4733 262.28 70.74C263.107 70.0067 264.133 69.64 265.36 69.64C266.627 69.64 267.667 70.02 268.48 70.78C269.293 71.54 269.7 72.52 269.7 73.72C269.7 75.08 269.153 76.0533 268.06 76.64C269.287 77.2933 269.9 78.3733 269.9 79.88Z" fill="#484848"/>
<path d="M202.172 99.24H203.828V100.986H209.516V102.552H203.828V104.262H210.578V105.882H207.32C207.092 106.602 206.786 107.304 206.402 107.988H209.498V109.572H203.828V111.282H210.866V112.902H203.828V115.836H202.172V112.902H195.134V111.282H202.172V109.572H196.502V107.988H199.526C199.274 107.232 199.004 106.53 198.716 105.882H195.422V104.262H202.172V102.552H196.484V100.986H202.172V99.24ZM204.692 107.988C205.076 107.328 205.37 106.626 205.574 105.882H200.48C200.768 106.65 201.014 107.352 201.218 107.988H204.692ZM219.29 99.852H227.48V101.436H219.29V99.852ZM218.102 104.118H228.758V105.72H223.196C222.368 107.856 221.576 109.494 220.82 110.634C222.92 110.418 224.69 110.148 226.13 109.824C225.686 108.804 225.266 107.934 224.87 107.214L226.256 106.764C227.216 108.396 228.068 110.286 228.812 112.434L227.282 112.83C227.102 112.302 226.922 111.798 226.742 111.318C224.714 111.726 222.122 112.062 218.966 112.326L218.516 110.85C219.2 110.634 220.19 108.924 221.486 105.72H218.102V104.118ZM214.466 99.42C215.654 100.356 216.662 101.292 217.49 102.228L216.266 103.452C215.582 102.576 214.586 101.61 213.278 100.554L214.466 99.42ZM224.78 115.548C224.348 115.548 223.838 115.542 223.25 115.53H222.44L221.612 115.512C220.484 115.5 219.536 115.398 218.768 115.206C218.072 115.002 217.454 114.582 216.914 113.946C216.662 113.646 216.434 113.496 216.23 113.496C215.858 113.496 215.21 114.306 214.286 115.926L213.026 114.756C213.926 113.292 214.742 112.38 215.474 112.02V106.926H213.044V105.342H217.076V112.164L217.202 112.272L217.328 112.416C217.724 112.896 218.15 113.256 218.606 113.496C219.158 113.76 219.938 113.91 220.946 113.946C222.29 113.97 223.484 113.982 224.528 113.982C225.116 113.982 226.01 113.97 227.21 113.946C228.002 113.934 228.698 113.904 229.298 113.856L228.884 115.548H224.78ZM242.006 103.488C241.934 103.776 241.862 104.046 241.79 104.298C242.21 106.146 242.732 107.766 243.356 109.158C243.92 107.562 244.238 105.672 244.31 103.488H242.006ZM242.582 110.922C241.958 109.686 241.418 108.288 240.962 106.728C240.638 107.484 240.338 108.09 240.062 108.546L238.982 107.214C239.99 105.234 240.674 102.57 241.034 99.222L242.708 99.51C242.576 100.506 242.456 101.286 242.348 101.85H246.92V103.488H245.894C245.786 106.416 245.258 108.906 244.31 110.958C245.222 112.434 246.278 113.568 247.478 114.36L246.488 115.8C245.348 114.972 244.346 113.88 243.482 112.524C242.606 113.88 241.538 115.008 240.278 115.908L239.378 114.45C240.722 113.55 241.79 112.374 242.582 110.922ZM235.67 107.772L235.526 108.186L235.364 108.6H239.018V110.04C238.694 111.12 238.124 112.068 237.308 112.884C238.184 113.28 238.886 113.616 239.414 113.892L238.496 115.26C237.812 114.864 236.972 114.432 235.976 113.964C234.812 114.72 233.324 115.338 231.512 115.818L230.684 114.36C232.028 114.036 233.186 113.64 234.158 113.172C233.594 112.932 232.808 112.614 231.8 112.218C232.256 111.462 232.646 110.766 232.97 110.13H231.098V108.6H233.654L233.834 108.078L234.014 107.592L235.67 107.772ZM235.688 112.218C236.468 111.618 237.05 110.922 237.434 110.13H234.698C234.458 110.61 234.188 111.084 233.888 111.552C234.572 111.792 235.172 112.014 235.688 112.218ZM232.754 99.6C233.138 100.224 233.504 100.938 233.852 101.742L232.52 102.354C232.148 101.454 231.752 100.692 231.332 100.068L232.754 99.6ZM239.216 100.158C238.844 100.95 238.388 101.7 237.848 102.408L236.588 101.742C237.08 101.046 237.506 100.302 237.866 99.51L239.216 100.158ZM231.152 102.57H234.554V99.258H236.12V102.57H239.252V104.064H236.12V104.154C237.02 104.526 237.992 104.988 239.036 105.54L238.136 106.89C237.284 106.206 236.612 105.708 236.12 105.396V107.412H234.554V104.37C233.966 105.666 232.976 106.8 231.584 107.772L230.738 106.386C231.974 105.678 232.868 104.904 233.42 104.064H231.152V102.57ZM264.74 100.986V105.198H263.012V102.606H250.988V105.198H249.26V100.986H256.136C255.836 100.314 255.572 99.78 255.344 99.384L257.306 99.06C257.594 99.72 257.84 100.362 258.044 100.986H264.74ZM252.086 104.208H261.878V105.792C260.678 106.632 259.412 107.418 258.08 108.15V109.032H265.028V110.688H258.08V114.072C258.08 115.212 257.486 115.782 256.298 115.782H254.084L253.67 114.234C254.51 114.258 255.194 114.27 255.722 114.27C256.154 114.27 256.37 114.006 256.37 113.478V110.688H248.99V109.032H256.37V107.448C257.546 106.824 258.536 106.272 259.34 105.792H252.086V104.208Z" fill="#484848"/>
<path d="M10 208C10 206.895 10.8954 206 12 206H207V210H12C10.8954 210 10 209.105 10 208Z" fill="#60A3F2"/>
<rect opacity="0.4" x="201" y="179" width="58" height="58" rx="14" fill="#484848"/>
<g filter="url(#filter0_d_3311_20468)">
<rect x="207" y="185" width="46" height="46" rx="10" fill="#FFFAFA"/>
<rect x="209" y="187" width="42" height="42" rx="8" stroke="url(#paint0_linear_3311_20468)" stroke-width="4"/>
</g>
<path d="M229.021 211.2C229.021 212.067 228.934 212.787 228.761 213.36C228.587 213.933 228.254 214.467 227.761 214.96C226.987 215.733 225.941 216.12 224.621 216.12C223.261 216.12 222.201 215.74 221.441 214.98C220.761 214.3 220.374 213.313 220.281 212.02H222.881C223.027 213.193 223.607 213.78 224.621 213.78C225.141 213.78 225.554 213.627 225.861 213.32C226.234 212.947 226.421 212.24 226.421 211.2C226.421 209.493 225.841 208.64 224.681 208.64C223.787 208.64 223.214 209.027 222.961 209.8H220.581V201.76H228.701V204.1H222.941V207.16C223.447 206.68 224.161 206.44 225.081 206.44C226.214 206.44 227.101 206.76 227.741 207.4C228.594 208.253 229.021 209.52 229.021 211.2ZM239.76 211.88C239.76 213.187 239.34 214.22 238.5 214.98C237.673 215.74 236.653 216.12 235.44 216.12C234.227 216.12 233.2 215.74 232.36 214.98C231.52 214.22 231.1 213.187 231.1 211.88V205.88C231.1 204.573 231.52 203.54 232.36 202.78C233.2 202.02 234.227 201.64 235.44 201.64C236.653 201.64 237.673 202.02 238.5 202.78C239.34 203.54 239.76 204.573 239.76 205.88V211.88ZM237.16 211.86V205.92C237.16 205.32 237 204.847 236.68 204.5C236.373 204.153 235.96 203.98 235.44 203.98C234.92 203.98 234.5 204.153 234.18 204.5C233.86 204.847 233.7 205.32 233.7 205.92V211.86C233.7 212.46 233.86 212.933 234.18 213.28C234.5 213.613 234.92 213.78 235.44 213.78C235.96 213.78 236.373 213.613 236.68 213.28C237 212.933 237.16 212.46 237.16 211.86Z" fill="#484848"/>
<path d="M253 206H448C449.105 206 450 206.895 450 208C450 209.105 449.105 210 448 210H253V206Z" fill="#F96B8A"/>
<g clip-path="url(#clip0_3311_20468)">
<rect x="10" y="247" width="1" height="11" fill="#ECECEC"/>
<rect x="14.4336" y="247" width="1" height="11" fill="#ECECEC"/>
<rect x="18.8672" y="247" width="1" height="11" fill="#ECECEC"/>
<rect x="23.3047" y="247" width="1" height="11" fill="#ECECEC"/>
<rect x="27.7383" y="247" width="1" height="11" fill="#ECECEC"/>
<rect x="32.1719" y="247" width="1" height="11" fill="#ECECEC"/>
<rect x="36.6055" y="247" width="1" height="11" fill="#ECECEC"/>
<rect x="41.0391" y="247" width="1" height="11" fill="#ECECEC"/>
<rect x="45.4766" y="247" width="1" height="11" fill="#ECECEC"/>
<rect x="49.9102" y="247" width="1" height="11" fill="#ECECEC"/>
<rect x="54.3438" y="247" width="1" height="11" fill="#ECECEC"/>
<rect x="58.7773" y="247" width="1" height="11" fill="#ECECEC"/>
<rect x="63.2109" y="247" width="1" height="11" fill="#ECECEC"/>
<rect x="67.6445" y="247" width="1" height="11" fill="#ECECEC"/>
<rect x="72.082" y="247" width="1" height="11" fill="#ECECEC"/>
<rect x="76.5156" y="247" width="1" height="11" fill="#ECECEC"/>
<rect x="80.9492" y="247" width="1" height="11" fill="#ECECEC"/>
<rect x="85.3828" y="247" width="1" height="11" fill="#ECECEC"/>
<rect x="89.8164" y="247" width="1" height="11" fill="#ECECEC"/>
<rect x="94.2539" y="247" width="1" height="11" fill="#ECECEC"/>
<rect x="98.6875" y="247" width="1" height="11" fill="#ECECEC"/>
<rect x="103.121" y="247" width="1" height="11" fill="#ECECEC"/>
<rect x="107.555" y="247" width="1" height="11" fill="#ECECEC"/>
<rect x="111.988" y="247" width="1" height="11" fill="#ECECEC"/>
<rect x="116.426" y="247" width="1" height="11" fill="#ECECEC"/>
<rect x="120.859" y="247" width="1" height="11" fill="#ECECEC"/>
<rect x="125.293" y="247" width="1" height="11" fill="#ECECEC"/>
<rect x="129.727" y="247" width="1" height="11" fill="#ECECEC"/>
<rect x="134.16" y="247" width="1" height="11" fill="#ECECEC"/>
<rect x="138.598" y="247" width="1" height="11" fill="#ECECEC"/>
<rect x="143.031" y="247" width="1" height="11" fill="#ECECEC"/>
<rect x="147.465" y="247" width="1" height="11" fill="#ECECEC"/>
<rect x="151.898" y="247" width="1" height="11" fill="#ECECEC"/>
<rect x="156.332" y="247" width="1" height="11" fill="#ECECEC"/>
<rect x="160.77" y="247" width="1" height="11" fill="#ECECEC"/>
<rect x="165.203" y="247" width="1" height="11" fill="#ECECEC"/>
<rect x="169.637" y="247" width="1" height="11" fill="#ECECEC"/>
<rect x="174.07" y="247" width="1" height="11" fill="#ECECEC"/>
<rect x="178.504" y="247" width="1" height="11" fill="#ECECEC"/>
<rect x="182.938" y="247" width="1" height="11" fill="#ECECEC"/>
<rect x="187.375" y="247" width="1" height="11" fill="#ECECEC"/>
<rect x="191.809" y="247" width="1" height="11" fill="#ECECEC"/>
<rect x="196.242" y="247" width="1" height="11" fill="#ECECEC"/>
<rect x="200.676" y="247" width="1" height="11" fill="#ECECEC"/>
<rect x="205.109" y="247" width="1" height="11" fill="#ECECEC"/>
<rect x="209.547" y="247" width="1" height="11" fill="#ECECEC"/>
<rect x="213.98" y="247" width="1" height="11" fill="#ECECEC"/>
<rect x="218.414" y="247" width="1" height="11" fill="#ECECEC"/>
<rect x="222.848" y="247" width="1" height="11" fill="#ECECEC"/>
<rect x="227.281" y="247" width="1" height="11" fill="#ECECEC"/>
<rect x="231.719" y="247" width="1" height="11" fill="#ECECEC"/>
<rect x="236.152" y="247" width="1" height="11" fill="#ECECEC"/>
<rect x="240.586" y="247" width="1" height="11" fill="#ECECEC"/>
<rect x="245.02" y="247" width="1" height="11" fill="#ECECEC"/>
<rect x="249.453" y="247" width="1" height="11" fill="#ECECEC"/>
<rect x="253.891" y="247" width="1" height="11" fill="#ECECEC"/>
<rect x="258.324" y="247" width="1" height="11" fill="#ECECEC"/>
<rect x="262.758" y="247" width="1" height="11" fill="#ECECEC"/>
<rect x="267.191" y="247" width="1" height="11" fill="#ECECEC"/>
<rect x="271.625" y="247" width="1" height="11" fill="#ECECEC"/>
<rect x="276.062" y="247" width="1" height="11" fill="#ECECEC"/>
<rect x="280.496" y="247" width="1" height="11" fill="#ECECEC"/>
<rect x="284.93" y="247" width="1" height="11" fill="#ECECEC"/>
<rect x="289.363" y="247" width="1" height="11" fill="#ECECEC"/>
<rect x="293.797" y="247" width="1" height="11" fill="#ECECEC"/>
<rect x="298.23" y="247" width="1" height="11" fill="#ECECEC"/>
<rect x="302.668" y="247" width="1" height="11" fill="#ECECEC"/>
<rect x="307.102" y="247" width="1" height="11" fill="#ECECEC"/>
<rect x="311.535" y="247" width="1" height="11" fill="#ECECEC"/>
<rect x="315.969" y="247" width="1" height="11" fill="#ECECEC"/>
<rect x="320.402" y="247" width="1" height="11" fill="#ECECEC"/>
<rect x="324.84" y="247" width="1" height="11" fill="#ECECEC"/>
<rect x="329.273" y="247" width="1" height="11" fill="#ECECEC"/>
<rect x="333.707" y="247" width="1" height="11" fill="#ECECEC"/>
<rect x="338.141" y="247" width="1" height="11" fill="#ECECEC"/>
<rect x="342.574" y="247" width="1" height="11" fill="#ECECEC"/>
<rect x="347.012" y="247" width="1" height="11" fill="#ECECEC"/>
<rect x="351.445" y="247" width="1" height="11" fill="#ECECEC"/>
<rect x="355.879" y="247" width="1" height="11" fill="#ECECEC"/>
<rect x="360.312" y="247" width="1" height="11" fill="#ECECEC"/>
<rect x="364.746" y="247" width="1" height="11" fill="#ECECEC"/>
<rect x="369.184" y="247" width="1" height="11" fill="#ECECEC"/>
<rect x="373.617" y="247" width="1" height="11" fill="#ECECEC"/>
<rect x="378.051" y="247" width="1" height="11" fill="#ECECEC"/>
<rect x="382.484" y="247" width="1" height="11" fill="#ECECEC"/>
<rect x="386.918" y="247" width="1" height="11" fill="#ECECEC"/>
<rect x="391.355" y="247" width="1" height="11" fill="#ECECEC"/>
<rect x="395.789" y="247" width="1" height="11" fill="#ECECEC"/>
<rect x="400.223" y="247" width="1" height="11" fill="#ECECEC"/>
<rect x="404.656" y="247" width="1" height="11" fill="#ECECEC"/>
<rect x="409.09" y="247" width="1" height="11" fill="#ECECEC"/>
<rect x="413.527" y="247" width="1" height="11" fill="#ECECEC"/>
<rect x="417.961" y="247" width="1" height="11" fill="#ECECEC"/>
<rect x="422.395" y="247" width="1" height="11" fill="#ECECEC"/>
<rect x="426.828" y="247" width="1" height="11" fill="#ECECEC"/>
<rect x="431.262" y="247" width="1" height="11" fill="#ECECEC"/>
<rect x="435.699" y="247" width="1" height="11" fill="#ECECEC"/>
<rect x="440.133" y="247" width="1" height="11" fill="#ECECEC"/>
<rect x="444.566" y="247" width="1" height="11" fill="#ECECEC"/>
<rect x="449" y="247" width="1" height="11" fill="#ECECEC"/>
</g>
<defs>
<filter id="filter0_d_3311_20468" x="203" y="183" width="54" height="54" filterUnits="userSpaceOnUse" color-interpolation-filters="sRGB">
<feFlood flood-opacity="0" result="BackgroundImageFix"/>
<feColorMatrix in="SourceAlpha" type="matrix" values="0 0 0 0 0 0 0 0 0 0 0 0 0 0 0 0 0 0 127 0" result="hardAlpha"/>
<feOffset dy="2"/>
<feGaussianBlur stdDeviation="2"/>
<feComposite in2="hardAlpha" operator="out"/>
<feColorMatrix type="matrix" values="0 0 0 0 0 0 0 0 0 0 0 0 0 0 0 0 0 0 0.3 0"/>
<feBlend mode="normal" in2="BackgroundImageFix" result="effect1_dropShadow_3311_20468"/>
<feBlend mode="normal" in="SourceGraphic" in2="effect1_dropShadow_3311_20468" result="shape"/>
</filter>
<linearGradient id="paint0_linear_3311_20468" x1="230" y1="185" x2="230" y2="231" gradientUnits="userSpaceOnUse">
<stop stop-color="white"/>
<stop offset="1" stop-color="#CFCFCF"/>
</linearGradient>
<clipPath id="clip0_3311_20468">
<rect width="440" height="11" fill="white" transform="translate(10 247)"/>
</clipPath>
</defs>
</svg>
