<svg width="25" height="24" viewBox="0 0 25 24" fill="none" xmlns="http://www.w3.org/2000/svg">
<circle cx="12.2" cy="12" r="12" fill="#F0F0F0"/>
<path d="M17.5997 16.1997L8.00001 6.59998C7.66865 6.26862 7.1314 6.26862 6.80004 6.59998C6.46868 6.93134 6.46868 7.46859 6.80004 7.79995L16.3998 17.3997C16.7311 17.731 17.2684 17.731 17.5997 17.3997C17.9311 17.0683 17.9311 16.5311 17.5997 16.1997Z" fill="#A5AAAD"/>
<path d="M8.00035 17.3996L17.6001 7.79993C17.9314 7.46857 17.9314 6.93133 17.6001 6.59997C17.2687 6.26861 16.7315 6.26861 16.4001 6.59997L6.80038 16.1997C6.46902 16.531 6.46902 17.0683 6.80038 17.3996C7.13174 17.731 7.66899 17.731 8.00035 17.3996Z" fill="#A5AAAD"/>
</svg>
