<svg width="50" height="50" viewBox="0 0 50 50" fill="none" xmlns="http://www.w3.org/2000/svg">
<path fill-rule="evenodd" clip-rule="evenodd" d="M35.8438 17.5116C34.5977 17.5116 33.4103 17.7774 32.3274 18.2569C33.3442 16.6881 33.9409 14.7876 33.9409 12.738C33.9409 7.3599 29.8413 3 24.7845 3C19.7277 3 15.6283 7.3599 15.6283 12.738C15.6283 14.6894 16.17 16.5051 17.0992 18.0287C16.1754 17.6952 15.1861 17.5116 14.1562 17.5116C9.09925 17.5116 5 21.8715 5 27.2497C5 32.6278 9.09925 36.9877 14.1562 36.9877C15.2983 36.9877 16.3907 36.7634 17.3989 36.357C17.3988 36.3592 21.6602 35.1354 24.4614 29.7128V32.9778C24.4614 32.9778 23.0252 43.2696 12.8995 44.3962H11.2836V46H38.86V44.3962H37.2442C27.1186 43.2696 25.6821 32.9778 25.6821 32.9778V29.9326C26.2039 31.1545 29.0886 37.1292 35.5717 36.9809C35.6623 36.9831 35.7525 36.9877 35.8438 36.9877C40.9008 36.9877 45 32.6278 45 27.2497C45 21.8715 40.9008 17.5116 35.8438 17.5116Z" fill="#242424"/>
</svg>
