<svg width="55" height="55" viewBox="0 0 55 55" fill="none" xmlns="http://www.w3.org/2000/svg">
<g filter="url(#filter0_d_1788_4004)">
<rect x="16.5" y="12.5" width="22" height="22" rx="4.5" fill="url(#paint0_linear_1788_4004)" stroke="#55657E" stroke-width="3"/>
<path fill-rule="evenodd" clip-rule="evenodd" d="M26.7509 28.1605C27.1487 28.608 27.8479 28.608 28.2457 28.1605L31.5189 24.4782C32.0921 23.8333 31.6343 22.8138 30.7715 22.8138L24.2252 22.8138C23.3623 22.8138 22.9045 23.8333 23.4778 24.4782L26.7509 28.1605ZM24.7483 22.8137L30.2483 22.8137L30.2483 19.0012C30.2483 18.449 29.8006 18.0012 29.2483 18.0012L25.7483 18.0012C25.196 18.0012 24.7483 18.449 24.7483 19.0012L24.7483 22.8137Z" fill="white"/>
</g>
<defs>
<filter id="filter0_d_1788_4004" x="0" y="0" width="55" height="55" filterUnits="userSpaceOnUse" color-interpolation-filters="sRGB">
<feFlood flood-opacity="0" result="BackgroundImageFix"/>
<feColorMatrix in="SourceAlpha" type="matrix" values="0 0 0 0 0 0 0 0 0 0 0 0 0 0 0 0 0 0 127 0" result="hardAlpha"/>
<feOffset dy="4"/>
<feGaussianBlur stdDeviation="7.5"/>
<feComposite in2="hardAlpha" operator="out"/>
<feColorMatrix type="matrix" values="0 0 0 0 0 0 0 0 0 0 0 0 0 0 0 0 0 0 0.25 0"/>
<feBlend mode="normal" in2="BackgroundImageFix" result="effect1_dropShadow_1788_4004"/>
<feBlend mode="normal" in="SourceGraphic" in2="effect1_dropShadow_1788_4004" result="shape"/>
</filter>
<linearGradient id="paint0_linear_1788_4004" x1="27.5" y1="11" x2="27.5" y2="36" gradientUnits="userSpaceOnUse">
<stop stop-color="#2283F6"/>
<stop offset="1" stop-color="#1252CF"/>
</linearGradient>
</defs>
</svg>
