<svg width="55" height="55" viewBox="0 0 55 55" fill="none" xmlns="http://www.w3.org/2000/svg">
<g filter="url(#filter0_d_2293_13940)">
<g clip-path="url(#clip0_2293_13940)">
<rect x="16.5" y="12.5" width="22" height="22" rx="4.5" fill="url(#paint0_linear_2293_13940)" stroke="#55657E" stroke-width="3"/>
<rect x="15.75" y="11.75" width="23.5" height="23.5" rx="5.25" stroke="#EE3D3D" stroke-width="1.5"/>
<path d="M22.6875 21.0625C22.6875 20.5102 23.1352 20.0625 23.6875 20.0625H31.3125C31.8648 20.0625 32.3125 20.5102 32.3125 21.0625V21.8125C32.3125 22.3648 31.8648 22.8125 31.3125 22.8125H23.6875C23.1352 22.8125 22.6875 22.3648 22.6875 21.8125V21.0625Z" fill="white"/>
<path d="M22.6875 25.1875C22.6875 24.6352 23.1352 24.1875 23.6875 24.1875H31.3125C31.8648 24.1875 32.3125 24.6352 32.3125 25.1875V25.9375C32.3125 26.4898 31.8648 26.9375 31.3125 26.9375H23.6875C23.1352 26.9375 22.6875 26.4898 22.6875 25.9375V25.1875Z" fill="white"/>
</g>
</g>
<defs>
<filter id="filter0_d_2293_13940" x="0" y="0" width="55" height="55" filterUnits="userSpaceOnUse" color-interpolation-filters="sRGB">
<feFlood flood-opacity="0" result="BackgroundImageFix"/>
<feColorMatrix in="SourceAlpha" type="matrix" values="0 0 0 0 0 0 0 0 0 0 0 0 0 0 0 0 0 0 127 0" result="hardAlpha"/>
<feOffset dy="4"/>
<feGaussianBlur stdDeviation="7.5"/>
<feComposite in2="hardAlpha" operator="out"/>
<feColorMatrix type="matrix" values="0 0 0 0 0 0 0 0 0 0 0 0 0 0 0 0 0 0 0.25 0"/>
<feBlend mode="normal" in2="BackgroundImageFix" result="effect1_dropShadow_2293_13940"/>
<feBlend mode="normal" in="SourceGraphic" in2="effect1_dropShadow_2293_13940" result="shape"/>
</filter>
<linearGradient id="paint0_linear_2293_13940" x1="15" y1="36" x2="15" y2="11" gradientUnits="userSpaceOnUse">
<stop stop-color="#F04E23"/>
<stop offset="1" stop-color="#FC8A3E"/>
</linearGradient>
<clipPath id="clip0_2293_13940">
<rect x="15" y="11" width="25" height="25" rx="6" fill="white"/>
</clipPath>
</defs>
</svg>
