<svg width="50" height="50" viewBox="0 0 50 50" fill="none" xmlns="http://www.w3.org/2000/svg">
<path fill-rule="evenodd" clip-rule="evenodd" d="M34.3975 35.1291C42.1347 35.216 46.8946 30.2596 44.2764 25.0425C41.6583 19.8252 39.0483 18.6514 34.9384 14.869C30.8266 11.0865 24.8475 4.54337 24.8758 3C24.906 4.54337 19.1733 11.0865 15.0614 14.869C10.9515 18.6514 8.34351 19.8252 5.72338 25.0425C3.10527 30.2596 7.86713 35.216 15.6024 35.1291C20.9133 35.0693 23.3033 32.0188 24.2783 30.1116L24.2783 32.6077C24.2783 32.6077 22.5827 41.6114 10.6164 42.597L8.70888 42.597L8.70888 44L41.293 44L41.293 42.597L39.3834 42.597C27.4192 41.6114 25.7216 32.6077 25.7216 32.6077L25.7216 30.4394C26.8701 32.3486 29.3813 35.0726 34.3975 35.1291Z" fill="#242424"/>
</svg>
