<svg width="23" height="22" viewBox="0 0 23 22" fill="none" xmlns="http://www.w3.org/2000/svg">
<path d="M18.2539 18.7867L15.599 16.1309C14.1292 17.3359 12.2524 17.9295 10.357 17.789C8.4616 17.6484 6.69284 16.7844 5.41685 15.3758C4.14086 13.9672 3.45536 12.1219 3.50226 10.2219C3.54915 8.32192 4.32485 6.51268 5.66876 5.16876C7.01268 3.82485 8.82192 3.04915 10.7219 3.00226C12.6219 2.95536 14.4672 3.64086 15.8758 4.91685C17.2844 6.19284 18.1484 7.9616 18.289 9.85698C18.4295 11.7524 17.8359 13.6292 16.6309 15.099L19.284 17.7557C19.3856 17.8578 19.4547 17.9876 19.4826 18.1289C19.5105 18.2702 19.4959 18.4165 19.4408 18.5496C19.3857 18.6826 19.2925 18.7964 19.1728 18.8765C19.0532 18.9567 18.9125 18.9996 18.7685 19C18.6729 19 18.5783 18.9812 18.49 18.9446C18.4017 18.908 18.3214 18.8543 18.2539 18.7867ZM18.3766 18.6631C18.481 18.7676 18.6226 18.8262 18.7703 18.8262C18.918 18.8262 19.0596 18.7676 19.164 18.6631C19.2685 18.5587 19.3271 18.4171 19.3271 18.2694C19.3271 18.1217 19.2685 17.9801 19.164 17.8757L16.3963 15.1088L19.1631 17.8757C19.217 17.9268 19.2601 17.9882 19.2899 18.0563C19.3196 18.1243 19.3354 18.1977 19.3364 18.2719C19.3374 18.3462 19.3234 18.4199 19.2955 18.4887C19.2675 18.5576 19.226 18.6201 19.1735 18.6726C19.121 18.7251 19.0584 18.7666 18.9896 18.7946C18.9208 18.8225 18.8471 18.8365 18.7728 18.8355C18.6986 18.8345 18.6252 18.8187 18.5572 18.789C18.4891 18.7592 18.4277 18.717 18.3766 18.6631L15.6088 15.8945C14.4093 16.9215 12.9067 17.5279 11.3303 17.6211C12.9069 17.528 14.41 16.9225 15.6097 15.8954L18.3766 18.6631ZM6.69946 6.20124C5.58483 7.31586 4.95864 8.82762 4.95864 10.4039C4.95864 11.9803 5.58483 13.492 6.69946 14.6066C7.81408 15.7213 9.32584 16.3475 10.9022 16.3475C12.4785 16.3475 13.9902 15.7213 15.1049 14.6066C16.2195 13.492 16.8457 11.9803 16.8457 10.4039C16.8457 8.82762 16.2195 7.31586 15.1049 6.20124C13.9902 5.08661 12.4785 4.46042 10.9022 4.46042C9.32584 4.46042 7.81408 5.08661 6.69946 6.20124ZM16.015 5.29288C17.3027 6.58065 18.057 8.30691 18.1272 10.1267C18.1974 11.9464 17.5783 13.7257 16.3936 15.1088C17.2916 14.0587 17.8699 12.7734 18.06 11.4049C18.2502 10.0364 18.0443 8.64204 17.4667 7.38692C16.889 6.13181 15.9639 5.06847 14.8007 4.32278C13.6376 3.57709 12.2851 3.18027 10.9035 3.17931C11.8529 3.17619 12.7935 3.36138 13.6709 3.72417C14.5483 4.08696 15.345 4.62015 16.015 5.29288ZM17.0247 10.4053C17.0274 9.32749 16.7437 8.26833 16.2025 7.33624C16.742 8.2688 17.0242 9.32791 17.0202 10.4053H17.0247ZM6.5768 6.07858C6.00688 6.64547 5.55506 7.31976 5.24749 8.06244C4.93992 8.80512 4.78272 9.60143 4.78498 10.4053C4.78545 8.78269 5.43023 7.22669 6.57757 6.07935C7.72491 4.932 9.28091 4.28722 10.9035 4.28675C10.0997 4.2846 9.30339 4.44185 8.56072 4.74941C7.81806 5.05697 7.14375 5.50874 6.5768 6.07858Z" fill="#B1BAD3"/>
</svg>
