<svg width="28" height="28" viewBox="0 0 28 28" fill="none" xmlns="http://www.w3.org/2000/svg">
<g id="Frame">
<path id="Vector" d="M18.6322 12.0973C18.6097 9.92136 17.2774 8.51514 15.2085 8.49648C13.4777 8.48087 11.7461 8.46571 10.0162 8.50733C9.39641 8.52231 9.27629 8.27907 9.35536 7.70925C9.56811 6.17111 10.814 5.02762 12.4034 5.01578C15.2163 4.99461 18.029 4.99542 20.8418 5.01416C22.6881 5.02663 23.9301 6.3 23.9765 8.22195C24.0085 9.54779 24.0072 10.8757 23.9761 12.2015C23.9382 13.8249 23.0719 14.9584 21.5604 15.3127C21.0875 15.4235 21.012 15.5472 21.1983 15.9953C21.5378 16.8118 21.83 17.6501 22.1419 18.4792C22.0789 18.5314 22.0156 18.5837 21.9528 18.6357C21.0668 18.0591 20.1957 17.4551 19.2884 16.9174C18.8002 16.6281 18.5986 16.2874 18.6214 15.6881C18.6669 14.493 18.6444 13.2943 18.6322 12.0973ZM6.69147 9.16577C9.56588 9.10217 12.4432 9.10522 15.3176 9.16478C16.8881 9.19726 17.9229 10.3029 17.9851 11.9402C18.0464 13.5562 18.0497 15.179 17.9835 16.7944C17.9129 18.5126 16.8013 19.5471 15.1275 19.5736C14.2001 19.5882 13.2706 19.6128 12.3451 19.5645C11.6314 19.5271 11.0383 19.7262 10.4417 20.1357C9.07127 21.0763 7.66143 21.9535 6.04555 23C6.33806 22.2224 6.52885 21.7189 6.71667 21.2143C6.90575 20.7067 7.09194 20.1979 7.29396 19.6498C7.1196 19.6191 7.00316 19.5882 6.88544 19.5792C4.96239 19.4336 4.03323 18.4181 4.01421 16.4084C4.00084 14.9842 3.98875 13.5594 4.01815 12.1358C4.05474 10.366 5.04397 9.20219 6.69147 9.16577Z" fill="white"/>
</g>
</svg>
