<svg width="460" height="284" viewBox="0 0 460 284" fill="none" xmlns="http://www.w3.org/2000/svg">
<rect width="460" height="284" rx="10" fill="#F4F7FD"/>
<rect x="10" y="20" width="50" height="50" rx="10" fill="#FB6943"/>
<path d="M36.1279 39.79V50.5H34.4929V41.755C33.8329 42.375 33.0129 42.825 32.0329 43.105V41.485C32.5129 41.365 33.0229 41.155 33.5629 40.855C34.1029 40.515 34.5429 40.16 34.8829 39.79H36.1279Z" fill="white"/>
<rect x="70" y="20" width="50" height="50" rx="10" fill="#F1F1F1"/>
<path d="M95.1679 39.58C96.2079 39.58 97.0529 39.875 97.7029 40.465C98.3529 41.065 98.6779 41.835 98.6779 42.775C98.6779 43.685 98.3279 44.53 97.6279 45.31C97.2079 45.74 96.4679 46.315 95.4079 47.035C94.2579 47.795 93.5679 48.47 93.3379 49.06H98.6929V50.5H91.3129C91.3129 49.43 91.6679 48.495 92.3779 47.695C92.7479 47.255 93.5529 46.605 94.7929 45.745C95.5229 45.225 96.0329 44.815 96.3229 44.515C96.8129 43.965 97.0579 43.38 97.0579 42.76C97.0579 42.16 96.8929 41.71 96.5629 41.41C96.2329 41.11 95.7479 40.96 95.1079 40.96C94.4279 40.96 93.9179 41.19 93.5779 41.65C93.2279 42.09 93.0379 42.745 93.0079 43.615H91.3729C91.3929 42.415 91.7379 41.455 92.4079 40.735C93.0879 39.965 94.0079 39.58 95.1679 39.58Z" fill="#A6A6A6"/>
<rect x="130" y="20" width="50" height="50" rx="10" fill="#F1F1F1"/>
<path d="M155.108 39.58C156.188 39.58 157.053 39.84 157.703 40.36C158.343 40.89 158.663 41.61 158.663 42.52C158.663 43.7 158.073 44.485 156.893 44.875C157.513 45.065 157.993 45.36 158.333 45.76C158.693 46.16 158.873 46.68 158.873 47.32C158.873 48.31 158.533 49.12 157.853 49.75C157.123 50.39 156.188 50.71 155.048 50.71C153.958 50.71 153.078 50.43 152.408 49.87C151.658 49.24 151.238 48.325 151.148 47.125H152.798C152.828 47.855 153.063 48.41 153.503 48.79C153.893 49.15 154.403 49.33 155.033 49.33C155.713 49.33 156.268 49.13 156.698 48.73C157.068 48.36 157.253 47.915 157.253 47.395C157.253 46.765 157.058 46.3 156.668 46C156.308 45.7 155.773 45.55 155.063 45.55H154.283V44.32H155.048C155.698 44.32 156.193 44.175 156.533 43.885C156.873 43.595 157.043 43.18 157.043 42.64C157.043 42.11 156.888 41.7 156.578 41.41C156.258 41.12 155.773 40.975 155.123 40.975C154.473 40.975 153.968 41.14 153.608 41.47C153.238 41.81 153.023 42.305 152.963 42.955H151.358C151.448 41.895 151.843 41.065 152.543 40.465C153.193 39.875 154.048 39.58 155.108 39.58Z" fill="#A6A6A6"/>
<rect x="190" y="20" width="50" height="50" rx="10" fill="#F1F1F1"/>
<path d="M217.583 39.79V46.87H219.203V48.175H217.583V50.5H216.023V48.175H210.803V46.63L216.083 39.79H217.583ZM215.978 41.86L212.138 46.87H216.023V41.86H215.978Z" fill="#A6A6A6"/>
<rect x="250.5" y="20.5" width="199" height="49" rx="9.5" fill="white"/>
<path d="M263.05 39.79H264.985L268.72 48.37H268.765L272.485 39.79H274.42V50.5H272.785V42.85H272.725L269.44 50.5H268.03L264.745 42.85H264.685V50.5H263.05V39.79ZM276.557 39.79H278.177V50.5H276.557V39.79ZM280.306 39.79H281.956L287.431 47.755H287.491V39.79H289.126V50.5H287.536L282.001 42.445H281.941V50.5H280.306V39.79ZM291.234 39.79H298.929V41.185H292.869V44.305H298.569V45.7H292.869V49.105H299.184V50.5H291.234V39.79ZM304.593 39.58C305.853 39.58 306.828 39.845 307.518 40.375C308.268 40.925 308.693 41.785 308.793 42.955H307.173C307.023 42.245 306.743 41.745 306.333 41.455C305.923 41.145 305.313 40.99 304.503 40.99C303.803 40.99 303.263 41.095 302.883 41.305C302.423 41.545 302.193 41.935 302.193 42.475C302.193 42.955 302.458 43.335 302.988 43.615C303.248 43.765 303.868 43.985 304.848 44.275C306.328 44.735 307.263 45.085 307.653 45.325C308.573 45.885 309.033 46.655 309.033 47.635C309.033 48.585 308.658 49.34 307.908 49.9C307.158 50.44 306.108 50.71 304.758 50.71C303.468 50.71 302.448 50.45 301.698 49.93C300.818 49.3 300.333 48.31 300.243 46.96H301.863C301.983 47.81 302.283 48.415 302.763 48.775C303.203 49.105 303.868 49.27 304.758 49.27C305.548 49.27 306.193 49.13 306.693 48.85C307.173 48.58 307.413 48.205 307.413 47.725C307.413 47.135 307.073 46.665 306.393 46.315C306.143 46.195 305.433 45.955 304.263 45.595C302.923 45.165 302.103 44.87 301.803 44.71C300.983 44.22 300.573 43.505 300.573 42.565C300.573 41.625 300.968 40.885 301.758 40.345C302.508 39.835 303.453 39.58 304.593 39.58Z" fill="#484848"/>
<path fill-rule="evenodd" clip-rule="evenodd" d="M427 49.375L420 42.8052L421.065 41.5L427 47.0705L432.935 41.5L434 42.8052L427 49.375Z" fill="#A6A6A6"/>
<rect x="250.5" y="20.5" width="199" height="49" rx="9.5" stroke="#ECECEC"/>
<rect x="10.5" y="90.5" width="439" height="76" rx="9.5" fill="white"/>
<rect x="18" y="98" width="66" height="26.5" rx="10" fill="#F1F1F1"/>
<path d="M28.3242 108.325V109.614H23.8564V108.325H28.3242ZM25.1455 106.384H26.9106V114.06C26.9106 114.304 26.9448 114.492 27.0132 114.624C27.0864 114.751 27.1865 114.836 27.3135 114.88C27.4404 114.924 27.5894 114.946 27.7603 114.946C27.8823 114.946 27.9995 114.939 28.1118 114.924C28.2241 114.91 28.3145 114.895 28.3828 114.88L28.3901 116.228C28.2437 116.272 28.0728 116.311 27.8774 116.345C27.687 116.379 27.4673 116.396 27.2183 116.396C26.813 116.396 26.4541 116.326 26.1416 116.184C25.8291 116.038 25.585 115.801 25.4092 115.474C25.2334 115.146 25.1455 114.712 25.1455 114.17V106.384ZM29.1738 112.375V112.207C29.1738 111.636 29.2568 111.106 29.4229 110.618C29.5889 110.125 29.8281 109.697 30.1406 109.336C30.458 108.97 30.8438 108.687 31.2979 108.486C31.7568 108.281 32.2744 108.179 32.8506 108.179C33.4316 108.179 33.9492 108.281 34.4033 108.486C34.8623 108.687 35.2505 108.97 35.5679 109.336C35.8853 109.697 36.127 110.125 36.293 110.618C36.459 111.106 36.542 111.636 36.542 112.207V112.375C36.542 112.947 36.459 113.477 36.293 113.965C36.127 114.453 35.8853 114.88 35.5679 115.247C35.2505 115.608 34.8647 115.891 34.4106 116.096C33.9565 116.296 33.4414 116.396 32.8652 116.396C32.2842 116.396 31.7642 116.296 31.3052 116.096C30.8511 115.891 30.4653 115.608 30.1479 115.247C29.8306 114.88 29.5889 114.453 29.4229 113.965C29.2568 113.477 29.1738 112.947 29.1738 112.375ZM30.939 112.207V112.375C30.939 112.732 30.9756 113.069 31.0488 113.386C31.1221 113.704 31.2368 113.982 31.3931 114.221C31.5493 114.46 31.7495 114.648 31.9937 114.785C32.2378 114.922 32.5283 114.99 32.8652 114.99C33.1924 114.99 33.4756 114.922 33.7148 114.785C33.959 114.648 34.1592 114.46 34.3154 114.221C34.4717 113.982 34.5864 113.704 34.6597 113.386C34.7378 113.069 34.7769 112.732 34.7769 112.375V112.207C34.7769 111.855 34.7378 111.523 34.6597 111.211C34.5864 110.894 34.4692 110.613 34.3081 110.369C34.1519 110.125 33.9517 109.934 33.7075 109.797C33.4683 109.656 33.1826 109.585 32.8506 109.585C32.5186 109.585 32.2305 109.656 31.9863 109.797C31.7471 109.934 31.5493 110.125 31.3931 110.369C31.2368 110.613 31.1221 110.894 31.0488 111.211C30.9756 111.523 30.939 111.855 30.939 112.207ZM30.1333 107.219L32.228 105.417H33.3779L35.48 107.219H33.9785L32.7993 106.179L31.6274 107.219H30.1333ZM34.938 106.084L36.0659 104.15H37.6406L36.0659 106.084H34.938ZM39.9111 108.325V116.25H38.1387V108.325H39.9111ZM38.0215 106.245C38.0215 105.977 38.1094 105.754 38.2852 105.579C38.4658 105.398 38.7148 105.308 39.0322 105.308C39.3447 105.308 39.5913 105.398 39.772 105.579C39.9526 105.754 40.043 105.977 40.043 106.245C40.043 106.509 39.9526 106.729 39.772 106.904C39.5913 107.08 39.3447 107.168 39.0322 107.168C38.7148 107.168 38.4658 107.08 38.2852 106.904C38.1094 106.729 38.0215 106.509 38.0215 106.245ZM49.2129 108.325V109.614H44.7451V108.325H49.2129ZM46.0342 106.384H47.7993V114.06C47.7993 114.304 47.8335 114.492 47.9019 114.624C47.9751 114.751 48.0752 114.836 48.2021 114.88C48.3291 114.924 48.478 114.946 48.6489 114.946C48.771 114.946 48.8882 114.939 49.0005 114.924C49.1128 114.91 49.2031 114.895 49.2715 114.88L49.2788 116.228C49.1323 116.272 48.9614 116.311 48.7661 116.345C48.5757 116.379 48.356 116.396 48.1069 116.396C47.7017 116.396 47.3428 116.326 47.0303 116.184C46.7178 116.038 46.4736 115.801 46.2979 115.474C46.1221 115.146 46.0342 114.712 46.0342 114.17V106.384ZM52.3184 105V116.25H50.5605V105H52.3184ZM52.0107 111.995L51.4395 111.987C51.4443 111.44 51.52 110.935 51.6665 110.471C51.8179 110.007 52.0278 109.604 52.2964 109.263C52.5698 108.916 52.897 108.65 53.2778 108.464C53.6587 108.274 54.0811 108.179 54.5449 108.179C54.9355 108.179 55.2871 108.232 55.5996 108.34C55.917 108.447 56.1904 108.621 56.4199 108.86C56.6494 109.094 56.8228 109.402 56.9399 109.783C57.062 110.159 57.123 110.618 57.123 111.16V116.25H55.3506V111.145C55.3506 110.764 55.2944 110.461 55.1821 110.237C55.0747 110.012 54.916 109.851 54.7061 109.753C54.4961 109.651 54.2397 109.6 53.937 109.6C53.6196 109.6 53.3389 109.663 53.0947 109.79C52.8555 109.917 52.6553 110.09 52.4941 110.31C52.333 110.53 52.2109 110.784 52.1279 111.072C52.0498 111.36 52.0107 111.667 52.0107 111.995ZM60.7998 108.325V116.25H59.0273V108.325H60.7998ZM58.9102 106.245C58.9102 105.977 58.998 105.754 59.1738 105.579C59.3545 105.398 59.6035 105.308 59.9209 105.308C60.2334 105.308 60.48 105.398 60.6606 105.579C60.8413 105.754 60.9316 105.977 60.9316 106.245C60.9316 106.509 60.8413 106.729 60.6606 106.904C60.48 107.08 60.2334 107.168 59.9209 107.168C59.6035 107.168 59.3545 107.08 59.1738 106.904C58.998 106.729 58.9102 106.509 58.9102 106.245ZM66.2271 116.396C65.6411 116.396 65.1113 116.301 64.6377 116.111C64.1689 115.916 63.7686 115.645 63.4365 115.298C63.1094 114.951 62.8579 114.543 62.6821 114.075C62.5063 113.606 62.4185 113.101 62.4185 112.559V112.266C62.4185 111.646 62.5088 111.084 62.6895 110.581C62.8701 110.078 63.1216 109.648 63.4438 109.292C63.7661 108.931 64.147 108.655 64.5864 108.464C65.0259 108.274 65.502 108.179 66.0146 108.179C66.5811 108.179 67.0767 108.274 67.5015 108.464C67.9263 108.655 68.2778 108.923 68.5562 109.27C68.8394 109.612 69.0493 110.02 69.186 110.493C69.3276 110.967 69.3984 111.489 69.3984 112.061V112.815H63.2754V111.548H67.6553V111.409C67.6455 111.091 67.582 110.793 67.4648 110.515C67.3525 110.237 67.1792 110.012 66.9448 109.841C66.7104 109.67 66.3979 109.585 66.0073 109.585C65.7144 109.585 65.4531 109.648 65.2236 109.775C64.999 109.897 64.811 110.076 64.6597 110.31C64.5083 110.544 64.3911 110.828 64.3081 111.16C64.23 111.487 64.1909 111.855 64.1909 112.266V112.559C64.1909 112.905 64.2373 113.228 64.3301 113.525C64.4277 113.818 64.5693 114.075 64.7549 114.294C64.9404 114.514 65.165 114.688 65.4287 114.814C65.6924 114.937 65.9927 114.998 66.3296 114.998C66.7544 114.998 67.1328 114.912 67.4648 114.741C67.7969 114.57 68.085 114.329 68.3291 114.016L69.2593 114.917C69.0884 115.166 68.8662 115.405 68.5928 115.635C68.3193 115.859 67.9849 116.042 67.5894 116.184C67.1987 116.326 66.7446 116.396 66.2271 116.396ZM66.5127 105.483L68.5415 107.292H67.1499L65.8682 106.121L64.5791 107.292H63.1948L65.2163 105.483H66.5127ZM68.8931 106.318H67.897L67.8384 105.425C68.0483 105.41 68.2168 105.388 68.3438 105.359C68.4756 105.33 68.5708 105.286 68.6294 105.227C68.6929 105.168 68.7246 105.093 68.7246 105C68.7246 104.878 68.6807 104.785 68.5928 104.722C68.5098 104.653 68.395 104.604 68.2485 104.575C68.1069 104.546 67.9458 104.531 67.7651 104.531L67.8164 103.777C68.1484 103.777 68.439 103.806 68.688 103.865C68.9419 103.918 69.1543 103.999 69.3252 104.106C69.501 104.209 69.6328 104.333 69.7207 104.48C69.8086 104.622 69.8525 104.785 69.8525 104.971C69.8525 105.273 69.7524 105.496 69.5522 105.637C69.3521 105.779 69.1323 105.867 68.8931 105.901V106.318ZM75.5435 114.382V108.325H77.3159V116.25H75.646L75.5435 114.382ZM75.7925 112.734L76.3857 112.72C76.3857 113.252 76.3271 113.743 76.21 114.192C76.0928 114.636 75.9121 115.024 75.668 115.356C75.4238 115.684 75.1113 115.94 74.7305 116.125C74.3496 116.306 73.8931 116.396 73.3608 116.396C72.9751 116.396 72.6211 116.34 72.2988 116.228C71.9766 116.116 71.6982 115.942 71.4639 115.708C71.2344 115.474 71.0562 115.168 70.9292 114.792C70.8022 114.417 70.7388 113.967 70.7388 113.445V108.325H72.5039V113.459C72.5039 113.748 72.5381 113.989 72.6064 114.185C72.6748 114.375 72.7676 114.529 72.8848 114.646C73.002 114.763 73.1387 114.846 73.2949 114.895C73.4512 114.944 73.6172 114.968 73.793 114.968C74.2959 114.968 74.6914 114.871 74.9795 114.675C75.2725 114.475 75.48 114.207 75.6021 113.87C75.729 113.533 75.7925 113.154 75.7925 112.734Z" fill="#A6A6A6"/>
<rect x="18" y="132.5" width="50" height="26.5" rx="10" fill="#F1F1F1"/>
<path d="M28.4395 142.825V144.114H23.9717V142.825H28.4395ZM25.2607 140.884H27.0259V148.56C27.0259 148.804 27.0601 148.992 27.1284 149.124C27.2017 149.251 27.3018 149.336 27.4287 149.38C27.5557 149.424 27.7046 149.446 27.8755 149.446C27.9976 149.446 28.1147 149.439 28.2271 149.424C28.3394 149.41 28.4297 149.395 28.498 149.38L28.5054 150.728C28.3589 150.772 28.188 150.811 27.9927 150.845C27.8022 150.879 27.5825 150.896 27.3335 150.896C26.9282 150.896 26.5693 150.826 26.2568 150.684C25.9443 150.538 25.7002 150.301 25.5244 149.974C25.3486 149.646 25.2607 149.212 25.2607 148.67V140.884ZM29.2891 146.875V146.707C29.2891 146.136 29.3721 145.606 29.5381 145.118C29.7041 144.625 29.9434 144.197 30.2559 143.836C30.5732 143.47 30.959 143.187 31.4131 142.986C31.8721 142.781 32.3896 142.679 32.9658 142.679C33.5469 142.679 34.0645 142.781 34.5186 142.986C34.9775 143.187 35.3657 143.47 35.6831 143.836C36.0005 144.197 36.2422 144.625 36.4082 145.118C36.5742 145.606 36.6572 146.136 36.6572 146.707V146.875C36.6572 147.447 36.5742 147.977 36.4082 148.465C36.2422 148.953 36.0005 149.38 35.6831 149.747C35.3657 150.108 34.98 150.391 34.5259 150.596C34.0718 150.796 33.5566 150.896 32.9805 150.896C32.3994 150.896 31.8794 150.796 31.4204 150.596C30.9663 150.391 30.5806 150.108 30.2632 149.747C29.9458 149.38 29.7041 148.953 29.5381 148.465C29.3721 147.977 29.2891 147.447 29.2891 146.875ZM31.0542 146.707V146.875C31.0542 147.232 31.0908 147.569 31.1641 147.886C31.2373 148.204 31.3521 148.482 31.5083 148.721C31.6646 148.96 31.8647 149.148 32.1089 149.285C32.353 149.422 32.6436 149.49 32.9805 149.49C33.3076 149.49 33.5908 149.422 33.8301 149.285C34.0742 149.148 34.2744 148.96 34.4307 148.721C34.5869 148.482 34.7017 148.204 34.7749 147.886C34.853 147.569 34.8921 147.232 34.8921 146.875V146.707C34.8921 146.355 34.853 146.023 34.7749 145.711C34.7017 145.394 34.5845 145.113 34.4233 144.869C34.2671 144.625 34.0669 144.434 33.8228 144.297C33.5835 144.156 33.2979 144.085 32.9658 144.085C32.6338 144.085 32.3457 144.156 32.1016 144.297C31.8623 144.434 31.6646 144.625 31.5083 144.869C31.3521 145.113 31.2373 145.394 31.1641 145.711C31.0908 146.023 31.0542 146.355 31.0542 146.707ZM30.2485 141.719L32.3433 139.917H33.4932L35.5952 141.719H34.0938L32.9146 140.679L31.7427 141.719H30.2485ZM35.0532 140.584L36.1812 138.65H37.7559L36.1812 140.584H35.0532ZM40.0264 142.825V150.75H38.2539V142.825H40.0264ZM38.1367 140.745C38.1367 140.477 38.2246 140.254 38.4004 140.079C38.5811 139.898 38.8301 139.808 39.1475 139.808C39.46 139.808 39.7065 139.898 39.8872 140.079C40.0679 140.254 40.1582 140.477 40.1582 140.745C40.1582 141.009 40.0679 141.229 39.8872 141.404C39.7065 141.58 39.46 141.668 39.1475 141.668C38.8301 141.668 38.5811 141.58 38.4004 141.404C38.2246 141.229 38.1367 141.009 38.1367 140.745ZM50.5293 149.109V139.5H52.3018V150.75H50.6978L50.5293 149.109ZM45.373 146.875V146.722C45.373 146.121 45.4438 145.574 45.5854 145.081C45.7271 144.583 45.9321 144.156 46.2007 143.799C46.4692 143.438 46.7964 143.162 47.1821 142.972C47.5679 142.776 48.0024 142.679 48.4858 142.679C48.9644 142.679 49.3843 142.771 49.7456 142.957C50.1069 143.143 50.4146 143.409 50.6685 143.755C50.9224 144.097 51.125 144.507 51.2764 144.986C51.4277 145.459 51.5352 145.987 51.5986 146.568V147.059C51.5352 147.625 51.4277 148.143 51.2764 148.611C51.125 149.08 50.9224 149.485 50.6685 149.827C50.4146 150.169 50.1045 150.433 49.7383 150.618C49.377 150.804 48.9546 150.896 48.4712 150.896C47.9927 150.896 47.5605 150.796 47.1748 150.596C46.7939 150.396 46.4692 150.115 46.2007 149.754C45.9321 149.393 45.7271 148.968 45.5854 148.479C45.4438 147.986 45.373 147.452 45.373 146.875ZM47.1382 146.722V146.875C47.1382 147.237 47.1699 147.574 47.2334 147.886C47.3018 148.199 47.4067 148.475 47.5483 148.714C47.6899 148.948 47.873 149.134 48.0977 149.271C48.3271 149.402 48.6006 149.468 48.918 149.468C49.3184 149.468 49.6479 149.38 49.9067 149.205C50.1655 149.029 50.3682 148.792 50.5146 148.494C50.666 148.191 50.7686 147.854 50.8223 147.483V146.158C50.793 145.87 50.7319 145.601 50.6392 145.352C50.5513 145.103 50.4316 144.886 50.2803 144.7C50.1289 144.51 49.9409 144.363 49.7163 144.261C49.4966 144.153 49.2354 144.1 48.9326 144.1C48.6104 144.1 48.3369 144.168 48.1123 144.305C47.8877 144.441 47.7021 144.629 47.5557 144.869C47.4141 145.108 47.3091 145.386 47.2407 145.704C47.1724 146.021 47.1382 146.36 47.1382 146.722ZM53.5542 140.547V141.771H48.6323V140.547H53.5542ZM59.3916 149.161V145.381C59.3916 145.098 59.3403 144.854 59.2378 144.649C59.1353 144.444 58.979 144.285 58.769 144.173C58.564 144.061 58.3052 144.004 57.9927 144.004C57.7046 144.004 57.4556 144.053 57.2456 144.151C57.0356 144.249 56.8721 144.38 56.7549 144.546C56.6377 144.712 56.5791 144.9 56.5791 145.11H54.8213C54.8213 144.798 54.897 144.495 55.0483 144.202C55.1997 143.909 55.4194 143.648 55.7075 143.418C55.9956 143.189 56.3398 143.008 56.7402 142.876C57.1406 142.745 57.5898 142.679 58.0879 142.679C58.6836 142.679 59.2109 142.779 59.6699 142.979C60.1338 143.179 60.4976 143.482 60.7612 143.887C61.0298 144.288 61.1641 144.791 61.1641 145.396V148.919C61.1641 149.28 61.1885 149.605 61.2373 149.893C61.291 150.176 61.3667 150.423 61.4644 150.633V150.75H59.6553C59.5723 150.56 59.5063 150.318 59.4575 150.025C59.4136 149.727 59.3916 149.439 59.3916 149.161ZM59.6479 145.931L59.6626 147.022H58.3955C58.0684 147.022 57.7803 147.054 57.5312 147.117C57.2822 147.176 57.0747 147.264 56.9087 147.381C56.7427 147.498 56.6182 147.64 56.5352 147.806C56.4521 147.972 56.4106 148.16 56.4106 148.37C56.4106 148.58 56.4595 148.772 56.5571 148.948C56.6548 149.119 56.7964 149.253 56.9819 149.351C57.1724 149.449 57.4019 149.498 57.6704 149.498C58.0317 149.498 58.3467 149.424 58.6152 149.278C58.8887 149.126 59.1035 148.943 59.2598 148.729C59.416 148.509 59.499 148.301 59.5088 148.106L60.0801 148.89C60.0215 149.09 59.9214 149.305 59.7798 149.534C59.6382 149.764 59.4526 149.983 59.2231 150.193C58.9985 150.398 58.7275 150.567 58.4102 150.699C58.0977 150.831 57.7363 150.896 57.3262 150.896C56.8086 150.896 56.3472 150.794 55.9419 150.589C55.5366 150.379 55.2192 150.098 54.9897 149.747C54.7603 149.39 54.6455 148.987 54.6455 148.538C54.6455 148.118 54.7236 147.747 54.8799 147.425C55.041 147.098 55.2754 146.824 55.583 146.604C55.8955 146.385 56.2764 146.219 56.7256 146.106C57.1748 145.989 57.6875 145.931 58.2637 145.931H59.6479Z" fill="#A6A6A6"/>
<g clip-path="url(#clip0_1660_36519)">
<g clip-path="url(#clip1_1660_36519)">
<path d="M182.138 120.403C180.536 126.831 174.024 130.744 167.595 129.141C161.168 127.538 157.256 121.026 158.859 114.598C160.461 108.169 166.973 104.256 173.4 105.859C179.829 107.462 183.741 113.974 182.138 120.403L182.138 120.403H182.138Z" fill="#F7931A"/>
<path d="M175.791 115.789C176.03 114.192 174.814 113.334 173.152 112.761L173.691 110.598L172.374 110.27L171.849 112.376C171.503 112.29 171.147 112.209 170.794 112.128L171.323 110.008L170.007 109.68L169.467 111.842C169.181 111.777 168.899 111.712 168.626 111.645L168.628 111.638L166.812 111.184L166.462 112.591C166.462 112.591 167.439 112.815 167.418 112.828C167.951 112.962 168.048 113.315 168.032 113.594L167.417 116.059C167.454 116.068 167.502 116.082 167.554 116.103C167.51 116.092 167.464 116.08 167.415 116.068L166.554 119.52C166.489 119.682 166.323 119.926 165.951 119.833C165.964 119.852 164.994 119.594 164.994 119.594L164.34 121.102L166.053 121.529C166.372 121.609 166.685 121.693 166.992 121.771L166.447 123.959L167.763 124.287L168.302 122.123C168.662 122.22 169.01 122.31 169.352 122.395L168.814 124.549L170.131 124.878L170.676 122.694C172.921 123.119 174.609 122.947 175.32 120.916C175.893 119.281 175.292 118.338 174.11 117.723C174.971 117.524 175.619 116.959 175.792 115.79L175.791 115.789L175.791 115.789ZM172.782 120.008C172.376 121.643 169.622 120.759 168.73 120.538L169.453 117.639C170.345 117.862 173.208 118.303 172.783 120.008H172.782ZM173.19 115.766C172.818 117.253 170.527 116.497 169.784 116.312L170.439 113.683C171.183 113.868 173.576 114.214 173.19 115.766H173.19Z" fill="white"/>
</g>
<path d="M187.715 119.005C187.715 116.556 188.154 114.842 189.033 113.863C189.918 112.885 191.263 112.396 193.067 112.396C193.935 112.396 194.646 112.504 195.203 112.721C195.76 112.932 196.214 113.21 196.565 113.556C196.917 113.896 197.192 114.256 197.392 114.637C197.597 115.012 197.761 115.451 197.884 115.955C198.124 116.916 198.244 117.918 198.244 118.961C198.244 121.299 197.849 123.01 197.058 124.094C196.267 125.178 194.904 125.72 192.971 125.72C191.887 125.72 191.011 125.547 190.343 125.201C189.675 124.855 189.127 124.349 188.699 123.681C188.389 123.206 188.146 122.559 187.97 121.738C187.8 120.912 187.715 120.001 187.715 119.005ZM191.266 119.014C191.266 120.654 191.409 121.776 191.696 122.38C191.989 122.978 192.411 123.276 192.962 123.276C193.325 123.276 193.639 123.15 193.902 122.898C194.172 122.641 194.368 122.236 194.491 121.686C194.62 121.135 194.685 120.276 194.685 119.11C194.685 117.399 194.538 116.251 194.245 115.665C193.958 115.073 193.524 114.777 192.944 114.777C192.353 114.777 191.925 115.079 191.661 115.683C191.397 116.28 191.266 117.391 191.266 119.014ZM200.072 121.914H203.896V125.5H200.072V121.914ZM205.715 119.005C205.715 116.556 206.154 114.842 207.033 113.863C207.918 112.885 209.263 112.396 211.067 112.396C211.935 112.396 212.646 112.504 213.203 112.721C213.76 112.932 214.214 113.21 214.565 113.556C214.917 113.896 215.192 114.256 215.392 114.637C215.597 115.012 215.761 115.451 215.884 115.955C216.124 116.916 216.244 117.918 216.244 118.961C216.244 121.299 215.849 123.01 215.058 124.094C214.267 125.178 212.904 125.72 210.971 125.72C209.887 125.72 209.011 125.547 208.343 125.201C207.675 124.855 207.127 124.349 206.699 123.681C206.389 123.206 206.146 122.559 205.97 121.738C205.8 120.912 205.715 120.001 205.715 119.005ZM209.266 119.014C209.266 120.654 209.409 121.776 209.696 122.38C209.989 122.978 210.411 123.276 210.962 123.276C211.325 123.276 211.639 123.15 211.902 122.898C212.172 122.641 212.368 122.236 212.491 121.686C212.62 121.135 212.685 120.276 212.685 119.11C212.685 117.399 212.538 116.251 212.245 115.665C211.958 115.073 211.524 114.777 210.944 114.777C210.353 114.777 209.925 115.079 209.661 115.683C209.397 116.28 209.266 117.391 209.266 119.014ZM217.721 119.005C217.721 116.556 218.16 114.842 219.039 113.863C219.924 112.885 221.269 112.396 223.073 112.396C223.94 112.396 224.652 112.504 225.209 112.721C225.766 112.932 226.22 113.21 226.571 113.556C226.923 113.896 227.198 114.256 227.397 114.637C227.603 115.012 227.767 115.451 227.89 115.955C228.13 116.916 228.25 117.918 228.25 118.961C228.25 121.299 227.854 123.01 227.063 124.094C226.272 125.178 224.91 125.72 222.977 125.72C221.893 125.72 221.017 125.547 220.349 125.201C219.681 124.855 219.133 124.349 218.705 123.681C218.395 123.206 218.151 122.559 217.976 121.738C217.806 120.912 217.721 120.001 217.721 119.005ZM221.271 119.014C221.271 120.654 221.415 121.776 221.702 122.38C221.995 122.978 222.417 123.276 222.968 123.276C223.331 123.276 223.645 123.15 223.908 122.898C224.178 122.641 224.374 122.236 224.497 121.686C224.626 121.135 224.69 120.276 224.69 119.11C224.69 117.399 224.544 116.251 224.251 115.665C223.964 115.073 223.53 114.777 222.95 114.777C222.358 114.777 221.931 115.079 221.667 115.683C221.403 116.28 221.271 117.391 221.271 119.014ZM229.727 119.005C229.727 116.556 230.166 114.842 231.045 113.863C231.93 112.885 233.274 112.396 235.079 112.396C235.946 112.396 236.658 112.504 237.215 112.721C237.771 112.932 238.226 113.21 238.577 113.556C238.929 113.896 239.204 114.256 239.403 114.637C239.608 115.012 239.772 115.451 239.896 115.955C240.136 116.916 240.256 117.918 240.256 118.961C240.256 121.299 239.86 123.01 239.069 124.094C238.278 125.178 236.916 125.72 234.982 125.72C233.898 125.72 233.022 125.547 232.354 125.201C231.687 124.855 231.139 124.349 230.711 123.681C230.4 123.206 230.157 122.559 229.981 121.738C229.812 120.912 229.727 120.001 229.727 119.005ZM233.277 119.014C233.277 120.654 233.421 121.776 233.708 122.38C234.001 122.978 234.423 123.276 234.974 123.276C235.337 123.276 235.65 123.15 235.914 122.898C236.184 122.641 236.38 122.236 236.503 121.686C236.632 121.135 236.696 120.276 236.696 119.11C236.696 117.399 236.55 116.251 236.257 115.665C235.97 115.073 235.536 114.777 234.956 114.777C234.364 114.777 233.937 115.079 233.673 115.683C233.409 116.28 233.277 117.391 233.277 119.014ZM241.732 119.005C241.732 116.556 242.172 114.842 243.051 113.863C243.936 112.885 245.28 112.396 247.085 112.396C247.952 112.396 248.664 112.504 249.221 112.721C249.777 112.932 250.231 113.21 250.583 113.556C250.935 113.896 251.21 114.256 251.409 114.637C251.614 115.012 251.778 115.451 251.901 115.955C252.142 116.916 252.262 117.918 252.262 118.961C252.262 121.299 251.866 123.01 251.075 124.094C250.284 125.178 248.922 125.72 246.988 125.72C245.904 125.72 245.028 125.547 244.36 125.201C243.692 124.855 243.145 124.349 242.717 123.681C242.406 123.206 242.163 122.559 241.987 121.738C241.817 120.912 241.732 120.001 241.732 119.005ZM245.283 119.014C245.283 120.654 245.427 121.776 245.714 122.38C246.007 122.978 246.429 123.276 246.979 123.276C247.343 123.276 247.656 123.15 247.92 122.898C248.189 122.641 248.386 122.236 248.509 121.686C248.638 121.135 248.702 120.276 248.702 119.11C248.702 117.399 248.556 116.251 248.263 115.665C247.976 115.073 247.542 114.777 246.962 114.777C246.37 114.777 245.942 115.079 245.679 115.683C245.415 116.28 245.283 117.391 245.283 119.014ZM261.851 112.396V125.5H258.229V116.913C257.644 117.358 257.075 117.719 256.524 117.994C255.979 118.27 255.294 118.533 254.468 118.785V115.85C255.687 115.457 256.633 114.985 257.307 114.435C257.98 113.884 258.508 113.204 258.889 112.396H261.851ZM265.744 119.005C265.744 116.556 266.184 114.842 267.062 113.863C267.947 112.885 269.292 112.396 271.097 112.396C271.964 112.396 272.676 112.504 273.232 112.721C273.789 112.932 274.243 113.21 274.595 113.556C274.946 113.896 275.222 114.256 275.421 114.637C275.626 115.012 275.79 115.451 275.913 115.955C276.153 116.916 276.273 117.918 276.273 118.961C276.273 121.299 275.878 123.01 275.087 124.094C274.296 125.178 272.934 125.72 271 125.72C269.916 125.72 269.04 125.547 268.372 125.201C267.704 124.855 267.156 124.349 266.729 123.681C266.418 123.206 266.175 122.559 265.999 121.738C265.829 120.912 265.744 120.001 265.744 119.005ZM269.295 119.014C269.295 120.654 269.438 121.776 269.726 122.38C270.019 122.978 270.44 123.276 270.991 123.276C271.354 123.276 271.668 123.15 271.932 122.898C272.201 122.641 272.397 122.236 272.521 121.686C272.649 121.135 272.714 120.276 272.714 119.11C272.714 117.399 272.567 116.251 272.274 115.665C271.987 115.073 271.554 114.777 270.974 114.777C270.382 114.777 269.954 115.079 269.69 115.683C269.427 116.28 269.295 117.391 269.295 119.014ZM277.75 119.005C277.75 116.556 278.189 114.842 279.068 113.863C279.953 112.885 281.298 112.396 283.103 112.396C283.97 112.396 284.682 112.504 285.238 112.721C285.795 112.932 286.249 113.21 286.601 113.556C286.952 113.896 287.228 114.256 287.427 114.637C287.632 115.012 287.796 115.451 287.919 115.955C288.159 116.916 288.279 117.918 288.279 118.961C288.279 121.299 287.884 123.01 287.093 124.094C286.302 125.178 284.939 125.72 283.006 125.72C281.922 125.72 281.046 125.547 280.378 125.201C279.71 124.855 279.162 124.349 278.734 123.681C278.424 123.206 278.181 122.559 278.005 121.738C277.835 120.912 277.75 120.001 277.75 119.005ZM281.301 119.014C281.301 120.654 281.444 121.776 281.731 122.38C282.024 122.978 282.446 123.276 282.997 123.276C283.36 123.276 283.674 123.15 283.938 122.898C284.207 122.641 284.403 122.236 284.526 121.686C284.655 121.135 284.72 120.276 284.72 119.11C284.72 117.399 284.573 116.251 284.28 115.665C283.993 115.073 283.56 114.777 282.979 114.777C282.388 114.777 281.96 115.079 281.696 115.683C281.433 116.28 281.301 117.391 281.301 119.014ZM289.756 119.005C289.756 116.556 290.195 114.842 291.074 113.863C291.959 112.885 293.304 112.396 295.108 112.396C295.976 112.396 296.688 112.504 297.244 112.721C297.801 112.932 298.255 113.21 298.606 113.556C298.958 113.896 299.233 114.256 299.433 114.637C299.638 115.012 299.802 115.451 299.925 115.955C300.165 116.916 300.285 117.918 300.285 118.961C300.285 121.299 299.89 123.01 299.099 124.094C298.308 125.178 296.945 125.72 295.012 125.72C293.928 125.72 293.052 125.547 292.384 125.201C291.716 124.855 291.168 124.349 290.74 123.681C290.43 123.206 290.187 122.559 290.011 121.738C289.841 120.912 289.756 120.001 289.756 119.005ZM293.307 119.014C293.307 120.654 293.45 121.776 293.737 122.38C294.03 122.978 294.452 123.276 295.003 123.276C295.366 123.276 295.68 123.15 295.943 122.898C296.213 122.641 296.409 122.236 296.532 121.686C296.661 121.135 296.726 120.276 296.726 119.11C296.726 117.399 296.579 116.251 296.286 115.665C295.999 115.073 295.565 114.777 294.985 114.777C294.394 114.777 293.966 115.079 293.702 115.683C293.438 116.28 293.307 117.391 293.307 119.014Z" fill="#484848"/>
<path d="M190.421 146.911V143.842C189.464 143.568 188.761 143.156 188.312 142.604C187.867 142.047 187.645 141.374 187.645 140.583C187.645 139.782 187.896 139.11 188.399 138.568C188.907 138.021 189.581 137.707 190.421 137.624V136.898H191.483V137.624C192.259 137.716 192.877 137.982 193.336 138.422C193.795 138.856 194.088 139.44 194.215 140.172L192.362 140.414C192.25 139.838 191.957 139.447 191.483 139.242V142.106C192.655 142.423 193.453 142.836 193.878 143.344C194.303 143.847 194.515 144.494 194.515 145.285C194.515 146.168 194.247 146.913 193.709 147.519C193.177 148.124 192.435 148.495 191.483 148.632V150.001H190.421V148.668C189.576 148.566 188.89 148.251 188.363 147.724C187.835 147.196 187.499 146.452 187.352 145.49L189.264 145.285C189.342 145.675 189.488 146.012 189.703 146.295C189.918 146.579 190.157 146.784 190.421 146.911ZM190.421 139.22C190.133 139.318 189.903 139.484 189.732 139.718C189.562 139.953 189.476 140.211 189.476 140.495C189.476 140.753 189.554 140.995 189.71 141.22C189.867 141.439 190.104 141.618 190.421 141.754V139.22ZM191.483 147.013C191.849 146.945 192.147 146.776 192.376 146.508C192.606 146.234 192.721 145.915 192.721 145.548C192.721 145.221 192.623 144.94 192.428 144.706C192.237 144.467 191.922 144.284 191.483 144.157V147.013ZM199.862 148.5V146.339H195.467V144.538L200.125 137.719H201.854V144.53H203.187V146.339H201.854V148.5H199.862ZM199.862 144.53V140.861L197.394 144.53H199.862ZM204.615 148.5V146.442H206.673V148.5H204.615ZM212.386 148.5V146.339H207.992V144.538L212.65 137.719H214.378V144.53H215.711V146.339H214.378V148.5H212.386ZM212.386 144.53V140.861L209.918 144.53H212.386ZM220.179 137.719C221.219 137.719 222.032 138.09 222.618 138.832C223.316 139.711 223.666 141.168 223.666 143.205C223.666 145.236 223.314 146.696 222.611 147.584C222.03 148.317 221.219 148.683 220.179 148.683C219.134 148.683 218.292 148.283 217.652 147.482C217.013 146.676 216.693 145.243 216.693 143.183C216.693 141.161 217.044 139.706 217.748 138.817C218.329 138.085 219.139 137.719 220.179 137.719ZM220.179 139.425C219.93 139.425 219.708 139.506 219.513 139.667C219.317 139.823 219.166 140.106 219.059 140.517C218.917 141.049 218.846 141.945 218.846 143.205C218.846 144.464 218.91 145.331 219.037 145.805C219.164 146.273 219.322 146.586 219.513 146.742C219.708 146.898 219.93 146.977 220.179 146.977C220.428 146.977 220.65 146.898 220.846 146.742C221.041 146.581 221.192 146.295 221.3 145.885C221.441 145.358 221.512 144.464 221.512 143.205C221.512 141.945 221.449 141.081 221.322 140.612C221.195 140.138 221.034 139.823 220.838 139.667C220.648 139.506 220.428 139.425 220.179 139.425ZM228.529 137.719C229.569 137.719 230.382 138.09 230.968 138.832C231.666 139.711 232.015 141.168 232.015 143.205C232.015 145.236 231.664 146.696 230.96 147.584C230.379 148.317 229.569 148.683 228.529 148.683C227.484 148.683 226.642 148.283 226.002 147.482C225.362 146.676 225.042 145.243 225.042 143.183C225.042 141.161 225.394 139.706 226.097 138.817C226.678 138.085 227.489 137.719 228.529 137.719ZM228.529 139.425C228.28 139.425 228.058 139.506 227.862 139.667C227.667 139.823 227.516 140.106 227.408 140.517C227.267 141.049 227.196 141.945 227.196 143.205C227.196 144.464 227.259 145.331 227.386 145.805C227.513 146.273 227.672 146.586 227.862 146.742C228.058 146.898 228.28 146.977 228.529 146.977C228.778 146.977 229 146.898 229.195 146.742C229.391 146.581 229.542 146.295 229.649 145.885C229.791 145.358 229.862 144.464 229.862 143.205C229.862 141.945 229.798 141.081 229.671 140.612C229.544 140.138 229.383 139.823 229.188 139.667C228.998 139.506 228.778 139.425 228.529 139.425ZM236.878 137.719C237.918 137.719 238.731 138.09 239.317 138.832C240.016 139.711 240.365 141.168 240.365 143.205C240.365 145.236 240.013 146.696 239.31 147.584C238.729 148.317 237.918 148.683 236.878 148.683C235.833 148.683 234.991 148.283 234.352 147.482C233.712 146.676 233.392 145.243 233.392 143.183C233.392 141.161 233.744 139.706 234.447 138.817C235.028 138.085 235.838 137.719 236.878 137.719ZM236.878 139.425C236.629 139.425 236.407 139.506 236.212 139.667C236.017 139.823 235.865 140.106 235.758 140.517C235.616 141.049 235.545 141.945 235.545 143.205C235.545 144.464 235.609 145.331 235.736 145.805C235.863 146.273 236.021 146.586 236.212 146.742C236.407 146.898 236.629 146.977 236.878 146.977C237.127 146.977 237.35 146.898 237.545 146.742C237.74 146.581 237.892 146.295 237.999 145.885C238.141 145.358 238.211 144.464 238.211 143.205C238.211 141.945 238.148 141.081 238.021 140.612C237.894 140.138 237.733 139.823 237.538 139.667C237.347 139.506 237.127 139.425 236.878 139.425ZM245.228 137.719C246.268 137.719 247.081 138.09 247.667 138.832C248.365 139.711 248.714 141.168 248.714 143.205C248.714 145.236 248.363 146.696 247.66 147.584C247.079 148.317 246.268 148.683 245.228 148.683C244.183 148.683 243.341 148.283 242.701 147.482C242.062 146.676 241.742 145.243 241.742 143.183C241.742 141.161 242.093 139.706 242.796 138.817C243.377 138.085 244.188 137.719 245.228 137.719ZM245.228 139.425C244.979 139.425 244.757 139.506 244.562 139.667C244.366 139.823 244.215 140.106 244.107 140.517C243.966 141.049 243.895 141.945 243.895 143.205C243.895 144.464 243.958 145.331 244.085 145.805C244.212 146.273 244.371 146.586 244.562 146.742C244.757 146.898 244.979 146.977 245.228 146.977C245.477 146.977 245.699 146.898 245.895 146.742C246.09 146.581 246.241 146.295 246.349 145.885C246.49 145.358 246.561 144.464 246.561 143.205C246.561 141.945 246.498 141.081 246.371 140.612C246.244 140.138 246.083 139.823 245.887 139.667C245.697 139.506 245.477 139.425 245.228 139.425ZM253.578 137.719C254.618 137.719 255.431 138.09 256.017 138.832C256.715 139.711 257.064 141.168 257.064 143.205C257.064 145.236 256.712 146.696 256.009 147.584C255.428 148.317 254.618 148.683 253.578 148.683C252.533 148.683 251.69 148.283 251.051 147.482C250.411 146.676 250.091 145.243 250.091 143.183C250.091 141.161 250.443 139.706 251.146 138.817C251.727 138.085 252.538 137.719 253.578 137.719ZM253.578 139.425C253.329 139.425 253.106 139.506 252.911 139.667C252.716 139.823 252.564 140.106 252.457 140.517C252.315 141.049 252.245 141.945 252.245 143.205C252.245 144.464 252.308 145.331 252.435 145.805C252.562 146.273 252.721 146.586 252.911 146.742C253.106 146.898 253.329 146.977 253.578 146.977C253.827 146.977 254.049 146.898 254.244 146.742C254.439 146.581 254.591 146.295 254.698 145.885C254.84 145.358 254.911 144.464 254.911 143.205C254.911 141.945 254.847 141.081 254.72 140.612C254.593 140.138 254.432 139.823 254.237 139.667C254.046 139.506 253.827 139.425 253.578 139.425ZM261.927 137.719C262.967 137.719 263.78 138.09 264.366 138.832C265.064 139.711 265.414 141.168 265.414 143.205C265.414 145.236 265.062 146.696 264.359 147.584C263.778 148.317 262.967 148.683 261.927 148.683C260.882 148.683 260.04 148.283 259.4 147.482C258.761 146.676 258.441 145.243 258.441 143.183C258.441 141.161 258.792 139.706 259.496 138.817C260.077 138.085 260.887 137.719 261.927 137.719ZM261.927 139.425C261.678 139.425 261.456 139.506 261.261 139.667C261.065 139.823 260.914 140.106 260.807 140.517C260.665 141.049 260.594 141.945 260.594 143.205C260.594 144.464 260.658 145.331 260.785 145.805C260.912 146.273 261.07 146.586 261.261 146.742C261.456 146.898 261.678 146.977 261.927 146.977C262.176 146.977 262.398 146.898 262.594 146.742C262.789 146.581 262.94 146.295 263.048 145.885C263.189 145.358 263.26 144.464 263.26 143.205C263.26 141.945 263.197 141.081 263.07 140.612C262.943 140.138 262.782 139.823 262.586 139.667C262.396 139.506 262.176 139.425 261.927 139.425Z" fill="#A6A6A6"/>
</g>
<rect x="392" y="98" width="50" height="26.5" rx="10" fill="#F1F1F1"/>
<path d="M409.881 106.04V116.75H408.246V108.005C407.586 108.625 406.766 109.075 405.786 109.355V107.735C406.266 107.615 406.776 107.405 407.316 107.105C407.856 106.765 408.296 106.41 408.636 106.04H409.881ZM420.315 104.45L415.08 118.25H413.685L418.935 104.45H420.315ZM425.415 105.83C426.455 105.83 427.3 106.125 427.95 106.715C428.6 107.315 428.925 108.085 428.925 109.025C428.925 109.935 428.575 110.78 427.875 111.56C427.455 111.99 426.715 112.565 425.655 113.285C424.505 114.045 423.815 114.72 423.585 115.31H428.94V116.75H421.56C421.56 115.68 421.915 114.745 422.625 113.945C422.995 113.505 423.8 112.855 425.04 111.995C425.77 111.475 426.28 111.065 426.57 110.765C427.06 110.215 427.305 109.63 427.305 109.01C427.305 108.41 427.14 107.96 426.81 107.66C426.48 107.36 425.995 107.21 425.355 107.21C424.675 107.21 424.165 107.44 423.825 107.9C423.475 108.34 423.285 108.995 423.255 109.865H421.62C421.64 108.665 421.985 107.705 422.655 106.985C423.335 106.215 424.255 105.83 425.415 105.83Z" fill="#A6A6A6"/>
<rect x="392" y="132.5" width="50" height="26.5" rx="10" fill="#F1F1F1"/>
<path d="M413.191 140.33C414.231 140.33 415.076 140.625 415.726 141.215C416.376 141.815 416.701 142.585 416.701 143.525C416.701 144.435 416.351 145.28 415.651 146.06C415.231 146.49 414.491 147.065 413.431 147.785C412.281 148.545 411.591 149.22 411.361 149.81H416.716V151.25H409.336C409.336 150.18 409.691 149.245 410.401 148.445C410.771 148.005 411.576 147.355 412.816 146.495C413.546 145.975 414.056 145.565 414.346 145.265C414.836 144.715 415.081 144.13 415.081 143.51C415.081 142.91 414.916 142.46 414.586 142.16C414.256 141.86 413.771 141.71 413.131 141.71C412.451 141.71 411.941 141.94 411.601 142.4C411.251 142.84 411.061 143.495 411.031 144.365H409.396C409.416 143.165 409.761 142.205 410.431 141.485C411.111 140.715 412.031 140.33 413.191 140.33ZM419.8 143.495L421.51 145.955L423.205 143.495H425.065L422.38 147.125L425.395 151.25H423.535L421.51 148.295L419.47 151.25H417.595L420.625 147.125L417.94 143.495H419.8Z" fill="#A6A6A6"/>
<rect x="10.5" y="90.5" width="439" height="76" rx="9.5" stroke="#ECECEC"/>
<rect x="10" y="187" width="440" height="77" rx="10" fill="#FB6943"/>
<g filter="url(#filter0_d_1660_36519)">
<path d="M194.448 220.115H201.901C203.144 220.115 204.096 220.423 204.758 221.038C205.426 221.653 205.76 222.415 205.76 223.323C205.76 224.085 205.522 224.738 205.048 225.283C204.731 225.646 204.269 225.934 203.659 226.145C204.585 226.367 205.265 226.751 205.698 227.296C206.138 227.835 206.357 228.515 206.357 229.335C206.357 230.003 206.202 230.604 205.892 231.137C205.581 231.67 205.156 232.092 204.617 232.402C204.283 232.596 203.779 232.736 203.105 232.824C202.209 232.941 201.614 233 201.321 233H194.448V220.115ZM198.465 225.169H200.196C200.817 225.169 201.248 225.063 201.488 224.853C201.734 224.636 201.857 224.325 201.857 223.921C201.857 223.546 201.734 223.253 201.488 223.042C201.248 222.831 200.826 222.726 200.223 222.726H198.465V225.169ZM198.465 230.231H200.495C201.181 230.231 201.664 230.111 201.945 229.871C202.227 229.625 202.367 229.297 202.367 228.887C202.367 228.506 202.227 228.201 201.945 227.973C201.67 227.738 201.184 227.621 200.486 227.621H198.465V230.231ZM215.735 219.122C215.675 219.998 215.369 220.712 214.817 221.264C214.277 221.816 213.509 222.092 212.513 222.092C211.481 222.092 210.707 221.822 210.191 221.282C209.687 220.742 209.411 220.022 209.363 219.122H210.677C210.725 219.626 210.917 220.004 211.253 220.256C211.589 220.496 212.015 220.616 212.531 220.616C213.023 220.616 213.443 220.484 213.791 220.22C214.139 219.956 214.337 219.59 214.385 219.122H215.735ZM214.637 217.988C214.481 218.168 214.295 218.372 214.079 218.6C213.875 218.816 213.665 219.032 213.449 219.248C213.233 219.452 213.023 219.638 212.819 219.806H211.667V219.572C211.775 219.404 211.889 219.224 212.009 219.032C212.129 218.828 212.249 218.624 212.369 218.42C212.489 218.204 212.597 218 212.693 217.808H214.637V217.988ZM212.567 222.974C213.887 222.974 214.895 223.262 215.591 223.838C216.299 224.402 216.653 225.272 216.653 226.448V233H214.781L214.259 231.668H214.187C213.911 232.016 213.623 232.304 213.323 232.532C213.035 232.76 212.699 232.922 212.315 233.018C211.943 233.126 211.481 233.18 210.929 233.18C210.353 233.18 209.831 233.072 209.363 232.856C208.907 232.628 208.547 232.286 208.283 231.83C208.019 231.362 207.887 230.774 207.887 230.066C207.887 229.022 208.253 228.254 208.985 227.762C209.717 227.258 210.815 226.982 212.279 226.934L213.989 226.88V226.448C213.989 225.932 213.851 225.554 213.575 225.314C213.311 225.074 212.939 224.954 212.459 224.954C211.979 224.954 211.511 225.026 211.055 225.17C210.599 225.302 210.143 225.47 209.687 225.674L208.805 223.856C209.333 223.58 209.915 223.364 210.551 223.208C211.199 223.052 211.871 222.974 212.567 222.974ZM212.945 228.482C212.081 228.506 211.481 228.662 211.145 228.95C210.809 229.238 210.641 229.616 210.641 230.084C210.641 230.492 210.761 230.786 211.001 230.966C211.241 231.134 211.553 231.218 211.937 231.218C212.513 231.218 212.999 231.05 213.395 230.714C213.791 230.366 213.989 229.88 213.989 229.256V228.446L212.945 228.482ZM223.391 220.115V223.666H225.359V226.276H223.391V229.59C223.391 229.988 223.429 230.252 223.505 230.381C223.622 230.58 223.827 230.68 224.12 230.68C224.384 230.68 224.753 230.604 225.228 230.451L225.491 232.921C224.606 233.114 223.78 233.211 223.013 233.211C222.122 233.211 221.466 233.097 221.044 232.868C220.622 232.64 220.309 232.294 220.104 231.831C219.904 231.362 219.805 230.606 219.805 229.563V226.276H218.486V223.666H219.805V221.952L223.391 220.115ZM242.911 221.135H244.528V222.567H242.911V233H239.562V231.62C239.094 232.206 238.666 232.602 238.279 232.807C237.764 233.076 237.189 233.211 236.557 233.211C235.285 233.211 234.312 232.728 233.639 231.761C232.971 230.794 232.637 229.619 232.637 228.236C232.637 226.689 233.006 225.506 233.744 224.686C234.488 223.865 235.432 223.455 236.574 223.455C237.131 223.455 237.635 223.549 238.086 223.736C238.543 223.924 238.947 224.205 239.299 224.58V222.567H236.609V221.135H239.299V220.115H242.911V221.135ZM239.325 228.307C239.325 227.574 239.17 227.029 238.859 226.672C238.549 226.309 238.156 226.127 237.682 226.127C237.266 226.127 236.917 226.3 236.636 226.646C236.354 226.991 236.214 227.571 236.214 228.386C236.214 229.147 236.357 229.707 236.645 230.064C236.938 230.416 237.298 230.592 237.726 230.592C238.183 230.592 238.563 230.413 238.868 230.056C239.173 229.698 239.325 229.115 239.325 228.307ZM246.17 221.858C246.374 221.63 246.584 221.378 246.8 221.102C247.016 220.814 247.232 220.526 247.448 220.238C247.676 219.938 247.88 219.656 248.06 219.392H250.832C251.024 219.656 251.228 219.938 251.444 220.238C251.66 220.526 251.876 220.814 252.092 221.102C252.32 221.378 252.53 221.63 252.722 221.858V222.092H251.3C251 221.888 250.694 221.666 250.382 221.426C250.07 221.174 249.758 220.91 249.446 220.634C249.146 220.91 248.834 221.174 248.51 221.426C248.198 221.666 247.892 221.888 247.592 222.092H246.17V221.858ZM245.612 220.382C245.276 220.13 244.922 219.854 244.55 219.554C244.19 219.242 243.878 218.912 243.614 218.564V218.384H245.738C245.93 218.768 246.122 219.098 246.314 219.374C246.506 219.638 246.716 219.896 246.944 220.148V220.382H245.612ZM249.446 222.974C250.766 222.974 251.774 223.262 252.47 223.838C253.178 224.402 253.532 225.272 253.532 226.448V233H251.66L251.138 231.668H251.066C250.79 232.016 250.502 232.304 250.202 232.532C249.914 232.76 249.578 232.922 249.194 233.018C248.822 233.126 248.36 233.18 247.808 233.18C247.232 233.18 246.71 233.072 246.242 232.856C245.786 232.628 245.426 232.286 245.162 231.83C244.898 231.362 244.766 230.774 244.766 230.066C244.766 229.022 245.132 228.254 245.864 227.762C246.596 227.258 247.694 226.982 249.158 226.934L250.868 226.88V226.448C250.868 225.932 250.73 225.554 250.454 225.314C250.19 225.074 249.818 224.954 249.338 224.954C248.858 224.954 248.39 225.026 247.934 225.17C247.478 225.302 247.022 225.47 246.566 225.674L245.684 223.856C246.212 223.58 246.794 223.364 247.43 223.208C248.078 223.052 248.75 222.974 249.446 222.974ZM249.824 228.482C248.96 228.506 248.36 228.662 248.024 228.95C247.688 229.238 247.52 229.616 247.52 230.084C247.52 230.492 247.64 230.786 247.88 230.966C248.12 231.134 248.432 231.218 248.816 231.218C249.392 231.218 249.878 231.05 250.274 230.714C250.67 230.366 250.868 229.88 250.868 229.256V228.446L249.824 228.482ZM265.789 233H262.449V231.488C261.951 232.109 261.447 232.552 260.938 232.815C260.434 233.079 259.812 233.211 259.074 233.211C258.09 233.211 257.316 232.918 256.754 232.332C256.197 231.74 255.919 230.832 255.919 229.607V223.666H259.514V228.799C259.514 229.385 259.622 229.801 259.839 230.047C260.056 230.293 260.36 230.416 260.753 230.416C261.181 230.416 261.529 230.252 261.799 229.924C262.074 229.596 262.212 229.007 262.212 228.157V223.666H265.789V233Z" fill="white"/>
</g>
<defs>
<filter id="filter0_d_1660_36519" x="190.449" y="215.809" width="79.3398" height="23.4023" filterUnits="userSpaceOnUse" color-interpolation-filters="sRGB">
<feFlood flood-opacity="0" result="BackgroundImageFix"/>
<feColorMatrix in="SourceAlpha" type="matrix" values="0 0 0 0 0 0 0 0 0 0 0 0 0 0 0 0 0 0 127 0" result="hardAlpha"/>
<feOffset dy="2"/>
<feGaussianBlur stdDeviation="2"/>
<feComposite in2="hardAlpha" operator="out"/>
<feColorMatrix type="matrix" values="0 0 0 0 0 0 0 0 0 0 0 0 0 0 0 0 0 0 0.3 0"/>
<feBlend mode="normal" in2="BackgroundImageFix" result="effect1_dropShadow_1660_36519"/>
<feBlend mode="normal" in="SourceGraphic" in2="effect1_dropShadow_1660_36519" result="shape"/>
</filter>
<clipPath id="clip0_1660_36519">
<rect width="143" height="46" fill="white" transform="translate(158.5 105.5)"/>
</clipPath>
<clipPath id="clip1_1660_36519">
<rect width="24" height="24" fill="white" transform="translate(158.5 105.5)"/>
</clipPath>
</defs>
</svg>
