<svg width="460" height="284" viewBox="0 0 460 284" fill="none" xmlns="http://www.w3.org/2000/svg">
<rect width="460" height="284" rx="10" fill="#F4F7FD"/>
<rect x="10" y="20" width="50" height="50" rx="10" fill="#FB6943"/>
<path d="M36.1279 39.79V50.5H34.4929V41.755C33.8329 42.375 33.0129 42.825 32.0329 43.105V41.485C32.5129 41.365 33.0229 41.155 33.5629 40.855C34.1029 40.515 34.5429 40.16 34.8829 39.79H36.1279Z" fill="white"/>
<rect x="70" y="20" width="50" height="50" rx="10" fill="#F1F1F1"/>
<path d="M95.1679 39.58C96.2079 39.58 97.0529 39.875 97.7029 40.465C98.3529 41.065 98.6779 41.835 98.6779 42.775C98.6779 43.685 98.3279 44.53 97.6279 45.31C97.2079 45.74 96.4679 46.315 95.4079 47.035C94.2579 47.795 93.5679 48.47 93.3379 49.06H98.6929V50.5H91.3129C91.3129 49.43 91.6679 48.495 92.3779 47.695C92.7479 47.255 93.5529 46.605 94.7929 45.745C95.5229 45.225 96.0329 44.815 96.3229 44.515C96.8129 43.965 97.0579 43.38 97.0579 42.76C97.0579 42.16 96.8929 41.71 96.5629 41.41C96.2329 41.11 95.7479 40.96 95.1079 40.96C94.4279 40.96 93.9179 41.19 93.5779 41.65C93.2279 42.09 93.0379 42.745 93.0079 43.615H91.3729C91.3929 42.415 91.7379 41.455 92.4079 40.735C93.0879 39.965 94.0079 39.58 95.1679 39.58Z" fill="#A6A6A6"/>
<rect x="130" y="20" width="50" height="50" rx="10" fill="#F1F1F1"/>
<path d="M155.108 39.58C156.188 39.58 157.053 39.84 157.703 40.36C158.343 40.89 158.663 41.61 158.663 42.52C158.663 43.7 158.073 44.485 156.893 44.875C157.513 45.065 157.993 45.36 158.333 45.76C158.693 46.16 158.873 46.68 158.873 47.32C158.873 48.31 158.533 49.12 157.853 49.75C157.123 50.39 156.188 50.71 155.048 50.71C153.958 50.71 153.078 50.43 152.408 49.87C151.658 49.24 151.238 48.325 151.148 47.125H152.798C152.828 47.855 153.063 48.41 153.503 48.79C153.893 49.15 154.403 49.33 155.033 49.33C155.713 49.33 156.268 49.13 156.698 48.73C157.068 48.36 157.253 47.915 157.253 47.395C157.253 46.765 157.058 46.3 156.668 46C156.308 45.7 155.773 45.55 155.063 45.55H154.283V44.32H155.048C155.698 44.32 156.193 44.175 156.533 43.885C156.873 43.595 157.043 43.18 157.043 42.64C157.043 42.11 156.888 41.7 156.578 41.41C156.258 41.12 155.773 40.975 155.123 40.975C154.473 40.975 153.968 41.14 153.608 41.47C153.238 41.81 153.023 42.305 152.963 42.955H151.358C151.448 41.895 151.843 41.065 152.543 40.465C153.193 39.875 154.048 39.58 155.108 39.58Z" fill="#A6A6A6"/>
<rect x="190" y="20" width="50" height="50" rx="10" fill="#F1F1F1"/>
<path d="M217.583 39.79V46.87H219.203V48.175H217.583V50.5H216.023V48.175H210.803V46.63L216.083 39.79H217.583ZM215.978 41.86L212.138 46.87H216.023V41.86H215.978Z" fill="#A6A6A6"/>
<rect x="250.5" y="20.5" width="199" height="49" rx="9.5" fill="white"/>
<path d="M263.05 39.79H264.985L268.72 48.37H268.765L272.485 39.79H274.42V50.5H272.785V42.85H272.725L269.44 50.5H268.03L264.745 42.85H264.685V50.5H263.05V39.79ZM276.557 39.79H278.177V50.5H276.557V39.79ZM280.306 39.79H281.956L287.431 47.755H287.491V39.79H289.126V50.5H287.536L282.001 42.445H281.941V50.5H280.306V39.79ZM291.234 39.79H298.929V41.185H292.869V44.305H298.569V45.7H292.869V49.105H299.184V50.5H291.234V39.79ZM304.593 39.58C305.853 39.58 306.828 39.845 307.518 40.375C308.268 40.925 308.693 41.785 308.793 42.955H307.173C307.023 42.245 306.743 41.745 306.333 41.455C305.923 41.145 305.313 40.99 304.503 40.99C303.803 40.99 303.263 41.095 302.883 41.305C302.423 41.545 302.193 41.935 302.193 42.475C302.193 42.955 302.458 43.335 302.988 43.615C303.248 43.765 303.868 43.985 304.848 44.275C306.328 44.735 307.263 45.085 307.653 45.325C308.573 45.885 309.033 46.655 309.033 47.635C309.033 48.585 308.658 49.34 307.908 49.9C307.158 50.44 306.108 50.71 304.758 50.71C303.468 50.71 302.448 50.45 301.698 49.93C300.818 49.3 300.333 48.31 300.243 46.96H301.863C301.983 47.81 302.283 48.415 302.763 48.775C303.203 49.105 303.868 49.27 304.758 49.27C305.548 49.27 306.193 49.13 306.693 48.85C307.173 48.58 307.413 48.205 307.413 47.725C307.413 47.135 307.073 46.665 306.393 46.315C306.143 46.195 305.433 45.955 304.263 45.595C302.923 45.165 302.103 44.87 301.803 44.71C300.983 44.22 300.573 43.505 300.573 42.565C300.573 41.625 300.968 40.885 301.758 40.345C302.508 39.835 303.453 39.58 304.593 39.58Z" fill="#484848"/>
<path fill-rule="evenodd" clip-rule="evenodd" d="M427 49.375L420 42.8052L421.065 41.5L427 47.0705L432.935 41.5L434 42.8052L427 49.375Z" fill="#A6A6A6"/>
<rect x="250.5" y="20.5" width="199" height="49" rx="9.5" stroke="#ECECEC"/>
<rect x="10.5" y="90.5" width="439" height="76" rx="9.5" fill="white"/>
<rect x="18" y="98" width="50" height="26.5" rx="10" fill="#F1F1F1"/>
<path d="M30.5939 116.4C29.6539 116.4 28.9239 116.175 28.4039 115.725C27.8939 115.265 27.6389 114.58 27.6389 113.67V112.755C27.6389 112.255 27.7089 111.86 27.8489 111.57C27.9889 111.28 28.1389 111.03 28.2989 110.82C28.4689 110.59 28.6139 110.39 28.7339 110.22C28.8639 110.05 28.9289 109.845 28.9289 109.605C28.9289 109.395 28.8739 109.245 28.7639 109.155C28.6639 109.065 28.5339 109.02 28.3739 109.02C28.2539 109.02 28.1239 109.04 27.9839 109.08C27.8539 109.12 27.7239 109.17 27.5939 109.23L27.2939 108.27C27.4739 108.15 27.6939 108.065 27.9539 108.015C28.2239 107.965 28.4589 107.94 28.6589 107.94C29.0289 107.94 29.3239 108.005 29.5439 108.135C29.7739 108.265 29.9389 108.445 30.0389 108.675C30.1389 108.895 30.1889 109.155 30.1889 109.455C30.1889 109.825 30.1239 110.13 29.9939 110.37C29.8739 110.61 29.7289 110.845 29.5589 111.075C29.3889 111.325 29.2489 111.565 29.1389 111.795C29.0289 112.025 28.9739 112.325 28.9739 112.695V113.58C28.9739 114.04 29.0489 114.395 29.1989 114.645C29.3489 114.895 29.5489 115.07 29.7989 115.17C30.0489 115.26 30.3139 115.305 30.5939 115.305C31.0939 115.305 31.4739 115.19 31.7339 114.96C32.0039 114.72 32.1389 114.355 32.1389 113.865V108.03H33.4739V113.94C33.4739 114.71 33.2289 115.315 32.7389 115.755C32.2589 116.185 31.5439 116.4 30.5939 116.4ZM31.5496 106.725C31.1296 106.725 30.7946 106.665 30.5446 106.545C30.2946 106.425 30.1146 106.27 30.0046 106.08C29.8846 105.89 29.8246 105.69 29.8246 105.48C29.8246 105.33 29.8496 105.17 29.8996 105C29.9396 104.82 29.9946 104.675 30.0646 104.565L31.1896 104.76C31.1696 104.8 31.1496 104.87 31.1296 104.97C31.1096 105.06 31.0996 105.145 31.0996 105.225C31.0996 105.355 31.1396 105.47 31.2196 105.57C31.2996 105.66 31.4346 105.705 31.6246 105.705H35.4196V106.725H31.5496ZM31.3737 104.56V104.035C31.5037 104.005 31.6437 103.96 31.7937 103.9C31.9437 103.84 32.0737 103.765 32.1837 103.675C32.2937 103.575 32.3487 103.45 32.3487 103.3C32.3487 103.19 32.3187 103.105 32.2587 103.045C32.1987 102.985 32.1137 102.955 32.0037 102.955C31.9237 102.955 31.8437 102.97 31.7637 103C31.6737 103.02 31.5887 103.055 31.5087 103.105L31.2387 102.415C31.4187 102.295 31.6237 102.215 31.8537 102.175C32.0737 102.135 32.2487 102.115 32.3787 102.115C32.6387 102.115 32.8737 102.185 33.0837 102.325C33.2937 102.455 33.3987 102.68 33.3987 103C33.3987 103.13 33.3737 103.28 33.3237 103.45C33.2637 103.61 33.1437 103.74 32.9637 103.84L32.8737 103.555H35.1537V104.56H31.3737ZM38.737 116.4C38.147 116.4 37.637 116.3 37.207 116.1C36.787 115.89 36.462 115.575 36.232 115.155C36.012 114.735 35.902 114.19 35.902 113.52V108.03H37.237V113.445C37.237 114.045 37.387 114.5 37.687 114.81C37.997 115.12 38.442 115.275 39.022 115.275C39.722 115.275 40.262 115.05 40.642 114.6C41.032 114.15 41.227 113.545 41.227 112.785V108.03H42.562V116.25H41.452L41.392 115.035H41.317C41.137 115.435 40.822 115.765 40.372 116.025C39.932 116.275 39.387 116.4 38.737 116.4ZM48.0112 116.4C47.1712 116.4 46.5212 116.21 46.0612 115.83C45.6012 115.44 45.2812 114.915 45.1012 114.255C44.9212 113.585 44.8312 112.825 44.8312 111.975C44.8312 110.995 44.9212 110.205 45.1012 109.605C45.2912 109.005 45.5662 108.57 45.9262 108.3C46.2862 108.02 46.7262 107.88 47.2462 107.88C47.5962 107.88 47.8912 107.94 48.1312 108.06C48.3812 108.18 48.5562 108.38 48.6562 108.66H48.7162C48.8162 108.37 48.9962 108.17 49.2562 108.06C49.5162 107.94 49.8212 107.88 50.1712 107.88C50.8212 107.88 51.3212 108.055 51.6712 108.405C52.0312 108.745 52.2112 109.27 52.2112 109.98V116.25H50.8762V109.995C50.8762 109.605 50.7912 109.34 50.6212 109.2C50.4512 109.06 50.2362 108.99 49.9762 108.99C49.6862 108.99 49.4712 109.06 49.3312 109.2C49.2012 109.34 49.1212 109.57 49.0912 109.89H48.2512C48.2112 109.54 48.1062 109.305 47.9362 109.185C47.7662 109.055 47.5762 108.99 47.3662 108.99C46.9662 108.99 46.6662 109.225 46.4662 109.695C46.2662 110.155 46.1662 110.92 46.1662 111.99C46.1662 112.68 46.2162 113.27 46.3162 113.76C46.4262 114.25 46.6262 114.63 46.9162 114.9C47.2062 115.16 47.6262 115.29 48.1762 115.29C48.3762 115.29 48.5412 115.28 48.6712 115.26C48.8012 115.24 48.9262 115.215 49.0462 115.185L49.1812 116.205C49.0312 116.275 48.8512 116.325 48.6412 116.355C48.4312 116.385 48.2212 116.4 48.0112 116.4ZM50.9638 107.085C50.4638 107.085 50.0688 106.97 49.7788 106.74C49.4888 106.5 49.3438 106.165 49.3438 105.735C49.3438 105.295 49.4888 104.96 49.7788 104.73C50.0688 104.5 50.4638 104.385 50.9638 104.385C51.4638 104.385 51.8638 104.5 52.1638 104.73C52.4638 104.96 52.6138 105.295 52.6138 105.735C52.6138 106.165 52.4638 106.5 52.1638 106.74C51.8638 106.97 51.4638 107.085 50.9638 107.085ZM50.9638 106.38C51.2038 106.38 51.3888 106.32 51.5188 106.2C51.6388 106.08 51.6988 105.925 51.6988 105.735C51.6988 105.535 51.6388 105.38 51.5188 105.27C51.3888 105.15 51.2038 105.09 50.9638 105.09C50.7338 105.09 50.5588 105.15 50.4388 105.27C50.3088 105.38 50.2438 105.535 50.2438 105.735C50.2438 105.925 50.3088 106.08 50.4388 106.2C50.5588 106.32 50.7338 106.38 50.9638 106.38ZM50.3293 103.56V101.115H51.6043V103.56H50.3293ZM56.9624 116.25V110.415C56.9624 109.925 56.8474 109.565 56.6174 109.335C56.3974 109.105 56.0224 108.99 55.4924 108.99C55.1324 108.99 54.7924 109.04 54.4724 109.14C54.1624 109.23 53.8624 109.36 53.5724 109.53V108.33C53.7724 108.23 54.0574 108.13 54.4274 108.03C54.7974 107.93 55.2374 107.88 55.7474 107.88C56.2674 107.88 56.7174 107.955 57.0974 108.105C57.4774 108.255 57.7724 108.505 57.9824 108.855C58.1924 109.195 58.2974 109.65 58.2974 110.22V116.25H56.9624Z" fill="#A6A6A6"/>
<rect x="18" y="132.5" width="50" height="26.5" rx="10" fill="#F1F1F1"/>
<path d="M29.4733 150.9C28.5333 150.9 27.8033 150.675 27.2833 150.225C26.7733 149.765 26.5183 149.08 26.5183 148.17V147.255C26.5183 146.755 26.5883 146.36 26.7283 146.07C26.8683 145.78 27.0183 145.53 27.1783 145.32C27.3483 145.09 27.4933 144.89 27.6133 144.72C27.7433 144.55 27.8083 144.345 27.8083 144.105C27.8083 143.895 27.7533 143.745 27.6433 143.655C27.5433 143.565 27.4133 143.52 27.2533 143.52C27.1333 143.52 27.0033 143.54 26.8633 143.58C26.7333 143.62 26.6033 143.67 26.4733 143.73L26.1733 142.77C26.3533 142.65 26.5733 142.565 26.8333 142.515C27.1033 142.465 27.3383 142.44 27.5383 142.44C27.9083 142.44 28.2033 142.505 28.4233 142.635C28.6533 142.765 28.8183 142.945 28.9183 143.175C29.0183 143.395 29.0683 143.655 29.0683 143.955C29.0683 144.325 29.0033 144.63 28.8733 144.87C28.7533 145.11 28.6083 145.345 28.4383 145.575C28.2683 145.825 28.1283 146.065 28.0183 146.295C27.9083 146.525 27.8533 146.825 27.8533 147.195V148.08C27.8533 148.54 27.9283 148.895 28.0783 149.145C28.2283 149.395 28.4283 149.57 28.6783 149.67C28.9283 149.76 29.1933 149.805 29.4733 149.805C29.9733 149.805 30.3533 149.69 30.6133 149.46C30.8833 149.22 31.0183 148.855 31.0183 148.365V142.53H32.3533V148.44C32.3533 149.21 32.1083 149.815 31.6183 150.255C31.1383 150.685 30.4233 150.9 29.4733 150.9ZM25.9589 141.225V140.64L27.0539 140.16H32.3339V141.225H25.9589ZM31.0889 140.64V138.945H32.3489V140.64H31.0889ZM37.5864 150.9C36.7864 150.9 36.1564 150.715 35.6964 150.345C35.2464 149.965 34.9264 149.455 34.7364 148.815C34.5564 148.175 34.4664 147.47 34.4664 146.7C34.4664 145.85 34.5514 145.15 34.7214 144.6C34.9014 144.04 35.1514 143.6 35.4714 143.28C35.8014 142.95 36.1914 142.72 36.6414 142.59C37.1014 142.45 37.6064 142.38 38.1564 142.38C38.9564 142.38 39.6064 142.5 40.1064 142.74C40.6164 142.97 40.9914 143.3 41.2314 143.73C41.4714 144.16 41.5914 144.675 41.5914 145.275V150.75H40.2714V145.395C40.2714 144.775 40.1164 144.305 39.8064 143.985C39.4964 143.655 38.9614 143.49 38.2014 143.49C37.7414 143.49 37.3264 143.575 36.9564 143.745C36.5964 143.915 36.3114 144.23 36.1014 144.69C35.9014 145.15 35.8014 145.825 35.8014 146.715C35.8014 147.295 35.8564 147.82 35.9664 148.29C36.0864 148.75 36.2914 149.115 36.5814 149.385C36.8714 149.655 37.2764 149.79 37.7964 149.79C37.9464 149.79 38.0864 149.78 38.2164 149.76C38.3464 149.74 38.4714 149.71 38.5914 149.67L38.7264 150.705C38.5664 150.775 38.3814 150.825 38.1714 150.855C37.9714 150.885 37.7764 150.9 37.5864 150.9ZM48.8396 150.75V145.275C48.8396 144.625 48.6896 144.165 48.3896 143.895C48.0996 143.615 47.6096 143.475 46.9196 143.475C46.4196 143.475 45.9396 143.545 45.4796 143.685C45.0296 143.815 44.5996 144 44.1896 144.24V142.995C44.4796 142.845 44.8696 142.705 45.3596 142.575C45.8596 142.445 46.4196 142.38 47.0396 142.38C47.5696 142.38 48.0196 142.44 48.3896 142.56C48.7696 142.68 49.0496 142.9 49.2296 143.22C49.5796 143.38 49.8196 143.63 49.9496 143.97C50.0896 144.31 50.1596 144.72 50.1596 145.2V150.75H48.8396ZM46.2596 150.9C45.3796 150.9 44.7046 150.7 44.2346 150.3C43.7746 149.89 43.5446 149.305 43.5446 148.545C43.5446 147.715 43.8446 147.075 44.4446 146.625C45.0546 146.175 46.0396 145.91 47.3996 145.83L49.1096 145.725V146.835L47.5796 146.94C46.5596 147.01 45.8546 147.17 45.4646 147.42C45.0846 147.67 44.8946 148.035 44.8946 148.515C44.8946 148.965 45.0346 149.295 45.3146 149.505C45.6046 149.715 46.0046 149.82 46.5146 149.82C46.6846 149.82 46.8396 149.81 46.9796 149.79C47.1196 149.76 47.2546 149.725 47.3846 149.685L47.5946 150.69C47.4046 150.76 47.1946 150.81 46.9646 150.84C46.7446 150.88 46.5096 150.9 46.2596 150.9ZM49.1846 143.685L48.4346 142.98C48.6946 142.94 48.9396 142.84 49.1696 142.68C49.3996 142.52 49.5146 142.29 49.5146 141.99H50.8196C50.8196 142.3 50.7446 142.575 50.5946 142.815C50.4546 143.045 50.2596 143.235 50.0096 143.385C49.7596 143.525 49.4846 143.625 49.1846 143.685ZM48.9611 154.665V153.075C48.9611 152.825 48.8511 152.7 48.6311 152.7C48.5811 152.7 48.5311 152.705 48.4811 152.715C48.4211 152.725 48.3661 152.74 48.3161 152.76L48.2111 151.86C48.3611 151.81 48.5261 151.77 48.7061 151.74C48.8761 151.72 49.0161 151.71 49.1261 151.71C49.4761 151.71 49.7361 151.79 49.9061 151.95C50.0661 152.12 50.1461 152.35 50.1461 152.64V154.665H48.9611ZM55.4136 150.9C54.6136 150.9 53.9836 150.715 53.5236 150.345C53.0736 149.965 52.7536 149.455 52.5636 148.815C52.3836 148.175 52.2936 147.47 52.2936 146.7C52.2936 145.85 52.3786 145.15 52.5486 144.6C52.7286 144.04 52.9786 143.6 53.2986 143.28C53.6286 142.95 54.0186 142.72 54.4686 142.59C54.9286 142.45 55.4336 142.38 55.9836 142.38C56.7836 142.38 57.4336 142.5 57.9336 142.74C58.4436 142.97 58.8186 143.3 59.0586 143.73C59.2986 144.16 59.4186 144.675 59.4186 145.275V150.75H58.0986V145.395C58.0986 144.775 57.9436 144.305 57.6336 143.985C57.3236 143.655 56.7886 143.49 56.0286 143.49C55.5686 143.49 55.1536 143.575 54.7836 143.745C54.4236 143.915 54.1386 144.23 53.9286 144.69C53.7286 145.15 53.6286 145.825 53.6286 146.715C53.6286 147.295 53.6836 147.82 53.7936 148.29C53.9136 148.75 54.1186 149.115 54.4086 149.385C54.6986 149.655 55.1036 149.79 55.6236 149.79C55.7736 149.79 55.9136 149.78 56.0436 149.76C56.1736 149.74 56.2986 149.71 56.4186 149.67L56.5536 150.705C56.3936 150.775 56.2086 150.825 55.9986 150.855C55.7986 150.885 55.6036 150.9 55.4136 150.9Z" fill="#A6A6A6"/>
<g clip-path="url(#clip0_1660_36510)">
<g clip-path="url(#clip1_1660_36510)">
<path d="M182.138 120.403C180.536 126.831 174.024 130.744 167.595 129.141C161.168 127.538 157.256 121.026 158.859 114.598C160.461 108.169 166.973 104.256 173.4 105.859C179.829 107.462 183.741 113.974 182.138 120.403L182.138 120.403H182.138Z" fill="#F7931A"/>
<path d="M175.791 115.789C176.03 114.192 174.814 113.334 173.152 112.761L173.691 110.598L172.374 110.27L171.849 112.376C171.503 112.29 171.147 112.209 170.794 112.128L171.323 110.008L170.007 109.68L169.467 111.842C169.181 111.777 168.899 111.712 168.626 111.645L168.628 111.638L166.812 111.184L166.462 112.591C166.462 112.591 167.439 112.815 167.418 112.828C167.951 112.962 168.048 113.315 168.032 113.594L167.417 116.059C167.454 116.068 167.502 116.082 167.554 116.103C167.51 116.092 167.464 116.08 167.415 116.068L166.554 119.52C166.489 119.682 166.323 119.926 165.951 119.833C165.964 119.852 164.994 119.594 164.994 119.594L164.34 121.102L166.053 121.529C166.372 121.609 166.685 121.693 166.992 121.771L166.447 123.959L167.763 124.287L168.302 122.123C168.662 122.22 169.01 122.31 169.352 122.395L168.814 124.549L170.131 124.878L170.676 122.694C172.921 123.119 174.609 122.947 175.32 120.916C175.893 119.281 175.292 118.338 174.11 117.723C174.971 117.524 175.619 116.959 175.792 115.79L175.791 115.789L175.791 115.789ZM172.782 120.008C172.376 121.643 169.622 120.759 168.73 120.538L169.453 117.639C170.345 117.862 173.208 118.303 172.783 120.008H172.782ZM173.19 115.766C172.818 117.253 170.527 116.497 169.784 116.312L170.439 113.683C171.183 113.868 173.576 114.214 173.19 115.766H173.19Z" fill="white"/>
</g>
<path d="M187.715 119.005C187.715 116.556 188.154 114.842 189.033 113.863C189.918 112.885 191.263 112.396 193.067 112.396C193.935 112.396 194.646 112.504 195.203 112.721C195.76 112.932 196.214 113.21 196.565 113.556C196.917 113.896 197.192 114.256 197.392 114.637C197.597 115.012 197.761 115.451 197.884 115.955C198.124 116.916 198.244 117.918 198.244 118.961C198.244 121.299 197.849 123.01 197.058 124.094C196.267 125.178 194.904 125.72 192.971 125.72C191.887 125.72 191.011 125.547 190.343 125.201C189.675 124.855 189.127 124.349 188.699 123.681C188.389 123.206 188.146 122.559 187.97 121.738C187.8 120.912 187.715 120.001 187.715 119.005ZM191.266 119.014C191.266 120.654 191.409 121.776 191.696 122.38C191.989 122.978 192.411 123.276 192.962 123.276C193.325 123.276 193.639 123.15 193.902 122.898C194.172 122.641 194.368 122.236 194.491 121.686C194.62 121.135 194.685 120.276 194.685 119.11C194.685 117.399 194.538 116.251 194.245 115.665C193.958 115.073 193.524 114.777 192.944 114.777C192.353 114.777 191.925 115.079 191.661 115.683C191.397 116.28 191.266 117.391 191.266 119.014ZM200.072 121.914H203.896V125.5H200.072V121.914ZM205.715 119.005C205.715 116.556 206.154 114.842 207.033 113.863C207.918 112.885 209.263 112.396 211.067 112.396C211.935 112.396 212.646 112.504 213.203 112.721C213.76 112.932 214.214 113.21 214.565 113.556C214.917 113.896 215.192 114.256 215.392 114.637C215.597 115.012 215.761 115.451 215.884 115.955C216.124 116.916 216.244 117.918 216.244 118.961C216.244 121.299 215.849 123.01 215.058 124.094C214.267 125.178 212.904 125.72 210.971 125.72C209.887 125.72 209.011 125.547 208.343 125.201C207.675 124.855 207.127 124.349 206.699 123.681C206.389 123.206 206.146 122.559 205.97 121.738C205.8 120.912 205.715 120.001 205.715 119.005ZM209.266 119.014C209.266 120.654 209.409 121.776 209.696 122.38C209.989 122.978 210.411 123.276 210.962 123.276C211.325 123.276 211.639 123.15 211.902 122.898C212.172 122.641 212.368 122.236 212.491 121.686C212.62 121.135 212.685 120.276 212.685 119.11C212.685 117.399 212.538 116.251 212.245 115.665C211.958 115.073 211.524 114.777 210.944 114.777C210.353 114.777 209.925 115.079 209.661 115.683C209.397 116.28 209.266 117.391 209.266 119.014ZM217.721 119.005C217.721 116.556 218.16 114.842 219.039 113.863C219.924 112.885 221.269 112.396 223.073 112.396C223.94 112.396 224.652 112.504 225.209 112.721C225.766 112.932 226.22 113.21 226.571 113.556C226.923 113.896 227.198 114.256 227.397 114.637C227.603 115.012 227.767 115.451 227.89 115.955C228.13 116.916 228.25 117.918 228.25 118.961C228.25 121.299 227.854 123.01 227.063 124.094C226.272 125.178 224.91 125.72 222.977 125.72C221.893 125.72 221.017 125.547 220.349 125.201C219.681 124.855 219.133 124.349 218.705 123.681C218.395 123.206 218.151 122.559 217.976 121.738C217.806 120.912 217.721 120.001 217.721 119.005ZM221.271 119.014C221.271 120.654 221.415 121.776 221.702 122.38C221.995 122.978 222.417 123.276 222.968 123.276C223.331 123.276 223.645 123.15 223.908 122.898C224.178 122.641 224.374 122.236 224.497 121.686C224.626 121.135 224.69 120.276 224.69 119.11C224.69 117.399 224.544 116.251 224.251 115.665C223.964 115.073 223.53 114.777 222.95 114.777C222.358 114.777 221.931 115.079 221.667 115.683C221.403 116.28 221.271 117.391 221.271 119.014ZM229.727 119.005C229.727 116.556 230.166 114.842 231.045 113.863C231.93 112.885 233.274 112.396 235.079 112.396C235.946 112.396 236.658 112.504 237.215 112.721C237.771 112.932 238.226 113.21 238.577 113.556C238.929 113.896 239.204 114.256 239.403 114.637C239.608 115.012 239.772 115.451 239.896 115.955C240.136 116.916 240.256 117.918 240.256 118.961C240.256 121.299 239.86 123.01 239.069 124.094C238.278 125.178 236.916 125.72 234.982 125.72C233.898 125.72 233.022 125.547 232.354 125.201C231.687 124.855 231.139 124.349 230.711 123.681C230.4 123.206 230.157 122.559 229.981 121.738C229.812 120.912 229.727 120.001 229.727 119.005ZM233.277 119.014C233.277 120.654 233.421 121.776 233.708 122.38C234.001 122.978 234.423 123.276 234.974 123.276C235.337 123.276 235.65 123.15 235.914 122.898C236.184 122.641 236.38 122.236 236.503 121.686C236.632 121.135 236.696 120.276 236.696 119.11C236.696 117.399 236.55 116.251 236.257 115.665C235.97 115.073 235.536 114.777 234.956 114.777C234.364 114.777 233.937 115.079 233.673 115.683C233.409 116.28 233.277 117.391 233.277 119.014ZM241.732 119.005C241.732 116.556 242.172 114.842 243.051 113.863C243.936 112.885 245.28 112.396 247.085 112.396C247.952 112.396 248.664 112.504 249.221 112.721C249.777 112.932 250.231 113.21 250.583 113.556C250.935 113.896 251.21 114.256 251.409 114.637C251.614 115.012 251.778 115.451 251.901 115.955C252.142 116.916 252.262 117.918 252.262 118.961C252.262 121.299 251.866 123.01 251.075 124.094C250.284 125.178 248.922 125.72 246.988 125.72C245.904 125.72 245.028 125.547 244.36 125.201C243.692 124.855 243.145 124.349 242.717 123.681C242.406 123.206 242.163 122.559 241.987 121.738C241.817 120.912 241.732 120.001 241.732 119.005ZM245.283 119.014C245.283 120.654 245.427 121.776 245.714 122.38C246.007 122.978 246.429 123.276 246.979 123.276C247.343 123.276 247.656 123.15 247.92 122.898C248.189 122.641 248.386 122.236 248.509 121.686C248.638 121.135 248.702 120.276 248.702 119.11C248.702 117.399 248.556 116.251 248.263 115.665C247.976 115.073 247.542 114.777 246.962 114.777C246.37 114.777 245.942 115.079 245.679 115.683C245.415 116.28 245.283 117.391 245.283 119.014ZM261.851 112.396V125.5H258.229V116.913C257.644 117.358 257.075 117.719 256.524 117.994C255.979 118.27 255.294 118.533 254.468 118.785V115.85C255.687 115.457 256.633 114.985 257.307 114.435C257.98 113.884 258.508 113.204 258.889 112.396H261.851ZM265.744 119.005C265.744 116.556 266.184 114.842 267.062 113.863C267.947 112.885 269.292 112.396 271.097 112.396C271.964 112.396 272.676 112.504 273.232 112.721C273.789 112.932 274.243 113.21 274.595 113.556C274.946 113.896 275.222 114.256 275.421 114.637C275.626 115.012 275.79 115.451 275.913 115.955C276.153 116.916 276.273 117.918 276.273 118.961C276.273 121.299 275.878 123.01 275.087 124.094C274.296 125.178 272.934 125.72 271 125.72C269.916 125.72 269.04 125.547 268.372 125.201C267.704 124.855 267.156 124.349 266.729 123.681C266.418 123.206 266.175 122.559 265.999 121.738C265.829 120.912 265.744 120.001 265.744 119.005ZM269.295 119.014C269.295 120.654 269.438 121.776 269.726 122.38C270.019 122.978 270.44 123.276 270.991 123.276C271.354 123.276 271.668 123.15 271.932 122.898C272.201 122.641 272.397 122.236 272.521 121.686C272.649 121.135 272.714 120.276 272.714 119.11C272.714 117.399 272.567 116.251 272.274 115.665C271.987 115.073 271.554 114.777 270.974 114.777C270.382 114.777 269.954 115.079 269.69 115.683C269.427 116.28 269.295 117.391 269.295 119.014ZM277.75 119.005C277.75 116.556 278.189 114.842 279.068 113.863C279.953 112.885 281.298 112.396 283.103 112.396C283.97 112.396 284.682 112.504 285.238 112.721C285.795 112.932 286.249 113.21 286.601 113.556C286.952 113.896 287.228 114.256 287.427 114.637C287.632 115.012 287.796 115.451 287.919 115.955C288.159 116.916 288.279 117.918 288.279 118.961C288.279 121.299 287.884 123.01 287.093 124.094C286.302 125.178 284.939 125.72 283.006 125.72C281.922 125.72 281.046 125.547 280.378 125.201C279.71 124.855 279.162 124.349 278.734 123.681C278.424 123.206 278.181 122.559 278.005 121.738C277.835 120.912 277.75 120.001 277.75 119.005ZM281.301 119.014C281.301 120.654 281.444 121.776 281.731 122.38C282.024 122.978 282.446 123.276 282.997 123.276C283.36 123.276 283.674 123.15 283.938 122.898C284.207 122.641 284.403 122.236 284.526 121.686C284.655 121.135 284.72 120.276 284.72 119.11C284.72 117.399 284.573 116.251 284.28 115.665C283.993 115.073 283.56 114.777 282.979 114.777C282.388 114.777 281.96 115.079 281.696 115.683C281.433 116.28 281.301 117.391 281.301 119.014ZM289.756 119.005C289.756 116.556 290.195 114.842 291.074 113.863C291.959 112.885 293.304 112.396 295.108 112.396C295.976 112.396 296.688 112.504 297.244 112.721C297.801 112.932 298.255 113.21 298.606 113.556C298.958 113.896 299.233 114.256 299.433 114.637C299.638 115.012 299.802 115.451 299.925 115.955C300.165 116.916 300.285 117.918 300.285 118.961C300.285 121.299 299.89 123.01 299.099 124.094C298.308 125.178 296.945 125.72 295.012 125.72C293.928 125.72 293.052 125.547 292.384 125.201C291.716 124.855 291.168 124.349 290.74 123.681C290.43 123.206 290.187 122.559 290.011 121.738C289.841 120.912 289.756 120.001 289.756 119.005ZM293.307 119.014C293.307 120.654 293.45 121.776 293.737 122.38C294.03 122.978 294.452 123.276 295.003 123.276C295.366 123.276 295.68 123.15 295.943 122.898C296.213 122.641 296.409 122.236 296.532 121.686C296.661 121.135 296.726 120.276 296.726 119.11C296.726 117.399 296.579 116.251 296.286 115.665C295.999 115.073 295.565 114.777 294.985 114.777C294.394 114.777 293.966 115.079 293.702 115.683C293.438 116.28 293.307 117.391 293.307 119.014Z" fill="#484848"/>
<path d="M190.421 146.911V143.842C189.464 143.568 188.761 143.156 188.312 142.604C187.867 142.047 187.645 141.374 187.645 140.583C187.645 139.782 187.896 139.11 188.399 138.568C188.907 138.021 189.581 137.707 190.421 137.624V136.898H191.483V137.624C192.259 137.716 192.877 137.982 193.336 138.422C193.795 138.856 194.088 139.44 194.215 140.172L192.362 140.414C192.25 139.838 191.957 139.447 191.483 139.242V142.106C192.655 142.423 193.453 142.836 193.878 143.344C194.303 143.847 194.515 144.494 194.515 145.285C194.515 146.168 194.247 146.913 193.709 147.519C193.177 148.124 192.435 148.495 191.483 148.632V150.001H190.421V148.668C189.576 148.566 188.89 148.251 188.363 147.724C187.835 147.196 187.499 146.452 187.352 145.49L189.264 145.285C189.342 145.675 189.488 146.012 189.703 146.295C189.918 146.579 190.157 146.784 190.421 146.911ZM190.421 139.22C190.133 139.318 189.903 139.484 189.732 139.718C189.562 139.953 189.476 140.211 189.476 140.495C189.476 140.753 189.554 140.995 189.71 141.22C189.867 141.439 190.104 141.618 190.421 141.754V139.22ZM191.483 147.013C191.849 146.945 192.147 146.776 192.376 146.508C192.606 146.234 192.721 145.915 192.721 145.548C192.721 145.221 192.623 144.94 192.428 144.706C192.237 144.467 191.922 144.284 191.483 144.157V147.013ZM199.862 148.5V146.339H195.467V144.538L200.125 137.719H201.854V144.53H203.187V146.339H201.854V148.5H199.862ZM199.862 144.53V140.861L197.394 144.53H199.862ZM204.615 148.5V146.442H206.673V148.5H204.615ZM212.386 148.5V146.339H207.992V144.538L212.65 137.719H214.378V144.53H215.711V146.339H214.378V148.5H212.386ZM212.386 144.53V140.861L209.918 144.53H212.386ZM220.179 137.719C221.219 137.719 222.032 138.09 222.618 138.832C223.316 139.711 223.666 141.168 223.666 143.205C223.666 145.236 223.314 146.696 222.611 147.584C222.03 148.317 221.219 148.683 220.179 148.683C219.134 148.683 218.292 148.283 217.652 147.482C217.013 146.676 216.693 145.243 216.693 143.183C216.693 141.161 217.044 139.706 217.748 138.817C218.329 138.085 219.139 137.719 220.179 137.719ZM220.179 139.425C219.93 139.425 219.708 139.506 219.513 139.667C219.317 139.823 219.166 140.106 219.059 140.517C218.917 141.049 218.846 141.945 218.846 143.205C218.846 144.464 218.91 145.331 219.037 145.805C219.164 146.273 219.322 146.586 219.513 146.742C219.708 146.898 219.93 146.977 220.179 146.977C220.428 146.977 220.65 146.898 220.846 146.742C221.041 146.581 221.192 146.295 221.3 145.885C221.441 145.358 221.512 144.464 221.512 143.205C221.512 141.945 221.449 141.081 221.322 140.612C221.195 140.138 221.034 139.823 220.838 139.667C220.648 139.506 220.428 139.425 220.179 139.425ZM228.529 137.719C229.569 137.719 230.382 138.09 230.968 138.832C231.666 139.711 232.015 141.168 232.015 143.205C232.015 145.236 231.664 146.696 230.96 147.584C230.379 148.317 229.569 148.683 228.529 148.683C227.484 148.683 226.642 148.283 226.002 147.482C225.362 146.676 225.042 145.243 225.042 143.183C225.042 141.161 225.394 139.706 226.097 138.817C226.678 138.085 227.489 137.719 228.529 137.719ZM228.529 139.425C228.28 139.425 228.058 139.506 227.862 139.667C227.667 139.823 227.516 140.106 227.408 140.517C227.267 141.049 227.196 141.945 227.196 143.205C227.196 144.464 227.259 145.331 227.386 145.805C227.513 146.273 227.672 146.586 227.862 146.742C228.058 146.898 228.28 146.977 228.529 146.977C228.778 146.977 229 146.898 229.195 146.742C229.391 146.581 229.542 146.295 229.649 145.885C229.791 145.358 229.862 144.464 229.862 143.205C229.862 141.945 229.798 141.081 229.671 140.612C229.544 140.138 229.383 139.823 229.188 139.667C228.998 139.506 228.778 139.425 228.529 139.425ZM236.878 137.719C237.918 137.719 238.731 138.09 239.317 138.832C240.016 139.711 240.365 141.168 240.365 143.205C240.365 145.236 240.013 146.696 239.31 147.584C238.729 148.317 237.918 148.683 236.878 148.683C235.833 148.683 234.991 148.283 234.352 147.482C233.712 146.676 233.392 145.243 233.392 143.183C233.392 141.161 233.744 139.706 234.447 138.817C235.028 138.085 235.838 137.719 236.878 137.719ZM236.878 139.425C236.629 139.425 236.407 139.506 236.212 139.667C236.017 139.823 235.865 140.106 235.758 140.517C235.616 141.049 235.545 141.945 235.545 143.205C235.545 144.464 235.609 145.331 235.736 145.805C235.863 146.273 236.021 146.586 236.212 146.742C236.407 146.898 236.629 146.977 236.878 146.977C237.127 146.977 237.35 146.898 237.545 146.742C237.74 146.581 237.892 146.295 237.999 145.885C238.141 145.358 238.211 144.464 238.211 143.205C238.211 141.945 238.148 141.081 238.021 140.612C237.894 140.138 237.733 139.823 237.538 139.667C237.347 139.506 237.127 139.425 236.878 139.425ZM245.228 137.719C246.268 137.719 247.081 138.09 247.667 138.832C248.365 139.711 248.714 141.168 248.714 143.205C248.714 145.236 248.363 146.696 247.66 147.584C247.079 148.317 246.268 148.683 245.228 148.683C244.183 148.683 243.341 148.283 242.701 147.482C242.062 146.676 241.742 145.243 241.742 143.183C241.742 141.161 242.093 139.706 242.796 138.817C243.377 138.085 244.188 137.719 245.228 137.719ZM245.228 139.425C244.979 139.425 244.757 139.506 244.562 139.667C244.366 139.823 244.215 140.106 244.107 140.517C243.966 141.049 243.895 141.945 243.895 143.205C243.895 144.464 243.958 145.331 244.085 145.805C244.212 146.273 244.371 146.586 244.562 146.742C244.757 146.898 244.979 146.977 245.228 146.977C245.477 146.977 245.699 146.898 245.895 146.742C246.09 146.581 246.241 146.295 246.349 145.885C246.49 145.358 246.561 144.464 246.561 143.205C246.561 141.945 246.498 141.081 246.371 140.612C246.244 140.138 246.083 139.823 245.887 139.667C245.697 139.506 245.477 139.425 245.228 139.425ZM253.578 137.719C254.618 137.719 255.431 138.09 256.017 138.832C256.715 139.711 257.064 141.168 257.064 143.205C257.064 145.236 256.712 146.696 256.009 147.584C255.428 148.317 254.618 148.683 253.578 148.683C252.533 148.683 251.69 148.283 251.051 147.482C250.411 146.676 250.091 145.243 250.091 143.183C250.091 141.161 250.443 139.706 251.146 138.817C251.727 138.085 252.538 137.719 253.578 137.719ZM253.578 139.425C253.329 139.425 253.106 139.506 252.911 139.667C252.716 139.823 252.564 140.106 252.457 140.517C252.315 141.049 252.245 141.945 252.245 143.205C252.245 144.464 252.308 145.331 252.435 145.805C252.562 146.273 252.721 146.586 252.911 146.742C253.106 146.898 253.329 146.977 253.578 146.977C253.827 146.977 254.049 146.898 254.244 146.742C254.439 146.581 254.591 146.295 254.698 145.885C254.84 145.358 254.911 144.464 254.911 143.205C254.911 141.945 254.847 141.081 254.72 140.612C254.593 140.138 254.432 139.823 254.237 139.667C254.046 139.506 253.827 139.425 253.578 139.425ZM261.927 137.719C262.967 137.719 263.78 138.09 264.366 138.832C265.064 139.711 265.414 141.168 265.414 143.205C265.414 145.236 265.062 146.696 264.359 147.584C263.778 148.317 262.967 148.683 261.927 148.683C260.882 148.683 260.04 148.283 259.4 147.482C258.761 146.676 258.441 145.243 258.441 143.183C258.441 141.161 258.792 139.706 259.496 138.817C260.077 138.085 260.887 137.719 261.927 137.719ZM261.927 139.425C261.678 139.425 261.456 139.506 261.261 139.667C261.065 139.823 260.914 140.106 260.807 140.517C260.665 141.049 260.594 141.945 260.594 143.205C260.594 144.464 260.658 145.331 260.785 145.805C260.912 146.273 261.07 146.586 261.261 146.742C261.456 146.898 261.678 146.977 261.927 146.977C262.176 146.977 262.398 146.898 262.594 146.742C262.789 146.581 262.94 146.295 263.048 145.885C263.189 145.358 263.26 144.464 263.26 143.205C263.26 141.945 263.197 141.081 263.07 140.612C262.943 140.138 262.782 139.823 262.586 139.667C262.396 139.506 262.176 139.425 261.927 139.425Z" fill="#A6A6A6"/>
</g>
<rect x="392" y="98" width="50" height="26.5" rx="10" fill="#F1F1F1"/>
<path d="M409.881 106.04V116.75H408.246V108.005C407.586 108.625 406.766 109.075 405.786 109.355V107.735C406.266 107.615 406.776 107.405 407.316 107.105C407.856 106.765 408.296 106.41 408.636 106.04H409.881ZM420.315 104.45L415.08 118.25H413.685L418.935 104.45H420.315ZM425.415 105.83C426.455 105.83 427.3 106.125 427.95 106.715C428.6 107.315 428.925 108.085 428.925 109.025C428.925 109.935 428.575 110.78 427.875 111.56C427.455 111.99 426.715 112.565 425.655 113.285C424.505 114.045 423.815 114.72 423.585 115.31H428.94V116.75H421.56C421.56 115.68 421.915 114.745 422.625 113.945C422.995 113.505 423.8 112.855 425.04 111.995C425.77 111.475 426.28 111.065 426.57 110.765C427.06 110.215 427.305 109.63 427.305 109.01C427.305 108.41 427.14 107.96 426.81 107.66C426.48 107.36 425.995 107.21 425.355 107.21C424.675 107.21 424.165 107.44 423.825 107.9C423.475 108.34 423.285 108.995 423.255 109.865H421.62C421.64 108.665 421.985 107.705 422.655 106.985C423.335 106.215 424.255 105.83 425.415 105.83Z" fill="#A6A6A6"/>
<rect x="392" y="132.5" width="50" height="26.5" rx="10" fill="#F1F1F1"/>
<path d="M413.191 140.33C414.231 140.33 415.076 140.625 415.726 141.215C416.376 141.815 416.701 142.585 416.701 143.525C416.701 144.435 416.351 145.28 415.651 146.06C415.231 146.49 414.491 147.065 413.431 147.785C412.281 148.545 411.591 149.22 411.361 149.81H416.716V151.25H409.336C409.336 150.18 409.691 149.245 410.401 148.445C410.771 148.005 411.576 147.355 412.816 146.495C413.546 145.975 414.056 145.565 414.346 145.265C414.836 144.715 415.081 144.13 415.081 143.51C415.081 142.91 414.916 142.46 414.586 142.16C414.256 141.86 413.771 141.71 413.131 141.71C412.451 141.71 411.941 141.94 411.601 142.4C411.251 142.84 411.061 143.495 411.031 144.365H409.396C409.416 143.165 409.761 142.205 410.431 141.485C411.111 140.715 412.031 140.33 413.191 140.33ZM419.8 143.495L421.51 145.955L423.205 143.495H425.065L422.38 147.125L425.395 151.25H423.535L421.51 148.295L419.47 151.25H417.595L420.625 147.125L417.94 143.495H419.8Z" fill="#A6A6A6"/>
<rect x="10.5" y="90.5" width="439" height="76" rx="9.5" stroke="#ECECEC"/>
<rect x="10" y="187" width="440" height="77" rx="10" fill="#FB6943"/>
<g filter="url(#filter0_d_1660_36510)">
<path d="M214.125 233.18C213.585 233.18 213.129 233.096 212.757 232.928C212.385 232.76 212.103 232.508 211.911 232.172C211.719 231.824 211.623 231.392 211.623 230.876V223.136H214.323V230.552C214.323 230.78 214.371 230.948 214.467 231.056C214.575 231.164 214.737 231.218 214.953 231.218C215.049 231.218 215.151 231.206 215.259 231.182C215.367 231.158 215.469 231.128 215.565 231.092L215.817 232.82C215.589 232.94 215.331 233.03 215.043 233.09C214.755 233.15 214.449 233.18 214.125 233.18ZM220.801 233.234C220.093 233.234 219.379 233.156 218.659 233C217.951 232.844 217.321 232.622 216.769 232.334L217.525 230.192C217.765 230.324 218.053 230.462 218.389 230.606C218.725 230.75 219.091 230.87 219.487 230.966C219.883 231.062 220.285 231.11 220.693 231.11C221.173 231.11 221.533 231.044 221.773 230.912C222.025 230.768 222.151 230.552 222.151 230.264C222.151 230.048 222.067 229.874 221.899 229.742C221.743 229.598 221.509 229.466 221.197 229.346C220.885 229.214 220.513 229.076 220.081 228.932C219.445 228.704 218.899 228.458 218.443 228.194C217.987 227.93 217.633 227.606 217.381 227.222C217.141 226.838 217.021 226.358 217.021 225.782C217.021 225.122 217.189 224.582 217.525 224.162C217.861 223.742 218.335 223.43 218.947 223.226C219.559 223.01 220.273 222.902 221.089 222.902C221.761 222.902 222.367 222.956 222.907 223.064C223.447 223.172 223.867 223.31 224.167 223.478V225.602C223.963 225.506 223.693 225.41 223.357 225.314C223.033 225.218 222.679 225.14 222.295 225.08C221.923 225.008 221.563 224.972 221.215 224.972C220.723 224.972 220.351 225.038 220.099 225.17C219.847 225.302 219.721 225.488 219.721 225.728C219.721 225.92 219.805 226.082 219.973 226.214C220.153 226.346 220.411 226.472 220.747 226.592C221.083 226.7 221.485 226.838 221.953 227.006C222.577 227.222 223.105 227.462 223.537 227.726C223.969 227.99 224.293 228.314 224.509 228.698C224.737 229.082 224.851 229.556 224.851 230.12C224.851 230.66 224.725 231.17 224.473 231.65C224.233 232.118 223.819 232.502 223.231 232.802C222.643 233.09 221.833 233.234 220.801 233.234ZM216.019 221.768V220.634L217.837 219.878H224.263V221.768H216.019ZM221.941 218.682V215.334H224.281V218.682H221.941ZM232.548 233.18C231.696 233.18 231.006 233.018 230.478 232.694C229.962 232.37 229.596 231.956 229.38 231.452H229.236L228.948 233H226.896V223.136H229.596V227.852C229.596 228.536 229.674 229.1 229.83 229.544C229.986 229.976 230.214 230.3 230.514 230.516C230.814 230.732 231.174 230.84 231.594 230.84C232.098 230.84 232.482 230.69 232.746 230.39C233.01 230.09 233.142 229.61 233.142 228.95V223.136H235.842V229.544C235.842 230.324 235.716 230.984 235.464 231.524C235.224 232.064 234.858 232.478 234.366 232.766C233.874 233.042 233.268 233.18 232.548 233.18ZM239 224.936V222.308C239 221.852 239.042 221.486 239.126 221.21C239.21 220.922 239.324 220.688 239.468 220.508C239.612 220.328 239.762 220.178 239.918 220.058L239.9 219.986H237.11L237.614 218.042H243.338V219.986C242.894 219.986 242.51 220.13 242.186 220.418C241.862 220.706 241.7 221.234 241.7 222.002V224.936H239ZM241.502 233.18C240.962 233.18 240.506 233.096 240.134 232.928C239.762 232.76 239.48 232.508 239.288 232.172C239.096 231.824 239 231.392 239 230.876V223.136H241.7V230.552C241.7 230.78 241.748 230.948 241.844 231.056C241.952 231.164 242.114 231.218 242.33 231.218C242.426 231.218 242.528 231.206 242.636 231.182C242.744 231.158 242.846 231.128 242.942 231.092L243.194 232.82C242.966 232.94 242.708 233.03 242.42 233.09C242.132 233.15 241.826 233.18 241.502 233.18ZM247.981 233.18C247.009 233.18 246.235 232.97 245.659 232.55C245.083 232.118 244.669 231.53 244.417 230.786C244.165 230.03 244.039 229.166 244.039 228.194C244.039 227.15 244.153 226.286 244.381 225.602C244.621 224.906 244.957 224.366 245.389 223.982C245.821 223.586 246.331 223.31 246.919 223.154C247.519 222.986 248.173 222.902 248.881 222.902C249.961 222.902 250.825 223.052 251.473 223.352C252.121 223.652 252.589 224.078 252.877 224.63C253.177 225.182 253.327 225.83 253.327 226.574V233H250.627V226.79C250.627 226.226 250.489 225.8 250.213 225.512C249.949 225.212 249.505 225.062 248.881 225.062C248.461 225.062 248.089 225.152 247.765 225.332C247.453 225.5 247.207 225.806 247.027 226.25C246.859 226.694 246.775 227.33 246.775 228.158C246.775 228.722 246.829 229.22 246.937 229.652C247.045 230.084 247.219 230.42 247.459 230.66C247.711 230.9 248.047 231.02 248.467 231.02C248.599 231.02 248.725 231.014 248.845 231.002C248.977 230.978 249.091 230.954 249.187 230.93L249.439 232.946C249.247 233.03 249.013 233.09 248.737 233.126C248.473 233.162 248.221 233.18 247.981 233.18ZM247.514 221.786V220.886C247.682 220.838 247.868 220.772 248.072 220.688C248.276 220.604 248.456 220.49 248.612 220.346C248.768 220.202 248.846 220.022 248.846 219.806C248.846 219.638 248.798 219.506 248.702 219.41C248.606 219.314 248.486 219.266 248.342 219.266C248.246 219.266 248.144 219.284 248.036 219.32C247.928 219.356 247.832 219.392 247.748 219.428L247.406 218.222C247.646 218.018 247.946 217.886 248.306 217.826C248.654 217.754 248.948 217.718 249.188 217.718C249.728 217.718 250.154 217.844 250.466 218.096C250.766 218.348 250.916 218.72 250.916 219.212C250.916 219.476 250.85 219.722 250.718 219.95C250.574 220.178 250.358 220.364 250.07 220.508L249.998 220.04H253.4V221.786H247.514Z" fill="white"/>
</g>
<defs>
<filter id="filter0_d_1660_36510" x="207.621" y="213.336" width="49.7773" height="25.8984" filterUnits="userSpaceOnUse" color-interpolation-filters="sRGB">
<feFlood flood-opacity="0" result="BackgroundImageFix"/>
<feColorMatrix in="SourceAlpha" type="matrix" values="0 0 0 0 0 0 0 0 0 0 0 0 0 0 0 0 0 0 127 0" result="hardAlpha"/>
<feOffset dy="2"/>
<feGaussianBlur stdDeviation="2"/>
<feComposite in2="hardAlpha" operator="out"/>
<feColorMatrix type="matrix" values="0 0 0 0 0 0 0 0 0 0 0 0 0 0 0 0 0 0 0.3 0"/>
<feBlend mode="normal" in2="BackgroundImageFix" result="effect1_dropShadow_1660_36510"/>
<feBlend mode="normal" in="SourceGraphic" in2="effect1_dropShadow_1660_36510" result="shape"/>
</filter>
<clipPath id="clip0_1660_36510">
<rect width="143" height="46" fill="white" transform="translate(158.5 105.5)"/>
</clipPath>
<clipPath id="clip1_1660_36510">
<rect width="24" height="24" fill="white" transform="translate(158.5 105.5)"/>
</clipPath>
</defs>
</svg>
