<svg width="460" height="325" viewBox="0 0 460 325" fill="none" xmlns="http://www.w3.org/2000/svg">
<rect width="460" height="325" rx="10" fill="#0D131C"/>
<g clip-path="url(#clip0_1660_30827)">
<g filter="url(#filter0_d_1660_30827)">
<g clip-path="url(#clip1_1660_30827)">
<rect x="83" y="20" width="53.9" height="45.5" rx="8.75" fill="#2283F6"/>
<path opacity="0.5" d="M111.907 48.374H106.678C106.691 47.1436 106.787 46.084 106.965 45.1953C107.156 44.293 107.478 43.4795 107.929 42.7549C108.394 42.0303 109.009 41.3125 109.774 40.6016C110.417 40.0273 110.978 39.4805 111.456 38.9609C111.935 38.4414 112.311 37.9082 112.584 37.3613C112.857 36.8008 112.994 36.1787 112.994 35.4951C112.994 34.7021 112.871 34.0459 112.625 33.5264C112.393 32.9932 112.037 32.5898 111.559 32.3164C111.094 32.043 110.506 31.9062 109.795 31.9062C109.207 31.9062 108.66 32.0361 108.154 32.2959C107.648 32.542 107.231 32.9248 106.903 33.4443C106.589 33.9639 106.425 34.6475 106.411 35.4951H100.464C100.505 33.6221 100.936 32.0771 101.756 30.8604C102.59 29.6299 103.704 28.7207 105.099 28.1328C106.493 27.5312 108.059 27.2305 109.795 27.2305C111.709 27.2305 113.35 27.5449 114.717 28.1738C116.084 28.7891 117.13 29.6982 117.854 30.9014C118.579 32.0908 118.941 33.54 118.941 35.249C118.941 36.4385 118.709 37.498 118.244 38.4277C117.779 39.3438 117.171 40.1982 116.419 40.9912C115.667 41.7842 114.84 42.6045 113.938 43.4521C113.158 44.1494 112.625 44.8809 112.338 45.6465C112.064 46.4121 111.921 47.3213 111.907 48.374ZM106.062 54.7109C106.062 53.8359 106.363 53.1113 106.965 52.5371C107.566 51.9492 108.373 51.6553 109.385 51.6553C110.383 51.6553 111.183 51.9492 111.784 52.5371C112.399 53.1113 112.707 53.8359 112.707 54.7109C112.707 55.5586 112.399 56.2764 111.784 56.8643C111.183 57.4521 110.383 57.7461 109.385 57.7461C108.373 57.7461 107.566 57.4521 106.965 56.8643C106.363 56.2764 106.062 55.5586 106.062 54.7109Z" fill="white"/>
</g>
</g>
<g filter="url(#filter1_d_1660_30827)">
<g clip-path="url(#clip2_1660_30827)">
<rect x="143.023" y="20" width="53.9" height="45.5" rx="8.75" fill="#2283F6"/>
<path opacity="0.5" d="M171.931 48.374H166.701C166.715 47.1436 166.811 46.084 166.988 45.1953C167.18 44.293 167.501 43.4795 167.952 42.7549C168.417 42.0303 169.032 41.3125 169.798 40.6016C170.44 40.0273 171.001 39.4805 171.479 38.9609C171.958 38.4414 172.334 37.9082 172.607 37.3613C172.881 36.8008 173.018 36.1787 173.018 35.4951C173.018 34.7021 172.895 34.0459 172.648 33.5264C172.416 32.9932 172.061 32.5898 171.582 32.3164C171.117 32.043 170.529 31.9062 169.818 31.9062C169.23 31.9062 168.684 32.0361 168.178 32.2959C167.672 32.542 167.255 32.9248 166.927 33.4443C166.612 33.9639 166.448 34.6475 166.435 35.4951H160.487C160.528 33.6221 160.959 32.0771 161.779 30.8604C162.613 29.6299 163.728 28.7207 165.122 28.1328C166.517 27.5312 168.082 27.2305 169.818 27.2305C171.732 27.2305 173.373 27.5449 174.74 28.1738C176.107 28.7891 177.153 29.6982 177.878 30.9014C178.603 32.0908 178.965 33.54 178.965 35.249C178.965 36.4385 178.732 37.498 178.268 38.4277C177.803 39.3438 177.194 40.1982 176.442 40.9912C175.69 41.7842 174.863 42.6045 173.961 43.4521C173.182 44.1494 172.648 44.8809 172.361 45.6465C172.088 46.4121 171.944 47.3213 171.931 48.374ZM166.086 54.7109C166.086 53.8359 166.387 53.1113 166.988 52.5371C167.59 51.9492 168.396 51.6553 169.408 51.6553C170.406 51.6553 171.206 51.9492 171.808 52.5371C172.423 53.1113 172.73 53.8359 172.73 54.7109C172.73 55.5586 172.423 56.2764 171.808 56.8643C171.206 57.4521 170.406 57.7461 169.408 57.7461C168.396 57.7461 167.59 57.4521 166.988 56.8643C166.387 56.2764 166.086 55.5586 166.086 54.7109Z" fill="white"/>
</g>
</g>
<g filter="url(#filter2_d_1660_30827)">
<g clip-path="url(#clip3_1660_30827)">
<rect x="203.051" y="20" width="53.9" height="45.5" rx="8.75" fill="#161F2C"/>
<g style="mix-blend-mode:screen">
<ellipse cx="229.799" cy="42.7523" rx="32.5139" ry="32.7797" fill="url(#paint0_radial_1660_30827)"/>
</g>
<g clip-path="url(#clip4_1660_30827)">
<path fill-rule="evenodd" clip-rule="evenodd" d="M237.105 30.167L245.868 37.2925L247.312 42.2764L240.63 42.1986L229.71 37.1173L220.948 29.9918L219.484 25.0078L226.186 25.0857L237.105 30.167Z" fill="url(#paint1_radial_1660_30827)"/>
<path fill-rule="evenodd" clip-rule="evenodd" d="M219.483 25.0078L210.875 28.0644L212.859 34.8589L220.947 29.9918L219.483 25.0078Z" fill="url(#paint2_radial_1660_30827)"/>
<path fill-rule="evenodd" clip-rule="evenodd" d="M220.948 29.9922L212.859 34.8593L224.819 44.5936L229.71 37.1177L220.948 29.9922Z" fill="url(#paint3_radial_1660_30827)"/>
<path fill-rule="evenodd" clip-rule="evenodd" d="M229.708 37.1172L240.627 42.1985L239.722 51.5239L224.816 44.5931L229.708 37.1172Z" fill="url(#paint4_radial_1660_30827)"/>
<path fill-rule="evenodd" clip-rule="evenodd" d="M247.31 42.2771L248.851 51.622L239.723 51.5247L240.628 42.1992L247.31 42.2771Z" fill="url(#paint5_radial_1660_30827)"/>
<path fill-rule="evenodd" clip-rule="evenodd" d="M212.859 34.8594L218.078 60.48L224.819 44.5937L212.859 34.8594Z" fill="url(#paint6_radial_1660_30827)"/>
<path fill-rule="evenodd" clip-rule="evenodd" d="M224.818 44.5938L239.724 51.5246L218.078 60.4801L224.818 44.5938Z" fill="url(#paint7_radial_1660_30827)"/>
<path fill-rule="evenodd" clip-rule="evenodd" d="M248.852 51.6208L218.078 60.479L239.724 51.5234L248.852 51.6208Z" fill="url(#paint8_radial_1660_30827)"/>
<path fill-rule="evenodd" clip-rule="evenodd" d="M210.875 28.0625L218.077 60.4777L212.859 34.857L210.875 28.0625Z" fill="#85F2FF"/>
<path style="mix-blend-mode:screen" opacity="0.5" fill-rule="evenodd" clip-rule="evenodd" d="M228.707 26.2539C231.711 29.1937 237.642 38.4023 239.222 41.5562L240.608 42.1987L243.67 42.2376H244.19C242.438 40.6801 236.044 31.2963 235.331 29.3494L228.688 26.2539H228.707Z" fill="url(#paint9_radial_1660_30827)"/>
<g style="mix-blend-mode:screen" opacity="0.75">
<path fill-rule="evenodd" clip-rule="evenodd" d="M214.15 41.2062C214.034 36.6311 215.921 37.9939 217.886 40.0575C224.087 46.5016 222.026 50.2201 219.33 57.5014C221.16 53.1988 222.97 48.8963 224.799 44.5937C220.813 41.3619 216.826 38.1107 212.859 34.8789C213.283 36.9815 213.726 39.1036 214.15 41.2062V41.2062Z" fill="#9FDFFF"/>
</g>
<path style="mix-blend-mode:screen" opacity="0.5" fill-rule="evenodd" clip-rule="evenodd" d="M229.441 46.7344C235.545 49.5963 233.003 52.9254 227.842 55.5342L218.098 60.4597L239.744 51.5236L229.46 46.7344H229.441Z" fill="url(#paint10_radial_1660_30827)"/>
<g style="mix-blend-mode:screen">
<path fill-rule="evenodd" clip-rule="evenodd" d="M220.946 29.9892L219.617 25.4336C220.099 27.7504 220.388 28.5875 219.714 29.5804C219.04 30.5928 217.345 32.0918 216.055 32.929L220.946 29.9892V29.9892Z" fill="#8FFCFF"/>
</g>
<path fill-rule="evenodd" clip-rule="evenodd" d="M229.709 37.1372L220.946 29.9922L216.055 32.9319C218.5 31.5886 219.983 31.1019 220.908 31.4718C221.851 31.8222 223.007 32.6399 224.913 34.1001C226.935 35.6381 227.821 37.1956 227.841 38.0327C227.841 39.0645 226.897 41.0893 225.587 43.3866L229.689 37.1177L229.709 37.1372Z" fill="white"/>
<g style="mix-blend-mode:screen" opacity="0.5">
<path fill-rule="evenodd" clip-rule="evenodd" d="M229.707 37.1172L225.605 43.3861C227.493 40.6605 228.976 39.395 230.016 39.1419C231.421 38.811 233.443 39.2782 237.43 40.6994L229.727 37.1172H229.707Z" fill="#8FFCFF"/>
</g>
<path style="mix-blend-mode:screen" fill-rule="evenodd" clip-rule="evenodd" d="M224.28 25.0662L219.484 25.0078L220.467 28.3759L220.948 30.0112L229.71 37.1367L233.947 39.1031C231.289 36.7279 224.549 27.1299 224.28 25.0662Z" fill="url(#paint11_radial_1660_30827)"/>
</g>
<g style="mix-blend-mode:color-dodge">
<ellipse cx="229.799" cy="42.7523" rx="32.5139" ry="32.7797" fill="url(#paint12_radial_1660_30827)"/>
</g>
<g style="mix-blend-mode:color-dodge">
<ellipse cx="227.906" cy="37.1191" rx="1.11696" ry="22.2402" fill="url(#paint13_radial_1660_30827)"/>
</g>
<g style="mix-blend-mode:color-dodge">
<ellipse cx="227.905" cy="37.1183" rx="1.12609" ry="22.0599" transform="rotate(90 227.905 37.1183)" fill="url(#paint14_radial_1660_30827)"/>
</g>
<g style="mix-blend-mode:color-dodge">
<ellipse cx="211.15" cy="28.1126" rx="0.837717" ry="15.4837" fill="url(#paint15_radial_1660_30827)"/>
</g>
<g style="mix-blend-mode:color-dodge">
<ellipse cx="211.15" cy="28.1102" rx="0.844566" ry="15.3582" transform="rotate(90 211.15 28.1102)" fill="url(#paint16_radial_1660_30827)"/>
</g>
<g style="mix-blend-mode:color-dodge">
<ellipse cx="239.635" cy="51.7567" rx="0.837717" ry="10.9793" fill="url(#paint17_radial_1660_30827)"/>
</g>
<g style="mix-blend-mode:color-dodge">
<ellipse cx="239.633" cy="51.7586" rx="0.844566" ry="10.8903" transform="rotate(90 239.633 51.7586)" fill="url(#paint18_radial_1660_30827)"/>
</g>
<g style="mix-blend-mode:color-dodge">
<ellipse cx="246.055" cy="37.3988" rx="0.558478" ry="8.44565" fill="url(#paint19_radial_1660_30827)"/>
</g>
<g style="mix-blend-mode:color-dodge">
<ellipse cx="246.056" cy="37.399" rx="0.563044" ry="8.37717" transform="rotate(90 246.056 37.399)" fill="url(#paint20_radial_1660_30827)"/>
</g>
<g style="mix-blend-mode:color-dodge">
<ellipse cx="218.133" cy="60.4847" rx="0.558478" ry="8.44565" fill="url(#paint21_radial_1660_30827)"/>
</g>
<g style="mix-blend-mode:color-dodge">
<ellipse cx="218.131" cy="60.4849" rx="0.563044" ry="8.37717" transform="rotate(90 218.131 60.4849)" fill="url(#paint22_radial_1660_30827)"/>
</g>
</g>
<rect x="203.926" y="20.875" width="52.15" height="43.75" rx="7.875" stroke="#2283F6" stroke-width="1.75"/>
</g>
<g filter="url(#filter3_d_1660_30827)">
<g clip-path="url(#clip5_1660_30827)">
<rect x="263.074" y="20" width="53.9" height="45.5" rx="8.75" fill="#2283F6"/>
<path opacity="0.5" d="M291.981 48.374H286.752C286.766 47.1436 286.861 46.084 287.039 45.1953C287.23 44.293 287.552 43.4795 288.003 42.7549C288.468 42.0303 289.083 41.3125 289.849 40.6016C290.491 40.0273 291.052 39.4805 291.53 38.9609C292.009 38.4414 292.385 37.9082 292.658 37.3613C292.932 36.8008 293.068 36.1787 293.068 35.4951C293.068 34.7021 292.945 34.0459 292.699 33.5264C292.467 32.9932 292.111 32.5898 291.633 32.3164C291.168 32.043 290.58 31.9062 289.869 31.9062C289.281 31.9062 288.734 32.0361 288.229 32.2959C287.723 32.542 287.306 32.9248 286.978 33.4443C286.663 33.9639 286.499 34.6475 286.485 35.4951H280.538C280.579 33.6221 281.01 32.0771 281.83 30.8604C282.664 29.6299 283.778 28.7207 285.173 28.1328C286.567 27.5312 288.133 27.2305 289.869 27.2305C291.783 27.2305 293.424 27.5449 294.791 28.1738C296.158 28.7891 297.204 29.6982 297.929 30.9014C298.653 32.0908 299.016 33.54 299.016 35.249C299.016 36.4385 298.783 37.498 298.318 38.4277C297.854 39.3438 297.245 40.1982 296.493 40.9912C295.741 41.7842 294.914 42.6045 294.012 43.4521C293.232 44.1494 292.699 44.8809 292.412 45.6465C292.139 46.4121 291.995 47.3213 291.981 48.374ZM286.137 54.7109C286.137 53.8359 286.438 53.1113 287.039 52.5371C287.641 51.9492 288.447 51.6553 289.459 51.6553C290.457 51.6553 291.257 51.9492 291.858 52.5371C292.474 53.1113 292.781 53.8359 292.781 54.7109C292.781 55.5586 292.474 56.2764 291.858 56.8643C291.257 57.4521 290.457 57.7461 289.459 57.7461C288.447 57.7461 287.641 57.4521 287.039 56.8643C286.438 56.2764 286.137 55.5586 286.137 54.7109Z" fill="white"/>
</g>
</g>
<g filter="url(#filter4_d_1660_30827)">
<g clip-path="url(#clip6_1660_30827)">
<rect x="323.102" y="20" width="53.9" height="45.5" rx="8.75" fill="#2283F6"/>
<path opacity="0.5" d="M352.009 48.374H346.779C346.793 47.1436 346.889 46.084 347.066 45.1953C347.258 44.293 347.579 43.4795 348.03 42.7549C348.495 42.0303 349.11 41.3125 349.876 40.6016C350.519 40.0273 351.079 39.4805 351.558 38.9609C352.036 38.4414 352.412 37.9082 352.686 37.3613C352.959 36.8008 353.096 36.1787 353.096 35.4951C353.096 34.7021 352.973 34.0459 352.727 33.5264C352.494 32.9932 352.139 32.5898 351.66 32.3164C351.195 32.043 350.607 31.9062 349.896 31.9062C349.309 31.9062 348.762 32.0361 348.256 32.2959C347.75 32.542 347.333 32.9248 347.005 33.4443C346.69 33.9639 346.526 34.6475 346.513 35.4951H340.565C340.606 33.6221 341.037 32.0771 341.857 30.8604C342.691 29.6299 343.806 28.7207 345.2 28.1328C346.595 27.5312 348.16 27.2305 349.896 27.2305C351.811 27.2305 353.451 27.5449 354.818 28.1738C356.186 28.7891 357.231 29.6982 357.956 30.9014C358.681 32.0908 359.043 33.54 359.043 35.249C359.043 36.4385 358.811 37.498 358.346 38.4277C357.881 39.3438 357.272 40.1982 356.521 40.9912C355.769 41.7842 354.941 42.6045 354.039 43.4521C353.26 44.1494 352.727 44.8809 352.439 45.6465C352.166 46.4121 352.022 47.3213 352.009 48.374ZM346.164 54.7109C346.164 53.8359 346.465 53.1113 347.066 52.5371C347.668 51.9492 348.475 51.6553 349.486 51.6553C350.484 51.6553 351.284 51.9492 351.886 52.5371C352.501 53.1113 352.809 53.8359 352.809 54.7109C352.809 55.5586 352.501 56.2764 351.886 56.8643C351.284 57.4521 350.484 57.7461 349.486 57.7461C348.475 57.7461 347.668 57.4521 347.066 56.8643C346.465 56.2764 346.164 55.5586 346.164 54.7109Z" fill="white"/>
</g>
</g>
<g filter="url(#filter5_d_1660_30827)">
<g clip-path="url(#clip7_1660_30827)">
<rect x="83" y="78.625" width="53.9" height="45.5" rx="8.75" fill="#2283F6"/>
<path opacity="0.5" d="M111.907 106.999H106.678C106.691 105.769 106.787 104.709 106.965 103.82C107.156 102.918 107.478 102.104 107.929 101.38C108.394 100.655 109.009 99.9375 109.774 99.2266C110.417 98.6523 110.978 98.1055 111.456 97.5859C111.935 97.0664 112.311 96.5332 112.584 95.9863C112.857 95.4258 112.994 94.8037 112.994 94.1201C112.994 93.3271 112.871 92.6709 112.625 92.1514C112.393 91.6182 112.037 91.2148 111.559 90.9414C111.094 90.668 110.506 90.5312 109.795 90.5312C109.207 90.5312 108.66 90.6611 108.154 90.9209C107.648 91.167 107.231 91.5498 106.903 92.0693C106.589 92.5889 106.425 93.2725 106.411 94.1201H100.464C100.505 92.2471 100.936 90.7021 101.756 89.4854C102.59 88.2549 103.704 87.3457 105.099 86.7578C106.493 86.1562 108.059 85.8555 109.795 85.8555C111.709 85.8555 113.35 86.1699 114.717 86.7988C116.084 87.4141 117.13 88.3232 117.854 89.5264C118.579 90.7158 118.941 92.165 118.941 93.874C118.941 95.0635 118.709 96.123 118.244 97.0527C117.779 97.9688 117.171 98.8232 116.419 99.6162C115.667 100.409 114.84 101.229 113.938 102.077C113.158 102.774 112.625 103.506 112.338 104.271C112.064 105.037 111.921 105.946 111.907 106.999ZM106.062 113.336C106.062 112.461 106.363 111.736 106.965 111.162C107.566 110.574 108.373 110.28 109.385 110.28C110.383 110.28 111.183 110.574 111.784 111.162C112.399 111.736 112.707 112.461 112.707 113.336C112.707 114.184 112.399 114.901 111.784 115.489C111.183 116.077 110.383 116.371 109.385 116.371C108.373 116.371 107.566 116.077 106.965 115.489C106.363 114.901 106.062 114.184 106.062 113.336Z" fill="white"/>
</g>
</g>
<g filter="url(#filter6_d_1660_30827)">
<g clip-path="url(#clip8_1660_30827)">
<rect x="143.023" y="78.625" width="53.9" height="45.5" rx="8.75" fill="#2283F6"/>
<path opacity="0.5" d="M171.931 106.999H166.701C166.715 105.769 166.811 104.709 166.988 103.82C167.18 102.918 167.501 102.104 167.952 101.38C168.417 100.655 169.032 99.9375 169.798 99.2266C170.44 98.6523 171.001 98.1055 171.479 97.5859C171.958 97.0664 172.334 96.5332 172.607 95.9863C172.881 95.4258 173.018 94.8037 173.018 94.1201C173.018 93.3271 172.895 92.6709 172.648 92.1514C172.416 91.6182 172.061 91.2148 171.582 90.9414C171.117 90.668 170.529 90.5312 169.818 90.5312C169.23 90.5312 168.684 90.6611 168.178 90.9209C167.672 91.167 167.255 91.5498 166.927 92.0693C166.612 92.5889 166.448 93.2725 166.435 94.1201H160.487C160.528 92.2471 160.959 90.7021 161.779 89.4854C162.613 88.2549 163.728 87.3457 165.122 86.7578C166.517 86.1562 168.082 85.8555 169.818 85.8555C171.732 85.8555 173.373 86.1699 174.74 86.7988C176.107 87.4141 177.153 88.3232 177.878 89.5264C178.603 90.7158 178.965 92.165 178.965 93.874C178.965 95.0635 178.732 96.123 178.268 97.0527C177.803 97.9688 177.194 98.8232 176.442 99.6162C175.69 100.409 174.863 101.229 173.961 102.077C173.182 102.774 172.648 103.506 172.361 104.271C172.088 105.037 171.944 105.946 171.931 106.999ZM166.086 113.336C166.086 112.461 166.387 111.736 166.988 111.162C167.59 110.574 168.396 110.28 169.408 110.28C170.406 110.28 171.206 110.574 171.808 111.162C172.423 111.736 172.73 112.461 172.73 113.336C172.73 114.184 172.423 114.901 171.808 115.489C171.206 116.077 170.406 116.371 169.408 116.371C168.396 116.371 167.59 116.077 166.988 115.489C166.387 114.901 166.086 114.184 166.086 113.336Z" fill="white"/>
</g>
</g>
<g filter="url(#filter7_d_1660_30827)">
<g clip-path="url(#clip9_1660_30827)">
<rect x="203.051" y="78.625" width="53.9" height="45.5" rx="8.75" fill="#161F2C"/>
<g style="mix-blend-mode:screen">
<ellipse cx="229.799" cy="101.377" rx="32.5139" ry="32.7797" fill="url(#paint23_radial_1660_30827)"/>
</g>
<g clip-path="url(#clip10_1660_30827)">
<path fill-rule="evenodd" clip-rule="evenodd" d="M237.105 88.792L245.868 95.9175L247.312 100.901L240.63 100.824L229.71 95.7423L220.948 88.6168L219.484 83.6328L226.186 83.7107L237.105 88.792Z" fill="url(#paint24_radial_1660_30827)"/>
<path fill-rule="evenodd" clip-rule="evenodd" d="M219.483 83.6328L210.875 86.6894L212.859 93.4839L220.947 88.6168L219.483 83.6328Z" fill="url(#paint25_radial_1660_30827)"/>
<path fill-rule="evenodd" clip-rule="evenodd" d="M220.948 88.6172L212.859 93.4843L224.819 103.219L229.71 95.7427L220.948 88.6172Z" fill="url(#paint26_radial_1660_30827)"/>
<path fill-rule="evenodd" clip-rule="evenodd" d="M229.708 95.7422L240.627 100.823L239.722 110.149L224.816 103.218L229.708 95.7422Z" fill="url(#paint27_radial_1660_30827)"/>
<path fill-rule="evenodd" clip-rule="evenodd" d="M247.31 100.902L248.851 110.247L239.723 110.15L240.628 100.824L247.31 100.902Z" fill="url(#paint28_radial_1660_30827)"/>
<path fill-rule="evenodd" clip-rule="evenodd" d="M212.859 93.4844L218.078 119.105L224.819 103.219L212.859 93.4844Z" fill="url(#paint29_radial_1660_30827)"/>
<path fill-rule="evenodd" clip-rule="evenodd" d="M224.818 103.219L239.724 110.15L218.078 119.105L224.818 103.219Z" fill="url(#paint30_radial_1660_30827)"/>
<path fill-rule="evenodd" clip-rule="evenodd" d="M248.852 110.246L218.078 119.104L239.724 110.148L248.852 110.246Z" fill="url(#paint31_radial_1660_30827)"/>
<path fill-rule="evenodd" clip-rule="evenodd" d="M210.875 86.6875L218.077 119.103L212.859 93.482L210.875 86.6875Z" fill="#85F2FF"/>
<path style="mix-blend-mode:screen" opacity="0.5" fill-rule="evenodd" clip-rule="evenodd" d="M228.707 84.8789C231.711 87.8187 237.642 97.0273 239.222 100.181L240.608 100.824L243.67 100.863H244.19C242.438 99.3051 236.044 89.9213 235.331 87.9744L228.688 84.8789H228.707Z" fill="url(#paint32_radial_1660_30827)"/>
<g style="mix-blend-mode:screen" opacity="0.75">
<path fill-rule="evenodd" clip-rule="evenodd" d="M214.15 99.8312C214.034 95.2561 215.921 96.6189 217.886 98.6825C224.087 105.127 222.026 108.845 219.33 116.126C221.16 111.824 222.97 107.521 224.799 103.219C220.813 99.9869 216.826 96.7357 212.859 93.5039C213.283 95.6065 213.726 97.7286 214.15 99.8312V99.8312Z" fill="#9FDFFF"/>
</g>
<path style="mix-blend-mode:screen" opacity="0.5" fill-rule="evenodd" clip-rule="evenodd" d="M229.441 105.359C235.545 108.221 233.003 111.55 227.842 114.159L218.098 119.085L239.744 110.149L229.46 105.359H229.441Z" fill="url(#paint33_radial_1660_30827)"/>
<g style="mix-blend-mode:screen">
<path fill-rule="evenodd" clip-rule="evenodd" d="M220.946 88.6142L219.617 84.0586C220.099 86.3754 220.388 87.2125 219.714 88.2054C219.04 89.2178 217.345 90.7168 216.055 91.554L220.946 88.6142V88.6142Z" fill="#8FFCFF"/>
</g>
<path fill-rule="evenodd" clip-rule="evenodd" d="M229.709 95.7622L220.946 88.6172L216.055 91.5569C218.5 90.2136 219.983 89.7269 220.908 90.0968C221.851 90.4472 223.007 91.2649 224.913 92.7251C226.935 94.2631 227.821 95.8206 227.841 96.6577C227.841 97.6895 226.897 99.7143 225.587 102.012L229.689 95.7427L229.709 95.7622Z" fill="white"/>
<g style="mix-blend-mode:screen" opacity="0.5">
<path fill-rule="evenodd" clip-rule="evenodd" d="M229.707 95.7422L225.605 102.011C227.493 99.2855 228.976 98.02 230.016 97.7669C231.421 97.436 233.443 97.9032 237.43 99.3244L229.727 95.7422H229.707Z" fill="#8FFCFF"/>
</g>
<path style="mix-blend-mode:screen" fill-rule="evenodd" clip-rule="evenodd" d="M224.28 83.6912L219.484 83.6328L220.467 87.0009L220.948 88.6362L229.71 95.7617L233.947 97.7281C231.289 95.3529 224.549 85.7549 224.28 83.6912Z" fill="url(#paint34_radial_1660_30827)"/>
</g>
<g style="mix-blend-mode:color-dodge">
<ellipse cx="229.799" cy="101.377" rx="32.5139" ry="32.7797" fill="url(#paint35_radial_1660_30827)"/>
</g>
<g style="mix-blend-mode:color-dodge">
<ellipse cx="227.906" cy="95.7441" rx="1.11696" ry="22.2402" fill="url(#paint36_radial_1660_30827)"/>
</g>
<g style="mix-blend-mode:color-dodge">
<ellipse cx="227.905" cy="95.7433" rx="1.12609" ry="22.0599" transform="rotate(90 227.905 95.7433)" fill="url(#paint37_radial_1660_30827)"/>
</g>
<g style="mix-blend-mode:color-dodge">
<ellipse cx="211.15" cy="86.7376" rx="0.837717" ry="15.4837" fill="url(#paint38_radial_1660_30827)"/>
</g>
<g style="mix-blend-mode:color-dodge">
<ellipse cx="211.15" cy="86.7352" rx="0.844566" ry="15.3582" transform="rotate(90 211.15 86.7352)" fill="url(#paint39_radial_1660_30827)"/>
</g>
<g style="mix-blend-mode:color-dodge">
<ellipse cx="239.635" cy="110.382" rx="0.837717" ry="10.9793" fill="url(#paint40_radial_1660_30827)"/>
</g>
<g style="mix-blend-mode:color-dodge">
<ellipse cx="239.633" cy="110.384" rx="0.844566" ry="10.8903" transform="rotate(90 239.633 110.384)" fill="url(#paint41_radial_1660_30827)"/>
</g>
<g style="mix-blend-mode:color-dodge">
<ellipse cx="246.055" cy="96.0238" rx="0.558478" ry="8.44565" fill="url(#paint42_radial_1660_30827)"/>
</g>
<g style="mix-blend-mode:color-dodge">
<ellipse cx="246.056" cy="96.024" rx="0.563044" ry="8.37717" transform="rotate(90 246.056 96.024)" fill="url(#paint43_radial_1660_30827)"/>
</g>
<g style="mix-blend-mode:color-dodge">
<ellipse cx="218.133" cy="119.11" rx="0.558478" ry="8.44565" fill="url(#paint44_radial_1660_30827)"/>
</g>
<g style="mix-blend-mode:color-dodge">
<ellipse cx="218.131" cy="119.11" rx="0.563044" ry="8.37717" transform="rotate(90 218.131 119.11)" fill="url(#paint45_radial_1660_30827)"/>
</g>
</g>
<rect x="203.926" y="79.5" width="52.15" height="43.75" rx="7.875" stroke="#2283F6" stroke-width="1.75"/>
</g>
<g filter="url(#filter8_d_1660_30827)">
<g clip-path="url(#clip11_1660_30827)">
<rect x="263.074" y="78.625" width="53.9" height="45.5" rx="8.75" fill="#2283F6"/>
<path opacity="0.5" d="M291.981 106.999H286.752C286.766 105.769 286.861 104.709 287.039 103.82C287.23 102.918 287.552 102.104 288.003 101.38C288.468 100.655 289.083 99.9375 289.849 99.2266C290.491 98.6523 291.052 98.1055 291.53 97.5859C292.009 97.0664 292.385 96.5332 292.658 95.9863C292.932 95.4258 293.068 94.8037 293.068 94.1201C293.068 93.3271 292.945 92.6709 292.699 92.1514C292.467 91.6182 292.111 91.2148 291.633 90.9414C291.168 90.668 290.58 90.5312 289.869 90.5312C289.281 90.5312 288.734 90.6611 288.229 90.9209C287.723 91.167 287.306 91.5498 286.978 92.0693C286.663 92.5889 286.499 93.2725 286.485 94.1201H280.538C280.579 92.2471 281.01 90.7021 281.83 89.4854C282.664 88.2549 283.778 87.3457 285.173 86.7578C286.567 86.1562 288.133 85.8555 289.869 85.8555C291.783 85.8555 293.424 86.1699 294.791 86.7988C296.158 87.4141 297.204 88.3232 297.929 89.5264C298.653 90.7158 299.016 92.165 299.016 93.874C299.016 95.0635 298.783 96.123 298.318 97.0527C297.854 97.9688 297.245 98.8232 296.493 99.6162C295.741 100.409 294.914 101.229 294.012 102.077C293.232 102.774 292.699 103.506 292.412 104.271C292.139 105.037 291.995 105.946 291.981 106.999ZM286.137 113.336C286.137 112.461 286.438 111.736 287.039 111.162C287.641 110.574 288.447 110.28 289.459 110.28C290.457 110.28 291.257 110.574 291.858 111.162C292.474 111.736 292.781 112.461 292.781 113.336C292.781 114.184 292.474 114.901 291.858 115.489C291.257 116.077 290.457 116.371 289.459 116.371C288.447 116.371 287.641 116.077 287.039 115.489C286.438 114.901 286.137 114.184 286.137 113.336Z" fill="white"/>
</g>
</g>
<g filter="url(#filter9_d_1660_30827)">
<g clip-path="url(#clip12_1660_30827)">
<rect x="323.102" y="78.625" width="53.9" height="45.5" rx="8.75" fill="#2283F6"/>
<path opacity="0.5" d="M352.009 106.999H346.779C346.793 105.769 346.889 104.709 347.066 103.82C347.258 102.918 347.579 102.104 348.03 101.38C348.495 100.655 349.11 99.9375 349.876 99.2266C350.519 98.6523 351.079 98.1055 351.558 97.5859C352.036 97.0664 352.412 96.5332 352.686 95.9863C352.959 95.4258 353.096 94.8037 353.096 94.1201C353.096 93.3271 352.973 92.6709 352.727 92.1514C352.494 91.6182 352.139 91.2148 351.66 90.9414C351.195 90.668 350.607 90.5312 349.896 90.5312C349.309 90.5312 348.762 90.6611 348.256 90.9209C347.75 91.167 347.333 91.5498 347.005 92.0693C346.69 92.5889 346.526 93.2725 346.513 94.1201H340.565C340.606 92.2471 341.037 90.7021 341.857 89.4854C342.691 88.2549 343.806 87.3457 345.2 86.7578C346.595 86.1562 348.16 85.8555 349.896 85.8555C351.811 85.8555 353.451 86.1699 354.818 86.7988C356.186 87.4141 357.231 88.3232 357.956 89.5264C358.681 90.7158 359.043 92.165 359.043 93.874C359.043 95.0635 358.811 96.123 358.346 97.0527C357.881 97.9688 357.272 98.8232 356.521 99.6162C355.769 100.409 354.941 101.229 354.039 102.077C353.26 102.774 352.727 103.506 352.439 104.271C352.166 105.037 352.022 105.946 352.009 106.999ZM346.164 113.336C346.164 112.461 346.465 111.736 347.066 111.162C347.668 110.574 348.475 110.28 349.486 110.28C350.484 110.28 351.284 110.574 351.886 111.162C352.501 111.736 352.809 112.461 352.809 113.336C352.809 114.184 352.501 114.901 351.886 115.489C351.284 116.077 350.484 116.371 349.486 116.371C348.475 116.371 347.668 116.077 347.066 115.489C346.465 114.901 346.164 114.184 346.164 113.336Z" fill="white"/>
</g>
</g>
<g filter="url(#filter10_d_1660_30827)">
<g clip-path="url(#clip13_1660_30827)">
<rect x="83" y="137.25" width="53.9" height="45.5" rx="8.75" fill="#2283F6"/>
<path opacity="0.5" d="M111.907 165.624H106.678C106.691 164.394 106.787 163.334 106.965 162.445C107.156 161.543 107.478 160.729 107.929 160.005C108.394 159.28 109.009 158.562 109.774 157.852C110.417 157.277 110.978 156.73 111.456 156.211C111.935 155.691 112.311 155.158 112.584 154.611C112.857 154.051 112.994 153.429 112.994 152.745C112.994 151.952 112.871 151.296 112.625 150.776C112.393 150.243 112.037 149.84 111.559 149.566C111.094 149.293 110.506 149.156 109.795 149.156C109.207 149.156 108.66 149.286 108.154 149.546C107.648 149.792 107.231 150.175 106.903 150.694C106.589 151.214 106.425 151.897 106.411 152.745H100.464C100.505 150.872 100.936 149.327 101.756 148.11C102.59 146.88 103.704 145.971 105.099 145.383C106.493 144.781 108.059 144.48 109.795 144.48C111.709 144.48 113.35 144.795 114.717 145.424C116.084 146.039 117.13 146.948 117.854 148.151C118.579 149.341 118.941 150.79 118.941 152.499C118.941 153.688 118.709 154.748 118.244 155.678C117.779 156.594 117.171 157.448 116.419 158.241C115.667 159.034 114.84 159.854 113.938 160.702C113.158 161.399 112.625 162.131 112.338 162.896C112.064 163.662 111.921 164.571 111.907 165.624ZM106.062 171.961C106.062 171.086 106.363 170.361 106.965 169.787C107.566 169.199 108.373 168.905 109.385 168.905C110.383 168.905 111.183 169.199 111.784 169.787C112.399 170.361 112.707 171.086 112.707 171.961C112.707 172.809 112.399 173.526 111.784 174.114C111.183 174.702 110.383 174.996 109.385 174.996C108.373 174.996 107.566 174.702 106.965 174.114C106.363 173.526 106.062 172.809 106.062 171.961Z" fill="white"/>
</g>
</g>
<g filter="url(#filter11_d_1660_30827)">
<g clip-path="url(#clip14_1660_30827)">
<rect x="143.023" y="137.25" width="53.9" height="45.5" rx="8.75" fill="#2283F6"/>
<path opacity="0.5" d="M171.931 165.624H166.701C166.715 164.394 166.811 163.334 166.988 162.445C167.18 161.543 167.501 160.729 167.952 160.005C168.417 159.28 169.032 158.562 169.798 157.852C170.44 157.277 171.001 156.73 171.479 156.211C171.958 155.691 172.334 155.158 172.607 154.611C172.881 154.051 173.018 153.429 173.018 152.745C173.018 151.952 172.895 151.296 172.648 150.776C172.416 150.243 172.061 149.84 171.582 149.566C171.117 149.293 170.529 149.156 169.818 149.156C169.23 149.156 168.684 149.286 168.178 149.546C167.672 149.792 167.255 150.175 166.927 150.694C166.612 151.214 166.448 151.897 166.435 152.745H160.487C160.528 150.872 160.959 149.327 161.779 148.11C162.613 146.88 163.728 145.971 165.122 145.383C166.517 144.781 168.082 144.48 169.818 144.48C171.732 144.48 173.373 144.795 174.74 145.424C176.107 146.039 177.153 146.948 177.878 148.151C178.603 149.341 178.965 150.79 178.965 152.499C178.965 153.688 178.732 154.748 178.268 155.678C177.803 156.594 177.194 157.448 176.442 158.241C175.69 159.034 174.863 159.854 173.961 160.702C173.182 161.399 172.648 162.131 172.361 162.896C172.088 163.662 171.944 164.571 171.931 165.624ZM166.086 171.961C166.086 171.086 166.387 170.361 166.988 169.787C167.59 169.199 168.396 168.905 169.408 168.905C170.406 168.905 171.206 169.199 171.808 169.787C172.423 170.361 172.73 171.086 172.73 171.961C172.73 172.809 172.423 173.526 171.808 174.114C171.206 174.702 170.406 174.996 169.408 174.996C168.396 174.996 167.59 174.702 166.988 174.114C166.387 173.526 166.086 172.809 166.086 171.961Z" fill="white"/>
</g>
</g>
<g filter="url(#filter12_d_1660_30827)">
<g clip-path="url(#clip15_1660_30827)">
<rect x="203.051" y="137.25" width="53.9" height="45.5" rx="8.75" fill="#161F2C"/>
<g style="mix-blend-mode:screen">
<ellipse cx="229.799" cy="160.002" rx="32.5139" ry="32.7797" fill="url(#paint46_radial_1660_30827)"/>
</g>
<g clip-path="url(#clip16_1660_30827)">
<path fill-rule="evenodd" clip-rule="evenodd" d="M237.105 147.417L245.868 154.542L247.312 159.526L240.63 159.449L229.71 154.367L220.948 147.242L219.484 142.258L226.186 142.336L237.105 147.417Z" fill="url(#paint47_radial_1660_30827)"/>
<path fill-rule="evenodd" clip-rule="evenodd" d="M219.483 142.258L210.875 145.314L212.859 152.109L220.947 147.242L219.483 142.258Z" fill="url(#paint48_radial_1660_30827)"/>
<path fill-rule="evenodd" clip-rule="evenodd" d="M220.948 147.242L212.859 152.109L224.819 161.844L229.71 154.368L220.948 147.242Z" fill="url(#paint49_radial_1660_30827)"/>
<path fill-rule="evenodd" clip-rule="evenodd" d="M229.708 154.367L240.627 159.448L239.722 168.774L224.816 161.843L229.708 154.367Z" fill="url(#paint50_radial_1660_30827)"/>
<path fill-rule="evenodd" clip-rule="evenodd" d="M247.31 159.527L248.851 168.872L239.723 168.775L240.628 159.449L247.31 159.527Z" fill="url(#paint51_radial_1660_30827)"/>
<path fill-rule="evenodd" clip-rule="evenodd" d="M212.859 152.109L218.078 177.73L224.819 161.844L212.859 152.109Z" fill="url(#paint52_radial_1660_30827)"/>
<path fill-rule="evenodd" clip-rule="evenodd" d="M224.818 161.844L239.724 168.775L218.078 177.73L224.818 161.844Z" fill="url(#paint53_radial_1660_30827)"/>
<path fill-rule="evenodd" clip-rule="evenodd" d="M248.852 168.871L218.078 177.729L239.724 168.773L248.852 168.871Z" fill="url(#paint54_radial_1660_30827)"/>
<path fill-rule="evenodd" clip-rule="evenodd" d="M210.875 145.312L218.077 177.728L212.859 152.107L210.875 145.312Z" fill="#85F2FF"/>
<path style="mix-blend-mode:screen" opacity="0.5" fill-rule="evenodd" clip-rule="evenodd" d="M228.707 143.504C231.711 146.444 237.642 155.652 239.222 158.806L240.608 159.449L243.67 159.488H244.19C242.438 157.93 236.044 148.546 235.331 146.599L228.688 143.504H228.707Z" fill="url(#paint55_radial_1660_30827)"/>
<g style="mix-blend-mode:screen" opacity="0.75">
<path fill-rule="evenodd" clip-rule="evenodd" d="M214.15 158.456C214.034 153.881 215.921 155.244 217.886 157.308C224.087 163.752 222.026 167.47 219.33 174.751C221.16 170.449 222.97 166.146 224.799 161.844C220.813 158.612 216.826 155.361 212.859 152.129C213.283 154.232 213.726 156.354 214.15 158.456V158.456Z" fill="#9FDFFF"/>
</g>
<path style="mix-blend-mode:screen" opacity="0.5" fill-rule="evenodd" clip-rule="evenodd" d="M229.441 163.984C235.545 166.846 233.003 170.175 227.842 172.784L218.098 177.71L239.744 168.774L229.46 163.984H229.441Z" fill="url(#paint56_radial_1660_30827)"/>
<g style="mix-blend-mode:screen">
<path fill-rule="evenodd" clip-rule="evenodd" d="M220.946 147.239L219.617 142.684C220.099 145 220.388 145.838 219.714 146.83C219.04 147.843 217.345 149.342 216.055 150.179L220.946 147.239V147.239Z" fill="#8FFCFF"/>
</g>
<path fill-rule="evenodd" clip-rule="evenodd" d="M229.709 154.387L220.946 147.242L216.055 150.182C218.5 148.839 219.983 148.352 220.908 148.722C221.851 149.072 223.007 149.89 224.913 151.35C226.935 152.888 227.821 154.446 227.841 155.283C227.841 156.315 226.897 158.339 225.587 160.637L229.689 154.368L229.709 154.387Z" fill="white"/>
<g style="mix-blend-mode:screen" opacity="0.5">
<path fill-rule="evenodd" clip-rule="evenodd" d="M229.707 154.367L225.605 160.636C227.493 157.91 228.976 156.645 230.016 156.392C231.421 156.061 233.443 156.528 237.43 157.949L229.727 154.367H229.707Z" fill="#8FFCFF"/>
</g>
<path style="mix-blend-mode:screen" fill-rule="evenodd" clip-rule="evenodd" d="M224.28 142.316L219.484 142.258L220.467 145.626L220.948 147.261L229.71 154.387L233.947 156.353C231.289 153.978 224.549 144.38 224.28 142.316Z" fill="url(#paint57_radial_1660_30827)"/>
</g>
<g style="mix-blend-mode:color-dodge">
<ellipse cx="229.799" cy="160.002" rx="32.5139" ry="32.7797" fill="url(#paint58_radial_1660_30827)"/>
</g>
<g style="mix-blend-mode:color-dodge">
<ellipse cx="227.906" cy="154.369" rx="1.11696" ry="22.2402" fill="url(#paint59_radial_1660_30827)"/>
</g>
<g style="mix-blend-mode:color-dodge">
<ellipse cx="227.905" cy="154.368" rx="1.12609" ry="22.0599" transform="rotate(90 227.905 154.368)" fill="url(#paint60_radial_1660_30827)"/>
</g>
<g style="mix-blend-mode:color-dodge">
<ellipse cx="211.15" cy="145.363" rx="0.837717" ry="15.4837" fill="url(#paint61_radial_1660_30827)"/>
</g>
<g style="mix-blend-mode:color-dodge">
<ellipse cx="211.15" cy="145.36" rx="0.844566" ry="15.3582" transform="rotate(90 211.15 145.36)" fill="url(#paint62_radial_1660_30827)"/>
</g>
<g style="mix-blend-mode:color-dodge">
<ellipse cx="239.635" cy="169.007" rx="0.837717" ry="10.9793" fill="url(#paint63_radial_1660_30827)"/>
</g>
<g style="mix-blend-mode:color-dodge">
<ellipse cx="239.633" cy="169.009" rx="0.844566" ry="10.8903" transform="rotate(90 239.633 169.009)" fill="url(#paint64_radial_1660_30827)"/>
</g>
<g style="mix-blend-mode:color-dodge">
<ellipse cx="246.055" cy="154.649" rx="0.558478" ry="8.44565" fill="url(#paint65_radial_1660_30827)"/>
</g>
<g style="mix-blend-mode:color-dodge">
<ellipse cx="246.056" cy="154.649" rx="0.563044" ry="8.37717" transform="rotate(90 246.056 154.649)" fill="url(#paint66_radial_1660_30827)"/>
</g>
<g style="mix-blend-mode:color-dodge">
<ellipse cx="218.133" cy="177.735" rx="0.558478" ry="8.44565" fill="url(#paint67_radial_1660_30827)"/>
</g>
<g style="mix-blend-mode:color-dodge">
<ellipse cx="218.131" cy="177.735" rx="0.563044" ry="8.37717" transform="rotate(90 218.131 177.735)" fill="url(#paint68_radial_1660_30827)"/>
</g>
</g>
<rect x="203.926" y="138.125" width="52.15" height="43.75" rx="7.875" stroke="#2283F6" stroke-width="1.75"/>
</g>
<g filter="url(#filter13_d_1660_30827)">
<g clip-path="url(#clip17_1660_30827)">
<rect x="263.074" y="137.25" width="53.9" height="45.5" rx="8.75" fill="#2283F6"/>
<path opacity="0.5" d="M291.981 165.624H286.752C286.766 164.394 286.861 163.334 287.039 162.445C287.23 161.543 287.552 160.729 288.003 160.005C288.468 159.28 289.083 158.562 289.849 157.852C290.491 157.277 291.052 156.73 291.53 156.211C292.009 155.691 292.385 155.158 292.658 154.611C292.932 154.051 293.068 153.429 293.068 152.745C293.068 151.952 292.945 151.296 292.699 150.776C292.467 150.243 292.111 149.84 291.633 149.566C291.168 149.293 290.58 149.156 289.869 149.156C289.281 149.156 288.734 149.286 288.229 149.546C287.723 149.792 287.306 150.175 286.978 150.694C286.663 151.214 286.499 151.897 286.485 152.745H280.538C280.579 150.872 281.01 149.327 281.83 148.11C282.664 146.88 283.778 145.971 285.173 145.383C286.567 144.781 288.133 144.48 289.869 144.48C291.783 144.48 293.424 144.795 294.791 145.424C296.158 146.039 297.204 146.948 297.929 148.151C298.653 149.341 299.016 150.79 299.016 152.499C299.016 153.688 298.783 154.748 298.318 155.678C297.854 156.594 297.245 157.448 296.493 158.241C295.741 159.034 294.914 159.854 294.012 160.702C293.232 161.399 292.699 162.131 292.412 162.896C292.139 163.662 291.995 164.571 291.981 165.624ZM286.137 171.961C286.137 171.086 286.438 170.361 287.039 169.787C287.641 169.199 288.447 168.905 289.459 168.905C290.457 168.905 291.257 169.199 291.858 169.787C292.474 170.361 292.781 171.086 292.781 171.961C292.781 172.809 292.474 173.526 291.858 174.114C291.257 174.702 290.457 174.996 289.459 174.996C288.447 174.996 287.641 174.702 287.039 174.114C286.438 173.526 286.137 172.809 286.137 171.961Z" fill="white"/>
</g>
</g>
<g filter="url(#filter14_d_1660_30827)">
<g clip-path="url(#clip18_1660_30827)">
<rect x="323.102" y="137.25" width="53.9" height="45.5" rx="8.75" fill="#2283F6"/>
<path opacity="0.5" d="M352.009 165.624H346.779C346.793 164.394 346.889 163.334 347.066 162.445C347.258 161.543 347.579 160.729 348.03 160.005C348.495 159.28 349.11 158.562 349.876 157.852C350.519 157.277 351.079 156.73 351.558 156.211C352.036 155.691 352.412 155.158 352.686 154.611C352.959 154.051 353.096 153.429 353.096 152.745C353.096 151.952 352.973 151.296 352.727 150.776C352.494 150.243 352.139 149.84 351.66 149.566C351.195 149.293 350.607 149.156 349.896 149.156C349.309 149.156 348.762 149.286 348.256 149.546C347.75 149.792 347.333 150.175 347.005 150.694C346.69 151.214 346.526 151.897 346.513 152.745H340.565C340.606 150.872 341.037 149.327 341.857 148.11C342.691 146.88 343.806 145.971 345.2 145.383C346.595 144.781 348.16 144.48 349.896 144.48C351.811 144.48 353.451 144.795 354.818 145.424C356.186 146.039 357.231 146.948 357.956 148.151C358.681 149.341 359.043 150.79 359.043 152.499C359.043 153.688 358.811 154.748 358.346 155.678C357.881 156.594 357.272 157.448 356.521 158.241C355.769 159.034 354.941 159.854 354.039 160.702C353.26 161.399 352.727 162.131 352.439 162.896C352.166 163.662 352.022 164.571 352.009 165.624ZM346.164 171.961C346.164 171.086 346.465 170.361 347.066 169.787C347.668 169.199 348.475 168.905 349.486 168.905C350.484 168.905 351.284 169.199 351.886 169.787C352.501 170.361 352.809 171.086 352.809 171.961C352.809 172.809 352.501 173.526 351.886 174.114C351.284 174.702 350.484 174.996 349.486 174.996C348.475 174.996 347.668 174.702 347.066 174.114C346.465 173.526 346.164 172.809 346.164 171.961Z" fill="white"/>
</g>
</g>
<g filter="url(#filter15_d_1660_30827)">
<g clip-path="url(#clip19_1660_30827)">
<rect x="83" y="195.875" width="53.9" height="45.5" rx="8.75" fill="#2283F6"/>
<path opacity="0.5" d="M111.907 224.249H106.678C106.691 223.019 106.787 221.959 106.965 221.07C107.156 220.168 107.478 219.354 107.929 218.63C108.394 217.905 109.009 217.188 109.774 216.477C110.417 215.902 110.978 215.355 111.456 214.836C111.935 214.316 112.311 213.783 112.584 213.236C112.857 212.676 112.994 212.054 112.994 211.37C112.994 210.577 112.871 209.921 112.625 209.401C112.393 208.868 112.037 208.465 111.559 208.191C111.094 207.918 110.506 207.781 109.795 207.781C109.207 207.781 108.66 207.911 108.154 208.171C107.648 208.417 107.231 208.8 106.903 209.319C106.589 209.839 106.425 210.522 106.411 211.37H100.464C100.505 209.497 100.936 207.952 101.756 206.735C102.59 205.505 103.704 204.596 105.099 204.008C106.493 203.406 108.059 203.105 109.795 203.105C111.709 203.105 113.35 203.42 114.717 204.049C116.084 204.664 117.13 205.573 117.854 206.776C118.579 207.966 118.941 209.415 118.941 211.124C118.941 212.313 118.709 213.373 118.244 214.303C117.779 215.219 117.171 216.073 116.419 216.866C115.667 217.659 114.84 218.479 113.938 219.327C113.158 220.024 112.625 220.756 112.338 221.521C112.064 222.287 111.921 223.196 111.907 224.249ZM106.062 230.586C106.062 229.711 106.363 228.986 106.965 228.412C107.566 227.824 108.373 227.53 109.385 227.53C110.383 227.53 111.183 227.824 111.784 228.412C112.399 228.986 112.707 229.711 112.707 230.586C112.707 231.434 112.399 232.151 111.784 232.739C111.183 233.327 110.383 233.621 109.385 233.621C108.373 233.621 107.566 233.327 106.965 232.739C106.363 232.151 106.062 231.434 106.062 230.586Z" fill="white"/>
</g>
</g>
<g filter="url(#filter16_d_1660_30827)">
<g clip-path="url(#clip20_1660_30827)">
<rect x="143.023" y="195.875" width="53.9" height="45.5" rx="8.75" fill="#2283F6"/>
<path opacity="0.5" d="M171.931 224.249H166.701C166.715 223.019 166.811 221.959 166.988 221.07C167.18 220.168 167.501 219.354 167.952 218.63C168.417 217.905 169.032 217.188 169.798 216.477C170.44 215.902 171.001 215.355 171.479 214.836C171.958 214.316 172.334 213.783 172.607 213.236C172.881 212.676 173.018 212.054 173.018 211.37C173.018 210.577 172.895 209.921 172.648 209.401C172.416 208.868 172.061 208.465 171.582 208.191C171.117 207.918 170.529 207.781 169.818 207.781C169.23 207.781 168.684 207.911 168.178 208.171C167.672 208.417 167.255 208.8 166.927 209.319C166.612 209.839 166.448 210.522 166.435 211.37H160.487C160.528 209.497 160.959 207.952 161.779 206.735C162.613 205.505 163.728 204.596 165.122 204.008C166.517 203.406 168.082 203.105 169.818 203.105C171.732 203.105 173.373 203.42 174.74 204.049C176.107 204.664 177.153 205.573 177.878 206.776C178.603 207.966 178.965 209.415 178.965 211.124C178.965 212.313 178.732 213.373 178.268 214.303C177.803 215.219 177.194 216.073 176.442 216.866C175.69 217.659 174.863 218.479 173.961 219.327C173.182 220.024 172.648 220.756 172.361 221.521C172.088 222.287 171.944 223.196 171.931 224.249ZM166.086 230.586C166.086 229.711 166.387 228.986 166.988 228.412C167.59 227.824 168.396 227.53 169.408 227.53C170.406 227.53 171.206 227.824 171.808 228.412C172.423 228.986 172.73 229.711 172.73 230.586C172.73 231.434 172.423 232.151 171.808 232.739C171.206 233.327 170.406 233.621 169.408 233.621C168.396 233.621 167.59 233.327 166.988 232.739C166.387 232.151 166.086 231.434 166.086 230.586Z" fill="white"/>
</g>
</g>
<g filter="url(#filter17_d_1660_30827)">
<g clip-path="url(#clip21_1660_30827)">
<rect x="203.051" y="195.875" width="53.9" height="45.5" rx="8.75" fill="#2283F6"/>
<path opacity="0.5" d="M231.958 224.249H226.729C226.742 223.019 226.838 221.959 227.016 221.07C227.207 220.168 227.528 219.354 227.979 218.63C228.444 217.905 229.06 217.188 229.825 216.477C230.468 215.902 231.028 215.355 231.507 214.836C231.985 214.316 232.361 213.783 232.635 213.236C232.908 212.676 233.045 212.054 233.045 211.37C233.045 210.577 232.922 209.921 232.676 209.401C232.443 208.868 232.088 208.465 231.609 208.191C231.145 207.918 230.557 207.781 229.846 207.781C229.258 207.781 228.711 207.911 228.205 208.171C227.699 208.417 227.282 208.8 226.954 209.319C226.64 209.839 226.476 210.522 226.462 211.37H220.515C220.556 209.497 220.986 207.952 221.807 206.735C222.641 205.505 223.755 204.596 225.149 204.008C226.544 203.406 228.109 203.105 229.846 203.105C231.76 203.105 233.4 203.42 234.768 204.049C236.135 204.664 237.181 205.573 237.905 206.776C238.63 207.966 238.992 209.415 238.992 211.124C238.992 212.313 238.76 213.373 238.295 214.303C237.83 215.219 237.222 216.073 236.47 216.866C235.718 217.659 234.891 218.479 233.988 219.327C233.209 220.024 232.676 220.756 232.389 221.521C232.115 222.287 231.972 223.196 231.958 224.249ZM226.113 230.586C226.113 229.711 226.414 228.986 227.016 228.412C227.617 227.824 228.424 227.53 229.436 227.53C230.434 227.53 231.233 227.824 231.835 228.412C232.45 228.986 232.758 229.711 232.758 230.586C232.758 231.434 232.45 232.151 231.835 232.739C231.233 233.327 230.434 233.621 229.436 233.621C228.424 233.621 227.617 233.327 227.016 232.739C226.414 232.151 226.113 231.434 226.113 230.586Z" fill="white"/>
</g>
</g>
<g filter="url(#filter18_d_1660_30827)">
<g clip-path="url(#clip22_1660_30827)">
<rect x="263.074" y="195.875" width="53.9" height="45.5" rx="8.75" fill="#2283F6"/>
<path opacity="0.5" d="M291.981 224.249H286.752C286.766 223.019 286.861 221.959 287.039 221.07C287.23 220.168 287.552 219.354 288.003 218.63C288.468 217.905 289.083 217.188 289.849 216.477C290.491 215.902 291.052 215.355 291.53 214.836C292.009 214.316 292.385 213.783 292.658 213.236C292.932 212.676 293.068 212.054 293.068 211.37C293.068 210.577 292.945 209.921 292.699 209.401C292.467 208.868 292.111 208.465 291.633 208.191C291.168 207.918 290.58 207.781 289.869 207.781C289.281 207.781 288.734 207.911 288.229 208.171C287.723 208.417 287.306 208.8 286.978 209.319C286.663 209.839 286.499 210.522 286.485 211.37H280.538C280.579 209.497 281.01 207.952 281.83 206.735C282.664 205.505 283.778 204.596 285.173 204.008C286.567 203.406 288.133 203.105 289.869 203.105C291.783 203.105 293.424 203.42 294.791 204.049C296.158 204.664 297.204 205.573 297.929 206.776C298.653 207.966 299.016 209.415 299.016 211.124C299.016 212.313 298.783 213.373 298.318 214.303C297.854 215.219 297.245 216.073 296.493 216.866C295.741 217.659 294.914 218.479 294.012 219.327C293.232 220.024 292.699 220.756 292.412 221.521C292.139 222.287 291.995 223.196 291.981 224.249ZM286.137 230.586C286.137 229.711 286.438 228.986 287.039 228.412C287.641 227.824 288.447 227.53 289.459 227.53C290.457 227.53 291.257 227.824 291.858 228.412C292.474 228.986 292.781 229.711 292.781 230.586C292.781 231.434 292.474 232.151 291.858 232.739C291.257 233.327 290.457 233.621 289.459 233.621C288.447 233.621 287.641 233.327 287.039 232.739C286.438 232.151 286.137 231.434 286.137 230.586Z" fill="white"/>
</g>
</g>
<g filter="url(#filter19_d_1660_30827)">
<g clip-path="url(#clip23_1660_30827)">
<rect x="323.102" y="195.875" width="53.9" height="45.5" rx="8.75" fill="#2283F6"/>
<path opacity="0.5" d="M352.009 224.249H346.779C346.793 223.019 346.889 221.959 347.066 221.07C347.258 220.168 347.579 219.354 348.03 218.63C348.495 217.905 349.11 217.188 349.876 216.477C350.519 215.902 351.079 215.355 351.558 214.836C352.036 214.316 352.412 213.783 352.686 213.236C352.959 212.676 353.096 212.054 353.096 211.37C353.096 210.577 352.973 209.921 352.727 209.401C352.494 208.868 352.139 208.465 351.66 208.191C351.195 207.918 350.607 207.781 349.896 207.781C349.309 207.781 348.762 207.911 348.256 208.171C347.75 208.417 347.333 208.8 347.005 209.319C346.69 209.839 346.526 210.522 346.513 211.37H340.565C340.606 209.497 341.037 207.952 341.857 206.735C342.691 205.505 343.806 204.596 345.2 204.008C346.595 203.406 348.16 203.105 349.896 203.105C351.811 203.105 353.451 203.42 354.818 204.049C356.186 204.664 357.231 205.573 357.956 206.776C358.681 207.966 359.043 209.415 359.043 211.124C359.043 212.313 358.811 213.373 358.346 214.303C357.881 215.219 357.272 216.073 356.521 216.866C355.769 217.659 354.941 218.479 354.039 219.327C353.26 220.024 352.727 220.756 352.439 221.521C352.166 222.287 352.022 223.196 352.009 224.249ZM346.164 230.586C346.164 229.711 346.465 228.986 347.066 228.412C347.668 227.824 348.475 227.53 349.486 227.53C350.484 227.53 351.284 227.824 351.886 228.412C352.501 228.986 352.809 229.711 352.809 230.586C352.809 231.434 352.501 232.151 351.886 232.739C351.284 233.327 350.484 233.621 349.486 233.621C348.475 233.621 347.668 233.327 347.066 232.739C346.465 232.151 346.164 231.434 346.164 230.586Z" fill="white"/>
</g>
</g>
<g filter="url(#filter20_d_1660_30827)">
<g clip-path="url(#clip24_1660_30827)">
<rect x="83" y="254.5" width="53.9" height="45.5" rx="8.75" fill="#2283F6"/>
<path opacity="0.5" d="M111.907 282.874H106.678C106.691 281.644 106.787 280.584 106.965 279.695C107.156 278.793 107.478 277.979 107.929 277.255C108.394 276.53 109.009 275.812 109.774 275.102C110.417 274.527 110.978 273.98 111.456 273.461C111.935 272.941 112.311 272.408 112.584 271.861C112.857 271.301 112.994 270.679 112.994 269.995C112.994 269.202 112.871 268.546 112.625 268.026C112.393 267.493 112.037 267.09 111.559 266.816C111.094 266.543 110.506 266.406 109.795 266.406C109.207 266.406 108.66 266.536 108.154 266.796C107.648 267.042 107.231 267.425 106.903 267.944C106.589 268.464 106.425 269.147 106.411 269.995H100.464C100.505 268.122 100.936 266.577 101.756 265.36C102.59 264.13 103.704 263.221 105.099 262.633C106.493 262.031 108.059 261.73 109.795 261.73C111.709 261.73 113.35 262.045 114.717 262.674C116.084 263.289 117.13 264.198 117.854 265.401C118.579 266.591 118.941 268.04 118.941 269.749C118.941 270.938 118.709 271.998 118.244 272.928C117.779 273.844 117.171 274.698 116.419 275.491C115.667 276.284 114.84 277.104 113.938 277.952C113.158 278.649 112.625 279.381 112.338 280.146C112.064 280.912 111.921 281.821 111.907 282.874ZM106.062 289.211C106.062 288.336 106.363 287.611 106.965 287.037C107.566 286.449 108.373 286.155 109.385 286.155C110.383 286.155 111.183 286.449 111.784 287.037C112.399 287.611 112.707 288.336 112.707 289.211C112.707 290.059 112.399 290.776 111.784 291.364C111.183 291.952 110.383 292.246 109.385 292.246C108.373 292.246 107.566 291.952 106.965 291.364C106.363 290.776 106.062 290.059 106.062 289.211Z" fill="white"/>
</g>
</g>
<g filter="url(#filter21_d_1660_30827)">
<g clip-path="url(#clip25_1660_30827)">
<rect x="143.023" y="254.5" width="53.9" height="45.5" rx="8.75" fill="#2283F6"/>
<path opacity="0.5" d="M171.931 282.874H166.701C166.715 281.644 166.811 280.584 166.988 279.695C167.18 278.793 167.501 277.979 167.952 277.255C168.417 276.53 169.032 275.812 169.798 275.102C170.44 274.527 171.001 273.98 171.479 273.461C171.958 272.941 172.334 272.408 172.607 271.861C172.881 271.301 173.018 270.679 173.018 269.995C173.018 269.202 172.895 268.546 172.648 268.026C172.416 267.493 172.061 267.09 171.582 266.816C171.117 266.543 170.529 266.406 169.818 266.406C169.23 266.406 168.684 266.536 168.178 266.796C167.672 267.042 167.255 267.425 166.927 267.944C166.612 268.464 166.448 269.147 166.435 269.995H160.487C160.528 268.122 160.959 266.577 161.779 265.36C162.613 264.13 163.728 263.221 165.122 262.633C166.517 262.031 168.082 261.73 169.818 261.73C171.732 261.73 173.373 262.045 174.74 262.674C176.107 263.289 177.153 264.198 177.878 265.401C178.603 266.591 178.965 268.04 178.965 269.749C178.965 270.938 178.732 271.998 178.268 272.928C177.803 273.844 177.194 274.698 176.442 275.491C175.69 276.284 174.863 277.104 173.961 277.952C173.182 278.649 172.648 279.381 172.361 280.146C172.088 280.912 171.944 281.821 171.931 282.874ZM166.086 289.211C166.086 288.336 166.387 287.611 166.988 287.037C167.59 286.449 168.396 286.155 169.408 286.155C170.406 286.155 171.206 286.449 171.808 287.037C172.423 287.611 172.73 288.336 172.73 289.211C172.73 290.059 172.423 290.776 171.808 291.364C171.206 291.952 170.406 292.246 169.408 292.246C168.396 292.246 167.59 291.952 166.988 291.364C166.387 290.776 166.086 290.059 166.086 289.211Z" fill="white"/>
</g>
</g>
<g filter="url(#filter22_d_1660_30827)">
<g clip-path="url(#clip26_1660_30827)">
<rect x="203.051" y="254.5" width="53.9" height="45.5" rx="8.75" fill="#2283F6"/>
<path opacity="0.5" d="M231.958 282.874H226.729C226.742 281.644 226.838 280.584 227.016 279.695C227.207 278.793 227.528 277.979 227.979 277.255C228.444 276.53 229.06 275.812 229.825 275.102C230.468 274.527 231.028 273.98 231.507 273.461C231.985 272.941 232.361 272.408 232.635 271.861C232.908 271.301 233.045 270.679 233.045 269.995C233.045 269.202 232.922 268.546 232.676 268.026C232.443 267.493 232.088 267.09 231.609 266.816C231.145 266.543 230.557 266.406 229.846 266.406C229.258 266.406 228.711 266.536 228.205 266.796C227.699 267.042 227.282 267.425 226.954 267.944C226.64 268.464 226.476 269.147 226.462 269.995H220.515C220.556 268.122 220.986 266.577 221.807 265.36C222.641 264.13 223.755 263.221 225.149 262.633C226.544 262.031 228.109 261.73 229.846 261.73C231.76 261.73 233.4 262.045 234.768 262.674C236.135 263.289 237.181 264.198 237.905 265.401C238.63 266.591 238.992 268.04 238.992 269.749C238.992 270.938 238.76 271.998 238.295 272.928C237.83 273.844 237.222 274.698 236.47 275.491C235.718 276.284 234.891 277.104 233.988 277.952C233.209 278.649 232.676 279.381 232.389 280.146C232.115 280.912 231.972 281.821 231.958 282.874ZM226.113 289.211C226.113 288.336 226.414 287.611 227.016 287.037C227.617 286.449 228.424 286.155 229.436 286.155C230.434 286.155 231.233 286.449 231.835 287.037C232.45 287.611 232.758 288.336 232.758 289.211C232.758 290.059 232.45 290.776 231.835 291.364C231.233 291.952 230.434 292.246 229.436 292.246C228.424 292.246 227.617 291.952 227.016 291.364C226.414 290.776 226.113 290.059 226.113 289.211Z" fill="white"/>
</g>
</g>
<g filter="url(#filter23_d_1660_30827)">
<g clip-path="url(#clip27_1660_30827)">
<rect x="263.074" y="254.5" width="53.9" height="45.5" rx="8.75" fill="#2283F6"/>
<path opacity="0.5" d="M291.981 282.874H286.752C286.766 281.644 286.861 280.584 287.039 279.695C287.23 278.793 287.552 277.979 288.003 277.255C288.468 276.53 289.083 275.812 289.849 275.102C290.491 274.527 291.052 273.98 291.53 273.461C292.009 272.941 292.385 272.408 292.658 271.861C292.932 271.301 293.068 270.679 293.068 269.995C293.068 269.202 292.945 268.546 292.699 268.026C292.467 267.493 292.111 267.09 291.633 266.816C291.168 266.543 290.58 266.406 289.869 266.406C289.281 266.406 288.734 266.536 288.229 266.796C287.723 267.042 287.306 267.425 286.978 267.944C286.663 268.464 286.499 269.147 286.485 269.995H280.538C280.579 268.122 281.01 266.577 281.83 265.36C282.664 264.13 283.778 263.221 285.173 262.633C286.567 262.031 288.133 261.73 289.869 261.73C291.783 261.73 293.424 262.045 294.791 262.674C296.158 263.289 297.204 264.198 297.929 265.401C298.653 266.591 299.016 268.04 299.016 269.749C299.016 270.938 298.783 271.998 298.318 272.928C297.854 273.844 297.245 274.698 296.493 275.491C295.741 276.284 294.914 277.104 294.012 277.952C293.232 278.649 292.699 279.381 292.412 280.146C292.139 280.912 291.995 281.821 291.981 282.874ZM286.137 289.211C286.137 288.336 286.438 287.611 287.039 287.037C287.641 286.449 288.447 286.155 289.459 286.155C290.457 286.155 291.257 286.449 291.858 287.037C292.474 287.611 292.781 288.336 292.781 289.211C292.781 290.059 292.474 290.776 291.858 291.364C291.257 291.952 290.457 292.246 289.459 292.246C288.447 292.246 287.641 291.952 287.039 291.364C286.438 290.776 286.137 290.059 286.137 289.211Z" fill="white"/>
</g>
</g>
<g filter="url(#filter24_d_1660_30827)">
<g clip-path="url(#clip28_1660_30827)">
<rect x="323.102" y="254.5" width="53.9" height="45.5" rx="8.75" fill="#2283F6"/>
<path opacity="0.5" d="M352.009 282.874H346.779C346.793 281.644 346.889 280.584 347.066 279.695C347.258 278.793 347.579 277.979 348.03 277.255C348.495 276.53 349.11 275.812 349.876 275.102C350.519 274.527 351.079 273.98 351.558 273.461C352.036 272.941 352.412 272.408 352.686 271.861C352.959 271.301 353.096 270.679 353.096 269.995C353.096 269.202 352.973 268.546 352.727 268.026C352.494 267.493 352.139 267.09 351.66 266.816C351.195 266.543 350.607 266.406 349.896 266.406C349.309 266.406 348.762 266.536 348.256 266.796C347.75 267.042 347.333 267.425 347.005 267.944C346.69 268.464 346.526 269.147 346.513 269.995H340.565C340.606 268.122 341.037 266.577 341.857 265.36C342.691 264.13 343.806 263.221 345.2 262.633C346.595 262.031 348.16 261.73 349.896 261.73C351.811 261.73 353.451 262.045 354.818 262.674C356.186 263.289 357.231 264.198 357.956 265.401C358.681 266.591 359.043 268.04 359.043 269.749C359.043 270.938 358.811 271.998 358.346 272.928C357.881 273.844 357.272 274.698 356.521 275.491C355.769 276.284 354.941 277.104 354.039 277.952C353.26 278.649 352.727 279.381 352.439 280.146C352.166 280.912 352.022 281.821 352.009 282.874ZM346.164 289.211C346.164 288.336 346.465 287.611 347.066 287.037C347.668 286.449 348.475 286.155 349.486 286.155C350.484 286.155 351.284 286.449 351.886 287.037C352.501 287.611 352.809 288.336 352.809 289.211C352.809 290.059 352.501 290.776 351.886 291.364C351.284 291.952 350.484 292.246 349.486 292.246C348.475 292.246 347.668 291.952 347.066 291.364C346.465 290.776 346.164 290.059 346.164 289.211Z" fill="white"/>
</g>
</g>
</g>
<defs>
<filter id="filter0_d_1660_30827" x="83" y="20" width="53.8984" height="50.75" filterUnits="userSpaceOnUse" color-interpolation-filters="sRGB">
<feFlood flood-opacity="0" result="BackgroundImageFix"/>
<feColorMatrix in="SourceAlpha" type="matrix" values="0 0 0 0 0 0 0 0 0 0 0 0 0 0 0 0 0 0 127 0" result="hardAlpha"/>
<feOffset dy="5.25"/>
<feComposite in2="hardAlpha" operator="out"/>
<feColorMatrix type="matrix" values="0 0 0 0 0.133333 0 0 0 0 0.513726 0 0 0 0 0.964706 0 0 0 0.5 0"/>
<feBlend mode="normal" in2="BackgroundImageFix" result="effect1_dropShadow_1660_30827"/>
<feBlend mode="normal" in="SourceGraphic" in2="effect1_dropShadow_1660_30827" result="shape"/>
</filter>
<filter id="filter1_d_1660_30827" x="143.023" y="20" width="53.8984" height="50.75" filterUnits="userSpaceOnUse" color-interpolation-filters="sRGB">
<feFlood flood-opacity="0" result="BackgroundImageFix"/>
<feColorMatrix in="SourceAlpha" type="matrix" values="0 0 0 0 0 0 0 0 0 0 0 0 0 0 0 0 0 0 127 0" result="hardAlpha"/>
<feOffset dy="5.25"/>
<feComposite in2="hardAlpha" operator="out"/>
<feColorMatrix type="matrix" values="0 0 0 0 0.133333 0 0 0 0 0.513726 0 0 0 0 0.964706 0 0 0 0.5 0"/>
<feBlend mode="normal" in2="BackgroundImageFix" result="effect1_dropShadow_1660_30827"/>
<feBlend mode="normal" in="SourceGraphic" in2="effect1_dropShadow_1660_30827" result="shape"/>
</filter>
<filter id="filter2_d_1660_30827" x="203.051" y="20" width="53.8984" height="50.75" filterUnits="userSpaceOnUse" color-interpolation-filters="sRGB">
<feFlood flood-opacity="0" result="BackgroundImageFix"/>
<feColorMatrix in="SourceAlpha" type="matrix" values="0 0 0 0 0 0 0 0 0 0 0 0 0 0 0 0 0 0 127 0" result="hardAlpha"/>
<feOffset dy="5.25"/>
<feComposite in2="hardAlpha" operator="out"/>
<feColorMatrix type="matrix" values="0 0 0 0 0.133333 0 0 0 0 0.513726 0 0 0 0 0.964706 0 0 0 0.5 0"/>
<feBlend mode="normal" in2="BackgroundImageFix" result="effect1_dropShadow_1660_30827"/>
<feBlend mode="normal" in="SourceGraphic" in2="effect1_dropShadow_1660_30827" result="shape"/>
</filter>
<filter id="filter3_d_1660_30827" x="263.074" y="20" width="53.8984" height="50.75" filterUnits="userSpaceOnUse" color-interpolation-filters="sRGB">
<feFlood flood-opacity="0" result="BackgroundImageFix"/>
<feColorMatrix in="SourceAlpha" type="matrix" values="0 0 0 0 0 0 0 0 0 0 0 0 0 0 0 0 0 0 127 0" result="hardAlpha"/>
<feOffset dy="5.25"/>
<feComposite in2="hardAlpha" operator="out"/>
<feColorMatrix type="matrix" values="0 0 0 0 0.133333 0 0 0 0 0.513726 0 0 0 0 0.964706 0 0 0 0.5 0"/>
<feBlend mode="normal" in2="BackgroundImageFix" result="effect1_dropShadow_1660_30827"/>
<feBlend mode="normal" in="SourceGraphic" in2="effect1_dropShadow_1660_30827" result="shape"/>
</filter>
<filter id="filter4_d_1660_30827" x="323.102" y="20" width="53.8984" height="50.75" filterUnits="userSpaceOnUse" color-interpolation-filters="sRGB">
<feFlood flood-opacity="0" result="BackgroundImageFix"/>
<feColorMatrix in="SourceAlpha" type="matrix" values="0 0 0 0 0 0 0 0 0 0 0 0 0 0 0 0 0 0 127 0" result="hardAlpha"/>
<feOffset dy="5.25"/>
<feComposite in2="hardAlpha" operator="out"/>
<feColorMatrix type="matrix" values="0 0 0 0 0.133333 0 0 0 0 0.513726 0 0 0 0 0.964706 0 0 0 0.5 0"/>
<feBlend mode="normal" in2="BackgroundImageFix" result="effect1_dropShadow_1660_30827"/>
<feBlend mode="normal" in="SourceGraphic" in2="effect1_dropShadow_1660_30827" result="shape"/>
</filter>
<filter id="filter5_d_1660_30827" x="83" y="78.625" width="53.8984" height="50.75" filterUnits="userSpaceOnUse" color-interpolation-filters="sRGB">
<feFlood flood-opacity="0" result="BackgroundImageFix"/>
<feColorMatrix in="SourceAlpha" type="matrix" values="0 0 0 0 0 0 0 0 0 0 0 0 0 0 0 0 0 0 127 0" result="hardAlpha"/>
<feOffset dy="5.25"/>
<feComposite in2="hardAlpha" operator="out"/>
<feColorMatrix type="matrix" values="0 0 0 0 0.133333 0 0 0 0 0.513726 0 0 0 0 0.964706 0 0 0 0.5 0"/>
<feBlend mode="normal" in2="BackgroundImageFix" result="effect1_dropShadow_1660_30827"/>
<feBlend mode="normal" in="SourceGraphic" in2="effect1_dropShadow_1660_30827" result="shape"/>
</filter>
<filter id="filter6_d_1660_30827" x="143.023" y="78.625" width="53.8984" height="50.75" filterUnits="userSpaceOnUse" color-interpolation-filters="sRGB">
<feFlood flood-opacity="0" result="BackgroundImageFix"/>
<feColorMatrix in="SourceAlpha" type="matrix" values="0 0 0 0 0 0 0 0 0 0 0 0 0 0 0 0 0 0 127 0" result="hardAlpha"/>
<feOffset dy="5.25"/>
<feComposite in2="hardAlpha" operator="out"/>
<feColorMatrix type="matrix" values="0 0 0 0 0.133333 0 0 0 0 0.513726 0 0 0 0 0.964706 0 0 0 0.5 0"/>
<feBlend mode="normal" in2="BackgroundImageFix" result="effect1_dropShadow_1660_30827"/>
<feBlend mode="normal" in="SourceGraphic" in2="effect1_dropShadow_1660_30827" result="shape"/>
</filter>
<filter id="filter7_d_1660_30827" x="203.051" y="78.625" width="53.8984" height="50.75" filterUnits="userSpaceOnUse" color-interpolation-filters="sRGB">
<feFlood flood-opacity="0" result="BackgroundImageFix"/>
<feColorMatrix in="SourceAlpha" type="matrix" values="0 0 0 0 0 0 0 0 0 0 0 0 0 0 0 0 0 0 127 0" result="hardAlpha"/>
<feOffset dy="5.25"/>
<feComposite in2="hardAlpha" operator="out"/>
<feColorMatrix type="matrix" values="0 0 0 0 0.133333 0 0 0 0 0.513726 0 0 0 0 0.964706 0 0 0 0.5 0"/>
<feBlend mode="normal" in2="BackgroundImageFix" result="effect1_dropShadow_1660_30827"/>
<feBlend mode="normal" in="SourceGraphic" in2="effect1_dropShadow_1660_30827" result="shape"/>
</filter>
<filter id="filter8_d_1660_30827" x="263.074" y="78.625" width="53.8984" height="50.75" filterUnits="userSpaceOnUse" color-interpolation-filters="sRGB">
<feFlood flood-opacity="0" result="BackgroundImageFix"/>
<feColorMatrix in="SourceAlpha" type="matrix" values="0 0 0 0 0 0 0 0 0 0 0 0 0 0 0 0 0 0 127 0" result="hardAlpha"/>
<feOffset dy="5.25"/>
<feComposite in2="hardAlpha" operator="out"/>
<feColorMatrix type="matrix" values="0 0 0 0 0.133333 0 0 0 0 0.513726 0 0 0 0 0.964706 0 0 0 0.5 0"/>
<feBlend mode="normal" in2="BackgroundImageFix" result="effect1_dropShadow_1660_30827"/>
<feBlend mode="normal" in="SourceGraphic" in2="effect1_dropShadow_1660_30827" result="shape"/>
</filter>
<filter id="filter9_d_1660_30827" x="323.102" y="78.625" width="53.8984" height="50.75" filterUnits="userSpaceOnUse" color-interpolation-filters="sRGB">
<feFlood flood-opacity="0" result="BackgroundImageFix"/>
<feColorMatrix in="SourceAlpha" type="matrix" values="0 0 0 0 0 0 0 0 0 0 0 0 0 0 0 0 0 0 127 0" result="hardAlpha"/>
<feOffset dy="5.25"/>
<feComposite in2="hardAlpha" operator="out"/>
<feColorMatrix type="matrix" values="0 0 0 0 0.133333 0 0 0 0 0.513726 0 0 0 0 0.964706 0 0 0 0.5 0"/>
<feBlend mode="normal" in2="BackgroundImageFix" result="effect1_dropShadow_1660_30827"/>
<feBlend mode="normal" in="SourceGraphic" in2="effect1_dropShadow_1660_30827" result="shape"/>
</filter>
<filter id="filter10_d_1660_30827" x="83" y="137.25" width="53.8984" height="50.75" filterUnits="userSpaceOnUse" color-interpolation-filters="sRGB">
<feFlood flood-opacity="0" result="BackgroundImageFix"/>
<feColorMatrix in="SourceAlpha" type="matrix" values="0 0 0 0 0 0 0 0 0 0 0 0 0 0 0 0 0 0 127 0" result="hardAlpha"/>
<feOffset dy="5.25"/>
<feComposite in2="hardAlpha" operator="out"/>
<feColorMatrix type="matrix" values="0 0 0 0 0.133333 0 0 0 0 0.513726 0 0 0 0 0.964706 0 0 0 0.5 0"/>
<feBlend mode="normal" in2="BackgroundImageFix" result="effect1_dropShadow_1660_30827"/>
<feBlend mode="normal" in="SourceGraphic" in2="effect1_dropShadow_1660_30827" result="shape"/>
</filter>
<filter id="filter11_d_1660_30827" x="143.023" y="137.25" width="53.8984" height="50.75" filterUnits="userSpaceOnUse" color-interpolation-filters="sRGB">
<feFlood flood-opacity="0" result="BackgroundImageFix"/>
<feColorMatrix in="SourceAlpha" type="matrix" values="0 0 0 0 0 0 0 0 0 0 0 0 0 0 0 0 0 0 127 0" result="hardAlpha"/>
<feOffset dy="5.25"/>
<feComposite in2="hardAlpha" operator="out"/>
<feColorMatrix type="matrix" values="0 0 0 0 0.133333 0 0 0 0 0.513726 0 0 0 0 0.964706 0 0 0 0.5 0"/>
<feBlend mode="normal" in2="BackgroundImageFix" result="effect1_dropShadow_1660_30827"/>
<feBlend mode="normal" in="SourceGraphic" in2="effect1_dropShadow_1660_30827" result="shape"/>
</filter>
<filter id="filter12_d_1660_30827" x="203.051" y="137.25" width="53.8984" height="50.75" filterUnits="userSpaceOnUse" color-interpolation-filters="sRGB">
<feFlood flood-opacity="0" result="BackgroundImageFix"/>
<feColorMatrix in="SourceAlpha" type="matrix" values="0 0 0 0 0 0 0 0 0 0 0 0 0 0 0 0 0 0 127 0" result="hardAlpha"/>
<feOffset dy="5.25"/>
<feComposite in2="hardAlpha" operator="out"/>
<feColorMatrix type="matrix" values="0 0 0 0 0.133333 0 0 0 0 0.513726 0 0 0 0 0.964706 0 0 0 0.5 0"/>
<feBlend mode="normal" in2="BackgroundImageFix" result="effect1_dropShadow_1660_30827"/>
<feBlend mode="normal" in="SourceGraphic" in2="effect1_dropShadow_1660_30827" result="shape"/>
</filter>
<filter id="filter13_d_1660_30827" x="263.074" y="137.25" width="53.8984" height="50.75" filterUnits="userSpaceOnUse" color-interpolation-filters="sRGB">
<feFlood flood-opacity="0" result="BackgroundImageFix"/>
<feColorMatrix in="SourceAlpha" type="matrix" values="0 0 0 0 0 0 0 0 0 0 0 0 0 0 0 0 0 0 127 0" result="hardAlpha"/>
<feOffset dy="5.25"/>
<feComposite in2="hardAlpha" operator="out"/>
<feColorMatrix type="matrix" values="0 0 0 0 0.133333 0 0 0 0 0.513726 0 0 0 0 0.964706 0 0 0 0.5 0"/>
<feBlend mode="normal" in2="BackgroundImageFix" result="effect1_dropShadow_1660_30827"/>
<feBlend mode="normal" in="SourceGraphic" in2="effect1_dropShadow_1660_30827" result="shape"/>
</filter>
<filter id="filter14_d_1660_30827" x="323.102" y="137.25" width="53.8984" height="50.75" filterUnits="userSpaceOnUse" color-interpolation-filters="sRGB">
<feFlood flood-opacity="0" result="BackgroundImageFix"/>
<feColorMatrix in="SourceAlpha" type="matrix" values="0 0 0 0 0 0 0 0 0 0 0 0 0 0 0 0 0 0 127 0" result="hardAlpha"/>
<feOffset dy="5.25"/>
<feComposite in2="hardAlpha" operator="out"/>
<feColorMatrix type="matrix" values="0 0 0 0 0.133333 0 0 0 0 0.513726 0 0 0 0 0.964706 0 0 0 0.5 0"/>
<feBlend mode="normal" in2="BackgroundImageFix" result="effect1_dropShadow_1660_30827"/>
<feBlend mode="normal" in="SourceGraphic" in2="effect1_dropShadow_1660_30827" result="shape"/>
</filter>
<filter id="filter15_d_1660_30827" x="83" y="195.875" width="53.8984" height="50.75" filterUnits="userSpaceOnUse" color-interpolation-filters="sRGB">
<feFlood flood-opacity="0" result="BackgroundImageFix"/>
<feColorMatrix in="SourceAlpha" type="matrix" values="0 0 0 0 0 0 0 0 0 0 0 0 0 0 0 0 0 0 127 0" result="hardAlpha"/>
<feOffset dy="5.25"/>
<feComposite in2="hardAlpha" operator="out"/>
<feColorMatrix type="matrix" values="0 0 0 0 0.133333 0 0 0 0 0.513726 0 0 0 0 0.964706 0 0 0 0.5 0"/>
<feBlend mode="normal" in2="BackgroundImageFix" result="effect1_dropShadow_1660_30827"/>
<feBlend mode="normal" in="SourceGraphic" in2="effect1_dropShadow_1660_30827" result="shape"/>
</filter>
<filter id="filter16_d_1660_30827" x="143.023" y="195.875" width="53.8984" height="50.75" filterUnits="userSpaceOnUse" color-interpolation-filters="sRGB">
<feFlood flood-opacity="0" result="BackgroundImageFix"/>
<feColorMatrix in="SourceAlpha" type="matrix" values="0 0 0 0 0 0 0 0 0 0 0 0 0 0 0 0 0 0 127 0" result="hardAlpha"/>
<feOffset dy="5.25"/>
<feComposite in2="hardAlpha" operator="out"/>
<feColorMatrix type="matrix" values="0 0 0 0 0.133333 0 0 0 0 0.513726 0 0 0 0 0.964706 0 0 0 0.5 0"/>
<feBlend mode="normal" in2="BackgroundImageFix" result="effect1_dropShadow_1660_30827"/>
<feBlend mode="normal" in="SourceGraphic" in2="effect1_dropShadow_1660_30827" result="shape"/>
</filter>
<filter id="filter17_d_1660_30827" x="203.051" y="195.875" width="53.8984" height="50.75" filterUnits="userSpaceOnUse" color-interpolation-filters="sRGB">
<feFlood flood-opacity="0" result="BackgroundImageFix"/>
<feColorMatrix in="SourceAlpha" type="matrix" values="0 0 0 0 0 0 0 0 0 0 0 0 0 0 0 0 0 0 127 0" result="hardAlpha"/>
<feOffset dy="5.25"/>
<feComposite in2="hardAlpha" operator="out"/>
<feColorMatrix type="matrix" values="0 0 0 0 0.133333 0 0 0 0 0.513726 0 0 0 0 0.964706 0 0 0 0.5 0"/>
<feBlend mode="normal" in2="BackgroundImageFix" result="effect1_dropShadow_1660_30827"/>
<feBlend mode="normal" in="SourceGraphic" in2="effect1_dropShadow_1660_30827" result="shape"/>
</filter>
<filter id="filter18_d_1660_30827" x="263.074" y="195.875" width="53.8984" height="50.75" filterUnits="userSpaceOnUse" color-interpolation-filters="sRGB">
<feFlood flood-opacity="0" result="BackgroundImageFix"/>
<feColorMatrix in="SourceAlpha" type="matrix" values="0 0 0 0 0 0 0 0 0 0 0 0 0 0 0 0 0 0 127 0" result="hardAlpha"/>
<feOffset dy="5.25"/>
<feComposite in2="hardAlpha" operator="out"/>
<feColorMatrix type="matrix" values="0 0 0 0 0.133333 0 0 0 0 0.513726 0 0 0 0 0.964706 0 0 0 0.5 0"/>
<feBlend mode="normal" in2="BackgroundImageFix" result="effect1_dropShadow_1660_30827"/>
<feBlend mode="normal" in="SourceGraphic" in2="effect1_dropShadow_1660_30827" result="shape"/>
</filter>
<filter id="filter19_d_1660_30827" x="323.102" y="195.875" width="53.8984" height="50.75" filterUnits="userSpaceOnUse" color-interpolation-filters="sRGB">
<feFlood flood-opacity="0" result="BackgroundImageFix"/>
<feColorMatrix in="SourceAlpha" type="matrix" values="0 0 0 0 0 0 0 0 0 0 0 0 0 0 0 0 0 0 127 0" result="hardAlpha"/>
<feOffset dy="5.25"/>
<feComposite in2="hardAlpha" operator="out"/>
<feColorMatrix type="matrix" values="0 0 0 0 0.133333 0 0 0 0 0.513726 0 0 0 0 0.964706 0 0 0 0.5 0"/>
<feBlend mode="normal" in2="BackgroundImageFix" result="effect1_dropShadow_1660_30827"/>
<feBlend mode="normal" in="SourceGraphic" in2="effect1_dropShadow_1660_30827" result="shape"/>
</filter>
<filter id="filter20_d_1660_30827" x="83" y="254.5" width="53.8984" height="50.75" filterUnits="userSpaceOnUse" color-interpolation-filters="sRGB">
<feFlood flood-opacity="0" result="BackgroundImageFix"/>
<feColorMatrix in="SourceAlpha" type="matrix" values="0 0 0 0 0 0 0 0 0 0 0 0 0 0 0 0 0 0 127 0" result="hardAlpha"/>
<feOffset dy="5.25"/>
<feComposite in2="hardAlpha" operator="out"/>
<feColorMatrix type="matrix" values="0 0 0 0 0.133333 0 0 0 0 0.513726 0 0 0 0 0.964706 0 0 0 0.5 0"/>
<feBlend mode="normal" in2="BackgroundImageFix" result="effect1_dropShadow_1660_30827"/>
<feBlend mode="normal" in="SourceGraphic" in2="effect1_dropShadow_1660_30827" result="shape"/>
</filter>
<filter id="filter21_d_1660_30827" x="143.023" y="254.5" width="53.8984" height="50.75" filterUnits="userSpaceOnUse" color-interpolation-filters="sRGB">
<feFlood flood-opacity="0" result="BackgroundImageFix"/>
<feColorMatrix in="SourceAlpha" type="matrix" values="0 0 0 0 0 0 0 0 0 0 0 0 0 0 0 0 0 0 127 0" result="hardAlpha"/>
<feOffset dy="5.25"/>
<feComposite in2="hardAlpha" operator="out"/>
<feColorMatrix type="matrix" values="0 0 0 0 0.133333 0 0 0 0 0.513726 0 0 0 0 0.964706 0 0 0 0.5 0"/>
<feBlend mode="normal" in2="BackgroundImageFix" result="effect1_dropShadow_1660_30827"/>
<feBlend mode="normal" in="SourceGraphic" in2="effect1_dropShadow_1660_30827" result="shape"/>
</filter>
<filter id="filter22_d_1660_30827" x="203.051" y="254.5" width="53.8984" height="50.75" filterUnits="userSpaceOnUse" color-interpolation-filters="sRGB">
<feFlood flood-opacity="0" result="BackgroundImageFix"/>
<feColorMatrix in="SourceAlpha" type="matrix" values="0 0 0 0 0 0 0 0 0 0 0 0 0 0 0 0 0 0 127 0" result="hardAlpha"/>
<feOffset dy="5.25"/>
<feComposite in2="hardAlpha" operator="out"/>
<feColorMatrix type="matrix" values="0 0 0 0 0.133333 0 0 0 0 0.513726 0 0 0 0 0.964706 0 0 0 0.5 0"/>
<feBlend mode="normal" in2="BackgroundImageFix" result="effect1_dropShadow_1660_30827"/>
<feBlend mode="normal" in="SourceGraphic" in2="effect1_dropShadow_1660_30827" result="shape"/>
</filter>
<filter id="filter23_d_1660_30827" x="263.074" y="254.5" width="53.8984" height="50.75" filterUnits="userSpaceOnUse" color-interpolation-filters="sRGB">
<feFlood flood-opacity="0" result="BackgroundImageFix"/>
<feColorMatrix in="SourceAlpha" type="matrix" values="0 0 0 0 0 0 0 0 0 0 0 0 0 0 0 0 0 0 127 0" result="hardAlpha"/>
<feOffset dy="5.25"/>
<feComposite in2="hardAlpha" operator="out"/>
<feColorMatrix type="matrix" values="0 0 0 0 0.133333 0 0 0 0 0.513726 0 0 0 0 0.964706 0 0 0 0.5 0"/>
<feBlend mode="normal" in2="BackgroundImageFix" result="effect1_dropShadow_1660_30827"/>
<feBlend mode="normal" in="SourceGraphic" in2="effect1_dropShadow_1660_30827" result="shape"/>
</filter>
<filter id="filter24_d_1660_30827" x="323.102" y="254.5" width="53.8984" height="50.75" filterUnits="userSpaceOnUse" color-interpolation-filters="sRGB">
<feFlood flood-opacity="0" result="BackgroundImageFix"/>
<feColorMatrix in="SourceAlpha" type="matrix" values="0 0 0 0 0 0 0 0 0 0 0 0 0 0 0 0 0 0 127 0" result="hardAlpha"/>
<feOffset dy="5.25"/>
<feComposite in2="hardAlpha" operator="out"/>
<feColorMatrix type="matrix" values="0 0 0 0 0.133333 0 0 0 0 0.513726 0 0 0 0 0.964706 0 0 0 0.5 0"/>
<feBlend mode="normal" in2="BackgroundImageFix" result="effect1_dropShadow_1660_30827"/>
<feBlend mode="normal" in="SourceGraphic" in2="effect1_dropShadow_1660_30827" result="shape"/>
</filter>
<radialGradient id="paint0_radial_1660_30827" cx="0" cy="0" r="1" gradientUnits="userSpaceOnUse" gradientTransform="translate(229.799 42.7523) rotate(90) scale(32.7797 32.5139)">
<stop stop-color="#4FA9CF"/>
<stop offset="1" stop-color="#083259" stop-opacity="0"/>
</radialGradient>
<radialGradient id="paint1_radial_1660_30827" cx="0" cy="0" r="1" gradientUnits="userSpaceOnUse" gradientTransform="translate(221.603 30.3617) scale(34.953 35.3355)">
<stop stop-color="#C4EEFF"/>
<stop offset="0.33" stop-color="#4CCAFF"/>
<stop offset="1" stop-color="#003EB0"/>
</radialGradient>
<radialGradient id="paint2_radial_1660_30827" cx="0" cy="0" r="1" gradientUnits="userSpaceOnUse" gradientTransform="translate(209.912 23.3919) scale(13.2879 13.4333)">
<stop stop-color="#A5E2FF"/>
<stop offset="1" stop-color="#218CF3"/>
</radialGradient>
<radialGradient id="paint3_radial_1660_30827" cx="0" cy="0" r="1" gradientUnits="userSpaceOnUse" gradientTransform="translate(221.102 31.2187) scale(38.4195 38.8398)">
<stop stop-color="#A5E2FF"/>
<stop offset="1" stop-color="#0088FF"/>
</radialGradient>
<radialGradient id="paint4_radial_1660_30827" cx="0" cy="0" r="1" gradientUnits="userSpaceOnUse" gradientTransform="translate(227.32 62.1927) scale(26.7107 27.0029)">
<stop stop-color="#A5E2FF"/>
<stop offset="1" stop-color="#0069C2"/>
</radialGradient>
<radialGradient id="paint5_radial_1660_30827" cx="0" cy="0" r="1" gradientUnits="userSpaceOnUse" gradientTransform="translate(250.565 36.5728) scale(19.3927 19.6049)">
<stop stop-color="#4CCAFF"/>
<stop offset="1" stop-color="#003EB0"/>
</radialGradient>
<radialGradient id="paint6_radial_1660_30827" cx="0" cy="0" r="1" gradientUnits="userSpaceOnUse" gradientTransform="translate(209.932 50.1422) scale(16.9469 17.1323)">
<stop stop-color="#A5E2FF"/>
<stop offset="1" stop-color="#218CF3"/>
</radialGradient>
<radialGradient id="paint7_radial_1660_30827" cx="0" cy="0" r="1" gradientUnits="userSpaceOnUse" gradientTransform="translate(222.758 66.1844) scale(31.1592 31.5001)">
<stop stop-color="#77D6FF"/>
<stop offset="1" stop-color="#001FB0"/>
</radialGradient>
<radialGradient id="paint8_radial_1660_30827" cx="0" cy="0" r="1" gradientUnits="userSpaceOnUse" gradientTransform="translate(218.598 61.6471) scale(28.2706 28.5799)">
<stop stop-color="#A5E2FF"/>
<stop offset="1" stop-color="#0081FF"/>
</radialGradient>
<radialGradient id="paint9_radial_1660_30827" cx="0" cy="0" r="1" gradientUnits="userSpaceOnUse" gradientTransform="translate(241.282 43.0358) scale(16.4847 16.6651)">
<stop stop-color="#00000D"/>
<stop offset="1" stop-color="white"/>
</radialGradient>
<radialGradient id="paint10_radial_1660_30827" cx="0" cy="0" r="1" gradientUnits="userSpaceOnUse" gradientTransform="translate(224.607 45.2353) scale(17.7365 17.9306)">
<stop offset="0.31" stop-color="#00000D"/>
<stop offset="1" stop-color="#1CB4FF"/>
</radialGradient>
<radialGradient id="paint11_radial_1660_30827" cx="0" cy="0" r="1" gradientUnits="userSpaceOnUse" gradientTransform="translate(240.61 17.9991) scale(28.7905 29.1055)">
<stop offset="0.57" stop-color="#00000D"/>
<stop offset="0.6" stop-color="#030512"/>
<stop offset="0.63" stop-color="#0C1523"/>
<stop offset="0.68" stop-color="#1B2F3F"/>
<stop offset="0.72" stop-color="#305366"/>
<stop offset="0.77" stop-color="#4C8297"/>
<stop offset="0.82" stop-color="#6DBAD3"/>
<stop offset="0.86" stop-color="#85E3FF"/>
</radialGradient>
<radialGradient id="paint12_radial_1660_30827" cx="0" cy="0" r="1" gradientUnits="userSpaceOnUse" gradientTransform="translate(229.799 42.7523) rotate(90) scale(32.7797 32.5139)">
<stop stop-color="#007CB1"/>
<stop offset="1" stop-color="#400000" stop-opacity="0"/>
</radialGradient>
<radialGradient id="paint13_radial_1660_30827" cx="0" cy="0" r="1" gradientUnits="userSpaceOnUse" gradientTransform="translate(227.906 37.1191) rotate(90) scale(22.2402 1.11696)">
<stop stop-color="#007CB1"/>
<stop offset="1" stop-color="#400000" stop-opacity="0"/>
</radialGradient>
<radialGradient id="paint14_radial_1660_30827" cx="0" cy="0" r="1" gradientUnits="userSpaceOnUse" gradientTransform="translate(227.905 37.1183) rotate(90) scale(22.0599 1.12609)">
<stop stop-color="#007CB1"/>
<stop offset="1" stop-color="#400000" stop-opacity="0"/>
</radialGradient>
<radialGradient id="paint15_radial_1660_30827" cx="0" cy="0" r="1" gradientUnits="userSpaceOnUse" gradientTransform="translate(211.15 28.1126) rotate(90) scale(15.4837 0.837717)">
<stop stop-color="#007CB1"/>
<stop offset="1" stop-color="#400000" stop-opacity="0"/>
</radialGradient>
<radialGradient id="paint16_radial_1660_30827" cx="0" cy="0" r="1" gradientUnits="userSpaceOnUse" gradientTransform="translate(211.15 28.1102) rotate(90) scale(15.3582 0.844566)">
<stop stop-color="#007CB1"/>
<stop offset="1" stop-color="#400000" stop-opacity="0"/>
</radialGradient>
<radialGradient id="paint17_radial_1660_30827" cx="0" cy="0" r="1" gradientUnits="userSpaceOnUse" gradientTransform="translate(239.635 51.7567) rotate(90) scale(10.9793 0.837717)">
<stop stop-color="#007CB1"/>
<stop offset="1" stop-color="#400000" stop-opacity="0"/>
</radialGradient>
<radialGradient id="paint18_radial_1660_30827" cx="0" cy="0" r="1" gradientUnits="userSpaceOnUse" gradientTransform="translate(239.633 51.7586) rotate(90) scale(10.8903 0.844566)">
<stop stop-color="#007CB1"/>
<stop offset="1" stop-color="#400000" stop-opacity="0"/>
</radialGradient>
<radialGradient id="paint19_radial_1660_30827" cx="0" cy="0" r="1" gradientUnits="userSpaceOnUse" gradientTransform="translate(246.055 37.3988) rotate(90) scale(8.44565 0.558478)">
<stop stop-color="#007CB1"/>
<stop offset="1" stop-color="#400000" stop-opacity="0"/>
</radialGradient>
<radialGradient id="paint20_radial_1660_30827" cx="0" cy="0" r="1" gradientUnits="userSpaceOnUse" gradientTransform="translate(246.056 37.399) rotate(90) scale(8.37717 0.563044)">
<stop stop-color="#007CB1"/>
<stop offset="1" stop-color="#400000" stop-opacity="0"/>
</radialGradient>
<radialGradient id="paint21_radial_1660_30827" cx="0" cy="0" r="1" gradientUnits="userSpaceOnUse" gradientTransform="translate(218.133 60.4847) rotate(90) scale(8.44565 0.558478)">
<stop stop-color="#007CB1"/>
<stop offset="1" stop-color="#400000" stop-opacity="0"/>
</radialGradient>
<radialGradient id="paint22_radial_1660_30827" cx="0" cy="0" r="1" gradientUnits="userSpaceOnUse" gradientTransform="translate(218.131 60.4849) rotate(90) scale(8.37717 0.563044)">
<stop stop-color="#007CB1"/>
<stop offset="1" stop-color="#400000" stop-opacity="0"/>
</radialGradient>
<radialGradient id="paint23_radial_1660_30827" cx="0" cy="0" r="1" gradientUnits="userSpaceOnUse" gradientTransform="translate(229.799 101.377) rotate(90) scale(32.7797 32.5139)">
<stop stop-color="#4FA9CF"/>
<stop offset="1" stop-color="#083259" stop-opacity="0"/>
</radialGradient>
<radialGradient id="paint24_radial_1660_30827" cx="0" cy="0" r="1" gradientUnits="userSpaceOnUse" gradientTransform="translate(221.603 88.9867) scale(34.953 35.3355)">
<stop stop-color="#C4EEFF"/>
<stop offset="0.33" stop-color="#4CCAFF"/>
<stop offset="1" stop-color="#003EB0"/>
</radialGradient>
<radialGradient id="paint25_radial_1660_30827" cx="0" cy="0" r="1" gradientUnits="userSpaceOnUse" gradientTransform="translate(209.912 82.0169) scale(13.2879 13.4333)">
<stop stop-color="#A5E2FF"/>
<stop offset="1" stop-color="#218CF3"/>
</radialGradient>
<radialGradient id="paint26_radial_1660_30827" cx="0" cy="0" r="1" gradientUnits="userSpaceOnUse" gradientTransform="translate(221.102 89.8437) scale(38.4195 38.8398)">
<stop stop-color="#A5E2FF"/>
<stop offset="1" stop-color="#0088FF"/>
</radialGradient>
<radialGradient id="paint27_radial_1660_30827" cx="0" cy="0" r="1" gradientUnits="userSpaceOnUse" gradientTransform="translate(227.32 120.818) scale(26.7107 27.0029)">
<stop stop-color="#A5E2FF"/>
<stop offset="1" stop-color="#0069C2"/>
</radialGradient>
<radialGradient id="paint28_radial_1660_30827" cx="0" cy="0" r="1" gradientUnits="userSpaceOnUse" gradientTransform="translate(250.565 95.1978) scale(19.3927 19.6049)">
<stop stop-color="#4CCAFF"/>
<stop offset="1" stop-color="#003EB0"/>
</radialGradient>
<radialGradient id="paint29_radial_1660_30827" cx="0" cy="0" r="1" gradientUnits="userSpaceOnUse" gradientTransform="translate(209.932 108.767) scale(16.9469 17.1323)">
<stop stop-color="#A5E2FF"/>
<stop offset="1" stop-color="#218CF3"/>
</radialGradient>
<radialGradient id="paint30_radial_1660_30827" cx="0" cy="0" r="1" gradientUnits="userSpaceOnUse" gradientTransform="translate(222.758 124.809) scale(31.1592 31.5001)">
<stop stop-color="#77D6FF"/>
<stop offset="1" stop-color="#001FB0"/>
</radialGradient>
<radialGradient id="paint31_radial_1660_30827" cx="0" cy="0" r="1" gradientUnits="userSpaceOnUse" gradientTransform="translate(218.598 120.272) scale(28.2706 28.5799)">
<stop stop-color="#A5E2FF"/>
<stop offset="1" stop-color="#0081FF"/>
</radialGradient>
<radialGradient id="paint32_radial_1660_30827" cx="0" cy="0" r="1" gradientUnits="userSpaceOnUse" gradientTransform="translate(241.282 101.661) scale(16.4847 16.6651)">
<stop stop-color="#00000D"/>
<stop offset="1" stop-color="white"/>
</radialGradient>
<radialGradient id="paint33_radial_1660_30827" cx="0" cy="0" r="1" gradientUnits="userSpaceOnUse" gradientTransform="translate(224.607 103.86) scale(17.7365 17.9306)">
<stop offset="0.31" stop-color="#00000D"/>
<stop offset="1" stop-color="#1CB4FF"/>
</radialGradient>
<radialGradient id="paint34_radial_1660_30827" cx="0" cy="0" r="1" gradientUnits="userSpaceOnUse" gradientTransform="translate(240.61 76.6241) scale(28.7905 29.1055)">
<stop offset="0.57" stop-color="#00000D"/>
<stop offset="0.6" stop-color="#030512"/>
<stop offset="0.63" stop-color="#0C1523"/>
<stop offset="0.68" stop-color="#1B2F3F"/>
<stop offset="0.72" stop-color="#305366"/>
<stop offset="0.77" stop-color="#4C8297"/>
<stop offset="0.82" stop-color="#6DBAD3"/>
<stop offset="0.86" stop-color="#85E3FF"/>
</radialGradient>
<radialGradient id="paint35_radial_1660_30827" cx="0" cy="0" r="1" gradientUnits="userSpaceOnUse" gradientTransform="translate(229.799 101.377) rotate(90) scale(32.7797 32.5139)">
<stop stop-color="#007CB1"/>
<stop offset="1" stop-color="#400000" stop-opacity="0"/>
</radialGradient>
<radialGradient id="paint36_radial_1660_30827" cx="0" cy="0" r="1" gradientUnits="userSpaceOnUse" gradientTransform="translate(227.906 95.7441) rotate(90) scale(22.2402 1.11696)">
<stop stop-color="#007CB1"/>
<stop offset="1" stop-color="#400000" stop-opacity="0"/>
</radialGradient>
<radialGradient id="paint37_radial_1660_30827" cx="0" cy="0" r="1" gradientUnits="userSpaceOnUse" gradientTransform="translate(227.905 95.7433) rotate(90) scale(22.0599 1.12609)">
<stop stop-color="#007CB1"/>
<stop offset="1" stop-color="#400000" stop-opacity="0"/>
</radialGradient>
<radialGradient id="paint38_radial_1660_30827" cx="0" cy="0" r="1" gradientUnits="userSpaceOnUse" gradientTransform="translate(211.15 86.7376) rotate(90) scale(15.4837 0.837717)">
<stop stop-color="#007CB1"/>
<stop offset="1" stop-color="#400000" stop-opacity="0"/>
</radialGradient>
<radialGradient id="paint39_radial_1660_30827" cx="0" cy="0" r="1" gradientUnits="userSpaceOnUse" gradientTransform="translate(211.15 86.7352) rotate(90) scale(15.3582 0.844566)">
<stop stop-color="#007CB1"/>
<stop offset="1" stop-color="#400000" stop-opacity="0"/>
</radialGradient>
<radialGradient id="paint40_radial_1660_30827" cx="0" cy="0" r="1" gradientUnits="userSpaceOnUse" gradientTransform="translate(239.635 110.382) rotate(90) scale(10.9793 0.837717)">
<stop stop-color="#007CB1"/>
<stop offset="1" stop-color="#400000" stop-opacity="0"/>
</radialGradient>
<radialGradient id="paint41_radial_1660_30827" cx="0" cy="0" r="1" gradientUnits="userSpaceOnUse" gradientTransform="translate(239.633 110.384) rotate(90) scale(10.8903 0.844566)">
<stop stop-color="#007CB1"/>
<stop offset="1" stop-color="#400000" stop-opacity="0"/>
</radialGradient>
<radialGradient id="paint42_radial_1660_30827" cx="0" cy="0" r="1" gradientUnits="userSpaceOnUse" gradientTransform="translate(246.055 96.0238) rotate(90) scale(8.44565 0.558478)">
<stop stop-color="#007CB1"/>
<stop offset="1" stop-color="#400000" stop-opacity="0"/>
</radialGradient>
<radialGradient id="paint43_radial_1660_30827" cx="0" cy="0" r="1" gradientUnits="userSpaceOnUse" gradientTransform="translate(246.056 96.024) rotate(90) scale(8.37717 0.563044)">
<stop stop-color="#007CB1"/>
<stop offset="1" stop-color="#400000" stop-opacity="0"/>
</radialGradient>
<radialGradient id="paint44_radial_1660_30827" cx="0" cy="0" r="1" gradientUnits="userSpaceOnUse" gradientTransform="translate(218.133 119.11) rotate(90) scale(8.44565 0.558478)">
<stop stop-color="#007CB1"/>
<stop offset="1" stop-color="#400000" stop-opacity="0"/>
</radialGradient>
<radialGradient id="paint45_radial_1660_30827" cx="0" cy="0" r="1" gradientUnits="userSpaceOnUse" gradientTransform="translate(218.131 119.11) rotate(90) scale(8.37717 0.563044)">
<stop stop-color="#007CB1"/>
<stop offset="1" stop-color="#400000" stop-opacity="0"/>
</radialGradient>
<radialGradient id="paint46_radial_1660_30827" cx="0" cy="0" r="1" gradientUnits="userSpaceOnUse" gradientTransform="translate(229.799 160.002) rotate(90) scale(32.7797 32.5139)">
<stop stop-color="#4FA9CF"/>
<stop offset="1" stop-color="#083259" stop-opacity="0"/>
</radialGradient>
<radialGradient id="paint47_radial_1660_30827" cx="0" cy="0" r="1" gradientUnits="userSpaceOnUse" gradientTransform="translate(221.603 147.612) scale(34.953 35.3355)">
<stop stop-color="#C4EEFF"/>
<stop offset="0.33" stop-color="#4CCAFF"/>
<stop offset="1" stop-color="#003EB0"/>
</radialGradient>
<radialGradient id="paint48_radial_1660_30827" cx="0" cy="0" r="1" gradientUnits="userSpaceOnUse" gradientTransform="translate(209.912 140.642) scale(13.2879 13.4333)">
<stop stop-color="#A5E2FF"/>
<stop offset="1" stop-color="#218CF3"/>
</radialGradient>
<radialGradient id="paint49_radial_1660_30827" cx="0" cy="0" r="1" gradientUnits="userSpaceOnUse" gradientTransform="translate(221.102 148.469) scale(38.4195 38.8398)">
<stop stop-color="#A5E2FF"/>
<stop offset="1" stop-color="#0088FF"/>
</radialGradient>
<radialGradient id="paint50_radial_1660_30827" cx="0" cy="0" r="1" gradientUnits="userSpaceOnUse" gradientTransform="translate(227.32 179.443) scale(26.7107 27.0029)">
<stop stop-color="#A5E2FF"/>
<stop offset="1" stop-color="#0069C2"/>
</radialGradient>
<radialGradient id="paint51_radial_1660_30827" cx="0" cy="0" r="1" gradientUnits="userSpaceOnUse" gradientTransform="translate(250.565 153.823) scale(19.3927 19.6049)">
<stop stop-color="#4CCAFF"/>
<stop offset="1" stop-color="#003EB0"/>
</radialGradient>
<radialGradient id="paint52_radial_1660_30827" cx="0" cy="0" r="1" gradientUnits="userSpaceOnUse" gradientTransform="translate(209.932 167.392) scale(16.9469 17.1323)">
<stop stop-color="#A5E2FF"/>
<stop offset="1" stop-color="#218CF3"/>
</radialGradient>
<radialGradient id="paint53_radial_1660_30827" cx="0" cy="0" r="1" gradientUnits="userSpaceOnUse" gradientTransform="translate(222.758 183.434) scale(31.1592 31.5001)">
<stop stop-color="#77D6FF"/>
<stop offset="1" stop-color="#001FB0"/>
</radialGradient>
<radialGradient id="paint54_radial_1660_30827" cx="0" cy="0" r="1" gradientUnits="userSpaceOnUse" gradientTransform="translate(218.598 178.897) scale(28.2706 28.5799)">
<stop stop-color="#A5E2FF"/>
<stop offset="1" stop-color="#0081FF"/>
</radialGradient>
<radialGradient id="paint55_radial_1660_30827" cx="0" cy="0" r="1" gradientUnits="userSpaceOnUse" gradientTransform="translate(241.282 160.286) scale(16.4847 16.6651)">
<stop stop-color="#00000D"/>
<stop offset="1" stop-color="white"/>
</radialGradient>
<radialGradient id="paint56_radial_1660_30827" cx="0" cy="0" r="1" gradientUnits="userSpaceOnUse" gradientTransform="translate(224.607 162.485) scale(17.7365 17.9306)">
<stop offset="0.31" stop-color="#00000D"/>
<stop offset="1" stop-color="#1CB4FF"/>
</radialGradient>
<radialGradient id="paint57_radial_1660_30827" cx="0" cy="0" r="1" gradientUnits="userSpaceOnUse" gradientTransform="translate(240.61 135.249) scale(28.7905 29.1055)">
<stop offset="0.57" stop-color="#00000D"/>
<stop offset="0.6" stop-color="#030512"/>
<stop offset="0.63" stop-color="#0C1523"/>
<stop offset="0.68" stop-color="#1B2F3F"/>
<stop offset="0.72" stop-color="#305366"/>
<stop offset="0.77" stop-color="#4C8297"/>
<stop offset="0.82" stop-color="#6DBAD3"/>
<stop offset="0.86" stop-color="#85E3FF"/>
</radialGradient>
<radialGradient id="paint58_radial_1660_30827" cx="0" cy="0" r="1" gradientUnits="userSpaceOnUse" gradientTransform="translate(229.799 160.002) rotate(90) scale(32.7797 32.5139)">
<stop stop-color="#007CB1"/>
<stop offset="1" stop-color="#400000" stop-opacity="0"/>
</radialGradient>
<radialGradient id="paint59_radial_1660_30827" cx="0" cy="0" r="1" gradientUnits="userSpaceOnUse" gradientTransform="translate(227.906 154.369) rotate(90) scale(22.2402 1.11696)">
<stop stop-color="#007CB1"/>
<stop offset="1" stop-color="#400000" stop-opacity="0"/>
</radialGradient>
<radialGradient id="paint60_radial_1660_30827" cx="0" cy="0" r="1" gradientUnits="userSpaceOnUse" gradientTransform="translate(227.905 154.368) rotate(90) scale(22.0599 1.12609)">
<stop stop-color="#007CB1"/>
<stop offset="1" stop-color="#400000" stop-opacity="0"/>
</radialGradient>
<radialGradient id="paint61_radial_1660_30827" cx="0" cy="0" r="1" gradientUnits="userSpaceOnUse" gradientTransform="translate(211.15 145.363) rotate(90) scale(15.4837 0.837717)">
<stop stop-color="#007CB1"/>
<stop offset="1" stop-color="#400000" stop-opacity="0"/>
</radialGradient>
<radialGradient id="paint62_radial_1660_30827" cx="0" cy="0" r="1" gradientUnits="userSpaceOnUse" gradientTransform="translate(211.15 145.36) rotate(90) scale(15.3582 0.844566)">
<stop stop-color="#007CB1"/>
<stop offset="1" stop-color="#400000" stop-opacity="0"/>
</radialGradient>
<radialGradient id="paint63_radial_1660_30827" cx="0" cy="0" r="1" gradientUnits="userSpaceOnUse" gradientTransform="translate(239.635 169.007) rotate(90) scale(10.9793 0.837717)">
<stop stop-color="#007CB1"/>
<stop offset="1" stop-color="#400000" stop-opacity="0"/>
</radialGradient>
<radialGradient id="paint64_radial_1660_30827" cx="0" cy="0" r="1" gradientUnits="userSpaceOnUse" gradientTransform="translate(239.633 169.009) rotate(90) scale(10.8903 0.844566)">
<stop stop-color="#007CB1"/>
<stop offset="1" stop-color="#400000" stop-opacity="0"/>
</radialGradient>
<radialGradient id="paint65_radial_1660_30827" cx="0" cy="0" r="1" gradientUnits="userSpaceOnUse" gradientTransform="translate(246.055 154.649) rotate(90) scale(8.44565 0.558478)">
<stop stop-color="#007CB1"/>
<stop offset="1" stop-color="#400000" stop-opacity="0"/>
</radialGradient>
<radialGradient id="paint66_radial_1660_30827" cx="0" cy="0" r="1" gradientUnits="userSpaceOnUse" gradientTransform="translate(246.056 154.649) rotate(90) scale(8.37717 0.563044)">
<stop stop-color="#007CB1"/>
<stop offset="1" stop-color="#400000" stop-opacity="0"/>
</radialGradient>
<radialGradient id="paint67_radial_1660_30827" cx="0" cy="0" r="1" gradientUnits="userSpaceOnUse" gradientTransform="translate(218.133 177.735) rotate(90) scale(8.44565 0.558478)">
<stop stop-color="#007CB1"/>
<stop offset="1" stop-color="#400000" stop-opacity="0"/>
</radialGradient>
<radialGradient id="paint68_radial_1660_30827" cx="0" cy="0" r="1" gradientUnits="userSpaceOnUse" gradientTransform="translate(218.131 177.735) rotate(90) scale(8.37717 0.563044)">
<stop stop-color="#007CB1"/>
<stop offset="1" stop-color="#400000" stop-opacity="0"/>
</radialGradient>
<clipPath id="clip0_1660_30827">
<rect width="440" height="285" fill="white" transform="translate(10 20)"/>
</clipPath>
<clipPath id="clip1_1660_30827">
<rect x="83" y="20" width="53.9" height="45.5" rx="8.75" fill="white"/>
</clipPath>
<clipPath id="clip2_1660_30827">
<rect x="143.023" y="20" width="53.9" height="45.5" rx="8.75" fill="white"/>
</clipPath>
<clipPath id="clip3_1660_30827">
<rect x="203.051" y="20" width="53.9" height="45.5" rx="8.75" fill="white"/>
</clipPath>
<clipPath id="clip4_1660_30827">
<rect width="37.9765" height="35.4717" fill="white" transform="translate(210.871 25.0156)"/>
</clipPath>
<clipPath id="clip5_1660_30827">
<rect x="263.074" y="20" width="53.9" height="45.5" rx="8.75" fill="white"/>
</clipPath>
<clipPath id="clip6_1660_30827">
<rect x="323.102" y="20" width="53.9" height="45.5" rx="8.75" fill="white"/>
</clipPath>
<clipPath id="clip7_1660_30827">
<rect x="83" y="78.625" width="53.9" height="45.5" rx="8.75" fill="white"/>
</clipPath>
<clipPath id="clip8_1660_30827">
<rect x="143.023" y="78.625" width="53.9" height="45.5" rx="8.75" fill="white"/>
</clipPath>
<clipPath id="clip9_1660_30827">
<rect x="203.051" y="78.625" width="53.9" height="45.5" rx="8.75" fill="white"/>
</clipPath>
<clipPath id="clip10_1660_30827">
<rect width="37.9765" height="35.4717" fill="white" transform="translate(210.871 83.6406)"/>
</clipPath>
<clipPath id="clip11_1660_30827">
<rect x="263.074" y="78.625" width="53.9" height="45.5" rx="8.75" fill="white"/>
</clipPath>
<clipPath id="clip12_1660_30827">
<rect x="323.102" y="78.625" width="53.9" height="45.5" rx="8.75" fill="white"/>
</clipPath>
<clipPath id="clip13_1660_30827">
<rect x="83" y="137.25" width="53.9" height="45.5" rx="8.75" fill="white"/>
</clipPath>
<clipPath id="clip14_1660_30827">
<rect x="143.023" y="137.25" width="53.9" height="45.5" rx="8.75" fill="white"/>
</clipPath>
<clipPath id="clip15_1660_30827">
<rect x="203.051" y="137.25" width="53.9" height="45.5" rx="8.75" fill="white"/>
</clipPath>
<clipPath id="clip16_1660_30827">
<rect width="37.9765" height="35.4717" fill="white" transform="translate(210.871 142.266)"/>
</clipPath>
<clipPath id="clip17_1660_30827">
<rect x="263.074" y="137.25" width="53.9" height="45.5" rx="8.75" fill="white"/>
</clipPath>
<clipPath id="clip18_1660_30827">
<rect x="323.102" y="137.25" width="53.9" height="45.5" rx="8.75" fill="white"/>
</clipPath>
<clipPath id="clip19_1660_30827">
<rect x="83" y="195.875" width="53.9" height="45.5" rx="8.75" fill="white"/>
</clipPath>
<clipPath id="clip20_1660_30827">
<rect x="143.023" y="195.875" width="53.9" height="45.5" rx="8.75" fill="white"/>
</clipPath>
<clipPath id="clip21_1660_30827">
<rect x="203.051" y="195.875" width="53.9" height="45.5" rx="8.75" fill="white"/>
</clipPath>
<clipPath id="clip22_1660_30827">
<rect x="263.074" y="195.875" width="53.9" height="45.5" rx="8.75" fill="white"/>
</clipPath>
<clipPath id="clip23_1660_30827">
<rect x="323.102" y="195.875" width="53.9" height="45.5" rx="8.75" fill="white"/>
</clipPath>
<clipPath id="clip24_1660_30827">
<rect x="83" y="254.5" width="53.9" height="45.5" rx="8.75" fill="white"/>
</clipPath>
<clipPath id="clip25_1660_30827">
<rect x="143.023" y="254.5" width="53.9" height="45.5" rx="8.75" fill="white"/>
</clipPath>
<clipPath id="clip26_1660_30827">
<rect x="203.051" y="254.5" width="53.9" height="45.5" rx="8.75" fill="white"/>
</clipPath>
<clipPath id="clip27_1660_30827">
<rect x="263.074" y="254.5" width="53.9" height="45.5" rx="8.75" fill="white"/>
</clipPath>
<clipPath id="clip28_1660_30827">
<rect x="323.102" y="254.5" width="53.9" height="45.5" rx="8.75" fill="white"/>
</clipPath>
</defs>
</svg>
