<svg id="AUD" xmlns="http://www.w3.org/2000/svg" width="14.002" height="14" viewBox="0 0 14.002 14">
  <path id="减去_31" data-name="减去 31" d="M11559,8404a7,7,0,1,1,7-7A7.008,7.008,0,0,1,11559,8404Zm.77-5.6v1.129c.123.033.254.063.4.09s.27.043.43.064c.138.019.286.034.455.046l.073,0v.627h.795v-.63a3.376,3.376,0,0,0,.686-.115,1.184,1.184,0,0,0,.69-.5,1.928,1.928,0,0,0,.244-1.065v-.24a1.655,1.655,0,0,0-.175-.761,1.26,1.26,0,0,0-.517-.528,1.665,1.665,0,0,0-.789-.2h-.591a.589.589,0,0,1-.321-.1.35.35,0,0,1-.115-.279v-.075a.35.35,0,0,1,.084-.255.462.462,0,0,1,.249-.119,2.227,2.227,0,0,1,.369-.029c.229,0,.481.006.77.018.229.013.515.027.76.049v-1.132c-.19-.043-.34-.073-.481-.1-.171-.03-.353-.056-.572-.081l-.033,0c-.079-.007-.169-.016-.257-.021v-.561h-.8v.578a1.825,1.825,0,0,0-.961.374,1.484,1.484,0,0,0-.485,1.208v.243a1.564,1.564,0,0,0,.444,1.255,1.96,1.96,0,0,0,1.292.374h.386a.477.477,0,0,1,.271.081.281.281,0,0,1,.116.244v.087a.311.311,0,0,1-.082.221.509.509,0,0,1-.243.119,1.814,1.814,0,0,1-.36.034h-.043c-.177,0-.354,0-.555-.008-.222,0-.414-.01-.59-.021-.194-.009-.377-.021-.542-.035Zm-3.692-4.159-1.617,5.463h1.463l.212-.867h1.635l.223.868h1.478l-1.613-5.463Zm1.364,3.32h-.976v-.009l.484-2.1.491,2.106Z" transform="translate(-11551.999 -8390)" fill="#2596d1"/>
</svg>
