<svg id="CNY" xmlns="http://www.w3.org/2000/svg" width="14" height="14" viewBox="0 0 14 14">
  <path id="路径_13082" data-name="路径 13082" d="M66.319,65.01a7,7,0,1,0,7,7A7,7,0,0,0,66.319,65.01Zm2.832,7.98h.021a.744.744,0,0,1,0,1.488H67.329v1.637h0c0,.013,0,.025,0,.038a.921.921,0,1,1-1.841,0c0-.013,0-.025,0-.038h0V74.477H63.614a.744.744,0,0,1,0-1.486h1.875V71.875H63.614a.744.744,0,0,1,0-1.486h.9l-.772-2.4h0l-.01-.03h0a.745.745,0,0,1,.484-.906.737.737,0,0,1,.919.447h0l.007.023,0,.008,0,.008.917,2.852h.681l.916-2.849,0-.009,0-.009.007-.022h0a.737.737,0,0,1,.919-.447.745.745,0,0,1,.484.906h0l-.01.031h0l-.772,2.4h.876a.744.744,0,0,1,0,1.488H67.329v1.114h1.822Z" transform="translate(-59.319 -65.01)" fill="#ffa200"/>
</svg>
