<svg id="EUR" xmlns="http://www.w3.org/2000/svg" width="14.002" height="14" viewBox="0 0 14.002 14">
  <path id="减去_33" data-name="减去 33" d="M11559,8404a7,7,0,1,1,7-7A7.008,7.008,0,0,1,11559,8404Zm-2.65-5.559a4.019,4.019,0,0,0,.8,1.35,3.507,3.507,0,0,0,2.638,1.21,3.642,3.642,0,0,0,3.217-2.055l-1.118-.5a2.277,2.277,0,0,1-4.2,0h2.813v-1.158h-3.141l0-.03c0-.081-.009-.166-.009-.252s.006-.194.012-.284h3.141v-1.158h-2.813a2.277,2.277,0,0,1,4.2-.006l1.118-.5a3.642,3.642,0,0,0-3.217-2.055,3.507,3.507,0,0,0-2.638,1.21,4.01,4.01,0,0,0-.8,1.35H11555v1.158h1.111c-.006.089-.009.182-.009.284s0,.185.009.282H11555v1.158Z" transform="translate(-11551.999 -8390)" fill="#895df3"/>
</svg>
