<svg id="GBP" xmlns="http://www.w3.org/2000/svg" width="14" height="13.999" viewBox="0 0 14 13.999">
  <path id="路径_13078" data-name="路径 13078" d="M188.549,181.769a7.135,7.135,0,0,0-6.174,5.512,9.019,9.019,0,0,0-.076,2.527,7.04,7.04,0,0,0,5.616,5.832,5.853,5.853,0,0,0,1.337.1,6.416,6.416,0,0,0,3.179-.75,7.006,7.006,0,0,0,3.7-4.823,5.659,5.659,0,0,0,.109-1.4,5.807,5.807,0,0,0-.364-2.329,7.059,7.059,0,0,0-5.432-4.6A8.4,8.4,0,0,0,188.549,181.769Zm2.121,2.244a2.123,2.123,0,0,1,1.46,1.207c.265.58.3.528-.439.674-.354.066-.685.137-.737.146-.08.019-.109-.014-.161-.156a1.172,1.172,0,0,0-.491-.632.875.875,0,0,0-.553-.108.85.85,0,0,0-.775.3c-.222.269-.274.547-.3,1.636l-.024,1H190.5v1.085h-1.833l-.019.6a1.712,1.712,0,0,1-.529,1.452,5.5,5.5,0,0,1-.43.387l-.142.1h1.2a14.852,14.852,0,0,0,1.512-.047,1.231,1.231,0,0,0,1.063-.943c.043-.127.1-.231.132-.231a7.388,7.388,0,0,1,1.389.269,2.863,2.863,0,0,1-.35,1.042,2.553,2.553,0,0,1-.954.948c-.515.273-.68.288-3.25.288H185.97v-1.311l.3-.212a1.777,1.777,0,0,0,.657-.811,2.112,2.112,0,0,0,.123-.886l.019-.646h-1.191v-1.084H187l.024-1.122a3.753,3.753,0,0,1,.26-1.815,2.51,2.51,0,0,1,.794-.863,3.042,3.042,0,0,1,1.082-.349A5.119,5.119,0,0,1,190.67,184.014Z" transform="translate(-182.244 -181.745)" fill="#bc3fe0"/>
</svg>
