<svg id="JPY" xmlns="http://www.w3.org/2000/svg" width="14.002" height="14" viewBox="0 0 14.002 14">
  <path id="减去_31" data-name="减去 31" d="M11559,8404a7,7,0,1,1,7-7A7.008,7.008,0,0,1,11559,8404Zm-2.354-6.006a.191.191,0,0,0-.13.052.178.178,0,0,0-.056.131v.584a.164.164,0,0,0,.056.13.181.181,0,0,0,.13.053h1.684v1.875a.178.178,0,0,0,.056.131.194.194,0,0,0,.133.052h1a.2.2,0,0,0,.131-.052.177.177,0,0,0,.055-.131v-1.875h1.7a.176.176,0,0,0,.131-.05.172.172,0,0,0,.055-.13v-.587a.187.187,0,0,0-.186-.183h-1.7v-.481h1.7a.184.184,0,0,0,.131-.053.168.168,0,0,0,.055-.131v-.589a.182.182,0,0,0-.186-.183h-1.257l1.829-3.292a.159.159,0,0,0-.006-.174.177.177,0,0,0-.157-.093h-1.114a.173.173,0,0,0-.172.109l-1.117,2.387c-.017.041-.066.156-.159.345l-.029.063c-.063.136-.115.245-.148.324-.136-.308-.251-.561-.328-.711l-1.257-2.415a.184.184,0,0,0-.168-.1h-1.135a.182.182,0,0,0-.163.093.184.184,0,0,0,0,.18l1.875,3.286h-1.251a.187.187,0,0,0-.13.052.181.181,0,0,0-.056.131v.589a.172.172,0,0,0,.056.131.19.19,0,0,0,.13.05h1.684v.484Z" transform="translate(-11551.999 -8390)" fill="#06c282"/>
</svg>
