<svg xmlns="http://www.w3.org/2000/svg" width="15.035" height="15" viewBox="0 0 15.035 15">
  <g id="NZD" transform="translate(0.532 0.5)">
    <path id="减去_34" data-name="减去 34" d="M11559.009,8404a5.93,5.93,0,0,1-1.338-.1,7.033,7.033,0,0,1-5.614-5.832,8.793,8.793,0,0,1,.075-2.528,7.135,7.135,0,0,1,6.172-5.512,5.308,5.308,0,0,1,.551-.023,8.842,8.842,0,0,1,1.35.1,7.017,7.017,0,0,1,5.432,4.6,5.815,5.815,0,0,1,.365,2.328,5.582,5.582,0,0,1-.11,1.4,6.978,6.978,0,0,1-3.7,4.821A6.4,6.4,0,0,1,11559.009,8404Zm2.3-5.857v.929c.095.026.2.05.325.072s.243.04.351.055l.021,0c.1.013.229.027.352.033h.058v.517h.65v-.52a2.83,2.83,0,0,0,.558-.093.975.975,0,0,0,.568-.406,1.6,1.6,0,0,0,.2-.874v-.2a1.338,1.338,0,0,0-.143-.624,1.025,1.025,0,0,0-.421-.43,1.423,1.423,0,0,0-.664-.162h-.434l-.039,0a.444.444,0,0,1-.254-.078.28.28,0,0,1-.1-.229v-.062a.283.283,0,0,1,.072-.209.391.391,0,0,1,.206-.1,2.067,2.067,0,0,1,.3-.023c.188,0,.394.006.63.018.265.01.456.021.621.038v-.929c-.119-.027-.25-.057-.393-.082s-.33-.049-.47-.066l-.071-.007-.021,0c-.048,0-.1-.009-.146-.009v-.458h-.65v.47a1.513,1.513,0,0,0-.786.308,1.223,1.223,0,0,0-.4.99v.2a1.29,1.29,0,0,0,.362,1.03,1.6,1.6,0,0,0,1.06.308h.332a.362.362,0,0,1,.205.064.235.235,0,0,1,.1.2v.072a.243.243,0,0,1-.066.18.4.4,0,0,1-.2.1,1.629,1.629,0,0,1-.334.032l-.291,0-.124,0h-.038l-.088,0-.394-.018c-.152-.008-.3-.018-.441-.028Zm-6.354-1.426,0,0,1.568,2.487h.927v-4.47h-1.167v2.49l-1.57-2.49h-.926v4.47h1.166v-2.49Zm4.566-.935-1.666,2.5v.926h3.088v-1.048h-1.669l1.669-2.5v-.926h-3.088v1.045Z" transform="translate(-11551.998 -8390)" fill="#216ff5" stroke="rgba(0,0,0,0)" stroke-miterlimit="10" stroke-width="1"/>
  </g>
</svg>
