<svg id="THB" xmlns="http://www.w3.org/2000/svg" width="14" height="13.998" viewBox="0 0 14 13.998">
  <path id="减去_29" data-name="减去 29" d="M11559.5,8404.5a7,7,0,1,1,7-7A7.007,7.007,0,0,1,11559.5,8404.5Zm-.437-3.364h0V8402h.861v-.864h.094a4.125,4.125,0,0,0,1-.123,1.9,1.9,0,0,0,.726-.36,1.776,1.776,0,0,0,.485-.668,2.244,2.244,0,0,0,.2-.946,1.859,1.859,0,0,0-.322-1.1,1.727,1.727,0,0,0-.923-.659,1.672,1.672,0,0,0,.693-.671,1.753,1.753,0,0,0,.229-.867,1.894,1.894,0,0,0-.259-.958,1.623,1.623,0,0,0-.72-.677,2.859,2.859,0,0,0-1.1-.223l-.1,0V8393h-.861v.888h-1.963v7.249Zm.989-.853h-.127v-2.5h.029a2.9,2.9,0,0,1,.845.125,1,1,0,0,1,.528.427,1.3,1.3,0,0,1,.188.705,1.351,1.351,0,0,1-.136.61,1.016,1.016,0,0,1-.334.4,1.371,1.371,0,0,1-.5.2A3.7,3.7,0,0,1,11560.052,8400.282Zm-.988,0h-1.089l0-2.5h1.086v2.5Zm.861-3.345h0v-2.19a3.477,3.477,0,0,1,.709.1.827.827,0,0,1,.452.375,1.3,1.3,0,0,1,.157.636,1.121,1.121,0,0,1-.171.633.935.935,0,0,1-.5.362,3.2,3.2,0,0,1-.644.084Zm-.861,0h-1.089l0-2.188h1.092v2.188Z" transform="translate(-11552.5 -8390.501)" fill="#ff7856"/>
</svg>
