<svg id="USD" xmlns="http://www.w3.org/2000/svg" width="13.999" height="14" viewBox="0 0 13.999 14">
  <path id="减去_28" data-name="减去 28" d="M11554,8382.943a7,7,0,1,1,7-7A7.008,7.008,0,0,1,11554,8382.943Zm-3.043-5.5a2.294,2.294,0,0,0,.568,1.587,2.818,2.818,0,0,0,1.787.835v.584h1.367v-.563a3.012,3.012,0,0,0,1.621-.649,2.145,2.145,0,0,0,.743-1.738,1.72,1.72,0,0,0-.589-1.4,3.438,3.438,0,0,0-1.35-.586l-1.8-.444a1.476,1.476,0,0,1-.517-.194.657.657,0,0,1-.267-.577.756.756,0,0,1,.422-.7,1.788,1.788,0,0,1,.866-.186,1.6,1.6,0,0,1,1.257.427,1.2,1.2,0,0,1,.258.676h1.485a2.221,2.221,0,0,0-.6-1.529,2.62,2.62,0,0,0-1.528-.792v-.749h-1.367v.723a2.593,2.593,0,0,0-1.727.8,2.13,2.13,0,0,0-.516,1.442,1.8,1.8,0,0,0,.733,1.593,5.183,5.183,0,0,0,1.619.577l.795.188a4.629,4.629,0,0,1,.969.308.659.659,0,0,1,.372.606.8.8,0,0,1-.5.772,2.5,2.5,0,0,1-1.051.186,1.675,1.675,0,0,1-1.3-.441,1.1,1.1,0,0,1-.267-.754Z" transform="translate(-11547.001 -8368.943)" fill="#3e5bf2"/>
</svg>
