<svg id="VND" xmlns="http://www.w3.org/2000/svg" width="14" height="13.998" viewBox="0 0 14 13.998">
  <path id="减去_30" data-name="减去 30" d="M11559.5,8404.5a7,7,0,1,1,7-7A7.007,7.007,0,0,1,11559.5,8404.5Zm-3-3.67v.671h6v-.671Zm2.616-6.376-.09,0H11559a2.5,2.5,0,0,0-1.3.362,2.68,2.68,0,0,0-1.193,2.509,3.25,3.25,0,0,0,.331,1.483,2.349,2.349,0,0,0,2.238,1.382,1.913,1.913,0,0,0,1.675-.819v.683h.926v-6.279h.83v-.679h-.83v-.6h-.993v.6h-.763v.679h.763v1.44A1.98,1.98,0,0,0,11559.119,8394.453Zm.092,4.967h-.082a1.429,1.429,0,0,1-1.143-.569,2.415,2.415,0,0,1-.447-1.526,2.57,2.57,0,0,1,.415-1.551,1.38,1.38,0,0,1,1.107-.555h.107a1.433,1.433,0,0,1,1.148.578,2.6,2.6,0,0,1,.441,1.608,2.3,2.3,0,0,1-.433,1.472A1.406,1.406,0,0,1,11559.211,8399.42Z" transform="translate(-11552.5 -8390.501)" fill="#46a559"/>
</svg>
