<svg data-name="55075b3a-902f-4eb7-84a7-28f2941bb62d" xmlns="http://www.w3.org/2000/svg" width="180" height="80" viewBox="0 0 180 80">
    <path data-name="路径 16080" d="M0 0h180v80H0z" style="fill-rule:evenodd;fill:none"/>
    <g data-name="组 8546">
        <g data-name="组 8544">
            <path data-name="路径 16081" d="M27.109 42.305a7.744 7.744 0 0 1 5.2 1.682l-1.665 3.051a4.858 4.858 0 0 0-3.219-1.2c-2.507 0-3.518 1.516-3.518 3.236A3.261 3.261 0 0 0 27.3 52.53a3.718 3.718 0 0 0 2.358-.814v-.592h-1.7v-2.846H33v7.469h-3.215v-.573a1.67 1.67 0 0 1 .038-.425h-.075a4.437 4.437 0 0 1-3.387 1.22 6.5 6.5 0 0 1-6.606-6.8c0-3.883 2.9-6.86 7.354-6.86zm13.962 0c4.3 0 7.186 2.9 7.186 6.749 0 3.938-2.882 6.915-7.186 6.915s-7.186-2.977-7.186-6.915c0-3.846 2.882-6.749 7.186-6.749zm40.987 0c4.3 0 7.186 2.9 7.186 6.749 0 3.938-2.882 6.915-7.186 6.915s-7.186-2.977-7.186-6.915c0-3.846 2.882-6.749 7.186-6.749zm48.979 0c4.3 0 7.186 2.9 7.186 6.749 0 3.938-2.882 6.915-7.186 6.915s-7.186-2.977-7.186-6.915c0-3.846 2.882-6.749 7.186-6.749zm15.029 0c4.3 0 7.186 2.9 7.186 6.749 0 3.938-2.882 6.915-7.186 6.915s-7.186-2.977-7.186-6.915c0-3.846 2.882-6.749 7.186-6.749zm-90.7.222c2.938 0 4.941 1.571 4.941 4.345a4.336 4.336 0 0 1-2.04 3.7v.037c.037.074.3.407.58.906l2.339 4.234h-4.4l-2.077-4.141h-1.118v4.141h-4.042V42.528zm12.034 0c4.136 0 6.775 2.422 6.775 6.582s-2.639 6.637-6.775 6.637h-5.424V42.528zm27.007 0 3.293 5.418a12.145 12.145 0 0 1 .954 2.016h.075a20 20 0 0 1-.15-2.016v-5.417h3.911v13.219h-3.93l-3.312-5.676a15.342 15.342 0 0 1-.955-2h-.075a19.408 19.408 0 0 1 .15 2v5.676h-3.813V42.528zm18.585 0 1.684 5.325c.262.85.561 2.126.561 2.126h.075l.01-.045.028-.125c.086-.376.3-1.294.523-1.956l1.684-5.325h4.4l.992 13.219h-3.762l-.374-5.509a17.69 17.69 0 0 1 0-2.127h-.075s-.337 1.294-.618 2.127l-1.216 3.753h-3.254l-1.235-3.753c-.044-.139-.089-.29-.135-.446l-.092-.316c-.2-.689-.372-1.364-.372-1.364h-.075a20.024 20.024 0 0 1-.019 2.127l-.356 5.509h-3.8l1.01-13.219zm46.994 0c4.136 0 6.775 2.422 6.775 6.582s-2.639 6.637-6.775 6.637h-5.427V42.528zm10.257 0 1.291 2.736c.374.832.767 2 .767 2h.075s.393-1.165.786-2l1.254-2.736h4.36l-4.416 7.987v5.232h-4.042v-5.231l-4.418-7.987zm-103.1 3.254h-1.124v6.712h1.123c1.815 0 2.882-1.146 2.882-3.383-.001-2.219-1.124-3.329-2.882-3.329zm92.586 0H158.6v6.712h1.123c1.815 0 2.882-1.146 2.882-3.383.005-2.219-1.118-3.329-2.877-3.329zm-118.659.056a2.992 2.992 0 0 0-3.031 3.217 3.05 3.05 0 1 0 6.063 0 2.992 2.992 0 0 0-3.032-3.217zm40.987 0a2.992 2.992 0 0 0-3.031 3.217 3.05 3.05 0 1 0 6.063 0 2.992 2.992 0 0 0-3.031-3.217zm48.979 0A2.992 2.992 0 0 0 128 49.054a3.05 3.05 0 1 0 6.063 0 2.992 2.992 0 0 0-3.027-3.217zm15.029 0a2.992 2.992 0 0 0-3.032 3.217 3.05 3.05 0 1 0 6.063 0 2.992 2.992 0 0 0-3.031-3.217zm-91.426-.092h-1.048v2.773h1.2a1.3 1.3 0 0 0 1.422-1.405c-.002-.833-.357-1.368-1.574-1.368z" style="fill:#999;fill-rule:evenodd" transform="translate(0 12)"/>
            <path data-name="路径 16082" d="M7.98 45.641a3.475 3.475 0 1 1-3.517 3.474 3.5 3.5 0 0 1 3.517-3.474" style="fill:#999;fill-rule:evenodd" transform="translate(0 12)"/>
            <path data-name="路径 16083" d="m7.98 44.719 1.6-1.584v-1.9H6.384v1.9z" style="fill:#999;fill-rule:evenodd" transform="translate(0 12)"/>
        </g>
        <path data-name="路径 16084" d="m5.755 45.308.583-2.159-.961-1.649-2.768 1.583.961 1.642z" style="fill:#757575;fill-rule:evenodd" transform="translate(0 12)"/>
        <g data-name="组 8545">
            <path data-name="路径 16085" d="M4.119 3.108 3.536.948 1.868 0 .272 2.735l1.669.948z" style="fill:#999;fill-rule:evenodd" transform="translate(0 55.81)"/>
            <path data-name="路径 16086" d="m3.523 5.306-1.6-1.577H0v3.154h1.927z" style="fill:#757575;fill-rule:evenodd" transform="translate(0 55.81)"/>
        </g>
        <path data-name="路径 16087" d="m4.119 51.314-2.179-.576-1.669.948 1.6 2.735 1.669-.949z" style="fill:#999;fill-rule:evenodd" transform="translate(0 12)"/>
        <path data-name="路径 16088" d="m5.748 52.93-2.179.576-.969 1.649 2.768 1.577.967-1.649z" style="fill:#757575;fill-rule:evenodd" transform="translate(0 12)"/>
        <path data-name="路径 16089" d="M7.98 53.519 6.377 55.1V57h3.2v-1.9z" style="fill:#999;fill-rule:evenodd" transform="translate(0 12)"/>
        <path data-name="路径 16090" d="m10.2 52.93-.583 2.153.96 1.649 2.768-1.577-.96-1.649z" style="fill:#757575;fill-rule:evenodd" transform="translate(0 12)"/>
        <path data-name="路径 16091" d="m11.834 51.321.583 2.152 1.669.956 1.6-2.735-1.669-.955z" style="fill:#999;fill-rule:evenodd" transform="translate(0 12)"/>
        <path data-name="路径 16092" d="m12.43 49.116 1.6 1.583h1.921v-3.16h-1.918z" style="fill:#757575;fill-rule:evenodd" transform="translate(0 12)"/>
        <path data-name="路径 16093" d="m11.834 46.918 2.185.576 1.669-.948-1.6-2.735-1.662.948z" style="fill:#999;fill-rule:evenodd" transform="translate(0 12)"/>
        <path data-name="路径 16094" d="m10.2 45.308 2.185-.576.96-1.649-2.763-1.583-.96 1.649z" style="fill:#757575;fill-rule:evenodd" transform="translate(0 12)"/>
        <path data-name="路径 16095" d="M171.173 20.151 180 28.724l-8.528 8.771H.265V20.151zm-18.463 1.961c-3.278 0-5.328 2.761-5.328 6.663 0 4.012 2.05 6.846 5.328 6.846 3.26 0 5.328-2.853 5.328-6.828 0-3.939-2.068-6.681-5.328-6.681zm-24.033 0c-3.651 0-5.794 2.835-5.794 6.737 0 3.865 2.086 6.773 5.663 6.773a5.361 5.361 0 0 0 3.558-1.178l-.931-1.9a3.947 3.947 0 0 1-2.459.957c-2.18 0-3.5-2.19-3.5-4.748 0-2.5 1.248-4.528 3.539-4.528a3.237 3.237 0 0 1 2.2.9l.95-1.933a4.947 4.947 0 0 0-3.223-1.086zm-119.532 0c-3.465 0-5.719 2.724-5.719 6.792 0 4.233 2.515 6.718 5.2 6.718a3.56 3.56 0 0 0 2.775-1.2h.038a4.425 4.425 0 0 0-.038.5v.478h1.789v-6.9h-3.5v1.988h1.49v2.062a2.741 2.741 0 0 1-2.124.92c-1.882 0-3.3-1.822-3.3-4.638 0-2.687 1.23-4.6 3.484-4.6a3.649 3.649 0 0 1 2.441.92l.969-1.9a5.855 5.855 0 0 0-3.5-1.141zm67.889 0c-3.465 0-5.719 2.724-5.719 6.792 0 4.233 2.515 6.718 5.2 6.718a3.56 3.56 0 0 0 2.775-1.2h.038a4.425 4.425 0 0 0-.038.5v.478h1.788v-6.9h-3.5v1.988h1.49v2.062a2.741 2.741 0 0 1-2.124.92c-1.882 0-3.3-1.822-3.3-4.638 0-2.687 1.23-4.6 3.484-4.6a3.649 3.649 0 0 1 2.441.92l.969-1.9a5.855 5.855 0 0 0-3.5-1.141zm-18.872.221h-2.273V35.4h2.273zm4.974 0h-2.385V35.4h2.142V28c0-.773-.13-2.006-.13-2.006h.074a17.342 17.342 0 0 0 .671 1.987l3.409 7.419h2.366V22.333H67.16v7.38c0 .682.1 1.722.125 1.958v.048h-.074a16.161 16.161 0 0 0-.671-1.988zm-21.444 0h-3.576V35.4h3.651c2.329 0 3.987-1.159 3.987-3.773a3 3 0 0 0-1.975-3.092V28.5a3.07 3.07 0 0 0 1.546-2.8c0-2.17-1.525-3.367-3.633-3.367zm49.818 0h-2.46L85.586 35.4h2.273l.8-3.368H91.9l.82 3.368h2.273zm49.947 0h-8.644v1.988H136V35.4h2.254V24.321h3.2zm-41.3 0h-3.67V35.4h3.67c3.26 0 5.328-2.429 5.328-6.552s-2.068-6.516-5.328-6.516zm-79.981 0h-2.461L14.25 35.4h2.273l.8-3.368h3.242l.82 3.368h2.273zm7.937 0h-2.5L24.758 35.4h2.124l.447-7.27a19.157 19.157 0 0 0-.019-2.025h.075s.1.6.226 1.219l.065.31c.045.2.091.4.137.569l1.415 4.951h2.217l1.416-4.954c.2-.773.447-2.1.447-2.1h.056a19.222 19.222 0 0 0-.019 2.025l.447 7.27H35.9l-.839-13.068h-2.5l-1.788 6.35c-.186.791-.41 1.987-.41 1.987h-.056s-.086-.5-.2-1.069l-.066-.314c-.046-.21-.094-.419-.142-.6zm83.092 0h-3.67V35.4h3.67c3.26 0 5.328-2.429 5.328-6.552s-2.068-6.516-5.328-6.516zm9.65 0h-2.275V35.4h2.273zm-70.832 0h-2.275V35.4h6.539v-1.986H50.02zm95.331 0h-2.273V35.4h2.273zm17.1 0h-2.384V35.4h2.142V28c0-.773-.13-2.006-.13-2.006h.074a17.261 17.261 0 0 0 .671 1.987l3.409 7.418h2.364V22.333h-2.124v7.38c0 .773.13 2.006.13 2.006h-.075a16.163 16.163 0 0 0-.671-1.988zm-9.744 1.932c1.863 0 2.98 1.748 2.98 4.528 0 2.816-1.117 4.675-2.98 4.675-1.882 0-3-1.841-3-4.693 0-2.743 1.118-4.51 3-4.51zM41.99 29.548c.875 0 1.434.773 1.434 1.951 0 1.086-.5 1.914-1.7 1.914h-1.336v-3.865zm69.12-5.208c1.9 0 3.074 1.564 3.074 4.509 0 2.963-1.136 4.546-3.074 4.546h-1.3V24.34zm-11.048 0c1.9 0 3.074 1.564 3.074 4.509 0 2.963-1.136 4.546-3.074 4.546h-1.3V24.34zm-9.744.276s.2 1.27.391 2.024l.838 3.516h-2.514l.857-3.516c.039-.177.081-.384.121-.595l.059-.318c.106-.58.192-1.111.192-1.111zm-71.336 0s.2 1.27.391 2.024l.839 3.516H17.7l.857-3.516c.039-.177.081-.384.121-.595l.059-.318c.106-.58.192-1.111.192-1.111zm22.636-.295c.894 0 1.4.681 1.4 1.656s-.484 1.712-1.229 1.712h-1.4v-3.368z" style="fill:#999;fill-rule:evenodd" transform="translate(0 12)"/>
        <path data-name="路径 16096" d="m105.186 0 8.827 8.574-8.528 8.77H.022V0zM87.075 1.962c-3.279 0-5.328 2.761-5.328 6.662 0 4.012 2.049 6.847 5.328 6.847 3.26 0 5.328-2.853 5.328-6.828 0-3.939-2.068-6.681-5.328-6.681zm-75.415.22H3.016V4.17H6.2v11.08h2.255V4.17h3.2zm3.894 0h-2.273V15.25h2.273V9.729h4.08v5.521h2.254V2.182h-2.254v5.559h-4.08zm15.221 0h-6.3V15.25H31v-1.988h-4.249V9.655h3.242V7.667h-3.242V4.17h4.024zm5.98 0h-3.837V15.25h2.272v-4.877h1.434l2.012 4.877h2.5l-2.2-4.859a5.633 5.633 0 0 0-.391-.7v-.036a4.1 4.1 0 0 0 1.937-3.589 3.68 3.68 0 0 0-1.993-3.479 4.163 4.163 0 0 0-1.733-.4zm10.805 0H45.1L41.636 15.25h2.273l.8-3.368h3.241l.82 3.368h2.273zm8.738 0h-3.763V15.25h2.273v-4.509H56.3c2.31 0 3.912-1.748 3.912-4.289s-1.6-4.27-3.912-4.27zm6.837 0h-2.5l3.391 7.6v5.468h2.254V9.784l3.39-7.6h-2.5l-1.445 3.827c-.3.81-.54 1.73-.54 1.73h-.056s-.224-.92-.521-1.73zm17.382 0h-6.129V15.25h2.273V9.931h3.223V7.943h-3.223V4.17h3.856zm17.755 0h-3.837V15.25h2.273v-4.877h1.434l2.012 4.877h2.5l-2.2-4.859a5.633 5.633 0 0 0-.391-.7v-.036A4.1 4.1 0 0 0 102 6.066a3.68 3.68 0 0 0-2-3.479 4.162 4.162 0 0 0-1.732-.4zm-11.2 1.933c1.863 0 2.981 1.748 2.981 4.528 0 2.816-1.118 4.675-2.981 4.675-1.882 0-3-1.841-3-4.694.004-2.742 1.121-4.509 3.003-4.509zm-40.707.35s.2 1.27.391 2.025L47.6 10h-2.517l.857-3.515c.039-.178.081-.384.121-.6l.059-.318c.106-.58.192-1.111.192-1.111zm9.576-.295A2.024 2.024 0 0 1 57.9 6.452a2.025 2.025 0 0 1-1.993 2.3h-1.1V4.17zm-19.506.018a1.958 1.958 0 0 1 1.024.313 2.136 2.136 0 0 1 .708 1.748A1.907 1.907 0 0 1 36.4 8.385h-1.21v-4.2zm61.517 0a1.958 1.958 0 0 1 1.028.312 2.136 2.136 0 0 1 .708 1.748 1.907 1.907 0 0 1-1.77 2.135h-1.211v-4.2z" style="fill:#999;fill-rule:evenodd" transform="translate(0 12)"/>
    </g>
</svg>
