<svg xmlns="http://www.w3.org/2000/svg" width="257.208" height="151.959" viewBox="0 0 257.208 151.959">
    <path data-name="路径 13929" d="M167.783 96.026H117.56V61.67h50.223zm-49.827-.4h49.43V62.067h-49.43z" transform="translate(-91.052 -61.67)" style="fill:#ebebeb"/>
    <path data-name="路径 13930" d="M124.419 65.729a1 1 0 1 1-1-1 1 1 0 0 1 1 1z" transform="translate(-93.985 -63.516)" style="fill:#a6a6a6"/>
    <path data-name="路径 13931" d="M134.709 65.729a1 1 0 1 1-1-1 1 1 0 0 1 1 1z" transform="translate(-100.194 -63.516)" style="fill:#ebebeb"/>
    <path data-name="路径 13932" d="M145 65.729a1 1 0 1 1-1-1 1 1 0 0 1 1 1z" transform="translate(-106.397 -63.516)" style="fill:#ff725e"/>
    <path data-name="矩形 8554" transform="translate(26.706 3.97)" style="fill:#ebebeb" d="M0 0h49.827v.397H0z"/>
    <path data-name="路径 13933" d="M657.907 236.135h-.4v-49.9l10.6-14.467V144.73h.4v27.17l-10.6 14.471z" transform="translate(-416.866 -111.79)" style="fill:#ebebeb"/>
    <path data-name="路径 13934" d="M683 141.794a1.138 1.138 0 1 1 .807-.332 1.142 1.142 0 0 1-.807.332zm0-1.884a.746.746 0 1 0 .746.746.746.746 0 0 0-.746-.746z" transform="translate(-431.56 -108.64)" style="fill:#ebebeb"/>
    <path data-name="路径 13935" d="M664.8 251.22h-.4v-48.149l.036-.056L675 188.6v-18.87h.4v19l-10.6 14.47z" transform="translate(-421.024 -126.875)" style="fill:#ebebeb"/>
    <path data-name="路径 13936" d="M689.886 166.794a1.142 1.142 0 1 1 1.138-1.138 1.142 1.142 0 0 1-1.138 1.138zm0-1.884a.746.746 0 1 0 .742.746.746.746 0 0 0-.742-.745z" transform="translate(-435.711 -123.725)" style="fill:#ebebeb"/>
    <path data-name="矩形 8555" transform="translate(238.014 58.349)" style="fill:#ebebeb" d="M0 0h.397v65.996H0z"/>
    <path data-name="路径 13937" d="M649.636 205.824a1.142 1.142 0 1 1 1.138-1.138 1.142 1.142 0 0 1-1.138 1.138zm0-1.884a.746.746 0 1 0 .742.746.746.746 0 0 0-.742-.746z" transform="translate(-411.424 -147.277)" style="fill:#ebebeb"/>
    <path data-name="路径 13938" d="M633.941 266.5h-.4v-33.493l-7.194-13.575V195.05h.4v24.287l7.194 13.575z" transform="translate(-398.064 -142.154)" style="fill:#ebebeb"/>
    <path data-name="路径 13939" d="M625.1 192.074a1.142 1.142 0 1 1 1.142-1.142 1.142 1.142 0 0 1-1.142 1.142zm0-1.884a.742.742 0 1 0 .527.216.746.746 0 0 0-.527-.216z" transform="translate(-396.622 -138.98)" style="fill:#ebebeb"/>
    <path data-name="路径 13940" d="M625.63 279.164h-.4v-32.036l-8.483-15.007V216.04h.4v15.974l8.483 15.011z" transform="translate(-392.271 -154.819)" style="fill:#ebebeb"/>
    <path data-name="路径 13941" d="M615.506 213.064a1.142 1.142 0 1 1 1.138-1.138 1.142 1.142 0 0 1-1.138 1.138zm0-1.884a.746.746 0 1 0 .742.746.746.746 0 0 0-.742-.746z" transform="translate(-390.829 -151.645)" style="fill:#ebebeb"/>
    <path data-name="路径 13942" d="M79.367 290.442h-.4v-25.976L68.37 250v-15.27h.4v15.138l10.6 14.471z" transform="translate(-61.37 -166.097)" style="fill:#ebebeb"/>
    <path data-name="路径 13943" d="M67.126 231.794a1.142 1.142 0 1 1 1.138-1.138 1.142 1.142 0 0 1-1.138 1.138zm0-1.884a.746.746 0 1 0 .742.746.746.746 0 0 0-.742-.746z" transform="translate(-59.928 -162.947)" style="fill:#ebebeb"/>
    <path data-name="路径 13944" d="M72.477 305.527h-.4V281.3l-10.6-14.467v-7.1h.4v6.967l10.6 14.471z" transform="translate(-57.212 -181.183)" style="fill:#ebebeb"/>
    <path data-name="路径 13945" d="M60.262 256.794a1.142 1.142 0 1 1 1.142-1.138 1.142 1.142 0 0 1-1.142 1.138zm0-1.884a.746.746 0 1 0 .746.746.746.746 0 0 0-.746-.746z" transform="translate(-55.788 -178.033)" style="fill:#ebebeb"/>
    <path data-name="矩形 8556" transform="translate(20.23 82.144)" style="fill:#ebebeb" d="M0 0h.397v42.2H0z"/>
    <path data-name="路径 13946" d="M100.492 265.824a1.142 1.142 0 1 1 1.142-1.138 1.142 1.142 0 0 1-1.142 1.138zm0-1.884a.746.746 0 1 0 .746.746.746.746 0 0 0-.746-.746z" transform="translate(-80.064 -183.482)" style="fill:#ebebeb"/>
    <path data-name="路径 13947" d="M108.517 284.6h-.4v-21.688l.02-.048 7.174-13.527V225.05h.4v24.382l-.02.044-7.174 13.531z" transform="translate(-85.356 -160.256)" style="fill:#ebebeb"/>
    <path data-name="路径 13948" d="M125.022 222.074a1.142 1.142 0 1 1 1.142-1.142 1.142 1.142 0 0 1-1.142 1.142zm0-1.884a.742.742 0 1 0 .527.216.746.746 0 0 0-.527-.215z" transform="translate(-94.865 -157.082)" style="fill:#ebebeb"/>
    <path data-name="路径 13949" d="M114.867 297.267h-.4v-20.242l.024-.048 8.459-14.963V246.04h.4v16.081l-.028.044-8.455 14.963z" transform="translate(-89.187 -172.922)" style="fill:#ebebeb"/>
    <path data-name="路径 13950" d="M134.616 243.064a1.142 1.142 0 1 1 1.138-1.138 1.142 1.142 0 0 1-1.138 1.138zm0-1.884a.746.746 0 1 0 .742.746.746.746 0 0 0-.742-.746z" transform="translate(-100.652 -169.748)" style="fill:#ebebeb"/>
    <path data-name="路径 13951" d="m661.827 102.787 2.776-4.462-1.364-.845a1.241 1.241 0 0 1-.579-1.19 7.932 7.932 0 0 0 .024-.793 1.241 1.241 0 0 1 .65-1.13l1.416-.761-2.526-4.6-1.416.761a1.249 1.249 0 0 1-1.3-.087 5.173 5.173 0 0 0-.666-.4 1.241 1.241 0 0 1-.658-1.13l.052-1.61-5.247-.163-.052 1.614a1.245 1.245 0 0 1-.73 1.087c-.119.056-.234.111-.345.175s-.226.123-.337.19a1.245 1.245 0 0 1-1.3 0l-1.376-.853-2.776 4.462 1.368.853a1.237 1.237 0 0 1 .579 1.19 7.381 7.381 0 0 0-.024.793 1.253 1.253 0 0 1-.654 1.134l-1.392.706 2.483 4.628 1.416-.757a1.249 1.249 0 0 1 1.3.083 7.172 7.172 0 0 0 .666.4 1.241 1.241 0 0 1 .658 1.13l-.048 1.61 5.247.163.052-1.61a1.237 1.237 0 0 1 .73-1.083l.345-.174.337-.194a1.253 1.253 0 0 1 1.309 0zm-4.442-3.311a2.129 2.129 0 1 0-.02 0z" transform="translate(-409.885 -76.58)" style="fill:#ebebeb"/>
    <path data-name="路径 13952" d="m64.822 207.883 3.173-1.84-.563-.976a.869.869 0 0 1 .032-.916 4.715 4.715 0 0 0 .274-.476.877.877 0 0 1 .793-.484h1.126v-3.68H68.53a.876.876 0 0 1-.793-.484 4.717 4.717 0 0 0-.274-.476.869.869 0 0 1-.032-.916l.563-.976-3.173-1.84-.563.98a.861.861 0 0 1-.793.428h-.559a.868.868 0 0 1-.793-.424l-.567-.984-3.173 1.84.563.98a.869.869 0 0 1-.032.916 5.038 5.038 0 0 0-.274.472.876.876 0 0 1-.793.484H56.7v3.68h1.126a.876.876 0 0 1 .793.484 5.045 5.045 0 0 0 .274.472.876.876 0 0 1 .032.92l-.563.976 3.173 1.84.567-.98a.872.872 0 0 1 .793-.428h.543a.877.877 0 0 1 .793.428zm-1.658-3.518a3.01 3.01 0 1 1 2.135-.88 3.014 3.014 0 0 1-2.135.881z" transform="translate(-54.328 -142.015)" style="fill:#ebebeb"/>
    <path data-name="路径 13953" d="m625.222 128.516-1.836-3.173-.972.551a.876.876 0 0 1-.92-.032 4.637 4.637 0 0 0-.476-.274.876.876 0 0 1-.484-.793v-1.125h-3.672v1.13a.876.876 0 0 1-.484.793 5.163 5.163 0 0 0-.48.274.869.869 0 0 1-.916.032l-.976-.563-1.836 3.164.98.563a.884.884 0 0 1 .428.813v.543a.868.868 0 0 1-.428.793l-.98.567 1.836 3.173.98-.563a.868.868 0 0 1 .916.032 5.386 5.386 0 0 0 .476.274.876.876 0 0 1 .484.793v1.126h3.676v-1.126a.876.876 0 0 1 .484-.793q.246-.127.476-.274a.869.869 0 0 1 .916-.032l.98.563 1.836-3.173-.98-.563a.872.872 0 0 1-.424-.793v-.544a.88.88 0 0 1 .428-.813zm-3.518 1.63a3.01 3.01 0 1 1-.88-2.131 3.014 3.014 0 0 1 .876 2.131z" transform="translate(-389.508 -99.082)" style="fill:#ebebeb"/>
    <g>
        <path data-name="路径 13973" d="m50.72 374.888 32.151-.1 32.151-.036 64.3-.067 64.3.067 32.151.036 32.151.1-32.151.1-32.151.032-64.3.067-64.3-.067-32.151-.036z" transform="translate(-50.72 -250.551)" style="fill:#263238"/>
    </g>
    <g>
        <path data-name="矩形 8558" transform="translate(34.756 8.887)" style="fill:#ebebeb" d="M0 0h187.025v125.106H0z"/>
        <path data-name="矩形 8559" transform="translate(36.116 10.414)" style="fill:#263238" d="M0 0h184.304v122.053H0z"/>
        <path data-name="矩形 8560" transform="translate(10.398 143.373)" style="fill:#dbdbdb" d="M0 0h235.741v8.586H0z"/>
        <path data-name="路径 13974" d="m76.94 408.919 24.36-9.379h187.023l24.362 9.379z" transform="translate(-66.542 -265.547)" style="fill:#ebebeb"/>
        <path data-name="路径 13975" d="m143.85 405.592 15.721-6.052H310.8l15.721 6.052z" transform="translate(-106.917 -265.547)" style="fill:#263238"/>
        <path data-name="矩形 8561" transform="translate(46.535 19.686)" style="fill:#fff" d="M0 0h163.476v103.508H0z"/>
        <path data-name="矩形 8562" transform="translate(46.396 19.686)" style="fill:#455a64" d="M0 0h163.615v3.982H0z"/>
        <path data-name="路径 13976" d="M172.685 114.827a.987.987 0 1 1-.988-.988.988.988 0 0 1 .988.988z" transform="translate(-123.124 -93.151)" style="fill:#c7c7c7"/>
        <path data-name="路径 13977" d="M182.855 114.827a.984.984 0 1 1-.288-.7.988.988 0 0 1 .288.7z" transform="translate(-129.261 -93.151)" style="fill:#fff"/>
        <path data-name="路径 13978" d="M192.995 114.827a.984.984 0 1 1-.288-.7.987.987 0 0 1 .288.7z" transform="translate(-135.38 -93.151)" style="fill:#ff725e"/>
        <path data-name="矩形 8563" transform="translate(207.108 23.668)" style="fill:#dbdbdb" d="M0 0h2.903v99.523H0z"/>
        <path data-name="路径 13979" d="M575.459 156.74a.75.75 0 0 1-.75-.75v-32.42a.75.75 0 0 1 .75-.75.75.75 0 0 1 .75.75v32.42a.75.75 0 0 1-.75.75z" transform="translate(-366.904 -98.569)" style="fill:#a6a6a6"/>
    </g>
    <g>
        <path data-name="矩形 8564" transform="translate(70.076 49.481)" style="fill:#fff" d="M0 0h117.056v17.743H0z"/>
        <path data-name="路径 13980" d="M344.372 204.076H226.92V185.94h117.452zm-117.056-.4h116.66v-17.339H227.317z" transform="translate(-157.042 -136.657)" style="fill:#dbdbdb"/>
        <path data-name="路径 13981" d="M252.569 198.56a9.618 9.618 0 0 1 .464 2.03 16.088 16.088 0 0 1 0 4.065 9.684 9.684 0 0 1-.468 2.03 9.443 9.443 0 0 1-.468-2.03 16.34 16.34 0 0 1 0-4.065 9.883 9.883 0 0 1 .472-2.03z" transform="translate(-172.158 -144.272)" style="fill:#37474f"/>
        <path data-name="路径 13982" d="M251.356 207.907a9.334 9.334 0 0 1-2.03.476 15.86 15.86 0 0 1-2.031.127 15.128 15.128 0 0 1-2.031-.127 9.422 9.422 0 0 1-2.034-.468 9.915 9.915 0 0 1 2.034-.468 15.816 15.816 0 0 1 2.031-.127 16.625 16.625 0 0 1 2.031.131 9.562 9.562 0 0 1 2.03.456z" transform="translate(-166.884 -149.558)" style="fill:#37474f"/>
        <path data-name="路径 13983" d="M251.976 201.56a9.687 9.687 0 0 1-1.106 1.765 15.469 15.469 0 0 1-1.344 1.527A15.934 15.934 0 0 1 248 206.2a9.719 9.719 0 0 1-1.769 1.106 9.718 9.718 0 0 1 1.106-1.769 15.93 15.93 0 0 1 1.348-1.527 16.451 16.451 0 0 1 1.527-1.344 9.825 9.825 0 0 1 1.765-1.106z" transform="translate(-168.694 -146.082)" style="fill:#37474f"/>
        <path data-name="路径 13984" d="M251.964 207.294a9.824 9.824 0 0 1-1.765-1.106 15.926 15.926 0 0 1-1.527-1.348 15.418 15.418 0 0 1-1.356-1.531 9.719 9.719 0 0 1-1.106-1.769 9.518 9.518 0 0 1 1.769 1.106 15.89 15.89 0 0 1 2.871 2.875 9.688 9.688 0 0 1 1.114 1.773z" transform="translate(-168.682 -146.07)" style="fill:#37474f"/>
        <path data-name="路径 13985" d="M292.515 198.56a9.62 9.62 0 0 1 .464 2.03 16.662 16.662 0 0 1 .131 2.031 15.927 15.927 0 0 1-.127 2.034 9.942 9.942 0 0 1-.468 2.03 9.443 9.443 0 0 1-.468-2.03 15.233 15.233 0 0 1-.127-2.034 15.91 15.91 0 0 1 .127-2.031 9.628 9.628 0 0 1 .468-2.03z" transform="translate(-196.264 -144.272)" style="fill:#37474f"/>
        <path data-name="路径 13986" d="M291.3 207.895a9.393 9.393 0 0 1-2.031.468 15.907 15.907 0 0 1-2.031.127 15.236 15.236 0 0 1-2.034-.127 9.443 9.443 0 0 1-2.03-.468 9.943 9.943 0 0 1 2.03-.468 15.925 15.925 0 0 1 2.034-.127 16.658 16.658 0 0 1 2.031.131 9.618 9.618 0 0 1 2.031.464z" transform="translate(-190.984 -149.546)" style="fill:#37474f"/>
        <path data-name="路径 13987" d="M291.917 201.56a9.69 9.69 0 0 1-1.107 1.765 15.465 15.465 0 0 1-1.344 1.527 15.926 15.926 0 0 1-1.527 1.348 9.719 9.719 0 0 1-1.769 1.106 9.718 9.718 0 0 1 1.106-1.769 15.924 15.924 0 0 1 1.348-1.527 15.47 15.47 0 0 1 1.527-1.344 9.687 9.687 0 0 1 1.765-1.106z" transform="translate(-192.794 -146.082)" style="fill:#37474f"/>
        <path data-name="路径 13988" d="M291.941 207.294a9.688 9.688 0 0 1-1.765-1.106 15.021 15.021 0 0 1-1.527-1.348 15.413 15.413 0 0 1-1.333-1.531 9.72 9.72 0 0 1-1.106-1.769 9.518 9.518 0 0 1 1.769 1.106 15.89 15.89 0 0 1 2.871 2.875 9.688 9.688 0 0 1 1.091 1.773z" transform="translate(-192.819 -146.07)" style="fill:#37474f"/>
        <path data-name="路径 13989" d="M332.445 198.56a9.4 9.4 0 0 1 .468 2.031 15.91 15.91 0 0 1 .127 2.031 15.233 15.233 0 0 1-.127 2.034 9.444 9.444 0 0 1-.468 2.03 9.672 9.672 0 0 1-.464-2.031 15.923 15.923 0 0 1-.131-2.034 16.655 16.655 0 0 1 .131-2.031 9.618 9.618 0 0 1 .464-2.031z" transform="translate(-220.358 -144.272)" style="fill:#37474f"/>
        <path data-name="路径 13990" d="M331.236 207.895a9.445 9.445 0 0 1-2.031.468 15.921 15.921 0 0 1-2.034.127 15.214 15.214 0 0 1-2.03-.127 9.393 9.393 0 0 1-2.031-.468 9.881 9.881 0 0 1 2.031-.468 15.912 15.912 0 0 1 2.03-.127 16.684 16.684 0 0 1 2.034.131 9.673 9.673 0 0 1 2.031.464z" transform="translate(-215.085 -149.546)" style="fill:#37474f"/>
        <path data-name="路径 13991" d="M331.857 201.56a9.689 9.689 0 0 1-1.107 1.765 15.465 15.465 0 0 1-1.344 1.527 15.922 15.922 0 0 1-1.527 1.348 9.719 9.719 0 0 1-1.769 1.106 9.518 9.518 0 0 1 1.106-1.769 16.455 16.455 0 0 1 1.344-1.527 16.008 16.008 0 0 1 1.531-1.344 9.688 9.688 0 0 1 1.766-1.106z" transform="translate(-216.895 -146.082)" style="fill:#37474f"/>
        <path data-name="路径 13992" d="M331.857 207.294a9.687 9.687 0 0 1-1.765-1.106 15.505 15.505 0 0 1-1.531-1.348 15.905 15.905 0 0 1-1.344-1.531 9.518 9.518 0 0 1-1.106-1.769 9.516 9.516 0 0 1 1.769 1.106 15.89 15.89 0 0 1 2.871 2.875 9.689 9.689 0 0 1 1.106 1.773z" transform="translate(-216.895 -146.07)" style="fill:#37474f"/>
        <path data-name="路径 13993" d="M372.385 198.56a9.628 9.628 0 0 1 .468 2.031 16.34 16.34 0 0 1 0 4.065 9.439 9.439 0 0 1-.468 2.03 9.686 9.686 0 0 1-.468-2.03 15.922 15.922 0 0 1-.127-2.035 16.662 16.662 0 0 1 .131-2.031 9.616 9.616 0 0 1 .464-2.031z" transform="translate(-244.459 -144.272)" style="fill:#37474f"/>
        <path data-name="路径 13994" d="M371.176 207.895a9.444 9.444 0 0 1-2.03.468 15.921 15.921 0 0 1-2.034.127 15.215 15.215 0 0 1-2.031-.127 9.393 9.393 0 0 1-2.031-.468 9.882 9.882 0 0 1 2.031-.468 15.913 15.913 0 0 1 2.031-.127 16.686 16.686 0 0 1 2.034.131 9.673 9.673 0 0 1 2.03.464z" transform="translate(-239.185 -149.546)" style="fill:#37474f"/>
        <path data-name="路径 13995" d="M371.8 201.56a9.689 9.689 0 0 1-1.107 1.765 15.518 15.518 0 0 1-1.348 1.527 15.024 15.024 0 0 1-1.527 1.348 9.687 9.687 0 0 1-1.765 1.106 9.3 9.3 0 0 1 1.106-1.769 15.883 15.883 0 0 1 1.344-1.527 16.451 16.451 0 0 1 1.527-1.344 9.859 9.859 0 0 1 1.77-1.106z" transform="translate(-240.995 -146.082)" style="fill:#37474f"/>
        <path data-name="路径 13996" d="M371.8 207.307a9.858 9.858 0 0 1-1.769-1.106 15.922 15.922 0 0 1-1.527-1.348 15.372 15.372 0 0 1-1.344-1.523 9.3 9.3 0 0 1-1.106-1.769 9.474 9.474 0 0 1 1.765 1.106 14.982 14.982 0 0 1 1.527 1.344 16.037 16.037 0 0 1 1.348 1.531 9.689 9.689 0 0 1 1.106 1.765z" transform="translate(-240.995 -146.082)" style="fill:#37474f"/>
        <path data-name="路径 13997" d="M412.322 198.56a9.881 9.881 0 0 1 .468 2.031 16.338 16.338 0 0 1 0 4.065 9.441 9.441 0 0 1-.468 2.03 9.687 9.687 0 0 1-.468-2.03 16.092 16.092 0 0 1 0-4.065 9.62 9.62 0 0 1 .468-2.031z" transform="translate(-268.556 -144.272)" style="fill:#37474f"/>
        <path data-name="路径 13998" d="M411.122 207.895a9.422 9.422 0 0 1-2.034.468 15.816 15.816 0 0 1-2.031.127 15.173 15.173 0 0 1-2.031-.127 9.336 9.336 0 0 1-2.027-.468 9.824 9.824 0 0 1 2.031-.468 15.865 15.865 0 0 1 2.031-.127 16.57 16.57 0 0 1 2.03.131 9.651 9.651 0 0 1 2.031.464z" transform="translate(-263.292 -149.546)" style="fill:#37474f"/>
        <path data-name="路径 13999" d="M411.737 201.56a9.491 9.491 0 0 1-1.11 1.765 16.24 16.24 0 0 1-2.871 2.875 9.691 9.691 0 0 1-1.765 1.106 9.3 9.3 0 0 1 1.106-1.769 15.883 15.883 0 0 1 1.344-1.527 16.447 16.447 0 0 1 1.527-1.344 9.722 9.722 0 0 1 1.769-1.106z" transform="translate(-265.096 -146.082)" style="fill:#37474f"/>
        <path data-name="路径 14000" d="M411.736 207.307a9.72 9.72 0 0 1-1.769-1.106 15.922 15.922 0 0 1-1.527-1.348 15.376 15.376 0 0 1-1.344-1.523 9.3 9.3 0 0 1-1.106-1.769 9.474 9.474 0 0 1 1.765 1.106 14.984 14.984 0 0 1 1.527 1.344 15.463 15.463 0 0 1 1.344 1.531 9.492 9.492 0 0 1 1.11 1.765z" transform="translate(-265.096 -146.082)" style="fill:#37474f"/>
        <path data-name="路径 14001" d="M452.259 198.56a9.624 9.624 0 0 1 .464 2.03 16.094 16.094 0 0 1 0 4.065 9.684 9.684 0 0 1-.468 2.031 9.445 9.445 0 0 1-.468-2.031 16.338 16.338 0 0 1 0-4.065 9.881 9.881 0 0 1 .472-2.031z" transform="translate(-292.654 -144.272)" style="fill:#37474f"/>
        <path data-name="路径 14002" d="M451.046 207.895a9.336 9.336 0 0 1-2.031.468 15.86 15.86 0 0 1-2.031.127 15.129 15.129 0 0 1-2.031-.127 9.42 9.42 0 0 1-2.034-.468 9.916 9.916 0 0 1 2.035-.468 15.815 15.815 0 0 1 2.03-.127 16.619 16.619 0 0 1 2.031.131 9.562 9.562 0 0 1 2.031.464z" transform="translate(-287.38 -149.546)" style="fill:#37474f"/>
        <path data-name="路径 14003" d="M451.672 201.56a9.277 9.277 0 0 1-1.106 1.765 15 15 0 0 1-1.344 1.527 15.922 15.922 0 0 1-1.527 1.348 9.823 9.823 0 0 1-1.765 1.106 9.494 9.494 0 0 1 1.1-1.769 16.24 16.24 0 0 1 2.875-2.871 9.823 9.823 0 0 1 1.767-1.106z" transform="translate(-289.196 -146.082)" style="fill:#37474f"/>
        <path data-name="路径 14004" d="M451.673 207.307a9.823 9.823 0 0 1-1.765-1.106 16.6 16.6 0 0 1-2.875-2.871 9.491 9.491 0 0 1-1.1-1.769 9.61 9.61 0 0 1 1.765 1.106 15.883 15.883 0 0 1 1.527 1.344 15.468 15.468 0 0 1 1.344 1.531 9.274 9.274 0 0 1 1.104 1.765z" transform="translate(-289.196 -146.082)" style="fill:#37474f"/>
    </g>
    <g>
        <path data-name="路径 14005" d="M364.561 167.32v21.6h-6.1v-21.6c0-8.213-6.238-14.892-13.912-14.892s-13.912 6.678-13.912 14.892v21.6h-6.1v-21.6c0-11.763 8.979-21.32 20.016-21.32s20.008 9.558 20.008 21.32z" transform="translate(-215.941 -112.556)" style="fill:#455a64"/>
        <path data-name="路径 14006" d="m324.53 213.92 6.1.246V229.9h-6.1z" transform="translate(-215.941 -153.54)" style="fill:#263238"/>
        <path data-name="路径 14007" d="M416.183 217.65V232h-6.1v-14.6z" transform="translate(-267.564 -155.64)" style="fill:#263238"/>
        <path data-name="矩形 8565" transform="translate(100.768 64.064)" style="fill:#ff725e" d="M0 0h55.676v50.513H0z"/>
        <path data-name="矩形 8566" transform="translate(128.604 64.064)" style="opacity:.1" d="M0 0h27.836v50.513H0z"/>
        <path data-name="路径 14008" d="m369.433 277.649 2.328 11.053h-9.891l2.332-11.053a4.945 4.945 0 1 1 5.231 0z" transform="translate(-238.473 -186.479)" style="fill:#263238"/>
    </g>
    <g transform="translate(72.583 78.175)">
        <path data-name="路径 14009" d="M273.589 271.766s-2.911 23.3-7.694 28.554c-5.743 6.29-9.915 5.37-12.231 8.614-2.316-3.248-6.484-2.324-12.235-8.618-4.783-5.247-7.69-28.554-7.69-28.554a87.549 87.549 0 0 0 19.932-12.972 86.923 86.923 0 0 0 19.918 12.976z" transform="translate(-233.74 -258.79)" style="fill:#ebebeb"/>
        <path data-name="路径 14010" d="M253.684 258.794v50.136c-2.316-3.248-6.484-2.324-12.235-8.618-4.783-5.247-7.69-28.554-7.69-28.554a87.516 87.516 0 0 0 19.924-12.968z" transform="translate(-233.752 -258.79)" style="fill:#dbdbdb"/>
        <path data-name="路径 14011" d="M275.2 279.566s-2.459 19.682-6.5 24.116c-4.858 5.322-8.38 4.541-10.339 7.281-1.959-2.74-5.481-1.959-10.335-7.281-4.041-4.434-6.5-24.116-6.5-24.116a73.211 73.211 0 0 0 16.835-10.966 74.02 74.02 0 0 0 16.839 10.966z" transform="translate(-238.441 -264.71)" style="fill:#dbdbdb"/>
        <path data-name="路径 14012" d="M241.54 279.578s2.459 19.682 6.5 24.116c4.85 5.318 8.356 4.541 10.339 7.273V268.62a74.309 74.309 0 0 1-16.839 10.958z" transform="translate(-238.447 -264.722)" style="fill:#c7c7c7"/>
        <circle data-name="椭圆 506" cx="7.805" cy="7.805" r="7.805" transform="rotate(-45 34.71 1.809)" style="fill:#ff725e"/>
        <path data-name="路径 14013" d="m276.448 320.8-3.478-3.617 1.289-1.241 1.915 1.995 4.132-6.337 1.5.976z" transform="translate(-257.412 -290.656)" style="fill:#fff"/>
    </g>
    <g transform="translate(43.487 110.533)">
        <path data-name="路径 14014" d="M0 0h4.83v56.426a1.943 1.943 0 0 1-1.943 1.943h-.944A1.943 1.943 0 0 1 0 56.426z" transform="rotate(-78.95 22.982 -3.585)" style="fill:#ff725e"/>
        <path data-name="矩形 8567" transform="rotate(-78.95 22.979 -3.583)" style="opacity:.1" d="M0 0h4.834v6.813H0z"/>
        <path data-name="路径 14015" d="m162.208 349.25-1.63 8.431a10.966 10.966 0 1 0 21.527 4.2l1.642-8.412a10.974 10.974 0 1 0-21.538-4.22zm18.08 2.106a6.234 6.234 0 0 1-5.374 4.739 6.236 6.236 0 0 1 3.2 6.413c-.65 3.347-4.343 5.449-8.241 4.688s-6.52-4.1-5.865-7.44a6.28 6.28 0 0 1 5.374-4.756 6.233 6.233 0 0 1-3.2-6.413c.654-3.351 4.339-5.445 8.233-4.684s6.544 4.109 5.889 7.456z" transform="translate(-160.373 -340.384)" style="fill:#ff725e"/>
        <rect data-name="矩形 8568" width="10.981" height="2.229" rx="1.114" transform="rotate(-78.95 24.515 -1.715)" style="fill:#ff725e"/>
        <rect data-name="矩形 8569" width="10.981" height="2.229" rx="1.114" transform="rotate(-78.95 25.869 -2.83)" style="fill:#ff725e"/>
        <path data-name="路径 14016" d="m321.009 385.721 1.65.321.932-4.791 1.412.274-.488 2.5 1.646.321.488-2.5 1.249.242-.773 3.95 1.65.325.773-3.95 1.769.345-1.027 5.275 1.65.321 1.031-5.275 1.674.329-1.317 6.742-14.737-2.879 1.313-6.742 2.038.4z" transform="translate(-255.844 -364.609)" style="fill:#ff725e"/>
    </g>
</svg>
