<svg width="18" height="18" viewBox="0 0 18 18" fill="none" xmlns="http://www.w3.org/2000/svg">
<path d="M11 10C10.0111 10 9.0444 9.70676 8.22215 9.15735C7.39991 8.60794 6.75904 7.82705 6.3806 6.91342C6.00217 5.99979 5.90315 4.99446 6.09608 4.02455C6.289 3.05465 6.76521 2.16373 7.46447 1.46447C8.16373 0.765206 9.05465 0.289002 10.0246 0.0960759C10.9945 -0.0968503 11.9998 0.00216642 12.9134 0.380605C13.8271 0.759043 14.6079 1.39991 15.1573 2.22215C15.7068 3.0444 16 4.0111 16 5C15.9984 6.3256 15.4711 7.59644 14.5338 8.53378C13.5964 9.47112 12.3256 9.99841 11 10ZM11 2.159C10.4381 2.159 9.88883 2.32562 9.42163 2.6378C8.95443 2.94997 8.59029 3.39367 8.37526 3.9128C8.16023 4.43192 8.10397 5.00315 8.21359 5.55425C8.32321 6.10535 8.59379 6.61157 8.99111 7.00889C9.38843 7.40621 9.89465 7.67679 10.4458 7.78641C10.9969 7.89603 11.5681 7.83977 12.0872 7.62474C12.6063 7.40972 13.05 7.04558 13.3622 6.57838C13.6744 6.11118 13.841 5.5619 13.841 5C13.8402 4.24677 13.5406 3.52461 13.008 2.99199C12.4754 2.45937 11.7532 2.1598 11 2.159Z" fill="#69D7C4"/>
<path d="M11.0524 9.05347L9.27899 8.578L7.95281 13.5243L9.72618 13.9998L11.0524 9.05347Z" fill="#69D7C4"/>
<path d="M16 13H2C1.44772 13 1 13.4477 1 14C1 14.5523 1.44772 15 2 15H16C16.5523 15 17 14.5523 17 14C17 13.4477 16.5523 13 16 13Z" fill="#69D7C4"/>
<path d="M14 16H4C3.44772 16 3 16.4477 3 17C3 17.5523 3.44772 18 4 18H14C14.5523 18 15 17.5523 15 17C15 16.4477 14.5523 16 14 16Z" fill="#69D7C4"/>
</svg>
