<svg width="22" height="18" viewBox="0 0 22 18" fill="none" xmlns="http://www.w3.org/2000/svg">
<path d="M17.8736 5.20494C17.7544 5.92087 17.6483 6.55484 17.4956 7.4691C17.4601 6.975 17.0881 5.40212 16.4699 3.56213C16.2155 2.80435 15.919 2.00129 15.587 1.21026C14.7298 -0.832644 12.6833 0.177346 11.6384 0.874365C11.256 1.12944 10.7402 1.13517 10.3501 0.889841C9.28884 0.22091 7.21554 -0.729467 6.35613 1.34841C6.04705 2.09529 5.77079 2.84849 5.53063 3.5627C4.91193 5.4027 4.54048 6.97557 4.50438 7.46968C4.35175 6.55541 4.24617 5.92145 4.12637 5.20551C1.6116 5.55001 0 6.2178 0 7.45764C0 9.62551 4.92505 12.26 11 12.26C17.0749 12.26 22 9.62551 22 7.45764C22 6.2178 20.3884 5.55001 17.8736 5.20494Z" fill="#F8542F"/>
<path d="M17.9962 12.8978C16.133 12.4117 13.4738 12.6639 12.3786 13.0428C11.9459 13.1924 11.4344 13.4051 10.9995 13.4051C10.5646 13.4051 10.0537 13.1924 9.6204 13.0428C8.52522 12.6639 5.86603 12.4117 4.00279 12.8978C3.79437 12.9522 3.65323 13.1534 3.66472 13.3775L3.68277 13.7243C3.69207 13.8969 3.7971 14.0419 3.9448 14.1175C4.02631 14.1588 4.10728 14.2396 4.15213 14.3961C4.26318 14.7871 4.52303 16.3966 4.99787 17.0254C5.58813 17.8067 6.85728 17.8365 7.71614 17.7981C8.87205 17.7459 9.62916 17.2077 9.95191 16.2963C10.2752 15.3855 10.4574 14.6048 10.6642 14.3571C10.7763 14.2236 10.9021 14.2144 11.0001 14.2144C11.098 14.2144 11.2238 14.2236 11.3359 14.3571C11.5427 14.6048 11.7243 15.3861 12.0482 16.2963C12.371 17.2077 13.1281 17.7459 14.284 17.7981C15.1428 17.8365 16.4125 17.8061 17.0022 17.0254C17.4771 16.3966 17.7369 14.7871 17.848 14.3961C17.8928 14.2396 17.9738 14.1588 18.0553 14.1175C18.203 14.0419 18.308 13.8969 18.3173 13.7243L18.3354 13.3775C18.3469 13.1534 18.2057 12.9522 17.9973 12.8978H17.9962ZM5.78616 14.2717C5.575 14.4311 5.42128 14.6048 5.31625 14.7469C5.25717 14.8272 5.13572 14.783 5.13572 14.6816V14.3405C5.13572 14.0207 5.38299 13.7616 5.68824 13.7616H6.96121C6.96121 13.7616 6.16307 13.988 5.78671 14.2717H5.78616ZM13.3064 14.2717C13.0952 14.4311 12.9415 14.6048 12.8365 14.7469C12.7774 14.8272 12.656 14.783 12.656 14.6816V14.3405C12.656 14.0207 12.9032 13.7616 13.2085 13.7616H14.4815C14.4815 13.7616 13.6833 13.988 13.3069 14.2717H13.3064Z" fill="#76808F"/>
</svg>
