<svg data-name="组 8295" xmlns="http://www.w3.org/2000/svg" width="22" height="22" viewBox="0 0 22 22">
    <path data-name="矩形 1960" style="fill:none" d="M0 0h22v22H0z"/>
    <g data-name="组 8554">
        <path data-name="路径 13958" d="M618.421 379.9a4.513 4.513 0 0 0-2.229.587 6.062 6.062 0 0 1 .171.629 3.782 3.782 0 0 1 2.059-.6 3.9 3.9 0 1 1-3.125 6.24c-.117.181-.256.352-.384.523a4.531 4.531 0 1 0 3.509-7.381z" transform="translate(-601.779 -370.915)" style="fill:#76808f"/>
        <path data-name="路径 13959" d="M30.272 191.488a6.72 6.72 0 1 0 6.72 6.72 6.719 6.719 0 0 0-6.72-6.72zm0 12.522a5.792 5.792 0 1 1 5.792-5.792 5.8 5.8 0 0 1-5.792 5.792z" transform="translate(-22.739 -186.424)" style="fill:#f8542f"/>
    </g>
    <path data-name="路径 13960" d="M126.613 129.525a3.28 3.28 0 1 0-1.941-5.92 6.517 6.517 0 0 1 .064.917 7.046 7.046 0 0 1-.9 3.467 3.272 3.272 0 0 0 2.777 1.536zm-.224-2.987c-.651-.213-1.088-.523-1.088-1.109a1.1 1.1 0 0 1 1.024-1.077v-.576h.6v.533a2.21 2.21 0 0 1 .885.2l-.181.683a1.857 1.857 0 0 0-.875-.213c-.395 0-.523.171-.523.341 0 .192.213.331.736.512.715.256 1 .587 1 1.141a1.136 1.136 0 0 1-1.067 1.109v.619h-.608v-.576a2.518 2.518 0 0 1-1.024-.256l.181-.7a2.136 2.136 0 0 0 1 .267c.352 0 .587-.139.587-.373s-.199-.375-.647-.525zm-8.885-6.89a4.864 4.864 0 1 0 4.875 4.864 4.869 4.869 0 0 0-4.879-4.864zm.416 7.605v.928h-.885v-.853a3.977 3.977 0 0 1-1.525-.384l.267-1.056a3.2 3.2 0 0 0 1.493.395c.523 0 .875-.2.875-.555s-.288-.555-.96-.779c-.96-.32-1.621-.768-1.621-1.643a1.646 1.646 0 0 1 1.515-1.6v-.853h.885v.789a3.215 3.215 0 0 1 1.312.3l-.267 1.013a2.832 2.832 0 0 0-1.291-.309c-.587 0-.768.256-.768.512 0 .288.309.48 1.088.768 1.067.373 1.493.875 1.493 1.685a1.733 1.733 0 0 1-1.611 1.642zm7.584-5.866a2.581 2.581 0 1 0-2.581-2.581 2.577 2.577 0 0 0 2.577 2.581zm0-4.811a2.229 2.229 0 1 1-2.229 2.229 2.235 2.235 0 0 1 2.225-2.229z" transform="translate(-109.971 -112.728)" style="fill:#f8542f"/>
    <path data-name="路径 13961" d="M641.877 154.261a1.867 1.867 0 1 0-1.877-1.866 1.869 1.869 0 0 0 1.877 1.866zm-.128-1.7c-.373-.128-.619-.3-.619-.629a.639.639 0 0 1 .587-.619v-.331h.341v.309a1.328 1.328 0 0 1 .5.117l-.107.395a1.058 1.058 0 0 0-.5-.117c-.224 0-.3.1-.3.192s.117.192.416.3c.416.149.576.331.576.651a.661.661 0 0 1-.608.64v.352h-.335v-.352a1.383 1.383 0 0 1-.587-.149l.107-.405a1.308 1.308 0 0 0 .576.149c.2 0 .331-.075.331-.213s-.111-.2-.378-.286z" transform="translate(-626.346 -146.317)" style="fill:#76808f"/>
    <path data-name="路径 13962" d="M126.613 129.525a3.28 3.28 0 1 0-1.941-5.92 6.517 6.517 0 0 1 .064.917 7.046 7.046 0 0 1-.9 3.467 3.272 3.272 0 0 0 2.777 1.536zm-.224-2.987c-.651-.213-1.088-.523-1.088-1.109a1.1 1.1 0 0 1 1.024-1.077v-.576h.6v.533a2.21 2.21 0 0 1 .885.2l-.181.683a1.857 1.857 0 0 0-.875-.213c-.395 0-.523.171-.523.341 0 .192.213.331.736.512.715.256 1 .587 1 1.141a1.136 1.136 0 0 1-1.067 1.109v.619h-.608v-.576a2.518 2.518 0 0 1-1.024-.256l.181-.7a2.136 2.136 0 0 0 1 .267c.352 0 .587-.139.587-.373s-.199-.375-.647-.525zm-.885-5.152a2.581 2.581 0 1 0-2.581-2.581 2.577 2.577 0 0 0 2.577 2.582zm0-4.811a2.229 2.229 0 1 1-2.229 2.229 2.235 2.235 0 0 1 2.225-2.228z" transform="translate(-109.971 -112.728)" style="fill:#76808f"/>
</svg>
