<svg data-name="组 8295" xmlns="http://www.w3.org/2000/svg" width="22" height="22" viewBox="0 0 22 22">
    <path data-name="矩形 1960" style="fill:none" d="M0 0h22v22H0z"/>
    <g data-name="组 8502" transform="translate(-37.482 -286.744)">
        <circle data-name="椭圆 506" cx="3.781" cy="3.781" r="3.781" transform="translate(44.699 292.565)" style="fill:#f85733"/>
        <g data-name="组 8502">
            <path data-name="路径 13949" d="M43.687 302.2c.086.07.176.132.264.2.109.082.216.167.33.242s.217.133.327.2.2.125.307.182.227.11.34.164.218.106.331.153.222.082.335.122.241.09.364.127.224.058.336.087.252.068.382.093.259.041.39.059c.114.016.226.038.341.049q.363.036.727.037h.018a7.546 7.546 0 0 0 5.849-2.77c.07-.085.13-.175.2-.263.083-.11.167-.217.244-.332s.132-.215.2-.324.127-.2.184-.311.11-.225.163-.338.107-.219.154-.332.082-.222.122-.335.09-.241.127-.364.058-.224.087-.336.068-.252.093-.382.041-.259.059-.39c.016-.114.038-.226.049-.341q.036-.363.037-.727v-.018a7.546 7.546 0 0 0-2.77-5.848c-.085-.07-.174-.13-.26-.195-.11-.083-.219-.169-.334-.246s-.215-.132-.324-.2-.2-.127-.311-.184-.225-.11-.338-.163-.219-.107-.332-.154-.222-.082-.335-.122-.241-.09-.364-.127-.224-.058-.336-.087-.252-.068-.382-.093-.259-.041-.39-.059c-.114-.016-.226-.038-.341-.049q-.363-.036-.727-.037h-.018a7.547 7.547 0 0 0-5.849 2.77c-.07.085-.13.174-.195.26-.083.11-.169.219-.246.334s-.132.216-.2.324-.127.2-.184.311-.109.224-.162.337-.108.22-.155.334-.082.221-.122.332-.09.242-.128.366-.058.224-.087.336-.068.252-.093.382-.041.259-.059.39c-.016.114-.038.226-.049.341q-.036.363-.037.727v.018a7.545 7.545 0 0 0 2.768 5.85zm-.554-5.848a5.33 5.33 0 0 1 1.566-3.781l-.981-.981a6.716 6.716 0 0 1 4.761-1.976V291a5.33 5.33 0 0 1 3.781 1.566l.981-.981a6.716 6.716 0 0 1 1.976 4.761h-1.39a5.33 5.33 0 0 1-1.566 3.781l.981.981a6.716 6.716 0 0 1-4.761 1.975v-1.39a5.33 5.33 0 0 1-3.781-1.566l-.981.981a6.716 6.716 0 0 1-1.976-4.761z" style="fill:#f85733"/>
            <path data-name="路径 13957" d="M48.485 364.847a7.562 7.562 0 0 1-7.563-7.563v1.974a7.563 7.563 0 0 0 15.125 0v-1.974a7.563 7.563 0 0 1-7.562 7.563z" transform="translate(-.004 -60.117)" style="fill:#76808f"/>
        </g>
    </g>
</svg>
