<svg data-name="组 8295" xmlns="http://www.w3.org/2000/svg" width="22" height="22" viewBox="0 0 22 22">
    <defs>
        <linearGradient id="mn086y9iia" x1=".5" x2=".5" y2="1" gradientUnits="objectBoundingBox">
            <stop offset="0" stop-color="#fb6943"/>
            <stop offset="1" stop-color="#f74c28"/>
        </linearGradient>
    </defs>
    <path data-name="矩形 1960" style="fill:none" d="M0 0h22v22H0z"/>
    <path data-name="路径 13734" d="M75.186 70.836h4.972a1.241 1.241 0 0 1 1.242 1.243v8.079a1.241 1.241 0 0 1-1.243 1.242h-8.078a1.241 1.241 0 0 1-1.243-1.243v-4.971h2.486a1.861 1.861 0 0 0 1.864-1.864zM64 65.243A1.241 1.241 0 0 1 65.243 64h8.079a1.241 1.241 0 0 1 1.243 1.243v8.079a1.241 1.241 0 0 1-1.243 1.243h-8.079A1.241 1.241 0 0 1 64 73.322zm2.486 5.365h.907v-.481H68.7v2.3h.961v-2.3H71v.4h.988v-3.044h-2.325v-.667a1.428 1.428 0 0 1 .081-.507.2.2 0 0 0 .026-.081c0-.017-.062-.035-.186-.053h-.909v1.308h-2.189zm.907-2.376H68.7v1.175h-1.306v-1.175zM71 69.406h-1.337v-1.174H71v1.175zm3.959 9.477.374-1.042h1.949l.374 1.042h1.068l-1.736-4.94h-1.256l-1.789 4.941h1.015zm.641-1.869.721-2.109h.027l.667 2.109z" transform="translate(-61.7 -61.7)" style="fill:url(#mn086y9iia)"/>
    <path data-name="路径 13735" d="M79.66 68.474h-1.243a2.486 2.486 0 0 0-2.486-2.486v-1.243a3.729 3.729 0 0 1 3.729 3.729zm-14.915 7.458h1.243a2.486 2.486 0 0 0 2.486 2.486v1.242a3.729 3.729 0 0 1-3.729-3.728z" transform="translate(-61.203 -61.203)" style="fill:#76808f"/>
</svg>
