<svg xmlns="http://www.w3.org/2000/svg" width="343" height="100" viewBox="0 0 343 100">
    <g data-name="组 7581">
        <g data-name="减去 29" style="fill:rgba(244,237,237,.4)">
            <path d="M340.09 99.5H2.91C1.58 99.5.5 98.492.5 97.253V63.557c1.21-1.754 2.161-3.784 2.83-6.036.708-2.383 1.067-4.913 1.067-7.52 0-2.608-.36-5.138-1.067-7.521-.669-2.253-1.62-4.283-2.83-6.037V2.747C.5 1.507 1.58.5 2.909.5H340.09c1.328 0 2.409 1.008 2.409 2.247v32.649c-2.975 3.689-4.678 9-4.678 14.604 0 5.605 1.703 10.915 4.678 14.604v32.65c0 1.238-1.08 2.246-2.41 2.246z" style="stroke:none"/>
            <path d="M340.09 99c1.053 0 1.91-.784 1.91-1.747V64.78c-2.977-3.77-4.678-9.132-4.678-14.78 0-5.647 1.7-11.009 4.678-14.78V2.748c0-.963-.857-1.747-1.91-1.747H2.91C1.856 1 1 1.784 1 2.747v33.542c1.198 1.767 2.142 3.8 2.81 6.048.72 2.43 1.087 5.008 1.087 7.663 0 2.656-.366 5.234-1.087 7.663-.668 2.248-1.613 4.281-2.81 6.048v33.542C1 98.216 1.856 99 2.909 99H340.09m0 1H2.909C1.305 100 0 98.768 0 97.253V63.4c1.222-1.739 2.18-3.765 2.851-6.022.694-2.336 1.046-4.819 1.046-7.378s-.352-5.041-1.046-7.378C2.181 40.365 1.221 38.339 0 36.6V2.747C0 1.232 1.305 0 2.909 0H340.09C341.695 0 343 1.232 343 2.747v32.827c-2.973 3.606-4.678 8.864-4.678 14.426 0 5.562 1.705 10.82 4.678 14.427v32.826c0 1.515-1.305 2.747-2.91 2.747z" style="fill:#fb6943;stroke:none"/>
        </g>
    </g>
</svg>
