<svg width="32" height="32" viewBox="0 0 32 32" fill="none" xmlns="http://www.w3.org/2000/svg">
<path opacity="0.8" d="M7.29383 24.7334C7.4756 24.9044 7.71577 24.9997 7.96533 24.9997C8.2149 24.9997 8.45506 24.9044 8.63684 24.7334L12.0318 21.3844V24.0904C12.0294 24.183 12.0458 24.2752 12.0801 24.3612C12.1144 24.4473 12.1658 24.5254 12.2313 24.5909C12.2968 24.6564 12.375 24.7079 12.4611 24.7422C12.5471 24.7765 12.6392 24.7929 12.7318 24.7904H13.2258C13.3116 24.7992 13.3983 24.7905 13.4806 24.7647C13.5629 24.739 13.6391 24.6968 13.7046 24.6406C13.7701 24.5845 13.8234 24.5157 13.8615 24.4383C13.8995 24.3609 13.9214 24.2766 13.9258 24.1904V18.8734C13.9301 18.6952 13.8779 18.5202 13.7768 18.3734C13.6424 18.2483 13.4665 18.1771 13.2828 18.1734H12.9378L8.00283 18.1274C7.81854 18.1318 7.64299 18.2069 7.51264 18.3372C7.38229 18.4676 7.30716 18.6431 7.30284 18.8274V19.3274C7.32041 19.5247 7.41339 19.7075 7.56241 19.8379C7.71143 19.9683 7.90501 20.0362 8.10283 20.0274H10.6958L7.35683 23.3764C7.25084 23.4528 7.16348 23.5521 7.10126 23.667C7.03904 23.7818 7.00357 23.9092 6.99751 24.0397C6.99146 24.1702 7.01496 24.3004 7.06627 24.4205C7.11758 24.5406 7.19537 24.6476 7.29383 24.7334Z" fill="#B1BAD3"/>
<path opacity="0.8" d="M24.711 7.26558C24.5293 7.09458 24.2891 6.99937 24.0395 6.99937C23.79 6.99937 23.5498 7.09458 23.368 7.26558L19.973 10.6156V7.90958C19.9755 7.81698 19.9591 7.72485 19.9248 7.6388C19.8905 7.55275 19.839 7.47459 19.7735 7.40909C19.708 7.34359 19.6299 7.29212 19.5438 7.25782C19.4578 7.22352 19.3656 7.2071 19.273 7.20958H18.779C18.6933 7.20079 18.6066 7.20954 18.5243 7.23529C18.442 7.26104 18.3658 7.30326 18.3003 7.35938C18.2348 7.4155 18.1814 7.48435 18.1434 7.56175C18.1054 7.63914 18.0835 7.72346 18.079 7.80958V13.1256C18.0747 13.3038 18.1269 13.4788 18.228 13.6256C18.3625 13.7507 18.5384 13.8219 18.722 13.8256H19.068L24.004 13.8716C24.1883 13.8673 24.3639 13.7921 24.4942 13.6618C24.6246 13.5314 24.6997 13.3559 24.704 13.1716V12.6716C24.6865 12.4743 24.5935 12.2915 24.4445 12.1611C24.2954 12.0307 24.1019 11.9628 23.904 11.9716H21.304L24.646 8.61858C24.7514 8.54233 24.8383 8.44334 24.9003 8.32894C24.9622 8.21453 24.9976 8.08766 25.0039 7.95771C25.0101 7.82777 24.987 7.69808 24.9364 7.57827C24.8857 7.45845 24.8086 7.35159 24.711 7.26558Z" fill="#B1BAD3"/>
</svg>
