<svg width="14" height="14" viewBox="0 0 14 14" fill="none" xmlns="http://www.w3.org/2000/svg">
<path fill-rule="evenodd" clip-rule="evenodd" d="M11.0544 2.15319L11.4632 1.31319C11.4697 1.2982 11.4805 1.28544 11.4941 1.27649C11.5078 1.26753 11.5238 1.26276 11.5402 1.26276C11.5565 1.26276 11.5725 1.26753 11.5862 1.27649C11.5999 1.28544 11.6106 1.2982 11.6172 1.31319L12.0316 2.15319C12.0375 2.16585 12.0465 2.17684 12.0577 2.18515C12.069 2.19347 12.0821 2.19884 12.096 2.20079L13.0172 2.32959C13.0333 2.33132 13.0485 2.33765 13.0611 2.34784C13.0736 2.35803 13.083 2.37162 13.088 2.387C13.0931 2.40238 13.0935 2.41888 13.0894 2.43452C13.0853 2.45017 13.0767 2.46429 13.0648 2.47519L12.4012 3.12759C12.391 3.13712 12.3834 3.14901 12.379 3.16221C12.3746 3.1754 12.3736 3.18948 12.376 3.20319L12.5356 4.11879C12.5386 4.13449 12.5372 4.15075 12.5313 4.16565C12.5255 4.18055 12.5155 4.19346 12.5025 4.20288C12.4896 4.21229 12.4742 4.21781 12.4583 4.21879C12.4423 4.21976 12.4264 4.21615 12.4124 4.20839L11.5864 3.77999C11.5743 3.77361 11.5608 3.77028 11.5472 3.77028C11.5335 3.77028 11.5201 3.77361 11.508 3.77999L10.6876 4.19999C10.6736 4.20775 10.6577 4.21136 10.6417 4.21039C10.6257 4.20941 10.6103 4.20389 10.5974 4.19448C10.5845 4.18506 10.5745 4.17215 10.5686 4.15725C10.5628 4.14235 10.5613 4.12609 10.5644 4.11039L10.7184 3.19199C10.7208 3.17828 10.7197 3.1642 10.7153 3.15101C10.7109 3.13781 10.7033 3.12592 10.6932 3.11639L10.024 2.48359C10.0117 2.47217 10.003 2.45733 9.99925 2.44097C9.99545 2.42462 9.99664 2.4075 10.0027 2.39182C10.0087 2.37615 10.0193 2.36265 10.0331 2.35305C10.0468 2.34345 10.0632 2.33821 10.08 2.33799L10.9984 2.20079C11.0107 2.19761 11.0221 2.19168 11.0319 2.18344C11.0416 2.17519 11.0493 2.16484 11.0544 2.15319ZM1.63503 6.3952H3.28703C3.52223 6.3952 3.63983 6.5128 3.63983 6.748V12.194C3.63983 12.4292 3.52223 12.5468 3.28703 12.5468H1.63503C1.39983 12.5468 1.28223 12.4292 1.28223 12.194V6.748C1.28223 6.5128 1.39983 6.3952 1.63503 6.3952ZM6.98487 3.61631C7.05417 3.27333 7.12314 2.93205 7.28017 2.68237C7.37471 2.53345 7.51263 2.4171 7.67535 2.34901C7.83807 2.28092 8.01775 2.26436 8.19017 2.30157C8.39466 2.33022 8.58578 2.4198 8.73861 2.55865C8.89144 2.69749 8.99889 2.87916 9.04697 3.07997C9.52017 4.50237 8.10057 6.40357 8.10057 6.40357H11.0378C11.2453 6.40364 11.45 6.45239 11.6353 6.5459C11.8206 6.63941 11.9813 6.77507 12.1047 6.94199C12.228 7.10891 12.3105 7.30244 12.3455 7.50702C12.3805 7.7116 12.367 7.92154 12.3062 8.11997L11.1246 11.928C11.0689 12.1079 10.9576 12.2656 10.8067 12.3783C10.6557 12.491 10.4729 12.5529 10.2846 12.5552H4.32617V6.39517C4.87131 6.29289 5.38185 6.0548 5.81057 5.70291C6.2393 5.35102 6.57237 4.8967 6.77897 4.38197C6.87612 4.15448 6.9306 3.88487 6.98487 3.61631Z" fill="#5E6778"/>
</svg>
