<svg width="327" height="276" viewBox="0 0 327 276" fill="none" xmlns="http://www.w3.org/2000/svg">
  <defs>
    <clipPath id="clip0_221_2843">
      <rect width="327" height="276" fill="white"/>
    </clipPath>
    <clipPath id="clip1_221_2843">
      <rect width="123" height="92" fill="white" transform="translate(123 240) rotate(-180)"/>
    </clipPath>
    <clipPath id="clip2_221_2843">
      <rect width="88" height="92" fill="white" transform="translate(88 138) rotate(-180)"/>
    </clipPath>
    <clipPath id="clip3_221_2843">
      <rect width="122" height="194" fill="white" transform="matrix(1 8.74228e-08 8.74228e-08 -1 205 240)"/>
    </clipPath>
  </defs>

  <g clip-path="url(#clip0_221_2843)">
    <rect width="327" height="92" fill="#009EF7"/>
    <path
      d="M157.966 41.606H155.894V40.64H162.852C162.852 45.4373 162.782 48.4053 162.642 49.544C162.474 51.2893 161.723 52.162 160.388 52.162C160.332 52.162 159.8 52.1433 158.792 52.106L158.54 51.182C159.417 51.2193 159.982 51.238 160.234 51.238C161.065 51.238 161.541 50.538 161.662 49.138C161.746 48.3073 161.802 45.7967 161.83 41.606H158.96V42.712C158.904 47.1173 157.7 50.342 155.348 52.386L154.578 51.714C156.799 49.838 157.929 46.8373 157.966 42.712V41.606ZM152.59 46.786C152.058 47.3647 151.475 47.948 150.84 48.536L150.546 47.514C152.357 45.862 153.556 44.2473 154.144 42.67H150.854V41.746H152.744C152.52 41.0833 152.24 40.4347 151.904 39.8L152.884 39.534C153.239 40.262 153.505 40.934 153.682 41.55L153.192 41.746H155.124V42.572C154.779 43.5987 154.256 44.602 153.556 45.582V45.68C153.789 45.8387 154.023 46.0113 154.256 46.198C154.741 45.862 155.208 45.3533 155.656 44.672L156.272 45.288C155.843 45.8947 155.376 46.366 154.872 46.702C155.292 47.066 155.67 47.4347 156.006 47.808L155.46 48.648C154.844 47.8547 154.209 47.1733 153.556 46.604V52.4H152.59V46.786ZM168.872 50.398C167.612 50.9113 166.217 51.3127 164.686 51.602L164.56 50.622C166.203 50.3233 167.64 49.9313 168.872 49.446V50.398ZM168.116 39.926C167.388 41.69 166.646 43.09 165.89 44.126C166.637 44.0513 167.309 43.9627 167.906 43.86C168.018 43.664 168.153 43.4213 168.312 43.132L168.522 42.754L168.746 42.376L169.628 42.698C168.284 45.0127 167.197 46.632 166.366 47.556C167.355 47.3787 168.368 47.1313 169.404 46.814V47.724C167.976 48.1533 166.553 48.4567 165.134 48.634L164.868 47.724C165.045 47.6587 165.199 47.5653 165.33 47.444C165.909 46.9027 166.581 46.0113 167.346 44.77C166.534 44.8913 165.722 45.0033 164.91 45.106L164.658 44.182C164.807 44.126 164.947 44.0047 165.078 43.818C165.881 42.558 166.576 41.1347 167.164 39.548L168.116 39.926ZM170.986 41.088H169.6V40.136H175.746V40.766C175.522 42.026 175.298 43.104 175.074 44H176.852V44.56C176.553 46.5013 175.905 48.1347 174.906 49.46C175.615 50.2253 176.469 50.9207 177.468 51.546L176.838 52.386C175.839 51.7233 174.995 50.9953 174.304 50.202C173.492 51.07 172.465 51.8073 171.224 52.414L170.664 51.49C171.84 50.9113 172.829 50.202 173.632 49.362C172.783 48.2233 172.143 46.94 171.714 45.512C171.294 48.4613 170.375 50.7387 168.956 52.344L168.214 51.686C170.034 49.642 170.958 46.3613 170.986 41.844V41.088ZM174.22 48.662C175.023 47.598 175.564 46.338 175.844 44.882H173.898C174.141 44.0513 174.411 42.7867 174.71 41.088H171.966V41.844C171.966 42.3667 171.952 42.866 171.924 43.342C172.269 45.386 173.035 47.1593 174.22 48.662Z"
      fill="white"/>
    <rect y="92" width="327" height="92" fill="#763FEB"/>
    <path
      d="M156.482 131.506H157.518V134.026H162.544V140.606H161.536V139.724H157.518V144.498H156.482V139.724H152.478V140.606H151.47V134.026H156.482V131.506ZM152.478 138.744H156.482V135.006H152.478V138.744ZM157.518 138.744H161.536V135.006H157.518V138.744ZM168.872 142.398C167.612 142.911 166.217 143.313 164.686 143.602L164.56 142.622C166.203 142.323 167.64 141.931 168.872 141.446V142.398ZM168.116 131.926C167.388 133.69 166.646 135.09 165.89 136.126C166.637 136.051 167.309 135.963 167.906 135.86C168.018 135.664 168.153 135.421 168.312 135.132L168.522 134.754L168.746 134.376L169.628 134.698C168.284 137.013 167.197 138.632 166.366 139.556C167.355 139.379 168.368 139.131 169.404 138.814V139.724C167.976 140.153 166.553 140.457 165.134 140.634L164.868 139.724C165.045 139.659 165.199 139.565 165.33 139.444C165.909 138.903 166.581 138.011 167.346 136.77C166.534 136.891 165.722 137.003 164.91 137.106L164.658 136.182C164.807 136.126 164.947 136.005 165.078 135.818C165.881 134.558 166.576 133.135 167.164 131.548L168.116 131.926ZM170.986 133.088H169.6V132.136H175.746V132.766C175.522 134.026 175.298 135.104 175.074 136H176.852V136.56C176.553 138.501 175.905 140.135 174.906 141.46C175.615 142.225 176.469 142.921 177.468 143.546L176.838 144.386C175.839 143.723 174.995 142.995 174.304 142.202C173.492 143.07 172.465 143.807 171.224 144.414L170.664 143.49C171.84 142.911 172.829 142.202 173.632 141.362C172.783 140.223 172.143 138.94 171.714 137.512C171.294 140.461 170.375 142.739 168.956 144.344L168.214 143.686C170.034 141.642 170.958 138.361 170.986 133.844V133.088ZM174.22 140.662C175.023 139.598 175.564 138.338 175.844 136.882H173.898C174.141 136.051 174.411 134.787 174.71 133.088H171.966V133.844C171.966 134.367 171.952 134.866 171.924 135.342C172.269 137.386 173.035 139.159 174.22 140.662Z"
      fill="white"/>
    <rect y="184" width="327" height="92" fill="#F1416C"/>
    <path
      d="M157.182 223.478C157.35 223.898 157.499 224.318 157.63 224.738H163.174V225.662H150.812V224.738H156.552C156.44 224.421 156.281 224.066 156.076 223.674L157.182 223.478ZM159.758 236.358L159.52 235.448L160.64 235.49C161.219 235.49 161.508 235.266 161.508 234.818V231.01H152.492V236.4H151.526V230.128H162.474V235.028C162.474 235.915 161.961 236.358 160.934 236.358H159.758ZM153.094 226.572H160.92V229.288H153.094V226.572ZM159.94 228.504V227.356H154.074V228.504H159.94ZM154.256 231.906H159.758V234.706H154.256V231.906ZM158.862 233.95V232.662H155.166V233.95H158.862ZM168.872 234.398C167.612 234.911 166.217 235.313 164.686 235.602L164.56 234.622C166.203 234.323 167.64 233.931 168.872 233.446V234.398ZM168.116 223.926C167.388 225.69 166.646 227.09 165.89 228.126C166.637 228.051 167.309 227.963 167.906 227.86C168.018 227.664 168.153 227.421 168.312 227.132L168.522 226.754L168.746 226.376L169.628 226.698C168.284 229.013 167.197 230.632 166.366 231.556C167.355 231.379 168.368 231.131 169.404 230.814V231.724C167.976 232.153 166.553 232.457 165.134 232.634L164.868 231.724C165.045 231.659 165.199 231.565 165.33 231.444C165.909 230.903 166.581 230.011 167.346 228.77C166.534 228.891 165.722 229.003 164.91 229.106L164.658 228.182C164.807 228.126 164.947 228.005 165.078 227.818C165.881 226.558 166.576 225.135 167.164 223.548L168.116 223.926ZM170.986 225.088H169.6V224.136H175.746V224.766C175.522 226.026 175.298 227.104 175.074 228H176.852V228.56C176.553 230.501 175.905 232.135 174.906 233.46C175.615 234.225 176.469 234.921 177.468 235.546L176.838 236.386C175.839 235.723 174.995 234.995 174.304 234.202C173.492 235.07 172.465 235.807 171.224 236.414L170.664 235.49C171.84 234.911 172.829 234.202 173.632 233.362C172.783 232.223 172.143 230.94 171.714 229.512C171.294 232.461 170.375 234.739 168.956 236.344L168.214 235.686C170.034 233.642 170.958 230.361 170.986 225.844V225.088ZM174.22 232.662C175.023 231.598 175.564 230.338 175.844 228.882H173.898C174.141 228.051 174.411 226.787 174.71 225.088H171.966V225.844C171.966 226.367 171.952 226.866 171.924 227.342C172.269 229.386 173.035 231.159 174.22 232.662Z"
      fill="white"/>
    <path d="M327 276L163.894 276L327 1.43051e-06L327 276Z" fill="white"/>
    <path d="M0 276L163.894 276L2.41287e-05 0L0 276Z" fill="white"/>
    <g clip-path="url(#clip1_221_2843)">
      <rect x="114.667" y="235" width="0.999995" height="114.667" transform="rotate(90 114.667 235)" fill="#A1A5B7"/>
      <path d="M123 236L114.667 240L114.667 232L123 236Z" fill="#A1A5B7"/>
      <rect x="0.833496" y="236" width="0.833333" height="88" transform="rotate(-180 0.833496 236)" fill="#A1A5B7"/>
      <rect x="69" y="148" width="0.999997" height="69" transform="rotate(90 69 148)" fill="#A1A5B7"/>
    </g>
    <g clip-path="url(#clip2_221_2843)">
      <rect x="53" y="133" width="0.999997" height="53" transform="rotate(90 53 133)" fill="#A1A5B7"/>
      <path d="M61 134L52.6667 138L52.6667 130L61 134Z" fill="#A1A5B7"/>
      <rect x="0.833496" y="134" width="0.833333" height="88" transform="rotate(-180 0.833496 134)" fill="#A1A5B7"/>
      <rect x="14" y="46" width="0.999999" height="14" transform="rotate(90 14 46)" fill="#A1A5B7"/>
    </g>
    <g clip-path="url(#clip3_221_2843)">
      <rect width="0.999994" height="109" transform="matrix(-1.23849e-07 1 1 1.39876e-07 218 235)" fill="#A1A5B7"/>
      <path d="M209.667 236L218 240L218 232L209.667 236Z" fill="#A1A5B7"/>
      <rect width="0.833336" height="190" transform="matrix(1 8.74228e-08 8.74228e-08 -1 326.167 236)" fill="#A1A5B7"/>
      <rect width="0.999999" height="12" transform="matrix(-1.31863e-07 1 1 1.30418e-07 315 46)" fill="#A1A5B7"/>
    </g>
  </g>
</svg>
