<svg width="460" height="290" viewBox="0 0 460 290" fill="none" xmlns="http://www.w3.org/2000/svg">
<rect width="460" height="290" rx="10" fill="#0D131C"/>
<rect x="25.5" y="20" width="409" height="76" rx="9.5" fill="#161F2C"/>
<rect x="33" y="27.5" width="50" height="26.5" rx="10" fill="#383C45"/>
<path d="M43.87 39.71H57.16V40.85H50.515V45.32L51.31 45.185V46.28C51.07 46.325 50.8 46.37 50.515 46.43V47.84H49.15V46.61C47.785 46.775 46.09 46.925 44.065 47.06L43.885 45.86L45.175 45.8V40.85H43.87V39.71ZM46.48 45.725C47.455 45.665 48.34 45.59 49.15 45.5V44.69H46.48V45.725ZM46.48 43.67H49.15V42.755H46.48V43.67ZM46.48 41.735H49.15V40.85H46.48V41.735ZM45.64 34.415H55.45V38.96H45.64V34.415ZM54.085 37.97V37.175H47.005V37.97H54.085ZM47.005 36.2H54.085V35.45H47.005V36.2ZM51.61 42.77H51.145V41.615H56.365V42.695C56.11 43.775 55.66 44.705 55.015 45.5C55.63 45.935 56.365 46.325 57.22 46.67L56.485 47.855C55.555 47.42 54.775 46.94 54.115 46.415C53.425 46.985 52.63 47.465 51.715 47.855L50.98 46.76C51.835 46.4 52.555 45.995 53.155 45.515C52.39 44.675 51.88 43.76 51.61 42.77ZM54.025 44.675C54.505 44.09 54.865 43.46 55.09 42.77H52.84C53.08 43.46 53.47 44.105 54.025 44.675ZM64.675 47.63H62.47L62.125 46.145C62.845 46.205 63.505 46.25 64.135 46.25C64.705 46.25 65.005 45.95 65.005 45.365V34.175H66.49V45.74C66.49 47 65.875 47.63 64.675 47.63ZM60.97 37.655L62.395 38.225C61.705 41.18 60.79 43.445 59.665 45.005L58.42 43.91C59.56 42.35 60.415 40.265 60.97 37.655ZM70 37.28C71.08 39.92 71.92 42.215 72.505 44.195L71.215 45.08C70.585 42.995 69.745 40.67 68.695 38.09L70 37.28Z" fill="#7C8499"/>
<rect x="33" y="62" width="50" height="26.5" rx="10" fill="#383C45"/>
<path d="M43.87 74.21H57.16V75.35H50.515V79.82L51.31 79.685V80.78C51.07 80.825 50.8 80.87 50.515 80.93V82.34H49.15V81.11C47.785 81.275 46.09 81.425 44.065 81.56L43.885 80.36L45.175 80.3V75.35H43.87V74.21ZM46.48 80.225C47.455 80.165 48.34 80.09 49.15 80V79.19H46.48V80.225ZM46.48 78.17H49.15V77.255H46.48V78.17ZM46.48 76.235H49.15V75.35H46.48V76.235ZM45.64 68.915H55.45V73.46H45.64V68.915ZM54.085 72.47V71.675H47.005V72.47H54.085ZM47.005 70.7H54.085V69.95H47.005V70.7ZM51.61 77.27H51.145V76.115H56.365V77.195C56.11 78.275 55.66 79.205 55.015 80C55.63 80.435 56.365 80.825 57.22 81.17L56.485 82.355C55.555 81.92 54.775 81.44 54.115 80.915C53.425 81.485 52.63 81.965 51.715 82.355L50.98 81.26C51.835 80.9 52.555 80.495 53.155 80.015C52.39 79.175 51.88 78.26 51.61 77.27ZM54.025 79.175C54.505 78.59 54.865 77.96 55.09 77.27H52.84C53.08 77.96 53.47 78.605 54.025 79.175ZM58.87 72.275H64.615C64.705 71.48 64.765 70.64 64.78 69.77V68.465H66.22V69.44C66.22 70.43 66.16 71.375 66.04 72.275H72.13V73.655H66.4C67.45 76.865 69.475 79.34 72.445 81.095L71.56 82.25C68.68 80.48 66.655 78.005 65.515 74.825C64.525 78.26 62.5 80.78 59.455 82.385L58.54 81.185C61.63 79.685 63.58 77.165 64.375 73.655H58.87V72.275Z" fill="#7C8499"/>
<g clip-path="url(#clip0_10_9192)">
<g clip-path="url(#clip1_10_9192)">
<path d="M182.139 49.9029C180.537 56.3315 174.026 60.2438 167.596 58.6407C161.169 57.038 157.257 50.5265 158.861 44.0984C160.463 37.669 166.974 33.7564 173.401 35.3591C179.83 36.9618 183.742 43.474 182.139 49.903L182.139 49.9029H182.139Z" fill="#F7931A"/>
<path d="M175.791 45.2903C176.03 43.6934 174.815 42.835 173.152 42.2623L173.691 40.0991L172.375 39.771L171.85 41.8773C171.503 41.7909 171.148 41.7096 170.794 41.6289L171.323 39.5088L170.007 39.1807L169.468 41.3432C169.181 41.2779 168.9 41.2135 168.627 41.1455L168.628 41.1387L166.813 40.6853L166.462 42.0917C166.462 42.0917 167.439 42.3157 167.419 42.3294C167.952 42.4625 168.048 42.8155 168.032 43.0953L167.418 45.5597C167.455 45.569 167.502 45.5825 167.555 45.6036C167.511 45.5927 167.464 45.5808 167.416 45.5692L166.554 49.0214C166.489 49.1834 166.324 49.4266 165.951 49.3342C165.964 49.3534 164.994 49.0954 164.994 49.0954L164.34 50.6027L166.054 51.0299C166.373 51.1098 166.685 51.1935 166.993 51.2721L166.448 53.4601L167.763 53.7883L168.303 51.6235C168.662 51.721 169.011 51.811 169.352 51.8958L168.814 54.0504L170.131 54.3785L170.676 52.1946C172.921 52.6196 174.61 52.4482 175.32 50.4172C175.893 48.7821 175.292 47.8389 174.111 47.2238C174.971 47.0254 175.619 46.4595 175.792 45.2905L175.792 45.2902L175.791 45.2903ZM172.783 49.5091C172.376 51.1443 169.623 50.2604 168.73 50.0387L169.453 47.14C170.346 47.3628 173.208 47.8038 172.783 49.5091H172.783ZM173.19 45.2666C172.819 46.754 170.527 45.9984 169.784 45.8131L170.44 43.1841C171.183 43.3694 173.577 43.7152 173.19 45.2666H173.19Z" fill="white"/>
</g>
<path d="M187.715 48.5049C187.715 46.0557 188.154 44.3418 189.033 43.3633C189.918 42.3848 191.263 41.8955 193.067 41.8955C193.935 41.8955 194.646 42.0039 195.203 42.2207C195.76 42.4316 196.214 42.71 196.565 43.0557C196.917 43.3955 197.192 43.7559 197.392 44.1367C197.597 44.5117 197.761 44.9512 197.884 45.4551C198.124 46.416 198.244 47.418 198.244 48.4609C198.244 50.7988 197.849 52.5098 197.058 53.5938C196.267 54.6777 194.904 55.2197 192.971 55.2197C191.887 55.2197 191.011 55.0469 190.343 54.7012C189.675 54.3555 189.127 53.8486 188.699 53.1807C188.389 52.7061 188.146 52.0586 187.97 51.2383C187.8 50.4121 187.715 49.501 187.715 48.5049ZM191.266 48.5137C191.266 50.1543 191.409 51.2764 191.696 51.8799C191.989 52.4775 192.411 52.7764 192.962 52.7764C193.325 52.7764 193.639 52.6504 193.902 52.3984C194.172 52.1406 194.368 51.7363 194.491 51.1855C194.62 50.6348 194.685 49.7764 194.685 48.6104C194.685 46.8994 194.538 45.751 194.245 45.165C193.958 44.5732 193.524 44.2773 192.944 44.2773C192.353 44.2773 191.925 44.5791 191.661 45.1826C191.397 45.7803 191.266 46.8906 191.266 48.5137ZM200.072 51.4141H203.896V55H200.072V51.4141ZM205.715 48.5049C205.715 46.0557 206.154 44.3418 207.033 43.3633C207.918 42.3848 209.263 41.8955 211.067 41.8955C211.935 41.8955 212.646 42.0039 213.203 42.2207C213.76 42.4316 214.214 42.71 214.565 43.0557C214.917 43.3955 215.192 43.7559 215.392 44.1367C215.597 44.5117 215.761 44.9512 215.884 45.4551C216.124 46.416 216.244 47.418 216.244 48.4609C216.244 50.7988 215.849 52.5098 215.058 53.5938C214.267 54.6777 212.904 55.2197 210.971 55.2197C209.887 55.2197 209.011 55.0469 208.343 54.7012C207.675 54.3555 207.127 53.8486 206.699 53.1807C206.389 52.7061 206.146 52.0586 205.97 51.2383C205.8 50.4121 205.715 49.501 205.715 48.5049ZM209.266 48.5137C209.266 50.1543 209.409 51.2764 209.696 51.8799C209.989 52.4775 210.411 52.7764 210.962 52.7764C211.325 52.7764 211.639 52.6504 211.902 52.3984C212.172 52.1406 212.368 51.7363 212.491 51.1855C212.62 50.6348 212.685 49.7764 212.685 48.6104C212.685 46.8994 212.538 45.751 212.245 45.165C211.958 44.5732 211.524 44.2773 210.944 44.2773C210.353 44.2773 209.925 44.5791 209.661 45.1826C209.397 45.7803 209.266 46.8906 209.266 48.5137ZM217.721 48.5049C217.721 46.0557 218.16 44.3418 219.039 43.3633C219.924 42.3848 221.269 41.8955 223.073 41.8955C223.94 41.8955 224.652 42.0039 225.209 42.2207C225.766 42.4316 226.22 42.71 226.571 43.0557C226.923 43.3955 227.198 43.7559 227.397 44.1367C227.603 44.5117 227.767 44.9512 227.89 45.4551C228.13 46.416 228.25 47.418 228.25 48.4609C228.25 50.7988 227.854 52.5098 227.063 53.5938C226.272 54.6777 224.91 55.2197 222.977 55.2197C221.893 55.2197 221.017 55.0469 220.349 54.7012C219.681 54.3555 219.133 53.8486 218.705 53.1807C218.395 52.7061 218.151 52.0586 217.976 51.2383C217.806 50.4121 217.721 49.501 217.721 48.5049ZM221.271 48.5137C221.271 50.1543 221.415 51.2764 221.702 51.8799C221.995 52.4775 222.417 52.7764 222.968 52.7764C223.331 52.7764 223.645 52.6504 223.908 52.3984C224.178 52.1406 224.374 51.7363 224.497 51.1855C224.626 50.6348 224.69 49.7764 224.69 48.6104C224.69 46.8994 224.544 45.751 224.251 45.165C223.964 44.5732 223.53 44.2773 222.95 44.2773C222.358 44.2773 221.931 44.5791 221.667 45.1826C221.403 45.7803 221.271 46.8906 221.271 48.5137ZM229.727 48.5049C229.727 46.0557 230.166 44.3418 231.045 43.3633C231.93 42.3848 233.274 41.8955 235.079 41.8955C235.946 41.8955 236.658 42.0039 237.215 42.2207C237.771 42.4316 238.226 42.71 238.577 43.0557C238.929 43.3955 239.204 43.7559 239.403 44.1367C239.608 44.5117 239.772 44.9512 239.896 45.4551C240.136 46.416 240.256 47.418 240.256 48.4609C240.256 50.7988 239.86 52.5098 239.069 53.5938C238.278 54.6777 236.916 55.2197 234.982 55.2197C233.898 55.2197 233.022 55.0469 232.354 54.7012C231.687 54.3555 231.139 53.8486 230.711 53.1807C230.4 52.7061 230.157 52.0586 229.981 51.2383C229.812 50.4121 229.727 49.501 229.727 48.5049ZM233.277 48.5137C233.277 50.1543 233.421 51.2764 233.708 51.8799C234.001 52.4775 234.423 52.7764 234.974 52.7764C235.337 52.7764 235.65 52.6504 235.914 52.3984C236.184 52.1406 236.38 51.7363 236.503 51.1855C236.632 50.6348 236.696 49.7764 236.696 48.6104C236.696 46.8994 236.55 45.751 236.257 45.165C235.97 44.5732 235.536 44.2773 234.956 44.2773C234.364 44.2773 233.937 44.5791 233.673 45.1826C233.409 45.7803 233.277 46.8906 233.277 48.5137ZM241.732 48.5049C241.732 46.0557 242.172 44.3418 243.051 43.3633C243.936 42.3848 245.28 41.8955 247.085 41.8955C247.952 41.8955 248.664 42.0039 249.221 42.2207C249.777 42.4316 250.231 42.71 250.583 43.0557C250.935 43.3955 251.21 43.7559 251.409 44.1367C251.614 44.5117 251.778 44.9512 251.901 45.4551C252.142 46.416 252.262 47.418 252.262 48.4609C252.262 50.7988 251.866 52.5098 251.075 53.5938C250.284 54.6777 248.922 55.2197 246.988 55.2197C245.904 55.2197 245.028 55.0469 244.36 54.7012C243.692 54.3555 243.145 53.8486 242.717 53.1807C242.406 52.7061 242.163 52.0586 241.987 51.2383C241.817 50.4121 241.732 49.501 241.732 48.5049ZM245.283 48.5137C245.283 50.1543 245.427 51.2764 245.714 51.8799C246.007 52.4775 246.429 52.7764 246.979 52.7764C247.343 52.7764 247.656 52.6504 247.92 52.3984C248.189 52.1406 248.386 51.7363 248.509 51.1855C248.638 50.6348 248.702 49.7764 248.702 48.6104C248.702 46.8994 248.556 45.751 248.263 45.165C247.976 44.5732 247.542 44.2773 246.962 44.2773C246.37 44.2773 245.942 44.5791 245.679 45.1826C245.415 45.7803 245.283 46.8906 245.283 48.5137ZM261.851 41.8955V55H258.229V46.4131C257.644 46.8584 257.075 47.2188 256.524 47.4941C255.979 47.7695 255.294 48.0332 254.468 48.2852V45.3496C255.687 44.957 256.633 44.4854 257.307 43.9346C257.98 43.3838 258.508 42.7041 258.889 41.8955H261.851ZM265.744 48.5049C265.744 46.0557 266.184 44.3418 267.062 43.3633C267.947 42.3848 269.292 41.8955 271.097 41.8955C271.964 41.8955 272.676 42.0039 273.232 42.2207C273.789 42.4316 274.243 42.71 274.595 43.0557C274.946 43.3955 275.222 43.7559 275.421 44.1367C275.626 44.5117 275.79 44.9512 275.913 45.4551C276.153 46.416 276.273 47.418 276.273 48.4609C276.273 50.7988 275.878 52.5098 275.087 53.5938C274.296 54.6777 272.934 55.2197 271 55.2197C269.916 55.2197 269.04 55.0469 268.372 54.7012C267.704 54.3555 267.156 53.8486 266.729 53.1807C266.418 52.7061 266.175 52.0586 265.999 51.2383C265.829 50.4121 265.744 49.501 265.744 48.5049ZM269.295 48.5137C269.295 50.1543 269.438 51.2764 269.726 51.8799C270.019 52.4775 270.44 52.7764 270.991 52.7764C271.354 52.7764 271.668 52.6504 271.932 52.3984C272.201 52.1406 272.397 51.7363 272.521 51.1855C272.649 50.6348 272.714 49.7764 272.714 48.6104C272.714 46.8994 272.567 45.751 272.274 45.165C271.987 44.5732 271.554 44.2773 270.974 44.2773C270.382 44.2773 269.954 44.5791 269.69 45.1826C269.427 45.7803 269.295 46.8906 269.295 48.5137ZM277.75 48.5049C277.75 46.0557 278.189 44.3418 279.068 43.3633C279.953 42.3848 281.298 41.8955 283.103 41.8955C283.97 41.8955 284.682 42.0039 285.238 42.2207C285.795 42.4316 286.249 42.71 286.601 43.0557C286.952 43.3955 287.228 43.7559 287.427 44.1367C287.632 44.5117 287.796 44.9512 287.919 45.4551C288.159 46.416 288.279 47.418 288.279 48.4609C288.279 50.7988 287.884 52.5098 287.093 53.5938C286.302 54.6777 284.939 55.2197 283.006 55.2197C281.922 55.2197 281.046 55.0469 280.378 54.7012C279.71 54.3555 279.162 53.8486 278.734 53.1807C278.424 52.7061 278.181 52.0586 278.005 51.2383C277.835 50.4121 277.75 49.501 277.75 48.5049ZM281.301 48.5137C281.301 50.1543 281.444 51.2764 281.731 51.8799C282.024 52.4775 282.446 52.7764 282.997 52.7764C283.36 52.7764 283.674 52.6504 283.938 52.3984C284.207 52.1406 284.403 51.7363 284.526 51.1855C284.655 50.6348 284.72 49.7764 284.72 48.6104C284.72 46.8994 284.573 45.751 284.28 45.165C283.993 44.5732 283.56 44.2773 282.979 44.2773C282.388 44.2773 281.96 44.5791 281.696 45.1826C281.433 45.7803 281.301 46.8906 281.301 48.5137ZM289.756 48.5049C289.756 46.0557 290.195 44.3418 291.074 43.3633C291.959 42.3848 293.304 41.8955 295.108 41.8955C295.976 41.8955 296.688 42.0039 297.244 42.2207C297.801 42.4316 298.255 42.71 298.606 43.0557C298.958 43.3955 299.233 43.7559 299.433 44.1367C299.638 44.5117 299.802 44.9512 299.925 45.4551C300.165 46.416 300.285 47.418 300.285 48.4609C300.285 50.7988 299.89 52.5098 299.099 53.5938C298.308 54.6777 296.945 55.2197 295.012 55.2197C293.928 55.2197 293.052 55.0469 292.384 54.7012C291.716 54.3555 291.168 53.8486 290.74 53.1807C290.43 52.7061 290.187 52.0586 290.011 51.2383C289.841 50.4121 289.756 49.501 289.756 48.5049ZM293.307 48.5137C293.307 50.1543 293.45 51.2764 293.737 51.8799C294.03 52.4775 294.452 52.7764 295.003 52.7764C295.366 52.7764 295.68 52.6504 295.943 52.3984C296.213 52.1406 296.409 51.7363 296.532 51.1855C296.661 50.6348 296.726 49.7764 296.726 48.6104C296.726 46.8994 296.579 45.751 296.286 45.165C295.999 44.5732 295.565 44.2773 294.985 44.2773C294.394 44.2773 293.966 44.5791 293.702 45.1826C293.438 45.7803 293.307 46.8906 293.307 48.5137Z" fill="white"/>
<path d="M190.421 76.4106V73.3418C189.464 73.0684 188.761 72.6558 188.312 72.104C187.867 71.5474 187.645 70.8735 187.645 70.0825C187.645 69.2817 187.896 68.6104 188.399 68.0684C188.907 67.5215 189.581 67.2065 190.421 67.1235V66.3984H191.483V67.1235C192.259 67.2163 192.877 67.4824 193.336 67.9219C193.795 68.3564 194.088 68.9399 194.215 69.6724L192.362 69.9141C192.25 69.3379 191.957 68.9473 191.483 68.7422V71.606C192.655 71.9233 193.453 72.3359 193.878 72.8438C194.303 73.3467 194.515 73.9937 194.515 74.7847C194.515 75.6685 194.247 76.4131 193.709 77.0186C193.177 77.624 192.435 77.9951 191.483 78.1318V79.5015H190.421V78.1685C189.576 78.0659 188.89 77.751 188.363 77.2236C187.835 76.6963 187.499 75.9517 187.352 74.9897L189.264 74.7847C189.342 75.1753 189.488 75.5122 189.703 75.7954C189.918 76.0786 190.157 76.2837 190.421 76.4106ZM190.421 68.7202C190.133 68.8179 189.903 68.9839 189.732 69.2183C189.562 69.4526 189.476 69.7114 189.476 69.9946C189.476 70.2534 189.554 70.4951 189.71 70.7197C189.867 70.9395 190.104 71.1177 190.421 71.2544V68.7202ZM191.483 76.5132C191.849 76.4448 192.147 76.2764 192.376 76.0078C192.606 75.7344 192.721 75.4146 192.721 75.0483C192.721 74.7212 192.623 74.4404 192.428 74.2061C192.237 73.9668 191.922 73.7837 191.483 73.6567V76.5132ZM199.862 78V75.8394H195.467V74.0376L200.125 67.2188H201.854V74.0303H203.187V75.8394H201.854V78H199.862ZM199.862 74.0303V70.3608L197.394 74.0303H199.862ZM204.615 78V75.9419H206.673V78H204.615ZM212.386 78V75.8394H207.992V74.0376L212.65 67.2188H214.378V74.0303H215.711V75.8394H214.378V78H212.386ZM212.386 74.0303V70.3608L209.918 74.0303H212.386ZM220.179 67.2188C221.219 67.2188 222.032 67.5898 222.618 68.332C223.316 69.2109 223.666 70.6685 223.666 72.7046C223.666 74.7358 223.314 76.1958 222.611 77.0845C222.03 77.8169 221.219 78.1831 220.179 78.1831C219.134 78.1831 218.292 77.7827 217.652 76.9819C217.013 76.1763 216.693 74.7432 216.693 72.6826C216.693 70.6611 217.044 69.2061 217.748 68.3174C218.329 67.585 219.139 67.2188 220.179 67.2188ZM220.179 68.9253C219.93 68.9253 219.708 69.0059 219.513 69.167C219.317 69.3232 219.166 69.6064 219.059 70.0166C218.917 70.5488 218.846 71.4448 218.846 72.7046C218.846 73.9644 218.91 74.8311 219.037 75.3047C219.164 75.7734 219.322 76.0859 219.513 76.2422C219.708 76.3984 219.93 76.4766 220.179 76.4766C220.428 76.4766 220.65 76.3984 220.846 76.2422C221.041 76.0811 221.192 75.7954 221.3 75.3853C221.441 74.8579 221.512 73.9644 221.512 72.7046C221.512 71.4448 221.449 70.5806 221.322 70.1118C221.195 69.6382 221.034 69.3232 220.838 69.167C220.648 69.0059 220.428 68.9253 220.179 68.9253ZM228.529 67.2188C229.569 67.2188 230.382 67.5898 230.968 68.332C231.666 69.2109 232.015 70.6685 232.015 72.7046C232.015 74.7358 231.664 76.1958 230.96 77.0845C230.379 77.8169 229.569 78.1831 228.529 78.1831C227.484 78.1831 226.642 77.7827 226.002 76.9819C225.362 76.1763 225.042 74.7432 225.042 72.6826C225.042 70.6611 225.394 69.2061 226.097 68.3174C226.678 67.585 227.489 67.2188 228.529 67.2188ZM228.529 68.9253C228.28 68.9253 228.058 69.0059 227.862 69.167C227.667 69.3232 227.516 69.6064 227.408 70.0166C227.267 70.5488 227.196 71.4448 227.196 72.7046C227.196 73.9644 227.259 74.8311 227.386 75.3047C227.513 75.7734 227.672 76.0859 227.862 76.2422C228.058 76.3984 228.28 76.4766 228.529 76.4766C228.778 76.4766 229 76.3984 229.195 76.2422C229.391 76.0811 229.542 75.7954 229.649 75.3853C229.791 74.8579 229.862 73.9644 229.862 72.7046C229.862 71.4448 229.798 70.5806 229.671 70.1118C229.544 69.6382 229.383 69.3232 229.188 69.167C228.998 69.0059 228.778 68.9253 228.529 68.9253ZM236.878 67.2188C237.918 67.2188 238.731 67.5898 239.317 68.332C240.016 69.2109 240.365 70.6685 240.365 72.7046C240.365 74.7358 240.013 76.1958 239.31 77.0845C238.729 77.8169 237.918 78.1831 236.878 78.1831C235.833 78.1831 234.991 77.7827 234.352 76.9819C233.712 76.1763 233.392 74.7432 233.392 72.6826C233.392 70.6611 233.744 69.2061 234.447 68.3174C235.028 67.585 235.838 67.2188 236.878 67.2188ZM236.878 68.9253C236.629 68.9253 236.407 69.0059 236.212 69.167C236.017 69.3232 235.865 69.6064 235.758 70.0166C235.616 70.5488 235.545 71.4448 235.545 72.7046C235.545 73.9644 235.609 74.8311 235.736 75.3047C235.863 75.7734 236.021 76.0859 236.212 76.2422C236.407 76.3984 236.629 76.4766 236.878 76.4766C237.127 76.4766 237.35 76.3984 237.545 76.2422C237.74 76.0811 237.892 75.7954 237.999 75.3853C238.141 74.8579 238.211 73.9644 238.211 72.7046C238.211 71.4448 238.148 70.5806 238.021 70.1118C237.894 69.6382 237.733 69.3232 237.538 69.167C237.347 69.0059 237.127 68.9253 236.878 68.9253ZM245.228 67.2188C246.268 67.2188 247.081 67.5898 247.667 68.332C248.365 69.2109 248.714 70.6685 248.714 72.7046C248.714 74.7358 248.363 76.1958 247.66 77.0845C247.079 77.8169 246.268 78.1831 245.228 78.1831C244.183 78.1831 243.341 77.7827 242.701 76.9819C242.062 76.1763 241.742 74.7432 241.742 72.6826C241.742 70.6611 242.093 69.2061 242.796 68.3174C243.377 67.585 244.188 67.2188 245.228 67.2188ZM245.228 68.9253C244.979 68.9253 244.757 69.0059 244.562 69.167C244.366 69.3232 244.215 69.6064 244.107 70.0166C243.966 70.5488 243.895 71.4448 243.895 72.7046C243.895 73.9644 243.958 74.8311 244.085 75.3047C244.212 75.7734 244.371 76.0859 244.562 76.2422C244.757 76.3984 244.979 76.4766 245.228 76.4766C245.477 76.4766 245.699 76.3984 245.895 76.2422C246.09 76.0811 246.241 75.7954 246.349 75.3853C246.49 74.8579 246.561 73.9644 246.561 72.7046C246.561 71.4448 246.498 70.5806 246.371 70.1118C246.244 69.6382 246.083 69.3232 245.887 69.167C245.697 69.0059 245.477 68.9253 245.228 68.9253ZM253.578 67.2188C254.618 67.2188 255.431 67.5898 256.017 68.332C256.715 69.2109 257.064 70.6685 257.064 72.7046C257.064 74.7358 256.712 76.1958 256.009 77.0845C255.428 77.8169 254.618 78.1831 253.578 78.1831C252.533 78.1831 251.69 77.7827 251.051 76.9819C250.411 76.1763 250.091 74.7432 250.091 72.6826C250.091 70.6611 250.443 69.2061 251.146 68.3174C251.727 67.585 252.538 67.2188 253.578 67.2188ZM253.578 68.9253C253.329 68.9253 253.106 69.0059 252.911 69.167C252.716 69.3232 252.564 69.6064 252.457 70.0166C252.315 70.5488 252.245 71.4448 252.245 72.7046C252.245 73.9644 252.308 74.8311 252.435 75.3047C252.562 75.7734 252.721 76.0859 252.911 76.2422C253.106 76.3984 253.329 76.4766 253.578 76.4766C253.827 76.4766 254.049 76.3984 254.244 76.2422C254.439 76.0811 254.591 75.7954 254.698 75.3853C254.84 74.8579 254.911 73.9644 254.911 72.7046C254.911 71.4448 254.847 70.5806 254.72 70.1118C254.593 69.6382 254.432 69.3232 254.237 69.167C254.046 69.0059 253.827 68.9253 253.578 68.9253ZM261.927 67.2188C262.967 67.2188 263.78 67.5898 264.366 68.332C265.064 69.2109 265.414 70.6685 265.414 72.7046C265.414 74.7358 265.062 76.1958 264.359 77.0845C263.778 77.8169 262.967 78.1831 261.927 78.1831C260.882 78.1831 260.04 77.7827 259.4 76.9819C258.761 76.1763 258.441 74.7432 258.441 72.6826C258.441 70.6611 258.792 69.2061 259.496 68.3174C260.077 67.585 260.887 67.2188 261.927 67.2188ZM261.927 68.9253C261.678 68.9253 261.456 69.0059 261.261 69.167C261.065 69.3232 260.914 69.6064 260.807 70.0166C260.665 70.5488 260.594 71.4448 260.594 72.7046C260.594 73.9644 260.658 74.8311 260.785 75.3047C260.912 75.7734 261.07 76.0859 261.261 76.2422C261.456 76.3984 261.678 76.4766 261.927 76.4766C262.176 76.4766 262.398 76.3984 262.594 76.2422C262.789 76.0811 262.94 75.7954 263.048 75.3853C263.189 74.8579 263.26 73.9644 263.26 72.7046C263.26 71.4448 263.197 70.5806 263.07 70.1118C262.943 69.6382 262.782 69.3232 262.586 69.167C262.396 69.0059 262.176 68.9253 261.927 68.9253Z" fill="#7C8499"/>
</g>
<rect x="377" y="27.5" width="50" height="26.5" rx="10" fill="#383C45"/>
<path d="M394.171 35.54H395.401V46.25H393.766V37.505C393.121 38.12 392.296 38.57 391.306 38.855V37.235C391.786 37.115 392.281 36.905 392.821 36.605C393.361 36.275 393.811 35.93 394.171 35.54ZM402.499 33.95H403.879L398.644 47.75H397.249L402.499 33.95ZM408.979 35.33C409.999 35.33 410.854 35.615 411.514 36.215C412.159 36.815 412.489 37.58 412.489 38.525C412.489 39.455 412.129 40.295 411.439 41.06C411.019 41.495 410.284 42.065 409.219 42.785C408.064 43.55 407.374 44.225 407.149 44.81H412.504V46.25H405.124C405.124 45.185 405.469 44.255 406.189 43.445C406.579 42.98 407.389 42.335 408.604 41.495C409.324 40.985 409.834 40.58 410.134 40.265C410.614 39.725 410.869 39.14 410.869 38.51C410.869 37.91 410.704 37.46 410.374 37.16C410.044 36.86 409.549 36.71 408.919 36.71C408.244 36.71 407.734 36.935 407.389 37.4C407.029 37.85 406.849 38.495 406.819 39.365H405.184C405.199 38.165 405.544 37.205 406.219 36.485C406.909 35.705 407.839 35.33 408.979 35.33Z" fill="#7C8499"/>
<rect x="377" y="62" width="50" height="26.5" rx="10" fill="#383C45"/>
<path d="M398.191 69.83C399.211 69.83 400.066 70.115 400.726 70.715C401.371 71.315 401.701 72.08 401.701 73.025C401.701 73.955 401.341 74.795 400.651 75.56C400.231 75.995 399.496 76.565 398.431 77.285C397.276 78.05 396.586 78.725 396.361 79.31H401.716V80.75H394.336C394.336 79.685 394.681 78.755 395.401 77.945C395.791 77.48 396.601 76.835 397.816 75.995C398.536 75.485 399.046 75.08 399.346 74.765C399.826 74.225 400.081 73.64 400.081 73.01C400.081 72.41 399.916 71.96 399.586 71.66C399.256 71.36 398.761 71.21 398.131 71.21C397.456 71.21 396.946 71.435 396.601 71.9C396.241 72.35 396.061 72.995 396.031 73.865H394.396C394.411 72.665 394.756 71.705 395.431 70.985C396.121 70.205 397.051 69.83 398.191 69.83ZM402.94 72.995H404.8L406.51 75.455L408.205 72.995H410.065L407.38 76.625L410.395 80.75H408.535L406.51 77.795L404.47 80.75H402.595L405.625 76.625L402.94 72.995Z" fill="#7C8499"/>
<rect x="25.5" y="20" width="409" height="76" rx="9.5" stroke="#55657E"/>
<path d="M37.735 110.815V124.03H36.295V123.145H28.735V124.06H27.28V110.815H37.735ZM28.735 121.765H36.295V119.275H28.735V121.765ZM28.735 117.985H36.295V115.675H28.735V117.985ZM28.735 114.355H36.295V112.195H28.735V114.355ZM42.7 110.245H44.095V112.96H45.715V114.325H44.095V115.3C44.8 116.005 45.52 116.785 46.24 117.655L45.43 118.87C44.92 118.06 44.47 117.385 44.095 116.845V124.03H42.7V117.22C42.265 118.435 41.74 119.56 41.11 120.58L40.495 119.02C41.5 117.64 42.235 116.08 42.685 114.325H40.99V112.96H42.7V110.245ZM47.125 117.055L48.43 117.34C47.95 119.44 47.275 121.24 46.405 122.77L45.16 121.975C46.09 120.445 46.735 118.81 47.125 117.055ZM52.9 116.935C53.5 118.615 54.01 120.415 54.445 122.335L53.14 122.92C52.675 120.82 52.165 118.975 51.625 117.355L52.9 116.935ZM49.345 123.88H47.83L47.545 122.545C47.995 122.605 48.445 122.635 48.865 122.635C49.225 122.635 49.42 122.425 49.42 122.02V115.96H45.895V114.595H54.4V115.96H50.845V122.365C50.845 123.37 50.335 123.88 49.345 123.88ZM46.675 110.98H53.62V112.33H46.675V110.98ZM67.66 119.065H65.905C64.855 119.065 64.345 118.525 64.345 117.445V114.595H65.74V115.63C66.7 115.48 67.585 115.24 68.38 114.91L68.815 116.095C67.915 116.41 66.895 116.65 65.74 116.815V117.175C65.74 117.625 65.92 117.865 66.295 117.865H67.39C67.54 117.865 67.66 117.805 67.75 117.715C67.84 117.595 67.9 117.28 67.915 116.74L69.25 117.16C69.145 118.09 68.965 118.63 68.725 118.795C68.485 118.975 68.14 119.065 67.66 119.065ZM55.84 112.84H61.795V111.94C60.445 112 58.99 112.03 57.46 112.03L57.055 110.785C61.03 110.785 64.375 110.575 67.105 110.155L67.795 111.34C66.475 111.565 64.945 111.745 63.205 111.865V112.84H69.145V114.16H63.205V118C64.765 119.665 66.805 120.97 69.355 121.915L68.56 123.295C66.49 122.395 64.705 121.195 63.205 119.68V124.06H61.795V119.755C60.295 121.195 58.54 122.395 56.5 123.355L55.615 122.02C58.3 120.91 60.355 119.59 61.795 118.045V114.16H55.84V112.84ZM59.14 114.61H60.55V119.05H59.14V118.495C58.3 118.69 57.355 118.885 56.32 119.065L55.93 117.79C57.1 117.655 58.165 117.505 59.14 117.355V116.515H56.32V115.27H59.14V114.61ZM80.005 113.74C79.945 113.98 79.885 114.205 79.825 114.415C80.155 115.975 80.59 117.34 81.115 118.51C81.61 117.13 81.88 115.54 81.94 113.74H80.005ZM80.47 119.965C79.96 118.93 79.51 117.76 79.135 116.455C78.895 116.995 78.655 117.505 78.385 117.955L77.485 116.845C78.325 115.195 78.895 112.975 79.195 110.185L80.59 110.425C80.5 111.115 80.41 111.76 80.29 112.375H84.1V113.74H83.23C83.14 116.185 82.69 118.27 81.88 119.995C82.63 121.24 83.5 122.215 84.52 122.905L83.725 124.06C82.75 123.355 81.91 122.425 81.19 121.27C80.485 122.365 79.6 123.295 78.55 124.045L77.815 122.86C78.925 122.11 79.81 121.15 80.47 119.965ZM73.36 117.16L74.695 117.325C74.605 117.565 74.53 117.79 74.44 118.03H77.5V119.185C77.23 120.085 76.75 120.88 76.06 121.57C76.675 121.84 77.275 122.14 77.845 122.44L77.08 123.55C76.495 123.19 75.79 122.83 74.965 122.455C73.975 123.1 72.73 123.61 71.245 124L70.585 122.83C71.71 122.56 72.685 122.23 73.495 121.81C72.88 121.555 72.22 121.3 71.53 121.03C71.89 120.4 72.22 119.815 72.505 119.245H70.93V118.03H73.045C73.165 117.73 73.27 117.43 73.36 117.16ZM74.755 121.03C75.415 120.505 75.895 119.905 76.225 119.245H73.9C73.69 119.665 73.465 120.07 73.225 120.46C73.75 120.64 74.26 120.82 74.755 121.03ZM72.325 110.425C72.655 110.995 72.94 111.595 73.195 112.255L72.175 112.72C71.875 112 71.545 111.355 71.2 110.8L72.325 110.425ZM76.63 110.41L77.635 110.89C77.335 111.52 76.96 112.15 76.495 112.765L75.505 112.255C75.985 111.625 76.36 111.01 76.63 110.41ZM70.96 112.975H73.795V110.215H75.1V112.975H77.71V114.22H75.1V114.295C75.895 114.625 76.705 115.015 77.53 115.45L76.78 116.575C76.12 116.05 75.565 115.63 75.1 115.33V117.01H73.795V114.475C73.3 115.555 72.475 116.5 71.32 117.31L70.615 116.155C71.665 115.555 72.4 114.91 72.85 114.22H70.96V112.975Z" fill="#7C8499"/>
<rect x="25.5" y="134" width="413" height="49" rx="9.5" fill="#161F2C"/>
<path d="M57.3974 153.08C58.4174 153.08 59.2724 153.365 59.9324 153.965C60.5774 154.565 60.9074 155.33 60.9074 156.275C60.9074 157.205 60.5474 158.045 59.8574 158.81C59.4374 159.245 58.7024 159.815 57.6374 160.535C56.4824 161.3 55.7924 161.975 55.5674 162.56H60.9224V164H53.5424C53.5424 162.935 53.8874 162.005 54.6074 161.195C54.9974 160.73 55.8074 160.085 57.0224 159.245C57.7424 158.735 58.2524 158.33 58.5524 158.015C59.0324 157.475 59.2874 156.89 59.2874 156.26C59.2874 155.66 59.1224 155.21 58.7924 154.91C58.4624 154.61 57.9674 154.46 57.3374 154.46C56.6624 154.46 56.1524 154.685 55.8074 155.15C55.4474 155.6 55.2674 156.245 55.2374 157.115H53.6024C53.6174 155.915 53.9624 154.955 54.6374 154.235C55.3274 153.455 56.2574 153.08 57.3974 153.08Z" fill="white"/>
<path d="M401.725 153.29H403.72L406.33 157.16L408.94 153.29H410.935L407.305 158.465L411.19 164H409.195L406.33 159.755L403.465 164H401.47L405.325 158.465L401.725 153.29Z" fill="#7C8499"/>
<rect x="25.5" y="134" width="413" height="49" rx="9.5" stroke="#55657E"/>
<rect x="25" y="193.5" width="410" height="77" rx="10" fill="#F04E23"/>
<g filter="url(#filter0_d_10_9192)">
<path d="M216.758 225.648H222.626C223.886 225.648 224.858 225.936 225.578 226.548C226.262 227.124 226.604 227.898 226.604 228.888C226.604 229.608 226.424 230.22 226.064 230.724C225.704 231.192 225.218 231.552 224.57 231.786C225.416 231.948 226.064 232.29 226.496 232.812C226.928 233.334 227.144 234.036 227.144 234.9C227.144 236.196 226.694 237.132 225.812 237.744C225.056 238.248 223.994 238.5 222.626 238.5H216.758V225.648ZM218.72 227.268V231.102H222.104C223.004 231.102 223.652 230.94 224.048 230.634C224.444 230.31 224.642 229.806 224.642 229.122C224.642 228.474 224.444 228.006 224.048 227.718C223.652 227.412 223.004 227.268 222.14 227.268H218.72ZM218.72 232.704V236.88H222.356C223.184 236.88 223.832 236.736 224.3 236.484C224.876 236.142 225.182 235.602 225.182 234.864C225.182 234.108 224.948 233.55 224.498 233.208C224.048 232.866 223.346 232.704 222.41 232.704H218.72ZM232.877 228.942C234.389 228.942 235.559 229.446 236.351 230.49C237.071 231.426 237.449 232.722 237.467 234.378H230.411C230.483 235.278 230.717 235.98 231.149 236.466C231.581 236.934 232.175 237.186 232.931 237.186C233.597 237.186 234.137 237.024 234.551 236.718C234.875 236.466 235.145 236.052 235.397 235.512H237.305C237.089 236.376 236.675 237.114 236.027 237.69C235.217 238.392 234.191 238.752 232.949 238.752C231.581 238.752 230.483 238.32 229.691 237.474C228.827 236.574 228.395 235.368 228.395 233.838C228.395 232.452 228.791 231.3 229.619 230.364C230.411 229.41 231.509 228.942 232.877 228.942ZM232.931 230.508C232.211 230.508 231.653 230.706 231.221 231.138C230.825 231.552 230.555 232.146 230.447 232.938H235.469C235.289 231.318 234.443 230.508 232.931 230.508ZM241.922 226.188V229.194H244.046V230.778H241.922V236.178C241.922 236.43 241.976 236.61 242.084 236.736C242.192 236.844 242.354 236.916 242.588 236.916H243.812V238.5H242.282C241.49 238.5 240.896 238.284 240.536 237.87C240.176 237.474 240.014 236.916 240.014 236.178V230.778H238.286V229.194H240.014V226.98L241.922 226.188Z" fill="white"/>
</g>
<defs>
<filter id="filter0_d_10_9192" x="212.758" y="223.648" width="35.2876" height="21.104" filterUnits="userSpaceOnUse" color-interpolation-filters="sRGB">
<feFlood flood-opacity="0" result="BackgroundImageFix"/>
<feColorMatrix in="SourceAlpha" type="matrix" values="0 0 0 0 0 0 0 0 0 0 0 0 0 0 0 0 0 0 127 0" result="hardAlpha"/>
<feOffset dy="2"/>
<feGaussianBlur stdDeviation="2"/>
<feComposite in2="hardAlpha" operator="out"/>
<feColorMatrix type="matrix" values="0 0 0 0 0 0 0 0 0 0 0 0 0 0 0 0 0 0 0.3 0"/>
<feBlend mode="normal" in2="BackgroundImageFix" result="effect1_dropShadow_10_9192"/>
<feBlend mode="normal" in="SourceGraphic" in2="effect1_dropShadow_10_9192" result="shape"/>
</filter>
<clipPath id="clip0_10_9192">
<rect width="143" height="46" fill="white" transform="translate(158.5 35)"/>
</clipPath>
<clipPath id="clip1_10_9192">
<rect width="24" height="24" fill="white" transform="translate(158.5 35)"/>
</clipPath>
</defs>
</svg>
