<svg width="460" height="290" viewBox="0 0 460 290" fill="none" xmlns="http://www.w3.org/2000/svg">
<rect width="460" height="290" rx="10" fill="#F4F7FD"/>
<rect x="10.5" y="20" width="439" height="76" rx="9.5" fill="white"/>
<rect x="18" y="27.5" width="50" height="26.5" rx="10" fill="#F1F1F1"/>
<path d="M30.9543 35.54H32.8893L36.6243 44.12H36.6693L40.3893 35.54H42.3243V46.25H40.6893V38.6H40.6293L37.3443 46.25H35.9343L32.6493 38.6H32.5893V46.25H30.9543V35.54ZM45.4059 35.39C45.7209 35.39 45.9909 35.48 46.2009 35.69C46.4109 35.885 46.5159 36.14 46.5159 36.455C46.5159 36.77 46.3959 37.025 46.1859 37.235C45.9759 37.43 45.7059 37.535 45.4059 37.535C45.0909 37.535 44.8359 37.43 44.6259 37.235C44.4159 37.025 44.3109 36.755 44.3109 36.455C44.3109 36.14 44.4159 35.885 44.6259 35.69C44.8359 35.48 45.0909 35.39 45.4059 35.39ZM44.6109 38.495H46.2009V46.25H44.6109V38.495ZM52.2831 38.285C54.2031 38.285 55.1781 39.335 55.1781 41.465V46.25H53.5881V41.6C53.5881 40.28 52.9731 39.62 51.7731 39.62C51.3231 39.62 50.9181 39.77 50.5881 40.1C50.2281 40.46 50.0031 40.955 49.9431 41.585V46.25H48.3531V38.495H49.9431V39.455C50.2431 39.065 50.5881 38.78 50.9781 38.585C51.3681 38.375 51.8031 38.285 52.2831 38.285Z" fill="#A6A6A6"/>
<rect x="18" y="62" width="50" height="26.5" rx="10" fill="#F1F1F1"/>
<path d="M29.0646 70.04H30.9996L34.7346 78.62H34.7796L38.4996 70.04H40.4346V80.75H38.7996V73.1H38.7396L35.4546 80.75H34.0446L30.7596 73.1H30.6996V80.75H29.0646V70.04ZM45.8862 72.785C47.0262 72.785 47.8662 73.07 48.4062 73.64C48.8712 74.135 49.1112 74.855 49.1112 75.8V80.75H47.6412V79.655C47.3412 80.045 46.9662 80.36 46.5162 80.585C46.0062 80.825 45.4062 80.96 44.7162 80.96C43.9062 80.96 43.2762 80.75 42.8262 80.345C42.3312 79.94 42.0912 79.415 42.0912 78.77C42.0912 77.9 42.4362 77.225 43.1262 76.76C43.7562 76.31 44.6562 76.085 45.7962 76.055L47.5362 76.01V75.695C47.5362 74.615 46.9512 74.075 45.7812 74.075C45.2862 74.075 44.8812 74.165 44.5812 74.345C44.2212 74.555 43.9962 74.87 43.9062 75.305L42.3312 75.17C42.4962 74.33 42.9162 73.7 43.5762 73.31C44.1462 72.95 44.9262 72.785 45.8862 72.785ZM47.5362 77.165L45.9012 77.21C44.4462 77.24 43.7262 77.75 43.7262 78.71C43.7262 79.01 43.8462 79.25 44.1012 79.445C44.3412 79.64 44.6712 79.745 45.0762 79.745C45.7512 79.745 46.3212 79.535 46.8012 79.13C47.2812 78.725 47.5362 78.215 47.5362 77.615V77.165ZM50.4513 72.995H52.3113L54.0213 75.455L55.7163 72.995H57.5763L54.8913 76.625L57.9063 80.75H56.0463L54.0213 77.795L51.9813 80.75H50.1063L53.1363 76.625L50.4513 72.995Z" fill="#A6A6A6"/>
<g clip-path="url(#clip0_30_5936)">
<g clip-path="url(#clip1_30_5936)">
<path d="M182.139 49.9029C180.537 56.3315 174.026 60.2438 167.596 58.6407C161.17 57.038 157.257 50.5265 158.861 44.0984C160.463 37.669 166.974 33.7564 173.401 35.3591C179.83 36.9618 183.742 43.474 182.139 49.903L182.139 49.9029H182.139Z" fill="#F7931A"/>
<path d="M175.792 45.2903C176.03 43.6934 174.815 42.835 173.152 42.2623L173.691 40.0991L172.375 39.771L171.85 41.8773C171.503 41.7909 171.148 41.7096 170.795 41.6289L171.323 39.5088L170.007 39.1807L169.468 41.3432C169.181 41.2779 168.9 41.2135 168.627 41.1455L168.628 41.1387L166.813 40.6853L166.462 42.0917C166.462 42.0917 167.439 42.3157 167.419 42.3294C167.952 42.4625 168.048 42.8155 168.032 43.0953L167.418 45.5597C167.455 45.569 167.502 45.5825 167.555 45.6036C167.511 45.5927 167.464 45.5808 167.416 45.5692L166.555 49.0214C166.489 49.1834 166.324 49.4266 165.951 49.3342C165.964 49.3534 164.994 49.0954 164.994 49.0954L164.34 50.6027L166.054 51.0299C166.373 51.1098 166.685 51.1935 166.993 51.2721L166.448 53.4601L167.763 53.7883L168.303 51.6235C168.662 51.721 169.011 51.811 169.352 51.8958L168.814 54.0504L170.131 54.3785L170.676 52.1946C172.921 52.6196 174.61 52.4482 175.321 50.4172C175.893 48.7821 175.292 47.8389 174.111 47.2238C174.971 47.0254 175.619 46.4595 175.792 45.2905L175.792 45.2902L175.792 45.2903ZM172.783 49.5091C172.376 51.1443 169.623 50.2604 168.73 50.0387L169.453 47.14C170.346 47.3628 173.208 47.8038 172.783 49.5091H172.783ZM173.19 45.2666C172.819 46.754 170.527 45.9984 169.784 45.8131L170.44 43.1841C171.183 43.3694 173.577 43.7152 173.19 45.2666H173.19Z" fill="white"/>
</g>
<path d="M187.715 48.5049C187.715 46.0557 188.154 44.3418 189.033 43.3633C189.918 42.3848 191.263 41.8955 193.067 41.8955C193.935 41.8955 194.646 42.0039 195.203 42.2207C195.76 42.4316 196.214 42.71 196.565 43.0557C196.917 43.3955 197.192 43.7559 197.392 44.1367C197.597 44.5117 197.761 44.9512 197.884 45.4551C198.124 46.416 198.244 47.418 198.244 48.4609C198.244 50.7988 197.849 52.5098 197.058 53.5938C196.267 54.6777 194.904 55.2197 192.971 55.2197C191.887 55.2197 191.011 55.0469 190.343 54.7012C189.675 54.3555 189.127 53.8486 188.699 53.1807C188.389 52.7061 188.146 52.0586 187.97 51.2383C187.8 50.4121 187.715 49.501 187.715 48.5049ZM191.266 48.5137C191.266 50.1543 191.409 51.2764 191.696 51.8799C191.989 52.4775 192.411 52.7764 192.962 52.7764C193.325 52.7764 193.639 52.6504 193.902 52.3984C194.172 52.1406 194.368 51.7363 194.491 51.1855C194.62 50.6348 194.685 49.7764 194.685 48.6104C194.685 46.8994 194.538 45.751 194.245 45.165C193.958 44.5732 193.524 44.2773 192.944 44.2773C192.353 44.2773 191.925 44.5791 191.661 45.1826C191.397 45.7803 191.266 46.8906 191.266 48.5137ZM200.072 51.4141H203.896V55H200.072V51.4141ZM205.715 48.5049C205.715 46.0557 206.154 44.3418 207.033 43.3633C207.918 42.3848 209.263 41.8955 211.067 41.8955C211.935 41.8955 212.646 42.0039 213.203 42.2207C213.76 42.4316 214.214 42.71 214.565 43.0557C214.917 43.3955 215.192 43.7559 215.392 44.1367C215.597 44.5117 215.761 44.9512 215.884 45.4551C216.124 46.416 216.244 47.418 216.244 48.4609C216.244 50.7988 215.849 52.5098 215.058 53.5938C214.267 54.6777 212.904 55.2197 210.971 55.2197C209.887 55.2197 209.011 55.0469 208.343 54.7012C207.675 54.3555 207.127 53.8486 206.699 53.1807C206.389 52.7061 206.146 52.0586 205.97 51.2383C205.8 50.4121 205.715 49.501 205.715 48.5049ZM209.266 48.5137C209.266 50.1543 209.409 51.2764 209.696 51.8799C209.989 52.4775 210.411 52.7764 210.962 52.7764C211.325 52.7764 211.639 52.6504 211.902 52.3984C212.172 52.1406 212.368 51.7363 212.491 51.1855C212.62 50.6348 212.685 49.7764 212.685 48.6104C212.685 46.8994 212.538 45.751 212.245 45.165C211.958 44.5732 211.524 44.2773 210.944 44.2773C210.353 44.2773 209.925 44.5791 209.661 45.1826C209.397 45.7803 209.266 46.8906 209.266 48.5137ZM217.721 48.5049C217.721 46.0557 218.16 44.3418 219.039 43.3633C219.924 42.3848 221.269 41.8955 223.073 41.8955C223.94 41.8955 224.652 42.0039 225.209 42.2207C225.766 42.4316 226.22 42.71 226.571 43.0557C226.923 43.3955 227.198 43.7559 227.397 44.1367C227.603 44.5117 227.767 44.9512 227.89 45.4551C228.13 46.416 228.25 47.418 228.25 48.4609C228.25 50.7988 227.854 52.5098 227.063 53.5938C226.272 54.6777 224.91 55.2197 222.977 55.2197C221.893 55.2197 221.017 55.0469 220.349 54.7012C219.681 54.3555 219.133 53.8486 218.705 53.1807C218.395 52.7061 218.151 52.0586 217.976 51.2383C217.806 50.4121 217.721 49.501 217.721 48.5049ZM221.271 48.5137C221.271 50.1543 221.415 51.2764 221.702 51.8799C221.995 52.4775 222.417 52.7764 222.968 52.7764C223.331 52.7764 223.645 52.6504 223.908 52.3984C224.178 52.1406 224.374 51.7363 224.497 51.1855C224.626 50.6348 224.69 49.7764 224.69 48.6104C224.69 46.8994 224.544 45.751 224.251 45.165C223.964 44.5732 223.53 44.2773 222.95 44.2773C222.358 44.2773 221.931 44.5791 221.667 45.1826C221.403 45.7803 221.271 46.8906 221.271 48.5137ZM229.727 48.5049C229.727 46.0557 230.166 44.3418 231.045 43.3633C231.93 42.3848 233.274 41.8955 235.079 41.8955C235.946 41.8955 236.658 42.0039 237.215 42.2207C237.771 42.4316 238.226 42.71 238.577 43.0557C238.929 43.3955 239.204 43.7559 239.403 44.1367C239.608 44.5117 239.772 44.9512 239.896 45.4551C240.136 46.416 240.256 47.418 240.256 48.4609C240.256 50.7988 239.86 52.5098 239.069 53.5938C238.278 54.6777 236.916 55.2197 234.982 55.2197C233.898 55.2197 233.022 55.0469 232.354 54.7012C231.687 54.3555 231.139 53.8486 230.711 53.1807C230.4 52.7061 230.157 52.0586 229.981 51.2383C229.812 50.4121 229.727 49.501 229.727 48.5049ZM233.277 48.5137C233.277 50.1543 233.421 51.2764 233.708 51.8799C234.001 52.4775 234.423 52.7764 234.974 52.7764C235.337 52.7764 235.65 52.6504 235.914 52.3984C236.184 52.1406 236.38 51.7363 236.503 51.1855C236.632 50.6348 236.696 49.7764 236.696 48.6104C236.696 46.8994 236.55 45.751 236.257 45.165C235.97 44.5732 235.536 44.2773 234.956 44.2773C234.364 44.2773 233.937 44.5791 233.673 45.1826C233.409 45.7803 233.277 46.8906 233.277 48.5137ZM241.732 48.5049C241.732 46.0557 242.172 44.3418 243.051 43.3633C243.936 42.3848 245.28 41.8955 247.085 41.8955C247.952 41.8955 248.664 42.0039 249.221 42.2207C249.777 42.4316 250.231 42.71 250.583 43.0557C250.935 43.3955 251.21 43.7559 251.409 44.1367C251.614 44.5117 251.778 44.9512 251.901 45.4551C252.142 46.416 252.262 47.418 252.262 48.4609C252.262 50.7988 251.866 52.5098 251.075 53.5938C250.284 54.6777 248.922 55.2197 246.988 55.2197C245.904 55.2197 245.028 55.0469 244.36 54.7012C243.692 54.3555 243.145 53.8486 242.717 53.1807C242.406 52.7061 242.163 52.0586 241.987 51.2383C241.817 50.4121 241.732 49.501 241.732 48.5049ZM245.283 48.5137C245.283 50.1543 245.427 51.2764 245.714 51.8799C246.007 52.4775 246.429 52.7764 246.979 52.7764C247.343 52.7764 247.656 52.6504 247.92 52.3984C248.189 52.1406 248.386 51.7363 248.509 51.1855C248.638 50.6348 248.702 49.7764 248.702 48.6104C248.702 46.8994 248.556 45.751 248.263 45.165C247.976 44.5732 247.542 44.2773 246.962 44.2773C246.37 44.2773 245.942 44.5791 245.679 45.1826C245.415 45.7803 245.283 46.8906 245.283 48.5137ZM261.851 41.8955V55H258.229V46.4131C257.644 46.8584 257.075 47.2188 256.524 47.4941C255.979 47.7695 255.294 48.0332 254.468 48.2852V45.3496C255.687 44.957 256.633 44.4854 257.307 43.9346C257.98 43.3838 258.508 42.7041 258.889 41.8955H261.851ZM265.744 48.5049C265.744 46.0557 266.184 44.3418 267.062 43.3633C267.947 42.3848 269.292 41.8955 271.097 41.8955C271.964 41.8955 272.676 42.0039 273.232 42.2207C273.789 42.4316 274.243 42.71 274.595 43.0557C274.946 43.3955 275.222 43.7559 275.421 44.1367C275.626 44.5117 275.79 44.9512 275.913 45.4551C276.153 46.416 276.273 47.418 276.273 48.4609C276.273 50.7988 275.878 52.5098 275.087 53.5938C274.296 54.6777 272.934 55.2197 271 55.2197C269.916 55.2197 269.04 55.0469 268.372 54.7012C267.704 54.3555 267.156 53.8486 266.729 53.1807C266.418 52.7061 266.175 52.0586 265.999 51.2383C265.829 50.4121 265.744 49.501 265.744 48.5049ZM269.295 48.5137C269.295 50.1543 269.438 51.2764 269.726 51.8799C270.019 52.4775 270.44 52.7764 270.991 52.7764C271.354 52.7764 271.668 52.6504 271.932 52.3984C272.201 52.1406 272.397 51.7363 272.521 51.1855C272.649 50.6348 272.714 49.7764 272.714 48.6104C272.714 46.8994 272.567 45.751 272.274 45.165C271.987 44.5732 271.554 44.2773 270.974 44.2773C270.382 44.2773 269.954 44.5791 269.69 45.1826C269.427 45.7803 269.295 46.8906 269.295 48.5137ZM277.75 48.5049C277.75 46.0557 278.189 44.3418 279.068 43.3633C279.953 42.3848 281.298 41.8955 283.103 41.8955C283.97 41.8955 284.682 42.0039 285.238 42.2207C285.795 42.4316 286.249 42.71 286.601 43.0557C286.952 43.3955 287.228 43.7559 287.427 44.1367C287.632 44.5117 287.796 44.9512 287.919 45.4551C288.159 46.416 288.279 47.418 288.279 48.4609C288.279 50.7988 287.884 52.5098 287.093 53.5938C286.302 54.6777 284.939 55.2197 283.006 55.2197C281.922 55.2197 281.046 55.0469 280.378 54.7012C279.71 54.3555 279.162 53.8486 278.734 53.1807C278.424 52.7061 278.181 52.0586 278.005 51.2383C277.835 50.4121 277.75 49.501 277.75 48.5049ZM281.301 48.5137C281.301 50.1543 281.444 51.2764 281.731 51.8799C282.024 52.4775 282.446 52.7764 282.997 52.7764C283.36 52.7764 283.674 52.6504 283.938 52.3984C284.207 52.1406 284.403 51.7363 284.526 51.1855C284.655 50.6348 284.72 49.7764 284.72 48.6104C284.72 46.8994 284.573 45.751 284.28 45.165C283.993 44.5732 283.56 44.2773 282.979 44.2773C282.388 44.2773 281.96 44.5791 281.696 45.1826C281.433 45.7803 281.301 46.8906 281.301 48.5137ZM289.756 48.5049C289.756 46.0557 290.195 44.3418 291.074 43.3633C291.959 42.3848 293.304 41.8955 295.108 41.8955C295.976 41.8955 296.688 42.0039 297.244 42.2207C297.801 42.4316 298.255 42.71 298.606 43.0557C298.958 43.3955 299.233 43.7559 299.433 44.1367C299.638 44.5117 299.802 44.9512 299.925 45.4551C300.165 46.416 300.285 47.418 300.285 48.4609C300.285 50.7988 299.89 52.5098 299.099 53.5938C298.308 54.6777 296.945 55.2197 295.012 55.2197C293.928 55.2197 293.052 55.0469 292.384 54.7012C291.716 54.3555 291.168 53.8486 290.74 53.1807C290.43 52.7061 290.187 52.0586 290.011 51.2383C289.841 50.4121 289.756 49.501 289.756 48.5049ZM293.307 48.5137C293.307 50.1543 293.45 51.2764 293.737 51.8799C294.03 52.4775 294.452 52.7764 295.003 52.7764C295.366 52.7764 295.68 52.6504 295.943 52.3984C296.213 52.1406 296.409 51.7363 296.532 51.1855C296.661 50.6348 296.726 49.7764 296.726 48.6104C296.726 46.8994 296.579 45.751 296.286 45.165C295.999 44.5732 295.565 44.2773 294.985 44.2773C294.394 44.2773 293.966 44.5791 293.702 45.1826C293.438 45.7803 293.307 46.8906 293.307 48.5137Z" fill="#484848"/>
<path d="M190.421 76.4106V73.3418C189.464 73.0684 188.761 72.6558 188.312 72.104C187.867 71.5474 187.645 70.8735 187.645 70.0825C187.645 69.2817 187.896 68.6104 188.399 68.0684C188.907 67.5215 189.581 67.2065 190.421 67.1235V66.3984H191.483V67.1235C192.259 67.2163 192.877 67.4824 193.336 67.9219C193.795 68.3564 194.088 68.9399 194.215 69.6724L192.362 69.9141C192.25 69.3379 191.957 68.9473 191.483 68.7422V71.606C192.655 71.9233 193.453 72.3359 193.878 72.8438C194.303 73.3467 194.515 73.9937 194.515 74.7847C194.515 75.6685 194.247 76.4131 193.709 77.0186C193.177 77.624 192.435 77.9951 191.483 78.1318V79.5015H190.421V78.1685C189.576 78.0659 188.89 77.751 188.363 77.2236C187.835 76.6963 187.499 75.9517 187.352 74.9897L189.264 74.7847C189.342 75.1753 189.488 75.5122 189.703 75.7954C189.918 76.0786 190.157 76.2837 190.421 76.4106ZM190.421 68.7202C190.133 68.8179 189.903 68.9839 189.732 69.2183C189.562 69.4526 189.476 69.7114 189.476 69.9946C189.476 70.2534 189.554 70.4951 189.71 70.7197C189.867 70.9395 190.104 71.1177 190.421 71.2544V68.7202ZM191.483 76.5132C191.849 76.4448 192.147 76.2764 192.376 76.0078C192.606 75.7344 192.721 75.4146 192.721 75.0483C192.721 74.7212 192.623 74.4404 192.428 74.2061C192.237 73.9668 191.922 73.7837 191.483 73.6567V76.5132ZM199.862 78V75.8394H195.467V74.0376L200.125 67.2188H201.854V74.0303H203.187V75.8394H201.854V78H199.862ZM199.862 74.0303V70.3608L197.394 74.0303H199.862ZM204.615 78V75.9419H206.673V78H204.615ZM212.386 78V75.8394H207.992V74.0376L212.65 67.2188H214.378V74.0303H215.711V75.8394H214.378V78H212.386ZM212.386 74.0303V70.3608L209.918 74.0303H212.386ZM220.179 67.2188C221.219 67.2188 222.032 67.5898 222.618 68.332C223.316 69.2109 223.666 70.6685 223.666 72.7046C223.666 74.7358 223.314 76.1958 222.611 77.0845C222.03 77.8169 221.219 78.1831 220.179 78.1831C219.134 78.1831 218.292 77.7827 217.652 76.9819C217.013 76.1763 216.693 74.7432 216.693 72.6826C216.693 70.6611 217.044 69.2061 217.748 68.3174C218.329 67.585 219.139 67.2188 220.179 67.2188ZM220.179 68.9253C219.93 68.9253 219.708 69.0059 219.513 69.167C219.317 69.3232 219.166 69.6064 219.059 70.0166C218.917 70.5488 218.846 71.4448 218.846 72.7046C218.846 73.9644 218.91 74.8311 219.037 75.3047C219.164 75.7734 219.322 76.0859 219.513 76.2422C219.708 76.3984 219.93 76.4766 220.179 76.4766C220.428 76.4766 220.65 76.3984 220.846 76.2422C221.041 76.0811 221.192 75.7954 221.3 75.3853C221.441 74.8579 221.512 73.9644 221.512 72.7046C221.512 71.4448 221.449 70.5806 221.322 70.1118C221.195 69.6382 221.034 69.3232 220.838 69.167C220.648 69.0059 220.428 68.9253 220.179 68.9253ZM228.529 67.2188C229.569 67.2188 230.382 67.5898 230.968 68.332C231.666 69.2109 232.015 70.6685 232.015 72.7046C232.015 74.7358 231.664 76.1958 230.96 77.0845C230.379 77.8169 229.569 78.1831 228.529 78.1831C227.484 78.1831 226.642 77.7827 226.002 76.9819C225.362 76.1763 225.042 74.7432 225.042 72.6826C225.042 70.6611 225.394 69.2061 226.097 68.3174C226.678 67.585 227.489 67.2188 228.529 67.2188ZM228.529 68.9253C228.28 68.9253 228.058 69.0059 227.862 69.167C227.667 69.3232 227.516 69.6064 227.408 70.0166C227.267 70.5488 227.196 71.4448 227.196 72.7046C227.196 73.9644 227.259 74.8311 227.386 75.3047C227.513 75.7734 227.672 76.0859 227.862 76.2422C228.058 76.3984 228.28 76.4766 228.529 76.4766C228.778 76.4766 229 76.3984 229.195 76.2422C229.391 76.0811 229.542 75.7954 229.649 75.3853C229.791 74.8579 229.862 73.9644 229.862 72.7046C229.862 71.4448 229.798 70.5806 229.671 70.1118C229.544 69.6382 229.383 69.3232 229.188 69.167C228.998 69.0059 228.778 68.9253 228.529 68.9253ZM236.878 67.2188C237.918 67.2188 238.731 67.5898 239.317 68.332C240.016 69.2109 240.365 70.6685 240.365 72.7046C240.365 74.7358 240.013 76.1958 239.31 77.0845C238.729 77.8169 237.918 78.1831 236.878 78.1831C235.833 78.1831 234.991 77.7827 234.352 76.9819C233.712 76.1763 233.392 74.7432 233.392 72.6826C233.392 70.6611 233.744 69.2061 234.447 68.3174C235.028 67.585 235.838 67.2188 236.878 67.2188ZM236.878 68.9253C236.629 68.9253 236.407 69.0059 236.212 69.167C236.017 69.3232 235.865 69.6064 235.758 70.0166C235.616 70.5488 235.545 71.4448 235.545 72.7046C235.545 73.9644 235.609 74.8311 235.736 75.3047C235.863 75.7734 236.021 76.0859 236.212 76.2422C236.407 76.3984 236.629 76.4766 236.878 76.4766C237.127 76.4766 237.35 76.3984 237.545 76.2422C237.74 76.0811 237.892 75.7954 237.999 75.3853C238.141 74.8579 238.211 73.9644 238.211 72.7046C238.211 71.4448 238.148 70.5806 238.021 70.1118C237.894 69.6382 237.733 69.3232 237.538 69.167C237.347 69.0059 237.127 68.9253 236.878 68.9253ZM245.228 67.2188C246.268 67.2188 247.081 67.5898 247.667 68.332C248.365 69.2109 248.714 70.6685 248.714 72.7046C248.714 74.7358 248.363 76.1958 247.66 77.0845C247.079 77.8169 246.268 78.1831 245.228 78.1831C244.183 78.1831 243.341 77.7827 242.701 76.9819C242.062 76.1763 241.742 74.7432 241.742 72.6826C241.742 70.6611 242.093 69.2061 242.796 68.3174C243.377 67.585 244.188 67.2188 245.228 67.2188ZM245.228 68.9253C244.979 68.9253 244.757 69.0059 244.562 69.167C244.366 69.3232 244.215 69.6064 244.107 70.0166C243.966 70.5488 243.895 71.4448 243.895 72.7046C243.895 73.9644 243.958 74.8311 244.085 75.3047C244.212 75.7734 244.371 76.0859 244.562 76.2422C244.757 76.3984 244.979 76.4766 245.228 76.4766C245.477 76.4766 245.699 76.3984 245.895 76.2422C246.09 76.0811 246.241 75.7954 246.349 75.3853C246.49 74.8579 246.561 73.9644 246.561 72.7046C246.561 71.4448 246.498 70.5806 246.371 70.1118C246.244 69.6382 246.083 69.3232 245.887 69.167C245.697 69.0059 245.477 68.9253 245.228 68.9253ZM253.578 67.2188C254.618 67.2188 255.431 67.5898 256.017 68.332C256.715 69.2109 257.064 70.6685 257.064 72.7046C257.064 74.7358 256.712 76.1958 256.009 77.0845C255.428 77.8169 254.618 78.1831 253.578 78.1831C252.533 78.1831 251.69 77.7827 251.051 76.9819C250.411 76.1763 250.091 74.7432 250.091 72.6826C250.091 70.6611 250.443 69.2061 251.146 68.3174C251.727 67.585 252.538 67.2188 253.578 67.2188ZM253.578 68.9253C253.329 68.9253 253.106 69.0059 252.911 69.167C252.716 69.3232 252.564 69.6064 252.457 70.0166C252.315 70.5488 252.245 71.4448 252.245 72.7046C252.245 73.9644 252.308 74.8311 252.435 75.3047C252.562 75.7734 252.721 76.0859 252.911 76.2422C253.106 76.3984 253.329 76.4766 253.578 76.4766C253.827 76.4766 254.049 76.3984 254.244 76.2422C254.439 76.0811 254.591 75.7954 254.698 75.3853C254.84 74.8579 254.911 73.9644 254.911 72.7046C254.911 71.4448 254.847 70.5806 254.72 70.1118C254.593 69.6382 254.432 69.3232 254.237 69.167C254.046 69.0059 253.827 68.9253 253.578 68.9253ZM261.927 67.2188C262.967 67.2188 263.78 67.5898 264.366 68.332C265.064 69.2109 265.414 70.6685 265.414 72.7046C265.414 74.7358 265.062 76.1958 264.359 77.0845C263.778 77.8169 262.967 78.1831 261.927 78.1831C260.882 78.1831 260.04 77.7827 259.4 76.9819C258.761 76.1763 258.441 74.7432 258.441 72.6826C258.441 70.6611 258.792 69.2061 259.496 68.3174C260.077 67.585 260.887 67.2188 261.927 67.2188ZM261.927 68.9253C261.678 68.9253 261.456 69.0059 261.261 69.167C261.065 69.3232 260.914 69.6064 260.807 70.0166C260.665 70.5488 260.594 71.4448 260.594 72.7046C260.594 73.9644 260.658 74.8311 260.785 75.3047C260.912 75.7734 261.07 76.0859 261.261 76.2422C261.456 76.3984 261.678 76.4766 261.927 76.4766C262.176 76.4766 262.398 76.3984 262.594 76.2422C262.789 76.0811 262.94 75.7954 263.048 75.3853C263.189 74.8579 263.26 73.9644 263.26 72.7046C263.26 71.4448 263.197 70.5806 263.07 70.1118C262.943 69.6382 262.782 69.3232 262.586 69.167C262.396 69.0059 262.176 68.9253 261.927 68.9253Z" fill="#A6A6A6"/>
</g>
<rect x="392" y="27.5" width="50" height="26.5" rx="10" fill="#F1F1F1"/>
<path d="M409.171 35.54H410.401V46.25H408.766V37.505C408.121 38.12 407.296 38.57 406.306 38.855V37.235C406.786 37.115 407.281 36.905 407.821 36.605C408.361 36.275 408.811 35.93 409.171 35.54ZM417.499 33.95H418.879L413.644 47.75H412.249L417.499 33.95ZM423.979 35.33C424.999 35.33 425.854 35.615 426.514 36.215C427.159 36.815 427.489 37.58 427.489 38.525C427.489 39.455 427.129 40.295 426.439 41.06C426.019 41.495 425.284 42.065 424.219 42.785C423.064 43.55 422.374 44.225 422.149 44.81H427.504V46.25H420.124C420.124 45.185 420.469 44.255 421.189 43.445C421.579 42.98 422.389 42.335 423.604 41.495C424.324 40.985 424.834 40.58 425.134 40.265C425.614 39.725 425.869 39.14 425.869 38.51C425.869 37.91 425.704 37.46 425.374 37.16C425.044 36.86 424.549 36.71 423.919 36.71C423.244 36.71 422.734 36.935 422.389 37.4C422.029 37.85 421.849 38.495 421.819 39.365H420.184C420.199 38.165 420.544 37.205 421.219 36.485C421.909 35.705 422.839 35.33 423.979 35.33Z" fill="#A6A6A6"/>
<rect x="392" y="62" width="50" height="26.5" rx="10" fill="#F1F1F1"/>
<path d="M413.191 69.83C414.211 69.83 415.066 70.115 415.726 70.715C416.371 71.315 416.701 72.08 416.701 73.025C416.701 73.955 416.341 74.795 415.651 75.56C415.231 75.995 414.496 76.565 413.431 77.285C412.276 78.05 411.586 78.725 411.361 79.31H416.716V80.75H409.336C409.336 79.685 409.681 78.755 410.401 77.945C410.791 77.48 411.601 76.835 412.816 75.995C413.536 75.485 414.046 75.08 414.346 74.765C414.826 74.225 415.081 73.64 415.081 73.01C415.081 72.41 414.916 71.96 414.586 71.66C414.256 71.36 413.761 71.21 413.131 71.21C412.456 71.21 411.946 71.435 411.601 71.9C411.241 72.35 411.061 72.995 411.031 73.865H409.396C409.411 72.665 409.756 71.705 410.431 70.985C411.121 70.205 412.051 69.83 413.191 69.83ZM417.94 72.995H419.8L421.51 75.455L423.205 72.995H425.065L422.38 76.625L425.395 80.75H423.535L421.51 77.795L419.47 80.75H417.595L420.625 76.625L417.94 72.995Z" fill="#A6A6A6"/>
<rect x="10.5" y="20" width="439" height="76" rx="9.5" stroke="#ECECEC"/>
<path d="M14.62 114.535C15.76 114.535 16.585 114.97 17.065 115.84C17.41 115.36 17.785 115.015 18.175 114.82C18.535 114.625 18.97 114.535 19.495 114.535C20.29 114.535 20.95 114.79 21.475 115.33C21.985 115.855 22.255 116.545 22.255 117.415V122.5H20.665V117.685C20.665 117.055 20.53 116.59 20.26 116.305C19.99 116.005 19.54 115.87 18.94 115.87C18.49 115.87 18.13 116.035 17.83 116.365C17.53 116.695 17.38 117.16 17.38 117.73V122.5H15.79V117.7C15.79 116.47 15.25 115.87 14.2 115.87C13.69 115.87 13.27 116.065 12.97 116.455C12.64 116.83 12.49 117.295 12.49 117.835V122.5H10.9V114.745H12.49V115.6C13.12 114.88 13.84 114.535 14.62 114.535ZM24.0543 114.745H25.6443V119.47C25.6443 120.13 25.7793 120.61 26.0643 120.91C26.3343 121.21 26.7843 121.375 27.3993 121.375C27.8193 121.375 28.1943 121.195 28.5543 120.865C28.9143 120.52 29.1693 120.055 29.3043 119.485V114.745H30.8943V122.5H29.3043V121.45C28.6443 122.29 27.8343 122.71 26.8593 122.71C24.9843 122.71 24.0543 121.66 24.0543 119.575V114.745ZM35.5615 123.475C35.7715 123.475 35.9665 123.55 36.1165 123.7C36.2665 123.85 36.3565 124.045 36.3565 124.27C36.3565 124.48 36.2665 124.675 36.1165 124.825C35.9665 124.975 35.7715 125.05 35.5615 125.05C35.3365 125.05 35.1565 124.975 35.0065 124.825C34.8415 124.675 34.7665 124.48 34.7665 124.27C34.7665 124.045 34.8415 123.85 35.0065 123.7C35.1565 123.55 35.3365 123.475 35.5615 123.475ZM36.1615 114.535C37.1515 114.535 37.9465 114.76 38.5465 115.21C39.1465 115.69 39.5365 116.41 39.6865 117.37H38.1115C38.0065 116.845 37.7965 116.455 37.4665 116.215C37.1365 115.96 36.7015 115.84 36.1615 115.84C35.5015 115.84 34.9915 116.08 34.6165 116.575C34.2265 117.055 34.0465 117.745 34.0465 118.615C34.0465 119.485 34.2265 120.175 34.6015 120.67C34.9465 121.15 35.4565 121.405 36.1465 121.405C37.3315 121.405 37.9915 120.805 38.1415 119.635H39.7165C39.5365 120.67 39.1315 121.45 38.5315 121.96C37.9315 122.455 37.1215 122.71 36.1315 122.71C34.9465 122.71 34.0315 122.32 33.3715 121.54C32.7265 120.79 32.4115 119.83 32.4115 118.63C32.4115 117.46 32.7265 116.5 33.3565 115.75C34.0315 114.94 34.9615 114.535 36.1615 114.535ZM48.4259 112.24V114.745H50.1959V116.065H48.4259V120.565C48.4259 120.775 48.4709 120.925 48.5609 121.03C48.6509 121.12 48.7859 121.18 48.9809 121.18H50.0009V122.5H48.7259C48.0659 122.5 47.5709 122.32 47.2709 121.975C46.9709 121.645 46.8359 121.18 46.8359 120.565V116.065H45.3959V114.745H46.8359V112.9L48.4259 112.24ZM52.6012 111.64C52.9162 111.64 53.1862 111.73 53.3962 111.94C53.6062 112.135 53.7112 112.39 53.7112 112.705C53.7112 113.02 53.5912 113.275 53.3812 113.485C53.1712 113.68 52.9012 113.785 52.6012 113.785C52.2862 113.785 52.0312 113.68 51.8212 113.485C51.6112 113.275 51.5062 113.005 51.5062 112.705C51.5062 112.39 51.6112 112.135 51.8212 111.94C52.0312 111.73 52.2862 111.64 52.6012 111.64ZM51.8062 114.745H53.3962V122.5H51.8062V114.745ZM58.1884 111.76H59.5834L61.1284 113.665H60.1234L58.8934 112.45L57.6334 113.665H56.6284L58.1884 111.76ZM58.8334 114.535C60.0934 114.535 61.0684 114.955 61.7284 115.825C62.3284 116.605 62.6434 117.685 62.6584 119.065H56.7784C56.8384 119.815 57.0334 120.4 57.3934 120.805C57.7534 121.195 58.2484 121.405 58.8784 121.405C59.4334 121.405 59.8834 121.27 60.2284 121.015C60.4984 120.805 60.7234 120.46 60.9334 120.01H62.5234C62.3434 120.73 61.9984 121.345 61.4584 121.825C60.7834 122.41 59.9284 122.71 58.8934 122.71C57.7534 122.71 56.8384 122.35 56.1784 121.645C55.4584 120.895 55.0984 119.89 55.0984 118.615C55.0984 117.46 55.4284 116.5 56.1184 115.72C56.7784 114.925 57.6934 114.535 58.8334 114.535ZM58.8784 115.84C58.2784 115.84 57.8134 116.005 57.4534 116.365C57.1234 116.71 56.8984 117.205 56.8084 117.865H60.9934C60.8434 116.515 60.1384 115.84 58.8784 115.84ZM64.0152 114.745H65.6052V119.47C65.6052 120.13 65.7402 120.61 66.0252 120.91C66.2952 121.21 66.7452 121.375 67.3602 121.375C67.7802 121.375 68.1552 121.195 68.5152 120.865C68.8752 120.52 69.1302 120.055 69.2652 119.485V114.745H70.8552V122.5H69.2652V121.45C68.6052 122.29 67.7952 122.71 66.8202 122.71C64.9452 122.71 64.0152 121.66 64.0152 119.575V114.745ZM81.5976 114.535C83.5176 114.535 84.4926 115.585 84.4926 117.715V122.5H82.9026V117.85C82.9026 116.53 82.2876 115.87 81.0876 115.87C80.6376 115.87 80.2326 116.02 79.9026 116.35C79.5426 116.71 79.3176 117.205 79.2576 117.835V122.5H77.6676V114.745H79.2576V115.705C79.5576 115.315 79.9026 115.03 80.2926 114.835C80.6826 114.625 81.1176 114.535 81.5976 114.535ZM86.3102 111.58H87.9002V115.84C88.1852 115.39 88.5452 115.045 88.9802 114.835C89.3702 114.625 89.8052 114.535 90.3002 114.535C91.2302 114.535 91.9352 114.805 92.4152 115.36C92.8652 115.885 93.0902 116.665 93.0902 117.685V122.5H91.5002V117.955C91.5002 117.265 91.3502 116.755 91.0802 116.395C90.7802 116.02 90.3152 115.84 89.7152 115.84C89.1752 115.84 88.7402 116.05 88.4102 116.485C88.0652 116.92 87.9002 117.475 87.9002 118.15V122.5H86.3102V111.58ZM97.6091 111.76H99.0041L100.564 113.665H99.5591L98.2991 112.45L97.0691 113.665H95.9741L97.6091 111.76ZM98.3891 114.535C99.5291 114.535 100.369 114.82 100.909 115.39C101.374 115.885 101.614 116.605 101.614 117.55V122.5H100.144V121.405C99.8441 121.795 99.4541 122.11 99.0041 122.35C98.4941 122.59 97.8941 122.71 97.2191 122.71C96.4091 122.71 95.7791 122.5 95.3291 122.095C94.8341 121.69 94.5941 121.165 94.5941 120.52C94.5941 119.65 94.9391 118.975 95.6291 118.51C96.2591 118.06 97.1591 117.835 98.2991 117.805L100.039 117.76V117.445C100.039 116.365 99.4541 115.825 98.2841 115.825C97.7891 115.825 97.3841 115.915 97.0841 116.095C96.7241 116.305 96.4991 116.62 96.4091 117.055L94.8341 116.92C94.9991 116.08 95.4191 115.45 96.0791 115.06C96.6491 114.7 97.4291 114.535 98.3891 114.535ZM100.039 118.915L98.4041 118.96C96.9491 118.99 96.2291 119.5 96.2291 120.46C96.2291 120.76 96.3491 121 96.6041 121.195C96.8441 121.39 97.1741 121.495 97.5791 121.495C98.2541 121.495 98.8241 121.285 99.3041 120.88C99.7841 120.475 100.039 119.965 100.039 119.365V118.915ZM107.364 114.535C109.284 114.535 110.259 115.585 110.259 117.715V122.5H108.669V117.85C108.669 116.53 108.054 115.87 106.854 115.87C106.404 115.87 105.999 116.02 105.669 116.35C105.309 116.71 105.084 117.205 105.024 117.835V122.5H103.434V114.745H105.024V115.705C105.324 115.315 105.669 115.03 106.059 114.835C106.449 114.625 106.884 114.535 107.364 114.535Z" fill="#A6A6A6"/>
<rect x="10.5" y="134" width="409" height="49" rx="9.5" fill="white"/>
<rect x="10.5" y="134" width="439" height="49" rx="9.5" fill="white"/>
<path d="M37.9145 153.08C38.9345 153.08 39.7895 153.365 40.4495 153.965C41.0945 154.565 41.4245 155.33 41.4245 156.275C41.4245 157.205 41.0645 158.045 40.3745 158.81C39.9545 159.245 39.2195 159.815 38.1545 160.535C36.9995 161.3 36.3095 161.975 36.0845 162.56H41.4395V164H34.0595C34.0595 162.935 34.4045 162.005 35.1245 161.195C35.5145 160.73 36.3245 160.085 37.5395 159.245C38.2595 158.735 38.7695 158.33 39.0695 158.015C39.5495 157.475 39.8045 156.89 39.8045 156.26C39.8045 155.66 39.6395 155.21 39.3095 154.91C38.9795 154.61 38.4845 154.46 37.8545 154.46C37.1795 154.46 36.6695 154.685 36.3245 155.15C35.9645 155.6 35.7845 156.245 35.7545 157.115H34.1195C34.1345 155.915 34.4795 154.955 35.1545 154.235C35.8445 153.455 36.7745 153.08 37.9145 153.08Z" fill="#484848"/>
<path d="M417.207 153.29H419.202L421.812 157.16L424.422 153.29H426.417L422.787 158.465L426.672 164H424.677L421.812 159.755L418.947 164H416.952L420.807 158.465L417.207 153.29Z" fill="#A6A6A6"/>
<rect x="10.5" y="134" width="439" height="49" rx="9.5" stroke="#ECECEC"/>
<rect x="10.5" y="134" width="409" height="49" rx="9.5" stroke="#ECECEC"/>
<rect x="10" y="193.5" width="440" height="77" rx="10" fill="#FB6943"/>
<g filter="url(#filter0_d_30_5936)">
<path d="M216.758 225.648H222.626C223.886 225.648 224.858 225.936 225.578 226.548C226.262 227.124 226.604 227.898 226.604 228.888C226.604 229.608 226.424 230.22 226.064 230.724C225.704 231.192 225.218 231.552 224.57 231.786C225.416 231.948 226.064 232.29 226.496 232.812C226.928 233.334 227.144 234.036 227.144 234.9C227.144 236.196 226.694 237.132 225.812 237.744C225.056 238.248 223.994 238.5 222.626 238.5H216.758V225.648ZM218.72 227.268V231.102H222.104C223.004 231.102 223.652 230.94 224.048 230.634C224.444 230.31 224.642 229.806 224.642 229.122C224.642 228.474 224.444 228.006 224.048 227.718C223.652 227.412 223.004 227.268 222.14 227.268H218.72ZM218.72 232.704V236.88H222.356C223.184 236.88 223.832 236.736 224.3 236.484C224.876 236.142 225.182 235.602 225.182 234.864C225.182 234.108 224.948 233.55 224.498 233.208C224.048 232.866 223.346 232.704 222.41 232.704H218.72ZM232.877 228.942C234.389 228.942 235.559 229.446 236.351 230.49C237.071 231.426 237.449 232.722 237.467 234.378H230.411C230.483 235.278 230.717 235.98 231.149 236.466C231.581 236.934 232.175 237.186 232.931 237.186C233.597 237.186 234.137 237.024 234.551 236.718C234.875 236.466 235.145 236.052 235.397 235.512H237.305C237.089 236.376 236.675 237.114 236.027 237.69C235.217 238.392 234.191 238.752 232.949 238.752C231.581 238.752 230.483 238.32 229.691 237.474C228.827 236.574 228.395 235.368 228.395 233.838C228.395 232.452 228.791 231.3 229.619 230.364C230.411 229.41 231.509 228.942 232.877 228.942ZM232.931 230.508C232.211 230.508 231.653 230.706 231.221 231.138C230.825 231.552 230.555 232.146 230.447 232.938H235.469C235.289 231.318 234.443 230.508 232.931 230.508ZM241.922 226.188V229.194H244.046V230.778H241.922V236.178C241.922 236.43 241.976 236.61 242.084 236.736C242.192 236.844 242.354 236.916 242.588 236.916H243.812V238.5H242.282C241.49 238.5 240.896 238.284 240.536 237.87C240.176 237.474 240.014 236.916 240.014 236.178V230.778H238.286V229.194H240.014V226.98L241.922 226.188Z" fill="white"/>
</g>
<defs>
<filter id="filter0_d_30_5936" x="212.758" y="223.648" width="35.2876" height="21.104" filterUnits="userSpaceOnUse" color-interpolation-filters="sRGB">
<feFlood flood-opacity="0" result="BackgroundImageFix"/>
<feColorMatrix in="SourceAlpha" type="matrix" values="0 0 0 0 0 0 0 0 0 0 0 0 0 0 0 0 0 0 127 0" result="hardAlpha"/>
<feOffset dy="2"/>
<feGaussianBlur stdDeviation="2"/>
<feComposite in2="hardAlpha" operator="out"/>
<feColorMatrix type="matrix" values="0 0 0 0 0 0 0 0 0 0 0 0 0 0 0 0 0 0 0.3 0"/>
<feBlend mode="normal" in2="BackgroundImageFix" result="effect1_dropShadow_30_5936"/>
<feBlend mode="normal" in="SourceGraphic" in2="effect1_dropShadow_30_5936" result="shape"/>
</filter>
<clipPath id="clip0_30_5936">
<rect width="143" height="46" fill="white" transform="translate(158.5 35)"/>
</clipPath>
<clipPath id="clip1_30_5936">
<rect width="24" height="24" fill="white" transform="translate(158.5 35)"/>
</clipPath>
</defs>
</svg>
