<svg width="460" height="290" viewBox="0 0 460 290" fill="none" xmlns="http://www.w3.org/2000/svg">
<rect width="460" height="290" rx="10" fill="#0D131C"/>
<path d="M27.62 114.535C28.76 114.535 29.585 114.97 30.065 115.84C30.41 115.36 30.785 115.015 31.175 114.82C31.535 114.625 31.97 114.535 32.495 114.535C33.29 114.535 33.95 114.79 34.475 115.33C34.985 115.855 35.255 116.545 35.255 117.415V122.5H33.665V117.685C33.665 117.055 33.53 116.59 33.26 116.305C32.99 116.005 32.54 115.87 31.94 115.87C31.49 115.87 31.13 116.035 30.83 116.365C30.53 116.695 30.38 117.16 30.38 117.73V122.5H28.79V117.7C28.79 116.47 28.25 115.87 27.2 115.87C26.69 115.87 26.27 116.065 25.97 116.455C25.64 116.83 25.49 117.295 25.49 117.835V122.5H23.9V114.745H25.49V115.6C26.12 114.88 26.84 114.535 27.62 114.535ZM37.0543 114.745H38.6443V119.47C38.6443 120.13 38.7793 120.61 39.0643 120.91C39.3343 121.21 39.7843 121.375 40.3993 121.375C40.8193 121.375 41.1943 121.195 41.5543 120.865C41.9143 120.52 42.1693 120.055 42.3043 119.485V114.745H43.8943V122.5H42.3043V121.45C41.6443 122.29 40.8343 122.71 39.8593 122.71C37.9843 122.71 37.0543 121.66 37.0543 119.575V114.745ZM48.5615 123.475C48.7715 123.475 48.9665 123.55 49.1165 123.7C49.2665 123.85 49.3565 124.045 49.3565 124.27C49.3565 124.48 49.2665 124.675 49.1165 124.825C48.9665 124.975 48.7715 125.05 48.5615 125.05C48.3365 125.05 48.1565 124.975 48.0065 124.825C47.8415 124.675 47.7665 124.48 47.7665 124.27C47.7665 124.045 47.8415 123.85 48.0065 123.7C48.1565 123.55 48.3365 123.475 48.5615 123.475ZM49.1615 114.535C50.1515 114.535 50.9465 114.76 51.5465 115.21C52.1465 115.69 52.5365 116.41 52.6865 117.37H51.1115C51.0065 116.845 50.7965 116.455 50.4665 116.215C50.1365 115.96 49.7015 115.84 49.1615 115.84C48.5015 115.84 47.9915 116.08 47.6165 116.575C47.2265 117.055 47.0465 117.745 47.0465 118.615C47.0465 119.485 47.2265 120.175 47.6015 120.67C47.9465 121.15 48.4565 121.405 49.1465 121.405C50.3315 121.405 50.9915 120.805 51.1415 119.635H52.7165C52.5365 120.67 52.1315 121.45 51.5315 121.96C50.9315 122.455 50.1215 122.71 49.1315 122.71C47.9465 122.71 47.0315 122.32 46.3715 121.54C45.7265 120.79 45.4115 119.83 45.4115 118.63C45.4115 117.46 45.7265 116.5 46.3565 115.75C47.0315 114.94 47.9615 114.535 49.1615 114.535ZM61.4259 112.24V114.745H63.1959V116.065H61.4259V120.565C61.4259 120.775 61.4709 120.925 61.5609 121.03C61.6509 121.12 61.7859 121.18 61.9809 121.18H63.0009V122.5H61.7259C61.0659 122.5 60.5709 122.32 60.2709 121.975C59.9709 121.645 59.8359 121.18 59.8359 120.565V116.065H58.3959V114.745H59.8359V112.9L61.4259 112.24ZM65.6012 111.64C65.9162 111.64 66.1862 111.73 66.3962 111.94C66.6062 112.135 66.7112 112.39 66.7112 112.705C66.7112 113.02 66.5912 113.275 66.3812 113.485C66.1712 113.68 65.9012 113.785 65.6012 113.785C65.2862 113.785 65.0312 113.68 64.8212 113.485C64.6112 113.275 64.5062 113.005 64.5062 112.705C64.5062 112.39 64.6112 112.135 64.8212 111.94C65.0312 111.73 65.2862 111.64 65.6012 111.64ZM64.8062 114.745H66.3962V122.5H64.8062V114.745ZM71.1884 111.76H72.5834L74.1284 113.665H73.1234L71.8934 112.45L70.6334 113.665H69.6284L71.1884 111.76ZM71.8334 114.535C73.0934 114.535 74.0684 114.955 74.7284 115.825C75.3284 116.605 75.6434 117.685 75.6584 119.065H69.7784C69.8384 119.815 70.0334 120.4 70.3934 120.805C70.7534 121.195 71.2484 121.405 71.8784 121.405C72.4334 121.405 72.8834 121.27 73.2284 121.015C73.4984 120.805 73.7234 120.46 73.9334 120.01H75.5234C75.3434 120.73 74.9984 121.345 74.4584 121.825C73.7834 122.41 72.9284 122.71 71.8934 122.71C70.7534 122.71 69.8384 122.35 69.1784 121.645C68.4584 120.895 68.0984 119.89 68.0984 118.615C68.0984 117.46 68.4284 116.5 69.1184 115.72C69.7784 114.925 70.6934 114.535 71.8334 114.535ZM71.8784 115.84C71.2784 115.84 70.8134 116.005 70.4534 116.365C70.1234 116.71 69.8984 117.205 69.8084 117.865H73.9934C73.8434 116.515 73.1384 115.84 71.8784 115.84ZM77.0152 114.745H78.6052V119.47C78.6052 120.13 78.7402 120.61 79.0252 120.91C79.2952 121.21 79.7452 121.375 80.3602 121.375C80.7802 121.375 81.1552 121.195 81.5152 120.865C81.8752 120.52 82.1302 120.055 82.2652 119.485V114.745H83.8552V122.5H82.2652V121.45C81.6052 122.29 80.7952 122.71 79.8202 122.71C77.9452 122.71 77.0152 121.66 77.0152 119.575V114.745ZM94.5976 114.535C96.5176 114.535 97.4926 115.585 97.4926 117.715V122.5H95.9026V117.85C95.9026 116.53 95.2876 115.87 94.0876 115.87C93.6376 115.87 93.2326 116.02 92.9026 116.35C92.5426 116.71 92.3176 117.205 92.2576 117.835V122.5H90.6676V114.745H92.2576V115.705C92.5576 115.315 92.9026 115.03 93.2926 114.835C93.6826 114.625 94.1176 114.535 94.5976 114.535ZM99.3102 111.58H100.9V115.84C101.185 115.39 101.545 115.045 101.98 114.835C102.37 114.625 102.805 114.535 103.3 114.535C104.23 114.535 104.935 114.805 105.415 115.36C105.865 115.885 106.09 116.665 106.09 117.685V122.5H104.5V117.955C104.5 117.265 104.35 116.755 104.08 116.395C103.78 116.02 103.315 115.84 102.715 115.84C102.175 115.84 101.74 116.05 101.41 116.485C101.065 116.92 100.9 117.475 100.9 118.15V122.5H99.3102V111.58ZM110.609 111.76H112.004L113.564 113.665H112.559L111.299 112.45L110.069 113.665H108.974L110.609 111.76ZM111.389 114.535C112.529 114.535 113.369 114.82 113.909 115.39C114.374 115.885 114.614 116.605 114.614 117.55V122.5H113.144V121.405C112.844 121.795 112.454 122.11 112.004 122.35C111.494 122.59 110.894 122.71 110.219 122.71C109.409 122.71 108.779 122.5 108.329 122.095C107.834 121.69 107.594 121.165 107.594 120.52C107.594 119.65 107.939 118.975 108.629 118.51C109.259 118.06 110.159 117.835 111.299 117.805L113.039 117.76V117.445C113.039 116.365 112.454 115.825 111.284 115.825C110.789 115.825 110.384 115.915 110.084 116.095C109.724 116.305 109.499 116.62 109.409 117.055L107.834 116.92C107.999 116.08 108.419 115.45 109.079 115.06C109.649 114.7 110.429 114.535 111.389 114.535ZM113.039 118.915L111.404 118.96C109.949 118.99 109.229 119.5 109.229 120.46C109.229 120.76 109.349 121 109.604 121.195C109.844 121.39 110.174 121.495 110.579 121.495C111.254 121.495 111.824 121.285 112.304 120.88C112.784 120.475 113.039 119.965 113.039 119.365V118.915ZM120.364 114.535C122.284 114.535 123.259 115.585 123.259 117.715V122.5H121.669V117.85C121.669 116.53 121.054 115.87 119.854 115.87C119.404 115.87 118.999 116.02 118.669 116.35C118.309 116.71 118.084 117.205 118.024 117.835V122.5H116.434V114.745H118.024V115.705C118.324 115.315 118.669 115.03 119.059 114.835C119.449 114.625 119.884 114.535 120.364 114.535Z" fill="#7C8499"/>
<rect x="23.5" y="134" width="413" height="49" rx="9.5" fill="#161F2C"/>
<path d="M55.3974 153.08C56.4174 153.08 57.2724 153.365 57.9324 153.965C58.5774 154.565 58.9074 155.33 58.9074 156.275C58.9074 157.205 58.5474 158.045 57.8574 158.81C57.4374 159.245 56.7024 159.815 55.6374 160.535C54.4824 161.3 53.7924 161.975 53.5674 162.56H58.9224V164H51.5424C51.5424 162.935 51.8874 162.005 52.6074 161.195C52.9974 160.73 53.8074 160.085 55.0224 159.245C55.7424 158.735 56.2524 158.33 56.5524 158.015C57.0324 157.475 57.2874 156.89 57.2874 156.26C57.2874 155.66 57.1224 155.21 56.7924 154.91C56.4624 154.61 55.9674 154.46 55.3374 154.46C54.6624 154.46 54.1524 154.685 53.8074 155.15C53.4474 155.6 53.2674 156.245 53.2374 157.115H51.6024C51.6174 155.915 51.9624 154.955 52.6374 154.235C53.3274 153.455 54.2574 153.08 55.3974 153.08Z" fill="white"/>
<path d="M399.725 153.29H401.72L404.33 157.16L406.94 153.29H408.935L405.305 158.465L409.19 164H407.195L404.33 159.755L401.465 164H399.47L403.325 158.465L399.725 153.29Z" fill="#7C8499"/>
<rect x="23.5" y="134" width="413" height="49" rx="9.5" stroke="#55657E"/>
</svg>
