<svg width="460" height="290" viewBox="0 0 460 290" fill="none" xmlns="http://www.w3.org/2000/svg">
<rect width="460" height="290" rx="10" fill="#0D131C"/>
<path d="M27.125 122.65C26.285 122.65 25.635 122.46 25.175 122.08C24.715 121.69 24.395 121.165 24.215 120.505C24.035 119.835 23.945 119.075 23.945 118.225C23.945 117.245 24.035 116.455 24.215 115.855C24.405 115.255 24.68 114.82 25.04 114.55C25.4 114.27 25.84 114.13 26.36 114.13C26.71 114.13 27.005 114.19 27.245 114.31C27.495 114.43 27.67 114.63 27.77 114.91H27.83C27.93 114.62 28.11 114.42 28.37 114.31C28.63 114.19 28.935 114.13 29.285 114.13C29.935 114.13 30.435 114.305 30.785 114.655C31.145 114.995 31.325 115.52 31.325 116.23V122.5H29.99V116.245C29.99 115.855 29.905 115.59 29.735 115.45C29.565 115.31 29.35 115.24 29.09 115.24C28.8 115.24 28.585 115.31 28.445 115.45C28.315 115.59 28.235 115.82 28.205 116.14H27.365C27.325 115.79 27.22 115.555 27.05 115.435C26.88 115.305 26.69 115.24 26.48 115.24C26.08 115.24 25.78 115.475 25.58 115.945C25.38 116.405 25.28 117.17 25.28 118.24C25.28 118.93 25.33 119.52 25.43 120.01C25.54 120.5 25.74 120.88 26.03 121.15C26.32 121.41 26.74 121.54 27.29 121.54C27.49 121.54 27.655 121.53 27.785 121.51C27.915 121.49 28.04 121.465 28.16 121.435L28.295 122.455C28.145 122.525 27.965 122.575 27.755 122.605C27.545 122.635 27.335 122.65 27.125 122.65ZM29.2375 112.975C28.8175 112.975 28.4825 112.915 28.2325 112.795C27.9825 112.675 27.8025 112.52 27.6925 112.33C27.5725 112.14 27.5125 111.94 27.5125 111.73C27.5125 111.58 27.5375 111.42 27.5875 111.25C27.6275 111.07 27.6825 110.925 27.7525 110.815L28.8775 111.01C28.8575 111.05 28.8375 111.12 28.8175 111.22C28.7975 111.31 28.7875 111.395 28.7875 111.475C28.7875 111.605 28.8275 111.72 28.9075 111.82C28.9875 111.91 29.1225 111.955 29.3125 111.955H33.1075V112.975H29.2375ZM35.4011 122.65C35.0111 122.65 34.6311 122.61 34.2611 122.53C33.9011 122.45 33.5161 122.3 33.1061 122.08L33.5261 121.06C33.7461 121.19 33.9961 121.305 34.2761 121.405C34.5561 121.495 34.8811 121.54 35.2511 121.54C35.9911 121.54 36.5661 121.27 36.9761 120.73C37.3961 120.18 37.6061 119.39 37.6061 118.36C37.6061 117.35 37.3911 116.58 36.9611 116.05C36.5411 115.51 35.8911 115.24 35.0111 115.24C34.6911 115.24 34.3661 115.275 34.0361 115.345C33.7061 115.415 33.4161 115.52 33.1661 115.66V114.535C33.4561 114.385 33.7711 114.28 34.1111 114.22C34.4611 114.16 34.8111 114.13 35.1611 114.13C36.0611 114.13 36.7911 114.31 37.3511 114.67C37.9111 115.02 38.3211 115.51 38.5811 116.14C38.8411 116.77 38.9711 117.51 38.9711 118.36C38.9711 119.68 38.6711 120.725 38.0711 121.495C37.4811 122.265 36.5911 122.65 35.4011 122.65ZM41.1339 122.5V117.25C41.1339 116.24 41.4039 115.47 41.9439 114.94C42.4839 114.4 43.3439 114.13 44.5239 114.13C45.7139 114.13 46.5739 114.4 47.1039 114.94C47.6439 115.47 47.9139 116.24 47.9139 117.25V122.5H46.5789V117.25C46.5789 116.58 46.4039 116.08 46.0539 115.75C45.7039 115.41 45.1889 115.24 44.5089 115.24C43.8389 115.24 43.3289 115.41 42.9789 115.75C42.6389 116.08 42.4689 116.58 42.4689 117.25V118.915L42.5139 118.93C42.7339 118.54 43.0039 118.285 43.3239 118.165C43.6439 118.035 44.0939 117.97 44.6739 117.97H45.1689V119.065H44.6739C44.0639 119.065 43.5989 119.15 43.2789 119.32C42.9689 119.49 42.7539 119.715 42.6339 119.995C42.5239 120.265 42.4689 120.57 42.4689 120.91V122.5H41.1339ZM45.965 126.475C45.325 126.475 44.84 126.345 44.51 126.085C44.17 125.835 44 125.475 44 125.005V124.75C44 124.58 43.96 124.475 43.88 124.435C43.79 124.405 43.67 124.41 43.52 124.45L43.43 123.55C43.57 123.51 43.71 123.485 43.85 123.475C43.98 123.465 44.08 123.46 44.15 123.46C44.51 123.46 44.77 123.54 44.93 123.7C45.08 123.86 45.155 124.085 45.155 124.375V124.885C45.155 125.075 45.215 125.235 45.335 125.365C45.455 125.495 45.66 125.56 45.95 125.56C46.25 125.56 46.46 125.495 46.58 125.365C46.69 125.235 46.745 125.075 46.745 124.885V123.505H47.915V124.96C47.915 125.45 47.75 125.825 47.42 126.085C47.09 126.345 46.605 126.475 45.965 126.475ZM52.0428 122.65C51.7628 122.65 51.4928 122.605 51.2328 122.515C50.9828 122.425 50.7778 122.265 50.6178 122.035C50.4678 121.805 50.3928 121.485 50.3928 121.075V119.62C50.3928 119 50.5228 118.55 50.7828 118.27C51.0528 117.99 51.4028 117.795 51.8328 117.685L51.8478 117.64L50.1228 117.01V116.515C50.1228 116.075 50.2528 115.675 50.5128 115.315C50.7828 114.955 51.1578 114.67 51.6378 114.46C52.1278 114.24 52.6978 114.13 53.3478 114.13C53.8978 114.13 54.4178 114.22 54.9078 114.4C55.4078 114.58 55.8128 114.88 56.1228 115.3C56.4328 115.71 56.5878 116.26 56.5878 116.95V119.815C56.5878 120.415 56.7228 120.85 56.9928 121.12C57.2728 121.39 57.6428 121.525 58.1028 121.525C58.5028 121.525 58.8528 121.425 59.1528 121.225C59.4528 121.015 59.6878 120.73 59.8578 120.37C60.0278 120 60.1128 119.57 60.1128 119.08V114.28H61.4478V122.5H60.3528L60.2778 121.195H60.2028C60.0328 121.655 59.7278 122.015 59.2878 122.275C58.8578 122.525 58.3728 122.65 57.8328 122.65C57.0728 122.65 56.4528 122.44 55.9728 122.02C55.4928 121.6 55.2528 120.9 55.2528 119.92V117.085C55.2528 116.605 55.1628 116.23 54.9828 115.96C54.8028 115.69 54.5628 115.505 54.2628 115.405C53.9728 115.295 53.6628 115.24 53.3328 115.24C52.8028 115.24 52.3628 115.355 52.0128 115.585C51.6728 115.815 51.4978 116.15 51.4878 116.59L53.1978 117.4L53.0778 118.12C52.7078 118.12 52.3878 118.235 52.1178 118.465C51.8578 118.695 51.7278 119.075 51.7278 119.605V120.925C51.7278 121.145 51.7778 121.305 51.8778 121.405C51.9778 121.505 52.1378 121.555 52.3578 121.555C52.4578 121.555 52.5528 121.55 52.6428 121.54C52.7428 121.52 52.8328 121.495 52.9128 121.465L53.1078 122.425C52.9178 122.515 52.7328 122.575 52.5528 122.605C52.3828 122.635 52.2128 122.65 52.0428 122.65ZM65.8455 122.65C65.5755 122.65 65.3155 122.605 65.0655 122.515C64.8155 122.425 64.6105 122.265 64.4505 122.035C64.2905 121.805 64.2105 121.485 64.2105 121.075V114.28H65.5455V120.91C65.5455 121.14 65.5955 121.305 65.6955 121.405C65.7955 121.505 65.9555 121.555 66.1755 121.555C66.2655 121.555 66.3605 121.545 66.4605 121.525C66.5605 121.505 66.6555 121.48 66.7455 121.45L66.9255 122.425C66.7355 122.515 66.5505 122.575 66.3705 122.605C66.1905 122.635 66.0155 122.65 65.8455 122.65ZM71.5482 122.65C70.3682 122.65 69.5232 122.38 69.0132 121.84C68.5032 121.3 68.2482 120.53 68.2482 119.53V114.28H69.5832V119.545C69.5832 120.215 69.7432 120.715 70.0632 121.045C70.3832 121.375 70.8782 121.54 71.5482 121.54C72.2282 121.54 72.7282 121.375 73.0482 121.045C73.3782 120.715 73.5432 120.215 73.5432 119.545V111.325H74.8782V119.53C74.8782 120.53 74.6182 121.3 74.0982 121.84C73.5882 122.38 72.7382 122.65 71.5482 122.65ZM68.7199 112.975V112.315C68.9099 112.275 69.1049 112.22 69.3049 112.15C69.4949 112.07 69.6599 111.97 69.7999 111.85C69.9299 111.72 69.9949 111.57 69.9949 111.4C69.9949 111.26 69.9599 111.15 69.8899 111.07C69.8099 110.99 69.6999 110.95 69.5599 110.95C69.4499 110.95 69.3449 110.97 69.2449 111.01C69.1349 111.05 69.0399 111.085 68.9599 111.115L68.6449 110.29C68.8549 110.13 69.0849 110.025 69.3349 109.975C69.5749 109.925 69.7749 109.9 69.9349 109.9C70.3249 109.9 70.6349 110.01 70.8649 110.23C71.0949 110.45 71.2099 110.74 71.2099 111.1C71.2099 111.32 71.1599 111.525 71.0599 111.715C70.9499 111.905 70.7599 112.055 70.4899 112.165L70.3099 111.925H72.7099V112.975H68.7199ZM79.6552 122.5V116.665C79.6552 116.175 79.5402 115.815 79.3102 115.585C79.0902 115.355 78.7152 115.24 78.1852 115.24C77.8252 115.24 77.4852 115.29 77.1652 115.39C76.8552 115.48 76.5552 115.61 76.2652 115.78V114.58C76.4652 114.48 76.7502 114.38 77.1202 114.28C77.4902 114.18 77.9302 114.13 78.4402 114.13C78.9602 114.13 79.4102 114.205 79.7902 114.355C80.1702 114.505 80.4652 114.755 80.6752 115.105C80.8852 115.445 80.9902 115.9 80.9902 116.47V122.5H79.6552ZM83.544 122.5V114.28H84.879V117.835H84.924L88.344 114.28H89.904V114.325L84.879 119.41V122.5H83.544ZM88.644 122.5V119.605C88.644 119.015 88.464 118.555 88.104 118.225C87.744 117.895 87.149 117.73 86.319 117.73L87.099 116.755C87.729 116.755 88.254 116.87 88.674 117.1C89.104 117.32 89.429 117.64 89.649 118.06C89.869 118.48 89.979 118.985 89.979 119.575V122.5H88.644ZM96.1877 122.65C95.5477 122.65 94.9927 122.525 94.5227 122.275C94.0627 122.015 93.7477 121.655 93.5777 121.195H93.5177L93.4427 122.5H92.3477V114.28H93.6827V119.035C93.6827 119.535 93.7677 119.975 93.9377 120.355C94.1177 120.725 94.3727 121.015 94.7027 121.225C95.0427 121.425 95.4477 121.525 95.9177 121.525C96.5077 121.525 96.9477 121.37 97.2377 121.06C97.5277 120.75 97.6727 120.295 97.6727 119.695V114.28H99.0077V119.785C99.0077 120.445 98.8927 120.985 98.6627 121.405C98.4427 121.825 98.1227 122.14 97.7027 122.35C97.2827 122.55 96.7777 122.65 96.1877 122.65ZM103.767 122.5V116.665C103.767 116.175 103.652 115.815 103.422 115.585C103.202 115.355 102.827 115.24 102.297 115.24C101.937 115.24 101.597 115.29 101.277 115.39C100.967 115.48 100.667 115.61 100.377 115.78V114.58C100.577 114.48 100.862 114.38 101.232 114.28C101.602 114.18 102.042 114.13 102.552 114.13C103.072 114.13 103.522 114.205 103.902 114.355C104.282 114.505 104.577 114.755 104.787 115.105C104.997 115.445 105.102 115.9 105.102 116.47V122.5H103.767ZM110.7 122.635C109.89 122.635 109.24 122.53 108.75 122.32C108.27 122.11 107.92 121.815 107.7 121.435C107.49 121.055 107.385 120.605 107.385 120.085C107.385 119.625 107.45 119.26 107.58 118.99C107.72 118.71 107.89 118.505 108.09 118.375C108.3 118.245 108.515 118.16 108.735 118.12V118.06C108.535 118 108.325 117.9 108.105 117.76C107.885 117.62 107.7 117.425 107.55 117.175C107.41 116.925 107.34 116.61 107.34 116.23C107.34 115.88 107.42 115.55 107.58 115.24C107.74 114.93 108 114.675 108.36 114.475C108.72 114.275 109.195 114.175 109.785 114.175C110.025 114.175 110.275 114.195 110.535 114.235C110.795 114.265 110.995 114.32 111.135 114.4L110.895 115.435C110.785 115.395 110.64 115.36 110.46 115.33C110.29 115.29 110.11 115.27 109.92 115.27C109.5 115.27 109.19 115.37 108.99 115.57C108.79 115.76 108.69 116.015 108.69 116.335C108.69 116.685 108.775 116.95 108.945 117.13C109.125 117.31 109.35 117.435 109.62 117.505C109.9 117.565 110.19 117.595 110.49 117.595H110.775V118.57H110.49C109.89 118.57 109.445 118.68 109.155 118.9C108.875 119.11 108.735 119.465 108.735 119.965C108.735 120.255 108.79 120.52 108.9 120.76C109.02 121 109.22 121.19 109.5 121.33C109.79 121.47 110.19 121.54 110.7 121.54C111.21 121.54 111.605 121.47 111.885 121.33C112.175 121.19 112.38 120.99 112.5 120.73C112.62 120.46 112.68 120.14 112.68 119.77V114.28H114.015V119.68C114.015 120.73 113.745 121.485 113.205 121.945C112.675 122.405 111.84 122.635 110.7 122.635Z" fill="#7C8499"/>
<rect x="23.5" y="134" width="413" height="49" rx="9.5" fill="#161F2C"/>
<path d="M55.3974 153.08C56.4174 153.08 57.2724 153.365 57.9324 153.965C58.5774 154.565 58.9074 155.33 58.9074 156.275C58.9074 157.205 58.5474 158.045 57.8574 158.81C57.4374 159.245 56.7024 159.815 55.6374 160.535C54.4824 161.3 53.7924 161.975 53.5674 162.56H58.9224V164H51.5424C51.5424 162.935 51.8874 162.005 52.6074 161.195C52.9974 160.73 53.8074 160.085 55.0224 159.245C55.7424 158.735 56.2524 158.33 56.5524 158.015C57.0324 157.475 57.2874 156.89 57.2874 156.26C57.2874 155.66 57.1224 155.21 56.7924 154.91C56.4624 154.61 55.9674 154.46 55.3374 154.46C54.6624 154.46 54.1524 154.685 53.8074 155.15C53.4474 155.6 53.2674 156.245 53.2374 157.115H51.6024C51.6174 155.915 51.9624 154.955 52.6374 154.235C53.3274 153.455 54.2574 153.08 55.3974 153.08Z" fill="white"/>
<path d="M399.725 153.29H401.72L404.33 157.16L406.94 153.29H408.935L405.305 158.465L409.19 164H407.195L404.33 159.755L401.465 164H399.47L403.325 158.465L399.725 153.29Z" fill="#7C8499"/>
<rect x="23.5" y="134" width="413" height="49" rx="9.5" stroke="#55657E"/>
</svg>
