<svg width="460" height="290" viewBox="0 0 460 290" fill="none" xmlns="http://www.w3.org/2000/svg">
<rect width="460" height="290" rx="10" fill="#F4F7FD"/>
<path d="M10.225 111.79H19V113.185H15.43V122.5H13.81V113.185H10.225V111.79ZM23.6382 114.535C24.7782 114.535 25.6182 114.82 26.1582 115.39C26.6232 115.885 26.8632 116.605 26.8632 117.55V122.5H25.3932V121.405C25.0932 121.795 24.7182 122.11 24.2682 122.335C23.7582 122.575 23.1582 122.71 22.4682 122.71C21.6582 122.71 21.0282 122.5 20.5782 122.095C20.0832 121.69 19.8432 121.165 19.8432 120.52C19.8432 119.65 20.1882 118.975 20.8782 118.51C21.5082 118.06 22.4082 117.835 23.5482 117.805L25.2882 117.76V117.445C25.2882 116.365 24.7032 115.825 23.5332 115.825C23.0382 115.825 22.6332 115.915 22.3332 116.095C21.9732 116.305 21.7482 116.62 21.6582 117.055L20.0832 116.92C20.2482 116.08 20.6682 115.45 21.3282 115.06C21.8982 114.7 22.6782 114.535 23.6382 114.535ZM25.2882 118.915L23.6532 118.96C22.1982 118.99 21.4782 119.5 21.4782 120.46C21.4782 120.76 21.5982 121 21.8532 121.195C22.0932 121.39 22.4232 121.495 22.8282 121.495C23.5032 121.495 24.0732 121.285 24.5532 120.88C25.0332 120.475 25.2882 119.965 25.2882 119.365V118.915ZM32.2832 114.535C32.6732 114.535 33.0182 114.595 33.2882 114.73V116.32C32.8982 116.2 32.5232 116.155 32.1632 116.155C31.6832 116.155 31.2482 116.35 30.8732 116.74C30.4682 117.16 30.2732 117.715 30.2732 118.39V122.5H28.6832V114.745H30.2732V115.915C30.4682 115.495 30.7232 115.18 31.0232 114.97C31.3832 114.67 31.8032 114.535 32.2832 114.535ZM37.4893 114.535C38.5093 114.535 39.2893 114.94 39.8593 115.78V114.745H41.4493V121.99C41.4493 124.45 40.2343 125.68 37.8343 125.68C36.7543 125.68 35.9293 125.47 35.3593 125.065C34.7893 124.645 34.4443 124.015 34.2943 123.16H35.8843C35.9743 123.61 36.1543 123.94 36.4543 124.135C36.7393 124.315 37.2043 124.42 37.8343 124.42C39.1843 124.42 39.8593 123.685 39.8593 122.23V121.03C39.2893 121.885 38.5093 122.32 37.4893 122.32C36.4393 122.32 35.5843 121.96 34.9393 121.255C34.2793 120.55 33.9643 119.62 33.9643 118.45C33.9643 117.28 34.2793 116.35 34.9393 115.63C35.5843 114.895 36.4393 114.535 37.4893 114.535ZM37.7293 115.825C37.0543 115.825 36.5293 116.05 36.1693 116.53C35.7793 116.98 35.5993 117.625 35.5993 118.45C35.5993 119.2 35.7493 119.8 36.0493 120.235C36.3943 120.745 36.9493 121.015 37.7293 121.015C38.4043 121.015 38.9293 120.79 39.3193 120.34C39.6793 119.875 39.8743 119.245 39.8743 118.45C39.8743 117.64 39.6793 116.995 39.3193 116.53C38.9293 116.05 38.4043 115.825 37.7293 115.825ZM46.5288 114.535C47.7888 114.535 48.7638 114.955 49.4238 115.825C50.0238 116.605 50.3388 117.685 50.3538 119.065H44.4738C44.5338 119.815 44.7288 120.4 45.0888 120.805C45.4488 121.195 45.9438 121.405 46.5738 121.405C47.1288 121.405 47.5788 121.27 47.9238 121.015C48.1938 120.805 48.4188 120.46 48.6288 120.01H50.2188C50.0388 120.73 49.6938 121.345 49.1538 121.825C48.4788 122.41 47.6238 122.71 46.5888 122.71C45.4488 122.71 44.5338 122.35 43.8738 121.645C43.1538 120.895 42.7938 119.89 42.7938 118.615C42.7938 117.46 43.1238 116.5 43.8138 115.72C44.4738 114.925 45.3888 114.535 46.5288 114.535ZM46.5738 115.84C45.9738 115.84 45.5088 116.005 45.1488 116.365C44.8188 116.71 44.5938 117.205 44.5038 117.865H48.6888C48.5388 116.515 47.8338 115.84 46.5738 115.84ZM54.0655 112.24V114.745H55.8355V116.065H54.0655V120.565C54.0655 120.775 54.1105 120.925 54.2005 121.03C54.2905 121.12 54.4255 121.18 54.6205 121.18H55.6405V122.5H54.3655C53.7055 122.5 53.2105 122.32 52.9105 121.975C52.6105 121.645 52.4755 121.18 52.4755 120.565V116.065H51.0355V114.745H52.4755V112.9L54.0655 112.24ZM62.2609 111.79H64.1959L67.9309 120.37H67.9759L71.6959 111.79H73.6309V122.5H71.9959V114.85H71.9359L68.6509 122.5H67.2409L63.9559 114.85H63.8959V122.5H62.2609V111.79ZM75.5875 114.745H77.1775V119.47C77.1775 120.13 77.3125 120.61 77.5975 120.91C77.8675 121.21 78.3175 121.375 78.9325 121.375C79.3525 121.375 79.7275 121.195 80.0875 120.865C80.4475 120.52 80.7025 120.055 80.8375 119.485V114.745H82.4275V122.5H80.8375V121.45C80.1775 122.29 79.3675 122.71 78.3925 122.71C76.5175 122.71 75.5875 121.66 75.5875 119.575V114.745ZM84.4247 111.58H86.0147V122.5H84.4247V111.58ZM90.3497 112.24V114.745H92.1197V116.065H90.3497V120.565C90.3497 120.775 90.3947 120.925 90.4847 121.03C90.5747 121.12 90.7097 121.18 90.9047 121.18H91.9247V122.5H90.6497C89.9897 122.5 89.4947 122.32 89.1947 121.975C88.8947 121.645 88.7597 121.18 88.7597 120.565V116.065H87.3197V114.745H88.7597V112.9L90.3497 112.24ZM94.525 111.64C94.84 111.64 95.11 111.73 95.32 111.94C95.53 112.135 95.635 112.39 95.635 112.705C95.635 113.02 95.515 113.275 95.305 113.485C95.095 113.68 94.825 113.785 94.525 113.785C94.21 113.785 93.955 113.68 93.745 113.485C93.535 113.275 93.43 113.005 93.43 112.705C93.43 112.39 93.535 112.135 93.745 111.94C93.955 111.73 94.21 111.64 94.525 111.64ZM93.73 114.745H95.32V122.5H93.73V114.745ZM101.357 114.535C102.497 114.535 103.382 114.94 104.042 115.75C104.642 116.5 104.942 117.46 104.942 118.66C104.942 119.8 104.642 120.745 104.057 121.495C103.427 122.305 102.542 122.71 101.432 122.71C100.472 122.71 99.6923 122.26 99.0623 121.36V125.47H97.4723V114.745H98.9573V115.675C99.4973 114.91 100.307 114.535 101.357 114.535ZM101.117 115.825C100.427 115.825 99.8873 116.095 99.5123 116.65C99.1823 117.13 99.0173 117.775 99.0173 118.57V118.705C99.0173 119.53 99.2123 120.205 99.6323 120.715C99.9923 121.18 100.472 121.42 101.072 121.42C101.852 121.42 102.422 121.165 102.797 120.655C103.127 120.175 103.307 119.515 103.307 118.66C103.307 117.805 103.142 117.145 102.842 116.665C102.467 116.095 101.897 115.825 101.117 115.825ZM106.617 111.58H108.207V122.5H106.617V111.58ZM111.312 111.64C111.627 111.64 111.897 111.73 112.107 111.94C112.317 112.135 112.422 112.39 112.422 112.705C112.422 113.02 112.302 113.275 112.092 113.485C111.882 113.68 111.612 113.785 111.312 113.785C110.997 113.785 110.742 113.68 110.532 113.485C110.322 113.275 110.217 113.005 110.217 112.705C110.217 112.39 110.322 112.135 110.532 111.94C110.742 111.73 110.997 111.64 111.312 111.64ZM110.517 114.745H112.107V122.5H110.517V114.745ZM117.544 114.535C118.804 114.535 119.779 114.955 120.439 115.825C121.039 116.605 121.354 117.685 121.369 119.065H115.489C115.549 119.815 115.744 120.4 116.104 120.805C116.464 121.195 116.959 121.405 117.589 121.405C118.144 121.405 118.594 121.27 118.939 121.015C119.209 120.805 119.434 120.46 119.644 120.01H121.234C121.054 120.73 120.709 121.345 120.169 121.825C119.494 122.41 118.639 122.71 117.604 122.71C116.464 122.71 115.549 122.35 114.889 121.645C114.169 120.895 113.809 119.89 113.809 118.615C113.809 117.46 114.139 116.5 114.829 115.72C115.489 114.925 116.404 114.535 117.544 114.535ZM117.589 115.84C116.989 115.84 116.524 116.005 116.164 116.365C115.834 116.71 115.609 117.205 115.519 117.865H119.704C119.554 116.515 118.849 115.84 117.589 115.84ZM126.326 114.535C126.716 114.535 127.061 114.595 127.331 114.73V116.32C126.941 116.2 126.566 116.155 126.206 116.155C125.726 116.155 125.291 116.35 124.916 116.74C124.511 117.16 124.316 117.715 124.316 118.39V122.5H122.726V114.745H124.316V115.915C124.511 115.495 124.766 115.18 125.066 114.97C125.426 114.67 125.846 114.535 126.326 114.535Z" fill="#A6A6A6"/>
<rect x="10.5" y="134" width="409" height="49" rx="9.5" fill="white"/>
<rect x="10.5" y="134" width="439" height="49" rx="9.5" fill="white"/>
<path d="M37.9145 153.08C38.9345 153.08 39.7895 153.365 40.4495 153.965C41.0945 154.565 41.4245 155.33 41.4245 156.275C41.4245 157.205 41.0645 158.045 40.3745 158.81C39.9545 159.245 39.2195 159.815 38.1545 160.535C36.9995 161.3 36.3095 161.975 36.0845 162.56H41.4395V164H34.0595C34.0595 162.935 34.4045 162.005 35.1245 161.195C35.5145 160.73 36.3245 160.085 37.5395 159.245C38.2595 158.735 38.7695 158.33 39.0695 158.015C39.5495 157.475 39.8045 156.89 39.8045 156.26C39.8045 155.66 39.6395 155.21 39.3095 154.91C38.9795 154.61 38.4845 154.46 37.8545 154.46C37.1795 154.46 36.6695 154.685 36.3245 155.15C35.9645 155.6 35.7845 156.245 35.7545 157.115H34.1195C34.1345 155.915 34.4795 154.955 35.1545 154.235C35.8445 153.455 36.7745 153.08 37.9145 153.08Z" fill="#484848"/>
<path d="M417.207 153.29H419.202L421.812 157.16L424.422 153.29H426.417L422.787 158.465L426.672 164H424.677L421.812 159.755L418.947 164H416.952L420.807 158.465L417.207 153.29Z" fill="#A6A6A6"/>
<rect x="10.5" y="134" width="439" height="49" rx="9.5" stroke="#ECECEC"/>
<rect x="10.5" y="134" width="409" height="49" rx="9.5" stroke="#ECECEC"/>
</svg>
