<svg width="25" height="26" viewBox="0 0 25 26" fill="none" xmlns="http://www.w3.org/2000/svg">
<g opacity="0.497">
<path d="M24.2473 19.8714L23.0363 19.1894C22.9073 19.1231 22.7576 19.1094 22.6187 19.1512C22.4797 19.1929 22.3624 19.2869 22.2912 19.4133C22.22 19.5397 22.2006 19.6887 22.237 19.8291C22.2734 19.9696 22.3627 20.0904 22.4863 20.1664L23.6973 20.8484C23.7408 20.87 23.7793 20.9003 23.8107 20.9373C23.8421 20.9744 23.8657 21.0174 23.8799 21.0638C23.8942 21.1102 23.8988 21.159 23.8936 21.2073C23.8884 21.2556 23.8734 21.3023 23.8496 21.3446C23.8257 21.3869 23.7936 21.4239 23.755 21.4533C23.7164 21.4828 23.6723 21.5041 23.6252 21.516C23.5781 21.5278 23.5291 21.53 23.4811 21.5223C23.4332 21.5147 23.3873 21.4973 23.3463 21.4714L18.6333 18.8164L11.1103 14.5794L11.6363 14.0534L20.8523 19.2444C20.9819 19.3173 21.1351 19.3358 21.2783 19.2958C21.4214 19.2557 21.5429 19.1605 21.6158 19.0309C21.6887 18.9013 21.7072 18.7481 21.6672 18.6049C21.6271 18.4617 21.5318 18.3403 21.4023 18.2674L17.0313 15.8044L13.2403 9.0784C13.2403 9.0694 13.2303 9.0624 13.2263 9.0544L13.1813 8.9744C12.9287 8.61319 12.7837 8.18771 12.7633 7.7474C12.8633 7.4474 13.3003 7.2034 13.4573 7.1374C14.3045 6.77553 15.1267 6.3576 15.9183 5.8864C16.2402 5.64907 16.5075 5.34554 16.7023 4.99624C16.897 4.64694 17.0146 4.25998 17.0473 3.8614C17.078 3.46561 17.0211 3.06792 16.8806 2.69664C16.74 2.32537 16.5194 1.98965 16.2343 1.7134C15.9513 1.42061 15.6021 1.20005 15.2162 1.07023C14.8302 0.940419 14.4187 0.905152 14.0163 0.967396C13.2932 1.08831 12.6276 1.43689 12.1163 1.9624L9.57428 4.5044C9.14999 4.92918 8.87739 5.48186 8.79859 6.07706C8.71978 6.67225 8.83919 7.27683 9.13831 7.7974C9.16 7.85303 9.18538 7.90715 9.2143 7.9594L12.0573 13.0064L7.0213 10.1694C6.96911 10.1404 6.915 10.115 6.85932 10.0934C6.33884 9.79394 5.73419 9.67437 5.13892 9.75319C4.54364 9.832 3.9909 10.1048 3.56629 10.5294L1.02429 13.0714C0.72901 13.3196 0.487327 13.6254 0.313967 13.97C0.140608 14.3146 0.0392267 14.6909 0.0159325 15.0759C-0.0073618 15.461 0.0479171 15.8468 0.178469 16.2097C0.309021 16.5727 0.512125 16.9054 0.775332 17.1874C1.05167 17.4723 1.3874 17.6928 1.75867 17.8331C2.12994 17.9735 2.52757 18.0303 2.92328 17.9994C3.32186 17.9667 3.70887 17.8491 4.05817 17.6543C4.40747 17.4596 4.71098 17.1923 4.94831 16.8704C5.42183 16.0747 5.84142 15.2482 6.20429 14.3964C6.31913 14.1066 6.5313 13.8658 6.80432 13.7154C7.25251 13.7368 7.68522 13.886 8.05133 14.1454L9.75128 15.1054C9.75628 15.1104 9.75831 15.1184 9.76331 15.1234C9.83749 15.1939 9.93005 15.242 10.0303 15.2624L14.8503 17.9774L17.3123 22.3494C17.3484 22.4135 17.3968 22.4698 17.4547 22.5152C17.5126 22.5606 17.5789 22.5941 17.6497 22.6139C17.7206 22.6337 17.7946 22.6393 17.8676 22.6305C17.9406 22.6216 18.0112 22.5985 18.0753 22.5624C18.1394 22.5263 18.1958 22.4779 18.2412 22.42C18.2865 22.3621 18.3201 22.2959 18.3398 22.225C18.3596 22.1542 18.3652 22.0801 18.3564 22.0071C18.3475 21.9341 18.3244 21.8635 18.2883 21.7994L16.7443 19.0374L17.9443 19.7154L20.5173 24.2814C20.564 24.3641 20.5759 24.462 20.5504 24.5536C20.5249 24.6451 20.464 24.7227 20.3813 24.7694C20.2985 24.8161 20.2007 24.828 20.1091 24.8025C20.0176 24.777 19.94 24.7161 19.8933 24.6334L19.2173 23.4334C19.1812 23.3693 19.1328 23.313 19.0749 23.2676C19.017 23.2222 18.9508 23.1887 18.8799 23.1689C18.8091 23.1491 18.735 23.1435 18.662 23.1523C18.589 23.1611 18.5184 23.1843 18.4543 23.2204C18.3902 23.2565 18.3339 23.3049 18.2885 23.3628C18.2431 23.4207 18.2095 23.4869 18.1898 23.5578C18.17 23.6286 18.1644 23.7027 18.1732 23.7757C18.1821 23.8487 18.2052 23.9193 18.2413 23.9834L18.9173 25.1834C19.1091 25.5259 19.429 25.7782 19.8068 25.8849C20.1846 25.9915 20.5893 25.9436 20.9318 25.7519C21.2744 25.5601 21.5267 25.2402 21.6333 24.8624C21.7399 24.4846 21.6921 24.0799 21.5003 23.7374L19.8353 20.7824L22.8003 22.4524C23.1414 22.6356 23.5407 22.6778 23.9125 22.5699C24.2844 22.462 24.599 22.2125 24.789 21.8752C24.979 21.5378 25.0291 21.1394 24.9285 20.7655C24.828 20.3916 24.5848 20.072 24.2513 19.8754L24.2473 19.8714ZM10.1003 14.0084L9.26233 13.5374L9.78833 13.0114L10.6253 13.4834L10.1003 14.0084ZM12.0683 10.7314L12.5943 10.2064L13.0653 11.0434L12.5403 11.5694L12.0683 10.7314ZM10.1733 7.3574C10.1614 7.32549 10.1467 7.2947 10.1293 7.2654C9.94387 6.95731 9.86673 6.59605 9.91022 6.23909C9.95371 5.88212 10.1153 5.54995 10.3693 5.2954L12.9113 2.7534C13.253 2.40002 13.6967 2.16257 14.1803 2.0744C14.4096 2.03685 14.6447 2.05644 14.8647 2.13145C15.0846 2.20645 15.2827 2.33455 15.4413 2.5044C15.6122 2.66565 15.7448 2.86318 15.8292 3.08246C15.9137 3.30173 15.9479 3.53716 15.9293 3.7714C15.9106 4.00862 15.8413 4.23909 15.7261 4.44729C15.6109 4.65548 15.4524 4.83658 15.2613 4.9784C14.538 5.40094 13.7888 5.77768 13.0183 6.1064C12.4247 6.34645 11.9501 6.81164 11.6983 7.4004C11.5879 8.01649 11.7025 8.65176 12.0213 9.1904L11.4943 9.7184L10.1943 7.4114C10.1863 7.39379 10.1793 7.37577 10.1733 7.3574ZM13.1073 12.5824L13.6333 12.0564L15.1473 14.7444L13.9473 14.0664L13.1073 12.5824ZM6.4643 12.6494C5.87922 12.8982 5.41599 13.3679 5.1753 13.9564C4.84488 14.7314 4.46617 15.4849 4.04132 16.2124C3.89956 16.4036 3.71845 16.5623 3.51026 16.6777C3.30206 16.7931 3.07158 16.8625 2.83429 16.8814C2.60022 16.8998 2.36502 16.8655 2.14594 16.781C1.92686 16.6966 1.72948 16.5641 1.5683 16.3934C1.41601 16.2119 1.30148 16.0019 1.23145 15.7756C1.16142 15.5493 1.13733 15.3113 1.16052 15.0755C1.18372 14.8398 1.25373 14.611 1.36652 14.4027C1.47931 14.1944 1.63259 14.0107 1.81732 13.8624L4.35932 11.3204C4.61396 11.0665 4.94612 10.9051 5.30304 10.8616C5.65996 10.8181 6.02115 10.8951 6.32929 11.0804C6.3585 11.0979 6.38934 11.1127 6.42133 11.1244C6.43878 11.1298 6.45579 11.1365 6.47229 11.1444L8.77228 12.4444L8.24433 12.9724C7.70901 12.6545 7.07717 12.5399 6.4643 12.6494Z" fill="#494B74"/>
<path d="M4.7155 8.59519C5.40706 8.59521 6.07723 8.35543 6.6118 7.91671C7.14638 7.47799 7.51225 6.86749 7.64714 6.18922C7.78204 5.51095 7.67758 4.80689 7.35155 4.19702C7.02552 3.58714 6.49805 3.10919 5.85912 2.8446C5.22018 2.58002 4.50927 2.54517 3.84752 2.746C3.18577 2.94683 2.61415 3.37091 2.23003 3.94597C1.84591 4.52104 1.6731 5.2115 1.74102 5.89971C1.80893 6.58792 2.11336 7.23129 2.60247 7.72019C2.8793 7.99853 3.20864 8.21919 3.57134 8.36938C3.93404 8.51958 4.32294 8.59633 4.7155 8.59519ZM3.39446 4.28519C3.6999 3.97983 4.10178 3.78981 4.5316 3.7475C4.96143 3.7052 5.39265 3.81322 5.75176 4.05318C6.11087 4.29313 6.37569 4.65017 6.50109 5.06347C6.62648 5.47677 6.60468 5.92075 6.43944 6.3198C6.2742 6.71884 5.97577 7.04826 5.5949 7.25192C5.21403 7.45558 4.77432 7.5209 4.3507 7.43674C3.92707 7.35258 3.54569 7.12415 3.27159 6.79036C2.9975 6.45658 2.84761 6.03809 2.84746 5.60619C2.84672 5.36076 2.89468 5.11763 2.98857 4.89087C3.08247 4.66411 3.22043 4.45824 3.39446 4.28519Z" fill="#494B74"/>
</g>
</svg>
