<svg width="25" height="26" viewBox="0 0 25 26" fill="none" xmlns="http://www.w3.org/2000/svg">
<g opacity="0.5">
<path d="M22.3242 8.86865C20.9136 7.50782 19.1134 6.62134 17.1748 6.33293C15.2362 6.04452 13.2559 6.36857 11.5103 7.25985C9.76475 8.15114 8.34095 9.5652 7.43775 11.3046C6.53455 13.0441 6.19696 15.0221 6.47211 16.9627C6.4863 17.0615 6.52296 17.1558 6.57929 17.2382C6.63562 17.3207 6.71014 17.3891 6.79707 17.4383C6.88399 17.4875 6.98106 17.516 7.08076 17.5218C7.18045 17.5276 7.28011 17.5104 7.37214 17.4717C8.26006 17.0549 9.25485 16.9221 10.221 17.0911C11.1872 17.2602 12.0777 17.723 12.7714 18.4166C13.465 19.1101 13.928 20.0006 14.0972 20.9667C14.2665 21.9328 14.1338 22.9277 13.7172 23.8157C13.6782 23.9077 13.6608 24.0074 13.6665 24.1072C13.6722 24.2069 13.7008 24.3041 13.7499 24.391C13.7991 24.478 13.8676 24.5525 13.9502 24.6088C14.0328 24.6651 14.1272 24.7017 14.2261 24.7156C14.6722 24.7806 15.1223 24.8141 15.5731 24.8157C17.4177 24.8106 19.2202 24.2635 20.7564 23.2425C22.2927 22.2214 23.495 20.7714 24.2139 19.0727C24.9329 17.374 25.1368 15.5014 24.8002 13.6878C24.4637 11.8742 23.6016 10.1994 22.3211 8.87165L22.3242 8.86865ZM21.2971 21.1167C20.5048 21.9154 19.5543 22.5399 18.5067 22.9501C17.459 23.3603 16.3372 23.5471 15.2131 23.4987C15.5267 22.4542 15.5516 21.3442 15.285 20.2867C15.0185 19.2293 14.4706 18.2637 13.6994 17.4926C12.9282 16.7215 11.9626 16.1737 10.905 15.9073C9.84752 15.6409 8.73758 15.6659 7.69312 15.9797C7.59545 14.6379 7.83728 13.2932 8.39625 12.0695C8.95521 10.8458 9.81336 9.78263 10.8915 8.97798C11.9696 8.17333 13.233 7.65316 14.5651 7.46544C15.8973 7.27771 17.2552 7.42847 18.5137 7.90384C19.7722 8.3792 20.8908 9.16385 21.7661 10.1854C22.6415 11.2069 23.2455 12.4325 23.5224 13.749C23.7993 15.0654 23.7403 16.4305 23.3507 17.7181C22.9611 19.0057 22.2535 20.1745 21.2932 21.1167H21.2971Z" fill="#494B74"/>
<path d="M7.98743 18.282C7.83564 18.3348 7.70866 18.4417 7.6308 18.5823C7.55294 18.7229 7.52967 18.8873 7.56543 19.0439C7.68187 19.5514 7.86551 20.0411 8.11145 20.5L5.52844 23.082C5.46773 23.1426 5.41952 23.2146 5.38666 23.2939C5.3538 23.3732 5.33691 23.4581 5.33691 23.5439C5.33691 23.6298 5.3538 23.7147 5.38666 23.794C5.41952 23.8733 5.46773 23.9453 5.52844 24.006L7.26746 25.7449C7.39007 25.8673 7.5562 25.9361 7.72943 25.9361C7.90266 25.9361 8.06879 25.8673 8.19141 25.7449L10.8015 23.136C11.2282 23.3545 11.6803 23.5198 12.1474 23.628C12.3043 23.6647 12.4692 23.6418 12.6102 23.5639C12.7511 23.4859 12.8581 23.3583 12.9104 23.2059C13.1083 22.5227 13.1193 21.7988 12.9421 21.1099C12.7649 20.421 12.4061 19.7922 11.9031 19.2892C11.4001 18.7863 10.7714 18.4275 10.0825 18.2503C9.39353 18.0731 8.66971 18.084 7.98645 18.282H7.98743ZM11.0354 21.768C10.9101 21.6902 10.7622 21.6571 10.6157 21.674C10.4692 21.6908 10.3328 21.7567 10.2285 21.8609L7.72845 24.3609L6.91345 23.546L9.39142 21.0679C9.49737 20.9621 9.56375 20.8231 9.57941 20.6742C9.59506 20.5253 9.55905 20.3755 9.47742 20.25C9.30315 19.983 9.15611 19.6992 9.03845 19.403C9.76637 19.4082 10.463 19.6995 10.9779 20.2141C11.4928 20.7286 11.7846 21.425 11.7904 22.153C11.5279 22.047 11.2753 21.9182 11.0354 21.768Z" fill="#494B74"/>
<path d="M1.037 1.97487C0.541306 2.47068 0.203801 3.10234 0.0670866 3.78998C-0.0696278 4.47762 0.000591695 5.19036 0.26893 5.83807C0.537268 6.48579 0.99164 7.03939 1.57459 7.42888C2.15755 7.81837 2.84292 8.02626 3.54402 8.02626C4.24511 8.02626 4.93048 7.81837 5.51344 7.42888C6.09639 7.03939 6.55076 6.48579 6.8191 5.83807C7.08744 5.19036 7.15766 4.47762 7.02094 3.78998C6.88423 3.10234 6.54672 2.47068 6.05103 1.97487C5.3858 1.3106 4.48411 0.9375 3.54402 0.9375C2.60392 0.9375 1.70223 1.3106 1.037 1.97487ZM5.26002 6.19687C4.92091 6.5356 4.489 6.76619 4.01887 6.8595C3.54873 6.9528 3.06149 6.90465 2.61872 6.7211C2.17595 6.53755 1.79755 6.22686 1.53132 5.82829C1.26509 5.42973 1.12299 4.96118 1.12299 4.48187C1.12299 4.00257 1.26509 3.53402 1.53132 3.13545C1.79755 2.73689 2.17595 2.42621 2.61872 2.24266C3.06149 2.05911 3.54873 2.01094 4.01887 2.10425C4.489 2.19756 4.92091 2.42815 5.26002 2.76688C5.71275 3.2225 5.96675 3.83877 5.96656 4.48108C5.96637 5.12339 5.71204 5.73951 5.25904 6.19487L5.26002 6.19687Z" fill="#494B74"/>
</g>
</svg>
