<svg width="26" height="26" viewBox="0 0 26 26" fill="none" xmlns="http://www.w3.org/2000/svg">
<g opacity="0.498">
<path d="M24.9438 20.7645C24.892 20.577 24.8034 20.4017 24.6833 20.2487C24.5631 20.0957 24.4138 19.9682 24.2439 19.8735L23.0329 19.1915C22.9035 19.1185 22.7503 19.1 22.6072 19.1399C22.4641 19.1799 22.3428 19.275 22.2699 19.4045C22.1969 19.5339 22.1784 19.687 22.2184 19.8301C22.2583 19.9732 22.3534 20.0945 22.4828 20.1675L23.6938 20.8495C23.7756 20.8968 23.8356 20.9743 23.861 21.0653C23.8864 21.1563 23.8752 21.2536 23.8299 21.3365C23.7827 21.4184 23.7052 21.4785 23.6141 21.504C23.5231 21.5294 23.4257 21.5181 23.3429 21.4725L19.6128 19.3725L20.1379 18.8465L20.8489 19.2465C20.9783 19.3194 21.1314 19.3379 21.2745 19.298C21.4175 19.258 21.5389 19.1629 21.6119 19.0335C21.6848 18.904 21.7033 18.7509 21.6634 18.6078C21.6234 18.4648 21.5283 18.3434 21.3988 18.2705L17.0299 15.8075L13.1799 8.97546C12.9275 8.61414 12.7826 8.18873 12.7619 7.74846C12.8619 7.44846 13.2989 7.20446 13.4559 7.13846C14.3031 6.77666 15.1253 6.35873 15.9169 5.88746C16.2389 5.65002 16.5062 5.34634 16.701 4.99686C16.8957 4.64738 17.0134 4.26022 17.0459 3.86146C17.0766 3.46568 17.0197 3.06798 16.8791 2.69671C16.7386 2.32543 16.5179 1.98972 16.2328 1.71346C15.9499 1.42061 15.6007 1.2 15.2148 1.07018C14.8288 0.940362 14.4173 0.905135 14.0149 0.967463C13.2918 1.0879 12.6261 1.43616 12.1148 1.96146L9.57286 4.50446C9.14842 4.92916 8.87573 5.48186 8.79692 6.07709C8.71811 6.67232 8.83759 7.27694 9.13688 7.79746C9.15847 7.85346 9.18386 7.90792 9.21287 7.96046L12.0559 13.0075L7.01985 10.1695C6.96797 10.1408 6.9142 10.1157 6.85887 10.0945C6.3383 9.79534 5.73372 9.67596 5.13853 9.75477C4.54334 9.83357 3.99065 10.1062 3.56587 10.5305L1.02384 13.0735C0.49857 13.5849 0.15003 14.2504 0.0288496 14.9735C-0.0333098 15.3759 0.00200696 15.7873 0.131816 16.1733C0.261625 16.5592 0.482138 16.9084 0.774852 17.1915C1.05172 17.4757 1.38753 17.6958 1.75865 17.8363C2.12976 17.9767 2.52717 18.0342 2.92286 18.0045C3.32162 17.9719 3.70876 17.8544 4.05824 17.6596C4.40772 17.4649 4.71142 17.1975 4.94886 16.8755C5.42216 16.0797 5.84174 15.2532 6.20484 14.4015C6.31968 14.1117 6.53183 13.8709 6.80485 13.7205C7.25294 13.7424 7.68551 13.8915 8.05186 14.1505L14.8518 17.9825L17.3149 22.3555C17.351 22.4195 17.3994 22.4759 17.4573 22.5213C17.5151 22.5667 17.5814 22.6002 17.6523 22.62C17.7231 22.6398 17.7971 22.6454 17.8702 22.6366C17.9432 22.6277 18.0138 22.6046 18.0779 22.5685C18.1419 22.5324 18.1983 22.484 18.2437 22.4261C18.2891 22.3682 18.3226 22.3019 18.3424 22.2311C18.3622 22.1602 18.3678 22.0862 18.3589 22.0131C18.3501 21.9401 18.327 21.8695 18.2909 21.8055L17.8909 21.0945L18.4169 20.5685L20.5169 24.2895C20.5625 24.3723 20.5738 24.4697 20.5484 24.5608C20.523 24.6518 20.4628 24.7293 20.3808 24.7765C20.298 24.8229 20.2003 24.8347 20.1088 24.8092C20.0173 24.7837 19.9397 24.7231 19.8929 24.6405L19.2159 23.4405C19.1429 23.3109 19.0215 23.2156 18.8783 23.1756C18.7352 23.1355 18.5819 23.154 18.4524 23.227C18.3228 23.2999 18.2275 23.4213 18.1875 23.5645C18.1474 23.7077 18.1659 23.8609 18.2389 23.9905L18.9159 25.1905C19.1086 25.5331 19.4294 25.7852 19.808 25.8913C20.1865 25.9973 20.5917 25.9486 20.9344 25.756C21.277 25.5633 21.5291 25.2424 21.6352 24.8638C21.7412 24.4853 21.6925 24.0801 21.4999 23.7375L19.8349 20.7825L22.7998 22.4525C23.02 22.5774 23.2687 22.6432 23.5218 22.6435C23.657 22.6433 23.7916 22.6248 23.9219 22.5885C24.1089 22.5365 24.2839 22.4481 24.4367 22.3284C24.5895 22.2087 24.7172 22.06 24.8124 21.8908C24.9076 21.7216 24.9686 21.5353 24.9916 21.3425C25.0147 21.1498 24.9995 20.9543 24.9469 20.7675L24.9438 20.7645ZM13.4438 11.7305L15.1438 14.7475L13.9438 14.0695L12.9228 12.2565L13.4438 11.7305ZM10.1908 7.41246C10.1828 7.39557 10.1758 7.3782 10.1698 7.36046C10.1582 7.32814 10.1434 7.297 10.1258 7.26746C9.94037 6.95937 9.86329 6.59812 9.90678 6.24115C9.95027 5.88419 10.1119 5.55201 10.3659 5.29746L12.9079 2.75546C13.2499 2.40222 13.694 2.1651 14.1778 2.07746C14.4072 2.03955 14.6424 2.05898 14.8624 2.134C15.0824 2.20903 15.2805 2.33733 15.4389 2.50746C15.6096 2.66865 15.742 2.86603 15.8265 3.0851C15.9109 3.30418 15.9452 3.53939 15.9269 3.77346C15.9079 4.01074 15.8385 4.24121 15.7231 4.44939C15.6077 4.65758 15.449 4.83866 15.2579 4.98046C14.5344 5.40255 13.7853 5.77895 13.0149 6.10746C12.4213 6.34812 11.9468 6.81358 11.6949 7.40246C11.5994 8.15672 11.7845 8.91974 12.2149 9.54646L12.8739 10.7165L12.3489 11.2415L10.1908 7.41246ZM9.63688 13.7525L8.62583 13.1835C7.99439 12.7454 7.22343 12.5559 6.46086 12.6515C5.87572 12.9002 5.41246 13.3699 5.17185 13.9585C4.84151 14.7335 4.46276 15.487 4.03785 16.2145C3.89604 16.4055 3.71495 16.564 3.50675 16.6793C3.29856 16.7945 3.06807 16.8638 2.83085 16.8825C2.59657 16.9015 2.36102 16.8675 2.14167 16.783C1.92233 16.6985 1.72484 16.5657 1.56385 16.3945C1.39415 16.2357 1.26617 16.0377 1.19117 15.8177C1.11618 15.5978 1.09649 15.3628 1.13386 15.1335C1.22156 14.6497 1.45868 14.2055 1.81187 13.8635L4.35487 11.3215C4.60951 11.0676 4.94167 10.9061 5.29859 10.8626C5.65551 10.8192 6.01673 10.8962 6.32487 11.0815C6.35411 11.0989 6.38489 11.1137 6.41685 11.1255C6.43422 11.1312 6.45124 11.1378 6.46784 11.1455L10.1609 13.2255L9.63688 13.7525ZM17.3249 20.0765L16.7409 19.0395L17.7768 19.6235L17.3249 20.0765ZM18.5998 18.8015L10.6499 14.3235L11.1759 13.7975L16.3368 16.7045L19.1239 18.2745L18.5998 18.8015Z" fill="#494B74"/>
<path d="M4.71395 8.59319C5.40526 8.59288 6.07506 8.35288 6.60925 7.91407C7.14343 7.47527 7.50894 6.86482 7.64349 6.18674C7.77803 5.50865 7.67327 4.80489 7.3471 4.19538C7.02093 3.58586 6.49348 3.1083 5.85467 2.84407C5.21586 2.57983 4.50521 2.54528 3.84377 2.74629C3.18234 2.94731 2.61108 3.37145 2.22732 3.94645C1.84355 4.52145 1.67103 5.21173 1.73916 5.89966C1.80729 6.5876 2.11185 7.23063 2.60095 7.71919C2.87819 7.9969 3.20759 8.21708 3.57021 8.36707C3.93284 8.51706 4.32154 8.59391 4.71395 8.59319ZM3.39294 4.28419C3.6542 4.02298 3.98704 3.8451 4.34939 3.77306C4.71174 3.70101 5.08733 3.73802 5.42864 3.87941C5.76996 4.02081 6.06166 4.26024 6.2669 4.56742C6.47214 4.8746 6.58172 5.23575 6.58172 5.60519C6.58172 5.97463 6.47214 6.33577 6.2669 6.64296C6.06166 6.95014 5.76996 7.18957 5.42864 7.33096C5.08733 7.47236 4.71174 7.50937 4.34939 7.43732C3.98704 7.36527 3.6542 7.1874 3.39294 6.92619C3.21884 6.75306 3.08069 6.54723 2.98641 6.32052C2.89214 6.09382 2.84362 5.85071 2.84362 5.60519C2.84362 5.35966 2.89214 5.11656 2.98641 4.88986C3.08069 4.66315 3.21884 4.45732 3.39294 4.28419Z" fill="#494B74"/>
</g>
</svg>
