<svg width="25" height="26" viewBox="0 0 25 26" fill="none" xmlns="http://www.w3.org/2000/svg">
<g opacity="0.495">
<path d="M2.30421 17.8468C2.05108 17.8468 1.7982 17.8631 1.54719 17.8958C1.45123 17.9082 1.36014 17.9453 1.28284 18.0035C1.20554 18.0617 1.1447 18.139 1.10621 18.2277C-0.280792 21.4137 -0.365797 23.8458 0.864203 25.0758C1.19817 25.3777 1.58921 25.6097 2.01429 25.7581C2.43937 25.9065 2.88985 25.9683 3.33918 25.9398C4.84883 25.8658 6.32865 25.4919 7.69221 24.8398C7.78587 24.8032 7.86794 24.7422 7.92988 24.663C7.99181 24.5838 8.03131 24.4894 8.0442 24.3898C8.15147 23.5727 8.08315 22.7422 7.84382 21.9536C7.60449 21.1651 7.19968 20.4367 6.65638 19.8171C6.11307 19.1975 5.44376 18.701 4.69324 18.3607C3.94272 18.0204 3.12827 17.8441 2.30421 17.8438V17.8468ZM6.9632 23.9347C4.4172 24.9917 2.4922 25.1208 1.6562 24.2838C0.820195 23.4468 0.948218 21.5217 2.00422 18.9767C2.10355 18.9707 2.20354 18.9678 2.30421 18.9678C3.5421 18.9691 4.72887 19.4614 5.60419 20.3367C6.47951 21.2121 6.97189 22.3989 6.97321 23.6367C6.97321 23.7347 6.97018 23.8347 6.96418 23.9347H6.9632Z" fill="#494B74"/>
<path d="M24.1364 1.80203C22.9074 0.573031 20.4815 0.657031 17.3045 2.03703C17.2122 2.07375 17.1313 2.13445 17.0703 2.21286C17.0093 2.29126 16.9704 2.38453 16.9575 2.48303C16.8502 3.30013 16.9185 4.13071 17.1578 4.91931C17.3971 5.7079 17.802 6.43636 18.3452 7.05603C18.8885 7.67571 19.5578 8.17233 20.3083 8.51274C21.0588 8.85314 21.8734 9.0295 22.6975 9.03003C22.9506 9.03003 23.2034 9.01367 23.4544 8.98103C23.5504 8.96859 23.6415 8.93146 23.7188 8.87326C23.7961 8.81507 23.857 8.7378 23.8955 8.64903C25.2805 5.46503 25.3664 3.03303 24.1364 1.80203ZM22.9955 7.90203C22.8955 7.90803 22.7955 7.91103 22.6955 7.91103C21.4571 7.90944 20.2699 7.41644 19.3947 6.54028C18.5195 5.66413 18.0277 4.47644 18.0274 3.23803C18.0274 3.13803 18.0275 3.03803 18.0365 2.93803C20.5825 1.88203 22.5075 1.75303 23.3445 2.59003C24.1815 3.42703 24.0525 5.35603 22.9955 7.90203Z" fill="#494B74"/>
<path d="M22.8837 9.68474C22.7418 9.64129 22.5885 9.65583 22.4573 9.72518C22.3261 9.79452 22.2277 9.91303 22.1837 10.0547C21.1261 13.0812 19.3667 15.8141 17.0497 18.0297C14.834 20.3468 12.1011 22.1061 9.07465 23.1637C9.00292 23.1842 8.93601 23.2187 8.87781 23.2653C8.81961 23.3119 8.77135 23.3697 8.73578 23.4353C8.70021 23.5008 8.67809 23.5728 8.67072 23.647C8.66335 23.7212 8.67083 23.7961 8.69281 23.8674C8.71479 23.9386 8.75082 24.0048 8.79871 24.062C8.84659 24.1191 8.90538 24.1662 8.97168 24.2003C9.03799 24.2344 9.11047 24.2549 9.18482 24.2607C9.25917 24.2664 9.3339 24.2573 9.40466 24.2337C12.605 23.1216 15.496 21.2665 17.8406 18.8207C20.2864 16.4757 22.1415 13.5844 23.2537 10.3837C23.2971 10.242 23.2825 10.0888 23.2131 9.95776C23.1438 9.82672 23.0253 9.72854 22.8837 9.68474Z" fill="#494B74"/>
<path d="M2.00805 17.1649C2.14994 17.2086 2.30342 17.1942 2.43468 17.1248C2.56595 17.0554 2.66427 16.9367 2.70806 16.7949C3.76565 13.7684 5.52504 11.0355 7.84209 8.81986C10.0578 6.50265 12.7907 4.74298 15.8171 3.68486C15.959 3.64096 16.0776 3.5425 16.1469 3.41113C16.2162 3.27976 16.2305 3.12625 16.1866 2.98436C16.1427 2.84247 16.0442 2.72382 15.9128 2.65453C15.7815 2.58524 15.628 2.57096 15.4861 2.61486C12.2857 3.72696 9.39467 5.58203 7.0501 8.02786C4.60411 10.3727 2.749 13.2641 1.63708 16.4649C1.61545 16.5352 1.60786 16.6091 1.6148 16.6823C1.62174 16.7556 1.64309 16.8267 1.67754 16.8917C1.712 16.9567 1.75889 17.0143 1.8156 17.0612C1.87232 17.1081 1.93771 17.1433 2.00805 17.1649Z" fill="#494B74"/>
<path d="M12.777 15.8415L13.412 15.2065L9.54004 13.1875L8.99609 13.7315L11.0211 17.5975L11.6501 16.9685L11.2051 16.2075L12.0161 15.3965L12.777 15.8415ZM10.8391 15.5825L10.0641 14.2575L11.389 15.0325L10.8391 15.5825Z" fill="#494B74"/>
<path d="M14.0467 13.6063C14.2033 13.6781 14.3745 13.7123 14.5467 13.7063C14.7144 13.6969 14.878 13.6505 15.0257 13.5703C15.1909 13.4801 15.3419 13.3658 15.4737 13.2313C15.6063 13.101 15.7189 12.9517 15.8077 12.7883C15.8871 12.6412 15.9332 12.4783 15.9427 12.3113C15.949 12.1391 15.9147 11.9679 15.8427 11.8113C15.7532 11.6197 15.6287 11.4464 15.4756 11.3003L13.4526 9.27734L12.8577 9.87234L14.8807 11.8953C14.9625 11.9729 15.0341 12.0606 15.0937 12.1563C15.1338 12.2208 15.1581 12.2937 15.1647 12.3693C15.1685 12.4351 15.1528 12.5005 15.1197 12.5573C15.0809 12.6234 15.0334 12.6839 14.9786 12.7373C14.9251 12.7923 14.8646 12.8401 14.7986 12.8793C14.7416 12.9122 14.6764 12.9281 14.6107 12.9253C14.5347 12.9192 14.4613 12.8949 14.3967 12.8543C14.3012 12.7948 14.2135 12.7236 14.1357 12.6423L12.1127 10.6193L11.5127 11.2193L13.5356 13.2423C13.6818 13.3944 13.8552 13.5179 14.0467 13.6063Z" fill="#494B74"/>
</g>
</svg>
