<svg width="25" height="26" viewBox="0 0 25 26" fill="none" xmlns="http://www.w3.org/2000/svg">
<g opacity="0.495">
<path d="M12.5 0.941406C10.0277 0.941406 7.61099 1.67452 5.55538 3.04804C3.49976 4.42155 1.8976 6.37379 0.951509 8.65786C0.00541395 10.9419 -0.242125 13.4553 0.24019 15.88C0.722506 18.3048 1.91301 20.5321 3.66116 22.2802C5.40932 24.0284 7.63661 25.2189 10.0614 25.7012C12.4861 26.1835 14.9995 25.936 17.2835 24.9899C19.5676 24.0438 21.5199 22.4416 22.8934 20.386C24.2669 18.3304 25 15.9137 25 13.4414C24.9963 10.1273 23.6782 6.95007 21.3347 4.60666C18.9913 2.26326 15.8141 0.945112 12.5 0.941406ZM12.5 24.8224C10.249 24.8226 8.04852 24.1553 6.17679 22.9048C4.30506 21.6544 2.84618 19.877 1.98462 17.7974C1.12307 15.7178 0.897539 13.4295 1.33656 11.2217C1.77559 9.01393 2.85945 6.98594 4.45107 5.39418C6.04269 3.80242 8.07058 2.71838 10.2783 2.27916C12.486 1.83994 14.7744 2.06527 16.8541 2.92664C18.9338 3.78801 20.7113 5.24674 21.9619 7.11836C23.2125 8.98997 23.88 11.1904 23.88 13.4414C23.8755 16.4579 22.675 19.3495 20.5417 21.4823C18.4085 23.615 15.5165 24.8147 12.5 24.8184V24.8224Z" fill="#494B74"/>
<path d="M19.8821 6.67788C20.0075 6.6055 20.1001 6.48733 20.1403 6.34819C20.1804 6.20904 20.1652 6.05974 20.0976 5.93162C20.0301 5.80351 19.9155 5.70655 19.778 5.6611C19.6405 5.61565 19.4907 5.62525 19.3601 5.68788C17.7372 6.54281 16.4241 7.88608 15.6061 9.52788L14.4831 9.05188C14.3482 9.00291 14.1997 9.00756 14.0682 9.06489C13.9367 9.12221 13.8322 9.22783 13.7763 9.35995C13.7203 9.49207 13.7172 9.64062 13.7676 9.77495C13.818 9.90928 13.9181 10.0191 14.0471 10.0819L15.1711 10.5589C14.9112 11.3075 14.7541 12.088 14.7041 12.8789H13.6281C13.5526 12.8757 13.4773 12.8878 13.4066 12.9145C13.336 12.9411 13.2714 12.9818 13.2169 13.0341C13.1624 13.0864 13.119 13.1491 13.0894 13.2186C13.0597 13.2881 13.0444 13.3628 13.0444 13.4384C13.0444 13.5139 13.0597 13.5887 13.0894 13.6581C13.119 13.7276 13.1624 13.7904 13.2169 13.8426C13.2714 13.8949 13.336 13.9356 13.4066 13.9623C13.4773 13.989 13.5526 14.0011 13.6281 13.9979H14.7041C14.7543 14.7898 14.9117 15.5713 15.1721 16.3209L14.0491 16.7979C13.9305 16.8485 13.833 16.9385 13.7731 17.0527C13.7132 17.1669 13.6946 17.2983 13.7203 17.4247C13.746 17.551 13.8146 17.6646 13.9144 17.7463C14.0142 17.8279 14.1391 17.8727 14.2681 17.8729C14.3431 17.8728 14.4172 17.8575 14.4861 17.8279L15.6081 17.3519C16.426 18.9926 17.7384 20.335 19.3601 21.1899C19.4907 21.2525 19.6405 21.2621 19.778 21.2167C19.9155 21.1712 20.0301 21.0742 20.0976 20.9461C20.1652 20.818 20.1804 20.6687 20.1403 20.5296C20.1001 20.3904 20.0075 20.2723 19.8821 20.1999C18.4881 19.4657 17.3553 18.3182 16.6391 16.9149L17.6511 16.4849C17.722 16.4585 17.7868 16.418 17.8417 16.3659C17.8965 16.3137 17.9402 16.251 17.9701 16.1815C18 16.112 18.0155 16.0372 18.0157 15.9616C18.0159 15.8859 18.0008 15.811 17.9713 15.7413C17.9417 15.6717 17.8984 15.6087 17.8438 15.5563C17.7893 15.5039 17.7247 15.4631 17.6539 15.4363C17.5831 15.4095 17.5077 15.3974 17.4321 15.4006C17.3565 15.4037 17.2823 15.4222 17.2141 15.4549L16.2061 15.8829C16.0004 15.2734 15.8724 14.6404 15.8251 13.9989H17.0671C17.1426 14.0021 17.2179 13.99 17.2886 13.9633C17.3592 13.9366 17.4238 13.8959 17.4783 13.8436C17.5328 13.7914 17.5762 13.7286 17.6058 13.6591C17.6355 13.5897 17.6508 13.5149 17.6508 13.4394C17.6508 13.3638 17.6355 13.2891 17.6058 13.2196C17.5762 13.1501 17.5328 13.0874 17.4783 13.0351C17.4238 12.9828 17.3592 12.9422 17.2886 12.9155C17.2179 12.8888 17.1426 12.8767 17.0671 12.8799H15.8251C15.8721 12.2394 15.9997 11.6074 16.2051 10.9989L17.2131 11.4259C17.3482 11.4762 17.4975 11.4724 17.6299 11.4154C17.7623 11.3584 17.8677 11.2525 17.924 11.1198C17.9803 10.9871 17.9832 10.8377 17.9322 10.7029C17.8812 10.5681 17.7802 10.4581 17.6501 10.3959L16.6371 9.96588C17.3533 8.56108 18.4869 7.41249 19.8821 6.67788Z" fill="#494B74"/>
<path d="M11.3902 12.8784H10.3272C10.2772 12.0861 10.1198 11.3043 9.85921 10.5544L10.9722 10.0824C11.1023 10.0202 11.2033 9.9102 11.2543 9.77537C11.3053 9.64053 11.3024 9.49121 11.2461 9.35849C11.1898 9.22578 11.0844 9.11989 10.952 9.06287C10.8196 9.00586 10.6703 9.0021 10.5352 9.05239L9.42321 9.52339C8.60067 7.87427 7.27851 6.5269 5.64521 5.67339C5.58007 5.63925 5.50886 5.61827 5.43561 5.61165C5.36237 5.60503 5.28853 5.6129 5.21833 5.63482C5.07655 5.67908 4.95817 5.77784 4.88921 5.90939C4.82026 6.04094 4.80638 6.19449 4.85064 6.33627C4.8949 6.47804 4.99366 6.59643 5.1252 6.66539C6.52917 7.39853 7.67051 8.54999 8.39121 9.96039L7.36822 10.3944C7.23919 10.4571 7.13915 10.567 7.08875 10.7013C7.03836 10.8356 7.04144 10.9842 7.09737 11.1163C7.1533 11.2484 7.25781 11.3541 7.38933 11.4114C7.52085 11.4687 7.66935 11.4734 7.8042 11.4244L8.82322 10.9924C9.02955 11.6024 9.15789 12.2361 9.20521 12.8784H7.95121C7.87574 12.8752 7.80042 12.8873 7.72976 12.914C7.65909 12.9407 7.59456 12.9814 7.54003 13.0336C7.4855 13.0859 7.44211 13.1487 7.41247 13.2181C7.38283 13.2876 7.36756 13.3624 7.36756 13.4379C7.36756 13.5134 7.38283 13.5882 7.41247 13.6576C7.44211 13.7271 7.4855 13.7899 7.54003 13.8421C7.59456 13.8944 7.65909 13.9351 7.72976 13.9618C7.80042 13.9885 7.87574 14.0006 7.95121 13.9974H9.20521C9.15806 14.6406 9.02971 15.2754 8.82322 15.8864L7.8042 15.4544C7.66909 15.4041 7.51981 15.4079 7.3874 15.4649C7.25498 15.5219 7.14965 15.6278 7.09334 15.7605C7.03704 15.8932 7.03409 16.0425 7.0851 16.1774C7.13612 16.3122 7.23716 16.4222 7.36721 16.4844L8.39022 16.9184C7.6695 18.3277 6.52851 19.4781 5.1252 20.2104C5.06007 20.2445 5.0023 20.2912 4.95519 20.3476C4.90808 20.4041 4.87255 20.4693 4.85064 20.5395C4.82872 20.6097 4.82086 20.6835 4.82747 20.7568C4.83409 20.83 4.85507 20.9013 4.88921 20.9664C4.92336 21.0315 4.96999 21.0893 5.02646 21.1364C5.08294 21.1835 5.14813 21.219 5.21833 21.241C5.28853 21.2629 5.36237 21.2708 5.43561 21.2641C5.50886 21.2575 5.58007 21.2365 5.64521 21.2024C7.27769 20.35 8.59949 19.004 9.42222 17.3564L10.5342 17.8274C10.6031 17.857 10.6773 17.8723 10.7522 17.8724C10.8812 17.8722 11.0061 17.8275 11.1059 17.7458C11.2057 17.6641 11.2743 17.5505 11.3 17.4242C11.3257 17.2978 11.3071 17.1665 11.2472 17.0523C11.1873 16.9381 11.0898 16.848 10.9712 16.7974L9.85821 16.3254C10.1194 15.5742 10.2772 14.7911 10.3272 13.9974H11.3902C11.5345 13.9913 11.6709 13.9297 11.7708 13.8254C11.8707 13.7212 11.9265 13.5823 11.9265 13.4379C11.9265 13.2935 11.8707 13.1546 11.7708 13.0504C11.6709 12.9461 11.5345 12.8845 11.3902 12.8784Z" fill="#494B74"/>
</g>
</svg>
