<svg width="26" height="26" viewBox="0 0 26 26" fill="none" xmlns="http://www.w3.org/2000/svg">
<g opacity="0.5">
<path d="M20.5999 1.47293C18.6149 -0.512066 12.6309 3.32893 8.00994 7.95093C3.38894 12.5729 -0.453069 18.5509 1.53193 20.5409C1.72987 20.7253 1.96297 20.8677 2.21728 20.9598C2.47159 21.0519 2.74186 21.0918 3.01193 21.0769C5.68593 21.0769 10.3559 17.8289 14.1219 14.0639C18.7469 9.43693 22.5869 3.45893 20.5999 1.47293ZM2.32594 19.7499C1.37994 18.8039 3.38694 14.1579 8.80294 8.74093C13.3629 4.18093 17.3759 2.04093 19.0959 2.04093C19.3546 2.0191 19.6114 2.09993 19.8109 2.26593C20.7569 3.21193 18.7499 7.85793 13.3329 13.2749C7.91594 18.6919 3.26994 20.6949 2.32594 19.7499Z" fill="#494B74"/>
<path d="M25.4539 6.29737L22.4729 3.31637C22.3679 3.21135 22.2254 3.15234 22.0769 3.15234C21.9284 3.15234 21.7859 3.21135 21.6809 3.31637C21.5759 3.4214 21.5169 3.56384 21.5169 3.71237C21.5169 3.8609 21.5759 4.00335 21.6809 4.10837L24.6619 7.08937C25.6089 8.03737 23.5999 12.6894 18.1749 18.1144C12.7499 23.5394 8.0979 25.5494 7.1499 24.6014L4.16891 21.6204C4.11691 21.5684 4.05516 21.5271 3.98721 21.499C3.91927 21.4708 3.84646 21.4563 3.77292 21.4563C3.69937 21.4563 3.62654 21.4708 3.55859 21.499C3.49065 21.5271 3.42893 21.5684 3.37692 21.6204C3.32492 21.6724 3.28367 21.7341 3.25552 21.8021C3.22738 21.87 3.21289 21.9428 3.21289 22.0164C3.21289 22.0899 3.22738 22.1627 3.25552 22.2307C3.28367 22.2986 3.32492 22.3604 3.37692 22.4124L6.35791 25.3934C6.55831 25.5806 6.79448 25.7254 7.05225 25.8191C7.31001 25.9127 7.58406 25.9533 7.85791 25.9384C9.18236 25.8257 10.4608 25.3986 11.5869 24.6924C14.2968 23.1061 16.7791 21.1597 18.9659 18.9064C21.2192 16.7195 23.1656 14.2373 24.7519 11.5274C26.1279 9.02337 26.3709 7.21437 25.4539 6.29737Z" fill="#494B74"/>
<path d="M9.79111 9.74894C9.04111 10.4989 5.3621 14.3009 6.5831 15.5209C6.67117 15.6073 6.77591 15.6748 6.89093 15.7193C7.00595 15.7638 7.12885 15.7845 7.2521 15.7799C7.92526 15.6907 8.56407 15.4297 9.10708 15.0219C10.2788 14.2306 11.367 13.3223 12.3551 12.3109C13.1051 11.5609 16.7841 7.75894 15.5641 6.53894C14.3441 5.31894 10.5391 8.99494 9.79111 9.74894ZM11.5641 11.5219C10.4109 12.8016 9.0276 13.8531 7.48611 14.6219C8.25431 13.0798 9.30593 11.696 10.5861 10.5429C11.7394 9.26299 13.1231 8.21138 14.6651 7.44294C13.8959 8.98527 12.8432 10.369 11.5621 11.5219H11.5641Z" fill="#494B74"/>
</g>
</svg>
