<svg width="25" height="26" viewBox="0 0 25 26" fill="none" xmlns="http://www.w3.org/2000/svg">
<g opacity="0.498">
<path d="M10.5469 12.4102L8.85986 14.0972L11.8058 17.0432L13.4969 15.3522L13.0029 14.8582L11.9029 15.9582L11.1219 15.1772L12.0489 14.2502L11.5699 13.7712L10.6429 14.6982L9.94287 13.9982L11.0349 12.9062L10.5469 12.4102Z" fill="#494B74"/>
<path d="M16.7267 12.1218L13.7807 9.17578L13.1877 9.76878L15.1217 11.7028L12.3157 10.6408L11.7207 11.2358L14.6667 14.1818L15.2617 13.5878L13.3297 11.6558L16.1297 12.7178L16.7267 12.1218Z" fill="#494B74"/>
<path d="M2.30282 17.8438C2.04968 17.8436 1.79685 17.86 1.54586 17.8928C1.45015 17.9056 1.35933 17.9429 1.28225 18.0011C1.20517 18.0592 1.14442 18.1363 1.10586 18.2248C-0.280143 21.4108 -0.366147 23.8428 0.863853 25.0728C1.19797 25.3749 1.58918 25.6069 2.01443 25.7553C2.43968 25.9037 2.89038 25.9654 3.33987 25.9368C4.84783 25.8623 6.32583 25.4884 7.68783 24.8368C7.78224 24.8009 7.86521 24.7401 7.92788 24.6609C7.99055 24.5817 8.03061 24.487 8.04385 24.3868C8.15078 23.5698 8.08224 22.7393 7.8428 21.9509C7.60335 21.1624 7.19852 20.4341 6.6553 19.8145C6.11207 19.1949 5.44295 18.6983 4.69259 18.3578C3.94223 18.0173 3.12787 17.8407 2.30386 17.8398L2.30282 17.8438ZM6.96285 23.9318C4.41685 24.9878 2.49187 25.1178 1.65487 24.2808C0.817869 23.4438 0.947868 21.5188 2.00387 18.9738C2.10387 18.9678 2.20386 18.9638 2.30386 18.9638C3.54174 18.9652 4.72852 19.4575 5.60384 20.3328C6.47916 21.2081 6.97154 22.395 6.97286 23.6328C6.97186 23.7328 6.96885 23.8328 6.96285 23.9318Z" fill="#494B74"/>
<path d="M24.1337 1.80174C22.9057 0.573738 20.4818 0.656738 17.3058 2.03574C17.2121 2.07225 17.13 2.13329 17.0681 2.21247C17.0061 2.29165 16.9666 2.38604 16.9537 2.48574C16.9211 2.73675 16.9048 2.98961 16.9048 3.24274C16.9077 4.77718 17.5185 6.24795 18.6035 7.33297C19.6885 8.41799 21.1593 9.02883 22.6938 9.03174C22.9469 9.03181 23.1997 9.01544 23.4507 8.98274C23.5467 8.9703 23.6378 8.93316 23.7151 8.87497C23.7924 8.81677 23.8533 8.73951 23.8918 8.65074C25.2788 5.46474 25.3637 3.03674 24.1337 1.80174ZM22.9927 7.90174C22.3563 7.9404 21.7186 7.84871 21.1188 7.63226C20.519 7.41582 19.9697 7.07919 19.5046 6.64299C19.0395 6.2068 18.6683 5.68023 18.4139 5.09555C18.1594 4.51087 18.027 3.88039 18.0248 3.24274C18.0248 3.14274 18.0247 3.04274 18.0347 2.94274C20.5807 1.88574 22.5058 1.75674 23.3428 2.59374C24.1798 3.43074 24.0497 5.35574 22.9927 7.90174Z" fill="#494B74"/>
<path d="M22.8847 9.68483C22.743 9.64134 22.5898 9.65574 22.4586 9.72489C22.3274 9.79403 22.229 9.9123 22.1847 10.0538C21.1265 13.0802 19.3669 15.8131 17.0498 18.0288C14.8342 20.3462 12.1013 22.1059 9.07475 23.1638C8.94666 23.2034 8.83703 23.2877 8.76579 23.4013C8.69455 23.5148 8.66641 23.6502 8.6865 23.7828C8.7066 23.9153 8.77358 24.0363 8.87528 24.1236C8.97698 24.211 9.10669 24.259 9.24076 24.2588C9.29671 24.2589 9.35232 24.2504 9.40574 24.2338C12.6062 23.1219 15.4974 21.2668 17.8418 18.8208C20.2875 16.4761 22.1425 13.5851 23.2547 10.3848C23.2985 10.2429 23.2841 10.0895 23.2147 9.95822C23.1453 9.82696 23.0266 9.72862 22.8847 9.68483Z" fill="#494B74"/>
<path d="M2.00869 17.1675C2.15058 17.2112 2.304 17.1968 2.43527 17.1274C2.56653 17.058 2.66491 16.9393 2.7087 16.7975C3.76693 13.7711 5.52653 11.0382 7.84365 8.82245C10.0594 6.50509 12.7928 4.7457 15.8197 3.68845C15.8914 3.66804 15.9583 3.63351 16.0165 3.58688C16.0747 3.54026 16.123 3.48248 16.1586 3.41693C16.1942 3.35139 16.2163 3.27941 16.2237 3.2052C16.231 3.13099 16.2235 3.05606 16.2015 2.9848C16.1795 2.91355 16.1436 2.84739 16.0957 2.79023C16.0478 2.73307 15.9889 2.68604 15.9226 2.65192C15.8563 2.61779 15.7839 2.59726 15.7096 2.59151C15.6352 2.58576 15.5604 2.59492 15.4896 2.61845C12.2888 3.73017 9.39738 5.58528 7.0527 8.03145C4.60687 10.376 2.75177 13.2671 1.63967 16.4675C1.59591 16.6092 1.61016 16.7625 1.67935 16.8938C1.74853 17.025 1.86701 17.1235 2.00869 17.1675Z" fill="#494B74"/>
</g>
</svg>
