<svg width="25" height="26" viewBox="0 0 25 26" fill="none" xmlns="http://www.w3.org/2000/svg">
<g opacity="0.496">
<path d="M12.5 0.9375C10.0277 0.9375 7.61099 1.67061 5.55537 3.04413C3.49976 4.41765 1.89762 6.36988 0.951521 8.65396C0.00542521 10.938 -0.242129 13.4514 0.240186 15.8761C0.722502 18.3009 1.91302 20.5282 3.66118 22.2763C5.40933 24.0245 7.63662 25.215 10.0614 25.6973C12.4861 26.1796 14.9995 25.9321 17.2836 24.986C19.5676 24.0399 21.5199 22.4377 22.8934 20.3821C24.2669 18.3265 25 15.9098 25 13.4375C24.9963 10.1234 23.6782 6.94616 21.3348 4.60276C18.9914 2.25936 15.8141 0.941206 12.5 0.9375ZM12.5 24.8175C10.249 24.8177 8.04843 24.1504 6.17668 22.8999C4.30493 21.6494 2.84607 19.8719 1.98454 17.7923C1.12302 15.7126 0.897546 13.4242 1.33665 11.2164C1.77576 9.00863 2.85971 6.98064 4.45143 5.38892C6.04315 3.7972 8.07115 2.71324 10.2789 2.27413C12.4867 1.83503 14.7751 2.06049 16.8548 2.92202C18.9344 3.78354 20.7119 5.24243 21.9624 7.11418C23.2129 8.98593 23.8802 11.1865 23.88 13.4375C23.876 16.4544 22.6758 19.3465 20.5424 21.4796C18.4091 23.6128 15.5169 24.8128 12.5 24.8165V24.8175Z" fill="#494B74"/>
<path d="M20.3502 14.9294H18.3422L17.4922 13.4374L18.3412 11.9454H20.3482C20.4731 11.9454 20.5929 11.8958 20.6812 11.8075C20.7696 11.7191 20.8192 11.5993 20.8192 11.4744C20.8192 11.3495 20.7696 11.2297 20.6812 11.1414C20.5929 11.0531 20.4731 11.0034 20.3482 11.0034H18.3422L17.4922 9.50943L18.4772 7.78043C18.539 7.67182 18.5551 7.54312 18.522 7.42262C18.4889 7.30213 18.4093 7.19972 18.3007 7.13793C18.1921 7.07613 18.0634 7.06001 17.9429 7.09311C17.8224 7.12621 17.72 7.20582 17.6582 7.31443L16.6762 9.03843H14.9362L14.1132 7.59243L15.1242 5.81743C15.186 5.70882 15.2021 5.58012 15.169 5.45963C15.1359 5.33913 15.0563 5.23672 14.9477 5.17493C14.8391 5.11313 14.7104 5.09701 14.5899 5.13011C14.4694 5.16321 14.367 5.24282 14.3052 5.35143L13.3232 7.07543H11.6232L10.6412 5.35143C10.6106 5.29765 10.5697 5.25043 10.5208 5.21246C10.472 5.17448 10.4162 5.1465 10.3565 5.13011C10.2968 5.11372 10.2345 5.10925 10.1731 5.11694C10.1117 5.12463 10.0525 5.14433 9.99869 5.17493C9.94491 5.20553 9.89768 5.24642 9.85971 5.29527C9.82174 5.34411 9.79376 5.39996 9.77737 5.45963C9.76098 5.51929 9.7565 5.58159 9.76419 5.64298C9.77188 5.70438 9.79158 5.76365 9.82217 5.81743L10.7922 7.50943L9.92117 9.03943H8.27719L7.29218 7.31743C7.22808 7.21354 7.12617 7.1386 7.0079 7.10839C6.88963 7.07818 6.76427 7.09506 6.6582 7.15548C6.55214 7.2159 6.47366 7.31514 6.43933 7.43229C6.40501 7.54943 6.4175 7.67532 6.47418 7.78343L7.46118 9.50943L6.61218 11.0014H4.65118C4.52627 11.0014 4.40648 11.0511 4.31815 11.1394C4.22982 11.2277 4.18018 11.3475 4.18018 11.4724C4.18018 11.5973 4.22982 11.7171 4.31815 11.8055C4.40648 11.8938 4.52627 11.9434 4.65118 11.9434H6.61218L7.46118 13.4354L6.61218 14.9264H4.65118C4.52627 14.9264 4.40648 14.9761 4.31815 15.0644C4.22982 15.1527 4.18018 15.2725 4.18018 15.3974C4.18018 15.5223 4.22982 15.6421 4.31815 15.7305C4.40648 15.8188 4.52627 15.8684 4.65118 15.8684H6.61218L7.46118 17.3594L6.4762 19.0884C6.44299 19.1422 6.42097 19.2022 6.41144 19.2647C6.4019 19.3272 6.40503 19.391 6.42068 19.4523C6.43634 19.5136 6.46418 19.5711 6.50253 19.6213C6.54088 19.6716 6.58894 19.7137 6.64389 19.745C6.69884 19.7763 6.75955 19.7962 6.82236 19.8035C6.88517 19.8109 6.9488 19.8055 7.00949 19.7877C7.07018 19.7699 7.12665 19.7401 7.17557 19.7C7.22448 19.66 7.26483 19.6104 7.29419 19.5544L8.27618 17.8304H9.9202L10.7912 19.3594L9.82819 21.0504C9.76639 21.159 9.75029 21.2877 9.78339 21.4082C9.81649 21.5287 9.89609 21.6311 10.0047 21.6929C10.1133 21.7547 10.242 21.7708 10.3625 21.7377C10.483 21.7046 10.5854 21.625 10.6472 21.5164L11.6292 19.7924H13.3162L14.2982 21.5164C14.36 21.625 14.4624 21.7046 14.5829 21.7377C14.7034 21.7708 14.8321 21.7547 14.9407 21.6929C15.0493 21.6311 15.1289 21.5287 15.162 21.4082C15.1951 21.2877 15.179 21.159 15.1172 21.0504L14.1112 19.2834L14.9382 17.8304H16.6692L17.6512 19.5544C17.7153 19.6583 17.8172 19.7333 17.9355 19.7635C18.0537 19.7937 18.1791 19.7768 18.2852 19.7164C18.3912 19.656 18.4697 19.5567 18.504 19.4396C18.5384 19.3224 18.5259 19.1965 18.4692 19.0884L17.4922 17.3704L18.3452 15.8704H20.3522C20.4771 15.8704 20.5969 15.8208 20.6852 15.7325C20.7736 15.6441 20.8232 15.5243 20.8232 15.3994C20.8232 15.2745 20.7736 15.1547 20.6852 15.0664C20.5969 14.9781 20.4771 14.9284 20.3522 14.9284L20.3502 14.9294ZM16.6782 12.9674H14.9922L14.1432 11.4754L14.9922 9.98443H16.6792L17.5282 11.4754L16.6782 12.9674ZM13.3262 14.9294H11.6262L10.7772 13.4384L11.6262 11.9464H13.3262L14.1752 13.4384L13.3262 14.9294ZM13.2742 11.0044H11.6302L10.7592 9.47443L11.5862 8.02143H13.2742L14.1222 9.50943L13.2742 11.0044ZM8.2742 9.98343H9.91818L10.7922 11.5094L9.96518 12.9624H8.2782L7.4292 11.4704L8.2742 9.98343ZM8.2742 13.9084H9.96118L10.7882 15.3624L9.91718 16.8924H8.27319L7.42419 15.4014L8.2742 13.9084ZM13.2742 18.8534H11.5862L10.7592 17.4004L11.6302 15.8704H13.2742L14.1232 17.3614L13.2742 18.8534ZM16.6742 16.8914H14.9922L14.1432 15.4004L14.9922 13.9094H16.6792L17.5282 15.4014L16.6742 16.8914Z" fill="#494B74"/>
</g>
</svg>
