<svg width="25" height="21" viewBox="0 0 25 21" fill="none" xmlns="http://www.w3.org/2000/svg">
<path d="M12.5041 1.73414C12.7519 1.73414 12.9769 1.85299 13.077 2.03695L15.7306 6.88508C15.8837 7.16509 16.1852 7.36043 16.5337 7.40604L22.638 8.20535C22.8678 8.2352 23.0637 8.37358 23.1355 8.55537C23.2042 8.73176 23.1517 8.92522 22.9967 9.06088L18.524 12.9924C18.2798 13.2073 18.1695 13.5123 18.2262 13.8118L19.2633 19.2645C19.2994 19.4544 19.2042 19.6432 19.0203 19.755C18.9087 19.8223 18.7785 19.8571 18.6434 19.8571C18.5337 19.8571 18.4252 19.8332 18.3317 19.7898L13.01 17.2664C12.8526 17.1926 12.6784 17.1546 12.5041 17.1546C12.3305 17.1546 12.1569 17.1926 11.9989 17.2664L6.68322 19.7876C6.58612 19.8332 6.47581 19.8571 6.36486 19.8571C6.23222 19.8571 6.09958 19.8212 5.99527 19.7583C5.80534 19.6433 5.70947 19.4533 5.74624 19.2634L6.78331 13.8118C6.84001 13.5123 6.72906 13.2073 6.48486 12.9925L2.01152 9.05952C1.85777 8.92466 1.80531 8.73176 1.87344 8.55728C1.94522 8.37358 2.14115 8.2352 2.37268 8.20535L8.4752 7.40604C8.8255 7.36043 9.12638 7.16507 9.27954 6.88508L11.9313 2.03805C12.0326 1.85327 12.2581 1.73414 12.5041 1.73414ZM12.5041 0.795898C11.8481 0.795898 11.2512 1.12067 10.9714 1.62969L8.31843 6.47782L2.21592 7.27688C1.58886 7.35802 1.06728 7.73651 0.865899 8.25071C0.66452 8.76755 0.816455 9.33682 1.25964 9.72481L5.73177 13.6567L4.6947 19.1082C4.58916 19.6584 4.85928 20.2088 5.38929 20.5311C5.68113 20.7058 6.02238 20.7959 6.36486 20.7959C6.64584 20.7959 6.92863 20.7351 7.18487 20.6157L12.5047 18.0935L17.8258 20.6157C18.0815 20.7351 18.3637 20.7959 18.644 20.7959C18.9871 20.7959 19.3284 20.7058 19.6202 20.5311C20.1502 20.2087 20.4197 19.6584 20.3148 19.1082L19.2777 13.6566L23.7505 9.72478C24.193 9.33652 24.3455 8.76752 24.1436 8.25068C23.9416 7.73648 23.42 7.35802 22.793 7.27686L16.6904 6.47782L14.0374 1.62969C13.7595 1.12069 13.1613 0.795898 12.5041 0.795898Z" fill="#181C32" stroke="#181C32" stroke-width="0.3"/>
</svg>
