<svg width="18" height="18" viewBox="0 0 18 18" fill="none" xmlns="http://www.w3.org/2000/svg">
<path d="M9 0.23999C10.2133 0.23999 11.35 0.46999 12.41 0.92999C13.47 1.38999 14.3967 2.01332 15.19 2.79999C15.9833 3.58666 16.61 4.51332 17.07 5.57999C17.53 6.64666 17.76 7.77999 17.76 8.97999C17.76 10.1933 17.53 11.33 17.07 12.39C16.61 13.45 15.9833 14.3767 15.19 15.17C14.3967 15.9633 13.47 16.59 12.41 17.05C11.35 17.51 10.2133 17.74 9 17.74C7.8 17.74 6.66667 17.51 5.6 17.05C4.53333 16.59 3.60666 15.9633 2.82 15.17C2.03333 14.3767 1.41 13.45 0.949998 12.39C0.489998 11.33 0.259998 10.1933 0.259998 8.97999C0.259998 7.77999 0.489998 6.64666 0.949998 5.57999C1.41 4.51332 2.03333 3.58666 2.82 2.79999C3.60666 2.01332 4.53333 1.38999 5.6 0.92999C6.66667 0.46999 7.8 0.23999 9 0.23999ZM12.1 3.93999C11.6467 3.93999 11.2633 4.12666 10.95 4.49999C10.6367 4.87332 10.48 5.32666 10.48 5.85999C10.48 6.40666 10.6367 6.86666 10.95 7.23999C11.2633 7.61332 11.6467 7.79999 12.1 7.79999C12.5533 7.79999 12.9367 7.61332 13.25 7.23999C13.5633 6.86666 13.72 6.40666 13.72 5.85999C13.72 5.32666 13.5633 4.87332 13.25 4.49999C12.9367 4.12666 12.5533 3.93999 12.1 3.93999ZM3.96 7.71999H7.72V6.47999H3.96V7.71999ZM13.96 11.48C13.9733 11.4533 13.98 11.4067 13.98 11.34C13.98 11.2733 13.97 11.2 13.95 11.12C13.93 11.04 13.89 10.9667 13.83 10.9C13.77 10.8333 13.6867 10.78 13.58 10.74C13.2733 11.1133 12.8933 11.4467 12.44 11.74C12.0533 11.9933 11.5633 12.2233 10.97 12.43C10.3767 12.6367 9.68 12.74 8.88 12.74C8.08 12.74 7.4 12.6367 6.84 12.43C6.28 12.2233 5.80667 11.9933 5.42 11.74C4.98 11.4467 4.60666 11.1133 4.3 10.74C4.19333 10.7667 4.11333 10.8133 4.06 10.88C4.00666 10.9467 3.96666 11.02 3.94 11.1C3.91333 11.18 3.9 11.2533 3.9 11.32C3.9 11.3867 3.90666 11.44 3.92 11.48C3.93333 11.4933 3.93666 11.5033 3.93 11.51C3.92333 11.5167 3.92666 11.5267 3.94 11.54C4.06 11.9 4.27333 12.2367 4.58 12.55C4.88667 12.8633 5.26 13.1367 5.7 13.37C6.14 13.6033 6.63667 13.7833 7.19 13.91C7.74333 14.0367 8.32666 14.1 8.94 14.1C10.1533 14.1 11.2 13.88 12.08 13.44C12.96 13 13.56 12.42 13.88 11.7C13.88 11.6733 13.8867 11.6467 13.9 11.62C13.9133 11.5933 13.9333 11.5467 13.96 11.48Z" fill="#969BAD"/>
</svg>
