<svg width="20" height="20" viewBox="0 0 20 20" fill="none" xmlns="http://www.w3.org/2000/svg">
<path d="M17.95 8.134C17.95 7.785 17.85 7.685 17.501 7.685H2.545C2.196 7.685 2.045 7.785 2.045 8.185V16.012C2.045 17.059 2.494 17.512 3.491 17.512H16.554C17.554 17.512 18 17.063 18 16.066C17.95 13.369 17.95 10.776 17.95 8.134ZM2.445 6.887H17.1C17.948 6.887 17.948 6.887 17.948 6.087C17.948 5.14 17.548 4.787 16.648 4.787H10.322C9.522 4.787 9.522 4.787 9.522 3.987C9.522 3.139 9.122 2.787 8.276 2.787H3.293C2.393 2.737 2.047 3.087 1.993 3.987V6.439C2 6.838 2.1 6.887 2.445 6.887Z" fill="#8E949C"/>
</svg>
