<svg width="14" height="14" viewBox="0 0 14 14" fill="currentColor" xmlns="http://www.w3.org/2000/svg">
<path d="M13.1004 6.98769C13.1004 3.62031 10.3701 0.888672 7.00137 0.888672C3.63262 0.888672 0.902344 3.62031 0.902344 6.98769C0.902344 10.3564 3.63262 13.0867 7.00137 13.0867H12.4551C12.6465 13.0867 12.801 12.9322 12.801 12.7436L11.6348 10.9539C12.5494 9.8875 13.1004 8.50254 13.1004 6.98769Z" fill="currentColor"/>
<path d="M9.59355 6.073C9.17246 6.073 8.83066 6.41479 8.83066 6.83589C8.83066 7.25698 9.17246 7.59878 9.59355 7.59878C10.0146 7.59878 10.3564 7.25698 10.3564 6.83589C10.3564 6.41479 10.0146 6.073 9.59355 6.073ZM4.1043 6.073C3.6832 6.073 3.34141 6.41479 3.34141 6.83589C3.34141 7.25698 3.6832 7.59878 4.1043 7.59878C4.52539 7.59878 4.86719 7.25698 4.86719 6.83589C4.86719 6.41479 4.52539 6.073 4.1043 6.073ZM6.84961 6.073C6.42852 6.073 6.08672 6.41479 6.08672 6.83589C6.08672 7.25698 6.42852 7.59878 6.84961 7.59878C7.2707 7.59878 7.6125 7.25698 7.6125 6.83589C7.61113 6.41479 7.2707 6.073 6.84961 6.073Z" fill="white"/>
</svg>
