<svg width="16" height="16" viewBox="0 0 16 16" fill="none" xmlns="http://www.w3.org/2000/svg">
<path d="M14.3789 0C15.2526 0 15.9808 0.728 15.9808 1.62V12.014L12.5413 8.574L10.903 10.212L6.31566 5.625L8.00319e-06 11.94V1.62C8.00319e-06 0.728 0.728154 0 1.62013 0H14.3789ZM10.903 11.959L12.5413 10.339L16 13.779V14.38C16 15.272 15.2719 16 14.3789 16H1.62013C1.18837 15.9966 0.775544 15.8242 0.47194 15.5206C0.168337 15.2171 -0.00134275 14.8069 8.00319e-06 14.38C8.00319e-06 13.943 0.163841 13.543 0.473303 13.233L6.31566 7.39L10.903 11.959ZM12.3775 5.151C13.0692 5.151 13.6325 4.587 13.6325 3.895C13.6325 3.204 13.0692 2.639 12.3775 2.639C11.6857 2.639 11.1214 3.204 11.1214 3.895C11.1214 4.587 11.6857 5.151 12.3775 5.151Z" fill="#8E949C"/>
</svg>
