<svg width="14" height="14" viewBox="0 0 14 14" fill="currentColor" xmlns="http://www.w3.org/2000/svg">
<path d="M7.02734 0.895508C3.65722 0.895508 0.925583 3.62715 0.925583 6.99727C0.925583 10.3674 3.65722 13.099 7.02734 13.099C10.3975 13.099 13.1291 10.3674 13.1291 6.99727C13.1291 3.62715 10.3975 0.895508 7.02734 0.895508ZM5.56855 10.2813L5.21172 11.3723L3.12539 9.04395L6.18379 8.40137L5.86933 9.3625C5.92129 9.38164 5.97324 9.40078 6.02656 9.41719C7.83398 10.0092 9.75215 9.33242 10.8186 7.87774C9.96133 9.89707 7.69179 10.9607 5.56855 10.2813ZM7.88457 5.70527L8.11289 4.72363C8.05957 4.70859 8.00625 4.69492 7.95156 4.68262C6.09902 4.25195 4.24785 5.09414 3.31406 6.6377C3.99082 4.55273 6.15781 3.29356 8.33164 3.78301L8.59277 2.66191L10.8746 4.79609L7.88457 5.70527Z" fill="currentColor"/>
</svg>
