<svg xmlns="http://www.w3.org/2000/svg" width="20" height="20" viewBox="0 0 20 20">
    <g data-name="组 8459">
        <g data-name="组 8448">
            <g data-name="组 8441">
                <path data-name="路径 5499" d="M164.722 0H162.3l3.459 6.226h2.42z" transform="translate(-156.643 1)" style="fill:#e64a19"/>
                <path data-name="路径 5500" d="M440.558 0 437.1 6.226h2.42L442.979 0z" transform="translate(-427.631 1)" style="fill:#ff754c"/>
                <path data-name="路径 5501" d="m399.33 263.174-.023-.043-.024.043zm-1.441-2.474-1.189 2.1.386.712 1.2-2.1z" transform="translate(-387.794 -256.044)" style="fill:#c93d18"/>
            </g>
            <g data-name="组 8442">
                <path data-name="路径 5512" d="M212.3 431.1a6.5 6.5 0 1 0 6.5-6.5 6.5 6.5 0 0 0-6.5 6.5z" transform="translate(-208.424 -418.097)" style="fill:#af8a77"/>
                <path data-name="路径 5513" d="M267.618 485.333a5.417 5.417 0 1 1 5.418-5.416 5.418 5.418 0 0 1-5.418 5.416zm-3.791-3.791v1.084h7.584v-1.084h-1.084v-3.249h1.084v-1.084h-7.584v1.084h1.084v3.251h-1.084z" transform="translate(-257.242 -466.915)" style="fill:#ceb1a1"/>
                <path data-name="路径 5514" d="M439.267 649.4h1.084v3.251h-1.084zm-2.167 0h1.084v3.251H437.1z" transform="translate(-428.349 -638.021)" style="fill:#ceb1a1"/>
            </g>
        </g>
        <path data-name="矩形 9312" style="fill:none" d="M0 0h20v20H0z"/>
    </g>
</svg>
