<svg xmlns="http://www.w3.org/2000/svg" width="20" height="20" viewBox="0 0 20 20">
    <g data-name="组 8457">
        <g data-name="组 8437">
            <path data-name="路径 5499" d="M164.722 0H162.3l3.459 6.226h2.42z" transform="translate(-156.643 1)" style="fill:#e64a19"/>
            <path data-name="路径 5500" d="M440.558 0 437.1 6.226h2.42L442.979 0z" transform="translate(-427.631 1)" style="fill:#ff754c"/>
            <path data-name="路径 5501" d="m399.334 263.316-.024-.046-.024.046zm-1.443-2.616-1.191 2.221.386.753 1.2-2.224z" transform="translate(-387.794 -256.09)" style="fill:#c93d18"/>
            <path data-name="路径 5505" d="M276.849 476.391a6.624 6.624 0 1 0 6.624-6.544 6.584 6.584 0 0 0-6.624 6.544z" transform="translate(-272.973 -463.751)" style="fill:#ffe53b"/>
            <path data-name="路径 5506" d="M333.572 530.878a5.058 5.058 0 1 0 5.057-5 5.027 5.027 0 0 0-5.057 5z" transform="translate(-328.129 -518.237)" style="fill:#fff6ba"/>
            <path data-name="路径 5507" d="M460.766 626.94h3.087v1h-3.087zm0 3.411h3.087v1h-3.087z" transform="translate(-451.811 -616.193)" style="fill:#ffe53b"/>
            <path data-name="路径 5508" d="M498.369 648.472v-3.452h1.011v3.452z" transform="translate(-488.375 -633.774)" style="fill:#ffe53b"/>
        </g>
        <path data-name="矩形 9310" style="fill:none" d="M0 0h20v20H0z"/>
    </g>
</svg>
