<svg width="36" height="36" viewBox="0 0 36 36" fill="none" xmlns="http://www.w3.org/2000/svg">
<path d="M36 18C36 8.05887 27.9411 0 18 0C8.05887 0 0 8.05887 0 18C0 27.9411 8.05887 36 18 36C27.9411 36 36 27.9411 36 18Z" fill="url(#paint0_linear_5993_109217)"/>
<path d="M17.5 26C16.734 26 16.037 25.371 15.371 24.077C15.3639 24.063 15.353 24.0514 15.3396 24.0434C15.3261 24.0354 15.3106 24.0315 15.295 24.032H12.246C11.3838 24.0294 10.5579 23.6849 9.94942 23.0741C9.3409 22.4634 8.99947 21.6362 9 20.774V13.257C8.99947 12.3949 9.3409 11.5677 9.94942 10.9569C10.5579 10.3462 11.3838 10.0017 12.246 9.99902H22.755C23.6172 10.0017 24.4431 10.3462 25.0516 10.9569C25.6601 11.5677 26.0015 12.3949 26.001 13.257V20.772C26.0015 21.6342 25.6601 22.4614 25.0516 23.0721C24.4431 23.6829 23.6172 24.0274 22.755 24.03H19.643C19.6264 24.0299 19.6102 24.0345 19.596 24.0431C19.5819 24.0518 19.5705 24.0642 19.563 24.079C19.161 24.9 18.511 26 17.5 26ZM12.247 11.234C11.7114 11.2356 11.1984 11.4496 10.8204 11.8291C10.4424 12.2085 10.2305 12.7224 10.231 13.258V20.773C10.2305 21.3086 10.4424 21.8225 10.8204 22.202C11.1984 22.5814 11.7114 22.7954 12.247 22.797H15.3C15.5416 22.7965 15.7787 22.863 15.9849 22.989C16.191 23.1151 16.3583 23.2957 16.468 23.511C17.107 24.751 17.488 24.766 17.505 24.766C17.564 24.766 17.894 24.706 18.462 23.54C18.5708 23.3185 18.7393 23.1317 18.9484 23.0006C19.1576 22.8695 19.3992 22.7993 19.646 22.798H22.758C23.2936 22.7964 23.8066 22.5824 24.1846 22.203C24.5626 21.8235 24.7745 21.3096 24.774 20.774V13.259C24.7745 12.7234 24.5626 12.2095 24.1846 11.8301C23.8066 11.4506 23.2936 11.2366 22.758 11.235L12.247 11.234Z" fill="white"/>
<path d="M21.123 18.024H13.904C13.7199 18.024 13.5434 17.9509 13.4132 17.8208C13.2831 17.6906 13.21 17.5141 13.21 17.33C13.21 17.146 13.2831 16.9694 13.4132 16.8393C13.5434 16.7091 13.7199 16.636 13.904 16.636H21.123C21.307 16.636 21.4835 16.7091 21.6137 16.8393C21.7438 16.9694 21.817 17.146 21.817 17.33C21.817 17.5141 21.7438 17.6906 21.6137 17.8208C21.4835 17.9509 21.307 18.024 21.123 18.024Z" fill="white"/>
<path d="M17.515 21.705C17.4239 21.7051 17.3336 21.6873 17.2493 21.6525C17.165 21.6176 17.0885 21.5665 17.024 21.502C16.9595 21.4376 16.9084 21.361 16.8736 21.2768C16.8388 21.1925 16.8209 21.1022 16.821 21.011V13.792C16.821 13.608 16.8941 13.4314 17.0243 13.3013C17.1544 13.1711 17.331 13.098 17.515 13.098C17.6991 13.098 17.8756 13.1711 18.0058 13.3013C18.1359 13.4314 18.209 13.608 18.209 13.792V21.011C18.2092 21.1022 18.1913 21.1925 18.1565 21.2768C18.1217 21.361 18.0705 21.4376 18.0061 21.502C17.9416 21.5665 17.865 21.6176 17.7808 21.6525C17.6965 21.6873 17.6062 21.7051 17.515 21.705Z" fill="white"/>
<defs>
<linearGradient id="paint0_linear_5993_109217" x1="28.98" y1="4.83119e-08" x2="7.272" y2="38.664" gradientUnits="userSpaceOnUse">
<stop stop-color="#D4AAFD"/>
<stop offset="1" stop-color="#7B30FC"/>
</linearGradient>
</defs>
</svg>
