<svg width="36" height="36" viewBox="0 0 36 36" fill="none" xmlns="http://www.w3.org/2000/svg">
<path d="M36 18C36 8.05887 27.9411 0 18 0C8.05887 0 0 8.05887 0 18C0 27.9411 8.05887 36 18 36C27.9411 36 36 27.9411 36 18Z" fill="url(#paint0_linear_5993_109233)"/>
<path d="M19.853 15.802L22.114 11.359C22.1895 11.2176 22.2289 11.0597 22.2289 10.8995C22.2289 10.7392 22.1895 10.5814 22.114 10.44C21.961 10.174 21.814 10.024 21.663 10.002H9.87401C9.64951 10.0029 9.43388 10.0898 9.27137 10.2447C9.10885 10.3996 9.01176 10.6108 9.00001 10.835V24.285C8.99647 24.3782 9.01178 24.4713 9.04504 24.5585C9.0783 24.6457 9.12881 24.7254 9.19355 24.7926C9.2583 24.8599 9.33595 24.9134 9.42186 24.9499C9.50776 24.9865 9.60015 25.0053 9.69351 25.0053C9.78686 25.0053 9.87926 24.9865 9.96517 24.9499C10.0511 24.9134 10.1287 24.8599 10.1935 24.7926C10.2582 24.7254 10.3087 24.6457 10.342 24.5585C10.3752 24.4713 10.3906 24.3782 10.387 24.285V21.543H21.317C21.4752 21.5495 21.632 21.5122 21.7704 21.4353C21.9087 21.3583 22.0231 21.2447 22.101 21.1069C22.1816 20.9668 22.2239 20.8081 22.2239 20.6465C22.2239 20.4848 22.1816 20.3261 22.101 20.186L19.853 15.802ZM10.387 11.367H20.547L18.633 15.149C18.5331 15.3521 18.4812 15.5755 18.4812 15.802C18.4812 16.0284 18.5331 16.2518 18.633 16.455L20.533 20.155H10.387V11.367ZM20.464 25.002C20.3713 25.0004 20.2798 24.9806 20.1947 24.9436C20.1097 24.9067 20.0327 24.8534 19.9683 24.7867C19.9038 24.72 19.8532 24.6413 19.8191 24.5551C19.7851 24.4688 19.7684 24.3767 19.77 24.284V22.691C19.7255 22.5474 19.7263 22.3935 19.7723 22.2504C19.8183 22.1073 19.9072 21.9818 20.027 21.891C20.1439 21.8033 20.286 21.756 20.432 21.756C20.5781 21.756 20.7202 21.8033 20.837 21.891C20.9568 21.9818 21.0458 22.1073 21.0917 22.2504C21.1377 22.3935 21.1385 22.5474 21.094 22.691V24.284C21.0974 24.4606 21.0346 24.6322 20.9181 24.765C20.8015 24.8978 20.6396 24.9823 20.464 25.002ZM23.464 25.002C23.2769 24.9985 23.0989 24.921 22.9689 24.7864C22.839 24.6517 22.7678 24.471 22.771 24.284V17.466C22.7265 17.3224 22.7273 17.1685 22.7733 17.0254C22.8193 16.8823 22.9082 16.7568 23.028 16.666C23.1449 16.5783 23.287 16.531 23.433 16.531C23.5791 16.531 23.7212 16.5783 23.838 16.666C23.9578 16.7568 24.0468 16.8823 24.0927 17.0254C24.1387 17.1685 24.1395 17.3224 24.095 17.466V24.284C24.0984 24.4603 24.0359 24.6316 23.9198 24.7644C23.8037 24.8971 23.6422 24.9818 23.467 25.002H23.464ZM26.335 25.002C26.2423 25.0004 26.1508 24.9806 26.0657 24.9436C25.9807 24.9067 25.9037 24.8534 25.8393 24.7867C25.7748 24.72 25.7242 24.6413 25.6901 24.5551C25.6561 24.4688 25.6394 24.3767 25.641 24.284V20.229C25.5965 20.0854 25.5973 19.9315 25.6433 19.7884C25.6893 19.6453 25.7782 19.5198 25.898 19.429C26.0149 19.3413 26.157 19.294 26.303 19.294C26.4491 19.294 26.5912 19.3413 26.708 19.429C26.8278 19.5198 26.9168 19.6453 26.9627 19.7884C27.0087 19.9315 27.0095 20.0854 26.965 20.229V24.284C26.9684 24.4601 26.9061 24.6313 26.7902 24.7641C26.6743 24.8968 26.5131 24.9816 26.338 25.002H26.335Z" fill="white"/>
<defs>
<linearGradient id="paint0_linear_5993_109233" x1="6.948" y1="-6.31124e-07" x2="28.368" y2="36" gradientUnits="userSpaceOnUse">
<stop stop-color="#6B60EA"/>
<stop offset="1" stop-color="#4336CC"/>
</linearGradient>
</defs>
</svg>
