<svg width="36" height="36" viewBox="0 0 36 36" fill="none" xmlns="http://www.w3.org/2000/svg">
<path d="M36 18C36 8.05887 27.9411 0 18 0C8.05887 0 0 8.05887 0 18C0 27.9411 8.05887 36 18 36C27.9411 36 36 27.9411 36 18Z" fill="url(#paint0_linear_5993_109243)"/>
<path d="M23.9831 18.847C24.2866 18.8484 24.5842 18.931 24.845 19.0863C25.1058 19.2415 25.3202 19.4638 25.4661 19.73L26.4831 21.555C26.6306 21.8208 26.708 22.1199 26.708 22.424C26.708 22.728 26.6306 23.0271 26.4831 23.293L25.4661 25.118C25.3201 25.3843 25.1055 25.6066 24.8445 25.7619C24.5836 25.9172 24.2858 25.9998 23.9821 26.001H21.9821C21.6786 25.9996 21.381 25.9169 21.1202 25.7617C20.8594 25.6064 20.6449 25.3841 20.4991 25.118L19.4821 23.293C19.3345 23.0271 19.2571 22.728 19.2571 22.424C19.2571 22.1199 19.3345 21.8208 19.4821 21.555L20.4991 19.73C20.645 19.4637 20.8596 19.2413 21.1206 19.086C21.3816 18.9307 21.6794 18.8482 21.9831 18.847H23.9831ZM18.4571 10.356C18.5271 10.4166 18.5913 10.4836 18.6491 10.556L21.4871 14.048L24.6171 11.678C24.8627 11.4908 25.1612 11.3861 25.4699 11.3787C25.7786 11.3714 26.0818 11.4618 26.3361 11.637C26.5935 11.8165 26.7904 12.0697 26.9009 12.3634C27.0114 12.6571 27.0303 12.9773 26.9551 13.282L25.6941 18.454C25.298 18.1209 24.8137 17.91 24.3001 17.847L25.5001 12.91L21.2361 16.139L17.4961 11.539L13.7561 16.139L9.49208 12.91L12.1861 23.96H18.6981L19.5531 25.493H11.0171L8.04008 13.282C7.96465 12.9772 7.98344 12.6567 8.09396 12.3628C8.20447 12.069 8.40152 11.8155 8.65908 11.636C8.91346 11.4605 9.21681 11.37 9.52573 11.3774C9.83466 11.3848 10.1333 11.4896 10.3791 11.677L13.5091 14.047L16.3471 10.555C16.4701 10.4006 16.623 10.2726 16.7967 10.1786C16.9703 10.0845 17.1611 10.0265 17.3576 10.0078C17.5542 9.98914 17.7525 10.0103 17.9407 10.0699C18.1289 10.1296 18.3032 10.2265 18.4531 10.355L18.4571 10.356ZM23.9831 20.38H21.9831C21.9453 20.3802 21.9082 20.3906 21.8757 20.4099C21.8431 20.4292 21.8164 20.4569 21.7981 20.49L20.7811 22.315C20.7625 22.3483 20.7528 22.3858 20.7528 22.424C20.7528 22.4621 20.7625 22.4996 20.7811 22.533L21.7981 24.358C21.8165 24.3912 21.8434 24.419 21.8761 24.4383C21.9088 24.4576 21.9461 24.4679 21.9841 24.468H23.9841C24.0219 24.4677 24.059 24.4574 24.0915 24.4381C24.124 24.4187 24.1508 24.3911 24.1691 24.358L25.1861 22.533C25.2046 22.4996 25.2144 22.4621 25.2144 22.424C25.2144 22.3858 25.2046 22.3483 25.1861 22.315L24.1691 20.49C24.1508 20.4565 24.124 20.4286 24.0912 20.4091C24.0585 20.3895 24.0212 20.3792 23.9831 20.379V20.38ZM22.9831 21.402C23.1861 21.3976 23.3858 21.4538 23.5567 21.5634C23.7277 21.673 23.8621 21.8311 23.9428 22.0174C24.0236 22.2037 24.047 22.4098 24.01 22.6095C23.9731 22.8092 23.8776 22.9934 23.7356 23.1385C23.5935 23.2836 23.4115 23.3832 23.2127 23.4244C23.0139 23.4657 22.8073 23.4468 22.6192 23.3701C22.4312 23.2934 22.2703 23.1625 22.157 22.994C22.0437 22.8255 21.9831 22.627 21.9831 22.424C21.9814 22.2913 22.0058 22.1595 22.0551 22.0362C22.1043 21.913 22.1773 21.8006 22.27 21.7056C22.3627 21.6106 22.4732 21.5348 22.5952 21.4825C22.7172 21.4302 22.8484 21.4025 22.9811 21.401L22.9831 21.402ZM18.5721 21.129C18.3137 21.6326 18.2119 22.202 18.2801 22.764H14.0141V21.128L18.5721 21.129Z" fill="white"/>
<defs>
<linearGradient id="paint0_linear_5993_109243" x1="29.664" y1="3.564" x2="8.604" y2="36" gradientUnits="userSpaceOnUse">
<stop stop-color="#ED8B7F"/>
<stop offset="1" stop-color="#EA6350"/>
</linearGradient>
</defs>
</svg>
