<svg width="36" height="36" viewBox="0 0 36 36" fill="none" xmlns="http://www.w3.org/2000/svg">
<path d="M36 18C36 8.05887 27.9411 0 18 0C8.05887 0 0 8.05887 0 18C0 27.9411 8.05887 36 18 36C27.9411 36 36 27.9411 36 18Z" fill="url(#paint0_linear_5993_109153)"/>
<path d="M21.9151 9.00015H14.0851C13.4158 8.99697 12.7526 9.12655 12.1338 9.38141C11.5149 9.63626 10.9528 10.0113 10.4799 10.4849C10.007 10.9585 9.63267 11.5211 9.37867 12.1403C9.12466 12.7595 8.99599 13.4229 9.0001 14.0922V21.9182C8.99731 22.5866 9.12697 23.2489 9.38157 23.8669C9.63616 24.485 10.0107 25.0464 10.4834 25.5189C10.9562 25.9914 11.5179 26.3656 12.1361 26.6198C12.7543 26.8741 13.4167 27.0033 14.0851 27.0002H21.9161C22.5845 27.0033 23.2469 26.8741 23.8651 26.6198C24.4833 26.3656 25.045 25.9914 25.5177 25.5189C25.9905 25.0464 26.365 24.485 26.6196 23.8669C26.8742 23.2489 27.0039 22.5866 27.0011 21.9182V19.1322C27.0024 18.979 26.9463 18.8309 26.844 18.7169C26.7417 18.603 26.6005 18.5314 26.4481 18.5162C26.3608 18.503 26.2717 18.5093 26.1871 18.5345C26.1025 18.5597 26.0246 18.6033 25.9588 18.6622C25.893 18.721 25.8409 18.7936 25.8064 18.8749C25.7719 18.9561 25.7558 19.044 25.7591 19.1322V21.9322C25.7592 22.438 25.6596 22.939 25.466 23.4063C25.2724 23.8737 24.9885 24.2983 24.6307 24.6559C24.2728 25.0134 23.848 25.297 23.3805 25.4902C22.913 25.6835 22.412 25.7827 21.9061 25.7822H14.0741C13.5682 25.7827 13.0672 25.6835 12.5997 25.4902C12.1322 25.297 11.7074 25.0134 11.3495 24.6559C10.9917 24.2983 10.7078 23.8737 10.5142 23.4063C10.3206 22.939 10.221 22.438 10.2211 21.9322V14.1032C10.2214 13.5975 10.3212 13.0969 10.515 12.6299C10.7088 12.1629 10.9928 11.7386 11.3506 11.3814C11.7084 11.0241 12.1331 10.7409 12.6004 10.5478C13.0677 10.3547 13.5685 10.2556 14.0741 10.2562H21.9051C22.411 10.2556 22.912 10.3548 23.3795 10.5481C23.847 10.7413 24.2718 11.0249 24.6297 11.3824C24.9875 11.74 25.2714 12.1646 25.465 12.632C25.6586 13.0993 25.7582 13.6003 25.7581 14.1062V15.2232C25.7568 15.3763 25.8129 15.5244 25.9152 15.6384C26.0175 15.7523 26.1587 15.8239 26.3111 15.8392C26.3984 15.8523 26.4875 15.846 26.5721 15.8208C26.6567 15.7956 26.7346 15.752 26.8004 15.6932C26.8662 15.6343 26.9182 15.5617 26.9528 15.4805C26.9873 15.3992 27.0034 15.3114 27.0001 15.2232V14.0922C27.0026 13.4239 26.8729 12.7618 26.6183 12.144C26.3638 11.5261 25.9895 10.9647 25.5171 10.4922C25.0472 10.0149 24.4863 9.6369 23.8675 9.38061C23.2488 9.12431 22.5848 8.99493 21.9151 9.00015Z" fill="white"/>
<path d="M12.8862 16.3751C12.8896 16.2094 12.9586 16.0517 13.078 15.9366C13.1974 15.8216 13.3574 15.7584 13.5232 15.7611H22.5102C22.5856 15.7595 22.6605 15.7729 22.7307 15.8003C22.8009 15.8278 22.865 15.8689 22.9193 15.9212C22.9736 15.9735 23.0169 16.0361 23.047 16.1052C23.077 16.1743 23.0931 16.2488 23.0942 16.3241V16.3441C23.0908 16.5099 23.0219 16.6676 22.9025 16.7826C22.7831 16.8977 22.623 16.9608 22.4572 16.9581H13.4922C13.4139 16.9607 13.3359 16.9475 13.2627 16.9194C13.1895 16.8913 13.1227 16.8488 13.0663 16.7944C13.0098 16.7401 12.9647 16.675 12.9338 16.603C12.9029 16.531 12.8867 16.4535 12.8862 16.3751Z" fill="white"/>
<path d="M20.017 13.9422C20.0728 13.8864 20.139 13.8421 20.2118 13.8119C20.2846 13.7817 20.3627 13.7662 20.4415 13.7662C20.5204 13.7662 20.5984 13.7817 20.6713 13.8119C20.7441 13.8421 20.8103 13.8864 20.866 13.9422L22.83 15.9062C22.9426 16.0187 23.0059 16.1714 23.0059 16.3307C23.0059 16.4899 22.9426 16.6426 22.83 16.7552C22.7174 16.8677 22.5647 16.931 22.4055 16.931C22.2463 16.931 22.0936 16.8677 21.981 16.7552L20.017 14.7902C19.9047 14.6777 19.8416 14.5252 19.8416 14.3661C19.8416 14.2071 19.9047 14.0547 20.017 13.9422Z" fill="white"/>
<path d="M23.1241 19.6362C23.1207 19.8019 23.0517 19.9596 22.9323 20.0747C22.813 20.1898 22.6529 20.2528 22.4871 20.2502H13.4871C13.4118 20.2518 13.337 20.2385 13.2668 20.211C13.1967 20.1836 13.1326 20.1427 13.0784 20.0904C13.0241 20.0382 12.9807 19.9758 12.9506 19.9068C12.9205 19.8378 12.9044 19.7634 12.9031 19.6882V19.6681C12.9065 19.5024 12.9754 19.3447 13.0948 19.2297C13.2142 19.1146 13.3743 19.0515 13.5401 19.0542H22.5161C22.5943 19.0523 22.672 19.0659 22.7449 19.0942C22.8178 19.1224 22.8845 19.1648 22.9409 19.2189C22.9974 19.273 23.0427 19.3377 23.0741 19.4093C23.1056 19.4809 23.1225 19.558 23.1241 19.6362Z" fill="white"/>
<path d="M16.003 22.0792C15.9473 22.1349 15.8811 22.1792 15.8083 22.2094C15.7354 22.2396 15.6573 22.2552 15.5785 22.2552C15.4996 22.2552 15.4216 22.2396 15.3487 22.2094C15.2759 22.1792 15.2097 22.1349 15.154 22.0792L13.18 20.1152C13.1242 20.0594 13.08 19.9932 13.0499 19.9204C13.0197 19.8476 13.0042 19.7695 13.0042 19.6907C13.0042 19.6118 13.0197 19.5338 13.0499 19.4609C13.08 19.3881 13.1242 19.3219 13.18 19.2662C13.2357 19.2104 13.3019 19.1662 13.3748 19.136C13.4476 19.1059 13.5257 19.0903 13.6045 19.0903C13.6833 19.0903 13.7614 19.1059 13.8342 19.136C13.9071 19.1662 13.9732 19.2104 14.029 19.2662L15.993 21.2302C16.0507 21.2845 16.0968 21.35 16.1286 21.4225C16.1604 21.4951 16.1773 21.5734 16.1783 21.6526C16.1792 21.7318 16.1641 21.8104 16.134 21.8837C16.1039 21.957 16.0594 22.0235 16.003 22.0792Z" fill="white"/>
<defs>
<linearGradient id="paint0_linear_5993_109153" x1="4.248" y1="34.2" x2="29.952" y2="2.664" gradientUnits="userSpaceOnUse">
<stop stop-color="#DC613C"/>
<stop offset="1" stop-color="#F3B472"/>
</linearGradient>
</defs>
</svg>
