<svg width="36" height="36" viewBox="0 0 36 36" fill="none" xmlns="http://www.w3.org/2000/svg">
<path d="M36 18C36 8.05887 27.9411 0 18 0C8.05887 0 0 8.05887 0 18C0 27.9411 8.05887 36 18 36C27.9411 36 36 27.9411 36 18Z" fill="url(#paint0_linear_5993_109173)"/>
<path d="M17.6721 8C18.6452 8.00503 19.5766 8.39638 20.2612 9.08799C20.9459 9.77959 21.3278 10.7148 21.3231 11.688V13.532C21.3393 14.0215 21.2568 14.5092 21.0807 14.9662C20.9046 15.4232 20.6383 15.8401 20.2978 16.1921C19.9573 16.5441 19.5494 16.824 19.0985 17.0152C18.6476 17.2063 18.1628 17.3048 17.6731 17.3048C17.1833 17.3048 16.6985 17.2063 16.2476 17.0152C15.7967 16.824 15.3889 16.5441 15.0483 16.1921C14.7078 15.8401 14.4415 15.4232 14.2654 14.9662C14.0893 14.5092 14.0068 14.0215 14.0231 13.532V11.688C14.0226 10.712 14.4071 9.77527 15.0931 9.081C15.4306 8.73916 15.8326 8.46769 16.2758 8.28231C16.7191 8.09692 17.1946 8.00131 17.6751 8.001L17.6721 8ZM17.6721 9.383C17.0819 9.38586 16.5156 9.61612 16.091 10.0259C15.6663 10.4356 15.416 10.9934 15.3921 11.583V13.527C15.3788 14.1321 15.6064 14.7177 16.0249 15.1549C16.4434 15.5921 17.0185 15.8452 17.6236 15.8585C18.2286 15.8718 18.8142 15.6441 19.2515 15.2256C19.6887 14.8071 19.9418 14.2321 19.9551 13.627V11.688C19.9554 11.0778 19.715 10.492 19.2861 10.058C19.0749 9.84454 18.8235 9.67501 18.5465 9.55916C18.2695 9.44331 17.9723 9.38344 17.6721 9.383ZM10.8251 24.594H10.7721C10.661 24.5796 10.559 24.5251 10.4853 24.4407C10.4117 24.3564 10.3714 24.248 10.3721 24.136V21.958C10.3948 21.3068 10.6688 20.6897 11.1365 20.2362C11.6043 19.7826 12.2295 19.5277 12.8811 19.525H22.4661C22.7963 19.5255 23.1232 19.5914 23.4279 19.7189C23.7326 19.8464 24.0089 20.0331 24.2411 20.268C24.4866 20.5165 24.6783 20.813 24.8041 21.139C24.8528 21.2694 24.94 21.382 25.0541 21.4618C25.1682 21.5416 25.3038 21.5849 25.4431 21.586C25.5544 21.5854 25.664 21.5578 25.7624 21.5056C25.8608 21.4534 25.9451 21.3781 26.008 21.2862C26.071 21.1943 26.1107 21.0885 26.1237 20.9778C26.1368 20.8672 26.1228 20.7551 26.0831 20.651C25.8893 20.1419 25.5913 19.679 25.2081 19.292C24.8493 18.9287 24.4221 18.6401 23.9511 18.4431C23.4801 18.246 22.9746 18.1444 22.4641 18.144H12.8791C11.8452 18.1496 10.8559 18.5654 10.1285 19.3001C9.40117 20.0347 8.99527 21.0282 9.00005 22.062V24.362C8.99834 24.5732 9.03846 24.7827 9.11809 24.9783C9.19773 25.1739 9.31532 25.3518 9.46406 25.5018C9.61281 25.6517 9.78977 25.7708 9.98474 25.852C10.1797 25.9332 10.3888 25.975 10.6001 25.975H16.9931C17.1766 25.975 17.3526 25.9021 17.4824 25.7723C17.6122 25.6425 17.6851 25.4665 17.6851 25.283C17.6851 25.0995 17.6122 24.9235 17.4824 24.7937C17.3526 24.6639 17.1766 24.591 16.9931 24.591L10.8251 24.594ZM24.9251 23.616H18.4891C18.3068 23.6152 18.1322 23.5421 18.0038 23.4127C17.8754 23.2834 17.8035 23.1083 17.8041 22.926C17.8035 22.7437 17.8754 22.5686 18.0038 22.4393C18.1322 22.3099 18.3068 22.2368 18.4891 22.236H24.9241C25.1064 22.2368 25.2809 22.3099 25.4093 22.4393C25.5378 22.5686 25.6096 22.7437 25.6091 22.926C25.6094 23.0164 25.592 23.106 25.5577 23.1896C25.5234 23.2732 25.473 23.3493 25.4093 23.4134C25.3455 23.4775 25.2698 23.5284 25.1863 23.5631C25.1029 23.5979 25.0134 23.6159 24.9231 23.616H24.9251ZM20.4581 21.916L18.9731 23.416C18.91 23.4802 18.8347 23.5312 18.7517 23.566C18.6687 23.6008 18.5796 23.6187 18.4896 23.6187C18.3995 23.6187 18.3104 23.6008 18.2274 23.566C18.1444 23.5312 18.0692 23.4802 18.0061 23.416C17.8784 23.2852 17.8069 23.1097 17.8069 22.927C17.8069 22.7443 17.8784 22.5688 18.0061 22.438L19.4911 20.938C19.5542 20.8738 19.6294 20.8228 19.7124 20.788C19.7954 20.7532 19.8845 20.7353 19.9746 20.7353C20.0646 20.7353 20.1537 20.7532 20.2367 20.788C20.3197 20.8228 20.395 20.8738 20.4581 20.938C20.5841 21.0687 20.6544 21.2432 20.6543 21.4247C20.6541 21.6062 20.5834 21.7806 20.4571 21.911L20.4581 21.916ZM19.8811 24.116H26.3181C26.5003 24.1168 26.6749 24.1899 26.8033 24.3193C26.9317 24.4486 27.0036 24.6237 27.0031 24.806C27.0036 24.9883 26.9317 25.1634 26.8033 25.2927C26.6749 25.4221 26.5003 25.4952 26.3181 25.496H19.8801C19.6978 25.4952 19.5232 25.4221 19.3948 25.2927C19.2664 25.1634 19.1945 24.9883 19.1951 24.806C19.1945 24.7156 19.2118 24.626 19.246 24.5423C19.2802 24.4586 19.3305 24.3825 19.3941 24.3183C19.4578 24.2541 19.5335 24.2031 19.6168 24.1683C19.7002 24.1334 19.7897 24.1153 19.8801 24.115L19.8811 24.116ZM24.3481 25.816L25.8331 24.316C25.8962 24.2518 25.9714 24.2008 26.0544 24.166C26.1374 24.1312 26.2265 24.1133 26.3166 24.1133C26.4066 24.1133 26.4957 24.1312 26.5787 24.166C26.6617 24.2008 26.737 24.2518 26.8001 24.316C26.9277 24.4468 26.9992 24.6223 26.9992 24.805C26.9992 24.9877 26.9277 25.1632 26.8001 25.294L25.3151 26.794C25.252 26.8582 25.1767 26.9092 25.0937 26.944C25.0107 26.9788 24.9216 26.9967 24.8316 26.9967C24.7415 26.9967 24.6524 26.9788 24.5694 26.944C24.4864 26.9092 24.4112 26.8582 24.3481 26.794C24.221 26.6636 24.1498 26.4889 24.1494 26.3069C24.149 26.1249 24.2196 25.9499 24.3461 25.819L24.3481 25.816Z" fill="white"/>
<defs>
<linearGradient id="paint0_linear_5993_109173" x1="7.956" y1="4.35771e-07" x2="29.592" y2="36" gradientUnits="userSpaceOnUse">
<stop stop-color="#7493F3"/>
<stop offset="1" stop-color="#2455EB"/>
</linearGradient>
</defs>
</svg>
