<svg width="36" height="36" viewBox="0 0 36 36" fill="none" xmlns="http://www.w3.org/2000/svg">
<path d="M36 18C36 8.05887 27.9411 0 18 0C8.05887 0 0 8.05887 0 18C0 27.9411 8.05887 36 18 36C27.9411 36 36 27.9411 36 18Z" fill="url(#paint0_linear_5993_109269)"/>
<g clip-path="url(#clip0_5993_109269)">
<path d="M14.1526 11.7708H20.466V12.8522H14.1526V11.7708ZM14.1526 15.4719H17.1348V16.5H14.1526V15.4719ZM14.1526 19.173H17.1348V20.2769H14.1526V19.173ZM14.1526 22.8922H15.4225V24.1621H14.1526V22.8922ZM16.311 22.8922H17.581V24.1621H16.311V22.8922ZM18.4695 22.8922H19.7394V24.1621H18.4695V22.8922ZM20.6279 22.8922H21.8978V24.1621H20.6279V22.8922Z" fill="white"/>
<path d="M25.2288 24.724L23.6076 22.1924C24.232 21.6739 24.6664 20.9694 24.8429 20.1639C25.0528 19.2077 24.8773 18.227 24.349 17.4027C24.0726 16.9709 23.7152 16.6113 23.3017 16.3344V11.3303C23.3017 10.624 22.7269 10.0493 22.0224 10.0493L11.7238 10.0002C11.723 10.0002 11.7223 10 11.7214 10C11.7207 10 11.72 10.0002 11.7193 10.0002L11.6692 10L11.6692 10.0057C10.575 10.0364 10 10.9762 10 11.9097V12.3198H12.6226L12.6202 24.7189C12.6202 25.4253 13.1948 26 13.9011 26H22.0204C22.7269 26 23.3017 25.4252 23.3017 24.7189V23.7442L24.3071 25.3142L25.2288 24.724ZM23.6585 17.8449V17.8451C24.0683 18.4849 24.2045 19.2459 24.0418 19.9883C23.8801 20.7267 23.4411 21.3581 22.8067 21.768L22.6861 21.8379C22.2772 22.0746 21.8343 22.1985 21.3932 22.2195C21.3811 22.22 21.3689 22.2202 21.3567 22.2205C21.2843 22.2231 21.2121 22.2227 21.14 22.2197C21.111 22.2184 21.0819 22.2158 21.0528 22.2136C20.997 22.2096 20.9413 22.2046 20.8859 22.1973C20.8378 22.1907 20.7897 22.1819 20.7416 22.1728C20.7032 22.1657 20.6645 22.1592 20.6264 22.1505C20.5686 22.1373 20.5121 22.1209 20.4558 22.1043C20.4246 22.0952 20.3931 22.0873 20.3622 22.077C20.3073 22.0588 20.2539 22.0371 20.2005 22.0157C20.1686 22.0029 20.1362 21.9917 20.1048 21.9778C20.0577 21.9569 20.0125 21.9326 19.9668 21.9093C19.931 21.8909 19.8943 21.8743 19.8592 21.8544C19.8221 21.8334 19.7871 21.8093 19.7511 21.7867C19.7098 21.7609 19.6678 21.7365 19.6279 21.7084C19.602 21.6902 19.578 21.6694 19.5528 21.6504C19.5054 21.6147 19.4574 21.5798 19.4121 21.5409C19.3998 21.5303 19.3888 21.5183 19.3767 21.5075C19.1851 21.3373 19.0124 21.1397 18.8674 20.9133C18.8155 20.8321 18.7676 20.7484 18.7241 20.6624C18.7189 20.6521 18.715 20.6413 18.7099 20.631C18.1681 19.5278 18.4042 18.2024 19.2665 17.353C19.2707 17.3489 19.2743 17.3444 19.2785 17.3402C19.3341 17.2862 19.3938 17.2355 19.4544 17.1856C19.468 17.1744 19.4803 17.162 19.4941 17.151C19.5694 17.0913 19.6477 17.0354 19.7286 16.9836C19.841 16.9118 19.9582 16.8479 20.0795 16.7923C20.1465 16.7615 20.2161 16.7396 20.2848 16.7143C20.339 16.6944 20.3919 16.6705 20.447 16.6539C20.5216 16.6315 20.5978 16.6179 20.6736 16.6018C20.7255 16.5907 20.7767 16.576 20.8291 16.568C20.9005 16.557 20.9727 16.5541 21.0446 16.5486C21.1036 16.5441 21.1622 16.5367 21.2216 16.5359C21.3406 16.5343 21.4597 16.5389 21.5782 16.5523C21.5835 16.5529 21.5888 16.5543 21.5941 16.5549C21.7094 16.5686 21.8241 16.59 21.9377 16.618C21.9564 16.6226 21.9747 16.6282 21.9934 16.6331C22.1042 16.6628 22.2141 16.6978 22.3218 16.7412C22.3259 16.7429 22.3301 16.7443 22.3342 16.7459C22.4554 16.7953 22.573 16.8529 22.6864 16.9183L22.7273 16.9419C23.0988 17.1646 23.4182 17.4695 23.6585 17.8449ZM10.8828 11.4995C10.9845 11.1642 11.226 10.8219 11.7186 10.8205L11.7247 10.8205C12.217 10.8221 12.4585 11.1643 12.5602 11.4995H10.8828ZM22.4814 24.7189C22.4814 24.973 22.2747 25.1797 22.0204 25.1797H13.9011C13.6472 25.1797 13.4405 24.973 13.4405 24.7189L13.4429 12.3198H13.4429V11.9097C13.4429 11.5288 13.3432 11.1491 13.1561 10.8274L22.0204 10.8695C22.2747 10.8695 22.4814 11.0762 22.4814 11.3303V15.924C22.4757 15.922 22.4698 15.9209 22.4641 15.9189C22.3557 15.8816 22.245 15.8496 22.1323 15.8221C22.1113 15.817 22.0906 15.8099 22.0695 15.8051C22.062 15.8034 22.055 15.8008 22.0476 15.7992C21.9254 15.7725 21.8018 15.752 21.6775 15.7377C21.6615 15.7359 21.6454 15.736 21.6294 15.7344C21.5146 15.7226 21.4 15.7157 21.2856 15.7147C21.2507 15.7145 21.2159 15.717 21.181 15.7178C21.0844 15.7197 20.9883 15.7243 20.8925 15.7339C20.8536 15.7379 20.8151 15.7437 20.7764 15.7488C20.6848 15.7609 20.5937 15.7765 20.5033 15.7955C20.4631 15.8041 20.4231 15.8133 20.3831 15.8232C20.2946 15.8454 20.2069 15.8709 20.1202 15.8997C20.0806 15.9127 20.041 15.9252 20.0017 15.9396C19.9131 15.9723 19.8262 16.0097 19.7398 16.0494C19.7048 16.0655 19.6692 16.0796 19.6345 16.0969C19.516 16.1559 19.3995 16.2202 19.2864 16.2927C19.184 16.3582 19.0849 16.4287 18.9894 16.504C18.8949 16.5783 18.8042 16.6573 18.7175 16.7406C18.1996 17.2381 17.84 17.8773 17.6829 18.5945C17.4732 19.5507 17.6486 20.5314 18.1765 21.3557C18.239 21.4533 18.306 21.5462 18.3758 21.6358C18.4001 21.6671 18.4266 21.6959 18.4518 21.7262C18.4989 21.7828 18.5463 21.8391 18.5963 21.8923C18.6288 21.9269 18.6629 21.9595 18.6966 21.9927C18.7427 22.0381 18.7892 22.0828 18.8373 22.1255C18.8747 22.1583 18.9127 22.1904 18.9514 22.2217C18.9997 22.261 19.0489 22.2991 19.0991 22.3358C19.1389 22.3649 19.1787 22.3937 19.2197 22.4212C19.2748 22.4582 19.3312 22.4927 19.388 22.5265C19.4256 22.5489 19.4625 22.5721 19.5009 22.5931C19.5804 22.6366 19.6616 22.6762 19.7439 22.7136C19.7614 22.7215 19.7781 22.731 19.7958 22.7386C19.9007 22.7843 20.0076 22.8244 20.116 22.86C20.1336 22.8657 20.1517 22.87 20.1693 22.8755C20.2601 22.9039 20.3519 22.9288 20.4445 22.95C20.4559 22.9526 20.4668 22.9567 20.4783 22.9592C20.4966 22.9632 20.515 22.9645 20.5333 22.9682C20.6225 22.9862 20.7121 23.001 20.8026 23.0123C20.8423 23.0174 20.8818 23.0228 20.9216 23.0266C21.0031 23.0342 21.085 23.0378 21.1671 23.0399C21.2014 23.0409 21.2359 23.0455 21.2702 23.0455C21.2885 23.0455 21.3065 23.0419 21.3248 23.0416C21.4456 23.0394 21.5665 23.03 21.6873 23.0157C21.7428 23.0093 21.798 23.0031 21.8531 22.9941C21.9739 22.9741 22.0936 22.9481 22.2118 22.9161C22.2756 22.8989 22.3383 22.8784 22.4012 22.8577C22.4278 22.8489 22.4549 22.8424 22.4813 22.833V24.7189H22.4814Z" fill="white"/>
</g>
<defs>
<linearGradient id="paint0_linear_5993_109269" x1="27.792" y1="-3.02382e-07" x2="7.416" y2="36" gradientUnits="userSpaceOnUse">
<stop stop-color="#AED6ED"/>
<stop offset="1" stop-color="#5081FF"/>
</linearGradient>
<clipPath id="clip0_5993_109269">
<rect width="16" height="16" fill="white" transform="translate(10 10)"/>
</clipPath>
</defs>
</svg>
