<svg width="36" height="36" viewBox="0 0 36 36" fill="none" xmlns="http://www.w3.org/2000/svg">
<path d="M36 18C36 8.05887 27.9411 0 18 0C8.05887 0 0 8.05887 0 18C0 27.9411 8.05887 36 18 36C27.9411 36 36 27.9411 36 18Z" fill="url(#paint0_linear_5993_109197)"/>
<path d="M25.833 10H10.167C9.85633 10.0019 9.55906 10.1268 9.34032 10.3474C9.12158 10.568 8.9992 10.8663 9 11.177V21.599C8.9992 21.9097 9.12158 22.208 9.34032 22.4286C9.55906 22.6492 9.85633 22.7741 10.167 22.776H25.833C26.1437 22.7741 26.4409 22.6492 26.6597 22.4286C26.8784 22.208 27.0008 21.9097 27 21.599V11.177C27.0008 10.8663 26.8784 10.568 26.6597 10.3474C26.4409 10.1268 26.1437 10.0019 25.833 10ZM25.833 21.6H10.167V11.177H25.833V21.599V21.6ZM25.833 22.189V21.6V22.189ZM20.042 23.469H15.958V25.824H12.019V27.001H23.981V25.824H20.042V23.469ZM20.074 15.406C20.2279 15.4054 20.3802 15.3744 20.5221 15.3149C20.6641 15.2554 20.7929 15.1685 20.9013 15.0592C21.0096 14.9499 21.0954 14.8203 21.1537 14.6779C21.212 14.5354 21.2417 14.3829 21.241 14.229C21.2407 14.168 21.2357 14.1072 21.226 14.047L21.859 13.408H24.894V12.231H21.372L20.483 13.131C20.3515 13.0804 20.2119 13.0543 20.071 13.054C19.7587 13.054 19.4592 13.1781 19.2384 13.3989C19.0176 13.6197 18.8935 13.9192 18.8935 14.2315C18.8935 14.5438 19.0176 14.8433 19.2384 15.0641C19.4592 15.2849 19.7587 15.409 20.071 15.409L20.074 15.406ZM20.528 18.454C21.0922 17.8299 21.4041 17.0183 21.403 16.177C21.4063 16.0983 21.3936 16.0198 21.3657 15.9462C21.3379 15.8726 21.2954 15.8053 21.2409 15.7485C21.1864 15.6917 21.121 15.6465 21.0486 15.6156C20.9761 15.5848 20.8982 15.5688 20.8195 15.5688C20.7408 15.5688 20.6629 15.5848 20.5904 15.6156C20.518 15.6465 20.4526 15.6917 20.3981 15.7485C20.3436 15.8053 20.3011 15.8726 20.2733 15.9462C20.2454 16.0198 20.2327 16.0983 20.236 16.177C20.232 16.6089 20.1004 17.0299 19.8576 17.3871C19.6148 17.7443 19.2717 18.0216 18.8715 18.1841C18.4714 18.3467 18.0321 18.3872 17.609 18.3005C17.1859 18.2138 16.7979 18.0039 16.4939 17.6971C16.1899 17.3903 15.9835 17.0004 15.9007 16.5766C15.8179 16.1527 15.8624 15.7138 16.0285 15.3151C16.1947 14.9165 16.4752 14.576 16.8345 14.3364C17.1939 14.0969 17.6161 13.969 18.048 13.969C18.1999 13.9627 18.3435 13.898 18.4487 13.7883C18.554 13.6786 18.6127 13.5325 18.6127 13.3805C18.6127 13.2285 18.554 13.0824 18.4487 12.9727C18.3435 12.863 18.1999 12.7983 18.048 12.792C17.2831 12.791 16.5413 13.0542 15.948 13.537L14.653 12.231H11.131V13.408H14.17L15.176 14.423C14.8677 14.9348 14.7002 15.5189 14.6903 16.1163C14.6805 16.7137 14.8287 17.303 15.1199 17.8247C15.4111 18.3463 15.8351 18.7817 16.3487 19.0868C16.8624 19.3919 17.4476 19.5559 18.045 19.562C18.5845 19.5624 19.1159 19.431 19.593 19.179L20.951 20.549H24.911V19.37H21.435L20.528 18.454ZM11.134 16.921H13.546V18.098H11.134V16.921ZM11.134 19.371H14.934V20.548H11.134V19.371Z" fill="white"/>
<defs>
<linearGradient id="paint0_linear_5993_109197" x1="6.516" y1="6.61062e-07" x2="28.224" y2="36" gradientUnits="userSpaceOnUse">
<stop stop-color="#6FE5D6"/>
<stop offset="1" stop-color="#6EE2AF"/>
</linearGradient>
</defs>
</svg>
