<svg width="36" height="36" viewBox="0 0 36 36" fill="none" xmlns="http://www.w3.org/2000/svg">
<path d="M36 18C36 8.05887 27.9411 0 18 0C8.05887 0 0 8.05887 0 18C0 27.9411 8.05887 36 18 36C27.9411 36 36 27.9411 36 18Z" fill="url(#paint0_linear_5993_109183)"/>
<path d="M23.634 11H13.369C12.7407 11 12.1381 11.2496 11.6939 11.6939C11.2496 12.1381 11 12.7407 11 13.369V18.231C11.0431 18.3535 11.1231 18.4596 11.2291 18.5346C11.335 18.6097 11.4617 18.65 11.5915 18.65C11.7213 18.65 11.848 18.6097 11.9539 18.5346C12.0599 18.4596 12.1399 18.3535 12.183 18.231V13.369C12.1831 13.2134 12.2139 13.0594 12.2736 12.9157C12.3333 12.7721 12.4207 12.6416 12.5308 12.5317C12.641 12.4219 12.7717 12.3348 12.9155 12.2755C13.0593 12.2161 13.2134 12.1857 13.369 12.186H23.632C23.7878 12.186 23.942 12.2167 24.0859 12.2763C24.2298 12.3359 24.3605 12.4232 24.4706 12.5334C24.5808 12.6435 24.6681 12.7742 24.7277 12.9181C24.7873 13.062 24.818 13.2163 24.818 13.372V23.636C24.818 23.7917 24.7873 23.946 24.7277 24.0899C24.6681 24.2338 24.5808 24.3645 24.4706 24.4746C24.3605 24.5848 24.2298 24.6721 24.0859 24.7317C23.942 24.7913 23.7878 24.822 23.632 24.822H13.369C13.2133 24.822 13.059 24.7913 12.9151 24.7317C12.7712 24.6721 12.6405 24.5848 12.5304 24.4746C12.4202 24.3645 12.3329 24.2338 12.2733 24.0899C12.2137 23.946 12.183 23.7917 12.183 23.636V22.636C12.1539 22.5007 12.0794 22.3795 11.9717 22.2925C11.8641 22.2055 11.7299 22.1581 11.5915 22.1581C11.4531 22.1581 11.3189 22.2055 11.2113 22.2925C11.1036 22.3795 11.0291 22.5007 11 22.636V23.636C11.0008 24.2632 11.2505 24.8645 11.6943 25.3078C12.1381 25.751 12.7397 26 13.367 26H23.631C23.9421 26 24.2502 25.9387 24.5376 25.8197C24.825 25.7006 25.0862 25.5261 25.3061 25.3061C25.5261 25.0862 25.7006 24.825 25.8197 24.5376C25.9387 24.2502 26 23.9421 26 23.631V13.367C26.0004 13.0561 25.9395 12.7482 25.8207 12.461C25.702 12.1737 25.5277 11.9126 25.308 11.6928C25.0882 11.4729 24.8272 11.2985 24.54 11.1797C24.2527 11.0608 23.9449 10.9997 23.634 11Z" fill="white"/>
<path d="M22.865 15.673C22.817 15.6258 22.7576 15.5918 22.6926 15.5743C22.6276 15.5567 22.5592 15.5563 22.494 15.573L19.759 16.233C19.6908 16.2494 19.6282 16.2838 19.5777 16.3325C19.5272 16.3812 19.4906 16.4426 19.4717 16.5101C19.4529 16.5777 19.4524 16.6491 19.4704 16.717C19.4884 16.7848 19.5241 16.8466 19.574 16.896C19.8573 16.9983 20.1303 17.1276 20.389 17.282L17.398 20.303L14.885 17.794C14.7367 17.6465 14.5361 17.5636 14.327 17.5636C14.1178 17.5636 13.9172 17.6465 13.769 17.794L13.49 18.073L11.39 20.156C11.2794 20.2668 11.2173 20.417 11.2173 20.5735C11.2173 20.73 11.2794 20.8802 11.39 20.991C11.445 21.0462 11.5104 21.0901 11.5824 21.12C11.6543 21.1499 11.7315 21.1653 11.8095 21.1653C11.8874 21.1653 11.9646 21.1499 12.0366 21.12C12.1086 21.0901 12.174 21.0462 12.229 20.991L14.329 18.911L16.563 21.143L16.842 21.422C16.9152 21.4954 17.0022 21.5537 17.0979 21.5934C17.1937 21.6331 17.2963 21.6536 17.4 21.6536C17.5037 21.6536 17.6063 21.6331 17.7021 21.5934C17.7978 21.5537 17.8848 21.4954 17.958 21.422L21.264 18.077C21.4243 18.3592 21.5528 18.6584 21.647 18.969C21.6966 19.0185 21.7584 19.054 21.8263 19.0717C21.8941 19.0895 21.9654 19.0888 22.0329 19.0699C22.1004 19.051 22.1616 19.0144 22.2103 18.964C22.259 18.9136 22.2934 18.8511 22.31 18.783L22.97 16.046C22.9862 15.98 22.9851 15.911 22.9667 15.8457C22.9482 15.7803 22.9132 15.7208 22.865 15.673Z" fill="white"/>
<defs>
<linearGradient id="paint0_linear_5993_109183" x1="31.968" y1="5.2597e-08" x2="11.232" y2="36" gradientUnits="userSpaceOnUse">
<stop stop-color="#F388D9"/>
<stop offset="1" stop-color="#8229E7"/>
</linearGradient>
</defs>
</svg>
