<svg xmlns="http://www.w3.org/2000/svg" width="20" height="20" viewBox="0 0 20 20">
    <g data-name="组 8458">
        <g data-name="组 8436">
            <path data-name="路径 5499" d="M164.722 0H162.3l3.459 6.226h2.42z" transform="translate(-156.643 1)" style="fill:#e64a19"/>
            <path data-name="路径 5500" d="M440.558 0 437.1 6.226h2.42L442.979 0z" transform="translate(-427.631 1)" style="fill:#ff754c"/>
            <path data-name="路径 5501" d="m399.334 263.316-.024-.046-.024.046zm-1.443-2.616-1.191 2.221.386.753 1.2-2.224z" transform="translate(-387.794 -256.205)" style="fill:#c93d18"/>
            <path data-name="路径 5502" d="M212.3 431.1a6.5 6.5 0 1 0 6.5-6.5 6.5 6.5 0 0 0-6.5 6.5z" transform="translate(-208.297 -418.098)" style="fill:#9fa8da"/>
            <path data-name="路径 5503" d="M487 649.4h1.084v3.249H487z" transform="translate(-477.039 -638.362)" style="fill:#c5cae9"/>
            <path data-name="路径 5504" d="M267.7 485.5a5.5 5.5 0 1 1 5.5-5.5 5.5 5.5 0 0 1-5.5 5.5zm-2.752-3.849v1.1h5.5v-1.1h-1.1v-3.3h1.1v-1.1h-5.5v1.1h1.1v3.3h-1.1z" transform="translate(-257.115 -467.031)" style="fill:#c5cae9"/>
        </g>
        <path data-name="矩形 9311" style="fill:none" d="M0 0h20v20H0z"/>
    </g>
</svg>
