<svg xmlns="http://www.w3.org/2000/svg" width="282" height="164" viewBox="0 0 282 164">
    <g data-name="组 7512">
        <g data-name="矩形 8287" style="fill:#fff;stroke:#f5f5f5;stroke-width:2px">
            <rect width="282" height="164" rx="4" style="stroke:none"/>
            <rect x="1" y="1" width="280" height="162" rx="3" style="fill:none"/>
        </g>
        <g data-name="组 7040" style="opacity:.031">
            <g data-name="交叉 1" style="fill:#f85015">
                <path d="M171 133.8H1.28a87.899 87.899 0 0 1-.28-7 88.26 88.26 0 0 1 3.479-24.463c2.253-7.81 5.619-15.51 10.005-22.885 4.312-7.25 9.658-14.27 15.89-20.864C36.55 52.054 43.658 45.871 51.5 40.213c7.84-5.656 16.486-10.842 25.7-15.415 9.292-4.61 19.252-8.642 29.606-11.984 10.524-3.397 21.572-6.118 32.837-8.087C150.842 2.769 162.395 1.53 174 1.04v129.76c0 1.654-1.347 3-3.001 3z" style="stroke:none" transform="translate(107 28.999)"/>
                <path d="M171 132.8c1.103 0 2-.897 2-2V2.087a263.632 263.632 0 0 0-33.185 3.626c-11.219 1.961-22.221 4.671-32.702 8.054-10.307 3.326-20.22 7.34-29.468 11.928-9.166 4.548-17.765 9.706-25.56 15.33-7.79 5.622-14.851 11.762-20.984 18.251-6.182 6.54-11.483 13.5-15.758 20.688-4.342 7.301-7.674 14.922-9.903 22.651A87.26 87.26 0 0 0 2 126.8c0 1.995.07 4.006.208 6H171m0 2H.362a88.352 88.352 0 0 1-.362-8C0 59.075 77.44 3.73 175 0v130.8a4 4 0 0 1-4 4z" style="fill:#f5f5f5;stroke:none" transform="translate(107 28.999)"/>
            </g>
        </g>
    </g>
</svg>
