<svg xmlns="http://www.w3.org/2000/svg" width="20" height="20" viewBox="0 0 20 20">
    <defs>
        <clipPath id="14nd3s6u8a">
            <path data-name="矩形 8546" transform="translate(10 10)" style="stroke:#707070;fill:#fff" d="M0 0h20v20H0z"/>
        </clipPath>
    </defs>
    <g data-name="组 2370" transform="translate(-10 -10)" style="clip-path:url(#14nd3s6u8a)">
        <path data-name="路径 13348" d="M212.476 275.295h-12.248a1.536 1.536 0 0 0-1.531 1.531v9.186a1.536 1.536 0 0 0 1.531 1.531h12.248a1.536 1.536 0 0 0 1.531-1.531v-9.186a1.536 1.536 0 0 0-1.531-1.531zm0 3.062-6.124 3.828-6.124-3.828v-1.531l6.124 3.828 6.124-3.828v1.531z" transform="translate(-186.457 -261.484)" style="fill:#fb5107"/>
        <path data-name="路径 13349" d="M72.468 91.687a1.462 1.462 0 0 1 1.41-.748 4.544 4.544 0 0 0 .026-1.952 1.508 1.508 0 0 1-1.346-2.387 4.5 4.5 0 0 0-1.688-.989 1.506 1.506 0 0 1-2.757 0 4.5 4.5 0 0 0-1.674.977 1.508 1.508 0 0 1-1.356 2.379 4.544 4.544 0 0 0 .018 1.953 1.513 1.513 0 0 1 1.37 2.326 4.5 4.5 0 0 0 1.68.959 1.515 1.515 0 0 1 2.68 0 4.5 4.5 0 0 0 1.667-.947 1.466 1.466 0 0 1-.03-1.571zm-2.976.176a1.959 1.959 0 1 1 1.959-1.963 1.959 1.959 0 0 1-1.959 1.963z" transform="translate(-43.997 -66.617)" style="fill:#fff"/>
    </g>
</svg>
