<svg xmlns="http://www.w3.org/2000/svg" width="116" height="116" viewBox="0 0 116 116">
    <defs>
        <filter id="tx6mot6iza" x="0" y="0" width="116" height="116" filterUnits="userSpaceOnUse">
            <feOffset/>
            <feGaussianBlur stdDeviation="10" result="blur"/>
            <feFlood flood-opacity=".102"/>
            <feComposite operator="in" in2="blur"/>
            <feComposite in="SourceGraphic"/>
        </filter>
    </defs>
    <g data-name="组 7504">
        <g style="filter:url(#tx6mot6iza)">
            <path data-name="路径 13491" d="M28 0A28 28 0 1 1 0 28 28 28 0 0 1 28 0z" transform="translate(30 30)" style="fill:#fff"/>
        </g>
        <g data-name="路径 13490" style="fill:none">
            <path d="M101.228 101.433a1.709 1.709 0 0 1 1.24.461 1.639 1.639 0 0 1 .477 1.236v5.236a1.72 1.72 0 0 1-.465 1.3 1.694 1.694 0 0 1-1.228.448H84.8a1.8 1.8 0 0 1-1.323-.533 1.775 1.775 0 0 1-.536-1.309v-5.042a1.8 1.8 0 0 1 .465-1.321 1.707 1.707 0 0 1 1.275-.473zm0-12.321a1.736 1.736 0 0 1 1.24.448 1.631 1.631 0 0 1 .477 1.248v5.212a1.72 1.72 0 0 1-.465 1.3 1.694 1.694 0 0 1-1.228.448H84.8a1.8 1.8 0 0 1-1.323-.533 1.775 1.775 0 0 1-.536-1.309v-5.02a1.8 1.8 0 0 1 .465-1.321 1.707 1.707 0 0 1 1.275-.473z" style="stroke:none" transform="translate(-34.944 -42.112)"/>
            <path d="M100.944 108.112v-4.679h-16v4.679h16m0-12.345v-4.655h-16v4.655h16m.307 14.345H84.803c-.524 0-.965-.178-1.323-.533a1.775 1.775 0 0 1-.536-1.31v-5.042c0-.566.155-1.006.465-1.321.31-.315.735-.473 1.275-.473h16.544c.508 0 .921.154 1.24.46.317.308.476.72.476 1.237v5.237c0 .565-.155.998-.465 1.296-.31.3-.719.449-1.228.449zm0-12.345H84.803c-.524 0-.965-.178-1.323-.534a1.775 1.775 0 0 1-.536-1.309v-5.018c0-.566.155-1.006.465-1.321.31-.315.735-.473 1.275-.473h16.544c.508 0 .921.15 1.24.448.317.3.476.716.476 1.249v5.212c0 .566-.155.998-.465 1.297-.31.299-.719.449-1.228.449z" style="fill:#2f4553;stroke:none" transform="translate(-34.944 -42.112)"/>
        </g>
    </g>
</svg>
