<svg xmlns="http://www.w3.org/2000/svg" width="94" height="93.999" viewBox="0 0 94 93.999">
    <g data-name="组 9040">
        <g data-name="组 9039">
            <path data-name="路径 14093" d="M532.574 193.778a40.213 40.213 0 1 0 40.212 40.213 40.213 40.213 0 0 0-40.212-40.213zm0 67.39a27.053 27.053 0 0 1-15.657-4.961l-9.927 2.644 2.756-10.107a27.18 27.18 0 1 1 22.827 12.424z" transform="translate(-485.574 -186.991)" style="fill:#f05923"/>
            <path data-name="路径 14094" d="M476 130.418a47 47 0 1 0 47 47 47 47 0 0 0-47-47zm0 90a43 43 0 1 1 43-43 43 43 0 0 1-43 43z" transform="translate(-429 -130.418)" style="fill:#e3e3e3"/>
            <g data-name="组 9038">
                <path data-name="路径 14095" d="M787.207 439.1h-8.4v-1.39a9.591 9.591 0 0 1 .72-4.388 4.511 4.511 0 0 1 2.205-1.927l1.532-.65q1.764-.789 1.764-2.182a1.852 1.852 0 0 0-.58-1.393 1.914 1.914 0 0 0-1.37-.557q-2.183 0-2.229 3.064h-7.8a10.922 10.922 0 0 1 2.925-7.824 9.63 9.63 0 0 1 7.29-3.088 9.917 9.917 0 0 1 7.127 2.832 9.281 9.281 0 0 1 2.948 6.965q0 5.154-4.179 7.243a3.58 3.58 0 0 0-1.672 1.3 5.151 5.151 0 0 0-.281 1.995zm-9.425 6.5a5.39 5.39 0 1 1 1.579 3.807 5.188 5.188 0 0 1-1.579-3.807z" transform="translate(-736.191 -387.878)" style="fill:#98a2af"/>
            </g>
        </g>
        <path data-name="矩形 9918" transform="rotate(45 2.008 20.58)" style="fill:#b7bdc6" d="M0 0h6.86v6.86H0z"/>
        <path data-name="矩形 9921" transform="translate(5.717 77.993)" style="fill:#b7bdc6" d="M0 0h6.86v6.86H0z"/>
        <path data-name="矩形 9920" transform="rotate(45 10.168 124.15)" style="fill:#f05923" d="M0 0h4.573v4.573H0z"/>
    </g>
</svg>
