<svg xmlns="http://www.w3.org/2000/svg" width="20" height="20" viewBox="0 0 20 20">
    <defs>
        <clipPath id="q203t70taa">
            <path data-name="矩形 8548" transform="translate(10 10)" style="fill:#fff;stroke:#707070" d="M0 0h20v20H0z"/>
        </clipPath>
    </defs>
    <g data-name="组 8195" transform="translate(-10 -10)" style="clip-path:url(#q203t70taa)">
        <path data-name="路径 13357" d="M172.536 112.4h-1.861v-4.953a.9.9 0 0 0-.9-.9H159.62a.9.9 0 0 0-.9.9v13.713a.9.9 0 0 0 .9.9h12.057a1.763 1.763 0 0 0 1.763-1.763v-7a.9.9 0 0 0-.9-.9zm-11.34-2.465a.531.531 0 0 1 .531-.529h1.361a.532.532 0 0 1 .529.529v1.365a.532.532 0 0 1-.532.532h-1.359a.532.532 0 0 1-.531-.532zm0 3.106a.214.214 0 0 1 .213-.214h5.681a.215.215 0 0 1 .214.214v.421a.214.214 0 0 1-.214.213h-5.681a.212.212 0 0 1-.213-.208zm6.109 4.953a.214.214 0 0 1-.214.213h-5.681a.213.213 0 0 1-.213-.213v-.424a.213.213 0 0 1 .213-.214h5.69a.214.214 0 0 1 .208.218zm1.219-2.263a.214.214 0 0 1-.214.213h-6.9a.213.213 0 0 1-.213-.213v-.426a.214.214 0 0 1 .213-.214h6.9a.214.214 0 0 1 .212.215zm0-4.529a.214.214 0 0 1-.214.213h-3.194a.213.213 0 0 1-.213-.213v-.425a.214.214 0 0 1 .213-.214h3.194a.215.215 0 0 1 .214.214zm3.873 9.1a.825.825 0 0 1-.822.822h-.075a.825.825 0 0 1-.826-.822v-6.616a.251.251 0 0 1 .249-.249h1.222a.25.25 0 0 1 .249.249z" transform="translate(-145.786 -94.304)" style="fill:#fb5107"/>
    </g>
</svg>
