<svg xmlns="http://www.w3.org/2000/svg" xmlns:xlink="http://www.w3.org/1999/xlink" width="48" height="56" viewBox="0 0 48 56">
    <defs>
        <linearGradient id="x1d83qddza" x1="1" y1=".251" x2="0" y2=".251" gradientUnits="objectBoundingBox">
            <stop offset="0" stop-color="#f04e23"/>
            <stop offset="1" stop-color="#fa8465" stop-opacity=".502"/>
        </linearGradient>
        <linearGradient id="a8ct20wzkb" y1=".5" x2="1" y2=".5" gradientUnits="objectBoundingBox">
            <stop offset="0" stop-color="#a3adba"/>
            <stop offset=".492" stop-color="#9ea7b5"/>
            <stop offset="1" stop-color="#8d96a4"/>
        </linearGradient>
        <linearGradient id="y992jk20oc" x1="0" y1=".5" x2="1" y2=".5" xlink:href="#x1d83qddza"/>
    </defs>
    <g data-name="组 7456">
        <g data-name="组 7116">
            <path data-name="路径 13450" d="M72 48.117 48 64.088v-56h24z" transform="translate(-24.001 -8.088)" style="fill-rule:evenodd;fill:#e6e8ea"/>
            <path data-name="路径 13451" d="M36 8.088v56l-24-16v-40z" transform="translate(-12.001 -8.088)" style="fill:url(#x1d83qddza);fill-rule:evenodd"/>
            <path data-name="路径 13454" d="M32 32.841h40.047V15.09H32z" transform="translate(-28.024 1.702)" style="fill:url(#a8ct20wzkb)"/>
            <path data-name="路径 13458" d="m54.667 16.757 1.667 1.667L58 16.757l-1.667-1.667zm-1.333 26.332h2v-2h-2z" transform="translate(-16 -3.422)" style="fill:#fff"/>
            <g data-name="组 7118">
                <path data-name="排除 1" d="M-1082 2614.472h-13v-8h13v8zm-7.5-5.5v3h2v-3z" transform="translate(1102 -2581.944)" style="fill:url(#y992jk20oc)"/>
                <path data-name="减去 31" d="M1.636 6H0V4.5a4.5 4.5 0 0 1 9 0V6H7.364V4.363a2.864 2.864 0 0 0-5.728 0V6z" transform="translate(9 18.528)" style="fill:#e6e8ea"/>
            </g>
        </g>
        <path data-name="矩形 8343" transform="translate(21 29)" style="fill:#e6e8ea" d="M0 0h6v2H0z"/>
        <path data-name="矩形 8344" transform="translate(28 29)" style="fill:#e6e8ea" d="M0 0h6v2H0z"/>
        <path data-name="矩形 8345" transform="translate(35 29)" style="fill:#e6e8ea" d="M0 0h6v2H0z"/>
    </g>
</svg>
