<svg xmlns="http://www.w3.org/2000/svg" width="170" height="170" viewBox="0 0 170 170">
    <g data-name="组 7497">
        <g data-name="组 7108" transform="translate(-.101 -.058)">
            <path data-name="路径 4" d="M217.392-83.809a37.653 37.653 0 0 1-2.976 15.391 33.491 33.491 0 0 1-7.993 11.31 33.981 33.981 0 0 1-11.735 6.973 41.687 41.687 0 0 1-14.031 2.381 41.463 41.463 0 0 1-14.116-2.381 35.063 35.063 0 0 1-11.735-6.973 32.929 32.929 0 0 1-8.078-11.31 37.653 37.653 0 0 1-2.976-15.391v-51.021a37.653 37.653 0 0 1 2.976-15.391 32.929 32.929 0 0 1 8.078-11.31 35.064 35.064 0 0 1 11.735-6.973 41.463 41.463 0 0 1 14.116-2.381 41.688 41.688 0 0 1 14.031 2.381 33.981 33.981 0 0 1 11.735 6.973 33.491 33.491 0 0 1 7.993 11.31 37.653 37.653 0 0 1 2.976 15.391v51.021zm-22.109-50.68q0-7.653-4.082-12.075a13.7 13.7 0 0 0-10.544-4.422 13.965 13.965 0 0 0-10.629 4.422q-4.167 4.422-4.167 12.075v50.51q0 7.653 4.167 11.99a14.1 14.1 0 0 0 10.629 4.337 13.827 13.827 0 0 0 10.543-4.337q4.082-4.337 4.082-11.99z" transform="translate(-83.891 207.265)" style="fill:#fff"/>
            <path data-name="路径 4 - 轮廓" d="M180.514-47.54a42.011 42.011 0 0 1-14.236-2.4 35.58 35.58 0 0 1-11.853-7.044 33.435 33.435 0 0 1-8.166-11.43A33.882 33.882 0 0 1 144-75.7a43.636 43.636 0 0 1-.751-8.252v-51.021a43.635 43.635 0 0 1 .751-8.252 33.882 33.882 0 0 1 2.256-7.284 33.435 33.435 0 0 1 8.166-11.43 35.581 35.581 0 0 1 11.853-7.044 42.011 42.011 0 0 1 14.236-2.4 42.236 42.236 0 0 1 14.15 2.4 34.493 34.493 0 0 1 11.857 7.046 34 34 0 0 1 8.079 11.428 33.882 33.882 0 0 1 2.256 7.284 43.635 43.635 0 0 1 .751 8.252v51.021a43.636 43.636 0 0 1-.751 8.252 33.882 33.882 0 0 1-2.256 7.284 34 34 0 0 1-8.079 11.428 34.492 34.492 0 0 1-11.857 7.046 42.236 42.236 0 0 1-14.147 2.402zm0-123.13a41.3 41.3 0 0 0-13.995 2.36 34.869 34.869 0 0 0-11.616 6.9 32.725 32.725 0 0 0-7.991 11.189 37.473 37.473 0 0 0-2.946 15.246v51.021a37.473 37.473 0 0 0 2.946 15.246 32.725 32.725 0 0 0 7.988 11.192 34.868 34.868 0 0 0 11.616 6.9 41.3 41.3 0 0 0 13.995 2.36 41.524 41.524 0 0 0 13.911-2.36 33.782 33.782 0 0 0 11.613-6.9 33.289 33.289 0 0 0 7.908-11.191 37.473 37.473 0 0 0 2.946-15.246v-51.021a37.473 37.473 0 0 0-2.946-15.246 33.289 33.289 0 0 0-7.908-11.191 33.782 33.782 0 0 0-11.613-6.9 41.524 41.524 0 0 0-13.908-2.358zm0 103.232a15.876 15.876 0 0 1-6.024-1.111 14.129 14.129 0 0 1-4.863-3.336 14.384 14.384 0 0 1-3.2-5.3 21.18 21.18 0 0 1-1.061-6.941v-50.51a21.371 21.371 0 0 1 1.061-6.962 14.764 14.764 0 0 1 3.2-5.358 14.123 14.123 0 0 1 4.863-3.4 15.614 15.614 0 0 1 6.026-1.133 15.455 15.455 0 0 1 6.006 1.133 13.76 13.76 0 0 1 4.8 3.4 14.825 14.825 0 0 1 3.137 5.358 21.772 21.772 0 0 1 1.039 6.96v50.51a21.576 21.576 0 0 1-1.04 6.939 14.44 14.44 0 0 1-3.139 5.3 13.76 13.76 0 0 1-4.8 3.338 15.714 15.714 0 0 1-6.005 1.113zm0-83.334a13.68 13.68 0 0 0-10.369 4.31c-2.7 2.866-4.069 6.846-4.069 11.83v50.51c0 4.983 1.368 8.933 4.067 11.742a13.816 13.816 0 0 0 10.372 4.227 13.542 13.542 0 0 0 10.285-4.224c2.644-2.809 3.985-6.761 3.985-11.745v-50.51c0-4.986-1.341-8.967-3.987-11.833" transform="translate(-83.749 207.408)" style="fill:#c1c1c1"/>
            <rect data-name="矩形 503" width="45.733" height="60.739" rx="4" transform="translate(70.778 47.967)" style="fill:#fff"/>
            <g data-name="组 3">
                <g data-name="椭圆 1" style="fill:#162837">
                    <path d="M36.625 74.777h-.016a37.887 37.887 0 0 1-14.84-2.996 37.967 37.967 0 0 1-12.114-8.17A37.967 37.967 0 0 1 1.49 51.495 37.889 37.889 0 0 1-1.5 36.652a37.918 37.918 0 0 1 3.003-14.846A38.049 38.049 0 0 1 9.681 9.68a38.049 38.049 0 0 1 12.125-8.178A37.918 37.918 0 0 1 36.652-1.5h.015c5.147 0 10.14 1.008 14.84 2.996a37.967 37.967 0 0 1 12.115 8.169c3.5 3.5 6.246 7.577 8.164 12.118a37.889 37.889 0 0 1 2.99 14.842 37.917 37.917 0 0 1-3.003 14.846 38.049 38.049 0 0 1-8.177 12.125 38.049 38.049 0 0 1-12.125 8.177 37.917 37.917 0 0 1-14.846 3.004zm.027-71.143a32.81 32.81 0 0 0-12.846 2.598A32.936 32.936 0 0 0 13.31 13.31a32.936 32.936 0 0 0-7.08 10.495 32.81 32.81 0 0 0-2.597 12.847 32.862 32.862 0 0 0 9.657 23.333 32.861 32.861 0 0 0 23.32 9.656h.013a32.81 32.81 0 0 0 12.847-2.597 32.936 32.936 0 0 0 10.495-7.079 32.936 32.936 0 0 0 7.08-10.495 32.81 32.81 0 0 0 2.596-12.847 32.861 32.861 0 0 0-9.657-23.333 32.862 32.862 0 0 0-23.319-9.657h-.014z" style="stroke:none" transform="translate(60.167 36.696)"/>
                    <path d="M36.667 0h-.014C16.418.008.008 16.418 0 36.653c-.008 20.23 16.38 36.624 36.61 36.624h.014c20.235-.008 36.645-16.418 36.653-36.653C73.285 16.393 56.897 0 36.667 0m-.056 71.142a34.354 34.354 0 0 1-24.38-10.096A34.354 34.354 0 0 1 2.134 36.652 34.429 34.429 0 0 1 12.25 12.25 34.429 34.429 0 0 1 36.652 2.134h.014c4.654 0 9.167.91 13.415 2.706a34.355 34.355 0 0 1 10.965 7.39 34.355 34.355 0 0 1 10.096 24.395 34.429 34.429 0 0 1-10.116 24.402 34.429 34.429 0 0 1-24.401 10.115h-.014M36.65-3h.016A39.38 39.38 0 0 1 52.092.114a39.46 39.46 0 0 1 12.59 8.49A39.46 39.46 0 0 1 73.169 21.2a39.38 39.38 0 0 1 3.109 15.426 39.41 39.41 0 0 1-3.122 15.43 39.542 39.542 0 0 1-8.498 12.602c-3.64 3.64-7.88 6.5-12.601 8.498a39.41 39.41 0 0 1-15.43 3.122h-.017a39.38 39.38 0 0 1-15.424-3.115 39.46 39.46 0 0 1-12.591-8.49A39.46 39.46 0 0 1 .109 52.078 39.38 39.38 0 0 1-3 36.652 39.41 39.41 0 0 1 .122 21.22 39.542 39.542 0 0 1 8.62 8.62c3.64-3.64 7.88-6.5 12.6-8.498A39.41 39.41 0 0 1 36.653-3zm-.027 71.142a31.317 31.317 0 0 0 12.262-2.478 31.443 31.443 0 0 0 10.02-6.759 31.443 31.443 0 0 0 6.758-10.019 31.317 31.317 0 0 0 2.478-12.262 31.369 31.369 0 0 0-9.218-22.272 31.368 31.368 0 0 0-22.258-9.218h-.014c-4.254.002-8.38.836-12.262 2.479a31.443 31.443 0 0 0-10.019 6.758 31.443 31.443 0 0 0-6.758 10.02 31.318 31.318 0 0 0-2.479 12.262 31.368 31.368 0 0 0 9.218 22.272 31.368 31.368 0 0 0 22.259 9.217h.013z" style="fill:#fff;stroke:none" transform="translate(60.167 36.696)"/>
                </g>
                <path data-name="直线 2" d="M1.516 31.528 0 30.012 30.012 0l1.516 1.516z" transform="translate(40.678 98.4)" style="fill:#162837"/>
                <g data-name="椭圆 2" style="fill:#162837">
                    <path d="M29.423 62.154c-4.39 0-8.646-.86-12.652-2.555a32.268 32.268 0 0 1-10.318-6.965A32.266 32.266 0 0 1-.486 42.3a32.298 32.298 0 0 1-2.522-12.661A32.465 32.465 0 0 1-.416 16.953 32.672 32.672 0 0 1 6.587 6.587 32.672 32.672 0 0 1 16.953-.416 32.465 32.465 0 0 1 29.64-3.008h.083c4.39 0 8.646.859 12.652 2.554A32.268 32.268 0 0 1 52.692 6.51a32.266 32.266 0 0 1 6.939 10.334 32.298 32.298 0 0 1 2.522 12.661 32.465 32.465 0 0 1-2.592 12.686 32.672 32.672 0 0 1-7.003 10.366 32.672 32.672 0 0 1-10.366 7.003 32.465 32.465 0 0 1-12.686 2.592h-.083zm.29-57.024h-.064a24.363 24.363 0 0 0-9.52 1.943 24.556 24.556 0 0 0-7.791 5.265 24.556 24.556 0 0 0-5.265 7.79 24.363 24.363 0 0 0-1.943 9.52 24.207 24.207 0 0 0 7.11 17.257 24.204 24.204 0 0 0 17.192 7.11h.064a24.363 24.363 0 0 0 9.521-1.943 24.556 24.556 0 0 0 7.79-5.265 24.556 24.556 0 0 0 5.265-7.79 24.363 24.363 0 0 0 1.943-9.52 24.207 24.207 0 0 0-7.11-17.256 24.203 24.203 0 0 0-17.192-7.11z" style="stroke:none" transform="translate(67.056 43.737)"/>
                    <path d="M29.722-.008h-.075C13.31.032.033 13.31-.008 29.647-.05 45.984 13.16 59.194 29.499 59.153c16.337-.04 29.614-13.317 29.654-29.654.041-16.313-13.128-29.507-29.43-29.507m-.29 57.023c-3.68 0-7.248-.716-10.605-2.129a27.167 27.167 0 0 1-8.709-5.86 27.166 27.166 0 0 1-5.86-8.709A27.19 27.19 0 0 1 2.13 29.641c.01-3.705.744-7.3 2.182-10.686a27.542 27.542 0 0 1 5.904-8.739 27.542 27.542 0 0 1 8.739-5.904A27.347 27.347 0 0 1 29.64 2.13c3.706-.01 7.298.707 10.676 2.129a27.167 27.167 0 0 1 8.709 5.86 27.167 27.167 0 0 1 5.86 8.71 27.19 27.19 0 0 1 2.129 10.675 27.348 27.348 0 0 1-2.182 10.686 27.542 27.542 0 0 1-5.904 8.739 27.542 27.542 0 0 1-8.739 5.904 27.347 27.347 0 0 1-10.757 2.182m.29-63.023c9.491 0 18.403 3.693 25.093 10.4 6.69 6.707 10.361 15.628 10.337 25.122-.049 19.602-16.037 35.59-35.64 35.64-9.582 0-18.494-3.694-25.184-10.401-6.69-6.707-10.361-15.628-10.337-25.121.049-19.603 16.037-35.591 35.64-35.64h.09zm-.29 63.023.056-6c2.9-.007 5.71-.58 8.355-1.704a21.57 21.57 0 0 0 6.842-4.625 21.57 21.57 0 0 0 4.625-6.842 21.38 21.38 0 0 0 1.704-8.355 21.223 21.223 0 0 0-6.232-15.127A21.22 21.22 0 0 0 29.712 8.13c-2.956.007-5.767.58-8.41 1.704a21.57 21.57 0 0 0-6.843 4.625 21.57 21.57 0 0 0-4.625 6.843 21.38 21.38 0 0 0-1.704 8.354 21.223 21.223 0 0 0 6.232 15.127 21.219 21.219 0 0 0 15.071 6.232v6z" style="fill:#fff;stroke:none" transform="translate(67.056 43.737)"/>
                </g>
                <g data-name="矩形 1" style="stroke-width:2px;fill:#fb6943;stroke:#fff">
                    <path style="stroke:none" d="M0 0h8.575v38.587H0z" transform="rotate(45 -87.98 127.867)"/>
                    <path style="fill:none" d="M-1-1H9.575v40.587H-1z" transform="rotate(45 -87.98 127.867)"/>
                </g>
                <path data-name="直线 4" d="M8.575 2.144H0V0h8.575z" transform="rotate(45 -138.01 107.144)" style="fill:#162837"/>
                <g data-name="组 4">
                    <path data-name="直线 5" d="M17.864 19.38 0 1.516 1.516 0 19.38 17.864z" transform="translate(87.086 63.598)" style="fill:#162837"/>
                    <path data-name="直线 6" d="M1.516 19.38 0 17.864 17.864 0l1.516 1.516z" transform="translate(87.086 63.598)" style="fill:#162837"/>
                </g>
            </g>
            <path data-name="路径 1" d="M1016.574 444.271a79.336 79.336 0 0 0-.144-2.109l2.137-.174c.058.712.108 1.441.148 2.165zm-.345-4.215c-.077-.7-.164-1.406-.26-2.094l2.123-.3c.1.708.189 1.434.268 2.156zm-.583-4.183c-.118-.7-.248-1.393-.387-2.073l2.1-.427c.143.7.277 1.423.4 2.14zm-.84-4.131a61.55 61.55 0 0 0-.523-2.042l2.067-.568c.191.693.373 1.4.542 2.114zm-1.118-4.061a56.137 56.137 0 0 0-.668-1.994l2.02-.719c.241.678.475 1.375.693 2.07zm-1.41-3.96c-.26-.65-.536-1.3-.819-1.934l1.957-.876c.295.659.582 1.336.853 2.013zm-1.716-3.832a48.795 48.795 0 0 0-.975-1.858l1.877-1.036c.35.634.692 1.286 1.017 1.939zm-2.027-3.673c-.363-.6-.743-1.19-1.13-1.767l1.78-1.194c.4.6.8 1.223 1.18 1.846zm-2.336-3.482a48.106 48.106 0 0 0-1.28-1.659l1.668-1.347c.457.565.907 1.149 1.339 1.735zm-2.633-3.26a48.045 48.045 0 0 0-1.422-1.539l1.542-1.489a49.067 49.067 0 0 1 1.487 1.609zm-2.912-3.015a45.4 45.4 0 0 0-1.552-1.41l1.406-1.618c.55.478 1.1.973 1.621 1.472zm-3.165-2.752a47.27 47.27 0 0 0-1.668-1.274l1.265-1.73c.588.43 1.174.877 1.74 1.328zm-3.388-2.478a52.673 52.673 0 0 0-1.768-1.135l1.122-1.827c.621.381 1.24.779 1.84 1.181zm-3.581-2.2a65.252 65.252 0 0 0-1.852-1l.98-1.907a58.67 58.67 0 0 1 1.923 1.034zm-3.742-1.924c-.63-.3-1.276-.584-1.922-.86l.841-1.972c.669.285 1.339.585 1.992.891zm-3.874-1.652c-.65-.251-1.315-.5-1.979-.726l.7-2.025c.686.239 1.374.491 2.046.751zm-3.981-1.386a83.002 83.002 0 0 0-2.024-.6l.572-2.066c.7.193 1.4.4 2.09.615zm-4.064-1.125a67.147 67.147 0 0 0-2.059-.465l.439-2.1c.707.148 1.422.309 2.126.48zm-4.129-.863c-.7-.122-1.4-.233-2.082-.329l.3-2.123c.708.1 1.433.214 2.155.34zm-4.169-.581c-1.3-.131-2.05-.153-2.057-.153l.058-2.143c.033 0 .829.023 2.214.163z" transform="translate(-865.677 -372.349)" style="fill:#ccc"/>
            <g data-name="组 10">
                <g data-name="组 5">
                    <path data-name="直线 2" transform="translate(58.016 28.142)" style="stroke:#fb6943;fill:none;stroke-width:2px" d="M0 0h2.858"/>
                    <path data-name="路径 2" d="M0 0v2.858" transform="translate(59.445 26.713)" style="stroke:#fb6943;fill:none;stroke-width:2px"/>
                </g>
                <g data-name="组 8">
                    <path data-name="直线 2" transform="translate(66.591 28.142)" style="stroke:#fb6943;fill:none;stroke-width:2px" d="M0 0h2.858"/>
                    <path data-name="路径 2" d="M0 0v2.858" transform="translate(68.02 26.713)" style="stroke:#fb6943;fill:none;stroke-width:2px"/>
                </g>
                <g data-name="组 9">
                    <path data-name="直线 2" transform="translate(49.441 28.142)" style="stroke:#fb6943;fill:none;stroke-width:2px" d="M0 0h2.858"/>
                    <path data-name="路径 2" d="M0 0v2.858" transform="translate(50.87 26.713)" style="stroke:#fb6943;fill:none;stroke-width:2px"/>
                </g>
                <g data-name="组 6">
                    <path data-name="直线 2" transform="translate(58.016 19.567)" style="stroke:#fb6943;fill:none;stroke-width:2px" d="M0 0h2.858"/>
                    <path data-name="路径 2" d="M0 0v2.858" transform="translate(59.445 18.138)" style="stroke:#fb6943;fill:none;stroke-width:2px"/>
                </g>
                <g data-name="组 7">
                    <path data-name="直线 2" transform="translate(58.016 36.717)" style="stroke:#fb6943;fill:none;stroke-width:2px" d="M0 0h2.858"/>
                    <path data-name="路径 2" d="M0 0v2.858" transform="translate(59.445 35.288)" style="stroke:#fb6943;fill:none;stroke-width:2px"/>
                </g>
            </g>
        </g>
        <path data-name="矩形 8327" style="fill:none" d="M0 0h170v170H0z"/>
    </g>
</svg>
