<svg xmlns="http://www.w3.org/2000/svg" width="20" height="20" viewBox="0 0 20 20">
    <defs>
        <clipPath id="t1s89gcgqa">
            <path data-name="矩形 8549" transform="translate(10 10)" style="fill:#fff;stroke:#707070" d="M0 0h20v20H0z"/>
        </clipPath>
    </defs>
    <g data-name="组 8197" transform="translate(-10 -10)" style="clip-path:url(#t1s89gcgqa)">
        <path data-name="路径 13358" d="M182.057 136.808a4.425 4.425 0 0 1-8.534.348h-2.414a.442.442 0 0 0-.442.442v3.538a.442.442 0 0 0 .442.442h7.953a.442.442 0 0 1 .442.442v1.2a.442.442 0 0 0 .743.325l4.218-3.909a.442.442 0 0 0 0-.653l-2.4-2.17zm-4.314-4.563a3.538 3.538 0 1 0 3.538 3.538 3.538 3.538 0 0 0-3.538-3.537zm-2.2-4.246a.442.442 0 0 0-.3.118l-4.218 3.91a.442.442 0 0 0 0 .654l2.4 2.169a4.425 4.425 0 0 1 8.535-.347h2.412a.442.442 0 0 0 .442-.442v-3.538a.442.442 0 0 0-.442-.442h-7.953a.442.442 0 0 1-.442-.442v-1.2a.442.442 0 0 0-.442-.442z" transform="translate(-157.743 -115.829)" style="fill:#fb5107"/>
    </g>
</svg>
