<svg xmlns="http://www.w3.org/2000/svg" width="22" height="22" viewBox="0 0 22 22">
    <path data-name="Path 8471" d="M101.72 138.667a2.7 2.7 0 0 1 2.613 2.787V145a.737.737 0 0 1-.713.76 1.777 1.777 0 0 0 0 3.547.737.737 0 0 1 .713.76v3.547a2.7 2.7 0 0 1-2.613 2.787H87.946a2.7 2.7 0 0 1-2.613-2.787v-3.547a.737.737 0 0 1 .712-.76 1.777 1.777 0 0 0 0-3.547.737.737 0 0 1-.712-.76v-3.547a2.7 2.7 0 0 1 2.613-2.787zm0 1.52H87.946a1.229 1.229 0 0 0-1.188 1.267v2.875a3.351 3.351 0 0 1 0 6.411v2.875a1.229 1.229 0 0 0 1.188 1.267h13.774a1.229 1.229 0 0 0 1.188-1.267v-2.875a3.351 3.351 0 0 1 0-6.411v-2.875a1.229 1.229 0 0 0-1.188-1.267zM92 143.15a.682.682 0 0 1 1 .1l1.828 2.34 1.828-2.34a.682.682 0 0 1 1-.1.8.8 0 0 1 .091 1.071l-1.6 2.047h1.052a.734.734 0 0 1 .711.716v.045a.737.737 0 0 1-.713.76h-1.533v1.011h1.544a.734.734 0 0 1 .711.716v.045a.737.737 0 0 1-.712.76h-1.543v1.014a.741.741 0 0 1-.671.759h-.042a.737.737 0 0 1-.712-.76v-1.014h-1.781a.734.734 0 0 1-.711-.716v-.045a.737.737 0 0 1 .713-.76h1.781v-1.013h-1.783a.734.734 0 0 1-.711-.716v-.045a.737.737 0 0 1 .713-.76h1.05l-1.6-2.047a.8.8 0 0 1 .057-1.039z" transform="translate(-83.833 -136.535)" style="fill:#686868"/>
</svg>
