<svg xmlns="http://www.w3.org/2000/svg" width="18" height="18" viewBox="0 0 18 18">
    <g data-name="组 5527">
        <path data-name="减去 62" d="M7.424 18a.679.679 0 0 1-.178-.024.7.7 0 0 1-.314-.177.676.676 0 0 1-.178-.295l-1.63-4.641-4.671-1.636a.689.689 0 0 1-.417-.879.659.659 0 0 1 .182-.283.706.706 0 0 1 .289-.159l4.416-1.179a9.879 9.879 0 0 1 .906-3.175 9.741 9.741 0 0 1 1.908-2.7A9.582 9.582 0 0 1 9.79 1.28a9.739 9.739 0 0 1 2.355-.957A9.933 9.933 0 0 1 14.657 0a9.791 9.791 0 0 1 2.516.327.7.7 0 0 1 .327.194.664.664 0 0 1 .17.327 9.7 9.7 0 0 1 .307 1.878 9.815 9.815 0 0 1-.486 3.737 9.581 9.581 0 0 1-.78 1.737A9.456 9.456 0 0 1 16 9.269a9.916 9.916 0 0 1-.868.991 9.747 9.747 0 0 1-1.27 1.069 9.853 9.853 0 0 1-1.423.834 9.876 9.876 0 0 1-3.166.906l-1.182 4.416a.712.712 0 0 1-.1.212.7.7 0 0 1-.349.266.678.678 0 0 1-.218.037zM14.23 2.343A1.359 1.359 0 1 0 15.6 3.7a1.367 1.367 0 0 0-1.37-1.357z" transform="translate(.004)" style="fill:#fe457d"/>
    </g>
</svg>
