<svg xmlns="http://www.w3.org/2000/svg" width="60" height="60" viewBox="0 0 60 60">
    <g data-name="Group 5795">
        <g data-name="Group 5523">
            <path data-name="Subtraction 4" d="M54 60H6a6.007 6.007 0 0 1-6-6V6a6.007 6.007 0 0 1 6-6h48a6.007 6.007 0 0 1 6 6v48a6.007 6.007 0 0 1-6 6zM5 3a2 2 0 0 0-2 2v50a2 2 0 0 0 2 2h50a2 2 0 0 0 2-2V5a2 2 0 0 0-2-2z" style="fill:#fe457d"/>
        </g>
        <path data-name="Union 219" d="M-5525.828-7539.083a5.167 5.167 0 0 1-.953-3.2c-.065-1-.051-1.978-.038-2.843.023-1.685.042-3.139-.521-3.7a.942.942 0 0 0-.485-.253h-.008a3.313 3.313 0 0 0-.711-.07c-.289 0-.6.027-.955.057-.481.042-1.027.087-1.715.087a26.886 26.886 0 0 1-7.68-1.4l-4.448 4.447a1.524 1.524 0 0 1-.991.443 1.105 1.105 0 0 1-.791-.344 3.878 3.878 0 0 1-.8-2.238c-.032-.256-.774-6.123-.717-8.024a24.7 24.7 0 0 1-3.955-6.395 16.408 16.408 0 0 1-1.177-9.233 5.44 5.44 0 0 1 1.289-2.736l.013-.015a5.425 5.425 0 0 1 2.723-1.272 14.9 14.9 0 0 1 2.574-.225 17.82 17.82 0 0 1 7.689 1.86 25.069 25.069 0 0 1 5.36 3.495h.236c2.1 0 7.562.69 7.792.719a3.908 3.908 0 0 1 2.238.8 1.112 1.112 0 0 1 .344.794 1.529 1.529 0 0 1-.443.989l-4.447 4.448c1.641 5.436 1.441 7.815 1.306 9.4a5.58 5.58 0 0 0 .013 1.667v.008a.947.947 0 0 0 .255.485c.438.437 1.415.526 2.746.526.3 0 .618 0 .951-.007.359-.006.729-.01 1.109-.01.666 0 1.219.016 1.74.05a5.157 5.157 0 0 1 3.2.953 1.2 1.2 0 0 1 .378.924 1.979 1.979 0 0 1-.827 1.358 22.952 22.952 0 0 1-4.988 2.327 1.91 1.91 0 0 0-.827 1.046 21.07 21.07 0 0 1-2.2 4.642 1.928 1.928 0 0 1-1.413.829 1.217 1.217 0 0 1-.866-.389zm1.281-6.009-.005.321c-.012.765-.014 1.548.038 2.343v.019c.319-.694.677-1.573 1.043-2.56l.014-.03a4.09 4.09 0 0 1 1.915-2.246l.1-.055.11-.042a39.53 39.53 0 0 0 2.915-1.175h-.009a24.083 24.083 0 0 0-1.59-.046c-.365 0-.73.006-1.084.01-.313 0-.637.009-.951.009a10.264 10.264 0 0 1-2.772-.281 13.289 13.289 0 0 1 .276 3.733zm-22.8-28.45-.036.008a3.288 3.288 0 0 0-1.477.637l-.016.016a3.256 3.256 0 0 0-.66 1.53 14.213 14.213 0 0 0 1.036 7.971 22.5 22.5 0 0 0 3.682 5.9l.5.578-.049.765a72.5 72.5 0 0 0 .645 7.349l4.189-4.189 1.074.331a30.581 30.581 0 0 0 5.851 1.293c.493.047.949.07 1.4.07.6 0 1.088-.04 1.52-.078.373-.03.759-.064 1.15-.064a5.577 5.577 0 0 1 1.183.12l.074.015a4.29 4.29 0 0 1-.017-.074 7.442 7.442 0 0 1-.055-2.323v-.008a14.308 14.308 0 0 0 .008-2.919 30.534 30.534 0 0 0-1.293-5.849l-.331-1.074 4.191-4.191c-2.276-.28-5.76-.65-7.089-.65-.1 0-.19 0-.26.008l-.765.049-.582-.5c-1.713-1.476-6.285-4.906-11.69-4.906a12.619 12.619 0 0 0-2.187.185zm.287 7.028a3.2 3.2 0 0 1 .036-4.516 3.228 3.228 0 0 1 2.293-.953 3.121 3.121 0 0 1 2.223.915 3.113 3.113 0 0 1 .918 2.253 3.22 3.22 0 0 1-.955 2.263 3.221 3.221 0 0 1-2.291.955 3.122 3.122 0 0 1-2.228-.917zm1.647-2.909a.926.926 0 0 0-.044 1.306.853.853 0 0 0 .612.249.975.975 0 0 0 .692-.291.929.929 0 0 0 .043-1.309.85.85 0 0 0-.612-.249.976.976 0 0 0-.695.294z" transform="translate(5563.351 7587.352)" style="fill:#ff447c"/>
    </g>
</svg>
