<svg xmlns="http://www.w3.org/2000/svg" width="14" height="14" viewBox="0 0 14 14">
    <g data-name="组 7847">
        <g data-name="组 6742">
            <g data-name="组 1061">
                <path data-name="减去 26" d="M2.611 5.584A2.8 2.8 0 0 1 0 2.794V.931A.934.934 0 0 1 .933 0h1.678v.931H.933v1.863A1.857 1.857 0 0 0 2.611 4.65v.934z" transform="translate(0 1.314)" style="fill:#f09f23"/>
                <path data-name="减去 25" d="M0 5.586V4.65a1.858 1.858 0 0 0 1.678-1.856V.931H0V0h1.678a.932.932 0 0 1 .931.931v1.863A2.8 2.8 0 0 1 0 5.586z" transform="translate(11.391 1.314)" style="fill:#f09f23"/>
                <path data-name="联合 234" d="M0 5.466V1.094A1.139 1.139 0 0 1 1.089 0h7.417A1.139 1.139 0 0 1 9.6 1.094v4.372a4.6 4.6 0 0 1-4.8 4.372A4.6 4.6 0 0 1 0 5.466z" transform="translate(2.181 .381)" style="fill:#fed100"/>
                <path data-name="矩形 882" transform="translate(6.514 9.621)" style="fill:#fed100" d="M0 0h.932v2.796H0z"/>
                <path data-name="矩形 883" transform="translate(4.231 12.687)" style="fill:#f09f23" d="M0 0h5.498v.933H0z"/>
                <path data-name="矩形 8740" transform="translate(4.967 11.754)" style="fill:#f09f23" d="M0 0h4.024v.933H0z"/>
            </g>
            <path data-name="路径 13431" d="M3.046-3.586h-.71v-4.185l-.968.85v-.787l.968-.836h.71z" transform="translate(4.498 10.586)" style="fill:#1e2329"/>
        </g>
        <path data-name="矩形 8741" style="fill:none" d="M0 0h14v14H0z"/>
    </g>
</svg>
