<svg xmlns="http://www.w3.org/2000/svg" width="18" height="18" viewBox="0 0 18 18">
  <defs>
    <style>
      .cls-1, .cls-2 {
        fill: #34d2f9;
      }

      .cls-1 {
        opacity: 0;
      }
    </style>
  </defs>
  <g id="组_7876" data-name="组 7876" transform="translate(-26 -1919)">
    <rect id="矩形_7811" data-name="矩形 7811" class="cls-1" width="18" height="18" transform="translate(26 1919)"/>
    <path id="路径_13454" data-name="路径 13454" class="cls-2" d="M1418.325,2512.337h1.888v.79a2.407,2.407,0,0,1,2.46-.98c1.888.14,1.8.689,2.561.739s2.463.1,2.8-.739a17.219,17.219,0,0,1,.914,2.031,10.875,10.875,0,0,0-4.428,10.839c-1.409-.035-5.2,0-5.2,0s-.057-4.823,5.522-9.249c-1.51.574-2.779.7-3.336.265a1.19,1.19,0,0,0-1.766,1.2c-1.135.047-1.987,0-1.987,0Z" transform="translate(-1388.101 -590.563)"/>
    <rect id="矩形_8835" data-name="矩形 8835" class="cls-1" width="18" height="18" transform="translate(26 1919)"/>
    <path id="路径_13455" data-name="路径 13455" class="cls-2" d="M1418.074,2512.249h1.063v.444a1.354,1.354,0,0,1,1.385-.552c1.063.08,1.016.388,1.442.417s1.386.057,1.576-.417a9.7,9.7,0,0,1,.514,1.144,6.121,6.121,0,0,0-2.493,6.1c-.793-.021-2.928,0-2.928,0s-.032-2.716,3.108-5.207c-.85.323-1.564.392-1.878.149a.67.67,0,0,0-.994.673c-.639.026-1.118,0-1.118,0Z" transform="translate(-1391.75 -584.932)"/>
    <path id="路径_13456" data-name="路径 13456" class="cls-2" d="M1418.074,2512.249h1.063v.444a1.354,1.354,0,0,1,1.385-.552c1.063.08,1.016.388,1.442.417s1.386.057,1.576-.417a9.7,9.7,0,0,1,.514,1.144,6.121,6.121,0,0,0-2.493,6.1c-.793-.021-2.928,0-2.928,0s-.032-2.716,3.108-5.207c-.85.323-1.564.392-1.878.149a.67.67,0,0,0-.994.673c-.639.026-1.118,0-1.118,0Z" transform="translate(-1380.054 -584.932)"/>
  </g>
</svg>
