<svg xmlns="http://www.w3.org/2000/svg" width="14" height="14" viewBox="0 0 14 14">
    <g data-name="组 7937">
        <path data-name="路径 5392" d="M11.838 7.217q-.01.11-.026.219a9.59 9.59 0 0 1-1.75 4.374A5.1 5.1 0 0 1 7 13.413a5.036 5.036 0 0 1-3.062-1.6 9.592 9.592 0 0 1-1.75-4.374q-.016-.108-.026-.217.538.055 1.076.1c.091.43.272 1.22.3 1.349a2.137 2.137 0 0 0 .158.492.76.76 0 0 0 .374.383 1.334 1.334 0 0 0 .32.1 2.4 2.4 0 0 0 .593.022 2.494 2.494 0 0 0 .592-.112 1.046 1.046 0 0 0 .394-.219 1.918 1.918 0 0 0 .431-.584 4.149 4.149 0 0 0 .254-.692c.019-.068.038-.137.061-.2a.241.241 0 0 1 .2-.176.427.427 0 0 1 .094 0 .237.237 0 0 1 .192.087.429.429 0 0 1 .054.094c.026.065.052.131.072.2a4.31 4.31 0 0 0 .343.839 1.32 1.32 0 0 0 .486.522 1.546 1.546 0 0 0 .47.177 2.9 2.9 0 0 0 .748.052 1.7 1.7 0 0 0 .448-.075.726.726 0 0 0 .38-.262 1.178 1.178 0 0 0 .15-.287 4.337 4.337 0 0 0 .182-.667c.017-.08.181-.691.269-1.045l.442-.035.6-.059zm.946-2.673-.234.051.073.011c1.07.2 1.349.431 1.375.716v.048c0 .306-.059.5-.9.7-.3.07-.643.131-1.021.188A38.015 38.015 0 0 1 7 6.61a38 38 0 0 1-5.08-.356C1.63 6.2 1.2 6.114.9 6.045c-.84-.192-.9-.4-.9-.674s.219-.545 1.2-.752l.171-.033H1.4A25.833 25.833 0 0 0 7 5.2a25.865 25.865 0 0 0 5.783-.661M8.282 0c1.967.051 2.817 1.469 3.225 3.427a4.743 4.743 0 0 1 .1.532A25.62 25.62 0 0 1 7 4.379a25.728 25.728 0 0 1-4.671-.431l.024-.166.047-.237C2.784 1.6 3.629.156 5.513.011L5.711 0z" transform="translate(0 .294)" style="fill:#707a8a"/>
        <path data-name="矩形 8635" style="fill:none" d="M0 0h14v14H0z"/>
    </g>
</svg>
