<svg xmlns="http://www.w3.org/2000/svg" width="60" height="60" viewBox="0 0 60 60">
    <g data-name="Group 5881">
        <path data-name="Subtraction 4" d="M54 60H6a6.007 6.007 0 0 1-6-6V6a6.007 6.007 0 0 1 6-6h48a6.007 6.007 0 0 1 6 6v48a6.007 6.007 0 0 1-6 6zM5 3a2 2 0 0 0-2 2v50a2 2 0 0 0 2 2h50a2 2 0 0 0 2-2V5a2 2 0 0 0-2-2z" style="fill:#1cb7ea"/>
        <path data-name="Path 5274" d="M19.841 5.2V-.62H8.688v-20.74H2.16V5.2zm18.837-20.74v-5.82H19.095v5.819h6.528V5.2h6.528v-20.74z" transform="translate(9.581 38.081)" style="fill:#1db7eb"/>
    </g>
</svg>
