<svg xmlns="http://www.w3.org/2000/svg" width="141" height="50" viewBox="0 0 141 50">
  <defs>
    <style>
      .cls-1, .cls-2 {
        fill: #a4a4a4;
      }

      .cls-1 {
        opacity: 0;
      }

      .cls-2 {
        stroke: rgba(0,0,0,0);
        stroke-miterlimit: 10;
      }
    </style>
  </defs>
  <g id="提供商logo" transform="translate(0.501)">
    <rect id="Rectangle_8135" data-name="Rectangle 8135" class="cls-1" width="140" height="50"/>
    <g id="Group_5859" data-name="Group 5859" transform="translate(0 5.807)">
      <path id="Union_170" data-name="Union 170" class="cls-2" d="M77.424,38.378a8.975,8.975,0,0,1-5.3-1.7,8.719,8.719,0,0,1-3.2-4.428,9.884,9.884,0,0,1-.321-1.567c-.04-.263-.08-.533-.131-.8,0-.009,0-.018,0-.027H32.539q-13.55,0-27.1,0A5.069,5.069,0,0,1,.105,25.625a5.289,5.289,0,0,1,.16-2.687q.425-1.379.847-2.759l0-.012c.62-2.02,1.26-4.108,1.906-6.157a7.655,7.655,0,0,1,2.894-3.95A8.153,8.153,0,0,1,10.677,8.55H74.557l.011-.026a15.89,15.89,0,0,1,8.612-7.7A12.427,12.427,0,0,1,87.611,0h.008q7.116,0,14.232,0c6.311,0,12.837,0,19.256.008a10.192,10.192,0,0,1,6.578,2.243,8.275,8.275,0,0,1,3.052,6.032,1.184,1.184,0,0,0,.027.159c.007.026.012.052.017.078l.027.028c.555.015,1.111.011,1.667.007a25.818,25.818,0,0,1,2.925.088A5.336,5.336,0,0,1,140,13.53a9.661,9.661,0,0,1-.6,3.3c-.727,2.3-1.426,4.6-2.113,6.914a8.477,8.477,0,0,1-4.853,5.265,8.363,8.363,0,0,1-3.868.859c-1.228-.027-2.456-.021-3.683-.029l-.029.027a16.657,16.657,0,0,1-8.469,7.452,14.137,14.137,0,0,1-5.368,1.064H107.9q-4.257,0-8.512,0H97.941l-8.172,0C84.956,38.386,81.033,38.383,77.424,38.378Zm31.584-3.537c.326,0,.658.012.979.023l.043,0,.058,0c.317.012.711.028,1.091.028a7.994,7.994,0,0,0,1.386-.1,13.184,13.184,0,0,0,6.118-2.64,11.783,11.783,0,0,0,3.708-5.463c1.276-3.729,2.4-7.534,3.492-11.213l.118-.4,0-.008c.4-1.337.806-2.719,1.219-4.08a6.293,6.293,0,0,0,.149-3.344,5.317,5.317,0,0,0-5.1-4.1c-.49-.019-1.028-.027-1.695-.027-.476,0-.977,0-1.38.008h-.025c-.393,0-.836.008-1.276.008h-.129V3.511l-1.012,0h-.192l-1.073,0c-.495,0-.912,0-1.316.006a11.578,11.578,0,0,0-10.76,8.007c-.262.85-.527,1.693-.776,2.484l0,.012c-.509,1.62-1.085,3.456-1.608,5.236-.3,1.009-.635,2.03-.933,2.931a45.66,45.66,0,0,0-1.666,5.926,5.453,5.453,0,0,0,5.436,6.725c.608.014,1.239.021,1.988.021.492,0,1.008,0,1.462-.006h.211l.265,0c.39,0,.794-.005,1.189-.005ZM87.884,3.54a10.971,10.971,0,0,0-6.3,2.193,10.828,10.828,0,0,0-3.972,5.326c-1.444,4.518-2.885,9.1-4.278,13.535l-.359,1.142,0,.007a12.072,12.072,0,0,0-.764,3.883,5.339,5.339,0,0,0,1.518,3.6,5.212,5.212,0,0,0,3.559,1.612c1.092.04,2.276.059,3.726.059.686,0,1.383-.005,2.058-.009l.345,0c.765-.005,1.557-.011,2.337-.011h.537a4.972,4.972,0,0,0,1.036-.079,11.175,11.175,0,0,0,8.6-7.5c.84-2.328,1.556-4.743,2.248-7.078l0-.012c.359-1.209.73-2.46,1.113-3.683.065-.205.071-.321.021-.389s-.176-.088-.367-.088h-.01c-1.9,0-3.578.005-5.126.005-1.938,0-3.707,0-5.408-.008a.493.493,0,0,0-.554.407l-.259.822c-.48,1.523-.977,3.1-1.5,4.639-.075.219-.083.359-.026.438s.2.1.391.1h.061c.15,0,.314,0,.513,0h1.046c.344,0,.623,0,.877-.009H89c.2,0,.308.034.364.11s.054.21-.014.422c-.417,1.284-.788,2.445-1.116,3.638-.112.4-.311.479-.663.479h-.021c-1-.006-2.174-.013-3.361-.013-1.1,0-2.1.006-3.031.017h-.032c-.25,0-.383-.036-.444-.119-.073-.1-.04-.275.034-.506,1.553-4.912,3.087-9.82,4.559-14.585a.69.69,0,0,1,.8-.572h.011c2.389.008,4.811.009,7.155.01s4.766,0,7.155.01a.617.617,0,0,0,.712-.525c.638-2.058,1.34-4.239,2.144-6.669.086-.26.1-.4.034-.488s-.2-.12-.449-.12H102.8c-1.1.01-2.275.014-3.821.014H97.147l-1.513,0h-.626q-1.082,0-2.163,0h-.017q-1.09,0-2.181,0C89.583,3.53,88.7,3.533,87.884,3.54ZM22.318,13.245C21.318,16.5,20,20.8,18.629,25.161c-.068.216-.075.327-.025.394s.144.089.338.089h.029c.563-.007,1.181-.01,1.944-.01h1.205l1.173,0h1.182l1.144,0c.76,0,1.375,0,1.936.009h.025A.532.532,0,0,0,28.2,25.2c.531-1.773,1.111-3.619,1.723-5.486.068-.205.073-.336.018-.413s-.159-.1-.365-.1h-.059c-.451.01-.818.015-1.155.015-.373,0-.712-.006-1.035-.018h-.051a.507.507,0,0,0-.551.44c-.1.345-.215.7-.325,1.032-.136.42-.276.849-.4,1.28a.537.537,0,0,1-.591.466h-.057c-.224-.008-.466-.011-.763-.011l-.528,0h-.2l-.4,0c-.361,0-.542,0-.606-.088s-.011-.26.094-.6q.352-1.151.7-2.3l0-.011c.6-1.978,1.223-4.024,1.85-6.031.077-.247.084-.381.024-.462s-.163-.1-.354-.1H25.11c-.354.012-.715.018-1.073.018s-.745-.006-1.118-.019h-.043A.518.518,0,0,0,22.318,13.245Zm24.712,12.4.062,0c.383,0,.516-.2.6-.518.106-.381.227-.765.342-1.137.122-.388.246-.786.356-1.184a.51.51,0,0,1,.542-.451,3.469,3.469,0,0,0,1.8-.67,4.663,4.663,0,0,0,1.955-2.554c.266-.853.532-1.721.791-2.561l0-.012,0-.008c.318-1.032.646-2.1.976-3.15.067-.213.1-.375.024-.475-.055-.074-.165-.11-.346-.11l-.071,0c-.3.013-.622.02-.978.02-.4,0-.809-.009-1.152-.017H51.9a.5.5,0,0,0-.557.436c-.321,1.124-.673,2.259-1.012,3.357l0,.01c-.107.345-.214.692-.32,1.037-.476,1.555-.476,1.555-2.072,1.555-.112,0-.224,0-.335,0s-.224,0-.335,0c-.165,0-.3,0-.425.014-.049,0-.092.006-.132.006-.154,0-.248-.03-.3-.1-.059-.08-.052-.216.023-.454.322-1.011.633-2.043.934-3.042l0-.008c.231-.765.469-1.557.711-2.333.057-.182.08-.31.024-.386-.045-.06-.139-.087-.3-.087h-.033c-.35.008-.712.012-1.11.012-.378,0-.779,0-1.265-.011h-.02a.419.419,0,0,0-.461.344c-.209.7-.427,1.4-.638,2.089l-.01.035c-.423,1.372-.86,2.789-1.252,4.2a2.256,2.256,0,0,0,.178,1.8,2.46,2.46,0,0,0,1.648,1.077c.185.041.289.1.334.18s.039.207-.031.4c-.135.385-.253.783-.367,1.169-.1.338-.2.687-.319,1.027-.065.191-.07.315-.016.39s.156.1.343.1h.049c.353-.009.768-.019,1.187-.019C46.391,25.62,46.719,25.627,47.03,25.642Zm12.63,0h.058c.372,0,.5-.181.6-.513.409-1.363.844-2.743,1.267-4.077.143-.455.287-.905.428-1.357.01-.033.019-.067.028-.1.052-.193.1-.375.392-.375h.012c.357.005.746.008,1.226.008l.771,0h.845c-.013.057-.022.1-.029.136-.012.058-.02.091-.031.126l-.314,1.031-.049.162c-.44,1.45-.9,2.95-1.356,4.425-.07.224-.075.353-.017.431s.161.1.339.1h.064c.323-.012.67-.018,1.059-.018.456,0,.933.008,1.316.015h.018a.375.375,0,0,0,.423-.3c.209-.7.429-1.413.641-2.1.451-1.458.917-2.963,1.308-4.461a2.162,2.162,0,0,0-.316-1.893,2.389,2.389,0,0,0-1.9-.873c-.567-.01-1.161-.015-1.766-.015-.469,0-.96,0-1.461.009a4.6,4.6,0,0,0-4.235,3.024c-.4,1.218-.774,2.469-1.134,3.678l0,.008c-.245.822-.5,1.672-.76,2.511-.053.169-.057.271-.012.332s.152.079.3.079h.031l.393,0h.012c.284,0,.576-.006.866-.006C59.055,25.622,59.367,25.627,59.661,25.64ZM37.269,21.767c.078.11.028.3-.038.494-.16.463-.307.937-.45,1.4l0,.005,0,.006,0,.011c-.132.425-.268.862-.415,1.291-.071.211-.125.425-.04.545.06.082.183.122.376.122l.1,0h.012c.3-.02.614-.029.967-.029.325,0,.685.009,1.1.027h.061c.341,0,.5-.133.607-.51.236-.829.5-1.661.749-2.467v-.008c.128-.407.233-.743.328-1.056q.166-.541.334-1.081l.16-.516.01-.033,0-.009c.359-1.157.8-2.6,1.209-3.97a2.548,2.548,0,0,0-.246-2.26,2.489,2.489,0,0,0-2.042-.894c-.161,0-.346,0-.584,0H37.574c-.188,0-.375,0-.563,0a4.744,4.744,0,0,0-2.655.862A4.369,4.369,0,0,0,32.692,15.9c-.619,1.923-1.216,3.887-1.793,5.787l0,.008-.038.123c-.34,1.123-.675,2.223-1.018,3.334-.059.19-.062.307-.009.379s.151.1.318.1h.03c.365-.006.795-.013,1.214-.013.38,0,.718.006,1.034.018h.05c.358,0,.481-.181.572-.492.165-.557.344-1.117.519-1.659l.006-.018.026-.08c.131-.407.267-.828.394-1.245a.556.556,0,0,1,.591-.482h.047c.394.016.778.024,1.139.024s.715-.008,1.051-.024l.084,0C37.1,21.654,37.214,21.69,37.269,21.767ZM9.952,25.633h.059c.386,0,.525-.205.616-.513.1-.334.2-.668.314-1.008l.022-.07c.129-.4.263-.821.375-1.236a.506.506,0,0,1,.566-.441h.032c.119,0,.255,0,.429,0,.2,0,.393,0,.59,0h.131l.155,0c.155,0,.308,0,.459,0,.324,0,.594.006.85.018.047,0,.1,0,.155,0a4.242,4.242,0,0,0,2.5-.907,4.557,4.557,0,0,0,1.57-2.041c.45-1.288.825-2.5,1.146-3.7a2.315,2.315,0,0,0-.306-2.027,2.39,2.39,0,0,0-1.921-.876c-.338-.006-.688-.009-1.1-.009-.293,0-.586,0-.879,0h-.042l-.548,0-.352,0H13.08c-.587,0-1.043,0-1.475,0h-.013a.436.436,0,0,0-.508.358C10,16.766,8.825,20.572,7.4,25.157c-.055.179-.056.295,0,.367s.157.1.341.1h.022l.147,0h.006l.141,0h.019l.131,0c.256,0,.52-.007.779-.007C9.346,25.611,9.653,25.619,9.952,25.633ZM56.3,13.208l-.2.672c-.221.748-.448,1.522-.7,2.276-.055.169-.06.271-.015.333s.132.083.308.083h.021c.407-.005.846-.007,1.34-.007.517,0,1.03,0,1.512.005h.02c.211,0,.378-.019.451-.264.252-.836.5-1.653.77-2.519l.03-.1.255-.831H58.223c-.607,0-1.076,0-1.52-.006h-.008C56.425,12.852,56.353,13.02,56.3,13.208ZM113.8,27.087c-.394-.006-.844-.008-1.458-.008h-.956l-.932,0h-3.231c-.345,0-.518,0-.58-.084s-.007-.257.092-.571q1.209-3.842,2.419-7.685L110.02,16l.686-2.177c.053-.17.108-.337.162-.506l.007-.021.018-.057.013-.042c.152-.475.308-.962.446-1.448a.5.5,0,0,1,.569-.445h.014c1.129.008,2.291.013,3.456.013s2.271-.005,3.3-.013h.018c.2,0,.317.031.37.1s.037.22-.027.429c-1.761,5.624-3.222,10.33-4.6,14.81a.533.533,0,0,1-.618.442ZM12.612,19.1c-.141-.18.023-.6.183-1.012.062-.163.121-.314.163-.452s.079-.3.114-.455l0-.014a2,2,0,0,1,.453-1.078.847.847,0,0,1,.581-.169,4.793,4.793,0,0,1,.481.035h.017a4.687,4.687,0,0,0,.486.035h.081c.058,0,.122-.005.219-.005h.2l.192,0h.273c.329,0,.49.008.544.081s.011.185-.056.4l-.006.02c-.029.093-.066.21-.1.346-.09.338-.2.677-.3,1l-.017.053-.006.018,0,.006c-.084.268-.172.546-.251.824-.1.357-.26.5-.548.5a.926.926,0,0,1-.123-.008,3.334,3.334,0,0,0-.4-.021c-.1,0-.2,0-.306.005h-.062c-.107,0-.229.006-.355.006a1.045,1.045,0,0,0-.128-.008,3.293,3.293,0,0,0-.382.032l-.019,0a3.645,3.645,0,0,1-.417.033A.593.593,0,0,1,12.612,19.1Zm25.032.12c-.123-.011-.256-.016-.419-.016-.1,0-.211,0-.331.005-.1,0-.227,0-.342,0l-.365,0c-.126,0-.249,0-.372,0-.187,0-.338,0-.477.01H35.28c-.136,0-.219-.026-.26-.082s-.042-.169.017-.349c.262-.8.51-1.614.737-2.429.08-.287.21-.393.48-.393h.021c.423.008.843.012,1.249.012s.8,0,1.18-.012h.036c.155,0,.244.026.286.085s.039.163-.019.337c-.314.935-.538,1.665-.73,2.367-.091.337-.241.469-.532.469C37.71,19.226,37.68,19.225,37.644,19.222ZM132.377,3.47a2.639,2.639,0,1,1,2.639,2.64A2.639,2.639,0,0,1,132.377,3.47Zm.447,0a2.192,2.192,0,1,0,2.192-2.191A2.192,2.192,0,0,0,132.824,3.47ZM135.6,4.725a.047.047,0,0,1-.043-.026l-.439-.938h-.523v.918a.047.047,0,0,1-.047.047h-.321a.047.047,0,0,1-.047-.047V2.263a.048.048,0,0,1,.047-.048h.918a.755.755,0,0,1,.849.772.716.716,0,0,1-.462.7l.476.967a.047.047,0,0,1-.021.063.079.079,0,0,1-.021,0Zm-1-1.3h.481c.312,0,.488-.15.488-.428a.422.422,0,0,0-.477-.444h-.492Z" transform="translate(0 0)"/>
    </g>
  </g>
</svg>
