<svg xmlns="http://www.w3.org/2000/svg" width="140" height="54.659" viewBox="0 0 140 54.659">
  <defs>
    <style>
      .cls-1, .cls-2 {
        fill: #a4a4a4;
      }

      .cls-1 {
        opacity: 0;
      }

      .cls-2 {
        stroke: rgba(0,0,0,0);
        stroke-miterlimit: 10;
      }
    </style>
  </defs>
  <g id="提供商logo" transform="translate(0 1.403)">
    <rect id="Rectangle_8135" data-name="Rectangle 8135" class="cls-1" width="140" height="50" transform="translate(0 0)"/>
    <g id="Group_5858" data-name="Group 5858" transform="translate(17.499)">
      <path id="Union_171" data-name="Union 171" class="cls-2" d="M12.942,42.9c.863-1.84,3.739-1.813,4.711-1.788.115,0,.2.006.259.006h.1a6.191,6.191,0,0,0,5.22-2.159,16.17,16.17,0,0,0,2.785.276,17.645,17.645,0,0,1-2.51,2.861c-.765.653-2.422,3.74,1.582,6.752-2.159-.112-5.736-3.112-4.142-5.923-2.912-.5-6.375.351-6.676,2.836a9.254,9.254,0,0,0,.5,4.242C12.34,46.625,11.975,44.956,12.942,42.9ZM57.5,45.554l-.33-2.073-.647,2.073h-.508l-.64-2.073-.333,2.073h-.566L55,42.269h.566l.7,2.292.716-2.292h.558l.512,3.286Zm.841,0V42.269H60v.611H58.918v.59H60v.607H58.918v.863H60v.61Zm-4.633,0-.236-.675H52.245L52,45.55H51.4l1.16-3.281h.582L54.3,45.55Zm-1.25-1.286h.8l-.4-1.124ZM48.709,45.34a1.515,1.515,0,0,1-.6-.6,1.7,1.7,0,0,1-.22-.847,1.564,1.564,0,0,1,.407-1.078,1.612,1.612,0,0,1,1.266-.546,1.915,1.915,0,0,1,.76.151,1.684,1.684,0,0,1,.587.439l-.419.411a1.231,1.231,0,0,0-.924-.419,1.064,1.064,0,0,0-.773.305,1,1,0,0,0-.314.745,1.026,1.026,0,0,0,.324.766,1.1,1.1,0,0,0,.8.313.971.971,0,0,0,.521-.131.894.894,0,0,0,.338-.4h-.9v-.557h1.568l0,.131a1.525,1.525,0,0,1-.211.777,1.492,1.492,0,0,1-.548.561,1.559,1.559,0,0,1-.791.193A1.771,1.771,0,0,1,48.709,45.34Zm-4.555.21V42.269h.57v2.687h.831v.594Zm-.976,0-.236-.675H41.717l-.248.675h-.594l1.16-3.281h.582l1.156,3.281Zm-1.249-1.286h.8l-.4-1.124Zm-2.58,1.286V42.883h-.581v-.615h1.811v.615h-.594V45.55Zm-1.472,0L36.538,43.4V45.55h-.594V42.269h.566L37.85,44.43V42.269h.6V45.55Zm-4,0V42.269h1.66v.611H34.46v.59h1.083v.607H34.46v.863h1.083v.61Zm-1.114,0V42.269h.571V45.55Zm-1.081,0-.733-1.392H30.9V45.55h-.627V42.269h.66a2.232,2.232,0,0,1,.778.1.784.784,0,0,1,.373.321,1,1,0,0,1,.14.535.906.906,0,0,1-.157.542.979.979,0,0,1-.466.329l.773,1.457Zm-.789-2h.191a.761.761,0,0,0,.413-.079.294.294,0,0,0,.112-.258.311.311,0,0,0-.205-.3,1.1,1.1,0,0,0-.34-.035H30.9ZM27.15,45.064a1.644,1.644,0,0,1-.25-1.979,1.657,1.657,0,0,1,1.427-.816,1.57,1.57,0,0,1,1.152.481,1.659,1.659,0,0,1,.006,2.329,1.662,1.662,0,0,1-2.335-.014Zm.433-1.906a1.058,1.058,0,0,0-.3.772,1.01,1.01,0,0,0,.374.826,1.032,1.032,0,0,0,.672.24.977.977,0,0,0,.728-.31,1.109,1.109,0,0,0,0-1.522.989.989,0,0,0-.734-.31A1,1,0,0,0,27.583,43.158ZM12.027,37.8c1.267-.552,2.1.063,6.175-.853.552.264,1.782.992,2.71,1.381-.752,1.469-5.264,1.6-7.228,1.782-1.858.175-3.238,2.573-2.786,4.794C8.137,40.865,10.76,38.354,12.027,37.8Zm-2.54-3.021c-.658-.621-2.221-2.5-4.1-2.937-2.3-.452-3.652,1.431-5.384,3.878.131-1.487.847-5.289,3.426-6.287s4.87,1.794,6.08,2.711c1.714,1.3,3.916,1.788,4.951,1.205a12.577,12.577,0,0,0,1.77,1.958c-1.374.941-2.768.15-5.723,1.054S8.4,42.009,8.4,42.009C5.346,38.6,8.678,34.913,9.487,34.781ZM67,40a4.005,4.005,0,0,1-4-4V14a4.005,4.005,0,0,1,4-4h34a4,4,0,0,1,4,4V36a4,4,0,0,1-4,4ZM83.382,26.242a5.58,5.58,0,0,0,.266,1.574,2.969,2.969,0,0,0,.613,1.073,3.337,3.337,0,0,0,.987.8,3.862,3.862,0,0,0,1.342.378,12.486,12.486,0,0,0,1.482.1,5.808,5.808,0,0,0,2.012-.311,3.206,3.206,0,0,0,1.152-.771,3.363,3.363,0,0,0,.806-1.282,4.723,4.723,0,0,0,.257-1.559V20.695H89.432v5.681a1.628,1.628,0,0,1-.422,1.2,1.817,1.817,0,0,1-2.336-.006,1.628,1.628,0,0,1-.422-1.191V20.695H83.382Zm9.671.68a3.618,3.618,0,0,0,1.035,2.323,4.635,4.635,0,0,0,3.288.914,5.621,5.621,0,0,0,2.241-.391A3.115,3.115,0,0,0,101,28.623a2.969,2.969,0,0,0,.5-1.651,2.628,2.628,0,0,0-.372-1.377,2.864,2.864,0,0,0-1.187-1.031,12.134,12.134,0,0,0-2.7-.823,2.338,2.338,0,0,1-.965-.343.517.517,0,0,1-.21-.4.656.656,0,0,1,.254-.517,1.163,1.163,0,0,1,.756-.212,1.265,1.265,0,0,1,1.409,1.2l2.711-.158a2.883,2.883,0,0,0-1.114-2.111,4.7,4.7,0,0,0-2.72-.663,5.879,5.879,0,0,0-2.289.365,2.768,2.768,0,0,0-1.25,1,2.451,2.451,0,0,0-.416,1.355,2.279,2.279,0,0,0,.813,1.8,6.277,6.277,0,0,0,2.7,1.13,3.71,3.71,0,0,1,1.473.539.861.861,0,0,1,.317.648.87.87,0,0,1-.333.67,1.413,1.413,0,0,1-.949.289,1.526,1.526,0,0,1-1.27-.565,2.1,2.1,0,0,1-.362-1.016ZM75.692,30h7.363V27.708H78.567V20.695H75.692ZM66.94,30h2.889V26.547H71.4a3.689,3.689,0,0,0,2.587-.794,2.883,2.883,0,0,0,.847-2.2,2.8,2.8,0,0,0-.778-2.114,3.289,3.289,0,0,0-2.339-.743H66.94ZM38.051,33.672a1.013,1.013,0,0,1-.139-1.148l1.48-2.832a.279.279,0,0,1,.489-.011,8.592,8.592,0,0,0,13.725,1.459H50.443a.22.22,0,0,1-.22-.221V28.1a.91.91,0,0,1,.91-.91H59.62A12.517,12.517,0,0,1,47.992,37.758c-.237.013-.472.02-.706.02A12.435,12.435,0,0,1,38.051,33.672Zm-12.183,4.1c-.1,0-.2-.005-.3-.011A12.474,12.474,0,0,1,26.2,12.829a12.372,12.372,0,0,1,2.523.26A12.686,12.686,0,0,1,35.642,17.1a.728.728,0,0,1,.139.734,18.054,18.054,0,0,1-1.929,3.523,8.582,8.582,0,1,0,.958,4.1h.005c0-.053,0-.105,0-.159a12.4,12.4,0,0,1,1.932-6.657q.116-.181.238-.359l.041-.058a12.465,12.465,0,0,1,22.358,4.026H55.735a.59.59,0,0,1-.543-.354,8.606,8.606,0,0,0-16.03.562q-.132.375-.229.765a8.586,8.586,0,0,0-.255,2.076q0,.329.025.652a8.254,8.254,0,0,1-.545,3.8,12.18,12.18,0,0,1-3.822,4.991A12.4,12.4,0,0,1,26.2,37.777C26.092,37.777,25.98,37.775,25.868,37.772ZM8.432,29.388c-2.424-1.863-4.516-3.727-7.277-.013,0,0,.627-4.619,4.618-4.568,2.385.05,2.686,2.033,6.576,3.866a9.561,9.561,0,0,0,1.1,2.861c-.1.006-.2.009-.291.009C11.345,31.542,9.833,30.466,8.432,29.388Zm-.413-6.4c-1.713-1.525-4.894-.64-6.664,1.807.264-1.355,2.654-5.365,6.212-4.18-.095-5.779-1.243-7.4-7.229-5.948,7.662-5.534,9.028-.3,9.086,2.058.05,2.008-.6,4,2.7,6.6a8.013,8.013,0,0,0-.151,2.523C10.975,25.774,9.733,24.512,8.019,22.988Zm61.81,1.674V22.586h.818a1.526,1.526,0,0,1,1.1.3,1.04,1.04,0,0,1,.292.743.936.936,0,0,1-.337.74,1.822,1.822,0,0,1-1.168.289ZM10.805,16.014c-.264-3.256-1-5.553-5.309-5.007,4.82-2.692,6.965-.377,7.492,1.43s0,2.767.791,5.836A9.462,9.462,0,0,0,12.5,21.1C11.5,20.626,11.068,19.271,10.805,16.014Zm4.311-4.87c-.23-1.894-1.707-3.338-5.622-3.263,2.635-1.431,5.9-1.205,7.178,1.556a17.241,17.241,0,0,0,3.011-3.765c.878-1.758-.678-3.84-3.815-5.673,8.885,1.43,7.078,6.325,4.719,8.032a6.319,6.319,0,0,0-2.911,6.024,6.453,6.453,0,0,0-2.058,1.908C15.09,15.21,15.354,13.108,15.116,11.144Zm15.458,1.1c1.079-1.217,4.794-1.255,7.278-1.581s2.962-2.648,2.611-4.744c2.271,3.088,1.154,5.9-.778,6.953s-2.272.264-5.923.954A6.757,6.757,0,0,0,30.575,12.248ZM23.729,6.689c1.581-2.071.715-4.123-1.393-5.5,3.69,1.392,4.518,2.5,4.594,4.705S24.387,9.607,23.2,11.733a22.587,22.587,0,0,0-3.313,1.13C20.171,10.6,22.147,8.759,23.729,6.689Zm1.863,4.744a27.379,27.379,0,0,0,3.087-3.878c1.374-1.939-.15-4.424-2.221-5.873,3.332.189,5.4,4.273,4.33,5.949a10.889,10.889,0,0,0,4.48-.49C36.6,6.52,38.223,5.39,36.773.364c2.692,2.749,3.012,5.911,1.769,7.53S33.818,9.381,32.9,9.437a5.551,5.551,0,0,0-4.4,2.183A18.2,18.2,0,0,0,25.592,11.433Z"/>
    </g>
  </g>
</svg>
