<svg xmlns="http://www.w3.org/2000/svg" width="140.597" height="50" viewBox="0 0 140.597 50">
  <defs>
    <style>
      .cls-1, .cls-2, .cls-3, .cls-4 {
        fill: #a4a4a4;
      }

      .cls-1 {
        opacity: 0;
      }

      .cls-2 {
        stroke: rgba(0,0,0,0);
        stroke-miterlimit: 10;
      }

      .cls-3 {
        opacity: 0.502;
      }
    </style>
  </defs>
  <g id="提供商logo" transform="translate(0.597)">
    <rect id="Rectangle_8135" data-name="Rectangle 8135" class="cls-1" width="140" height="50" transform="translate(0)"/>
    <g id="Group_5856" data-name="Group 5856" transform="translate(0 2.835)">
      <path id="Subtraction_8" data-name="Subtraction 8" class="cls-2" d="M39.55,38.932H0L6.908.1C6.93.1,27.8.037,36.717.01L40.3,0,35.65,25.878l-.726-1.691-8.7-21.471L3.193,33.5H8.561l6.931-9.24h14l3.6,9.1h1.217l-.072.4,5.314,5.167ZM27.671,19.669H18.906l5.6-7.643,3.159,7.641Z" transform="translate(0 5.296)"/>
      <path id="Path_102" data-name="Path 102" class="cls-3" d="M-568.91,463.708l.968-5.4h-7.389Z" transform="translate(608.41 -419.379)"/>
      <path id="Subtraction_7" data-name="Subtraction 7" class="cls-2" d="M39.433,38.942H0L6.716,0c.062.093,5.827.14,17.139.14C34.315.14,46.066.1,46.562.1h.006L39.433,38.941Zm-13.54-33.4c-.132,0-.267,0-.4.005a17.586,17.586,0,0,0-9.682,3.376,17.977,17.977,0,0,0-6.471,8.5,14.2,14.2,0,0,0,.976,12.266c1.943,3.009,5.217,4.776,9.47,5.111.414.033.834.049,1.247.049a15.361,15.361,0,0,0,6.534-1.465,18.863,18.863,0,0,0,4.749-3.223A21.568,21.568,0,0,0,36.2,25.477l.509-4.74-13.25-.05-.968,4.688H30.9s0,.006-.008.012A12.958,12.958,0,0,1,28.564,27.5a14.278,14.278,0,0,1-6.688,2.617,10.352,10.352,0,0,1-1.164.068,6.93,6.93,0,0,1-5.652-2.6A10.282,10.282,0,0,1,13.1,21.451a10.976,10.976,0,0,1,3.266-7.33,12.168,12.168,0,0,1,7.8-3.983c.272-.019.543-.028.805-.028a8.357,8.357,0,0,1,6.159,2.46,7.454,7.454,0,0,1,1.6,2.46H38.08a14.146,14.146,0,0,0-4.231-6.69A11.929,11.929,0,0,0,25.893,5.545Z" transform="translate(32.985)"/>
      <g id="Group_42" data-name="Group 42" transform="translate(79.085 27.206)">
        <path id="Path_106" data-name="Path 106" class="cls-4" d="M-366.914,415.2l.6-2h5.158l-1.425,4.721a9.468,9.468,0,0,1-2.565,1.281,9.314,9.314,0,0,1-3.057.554,5.249,5.249,0,0,1-3.006-.78,3.267,3.267,0,0,1-1.4-2.231,6.775,6.775,0,0,1,.258-3.157,9.165,9.165,0,0,1,1.769-3.29,8.074,8.074,0,0,1,2.937-2.207,7.306,7.306,0,0,1,3.015-.59,4.473,4.473,0,0,1,3.169.926,3.01,3.01,0,0,1,.825,2.559l-2.511.444a1.759,1.759,0,0,0-.526-1.378,2.22,2.22,0,0,0-1.574-.505,4.314,4.314,0,0,0-2.794.995,5.847,5.847,0,0,0-1.816,2.951,4.058,4.058,0,0,0-.017,3.165,2.274,2.274,0,0,0,2.139,1.055,4.852,4.852,0,0,0,1.6-.295,7.456,7.456,0,0,0,1.514-.715l.454-1.5Z" transform="translate(372.697 -407.502)"/>
        <path id="Path_107" data-name="Path 107" class="cls-4" d="M-318.039,424.5l-1.95-.372a4.923,4.923,0,0,1,1.753-1.843,5.347,5.347,0,0,1,2.7-.6,4.671,4.671,0,0,1,2.155.36,1.467,1.467,0,0,1,.771.913,4.62,4.62,0,0,1-.31,2.033l-.824,2.652a9.9,9.9,0,0,0-.395,1.669,4.107,4.107,0,0,0,.061,1.152h-2.247q-.021-.226-.016-.671,0-.2,0-.267a6.108,6.108,0,0,1-1.5.849,4.216,4.216,0,0,1-1.5.283,2.209,2.209,0,0,1-1.873-.719,1.934,1.934,0,0,1-.215-1.819,3.334,3.334,0,0,1,.739-1.3,3.493,3.493,0,0,1,1.238-.873,9.648,9.648,0,0,1,1.967-.53,15.322,15.322,0,0,0,2.375-.558l.068-.227q.2-.654-.042-.934t-1.136-.279a2,2,0,0,0-1.018.239A2.546,2.546,0,0,0-318.039,424.5Zm2.483,1.843q-.481.145-1.487.348a5.4,5.4,0,0,0-1.357.4,1.405,1.405,0,0,0-.686.8.9.9,0,0,0,.107.825.919.919,0,0,0,.8.347,2.542,2.542,0,0,0,1.294-.4,2.194,2.194,0,0,0,.769-.752,5.491,5.491,0,0,0,.423-1.107Z" transform="translate(333.354 -418.417)"/>
        <path id="Path_108" data-name="Path 108" class="cls-4" d="M-279.723,421.885h2.094l-.354,1.172a4.67,4.67,0,0,1,3.088-1.366,2.337,2.337,0,0,1,1.328.34,1.7,1.7,0,0,1,.684,1.026,6.089,6.089,0,0,1,1.53-1.026,3.645,3.645,0,0,1,1.5-.34,2.52,2.52,0,0,1,1.485.384,1.567,1.567,0,0,1,.638,1.128,4.92,4.92,0,0,1-.3,1.779l-1.656,5.489h-2.272l1.481-4.907a3.612,3.612,0,0,0,.263-1.649.766.766,0,0,0-.823-.485,1.984,1.984,0,0,0-.985.291,2.494,2.494,0,0,0-.863.853,7.629,7.629,0,0,0-.721,1.774l-1.244,4.123h-2.272l1.42-4.7a6.9,6.9,0,0,0,.367-1.617.719.719,0,0,0-.212-.542.948.948,0,0,0-.638-.178,2.089,2.089,0,0,0-1.031.283,2.4,2.4,0,0,0-.849.817,7.538,7.538,0,0,0-.716,1.77l-1.259,4.171h-2.272Z" transform="translate(303.168 -418.417)"/>
        <path id="Path_109" data-name="Path 109" class="cls-4" d="M-214.836,410.48l.634-2.1h2.271l-.634,2.1Zm-2.942,9.749,2.591-8.585h2.272l-2.591,8.585Z" transform="translate(253.523 -408.176)"/>
        <path id="Path_110" data-name="Path 110" class="cls-4" d="M-190.087,430.47h-2.272l1.322-4.381a7.131,7.131,0,0,0,.4-1.8.865.865,0,0,0-.281-.635,1.059,1.059,0,0,0-.72-.226,2.305,2.305,0,0,0-1.157.323,2.516,2.516,0,0,0-.9.857,9.1,9.1,0,0,0-.769,1.973l-1.173,3.888h-2.271l2.591-8.585h2.11l-.381,1.261a4.769,4.769,0,0,1,3.269-1.455,2.859,2.859,0,0,1,1.293.271,1.5,1.5,0,0,1,.733.691,1.948,1.948,0,0,1,.157.954,7.511,7.511,0,0,1-.336,1.528Z" transform="translate(238.241 -418.417)"/>
        <path id="Path_111" data-name="Path 111" class="cls-4" d="M-156.354,431.036l2.5.316a.681.681,0,0,0,.111.622,1.374,1.374,0,0,0,.945.242,3.146,3.146,0,0,0,1.414-.267,1.7,1.7,0,0,0,.626-.574,4.288,4.288,0,0,0,.42-1.043l.378-1.253a4.3,4.3,0,0,1-2.99,1.39,2.228,2.228,0,0,1-2.3-1.463,4.444,4.444,0,0,1,.076-2.878,6.608,6.608,0,0,1,2.034-3.3,4.535,4.535,0,0,1,2.927-1.14,2.212,2.212,0,0,1,2.205,1.4l.364-1.2h2.126l-2.325,7.7a9.57,9.57,0,0,1-.936,2.272,4.311,4.311,0,0,1-1.06,1.18,4.486,4.486,0,0,1-1.411.671,7.142,7.142,0,0,1-1.985.242q-2.183,0-2.87-.748a1.835,1.835,0,0,1-.341-1.9Q-156.411,431.2-156.354,431.036ZM-152.8,426a2.77,2.77,0,0,0-.074,2,1.165,1.165,0,0,0,1.114.635,2.462,2.462,0,0,0,1.6-.651,3.935,3.935,0,0,0,1.156-1.928,2.665,2.665,0,0,0,.048-1.98,1.252,1.252,0,0,0-1.2-.647,2.294,2.294,0,0,0-1.537.635A4.084,4.084,0,0,0-152.8,426Z" transform="translate(206.431 -418.417)"/>
      </g>
      <g id="Group_43" data-name="Group 43" transform="translate(81.053 13.869)">
        <path id="Path_112" data-name="Path 112" class="cls-4" d="M-353.346,359.159h-2.578l-.063-2.666h-4.691l-1.93,2.666h-2.513l8.8-11.735h2.506Zm-2.688-4.643-.046-4.355-3.156,4.355Z" transform="translate(365.121 -347.424)"/>
        <path id="Path_113" data-name="Path 113" class="cls-4" d="M-308.412,366.876l2.382-.344a1.159,1.159,0,0,0,.225,1,1.478,1.478,0,0,0,1.11.34,2.835,2.835,0,0,0,1.429-.32,1.138,1.138,0,0,0,.513-.6.487.487,0,0,0-.007-.424,1.214,1.214,0,0,0-.646-.3,8.654,8.654,0,0,1-3.054-1.1,1.627,1.627,0,0,1-.318-1.913,3.743,3.743,0,0,1,1.542-1.857,5.329,5.329,0,0,1,2.977-.752,3.7,3.7,0,0,1,2.389.568,1.923,1.923,0,0,1,.562,1.681l-2.263.392a.876.876,0,0,0-.242-.76,1.452,1.452,0,0,0-.989-.264,3,3,0,0,0-1.362.248.859.859,0,0,0-.421.456.365.365,0,0,0,.077.408,6.084,6.084,0,0,0,1.873.632,4.215,4.215,0,0,1,2.148,1,1.65,1.65,0,0,1,.1,1.673,4.092,4.092,0,0,1-1.7,2.009,5.7,5.7,0,0,1-3.193.841,3.61,3.61,0,0,1-2.5-.7A2.16,2.16,0,0,1-308.412,366.876Z" transform="translate(321.51 -357.566)"/>
        <path id="Path_114" data-name="Path 114" class="cls-4" d="M-265.713,349.505l.751-2.081h2.249l-.751,2.081Zm-3.483,9.654,3.067-8.5h2.249l-3.067,8.5Z" transform="translate(291.329 -347.424)"/>
        <path id="Path_115" data-name="Path 115" class="cls-4" d="M-245.4,363.394l-1.908-.368a5.312,5.312,0,0,1,1.843-1.825,5.494,5.494,0,0,1,2.711-.592,4.488,4.488,0,0,1,2.113.356,1.341,1.341,0,0,1,.71.9,4.7,4.7,0,0,1-.426,2.013l-.971,2.625a10.231,10.231,0,0,0-.488,1.653,4.063,4.063,0,0,0-.007,1.141h-2.225q-.007-.224.024-.665c.011-.133.016-.221.015-.264a6.514,6.514,0,0,1-1.536.84,4.3,4.3,0,0,1-1.5.28,2.065,2.065,0,0,1-1.812-.713,1.885,1.885,0,0,1-.107-1.8,3.567,3.567,0,0,1,.808-1.284,3.748,3.748,0,0,1,1.276-.865,9.991,9.991,0,0,1,1.978-.524,15.78,15.78,0,0,0,2.385-.552l.081-.224q.234-.648.013-.924t-1.109-.276a2.062,2.062,0,0,0-1.022.236A2.755,2.755,0,0,0-245.4,363.394Zm2.351,1.825q-.484.144-1.493.344a5.622,5.622,0,0,0-1.366.392,1.512,1.512,0,0,0-.726.792.872.872,0,0,0,.057.817.857.857,0,0,0,.772.344,2.641,2.641,0,0,0,1.305-.4,2.369,2.369,0,0,0,.8-.744,5.788,5.788,0,0,0,.484-1.1Z" transform="translate(275.904 -357.566)"/>
      </g>
    </g>
  </g>
</svg>
