<svg id="提供商logo" xmlns="http://www.w3.org/2000/svg" xmlns:xlink="http://www.w3.org/1999/xlink" width="140" height="50" viewBox="0 0 140 50">
  <defs>
    <style>
      .cls-1, .cls-2 {
        fill: #a4a4a4;
      }

      .cls-2 {
        opacity: 0;
      }

      .cls-3 {
        clip-path: url(#clip-path);
      }
    </style>
    <clipPath id="clip-path">
      <rect id="Rectangle_7761" data-name="Rectangle 7761" class="cls-1" width="140" height="30.809"/>
    </clipPath>
  </defs>
  <rect id="Rectangle_8135" data-name="Rectangle 8135" class="cls-2" width="140" height="50"/>
  <g id="Group_5852" data-name="Group 5852" transform="translate(0 10)">
    <g id="Group_5518" data-name="Group 5518" class="cls-3">
      <path id="Path_5277" data-name="Path 5277" class="cls-1" d="M32.087,11.318c-.022-.054-.035-.106-.058-.16-1.335-3.272-6.4-4.263-12.251-2.768l-.959-.6a18.059,18.059,0,0,1,8.145-1.713c3.583.272,5.334,2.311,5.122,5.239m-5.2,6.872c-3.748,4.772-10.521,8.075-15.13,7.733s-5.3-4.5-1.55-9.268c.074-.1.156-.195.234-.293l.012,5.983a1.691,1.691,0,0,0,2.493,1.631l13.78-8.4a1.7,1.7,0,0,0-.051-2.861L21.09,9.5a11.975,11.975,0,0,1,4.247-.573c4.605.348,5.3,4.495,1.553,9.267M9.363,28.492c-4.23-.318-5.916-3.106-4.816-6.9a4.522,4.522,0,0,0,.328,1.8c1.653,4.063,9.073,4.614,16.571,1.241.155-.069.307-.145.458-.212-4.209,2.717-8.9,4.341-12.541,4.071M14.236,7.247l9.25,5.829a1.163,1.163,0,0,1,.038,1.951l-9.345,5.7a1.152,1.152,0,0,1-1.695-1.118L12.441,8.293a1.194,1.194,0,0,1,1.8-1.046m21.413,2.1c-1.938-4.764-9.991-5.813-18.7-2.731L13.079,4.193a1.764,1.764,0,0,0-2.646,1.544l0,3.934C2.926,14.171-1.429,20.648.426,25.207c2.149,5.266,11.772,5.989,21.5,1.609s15.871-12.2,13.726-17.47" transform="translate(0 -0.085)"/>
      <path id="Path_5278" data-name="Path 5278" class="cls-1" d="M44.122,16.3l-.84,3.093c-.125.472-.222.9-.3,1.27a4.524,4.524,0,0,0-.113.839,1.059,1.059,0,0,0,.274.775,1.046,1.046,0,0,0,.763.282,2.222,2.222,0,0,0,1.537-.834,9.229,9.229,0,0,0,1.528-2.4,29.82,29.82,0,0,0,1.446-3.964,12.487,12.487,0,0,0,.548-3.05,2.251,2.251,0,0,0-.323-1.272.956.956,0,0,0-.808-.485,2.528,2.528,0,0,0-2.011,1.405,15.784,15.784,0,0,0-1.7,4.337M38.843,9.111c1.306-.1,2.543-.24,3.73-.392s2.321-.331,3.421-.546l-.925,3.317a11.616,11.616,0,0,1,2.648-2.8A4.34,4.34,0,0,1,50.311,7.8a3.559,3.559,0,0,1,2.852,1.163,4.954,4.954,0,0,1,1,3.332,11.759,11.759,0,0,1-.687,3.831,14.973,14.973,0,0,1-1.927,3.74,10.845,10.845,0,0,1-3.044,3.017A6.413,6.413,0,0,1,45.069,23.9a4.318,4.318,0,0,1-1.408-.219,4.037,4.037,0,0,1-1.182-.65l-.947,3.6a3.714,3.714,0,0,0-.141.672,4.1,4.1,0,0,0-.046.666,1.041,1.041,0,0,0,.38.92,3.528,3.528,0,0,0,1.557.33v.84H34.452v-.877a.7.7,0,0,0,.129-.015.659.659,0,0,1,.126-.02,1.62,1.62,0,0,0,1.232-.429,5.822,5.822,0,0,0,.853-2.253l3.514-14.315c.062-.228.109-.462.146-.683a3.516,3.516,0,0,0,.057-.508.872.872,0,0,0-.348-.8,2.537,2.537,0,0,0-1.318-.235Z" transform="translate(-0.744 -0.168)"/>
      <path id="Path_5279" data-name="Path 5279" class="cls-1" d="M55.437,1.046C56.757.939,58.017.8,59.242.62S61.614.247,62.7,0L57.849,19.194c-.031.106-.068.232-.11.4a2.274,2.274,0,0,0-.087.492.915.915,0,0,0,.13.529.461.461,0,0,0,.4.192.906.906,0,0,0,.6-.367,17,17,0,0,0,1.308-1.906l.774.587a13.963,13.963,0,0,1-2.793,3.548,4.261,4.261,0,0,1-2.755,1.1,2.592,2.592,0,0,1-1.96-.71,2.834,2.834,0,0,1-.686-2.048,21.9,21.9,0,0,1,.7-3.465l.047-.19L56.633,4.859c.028-.114.068-.286.121-.51a8.561,8.561,0,0,0,.295-1.58.783.783,0,0,0-.325-.695,1.8,1.8,0,0,0-1.011-.227h-.277Z" transform="translate(-1.137 0)"/>
      <path id="Path_5280" data-name="Path 5280" class="cls-1" d="M70.77,11.155a1.807,1.807,0,0,0-.3-1.1.928.928,0,0,0-.785-.405,1.846,1.846,0,0,0-1.337.681,11.183,11.183,0,0,0-1.488,2.29,22.044,22.044,0,0,0-1.55,3.734,10.881,10.881,0,0,0-.571,3.14,2.163,2.163,0,0,0,.314,1.24,1.006,1.006,0,0,0,.849.437,2.233,2.233,0,0,0,1.6-.942,10.188,10.188,0,0,0,1.56-2.657A30.594,30.594,0,0,0,70.3,13.88a11.866,11.866,0,0,0,.467-2.725m5.85-2.817-2.587,9.495v.034a18.226,18.226,0,0,0-.592,2.557.988.988,0,0,0,.13.547.374.374,0,0,0,.344.2c.419,0,.966-.5,1.621-1.515.2-.289.351-.517.456-.676l.751.592A11.6,11.6,0,0,1,74.2,22.851,4.309,4.309,0,0,1,71.427,23.9a2.831,2.831,0,0,1-1.876-.544,2,2,0,0,1-.65-1.618,5.839,5.839,0,0,1,.061-.8c.038-.325.106-.745.2-1.257a9.7,9.7,0,0,1-2.553,3.178A4.936,4.936,0,0,1,63.537,23.9a3.573,3.573,0,0,1-2.758-1.091,4.26,4.26,0,0,1-1.015-3,12.377,12.377,0,0,1,.975-4.63,14.656,14.656,0,0,1,2.614-4.282A10.691,10.691,0,0,1,66.045,8.6a5.437,5.437,0,0,1,2.7-.8,2.918,2.918,0,0,1,1.94.6,3.039,3.039,0,0,1,.936,1.836l.476-1.9Z" transform="translate(-1.29 -0.168)"/>
      <path id="Path_5281" data-name="Path 5281" class="cls-1" d="M75.392,9.652V8.776c1.26-.141,2.536-.316,3.836-.512s1.994-.292,2.092-.292c.519,0,1.2,2.284,2.021,6.861.335,1.821.609,3.288.824,4.387q1.471-2.985,2.014-4.35a6.124,6.124,0,0,0,.539-2c0-.333-.3-.737-.905-1.2a2.015,2.015,0,0,1-.91-1.591,2.219,2.219,0,0,1,.634-1.655,2.269,2.269,0,0,1,1.669-.62,2.12,2.12,0,0,1,1.618.62,2.5,2.5,0,0,1,.581,1.749,13.443,13.443,0,0,1-1.341,4.521,63.019,63.019,0,0,1-3.66,7.013,30.686,30.686,0,0,1-4.779,6.5,6.189,6.189,0,0,1-4.141,2.046,3.294,3.294,0,0,1-2.077-.589,1.955,1.955,0,0,1-.755-1.624,2.017,2.017,0,0,1,.655-1.546,2.319,2.319,0,0,1,1.655-.611,3.037,3.037,0,0,1,1.69.624,2.954,2.954,0,0,0,1.205.618c.361,0,.768-.3,1.229-.907a2.879,2.879,0,0,0,.709-1.743,13.879,13.879,0,0,0-.11-1.545c-.07-.627-.184-1.393-.33-2.3-.305-1.951-.614-3.732-.923-5.329s-.6-2.856-.847-3.777a4.108,4.108,0,0,0-.671-1.547A1.46,1.46,0,0,0,75.8,9.617h-.04a2.894,2.894,0,0,1-.371.035" transform="translate(-1.568 -0.168)"/>
      <path id="Path_5282" data-name="Path 5282" class="cls-1" d="M95.908,19.485a14.984,14.984,0,0,1-2.865,3.155,4.218,4.218,0,0,1-2.535,1.1,1.863,1.863,0,0,1-1.457-.6,2.368,2.368,0,0,1-.537-1.624,5.172,5.172,0,0,1,.071-.8,8.962,8.962,0,0,1,.2-.984L91.572,8.858H88.643l.272-.935a6.907,6.907,0,0,0,3.344-1.8,12.953,12.953,0,0,0,2.615-3.87h1l-1.307,5.46h2.676l-.27,1.15H94.214l-2.67,10.5c-.062.239-.109.447-.141.644a4.739,4.739,0,0,0-.043.517,1.2,1.2,0,0,0,.234.8.761.761,0,0,0,.632.277,2.044,2.044,0,0,0,1.247-.63,14.951,14.951,0,0,0,1.836-2.05Z" transform="translate(-1.91 -0.048)"/>
      <path id="Path_5283" data-name="Path 5283" class="cls-1" d="M98.785,16.028a9.784,9.784,0,0,0,5.421-1.756A4.547,4.547,0,0,0,106.4,10.6a1.4,1.4,0,0,0-.35-1.038A1.44,1.44,0,0,0,105,9.228a4.877,4.877,0,0,0-3.626,1.8,12.457,12.457,0,0,0-2.588,5m-.254,1.152a9.1,9.1,0,0,0-.21,1.126,6.434,6.434,0,0,0-.067.972,2.918,2.918,0,0,0,.674,2.085,2.622,2.622,0,0,0,1.964.835,6.531,6.531,0,0,0,2.887-.982,20.3,20.3,0,0,0,3.641-2.618l.708,1.072a19.738,19.738,0,0,1-4.524,3.191,9.332,9.332,0,0,1-4.152,1.035,4.031,4.031,0,0,1-3.1-1.2,4.809,4.809,0,0,1-1.106-3.39,11.5,11.5,0,0,1,.861-4.267A13.043,13.043,0,0,1,98.452,11.2a10.635,10.635,0,0,1,3.158-2.452,8.018,8.018,0,0,1,3.547-.853,4.1,4.1,0,0,1,2.641.781,2.581,2.581,0,0,1,.972,2.132c0,1.629-.949,3.045-2.831,4.235a16.256,16.256,0,0,1-7.409,2.141" transform="translate(-2.055 -0.17)"/>
      <path id="Path_5284" data-name="Path 5284" class="cls-1" d="M119.823,17.4l-.042,2.059a11.276,11.276,0,0,1-3.308,3.328,7.364,7.364,0,0,1-3.917,1.1,4.924,4.924,0,0,1-3.786-1.566A5.777,5.777,0,0,1,107.32,18.2a9.883,9.883,0,0,1,.822-3.841,11.486,11.486,0,0,1,2.276-3.509,9.573,9.573,0,0,1,2.99-2.167,7.89,7.89,0,0,1,3.367-.772,4.605,4.605,0,0,1,2.885.834,2.653,2.653,0,0,1,1.074,2.213,1.973,1.973,0,0,1-.559,1.417,1.745,1.745,0,0,1-1.322.589,1.318,1.318,0,0,1-1.016-.41,1.5,1.5,0,0,1-.387-1.072,2.385,2.385,0,0,1,.313-1.075,2.589,2.589,0,0,0,.3-.76.515.515,0,0,0-.315-.462,1.772,1.772,0,0,0-.863-.177,4.366,4.366,0,0,0-2.276.7,7.01,7.01,0,0,0-2.025,1.934,12.32,12.32,0,0,0-1.633,3.153,10.041,10.041,0,0,0-.564,3.253,4.235,4.235,0,0,0,.915,2.873,3.252,3.252,0,0,0,2.5,1.182,4.654,4.654,0,0,0,2.442-.9,12.309,12.309,0,0,0,3.577-3.8" transform="translate(-2.316 -0.171)"/>
      <path id="Path_5285" data-name="Path 5285" class="cls-1" d="M118.234,23.739l5.478-19.846a2.515,2.515,0,0,0,.067-.377,2.152,2.152,0,0,0,.025-.35.891.891,0,0,0-.26-.733,3.4,3.4,0,0,0-1.482-.188h-1.247l.193-.905a18.6,18.6,0,0,0,2.82-.331,14.884,14.884,0,0,0,2.465-.724h.99l-3.79,13.709a36.208,36.208,0,0,1,5.356-4.614,7.841,7.841,0,0,1,3.886-1.635,1.531,1.531,0,0,1,1.124.364,1.6,1.6,0,0,1,.368,1.141,2.946,2.946,0,0,1-.072.576c-.043.236-.1.494-.172.772l-2.767,9.338a5.863,5.863,0,0,0-.129.6,3.563,3.563,0,0,0-.058.634.447.447,0,0,0,.157.321c.1.091.22.254.351.254a2.6,2.6,0,0,0,1.123-.665,9.878,9.878,0,0,0,1.508-1.508l.564.483a14.154,14.154,0,0,1-2.751,2.712,4.346,4.346,0,0,1-2.445.942,1.74,1.74,0,0,1-1.151-.355,1.191,1.191,0,0,1-.421-.975,2.49,2.49,0,0,1,.044-.472,3.927,3.927,0,0,1,.15-.548L131,11.7c.052-.211.086-.373.1-.482a1.853,1.853,0,0,0,.023-.3.73.73,0,0,0-.21-.567.86.86,0,0,0-.595-.187,3.83,3.83,0,0,0-1.789.763,22.121,22.121,0,0,0-2.738,2.183,15.2,15.2,0,0,0-2.05,2.134,6.211,6.211,0,0,0-.943,1.835l-1.885,6.661c-.215-.032-.976-.058-1.2-.071s.1-.016-.126-.016-.462,0-.685.016-.441.039-.672.071" transform="translate(-2.552 -0.006)"/>
      <path id="Path_5286" data-name="Path 5286" class="cls-1" d="M84.965,29.766v.258a1.173,1.173,0,0,0,.05.371c.078.313.333.47.767.47a1.327,1.327,0,0,0,.439-.068.631.631,0,0,0,.455-.661.641.641,0,0,0-.292-.556,4.272,4.272,0,0,0-.491-.267l-.572-.259a3.247,3.247,0,0,1-.566-.311,1.085,1.085,0,0,1-.475-.947,1.015,1.015,0,0,1,.531-.959,2.289,2.289,0,0,1,1.07-.219,1.825,1.825,0,0,1,1.2.315,1.291,1.291,0,0,1,.293.992v.093h-.787v-.111l-.016-.241q-.072-.54-.7-.526-.794,0-.8.636a.757.757,0,0,0,.5.66c.207.109.438.214.7.324a4.607,4.607,0,0,1,.634.307,1.147,1.147,0,0,1,.57,1.048q-.012,1.267-1.682,1.269a2.024,2.024,0,0,1-1.1-.236,1.014,1.014,0,0,1-.49-.825l-.01-.372v-.185Z" transform="translate(-1.817 -0.574)"/>
      <path id="Path_5287" data-name="Path 5287" class="cls-1" d="M88.074,28.179a2.578,2.578,0,0,1,.106-.836,1.023,1.023,0,0,1,.695-.6,2.6,2.6,0,0,1,.836-.13,2.628,2.628,0,0,1,.834.13,1.03,1.03,0,0,1,.69.6,2.621,2.621,0,0,1,.11.836v1.554a4.847,4.847,0,0,1-.047.726c-.087.612-.61.922-1.565.925a1.753,1.753,0,0,1-1.393-.431,1.966,1.966,0,0,1-.264-1.22Zm.788,1.549a2.24,2.24,0,0,0,.085.759.6.6,0,0,0,.3.277,1.12,1.12,0,0,0,.461.1.994.994,0,0,0,.411-.084.6.6,0,0,0,.412-.531c.013-.145.02-.317.023-.521V28.175a1.481,1.481,0,0,0-.113-.709.766.766,0,0,0-.733-.328,1.069,1.069,0,0,0-.4.069.6.6,0,0,0-.43.539,2.857,2.857,0,0,0-.02.429Z" transform="translate(-1.901 -0.574)"/>
      <path id="Path_5288" data-name="Path 5288" class="cls-1" d="M92.143,26.684h.786v3.093l.008.409q.041.675.785.679t.817-.636c.018-.149.027-.3.03-.452V26.684h.787v3.143c0,.257-.013.455-.027.6a.864.864,0,0,1-.262.54,2.315,2.315,0,0,1-2.648.008.889.889,0,0,1-.255-.548c-.013-.125-.02-.323-.02-.6Z" transform="translate(-1.989 -0.576)"/>
      <path id="Path_5289" data-name="Path 5289" class="cls-1" d="M97.492,26.685h.47a3.122,3.122,0,0,1,.5.041.994.994,0,0,1,.883,1.113,1.172,1.172,0,0,1-.229.779,1.428,1.428,0,0,1-.867.342v0a1.921,1.921,0,0,1,.575.121.572.572,0,0,1,.316.4,2.549,2.549,0,0,1,.051.429l.034.546a2.856,2.856,0,0,0,.065.489,2.583,2.583,0,0,0,.117.372h-.82l-.08-.3a1.668,1.668,0,0,1-.043-.32l-.031-.416-.026-.434a.611.611,0,0,0-.479-.6,2.084,2.084,0,0,0-.41-.037h-.544v2.1h-.791V26.685Zm-.52.521v1.487h.562a3.1,3.1,0,0,0,.435-.028.664.664,0,0,0,.5-.292,1.1,1.1,0,0,0,.087-.514.562.562,0,0,0-.263-.536,1.576,1.576,0,0,0-.716-.117Z" transform="translate(-2.076 -0.576)"/>
      <path id="Path_5290" data-name="Path 5290" class="cls-1" d="M102.389,27.906l0-.215c-.02-.371-.239-.555-.661-.552-.376,0-.619.1-.733.293a.579.579,0,0,0-.1.284l-.007.382v1.829a1.422,1.422,0,0,0,.1.639.743.743,0,0,0,.674.3.631.631,0,0,0,.705-.592l.033-.3v-.159h.787v.161l-.007.29a1.058,1.058,0,0,1-.814,1.033,2.546,2.546,0,0,1-.681.085,2.777,2.777,0,0,1-.6-.055,1.155,1.155,0,0,1-.976-1.3V28.183a3.266,3.266,0,0,1,.037-.561,1.056,1.056,0,0,1,.211-.527,1.662,1.662,0,0,1,1.349-.478c.907,0,1.4.294,1.465.862a2.965,2.965,0,0,1,.02.365v.18h-.787Z" transform="translate(-2.16 -0.574)"/>
      <path id="Path_5291" data-name="Path 5291" class="cls-1" d="M103.946,26.684h2.574v.521h-1.788v1.47h1.676V29.2h-1.676v1.6h1.837v.523h-2.623Z" transform="translate(-2.243 -0.576)"/>
      <path id="Path_5292" data-name="Path 5292" class="cls-1" d="M108.712,28.179a2.5,2.5,0,0,1,.1-.836,1.017,1.017,0,0,1,.694-.6,2.6,2.6,0,0,1,.836-.13,2.644,2.644,0,0,1,.836.13,1.038,1.038,0,0,1,.691.6,2.634,2.634,0,0,1,.108.836v1.554a5.316,5.316,0,0,1-.044.726c-.093.612-.611.922-1.568.925a1.741,1.741,0,0,1-1.391-.431,1.966,1.966,0,0,1-.264-1.22Zm.786,1.549a2.223,2.223,0,0,0,.087.759.593.593,0,0,0,.3.277,1.12,1.12,0,0,0,.46.1,1,1,0,0,0,.413-.084.606.606,0,0,0,.409-.531c.014-.145.022-.317.023-.521V28.175a1.485,1.485,0,0,0-.111-.709.77.77,0,0,0-.735-.328,1.059,1.059,0,0,0-.4.069.6.6,0,0,0-.43.539,2.71,2.71,0,0,0-.022.429Z" transform="translate(-2.346 -0.574)"/>
      <path id="Path_5293" data-name="Path 5293" class="cls-1" d="M115.293,26.684v.521h-1.721v1.466h1.655v.521h-1.655v2.126h-.788V26.684Z" transform="translate(-2.434 -0.576)"/>
      <path id="Path_5294" data-name="Path 5294" class="cls-1" d="M118.007,29.766v.258a1.119,1.119,0,0,0,.047.371c.078.313.336.47.766.47a1.349,1.349,0,0,0,.442-.068.694.694,0,0,0,.162-1.217,4.276,4.276,0,0,0-.491-.267l-.573-.259a3.466,3.466,0,0,1-.568-.311,1.089,1.089,0,0,1-.471-.947,1.014,1.014,0,0,1,.532-.959,2.28,2.28,0,0,1,1.068-.219,1.84,1.84,0,0,1,1.2.315,1.292,1.292,0,0,1,.29.992v.093h-.785v-.111l-.016-.241c-.05-.36-.282-.536-.7-.526-.532,0-.8.212-.8.636a.758.758,0,0,0,.5.66c.2.109.438.214.7.324a4.863,4.863,0,0,1,.635.307,1.151,1.151,0,0,1,.568,1.048q-.013,1.267-1.681,1.269a2.015,2.015,0,0,1-1.1-.236,1,1,0,0,1-.489-.825l-.013-.372v-.185Z" transform="translate(-2.53 -0.574)"/>
      <path id="Path_5295" data-name="Path 5295" class="cls-1" d="M121.144,26.684h.786v3.093l.006.409c.027.45.293.677.786.679s.77-.211.818-.636c.016-.149.024-.3.027-.452V26.684h.788v3.143a5.509,5.509,0,0,1-.029.6.841.841,0,0,1-.258.54,2.321,2.321,0,0,1-2.652.008.9.9,0,0,1-.252-.548c-.012-.125-.019-.323-.019-.6Z" transform="translate(-2.614 -0.576)"/>
      <path id="Path_5296" data-name="Path 5296" class="cls-1" d="M127.506,27.906l0-.215c-.019-.371-.242-.555-.664-.552a.786.786,0,0,0-.732.293.608.608,0,0,0-.1.284L126,28.1v1.829a1.382,1.382,0,0,0,.1.639.735.735,0,0,0,.671.3.634.634,0,0,0,.708-.592l.031-.3v-.159h.787v.161l-.008.29a1.1,1.1,0,0,1-.356.8,1.115,1.115,0,0,1-.458.238,2.554,2.554,0,0,1-.68.085,2.741,2.741,0,0,1-.6-.055,1.151,1.151,0,0,1-.974-1.3V28.183a3.175,3.175,0,0,1,.035-.561,1,1,0,0,1,.209-.527,1.666,1.666,0,0,1,1.35-.478c.908,0,1.4.294,1.466.862a3.417,3.417,0,0,1,.02.365v.18h-.787Z" transform="translate(-2.702 -0.574)"/>
      <path id="Path_5297" data-name="Path 5297" class="cls-1" d="M131.389,27.906l0-.215c-.02-.371-.238-.555-.662-.552a.79.79,0,0,0-.734.293.536.536,0,0,0-.1.284l-.01.382v1.829a1.417,1.417,0,0,0,.1.639.742.742,0,0,0,.673.3.631.631,0,0,0,.706-.592l.033-.3v-.159h.787v.161l-.007.29a1.121,1.121,0,0,1-.356.8,1.107,1.107,0,0,1-.459.238,2.54,2.54,0,0,1-.681.085,2.737,2.737,0,0,1-.6-.055,1.155,1.155,0,0,1-.977-1.3V28.183a3.077,3.077,0,0,1,.038-.561,1.011,1.011,0,0,1,.208-.527,1.67,1.67,0,0,1,1.351-.478c.908,0,1.4.294,1.466.862a3.172,3.172,0,0,1,.02.365v.18h-.787Z" transform="translate(-2.786 -0.574)"/>
      <path id="Path_5298" data-name="Path 5298" class="cls-1" d="M132.944,26.684h2.572v.521h-1.786v1.47h1.675V29.2h-1.675v1.6h1.837v.523h-2.623Z" transform="translate(-2.869 -0.576)"/>
      <path id="Path_5299" data-name="Path 5299" class="cls-1" d="M136.79,29.766v.258a1.119,1.119,0,0,0,.05.371q.117.47.764.47a1.344,1.344,0,0,0,.442-.068.64.64,0,0,0,.458-.661.65.65,0,0,0-.295-.556,4.384,4.384,0,0,0-.492-.267l-.571-.259a3.3,3.3,0,0,1-.568-.311,1.088,1.088,0,0,1-.473-.947,1.013,1.013,0,0,1,.531-.959,2.279,2.279,0,0,1,1.069-.219,1.842,1.842,0,0,1,1.2.315,1.3,1.3,0,0,1,.29.992v.093h-.787v-.111l-.016-.241c-.048-.36-.283-.536-.7-.526-.528,0-.8.212-.8.636a.757.757,0,0,0,.5.66c.205.109.439.214.7.324a4.845,4.845,0,0,1,.634.307,1.151,1.151,0,0,1,.57,1.048c-.009.844-.567,1.269-1.683,1.269a2.006,2.006,0,0,1-1.1-.236,1,1,0,0,1-.489-.825L136,29.95v-.185Z" transform="translate(-2.935 -0.574)"/>
      <path id="Path_5300" data-name="Path 5300" class="cls-1" d="M140.518,29.766v.258a1.146,1.146,0,0,0,.047.371c.078.313.336.47.766.47a1.314,1.314,0,0,0,.439-.068.637.637,0,0,0,.459-.661.648.648,0,0,0-.294-.556,4.134,4.134,0,0,0-.492-.267l-.569-.259a3.26,3.26,0,0,1-.567-.311,1.082,1.082,0,0,1-.474-.947,1.016,1.016,0,0,1,.53-.959,2.288,2.288,0,0,1,1.071-.219,1.829,1.829,0,0,1,1.2.315,1.292,1.292,0,0,1,.293.992v.093h-.787v-.111l-.019-.241c-.047-.36-.282-.536-.7-.526-.526,0-.8.212-.8.636a.752.752,0,0,0,.5.66c.2.109.437.214.7.324a4.628,4.628,0,0,1,.632.307,1.148,1.148,0,0,1,.571,1.048q-.013,1.267-1.681,1.269a2.02,2.02,0,0,1-1.1-.236,1,1,0,0,1-.49-.825l-.015-.372v-.185Z" transform="translate(-3.015 -0.574)"/>
    </g>
  </g>
</svg>
