<svg xmlns="http://www.w3.org/2000/svg" width="60" height="60" viewBox="0 0 60 60">
    <defs>
        <style>
            .cls-1{fill:#17b8ab}
        </style>
    </defs>
    <g id="Group_5794" data-name="Group 5794" transform="translate(-2421 -1782)">
        <g id="Group_5523" data-name="Group 5523" transform="translate(2307 1129)">
            <path id="Subtraction_4" data-name="Subtraction 4" class="cls-1" d="M54 60H6a6.007 6.007 0 0 1-6-6V6a6.007 6.007 0 0 1 6-6h48a6.007 6.007 0 0 1 6 6v48a6.007 6.007 0 0 1-6 6zM5 3a2 2 0 0 0-2 2v50a2 2 0 0 0 2 2h50a2 2 0 0 0 2-2V5a2 2 0 0 0-2-2z" transform="translate(114 653)"/>
        </g>
        <path id="Path_5382" data-name="Path 5382" class="cls-1" d="M38.529 18.342c0-3.117-5.023-5.483-11.685-5.483a25.882 25.882 0 0 0-3.474.246V5.484C23.37 2.366 18.347 0 11.685 0S0 2.339 0 5.484v16.395C0 25 5.023 27.362 11.685 27.362a25.723 25.723 0 0 0 3.476-.22v2.145c0 3.117 5.023 5.483 11.685 5.483s11.685-2.352 11.685-5.483V18.342zm-14.172-3.633a23.65 23.65 0 0 1 2.468-.129c5.729 0 10 1.985 10 3.762S32.554 22.1 26.846 22.1c-.822 0-1.59-.041-2.333-.115-4.5-.447-7.641-2.122-7.641-3.646a1.336 1.336 0 0 1 .148-.587c.658-1.338 3.488-2.64 7.337-3.046m.26 12.721c-4.556-.43-7.747-2.122-7.747-3.654v-2.509a15.171 15.171 0 0 0 7.676 2.443c.765.066 1.533.1 2.3.1 4.327 0 7.951-.992 9.975-2.542v2.512c0 1.782-4.267 3.767-9.975 3.767a22.427 22.427 0 0 1-2.229-.126zM11.685 1.711c5.708 0 9.974 1.985 9.974 3.773s-4.266 3.747-9.974 3.747-9.974-1.984-9.974-3.747 4.277-3.773 9.974-3.773M15.161 23.8v1.6a22.961 22.961 0 0 1-3.476.247c-5.7 0-9.974-1.979-9.974-3.753v-2.571c2.018 1.549 5.648 2.556 9.974 2.556a25.887 25.887 0 0 0 3.476-.22zm0-5.442v1.552a22.971 22.971 0 0 1-3.476.258c-5.694 0-9.971-2-9.971-3.773v-2.552c2.018 1.546 5.648 2.557 9.974 2.557a24.866 24.866 0 0 0 4.54-.4 3.379 3.379 0 0 0-1.069 2.358zm-3.476-3.679c-5.708 0-9.974-1.988-9.974-3.762V8.4c2.018 1.546 5.648 2.538 9.974 2.538s7.951-.992 9.974-2.541v2.514c0 1.774-4.266 3.762-9.974 3.762m25.141 14.6c0 1.771-4.272 3.756-9.98 3.756s-9.974-1.985-9.974-3.761v-2.454l.11-.025c2.037 1.5 5.618 2.467 9.87 2.467 4.326 0 7.951-.992 9.974-2.541z" transform="translate(2431.735 1794.615)"/>
    </g>
</svg>
