<svg xmlns="http://www.w3.org/2000/svg" width="26" height="24.375" viewBox="0 0 26 24.375">
    <path data-name="Path 5517" d="M14.727 10.132a1.354 1.354 0 0 1 1.289 1.113l.087.378a9.994 9.994 0 0 1 .147 1.693 10.563 10.563 0 0 1-.405 3.28l-.715 2.131 2.248.01c2.17.009 5.47.024 5.788.03a1.023 1.023 0 0 1 .986.543 1.616 1.616 0 0 1 .221.9c-.147.914-1.968 9.123-2.273 10.358a1.444 1.444 0 0 1-.443.478c-.305.2-.326.2-.465.2H8.023L8.041 19.3a7.987 7.987 0 0 0 5.591-7.357v-.089l-.005-.06V11.619c0-.718.343-1.491 1.095-1.491M3.809 19.675v11.581H1.625V19.675h2.184M14.727 8.507a2.866 2.866 0 0 0-2.719 3.116c0 .1-.008.188 0 .279a6.38 6.38 0 0 1-5.59 6.093L6.4 32.875h14.8a2.152 2.152 0 0 0 1.353-.473 3.076 3.076 0 0 0 1.068-1.238c.064-.1 2.312-10.2 2.37-10.795a3.241 3.241 0 0 0-.443-1.887 2.633 2.633 0 0 0-2.316-1.337c-.05-.008-5.849-.032-5.849-.032a12.339 12.339 0 0 0 .49-3.8 11.629 11.629 0 0 0-.257-2.424h-.015a2.982 2.982 0 0 0-2.874-2.382zM4.291 18.05H1.143A1.16 1.16 0 0 0 0 19.228V31.7a1.161 1.161 0 0 0 1.143 1.178h3.148A1.161 1.161 0 0 0 5.434 31.7V19.228a1.16 1.16 0 0 0-1.143-1.178zm2.424 14.825h-.027H6.716" transform="translate(0 -8.507)" style="fill:#fff"/>
</svg>
