<svg xmlns="http://www.w3.org/2000/svg" width="18" height="18" viewBox="0 0 18 18">
    <g data-name="组 7757">
        <path data-name="路径 13066" d="M118.284 0H103.9a1.818 1.818 0 0 0-1.808 1.83v13.738h.011V18l3.924-2.432h12.258a1.818 1.818 0 0 0 1.808-1.83V1.83A1.818 1.818 0 0 0 118.284 0zm-3.619 12.134h-1.414q-2.488-3.7-3.658-5.469a17.642 17.642 0 0 1-.787-1.518h-.043a10.43 10.43 0 0 1 .128 1.723v5.254h-1.372v-8.69h1.457q2.457 3.666 3.573 5.426a8.546 8.546 0 0 1 .829 1.561v-.043a16.683 16.683 0 0 1-.085-1.561V3.434h1.372v8.7z" transform="translate(-102.092)" style="fill:#6355d5"/>
    </g>
</svg>
