<svg xmlns="http://www.w3.org/2000/svg" width="18" height="18" viewBox="0 0 18 18">
    <g data-name="组 7754">
        <path data-name="路径 13482" d="M129.429 81.972a.488.488 0 0 0 .67-.155l2.719-4.89a.487.487 0 0 0-.245-.643l-4.005-2.131a.489.489 0 0 0-.67.156l-2.719 4.89a.488.488 0 0 0 .246.643zM125 79.711a.489.489 0 0 0 .222-.651l-2.913-4.781a.489.489 0 0 0-.676-.132l-3.93 2.269a.489.489 0 0 0-.223.651l2.915 4.782a.488.488 0 0 0 .675.132zm6.53 2.961-1-.562-.028-1.15a1.073 1.073 0 0 0-1.088-1.051l-1.15.014-.6-.982a1.079 1.079 0 0 0-1.471-.366l-.988.589-1.007-.558a1.077 1.077 0 0 0-1.456.417l-.564 1-1.147.028a1.081 1.081 0 0 0-1.054 1.089l.017 1.15-.982.6a1.074 1.074 0 0 0-.366 1.471l.586.987-.552 1.008a1.075 1.075 0 0 0 .416 1.458l1 .559.026 1.149a1.076 1.076 0 0 0 1.092 1.054l1.147-.014.6.989a1.076 1.076 0 0 0 1.469.366l.988-.588 1.008.554a1.075 1.075 0 0 0 1.463-.421l.561-1.006 1.15-.026a1.072 1.072 0 0 0 1.051-1.088l-.012-1.15.983-.6a1.081 1.081 0 0 0 .366-1.471l-.588-.988.554-1.008a1.076 1.076 0 0 0-.417-1.457zm-1.548 1.621-2.335 1.7.891 2.745a.573.573 0 0 1-.205.646.584.584 0 0 1-.341.116.569.569 0 0 1-.338-.111l-2.341-1.7-2.336 1.7a.578.578 0 0 1-.89-.646l.893-2.745-2.338-1.7a.578.578 0 0 1 .342-1.046h2.887l.893-2.747a.58.58 0 0 1 1.1 0l.891 2.747h2.89a.577.577 0 0 1 .338 1.045z" transform="translate(-116.428 -74.068)" style="fill:#f5bf0d"/>
        <path data-name="矩形 8843" style="fill:none" d="M0 0h18v18H0z"/>
    </g>
</svg>
