<svg xmlns="http://www.w3.org/2000/svg" width="18" height="18" viewBox="0 0 18 18">
    <g data-name="组 7756">
        <g data-name="组 7751">
            <path data-name="路径 13478" d="M235.977-3.099a.81.81 0 0 1 1.284.18l1.854 2.46a.81.81 0 0 1-.18 1.284.81.81 0 0 1-1.284-.18l-1.851-2.46a.81.81 0 0 1 .177-1.285z" transform="translate(-231.7 4.389)" style="fill:#17b8ab"/>
            <path data-name="路径 13479" d="M668.656-18.79a.81.81 0 0 1 .181 1.284L667-15.068a.81.81 0 0 1-1.284.18.81.81 0 0 1-.18-1.284l1.837-2.438a.81.81 0 0 1 1.283-.18z" transform="translate(-655.237 20.111)" style="fill:#17b8ab"/>
            <path data-name="路径 13480" d="M14.438 103.33H3.388A3.357 3.357 0 0 0 0 106.656v7.459a3.357 3.357 0 0 0 3.388 3.326h11.05a3.357 3.357 0 0 0 3.388-3.326v-7.459a3.357 3.357 0 0 0-3.388-3.326zm-1.976 8.307-4.444 2.518a1.385 1.385 0 0 1-1.362 0 1.334 1.334 0 0 1-.678-1.16v-5.028a1.334 1.334 0 0 1 .678-1.16 1.385 1.385 0 0 1 1.362 0l4.444 2.518a1.334 1.334 0 0 1 0 2.32z" transform="translate(0 -100.384)" style="fill:#17b8ab"/>
            <path data-name="路径 13481" d="m495.677 462.419-2.466-1.366a.568.568 0 0 0-.844.486v2.815a.568.568 0 0 0 .844.486l2.466-1.4a.568.568 0 0 0 0-1.018z" transform="translate(-484.91 -452.99)" style="fill:#17b8ab"/>
        </g>
        <path data-name="矩形 8842" style="fill:none" d="M0 0h18v18H0z"/>
    </g>
</svg>
