<svg xmlns="http://www.w3.org/2000/svg" width="18" height="18" viewBox="0 0 18 18">
    <g data-name="组 7758">
        <g data-name="组 6593">
            <g data-name="组 6594">
                <g data-name="组 6078">
                    <path data-name="路径 12920" d="M304.132 228.014a2.39 2.39 0 0 1 1.593 2.791l-.058.221-3.164 9.746a2.39 2.39 0 0 1-2.791 1.593l-.221-.058L293 240.2a2.39 2.39 0 0 1-1.593-2.791l.058-.221.07-.209 1.3.419-.07.209a1.02 1.02 0 0 0 .5 1.221l.151.07 6.49 2.105a1.02 1.02 0 0 0 1.221-.5l.07-.151 3.163-9.746a1.02 1.02 0 0 0-.5-1.221l-.151-.07-5.269-1.71.419-1.3z" transform="translate(-288.3 -224.423)" style="fill:#f71f1f"/>
                    <path data-name="减去 15" d="M9.212 15.014H2.383A2.387 2.387 0 0 1 0 12.628V2.385A2.387 2.387 0 0 1 2.383 0h6.838A2.372 2.372 0 0 1 11.6 2.385v10.243a2.388 2.388 0 0 1-2.388 2.386zM5.581 8.957l-.1.769-.488.361v.287h1.7V10.1l-.5-.361-.133-.808a4.518 4.518 0 0 1 .872.112l.091.019h.01a3.511 3.511 0 0 0 .659.1.464.464 0 0 0 .461-.229 1.782 1.782 0 0 0-.536-2.143 12.6 12.6 0 0 1-1-1.31c-.351-.5-.656-.938-.789-.938-.2 0-.826.875-1.426 1.721l-.017.02c-.092.134-.186.267-.279.4l-.081.111c-.72 1.028-.862 1.589-.536 2.141a.606.606 0 0 0 .577.271 4.307 4.307 0 0 0 .806-.119h.009c.228-.047.459-.1.7-.124z" style="fill:#f71f1f" transform="translate(.517)"/>
                    <path data-name="路径 12924" d="m694.272 389.224 1.57-1.128.756 1.744-1.686 1.151z" transform="translate(-681.848 -381.812)" style="fill:#f71f1f"/>
                </g>
            </g>
        </g>
        <path data-name="矩形 8304" style="fill:none" d="M0 0h18v18H0z"/>
    </g>
</svg>
