<svg xmlns="http://www.w3.org/2000/svg" width="34" height="34" viewBox="0 0 34 34">
    <g data-name="组 8091">
        <path data-name="矩形 10996" style="fill:none" d="M0 0h34v34H0z"/>
        <path data-name="路径 13161" d="M27.355 262.723v3.461a2.274 2.274 0 0 1-2.277 2.277H2.277A2.294 2.294 0 0 1 0 266.184v-17.123a2.274 2.274 0 0 1 2.277-2.277h22.8a2.294 2.294 0 0 1 2.277 2.277v13.662zm-9.078-10.535a2.672 2.672 0 1 0 2.641 2.672 2.669 2.669 0 0 0-2.641-2.672zm.061 11.962c5.252 0 5.222 0 5.222-.668a5.263 5.263 0 0 0-4.19-5.161l-.546.516h.121l.516 2.672a1.454 1.454 0 0 1-.334 1.154l-.82.85-.88-.85a1.376 1.376 0 0 1-.364-1.123l.516-2.672h.121l-.516-.577a5.308 5.308 0 0 0-4.19 5.192c0 .667.091.667 5.344.667zm-14.6-5.04a.821.821 0 0 0 .88.759h4.1a.82.82 0 1 0 0-1.639H4.584a.918.918 0 0 0-.85.88zm0-3.491a.836.836 0 0 0 .82.82H14a.82.82 0 0 0 0-1.639H4.554a.816.816 0 0 0-.82.819zm0-3.37a.794.794 0 0 0 .85.759h7.287a.79.79 0 1 0 0-1.579H4.584a.843.843 0 0 0-.85.82zm0 0" transform="translate(1 -237.148)" style="fill:#fb6943"/>
        <path data-name="路径 13162" d="M171.571 46.08H148.8c-1.245 0-2.368 1.639-2.368 2.915v1.7h22.5a2.287 2.287 0 0 1 2.065 2.459v16h.607c1.245 0 2.49-1.761 2.49-3.036V48.995c-.034-1.276-1.248-2.915-2.523-2.915zm0 0" transform="translate(-141.09 -42.395)" style="fill:#fae2e2"/>
    </g>
</svg>
