<svg xmlns="http://www.w3.org/2000/svg" width="17.556" height="24.163" viewBox="0 0 17.556 24.163">
    <path data-name="路径 28896" d="M193.553 80.855h4.423v-1.1a.431.431 0 0 1 .278-.4l.1-.041a7.039 7.039 0 1 0-5.2-.005l.117.046a.431.431 0 0 1 .278.4zm0 1.726v.782a.216.216 0 0 0 .216.216h3.991a.216.216 0 0 0 .216-.216v-.783zm6.176 1.915a.863.863 0 0 1-.863.863h-6.149a.863.863 0 0 1-.863-.863v-3.864a8.778 8.778 0 1 1 7.874-.014zm-6.445 1.942h4.989a.863.863 0 1 1 0 1.726h-4.989a.863.863 0 0 1 0-1.726z" transform="translate(-187 -64)" style="fill:#fb6943"/>
</svg>
