<svg xmlns="http://www.w3.org/2000/svg" width="31.425" height="30.526" viewBox="0 0 31.425 30.526">
    <g data-name="组 8102">
        <path data-name="路径 13165" d="M65.339 78.736a6.651 6.651 0 1 0-6.651-6.636 6.651 6.651 0 0 0 6.651 6.636zm4.624 15.493-2.743-4.987a.4.4 0 0 1 0-.375l2.463-4.474a1.225 1.225 0 0 0-.016-1.153 1.255 1.255 0 0 0-1.013-.576h-5.033c-3.7 0-5.549 0-7.14.81a7.537 7.537 0 0 0-3.242 3.257c-.81 1.589-.81 3.445-.81 7.124v.935a1.167 1.167 0 0 0 1.171 1.17h15.351a1.122 1.122 0 0 0 .935-.483 1.178 1.178 0 0 0 .175-1.05c-.034-.058-.061-.135-.097-.198zm7.513-6.811a1.63 1.63 0 1 0 1.576 1.629 1.63 1.63 0 0 0-1.576-1.629z" transform="translate(-52.429 -65.434)" style="fill:#fb6943"/>
        <path data-name="路径 13166" d="m611.054 589.893-1.808-3.117a2.743 2.743 0 0 0-2.368-1.355h-3.664a2.734 2.734 0 0 0-2.352 1.355l-1.819 3.117a2.78 2.78 0 0 0 0 2.745l1.824 3.117a2.734 2.734 0 0 0 2.352 1.355h3.664a2.743 2.743 0 0 0 2.368-1.355l1.808-3.117a2.7 2.7 0 0 0-.005-2.745zm-2.009 1.575-1.824 3.117a.432.432 0 0 1-.35.187h-3.656a.383.383 0 0 1-.32-.187l-1.824-3.117a.385.385 0 0 1 0-.406l1.824-3.117a.383.383 0 0 1 .327-.187h3.664a.432.432 0 0 1 .35.187l1.824 3.117a.471.471 0 0 1-.016.406z" transform="translate(-580.006 -567.644)" style="fill:#ffe6e6"/>
    </g>
</svg>
