<svg xmlns="http://www.w3.org/2000/svg" width="20" height="20" viewBox="0 0 20 20">
    <g data-name="组 8090">
        <path data-name="矩形 10995" style="fill:none" d="M0 0h20v20H0z"/>
        <path data-name="路径 13159" d="M42.769 34.133a8.635 8.635 0 0 0 0 17.271.474.474 0 0 0 .463-.463v-7.309a.408.408 0 0 1 .4-.4h7.309a.474.474 0 0 0 .463-.463 8.661 8.661 0 0 0-8.635-8.636z" transform="translate(-32.555 -32.556)" style="fill:#fb6943"/>
        <path data-name="路径 13160" d="M635.346 629.76h-5.126a.472.472 0 0 0-.46.46v5.126a.472.472 0 0 0 .46.46h5.126a.472.472 0 0 0 .46-.46v-5.126a.452.452 0 0 0-.46-.46z" transform="translate(-617.387 -617.388)" style="fill:#fae2e2"/>
    </g>
</svg>
