<svg width="34" height="34" viewBox="0 0 34 34" fill="none" xmlns="http://www.w3.org/2000/svg">
<path d="M25.8027 15.1399C26.6477 15.1399 27.4458 15.3108 28.197 15.6525C28.9482 15.9943 29.6055 16.4533 30.1688 17.0294C30.7322 17.6055 31.1782 18.2841 31.5069 19.0653C31.8355 19.8465 31.9998 20.6765 31.9998 21.5553C31.9998 22.4537 31.8355 23.2935 31.5069 24.0746C31.1782 24.8558 30.7322 25.5394 30.1688 26.1252C29.6055 26.7111 28.9482 27.1701 28.197 27.5021C27.4458 27.8341 26.6477 28.0001 25.8027 28.0001C24.9576 28.0001 24.1595 27.8341 23.4083 27.5021C22.6571 27.1701 21.9998 26.7111 21.4365 26.1252C20.8731 25.5394 20.4271 24.8558 20.0984 24.0746C19.7698 23.2935 19.6055 22.4537 19.6055 21.5553C19.6055 20.6765 19.7698 19.8465 20.0984 19.0653C20.4271 18.2841 20.8731 17.6055 21.4365 17.0294C21.9998 16.4533 22.6571 15.9943 23.4083 15.6525C24.1595 15.3108 24.9576 15.1399 25.8027 15.1399ZM29.2956 22.6099C29.4834 22.6099 29.6383 22.5074 29.7604 22.3023C29.8825 22.0973 29.9435 21.858 29.9435 21.5846C29.9435 21.3112 29.8825 21.0817 29.7604 20.8962C29.6383 20.7107 29.4834 20.6179 29.2956 20.6179H26.6477V18.04C26.6477 17.8838 26.5679 17.7471 26.4083 17.6299C26.2487 17.5127 26.028 17.4541 25.7463 17.4541C25.4458 17.4541 25.2252 17.5127 25.0843 17.6299C24.9435 17.7471 24.8731 17.8838 24.8731 18.04V21.2624C24.8731 21.321 24.8684 21.3747 24.859 21.4235C24.8496 21.4723 24.8449 21.526 24.8449 21.5846C24.8449 21.858 24.9059 22.0973 25.028 22.3023C25.1501 22.5074 25.305 22.6099 25.4928 22.6099H29.2956Z" fill="#FAE2E2"/>
<path d="M3.5992 18.6851C3.1503 18.6851 2.77154 18.5254 2.46293 18.2061C2.15431 17.8868 2 17.4852 2 17.0015V14.8244C2 14.3793 2.15431 13.9923 2.46293 13.6633C2.77154 13.3343 3.1503 13.1698 3.5992 13.1698H24.1643C24.314 13.1698 24.4636 13.1988 24.6132 13.2569C23.8651 13.3537 23.1496 13.552 22.4669 13.852C21.7842 14.1519 21.1623 14.5389 20.6012 15.0131C20.0401 15.4872 19.5491 16.0387 19.1283 16.6676C18.7074 17.2966 18.3754 17.969 18.1323 18.6851H3.5992ZM17.7114 20.5428C17.6927 20.6976 17.6834 20.8428 17.6834 20.9782V21.3846C17.6834 22.2554 17.8049 23.0779 18.0481 23.852C18.2913 24.626 18.6279 25.342 19.0581 26H3.5992C3.1503 26 2.77154 25.8403 2.46293 25.521C2.15431 25.2017 2 24.8099 2 24.3454V22.1684C2 21.7233 2.15431 21.3411 2.46293 21.0218C2.77154 20.7025 3.1503 20.5428 3.5992 20.5428H17.7114ZM7.07816 11.3411C6.64796 11.3411 6.27856 11.1814 5.96994 10.8621C5.66132 10.5428 5.50701 10.1509 5.50701 9.6865V7.6836C5.50701 7.21916 5.66132 6.82245 5.96994 6.49347C6.27856 6.16449 6.64796 6 7.07816 6H28.4289C28.8591 6 29.2285 6.16449 29.5371 6.49347C29.8457 6.82245 30 7.21916 30 7.6836V9.6865C30 10.1509 29.8457 10.5428 29.5371 10.8621C29.2285 11.1814 28.8591 11.3411 28.4289 11.3411H7.07816Z" fill="#FB6943"/>
</svg>
