<svg id="bonus" xmlns="http://www.w3.org/2000/svg" width="15" height="17" viewBox="0 0 15 17">
    <defs>
        <style>
            .cls-1{fill:#585d65}
        </style>
    </defs>
    <path id="形状" class="cls-1" d="M1.285 2.57a1.286 1.286 0 1 1 1.287-1.284A1.286 1.286 0 0 1 1.285 2.57zm0-1.715a.428.428 0 0 0 0 .855.418.418 0 0 0 .3-.125.427.427 0 0 0-.3-.73z" transform="translate(9.714 8.857)"/>
    <path id="形状-2" data-name="形状" class="cls-1" d="M1.617 7.714H1.6a.491.491 0 0 1-.339-.138.44.44 0 0 1-.138-.324V5.036A2.731 2.731 0 0 1 .172 1.89 2.993 2.993 0 0 1 2.994 0H3a3 3 0 0 1 2.834 1.9 2.74 2.74 0 0 1-.971 3.149v2.2a.453.453 0 0 1-.246.405.515.515 0 0 1-.234.057.5.5 0 0 1-.259-.071L3 7.029l-1.137.622a.492.492 0 0 1-.246.063zM3 .919A1.975 1.975 0 0 0 .975 2.832 1.975 1.975 0 0 0 3 4.745a1.975 1.975 0 0 0 2.028-1.913A1.975 1.975 0 0 0 3 .919z" transform="translate(8 7.143)"/>
    <path id="形状-3" data-name="形状" d="M6.263 12.858H.57a.579.579 0 0 1-.57-.586V.585A.579.579 0 0 1 .57 0h9.145a.579.579 0 0 1 .571.585v3.59a3.649 3.649 0 0 0-1.143-.188h-.014a3.728 3.728 0 0 0-3.36 2.171 3.886 3.886 0 0 0 .494 4.042v2.653zm-4.706-8.6a.52.52 0 0 0 0 1.04h1.268v.415a.509.509 0 1 0 1.018 0V5.3l1.269.009a.52.52 0 0 0 0-1.04H3.843V3.98h1.268a.52.52 0 0 0 0-1.04H4.4l.817-.84a.529.529 0 0 0-.017-.72.5.5 0 0 0-.7-.012L3.334 2.563 2.168 1.371a.491.491 0 0 0-.357-.152.5.5 0 0 0-.359.152.522.522 0 0 0 0 .731l.817.829h-.712a.52.52 0 0 0 0 1.04h1.268v.291z" transform="translate(2 2)" style="fill:#f04e23"/>
    <path id="矩形" style="fill:#d8d8d8;opacity:.126" d="M0 0h15v17H0z"/>
</svg>
