<svg id="编组_7" data-name="编组 7" xmlns="http://www.w3.org/2000/svg" width="21" height="20" viewBox="0 0 21 20">
    <defs>
        <style>
            .cls-1{fill:#1e2329}
        </style>
    </defs>
    <path id="形状" class="cls-1" d="M11.523 14H1.478A1.47 1.47 0 0 1 0 12.541V1.459A1.47 1.47 0 0 1 1.478 0h10.045A1.47 1.47 0 0 1 13 1.459v11.082A1.47 1.47 0 0 1 11.523 14zM1.478 1.168a.29.29 0 0 0-.3.291v11.082a.3.3 0 0 0 .3.293h10.045a.3.3 0 0 0 .3-.293V1.459a.294.294 0 0 0-.3-.291z" transform="translate(3 4)"/>
    <path id="路径" class="cls-1" d="M9.659 0H.537a.533.533 0 1 0 0 1.067h9.122a.267.267 0 0 1 .268.267v10.133a.537.537 0 0 0 1.073 0V1.333A1.339 1.339 0 0 0 9.659 0z" transform="translate(7 2)"/>
    <path id="形状-2" data-name="形状" class="cls-1" d="M.583 7a.585.585 0 0 1 0-1.171h3.5a.585.585 0 0 1 0 1.171zm0-2.9a.585.585 0 0 1 0-1.171h5.834a.585.585 0 0 1 0 1.171zm0-2.927A.585.585 0 0 1 .583 0h5.834a.585.585 0 0 1 0 1.171z" transform="translate(6 7)"/>
</svg>
