<svg xmlns="http://www.w3.org/2000/svg" width="11.109" height="11.779" viewBox="0 0 11.109 11.779">
    <g data-name="组 8193">
        <path data-name="路径 13173" d="m583.245 539.243 1.441-1.441a.426.426 0 0 0-.6-.6l-1.44 1.441-1.446-1.443a.426.426 0 0 0-.6.6l1.441 1.441-1.44 1.441a.426.426 0 0 0 .6.6l1.441-1.441 1.441 1.441a.426.426 0 0 0 .6-.6z" transform="translate(-573.703 -530.873)" style="fill:#f04e23"/>
        <path data-name="路径 13174" d="M68.391 74.063h-4.475v-9.947h9.275v3.133a.458.458 0 1 0 .916 0v-3.591a.459.459 0 0 0-.458-.458H63.458a.459.459 0 0 0-.458.458v10.863a.459.459 0 0 0 .458.458h4.933a.458.458 0 0 0 0-.916z" transform="translate(-63 -63.2)" style="fill:#f04e23"/>
        <path data-name="路径 13175" d="M239.613 267.558a.459.459 0 0 0-.458-.458h-5.9a.458.458 0 1 0 0 .916h5.9a.459.459 0 0 0 .458-.458zm-3.4 2.7a.459.459 0 0 0-.458-.458h-2.5a.458.458 0 1 0 0 .916h2.5a.459.459 0 0 0 .457-.455zm-2.954 2.246a.458.458 0 1 0 0 .916h1.394a.458.458 0 1 0 0-.916z" transform="translate(-230.578 -264.431)" style="fill:#f04e23"/>
    </g>
</svg>
