<svg id="排名_1_" data-name="排名 (1)" xmlns="http://www.w3.org/2000/svg" width="13" height="16" viewBox="0 0 13 16">
    <defs>
        <style>
            .cls-3{fill:#585d65}
        </style>
    </defs>
    <path id="路径" d="M4.655 0a4.656 4.656 0 1 0 4.654 4.656A4.656 4.656 0 0 0 4.655 0z" transform="translate(2.069 4.688)" style="fill:#f04e23"/>
    <path id="路径-2" data-name="路径" d="m4.953 2.286-.918.891.22 1.262c.075.425-.172.61-.556.4l-1.131-.6-1.131.6c-.384.2-.63.028-.555-.4L1.1 3.177l-.917-.891c-.308-.3-.22-.59.212-.658l1.268-.185.57-1.152c.192-.384.493-.391.692 0l.569 1.152 1.268.185c.4.061.507.349.192.658z" transform="translate(4.162 6.64)" style="fill:#fff"/>
    <path id="路径-3" data-name="路径" class="cls-3" d="M4.079 0H1.2a.324.324 0 0 0-.316.253L0 2a5.456 5.456 0 0 1 3.023 1.2L4.346.521a.312.312 0 0 0 .069-.192A.34.34 0 0 0 4.078 0z" transform="translate(6.997 2)"/>
    <path id="路径-4" data-name="路径" class="cls-3" d="M4.409 2 3.523.253A.324.324 0 0 0 3.208 0H.329A.332.332 0 0 0 .1.1a.326.326 0 0 0-.1.229.306.306 0 0 0 .069.192L1.392 3.2A5.428 5.428 0 0 1 4.408 2z" transform="translate(2 2)"/>
</svg>
