<svg xmlns="http://www.w3.org/2000/svg" width="28" height="29" viewBox="0 0 28 29">
    <path d="M12.893 23H2.713A2.908 2.908 0 0 1 0 20.126V5.75a2.814 2.814 0 0 1 2.61-2.856l.782-.018L3.4 2.7A2.741 2.741 0 0 1 6.107 0l8.142.022L19 5.768v11.484a2.909 2.909 0 0 1-2.716 2.874l-.676-.007v.19A2.74 2.74 0 0 1 12.893 23zM3.394 4.314l-.743.023A1.393 1.393 0 0 0 1.356 5.75v14.376a1.475 1.475 0 0 0 1.359 1.436h10.18a1.358 1.358 0 0 0 1.361-1.318v-.124l-8.148.007a2.908 2.908 0 0 1-2.714-2.874V4.314zm2.713-2.876a1.474 1.474 0 0 0-1.356 1.438v14.376a1.473 1.473 0 0 0 1.356 1.436h10.177a1.474 1.474 0 0 0 1.357-1.436V7.188h-2.033a2.657 2.657 0 0 1-1.9-.868 2.94 2.94 0 0 1-.814-1.988v-.015c0-.314-.01-1.452 0-2.879zm8.142.022v2.153c0 .728.615 2.155 1.359 2.155h2.033L14.249 1.46z" transform="translate(5 3)" style="fill:#232a35" data-name="3 拷贝 3"/>
</svg>
