<svg data-name="下载 储存-1" xmlns="http://www.w3.org/2000/svg" width="37" height="35" viewBox="0 0 37 35">
    <path d="M8.862 28A.863.863 0 0 1 8 27.22v-3.245a.862.862 0 0 1 1.721-.083v2.383h19.55v-2.3A.865.865 0 0 1 31 23.892v3.246a.862.862 0 0 1-.78.859h-.083zm10.093-3.759-.066-.059-5.689-5.693a.863.863 0 0 1 1.152-1.279l.066.059 4.219 4.22V5.862a.863.863 0 0 1 .78-.862h.083a.863.863 0 0 1 .859.779v15.71l4.22-4.219a.863.863 0 0 1 1.154-.059l.066.059a.863.863 0 0 1 .059 1.154l-.059.066-5.693 5.692a.862.862 0 0 1-1.154.059z"/>
</svg>
