<svg xmlns="http://www.w3.org/2000/svg" width="16" height="13.864" viewBox="0 0 16 13.864">
    <g data-name="组 8117">
        <path data-name="路径 13169" d="M230 156.994a3.094 3.094 0 1 0 3.094-3.094 3.094 3.094 0 0 0-3.094 3.094z" transform="translate(-226.713 -153.9)" style="fill:#b7bdc6"/>
        <path data-name="路径 13170" d="M69.615 241.974h-2.621a5.485 5.485 0 0 0-5.494 5.478 1.659 1.659 0 0 0 1.66 1.655h9.976a1.3 1.3 0 0 0 1.3-1.3v-1.024a4.818 4.818 0 0 0-4.821-4.809zm2.164-3.54a3.52 3.52 0 0 1-.854 2.3.185.185 0 0 0 .008.249 2.532 2.532 0 1 0 .767-4.062.249.249 0 0 0-.132.309 3.457 3.457 0 0 1 .212 1.204z" transform="translate(-61.5 -235.243)" style="fill:#b7bdc6"/>
        <path data-name="路径 13171" d="M636.008 527.5h-.68a.137.137 0 0 0-.07.254 4.612 4.612 0 0 1 2.261 3.971v.983a1.24 1.24 0 0 1-.224.713.135.135 0 0 0 .11.214h1.619a1.118 1.118 0 0 0 1.118-1.118v-.879a4.136 4.136 0 0 0-4.134-4.138z" transform="translate(-624.142 -520.089)" style="fill:#b7bdc6"/>
    </g>
</svg>
