<svg xmlns="http://www.w3.org/2000/svg" width="27" height="26" viewBox="0 0 27 26">
    <path d="M23.185 13.12a.817.817 0 0 0-.815.818v7.153a.273.273 0 0 1-.271.273H5.9a.273.273 0 0 1-.272-.273V4.909a.272.272 0 0 1 .272-.273h7.516a.818.818 0 0 0 0-1.636H5.9A1.907 1.907 0 0 0 4 4.909v16.182A1.907 1.907 0 0 0 5.9 23h16.2a1.907 1.907 0 0 0 1.9-1.909v-7.153a.817.817 0 0 0-.815-.818z"/>
    <path data-name="路径" d="M23.759 3.242a.748.748 0 0 0-.479-.229.737.737 0 0 0-.24-.006h-5.969a.8.8 0 0 0 0 1.6h4.157l-8.991 9.017c-.737.742.424 1.876 1.163 1.134l8.95-8.972v3.966a.825.825 0 0 0 1.648 0V3.809a.732.732 0 0 0-.239-.567z"/>
</svg>
