<svg xmlns="http://www.w3.org/2000/svg" width="42" height="32" viewBox="0 0 42 32">
    <g data-name="组 6976" transform="translate(-1490 -1241)">
        <rect data-name="矩形 8304" width="42" height="32" rx="6" transform="translate(1490 1241)" style="fill:#f5f5f5"/>
        <path d="m123.9 87.87-1.226.008a.779.779 0 0 1-.012-1.557l3.126-.023a.779.779 0 0 1 .727.485.765.765 0 0 1 .058.294v3.131a.779.779 0 1 1-1.557 0v-1.249l-6.981 6.98a.777.777 0 0 1-.867.16l-9.351-4.154a.78.78 0 1 1 .633-1.426l8.86 3.938zm0 0" transform="translate(1393.476 1160.1)" style="fill:#707a8a"/>
        <path data-name="shuju" d="M125.8 93.832a1.56 1.56 0 0 1 1.559 1.559v10.389a1.56 1.56 0 0 1-1.559 1.559h-2.08a1.56 1.56 0 0 1-1.559-1.559V95.389a1.56 1.56 0 0 1 1.559-1.559h2.08zm-14.545 2.077a1.56 1.56 0 0 1 1.559 1.559v8.31a1.56 1.56 0 0 1-1.559 1.559h-2.077a1.56 1.56 0 0 1-1.559-1.559v-8.312a1.56 1.56 0 0 1 1.559-1.559h2.077zm7.272 2.077a1.56 1.56 0 0 1 1.559 1.559v6.233a1.56 1.56 0 0 1-1.559 1.559h-2.077a1.56 1.56 0 0 1-1.559-1.559v-6.233a1.56 1.56 0 0 1 1.559-1.559zm0 0" transform="translate(1393.476 1160.1)" style="fill:#fb6943"/>
    </g>
</svg>
