<svg xmlns="http://www.w3.org/2000/svg" width="28" height="27" viewBox="0 0 28 27">
    <path d="M49.932 16.729h-6.354c-7.037 0-8.765 13.824-8.765 13.824a3.606 3.606 0 0 0 3.287 3.64h17.31a3.606 3.606 0 0 0 3.287-3.64s-1.729-13.824-8.765-13.824zm.721 10.624a.768.768 0 0 1 0 1.536h-3.115V30.9a.767.767 0 1 1-1.538 0v-2.01h-3.132a.768.768 0 0 1 0-1.536H46v-.975h-3.132a.768.768 0 0 1 0-1.536h2.12l-2.17-3.857a.768.768 0 0 1 1.329-.769l2.613 4.626h.132l2.608-4.626a.768.768 0 0 1 1.329.769l-2.17 3.857h1.99a.768.768 0 0 1 0 1.536h-3.111v.975z" transform="translate(-32.719 -8.209)" style="fill:#f04e23"/>
    <path data-name="wodegongzi" d="M43.578 15.479H49.6c1.865 0 3.287-4.043 3.287-4.043 0-1.211-.121-2.127-2.192-2.192s-2.566 1.447-4.053 1.447c-1.525 0-2.287-1.189-4.163-1.447s-2.191.981-2.191 2.192c.003 0 1.425 4.043 3.29 4.043z" transform="translate(-32.719 -8.209)" style="opacity:.198;fill:#f04e23"/>
</svg>
