<svg xmlns="http://www.w3.org/2000/svg" width="57.475" height="57.989" viewBox="0 0 57.475 57.989">
    <path data-name="路径 12993" d="M441.12 579.739c.44 0 .874-.013 1.314-.039-.783 0-2.168 0-2.608.006.426.013.86.033 1.294.033zm-2.3-.091a79.279 79.279 0 0 0-1.715-.188c.558.084 1.128.14 1.71.188zm19.425-22.907-6.783 10.68a1.835 1.835 0 0 0 3.1 1.961l6.783-10.68a1.835 1.835 0 0 0-3.1-1.961z" transform="translate(-413.209 -524.067)" style="fill:#f04e23"/>
    <path data-name="路径 12994" d="M527.689 398.533a3.638 3.638 0 0 1-.5 2.667l-3.333 5.243a3.737 3.737 0 0 1-4.732 1.366c.5-.11 1.016-.24 1.521-.369-.44.1-1.055.252-1.521.369a3.434 3.434 0 0 1-.453-.246 3.758 3.758 0 0 1-1.2-5.172l3.333-5.243a3.687 3.687 0 0 1 2.2-1.592l1.683-2.654a5.921 5.921 0 0 0-5.579 2.706l-3.741 5.89a6.031 6.031 0 0 0 10.182 6.466l3.748-5.871a5.923 5.923 0 0 0 .078-6.207zm12.518-24.881a5.994 5.994 0 0 0-8.285 1.793l-3.741 5.89a5.914 5.914 0 0 0-.071 6.194l1.683-2.647a3.7 3.7 0 0 1 .5-2.667l3.333-5.243a3.78 3.78 0 0 1 6.382 4.052l-3.34 5.243a3.669 3.669 0 0 1-2.2 1.592l-1.683 2.654a5.945 5.945 0 0 0 5.579-2.712l3.741-5.89a6 6 0 0 0-1.898-8.259z" transform="translate(-485.552 -352.719)" style="fill:#f04e23"/>
    <path data-name="路径 12995" d="M580.643 155.974a.657.657 0 0 1-.388-.006c-.142-.052-.032-.091-.466-.136-.045-.006-.071 0-.1-.006l-2.628 4.143a2.131 2.131 0 0 0-.272 1.625 2.219 2.219 0 0 0 3.994.751l2.926-4.6a.3.3 0 0 0-.214.142c-.071.1-.162.129-.24.052s.058-.058-.013-.129-.2-.006-.4-.006-.253.026-.395-.071c-.078-.045-.078-.129-.058-.214a2.319 2.319 0 0 1-.563-.291c-.052.039-.116.052-.285.032-.2-.026-.013-.084.045-.214 0-.006.006-.013.013-.026-.058-.058-.123-.117-.175-.175a.5.5 0 0 1-.22.052c-.129.013-.129-.155-.116-.388s-.058-.078-.142-.1-.058-.227-.058-.4-.071-.052-.246-.032zm10.965-7.146a6.551 6.551 0 0 1-.712-.032l-.091-.006-1.877 2.952.045.084a7.462 7.462 0 0 1 .395 6.913 27.8 27.8 0 0 0 9.178-14.324l-.6.951a7.475 7.475 0 0 1-6.338 3.462zm-8.919-36.15c.045.026.084.078.129.1a.39.39 0 0 0 .091.045 1.181 1.181 0 0 0-.311-.227c.039.036.071.069.09.082zm-1.243 34.843c.019.006.025.006-.001-.001z" transform="translate(-543.807 -109.454)" style="fill:#ffe6e6"/>
    <path data-name="路径 12996" d="M95.566 118.959a1.214 1.214 0 0 0 .375-.052 7.5 7.5 0 0 1 .544-6.965l1.074-1.683a2.99 2.99 0 0 1 .032-.3.668.668 0 0 0-.006-.214c-.006-.045-.084-.071-.22-.155s-.058-.214-.052-.33a1.039 1.039 0 0 0-.162-.421.26.26 0 0 0-.142-.129c-.058-.013-.142-.123-.188-.265s.117.032.175.039a1.462 1.462 0 0 1 .22.117c.078.032.058-.117.026-.214s-.162-.246-.207-.35a.193.193 0 0 1 .013-.22 1.723 1.723 0 0 0 .129-.33 1.353 1.353 0 0 0 .052-.382c.026-.142.032-.188.078-.188s.1.188.175.155-.013-.136.084-.2a2.818 2.818 0 0 1 .369-.136 1.448 1.448 0 0 0 .485-.382c.039-.078.162 0 .227.039a.391.391 0 0 0 .272.006c.084-.032.091-.078.2-.142s.227.045.343.045.039-.078.1-.142.4-.1.518-.1a1.072 1.072 0 0 0 .272-.155 7.356 7.356 0 0 1 .718-.893c.026-.123.2-.252.2-.252s.078-.175.162-.181c.039-.006.039.006.032.039a6.585 6.585 0 0 1 1.016-.79c.032-.045.071-.084.1-.129.091-.136.1-.078.214-.084s.052-.084.058-.168.084-.006.22.026h.032c.026-.006.039-.026.058-.039.026-.045.032-.1.091-.129a.172.172 0 0 1 .129.026 7.757 7.757 0 0 1 1.443-.5.54.54 0 0 1 .052-.078 1.646 1.646 0 0 1 .311-.291c.117-.045.136-.084.246-.123s.052-.188-.032-.091-.239.084-.414.188-.259-.039-.239-.175.052-.123.181-.175a.669.669 0 0 1 .557-.058c.091.019.136.032.155.039-.026-.006-.065-.032-.019-.052a.738.738 0 0 1 .259-.058s.026.129.084.117a.151.151 0 0 1 .136.071 2.267 2.267 0 0 0 .343.1 1.283 1.283 0 0 0 .356.006c.1-.006.2.1.214.1a1.184 1.184 0 0 0 .239-.026c.117-.026.078-.136.155-.239a2.442 2.442 0 0 1 .317-.317c.117-.1.052.045.032.136s-.091.078-.207.188-.006.136.006.142a.531.531 0 0 1 .071.026l1.625-2.563-.045-.084a7.49 7.49 0 0 1 .1-7.845l3.741-5.89A7.462 7.462 0 0 1 119.4 82.4a7.679 7.679 0 0 1 2.829.563A27.9 27.9 0 0 0 104.2 65.281c.693.259 2.265.958 2.524 1.055.3.1 2.175 1.113 2.621 1.372a5.706 5.706 0 0 1 .634.466 3.084 3.084 0 0 1 .867.557c.155.214.181.259.35.46s.155.084.382.207.058.246.168.44a3.759 3.759 0 0 0 .35.531c.129.168.181.285.129.272a5.37 5.37 0 0 1-.5-.647 19.285 19.285 0 0 0-1.32-1.43c-.091-.052-.084.052-.162.168s-.175-.032-.227-.078-.22-.214-.272-.214-.1.214-.142.259-.214-.136-.311-.3a.379.379 0 0 0-.337-.2.255.255 0 0 1-.239-.084c-.078-.091-.129-.175-.162-.175a.9.9 0 0 1-.35-.136c-.1-.084-.058-.214-.091-.285s-.091-.1-.246-.117-.3.188-.382.168-.168-.168-.259-.168a.418.418 0 0 1-.129-.026 1.063 1.063 0 0 0 .24.175c.2.084.285.188.117.188s-.725-.22-.673 0 .3.285.615.5.388.227.3.395a1.442 1.442 0 0 0 .052.841c.084.084-.388-.2-.388-.026s-.252.311-.252.311.142.2.2.311-.168.369.052.369a.552.552 0 0 1 .473.252c.052.117.285 0 .285.2a.511.511 0 0 0 .22.447c.117.058.032.369-.052.369s.2.136.2.285-.084.2-.084.343a7.833 7.833 0 0 1 .084.874c-.117.227-.168.227-.369-.2a7.836 7.836 0 0 0-1.172-1.346c-.33-.362-.252-.647-.421-.816a.2.2 0 0 1 .026-.311 1.639 1.639 0 0 0-.032-.531c-.052-.168.084-.369-.084-.531s-.421-.447-.388-.311.22.563.084.615-.3-.3-.524-.252a.33.33 0 0 0-.22.479c.084.22.3.252.3.337s-.388.285-.557.252 0-.252-.5-.168-.136.142-.388.168-1.029.117-1.062.285a2.436 2.436 0 0 1-.3.647c-.117.168-.285.563-.414.783s.168.084.337.084.084-.369.188-.22.052.22.168.337.136-.032.252-.058a1.007 1.007 0 0 1 .951.557v-.421c0-.252.311.084.311.084a3.372 3.372 0 0 0 .757.984c.479.395.68.5.447.5s-.531-.032-.272.395.615.479.5.563-.188 0-.252.084-.084.337-.188.084-.427-.783-.5-.932-.369-1.295-.6-1.12.117.68.117.764a3.014 3.014 0 0 1-.473 2.259c-.744 1.159-1 .712-1.062.615s-.252.091-.272.2-.22.168-.252.252-.026.337-.078.531-.531.337-.524.511a2.854 2.854 0 0 1 1 1.968c0 .084-.337.084-.337.084a.442.442 0 0 1-.369.2 1.135 1.135 0 0 0-.473.117s.136-.764 0-.9-.2-.168-.117-.285a.189.189 0 0 0-.168-.311 1.632 1.632 0 0 1-.531-.136s.188-.343.1-.531-.375-.447-1.113.175c-.168.142-.356.227-.337.058s0-.2.032-.311a2.308 2.308 0 0 1 .22-.395s-.142-.369-.608.168-.531.479-.725.479-.285.311-.136.369.589.117.589.3.117.142.285 0 1.029-.084 1.029.052-.272.252-.44.311a2.17 2.17 0 0 0-.673.68c-.032.117.2.2.252.3s.447.369.388.816c0 0 .395.084.395.227a2.7 2.7 0 0 1 .032.421 2.45 2.45 0 0 1-.369.369c.563.026.608.285.447.77-.084.265-.369.913-.725.9a1.723 1.723 0 0 1-.026.485c-.058.265-.052.227-.369.33.013.129-.045.142-.123.227-.045.052-.155.013-.214.078-.039.039.006.142-.026.168-.142.129-.485.181-.479.447-.311.168-.757.136-1 .395l-.369-.136c.181.55-1.133.343-1.327.777a.3.3 0 0 0 0 .24.813.813 0 0 1-.091.822c-.259.285-.822.485-.906.013s.473-.608.641-.634.2-.058.2-.058-.265-.078-.272-.2.045-.188-.013-.265a.4.4 0 0 0-.246-.136.485.485 0 0 1-.214-.091c-.091-.058-.246.123-.375.181s-.214.129-.3.168-.071.227-.3.35a.484.484 0 0 0-.246.6c.1.22.285.265.343.5a1.166 1.166 0 0 0 .5.66 1.73 1.73 0 0 1 .57.8 3.016 3.016 0 0 1 .155 1.152c-.1.343-.091.608-.518.816a1.091 1.091 0 0 1-.628.162 3.11 3.11 0 0 0-.168.414c-.045.142-.33.175-.382.246-.615.731-.24-.078-.434-.4a3.565 3.565 0 0 0-.531-.343 1.775 1.775 0 0 1-.356-.3c-.117-.162-.084-.375-.3-.531-.168-.123-.518-.084-.634-.214-.084-.1.052-.557-.311-.369-.227.123-.123.867-.3 1.113-.246.35-.311.744-.129.854s.317.026.311.227.162.337.175.382-.091.3.032.44.5.181.57.272.777.647.783.906a2.27 2.27 0 0 0 .317 1.275c.117.2.155.447.259.66-.731.071-1.67-.99-1.935-1.579-.181-.4-.071-.777-.22-1.107-.129-.291-.479-1-.854-.874a2.353 2.353 0 0 1 .039-.764c0-.013.045-.259.045-.239-.006-.123.136-.168-.071-.24.46-.162.227-.563.214-.958-.013-.337-.175-.356-.3-.647s.006-.641-.006-.958A.755.755 0 0 0 89.77 89c-.013-.013-.265-.252-.265-.2-.026.227-.66.583-.867.6-.628.032-.188-.7-.188-1.068-.006-.3-.117-.246-.239-.44-.091-.162-.039-.35-.129-.5s-.33-.22-.434-.4c-.175-.311.045-.841-.337-1.042a2 2 0 0 1-.091.259c-.032-.078-.1-.136-.136-.2-.052.356-.2.35-.57.427-.188.039-.485.1-.57-.162-.091.1-.227.071-.3.123-.155.123-.071.045-.142.259a.825.825 0 0 1-.343.473c-.181.117-.531.084-.641.3a4.086 4.086 0 0 1-1.074.874c-.175.032-.084.129-.091.239s-.1.162-.239.162-.285-.084-.317.071-.013.175-.181.168-.3.045-.3.207a9.263 9.263 0 0 1-.013 1.126.88.88 0 0 1-.214.395.525.525 0 0 0-.162.427c.013.162.117.46-.071.46s-.259.084-.252.214a.453.453 0 0 0 .091.285c.052.071-.162-.052-.285-.006s-.123.259-.317.3-.207.259-.421-.052a1.32 1.32 0 0 1-.285-.913c0-.421.129-.4-.058-.66a1.135 1.135 0 0 1-.259-.757c.006-.291.091-.531-.026-.738s-.343-.485-.272-.731a9.326 9.326 0 0 0 .123-1.579c-.032-.252-.084-.317-.013-.531a1.486 1.486 0 0 0 .084-.375.814.814 0 0 1 .091-.33c.045-.078.052-.207-.039-.214s-.142.181-.136.246.175.162-.078.252-.447.227-.628.026-.44-.557-.337-.731.22-.123.337-.117.2-.078.136-.129-.162.1-.3-.071a1.821 1.821 0 0 0-.369-.427c-.123-.058-.091-.091-.078-.3s.136-.181-.032-.291-.155-.091-.058-.188-.039-.162-.168-.162-.557.052-.641-.071-.032 0-.168.032-.123.058-.2.006-.123-.006-.246-.032-.136-.032-.317-.162a1.316 1.316 0 0 0-.427-.227c-.259-.1-.337.032-.35-.239s.142-.375.084-.5a.3.3 0 0 0-.388-.058c-.078.071-.414.239-.447-.006s-.078-.252-.136-.5a2.278 2.278 0 0 0-.123-.414c-.045-.045-.039-.013.039-.291s.246-.382.084-.531-.375-.259-.421-.142-.1.46-.175.68-.162.175-.091.434a2.005 2.005 0 0 1 .039.822c-.045.2-.162.317-.052.239s.188-.427.24-.252a.51.51 0 0 1-.045.414c-.058.142-.207.511-.1.518a.449.449 0 0 1 .252.045c.1.058.136.162.227.1s.382-.473.6-.647.265-.239.265-.006-.2.647-.181.822.252.265.356.388a.811.811 0 0 1 .168.66c-.084.239-.57.615-.634.764s-.142-.071-.2.084a3.069 3.069 0 0 1-.1.369c-.052.142-.1.33-.22.33s-.246-.032-.3.129-.117.265-.246.272-.188-.032-.259.117-.162.162-.317.142a.418.418 0 0 0-.485.311c-.052.272-.117.22-.291.239s-.46-.123-.557.058-.181.3-.272.311-.382-.013-.511.013-.123.129-.214.175-.311.091-.33.058a3.718 3.718 0 0 1-.039-.841 4.84 4.84 0 0 1 .214-.861 6.875 6.875 0 0 0 .136-1.45c.026-.272-.052-.5-.006-.958a1.59 1.59 0 0 1 .207-.816 1.772 1.772 0 0 0 .168-.971 1.668 1.668 0 0 1 .155-.816c.117-.33.382-.958.272-1.036s-.155.052-.246.259-.3 1.172-.356 1.34a3.672 3.672 0 0 0-.214.447c-.084.239-.013.777-.091 1.023a5.079 5.079 0 0 0-.388 1.12A5.047 5.047 0 0 1 71 85.721c-.1.3-.252.259-.136.563a7.523 7.523 0 0 1 .188.977 1.889 1.889 0 0 1 .045.932.84.84 0 0 0-.084.356 2.281 2.281 0 0 0 .091.291c.006.032-.039.071-.013.155s.032.129.162.052.175-.091.22-.026-.045.123.239.006a1.248 1.248 0 0 1 .608-.013c.052-.006.181-.175.272-.175s.227.078.181.181-.162.032-.168.136.013.544-.071.57-.084.129-.084.227a6.162 6.162 0 0 1-.272.686 2.548 2.548 0 0 0-.22.57c-.052.239-.337.906-.382 1.036a3.515 3.515 0 0 1-.634.932 1.983 1.983 0 0 0-.608 1c-.052.33-.045.524-.207.673s-.129.583-.129.686.039.44.052.531-.006.1-.045.239a1.1 1.1 0 0 0 .155.608c.078.123.084.091.078.4a1.784 1.784 0 0 0 .155.861 2.137 2.137 0 0 1 .239.874 2.191 2.191 0 0 0 .091.718 4.134 4.134 0 0 1 .285.79c.039.33.129.731.006.874s-.207.874-.013 1.029a4.978 4.978 0 0 1 .693 1.631 4.077 4.077 0 0 0 .239.984 6.765 6.765 0 0 1 1 1.8 27.719 27.719 0 0 1-3.566-8.071 31.02 31.02 0 0 1-.227-12.984 26.881 26.881 0 0 1 3.469-8.453c.356-.479.084.22.058.447s-.22.68.032.6.272.052.272.285 1.172-1.327 1.172-1.327a3.446 3.446 0 0 1 .414-.563c.136-.117-.084-.2-.337-.026s0-.447 0-.447-.3.395-.272.117a2.42 2.42 0 0 1 .117-.511 2.218 2.218 0 0 0 .337-.531c0-.117.3-.117.44-.6s0-.285-.136.084a.739.739 0 0 1-.5.447s-.473.7-.272.311.272-.615.136-.615a39.172 39.172 0 0 1 5.03-5.11 17.222 17.222 0 0 1 6.6-3.534l.052-.22s1.366-.091 1.34.052-.252.3-.252.3-.589.563-.641.647a1 1 0 0 1-.725.343c-.285-.058-.22-.2-.22-.2s-.861.531-.757.531.369-.2.369-.1-.052.168.337-.032a.987.987 0 0 1 .725-.084s.5-.447.693-.447.311.22.032.252-.369.2-.032.136a3.554 3.554 0 0 0 .673-.2s.168-.168.168 0 .22.117.3.117.5.2.608.084.22-.252.136-.395-.22-.3.084-.479a1.719 1.719 0 0 1 .777-.142.277.277 0 0 1 .285-.168 1.773 1.773 0 0 0 .608-.22s1.45-.175 1.424-.006-2.285.311-2.647.628-.421.531-.252.673a1.589 1.589 0 0 1 .369.395c.032.084.168-.136.168-.252s.168-.2.272-.22.084-.252.2-.259a4.664 4.664 0 0 0 .893-.285c.388-.149.3.058.22.2s-.388.168-.5.337-.44.369-.524.563-.861.447-.977.447 0 .382.951-.2c.272-.168.259-.414.473-.142.117.136.285-.084-.117-.227a1.173 1.173 0 0 1 .252-.168c.084-.032.188-.311.285-.369s.388-.369.44-.285.421.084.524.22a1.531 1.531 0 0 1 .286-.23 1.677 1.677 0 0 1 .757-.058c.117.058.084-.142.252-.2a13.272 13.272 0 0 1 1.618-.2c.084.032.188-.117.188-.117s.227-.285.084-.343-.557-.311-.447-.388.421-.117.44-.032.479.285.479.285.421.252.2.311-.084.2.117.2.809.188.641.337a3.963 3.963 0 0 1-.757.337s.693-.136.757-.032a3.115 3.115 0 0 0 1.2.136c.136-.032.22-.22.356-.22s.725.026.641.22.311.285.311.285 0 .2.168.136.136-.227.3-.227.589.117.641 0 .084-.252-.032-.343-.117-.285-.22-.337-.337.032-.421 0-.3-.142-.3-.142-.175-.311 0-.311a6.126 6.126 0 0 1 1.534.22c.052.117-.337.117-.447.117s-.2.227-.052.252a1.166 1.166 0 0 1 .356.252h.951c.168 0 .168.142.356.136a7.219 7.219 0 0 1 .893-.058c.369.032.447.168.7.168a2.813 2.813 0 0 0 .673-.142l.3.052s-.369-.168-.136-.227a2 2 0 0 1 2.149.1c.252.136.285-.058.473-.032a.292.292 0 0 1 .071.019c-.052-.052-.1-.11-.1-.11s.058.052.214.026-.129-.071-.181-.091a1.767 1.767 0 0 0-.544-.084.414.414 0 0 1-.434-.175 1.055 1.055 0 0 0-.5-.395 1.016 1.016 0 0 0-.466-.136c-.026 0-.091-.188-.006-.181s.1-.168.129-.22-.291-.227-.343-.239a3.887 3.887 0 0 1-.783-.291c-.052-.058.032-.052.084-.045a27.147 27.147 0 0 0-8.1-1.2 27.841 27.841 0 0 0-5.385 55.141c-.447-.117-1.087-.285-1.159-.285-.091 0-1.333-.4-1.877-.589a4.706 4.706 0 0 0-.718-.214 1.082 1.082 0 0 1-.337-.155c-.227-.181.259-.078.718.078s.46.188.718.272a6.451 6.451 0 0 0 .822.168c.375.078.175.058.427.142s.252.006.518.155.356.084.511.162a.985.985 0 0 0 .524.052c.071-.026.084-.162.1-.162s.227.052.369.091a.349.349 0 0 0 .369-.1c.058-.1.395-.045.518.013a3.516 3.516 0 0 0 1.036.1c.414 0 .291.091.544.026a.9.9 0 0 1 .634-.039c.252.084.013.078.544.071s.757.032.926.032zm10.162-42.3c.045-.1-.013-.117-.013-.181s.091.026.239-.032-.013-.272-.084-.427a.5.5 0 0 1-.071-.44c.071-.2.272.162.544.311s.181.1.265.129a.493.493 0 0 0 .3-.026c.045-.026.006-.078.058-.123s.136.026.175.026.1-.091.2-.168.1-.207.129-.291.058-.1.142-.1a.2.2 0 0 0 .181-.084c.032-.058.071-.168.129-.259.1-.142.1.026.1.1a.3.3 0 0 1-.091.239c-.084.1-.188.091-.24.117s-.084.1-.129.252-.155.117-.207.162-.188.129-.162.2a.863.863 0 0 1 .058.3c.006.129-.136.091-.3.207s-.091.136-.091.239-.039.136-.071.117a.746.746 0 0 0-.337-.058c-.2-.006-.265-.006-.4-.006s-.045.078.013.155.071.078.071.188-.013.058-.1.052-.006.032-.155 0-.032-.136-.071-.22-.175-.1-.22-.207c-.037-.094.093-.074.138-.171zm-2.479 4.363c.013-.136.084-.091.227-.162.026-.006.032-.026.045-.032a.352.352 0 0 1 .181-.337 1.123 1.123 0 0 1 .168-.1c.013-.006.032-.006.045-.013a.53.53 0 0 0 .168-.188c.013-.071.026-.155.168-.168s.414 0 .479-.013.026-.1.084-.1a.445.445 0 0 0 .214-.1c.091-.071.045 0 .117.136s.123-.071.207-.181.026-.375.013-.5-.013-.175.136-.22.078.129.155.239.117-.032.142-.045a.663.663 0 0 0 .181-.136c.026-.045-.013-.162-.045-.207s-.123-.071-.155-.136.045-.142.168-.058c.1.091.039.2.155.155s.1-.227.091-.473a.693.693 0 0 0-.1-.382 1.236 1.236 0 0 1-.1-.46c0-.181.045-.22.045-.22a.143.143 0 0 0 .091.039c.045 0 .058-.091.091-.207s.039.058.123.168.46.608.583.777-.045.168-.071.188-.032.091-.013.117.078.045 0 .1-.091.006-.1.1.006.123.129.22.039.175.058.33c.026.175.207.511.175.66-.026.1-.239.239-.324.33a1.076 1.076 0 0 1-.032-.356c0 .006-.006.013-.013.026a1.485 1.485 0 0 1-.252.421c-.032-.052-.117-.091-.142-.142.032.337-.414.259-.589.117.246.816-.731.816-.524.188a.594.594 0 0 0-.693.162c.4-.1.848 0 .421.382-.265.239-.563.33-.6.084a.223.223 0 0 1-.078.058c-.052.026-.1.052-.155.084a1.292 1.292 0 0 1-.013.44c-.039.252.078 1-.35.861a.783.783 0 0 0 .265-.311c-.026-.162-.252-.078-.375-.123-.1-.045-.039-.3-.039-.421s.013-.1.117-.1.013-.078-.129-.227-.039.058-.039.22-.129.032-.155-.071a.265.265 0 0 0-.117-.181c-.058-.045-.045-.078-.032-.214z" transform="translate(-67.999 -63.999)" style="fill:#ffe6e6"/>
    <path data-name="路径 12997" d="M782.3 442.986a3.359 3.359 0 0 1 1.417 1.884l3.314-5.224a2.209 2.209 0 0 0-1.9-3.346 2.148 2.148 0 0 0-1.819.984l-3.314 5.2a2.823 2.823 0 0 1 .466-.032 3.411 3.411 0 0 1 1.836.534z" transform="translate(-733.915 -412.202)" style="fill:#f04e23"/>
    <path data-name="路径 12998" d="M785.058 438.184a3.359 3.359 0 0 1-1.417-1.884l-3.314 5.223a2.209 2.209 0 0 0 1.9 3.346 2.148 2.148 0 0 0 1.819-.984l3.314-5.2a2.823 2.823 0 0 1-.466.032 3.411 3.411 0 0 1-1.836-.533z" transform="translate(-747.53 -391.008)" style="fill:#f04e23"/>
</svg>
