<svg xmlns="http://www.w3.org/2000/svg" width="64.03" height="57.212" viewBox="0 0 64.03 57.212">
    <path data-name="路径 13000" d="M16.357 24.863a23.063 23.063 0 0 1-3.926.344c-5.889 0-10.8-2.192-12.121-5.12A3.7 3.7 0 0 0 0 21.543c0 3.631 5.578 6.543 12.464 6.543h1a11.286 11.286 0 0 1 2.928-3.271zm8.178-1.816a3.435 3.435 0 0 0 .343-1.5 3.746 3.746 0 0 0-.311-1.456 6.723 6.723 0 0 1-2.633 2.781h.523a9.618 9.618 0 0 1 2.077.18z" transform="translate(16.704 -.164)" style="fill:#ffe6e6"/>
    <path data-name="路径 13001" d="M12.464 480.851c-5.921 0-10.828-2.192-12.153-5.12A3.811 3.811 0 0 0 0 477.122c0 3.533 5.267 6.412 11.892 6.543a11.288 11.288 0 0 1 .834-2.912z" transform="translate(16.704 -451.49)" style="fill:#ffe6e6"/>
    <path data-name="路径 13002" d="M11.761 593.9c-5.61-.18-10.239-2.29-11.45-5.1A3.7 3.7 0 0 0 0 590.253c0 3.55 5.332 6.428 12.006 6.543a11.2 11.2 0 0 1-.262-2.47 3.991 3.991 0 0 1 .017-.426z" transform="translate(16.704 -560.222)" style="fill:#ffe6e6"/>
    <path data-name="路径 13003" d="M.311 701.437A3.812 3.812 0 0 0 0 702.893c0 3.631 5.578 6.543 12.464 6.543h1.374a11.858 11.858 0 0 1-1.439-2.879c-5.856-.017-10.763-2.192-12.088-5.12z" transform="translate(16.704 -668.543)" style="fill:#ffe6e6"/>
    <path data-name="路径 13004" d="M14.917 819.476a19.788 19.788 0 0 1-2.454.147c-5.921 0-10.828-2.192-12.153-5.12a3.7 3.7 0 0 0-.31 1.489c0 3.631 5.578 6.543 12.464 6.543a21.835 21.835 0 0 0 5.643-.72 10.37 10.37 0 0 1-3.19-2.339z" transform="translate(16.704 -777.274)" style="fill:#ffe6e6"/>
    <path data-name="路径 13005" d="M22.982 114.155a10.783 10.783 0 0 0 0 21.526 10.783 10.783 0 0 0 0-21.526zm4.007 12.857a.687.687 0 0 1-.72.671h-2.453v1.374a.818.818 0 1 1-1.636 0v-1.374h-2.552a.7.7 0 1 1 0-1.407h2.552v-.785h-2.552a.68.68 0 1 1 0-1.358h1.93l-2.192-3.026a.654.654 0 0 1 0-.949.752.752 0 0 1 1.014 0 .491.491 0 0 1 .115.164l2.4 3.271 2.388-3.271a.752.752 0 0 1 1.014 0 .622.622 0 0 1 .147.785l-2.192 3.026h1.93a.7.7 0 0 1 .72.687.687.687 0 0 1-.72.671h-2.448v.785H26.2a.687.687 0 0 1 .7.671zm-14.525-26.319C5.578 100.693 0 103.637 0 107.268s5.578 6.543 12.464 6.543 12.464-2.944 12.464-6.543-5.578-6.575-12.464-6.575zm7.41 5.1v1.9h-1.783a2.192 2.192 0 0 1-.213.376 1.946 1.946 0 0 1-.245.294l1.276.769-2.241 1.358-1.259-.769-.572.2h-.114l-.654.147v1.08h-3.126v-1.03l-.687-.2-.507-.147-1.259.769-2.274-1.325 1.259-.769-.245-.294a2.323 2.323 0 0 1-.23-.377H5.169V105.8h1.8a2.764 2.764 0 0 1 .507-.785l-1.259-.736 2.225-1.358 1.259.769a10.616 10.616 0 0 1 1.243-.311V102.3H14.1v1.08a9.814 9.814 0 0 1 1.243.311l1.259-.769 2.225 1.358-1.259.736a2.846 2.846 0 0 1 .523.752z" transform="translate(16.704 -90.829)" style="fill:#f04e23"/>
    <path data-name="路径 13006" d="M245.871 205.233v-.164a.8.8 0 0 0 0-.18l-.1-.164a4.9 4.9 0 0 0-6.87 0l-.1.164a.8.8 0 0 0 0 .18.848.848 0 0 0 0 .18v.425a.394.394 0 0 1 0 .131.229.229 0 0 1 0 .1 3.353 3.353 0 0 0 2.65 1.636 5.644 5.644 0 0 0 1.914 0 3.271 3.271 0 0 0 2.65-1.636v-.1a.392.392 0 0 0 0-.131.458.458 0 0 0 0-.147v-.294z" transform="translate(-212.941 -189.514)" style="fill:#ffe6e6"/>
    <path data-name="路径 13009" d="M12.464 100.693C5.578 100.693 0 103.637 0 107.268s5.578 6.543 12.464 6.543 12.464-2.944 12.464-6.543-5.578-6.575-12.464-6.575zm7.41 5.1v1.9h-1.783a2.192 2.192 0 0 1-.213.376 1.946 1.946 0 0 1-.245.294l1.276.769-2.241 1.358-1.259-.769-.572.2h-.114l-.654.147v1.08h-3.126v-1.03l-.687-.2-.507-.147-1.259.769-2.274-1.325 1.259-.769-.245-.294a2.323 2.323 0 0 1-.23-.377H5.169V105.8h1.8a2.764 2.764 0 0 1 .507-.785l-1.259-.736 2.225-1.358 1.259.769a10.616 10.616 0 0 1 1.243-.311V102.3H14.1v1.08a9.814 9.814 0 0 1 1.243.311l1.259-.769 2.225 1.358-1.259.736a2.846 2.846 0 0 1 .523.752z" transform="translate(16.704 -90.829)" style="fill:#ffe6e6"/>
    <path data-name="路径 13007" d="M101.488 126.35a25.134 25.134 0 0 1 42.9-16.625c.429.429.837.865 1.232 1.322l3.488-1.211A28.61 28.61 0 0 0 98 127.506v.055zm50.236 2.478a25.135 25.135 0 0 1-42.892 16.459 23.832 23.832 0 0 1-1.218-1.308l-3.5 1.2a28.605 28.605 0 0 0 51.1-17.553l-3.5 1.2z" transform="translate(-94.622 -98.9)" style="fill:#ffe6e6"/>
    <path data-name="路径 13008" d="m102.412 470.921 5.412-6.921 5.406 6.921zM49.2 464l5.454 6.921L60.122 464z" transform="translate(-49.2 -438.73)" style="fill:#ffe6e6"/>
</svg>
