<svg xmlns="http://www.w3.org/2000/svg" width="58" height="58" viewBox="0 0 58 58">
    <g data-name="组 6387">
        <path d="M162.791 183.365v-1.514l-1 .757zm47.356.141 1-.757-1-.757v1.508zM186.4 197.528l20.624-12.3V165.5a2.368 2.368 0 0 0-2.376-2.411h-36.494a2.368 2.368 0 0 0-2.376 2.411v19.729l20.623 12.3zm-25.873 13.266a1.563 1.563 0 0 0 1.547 1.571h48.657a1.752 1.752 0 0 0 1.688-1.265v-25.28l-25.131 15.014a1.85 1.85 0 0 1-1.638-.006l-24.318-14.578-.8-.408zm1.684 4.74a4.77 4.77 0 0 1-4.671-4.74v-28.433a1.244 1.244 0 0 1 .052-.114 2.961 2.961 0 0 1 .451-.509l4.742-4.1V165.5a5.547 5.547 0 0 1 5.5-5.581h14.851l2.259-2.006a1.3 1.3 0 0 1 .947-.378 1.679 1.679 0 0 1 1.053.384l2.253 2h14.992a5.547 5.547 0 0 1 5.5 5.581v12.279l4.758 4.116.364.37c.119.121.132.133.132.2v.42l.136 27.907a4.768 4.768 0 0 1-4.671 4.739z" transform="translate(-157.538 -157.534)" style="fill:#ffe6e6"/>
        <path d="M24.069 54.73a4.618 4.618 0 0 0-1.337-.114V49.5a3.407 3.407 0 0 0-.227-1.69 1.272 1.272 0 0 0-.528-.546 3.107 3.107 0 0 0-1.634-.235H3.727a3.107 3.107 0 0 0-1.634.235 1.272 1.272 0 0 0-.528.546 3.407 3.407 0 0 0-.227 1.69v12.445a3.4 3.4 0 0 0 .227 1.689 1.272 1.272 0 0 0 .528.547 3.107 3.107 0 0 0 1.634.235h12.611l1.351 1.337H3.856a4.271 4.271 0 0 1-2.317-.412A2.769 2.769 0 0 1 .4 64.174 4.558 4.558 0 0 1 0 61.8V49.651a4.576 4.576 0 0 1 .4-2.378 2.782 2.782 0 0 1 1.138-1.166 4.271 4.271 0 0 1 2.318-.407h16.357a4.271 4.271 0 0 1 2.317.412 2.763 2.763 0 0 1 1.137 1.166 4.561 4.561 0 0 1 .4 2.378v5.074zM5.014 49.708h6.017a1 1 0 0 1 0 2.006H5.014a1 1 0 0 1 0-2.006zm0 4.012h6.017a1 1 0 0 1 0 2.006H5.014a1 1 0 0 1 0-2.006zm0 4.012h6.017a1 1 0 0 1 0 2.006H5.014a1 1 0 0 1 0-2.006zm16.386-.42.107-.094a3.148 3.148 0 0 1 4.324.094 3.11 3.11 0 0 1 0 4.4l-3.806 3.779a.88.88 0 0 1-1.248 0l-3.811-3.78a3.11 3.11 0 0 1 0-4.426 3.142 3.142 0 0 1 4.311-.08l.118.1z" transform="translate(15.791 -36.753)" style="fill:#f04e23"/>
        <path data-name="路径 12999" d="M-489.915 6483.994v27.066l3.584.984h48.958l1.265-2.749v-26.741l-26.382 15.542z" transform="translate(492 -6456)" style="stroke:#ffe6e6;fill:#ffe6e6"/>
    </g>
</svg>
