<svg data-name="组 13129" xmlns="http://www.w3.org/2000/svg" width="239.001" height="205.47" viewBox="0 0 239.001 205.47">
    <defs>
        <clipPath id="4jed1e1voa">
            <path data-name="矩形 15659" style="fill:none" d="M0 0h239v205.47H0z"/>
        </clipPath>
    </defs>
    <path data-name="路径 13318" d="m102 162-24-22-52 14z" style="fill:#e25a42"/>
    <path data-name="路径 13319" d="M166.847 131 26 154v-51l140.847-23z" style="fill:#f86943"/>
    <path data-name="路径 13320" d="M0 89.03 16 91 0 79z"/>
    <path data-name="路径 13321" d="m5 42 10-1 5 11z" style="fill:#f86943"/>
    <path data-name="路径 13322" d="M59.382 22h9.176v14.265z"/>
    <path data-name="路径 13323" d="m104 15 5 4-2.5 13.382z" style="fill:#f86943"/>
    <path data-name="路径 13324" d="m147 8 6 5-8.382 10.691z"/>
    <path data-name="路径 13325" d="m192 0-3.617 15.845L197 6z" style="fill:#f86943"/>
    <path data-name="路径 13326" d="m223 26 7 2-12.853 8.265z"/>
    <path data-name="路径 13327" d="M221.736 69H239l-4.736-6.5z" style="fill:#f86943"/>
    <path data-name="路径 13328" d="M136 148h4.912l5.088 9z"/>
    <path data-name="路径 13329" d="M124 157v6.412L140 166z"/>
    <path data-name="路径 13330" d="m125 180 3-5 12 1.735z"/>
    <g data-name="组 13128">
        <g data-name="组 13127" style="clip-path:url(#4jed1e1voa)">
            <path data-name="路径 13331" d="M144.925 192.961a2.5 2.5 0 0 1-1.568-3.169L156.8 150a2.5 2.5 0 0 1 4.736 1.6l-13.443 39.791a2.5 2.5 0 0 1-3.169 1.568" style="fill:#010101"/>
            <path data-name="路径 13332" d="m202.855 194.062-3.539-1.2 4.161-12.316 3.539 1.2a2.266 2.266 0 0 1 1.422 2.87l-2.713 8.025a2.264 2.264 0 0 1-2.87 1.421" style="fill:#010101"/>
            <path data-name="路径 13333" d="m163.432 152.243 28.677 24.467-3.534 13.583-38.719 2.13z" style="fill:#010101"/>
            <path data-name="路径 13334" d="M192.992 192.841s-2.254 9.794-5.109 12-4.624-1.935-3.092-3.342 4.411-9.934 4.411-9.934z"/>
            <path data-name="路径 13335" d="m192.714 194.858-4.514-1.525a3.617 3.617 0 0 1-2.269-4.585l4.085-12.094a3.619 3.619 0 0 1 4.586-2.269l4.514 1.525a3.618 3.618 0 0 1 2.269 4.586l-4.085 12.093a3.616 3.616 0 0 1-4.585 2.269" style="fill:#f86943"/>
            <path data-name="路径 13336" d="m187.066 176.015-.334.989-23.88-13.672 1.821-5.392z" style="fill:#fff"/>
            <path data-name="路径 13337" d="M214.852 73 26 103V52l188.852-30z"/>
            <path data-name="路径 13338" d="M63.914 87.141a22.749 22.749 0 0 1-8.188 2.915C46.987 91.6 40.41 87.237 40.41 77.07A19.089 19.089 0 0 1 56.6 57.928c3.863-.681 6.3-.283 7.359.083l-.966 3.437a13.647 13.647 0 0 0-6.255-.185c-7.268 1.281-12.1 6.779-12.1 14.922 0 7.592 4.37 11.7 11.914 10.367a18.4 18.4 0 0 0 6.531-2.44z" style="fill:#fff"/>
            <path data-name="路径 13339" d="M94.457 66.94c0 10.674-6.486 17.476-14.4 18.871C71.87 87.255 66.12 81.92 66.12 72.535c0-9.846 6.118-17.365 14.4-18.825 8.463-1.492 13.937 4.03 13.937 13.23M70.4 71.689c0 6.624 3.588 11.926 9.89 10.815 6.347-1.119 9.935-7.594 9.935-14.633 0-6.165-3.22-12.038-9.89-10.862-6.623 1.168-9.935 7.87-9.935 14.68" style="fill:#fff"/>
            <path data-name="路径 13340" d="M125.783 63.626c-.23-4.285-.506-9.434-.46-13.307l-.138.025c-1.058 3.82-2.346 7.912-3.91 12.467L115.8 78.82l-3.036.535-5.014-13.884c-1.471-4.111-2.713-7.894-3.587-11.421l-.092.017c-.092 3.88-.322 9.119-.6 13.814l-.828 13.442-3.815.677 2.162-31.389 5.106-.9 5.29 14.065c1.288 3.591 2.346 6.809 3.127 9.892l.138-.024c.782-3.267 1.886-6.866 3.266-11.019l5.52-15.972 5.106-.9 1.932 30.667-3.91.689z" style="fill:#fff"/>
            <path data-name="路径 13341" d="M140.642 43.615v31.008l-4 .705V44.321z" style="fill:#fff"/>
            <path data-name="路径 13342" d="M147.634 73.39V42.382l4.37-.77 9.935 13.936a69.919 69.919 0 0 1 5.566 9.094l.092-.063c-.368-4.075-.46-7.831-.46-12.662V38.944l3.771-.666v31.008l-4.047.714-9.844-14a78.246 78.246 0 0 1-5.8-9.329l-.137.07c.229 3.87.321 7.58.321 12.733v13.251z" style="fill:#fff"/>
            <path data-name="路径 13343" d="M201.5 62.512a33.042 33.042 0 0 1-9.521 3.381c-4.692.827-8.556.312-11.593-2.051-2.668-2.106-4.323-5.955-4.323-10.785.045-9.254 6.394-17.136 16.789-18.969a18.086 18.086 0 0 1 7.728.063l-.966 3.437a15.13 15.13 0 0 0-6.855-.127c-7.543 1.33-12.464 6.891-12.464 14.666 0 7.867 4.738 11.678 11.959 10.405a14.8 14.8 0 0 0 5.336-1.769v-9.247l-6.3 1.111v-3.221l10.211-1.8z" style="fill:#fff"/>
            <path data-name="路径 13344" d="M43.278 136.493a12.841 12.841 0 0 0 7.176.759c4.094-.722 6.486-3.306 6.486-6.434 0-2.9-1.657-4.263-5.842-5.135-5.06-.9-8.188-2.973-8.188-7.343 0-4.83 4-9.124 10.028-10.187a13.077 13.077 0 0 1 6.854.31l-1.1 3.46a11.3 11.3 0 0 0-5.888-.433c-4.232.746-5.842 3.56-5.842 5.676 0 2.9 1.886 3.992 6.163 4.894 5.244 1.1 7.912 3.16 7.912 7.714 0 4.784-3.542 9.55-10.856 10.839-2.989.527-6.255.23-7.911-.583z"/>
            <path data-name="路径 13345" d="M93 116.776c0 10.674-6.486 17.476-14.4 18.871-8.187 1.443-13.936-3.891-13.936-13.276 0-9.846 6.117-17.365 14.4-18.825C87.529 102.054 93 107.575 93 116.776m-24.057 4.749c0 6.624 3.588 11.926 9.89 10.815 6.347-1.12 9.935-7.594 9.935-14.633 0-6.165-3.22-12.038-9.889-10.862-6.624 1.168-9.936 7.87-9.936 14.68"/>
            <path data-name="路径 13346" d="M124.7 111.188c0 10.674-6.486 17.476-14.4 18.871-8.187 1.443-13.937-3.892-13.937-13.276 0-9.846 6.118-17.365 14.4-18.825 8.463-1.492 13.937 4.029 13.937 13.23m-24.057 4.749c0 6.624 3.588 11.926 9.89 10.814 6.347-1.119 9.935-7.593 9.935-14.632 0-6.165-3.22-12.038-9.89-10.862-6.623 1.168-9.935 7.87-9.935 14.68"/>
            <path data-name="路径 13347" d="M129.9 126.1V95.089l4.37-.77 9.936 13.936a69.917 69.917 0 0 1 5.566 9.094l.091-.063c-.367-4.075-.459-7.831-.459-12.662V91.651l3.771-.666v31.008l-4.047.714-9.843-14a78.128 78.128 0 0 1-5.8-9.329l-.138.07c.23 3.87.323 7.58.323 12.732v13.25z"/>
        </g>
    </g>
</svg>
