<svg id="数据导出-01" xmlns="http://www.w3.org/2000/svg" width="15" height="15" viewBox="0 0 15 15">
    <defs>
        <style>
            .cls-1{fill:#fb6943}
        </style>
    </defs>
    <path id="路径" class="cls-1" d="M14.465 3.751a.535.535 0 0 0-.535.536v8.19a1.451 1.451 0 0 1-1.452 1.452H2.527a1.454 1.454 0 0 1-1.456-1.452v-8.19A1.61 1.61 0 0 1 2.68 2.679h9.429l-.7.707a.536.536 0 1 0 .761.755l1.607-1.62a.536.536 0 0 0 0-.756L12.167.157a.536.536 0 0 0-.758.758l.693.693H2.68A2.678 2.678 0 0 0 0 4.287v8.19A2.521 2.521 0 0 0 2.527 15h9.95A2.517 2.517 0 0 0 15 12.477v-8.19a.535.535 0 0 0-.535-.536z"/>
    <path id="形状" class="cls-1" d="M6 6.5v-3a.5.5 0 1 1 1 0v3a.5.5 0 1 1-1 0zm-3 0v-6a.5.5 0 1 1 1 0v6a.5.5 0 1 1-1 0zm-2.75.433A.5.5 0 0 1 0 6.5v-2a.5.5 0 0 1 1 0v2a.5.5 0 0 1-.5.5.494.494 0 0 1-.25-.067z" transform="translate(4 5)"/>
</svg>
