<svg xmlns="http://www.w3.org/2000/svg" width="42" height="32" viewBox="0 0 42 32">
    <g data-name="组 8307" transform="translate(-329 -892)">
        <rect data-name="矩形 11013" width="42" height="32" rx="6" transform="translate(329 892)" style="fill:#f5f5f5"/>
        <path d="M19.561 20H1.165a.8.8 0 0 1-.8-.781V.8a.8.8 0 1 1 1.61 0v17.619h17.586a.8.8 0 0 1 0 1.609z" transform="translate(339.229 897.972)" style="fill:#707a8a"/>
        <path data-name="bg-data" d="m3.222 16.448 2.609-4.656a.476.476 0 0 1 .609-.2l2.495 1.152 2.647-3.809a.476.476 0 0 1 .6-.152l2.466 1.238 3.58-5.608a.39.39 0 0 1 .714.209v11.569a.866.866 0 0 1-.857.857H3.65a.448.448 0 0 1-.428-.6z" transform="translate(339.229 897.972)" style="fill:#fa6400"/>
    </g>
</svg>
