<svg width="440" height="174" viewBox="0 0 440 174" fill="none" xmlns="http://www.w3.org/2000/svg">
<rect x="0.5" y="0.5" width="439" height="76" rx="7.5" fill="#161F2C"/>
<rect x="8" y="9" width="26.5" height="26.5" rx="6" fill="#383C45"/>
<path d="M19.082 22.6816H23.418V24.9888H19.082V22.6816Z" fill="#7C8499"/>
<path d="M226.949 35H212.629C212.793 33.5859 213.289 32.2578 214.117 31.0156C214.953 29.7656 216.516 28.293 218.805 26.5977C220.203 25.5586 221.098 24.7695 221.488 24.2305C221.879 23.6914 222.074 23.1797 222.074 22.6953C222.074 22.1719 221.879 21.7266 221.488 21.3594C221.105 20.9844 220.621 20.7969 220.035 20.7969C219.426 20.7969 218.926 20.9883 218.535 21.3711C218.152 21.7539 217.895 22.4297 217.762 23.3984L212.98 23.0117C213.168 21.668 213.512 20.6211 214.012 19.8711C214.512 19.1133 215.215 18.5352 216.121 18.1367C217.035 17.7305 218.297 17.5273 219.906 17.5273C221.586 17.5273 222.891 17.7188 223.82 18.1016C224.758 18.4844 225.492 19.0742 226.023 19.8711C226.562 20.6602 226.832 21.5469 226.832 22.5312C226.832 23.5781 226.523 24.5781 225.906 25.5312C225.297 26.4844 224.184 27.5312 222.566 28.6719C221.605 29.3359 220.961 29.8008 220.633 30.0664C220.312 30.332 219.934 30.6797 219.496 31.1094H226.949V35Z" fill="white"/>
<rect x="405.5" y="9" width="26.5" height="26.5" rx="6" fill="#383C45"/>
<path d="M414.729 21.2021H417.534V18.3823H419.9V21.2021H422.72V23.5752H419.9V26.3804H417.534V23.5752H414.729V21.2021Z" fill="#7C8499"/>
<path d="M178.091 52.2627H188.176V54.9141H184.792V63H181.475V54.9141H178.091V52.2627ZM188.872 55.2217H191.663V56.4961C191.931 55.9443 192.207 55.5659 192.49 55.3608C192.778 55.1509 193.132 55.0459 193.552 55.0459C193.992 55.0459 194.473 55.1826 194.995 55.4561L194.072 57.5801C193.721 57.4336 193.442 57.3604 193.237 57.3604C192.847 57.3604 192.544 57.5215 192.329 57.8438C192.021 58.2979 191.868 59.1475 191.868 60.3926V63H188.872V55.2217ZM198.225 57.7412L195.376 57.4409C195.483 56.9429 195.637 56.5522 195.837 56.269C196.042 55.981 196.335 55.7319 196.716 55.522C196.99 55.3706 197.366 55.2534 197.844 55.1704C198.323 55.0874 198.84 55.0459 199.397 55.0459C200.291 55.0459 201.008 55.0972 201.55 55.1997C202.092 55.2974 202.544 55.5049 202.905 55.8223C203.159 56.042 203.359 56.3545 203.506 56.7598C203.652 57.1602 203.726 57.5435 203.726 57.9097V61.3447C203.726 61.7109 203.748 61.999 203.792 62.209C203.84 62.4141 203.943 62.6777 204.099 63H201.301C201.189 62.7998 201.116 62.6484 201.082 62.5459C201.047 62.4385 201.013 62.2725 200.979 62.0479C200.588 62.4238 200.2 62.6924 199.814 62.8535C199.287 63.0684 198.674 63.1758 197.976 63.1758C197.048 63.1758 196.343 62.9609 195.859 62.5312C195.381 62.1016 195.142 61.5718 195.142 60.9419C195.142 60.3511 195.315 59.8652 195.662 59.4844C196.008 59.1035 196.648 58.8203 197.581 58.6348C198.699 58.4102 199.424 58.2539 199.756 58.166C200.088 58.0732 200.439 57.9536 200.811 57.8071C200.811 57.4409 200.735 57.1846 200.583 57.0381C200.432 56.8916 200.166 56.8184 199.785 56.8184C199.297 56.8184 198.931 56.8965 198.687 57.0527C198.496 57.1748 198.342 57.4043 198.225 57.7412ZM200.811 59.3086C200.4 59.4551 199.973 59.5845 199.529 59.6968C198.923 59.8579 198.54 60.0166 198.379 60.1729C198.213 60.334 198.13 60.5171 198.13 60.7222C198.13 60.9565 198.21 61.1494 198.372 61.3008C198.538 61.4473 198.779 61.5205 199.097 61.5205C199.429 61.5205 199.736 61.4399 200.02 61.2788C200.308 61.1177 200.51 60.9224 200.627 60.6929C200.75 60.4585 200.811 60.1558 200.811 59.7847V59.3086ZM198.584 52.1748H200.701L202.327 54.2695H200.51L199.617 53.1489L198.723 54.2695H196.907L198.584 52.1748ZM205.513 55.2217H208.289V56.4888C208.704 55.9712 209.124 55.6025 209.548 55.3828C209.973 55.1582 210.491 55.0459 211.101 55.0459C211.926 55.0459 212.571 55.2925 213.035 55.7856C213.503 56.2739 213.738 57.0308 213.738 58.0562V63H210.742V58.7227C210.742 58.2344 210.652 57.8901 210.471 57.6899C210.291 57.4849 210.037 57.3823 209.709 57.3823C209.348 57.3823 209.055 57.519 208.831 57.7925C208.606 58.0659 208.494 58.5566 208.494 59.2646V63H205.513V55.2217ZM224.124 52.2627V55.2217H225.764V57.397H224.124V60.1582C224.124 60.4902 224.155 60.71 224.219 60.8174C224.316 60.9834 224.487 61.0664 224.731 61.0664C224.951 61.0664 225.259 61.0029 225.654 60.876L225.874 62.9341C225.137 63.0952 224.448 63.1758 223.809 63.1758C223.066 63.1758 222.52 63.0806 222.168 62.8901C221.816 62.6997 221.555 62.4116 221.384 62.0259C221.218 61.6353 221.135 61.0054 221.135 60.1362V57.397H220.037V55.2217H221.135V53.7935L224.124 52.2627ZM227.222 55.2217H230.012V56.4961C230.281 55.9443 230.557 55.5659 230.84 55.3608C231.128 55.1509 231.482 55.0459 231.902 55.0459C232.341 55.0459 232.822 55.1826 233.345 55.4561L232.422 57.5801C232.07 57.4336 231.792 57.3604 231.587 57.3604C231.196 57.3604 230.894 57.5215 230.679 57.8438C230.371 58.2979 230.217 59.1475 230.217 60.3926V63H227.222V55.2217ZM241.567 58.89C241.567 59.57 241.472 60.175 241.282 60.705C241.102 61.235 240.837 61.685 240.487 62.055C240.147 62.415 239.732 62.69 239.242 62.88C238.752 63.06 238.197 63.15 237.577 63.15C237.007 63.15 236.477 63.06 235.987 62.88C235.507 62.69 235.092 62.415 234.742 62.055C234.392 61.685 234.117 61.235 233.917 60.705C233.727 60.175 233.632 59.57 233.632 58.89C233.632 57.98 233.792 57.215 234.112 56.595C234.432 55.965 234.892 55.485 235.492 55.155C236.092 54.825 236.802 54.66 237.622 54.66C238.392 54.66 239.072 54.825 239.662 55.155C240.252 55.485 240.717 55.965 241.057 56.595C241.397 57.215 241.567 57.98 241.567 58.89ZM235.912 58.89C235.912 59.43 235.967 59.885 236.077 60.255C236.197 60.615 236.382 60.89 236.632 61.08C236.882 61.26 237.207 61.35 237.607 61.35C238.007 61.35 238.327 61.26 238.567 61.08C238.817 60.89 238.997 60.615 239.107 60.255C239.227 59.885 239.287 59.43 239.287 58.89C239.287 58.35 239.227 57.9 239.107 57.54C238.997 57.18 238.817 56.91 238.567 56.73C238.317 56.55 237.992 56.46 237.592 56.46C237.002 56.46 236.572 56.665 236.302 57.075C236.042 57.475 235.912 58.08 235.912 58.89ZM237.592 66.15C237.252 66.15 236.962 66.07 236.722 65.91C236.492 65.75 236.377 65.465 236.377 65.055C236.377 64.635 236.492 64.345 236.722 64.185C236.962 64.035 237.252 63.96 237.592 63.96C237.922 63.96 238.207 64.035 238.447 64.185C238.687 64.345 238.807 64.635 238.807 65.055C238.807 65.465 238.687 65.75 238.447 65.91C238.207 66.07 237.922 66.15 237.592 66.15ZM243.145 55.2217H245.92V56.4888C246.335 55.9712 246.755 55.6025 247.18 55.3828C247.605 55.1582 248.123 55.0459 248.733 55.0459C249.558 55.0459 250.203 55.2925 250.667 55.7856C251.135 56.2739 251.37 57.0308 251.37 58.0562V63H248.374V58.7227C248.374 58.2344 248.284 57.8901 248.103 57.6899C247.922 57.4849 247.668 57.3823 247.341 57.3823C246.98 57.3823 246.687 57.519 246.462 57.7925C246.238 58.0659 246.125 58.5566 246.125 59.2646V63H243.145V55.2217ZM258.562 55.2217H261.353V62.5679L261.36 62.9121C261.36 63.4004 261.255 63.8643 261.045 64.3037C260.84 64.748 260.564 65.1069 260.217 65.3804C259.875 65.6538 259.438 65.8516 258.906 65.9736C258.379 66.0957 257.773 66.1567 257.09 66.1567C255.527 66.1567 254.453 65.9224 253.867 65.4536C253.286 64.9849 252.996 64.3574 252.996 63.5713C252.996 63.4736 253 63.3418 253.01 63.1758L255.903 63.5054C255.977 63.7739 256.089 63.9595 256.24 64.062C256.46 64.2134 256.736 64.2891 257.068 64.2891C257.498 64.2891 257.817 64.1743 258.027 63.9448C258.242 63.7153 258.35 63.3149 258.35 62.7437V61.5645C258.057 61.9111 257.764 62.1626 257.471 62.3188C257.012 62.563 256.516 62.6851 255.984 62.6851C254.944 62.6851 254.104 62.231 253.464 61.3228C253.01 60.6782 252.783 59.8262 252.783 58.7666C252.783 57.5557 253.076 56.6328 253.662 55.998C254.248 55.3633 255.015 55.0459 255.962 55.0459C256.567 55.0459 257.065 55.1484 257.456 55.3535C257.852 55.5586 258.22 55.8979 258.562 56.3716V55.2217ZM255.757 58.9937C255.757 59.5552 255.876 59.9727 256.116 60.2461C256.355 60.5146 256.67 60.6489 257.061 60.6489C257.432 60.6489 257.742 60.5098 257.991 60.2314C258.245 59.9482 258.372 59.5234 258.372 58.957C258.372 58.3906 258.24 57.9585 257.976 57.6606C257.712 57.3579 257.39 57.2065 257.009 57.2065C256.628 57.2065 256.323 57.3457 256.094 57.624C255.869 57.8975 255.757 58.354 255.757 58.9937Z" fill="#7C8499"/>
<rect x="0.5" y="0.5" width="439" height="76" rx="7.5" stroke="#55657E"/>
<rect y="97" width="440" height="77" rx="8" fill="#F04E23"/>
<g filter="url(#filter0_d_1722_52048)">
<path d="M184.448 130.115H191.901C193.144 130.115 194.096 130.423 194.758 131.038C195.426 131.653 195.76 132.415 195.76 133.323C195.76 134.085 195.522 134.738 195.048 135.283C194.731 135.646 194.269 135.934 193.659 136.145C194.585 136.367 195.265 136.751 195.698 137.296C196.138 137.835 196.357 138.515 196.357 139.335C196.357 140.003 196.202 140.604 195.892 141.137C195.581 141.67 195.156 142.092 194.617 142.402C194.283 142.596 193.779 142.736 193.105 142.824C192.209 142.941 191.614 143 191.321 143H184.448V130.115ZM188.465 135.169H190.196C190.817 135.169 191.248 135.063 191.488 134.853C191.734 134.636 191.857 134.325 191.857 133.921C191.857 133.546 191.734 133.253 191.488 133.042C191.248 132.831 190.826 132.726 190.223 132.726H188.465V135.169ZM188.465 140.231H190.495C191.181 140.231 191.664 140.111 191.945 139.871C192.227 139.625 192.367 139.297 192.367 138.887C192.367 138.506 192.227 138.201 191.945 137.973C191.67 137.738 191.184 137.621 190.486 137.621H188.465V140.231ZM205.735 129.122C205.675 129.998 205.369 130.712 204.817 131.264C204.277 131.816 203.509 132.092 202.513 132.092C201.481 132.092 200.707 131.822 200.191 131.282C199.687 130.742 199.411 130.022 199.363 129.122H200.677C200.725 129.626 200.917 130.004 201.253 130.256C201.589 130.496 202.015 130.616 202.531 130.616C203.023 130.616 203.443 130.484 203.791 130.22C204.139 129.956 204.337 129.59 204.385 129.122H205.735ZM204.637 127.988C204.481 128.168 204.295 128.372 204.079 128.6C203.875 128.816 203.665 129.032 203.449 129.248C203.233 129.452 203.023 129.638 202.819 129.806H201.667V129.572C201.775 129.404 201.889 129.224 202.009 129.032C202.129 128.828 202.249 128.624 202.369 128.42C202.489 128.204 202.597 128 202.693 127.808H204.637V127.988ZM202.567 132.974C203.887 132.974 204.895 133.262 205.591 133.838C206.299 134.402 206.653 135.272 206.653 136.448V143H204.781L204.259 141.668H204.187C203.911 142.016 203.623 142.304 203.323 142.532C203.035 142.76 202.699 142.922 202.315 143.018C201.943 143.126 201.481 143.18 200.929 143.18C200.353 143.18 199.831 143.072 199.363 142.856C198.907 142.628 198.547 142.286 198.283 141.83C198.019 141.362 197.887 140.774 197.887 140.066C197.887 139.022 198.253 138.254 198.985 137.762C199.717 137.258 200.815 136.982 202.279 136.934L203.989 136.88V136.448C203.989 135.932 203.851 135.554 203.575 135.314C203.311 135.074 202.939 134.954 202.459 134.954C201.979 134.954 201.511 135.026 201.055 135.17C200.599 135.302 200.143 135.47 199.687 135.674L198.805 133.856C199.333 133.58 199.915 133.364 200.551 133.208C201.199 133.052 201.871 132.974 202.567 132.974ZM202.945 138.482C202.081 138.506 201.481 138.662 201.145 138.95C200.809 139.238 200.641 139.616 200.641 140.084C200.641 140.492 200.761 140.786 201.001 140.966C201.241 141.134 201.553 141.218 201.937 141.218C202.513 141.218 202.999 141.05 203.395 140.714C203.791 140.366 203.989 139.88 203.989 139.256V138.446L202.945 138.482ZM213.391 130.115V133.666H215.359V136.276H213.391V139.59C213.391 139.988 213.429 140.252 213.505 140.381C213.622 140.58 213.827 140.68 214.12 140.68C214.384 140.68 214.753 140.604 215.228 140.451L215.491 142.921C214.606 143.114 213.78 143.211 213.013 143.211C212.122 143.211 211.466 143.097 211.044 142.868C210.622 142.64 210.309 142.294 210.104 141.831C209.904 141.362 209.805 140.606 209.805 139.563V136.276H208.486V133.666H209.805V131.952L213.391 130.115ZM232.911 131.135H234.528V132.567H232.911V143H229.562V141.62C229.094 142.206 228.666 142.602 228.279 142.807C227.764 143.076 227.189 143.211 226.557 143.211C225.285 143.211 224.312 142.728 223.639 141.761C222.971 140.794 222.637 139.619 222.637 138.236C222.637 136.689 223.006 135.506 223.744 134.686C224.488 133.865 225.432 133.455 226.574 133.455C227.131 133.455 227.635 133.549 228.086 133.736C228.543 133.924 228.947 134.205 229.299 134.58V132.567H226.609V131.135H229.299V130.115H232.911V131.135ZM229.325 138.307C229.325 137.574 229.17 137.029 228.859 136.672C228.549 136.309 228.156 136.127 227.682 136.127C227.266 136.127 226.917 136.3 226.636 136.646C226.354 136.991 226.214 137.571 226.214 138.386C226.214 139.147 226.357 139.707 226.645 140.064C226.938 140.416 227.298 140.592 227.726 140.592C228.183 140.592 228.563 140.413 228.868 140.056C229.173 139.698 229.325 139.115 229.325 138.307ZM236.17 131.858C236.374 131.63 236.584 131.378 236.8 131.102C237.016 130.814 237.232 130.526 237.448 130.238C237.676 129.938 237.88 129.656 238.06 129.392H240.832C241.024 129.656 241.228 129.938 241.444 130.238C241.66 130.526 241.876 130.814 242.092 131.102C242.32 131.378 242.53 131.63 242.722 131.858V132.092H241.3C241 131.888 240.694 131.666 240.382 131.426C240.07 131.174 239.758 130.91 239.446 130.634C239.146 130.91 238.834 131.174 238.51 131.426C238.198 131.666 237.892 131.888 237.592 132.092H236.17V131.858ZM235.612 130.382C235.276 130.13 234.922 129.854 234.55 129.554C234.19 129.242 233.878 128.912 233.614 128.564V128.384H235.738C235.93 128.768 236.122 129.098 236.314 129.374C236.506 129.638 236.716 129.896 236.944 130.148V130.382H235.612ZM239.446 132.974C240.766 132.974 241.774 133.262 242.47 133.838C243.178 134.402 243.532 135.272 243.532 136.448V143H241.66L241.138 141.668H241.066C240.79 142.016 240.502 142.304 240.202 142.532C239.914 142.76 239.578 142.922 239.194 143.018C238.822 143.126 238.36 143.18 237.808 143.18C237.232 143.18 236.71 143.072 236.242 142.856C235.786 142.628 235.426 142.286 235.162 141.83C234.898 141.362 234.766 140.774 234.766 140.066C234.766 139.022 235.132 138.254 235.864 137.762C236.596 137.258 237.694 136.982 239.158 136.934L240.868 136.88V136.448C240.868 135.932 240.73 135.554 240.454 135.314C240.19 135.074 239.818 134.954 239.338 134.954C238.858 134.954 238.39 135.026 237.934 135.17C237.478 135.302 237.022 135.47 236.566 135.674L235.684 133.856C236.212 133.58 236.794 133.364 237.43 133.208C238.078 133.052 238.75 132.974 239.446 132.974ZM239.824 138.482C238.96 138.506 238.36 138.662 238.024 138.95C237.688 139.238 237.52 139.616 237.52 140.084C237.52 140.492 237.64 140.786 237.88 140.966C238.12 141.134 238.432 141.218 238.816 141.218C239.392 141.218 239.878 141.05 240.274 140.714C240.67 140.366 240.868 139.88 240.868 139.256V138.446L239.824 138.482ZM255.789 143H252.449V141.488C251.951 142.109 251.447 142.552 250.938 142.815C250.434 143.079 249.812 143.211 249.074 143.211C248.09 143.211 247.316 142.918 246.754 142.332C246.197 141.74 245.919 140.832 245.919 139.607V133.666H249.514V138.799C249.514 139.385 249.622 139.801 249.839 140.047C250.056 140.293 250.36 140.416 250.753 140.416C251.181 140.416 251.529 140.252 251.799 139.924C252.074 139.596 252.212 139.007 252.212 138.157V133.666H255.789V143Z" fill="white"/>
</g>
<defs>
<filter id="filter0_d_1722_52048" x="180.449" y="125.809" width="79.3398" height="23.4023" filterUnits="userSpaceOnUse" color-interpolation-filters="sRGB">
<feFlood flood-opacity="0" result="BackgroundImageFix"/>
<feColorMatrix in="SourceAlpha" type="matrix" values="0 0 0 0 0 0 0 0 0 0 0 0 0 0 0 0 0 0 127 0" result="hardAlpha"/>
<feOffset dy="2"/>
<feGaussianBlur stdDeviation="2"/>
<feComposite in2="hardAlpha" operator="out"/>
<feColorMatrix type="matrix" values="0 0 0 0 0 0 0 0 0 0 0 0 0 0 0 0 0 0 0.3 0"/>
<feBlend mode="normal" in2="BackgroundImageFix" result="effect1_dropShadow_1722_52048"/>
<feBlend mode="normal" in="SourceGraphic" in2="effect1_dropShadow_1722_52048" result="shape"/>
</filter>
</defs>
</svg>
