<svg width="460" height="193" viewBox="0 0 460 193" fill="none" xmlns="http://www.w3.org/2000/svg">
<rect width="460" height="192.109" rx="10" fill="#F4F7FD"/>
<rect x="25" y="20" width="410.285" height="152.109" rx="3.87518" fill="white"/>
<g filter="url(#filter0_d_627_19607)">
<rect x="79.7109" y="29.9833" width="58.5753" height="82.2421" rx="9.17088" fill="white" stroke="#ECECEC" stroke-width="0.591669" stroke-dasharray="4.73 4.73"/>
<g clip-path="url(#clip0_627_19607)">
<rect x="79.415" y="29.6875" width="59.1669" height="82.8337" rx="7.10003" fill="url(#paint0_linear_627_19607)"/>
<path d="M94.7098 50.6433L99.1065 54.125L96.9974 55.9551L92.6676 52.4734L94.7098 50.6433ZM99.2181 44.5504V45.3204C99.2181 46.5553 99.0507 47.6638 98.7159 48.6458C98.3886 49.6278 97.9162 50.4648 97.2987 51.1566C96.6812 51.8411 95.9522 52.3656 95.1115 52.7301C94.2708 53.0946 93.3372 53.2769 92.3105 53.2769C91.2913 53.2769 90.3577 53.0946 89.5096 52.7301C88.6615 52.3656 87.9287 51.8411 87.3112 51.1566C86.6937 50.4648 86.2139 49.6278 85.8717 48.6458C85.5369 47.6638 85.3695 46.5553 85.3695 45.3204V44.5504C85.3695 43.308 85.5369 42.1995 85.8717 41.225C86.2139 40.2429 86.69 39.406 87.3001 38.7141C87.9101 38.0223 88.6392 37.4941 89.4873 37.1295C90.3354 36.765 91.269 36.5827 92.2882 36.5827C93.3149 36.5827 94.2485 36.765 95.0892 37.1295C95.9373 37.4941 96.6701 38.0223 97.2876 38.7141C97.905 39.406 98.3812 40.2429 98.7159 41.225C99.0507 42.1995 99.2181 43.308 99.2181 44.5504ZM95.8369 45.3204V44.5281C95.8369 43.6651 95.755 42.9063 95.5914 42.2516C95.4351 41.5969 95.2045 41.0464 94.8995 40.6C94.6019 40.1537 94.2337 39.8189 93.7947 39.5957C93.3558 39.3651 92.8536 39.2498 92.2882 39.2498C91.7228 39.2498 91.2207 39.3651 90.7817 39.5957C90.3428 39.8189 89.9746 40.1537 89.677 40.6C89.3794 41.0464 89.1525 41.5969 88.9963 42.2516C88.84 42.9063 88.7619 43.6651 88.7619 44.5281V45.3204C88.7619 46.1759 88.84 46.9347 88.9963 47.5969C89.1525 48.2515 89.3794 48.8058 89.677 49.2596C89.982 49.7059 90.354 50.0444 90.7929 50.2751C91.2393 50.5057 91.7451 50.621 92.3105 50.621C92.8759 50.621 93.3744 50.5057 93.8059 50.2751C94.2448 50.0444 94.6131 49.7059 94.9106 49.2596C95.2157 48.8058 95.4463 48.2515 95.6025 47.5969C95.7587 46.9347 95.8369 46.1759 95.8369 45.3204Z" fill="#242424"/>
<path fill-rule="evenodd" clip-rule="evenodd" d="M95.3786 70.5229C97.9047 70.5513 99.4588 68.9331 98.604 67.2298C97.7492 65.5264 96.8971 65.1432 95.5553 63.9083C94.2128 62.6734 92.2607 60.5371 92.2699 60.0332C92.2798 60.5371 90.4081 62.6734 89.0657 63.9083C87.7239 65.1432 86.8724 65.5264 86.0169 67.2298C85.1622 68.9331 86.7168 70.5513 89.2423 70.5229C90.9762 70.5034 91.7565 69.5075 92.0749 68.8848L92.0749 69.6997C92.0749 69.6997 91.5213 72.6393 87.6145 72.9611L86.9917 72.9611L86.9917 73.4192L97.6299 73.4192L97.6299 72.9611L97.0065 72.9611C93.1003 72.6393 92.5461 69.6997 92.5461 69.6997L92.5461 68.9918C92.9211 69.6151 93.7409 70.5045 95.3786 70.5229Z" fill="#242424"/>
<path fill-rule="evenodd" clip-rule="evenodd" d="M127.504 101.963C132.998 102.025 136.377 98.5058 134.518 94.8016C132.659 91.0973 130.806 90.2639 127.888 87.5784C124.969 84.8928 120.724 80.2472 120.744 79.1514C120.765 80.2472 116.695 84.8928 113.775 87.5784C110.857 90.2639 109.006 91.0973 107.145 94.8016C105.287 98.5058 108.668 102.025 114.16 101.963C117.93 101.921 119.627 99.7548 120.319 98.4007L120.319 100.173C120.319 100.173 119.116 106.566 110.62 107.265L109.265 107.265L109.265 108.262L132.4 108.262L132.4 107.265L131.044 107.265C122.55 106.566 121.344 100.173 121.344 100.173L121.344 98.6334C122.16 99.989 123.943 101.923 127.504 101.963Z" fill="#242424"/>
</g>
<rect x="80.0067" y="30.2792" width="57.9836" height="81.6504" rx="6.50836" stroke="#15DB41" stroke-width="1.18334"/>
</g>
<g filter="url(#filter1_d_627_19607)">
<rect x="103.711" y="41.9833" width="58.5753" height="82.2421" rx="9.17088" fill="white" stroke="#ECECEC" stroke-width="0.591669" stroke-dasharray="4.73 4.73"/>
<g clip-path="url(#clip1_627_19607)">
<rect x="103.415" y="41.6875" width="59.1669" height="82.8337" rx="7.10003" fill="url(#paint1_linear_627_19607)"/>
<path d="M113.844 48.8059V65.0537H110.497V48.8059H113.844ZM123.575 48.8059L117.136 56.8294L113.42 60.8244L112.818 57.6552L115.329 54.2181L119.469 48.8059H123.575ZM119.77 65.0537L114.983 57.5436L117.46 55.468L123.731 65.0537H119.77Z" fill="#EE3D3D"/>
<path fill-rule="evenodd" clip-rule="evenodd" d="M119.532 72.3599C116.88 72.3969 116.353 75.1431 116.353 75.1431C116.353 75.1431 115.741 72.3969 113.089 72.3599C110.437 72.3227 108.805 74.438 109.703 76.6646C110.6 78.8911 111.495 79.3921 112.904 81.0063C114.313 82.6206 116.363 85.4131 116.353 86.0718C116.343 85.4131 118.308 82.6206 119.718 81.0063C121.127 79.3921 122.021 78.8911 122.919 76.6646C123.817 74.438 122.185 72.3227 119.532 72.3599Z" fill="#EE3D3D"/>
<path fill-rule="evenodd" clip-rule="evenodd" d="M151.838 91.8614C146.071 91.942 144.924 97.914 144.924 97.914C144.924 97.914 143.593 91.942 137.826 91.8614C132.058 91.7806 128.509 96.3806 130.461 101.223C132.413 106.065 134.358 107.154 137.423 110.665C140.488 114.175 144.946 120.248 144.924 121.68C144.902 120.248 149.176 114.175 152.241 110.665C155.306 107.154 157.251 106.065 159.203 101.223C161.155 96.3806 157.605 91.7806 151.838 91.8614Z" fill="#EE3D3D"/>
</g>
<rect x="104.007" y="42.2792" width="57.9836" height="81.6504" rx="6.50836" stroke="#15DB41" stroke-width="1.18334"/>
</g>
<g filter="url(#filter2_d_627_19607)">
<rect x="126.711" y="51.9833" width="58.5753" height="82.2421" rx="9.17088" fill="white" stroke="#ECECEC" stroke-width="0.591669" stroke-dasharray="4.73 4.73"/>
<g clip-path="url(#clip2_627_19607)">
<rect x="126.415" y="51.6875" width="59.1669" height="82.8337" rx="7.10003" fill="url(#paint2_linear_627_19607)"/>
<path d="M136.141 72.6098H136.353C137.246 72.6098 138.012 72.502 138.652 72.2862C139.299 72.063 139.831 71.7431 140.248 71.3265C140.665 70.9099 140.973 70.4003 141.174 69.7977C141.375 69.1877 141.475 68.4958 141.475 67.7221V64.6422C141.475 64.0545 141.416 63.5374 141.297 63.091C141.185 62.6447 141.022 62.2764 140.806 61.9863C140.598 61.6887 140.352 61.4655 140.069 61.3167C139.794 61.1679 139.489 61.0935 139.154 61.0935C138.797 61.0935 138.481 61.1828 138.206 61.3614C137.931 61.5325 137.696 61.7668 137.503 62.0644C137.317 62.362 137.172 62.7042 137.068 63.091C136.971 63.4705 136.922 63.8685 136.922 64.2851C136.922 64.7017 136.971 65.0997 137.068 65.4791C137.164 65.8511 137.309 66.1821 137.503 66.4723C137.696 66.755 137.938 66.9819 138.228 67.153C138.518 67.3167 138.86 67.3985 139.255 67.3985C139.634 67.3985 139.973 67.3278 140.27 67.1865C140.575 67.0377 140.832 66.8443 141.04 66.6062C141.256 66.3681 141.42 66.104 141.531 65.8139C141.65 65.5237 141.71 65.2299 141.71 64.9323L142.77 65.5126C142.77 66.0334 142.658 66.5467 142.435 67.0526C142.212 67.5584 141.899 68.0197 141.498 68.4363C141.103 68.8455 140.646 69.1728 140.125 69.4183C139.604 69.6638 139.046 69.7866 138.451 69.7866C137.692 69.7866 137.019 69.6489 136.431 69.3737C135.844 69.091 135.345 68.7041 134.936 68.2131C134.534 67.7147 134.229 67.1344 134.021 66.4723C133.813 65.8102 133.709 65.0923 133.709 64.3186C133.709 63.53 133.835 62.7897 134.088 62.0979C134.348 61.406 134.717 60.796 135.193 60.2678C135.676 59.7396 136.253 59.3267 136.922 59.0291C137.599 58.7241 138.351 58.5716 139.177 58.5716C140.002 58.5716 140.754 58.7315 141.431 59.0514C142.108 59.3713 142.688 59.8251 143.172 60.4128C143.655 60.9931 144.027 61.6887 144.288 62.4996C144.555 63.3105 144.689 64.2107 144.689 65.2001V66.3161C144.689 67.3725 144.574 68.3545 144.343 69.2621C144.12 70.1697 143.782 70.9918 143.328 71.7283C142.881 72.4573 142.324 73.0823 141.654 73.603C140.992 74.1238 140.222 74.5218 139.344 74.797C138.466 75.0723 137.484 75.2099 136.398 75.2099H136.141V72.6098Z" fill="#EE3D3D"/>
<rect x="139.311" y="82.1113" width="10.0469" height="10.0469" transform="rotate(45 139.311 82.1113)" fill="#EE3D3D"/>
<rect x="167.832" y="101.321" width="21.8489" height="21.8489" transform="rotate(45 167.832 101.321)" fill="#EE3D3D"/>
</g>
<rect x="127.007" y="52.2792" width="57.9836" height="81.6504" rx="6.50836" stroke="#15DB41" stroke-width="1.18334"/>
</g>
<rect x="104.886" y="140.983" width="55.0584" height="21.1417" rx="10.3542" fill="white"/>
<path d="M110.642 154.054V148.942C110.642 148.534 110.71 148.214 110.846 147.982C110.99 147.75 111.186 147.59 111.434 147.502C111.682 147.406 111.966 147.358 112.286 147.358C112.51 147.358 112.71 147.382 112.886 147.43C113.062 147.47 113.206 147.518 113.318 147.574L113.078 148.75C113.014 148.734 112.95 148.722 112.886 148.714C112.822 148.706 112.77 148.702 112.73 148.702C112.578 148.702 112.47 148.742 112.406 148.822C112.35 148.902 112.322 149.018 112.322 149.17V150.286C112.322 150.486 112.314 150.726 112.298 151.006C112.282 151.278 112.254 151.622 112.214 152.038H112.274C112.434 151.662 112.574 151.362 112.694 151.138C112.822 150.906 112.934 150.702 113.03 150.526L113.474 149.722H114.146L114.59 150.526C114.702 150.718 114.798 150.894 114.878 151.054C114.958 151.206 115.034 151.358 115.106 151.51C115.178 151.662 115.258 151.838 115.346 152.038H115.406C115.366 151.622 115.338 151.278 115.322 151.006C115.306 150.726 115.298 150.486 115.298 150.286V147.478H116.978V154.054H115.262L113.834 151.438H113.786L112.358 154.054H110.642ZM115.137 157.234C114.497 157.234 114.029 157.138 113.733 156.946C113.437 156.754 113.289 156.502 113.289 156.19V155.986C113.289 155.85 113.253 155.766 113.181 155.734C113.109 155.71 113.013 155.714 112.893 155.746L112.809 154.942C112.921 154.894 113.065 154.862 113.241 154.846C113.417 154.83 113.561 154.822 113.673 154.822C114.025 154.822 114.281 154.886 114.441 155.014C114.593 155.142 114.669 155.322 114.669 155.554V155.83C114.669 155.966 114.701 156.07 114.765 156.142C114.821 156.222 114.929 156.262 115.089 156.262C115.257 156.262 115.373 156.222 115.437 156.142C115.501 156.07 115.533 155.966 115.533 155.83V154.858H116.997V156.022C116.997 156.414 116.849 156.714 116.553 156.922C116.257 157.13 115.785 157.234 115.137 157.234ZM113.361 146.578V145.978C113.473 145.946 113.597 145.902 113.733 145.846C113.869 145.79 113.989 145.714 114.093 145.618C114.197 145.522 114.249 145.402 114.249 145.258C114.249 145.146 114.217 145.058 114.153 144.994C114.089 144.93 114.009 144.898 113.913 144.898C113.849 144.898 113.781 144.91 113.709 144.934C113.637 144.958 113.573 144.982 113.517 145.006L113.289 144.202C113.449 144.066 113.649 143.978 113.889 143.938C114.121 143.89 114.317 143.866 114.477 143.866C114.837 143.866 115.121 143.95 115.329 144.118C115.529 144.286 115.629 144.534 115.629 144.862C115.629 145.038 115.585 145.202 115.497 145.354C115.401 145.506 115.257 145.63 115.065 145.726L115.017 145.414H117.285V146.578H113.361ZM120.609 154.174C120.249 154.174 119.945 154.118 119.697 154.006C119.449 153.894 119.261 153.726 119.133 153.502C119.005 153.27 118.941 152.982 118.941 152.638V147.478H120.741V152.422C120.741 152.574 120.773 152.686 120.837 152.758C120.909 152.83 121.017 152.866 121.161 152.866C121.225 152.866 121.293 152.858 121.365 152.842C121.437 152.826 121.505 152.806 121.569 152.782L121.737 153.934C121.585 154.014 121.413 154.074 121.221 154.114C121.029 154.154 120.825 154.174 120.609 154.174ZM126.548 154.054V149.782C126.548 149.398 126.444 149.122 126.236 148.954C126.028 148.786 125.708 148.702 125.276 148.702C124.86 148.702 124.452 148.766 124.052 148.894C123.66 149.014 123.32 149.158 123.032 149.326V147.838C123.264 147.726 123.592 147.614 124.016 147.502C124.44 147.382 124.932 147.322 125.492 147.322C125.9 147.322 126.272 147.366 126.608 147.454C126.952 147.534 127.252 147.674 127.508 147.874C127.764 148.066 127.96 148.326 128.096 148.654C128.24 148.974 128.312 149.374 128.312 149.854V154.054H126.548ZM124.58 154.174C123.892 154.174 123.36 154.01 122.984 153.682C122.616 153.354 122.432 152.894 122.432 152.302C122.432 151.662 122.66 151.15 123.116 150.766C123.58 150.382 124.308 150.15 125.3 150.07L126.836 149.95V151.246L125.504 151.378C125.024 151.426 124.688 151.522 124.496 151.666C124.312 151.81 124.22 152.002 124.22 152.242C124.22 152.482 124.296 152.662 124.448 152.782C124.608 152.902 124.812 152.962 125.06 152.962C125.156 152.962 125.252 152.954 125.348 152.938C125.444 152.914 125.532 152.89 125.612 152.866L125.768 153.994C125.616 154.05 125.436 154.094 125.228 154.126C125.02 154.158 124.804 154.174 124.58 154.174ZM126.472 146.566V143.842H128.128V146.566H126.472ZM132.232 154.174C131.744 154.174 131.332 154.082 130.996 153.898C130.668 153.706 130.416 153.422 130.24 153.046C130.072 152.67 129.988 152.21 129.988 151.666V147.478H131.788V151.354C131.788 151.794 131.876 152.114 132.052 152.314C132.228 152.514 132.484 152.614 132.82 152.614C133.244 152.614 133.572 152.454 133.804 152.134C134.036 151.806 134.152 151.302 134.152 150.622V147.478H135.952V154.054H134.584L134.392 153.046H134.284C134.148 153.366 133.912 153.634 133.576 153.85C133.248 154.066 132.8 154.174 132.232 154.174Z" fill="#484848"/>
<rect x="140.874" y="143.054" width="17" height="17" rx="8.5" fill="#15DB41"/>
<path d="M149.28 147.318C148.428 147.318 147.72 147.594 147.144 148.158C146.568 148.71 146.292 149.406 146.292 150.27C146.292 151.11 146.532 151.794 147.024 152.322C147.528 152.862 148.212 153.138 149.052 153.138C149.496 153.138 149.892 153.042 150.24 152.874C150.6 152.682 150.912 152.406 151.152 152.034H151.2C151.2 152.094 151.212 152.142 151.212 152.19C151.212 153.018 151.032 153.714 150.696 154.266C150.336 154.842 149.868 155.142 149.28 155.142C148.416 155.142 147.888 154.722 147.72 153.894H146.448C146.664 155.442 147.6 156.222 149.268 156.222C150.252 156.222 151.032 155.778 151.62 154.914C152.184 154.05 152.472 152.922 152.472 151.53C152.472 150.21 152.196 149.19 151.668 148.458C151.116 147.69 150.324 147.318 149.28 147.318ZM149.328 148.398C149.832 148.398 150.252 148.566 150.576 148.902C150.888 149.226 151.056 149.67 151.056 150.234C151.056 150.786 150.9 151.242 150.588 151.578C150.276 151.914 149.844 152.082 149.316 152.082C148.776 152.082 148.356 151.914 148.056 151.578C147.732 151.254 147.576 150.822 147.576 150.27C147.576 149.718 147.732 149.274 148.056 148.926C148.368 148.566 148.8 148.398 149.328 148.398Z" fill="#484848"/>
<rect x="104.886" y="140.983" width="55.0584" height="21.1417" rx="10.3542" stroke="#ECECEC" stroke-width="0.591669"/>
<g filter="url(#filter3_d_627_19607)">
<rect x="275.165" y="29.9833" width="58.5753" height="82.2421" rx="9.17088" fill="white" stroke="#ECECEC" stroke-width="0.591669" stroke-dasharray="4.73 4.73"/>
<g clip-path="url(#clip3_627_19607)">
<rect x="274.87" y="29.6875" width="59.1669" height="82.8337" rx="7.10003" fill="url(#paint3_linear_627_19607)"/>
<path d="M285.344 45.6552L282.777 45.0414L283.703 36.8059H292.831V39.406H286.348L285.946 43.0104C286.162 42.884 286.489 42.75 286.928 42.6087C287.367 42.4599 287.858 42.3855 288.401 42.3855C289.19 42.3855 289.889 42.5083 290.499 42.7538C291.109 42.9993 291.626 43.3564 292.05 43.825C292.482 44.2937 292.809 44.8666 293.032 45.5436C293.255 46.2206 293.367 46.9868 293.367 47.8424C293.367 48.564 293.255 49.2521 293.032 49.9068C292.809 50.554 292.471 51.1343 292.017 51.6477C291.563 52.1535 290.994 52.5515 290.309 52.8417C289.625 53.1318 288.814 53.2769 287.877 53.2769C287.177 53.2769 286.5 53.1727 285.846 52.9644C285.199 52.7561 284.615 52.4474 284.094 52.0382C283.58 51.6291 283.168 51.1343 282.855 50.554C282.55 49.9663 282.39 49.2968 282.375 48.5454H285.567C285.611 49.0066 285.73 49.4047 285.924 49.7394C286.125 50.0668 286.389 50.3197 286.716 50.4983C287.044 50.6768 287.427 50.7661 287.866 50.7661C288.275 50.7661 288.624 50.688 288.915 50.5317C289.205 50.3755 289.439 50.1598 289.618 49.8845C289.796 49.6018 289.926 49.2745 290.008 48.9025C290.097 48.5231 290.142 48.1139 290.142 47.675C290.142 47.236 290.09 46.838 289.986 46.4809C289.882 46.1238 289.722 45.8151 289.506 45.5547C289.29 45.2943 289.015 45.0935 288.68 44.9521C288.353 44.8108 287.97 44.7401 287.531 44.7401C286.936 44.7401 286.474 44.8331 286.147 45.0191C285.827 45.2051 285.559 45.4171 285.344 45.6552Z" fill="#EE3D3D"/>
<rect x="287.765" y="60.1113" width="10.0469" height="10.0469" transform="rotate(45 287.765 60.1113)" fill="#EE3D3D"/>
<path fill-rule="evenodd" clip-rule="evenodd" d="M322.959 101.963C328.452 102.025 331.832 98.5058 329.973 94.8016C328.114 91.0973 326.261 90.2639 323.343 87.5784C320.423 84.8928 316.178 80.2472 316.198 79.1514C316.22 80.2472 312.149 84.8928 309.23 87.5784C306.312 90.2639 304.46 91.0973 302.6 94.8016C300.741 98.5058 304.122 102.025 309.614 101.963C313.385 101.921 315.082 99.7548 315.774 98.4007L315.774 100.173C315.774 100.173 314.57 106.566 306.074 107.265L304.72 107.265L304.72 108.262L327.855 108.262L327.855 107.265L326.499 107.265C318.004 106.566 316.799 100.173 316.799 100.173L316.799 98.6334C317.614 99.989 319.397 101.923 322.959 101.963Z" fill="#242424"/>
</g>
</g>
<g filter="url(#filter4_d_627_19607)">
<rect x="299.165" y="41.9833" width="58.5753" height="82.2421" rx="9.17088" fill="white" stroke="#ECECEC" stroke-width="0.591669" stroke-dasharray="4.73 4.73"/>
<g clip-path="url(#clip4_627_19607)">
<rect x="298.87" y="41.6875" width="59.1669" height="82.8337" rx="7.10003" fill="url(#paint4_linear_627_19607)"/>
<path d="M309.344 57.6552L306.777 57.0414L307.703 48.8059H316.831V51.406H310.348L309.946 55.0104C310.162 54.884 310.489 54.75 310.928 54.6087C311.367 54.4599 311.858 54.3855 312.401 54.3855C313.19 54.3855 313.889 54.5083 314.499 54.7538C315.109 54.9993 315.626 55.3564 316.05 55.825C316.482 56.2937 316.809 56.8666 317.032 57.5436C317.255 58.2206 317.367 58.9868 317.367 59.8424C317.367 60.564 317.255 61.2521 317.032 61.9068C316.809 62.554 316.471 63.1343 316.017 63.6477C315.563 64.1535 314.994 64.5515 314.309 64.8417C313.625 65.1318 312.814 65.2769 311.877 65.2769C311.177 65.2769 310.5 65.1727 309.846 64.9644C309.199 64.7561 308.615 64.4474 308.094 64.0382C307.58 63.6291 307.168 63.1343 306.855 62.554C306.55 61.9663 306.39 61.2968 306.375 60.5454H309.567C309.611 61.0066 309.73 61.4047 309.924 61.7394C310.125 62.0668 310.389 62.3197 310.716 62.4983C311.044 62.6768 311.427 62.7661 311.866 62.7661C312.275 62.7661 312.624 62.688 312.915 62.5317C313.205 62.3755 313.439 62.1598 313.618 61.8845C313.796 61.6018 313.926 61.2745 314.008 60.9025C314.097 60.5231 314.142 60.1139 314.142 59.675C314.142 59.236 314.09 58.838 313.986 58.4809C313.882 58.1238 313.722 57.8151 313.506 57.5547C313.29 57.2943 313.015 57.0935 312.68 56.9521C312.353 56.8108 311.97 56.7401 311.531 56.7401C310.936 56.7401 310.474 56.8331 310.147 57.0191C309.827 57.2051 309.559 57.4171 309.344 57.6552Z" fill="#EE3D3D"/>
<path fill-rule="evenodd" clip-rule="evenodd" d="M314.987 72.3599C312.335 72.3969 311.808 75.1431 311.808 75.1431C311.808 75.1431 311.196 72.3969 308.544 72.3599C305.892 72.3227 304.26 74.438 305.157 76.6646C306.055 78.8911 306.949 79.3921 308.359 81.0063C309.768 82.6206 311.818 85.4131 311.808 86.0718C311.798 85.4131 313.763 82.6206 315.172 81.0063C316.582 79.3921 317.476 78.8911 318.374 76.6646C319.271 74.438 317.639 72.3227 314.987 72.3599Z" fill="#EE3D3D"/>
<path fill-rule="evenodd" clip-rule="evenodd" d="M347.292 91.8614C341.525 91.942 340.378 97.914 340.378 97.914C340.378 97.914 339.047 91.942 333.28 91.8614C327.513 91.7806 323.963 96.3806 325.915 101.223C327.867 106.065 329.812 107.154 332.877 110.665C335.942 114.175 340.4 120.248 340.378 121.68C340.356 120.248 344.63 114.175 347.695 110.665C350.76 107.154 352.705 106.065 354.657 101.223C356.609 96.3806 353.06 91.7806 347.292 91.8614Z" fill="#EE3D3D"/>
</g>
</g>
<g filter="url(#filter5_d_627_19607)">
<rect x="322.165" y="52.9833" width="58.5753" height="82.2421" rx="9.17088" fill="white" stroke="#ECECEC" stroke-width="0.591669" stroke-dasharray="4.73 4.73"/>
<g clip-path="url(#clip5_627_19607)">
<rect x="321.87" y="52.6875" width="59.1669" height="82.8337" rx="7.10003" fill="url(#paint5_linear_627_19607)"/>
<path d="M332.299 59.8059V76.0537H328.951V59.8059H332.299ZM342.03 59.8059L335.591 67.8294L331.875 71.8244L331.272 68.6552L333.783 65.2181L337.923 59.8059H342.03ZM338.224 76.0537L333.437 68.5436L335.915 66.468L342.186 76.0537H338.224Z" fill="#EE3D3D"/>
<path fill-rule="evenodd" clip-rule="evenodd" d="M337.987 83.3599C335.335 83.3969 334.808 86.1431 334.808 86.1431C334.808 86.1431 334.196 83.3969 331.544 83.3599C328.892 83.3227 327.26 85.438 328.157 87.6646C329.055 89.8911 329.949 90.3921 331.359 92.0063C332.768 93.6206 334.818 96.4131 334.808 97.0718C334.798 96.4131 336.763 93.6206 338.172 92.0063C339.582 90.3921 340.476 89.8911 341.374 87.6646C342.271 85.438 340.639 83.3227 337.987 83.3599Z" fill="#EE3D3D"/>
<path fill-rule="evenodd" clip-rule="evenodd" d="M370.292 102.861C364.525 102.942 363.378 108.914 363.378 108.914C363.378 108.914 362.047 102.942 356.28 102.861C350.513 102.781 346.963 107.381 348.915 112.223C350.867 117.065 352.812 118.154 355.877 121.665C358.942 125.175 363.4 131.248 363.378 132.68C363.356 131.248 367.63 125.175 370.695 121.665C373.76 118.154 375.705 117.065 377.657 112.223C379.609 107.381 376.06 102.781 370.292 102.861Z" fill="#EE3D3D"/>
</g>
</g>
<rect x="291.891" y="140.983" width="71.9584" height="20.4083" rx="10.2042" fill="white"/>
<path d="M296.631 153.688V148.575C296.631 148.167 296.699 147.847 296.835 147.615C296.979 147.383 297.175 147.223 297.423 147.135C297.671 147.039 297.955 146.991 298.275 146.991C298.499 146.991 298.699 147.015 298.875 147.063C299.051 147.103 299.195 147.151 299.307 147.207L299.067 148.383C299.003 148.367 298.939 148.355 298.875 148.347C298.811 148.339 298.759 148.335 298.719 148.335C298.567 148.335 298.459 148.375 298.395 148.455C298.339 148.535 298.311 148.651 298.311 148.803V149.919C298.311 150.119 298.303 150.359 298.287 150.639C298.271 150.911 298.243 151.255 298.203 151.671H298.263C298.423 151.295 298.563 150.995 298.683 150.771C298.811 150.539 298.923 150.335 299.019 150.16L299.463 149.355H300.135L300.579 150.16C300.691 150.351 300.787 150.527 300.867 150.688C300.947 150.839 301.023 150.991 301.095 151.143C301.167 151.295 301.247 151.471 301.335 151.671H301.395C301.355 151.255 301.327 150.911 301.311 150.639C301.295 150.359 301.287 150.119 301.287 149.919V147.111H302.967V153.688H301.251L299.823 151.071H299.775L298.347 153.688H296.631ZM301.127 156.868C300.487 156.868 300.019 156.772 299.723 156.58C299.427 156.388 299.279 156.136 299.279 155.824V155.62C299.279 155.484 299.243 155.4 299.171 155.368C299.099 155.344 299.003 155.348 298.883 155.38L298.799 154.576C298.911 154.528 299.055 154.496 299.231 154.479C299.407 154.464 299.551 154.456 299.663 154.456C300.015 154.456 300.271 154.52 300.431 154.648C300.583 154.776 300.659 154.956 300.659 155.188V155.464C300.659 155.6 300.691 155.704 300.755 155.776C300.811 155.856 300.919 155.896 301.079 155.896C301.247 155.896 301.363 155.856 301.427 155.776C301.491 155.704 301.523 155.6 301.523 155.464V154.492H302.987V155.656C302.987 156.048 302.839 156.348 302.543 156.556C302.247 156.764 301.775 156.868 301.127 156.868ZM299.351 146.211V145.611C299.463 145.579 299.587 145.535 299.723 145.479C299.859 145.423 299.979 145.347 300.083 145.251C300.187 145.155 300.239 145.035 300.239 144.891C300.239 144.779 300.207 144.691 300.143 144.627C300.079 144.563 299.999 144.531 299.903 144.531C299.839 144.531 299.771 144.543 299.699 144.567C299.627 144.591 299.563 144.615 299.507 144.639L299.279 143.835C299.439 143.699 299.639 143.611 299.879 143.571C300.111 143.523 300.307 143.499 300.467 143.499C300.827 143.499 301.111 143.583 301.319 143.751C301.519 143.919 301.619 144.167 301.619 144.495C301.619 144.671 301.575 144.835 301.487 144.987C301.391 145.139 301.247 145.263 301.055 145.359L301.007 145.047H303.275V146.211H299.351ZM306.599 153.808C306.239 153.808 305.935 153.752 305.687 153.639C305.439 153.527 305.251 153.359 305.123 153.135C304.995 152.903 304.931 152.615 304.931 152.271V147.111H306.731V152.055C306.731 152.207 306.763 152.319 306.827 152.391C306.899 152.463 307.007 152.499 307.151 152.499C307.215 152.499 307.283 152.491 307.355 152.475C307.427 152.459 307.495 152.439 307.559 152.415L307.727 153.567C307.575 153.647 307.403 153.708 307.211 153.748C307.019 153.788 306.815 153.808 306.599 153.808ZM308.781 153.688V151.683C308.781 151.179 308.881 150.791 309.081 150.52C309.281 150.247 309.565 150.055 309.933 149.943L309.945 149.895L308.661 149.427V149.115C308.661 148.723 308.777 148.363 309.009 148.035C309.241 147.707 309.581 147.447 310.029 147.255C310.485 147.055 311.037 146.955 311.685 146.955C312.293 146.955 312.817 147.051 313.257 147.243C313.697 147.428 314.037 147.707 314.277 148.083C314.525 148.451 314.649 148.919 314.649 149.487V153.688H312.849V149.595C312.849 149.195 312.741 148.895 312.525 148.695C312.317 148.495 312.021 148.395 311.637 148.395C311.269 148.395 310.993 148.475 310.809 148.635C310.625 148.787 310.525 148.975 310.509 149.199L311.577 149.691L311.445 150.471C311.157 150.487 310.941 150.591 310.797 150.783C310.653 150.975 310.581 151.235 310.581 151.563V153.688H308.781ZM312.995 146.307C312.747 146.307 312.539 146.263 312.371 146.175C312.195 146.079 312.059 145.943 311.963 145.767L311.363 146.271C310.859 146.271 310.455 146.151 310.151 145.911C309.847 145.663 309.695 145.307 309.695 144.843C309.695 144.515 309.767 144.247 309.911 144.039C310.047 143.823 310.227 143.663 310.451 143.559C310.675 143.455 310.915 143.403 311.171 143.403H314.195V144.279H311.483C311.331 144.279 311.203 144.327 311.099 144.423C310.995 144.519 310.943 144.667 310.943 144.867C310.943 145.019 310.979 145.143 311.051 145.239C311.115 145.327 311.211 145.371 311.339 145.371L311.891 144.855H312.131C312.155 145.007 312.207 145.139 312.287 145.251C312.367 145.355 312.479 145.407 312.623 145.407C312.743 145.407 312.835 145.371 312.899 145.299C312.963 145.219 312.995 145.115 312.995 144.987V144.807H314.207V145.047C314.207 145.479 314.099 145.799 313.883 146.007C313.659 146.207 313.363 146.307 312.995 146.307ZM319.293 153.844C318.253 153.844 317.497 153.603 317.025 153.123C316.561 152.635 316.329 151.931 316.329 151.011V147.111H318.129V151.107C318.129 151.531 318.221 151.855 318.405 152.079C318.597 152.295 318.893 152.403 319.293 152.403C319.693 152.403 319.985 152.295 320.169 152.079C320.361 151.855 320.457 151.531 320.457 151.107V147.111H322.257V151.011C322.257 151.931 322.021 152.635 321.549 153.123C321.085 153.603 320.333 153.844 319.293 153.844ZM325.783 153.808C325.423 153.808 325.119 153.752 324.871 153.639C324.623 153.527 324.435 153.359 324.307 153.135C324.179 152.903 324.115 152.615 324.115 152.271V147.111H325.915V152.055C325.915 152.207 325.947 152.319 326.011 152.391C326.083 152.463 326.191 152.499 326.335 152.499C326.399 152.499 326.467 152.491 326.539 152.475C326.611 152.459 326.679 152.439 326.743 152.415L326.911 153.567C326.759 153.647 326.587 153.708 326.395 153.748C326.203 153.788 325.999 153.808 325.783 153.808ZM328.813 153.688L326.905 147.111H328.717L330.169 152.235H330.241C330.369 152.235 330.489 152.199 330.601 152.127C330.713 152.055 330.809 151.959 330.889 151.839C331.049 151.615 331.169 151.351 331.249 151.047C331.329 150.735 331.369 150.427 331.369 150.123C331.369 149.587 331.265 149.175 331.057 148.887C330.857 148.599 330.577 148.455 330.217 148.455C330.145 148.455 330.077 148.459 330.013 148.467C329.957 148.475 329.905 148.491 329.857 148.515L329.521 147.135C329.705 147.079 329.877 147.047 330.037 147.039C330.205 147.023 330.341 147.015 330.445 147.015C330.869 147.015 331.237 147.071 331.549 147.183C331.861 147.295 332.129 147.464 332.353 147.688C332.633 147.959 332.841 148.299 332.977 148.707C333.121 149.115 333.193 149.575 333.193 150.087C333.193 150.735 333.089 151.303 332.881 151.791C332.681 152.271 332.437 152.651 332.149 152.931C331.909 153.163 331.605 153.347 331.237 153.483C330.877 153.619 330.381 153.688 329.749 153.688H328.813ZM327.092 146.199V145.443L328.304 144.939H332.588V146.199H327.092ZM336.784 153.808C336.296 153.808 335.884 153.716 335.548 153.531C335.22 153.339 334.968 153.055 334.792 152.679C334.624 152.303 334.54 151.843 334.54 151.299V147.111H336.34V150.987C336.34 151.427 336.428 151.747 336.604 151.947C336.78 152.147 337.036 152.247 337.372 152.247C337.796 152.247 338.124 152.087 338.356 151.767C338.588 151.439 338.704 150.935 338.704 150.255V147.111H340.504V153.688H339.136L338.944 152.679H338.836C338.7 152.999 338.464 153.267 338.128 153.483C337.8 153.7 337.352 153.808 336.784 153.808Z" fill="#484848"/>
<rect x="345.145" y="142.688" width="17" height="17" rx="8.5" fill="#ECECEC"/>
<path d="M353.647 146.951C352.639 146.951 351.859 147.371 351.307 148.223C350.803 149.003 350.551 150.059 350.551 151.403C350.551 152.735 350.803 153.791 351.307 154.583C351.859 155.423 352.639 155.856 353.647 155.856C354.655 155.856 355.435 155.423 355.987 154.583C356.491 153.791 356.743 152.723 356.743 151.403C356.743 150.071 356.491 149.015 355.987 148.223C355.435 147.371 354.655 146.951 353.647 146.951ZM353.647 148.055C354.343 148.055 354.847 148.439 355.135 149.219C355.339 149.747 355.447 150.479 355.447 151.403C355.447 152.315 355.339 153.047 355.135 153.587C354.847 154.355 354.343 154.751 353.647 154.751C352.939 154.751 352.447 154.355 352.159 153.587C351.943 153.047 351.847 152.315 351.847 151.403C351.847 150.479 351.943 149.747 352.159 149.219C352.447 148.439 352.939 148.055 353.647 148.055Z" fill="#484848"/>
<rect x="291.891" y="140.983" width="71.9584" height="20.4083" rx="10.2042" stroke="#ECECEC" stroke-width="0.591669"/>
<defs>
<filter id="filter0_d_627_19607" x="74.5177" y="26.0961" width="68.9616" height="92.6286" filterUnits="userSpaceOnUse" color-interpolation-filters="sRGB">
<feFlood flood-opacity="0" result="BackgroundImageFix"/>
<feColorMatrix in="SourceAlpha" type="matrix" values="0 0 0 0 0 0 0 0 0 0 0 0 0 0 0 0 0 0 127 0" result="hardAlpha"/>
<feOffset dy="1.30595"/>
<feGaussianBlur stdDeviation="2.44865"/>
<feComposite in2="hardAlpha" operator="out"/>
<feColorMatrix type="matrix" values="0 0 0 0 0 0 0 0 0 0 0 0 0 0 0 0 0 0 0.25 0"/>
<feBlend mode="normal" in2="BackgroundImageFix" result="effect1_dropShadow_627_19607"/>
<feBlend mode="normal" in="SourceGraphic" in2="effect1_dropShadow_627_19607" result="shape"/>
</filter>
<filter id="filter1_d_627_19607" x="98.5177" y="38.0961" width="68.9616" height="92.6286" filterUnits="userSpaceOnUse" color-interpolation-filters="sRGB">
<feFlood flood-opacity="0" result="BackgroundImageFix"/>
<feColorMatrix in="SourceAlpha" type="matrix" values="0 0 0 0 0 0 0 0 0 0 0 0 0 0 0 0 0 0 127 0" result="hardAlpha"/>
<feOffset dy="1.30595"/>
<feGaussianBlur stdDeviation="2.44865"/>
<feComposite in2="hardAlpha" operator="out"/>
<feColorMatrix type="matrix" values="0 0 0 0 0 0 0 0 0 0 0 0 0 0 0 0 0 0 0.25 0"/>
<feBlend mode="normal" in2="BackgroundImageFix" result="effect1_dropShadow_627_19607"/>
<feBlend mode="normal" in="SourceGraphic" in2="effect1_dropShadow_627_19607" result="shape"/>
</filter>
<filter id="filter2_d_627_19607" x="121.518" y="48.0961" width="68.9616" height="92.6286" filterUnits="userSpaceOnUse" color-interpolation-filters="sRGB">
<feFlood flood-opacity="0" result="BackgroundImageFix"/>
<feColorMatrix in="SourceAlpha" type="matrix" values="0 0 0 0 0 0 0 0 0 0 0 0 0 0 0 0 0 0 127 0" result="hardAlpha"/>
<feOffset dy="1.30595"/>
<feGaussianBlur stdDeviation="2.44865"/>
<feComposite in2="hardAlpha" operator="out"/>
<feColorMatrix type="matrix" values="0 0 0 0 0 0 0 0 0 0 0 0 0 0 0 0 0 0 0.25 0"/>
<feBlend mode="normal" in2="BackgroundImageFix" result="effect1_dropShadow_627_19607"/>
<feBlend mode="normal" in="SourceGraphic" in2="effect1_dropShadow_627_19607" result="shape"/>
</filter>
<filter id="filter3_d_627_19607" x="269.972" y="26.0961" width="68.9616" height="92.6286" filterUnits="userSpaceOnUse" color-interpolation-filters="sRGB">
<feFlood flood-opacity="0" result="BackgroundImageFix"/>
<feColorMatrix in="SourceAlpha" type="matrix" values="0 0 0 0 0 0 0 0 0 0 0 0 0 0 0 0 0 0 127 0" result="hardAlpha"/>
<feOffset dy="1.30595"/>
<feGaussianBlur stdDeviation="2.44865"/>
<feComposite in2="hardAlpha" operator="out"/>
<feColorMatrix type="matrix" values="0 0 0 0 0 0 0 0 0 0 0 0 0 0 0 0 0 0 0.25 0"/>
<feBlend mode="normal" in2="BackgroundImageFix" result="effect1_dropShadow_627_19607"/>
<feBlend mode="normal" in="SourceGraphic" in2="effect1_dropShadow_627_19607" result="shape"/>
</filter>
<filter id="filter4_d_627_19607" x="293.972" y="38.0961" width="68.9616" height="92.6286" filterUnits="userSpaceOnUse" color-interpolation-filters="sRGB">
<feFlood flood-opacity="0" result="BackgroundImageFix"/>
<feColorMatrix in="SourceAlpha" type="matrix" values="0 0 0 0 0 0 0 0 0 0 0 0 0 0 0 0 0 0 127 0" result="hardAlpha"/>
<feOffset dy="1.30595"/>
<feGaussianBlur stdDeviation="2.44865"/>
<feComposite in2="hardAlpha" operator="out"/>
<feColorMatrix type="matrix" values="0 0 0 0 0 0 0 0 0 0 0 0 0 0 0 0 0 0 0.25 0"/>
<feBlend mode="normal" in2="BackgroundImageFix" result="effect1_dropShadow_627_19607"/>
<feBlend mode="normal" in="SourceGraphic" in2="effect1_dropShadow_627_19607" result="shape"/>
</filter>
<filter id="filter5_d_627_19607" x="316.972" y="49.0961" width="68.9616" height="92.6286" filterUnits="userSpaceOnUse" color-interpolation-filters="sRGB">
<feFlood flood-opacity="0" result="BackgroundImageFix"/>
<feColorMatrix in="SourceAlpha" type="matrix" values="0 0 0 0 0 0 0 0 0 0 0 0 0 0 0 0 0 0 127 0" result="hardAlpha"/>
<feOffset dy="1.30595"/>
<feGaussianBlur stdDeviation="2.44865"/>
<feComposite in2="hardAlpha" operator="out"/>
<feColorMatrix type="matrix" values="0 0 0 0 0 0 0 0 0 0 0 0 0 0 0 0 0 0 0.25 0"/>
<feBlend mode="normal" in2="BackgroundImageFix" result="effect1_dropShadow_627_19607"/>
<feBlend mode="normal" in="SourceGraphic" in2="effect1_dropShadow_627_19607" result="shape"/>
</filter>
<linearGradient id="paint0_linear_627_19607" x1="108.999" y1="29.6875" x2="108.999" y2="112.521" gradientUnits="userSpaceOnUse">
<stop stop-color="#F9F9F9"/>
<stop offset="1" stop-color="#ECECEC"/>
</linearGradient>
<linearGradient id="paint1_linear_627_19607" x1="132.999" y1="41.6875" x2="132.999" y2="124.521" gradientUnits="userSpaceOnUse">
<stop stop-color="#F9F9F9"/>
<stop offset="1" stop-color="#ECECEC"/>
</linearGradient>
<linearGradient id="paint2_linear_627_19607" x1="155.999" y1="51.6875" x2="155.999" y2="134.521" gradientUnits="userSpaceOnUse">
<stop stop-color="#F9F9F9"/>
<stop offset="1" stop-color="#ECECEC"/>
</linearGradient>
<linearGradient id="paint3_linear_627_19607" x1="304.453" y1="29.6875" x2="304.453" y2="112.521" gradientUnits="userSpaceOnUse">
<stop stop-color="#F9F9F9"/>
<stop offset="1" stop-color="#ECECEC"/>
</linearGradient>
<linearGradient id="paint4_linear_627_19607" x1="328.453" y1="41.6875" x2="328.453" y2="124.521" gradientUnits="userSpaceOnUse">
<stop stop-color="#F9F9F9"/>
<stop offset="1" stop-color="#ECECEC"/>
</linearGradient>
<linearGradient id="paint5_linear_627_19607" x1="351.453" y1="52.6875" x2="351.453" y2="135.521" gradientUnits="userSpaceOnUse">
<stop stop-color="#F9F9F9"/>
<stop offset="1" stop-color="#ECECEC"/>
</linearGradient>
<clipPath id="clip0_627_19607">
<rect x="79.415" y="29.6875" width="59.1669" height="82.8337" rx="7.10003" fill="white"/>
</clipPath>
<clipPath id="clip1_627_19607">
<rect x="103.415" y="41.6875" width="59.1669" height="82.8337" rx="7.10003" fill="white"/>
</clipPath>
<clipPath id="clip2_627_19607">
<rect x="126.415" y="51.6875" width="59.1669" height="82.8337" rx="7.10003" fill="white"/>
</clipPath>
<clipPath id="clip3_627_19607">
<rect x="274.87" y="29.6875" width="59.1669" height="82.8337" rx="7.10003" fill="white"/>
</clipPath>
<clipPath id="clip4_627_19607">
<rect x="298.87" y="41.6875" width="59.1669" height="82.8337" rx="7.10003" fill="white"/>
</clipPath>
<clipPath id="clip5_627_19607">
<rect x="321.87" y="52.6875" width="59.1669" height="82.8337" rx="7.10003" fill="white"/>
</clipPath>
</defs>
</svg>
