<svg width="460" height="193" viewBox="0 0 460 193" fill="none" xmlns="http://www.w3.org/2000/svg">
<rect width="460" height="192.109" rx="10" fill="#F4F7FD"/>
<rect x="25" y="20" width="410.285" height="152.109" rx="3.87518" fill="white"/>
<g filter="url(#filter0_d_627_19540)">
<rect x="79.7109" y="29.9833" width="58.5753" height="82.2421" rx="9.17088" fill="white" stroke="#ECECEC" stroke-width="0.591669" stroke-dasharray="4.73 4.73"/>
<g clip-path="url(#clip0_627_19540)">
<rect x="79.415" y="29.6875" width="59.1669" height="82.8337" rx="7.10003" fill="url(#paint0_linear_627_19540)"/>
<path d="M94.7098 50.6433L99.1065 54.125L96.9974 55.9551L92.6676 52.4734L94.7098 50.6433ZM99.2181 44.5504V45.3204C99.2181 46.5553 99.0507 47.6638 98.7159 48.6458C98.3886 49.6278 97.9162 50.4648 97.2987 51.1566C96.6812 51.8411 95.9522 52.3656 95.1115 52.7301C94.2708 53.0946 93.3372 53.2769 92.3105 53.2769C91.2913 53.2769 90.3577 53.0946 89.5096 52.7301C88.6615 52.3656 87.9287 51.8411 87.3112 51.1566C86.6937 50.4648 86.2139 49.6278 85.8717 48.6458C85.5369 47.6638 85.3695 46.5553 85.3695 45.3204V44.5504C85.3695 43.308 85.5369 42.1995 85.8717 41.225C86.2139 40.2429 86.69 39.406 87.3001 38.7141C87.9101 38.0223 88.6392 37.4941 89.4873 37.1295C90.3354 36.765 91.269 36.5827 92.2882 36.5827C93.3149 36.5827 94.2485 36.765 95.0892 37.1295C95.9373 37.4941 96.6701 38.0223 97.2876 38.7141C97.905 39.406 98.3812 40.2429 98.7159 41.225C99.0507 42.1995 99.2181 43.308 99.2181 44.5504ZM95.8369 45.3204V44.5281C95.8369 43.6651 95.755 42.9063 95.5914 42.2516C95.4351 41.5969 95.2045 41.0464 94.8995 40.6C94.6019 40.1537 94.2337 39.8189 93.7947 39.5957C93.3558 39.3651 92.8536 39.2498 92.2882 39.2498C91.7228 39.2498 91.2207 39.3651 90.7817 39.5957C90.3428 39.8189 89.9746 40.1537 89.677 40.6C89.3794 41.0464 89.1525 41.5969 88.9963 42.2516C88.84 42.9063 88.7619 43.6651 88.7619 44.5281V45.3204C88.7619 46.1759 88.84 46.9347 88.9963 47.5969C89.1525 48.2515 89.3794 48.8058 89.677 49.2596C89.982 49.7059 90.354 50.0444 90.7929 50.2751C91.2393 50.5057 91.7451 50.621 92.3105 50.621C92.8759 50.621 93.3744 50.5057 93.8059 50.2751C94.2448 50.0444 94.6131 49.7059 94.9106 49.2596C95.2157 48.8058 95.4463 48.2515 95.6025 47.5969C95.7587 46.9347 95.8369 46.1759 95.8369 45.3204Z" fill="#242424"/>
<path fill-rule="evenodd" clip-rule="evenodd" d="M95.3786 70.5229C97.9047 70.5513 99.4588 68.9331 98.604 67.2298C97.7492 65.5264 96.8971 65.1432 95.5553 63.9083C94.2128 62.6734 92.2607 60.5371 92.2699 60.0332C92.2798 60.5371 90.4081 62.6734 89.0657 63.9083C87.7239 65.1432 86.8724 65.5264 86.0169 67.2298C85.1622 68.9331 86.7168 70.5513 89.2423 70.5229C90.9762 70.5034 91.7565 69.5075 92.0749 68.8848L92.0749 69.6997C92.0749 69.6997 91.5213 72.6393 87.6145 72.9611L86.9917 72.9611L86.9917 73.4192L97.6299 73.4192L97.6299 72.9611L97.0065 72.9611C93.1003 72.6393 92.5461 69.6997 92.5461 69.6997L92.5461 68.9918C92.9211 69.6151 93.7409 70.5045 95.3786 70.5229Z" fill="#242424"/>
<path fill-rule="evenodd" clip-rule="evenodd" d="M127.504 101.963C132.998 102.025 136.377 98.5058 134.518 94.8016C132.659 91.0973 130.806 90.2639 127.888 87.5784C124.969 84.8928 120.724 80.2472 120.744 79.1514C120.765 80.2472 116.695 84.8928 113.775 87.5784C110.857 90.2639 109.006 91.0973 107.145 94.8016C105.287 98.5058 108.668 102.025 114.16 101.963C117.93 101.921 119.627 99.7548 120.319 98.4007L120.319 100.173C120.319 100.173 119.116 106.566 110.62 107.265L109.265 107.265L109.265 108.262L132.4 108.262L132.4 107.265L131.044 107.265C122.55 106.566 121.344 100.173 121.344 100.173L121.344 98.6334C122.16 99.989 123.943 101.923 127.504 101.963Z" fill="#242424"/>
</g>
<rect x="80.0067" y="30.2792" width="57.9836" height="81.6504" rx="6.50836" stroke="#15DB41" stroke-width="1.18334"/>
</g>
<g filter="url(#filter1_d_627_19540)">
<rect x="103.711" y="41.9833" width="58.5753" height="82.2421" rx="9.17088" fill="white" stroke="#ECECEC" stroke-width="0.591669" stroke-dasharray="4.73 4.73"/>
<g clip-path="url(#clip1_627_19540)">
<rect x="103.415" y="41.6875" width="59.1669" height="82.8337" rx="7.10003" fill="url(#paint1_linear_627_19540)"/>
<path d="M113.844 48.8059V65.0537H110.497V48.8059H113.844ZM123.575 48.8059L117.136 56.8294L113.42 60.8244L112.818 57.6552L115.329 54.2181L119.469 48.8059H123.575ZM119.77 65.0537L114.983 57.5436L117.46 55.468L123.731 65.0537H119.77Z" fill="#EE3D3D"/>
<path fill-rule="evenodd" clip-rule="evenodd" d="M119.532 72.3599C116.88 72.3969 116.353 75.1431 116.353 75.1431C116.353 75.1431 115.741 72.3969 113.089 72.3599C110.437 72.3227 108.805 74.438 109.703 76.6646C110.6 78.8911 111.495 79.3921 112.904 81.0063C114.313 82.6206 116.363 85.4131 116.353 86.0718C116.343 85.4131 118.308 82.6206 119.718 81.0063C121.127 79.3921 122.021 78.8911 122.919 76.6646C123.817 74.438 122.185 72.3227 119.532 72.3599Z" fill="#EE3D3D"/>
<path fill-rule="evenodd" clip-rule="evenodd" d="M151.838 91.8614C146.071 91.942 144.924 97.914 144.924 97.914C144.924 97.914 143.593 91.942 137.826 91.8614C132.058 91.7806 128.509 96.3806 130.461 101.223C132.413 106.065 134.358 107.154 137.423 110.665C140.488 114.175 144.946 120.248 144.924 121.68C144.902 120.248 149.176 114.175 152.241 110.665C155.306 107.154 157.251 106.065 159.203 101.223C161.155 96.3806 157.605 91.7806 151.838 91.8614Z" fill="#EE3D3D"/>
</g>
<rect x="104.007" y="42.2792" width="57.9836" height="81.6504" rx="6.50836" stroke="#15DB41" stroke-width="1.18334"/>
</g>
<g filter="url(#filter2_d_627_19540)">
<rect x="126.711" y="51.9833" width="58.5753" height="82.2421" rx="9.17088" fill="white" stroke="#ECECEC" stroke-width="0.591669" stroke-dasharray="4.73 4.73"/>
<g clip-path="url(#clip2_627_19540)">
<rect x="126.415" y="51.6875" width="59.1669" height="82.8337" rx="7.10003" fill="url(#paint2_linear_627_19540)"/>
<path d="M136.141 72.6098H136.353C137.246 72.6098 138.012 72.502 138.652 72.2862C139.299 72.063 139.831 71.7431 140.248 71.3265C140.665 70.9099 140.973 70.4003 141.174 69.7977C141.375 69.1877 141.475 68.4958 141.475 67.7221V64.6422C141.475 64.0545 141.416 63.5374 141.297 63.091C141.185 62.6447 141.022 62.2764 140.806 61.9863C140.598 61.6887 140.352 61.4655 140.069 61.3167C139.794 61.1679 139.489 61.0935 139.154 61.0935C138.797 61.0935 138.481 61.1828 138.206 61.3614C137.931 61.5325 137.696 61.7668 137.503 62.0644C137.317 62.362 137.172 62.7042 137.068 63.091C136.971 63.4705 136.922 63.8685 136.922 64.2851C136.922 64.7017 136.971 65.0997 137.068 65.4791C137.164 65.8511 137.309 66.1821 137.503 66.4723C137.696 66.755 137.938 66.9819 138.228 67.153C138.518 67.3167 138.86 67.3985 139.255 67.3985C139.634 67.3985 139.973 67.3278 140.27 67.1865C140.575 67.0377 140.832 66.8443 141.04 66.6062C141.256 66.3681 141.42 66.104 141.531 65.8139C141.65 65.5237 141.71 65.2299 141.71 64.9323L142.77 65.5126C142.77 66.0334 142.658 66.5467 142.435 67.0526C142.212 67.5584 141.899 68.0197 141.498 68.4363C141.103 68.8455 140.646 69.1728 140.125 69.4183C139.604 69.6638 139.046 69.7866 138.451 69.7866C137.692 69.7866 137.019 69.6489 136.431 69.3737C135.844 69.091 135.345 68.7041 134.936 68.2131C134.534 67.7147 134.229 67.1344 134.021 66.4723C133.813 65.8102 133.709 65.0923 133.709 64.3186C133.709 63.53 133.835 62.7897 134.088 62.0979C134.348 61.406 134.717 60.796 135.193 60.2678C135.676 59.7396 136.253 59.3267 136.922 59.0291C137.599 58.7241 138.351 58.5716 139.177 58.5716C140.002 58.5716 140.754 58.7315 141.431 59.0514C142.108 59.3713 142.688 59.8251 143.172 60.4128C143.655 60.9931 144.027 61.6887 144.288 62.4996C144.555 63.3105 144.689 64.2107 144.689 65.2001V66.3161C144.689 67.3725 144.574 68.3545 144.343 69.2621C144.12 70.1697 143.782 70.9918 143.328 71.7283C142.881 72.4573 142.324 73.0823 141.654 73.603C140.992 74.1238 140.222 74.5218 139.344 74.797C138.466 75.0723 137.484 75.2099 136.398 75.2099H136.141V72.6098Z" fill="#EE3D3D"/>
<rect x="139.311" y="82.1113" width="10.0469" height="10.0469" transform="rotate(45 139.311 82.1113)" fill="#EE3D3D"/>
<rect x="167.832" y="101.321" width="21.8489" height="21.8489" transform="rotate(45 167.832 101.321)" fill="#EE3D3D"/>
</g>
<rect x="127.007" y="52.2792" width="57.9836" height="81.6504" rx="6.50836" stroke="#15DB41" stroke-width="1.18334"/>
</g>
<rect x="94.8862" y="140.983" width="75.0584" height="21.1417" rx="10.3542" fill="white"/>
<path d="M100.427 147.486H103.979C106.051 147.486 107.087 148.362 107.087 150.114C107.087 151.882 106.043 152.766 103.955 152.766H101.831V156.054H100.427V147.486ZM101.831 148.686V151.566H103.871C104.487 151.566 104.943 151.454 105.239 151.23C105.527 150.998 105.671 150.626 105.671 150.114C105.671 149.61 105.523 149.246 105.227 149.022C104.947 148.798 104.495 148.686 103.871 148.686H101.831ZM108.291 147.486H109.683V154.854H114.315V156.054H108.291V147.486ZM117.828 147.486H119.424L122.7 156.054H121.2L120.42 153.906H116.832L116.052 156.054H114.552L117.828 147.486ZM117.252 152.754H120L118.656 148.998H118.608L117.252 152.754ZM122.757 147.486H124.449L126.849 151.338L129.237 147.486H130.929L127.545 152.646V156.054H126.141V152.646L122.757 147.486ZM131.834 147.486H138.014V148.686H133.238V151.062H137.726V152.262H133.238V154.854H138.218V156.054H131.834V147.486ZM139.533 147.486H143.349C144.237 147.486 144.929 147.682 145.425 148.074C145.961 148.514 146.229 149.138 146.229 149.946C146.229 150.386 146.109 150.782 145.869 151.134C145.605 151.518 145.241 151.77 144.777 151.89V151.914C145.521 152.082 145.941 152.582 146.037 153.414L146.181 154.794C146.229 155.314 146.401 155.734 146.697 156.054H145.173C144.973 155.798 144.849 155.426 144.801 154.938L144.693 153.882C144.645 153.41 144.501 153.074 144.261 152.874C144.021 152.666 143.653 152.562 143.157 152.562H140.937V156.054H139.533V147.486ZM140.937 148.686V151.362H143.157C143.701 151.362 144.121 151.246 144.417 151.014C144.681 150.774 144.813 150.438 144.813 150.006C144.813 149.534 144.681 149.198 144.417 148.998C144.161 148.79 143.741 148.686 143.157 148.686H140.937Z" fill="#484848"/>
<rect x="150.874" y="143.054" width="17" height="17" rx="8.5" fill="#15DB41"/>
<path d="M159.28 147.318C158.428 147.318 157.72 147.594 157.144 148.158C156.568 148.71 156.292 149.406 156.292 150.27C156.292 151.11 156.532 151.794 157.024 152.322C157.528 152.862 158.212 153.138 159.052 153.138C159.496 153.138 159.892 153.042 160.24 152.874C160.6 152.682 160.912 152.406 161.152 152.034H161.2C161.2 152.094 161.212 152.142 161.212 152.19C161.212 153.018 161.032 153.714 160.696 154.266C160.336 154.842 159.868 155.142 159.28 155.142C158.416 155.142 157.888 154.722 157.72 153.894H156.448C156.664 155.442 157.6 156.222 159.268 156.222C160.252 156.222 161.032 155.778 161.62 154.914C162.184 154.05 162.472 152.922 162.472 151.53C162.472 150.21 162.196 149.19 161.668 148.458C161.116 147.69 160.324 147.318 159.28 147.318ZM159.328 148.398C159.832 148.398 160.252 148.566 160.576 148.902C160.888 149.226 161.056 149.67 161.056 150.234C161.056 150.786 160.9 151.242 160.588 151.578C160.276 151.914 159.844 152.082 159.316 152.082C158.776 152.082 158.356 151.914 158.056 151.578C157.732 151.254 157.576 150.822 157.576 150.27C157.576 149.718 157.732 149.274 158.056 148.926C158.368 148.566 158.8 148.398 159.328 148.398Z" fill="#484848"/>
<rect x="94.8862" y="140.983" width="75.0584" height="21.1417" rx="10.3542" stroke="#ECECEC" stroke-width="0.591669"/>
<g filter="url(#filter3_d_627_19540)">
<rect x="275.165" y="29.9833" width="58.5753" height="82.2421" rx="9.17088" fill="white" stroke="#ECECEC" stroke-width="0.591669" stroke-dasharray="4.73 4.73"/>
<g clip-path="url(#clip3_627_19540)">
<rect x="274.87" y="29.6875" width="59.1669" height="82.8337" rx="7.10003" fill="url(#paint3_linear_627_19540)"/>
<path d="M285.344 45.6552L282.777 45.0414L283.703 36.8059H292.831V39.406H286.348L285.946 43.0104C286.162 42.884 286.489 42.75 286.928 42.6087C287.367 42.4599 287.858 42.3855 288.401 42.3855C289.19 42.3855 289.889 42.5083 290.499 42.7538C291.109 42.9993 291.626 43.3564 292.05 43.825C292.482 44.2937 292.809 44.8666 293.032 45.5436C293.255 46.2206 293.367 46.9868 293.367 47.8424C293.367 48.564 293.255 49.2521 293.032 49.9068C292.809 50.554 292.471 51.1343 292.017 51.6477C291.563 52.1535 290.994 52.5515 290.309 52.8417C289.625 53.1318 288.814 53.2769 287.877 53.2769C287.177 53.2769 286.5 53.1727 285.846 52.9644C285.199 52.7561 284.615 52.4474 284.094 52.0382C283.58 51.6291 283.168 51.1343 282.855 50.554C282.55 49.9663 282.39 49.2968 282.375 48.5454H285.567C285.611 49.0066 285.73 49.4047 285.924 49.7394C286.125 50.0668 286.389 50.3197 286.716 50.4983C287.044 50.6768 287.427 50.7661 287.866 50.7661C288.275 50.7661 288.624 50.688 288.915 50.5317C289.205 50.3755 289.439 50.1598 289.618 49.8845C289.796 49.6018 289.926 49.2745 290.008 48.9025C290.097 48.5231 290.142 48.1139 290.142 47.675C290.142 47.236 290.09 46.838 289.986 46.4809C289.882 46.1238 289.722 45.8151 289.506 45.5547C289.29 45.2943 289.015 45.0935 288.68 44.9521C288.353 44.8108 287.97 44.7401 287.531 44.7401C286.936 44.7401 286.474 44.8331 286.147 45.0191C285.827 45.2051 285.559 45.4171 285.344 45.6552Z" fill="#EE3D3D"/>
<rect x="287.765" y="60.1113" width="10.0469" height="10.0469" transform="rotate(45 287.765 60.1113)" fill="#EE3D3D"/>
<path fill-rule="evenodd" clip-rule="evenodd" d="M322.959 101.963C328.452 102.025 331.832 98.5058 329.973 94.8016C328.114 91.0973 326.261 90.2639 323.343 87.5784C320.423 84.8928 316.178 80.2472 316.198 79.1514C316.22 80.2472 312.149 84.8928 309.23 87.5784C306.312 90.2639 304.46 91.0973 302.6 94.8016C300.741 98.5058 304.122 102.025 309.614 101.963C313.385 101.921 315.082 99.7548 315.774 98.4007L315.774 100.173C315.774 100.173 314.57 106.566 306.074 107.265L304.72 107.265L304.72 108.262L327.855 108.262L327.855 107.265L326.499 107.265C318.004 106.566 316.799 100.173 316.799 100.173L316.799 98.6334C317.614 99.989 319.397 101.923 322.959 101.963Z" fill="#242424"/>
</g>
</g>
<g filter="url(#filter4_d_627_19540)">
<rect x="299.165" y="41.9833" width="58.5753" height="82.2421" rx="9.17088" fill="white" stroke="#ECECEC" stroke-width="0.591669" stroke-dasharray="4.73 4.73"/>
<g clip-path="url(#clip4_627_19540)">
<rect x="298.87" y="41.6875" width="59.1669" height="82.8337" rx="7.10003" fill="url(#paint4_linear_627_19540)"/>
<path d="M309.344 57.6552L306.777 57.0414L307.703 48.8059H316.831V51.406H310.348L309.946 55.0104C310.162 54.884 310.489 54.75 310.928 54.6087C311.367 54.4599 311.858 54.3855 312.401 54.3855C313.19 54.3855 313.889 54.5083 314.499 54.7538C315.109 54.9993 315.626 55.3564 316.05 55.825C316.482 56.2937 316.809 56.8666 317.032 57.5436C317.255 58.2206 317.367 58.9868 317.367 59.8424C317.367 60.564 317.255 61.2521 317.032 61.9068C316.809 62.554 316.471 63.1343 316.017 63.6477C315.563 64.1535 314.994 64.5515 314.309 64.8417C313.625 65.1318 312.814 65.2769 311.877 65.2769C311.177 65.2769 310.5 65.1727 309.846 64.9644C309.199 64.7561 308.615 64.4474 308.094 64.0382C307.58 63.6291 307.168 63.1343 306.855 62.554C306.55 61.9663 306.39 61.2968 306.375 60.5454H309.567C309.611 61.0066 309.73 61.4047 309.924 61.7394C310.125 62.0668 310.389 62.3197 310.716 62.4983C311.044 62.6768 311.427 62.7661 311.866 62.7661C312.275 62.7661 312.624 62.688 312.915 62.5317C313.205 62.3755 313.439 62.1598 313.618 61.8845C313.796 61.6018 313.926 61.2745 314.008 60.9025C314.097 60.5231 314.142 60.1139 314.142 59.675C314.142 59.236 314.09 58.838 313.986 58.4809C313.882 58.1238 313.722 57.8151 313.506 57.5547C313.29 57.2943 313.015 57.0935 312.68 56.9521C312.353 56.8108 311.97 56.7401 311.531 56.7401C310.936 56.7401 310.474 56.8331 310.147 57.0191C309.827 57.2051 309.559 57.4171 309.344 57.6552Z" fill="#EE3D3D"/>
<path fill-rule="evenodd" clip-rule="evenodd" d="M314.987 72.3599C312.335 72.3969 311.808 75.1431 311.808 75.1431C311.808 75.1431 311.196 72.3969 308.544 72.3599C305.892 72.3227 304.26 74.438 305.157 76.6646C306.055 78.8911 306.949 79.3921 308.359 81.0063C309.768 82.6206 311.818 85.4131 311.808 86.0718C311.798 85.4131 313.763 82.6206 315.172 81.0063C316.582 79.3921 317.476 78.8911 318.374 76.6646C319.271 74.438 317.639 72.3227 314.987 72.3599Z" fill="#EE3D3D"/>
<path fill-rule="evenodd" clip-rule="evenodd" d="M347.292 91.8614C341.525 91.942 340.378 97.914 340.378 97.914C340.378 97.914 339.047 91.942 333.28 91.8614C327.513 91.7806 323.963 96.3806 325.915 101.223C327.867 106.065 329.812 107.154 332.877 110.665C335.942 114.175 340.4 120.248 340.378 121.68C340.356 120.248 344.63 114.175 347.695 110.665C350.76 107.154 352.705 106.065 354.657 101.223C356.609 96.3806 353.06 91.7806 347.292 91.8614Z" fill="#EE3D3D"/>
</g>
</g>
<g filter="url(#filter5_d_627_19540)">
<rect x="322.165" y="52.9833" width="58.5753" height="82.2421" rx="9.17088" fill="white" stroke="#ECECEC" stroke-width="0.591669" stroke-dasharray="4.73 4.73"/>
<g clip-path="url(#clip5_627_19540)">
<rect x="321.87" y="52.6875" width="59.1669" height="82.8337" rx="7.10003" fill="url(#paint5_linear_627_19540)"/>
<path d="M332.299 59.8059V76.0537H328.951V59.8059H332.299ZM342.03 59.8059L335.591 67.8294L331.875 71.8244L331.272 68.6552L333.783 65.2181L337.923 59.8059H342.03ZM338.224 76.0537L333.437 68.5436L335.915 66.468L342.186 76.0537H338.224Z" fill="#EE3D3D"/>
<path fill-rule="evenodd" clip-rule="evenodd" d="M337.987 83.3599C335.335 83.3969 334.808 86.1431 334.808 86.1431C334.808 86.1431 334.196 83.3969 331.544 83.3599C328.892 83.3227 327.26 85.438 328.157 87.6646C329.055 89.8911 329.949 90.3921 331.359 92.0063C332.768 93.6206 334.818 96.4131 334.808 97.0718C334.798 96.4131 336.763 93.6206 338.172 92.0063C339.582 90.3921 340.476 89.8911 341.374 87.6646C342.271 85.438 340.639 83.3227 337.987 83.3599Z" fill="#EE3D3D"/>
<path fill-rule="evenodd" clip-rule="evenodd" d="M370.292 102.861C364.525 102.942 363.378 108.914 363.378 108.914C363.378 108.914 362.047 102.942 356.28 102.861C350.513 102.781 346.963 107.381 348.915 112.223C350.867 117.065 352.812 118.154 355.877 121.665C358.942 125.175 363.4 131.248 363.378 132.68C363.356 131.248 367.63 125.175 370.695 121.665C373.76 118.154 375.705 117.065 377.657 112.223C379.609 107.381 376.06 102.781 370.292 102.861Z" fill="#EE3D3D"/>
</g>
</g>
<rect x="289.891" y="140.983" width="75.9584" height="20.4083" rx="10.2042" fill="white"/>
<path d="M294.655 147.119V155.688H298.567C299.479 155.688 300.187 155.519 300.691 155.183C301.279 154.775 301.579 154.151 301.579 153.287C301.579 152.711 301.435 152.243 301.147 151.895C300.859 151.547 300.427 151.319 299.863 151.211C300.295 151.055 300.619 150.815 300.859 150.503C301.099 150.167 301.219 149.759 301.219 149.279C301.219 148.619 300.991 148.103 300.535 147.719C300.055 147.311 299.407 147.119 298.567 147.119H294.655ZM295.963 148.199H298.243C298.819 148.199 299.251 148.295 299.515 148.499C299.779 148.691 299.911 149.003 299.911 149.435C299.911 149.891 299.779 150.227 299.515 150.443C299.251 150.647 298.819 150.755 298.219 150.755H295.963V148.199ZM295.963 151.823H298.423C299.047 151.823 299.515 151.931 299.815 152.16C300.115 152.387 300.271 152.759 300.271 153.263C300.271 153.755 300.067 154.115 299.683 154.343C299.371 154.511 298.939 154.607 298.387 154.607H295.963V151.823ZM305.354 147.119L302.054 155.688H303.446L304.25 153.479H307.934L308.738 155.688H310.142L306.842 147.119H305.354ZM304.646 152.399L306.074 148.523H306.122L307.538 152.399H304.646ZM310.98 147.119V155.688H312.288V149.243H312.336L316.764 155.688H318.036V147.119H316.728V153.491H316.68L312.3 147.119H310.98ZM325.17 147.119L321.03 151.259V147.119H319.722V155.688H321.03V152.723L322.146 151.655L325.626 155.688H327.378L323.034 150.803L326.826 147.119H325.17ZM328.218 147.119V155.688H334.578V154.571H329.526V151.847H334.086V150.731H329.526V148.235H334.374V147.119H328.218ZM335.905 147.119V155.688H337.213V152.147H339.529C340.021 152.147 340.393 152.243 340.657 152.459C340.909 152.675 341.065 153.011 341.113 153.491L341.221 154.559C341.269 155.039 341.389 155.423 341.593 155.688H343.009C342.721 155.375 342.553 154.955 342.505 154.427L342.361 153.059C342.265 152.219 341.845 151.715 341.077 151.547V151.523C341.545 151.403 341.917 151.151 342.193 150.767C342.433 150.419 342.553 150.023 342.553 149.567C342.553 148.751 342.289 148.139 341.761 147.707C341.257 147.311 340.561 147.119 339.697 147.119H335.905ZM337.213 148.235H339.517C340.117 148.235 340.549 148.343 340.837 148.571C341.101 148.787 341.245 149.135 341.245 149.615C341.245 150.071 341.101 150.419 340.825 150.659C340.537 150.899 340.105 151.031 339.529 151.031H337.213V148.235Z" fill="#484848"/>
<rect x="347.145" y="142.688" width="17" height="17" rx="8.5" fill="#ECECEC"/>
<path d="M355.647 146.951C354.639 146.951 353.859 147.371 353.307 148.223C352.803 149.003 352.551 150.059 352.551 151.403C352.551 152.735 352.803 153.791 353.307 154.583C353.859 155.423 354.639 155.856 355.647 155.856C356.655 155.856 357.435 155.423 357.987 154.583C358.491 153.791 358.743 152.723 358.743 151.403C358.743 150.071 358.491 149.015 357.987 148.223C357.435 147.371 356.655 146.951 355.647 146.951ZM355.647 148.055C356.343 148.055 356.847 148.439 357.135 149.219C357.339 149.747 357.447 150.479 357.447 151.403C357.447 152.315 357.339 153.047 357.135 153.587C356.847 154.355 356.343 154.751 355.647 154.751C354.939 154.751 354.447 154.355 354.159 153.587C353.943 153.047 353.847 152.315 353.847 151.403C353.847 150.479 353.943 149.747 354.159 149.219C354.447 148.439 354.939 148.055 355.647 148.055Z" fill="#484848"/>
<rect x="289.891" y="140.983" width="75.9584" height="20.4083" rx="10.2042" stroke="#ECECEC" stroke-width="0.591669"/>
<defs>
<filter id="filter0_d_627_19540" x="74.5177" y="26.0961" width="68.9616" height="92.6286" filterUnits="userSpaceOnUse" color-interpolation-filters="sRGB">
<feFlood flood-opacity="0" result="BackgroundImageFix"/>
<feColorMatrix in="SourceAlpha" type="matrix" values="0 0 0 0 0 0 0 0 0 0 0 0 0 0 0 0 0 0 127 0" result="hardAlpha"/>
<feOffset dy="1.30595"/>
<feGaussianBlur stdDeviation="2.44865"/>
<feComposite in2="hardAlpha" operator="out"/>
<feColorMatrix type="matrix" values="0 0 0 0 0 0 0 0 0 0 0 0 0 0 0 0 0 0 0.25 0"/>
<feBlend mode="normal" in2="BackgroundImageFix" result="effect1_dropShadow_627_19540"/>
<feBlend mode="normal" in="SourceGraphic" in2="effect1_dropShadow_627_19540" result="shape"/>
</filter>
<filter id="filter1_d_627_19540" x="98.5177" y="38.0961" width="68.9616" height="92.6286" filterUnits="userSpaceOnUse" color-interpolation-filters="sRGB">
<feFlood flood-opacity="0" result="BackgroundImageFix"/>
<feColorMatrix in="SourceAlpha" type="matrix" values="0 0 0 0 0 0 0 0 0 0 0 0 0 0 0 0 0 0 127 0" result="hardAlpha"/>
<feOffset dy="1.30595"/>
<feGaussianBlur stdDeviation="2.44865"/>
<feComposite in2="hardAlpha" operator="out"/>
<feColorMatrix type="matrix" values="0 0 0 0 0 0 0 0 0 0 0 0 0 0 0 0 0 0 0.25 0"/>
<feBlend mode="normal" in2="BackgroundImageFix" result="effect1_dropShadow_627_19540"/>
<feBlend mode="normal" in="SourceGraphic" in2="effect1_dropShadow_627_19540" result="shape"/>
</filter>
<filter id="filter2_d_627_19540" x="121.518" y="48.0961" width="68.9616" height="92.6286" filterUnits="userSpaceOnUse" color-interpolation-filters="sRGB">
<feFlood flood-opacity="0" result="BackgroundImageFix"/>
<feColorMatrix in="SourceAlpha" type="matrix" values="0 0 0 0 0 0 0 0 0 0 0 0 0 0 0 0 0 0 127 0" result="hardAlpha"/>
<feOffset dy="1.30595"/>
<feGaussianBlur stdDeviation="2.44865"/>
<feComposite in2="hardAlpha" operator="out"/>
<feColorMatrix type="matrix" values="0 0 0 0 0 0 0 0 0 0 0 0 0 0 0 0 0 0 0.25 0"/>
<feBlend mode="normal" in2="BackgroundImageFix" result="effect1_dropShadow_627_19540"/>
<feBlend mode="normal" in="SourceGraphic" in2="effect1_dropShadow_627_19540" result="shape"/>
</filter>
<filter id="filter3_d_627_19540" x="269.972" y="26.0961" width="68.9616" height="92.6286" filterUnits="userSpaceOnUse" color-interpolation-filters="sRGB">
<feFlood flood-opacity="0" result="BackgroundImageFix"/>
<feColorMatrix in="SourceAlpha" type="matrix" values="0 0 0 0 0 0 0 0 0 0 0 0 0 0 0 0 0 0 127 0" result="hardAlpha"/>
<feOffset dy="1.30595"/>
<feGaussianBlur stdDeviation="2.44865"/>
<feComposite in2="hardAlpha" operator="out"/>
<feColorMatrix type="matrix" values="0 0 0 0 0 0 0 0 0 0 0 0 0 0 0 0 0 0 0.25 0"/>
<feBlend mode="normal" in2="BackgroundImageFix" result="effect1_dropShadow_627_19540"/>
<feBlend mode="normal" in="SourceGraphic" in2="effect1_dropShadow_627_19540" result="shape"/>
</filter>
<filter id="filter4_d_627_19540" x="293.972" y="38.0961" width="68.9616" height="92.6286" filterUnits="userSpaceOnUse" color-interpolation-filters="sRGB">
<feFlood flood-opacity="0" result="BackgroundImageFix"/>
<feColorMatrix in="SourceAlpha" type="matrix" values="0 0 0 0 0 0 0 0 0 0 0 0 0 0 0 0 0 0 127 0" result="hardAlpha"/>
<feOffset dy="1.30595"/>
<feGaussianBlur stdDeviation="2.44865"/>
<feComposite in2="hardAlpha" operator="out"/>
<feColorMatrix type="matrix" values="0 0 0 0 0 0 0 0 0 0 0 0 0 0 0 0 0 0 0.25 0"/>
<feBlend mode="normal" in2="BackgroundImageFix" result="effect1_dropShadow_627_19540"/>
<feBlend mode="normal" in="SourceGraphic" in2="effect1_dropShadow_627_19540" result="shape"/>
</filter>
<filter id="filter5_d_627_19540" x="316.972" y="49.0961" width="68.9616" height="92.6286" filterUnits="userSpaceOnUse" color-interpolation-filters="sRGB">
<feFlood flood-opacity="0" result="BackgroundImageFix"/>
<feColorMatrix in="SourceAlpha" type="matrix" values="0 0 0 0 0 0 0 0 0 0 0 0 0 0 0 0 0 0 127 0" result="hardAlpha"/>
<feOffset dy="1.30595"/>
<feGaussianBlur stdDeviation="2.44865"/>
<feComposite in2="hardAlpha" operator="out"/>
<feColorMatrix type="matrix" values="0 0 0 0 0 0 0 0 0 0 0 0 0 0 0 0 0 0 0.25 0"/>
<feBlend mode="normal" in2="BackgroundImageFix" result="effect1_dropShadow_627_19540"/>
<feBlend mode="normal" in="SourceGraphic" in2="effect1_dropShadow_627_19540" result="shape"/>
</filter>
<linearGradient id="paint0_linear_627_19540" x1="108.999" y1="29.6875" x2="108.999" y2="112.521" gradientUnits="userSpaceOnUse">
<stop stop-color="#F9F9F9"/>
<stop offset="1" stop-color="#ECECEC"/>
</linearGradient>
<linearGradient id="paint1_linear_627_19540" x1="132.999" y1="41.6875" x2="132.999" y2="124.521" gradientUnits="userSpaceOnUse">
<stop stop-color="#F9F9F9"/>
<stop offset="1" stop-color="#ECECEC"/>
</linearGradient>
<linearGradient id="paint2_linear_627_19540" x1="155.999" y1="51.6875" x2="155.999" y2="134.521" gradientUnits="userSpaceOnUse">
<stop stop-color="#F9F9F9"/>
<stop offset="1" stop-color="#ECECEC"/>
</linearGradient>
<linearGradient id="paint3_linear_627_19540" x1="304.453" y1="29.6875" x2="304.453" y2="112.521" gradientUnits="userSpaceOnUse">
<stop stop-color="#F9F9F9"/>
<stop offset="1" stop-color="#ECECEC"/>
</linearGradient>
<linearGradient id="paint4_linear_627_19540" x1="328.453" y1="41.6875" x2="328.453" y2="124.521" gradientUnits="userSpaceOnUse">
<stop stop-color="#F9F9F9"/>
<stop offset="1" stop-color="#ECECEC"/>
</linearGradient>
<linearGradient id="paint5_linear_627_19540" x1="351.453" y1="52.6875" x2="351.453" y2="135.521" gradientUnits="userSpaceOnUse">
<stop stop-color="#F9F9F9"/>
<stop offset="1" stop-color="#ECECEC"/>
</linearGradient>
<clipPath id="clip0_627_19540">
<rect x="79.415" y="29.6875" width="59.1669" height="82.8337" rx="7.10003" fill="white"/>
</clipPath>
<clipPath id="clip1_627_19540">
<rect x="103.415" y="41.6875" width="59.1669" height="82.8337" rx="7.10003" fill="white"/>
</clipPath>
<clipPath id="clip2_627_19540">
<rect x="126.415" y="51.6875" width="59.1669" height="82.8337" rx="7.10003" fill="white"/>
</clipPath>
<clipPath id="clip3_627_19540">
<rect x="274.87" y="29.6875" width="59.1669" height="82.8337" rx="7.10003" fill="white"/>
</clipPath>
<clipPath id="clip4_627_19540">
<rect x="298.87" y="41.6875" width="59.1669" height="82.8337" rx="7.10003" fill="white"/>
</clipPath>
<clipPath id="clip5_627_19540">
<rect x="321.87" y="52.6875" width="59.1669" height="82.8337" rx="7.10003" fill="white"/>
</clipPath>
</defs>
</svg>
