<svg width="460" height="193" viewBox="0 0 460 193" fill="none" xmlns="http://www.w3.org/2000/svg">
<rect width="460" height="192.109" rx="10" fill="#0D131C"/>
<rect x="25" y="20" width="410.285" height="152.109" rx="3.87518" fill="#161F2C"/>
<g filter="url(#filter0_d_507_20609)">
<rect x="79.7111" y="29.9833" width="58.5753" height="82.2421" rx="9.17088" fill="#161F2C" stroke="#55657E" stroke-width="0.591669" stroke-dasharray="4.73 4.73"/>
<g clip-path="url(#clip0_507_20609)">
<rect x="79.4153" y="29.6875" width="59.1669" height="82.8337" rx="7.10003" fill="url(#paint0_linear_507_20609)"/>
<path d="M94.7101 50.6433L99.1069 54.125L96.9978 55.9551L92.668 52.4734L94.7101 50.6433ZM99.2185 44.5504V45.3204C99.2185 46.5553 99.0511 47.6638 98.7163 48.6458C98.389 49.6278 97.9166 50.4648 97.2991 51.1566C96.6816 51.8411 95.9525 52.3656 95.1119 52.7301C94.2712 53.0946 93.3376 53.2769 92.3109 53.2769C91.2917 53.2769 90.3581 53.0946 89.51 52.7301C88.6619 52.3656 87.9291 51.8411 87.3116 51.1566C86.6941 50.4648 86.2143 49.6278 85.8721 48.6458C85.5373 47.6638 85.3699 46.5553 85.3699 45.3204V44.5504C85.3699 43.308 85.5373 42.1995 85.8721 41.225C86.2143 40.2429 86.6904 39.406 87.3004 38.7141C87.9105 38.0223 88.6395 37.4941 89.4876 37.1295C90.3357 36.765 91.2694 36.5827 92.2886 36.5827C93.3152 36.5827 94.2489 36.765 95.0896 37.1295C95.9377 37.4941 96.6704 38.0223 97.2879 38.7141C97.9054 39.406 98.3815 40.2429 98.7163 41.225C99.0511 42.1995 99.2185 43.308 99.2185 44.5504ZM95.8372 45.3204V44.5281C95.8372 43.6651 95.7554 42.9063 95.5917 42.2516C95.4355 41.5969 95.2049 41.0464 94.8998 40.6C94.6023 40.1537 94.234 39.8189 93.7951 39.5957C93.3562 39.3651 92.854 39.2498 92.2886 39.2498C91.7232 39.2498 91.221 39.3651 90.7821 39.5957C90.3432 39.8189 89.9749 40.1537 89.6773 40.6C89.3798 41.0464 89.1529 41.5969 88.9966 42.2516C88.8404 42.9063 88.7623 43.6651 88.7623 44.5281V45.3204C88.7623 46.1759 88.8404 46.9347 88.9966 47.5969C89.1529 48.2515 89.3798 48.8058 89.6773 49.2596C89.9824 49.7059 90.3543 50.0444 90.7933 50.2751C91.2396 50.5057 91.7455 50.621 92.3109 50.621C92.8763 50.621 93.3748 50.5057 93.8062 50.2751C94.2452 50.0444 94.6134 49.7059 94.911 49.2596C95.216 48.8058 95.4467 48.2515 95.6029 47.5969C95.7591 46.9347 95.8372 46.1759 95.8372 45.3204Z" fill="#242424"/>
<path fill-rule="evenodd" clip-rule="evenodd" d="M95.3791 70.5229C97.9052 70.5513 99.4593 68.9331 98.6045 67.2298C97.7497 65.5264 96.8976 65.1432 95.5557 63.9083C94.2133 62.6734 92.2612 60.5371 92.2704 60.0332C92.2803 60.5371 90.4086 62.6734 89.0662 63.9083C87.7243 65.1432 86.8729 65.5264 86.0174 67.2298C85.1626 68.9331 86.7173 70.5513 89.2428 70.5229C90.9767 70.5034 91.757 69.5075 92.0753 68.8848L92.0753 69.6997C92.0753 69.6997 91.5217 72.6393 87.6149 72.9611L86.9921 72.9611L86.9921 73.4192L97.6304 73.4192L97.6304 72.9611L97.007 72.9611C93.1008 72.6393 92.5466 69.6997 92.5466 69.6997L92.5466 68.9918C92.9216 69.6151 93.7414 70.5045 95.3791 70.5229Z" fill="#242424"/>
<path fill-rule="evenodd" clip-rule="evenodd" d="M127.505 101.963C132.998 102.025 136.377 98.5058 134.519 94.8016C132.66 91.0973 130.807 90.2639 127.889 87.5784C124.969 84.8928 120.724 80.2472 120.744 79.1514C120.766 80.2472 116.695 84.8928 113.776 87.5784C110.858 90.2639 109.006 91.0973 107.146 94.8016C105.287 98.5058 108.668 102.025 114.16 101.963C117.931 101.921 119.628 99.7548 120.32 98.4007L120.32 100.173C120.32 100.173 119.116 106.566 110.62 107.265L109.266 107.265L109.266 108.262L132.4 108.262L132.4 107.265L131.045 107.265C122.55 106.566 121.345 100.173 121.345 100.173L121.345 98.6334C122.16 99.989 123.943 101.923 127.505 101.963Z" fill="#242424"/>
</g>
<rect x="80.007" y="30.2792" width="57.9836" height="81.6504" rx="6.50836" stroke="#15DB41" stroke-width="1.18334"/>
</g>
<g filter="url(#filter1_d_507_20609)">
<rect x="103.711" y="41.9833" width="58.5753" height="82.2421" rx="9.17088" fill="#161F2C" stroke="#55657E" stroke-width="0.591669" stroke-dasharray="4.73 4.73"/>
<g clip-path="url(#clip1_507_20609)">
<rect x="103.415" y="41.6875" width="59.1669" height="82.8337" rx="7.10003" fill="url(#paint1_linear_507_20609)"/>
<path d="M113.845 48.8059V65.0537H110.497V48.8059H113.845ZM123.576 48.8059L117.137 56.8294L113.421 60.8244L112.818 57.6552L115.329 54.2181L119.469 48.8059H123.576ZM119.77 65.0537L114.983 57.5436L117.46 55.468L123.732 65.0537H119.77Z" fill="#EE3D3D"/>
<path fill-rule="evenodd" clip-rule="evenodd" d="M119.533 72.3599C116.881 72.3969 116.353 75.1431 116.353 75.1431C116.353 75.1431 115.741 72.3969 113.089 72.3599C110.437 72.3227 108.805 74.438 109.703 76.6646C110.601 78.8911 111.495 79.3921 112.904 81.0063C114.313 82.6206 116.364 85.4131 116.353 86.0718C116.343 85.4131 118.309 82.6206 119.718 81.0063C121.127 79.3921 122.022 78.8911 122.919 76.6646C123.817 74.438 122.185 72.3227 119.533 72.3599Z" fill="#EE3D3D"/>
<path fill-rule="evenodd" clip-rule="evenodd" d="M151.839 91.8614C146.071 91.942 144.925 97.914 144.925 97.914C144.925 97.914 143.594 91.942 137.827 91.8614C132.059 91.7806 128.51 96.3806 130.462 101.223C132.414 106.065 134.359 107.154 137.424 110.665C140.488 114.175 144.947 120.248 144.925 121.68C144.903 120.248 149.177 114.175 152.241 110.665C155.306 107.154 157.251 106.065 159.203 101.223C161.155 96.3806 157.606 91.7806 151.839 91.8614Z" fill="#EE3D3D"/>
</g>
<rect x="104.007" y="42.2792" width="57.9836" height="81.6504" rx="6.50836" stroke="#15DB41" stroke-width="1.18334"/>
</g>
<g filter="url(#filter2_d_507_20609)">
<rect x="126.711" y="51.9833" width="58.5753" height="82.2421" rx="9.17088" fill="#161F2C" stroke="#55657E" stroke-width="0.591669" stroke-dasharray="4.73 4.73"/>
<g clip-path="url(#clip2_507_20609)">
<rect x="126.415" y="51.6875" width="59.1669" height="82.8337" rx="7.10003" fill="url(#paint2_linear_507_20609)"/>
<path d="M136.142 72.6098H136.354C137.246 72.6098 138.013 72.502 138.652 72.2862C139.3 72.063 139.832 71.7431 140.248 71.3265C140.665 70.9099 140.974 70.4003 141.174 69.7977C141.375 69.1877 141.476 68.4958 141.476 67.7221V64.6422C141.476 64.0545 141.416 63.5374 141.297 63.091C141.186 62.6447 141.022 62.2764 140.806 61.9863C140.598 61.6887 140.352 61.4655 140.07 61.3167C139.794 61.1679 139.489 61.0935 139.155 61.0935C138.797 61.0935 138.481 61.1828 138.206 61.3614C137.931 61.5325 137.696 61.7668 137.503 62.0644C137.317 62.362 137.172 62.7042 137.068 63.091C136.971 63.4705 136.923 63.8685 136.923 64.2851C136.923 64.7017 136.971 65.0997 137.068 65.4791C137.165 65.8511 137.31 66.1821 137.503 66.4723C137.696 66.755 137.938 66.9819 138.228 67.153C138.518 67.3167 138.861 67.3985 139.255 67.3985C139.634 67.3985 139.973 67.3278 140.27 67.1865C140.576 67.0377 140.832 66.8443 141.04 66.6062C141.256 66.3681 141.42 66.104 141.531 65.8139C141.651 65.5237 141.71 65.2299 141.71 64.9323L142.77 65.5126C142.77 66.0334 142.659 66.5467 142.435 67.0526C142.212 67.5584 141.9 68.0197 141.498 68.4363C141.104 68.8455 140.646 69.1728 140.125 69.4183C139.605 69.6638 139.047 69.7866 138.452 69.7866C137.693 69.7866 137.019 69.6489 136.432 69.3737C135.844 69.091 135.346 68.7041 134.936 68.2131C134.535 67.7147 134.23 67.1344 134.021 66.4723C133.813 65.8102 133.709 65.0923 133.709 64.3186C133.709 63.53 133.835 62.7897 134.088 62.0979C134.349 61.406 134.717 60.796 135.193 60.2678C135.677 59.7396 136.253 59.3267 136.923 59.0291C137.6 58.7241 138.351 58.5716 139.177 58.5716C140.003 58.5716 140.754 58.7315 141.431 59.0514C142.108 59.3713 142.688 59.8251 143.172 60.4128C143.655 60.9931 144.027 61.6887 144.288 62.4996C144.556 63.3105 144.69 64.2107 144.69 65.2001V66.3161C144.69 67.3725 144.574 68.3545 144.344 69.2621C144.12 70.1697 143.782 70.9918 143.328 71.7283C142.882 72.4573 142.324 73.0823 141.654 73.603C140.992 74.1238 140.222 74.5218 139.344 74.797C138.466 75.0723 137.484 75.2099 136.398 75.2099H136.142V72.6098Z" fill="#EE3D3D"/>
<rect x="139.311" y="82.1113" width="10.0469" height="10.0469" transform="rotate(45 139.311 82.1113)" fill="#EE3D3D"/>
<rect x="167.832" y="101.321" width="21.8489" height="21.8489" transform="rotate(45 167.832 101.321)" fill="#EE3D3D"/>
</g>
<rect x="127.007" y="52.2792" width="57.9836" height="81.6504" rx="6.50836" stroke="#15DB41" stroke-width="1.18334"/>
</g>
<rect x="85.886" y="140.983" width="93.0584" height="21.1417" rx="10.3542" fill="#161F2C"/>
<path d="M91.3138 154.054V145.464H93.0013L96.517 151.2V145.464H98.1283V154.054H96.3881L92.9252 148.452V154.054H91.3138ZM99.8041 154.464L101.685 154.692C101.716 154.911 101.788 155.062 101.902 155.144C102.058 155.261 102.304 155.319 102.64 155.319C103.07 155.319 103.392 155.255 103.607 155.126C103.751 155.04 103.861 154.901 103.935 154.71C103.986 154.573 104.011 154.321 104.011 153.954V153.046C103.519 153.718 102.898 154.054 102.148 154.054C101.312 154.054 100.65 153.7 100.161 152.993C99.7787 152.435 99.5873 151.739 99.5873 150.907C99.5873 149.864 99.8373 149.067 100.337 148.517C100.841 147.966 101.466 147.69 102.212 147.69C102.982 147.69 103.617 148.028 104.117 148.704V147.831H105.658V153.415C105.658 154.149 105.597 154.698 105.476 155.062C105.355 155.425 105.185 155.71 104.966 155.917C104.747 156.124 104.454 156.286 104.087 156.403C103.724 156.521 103.263 156.579 102.704 156.579C101.65 156.579 100.902 156.397 100.46 156.034C100.019 155.675 99.7982 155.218 99.7982 154.663C99.7982 154.608 99.8002 154.542 99.8041 154.464ZM101.275 150.813C101.275 151.474 101.402 151.958 101.656 152.267C101.913 152.571 102.23 152.724 102.605 152.724C103.007 152.724 103.347 152.567 103.624 152.255C103.902 151.938 104.04 151.472 104.04 150.854C104.04 150.21 103.908 149.731 103.642 149.419C103.376 149.106 103.04 148.95 102.634 148.95C102.24 148.95 101.913 149.104 101.656 149.413C101.402 149.718 101.275 150.185 101.275 150.813ZM113.474 147.831H115.12V149.009C115.12 149.493 115.078 149.872 114.992 150.146C114.91 150.419 114.755 150.663 114.529 150.878C114.181 151.214 113.644 151.44 112.917 151.558V154.054H111.388V153.122C110.9 153.837 110.212 154.194 109.326 154.194C108.408 154.194 107.792 153.845 107.48 153.146C107.331 152.813 107.257 152.354 107.257 151.769V147.831H108.904V150.69C108.904 151.511 108.935 152.046 108.997 152.296C109.04 152.483 109.15 152.64 109.326 152.765C109.486 152.882 109.689 152.94 109.935 152.94C110.212 152.94 110.462 152.864 110.685 152.712C110.911 152.56 111.066 152.368 111.148 152.138C111.23 151.907 111.271 151.347 111.271 150.456V147.831H112.917V150.89C113.46 150.78 113.841 150.577 114.06 150.28C114.193 150.101 114.263 149.833 114.271 149.478H113.474V147.831ZM117.294 150.942C117.294 151.54 117.441 152.013 117.734 152.36C118.011 152.688 118.372 152.853 118.818 152.853C119.263 152.853 119.622 152.688 119.896 152.36C120.189 152.013 120.335 151.536 120.335 150.931C120.335 150.337 120.189 149.868 119.896 149.524C119.622 149.196 119.263 149.032 118.818 149.032C118.372 149.032 118.011 149.196 117.734 149.524C117.441 149.872 117.294 150.345 117.294 150.942ZM122.011 147.831H123.658V149.009C123.658 149.493 123.615 149.872 123.529 150.146C123.447 150.419 123.292 150.663 123.066 150.878C122.804 151.132 122.447 151.331 121.994 151.476C121.896 152.175 121.605 152.771 121.12 153.263C120.511 153.884 119.745 154.194 118.824 154.194C118.234 154.194 117.691 154.065 117.195 153.808C116.667 153.534 116.271 153.153 116.005 152.665C115.74 152.173 115.607 151.569 115.607 150.854C115.607 150.292 115.742 149.763 116.011 149.267C116.292 148.747 116.677 148.354 117.165 148.089C117.654 147.823 118.203 147.69 118.812 147.69C119.753 147.69 120.525 147.995 121.126 148.604C121.669 149.159 121.968 149.845 122.023 150.661C122.531 150.454 122.792 150.06 122.808 149.478H122.011V147.831ZM119.644 147.069H118.607L116.99 145.317H118.835L119.644 147.069ZM124.519 146.987V145.464H126.165V146.987H124.519ZM124.519 154.054V147.831H126.165V154.054H124.519ZM136.624 149.671L135.001 149.964C134.947 149.64 134.822 149.396 134.626 149.231C134.435 149.067 134.185 148.985 133.876 148.985C133.466 148.985 133.138 149.128 132.892 149.413C132.65 149.694 132.529 150.167 132.529 150.831C132.529 151.569 132.652 152.091 132.898 152.396C133.148 152.7 133.482 152.853 133.9 152.853C134.212 152.853 134.468 152.765 134.667 152.589C134.867 152.409 135.007 152.103 135.089 151.669L136.706 151.944C136.538 152.687 136.216 153.247 135.74 153.626C135.263 154.005 134.624 154.194 133.824 154.194C132.913 154.194 132.187 153.907 131.644 153.333C131.105 152.759 130.835 151.964 130.835 150.948C130.835 149.921 131.107 149.122 131.65 148.552C132.193 147.978 132.927 147.69 133.853 147.69C134.611 147.69 135.212 147.854 135.658 148.183C136.107 148.507 136.429 149.003 136.624 149.671ZM139.519 145.464V148.622C140.05 148.001 140.685 147.69 141.423 147.69C141.802 147.69 142.144 147.761 142.449 147.901C142.753 148.042 142.982 148.222 143.134 148.44C143.29 148.659 143.396 148.901 143.451 149.167C143.509 149.433 143.538 149.845 143.538 150.403V154.054H141.892V150.767C141.892 150.114 141.861 149.7 141.798 149.524C141.736 149.349 141.624 149.21 141.464 149.108C141.308 149.003 141.111 148.95 140.872 148.95C140.599 148.95 140.355 149.017 140.14 149.149C139.925 149.282 139.767 149.483 139.665 149.753C139.568 150.019 139.519 150.413 139.519 150.937V154.054H137.872V145.464H139.519ZM146.521 150.942C146.521 151.54 146.667 152.013 146.96 152.36C147.238 152.688 147.599 152.853 148.044 152.853C148.49 152.853 148.849 152.688 149.122 152.36C149.415 152.013 149.562 151.536 149.562 150.931C149.562 150.337 149.415 149.868 149.122 149.524C148.849 149.196 148.49 149.032 148.044 149.032C147.599 149.032 147.238 149.196 146.96 149.524C146.667 149.872 146.521 150.345 146.521 150.942ZM151.238 147.831H152.884V149.009C152.884 149.493 152.841 149.872 152.755 150.146C152.673 150.419 152.519 150.663 152.292 150.878C152.031 151.132 151.673 151.331 151.22 151.476C151.122 152.175 150.831 152.771 150.347 153.263C149.738 153.884 148.972 154.194 148.05 154.194C147.46 154.194 146.917 154.065 146.421 153.808C145.894 153.534 145.497 153.153 145.232 152.665C144.966 152.173 144.833 151.569 144.833 150.854C144.833 150.292 144.968 149.763 145.238 149.267C145.519 148.747 145.904 148.354 146.392 148.089C146.88 147.823 147.429 147.69 148.038 147.69C148.98 147.69 149.751 147.995 150.353 148.604C150.896 149.159 151.195 149.845 151.249 150.661C151.757 150.454 152.019 150.06 152.035 149.478H151.238V147.831ZM153.745 146.987V145.464H155.392V146.987H153.745ZM153.745 154.054V147.831H155.392V154.054H153.745Z" fill="white"/>
<rect x="159.874" y="143.054" width="17" height="17" rx="8.5" fill="#15DB41"/>
<path d="M168.28 147.318C167.428 147.318 166.72 147.594 166.144 148.158C165.568 148.71 165.292 149.406 165.292 150.27C165.292 151.11 165.532 151.794 166.024 152.322C166.528 152.862 167.212 153.138 168.052 153.138C168.496 153.138 168.892 153.042 169.24 152.874C169.6 152.682 169.912 152.406 170.152 152.034H170.2C170.2 152.094 170.212 152.142 170.212 152.19C170.212 153.018 170.032 153.714 169.696 154.266C169.336 154.842 168.868 155.142 168.28 155.142C167.416 155.142 166.888 154.722 166.72 153.894H165.448C165.664 155.442 166.6 156.222 168.268 156.222C169.252 156.222 170.032 155.778 170.62 154.914C171.184 154.05 171.472 152.922 171.472 151.53C171.472 150.21 171.196 149.19 170.668 148.458C170.116 147.69 169.324 147.318 168.28 147.318ZM168.328 148.398C168.832 148.398 169.252 148.566 169.576 148.902C169.888 149.226 170.056 149.67 170.056 150.234C170.056 150.786 169.9 151.242 169.588 151.578C169.276 151.914 168.844 152.082 168.316 152.082C167.776 152.082 167.356 151.914 167.056 151.578C166.732 151.254 166.576 150.822 166.576 150.27C166.576 149.718 166.732 149.274 167.056 148.926C167.368 148.566 167.8 148.398 168.328 148.398Z" fill="#484848"/>
<rect x="85.886" y="140.983" width="93.0584" height="21.1417" rx="10.3542" stroke="#55657E" stroke-width="0.591669"/>
<g filter="url(#filter3_d_507_20609)">
<rect x="275.166" y="29.9833" width="58.5753" height="82.2421" rx="9.17088" fill="#161F2C" stroke="#55657E" stroke-width="0.591669" stroke-dasharray="4.73 4.73"/>
<g clip-path="url(#clip3_507_20609)">
<rect x="274.87" y="29.6875" width="59.1669" height="82.8337" rx="7.10003" fill="url(#paint3_linear_507_20609)"/>
<path d="M285.344 45.6552L282.777 45.0414L283.703 36.8059H292.832V39.406H286.348L285.946 43.0104C286.162 42.884 286.489 42.75 286.928 42.6087C287.367 42.4599 287.858 42.3855 288.401 42.3855C289.19 42.3855 289.889 42.5083 290.499 42.7538C291.109 42.9993 291.626 43.3564 292.05 43.825C292.482 44.2937 292.809 44.8666 293.032 45.5436C293.256 46.2206 293.367 46.9868 293.367 47.8424C293.367 48.564 293.256 49.2521 293.032 49.9068C292.809 50.554 292.471 51.1343 292.017 51.6477C291.563 52.1535 290.994 52.5515 290.31 52.8417C289.625 53.1318 288.814 53.2769 287.877 53.2769C287.178 53.2769 286.501 53.1727 285.846 52.9644C285.199 52.7561 284.615 52.4474 284.094 52.0382C283.581 51.6291 283.168 51.1343 282.855 50.554C282.55 49.9663 282.39 49.2968 282.375 48.5454H285.567C285.612 49.0066 285.731 49.4047 285.924 49.7394C286.125 50.0668 286.389 50.3197 286.716 50.4983C287.044 50.6768 287.427 50.7661 287.866 50.7661C288.275 50.7661 288.625 50.688 288.915 50.5317C289.205 50.3755 289.439 50.1598 289.618 49.8845C289.796 49.6018 289.926 49.2745 290.008 48.9025C290.098 48.5231 290.142 48.1139 290.142 47.675C290.142 47.236 290.09 46.838 289.986 46.4809C289.882 46.1238 289.722 45.8151 289.506 45.5547C289.29 45.2943 289.015 45.0935 288.68 44.9521C288.353 44.8108 287.97 44.7401 287.531 44.7401C286.936 44.7401 286.475 44.8331 286.147 45.0191C285.827 45.2051 285.559 45.4171 285.344 45.6552Z" fill="#EE3D3D"/>
<rect x="287.765" y="60.1113" width="10.0469" height="10.0469" transform="rotate(45 287.765 60.1113)" fill="#EE3D3D"/>
<path fill-rule="evenodd" clip-rule="evenodd" d="M322.959 101.963C328.453 102.025 331.832 98.5058 329.973 94.8016C328.114 91.0973 326.261 90.2639 323.343 87.5784C320.424 84.8928 316.179 80.2472 316.199 79.1514C316.22 80.2472 312.15 84.8928 309.23 87.5784C306.312 90.2639 304.461 91.0973 302.6 94.8016C300.742 98.5058 304.122 102.025 309.615 101.963C313.385 101.921 315.082 99.7548 315.774 98.4007L315.774 100.173C315.774 100.173 314.571 106.566 306.074 107.265L304.72 107.265L304.72 108.262L327.855 108.262L327.855 107.265L326.499 107.265C318.004 106.566 316.799 100.173 316.799 100.173L316.799 98.6334C317.615 99.989 319.398 101.923 322.959 101.963Z" fill="#242424"/>
</g>
</g>
<g filter="url(#filter4_d_507_20609)">
<rect x="299.166" y="41.9833" width="58.5753" height="82.2421" rx="9.17088" fill="#161F2C" stroke="#55657E" stroke-width="0.591669" stroke-dasharray="4.73 4.73"/>
<g clip-path="url(#clip4_507_20609)">
<rect x="298.87" y="41.6875" width="59.1669" height="82.8337" rx="7.10003" fill="url(#paint4_linear_507_20609)"/>
<path d="M309.344 57.6552L306.777 57.0414L307.703 48.8059H316.832V51.406H310.348L309.946 55.0104C310.162 54.884 310.489 54.75 310.928 54.6087C311.367 54.4599 311.858 54.3855 312.401 54.3855C313.19 54.3855 313.889 54.5083 314.499 54.7538C315.109 54.9993 315.626 55.3564 316.05 55.825C316.482 56.2937 316.809 56.8666 317.032 57.5436C317.256 58.2206 317.367 58.9868 317.367 59.8424C317.367 60.564 317.256 61.2521 317.032 61.9068C316.809 62.554 316.471 63.1343 316.017 63.6477C315.563 64.1535 314.994 64.5515 314.31 64.8417C313.625 65.1318 312.814 65.2769 311.877 65.2769C311.178 65.2769 310.501 65.1727 309.846 64.9644C309.199 64.7561 308.615 64.4474 308.094 64.0382C307.581 63.6291 307.168 63.1343 306.855 62.554C306.55 61.9663 306.39 61.2968 306.375 60.5454H309.567C309.612 61.0066 309.731 61.4047 309.924 61.7394C310.125 62.0668 310.389 62.3197 310.716 62.4983C311.044 62.6768 311.427 62.7661 311.866 62.7661C312.275 62.7661 312.625 62.688 312.915 62.5317C313.205 62.3755 313.439 62.1598 313.618 61.8845C313.796 61.6018 313.926 61.2745 314.008 60.9025C314.098 60.5231 314.142 60.1139 314.142 59.675C314.142 59.236 314.09 58.838 313.986 58.4809C313.882 58.1238 313.722 57.8151 313.506 57.5547C313.29 57.2943 313.015 57.0935 312.68 56.9521C312.353 56.8108 311.97 56.7401 311.531 56.7401C310.936 56.7401 310.475 56.8331 310.147 57.0191C309.827 57.2051 309.559 57.4171 309.344 57.6552Z" fill="#EE3D3D"/>
<path fill-rule="evenodd" clip-rule="evenodd" d="M314.987 72.3599C312.335 72.3969 311.808 75.1431 311.808 75.1431C311.808 75.1431 311.196 72.3969 308.544 72.3599C305.892 72.3227 304.259 74.438 305.157 76.6646C306.055 78.8911 306.949 79.3921 308.358 81.0063C309.768 82.6206 311.818 85.4131 311.808 86.0718C311.798 85.4131 313.763 82.6206 315.172 81.0063C316.581 79.3921 317.476 78.8911 318.373 76.6646C319.271 74.438 317.639 72.3227 314.987 72.3599Z" fill="#EE3D3D"/>
<path fill-rule="evenodd" clip-rule="evenodd" d="M347.293 91.8614C341.525 91.942 340.379 97.914 340.379 97.914C340.379 97.914 339.048 91.942 333.281 91.8614C327.513 91.7806 323.964 96.3806 325.916 101.223C327.868 106.065 329.813 107.154 332.878 110.665C335.942 114.175 340.401 120.248 340.379 121.68C340.357 120.248 344.631 114.175 347.695 110.665C350.76 107.154 352.705 106.065 354.657 101.223C356.609 96.3806 353.06 91.7806 347.293 91.8614Z" fill="#EE3D3D"/>
</g>
</g>
<g filter="url(#filter5_d_507_20609)">
<rect x="322.166" y="52.9833" width="58.5753" height="82.2421" rx="9.17088" fill="#161F2C" stroke="#55657E" stroke-width="0.591669" stroke-dasharray="4.73 4.73"/>
<g clip-path="url(#clip5_507_20609)">
<rect x="321.87" y="52.6875" width="59.1669" height="82.8337" rx="7.10003" fill="url(#paint5_linear_507_20609)"/>
<path d="M332.299 59.8059V76.0537H328.951V59.8059H332.299ZM342.03 59.8059L335.591 67.8294L331.875 71.8244L331.272 68.6552L333.783 65.2181L337.923 59.8059H342.03ZM338.225 76.0537L333.437 68.5436L335.915 66.468L342.186 76.0537H338.225Z" fill="#EE3D3D"/>
<path fill-rule="evenodd" clip-rule="evenodd" d="M337.987 83.3599C335.335 83.3969 334.808 86.1431 334.808 86.1431C334.808 86.1431 334.196 83.3969 331.544 83.3599C328.892 83.3227 327.259 85.438 328.157 87.6646C329.055 89.8911 329.949 90.3921 331.358 92.0063C332.768 93.6206 334.818 96.4131 334.808 97.0718C334.798 96.4131 336.763 93.6206 338.172 92.0063C339.581 90.3921 340.476 89.8911 341.373 87.6646C342.271 85.438 340.639 83.3227 337.987 83.3599Z" fill="#EE3D3D"/>
<path fill-rule="evenodd" clip-rule="evenodd" d="M370.292 102.861C364.525 102.942 363.378 108.914 363.378 108.914C363.378 108.914 362.048 102.942 356.28 102.861C350.513 102.781 346.964 107.381 348.916 112.223C350.868 117.065 352.813 118.154 355.877 121.665C358.942 125.175 363.401 131.248 363.378 132.68C363.356 131.248 367.63 125.175 370.695 121.665C373.76 118.154 375.705 117.065 377.657 112.223C379.609 107.381 376.06 102.781 370.292 102.861Z" fill="#EE3D3D"/>
</g>
</g>
<rect x="272.391" y="140.983" width="110.958" height="20.4083" rx="10.2042" fill="#161F2C"/>
<path d="M277.163 153.688V145.098H278.851L282.366 150.834V145.098H283.978V153.688H282.237L278.774 148.086V153.688H277.163ZM285.653 154.098L287.534 154.326C287.565 154.545 287.638 154.695 287.751 154.777C287.907 154.895 288.153 154.953 288.489 154.953C288.919 154.953 289.241 154.889 289.456 154.76C289.601 154.674 289.71 154.535 289.784 154.344C289.835 154.207 289.86 153.955 289.86 153.588V152.68C289.368 153.352 288.747 153.688 287.997 153.688C287.161 153.688 286.499 153.334 286.011 152.627C285.628 152.068 285.437 151.373 285.437 150.541C285.437 149.498 285.687 148.701 286.187 148.15C286.69 147.6 287.315 147.324 288.062 147.324C288.831 147.324 289.466 147.662 289.966 148.338V147.465H291.507V153.049C291.507 153.783 291.446 154.332 291.325 154.695C291.204 155.059 291.034 155.344 290.815 155.551C290.597 155.758 290.304 155.92 289.937 156.037C289.573 156.154 289.112 156.213 288.554 156.213C287.499 156.213 286.751 156.031 286.31 155.668C285.868 155.309 285.647 154.852 285.647 154.297C285.647 154.242 285.649 154.176 285.653 154.098ZM287.124 150.447C287.124 151.107 287.251 151.592 287.505 151.9C287.763 152.205 288.079 152.357 288.454 152.357C288.856 152.357 289.196 152.201 289.474 151.889C289.751 151.572 289.89 151.105 289.89 150.488C289.89 149.844 289.757 149.365 289.491 149.053C289.226 148.74 288.89 148.584 288.483 148.584C288.089 148.584 287.763 148.738 287.505 149.047C287.251 149.352 287.124 149.818 287.124 150.447ZM299.323 147.465H300.97V148.643C300.97 149.127 300.927 149.506 300.841 149.779C300.759 150.053 300.604 150.297 300.378 150.512C300.03 150.848 299.493 151.074 298.767 151.191V153.688H297.237V152.756C296.749 153.471 296.062 153.828 295.175 153.828C294.257 153.828 293.642 153.479 293.329 152.779C293.181 152.447 293.106 151.988 293.106 151.402V147.465H294.753V150.324C294.753 151.145 294.784 151.68 294.847 151.93C294.89 152.117 294.999 152.273 295.175 152.398C295.335 152.516 295.538 152.574 295.784 152.574C296.062 152.574 296.312 152.498 296.534 152.346C296.761 152.193 296.915 152.002 296.997 151.771C297.079 151.541 297.12 150.98 297.12 150.09V147.465H298.767V150.523C299.31 150.414 299.69 150.211 299.909 149.914C300.042 149.734 300.112 149.467 300.12 149.111H299.323V147.465ZM303.144 150.576C303.144 151.174 303.29 151.646 303.583 151.994C303.86 152.322 304.222 152.486 304.667 152.486C305.112 152.486 305.472 152.322 305.745 151.994C306.038 151.646 306.185 151.17 306.185 150.564C306.185 149.971 306.038 149.502 305.745 149.158C305.472 148.83 305.112 148.666 304.667 148.666C304.222 148.666 303.86 148.83 303.583 149.158C303.29 149.506 303.144 149.979 303.144 150.576ZM307.86 147.465H309.507V148.643C309.507 149.127 309.464 149.506 309.378 149.779C309.296 150.053 309.142 150.297 308.915 150.512C308.653 150.766 308.296 150.965 307.843 151.109C307.745 151.809 307.454 152.404 306.97 152.896C306.36 153.518 305.595 153.828 304.673 153.828C304.083 153.828 303.54 153.699 303.044 153.441C302.517 153.168 302.12 152.787 301.854 152.299C301.589 151.807 301.456 151.203 301.456 150.488C301.456 149.926 301.591 149.396 301.86 148.9C302.142 148.381 302.526 147.988 303.015 147.723C303.503 147.457 304.052 147.324 304.661 147.324C305.603 147.324 306.374 147.629 306.976 148.238C307.519 148.793 307.817 149.479 307.872 150.295C308.38 150.088 308.642 149.693 308.657 149.111H307.86V147.465ZM305.493 146.703H304.456L302.839 144.951H304.685L305.493 146.703ZM310.368 146.621V145.098H312.015V146.621H310.368ZM310.368 153.688V147.465H312.015V153.688H310.368ZM322.474 149.305L320.851 149.598C320.796 149.273 320.671 149.029 320.476 148.865C320.284 148.701 320.034 148.619 319.726 148.619C319.315 148.619 318.987 148.762 318.741 149.047C318.499 149.328 318.378 149.801 318.378 150.465C318.378 151.203 318.501 151.725 318.747 152.029C318.997 152.334 319.331 152.486 319.749 152.486C320.062 152.486 320.317 152.398 320.517 152.223C320.716 152.043 320.856 151.736 320.938 151.303L322.556 151.578C322.388 152.32 322.065 152.881 321.589 153.26C321.112 153.639 320.474 153.828 319.673 153.828C318.763 153.828 318.036 153.541 317.493 152.967C316.954 152.393 316.685 151.598 316.685 150.582C316.685 149.555 316.956 148.756 317.499 148.186C318.042 147.611 318.776 147.324 319.702 147.324C320.46 147.324 321.062 147.488 321.507 147.816C321.956 148.141 322.278 148.637 322.474 149.305ZM325.368 145.098V148.256C325.899 147.635 326.534 147.324 327.272 147.324C327.651 147.324 327.993 147.395 328.298 147.535C328.603 147.676 328.831 147.855 328.983 148.074C329.14 148.293 329.245 148.535 329.3 148.801C329.358 149.066 329.388 149.479 329.388 150.037V153.688H327.741V150.4C327.741 149.748 327.71 149.334 327.647 149.158C327.585 148.982 327.474 148.844 327.313 148.742C327.157 148.637 326.96 148.584 326.722 148.584C326.448 148.584 326.204 148.65 325.989 148.783C325.774 148.916 325.616 149.117 325.515 149.387C325.417 149.652 325.368 150.047 325.368 150.57V153.688H323.722V145.098H325.368ZM331.063 146.621V145.098H332.71V146.621H331.063ZM331.063 153.688V147.465H332.71V153.688H331.063ZM335.634 149.363L334.14 149.094C334.308 148.492 334.597 148.047 335.007 147.758C335.417 147.469 336.026 147.324 336.835 147.324C337.569 147.324 338.116 147.412 338.476 147.588C338.835 147.76 339.087 147.98 339.231 148.25C339.38 148.516 339.454 149.006 339.454 149.721L339.437 151.643C339.437 152.189 339.462 152.594 339.513 152.855C339.567 153.113 339.667 153.391 339.812 153.688H338.183C338.14 153.578 338.087 153.416 338.024 153.201C337.997 153.104 337.978 153.039 337.966 153.008C337.685 153.281 337.384 153.486 337.063 153.623C336.743 153.76 336.401 153.828 336.038 153.828C335.397 153.828 334.892 153.654 334.521 153.307C334.153 152.959 333.97 152.52 333.97 151.988C333.97 151.637 334.054 151.324 334.222 151.051C334.39 150.773 334.624 150.562 334.925 150.418C335.229 150.27 335.667 150.141 336.237 150.031C337.007 149.887 337.54 149.752 337.837 149.627V149.463C337.837 149.146 337.759 148.922 337.603 148.789C337.446 148.652 337.151 148.584 336.718 148.584C336.425 148.584 336.196 148.643 336.032 148.76C335.868 148.873 335.735 149.074 335.634 149.363ZM337.837 150.699C337.626 150.77 337.292 150.854 336.835 150.951C336.378 151.049 336.079 151.145 335.938 151.238C335.724 151.391 335.616 151.584 335.616 151.818C335.616 152.049 335.702 152.248 335.874 152.416C336.046 152.584 336.265 152.668 336.53 152.668C336.827 152.668 337.11 152.57 337.38 152.375C337.579 152.227 337.71 152.045 337.772 151.83C337.815 151.689 337.837 151.422 337.837 151.027V150.699ZM344.353 153.688V145.098H345.999V148.191C346.507 147.613 347.108 147.324 347.804 147.324C348.562 147.324 349.188 147.6 349.685 148.15C350.181 148.697 350.429 149.484 350.429 150.512C350.429 151.574 350.175 152.393 349.667 152.967C349.163 153.541 348.55 153.828 347.827 153.828C347.472 153.828 347.12 153.74 346.772 153.564C346.429 153.385 346.132 153.121 345.882 152.773V153.688H344.353ZM345.987 150.441C345.987 151.086 346.089 151.562 346.292 151.871C346.577 152.309 346.956 152.527 347.429 152.527C347.792 152.527 348.101 152.373 348.354 152.064C348.612 151.752 348.741 151.262 348.741 150.594C348.741 149.883 348.612 149.371 348.354 149.059C348.097 148.742 347.767 148.584 347.364 148.584C346.97 148.584 346.642 148.738 346.38 149.047C346.118 149.352 345.987 149.816 345.987 150.441ZM352.989 149.363L351.495 149.094C351.663 148.492 351.952 148.047 352.362 147.758C352.772 147.469 353.382 147.324 354.19 147.324C354.925 147.324 355.472 147.412 355.831 147.588C356.19 147.76 356.442 147.98 356.587 148.25C356.735 148.516 356.81 149.006 356.81 149.721L356.792 151.643C356.792 152.189 356.817 152.594 356.868 152.855C356.923 153.113 357.022 153.391 357.167 153.688H355.538C355.495 153.578 355.442 153.416 355.38 153.201C355.353 153.104 355.333 153.039 355.321 153.008C355.04 153.281 354.739 153.486 354.419 153.623C354.099 153.76 353.757 153.828 353.394 153.828C352.753 153.828 352.247 153.654 351.876 153.307C351.509 152.959 351.325 152.52 351.325 151.988C351.325 151.637 351.409 151.324 351.577 151.051C351.745 150.773 351.979 150.562 352.28 150.418C352.585 150.27 353.022 150.141 353.593 150.031C354.362 149.887 354.896 149.752 355.192 149.627V149.463C355.192 149.146 355.114 148.922 354.958 148.789C354.802 148.652 354.507 148.584 354.073 148.584C353.78 148.584 353.552 148.643 353.388 148.76C353.224 148.873 353.091 149.074 352.989 149.363ZM355.192 150.699C354.981 150.77 354.647 150.854 354.19 150.951C353.733 151.049 353.435 151.145 353.294 151.238C353.079 151.391 352.972 151.584 352.972 151.818C352.972 152.049 353.058 152.248 353.229 152.416C353.401 152.584 353.62 152.668 353.886 152.668C354.183 152.668 354.466 152.57 354.735 152.375C354.935 152.227 355.065 152.045 355.128 151.83C355.171 151.689 355.192 151.422 355.192 151.027V150.699ZM355.075 146.703H354.038L352.421 144.951H354.267L355.075 146.703ZM358.438 146.621V145.098H360.085V146.621H358.438ZM358.438 153.688V147.465H360.085V153.688H358.438Z" fill="white"/>
<rect x="364.645" y="142.688" width="17" height="17" rx="8.5" fill="#55657E"/>
<path d="M373.147 146.951C372.139 146.951 371.359 147.371 370.807 148.223C370.303 149.003 370.051 150.059 370.051 151.403C370.051 152.735 370.303 153.791 370.807 154.583C371.359 155.423 372.139 155.856 373.147 155.856C374.155 155.856 374.935 155.423 375.487 154.583C375.991 153.791 376.243 152.723 376.243 151.403C376.243 150.071 375.991 149.015 375.487 148.223C374.935 147.371 374.155 146.951 373.147 146.951ZM373.147 148.055C373.843 148.055 374.347 148.439 374.635 149.219C374.839 149.747 374.947 150.479 374.947 151.403C374.947 152.315 374.839 153.047 374.635 153.587C374.347 154.355 373.843 154.751 373.147 154.751C372.439 154.751 371.947 154.355 371.659 153.587C371.443 153.047 371.347 152.315 371.347 151.403C371.347 150.479 371.443 149.747 371.659 149.219C371.947 148.439 372.439 148.055 373.147 148.055Z" fill="white"/>
<rect x="272.391" y="140.983" width="110.958" height="20.4083" rx="10.2042" stroke="#55657E" stroke-width="0.591669"/>
<defs>
<filter id="filter0_d_507_20609" x="74.518" y="26.0961" width="68.9616" height="92.6286" filterUnits="userSpaceOnUse" color-interpolation-filters="sRGB">
<feFlood flood-opacity="0" result="BackgroundImageFix"/>
<feColorMatrix in="SourceAlpha" type="matrix" values="0 0 0 0 0 0 0 0 0 0 0 0 0 0 0 0 0 0 127 0" result="hardAlpha"/>
<feOffset dy="1.30595"/>
<feGaussianBlur stdDeviation="2.44865"/>
<feComposite in2="hardAlpha" operator="out"/>
<feColorMatrix type="matrix" values="0 0 0 0 0 0 0 0 0 0 0 0 0 0 0 0 0 0 0.25 0"/>
<feBlend mode="normal" in2="BackgroundImageFix" result="effect1_dropShadow_507_20609"/>
<feBlend mode="normal" in="SourceGraphic" in2="effect1_dropShadow_507_20609" result="shape"/>
</filter>
<filter id="filter1_d_507_20609" x="98.5181" y="38.0961" width="68.9616" height="92.6286" filterUnits="userSpaceOnUse" color-interpolation-filters="sRGB">
<feFlood flood-opacity="0" result="BackgroundImageFix"/>
<feColorMatrix in="SourceAlpha" type="matrix" values="0 0 0 0 0 0 0 0 0 0 0 0 0 0 0 0 0 0 127 0" result="hardAlpha"/>
<feOffset dy="1.30595"/>
<feGaussianBlur stdDeviation="2.44865"/>
<feComposite in2="hardAlpha" operator="out"/>
<feColorMatrix type="matrix" values="0 0 0 0 0 0 0 0 0 0 0 0 0 0 0 0 0 0 0.25 0"/>
<feBlend mode="normal" in2="BackgroundImageFix" result="effect1_dropShadow_507_20609"/>
<feBlend mode="normal" in="SourceGraphic" in2="effect1_dropShadow_507_20609" result="shape"/>
</filter>
<filter id="filter2_d_507_20609" x="121.518" y="48.0961" width="68.9616" height="92.6286" filterUnits="userSpaceOnUse" color-interpolation-filters="sRGB">
<feFlood flood-opacity="0" result="BackgroundImageFix"/>
<feColorMatrix in="SourceAlpha" type="matrix" values="0 0 0 0 0 0 0 0 0 0 0 0 0 0 0 0 0 0 127 0" result="hardAlpha"/>
<feOffset dy="1.30595"/>
<feGaussianBlur stdDeviation="2.44865"/>
<feComposite in2="hardAlpha" operator="out"/>
<feColorMatrix type="matrix" values="0 0 0 0 0 0 0 0 0 0 0 0 0 0 0 0 0 0 0.25 0"/>
<feBlend mode="normal" in2="BackgroundImageFix" result="effect1_dropShadow_507_20609"/>
<feBlend mode="normal" in="SourceGraphic" in2="effect1_dropShadow_507_20609" result="shape"/>
</filter>
<filter id="filter3_d_507_20609" x="269.972" y="26.0961" width="68.9616" height="92.6286" filterUnits="userSpaceOnUse" color-interpolation-filters="sRGB">
<feFlood flood-opacity="0" result="BackgroundImageFix"/>
<feColorMatrix in="SourceAlpha" type="matrix" values="0 0 0 0 0 0 0 0 0 0 0 0 0 0 0 0 0 0 127 0" result="hardAlpha"/>
<feOffset dy="1.30595"/>
<feGaussianBlur stdDeviation="2.44865"/>
<feComposite in2="hardAlpha" operator="out"/>
<feColorMatrix type="matrix" values="0 0 0 0 0 0 0 0 0 0 0 0 0 0 0 0 0 0 0.25 0"/>
<feBlend mode="normal" in2="BackgroundImageFix" result="effect1_dropShadow_507_20609"/>
<feBlend mode="normal" in="SourceGraphic" in2="effect1_dropShadow_507_20609" result="shape"/>
</filter>
<filter id="filter4_d_507_20609" x="293.972" y="38.0961" width="68.9616" height="92.6286" filterUnits="userSpaceOnUse" color-interpolation-filters="sRGB">
<feFlood flood-opacity="0" result="BackgroundImageFix"/>
<feColorMatrix in="SourceAlpha" type="matrix" values="0 0 0 0 0 0 0 0 0 0 0 0 0 0 0 0 0 0 127 0" result="hardAlpha"/>
<feOffset dy="1.30595"/>
<feGaussianBlur stdDeviation="2.44865"/>
<feComposite in2="hardAlpha" operator="out"/>
<feColorMatrix type="matrix" values="0 0 0 0 0 0 0 0 0 0 0 0 0 0 0 0 0 0 0.25 0"/>
<feBlend mode="normal" in2="BackgroundImageFix" result="effect1_dropShadow_507_20609"/>
<feBlend mode="normal" in="SourceGraphic" in2="effect1_dropShadow_507_20609" result="shape"/>
</filter>
<filter id="filter5_d_507_20609" x="316.972" y="49.0961" width="68.9616" height="92.6286" filterUnits="userSpaceOnUse" color-interpolation-filters="sRGB">
<feFlood flood-opacity="0" result="BackgroundImageFix"/>
<feColorMatrix in="SourceAlpha" type="matrix" values="0 0 0 0 0 0 0 0 0 0 0 0 0 0 0 0 0 0 127 0" result="hardAlpha"/>
<feOffset dy="1.30595"/>
<feGaussianBlur stdDeviation="2.44865"/>
<feComposite in2="hardAlpha" operator="out"/>
<feColorMatrix type="matrix" values="0 0 0 0 0 0 0 0 0 0 0 0 0 0 0 0 0 0 0.25 0"/>
<feBlend mode="normal" in2="BackgroundImageFix" result="effect1_dropShadow_507_20609"/>
<feBlend mode="normal" in="SourceGraphic" in2="effect1_dropShadow_507_20609" result="shape"/>
</filter>
<linearGradient id="paint0_linear_507_20609" x1="108.999" y1="29.6875" x2="108.999" y2="112.521" gradientUnits="userSpaceOnUse">
<stop stop-color="#F9F9F9"/>
<stop offset="1" stop-color="#ECECEC"/>
</linearGradient>
<linearGradient id="paint1_linear_507_20609" x1="132.999" y1="41.6875" x2="132.999" y2="124.521" gradientUnits="userSpaceOnUse">
<stop stop-color="#F9F9F9"/>
<stop offset="1" stop-color="#ECECEC"/>
</linearGradient>
<linearGradient id="paint2_linear_507_20609" x1="155.999" y1="51.6875" x2="155.999" y2="134.521" gradientUnits="userSpaceOnUse">
<stop stop-color="#F9F9F9"/>
<stop offset="1" stop-color="#ECECEC"/>
</linearGradient>
<linearGradient id="paint3_linear_507_20609" x1="304.453" y1="29.6875" x2="304.453" y2="112.521" gradientUnits="userSpaceOnUse">
<stop stop-color="#F9F9F9"/>
<stop offset="1" stop-color="#ECECEC"/>
</linearGradient>
<linearGradient id="paint4_linear_507_20609" x1="328.453" y1="41.6875" x2="328.453" y2="124.521" gradientUnits="userSpaceOnUse">
<stop stop-color="#F9F9F9"/>
<stop offset="1" stop-color="#ECECEC"/>
</linearGradient>
<linearGradient id="paint5_linear_507_20609" x1="351.453" y1="52.6875" x2="351.453" y2="135.521" gradientUnits="userSpaceOnUse">
<stop stop-color="#F9F9F9"/>
<stop offset="1" stop-color="#ECECEC"/>
</linearGradient>
<clipPath id="clip0_507_20609">
<rect x="79.4153" y="29.6875" width="59.1669" height="82.8337" rx="7.10003" fill="white"/>
</clipPath>
<clipPath id="clip1_507_20609">
<rect x="103.415" y="41.6875" width="59.1669" height="82.8337" rx="7.10003" fill="white"/>
</clipPath>
<clipPath id="clip2_507_20609">
<rect x="126.415" y="51.6875" width="59.1669" height="82.8337" rx="7.10003" fill="white"/>
</clipPath>
<clipPath id="clip3_507_20609">
<rect x="274.87" y="29.6875" width="59.1669" height="82.8337" rx="7.10003" fill="white"/>
</clipPath>
<clipPath id="clip4_507_20609">
<rect x="298.87" y="41.6875" width="59.1669" height="82.8337" rx="7.10003" fill="white"/>
</clipPath>
<clipPath id="clip5_507_20609">
<rect x="321.87" y="52.6875" width="59.1669" height="82.8337" rx="7.10003" fill="white"/>
</clipPath>
</defs>
</svg>
