<svg width="432" height="294" viewBox="0 0 432 294" fill="none" xmlns="http://www.w3.org/2000/svg">
<rect x="0.857422" width="430.285" height="293.109" rx="10" fill="#F4F7FD"/>
<rect x="10.8574" y="20" width="410.285" height="253.109" rx="3.87518" fill="white"/>
<g filter="url(#filter0_di_627_19652)">
<g clip-path="url(#clip0_627_19652)">
<rect x="120.279" y="29.6875" width="191.441" height="90" rx="22.8814" fill="#171717"/>
<path fill-rule="evenodd" clip-rule="evenodd" d="M216.381 100.619L216.381 100.62L121.042 76.7855L121.042 124.455L216.381 100.62L216.381 100.622L216.38 100.621L216.381 100.622L132.113 151.182L165.821 184.89L216.38 100.624L192.546 195.959H240.216L216.382 100.625L266.941 184.89L300.649 151.182L216.382 100.622L216.382 100.621L216.381 100.622L216.381 100.62L311.72 124.455V76.7855L216.381 100.62L216.381 100.619L216.382 100.619L216.382 100.618L216.382 100.618L300.649 50.058L266.941 16.3506L216.382 100.615L240.216 5.28125L192.546 5.28125L216.38 100.616L165.821 16.3506L132.113 50.058L216.381 100.618L216.38 100.619L216.381 100.619Z" fill="url(#paint0_radial_627_19652)"/>
<g filter="url(#filter1_d_627_19652)">
<path d="M217.349 54.8136V57.445H224.191V54.8136H217.349ZM216.365 41.039V59.2526H219.043V43.6475H222.726V59.0924H225.541V41.039H216.365ZM209.661 41.1534V60.3509H212.407V41.1534H209.661ZM205.543 45.7068V48.2467H215.748V45.7068H205.543ZM209.478 46.6678C208.7 49.5967 206.961 53.0517 205.062 55.0653C205.52 55.7746 206.16 56.85 206.435 57.6509C208.54 55.317 210.325 50.9924 211.309 47.2856L209.478 46.6678ZM214.054 39.0712C211.972 39.9178 208.632 40.65 205.634 41.0619C205.932 41.6568 206.275 42.595 206.389 43.2128C209.501 42.8467 213.139 42.1831 215.839 41.2221L214.054 39.0712ZM212.155 48.3839L210.851 49.6882C211.743 50.8551 213.574 53.4636 214.329 54.8594L215.908 52.5941C215.359 51.9077 212.865 49.0475 212.155 48.3839Z" fill="url(#paint1_linear_627_19652)"/>
<path d="M217.349 54.8136V54.0509H216.587V54.8136H217.349ZM217.349 57.445H216.587V58.2077H217.349V57.445ZM224.191 57.445V58.2077H224.954V57.445H224.191ZM224.191 54.8136H224.954V54.0509H224.191V54.8136ZM216.365 41.039V40.2763H215.603V41.039H216.365ZM216.365 59.2526H215.603V60.0153H216.365V59.2526ZM219.043 59.2526V60.0153H219.805V59.2526H219.043ZM219.043 43.6475V42.8848H218.28V43.6475H219.043ZM222.726 43.6475H223.489V42.8848H222.726V43.6475ZM222.726 59.0924H221.964V59.8551H222.726V59.0924ZM225.541 59.0924V59.8551H226.304V59.0924H225.541ZM225.541 41.039H226.304V40.2763H225.541V41.039ZM209.661 41.1534V40.3907H208.898V41.1534H209.661ZM209.661 60.3509H208.898V61.1136H209.661V60.3509ZM212.407 60.3509V61.1136H213.17V60.3509H212.407ZM212.407 41.1534H213.17V40.3907H212.407V41.1534ZM205.543 45.7068V44.9441H204.78V45.7068H205.543ZM205.543 48.2467H204.78V49.0094H205.543V48.2467ZM215.748 48.2467V49.0094H216.51V48.2467H215.748ZM215.748 45.7068H216.51V44.9441H215.748V45.7068ZM209.478 46.6678L209.722 45.9452L208.95 45.6847L208.741 46.472L209.478 46.6678ZM205.062 55.0653L204.507 54.542L204.097 54.9767L204.421 55.4788L205.062 55.0653ZM206.435 57.6509L205.713 57.8983L206.134 59.1237L207.001 58.1617L206.435 57.6509ZM211.309 47.2856L212.046 47.4813L212.229 46.7913L211.553 46.563L211.309 47.2856ZM214.054 39.0712L214.641 38.5842L214.285 38.1543L213.767 38.3647L214.054 39.0712ZM205.634 41.0619L205.53 40.3063L204.476 40.4512L204.952 41.403L205.634 41.0619ZM206.389 43.2128L205.639 43.3516L205.769 44.0537L206.478 43.9702L206.389 43.2128ZM215.839 41.2221L216.095 41.9406L217.123 41.5747L216.426 40.735L215.839 41.2221ZM212.155 48.3839L212.676 47.827L212.138 47.323L211.616 47.8446L212.155 48.3839ZM210.851 49.6882L210.312 49.1489L209.839 49.621L210.245 50.1515L210.851 49.6882ZM214.329 54.8594L213.658 55.2223L214.247 56.3108L214.955 55.2955L214.329 54.8594ZM215.908 52.5941L216.534 53.0302L216.859 52.5627L216.503 52.1177L215.908 52.5941ZM216.587 54.8136V57.445H218.112V54.8136H216.587ZM217.349 58.2077H224.191V56.6822H217.349V58.2077ZM224.954 57.445V54.8136H223.428V57.445H224.954ZM224.191 54.0509H217.349V55.5763H224.191V54.0509ZM215.603 41.039V59.2526H217.128V41.039H215.603ZM216.365 60.0153H219.043V58.4899H216.365V60.0153ZM219.805 59.2526V43.6475H218.28V59.2526H219.805ZM219.043 44.4102H222.726V42.8848H219.043V44.4102ZM221.964 43.6475V59.0924H223.489V43.6475H221.964ZM222.726 59.8551H225.541V58.3297H222.726V59.8551ZM226.304 59.0924V41.039H224.778V59.0924H226.304ZM225.541 40.2763H216.365V41.8017H225.541V40.2763ZM208.898 41.1534V60.3509H210.424V41.1534H208.898ZM209.661 61.1136H212.407V59.5882H209.661V61.1136ZM213.17 60.3509V41.1534H211.644V60.3509H213.17ZM212.407 40.3907H209.661V41.9161H212.407V40.3907ZM204.78 45.7068V48.2467H206.305V45.7068H204.78ZM205.543 49.0094H215.748V47.4839H205.543V49.0094ZM216.51 48.2467V45.7068H214.985V48.2467H216.51ZM215.748 44.9441H205.543V46.4695H215.748V44.9441ZM208.741 46.472C207.987 49.3092 206.3 52.6415 204.507 54.542L205.617 55.5886C207.623 53.4619 209.413 49.8841 210.215 46.8636L208.741 46.472ZM204.421 55.4788C204.88 56.1895 205.472 57.195 205.713 57.8983L207.156 57.4035C206.848 56.5051 206.16 55.3597 205.703 54.6518L204.421 55.4788ZM207.001 58.1617C209.23 55.6908 211.053 51.2228 212.046 47.4813L210.571 47.09C209.597 50.762 207.85 54.9432 205.869 57.1401L207.001 58.1617ZM211.553 46.563L209.722 45.9452L209.234 47.3905L211.065 48.0083L211.553 46.563ZM213.767 38.3647C211.772 39.1761 208.504 39.8977 205.53 40.3063L205.738 41.8175C208.759 41.4024 212.173 40.6596 214.342 39.7778L213.767 38.3647ZM204.952 41.403C205.226 41.9519 205.541 42.8213 205.639 43.3516L207.139 43.0739C207.008 42.3686 206.637 41.3618 206.316 40.7208L204.952 41.403ZM206.478 43.9702C209.613 43.6014 213.316 42.9296 216.095 41.9406L215.583 40.5035C212.962 41.4366 209.389 42.0919 206.3 42.4553L206.478 43.9702ZM216.426 40.735L214.641 38.5842L213.467 39.5583L215.252 41.7091L216.426 40.735ZM211.616 47.8446L210.312 49.1489L211.39 50.2275L212.695 48.9233L211.616 47.8446ZM210.245 50.1515C211.131 51.3096 212.932 53.8801 213.658 55.2223L215 54.4965C214.216 53.0471 212.356 50.4007 211.457 49.2249L210.245 50.1515ZM214.955 55.2955L216.534 53.0302L215.282 52.158L213.703 54.4233L214.955 55.2955ZM216.503 52.1177C215.948 51.424 213.427 48.529 212.676 47.827L211.634 48.9409C212.302 49.566 214.769 52.3914 215.312 53.0706L216.503 52.1177Z" fill="white"/>
</g>
<g filter="url(#filter2_d_627_19652)">
<path d="M197.533 72.2086V85.5352H193.851V76.8027C193.255 77.2556 192.677 77.622 192.117 77.9021C191.563 78.1821 190.866 78.4503 190.025 78.7065V75.7212C191.265 75.322 192.227 74.8423 192.912 74.2822C193.598 73.7221 194.134 73.0309 194.521 72.2086H197.533ZM201.85 81.8884H205.738V85.5352H201.85V81.8884ZM207.589 78.93C207.589 76.4392 208.036 74.6963 208.929 73.7012C209.829 72.7061 211.197 72.2086 213.032 72.2086C213.914 72.2086 214.638 72.3188 215.204 72.5393C215.77 72.7538 216.232 73.0368 216.589 73.3884C216.947 73.734 217.227 74.1004 217.429 74.4878C217.638 74.8691 217.805 75.316 217.93 75.8285C218.174 76.8057 218.296 77.8246 218.296 78.8853C218.296 81.2628 217.894 83.0027 217.09 84.1051C216.285 85.2074 214.9 85.7586 212.934 85.7586C211.831 85.7586 210.94 85.5828 210.261 85.2313C209.582 84.8797 209.025 84.3643 208.59 83.685C208.274 83.2023 208.027 82.5439 207.848 81.7097C207.675 80.8695 207.589 79.9429 207.589 78.93ZM211.2 78.9389C211.2 80.6073 211.346 81.7484 211.638 82.3622C211.935 82.9699 212.365 83.2738 212.925 83.2738C213.294 83.2738 213.613 83.1457 213.881 82.8895C214.155 82.6273 214.355 82.2162 214.48 81.6561C214.611 81.0959 214.676 80.223 214.676 79.0372C214.676 77.2973 214.528 76.1294 214.23 75.5335C213.938 74.9317 213.497 74.6308 212.907 74.6308C212.305 74.6308 211.87 74.9376 211.602 75.5514C211.334 76.1592 211.2 77.2883 211.2 78.9389ZM219.798 78.93C219.798 76.4392 220.245 74.6963 221.139 73.7012C222.038 72.7061 223.406 72.2086 225.241 72.2086C226.123 72.2086 226.847 72.3188 227.413 72.5393C227.979 72.7538 228.441 73.0368 228.799 73.3884C229.156 73.734 229.436 74.1004 229.639 74.4878C229.847 74.8691 230.014 75.316 230.139 75.8285C230.384 76.8057 230.506 77.8246 230.506 78.8853C230.506 81.2628 230.104 83.0027 229.299 84.1051C228.495 85.2074 227.109 85.7586 225.143 85.7586C224.041 85.7586 223.15 85.5828 222.47 85.2313C221.791 84.8797 221.234 84.3643 220.799 83.685C220.483 83.2023 220.236 82.5439 220.057 81.7097C219.884 80.8695 219.798 79.9429 219.798 78.93ZM223.409 78.9389C223.409 80.6073 223.555 81.7484 223.847 82.3622C224.145 82.9699 224.574 83.2738 225.134 83.2738C225.503 83.2738 225.822 83.1457 226.09 82.8895C226.364 82.6273 226.564 82.2162 226.689 81.6561C226.82 81.0959 226.886 80.223 226.886 79.0372C226.886 77.2973 226.737 76.1294 226.439 75.5335C226.147 74.9317 225.706 74.6308 225.116 74.6308C224.514 74.6308 224.079 74.9376 223.811 75.5514C223.543 76.1592 223.409 77.2883 223.409 78.9389ZM231.534 76.043H235.851L237.361 78.6886L239.113 76.043H243.126L239.891 80.5656L243.359 85.5352H239.113L237.361 82.4784L235.297 85.5352H231.355L234.805 80.5656L231.534 76.043Z" fill="#FFE08F"/>
</g>
<rect x="163.372" y="96.043" width="105.034" height="16" rx="8" fill="#3B3B3C"/>
<g clip-path="url(#clip1_627_19652)">
<path d="M184.522 105.704C183.605 109.381 179.88 111.619 176.203 110.702C172.526 109.785 170.288 106.06 171.206 102.383C172.122 98.7055 175.847 96.4673 179.523 97.3841C183.201 98.3009 185.439 102.026 184.522 105.704L184.522 105.704H184.522Z" fill="#F7931A"/>
<path d="M180.89 103.065C181.027 102.152 180.331 101.661 179.38 101.333L179.689 100.096L178.936 99.908L178.635 101.113C178.437 101.063 178.234 101.017 178.032 100.971L178.334 99.758L177.582 99.5703L177.273 100.807C177.109 100.77 176.948 100.733 176.792 100.694L176.793 100.69L175.754 100.431L175.554 101.236C175.554 101.236 176.113 101.364 176.101 101.372C176.406 101.448 176.461 101.65 176.452 101.81L176.1 103.219C176.121 103.225 176.149 103.232 176.179 103.244C176.154 103.238 176.127 103.231 176.099 103.225L175.606 105.2C175.569 105.292 175.475 105.431 175.261 105.379C175.269 105.389 174.714 105.242 174.714 105.242L174.34 106.104L175.32 106.348C175.502 106.394 175.681 106.442 175.857 106.487L175.545 107.739L176.298 107.926L176.606 106.688C176.812 106.744 177.012 106.795 177.207 106.844L176.899 108.076L177.652 108.264L177.964 107.015C179.249 107.258 180.214 107.16 180.621 105.998C180.948 105.063 180.605 104.523 179.929 104.171C180.421 104.058 180.792 103.734 180.891 103.065L180.89 103.065L180.89 103.065ZM179.169 105.479C178.937 106.414 177.362 105.908 176.851 105.782L177.265 104.123C177.775 104.251 179.413 104.503 179.169 105.479H179.169ZM179.402 103.052C179.19 103.903 177.879 103.47 177.454 103.364L177.829 101.86C178.254 101.966 179.623 102.164 179.402 103.052H179.402Z" fill="white"/>
</g>
<path d="M188.249 104.915C188.249 103.358 188.528 102.269 189.086 101.647C189.649 101.025 190.504 100.714 191.651 100.714C192.202 100.714 192.654 100.783 193.008 100.921C193.362 101.055 193.65 101.232 193.874 101.451C194.097 101.667 194.272 101.896 194.399 102.138C194.529 102.377 194.634 102.656 194.712 102.976C194.865 103.587 194.941 104.224 194.941 104.887C194.941 106.373 194.69 107.46 194.187 108.149C193.684 108.838 192.818 109.183 191.589 109.183C190.9 109.183 190.343 109.073 189.919 108.853C189.494 108.633 189.146 108.311 188.874 107.887C188.677 107.585 188.522 107.173 188.411 106.652C188.303 106.127 188.249 105.548 188.249 104.915ZM190.505 104.92C190.505 105.963 190.597 106.676 190.779 107.06C190.965 107.44 191.233 107.63 191.584 107.63C191.814 107.63 192.014 107.55 192.181 107.389C192.353 107.226 192.477 106.969 192.556 106.619C192.637 106.268 192.678 105.723 192.678 104.982C192.678 103.894 192.585 103.164 192.399 102.792C192.217 102.416 191.941 102.228 191.572 102.228C191.196 102.228 190.924 102.42 190.757 102.803C190.589 103.183 190.505 103.889 190.505 104.92ZM196.103 106.764H198.533V109.043H196.103V106.764ZM199.689 104.915C199.689 103.358 199.969 102.269 200.527 101.647C201.09 101.025 201.944 100.714 203.091 100.714C203.642 100.714 204.095 100.783 204.449 100.921C204.803 101.055 205.091 101.232 205.315 101.451C205.538 101.667 205.713 101.896 205.84 102.138C205.97 102.377 206.074 102.656 206.153 102.976C206.305 103.587 206.382 104.224 206.382 104.887C206.382 106.373 206.13 107.46 205.627 108.149C205.125 108.838 204.259 109.183 203.03 109.183C202.341 109.183 201.784 109.073 201.36 108.853C200.935 108.633 200.587 108.311 200.315 107.887C200.118 107.585 199.963 107.173 199.851 106.652C199.743 106.127 199.689 105.548 199.689 104.915ZM201.946 104.92C201.946 105.963 202.037 106.676 202.22 107.06C202.406 107.44 202.674 107.63 203.024 107.63C203.255 107.63 203.454 107.55 203.622 107.389C203.793 107.226 203.918 106.969 203.996 106.619C204.078 106.268 204.119 105.723 204.119 104.982C204.119 103.894 204.026 103.164 203.84 102.792C203.657 102.416 203.382 102.228 203.013 102.228C202.637 102.228 202.365 102.42 202.197 102.803C202.03 103.183 201.946 103.889 201.946 104.92ZM207.32 104.915C207.32 103.358 207.599 102.269 208.158 101.647C208.72 101.025 209.575 100.714 210.722 100.714C211.273 100.714 211.726 100.783 212.08 100.921C212.433 101.055 212.722 101.232 212.945 101.451C213.169 101.667 213.344 101.896 213.471 102.138C213.601 102.377 213.705 102.656 213.783 102.976C213.936 103.587 214.012 104.224 214.012 104.887C214.012 106.373 213.761 107.46 213.258 108.149C212.756 108.838 211.89 109.183 210.661 109.183C209.972 109.183 209.415 109.073 208.99 108.853C208.566 108.633 208.218 108.311 207.946 107.887C207.748 107.585 207.594 107.173 207.482 106.652C207.374 106.127 207.32 105.548 207.32 104.915ZM209.577 104.92C209.577 105.963 209.668 106.676 209.851 107.06C210.037 107.44 210.305 107.63 210.655 107.63C210.886 107.63 211.085 107.55 211.253 107.389C211.424 107.226 211.549 106.969 211.627 106.619C211.709 106.268 211.75 105.723 211.75 104.982C211.75 103.894 211.657 103.164 211.471 102.792C211.288 102.416 211.013 102.228 210.644 102.228C210.268 102.228 209.996 102.42 209.828 102.803C209.661 103.183 209.577 103.889 209.577 104.92ZM220.107 100.714V109.043H217.805V103.585C217.433 103.868 217.072 104.097 216.722 104.272C216.375 104.447 215.94 104.615 215.415 104.775V102.909C216.189 102.66 216.791 102.36 217.219 102.01C217.647 101.66 217.982 101.228 218.224 100.714H220.107ZM224.788 103.222L222.638 102.837C222.816 102.151 223.159 101.626 223.665 101.261C224.176 100.896 224.896 100.714 225.827 100.714C226.896 100.714 227.669 100.913 228.146 101.312C228.622 101.71 228.861 102.211 228.861 102.814C228.861 103.168 228.764 103.488 228.57 103.775C228.377 104.062 228.084 104.313 227.693 104.529C228.01 104.607 228.252 104.699 228.419 104.803C228.691 104.971 228.902 105.192 229.051 105.468C229.203 105.74 229.28 106.065 229.28 106.445C229.28 106.922 229.155 107.38 228.905 107.82C228.656 108.255 228.297 108.592 227.827 108.831C227.358 109.065 226.742 109.183 225.978 109.183C225.233 109.183 224.645 109.095 224.213 108.92C223.785 108.745 223.431 108.49 223.152 108.155C222.876 107.816 222.664 107.391 222.515 106.881L224.788 106.579C224.878 107.037 225.016 107.356 225.202 107.535C225.392 107.71 225.632 107.797 225.922 107.797C226.228 107.797 226.481 107.686 226.682 107.462C226.887 107.239 226.989 106.941 226.989 106.568C226.989 106.188 226.891 105.894 226.693 105.686C226.5 105.477 226.235 105.373 225.9 105.373C225.721 105.373 225.475 105.417 225.163 105.507L225.28 103.881C225.407 103.9 225.505 103.909 225.576 103.909C225.874 103.909 226.122 103.814 226.319 103.624C226.52 103.434 226.621 103.209 226.621 102.948C226.621 102.699 226.546 102.5 226.397 102.351C226.248 102.202 226.043 102.127 225.783 102.127C225.515 102.127 225.297 102.209 225.129 102.373C224.962 102.533 224.848 102.816 224.788 103.222ZM230.213 104.915C230.213 103.358 230.492 102.269 231.051 101.647C231.613 101.025 232.468 100.714 233.615 100.714C234.166 100.714 234.618 100.783 234.972 100.921C235.326 101.055 235.615 101.232 235.838 101.451C236.061 101.667 236.236 101.896 236.363 102.138C236.493 102.377 236.598 102.656 236.676 102.976C236.829 103.587 236.905 104.224 236.905 104.887C236.905 106.373 236.654 107.46 236.151 108.149C235.648 108.838 234.782 109.183 233.553 109.183C232.864 109.183 232.307 109.073 231.883 108.853C231.458 108.633 231.11 108.311 230.838 107.887C230.641 107.585 230.486 107.173 230.375 106.652C230.267 106.127 230.213 105.548 230.213 104.915ZM232.469 104.92C232.469 105.963 232.561 106.676 232.743 107.06C232.929 107.44 233.198 107.63 233.548 107.63C233.778 107.63 233.978 107.55 234.145 107.389C234.317 107.226 234.441 106.969 234.52 106.619C234.602 106.268 234.643 105.723 234.643 104.982C234.643 103.894 234.549 103.164 234.363 102.792C234.181 102.416 233.905 102.228 233.536 102.228C233.16 102.228 232.888 102.42 232.721 102.803C232.553 103.183 232.469 103.889 232.469 104.92ZM241.754 107.512H237.609V105.641L241.754 100.714H243.737V105.747H244.765V107.512H243.737V109.043H241.754V107.512ZM241.754 105.747V103.172L239.564 105.747H241.754ZM250.63 100.714V109.043H248.329V103.585C247.956 103.868 247.595 104.097 247.245 104.272C246.899 104.447 246.463 104.615 245.938 104.775V102.909C246.713 102.66 247.314 102.36 247.742 102.01C248.171 101.66 248.506 101.228 248.748 100.714H250.63ZM259.764 109.043H252.938C253.016 108.369 253.252 107.736 253.647 107.144C254.045 106.548 254.79 105.846 255.882 105.038C256.548 104.542 256.975 104.166 257.161 103.909C257.347 103.652 257.44 103.408 257.44 103.177C257.44 102.928 257.347 102.716 257.161 102.541C256.978 102.362 256.747 102.272 256.468 102.272C256.178 102.272 255.939 102.364 255.753 102.546C255.571 102.729 255.448 103.051 255.384 103.513L253.105 103.328C253.195 102.688 253.358 102.189 253.597 101.831C253.835 101.47 254.17 101.194 254.602 101.004C255.038 100.811 255.639 100.714 256.407 100.714C257.207 100.714 257.829 100.805 258.272 100.988C258.719 101.17 259.069 101.451 259.323 101.831C259.58 102.207 259.708 102.63 259.708 103.099C259.708 103.598 259.561 104.075 259.267 104.529C258.976 104.984 258.446 105.483 257.675 106.026C257.217 106.343 256.909 106.565 256.753 106.691C256.6 106.818 256.42 106.983 256.211 107.188H259.764V109.043Z" fill="white"/>
</g>
<rect x="121.042" y="30.4502" width="189.915" height="88.4746" rx="22.1186" stroke="#EFC046" stroke-width="1.52542"/>
</g>
<g filter="url(#filter3_d_627_19652)">
<rect x="65.5683" y="129.983" width="58.5753" height="82.2421" rx="9.17088" fill="white" stroke="#ECECEC" stroke-width="0.591669" stroke-dasharray="4.73 4.73"/>
<g clip-path="url(#clip2_627_19652)">
<rect x="65.2725" y="129.688" width="59.1669" height="82.8337" rx="7.10003" fill="url(#paint2_linear_627_19652)"/>
<path d="M80.5672 150.643L84.9639 154.125L82.8548 155.955L78.5251 152.473L80.5672 150.643ZM85.0755 144.55V145.32C85.0755 146.555 84.9081 147.664 84.5734 148.646C84.246 149.628 83.7736 150.465 83.1561 151.157C82.5387 151.841 81.8096 152.366 80.9689 152.73C80.1283 153.095 79.1946 153.277 78.168 153.277C77.1488 153.277 76.2151 153.095 75.367 152.73C74.5189 152.366 73.7861 151.841 73.1686 151.157C72.5512 150.465 72.0713 149.628 71.7291 148.646C71.3943 147.664 71.2269 146.555 71.2269 145.32V144.55C71.2269 143.308 71.3943 142.2 71.7291 141.225C72.0713 140.243 72.5474 139.406 73.1575 138.714C73.7675 138.022 74.4966 137.494 75.3447 137.13C76.1928 136.765 77.1264 136.583 78.1457 136.583C79.1723 136.583 80.106 136.765 80.9466 137.13C81.7947 137.494 82.5275 138.022 83.145 138.714C83.7625 139.406 84.2386 140.243 84.5734 141.225C84.9081 142.2 85.0755 143.308 85.0755 144.55ZM81.6943 145.32V144.528C81.6943 143.665 81.6124 142.906 81.4488 142.252C81.2925 141.597 81.0619 141.046 80.7569 140.6C80.4593 140.154 80.0911 139.819 79.6521 139.596C79.2132 139.365 78.7111 139.25 78.1457 139.25C77.5803 139.25 77.0781 139.365 76.6392 139.596C76.2002 139.819 75.832 140.154 75.5344 140.6C75.2368 141.046 75.0099 141.597 74.8537 142.252C74.6975 142.906 74.6193 143.665 74.6193 144.528V145.32C74.6193 146.176 74.6975 146.935 74.8537 147.597C75.0099 148.252 75.2368 148.806 75.5344 149.26C75.8394 149.706 76.2114 150.044 76.6503 150.275C77.0967 150.506 77.6026 150.621 78.168 150.621C78.7334 150.621 79.2318 150.506 79.6633 150.275C80.1022 150.044 80.4705 149.706 80.7681 149.26C81.0731 148.806 81.3037 148.252 81.4599 147.597C81.6162 146.935 81.6943 146.176 81.6943 145.32Z" fill="#242424"/>
<path fill-rule="evenodd" clip-rule="evenodd" d="M81.2365 170.523C83.7627 170.551 85.3167 168.933 84.4619 167.23C83.6071 165.526 82.755 165.143 81.4132 163.908C80.0707 162.673 78.1186 160.537 78.1278 160.033C78.1377 160.537 76.266 162.673 74.9236 163.908C73.5818 165.143 72.7303 165.526 71.8748 167.23C71.0201 168.933 72.5748 170.551 75.1002 170.523C76.8341 170.503 77.6144 169.507 77.9328 168.885L77.9328 169.7C77.9328 169.7 77.3792 172.639 73.4724 172.961L72.8496 172.961L72.8496 173.419L83.4878 173.419L83.4878 172.961L82.8644 172.961C78.9582 172.639 78.404 169.7 78.404 169.7L78.404 168.992C78.779 169.615 79.5988 170.504 81.2365 170.523Z" fill="#242424"/>
<path fill-rule="evenodd" clip-rule="evenodd" d="M113.362 201.963C118.855 202.025 122.235 198.506 120.376 194.802C118.517 191.097 116.664 190.264 113.746 187.578C110.826 184.893 106.581 180.247 106.601 179.151C106.623 180.247 102.552 184.893 99.6329 187.578C96.7149 190.264 94.8632 191.097 93.0029 194.802C91.144 198.506 94.5249 202.025 100.017 201.963C103.788 201.921 105.485 199.755 106.177 198.401L106.177 200.173C106.177 200.173 104.973 206.566 96.477 207.265L95.1226 207.265L95.1226 208.262L118.257 208.262L118.257 207.265L116.902 207.265C108.407 206.566 107.202 200.173 107.202 200.173L107.202 198.633C108.017 199.989 109.8 201.923 113.362 201.963Z" fill="#242424"/>
</g>
<rect x="65.8641" y="130.279" width="57.9836" height="81.6504" rx="6.50836" stroke="#15DB41" stroke-width="1.18334"/>
</g>
<g filter="url(#filter4_d_627_19652)">
<rect x="89.5683" y="141.983" width="58.5753" height="82.2421" rx="9.17088" fill="white" stroke="#ECECEC" stroke-width="0.591669" stroke-dasharray="4.73 4.73"/>
<g clip-path="url(#clip3_627_19652)">
<rect x="89.2725" y="141.688" width="59.1669" height="82.8337" rx="7.10003" fill="url(#paint3_linear_627_19652)"/>
<path d="M99.7018 148.806V165.054H96.354V148.806H99.7018ZM109.433 148.806L102.994 156.829L99.2777 160.824L98.6751 157.655L101.186 154.218L105.326 148.806H109.433ZM105.627 165.054L100.84 157.544L103.317 155.468L109.589 165.054H105.627Z" fill="#EE3D3D"/>
<path fill-rule="evenodd" clip-rule="evenodd" d="M105.389 172.36C102.737 172.397 102.21 175.143 102.21 175.143C102.21 175.143 101.598 172.397 98.9461 172.36C96.294 172.323 94.6619 174.438 95.5596 176.665C96.4572 178.891 97.3516 179.392 98.7609 181.006C100.17 182.621 102.22 185.413 102.21 186.072C102.2 185.413 104.165 182.621 105.575 181.006C106.984 179.392 107.878 178.891 108.776 176.665C109.674 174.438 108.041 172.323 105.389 172.36Z" fill="#EE3D3D"/>
<path fill-rule="evenodd" clip-rule="evenodd" d="M137.695 191.861C131.928 191.942 130.782 197.914 130.782 197.914C130.782 197.914 129.451 191.942 123.683 191.861C117.916 191.781 114.367 196.381 116.319 201.223C118.271 206.065 120.216 207.154 123.28 210.665C126.345 214.175 130.804 220.248 130.782 221.68C130.759 220.248 135.034 214.175 138.098 210.665C141.163 207.154 143.108 206.065 145.06 201.223C147.012 196.381 143.463 191.781 137.695 191.861Z" fill="#EE3D3D"/>
</g>
<rect x="89.8641" y="142.279" width="57.9836" height="81.6504" rx="6.50836" stroke="#15DB41" stroke-width="1.18334"/>
</g>
<g filter="url(#filter5_d_627_19652)">
<rect x="112.568" y="151.983" width="58.5753" height="82.2421" rx="9.17088" fill="white" stroke="#ECECEC" stroke-width="0.591669" stroke-dasharray="4.73 4.73"/>
<g clip-path="url(#clip4_627_19652)">
<rect x="112.272" y="151.688" width="59.1669" height="82.8337" rx="7.10003" fill="url(#paint4_linear_627_19652)"/>
<path d="M121.999 172.61H122.211C123.104 172.61 123.87 172.502 124.51 172.286C125.157 172.063 125.689 171.743 126.105 171.327C126.522 170.91 126.831 170.4 127.032 169.798C127.232 169.188 127.333 168.496 127.333 167.722V164.642C127.333 164.054 127.273 163.537 127.154 163.091C127.043 162.645 126.879 162.276 126.663 161.986C126.455 161.689 126.209 161.466 125.927 161.317C125.652 161.168 125.347 161.094 125.012 161.094C124.655 161.094 124.338 161.183 124.063 161.361C123.788 161.532 123.554 161.767 123.36 162.064C123.174 162.362 123.029 162.704 122.925 163.091C122.828 163.47 122.78 163.868 122.78 164.285C122.78 164.702 122.828 165.1 122.925 165.479C123.022 165.851 123.167 166.182 123.36 166.472C123.554 166.755 123.795 166.982 124.086 167.153C124.376 167.317 124.718 167.398 125.112 167.398C125.492 167.398 125.83 167.328 126.128 167.186C126.433 167.038 126.689 166.844 126.898 166.606C127.113 166.368 127.277 166.104 127.389 165.814C127.508 165.524 127.567 165.23 127.567 164.932L128.627 165.513C128.627 166.033 128.516 166.547 128.293 167.053C128.069 167.558 127.757 168.02 127.355 168.436C126.961 168.845 126.503 169.173 125.983 169.418C125.462 169.664 124.904 169.787 124.309 169.787C123.55 169.787 122.877 169.649 122.289 169.374C121.701 169.091 121.203 168.704 120.794 168.213C120.392 167.715 120.087 167.134 119.879 166.472C119.67 165.81 119.566 165.092 119.566 164.319C119.566 163.53 119.693 162.79 119.945 162.098C120.206 161.406 120.574 160.796 121.05 160.268C121.534 159.74 122.11 159.327 122.78 159.029C123.457 158.724 124.208 158.572 125.034 158.572C125.86 158.572 126.611 158.732 127.288 159.051C127.965 159.371 128.545 159.825 129.029 160.413C129.513 160.993 129.885 161.689 130.145 162.5C130.413 163.311 130.547 164.211 130.547 165.2V166.316C130.547 167.372 130.431 168.354 130.201 169.262C129.978 170.17 129.639 170.992 129.185 171.728C128.739 172.457 128.181 173.082 127.511 173.603C126.849 174.124 126.079 174.522 125.201 174.797C124.324 175.072 123.342 175.21 122.255 175.21H121.999V172.61Z" fill="#EE3D3D"/>
<rect x="125.168" y="182.111" width="10.0469" height="10.0469" transform="rotate(45 125.168 182.111)" fill="#EE3D3D"/>
<rect x="153.689" y="201.321" width="21.8489" height="21.8489" transform="rotate(45 153.689 201.321)" fill="#EE3D3D"/>
</g>
<rect x="112.864" y="152.279" width="57.9836" height="81.6504" rx="6.50836" stroke="#15DB41" stroke-width="1.18334"/>
</g>
<rect x="91.7431" y="240.983" width="53.0584" height="22.1417" rx="10.3542" fill="white"/>
<path d="M99.5217 250.606V251.724H101.81C101.082 253.141 100.12 254.272 98.9107 255.13L99.6387 256.313C100.627 255.403 101.472 254.233 102.174 252.803V257.665H103.318V253.466C104.228 254.285 104.969 255.065 105.541 255.819L106.334 255.013C105.515 254.051 104.514 253.076 103.318 252.114V251.724H105.827V250.606H103.318V248.734H102.174V250.606H99.5217ZM106.555 258.289C107.517 258.289 108.011 257.808 108.011 256.846V246.979H101.953V248.071H106.854V256.521C106.854 256.976 106.672 257.21 106.308 257.21L105.177 257.171L105.489 258.289H106.555ZM97.3377 248.552V258.406H98.4947V248.552H97.3377ZM99.4177 246.277L98.3777 246.745C98.8717 247.317 99.3397 247.98 99.7557 248.734L100.757 248.214C100.367 247.512 99.9117 246.862 99.4177 246.277ZM117.67 253.427C118.294 255.169 119.295 256.625 120.673 257.782L121.557 256.755C120.231 255.819 119.256 254.597 118.658 253.076C119.425 252.764 120.14 252.4 120.816 251.971L119.984 251.139C118.944 251.802 117.852 252.296 116.708 252.634C116.448 252.166 116.136 251.724 115.759 251.308C116.045 251.126 116.344 250.931 116.656 250.723H119.542V249.579H111.82V250.723H114.732C114.446 250.866 114.147 250.996 113.835 251.126C112.795 251.555 111.677 251.893 110.481 252.14L111.105 253.167C112.639 252.712 113.835 252.283 114.68 251.88C114.719 251.854 114.758 251.841 114.81 251.815C114.94 251.971 115.057 252.127 115.187 252.296C114.004 253.141 112.353 253.83 110.234 254.376L110.845 255.442C112.86 254.857 114.485 254.116 115.707 253.206C115.811 253.44 115.915 253.7 115.993 253.96C114.576 255.078 112.6 256.001 110.065 256.716L110.689 257.769C112.951 257.067 114.797 256.196 116.201 255.143C116.201 255.26 116.214 255.39 116.214 255.52C116.214 256.248 116.097 256.729 115.889 256.989C115.707 257.184 115.252 257.288 114.524 257.288H113.861L114.277 258.38H114.693C115.876 258.38 116.63 258.146 116.968 257.678C117.254 257.288 117.41 256.56 117.41 255.52C117.397 254.818 117.293 254.168 117.098 253.57C117.28 253.518 117.475 253.479 117.67 253.427ZM115.98 246.303L114.719 246.524C114.862 246.797 115.005 247.096 115.135 247.434H110.104V249.852H111.339V248.578H120.023V249.852H121.258V247.434H116.383C116.253 247.018 116.123 246.641 115.98 246.303Z" fill="#484848"/>
<rect x="125.73" y="243.054" width="17" height="17" rx="8.5" fill="#15DB41"/>
<path d="M134.137 247.318C133.285 247.318 132.577 247.594 132.001 248.158C131.425 248.71 131.149 249.406 131.149 250.27C131.149 251.11 131.389 251.794 131.881 252.322C132.385 252.862 133.069 253.138 133.909 253.138C134.353 253.138 134.749 253.042 135.097 252.874C135.457 252.682 135.769 252.406 136.009 252.034H136.057C136.057 252.094 136.069 252.142 136.069 252.19C136.069 253.018 135.889 253.714 135.553 254.266C135.193 254.842 134.725 255.142 134.137 255.142C133.273 255.142 132.745 254.722 132.577 253.894H131.305C131.521 255.442 132.457 256.222 134.125 256.222C135.109 256.222 135.889 255.778 136.477 254.914C137.041 254.05 137.329 252.922 137.329 251.53C137.329 250.21 137.053 249.19 136.525 248.458C135.973 247.69 135.181 247.318 134.137 247.318ZM134.185 248.398C134.689 248.398 135.109 248.566 135.433 248.902C135.745 249.226 135.913 249.67 135.913 250.234C135.913 250.786 135.757 251.242 135.445 251.578C135.133 251.914 134.701 252.082 134.173 252.082C133.633 252.082 133.213 251.914 132.913 251.578C132.589 251.254 132.433 250.822 132.433 250.27C132.433 249.718 132.589 249.274 132.913 248.926C133.225 248.566 133.657 248.398 134.185 248.398Z" fill="#484848"/>
<rect x="91.7431" y="240.983" width="53.0584" height="22.1417" rx="10.3542" stroke="#ECECEC" stroke-width="0.591669"/>
<g filter="url(#filter6_d_627_19652)">
<rect x="261.022" y="129.983" width="58.5753" height="82.2421" rx="9.17088" fill="white" stroke="#ECECEC" stroke-width="0.591669" stroke-dasharray="4.73 4.73"/>
<g clip-path="url(#clip5_627_19652)">
<rect x="260.727" y="129.688" width="59.1669" height="82.8337" rx="7.10003" fill="url(#paint5_linear_627_19652)"/>
<path d="M276.021 150.643L280.418 154.125L278.309 155.955L273.979 152.473L276.021 150.643ZM280.53 144.55V145.32C280.53 146.555 280.362 147.664 280.027 148.646C279.7 149.628 279.228 150.465 278.61 151.157C277.993 151.841 277.264 152.366 276.423 152.73C275.582 153.095 274.649 153.277 273.622 153.277C272.603 153.277 271.669 153.095 270.821 152.73C269.973 152.366 269.24 151.841 268.623 151.157C268.005 150.465 267.525 149.628 267.183 148.646C266.848 147.664 266.681 146.555 266.681 145.32V144.55C266.681 143.308 266.848 142.2 267.183 141.225C267.525 140.243 268.002 139.406 268.612 138.714C269.222 138.022 269.951 137.494 270.799 137.13C271.647 136.765 272.581 136.583 273.6 136.583C274.626 136.583 275.56 136.765 276.401 137.13C277.249 137.494 277.982 138.022 278.599 138.714C279.217 139.406 279.693 140.243 280.027 141.225C280.362 142.2 280.53 143.308 280.53 144.55ZM277.148 145.32V144.528C277.148 143.665 277.067 142.906 276.903 142.252C276.747 141.597 276.516 141.046 276.211 140.6C275.913 140.154 275.545 139.819 275.106 139.596C274.667 139.365 274.165 139.25 273.6 139.25C273.034 139.25 272.532 139.365 272.093 139.596C271.654 139.819 271.286 140.154 270.988 140.6C270.691 141.046 270.464 141.597 270.308 142.252C270.152 142.906 270.073 143.665 270.073 144.528V145.32C270.073 146.176 270.152 146.935 270.308 147.597C270.464 148.252 270.691 148.806 270.988 149.26C271.294 149.706 271.665 150.044 272.104 150.275C272.551 150.506 273.057 150.621 273.622 150.621C274.187 150.621 274.686 150.506 275.117 150.275C275.556 150.044 275.925 149.706 276.222 149.26C276.527 148.806 276.758 148.252 276.914 147.597C277.07 146.935 277.148 146.176 277.148 145.32Z" fill="#242424"/>
<path fill-rule="evenodd" clip-rule="evenodd" d="M276.691 170.523C279.217 170.551 280.771 168.933 279.916 167.23C279.061 165.526 278.209 165.143 276.867 163.908C275.525 162.673 273.573 160.537 273.582 160.033C273.592 160.537 271.72 162.673 270.378 163.908C269.036 165.143 268.184 165.526 267.329 167.23C266.474 168.933 268.029 170.551 270.554 170.523C272.288 170.503 273.069 169.507 273.387 168.885L273.387 169.7C273.387 169.7 272.833 172.639 268.926 172.961L268.304 172.961L268.304 173.419L278.942 173.419L278.942 172.961L278.318 172.961C274.412 172.639 273.858 169.7 273.858 169.7L273.858 168.992C274.233 169.615 275.053 170.504 276.691 170.523Z" fill="#242424"/>
<path fill-rule="evenodd" clip-rule="evenodd" d="M308.816 201.963C314.309 202.025 317.689 198.506 315.83 194.802C313.971 191.097 312.118 190.264 309.2 187.578C306.28 184.893 302.035 180.247 302.055 179.151C302.077 180.247 298.006 184.893 295.087 187.578C292.169 190.264 290.317 191.097 288.457 194.802C286.598 198.506 289.979 202.025 295.471 201.963C299.242 201.921 300.939 199.755 301.631 198.401L301.631 200.173C301.631 200.173 300.427 206.566 291.931 207.265L290.577 207.265L290.577 208.262L313.711 208.262L313.711 207.265L312.356 207.265C303.861 206.566 302.656 200.173 302.656 200.173L302.656 198.633C303.471 199.989 305.254 201.923 308.816 201.963Z" fill="#242424"/>
</g>
<rect x="261.318" y="130.279" width="57.9836" height="81.6504" rx="6.50836" stroke="#15DB41" stroke-width="1.18334"/>
</g>
<g filter="url(#filter7_d_627_19652)">
<rect x="285.022" y="141.983" width="58.5753" height="82.2421" rx="9.17088" fill="white" stroke="#ECECEC" stroke-width="0.591669" stroke-dasharray="4.73 4.73"/>
<g clip-path="url(#clip6_627_19652)">
<rect x="284.727" y="141.688" width="59.1669" height="82.8337" rx="7.10003" fill="url(#paint6_linear_627_19652)"/>
<path d="M295.156 148.806V165.054H291.808V148.806H295.156ZM304.887 148.806L298.448 156.829L294.732 160.824L294.129 157.655L296.64 154.218L300.78 148.806H304.887ZM301.081 165.054L296.294 157.544L298.771 155.468L305.043 165.054H301.081Z" fill="#EE3D3D"/>
<path fill-rule="evenodd" clip-rule="evenodd" d="M300.843 172.36C298.191 172.397 297.664 175.143 297.664 175.143C297.664 175.143 297.052 172.397 294.4 172.36C291.748 172.323 290.116 174.438 291.014 176.665C291.911 178.891 292.806 179.392 294.215 181.006C295.624 182.621 297.674 185.413 297.664 186.072C297.654 185.413 299.619 182.621 301.029 181.006C302.438 179.392 303.332 178.891 304.23 176.665C305.128 174.438 303.496 172.323 300.843 172.36Z" fill="#EE3D3D"/>
<path fill-rule="evenodd" clip-rule="evenodd" d="M333.15 191.861C327.382 191.942 326.236 197.914 326.236 197.914C326.236 197.914 324.905 191.942 319.137 191.861C313.37 191.781 309.821 196.381 311.773 201.223C313.725 206.065 315.67 207.154 318.735 210.665C321.799 214.175 326.258 220.248 326.236 221.68C326.214 220.248 330.488 214.175 333.552 210.665C336.617 207.154 338.562 206.065 340.514 201.223C342.466 196.381 338.917 191.781 333.15 191.861Z" fill="#EE3D3D"/>
</g>
<rect x="285.318" y="142.279" width="57.9836" height="81.6504" rx="6.50836" stroke="#15DB41" stroke-width="1.18334"/>
</g>
<g filter="url(#filter8_d_627_19652)">
<rect x="308.022" y="151.983" width="58.5753" height="82.2421" rx="9.17088" fill="white" stroke="#ECECEC" stroke-width="0.591669" stroke-dasharray="4.73 4.73"/>
<g clip-path="url(#clip7_627_19652)">
<rect x="307.727" y="151.688" width="59.1669" height="82.8337" rx="7.10003" fill="url(#paint7_linear_627_19652)"/>
<path d="M317.453 172.61H317.665C318.558 172.61 319.324 172.502 319.964 172.286C320.611 172.063 321.143 171.743 321.559 171.327C321.976 170.91 322.285 170.4 322.486 169.798C322.687 169.188 322.787 168.496 322.787 167.722V164.642C322.787 164.054 322.727 163.537 322.608 163.091C322.497 162.645 322.333 162.276 322.117 161.986C321.909 161.689 321.664 161.466 321.381 161.317C321.106 161.168 320.801 161.094 320.466 161.094C320.109 161.094 319.793 161.183 319.517 161.361C319.242 161.532 319.008 161.767 318.814 162.064C318.628 162.362 318.483 162.704 318.379 163.091C318.282 163.47 318.234 163.868 318.234 164.285C318.234 164.702 318.282 165.1 318.379 165.479C318.476 165.851 318.621 166.182 318.814 166.472C319.008 166.755 319.249 166.982 319.54 167.153C319.83 167.317 320.172 167.398 320.566 167.398C320.946 167.398 321.284 167.328 321.582 167.186C321.887 167.038 322.143 166.844 322.352 166.606C322.567 166.368 322.731 166.104 322.843 165.814C322.962 165.524 323.021 165.23 323.021 164.932L324.081 165.513C324.081 166.033 323.97 166.547 323.747 167.053C323.523 167.558 323.211 168.02 322.809 168.436C322.415 168.845 321.957 169.173 321.437 169.418C320.916 169.664 320.358 169.787 319.763 169.787C319.004 169.787 318.331 169.649 317.743 169.374C317.155 169.091 316.657 168.704 316.248 168.213C315.846 167.715 315.541 167.134 315.333 166.472C315.124 165.81 315.02 165.092 315.02 164.319C315.02 163.53 315.147 162.79 315.4 162.098C315.66 161.406 316.028 160.796 316.504 160.268C316.988 159.74 317.564 159.327 318.234 159.029C318.911 158.724 319.662 158.572 320.488 158.572C321.314 158.572 322.065 158.732 322.742 159.051C323.419 159.371 324 159.825 324.483 160.413C324.967 160.993 325.339 161.689 325.599 162.5C325.867 163.311 326.001 164.211 326.001 165.2V166.316C326.001 167.372 325.885 168.354 325.655 169.262C325.432 170.17 325.093 170.992 324.639 171.728C324.193 172.457 323.635 173.082 322.966 173.603C322.303 174.124 321.533 174.522 320.656 174.797C319.778 175.072 318.796 175.21 317.71 175.21H317.453V172.61Z" fill="#EE3D3D"/>
<rect x="320.622" y="182.111" width="10.0469" height="10.0469" transform="rotate(45 320.622 182.111)" fill="#EE3D3D"/>
<rect x="349.144" y="201.321" width="21.8489" height="21.8489" transform="rotate(45 349.144 201.321)" fill="#EE3D3D"/>
</g>
<rect x="308.318" y="152.279" width="57.9836" height="81.6504" rx="6.50836" stroke="#15DB41" stroke-width="1.18334"/>
</g>
<rect x="288.197" y="240.983" width="51.0584" height="21.1417" rx="10.3542" fill="white"/>
<path d="M296.127 251.518V252.622H299.163V255.754H295.419V256.858H304.011V255.754H300.315V252.622H303.423V251.518H300.315V249.19H299.163V251.518H296.127ZM299.151 246.166L297.879 246.382C298.095 246.73 298.299 247.102 298.467 247.498H294.063V251.122C294.039 253.402 293.715 255.178 293.091 256.462L294.051 257.314C294.795 255.754 295.179 253.69 295.215 251.122V248.59H304.011V247.498H299.715C299.535 247.006 299.343 246.562 299.151 246.166ZM312.471 252.706C313.047 254.314 313.971 255.658 315.243 256.726L316.059 255.778C314.835 254.914 313.935 253.786 313.383 252.382C314.091 252.094 314.751 251.758 315.375 251.362L314.607 250.594C313.647 251.206 312.639 251.662 311.583 251.974C311.343 251.542 311.055 251.134 310.707 250.75C310.971 250.582 311.247 250.402 311.535 250.21H314.199V249.154H307.071V250.21H309.759C309.495 250.342 309.219 250.462 308.931 250.582C307.971 250.978 306.939 251.29 305.835 251.518L306.411 252.466C307.827 252.046 308.931 251.65 309.711 251.278C309.747 251.254 309.783 251.242 309.831 251.218C309.951 251.362 310.059 251.506 310.179 251.662C309.087 252.442 307.563 253.078 305.607 253.582L306.171 254.566C308.031 254.026 309.531 253.342 310.659 252.502C310.755 252.718 310.851 252.958 310.923 253.198C309.615 254.23 307.791 255.082 305.451 255.742L306.027 256.714C308.115 256.066 309.819 255.262 311.115 254.29C311.115 254.398 311.127 254.518 311.127 254.638C311.127 255.31 311.019 255.754 310.827 255.994C310.659 256.174 310.239 256.27 309.567 256.27H308.955L309.339 257.278H309.723C310.815 257.278 311.511 257.062 311.823 256.63C312.087 256.27 312.231 255.598 312.231 254.638C312.219 253.99 312.123 253.39 311.943 252.838C312.111 252.79 312.291 252.754 312.471 252.706ZM310.911 246.13L309.747 246.334C309.879 246.586 310.011 246.862 310.131 247.174H305.487V249.406H306.627V248.23H314.643V249.406H315.783V247.174H311.283C311.163 246.79 311.043 246.442 310.911 246.13Z" fill="#484848"/>
<rect x="320.185" y="243.054" width="17" height="17" rx="8.5" fill="#15DB41"/>
<path d="M328.591 247.318C327.739 247.318 327.031 247.594 326.455 248.158C325.879 248.71 325.603 249.406 325.603 250.27C325.603 251.11 325.843 251.794 326.335 252.322C326.839 252.862 327.523 253.138 328.363 253.138C328.807 253.138 329.203 253.042 329.551 252.874C329.911 252.682 330.223 252.406 330.463 252.034H330.511C330.511 252.094 330.523 252.142 330.523 252.19C330.523 253.018 330.343 253.714 330.007 254.266C329.647 254.842 329.179 255.142 328.591 255.142C327.727 255.142 327.199 254.722 327.031 253.894H325.759C325.975 255.442 326.911 256.222 328.579 256.222C329.563 256.222 330.343 255.778 330.931 254.914C331.495 254.05 331.783 252.922 331.783 251.53C331.783 250.21 331.507 249.19 330.979 248.458C330.427 247.69 329.635 247.318 328.591 247.318ZM328.639 248.398C329.143 248.398 329.563 248.566 329.887 248.902C330.199 249.226 330.367 249.67 330.367 250.234C330.367 250.786 330.211 251.242 329.899 251.578C329.587 251.914 329.155 252.082 328.627 252.082C328.087 252.082 327.667 251.914 327.367 251.578C327.043 251.254 326.887 250.822 326.887 250.27C326.887 249.718 327.043 249.274 327.367 248.926C327.679 248.566 328.111 248.398 328.639 248.398Z" fill="#484848"/>
<rect x="288.197" y="240.983" width="51.0584" height="21.1417" rx="10.3542" stroke="#ECECEC" stroke-width="0.591669"/>
<defs>
<filter id="filter0_di_627_19652" x="108.839" y="21.2977" width="214.322" height="112.881" filterUnits="userSpaceOnUse" color-interpolation-filters="sRGB">
<feFlood flood-opacity="0" result="BackgroundImageFix"/>
<feColorMatrix in="SourceAlpha" type="matrix" values="0 0 0 0 0 0 0 0 0 0 0 0 0 0 0 0 0 0 127 0" result="hardAlpha"/>
<feOffset dy="3.05085"/>
<feGaussianBlur stdDeviation="5.72034"/>
<feComposite in2="hardAlpha" operator="out"/>
<feColorMatrix type="matrix" values="0 0 0 0 0 0 0 0 0 0 0 0 0 0 0 0 0 0 0.25 0"/>
<feBlend mode="normal" in2="BackgroundImageFix" result="effect1_dropShadow_627_19652"/>
<feBlend mode="normal" in="SourceGraphic" in2="effect1_dropShadow_627_19652" result="shape"/>
<feColorMatrix in="SourceAlpha" type="matrix" values="0 0 0 0 0 0 0 0 0 0 0 0 0 0 0 0 0 0 127 0" result="hardAlpha"/>
<feOffset/>
<feGaussianBlur stdDeviation="7.62712"/>
<feComposite in2="hardAlpha" operator="arithmetic" k2="-1" k3="1"/>
<feColorMatrix type="matrix" values="0 0 0 0 1 0 0 0 0 0.841416 0 0 0 0 0.279167 0 0 0 1 0"/>
<feBlend mode="normal" in2="shape" result="effect2_innerShadow_627_19652"/>
</filter>
<filter id="filter1_d_627_19652" x="205.062" y="39.0713" width="20.4785" height="24.3301" filterUnits="userSpaceOnUse" color-interpolation-filters="sRGB">
<feFlood flood-opacity="0" result="BackgroundImageFix"/>
<feColorMatrix in="SourceAlpha" type="matrix" values="0 0 0 0 0 0 0 0 0 0 0 0 0 0 0 0 0 0 127 0" result="hardAlpha"/>
<feOffset dy="3.05085"/>
<feComposite in2="hardAlpha" operator="out"/>
<feColorMatrix type="matrix" values="0 0 0 0 0 0 0 0 0 0 0 0 0 0 0 0 0 0 0.25 0"/>
<feBlend mode="normal" in2="BackgroundImageFix" result="effect1_dropShadow_627_19652"/>
<feBlend mode="normal" in="SourceGraphic" in2="effect1_dropShadow_627_19652" result="shape"/>
</filter>
<filter id="filter2_d_627_19652" x="190.025" y="72.209" width="53.333" height="16.6007" filterUnits="userSpaceOnUse" color-interpolation-filters="sRGB">
<feFlood flood-opacity="0" result="BackgroundImageFix"/>
<feColorMatrix in="SourceAlpha" type="matrix" values="0 0 0 0 0 0 0 0 0 0 0 0 0 0 0 0 0 0 127 0" result="hardAlpha"/>
<feOffset dy="3.05085"/>
<feComposite in2="hardAlpha" operator="out"/>
<feColorMatrix type="matrix" values="0 0 0 0 0 0 0 0 0 0 0 0 0 0 0 0 0 0 0.25 0"/>
<feBlend mode="normal" in2="BackgroundImageFix" result="effect1_dropShadow_627_19652"/>
<feBlend mode="normal" in="SourceGraphic" in2="effect1_dropShadow_627_19652" result="shape"/>
</filter>
<filter id="filter3_d_627_19652" x="60.3752" y="126.096" width="68.9616" height="92.6286" filterUnits="userSpaceOnUse" color-interpolation-filters="sRGB">
<feFlood flood-opacity="0" result="BackgroundImageFix"/>
<feColorMatrix in="SourceAlpha" type="matrix" values="0 0 0 0 0 0 0 0 0 0 0 0 0 0 0 0 0 0 127 0" result="hardAlpha"/>
<feOffset dy="1.30595"/>
<feGaussianBlur stdDeviation="2.44865"/>
<feComposite in2="hardAlpha" operator="out"/>
<feColorMatrix type="matrix" values="0 0 0 0 0 0 0 0 0 0 0 0 0 0 0 0 0 0 0.25 0"/>
<feBlend mode="normal" in2="BackgroundImageFix" result="effect1_dropShadow_627_19652"/>
<feBlend mode="normal" in="SourceGraphic" in2="effect1_dropShadow_627_19652" result="shape"/>
</filter>
<filter id="filter4_d_627_19652" x="84.3752" y="138.096" width="68.9616" height="92.6286" filterUnits="userSpaceOnUse" color-interpolation-filters="sRGB">
<feFlood flood-opacity="0" result="BackgroundImageFix"/>
<feColorMatrix in="SourceAlpha" type="matrix" values="0 0 0 0 0 0 0 0 0 0 0 0 0 0 0 0 0 0 127 0" result="hardAlpha"/>
<feOffset dy="1.30595"/>
<feGaussianBlur stdDeviation="2.44865"/>
<feComposite in2="hardAlpha" operator="out"/>
<feColorMatrix type="matrix" values="0 0 0 0 0 0 0 0 0 0 0 0 0 0 0 0 0 0 0.25 0"/>
<feBlend mode="normal" in2="BackgroundImageFix" result="effect1_dropShadow_627_19652"/>
<feBlend mode="normal" in="SourceGraphic" in2="effect1_dropShadow_627_19652" result="shape"/>
</filter>
<filter id="filter5_d_627_19652" x="107.375" y="148.096" width="68.9616" height="92.6286" filterUnits="userSpaceOnUse" color-interpolation-filters="sRGB">
<feFlood flood-opacity="0" result="BackgroundImageFix"/>
<feColorMatrix in="SourceAlpha" type="matrix" values="0 0 0 0 0 0 0 0 0 0 0 0 0 0 0 0 0 0 127 0" result="hardAlpha"/>
<feOffset dy="1.30595"/>
<feGaussianBlur stdDeviation="2.44865"/>
<feComposite in2="hardAlpha" operator="out"/>
<feColorMatrix type="matrix" values="0 0 0 0 0 0 0 0 0 0 0 0 0 0 0 0 0 0 0.25 0"/>
<feBlend mode="normal" in2="BackgroundImageFix" result="effect1_dropShadow_627_19652"/>
<feBlend mode="normal" in="SourceGraphic" in2="effect1_dropShadow_627_19652" result="shape"/>
</filter>
<filter id="filter6_d_627_19652" x="255.829" y="126.096" width="68.9616" height="92.6286" filterUnits="userSpaceOnUse" color-interpolation-filters="sRGB">
<feFlood flood-opacity="0" result="BackgroundImageFix"/>
<feColorMatrix in="SourceAlpha" type="matrix" values="0 0 0 0 0 0 0 0 0 0 0 0 0 0 0 0 0 0 127 0" result="hardAlpha"/>
<feOffset dy="1.30595"/>
<feGaussianBlur stdDeviation="2.44865"/>
<feComposite in2="hardAlpha" operator="out"/>
<feColorMatrix type="matrix" values="0 0 0 0 0 0 0 0 0 0 0 0 0 0 0 0 0 0 0.25 0"/>
<feBlend mode="normal" in2="BackgroundImageFix" result="effect1_dropShadow_627_19652"/>
<feBlend mode="normal" in="SourceGraphic" in2="effect1_dropShadow_627_19652" result="shape"/>
</filter>
<filter id="filter7_d_627_19652" x="279.829" y="138.096" width="68.9616" height="92.6286" filterUnits="userSpaceOnUse" color-interpolation-filters="sRGB">
<feFlood flood-opacity="0" result="BackgroundImageFix"/>
<feColorMatrix in="SourceAlpha" type="matrix" values="0 0 0 0 0 0 0 0 0 0 0 0 0 0 0 0 0 0 127 0" result="hardAlpha"/>
<feOffset dy="1.30595"/>
<feGaussianBlur stdDeviation="2.44865"/>
<feComposite in2="hardAlpha" operator="out"/>
<feColorMatrix type="matrix" values="0 0 0 0 0 0 0 0 0 0 0 0 0 0 0 0 0 0 0.25 0"/>
<feBlend mode="normal" in2="BackgroundImageFix" result="effect1_dropShadow_627_19652"/>
<feBlend mode="normal" in="SourceGraphic" in2="effect1_dropShadow_627_19652" result="shape"/>
</filter>
<filter id="filter8_d_627_19652" x="302.829" y="148.096" width="68.9616" height="92.6286" filterUnits="userSpaceOnUse" color-interpolation-filters="sRGB">
<feFlood flood-opacity="0" result="BackgroundImageFix"/>
<feColorMatrix in="SourceAlpha" type="matrix" values="0 0 0 0 0 0 0 0 0 0 0 0 0 0 0 0 0 0 127 0" result="hardAlpha"/>
<feOffset dy="1.30595"/>
<feGaussianBlur stdDeviation="2.44865"/>
<feComposite in2="hardAlpha" operator="out"/>
<feColorMatrix type="matrix" values="0 0 0 0 0 0 0 0 0 0 0 0 0 0 0 0 0 0 0.25 0"/>
<feBlend mode="normal" in2="BackgroundImageFix" result="effect1_dropShadow_627_19652"/>
<feBlend mode="normal" in="SourceGraphic" in2="effect1_dropShadow_627_19652" result="shape"/>
</filter>
<radialGradient id="paint0_radial_627_19652" cx="0" cy="0" r="1" gradientUnits="userSpaceOnUse" gradientTransform="translate(216.381 100.62) rotate(90) scale(95.339)">
<stop stop-color="#E78831" stop-opacity="0.2"/>
<stop offset="1" stop-color="#E78831" stop-opacity="0"/>
</radialGradient>
<linearGradient id="paint1_linear_627_19652" x1="215.999" y1="37.3145" x2="215.999" y2="60.9585" gradientUnits="userSpaceOnUse">
<stop offset="0.401042" stop-color="#FFDF8D"/>
<stop offset="0.666667" stop-color="#EFAC00"/>
</linearGradient>
<linearGradient id="paint2_linear_627_19652" x1="94.8559" y1="129.688" x2="94.8559" y2="212.521" gradientUnits="userSpaceOnUse">
<stop stop-color="#F9F9F9"/>
<stop offset="1" stop-color="#ECECEC"/>
</linearGradient>
<linearGradient id="paint3_linear_627_19652" x1="118.856" y1="141.688" x2="118.856" y2="224.521" gradientUnits="userSpaceOnUse">
<stop stop-color="#F9F9F9"/>
<stop offset="1" stop-color="#ECECEC"/>
</linearGradient>
<linearGradient id="paint4_linear_627_19652" x1="141.856" y1="151.688" x2="141.856" y2="234.521" gradientUnits="userSpaceOnUse">
<stop stop-color="#F9F9F9"/>
<stop offset="1" stop-color="#ECECEC"/>
</linearGradient>
<linearGradient id="paint5_linear_627_19652" x1="290.31" y1="129.688" x2="290.31" y2="212.521" gradientUnits="userSpaceOnUse">
<stop stop-color="#F9F9F9"/>
<stop offset="1" stop-color="#ECECEC"/>
</linearGradient>
<linearGradient id="paint6_linear_627_19652" x1="314.31" y1="141.688" x2="314.31" y2="224.521" gradientUnits="userSpaceOnUse">
<stop stop-color="#F9F9F9"/>
<stop offset="1" stop-color="#ECECEC"/>
</linearGradient>
<linearGradient id="paint7_linear_627_19652" x1="337.31" y1="151.688" x2="337.31" y2="234.521" gradientUnits="userSpaceOnUse">
<stop stop-color="#F9F9F9"/>
<stop offset="1" stop-color="#ECECEC"/>
</linearGradient>
<clipPath id="clip0_627_19652">
<rect x="120.279" y="29.6875" width="191.441" height="90" rx="22.8814" fill="white"/>
</clipPath>
<clipPath id="clip1_627_19652">
<rect width="13.7288" height="13.7288" fill="white" transform="translate(170.999 97.1787)"/>
</clipPath>
<clipPath id="clip2_627_19652">
<rect x="65.2725" y="129.688" width="59.1669" height="82.8337" rx="7.10003" fill="white"/>
</clipPath>
<clipPath id="clip3_627_19652">
<rect x="89.2725" y="141.688" width="59.1669" height="82.8337" rx="7.10003" fill="white"/>
</clipPath>
<clipPath id="clip4_627_19652">
<rect x="112.272" y="151.688" width="59.1669" height="82.8337" rx="7.10003" fill="white"/>
</clipPath>
<clipPath id="clip5_627_19652">
<rect x="260.727" y="129.688" width="59.1669" height="82.8337" rx="7.10003" fill="white"/>
</clipPath>
<clipPath id="clip6_627_19652">
<rect x="284.727" y="141.688" width="59.1669" height="82.8337" rx="7.10003" fill="white"/>
</clipPath>
<clipPath id="clip7_627_19652">
<rect x="307.727" y="151.688" width="59.1669" height="82.8337" rx="7.10003" fill="white"/>
</clipPath>
</defs>
</svg>
