<svg width="431" height="293" viewBox="0 0 431 293" fill="none" xmlns="http://www.w3.org/2000/svg">
<rect width="430.285" height="292.109" rx="10" fill="#0D131C"/>
<rect x="10" y="20" width="410.285" height="252.109" rx="3.87518" fill="#161F2C"/>
<g filter="url(#filter0_di_507_20166)">
<g clip-path="url(#clip0_507_20166)">
<rect x="119.422" y="29.6875" width="191.441" height="90" rx="22.8814" fill="#171717"/>
<path fill-rule="evenodd" clip-rule="evenodd" d="M215.523 100.619L215.524 100.62L120.185 76.7855L120.185 124.455L215.524 100.62L215.523 100.622L215.523 100.621L215.523 100.622L131.256 151.182L164.964 184.89L215.523 100.625L191.689 195.959H239.359L215.525 100.625L266.084 184.89L299.791 151.182L215.524 100.622L215.525 100.621L215.524 100.622L215.524 100.62L310.863 124.455V76.7855L215.524 100.62L215.524 100.619L215.525 100.619L215.524 100.618L215.524 100.618L299.791 50.058L266.084 16.3506L215.525 100.615L239.359 5.28125L191.689 5.28125L215.523 100.616L164.964 16.3506L131.256 50.058L215.523 100.618L215.523 100.619L215.523 100.619Z" fill="url(#paint0_radial_507_20166)"/>
<g filter="url(#filter1_d_507_20166)">
<path d="M169.445 59.3145V49.5645C169.445 47.2645 170.055 45.5145 171.275 44.3145C172.495 43.0945 174.425 42.4845 177.065 42.4845C179.725 42.4845 181.645 43.0945 182.825 44.3145C184.025 45.5145 184.625 47.2645 184.625 49.5645V59.3145H180.155V49.5045C180.155 48.4445 179.905 47.6145 179.405 47.0145C178.925 46.3945 178.125 46.0845 177.005 46.0845C175.905 46.0845 175.105 46.3945 174.605 47.0145C174.125 47.6145 173.885 48.4445 173.885 49.5045V52.1145L173.975 52.1445C174.355 51.3645 174.805 50.8545 175.325 50.6145C175.865 50.3545 176.595 50.2245 177.515 50.2245H178.205V53.5845H177.515C176.515 53.5845 175.755 53.7545 175.235 54.0945C174.715 54.4345 174.355 54.8845 174.155 55.4445C173.975 55.9845 173.885 56.5945 173.885 57.2745V59.3145H169.445ZM180.793 67.1445V64.4745C180.793 63.9745 180.573 63.7245 180.133 63.7245C180.033 63.7245 179.933 63.7345 179.833 63.7545C179.733 63.7745 179.633 63.8045 179.533 63.8445L179.323 61.6845C179.603 61.5845 179.993 61.4845 180.493 61.3845C180.973 61.2845 181.463 61.2345 181.963 61.2345C182.943 61.2345 183.633 61.4245 184.033 61.8045C184.433 62.2045 184.633 62.7445 184.633 63.4245V67.1445H180.793ZM192.919 59.6145C192.059 59.6145 191.309 59.4745 190.669 59.1945C190.049 58.9145 189.559 58.4945 189.199 57.9345C188.859 57.3545 188.689 56.6345 188.689 55.7745V53.8245C188.689 52.6445 188.949 51.7745 189.469 51.2145C189.989 50.6545 190.709 50.2345 191.629 49.9545L191.659 49.8345L188.389 48.6645V47.8845C188.389 46.8645 188.669 45.9545 189.229 45.1545C189.809 44.3345 190.649 43.6845 191.749 43.2045C192.849 42.7245 194.189 42.4845 195.769 42.4845C197.249 42.4845 198.519 42.7145 199.579 43.1745C200.659 43.6145 201.489 44.2845 202.069 45.1845C202.649 46.0645 202.939 47.1745 202.939 48.5145V53.0145C202.939 53.9745 203.149 54.6645 203.569 55.0845C203.989 55.5045 204.509 55.7145 205.129 55.7145C205.709 55.7145 206.209 55.5545 206.629 55.2345C207.049 54.8945 207.379 54.4345 207.619 53.8545C207.859 53.2545 207.979 52.5545 207.979 51.7545V42.8745H212.479V59.3145H208.999L208.489 56.7345H208.249C207.889 57.5745 207.299 58.2645 206.479 58.8045C205.679 59.3445 204.679 59.6145 203.479 59.6145C201.839 59.6145 200.599 59.1845 199.759 58.3245C198.939 57.4445 198.529 56.0645 198.529 54.1845V48.8445C198.529 48.1445 198.399 47.5945 198.139 47.1945C197.899 46.7745 197.569 46.4745 197.149 46.2945C196.729 46.1145 196.249 46.0245 195.709 46.0245C194.949 46.0245 194.319 46.1945 193.819 46.5345C193.319 46.8545 193.049 47.3445 193.009 48.0045L195.619 49.2645L195.319 51.2145C194.579 51.2345 194.019 51.4145 193.639 51.7545C193.259 52.0745 193.069 52.6445 193.069 53.4645V55.2945C193.069 55.7345 193.159 56.0545 193.339 56.2545C193.539 56.4345 193.849 56.5245 194.269 56.5245C194.449 56.5245 194.629 56.5145 194.809 56.4945C195.009 56.4545 195.179 56.4045 195.319 56.3445L195.739 59.0145C195.359 59.2145 194.929 59.3645 194.449 59.4645C193.969 59.5645 193.459 59.6145 192.919 59.6145ZM223.925 59.7045C221.645 59.7045 219.915 59.2045 218.735 58.2045C217.575 57.1845 216.995 55.7245 216.995 53.8245V52.6545C216.995 51.8345 217.085 51.1545 217.265 50.6145C217.465 50.0745 217.725 49.5845 218.045 49.1445C218.365 48.7045 218.625 48.3145 218.825 47.9745C219.045 47.6145 219.155 47.2445 219.155 46.8645C219.155 46.5045 219.065 46.2545 218.885 46.1145C218.725 45.9545 218.505 45.8745 218.225 45.8745C218.025 45.8745 217.815 45.9045 217.595 45.9645C217.395 46.0245 217.165 46.1145 216.905 46.2345L216.185 43.4145C216.745 43.1145 217.345 42.9145 217.985 42.8145C218.645 42.6945 219.225 42.6345 219.725 42.6345C220.605 42.6345 221.305 42.7745 221.825 43.0545C222.365 43.3345 222.755 43.7345 222.995 44.2545C223.235 44.7745 223.355 45.3945 223.355 46.1145C223.355 46.7345 223.265 47.2845 223.085 47.7645C222.905 48.2245 222.675 48.7045 222.395 49.2045C222.135 49.6645 221.905 50.0945 221.705 50.4945C221.525 50.8945 221.435 51.4745 221.435 52.2345V53.3745C221.435 54.0345 221.525 54.5745 221.705 54.9945C221.905 55.4145 222.195 55.7245 222.575 55.9245C222.955 56.1045 223.405 56.1945 223.925 56.1945C224.785 56.1945 225.395 55.9645 225.755 55.5045C226.135 55.0245 226.325 54.3845 226.325 53.5845V50.6745C226.325 50.0745 226.185 49.6045 225.905 49.2645C225.645 48.9045 225.195 48.7245 224.555 48.7245H224.405V46.3545H224.585C225.205 46.3545 225.665 46.1845 225.965 45.8445C226.265 45.5045 226.455 45.0745 226.535 44.5545C226.635 44.0145 226.685 43.4545 226.685 42.8745H231.155C231.155 44.0945 230.995 45.1045 230.675 45.9045C230.355 46.7045 229.795 47.2445 228.995 47.5245V47.6445C229.475 47.7845 229.845 48.0045 230.105 48.3045C230.365 48.5845 230.545 48.9245 230.645 49.3245C230.745 49.7245 230.795 50.1645 230.795 50.6445V53.7045C230.795 55.6845 230.215 57.1845 229.055 58.2045C227.895 59.2045 226.185 59.7045 223.925 59.7045ZM240.504 59.6145C239.284 59.6145 238.254 59.3845 237.414 58.9245C236.594 58.4445 235.964 57.7345 235.524 56.7945C235.104 55.8545 234.894 54.7045 234.894 53.3445V42.8745H239.394V52.5645C239.394 53.6645 239.614 54.4645 240.054 54.9645C240.494 55.4645 241.134 55.7145 241.974 55.7145C243.034 55.7145 243.854 55.3145 244.434 54.5145C245.014 53.6945 245.304 52.4345 245.304 50.7345V42.8745H249.804V59.3145H246.384L245.904 56.7945H245.634C245.294 57.5945 244.704 58.2645 243.864 58.8045C243.044 59.3445 241.924 59.6145 240.504 59.6145ZM257.108 49.6245C256.188 49.6245 255.458 49.4845 254.918 49.2045C254.378 48.9245 253.988 48.5545 253.748 48.0945C253.508 47.6145 253.388 47.1145 253.388 46.5945C253.388 46.2545 253.438 45.9045 253.538 45.5445C253.638 45.1645 253.788 44.7945 253.988 44.4345L257.258 44.8545C257.218 44.9945 257.178 45.1445 257.138 45.3045C257.118 45.4645 257.108 45.6345 257.108 45.8145C257.108 46.0745 257.188 46.2845 257.348 46.4445C257.508 46.5845 257.788 46.6545 258.188 46.6545H261.578V49.6245H257.108ZM257.108 58.0245C256.188 58.0245 255.458 57.8845 254.918 57.6045C254.378 57.3245 253.988 56.9545 253.748 56.4945C253.508 56.0145 253.388 55.5145 253.388 54.9945C253.388 54.6545 253.438 54.3045 253.538 53.9445C253.638 53.5645 253.788 53.1945 253.988 52.8345L257.258 53.2545C257.218 53.3945 257.178 53.5445 257.138 53.7045C257.118 53.8645 257.108 54.0345 257.108 54.2145C257.108 54.4745 257.188 54.6845 257.348 54.8445C257.508 54.9845 257.788 55.0545 258.188 55.0545H261.578V58.0245H257.108Z" fill="url(#paint1_linear_507_20166)"/>
<path d="M169.445 59.3145H168.682V60.0772H169.445V59.3145ZM171.275 44.3145L171.81 44.8582L171.814 44.8538L171.275 44.3145ZM182.825 44.3145L182.276 44.8448L182.285 44.8538L182.825 44.3145ZM184.625 59.3145V60.0772H185.387V59.3145H184.625ZM180.155 59.3145H179.392V60.0772H180.155V59.3145ZM179.405 47.0145L178.802 47.4814L178.81 47.4922L178.819 47.5027L179.405 47.0145ZM174.605 47.0145L174.011 46.5357L174.009 46.538L174.605 47.0145ZM173.885 52.1145H173.122V52.6642L173.643 52.838L173.885 52.1145ZM173.975 52.1445L173.733 52.868L174.368 53.0794L174.66 52.4785L173.975 52.1445ZM175.325 50.6145L175.644 51.3071L175.656 51.3017L175.325 50.6145ZM178.205 50.2245H178.967V49.4617H178.205V50.2245ZM178.205 53.5845V54.3472H178.967V53.5845H178.205ZM174.155 55.4445L173.436 55.1879L173.434 55.1956L173.431 55.2033L174.155 55.4445ZM173.885 59.3145V60.0772H174.647V59.3145H173.885ZM170.207 59.3145V49.5645H168.682V59.3145H170.207ZM170.207 49.5645C170.207 47.3963 170.78 45.8708 171.809 44.8582L170.74 43.7707C169.329 45.1581 168.682 47.1326 168.682 49.5645H170.207ZM171.814 44.8538C172.831 43.8371 174.522 43.2472 177.065 43.2472V41.7217C174.327 41.7217 172.159 42.3518 170.735 43.7751L171.814 44.8538ZM177.065 43.2472C179.632 43.2472 181.304 43.8392 182.276 44.8447L183.373 43.7842C181.985 42.3497 179.817 41.7217 177.065 41.7217V43.2472ZM182.285 44.8538C183.297 45.8659 183.862 47.3929 183.862 49.5645H185.387C185.387 47.136 184.752 45.1631 183.364 43.7751L182.285 44.8538ZM183.862 49.5645V59.3145H185.387V49.5645H183.862ZM184.625 58.5517H180.155V60.0772H184.625V58.5517ZM180.917 59.3145V49.5045H179.392V59.3145H180.917ZM180.917 49.5045C180.917 48.3298 180.64 47.3053 179.991 46.5262L178.819 47.5027C179.169 47.9236 179.392 48.5591 179.392 49.5045H180.917ZM180.008 46.5475C179.329 45.6705 178.254 45.3217 177.005 45.3217V46.8472C177.995 46.8472 178.521 47.1184 178.802 47.4814L180.008 46.5475ZM177.005 45.3217C175.767 45.3217 174.705 45.6745 174.011 46.5357L175.198 47.4932C175.504 47.1144 176.042 46.8472 177.005 46.8472V45.3217ZM174.009 46.538C173.386 47.3165 173.122 48.3363 173.122 49.5045H174.647C174.647 48.5526 174.863 47.9124 175.2 47.4909L174.009 46.538ZM173.122 49.5045V52.1145H174.647V49.5045H173.122ZM173.643 52.838L173.733 52.868L174.216 51.4209L174.126 51.3909L173.643 52.838ZM174.66 52.4785C175.001 51.7787 175.348 51.4437 175.644 51.307L175.005 49.9219C174.261 50.2652 173.708 50.9502 173.289 51.8104L174.66 52.4785ZM175.656 51.3017C176.052 51.1108 176.654 50.9872 177.515 50.9872V49.4617C176.536 49.4617 175.677 49.5981 174.994 49.9272L175.656 51.3017ZM177.515 50.9872H178.205V49.4617H177.515V50.9872ZM177.442 50.2245V53.5845H178.967V50.2245H177.442ZM178.205 52.8217H177.515V54.3472H178.205V52.8217ZM177.515 52.8217C176.449 52.8217 175.516 52.9993 174.817 53.4561L175.652 54.7328C175.993 54.5096 176.581 54.3472 177.515 54.3472V52.8217ZM174.817 53.4561C174.165 53.8828 173.695 54.4639 173.436 55.1879L174.873 55.701C175.014 55.305 175.265 54.9861 175.652 54.7328L174.817 53.4561ZM173.431 55.2033C173.221 55.8345 173.122 56.528 173.122 57.2745H174.647C174.647 56.6609 174.729 56.1344 174.878 55.6856L173.431 55.2033ZM173.122 57.2745V59.3145H174.647V57.2745H173.122ZM173.885 58.5517H169.445V60.0772H173.885V58.5517ZM180.793 67.1445H180.03V67.9072H180.793V67.1445ZM179.833 63.7545L179.982 64.5024L179.833 63.7545ZM179.533 63.8445L178.774 63.9183L178.872 64.9302L179.816 64.5526L179.533 63.8445ZM179.323 61.6845L179.066 60.9662L178.506 61.1662L178.564 61.7583L179.323 61.6845ZM180.493 61.3845L180.642 62.1324L180.648 62.1311L180.493 61.3845ZM184.033 61.8045L184.572 61.2651L184.565 61.2582L184.558 61.2515L184.033 61.8045ZM184.633 67.1445V67.9072H185.396V67.1445H184.633ZM181.556 67.1445V64.4745H180.03V67.1445H181.556ZM181.556 64.4745C181.556 64.1292 181.482 63.7277 181.2 63.4081C180.903 63.0698 180.498 62.9617 180.133 62.9617V64.4872C180.172 64.4872 180.174 64.493 180.151 64.4846C180.14 64.4802 180.124 64.4725 180.105 64.4601C180.087 64.4476 180.07 64.4325 180.055 64.4158C180.025 64.3814 180.018 64.3557 180.02 64.361C180.022 64.3687 180.03 64.4029 180.03 64.4745H181.556ZM180.133 62.9617C179.982 62.9617 179.832 62.9769 179.683 63.0066L179.982 64.5024C180.034 64.492 180.084 64.4872 180.133 64.4872V62.9617ZM179.683 63.0066C179.535 63.0362 179.39 63.08 179.25 63.1363L179.816 64.5526C179.875 64.529 179.931 64.5127 179.982 64.5024L179.683 63.0066ZM180.292 63.7706L180.082 61.6106L178.564 61.7583L178.774 63.9183L180.292 63.7706ZM179.579 62.4027C179.808 62.3209 180.157 62.2294 180.642 62.1324L180.343 60.6366C179.829 60.7395 179.397 60.848 179.066 60.9662L179.579 62.4027ZM180.648 62.1311C181.076 62.042 181.514 61.9972 181.963 61.9972V60.4717C181.412 60.4717 180.869 60.5269 180.337 60.6378L180.648 62.1311ZM181.963 61.9972C182.886 61.9972 183.325 62.1841 183.508 62.3574L184.558 61.2515C183.941 60.6648 183 60.4717 181.963 60.4717V61.9972ZM183.494 62.3438C183.722 62.5725 183.87 62.903 183.87 63.4245H185.396C185.396 62.5859 185.143 61.8364 184.572 61.2651L183.494 62.3438ZM183.87 63.4245V67.1445H185.396V63.4245H183.87ZM184.633 66.3817H180.793V67.9072H184.633V66.3817ZM190.669 59.1945L190.355 59.8896L190.363 59.8932L190.669 59.1945ZM189.199 57.9345L188.541 58.3202L188.549 58.3337L188.558 58.3469L189.199 57.9345ZM189.469 51.2145L188.91 50.6955L189.469 51.2145ZM191.629 49.9545L191.851 50.6841L192.264 50.5584L192.369 50.1394L191.629 49.9545ZM191.659 49.8345L192.399 50.0194L192.567 49.3491L191.916 49.1163L191.659 49.8345ZM188.389 48.6645H187.626V49.2016L188.132 49.3826L188.389 48.6645ZM189.229 45.1545L188.606 44.714L188.604 44.7171L189.229 45.1545ZM191.749 43.2045L192.054 43.9035V43.9035L191.749 43.2045ZM199.579 43.1745L199.276 43.8741L199.283 43.8775L199.291 43.8808L199.579 43.1745ZM202.069 45.1845L201.428 45.5976L201.432 45.6042L202.069 45.1845ZM203.569 55.0845L204.108 54.5451L204.108 54.5451L203.569 55.0845ZM206.629 55.2345L207.091 55.8411L207.1 55.8343L207.109 55.8273L206.629 55.2345ZM207.619 53.8545L208.324 54.1461L208.327 54.1377L207.619 53.8545ZM207.979 42.8745V42.1117H207.216V42.8745H207.979ZM212.479 42.8745H213.242V42.1117H212.479V42.8745ZM212.479 59.3145V60.0772H213.242V59.3145H212.479ZM208.999 59.3145L208.251 59.4624L208.372 60.0772H208.999V59.3145ZM208.489 56.7345L209.237 56.5865L209.116 55.9717H208.489V56.7345ZM208.249 56.7345V55.9717H207.746L207.548 56.434L208.249 56.7345ZM206.479 58.8045L206.06 58.1674L206.052 58.1723L206.479 58.8045ZM199.759 58.3245L199.201 58.8444L199.207 58.851L199.214 58.8574L199.759 58.3245ZM198.139 47.1945L197.477 47.5729L197.488 47.5918L197.5 47.6101L198.139 47.1945ZM197.149 46.2945L196.849 46.9955L197.149 46.2945ZM193.819 46.5345L194.23 47.1769L194.239 47.1711L194.248 47.1652L193.819 46.5345ZM193.009 48.0045L192.248 47.9583L192.217 48.4689L192.678 48.6913L193.009 48.0045ZM195.619 49.2645L196.373 49.3804L196.459 48.8229L195.951 48.5776L195.619 49.2645ZM195.319 51.2145L195.34 51.9769L195.976 51.9597L196.073 51.3304L195.319 51.2145ZM193.639 51.7545L194.13 52.3379L194.139 52.3305L194.148 52.3229L193.639 51.7545ZM193.339 56.2545L192.772 56.7647L192.799 56.7945L192.829 56.8214L193.339 56.2545ZM194.809 56.4945L194.893 57.2525L194.926 57.2488L194.959 57.2424L194.809 56.4945ZM195.319 56.3445L196.073 56.2259L195.92 55.2571L195.019 55.6434L195.319 56.3445ZM195.739 59.0145L196.094 59.6894L196.577 59.4352L196.493 58.8959L195.739 59.0145ZM194.449 59.4645L194.294 58.7178L194.449 59.4645ZM192.919 58.8517C192.141 58.8517 191.499 58.725 190.975 58.4957L190.363 59.8932C191.119 60.2239 191.978 60.3772 192.919 60.3772V58.8517ZM190.983 58.4993C190.494 58.2785 190.119 57.9553 189.841 57.522L188.558 58.3469C188.999 59.0336 189.604 59.5504 190.355 59.8896L190.983 58.4993ZM189.857 57.5487C189.602 57.1141 189.452 56.536 189.452 55.7745H187.926C187.926 56.7329 188.116 57.5948 188.541 58.3202L189.857 57.5487ZM189.452 55.7745V53.8245H187.926V55.7745H189.452ZM189.452 53.8245C189.452 52.7358 189.695 52.0925 190.028 51.7334L188.91 50.6955C188.204 51.4564 187.926 52.5531 187.926 53.8245H189.452ZM190.028 51.7334C190.436 51.2946 191.027 50.9349 191.851 50.6841L191.407 49.2248C190.391 49.534 189.543 50.0143 188.91 50.6955L190.028 51.7334ZM192.369 50.1394L192.399 50.0194L190.919 49.6495L190.889 49.7695L192.369 50.1394ZM191.916 49.1163L188.646 47.9463L188.132 49.3826L191.402 50.5526L191.916 49.1163ZM189.152 48.6645V47.8845H187.626V48.6645H189.152ZM189.152 47.8845C189.152 47.0135 189.388 46.2577 189.854 45.5918L188.604 44.7171C187.95 45.6512 187.626 46.7154 187.626 47.8845H189.152ZM189.852 45.5949C190.337 44.9088 191.057 44.3388 192.054 43.9035L191.444 42.5054C190.242 43.0301 189.281 43.7601 188.606 44.714L189.852 45.5949ZM192.054 43.9035C193.033 43.4765 194.263 43.2472 195.769 43.2472V41.7217C194.116 41.7217 192.666 41.9724 191.444 42.5054L192.054 43.9035ZM195.769 43.2472C197.173 43.2472 198.334 43.4656 199.276 43.8741L199.883 42.4748C198.704 41.9633 197.325 41.7217 195.769 41.7217V43.2472ZM199.291 43.8808C200.24 44.2672 200.941 44.8411 201.428 45.5976L202.71 44.7713C202.038 43.7278 201.078 42.9617 199.867 42.4681L199.291 43.8808ZM201.432 45.6042C201.911 46.3297 202.176 47.2834 202.176 48.5145H203.702C203.702 47.0655 203.388 45.7992 202.706 44.7647L201.432 45.6042ZM202.176 48.5145V53.0145H203.702V48.5145H202.176ZM202.176 53.0145C202.176 54.0573 202.4 54.994 203.03 55.6238L204.108 54.5451C203.898 54.3349 203.702 53.8916 203.702 53.0145H202.176ZM203.03 55.6238C203.6 56.1936 204.317 56.4772 205.129 56.4772V54.9517C204.702 54.9517 204.379 54.8153 204.108 54.5451L203.03 55.6238ZM205.129 56.4772C205.859 56.4772 206.525 56.2724 207.091 55.8411L206.167 54.6278C205.893 54.8365 205.56 54.9517 205.129 54.9517V56.4772ZM207.109 55.8273C207.643 55.3951 208.043 54.8245 208.324 54.1461L206.914 53.5628C206.715 54.0444 206.455 54.3938 206.149 54.6416L207.109 55.8273ZM208.327 54.1377C208.611 53.429 208.742 52.6292 208.742 51.7545H207.216C207.216 52.4798 207.108 53.0799 206.911 53.5712L208.327 54.1377ZM208.742 51.7545V42.8745H207.216V51.7545H208.742ZM207.979 43.6372H212.479V42.1117H207.979V43.6372ZM211.716 42.8745V59.3145H213.242V42.8745H211.716ZM212.479 58.5517H208.999V60.0772H212.479V58.5517ZM209.747 59.1665L209.237 56.5865L207.741 56.8824L208.251 59.4624L209.747 59.1665ZM208.489 55.9717H208.249V57.4972H208.489V55.9717ZM207.548 56.434C207.251 57.1263 206.765 57.7032 206.06 58.1675L206.899 59.4414C207.834 58.8257 208.527 58.0226 208.95 57.0349L207.548 56.434ZM206.052 58.1723C205.406 58.6085 204.564 58.8517 203.479 58.8517V60.3772C204.794 60.3772 205.952 60.0804 206.906 59.4366L206.052 58.1723ZM203.479 58.8517C201.968 58.8517 200.955 58.4574 200.305 57.7915L199.214 58.8574C200.243 59.9115 201.711 60.3772 203.479 60.3772V58.8517ZM200.317 57.8045C199.686 57.127 199.292 55.976 199.292 54.1845H197.766C197.766 56.1529 198.192 57.7619 199.201 58.8444L200.317 57.8045ZM199.292 54.1845V48.8445H197.766V54.1845H199.292ZM199.292 48.8445C199.292 48.062 199.148 47.3476 198.779 46.7788L197.5 47.6101C197.65 47.8413 197.766 48.2269 197.766 48.8445H199.292ZM198.801 46.816C198.484 46.261 198.031 45.8427 197.45 45.5934L196.849 46.9955C197.107 47.1062 197.314 47.2879 197.477 47.5729L198.801 46.816ZM197.45 45.5934C196.919 45.366 196.334 45.2617 195.709 45.2617V46.7872C196.164 46.7872 196.539 46.8629 196.849 46.9955L197.45 45.5934ZM195.709 45.2617C194.836 45.2617 194.046 45.458 193.39 45.9037L194.248 47.1652C194.593 46.9309 195.063 46.7872 195.709 46.7872V45.2617ZM193.408 45.892C192.677 46.3598 192.301 47.087 192.248 47.9583L193.77 48.0506C193.798 47.6019 193.961 47.3491 194.23 47.1769L193.408 45.892ZM192.678 48.6913L195.288 49.9513L195.951 48.5776L193.341 47.3176L192.678 48.6913ZM194.865 49.1485L194.565 51.0985L196.073 51.3304L196.373 49.3804L194.865 49.1485ZM195.299 50.452C194.458 50.4747 193.695 50.6814 193.131 51.186L194.148 52.3229C194.344 52.1475 194.701 51.9942 195.34 51.9769L195.299 50.452ZM193.148 51.171C192.51 51.7079 192.306 52.5623 192.306 53.4645H193.832C193.832 52.7266 194.008 52.441 194.13 52.3379L193.148 51.171ZM192.306 53.4645V55.2945H193.832V53.4645H192.306ZM192.306 55.2945C192.306 55.8105 192.407 56.359 192.772 56.7647L193.906 55.7442C193.911 55.7494 193.892 55.7312 193.871 55.658C193.85 55.5828 193.832 55.4657 193.832 55.2945H192.306ZM192.829 56.8214C193.229 57.1818 193.762 57.2872 194.269 57.2872V55.7617C194.111 55.7617 194.003 55.7444 193.934 55.7245C193.901 55.7148 193.879 55.7053 193.867 55.6985C193.854 55.6919 193.85 55.6878 193.849 55.6875L192.829 56.8214ZM194.269 57.2872C194.477 57.2872 194.686 57.2756 194.893 57.2525L194.725 55.7364C194.573 55.7533 194.421 55.7617 194.269 55.7617V57.2872ZM194.959 57.2424C195.194 57.1952 195.418 57.1319 195.62 57.0455L195.019 55.6434C194.94 55.677 194.824 55.7137 194.66 55.7466L194.959 57.2424ZM194.566 56.463L194.986 59.133L196.493 58.8959L196.073 56.2259L194.566 56.463ZM195.384 58.3395C195.075 58.5021 194.714 58.6303 194.294 58.7178L194.605 60.2111C195.145 60.0986 195.643 59.9268 196.094 59.6894L195.384 58.3395ZM194.294 58.7178C193.87 58.8061 193.412 58.8517 192.919 58.8517V60.3772C193.506 60.3772 194.069 60.3228 194.605 60.2111L194.294 58.7178ZM218.735 58.2045L218.231 58.7773L218.242 58.7863L218.735 58.2045ZM217.265 50.6145L216.55 50.3496L216.545 50.3613L216.541 50.3733L217.265 50.6145ZM218.045 49.1445L218.662 49.5931L218.045 49.1445ZM218.825 47.9745L218.174 47.5767L218.167 47.5877L218.825 47.9745ZM218.885 46.1145L218.346 46.6538L218.379 46.6873L218.417 46.7165L218.885 46.1145ZM217.595 45.9645L217.394 45.2286L217.385 45.2311L217.376 45.2339L217.595 45.9645ZM216.905 46.2345L216.166 46.4231L216.393 47.3109L217.224 46.927L216.905 46.2345ZM216.185 43.4145L215.825 42.7421L215.298 43.0243L215.446 43.6031L216.185 43.4145ZM217.985 42.8145L218.103 43.568L218.112 43.5666L218.121 43.5649L217.985 42.8145ZM221.825 43.0545L221.463 43.7261L221.474 43.7316L221.825 43.0545ZM222.995 44.2545L223.687 43.9348V43.9348L222.995 44.2545ZM223.085 47.7645L223.795 48.0424L223.799 48.0323L223.085 47.7645ZM222.395 49.2045L223.059 49.5798L223.06 49.5771L222.395 49.2045ZM221.705 50.4945L221.023 50.1534L221.016 50.1673L221.009 50.1815L221.705 50.4945ZM221.705 54.9945L221.004 55.2949L221.01 55.3088L221.016 55.3224L221.705 54.9945ZM222.575 55.9245L222.22 56.5994L222.234 56.6069L222.248 56.6137L222.575 55.9245ZM225.755 55.5045L225.157 55.031L225.154 55.0344L225.755 55.5045ZM225.905 49.2645L225.287 49.711L225.301 49.7306L225.316 49.7493L225.905 49.2645ZM224.405 48.7245H223.642V49.4872H224.405V48.7245ZM224.405 46.3545V45.5917H223.642V46.3545H224.405ZM225.965 45.8445L226.537 46.3491L225.965 45.8445ZM226.535 44.5545L225.785 44.4156L225.783 44.427L225.781 44.4385L226.535 44.5545ZM226.685 42.8745V42.1117H225.922V42.8745H226.685ZM231.155 42.8745H231.918V42.1117H231.155V42.8745ZM230.675 45.9045L229.967 45.6212L229.967 45.6212L230.675 45.9045ZM228.995 47.5245L228.743 46.8046L228.232 46.9833V47.5245H228.995ZM228.995 47.6445H228.232V48.2165L228.781 48.3767L228.995 47.6445ZM230.105 48.3045L229.529 48.804L229.537 48.8139L229.546 48.8234L230.105 48.3045ZM230.645 49.3245L229.905 49.5094L230.645 49.3245ZM229.055 58.2045L229.553 58.7822L229.559 58.7772L229.055 58.2045ZM223.925 58.9417C221.742 58.9417 220.218 58.4614 219.228 57.6226L218.242 58.7863C219.612 59.9475 221.547 60.4672 223.925 60.4672V58.9417ZM219.239 57.6317C218.28 56.7891 217.758 55.5599 217.758 53.8245H216.232C216.232 55.889 216.869 57.5798 218.231 58.7772L219.239 57.6317ZM217.758 53.8245V52.6545H216.232V53.8245H217.758ZM217.758 52.6545C217.758 51.8835 217.843 51.2918 217.988 50.8556L216.541 50.3733C216.327 51.0171 216.232 51.7854 216.232 52.6545H217.758ZM217.98 50.8794C218.157 50.401 218.385 49.9734 218.662 49.5931L217.428 48.6958C217.065 49.1955 216.772 49.7479 216.55 50.3496L217.98 50.8794ZM218.662 49.5931C218.991 49.14 219.266 48.7287 219.482 48.3612L218.167 47.5877C217.984 47.9002 217.739 48.2689 217.428 48.6958L218.662 49.5931ZM219.476 48.3722C219.761 47.906 219.918 47.3999 219.918 46.8645H218.392C218.392 47.089 218.329 47.3229 218.174 47.5767L219.476 48.3722ZM219.918 46.8645C219.918 46.4064 219.806 45.8643 219.353 45.5124L218.417 46.7165C218.398 46.702 218.384 46.6866 218.376 46.6742C218.368 46.6625 218.367 46.6577 218.37 46.6653C218.376 46.6838 218.392 46.7433 218.392 46.8645H219.918ZM219.424 45.5751C219.089 45.2397 218.656 45.1117 218.225 45.1117V46.6372C218.293 46.6372 218.327 46.6469 218.339 46.6512C218.345 46.6534 218.347 46.6547 218.346 46.6543C218.346 46.6539 218.345 46.6535 218.346 46.6538L219.424 45.5751ZM218.225 45.1117C217.948 45.1117 217.671 45.1532 217.394 45.2286L217.796 46.7003C217.959 46.6557 218.101 46.6372 218.225 46.6372V45.1117ZM217.376 45.2339C217.131 45.3072 216.867 45.412 216.585 45.5419L217.224 46.927C217.463 46.8169 217.658 46.7417 217.814 46.695L217.376 45.2339ZM217.644 46.0458L216.924 43.2258L215.446 43.6031L216.166 46.4231L217.644 46.0458ZM216.545 44.0868C217.028 43.8281 217.546 43.655 218.103 43.568L217.867 42.0609C217.144 42.1739 216.462 42.4008 215.825 42.7421L216.545 44.0868ZM218.121 43.5649C218.75 43.4505 219.283 43.3972 219.725 43.3972V41.8717C219.167 41.8717 218.539 41.9384 217.848 42.064L218.121 43.5649ZM219.725 43.3972C220.536 43.3972 221.096 43.5281 221.463 43.726L222.186 42.3829C221.514 42.0208 220.674 41.8717 219.725 41.8717V43.3972ZM221.474 43.7316C221.873 43.9388 222.138 44.2177 222.302 44.5741L223.687 43.9348C223.372 43.2512 222.856 42.7301 222.176 42.3774L221.474 43.7316ZM222.302 44.5741C222.486 44.9716 222.592 45.4773 222.592 46.1145H224.118C224.118 45.3116 223.984 44.5773 223.687 43.9348L222.302 44.5741ZM222.592 46.1145C222.592 46.6616 222.513 47.1181 222.371 47.4966L223.799 48.0323C224.017 47.4508 224.118 46.8073 224.118 46.1145H222.592ZM222.375 47.4865C222.209 47.9093 221.995 48.3576 221.729 48.8318L223.06 49.5771C223.355 49.0513 223.601 48.5396 223.795 48.0424L222.375 47.4865ZM221.731 48.8292C221.466 49.2984 221.229 49.74 221.023 50.1534L222.387 50.8355C222.58 50.4489 222.804 50.0305 223.059 49.5798L221.731 48.8292ZM221.009 50.1815C220.764 50.7271 220.672 51.4343 220.672 52.2345H222.198C222.198 51.5146 222.286 51.0618 222.4 50.8074L221.009 50.1815ZM220.672 52.2345V53.3745H222.198V52.2345H220.672ZM220.672 53.3745C220.672 54.0955 220.769 54.7476 221.004 55.2949L222.406 54.694C222.28 54.4013 222.198 53.9734 222.198 53.3745H220.672ZM221.016 55.3224C221.281 55.8779 221.682 56.3162 222.22 56.5994L222.93 55.2495C222.708 55.1327 222.529 54.951 222.394 54.6665L221.016 55.3224ZM222.248 56.6137C222.752 56.8521 223.318 56.9572 223.925 56.9572V55.4317C223.492 55.4317 223.158 55.3568 222.901 55.2352L222.248 56.6137ZM223.925 56.9572C224.905 56.9572 225.793 56.6939 226.356 55.9745L225.154 55.0344C224.997 55.235 224.665 55.4317 223.925 55.4317V56.9572ZM226.353 55.9779C226.868 55.3267 227.088 54.5032 227.088 53.5845H225.562C225.562 54.2657 225.401 54.7222 225.157 55.031L226.353 55.9779ZM227.088 53.5845V50.6745H225.562V53.5845H227.088ZM227.088 50.6745C227.088 49.9614 226.921 49.2985 226.494 48.7796L225.316 49.7493C225.449 49.9105 225.562 50.1875 225.562 50.6745H227.088ZM226.523 48.8179C226.064 48.1818 225.325 47.9617 224.555 47.9617V49.4872C225.065 49.4872 225.226 49.6271 225.287 49.711L226.523 48.8179ZM224.555 47.9617H224.405V49.4872H224.555V47.9617ZM225.168 48.7245V46.3545H223.642V48.7245H225.168ZM224.405 47.1172H224.585V45.5917H224.405V47.1172ZM224.585 47.1172C225.34 47.1172 226.044 46.9071 226.537 46.3491L225.393 45.3398C225.285 45.4618 225.07 45.5917 224.585 45.5917V47.1172ZM226.537 46.3491C226.948 45.883 227.19 45.3111 227.289 44.6704L225.781 44.4385C225.72 44.8378 225.582 45.1259 225.393 45.3398L226.537 46.3491ZM227.285 44.6933C227.394 44.105 227.448 43.4984 227.448 42.8745H225.922C225.922 43.4105 225.876 43.9239 225.785 44.4156L227.285 44.6933ZM226.685 43.6372H231.155V42.1117H226.685V43.6372ZM230.392 42.8745C230.392 44.0347 230.239 44.9404 229.967 45.6212L231.383 46.1877C231.751 45.2685 231.918 44.1542 231.918 42.8745H230.392ZM229.967 45.6212C229.727 46.2205 229.331 46.5987 228.743 46.8046L229.247 48.2443C230.259 47.8902 230.983 47.1884 231.383 46.1877L229.967 45.6212ZM228.232 47.5245V47.6445H229.758V47.5245H228.232ZM228.781 48.3767C229.157 48.4862 229.387 48.6403 229.529 48.804L230.681 47.8049C230.303 47.3686 229.793 47.0827 229.208 46.9122L228.781 48.3767ZM229.546 48.8234C229.712 49.0018 229.834 49.2241 229.905 49.5094L231.385 49.1395C231.256 48.6248 231.018 48.1671 230.664 47.7855L229.546 48.8234ZM229.905 49.5094C229.988 49.84 230.032 50.2169 230.032 50.6445H231.558C231.558 50.112 231.502 49.6089 231.385 49.1395L229.905 49.5094ZM230.032 50.6445V53.7045H231.558V50.6445H230.032ZM230.032 53.7045C230.032 55.5313 229.503 56.7951 228.551 57.6317L229.559 58.7772C230.927 57.5739 231.558 55.8376 231.558 53.7045H230.032ZM228.557 57.6268C227.588 58.4618 226.087 58.9417 223.925 58.9417V60.4672C226.283 60.4672 228.202 59.9471 229.553 58.7821L228.557 57.6268ZM237.414 58.9245L237.029 59.5827L237.038 59.5882L237.048 59.5934L237.414 58.9245ZM235.524 56.7945L234.827 57.1056L234.833 57.1178L235.524 56.7945ZM234.894 42.8745V42.1117H234.131V42.8745H234.894ZM239.394 42.8745H240.157V42.1117H239.394V42.8745ZM240.054 54.9645L240.626 54.4606L240.054 54.9645ZM244.434 54.5145L245.051 54.9622L245.057 54.9549L244.434 54.5145ZM245.304 42.8745V42.1117H244.541V42.8745H245.304ZM249.804 42.8745H250.567V42.1117H249.804V42.8745ZM249.804 59.3145V60.0772H250.567V59.3145H249.804ZM246.384 59.3145L245.635 59.4572L245.753 60.0772H246.384V59.3145ZM245.904 56.7945L246.653 56.6517L246.535 56.0317H245.904V56.7945ZM245.634 56.7945V56.0317H245.129L244.932 56.4961L245.634 56.7945ZM243.864 58.8045L243.451 58.1628L243.444 58.1675L243.864 58.8045ZM240.504 58.8517C239.378 58.8517 238.481 58.6394 237.78 58.2555L237.048 59.5934C238.026 60.1295 239.19 60.3772 240.504 60.3772V58.8517ZM237.799 58.2662C237.125 57.8715 236.595 57.2846 236.215 56.4711L234.833 57.1178C235.332 58.1843 236.063 59.0174 237.029 59.5827L237.799 58.2662ZM236.22 56.4833C235.856 55.6673 235.657 54.63 235.657 53.3445H234.131C234.131 54.7789 234.352 56.0416 234.827 57.1056L236.22 56.4833ZM235.657 53.3445V42.8745H234.131V53.3445H235.657ZM234.894 43.6372H239.394V42.1117H234.894V43.6372ZM238.631 42.8745V52.5645H240.157V42.8745H238.631ZM238.631 52.5645C238.631 53.7373 238.861 54.763 239.481 55.4683L240.626 54.4606C240.367 54.1659 240.157 53.5916 240.157 52.5645H238.631ZM239.481 55.4683C240.102 56.174 240.976 56.4772 241.974 56.4772V54.9517C241.291 54.9517 240.885 54.7549 240.626 54.4606L239.481 55.4683ZM241.974 56.4772C243.257 56.4772 244.316 55.9763 245.051 54.9621L243.816 54.0668C243.392 54.6526 242.81 54.9517 241.974 54.9517V56.4772ZM245.057 54.9549C245.771 53.9442 246.067 52.4941 246.067 50.7345H244.541C244.541 52.3748 244.256 53.4447 243.811 54.074L245.057 54.9549ZM246.067 50.7345V42.8745H244.541V50.7345H246.067ZM245.304 43.6372H249.804V42.1117H245.304V43.6372ZM249.041 42.8745V59.3145H250.567V42.8745H249.041ZM249.804 58.5517H246.384V60.0772H249.804V58.5517ZM247.133 59.1717L246.653 56.6517L245.155 56.9372L245.635 59.4572L247.133 59.1717ZM245.904 56.0317H245.634V57.5572H245.904V56.0317ZM244.932 56.4961C244.66 57.1351 244.182 57.693 243.451 58.1629L244.276 59.446C245.225 58.836 245.927 58.0538 246.336 57.0928L244.932 56.4961ZM243.444 58.1675C242.793 58.5965 241.838 58.8517 240.504 58.8517V60.3772C242.01 60.3772 243.295 60.0924 244.283 59.4414L243.444 58.1675ZM253.748 48.0945L253.066 48.4356L253.072 48.4473L253.748 48.0945ZM253.538 45.5445L254.273 45.7486L254.276 45.7386L253.538 45.5445ZM253.988 44.4345L254.086 43.678L253.573 43.6121L253.322 44.064L253.988 44.4345ZM257.258 44.8545L257.992 45.064L258.235 44.211L257.356 44.098L257.258 44.8545ZM257.138 45.3045L256.398 45.1195L256.387 45.1641L256.382 45.2098L257.138 45.3045ZM257.348 46.4445L256.809 46.9838L256.827 47.0017L256.846 47.0185L257.348 46.4445ZM261.578 46.6545H262.341V45.8917H261.578V46.6545ZM261.578 49.6245V50.3872H262.341V49.6245H261.578ZM254.918 57.6045L255.269 56.9274L254.918 57.6045ZM253.748 56.4945L253.066 56.8356L253.072 56.8473L253.748 56.4945ZM253.538 53.9445L254.273 54.1486L254.276 54.1386L253.538 53.9445ZM253.988 52.8345L254.086 52.078L253.573 52.0121L253.322 52.464L253.988 52.8345ZM257.258 53.2545L257.992 53.464L258.235 52.611L257.356 52.498L257.258 53.2545ZM257.138 53.7045L256.398 53.5195L256.387 53.5641L256.382 53.6098L257.138 53.7045ZM257.348 54.8445L256.809 55.3838L256.827 55.4017L256.846 55.4185L257.348 54.8445ZM261.578 55.0545H262.341V54.2917H261.578V55.0545ZM261.578 58.0245V58.7872H262.341V58.0245H261.578ZM257.108 48.8617C256.253 48.8617 255.66 48.7296 255.269 48.5274L254.567 49.8816C255.257 50.2393 256.123 50.3872 257.108 50.3872V48.8617ZM255.269 48.5274C254.844 48.3067 254.58 48.04 254.425 47.7416L253.072 48.4473C253.397 49.0689 253.913 49.5422 254.567 49.8816L255.269 48.5274ZM254.431 47.7534C254.242 47.3758 254.151 46.9922 254.151 46.5945H252.626C252.626 47.2367 252.775 47.8531 253.066 48.4355L254.431 47.7534ZM254.151 46.5945C254.151 46.3299 254.19 46.0486 254.273 45.7486L252.804 45.3403C252.687 45.7603 252.626 46.179 252.626 46.5945H254.151ZM254.276 45.7386C254.359 45.4229 254.485 45.1119 254.655 44.8049L253.322 44.064C253.092 44.477 252.918 44.906 252.801 45.3503L254.276 45.7386ZM253.891 45.1909L257.161 45.6109L257.356 44.098L254.086 43.678L253.891 45.1909ZM256.525 44.6449C256.482 44.794 256.44 44.9523 256.398 45.1195L257.878 45.4894C257.917 45.3366 257.954 45.1949 257.992 45.064L256.525 44.6449ZM256.382 45.2098C256.357 45.4046 256.346 45.6064 256.346 45.8145H257.871C257.871 45.6625 257.88 45.5243 257.895 45.3991L256.382 45.2098ZM256.346 45.8145C256.346 46.244 256.484 46.6592 256.809 46.9838L257.888 45.9051C257.883 45.9006 257.883 45.8992 257.881 45.8954C257.879 45.8896 257.871 45.866 257.871 45.8145H256.346ZM256.846 47.0185C257.224 47.3493 257.747 47.4172 258.188 47.4172V45.8917C258.029 45.8917 257.925 45.8773 257.863 45.862C257.801 45.8464 257.813 45.8375 257.851 45.8705L256.846 47.0185ZM258.188 47.4172H261.578V45.8917H258.188V47.4172ZM260.816 46.6545V49.6245H262.341V46.6545H260.816ZM261.578 48.8617H257.108V50.3872H261.578V48.8617ZM257.108 57.2617C256.253 57.2617 255.66 57.1296 255.269 56.9274L254.567 58.2816C255.257 58.6393 256.123 58.7872 257.108 58.7872V57.2617ZM255.269 56.9274C254.844 56.7067 254.58 56.44 254.425 56.1416L253.072 56.8473C253.397 57.4689 253.913 57.9422 254.567 58.2816L255.269 56.9274ZM254.431 56.1534C254.242 55.7758 254.151 55.3922 254.151 54.9945H252.626C252.626 55.6367 252.775 56.2531 253.066 56.8355L254.431 56.1534ZM254.151 54.9945C254.151 54.7299 254.19 54.4486 254.273 54.1486L252.804 53.7403C252.687 54.1603 252.626 54.579 252.626 54.9945H254.151ZM254.276 54.1386C254.359 53.8229 254.485 53.5119 254.655 53.2049L253.322 52.464C253.092 52.877 252.918 53.306 252.801 53.7503L254.276 54.1386ZM253.891 53.591L257.161 54.011L257.356 52.498L254.086 52.078L253.891 53.591ZM256.525 53.0449C256.482 53.194 256.44 53.3523 256.398 53.5195L257.878 53.8894C257.917 53.7366 257.954 53.5949 257.992 53.464L256.525 53.0449ZM256.382 53.6098C256.357 53.8046 256.346 54.0064 256.346 54.2145H257.871C257.871 54.0625 257.88 53.9243 257.895 53.7991L256.382 53.6098ZM256.346 54.2145C256.346 54.644 256.484 55.0592 256.809 55.3838L257.888 54.3051C257.883 54.3006 257.883 54.2992 257.881 54.2954C257.879 54.2896 257.871 54.266 257.871 54.2145H256.346ZM256.846 55.4185C257.224 55.7493 257.747 55.8172 258.188 55.8172V54.2917C258.029 54.2917 257.925 54.2773 257.863 54.262C257.801 54.2464 257.813 54.2374 257.851 54.2705L256.846 55.4185ZM258.188 55.8172H261.578V54.2917H258.188V55.8172ZM260.816 55.0545V58.0245H262.341V55.0545H260.816ZM261.578 57.2617H257.108V58.7872H261.578V57.2617Z" fill="white"/>
</g>
<g filter="url(#filter2_d_507_20166)">
<path d="M196.677 72.2086V85.5352H192.994V76.8027C192.398 77.2556 191.82 77.622 191.26 77.9021C190.706 78.1821 190.009 78.4503 189.169 78.7065V75.7212C190.408 75.322 191.37 74.8423 192.056 74.2822C192.741 73.7221 193.277 73.0309 193.664 72.2086H196.677ZM200.994 81.8884H204.882V85.5352H200.994V81.8884ZM206.732 78.93C206.732 76.4392 207.179 74.6963 208.073 73.7012C208.972 72.7061 210.34 72.2086 212.175 72.2086C213.057 72.2086 213.781 72.3188 214.347 72.5393C214.913 72.7538 215.375 73.0368 215.732 73.3884C216.09 73.734 216.37 74.1004 216.573 74.4878C216.781 74.8691 216.948 75.316 217.073 75.8285C217.317 76.8057 217.44 77.8246 217.44 78.8853C217.44 81.2628 217.037 83.0027 216.233 84.1051C215.429 85.2074 214.043 85.7586 212.077 85.7586C210.974 85.7586 210.084 85.5828 209.404 85.2313C208.725 84.8797 208.168 84.3643 207.733 83.685C207.417 83.2023 207.17 82.5439 206.991 81.7097C206.818 80.8695 206.732 79.9429 206.732 78.93ZM210.343 78.9389C210.343 80.6073 210.489 81.7484 210.781 82.3622C211.079 82.9699 211.508 83.2738 212.068 83.2738C212.437 83.2738 212.756 83.1457 213.024 82.8895C213.298 82.6273 213.498 82.2162 213.623 81.6561C213.754 81.0959 213.82 80.223 213.82 79.0372C213.82 77.2973 213.671 76.1294 213.373 75.5335C213.081 74.9317 212.64 74.6308 212.05 74.6308C211.448 74.6308 211.013 74.9376 210.745 75.5514C210.477 76.1592 210.343 77.2883 210.343 78.9389ZM218.941 78.93C218.941 76.4392 219.388 74.6963 220.282 73.7012C221.182 72.7061 222.549 72.2086 224.384 72.2086C225.266 72.2086 225.99 72.3188 226.556 72.5393C227.122 72.7538 227.584 73.0368 227.942 73.3884C228.299 73.734 228.579 74.1004 228.782 74.4878C228.99 74.8691 229.157 75.316 229.282 75.8285C229.527 76.8057 229.649 77.8246 229.649 78.8853C229.649 81.2628 229.247 83.0027 228.442 84.1051C227.638 85.2074 226.252 85.7586 224.286 85.7586C223.184 85.7586 222.293 85.5828 221.614 85.2313C220.934 84.8797 220.377 84.3643 219.942 83.685C219.626 83.2023 219.379 82.5439 219.2 81.7097C219.028 80.8695 218.941 79.9429 218.941 78.93ZM222.552 78.9389C222.552 80.6073 222.698 81.7484 222.99 82.3622C223.288 82.9699 223.717 83.2738 224.277 83.2738C224.647 83.2738 224.965 83.1457 225.234 82.8895C225.508 82.6273 225.707 82.2162 225.832 81.6561C225.963 81.0959 226.029 80.223 226.029 79.0372C226.029 77.2973 225.88 76.1294 225.582 75.5335C225.29 74.9317 224.849 74.6308 224.259 74.6308C223.657 74.6308 223.222 74.9376 222.954 75.5514C222.686 76.1592 222.552 77.2883 222.552 78.9389ZM230.677 76.043H234.994L236.504 78.6886L238.256 76.043H242.269L239.034 80.5656L242.502 85.5352H238.256L236.504 82.4784L234.44 85.5352H230.498L233.948 80.5656L230.677 76.043Z" fill="#FFE08F"/>
</g>
<rect x="162.515" y="96.043" width="105.034" height="16" rx="8" fill="#3B3B3C"/>
<g clip-path="url(#clip1_507_20166)">
<path d="M183.665 105.704C182.748 109.381 179.024 111.619 175.346 110.702C171.67 109.785 169.432 106.06 170.349 102.383C171.265 98.7055 174.99 96.4673 178.666 97.3841C182.344 98.3009 184.582 102.026 183.665 105.704L183.665 105.704H183.665Z" fill="#F7931A"/>
<path d="M180.034 103.065C180.17 102.152 179.475 101.661 178.524 101.333L178.832 100.096L178.079 99.908L177.779 101.113C177.581 101.063 177.377 101.017 177.175 100.971L177.478 99.758L176.725 99.5703L176.416 100.807C176.252 100.77 176.092 100.733 175.935 100.694L175.936 100.69L174.897 100.431L174.697 101.236C174.697 101.236 175.256 101.364 175.244 101.372C175.549 101.448 175.604 101.65 175.595 101.81L175.244 103.219C175.265 103.225 175.292 103.232 175.322 103.244C175.297 103.238 175.27 103.231 175.242 103.225L174.75 105.2C174.713 105.292 174.618 105.431 174.405 105.379C174.412 105.389 173.857 105.242 173.857 105.242L173.483 106.104L174.464 106.348C174.646 106.394 174.825 106.442 175.001 106.487L174.689 107.739L175.441 107.926L175.75 106.688C175.955 106.744 176.155 106.795 176.35 106.844L176.043 108.076L176.796 108.264L177.108 107.015C178.392 107.258 179.358 107.16 179.764 105.998C180.092 105.063 179.748 104.523 179.072 104.171C179.564 104.058 179.935 103.734 180.034 103.065L180.034 103.065L180.034 103.065ZM178.313 105.479C178.08 106.414 176.505 105.908 175.994 105.782L176.408 104.123C176.919 104.251 178.556 104.503 178.313 105.479H178.313ZM178.546 103.052C178.333 103.903 177.023 103.47 176.597 103.364L176.972 101.86C177.398 101.966 178.767 102.164 178.546 103.052H178.546Z" fill="white"/>
</g>
<path d="M187.391 104.915C187.391 103.358 187.671 102.269 188.229 101.647C188.792 101.025 189.646 100.714 190.793 100.714C191.345 100.714 191.797 100.783 192.151 100.921C192.505 101.055 192.793 101.232 193.017 101.451C193.24 101.667 193.415 101.896 193.542 102.138C193.672 102.377 193.776 102.656 193.855 102.976C194.007 103.587 194.084 104.224 194.084 104.887C194.084 106.373 193.832 107.46 193.33 108.149C192.827 108.838 191.961 109.183 190.732 109.183C190.043 109.183 189.486 109.073 189.062 108.853C188.637 108.633 188.289 108.311 188.017 107.887C187.82 107.585 187.665 107.173 187.553 106.652C187.445 106.127 187.391 105.548 187.391 104.915ZM189.648 104.92C189.648 105.963 189.739 106.676 189.922 107.06C190.108 107.44 190.376 107.63 190.726 107.63C190.957 107.63 191.157 107.55 191.324 107.389C191.495 107.226 191.62 106.969 191.698 106.619C191.78 106.268 191.821 105.723 191.821 104.982C191.821 103.894 191.728 103.164 191.542 102.792C191.359 102.416 191.084 102.228 190.715 102.228C190.339 102.228 190.067 102.42 189.9 102.803C189.732 103.183 189.648 103.889 189.648 104.92ZM195.246 106.764H197.676V109.043H195.246V106.764ZM198.832 104.915C198.832 103.358 199.111 102.269 199.67 101.647C200.232 101.025 201.087 100.714 202.234 100.714C202.785 100.714 203.238 100.783 203.592 100.921C203.945 101.055 204.234 101.232 204.457 101.451C204.681 101.667 204.856 101.896 204.983 102.138C205.113 102.377 205.217 102.656 205.295 102.976C205.448 103.587 205.524 104.224 205.524 104.887C205.524 106.373 205.273 107.46 204.77 108.149C204.267 108.838 203.402 109.183 202.173 109.183C201.484 109.183 200.927 109.073 200.502 108.853C200.078 108.633 199.73 108.311 199.458 107.887C199.26 107.585 199.106 107.173 198.994 106.652C198.886 106.127 198.832 105.548 198.832 104.915ZM201.089 104.92C201.089 105.963 201.18 106.676 201.363 107.06C201.549 107.44 201.817 107.63 202.167 107.63C202.398 107.63 202.597 107.55 202.765 107.389C202.936 107.226 203.061 106.969 203.139 106.619C203.221 106.268 203.262 105.723 203.262 104.982C203.262 103.894 203.169 103.164 202.983 102.792C202.8 102.416 202.525 102.228 202.156 102.228C201.78 102.228 201.508 102.42 201.34 102.803C201.173 103.183 201.089 103.889 201.089 104.92ZM206.463 104.915C206.463 103.358 206.742 102.269 207.301 101.647C207.863 101.025 208.718 100.714 209.865 100.714C210.416 100.714 210.869 100.783 211.222 100.921C211.576 101.055 211.865 101.232 212.088 101.451C212.312 101.667 212.487 101.896 212.613 102.138C212.744 102.377 212.848 102.656 212.926 102.976C213.079 103.587 213.155 104.224 213.155 104.887C213.155 106.373 212.904 107.46 212.401 108.149C211.898 108.838 211.032 109.183 209.803 109.183C209.115 109.183 208.558 109.073 208.133 108.853C207.709 108.633 207.36 108.311 207.089 107.887C206.891 107.585 206.737 107.173 206.625 106.652C206.517 106.127 206.463 105.548 206.463 104.915ZM208.72 104.92C208.72 105.963 208.811 106.676 208.993 107.06C209.18 107.44 209.448 107.63 209.798 107.63C210.029 107.63 210.228 107.55 210.396 107.389C210.567 107.226 210.692 106.969 210.77 106.619C210.852 106.268 210.893 105.723 210.893 104.982C210.893 103.894 210.8 103.164 210.613 102.792C210.431 102.416 210.155 102.228 209.787 102.228C209.411 102.228 209.139 102.42 208.971 102.803C208.804 103.183 208.72 103.889 208.72 104.92ZM219.25 100.714V109.043H216.948V103.585C216.576 103.868 216.215 104.097 215.865 104.272C215.518 104.447 215.083 104.615 214.557 104.775V102.909C215.332 102.66 215.933 102.36 216.362 102.01C216.79 101.66 217.125 101.228 217.367 100.714H219.25ZM223.931 103.222L221.78 102.837C221.959 102.151 222.302 101.626 222.808 101.261C223.319 100.896 224.039 100.714 224.97 100.714C226.039 100.714 226.812 100.913 227.288 101.312C227.765 101.71 228.004 102.211 228.004 102.814C228.004 103.168 227.907 103.488 227.713 103.775C227.519 104.062 227.227 104.313 226.836 104.529C227.153 104.607 227.395 104.699 227.562 104.803C227.834 104.971 228.045 105.192 228.193 105.468C228.346 105.74 228.423 106.065 228.423 106.445C228.423 106.922 228.298 107.38 228.048 107.82C227.799 108.255 227.439 108.592 226.97 108.831C226.501 109.065 225.884 109.183 225.121 109.183C224.376 109.183 223.788 109.095 223.356 108.92C222.927 108.745 222.574 108.49 222.294 108.155C222.019 107.816 221.807 107.391 221.658 106.881L223.931 106.579C224.021 107.037 224.158 107.356 224.345 107.535C224.534 107.71 224.775 107.797 225.065 107.797C225.371 107.797 225.624 107.686 225.825 107.462C226.03 107.239 226.132 106.941 226.132 106.568C226.132 106.188 226.033 105.894 225.836 105.686C225.642 105.477 225.378 105.373 225.043 105.373C224.864 105.373 224.618 105.417 224.305 105.507L224.423 103.881C224.549 103.9 224.648 103.909 224.719 103.909C225.017 103.909 225.264 103.814 225.462 103.624C225.663 103.434 225.763 103.209 225.763 102.948C225.763 102.699 225.689 102.5 225.54 102.351C225.391 102.202 225.186 102.127 224.926 102.127C224.657 102.127 224.439 102.209 224.272 102.373C224.104 102.533 223.991 102.816 223.931 103.222ZM229.355 104.915C229.355 103.358 229.635 102.269 230.193 101.647C230.756 101.025 231.61 100.714 232.757 100.714C233.309 100.714 233.761 100.783 234.115 100.921C234.469 101.055 234.757 101.232 234.981 101.451C235.204 101.667 235.379 101.896 235.506 102.138C235.636 102.377 235.741 102.656 235.819 102.976C235.971 103.587 236.048 104.224 236.048 104.887C236.048 106.373 235.796 107.46 235.294 108.149C234.791 108.838 233.925 109.183 232.696 109.183C232.007 109.183 231.45 109.073 231.026 108.853C230.601 108.633 230.253 108.311 229.981 107.887C229.784 107.585 229.629 107.173 229.517 106.652C229.409 106.127 229.355 105.548 229.355 104.915ZM231.612 104.92C231.612 105.963 231.704 106.676 231.886 107.06C232.072 107.44 232.34 107.63 232.69 107.63C232.921 107.63 233.121 107.55 233.288 107.389C233.459 107.226 233.584 106.969 233.662 106.619C233.744 106.268 233.785 105.723 233.785 104.982C233.785 103.894 233.692 103.164 233.506 102.792C233.324 102.416 233.048 102.228 232.679 102.228C232.303 102.228 232.031 102.42 231.864 102.803C231.696 103.183 231.612 103.889 231.612 104.92ZM240.897 107.512H236.752V105.641L240.897 100.714H242.88V105.747H243.908V107.512H242.88V109.043H240.897V107.512ZM240.897 105.747V103.172L238.707 105.747H240.897ZM249.773 100.714V109.043H247.472V103.585C247.099 103.868 246.738 104.097 246.388 104.272C246.042 104.447 245.606 104.615 245.081 104.775V102.909C245.855 102.66 246.457 102.36 246.885 102.01C247.313 101.66 247.649 101.228 247.891 100.714H249.773ZM258.907 109.043H252.08C252.159 108.369 252.395 107.736 252.79 107.144C253.188 106.548 253.933 105.846 255.024 105.038C255.691 104.542 256.117 104.166 256.304 103.909C256.49 103.652 256.583 103.408 256.583 103.177C256.583 102.928 256.49 102.716 256.304 102.541C256.121 102.362 255.89 102.272 255.611 102.272C255.32 102.272 255.082 102.364 254.896 102.546C254.713 102.729 254.59 103.051 254.527 103.513L252.248 103.328C252.337 102.688 252.501 102.189 252.74 101.831C252.978 101.47 253.313 101.194 253.745 101.004C254.181 100.811 254.782 100.714 255.549 100.714C256.35 100.714 256.972 100.805 257.415 100.988C257.862 101.17 258.212 101.451 258.465 101.831C258.722 102.207 258.851 102.63 258.851 103.099C258.851 103.598 258.704 104.075 258.41 104.529C258.119 104.984 257.588 105.483 256.818 106.026C256.359 106.343 256.052 106.565 255.896 106.691C255.743 106.818 255.562 106.983 255.354 107.188H258.907V109.043Z" fill="white"/>
</g>
<rect x="120.185" y="30.4502" width="189.915" height="88.4746" rx="22.1186" stroke="#EFC046" stroke-width="1.52542"/>
</g>
<g filter="url(#filter3_d_507_20166)">
<rect x="64.7111" y="129.983" width="58.5753" height="82.2421" rx="9.17088" fill="#161F2C" stroke="#55657E" stroke-width="0.591669" stroke-dasharray="4.73 4.73"/>
<g clip-path="url(#clip2_507_20166)">
<rect x="64.4153" y="129.688" width="59.1669" height="82.8337" rx="7.10003" fill="url(#paint2_linear_507_20166)"/>
<path d="M79.7101 150.643L84.1069 154.125L81.9978 155.955L77.668 152.473L79.7101 150.643ZM84.2185 144.55V145.32C84.2185 146.555 84.0511 147.664 83.7163 148.646C83.389 149.628 82.9166 150.465 82.2991 151.157C81.6816 151.841 80.9525 152.366 80.1119 152.73C79.2712 153.095 78.3376 153.277 77.3109 153.277C76.2917 153.277 75.3581 153.095 74.51 152.73C73.6619 152.366 72.9291 151.841 72.3116 151.157C71.6941 150.465 71.2143 149.628 70.8721 148.646C70.5373 147.664 70.3699 146.555 70.3699 145.32V144.55C70.3699 143.308 70.5373 142.2 70.8721 141.225C71.2143 140.243 71.6904 139.406 72.3004 138.714C72.9105 138.022 73.6395 137.494 74.4876 137.13C75.3357 136.765 76.2694 136.583 77.2886 136.583C78.3152 136.583 79.2489 136.765 80.0896 137.13C80.9377 137.494 81.6704 138.022 82.2879 138.714C82.9054 139.406 83.3815 140.243 83.7163 141.225C84.0511 142.2 84.2185 143.308 84.2185 144.55ZM80.8372 145.32V144.528C80.8372 143.665 80.7554 142.906 80.5917 142.252C80.4355 141.597 80.2049 141.046 79.8998 140.6C79.6023 140.154 79.234 139.819 78.7951 139.596C78.3562 139.365 77.854 139.25 77.2886 139.25C76.7232 139.25 76.221 139.365 75.7821 139.596C75.3432 139.819 74.9749 140.154 74.6773 140.6C74.3798 141.046 74.1529 141.597 73.9966 142.252C73.8404 142.906 73.7623 143.665 73.7623 144.528V145.32C73.7623 146.176 73.8404 146.935 73.9966 147.597C74.1529 148.252 74.3798 148.806 74.6773 149.26C74.9824 149.706 75.3543 150.044 75.7933 150.275C76.2396 150.506 76.7455 150.621 77.3109 150.621C77.8763 150.621 78.3748 150.506 78.8062 150.275C79.2452 150.044 79.6134 149.706 79.911 149.26C80.216 148.806 80.4467 148.252 80.6029 147.597C80.7591 146.935 80.8372 146.176 80.8372 145.32Z" fill="#242424"/>
<path fill-rule="evenodd" clip-rule="evenodd" d="M80.3791 170.523C82.9052 170.551 84.4593 168.933 83.6045 167.23C82.7497 165.526 81.8976 165.143 80.5557 163.908C79.2133 162.673 77.2612 160.537 77.2704 160.033C77.2803 160.537 75.4086 162.673 74.0662 163.908C72.7243 165.143 71.8729 165.526 71.0174 167.23C70.1626 168.933 71.7173 170.551 74.2428 170.523C75.9767 170.503 76.757 169.507 77.0753 168.885L77.0753 169.7C77.0753 169.7 76.5217 172.639 72.6149 172.961L71.9921 172.961L71.9921 173.419L82.6304 173.419L82.6304 172.961L82.007 172.961C78.1008 172.639 77.5466 169.7 77.5466 169.7L77.5466 168.992C77.9216 169.615 78.7414 170.504 80.3791 170.523Z" fill="#242424"/>
<path fill-rule="evenodd" clip-rule="evenodd" d="M112.505 201.963C117.998 202.025 121.377 198.506 119.519 194.802C117.66 191.097 115.807 190.264 112.889 187.578C109.969 184.893 105.724 180.247 105.744 179.151C105.766 180.247 101.695 184.893 98.7758 187.578C95.8578 190.264 94.0061 191.097 92.1458 194.802C90.2869 198.506 93.6679 202.025 99.1599 201.963C102.931 201.921 104.628 199.755 105.32 198.401L105.32 200.173C105.32 200.173 104.116 206.566 95.6199 207.265L94.2655 207.265L94.2655 208.262L117.4 208.262L117.4 207.265L116.045 207.265C107.55 206.566 106.345 200.173 106.345 200.173L106.345 198.633C107.16 199.989 108.943 201.923 112.505 201.963Z" fill="#242424"/>
</g>
<rect x="65.007" y="130.279" width="57.9836" height="81.6504" rx="6.50836" stroke="#15DB41" stroke-width="1.18334"/>
</g>
<g filter="url(#filter4_d_507_20166)">
<rect x="88.7112" y="141.983" width="58.5753" height="82.2421" rx="9.17088" fill="#161F2C" stroke="#55657E" stroke-width="0.591669" stroke-dasharray="4.73 4.73"/>
<g clip-path="url(#clip3_507_20166)">
<rect x="88.4154" y="141.688" width="59.1669" height="82.8337" rx="7.10003" fill="url(#paint3_linear_507_20166)"/>
<path d="M98.8449 148.806V165.054H95.4971V148.806H98.8449ZM108.576 148.806L102.137 156.829L98.4208 160.824L97.8182 157.655L100.329 154.218L104.469 148.806H108.576ZM104.77 165.054L99.9831 157.544L102.46 155.468L108.732 165.054H104.77Z" fill="#EE3D3D"/>
<path fill-rule="evenodd" clip-rule="evenodd" d="M104.533 172.36C101.881 172.397 101.353 175.143 101.353 175.143C101.353 175.143 100.741 172.397 98.0894 172.36C95.4373 172.323 93.8053 174.438 94.7029 176.665C95.6005 178.891 96.4949 179.392 97.9042 181.006C99.3134 182.621 101.364 185.413 101.353 186.072C101.343 185.413 103.309 182.621 104.718 181.006C106.127 179.392 107.022 178.891 107.919 176.665C108.817 174.438 107.185 172.323 104.533 172.36Z" fill="#EE3D3D"/>
<path fill-rule="evenodd" clip-rule="evenodd" d="M136.839 191.861C131.071 191.942 129.925 197.914 129.925 197.914C129.925 197.914 128.594 191.942 122.827 191.861C117.059 191.781 113.51 196.381 115.462 201.223C117.414 206.065 119.359 207.154 122.424 210.665C125.488 214.175 129.947 220.248 129.925 221.68C129.903 220.248 134.177 214.175 137.241 210.665C140.306 207.154 142.251 206.065 144.203 201.223C146.155 196.381 142.606 191.781 136.839 191.861Z" fill="#EE3D3D"/>
</g>
<rect x="89.0071" y="142.279" width="57.9836" height="81.6504" rx="6.50836" stroke="#15DB41" stroke-width="1.18334"/>
</g>
<g filter="url(#filter5_d_507_20166)">
<rect x="111.711" y="151.983" width="58.5753" height="82.2421" rx="9.17088" fill="#161F2C" stroke="#55657E" stroke-width="0.591669" stroke-dasharray="4.73 4.73"/>
<g clip-path="url(#clip4_507_20166)">
<rect x="111.415" y="151.688" width="59.1669" height="82.8337" rx="7.10003" fill="url(#paint4_linear_507_20166)"/>
<path d="M121.142 172.61H121.354C122.246 172.61 123.013 172.502 123.652 172.286C124.3 172.063 124.832 171.743 125.248 171.327C125.665 170.91 125.974 170.4 126.174 169.798C126.375 169.188 126.476 168.496 126.476 167.722V164.642C126.476 164.054 126.416 163.537 126.297 163.091C126.186 162.645 126.022 162.276 125.806 161.986C125.598 161.689 125.352 161.466 125.07 161.317C124.794 161.168 124.489 161.094 124.155 161.094C123.797 161.094 123.481 161.183 123.206 161.361C122.931 161.532 122.696 161.767 122.503 162.064C122.317 162.362 122.172 162.704 122.068 163.091C121.971 163.47 121.923 163.868 121.923 164.285C121.923 164.702 121.971 165.1 122.068 165.479C122.165 165.851 122.31 166.182 122.503 166.472C122.696 166.755 122.938 166.982 123.228 167.153C123.518 167.317 123.861 167.398 124.255 167.398C124.634 167.398 124.973 167.328 125.27 167.186C125.576 167.038 125.832 166.844 126.04 166.606C126.256 166.368 126.42 166.104 126.531 165.814C126.651 165.524 126.71 165.23 126.71 164.932L127.77 165.513C127.77 166.033 127.659 166.547 127.435 167.053C127.212 167.558 126.9 168.02 126.498 168.436C126.104 168.845 125.646 169.173 125.125 169.418C124.605 169.664 124.047 169.787 123.452 169.787C122.693 169.787 122.019 169.649 121.432 169.374C120.844 169.091 120.346 168.704 119.936 168.213C119.535 167.715 119.23 167.134 119.021 166.472C118.813 165.81 118.709 165.092 118.709 164.319C118.709 163.53 118.835 162.79 119.088 162.098C119.349 161.406 119.717 160.796 120.193 160.268C120.677 159.74 121.253 159.327 121.923 159.029C122.6 158.724 123.351 158.572 124.177 158.572C125.003 158.572 125.754 158.732 126.431 159.051C127.108 159.371 127.688 159.825 128.172 160.413C128.655 160.993 129.027 161.689 129.288 162.5C129.556 163.311 129.69 164.211 129.69 165.2V166.316C129.69 167.372 129.574 168.354 129.344 169.262C129.12 170.17 128.782 170.992 128.328 171.728C127.882 172.457 127.324 173.082 126.654 173.603C125.992 174.124 125.222 174.522 124.344 174.797C123.466 175.072 122.484 175.21 121.398 175.21H121.142V172.61Z" fill="#EE3D3D"/>
<rect x="124.311" y="182.111" width="10.0469" height="10.0469" transform="rotate(45 124.311 182.111)" fill="#EE3D3D"/>
<rect x="152.832" y="201.321" width="21.8489" height="21.8489" transform="rotate(45 152.832 201.321)" fill="#EE3D3D"/>
</g>
<rect x="112.007" y="152.279" width="57.9836" height="81.6504" rx="6.50836" stroke="#15DB41" stroke-width="1.18334"/>
</g>
<rect x="89.886" y="240.983" width="55.0584" height="21.1417" rx="10.3542" fill="#161F2C"/>
<path d="M95.6416 254.054V248.942C95.6416 248.534 95.7096 248.214 95.8456 247.982C95.9896 247.75 96.1856 247.59 96.4336 247.502C96.6816 247.406 96.9656 247.358 97.2856 247.358C97.5096 247.358 97.7096 247.382 97.8856 247.43C98.0616 247.47 98.2056 247.518 98.3176 247.574L98.0776 248.75C98.0136 248.734 97.9496 248.722 97.8856 248.714C97.8216 248.706 97.7696 248.702 97.7296 248.702C97.5776 248.702 97.4696 248.742 97.4056 248.822C97.3496 248.902 97.3216 249.018 97.3216 249.17V250.286C97.3216 250.486 97.3136 250.726 97.2976 251.006C97.2816 251.278 97.2536 251.622 97.2136 252.038H97.2736C97.4336 251.662 97.5736 251.362 97.6936 251.138C97.8216 250.906 97.9336 250.702 98.0296 250.526L98.4736 249.722H99.1456L99.5896 250.526C99.7016 250.718 99.7976 250.894 99.8776 251.054C99.9576 251.206 100.034 251.358 100.106 251.51C100.178 251.662 100.258 251.838 100.346 252.038H100.406C100.366 251.622 100.338 251.278 100.322 251.006C100.306 250.726 100.298 250.486 100.298 250.286V247.478H101.978V254.054H100.262L98.8336 251.438H98.7856L97.3576 254.054H95.6416ZM100.137 257.234C99.497 257.234 99.029 257.138 98.733 256.946C98.437 256.754 98.289 256.502 98.289 256.19V255.986C98.289 255.85 98.253 255.766 98.181 255.734C98.109 255.71 98.013 255.714 97.893 255.746L97.809 254.942C97.921 254.894 98.065 254.862 98.241 254.846C98.417 254.83 98.561 254.822 98.673 254.822C99.025 254.822 99.281 254.886 99.441 255.014C99.593 255.142 99.669 255.322 99.669 255.554V255.83C99.669 255.966 99.701 256.07 99.765 256.142C99.821 256.222 99.929 256.262 100.089 256.262C100.257 256.262 100.373 256.222 100.437 256.142C100.501 256.07 100.533 255.966 100.533 255.83V254.858H101.997V256.022C101.997 256.414 101.849 256.714 101.553 256.922C101.257 257.13 100.785 257.234 100.137 257.234ZM98.361 246.578V245.978C98.473 245.946 98.597 245.902 98.733 245.846C98.869 245.79 98.989 245.714 99.093 245.618C99.197 245.522 99.249 245.402 99.249 245.258C99.249 245.146 99.217 245.058 99.153 244.994C99.089 244.93 99.009 244.898 98.913 244.898C98.849 244.898 98.781 244.91 98.709 244.934C98.637 244.958 98.573 244.982 98.517 245.006L98.289 244.202C98.449 244.066 98.649 243.978 98.889 243.938C99.121 243.89 99.317 243.866 99.477 243.866C99.837 243.866 100.121 243.95 100.329 244.118C100.529 244.286 100.629 244.534 100.629 244.862C100.629 245.038 100.585 245.202 100.497 245.354C100.401 245.506 100.257 245.63 100.065 245.726L100.017 245.414H102.285V246.578H98.361ZM105.609 254.174C105.249 254.174 104.945 254.118 104.697 254.006C104.449 253.894 104.261 253.726 104.133 253.502C104.005 253.27 103.941 252.982 103.941 252.638V247.478H105.741V252.422C105.741 252.574 105.773 252.686 105.837 252.758C105.909 252.83 106.017 252.866 106.161 252.866C106.225 252.866 106.293 252.858 106.365 252.842C106.437 252.826 106.505 252.806 106.569 252.782L106.737 253.934C106.585 254.014 106.413 254.074 106.221 254.114C106.029 254.154 105.825 254.174 105.609 254.174ZM111.548 254.054V249.782C111.548 249.398 111.444 249.122 111.236 248.954C111.028 248.786 110.708 248.702 110.276 248.702C109.86 248.702 109.452 248.766 109.052 248.894C108.66 249.014 108.32 249.158 108.032 249.326V247.838C108.264 247.726 108.592 247.614 109.016 247.502C109.44 247.382 109.932 247.322 110.492 247.322C110.9 247.322 111.272 247.366 111.608 247.454C111.952 247.534 112.252 247.674 112.508 247.874C112.764 248.066 112.96 248.326 113.096 248.654C113.24 248.974 113.312 249.374 113.312 249.854V254.054H111.548ZM109.58 254.174C108.892 254.174 108.36 254.01 107.984 253.682C107.616 253.354 107.432 252.894 107.432 252.302C107.432 251.662 107.66 251.15 108.116 250.766C108.58 250.382 109.308 250.15 110.3 250.07L111.836 249.95V251.246L110.504 251.378C110.024 251.426 109.688 251.522 109.496 251.666C109.312 251.81 109.22 252.002 109.22 252.242C109.22 252.482 109.296 252.662 109.448 252.782C109.608 252.902 109.812 252.962 110.06 252.962C110.156 252.962 110.252 252.954 110.348 252.938C110.444 252.914 110.532 252.89 110.612 252.866L110.768 253.994C110.616 254.05 110.436 254.094 110.228 254.126C110.02 254.158 109.804 254.174 109.58 254.174ZM111.472 246.566V243.842H113.128V246.566H111.472ZM117.232 254.174C116.744 254.174 116.332 254.082 115.996 253.898C115.668 253.706 115.416 253.422 115.24 253.046C115.072 252.67 114.988 252.21 114.988 251.666V247.478H116.788V251.354C116.788 251.794 116.876 252.114 117.052 252.314C117.228 252.514 117.484 252.614 117.82 252.614C118.244 252.614 118.572 252.454 118.804 252.134C119.036 251.806 119.152 251.302 119.152 250.622V247.478H120.952V254.054H119.584L119.392 253.046H119.284C119.148 253.366 118.912 253.634 118.576 253.85C118.248 254.066 117.8 254.174 117.232 254.174Z" fill="white"/>
<rect x="125.874" y="243.054" width="17" height="17" rx="8.5" fill="#15DB41"/>
<path d="M134.28 247.318C133.428 247.318 132.72 247.594 132.144 248.158C131.568 248.71 131.292 249.406 131.292 250.27C131.292 251.11 131.532 251.794 132.024 252.322C132.528 252.862 133.212 253.138 134.052 253.138C134.496 253.138 134.892 253.042 135.24 252.874C135.6 252.682 135.912 252.406 136.152 252.034H136.2C136.2 252.094 136.212 252.142 136.212 252.19C136.212 253.018 136.032 253.714 135.696 254.266C135.336 254.842 134.868 255.142 134.28 255.142C133.416 255.142 132.888 254.722 132.72 253.894H131.448C131.664 255.442 132.6 256.222 134.268 256.222C135.252 256.222 136.032 255.778 136.62 254.914C137.184 254.05 137.472 252.922 137.472 251.53C137.472 250.21 137.196 249.19 136.668 248.458C136.116 247.69 135.324 247.318 134.28 247.318ZM134.328 248.398C134.832 248.398 135.252 248.566 135.576 248.902C135.888 249.226 136.056 249.67 136.056 250.234C136.056 250.786 135.9 251.242 135.588 251.578C135.276 251.914 134.844 252.082 134.316 252.082C133.776 252.082 133.356 251.914 133.056 251.578C132.732 251.254 132.576 250.822 132.576 250.27C132.576 249.718 132.732 249.274 133.056 248.926C133.368 248.566 133.8 248.398 134.328 248.398Z" fill="#484848"/>
<rect x="89.886" y="240.983" width="55.0584" height="21.1417" rx="10.3542" stroke="#55657E" stroke-width="0.591669"/>
<g filter="url(#filter6_d_507_20166)">
<rect x="260.165" y="129.983" width="58.5753" height="82.2421" rx="9.17088" fill="#161F2C" stroke="#55657E" stroke-width="0.591669" stroke-dasharray="4.73 4.73"/>
<g clip-path="url(#clip5_507_20166)">
<rect x="259.87" y="129.688" width="59.1669" height="82.8337" rx="7.10003" fill="url(#paint5_linear_507_20166)"/>
<path d="M275.164 150.643L279.561 154.125L277.452 155.955L273.122 152.473L275.164 150.643ZM279.673 144.55V145.32C279.673 146.555 279.505 147.664 279.171 148.646C278.843 149.628 278.371 150.465 277.753 151.157C277.136 151.841 276.407 152.366 275.566 152.73C274.725 153.095 273.792 153.277 272.765 153.277C271.746 153.277 270.812 153.095 269.964 152.73C269.116 152.366 268.383 151.841 267.766 151.157C267.148 150.465 266.668 149.628 266.326 148.646C265.991 147.664 265.824 146.555 265.824 145.32V144.55C265.824 143.308 265.991 142.2 266.326 141.225C266.668 140.243 267.145 139.406 267.755 138.714C268.365 138.022 269.094 137.494 269.942 137.13C270.79 136.765 271.724 136.583 272.743 136.583C273.769 136.583 274.703 136.765 275.544 137.13C276.392 137.494 277.125 138.022 277.742 138.714C278.36 139.406 278.836 140.243 279.171 141.225C279.505 142.2 279.673 143.308 279.673 144.55ZM276.291 145.32V144.528C276.291 143.665 276.21 142.906 276.046 142.252C275.89 141.597 275.659 141.046 275.354 140.6C275.056 140.154 274.688 139.819 274.249 139.596C273.81 139.365 273.308 139.25 272.743 139.25C272.177 139.25 271.675 139.365 271.236 139.596C270.797 139.819 270.429 140.154 270.132 140.6C269.834 141.046 269.607 141.597 269.451 142.252C269.295 142.906 269.217 143.665 269.217 144.528V145.32C269.217 146.176 269.295 146.935 269.451 147.597C269.607 148.252 269.834 148.806 270.132 149.26C270.437 149.706 270.809 150.044 271.247 150.275C271.694 150.506 272.2 150.621 272.765 150.621C273.331 150.621 273.829 150.506 274.26 150.275C274.699 150.044 275.068 149.706 275.365 149.26C275.67 148.806 275.901 148.252 276.057 147.597C276.213 146.935 276.291 146.176 276.291 145.32Z" fill="#242424"/>
<path fill-rule="evenodd" clip-rule="evenodd" d="M275.833 170.523C278.359 170.551 279.913 168.933 279.059 167.23C278.204 165.526 277.352 165.143 276.01 163.908C274.667 162.673 272.715 160.537 272.725 160.033C272.734 160.537 270.863 162.673 269.52 163.908C268.178 165.143 267.327 165.526 266.472 167.23C265.617 168.933 267.171 170.551 269.697 170.523C271.431 170.503 272.211 169.507 272.529 168.885L272.529 169.7C272.529 169.7 271.976 172.639 268.069 172.961L267.446 172.961L267.446 173.419L278.085 173.419L278.085 172.961L277.461 172.961C273.555 172.639 273.001 169.7 273.001 169.7L273.001 168.992C273.376 169.615 274.196 170.504 275.833 170.523Z" fill="#242424"/>
<path fill-rule="evenodd" clip-rule="evenodd" d="M307.959 201.963C313.452 202.025 316.832 198.506 314.973 194.802C313.114 191.097 311.261 190.264 308.343 187.578C305.423 184.893 301.178 180.247 301.198 179.151C301.22 180.247 297.149 184.893 294.23 187.578C291.312 190.264 289.46 191.097 287.6 194.802C285.741 198.506 289.122 202.025 294.614 201.963C298.385 201.921 300.082 199.755 300.774 198.401L300.774 200.173C300.774 200.173 299.57 206.566 291.074 207.265L289.72 207.265L289.72 208.262L312.855 208.262L312.855 207.265L311.499 207.265C303.004 206.566 301.799 200.173 301.799 200.173L301.799 198.633C302.614 199.989 304.397 201.923 307.959 201.963Z" fill="#242424"/>
</g>
<rect x="260.461" y="130.279" width="57.9836" height="81.6504" rx="6.50836" stroke="#15DB41" stroke-width="1.18334"/>
</g>
<g filter="url(#filter7_d_507_20166)">
<rect x="284.165" y="141.983" width="58.5753" height="82.2421" rx="9.17088" fill="#161F2C" stroke="#55657E" stroke-width="0.591669" stroke-dasharray="4.73 4.73"/>
<g clip-path="url(#clip6_507_20166)">
<rect x="283.87" y="141.688" width="59.1669" height="82.8337" rx="7.10003" fill="url(#paint6_linear_507_20166)"/>
<path d="M294.299 148.806V165.054H290.951V148.806H294.299ZM304.03 148.806L297.591 156.829L293.875 160.824L293.272 157.655L295.783 154.218L299.923 148.806H304.03ZM300.224 165.054L295.437 157.544L297.915 155.468L304.186 165.054H300.224Z" fill="#EE3D3D"/>
<path fill-rule="evenodd" clip-rule="evenodd" d="M299.987 172.36C297.335 172.397 296.808 175.143 296.808 175.143C296.808 175.143 296.196 172.397 293.544 172.36C290.891 172.323 289.259 174.438 290.157 176.665C291.055 178.891 291.949 179.392 293.358 181.006C294.768 182.621 296.818 185.413 296.808 186.072C296.797 185.413 298.763 182.621 300.172 181.006C301.581 179.392 302.476 178.891 303.373 176.665C304.271 174.438 302.639 172.323 299.987 172.36Z" fill="#EE3D3D"/>
<path fill-rule="evenodd" clip-rule="evenodd" d="M332.293 191.861C326.526 191.942 325.379 197.914 325.379 197.914C325.379 197.914 324.048 191.942 318.281 191.861C312.513 191.781 308.964 196.381 310.916 201.223C312.868 206.065 314.813 207.154 317.878 210.665C320.943 214.175 325.401 220.248 325.379 221.68C325.357 220.248 329.631 214.175 332.696 210.665C335.76 207.154 337.705 206.065 339.657 201.223C341.609 196.381 338.06 191.781 332.293 191.861Z" fill="#EE3D3D"/>
</g>
<rect x="284.461" y="142.279" width="57.9836" height="81.6504" rx="6.50836" stroke="#15DB41" stroke-width="1.18334"/>
</g>
<g filter="url(#filter8_d_507_20166)">
<rect x="307.165" y="151.983" width="58.5753" height="82.2421" rx="9.17088" fill="#161F2C" stroke="#55657E" stroke-width="0.591669" stroke-dasharray="4.73 4.73"/>
<g clip-path="url(#clip7_507_20166)">
<rect x="306.87" y="151.688" width="59.1669" height="82.8337" rx="7.10003" fill="url(#paint7_linear_507_20166)"/>
<path d="M316.596 172.61H316.808C317.701 172.61 318.467 172.502 319.107 172.286C319.754 172.063 320.286 171.743 320.703 171.327C321.119 170.91 321.428 170.4 321.629 169.798C321.83 169.188 321.93 168.496 321.93 167.722V164.642C321.93 164.054 321.871 163.537 321.751 163.091C321.64 162.645 321.476 162.276 321.26 161.986C321.052 161.689 320.807 161.466 320.524 161.317C320.249 161.168 319.944 161.094 319.609 161.094C319.252 161.094 318.936 161.183 318.66 161.361C318.385 161.532 318.151 161.767 317.957 162.064C317.771 162.362 317.626 162.704 317.522 163.091C317.425 163.47 317.377 163.868 317.377 164.285C317.377 164.702 317.425 165.1 317.522 165.479C317.619 165.851 317.764 166.182 317.957 166.472C318.151 166.755 318.393 166.982 318.683 167.153C318.973 167.317 319.315 167.398 319.709 167.398C320.089 167.398 320.427 167.328 320.725 167.186C321.03 167.038 321.287 166.844 321.495 166.606C321.711 166.368 321.874 166.104 321.986 165.814C322.105 165.524 322.164 165.23 322.164 164.932L323.224 165.513C323.224 166.033 323.113 166.547 322.89 167.053C322.667 167.558 322.354 168.02 321.952 168.436C321.558 168.845 321.101 169.173 320.58 169.418C320.059 169.664 319.501 169.787 318.906 169.787C318.147 169.787 317.474 169.649 316.886 169.374C316.298 169.091 315.8 168.704 315.391 168.213C314.989 167.715 314.684 167.134 314.476 166.472C314.267 165.81 314.163 165.092 314.163 164.319C314.163 163.53 314.29 162.79 314.543 162.098C314.803 161.406 315.171 160.796 315.647 160.268C316.131 159.74 316.708 159.327 317.377 159.029C318.054 158.724 318.805 158.572 319.631 158.572C320.457 158.572 321.208 158.732 321.885 159.051C322.562 159.371 323.143 159.825 323.626 160.413C324.11 160.993 324.482 161.689 324.742 162.5C325.01 163.311 325.144 164.211 325.144 165.2V166.316C325.144 167.372 325.029 168.354 324.798 169.262C324.575 170.17 324.236 170.992 323.782 171.728C323.336 172.457 322.778 173.082 322.109 173.603C321.446 174.124 320.676 174.522 319.799 174.797C318.921 175.072 317.939 175.21 316.853 175.21H316.596V172.61Z" fill="#EE3D3D"/>
<rect x="319.765" y="182.111" width="10.0469" height="10.0469" transform="rotate(45 319.765 182.111)" fill="#EE3D3D"/>
<rect x="348.286" y="201.321" width="21.8489" height="21.8489" transform="rotate(45 348.286 201.321)" fill="#EE3D3D"/>
</g>
<rect x="307.461" y="152.279" width="57.9836" height="81.6504" rx="6.50836" stroke="#15DB41" stroke-width="1.18334"/>
</g>
<rect x="276.341" y="240.983" width="73.0584" height="21.1417" rx="10.3542" fill="#161F2C"/>
<path d="M281.815 254.054V248.942C281.815 248.534 281.883 248.214 282.019 247.982C282.163 247.75 282.359 247.59 282.607 247.502C282.855 247.406 283.139 247.358 283.459 247.358C283.683 247.358 283.883 247.382 284.059 247.43C284.235 247.47 284.379 247.518 284.491 247.574L284.251 248.75C284.187 248.734 284.123 248.722 284.059 248.714C283.995 248.706 283.943 248.702 283.903 248.702C283.751 248.702 283.643 248.742 283.579 248.822C283.523 248.902 283.495 249.018 283.495 249.17V250.286C283.495 250.486 283.487 250.726 283.471 251.006C283.455 251.278 283.427 251.622 283.387 252.038H283.447C283.607 251.662 283.747 251.362 283.867 251.138C283.995 250.906 284.107 250.702 284.203 250.526L284.647 249.722H285.319L285.763 250.526C285.875 250.718 285.971 250.894 286.051 251.054C286.131 251.206 286.207 251.358 286.279 251.51C286.351 251.662 286.431 251.838 286.519 252.038H286.579C286.539 251.622 286.511 251.278 286.495 251.006C286.479 250.726 286.471 250.486 286.471 250.286V247.478H288.151V254.054H286.435L285.007 251.438H284.959L283.531 254.054H281.815ZM286.31 257.234C285.67 257.234 285.202 257.138 284.906 256.946C284.61 256.754 284.462 256.502 284.462 256.19V255.986C284.462 255.85 284.426 255.766 284.354 255.734C284.282 255.71 284.186 255.714 284.066 255.746L283.982 254.942C284.094 254.894 284.238 254.862 284.414 254.846C284.59 254.83 284.734 254.822 284.846 254.822C285.198 254.822 285.454 254.886 285.614 255.014C285.766 255.142 285.842 255.322 285.842 255.554V255.83C285.842 255.966 285.874 256.07 285.938 256.142C285.994 256.222 286.102 256.262 286.262 256.262C286.43 256.262 286.546 256.222 286.61 256.142C286.674 256.07 286.706 255.966 286.706 255.83V254.858H288.17V256.022C288.17 256.414 288.022 256.714 287.726 256.922C287.43 257.13 286.958 257.234 286.31 257.234ZM284.534 246.578V245.978C284.646 245.946 284.77 245.902 284.906 245.846C285.042 245.79 285.162 245.714 285.266 245.618C285.37 245.522 285.422 245.402 285.422 245.258C285.422 245.146 285.39 245.058 285.326 244.994C285.262 244.93 285.182 244.898 285.086 244.898C285.022 244.898 284.954 244.91 284.882 244.934C284.81 244.958 284.746 244.982 284.69 245.006L284.462 244.202C284.622 244.066 284.822 243.978 285.062 243.938C285.294 243.89 285.49 243.866 285.65 243.866C286.01 243.866 286.294 243.95 286.502 244.118C286.702 244.286 286.802 244.534 286.802 244.862C286.802 245.038 286.758 245.202 286.67 245.354C286.574 245.506 286.43 245.63 286.238 245.726L286.19 245.414H288.458V246.578H284.534ZM291.782 254.174C291.422 254.174 291.118 254.118 290.87 254.006C290.622 253.894 290.434 253.726 290.306 253.502C290.178 253.27 290.114 252.982 290.114 252.638V247.478H291.914V252.422C291.914 252.574 291.946 252.686 292.01 252.758C292.082 252.83 292.19 252.866 292.334 252.866C292.398 252.866 292.466 252.858 292.538 252.842C292.61 252.826 292.678 252.806 292.742 252.782L292.91 253.934C292.758 254.014 292.586 254.074 292.394 254.114C292.202 254.154 291.998 254.174 291.782 254.174ZM293.964 254.054V252.05C293.964 251.546 294.064 251.158 294.264 250.886C294.464 250.614 294.748 250.422 295.116 250.31L295.128 250.262L293.844 249.794V249.482C293.844 249.09 293.96 248.73 294.192 248.402C294.424 248.074 294.764 247.814 295.212 247.622C295.668 247.422 296.22 247.322 296.868 247.322C297.476 247.322 298 247.418 298.44 247.61C298.88 247.794 299.22 248.074 299.46 248.45C299.708 248.818 299.832 249.286 299.832 249.854V254.054H298.032V249.962C298.032 249.562 297.924 249.262 297.708 249.062C297.5 248.862 297.204 248.762 296.82 248.762C296.452 248.762 296.176 248.842 295.992 249.002C295.808 249.154 295.708 249.342 295.692 249.566L296.76 250.058L296.628 250.838C296.34 250.854 296.124 250.958 295.98 251.15C295.836 251.342 295.764 251.602 295.764 251.93V254.054H293.964ZM298.179 246.674C297.931 246.674 297.723 246.63 297.555 246.542C297.379 246.446 297.243 246.31 297.147 246.134L296.547 246.638C296.043 246.638 295.639 246.518 295.335 246.278C295.031 246.03 294.879 245.674 294.879 245.21C294.879 244.882 294.951 244.614 295.095 244.406C295.231 244.19 295.411 244.03 295.635 243.926C295.859 243.822 296.099 243.77 296.355 243.77H299.379V244.646H296.667C296.515 244.646 296.387 244.694 296.283 244.79C296.179 244.886 296.127 245.034 296.127 245.234C296.127 245.386 296.163 245.51 296.235 245.606C296.299 245.694 296.395 245.738 296.523 245.738L297.075 245.222H297.315C297.339 245.374 297.391 245.506 297.471 245.618C297.551 245.722 297.663 245.774 297.807 245.774C297.927 245.774 298.019 245.738 298.083 245.666C298.147 245.586 298.179 245.482 298.179 245.354V245.174H299.391V245.414C299.391 245.846 299.283 246.166 299.067 246.374C298.843 246.574 298.547 246.674 298.179 246.674ZM304.477 254.21C303.437 254.21 302.681 253.97 302.209 253.49C301.745 253.002 301.513 252.298 301.513 251.378V247.478H303.313V251.474C303.313 251.898 303.405 252.222 303.589 252.446C303.781 252.662 304.077 252.77 304.477 252.77C304.877 252.77 305.169 252.662 305.353 252.446C305.545 252.222 305.641 251.898 305.641 251.474V247.478H307.441V251.378C307.441 252.298 307.205 253.002 306.733 253.49C306.269 253.97 305.517 254.21 304.477 254.21ZM310.966 254.174C310.606 254.174 310.302 254.118 310.054 254.006C309.806 253.894 309.618 253.726 309.49 253.502C309.362 253.27 309.298 252.982 309.298 252.638V247.478H311.098V252.422C311.098 252.574 311.13 252.686 311.194 252.758C311.266 252.83 311.374 252.866 311.518 252.866C311.582 252.866 311.65 252.858 311.722 252.842C311.794 252.826 311.862 252.806 311.926 252.782L312.094 253.934C311.942 254.014 311.77 254.074 311.578 254.114C311.386 254.154 311.182 254.174 310.966 254.174ZM313.996 254.054L312.088 247.478H313.9L315.352 252.602H315.424C315.552 252.602 315.672 252.566 315.784 252.494C315.896 252.422 315.992 252.326 316.072 252.206C316.232 251.982 316.352 251.718 316.432 251.414C316.512 251.102 316.552 250.794 316.552 250.49C316.552 249.954 316.448 249.542 316.24 249.254C316.04 248.966 315.76 248.822 315.4 248.822C315.328 248.822 315.26 248.826 315.196 248.834C315.14 248.842 315.088 248.858 315.04 248.882L314.704 247.502C314.888 247.446 315.06 247.414 315.22 247.406C315.388 247.39 315.524 247.382 315.628 247.382C316.052 247.382 316.42 247.438 316.732 247.55C317.044 247.662 317.312 247.83 317.536 248.054C317.816 248.326 318.024 248.666 318.16 249.074C318.304 249.482 318.376 249.942 318.376 250.454C318.376 251.102 318.272 251.67 318.064 252.158C317.864 252.638 317.62 253.018 317.332 253.298C317.092 253.53 316.788 253.714 316.42 253.85C316.06 253.986 315.564 254.054 314.932 254.054H313.996ZM312.275 246.566V245.81L313.487 245.306H317.771V246.566H312.275ZM321.968 254.174C321.48 254.174 321.068 254.082 320.732 253.898C320.404 253.706 320.152 253.422 319.976 253.046C319.808 252.67 319.724 252.21 319.724 251.666V247.478H321.524V251.354C321.524 251.794 321.612 252.114 321.788 252.314C321.964 252.514 322.22 252.614 322.556 252.614C322.98 252.614 323.308 252.454 323.54 252.134C323.772 251.806 323.888 251.302 323.888 250.622V247.478H325.688V254.054H324.32L324.128 253.046H324.02C323.884 253.366 323.648 253.634 323.312 253.85C322.984 254.066 322.536 254.174 321.968 254.174Z" fill="white"/>
<rect x="330.328" y="243.054" width="17" height="17" rx="8.5" fill="#15DB41"/>
<path d="M338.734 247.318C337.882 247.318 337.174 247.594 336.598 248.158C336.022 248.71 335.746 249.406 335.746 250.27C335.746 251.11 335.986 251.794 336.478 252.322C336.982 252.862 337.666 253.138 338.506 253.138C338.95 253.138 339.346 253.042 339.694 252.874C340.054 252.682 340.366 252.406 340.606 252.034H340.654C340.654 252.094 340.666 252.142 340.666 252.19C340.666 253.018 340.486 253.714 340.15 254.266C339.79 254.842 339.322 255.142 338.734 255.142C337.87 255.142 337.342 254.722 337.174 253.894H335.902C336.118 255.442 337.054 256.222 338.722 256.222C339.706 256.222 340.486 255.778 341.074 254.914C341.638 254.05 341.926 252.922 341.926 251.53C341.926 250.21 341.65 249.19 341.122 248.458C340.57 247.69 339.778 247.318 338.734 247.318ZM338.782 248.398C339.286 248.398 339.706 248.566 340.03 248.902C340.342 249.226 340.51 249.67 340.51 250.234C340.51 250.786 340.354 251.242 340.042 251.578C339.73 251.914 339.298 252.082 338.77 252.082C338.23 252.082 337.81 251.914 337.51 251.578C337.186 251.254 337.03 250.822 337.03 250.27C337.03 249.718 337.186 249.274 337.51 248.926C337.822 248.566 338.254 248.398 338.782 248.398Z" fill="#484848"/>
<rect x="276.341" y="240.983" width="73.0584" height="21.1417" rx="10.3542" stroke="#55657E" stroke-width="0.591669"/>
<defs>
<filter id="filter0_di_507_20166" x="107.981" y="21.2977" width="214.322" height="112.881" filterUnits="userSpaceOnUse" color-interpolation-filters="sRGB">
<feFlood flood-opacity="0" result="BackgroundImageFix"/>
<feColorMatrix in="SourceAlpha" type="matrix" values="0 0 0 0 0 0 0 0 0 0 0 0 0 0 0 0 0 0 127 0" result="hardAlpha"/>
<feOffset dy="3.05085"/>
<feGaussianBlur stdDeviation="5.72034"/>
<feComposite in2="hardAlpha" operator="out"/>
<feColorMatrix type="matrix" values="0 0 0 0 0 0 0 0 0 0 0 0 0 0 0 0 0 0 0.25 0"/>
<feBlend mode="normal" in2="BackgroundImageFix" result="effect1_dropShadow_507_20166"/>
<feBlend mode="normal" in="SourceGraphic" in2="effect1_dropShadow_507_20166" result="shape"/>
<feColorMatrix in="SourceAlpha" type="matrix" values="0 0 0 0 0 0 0 0 0 0 0 0 0 0 0 0 0 0 127 0" result="hardAlpha"/>
<feOffset/>
<feGaussianBlur stdDeviation="7.62712"/>
<feComposite in2="hardAlpha" operator="arithmetic" k2="-1" k3="1"/>
<feColorMatrix type="matrix" values="0 0 0 0 1 0 0 0 0 0.841416 0 0 0 0 0.279167 0 0 0 1 0"/>
<feBlend mode="normal" in2="shape" result="effect2_innerShadow_507_20166"/>
</filter>
<filter id="filter1_d_507_20166" x="169.445" y="42.4844" width="92.1338" height="27.711" filterUnits="userSpaceOnUse" color-interpolation-filters="sRGB">
<feFlood flood-opacity="0" result="BackgroundImageFix"/>
<feColorMatrix in="SourceAlpha" type="matrix" values="0 0 0 0 0 0 0 0 0 0 0 0 0 0 0 0 0 0 127 0" result="hardAlpha"/>
<feOffset dy="3.05085"/>
<feComposite in2="hardAlpha" operator="out"/>
<feColorMatrix type="matrix" values="0 0 0 0 0 0 0 0 0 0 0 0 0 0 0 0 0 0 0.25 0"/>
<feBlend mode="normal" in2="BackgroundImageFix" result="effect1_dropShadow_507_20166"/>
<feBlend mode="normal" in="SourceGraphic" in2="effect1_dropShadow_507_20166" result="shape"/>
</filter>
<filter id="filter2_d_507_20166" x="189.169" y="72.209" width="53.3333" height="16.6007" filterUnits="userSpaceOnUse" color-interpolation-filters="sRGB">
<feFlood flood-opacity="0" result="BackgroundImageFix"/>
<feColorMatrix in="SourceAlpha" type="matrix" values="0 0 0 0 0 0 0 0 0 0 0 0 0 0 0 0 0 0 127 0" result="hardAlpha"/>
<feOffset dy="3.05085"/>
<feComposite in2="hardAlpha" operator="out"/>
<feColorMatrix type="matrix" values="0 0 0 0 0 0 0 0 0 0 0 0 0 0 0 0 0 0 0.25 0"/>
<feBlend mode="normal" in2="BackgroundImageFix" result="effect1_dropShadow_507_20166"/>
<feBlend mode="normal" in="SourceGraphic" in2="effect1_dropShadow_507_20166" result="shape"/>
</filter>
<filter id="filter3_d_507_20166" x="59.518" y="126.096" width="68.9616" height="92.6286" filterUnits="userSpaceOnUse" color-interpolation-filters="sRGB">
<feFlood flood-opacity="0" result="BackgroundImageFix"/>
<feColorMatrix in="SourceAlpha" type="matrix" values="0 0 0 0 0 0 0 0 0 0 0 0 0 0 0 0 0 0 127 0" result="hardAlpha"/>
<feOffset dy="1.30595"/>
<feGaussianBlur stdDeviation="2.44865"/>
<feComposite in2="hardAlpha" operator="out"/>
<feColorMatrix type="matrix" values="0 0 0 0 0 0 0 0 0 0 0 0 0 0 0 0 0 0 0.25 0"/>
<feBlend mode="normal" in2="BackgroundImageFix" result="effect1_dropShadow_507_20166"/>
<feBlend mode="normal" in="SourceGraphic" in2="effect1_dropShadow_507_20166" result="shape"/>
</filter>
<filter id="filter4_d_507_20166" x="83.5181" y="138.096" width="68.9616" height="92.6286" filterUnits="userSpaceOnUse" color-interpolation-filters="sRGB">
<feFlood flood-opacity="0" result="BackgroundImageFix"/>
<feColorMatrix in="SourceAlpha" type="matrix" values="0 0 0 0 0 0 0 0 0 0 0 0 0 0 0 0 0 0 127 0" result="hardAlpha"/>
<feOffset dy="1.30595"/>
<feGaussianBlur stdDeviation="2.44865"/>
<feComposite in2="hardAlpha" operator="out"/>
<feColorMatrix type="matrix" values="0 0 0 0 0 0 0 0 0 0 0 0 0 0 0 0 0 0 0.25 0"/>
<feBlend mode="normal" in2="BackgroundImageFix" result="effect1_dropShadow_507_20166"/>
<feBlend mode="normal" in="SourceGraphic" in2="effect1_dropShadow_507_20166" result="shape"/>
</filter>
<filter id="filter5_d_507_20166" x="106.518" y="148.096" width="68.9616" height="92.6286" filterUnits="userSpaceOnUse" color-interpolation-filters="sRGB">
<feFlood flood-opacity="0" result="BackgroundImageFix"/>
<feColorMatrix in="SourceAlpha" type="matrix" values="0 0 0 0 0 0 0 0 0 0 0 0 0 0 0 0 0 0 127 0" result="hardAlpha"/>
<feOffset dy="1.30595"/>
<feGaussianBlur stdDeviation="2.44865"/>
<feComposite in2="hardAlpha" operator="out"/>
<feColorMatrix type="matrix" values="0 0 0 0 0 0 0 0 0 0 0 0 0 0 0 0 0 0 0.25 0"/>
<feBlend mode="normal" in2="BackgroundImageFix" result="effect1_dropShadow_507_20166"/>
<feBlend mode="normal" in="SourceGraphic" in2="effect1_dropShadow_507_20166" result="shape"/>
</filter>
<filter id="filter6_d_507_20166" x="254.972" y="126.096" width="68.9616" height="92.6286" filterUnits="userSpaceOnUse" color-interpolation-filters="sRGB">
<feFlood flood-opacity="0" result="BackgroundImageFix"/>
<feColorMatrix in="SourceAlpha" type="matrix" values="0 0 0 0 0 0 0 0 0 0 0 0 0 0 0 0 0 0 127 0" result="hardAlpha"/>
<feOffset dy="1.30595"/>
<feGaussianBlur stdDeviation="2.44865"/>
<feComposite in2="hardAlpha" operator="out"/>
<feColorMatrix type="matrix" values="0 0 0 0 0 0 0 0 0 0 0 0 0 0 0 0 0 0 0.25 0"/>
<feBlend mode="normal" in2="BackgroundImageFix" result="effect1_dropShadow_507_20166"/>
<feBlend mode="normal" in="SourceGraphic" in2="effect1_dropShadow_507_20166" result="shape"/>
</filter>
<filter id="filter7_d_507_20166" x="278.972" y="138.096" width="68.9616" height="92.6286" filterUnits="userSpaceOnUse" color-interpolation-filters="sRGB">
<feFlood flood-opacity="0" result="BackgroundImageFix"/>
<feColorMatrix in="SourceAlpha" type="matrix" values="0 0 0 0 0 0 0 0 0 0 0 0 0 0 0 0 0 0 127 0" result="hardAlpha"/>
<feOffset dy="1.30595"/>
<feGaussianBlur stdDeviation="2.44865"/>
<feComposite in2="hardAlpha" operator="out"/>
<feColorMatrix type="matrix" values="0 0 0 0 0 0 0 0 0 0 0 0 0 0 0 0 0 0 0.25 0"/>
<feBlend mode="normal" in2="BackgroundImageFix" result="effect1_dropShadow_507_20166"/>
<feBlend mode="normal" in="SourceGraphic" in2="effect1_dropShadow_507_20166" result="shape"/>
</filter>
<filter id="filter8_d_507_20166" x="301.972" y="148.096" width="68.9616" height="92.6286" filterUnits="userSpaceOnUse" color-interpolation-filters="sRGB">
<feFlood flood-opacity="0" result="BackgroundImageFix"/>
<feColorMatrix in="SourceAlpha" type="matrix" values="0 0 0 0 0 0 0 0 0 0 0 0 0 0 0 0 0 0 127 0" result="hardAlpha"/>
<feOffset dy="1.30595"/>
<feGaussianBlur stdDeviation="2.44865"/>
<feComposite in2="hardAlpha" operator="out"/>
<feColorMatrix type="matrix" values="0 0 0 0 0 0 0 0 0 0 0 0 0 0 0 0 0 0 0.25 0"/>
<feBlend mode="normal" in2="BackgroundImageFix" result="effect1_dropShadow_507_20166"/>
<feBlend mode="normal" in="SourceGraphic" in2="effect1_dropShadow_507_20166" result="shape"/>
</filter>
<radialGradient id="paint0_radial_507_20166" cx="0" cy="0" r="1" gradientUnits="userSpaceOnUse" gradientTransform="translate(215.524 100.62) rotate(90) scale(95.339)">
<stop stop-color="#E78831" stop-opacity="0.2"/>
<stop offset="1" stop-color="#E78831" stop-opacity="0"/>
</radialGradient>
<linearGradient id="paint1_linear_507_20166" x1="215.142" y1="37.3145" x2="215.142" y2="60.9585" gradientUnits="userSpaceOnUse">
<stop offset="0.401042" stop-color="#FFDF8D"/>
<stop offset="0.666667" stop-color="#EFAC00"/>
</linearGradient>
<linearGradient id="paint2_linear_507_20166" x1="93.9988" y1="129.688" x2="93.9988" y2="212.521" gradientUnits="userSpaceOnUse">
<stop stop-color="#F9F9F9"/>
<stop offset="1" stop-color="#ECECEC"/>
</linearGradient>
<linearGradient id="paint3_linear_507_20166" x1="117.999" y1="141.688" x2="117.999" y2="224.521" gradientUnits="userSpaceOnUse">
<stop stop-color="#F9F9F9"/>
<stop offset="1" stop-color="#ECECEC"/>
</linearGradient>
<linearGradient id="paint4_linear_507_20166" x1="140.999" y1="151.688" x2="140.999" y2="234.521" gradientUnits="userSpaceOnUse">
<stop stop-color="#F9F9F9"/>
<stop offset="1" stop-color="#ECECEC"/>
</linearGradient>
<linearGradient id="paint5_linear_507_20166" x1="289.453" y1="129.688" x2="289.453" y2="212.521" gradientUnits="userSpaceOnUse">
<stop stop-color="#F9F9F9"/>
<stop offset="1" stop-color="#ECECEC"/>
</linearGradient>
<linearGradient id="paint6_linear_507_20166" x1="313.453" y1="141.688" x2="313.453" y2="224.521" gradientUnits="userSpaceOnUse">
<stop stop-color="#F9F9F9"/>
<stop offset="1" stop-color="#ECECEC"/>
</linearGradient>
<linearGradient id="paint7_linear_507_20166" x1="336.453" y1="151.688" x2="336.453" y2="234.521" gradientUnits="userSpaceOnUse">
<stop stop-color="#F9F9F9"/>
<stop offset="1" stop-color="#ECECEC"/>
</linearGradient>
<clipPath id="clip0_507_20166">
<rect x="119.422" y="29.6875" width="191.441" height="90" rx="22.8814" fill="white"/>
</clipPath>
<clipPath id="clip1_507_20166">
<rect width="13.7288" height="13.7288" fill="white" transform="translate(170.142 97.1787)"/>
</clipPath>
<clipPath id="clip2_507_20166">
<rect x="64.4153" y="129.688" width="59.1669" height="82.8337" rx="7.10003" fill="white"/>
</clipPath>
<clipPath id="clip3_507_20166">
<rect x="88.4154" y="141.688" width="59.1669" height="82.8337" rx="7.10003" fill="white"/>
</clipPath>
<clipPath id="clip4_507_20166">
<rect x="111.415" y="151.688" width="59.1669" height="82.8337" rx="7.10003" fill="white"/>
</clipPath>
<clipPath id="clip5_507_20166">
<rect x="259.87" y="129.688" width="59.1669" height="82.8337" rx="7.10003" fill="white"/>
</clipPath>
<clipPath id="clip6_507_20166">
<rect x="283.87" y="141.688" width="59.1669" height="82.8337" rx="7.10003" fill="white"/>
</clipPath>
<clipPath id="clip7_507_20166">
<rect x="306.87" y="151.688" width="59.1669" height="82.8337" rx="7.10003" fill="white"/>
</clipPath>
</defs>
</svg>
