<svg width="431" height="293" viewBox="0 0 431 293" fill="none" xmlns="http://www.w3.org/2000/svg">
<rect width="430.285" height="292.109" rx="10" fill="#F4F7FD"/>
<rect x="10" y="20" width="410.285" height="252.109" rx="3.87518" fill="white"/>
<g filter="url(#filter0_di_627_19626)">
<g clip-path="url(#clip0_627_19626)">
<rect x="119.422" y="29.6875" width="191.441" height="90" rx="22.8814" fill="#171717"/>
<path fill-rule="evenodd" clip-rule="evenodd" d="M215.523 100.619L215.524 100.62L120.185 76.7855L120.185 124.455L215.524 100.62L215.523 100.622L215.522 100.621L215.523 100.622L131.256 151.182L164.963 184.89L215.522 100.625L191.689 195.959H239.358L215.525 100.625L266.084 184.89L299.791 151.182L215.524 100.622L215.525 100.621L215.524 100.622L215.524 100.62L310.863 124.455V76.7855L215.524 100.62L215.524 100.619L215.525 100.619L215.524 100.618L215.524 100.618L299.791 50.058L266.084 16.3506L215.525 100.615L239.358 5.28125L191.689 5.28125L215.522 100.616L164.963 16.3506L131.256 50.058L215.523 100.618L215.522 100.619L215.523 100.619Z" fill="url(#paint0_radial_627_19626)"/>
<g filter="url(#filter1_d_627_19626)">
<path d="M169.444 59.3145V49.5645C169.444 47.2645 170.054 45.5145 171.274 44.3145C172.494 43.0945 174.424 42.4845 177.064 42.4845C179.724 42.4845 181.644 43.0945 182.824 44.3145C184.024 45.5145 184.624 47.2645 184.624 49.5645V59.3145H180.154V49.5045C180.154 48.4445 179.904 47.6145 179.404 47.0145C178.924 46.3945 178.124 46.0845 177.004 46.0845C175.904 46.0845 175.104 46.3945 174.604 47.0145C174.124 47.6145 173.884 48.4445 173.884 49.5045V52.1145L173.974 52.1445C174.354 51.3645 174.804 50.8545 175.324 50.6145C175.864 50.3545 176.594 50.2245 177.514 50.2245H178.204V53.5845H177.514C176.514 53.5845 175.754 53.7545 175.234 54.0945C174.714 54.4345 174.354 54.8845 174.154 55.4445C173.974 55.9845 173.884 56.5945 173.884 57.2745V59.3145H169.444ZM180.792 67.1445V64.4745C180.792 63.9745 180.572 63.7245 180.132 63.7245C180.032 63.7245 179.932 63.7345 179.832 63.7545C179.732 63.7745 179.632 63.8045 179.532 63.8445L179.322 61.6845C179.602 61.5845 179.992 61.4845 180.492 61.3845C180.972 61.2845 181.462 61.2345 181.962 61.2345C182.942 61.2345 183.632 61.4245 184.032 61.8045C184.432 62.2045 184.632 62.7445 184.632 63.4245V67.1445H180.792ZM192.919 59.6145C192.059 59.6145 191.309 59.4745 190.669 59.1945C190.049 58.9145 189.559 58.4945 189.199 57.9345C188.859 57.3545 188.689 56.6345 188.689 55.7745V53.8245C188.689 52.6445 188.949 51.7745 189.469 51.2145C189.989 50.6545 190.709 50.2345 191.629 49.9545L191.659 49.8345L188.389 48.6645V47.8845C188.389 46.8645 188.669 45.9545 189.229 45.1545C189.809 44.3345 190.649 43.6845 191.749 43.2045C192.849 42.7245 194.189 42.4845 195.769 42.4845C197.249 42.4845 198.519 42.7145 199.579 43.1745C200.659 43.6145 201.489 44.2845 202.069 45.1845C202.649 46.0645 202.939 47.1745 202.939 48.5145V53.0145C202.939 53.9745 203.149 54.6645 203.569 55.0845C203.989 55.5045 204.509 55.7145 205.129 55.7145C205.709 55.7145 206.209 55.5545 206.629 55.2345C207.049 54.8945 207.379 54.4345 207.619 53.8545C207.859 53.2545 207.979 52.5545 207.979 51.7545V42.8745H212.479V59.3145H208.999L208.489 56.7345H208.249C207.889 57.5745 207.299 58.2645 206.479 58.8045C205.679 59.3445 204.679 59.6145 203.479 59.6145C201.839 59.6145 200.599 59.1845 199.759 58.3245C198.939 57.4445 198.529 56.0645 198.529 54.1845V48.8445C198.529 48.1445 198.399 47.5945 198.139 47.1945C197.899 46.7745 197.569 46.4745 197.149 46.2945C196.729 46.1145 196.249 46.0245 195.709 46.0245C194.949 46.0245 194.319 46.1945 193.819 46.5345C193.319 46.8545 193.049 47.3445 193.009 48.0045L195.619 49.2645L195.319 51.2145C194.579 51.2345 194.019 51.4145 193.639 51.7545C193.259 52.0745 193.069 52.6445 193.069 53.4645V55.2945C193.069 55.7345 193.159 56.0545 193.339 56.2545C193.539 56.4345 193.849 56.5245 194.269 56.5245C194.449 56.5245 194.629 56.5145 194.809 56.4945C195.009 56.4545 195.179 56.4045 195.319 56.3445L195.739 59.0145C195.359 59.2145 194.929 59.3645 194.449 59.4645C193.969 59.5645 193.459 59.6145 192.919 59.6145ZM223.924 59.7045C221.644 59.7045 219.914 59.2045 218.734 58.2045C217.574 57.1845 216.994 55.7245 216.994 53.8245V52.6545C216.994 51.8345 217.084 51.1545 217.264 50.6145C217.464 50.0745 217.724 49.5845 218.044 49.1445C218.364 48.7045 218.624 48.3145 218.824 47.9745C219.044 47.6145 219.154 47.2445 219.154 46.8645C219.154 46.5045 219.064 46.2545 218.884 46.1145C218.724 45.9545 218.504 45.8745 218.224 45.8745C218.024 45.8745 217.814 45.9045 217.594 45.9645C217.394 46.0245 217.164 46.1145 216.904 46.2345L216.184 43.4145C216.744 43.1145 217.344 42.9145 217.984 42.8145C218.644 42.6945 219.224 42.6345 219.724 42.6345C220.604 42.6345 221.304 42.7745 221.824 43.0545C222.364 43.3345 222.754 43.7345 222.994 44.2545C223.234 44.7745 223.354 45.3945 223.354 46.1145C223.354 46.7345 223.264 47.2845 223.084 47.7645C222.904 48.2245 222.674 48.7045 222.394 49.2045C222.134 49.6645 221.904 50.0945 221.704 50.4945C221.524 50.8945 221.434 51.4745 221.434 52.2345V53.3745C221.434 54.0345 221.524 54.5745 221.704 54.9945C221.904 55.4145 222.194 55.7245 222.574 55.9245C222.954 56.1045 223.404 56.1945 223.924 56.1945C224.784 56.1945 225.394 55.9645 225.754 55.5045C226.134 55.0245 226.324 54.3845 226.324 53.5845V50.6745C226.324 50.0745 226.184 49.6045 225.904 49.2645C225.644 48.9045 225.194 48.7245 224.554 48.7245H224.404V46.3545H224.584C225.204 46.3545 225.664 46.1845 225.964 45.8445C226.264 45.5045 226.454 45.0745 226.534 44.5545C226.634 44.0145 226.684 43.4545 226.684 42.8745H231.154C231.154 44.0945 230.994 45.1045 230.674 45.9045C230.354 46.7045 229.794 47.2445 228.994 47.5245V47.6445C229.474 47.7845 229.844 48.0045 230.104 48.3045C230.364 48.5845 230.544 48.9245 230.644 49.3245C230.744 49.7245 230.794 50.1645 230.794 50.6445V53.7045C230.794 55.6845 230.214 57.1845 229.054 58.2045C227.894 59.2045 226.184 59.7045 223.924 59.7045ZM240.503 59.6145C239.283 59.6145 238.253 59.3845 237.413 58.9245C236.593 58.4445 235.963 57.7345 235.523 56.7945C235.103 55.8545 234.893 54.7045 234.893 53.3445V42.8745H239.393V52.5645C239.393 53.6645 239.613 54.4645 240.053 54.9645C240.493 55.4645 241.133 55.7145 241.973 55.7145C243.033 55.7145 243.853 55.3145 244.433 54.5145C245.013 53.6945 245.303 52.4345 245.303 50.7345V42.8745H249.803V59.3145H246.383L245.903 56.7945H245.633C245.293 57.5945 244.703 58.2645 243.863 58.8045C243.043 59.3445 241.923 59.6145 240.503 59.6145ZM257.108 49.6245C256.188 49.6245 255.458 49.4845 254.918 49.2045C254.378 48.9245 253.988 48.5545 253.748 48.0945C253.508 47.6145 253.388 47.1145 253.388 46.5945C253.388 46.2545 253.438 45.9045 253.538 45.5445C253.638 45.1645 253.788 44.7945 253.988 44.4345L257.258 44.8545C257.218 44.9945 257.178 45.1445 257.138 45.3045C257.118 45.4645 257.108 45.6345 257.108 45.8145C257.108 46.0745 257.188 46.2845 257.348 46.4445C257.508 46.5845 257.788 46.6545 258.188 46.6545H261.578V49.6245H257.108ZM257.108 58.0245C256.188 58.0245 255.458 57.8845 254.918 57.6045C254.378 57.3245 253.988 56.9545 253.748 56.4945C253.508 56.0145 253.388 55.5145 253.388 54.9945C253.388 54.6545 253.438 54.3045 253.538 53.9445C253.638 53.5645 253.788 53.1945 253.988 52.8345L257.258 53.2545C257.218 53.3945 257.178 53.5445 257.138 53.7045C257.118 53.8645 257.108 54.0345 257.108 54.2145C257.108 54.4745 257.188 54.6845 257.348 54.8445C257.508 54.9845 257.788 55.0545 258.188 55.0545H261.578V58.0245H257.108Z" fill="url(#paint1_linear_627_19626)"/>
<path d="M169.444 59.3145H168.681V60.0772H169.444V59.3145ZM171.274 44.3145L171.809 44.8582L171.813 44.8538L171.274 44.3145ZM182.824 44.3145L182.276 44.8448L182.285 44.8538L182.824 44.3145ZM184.624 59.3145V60.0772H185.387V59.3145H184.624ZM180.154 59.3145H179.391V60.0772H180.154V59.3145ZM179.404 47.0145L178.801 47.4814L178.809 47.4922L178.818 47.5027L179.404 47.0145ZM174.604 47.0145L174.01 46.5357L174.008 46.538L174.604 47.0145ZM173.884 52.1145H173.121V52.6642L173.643 52.838L173.884 52.1145ZM173.974 52.1445L173.733 52.868L174.367 53.0794L174.66 52.4785L173.974 52.1445ZM175.324 50.6145L175.644 51.3071L175.655 51.3017L175.324 50.6145ZM178.204 50.2245H178.967V49.4617H178.204V50.2245ZM178.204 53.5845V54.3472H178.967V53.5845H178.204ZM174.154 55.4445L173.436 55.1879L173.433 55.1956L173.43 55.2033L174.154 55.4445ZM173.884 59.3145V60.0772H174.647V59.3145H173.884ZM170.207 59.3145V49.5645H168.681V59.3145H170.207ZM170.207 49.5645C170.207 47.3963 170.779 45.8708 171.809 44.8582L170.739 43.7707C169.329 45.1581 168.681 47.1326 168.681 49.5645H170.207ZM171.813 44.8538C172.83 43.8371 174.521 43.2472 177.064 43.2472V41.7217C174.327 41.7217 172.158 42.3518 170.735 43.7751L171.813 44.8538ZM177.064 43.2472C179.632 43.2472 181.303 43.8392 182.276 44.8447L183.372 43.7842C181.985 42.3497 179.816 41.7217 177.064 41.7217V43.2472ZM182.285 44.8538C183.297 45.8659 183.861 47.3929 183.861 49.5645H185.387C185.387 47.136 184.751 45.1631 183.363 43.7751L182.285 44.8538ZM183.861 49.5645V59.3145H185.387V49.5645H183.861ZM184.624 58.5517H180.154V60.0772H184.624V58.5517ZM180.917 59.3145V49.5045H179.391V59.3145H180.917ZM180.917 49.5045C180.917 48.3298 180.639 47.3053 179.99 46.5262L178.818 47.5027C179.169 47.9236 179.391 48.5591 179.391 49.5045H180.917ZM180.007 46.5475C179.328 45.6705 178.254 45.3217 177.004 45.3217V46.8472C177.994 46.8472 178.52 47.1184 178.801 47.4814L180.007 46.5475ZM177.004 45.3217C175.766 45.3217 174.705 45.6745 174.01 46.5357L175.198 47.4932C175.503 47.1144 176.042 46.8472 177.004 46.8472V45.3217ZM174.008 46.538C173.386 47.3165 173.121 48.3363 173.121 49.5045H174.647C174.647 48.5526 174.862 47.9124 175.2 47.4909L174.008 46.538ZM173.121 49.5045V52.1145H174.647V49.5045H173.121ZM173.643 52.838L173.733 52.868L174.215 51.4209L174.125 51.3909L173.643 52.838ZM174.66 52.4785C175.001 51.7787 175.347 51.4437 175.644 51.307L175.004 49.9219C174.261 50.2652 173.707 50.9502 173.288 51.8104L174.66 52.4785ZM175.655 51.3017C176.051 51.1108 176.653 50.9872 177.514 50.9872V49.4617C176.535 49.4617 175.677 49.5981 174.993 49.9272L175.655 51.3017ZM177.514 50.9872H178.204V49.4617H177.514V50.9872ZM177.441 50.2245V53.5845H178.967V50.2245H177.441ZM178.204 52.8217H177.514V54.3472H178.204V52.8217ZM177.514 52.8217C176.448 52.8217 175.515 52.9993 174.817 53.4561L175.651 54.7328C175.993 54.5096 176.58 54.3472 177.514 54.3472V52.8217ZM174.817 53.4561C174.164 53.8828 173.694 54.4639 173.436 55.1879L174.872 55.701C175.014 55.305 175.264 54.9861 175.651 54.7328L174.817 53.4561ZM173.43 55.2033C173.22 55.8345 173.121 56.528 173.121 57.2745H174.647C174.647 56.6609 174.728 56.1344 174.878 55.6856L173.43 55.2033ZM173.121 57.2745V59.3145H174.647V57.2745H173.121ZM173.884 58.5517H169.444V60.0772H173.884V58.5517ZM180.792 67.1445H180.03V67.9072H180.792V67.1445ZM179.832 63.7545L179.982 64.5024L179.832 63.7545ZM179.532 63.8445L178.773 63.9183L178.871 64.9302L179.815 64.5526L179.532 63.8445ZM179.322 61.6845L179.066 60.9662L178.506 61.1662L178.563 61.7583L179.322 61.6845ZM180.492 61.3845L180.642 62.1324L180.648 62.1311L180.492 61.3845ZM184.032 61.8045L184.572 61.2651L184.565 61.2582L184.558 61.2515L184.032 61.8045ZM184.632 67.1445V67.9072H185.395V67.1445H184.632ZM181.555 67.1445V64.4745H180.03V67.1445H181.555ZM181.555 64.4745C181.555 64.1292 181.481 63.7277 181.2 63.4081C180.902 63.0698 180.497 62.9617 180.132 62.9617V64.4872C180.172 64.4872 180.173 64.493 180.151 64.4846C180.139 64.4802 180.123 64.4725 180.105 64.4601C180.086 64.4476 180.069 64.4325 180.055 64.4158C180.024 64.3814 180.018 64.3557 180.019 64.361C180.021 64.3687 180.03 64.4029 180.03 64.4745H181.555ZM180.132 62.9617C179.981 62.9617 179.831 62.9769 179.683 63.0066L179.982 64.5024C180.034 64.492 180.083 64.4872 180.132 64.4872V62.9617ZM179.683 63.0066C179.534 63.0362 179.39 63.08 179.249 63.1363L179.815 64.5526C179.875 64.529 179.93 64.5127 179.982 64.5024L179.683 63.0066ZM180.291 63.7706L180.081 61.6106L178.563 61.7583L178.773 63.9183L180.291 63.7706ZM179.579 62.4027C179.808 62.3209 180.156 62.2294 180.642 62.1324L180.343 60.6366C179.828 60.7395 179.397 60.848 179.066 60.9662L179.579 62.4027ZM180.648 62.1311C181.076 62.042 181.513 61.9972 181.962 61.9972V60.4717C181.411 60.4717 180.869 60.5269 180.337 60.6378L180.648 62.1311ZM181.962 61.9972C182.885 61.9972 183.324 62.1841 183.507 62.3574L184.558 61.2515C183.94 60.6648 182.999 60.4717 181.962 60.4717V61.9972ZM183.493 62.3438C183.722 62.5725 183.87 62.903 183.87 63.4245H185.395C185.395 62.5859 185.143 61.8364 184.572 61.2651L183.493 62.3438ZM183.87 63.4245V67.1445H185.395V63.4245H183.87ZM184.632 66.3817H180.792V67.9072H184.632V66.3817ZM190.669 59.1945L190.355 59.8896L190.363 59.8932L190.669 59.1945ZM189.199 57.9345L188.541 58.3202L188.549 58.3337L188.557 58.3469L189.199 57.9345ZM189.469 51.2145L188.91 50.6955L189.469 51.2145ZM191.629 49.9545L191.851 50.6841L192.264 50.5584L192.369 50.1394L191.629 49.9545ZM191.659 49.8345L192.399 50.0194L192.566 49.3491L191.916 49.1163L191.659 49.8345ZM188.389 48.6645H187.626V49.2016L188.132 49.3826L188.389 48.6645ZM189.229 45.1545L188.606 44.714L188.604 44.7171L189.229 45.1545ZM191.749 43.2045L192.054 43.9035V43.9035L191.749 43.2045ZM199.579 43.1745L199.275 43.8741L199.283 43.8775L199.291 43.8808L199.579 43.1745ZM202.069 45.1845L201.427 45.5976L201.432 45.6042L202.069 45.1845ZM203.569 55.0845L204.108 54.5451L204.108 54.5451L203.569 55.0845ZM206.629 55.2345L207.091 55.8411L207.1 55.8343L207.108 55.8273L206.629 55.2345ZM207.619 53.8545L208.323 54.1461L208.327 54.1377L207.619 53.8545ZM207.979 42.8745V42.1117H207.216V42.8745H207.979ZM212.479 42.8745H213.241V42.1117H212.479V42.8745ZM212.479 59.3145V60.0772H213.241V59.3145H212.479ZM208.999 59.3145L208.25 59.4624L208.372 60.0772H208.999V59.3145ZM208.489 56.7345L209.237 56.5865L209.115 55.9717H208.489V56.7345ZM208.249 56.7345V55.9717H207.746L207.548 56.434L208.249 56.7345ZM206.479 58.8045L206.059 58.1674L206.052 58.1723L206.479 58.8045ZM199.759 58.3245L199.201 58.8444L199.207 58.851L199.213 58.8574L199.759 58.3245ZM198.139 47.1945L197.476 47.5729L197.487 47.5918L197.499 47.6101L198.139 47.1945ZM197.149 46.2945L196.848 46.9955L197.149 46.2945ZM193.819 46.5345L194.23 47.1769L194.239 47.1711L194.247 47.1652L193.819 46.5345ZM193.009 48.0045L192.247 47.9583L192.216 48.4689L192.677 48.6913L193.009 48.0045ZM195.619 49.2645L196.372 49.3804L196.458 48.8229L195.95 48.5776L195.619 49.2645ZM195.319 51.2145L195.339 51.9769L195.976 51.9597L196.072 51.3304L195.319 51.2145ZM193.639 51.7545L194.13 52.3379L194.139 52.3305L194.147 52.3229L193.639 51.7545ZM193.339 56.2545L192.772 56.7647L192.799 56.7945L192.828 56.8214L193.339 56.2545ZM194.809 56.4945L194.893 57.2525L194.926 57.2488L194.958 57.2424L194.809 56.4945ZM195.319 56.3445L196.072 56.2259L195.92 55.2571L195.018 55.6434L195.319 56.3445ZM195.739 59.0145L196.094 59.6894L196.577 59.4352L196.492 58.8959L195.739 59.0145ZM194.449 59.4645L194.293 58.7178L194.449 59.4645ZM192.919 58.8517C192.14 58.8517 191.498 58.725 190.974 58.4957L190.363 59.8932C191.119 60.2239 191.977 60.3772 192.919 60.3772V58.8517ZM190.982 58.4993C190.494 58.2785 190.119 57.9553 189.84 57.522L188.557 58.3469C188.998 59.0336 189.604 59.5504 190.355 59.8896L190.982 58.4993ZM189.857 57.5487C189.602 57.1141 189.451 56.536 189.451 55.7745H187.926C187.926 56.7329 188.115 57.5948 188.541 58.3202L189.857 57.5487ZM189.451 55.7745V53.8245H187.926V55.7745H189.451ZM189.451 53.8245C189.451 52.7358 189.694 52.0925 190.027 51.7334L188.91 50.6955C188.203 51.4564 187.926 52.5531 187.926 53.8245H189.451ZM190.027 51.7334C190.435 51.2946 191.027 50.9349 191.851 50.6841L191.406 49.2248C190.39 49.534 189.542 50.0143 188.91 50.6955L190.027 51.7334ZM192.369 50.1394L192.399 50.0194L190.919 49.6495L190.889 49.7695L192.369 50.1394ZM191.916 49.1163L188.646 47.9463L188.132 49.3826L191.402 50.5526L191.916 49.1163ZM189.151 48.6645V47.8845H187.626V48.6645H189.151ZM189.151 47.8845C189.151 47.0135 189.387 46.2577 189.853 45.5918L188.604 44.7171C187.95 45.6512 187.626 46.7154 187.626 47.8845H189.151ZM189.851 45.5949C190.337 44.9088 191.056 44.3388 192.054 43.9035L191.444 42.5054C190.241 43.0301 189.281 43.7601 188.606 44.714L189.851 45.5949ZM192.054 43.9035C193.032 43.4765 194.262 43.2472 195.769 43.2472V41.7217C194.115 41.7217 192.665 41.9724 191.444 42.5054L192.054 43.9035ZM195.769 43.2472C197.172 43.2472 198.334 43.4656 199.275 43.8741L199.882 42.4748C198.704 41.9633 197.325 41.7217 195.769 41.7217V43.2472ZM199.291 43.8808C200.239 44.2672 200.94 44.8411 201.427 45.5976L202.71 44.7713C202.037 43.7278 201.078 42.9617 199.866 42.4681L199.291 43.8808ZM201.432 45.6042C201.91 46.3297 202.176 47.2834 202.176 48.5145H203.701C203.701 47.0655 203.387 45.7992 202.705 44.7647L201.432 45.6042ZM202.176 48.5145V53.0145H203.701V48.5145H202.176ZM202.176 53.0145C202.176 54.0573 202.4 54.994 203.029 55.6238L204.108 54.5451C203.898 54.3349 203.701 53.8916 203.701 53.0145H202.176ZM203.029 55.6238C203.599 56.1936 204.316 56.4772 205.129 56.4772V54.9517C204.701 54.9517 204.378 54.8153 204.108 54.5451L203.029 55.6238ZM205.129 56.4772C205.858 56.4772 206.525 56.2724 207.091 55.8411L206.166 54.6278C205.892 54.8365 205.559 54.9517 205.129 54.9517V56.4772ZM207.108 55.8273C207.642 55.3951 208.043 54.8245 208.323 54.1461L206.914 53.5628C206.715 54.0444 206.455 54.3938 206.149 54.6416L207.108 55.8273ZM208.327 54.1377C208.61 53.429 208.741 52.6292 208.741 51.7545H207.216C207.216 52.4798 207.107 53.0799 206.91 53.5712L208.327 54.1377ZM208.741 51.7545V42.8745H207.216V51.7545H208.741ZM207.979 43.6372H212.479V42.1117H207.979V43.6372ZM211.716 42.8745V59.3145H213.241V42.8745H211.716ZM212.479 58.5517H208.999V60.0772H212.479V58.5517ZM209.747 59.1665L209.237 56.5865L207.74 56.8824L208.25 59.4624L209.747 59.1665ZM208.489 55.9717H208.249V57.4972H208.489V55.9717ZM207.548 56.434C207.251 57.1263 206.764 57.7032 206.059 58.1675L206.898 59.4414C207.833 58.8257 208.526 58.0226 208.95 57.0349L207.548 56.434ZM206.052 58.1723C205.406 58.6085 204.564 58.8517 203.479 58.8517V60.3772C204.793 60.3772 205.952 60.0804 206.905 59.4366L206.052 58.1723ZM203.479 58.8517C201.967 58.8517 200.955 58.4574 200.304 57.7915L199.213 58.8574C200.243 59.9115 201.71 60.3772 203.479 60.3772V58.8517ZM200.317 57.8045C199.685 57.127 199.291 55.976 199.291 54.1845H197.766C197.766 56.1529 198.192 57.7619 199.201 58.8444L200.317 57.8045ZM199.291 54.1845V48.8445H197.766V54.1845H199.291ZM199.291 48.8445C199.291 48.062 199.148 47.3476 198.778 46.7788L197.499 47.6101C197.649 47.8413 197.766 48.2269 197.766 48.8445H199.291ZM198.801 46.816C198.484 46.261 198.031 45.8427 197.449 45.5934L196.848 46.9955C197.106 47.1062 197.313 47.2879 197.476 47.5729L198.801 46.816ZM197.449 45.5934C196.918 45.366 196.333 45.2617 195.709 45.2617V46.7872C196.164 46.7872 196.539 46.8629 196.848 46.9955L197.449 45.5934ZM195.709 45.2617C194.835 45.2617 194.045 45.458 193.39 45.9037L194.247 47.1652C194.592 46.9309 195.062 46.7872 195.709 46.7872V45.2617ZM193.407 45.892C192.677 46.3598 192.3 47.087 192.247 47.9583L193.77 48.0506C193.797 47.6019 193.961 47.3491 194.23 47.1769L193.407 45.892ZM192.677 48.6913L195.287 49.9513L195.95 48.5776L193.34 47.3176L192.677 48.6913ZM194.865 49.1485L194.565 51.0985L196.072 51.3304L196.372 49.3804L194.865 49.1485ZM195.298 50.452C194.457 50.4747 193.694 50.6814 193.13 51.186L194.147 52.3229C194.343 52.1475 194.7 51.9942 195.339 51.9769L195.298 50.452ZM193.147 51.171C192.51 51.7079 192.306 52.5623 192.306 53.4645H193.831C193.831 52.7266 194.007 52.441 194.13 52.3379L193.147 51.171ZM192.306 53.4645V55.2945H193.831V53.4645H192.306ZM192.306 55.2945C192.306 55.8105 192.407 56.359 192.772 56.7647L193.905 55.7442C193.91 55.7494 193.891 55.7312 193.87 55.658C193.849 55.5828 193.831 55.4657 193.831 55.2945H192.306ZM192.828 56.8214C193.229 57.1818 193.761 57.2872 194.269 57.2872V55.7617C194.11 55.7617 194.002 55.7444 193.934 55.7245C193.9 55.7148 193.879 55.7053 193.866 55.6985C193.854 55.6919 193.849 55.6878 193.849 55.6875L192.828 56.8214ZM194.269 57.2872C194.477 57.2872 194.685 57.2756 194.893 57.2525L194.724 55.7364C194.572 55.7533 194.42 55.7617 194.269 55.7617V57.2872ZM194.958 57.2424C195.194 57.1952 195.417 57.1319 195.619 57.0455L195.018 55.6434C194.94 55.677 194.823 55.7137 194.659 55.7466L194.958 57.2424ZM194.565 56.463L194.985 59.133L196.492 58.8959L196.072 56.2259L194.565 56.463ZM195.383 58.3395C195.074 58.5021 194.713 58.6303 194.293 58.7178L194.604 60.2111C195.144 60.0986 195.643 59.9268 196.094 59.6894L195.383 58.3395ZM194.293 58.7178C193.869 58.8061 193.412 58.8517 192.919 58.8517V60.3772C193.506 60.3772 194.068 60.3228 194.604 60.2111L194.293 58.7178ZM218.734 58.2045L218.231 58.7773L218.241 58.7863L218.734 58.2045ZM217.264 50.6145L216.549 50.3496L216.545 50.3613L216.541 50.3733L217.264 50.6145ZM218.044 49.1445L218.661 49.5931L218.044 49.1445ZM218.824 47.9745L218.173 47.5767L218.167 47.5877L218.824 47.9745ZM218.884 46.1145L218.345 46.6538L218.379 46.6873L218.416 46.7165L218.884 46.1145ZM217.594 45.9645L217.394 45.2286L217.384 45.2311L217.375 45.2339L217.594 45.9645ZM216.904 46.2345L216.165 46.4231L216.392 47.3109L217.224 46.927L216.904 46.2345ZM216.184 43.4145L215.824 42.7421L215.297 43.0243L215.445 43.6031L216.184 43.4145ZM217.984 42.8145L218.102 43.568L218.111 43.5666L218.121 43.5649L217.984 42.8145ZM221.824 43.0545L221.463 43.7261L221.473 43.7316L221.824 43.0545ZM222.994 44.2545L223.687 43.9348V43.9348L222.994 44.2545ZM223.084 47.7645L223.795 48.0424L223.798 48.0323L223.084 47.7645ZM222.394 49.2045L223.058 49.5798L223.06 49.5771L222.394 49.2045ZM221.704 50.4945L221.022 50.1534L221.015 50.1673L221.009 50.1815L221.704 50.4945ZM221.704 54.9945L221.003 55.2949L221.009 55.3088L221.016 55.3224L221.704 54.9945ZM222.574 55.9245L222.219 56.5994L222.233 56.6069L222.248 56.6137L222.574 55.9245ZM225.754 55.5045L225.156 55.031L225.154 55.0344L225.754 55.5045ZM225.904 49.2645L225.286 49.711L225.3 49.7306L225.316 49.7493L225.904 49.2645ZM224.404 48.7245H223.642V49.4872H224.404V48.7245ZM224.404 46.3545V45.5917H223.642V46.3545H224.404ZM225.964 45.8445L226.536 46.3491L225.964 45.8445ZM226.534 44.5545L225.784 44.4156L225.782 44.427L225.78 44.4385L226.534 44.5545ZM226.684 42.8745V42.1117H225.922V42.8745H226.684ZM231.154 42.8745H231.917V42.1117H231.154V42.8745ZM230.674 45.9045L229.966 45.6212L229.966 45.6212L230.674 45.9045ZM228.994 47.5245L228.742 46.8046L228.232 46.9833V47.5245H228.994ZM228.994 47.6445H228.232V48.2165L228.781 48.3767L228.994 47.6445ZM230.104 48.3045L229.528 48.804L229.536 48.8139L229.545 48.8234L230.104 48.3045ZM230.644 49.3245L229.904 49.5094L230.644 49.3245ZM229.054 58.2045L229.552 58.7822L229.558 58.7772L229.054 58.2045ZM223.924 58.9417C221.742 58.9417 220.217 58.4614 219.227 57.6226L218.241 58.7863C219.611 59.9475 221.547 60.4672 223.924 60.4672V58.9417ZM219.238 57.6317C218.28 56.7891 217.757 55.5599 217.757 53.8245H216.232C216.232 55.889 216.869 57.5798 218.231 58.7772L219.238 57.6317ZM217.757 53.8245V52.6545H216.232V53.8245H217.757ZM217.757 52.6545C217.757 51.8835 217.842 51.2918 217.988 50.8556L216.541 50.3733C216.326 51.0171 216.232 51.7854 216.232 52.6545H217.757ZM217.979 50.8794C218.157 50.401 218.384 49.9734 218.661 49.5931L217.427 48.6958C217.064 49.1955 216.772 49.7479 216.549 50.3496L217.979 50.8794ZM218.661 49.5931C218.991 49.14 219.265 48.7287 219.482 48.3612L218.167 47.5877C217.983 47.9002 217.738 48.2689 217.427 48.6958L218.661 49.5931ZM219.475 48.3722C219.76 47.906 219.917 47.3999 219.917 46.8645H218.392C218.392 47.089 218.329 47.3229 218.173 47.5767L219.475 48.3722ZM219.917 46.8645C219.917 46.4064 219.805 45.8643 219.353 45.5124L218.416 46.7165C218.397 46.702 218.384 46.6866 218.375 46.6742C218.367 46.6625 218.366 46.6577 218.369 46.6653C218.376 46.6838 218.392 46.7433 218.392 46.8645H219.917ZM219.424 45.5751C219.088 45.2397 218.656 45.1117 218.224 45.1117V46.6372C218.292 46.6372 218.327 46.6469 218.339 46.6512C218.344 46.6534 218.346 46.6547 218.346 46.6543C218.345 46.6539 218.345 46.6535 218.345 46.6538L219.424 45.5751ZM218.224 45.1117C217.948 45.1117 217.67 45.1532 217.394 45.2286L217.795 46.7003C217.959 46.6557 218.101 46.6372 218.224 46.6372V45.1117ZM217.375 45.2339C217.131 45.3072 216.866 45.412 216.585 45.5419L217.224 46.927C217.462 46.8169 217.658 46.7417 217.813 46.695L217.375 45.2339ZM217.643 46.0458L216.923 43.2258L215.445 43.6031L216.165 46.4231L217.643 46.0458ZM216.544 44.0868C217.027 43.8281 217.545 43.655 218.102 43.568L217.867 42.0609C217.143 42.1739 216.461 42.4008 215.824 42.7421L216.544 44.0868ZM218.121 43.5649C218.75 43.4505 219.282 43.3972 219.724 43.3972V41.8717C219.166 41.8717 218.539 41.9384 217.848 42.064L218.121 43.5649ZM219.724 43.3972C220.535 43.3972 221.095 43.5281 221.463 43.726L222.186 42.3829C221.513 42.0208 220.673 41.8717 219.724 41.8717V43.3972ZM221.473 43.7316C221.873 43.9388 222.137 44.2177 222.302 44.5741L223.687 43.9348C223.371 43.2512 222.856 42.7301 222.175 42.3774L221.473 43.7316ZM222.302 44.5741C222.485 44.9716 222.592 45.4773 222.592 46.1145H224.117C224.117 45.3116 223.983 44.5773 223.687 43.9348L222.302 44.5741ZM222.592 46.1145C222.592 46.6616 222.512 47.1181 222.37 47.4966L223.798 48.0323C224.016 47.4508 224.117 46.8073 224.117 46.1145H222.592ZM222.374 47.4865C222.209 47.9093 221.994 48.3576 221.729 48.8318L223.06 49.5771C223.354 49.0513 223.6 48.5396 223.795 48.0424L222.374 47.4865ZM221.73 48.8292C221.465 49.2984 221.229 49.74 221.022 50.1534L222.386 50.8355C222.58 50.4489 222.804 50.0305 223.058 49.5798L221.73 48.8292ZM221.009 50.1815C220.763 50.7271 220.672 51.4343 220.672 52.2345H222.197C222.197 51.5146 222.285 51.0618 222.4 50.8074L221.009 50.1815ZM220.672 52.2345V53.3745H222.197V52.2345H220.672ZM220.672 53.3745C220.672 54.0955 220.769 54.7476 221.003 55.2949L222.405 54.694C222.28 54.4013 222.197 53.9734 222.197 53.3745H220.672ZM221.016 55.3224C221.28 55.8779 221.681 56.3162 222.219 56.5994L222.929 55.2495C222.708 55.1327 222.528 54.951 222.393 54.6665L221.016 55.3224ZM222.248 56.6137C222.751 56.8521 223.317 56.9572 223.924 56.9572V55.4317C223.491 55.4317 223.157 55.3568 222.901 55.2352L222.248 56.6137ZM223.924 56.9572C224.904 56.9572 225.792 56.6939 226.355 55.9745L225.154 55.0344C224.997 55.235 224.665 55.4317 223.924 55.4317V56.9572ZM226.352 55.9779C226.868 55.3267 227.087 54.5032 227.087 53.5845H225.562C225.562 54.2657 225.401 54.7222 225.156 55.031L226.352 55.9779ZM227.087 53.5845V50.6745H225.562V53.5845H227.087ZM227.087 50.6745C227.087 49.9614 226.92 49.2985 226.493 48.7796L225.316 49.7493C225.448 49.9105 225.562 50.1875 225.562 50.6745H227.087ZM226.523 48.8179C226.063 48.1818 225.325 47.9617 224.554 47.9617V49.4872C225.064 49.4872 225.225 49.6271 225.286 49.711L226.523 48.8179ZM224.554 47.9617H224.404V49.4872H224.554V47.9617ZM225.167 48.7245V46.3545H223.642V48.7245H225.167ZM224.404 47.1172H224.584V45.5917H224.404V47.1172ZM224.584 47.1172C225.339 47.1172 226.044 46.9071 226.536 46.3491L225.392 45.3398C225.285 45.4618 225.069 45.5917 224.584 45.5917V47.1172ZM226.536 46.3491C226.947 45.883 227.19 45.3111 227.288 44.6704L225.78 44.4385C225.719 44.8378 225.581 45.1259 225.392 45.3398L226.536 46.3491ZM227.284 44.6933C227.393 44.105 227.447 43.4984 227.447 42.8745H225.922C225.922 43.4105 225.875 43.9239 225.784 44.4156L227.284 44.6933ZM226.684 43.6372H231.154V42.1117H226.684V43.6372ZM230.392 42.8745C230.392 44.0347 230.238 44.9404 229.966 45.6212L231.382 46.1877C231.75 45.2685 231.917 44.1542 231.917 42.8745H230.392ZM229.966 45.6212C229.726 46.2205 229.33 46.5987 228.742 46.8046L229.246 48.2443C230.258 47.8902 230.982 47.1884 231.382 46.1877L229.966 45.6212ZM228.232 47.5245V47.6445H229.757V47.5245H228.232ZM228.781 48.3767C229.156 48.4862 229.386 48.6403 229.528 48.804L230.681 47.8049C230.302 47.3686 229.792 47.0827 229.208 46.9122L228.781 48.3767ZM229.545 48.8234C229.711 49.0018 229.833 49.2241 229.904 49.5094L231.384 49.1395C231.256 48.6248 231.018 48.1671 230.663 47.7855L229.545 48.8234ZM229.904 49.5094C229.987 49.84 230.032 50.2169 230.032 50.6445H231.557C231.557 50.112 231.502 49.6089 231.384 49.1395L229.904 49.5094ZM230.032 50.6445V53.7045H231.557V50.6445H230.032ZM230.032 53.7045C230.032 55.5313 229.502 56.7951 228.551 57.6317L229.558 58.7772C230.926 57.5739 231.557 55.8376 231.557 53.7045H230.032ZM228.556 57.6268C227.588 58.4618 226.086 58.9417 223.924 58.9417V60.4672C226.282 60.4672 228.201 59.9471 229.552 58.7821L228.556 57.6268ZM237.413 58.9245L237.028 59.5827L237.037 59.5882L237.047 59.5934L237.413 58.9245ZM235.523 56.7945L234.827 57.1056L234.832 57.1178L235.523 56.7945ZM234.893 42.8745V42.1117H234.131V42.8745H234.893ZM239.393 42.8745H240.156V42.1117H239.393V42.8745ZM240.053 54.9645L240.626 54.4606L240.053 54.9645ZM244.433 54.5145L245.051 54.9622L245.056 54.9549L244.433 54.5145ZM245.303 42.8745V42.1117H244.541V42.8745H245.303ZM249.803 42.8745H250.566V42.1117H249.803V42.8745ZM249.803 59.3145V60.0772H250.566V59.3145H249.803ZM246.383 59.3145L245.634 59.4572L245.752 60.0772H246.383V59.3145ZM245.903 56.7945L246.652 56.6517L246.534 56.0317H245.903V56.7945ZM245.633 56.7945V56.0317H245.129L244.931 56.4961L245.633 56.7945ZM243.863 58.8045L243.451 58.1628L243.444 58.1675L243.863 58.8045ZM240.503 58.8517C239.377 58.8517 238.481 58.6394 237.78 58.2555L237.047 59.5934C238.026 60.1295 239.189 60.3772 240.503 60.3772V58.8517ZM237.799 58.2662C237.124 57.8715 236.595 57.2846 236.214 56.4711L234.832 57.1178C235.332 58.1843 236.062 59.0174 237.028 59.5827L237.799 58.2662ZM236.22 56.4833C235.855 55.6673 235.656 54.63 235.656 53.3445H234.131C234.131 54.7789 234.352 56.0416 234.827 57.1056L236.22 56.4833ZM235.656 53.3445V42.8745H234.131V53.3445H235.656ZM234.893 43.6372H239.393V42.1117H234.893V43.6372ZM238.631 42.8745V52.5645H240.156V42.8745H238.631ZM238.631 52.5645C238.631 53.7373 238.86 54.763 239.481 55.4683L240.626 54.4606C240.367 54.1659 240.156 53.5916 240.156 52.5645H238.631ZM239.481 55.4683C240.102 56.174 240.976 56.4772 241.973 56.4772V54.9517C241.291 54.9517 240.885 54.7549 240.626 54.4606L239.481 55.4683ZM241.973 56.4772C243.257 56.4772 244.315 55.9763 245.051 54.9621L243.816 54.0668C243.391 54.6526 242.81 54.9517 241.973 54.9517V56.4772ZM245.056 54.9549C245.771 53.9442 246.066 52.4941 246.066 50.7345H244.541C244.541 52.3748 244.256 53.4447 243.811 54.074L245.056 54.9549ZM246.066 50.7345V42.8745H244.541V50.7345H246.066ZM245.303 43.6372H249.803V42.1117H245.303V43.6372ZM249.041 42.8745V59.3145H250.566V42.8745H249.041ZM249.803 58.5517H246.383V60.0772H249.803V58.5517ZM247.132 59.1717L246.652 56.6517L245.154 56.9372L245.634 59.4572L247.132 59.1717ZM245.903 56.0317H245.633V57.5572H245.903V56.0317ZM244.931 56.4961C244.66 57.1351 244.182 57.693 243.451 58.1629L244.276 59.446C245.225 58.836 245.927 58.0538 246.335 57.0928L244.931 56.4961ZM243.444 58.1675C242.792 58.5965 241.837 58.8517 240.503 58.8517V60.3772C242.009 60.3772 243.294 60.0924 244.283 59.4414L243.444 58.1675ZM253.748 48.0945L253.065 48.4356L253.072 48.4473L253.748 48.0945ZM253.538 45.5445L254.273 45.7486L254.275 45.7386L253.538 45.5445ZM253.988 44.4345L254.085 43.678L253.572 43.6121L253.321 44.064L253.988 44.4345ZM257.258 44.8545L257.991 45.064L258.235 44.211L257.355 44.098L257.258 44.8545ZM257.138 45.3045L256.398 45.1195L256.387 45.1641L256.381 45.2098L257.138 45.3045ZM257.348 46.4445L256.808 46.9838L256.826 47.0017L256.846 47.0185L257.348 46.4445ZM261.578 46.6545H262.34V45.8917H261.578V46.6545ZM261.578 49.6245V50.3872H262.34V49.6245H261.578ZM254.918 57.6045L255.269 56.9274L254.918 57.6045ZM253.748 56.4945L253.065 56.8356L253.072 56.8473L253.748 56.4945ZM253.538 53.9445L254.273 54.1486L254.275 54.1386L253.538 53.9445ZM253.988 52.8345L254.085 52.078L253.572 52.0121L253.321 52.464L253.988 52.8345ZM257.258 53.2545L257.991 53.464L258.235 52.611L257.355 52.498L257.258 53.2545ZM257.138 53.7045L256.398 53.5195L256.387 53.5641L256.381 53.6098L257.138 53.7045ZM257.348 54.8445L256.808 55.3838L256.826 55.4017L256.846 55.4185L257.348 54.8445ZM261.578 55.0545H262.34V54.2917H261.578V55.0545ZM261.578 58.0245V58.7872H262.34V58.0245H261.578ZM257.108 48.8617C256.253 48.8617 255.659 48.7296 255.269 48.5274L254.567 49.8816C255.257 50.2393 256.123 50.3872 257.108 50.3872V48.8617ZM255.269 48.5274C254.843 48.3067 254.58 48.04 254.424 47.7416L253.072 48.4473C253.396 49.0689 253.912 49.5422 254.567 49.8816L255.269 48.5274ZM254.43 47.7534C254.241 47.3758 254.15 46.9922 254.15 46.5945H252.625C252.625 47.2367 252.774 47.8531 253.066 48.4355L254.43 47.7534ZM254.15 46.5945C254.15 46.3299 254.189 46.0486 254.273 45.7486L252.803 45.3403C252.686 45.7603 252.625 46.179 252.625 46.5945H254.15ZM254.275 45.7386C254.358 45.4229 254.484 45.1119 254.655 44.8049L253.321 44.064C253.092 44.477 252.917 44.906 252.8 45.3503L254.275 45.7386ZM253.891 45.1909L257.161 45.6109L257.355 44.098L254.085 43.678L253.891 45.1909ZM256.524 44.6449C256.482 44.794 256.44 44.9523 256.398 45.1195L257.878 45.4894C257.916 45.3366 257.954 45.1949 257.991 45.064L256.524 44.6449ZM256.381 45.2098C256.357 45.4046 256.345 45.6064 256.345 45.8145H257.87C257.87 45.6625 257.879 45.5243 257.895 45.3991L256.381 45.2098ZM256.345 45.8145C256.345 46.244 256.484 46.6592 256.808 46.9838L257.887 45.9051C257.883 45.9006 257.882 45.8992 257.881 45.8954C257.878 45.8896 257.87 45.866 257.87 45.8145H256.345ZM256.846 47.0185C257.224 47.3493 257.746 47.4172 258.188 47.4172V45.8917C258.028 45.8917 257.924 45.8773 257.863 45.862C257.8 45.8464 257.812 45.8375 257.85 45.8705L256.846 47.0185ZM258.188 47.4172H261.578V45.8917H258.188V47.4172ZM260.815 46.6545V49.6245H262.34V46.6545H260.815ZM261.578 48.8617H257.108V50.3872H261.578V48.8617ZM257.108 57.2617C256.253 57.2617 255.659 57.1296 255.269 56.9274L254.567 58.2816C255.257 58.6393 256.123 58.7872 257.108 58.7872V57.2617ZM255.269 56.9274C254.843 56.7067 254.58 56.44 254.424 56.1416L253.072 56.8473C253.396 57.4689 253.912 57.9422 254.567 58.2816L255.269 56.9274ZM254.43 56.1534C254.241 55.7758 254.15 55.3922 254.15 54.9945H252.625C252.625 55.6367 252.774 56.2531 253.066 56.8355L254.43 56.1534ZM254.15 54.9945C254.15 54.7299 254.189 54.4486 254.273 54.1486L252.803 53.7403C252.686 54.1603 252.625 54.579 252.625 54.9945H254.15ZM254.275 54.1386C254.358 53.8229 254.484 53.5119 254.655 53.2049L253.321 52.464C253.092 52.877 252.917 53.306 252.8 53.7503L254.275 54.1386ZM253.891 53.591L257.161 54.011L257.355 52.498L254.085 52.078L253.891 53.591ZM256.524 53.0449C256.482 53.194 256.44 53.3523 256.398 53.5195L257.878 53.8894C257.916 53.7366 257.954 53.5949 257.991 53.464L256.524 53.0449ZM256.381 53.6098C256.357 53.8046 256.345 54.0064 256.345 54.2145H257.87C257.87 54.0625 257.879 53.9243 257.895 53.7991L256.381 53.6098ZM256.345 54.2145C256.345 54.644 256.484 55.0592 256.808 55.3838L257.887 54.3051C257.883 54.3006 257.882 54.2992 257.881 54.2954C257.878 54.2896 257.87 54.266 257.87 54.2145H256.345ZM256.846 55.4185C257.224 55.7493 257.746 55.8172 258.188 55.8172V54.2917C258.028 54.2917 257.924 54.2773 257.863 54.262C257.8 54.2464 257.812 54.2374 257.85 54.2705L256.846 55.4185ZM258.188 55.8172H261.578V54.2917H258.188V55.8172ZM260.815 55.0545V58.0245H262.34V55.0545H260.815ZM261.578 57.2617H257.108V58.7872H261.578V57.2617Z" fill="white"/>
</g>
<g filter="url(#filter2_d_627_19626)">
<path d="M196.676 72.2086V85.5352H192.993V76.8027C192.398 77.2556 191.82 77.622 191.259 77.9021C190.705 78.1821 190.008 78.4503 189.168 78.7065V75.7212C190.407 75.322 191.37 74.8423 192.055 74.2822C192.74 73.7221 193.276 73.0309 193.664 72.2086H196.676ZM200.993 81.8884H204.881V85.5352H200.993V81.8884ZM206.731 78.93C206.731 76.4392 207.178 74.6963 208.072 73.7012C208.972 72.7061 210.339 72.2086 212.174 72.2086C213.056 72.2086 213.78 72.3188 214.346 72.5393C214.912 72.7538 215.374 73.0368 215.732 73.3884C216.089 73.734 216.369 74.1004 216.572 74.4878C216.781 74.8691 216.947 75.316 217.073 75.8285C217.317 76.8057 217.439 77.8246 217.439 78.8853C217.439 81.2628 217.037 83.0027 216.232 84.1051C215.428 85.2074 214.043 85.7586 212.076 85.7586C210.974 85.7586 210.083 85.5828 209.404 85.2313C208.724 84.8797 208.167 84.3643 207.732 83.685C207.416 83.2023 207.169 82.5439 206.99 81.7097C206.818 80.8695 206.731 79.9429 206.731 78.93ZM210.342 78.9389C210.342 80.6073 210.488 81.7484 210.78 82.3622C211.078 82.9699 211.507 83.2738 212.067 83.2738C212.437 83.2738 212.755 83.1457 213.024 82.8895C213.298 82.6273 213.497 82.2162 213.622 81.6561C213.754 81.0959 213.819 80.223 213.819 79.0372C213.819 77.2973 213.67 76.1294 213.372 75.5335C213.08 74.9317 212.639 74.6308 212.049 74.6308C211.448 74.6308 211.013 74.9376 210.744 75.5514C210.476 76.1592 210.342 77.2883 210.342 78.9389ZM218.941 78.93C218.941 76.4392 219.387 74.6963 220.281 73.7012C221.181 72.7061 222.549 72.2086 224.384 72.2086C225.266 72.2086 225.99 72.3188 226.556 72.5393C227.122 72.7538 227.584 73.0368 227.941 73.3884C228.299 73.734 228.579 74.1004 228.781 74.4878C228.99 74.8691 229.157 75.316 229.282 75.8285C229.526 76.8057 229.648 77.8246 229.648 78.8853C229.648 81.2628 229.246 83.0027 228.442 84.1051C227.637 85.2074 226.252 85.7586 224.285 85.7586C223.183 85.7586 222.292 85.5828 221.613 85.2313C220.934 84.8797 220.377 84.3643 219.942 83.685C219.626 83.2023 219.379 82.5439 219.2 81.7097C219.027 80.8695 218.941 79.9429 218.941 78.93ZM222.552 78.9389C222.552 80.6073 222.697 81.7484 222.989 82.3622C223.287 82.9699 223.716 83.2738 224.277 83.2738C224.646 83.2738 224.965 83.1457 225.233 82.8895C225.507 82.6273 225.707 82.2162 225.832 81.6561C225.963 81.0959 226.028 80.223 226.028 79.0372C226.028 77.2973 225.879 76.1294 225.582 75.5335C225.29 74.9317 224.849 74.6308 224.259 74.6308C223.657 74.6308 223.222 74.9376 222.954 75.5514C222.686 76.1592 222.552 77.2883 222.552 78.9389ZM230.676 76.043H234.993L236.504 78.6886L238.256 76.043H242.269L239.033 80.5656L242.501 85.5352H238.256L236.504 82.4784L234.439 85.5352H230.497L233.947 80.5656L230.676 76.043Z" fill="#FFE08F"/>
</g>
<rect x="162.515" y="96.043" width="105.034" height="16" rx="8" fill="#3B3B3C"/>
<g clip-path="url(#clip1_627_19626)">
<path d="M183.664 105.704C182.748 109.381 179.023 111.619 175.345 110.702C171.669 109.785 169.431 106.06 170.348 102.383C171.265 98.7055 174.989 96.4673 178.666 97.3841C182.343 98.3009 184.581 102.026 183.664 105.704L183.664 105.704H183.664Z" fill="#F7931A"/>
<path d="M180.033 103.065C180.17 102.152 179.474 101.661 178.523 101.333L178.832 100.096L178.078 99.908L177.778 101.113C177.58 101.063 177.377 101.017 177.174 100.971L177.477 99.758L176.724 99.5703L176.415 100.807C176.252 100.77 176.091 100.733 175.935 100.694L175.935 100.69L174.897 100.431L174.696 101.236C174.696 101.236 175.255 101.364 175.243 101.372C175.548 101.448 175.604 101.65 175.594 101.81L175.243 103.219C175.264 103.225 175.291 103.232 175.321 103.244C175.296 103.238 175.269 103.231 175.242 103.225L174.749 105.2C174.712 105.292 174.617 105.431 174.404 105.379C174.411 105.389 173.856 105.242 173.856 105.242L173.482 106.104L174.463 106.348C174.645 106.394 174.824 106.442 175 106.487L174.688 107.739L175.44 107.926L175.749 106.688C175.955 106.744 176.154 106.795 176.349 106.844L176.042 108.076L176.795 108.264L177.107 107.015C178.391 107.258 179.357 107.16 179.763 105.998C180.091 105.063 179.747 104.523 179.071 104.171C179.564 104.058 179.934 103.734 180.033 103.065L180.033 103.065L180.033 103.065ZM178.312 105.479C178.079 106.414 176.504 105.908 175.994 105.782L176.407 104.123C176.918 104.251 178.555 104.503 178.312 105.479H178.312ZM178.545 103.052C178.332 103.903 177.022 103.47 176.596 103.364L176.971 101.86C177.397 101.966 178.766 102.164 178.545 103.052H178.545Z" fill="white"/>
</g>
<path d="M187.391 104.915C187.391 103.358 187.67 102.269 188.229 101.647C188.791 101.025 189.646 100.714 190.793 100.714C191.344 100.714 191.797 100.783 192.151 100.921C192.504 101.055 192.793 101.232 193.016 101.451C193.24 101.667 193.415 101.896 193.542 102.138C193.672 102.377 193.776 102.656 193.854 102.976C194.007 103.587 194.083 104.224 194.083 104.887C194.083 106.373 193.832 107.46 193.329 108.149C192.827 108.838 191.961 109.183 190.732 109.183C190.043 109.183 189.486 109.073 189.061 108.853C188.637 108.633 188.289 108.311 188.017 107.887C187.819 107.585 187.665 107.173 187.553 106.652C187.445 106.127 187.391 105.548 187.391 104.915ZM189.648 104.92C189.648 105.963 189.739 106.676 189.922 107.06C190.108 107.44 190.376 107.63 190.726 107.63C190.957 107.63 191.156 107.55 191.324 107.389C191.495 107.226 191.62 106.969 191.698 106.619C191.78 106.268 191.821 105.723 191.821 104.982C191.821 103.894 191.728 103.164 191.542 102.792C191.359 102.416 191.084 102.228 190.715 102.228C190.339 102.228 190.067 102.42 189.899 102.803C189.732 103.183 189.648 103.889 189.648 104.92ZM195.245 106.764H197.675V109.043H195.245V106.764ZM198.832 104.915C198.832 103.358 199.111 102.269 199.67 101.647C200.232 101.025 201.087 100.714 202.234 100.714C202.785 100.714 203.238 100.783 203.591 100.921C203.945 101.055 204.234 101.232 204.457 101.451C204.681 101.667 204.856 101.896 204.982 102.138C205.113 102.377 205.217 102.656 205.295 102.976C205.448 103.587 205.524 104.224 205.524 104.887C205.524 106.373 205.273 107.46 204.77 108.149C204.267 108.838 203.401 109.183 202.172 109.183C201.483 109.183 200.927 109.073 200.502 108.853C200.078 108.633 199.729 108.311 199.457 107.887C199.26 107.585 199.106 107.173 198.994 106.652C198.886 106.127 198.832 105.548 198.832 104.915ZM201.089 104.92C201.089 105.963 201.18 106.676 201.362 107.06C201.549 107.44 201.817 107.63 202.167 107.63C202.398 107.63 202.597 107.55 202.765 107.389C202.936 107.226 203.061 106.969 203.139 106.619C203.221 106.268 203.262 105.723 203.262 104.982C203.262 103.894 203.169 103.164 202.982 102.792C202.8 102.416 202.524 102.228 202.156 102.228C201.779 102.228 201.508 102.42 201.34 102.803C201.172 103.183 201.089 103.889 201.089 104.92ZM206.463 104.915C206.463 103.358 206.742 102.269 207.301 101.647C207.863 101.025 208.718 100.714 209.865 100.714C210.416 100.714 210.868 100.783 211.222 100.921C211.576 101.055 211.865 101.232 212.088 101.451C212.311 101.667 212.487 101.896 212.613 102.138C212.743 102.377 212.848 102.656 212.926 102.976C213.079 103.587 213.155 104.224 213.155 104.887C213.155 106.373 212.904 107.46 212.401 108.149C211.898 108.838 211.032 109.183 209.803 109.183C209.114 109.183 208.557 109.073 208.133 108.853C207.708 108.633 207.36 108.311 207.088 107.887C206.891 107.585 206.736 107.173 206.625 106.652C206.517 106.127 206.463 105.548 206.463 104.915ZM208.719 104.92C208.719 105.963 208.811 106.676 208.993 107.06C209.179 107.44 209.448 107.63 209.798 107.63C210.029 107.63 210.228 107.55 210.395 107.389C210.567 107.226 210.691 106.969 210.77 106.619C210.852 106.268 210.893 105.723 210.893 104.982C210.893 103.894 210.799 103.164 210.613 102.792C210.431 102.416 210.155 102.228 209.786 102.228C209.41 102.228 209.138 102.42 208.971 102.803C208.803 103.183 208.719 103.889 208.719 104.92ZM219.25 100.714V109.043H216.948V103.585C216.576 103.868 216.214 104.097 215.864 104.272C215.518 104.447 215.082 104.615 214.557 104.775V102.909C215.332 102.66 215.933 102.36 216.362 102.01C216.79 101.66 217.125 101.228 217.367 100.714H219.25ZM223.931 103.222L221.78 102.837C221.959 102.151 222.302 101.626 222.808 101.261C223.318 100.896 224.039 100.714 224.97 100.714C226.039 100.714 226.812 100.913 227.288 101.312C227.765 101.71 228.003 102.211 228.003 102.814C228.003 103.168 227.906 103.488 227.713 103.775C227.519 104.062 227.227 104.313 226.836 104.529C227.152 104.607 227.394 104.699 227.562 104.803C227.834 104.971 228.044 105.192 228.193 105.468C228.346 105.74 228.422 106.065 228.422 106.445C228.422 106.922 228.298 107.38 228.048 107.82C227.798 108.255 227.439 108.592 226.97 108.831C226.501 109.065 225.884 109.183 225.121 109.183C224.376 109.183 223.788 109.095 223.356 108.92C222.927 108.745 222.573 108.49 222.294 108.155C222.019 107.816 221.806 107.391 221.657 106.881L223.931 106.579C224.02 107.037 224.158 107.356 224.344 107.535C224.534 107.71 224.774 107.797 225.065 107.797C225.37 107.797 225.624 107.686 225.825 107.462C226.029 107.239 226.132 106.941 226.132 106.568C226.132 106.188 226.033 105.894 225.836 105.686C225.642 105.477 225.378 105.373 225.043 105.373C224.864 105.373 224.618 105.417 224.305 105.507L224.422 103.881C224.549 103.9 224.648 103.909 224.719 103.909C225.017 103.909 225.264 103.814 225.462 103.624C225.663 103.434 225.763 103.209 225.763 102.948C225.763 102.699 225.689 102.5 225.54 102.351C225.391 102.202 225.186 102.127 224.925 102.127C224.657 102.127 224.439 102.209 224.272 102.373C224.104 102.533 223.99 102.816 223.931 103.222ZM229.355 104.915C229.355 103.358 229.634 102.269 230.193 101.647C230.755 101.025 231.61 100.714 232.757 100.714C233.308 100.714 233.761 100.783 234.115 100.921C234.468 101.055 234.757 101.232 234.981 101.451C235.204 101.667 235.379 101.896 235.506 102.138C235.636 102.377 235.74 102.656 235.818 102.976C235.971 103.587 236.048 104.224 236.048 104.887C236.048 106.373 235.796 107.46 235.293 108.149C234.791 108.838 233.925 109.183 232.696 109.183C232.007 109.183 231.45 109.073 231.025 108.853C230.601 108.633 230.253 108.311 229.981 107.887C229.783 107.585 229.629 107.173 229.517 106.652C229.409 106.127 229.355 105.548 229.355 104.915ZM231.612 104.92C231.612 105.963 231.703 106.676 231.886 107.06C232.072 107.44 232.34 107.63 232.69 107.63C232.921 107.63 233.12 107.55 233.288 107.389C233.459 107.226 233.584 106.969 233.662 106.619C233.744 106.268 233.785 105.723 233.785 104.982C233.785 103.894 233.692 103.164 233.506 102.792C233.323 102.416 233.048 102.228 232.679 102.228C232.303 102.228 232.031 102.42 231.863 102.803C231.696 103.183 231.612 103.889 231.612 104.92ZM240.896 107.512H236.751V105.641L240.896 100.714H242.88V105.747H243.907V107.512H242.88V109.043H240.896V107.512ZM240.896 105.747V103.172L238.707 105.747H240.896ZM249.773 100.714V109.043H247.471V103.585C247.099 103.868 246.738 104.097 246.388 104.272C246.041 104.447 245.606 104.615 245.081 104.775V102.909C245.855 102.66 246.457 102.36 246.885 102.01C247.313 101.66 247.648 101.228 247.89 100.714H249.773ZM258.907 109.043H252.08C252.158 108.369 252.395 107.736 252.79 107.144C253.188 106.548 253.933 105.846 255.024 105.038C255.691 104.542 256.117 104.166 256.303 103.909C256.49 103.652 256.583 103.408 256.583 103.177C256.583 102.928 256.49 102.716 256.303 102.541C256.121 102.362 255.89 102.272 255.611 102.272C255.32 102.272 255.082 102.364 254.896 102.546C254.713 102.729 254.59 103.051 254.527 103.513L252.248 103.328C252.337 102.688 252.501 102.189 252.739 101.831C252.978 101.47 253.313 101.194 253.745 101.004C254.181 100.811 254.782 100.714 255.549 100.714C256.35 100.714 256.972 100.805 257.415 100.988C257.862 101.17 258.212 101.451 258.465 101.831C258.722 102.207 258.851 102.63 258.851 103.099C258.851 103.598 258.704 104.075 258.409 104.529C258.119 104.984 257.588 105.483 256.817 106.026C256.359 106.343 256.052 106.565 255.896 106.691C255.743 106.818 255.562 106.983 255.354 107.188H258.907V109.043Z" fill="white"/>
</g>
<rect x="120.185" y="30.4502" width="189.915" height="88.4746" rx="22.1186" stroke="#EFC046" stroke-width="1.52542"/>
</g>
<g filter="url(#filter3_d_627_19626)">
<rect x="64.7109" y="129.983" width="58.5753" height="82.2421" rx="9.17088" fill="white" stroke="#ECECEC" stroke-width="0.591669" stroke-dasharray="4.73 4.73"/>
<g clip-path="url(#clip2_627_19626)">
<rect x="64.415" y="129.688" width="59.1669" height="82.8337" rx="7.10003" fill="url(#paint2_linear_627_19626)"/>
<path d="M79.7098 150.643L84.1065 154.125L81.9974 155.955L77.6676 152.473L79.7098 150.643ZM84.2181 144.55V145.32C84.2181 146.555 84.0507 147.664 83.7159 148.646C83.3886 149.628 82.9162 150.465 82.2987 151.157C81.6812 151.841 80.9522 152.366 80.1115 152.73C79.2708 153.095 78.3372 153.277 77.3105 153.277C76.2913 153.277 75.3577 153.095 74.5096 152.73C73.6615 152.366 72.9287 151.841 72.3112 151.157C71.6937 150.465 71.2139 149.628 70.8717 148.646C70.5369 147.664 70.3695 146.555 70.3695 145.32V144.55C70.3695 143.308 70.5369 142.2 70.8717 141.225C71.2139 140.243 71.69 139.406 72.3001 138.714C72.9101 138.022 73.6392 137.494 74.4873 137.13C75.3354 136.765 76.269 136.583 77.2882 136.583C78.3149 136.583 79.2485 136.765 80.0892 137.13C80.9373 137.494 81.6701 138.022 82.2876 138.714C82.905 139.406 83.3812 140.243 83.7159 141.225C84.0507 142.2 84.2181 143.308 84.2181 144.55ZM80.8369 145.32V144.528C80.8369 143.665 80.755 142.906 80.5914 142.252C80.4351 141.597 80.2045 141.046 79.8995 140.6C79.6019 140.154 79.2337 139.819 78.7947 139.596C78.3558 139.365 77.8536 139.25 77.2882 139.25C76.7228 139.25 76.2207 139.365 75.7817 139.596C75.3428 139.819 74.9746 140.154 74.677 140.6C74.3794 141.046 74.1525 141.597 73.9963 142.252C73.84 142.906 73.7619 143.665 73.7619 144.528V145.32C73.7619 146.176 73.84 146.935 73.9963 147.597C74.1525 148.252 74.3794 148.806 74.677 149.26C74.982 149.706 75.354 150.044 75.7929 150.275C76.2393 150.506 76.7451 150.621 77.3105 150.621C77.8759 150.621 78.3744 150.506 78.8059 150.275C79.2448 150.044 79.6131 149.706 79.9106 149.26C80.2157 148.806 80.4463 148.252 80.6025 147.597C80.7587 146.935 80.8369 146.176 80.8369 145.32Z" fill="#242424"/>
<path fill-rule="evenodd" clip-rule="evenodd" d="M80.3791 170.523C82.9052 170.551 84.4593 168.933 83.6045 167.23C82.7497 165.526 81.8976 165.143 80.5557 163.908C79.2133 162.673 77.2612 160.537 77.2704 160.033C77.2803 160.537 75.4086 162.673 74.0662 163.908C72.7243 165.143 71.8729 165.526 71.0174 167.23C70.1626 168.933 71.7173 170.551 74.2428 170.523C75.9767 170.503 76.757 169.507 77.0753 168.885L77.0753 169.7C77.0753 169.7 76.5217 172.639 72.6149 172.961L71.9921 172.961L71.9921 173.419L82.6304 173.419L82.6304 172.961L82.007 172.961C78.1008 172.639 77.5466 169.7 77.5466 169.7L77.5466 168.992C77.9216 169.615 78.7414 170.504 80.3791 170.523Z" fill="#242424"/>
<path fill-rule="evenodd" clip-rule="evenodd" d="M112.504 201.963C117.998 202.025 121.377 198.506 119.518 194.802C117.659 191.097 115.806 190.264 112.888 187.578C109.969 184.893 105.724 180.247 105.744 179.151C105.765 180.247 101.695 184.893 98.7755 187.578C95.8574 190.264 94.0057 191.097 92.1454 194.802C90.2866 198.506 93.6675 202.025 99.1596 201.963C102.93 201.921 104.627 199.755 105.319 198.401L105.319 200.173C105.319 200.173 104.116 206.566 95.6195 207.265L94.2652 207.265L94.2652 208.262L117.4 208.262L117.4 207.265L116.044 207.265C107.55 206.566 106.344 200.173 106.344 200.173L106.344 198.633C107.16 199.989 108.943 201.923 112.504 201.963Z" fill="#242424"/>
</g>
<rect x="65.0067" y="130.279" width="57.9836" height="81.6504" rx="6.50836" stroke="#15DB41" stroke-width="1.18334"/>
</g>
<g filter="url(#filter4_d_627_19626)">
<rect x="88.7109" y="141.983" width="58.5753" height="82.2421" rx="9.17088" fill="white" stroke="#ECECEC" stroke-width="0.591669" stroke-dasharray="4.73 4.73"/>
<g clip-path="url(#clip3_627_19626)">
<rect x="88.415" y="141.688" width="59.1669" height="82.8337" rx="7.10003" fill="url(#paint3_linear_627_19626)"/>
<path d="M98.8444 148.806V165.054H95.4966V148.806H98.8444ZM108.575 148.806L102.136 156.829L98.4203 160.824L97.8177 157.655L100.329 154.218L104.469 148.806H108.575ZM104.77 165.054L99.9826 157.544L102.46 155.468L108.731 165.054H104.77Z" fill="#EE3D3D"/>
<path fill-rule="evenodd" clip-rule="evenodd" d="M104.532 172.36C101.88 172.397 101.353 175.143 101.353 175.143C101.353 175.143 100.741 172.397 98.0887 172.36C95.4366 172.323 93.8045 174.438 94.7022 176.665C95.5998 178.891 96.4941 179.392 97.9034 181.006C99.3127 182.621 101.363 185.413 101.353 186.072C101.343 185.413 103.308 182.621 104.717 181.006C106.127 179.392 107.021 178.891 107.918 176.665C108.816 174.438 107.184 172.323 104.532 172.36Z" fill="#EE3D3D"/>
<path fill-rule="evenodd" clip-rule="evenodd" d="M136.838 191.861C131.071 191.942 129.924 197.914 129.924 197.914C129.924 197.914 128.593 191.942 122.826 191.861C117.058 191.781 113.509 196.381 115.461 201.223C117.413 206.065 119.358 207.154 122.423 210.665C125.488 214.175 129.946 220.248 129.924 221.68C129.902 220.248 134.176 214.175 137.241 210.665C140.306 207.154 142.251 206.065 144.203 201.223C146.155 196.381 142.605 191.781 136.838 191.861Z" fill="#EE3D3D"/>
</g>
<rect x="89.0067" y="142.279" width="57.9836" height="81.6504" rx="6.50836" stroke="#15DB41" stroke-width="1.18334"/>
</g>
<g filter="url(#filter5_d_627_19626)">
<rect x="111.711" y="151.983" width="58.5753" height="82.2421" rx="9.17088" fill="white" stroke="#ECECEC" stroke-width="0.591669" stroke-dasharray="4.73 4.73"/>
<g clip-path="url(#clip4_627_19626)">
<rect x="111.415" y="151.688" width="59.1669" height="82.8337" rx="7.10003" fill="url(#paint4_linear_627_19626)"/>
<path d="M121.141 172.61H121.353C122.246 172.61 123.012 172.502 123.652 172.286C124.299 172.063 124.831 171.743 125.248 171.327C125.665 170.91 125.973 170.4 126.174 169.798C126.375 169.188 126.475 168.496 126.475 167.722V164.642C126.475 164.054 126.416 163.537 126.297 163.091C126.185 162.645 126.022 162.276 125.806 161.986C125.598 161.689 125.352 161.466 125.069 161.317C124.794 161.168 124.489 161.094 124.154 161.094C123.797 161.094 123.481 161.183 123.206 161.361C122.931 161.532 122.696 161.767 122.503 162.064C122.317 162.362 122.172 162.704 122.068 163.091C121.971 163.47 121.922 163.868 121.922 164.285C121.922 164.702 121.971 165.1 122.068 165.479C122.164 165.851 122.309 166.182 122.503 166.472C122.696 166.755 122.938 166.982 123.228 167.153C123.518 167.317 123.86 167.398 124.255 167.398C124.634 167.398 124.973 167.328 125.27 167.186C125.575 167.038 125.832 166.844 126.04 166.606C126.256 166.368 126.42 166.104 126.531 165.814C126.65 165.524 126.71 165.23 126.71 164.932L127.77 165.513C127.77 166.033 127.658 166.547 127.435 167.053C127.212 167.558 126.899 168.02 126.498 168.436C126.103 168.845 125.646 169.173 125.125 169.418C124.604 169.664 124.046 169.787 123.451 169.787C122.692 169.787 122.019 169.649 121.431 169.374C120.844 169.091 120.345 168.704 119.936 168.213C119.534 167.715 119.229 167.134 119.021 166.472C118.813 165.81 118.709 165.092 118.709 164.319C118.709 163.53 118.835 162.79 119.088 162.098C119.348 161.406 119.717 160.796 120.193 160.268C120.676 159.74 121.253 159.327 121.922 159.029C122.599 158.724 123.351 158.572 124.177 158.572C125.002 158.572 125.754 158.732 126.431 159.051C127.108 159.371 127.688 159.825 128.172 160.413C128.655 160.993 129.027 161.689 129.288 162.5C129.555 163.311 129.689 164.211 129.689 165.2V166.316C129.689 167.372 129.574 168.354 129.343 169.262C129.12 170.17 128.782 170.992 128.328 171.728C127.881 172.457 127.324 173.082 126.654 173.603C125.992 174.124 125.222 174.522 124.344 174.797C123.466 175.072 122.484 175.21 121.398 175.21H121.141V172.61Z" fill="#EE3D3D"/>
<rect x="124.311" y="182.111" width="10.0469" height="10.0469" transform="rotate(45 124.311 182.111)" fill="#EE3D3D"/>
<rect x="152.832" y="201.321" width="21.8489" height="21.8489" transform="rotate(45 152.832 201.321)" fill="#EE3D3D"/>
</g>
<rect x="112.007" y="152.279" width="57.9836" height="81.6504" rx="6.50836" stroke="#15DB41" stroke-width="1.18334"/>
</g>
<rect x="89.8857" y="240.983" width="55.0584" height="21.1417" rx="10.3542" fill="white"/>
<path d="M95.6412 254.054V248.942C95.6412 248.534 95.7092 248.214 95.8452 247.982C95.9892 247.75 96.1852 247.59 96.4332 247.502C96.6812 247.406 96.9652 247.358 97.2852 247.358C97.5092 247.358 97.7092 247.382 97.8852 247.43C98.0612 247.47 98.2052 247.518 98.3172 247.574L98.0772 248.75C98.0132 248.734 97.9492 248.722 97.8852 248.714C97.8212 248.706 97.7692 248.702 97.7292 248.702C97.5772 248.702 97.4692 248.742 97.4052 248.822C97.3492 248.902 97.3212 249.018 97.3212 249.17V250.286C97.3212 250.486 97.3132 250.726 97.2972 251.006C97.2812 251.278 97.2532 251.622 97.2132 252.038H97.2732C97.4332 251.662 97.5732 251.362 97.6932 251.138C97.8212 250.906 97.9332 250.702 98.0292 250.526L98.4732 249.722H99.1452L99.5892 250.526C99.7012 250.718 99.7972 250.894 99.8772 251.054C99.9572 251.206 100.033 251.358 100.105 251.51C100.177 251.662 100.257 251.838 100.345 252.038H100.405C100.365 251.622 100.337 251.278 100.321 251.006C100.305 250.726 100.297 250.486 100.297 250.286V247.478H101.977V254.054H100.261L98.8332 251.438H98.7852L97.3572 254.054H95.6412ZM100.137 257.234C99.4966 257.234 99.0286 257.138 98.7326 256.946C98.4366 256.754 98.2886 256.502 98.2886 256.19V255.986C98.2886 255.85 98.2526 255.766 98.1806 255.734C98.1086 255.71 98.0126 255.714 97.8926 255.746L97.8086 254.942C97.9206 254.894 98.0646 254.862 98.2406 254.846C98.4166 254.83 98.5606 254.822 98.6726 254.822C99.0246 254.822 99.2806 254.886 99.4406 255.014C99.5926 255.142 99.6686 255.322 99.6686 255.554V255.83C99.6686 255.966 99.7006 256.07 99.7646 256.142C99.8206 256.222 99.9286 256.262 100.089 256.262C100.257 256.262 100.373 256.222 100.437 256.142C100.501 256.07 100.533 255.966 100.533 255.83V254.858H101.997V256.022C101.997 256.414 101.849 256.714 101.553 256.922C101.257 257.13 100.785 257.234 100.137 257.234ZM98.3606 246.578V245.978C98.4726 245.946 98.5966 245.902 98.7326 245.846C98.8686 245.79 98.9886 245.714 99.0926 245.618C99.1966 245.522 99.2486 245.402 99.2486 245.258C99.2486 245.146 99.2166 245.058 99.1526 244.994C99.0886 244.93 99.0086 244.898 98.9126 244.898C98.8486 244.898 98.7806 244.91 98.7086 244.934C98.6366 244.958 98.5726 244.982 98.5166 245.006L98.2886 244.202C98.4486 244.066 98.6486 243.978 98.8886 243.938C99.1206 243.89 99.3166 243.866 99.4766 243.866C99.8366 243.866 100.121 243.95 100.329 244.118C100.529 244.286 100.629 244.534 100.629 244.862C100.629 245.038 100.585 245.202 100.497 245.354C100.401 245.506 100.257 245.63 100.065 245.726L100.017 245.414H102.285V246.578H98.3606ZM105.609 254.174C105.249 254.174 104.945 254.118 104.697 254.006C104.449 253.894 104.261 253.726 104.133 253.502C104.005 253.27 103.941 252.982 103.941 252.638V247.478H105.741V252.422C105.741 252.574 105.773 252.686 105.837 252.758C105.909 252.83 106.017 252.866 106.161 252.866C106.225 252.866 106.293 252.858 106.365 252.842C106.437 252.826 106.505 252.806 106.569 252.782L106.737 253.934C106.585 254.014 106.413 254.074 106.221 254.114C106.029 254.154 105.825 254.174 105.609 254.174ZM111.548 254.054V249.782C111.548 249.398 111.444 249.122 111.236 248.954C111.028 248.786 110.708 248.702 110.276 248.702C109.86 248.702 109.452 248.766 109.052 248.894C108.66 249.014 108.32 249.158 108.032 249.326V247.838C108.264 247.726 108.592 247.614 109.016 247.502C109.44 247.382 109.932 247.322 110.492 247.322C110.9 247.322 111.272 247.366 111.608 247.454C111.952 247.534 112.252 247.674 112.508 247.874C112.764 248.066 112.96 248.326 113.096 248.654C113.24 248.974 113.312 249.374 113.312 249.854V254.054H111.548ZM109.58 254.174C108.892 254.174 108.36 254.01 107.984 253.682C107.616 253.354 107.432 252.894 107.432 252.302C107.432 251.662 107.66 251.15 108.116 250.766C108.58 250.382 109.308 250.15 110.3 250.07L111.836 249.95V251.246L110.504 251.378C110.024 251.426 109.688 251.522 109.496 251.666C109.312 251.81 109.22 252.002 109.22 252.242C109.22 252.482 109.296 252.662 109.448 252.782C109.608 252.902 109.812 252.962 110.06 252.962C110.156 252.962 110.252 252.954 110.348 252.938C110.444 252.914 110.532 252.89 110.612 252.866L110.768 253.994C110.616 254.05 110.436 254.094 110.228 254.126C110.02 254.158 109.804 254.174 109.58 254.174ZM111.471 246.566V243.842H113.127V246.566H111.471ZM117.231 254.174C116.743 254.174 116.331 254.082 115.995 253.898C115.667 253.706 115.415 253.422 115.239 253.046C115.071 252.67 114.987 252.21 114.987 251.666V247.478H116.787V251.354C116.787 251.794 116.875 252.114 117.051 252.314C117.227 252.514 117.483 252.614 117.819 252.614C118.243 252.614 118.571 252.454 118.803 252.134C119.035 251.806 119.151 251.302 119.151 250.622V247.478H120.951V254.054H119.583L119.391 253.046H119.283C119.147 253.366 118.911 253.634 118.575 253.85C118.247 254.066 117.799 254.174 117.231 254.174Z" fill="#484848"/>
<rect x="125.873" y="243.054" width="17" height="17" rx="8.5" fill="#15DB41"/>
<path d="M134.279 247.318C133.427 247.318 132.719 247.594 132.143 248.158C131.567 248.71 131.291 249.406 131.291 250.27C131.291 251.11 131.531 251.794 132.023 252.322C132.527 252.862 133.211 253.138 134.051 253.138C134.495 253.138 134.891 253.042 135.239 252.874C135.599 252.682 135.911 252.406 136.151 252.034H136.199C136.199 252.094 136.211 252.142 136.211 252.19C136.211 253.018 136.031 253.714 135.695 254.266C135.335 254.842 134.867 255.142 134.279 255.142C133.415 255.142 132.887 254.722 132.719 253.894H131.447C131.663 255.442 132.599 256.222 134.267 256.222C135.251 256.222 136.031 255.778 136.619 254.914C137.183 254.05 137.471 252.922 137.471 251.53C137.471 250.21 137.195 249.19 136.667 248.458C136.115 247.69 135.323 247.318 134.279 247.318ZM134.327 248.398C134.831 248.398 135.251 248.566 135.575 248.902C135.887 249.226 136.055 249.67 136.055 250.234C136.055 250.786 135.899 251.242 135.587 251.578C135.275 251.914 134.843 252.082 134.315 252.082C133.775 252.082 133.355 251.914 133.055 251.578C132.731 251.254 132.575 250.822 132.575 250.27C132.575 249.718 132.731 249.274 133.055 248.926C133.367 248.566 133.799 248.398 134.327 248.398Z" fill="#484848"/>
<rect x="89.8857" y="240.983" width="55.0584" height="21.1417" rx="10.3542" stroke="#ECECEC" stroke-width="0.591669"/>
<g filter="url(#filter6_d_627_19626)">
<rect x="260.165" y="129.983" width="58.5753" height="82.2421" rx="9.17088" fill="white" stroke="#ECECEC" stroke-width="0.591669" stroke-dasharray="4.73 4.73"/>
<g clip-path="url(#clip5_627_19626)">
<rect x="259.869" y="129.688" width="59.1669" height="82.8337" rx="7.10003" fill="url(#paint5_linear_627_19626)"/>
<path d="M275.164 150.643L279.561 154.125L277.452 155.955L273.122 152.473L275.164 150.643ZM279.672 144.55V145.32C279.672 146.555 279.505 147.664 279.17 148.646C278.843 149.628 278.37 150.465 277.753 151.157C277.135 151.841 276.406 152.366 275.566 152.73C274.725 153.095 273.791 153.277 272.765 153.277C271.745 153.277 270.812 153.095 269.964 152.73C269.116 152.366 268.383 151.841 267.765 151.157C267.148 150.465 266.668 149.628 266.326 148.646C265.991 147.664 265.824 146.555 265.824 145.32V144.55C265.824 143.308 265.991 142.2 266.326 141.225C266.668 140.243 267.144 139.406 267.754 138.714C268.364 138.022 269.093 137.494 269.941 137.13C270.789 136.765 271.723 136.583 272.742 136.583C273.769 136.583 274.703 136.765 275.543 137.13C276.391 137.494 277.124 138.022 277.742 138.714C278.359 139.406 278.835 140.243 279.17 141.225C279.505 142.2 279.672 143.308 279.672 144.55ZM276.291 145.32V144.528C276.291 143.665 276.209 142.906 276.045 142.252C275.889 141.597 275.659 141.046 275.354 140.6C275.056 140.154 274.688 139.819 274.249 139.596C273.81 139.365 273.308 139.25 272.742 139.25C272.177 139.25 271.675 139.365 271.236 139.596C270.797 139.819 270.429 140.154 270.131 140.6C269.833 141.046 269.607 141.597 269.45 142.252C269.294 142.906 269.216 143.665 269.216 144.528V145.32C269.216 146.176 269.294 146.935 269.45 147.597C269.607 148.252 269.833 148.806 270.131 149.26C270.436 149.706 270.808 150.044 271.247 150.275C271.693 150.506 272.199 150.621 272.765 150.621C273.33 150.621 273.828 150.506 274.26 150.275C274.699 150.044 275.067 149.706 275.365 149.26C275.67 148.806 275.9 148.252 276.057 147.597C276.213 146.935 276.291 146.176 276.291 145.32Z" fill="#242424"/>
<path fill-rule="evenodd" clip-rule="evenodd" d="M275.833 170.523C278.359 170.551 279.913 168.933 279.059 167.23C278.204 165.526 277.352 165.143 276.01 163.908C274.667 162.673 272.715 160.537 272.725 160.033C272.734 160.537 270.863 162.673 269.52 163.908C268.178 165.143 267.327 165.526 266.472 167.23C265.617 168.933 267.171 170.551 269.697 170.523C271.431 170.503 272.211 169.507 272.529 168.885L272.529 169.7C272.529 169.7 271.976 172.639 268.069 172.961L267.446 172.961L267.446 173.419L278.085 173.419L278.085 172.961L277.461 172.961C273.555 172.639 273.001 169.7 273.001 169.7L273.001 168.992C273.376 169.615 274.196 170.504 275.833 170.523Z" fill="#242424"/>
<path fill-rule="evenodd" clip-rule="evenodd" d="M307.958 201.963C313.452 202.025 316.831 198.506 314.972 194.802C313.113 191.097 311.26 190.264 308.342 187.578C305.423 184.893 301.178 180.247 301.198 179.151C301.219 180.247 297.149 184.893 294.23 187.578C291.312 190.264 289.46 191.097 287.6 194.802C285.741 198.506 289.122 202.025 294.614 201.963C298.384 201.921 300.081 199.755 300.774 198.401L300.774 200.173C300.774 200.173 299.57 206.566 291.074 207.265L289.719 207.265L289.719 208.262L312.854 208.262L312.854 207.265L311.498 207.265C303.004 206.566 301.798 200.173 301.798 200.173L301.798 198.633C302.614 199.989 304.397 201.923 307.958 201.963Z" fill="#242424"/>
</g>
<rect x="260.461" y="130.279" width="57.9836" height="81.6504" rx="6.50836" stroke="#15DB41" stroke-width="1.18334"/>
</g>
<g filter="url(#filter7_d_627_19626)">
<rect x="284.165" y="141.983" width="58.5753" height="82.2421" rx="9.17088" fill="white" stroke="#ECECEC" stroke-width="0.591669" stroke-dasharray="4.73 4.73"/>
<g clip-path="url(#clip6_627_19626)">
<rect x="283.869" y="141.688" width="59.1669" height="82.8337" rx="7.10003" fill="url(#paint6_linear_627_19626)"/>
<path d="M294.298 148.806V165.054H290.951V148.806H294.298ZM304.029 148.806L297.59 156.829L293.874 160.824L293.272 157.655L295.783 154.218L299.923 148.806H304.029ZM300.224 165.054L295.437 157.544L297.914 155.468L304.186 165.054H300.224Z" fill="#EE3D3D"/>
<path fill-rule="evenodd" clip-rule="evenodd" d="M299.986 172.36C297.334 172.397 296.807 175.143 296.807 175.143C296.807 175.143 296.195 172.397 293.543 172.36C290.891 172.323 289.259 174.438 290.156 176.665C291.054 178.891 291.948 179.392 293.358 181.006C294.767 182.621 296.817 185.413 296.807 186.072C296.797 185.413 298.762 182.621 300.171 181.006C301.581 179.392 302.475 178.891 303.373 176.665C304.27 174.438 302.638 172.323 299.986 172.36Z" fill="#EE3D3D"/>
<path fill-rule="evenodd" clip-rule="evenodd" d="M332.292 191.861C326.525 191.942 325.378 197.914 325.378 197.914C325.378 197.914 324.047 191.942 318.28 191.861C312.513 191.781 308.963 196.381 310.915 201.223C312.867 206.065 314.812 207.154 317.877 210.665C320.942 214.175 325.4 220.248 325.378 221.68C325.356 220.248 329.63 214.175 332.695 210.665C335.76 207.154 337.705 206.065 339.657 201.223C341.609 196.381 338.06 191.781 332.292 191.861Z" fill="#EE3D3D"/>
</g>
<rect x="284.461" y="142.279" width="57.9836" height="81.6504" rx="6.50836" stroke="#15DB41" stroke-width="1.18334"/>
</g>
<g filter="url(#filter8_d_627_19626)">
<rect x="307.165" y="151.983" width="58.5753" height="82.2421" rx="9.17088" fill="white" stroke="#ECECEC" stroke-width="0.591669" stroke-dasharray="4.73 4.73"/>
<g clip-path="url(#clip7_627_19626)">
<rect x="306.869" y="151.688" width="59.1669" height="82.8337" rx="7.10003" fill="url(#paint7_linear_627_19626)"/>
<path d="M316.595 172.61H316.807C317.7 172.61 318.466 172.502 319.106 172.286C319.753 172.063 320.285 171.743 320.702 171.327C321.119 170.91 321.427 170.4 321.628 169.798C321.829 169.188 321.93 168.496 321.93 167.722V164.642C321.93 164.054 321.87 163.537 321.751 163.091C321.639 162.645 321.476 162.276 321.26 161.986C321.052 161.689 320.806 161.466 320.523 161.317C320.248 161.168 319.943 161.094 319.608 161.094C319.251 161.094 318.935 161.183 318.66 161.361C318.385 161.532 318.15 161.767 317.957 162.064C317.771 162.362 317.626 162.704 317.522 163.091C317.425 163.47 317.377 163.868 317.377 164.285C317.377 164.702 317.425 165.1 317.522 165.479C317.618 165.851 317.763 166.182 317.957 166.472C318.15 166.755 318.392 166.982 318.682 167.153C318.972 167.317 319.315 167.398 319.709 167.398C320.088 167.398 320.427 167.328 320.724 167.186C321.029 167.038 321.286 166.844 321.494 166.606C321.71 166.368 321.874 166.104 321.985 165.814C322.104 165.524 322.164 165.23 322.164 164.932L323.224 165.513C323.224 166.033 323.112 166.547 322.889 167.053C322.666 167.558 322.354 168.02 321.952 168.436C321.558 168.845 321.1 169.173 320.579 169.418C320.059 169.664 319.501 169.787 318.905 169.787C318.147 169.787 317.473 169.649 316.886 169.374C316.298 169.091 315.799 168.704 315.39 168.213C314.989 167.715 314.683 167.134 314.475 166.472C314.267 165.81 314.163 165.092 314.163 164.319C314.163 163.53 314.289 162.79 314.542 162.098C314.803 161.406 315.171 160.796 315.647 160.268C316.13 159.74 316.707 159.327 317.377 159.029C318.054 158.724 318.805 158.572 319.631 158.572C320.457 158.572 321.208 158.732 321.885 159.051C322.562 159.371 323.142 159.825 323.626 160.413C324.109 160.993 324.481 161.689 324.742 162.5C325.009 163.311 325.143 164.211 325.143 165.2V166.316C325.143 167.372 325.028 168.354 324.797 169.262C324.574 170.17 324.236 170.992 323.782 171.728C323.336 172.457 322.778 173.082 322.108 173.603C321.446 174.124 320.676 174.522 319.798 174.797C318.92 175.072 317.938 175.21 316.852 175.21H316.595V172.61Z" fill="#EE3D3D"/>
<rect x="319.765" y="182.111" width="10.0469" height="10.0469" transform="rotate(45 319.765 182.111)" fill="#EE3D3D"/>
<rect x="348.286" y="201.321" width="21.8489" height="21.8489" transform="rotate(45 348.286 201.321)" fill="#EE3D3D"/>
</g>
<rect x="307.461" y="152.279" width="57.9836" height="81.6504" rx="6.50836" stroke="#15DB41" stroke-width="1.18334"/>
</g>
<rect x="276.34" y="240.983" width="73.0584" height="21.1417" rx="10.3542" fill="white"/>
<path d="M281.814 254.054V248.942C281.814 248.534 281.882 248.214 282.018 247.982C282.162 247.75 282.358 247.59 282.606 247.502C282.854 247.406 283.138 247.358 283.458 247.358C283.682 247.358 283.882 247.382 284.058 247.43C284.234 247.47 284.378 247.518 284.49 247.574L284.25 248.75C284.186 248.734 284.122 248.722 284.058 248.714C283.994 248.706 283.942 248.702 283.902 248.702C283.75 248.702 283.642 248.742 283.578 248.822C283.522 248.902 283.494 249.018 283.494 249.17V250.286C283.494 250.486 283.486 250.726 283.47 251.006C283.454 251.278 283.426 251.622 283.386 252.038H283.446C283.606 251.662 283.746 251.362 283.866 251.138C283.994 250.906 284.106 250.702 284.202 250.526L284.646 249.722H285.318L285.762 250.526C285.874 250.718 285.97 250.894 286.05 251.054C286.13 251.206 286.206 251.358 286.278 251.51C286.35 251.662 286.43 251.838 286.518 252.038H286.578C286.538 251.622 286.51 251.278 286.494 251.006C286.478 250.726 286.47 250.486 286.47 250.286V247.478H288.15V254.054H286.434L285.006 251.438H284.958L283.53 254.054H281.814ZM286.309 257.234C285.669 257.234 285.201 257.138 284.905 256.946C284.609 256.754 284.461 256.502 284.461 256.19V255.986C284.461 255.85 284.425 255.766 284.353 255.734C284.281 255.71 284.185 255.714 284.065 255.746L283.981 254.942C284.093 254.894 284.237 254.862 284.413 254.846C284.589 254.83 284.733 254.822 284.845 254.822C285.197 254.822 285.453 254.886 285.613 255.014C285.765 255.142 285.841 255.322 285.841 255.554V255.83C285.841 255.966 285.873 256.07 285.937 256.142C285.993 256.222 286.101 256.262 286.261 256.262C286.429 256.262 286.545 256.222 286.609 256.142C286.673 256.07 286.705 255.966 286.705 255.83V254.858H288.169V256.022C288.169 256.414 288.021 256.714 287.725 256.922C287.429 257.13 286.957 257.234 286.309 257.234ZM284.533 246.578V245.978C284.645 245.946 284.769 245.902 284.905 245.846C285.041 245.79 285.161 245.714 285.265 245.618C285.369 245.522 285.421 245.402 285.421 245.258C285.421 245.146 285.389 245.058 285.325 244.994C285.261 244.93 285.181 244.898 285.085 244.898C285.021 244.898 284.953 244.91 284.881 244.934C284.809 244.958 284.745 244.982 284.689 245.006L284.461 244.202C284.621 244.066 284.821 243.978 285.061 243.938C285.293 243.89 285.489 243.866 285.649 243.866C286.009 243.866 286.293 243.95 286.501 244.118C286.701 244.286 286.801 244.534 286.801 244.862C286.801 245.038 286.757 245.202 286.669 245.354C286.573 245.506 286.429 245.63 286.237 245.726L286.189 245.414H288.457V246.578H284.533ZM291.782 254.174C291.422 254.174 291.118 254.118 290.87 254.006C290.622 253.894 290.434 253.726 290.306 253.502C290.178 253.27 290.114 252.982 290.114 252.638V247.478H291.914V252.422C291.914 252.574 291.946 252.686 292.01 252.758C292.082 252.83 292.19 252.866 292.334 252.866C292.398 252.866 292.466 252.858 292.538 252.842C292.61 252.826 292.678 252.806 292.742 252.782L292.91 253.934C292.758 254.014 292.586 254.074 292.394 254.114C292.202 254.154 291.998 254.174 291.782 254.174ZM293.964 254.054V252.05C293.964 251.546 294.064 251.158 294.264 250.886C294.464 250.614 294.748 250.422 295.116 250.31L295.128 250.262L293.844 249.794V249.482C293.844 249.09 293.96 248.73 294.192 248.402C294.424 248.074 294.764 247.814 295.212 247.622C295.668 247.422 296.22 247.322 296.868 247.322C297.476 247.322 298 247.418 298.44 247.61C298.88 247.794 299.22 248.074 299.46 248.45C299.708 248.818 299.832 249.286 299.832 249.854V254.054H298.032V249.962C298.032 249.562 297.924 249.262 297.708 249.062C297.5 248.862 297.204 248.762 296.82 248.762C296.452 248.762 296.176 248.842 295.992 249.002C295.808 249.154 295.708 249.342 295.692 249.566L296.76 250.058L296.628 250.838C296.34 250.854 296.124 250.958 295.98 251.15C295.836 251.342 295.764 251.602 295.764 251.93V254.054H293.964ZM298.178 246.674C297.93 246.674 297.722 246.63 297.554 246.542C297.378 246.446 297.242 246.31 297.146 246.134L296.546 246.638C296.042 246.638 295.638 246.518 295.334 246.278C295.03 246.03 294.878 245.674 294.878 245.21C294.878 244.882 294.95 244.614 295.094 244.406C295.23 244.19 295.41 244.03 295.634 243.926C295.858 243.822 296.098 243.77 296.354 243.77H299.378V244.646H296.666C296.514 244.646 296.386 244.694 296.282 244.79C296.178 244.886 296.126 245.034 296.126 245.234C296.126 245.386 296.162 245.51 296.234 245.606C296.298 245.694 296.394 245.738 296.522 245.738L297.074 245.222H297.314C297.338 245.374 297.39 245.506 297.47 245.618C297.55 245.722 297.662 245.774 297.806 245.774C297.926 245.774 298.018 245.738 298.082 245.666C298.146 245.586 298.178 245.482 298.178 245.354V245.174H299.39V245.414C299.39 245.846 299.282 246.166 299.066 246.374C298.842 246.574 298.546 246.674 298.178 246.674ZM304.476 254.21C303.436 254.21 302.68 253.97 302.208 253.49C301.744 253.002 301.512 252.298 301.512 251.378V247.478H303.312V251.474C303.312 251.898 303.404 252.222 303.588 252.446C303.78 252.662 304.076 252.77 304.476 252.77C304.876 252.77 305.168 252.662 305.352 252.446C305.544 252.222 305.64 251.898 305.64 251.474V247.478H307.44V251.378C307.44 252.298 307.204 253.002 306.732 253.49C306.268 253.97 305.516 254.21 304.476 254.21ZM310.965 254.174C310.605 254.174 310.301 254.118 310.053 254.006C309.805 253.894 309.617 253.726 309.489 253.502C309.361 253.27 309.297 252.982 309.297 252.638V247.478H311.097V252.422C311.097 252.574 311.129 252.686 311.193 252.758C311.265 252.83 311.373 252.866 311.517 252.866C311.581 252.866 311.649 252.858 311.721 252.842C311.793 252.826 311.861 252.806 311.925 252.782L312.093 253.934C311.941 254.014 311.769 254.074 311.577 254.114C311.385 254.154 311.181 254.174 310.965 254.174ZM313.995 254.054L312.087 247.478H313.899L315.351 252.602H315.423C315.551 252.602 315.671 252.566 315.783 252.494C315.895 252.422 315.991 252.326 316.071 252.206C316.231 251.982 316.351 251.718 316.431 251.414C316.511 251.102 316.551 250.794 316.551 250.49C316.551 249.954 316.447 249.542 316.239 249.254C316.039 248.966 315.759 248.822 315.399 248.822C315.327 248.822 315.259 248.826 315.195 248.834C315.139 248.842 315.087 248.858 315.039 248.882L314.703 247.502C314.887 247.446 315.059 247.414 315.219 247.406C315.387 247.39 315.523 247.382 315.627 247.382C316.051 247.382 316.419 247.438 316.731 247.55C317.043 247.662 317.311 247.83 317.535 248.054C317.815 248.326 318.023 248.666 318.159 249.074C318.303 249.482 318.375 249.942 318.375 250.454C318.375 251.102 318.271 251.67 318.063 252.158C317.863 252.638 317.619 253.018 317.331 253.298C317.091 253.53 316.787 253.714 316.419 253.85C316.059 253.986 315.563 254.054 314.931 254.054H313.995ZM312.275 246.566V245.81L313.487 245.306H317.771V246.566H312.275ZM321.967 254.174C321.479 254.174 321.067 254.082 320.731 253.898C320.403 253.706 320.151 253.422 319.975 253.046C319.807 252.67 319.723 252.21 319.723 251.666V247.478H321.523V251.354C321.523 251.794 321.611 252.114 321.787 252.314C321.963 252.514 322.219 252.614 322.555 252.614C322.979 252.614 323.307 252.454 323.539 252.134C323.771 251.806 323.887 251.302 323.887 250.622V247.478H325.687V254.054H324.319L324.127 253.046H324.019C323.883 253.366 323.647 253.634 323.311 253.85C322.983 254.066 322.535 254.174 321.967 254.174Z" fill="#484848"/>
<rect x="330.327" y="243.054" width="17" height="17" rx="8.5" fill="#15DB41"/>
<path d="M338.733 247.318C337.881 247.318 337.173 247.594 336.597 248.158C336.021 248.71 335.745 249.406 335.745 250.27C335.745 251.11 335.985 251.794 336.477 252.322C336.981 252.862 337.665 253.138 338.505 253.138C338.949 253.138 339.345 253.042 339.693 252.874C340.053 252.682 340.365 252.406 340.605 252.034H340.653C340.653 252.094 340.665 252.142 340.665 252.19C340.665 253.018 340.485 253.714 340.149 254.266C339.789 254.842 339.321 255.142 338.733 255.142C337.869 255.142 337.341 254.722 337.173 253.894H335.901C336.117 255.442 337.053 256.222 338.721 256.222C339.705 256.222 340.485 255.778 341.073 254.914C341.637 254.05 341.925 252.922 341.925 251.53C341.925 250.21 341.649 249.19 341.121 248.458C340.569 247.69 339.777 247.318 338.733 247.318ZM338.781 248.398C339.285 248.398 339.705 248.566 340.029 248.902C340.341 249.226 340.509 249.67 340.509 250.234C340.509 250.786 340.353 251.242 340.041 251.578C339.729 251.914 339.297 252.082 338.769 252.082C338.229 252.082 337.809 251.914 337.509 251.578C337.185 251.254 337.029 250.822 337.029 250.27C337.029 249.718 337.185 249.274 337.509 248.926C337.821 248.566 338.253 248.398 338.781 248.398Z" fill="#484848"/>
<rect x="276.34" y="240.983" width="73.0584" height="21.1417" rx="10.3542" stroke="#ECECEC" stroke-width="0.591669"/>
<defs>
<filter id="filter0_di_627_19626" x="107.981" y="21.2977" width="214.322" height="112.881" filterUnits="userSpaceOnUse" color-interpolation-filters="sRGB">
<feFlood flood-opacity="0" result="BackgroundImageFix"/>
<feColorMatrix in="SourceAlpha" type="matrix" values="0 0 0 0 0 0 0 0 0 0 0 0 0 0 0 0 0 0 127 0" result="hardAlpha"/>
<feOffset dy="3.05085"/>
<feGaussianBlur stdDeviation="5.72034"/>
<feComposite in2="hardAlpha" operator="out"/>
<feColorMatrix type="matrix" values="0 0 0 0 0 0 0 0 0 0 0 0 0 0 0 0 0 0 0.25 0"/>
<feBlend mode="normal" in2="BackgroundImageFix" result="effect1_dropShadow_627_19626"/>
<feBlend mode="normal" in="SourceGraphic" in2="effect1_dropShadow_627_19626" result="shape"/>
<feColorMatrix in="SourceAlpha" type="matrix" values="0 0 0 0 0 0 0 0 0 0 0 0 0 0 0 0 0 0 127 0" result="hardAlpha"/>
<feOffset/>
<feGaussianBlur stdDeviation="7.62712"/>
<feComposite in2="hardAlpha" operator="arithmetic" k2="-1" k3="1"/>
<feColorMatrix type="matrix" values="0 0 0 0 1 0 0 0 0 0.841416 0 0 0 0 0.279167 0 0 0 1 0"/>
<feBlend mode="normal" in2="shape" result="effect2_innerShadow_627_19626"/>
</filter>
<filter id="filter1_d_627_19626" x="169.444" y="42.4844" width="92.1338" height="27.711" filterUnits="userSpaceOnUse" color-interpolation-filters="sRGB">
<feFlood flood-opacity="0" result="BackgroundImageFix"/>
<feColorMatrix in="SourceAlpha" type="matrix" values="0 0 0 0 0 0 0 0 0 0 0 0 0 0 0 0 0 0 127 0" result="hardAlpha"/>
<feOffset dy="3.05085"/>
<feComposite in2="hardAlpha" operator="out"/>
<feColorMatrix type="matrix" values="0 0 0 0 0 0 0 0 0 0 0 0 0 0 0 0 0 0 0.25 0"/>
<feBlend mode="normal" in2="BackgroundImageFix" result="effect1_dropShadow_627_19626"/>
<feBlend mode="normal" in="SourceGraphic" in2="effect1_dropShadow_627_19626" result="shape"/>
</filter>
<filter id="filter2_d_627_19626" x="189.168" y="72.209" width="53.333" height="16.6007" filterUnits="userSpaceOnUse" color-interpolation-filters="sRGB">
<feFlood flood-opacity="0" result="BackgroundImageFix"/>
<feColorMatrix in="SourceAlpha" type="matrix" values="0 0 0 0 0 0 0 0 0 0 0 0 0 0 0 0 0 0 127 0" result="hardAlpha"/>
<feOffset dy="3.05085"/>
<feComposite in2="hardAlpha" operator="out"/>
<feColorMatrix type="matrix" values="0 0 0 0 0 0 0 0 0 0 0 0 0 0 0 0 0 0 0.25 0"/>
<feBlend mode="normal" in2="BackgroundImageFix" result="effect1_dropShadow_627_19626"/>
<feBlend mode="normal" in="SourceGraphic" in2="effect1_dropShadow_627_19626" result="shape"/>
</filter>
<filter id="filter3_d_627_19626" x="59.5177" y="126.096" width="68.9616" height="92.6286" filterUnits="userSpaceOnUse" color-interpolation-filters="sRGB">
<feFlood flood-opacity="0" result="BackgroundImageFix"/>
<feColorMatrix in="SourceAlpha" type="matrix" values="0 0 0 0 0 0 0 0 0 0 0 0 0 0 0 0 0 0 127 0" result="hardAlpha"/>
<feOffset dy="1.30595"/>
<feGaussianBlur stdDeviation="2.44865"/>
<feComposite in2="hardAlpha" operator="out"/>
<feColorMatrix type="matrix" values="0 0 0 0 0 0 0 0 0 0 0 0 0 0 0 0 0 0 0.25 0"/>
<feBlend mode="normal" in2="BackgroundImageFix" result="effect1_dropShadow_627_19626"/>
<feBlend mode="normal" in="SourceGraphic" in2="effect1_dropShadow_627_19626" result="shape"/>
</filter>
<filter id="filter4_d_627_19626" x="83.5177" y="138.096" width="68.9616" height="92.6286" filterUnits="userSpaceOnUse" color-interpolation-filters="sRGB">
<feFlood flood-opacity="0" result="BackgroundImageFix"/>
<feColorMatrix in="SourceAlpha" type="matrix" values="0 0 0 0 0 0 0 0 0 0 0 0 0 0 0 0 0 0 127 0" result="hardAlpha"/>
<feOffset dy="1.30595"/>
<feGaussianBlur stdDeviation="2.44865"/>
<feComposite in2="hardAlpha" operator="out"/>
<feColorMatrix type="matrix" values="0 0 0 0 0 0 0 0 0 0 0 0 0 0 0 0 0 0 0.25 0"/>
<feBlend mode="normal" in2="BackgroundImageFix" result="effect1_dropShadow_627_19626"/>
<feBlend mode="normal" in="SourceGraphic" in2="effect1_dropShadow_627_19626" result="shape"/>
</filter>
<filter id="filter5_d_627_19626" x="106.518" y="148.096" width="68.9616" height="92.6286" filterUnits="userSpaceOnUse" color-interpolation-filters="sRGB">
<feFlood flood-opacity="0" result="BackgroundImageFix"/>
<feColorMatrix in="SourceAlpha" type="matrix" values="0 0 0 0 0 0 0 0 0 0 0 0 0 0 0 0 0 0 127 0" result="hardAlpha"/>
<feOffset dy="1.30595"/>
<feGaussianBlur stdDeviation="2.44865"/>
<feComposite in2="hardAlpha" operator="out"/>
<feColorMatrix type="matrix" values="0 0 0 0 0 0 0 0 0 0 0 0 0 0 0 0 0 0 0.25 0"/>
<feBlend mode="normal" in2="BackgroundImageFix" result="effect1_dropShadow_627_19626"/>
<feBlend mode="normal" in="SourceGraphic" in2="effect1_dropShadow_627_19626" result="shape"/>
</filter>
<filter id="filter6_d_627_19626" x="254.972" y="126.096" width="68.9616" height="92.6286" filterUnits="userSpaceOnUse" color-interpolation-filters="sRGB">
<feFlood flood-opacity="0" result="BackgroundImageFix"/>
<feColorMatrix in="SourceAlpha" type="matrix" values="0 0 0 0 0 0 0 0 0 0 0 0 0 0 0 0 0 0 127 0" result="hardAlpha"/>
<feOffset dy="1.30595"/>
<feGaussianBlur stdDeviation="2.44865"/>
<feComposite in2="hardAlpha" operator="out"/>
<feColorMatrix type="matrix" values="0 0 0 0 0 0 0 0 0 0 0 0 0 0 0 0 0 0 0.25 0"/>
<feBlend mode="normal" in2="BackgroundImageFix" result="effect1_dropShadow_627_19626"/>
<feBlend mode="normal" in="SourceGraphic" in2="effect1_dropShadow_627_19626" result="shape"/>
</filter>
<filter id="filter7_d_627_19626" x="278.972" y="138.096" width="68.9616" height="92.6286" filterUnits="userSpaceOnUse" color-interpolation-filters="sRGB">
<feFlood flood-opacity="0" result="BackgroundImageFix"/>
<feColorMatrix in="SourceAlpha" type="matrix" values="0 0 0 0 0 0 0 0 0 0 0 0 0 0 0 0 0 0 127 0" result="hardAlpha"/>
<feOffset dy="1.30595"/>
<feGaussianBlur stdDeviation="2.44865"/>
<feComposite in2="hardAlpha" operator="out"/>
<feColorMatrix type="matrix" values="0 0 0 0 0 0 0 0 0 0 0 0 0 0 0 0 0 0 0.25 0"/>
<feBlend mode="normal" in2="BackgroundImageFix" result="effect1_dropShadow_627_19626"/>
<feBlend mode="normal" in="SourceGraphic" in2="effect1_dropShadow_627_19626" result="shape"/>
</filter>
<filter id="filter8_d_627_19626" x="301.972" y="148.096" width="68.9616" height="92.6286" filterUnits="userSpaceOnUse" color-interpolation-filters="sRGB">
<feFlood flood-opacity="0" result="BackgroundImageFix"/>
<feColorMatrix in="SourceAlpha" type="matrix" values="0 0 0 0 0 0 0 0 0 0 0 0 0 0 0 0 0 0 127 0" result="hardAlpha"/>
<feOffset dy="1.30595"/>
<feGaussianBlur stdDeviation="2.44865"/>
<feComposite in2="hardAlpha" operator="out"/>
<feColorMatrix type="matrix" values="0 0 0 0 0 0 0 0 0 0 0 0 0 0 0 0 0 0 0.25 0"/>
<feBlend mode="normal" in2="BackgroundImageFix" result="effect1_dropShadow_627_19626"/>
<feBlend mode="normal" in="SourceGraphic" in2="effect1_dropShadow_627_19626" result="shape"/>
</filter>
<radialGradient id="paint0_radial_627_19626" cx="0" cy="0" r="1" gradientUnits="userSpaceOnUse" gradientTransform="translate(215.524 100.62) rotate(90) scale(95.339)">
<stop stop-color="#E78831" stop-opacity="0.2"/>
<stop offset="1" stop-color="#E78831" stop-opacity="0"/>
</radialGradient>
<linearGradient id="paint1_linear_627_19626" x1="215.142" y1="37.3145" x2="215.142" y2="60.9585" gradientUnits="userSpaceOnUse">
<stop offset="0.401042" stop-color="#FFDF8D"/>
<stop offset="0.666667" stop-color="#EFAC00"/>
</linearGradient>
<linearGradient id="paint2_linear_627_19626" x1="93.9985" y1="129.688" x2="93.9985" y2="212.521" gradientUnits="userSpaceOnUse">
<stop stop-color="#F9F9F9"/>
<stop offset="1" stop-color="#ECECEC"/>
</linearGradient>
<linearGradient id="paint3_linear_627_19626" x1="117.999" y1="141.688" x2="117.999" y2="224.521" gradientUnits="userSpaceOnUse">
<stop stop-color="#F9F9F9"/>
<stop offset="1" stop-color="#ECECEC"/>
</linearGradient>
<linearGradient id="paint4_linear_627_19626" x1="140.999" y1="151.688" x2="140.999" y2="234.521" gradientUnits="userSpaceOnUse">
<stop stop-color="#F9F9F9"/>
<stop offset="1" stop-color="#ECECEC"/>
</linearGradient>
<linearGradient id="paint5_linear_627_19626" x1="289.453" y1="129.688" x2="289.453" y2="212.521" gradientUnits="userSpaceOnUse">
<stop stop-color="#F9F9F9"/>
<stop offset="1" stop-color="#ECECEC"/>
</linearGradient>
<linearGradient id="paint6_linear_627_19626" x1="313.453" y1="141.688" x2="313.453" y2="224.521" gradientUnits="userSpaceOnUse">
<stop stop-color="#F9F9F9"/>
<stop offset="1" stop-color="#ECECEC"/>
</linearGradient>
<linearGradient id="paint7_linear_627_19626" x1="336.453" y1="151.688" x2="336.453" y2="234.521" gradientUnits="userSpaceOnUse">
<stop stop-color="#F9F9F9"/>
<stop offset="1" stop-color="#ECECEC"/>
</linearGradient>
<clipPath id="clip0_627_19626">
<rect x="119.422" y="29.6875" width="191.441" height="90" rx="22.8814" fill="white"/>
</clipPath>
<clipPath id="clip1_627_19626">
<rect width="13.7288" height="13.7288" fill="white" transform="translate(170.142 97.1787)"/>
</clipPath>
<clipPath id="clip2_627_19626">
<rect x="64.415" y="129.688" width="59.1669" height="82.8337" rx="7.10003" fill="white"/>
</clipPath>
<clipPath id="clip3_627_19626">
<rect x="88.415" y="141.688" width="59.1669" height="82.8337" rx="7.10003" fill="white"/>
</clipPath>
<clipPath id="clip4_627_19626">
<rect x="111.415" y="151.688" width="59.1669" height="82.8337" rx="7.10003" fill="white"/>
</clipPath>
<clipPath id="clip5_627_19626">
<rect x="259.869" y="129.688" width="59.1669" height="82.8337" rx="7.10003" fill="white"/>
</clipPath>
<clipPath id="clip6_627_19626">
<rect x="283.869" y="141.688" width="59.1669" height="82.8337" rx="7.10003" fill="white"/>
</clipPath>
<clipPath id="clip7_627_19626">
<rect x="306.869" y="151.688" width="59.1669" height="82.8337" rx="7.10003" fill="white"/>
</clipPath>
</defs>
</svg>
