<svg width="431" height="293" viewBox="0 0 431 293" fill="none" xmlns="http://www.w3.org/2000/svg">
<rect width="430.285" height="292.109" rx="10" fill="#0D131C"/>
<rect x="10" y="20" width="410.285" height="252.109" rx="3.87518" fill="#161F2C"/>
<g filter="url(#filter0_di_507_19329)">
<g clip-path="url(#clip0_507_19329)">
<rect x="119.422" y="29.6875" width="191.441" height="90" rx="22.8814" fill="#171717"/>
<path fill-rule="evenodd" clip-rule="evenodd" d="M215.524 100.619L215.524 100.62L120.185 76.7855L120.185 124.455L215.524 100.62L215.524 100.622L215.523 100.621L215.523 100.622L131.256 151.182L164.964 184.89L215.523 100.624L191.689 195.959H239.359L215.525 100.625L266.084 184.89L299.791 151.182L215.524 100.622L215.525 100.621L215.524 100.622L215.524 100.62L310.863 124.455V76.7855L215.524 100.62L215.524 100.619L215.525 100.619L215.524 100.618L215.524 100.618L299.791 50.058L266.084 16.3506L215.525 100.615L239.359 5.28125L191.689 5.28125L215.523 100.616L164.964 16.3506L131.256 50.058L215.523 100.618L215.523 100.619L215.524 100.619Z" fill="url(#paint0_radial_507_19329)"/>
<g filter="url(#filter1_d_507_19329)">
<path d="M194.674 41.9355H210.059V45.98H204.897V58.3145H199.836V45.98H194.674V41.9355ZM212.562 41.9355H217.634V58.3145H212.562V41.9355ZM221.265 41.9355H234.829V45.4325H226.337V48.0357H234.214V51.3763H226.337V54.6052H235.074V58.3145H221.265V41.9355Z" fill="url(#paint1_linear_507_19329)"/>
<path d="M194.674 41.9355V41.1728H193.912V41.9355H194.674ZM210.059 41.9355H210.822V41.1728H210.059V41.9355ZM210.059 45.98V46.7427H210.822V45.98H210.059ZM204.897 45.98V45.2173H204.135V45.98H204.897ZM204.897 58.3145V59.0772H205.66V58.3145H204.897ZM199.836 58.3145H199.073V59.0772H199.836V58.3145ZM199.836 45.98H200.599V45.2173H199.836V45.98ZM194.674 45.98H193.912V46.7427H194.674V45.98ZM194.674 42.6982H210.059V41.1728H194.674V42.6982ZM209.296 41.9355V45.98H210.822V41.9355H209.296ZM210.059 45.2173H204.897V46.7427H210.059V45.2173ZM204.135 45.98V58.3145H205.66V45.98H204.135ZM204.897 57.5517H199.836V59.0772H204.897V57.5517ZM200.599 58.3145V45.98H199.073V58.3145H200.599ZM199.836 45.2173H194.674V46.7427H199.836V45.2173ZM195.437 45.98V41.9355H193.912V45.98H195.437ZM212.562 41.9355V41.1728H211.799V41.9355H212.562ZM217.634 41.9355H218.397V41.1728H217.634V41.9355ZM217.634 58.3145V59.0772H218.397V58.3145H217.634ZM212.562 58.3145H211.799V59.0772H212.562V58.3145ZM212.562 42.6982H217.634V41.1728H212.562V42.6982ZM216.871 41.9355V58.3145H218.397V41.9355H216.871ZM217.634 57.5517H212.562V59.0772H217.634V57.5517ZM213.324 58.3145V41.9355H211.799V58.3145H213.324ZM221.265 41.9355V41.1728H220.502V41.9355H221.265ZM234.829 41.9355H235.591V41.1728H234.829V41.9355ZM234.829 45.4325V46.1952H235.591V45.4325H234.829ZM226.337 45.4325V44.6698H225.575V45.4325H226.337ZM226.337 48.0357H225.575V48.7984H226.337V48.0357ZM234.214 48.0357H234.977V47.273H234.214V48.0357ZM234.214 51.3763V52.139H234.977V51.3763H234.214ZM226.337 51.3763V50.6136H225.575V51.3763H226.337ZM226.337 54.6052H225.575V55.3679H226.337V54.6052ZM235.074 54.6052H235.837V53.8425H235.074V54.6052ZM235.074 58.3145V59.0772H235.837V58.3145H235.074ZM221.265 58.3145H220.502V59.0772H221.265V58.3145ZM221.265 42.6982H234.829V41.1728H221.265V42.6982ZM234.066 41.9355V45.4325H235.591V41.9355H234.066ZM234.829 44.6698H226.337V46.1952H234.829V44.6698ZM225.575 45.4325V48.0357H227.1V45.4325H225.575ZM226.337 48.7984H234.214V47.273H226.337V48.7984ZM233.451 48.0357V51.3763H234.977V48.0357H233.451ZM234.214 50.6136H226.337V52.139H234.214V50.6136ZM225.575 51.3763V54.6052H227.1V51.3763H225.575ZM226.337 55.3679H235.074V53.8425H226.337V55.3679ZM234.312 54.6052V58.3145H235.837V54.6052H234.312ZM235.074 57.5517H221.265V59.0772H235.074V57.5517ZM222.028 58.3145V41.9355H220.502V58.3145H222.028Z" fill="white"/>
</g>
<g filter="url(#filter2_d_507_19329)">
<path d="M196.677 72.2086V85.5352H192.994V76.8027C192.398 77.2556 191.82 77.622 191.26 77.9021C190.706 78.1821 190.009 78.4503 189.169 78.7065V75.7212C190.408 75.322 191.37 74.8423 192.056 74.2822C192.741 73.7221 193.277 73.0309 193.664 72.2086H196.677ZM200.994 81.8884H204.882V85.5352H200.994V81.8884ZM206.732 78.93C206.732 76.4392 207.179 74.6963 208.073 73.7012C208.972 72.7061 210.34 72.2086 212.175 72.2086C213.057 72.2086 213.781 72.3188 214.347 72.5393C214.913 72.7538 215.375 73.0368 215.732 73.3884C216.09 73.734 216.37 74.1004 216.573 74.4878C216.781 74.8691 216.948 75.316 217.073 75.8285C217.317 76.8057 217.44 77.8246 217.44 78.8853C217.44 81.2628 217.037 83.0027 216.233 84.1051C215.429 85.2074 214.043 85.7586 212.077 85.7586C210.974 85.7586 210.084 85.5828 209.404 85.2313C208.725 84.8797 208.168 84.3643 207.733 83.685C207.417 83.2023 207.17 82.5439 206.991 81.7097C206.818 80.8695 206.732 79.9429 206.732 78.93ZM210.343 78.9389C210.343 80.6073 210.489 81.7484 210.781 82.3622C211.079 82.9699 211.508 83.2738 212.068 83.2738C212.437 83.2738 212.756 83.1457 213.024 82.8895C213.298 82.6273 213.498 82.2162 213.623 81.6561C213.754 81.0959 213.82 80.223 213.82 79.0372C213.82 77.2973 213.671 76.1294 213.373 75.5335C213.081 74.9317 212.64 74.6308 212.05 74.6308C211.448 74.6308 211.013 74.9376 210.745 75.5514C210.477 76.1592 210.343 77.2883 210.343 78.9389ZM218.941 78.93C218.941 76.4392 219.388 74.6963 220.282 73.7012C221.182 72.7061 222.549 72.2086 224.384 72.2086C225.266 72.2086 225.99 72.3188 226.556 72.5393C227.122 72.7538 227.584 73.0368 227.942 73.3884C228.299 73.734 228.579 74.1004 228.782 74.4878C228.99 74.8691 229.157 75.316 229.282 75.8285C229.527 76.8057 229.649 77.8246 229.649 78.8853C229.649 81.2628 229.247 83.0027 228.442 84.1051C227.638 85.2074 226.252 85.7586 224.286 85.7586C223.184 85.7586 222.293 85.5828 221.614 85.2313C220.934 84.8797 220.377 84.3643 219.942 83.685C219.626 83.2023 219.379 82.5439 219.2 81.7097C219.028 80.8695 218.941 79.9429 218.941 78.93ZM222.552 78.9389C222.552 80.6073 222.698 81.7484 222.99 82.3622C223.288 82.9699 223.717 83.2738 224.277 83.2738C224.647 83.2738 224.965 83.1457 225.234 82.8895C225.508 82.6273 225.707 82.2162 225.832 81.6561C225.963 81.0959 226.029 80.223 226.029 79.0372C226.029 77.2973 225.88 76.1294 225.582 75.5335C225.29 74.9317 224.849 74.6308 224.259 74.6308C223.657 74.6308 223.222 74.9376 222.954 75.5514C222.686 76.1592 222.552 77.2883 222.552 78.9389ZM230.677 76.043H234.994L236.504 78.6886L238.256 76.043H242.269L239.034 80.5656L242.502 85.5352H238.256L236.504 82.4784L234.44 85.5352H230.498L233.948 80.5656L230.677 76.043Z" fill="#FFE08F"/>
</g>
<rect x="162.515" y="96.043" width="105.034" height="16" rx="8" fill="#3B3B3C"/>
<g clip-path="url(#clip1_507_19329)">
<path d="M183.665 105.704C182.748 109.381 179.024 111.619 175.346 110.702C171.67 109.785 169.432 106.06 170.349 102.383C171.265 98.7055 174.99 96.4673 178.666 97.3841C182.344 98.3009 184.582 102.026 183.665 105.704L183.665 105.704H183.665Z" fill="#F7931A"/>
<path d="M180.034 103.065C180.17 102.152 179.475 101.661 178.524 101.333L178.832 100.096L178.079 99.908L177.779 101.113C177.581 101.063 177.377 101.017 177.175 100.971L177.478 99.758L176.725 99.5703L176.416 100.807C176.252 100.77 176.092 100.733 175.935 100.694L175.936 100.69L174.897 100.431L174.697 101.236C174.697 101.236 175.256 101.364 175.244 101.372C175.549 101.448 175.604 101.65 175.595 101.81L175.244 103.219C175.265 103.225 175.292 103.232 175.322 103.244C175.297 103.238 175.27 103.231 175.242 103.225L174.75 105.2C174.713 105.292 174.618 105.431 174.405 105.379C174.412 105.389 173.857 105.242 173.857 105.242L173.483 106.104L174.464 106.348C174.646 106.394 174.825 106.442 175.001 106.487L174.689 107.739L175.441 107.926L175.75 106.688C175.955 106.744 176.155 106.795 176.35 106.844L176.043 108.076L176.796 108.264L177.108 107.015C178.392 107.258 179.358 107.16 179.764 105.998C180.092 105.063 179.748 104.523 179.072 104.171C179.564 104.058 179.935 103.734 180.034 103.065L180.034 103.065L180.034 103.065ZM178.313 105.479C178.08 106.414 176.505 105.908 175.994 105.782L176.408 104.123C176.919 104.251 178.556 104.503 178.313 105.479H178.313ZM178.546 103.052C178.333 103.903 177.023 103.47 176.597 103.364L176.972 101.86C177.398 101.966 178.767 102.164 178.546 103.052H178.546Z" fill="white"/>
</g>
<path d="M187.391 104.915C187.391 103.358 187.671 102.269 188.229 101.647C188.792 101.025 189.646 100.714 190.793 100.714C191.345 100.714 191.797 100.783 192.151 100.921C192.505 101.055 192.793 101.232 193.017 101.451C193.24 101.667 193.415 101.896 193.542 102.138C193.672 102.377 193.776 102.656 193.855 102.976C194.007 103.587 194.084 104.224 194.084 104.887C194.084 106.373 193.832 107.46 193.33 108.149C192.827 108.838 191.961 109.183 190.732 109.183C190.043 109.183 189.486 109.073 189.062 108.853C188.637 108.633 188.289 108.311 188.017 107.887C187.82 107.585 187.665 107.173 187.553 106.652C187.445 106.127 187.391 105.548 187.391 104.915ZM189.648 104.92C189.648 105.963 189.739 106.676 189.922 107.06C190.108 107.44 190.376 107.63 190.726 107.63C190.957 107.63 191.157 107.55 191.324 107.389C191.495 107.226 191.62 106.969 191.698 106.619C191.78 106.268 191.821 105.723 191.821 104.982C191.821 103.894 191.728 103.164 191.542 102.792C191.359 102.416 191.084 102.228 190.715 102.228C190.339 102.228 190.067 102.42 189.9 102.803C189.732 103.183 189.648 103.889 189.648 104.92ZM195.246 106.764H197.676V109.043H195.246V106.764ZM198.832 104.915C198.832 103.358 199.111 102.269 199.67 101.647C200.232 101.025 201.087 100.714 202.234 100.714C202.785 100.714 203.238 100.783 203.592 100.921C203.945 101.055 204.234 101.232 204.457 101.451C204.681 101.667 204.856 101.896 204.983 102.138C205.113 102.377 205.217 102.656 205.295 102.976C205.448 103.587 205.524 104.224 205.524 104.887C205.524 106.373 205.273 107.46 204.77 108.149C204.267 108.838 203.402 109.183 202.173 109.183C201.484 109.183 200.927 109.073 200.502 108.853C200.078 108.633 199.73 108.311 199.458 107.887C199.26 107.585 199.106 107.173 198.994 106.652C198.886 106.127 198.832 105.548 198.832 104.915ZM201.089 104.92C201.089 105.963 201.18 106.676 201.363 107.06C201.549 107.44 201.817 107.63 202.167 107.63C202.398 107.63 202.597 107.55 202.765 107.389C202.936 107.226 203.061 106.969 203.139 106.619C203.221 106.268 203.262 105.723 203.262 104.982C203.262 103.894 203.169 103.164 202.983 102.792C202.8 102.416 202.525 102.228 202.156 102.228C201.78 102.228 201.508 102.42 201.34 102.803C201.173 103.183 201.089 103.889 201.089 104.92ZM206.463 104.915C206.463 103.358 206.742 102.269 207.301 101.647C207.863 101.025 208.718 100.714 209.865 100.714C210.416 100.714 210.869 100.783 211.222 100.921C211.576 101.055 211.865 101.232 212.088 101.451C212.312 101.667 212.487 101.896 212.613 102.138C212.744 102.377 212.848 102.656 212.926 102.976C213.079 103.587 213.155 104.224 213.155 104.887C213.155 106.373 212.904 107.46 212.401 108.149C211.898 108.838 211.032 109.183 209.803 109.183C209.115 109.183 208.558 109.073 208.133 108.853C207.709 108.633 207.36 108.311 207.089 107.887C206.891 107.585 206.737 107.173 206.625 106.652C206.517 106.127 206.463 105.548 206.463 104.915ZM208.72 104.92C208.72 105.963 208.811 106.676 208.993 107.06C209.18 107.44 209.448 107.63 209.798 107.63C210.029 107.63 210.228 107.55 210.396 107.389C210.567 107.226 210.692 106.969 210.77 106.619C210.852 106.268 210.893 105.723 210.893 104.982C210.893 103.894 210.8 103.164 210.613 102.792C210.431 102.416 210.155 102.228 209.787 102.228C209.411 102.228 209.139 102.42 208.971 102.803C208.804 103.183 208.72 103.889 208.72 104.92ZM219.25 100.714V109.043H216.948V103.585C216.576 103.868 216.215 104.097 215.865 104.272C215.518 104.447 215.083 104.615 214.557 104.775V102.909C215.332 102.66 215.933 102.36 216.362 102.01C216.79 101.66 217.125 101.228 217.367 100.714H219.25ZM223.931 103.222L221.78 102.837C221.959 102.151 222.302 101.626 222.808 101.261C223.319 100.896 224.039 100.714 224.97 100.714C226.039 100.714 226.812 100.913 227.288 101.312C227.765 101.71 228.004 102.211 228.004 102.814C228.004 103.168 227.907 103.488 227.713 103.775C227.519 104.062 227.227 104.313 226.836 104.529C227.153 104.607 227.395 104.699 227.562 104.803C227.834 104.971 228.045 105.192 228.193 105.468C228.346 105.74 228.423 106.065 228.423 106.445C228.423 106.922 228.298 107.38 228.048 107.82C227.799 108.255 227.439 108.592 226.97 108.831C226.501 109.065 225.884 109.183 225.121 109.183C224.376 109.183 223.788 109.095 223.356 108.92C222.927 108.745 222.574 108.49 222.294 108.155C222.019 107.816 221.807 107.391 221.658 106.881L223.931 106.579C224.021 107.037 224.158 107.356 224.345 107.535C224.534 107.71 224.775 107.797 225.065 107.797C225.371 107.797 225.624 107.686 225.825 107.462C226.03 107.239 226.132 106.941 226.132 106.568C226.132 106.188 226.033 105.894 225.836 105.686C225.642 105.477 225.378 105.373 225.043 105.373C224.864 105.373 224.618 105.417 224.305 105.507L224.423 103.881C224.549 103.9 224.648 103.909 224.719 103.909C225.017 103.909 225.264 103.814 225.462 103.624C225.663 103.434 225.763 103.209 225.763 102.948C225.763 102.699 225.689 102.5 225.54 102.351C225.391 102.202 225.186 102.127 224.926 102.127C224.657 102.127 224.439 102.209 224.272 102.373C224.104 102.533 223.991 102.816 223.931 103.222ZM229.355 104.915C229.355 103.358 229.635 102.269 230.193 101.647C230.756 101.025 231.61 100.714 232.757 100.714C233.309 100.714 233.761 100.783 234.115 100.921C234.469 101.055 234.757 101.232 234.981 101.451C235.204 101.667 235.379 101.896 235.506 102.138C235.636 102.377 235.741 102.656 235.819 102.976C235.971 103.587 236.048 104.224 236.048 104.887C236.048 106.373 235.796 107.46 235.294 108.149C234.791 108.838 233.925 109.183 232.696 109.183C232.007 109.183 231.45 109.073 231.026 108.853C230.601 108.633 230.253 108.311 229.981 107.887C229.784 107.585 229.629 107.173 229.517 106.652C229.409 106.127 229.355 105.548 229.355 104.915ZM231.612 104.92C231.612 105.963 231.704 106.676 231.886 107.06C232.072 107.44 232.34 107.63 232.69 107.63C232.921 107.63 233.121 107.55 233.288 107.389C233.459 107.226 233.584 106.969 233.662 106.619C233.744 106.268 233.785 105.723 233.785 104.982C233.785 103.894 233.692 103.164 233.506 102.792C233.324 102.416 233.048 102.228 232.679 102.228C232.303 102.228 232.031 102.42 231.864 102.803C231.696 103.183 231.612 103.889 231.612 104.92ZM240.897 107.512H236.752V105.641L240.897 100.714H242.88V105.747H243.908V107.512H242.88V109.043H240.897V107.512ZM240.897 105.747V103.172L238.707 105.747H240.897ZM249.773 100.714V109.043H247.472V103.585C247.099 103.868 246.738 104.097 246.388 104.272C246.042 104.447 245.606 104.615 245.081 104.775V102.909C245.855 102.66 246.457 102.36 246.885 102.01C247.313 101.66 247.649 101.228 247.891 100.714H249.773ZM258.907 109.043H252.08C252.159 108.369 252.395 107.736 252.79 107.144C253.188 106.548 253.933 105.846 255.024 105.038C255.691 104.542 256.117 104.166 256.304 103.909C256.49 103.652 256.583 103.408 256.583 103.177C256.583 102.928 256.49 102.716 256.304 102.541C256.121 102.362 255.89 102.272 255.611 102.272C255.32 102.272 255.082 102.364 254.896 102.546C254.713 102.729 254.59 103.051 254.527 103.513L252.248 103.328C252.337 102.688 252.501 102.189 252.74 101.831C252.978 101.47 253.313 101.194 253.745 101.004C254.181 100.811 254.782 100.714 255.549 100.714C256.35 100.714 256.972 100.805 257.415 100.988C257.862 101.17 258.212 101.451 258.465 101.831C258.722 102.207 258.851 102.63 258.851 103.099C258.851 103.598 258.704 104.075 258.41 104.529C258.119 104.984 257.588 105.483 256.818 106.026C256.359 106.343 256.052 106.565 255.896 106.691C255.743 106.818 255.562 106.983 255.354 107.188H258.907V109.043Z" fill="white"/>
</g>
<rect x="120.185" y="30.4502" width="189.915" height="88.4746" rx="22.1186" stroke="#EFC046" stroke-width="1.52542"/>
</g>
<g filter="url(#filter3_d_507_19329)">
<rect x="64.7111" y="129.983" width="58.5753" height="82.2421" rx="9.17088" fill="#161F2C" stroke="#55657E" stroke-width="0.591669" stroke-dasharray="4.73 4.73"/>
<g clip-path="url(#clip2_507_19329)">
<rect x="64.4153" y="129.688" width="59.1669" height="82.8337" rx="7.10003" fill="url(#paint2_linear_507_19329)"/>
<path d="M79.7101 150.643L84.1069 154.125L81.9978 155.955L77.668 152.473L79.7101 150.643ZM84.2185 144.55V145.32C84.2185 146.555 84.0511 147.664 83.7163 148.646C83.389 149.628 82.9166 150.465 82.2991 151.157C81.6816 151.841 80.9525 152.366 80.1119 152.73C79.2712 153.095 78.3376 153.277 77.3109 153.277C76.2917 153.277 75.3581 153.095 74.51 152.73C73.6619 152.366 72.9291 151.841 72.3116 151.157C71.6941 150.465 71.2143 149.628 70.8721 148.646C70.5373 147.664 70.3699 146.555 70.3699 145.32V144.55C70.3699 143.308 70.5373 142.2 70.8721 141.225C71.2143 140.243 71.6904 139.406 72.3004 138.714C72.9105 138.022 73.6395 137.494 74.4876 137.13C75.3357 136.765 76.2694 136.583 77.2886 136.583C78.3152 136.583 79.2489 136.765 80.0896 137.13C80.9377 137.494 81.6704 138.022 82.2879 138.714C82.9054 139.406 83.3815 140.243 83.7163 141.225C84.0511 142.2 84.2185 143.308 84.2185 144.55ZM80.8372 145.32V144.528C80.8372 143.665 80.7554 142.906 80.5917 142.252C80.4355 141.597 80.2049 141.046 79.8998 140.6C79.6023 140.154 79.234 139.819 78.7951 139.596C78.3562 139.365 77.854 139.25 77.2886 139.25C76.7232 139.25 76.221 139.365 75.7821 139.596C75.3432 139.819 74.9749 140.154 74.6773 140.6C74.3798 141.046 74.1529 141.597 73.9966 142.252C73.8404 142.906 73.7623 143.665 73.7623 144.528V145.32C73.7623 146.176 73.8404 146.935 73.9966 147.597C74.1529 148.252 74.3798 148.806 74.6773 149.26C74.9824 149.706 75.3543 150.044 75.7933 150.275C76.2396 150.506 76.7455 150.621 77.3109 150.621C77.8763 150.621 78.3748 150.506 78.8062 150.275C79.2452 150.044 79.6134 149.706 79.911 149.26C80.216 148.806 80.4467 148.252 80.6029 147.597C80.7591 146.935 80.8372 146.176 80.8372 145.32Z" fill="#242424"/>
<path fill-rule="evenodd" clip-rule="evenodd" d="M80.3791 170.523C82.9052 170.551 84.4593 168.933 83.6045 167.23C82.7497 165.526 81.8976 165.143 80.5557 163.908C79.2133 162.673 77.2612 160.537 77.2704 160.033C77.2803 160.537 75.4086 162.673 74.0662 163.908C72.7243 165.143 71.8729 165.526 71.0174 167.23C70.1626 168.933 71.7173 170.551 74.2428 170.523C75.9767 170.503 76.757 169.507 77.0753 168.885L77.0753 169.7C77.0753 169.7 76.5217 172.639 72.6149 172.961L71.9921 172.961L71.9921 173.419L82.6304 173.419L82.6304 172.961L82.007 172.961C78.1008 172.639 77.5466 169.7 77.5466 169.7L77.5466 168.992C77.9216 169.615 78.7414 170.504 80.3791 170.523Z" fill="#242424"/>
<path fill-rule="evenodd" clip-rule="evenodd" d="M112.505 201.963C117.998 202.025 121.377 198.506 119.519 194.802C117.66 191.097 115.807 190.264 112.889 187.578C109.969 184.893 105.724 180.247 105.744 179.151C105.766 180.247 101.695 184.893 98.7758 187.578C95.8578 190.264 94.0061 191.097 92.1458 194.802C90.2869 198.506 93.6679 202.025 99.1599 201.963C102.931 201.921 104.628 199.755 105.32 198.401L105.32 200.173C105.32 200.173 104.116 206.566 95.6199 207.265L94.2655 207.265L94.2655 208.262L117.4 208.262L117.4 207.265L116.045 207.265C107.55 206.566 106.345 200.173 106.345 200.173L106.345 198.633C107.16 199.989 108.943 201.923 112.505 201.963Z" fill="#242424"/>
</g>
<rect x="65.007" y="130.279" width="57.9836" height="81.6504" rx="6.50836" stroke="#15DB41" stroke-width="1.18334"/>
</g>
<g filter="url(#filter4_d_507_19329)">
<rect x="88.7112" y="141.983" width="58.5753" height="82.2421" rx="9.17088" fill="#161F2C" stroke="#55657E" stroke-width="0.591669" stroke-dasharray="4.73 4.73"/>
<g clip-path="url(#clip3_507_19329)">
<rect x="88.4154" y="141.688" width="59.1669" height="82.8337" rx="7.10003" fill="url(#paint3_linear_507_19329)"/>
<path d="M98.8449 148.806V165.054H95.4971V148.806H98.8449ZM108.576 148.806L102.137 156.829L98.4208 160.824L97.8182 157.655L100.329 154.218L104.469 148.806H108.576ZM104.77 165.054L99.9831 157.544L102.46 155.468L108.732 165.054H104.77Z" fill="#EE3D3D"/>
<path fill-rule="evenodd" clip-rule="evenodd" d="M104.533 172.36C101.881 172.397 101.353 175.143 101.353 175.143C101.353 175.143 100.741 172.397 98.0894 172.36C95.4373 172.323 93.8053 174.438 94.7029 176.665C95.6005 178.891 96.4949 179.392 97.9042 181.006C99.3134 182.621 101.364 185.413 101.353 186.072C101.343 185.413 103.309 182.621 104.718 181.006C106.127 179.392 107.022 178.891 107.919 176.665C108.817 174.438 107.185 172.323 104.533 172.36Z" fill="#EE3D3D"/>
<path fill-rule="evenodd" clip-rule="evenodd" d="M136.839 191.861C131.071 191.942 129.925 197.914 129.925 197.914C129.925 197.914 128.594 191.942 122.827 191.861C117.059 191.781 113.51 196.381 115.462 201.223C117.414 206.065 119.359 207.154 122.424 210.665C125.488 214.175 129.947 220.248 129.925 221.68C129.903 220.248 134.177 214.175 137.241 210.665C140.306 207.154 142.251 206.065 144.203 201.223C146.155 196.381 142.606 191.781 136.839 191.861Z" fill="#EE3D3D"/>
</g>
<rect x="89.0071" y="142.279" width="57.9836" height="81.6504" rx="6.50836" stroke="#15DB41" stroke-width="1.18334"/>
</g>
<g filter="url(#filter5_d_507_19329)">
<rect x="111.711" y="151.983" width="58.5753" height="82.2421" rx="9.17088" fill="#161F2C" stroke="#55657E" stroke-width="0.591669" stroke-dasharray="4.73 4.73"/>
<g clip-path="url(#clip4_507_19329)">
<rect x="111.415" y="151.688" width="59.1669" height="82.8337" rx="7.10003" fill="url(#paint4_linear_507_19329)"/>
<path d="M121.142 172.61H121.354C122.246 172.61 123.013 172.502 123.652 172.286C124.3 172.063 124.832 171.743 125.248 171.327C125.665 170.91 125.974 170.4 126.174 169.798C126.375 169.188 126.476 168.496 126.476 167.722V164.642C126.476 164.054 126.416 163.537 126.297 163.091C126.186 162.645 126.022 162.276 125.806 161.986C125.598 161.689 125.352 161.466 125.07 161.317C124.794 161.168 124.489 161.094 124.155 161.094C123.797 161.094 123.481 161.183 123.206 161.361C122.931 161.532 122.696 161.767 122.503 162.064C122.317 162.362 122.172 162.704 122.068 163.091C121.971 163.47 121.923 163.868 121.923 164.285C121.923 164.702 121.971 165.1 122.068 165.479C122.165 165.851 122.31 166.182 122.503 166.472C122.696 166.755 122.938 166.982 123.228 167.153C123.518 167.317 123.861 167.398 124.255 167.398C124.634 167.398 124.973 167.328 125.27 167.186C125.576 167.038 125.832 166.844 126.04 166.606C126.256 166.368 126.42 166.104 126.531 165.814C126.651 165.524 126.71 165.23 126.71 164.932L127.77 165.513C127.77 166.033 127.659 166.547 127.435 167.053C127.212 167.558 126.9 168.02 126.498 168.436C126.104 168.845 125.646 169.173 125.125 169.418C124.605 169.664 124.047 169.787 123.452 169.787C122.693 169.787 122.019 169.649 121.432 169.374C120.844 169.091 120.346 168.704 119.936 168.213C119.535 167.715 119.23 167.134 119.021 166.472C118.813 165.81 118.709 165.092 118.709 164.319C118.709 163.53 118.835 162.79 119.088 162.098C119.349 161.406 119.717 160.796 120.193 160.268C120.677 159.74 121.253 159.327 121.923 159.029C122.6 158.724 123.351 158.572 124.177 158.572C125.003 158.572 125.754 158.732 126.431 159.051C127.108 159.371 127.688 159.825 128.172 160.413C128.655 160.993 129.027 161.689 129.288 162.5C129.556 163.311 129.69 164.211 129.69 165.2V166.316C129.69 167.372 129.574 168.354 129.344 169.262C129.12 170.17 128.782 170.992 128.328 171.728C127.882 172.457 127.324 173.082 126.654 173.603C125.992 174.124 125.222 174.522 124.344 174.797C123.466 175.072 122.484 175.21 121.398 175.21H121.142V172.61Z" fill="#EE3D3D"/>
<rect x="124.311" y="182.111" width="10.0469" height="10.0469" transform="rotate(45 124.311 182.111)" fill="#EE3D3D"/>
<rect x="152.832" y="201.321" width="21.8489" height="21.8489" transform="rotate(45 152.832 201.321)" fill="#EE3D3D"/>
</g>
<rect x="112.007" y="152.279" width="57.9836" height="81.6504" rx="6.50836" stroke="#15DB41" stroke-width="1.18334"/>
</g>
<rect x="79.886" y="240.983" width="75.0584" height="21.1417" rx="10.3542" fill="#161F2C"/>
<path d="M85.4273 247.486H88.9793C91.0513 247.486 92.0873 248.362 92.0873 250.114C92.0873 251.882 91.0433 252.766 88.9553 252.766H86.8313V256.054H85.4273V247.486ZM86.8313 248.686V251.566H88.8713C89.4873 251.566 89.9433 251.454 90.2393 251.23C90.5273 250.998 90.6713 250.626 90.6713 250.114C90.6713 249.61 90.5233 249.246 90.2273 249.022C89.9473 248.798 89.4953 248.686 88.8713 248.686H86.8313ZM93.2906 247.486H94.6826V254.854H99.3146V256.054H93.2906V247.486ZM102.828 247.486H104.424L107.7 256.054H106.2L105.42 253.906H101.832L101.052 256.054H99.5521L102.828 247.486ZM102.252 252.754H105L103.656 248.998H103.608L102.252 252.754ZM107.757 247.486H109.449L111.849 251.338L114.237 247.486H115.929L112.545 252.646V256.054H111.141V252.646L107.757 247.486ZM116.834 247.486H123.014V248.686H118.238V251.062H122.726V252.262H118.238V254.854H123.218V256.054H116.834V247.486ZM124.533 247.486H128.349C129.237 247.486 129.929 247.682 130.425 248.074C130.961 248.514 131.229 249.138 131.229 249.946C131.229 250.386 131.109 250.782 130.869 251.134C130.605 251.518 130.241 251.77 129.777 251.89V251.914C130.521 252.082 130.941 252.582 131.037 253.414L131.181 254.794C131.229 255.314 131.401 255.734 131.697 256.054H130.173C129.973 255.798 129.849 255.426 129.801 254.938L129.693 253.882C129.645 253.41 129.501 253.074 129.261 252.874C129.021 252.666 128.653 252.562 128.157 252.562H125.937V256.054H124.533V247.486ZM125.937 248.686V251.362H128.157C128.701 251.362 129.121 251.246 129.417 251.014C129.681 250.774 129.813 250.438 129.813 250.006C129.813 249.534 129.681 249.198 129.417 248.998C129.161 248.79 128.741 248.686 128.157 248.686H125.937Z" fill="white"/>
<rect x="135.874" y="243.054" width="17" height="17" rx="8.5" fill="#15DB41"/>
<path d="M144.28 247.318C143.428 247.318 142.72 247.594 142.144 248.158C141.568 248.71 141.292 249.406 141.292 250.27C141.292 251.11 141.532 251.794 142.024 252.322C142.528 252.862 143.212 253.138 144.052 253.138C144.496 253.138 144.892 253.042 145.24 252.874C145.6 252.682 145.912 252.406 146.152 252.034H146.2C146.2 252.094 146.212 252.142 146.212 252.19C146.212 253.018 146.032 253.714 145.696 254.266C145.336 254.842 144.868 255.142 144.28 255.142C143.416 255.142 142.888 254.722 142.72 253.894H141.448C141.664 255.442 142.6 256.222 144.268 256.222C145.252 256.222 146.032 255.778 146.62 254.914C147.184 254.05 147.472 252.922 147.472 251.53C147.472 250.21 147.196 249.19 146.668 248.458C146.116 247.69 145.324 247.318 144.28 247.318ZM144.328 248.398C144.832 248.398 145.252 248.566 145.576 248.902C145.888 249.226 146.056 249.67 146.056 250.234C146.056 250.786 145.9 251.242 145.588 251.578C145.276 251.914 144.844 252.082 144.316 252.082C143.776 252.082 143.356 251.914 143.056 251.578C142.732 251.254 142.576 250.822 142.576 250.27C142.576 249.718 142.732 249.274 143.056 248.926C143.368 248.566 143.8 248.398 144.328 248.398Z" fill="#484848"/>
<rect x="79.886" y="240.983" width="75.0584" height="21.1417" rx="10.3542" stroke="#55657E" stroke-width="0.591669"/>
<g filter="url(#filter6_d_507_19329)">
<rect x="260.165" y="129.983" width="58.5753" height="82.2421" rx="9.17088" fill="#161F2C" stroke="#55657E" stroke-width="0.591669" stroke-dasharray="4.73 4.73"/>
<g clip-path="url(#clip5_507_19329)">
<rect x="259.87" y="129.688" width="59.1669" height="82.8337" rx="7.10003" fill="url(#paint5_linear_507_19329)"/>
<path d="M275.164 150.643L279.561 154.125L277.452 155.955L273.122 152.473L275.164 150.643ZM279.673 144.55V145.32C279.673 146.555 279.505 147.664 279.171 148.646C278.843 149.628 278.371 150.465 277.753 151.157C277.136 151.841 276.407 152.366 275.566 152.73C274.725 153.095 273.792 153.277 272.765 153.277C271.746 153.277 270.812 153.095 269.964 152.73C269.116 152.366 268.383 151.841 267.766 151.157C267.148 150.465 266.668 149.628 266.326 148.646C265.991 147.664 265.824 146.555 265.824 145.32V144.55C265.824 143.308 265.991 142.2 266.326 141.225C266.668 140.243 267.145 139.406 267.755 138.714C268.365 138.022 269.094 137.494 269.942 137.13C270.79 136.765 271.724 136.583 272.743 136.583C273.769 136.583 274.703 136.765 275.544 137.13C276.392 137.494 277.125 138.022 277.742 138.714C278.36 139.406 278.836 140.243 279.171 141.225C279.505 142.2 279.673 143.308 279.673 144.55ZM276.291 145.32V144.528C276.291 143.665 276.21 142.906 276.046 142.252C275.89 141.597 275.659 141.046 275.354 140.6C275.056 140.154 274.688 139.819 274.249 139.596C273.81 139.365 273.308 139.25 272.743 139.25C272.177 139.25 271.675 139.365 271.236 139.596C270.797 139.819 270.429 140.154 270.132 140.6C269.834 141.046 269.607 141.597 269.451 142.252C269.295 142.906 269.217 143.665 269.217 144.528V145.32C269.217 146.176 269.295 146.935 269.451 147.597C269.607 148.252 269.834 148.806 270.132 149.26C270.437 149.706 270.809 150.044 271.247 150.275C271.694 150.506 272.2 150.621 272.765 150.621C273.331 150.621 273.829 150.506 274.26 150.275C274.699 150.044 275.068 149.706 275.365 149.26C275.67 148.806 275.901 148.252 276.057 147.597C276.213 146.935 276.291 146.176 276.291 145.32Z" fill="#242424"/>
<path fill-rule="evenodd" clip-rule="evenodd" d="M275.833 170.523C278.359 170.551 279.913 168.933 279.059 167.23C278.204 165.526 277.352 165.143 276.01 163.908C274.667 162.673 272.715 160.537 272.725 160.033C272.734 160.537 270.863 162.673 269.52 163.908C268.178 165.143 267.327 165.526 266.472 167.23C265.617 168.933 267.171 170.551 269.697 170.523C271.431 170.503 272.211 169.507 272.529 168.885L272.529 169.7C272.529 169.7 271.976 172.639 268.069 172.961L267.446 172.961L267.446 173.419L278.085 173.419L278.085 172.961L277.461 172.961C273.555 172.639 273.001 169.7 273.001 169.7L273.001 168.992C273.376 169.615 274.196 170.504 275.833 170.523Z" fill="#242424"/>
<path fill-rule="evenodd" clip-rule="evenodd" d="M307.959 201.963C313.452 202.025 316.832 198.506 314.973 194.802C313.114 191.097 311.261 190.264 308.343 187.578C305.423 184.893 301.178 180.247 301.198 179.151C301.22 180.247 297.149 184.893 294.23 187.578C291.312 190.264 289.46 191.097 287.6 194.802C285.741 198.506 289.122 202.025 294.614 201.963C298.385 201.921 300.082 199.755 300.774 198.401L300.774 200.173C300.774 200.173 299.57 206.566 291.074 207.265L289.72 207.265L289.72 208.262L312.855 208.262L312.855 207.265L311.499 207.265C303.004 206.566 301.799 200.173 301.799 200.173L301.799 198.633C302.614 199.989 304.397 201.923 307.959 201.963Z" fill="#242424"/>
</g>
<rect x="260.461" y="130.279" width="57.9836" height="81.6504" rx="6.50836" stroke="#15DB41" stroke-width="1.18334"/>
</g>
<g filter="url(#filter7_d_507_19329)">
<rect x="284.165" y="141.983" width="58.5753" height="82.2421" rx="9.17088" fill="#161F2C" stroke="#55657E" stroke-width="0.591669" stroke-dasharray="4.73 4.73"/>
<g clip-path="url(#clip6_507_19329)">
<rect x="283.87" y="141.688" width="59.1669" height="82.8337" rx="7.10003" fill="url(#paint6_linear_507_19329)"/>
<path d="M294.299 148.806V165.054H290.951V148.806H294.299ZM304.03 148.806L297.591 156.829L293.875 160.824L293.272 157.655L295.783 154.218L299.923 148.806H304.03ZM300.224 165.054L295.437 157.544L297.915 155.468L304.186 165.054H300.224Z" fill="#EE3D3D"/>
<path fill-rule="evenodd" clip-rule="evenodd" d="M299.987 172.36C297.335 172.397 296.808 175.143 296.808 175.143C296.808 175.143 296.196 172.397 293.544 172.36C290.891 172.323 289.259 174.438 290.157 176.665C291.055 178.891 291.949 179.392 293.358 181.006C294.768 182.621 296.818 185.413 296.808 186.072C296.797 185.413 298.763 182.621 300.172 181.006C301.581 179.392 302.476 178.891 303.373 176.665C304.271 174.438 302.639 172.323 299.987 172.36Z" fill="#EE3D3D"/>
<path fill-rule="evenodd" clip-rule="evenodd" d="M332.293 191.861C326.526 191.942 325.379 197.914 325.379 197.914C325.379 197.914 324.048 191.942 318.281 191.861C312.513 191.781 308.964 196.381 310.916 201.223C312.868 206.065 314.813 207.154 317.878 210.665C320.943 214.175 325.401 220.248 325.379 221.68C325.357 220.248 329.631 214.175 332.696 210.665C335.76 207.154 337.705 206.065 339.657 201.223C341.609 196.381 338.06 191.781 332.293 191.861Z" fill="#EE3D3D"/>
</g>
<rect x="284.461" y="142.279" width="57.9836" height="81.6504" rx="6.50836" stroke="#15DB41" stroke-width="1.18334"/>
</g>
<g filter="url(#filter8_d_507_19329)">
<rect x="307.165" y="151.983" width="58.5753" height="82.2421" rx="9.17088" fill="#161F2C" stroke="#55657E" stroke-width="0.591669" stroke-dasharray="4.73 4.73"/>
<g clip-path="url(#clip7_507_19329)">
<rect x="306.87" y="151.688" width="59.1669" height="82.8337" rx="7.10003" fill="url(#paint7_linear_507_19329)"/>
<path d="M316.596 172.61H316.808C317.701 172.61 318.467 172.502 319.107 172.286C319.754 172.063 320.286 171.743 320.703 171.327C321.119 170.91 321.428 170.4 321.629 169.798C321.83 169.188 321.93 168.496 321.93 167.722V164.642C321.93 164.054 321.871 163.537 321.751 163.091C321.64 162.645 321.476 162.276 321.26 161.986C321.052 161.689 320.807 161.466 320.524 161.317C320.249 161.168 319.944 161.094 319.609 161.094C319.252 161.094 318.936 161.183 318.66 161.361C318.385 161.532 318.151 161.767 317.957 162.064C317.771 162.362 317.626 162.704 317.522 163.091C317.425 163.47 317.377 163.868 317.377 164.285C317.377 164.702 317.425 165.1 317.522 165.479C317.619 165.851 317.764 166.182 317.957 166.472C318.151 166.755 318.393 166.982 318.683 167.153C318.973 167.317 319.315 167.398 319.709 167.398C320.089 167.398 320.427 167.328 320.725 167.186C321.03 167.038 321.287 166.844 321.495 166.606C321.711 166.368 321.874 166.104 321.986 165.814C322.105 165.524 322.164 165.23 322.164 164.932L323.224 165.513C323.224 166.033 323.113 166.547 322.89 167.053C322.667 167.558 322.354 168.02 321.952 168.436C321.558 168.845 321.101 169.173 320.58 169.418C320.059 169.664 319.501 169.787 318.906 169.787C318.147 169.787 317.474 169.649 316.886 169.374C316.298 169.091 315.8 168.704 315.391 168.213C314.989 167.715 314.684 167.134 314.476 166.472C314.267 165.81 314.163 165.092 314.163 164.319C314.163 163.53 314.29 162.79 314.543 162.098C314.803 161.406 315.171 160.796 315.647 160.268C316.131 159.74 316.708 159.327 317.377 159.029C318.054 158.724 318.805 158.572 319.631 158.572C320.457 158.572 321.208 158.732 321.885 159.051C322.562 159.371 323.143 159.825 323.626 160.413C324.11 160.993 324.482 161.689 324.742 162.5C325.01 163.311 325.144 164.211 325.144 165.2V166.316C325.144 167.372 325.029 168.354 324.798 169.262C324.575 170.17 324.236 170.992 323.782 171.728C323.336 172.457 322.778 173.082 322.109 173.603C321.446 174.124 320.676 174.522 319.799 174.797C318.921 175.072 317.939 175.21 316.853 175.21H316.596V172.61Z" fill="#EE3D3D"/>
<rect x="319.765" y="182.111" width="10.0469" height="10.0469" transform="rotate(45 319.765 182.111)" fill="#EE3D3D"/>
<rect x="348.286" y="201.321" width="21.8489" height="21.8489" transform="rotate(45 348.286 201.321)" fill="#EE3D3D"/>
</g>
<rect x="307.461" y="152.279" width="57.9836" height="81.6504" rx="6.50836" stroke="#15DB41" stroke-width="1.18334"/>
</g>
<rect x="274.341" y="240.983" width="77.0584" height="21.1417" rx="10.3542" fill="#161F2C"/>
<path d="M279.839 247.486V256.054H283.751C284.663 256.054 285.371 255.886 285.875 255.55C286.463 255.142 286.763 254.518 286.763 253.654C286.763 253.078 286.619 252.61 286.331 252.262C286.043 251.914 285.611 251.686 285.047 251.578C285.479 251.422 285.803 251.182 286.043 250.87C286.283 250.534 286.403 250.126 286.403 249.646C286.403 248.986 286.175 248.47 285.719 248.086C285.239 247.678 284.591 247.486 283.751 247.486H279.839ZM281.147 248.566H283.427C284.003 248.566 284.435 248.662 284.699 248.866C284.963 249.058 285.095 249.37 285.095 249.802C285.095 250.258 284.963 250.594 284.699 250.81C284.435 251.014 284.003 251.122 283.403 251.122H281.147V248.566ZM281.147 252.19H283.607C284.231 252.19 284.699 252.298 284.999 252.526C285.299 252.754 285.455 253.126 285.455 253.63C285.455 254.122 285.251 254.482 284.867 254.71C284.555 254.878 284.123 254.974 283.571 254.974H281.147V252.19ZM290.537 247.486L287.237 256.054H288.629L289.433 253.846H293.117L293.921 256.054H295.325L292.025 247.486H290.537ZM289.829 252.766L291.257 248.89H291.305L292.721 252.766H289.829ZM296.163 247.486V256.054H297.471V249.61H297.519L301.947 256.054H303.219V247.486H301.911V253.858H301.863L297.483 247.486H296.163ZM310.353 247.486L306.213 251.626V247.486H304.905V256.054H306.213V253.09L307.329 252.022L310.809 256.054H312.561L308.217 251.17L312.009 247.486H310.353ZM313.401 247.486V256.054H319.761V254.938H314.709V252.214H319.269V251.098H314.709V248.602H319.557V247.486H313.401ZM321.089 247.486V256.054H322.397V252.514H324.713C325.205 252.514 325.577 252.61 325.841 252.826C326.093 253.042 326.249 253.378 326.297 253.858L326.405 254.926C326.453 255.406 326.573 255.79 326.777 256.054H328.193C327.905 255.742 327.737 255.322 327.689 254.794L327.545 253.426C327.449 252.586 327.029 252.082 326.261 251.914V251.89C326.729 251.77 327.101 251.518 327.377 251.134C327.617 250.786 327.737 250.39 327.737 249.934C327.737 249.118 327.473 248.506 326.945 248.074C326.441 247.678 325.745 247.486 324.881 247.486H321.089ZM322.397 248.602H324.701C325.301 248.602 325.733 248.71 326.021 248.938C326.285 249.154 326.429 249.502 326.429 249.982C326.429 250.438 326.285 250.786 326.009 251.026C325.721 251.266 325.289 251.398 324.713 251.398H322.397V248.602Z" fill="white"/>
<rect x="332.328" y="243.054" width="17" height="17" rx="8.5" fill="#15DB41"/>
<path d="M340.734 247.318C339.882 247.318 339.174 247.594 338.598 248.158C338.022 248.71 337.746 249.406 337.746 250.27C337.746 251.11 337.986 251.794 338.478 252.322C338.982 252.862 339.666 253.138 340.506 253.138C340.95 253.138 341.346 253.042 341.694 252.874C342.054 252.682 342.366 252.406 342.606 252.034H342.654C342.654 252.094 342.666 252.142 342.666 252.19C342.666 253.018 342.486 253.714 342.15 254.266C341.79 254.842 341.322 255.142 340.734 255.142C339.87 255.142 339.342 254.722 339.174 253.894H337.902C338.118 255.442 339.054 256.222 340.722 256.222C341.706 256.222 342.486 255.778 343.074 254.914C343.638 254.05 343.926 252.922 343.926 251.53C343.926 250.21 343.65 249.19 343.122 248.458C342.57 247.69 341.778 247.318 340.734 247.318ZM340.782 248.398C341.286 248.398 341.706 248.566 342.03 248.902C342.342 249.226 342.51 249.67 342.51 250.234C342.51 250.786 342.354 251.242 342.042 251.578C341.73 251.914 341.298 252.082 340.77 252.082C340.23 252.082 339.81 251.914 339.51 251.578C339.186 251.254 339.03 250.822 339.03 250.27C339.03 249.718 339.186 249.274 339.51 248.926C339.822 248.566 340.254 248.398 340.782 248.398Z" fill="#484848"/>
<rect x="274.341" y="240.983" width="77.0584" height="21.1417" rx="10.3542" stroke="#55657E" stroke-width="0.591669"/>
<defs>
<filter id="filter0_di_507_19329" x="107.981" y="21.2977" width="214.322" height="112.881" filterUnits="userSpaceOnUse" color-interpolation-filters="sRGB">
<feFlood flood-opacity="0" result="BackgroundImageFix"/>
<feColorMatrix in="SourceAlpha" type="matrix" values="0 0 0 0 0 0 0 0 0 0 0 0 0 0 0 0 0 0 127 0" result="hardAlpha"/>
<feOffset dy="3.05085"/>
<feGaussianBlur stdDeviation="5.72034"/>
<feComposite in2="hardAlpha" operator="out"/>
<feColorMatrix type="matrix" values="0 0 0 0 0 0 0 0 0 0 0 0 0 0 0 0 0 0 0.25 0"/>
<feBlend mode="normal" in2="BackgroundImageFix" result="effect1_dropShadow_507_19329"/>
<feBlend mode="normal" in="SourceGraphic" in2="effect1_dropShadow_507_19329" result="shape"/>
<feColorMatrix in="SourceAlpha" type="matrix" values="0 0 0 0 0 0 0 0 0 0 0 0 0 0 0 0 0 0 127 0" result="hardAlpha"/>
<feOffset/>
<feGaussianBlur stdDeviation="7.62712"/>
<feComposite in2="hardAlpha" operator="arithmetic" k2="-1" k3="1"/>
<feColorMatrix type="matrix" values="0 0 0 0 1 0 0 0 0 0.841416 0 0 0 0 0.279167 0 0 0 1 0"/>
<feBlend mode="normal" in2="shape" result="effect2_innerShadow_507_19329"/>
</filter>
<filter id="filter1_d_507_19329" x="194.674" y="41.9355" width="40.3999" height="19.4298" filterUnits="userSpaceOnUse" color-interpolation-filters="sRGB">
<feFlood flood-opacity="0" result="BackgroundImageFix"/>
<feColorMatrix in="SourceAlpha" type="matrix" values="0 0 0 0 0 0 0 0 0 0 0 0 0 0 0 0 0 0 127 0" result="hardAlpha"/>
<feOffset dy="3.05085"/>
<feComposite in2="hardAlpha" operator="out"/>
<feColorMatrix type="matrix" values="0 0 0 0 0 0 0 0 0 0 0 0 0 0 0 0 0 0 0.25 0"/>
<feBlend mode="normal" in2="BackgroundImageFix" result="effect1_dropShadow_507_19329"/>
<feBlend mode="normal" in="SourceGraphic" in2="effect1_dropShadow_507_19329" result="shape"/>
</filter>
<filter id="filter2_d_507_19329" x="189.169" y="72.209" width="53.3333" height="16.6007" filterUnits="userSpaceOnUse" color-interpolation-filters="sRGB">
<feFlood flood-opacity="0" result="BackgroundImageFix"/>
<feColorMatrix in="SourceAlpha" type="matrix" values="0 0 0 0 0 0 0 0 0 0 0 0 0 0 0 0 0 0 127 0" result="hardAlpha"/>
<feOffset dy="3.05085"/>
<feComposite in2="hardAlpha" operator="out"/>
<feColorMatrix type="matrix" values="0 0 0 0 0 0 0 0 0 0 0 0 0 0 0 0 0 0 0.25 0"/>
<feBlend mode="normal" in2="BackgroundImageFix" result="effect1_dropShadow_507_19329"/>
<feBlend mode="normal" in="SourceGraphic" in2="effect1_dropShadow_507_19329" result="shape"/>
</filter>
<filter id="filter3_d_507_19329" x="59.518" y="126.096" width="68.9616" height="92.6286" filterUnits="userSpaceOnUse" color-interpolation-filters="sRGB">
<feFlood flood-opacity="0" result="BackgroundImageFix"/>
<feColorMatrix in="SourceAlpha" type="matrix" values="0 0 0 0 0 0 0 0 0 0 0 0 0 0 0 0 0 0 127 0" result="hardAlpha"/>
<feOffset dy="1.30595"/>
<feGaussianBlur stdDeviation="2.44865"/>
<feComposite in2="hardAlpha" operator="out"/>
<feColorMatrix type="matrix" values="0 0 0 0 0 0 0 0 0 0 0 0 0 0 0 0 0 0 0.25 0"/>
<feBlend mode="normal" in2="BackgroundImageFix" result="effect1_dropShadow_507_19329"/>
<feBlend mode="normal" in="SourceGraphic" in2="effect1_dropShadow_507_19329" result="shape"/>
</filter>
<filter id="filter4_d_507_19329" x="83.5181" y="138.096" width="68.9616" height="92.6286" filterUnits="userSpaceOnUse" color-interpolation-filters="sRGB">
<feFlood flood-opacity="0" result="BackgroundImageFix"/>
<feColorMatrix in="SourceAlpha" type="matrix" values="0 0 0 0 0 0 0 0 0 0 0 0 0 0 0 0 0 0 127 0" result="hardAlpha"/>
<feOffset dy="1.30595"/>
<feGaussianBlur stdDeviation="2.44865"/>
<feComposite in2="hardAlpha" operator="out"/>
<feColorMatrix type="matrix" values="0 0 0 0 0 0 0 0 0 0 0 0 0 0 0 0 0 0 0.25 0"/>
<feBlend mode="normal" in2="BackgroundImageFix" result="effect1_dropShadow_507_19329"/>
<feBlend mode="normal" in="SourceGraphic" in2="effect1_dropShadow_507_19329" result="shape"/>
</filter>
<filter id="filter5_d_507_19329" x="106.518" y="148.096" width="68.9616" height="92.6286" filterUnits="userSpaceOnUse" color-interpolation-filters="sRGB">
<feFlood flood-opacity="0" result="BackgroundImageFix"/>
<feColorMatrix in="SourceAlpha" type="matrix" values="0 0 0 0 0 0 0 0 0 0 0 0 0 0 0 0 0 0 127 0" result="hardAlpha"/>
<feOffset dy="1.30595"/>
<feGaussianBlur stdDeviation="2.44865"/>
<feComposite in2="hardAlpha" operator="out"/>
<feColorMatrix type="matrix" values="0 0 0 0 0 0 0 0 0 0 0 0 0 0 0 0 0 0 0.25 0"/>
<feBlend mode="normal" in2="BackgroundImageFix" result="effect1_dropShadow_507_19329"/>
<feBlend mode="normal" in="SourceGraphic" in2="effect1_dropShadow_507_19329" result="shape"/>
</filter>
<filter id="filter6_d_507_19329" x="254.972" y="126.096" width="68.9616" height="92.6286" filterUnits="userSpaceOnUse" color-interpolation-filters="sRGB">
<feFlood flood-opacity="0" result="BackgroundImageFix"/>
<feColorMatrix in="SourceAlpha" type="matrix" values="0 0 0 0 0 0 0 0 0 0 0 0 0 0 0 0 0 0 127 0" result="hardAlpha"/>
<feOffset dy="1.30595"/>
<feGaussianBlur stdDeviation="2.44865"/>
<feComposite in2="hardAlpha" operator="out"/>
<feColorMatrix type="matrix" values="0 0 0 0 0 0 0 0 0 0 0 0 0 0 0 0 0 0 0.25 0"/>
<feBlend mode="normal" in2="BackgroundImageFix" result="effect1_dropShadow_507_19329"/>
<feBlend mode="normal" in="SourceGraphic" in2="effect1_dropShadow_507_19329" result="shape"/>
</filter>
<filter id="filter7_d_507_19329" x="278.972" y="138.096" width="68.9616" height="92.6286" filterUnits="userSpaceOnUse" color-interpolation-filters="sRGB">
<feFlood flood-opacity="0" result="BackgroundImageFix"/>
<feColorMatrix in="SourceAlpha" type="matrix" values="0 0 0 0 0 0 0 0 0 0 0 0 0 0 0 0 0 0 127 0" result="hardAlpha"/>
<feOffset dy="1.30595"/>
<feGaussianBlur stdDeviation="2.44865"/>
<feComposite in2="hardAlpha" operator="out"/>
<feColorMatrix type="matrix" values="0 0 0 0 0 0 0 0 0 0 0 0 0 0 0 0 0 0 0.25 0"/>
<feBlend mode="normal" in2="BackgroundImageFix" result="effect1_dropShadow_507_19329"/>
<feBlend mode="normal" in="SourceGraphic" in2="effect1_dropShadow_507_19329" result="shape"/>
</filter>
<filter id="filter8_d_507_19329" x="301.972" y="148.096" width="68.9616" height="92.6286" filterUnits="userSpaceOnUse" color-interpolation-filters="sRGB">
<feFlood flood-opacity="0" result="BackgroundImageFix"/>
<feColorMatrix in="SourceAlpha" type="matrix" values="0 0 0 0 0 0 0 0 0 0 0 0 0 0 0 0 0 0 127 0" result="hardAlpha"/>
<feOffset dy="1.30595"/>
<feGaussianBlur stdDeviation="2.44865"/>
<feComposite in2="hardAlpha" operator="out"/>
<feColorMatrix type="matrix" values="0 0 0 0 0 0 0 0 0 0 0 0 0 0 0 0 0 0 0.25 0"/>
<feBlend mode="normal" in2="BackgroundImageFix" result="effect1_dropShadow_507_19329"/>
<feBlend mode="normal" in="SourceGraphic" in2="effect1_dropShadow_507_19329" result="shape"/>
</filter>
<radialGradient id="paint0_radial_507_19329" cx="0" cy="0" r="1" gradientUnits="userSpaceOnUse" gradientTransform="translate(215.524 100.62) rotate(90) scale(95.339)">
<stop stop-color="#E78831" stop-opacity="0.2"/>
<stop offset="1" stop-color="#E78831" stop-opacity="0"/>
</radialGradient>
<linearGradient id="paint1_linear_507_19329" x1="215.142" y1="37.3145" x2="215.142" y2="60.9585" gradientUnits="userSpaceOnUse">
<stop offset="0.401042" stop-color="#FFDF8D"/>
<stop offset="0.666667" stop-color="#EFAC00"/>
</linearGradient>
<linearGradient id="paint2_linear_507_19329" x1="93.9988" y1="129.688" x2="93.9988" y2="212.521" gradientUnits="userSpaceOnUse">
<stop stop-color="#F9F9F9"/>
<stop offset="1" stop-color="#ECECEC"/>
</linearGradient>
<linearGradient id="paint3_linear_507_19329" x1="117.999" y1="141.688" x2="117.999" y2="224.521" gradientUnits="userSpaceOnUse">
<stop stop-color="#F9F9F9"/>
<stop offset="1" stop-color="#ECECEC"/>
</linearGradient>
<linearGradient id="paint4_linear_507_19329" x1="140.999" y1="151.688" x2="140.999" y2="234.521" gradientUnits="userSpaceOnUse">
<stop stop-color="#F9F9F9"/>
<stop offset="1" stop-color="#ECECEC"/>
</linearGradient>
<linearGradient id="paint5_linear_507_19329" x1="289.453" y1="129.688" x2="289.453" y2="212.521" gradientUnits="userSpaceOnUse">
<stop stop-color="#F9F9F9"/>
<stop offset="1" stop-color="#ECECEC"/>
</linearGradient>
<linearGradient id="paint6_linear_507_19329" x1="313.453" y1="141.688" x2="313.453" y2="224.521" gradientUnits="userSpaceOnUse">
<stop stop-color="#F9F9F9"/>
<stop offset="1" stop-color="#ECECEC"/>
</linearGradient>
<linearGradient id="paint7_linear_507_19329" x1="336.453" y1="151.688" x2="336.453" y2="234.521" gradientUnits="userSpaceOnUse">
<stop stop-color="#F9F9F9"/>
<stop offset="1" stop-color="#ECECEC"/>
</linearGradient>
<clipPath id="clip0_507_19329">
<rect x="119.422" y="29.6875" width="191.441" height="90" rx="22.8814" fill="white"/>
</clipPath>
<clipPath id="clip1_507_19329">
<rect width="13.7288" height="13.7288" fill="white" transform="translate(170.142 97.1787)"/>
</clipPath>
<clipPath id="clip2_507_19329">
<rect x="64.4153" y="129.688" width="59.1669" height="82.8337" rx="7.10003" fill="white"/>
</clipPath>
<clipPath id="clip3_507_19329">
<rect x="88.4154" y="141.688" width="59.1669" height="82.8337" rx="7.10003" fill="white"/>
</clipPath>
<clipPath id="clip4_507_19329">
<rect x="111.415" y="151.688" width="59.1669" height="82.8337" rx="7.10003" fill="white"/>
</clipPath>
<clipPath id="clip5_507_19329">
<rect x="259.87" y="129.688" width="59.1669" height="82.8337" rx="7.10003" fill="white"/>
</clipPath>
<clipPath id="clip6_507_19329">
<rect x="283.87" y="141.688" width="59.1669" height="82.8337" rx="7.10003" fill="white"/>
</clipPath>
<clipPath id="clip7_507_19329">
<rect x="306.87" y="151.688" width="59.1669" height="82.8337" rx="7.10003" fill="white"/>
</clipPath>
</defs>
</svg>
