<svg width="432" height="294" viewBox="0 0 432 294" fill="none" xmlns="http://www.w3.org/2000/svg">
<rect x="0.857544" width="430.285" height="293.109" rx="10" fill="#0D131C"/>
<rect x="10.8575" y="20" width="410.285" height="253.109" rx="3.87518" fill="#161F2C"/>
<g filter="url(#filter0_di_507_18841)">
<g clip-path="url(#clip0_507_18841)">
<rect x="120.28" y="29.6875" width="191.441" height="90" rx="22.8814" fill="#171717"/>
<path fill-rule="evenodd" clip-rule="evenodd" d="M216.381 100.619L216.381 100.62L121.042 76.7855L121.042 124.455L216.381 100.62L216.381 100.622L216.38 100.621L216.381 100.622L132.114 151.182L165.821 184.89L216.38 100.624L192.547 195.959H240.216L216.383 100.625L266.942 184.89L300.649 151.182L216.382 100.622L216.382 100.621L216.382 100.622L216.381 100.62L311.72 124.455V76.7855L216.381 100.62L216.382 100.619L216.382 100.619L216.382 100.618L216.382 100.618L300.649 50.058L266.941 16.3506L216.383 100.615L240.216 5.28125L192.547 5.28125L216.38 100.616L165.821 16.3506L132.114 50.058L216.381 100.618L216.38 100.619L216.381 100.619Z" fill="url(#paint0_radial_507_18841)"/>
<g filter="url(#filter1_d_507_18841)">
<path d="M217.35 54.8136V57.445H224.192V54.8136H217.35ZM216.366 41.039V59.2526H219.043V43.6475H222.727V59.0924H225.542V41.039H216.366ZM209.662 41.1534V60.3509H212.408V41.1534H209.662ZM205.543 45.7068V48.2467H215.748V45.7068H205.543ZM209.479 46.6678C208.701 49.5967 206.962 53.0517 205.063 55.0653C205.52 55.7746 206.161 56.85 206.436 57.6509C208.541 55.317 210.325 50.9924 211.309 47.2856L209.479 46.6678ZM214.055 39.0712C211.973 39.9178 208.632 40.65 205.635 41.0619C205.932 41.6568 206.275 42.595 206.39 43.2128C209.502 42.8467 213.14 42.1831 215.84 41.2221L214.055 39.0712ZM212.156 48.3839L210.852 49.6882C211.744 50.8551 213.575 53.4636 214.33 54.8594L215.909 52.5941C215.359 51.9077 212.865 49.0475 212.156 48.3839Z" fill="url(#paint1_linear_507_18841)"/>
<path d="M217.35 54.8136V54.0509H216.587V54.8136H217.35ZM217.35 57.445H216.587V58.2077H217.35V57.445ZM224.192 57.445V58.2077H224.954V57.445H224.192ZM224.192 54.8136H224.954V54.0509H224.192V54.8136ZM216.366 41.039V40.2763H215.603V41.039H216.366ZM216.366 59.2526H215.603V60.0153H216.366V59.2526ZM219.043 59.2526V60.0153H219.806V59.2526H219.043ZM219.043 43.6475V42.8848H218.281V43.6475H219.043ZM222.727 43.6475H223.49V42.8848H222.727V43.6475ZM222.727 59.0924H221.964V59.8551H222.727V59.0924ZM225.542 59.0924V59.8551H226.304V59.0924H225.542ZM225.542 41.039H226.304V40.2763H225.542V41.039ZM209.662 41.1534V40.3907H208.899V41.1534H209.662ZM209.662 60.3509H208.899V61.1136H209.662V60.3509ZM212.408 60.3509V61.1136H213.17V60.3509H212.408ZM212.408 41.1534H213.17V40.3907H212.408V41.1534ZM205.543 45.7068V44.9441H204.781V45.7068H205.543ZM205.543 48.2467H204.781V49.0094H205.543V48.2467ZM215.748 48.2467V49.0094H216.511V48.2467H215.748ZM215.748 45.7068H216.511V44.9441H215.748V45.7068ZM209.479 46.6678L209.723 45.9452L208.951 45.6847L208.742 46.472L209.479 46.6678ZM205.063 55.0653L204.508 54.542L204.098 54.9767L204.422 55.4788L205.063 55.0653ZM206.436 57.6509L205.714 57.8983L206.134 59.1237L207.002 58.1617L206.436 57.6509ZM211.309 47.2856L212.047 47.4813L212.23 46.7913L211.553 46.563L211.309 47.2856ZM214.055 39.0712L214.642 38.5842L214.285 38.1543L213.768 38.3647L214.055 39.0712ZM205.635 41.0619L205.531 40.3063L204.477 40.4512L204.953 41.403L205.635 41.0619ZM206.39 43.2128L205.64 43.3516L205.77 44.0537L206.479 43.9702L206.39 43.2128ZM215.84 41.2221L216.096 41.9406L217.124 41.5747L216.427 40.735L215.84 41.2221ZM212.156 48.3839L212.677 47.827L212.138 47.323L211.617 47.8446L212.156 48.3839ZM210.852 49.6882L210.312 49.1489L209.84 49.621L210.246 50.1515L210.852 49.6882ZM214.33 54.8594L213.659 55.2223L214.248 56.3108L214.955 55.2955L214.33 54.8594ZM215.909 52.5941L216.534 53.0302L216.86 52.5627L216.504 52.1177L215.909 52.5941ZM216.587 54.8136V57.445H218.113V54.8136H216.587ZM217.35 58.2077H224.192V56.6822H217.35V58.2077ZM224.954 57.445V54.8136H223.429V57.445H224.954ZM224.192 54.0509H217.35V55.5763H224.192V54.0509ZM215.603 41.039V59.2526H217.129V41.039H215.603ZM216.366 60.0153H219.043V58.4899H216.366V60.0153ZM219.806 59.2526V43.6475H218.281V59.2526H219.806ZM219.043 44.4102H222.727V42.8848H219.043V44.4102ZM221.964 43.6475V59.0924H223.49V43.6475H221.964ZM222.727 59.8551H225.542V58.3297H222.727V59.8551ZM226.304 59.0924V41.039H224.779V59.0924H226.304ZM225.542 40.2763H216.366V41.8017H225.542V40.2763ZM208.899 41.1534V60.3509H210.425V41.1534H208.899ZM209.662 61.1136H212.408V59.5882H209.662V61.1136ZM213.17 60.3509V41.1534H211.645V60.3509H213.17ZM212.408 40.3907H209.662V41.9161H212.408V40.3907ZM204.781 45.7068V48.2467H206.306V45.7068H204.781ZM205.543 49.0094H215.748V47.4839H205.543V49.0094ZM216.511 48.2467V45.7068H214.986V48.2467H216.511ZM215.748 44.9441H205.543V46.4695H215.748V44.9441ZM208.742 46.472C207.988 49.3092 206.3 52.6415 204.508 54.542L205.618 55.5886C207.623 53.4619 209.414 49.8841 210.216 46.8636L208.742 46.472ZM204.422 55.4788C204.88 56.1895 205.473 57.195 205.714 57.8983L207.157 57.4035C206.849 56.5051 206.16 55.3597 205.704 54.6518L204.422 55.4788ZM207.002 58.1617C209.231 55.6908 211.053 51.2228 212.047 47.4813L210.572 47.09C209.597 50.762 207.851 54.9432 205.869 57.1401L207.002 58.1617ZM211.553 46.563L209.723 45.9452L209.235 47.3905L211.065 48.0083L211.553 46.563ZM213.768 38.3647C211.772 39.1761 208.504 39.8977 205.531 40.3063L205.739 41.8175C208.76 41.4024 212.174 40.6596 214.342 39.7778L213.768 38.3647ZM204.953 41.403C205.227 41.9519 205.542 42.8213 205.64 43.3516L207.14 43.0739C207.009 42.3686 206.637 41.3618 206.317 40.7208L204.953 41.403ZM206.479 43.9702C209.614 43.6014 213.317 42.9296 216.096 41.9406L215.584 40.5035C212.963 41.4366 209.39 42.0919 206.301 42.4553L206.479 43.9702ZM216.427 40.735L214.642 38.5842L213.468 39.5583L215.253 41.7091L216.427 40.735ZM211.617 47.8446L210.312 49.1489L211.391 50.2275L212.695 48.9233L211.617 47.8446ZM210.246 50.1515C211.131 51.3096 212.933 53.8801 213.659 55.2223L215.001 54.4965C214.216 53.0471 212.357 50.4007 211.458 49.2249L210.246 50.1515ZM214.955 55.2955L216.534 53.0302L215.283 52.158L213.704 54.4233L214.955 55.2955ZM216.504 52.1177C215.949 51.424 213.428 48.529 212.677 47.827L211.635 48.9409C212.303 49.566 214.77 52.3914 215.313 53.0706L216.504 52.1177Z" fill="white"/>
</g>
<g filter="url(#filter2_d_507_18841)">
<path d="M197.534 72.2086V85.5352H193.852V76.8027C193.256 77.2556 192.678 77.622 192.118 77.9021C191.563 78.1821 190.866 78.4503 190.026 78.7065V75.7212C191.266 75.322 192.228 74.8423 192.913 74.2822C193.598 73.7221 194.135 73.0309 194.522 72.2086H197.534ZM201.851 81.8884H205.739V85.5352H201.851V81.8884ZM207.589 78.93C207.589 76.4392 208.036 74.6963 208.93 73.7012C209.83 72.7061 211.197 72.2086 213.033 72.2086C213.915 72.2086 214.638 72.3188 215.205 72.5393C215.771 72.7538 216.232 73.0368 216.59 73.3884C216.947 73.734 217.228 74.1004 217.43 74.4878C217.639 74.8691 217.806 75.316 217.931 75.8285C218.175 76.8057 218.297 77.8246 218.297 78.8853C218.297 81.2628 217.895 83.0027 217.09 84.1051C216.286 85.2074 214.901 85.7586 212.934 85.7586C211.832 85.7586 210.941 85.5828 210.262 85.2313C209.583 84.8797 209.025 84.3643 208.59 83.685C208.275 83.2023 208.027 82.5439 207.849 81.7097C207.676 80.8695 207.589 79.9429 207.589 78.93ZM211.2 78.9389C211.2 80.6073 211.346 81.7484 211.638 82.3622C211.936 82.9699 212.365 83.2738 212.925 83.2738C213.295 83.2738 213.614 83.1457 213.882 82.8895C214.156 82.6273 214.355 82.2162 214.481 81.6561C214.612 81.0959 214.677 80.223 214.677 79.0372C214.677 77.2973 214.528 76.1294 214.23 75.5335C213.938 74.9317 213.497 74.6308 212.907 74.6308C212.306 74.6308 211.871 74.9376 211.603 75.5514C211.334 76.1592 211.2 77.2883 211.2 78.9389ZM219.799 78.93C219.799 76.4392 220.246 74.6963 221.139 73.7012C222.039 72.7061 223.407 72.2086 225.242 72.2086C226.124 72.2086 226.848 72.3188 227.414 72.5393C227.98 72.7538 228.442 73.0368 228.799 73.3884C229.157 73.734 229.437 74.1004 229.639 74.4878C229.848 74.8691 230.015 75.316 230.14 75.8285C230.384 76.8057 230.506 77.8246 230.506 78.8853C230.506 81.2628 230.104 83.0027 229.3 84.1051C228.495 85.2074 227.11 85.7586 225.144 85.7586C224.041 85.7586 223.15 85.5828 222.471 85.2313C221.792 84.8797 221.235 84.3643 220.8 83.685C220.484 83.2023 220.237 82.5439 220.058 81.7097C219.885 80.8695 219.799 79.9429 219.799 78.93ZM223.41 78.9389C223.41 80.6073 223.556 81.7484 223.848 82.3622C224.146 82.9699 224.575 83.2738 225.135 83.2738C225.504 83.2738 225.823 83.1457 226.091 82.8895C226.365 82.6273 226.565 82.2162 226.69 81.6561C226.821 81.0959 226.887 80.223 226.887 79.0372C226.887 77.2973 226.738 76.1294 226.44 75.5335C226.148 74.9317 225.707 74.6308 225.117 74.6308C224.515 74.6308 224.08 74.9376 223.812 75.5514C223.544 76.1592 223.41 77.2883 223.41 78.9389ZM231.534 76.043H235.851L237.362 78.6886L239.114 76.043H243.127L239.891 80.5656L243.359 85.5352H239.114L237.362 82.4784L235.297 85.5352H231.356L234.806 80.5656L231.534 76.043Z" fill="#FFE08F"/>
</g>
<rect x="163.373" y="96.043" width="105.034" height="16" rx="8" fill="#3B3B3C"/>
<g clip-path="url(#clip1_507_18841)">
<path d="M184.523 105.704C183.606 109.381 179.881 111.619 176.203 110.702C172.527 109.785 170.289 106.06 171.206 102.383C172.123 98.7055 175.847 96.4673 179.524 97.3841C183.202 98.3009 185.439 102.026 184.523 105.704L184.523 105.704H184.523Z" fill="#F7931A"/>
<path d="M180.891 103.065C181.028 102.152 180.332 101.661 179.381 101.333L179.69 100.096L178.937 99.908L178.636 101.113C178.438 101.063 178.235 101.017 178.033 100.971L178.335 99.758L177.583 99.5703L177.274 100.807C177.11 100.77 176.949 100.733 176.793 100.694L176.794 100.69L175.755 100.431L175.555 101.236C175.555 101.236 176.114 101.364 176.102 101.372C176.407 101.448 176.462 101.65 176.453 101.81L176.101 103.219C176.122 103.225 176.15 103.232 176.18 103.244C176.155 103.238 176.128 103.231 176.1 103.225L175.607 105.2C175.57 105.292 175.476 105.431 175.262 105.379C175.27 105.389 174.715 105.242 174.715 105.242L174.341 106.104L175.321 106.348C175.503 106.394 175.682 106.442 175.858 106.487L175.546 107.739L176.299 107.926L176.607 106.688C176.813 106.744 177.012 106.795 177.208 106.844L176.9 108.076L177.653 108.264L177.965 107.015C179.25 107.258 180.215 107.16 180.622 105.998C180.949 105.063 180.606 104.523 179.93 104.171C180.422 104.058 180.793 103.734 180.892 103.065L180.891 103.065L180.891 103.065ZM179.17 105.479C178.937 106.414 177.363 105.908 176.852 105.782L177.266 104.123C177.776 104.251 179.414 104.503 179.17 105.479H179.17ZM179.403 103.052C179.191 103.903 177.88 103.47 177.455 103.364L177.83 101.86C178.255 101.966 179.624 102.164 179.403 103.052H179.403Z" fill="white"/>
</g>
<path d="M188.249 104.915C188.249 103.358 188.528 102.269 189.087 101.647C189.649 101.025 190.504 100.714 191.651 100.714C192.202 100.714 192.655 100.783 193.008 100.921C193.362 101.055 193.651 101.232 193.874 101.451C194.098 101.667 194.273 101.896 194.399 102.138C194.53 102.377 194.634 102.656 194.712 102.976C194.865 103.587 194.941 104.224 194.941 104.887C194.941 106.373 194.69 107.46 194.187 108.149C193.684 108.838 192.818 109.183 191.589 109.183C190.901 109.183 190.344 109.073 189.919 108.853C189.495 108.633 189.146 108.311 188.875 107.887C188.677 107.585 188.523 107.173 188.411 106.652C188.303 106.127 188.249 105.548 188.249 104.915ZM190.506 104.92C190.506 105.963 190.597 106.676 190.779 107.06C190.966 107.44 191.234 107.63 191.584 107.63C191.815 107.63 192.014 107.55 192.182 107.389C192.353 107.226 192.478 106.969 192.556 106.619C192.638 106.268 192.679 105.723 192.679 104.982C192.679 103.894 192.586 103.164 192.4 102.792C192.217 102.416 191.941 102.228 191.573 102.228C191.197 102.228 190.925 102.42 190.757 102.803C190.59 103.183 190.506 103.889 190.506 104.92ZM196.103 106.764H198.533V109.043H196.103V106.764ZM199.69 104.915C199.69 103.358 199.969 102.269 200.528 101.647C201.09 101.025 201.945 100.714 203.092 100.714C203.643 100.714 204.095 100.783 204.449 100.921C204.803 101.055 205.092 101.232 205.315 101.451C205.538 101.667 205.713 101.896 205.84 102.138C205.97 102.377 206.075 102.656 206.153 102.976C206.306 103.587 206.382 104.224 206.382 104.887C206.382 106.373 206.131 107.46 205.628 108.149C205.125 108.838 204.259 109.183 203.03 109.183C202.341 109.183 201.784 109.073 201.36 108.853C200.935 108.633 200.587 108.311 200.315 107.887C200.118 107.585 199.963 107.173 199.852 106.652C199.744 106.127 199.69 105.548 199.69 104.915ZM201.946 104.92C201.946 105.963 202.038 106.676 202.22 107.06C202.406 107.44 202.675 107.63 203.025 107.63C203.255 107.63 203.455 107.55 203.622 107.389C203.794 107.226 203.918 106.969 203.997 106.619C204.079 106.268 204.119 105.723 204.119 104.982C204.119 103.894 204.026 103.164 203.84 102.792C203.658 102.416 203.382 102.228 203.013 102.228C202.637 102.228 202.365 102.42 202.198 102.803C202.03 103.183 201.946 103.889 201.946 104.92ZM207.32 104.915C207.32 103.358 207.6 102.269 208.158 101.647C208.721 101.025 209.575 100.714 210.722 100.714C211.274 100.714 211.726 100.783 212.08 100.921C212.434 101.055 212.722 101.232 212.946 101.451C213.169 101.667 213.344 101.896 213.471 102.138C213.601 102.377 213.706 102.656 213.784 102.976C213.936 103.587 214.013 104.224 214.013 104.887C214.013 106.373 213.761 107.46 213.259 108.149C212.756 108.838 211.89 109.183 210.661 109.183C209.972 109.183 209.415 109.073 208.991 108.853C208.566 108.633 208.218 108.311 207.946 107.887C207.749 107.585 207.594 107.173 207.482 106.652C207.374 106.127 207.32 105.548 207.32 104.915ZM209.577 104.92C209.577 105.963 209.669 106.676 209.851 107.06C210.037 107.44 210.305 107.63 210.655 107.63C210.886 107.63 211.086 107.55 211.253 107.389C211.424 107.226 211.549 106.969 211.627 106.619C211.709 106.268 211.75 105.723 211.75 104.982C211.75 103.894 211.657 103.164 211.471 102.792C211.289 102.416 211.013 102.228 210.644 102.228C210.268 102.228 209.996 102.42 209.829 102.803C209.661 103.183 209.577 103.889 209.577 104.92ZM220.107 100.714V109.043H217.806V103.585C217.433 103.868 217.072 104.097 216.722 104.272C216.376 104.447 215.94 104.615 215.415 104.775V102.909C216.19 102.66 216.791 102.36 217.219 102.01C217.648 101.66 217.983 101.228 218.225 100.714H220.107ZM224.789 103.222L222.638 102.837C222.817 102.151 223.159 101.626 223.666 101.261C224.176 100.896 224.897 100.714 225.828 100.714C226.897 100.714 227.669 100.913 228.146 101.312C228.623 101.71 228.861 102.211 228.861 102.814C228.861 103.168 228.764 103.488 228.571 103.775C228.377 104.062 228.085 104.313 227.694 104.529C228.01 104.607 228.252 104.699 228.42 104.803C228.692 104.971 228.902 105.192 229.051 105.468C229.204 105.74 229.28 106.065 229.28 106.445C229.28 106.922 229.155 107.38 228.906 107.82C228.656 108.255 228.297 108.592 227.828 108.831C227.358 109.065 226.742 109.183 225.979 109.183C225.234 109.183 224.645 109.095 224.213 108.92C223.785 108.745 223.431 108.49 223.152 108.155C222.876 107.816 222.664 107.391 222.515 106.881L224.789 106.579C224.878 107.037 225.016 107.356 225.202 107.535C225.392 107.71 225.632 107.797 225.923 107.797C226.228 107.797 226.481 107.686 226.682 107.462C226.887 107.239 226.99 106.941 226.99 106.568C226.99 106.188 226.891 105.894 226.694 105.686C226.5 105.477 226.236 105.373 225.9 105.373C225.722 105.373 225.476 105.417 225.163 105.507L225.28 103.881C225.407 103.9 225.506 103.909 225.576 103.909C225.874 103.909 226.122 103.814 226.319 103.624C226.52 103.434 226.621 103.209 226.621 102.948C226.621 102.699 226.547 102.5 226.398 102.351C226.249 102.202 226.044 102.127 225.783 102.127C225.515 102.127 225.297 102.209 225.129 102.373C224.962 102.533 224.848 102.816 224.789 103.222ZM230.213 104.915C230.213 103.358 230.492 102.269 231.051 101.647C231.613 101.025 232.468 100.714 233.615 100.714C234.166 100.714 234.619 100.783 234.972 100.921C235.326 101.055 235.615 101.232 235.838 101.451C236.062 101.667 236.237 101.896 236.363 102.138C236.494 102.377 236.598 102.656 236.676 102.976C236.829 103.587 236.905 104.224 236.905 104.887C236.905 106.373 236.654 107.46 236.151 108.149C235.648 108.838 234.783 109.183 233.554 109.183C232.865 109.183 232.308 109.073 231.883 108.853C231.459 108.633 231.11 108.311 230.839 107.887C230.641 107.585 230.487 107.173 230.375 106.652C230.267 106.127 230.213 105.548 230.213 104.915ZM232.47 104.92C232.47 105.963 232.561 106.676 232.744 107.06C232.93 107.44 233.198 107.63 233.548 107.63C233.779 107.63 233.978 107.55 234.146 107.389C234.317 107.226 234.442 106.969 234.52 106.619C234.602 106.268 234.643 105.723 234.643 104.982C234.643 103.894 234.55 103.164 234.364 102.792C234.181 102.416 233.905 102.228 233.537 102.228C233.161 102.228 232.889 102.42 232.721 102.803C232.554 103.183 232.47 103.889 232.47 104.92ZM241.754 107.512H237.609V105.641L241.754 100.714H243.737V105.747H244.765V107.512H243.737V109.043H241.754V107.512ZM241.754 105.747V103.172L239.564 105.747H241.754ZM250.631 100.714V109.043H248.329V103.585C247.957 103.868 247.596 104.097 247.245 104.272C246.899 104.447 246.463 104.615 245.938 104.775V102.909C246.713 102.66 247.314 102.36 247.743 102.01C248.171 101.66 248.506 101.228 248.748 100.714H250.631ZM259.764 109.043H252.938C253.016 108.369 253.253 107.736 253.647 107.144C254.046 106.548 254.791 105.846 255.882 105.038C256.548 104.542 256.975 104.166 257.161 103.909C257.347 103.652 257.44 103.408 257.44 103.177C257.44 102.928 257.347 102.716 257.161 102.541C256.979 102.362 256.748 102.272 256.468 102.272C256.178 102.272 255.94 102.364 255.753 102.546C255.571 102.729 255.448 103.051 255.385 103.513L253.105 103.328C253.195 102.688 253.359 102.189 253.597 101.831C253.835 101.47 254.171 101.194 254.603 101.004C255.038 100.811 255.64 100.714 256.407 100.714C257.208 100.714 257.83 100.805 258.273 100.988C258.72 101.17 259.07 101.451 259.323 101.831C259.58 102.207 259.708 102.63 259.708 103.099C259.708 103.598 259.561 104.075 259.267 104.529C258.977 104.984 258.446 105.483 257.675 106.026C257.217 106.343 256.91 106.565 256.753 106.691C256.601 106.818 256.42 106.983 256.211 107.188H259.764V109.043Z" fill="white"/>
</g>
<rect x="121.042" y="30.4502" width="189.915" height="88.4746" rx="22.1186" stroke="#EFC046" stroke-width="1.52542"/>
</g>
<g filter="url(#filter3_d_507_18841)">
<rect x="65.5687" y="129.983" width="58.5753" height="82.2421" rx="9.17088" fill="#161F2C" stroke="#55657E" stroke-width="0.591669" stroke-dasharray="4.73 4.73"/>
<g clip-path="url(#clip2_507_18841)">
<rect x="65.2728" y="129.688" width="59.1669" height="82.8337" rx="7.10003" fill="url(#paint2_linear_507_18841)"/>
<path d="M80.5677 150.643L84.9644 154.125L82.8553 155.955L78.5256 152.473L80.5677 150.643ZM85.076 144.55V145.32C85.076 146.555 84.9086 147.664 84.5738 148.646C84.2465 149.628 83.7741 150.465 83.1566 151.157C82.5391 151.841 81.8101 152.366 80.9694 152.73C80.1288 153.095 79.1951 153.277 78.1685 153.277C77.1492 153.277 76.2156 153.095 75.3675 152.73C74.5194 152.366 73.7866 151.841 73.1691 151.157C72.5517 150.465 72.0718 149.628 71.7296 148.646C71.3948 147.664 71.2274 146.555 71.2274 145.32V144.55C71.2274 143.308 71.3948 142.2 71.7296 141.225C72.0718 140.243 72.5479 139.406 73.158 138.714C73.768 138.022 74.4971 137.494 75.3452 137.13C76.1933 136.765 77.1269 136.583 78.1461 136.583C79.1728 136.583 80.1064 136.765 80.9471 137.13C81.7952 137.494 82.528 138.022 83.1455 138.714C83.7629 139.406 84.2391 140.243 84.5738 141.225C84.9086 142.2 85.076 143.308 85.076 144.55ZM81.6948 145.32V144.528C81.6948 143.665 81.6129 142.906 81.4493 142.252C81.293 141.597 81.0624 141.046 80.7574 140.6C80.4598 140.154 80.0916 139.819 79.6526 139.596C79.2137 139.365 78.7115 139.25 78.1461 139.25C77.5807 139.25 77.0786 139.365 76.6396 139.596C76.2007 139.819 75.8325 140.154 75.5349 140.6C75.2373 141.046 75.0104 141.597 74.8542 142.252C74.6979 142.906 74.6198 143.665 74.6198 144.528V145.32C74.6198 146.176 74.6979 146.935 74.8542 147.597C75.0104 148.252 75.2373 148.806 75.5349 149.26C75.8399 149.706 76.2119 150.044 76.6508 150.275C77.0972 150.506 77.6031 150.621 78.1685 150.621C78.7339 150.621 79.2323 150.506 79.6638 150.275C80.1027 150.044 80.471 149.706 80.7686 149.26C81.0736 148.806 81.3042 148.252 81.4604 147.597C81.6167 146.935 81.6948 146.176 81.6948 145.32Z" fill="#242424"/>
<path fill-rule="evenodd" clip-rule="evenodd" d="M81.2367 170.523C83.7628 170.551 85.3168 168.933 84.462 167.23C83.6072 165.526 82.7551 165.143 81.4133 163.908C80.0708 162.673 78.1187 160.537 78.128 160.033C78.1379 160.537 76.2662 162.673 74.9237 163.908C73.5819 165.143 72.7304 165.526 71.875 167.23C71.0202 168.933 72.5749 170.551 75.1003 170.523C76.8343 170.503 77.6146 169.507 77.9329 168.885L77.9329 169.7C77.9329 169.7 77.3793 172.639 73.4725 172.961L72.8497 172.961L72.8497 173.419L83.488 173.419L83.488 172.961L82.8645 172.961C78.9584 172.639 78.4041 169.7 78.4041 169.7L78.4041 168.992C78.7791 169.615 79.5989 170.504 81.2367 170.523Z" fill="#242424"/>
<path fill-rule="evenodd" clip-rule="evenodd" d="M113.362 201.963C118.856 202.025 122.235 198.506 120.376 194.802C118.517 191.097 116.664 190.264 113.746 187.578C110.827 184.893 106.582 180.247 106.602 179.151C106.623 180.247 102.553 184.893 99.6334 187.578C96.7154 190.264 94.8637 191.097 93.0034 194.802C91.1445 198.506 94.5254 202.025 100.017 201.963C103.788 201.921 105.485 199.755 106.177 198.401L106.177 200.173C106.177 200.173 104.973 206.566 96.4774 207.265L95.1231 207.265L95.1231 208.262L118.258 208.262L118.258 207.265L116.902 207.265C108.407 206.566 107.202 200.173 107.202 200.173L107.202 198.633C108.018 199.989 109.801 201.923 113.362 201.963Z" fill="#242424"/>
</g>
<rect x="65.8645" y="130.279" width="57.9836" height="81.6504" rx="6.50836" stroke="#15DB41" stroke-width="1.18334"/>
</g>
<g filter="url(#filter4_d_507_18841)">
<rect x="89.5688" y="141.983" width="58.5753" height="82.2421" rx="9.17088" fill="#161F2C" stroke="#55657E" stroke-width="0.591669" stroke-dasharray="4.73 4.73"/>
<g clip-path="url(#clip3_507_18841)">
<rect x="89.2729" y="141.688" width="59.1669" height="82.8337" rx="7.10003" fill="url(#paint3_linear_507_18841)"/>
<path d="M99.7024 148.806V165.054H96.3546V148.806H99.7024ZM109.433 148.806L102.994 156.829L99.2783 160.824L98.6757 157.655L101.187 154.218L105.327 148.806H109.433ZM105.628 165.054L100.841 157.544L103.318 155.468L109.589 165.054H105.628Z" fill="#EE3D3D"/>
<path fill-rule="evenodd" clip-rule="evenodd" d="M105.39 172.36C102.738 172.397 102.211 175.143 102.211 175.143C102.211 175.143 101.599 172.397 98.947 172.36C96.2949 172.323 94.6628 174.438 95.5605 176.665C96.4581 178.891 97.3524 179.392 98.7617 181.006C100.171 182.621 102.221 185.413 102.211 186.072C102.201 185.413 104.166 182.621 105.576 181.006C106.985 179.392 107.879 178.891 108.777 176.665C109.674 174.438 108.042 172.323 105.39 172.36Z" fill="#EE3D3D"/>
<path fill-rule="evenodd" clip-rule="evenodd" d="M137.696 191.861C131.929 191.942 130.782 197.914 130.782 197.914C130.782 197.914 129.451 191.942 123.684 191.861C117.917 191.781 114.367 196.381 116.32 201.223C118.272 206.065 120.216 207.154 123.281 210.665C126.346 214.175 130.805 220.248 130.782 221.68C130.76 220.248 135.034 214.175 138.099 210.665C141.164 207.154 143.109 206.065 145.061 201.223C147.013 196.381 143.464 191.781 137.696 191.861Z" fill="#EE3D3D"/>
</g>
<rect x="89.8646" y="142.279" width="57.9836" height="81.6504" rx="6.50836" stroke="#15DB41" stroke-width="1.18334"/>
</g>
<g filter="url(#filter5_d_507_18841)">
<rect x="112.569" y="151.983" width="58.5753" height="82.2421" rx="9.17088" fill="#161F2C" stroke="#55657E" stroke-width="0.591669" stroke-dasharray="4.73 4.73"/>
<g clip-path="url(#clip4_507_18841)">
<rect x="112.273" y="151.688" width="59.1669" height="82.8337" rx="7.10003" fill="url(#paint4_linear_507_18841)"/>
<path d="M121.999 172.61H122.211C123.104 172.61 123.87 172.502 124.51 172.286C125.157 172.063 125.689 171.743 126.106 171.327C126.522 170.91 126.831 170.4 127.032 169.798C127.233 169.188 127.333 168.496 127.333 167.722V164.642C127.333 164.054 127.274 163.537 127.155 163.091C127.043 162.645 126.879 162.276 126.664 161.986C126.455 161.689 126.21 161.466 125.927 161.317C125.652 161.168 125.347 161.094 125.012 161.094C124.655 161.094 124.339 161.183 124.064 161.361C123.788 161.532 123.554 161.767 123.361 162.064C123.175 162.362 123.029 162.704 122.925 163.091C122.829 163.47 122.78 163.868 122.78 164.285C122.78 164.702 122.829 165.1 122.925 165.479C123.022 165.851 123.167 166.182 123.361 166.472C123.554 166.755 123.796 166.982 124.086 167.153C124.376 167.317 124.718 167.398 125.113 167.398C125.492 167.398 125.83 167.328 126.128 167.186C126.433 167.038 126.69 166.844 126.898 166.606C127.114 166.368 127.277 166.104 127.389 165.814C127.508 165.524 127.568 165.23 127.568 164.932L128.628 165.513C128.628 166.033 128.516 166.547 128.293 167.053C128.07 167.558 127.757 168.02 127.356 168.436C126.961 168.845 126.504 169.173 125.983 169.418C125.462 169.664 124.904 169.787 124.309 169.787C123.55 169.787 122.877 169.649 122.289 169.374C121.702 169.091 121.203 168.704 120.794 168.213C120.392 167.715 120.087 167.134 119.879 166.472C119.671 165.81 119.566 165.092 119.566 164.319C119.566 163.53 119.693 162.79 119.946 162.098C120.206 161.406 120.574 160.796 121.051 160.268C121.534 159.74 122.111 159.327 122.78 159.029C123.457 158.724 124.209 158.572 125.034 158.572C125.86 158.572 126.612 158.732 127.289 159.051C127.966 159.371 128.546 159.825 129.029 160.413C129.513 160.993 129.885 161.689 130.145 162.5C130.413 163.311 130.547 164.211 130.547 165.2V166.316C130.547 167.372 130.432 168.354 130.201 169.262C129.978 170.17 129.639 170.992 129.186 171.728C128.739 172.457 128.181 173.082 127.512 173.603C126.85 174.124 126.08 174.522 125.202 174.797C124.324 175.072 123.342 175.21 122.256 175.21H121.999V172.61Z" fill="#EE3D3D"/>
<rect x="125.168" y="182.111" width="10.0469" height="10.0469" transform="rotate(45 125.168 182.111)" fill="#EE3D3D"/>
<rect x="153.69" y="201.321" width="21.8489" height="21.8489" transform="rotate(45 153.69 201.321)" fill="#EE3D3D"/>
</g>
<rect x="112.864" y="152.279" width="57.9836" height="81.6504" rx="6.50836" stroke="#15DB41" stroke-width="1.18334"/>
</g>
<rect x="91.7436" y="240.983" width="53.0584" height="22.1417" rx="10.3542" fill="#161F2C"/>
<path d="M99.5222 250.606V251.724H101.81C101.082 253.141 100.12 254.272 98.9112 255.13L99.6392 256.313C100.627 255.403 101.472 254.233 102.174 252.803V257.665H103.318V253.466C104.228 254.285 104.969 255.065 105.541 255.819L106.334 255.013C105.515 254.051 104.514 253.076 103.318 252.114V251.724H105.827V250.606H103.318V248.734H102.174V250.606H99.5222ZM106.555 258.289C107.517 258.289 108.011 257.808 108.011 256.846V246.979H101.953V248.071H106.854V256.521C106.854 256.976 106.672 257.21 106.308 257.21L105.177 257.171L105.489 258.289H106.555ZM97.3382 248.552V258.406H98.4952V248.552H97.3382ZM99.4182 246.277L98.3782 246.745C98.8722 247.317 99.3402 247.98 99.7562 248.734L100.757 248.214C100.367 247.512 99.9122 246.862 99.4182 246.277ZM117.67 253.427C118.294 255.169 119.295 256.625 120.673 257.782L121.557 256.755C120.231 255.819 119.256 254.597 118.658 253.076C119.425 252.764 120.14 252.4 120.816 251.971L119.984 251.139C118.944 251.802 117.852 252.296 116.708 252.634C116.448 252.166 116.136 251.724 115.759 251.308C116.045 251.126 116.344 250.931 116.656 250.723H119.542V249.579H111.82V250.723H114.732C114.446 250.866 114.147 250.996 113.835 251.126C112.795 251.555 111.677 251.893 110.481 252.14L111.105 253.167C112.639 252.712 113.835 252.283 114.68 251.88C114.719 251.854 114.758 251.841 114.81 251.815C114.94 251.971 115.057 252.127 115.187 252.296C114.004 253.141 112.353 253.83 110.234 254.376L110.845 255.442C112.86 254.857 114.485 254.116 115.707 253.206C115.811 253.44 115.915 253.7 115.993 253.96C114.576 255.078 112.6 256.001 110.065 256.716L110.689 257.769C112.951 257.067 114.797 256.196 116.201 255.143C116.201 255.26 116.214 255.39 116.214 255.52C116.214 256.248 116.097 256.729 115.889 256.989C115.707 257.184 115.252 257.288 114.524 257.288H113.861L114.277 258.38H114.693C115.876 258.38 116.63 258.146 116.968 257.678C117.254 257.288 117.41 256.56 117.41 255.52C117.397 254.818 117.293 254.168 117.098 253.57C117.28 253.518 117.475 253.479 117.67 253.427ZM115.98 246.303L114.719 246.524C114.862 246.797 115.005 247.096 115.135 247.434H110.104V249.852H111.339V248.578H120.023V249.852H121.258V247.434H116.383C116.253 247.018 116.123 246.641 115.98 246.303Z" fill="white"/>
<rect x="125.731" y="243.054" width="17" height="17" rx="8.5" fill="#15DB41"/>
<path d="M134.137 247.318C133.285 247.318 132.577 247.594 132.001 248.158C131.425 248.71 131.149 249.406 131.149 250.27C131.149 251.11 131.389 251.794 131.881 252.322C132.385 252.862 133.069 253.138 133.909 253.138C134.353 253.138 134.749 253.042 135.097 252.874C135.457 252.682 135.769 252.406 136.009 252.034H136.057C136.057 252.094 136.069 252.142 136.069 252.19C136.069 253.018 135.889 253.714 135.553 254.266C135.193 254.842 134.725 255.142 134.137 255.142C133.273 255.142 132.745 254.722 132.577 253.894H131.305C131.521 255.442 132.457 256.222 134.125 256.222C135.109 256.222 135.889 255.778 136.477 254.914C137.041 254.05 137.329 252.922 137.329 251.53C137.329 250.21 137.053 249.19 136.525 248.458C135.973 247.69 135.181 247.318 134.137 247.318ZM134.185 248.398C134.689 248.398 135.109 248.566 135.433 248.902C135.745 249.226 135.913 249.67 135.913 250.234C135.913 250.786 135.757 251.242 135.445 251.578C135.133 251.914 134.701 252.082 134.173 252.082C133.633 252.082 133.213 251.914 132.913 251.578C132.589 251.254 132.433 250.822 132.433 250.27C132.433 249.718 132.589 249.274 132.913 248.926C133.225 248.566 133.657 248.398 134.185 248.398Z" fill="#484848"/>
<rect x="91.7436" y="240.983" width="53.0584" height="22.1417" rx="10.3542" stroke="#55657E" stroke-width="0.591669"/>
<g filter="url(#filter6_d_507_18841)">
<rect x="261.023" y="129.983" width="58.5753" height="82.2421" rx="9.17088" fill="#161F2C" stroke="#55657E" stroke-width="0.591669" stroke-dasharray="4.73 4.73"/>
<g clip-path="url(#clip5_507_18841)">
<rect x="260.727" y="129.688" width="59.1669" height="82.8337" rx="7.10003" fill="url(#paint5_linear_507_18841)"/>
<path d="M276.022 150.643L280.419 154.125L278.31 155.955L273.98 152.473L276.022 150.643ZM280.53 144.55V145.32C280.53 146.555 280.363 147.664 280.028 148.646C279.701 149.628 279.228 150.465 278.611 151.157C277.993 151.841 277.264 152.366 276.424 152.73C275.583 153.095 274.649 153.277 273.623 153.277C272.604 153.277 271.67 153.095 270.822 152.73C269.974 152.366 269.241 151.841 268.623 151.157C268.006 150.465 267.526 149.628 267.184 148.646C266.849 147.664 266.682 146.555 266.682 145.32V144.55C266.682 143.308 266.849 142.2 267.184 141.225C267.526 140.243 268.002 139.406 268.612 138.714C269.222 138.022 269.951 137.494 270.8 137.13C271.648 136.765 272.581 136.583 273.6 136.583C274.627 136.583 275.561 136.765 276.401 137.13C277.25 137.494 277.982 138.022 278.6 138.714C279.217 139.406 279.693 140.243 280.028 141.225C280.363 142.2 280.53 143.308 280.53 144.55ZM277.149 145.32V144.528C277.149 143.665 277.067 142.906 276.904 142.252C276.747 141.597 276.517 141.046 276.212 140.6C275.914 140.154 275.546 139.819 275.107 139.596C274.668 139.365 274.166 139.25 273.6 139.25C273.035 139.25 272.533 139.365 272.094 139.596C271.655 139.819 271.287 140.154 270.989 140.6C270.692 141.046 270.465 141.597 270.309 142.252C270.152 142.906 270.074 143.665 270.074 144.528V145.32C270.074 146.176 270.152 146.935 270.309 147.597C270.465 148.252 270.692 148.806 270.989 149.26C271.294 149.706 271.666 150.044 272.105 150.275C272.552 150.506 273.057 150.621 273.623 150.621C274.188 150.621 274.687 150.506 275.118 150.275C275.557 150.044 275.925 149.706 276.223 149.26C276.528 148.806 276.759 148.252 276.915 147.597C277.071 146.935 277.149 146.176 277.149 145.32Z" fill="#242424"/>
<path fill-rule="evenodd" clip-rule="evenodd" d="M276.691 170.523C279.217 170.551 280.771 168.933 279.916 167.23C279.061 165.526 278.209 165.143 276.868 163.908C275.525 162.673 273.573 160.537 273.582 160.033C273.592 160.537 271.72 162.673 270.378 163.908C269.036 165.143 268.185 165.526 267.329 167.23C266.474 168.933 268.029 170.551 270.555 170.523C272.288 170.503 273.069 169.507 273.387 168.885L273.387 169.7C273.387 169.7 272.834 172.639 268.927 172.961L268.304 172.961L268.304 173.419L278.942 173.419L278.942 172.961L278.319 172.961C274.413 172.639 273.858 169.7 273.858 169.7L273.858 168.992C274.233 169.615 275.053 170.504 276.691 170.523Z" fill="#242424"/>
<path fill-rule="evenodd" clip-rule="evenodd" d="M308.816 201.963C314.31 202.025 317.689 198.506 315.831 194.802C313.972 191.097 312.118 190.264 309.2 187.578C306.281 184.893 302.036 180.247 302.056 179.151C302.077 180.247 298.007 184.893 295.088 187.578C292.17 190.264 290.318 191.097 288.458 194.802C286.599 198.506 289.98 202.025 295.472 201.963C299.243 201.921 300.939 199.755 301.632 198.401L301.632 200.173C301.632 200.173 300.428 206.566 291.932 207.265L290.577 207.265L290.577 208.262L313.712 208.262L313.712 207.265L312.356 207.265C303.862 206.566 302.656 200.173 302.656 200.173L302.656 198.633C303.472 199.989 305.255 201.923 308.816 201.963Z" fill="#242424"/>
</g>
<rect x="261.319" y="130.279" width="57.9836" height="81.6504" rx="6.50836" stroke="#15DB41" stroke-width="1.18334"/>
</g>
<g filter="url(#filter7_d_507_18841)">
<rect x="285.023" y="141.983" width="58.5753" height="82.2421" rx="9.17088" fill="#161F2C" stroke="#55657E" stroke-width="0.591669" stroke-dasharray="4.73 4.73"/>
<g clip-path="url(#clip6_507_18841)">
<rect x="284.727" y="141.688" width="59.1669" height="82.8337" rx="7.10003" fill="url(#paint6_linear_507_18841)"/>
<path d="M295.157 148.806V165.054H291.809V148.806H295.157ZM304.887 148.806L298.449 156.829L294.733 160.824L294.13 157.655L296.641 154.218L300.781 148.806H304.887ZM301.082 165.054L296.295 157.544L298.772 155.468L305.044 165.054H301.082Z" fill="#EE3D3D"/>
<path fill-rule="evenodd" clip-rule="evenodd" d="M300.844 172.36C298.192 172.397 297.665 175.143 297.665 175.143C297.665 175.143 297.053 172.397 294.401 172.36C291.749 172.323 290.117 174.438 291.015 176.665C291.912 178.891 292.807 179.392 294.216 181.006C295.625 182.621 297.675 185.413 297.665 186.072C297.655 185.413 299.62 182.621 301.03 181.006C302.439 179.392 303.333 178.891 304.231 176.665C305.129 174.438 303.497 172.323 300.844 172.36Z" fill="#EE3D3D"/>
<path fill-rule="evenodd" clip-rule="evenodd" d="M333.151 191.861C327.383 191.942 326.237 197.914 326.237 197.914C326.237 197.914 324.906 191.942 319.138 191.861C313.371 191.781 309.822 196.381 311.774 201.223C313.726 206.065 315.671 207.154 318.736 210.665C321.8 214.175 326.259 220.248 326.237 221.68C326.215 220.248 330.489 214.175 333.553 210.665C336.618 207.154 338.563 206.065 340.515 201.223C342.467 196.381 338.918 191.781 333.151 191.861Z" fill="#EE3D3D"/>
</g>
<rect x="285.319" y="142.279" width="57.9836" height="81.6504" rx="6.50836" stroke="#15DB41" stroke-width="1.18334"/>
</g>
<g filter="url(#filter8_d_507_18841)">
<rect x="308.023" y="151.983" width="58.5753" height="82.2421" rx="9.17088" fill="#161F2C" stroke="#55657E" stroke-width="0.591669" stroke-dasharray="4.73 4.73"/>
<g clip-path="url(#clip7_507_18841)">
<rect x="307.727" y="151.688" width="59.1669" height="82.8337" rx="7.10003" fill="url(#paint7_linear_507_18841)"/>
<path d="M317.454 172.61H317.666C318.558 172.61 319.325 172.502 319.964 172.286C320.612 172.063 321.144 171.743 321.56 171.327C321.977 170.91 322.286 170.4 322.486 169.798C322.687 169.188 322.788 168.496 322.788 167.722V164.642C322.788 164.054 322.728 163.537 322.609 163.091C322.498 162.645 322.334 162.276 322.118 161.986C321.91 161.689 321.664 161.466 321.382 161.317C321.106 161.168 320.801 161.094 320.467 161.094C320.109 161.094 319.793 161.183 319.518 161.361C319.243 161.532 319.008 161.767 318.815 162.064C318.629 162.362 318.484 162.704 318.38 163.091C318.283 163.47 318.235 163.868 318.235 164.285C318.235 164.702 318.283 165.1 318.38 165.479C318.477 165.851 318.622 166.182 318.815 166.472C319.008 166.755 319.25 166.982 319.54 167.153C319.83 167.317 320.173 167.398 320.567 167.398C320.946 167.398 321.285 167.328 321.582 167.186C321.888 167.038 322.144 166.844 322.352 166.606C322.568 166.368 322.732 166.104 322.843 165.814C322.963 165.524 323.022 165.23 323.022 164.932L324.082 165.513C324.082 166.033 323.971 166.547 323.747 167.053C323.524 167.558 323.212 168.02 322.81 168.436C322.416 168.845 321.958 169.173 321.437 169.418C320.917 169.664 320.359 169.787 319.764 169.787C319.005 169.787 318.331 169.649 317.744 169.374C317.156 169.091 316.658 168.704 316.248 168.213C315.847 167.715 315.542 167.134 315.333 166.472C315.125 165.81 315.021 165.092 315.021 164.319C315.021 163.53 315.147 162.79 315.4 162.098C315.661 161.406 316.029 160.796 316.505 160.268C316.989 159.74 317.565 159.327 318.235 159.029C318.912 158.724 319.663 158.572 320.489 158.572C321.315 158.572 322.066 158.732 322.743 159.051C323.42 159.371 324 159.825 324.484 160.413C324.967 160.993 325.339 161.689 325.6 162.5C325.868 163.311 326.002 164.211 326.002 165.2V166.316C326.002 167.372 325.886 168.354 325.656 169.262C325.432 170.17 325.094 170.992 324.64 171.728C324.194 172.457 323.636 173.082 322.966 173.603C322.304 174.124 321.534 174.522 320.656 174.797C319.778 175.072 318.796 175.21 317.71 175.21H317.454V172.61Z" fill="#EE3D3D"/>
<rect x="320.623" y="182.111" width="10.0469" height="10.0469" transform="rotate(45 320.623 182.111)" fill="#EE3D3D"/>
<rect x="349.144" y="201.321" width="21.8489" height="21.8489" transform="rotate(45 349.144 201.321)" fill="#EE3D3D"/>
</g>
<rect x="308.319" y="152.279" width="57.9836" height="81.6504" rx="6.50836" stroke="#15DB41" stroke-width="1.18334"/>
</g>
<rect x="288.198" y="240.983" width="51.0584" height="21.1417" rx="10.3542" fill="#161F2C"/>
<path d="M296.128 251.518V252.622H299.164V255.754H295.42V256.858H304.012V255.754H300.316V252.622H303.424V251.518H300.316V249.19H299.164V251.518H296.128ZM299.152 246.166L297.88 246.382C298.096 246.73 298.3 247.102 298.468 247.498H294.064V251.122C294.04 253.402 293.716 255.178 293.092 256.462L294.052 257.314C294.796 255.754 295.18 253.69 295.216 251.122V248.59H304.012V247.498H299.716C299.536 247.006 299.344 246.562 299.152 246.166ZM312.472 252.706C313.048 254.314 313.972 255.658 315.244 256.726L316.06 255.778C314.836 254.914 313.936 253.786 313.384 252.382C314.092 252.094 314.752 251.758 315.376 251.362L314.608 250.594C313.648 251.206 312.64 251.662 311.584 251.974C311.344 251.542 311.056 251.134 310.708 250.75C310.972 250.582 311.248 250.402 311.536 250.21H314.2V249.154H307.072V250.21H309.76C309.496 250.342 309.22 250.462 308.932 250.582C307.972 250.978 306.94 251.29 305.836 251.518L306.412 252.466C307.828 252.046 308.932 251.65 309.712 251.278C309.748 251.254 309.784 251.242 309.832 251.218C309.952 251.362 310.06 251.506 310.18 251.662C309.088 252.442 307.564 253.078 305.608 253.582L306.172 254.566C308.032 254.026 309.532 253.342 310.66 252.502C310.756 252.718 310.852 252.958 310.924 253.198C309.616 254.23 307.792 255.082 305.452 255.742L306.028 256.714C308.116 256.066 309.82 255.262 311.116 254.29C311.116 254.398 311.128 254.518 311.128 254.638C311.128 255.31 311.02 255.754 310.828 255.994C310.66 256.174 310.24 256.27 309.568 256.27H308.956L309.34 257.278H309.724C310.816 257.278 311.512 257.062 311.824 256.63C312.088 256.27 312.232 255.598 312.232 254.638C312.22 253.99 312.124 253.39 311.944 252.838C312.112 252.79 312.292 252.754 312.472 252.706ZM310.912 246.13L309.748 246.334C309.88 246.586 310.012 246.862 310.132 247.174H305.488V249.406H306.628V248.23H314.644V249.406H315.784V247.174H311.284C311.164 246.79 311.044 246.442 310.912 246.13Z" fill="white"/>
<rect x="320.186" y="243.054" width="17" height="17" rx="8.5" fill="#15DB41"/>
<path d="M328.592 247.318C327.74 247.318 327.032 247.594 326.456 248.158C325.88 248.71 325.604 249.406 325.604 250.27C325.604 251.11 325.844 251.794 326.336 252.322C326.84 252.862 327.524 253.138 328.364 253.138C328.808 253.138 329.204 253.042 329.552 252.874C329.912 252.682 330.224 252.406 330.464 252.034H330.512C330.512 252.094 330.524 252.142 330.524 252.19C330.524 253.018 330.344 253.714 330.008 254.266C329.648 254.842 329.18 255.142 328.592 255.142C327.728 255.142 327.2 254.722 327.032 253.894H325.76C325.976 255.442 326.912 256.222 328.58 256.222C329.564 256.222 330.344 255.778 330.932 254.914C331.496 254.05 331.784 252.922 331.784 251.53C331.784 250.21 331.508 249.19 330.98 248.458C330.428 247.69 329.636 247.318 328.592 247.318ZM328.64 248.398C329.144 248.398 329.564 248.566 329.888 248.902C330.2 249.226 330.368 249.67 330.368 250.234C330.368 250.786 330.212 251.242 329.9 251.578C329.588 251.914 329.156 252.082 328.628 252.082C328.088 252.082 327.668 251.914 327.368 251.578C327.044 251.254 326.888 250.822 326.888 250.27C326.888 249.718 327.044 249.274 327.368 248.926C327.68 248.566 328.112 248.398 328.64 248.398Z" fill="#484848"/>
<rect x="288.198" y="240.983" width="51.0584" height="21.1417" rx="10.3542" stroke="#55657E" stroke-width="0.591669"/>
<defs>
<filter id="filter0_di_507_18841" x="108.839" y="21.2977" width="214.322" height="112.881" filterUnits="userSpaceOnUse" color-interpolation-filters="sRGB">
<feFlood flood-opacity="0" result="BackgroundImageFix"/>
<feColorMatrix in="SourceAlpha" type="matrix" values="0 0 0 0 0 0 0 0 0 0 0 0 0 0 0 0 0 0 127 0" result="hardAlpha"/>
<feOffset dy="3.05085"/>
<feGaussianBlur stdDeviation="5.72034"/>
<feComposite in2="hardAlpha" operator="out"/>
<feColorMatrix type="matrix" values="0 0 0 0 0 0 0 0 0 0 0 0 0 0 0 0 0 0 0.25 0"/>
<feBlend mode="normal" in2="BackgroundImageFix" result="effect1_dropShadow_507_18841"/>
<feBlend mode="normal" in="SourceGraphic" in2="effect1_dropShadow_507_18841" result="shape"/>
<feColorMatrix in="SourceAlpha" type="matrix" values="0 0 0 0 0 0 0 0 0 0 0 0 0 0 0 0 0 0 127 0" result="hardAlpha"/>
<feOffset/>
<feGaussianBlur stdDeviation="7.62712"/>
<feComposite in2="hardAlpha" operator="arithmetic" k2="-1" k3="1"/>
<feColorMatrix type="matrix" values="0 0 0 0 1 0 0 0 0 0.841416 0 0 0 0 0.279167 0 0 0 1 0"/>
<feBlend mode="normal" in2="shape" result="effect2_innerShadow_507_18841"/>
</filter>
<filter id="filter1_d_507_18841" x="205.063" y="39.0713" width="20.4788" height="24.3301" filterUnits="userSpaceOnUse" color-interpolation-filters="sRGB">
<feFlood flood-opacity="0" result="BackgroundImageFix"/>
<feColorMatrix in="SourceAlpha" type="matrix" values="0 0 0 0 0 0 0 0 0 0 0 0 0 0 0 0 0 0 127 0" result="hardAlpha"/>
<feOffset dy="3.05085"/>
<feComposite in2="hardAlpha" operator="out"/>
<feColorMatrix type="matrix" values="0 0 0 0 0 0 0 0 0 0 0 0 0 0 0 0 0 0 0.25 0"/>
<feBlend mode="normal" in2="BackgroundImageFix" result="effect1_dropShadow_507_18841"/>
<feBlend mode="normal" in="SourceGraphic" in2="effect1_dropShadow_507_18841" result="shape"/>
</filter>
<filter id="filter2_d_507_18841" x="190.026" y="72.209" width="53.3333" height="16.6007" filterUnits="userSpaceOnUse" color-interpolation-filters="sRGB">
<feFlood flood-opacity="0" result="BackgroundImageFix"/>
<feColorMatrix in="SourceAlpha" type="matrix" values="0 0 0 0 0 0 0 0 0 0 0 0 0 0 0 0 0 0 127 0" result="hardAlpha"/>
<feOffset dy="3.05085"/>
<feComposite in2="hardAlpha" operator="out"/>
<feColorMatrix type="matrix" values="0 0 0 0 0 0 0 0 0 0 0 0 0 0 0 0 0 0 0.25 0"/>
<feBlend mode="normal" in2="BackgroundImageFix" result="effect1_dropShadow_507_18841"/>
<feBlend mode="normal" in="SourceGraphic" in2="effect1_dropShadow_507_18841" result="shape"/>
</filter>
<filter id="filter3_d_507_18841" x="60.3755" y="126.096" width="68.9616" height="92.6286" filterUnits="userSpaceOnUse" color-interpolation-filters="sRGB">
<feFlood flood-opacity="0" result="BackgroundImageFix"/>
<feColorMatrix in="SourceAlpha" type="matrix" values="0 0 0 0 0 0 0 0 0 0 0 0 0 0 0 0 0 0 127 0" result="hardAlpha"/>
<feOffset dy="1.30595"/>
<feGaussianBlur stdDeviation="2.44865"/>
<feComposite in2="hardAlpha" operator="out"/>
<feColorMatrix type="matrix" values="0 0 0 0 0 0 0 0 0 0 0 0 0 0 0 0 0 0 0.25 0"/>
<feBlend mode="normal" in2="BackgroundImageFix" result="effect1_dropShadow_507_18841"/>
<feBlend mode="normal" in="SourceGraphic" in2="effect1_dropShadow_507_18841" result="shape"/>
</filter>
<filter id="filter4_d_507_18841" x="84.3757" y="138.096" width="68.9616" height="92.6286" filterUnits="userSpaceOnUse" color-interpolation-filters="sRGB">
<feFlood flood-opacity="0" result="BackgroundImageFix"/>
<feColorMatrix in="SourceAlpha" type="matrix" values="0 0 0 0 0 0 0 0 0 0 0 0 0 0 0 0 0 0 127 0" result="hardAlpha"/>
<feOffset dy="1.30595"/>
<feGaussianBlur stdDeviation="2.44865"/>
<feComposite in2="hardAlpha" operator="out"/>
<feColorMatrix type="matrix" values="0 0 0 0 0 0 0 0 0 0 0 0 0 0 0 0 0 0 0.25 0"/>
<feBlend mode="normal" in2="BackgroundImageFix" result="effect1_dropShadow_507_18841"/>
<feBlend mode="normal" in="SourceGraphic" in2="effect1_dropShadow_507_18841" result="shape"/>
</filter>
<filter id="filter5_d_507_18841" x="107.376" y="148.096" width="68.9616" height="92.6286" filterUnits="userSpaceOnUse" color-interpolation-filters="sRGB">
<feFlood flood-opacity="0" result="BackgroundImageFix"/>
<feColorMatrix in="SourceAlpha" type="matrix" values="0 0 0 0 0 0 0 0 0 0 0 0 0 0 0 0 0 0 127 0" result="hardAlpha"/>
<feOffset dy="1.30595"/>
<feGaussianBlur stdDeviation="2.44865"/>
<feComposite in2="hardAlpha" operator="out"/>
<feColorMatrix type="matrix" values="0 0 0 0 0 0 0 0 0 0 0 0 0 0 0 0 0 0 0.25 0"/>
<feBlend mode="normal" in2="BackgroundImageFix" result="effect1_dropShadow_507_18841"/>
<feBlend mode="normal" in="SourceGraphic" in2="effect1_dropShadow_507_18841" result="shape"/>
</filter>
<filter id="filter6_d_507_18841" x="255.83" y="126.096" width="68.9616" height="92.6286" filterUnits="userSpaceOnUse" color-interpolation-filters="sRGB">
<feFlood flood-opacity="0" result="BackgroundImageFix"/>
<feColorMatrix in="SourceAlpha" type="matrix" values="0 0 0 0 0 0 0 0 0 0 0 0 0 0 0 0 0 0 127 0" result="hardAlpha"/>
<feOffset dy="1.30595"/>
<feGaussianBlur stdDeviation="2.44865"/>
<feComposite in2="hardAlpha" operator="out"/>
<feColorMatrix type="matrix" values="0 0 0 0 0 0 0 0 0 0 0 0 0 0 0 0 0 0 0.25 0"/>
<feBlend mode="normal" in2="BackgroundImageFix" result="effect1_dropShadow_507_18841"/>
<feBlend mode="normal" in="SourceGraphic" in2="effect1_dropShadow_507_18841" result="shape"/>
</filter>
<filter id="filter7_d_507_18841" x="279.83" y="138.096" width="68.9616" height="92.6286" filterUnits="userSpaceOnUse" color-interpolation-filters="sRGB">
<feFlood flood-opacity="0" result="BackgroundImageFix"/>
<feColorMatrix in="SourceAlpha" type="matrix" values="0 0 0 0 0 0 0 0 0 0 0 0 0 0 0 0 0 0 127 0" result="hardAlpha"/>
<feOffset dy="1.30595"/>
<feGaussianBlur stdDeviation="2.44865"/>
<feComposite in2="hardAlpha" operator="out"/>
<feColorMatrix type="matrix" values="0 0 0 0 0 0 0 0 0 0 0 0 0 0 0 0 0 0 0.25 0"/>
<feBlend mode="normal" in2="BackgroundImageFix" result="effect1_dropShadow_507_18841"/>
<feBlend mode="normal" in="SourceGraphic" in2="effect1_dropShadow_507_18841" result="shape"/>
</filter>
<filter id="filter8_d_507_18841" x="302.83" y="148.096" width="68.9616" height="92.6286" filterUnits="userSpaceOnUse" color-interpolation-filters="sRGB">
<feFlood flood-opacity="0" result="BackgroundImageFix"/>
<feColorMatrix in="SourceAlpha" type="matrix" values="0 0 0 0 0 0 0 0 0 0 0 0 0 0 0 0 0 0 127 0" result="hardAlpha"/>
<feOffset dy="1.30595"/>
<feGaussianBlur stdDeviation="2.44865"/>
<feComposite in2="hardAlpha" operator="out"/>
<feColorMatrix type="matrix" values="0 0 0 0 0 0 0 0 0 0 0 0 0 0 0 0 0 0 0.25 0"/>
<feBlend mode="normal" in2="BackgroundImageFix" result="effect1_dropShadow_507_18841"/>
<feBlend mode="normal" in="SourceGraphic" in2="effect1_dropShadow_507_18841" result="shape"/>
</filter>
<radialGradient id="paint0_radial_507_18841" cx="0" cy="0" r="1" gradientUnits="userSpaceOnUse" gradientTransform="translate(216.381 100.62) rotate(90) scale(95.339)">
<stop stop-color="#E78831" stop-opacity="0.2"/>
<stop offset="1" stop-color="#E78831" stop-opacity="0"/>
</radialGradient>
<linearGradient id="paint1_linear_507_18841" x1="216" y1="37.3145" x2="216" y2="60.9585" gradientUnits="userSpaceOnUse">
<stop offset="0.401042" stop-color="#FFDF8D"/>
<stop offset="0.666667" stop-color="#EFAC00"/>
</linearGradient>
<linearGradient id="paint2_linear_507_18841" x1="94.8563" y1="129.688" x2="94.8563" y2="212.521" gradientUnits="userSpaceOnUse">
<stop stop-color="#F9F9F9"/>
<stop offset="1" stop-color="#ECECEC"/>
</linearGradient>
<linearGradient id="paint3_linear_507_18841" x1="118.856" y1="141.688" x2="118.856" y2="224.521" gradientUnits="userSpaceOnUse">
<stop stop-color="#F9F9F9"/>
<stop offset="1" stop-color="#ECECEC"/>
</linearGradient>
<linearGradient id="paint4_linear_507_18841" x1="141.856" y1="151.688" x2="141.856" y2="234.521" gradientUnits="userSpaceOnUse">
<stop stop-color="#F9F9F9"/>
<stop offset="1" stop-color="#ECECEC"/>
</linearGradient>
<linearGradient id="paint5_linear_507_18841" x1="290.311" y1="129.688" x2="290.311" y2="212.521" gradientUnits="userSpaceOnUse">
<stop stop-color="#F9F9F9"/>
<stop offset="1" stop-color="#ECECEC"/>
</linearGradient>
<linearGradient id="paint6_linear_507_18841" x1="314.311" y1="141.688" x2="314.311" y2="224.521" gradientUnits="userSpaceOnUse">
<stop stop-color="#F9F9F9"/>
<stop offset="1" stop-color="#ECECEC"/>
</linearGradient>
<linearGradient id="paint7_linear_507_18841" x1="337.311" y1="151.688" x2="337.311" y2="234.521" gradientUnits="userSpaceOnUse">
<stop stop-color="#F9F9F9"/>
<stop offset="1" stop-color="#ECECEC"/>
</linearGradient>
<clipPath id="clip0_507_18841">
<rect x="120.28" y="29.6875" width="191.441" height="90" rx="22.8814" fill="white"/>
</clipPath>
<clipPath id="clip1_507_18841">
<rect width="13.7288" height="13.7288" fill="white" transform="translate(171 97.1787)"/>
</clipPath>
<clipPath id="clip2_507_18841">
<rect x="65.2728" y="129.688" width="59.1669" height="82.8337" rx="7.10003" fill="white"/>
</clipPath>
<clipPath id="clip3_507_18841">
<rect x="89.2729" y="141.688" width="59.1669" height="82.8337" rx="7.10003" fill="white"/>
</clipPath>
<clipPath id="clip4_507_18841">
<rect x="112.273" y="151.688" width="59.1669" height="82.8337" rx="7.10003" fill="white"/>
</clipPath>
<clipPath id="clip5_507_18841">
<rect x="260.727" y="129.688" width="59.1669" height="82.8337" rx="7.10003" fill="white"/>
</clipPath>
<clipPath id="clip6_507_18841">
<rect x="284.727" y="141.688" width="59.1669" height="82.8337" rx="7.10003" fill="white"/>
</clipPath>
<clipPath id="clip7_507_18841">
<rect x="307.727" y="151.688" width="59.1669" height="82.8337" rx="7.10003" fill="white"/>
</clipPath>
</defs>
</svg>
