<svg width="431" height="355" viewBox="0 0 431 355" fill="none" xmlns="http://www.w3.org/2000/svg">
<rect width="430.285" height="354.376" rx="10" fill="#F4F7FD"/>
<rect x="10" y="20" width="410.285" height="314.376" rx="3.87518" fill="white"/>
<g clip-path="url(#clip0_627_19776)">
<rect width="390.909" height="26" transform="translate(19.6875 29.6875)" fill="url(#paint0_linear_627_19776)"/>
<path d="M55.5057 41.2395V42.3575H57.7937C57.0657 43.7745 56.1037 44.9055 54.8947 45.7635L55.6227 46.9465C56.6107 46.0365 57.4557 44.8665 58.1577 43.4365V48.2985H59.3017V44.0995C60.2117 44.9185 60.9527 45.6985 61.5247 46.4525L62.3177 45.6465C61.4987 44.6845 60.4977 43.7095 59.3017 42.7475V42.3575H61.8107V41.2395H59.3017V39.3675H58.1577V41.2395H55.5057ZM62.5387 48.9225C63.5007 48.9225 63.9947 48.4415 63.9947 47.4795V37.6125H57.9367V38.7045H62.8377V47.1545C62.8377 47.6095 62.6557 47.8435 62.2917 47.8435L61.1607 47.8045L61.4727 48.9225H62.5387ZM53.3217 39.1855V49.0395H54.4787V39.1855H53.3217ZM55.4017 36.9105L54.3617 37.3785C54.8557 37.9505 55.3237 38.6135 55.7397 39.3675L56.7407 38.8475C56.3507 38.1455 55.8957 37.4955 55.4017 36.9105ZM73.6537 44.0605C74.2777 45.8025 75.2787 47.2585 76.6567 48.4155L77.5407 47.3885C76.2147 46.4525 75.2397 45.2305 74.6417 43.7095C75.4087 43.3975 76.1237 43.0335 76.7997 42.6045L75.9677 41.7725C74.9277 42.4355 73.8357 42.9295 72.6917 43.2675C72.4317 42.7995 72.1197 42.3575 71.7427 41.9415C72.0287 41.7595 72.3277 41.5645 72.6397 41.3565H75.5257V40.2125H67.8037V41.3565H70.7157C70.4297 41.4995 70.1307 41.6295 69.8187 41.7595C68.7787 42.1885 67.6607 42.5265 66.4647 42.7735L67.0887 43.8005C68.6227 43.3455 69.8187 42.9165 70.6637 42.5135C70.7027 42.4875 70.7417 42.4745 70.7937 42.4485C70.9237 42.6045 71.0407 42.7605 71.1707 42.9295C69.9877 43.7745 68.3367 44.4635 66.2177 45.0095L66.8287 46.0755C68.8437 45.4905 70.4687 44.7495 71.6907 43.8395C71.7947 44.0735 71.8987 44.3335 71.9767 44.5935C70.5597 45.7115 68.5837 46.6345 66.0487 47.3495L66.6727 48.4025C68.9347 47.7005 70.7807 46.8295 72.1847 45.7765C72.1847 45.8935 72.1977 46.0235 72.1977 46.1535C72.1977 46.8815 72.0807 47.3625 71.8727 47.6225C71.6907 47.8175 71.2357 47.9215 70.5077 47.9215H69.8447L70.2607 49.0135H70.6767C71.8597 49.0135 72.6137 48.7795 72.9517 48.3115C73.2377 47.9215 73.3937 47.1935 73.3937 46.1535C73.3807 45.4515 73.2767 44.8015 73.0817 44.2035C73.2637 44.1515 73.4587 44.1125 73.6537 44.0605ZM71.9637 36.9365L70.7027 37.1575C70.8457 37.4305 70.9887 37.7295 71.1187 38.0675H66.0877V40.4855H67.3227V39.2115H76.0067V40.4855H77.2417V38.0675H72.3667C72.2367 37.6515 72.1067 37.2745 71.9637 36.9365ZM86.8227 36.9365C86.5367 37.5085 86.2247 38.0415 85.8607 38.5485H83.5077C83.2477 37.9895 82.9877 37.4955 82.7147 37.0535L81.4147 37.2615C81.6877 37.6515 81.9477 38.0805 82.1817 38.5485H78.8017V39.7445H90.5147V38.5485H87.2257C87.5117 38.1845 87.7717 37.7945 88.0187 37.3525L86.8227 36.9365ZM83.3517 48.9485C84.1707 48.9485 84.5867 48.4415 84.5867 47.4405V40.5505H79.6337V49.0525H80.8427V46.2965H83.3907V47.1675C83.3907 47.5705 83.2347 47.7785 82.9487 47.7785L82.0127 47.7395L82.3377 48.9485H83.3517ZM80.8427 45.2045V43.9955H83.3907V45.2045H80.8427ZM80.8427 42.9035V41.6945H83.3907V42.9035H80.8427ZM88.4217 48.9095C89.2667 48.9095 89.6957 48.4675 89.6957 47.5835V40.2775H88.4607V47.2715C88.4607 47.6225 88.3047 47.8045 87.9927 47.8045C87.4727 47.8045 86.9527 47.7785 86.4067 47.7265L86.6667 48.9095H88.4217ZM85.7827 41.2525V46.8035H86.9787V41.2525H85.7827ZM91.8797 37.5475V38.7565H95.2727V40.5115H92.4257V48.9745H93.6477V46.0105L94.5577 46.7905C95.2077 46.0755 95.6887 45.1395 96.0137 43.9695C96.2737 44.4245 96.5727 45.0355 96.9367 45.8155L97.6387 44.7755C97.1707 44.0605 96.7027 43.4105 96.2477 42.8255C96.2997 42.4615 96.3517 42.0845 96.3777 41.6815H98.8347C98.6787 43.7355 98.1327 45.2825 97.1707 46.3095L98.0937 47.1155C98.8347 46.3095 99.3677 45.2305 99.6927 43.8655C100.018 44.5285 100.408 45.4125 100.85 46.5045L101.617 45.3605C101.045 44.3335 100.486 43.3975 99.9267 42.5525L100.005 41.6815H101.682V47.1675C101.682 47.5575 101.539 47.7655 101.266 47.7655L100.005 47.7135L100.317 48.9095H101.669C102.488 48.9095 102.904 48.4155 102.904 47.4275V40.5115H100.044V38.7565H103.45V37.5475H91.8797ZM95.2207 41.6815C95.0517 43.5535 94.5317 44.9705 93.6477 45.9585V41.6815H95.2207ZM96.4297 40.5115V38.7565H98.8737V40.5115H96.4297ZM110.21 37.0405V42.3055H109.261V43.5015H110.21V47.3755C110.21 47.6355 110.041 47.8305 109.729 47.9605L110.275 49.0915C111.523 48.7405 112.641 48.2985 113.616 47.7525L113.382 46.5825C112.706 46.9725 112.056 47.2845 111.406 47.5315V43.5015H112.615C113.356 45.8415 114.448 47.6355 115.904 48.8575L116.749 47.9085C115.449 46.8685 114.448 45.3995 113.72 43.5015H116.515V42.3055H111.406V37.0405H110.21ZM115.215 37.6255C114.474 38.7565 113.356 39.7705 111.848 40.6545L112.563 41.6165C114.123 40.6935 115.293 39.6665 116.073 38.5225L115.215 37.6255ZM106.31 41.4995H108.689V37.4695H104.854V38.6005H107.506V40.3685H105.218L104.802 44.4245H107.675C107.675 45.8285 107.623 46.7385 107.519 47.1675C107.415 47.5965 107.012 47.8175 106.323 47.8175C105.933 47.8175 105.569 47.7915 105.205 47.7655L105.517 48.8835C105.881 48.9095 106.232 48.9355 106.596 48.9355C107.818 48.8705 108.507 48.4675 108.663 47.7135C108.806 46.9855 108.884 45.5165 108.884 43.3065H106.089L106.31 41.4995ZM120.623 37.1705V40.5375H119.596V37.4305H118.4V42.2015C118.387 45.0225 118.101 47.0765 117.529 48.3505L118.439 49.1435C118.998 48.0515 119.362 46.4915 119.518 44.4375H120.766V48.8445H121.962V43.2805H119.57C119.583 42.9425 119.596 42.5785 119.596 42.2015V41.6945H122.469V40.5375H121.819V37.1705H120.623ZM122.924 38.1195V43.8265H124.705C124.393 44.2165 123.925 44.5415 123.314 44.8275L123.717 45.4515H122.404V46.6345H126.278V48.9875H127.474V46.6345H129.619V45.4515H127.474V44.2295H126.278V45.4515H124.328C125.004 45.1005 125.511 44.6455 125.862 44.0735C125.901 43.9955 125.94 43.9175 125.992 43.8265H129.034V38.1195H126.2C126.343 37.7945 126.46 37.4565 126.551 37.1055L125.329 36.9495C125.251 37.3525 125.121 37.7425 124.952 38.1195H122.924ZM127.916 42.7605H126.343C126.421 42.3705 126.486 41.9415 126.525 41.4735H127.916V42.7605ZM125.212 42.7605H124.029V41.4735H125.407C125.381 41.9415 125.316 42.3705 125.212 42.7605ZM124.029 40.4465V39.1985H125.433V40.4465H124.029ZM126.551 39.1985H127.916V40.4465H126.551V39.1985ZM136.21 37.0015C134.702 38.7435 132.804 40.2125 130.529 41.3825L131.179 42.5785C131.907 42.1755 132.596 41.7465 133.246 41.2785V42.2275H140.084V41.3045C140.708 41.7465 141.384 42.1625 142.099 42.5525L142.762 41.3695C140.63 40.3035 138.758 38.8475 137.12 37.0015H136.21ZM133.571 41.0445C134.767 40.1605 135.794 39.1855 136.665 38.1195C137.562 39.2115 138.589 40.1865 139.733 41.0445H133.571ZM140.903 43.6185H132.427V49.0135H133.623V48.3115H139.707V49.0135H140.903V43.6185ZM133.623 47.1415V44.7755H139.707V47.1415H133.623ZM147.78 40.8235V42.0455H151.186V49.0525H152.46V42.0455H155.684V40.8235H152.46V37.0145H151.186V40.8235H147.78ZM145.414 37.1315L144.556 37.9765C145.479 38.6525 146.194 39.3025 146.714 39.9135L147.559 39.0555C146.974 38.4055 146.259 37.7685 145.414 37.1315ZM143.698 40.9015V42.0845H145.518V46.8685C145.518 47.1285 145.401 47.3495 145.18 47.5315L145.648 48.6365C146.597 48.0255 147.494 47.3235 148.326 46.5435L148.001 45.2825C147.546 45.7115 147.117 46.1015 146.701 46.4395V40.9015H143.698ZM161.846 37.1055V40.7845H158.336V45.1915H167.202V40.7845H163.068V39.4065H168.021V38.2495H163.068V37.1055H161.846ZM165.967 44.0475H159.558V41.9415H165.967V44.0475ZM158.31 45.6205C157.842 46.6475 157.296 47.5315 156.672 48.2725L157.686 49.0135C158.31 48.2075 158.869 47.2455 159.337 46.1275L158.31 45.6205ZM161.404 46.0365L160.247 46.2835C160.494 47.0765 160.702 47.9995 160.858 49.0395L162.106 48.7535C161.898 47.7785 161.664 46.8685 161.404 46.0365ZM164.108 45.8675L162.951 46.1015C163.315 46.9465 163.627 47.9215 163.874 49.0135L165.096 48.7275C164.81 47.7005 164.485 46.7515 164.108 45.8675ZM166.708 45.5815L165.72 46.2185C166.5 47.2585 167.111 48.2205 167.566 49.0785L168.593 48.3635C168.151 47.5705 167.527 46.6475 166.708 45.5815ZM177.836 40.0955H179.513C179.461 41.6555 179.227 43.0335 178.798 44.2295C178.343 43.2155 177.966 42.0325 177.68 40.6805C177.732 40.4985 177.784 40.3035 177.836 40.0955ZM178.239 45.4905C177.667 46.5175 176.9 47.3495 175.938 47.9995L176.575 49.0265C177.485 48.3765 178.252 47.5705 178.863 46.6215C179.487 47.6225 180.215 48.4285 181.06 49.0395L181.749 48.0385C180.865 47.4405 180.111 46.5955 179.461 45.5165C180.163 44.0215 180.553 42.2145 180.631 40.0955H181.385V38.9125H178.083C178.187 38.3795 178.265 37.8205 178.343 37.2225L177.134 37.0145C176.874 39.4325 176.38 41.3565 175.652 42.7865L176.432 43.7485C176.666 43.3585 176.874 42.9165 177.082 42.4485C177.407 43.5795 177.797 44.5935 178.239 45.4905ZM172.077 43.0595C171.999 43.2935 171.908 43.5535 171.804 43.8135H169.971V44.8665H171.336C171.089 45.3605 170.803 45.8675 170.491 46.4135C171.089 46.6475 171.661 46.8685 172.194 47.0895C171.492 47.4535 170.647 47.7395 169.672 47.9735L170.244 48.9875C171.531 48.6495 172.61 48.2075 173.468 47.6485C174.183 47.9735 174.794 48.2855 175.301 48.5975L175.964 47.6355C175.47 47.3755 174.95 47.1155 174.417 46.8815C175.015 46.2835 175.431 45.5945 175.665 44.8145V43.8135H173.013C173.091 43.6055 173.156 43.4105 173.234 43.2025L172.077 43.0595ZM173.286 46.4135C172.857 46.2315 172.415 46.0755 171.96 45.9195C172.168 45.5815 172.363 45.2305 172.545 44.8665H174.56C174.274 45.4385 173.858 45.9585 173.286 46.4135ZM171.18 37.2225L170.205 37.5475C170.504 38.0285 170.79 38.5875 171.05 39.2115L171.934 38.8085C171.713 38.2365 171.466 37.7165 171.18 37.2225ZM174.911 37.2095C174.677 37.7295 174.352 38.2625 173.936 38.8085L174.794 39.2505C175.197 38.7175 175.522 38.1715 175.782 37.6255L174.911 37.2095ZM169.997 39.4325V40.5115H171.635C171.245 41.1095 170.608 41.6685 169.698 42.1885L170.309 43.1895C171.31 42.4875 172.025 41.6685 172.454 40.7325V42.9295H173.585V41.4735C173.988 41.7335 174.469 42.0975 175.041 42.5525L175.691 41.5775C174.976 41.2005 174.274 40.8625 173.585 40.5765V40.5115H175.847V39.4325H173.585V37.0405H172.454V39.4325H169.997Z" fill="black"/>
<rect x="214.642" y="29.6875" width="1" height="26" fill="#ECECEC"/>
<path d="M303.46 41.2395V42.3575H305.748C305.02 43.7745 304.058 44.9055 302.849 45.7635L303.577 46.9465C304.565 46.0365 305.41 44.8665 306.112 43.4365V48.2985H307.256V44.0995C308.166 44.9185 308.907 45.6985 309.479 46.4525L310.272 45.6465C309.453 44.6845 308.452 43.7095 307.256 42.7475V42.3575H309.765V41.2395H307.256V39.3675H306.112V41.2395H303.46ZM310.493 48.9225C311.455 48.9225 311.949 48.4415 311.949 47.4795V37.6125H305.891V38.7045H310.792V47.1545C310.792 47.6095 310.61 47.8435 310.246 47.8435L309.115 47.8045L309.427 48.9225H310.493ZM301.276 39.1855V49.0395H302.433V39.1855H301.276ZM303.356 36.9105L302.316 37.3785C302.81 37.9505 303.278 38.6135 303.694 39.3675L304.695 38.8475C304.305 38.1455 303.85 37.4955 303.356 36.9105ZM321.608 44.0605C322.232 45.8025 323.233 47.2585 324.611 48.4155L325.495 47.3885C324.169 46.4525 323.194 45.2305 322.596 43.7095C323.363 43.3975 324.078 43.0335 324.754 42.6045L323.922 41.7725C322.882 42.4355 321.79 42.9295 320.646 43.2675C320.386 42.7995 320.074 42.3575 319.697 41.9415C319.983 41.7595 320.282 41.5645 320.594 41.3565H323.48V40.2125H315.758V41.3565H318.67C318.384 41.4995 318.085 41.6295 317.773 41.7595C316.733 42.1885 315.615 42.5265 314.419 42.7735L315.043 43.8005C316.577 43.3455 317.773 42.9165 318.618 42.5135C318.657 42.4875 318.696 42.4745 318.748 42.4485C318.878 42.6045 318.995 42.7605 319.125 42.9295C317.942 43.7745 316.291 44.4635 314.172 45.0095L314.783 46.0755C316.798 45.4905 318.423 44.7495 319.645 43.8395C319.749 44.0735 319.853 44.3335 319.931 44.5935C318.514 45.7115 316.538 46.6345 314.003 47.3495L314.627 48.4025C316.889 47.7005 318.735 46.8295 320.139 45.7765C320.139 45.8935 320.152 46.0235 320.152 46.1535C320.152 46.8815 320.035 47.3625 319.827 47.6225C319.645 47.8175 319.19 47.9215 318.462 47.9215H317.799L318.215 49.0135H318.631C319.814 49.0135 320.568 48.7795 320.906 48.3115C321.192 47.9215 321.348 47.1935 321.348 46.1535C321.335 45.4515 321.231 44.8015 321.036 44.2035C321.218 44.1515 321.413 44.1125 321.608 44.0605ZM319.918 36.9365L318.657 37.1575C318.8 37.4305 318.943 37.7295 319.073 38.0675H314.042V40.4855H315.277V39.2115H323.961V40.4855H325.196V38.0675H320.321C320.191 37.6515 320.061 37.2745 319.918 36.9365Z" fill="black"/>
<path d="M117.167 64.2235C116.075 64.2235 115.23 64.6785 114.632 65.6015C114.086 66.4465 113.813 67.5905 113.813 69.0465C113.813 70.4895 114.086 71.6335 114.632 72.4915C115.23 73.4015 116.075 73.8695 117.167 73.8695C118.259 73.8695 119.104 73.4015 119.702 72.4915C120.248 71.6335 120.521 70.4765 120.521 69.0465C120.521 67.6035 120.248 66.4595 119.702 65.6015C119.104 64.6785 118.259 64.2235 117.167 64.2235ZM117.167 65.4195C117.921 65.4195 118.467 65.8355 118.779 66.6805C119 67.2525 119.117 68.0455 119.117 69.0465C119.117 70.0345 119 70.8275 118.779 71.4125C118.467 72.2445 117.921 72.6735 117.167 72.6735C116.4 72.6735 115.867 72.2445 115.555 71.4125C115.321 70.8275 115.217 70.0345 115.217 69.0465C115.217 68.0455 115.321 67.2525 115.555 66.6805C115.867 65.8355 116.4 65.4195 117.167 65.4195Z" fill="black"/>
<rect x="214.642" y="55.6875" width="1" height="26" fill="#ECECEC"/>
<path d="M292.267 63.0535L291.422 63.8595C292.501 64.7305 293.346 65.5365 293.944 66.2905L294.802 65.4325C294.126 64.6395 293.281 63.8465 292.267 63.0535ZM296.18 63.4565C295.296 66.6285 293.97 69.1635 292.228 71.0745V65.7445H290.993V72.2575C290.161 72.9465 289.251 73.5185 288.237 73.9865L288.952 75.0265C289.706 74.6885 290.421 74.2725 291.11 73.7785C291.292 74.2855 291.734 74.5455 292.449 74.5455H295.153C295.764 74.5455 296.219 74.3765 296.518 74.0645C296.83 73.7135 297.051 72.6475 297.168 70.8665L295.998 70.4635C295.933 71.8805 295.803 72.7255 295.621 72.9855C295.478 73.2325 295.244 73.3625 294.932 73.3625H292.839C292.449 73.3625 292.254 73.1935 292.228 72.8685C294.464 70.8405 296.167 67.8635 297.324 63.9635L296.18 63.4565ZM289.056 66.9015C288.757 68.6955 288.263 70.3595 287.587 71.9195L288.653 72.5825C289.342 71.0615 289.875 69.2545 290.239 67.1485L289.056 66.9015ZM297.753 67.1095L296.583 67.4865C297.311 68.9555 297.987 70.6325 298.585 72.5305L299.69 72.0365C299.144 70.2945 298.494 68.6435 297.753 67.1095ZM305.618 63.4825V64.6785H308.426C308.387 65.0555 308.335 65.4195 308.27 65.7835H305.982V72.0755H307.191V66.9275H310.883V72.0755H312.092V65.7835H309.544C309.596 65.4325 309.635 65.0685 309.687 64.6785H312.443V63.4825H305.618ZM308.426 67.5645V69.8395C308.374 70.8795 308.088 71.7375 307.568 72.3875C307.035 72.9985 306.034 73.5055 304.565 73.8955L305.267 75.0005C306.775 74.5715 307.854 73.9735 308.517 73.1935C309.206 72.3615 309.583 71.2435 309.635 69.8395V67.5645H308.426ZM304.422 63.0405C303.538 64.0025 302.381 64.7825 300.977 65.3805L301.51 66.5115C302.953 65.8095 304.175 64.9515 305.189 63.9115L304.422 63.0405ZM304.565 66.5505C303.629 67.6035 302.446 68.4485 301.016 69.0985L301.549 70.2295C303.031 69.4885 304.292 68.5525 305.319 67.4215L304.565 66.5505ZM304.799 70.4505C303.759 71.7765 302.446 72.8555 300.86 73.6745L301.432 74.8705C303.07 73.9345 304.448 72.7515 305.566 71.3345L304.799 70.4505ZM310.246 72.0105L309.401 72.8295C310.376 73.6095 311.143 74.3375 311.689 75.0135L312.612 74.0905C311.975 73.4015 311.182 72.7125 310.246 72.0105ZM315.719 69.9305V75.0395H316.928V69.8395C317.5 70.3595 318.072 70.9705 318.644 71.6855L319.32 70.6195C318.995 70.2945 318.657 69.9825 318.293 69.6965C318.67 69.4235 319.021 69.0725 319.359 68.6305L318.644 67.9285C318.28 68.4355 317.903 68.8255 317.513 69.0985C317.318 68.9555 317.123 68.8255 316.928 68.6955V68.5915C317.617 67.7205 318.124 66.8365 318.449 65.9525V64.9515H317.11C316.928 64.3665 316.681 63.7165 316.356 63.0015L315.16 63.3135C315.42 63.8465 315.667 64.3925 315.875 64.9515H313.938V66.0695H317.227C316.603 67.4085 315.381 68.7865 313.587 70.2165L313.964 71.4645C314.601 70.9575 315.186 70.4505 315.719 69.9305ZM320.867 63.0535V75.0135H322.076V68.5785C322.843 69.1505 323.792 69.9305 324.923 70.9315L325.651 69.8525C324.455 68.9035 323.259 68.0585 322.076 67.3045V63.0535H320.867ZM329.577 63.1705V66.5375H328.55V63.4305H327.354V68.2015C327.341 71.0225 327.055 73.0765 326.483 74.3505L327.393 75.1435C327.952 74.0515 328.316 72.4915 328.472 70.4375H329.72V74.8445H330.916V69.2805H328.524C328.537 68.9425 328.55 68.5785 328.55 68.2015V67.6945H331.423V66.5375H330.773V63.1705H329.577ZM331.878 64.1195V69.8265H333.659C333.347 70.2165 332.879 70.5415 332.268 70.8275L332.671 71.4515H331.358V72.6345H335.232V74.9875H336.428V72.6345H338.573V71.4515H336.428V70.2295H335.232V71.4515H333.282C333.958 71.1005 334.465 70.6455 334.816 70.0735C334.855 69.9955 334.894 69.9175 334.946 69.8265H337.988V64.1195H335.154C335.297 63.7945 335.414 63.4565 335.505 63.1055L334.283 62.9495C334.205 63.3525 334.075 63.7425 333.906 64.1195H331.878ZM336.87 68.7605H335.297C335.375 68.3705 335.44 67.9415 335.479 67.4735H336.87V68.7605ZM334.166 68.7605H332.983V67.4735H334.361C334.335 67.9415 334.27 68.3705 334.166 68.7605ZM332.983 66.4465V65.1985H334.387V66.4465H332.983ZM335.505 65.1985H336.87V66.4465H335.505V65.1985Z" fill="black"/>
<rect x="19.6875" y="81.6875" width="390.909" height="1" fill="#ECECEC"/>
<path d="M117.527 91.4055C117.215 91.7435 116.825 92.0425 116.357 92.3285C115.889 92.5885 115.46 92.7705 115.044 92.8745V94.2785C115.902 94.0315 116.617 93.6415 117.176 93.1085V100.688H118.593V91.4055H117.527Z" fill="black"/>
<rect x="214.642" y="82.6875" width="1" height="26" fill="#ECECEC"/>
<path d="M292.267 90.0535L291.422 90.8595C292.501 91.7305 293.346 92.5365 293.944 93.2905L294.802 92.4325C294.126 91.6395 293.281 90.8465 292.267 90.0535ZM296.18 90.4565C295.296 93.6285 293.97 96.1635 292.228 98.0745V92.7445H290.993V99.2575C290.161 99.9465 289.251 100.518 288.237 100.987L288.952 102.027C289.706 101.689 290.421 101.273 291.11 100.779C291.292 101.286 291.734 101.545 292.449 101.545H295.153C295.764 101.545 296.219 101.377 296.518 101.065C296.83 100.714 297.051 99.6475 297.168 97.8665L295.998 97.4635C295.933 98.8805 295.803 99.7255 295.621 99.9855C295.478 100.232 295.244 100.362 294.932 100.362H292.839C292.449 100.362 292.254 100.193 292.228 99.8685C294.464 97.8405 296.167 94.8635 297.324 90.9635L296.18 90.4565ZM289.056 93.9015C288.757 95.6955 288.263 97.3595 287.587 98.9195L288.653 99.5825C289.342 98.0615 289.875 96.2545 290.239 94.1485L289.056 93.9015ZM297.753 94.1095L296.583 94.4865C297.311 95.9555 297.987 97.6325 298.585 99.5305L299.69 99.0365C299.144 97.2945 298.494 95.6435 297.753 94.1095ZM305.618 90.4825V91.6785H308.426C308.387 92.0555 308.335 92.4195 308.27 92.7835H305.982V99.0755H307.191V93.9275H310.883V99.0755H312.092V92.7835H309.544C309.596 92.4325 309.635 92.0685 309.687 91.6785H312.443V90.4825H305.618ZM308.426 94.5645V96.8395C308.374 97.8795 308.088 98.7375 307.568 99.3875C307.035 99.9985 306.034 100.505 304.565 100.896L305.267 102.001C306.775 101.572 307.854 100.974 308.517 100.193C309.206 99.3615 309.583 98.2435 309.635 96.8395V94.5645H308.426ZM304.422 90.0405C303.538 91.0025 302.381 91.7825 300.977 92.3805L301.51 93.5115C302.953 92.8095 304.175 91.9515 305.189 90.9115L304.422 90.0405ZM304.565 93.5505C303.629 94.6035 302.446 95.4485 301.016 96.0985L301.549 97.2295C303.031 96.4885 304.292 95.5525 305.319 94.4215L304.565 93.5505ZM304.799 97.4505C303.759 98.7765 302.446 99.8555 300.86 100.674L301.432 101.871C303.07 100.935 304.448 99.7515 305.566 98.3345L304.799 97.4505ZM310.246 99.0105L309.401 99.8295C310.376 100.609 311.143 101.338 311.689 102.014L312.612 101.091C311.975 100.401 311.182 99.7125 310.246 99.0105ZM315.719 96.9305V102.04H316.928V96.8395C317.5 97.3595 318.072 97.9705 318.644 98.6855L319.32 97.6195C318.995 97.2945 318.657 96.9825 318.293 96.6965C318.67 96.4235 319.021 96.0725 319.359 95.6305L318.644 94.9285C318.28 95.4355 317.903 95.8255 317.513 96.0985C317.318 95.9555 317.123 95.8255 316.928 95.6955V95.5915C317.617 94.7205 318.124 93.8365 318.449 92.9525V91.9515H317.11C316.928 91.3665 316.681 90.7165 316.356 90.0015L315.16 90.3135C315.42 90.8465 315.667 91.3925 315.875 91.9515H313.938V93.0695H317.227C316.603 94.4085 315.381 95.7865 313.587 97.2165L313.964 98.4645C314.601 97.9575 315.186 97.4505 315.719 96.9305ZM320.867 90.0535V102.014H322.076V95.5785C322.843 96.1505 323.792 96.9305 324.923 97.9315L325.651 96.8525C324.455 95.9035 323.259 95.0585 322.076 94.3045V90.0535H320.867ZM329.577 90.1705V93.5375H328.55V90.4305H327.354V95.2015C327.341 98.0225 327.055 100.076 326.483 101.351L327.393 102.144C327.952 101.052 328.316 99.4915 328.472 97.4375H329.72V101.845H330.916V96.2805H328.524C328.537 95.9425 328.55 95.5785 328.55 95.2015V94.6945H331.423V93.5375H330.773V90.1705H329.577ZM331.878 91.1195V96.8265H333.659C333.347 97.2165 332.879 97.5415 332.268 97.8275L332.671 98.4515H331.358V99.6345H335.232V101.988H336.428V99.6345H338.573V98.4515H336.428V97.2295H335.232V98.4515H333.282C333.958 98.1005 334.465 97.6455 334.816 97.0735C334.855 96.9955 334.894 96.9175 334.946 96.8265H337.988V91.1195H335.154C335.297 90.7945 335.414 90.4565 335.505 90.1055L334.283 89.9495C334.205 90.3525 334.075 90.7425 333.906 91.1195H331.878ZM336.87 95.7605H335.297C335.375 95.3705 335.44 94.9415 335.479 94.4735H336.87V95.7605ZM334.166 95.7605H332.983V94.4735H334.361C334.335 94.9415 334.27 95.3705 334.166 95.7605ZM332.983 93.4465V92.1985H334.387V93.4465H332.983ZM335.505 92.1985H336.87V93.4465H335.505V92.1985Z" fill="black"/>
<rect x="19.6875" y="108.688" width="390.909" height="1" fill="#ECECEC"/>
<path d="M117.31 118.223C116.322 118.223 115.516 118.548 114.918 119.224C114.333 119.848 114.034 120.68 114.021 121.72H115.438C115.464 120.966 115.62 120.407 115.932 120.017C116.231 119.614 116.673 119.419 117.258 119.419C117.804 119.419 118.233 119.549 118.519 119.809C118.805 120.069 118.948 120.459 118.948 120.979C118.948 121.525 118.727 122.032 118.311 122.5C118.051 122.773 117.609 123.124 116.985 123.566C115.932 124.294 115.23 124.853 114.892 125.256C114.268 125.958 113.969 126.764 113.969 127.688H120.365V126.439H115.724C115.919 125.932 116.517 125.347 117.518 124.684C118.441 124.06 119.078 123.566 119.442 123.189C120.04 122.526 120.352 121.798 120.352 120.992C120.352 120.173 120.066 119.51 119.507 118.99C118.935 118.47 118.194 118.223 117.31 118.223Z" fill="black"/>
<rect x="214.642" y="109.688" width="1" height="26" fill="#ECECEC"/>
<path d="M292.267 117.053L291.422 117.859C292.501 118.73 293.346 119.536 293.944 120.29L294.802 119.432C294.126 118.639 293.281 117.846 292.267 117.053ZM296.18 117.456C295.296 120.628 293.97 123.163 292.228 125.074V119.744H290.993V126.257C290.161 126.946 289.251 127.518 288.237 127.987L288.952 129.027C289.706 128.689 290.421 128.273 291.11 127.779C291.292 128.286 291.734 128.545 292.449 128.545H295.153C295.764 128.545 296.219 128.377 296.518 128.065C296.83 127.714 297.051 126.647 297.168 124.866L295.998 124.463C295.933 125.88 295.803 126.725 295.621 126.985C295.478 127.232 295.244 127.362 294.932 127.362H292.839C292.449 127.362 292.254 127.193 292.228 126.868C294.464 124.84 296.167 121.863 297.324 117.963L296.18 117.456ZM289.056 120.901C288.757 122.695 288.263 124.359 287.587 125.919L288.653 126.582C289.342 125.061 289.875 123.254 290.239 121.148L289.056 120.901ZM297.753 121.109L296.583 121.486C297.311 122.955 297.987 124.632 298.585 126.53L299.69 126.036C299.144 124.294 298.494 122.643 297.753 121.109ZM305.618 117.482V118.678H308.426C308.387 119.055 308.335 119.419 308.27 119.783H305.982V126.075H307.191V120.927H310.883V126.075H312.092V119.783H309.544C309.596 119.432 309.635 119.068 309.687 118.678H312.443V117.482H305.618ZM308.426 121.564V123.839C308.374 124.879 308.088 125.737 307.568 126.387C307.035 126.998 306.034 127.505 304.565 127.896L305.267 129.001C306.775 128.572 307.854 127.974 308.517 127.193C309.206 126.361 309.583 125.243 309.635 123.839V121.564H308.426ZM304.422 117.04C303.538 118.002 302.381 118.782 300.977 119.38L301.51 120.511C302.953 119.809 304.175 118.951 305.189 117.911L304.422 117.04ZM304.565 120.55C303.629 121.603 302.446 122.448 301.016 123.098L301.549 124.229C303.031 123.488 304.292 122.552 305.319 121.421L304.565 120.55ZM304.799 124.45C303.759 125.777 302.446 126.855 300.86 127.674L301.432 128.871C303.07 127.935 304.448 126.751 305.566 125.334L304.799 124.45ZM310.246 126.01L309.401 126.83C310.376 127.609 311.143 128.338 311.689 129.014L312.612 128.091C311.975 127.401 311.182 126.712 310.246 126.01ZM315.719 123.93V129.04H316.928V123.839C317.5 124.359 318.072 124.97 318.644 125.685L319.32 124.619C318.995 124.294 318.657 123.982 318.293 123.696C318.67 123.423 319.021 123.072 319.359 122.63L318.644 121.928C318.28 122.435 317.903 122.825 317.513 123.098C317.318 122.955 317.123 122.825 316.928 122.695V122.591C317.617 121.72 318.124 120.836 318.449 119.952V118.951H317.11C316.928 118.366 316.681 117.716 316.356 117.001L315.16 117.313C315.42 117.846 315.667 118.392 315.875 118.951H313.938V120.069H317.227C316.603 121.408 315.381 122.786 313.587 124.216L313.964 125.464C314.601 124.957 315.186 124.45 315.719 123.93ZM320.867 117.053V129.014H322.076V122.578C322.843 123.15 323.792 123.93 324.923 124.931L325.651 123.852C324.455 122.903 323.259 122.058 322.076 121.304V117.053H320.867ZM329.577 117.17V120.537H328.55V117.43H327.354V122.201C327.341 125.022 327.055 127.076 326.483 128.351L327.393 129.144C327.952 128.052 328.316 126.491 328.472 124.438H329.72V128.845H330.916V123.28H328.524C328.537 122.942 328.55 122.578 328.55 122.201V121.694H331.423V120.537H330.773V117.17H329.577ZM331.878 118.119V123.826H333.659C333.347 124.216 332.879 124.541 332.268 124.827L332.671 125.451H331.358V126.634H335.232V128.988H336.428V126.634H338.573V125.451H336.428V124.229H335.232V125.451H333.282C333.958 125.1 334.465 124.645 334.816 124.073C334.855 123.995 334.894 123.917 334.946 123.826H337.988V118.119H335.154C335.297 117.794 335.414 117.456 335.505 117.105L334.283 116.949C334.205 117.352 334.075 117.742 333.906 118.119H331.878ZM336.87 122.76H335.297C335.375 122.37 335.44 121.941 335.479 121.473H336.87V122.76ZM334.166 122.76H332.983V121.473H334.361C334.335 121.941 334.27 122.37 334.166 122.76ZM332.983 120.446V119.198H334.387V120.446H332.983ZM335.505 119.198H336.87V120.446H335.505V119.198Z" fill="black"/>
<rect x="19.6875" y="135.688" width="390.909" height="1" fill="#ECECEC"/>
<path d="M117.258 145.223C116.348 145.223 115.607 145.47 115.035 145.99C114.424 146.51 114.086 147.225 114.008 148.148H115.399C115.451 147.576 115.646 147.147 115.958 146.861C116.27 146.575 116.712 146.432 117.271 146.432C117.817 146.432 118.246 146.549 118.532 146.809C118.792 147.056 118.935 147.407 118.935 147.875C118.935 148.343 118.779 148.707 118.493 148.954C118.207 149.201 117.778 149.331 117.206 149.331H116.543V150.397H117.219C117.83 150.397 118.298 150.527 118.61 150.787C118.948 151.047 119.117 151.45 119.117 151.996C119.117 152.464 118.948 152.841 118.636 153.153C118.272 153.491 117.791 153.673 117.193 153.673C116.647 153.673 116.205 153.517 115.867 153.205C115.477 152.867 115.282 152.386 115.256 151.762H113.826C113.904 152.802 114.268 153.595 114.918 154.141C115.49 154.622 116.257 154.87 117.206 154.87C118.194 154.87 119.013 154.583 119.637 154.037C120.222 153.491 120.521 152.789 120.521 151.931C120.521 151.385 120.365 150.93 120.053 150.579C119.767 150.241 119.351 149.981 118.805 149.812C119.819 149.474 120.339 148.785 120.339 147.771C120.339 146.978 120.053 146.354 119.507 145.899C118.935 145.444 118.194 145.223 117.258 145.223Z" fill="black"/>
<rect x="214.642" y="136.688" width="1" height="26" fill="#ECECEC"/>
<path d="M292.267 144.053L291.422 144.859C292.501 145.73 293.346 146.536 293.944 147.29L294.802 146.432C294.126 145.639 293.281 144.846 292.267 144.053ZM296.18 144.456C295.296 147.628 293.97 150.163 292.228 152.074V146.744H290.993V153.257C290.161 153.946 289.251 154.518 288.237 154.987L288.952 156.027C289.706 155.689 290.421 155.273 291.11 154.779C291.292 155.286 291.734 155.545 292.449 155.545H295.153C295.764 155.545 296.219 155.377 296.518 155.065C296.83 154.714 297.051 153.647 297.168 151.866L295.998 151.463C295.933 152.88 295.803 153.725 295.621 153.985C295.478 154.232 295.244 154.362 294.932 154.362H292.839C292.449 154.362 292.254 154.193 292.228 153.868C294.464 151.84 296.167 148.863 297.324 144.963L296.18 144.456ZM289.056 147.901C288.757 149.695 288.263 151.359 287.587 152.919L288.653 153.582C289.342 152.061 289.875 150.254 290.239 148.148L289.056 147.901ZM297.753 148.109L296.583 148.486C297.311 149.955 297.987 151.632 298.585 153.53L299.69 153.036C299.144 151.294 298.494 149.643 297.753 148.109ZM305.618 144.482V145.678H308.426C308.387 146.055 308.335 146.419 308.27 146.783H305.982V153.075H307.191V147.927H310.883V153.075H312.092V146.783H309.544C309.596 146.432 309.635 146.068 309.687 145.678H312.443V144.482H305.618ZM308.426 148.564V150.839C308.374 151.879 308.088 152.737 307.568 153.387C307.035 153.998 306.034 154.505 304.565 154.896L305.267 156.001C306.775 155.572 307.854 154.974 308.517 154.193C309.206 153.361 309.583 152.243 309.635 150.839V148.564H308.426ZM304.422 144.04C303.538 145.002 302.381 145.782 300.977 146.38L301.51 147.511C302.953 146.809 304.175 145.951 305.189 144.911L304.422 144.04ZM304.565 147.55C303.629 148.603 302.446 149.448 301.016 150.098L301.549 151.229C303.031 150.488 304.292 149.552 305.319 148.421L304.565 147.55ZM304.799 151.45C303.759 152.777 302.446 153.855 300.86 154.674L301.432 155.871C303.07 154.935 304.448 153.751 305.566 152.334L304.799 151.45ZM310.246 153.01L309.401 153.83C310.376 154.609 311.143 155.338 311.689 156.014L312.612 155.091C311.975 154.401 311.182 153.712 310.246 153.01ZM315.719 150.93V156.04H316.928V150.839C317.5 151.359 318.072 151.97 318.644 152.685L319.32 151.619C318.995 151.294 318.657 150.982 318.293 150.696C318.67 150.423 319.021 150.072 319.359 149.63L318.644 148.928C318.28 149.435 317.903 149.825 317.513 150.098C317.318 149.955 317.123 149.825 316.928 149.695V149.591C317.617 148.72 318.124 147.836 318.449 146.952V145.951H317.11C316.928 145.366 316.681 144.716 316.356 144.001L315.16 144.313C315.42 144.846 315.667 145.392 315.875 145.951H313.938V147.069H317.227C316.603 148.408 315.381 149.786 313.587 151.216L313.964 152.464C314.601 151.957 315.186 151.45 315.719 150.93ZM320.867 144.053V156.014H322.076V149.578C322.843 150.15 323.792 150.93 324.923 151.931L325.651 150.852C324.455 149.903 323.259 149.058 322.076 148.304V144.053H320.867ZM329.577 144.17V147.537H328.55V144.43H327.354V149.201C327.341 152.022 327.055 154.076 326.483 155.351L327.393 156.144C327.952 155.052 328.316 153.491 328.472 151.438H329.72V155.845H330.916V150.28H328.524C328.537 149.942 328.55 149.578 328.55 149.201V148.694H331.423V147.537H330.773V144.17H329.577ZM331.878 145.119V150.826H333.659C333.347 151.216 332.879 151.541 332.268 151.827L332.671 152.451H331.358V153.634H335.232V155.988H336.428V153.634H338.573V152.451H336.428V151.229H335.232V152.451H333.282C333.958 152.1 334.465 151.645 334.816 151.073C334.855 150.995 334.894 150.917 334.946 150.826H337.988V145.119H335.154C335.297 144.794 335.414 144.456 335.505 144.105L334.283 143.949C334.205 144.352 334.075 144.742 333.906 145.119H331.878ZM336.87 149.76H335.297C335.375 149.37 335.44 148.941 335.479 148.473H336.87V149.76ZM334.166 149.76H332.983V148.473H334.361C334.335 148.941 334.27 149.37 334.166 149.76ZM332.983 147.446V146.198H334.387V147.446H332.983ZM335.505 146.198H336.87V147.446H335.505V146.198Z" fill="black"/>
<rect x="19.6875" y="162.688" width="390.909" height="1" fill="#ECECEC"/>
<path d="M118.103 172.405L113.527 178.333V179.672H118.051V181.688H119.403V179.672H120.807V178.541H119.403V172.405H118.103ZM118.012 174.199H118.051V178.541H114.684L118.012 174.199Z" fill="black"/>
<rect x="214.642" y="163.688" width="1" height="26" fill="#ECECEC"/>
<path d="M292.267 171.053L291.422 171.859C292.501 172.73 293.346 173.536 293.944 174.29L294.802 173.432C294.126 172.639 293.281 171.846 292.267 171.053ZM296.18 171.456C295.296 174.628 293.97 177.163 292.228 179.074V173.744H290.993V180.257C290.161 180.946 289.251 181.518 288.237 181.987L288.952 183.027C289.706 182.689 290.421 182.273 291.11 181.779C291.292 182.286 291.734 182.545 292.449 182.545H295.153C295.764 182.545 296.219 182.377 296.518 182.065C296.83 181.714 297.051 180.647 297.168 178.866L295.998 178.463C295.933 179.88 295.803 180.725 295.621 180.985C295.478 181.232 295.244 181.362 294.932 181.362H292.839C292.449 181.362 292.254 181.193 292.228 180.868C294.464 178.84 296.167 175.863 297.324 171.963L296.18 171.456ZM289.056 174.901C288.757 176.695 288.263 178.359 287.587 179.919L288.653 180.582C289.342 179.061 289.875 177.254 290.239 175.148L289.056 174.901ZM297.753 175.109L296.583 175.486C297.311 176.955 297.987 178.632 298.585 180.53L299.69 180.036C299.144 178.294 298.494 176.643 297.753 175.109ZM305.618 171.482V172.678H308.426C308.387 173.055 308.335 173.419 308.27 173.783H305.982V180.075H307.191V174.927H310.883V180.075H312.092V173.783H309.544C309.596 173.432 309.635 173.068 309.687 172.678H312.443V171.482H305.618ZM308.426 175.564V177.839C308.374 178.879 308.088 179.737 307.568 180.387C307.035 180.998 306.034 181.505 304.565 181.896L305.267 183.001C306.775 182.572 307.854 181.974 308.517 181.193C309.206 180.361 309.583 179.243 309.635 177.839V175.564H308.426ZM304.422 171.04C303.538 172.002 302.381 172.782 300.977 173.38L301.51 174.511C302.953 173.809 304.175 172.951 305.189 171.911L304.422 171.04ZM304.565 174.55C303.629 175.603 302.446 176.448 301.016 177.098L301.549 178.229C303.031 177.488 304.292 176.552 305.319 175.421L304.565 174.55ZM304.799 178.45C303.759 179.777 302.446 180.855 300.86 181.674L301.432 182.871C303.07 181.935 304.448 180.751 305.566 179.334L304.799 178.45ZM310.246 180.01L309.401 180.83C310.376 181.609 311.143 182.338 311.689 183.014L312.612 182.091C311.975 181.401 311.182 180.712 310.246 180.01ZM315.719 177.93V183.04H316.928V177.839C317.5 178.359 318.072 178.97 318.644 179.685L319.32 178.619C318.995 178.294 318.657 177.982 318.293 177.696C318.67 177.423 319.021 177.072 319.359 176.63L318.644 175.928C318.28 176.435 317.903 176.825 317.513 177.098C317.318 176.955 317.123 176.825 316.928 176.695V176.591C317.617 175.72 318.124 174.836 318.449 173.952V172.951H317.11C316.928 172.366 316.681 171.716 316.356 171.001L315.16 171.313C315.42 171.846 315.667 172.392 315.875 172.951H313.938V174.069H317.227C316.603 175.408 315.381 176.786 313.587 178.216L313.964 179.464C314.601 178.957 315.186 178.45 315.719 177.93ZM320.867 171.053V183.014H322.076V176.578C322.843 177.15 323.792 177.93 324.923 178.931L325.651 177.852C324.455 176.903 323.259 176.058 322.076 175.304V171.053H320.867ZM329.577 171.17V174.537H328.55V171.43H327.354V176.201C327.341 179.022 327.055 181.076 326.483 182.351L327.393 183.144C327.952 182.052 328.316 180.491 328.472 178.438H329.72V182.845H330.916V177.28H328.524C328.537 176.942 328.55 176.578 328.55 176.201V175.694H331.423V174.537H330.773V171.17H329.577ZM331.878 172.119V177.826H333.659C333.347 178.216 332.879 178.541 332.268 178.827L332.671 179.451H331.358V180.634H335.232V182.988H336.428V180.634H338.573V179.451H336.428V178.229H335.232V179.451H333.282C333.958 179.1 334.465 178.645 334.816 178.073C334.855 177.995 334.894 177.917 334.946 177.826H337.988V172.119H335.154C335.297 171.794 335.414 171.456 335.505 171.105L334.283 170.949C334.205 171.352 334.075 171.742 333.906 172.119H331.878ZM336.87 176.76H335.297C335.375 176.37 335.44 175.941 335.479 175.473H336.87V176.76ZM334.166 176.76H332.983V175.473H334.361C334.335 175.941 334.27 176.37 334.166 176.76ZM332.983 174.446V173.198H334.387V174.446H332.983ZM335.505 173.198H336.87V174.446H335.505V173.198Z" fill="black"/>
<rect x="19.6875" y="189.688" width="390.909" height="1" fill="#ECECEC"/>
<path d="M114.502 199.405L113.995 204.605H115.321C115.503 204.267 115.75 204.02 116.088 203.864C116.4 203.708 116.751 203.643 117.167 203.643C117.791 203.643 118.259 203.825 118.597 204.189C118.935 204.553 119.104 205.06 119.104 205.71C119.104 206.308 118.909 206.777 118.519 207.14C118.129 207.491 117.648 207.673 117.076 207.673C116.556 207.673 116.14 207.556 115.828 207.322C115.477 207.062 115.269 206.659 115.217 206.139H113.826C113.891 206.997 114.255 207.686 114.918 208.18C115.516 208.635 116.231 208.87 117.063 208.87C117.986 208.87 118.779 208.596 119.442 208.05C120.144 207.439 120.508 206.659 120.508 205.697C120.508 204.696 120.222 203.916 119.676 203.344C119.13 202.772 118.415 202.486 117.544 202.486C117.128 202.486 116.738 202.551 116.4 202.694C116.023 202.824 115.698 203.032 115.412 203.331H115.373L115.646 200.653H120.092V199.405H114.502Z" fill="black"/>
<rect x="214.642" y="190.688" width="1" height="26" fill="#ECECEC"/>
<path d="M292.267 198.053L291.422 198.859C292.501 199.73 293.346 200.536 293.944 201.29L294.802 200.432C294.126 199.639 293.281 198.846 292.267 198.053ZM296.18 198.456C295.296 201.628 293.97 204.163 292.228 206.074V200.744H290.993V207.257C290.161 207.946 289.251 208.518 288.237 208.987L288.952 210.027C289.706 209.689 290.421 209.273 291.11 208.779C291.292 209.286 291.734 209.545 292.449 209.545H295.153C295.764 209.545 296.219 209.377 296.518 209.065C296.83 208.714 297.051 207.647 297.168 205.866L295.998 205.463C295.933 206.88 295.803 207.725 295.621 207.985C295.478 208.232 295.244 208.362 294.932 208.362H292.839C292.449 208.362 292.254 208.193 292.228 207.868C294.464 205.84 296.167 202.863 297.324 198.963L296.18 198.456ZM289.056 201.901C288.757 203.695 288.263 205.359 287.587 206.919L288.653 207.582C289.342 206.061 289.875 204.254 290.239 202.148L289.056 201.901ZM297.753 202.109L296.583 202.486C297.311 203.955 297.987 205.632 298.585 207.53L299.69 207.036C299.144 205.294 298.494 203.643 297.753 202.109ZM305.618 198.482V199.678H308.426C308.387 200.055 308.335 200.419 308.27 200.783H305.982V207.075H307.191V201.927H310.883V207.075H312.092V200.783H309.544C309.596 200.432 309.635 200.068 309.687 199.678H312.443V198.482H305.618ZM308.426 202.564V204.839C308.374 205.879 308.088 206.737 307.568 207.387C307.035 207.998 306.034 208.505 304.565 208.896L305.267 210.001C306.775 209.572 307.854 208.974 308.517 208.193C309.206 207.361 309.583 206.243 309.635 204.839V202.564H308.426ZM304.422 198.04C303.538 199.002 302.381 199.782 300.977 200.38L301.51 201.511C302.953 200.809 304.175 199.951 305.189 198.911L304.422 198.04ZM304.565 201.55C303.629 202.603 302.446 203.448 301.016 204.098L301.549 205.229C303.031 204.488 304.292 203.552 305.319 202.421L304.565 201.55ZM304.799 205.45C303.759 206.777 302.446 207.855 300.86 208.674L301.432 209.871C303.07 208.935 304.448 207.751 305.566 206.334L304.799 205.45ZM310.246 207.01L309.401 207.83C310.376 208.609 311.143 209.338 311.689 210.014L312.612 209.091C311.975 208.401 311.182 207.712 310.246 207.01ZM315.719 204.93V210.04H316.928V204.839C317.5 205.359 318.072 205.97 318.644 206.685L319.32 205.619C318.995 205.294 318.657 204.982 318.293 204.696C318.67 204.423 319.021 204.072 319.359 203.63L318.644 202.928C318.28 203.435 317.903 203.825 317.513 204.098C317.318 203.955 317.123 203.825 316.928 203.695V203.591C317.617 202.72 318.124 201.836 318.449 200.952V199.951H317.11C316.928 199.366 316.681 198.716 316.356 198.001L315.16 198.313C315.42 198.846 315.667 199.392 315.875 199.951H313.938V201.069H317.227C316.603 202.408 315.381 203.786 313.587 205.216L313.964 206.464C314.601 205.957 315.186 205.45 315.719 204.93ZM320.867 198.053V210.014H322.076V203.578C322.843 204.15 323.792 204.93 324.923 205.931L325.651 204.852C324.455 203.903 323.259 203.058 322.076 202.304V198.053H320.867ZM329.577 198.17V201.537H328.55V198.43H327.354V203.201C327.341 206.022 327.055 208.076 326.483 209.351L327.393 210.144C327.952 209.052 328.316 207.491 328.472 205.438H329.72V209.845H330.916V204.28H328.524C328.537 203.942 328.55 203.578 328.55 203.201V202.694H331.423V201.537H330.773V198.17H329.577ZM331.878 199.119V204.826H333.659C333.347 205.216 332.879 205.541 332.268 205.827L332.671 206.451H331.358V207.634H335.232V209.988H336.428V207.634H338.573V206.451H336.428V205.229H335.232V206.451H333.282C333.958 206.1 334.465 205.645 334.816 205.073C334.855 204.995 334.894 204.917 334.946 204.826H337.988V199.119H335.154C335.297 198.794 335.414 198.456 335.505 198.105L334.283 197.949C334.205 198.352 334.075 198.742 333.906 199.119H331.878ZM336.87 203.76H335.297C335.375 203.37 335.44 202.941 335.479 202.473H336.87V203.76ZM334.166 203.76H332.983V202.473H334.361C334.335 202.941 334.27 203.37 334.166 203.76ZM332.983 201.446V200.198H334.387V201.446H332.983ZM335.505 200.198H336.87V201.446H335.505V200.198Z" fill="black"/>
<rect x="19.6875" y="216.688" width="390.909" height="1" fill="#ECECEC"/>
<path d="M117.297 226.223C116.231 226.223 115.373 226.691 114.749 227.64C114.125 228.576 113.826 229.798 113.826 231.306C113.826 232.723 114.112 233.828 114.684 234.621C115.282 235.453 116.14 235.87 117.284 235.87C118.194 235.87 118.974 235.557 119.598 234.959C120.209 234.361 120.521 233.594 120.521 232.671C120.521 231.761 120.248 231.007 119.715 230.422C119.169 229.85 118.441 229.564 117.531 229.564C117.037 229.564 116.608 229.655 116.244 229.85C115.841 230.045 115.516 230.344 115.256 230.76H115.204C115.191 230.682 115.191 230.63 115.191 230.591C115.191 229.681 115.373 228.94 115.75 228.343C116.127 227.705 116.634 227.393 117.284 227.393C118.22 227.393 118.779 227.835 118.974 228.745H120.352C120.118 227.055 119.091 226.223 117.297 226.223ZM117.245 230.708C117.817 230.708 118.285 230.89 118.623 231.254C118.961 231.592 119.13 232.073 119.13 232.671C119.13 233.256 118.948 233.737 118.597 234.127C118.259 234.504 117.804 234.699 117.232 234.699C116.673 234.699 116.218 234.517 115.88 234.153C115.529 233.789 115.36 233.308 115.36 232.71C115.36 232.099 115.529 231.618 115.867 231.254C116.205 230.89 116.66 230.708 117.245 230.708Z" fill="black"/>
<rect x="214.642" y="217.688" width="1" height="26" fill="#ECECEC"/>
<path d="M294.529 225.625V226.834H300.119C298.975 229.123 296.973 231.072 294.126 232.684L294.945 233.763C296.778 232.671 298.286 231.423 299.482 230.032V237.053H300.756V228.264C301.029 227.809 301.276 227.328 301.51 226.834H305.709V225.625H294.529ZM302.394 229.161L301.51 230.019C303.057 231.293 304.253 232.476 305.111 233.581L306.086 232.606C305.085 231.462 303.85 230.305 302.394 229.161ZM309.219 231.93V237.04H310.428V231.839C311 232.359 311.572 232.97 312.144 233.685L312.82 232.619C312.495 232.294 312.157 231.982 311.793 231.696C312.17 231.423 312.521 231.072 312.859 230.63L312.144 229.928C311.78 230.435 311.403 230.825 311.013 231.098C310.818 230.955 310.623 230.825 310.428 230.695V230.591C311.117 229.72 311.624 228.836 311.949 227.952V226.951H310.61C310.428 226.366 310.181 225.716 309.856 225.001L308.66 225.313C308.92 225.846 309.167 226.392 309.375 226.951H307.438V228.069H310.727C310.103 229.408 308.881 230.786 307.087 232.216L307.464 233.464C308.101 232.957 308.686 232.45 309.219 231.93ZM314.367 225.053V237.014H315.576V230.578C316.343 231.15 317.292 231.93 318.423 232.931L319.151 231.852C317.955 230.903 316.759 230.058 315.576 229.304V225.053H314.367ZM323.077 225.17V228.537H322.05V225.43H320.854V230.201C320.841 233.022 320.555 235.076 319.983 236.351L320.893 237.144C321.452 236.052 321.816 234.491 321.972 232.438H323.22V236.845H324.416V231.28H322.024C322.037 230.942 322.05 230.578 322.05 230.201V229.694H324.923V228.537H324.273V225.17H323.077ZM325.378 226.119V231.826H327.159C326.847 232.216 326.379 232.541 325.768 232.827L326.171 233.451H324.858V234.634H328.732V236.988H329.928V234.634H332.073V233.451H329.928V232.229H328.732V233.451H326.782C327.458 233.1 327.965 232.645 328.316 232.073C328.355 231.995 328.394 231.917 328.446 231.826H331.488V226.119H328.654C328.797 225.794 328.914 225.456 329.005 225.105L327.783 224.949C327.705 225.352 327.575 225.742 327.406 226.119H325.378ZM330.37 230.76H328.797C328.875 230.37 328.94 229.941 328.979 229.473H330.37V230.76ZM327.666 230.76H326.483V229.473H327.861C327.835 229.941 327.77 230.37 327.666 230.76ZM326.483 228.446V227.198H327.887V228.446H326.483ZM329.005 227.198H330.37V228.446H329.005V227.198Z" fill="black"/>
<rect x="19.6875" y="243.688" width="390.909" height="1" fill="#ECECEC"/>
<path d="M113.988 253.405V254.692H118.798L115.431 262.688H116.939L120.228 254.549V253.405H113.988Z" fill="black"/>
<rect x="214.642" y="244.688" width="1" height="26" fill="#ECECEC"/>
<path d="M294.529 252.625V253.834H300.119C298.975 256.123 296.973 258.072 294.126 259.684L294.945 260.763C296.778 259.671 298.286 258.423 299.482 257.032V264.053H300.756V255.264C301.029 254.809 301.276 254.328 301.51 253.834H305.709V252.625H294.529ZM302.394 256.161L301.51 257.019C303.057 258.293 304.253 259.476 305.111 260.581L306.086 259.606C305.085 258.462 303.85 257.305 302.394 256.161ZM309.219 258.93V264.04H310.428V258.839C311 259.359 311.572 259.97 312.144 260.685L312.82 259.619C312.495 259.294 312.157 258.982 311.793 258.696C312.17 258.423 312.521 258.072 312.859 257.63L312.144 256.928C311.78 257.435 311.403 257.825 311.013 258.098C310.818 257.955 310.623 257.825 310.428 257.695V257.591C311.117 256.72 311.624 255.836 311.949 254.952V253.951H310.61C310.428 253.366 310.181 252.716 309.856 252.001L308.66 252.313C308.92 252.846 309.167 253.392 309.375 253.951H307.438V255.069H310.727C310.103 256.408 308.881 257.786 307.087 259.216L307.464 260.464C308.101 259.957 308.686 259.45 309.219 258.93ZM314.367 252.053V264.014H315.576V257.578C316.343 258.15 317.292 258.93 318.423 259.931L319.151 258.852C317.955 257.903 316.759 257.058 315.576 256.304V252.053H314.367ZM323.077 252.17V255.537H322.05V252.43H320.854V257.201C320.841 260.022 320.555 262.076 319.983 263.351L320.893 264.144C321.452 263.052 321.816 261.491 321.972 259.438H323.22V263.845H324.416V258.28H322.024C322.037 257.942 322.05 257.578 322.05 257.201V256.694H324.923V255.537H324.273V252.17H323.077ZM325.378 253.119V258.826H327.159C326.847 259.216 326.379 259.541 325.768 259.827L326.171 260.451H324.858V261.634H328.732V263.988H329.928V261.634H332.073V260.451H329.928V259.229H328.732V260.451H326.782C327.458 260.1 327.965 259.645 328.316 259.073C328.355 258.995 328.394 258.917 328.446 258.826H331.488V253.119H328.654C328.797 252.794 328.914 252.456 329.005 252.105L327.783 251.949C327.705 252.352 327.575 252.742 327.406 253.119H325.378ZM330.37 257.76H328.797C328.875 257.37 328.94 256.941 328.979 256.473H330.37V257.76ZM327.666 257.76H326.483V256.473H327.861C327.835 256.941 327.77 257.37 327.666 257.76ZM326.483 255.446V254.198H327.887V255.446H326.483ZM329.005 254.198H330.37V255.446H329.005V254.198Z" fill="black"/>
<rect x="19.6875" y="270.688" width="390.909" height="1" fill="#ECECEC"/>
<path d="M117.167 280.223C116.179 280.223 115.386 280.483 114.814 281.003C114.294 281.471 114.034 282.056 114.034 282.745C114.034 283.226 114.138 283.629 114.346 283.954C114.58 284.305 114.931 284.565 115.399 284.747V284.786C114.944 284.89 114.567 285.15 114.255 285.566C113.891 286.008 113.709 286.515 113.709 287.1C113.709 287.919 114.008 288.582 114.606 289.102C115.204 289.609 116.062 289.87 117.167 289.87C118.259 289.87 119.117 289.609 119.728 289.102C120.326 288.582 120.625 287.919 120.625 287.1C120.625 286.515 120.443 286.008 120.079 285.566C119.767 285.15 119.377 284.89 118.935 284.786V284.747C119.403 284.565 119.754 284.305 119.988 283.954C120.196 283.629 120.3 283.226 120.3 282.745C120.3 282.056 120.04 281.471 119.52 281.003C118.935 280.483 118.155 280.223 117.167 280.223ZM117.167 281.354C117.739 281.354 118.194 281.497 118.532 281.809C118.818 282.069 118.974 282.407 118.974 282.797C118.974 283.239 118.844 283.59 118.61 283.85C118.298 284.162 117.817 284.318 117.167 284.318C116.504 284.318 116.023 284.162 115.724 283.85C115.477 283.59 115.36 283.239 115.36 282.797C115.36 282.407 115.503 282.069 115.802 281.809C116.14 281.497 116.595 281.354 117.167 281.354ZM117.167 285.371C117.843 285.371 118.35 285.54 118.714 285.878C119.052 286.177 119.221 286.58 119.221 287.1C119.221 287.581 119.052 287.972 118.714 288.27C118.337 288.569 117.817 288.725 117.167 288.725C116.504 288.725 115.997 288.569 115.646 288.27C115.282 287.972 115.113 287.581 115.113 287.1C115.113 286.58 115.282 286.177 115.633 285.866C115.971 285.527 116.491 285.371 117.167 285.371Z" fill="black"/>
<rect x="214.642" y="271.688" width="1" height="26" fill="#ECECEC"/>
<path d="M229.607 283.525V284.708H233.962C233.754 285.462 233.507 286.086 233.208 286.593C232.402 287.945 231.05 289.102 229.152 290.091L229.932 291.105C232.012 289.974 233.494 288.634 234.365 287.087C234.651 286.593 234.885 285.982 235.093 285.254C236.055 287.763 237.797 289.714 240.332 291.092L241.099 290.091C238.642 288.83 236.965 287.035 236.055 284.708H240.67V283.525H235.47C235.6 282.719 235.704 281.822 235.769 280.834H240.293V279.651H229.945V280.834H234.521C234.469 281.809 234.365 282.706 234.222 283.525H229.607ZM244.869 282.511H247.729V285.202H244.011V286.398H247.729V289.362H242.438V290.585H253.969V289.362H248.964V286.398H252.877V285.202H248.964V282.511H253.137V281.315H248.964V279.131H247.729V281.315H245.311C245.467 280.795 245.61 280.236 245.74 279.638L244.479 279.417C244.063 281.51 243.27 283.174 242.1 284.409L242.906 285.436C243.699 284.656 244.349 283.681 244.869 282.511ZM262.705 284.955H259.351V288.816H260.222V285.866H261.847V288.842H262.705V284.955ZM261.054 289.518C261.379 289.857 261.652 290.195 261.86 290.52L262.497 289.883C262.172 289.479 261.769 289.076 261.301 288.686C261.366 288.322 261.405 287.932 261.431 287.503V286.385H260.625V287.503C260.599 288.179 260.495 288.738 260.3 289.154C260.079 289.544 259.689 289.883 259.117 290.143L259.611 290.923C260.235 290.637 260.69 290.247 260.963 289.727C260.989 289.661 261.028 289.596 261.054 289.518ZM255.334 279.755V280.613H256.4V281.952H266.072V281.107H257.531V280.613H266.904V279.755H261.73C261.626 279.443 261.535 279.157 261.431 278.897L260.196 279.105C260.326 279.3 260.443 279.521 260.56 279.755H255.334ZM256.764 282.407V284.461H265.435V282.407H256.764ZM264.239 283.681H257.96V283.174H264.239V283.681ZM256.803 287.412H257.96V288.166H256.751C256.777 287.932 256.79 287.672 256.803 287.412ZM257.96 286.645H256.816V285.891H257.96V286.645ZM256.647 288.933H257.96V289.727C257.96 289.987 257.83 290.13 257.57 290.13C257.427 290.13 257.271 290.116 257.115 290.091L257.375 290.988H257.869C258.558 290.988 258.909 290.676 258.909 290.065V284.981H255.854V287.23C255.841 288.504 255.581 289.544 255.074 290.377L255.828 291.066C256.205 290.468 256.478 289.766 256.647 288.933ZM266.397 290.858C266.67 290.858 266.865 290.754 266.969 290.545C267.073 290.325 267.151 289.766 267.229 288.881L266.462 288.608C266.436 289.297 266.41 289.701 266.384 289.805C266.345 289.922 266.306 289.987 266.254 289.987H266.215C266.085 289.987 266.033 289.909 266.033 289.779V284.968H263.186V287.165C263.186 288.088 263.121 288.751 263.004 289.167C262.887 289.557 262.64 289.974 262.25 290.416L263.004 291.079C263.459 290.494 263.758 289.935 263.901 289.414C264.005 288.946 264.07 288.27 264.083 287.399C264.252 287.828 264.408 288.322 264.551 288.868L265.123 288.608V290.065C265.123 290.585 265.37 290.858 265.89 290.858H266.397ZM264.083 287.152V285.917H265.123V288.426C264.967 287.919 264.798 287.438 264.603 286.983L264.083 287.152ZM276.108 286.06C276.732 287.802 277.733 289.259 279.111 290.416L279.995 289.388C278.669 288.452 277.694 287.23 277.096 285.709C277.863 285.397 278.578 285.033 279.254 284.604L278.422 283.772C277.382 284.435 276.29 284.929 275.146 285.267C274.886 284.799 274.574 284.357 274.197 283.941C274.483 283.759 274.782 283.564 275.094 283.356H277.98V282.212H270.258V283.356H273.17C272.884 283.499 272.585 283.629 272.273 283.759C271.233 284.188 270.115 284.526 268.919 284.773L269.543 285.8C271.077 285.345 272.273 284.916 273.118 284.513C273.157 284.487 273.196 284.474 273.248 284.448C273.378 284.604 273.495 284.76 273.625 284.929C272.442 285.774 270.791 286.463 268.672 287.009L269.283 288.075C271.298 287.49 272.923 286.749 274.145 285.839C274.249 286.073 274.353 286.333 274.431 286.593C273.014 287.711 271.038 288.634 268.503 289.349L269.127 290.403C271.389 289.701 273.235 288.83 274.639 287.777C274.639 287.893 274.652 288.023 274.652 288.153C274.652 288.881 274.535 289.362 274.327 289.622C274.145 289.818 273.69 289.922 272.962 289.922H272.299L272.715 291.014H273.131C274.314 291.014 275.068 290.78 275.406 290.312C275.692 289.922 275.848 289.193 275.848 288.153C275.835 287.451 275.731 286.801 275.536 286.203C275.718 286.151 275.913 286.112 276.108 286.06ZM274.418 278.936L273.157 279.157C273.3 279.43 273.443 279.729 273.573 280.067H268.542V282.485H269.777V281.211H278.461V282.485H279.696V280.067H274.821C274.691 279.651 274.561 279.274 274.418 278.936ZM283.115 287.828C282.803 287.828 282.556 287.906 282.374 288.088C282.179 288.27 282.088 288.504 282.088 288.803C282.088 289.076 282.179 289.31 282.361 289.492C282.543 289.674 282.764 289.766 283.037 289.766C283.167 289.766 283.271 289.753 283.349 289.727C283.349 290.039 283.245 290.338 283.024 290.637C282.79 290.923 282.491 291.118 282.14 291.248V292.054C282.79 291.872 283.31 291.534 283.7 291.04C284.09 290.545 284.285 289.974 284.285 289.31C284.285 288.868 284.168 288.517 283.96 288.231C283.726 287.958 283.453 287.828 283.115 287.828ZM294.529 279.625V280.834H300.119C298.975 283.123 296.973 285.072 294.126 286.684L294.945 287.763C296.778 286.671 298.286 285.423 299.482 284.032V291.053H300.756V282.264C301.029 281.809 301.276 281.328 301.51 280.834H305.709V279.625H294.529ZM302.394 283.161L301.51 284.019C303.057 285.293 304.253 286.476 305.111 287.581L306.086 286.606C305.085 285.462 303.85 284.305 302.394 283.161ZM309.219 285.93V291.04H310.428V285.839C311 286.359 311.572 286.97 312.144 287.685L312.82 286.619C312.495 286.294 312.157 285.982 311.793 285.696C312.17 285.423 312.521 285.072 312.859 284.63L312.144 283.928C311.78 284.435 311.403 284.825 311.013 285.098C310.818 284.955 310.623 284.825 310.428 284.695V284.591C311.117 283.72 311.624 282.836 311.949 281.952V280.951H310.61C310.428 280.366 310.181 279.716 309.856 279.001L308.66 279.313C308.92 279.846 309.167 280.392 309.375 280.951H307.438V282.069H310.727C310.103 283.408 308.881 284.786 307.087 286.216L307.464 287.464C308.101 286.957 308.686 286.45 309.219 285.93ZM314.367 279.053V291.014H315.576V284.578C316.343 285.15 317.292 285.93 318.423 286.931L319.151 285.852C317.955 284.903 316.759 284.058 315.576 283.304V279.053H314.367ZM323.077 279.17V282.537H322.05V279.43H320.854V284.201C320.841 287.022 320.555 289.076 319.983 290.351L320.893 291.144C321.452 290.052 321.816 288.491 321.972 286.438H323.22V290.845H324.416V285.28H322.024C322.037 284.942 322.05 284.578 322.05 284.201V283.694H324.923V282.537H324.273V279.17H323.077ZM325.378 280.119V285.826H327.159C326.847 286.216 326.379 286.541 325.768 286.827L326.171 287.451H324.858V288.634H328.732V290.988H329.928V288.634H332.073V287.451H329.928V286.229H328.732V287.451H326.782C327.458 287.1 327.965 286.645 328.316 286.073C328.355 285.995 328.394 285.917 328.446 285.826H331.488V280.119H328.654C328.797 279.794 328.914 279.456 329.005 279.105L327.783 278.949C327.705 279.352 327.575 279.742 327.406 280.119H325.378ZM330.37 284.76H328.797C328.875 284.37 328.94 283.941 328.979 283.473H330.37V284.76ZM327.666 284.76H326.483V283.473H327.861C327.835 283.941 327.77 284.37 327.666 284.76ZM326.483 282.446V281.198H327.887V282.446H326.483ZM329.005 281.198H330.37V282.446H329.005V281.198ZM335.115 287.828C334.803 287.828 334.556 287.906 334.374 288.088C334.179 288.27 334.088 288.504 334.088 288.803C334.088 289.076 334.179 289.31 334.361 289.492C334.543 289.674 334.764 289.766 335.037 289.766C335.167 289.766 335.271 289.753 335.349 289.727C335.349 290.039 335.245 290.338 335.024 290.637C334.79 290.923 334.491 291.118 334.14 291.248V292.054C334.79 291.872 335.31 291.534 335.7 291.04C336.09 290.545 336.285 289.974 336.285 289.31C336.285 288.868 336.168 288.517 335.96 288.231C335.726 287.958 335.453 287.828 335.115 287.828ZM347.972 283.109H350.702V284.617H347.972V283.109ZM350.702 282.004H347.972V280.574H350.702V282.004ZM346.659 290.663C348.349 290.247 349.87 289.766 351.196 289.206C351.404 289.622 351.599 290.013 351.781 290.403L352.743 289.727C352.314 288.816 351.703 287.737 350.897 286.502L349.961 287.1C350.182 287.464 350.403 287.815 350.624 288.179C349.844 288.491 348.96 288.79 347.972 289.076V285.761H351.846V279.469H346.763V288.842C346.763 289.141 346.581 289.349 346.23 289.479L346.659 290.663ZM356.279 289.245C357.189 289.245 357.657 288.777 357.657 287.841V279.482H353.198V290.988H354.433V280.639H356.422V287.568C356.422 287.906 356.24 288.088 355.876 288.088L354.914 288.049L355.239 289.245H356.279ZM361.271 282.784V283.954H364.573V289.206L364.456 289.18C363.546 288.894 362.779 288.231 362.168 287.217C362.389 286.567 362.584 285.852 362.74 285.098L361.544 284.89C361.128 287.022 360.296 288.738 359.074 290.013L359.88 291.001C360.608 290.273 361.219 289.388 361.713 288.348C362.233 289.102 362.909 289.674 363.741 290.065C364.911 290.559 366.874 290.806 369.604 290.806H370.826L371.06 289.583C370.384 289.635 369.708 289.674 369.058 289.674C367.758 289.661 366.679 289.596 365.795 289.466V287.074H369.539V285.904H365.795V283.954H368.993V282.784H361.271ZM370.566 280.249H365.821C365.652 279.755 365.47 279.313 365.288 278.91L363.962 279.118C364.17 279.456 364.378 279.833 364.56 280.249H359.672V283.265H360.881V281.393H369.357V283.2H370.566V280.249ZM373.946 283.655H375.48V285.54H373.946V283.655ZM375.48 282.537H373.946V280.574H375.48V282.537ZM373.92 286.671H375.48V289.557C375.48 289.831 375.324 289.974 375.038 289.974C374.778 289.974 374.518 289.948 374.232 289.922L374.518 290.988H375.376C376.195 290.988 376.611 290.637 376.611 289.948V279.482H372.841V285.878C372.815 287.646 372.568 289.089 372.087 290.234L372.984 291.04C373.53 289.896 373.842 288.439 373.92 286.671ZM378.6 282.525H380.121V285.358H377.534V286.502H380.121V289.427H377.04V290.585H384.073V289.427H381.33V286.502H383.67V285.358H381.33V282.525H383.696V281.38H381.33V279.04H380.121V281.38H378.847C378.925 280.899 378.964 280.405 378.99 279.885L377.885 279.755C377.807 281.367 377.404 282.824 376.689 284.149L377.586 284.942C378.015 284.188 378.353 283.382 378.6 282.525ZM395.656 282.303H392.991C393.381 281.926 393.771 281.471 394.174 280.951V280.041H390.027C390.183 279.807 390.352 279.56 390.508 279.3L389.299 279.04C388.233 280.626 386.946 281.861 385.464 282.745L386.257 283.681C386.556 283.473 386.868 283.265 387.18 283.031V288.465H388.389V283.46H394.447V288.335H395.656V282.303ZM391.561 282.303H388.051C388.441 281.939 388.818 281.549 389.182 281.133H392.653C392.289 281.575 391.925 281.965 391.561 282.303ZM392.198 287.88L391.587 288.79C393.16 289.336 394.694 290.104 396.176 291.079L396.865 290.026C395.461 289.18 393.901 288.465 392.198 287.88ZM390.781 284.019V285.852C390.716 286.918 390.352 287.777 389.689 288.439C389.013 289.063 387.726 289.57 385.854 289.987L386.517 291.04C388.389 290.611 389.754 290.013 390.586 289.232C391.444 288.387 391.899 287.256 391.977 285.852V284.019H390.781Z" fill="black"/>
<rect x="19.6875" y="297.688" width="390.909" height="1" fill="#ECECEC"/>
<path d="M117.063 307.223C116.14 307.223 115.373 307.522 114.749 308.133C114.125 308.731 113.826 309.485 113.826 310.421C113.826 311.331 114.086 312.072 114.619 312.644C115.165 313.229 115.906 313.528 116.816 313.528C117.297 313.528 117.726 313.424 118.103 313.242C118.493 313.034 118.831 312.735 119.091 312.332H119.143C119.143 312.397 119.156 312.449 119.156 312.501C119.156 313.398 118.961 314.152 118.597 314.75C118.207 315.374 117.7 315.699 117.063 315.699C116.127 315.699 115.555 315.244 115.373 314.347H113.995C114.229 316.024 115.243 316.87 117.05 316.87C118.116 316.87 118.961 316.388 119.598 315.452C120.209 314.516 120.521 313.294 120.521 311.786C120.521 310.356 120.222 309.251 119.65 308.458C119.052 307.626 118.194 307.223 117.063 307.223ZM117.115 308.393C117.661 308.393 118.116 308.575 118.467 308.939C118.805 309.29 118.987 309.771 118.987 310.382C118.987 310.98 118.818 311.474 118.48 311.838C118.142 312.202 117.674 312.384 117.102 312.384C116.517 312.384 116.062 312.202 115.737 311.838C115.386 311.487 115.217 311.019 115.217 310.421C115.217 309.824 115.386 309.343 115.737 308.965C116.075 308.575 116.543 308.393 117.115 308.393Z" fill="black"/>
<rect x="214.642" y="298.688" width="1" height="26" fill="#ECECEC"/>
<path d="M229.607 310.525V311.708H233.962C233.754 312.462 233.507 313.086 233.208 313.593C232.402 314.945 231.05 316.102 229.152 317.091L229.932 318.105C232.012 316.974 233.494 315.634 234.365 314.087C234.651 313.593 234.885 312.982 235.093 312.254C236.055 314.763 237.797 316.714 240.332 318.092L241.099 317.091C238.642 315.83 236.965 314.035 236.055 311.708H240.67V310.525H235.47C235.6 309.719 235.704 308.822 235.769 307.834H240.293V306.651H229.945V307.834H234.521C234.469 308.809 234.365 309.706 234.222 310.525H229.607ZM244.869 309.511H247.729V312.202H244.011V313.398H247.729V316.362H242.438V317.585H253.969V316.362H248.964V313.398H252.877V312.202H248.964V309.511H253.137V308.315H248.964V306.131H247.729V308.315H245.311C245.467 307.795 245.61 307.236 245.74 306.638L244.479 306.417C244.063 308.51 243.27 310.174 242.1 311.409L242.906 312.436C243.699 311.656 244.349 310.681 244.869 309.511ZM262.705 311.955H259.351V315.816H260.222V312.866H261.847V315.842H262.705V311.955ZM261.054 316.518C261.379 316.857 261.652 317.195 261.86 317.52L262.497 316.883C262.172 316.479 261.769 316.076 261.301 315.686C261.366 315.322 261.405 314.932 261.431 314.503V313.385H260.625V314.503C260.599 315.179 260.495 315.738 260.3 316.154C260.079 316.544 259.689 316.883 259.117 317.143L259.611 317.923C260.235 317.637 260.69 317.247 260.963 316.727C260.989 316.661 261.028 316.596 261.054 316.518ZM255.334 306.755V307.613H256.4V308.952H266.072V308.107H257.531V307.613H266.904V306.755H261.73C261.626 306.443 261.535 306.157 261.431 305.897L260.196 306.105C260.326 306.3 260.443 306.521 260.56 306.755H255.334ZM256.764 309.407V311.461H265.435V309.407H256.764ZM264.239 310.681H257.96V310.174H264.239V310.681ZM256.803 314.412H257.96V315.166H256.751C256.777 314.932 256.79 314.672 256.803 314.412ZM257.96 313.645H256.816V312.891H257.96V313.645ZM256.647 315.933H257.96V316.727C257.96 316.987 257.83 317.13 257.57 317.13C257.427 317.13 257.271 317.116 257.115 317.091L257.375 317.988H257.869C258.558 317.988 258.909 317.676 258.909 317.065V311.981H255.854V314.23C255.841 315.504 255.581 316.544 255.074 317.377L255.828 318.066C256.205 317.468 256.478 316.766 256.647 315.933ZM266.397 317.858C266.67 317.858 266.865 317.754 266.969 317.545C267.073 317.325 267.151 316.766 267.229 315.881L266.462 315.608C266.436 316.297 266.41 316.701 266.384 316.805C266.345 316.922 266.306 316.987 266.254 316.987H266.215C266.085 316.987 266.033 316.909 266.033 316.779V311.968H263.186V314.165C263.186 315.088 263.121 315.751 263.004 316.167C262.887 316.557 262.64 316.974 262.25 317.416L263.004 318.079C263.459 317.494 263.758 316.935 263.901 316.414C264.005 315.946 264.07 315.27 264.083 314.399C264.252 314.828 264.408 315.322 264.551 315.868L265.123 315.608V317.065C265.123 317.585 265.37 317.858 265.89 317.858H266.397ZM264.083 314.152V312.917H265.123V315.426C264.967 314.919 264.798 314.438 264.603 313.983L264.083 314.152ZM276.108 313.06C276.732 314.802 277.733 316.259 279.111 317.416L279.995 316.388C278.669 315.452 277.694 314.23 277.096 312.709C277.863 312.397 278.578 312.033 279.254 311.604L278.422 310.772C277.382 311.435 276.29 311.929 275.146 312.267C274.886 311.799 274.574 311.357 274.197 310.941C274.483 310.759 274.782 310.564 275.094 310.356H277.98V309.212H270.258V310.356H273.17C272.884 310.499 272.585 310.629 272.273 310.759C271.233 311.188 270.115 311.526 268.919 311.773L269.543 312.8C271.077 312.345 272.273 311.916 273.118 311.513C273.157 311.487 273.196 311.474 273.248 311.448C273.378 311.604 273.495 311.76 273.625 311.929C272.442 312.774 270.791 313.463 268.672 314.009L269.283 315.075C271.298 314.49 272.923 313.749 274.145 312.839C274.249 313.073 274.353 313.333 274.431 313.593C273.014 314.711 271.038 315.634 268.503 316.349L269.127 317.403C271.389 316.701 273.235 315.83 274.639 314.777C274.639 314.893 274.652 315.023 274.652 315.153C274.652 315.881 274.535 316.362 274.327 316.622C274.145 316.818 273.69 316.922 272.962 316.922H272.299L272.715 318.014H273.131C274.314 318.014 275.068 317.78 275.406 317.312C275.692 316.922 275.848 316.193 275.848 315.153C275.835 314.451 275.731 313.801 275.536 313.203C275.718 313.151 275.913 313.112 276.108 313.06ZM274.418 305.936L273.157 306.157C273.3 306.43 273.443 306.729 273.573 307.067H268.542V309.485H269.777V308.211H278.461V309.485H279.696V307.067H274.821C274.691 306.651 274.561 306.274 274.418 305.936ZM283.115 314.828C282.803 314.828 282.556 314.906 282.374 315.088C282.179 315.27 282.088 315.504 282.088 315.803C282.088 316.076 282.179 316.31 282.361 316.492C282.543 316.674 282.764 316.766 283.037 316.766C283.167 316.766 283.271 316.753 283.349 316.727C283.349 317.039 283.245 317.338 283.024 317.637C282.79 317.923 282.491 318.118 282.14 318.248V319.054C282.79 318.872 283.31 318.534 283.7 318.04C284.09 317.545 284.285 316.974 284.285 316.31C284.285 315.868 284.168 315.517 283.96 315.231C283.726 314.958 283.453 314.828 283.115 314.828ZM294.529 306.625V307.834H300.119C298.975 310.123 296.973 312.072 294.126 313.684L294.945 314.763C296.778 313.671 298.286 312.423 299.482 311.032V318.053H300.756V309.264C301.029 308.809 301.276 308.328 301.51 307.834H305.709V306.625H294.529ZM302.394 310.161L301.51 311.019C303.057 312.293 304.253 313.476 305.111 314.581L306.086 313.606C305.085 312.462 303.85 311.305 302.394 310.161ZM309.219 312.93V318.04H310.428V312.839C311 313.359 311.572 313.97 312.144 314.685L312.82 313.619C312.495 313.294 312.157 312.982 311.793 312.696C312.17 312.423 312.521 312.072 312.859 311.63L312.144 310.928C311.78 311.435 311.403 311.825 311.013 312.098C310.818 311.955 310.623 311.825 310.428 311.695V311.591C311.117 310.72 311.624 309.836 311.949 308.952V307.951H310.61C310.428 307.366 310.181 306.716 309.856 306.001L308.66 306.313C308.92 306.846 309.167 307.392 309.375 307.951H307.438V309.069H310.727C310.103 310.408 308.881 311.786 307.087 313.216L307.464 314.464C308.101 313.957 308.686 313.45 309.219 312.93ZM314.367 306.053V318.014H315.576V311.578C316.343 312.15 317.292 312.93 318.423 313.931L319.151 312.852C317.955 311.903 316.759 311.058 315.576 310.304V306.053H314.367ZM323.077 306.17V309.537H322.05V306.43H320.854V311.201C320.841 314.022 320.555 316.076 319.983 317.351L320.893 318.144C321.452 317.052 321.816 315.491 321.972 313.438H323.22V317.845H324.416V312.28H322.024C322.037 311.942 322.05 311.578 322.05 311.201V310.694H324.923V309.537H324.273V306.17H323.077ZM325.378 307.119V312.826H327.159C326.847 313.216 326.379 313.541 325.768 313.827L326.171 314.451H324.858V315.634H328.732V317.988H329.928V315.634H332.073V314.451H329.928V313.229H328.732V314.451H326.782C327.458 314.1 327.965 313.645 328.316 313.073C328.355 312.995 328.394 312.917 328.446 312.826H331.488V307.119H328.654C328.797 306.794 328.914 306.456 329.005 306.105L327.783 305.949C327.705 306.352 327.575 306.742 327.406 307.119H325.378ZM330.37 311.76H328.797C328.875 311.37 328.94 310.941 328.979 310.473H330.37V311.76ZM327.666 311.76H326.483V310.473H327.861C327.835 310.941 327.77 311.37 327.666 311.76ZM326.483 309.446V308.198H327.887V309.446H326.483ZM329.005 308.198H330.37V309.446H329.005V308.198ZM335.115 314.828C334.803 314.828 334.556 314.906 334.374 315.088C334.179 315.27 334.088 315.504 334.088 315.803C334.088 316.076 334.179 316.31 334.361 316.492C334.543 316.674 334.764 316.766 335.037 316.766C335.167 316.766 335.271 316.753 335.349 316.727C335.349 317.039 335.245 317.338 335.024 317.637C334.79 317.923 334.491 318.118 334.14 318.248V319.054C334.79 318.872 335.31 318.534 335.7 318.04C336.09 317.545 336.285 316.974 336.285 316.31C336.285 315.868 336.168 315.517 335.96 315.231C335.726 314.958 335.453 314.828 335.115 314.828ZM347.972 310.109H350.702V311.617H347.972V310.109ZM350.702 309.004H347.972V307.574H350.702V309.004ZM346.659 317.663C348.349 317.247 349.87 316.766 351.196 316.206C351.404 316.622 351.599 317.013 351.781 317.403L352.743 316.727C352.314 315.816 351.703 314.737 350.897 313.502L349.961 314.1C350.182 314.464 350.403 314.815 350.624 315.179C349.844 315.491 348.96 315.79 347.972 316.076V312.761H351.846V306.469H346.763V315.842C346.763 316.141 346.581 316.349 346.23 316.479L346.659 317.663ZM356.279 316.245C357.189 316.245 357.657 315.777 357.657 314.841V306.482H353.198V317.988H354.433V307.639H356.422V314.568C356.422 314.906 356.24 315.088 355.876 315.088L354.914 315.049L355.239 316.245H356.279ZM361.271 309.784V310.954H364.573V316.206L364.456 316.18C363.546 315.894 362.779 315.231 362.168 314.217C362.389 313.567 362.584 312.852 362.74 312.098L361.544 311.89C361.128 314.022 360.296 315.738 359.074 317.013L359.88 318.001C360.608 317.273 361.219 316.388 361.713 315.348C362.233 316.102 362.909 316.674 363.741 317.065C364.911 317.559 366.874 317.806 369.604 317.806H370.826L371.06 316.583C370.384 316.635 369.708 316.674 369.058 316.674C367.758 316.661 366.679 316.596 365.795 316.466V314.074H369.539V312.904H365.795V310.954H368.993V309.784H361.271ZM370.566 307.249H365.821C365.652 306.755 365.47 306.313 365.288 305.91L363.962 306.118C364.17 306.456 364.378 306.833 364.56 307.249H359.672V310.265H360.881V308.393H369.357V310.2H370.566V307.249ZM373.946 310.655H375.48V312.54H373.946V310.655ZM375.48 309.537H373.946V307.574H375.48V309.537ZM373.92 313.671H375.48V316.557C375.48 316.831 375.324 316.974 375.038 316.974C374.778 316.974 374.518 316.948 374.232 316.922L374.518 317.988H375.376C376.195 317.988 376.611 317.637 376.611 316.948V306.482H372.841V312.878C372.815 314.646 372.568 316.089 372.087 317.234L372.984 318.04C373.53 316.896 373.842 315.439 373.92 313.671ZM378.6 309.525H380.121V312.358H377.534V313.502H380.121V316.427H377.04V317.585H384.073V316.427H381.33V313.502H383.67V312.358H381.33V309.525H383.696V308.38H381.33V306.04H380.121V308.38H378.847C378.925 307.899 378.964 307.405 378.99 306.885L377.885 306.755C377.807 308.367 377.404 309.824 376.689 311.149L377.586 311.942C378.015 311.188 378.353 310.382 378.6 309.525ZM395.656 309.303H392.991C393.381 308.926 393.771 308.471 394.174 307.951V307.041H390.027C390.183 306.807 390.352 306.56 390.508 306.3L389.299 306.04C388.233 307.626 386.946 308.861 385.464 309.745L386.257 310.681C386.556 310.473 386.868 310.265 387.18 310.031V315.465H388.389V310.46H394.447V315.335H395.656V309.303ZM391.561 309.303H388.051C388.441 308.939 388.818 308.549 389.182 308.133H392.653C392.289 308.575 391.925 308.965 391.561 309.303ZM392.198 314.88L391.587 315.79C393.16 316.336 394.694 317.104 396.176 318.079L396.865 317.026C395.461 316.18 393.901 315.465 392.198 314.88ZM390.781 311.019V312.852C390.716 313.918 390.352 314.777 389.689 315.439C389.013 316.063 387.726 316.57 385.854 316.987L386.517 318.04C388.389 317.611 389.754 317.013 390.586 316.232C391.444 315.387 391.899 314.256 391.977 312.852V311.019H390.781Z" fill="black"/>
</g>
<rect x="20.1875" y="30.1875" width="389.909" height="294" rx="8.5" stroke="#ECECEC"/>
<defs>
<linearGradient id="paint0_linear_627_19776" x1="0" y1="26" x2="0" y2="0" gradientUnits="userSpaceOnUse">
<stop stop-color="#F36742"/>
<stop offset="1" stop-color="#FC8A3E"/>
</linearGradient>
<clipPath id="clip0_627_19776">
<rect x="19.6875" y="29.6875" width="390.909" height="295" rx="9" fill="white"/>
</clipPath>
</defs>
</svg>
