<svg width="431" height="355" viewBox="0 0 431 355" fill="none" xmlns="http://www.w3.org/2000/svg">
<rect width="430.285" height="354.376" rx="10" fill="#0D131C"/>
<rect x="10" y="20" width="410.285" height="314.376" rx="3.87518" fill="#161F2C"/>
<g clip-path="url(#clip0_507_17563)">
<rect width="390.909" height="26" transform="translate(19.688 29.6875)" fill="url(#paint0_linear_507_17563)"/>
<path d="M55.5062 41.2395V42.3575H57.7942C57.0662 43.7745 56.1042 44.9055 54.8952 45.7635L55.6232 46.9465C56.6112 46.0365 57.4562 44.8665 58.1582 43.4365V48.2985H59.3022V44.0995C60.2122 44.9185 60.9532 45.6985 61.5252 46.4525L62.3182 45.6465C61.4992 44.6845 60.4982 43.7095 59.3022 42.7475V42.3575H61.8112V41.2395H59.3022V39.3675H58.1582V41.2395H55.5062ZM62.5392 48.9225C63.5012 48.9225 63.9952 48.4415 63.9952 47.4795V37.6125H57.9372V38.7045H62.8382V47.1545C62.8382 47.6095 62.6562 47.8435 62.2922 47.8435L61.1612 47.8045L61.4732 48.9225H62.5392ZM53.3222 39.1855V49.0395H54.4792V39.1855H53.3222ZM55.4022 36.9105L54.3622 37.3785C54.8562 37.9505 55.3242 38.6135 55.7402 39.3675L56.7412 38.8475C56.3512 38.1455 55.8962 37.4955 55.4022 36.9105ZM73.6542 44.0605C74.2782 45.8025 75.2792 47.2585 76.6572 48.4155L77.5412 47.3885C76.2152 46.4525 75.2402 45.2305 74.6422 43.7095C75.4092 43.3975 76.1242 43.0335 76.8002 42.6045L75.9682 41.7725C74.9282 42.4355 73.8362 42.9295 72.6922 43.2675C72.4322 42.7995 72.1202 42.3575 71.7432 41.9415C72.0292 41.7595 72.3282 41.5645 72.6402 41.3565H75.5262V40.2125H67.8042V41.3565H70.7162C70.4302 41.4995 70.1312 41.6295 69.8192 41.7595C68.7792 42.1885 67.6612 42.5265 66.4652 42.7735L67.0892 43.8005C68.6232 43.3455 69.8192 42.9165 70.6642 42.5135C70.7032 42.4875 70.7422 42.4745 70.7942 42.4485C70.9242 42.6045 71.0412 42.7605 71.1712 42.9295C69.9882 43.7745 68.3372 44.4635 66.2182 45.0095L66.8292 46.0755C68.8442 45.4905 70.4692 44.7495 71.6912 43.8395C71.7952 44.0735 71.8992 44.3335 71.9772 44.5935C70.5602 45.7115 68.5842 46.6345 66.0492 47.3495L66.6732 48.4025C68.9352 47.7005 70.7812 46.8295 72.1852 45.7765C72.1852 45.8935 72.1982 46.0235 72.1982 46.1535C72.1982 46.8815 72.0812 47.3625 71.8732 47.6225C71.6912 47.8175 71.2362 47.9215 70.5082 47.9215H69.8452L70.2612 49.0135H70.6772C71.8602 49.0135 72.6142 48.7795 72.9522 48.3115C73.2382 47.9215 73.3942 47.1935 73.3942 46.1535C73.3812 45.4515 73.2772 44.8015 73.0822 44.2035C73.2642 44.1515 73.4592 44.1125 73.6542 44.0605ZM71.9642 36.9365L70.7032 37.1575C70.8462 37.4305 70.9892 37.7295 71.1192 38.0675H66.0882V40.4855H67.3232V39.2115H76.0072V40.4855H77.2422V38.0675H72.3672C72.2372 37.6515 72.1072 37.2745 71.9642 36.9365ZM86.8232 36.9365C86.5372 37.5085 86.2252 38.0415 85.8612 38.5485H83.5082C83.2482 37.9895 82.9882 37.4955 82.7152 37.0535L81.4152 37.2615C81.6882 37.6515 81.9482 38.0805 82.1822 38.5485H78.8022V39.7445H90.5152V38.5485H87.2262C87.5122 38.1845 87.7722 37.7945 88.0192 37.3525L86.8232 36.9365ZM83.3522 48.9485C84.1712 48.9485 84.5872 48.4415 84.5872 47.4405V40.5505H79.6342V49.0525H80.8432V46.2965H83.3912V47.1675C83.3912 47.5705 83.2352 47.7785 82.9492 47.7785L82.0132 47.7395L82.3382 48.9485H83.3522ZM80.8432 45.2045V43.9955H83.3912V45.2045H80.8432ZM80.8432 42.9035V41.6945H83.3912V42.9035H80.8432ZM88.4222 48.9095C89.2672 48.9095 89.6962 48.4675 89.6962 47.5835V40.2775H88.4612V47.2715C88.4612 47.6225 88.3052 47.8045 87.9932 47.8045C87.4732 47.8045 86.9532 47.7785 86.4072 47.7265L86.6672 48.9095H88.4222ZM85.7832 41.2525V46.8035H86.9792V41.2525H85.7832ZM91.8802 37.5475V38.7565H95.2732V40.5115H92.4262V48.9745H93.6482V46.0105L94.5582 46.7905C95.2082 46.0755 95.6892 45.1395 96.0142 43.9695C96.2742 44.4245 96.5732 45.0355 96.9372 45.8155L97.6392 44.7755C97.1712 44.0605 96.7032 43.4105 96.2482 42.8255C96.3002 42.4615 96.3522 42.0845 96.3782 41.6815H98.8352C98.6792 43.7355 98.1332 45.2825 97.1712 46.3095L98.0942 47.1155C98.8352 46.3095 99.3682 45.2305 99.6932 43.8655C100.018 44.5285 100.408 45.4125 100.85 46.5045L101.617 45.3605C101.045 44.3335 100.486 43.3975 99.9272 42.5525L100.005 41.6815H101.682V47.1675C101.682 47.5575 101.539 47.7655 101.266 47.7655L100.005 47.7135L100.317 48.9095H101.669C102.488 48.9095 102.904 48.4155 102.904 47.4275V40.5115H100.044V38.7565H103.45V37.5475H91.8802ZM95.2212 41.6815C95.0522 43.5535 94.5322 44.9705 93.6482 45.9585V41.6815H95.2212ZM96.4302 40.5115V38.7565H98.8742V40.5115H96.4302ZM110.21 37.0405V42.3055H109.261V43.5015H110.21V47.3755C110.21 47.6355 110.041 47.8305 109.729 47.9605L110.275 49.0915C111.523 48.7405 112.641 48.2985 113.616 47.7525L113.382 46.5825C112.706 46.9725 112.056 47.2845 111.406 47.5315V43.5015H112.615C113.356 45.8415 114.448 47.6355 115.904 48.8575L116.749 47.9085C115.449 46.8685 114.448 45.3995 113.72 43.5015H116.515V42.3055H111.406V37.0405H110.21ZM115.215 37.6255C114.474 38.7565 113.356 39.7705 111.848 40.6545L112.563 41.6165C114.123 40.6935 115.293 39.6665 116.073 38.5225L115.215 37.6255ZM106.31 41.4995H108.689V37.4695H104.854V38.6005H107.506V40.3685H105.218L104.802 44.4245H107.675C107.675 45.8285 107.623 46.7385 107.519 47.1675C107.415 47.5965 107.012 47.8175 106.323 47.8175C105.933 47.8175 105.569 47.7915 105.205 47.7655L105.517 48.8835C105.881 48.9095 106.232 48.9355 106.596 48.9355C107.818 48.8705 108.507 48.4675 108.663 47.7135C108.806 46.9855 108.884 45.5165 108.884 43.3065H106.089L106.31 41.4995ZM120.623 37.1705V40.5375H119.596V37.4305H118.4V42.2015C118.387 45.0225 118.101 47.0765 117.529 48.3505L118.439 49.1435C118.998 48.0515 119.362 46.4915 119.518 44.4375H120.766V48.8445H121.962V43.2805H119.57C119.583 42.9425 119.596 42.5785 119.596 42.2015V41.6945H122.469V40.5375H121.819V37.1705H120.623ZM122.924 38.1195V43.8265H124.705C124.393 44.2165 123.925 44.5415 123.314 44.8275L123.717 45.4515H122.404V46.6345H126.278V48.9875H127.474V46.6345H129.619V45.4515H127.474V44.2295H126.278V45.4515H124.328C125.004 45.1005 125.511 44.6455 125.862 44.0735C125.901 43.9955 125.94 43.9175 125.992 43.8265H129.034V38.1195H126.2C126.343 37.7945 126.46 37.4565 126.551 37.1055L125.329 36.9495C125.251 37.3525 125.121 37.7425 124.952 38.1195H122.924ZM127.916 42.7605H126.343C126.421 42.3705 126.486 41.9415 126.525 41.4735H127.916V42.7605ZM125.212 42.7605H124.029V41.4735H125.407C125.381 41.9415 125.316 42.3705 125.212 42.7605ZM124.029 40.4465V39.1985H125.433V40.4465H124.029ZM126.551 39.1985H127.916V40.4465H126.551V39.1985ZM136.21 37.0015C134.702 38.7435 132.804 40.2125 130.529 41.3825L131.179 42.5785C131.907 42.1755 132.596 41.7465 133.246 41.2785V42.2275H140.084V41.3045C140.708 41.7465 141.384 42.1625 142.099 42.5525L142.762 41.3695C140.63 40.3035 138.758 38.8475 137.12 37.0015H136.21ZM133.571 41.0445C134.767 40.1605 135.794 39.1855 136.665 38.1195C137.562 39.2115 138.589 40.1865 139.733 41.0445H133.571ZM140.903 43.6185H132.427V49.0135H133.623V48.3115H139.707V49.0135H140.903V43.6185ZM133.623 47.1415V44.7755H139.707V47.1415H133.623ZM147.78 40.8235V42.0455H151.186V49.0525H152.46V42.0455H155.684V40.8235H152.46V37.0145H151.186V40.8235H147.78ZM145.414 37.1315L144.556 37.9765C145.479 38.6525 146.194 39.3025 146.714 39.9135L147.559 39.0555C146.974 38.4055 146.259 37.7685 145.414 37.1315ZM143.698 40.9015V42.0845H145.518V46.8685C145.518 47.1285 145.401 47.3495 145.18 47.5315L145.648 48.6365C146.597 48.0255 147.494 47.3235 148.326 46.5435L148.001 45.2825C147.546 45.7115 147.117 46.1015 146.701 46.4395V40.9015H143.698ZM161.846 37.1055V40.7845H158.336V45.1915H167.202V40.7845H163.068V39.4065H168.021V38.2495H163.068V37.1055H161.846ZM165.967 44.0475H159.558V41.9415H165.967V44.0475ZM158.31 45.6205C157.842 46.6475 157.296 47.5315 156.672 48.2725L157.686 49.0135C158.31 48.2075 158.869 47.2455 159.337 46.1275L158.31 45.6205ZM161.404 46.0365L160.247 46.2835C160.494 47.0765 160.702 47.9995 160.858 49.0395L162.106 48.7535C161.898 47.7785 161.664 46.8685 161.404 46.0365ZM164.108 45.8675L162.951 46.1015C163.315 46.9465 163.627 47.9215 163.874 49.0135L165.096 48.7275C164.81 47.7005 164.485 46.7515 164.108 45.8675ZM166.708 45.5815L165.72 46.2185C166.5 47.2585 167.111 48.2205 167.566 49.0785L168.593 48.3635C168.151 47.5705 167.527 46.6475 166.708 45.5815ZM177.836 40.0955H179.513C179.461 41.6555 179.227 43.0335 178.798 44.2295C178.343 43.2155 177.966 42.0325 177.68 40.6805C177.732 40.4985 177.784 40.3035 177.836 40.0955ZM178.239 45.4905C177.667 46.5175 176.9 47.3495 175.938 47.9995L176.575 49.0265C177.485 48.3765 178.252 47.5705 178.863 46.6215C179.487 47.6225 180.215 48.4285 181.06 49.0395L181.749 48.0385C180.865 47.4405 180.111 46.5955 179.461 45.5165C180.163 44.0215 180.553 42.2145 180.631 40.0955H181.385V38.9125H178.083C178.187 38.3795 178.265 37.8205 178.343 37.2225L177.134 37.0145C176.874 39.4325 176.38 41.3565 175.652 42.7865L176.432 43.7485C176.666 43.3585 176.874 42.9165 177.082 42.4485C177.407 43.5795 177.797 44.5935 178.239 45.4905ZM172.077 43.0595C171.999 43.2935 171.908 43.5535 171.804 43.8135H169.971V44.8665H171.336C171.089 45.3605 170.803 45.8675 170.491 46.4135C171.089 46.6475 171.661 46.8685 172.194 47.0895C171.492 47.4535 170.647 47.7395 169.672 47.9735L170.244 48.9875C171.531 48.6495 172.61 48.2075 173.468 47.6485C174.183 47.9735 174.794 48.2855 175.301 48.5975L175.964 47.6355C175.47 47.3755 174.95 47.1155 174.417 46.8815C175.015 46.2835 175.431 45.5945 175.665 44.8145V43.8135H173.013C173.091 43.6055 173.156 43.4105 173.234 43.2025L172.077 43.0595ZM173.286 46.4135C172.857 46.2315 172.415 46.0755 171.96 45.9195C172.168 45.5815 172.363 45.2305 172.545 44.8665H174.56C174.274 45.4385 173.858 45.9585 173.286 46.4135ZM171.18 37.2225L170.205 37.5475C170.504 38.0285 170.79 38.5875 171.05 39.2115L171.934 38.8085C171.713 38.2365 171.466 37.7165 171.18 37.2225ZM174.911 37.2095C174.677 37.7295 174.352 38.2625 173.936 38.8085L174.794 39.2505C175.197 38.7175 175.522 38.1715 175.782 37.6255L174.911 37.2095ZM169.997 39.4325V40.5115H171.635C171.245 41.1095 170.608 41.6685 169.698 42.1885L170.309 43.1895C171.31 42.4875 172.025 41.6685 172.454 40.7325V42.9295H173.585V41.4735C173.988 41.7335 174.469 42.0975 175.041 42.5525L175.691 41.5775C174.976 41.2005 174.274 40.8625 173.585 40.5765V40.5115H175.847V39.4325H173.585V37.0405H172.454V39.4325H169.997Z" fill="white"/>
<rect x="214.643" y="29.6875" width="1" height="26" fill="#55657E"/>
<path d="M303.461 41.2395V42.3575H305.749C305.021 43.7745 304.059 44.9055 302.85 45.7635L303.578 46.9465C304.566 46.0365 305.411 44.8665 306.113 43.4365V48.2985H307.257V44.0995C308.167 44.9185 308.908 45.6985 309.48 46.4525L310.273 45.6465C309.454 44.6845 308.453 43.7095 307.257 42.7475V42.3575H309.766V41.2395H307.257V39.3675H306.113V41.2395H303.461ZM310.494 48.9225C311.456 48.9225 311.95 48.4415 311.95 47.4795V37.6125H305.892V38.7045H310.793V47.1545C310.793 47.6095 310.611 47.8435 310.247 47.8435L309.116 47.8045L309.428 48.9225H310.494ZM301.277 39.1855V49.0395H302.434V39.1855H301.277ZM303.357 36.9105L302.317 37.3785C302.811 37.9505 303.279 38.6135 303.695 39.3675L304.696 38.8475C304.306 38.1455 303.851 37.4955 303.357 36.9105ZM321.609 44.0605C322.233 45.8025 323.234 47.2585 324.612 48.4155L325.496 47.3885C324.17 46.4525 323.195 45.2305 322.597 43.7095C323.364 43.3975 324.079 43.0335 324.755 42.6045L323.923 41.7725C322.883 42.4355 321.791 42.9295 320.647 43.2675C320.387 42.7995 320.075 42.3575 319.698 41.9415C319.984 41.7595 320.283 41.5645 320.595 41.3565H323.481V40.2125H315.759V41.3565H318.671C318.385 41.4995 318.086 41.6295 317.774 41.7595C316.734 42.1885 315.616 42.5265 314.42 42.7735L315.044 43.8005C316.578 43.3455 317.774 42.9165 318.619 42.5135C318.658 42.4875 318.697 42.4745 318.749 42.4485C318.879 42.6045 318.996 42.7605 319.126 42.9295C317.943 43.7745 316.292 44.4635 314.173 45.0095L314.784 46.0755C316.799 45.4905 318.424 44.7495 319.646 43.8395C319.75 44.0735 319.854 44.3335 319.932 44.5935C318.515 45.7115 316.539 46.6345 314.004 47.3495L314.628 48.4025C316.89 47.7005 318.736 46.8295 320.14 45.7765C320.14 45.8935 320.153 46.0235 320.153 46.1535C320.153 46.8815 320.036 47.3625 319.828 47.6225C319.646 47.8175 319.191 47.9215 318.463 47.9215H317.8L318.216 49.0135H318.632C319.815 49.0135 320.569 48.7795 320.907 48.3115C321.193 47.9215 321.349 47.1935 321.349 46.1535C321.336 45.4515 321.232 44.8015 321.037 44.2035C321.219 44.1515 321.414 44.1125 321.609 44.0605ZM319.919 36.9365L318.658 37.1575C318.801 37.4305 318.944 37.7295 319.074 38.0675H314.043V40.4855H315.278V39.2115H323.962V40.4855H325.197V38.0675H320.322C320.192 37.6515 320.062 37.2745 319.919 36.9365Z" fill="white"/>
<path d="M117.168 64.2235C116.076 64.2235 115.231 64.6785 114.633 65.6015C114.087 66.4465 113.814 67.5905 113.814 69.0465C113.814 70.4895 114.087 71.6335 114.633 72.4915C115.231 73.4015 116.076 73.8695 117.168 73.8695C118.26 73.8695 119.105 73.4015 119.703 72.4915C120.249 71.6335 120.522 70.4765 120.522 69.0465C120.522 67.6035 120.249 66.4595 119.703 65.6015C119.105 64.6785 118.26 64.2235 117.168 64.2235ZM117.168 65.4195C117.922 65.4195 118.468 65.8355 118.78 66.6805C119.001 67.2525 119.118 68.0455 119.118 69.0465C119.118 70.0345 119.001 70.8275 118.78 71.4125C118.468 72.2445 117.922 72.6735 117.168 72.6735C116.401 72.6735 115.868 72.2445 115.556 71.4125C115.322 70.8275 115.218 70.0345 115.218 69.0465C115.218 68.0455 115.322 67.2525 115.556 66.6805C115.868 65.8355 116.401 65.4195 117.168 65.4195Z" fill="white"/>
<rect x="214.643" y="55.6875" width="1" height="26" fill="#55657E"/>
<path d="M292.268 63.0535L291.423 63.8595C292.502 64.7305 293.347 65.5365 293.945 66.2905L294.803 65.4325C294.127 64.6395 293.282 63.8465 292.268 63.0535ZM296.181 63.4565C295.297 66.6285 293.971 69.1635 292.229 71.0745V65.7445H290.994V72.2575C290.162 72.9465 289.252 73.5185 288.238 73.9865L288.953 75.0265C289.707 74.6885 290.422 74.2725 291.111 73.7785C291.293 74.2855 291.735 74.5455 292.45 74.5455H295.154C295.765 74.5455 296.22 74.3765 296.519 74.0645C296.831 73.7135 297.052 72.6475 297.169 70.8665L295.999 70.4635C295.934 71.8805 295.804 72.7255 295.622 72.9855C295.479 73.2325 295.245 73.3625 294.933 73.3625H292.84C292.45 73.3625 292.255 73.1935 292.229 72.8685C294.465 70.8405 296.168 67.8635 297.325 63.9635L296.181 63.4565ZM289.057 66.9015C288.758 68.6955 288.264 70.3595 287.588 71.9195L288.654 72.5825C289.343 71.0615 289.876 69.2545 290.24 67.1485L289.057 66.9015ZM297.754 67.1095L296.584 67.4865C297.312 68.9555 297.988 70.6325 298.586 72.5305L299.691 72.0365C299.145 70.2945 298.495 68.6435 297.754 67.1095ZM305.619 63.4825V64.6785H308.427C308.388 65.0555 308.336 65.4195 308.271 65.7835H305.983V72.0755H307.192V66.9275H310.884V72.0755H312.093V65.7835H309.545C309.597 65.4325 309.636 65.0685 309.688 64.6785H312.444V63.4825H305.619ZM308.427 67.5645V69.8395C308.375 70.8795 308.089 71.7375 307.569 72.3875C307.036 72.9985 306.035 73.5055 304.566 73.8955L305.268 75.0005C306.776 74.5715 307.855 73.9735 308.518 73.1935C309.207 72.3615 309.584 71.2435 309.636 69.8395V67.5645H308.427ZM304.423 63.0405C303.539 64.0025 302.382 64.7825 300.978 65.3805L301.511 66.5115C302.954 65.8095 304.176 64.9515 305.19 63.9115L304.423 63.0405ZM304.566 66.5505C303.63 67.6035 302.447 68.4485 301.017 69.0985L301.55 70.2295C303.032 69.4885 304.293 68.5525 305.32 67.4215L304.566 66.5505ZM304.8 70.4505C303.76 71.7765 302.447 72.8555 300.861 73.6745L301.433 74.8705C303.071 73.9345 304.449 72.7515 305.567 71.3345L304.8 70.4505ZM310.247 72.0105L309.402 72.8295C310.377 73.6095 311.144 74.3375 311.69 75.0135L312.613 74.0905C311.976 73.4015 311.183 72.7125 310.247 72.0105ZM315.72 69.9305V75.0395H316.929V69.8395C317.501 70.3595 318.073 70.9705 318.645 71.6855L319.321 70.6195C318.996 70.2945 318.658 69.9825 318.294 69.6965C318.671 69.4235 319.022 69.0725 319.36 68.6305L318.645 67.9285C318.281 68.4355 317.904 68.8255 317.514 69.0985C317.319 68.9555 317.124 68.8255 316.929 68.6955V68.5915C317.618 67.7205 318.125 66.8365 318.45 65.9525V64.9515H317.111C316.929 64.3665 316.682 63.7165 316.357 63.0015L315.161 63.3135C315.421 63.8465 315.668 64.3925 315.876 64.9515H313.939V66.0695H317.228C316.604 67.4085 315.382 68.7865 313.588 70.2165L313.965 71.4645C314.602 70.9575 315.187 70.4505 315.72 69.9305ZM320.868 63.0535V75.0135H322.077V68.5785C322.844 69.1505 323.793 69.9305 324.924 70.9315L325.652 69.8525C324.456 68.9035 323.26 68.0585 322.077 67.3045V63.0535H320.868ZM329.578 63.1705V66.5375H328.551V63.4305H327.355V68.2015C327.342 71.0225 327.056 73.0765 326.484 74.3505L327.394 75.1435C327.953 74.0515 328.317 72.4915 328.473 70.4375H329.721V74.8445H330.917V69.2805H328.525C328.538 68.9425 328.551 68.5785 328.551 68.2015V67.6945H331.424V66.5375H330.774V63.1705H329.578ZM331.879 64.1195V69.8265H333.66C333.348 70.2165 332.88 70.5415 332.269 70.8275L332.672 71.4515H331.359V72.6345H335.233V74.9875H336.429V72.6345H338.574V71.4515H336.429V70.2295H335.233V71.4515H333.283C333.959 71.1005 334.466 70.6455 334.817 70.0735C334.856 69.9955 334.895 69.9175 334.947 69.8265H337.989V64.1195H335.155C335.298 63.7945 335.415 63.4565 335.506 63.1055L334.284 62.9495C334.206 63.3525 334.076 63.7425 333.907 64.1195H331.879ZM336.871 68.7605H335.298C335.376 68.3705 335.441 67.9415 335.48 67.4735H336.871V68.7605ZM334.167 68.7605H332.984V67.4735H334.362C334.336 67.9415 334.271 68.3705 334.167 68.7605ZM332.984 66.4465V65.1985H334.388V66.4465H332.984ZM335.506 65.1985H336.871V66.4465H335.506V65.1985Z" fill="white"/>
<rect x="19.688" y="81.6875" width="390.909" height="1" fill="#55657E"/>
<path d="M117.528 91.4055C117.216 91.7435 116.826 92.0425 116.358 92.3285C115.89 92.5885 115.461 92.7705 115.045 92.8745V94.2785C115.903 94.0315 116.618 93.6415 117.177 93.1085V100.688H118.594V91.4055H117.528Z" fill="white"/>
<rect x="214.643" y="82.6875" width="1" height="26" fill="#55657E"/>
<path d="M292.268 90.0535L291.423 90.8595C292.502 91.7305 293.347 92.5365 293.945 93.2905L294.803 92.4325C294.127 91.6395 293.282 90.8465 292.268 90.0535ZM296.181 90.4565C295.297 93.6285 293.971 96.1635 292.229 98.0745V92.7445H290.994V99.2575C290.162 99.9465 289.252 100.518 288.238 100.987L288.953 102.027C289.707 101.689 290.422 101.273 291.111 100.779C291.293 101.286 291.735 101.545 292.45 101.545H295.154C295.765 101.545 296.22 101.377 296.519 101.065C296.831 100.714 297.052 99.6475 297.169 97.8665L295.999 97.4635C295.934 98.8805 295.804 99.7255 295.622 99.9855C295.479 100.232 295.245 100.362 294.933 100.362H292.84C292.45 100.362 292.255 100.193 292.229 99.8685C294.465 97.8405 296.168 94.8635 297.325 90.9635L296.181 90.4565ZM289.057 93.9015C288.758 95.6955 288.264 97.3595 287.588 98.9195L288.654 99.5825C289.343 98.0615 289.876 96.2545 290.24 94.1485L289.057 93.9015ZM297.754 94.1095L296.584 94.4865C297.312 95.9555 297.988 97.6325 298.586 99.5305L299.691 99.0365C299.145 97.2945 298.495 95.6435 297.754 94.1095ZM305.619 90.4825V91.6785H308.427C308.388 92.0555 308.336 92.4195 308.271 92.7835H305.983V99.0755H307.192V93.9275H310.884V99.0755H312.093V92.7835H309.545C309.597 92.4325 309.636 92.0685 309.688 91.6785H312.444V90.4825H305.619ZM308.427 94.5645V96.8395C308.375 97.8795 308.089 98.7375 307.569 99.3875C307.036 99.9985 306.035 100.505 304.566 100.896L305.268 102.001C306.776 101.572 307.855 100.974 308.518 100.193C309.207 99.3615 309.584 98.2435 309.636 96.8395V94.5645H308.427ZM304.423 90.0405C303.539 91.0025 302.382 91.7825 300.978 92.3805L301.511 93.5115C302.954 92.8095 304.176 91.9515 305.19 90.9115L304.423 90.0405ZM304.566 93.5505C303.63 94.6035 302.447 95.4485 301.017 96.0985L301.55 97.2295C303.032 96.4885 304.293 95.5525 305.32 94.4215L304.566 93.5505ZM304.8 97.4505C303.76 98.7765 302.447 99.8555 300.861 100.674L301.433 101.871C303.071 100.935 304.449 99.7515 305.567 98.3345L304.8 97.4505ZM310.247 99.0105L309.402 99.8295C310.377 100.609 311.144 101.338 311.69 102.014L312.613 101.091C311.976 100.401 311.183 99.7125 310.247 99.0105ZM315.72 96.9305V102.04H316.929V96.8395C317.501 97.3595 318.073 97.9705 318.645 98.6855L319.321 97.6195C318.996 97.2945 318.658 96.9825 318.294 96.6965C318.671 96.4235 319.022 96.0725 319.36 95.6305L318.645 94.9285C318.281 95.4355 317.904 95.8255 317.514 96.0985C317.319 95.9555 317.124 95.8255 316.929 95.6955V95.5915C317.618 94.7205 318.125 93.8365 318.45 92.9525V91.9515H317.111C316.929 91.3665 316.682 90.7165 316.357 90.0015L315.161 90.3135C315.421 90.8465 315.668 91.3925 315.876 91.9515H313.939V93.0695H317.228C316.604 94.4085 315.382 95.7865 313.588 97.2165L313.965 98.4645C314.602 97.9575 315.187 97.4505 315.72 96.9305ZM320.868 90.0535V102.014H322.077V95.5785C322.844 96.1505 323.793 96.9305 324.924 97.9315L325.652 96.8525C324.456 95.9035 323.26 95.0585 322.077 94.3045V90.0535H320.868ZM329.578 90.1705V93.5375H328.551V90.4305H327.355V95.2015C327.342 98.0225 327.056 100.076 326.484 101.351L327.394 102.144C327.953 101.052 328.317 99.4915 328.473 97.4375H329.721V101.845H330.917V96.2805H328.525C328.538 95.9425 328.551 95.5785 328.551 95.2015V94.6945H331.424V93.5375H330.774V90.1705H329.578ZM331.879 91.1195V96.8265H333.66C333.348 97.2165 332.88 97.5415 332.269 97.8275L332.672 98.4515H331.359V99.6345H335.233V101.988H336.429V99.6345H338.574V98.4515H336.429V97.2295H335.233V98.4515H333.283C333.959 98.1005 334.466 97.6455 334.817 97.0735C334.856 96.9955 334.895 96.9175 334.947 96.8265H337.989V91.1195H335.155C335.298 90.7945 335.415 90.4565 335.506 90.1055L334.284 89.9495C334.206 90.3525 334.076 90.7425 333.907 91.1195H331.879ZM336.871 95.7605H335.298C335.376 95.3705 335.441 94.9415 335.48 94.4735H336.871V95.7605ZM334.167 95.7605H332.984V94.4735H334.362C334.336 94.9415 334.271 95.3705 334.167 95.7605ZM332.984 93.4465V92.1985H334.388V93.4465H332.984ZM335.506 92.1985H336.871V93.4465H335.506V92.1985Z" fill="white"/>
<rect x="19.688" y="108.688" width="390.909" height="1" fill="#55657E"/>
<path d="M117.311 118.223C116.323 118.223 115.517 118.548 114.919 119.224C114.334 119.848 114.035 120.68 114.022 121.72H115.439C115.465 120.966 115.621 120.407 115.933 120.017C116.232 119.614 116.674 119.419 117.259 119.419C117.805 119.419 118.234 119.549 118.52 119.809C118.806 120.069 118.949 120.459 118.949 120.979C118.949 121.525 118.728 122.032 118.312 122.5C118.052 122.773 117.61 123.124 116.986 123.566C115.933 124.294 115.231 124.853 114.893 125.256C114.269 125.958 113.97 126.764 113.97 127.688H120.366V126.439H115.725C115.92 125.932 116.518 125.347 117.519 124.684C118.442 124.06 119.079 123.566 119.443 123.189C120.041 122.526 120.353 121.798 120.353 120.992C120.353 120.173 120.067 119.51 119.508 118.99C118.936 118.47 118.195 118.223 117.311 118.223Z" fill="white"/>
<rect x="214.643" y="109.688" width="1" height="26" fill="#55657E"/>
<path d="M292.268 117.053L291.423 117.859C292.502 118.73 293.347 119.536 293.945 120.29L294.803 119.432C294.127 118.639 293.282 117.846 292.268 117.053ZM296.181 117.456C295.297 120.628 293.971 123.163 292.229 125.074V119.744H290.994V126.257C290.162 126.946 289.252 127.518 288.238 127.987L288.953 129.027C289.707 128.689 290.422 128.273 291.111 127.779C291.293 128.286 291.735 128.545 292.45 128.545H295.154C295.765 128.545 296.22 128.377 296.519 128.065C296.831 127.714 297.052 126.647 297.169 124.866L295.999 124.463C295.934 125.88 295.804 126.725 295.622 126.985C295.479 127.232 295.245 127.362 294.933 127.362H292.84C292.45 127.362 292.255 127.193 292.229 126.868C294.465 124.84 296.168 121.863 297.325 117.963L296.181 117.456ZM289.057 120.901C288.758 122.695 288.264 124.359 287.588 125.919L288.654 126.582C289.343 125.061 289.876 123.254 290.24 121.148L289.057 120.901ZM297.754 121.109L296.584 121.486C297.312 122.955 297.988 124.632 298.586 126.53L299.691 126.036C299.145 124.294 298.495 122.643 297.754 121.109ZM305.619 117.482V118.678H308.427C308.388 119.055 308.336 119.419 308.271 119.783H305.983V126.075H307.192V120.927H310.884V126.075H312.093V119.783H309.545C309.597 119.432 309.636 119.068 309.688 118.678H312.444V117.482H305.619ZM308.427 121.564V123.839C308.375 124.879 308.089 125.737 307.569 126.387C307.036 126.998 306.035 127.505 304.566 127.896L305.268 129.001C306.776 128.572 307.855 127.974 308.518 127.193C309.207 126.361 309.584 125.243 309.636 123.839V121.564H308.427ZM304.423 117.04C303.539 118.002 302.382 118.782 300.978 119.38L301.511 120.511C302.954 119.809 304.176 118.951 305.19 117.911L304.423 117.04ZM304.566 120.55C303.63 121.603 302.447 122.448 301.017 123.098L301.55 124.229C303.032 123.488 304.293 122.552 305.32 121.421L304.566 120.55ZM304.8 124.45C303.76 125.777 302.447 126.855 300.861 127.674L301.433 128.871C303.071 127.935 304.449 126.751 305.567 125.334L304.8 124.45ZM310.247 126.01L309.402 126.83C310.377 127.609 311.144 128.338 311.69 129.014L312.613 128.091C311.976 127.401 311.183 126.712 310.247 126.01ZM315.72 123.93V129.04H316.929V123.839C317.501 124.359 318.073 124.97 318.645 125.685L319.321 124.619C318.996 124.294 318.658 123.982 318.294 123.696C318.671 123.423 319.022 123.072 319.36 122.63L318.645 121.928C318.281 122.435 317.904 122.825 317.514 123.098C317.319 122.955 317.124 122.825 316.929 122.695V122.591C317.618 121.72 318.125 120.836 318.45 119.952V118.951H317.111C316.929 118.366 316.682 117.716 316.357 117.001L315.161 117.313C315.421 117.846 315.668 118.392 315.876 118.951H313.939V120.069H317.228C316.604 121.408 315.382 122.786 313.588 124.216L313.965 125.464C314.602 124.957 315.187 124.45 315.72 123.93ZM320.868 117.053V129.014H322.077V122.578C322.844 123.15 323.793 123.93 324.924 124.931L325.652 123.852C324.456 122.903 323.26 122.058 322.077 121.304V117.053H320.868ZM329.578 117.17V120.537H328.551V117.43H327.355V122.201C327.342 125.022 327.056 127.076 326.484 128.351L327.394 129.144C327.953 128.052 328.317 126.491 328.473 124.438H329.721V128.845H330.917V123.28H328.525C328.538 122.942 328.551 122.578 328.551 122.201V121.694H331.424V120.537H330.774V117.17H329.578ZM331.879 118.119V123.826H333.66C333.348 124.216 332.88 124.541 332.269 124.827L332.672 125.451H331.359V126.634H335.233V128.988H336.429V126.634H338.574V125.451H336.429V124.229H335.233V125.451H333.283C333.959 125.1 334.466 124.645 334.817 124.073C334.856 123.995 334.895 123.917 334.947 123.826H337.989V118.119H335.155C335.298 117.794 335.415 117.456 335.506 117.105L334.284 116.949C334.206 117.352 334.076 117.742 333.907 118.119H331.879ZM336.871 122.76H335.298C335.376 122.37 335.441 121.941 335.48 121.473H336.871V122.76ZM334.167 122.76H332.984V121.473H334.362C334.336 121.941 334.271 122.37 334.167 122.76ZM332.984 120.446V119.198H334.388V120.446H332.984ZM335.506 119.198H336.871V120.446H335.506V119.198Z" fill="white"/>
<rect x="19.688" y="135.688" width="390.909" height="1" fill="#55657E"/>
<path d="M117.259 145.223C116.349 145.223 115.608 145.47 115.036 145.99C114.425 146.51 114.087 147.225 114.009 148.148H115.4C115.452 147.576 115.647 147.147 115.959 146.861C116.271 146.575 116.713 146.432 117.272 146.432C117.818 146.432 118.247 146.549 118.533 146.809C118.793 147.056 118.936 147.407 118.936 147.875C118.936 148.343 118.78 148.707 118.494 148.954C118.208 149.201 117.779 149.331 117.207 149.331H116.544V150.397H117.22C117.831 150.397 118.299 150.527 118.611 150.787C118.949 151.047 119.118 151.45 119.118 151.996C119.118 152.464 118.949 152.841 118.637 153.153C118.273 153.491 117.792 153.673 117.194 153.673C116.648 153.673 116.206 153.517 115.868 153.205C115.478 152.867 115.283 152.386 115.257 151.762H113.827C113.905 152.802 114.269 153.595 114.919 154.141C115.491 154.622 116.258 154.87 117.207 154.87C118.195 154.87 119.014 154.583 119.638 154.037C120.223 153.491 120.522 152.789 120.522 151.931C120.522 151.385 120.366 150.93 120.054 150.579C119.768 150.241 119.352 149.981 118.806 149.812C119.82 149.474 120.34 148.785 120.34 147.771C120.34 146.978 120.054 146.354 119.508 145.899C118.936 145.444 118.195 145.223 117.259 145.223Z" fill="white"/>
<rect x="214.643" y="136.688" width="1" height="26" fill="#55657E"/>
<path d="M292.268 144.053L291.423 144.859C292.502 145.73 293.347 146.536 293.945 147.29L294.803 146.432C294.127 145.639 293.282 144.846 292.268 144.053ZM296.181 144.456C295.297 147.628 293.971 150.163 292.229 152.074V146.744H290.994V153.257C290.162 153.946 289.252 154.518 288.238 154.987L288.953 156.027C289.707 155.689 290.422 155.273 291.111 154.779C291.293 155.286 291.735 155.545 292.45 155.545H295.154C295.765 155.545 296.22 155.377 296.519 155.065C296.831 154.714 297.052 153.647 297.169 151.866L295.999 151.463C295.934 152.88 295.804 153.725 295.622 153.985C295.479 154.232 295.245 154.362 294.933 154.362H292.84C292.45 154.362 292.255 154.193 292.229 153.868C294.465 151.84 296.168 148.863 297.325 144.963L296.181 144.456ZM289.057 147.901C288.758 149.695 288.264 151.359 287.588 152.919L288.654 153.582C289.343 152.061 289.876 150.254 290.24 148.148L289.057 147.901ZM297.754 148.109L296.584 148.486C297.312 149.955 297.988 151.632 298.586 153.53L299.691 153.036C299.145 151.294 298.495 149.643 297.754 148.109ZM305.619 144.482V145.678H308.427C308.388 146.055 308.336 146.419 308.271 146.783H305.983V153.075H307.192V147.927H310.884V153.075H312.093V146.783H309.545C309.597 146.432 309.636 146.068 309.688 145.678H312.444V144.482H305.619ZM308.427 148.564V150.839C308.375 151.879 308.089 152.737 307.569 153.387C307.036 153.998 306.035 154.505 304.566 154.896L305.268 156.001C306.776 155.572 307.855 154.974 308.518 154.193C309.207 153.361 309.584 152.243 309.636 150.839V148.564H308.427ZM304.423 144.04C303.539 145.002 302.382 145.782 300.978 146.38L301.511 147.511C302.954 146.809 304.176 145.951 305.19 144.911L304.423 144.04ZM304.566 147.55C303.63 148.603 302.447 149.448 301.017 150.098L301.55 151.229C303.032 150.488 304.293 149.552 305.32 148.421L304.566 147.55ZM304.8 151.45C303.76 152.777 302.447 153.855 300.861 154.674L301.433 155.871C303.071 154.935 304.449 153.751 305.567 152.334L304.8 151.45ZM310.247 153.01L309.402 153.83C310.377 154.609 311.144 155.338 311.69 156.014L312.613 155.091C311.976 154.401 311.183 153.712 310.247 153.01ZM315.72 150.93V156.04H316.929V150.839C317.501 151.359 318.073 151.97 318.645 152.685L319.321 151.619C318.996 151.294 318.658 150.982 318.294 150.696C318.671 150.423 319.022 150.072 319.36 149.63L318.645 148.928C318.281 149.435 317.904 149.825 317.514 150.098C317.319 149.955 317.124 149.825 316.929 149.695V149.591C317.618 148.72 318.125 147.836 318.45 146.952V145.951H317.111C316.929 145.366 316.682 144.716 316.357 144.001L315.161 144.313C315.421 144.846 315.668 145.392 315.876 145.951H313.939V147.069H317.228C316.604 148.408 315.382 149.786 313.588 151.216L313.965 152.464C314.602 151.957 315.187 151.45 315.72 150.93ZM320.868 144.053V156.014H322.077V149.578C322.844 150.15 323.793 150.93 324.924 151.931L325.652 150.852C324.456 149.903 323.26 149.058 322.077 148.304V144.053H320.868ZM329.578 144.17V147.537H328.551V144.43H327.355V149.201C327.342 152.022 327.056 154.076 326.484 155.351L327.394 156.144C327.953 155.052 328.317 153.491 328.473 151.438H329.721V155.845H330.917V150.28H328.525C328.538 149.942 328.551 149.578 328.551 149.201V148.694H331.424V147.537H330.774V144.17H329.578ZM331.879 145.119V150.826H333.66C333.348 151.216 332.88 151.541 332.269 151.827L332.672 152.451H331.359V153.634H335.233V155.988H336.429V153.634H338.574V152.451H336.429V151.229H335.233V152.451H333.283C333.959 152.1 334.466 151.645 334.817 151.073C334.856 150.995 334.895 150.917 334.947 150.826H337.989V145.119H335.155C335.298 144.794 335.415 144.456 335.506 144.105L334.284 143.949C334.206 144.352 334.076 144.742 333.907 145.119H331.879ZM336.871 149.76H335.298C335.376 149.37 335.441 148.941 335.48 148.473H336.871V149.76ZM334.167 149.76H332.984V148.473H334.362C334.336 148.941 334.271 149.37 334.167 149.76ZM332.984 147.446V146.198H334.388V147.446H332.984ZM335.506 146.198H336.871V147.446H335.506V146.198Z" fill="white"/>
<rect x="19.688" y="162.688" width="390.909" height="1" fill="#55657E"/>
<path d="M118.104 172.405L113.528 178.333V179.672H118.052V181.688H119.404V179.672H120.808V178.541H119.404V172.405H118.104ZM118.013 174.199H118.052V178.541H114.685L118.013 174.199Z" fill="white"/>
<rect x="214.643" y="163.688" width="1" height="26" fill="#55657E"/>
<path d="M292.268 171.053L291.423 171.859C292.502 172.73 293.347 173.536 293.945 174.29L294.803 173.432C294.127 172.639 293.282 171.846 292.268 171.053ZM296.181 171.456C295.297 174.628 293.971 177.163 292.229 179.074V173.744H290.994V180.257C290.162 180.946 289.252 181.518 288.238 181.987L288.953 183.027C289.707 182.689 290.422 182.273 291.111 181.779C291.293 182.286 291.735 182.545 292.45 182.545H295.154C295.765 182.545 296.22 182.377 296.519 182.065C296.831 181.714 297.052 180.647 297.169 178.866L295.999 178.463C295.934 179.88 295.804 180.725 295.622 180.985C295.479 181.232 295.245 181.362 294.933 181.362H292.84C292.45 181.362 292.255 181.193 292.229 180.868C294.465 178.84 296.168 175.863 297.325 171.963L296.181 171.456ZM289.057 174.901C288.758 176.695 288.264 178.359 287.588 179.919L288.654 180.582C289.343 179.061 289.876 177.254 290.24 175.148L289.057 174.901ZM297.754 175.109L296.584 175.486C297.312 176.955 297.988 178.632 298.586 180.53L299.691 180.036C299.145 178.294 298.495 176.643 297.754 175.109ZM305.619 171.482V172.678H308.427C308.388 173.055 308.336 173.419 308.271 173.783H305.983V180.075H307.192V174.927H310.884V180.075H312.093V173.783H309.545C309.597 173.432 309.636 173.068 309.688 172.678H312.444V171.482H305.619ZM308.427 175.564V177.839C308.375 178.879 308.089 179.737 307.569 180.387C307.036 180.998 306.035 181.505 304.566 181.896L305.268 183.001C306.776 182.572 307.855 181.974 308.518 181.193C309.207 180.361 309.584 179.243 309.636 177.839V175.564H308.427ZM304.423 171.04C303.539 172.002 302.382 172.782 300.978 173.38L301.511 174.511C302.954 173.809 304.176 172.951 305.19 171.911L304.423 171.04ZM304.566 174.55C303.63 175.603 302.447 176.448 301.017 177.098L301.55 178.229C303.032 177.488 304.293 176.552 305.32 175.421L304.566 174.55ZM304.8 178.45C303.76 179.777 302.447 180.855 300.861 181.674L301.433 182.871C303.071 181.935 304.449 180.751 305.567 179.334L304.8 178.45ZM310.247 180.01L309.402 180.83C310.377 181.609 311.144 182.338 311.69 183.014L312.613 182.091C311.976 181.401 311.183 180.712 310.247 180.01ZM315.72 177.93V183.04H316.929V177.839C317.501 178.359 318.073 178.97 318.645 179.685L319.321 178.619C318.996 178.294 318.658 177.982 318.294 177.696C318.671 177.423 319.022 177.072 319.36 176.63L318.645 175.928C318.281 176.435 317.904 176.825 317.514 177.098C317.319 176.955 317.124 176.825 316.929 176.695V176.591C317.618 175.72 318.125 174.836 318.45 173.952V172.951H317.111C316.929 172.366 316.682 171.716 316.357 171.001L315.161 171.313C315.421 171.846 315.668 172.392 315.876 172.951H313.939V174.069H317.228C316.604 175.408 315.382 176.786 313.588 178.216L313.965 179.464C314.602 178.957 315.187 178.45 315.72 177.93ZM320.868 171.053V183.014H322.077V176.578C322.844 177.15 323.793 177.93 324.924 178.931L325.652 177.852C324.456 176.903 323.26 176.058 322.077 175.304V171.053H320.868ZM329.578 171.17V174.537H328.551V171.43H327.355V176.201C327.342 179.022 327.056 181.076 326.484 182.351L327.394 183.144C327.953 182.052 328.317 180.491 328.473 178.438H329.721V182.845H330.917V177.28H328.525C328.538 176.942 328.551 176.578 328.551 176.201V175.694H331.424V174.537H330.774V171.17H329.578ZM331.879 172.119V177.826H333.66C333.348 178.216 332.88 178.541 332.269 178.827L332.672 179.451H331.359V180.634H335.233V182.988H336.429V180.634H338.574V179.451H336.429V178.229H335.233V179.451H333.283C333.959 179.1 334.466 178.645 334.817 178.073C334.856 177.995 334.895 177.917 334.947 177.826H337.989V172.119H335.155C335.298 171.794 335.415 171.456 335.506 171.105L334.284 170.949C334.206 171.352 334.076 171.742 333.907 172.119H331.879ZM336.871 176.76H335.298C335.376 176.37 335.441 175.941 335.48 175.473H336.871V176.76ZM334.167 176.76H332.984V175.473H334.362C334.336 175.941 334.271 176.37 334.167 176.76ZM332.984 174.446V173.198H334.388V174.446H332.984ZM335.506 173.198H336.871V174.446H335.506V173.198Z" fill="white"/>
<rect x="19.688" y="189.688" width="390.909" height="1" fill="#55657E"/>
<path d="M114.503 199.405L113.996 204.605H115.322C115.504 204.267 115.751 204.02 116.089 203.864C116.401 203.708 116.752 203.643 117.168 203.643C117.792 203.643 118.26 203.825 118.598 204.189C118.936 204.553 119.105 205.06 119.105 205.71C119.105 206.308 118.91 206.777 118.52 207.14C118.13 207.491 117.649 207.673 117.077 207.673C116.557 207.673 116.141 207.556 115.829 207.322C115.478 207.062 115.27 206.659 115.218 206.139H113.827C113.892 206.997 114.256 207.686 114.919 208.18C115.517 208.635 116.232 208.87 117.064 208.87C117.987 208.87 118.78 208.596 119.443 208.05C120.145 207.439 120.509 206.659 120.509 205.697C120.509 204.696 120.223 203.916 119.677 203.344C119.131 202.772 118.416 202.486 117.545 202.486C117.129 202.486 116.739 202.551 116.401 202.694C116.024 202.824 115.699 203.032 115.413 203.331H115.374L115.647 200.653H120.093V199.405H114.503Z" fill="white"/>
<rect x="214.643" y="190.688" width="1" height="26" fill="#55657E"/>
<path d="M292.268 198.053L291.423 198.859C292.502 199.73 293.347 200.536 293.945 201.29L294.803 200.432C294.127 199.639 293.282 198.846 292.268 198.053ZM296.181 198.456C295.297 201.628 293.971 204.163 292.229 206.074V200.744H290.994V207.257C290.162 207.946 289.252 208.518 288.238 208.987L288.953 210.027C289.707 209.689 290.422 209.273 291.111 208.779C291.293 209.286 291.735 209.545 292.45 209.545H295.154C295.765 209.545 296.22 209.377 296.519 209.065C296.831 208.714 297.052 207.647 297.169 205.866L295.999 205.463C295.934 206.88 295.804 207.725 295.622 207.985C295.479 208.232 295.245 208.362 294.933 208.362H292.84C292.45 208.362 292.255 208.193 292.229 207.868C294.465 205.84 296.168 202.863 297.325 198.963L296.181 198.456ZM289.057 201.901C288.758 203.695 288.264 205.359 287.588 206.919L288.654 207.582C289.343 206.061 289.876 204.254 290.24 202.148L289.057 201.901ZM297.754 202.109L296.584 202.486C297.312 203.955 297.988 205.632 298.586 207.53L299.691 207.036C299.145 205.294 298.495 203.643 297.754 202.109ZM305.619 198.482V199.678H308.427C308.388 200.055 308.336 200.419 308.271 200.783H305.983V207.075H307.192V201.927H310.884V207.075H312.093V200.783H309.545C309.597 200.432 309.636 200.068 309.688 199.678H312.444V198.482H305.619ZM308.427 202.564V204.839C308.375 205.879 308.089 206.737 307.569 207.387C307.036 207.998 306.035 208.505 304.566 208.896L305.268 210.001C306.776 209.572 307.855 208.974 308.518 208.193C309.207 207.361 309.584 206.243 309.636 204.839V202.564H308.427ZM304.423 198.04C303.539 199.002 302.382 199.782 300.978 200.38L301.511 201.511C302.954 200.809 304.176 199.951 305.19 198.911L304.423 198.04ZM304.566 201.55C303.63 202.603 302.447 203.448 301.017 204.098L301.55 205.229C303.032 204.488 304.293 203.552 305.32 202.421L304.566 201.55ZM304.8 205.45C303.76 206.777 302.447 207.855 300.861 208.674L301.433 209.871C303.071 208.935 304.449 207.751 305.567 206.334L304.8 205.45ZM310.247 207.01L309.402 207.83C310.377 208.609 311.144 209.338 311.69 210.014L312.613 209.091C311.976 208.401 311.183 207.712 310.247 207.01ZM315.72 204.93V210.04H316.929V204.839C317.501 205.359 318.073 205.97 318.645 206.685L319.321 205.619C318.996 205.294 318.658 204.982 318.294 204.696C318.671 204.423 319.022 204.072 319.36 203.63L318.645 202.928C318.281 203.435 317.904 203.825 317.514 204.098C317.319 203.955 317.124 203.825 316.929 203.695V203.591C317.618 202.72 318.125 201.836 318.45 200.952V199.951H317.111C316.929 199.366 316.682 198.716 316.357 198.001L315.161 198.313C315.421 198.846 315.668 199.392 315.876 199.951H313.939V201.069H317.228C316.604 202.408 315.382 203.786 313.588 205.216L313.965 206.464C314.602 205.957 315.187 205.45 315.72 204.93ZM320.868 198.053V210.014H322.077V203.578C322.844 204.15 323.793 204.93 324.924 205.931L325.652 204.852C324.456 203.903 323.26 203.058 322.077 202.304V198.053H320.868ZM329.578 198.17V201.537H328.551V198.43H327.355V203.201C327.342 206.022 327.056 208.076 326.484 209.351L327.394 210.144C327.953 209.052 328.317 207.491 328.473 205.438H329.721V209.845H330.917V204.28H328.525C328.538 203.942 328.551 203.578 328.551 203.201V202.694H331.424V201.537H330.774V198.17H329.578ZM331.879 199.119V204.826H333.66C333.348 205.216 332.88 205.541 332.269 205.827L332.672 206.451H331.359V207.634H335.233V209.988H336.429V207.634H338.574V206.451H336.429V205.229H335.233V206.451H333.283C333.959 206.1 334.466 205.645 334.817 205.073C334.856 204.995 334.895 204.917 334.947 204.826H337.989V199.119H335.155C335.298 198.794 335.415 198.456 335.506 198.105L334.284 197.949C334.206 198.352 334.076 198.742 333.907 199.119H331.879ZM336.871 203.76H335.298C335.376 203.37 335.441 202.941 335.48 202.473H336.871V203.76ZM334.167 203.76H332.984V202.473H334.362C334.336 202.941 334.271 203.37 334.167 203.76ZM332.984 201.446V200.198H334.388V201.446H332.984ZM335.506 200.198H336.871V201.446H335.506V200.198Z" fill="white"/>
<rect x="19.688" y="216.688" width="390.909" height="1" fill="#55657E"/>
<path d="M117.298 226.223C116.232 226.223 115.374 226.691 114.75 227.64C114.126 228.576 113.827 229.798 113.827 231.306C113.827 232.723 114.113 233.828 114.685 234.621C115.283 235.453 116.141 235.87 117.285 235.87C118.195 235.87 118.975 235.557 119.599 234.959C120.21 234.361 120.522 233.594 120.522 232.671C120.522 231.761 120.249 231.007 119.716 230.422C119.17 229.85 118.442 229.564 117.532 229.564C117.038 229.564 116.609 229.655 116.245 229.85C115.842 230.045 115.517 230.344 115.257 230.76H115.205C115.192 230.682 115.192 230.63 115.192 230.591C115.192 229.681 115.374 228.94 115.751 228.343C116.128 227.705 116.635 227.393 117.285 227.393C118.221 227.393 118.78 227.835 118.975 228.745H120.353C120.119 227.055 119.092 226.223 117.298 226.223ZM117.246 230.708C117.818 230.708 118.286 230.89 118.624 231.254C118.962 231.592 119.131 232.073 119.131 232.671C119.131 233.256 118.949 233.737 118.598 234.127C118.26 234.504 117.805 234.699 117.233 234.699C116.674 234.699 116.219 234.517 115.881 234.153C115.53 233.789 115.361 233.308 115.361 232.71C115.361 232.099 115.53 231.618 115.868 231.254C116.206 230.89 116.661 230.708 117.246 230.708Z" fill="white"/>
<rect x="214.643" y="217.688" width="1" height="26" fill="#55657E"/>
<path d="M294.53 225.625V226.834H300.12C298.976 229.123 296.974 231.072 294.127 232.684L294.946 233.763C296.779 232.671 298.287 231.423 299.483 230.032V237.053H300.757V228.264C301.03 227.809 301.277 227.328 301.511 226.834H305.71V225.625H294.53ZM302.395 229.161L301.511 230.019C303.058 231.293 304.254 232.476 305.112 233.581L306.087 232.606C305.086 231.462 303.851 230.305 302.395 229.161ZM309.22 231.93V237.04H310.429V231.839C311.001 232.359 311.573 232.97 312.145 233.685L312.821 232.619C312.496 232.294 312.158 231.982 311.794 231.696C312.171 231.423 312.522 231.072 312.86 230.63L312.145 229.928C311.781 230.435 311.404 230.825 311.014 231.098C310.819 230.955 310.624 230.825 310.429 230.695V230.591C311.118 229.72 311.625 228.836 311.95 227.952V226.951H310.611C310.429 226.366 310.182 225.716 309.857 225.001L308.661 225.313C308.921 225.846 309.168 226.392 309.376 226.951H307.439V228.069H310.728C310.104 229.408 308.882 230.786 307.088 232.216L307.465 233.464C308.102 232.957 308.687 232.45 309.22 231.93ZM314.368 225.053V237.014H315.577V230.578C316.344 231.15 317.293 231.93 318.424 232.931L319.152 231.852C317.956 230.903 316.76 230.058 315.577 229.304V225.053H314.368ZM323.078 225.17V228.537H322.051V225.43H320.855V230.201C320.842 233.022 320.556 235.076 319.984 236.351L320.894 237.144C321.453 236.052 321.817 234.491 321.973 232.438H323.221V236.845H324.417V231.28H322.025C322.038 230.942 322.051 230.578 322.051 230.201V229.694H324.924V228.537H324.274V225.17H323.078ZM325.379 226.119V231.826H327.16C326.848 232.216 326.38 232.541 325.769 232.827L326.172 233.451H324.859V234.634H328.733V236.988H329.929V234.634H332.074V233.451H329.929V232.229H328.733V233.451H326.783C327.459 233.1 327.966 232.645 328.317 232.073C328.356 231.995 328.395 231.917 328.447 231.826H331.489V226.119H328.655C328.798 225.794 328.915 225.456 329.006 225.105L327.784 224.949C327.706 225.352 327.576 225.742 327.407 226.119H325.379ZM330.371 230.76H328.798C328.876 230.37 328.941 229.941 328.98 229.473H330.371V230.76ZM327.667 230.76H326.484V229.473H327.862C327.836 229.941 327.771 230.37 327.667 230.76ZM326.484 228.446V227.198H327.888V228.446H326.484ZM329.006 227.198H330.371V228.446H329.006V227.198Z" fill="white"/>
<rect x="19.688" y="243.688" width="390.909" height="1" fill="#55657E"/>
<path d="M113.988 253.405V254.692H118.798L115.431 262.688H116.939L120.228 254.549V253.405H113.988Z" fill="white"/>
<rect x="214.643" y="244.688" width="1" height="26" fill="#55657E"/>
<path d="M294.53 252.625V253.834H300.12C298.976 256.123 296.974 258.072 294.127 259.684L294.946 260.763C296.779 259.671 298.287 258.423 299.483 257.032V264.053H300.757V255.264C301.03 254.809 301.277 254.328 301.511 253.834H305.71V252.625H294.53ZM302.395 256.161L301.511 257.019C303.058 258.293 304.254 259.476 305.112 260.581L306.087 259.606C305.086 258.462 303.851 257.305 302.395 256.161ZM309.22 258.93V264.04H310.429V258.839C311.001 259.359 311.573 259.97 312.145 260.685L312.821 259.619C312.496 259.294 312.158 258.982 311.794 258.696C312.171 258.423 312.522 258.072 312.86 257.63L312.145 256.928C311.781 257.435 311.404 257.825 311.014 258.098C310.819 257.955 310.624 257.825 310.429 257.695V257.591C311.118 256.72 311.625 255.836 311.95 254.952V253.951H310.611C310.429 253.366 310.182 252.716 309.857 252.001L308.661 252.313C308.921 252.846 309.168 253.392 309.376 253.951H307.439V255.069H310.728C310.104 256.408 308.882 257.786 307.088 259.216L307.465 260.464C308.102 259.957 308.687 259.45 309.22 258.93ZM314.368 252.053V264.014H315.577V257.578C316.344 258.15 317.293 258.93 318.424 259.931L319.152 258.852C317.956 257.903 316.76 257.058 315.577 256.304V252.053H314.368ZM323.078 252.17V255.537H322.051V252.43H320.855V257.201C320.842 260.022 320.556 262.076 319.984 263.351L320.894 264.144C321.453 263.052 321.817 261.491 321.973 259.438H323.221V263.845H324.417V258.28H322.025C322.038 257.942 322.051 257.578 322.051 257.201V256.694H324.924V255.537H324.274V252.17H323.078ZM325.379 253.119V258.826H327.16C326.848 259.216 326.38 259.541 325.769 259.827L326.172 260.451H324.859V261.634H328.733V263.988H329.929V261.634H332.074V260.451H329.929V259.229H328.733V260.451H326.783C327.459 260.1 327.966 259.645 328.317 259.073C328.356 258.995 328.395 258.917 328.447 258.826H331.489V253.119H328.655C328.798 252.794 328.915 252.456 329.006 252.105L327.784 251.949C327.706 252.352 327.576 252.742 327.407 253.119H325.379ZM330.371 257.76H328.798C328.876 257.37 328.941 256.941 328.98 256.473H330.371V257.76ZM327.667 257.76H326.484V256.473H327.862C327.836 256.941 327.771 257.37 327.667 257.76ZM326.484 255.446V254.198H327.888V255.446H326.484ZM329.006 254.198H330.371V255.446H329.006V254.198Z" fill="white"/>
<rect x="19.688" y="270.688" width="390.909" height="1" fill="#55657E"/>
<path d="M117.168 280.223C116.18 280.223 115.387 280.483 114.815 281.003C114.295 281.471 114.035 282.056 114.035 282.745C114.035 283.226 114.139 283.629 114.347 283.954C114.581 284.305 114.932 284.565 115.4 284.747V284.786C114.945 284.89 114.568 285.15 114.256 285.566C113.892 286.008 113.71 286.515 113.71 287.1C113.71 287.919 114.009 288.582 114.607 289.102C115.205 289.609 116.063 289.87 117.168 289.87C118.26 289.87 119.118 289.609 119.729 289.102C120.327 288.582 120.626 287.919 120.626 287.1C120.626 286.515 120.444 286.008 120.08 285.566C119.768 285.15 119.378 284.89 118.936 284.786V284.747C119.404 284.565 119.755 284.305 119.989 283.954C120.197 283.629 120.301 283.226 120.301 282.745C120.301 282.056 120.041 281.471 119.521 281.003C118.936 280.483 118.156 280.223 117.168 280.223ZM117.168 281.354C117.74 281.354 118.195 281.497 118.533 281.809C118.819 282.069 118.975 282.407 118.975 282.797C118.975 283.239 118.845 283.59 118.611 283.85C118.299 284.162 117.818 284.318 117.168 284.318C116.505 284.318 116.024 284.162 115.725 283.85C115.478 283.59 115.361 283.239 115.361 282.797C115.361 282.407 115.504 282.069 115.803 281.809C116.141 281.497 116.596 281.354 117.168 281.354ZM117.168 285.371C117.844 285.371 118.351 285.54 118.715 285.878C119.053 286.177 119.222 286.58 119.222 287.1C119.222 287.581 119.053 287.972 118.715 288.27C118.338 288.569 117.818 288.725 117.168 288.725C116.505 288.725 115.998 288.569 115.647 288.27C115.283 287.972 115.114 287.581 115.114 287.1C115.114 286.58 115.283 286.177 115.634 285.866C115.972 285.527 116.492 285.371 117.168 285.371Z" fill="white"/>
<rect x="214.643" y="271.688" width="1" height="26" fill="#55657E"/>
<path d="M229.608 283.525V284.708H233.963C233.755 285.462 233.508 286.086 233.209 286.593C232.403 287.945 231.051 289.102 229.153 290.091L229.933 291.105C232.013 289.974 233.495 288.634 234.366 287.087C234.652 286.593 234.886 285.982 235.094 285.254C236.056 287.763 237.798 289.714 240.333 291.092L241.1 290.091C238.643 288.83 236.966 287.035 236.056 284.708H240.671V283.525H235.471C235.601 282.719 235.705 281.822 235.77 280.834H240.294V279.651H229.946V280.834H234.522C234.47 281.809 234.366 282.706 234.223 283.525H229.608ZM244.87 282.511H247.73V285.202H244.012V286.398H247.73V289.362H242.439V290.585H253.97V289.362H248.965V286.398H252.878V285.202H248.965V282.511H253.138V281.315H248.965V279.131H247.73V281.315H245.312C245.468 280.795 245.611 280.236 245.741 279.638L244.48 279.417C244.064 281.51 243.271 283.174 242.101 284.409L242.907 285.436C243.7 284.656 244.35 283.681 244.87 282.511ZM262.706 284.955H259.352V288.816H260.223V285.866H261.848V288.842H262.706V284.955ZM261.055 289.518C261.38 289.857 261.653 290.195 261.861 290.52L262.498 289.883C262.173 289.479 261.77 289.076 261.302 288.686C261.367 288.322 261.406 287.932 261.432 287.503V286.385H260.626V287.503C260.6 288.179 260.496 288.738 260.301 289.154C260.08 289.544 259.69 289.883 259.118 290.143L259.612 290.923C260.236 290.637 260.691 290.247 260.964 289.727C260.99 289.661 261.029 289.596 261.055 289.518ZM255.335 279.755V280.613H256.401V281.952H266.073V281.107H257.532V280.613H266.905V279.755H261.731C261.627 279.443 261.536 279.157 261.432 278.897L260.197 279.105C260.327 279.3 260.444 279.521 260.561 279.755H255.335ZM256.765 282.407V284.461H265.436V282.407H256.765ZM264.24 283.681H257.961V283.174H264.24V283.681ZM256.804 287.412H257.961V288.166H256.752C256.778 287.932 256.791 287.672 256.804 287.412ZM257.961 286.645H256.817V285.891H257.961V286.645ZM256.648 288.933H257.961V289.727C257.961 289.987 257.831 290.13 257.571 290.13C257.428 290.13 257.272 290.116 257.116 290.091L257.376 290.988H257.87C258.559 290.988 258.91 290.676 258.91 290.065V284.981H255.855V287.23C255.842 288.504 255.582 289.544 255.075 290.377L255.829 291.066C256.206 290.468 256.479 289.766 256.648 288.933ZM266.398 290.858C266.671 290.858 266.866 290.754 266.97 290.545C267.074 290.325 267.152 289.766 267.23 288.881L266.463 288.608C266.437 289.297 266.411 289.701 266.385 289.805C266.346 289.922 266.307 289.987 266.255 289.987H266.216C266.086 289.987 266.034 289.909 266.034 289.779V284.968H263.187V287.165C263.187 288.088 263.122 288.751 263.005 289.167C262.888 289.557 262.641 289.974 262.251 290.416L263.005 291.079C263.46 290.494 263.759 289.935 263.902 289.414C264.006 288.946 264.071 288.27 264.084 287.399C264.253 287.828 264.409 288.322 264.552 288.868L265.124 288.608V290.065C265.124 290.585 265.371 290.858 265.891 290.858H266.398ZM264.084 287.152V285.917H265.124V288.426C264.968 287.919 264.799 287.438 264.604 286.983L264.084 287.152ZM276.109 286.06C276.733 287.802 277.734 289.259 279.112 290.416L279.996 289.388C278.67 288.452 277.695 287.23 277.097 285.709C277.864 285.397 278.579 285.033 279.255 284.604L278.423 283.772C277.383 284.435 276.291 284.929 275.147 285.267C274.887 284.799 274.575 284.357 274.198 283.941C274.484 283.759 274.783 283.564 275.095 283.356H277.981V282.212H270.259V283.356H273.171C272.885 283.499 272.586 283.629 272.274 283.759C271.234 284.188 270.116 284.526 268.92 284.773L269.544 285.8C271.078 285.345 272.274 284.916 273.119 284.513C273.158 284.487 273.197 284.474 273.249 284.448C273.379 284.604 273.496 284.76 273.626 284.929C272.443 285.774 270.792 286.463 268.673 287.009L269.284 288.075C271.299 287.49 272.924 286.749 274.146 285.839C274.25 286.073 274.354 286.333 274.432 286.593C273.015 287.711 271.039 288.634 268.504 289.349L269.128 290.403C271.39 289.701 273.236 288.83 274.64 287.777C274.64 287.893 274.653 288.023 274.653 288.153C274.653 288.881 274.536 289.362 274.328 289.622C274.146 289.818 273.691 289.922 272.963 289.922H272.3L272.716 291.014H273.132C274.315 291.014 275.069 290.78 275.407 290.312C275.693 289.922 275.849 289.193 275.849 288.153C275.836 287.451 275.732 286.801 275.537 286.203C275.719 286.151 275.914 286.112 276.109 286.06ZM274.419 278.936L273.158 279.157C273.301 279.43 273.444 279.729 273.574 280.067H268.543V282.485H269.778V281.211H278.462V282.485H279.697V280.067H274.822C274.692 279.651 274.562 279.274 274.419 278.936ZM283.116 287.828C282.804 287.828 282.557 287.906 282.375 288.088C282.18 288.27 282.089 288.504 282.089 288.803C282.089 289.076 282.18 289.31 282.362 289.492C282.544 289.674 282.765 289.766 283.038 289.766C283.168 289.766 283.272 289.753 283.35 289.727C283.35 290.039 283.246 290.338 283.025 290.637C282.791 290.923 282.492 291.118 282.141 291.248V292.054C282.791 291.872 283.311 291.534 283.701 291.04C284.091 290.545 284.286 289.974 284.286 289.31C284.286 288.868 284.169 288.517 283.961 288.231C283.727 287.958 283.454 287.828 283.116 287.828ZM294.53 279.625V280.834H300.12C298.976 283.123 296.974 285.072 294.127 286.684L294.946 287.763C296.779 286.671 298.287 285.423 299.483 284.032V291.053H300.757V282.264C301.03 281.809 301.277 281.328 301.511 280.834H305.71V279.625H294.53ZM302.395 283.161L301.511 284.019C303.058 285.293 304.254 286.476 305.112 287.581L306.087 286.606C305.086 285.462 303.851 284.305 302.395 283.161ZM309.22 285.93V291.04H310.429V285.839C311.001 286.359 311.573 286.97 312.145 287.685L312.821 286.619C312.496 286.294 312.158 285.982 311.794 285.696C312.171 285.423 312.522 285.072 312.86 284.63L312.145 283.928C311.781 284.435 311.404 284.825 311.014 285.098C310.819 284.955 310.624 284.825 310.429 284.695V284.591C311.118 283.72 311.625 282.836 311.95 281.952V280.951H310.611C310.429 280.366 310.182 279.716 309.857 279.001L308.661 279.313C308.921 279.846 309.168 280.392 309.376 280.951H307.439V282.069H310.728C310.104 283.408 308.882 284.786 307.088 286.216L307.465 287.464C308.102 286.957 308.687 286.45 309.22 285.93ZM314.368 279.053V291.014H315.577V284.578C316.344 285.15 317.293 285.93 318.424 286.931L319.152 285.852C317.956 284.903 316.76 284.058 315.577 283.304V279.053H314.368ZM323.078 279.17V282.537H322.051V279.43H320.855V284.201C320.842 287.022 320.556 289.076 319.984 290.351L320.894 291.144C321.453 290.052 321.817 288.491 321.973 286.438H323.221V290.845H324.417V285.28H322.025C322.038 284.942 322.051 284.578 322.051 284.201V283.694H324.924V282.537H324.274V279.17H323.078ZM325.379 280.119V285.826H327.16C326.848 286.216 326.38 286.541 325.769 286.827L326.172 287.451H324.859V288.634H328.733V290.988H329.929V288.634H332.074V287.451H329.929V286.229H328.733V287.451H326.783C327.459 287.1 327.966 286.645 328.317 286.073C328.356 285.995 328.395 285.917 328.447 285.826H331.489V280.119H328.655C328.798 279.794 328.915 279.456 329.006 279.105L327.784 278.949C327.706 279.352 327.576 279.742 327.407 280.119H325.379ZM330.371 284.76H328.798C328.876 284.37 328.941 283.941 328.98 283.473H330.371V284.76ZM327.667 284.76H326.484V283.473H327.862C327.836 283.941 327.771 284.37 327.667 284.76ZM326.484 282.446V281.198H327.888V282.446H326.484ZM329.006 281.198H330.371V282.446H329.006V281.198ZM335.116 287.828C334.804 287.828 334.557 287.906 334.375 288.088C334.18 288.27 334.089 288.504 334.089 288.803C334.089 289.076 334.18 289.31 334.362 289.492C334.544 289.674 334.765 289.766 335.038 289.766C335.168 289.766 335.272 289.753 335.35 289.727C335.35 290.039 335.246 290.338 335.025 290.637C334.791 290.923 334.492 291.118 334.141 291.248V292.054C334.791 291.872 335.311 291.534 335.701 291.04C336.091 290.545 336.286 289.974 336.286 289.31C336.286 288.868 336.169 288.517 335.961 288.231C335.727 287.958 335.454 287.828 335.116 287.828ZM347.973 283.109H350.703V284.617H347.973V283.109ZM350.703 282.004H347.973V280.574H350.703V282.004ZM346.66 290.663C348.35 290.247 349.871 289.766 351.197 289.206C351.405 289.622 351.6 290.013 351.782 290.403L352.744 289.727C352.315 288.816 351.704 287.737 350.898 286.502L349.962 287.1C350.183 287.464 350.404 287.815 350.625 288.179C349.845 288.491 348.961 288.79 347.973 289.076V285.761H351.847V279.469H346.764V288.842C346.764 289.141 346.582 289.349 346.231 289.479L346.66 290.663ZM356.28 289.245C357.19 289.245 357.658 288.777 357.658 287.841V279.482H353.199V290.988H354.434V280.639H356.423V287.568C356.423 287.906 356.241 288.088 355.877 288.088L354.915 288.049L355.24 289.245H356.28ZM361.272 282.784V283.954H364.574V289.206L364.457 289.18C363.547 288.894 362.78 288.231 362.169 287.217C362.39 286.567 362.585 285.852 362.741 285.098L361.545 284.89C361.129 287.022 360.297 288.738 359.075 290.013L359.881 291.001C360.609 290.273 361.22 289.388 361.714 288.348C362.234 289.102 362.91 289.674 363.742 290.065C364.912 290.559 366.875 290.806 369.605 290.806H370.827L371.061 289.583C370.385 289.635 369.709 289.674 369.059 289.674C367.759 289.661 366.68 289.596 365.796 289.466V287.074H369.54V285.904H365.796V283.954H368.994V282.784H361.272ZM370.567 280.249H365.822C365.653 279.755 365.471 279.313 365.289 278.91L363.963 279.118C364.171 279.456 364.379 279.833 364.561 280.249H359.673V283.265H360.882V281.393H369.358V283.2H370.567V280.249ZM373.947 283.655H375.481V285.54H373.947V283.655ZM375.481 282.537H373.947V280.574H375.481V282.537ZM373.921 286.671H375.481V289.557C375.481 289.831 375.325 289.974 375.039 289.974C374.779 289.974 374.519 289.948 374.233 289.922L374.519 290.988H375.377C376.196 290.988 376.612 290.637 376.612 289.948V279.482H372.842V285.878C372.816 287.646 372.569 289.089 372.088 290.234L372.985 291.04C373.531 289.896 373.843 288.439 373.921 286.671ZM378.601 282.525H380.122V285.358H377.535V286.502H380.122V289.427H377.041V290.585H384.074V289.427H381.331V286.502H383.671V285.358H381.331V282.525H383.697V281.38H381.331V279.04H380.122V281.38H378.848C378.926 280.899 378.965 280.405 378.991 279.885L377.886 279.755C377.808 281.367 377.405 282.824 376.69 284.149L377.587 284.942C378.016 284.188 378.354 283.382 378.601 282.525ZM395.657 282.303H392.992C393.382 281.926 393.772 281.471 394.175 280.951V280.041H390.028C390.184 279.807 390.353 279.56 390.509 279.3L389.3 279.04C388.234 280.626 386.947 281.861 385.465 282.745L386.258 283.681C386.557 283.473 386.869 283.265 387.181 283.031V288.465H388.39V283.46H394.448V288.335H395.657V282.303ZM391.562 282.303H388.052C388.442 281.939 388.819 281.549 389.183 281.133H392.654C392.29 281.575 391.926 281.965 391.562 282.303ZM392.199 287.88L391.588 288.79C393.161 289.336 394.695 290.104 396.177 291.079L396.866 290.026C395.462 289.18 393.902 288.465 392.199 287.88ZM390.782 284.019V285.852C390.717 286.918 390.353 287.777 389.69 288.439C389.014 289.063 387.727 289.57 385.855 289.987L386.518 291.04C388.39 290.611 389.755 290.013 390.587 289.232C391.445 288.387 391.9 287.256 391.978 285.852V284.019H390.782Z" fill="white"/>
<rect x="19.688" y="297.688" width="390.909" height="1" fill="#55657E"/>
<path d="M117.064 307.223C116.141 307.223 115.374 307.522 114.75 308.133C114.126 308.731 113.827 309.485 113.827 310.421C113.827 311.331 114.087 312.072 114.62 312.644C115.166 313.229 115.907 313.528 116.817 313.528C117.298 313.528 117.727 313.424 118.104 313.242C118.494 313.034 118.832 312.735 119.092 312.332H119.144C119.144 312.397 119.157 312.449 119.157 312.501C119.157 313.398 118.962 314.152 118.598 314.75C118.208 315.374 117.701 315.699 117.064 315.699C116.128 315.699 115.556 315.244 115.374 314.347H113.996C114.23 316.024 115.244 316.87 117.051 316.87C118.117 316.87 118.962 316.388 119.599 315.452C120.21 314.516 120.522 313.294 120.522 311.786C120.522 310.356 120.223 309.251 119.651 308.458C119.053 307.626 118.195 307.223 117.064 307.223ZM117.116 308.393C117.662 308.393 118.117 308.575 118.468 308.939C118.806 309.29 118.988 309.771 118.988 310.382C118.988 310.98 118.819 311.474 118.481 311.838C118.143 312.202 117.675 312.384 117.103 312.384C116.518 312.384 116.063 312.202 115.738 311.838C115.387 311.487 115.218 311.019 115.218 310.421C115.218 309.824 115.387 309.343 115.738 308.965C116.076 308.575 116.544 308.393 117.116 308.393Z" fill="white"/>
<rect x="214.643" y="298.688" width="1" height="26" fill="#55657E"/>
<path d="M229.608 310.525V311.708H233.963C233.755 312.462 233.508 313.086 233.209 313.593C232.403 314.945 231.051 316.102 229.153 317.091L229.933 318.105C232.013 316.974 233.495 315.634 234.366 314.087C234.652 313.593 234.886 312.982 235.094 312.254C236.056 314.763 237.798 316.714 240.333 318.092L241.1 317.091C238.643 315.83 236.966 314.035 236.056 311.708H240.671V310.525H235.471C235.601 309.719 235.705 308.822 235.77 307.834H240.294V306.651H229.946V307.834H234.522C234.47 308.809 234.366 309.706 234.223 310.525H229.608ZM244.87 309.511H247.73V312.202H244.012V313.398H247.73V316.362H242.439V317.585H253.97V316.362H248.965V313.398H252.878V312.202H248.965V309.511H253.138V308.315H248.965V306.131H247.73V308.315H245.312C245.468 307.795 245.611 307.236 245.741 306.638L244.48 306.417C244.064 308.51 243.271 310.174 242.101 311.409L242.907 312.436C243.7 311.656 244.35 310.681 244.87 309.511ZM262.706 311.955H259.352V315.816H260.223V312.866H261.848V315.842H262.706V311.955ZM261.055 316.518C261.38 316.857 261.653 317.195 261.861 317.52L262.498 316.883C262.173 316.479 261.77 316.076 261.302 315.686C261.367 315.322 261.406 314.932 261.432 314.503V313.385H260.626V314.503C260.6 315.179 260.496 315.738 260.301 316.154C260.08 316.544 259.69 316.883 259.118 317.143L259.612 317.923C260.236 317.637 260.691 317.247 260.964 316.727C260.99 316.661 261.029 316.596 261.055 316.518ZM255.335 306.755V307.613H256.401V308.952H266.073V308.107H257.532V307.613H266.905V306.755H261.731C261.627 306.443 261.536 306.157 261.432 305.897L260.197 306.105C260.327 306.3 260.444 306.521 260.561 306.755H255.335ZM256.765 309.407V311.461H265.436V309.407H256.765ZM264.24 310.681H257.961V310.174H264.24V310.681ZM256.804 314.412H257.961V315.166H256.752C256.778 314.932 256.791 314.672 256.804 314.412ZM257.961 313.645H256.817V312.891H257.961V313.645ZM256.648 315.933H257.961V316.727C257.961 316.987 257.831 317.13 257.571 317.13C257.428 317.13 257.272 317.116 257.116 317.091L257.376 317.988H257.87C258.559 317.988 258.91 317.676 258.91 317.065V311.981H255.855V314.23C255.842 315.504 255.582 316.544 255.075 317.377L255.829 318.066C256.206 317.468 256.479 316.766 256.648 315.933ZM266.398 317.858C266.671 317.858 266.866 317.754 266.97 317.545C267.074 317.325 267.152 316.766 267.23 315.881L266.463 315.608C266.437 316.297 266.411 316.701 266.385 316.805C266.346 316.922 266.307 316.987 266.255 316.987H266.216C266.086 316.987 266.034 316.909 266.034 316.779V311.968H263.187V314.165C263.187 315.088 263.122 315.751 263.005 316.167C262.888 316.557 262.641 316.974 262.251 317.416L263.005 318.079C263.46 317.494 263.759 316.935 263.902 316.414C264.006 315.946 264.071 315.27 264.084 314.399C264.253 314.828 264.409 315.322 264.552 315.868L265.124 315.608V317.065C265.124 317.585 265.371 317.858 265.891 317.858H266.398ZM264.084 314.152V312.917H265.124V315.426C264.968 314.919 264.799 314.438 264.604 313.983L264.084 314.152ZM276.109 313.06C276.733 314.802 277.734 316.259 279.112 317.416L279.996 316.388C278.67 315.452 277.695 314.23 277.097 312.709C277.864 312.397 278.579 312.033 279.255 311.604L278.423 310.772C277.383 311.435 276.291 311.929 275.147 312.267C274.887 311.799 274.575 311.357 274.198 310.941C274.484 310.759 274.783 310.564 275.095 310.356H277.981V309.212H270.259V310.356H273.171C272.885 310.499 272.586 310.629 272.274 310.759C271.234 311.188 270.116 311.526 268.92 311.773L269.544 312.8C271.078 312.345 272.274 311.916 273.119 311.513C273.158 311.487 273.197 311.474 273.249 311.448C273.379 311.604 273.496 311.76 273.626 311.929C272.443 312.774 270.792 313.463 268.673 314.009L269.284 315.075C271.299 314.49 272.924 313.749 274.146 312.839C274.25 313.073 274.354 313.333 274.432 313.593C273.015 314.711 271.039 315.634 268.504 316.349L269.128 317.403C271.39 316.701 273.236 315.83 274.64 314.777C274.64 314.893 274.653 315.023 274.653 315.153C274.653 315.881 274.536 316.362 274.328 316.622C274.146 316.818 273.691 316.922 272.963 316.922H272.3L272.716 318.014H273.132C274.315 318.014 275.069 317.78 275.407 317.312C275.693 316.922 275.849 316.193 275.849 315.153C275.836 314.451 275.732 313.801 275.537 313.203C275.719 313.151 275.914 313.112 276.109 313.06ZM274.419 305.936L273.158 306.157C273.301 306.43 273.444 306.729 273.574 307.067H268.543V309.485H269.778V308.211H278.462V309.485H279.697V307.067H274.822C274.692 306.651 274.562 306.274 274.419 305.936ZM283.116 314.828C282.804 314.828 282.557 314.906 282.375 315.088C282.18 315.27 282.089 315.504 282.089 315.803C282.089 316.076 282.18 316.31 282.362 316.492C282.544 316.674 282.765 316.766 283.038 316.766C283.168 316.766 283.272 316.753 283.35 316.727C283.35 317.039 283.246 317.338 283.025 317.637C282.791 317.923 282.492 318.118 282.141 318.248V319.054C282.791 318.872 283.311 318.534 283.701 318.04C284.091 317.545 284.286 316.974 284.286 316.31C284.286 315.868 284.169 315.517 283.961 315.231C283.727 314.958 283.454 314.828 283.116 314.828ZM294.53 306.625V307.834H300.12C298.976 310.123 296.974 312.072 294.127 313.684L294.946 314.763C296.779 313.671 298.287 312.423 299.483 311.032V318.053H300.757V309.264C301.03 308.809 301.277 308.328 301.511 307.834H305.71V306.625H294.53ZM302.395 310.161L301.511 311.019C303.058 312.293 304.254 313.476 305.112 314.581L306.087 313.606C305.086 312.462 303.851 311.305 302.395 310.161ZM309.22 312.93V318.04H310.429V312.839C311.001 313.359 311.573 313.97 312.145 314.685L312.821 313.619C312.496 313.294 312.158 312.982 311.794 312.696C312.171 312.423 312.522 312.072 312.86 311.63L312.145 310.928C311.781 311.435 311.404 311.825 311.014 312.098C310.819 311.955 310.624 311.825 310.429 311.695V311.591C311.118 310.72 311.625 309.836 311.95 308.952V307.951H310.611C310.429 307.366 310.182 306.716 309.857 306.001L308.661 306.313C308.921 306.846 309.168 307.392 309.376 307.951H307.439V309.069H310.728C310.104 310.408 308.882 311.786 307.088 313.216L307.465 314.464C308.102 313.957 308.687 313.45 309.22 312.93ZM314.368 306.053V318.014H315.577V311.578C316.344 312.15 317.293 312.93 318.424 313.931L319.152 312.852C317.956 311.903 316.76 311.058 315.577 310.304V306.053H314.368ZM323.078 306.17V309.537H322.051V306.43H320.855V311.201C320.842 314.022 320.556 316.076 319.984 317.351L320.894 318.144C321.453 317.052 321.817 315.491 321.973 313.438H323.221V317.845H324.417V312.28H322.025C322.038 311.942 322.051 311.578 322.051 311.201V310.694H324.924V309.537H324.274V306.17H323.078ZM325.379 307.119V312.826H327.16C326.848 313.216 326.38 313.541 325.769 313.827L326.172 314.451H324.859V315.634H328.733V317.988H329.929V315.634H332.074V314.451H329.929V313.229H328.733V314.451H326.783C327.459 314.1 327.966 313.645 328.317 313.073C328.356 312.995 328.395 312.917 328.447 312.826H331.489V307.119H328.655C328.798 306.794 328.915 306.456 329.006 306.105L327.784 305.949C327.706 306.352 327.576 306.742 327.407 307.119H325.379ZM330.371 311.76H328.798C328.876 311.37 328.941 310.941 328.98 310.473H330.371V311.76ZM327.667 311.76H326.484V310.473H327.862C327.836 310.941 327.771 311.37 327.667 311.76ZM326.484 309.446V308.198H327.888V309.446H326.484ZM329.006 308.198H330.371V309.446H329.006V308.198ZM335.116 314.828C334.804 314.828 334.557 314.906 334.375 315.088C334.18 315.27 334.089 315.504 334.089 315.803C334.089 316.076 334.18 316.31 334.362 316.492C334.544 316.674 334.765 316.766 335.038 316.766C335.168 316.766 335.272 316.753 335.35 316.727C335.35 317.039 335.246 317.338 335.025 317.637C334.791 317.923 334.492 318.118 334.141 318.248V319.054C334.791 318.872 335.311 318.534 335.701 318.04C336.091 317.545 336.286 316.974 336.286 316.31C336.286 315.868 336.169 315.517 335.961 315.231C335.727 314.958 335.454 314.828 335.116 314.828ZM347.973 310.109H350.703V311.617H347.973V310.109ZM350.703 309.004H347.973V307.574H350.703V309.004ZM346.66 317.663C348.35 317.247 349.871 316.766 351.197 316.206C351.405 316.622 351.6 317.013 351.782 317.403L352.744 316.727C352.315 315.816 351.704 314.737 350.898 313.502L349.962 314.1C350.183 314.464 350.404 314.815 350.625 315.179C349.845 315.491 348.961 315.79 347.973 316.076V312.761H351.847V306.469H346.764V315.842C346.764 316.141 346.582 316.349 346.231 316.479L346.66 317.663ZM356.28 316.245C357.19 316.245 357.658 315.777 357.658 314.841V306.482H353.199V317.988H354.434V307.639H356.423V314.568C356.423 314.906 356.241 315.088 355.877 315.088L354.915 315.049L355.24 316.245H356.28ZM361.272 309.784V310.954H364.574V316.206L364.457 316.18C363.547 315.894 362.78 315.231 362.169 314.217C362.39 313.567 362.585 312.852 362.741 312.098L361.545 311.89C361.129 314.022 360.297 315.738 359.075 317.013L359.881 318.001C360.609 317.273 361.22 316.388 361.714 315.348C362.234 316.102 362.91 316.674 363.742 317.065C364.912 317.559 366.875 317.806 369.605 317.806H370.827L371.061 316.583C370.385 316.635 369.709 316.674 369.059 316.674C367.759 316.661 366.68 316.596 365.796 316.466V314.074H369.54V312.904H365.796V310.954H368.994V309.784H361.272ZM370.567 307.249H365.822C365.653 306.755 365.471 306.313 365.289 305.91L363.963 306.118C364.171 306.456 364.379 306.833 364.561 307.249H359.673V310.265H360.882V308.393H369.358V310.2H370.567V307.249ZM373.947 310.655H375.481V312.54H373.947V310.655ZM375.481 309.537H373.947V307.574H375.481V309.537ZM373.921 313.671H375.481V316.557C375.481 316.831 375.325 316.974 375.039 316.974C374.779 316.974 374.519 316.948 374.233 316.922L374.519 317.988H375.377C376.196 317.988 376.612 317.637 376.612 316.948V306.482H372.842V312.878C372.816 314.646 372.569 316.089 372.088 317.234L372.985 318.04C373.531 316.896 373.843 315.439 373.921 313.671ZM378.601 309.525H380.122V312.358H377.535V313.502H380.122V316.427H377.041V317.585H384.074V316.427H381.331V313.502H383.671V312.358H381.331V309.525H383.697V308.38H381.331V306.04H380.122V308.38H378.848C378.926 307.899 378.965 307.405 378.991 306.885L377.886 306.755C377.808 308.367 377.405 309.824 376.69 311.149L377.587 311.942C378.016 311.188 378.354 310.382 378.601 309.525ZM395.657 309.303H392.992C393.382 308.926 393.772 308.471 394.175 307.951V307.041H390.028C390.184 306.807 390.353 306.56 390.509 306.3L389.3 306.04C388.234 307.626 386.947 308.861 385.465 309.745L386.258 310.681C386.557 310.473 386.869 310.265 387.181 310.031V315.465H388.39V310.46H394.448V315.335H395.657V309.303ZM391.562 309.303H388.052C388.442 308.939 388.819 308.549 389.183 308.133H392.654C392.29 308.575 391.926 308.965 391.562 309.303ZM392.199 314.88L391.588 315.79C393.161 316.336 394.695 317.104 396.177 318.079L396.866 317.026C395.462 316.18 393.902 315.465 392.199 314.88ZM390.782 311.019V312.852C390.717 313.918 390.353 314.777 389.69 315.439C389.014 316.063 387.727 316.57 385.855 316.987L386.518 318.04C388.39 317.611 389.755 317.013 390.587 316.232C391.445 315.387 391.9 314.256 391.978 312.852V311.019H390.782Z" fill="white"/>
</g>
<rect x="20.188" y="30.1875" width="389.909" height="294" rx="8.5" stroke="#55657E"/>
<defs>
<linearGradient id="paint0_linear_507_17563" x1="0" y1="26" x2="0" y2="0" gradientUnits="userSpaceOnUse">
<stop stop-color="#F04E23"/>
<stop offset="1" stop-color="#FC8A3E"/>
</linearGradient>
<clipPath id="clip0_507_17563">
<rect x="19.688" y="29.6875" width="390.909" height="295" rx="9" fill="white"/>
</clipPath>
</defs>
</svg>
