<svg width="14" height="14" viewBox="0 0 14 14" fill="none" xmlns="http://www.w3.org/2000/svg">
<path d="M12.5065 10.4146L7.70858 5.62068C7.5497 5.4507 7.46309 5.22563 7.46701 4.993C7.47094 4.76036 7.5651 4.53835 7.72963 4.37383C7.89415 4.20931 8.11616 4.11515 8.34879 4.11122C8.58143 4.10729 8.80649 4.19391 8.97647 4.35278L13.7744 9.14972C13.9261 9.32092 14.0066 9.54359 13.9996 9.7722C13.9925 10.0008 13.8984 10.2181 13.7365 10.3796C13.5746 10.5412 13.3571 10.6347 13.1285 10.6412C12.8998 10.6478 12.6774 10.5667 12.5065 10.4146ZM8.14858 10.3414L4.90017 7.09203V9.67292C4.9042 9.79317 4.88398 9.91301 4.84074 10.0253C4.79749 10.1376 4.7321 10.24 4.64845 10.3265C4.5648 10.413 4.46461 10.4818 4.35383 10.5288C4.24305 10.5757 4.12395 10.5999 4.00363 10.5999C3.8833 10.5999 3.76421 10.5757 3.65343 10.5288C3.54265 10.4818 3.44246 10.413 3.35881 10.3265C3.27516 10.24 3.20977 10.1376 3.16652 10.0253C3.12328 9.91301 3.10306 9.79317 3.10709 9.67292V5.08846C3.07141 4.9099 3.09062 4.72472 3.16218 4.55727C3.23373 4.38983 3.35429 4.24796 3.508 4.15032C3.60716 4.08421 3.71853 4.03857 3.83558 4.01608C3.95262 3.99359 4.07297 3.9947 4.18958 4.01935C4.30618 4.04399 4.41669 4.09168 4.51462 4.15961C4.61255 4.22754 4.69592 4.31434 4.75985 4.41493L9.41747 9.07355C9.58045 9.24287 9.67047 9.46938 9.66818 9.70437C9.66589 9.93937 9.57148 10.1641 9.40523 10.3302C9.23899 10.4963 9.01421 10.5905 8.77921 10.5926C8.54421 10.5947 8.31777 10.5045 8.14858 10.3414ZM0.00501151 9.67292V4.89703C0.0284641 4.67546 0.133083 4.47042 0.298711 4.3214C0.464339 4.17238 0.679257 4.08992 0.902057 4.08992C1.12486 4.08992 1.33978 4.17238 1.5054 4.3214C1.67103 4.47042 1.77565 4.67546 1.7991 4.89703V9.67292C1.81242 9.79868 1.79913 9.92584 1.76012 10.0461C1.7211 10.1664 1.65723 10.2772 1.57264 10.3712C1.48805 10.4652 1.38463 10.5404 1.26911 10.5919C1.15358 10.6433 1.02853 10.6699 0.902057 10.6699C0.775588 10.6699 0.650531 10.6433 0.535005 10.5919C0.419479 10.5404 0.316065 10.4652 0.231475 10.3712C0.146885 10.2772 0.0830103 10.1664 0.0439957 10.0461C0.00498106 9.92584 -0.00830101 9.79868 0.00501151 9.67292Z" fill="#707A8A"/>
</svg>
