<svg width="460" height="324" viewBox="0 0 460 324" fill="none" xmlns="http://www.w3.org/2000/svg">
<rect width="460" height="324" rx="10" fill="#0D131C"/>
<rect x="23.5" y="20" width="413" height="284" rx="15" fill="#161F2C"/>
<rect x="36" y="75.5" width="277" height="76" rx="9.5" fill="#161F2C"/>
<rect x="43.5" y="83" width="59" height="26.5" rx="10" fill="#383C45"/>
<path d="M46.9508 91.49L45.3608 92.15V93.995H43.9208V95.315H45.3608V99.815C45.3608 100.43 45.4958 100.895 45.7958 101.225C46.0958 101.57 46.5908 101.75 47.2508 101.75H48.5258V100.43H47.5058C47.3108 100.43 47.1758 100.37 47.0858 100.28C46.9958 100.175 46.9508 100.025 46.9508 99.815V95.315H48.7208V93.995H46.9508V91.49ZM52.8811 91.01L51.3361 92.915H52.3411L53.5711 91.7L54.8311 92.915H55.8361L54.2761 91.01H52.8811ZM53.5711 93.785C52.4011 93.785 51.4561 94.175 50.7361 94.985C50.0461 95.735 49.7011 96.71 49.7011 97.88C49.7011 99.05 50.0461 100.01 50.7361 100.76C51.4411 101.555 52.3861 101.96 53.5711 101.96C54.7561 101.96 55.7011 101.555 56.4211 100.76C57.0961 100.01 57.4411 99.05 57.4411 97.88C57.4411 96.71 57.0961 95.735 56.4211 94.985C55.7011 94.175 54.7411 93.785 53.5711 93.785ZM53.5711 95.09C54.2611 95.09 54.8011 95.33 55.2061 95.84C55.5961 96.35 55.8061 97.025 55.8061 97.88C55.8061 98.72 55.5961 99.38 55.2061 99.89C54.8011 100.4 54.2611 100.655 53.5711 100.655C52.8811 100.655 52.3411 100.4 51.9361 99.89C51.5461 99.38 51.3511 98.72 51.3511 97.88C51.3511 97.025 51.5461 96.35 51.9361 95.84C52.3411 95.33 52.8811 95.09 53.5711 95.09ZM53.4038 87.92L51.9788 90.11H53.0288L55.1588 87.92H53.4038ZM60.0763 90.89C59.7613 90.89 59.5063 90.98 59.2963 91.19C59.0863 91.385 58.9813 91.64 58.9813 91.955C58.9813 92.255 59.0863 92.525 59.2963 92.735C59.5063 92.93 59.7613 93.035 60.0763 93.035C60.3763 93.035 60.6463 92.93 60.8563 92.735C61.0663 92.525 61.1863 92.27 61.1863 91.955C61.1863 91.64 61.0813 91.385 60.8713 91.19C60.6613 90.98 60.3913 90.89 60.0763 90.89ZM59.2813 93.995V101.75H60.8713V93.995H59.2813ZM70.3737 91.49L68.7837 92.15V93.995H67.3437V95.315H68.7837V99.815C68.7837 100.43 68.9187 100.895 69.2187 101.225C69.5187 101.57 70.0137 101.75 70.6737 101.75H71.9487V100.43H70.9287C70.7337 100.43 70.5987 100.37 70.5087 100.28C70.4187 100.175 70.3737 100.025 70.3737 99.815V95.315H72.1437V93.995H70.3737V91.49ZM73.4239 90.83V101.75H75.0139V97.4C75.0139 96.725 75.1789 96.17 75.5239 95.735C75.8539 95.3 76.2889 95.09 76.8289 95.09C77.4289 95.09 77.8939 95.27 78.1939 95.645C78.4639 96.005 78.6139 96.515 78.6139 97.205V101.75H80.2039V96.935C80.2039 95.915 79.9789 95.135 79.5289 94.61C79.0489 94.055 78.3439 93.785 77.4139 93.785C76.9189 93.785 76.4839 93.875 76.0939 94.085C75.6589 94.295 75.2989 94.64 75.0139 95.09V90.83H73.4239ZM83.1329 90.89C82.8179 90.89 82.5629 90.98 82.3529 91.19C82.1429 91.385 82.0379 91.64 82.0379 91.955C82.0379 92.255 82.1429 92.525 82.3529 92.735C82.5629 92.93 82.8179 93.035 83.1329 93.035C83.4329 93.035 83.7029 92.93 83.9129 92.735C84.1229 92.525 84.2429 92.27 84.2429 91.955C84.2429 91.64 84.1379 91.385 83.9279 91.19C83.7179 90.98 83.4479 90.89 83.1329 90.89ZM82.3379 93.995V101.75H83.9279V93.995H82.3379ZM88.7202 91.01L87.1602 92.915H88.1652L89.4252 91.7L90.6552 92.915H91.6602L90.1152 91.01H88.7202ZM89.3652 93.785C88.2252 93.785 87.3102 94.175 86.6502 94.97C85.9602 95.75 85.6302 96.71 85.6302 97.865C85.6302 99.14 85.9902 100.145 86.7102 100.895C87.3702 101.6 88.2852 101.96 89.4252 101.96C90.4602 101.96 91.3152 101.66 91.9902 101.075C92.5302 100.595 92.8752 99.98 93.0552 99.26H91.4652C91.2552 99.71 91.0302 100.055 90.7602 100.265C90.4152 100.52 89.9652 100.655 89.4102 100.655C88.7802 100.655 88.2852 100.445 87.9252 100.055C87.5652 99.65 87.3702 99.065 87.3102 98.315H93.1902C93.1752 96.935 92.8602 95.855 92.2602 95.075C91.6002 94.205 90.6252 93.785 89.3652 93.785ZM89.4102 95.09C90.6702 95.09 91.3752 95.765 91.5252 97.115H87.3402C87.4302 96.455 87.6552 95.96 87.9852 95.615C88.3452 95.255 88.8102 95.09 89.4102 95.09ZM89.2789 87.665C88.8289 87.665 88.3789 87.74 87.9289 87.905V88.64C88.3639 88.43 88.7839 88.325 89.1889 88.325C89.7739 88.325 90.0739 88.49 90.0739 88.82C90.0739 89.15 89.7139 89.495 88.9939 89.855L89.4139 90.29C90.3889 89.915 90.8839 89.42 90.8839 88.805C90.8839 88.04 90.3439 87.665 89.2789 87.665ZM94.547 93.995V98.825C94.547 100.91 95.477 101.96 97.352 101.96C98.327 101.96 99.137 101.54 99.797 100.7V101.75H101.387V93.995H99.797V98.735C99.662 99.305 99.407 99.77 99.047 100.115C98.687 100.445 98.312 100.625 97.892 100.625C97.277 100.625 96.827 100.46 96.557 100.16C96.272 99.86 96.137 99.38 96.137 98.72V93.995H94.547Z" fill="#7C8499"/>
<rect x="43.5" y="117.5" width="50" height="26.5" rx="10" fill="#383C45"/>
<path d="M51.1227 125.99L49.5327 126.65V128.495H48.0927V129.815H49.5327V134.315C49.5327 134.93 49.6677 135.395 49.9677 135.725C50.2677 136.07 50.7627 136.25 51.4227 136.25H52.6977V134.93H51.6777C51.4827 134.93 51.3477 134.87 51.2577 134.78C51.1677 134.675 51.1227 134.525 51.1227 134.315V129.815H52.8927V128.495H51.1227V125.99ZM57.0529 125.51L55.5079 127.415H56.5129L57.7429 126.2L59.0029 127.415H60.0079L58.4479 125.51H57.0529ZM57.7429 128.285C56.5729 128.285 55.6279 128.675 54.9079 129.485C54.2179 130.235 53.8729 131.21 53.8729 132.38C53.8729 133.55 54.2179 134.51 54.9079 135.26C55.6129 136.055 56.5579 136.46 57.7429 136.46C58.9279 136.46 59.8729 136.055 60.5929 135.26C61.2679 134.51 61.613 133.55 61.613 132.38C61.613 131.21 61.2679 130.235 60.5929 129.485C59.8729 128.675 58.9129 128.285 57.7429 128.285ZM57.7429 129.59C58.4329 129.59 58.9729 129.83 59.3779 130.34C59.7679 130.85 59.9779 131.525 59.9779 132.38C59.9779 133.22 59.7679 133.88 59.3779 134.39C58.9729 134.9 58.4329 135.155 57.7429 135.155C57.0529 135.155 56.5129 134.9 56.1079 134.39C55.7179 133.88 55.5229 133.22 55.5229 132.38C55.5229 131.525 55.7179 130.85 56.1079 130.34C56.5129 129.83 57.0529 129.59 57.7429 129.59ZM57.5757 122.42L56.1507 124.61H57.2007L59.3307 122.42H57.5757ZM64.2481 125.39C63.9331 125.39 63.6781 125.48 63.4681 125.69C63.2581 125.885 63.1531 126.14 63.1531 126.455C63.1531 126.755 63.2581 127.025 63.4681 127.235C63.6781 127.43 63.9331 127.535 64.2481 127.535C64.5481 127.535 64.8181 127.43 65.0281 127.235C65.2381 127.025 65.3581 126.77 65.3581 126.455C65.3581 126.14 65.2531 125.885 65.0431 125.69C64.8331 125.48 64.5631 125.39 64.2481 125.39ZM63.4531 128.495V136.25H65.0431V128.495H63.4531ZM75.2805 126.5V127.43H77.7705V129.65C77.1405 128.735 76.3455 128.285 75.4005 128.285C74.2755 128.285 73.4055 128.69 72.7755 129.5C72.1755 130.25 71.8905 131.195 71.8905 132.335C71.8905 133.52 72.1905 134.495 72.7905 135.245C73.4355 136.055 74.3355 136.46 75.4755 136.46C76.5255 136.46 77.3355 136.07 77.8755 135.32V136.25H79.3605V127.43H80.5905V126.5H79.3605V125.33H77.7705V126.5H75.2805ZM75.7605 129.575C76.3455 129.575 76.8255 129.8 77.2155 130.28C77.6055 130.79 77.8155 131.465 77.8155 132.305V132.44C77.8155 133.22 77.6505 133.865 77.3205 134.345C76.9305 134.885 76.4055 135.17 75.7155 135.17C74.9355 135.17 74.3505 134.885 73.9905 134.33C73.6755 133.85 73.5255 133.19 73.5255 132.335C73.5255 131.48 73.6905 130.82 74.0205 130.37C74.3955 129.83 74.9805 129.575 75.7605 129.575ZM84.9873 128.285C84.0273 128.285 83.2473 128.45 82.6773 128.81C82.0173 129.2 81.5973 129.83 81.4323 130.67L83.0073 130.805C83.0973 130.37 83.3223 130.055 83.6823 129.845C83.9823 129.665 84.3873 129.575 84.8823 129.575C86.0523 129.575 86.6373 130.115 86.6373 131.195V131.51L84.8973 131.555C83.7573 131.585 82.8573 131.81 82.2273 132.26C81.5373 132.725 81.1923 133.4 81.1923 134.27C81.1923 134.915 81.4323 135.44 81.9273 135.845C82.3773 136.25 83.0073 136.46 83.8173 136.46C84.5073 136.46 85.1073 136.325 85.6173 136.085C86.0673 135.86 86.4423 135.545 86.7423 135.155V136.25H88.2123V131.3C88.2123 130.355 87.9723 129.635 87.5073 129.14C86.9673 128.57 86.1273 128.285 84.9873 128.285ZM86.6373 132.665V133.115C86.6373 133.715 86.3823 134.225 85.9023 134.63C85.4223 135.035 84.8523 135.245 84.1773 135.245C83.7723 135.245 83.4423 135.14 83.2023 134.945C82.9473 134.75 82.8273 134.51 82.8273 134.21C82.8273 133.25 83.5473 132.74 85.0023 132.71L86.6373 132.665Z" fill="#7C8499"/>
<g clip-path="url(#clip0_426_25738)">
<g clip-path="url(#clip1_426_25738)">
<path d="M126.639 105.403C125.037 111.831 118.526 115.744 112.096 114.141C105.669 112.538 101.757 106.026 103.361 99.5984C104.963 93.169 111.474 89.2564 117.901 90.8591C124.33 92.4618 128.242 98.974 126.639 105.403L126.639 105.403H126.639Z" fill="#F7931A"/>
<path d="M120.291 100.79C120.53 99.1934 119.315 98.335 117.652 97.7623L118.191 95.5991L116.875 95.271L116.35 97.3773C116.003 97.2909 115.648 97.2096 115.294 97.1289L115.823 95.0088L114.507 94.6807L113.968 96.8432C113.681 96.7779 113.4 96.7135 113.127 96.6455L113.128 96.6387L111.313 96.1853L110.962 97.5917C110.962 97.5917 111.939 97.8157 111.919 97.8294C112.452 97.9625 112.548 98.3155 112.532 98.5953L111.918 101.06C111.955 101.069 112.002 101.082 112.055 101.104C112.011 101.093 111.964 101.081 111.916 101.069L111.054 104.521C110.989 104.683 110.824 104.927 110.451 104.834C110.464 104.853 109.494 104.595 109.494 104.595L108.84 106.103L110.554 106.53C110.873 106.61 111.185 106.693 111.493 106.772L110.948 108.96L112.263 109.288L112.803 107.123C113.162 107.221 113.511 107.311 113.852 107.396L113.314 109.55L114.631 109.878L115.176 107.695C117.421 108.12 119.11 107.948 119.82 105.917C120.393 104.282 119.792 103.339 118.611 102.724C119.471 102.525 120.119 101.96 120.292 100.791L120.292 100.79L120.291 100.79ZM117.283 105.009C116.876 106.644 114.123 105.76 113.23 105.539L113.953 102.64C114.846 102.863 117.708 103.304 117.283 105.009H117.283ZM117.69 100.767C117.319 102.254 115.027 101.498 114.284 101.313L114.94 98.6841C115.683 98.8694 118.077 99.2152 117.69 100.767H117.69Z" fill="white"/>
</g>
<path d="M132.215 104.005C132.215 101.556 132.654 99.8418 133.533 98.8633C134.418 97.8848 135.763 97.3955 137.567 97.3955C138.435 97.3955 139.146 97.5039 139.703 97.7207C140.26 97.9316 140.714 98.21 141.065 98.5557C141.417 98.8955 141.692 99.2559 141.892 99.6367C142.097 100.012 142.261 100.451 142.384 100.955C142.624 101.916 142.744 102.918 142.744 103.961C142.744 106.299 142.349 108.01 141.558 109.094C140.767 110.178 139.404 110.72 137.471 110.72C136.387 110.72 135.511 110.547 134.843 110.201C134.175 109.855 133.627 109.349 133.199 108.681C132.889 108.206 132.646 107.559 132.47 106.738C132.3 105.912 132.215 105.001 132.215 104.005ZM135.766 104.014C135.766 105.654 135.909 106.776 136.196 107.38C136.489 107.978 136.911 108.276 137.462 108.276C137.825 108.276 138.139 108.15 138.402 107.898C138.672 107.641 138.868 107.236 138.991 106.686C139.12 106.135 139.185 105.276 139.185 104.11C139.185 102.399 139.038 101.251 138.745 100.665C138.458 100.073 138.024 99.7773 137.444 99.7773C136.853 99.7773 136.425 100.079 136.161 100.683C135.897 101.28 135.766 102.391 135.766 104.014ZM144.572 106.914H148.396V110.5H144.572V106.914ZM150.215 104.005C150.215 101.556 150.654 99.8418 151.533 98.8633C152.418 97.8848 153.763 97.3955 155.567 97.3955C156.435 97.3955 157.146 97.5039 157.703 97.7207C158.26 97.9316 158.714 98.21 159.065 98.5557C159.417 98.8955 159.692 99.2559 159.892 99.6367C160.097 100.012 160.261 100.451 160.384 100.955C160.624 101.916 160.744 102.918 160.744 103.961C160.744 106.299 160.349 108.01 159.558 109.094C158.767 110.178 157.404 110.72 155.471 110.72C154.387 110.72 153.511 110.547 152.843 110.201C152.175 109.855 151.627 109.349 151.199 108.681C150.889 108.206 150.646 107.559 150.47 106.738C150.3 105.912 150.215 105.001 150.215 104.005ZM153.766 104.014C153.766 105.654 153.909 106.776 154.196 107.38C154.489 107.978 154.911 108.276 155.462 108.276C155.825 108.276 156.139 108.15 156.402 107.898C156.672 107.641 156.868 107.236 156.991 106.686C157.12 106.135 157.185 105.276 157.185 104.11C157.185 102.399 157.038 101.251 156.745 100.665C156.458 100.073 156.024 99.7773 155.444 99.7773C154.853 99.7773 154.425 100.079 154.161 100.683C153.897 101.28 153.766 102.391 153.766 104.014ZM162.221 104.005C162.221 101.556 162.66 99.8418 163.539 98.8633C164.424 97.8848 165.769 97.3955 167.573 97.3955C168.44 97.3955 169.152 97.5039 169.709 97.7207C170.266 97.9316 170.72 98.21 171.071 98.5557C171.423 98.8955 171.698 99.2559 171.897 99.6367C172.103 100.012 172.267 100.451 172.39 100.955C172.63 101.916 172.75 102.918 172.75 103.961C172.75 106.299 172.354 108.01 171.563 109.094C170.772 110.178 169.41 110.72 167.477 110.72C166.393 110.72 165.517 110.547 164.849 110.201C164.181 109.855 163.633 109.349 163.205 108.681C162.895 108.206 162.651 107.559 162.476 106.738C162.306 105.912 162.221 105.001 162.221 104.005ZM165.771 104.014C165.771 105.654 165.915 106.776 166.202 107.38C166.495 107.978 166.917 108.276 167.468 108.276C167.831 108.276 168.145 108.15 168.408 107.898C168.678 107.641 168.874 107.236 168.997 106.686C169.126 106.135 169.19 105.276 169.19 104.11C169.19 102.399 169.044 101.251 168.751 100.665C168.464 100.073 168.03 99.7773 167.45 99.7773C166.858 99.7773 166.431 100.079 166.167 100.683C165.903 101.28 165.771 102.391 165.771 104.014ZM174.227 104.005C174.227 101.556 174.666 99.8418 175.545 98.8633C176.43 97.8848 177.774 97.3955 179.579 97.3955C180.446 97.3955 181.158 97.5039 181.715 97.7207C182.271 97.9316 182.726 98.21 183.077 98.5557C183.429 98.8955 183.704 99.2559 183.903 99.6367C184.108 100.012 184.272 100.451 184.396 100.955C184.636 101.916 184.756 102.918 184.756 103.961C184.756 106.299 184.36 108.01 183.569 109.094C182.778 110.178 181.416 110.72 179.482 110.72C178.398 110.72 177.522 110.547 176.854 110.201C176.187 109.855 175.639 109.349 175.211 108.681C174.9 108.206 174.657 107.559 174.481 106.738C174.312 105.912 174.227 105.001 174.227 104.005ZM177.777 104.014C177.777 105.654 177.921 106.776 178.208 107.38C178.501 107.978 178.923 108.276 179.474 108.276C179.837 108.276 180.15 108.15 180.414 107.898C180.684 107.641 180.88 107.236 181.003 106.686C181.132 106.135 181.196 105.276 181.196 104.11C181.196 102.399 181.05 101.251 180.757 100.665C180.47 100.073 180.036 99.7773 179.456 99.7773C178.864 99.7773 178.437 100.079 178.173 100.683C177.909 101.28 177.777 102.391 177.777 104.014ZM186.232 104.005C186.232 101.556 186.672 99.8418 187.551 98.8633C188.436 97.8848 189.78 97.3955 191.585 97.3955C192.452 97.3955 193.164 97.5039 193.721 97.7207C194.277 97.9316 194.731 98.21 195.083 98.5557C195.435 98.8955 195.71 99.2559 195.909 99.6367C196.114 100.012 196.278 100.451 196.401 100.955C196.642 101.916 196.762 102.918 196.762 103.961C196.762 106.299 196.366 108.01 195.575 109.094C194.784 110.178 193.422 110.72 191.488 110.72C190.404 110.72 189.528 110.547 188.86 110.201C188.192 109.855 187.645 109.349 187.217 108.681C186.906 108.206 186.663 107.559 186.487 106.738C186.317 105.912 186.232 105.001 186.232 104.005ZM189.783 104.014C189.783 105.654 189.927 106.776 190.214 107.38C190.507 107.978 190.929 108.276 191.479 108.276C191.843 108.276 192.156 108.15 192.42 107.898C192.689 107.641 192.886 107.236 193.009 106.686C193.138 106.135 193.202 105.276 193.202 104.11C193.202 102.399 193.056 101.251 192.763 100.665C192.476 100.073 192.042 99.7773 191.462 99.7773C190.87 99.7773 190.442 100.079 190.179 100.683C189.915 101.28 189.783 102.391 189.783 104.014ZM206.351 97.3955V110.5H202.729V101.913C202.144 102.358 201.575 102.719 201.024 102.994C200.479 103.27 199.794 103.533 198.968 103.785V100.85C200.187 100.457 201.133 99.9854 201.807 99.4346C202.48 98.8838 203.008 98.2041 203.389 97.3955H206.351ZM210.244 104.005C210.244 101.556 210.684 99.8418 211.562 98.8633C212.447 97.8848 213.792 97.3955 215.597 97.3955C216.464 97.3955 217.176 97.5039 217.732 97.7207C218.289 97.9316 218.743 98.21 219.095 98.5557C219.446 98.8955 219.722 99.2559 219.921 99.6367C220.126 100.012 220.29 100.451 220.413 100.955C220.653 101.916 220.773 102.918 220.773 103.961C220.773 106.299 220.378 108.01 219.587 109.094C218.796 110.178 217.434 110.72 215.5 110.72C214.416 110.72 213.54 110.547 212.872 110.201C212.204 109.855 211.656 109.349 211.229 108.681C210.918 108.206 210.675 107.559 210.499 106.738C210.329 105.912 210.244 105.001 210.244 104.005ZM213.795 104.014C213.795 105.654 213.938 106.776 214.226 107.38C214.519 107.978 214.94 108.276 215.491 108.276C215.854 108.276 216.168 108.15 216.432 107.898C216.701 107.641 216.897 107.236 217.021 106.686C217.149 106.135 217.214 105.276 217.214 104.11C217.214 102.399 217.067 101.251 216.774 100.665C216.487 100.073 216.054 99.7773 215.474 99.7773C214.882 99.7773 214.454 100.079 214.19 100.683C213.927 101.28 213.795 102.391 213.795 104.014ZM222.25 104.005C222.25 101.556 222.689 99.8418 223.568 98.8633C224.453 97.8848 225.798 97.3955 227.603 97.3955C228.47 97.3955 229.182 97.5039 229.738 97.7207C230.295 97.9316 230.749 98.21 231.101 98.5557C231.452 98.8955 231.728 99.2559 231.927 99.6367C232.132 100.012 232.296 100.451 232.419 100.955C232.659 101.916 232.779 102.918 232.779 103.961C232.779 106.299 232.384 108.01 231.593 109.094C230.802 110.178 229.439 110.72 227.506 110.72C226.422 110.72 225.546 110.547 224.878 110.201C224.21 109.855 223.662 109.349 223.234 108.681C222.924 108.206 222.681 107.559 222.505 106.738C222.335 105.912 222.25 105.001 222.25 104.005ZM225.801 104.014C225.801 105.654 225.944 106.776 226.231 107.38C226.524 107.978 226.946 108.276 227.497 108.276C227.86 108.276 228.174 108.15 228.438 107.898C228.707 107.641 228.903 107.236 229.026 106.686C229.155 106.135 229.22 105.276 229.22 104.11C229.22 102.399 229.073 101.251 228.78 100.665C228.493 100.073 228.06 99.7773 227.479 99.7773C226.888 99.7773 226.46 100.079 226.196 100.683C225.933 101.28 225.801 102.391 225.801 104.014ZM234.256 104.005C234.256 101.556 234.695 99.8418 235.574 98.8633C236.459 97.8848 237.804 97.3955 239.608 97.3955C240.476 97.3955 241.188 97.5039 241.744 97.7207C242.301 97.9316 242.755 98.21 243.106 98.5557C243.458 98.8955 243.733 99.2559 243.933 99.6367C244.138 100.012 244.302 100.451 244.425 100.955C244.665 101.916 244.785 102.918 244.785 103.961C244.785 106.299 244.39 108.01 243.599 109.094C242.808 110.178 241.445 110.72 239.512 110.72C238.428 110.72 237.552 110.547 236.884 110.201C236.216 109.855 235.668 109.349 235.24 108.681C234.93 108.206 234.687 107.559 234.511 106.738C234.341 105.912 234.256 105.001 234.256 104.005ZM237.807 104.014C237.807 105.654 237.95 106.776 238.237 107.38C238.53 107.978 238.952 108.276 239.503 108.276C239.866 108.276 240.18 108.15 240.443 107.898C240.713 107.641 240.909 107.236 241.032 106.686C241.161 106.135 241.226 105.276 241.226 104.11C241.226 102.399 241.079 101.251 240.786 100.665C240.499 100.073 240.065 99.7773 239.485 99.7773C238.894 99.7773 238.466 100.079 238.202 100.683C237.938 101.28 237.807 102.391 237.807 104.014Z" fill="white"/>
<path d="M134.921 131.911V128.842C133.964 128.568 133.261 128.156 132.812 127.604C132.367 127.047 132.145 126.374 132.145 125.583C132.145 124.782 132.396 124.11 132.899 123.568C133.407 123.021 134.081 122.707 134.921 122.624V121.898H135.983V122.624C136.759 122.716 137.377 122.982 137.836 123.422C138.295 123.856 138.588 124.44 138.715 125.172L136.862 125.414C136.75 124.838 136.457 124.447 135.983 124.242V127.106C137.155 127.423 137.953 127.836 138.378 128.344C138.803 128.847 139.015 129.494 139.015 130.285C139.015 131.168 138.747 131.913 138.209 132.519C137.677 133.124 136.935 133.495 135.983 133.632V135.001H134.921V133.668C134.076 133.566 133.39 133.251 132.863 132.724C132.335 132.196 131.999 131.452 131.852 130.49L133.764 130.285C133.842 130.675 133.988 131.012 134.203 131.295C134.418 131.579 134.657 131.784 134.921 131.911ZM134.921 124.22C134.633 124.318 134.403 124.484 134.232 124.718C134.062 124.953 133.976 125.211 133.976 125.495C133.976 125.753 134.054 125.995 134.21 126.22C134.367 126.439 134.604 126.618 134.921 126.754V124.22ZM135.983 132.013C136.349 131.945 136.647 131.776 136.876 131.508C137.106 131.234 137.221 130.915 137.221 130.548C137.221 130.221 137.123 129.94 136.928 129.706C136.737 129.467 136.422 129.284 135.983 129.157V132.013ZM144.362 133.5V131.339H139.967V129.538L144.625 122.719H146.354V129.53H147.687V131.339H146.354V133.5H144.362ZM144.362 129.53V125.861L141.894 129.53H144.362ZM149.115 133.5V131.442H151.173V133.5H149.115ZM156.886 133.5V131.339H152.492V129.538L157.15 122.719H158.878V129.53H160.211V131.339H158.878V133.5H156.886ZM156.886 129.53V125.861L154.418 129.53H156.886ZM164.679 122.719C165.719 122.719 166.532 123.09 167.118 123.832C167.816 124.711 168.166 126.168 168.166 128.205C168.166 130.236 167.814 131.696 167.111 132.584C166.53 133.317 165.719 133.683 164.679 133.683C163.634 133.683 162.792 133.283 162.152 132.482C161.513 131.676 161.193 130.243 161.193 128.183C161.193 126.161 161.544 124.706 162.248 123.817C162.829 123.085 163.639 122.719 164.679 122.719ZM164.679 124.425C164.43 124.425 164.208 124.506 164.013 124.667C163.817 124.823 163.666 125.106 163.559 125.517C163.417 126.049 163.346 126.945 163.346 128.205C163.346 129.464 163.41 130.331 163.537 130.805C163.664 131.273 163.822 131.586 164.013 131.742C164.208 131.898 164.43 131.977 164.679 131.977C164.928 131.977 165.15 131.898 165.346 131.742C165.541 131.581 165.692 131.295 165.8 130.885C165.941 130.358 166.012 129.464 166.012 128.205C166.012 126.945 165.949 126.081 165.822 125.612C165.695 125.138 165.534 124.823 165.338 124.667C165.148 124.506 164.928 124.425 164.679 124.425ZM173.029 122.719C174.069 122.719 174.882 123.09 175.468 123.832C176.166 124.711 176.515 126.168 176.515 128.205C176.515 130.236 176.164 131.696 175.46 132.584C174.879 133.317 174.069 133.683 173.029 133.683C171.984 133.683 171.142 133.283 170.502 132.482C169.862 131.676 169.542 130.243 169.542 128.183C169.542 126.161 169.894 124.706 170.597 123.817C171.178 123.085 171.989 122.719 173.029 122.719ZM173.029 124.425C172.78 124.425 172.558 124.506 172.362 124.667C172.167 124.823 172.016 125.106 171.908 125.517C171.767 126.049 171.696 126.945 171.696 128.205C171.696 129.464 171.759 130.331 171.886 130.805C172.013 131.273 172.172 131.586 172.362 131.742C172.558 131.898 172.78 131.977 173.029 131.977C173.278 131.977 173.5 131.898 173.695 131.742C173.891 131.581 174.042 131.295 174.149 130.885C174.291 130.358 174.362 129.464 174.362 128.205C174.362 126.945 174.298 126.081 174.171 125.612C174.044 125.138 173.883 124.823 173.688 124.667C173.498 124.506 173.278 124.425 173.029 124.425ZM181.378 122.719C182.418 122.719 183.231 123.09 183.817 123.832C184.516 124.711 184.865 126.168 184.865 128.205C184.865 130.236 184.513 131.696 183.81 132.584C183.229 133.317 182.418 133.683 181.378 133.683C180.333 133.683 179.491 133.283 178.852 132.482C178.212 131.676 177.892 130.243 177.892 128.183C177.892 126.161 178.244 124.706 178.947 123.817C179.528 123.085 180.338 122.719 181.378 122.719ZM181.378 124.425C181.129 124.425 180.907 124.506 180.712 124.667C180.517 124.823 180.365 125.106 180.258 125.517C180.116 126.049 180.045 126.945 180.045 128.205C180.045 129.464 180.109 130.331 180.236 130.805C180.363 131.273 180.521 131.586 180.712 131.742C180.907 131.898 181.129 131.977 181.378 131.977C181.627 131.977 181.85 131.898 182.045 131.742C182.24 131.581 182.392 131.295 182.499 130.885C182.641 130.358 182.711 129.464 182.711 128.205C182.711 126.945 182.648 126.081 182.521 125.612C182.394 125.138 182.233 124.823 182.038 124.667C181.847 124.506 181.627 124.425 181.378 124.425ZM189.728 122.719C190.768 122.719 191.581 123.09 192.167 123.832C192.865 124.711 193.214 126.168 193.214 128.205C193.214 130.236 192.863 131.696 192.16 132.584C191.579 133.317 190.768 133.683 189.728 133.683C188.683 133.683 187.841 133.283 187.201 132.482C186.562 131.676 186.242 130.243 186.242 128.183C186.242 126.161 186.593 124.706 187.296 123.817C187.877 123.085 188.688 122.719 189.728 122.719ZM189.728 124.425C189.479 124.425 189.257 124.506 189.062 124.667C188.866 124.823 188.715 125.106 188.607 125.517C188.466 126.049 188.395 126.945 188.395 128.205C188.395 129.464 188.458 130.331 188.585 130.805C188.712 131.273 188.871 131.586 189.062 131.742C189.257 131.898 189.479 131.977 189.728 131.977C189.977 131.977 190.199 131.898 190.395 131.742C190.59 131.581 190.741 131.295 190.849 130.885C190.99 130.358 191.061 129.464 191.061 128.205C191.061 126.945 190.998 126.081 190.871 125.612C190.744 125.138 190.583 124.823 190.387 124.667C190.197 124.506 189.977 124.425 189.728 124.425ZM198.078 122.719C199.118 122.719 199.931 123.09 200.517 123.832C201.215 124.711 201.564 126.168 201.564 128.205C201.564 130.236 201.212 131.696 200.509 132.584C199.928 133.317 199.118 133.683 198.078 133.683C197.033 133.683 196.19 133.283 195.551 132.482C194.911 131.676 194.591 130.243 194.591 128.183C194.591 126.161 194.943 124.706 195.646 123.817C196.227 123.085 197.038 122.719 198.078 122.719ZM198.078 124.425C197.829 124.425 197.606 124.506 197.411 124.667C197.216 124.823 197.064 125.106 196.957 125.517C196.815 126.049 196.745 126.945 196.745 128.205C196.745 129.464 196.808 130.331 196.935 130.805C197.062 131.273 197.221 131.586 197.411 131.742C197.606 131.898 197.829 131.977 198.078 131.977C198.327 131.977 198.549 131.898 198.744 131.742C198.939 131.581 199.091 131.295 199.198 130.885C199.34 130.358 199.411 129.464 199.411 128.205C199.411 126.945 199.347 126.081 199.22 125.612C199.093 125.138 198.932 124.823 198.737 124.667C198.546 124.506 198.327 124.425 198.078 124.425ZM206.427 122.719C207.467 122.719 208.28 123.09 208.866 123.832C209.564 124.711 209.914 126.168 209.914 128.205C209.914 130.236 209.562 131.696 208.859 132.584C208.278 133.317 207.467 133.683 206.427 133.683C205.382 133.683 204.54 133.283 203.9 132.482C203.261 131.676 202.941 130.243 202.941 128.183C202.941 126.161 203.292 124.706 203.996 123.817C204.577 123.085 205.387 122.719 206.427 122.719ZM206.427 124.425C206.178 124.425 205.956 124.506 205.761 124.667C205.565 124.823 205.414 125.106 205.307 125.517C205.165 126.049 205.094 126.945 205.094 128.205C205.094 129.464 205.158 130.331 205.285 130.805C205.412 131.273 205.57 131.586 205.761 131.742C205.956 131.898 206.178 131.977 206.427 131.977C206.676 131.977 206.898 131.898 207.094 131.742C207.289 131.581 207.44 131.295 207.548 130.885C207.689 130.358 207.76 129.464 207.76 128.205C207.76 126.945 207.697 126.081 207.57 125.612C207.443 125.138 207.282 124.823 207.086 124.667C206.896 124.506 206.676 124.425 206.427 124.425Z" fill="#7C8499"/>
</g>
<rect x="255.5" y="83" width="50" height="26.5" rx="10" fill="#383C45"/>
<path d="M272.671 91.04C272.311 91.43 271.861 91.775 271.321 92.105C270.781 92.405 270.286 92.615 269.806 92.735V94.355C270.796 94.07 271.621 93.62 272.266 93.005V101.75H273.901V91.04H272.671ZM280.999 89.45L275.749 103.25H277.144L282.379 89.45H280.999ZM287.479 90.83C286.339 90.83 285.409 91.205 284.719 91.985C284.044 92.705 283.699 93.665 283.684 94.865H285.319C285.349 93.995 285.529 93.35 285.889 92.9C286.234 92.435 286.744 92.21 287.419 92.21C288.049 92.21 288.544 92.36 288.874 92.66C289.204 92.96 289.369 93.41 289.369 94.01C289.369 94.64 289.114 95.225 288.634 95.765C288.334 96.08 287.824 96.485 287.104 96.995C285.889 97.835 285.079 98.48 284.689 98.945C283.969 99.755 283.624 100.685 283.624 101.75H291.004V100.31H285.649C285.874 99.725 286.564 99.05 287.719 98.285C288.784 97.565 289.519 96.995 289.939 96.56C290.629 95.795 290.989 94.955 290.989 94.025C290.989 93.08 290.659 92.315 290.014 91.715C289.354 91.115 288.499 90.83 287.479 90.83Z" fill="#7C8499"/>
<rect x="255.5" y="117.5" width="50" height="26.5" rx="10" fill="#383C45"/>
<path d="M276.691 125.33C275.551 125.33 274.621 125.705 273.931 126.485C273.256 127.205 272.911 128.165 272.896 129.365H274.531C274.561 128.495 274.741 127.85 275.101 127.4C275.446 126.935 275.956 126.71 276.631 126.71C277.261 126.71 277.756 126.86 278.086 127.16C278.416 127.46 278.581 127.91 278.581 128.51C278.581 129.14 278.326 129.725 277.846 130.265C277.546 130.58 277.036 130.985 276.316 131.495C275.101 132.335 274.291 132.98 273.901 133.445C273.181 134.255 272.836 135.185 272.836 136.25H280.216V134.81H274.861C275.086 134.225 275.776 133.55 276.931 132.785C277.996 132.065 278.731 131.495 279.151 131.06C279.841 130.295 280.201 129.455 280.201 128.525C280.201 127.58 279.871 126.815 279.226 126.215C278.566 125.615 277.711 125.33 276.691 125.33ZM281.44 128.495L284.125 132.125L281.095 136.25H282.97L285.01 133.295L287.035 136.25H288.895L285.88 132.125L288.565 128.495H286.705L285.01 130.955L283.3 128.495H281.44Z" fill="#7C8499"/>
<rect x="36" y="75.5" width="277" height="76" rx="9.5" stroke="#55657E"/>
<g clip-path="url(#clip2_426_25738)">
<rect x="333.5" y="75" width="91" height="77" rx="10" fill="#F04E23"/>
<g filter="url(#filter0_d_426_25738)">
<path d="M346.818 107.148V120H352.686C354.054 120 355.116 119.748 355.872 119.244C356.754 118.632 357.204 117.696 357.204 116.4C357.204 115.536 356.988 114.834 356.556 114.312C356.124 113.79 355.476 113.448 354.63 113.286C355.278 113.052 355.764 112.692 356.124 112.224C356.484 111.72 356.664 111.108 356.664 110.388C356.664 109.398 356.322 108.624 355.638 108.048C354.918 107.436 353.946 107.148 352.686 107.148H346.818ZM348.78 108.768H352.2C353.064 108.768 353.712 108.912 354.108 109.218C354.504 109.506 354.702 109.974 354.702 110.622C354.702 111.306 354.504 111.81 354.108 112.134C353.712 112.44 353.064 112.602 352.164 112.602H348.78V108.768ZM348.78 114.204H352.47C353.406 114.204 354.108 114.366 354.558 114.708C355.008 115.05 355.242 115.608 355.242 116.364C355.242 117.102 354.936 117.642 354.36 117.984C353.892 118.236 353.244 118.38 352.416 118.38H348.78V114.204ZM360.273 107.094C360.489 108.66 361.407 109.452 363.027 109.452C364.647 109.452 365.565 108.66 365.799 107.094H364.809C364.611 107.958 364.017 108.39 363.027 108.39C362.037 108.39 361.443 107.958 361.263 107.094H360.273ZM363.189 110.442C362.037 110.442 361.101 110.64 360.417 111.072C359.625 111.54 359.121 112.296 358.923 113.304L360.813 113.466C360.921 112.944 361.191 112.566 361.623 112.314C361.983 112.098 362.469 111.99 363.063 111.99C364.467 111.99 365.169 112.638 365.169 113.934V114.312L363.081 114.366C361.713 114.402 360.633 114.672 359.877 115.212C359.049 115.77 358.635 116.58 358.635 117.624C358.635 118.398 358.923 119.028 359.517 119.514C360.057 120 360.813 120.252 361.785 120.252C362.595 120.252 363.315 120.108 363.927 119.82C364.467 119.532 364.935 119.154 365.295 118.686V120H367.059V114.06C367.059 112.926 366.771 112.062 366.213 111.468C365.565 110.784 364.557 110.442 363.189 110.442ZM365.169 115.698V116.238C365.169 116.958 364.863 117.57 364.287 118.056C363.711 118.542 363.027 118.794 362.217 118.794C361.731 118.794 361.335 118.668 361.047 118.434C360.741 118.2 360.597 117.912 360.597 117.552C360.597 116.4 361.461 115.788 363.207 115.752L365.169 115.698ZM362.832 103.004L361.122 105.632H362.382L364.938 103.004H362.832ZM372.069 107.688L370.161 108.48V110.694H368.433V112.278H370.161V117.678C370.161 118.416 370.323 118.974 370.683 119.37C371.043 119.784 371.637 120 372.429 120H373.959V118.416H372.735C372.501 118.416 372.339 118.344 372.231 118.236C372.123 118.11 372.069 117.93 372.069 117.678V112.278H374.193V110.694H372.069V107.688ZM385.432 108.3V109.416H388.42V112.08C387.664 110.982 386.71 110.442 385.576 110.442C384.226 110.442 383.182 110.928 382.426 111.9C381.706 112.8 381.364 113.934 381.364 115.302C381.364 116.724 381.724 117.894 382.444 118.794C383.218 119.766 384.298 120.252 385.666 120.252C386.926 120.252 387.898 119.784 388.546 118.884V120H390.328V109.416H391.804V108.3H390.328V106.896H388.42V108.3H385.432ZM386.008 111.99C386.71 111.99 387.286 112.26 387.754 112.836C388.222 113.448 388.474 114.258 388.474 115.266V115.428C388.474 116.364 388.276 117.138 387.88 117.714C387.412 118.362 386.782 118.704 385.954 118.704C385.018 118.704 384.316 118.362 383.884 117.696C383.506 117.12 383.326 116.328 383.326 115.302C383.326 114.276 383.524 113.484 383.92 112.944C384.37 112.296 385.072 111.99 386.008 111.99ZM396.144 107.112L394.182 109.398H395.496L396.972 107.94L398.484 109.398H399.69L397.818 107.112H396.144ZM397.08 110.442C395.928 110.442 394.992 110.64 394.308 111.072C393.516 111.54 393.012 112.296 392.814 113.304L394.704 113.466C394.812 112.944 395.082 112.566 395.514 112.314C395.874 112.098 396.36 111.99 396.954 111.99C398.358 111.99 399.06 112.638 399.06 113.934V114.312L396.972 114.366C395.604 114.402 394.524 114.672 393.768 115.212C392.94 115.77 392.526 116.58 392.526 117.624C392.526 118.398 392.814 119.028 393.408 119.514C393.948 120 394.704 120.252 395.676 120.252C396.486 120.252 397.206 120.108 397.818 119.82C398.358 119.532 398.826 119.154 399.186 118.686V120H400.95V114.06C400.95 112.926 400.662 112.062 400.104 111.468C399.456 110.784 398.448 110.442 397.08 110.442ZM399.06 115.698V116.238C399.06 116.958 398.754 117.57 398.178 118.056C397.602 118.542 396.918 118.794 396.108 118.794C395.622 118.794 395.226 118.668 394.938 118.434C394.632 118.2 394.488 117.912 394.488 117.552C394.488 116.4 395.352 115.788 397.098 115.752L399.06 115.698ZM395.013 103.004L397.569 105.632H398.829L397.119 103.004H395.013ZM403.134 110.694V116.49C403.134 118.992 404.25 120.252 406.5 120.252C407.67 120.252 408.642 119.748 409.434 118.74V120H411.342V110.694H409.434V116.382C409.272 117.066 408.966 117.624 408.534 118.038C408.102 118.434 407.652 118.65 407.148 118.65C406.41 118.65 405.87 118.452 405.546 118.092C405.204 117.732 405.042 117.156 405.042 116.364V110.694H403.134Z" fill="white"/>
</g>
</g>
<path d="M40.3 177.08C39.16 177.08 38.215 177.335 37.465 177.845C36.67 178.385 36.28 179.12 36.28 180.065C36.28 180.995 36.685 181.715 37.51 182.21C37.84 182.39 38.65 182.675 39.97 183.095C41.155 183.455 41.86 183.695 42.1 183.815C42.775 184.16 43.12 184.625 43.12 185.225C43.12 185.705 42.88 186.08 42.4 186.35C41.92 186.62 41.275 186.77 40.465 186.77C39.565 186.77 38.905 186.605 38.47 186.275C37.99 185.915 37.69 185.3 37.57 184.46H35.95C36.04 185.81 36.52 186.8 37.405 187.43C38.14 187.94 39.16 188.21 40.465 188.21C41.815 188.21 42.865 187.94 43.615 187.4C44.365 186.845 44.74 186.095 44.74 185.135C44.74 184.145 44.275 183.38 43.36 182.825C42.94 182.57 41.995 182.225 40.555 181.775C39.55 181.475 38.935 181.25 38.695 181.115C38.155 180.83 37.9 180.455 37.9 179.975C37.9 179.435 38.125 179.045 38.59 178.805C38.965 178.595 39.505 178.49 40.21 178.49C41.02 178.49 41.62 178.64 42.04 178.955C42.46 179.255 42.73 179.765 42.88 180.455H44.5C44.395 179.285 43.975 178.43 43.225 177.875C42.52 177.335 41.545 177.08 40.3 177.08ZM48.9919 177.26L47.4469 179.165H48.4519L49.6819 177.95L50.9419 179.165H51.9469L50.3869 177.26H48.9919ZM49.6819 180.035C48.5119 180.035 47.5669 180.425 46.8469 181.235C46.1569 181.985 45.8119 182.96 45.8119 184.13C45.8119 185.3 46.1569 186.26 46.8469 187.01C47.5519 187.805 48.4969 188.21 49.6819 188.21C50.8669 188.21 51.8119 187.805 52.5319 187.01C53.2069 186.26 53.5519 185.3 53.5519 184.13C53.5519 182.96 53.2069 181.985 52.5319 181.235C51.8119 180.425 50.8519 180.035 49.6819 180.035ZM49.6819 181.34C50.3719 181.34 50.9119 181.58 51.3169 182.09C51.7069 182.6 51.9169 183.275 51.9169 184.13C51.9169 184.97 51.7069 185.63 51.3169 186.14C50.9119 186.65 50.3719 186.905 49.6819 186.905C48.9919 186.905 48.4519 186.65 48.0469 186.14C47.6569 185.63 47.4619 184.97 47.4619 184.13C47.4619 183.275 47.6569 182.6 48.0469 182.09C48.4519 181.58 48.9919 181.34 49.6819 181.34ZM49.5147 174.17L48.0897 176.36H49.1397L51.2697 174.17H49.5147ZM63.3422 180.035C62.2022 180.035 61.3022 180.44 60.6572 181.25C60.0572 182 59.7572 182.96 59.7572 184.16C59.7572 185.3 60.0422 186.245 60.6422 186.995C61.2722 187.805 62.1422 188.21 63.2672 188.21C64.2122 188.21 65.0072 187.76 65.6372 186.86V190.97H67.2272V180.245H65.7422V181.175C65.2022 180.41 64.3922 180.035 63.3422 180.035ZM63.5822 181.325C64.2722 181.325 64.7972 181.595 65.1872 182.15C65.5172 182.63 65.6822 183.275 65.6822 184.07V184.205C65.6822 185.03 65.4722 185.705 65.0822 186.215C64.6922 186.68 64.2122 186.92 63.6272 186.92C62.8472 186.92 62.2622 186.665 61.9022 186.155C61.5572 185.675 61.3922 185.015 61.3922 184.16C61.3922 183.305 61.5422 182.645 61.8572 182.165C62.2172 181.595 62.8022 181.325 63.5822 181.325ZM69.0221 180.245V185.075C69.0221 187.16 69.9521 188.21 71.8271 188.21C72.8021 188.21 73.6121 187.79 74.2721 186.95V188H75.8621V180.245H74.2721V184.985C74.1371 185.555 73.8821 186.02 73.5221 186.365C73.1621 186.695 72.7871 186.875 72.3671 186.875C71.7521 186.875 71.3021 186.71 71.0321 186.41C70.7471 186.11 70.6121 185.63 70.6121 184.97V180.245H69.0221ZM76.8543 180.245L79.9293 187.82L78.5793 190.97H80.2743L84.4893 180.245H82.7493L80.7093 185.9L78.5793 180.245H76.8543ZM80.5411 176.915C80.0911 176.915 79.6411 176.99 79.1911 177.155V177.89C79.6261 177.68 80.0461 177.575 80.4511 177.575C81.0361 177.575 81.3361 177.74 81.3361 178.07C81.3361 178.4 80.9761 178.745 80.2561 179.105L80.6761 179.54C81.6511 179.165 82.1461 178.67 82.1461 178.055C82.1461 177.29 81.6061 176.915 80.5411 176.915ZM90.4527 177.08V188H92.0427V183.65C92.0427 182.975 92.2077 182.42 92.5527 181.985C92.8827 181.55 93.3177 181.34 93.8577 181.34C94.4577 181.34 94.9227 181.52 95.2227 181.895C95.4927 182.255 95.6427 182.765 95.6427 183.455V188H97.2327V183.185C97.2327 182.165 97.0077 181.385 96.5577 180.86C96.0777 180.305 95.3727 180.035 94.4427 180.035C93.9477 180.035 93.5127 180.125 93.1227 180.335C92.6877 180.545 92.3277 180.89 92.0427 181.34V177.08H90.4527ZM101.917 177.26L100.372 179.165H101.377L102.607 177.95L103.867 179.165H104.872L103.312 177.26H101.917ZM102.607 180.035C101.437 180.035 100.492 180.425 99.7717 181.235C99.0817 181.985 98.7367 182.96 98.7367 184.13C98.7367 185.3 99.0817 186.26 99.7717 187.01C100.477 187.805 101.422 188.21 102.607 188.21C103.792 188.21 104.737 187.805 105.457 187.01C106.132 186.26 106.477 185.3 106.477 184.13C106.477 182.96 106.132 181.985 105.457 181.235C104.737 180.425 103.777 180.035 102.607 180.035ZM102.607 181.34C103.297 181.34 103.837 181.58 104.242 182.09C104.632 182.6 104.842 183.275 104.842 184.13C104.842 184.97 104.632 185.63 104.242 186.14C103.837 186.65 103.297 186.905 102.607 186.905C101.917 186.905 101.377 186.65 100.972 186.14C100.582 185.63 100.387 184.97 100.387 184.13C100.387 183.275 100.582 182.6 100.972 182.09C101.377 181.58 101.917 181.34 102.607 181.34ZM101.014 174.17L103.144 176.36H104.194L102.769 174.17H101.014ZM111.917 180.035C111.437 180.035 111.002 180.125 110.612 180.335C110.222 180.53 109.877 180.815 109.577 181.205V180.245H107.987V188H109.577V183.335C109.637 182.705 109.862 182.21 110.222 181.85C110.552 181.52 110.957 181.37 111.407 181.37C112.607 181.37 113.222 182.03 113.222 183.35V188H114.812V183.215C114.812 181.085 113.837 180.035 111.917 180.035Z" fill="#7C8499"/>
<rect x="35.5" y="199" width="38.625" height="50" rx="10" fill="#383C45"/>
<path d="M55.231 218.79C54.871 219.18 54.421 219.525 53.881 219.855C53.341 220.155 52.846 220.365 52.366 220.485V222.105C53.356 221.82 54.181 221.37 54.826 220.755V229.5H56.461V218.79H55.231Z" fill="#7C8499"/>
<rect x="84.125" y="199" width="38.625" height="50" rx="10" fill="#F04E23"/>
<path d="M103.605 218.58C102.465 218.58 101.535 218.955 100.845 219.735C100.17 220.455 99.8254 221.415 99.8104 222.615H101.445C101.475 221.745 101.655 221.1 102.015 220.65C102.36 220.185 102.87 219.96 103.545 219.96C104.175 219.96 104.67 220.11 105 220.41C105.33 220.71 105.495 221.16 105.495 221.76C105.495 222.39 105.24 222.975 104.76 223.515C104.46 223.83 103.95 224.235 103.23 224.745C102.015 225.585 101.205 226.23 100.815 226.695C100.095 227.505 99.7504 228.435 99.7504 229.5H107.13V228.06H101.775C102 227.475 102.69 226.8 103.845 226.035C104.91 225.315 105.645 224.745 106.065 224.31C106.755 223.545 107.115 222.705 107.115 221.775C107.115 220.83 106.785 220.065 106.14 219.465C105.48 218.865 104.625 218.58 103.605 218.58Z" fill="white"/>
<rect x="132.75" y="199" width="38.625" height="50" rx="10" fill="#383C45"/>
<path d="M152.17 218.58C151.12 218.58 150.265 218.865 149.605 219.465C148.9 220.065 148.51 220.89 148.42 221.955H150.025C150.085 221.295 150.31 220.8 150.67 220.47C151.03 220.14 151.54 219.975 152.185 219.975C152.815 219.975 153.31 220.11 153.64 220.41C153.94 220.695 154.105 221.1 154.105 221.64C154.105 222.18 153.925 222.6 153.595 222.885C153.265 223.17 152.77 223.32 152.11 223.32H151.345V224.55H152.125C152.83 224.55 153.37 224.7 153.73 225C154.12 225.3 154.315 225.765 154.315 226.395C154.315 226.935 154.12 227.37 153.76 227.73C153.34 228.12 152.785 228.33 152.095 228.33C151.465 228.33 150.955 228.15 150.565 227.79C150.115 227.4 149.89 226.845 149.86 226.125H148.21C148.3 227.325 148.72 228.24 149.47 228.87C150.13 229.425 151.015 229.71 152.11 229.71C153.25 229.71 154.195 229.38 154.915 228.75C155.59 228.12 155.935 227.31 155.935 226.32C155.935 225.69 155.755 225.165 155.395 224.76C155.065 224.37 154.585 224.07 153.955 223.875C155.125 223.485 155.725 222.69 155.725 221.52C155.725 220.605 155.395 219.885 154.765 219.36C154.105 218.835 153.25 218.58 152.17 218.58Z" fill="#7C8499"/>
<rect x="181.375" y="199" width="38.625" height="50" rx="10" fill="#383C45"/>
<path d="M201.77 218.79L196.49 225.63V227.175H201.71V229.5H203.27V227.175H204.89V225.87H203.27V218.79H201.77ZM201.665 220.86H201.71V225.87H197.825L201.665 220.86Z" fill="#7C8499"/>
<g clip-path="url(#clip3_426_25738)">
<rect x="240" y="199" width="87.25" height="50" rx="10" fill="#EFC046"/>
<g clip-path="url(#clip4_426_25738)">
<path d="M258.571 207.74L256.981 208.4V210.245H255.541V211.565H256.981V216.065C256.981 216.68 257.116 217.145 257.416 217.475C257.716 217.82 258.211 218 258.871 218H260.146V216.68H259.126C258.931 216.68 258.796 216.62 258.706 216.53C258.616 216.425 258.571 216.275 258.571 216.065V211.565H260.341V210.245H258.571V207.74ZM269.137 208.385V209.345C269.137 209.945 268.837 210.245 268.252 210.245H266.872V214.985C266.737 215.555 266.482 216.02 266.122 216.365C265.762 216.695 265.387 216.875 264.967 216.875C264.352 216.875 263.902 216.71 263.632 216.41C263.347 216.11 263.212 215.63 263.212 214.97V210.245H261.622V215.075C261.622 217.16 262.552 218.21 264.427 218.21C265.402 218.21 266.212 217.79 266.872 216.95V218H268.462V211.385H268.747C269.917 211.385 270.502 210.74 270.502 209.48V208.385H269.137ZM265.761 218.975C265.536 218.975 265.356 219.05 265.206 219.2C265.041 219.35 264.966 219.545 264.966 219.77C264.966 219.98 265.041 220.175 265.206 220.325C265.356 220.475 265.536 220.55 265.761 220.55C265.971 220.55 266.166 220.475 266.316 220.325C266.466 220.175 266.556 219.98 266.556 219.77C266.556 219.545 266.466 219.35 266.316 219.2C266.166 219.05 265.971 218.975 265.761 218.975ZM279.8 208.25V209.18H282.29V211.4C281.66 210.485 280.865 210.035 279.92 210.035C278.795 210.035 277.925 210.44 277.295 211.25C276.695 212 276.41 212.945 276.41 214.085C276.41 215.27 276.71 216.245 277.31 216.995C277.955 217.805 278.855 218.21 279.995 218.21C281.045 218.21 281.855 217.82 282.395 217.07V218H283.88V209.18H285.11V208.25H283.88V207.08H282.29V208.25H279.8ZM280.28 211.325C280.865 211.325 281.345 211.55 281.735 212.03C282.125 212.54 282.335 213.215 282.335 214.055V214.19C282.335 214.97 282.17 215.615 281.84 216.095C281.45 216.635 280.925 216.92 280.235 216.92C279.455 216.92 278.87 216.635 278.51 216.08C278.195 215.6 278.045 214.94 278.045 214.085C278.045 213.23 278.21 212.57 278.54 212.12C278.915 211.58 279.5 211.325 280.28 211.325ZM289.581 210.035C288.411 210.035 287.466 210.425 286.761 211.205C286.056 211.97 285.711 212.945 285.711 214.13C285.711 215.3 286.056 216.275 286.746 217.025C287.466 217.805 288.411 218.21 289.581 218.21C290.751 218.21 291.696 217.805 292.416 217.025C293.106 216.275 293.451 215.3 293.451 214.13C293.451 212.945 293.091 211.97 292.401 211.205C291.696 210.425 290.751 210.035 289.581 210.035ZM289.581 211.34C290.316 211.34 290.886 211.625 291.306 212.21C291.666 212.705 291.846 213.35 291.846 214.13C291.846 214.895 291.666 215.525 291.306 216.035C290.886 216.605 290.316 216.905 289.581 216.905C288.846 216.905 288.276 216.605 287.871 216.035C287.511 215.54 287.346 214.91 287.346 214.13C287.346 213.35 287.511 212.705 287.871 212.21C288.276 211.625 288.846 211.34 289.581 211.34ZM289.579 218.975C289.354 218.975 289.174 219.05 289.024 219.2C288.859 219.35 288.784 219.545 288.784 219.77C288.784 219.98 288.859 220.175 289.024 220.325C289.174 220.475 289.354 220.55 289.579 220.55C289.789 220.55 289.984 220.475 290.134 220.325C290.284 220.175 290.374 219.98 290.374 219.77C290.374 219.545 290.284 219.35 290.134 219.2C289.984 219.05 289.789 218.975 289.579 218.975ZM288.889 207.26L287.344 209.165H288.349L289.579 207.95L290.824 209.165H291.829L290.284 207.26H288.889ZM298.892 210.035C298.412 210.035 297.977 210.125 297.587 210.335C297.197 210.53 296.852 210.815 296.552 211.205V210.245H294.962V218H296.552V213.335C296.612 212.705 296.837 212.21 297.197 211.85C297.527 211.52 297.932 211.37 298.382 211.37C299.582 211.37 300.197 212.03 300.197 213.35V218H301.787V213.215C301.787 211.085 300.812 210.035 298.892 210.035ZM306.829 210.035C305.779 210.035 304.924 210.395 304.279 211.13C303.619 211.85 303.304 212.78 303.304 213.95C303.304 215.12 303.619 216.05 304.279 216.755C304.924 217.46 305.779 217.82 306.829 217.82C307.849 217.82 308.629 217.385 309.199 216.53V217.73C309.199 219.185 308.524 219.92 307.174 219.92C306.544 219.92 306.079 219.815 305.794 219.635C305.494 219.44 305.314 219.11 305.224 218.66H303.634C303.784 219.515 304.129 220.145 304.699 220.565C305.269 220.97 306.094 221.18 307.174 221.18C309.574 221.18 310.789 219.95 310.789 217.49V210.245H309.199V211.28C308.629 210.44 307.849 210.035 306.829 210.035ZM307.069 211.325C307.744 211.325 308.269 211.55 308.659 212.03C309.019 212.495 309.214 213.14 309.214 213.95C309.214 214.745 309.019 215.375 308.659 215.84C308.269 216.29 307.744 216.515 307.069 216.515C306.289 216.515 305.734 216.245 305.389 215.735C305.089 215.3 304.939 214.7 304.939 213.95C304.939 213.125 305.119 212.48 305.509 212.03C305.869 211.55 306.394 211.325 307.069 211.325ZM270.579 231.035C269.379 231.035 268.449 231.44 267.774 232.25C267.144 233 266.829 233.96 266.829 235.13C266.829 236.33 267.144 237.29 267.789 238.04C268.449 238.82 269.364 239.21 270.549 239.21C271.539 239.21 272.349 238.955 272.949 238.46C273.549 237.95 273.954 237.17 274.134 236.135H272.559C272.409 237.305 271.749 237.905 270.564 237.905C269.874 237.905 269.364 237.65 269.019 237.17C268.644 236.675 268.464 235.985 268.464 235.115C268.464 234.245 268.644 233.555 269.034 233.075C269.409 232.58 269.919 232.34 270.579 232.34C271.119 232.34 271.554 232.46 271.884 232.715C272.214 232.955 272.424 233.345 272.529 233.87H274.104C273.954 232.91 273.564 232.19 272.964 231.71C272.364 231.26 271.569 231.035 270.579 231.035ZM275.494 228.08V239H277.084V234.65C277.084 233.975 277.249 233.42 277.594 232.985C277.924 232.55 278.359 232.34 278.899 232.34C279.499 232.34 279.964 232.52 280.264 232.895C280.534 233.255 280.684 233.765 280.684 234.455V239H282.274V234.185C282.274 233.165 282.049 232.385 281.599 231.86C281.119 231.305 280.414 231.035 279.484 231.035C278.989 231.035 278.554 231.125 278.164 231.335C277.729 231.545 277.369 231.89 277.084 232.34V228.08H275.494ZM287.648 231.035C286.478 231.035 285.533 231.425 284.828 232.205C284.123 232.97 283.778 233.945 283.778 235.13C283.778 236.3 284.123 237.275 284.813 238.025C285.533 238.805 286.478 239.21 287.648 239.21C288.818 239.21 289.763 238.805 290.483 238.025C291.173 237.275 291.518 236.3 291.518 235.13C291.518 233.945 291.158 232.97 290.468 232.205C289.763 231.425 288.818 231.035 287.648 231.035ZM287.648 232.34C288.383 232.34 288.953 232.625 289.373 233.21C289.733 233.705 289.913 234.35 289.913 235.13C289.913 235.895 289.733 236.525 289.373 237.035C288.953 237.605 288.383 237.905 287.648 237.905C286.913 237.905 286.343 237.605 285.938 237.035C285.578 236.54 285.413 235.91 285.413 235.13C285.413 234.35 285.578 233.705 285.938 233.21C286.343 232.625 286.913 232.34 287.648 232.34ZM287.646 239.975C287.421 239.975 287.241 240.05 287.091 240.2C286.926 240.35 286.851 240.545 286.851 240.77C286.851 240.98 286.926 241.175 287.091 241.325C287.241 241.475 287.421 241.55 287.646 241.55C287.856 241.55 288.051 241.475 288.201 241.325C288.351 241.175 288.441 240.98 288.441 240.77C288.441 240.545 288.351 240.35 288.201 240.2C288.051 240.05 287.856 239.975 287.646 239.975ZM296.958 231.035C296.478 231.035 296.043 231.125 295.653 231.335C295.263 231.53 294.918 231.815 294.618 232.205V231.245H293.028V239H294.618V234.335C294.678 233.705 294.903 233.21 295.263 232.85C295.593 232.52 295.998 232.37 296.448 232.37C297.648 232.37 298.263 233.03 298.263 234.35V239H299.853V234.215C299.853 232.085 298.878 231.035 296.958 231.035Z" fill="#484848"/>
</g>
</g>
<g clip-path="url(#clip5_426_25738)">
<rect x="337.25" y="199" width="87.25" height="50" rx="10" fill="#161F2C"/>
<g clip-path="url(#clip6_426_25738)">
<path d="M368.448 221.245L371.133 224.875L368.103 229H369.978L372.018 226.045L374.043 229H375.903L372.888 224.875L375.573 221.245H373.713L372.018 223.705L370.308 221.245H368.448ZM381.052 218.17L379.642 220.36H380.677L382.807 218.17H381.052ZM380.452 221.035C379.282 221.035 378.337 221.425 377.617 222.235C376.927 222.985 376.582 223.96 376.582 225.13C376.582 226.3 376.927 227.26 377.617 228.01C378.322 228.805 379.267 229.21 380.452 229.21C381.637 229.21 382.582 228.805 383.302 228.01C383.977 227.26 384.322 226.3 384.322 225.13C384.322 223.96 383.977 222.985 383.302 222.235C382.582 221.425 381.622 221.035 380.452 221.035ZM380.452 222.34C381.142 222.34 381.682 222.58 382.087 223.09C382.477 223.6 382.687 224.275 382.687 225.13C382.687 225.97 382.477 226.63 382.087 227.14C381.682 227.65 381.142 227.905 380.452 227.905C379.762 227.905 379.222 227.65 378.817 227.14C378.427 226.63 378.232 225.97 378.232 225.13C378.232 224.275 378.427 223.6 378.817 223.09C379.222 222.58 379.762 222.34 380.452 222.34ZM389.327 221.035C388.367 221.035 387.587 221.2 387.017 221.56C386.357 221.95 385.937 222.58 385.772 223.42L387.347 223.555C387.437 223.12 387.662 222.805 388.022 222.595C388.322 222.415 388.727 222.325 389.222 222.325C390.392 222.325 390.977 222.865 390.977 223.945V224.26L389.237 224.305C388.097 224.335 387.197 224.56 386.567 225.01C385.877 225.475 385.532 226.15 385.532 227.02C385.532 227.665 385.772 228.19 386.267 228.595C386.717 229 387.347 229.21 388.157 229.21C388.847 229.21 389.447 229.075 389.957 228.835C390.407 228.61 390.782 228.295 391.082 227.905V229H392.552V224.05C392.552 223.105 392.312 222.385 391.847 221.89C391.307 221.32 390.467 221.035 389.327 221.035ZM390.977 225.415V225.865C390.977 226.465 390.722 226.975 390.242 227.38C389.762 227.785 389.192 227.995 388.517 227.995C388.112 227.995 387.782 227.89 387.542 227.695C387.287 227.5 387.167 227.26 387.167 226.96C387.167 226 387.887 225.49 389.342 225.46L390.977 225.415Z" fill="white"/>
</g>
</g>
<rect x="337.75" y="199.5" width="86.25" height="49" rx="9.5" stroke="#55657E"/>
<defs>
<filter id="filter0_d_426_25738" x="342.818" y="101.004" width="72.524" height="25.248" filterUnits="userSpaceOnUse" color-interpolation-filters="sRGB">
<feFlood flood-opacity="0" result="BackgroundImageFix"/>
<feColorMatrix in="SourceAlpha" type="matrix" values="0 0 0 0 0 0 0 0 0 0 0 0 0 0 0 0 0 0 127 0" result="hardAlpha"/>
<feOffset dy="2"/>
<feGaussianBlur stdDeviation="2"/>
<feComposite in2="hardAlpha" operator="out"/>
<feColorMatrix type="matrix" values="0 0 0 0 0 0 0 0 0 0 0 0 0 0 0 0 0 0 0.3 0"/>
<feBlend mode="normal" in2="BackgroundImageFix" result="effect1_dropShadow_426_25738"/>
<feBlend mode="normal" in="SourceGraphic" in2="effect1_dropShadow_426_25738" result="shape"/>
</filter>
<clipPath id="clip0_426_25738">
<rect width="143" height="46" fill="white" transform="translate(103 90.5)"/>
</clipPath>
<clipPath id="clip1_426_25738">
<rect width="24" height="24" fill="white" transform="translate(103 90.5)"/>
</clipPath>
<clipPath id="clip2_426_25738">
<rect x="333.5" y="75" width="91" height="77" rx="10" fill="white"/>
</clipPath>
<clipPath id="clip3_426_25738">
<rect x="240" y="199" width="87.25" height="50" rx="10" fill="white"/>
</clipPath>
<clipPath id="clip4_426_25738">
<rect width="87.25" height="50" fill="white" transform="translate(240 199)"/>
</clipPath>
<clipPath id="clip5_426_25738">
<rect x="337.25" y="199" width="87.25" height="50" rx="10" fill="white"/>
</clipPath>
<clipPath id="clip6_426_25738">
<rect width="87.25" height="40" fill="white" transform="translate(337.25 204)"/>
</clipPath>
</defs>
</svg>
