<svg width="460" height="324" viewBox="0 0 460 324" fill="none" xmlns="http://www.w3.org/2000/svg">
<rect width="460" height="324" rx="10" fill="#0D131C"/>
<rect x="23.5" y="20" width="413" height="284" rx="15" fill="#161F2C"/>
<rect x="36" y="75.5" width="277" height="76" rx="9.5" fill="#161F2C"/>
<rect x="43.5" y="83" width="50" height="26.5" rx="10" fill="#383C45"/>
<path d="M56.0939 101.9C55.1539 101.9 54.4239 101.675 53.9039 101.225C53.3939 100.765 53.1389 100.08 53.1389 99.17V98.255C53.1389 97.755 53.2089 97.36 53.3489 97.07C53.4889 96.78 53.6389 96.53 53.7989 96.32C53.9689 96.09 54.1139 95.89 54.2339 95.72C54.3639 95.55 54.4289 95.345 54.4289 95.105C54.4289 94.895 54.3739 94.745 54.2639 94.655C54.1639 94.565 54.0339 94.52 53.8739 94.52C53.7539 94.52 53.6239 94.54 53.4839 94.58C53.3539 94.62 53.2239 94.67 53.0939 94.73L52.7939 93.77C52.9739 93.65 53.1939 93.565 53.4539 93.515C53.7239 93.465 53.9589 93.44 54.1589 93.44C54.5289 93.44 54.8239 93.505 55.0439 93.635C55.2739 93.765 55.4389 93.945 55.5389 94.175C55.6389 94.395 55.6889 94.655 55.6889 94.955C55.6889 95.325 55.6239 95.63 55.4939 95.87C55.3739 96.11 55.2289 96.345 55.0589 96.575C54.8889 96.825 54.7489 97.065 54.6389 97.295C54.5289 97.525 54.4739 97.825 54.4739 98.195V99.08C54.4739 99.54 54.5489 99.895 54.6989 100.145C54.8489 100.395 55.0489 100.57 55.2989 100.67C55.5489 100.76 55.8139 100.805 56.0939 100.805C56.5939 100.805 56.9739 100.69 57.2339 100.46C57.5039 100.22 57.6389 99.855 57.6389 99.365V93.53H58.9739V99.44C58.9739 100.21 58.7289 100.815 58.2389 101.255C57.7589 101.685 57.0439 101.9 56.0939 101.9ZM57.0496 92.225C56.6296 92.225 56.2946 92.165 56.0446 92.045C55.7946 91.925 55.6146 91.77 55.5046 91.58C55.3846 91.39 55.3246 91.19 55.3246 90.98C55.3246 90.83 55.3496 90.67 55.3996 90.5C55.4396 90.32 55.4946 90.175 55.5646 90.065L56.6896 90.26C56.6696 90.3 56.6496 90.37 56.6296 90.47C56.6096 90.56 56.5996 90.645 56.5996 90.725C56.5996 90.855 56.6396 90.97 56.7196 91.07C56.7996 91.16 56.9346 91.205 57.1246 91.205H60.9196V92.225H57.0496ZM56.8737 90.06V89.535C57.0037 89.505 57.1437 89.46 57.2937 89.4C57.4437 89.34 57.5737 89.265 57.6837 89.175C57.7937 89.075 57.8487 88.95 57.8487 88.8C57.8487 88.69 57.8187 88.605 57.7587 88.545C57.6987 88.485 57.6137 88.455 57.5037 88.455C57.4237 88.455 57.3437 88.47 57.2637 88.5C57.1737 88.52 57.0887 88.555 57.0087 88.605L56.7387 87.915C56.9187 87.795 57.1237 87.715 57.3537 87.675C57.5737 87.635 57.7487 87.615 57.8787 87.615C58.1387 87.615 58.3737 87.685 58.5837 87.825C58.7937 87.955 58.8987 88.18 58.8987 88.5C58.8987 88.63 58.8737 88.78 58.8237 88.95C58.7637 89.11 58.6437 89.24 58.4637 89.34L58.3737 89.055H60.6537V90.06H56.8737ZM64.237 101.9C63.647 101.9 63.137 101.8 62.707 101.6C62.287 101.39 61.962 101.075 61.732 100.655C61.512 100.235 61.402 99.69 61.402 99.02V93.53H62.737V98.945C62.737 99.545 62.887 100 63.187 100.31C63.497 100.62 63.942 100.775 64.522 100.775C65.222 100.775 65.762 100.55 66.142 100.1C66.532 99.65 66.727 99.045 66.727 98.285V93.53H68.062V101.75H66.952L66.892 100.535H66.817C66.637 100.935 66.322 101.265 65.872 101.525C65.432 101.775 64.887 101.9 64.237 101.9ZM73.5112 101.9C72.6712 101.9 72.0212 101.71 71.5612 101.33C71.1012 100.94 70.7812 100.415 70.6012 99.755C70.4212 99.085 70.3312 98.325 70.3312 97.475C70.3312 96.495 70.4212 95.705 70.6012 95.105C70.7912 94.505 71.0662 94.07 71.4262 93.8C71.7862 93.52 72.2262 93.38 72.7462 93.38C73.0962 93.38 73.3912 93.44 73.6312 93.56C73.8812 93.68 74.0562 93.88 74.1562 94.16H74.2162C74.3162 93.87 74.4962 93.67 74.7562 93.56C75.0162 93.44 75.3212 93.38 75.6712 93.38C76.3212 93.38 76.8212 93.555 77.1712 93.905C77.5312 94.245 77.7112 94.77 77.7112 95.48V101.75H76.3762V95.495C76.3762 95.105 76.2912 94.84 76.1212 94.7C75.9512 94.56 75.7362 94.49 75.4762 94.49C75.1862 94.49 74.9712 94.56 74.8312 94.7C74.7012 94.84 74.6212 95.07 74.5912 95.39H73.7512C73.7112 95.04 73.6062 94.805 73.4362 94.685C73.2662 94.555 73.0762 94.49 72.8662 94.49C72.4662 94.49 72.1662 94.725 71.9662 95.195C71.7662 95.655 71.6662 96.42 71.6662 97.49C71.6662 98.18 71.7162 98.77 71.8162 99.26C71.9262 99.75 72.1262 100.13 72.4162 100.4C72.7062 100.66 73.1262 100.79 73.6762 100.79C73.8762 100.79 74.0412 100.78 74.1712 100.76C74.3012 100.74 74.4262 100.715 74.5462 100.685L74.6812 101.705C74.5312 101.775 74.3512 101.825 74.1412 101.855C73.9312 101.885 73.7212 101.9 73.5112 101.9ZM76.4638 92.585C75.9638 92.585 75.5688 92.47 75.2788 92.24C74.9888 92 74.8438 91.665 74.8438 91.235C74.8438 90.795 74.9888 90.46 75.2788 90.23C75.5688 90 75.9638 89.885 76.4638 89.885C76.9638 89.885 77.3638 90 77.6638 90.23C77.9638 90.46 78.1138 90.795 78.1138 91.235C78.1138 91.665 77.9638 92 77.6638 92.24C77.3638 92.47 76.9638 92.585 76.4638 92.585ZM76.4638 91.88C76.7038 91.88 76.8888 91.82 77.0188 91.7C77.1388 91.58 77.1988 91.425 77.1988 91.235C77.1988 91.035 77.1388 90.88 77.0188 90.77C76.8888 90.65 76.7038 90.59 76.4638 90.59C76.2338 90.59 76.0588 90.65 75.9388 90.77C75.8088 90.88 75.7438 91.035 75.7438 91.235C75.7438 91.425 75.8088 91.58 75.9388 91.7C76.0588 91.82 76.2338 91.88 76.4638 91.88ZM75.8293 89.06V86.615H77.1043V89.06H75.8293ZM82.4624 101.75V95.915C82.4624 95.425 82.3474 95.065 82.1174 94.835C81.8974 94.605 81.5224 94.49 80.9924 94.49C80.6324 94.49 80.2924 94.54 79.9724 94.64C79.6624 94.73 79.3624 94.86 79.0724 95.03V93.83C79.2724 93.73 79.5574 93.63 79.9274 93.53C80.2974 93.43 80.7374 93.38 81.2474 93.38C81.7674 93.38 82.2174 93.455 82.5974 93.605C82.9774 93.755 83.2724 94.005 83.4824 94.355C83.6924 94.695 83.7974 95.15 83.7974 95.72V101.75H82.4624Z" fill="#7C8499"/>
<rect x="43.5" y="117.5" width="50" height="26.5" rx="10" fill="#383C45"/>
<path d="M54.9733 136.4C54.0333 136.4 53.3033 136.175 52.7833 135.725C52.2733 135.265 52.0183 134.58 52.0183 133.67V132.755C52.0183 132.255 52.0883 131.86 52.2283 131.57C52.3683 131.28 52.5183 131.03 52.6783 130.82C52.8483 130.59 52.9933 130.39 53.1133 130.22C53.2433 130.05 53.3083 129.845 53.3083 129.605C53.3083 129.395 53.2533 129.245 53.1433 129.155C53.0433 129.065 52.9133 129.02 52.7533 129.02C52.6333 129.02 52.5033 129.04 52.3633 129.08C52.2333 129.12 52.1033 129.17 51.9733 129.23L51.6733 128.27C51.8533 128.15 52.0733 128.065 52.3333 128.015C52.6033 127.965 52.8383 127.94 53.0383 127.94C53.4083 127.94 53.7033 128.005 53.9233 128.135C54.1533 128.265 54.3183 128.445 54.4183 128.675C54.5183 128.895 54.5683 129.155 54.5683 129.455C54.5683 129.825 54.5033 130.13 54.3733 130.37C54.2533 130.61 54.1083 130.845 53.9383 131.075C53.7683 131.325 53.6283 131.565 53.5183 131.795C53.4083 132.025 53.3533 132.325 53.3533 132.695V133.58C53.3533 134.04 53.4283 134.395 53.5783 134.645C53.7283 134.895 53.9283 135.07 54.1783 135.17C54.4283 135.26 54.6933 135.305 54.9733 135.305C55.4733 135.305 55.8533 135.19 56.1133 134.96C56.3833 134.72 56.5183 134.355 56.5183 133.865V128.03H57.8533V133.94C57.8533 134.71 57.6083 135.315 57.1183 135.755C56.6383 136.185 55.9233 136.4 54.9733 136.4ZM51.4589 126.725V126.14L52.5539 125.66H57.8339V126.725H51.4589ZM56.5889 126.14V124.445H57.8489V126.14H56.5889ZM63.0864 136.4C62.2864 136.4 61.6564 136.215 61.1964 135.845C60.7464 135.465 60.4264 134.955 60.2364 134.315C60.0564 133.675 59.9664 132.97 59.9664 132.2C59.9664 131.35 60.0514 130.65 60.2214 130.1C60.4014 129.54 60.6514 129.1 60.9714 128.78C61.3014 128.45 61.6914 128.22 62.1414 128.09C62.6014 127.95 63.1064 127.88 63.6564 127.88C64.4564 127.88 65.1064 128 65.6064 128.24C66.1164 128.47 66.4914 128.8 66.7314 129.23C66.9714 129.66 67.0914 130.175 67.0914 130.775V136.25H65.7714V130.895C65.7714 130.275 65.6164 129.805 65.3064 129.485C64.9964 129.155 64.4614 128.99 63.7014 128.99C63.2414 128.99 62.8264 129.075 62.4564 129.245C62.0964 129.415 61.8114 129.73 61.6014 130.19C61.4014 130.65 61.3014 131.325 61.3014 132.215C61.3014 132.795 61.3564 133.32 61.4664 133.79C61.5864 134.25 61.7914 134.615 62.0814 134.885C62.3714 135.155 62.7764 135.29 63.2964 135.29C63.4464 135.29 63.5864 135.28 63.7164 135.26C63.8464 135.24 63.9714 135.21 64.0914 135.17L64.2264 136.205C64.0664 136.275 63.8814 136.325 63.6714 136.355C63.4714 136.385 63.2764 136.4 63.0864 136.4ZM74.3396 136.25V130.775C74.3396 130.125 74.1896 129.665 73.8896 129.395C73.5996 129.115 73.1096 128.975 72.4196 128.975C71.9196 128.975 71.4396 129.045 70.9796 129.185C70.5296 129.315 70.0996 129.5 69.6896 129.74V128.495C69.9796 128.345 70.3696 128.205 70.8596 128.075C71.3596 127.945 71.9196 127.88 72.5396 127.88C73.0696 127.88 73.5196 127.94 73.8896 128.06C74.2696 128.18 74.5496 128.4 74.7296 128.72C75.0796 128.88 75.3196 129.13 75.4496 129.47C75.5896 129.81 75.6596 130.22 75.6596 130.7V136.25H74.3396ZM71.7596 136.4C70.8796 136.4 70.2046 136.2 69.7346 135.8C69.2746 135.39 69.0446 134.805 69.0446 134.045C69.0446 133.215 69.3446 132.575 69.9446 132.125C70.5546 131.675 71.5396 131.41 72.8996 131.33L74.6096 131.225V132.335L73.0796 132.44C72.0596 132.51 71.3546 132.67 70.9646 132.92C70.5846 133.17 70.3946 133.535 70.3946 134.015C70.3946 134.465 70.5346 134.795 70.8146 135.005C71.1046 135.215 71.5046 135.32 72.0146 135.32C72.1846 135.32 72.3396 135.31 72.4796 135.29C72.6196 135.26 72.7546 135.225 72.8846 135.185L73.0946 136.19C72.9046 136.26 72.6946 136.31 72.4646 136.34C72.2446 136.38 72.0096 136.4 71.7596 136.4ZM74.6846 129.185L73.9346 128.48C74.1946 128.44 74.4396 128.34 74.6696 128.18C74.8996 128.02 75.0146 127.79 75.0146 127.49H76.3196C76.3196 127.8 76.2446 128.075 76.0946 128.315C75.9546 128.545 75.7596 128.735 75.5096 128.885C75.2596 129.025 74.9846 129.125 74.6846 129.185ZM74.4611 140.165V138.575C74.4611 138.325 74.3511 138.2 74.1311 138.2C74.0811 138.2 74.0311 138.205 73.9811 138.215C73.9211 138.225 73.8661 138.24 73.8161 138.26L73.7111 137.36C73.8611 137.31 74.0261 137.27 74.2061 137.24C74.3761 137.22 74.5161 137.21 74.6261 137.21C74.9761 137.21 75.2361 137.29 75.4061 137.45C75.5661 137.62 75.6461 137.85 75.6461 138.14V140.165H74.4611ZM80.9136 136.4C80.1136 136.4 79.4836 136.215 79.0236 135.845C78.5736 135.465 78.2536 134.955 78.0636 134.315C77.8836 133.675 77.7936 132.97 77.7936 132.2C77.7936 131.35 77.8786 130.65 78.0486 130.1C78.2286 129.54 78.4786 129.1 78.7986 128.78C79.1286 128.45 79.5186 128.22 79.9686 128.09C80.4286 127.95 80.9336 127.88 81.4836 127.88C82.2836 127.88 82.9336 128 83.4336 128.24C83.9436 128.47 84.3186 128.8 84.5586 129.23C84.7986 129.66 84.9186 130.175 84.9186 130.775V136.25H83.5986V130.895C83.5986 130.275 83.4436 129.805 83.1336 129.485C82.8236 129.155 82.2886 128.99 81.5286 128.99C81.0686 128.99 80.6536 129.075 80.2836 129.245C79.9236 129.415 79.6386 129.73 79.4286 130.19C79.2286 130.65 79.1286 131.325 79.1286 132.215C79.1286 132.795 79.1836 133.32 79.2936 133.79C79.4136 134.25 79.6186 134.615 79.9086 134.885C80.1986 135.155 80.6036 135.29 81.1236 135.29C81.2736 135.29 81.4136 135.28 81.5436 135.26C81.6736 135.24 81.7986 135.21 81.9186 135.17L82.0536 136.205C81.8936 136.275 81.7086 136.325 81.4986 136.355C81.2986 136.385 81.1036 136.4 80.9136 136.4Z" fill="#7C8499"/>
<g clip-path="url(#clip0_426_25387)">
<g clip-path="url(#clip1_426_25387)">
<path d="M126.639 105.403C125.037 111.831 118.526 115.744 112.096 114.141C105.669 112.538 101.757 106.026 103.361 99.5984C104.963 93.169 111.474 89.2564 117.901 90.8591C124.33 92.4618 128.242 98.974 126.639 105.403L126.639 105.403H126.639Z" fill="#F7931A"/>
<path d="M120.291 100.79C120.53 99.1934 119.315 98.335 117.652 97.7623L118.191 95.5991L116.875 95.271L116.35 97.3773C116.003 97.2909 115.648 97.2096 115.294 97.1289L115.823 95.0088L114.507 94.6807L113.968 96.8432C113.681 96.7779 113.4 96.7135 113.127 96.6455L113.128 96.6387L111.313 96.1853L110.962 97.5917C110.962 97.5917 111.939 97.8157 111.919 97.8294C112.452 97.9625 112.548 98.3155 112.532 98.5953L111.918 101.06C111.955 101.069 112.002 101.082 112.055 101.104C112.011 101.093 111.964 101.081 111.916 101.069L111.054 104.521C110.989 104.683 110.824 104.927 110.451 104.834C110.464 104.853 109.494 104.595 109.494 104.595L108.84 106.103L110.554 106.53C110.873 106.61 111.185 106.693 111.493 106.772L110.948 108.96L112.263 109.288L112.803 107.123C113.162 107.221 113.511 107.311 113.852 107.396L113.314 109.55L114.631 109.878L115.176 107.695C117.421 108.12 119.11 107.948 119.82 105.917C120.393 104.282 119.792 103.339 118.611 102.724C119.471 102.525 120.119 101.96 120.292 100.791L120.292 100.79L120.291 100.79ZM117.283 105.009C116.876 106.644 114.123 105.76 113.23 105.539L113.953 102.64C114.846 102.863 117.708 103.304 117.283 105.009H117.283ZM117.69 100.767C117.319 102.254 115.027 101.498 114.284 101.313L114.94 98.6841C115.683 98.8694 118.077 99.2152 117.69 100.767H117.69Z" fill="white"/>
</g>
<path d="M132.215 104.005C132.215 101.556 132.654 99.8418 133.533 98.8633C134.418 97.8848 135.763 97.3955 137.567 97.3955C138.435 97.3955 139.146 97.5039 139.703 97.7207C140.26 97.9316 140.714 98.21 141.065 98.5557C141.417 98.8955 141.692 99.2559 141.892 99.6367C142.097 100.012 142.261 100.451 142.384 100.955C142.624 101.916 142.744 102.918 142.744 103.961C142.744 106.299 142.349 108.01 141.558 109.094C140.767 110.178 139.404 110.72 137.471 110.72C136.387 110.72 135.511 110.547 134.843 110.201C134.175 109.855 133.627 109.349 133.199 108.681C132.889 108.206 132.646 107.559 132.47 106.738C132.3 105.912 132.215 105.001 132.215 104.005ZM135.766 104.014C135.766 105.654 135.909 106.776 136.196 107.38C136.489 107.978 136.911 108.276 137.462 108.276C137.825 108.276 138.139 108.15 138.402 107.898C138.672 107.641 138.868 107.236 138.991 106.686C139.12 106.135 139.185 105.276 139.185 104.11C139.185 102.399 139.038 101.251 138.745 100.665C138.458 100.073 138.024 99.7773 137.444 99.7773C136.853 99.7773 136.425 100.079 136.161 100.683C135.897 101.28 135.766 102.391 135.766 104.014ZM144.572 106.914H148.396V110.5H144.572V106.914ZM150.215 104.005C150.215 101.556 150.654 99.8418 151.533 98.8633C152.418 97.8848 153.763 97.3955 155.567 97.3955C156.435 97.3955 157.146 97.5039 157.703 97.7207C158.26 97.9316 158.714 98.21 159.065 98.5557C159.417 98.8955 159.692 99.2559 159.892 99.6367C160.097 100.012 160.261 100.451 160.384 100.955C160.624 101.916 160.744 102.918 160.744 103.961C160.744 106.299 160.349 108.01 159.558 109.094C158.767 110.178 157.404 110.72 155.471 110.72C154.387 110.72 153.511 110.547 152.843 110.201C152.175 109.855 151.627 109.349 151.199 108.681C150.889 108.206 150.646 107.559 150.47 106.738C150.3 105.912 150.215 105.001 150.215 104.005ZM153.766 104.014C153.766 105.654 153.909 106.776 154.196 107.38C154.489 107.978 154.911 108.276 155.462 108.276C155.825 108.276 156.139 108.15 156.402 107.898C156.672 107.641 156.868 107.236 156.991 106.686C157.12 106.135 157.185 105.276 157.185 104.11C157.185 102.399 157.038 101.251 156.745 100.665C156.458 100.073 156.024 99.7773 155.444 99.7773C154.853 99.7773 154.425 100.079 154.161 100.683C153.897 101.28 153.766 102.391 153.766 104.014ZM162.221 104.005C162.221 101.556 162.66 99.8418 163.539 98.8633C164.424 97.8848 165.769 97.3955 167.573 97.3955C168.44 97.3955 169.152 97.5039 169.709 97.7207C170.266 97.9316 170.72 98.21 171.071 98.5557C171.423 98.8955 171.698 99.2559 171.897 99.6367C172.103 100.012 172.267 100.451 172.39 100.955C172.63 101.916 172.75 102.918 172.75 103.961C172.75 106.299 172.354 108.01 171.563 109.094C170.772 110.178 169.41 110.72 167.477 110.72C166.393 110.72 165.517 110.547 164.849 110.201C164.181 109.855 163.633 109.349 163.205 108.681C162.895 108.206 162.651 107.559 162.476 106.738C162.306 105.912 162.221 105.001 162.221 104.005ZM165.771 104.014C165.771 105.654 165.915 106.776 166.202 107.38C166.495 107.978 166.917 108.276 167.468 108.276C167.831 108.276 168.145 108.15 168.408 107.898C168.678 107.641 168.874 107.236 168.997 106.686C169.126 106.135 169.19 105.276 169.19 104.11C169.19 102.399 169.044 101.251 168.751 100.665C168.464 100.073 168.03 99.7773 167.45 99.7773C166.858 99.7773 166.431 100.079 166.167 100.683C165.903 101.28 165.771 102.391 165.771 104.014ZM174.227 104.005C174.227 101.556 174.666 99.8418 175.545 98.8633C176.43 97.8848 177.774 97.3955 179.579 97.3955C180.446 97.3955 181.158 97.5039 181.715 97.7207C182.271 97.9316 182.726 98.21 183.077 98.5557C183.429 98.8955 183.704 99.2559 183.903 99.6367C184.108 100.012 184.272 100.451 184.396 100.955C184.636 101.916 184.756 102.918 184.756 103.961C184.756 106.299 184.36 108.01 183.569 109.094C182.778 110.178 181.416 110.72 179.482 110.72C178.398 110.72 177.522 110.547 176.854 110.201C176.187 109.855 175.639 109.349 175.211 108.681C174.9 108.206 174.657 107.559 174.481 106.738C174.312 105.912 174.227 105.001 174.227 104.005ZM177.777 104.014C177.777 105.654 177.921 106.776 178.208 107.38C178.501 107.978 178.923 108.276 179.474 108.276C179.837 108.276 180.15 108.15 180.414 107.898C180.684 107.641 180.88 107.236 181.003 106.686C181.132 106.135 181.196 105.276 181.196 104.11C181.196 102.399 181.05 101.251 180.757 100.665C180.47 100.073 180.036 99.7773 179.456 99.7773C178.864 99.7773 178.437 100.079 178.173 100.683C177.909 101.28 177.777 102.391 177.777 104.014ZM186.232 104.005C186.232 101.556 186.672 99.8418 187.551 98.8633C188.436 97.8848 189.78 97.3955 191.585 97.3955C192.452 97.3955 193.164 97.5039 193.721 97.7207C194.277 97.9316 194.731 98.21 195.083 98.5557C195.435 98.8955 195.71 99.2559 195.909 99.6367C196.114 100.012 196.278 100.451 196.401 100.955C196.642 101.916 196.762 102.918 196.762 103.961C196.762 106.299 196.366 108.01 195.575 109.094C194.784 110.178 193.422 110.72 191.488 110.72C190.404 110.72 189.528 110.547 188.86 110.201C188.192 109.855 187.645 109.349 187.217 108.681C186.906 108.206 186.663 107.559 186.487 106.738C186.317 105.912 186.232 105.001 186.232 104.005ZM189.783 104.014C189.783 105.654 189.927 106.776 190.214 107.38C190.507 107.978 190.929 108.276 191.479 108.276C191.843 108.276 192.156 108.15 192.42 107.898C192.689 107.641 192.886 107.236 193.009 106.686C193.138 106.135 193.202 105.276 193.202 104.11C193.202 102.399 193.056 101.251 192.763 100.665C192.476 100.073 192.042 99.7773 191.462 99.7773C190.87 99.7773 190.442 100.079 190.179 100.683C189.915 101.28 189.783 102.391 189.783 104.014ZM206.351 97.3955V110.5H202.729V101.913C202.144 102.358 201.575 102.719 201.024 102.994C200.479 103.27 199.794 103.533 198.968 103.785V100.85C200.187 100.457 201.133 99.9854 201.807 99.4346C202.48 98.8838 203.008 98.2041 203.389 97.3955H206.351ZM210.244 104.005C210.244 101.556 210.684 99.8418 211.562 98.8633C212.447 97.8848 213.792 97.3955 215.597 97.3955C216.464 97.3955 217.176 97.5039 217.732 97.7207C218.289 97.9316 218.743 98.21 219.095 98.5557C219.446 98.8955 219.722 99.2559 219.921 99.6367C220.126 100.012 220.29 100.451 220.413 100.955C220.653 101.916 220.773 102.918 220.773 103.961C220.773 106.299 220.378 108.01 219.587 109.094C218.796 110.178 217.434 110.72 215.5 110.72C214.416 110.72 213.54 110.547 212.872 110.201C212.204 109.855 211.656 109.349 211.229 108.681C210.918 108.206 210.675 107.559 210.499 106.738C210.329 105.912 210.244 105.001 210.244 104.005ZM213.795 104.014C213.795 105.654 213.938 106.776 214.226 107.38C214.519 107.978 214.94 108.276 215.491 108.276C215.854 108.276 216.168 108.15 216.432 107.898C216.701 107.641 216.897 107.236 217.021 106.686C217.149 106.135 217.214 105.276 217.214 104.11C217.214 102.399 217.067 101.251 216.774 100.665C216.487 100.073 216.054 99.7773 215.474 99.7773C214.882 99.7773 214.454 100.079 214.19 100.683C213.927 101.28 213.795 102.391 213.795 104.014ZM222.25 104.005C222.25 101.556 222.689 99.8418 223.568 98.8633C224.453 97.8848 225.798 97.3955 227.603 97.3955C228.47 97.3955 229.182 97.5039 229.738 97.7207C230.295 97.9316 230.749 98.21 231.101 98.5557C231.452 98.8955 231.728 99.2559 231.927 99.6367C232.132 100.012 232.296 100.451 232.419 100.955C232.659 101.916 232.779 102.918 232.779 103.961C232.779 106.299 232.384 108.01 231.593 109.094C230.802 110.178 229.439 110.72 227.506 110.72C226.422 110.72 225.546 110.547 224.878 110.201C224.21 109.855 223.662 109.349 223.234 108.681C222.924 108.206 222.681 107.559 222.505 106.738C222.335 105.912 222.25 105.001 222.25 104.005ZM225.801 104.014C225.801 105.654 225.944 106.776 226.231 107.38C226.524 107.978 226.946 108.276 227.497 108.276C227.86 108.276 228.174 108.15 228.438 107.898C228.707 107.641 228.903 107.236 229.026 106.686C229.155 106.135 229.22 105.276 229.22 104.11C229.22 102.399 229.073 101.251 228.78 100.665C228.493 100.073 228.06 99.7773 227.479 99.7773C226.888 99.7773 226.46 100.079 226.196 100.683C225.933 101.28 225.801 102.391 225.801 104.014ZM234.256 104.005C234.256 101.556 234.695 99.8418 235.574 98.8633C236.459 97.8848 237.804 97.3955 239.608 97.3955C240.476 97.3955 241.188 97.5039 241.744 97.7207C242.301 97.9316 242.755 98.21 243.106 98.5557C243.458 98.8955 243.733 99.2559 243.933 99.6367C244.138 100.012 244.302 100.451 244.425 100.955C244.665 101.916 244.785 102.918 244.785 103.961C244.785 106.299 244.39 108.01 243.599 109.094C242.808 110.178 241.445 110.72 239.512 110.72C238.428 110.72 237.552 110.547 236.884 110.201C236.216 109.855 235.668 109.349 235.24 108.681C234.93 108.206 234.687 107.559 234.511 106.738C234.341 105.912 234.256 105.001 234.256 104.005ZM237.807 104.014C237.807 105.654 237.95 106.776 238.237 107.38C238.53 107.978 238.952 108.276 239.503 108.276C239.866 108.276 240.18 108.15 240.443 107.898C240.713 107.641 240.909 107.236 241.032 106.686C241.161 106.135 241.226 105.276 241.226 104.11C241.226 102.399 241.079 101.251 240.786 100.665C240.499 100.073 240.065 99.7773 239.485 99.7773C238.894 99.7773 238.466 100.079 238.202 100.683C237.938 101.28 237.807 102.391 237.807 104.014Z" fill="white"/>
<path d="M134.921 131.911V128.842C133.964 128.568 133.261 128.156 132.812 127.604C132.367 127.047 132.145 126.374 132.145 125.583C132.145 124.782 132.396 124.11 132.899 123.568C133.407 123.021 134.081 122.707 134.921 122.624V121.898H135.983V122.624C136.759 122.716 137.377 122.982 137.836 123.422C138.295 123.856 138.588 124.44 138.715 125.172L136.862 125.414C136.75 124.838 136.457 124.447 135.983 124.242V127.106C137.155 127.423 137.953 127.836 138.378 128.344C138.803 128.847 139.015 129.494 139.015 130.285C139.015 131.168 138.747 131.913 138.209 132.519C137.677 133.124 136.935 133.495 135.983 133.632V135.001H134.921V133.668C134.076 133.566 133.39 133.251 132.863 132.724C132.335 132.196 131.999 131.452 131.852 130.49L133.764 130.285C133.842 130.675 133.988 131.012 134.203 131.295C134.418 131.579 134.657 131.784 134.921 131.911ZM134.921 124.22C134.633 124.318 134.403 124.484 134.232 124.718C134.062 124.953 133.976 125.211 133.976 125.495C133.976 125.753 134.054 125.995 134.21 126.22C134.367 126.439 134.604 126.618 134.921 126.754V124.22ZM135.983 132.013C136.349 131.945 136.647 131.776 136.876 131.508C137.106 131.234 137.221 130.915 137.221 130.548C137.221 130.221 137.123 129.94 136.928 129.706C136.737 129.467 136.422 129.284 135.983 129.157V132.013ZM144.362 133.5V131.339H139.967V129.538L144.625 122.719H146.354V129.53H147.687V131.339H146.354V133.5H144.362ZM144.362 129.53V125.861L141.894 129.53H144.362ZM149.115 133.5V131.442H151.173V133.5H149.115ZM156.886 133.5V131.339H152.492V129.538L157.15 122.719H158.878V129.53H160.211V131.339H158.878V133.5H156.886ZM156.886 129.53V125.861L154.418 129.53H156.886ZM164.679 122.719C165.719 122.719 166.532 123.09 167.118 123.832C167.816 124.711 168.166 126.168 168.166 128.205C168.166 130.236 167.814 131.696 167.111 132.584C166.53 133.317 165.719 133.683 164.679 133.683C163.634 133.683 162.792 133.283 162.152 132.482C161.513 131.676 161.193 130.243 161.193 128.183C161.193 126.161 161.544 124.706 162.248 123.817C162.829 123.085 163.639 122.719 164.679 122.719ZM164.679 124.425C164.43 124.425 164.208 124.506 164.013 124.667C163.817 124.823 163.666 125.106 163.559 125.517C163.417 126.049 163.346 126.945 163.346 128.205C163.346 129.464 163.41 130.331 163.537 130.805C163.664 131.273 163.822 131.586 164.013 131.742C164.208 131.898 164.43 131.977 164.679 131.977C164.928 131.977 165.15 131.898 165.346 131.742C165.541 131.581 165.692 131.295 165.8 130.885C165.941 130.358 166.012 129.464 166.012 128.205C166.012 126.945 165.949 126.081 165.822 125.612C165.695 125.138 165.534 124.823 165.338 124.667C165.148 124.506 164.928 124.425 164.679 124.425ZM173.029 122.719C174.069 122.719 174.882 123.09 175.468 123.832C176.166 124.711 176.515 126.168 176.515 128.205C176.515 130.236 176.164 131.696 175.46 132.584C174.879 133.317 174.069 133.683 173.029 133.683C171.984 133.683 171.142 133.283 170.502 132.482C169.862 131.676 169.542 130.243 169.542 128.183C169.542 126.161 169.894 124.706 170.597 123.817C171.178 123.085 171.989 122.719 173.029 122.719ZM173.029 124.425C172.78 124.425 172.558 124.506 172.362 124.667C172.167 124.823 172.016 125.106 171.908 125.517C171.767 126.049 171.696 126.945 171.696 128.205C171.696 129.464 171.759 130.331 171.886 130.805C172.013 131.273 172.172 131.586 172.362 131.742C172.558 131.898 172.78 131.977 173.029 131.977C173.278 131.977 173.5 131.898 173.695 131.742C173.891 131.581 174.042 131.295 174.149 130.885C174.291 130.358 174.362 129.464 174.362 128.205C174.362 126.945 174.298 126.081 174.171 125.612C174.044 125.138 173.883 124.823 173.688 124.667C173.498 124.506 173.278 124.425 173.029 124.425ZM181.378 122.719C182.418 122.719 183.231 123.09 183.817 123.832C184.516 124.711 184.865 126.168 184.865 128.205C184.865 130.236 184.513 131.696 183.81 132.584C183.229 133.317 182.418 133.683 181.378 133.683C180.333 133.683 179.491 133.283 178.852 132.482C178.212 131.676 177.892 130.243 177.892 128.183C177.892 126.161 178.244 124.706 178.947 123.817C179.528 123.085 180.338 122.719 181.378 122.719ZM181.378 124.425C181.129 124.425 180.907 124.506 180.712 124.667C180.517 124.823 180.365 125.106 180.258 125.517C180.116 126.049 180.045 126.945 180.045 128.205C180.045 129.464 180.109 130.331 180.236 130.805C180.363 131.273 180.521 131.586 180.712 131.742C180.907 131.898 181.129 131.977 181.378 131.977C181.627 131.977 181.85 131.898 182.045 131.742C182.24 131.581 182.392 131.295 182.499 130.885C182.641 130.358 182.711 129.464 182.711 128.205C182.711 126.945 182.648 126.081 182.521 125.612C182.394 125.138 182.233 124.823 182.038 124.667C181.847 124.506 181.627 124.425 181.378 124.425ZM189.728 122.719C190.768 122.719 191.581 123.09 192.167 123.832C192.865 124.711 193.214 126.168 193.214 128.205C193.214 130.236 192.863 131.696 192.16 132.584C191.579 133.317 190.768 133.683 189.728 133.683C188.683 133.683 187.841 133.283 187.201 132.482C186.562 131.676 186.242 130.243 186.242 128.183C186.242 126.161 186.593 124.706 187.296 123.817C187.877 123.085 188.688 122.719 189.728 122.719ZM189.728 124.425C189.479 124.425 189.257 124.506 189.062 124.667C188.866 124.823 188.715 125.106 188.607 125.517C188.466 126.049 188.395 126.945 188.395 128.205C188.395 129.464 188.458 130.331 188.585 130.805C188.712 131.273 188.871 131.586 189.062 131.742C189.257 131.898 189.479 131.977 189.728 131.977C189.977 131.977 190.199 131.898 190.395 131.742C190.59 131.581 190.741 131.295 190.849 130.885C190.99 130.358 191.061 129.464 191.061 128.205C191.061 126.945 190.998 126.081 190.871 125.612C190.744 125.138 190.583 124.823 190.387 124.667C190.197 124.506 189.977 124.425 189.728 124.425ZM198.078 122.719C199.118 122.719 199.931 123.09 200.517 123.832C201.215 124.711 201.564 126.168 201.564 128.205C201.564 130.236 201.212 131.696 200.509 132.584C199.928 133.317 199.118 133.683 198.078 133.683C197.033 133.683 196.19 133.283 195.551 132.482C194.911 131.676 194.591 130.243 194.591 128.183C194.591 126.161 194.943 124.706 195.646 123.817C196.227 123.085 197.038 122.719 198.078 122.719ZM198.078 124.425C197.829 124.425 197.606 124.506 197.411 124.667C197.216 124.823 197.064 125.106 196.957 125.517C196.815 126.049 196.745 126.945 196.745 128.205C196.745 129.464 196.808 130.331 196.935 130.805C197.062 131.273 197.221 131.586 197.411 131.742C197.606 131.898 197.829 131.977 198.078 131.977C198.327 131.977 198.549 131.898 198.744 131.742C198.939 131.581 199.091 131.295 199.198 130.885C199.34 130.358 199.411 129.464 199.411 128.205C199.411 126.945 199.347 126.081 199.22 125.612C199.093 125.138 198.932 124.823 198.737 124.667C198.546 124.506 198.327 124.425 198.078 124.425ZM206.427 122.719C207.467 122.719 208.28 123.09 208.866 123.832C209.564 124.711 209.914 126.168 209.914 128.205C209.914 130.236 209.562 131.696 208.859 132.584C208.278 133.317 207.467 133.683 206.427 133.683C205.382 133.683 204.54 133.283 203.9 132.482C203.261 131.676 202.941 130.243 202.941 128.183C202.941 126.161 203.292 124.706 203.996 123.817C204.577 123.085 205.387 122.719 206.427 122.719ZM206.427 124.425C206.178 124.425 205.956 124.506 205.761 124.667C205.565 124.823 205.414 125.106 205.307 125.517C205.165 126.049 205.094 126.945 205.094 128.205C205.094 129.464 205.158 130.331 205.285 130.805C205.412 131.273 205.57 131.586 205.761 131.742C205.956 131.898 206.178 131.977 206.427 131.977C206.676 131.977 206.898 131.898 207.094 131.742C207.289 131.581 207.44 131.295 207.548 130.885C207.689 130.358 207.76 129.464 207.76 128.205C207.76 126.945 207.697 126.081 207.57 125.612C207.443 125.138 207.282 124.823 207.086 124.667C206.896 124.506 206.676 124.425 206.427 124.425Z" fill="#7C8499"/>
</g>
<rect x="255.5" y="83" width="50" height="26.5" rx="10" fill="#383C45"/>
<path d="M272.671 91.04C272.311 91.43 271.861 91.775 271.321 92.105C270.781 92.405 270.286 92.615 269.806 92.735V94.355C270.796 94.07 271.621 93.62 272.266 93.005V101.75H273.901V91.04H272.671ZM280.999 89.45L275.749 103.25H277.144L282.379 89.45H280.999ZM287.479 90.83C286.339 90.83 285.409 91.205 284.719 91.985C284.044 92.705 283.699 93.665 283.684 94.865H285.319C285.349 93.995 285.529 93.35 285.889 92.9C286.234 92.435 286.744 92.21 287.419 92.21C288.049 92.21 288.544 92.36 288.874 92.66C289.204 92.96 289.369 93.41 289.369 94.01C289.369 94.64 289.114 95.225 288.634 95.765C288.334 96.08 287.824 96.485 287.104 96.995C285.889 97.835 285.079 98.48 284.689 98.945C283.969 99.755 283.624 100.685 283.624 101.75H291.004V100.31H285.649C285.874 99.725 286.564 99.05 287.719 98.285C288.784 97.565 289.519 96.995 289.939 96.56C290.629 95.795 290.989 94.955 290.989 94.025C290.989 93.08 290.659 92.315 290.014 91.715C289.354 91.115 288.499 90.83 287.479 90.83Z" fill="#7C8499"/>
<rect x="255.5" y="117.5" width="50" height="26.5" rx="10" fill="#383C45"/>
<path d="M276.691 125.33C275.551 125.33 274.621 125.705 273.931 126.485C273.256 127.205 272.911 128.165 272.896 129.365H274.531C274.561 128.495 274.741 127.85 275.101 127.4C275.446 126.935 275.956 126.71 276.631 126.71C277.261 126.71 277.756 126.86 278.086 127.16C278.416 127.46 278.581 127.91 278.581 128.51C278.581 129.14 278.326 129.725 277.846 130.265C277.546 130.58 277.036 130.985 276.316 131.495C275.101 132.335 274.291 132.98 273.901 133.445C273.181 134.255 272.836 135.185 272.836 136.25H280.216V134.81H274.861C275.086 134.225 275.776 133.55 276.931 132.785C277.996 132.065 278.731 131.495 279.151 131.06C279.841 130.295 280.201 129.455 280.201 128.525C280.201 127.58 279.871 126.815 279.226 126.215C278.566 125.615 277.711 125.33 276.691 125.33ZM281.44 128.495L284.125 132.125L281.095 136.25H282.97L285.01 133.295L287.035 136.25H288.895L285.88 132.125L288.565 128.495H286.705L285.01 130.955L283.3 128.495H281.44Z" fill="#7C8499"/>
<rect x="36" y="75.5" width="277" height="76" rx="9.5" stroke="#55657E"/>
<g clip-path="url(#clip2_426_25387)">
<rect x="333.5" y="75" width="91" height="77" rx="10" fill="#F04E23"/>
<g filter="url(#filter0_d_426_25387)">
<path d="M360.787 121.18C360.247 121.18 359.791 121.096 359.419 120.928C359.047 120.76 358.765 120.508 358.573 120.172C358.381 119.824 358.285 119.392 358.285 118.876V111.136H360.985V118.552C360.985 118.78 361.033 118.948 361.129 119.056C361.237 119.164 361.399 119.218 361.615 119.218C361.711 119.218 361.813 119.206 361.921 119.182C362.029 119.158 362.131 119.128 362.227 119.092L362.479 120.82C362.251 120.94 361.993 121.03 361.705 121.09C361.417 121.15 361.111 121.18 360.787 121.18ZM367.463 121.234C366.755 121.234 366.041 121.156 365.321 121C364.613 120.844 363.983 120.622 363.431 120.334L364.187 118.192C364.427 118.324 364.715 118.462 365.051 118.606C365.387 118.75 365.753 118.87 366.149 118.966C366.545 119.062 366.947 119.11 367.355 119.11C367.835 119.11 368.195 119.044 368.435 118.912C368.687 118.768 368.813 118.552 368.813 118.264C368.813 118.048 368.729 117.874 368.561 117.742C368.405 117.598 368.171 117.466 367.859 117.346C367.547 117.214 367.175 117.076 366.743 116.932C366.107 116.704 365.561 116.458 365.105 116.194C364.649 115.93 364.295 115.606 364.043 115.222C363.803 114.838 363.683 114.358 363.683 113.782C363.683 113.122 363.851 112.582 364.187 112.162C364.523 111.742 364.997 111.43 365.609 111.226C366.221 111.01 366.935 110.902 367.751 110.902C368.423 110.902 369.029 110.956 369.569 111.064C370.109 111.172 370.529 111.31 370.829 111.478V113.602C370.625 113.506 370.355 113.41 370.019 113.314C369.695 113.218 369.341 113.14 368.957 113.08C368.585 113.008 368.225 112.972 367.877 112.972C367.385 112.972 367.013 113.038 366.761 113.17C366.509 113.302 366.383 113.488 366.383 113.728C366.383 113.92 366.467 114.082 366.635 114.214C366.815 114.346 367.073 114.472 367.409 114.592C367.745 114.7 368.147 114.838 368.615 115.006C369.239 115.222 369.767 115.462 370.199 115.726C370.631 115.99 370.955 116.314 371.171 116.698C371.399 117.082 371.513 117.556 371.513 118.12C371.513 118.66 371.387 119.17 371.135 119.65C370.895 120.118 370.481 120.502 369.893 120.802C369.305 121.09 368.495 121.234 367.463 121.234ZM362.681 109.768V108.634L364.499 107.878H370.925V109.768H362.681ZM368.603 106.682V103.334H370.943V106.682H368.603ZM379.21 121.18C378.358 121.18 377.668 121.018 377.14 120.694C376.624 120.37 376.258 119.956 376.042 119.452H375.898L375.61 121H373.558V111.136H376.258V115.852C376.258 116.536 376.336 117.1 376.492 117.544C376.648 117.976 376.876 118.3 377.176 118.516C377.476 118.732 377.836 118.84 378.256 118.84C378.76 118.84 379.144 118.69 379.408 118.39C379.672 118.09 379.804 117.61 379.804 116.95V111.136H382.504V117.544C382.504 118.324 382.378 118.984 382.126 119.524C381.886 120.064 381.52 120.478 381.028 120.766C380.536 121.042 379.93 121.18 379.21 121.18ZM385.662 112.936V110.308C385.662 109.852 385.704 109.486 385.788 109.21C385.872 108.922 385.986 108.688 386.13 108.508C386.274 108.328 386.424 108.178 386.58 108.058L386.562 107.986H383.772L384.276 106.042H390V107.986C389.556 107.986 389.172 108.13 388.848 108.418C388.524 108.706 388.362 109.234 388.362 110.002V112.936H385.662ZM388.164 121.18C387.624 121.18 387.168 121.096 386.796 120.928C386.424 120.76 386.142 120.508 385.95 120.172C385.758 119.824 385.662 119.392 385.662 118.876V111.136H388.362V118.552C388.362 118.78 388.41 118.948 388.506 119.056C388.614 119.164 388.776 119.218 388.992 119.218C389.088 119.218 389.19 119.206 389.298 119.182C389.406 119.158 389.508 119.128 389.604 119.092L389.856 120.82C389.628 120.94 389.37 121.03 389.082 121.09C388.794 121.15 388.488 121.18 388.164 121.18ZM394.643 121.18C393.671 121.18 392.897 120.97 392.321 120.55C391.745 120.118 391.331 119.53 391.079 118.786C390.827 118.03 390.701 117.166 390.701 116.194C390.701 115.15 390.815 114.286 391.043 113.602C391.283 112.906 391.619 112.366 392.051 111.982C392.483 111.586 392.993 111.31 393.581 111.154C394.181 110.986 394.835 110.902 395.543 110.902C396.623 110.902 397.487 111.052 398.135 111.352C398.783 111.652 399.251 112.078 399.539 112.63C399.839 113.182 399.989 113.83 399.989 114.574V121H397.289V114.79C397.289 114.226 397.151 113.8 396.875 113.512C396.611 113.212 396.167 113.062 395.543 113.062C395.123 113.062 394.751 113.152 394.427 113.332C394.115 113.5 393.869 113.806 393.689 114.25C393.521 114.694 393.437 115.33 393.437 116.158C393.437 116.722 393.491 117.22 393.599 117.652C393.707 118.084 393.881 118.42 394.121 118.66C394.373 118.9 394.709 119.02 395.129 119.02C395.261 119.02 395.387 119.014 395.507 119.002C395.639 118.978 395.753 118.954 395.849 118.93L396.101 120.946C395.909 121.03 395.675 121.09 395.399 121.126C395.135 121.162 394.883 121.18 394.643 121.18ZM394.176 109.786V108.886C394.344 108.838 394.53 108.772 394.734 108.688C394.938 108.604 395.118 108.49 395.274 108.346C395.43 108.202 395.508 108.022 395.508 107.806C395.508 107.638 395.46 107.506 395.364 107.41C395.268 107.314 395.148 107.266 395.004 107.266C394.908 107.266 394.806 107.284 394.698 107.32C394.59 107.356 394.494 107.392 394.41 107.428L394.068 106.222C394.308 106.018 394.608 105.886 394.968 105.826C395.316 105.754 395.61 105.718 395.85 105.718C396.39 105.718 396.816 105.844 397.128 106.096C397.428 106.348 397.578 106.72 397.578 107.212C397.578 107.476 397.512 107.722 397.38 107.95C397.236 108.178 397.02 108.364 396.732 108.508L396.66 108.04H400.062V109.786H394.176Z" fill="white"/>
</g>
</g>
<path d="M37.705 188V184.34H36.565V183.29H38.98V186.92H39.175C39.625 186.92 40 186.82 40.3 186.62C40.6 186.42 40.825 186.095 40.975 185.645C41.125 185.195 41.2 184.6 41.2 183.86C41.2 183.12 41.115 182.52 40.945 182.06C40.785 181.6 40.52 181.265 40.15 181.055C39.79 180.845 39.3 180.74 38.68 180.74C38.21 180.74 37.755 180.805 37.315 180.935C36.885 181.055 36.47 181.245 36.07 181.505V180.26C36.37 180.08 36.765 179.93 37.255 179.81C37.745 179.69 38.275 179.63 38.845 179.63C39.755 179.63 40.48 179.8 41.02 180.14C41.57 180.47 41.965 180.95 42.205 181.58C42.445 182.21 42.565 182.975 42.565 183.875C42.565 184.745 42.445 185.49 42.205 186.11C41.975 186.72 41.595 187.19 41.065 187.52C40.545 187.84 39.845 188 38.965 188H37.705ZM41.2152 178.835C40.7152 178.835 40.3202 178.72 40.0302 178.49C39.7402 178.25 39.5952 177.915 39.5952 177.485C39.5952 177.045 39.7402 176.71 40.0302 176.48C40.3202 176.25 40.7152 176.135 41.2152 176.135C41.7152 176.135 42.1152 176.25 42.4152 176.48C42.7152 176.71 42.8652 177.045 42.8652 177.485C42.8652 177.915 42.7152 178.25 42.4152 178.49C42.1152 178.72 41.7152 178.835 41.2152 178.835ZM41.2152 178.13C41.4552 178.13 41.6402 178.07 41.7702 177.95C41.8902 177.83 41.9502 177.675 41.9502 177.485C41.9502 177.285 41.8902 177.13 41.7702 177.02C41.6402 176.9 41.4552 176.84 41.2152 176.84C40.9852 176.84 40.8102 176.9 40.6902 177.02C40.5602 177.13 40.4952 177.285 40.4952 177.485C40.4952 177.675 40.5602 177.83 40.6902 177.95C40.8102 178.07 40.9852 178.13 41.2152 178.13ZM47.0234 188V182.165C47.0234 181.675 46.9084 181.315 46.6784 181.085C46.4584 180.855 46.0834 180.74 45.5534 180.74C45.1934 180.74 44.8534 180.79 44.5334 180.89C44.2234 180.98 43.9234 181.11 43.6334 181.28V180.08C43.8334 179.98 44.1184 179.88 44.4884 179.78C44.8584 179.68 45.2984 179.63 45.8084 179.63C46.3284 179.63 46.7784 179.705 47.1584 179.855C47.5384 180.005 47.8334 180.255 48.0434 180.605C48.2534 180.945 48.3584 181.4 48.3584 181.97V188H47.0234ZM53.6271 188.15C53.0371 188.15 52.5271 188.05 52.0971 187.85C51.6771 187.64 51.3521 187.325 51.1221 186.905C50.9021 186.485 50.7921 185.94 50.7921 185.27V179.78H52.1271V185.195C52.1271 185.795 52.2771 186.25 52.5771 186.56C52.8871 186.87 53.3321 187.025 53.9121 187.025C54.6121 187.025 55.1521 186.8 55.5321 186.35C55.9221 185.9 56.1171 185.295 56.1171 184.535V179.78H57.4521V188H56.3421L56.2821 186.785H56.2071C56.0271 187.185 55.7121 187.515 55.2621 187.775C54.8221 188.025 54.2771 188.15 53.6271 188.15ZM61.6414 188.15C61.2514 188.15 60.8714 188.11 60.5014 188.03C60.1414 187.95 59.7564 187.8 59.3464 187.58L59.7664 186.56C59.9864 186.69 60.2364 186.805 60.5164 186.905C60.7964 186.995 61.1214 187.04 61.4914 187.04C62.2314 187.04 62.8064 186.77 63.2164 186.23C63.6364 185.68 63.8464 184.89 63.8464 183.86C63.8464 182.85 63.6314 182.08 63.2014 181.55C62.7814 181.01 62.1314 180.74 61.2514 180.74C60.9314 180.74 60.6064 180.775 60.2764 180.845C59.9464 180.915 59.6564 181.02 59.4064 181.16V180.035C59.6964 179.885 60.0114 179.78 60.3514 179.72C60.7014 179.66 61.0514 179.63 61.4014 179.63C62.3014 179.63 63.0314 179.81 63.5914 180.17C64.1514 180.52 64.5614 181.01 64.8214 181.64C65.0814 182.27 65.2114 183.01 65.2114 183.86C65.2114 185.18 64.9114 186.225 64.3114 186.995C63.7214 187.765 62.8314 188.15 61.6414 188.15ZM70.2092 188.15C69.6192 188.15 69.1092 188.05 68.6792 187.85C68.2592 187.64 67.9342 187.325 67.7042 186.905C67.4842 186.485 67.3742 185.94 67.3742 185.27V179.78H68.7092V185.195C68.7092 185.795 68.8592 186.25 69.1592 186.56C69.4692 186.87 69.9142 187.025 70.4942 187.025C71.1942 187.025 71.7342 186.8 72.1142 186.35C72.5042 185.9 72.6992 185.295 72.6992 184.535V179.78H74.0342V188H72.9242L72.8642 186.785H72.7892C72.6092 187.185 72.2942 187.515 71.8442 187.775C71.4042 188.025 70.8592 188.15 70.2092 188.15ZM78.2234 188.15C77.8334 188.15 77.4534 188.11 77.0834 188.03C76.7234 187.95 76.3384 187.8 75.9284 187.58L76.3484 186.56C76.5684 186.69 76.8184 186.805 77.0984 186.905C77.3784 186.995 77.7034 187.04 78.0734 187.04C78.8134 187.04 79.3884 186.77 79.7984 186.23C80.2184 185.68 80.4284 184.89 80.4284 183.86C80.4284 182.85 80.2134 182.08 79.7834 181.55C79.3634 181.01 78.7134 180.74 77.8334 180.74C77.5134 180.74 77.1884 180.775 76.8584 180.845C76.5284 180.915 76.2384 181.02 75.9884 181.16V180.035C76.2784 179.885 76.5934 179.78 76.9334 179.72C77.2834 179.66 77.6334 179.63 77.9834 179.63C78.8834 179.63 79.6134 179.81 80.1734 180.17C80.7334 180.52 81.1434 181.01 81.4034 181.64C81.6634 182.27 81.7934 183.01 81.7934 183.86C81.7934 185.18 81.4934 186.225 80.8934 186.995C80.3034 187.765 79.4134 188.15 78.2234 188.15ZM75.1777 178.475V177.89L76.2727 177.41H81.5527V178.475H75.1777ZM91.7112 190.61C91.3012 190.61 90.8862 190.565 90.4662 190.475C90.0562 190.395 89.6662 190.27 89.2962 190.1V188.81C89.6162 189.02 89.9912 189.175 90.4212 189.275C90.8612 189.385 91.2812 189.44 91.6812 189.44C92.0812 189.44 92.4362 189.375 92.7462 189.245C93.0562 189.125 93.3012 188.91 93.4812 188.6C93.6612 188.29 93.7512 187.85 93.7512 187.28V186.89H93.6912C93.4912 187.2 93.1962 187.46 92.8062 187.67C92.4162 187.88 91.9412 187.985 91.3812 187.985C90.9112 187.985 90.4812 187.895 90.0912 187.715C89.7112 187.535 89.4112 187.245 89.1912 186.845C88.9712 186.445 88.8612 185.92 88.8612 185.27V182.585C88.8612 182.105 88.7712 181.73 88.5912 181.46C88.4112 181.19 88.1712 181.005 87.8712 180.905C87.5812 180.795 87.2712 180.74 86.9412 180.74C86.4112 180.74 85.9712 180.855 85.6212 181.085C85.2812 181.315 85.1062 181.65 85.0962 182.09L86.8062 182.9L86.6862 183.62C86.3162 183.62 85.9962 183.735 85.7262 183.965C85.4662 184.195 85.3362 184.575 85.3362 185.105V186.425C85.3362 186.645 85.3862 186.805 85.4862 186.905C85.5862 187.005 85.7412 187.055 85.9512 187.055C86.0612 187.055 86.1612 187.05 86.2512 187.04C86.3512 187.02 86.4412 186.995 86.5212 186.965L86.7162 187.925C86.5262 188.015 86.3412 188.075 86.1612 188.105C85.9912 188.135 85.8212 188.15 85.6512 188.15C85.3712 188.15 85.1012 188.105 84.8412 188.015C84.5912 187.925 84.3862 187.765 84.2262 187.535C84.0762 187.305 84.0012 186.985 84.0012 186.575V185.12C84.0012 184.5 84.1312 184.05 84.3912 183.77C84.6612 183.49 85.0112 183.295 85.4412 183.185L85.4562 183.14L83.7312 182.51V182.015C83.7312 181.575 83.8612 181.175 84.1212 180.815C84.3912 180.455 84.7662 180.17 85.2462 179.96C85.7362 179.74 86.3062 179.63 86.9562 179.63C87.5062 179.63 88.0262 179.72 88.5162 179.9C89.0162 180.08 89.4212 180.38 89.7312 180.8C90.0412 181.21 90.1962 181.76 90.1962 182.45V185.165C90.1962 185.755 90.3312 186.185 90.6012 186.455C90.8812 186.725 91.2462 186.86 91.6962 186.86C92.1062 186.86 92.4612 186.76 92.7612 186.56C93.0712 186.36 93.3062 186.08 93.4662 185.72C93.6362 185.35 93.7212 184.92 93.7212 184.43V179.78H95.0562V187.25C95.0562 188 94.9262 188.62 94.6662 189.11C94.4162 189.61 94.0412 189.985 93.5412 190.235C93.0412 190.485 92.4312 190.61 91.7112 190.61ZM105.349 190.61C104.939 190.61 104.524 190.565 104.104 190.475C103.694 190.395 103.304 190.27 102.934 190.1V188.81C103.254 189.02 103.629 189.175 104.059 189.275C104.499 189.385 104.919 189.44 105.319 189.44C105.719 189.44 106.074 189.375 106.384 189.245C106.694 189.125 106.939 188.91 107.119 188.6C107.299 188.29 107.389 187.85 107.389 187.28V186.89H107.329C107.129 187.2 106.834 187.46 106.444 187.67C106.054 187.88 105.579 187.985 105.019 187.985C104.549 187.985 104.119 187.895 103.729 187.715C103.349 187.535 103.049 187.245 102.829 186.845C102.609 186.445 102.499 185.92 102.499 185.27V182.585C102.499 182.105 102.409 181.73 102.229 181.46C102.049 181.19 101.809 181.005 101.509 180.905C101.219 180.795 100.909 180.74 100.579 180.74C100.049 180.74 99.6089 180.855 99.2589 181.085C98.9189 181.315 98.7439 181.65 98.7339 182.09L100.444 182.9L100.324 183.62C99.9539 183.62 99.6339 183.735 99.3639 183.965C99.1039 184.195 98.9739 184.575 98.9739 185.105V186.425C98.9739 186.645 99.0239 186.805 99.1239 186.905C99.2239 187.005 99.3789 187.055 99.5889 187.055C99.6989 187.055 99.7989 187.05 99.8889 187.04C99.9889 187.02 100.079 186.995 100.159 186.965L100.354 187.925C100.164 188.015 99.9789 188.075 99.7989 188.105C99.6289 188.135 99.4589 188.15 99.2889 188.15C99.0089 188.15 98.7389 188.105 98.4789 188.015C98.2289 187.925 98.0239 187.765 97.8639 187.535C97.7139 187.305 97.6389 186.985 97.6389 186.575V185.12C97.6389 184.5 97.7689 184.05 98.0289 183.77C98.2989 183.49 98.6489 183.295 99.0789 183.185L99.0939 183.14L97.3689 182.51V182.015C97.3689 181.575 97.4989 181.175 97.7589 180.815C98.0289 180.455 98.4039 180.17 98.8839 179.96C99.3739 179.74 99.9439 179.63 100.594 179.63C101.144 179.63 101.664 179.72 102.154 179.9C102.654 180.08 103.059 180.38 103.369 180.8C103.679 181.21 103.834 181.76 103.834 182.45V185.165C103.834 185.755 103.969 186.185 104.239 186.455C104.519 186.725 104.884 186.86 105.334 186.86C105.744 186.86 106.099 186.76 106.399 186.56C106.709 186.36 106.944 186.08 107.104 185.72C107.274 185.35 107.359 184.92 107.359 184.43V179.78H108.694V187.25C108.694 188 108.564 188.62 108.304 189.11C108.054 189.61 107.679 189.985 107.179 190.235C106.679 190.485 106.069 190.61 105.349 190.61ZM113.557 188V182.165C113.557 181.675 113.442 181.315 113.212 181.085C112.992 180.855 112.617 180.74 112.087 180.74C111.727 180.74 111.387 180.79 111.067 180.89C110.757 180.98 110.457 181.11 110.167 181.28V180.08C110.367 179.98 110.652 179.88 111.022 179.78C111.392 179.68 111.832 179.63 112.342 179.63C112.862 179.63 113.312 179.705 113.692 179.855C114.072 180.005 114.367 180.255 114.577 180.605C114.787 180.945 114.892 181.4 114.892 181.97V188H113.557ZM119.02 188.15C118.74 188.15 118.47 188.105 118.21 188.015C117.96 187.925 117.755 187.765 117.595 187.535C117.445 187.305 117.37 186.985 117.37 186.575V185.12C117.37 184.5 117.5 184.05 117.76 183.77C118.03 183.49 118.38 183.295 118.81 183.185L118.825 183.14L117.1 182.51V182.015C117.1 181.575 117.23 181.175 117.49 180.815C117.76 180.455 118.135 180.17 118.615 179.96C119.105 179.74 119.675 179.63 120.325 179.63C120.875 179.63 121.395 179.72 121.885 179.9C122.385 180.08 122.79 180.38 123.1 180.8C123.41 181.21 123.565 181.76 123.565 182.45V185.315C123.565 185.915 123.7 186.35 123.97 186.62C124.25 186.89 124.62 187.025 125.08 187.025C125.48 187.025 125.83 186.925 126.13 186.725C126.43 186.515 126.665 186.23 126.835 185.87C127.005 185.5 127.09 185.07 127.09 184.58V179.78H128.425V188H127.33L127.255 186.695H127.18C127.01 187.155 126.705 187.515 126.265 187.775C125.835 188.025 125.35 188.15 124.81 188.15C124.05 188.15 123.43 187.94 122.95 187.52C122.47 187.1 122.23 186.4 122.23 185.42V182.585C122.23 182.105 122.14 181.73 121.96 181.46C121.78 181.19 121.54 181.005 121.24 180.905C120.95 180.795 120.64 180.74 120.31 180.74C119.78 180.74 119.34 180.855 118.99 181.085C118.65 181.315 118.475 181.65 118.465 182.09L120.175 182.9L120.055 183.62C119.685 183.62 119.365 183.735 119.095 183.965C118.835 184.195 118.705 184.575 118.705 185.105V186.425C118.705 186.645 118.755 186.805 118.855 186.905C118.955 187.005 119.115 187.055 119.335 187.055C119.435 187.055 119.53 187.05 119.62 187.04C119.72 187.02 119.81 186.995 119.89 186.965L120.085 187.925C119.895 188.015 119.71 188.075 119.53 188.105C119.36 188.135 119.19 188.15 119.02 188.15ZM134.263 188.15C133.083 188.15 132.238 187.88 131.728 187.34C131.218 186.8 130.963 186.03 130.963 185.03V179.78H132.298V185.045C132.298 185.715 132.458 186.215 132.778 186.545C133.098 186.875 133.593 187.04 134.263 187.04C134.943 187.04 135.443 186.875 135.763 186.545C136.093 186.215 136.258 185.715 136.258 185.045V176.825H137.593V185.03C137.593 186.03 137.333 186.8 136.813 187.34C136.303 187.88 135.453 188.15 134.263 188.15ZM130.22 178.475V177.89L131.3 177.425H135.41V178.475H130.22ZM134.165 177.89V176.24H135.41V177.89H134.165ZM140.045 188V182.75C140.045 181.74 140.315 180.97 140.855 180.44C141.395 179.9 142.255 179.63 143.435 179.63C143.995 179.63 144.475 179.7 144.875 179.84C145.275 179.97 145.59 180.195 145.82 180.515C146.18 180.695 146.435 180.98 146.585 181.37C146.745 181.76 146.825 182.22 146.825 182.75V188H145.49V182.75C145.49 182.08 145.315 181.58 144.965 181.25C144.625 180.91 144.115 180.74 143.435 180.74C142.755 180.74 142.24 180.91 141.89 181.25C141.55 181.58 141.38 182.08 141.38 182.75V184.415L141.425 184.43C141.655 184.04 141.925 183.785 142.235 183.665C142.555 183.535 143.005 183.47 143.585 183.47H144.08V184.565H143.585C142.985 184.565 142.525 184.65 142.205 184.82C141.885 184.99 141.665 185.215 141.545 185.495C141.435 185.765 141.38 186.07 141.38 186.41V188H140.045ZM145.82 180.935L145.07 180.23C145.33 180.19 145.575 180.09 145.805 179.93C146.035 179.77 146.15 179.54 146.15 179.24H147.455C147.455 179.55 147.38 179.825 147.23 180.065C147.08 180.295 146.88 180.485 146.63 180.635C146.39 180.775 146.12 180.875 145.82 180.935ZM151.789 188V182.165C151.789 181.675 151.674 181.315 151.444 181.085C151.224 180.855 150.849 180.74 150.319 180.74C149.959 180.74 149.619 180.79 149.299 180.89C148.989 180.98 148.689 181.11 148.399 181.28V180.08C148.599 179.98 148.884 179.88 149.254 179.78C149.624 179.68 150.064 179.63 150.574 179.63C151.094 179.63 151.544 179.705 151.924 179.855C152.304 180.005 152.599 180.255 152.809 180.605C153.019 180.945 153.124 181.4 153.124 181.97V188H151.789ZM156.548 188V184.34H155.408V183.29H157.823V186.92H158.018C158.468 186.92 158.843 186.82 159.143 186.62C159.443 186.42 159.668 186.095 159.818 185.645C159.968 185.195 160.043 184.6 160.043 183.86C160.043 183.12 159.958 182.52 159.788 182.06C159.628 181.6 159.363 181.265 158.993 181.055C158.633 180.845 158.143 180.74 157.523 180.74C157.053 180.74 156.598 180.805 156.158 180.935C155.728 181.055 155.313 181.245 154.913 181.505V180.26C155.213 180.08 155.608 179.93 156.098 179.81C156.588 179.69 157.118 179.63 157.688 179.63C158.598 179.63 159.323 179.8 159.863 180.14C160.413 180.47 160.808 180.95 161.048 181.58C161.288 182.21 161.408 182.975 161.408 183.875C161.408 184.745 161.288 185.49 161.048 186.11C160.818 186.72 160.438 187.19 159.908 187.52C159.388 187.84 158.688 188 157.808 188H156.548Z" fill="#7C8499"/>
<rect x="35.5" y="199" width="38.625" height="50" rx="10" fill="#383C45"/>
<path d="M55.231 218.79C54.871 219.18 54.421 219.525 53.881 219.855C53.341 220.155 52.846 220.365 52.366 220.485V222.105C53.356 221.82 54.181 221.37 54.826 220.755V229.5H56.461V218.79H55.231Z" fill="#7C8499"/>
<rect x="84.125" y="199" width="38.625" height="50" rx="10" fill="#F04E23"/>
<path d="M103.605 218.58C102.465 218.58 101.535 218.955 100.845 219.735C100.17 220.455 99.8254 221.415 99.8104 222.615H101.445C101.475 221.745 101.655 221.1 102.015 220.65C102.36 220.185 102.87 219.96 103.545 219.96C104.175 219.96 104.67 220.11 105 220.41C105.33 220.71 105.495 221.16 105.495 221.76C105.495 222.39 105.24 222.975 104.76 223.515C104.46 223.83 103.95 224.235 103.23 224.745C102.015 225.585 101.205 226.23 100.815 226.695C100.095 227.505 99.7504 228.435 99.7504 229.5H107.13V228.06H101.775C102 227.475 102.69 226.8 103.845 226.035C104.91 225.315 105.645 224.745 106.065 224.31C106.755 223.545 107.115 222.705 107.115 221.775C107.115 220.83 106.785 220.065 106.14 219.465C105.48 218.865 104.625 218.58 103.605 218.58Z" fill="white"/>
<rect x="132.75" y="199" width="38.625" height="50" rx="10" fill="#383C45"/>
<path d="M152.17 218.58C151.12 218.58 150.265 218.865 149.605 219.465C148.9 220.065 148.51 220.89 148.42 221.955H150.025C150.085 221.295 150.31 220.8 150.67 220.47C151.03 220.14 151.54 219.975 152.185 219.975C152.815 219.975 153.31 220.11 153.64 220.41C153.94 220.695 154.105 221.1 154.105 221.64C154.105 222.18 153.925 222.6 153.595 222.885C153.265 223.17 152.77 223.32 152.11 223.32H151.345V224.55H152.125C152.83 224.55 153.37 224.7 153.73 225C154.12 225.3 154.315 225.765 154.315 226.395C154.315 226.935 154.12 227.37 153.76 227.73C153.34 228.12 152.785 228.33 152.095 228.33C151.465 228.33 150.955 228.15 150.565 227.79C150.115 227.4 149.89 226.845 149.86 226.125H148.21C148.3 227.325 148.72 228.24 149.47 228.87C150.13 229.425 151.015 229.71 152.11 229.71C153.25 229.71 154.195 229.38 154.915 228.75C155.59 228.12 155.935 227.31 155.935 226.32C155.935 225.69 155.755 225.165 155.395 224.76C155.065 224.37 154.585 224.07 153.955 223.875C155.125 223.485 155.725 222.69 155.725 221.52C155.725 220.605 155.395 219.885 154.765 219.36C154.105 218.835 153.25 218.58 152.17 218.58Z" fill="#7C8499"/>
<rect x="181.375" y="199" width="38.625" height="50" rx="10" fill="#383C45"/>
<path d="M201.77 218.79L196.49 225.63V227.175H201.71V229.5H203.27V227.175H204.89V225.87H203.27V218.79H201.77ZM201.665 220.86H201.71V225.87H197.825L201.665 220.86Z" fill="#7C8499"/>
<g clip-path="url(#clip3_426_25387)">
<rect x="240" y="199" width="87.25" height="50" rx="10" fill="#EFC046"/>
<path d="M246.833 218.15C246.383 218.15 246.003 218.08 245.693 217.94C245.383 217.8 245.148 217.59 244.988 217.31C244.828 217.02 244.748 216.66 244.748 216.23V209.78H246.998V215.96C246.998 216.15 247.038 216.29 247.118 216.38C247.208 216.47 247.343 216.515 247.523 216.515C247.603 216.515 247.688 216.505 247.778 216.485C247.868 216.465 247.953 216.44 248.033 216.41L248.243 217.85C248.053 217.95 247.838 218.025 247.598 218.075C247.358 218.125 247.103 218.15 246.833 218.15ZM254.257 218V212.66C254.257 212.18 254.127 211.835 253.867 211.625C253.607 211.415 253.207 211.31 252.667 211.31C252.147 211.31 251.637 211.39 251.137 211.55C250.647 211.7 250.222 211.88 249.862 212.09V210.23C250.152 210.09 250.562 209.95 251.092 209.81C251.622 209.66 252.237 209.585 252.937 209.585C253.447 209.585 253.912 209.64 254.332 209.75C254.762 209.85 255.137 210.025 255.457 210.275C255.777 210.515 256.022 210.84 256.192 211.25C256.372 211.65 256.462 212.15 256.462 212.75V218H254.257ZM251.797 218.15C250.937 218.15 250.272 217.945 249.802 217.535C249.342 217.125 249.112 216.55 249.112 215.81C249.112 215.01 249.397 214.37 249.967 213.89C250.547 213.41 251.457 213.12 252.697 213.02L254.617 212.87V214.49L252.952 214.655C252.352 214.715 251.932 214.835 251.692 215.015C251.462 215.195 251.347 215.435 251.347 215.735C251.347 216.035 251.442 216.26 251.632 216.41C251.832 216.56 252.087 216.635 252.397 216.635C252.517 216.635 252.637 216.625 252.757 216.605C252.877 216.575 252.987 216.545 253.087 216.515L253.282 217.925C253.092 217.995 252.867 218.05 252.607 218.09C252.347 218.13 252.077 218.15 251.797 218.15ZM249.466 208.64V207.695L250.981 207.065H256.336V208.64H249.466ZM252.616 207.725V206.03H254.041V207.725H252.616ZM254.926 207.725V206.03H256.336V207.725H254.926ZM261.826 218.195C260.606 218.195 259.701 217.9 259.111 217.31C258.521 216.71 258.226 215.825 258.226 214.655C258.226 214.455 258.231 214.215 258.241 213.935C258.261 213.645 258.286 213.39 258.316 213.17H261.916V214.595H260.431V214.805C260.431 215.205 260.481 215.535 260.581 215.795C260.681 216.045 260.831 216.23 261.031 216.35C261.241 216.47 261.501 216.53 261.811 216.53C262.151 216.53 262.436 216.455 262.666 216.305C262.906 216.155 263.086 215.9 263.206 215.54C263.336 215.18 263.401 214.685 263.401 214.055C263.401 213.465 263.331 212.975 263.191 212.585C263.061 212.185 262.836 211.885 262.516 211.685C262.206 211.485 261.776 211.385 261.226 211.385C260.926 211.385 260.616 211.42 260.296 211.49C259.976 211.55 259.671 211.63 259.381 211.73C259.101 211.83 258.856 211.94 258.646 212.06V210.185C258.866 210.065 259.136 209.96 259.456 209.87C259.786 209.78 260.141 209.71 260.521 209.66C260.901 209.61 261.276 209.585 261.646 209.585C262.616 209.585 263.396 209.765 263.986 210.125C264.586 210.475 265.021 210.975 265.291 211.625C265.571 212.275 265.711 213.045 265.711 213.935C265.711 214.845 265.576 215.62 265.306 216.26C265.046 216.89 264.631 217.37 264.061 217.7C263.491 218.03 262.746 218.195 261.826 218.195ZM267.373 218V215.495C267.373 214.865 267.498 214.38 267.748 214.04C267.998 213.7 268.353 213.46 268.813 213.32L268.828 213.26L267.223 212.675V212.285C267.223 211.795 267.368 211.345 267.658 210.935C267.948 210.525 268.373 210.2 268.933 209.96C269.503 209.71 270.193 209.585 271.003 209.585C271.763 209.585 272.418 209.705 272.968 209.945C273.518 210.175 273.943 210.525 274.243 210.995C274.553 211.455 274.708 212.04 274.708 212.75V218H272.458V212.885C272.458 212.385 272.323 212.01 272.053 211.76C271.793 211.51 271.423 211.385 270.943 211.385C270.483 211.385 270.138 211.485 269.908 211.685C269.678 211.875 269.553 212.11 269.533 212.39L270.868 213.005L270.703 213.98C270.343 214 270.073 214.13 269.893 214.37C269.713 214.61 269.623 214.935 269.623 215.345V218H267.373ZM277.318 211.28V208.835C277.318 208.235 277.208 207.805 276.988 207.545C276.768 207.285 276.438 207.155 275.998 207.155V206.255L277.513 205.535H281.338V207.155H278.818L278.803 207.215C279.063 207.375 279.253 207.605 279.373 207.905C279.503 208.205 279.568 208.6 279.568 209.09V211.28H277.318ZM279.403 218.15C278.953 218.15 278.573 218.08 278.263 217.94C277.953 217.8 277.718 217.59 277.558 217.31C277.398 217.02 277.318 216.66 277.318 216.23V209.78H279.568V215.96C279.568 216.15 279.608 216.29 279.688 216.38C279.778 216.47 279.913 216.515 280.093 216.515C280.173 216.515 280.258 216.505 280.348 216.485C280.438 216.465 280.523 216.44 280.603 216.41L280.813 217.85C280.623 217.95 280.408 218.025 280.168 218.075C279.928 218.125 279.673 218.15 279.403 218.15ZM284.846 218.15C284.036 218.15 283.391 217.975 282.911 217.625C282.431 217.265 282.086 216.775 281.876 216.155C281.666 215.525 281.561 214.805 281.561 213.995C281.561 213.125 281.656 212.405 281.846 211.835C282.046 211.255 282.326 210.805 282.686 210.485C283.046 210.155 283.471 209.925 283.961 209.795C284.461 209.655 285.006 209.585 285.596 209.585C286.496 209.585 287.216 209.71 287.756 209.96C288.296 210.21 288.686 210.565 288.926 211.025C289.176 211.485 289.301 212.025 289.301 212.645V218H287.051V212.825C287.051 212.355 286.936 212 286.706 211.76C286.486 211.51 286.116 211.385 285.596 211.385C285.246 211.385 284.936 211.46 284.666 211.61C284.406 211.75 284.201 212.005 284.051 212.375C283.911 212.745 283.841 213.275 283.841 213.965C283.841 214.435 283.886 214.85 283.976 215.21C284.066 215.57 284.211 215.85 284.411 216.05C284.621 216.25 284.901 216.35 285.251 216.35C285.361 216.35 285.466 216.345 285.566 216.335C285.676 216.315 285.771 216.295 285.851 216.275L286.061 217.955C285.901 218.025 285.706 218.075 285.476 218.105C285.256 218.135 285.046 218.15 284.846 218.15ZM294.878 218.195C293.978 218.195 293.258 218.09 292.718 217.88C292.178 217.66 291.783 217.355 291.533 216.965C291.293 216.575 291.173 216.125 291.173 215.615C291.173 215.175 291.238 214.82 291.368 214.55C291.508 214.28 291.683 214.075 291.893 213.935C292.113 213.785 292.333 213.685 292.553 213.635V213.545C292.323 213.465 292.103 213.355 291.893 213.215C291.683 213.075 291.508 212.885 291.368 212.645C291.238 212.405 291.173 212.105 291.173 211.745C291.173 211.375 291.258 211.03 291.428 210.71C291.608 210.39 291.893 210.135 292.283 209.945C292.673 209.745 293.188 209.645 293.828 209.645C294.138 209.645 294.438 209.67 294.728 209.72C295.018 209.76 295.243 209.82 295.403 209.9L295.058 211.415C294.978 211.395 294.868 211.375 294.728 211.355C294.598 211.325 294.463 211.31 294.323 211.31C294.013 211.31 293.783 211.385 293.633 211.535C293.483 211.675 293.408 211.86 293.408 212.09C293.408 212.33 293.473 212.515 293.603 212.645C293.733 212.775 293.898 212.865 294.098 212.915C294.308 212.965 294.523 212.99 294.743 212.99H295.058V214.385H294.743C294.313 214.385 293.988 214.46 293.768 214.61C293.558 214.76 293.453 215.005 293.453 215.345C293.453 215.525 293.493 215.705 293.573 215.885C293.663 216.055 293.813 216.2 294.023 216.32C294.233 216.43 294.533 216.485 294.923 216.485C295.293 216.485 295.583 216.43 295.793 216.32C296.003 216.21 296.153 216.065 296.243 215.885C296.333 215.695 296.378 215.485 296.378 215.255V209.78H298.628V215.18C298.628 216.21 298.323 216.97 297.713 217.46C297.113 217.95 296.168 218.195 294.878 218.195ZM303.999 218.195C302.779 218.195 301.874 217.9 301.284 217.31C300.694 216.71 300.399 215.825 300.399 214.655C300.399 214.455 300.404 214.215 300.414 213.935C300.434 213.645 300.459 213.39 300.489 213.17H304.089V214.595H302.604V214.805C302.604 215.205 302.654 215.535 302.754 215.795C302.854 216.045 303.004 216.23 303.204 216.35C303.414 216.47 303.674 216.53 303.984 216.53C304.324 216.53 304.609 216.455 304.839 216.305C305.079 216.155 305.259 215.9 305.379 215.54C305.509 215.18 305.574 214.685 305.574 214.055C305.574 213.465 305.504 212.975 305.364 212.585C305.234 212.185 305.009 211.885 304.689 211.685C304.379 211.485 303.949 211.385 303.399 211.385C303.099 211.385 302.789 211.42 302.469 211.49C302.149 211.55 301.844 211.63 301.554 211.73C301.274 211.83 301.029 211.94 300.819 212.06V210.185C301.039 210.065 301.309 209.96 301.629 209.87C301.959 209.78 302.314 209.71 302.694 209.66C303.074 209.61 303.449 209.585 303.819 209.585C304.789 209.585 305.569 209.765 306.159 210.125C306.759 210.475 307.194 210.975 307.464 211.625C307.744 212.275 307.884 213.045 307.884 213.935C307.884 214.845 307.749 215.62 307.479 216.26C307.219 216.89 306.804 217.37 306.234 217.7C305.664 218.03 304.919 218.195 303.999 218.195ZM305.167 208.64C304.697 208.64 304.327 208.57 304.057 208.43C303.787 208.29 303.597 208.115 303.487 207.905C303.367 207.685 303.307 207.455 303.307 207.215C303.307 207.045 303.332 206.865 303.382 206.675C303.432 206.475 303.507 206.29 303.607 206.12L305.242 206.33C305.222 206.4 305.207 206.475 305.197 206.555C305.177 206.625 305.167 206.69 305.167 206.75C305.167 206.89 305.212 207 305.302 207.08C305.382 207.15 305.522 207.185 305.722 207.185H308.947V208.64H305.167ZM312.756 218.15C311.866 218.15 311.171 217.97 310.671 217.61C310.181 217.24 309.836 216.73 309.636 216.08C309.446 215.42 309.351 214.655 309.351 213.785C309.351 212.815 309.446 212.025 309.636 211.415C309.826 210.805 310.111 210.355 310.491 210.065C310.881 209.775 311.356 209.63 311.916 209.63C312.266 209.63 312.571 209.7 312.831 209.84C313.101 209.97 313.316 210.215 313.476 210.575H313.536C313.676 210.205 313.906 209.955 314.226 209.825C314.546 209.695 314.891 209.63 315.261 209.63C315.951 209.63 316.466 209.815 316.806 210.185C317.156 210.555 317.331 211.095 317.331 211.805V218H315.081V212.225C315.081 211.915 315.031 211.705 314.931 211.595C314.831 211.485 314.696 211.43 314.526 211.43C314.336 211.43 314.191 211.485 314.091 211.595C314.001 211.705 313.941 211.89 313.911 212.15H313.026C312.986 211.86 312.911 211.67 312.801 211.58C312.691 211.48 312.561 211.43 312.411 211.43C312.161 211.43 311.966 211.61 311.826 211.97C311.696 212.33 311.631 212.94 311.631 213.8C311.631 214.36 311.671 214.84 311.751 215.24C311.841 215.63 311.991 215.93 312.201 216.14C312.411 216.34 312.711 216.44 313.101 216.44C313.221 216.44 313.331 216.435 313.431 216.425C313.531 216.405 313.616 216.38 313.686 216.35L313.911 217.955C313.751 218.025 313.576 218.075 313.386 218.105C313.196 218.135 312.986 218.15 312.756 218.15ZM319.945 211.28V208.835C319.945 208.235 319.835 207.805 319.615 207.545C319.395 207.285 319.065 207.155 318.625 207.155V206.255L320.14 205.535H323.965V207.155H321.445L321.43 207.215C321.69 207.375 321.88 207.605 322 207.905C322.13 208.205 322.195 208.6 322.195 209.09V211.28H319.945ZM322.03 218.15C321.58 218.15 321.2 218.08 320.89 217.94C320.58 217.8 320.345 217.59 320.185 217.31C320.025 217.02 319.945 216.66 319.945 216.23V209.78H322.195V215.96C322.195 216.15 322.235 216.29 322.315 216.38C322.405 216.47 322.54 216.515 322.72 216.515C322.8 216.515 322.885 216.505 322.975 216.485C323.065 216.465 323.15 216.44 323.23 216.41L323.44 217.85C323.25 217.95 323.035 218.025 322.795 218.075C322.555 218.125 322.3 218.15 322.03 218.15ZM272.751 239.15C272.141 239.15 271.626 239.035 271.206 238.805C270.796 238.565 270.481 238.21 270.261 237.74C270.051 237.27 269.946 236.695 269.946 236.015V230.78H272.196V235.625C272.196 236.175 272.306 236.575 272.526 236.825C272.746 237.075 273.066 237.2 273.486 237.2C274.016 237.2 274.426 237 274.716 236.6C275.006 236.19 275.151 235.56 275.151 234.71V230.78H277.401V239H275.691L275.451 237.74H275.316C275.146 238.14 274.851 238.475 274.431 238.745C274.021 239.015 273.461 239.15 272.751 239.15ZM284.488 239.15C283.778 239.15 283.203 239.015 282.763 238.745C282.333 238.475 282.028 238.13 281.848 237.71H281.728L281.488 239H279.778V230.78H282.028V234.71C282.028 235.28 282.093 235.75 282.223 236.12C282.353 236.48 282.543 236.75 282.793 236.93C283.043 237.11 283.343 237.2 283.693 237.2C284.113 237.2 284.433 237.075 284.653 236.825C284.873 236.575 284.983 236.175 284.983 235.625V230.78H287.233V236.12C287.233 236.77 287.128 237.32 286.918 237.77C286.718 238.22 286.413 238.565 286.003 238.805C285.593 239.035 285.088 239.15 284.488 239.15ZM285.12 229.64C284.65 229.64 284.28 229.57 284.01 229.43C283.74 229.29 283.55 229.115 283.44 228.905C283.32 228.685 283.26 228.455 283.26 228.215C283.26 228.045 283.285 227.865 283.335 227.675C283.385 227.475 283.46 227.29 283.56 227.12L285.195 227.33C285.175 227.4 285.16 227.475 285.15 227.555C285.13 227.625 285.12 227.69 285.12 227.75C285.12 227.89 285.165 228 285.255 228.08C285.335 228.15 285.475 228.185 285.675 228.185H288.9V229.64H285.12ZM292.475 239.15C291.585 239.15 290.89 238.97 290.39 238.61C289.9 238.24 289.555 237.73 289.355 237.08C289.165 236.42 289.07 235.655 289.07 234.785C289.07 233.815 289.165 233.025 289.355 232.415C289.545 231.805 289.83 231.355 290.21 231.065C290.6 230.775 291.075 230.63 291.635 230.63C291.985 230.63 292.29 230.7 292.55 230.84C292.82 230.97 293.035 231.215 293.195 231.575H293.255C293.395 231.205 293.625 230.955 293.945 230.825C294.265 230.695 294.61 230.63 294.98 230.63C295.67 230.63 296.185 230.815 296.525 231.185C296.875 231.555 297.05 232.095 297.05 232.805V239H294.8V233.225C294.8 232.915 294.75 232.705 294.65 232.595C294.55 232.485 294.415 232.43 294.245 232.43C294.055 232.43 293.91 232.485 293.81 232.595C293.72 232.705 293.66 232.89 293.63 233.15H292.745C292.705 232.86 292.63 232.67 292.52 232.58C292.41 232.48 292.28 232.43 292.13 232.43C291.88 232.43 291.685 232.61 291.545 232.97C291.415 233.33 291.35 233.94 291.35 234.8C291.35 235.36 291.39 235.84 291.47 236.24C291.56 236.63 291.71 236.93 291.92 237.14C292.13 237.34 292.43 237.44 292.82 237.44C292.94 237.44 293.05 237.435 293.15 237.425C293.25 237.405 293.335 237.38 293.405 237.35L293.63 238.955C293.47 239.025 293.295 239.075 293.105 239.105C292.915 239.135 292.705 239.15 292.475 239.15ZM289.83 229.64V228.695L291.345 228.065H296.7V229.64H289.83Z" fill="#484848"/>
</g>
<g clip-path="url(#clip4_426_25387)">
<rect x="337.25" y="199" width="87.25" height="50" rx="10" fill="#161F2C"/>
<g clip-path="url(#clip5_426_25387)">
<path d="M359.728 229.15C359.278 229.15 358.898 229.08 358.588 228.94C358.278 228.8 358.043 228.59 357.883 228.31C357.723 228.02 357.643 227.66 357.643 227.23V220.78H359.893V226.96C359.893 227.15 359.933 227.29 360.013 227.38C360.103 227.47 360.238 227.515 360.418 227.515C360.498 227.515 360.583 227.505 360.673 227.485C360.763 227.465 360.848 227.44 360.928 227.41L361.138 228.85C360.948 228.95 360.733 229.025 360.493 229.075C360.253 229.125 359.998 229.15 359.728 229.15ZM363.165 229L361.74 220.78H363.93L364.335 223.675C364.365 223.915 364.4 224.245 364.44 224.665C364.49 225.075 364.535 225.555 364.575 226.105H364.62C364.71 225.735 364.79 225.4 364.86 225.1C364.93 224.79 364.995 224.515 365.055 224.275C365.125 224.025 365.185 223.81 365.235 223.63L366.045 220.78H367.41L368.22 223.63C368.27 223.81 368.325 224.025 368.385 224.275C368.455 224.515 368.525 224.79 368.595 225.1C368.675 225.4 368.755 225.735 368.835 226.105H368.88C368.93 225.555 368.97 225.075 369 224.665C369.04 224.245 369.08 223.915 369.12 223.675L369.54 220.78H371.715L370.305 229H368.1L367.155 225.655C367.055 225.265 366.975 224.91 366.915 224.59C366.865 224.26 366.815 223.925 366.765 223.585H366.705C366.665 223.815 366.625 224.035 366.585 224.245C366.555 224.455 366.515 224.675 366.465 224.905C366.415 225.125 366.35 225.375 366.27 225.655L365.31 229H363.165ZM364.265 219.64V218.695L365.78 218.065H371.135V219.64H364.265ZM367.415 218.725V217.03H368.84V218.725H367.415ZM369.725 218.725V217.03H371.135V218.725H369.725ZM368.453 216.235V213.445H370.403V216.235H368.453ZM376.493 229.195C375.273 229.195 374.368 228.9 373.778 228.31C373.188 227.71 372.893 226.825 372.893 225.655C372.893 225.455 372.898 225.215 372.908 224.935C372.928 224.645 372.953 224.39 372.983 224.17H376.583V225.595H375.098V225.805C375.098 226.205 375.148 226.535 375.248 226.795C375.348 227.045 375.498 227.23 375.698 227.35C375.908 227.47 376.168 227.53 376.478 227.53C376.818 227.53 377.103 227.455 377.333 227.305C377.573 227.155 377.753 226.9 377.873 226.54C378.003 226.18 378.068 225.685 378.068 225.055C378.068 224.465 377.998 223.975 377.858 223.585C377.728 223.185 377.503 222.885 377.183 222.685C376.873 222.485 376.443 222.385 375.893 222.385C375.593 222.385 375.283 222.42 374.963 222.49C374.643 222.55 374.338 222.63 374.048 222.73C373.768 222.83 373.523 222.94 373.313 223.06V221.185C373.533 221.065 373.803 220.96 374.123 220.87C374.453 220.78 374.808 220.71 375.188 220.66C375.568 220.61 375.943 220.585 376.313 220.585C377.283 220.585 378.063 220.765 378.653 221.125C379.253 221.475 379.688 221.975 379.958 222.625C380.238 223.275 380.378 224.045 380.378 224.935C380.378 225.845 380.243 226.62 379.973 227.26C379.713 227.89 379.298 228.37 378.728 228.7C378.158 229.03 377.413 229.195 376.493 229.195ZM386.795 229V223.66C386.795 223.18 386.665 222.835 386.405 222.625C386.145 222.415 385.745 222.31 385.205 222.31C384.685 222.31 384.175 222.39 383.675 222.55C383.185 222.7 382.76 222.88 382.4 223.09V221.23C382.69 221.09 383.1 220.95 383.63 220.81C384.16 220.66 384.775 220.585 385.475 220.585C385.985 220.585 386.45 220.64 386.87 220.75C387.3 220.85 387.675 221.025 387.995 221.275C388.315 221.515 388.56 221.84 388.73 222.25C388.91 222.65 389 223.15 389 223.75V229H386.795ZM384.335 229.15C383.475 229.15 382.81 228.945 382.34 228.535C381.88 228.125 381.65 227.55 381.65 226.81C381.65 226.01 381.935 225.37 382.505 224.89C383.085 224.41 383.995 224.12 385.235 224.02L387.155 223.87V225.49L385.49 225.655C384.89 225.715 384.47 225.835 384.23 226.015C384 226.195 383.885 226.435 383.885 226.735C383.885 227.035 383.98 227.26 384.17 227.41C384.37 227.56 384.625 227.635 384.935 227.635C385.055 227.635 385.175 227.625 385.295 227.605C385.415 227.575 385.525 227.545 385.625 227.515L385.82 228.925C385.63 228.995 385.405 229.05 385.145 229.09C384.885 229.13 384.615 229.15 384.335 229.15ZM384.329 219.655V218.905C384.469 218.865 384.624 218.81 384.794 218.74C384.964 218.67 385.114 218.575 385.244 218.455C385.374 218.335 385.439 218.185 385.439 218.005C385.439 217.865 385.399 217.755 385.319 217.675C385.239 217.595 385.139 217.555 385.019 217.555C384.939 217.555 384.854 217.57 384.764 217.6C384.674 217.63 384.594 217.66 384.524 217.69L384.239 216.685C384.439 216.515 384.689 216.405 384.989 216.355C385.279 216.295 385.524 216.265 385.724 216.265C386.174 216.265 386.529 216.37 386.789 216.58C387.039 216.79 387.164 217.1 387.164 217.51C387.164 217.73 387.109 217.935 386.999 218.125C386.879 218.315 386.699 218.47 386.459 218.59L386.399 218.2H389.234V219.655H384.329ZM393.269 229V223.57C393.269 223.15 393.169 222.845 392.969 222.655C392.779 222.465 392.464 222.37 392.024 222.37C391.694 222.37 391.389 222.415 391.109 222.505C390.839 222.595 390.584 222.705 390.344 222.835V221.035C390.564 220.935 390.874 220.835 391.274 220.735C391.674 220.635 392.144 220.585 392.684 220.585C393.234 220.585 393.719 220.665 394.139 220.825C394.569 220.985 394.904 221.255 395.144 221.635C395.394 222.005 395.519 222.515 395.519 223.165V229H393.269ZM399.023 229L396.638 220.78H398.903L400.718 227.185H400.808C400.968 227.185 401.118 227.14 401.258 227.05C401.398 226.96 401.518 226.84 401.618 226.69C401.818 226.41 401.968 226.08 402.068 225.7C402.168 225.31 402.218 224.925 402.218 224.545C402.218 223.875 402.088 223.36 401.828 223C401.578 222.64 401.228 222.46 400.778 222.46C400.688 222.46 400.603 222.465 400.523 222.475C400.453 222.485 400.388 222.505 400.328 222.535L399.908 220.81C400.138 220.74 400.353 220.7 400.553 220.69C400.763 220.67 400.933 220.66 401.063 220.66C401.593 220.66 402.053 220.73 402.443 220.87C402.833 221.01 403.168 221.22 403.448 221.5C403.798 221.84 404.058 222.265 404.228 222.775C404.408 223.285 404.498 223.86 404.498 224.5C404.498 225.31 404.368 226.02 404.108 226.63C403.858 227.23 403.553 227.705 403.193 228.055C402.893 228.345 402.513 228.575 402.053 228.745C401.603 228.915 400.983 229 400.193 229H399.023Z" fill="white"/>
</g>
</g>
<rect x="337.75" y="199.5" width="86.25" height="49" rx="9.5" stroke="#55657E"/>
<defs>
<filter id="filter0_d_426_25387" x="354.285" y="101.334" width="49.7772" height="25.9004" filterUnits="userSpaceOnUse" color-interpolation-filters="sRGB">
<feFlood flood-opacity="0" result="BackgroundImageFix"/>
<feColorMatrix in="SourceAlpha" type="matrix" values="0 0 0 0 0 0 0 0 0 0 0 0 0 0 0 0 0 0 127 0" result="hardAlpha"/>
<feOffset dy="2"/>
<feGaussianBlur stdDeviation="2"/>
<feComposite in2="hardAlpha" operator="out"/>
<feColorMatrix type="matrix" values="0 0 0 0 0 0 0 0 0 0 0 0 0 0 0 0 0 0 0.3 0"/>
<feBlend mode="normal" in2="BackgroundImageFix" result="effect1_dropShadow_426_25387"/>
<feBlend mode="normal" in="SourceGraphic" in2="effect1_dropShadow_426_25387" result="shape"/>
</filter>
<clipPath id="clip0_426_25387">
<rect width="143" height="46" fill="white" transform="translate(103 90.5)"/>
</clipPath>
<clipPath id="clip1_426_25387">
<rect width="24" height="24" fill="white" transform="translate(103 90.5)"/>
</clipPath>
<clipPath id="clip2_426_25387">
<rect x="333.5" y="75" width="91" height="77" rx="10" fill="white"/>
</clipPath>
<clipPath id="clip3_426_25387">
<rect x="240" y="199" width="87.25" height="50" rx="10" fill="white"/>
</clipPath>
<clipPath id="clip4_426_25387">
<rect x="337.25" y="199" width="87.25" height="50" rx="10" fill="white"/>
</clipPath>
<clipPath id="clip5_426_25387">
<rect width="87.25" height="40" fill="white" transform="translate(337.25 204)"/>
</clipPath>
</defs>
</svg>
