<svg width="460" height="324" viewBox="0 0 460 324" fill="none" xmlns="http://www.w3.org/2000/svg">
<rect width="460" height="324" rx="10" fill="#F4F7FD"/>
<rect x="23.5" y="20" width="413" height="284" rx="15" fill="white"/>
<rect x="36" y="75.5" width="277" height="76" rx="9.5" fill="white"/>
<rect x="43.5" y="83" width="50" height="26.5" rx="10" fill="#F1F1F1"/>
<path d="M54.37 95.21V96.35H55.675V101.3L54.385 101.36L54.565 102.56C56.59 102.425 58.285 102.275 59.65 102.11V103.34H61.015V101.93C61.3 101.87 61.57 101.825 61.81 101.78V100.685L61.015 100.82V96.35H67.66V95.21H54.37ZM56.98 101.225V100.19H59.65V101C58.84 101.09 57.955 101.165 56.98 101.225ZM56.98 99.17V98.255H59.65V99.17H56.98ZM56.98 97.235V96.35H59.65V97.235H56.98ZM56.14 89.915V94.46H65.95V89.915H56.14ZM64.585 93.47H57.505V92.675H64.585V93.47ZM57.505 91.7V90.95H64.585V91.7H57.505ZM62.11 98.27C62.38 99.26 62.89 100.175 63.655 101.015C63.055 101.495 62.335 101.9 61.48 102.26L62.215 103.355C63.13 102.965 63.925 102.485 64.615 101.915C65.275 102.44 66.055 102.92 66.985 103.355L67.72 102.17C66.865 101.825 66.13 101.435 65.515 101C66.16 100.205 66.61 99.275 66.865 98.195V97.115H61.645V98.27H62.11ZM64.525 100.175C63.97 99.605 63.58 98.96 63.34 98.27H65.59C65.365 98.96 65.005 99.59 64.525 100.175ZM75.175 103.13C76.375 103.13 76.99 102.5 76.99 101.24V89.675H75.505V100.865C75.505 101.45 75.205 101.75 74.635 101.75C74.005 101.75 73.345 101.705 72.625 101.645L72.97 103.13H75.175ZM71.47 93.155C70.915 95.765 70.06 97.85 68.92 99.41L70.165 100.505C71.29 98.945 72.205 96.68 72.895 93.725L71.47 93.155ZM80.5 92.78L79.195 93.59C80.245 96.17 81.085 98.495 81.715 100.58L83.005 99.695C82.42 97.715 81.58 95.42 80.5 92.78Z" fill="#A6A6A6"/>
<rect x="43.5" y="117.5" width="50" height="26.5" rx="10" fill="#F1F1F1"/>
<path d="M54.37 129.71V130.85H55.675V135.8L54.385 135.86L54.565 137.06C56.59 136.925 58.285 136.775 59.65 136.61V137.84H61.015V136.43C61.3 136.37 61.57 136.325 61.81 136.28V135.185L61.015 135.32V130.85H67.66V129.71H54.37ZM56.98 135.725V134.69H59.65V135.5C58.84 135.59 57.955 135.665 56.98 135.725ZM56.98 133.67V132.755H59.65V133.67H56.98ZM56.98 131.735V130.85H59.65V131.735H56.98ZM56.14 124.415V128.96H65.95V124.415H56.14ZM64.585 127.97H57.505V127.175H64.585V127.97ZM57.505 126.2V125.45H64.585V126.2H57.505ZM62.11 132.77C62.38 133.76 62.89 134.675 63.655 135.515C63.055 135.995 62.335 136.4 61.48 136.76L62.215 137.855C63.13 137.465 63.925 136.985 64.615 136.415C65.275 136.94 66.055 137.42 66.985 137.855L67.72 136.67C66.865 136.325 66.13 135.935 65.515 135.5C66.16 134.705 66.61 133.775 66.865 132.695V131.615H61.645V132.77H62.11ZM64.525 134.675C63.97 134.105 63.58 133.46 63.34 132.77H65.59C65.365 133.46 65.005 134.09 64.525 134.675ZM69.37 127.775V129.155H74.875C74.08 132.665 72.13 135.185 69.04 136.685L69.955 137.885C73 136.28 75.025 133.76 76.015 130.325C77.155 133.505 79.18 135.98 82.06 137.75L82.945 136.595C79.975 134.84 77.95 132.365 76.9 129.155H82.63V127.775H76.54C76.66 126.875 76.72 125.93 76.72 124.94V123.965H75.28V125.27C75.265 126.14 75.205 126.98 75.115 127.775H69.37Z" fill="#A6A6A6"/>
<g clip-path="url(#clip0_426_26265)">
<g clip-path="url(#clip1_426_26265)">
<path d="M126.639 105.403C125.037 111.831 118.526 115.744 112.096 114.141C105.67 112.538 101.757 106.026 103.361 99.5984C104.963 93.169 111.474 89.2564 117.901 90.8591C124.33 92.4618 128.242 98.974 126.639 105.403L126.639 105.403H126.639Z" fill="#F7931A"/>
<path d="M120.292 100.79C120.53 99.1934 119.315 98.335 117.652 97.7623L118.191 95.5991L116.875 95.271L116.35 97.3773C116.003 97.2909 115.648 97.2096 115.295 97.1289L115.823 95.0088L114.507 94.6807L113.968 96.8432C113.681 96.7779 113.4 96.7135 113.127 96.6455L113.128 96.6387L111.313 96.1853L110.962 97.5917C110.962 97.5917 111.939 97.8157 111.919 97.8294C112.452 97.9625 112.548 98.3155 112.532 98.5953L111.918 101.06C111.955 101.069 112.002 101.082 112.055 101.104C112.011 101.093 111.964 101.081 111.916 101.069L111.055 104.521C110.989 104.683 110.824 104.927 110.451 104.834C110.464 104.853 109.494 104.595 109.494 104.595L108.84 106.103L110.554 106.53C110.873 106.61 111.185 106.693 111.493 106.772L110.948 108.96L112.263 109.288L112.803 107.123C113.162 107.221 113.511 107.311 113.852 107.396L113.314 109.55L114.631 109.878L115.176 107.695C117.421 108.12 119.11 107.948 119.821 105.917C120.393 104.282 119.792 103.339 118.611 102.724C119.471 102.525 120.119 101.96 120.292 100.791L120.292 100.79L120.292 100.79ZM117.283 105.009C116.876 106.644 114.123 105.76 113.23 105.539L113.953 102.64C114.846 102.863 117.708 103.304 117.283 105.009H117.283ZM117.69 100.767C117.319 102.254 115.027 101.498 114.284 101.313L114.94 98.6841C115.683 98.8694 118.077 99.2152 117.69 100.767H117.69Z" fill="white"/>
</g>
<path d="M132.215 104.005C132.215 101.556 132.654 99.8418 133.533 98.8633C134.418 97.8848 135.763 97.3955 137.567 97.3955C138.435 97.3955 139.146 97.5039 139.703 97.7207C140.26 97.9316 140.714 98.21 141.065 98.5557C141.417 98.8955 141.692 99.2559 141.892 99.6367C142.097 100.012 142.261 100.451 142.384 100.955C142.624 101.916 142.744 102.918 142.744 103.961C142.744 106.299 142.349 108.01 141.558 109.094C140.767 110.178 139.404 110.72 137.471 110.72C136.387 110.72 135.511 110.547 134.843 110.201C134.175 109.855 133.627 109.349 133.199 108.681C132.889 108.206 132.646 107.559 132.47 106.738C132.3 105.912 132.215 105.001 132.215 104.005ZM135.766 104.014C135.766 105.654 135.909 106.776 136.196 107.38C136.489 107.978 136.911 108.276 137.462 108.276C137.825 108.276 138.139 108.15 138.402 107.898C138.672 107.641 138.868 107.236 138.991 106.686C139.12 106.135 139.185 105.276 139.185 104.11C139.185 102.399 139.038 101.251 138.745 100.665C138.458 100.073 138.024 99.7773 137.444 99.7773C136.853 99.7773 136.425 100.079 136.161 100.683C135.897 101.28 135.766 102.391 135.766 104.014ZM144.572 106.914H148.396V110.5H144.572V106.914ZM150.215 104.005C150.215 101.556 150.654 99.8418 151.533 98.8633C152.418 97.8848 153.763 97.3955 155.567 97.3955C156.435 97.3955 157.146 97.5039 157.703 97.7207C158.26 97.9316 158.714 98.21 159.065 98.5557C159.417 98.8955 159.692 99.2559 159.892 99.6367C160.097 100.012 160.261 100.451 160.384 100.955C160.624 101.916 160.744 102.918 160.744 103.961C160.744 106.299 160.349 108.01 159.558 109.094C158.767 110.178 157.404 110.72 155.471 110.72C154.387 110.72 153.511 110.547 152.843 110.201C152.175 109.855 151.627 109.349 151.199 108.681C150.889 108.206 150.646 107.559 150.47 106.738C150.3 105.912 150.215 105.001 150.215 104.005ZM153.766 104.014C153.766 105.654 153.909 106.776 154.196 107.38C154.489 107.978 154.911 108.276 155.462 108.276C155.825 108.276 156.139 108.15 156.402 107.898C156.672 107.641 156.868 107.236 156.991 106.686C157.12 106.135 157.185 105.276 157.185 104.11C157.185 102.399 157.038 101.251 156.745 100.665C156.458 100.073 156.024 99.7773 155.444 99.7773C154.853 99.7773 154.425 100.079 154.161 100.683C153.897 101.28 153.766 102.391 153.766 104.014ZM162.221 104.005C162.221 101.556 162.66 99.8418 163.539 98.8633C164.424 97.8848 165.769 97.3955 167.573 97.3955C168.44 97.3955 169.152 97.5039 169.709 97.7207C170.266 97.9316 170.72 98.21 171.071 98.5557C171.423 98.8955 171.698 99.2559 171.897 99.6367C172.103 100.012 172.267 100.451 172.39 100.955C172.63 101.916 172.75 102.918 172.75 103.961C172.75 106.299 172.354 108.01 171.563 109.094C170.772 110.178 169.41 110.72 167.477 110.72C166.393 110.72 165.517 110.547 164.849 110.201C164.181 109.855 163.633 109.349 163.205 108.681C162.895 108.206 162.651 107.559 162.476 106.738C162.306 105.912 162.221 105.001 162.221 104.005ZM165.771 104.014C165.771 105.654 165.915 106.776 166.202 107.38C166.495 107.978 166.917 108.276 167.468 108.276C167.831 108.276 168.145 108.15 168.408 107.898C168.678 107.641 168.874 107.236 168.997 106.686C169.126 106.135 169.19 105.276 169.19 104.11C169.19 102.399 169.044 101.251 168.751 100.665C168.464 100.073 168.03 99.7773 167.45 99.7773C166.858 99.7773 166.431 100.079 166.167 100.683C165.903 101.28 165.771 102.391 165.771 104.014ZM174.227 104.005C174.227 101.556 174.666 99.8418 175.545 98.8633C176.43 97.8848 177.774 97.3955 179.579 97.3955C180.446 97.3955 181.158 97.5039 181.715 97.7207C182.271 97.9316 182.726 98.21 183.077 98.5557C183.429 98.8955 183.704 99.2559 183.903 99.6367C184.108 100.012 184.272 100.451 184.396 100.955C184.636 101.916 184.756 102.918 184.756 103.961C184.756 106.299 184.36 108.01 183.569 109.094C182.778 110.178 181.416 110.72 179.482 110.72C178.398 110.72 177.522 110.547 176.854 110.201C176.187 109.855 175.639 109.349 175.211 108.681C174.9 108.206 174.657 107.559 174.481 106.738C174.312 105.912 174.227 105.001 174.227 104.005ZM177.777 104.014C177.777 105.654 177.921 106.776 178.208 107.38C178.501 107.978 178.923 108.276 179.474 108.276C179.837 108.276 180.15 108.15 180.414 107.898C180.684 107.641 180.88 107.236 181.003 106.686C181.132 106.135 181.196 105.276 181.196 104.11C181.196 102.399 181.05 101.251 180.757 100.665C180.47 100.073 180.036 99.7773 179.456 99.7773C178.864 99.7773 178.437 100.079 178.173 100.683C177.909 101.28 177.777 102.391 177.777 104.014ZM186.232 104.005C186.232 101.556 186.672 99.8418 187.551 98.8633C188.436 97.8848 189.78 97.3955 191.585 97.3955C192.452 97.3955 193.164 97.5039 193.721 97.7207C194.277 97.9316 194.731 98.21 195.083 98.5557C195.435 98.8955 195.71 99.2559 195.909 99.6367C196.114 100.012 196.278 100.451 196.401 100.955C196.642 101.916 196.762 102.918 196.762 103.961C196.762 106.299 196.366 108.01 195.575 109.094C194.784 110.178 193.422 110.72 191.488 110.72C190.404 110.72 189.528 110.547 188.86 110.201C188.192 109.855 187.645 109.349 187.217 108.681C186.906 108.206 186.663 107.559 186.487 106.738C186.317 105.912 186.232 105.001 186.232 104.005ZM189.783 104.014C189.783 105.654 189.927 106.776 190.214 107.38C190.507 107.978 190.929 108.276 191.479 108.276C191.843 108.276 192.156 108.15 192.42 107.898C192.689 107.641 192.886 107.236 193.009 106.686C193.138 106.135 193.202 105.276 193.202 104.11C193.202 102.399 193.056 101.251 192.763 100.665C192.476 100.073 192.042 99.7773 191.462 99.7773C190.87 99.7773 190.442 100.079 190.179 100.683C189.915 101.28 189.783 102.391 189.783 104.014ZM206.351 97.3955V110.5H202.729V101.913C202.144 102.358 201.575 102.719 201.024 102.994C200.479 103.27 199.794 103.533 198.968 103.785V100.85C200.187 100.457 201.133 99.9854 201.807 99.4346C202.48 98.8838 203.008 98.2041 203.389 97.3955H206.351ZM210.244 104.005C210.244 101.556 210.684 99.8418 211.562 98.8633C212.447 97.8848 213.792 97.3955 215.597 97.3955C216.464 97.3955 217.176 97.5039 217.732 97.7207C218.289 97.9316 218.743 98.21 219.095 98.5557C219.446 98.8955 219.722 99.2559 219.921 99.6367C220.126 100.012 220.29 100.451 220.413 100.955C220.653 101.916 220.773 102.918 220.773 103.961C220.773 106.299 220.378 108.01 219.587 109.094C218.796 110.178 217.434 110.72 215.5 110.72C214.416 110.72 213.54 110.547 212.872 110.201C212.204 109.855 211.656 109.349 211.229 108.681C210.918 108.206 210.675 107.559 210.499 106.738C210.329 105.912 210.244 105.001 210.244 104.005ZM213.795 104.014C213.795 105.654 213.938 106.776 214.226 107.38C214.519 107.978 214.94 108.276 215.491 108.276C215.854 108.276 216.168 108.15 216.432 107.898C216.701 107.641 216.897 107.236 217.021 106.686C217.149 106.135 217.214 105.276 217.214 104.11C217.214 102.399 217.067 101.251 216.774 100.665C216.487 100.073 216.054 99.7773 215.474 99.7773C214.882 99.7773 214.454 100.079 214.19 100.683C213.927 101.28 213.795 102.391 213.795 104.014ZM222.25 104.005C222.25 101.556 222.689 99.8418 223.568 98.8633C224.453 97.8848 225.798 97.3955 227.603 97.3955C228.47 97.3955 229.182 97.5039 229.738 97.7207C230.295 97.9316 230.749 98.21 231.101 98.5557C231.452 98.8955 231.728 99.2559 231.927 99.6367C232.132 100.012 232.296 100.451 232.419 100.955C232.659 101.916 232.779 102.918 232.779 103.961C232.779 106.299 232.384 108.01 231.593 109.094C230.802 110.178 229.439 110.72 227.506 110.72C226.422 110.72 225.546 110.547 224.878 110.201C224.21 109.855 223.662 109.349 223.234 108.681C222.924 108.206 222.681 107.559 222.505 106.738C222.335 105.912 222.25 105.001 222.25 104.005ZM225.801 104.014C225.801 105.654 225.944 106.776 226.231 107.38C226.524 107.978 226.946 108.276 227.497 108.276C227.86 108.276 228.174 108.15 228.438 107.898C228.707 107.641 228.903 107.236 229.026 106.686C229.155 106.135 229.22 105.276 229.22 104.11C229.22 102.399 229.073 101.251 228.78 100.665C228.493 100.073 228.06 99.7773 227.479 99.7773C226.888 99.7773 226.46 100.079 226.196 100.683C225.933 101.28 225.801 102.391 225.801 104.014ZM234.256 104.005C234.256 101.556 234.695 99.8418 235.574 98.8633C236.459 97.8848 237.804 97.3955 239.608 97.3955C240.476 97.3955 241.188 97.5039 241.744 97.7207C242.301 97.9316 242.755 98.21 243.106 98.5557C243.458 98.8955 243.733 99.2559 243.933 99.6367C244.138 100.012 244.302 100.451 244.425 100.955C244.665 101.916 244.785 102.918 244.785 103.961C244.785 106.299 244.39 108.01 243.599 109.094C242.808 110.178 241.445 110.72 239.512 110.72C238.428 110.72 237.552 110.547 236.884 110.201C236.216 109.855 235.668 109.349 235.24 108.681C234.93 108.206 234.687 107.559 234.511 106.738C234.341 105.912 234.256 105.001 234.256 104.005ZM237.807 104.014C237.807 105.654 237.95 106.776 238.237 107.38C238.53 107.978 238.952 108.276 239.503 108.276C239.866 108.276 240.18 108.15 240.443 107.898C240.713 107.641 240.909 107.236 241.032 106.686C241.161 106.135 241.226 105.276 241.226 104.11C241.226 102.399 241.079 101.251 240.786 100.665C240.499 100.073 240.065 99.7773 239.485 99.7773C238.894 99.7773 238.466 100.079 238.202 100.683C237.938 101.28 237.807 102.391 237.807 104.014Z" fill="#484848"/>
<path d="M134.921 131.911V128.842C133.964 128.568 133.261 128.156 132.812 127.604C132.367 127.047 132.145 126.374 132.145 125.583C132.145 124.782 132.396 124.11 132.899 123.568C133.407 123.021 134.081 122.707 134.921 122.624V121.898H135.983V122.624C136.759 122.716 137.377 122.982 137.836 123.422C138.295 123.856 138.588 124.44 138.715 125.172L136.862 125.414C136.75 124.838 136.457 124.447 135.983 124.242V127.106C137.155 127.423 137.953 127.836 138.378 128.344C138.803 128.847 139.015 129.494 139.015 130.285C139.015 131.168 138.747 131.913 138.209 132.519C137.677 133.124 136.935 133.495 135.983 133.632V135.001H134.921V133.668C134.076 133.566 133.39 133.251 132.863 132.724C132.335 132.196 131.999 131.452 131.852 130.49L133.764 130.285C133.842 130.675 133.988 131.012 134.203 131.295C134.418 131.579 134.657 131.784 134.921 131.911ZM134.921 124.22C134.633 124.318 134.403 124.484 134.232 124.718C134.062 124.953 133.976 125.211 133.976 125.495C133.976 125.753 134.054 125.995 134.21 126.22C134.367 126.439 134.604 126.618 134.921 126.754V124.22ZM135.983 132.013C136.349 131.945 136.647 131.776 136.876 131.508C137.106 131.234 137.221 130.915 137.221 130.548C137.221 130.221 137.123 129.94 136.928 129.706C136.737 129.467 136.422 129.284 135.983 129.157V132.013ZM144.362 133.5V131.339H139.967V129.538L144.625 122.719H146.354V129.53H147.687V131.339H146.354V133.5H144.362ZM144.362 129.53V125.861L141.894 129.53H144.362ZM149.115 133.5V131.442H151.173V133.5H149.115ZM156.886 133.5V131.339H152.492V129.538L157.15 122.719H158.878V129.53H160.211V131.339H158.878V133.5H156.886ZM156.886 129.53V125.861L154.418 129.53H156.886ZM164.679 122.719C165.719 122.719 166.532 123.09 167.118 123.832C167.816 124.711 168.166 126.168 168.166 128.205C168.166 130.236 167.814 131.696 167.111 132.584C166.53 133.317 165.719 133.683 164.679 133.683C163.634 133.683 162.792 133.283 162.152 132.482C161.513 131.676 161.193 130.243 161.193 128.183C161.193 126.161 161.544 124.706 162.248 123.817C162.829 123.085 163.639 122.719 164.679 122.719ZM164.679 124.425C164.43 124.425 164.208 124.506 164.013 124.667C163.817 124.823 163.666 125.106 163.559 125.517C163.417 126.049 163.346 126.945 163.346 128.205C163.346 129.464 163.41 130.331 163.537 130.805C163.664 131.273 163.822 131.586 164.013 131.742C164.208 131.898 164.43 131.977 164.679 131.977C164.928 131.977 165.15 131.898 165.346 131.742C165.541 131.581 165.692 131.295 165.8 130.885C165.941 130.358 166.012 129.464 166.012 128.205C166.012 126.945 165.949 126.081 165.822 125.612C165.695 125.138 165.534 124.823 165.338 124.667C165.148 124.506 164.928 124.425 164.679 124.425ZM173.029 122.719C174.069 122.719 174.882 123.09 175.468 123.832C176.166 124.711 176.515 126.168 176.515 128.205C176.515 130.236 176.164 131.696 175.46 132.584C174.879 133.317 174.069 133.683 173.029 133.683C171.984 133.683 171.142 133.283 170.502 132.482C169.862 131.676 169.542 130.243 169.542 128.183C169.542 126.161 169.894 124.706 170.597 123.817C171.178 123.085 171.989 122.719 173.029 122.719ZM173.029 124.425C172.78 124.425 172.558 124.506 172.362 124.667C172.167 124.823 172.016 125.106 171.908 125.517C171.767 126.049 171.696 126.945 171.696 128.205C171.696 129.464 171.759 130.331 171.886 130.805C172.013 131.273 172.172 131.586 172.362 131.742C172.558 131.898 172.78 131.977 173.029 131.977C173.278 131.977 173.5 131.898 173.695 131.742C173.891 131.581 174.042 131.295 174.149 130.885C174.291 130.358 174.362 129.464 174.362 128.205C174.362 126.945 174.298 126.081 174.171 125.612C174.044 125.138 173.883 124.823 173.688 124.667C173.498 124.506 173.278 124.425 173.029 124.425ZM181.378 122.719C182.418 122.719 183.231 123.09 183.817 123.832C184.516 124.711 184.865 126.168 184.865 128.205C184.865 130.236 184.513 131.696 183.81 132.584C183.229 133.317 182.418 133.683 181.378 133.683C180.333 133.683 179.491 133.283 178.852 132.482C178.212 131.676 177.892 130.243 177.892 128.183C177.892 126.161 178.244 124.706 178.947 123.817C179.528 123.085 180.338 122.719 181.378 122.719ZM181.378 124.425C181.129 124.425 180.907 124.506 180.712 124.667C180.517 124.823 180.365 125.106 180.258 125.517C180.116 126.049 180.045 126.945 180.045 128.205C180.045 129.464 180.109 130.331 180.236 130.805C180.363 131.273 180.521 131.586 180.712 131.742C180.907 131.898 181.129 131.977 181.378 131.977C181.627 131.977 181.85 131.898 182.045 131.742C182.24 131.581 182.392 131.295 182.499 130.885C182.641 130.358 182.711 129.464 182.711 128.205C182.711 126.945 182.648 126.081 182.521 125.612C182.394 125.138 182.233 124.823 182.038 124.667C181.847 124.506 181.627 124.425 181.378 124.425ZM189.728 122.719C190.768 122.719 191.581 123.09 192.167 123.832C192.865 124.711 193.214 126.168 193.214 128.205C193.214 130.236 192.863 131.696 192.16 132.584C191.579 133.317 190.768 133.683 189.728 133.683C188.683 133.683 187.841 133.283 187.201 132.482C186.562 131.676 186.242 130.243 186.242 128.183C186.242 126.161 186.593 124.706 187.296 123.817C187.877 123.085 188.688 122.719 189.728 122.719ZM189.728 124.425C189.479 124.425 189.257 124.506 189.062 124.667C188.866 124.823 188.715 125.106 188.607 125.517C188.466 126.049 188.395 126.945 188.395 128.205C188.395 129.464 188.458 130.331 188.585 130.805C188.712 131.273 188.871 131.586 189.062 131.742C189.257 131.898 189.479 131.977 189.728 131.977C189.977 131.977 190.199 131.898 190.395 131.742C190.59 131.581 190.741 131.295 190.849 130.885C190.99 130.358 191.061 129.464 191.061 128.205C191.061 126.945 190.998 126.081 190.871 125.612C190.744 125.138 190.583 124.823 190.387 124.667C190.197 124.506 189.977 124.425 189.728 124.425ZM198.078 122.719C199.118 122.719 199.931 123.09 200.517 123.832C201.215 124.711 201.564 126.168 201.564 128.205C201.564 130.236 201.212 131.696 200.509 132.584C199.928 133.317 199.118 133.683 198.078 133.683C197.033 133.683 196.19 133.283 195.551 132.482C194.911 131.676 194.591 130.243 194.591 128.183C194.591 126.161 194.943 124.706 195.646 123.817C196.227 123.085 197.038 122.719 198.078 122.719ZM198.078 124.425C197.829 124.425 197.606 124.506 197.411 124.667C197.216 124.823 197.064 125.106 196.957 125.517C196.815 126.049 196.745 126.945 196.745 128.205C196.745 129.464 196.808 130.331 196.935 130.805C197.062 131.273 197.221 131.586 197.411 131.742C197.606 131.898 197.829 131.977 198.078 131.977C198.327 131.977 198.549 131.898 198.744 131.742C198.939 131.581 199.091 131.295 199.198 130.885C199.34 130.358 199.411 129.464 199.411 128.205C199.411 126.945 199.347 126.081 199.22 125.612C199.093 125.138 198.932 124.823 198.737 124.667C198.546 124.506 198.327 124.425 198.078 124.425ZM206.427 122.719C207.467 122.719 208.28 123.09 208.866 123.832C209.564 124.711 209.914 126.168 209.914 128.205C209.914 130.236 209.562 131.696 208.859 132.584C208.278 133.317 207.467 133.683 206.427 133.683C205.382 133.683 204.54 133.283 203.9 132.482C203.261 131.676 202.941 130.243 202.941 128.183C202.941 126.161 203.292 124.706 203.996 123.817C204.577 123.085 205.387 122.719 206.427 122.719ZM206.427 124.425C206.178 124.425 205.956 124.506 205.761 124.667C205.565 124.823 205.414 125.106 205.307 125.517C205.165 126.049 205.094 126.945 205.094 128.205C205.094 129.464 205.158 130.331 205.285 130.805C205.412 131.273 205.57 131.586 205.761 131.742C205.956 131.898 206.178 131.977 206.427 131.977C206.676 131.977 206.898 131.898 207.094 131.742C207.289 131.581 207.44 131.295 207.548 130.885C207.689 130.358 207.76 129.464 207.76 128.205C207.76 126.945 207.697 126.081 207.57 125.612C207.443 125.138 207.282 124.823 207.086 124.667C206.896 124.506 206.676 124.425 206.427 124.425Z" fill="#A6A6A6"/>
</g>
<rect x="255.5" y="83" width="50" height="26.5" rx="10" fill="#F1F1F1"/>
<path d="M272.671 91.04C272.311 91.43 271.861 91.775 271.321 92.105C270.781 92.405 270.286 92.615 269.806 92.735V94.355C270.796 94.07 271.621 93.62 272.266 93.005V101.75H273.901V91.04H272.671ZM280.999 89.45L275.749 103.25H277.144L282.379 89.45H280.999ZM287.479 90.83C286.339 90.83 285.409 91.205 284.719 91.985C284.044 92.705 283.699 93.665 283.684 94.865H285.319C285.349 93.995 285.529 93.35 285.889 92.9C286.234 92.435 286.744 92.21 287.419 92.21C288.049 92.21 288.544 92.36 288.874 92.66C289.204 92.96 289.369 93.41 289.369 94.01C289.369 94.64 289.114 95.225 288.634 95.765C288.334 96.08 287.824 96.485 287.104 96.995C285.889 97.835 285.079 98.48 284.689 98.945C283.969 99.755 283.624 100.685 283.624 101.75H291.004V100.31H285.649C285.874 99.725 286.564 99.05 287.719 98.285C288.784 97.565 289.519 96.995 289.939 96.56C290.629 95.795 290.989 94.955 290.989 94.025C290.989 93.08 290.659 92.315 290.014 91.715C289.354 91.115 288.499 90.83 287.479 90.83Z" fill="#A6A6A6"/>
<rect x="255.5" y="117.5" width="50" height="26.5" rx="10" fill="#F1F1F1"/>
<path d="M276.691 125.33C275.551 125.33 274.621 125.705 273.931 126.485C273.256 127.205 272.911 128.165 272.896 129.365H274.531C274.561 128.495 274.741 127.85 275.101 127.4C275.446 126.935 275.956 126.71 276.631 126.71C277.261 126.71 277.756 126.86 278.086 127.16C278.416 127.46 278.581 127.91 278.581 128.51C278.581 129.14 278.326 129.725 277.846 130.265C277.546 130.58 277.036 130.985 276.316 131.495C275.101 132.335 274.291 132.98 273.901 133.445C273.181 134.255 272.836 135.185 272.836 136.25H280.216V134.81H274.861C275.086 134.225 275.776 133.55 276.931 132.785C277.996 132.065 278.731 131.495 279.151 131.06C279.841 130.295 280.201 129.455 280.201 128.525C280.201 127.58 279.871 126.815 279.226 126.215C278.566 125.615 277.711 125.33 276.691 125.33ZM281.44 128.495L284.125 132.125L281.095 136.25H282.97L285.01 133.295L287.035 136.25H288.895L285.88 132.125L288.565 128.495H286.705L285.01 130.955L283.3 128.495H281.44Z" fill="#A6A6A6"/>
<rect x="36" y="75.5" width="277" height="76" rx="9.5" stroke="#ECECEC"/>
<g clip-path="url(#clip2_426_26265)">
<rect x="333.5" y="75" width="91" height="77" rx="10" fill="#FB6943"/>
<g filter="url(#filter0_d_426_26265)">
<path d="M363.934 121.656C365.104 121.656 365.698 121.044 365.698 119.856V114.762C366.31 114.474 366.904 114.15 367.516 113.79V112.044C366.922 112.404 366.31 112.728 365.698 113.052V110.046H367.606V108.408H365.698V105.258H364.006V108.408H361.954V110.046H364.006V113.808C363.214 114.114 362.386 114.366 361.558 114.582L361.99 116.31C362.656 116.076 363.322 115.824 364.006 115.536V119.424C364.006 119.856 363.772 120.09 363.34 120.09C362.926 120.09 362.476 120.054 362.008 120L362.386 121.656H363.934ZM368.092 112.8V114.456H369.082C369.532 115.914 370.396 117.246 371.692 118.434C370.45 119.262 368.92 119.964 367.12 120.504L368.056 121.944C370.054 121.35 371.728 120.558 373.096 119.568C374.302 120.414 375.778 121.188 377.542 121.89L378.46 120.414C376.858 119.874 375.49 119.244 374.338 118.524C375.526 117.372 376.39 115.986 376.894 114.384V112.8H368.092ZM370.666 114.456H375.166C374.644 115.59 373.888 116.598 372.898 117.498C371.836 116.598 371.098 115.572 370.666 114.456ZM369.334 105.852V108.462C369.334 109.56 368.668 110.406 367.372 111L368.506 112.314C370.162 111.36 371.008 110.01 371.008 108.282V107.454H374.104V110.01C374.104 111.198 374.752 111.792 376.066 111.792H377.902V110.208H376.534C376.03 110.208 375.778 110.01 375.778 109.614V105.852H369.334ZM381.502 105.42L380.26 106.608C381.628 107.562 382.672 108.462 383.41 109.308L384.634 108.084C383.77 107.202 382.726 106.32 381.502 105.42ZM381.07 109.65L379.846 110.82C381.106 111.81 382.096 112.728 382.816 113.556L384.04 112.332C383.23 111.432 382.24 110.532 381.07 109.65ZM382.996 114.708C382.168 116.832 381.214 118.92 380.134 120.954L381.844 121.71C382.834 119.712 383.734 117.588 384.526 115.338L382.996 114.708ZM385.138 108.138V109.812H389.674V113.664H385.642V115.302H389.674V119.568H384.688V121.242H396.226V119.568H391.384V115.302H395.362V113.664H391.384V109.812H395.848V108.138H391.384L391.438 108.12C391.15 107.22 390.754 106.23 390.232 105.15L388.648 105.6C389.062 106.41 389.422 107.256 389.746 108.138H385.138Z" fill="white"/>
</g>
</g>
<path d="M37.705 184.43C37.375 185.72 36.85 186.935 36.115 188.075L37.33 188.84C38.065 187.685 38.635 186.305 39.025 184.715L37.705 184.43ZM43.48 183.8L42.25 184.205C42.7 184.985 43.12 185.9 43.48 186.935L44.695 186.395C44.35 185.465 43.945 184.61 43.48 183.8ZM47.995 184.115L46.63 184.55C47.32 185.72 47.965 187.055 48.535 188.57L49.81 188C49.3 186.62 48.685 185.315 47.995 184.115ZM45.13 189.32C45.685 189.32 46.105 189.2 46.39 188.96C46.675 188.705 46.87 187.925 46.99 186.62L45.64 186.17C45.595 187.04 45.505 187.55 45.37 187.715C45.28 187.865 45.1 187.955 44.86 187.955H41.83C41.455 187.955 41.275 187.79 41.275 187.475V184.31H39.865V187.775C39.865 188.795 40.375 189.32 41.395 189.32H45.13ZM36.82 176.21V177.53H40.84V182H36.325V183.35H49.675V182H45.175V177.53H49.18V176.21H36.82ZM42.205 182V177.53H43.81V182H42.205ZM47.065 178.13C46.705 179.315 46.3 180.29 45.85 181.07L47.02 181.475C47.53 180.605 47.935 179.6 48.265 178.445L47.065 178.13ZM38.935 178.145L37.765 178.52C38.23 179.45 38.62 180.425 38.935 181.43L40.15 181.13C39.79 180.005 39.385 179.015 38.935 178.145ZM54.385 182.33V186.275H57.505C57.235 186.695 56.875 187.055 56.395 187.37C55.615 187.85 54.49 188.225 53.035 188.465L53.74 189.605C55.36 189.23 56.59 188.735 57.4 188.135C58 187.685 58.45 187.16 58.78 186.56V188.03C58.78 188.9 59.26 189.335 60.25 189.335H63.04C63.64 189.335 64.075 189.245 64.36 189.065C64.66 188.87 64.885 188.27 65.005 187.265L63.85 186.905C63.79 187.58 63.67 187.985 63.49 188.105C63.355 188.225 63.13 188.285 62.815 188.285H60.595C60.205 188.285 60.01 188.105 60.01 187.775V186.275H61.06C60.88 186.755 60.655 187.13 60.415 187.4L60.64 188C61.3 187.925 61.945 187.79 62.605 187.595C62.665 187.73 62.74 187.88 62.8 188.03L63.49 187.775C63.325 187.37 63.07 186.92 62.74 186.44L62.08 186.635L62.35 187.085C61.99 187.205 61.63 187.28 61.27 187.34C61.48 187.04 61.675 186.695 61.855 186.275H63.355V182.33H58.675C58.765 182.12 58.855 181.895 58.915 181.655L57.73 181.49C57.67 181.775 57.595 182.06 57.505 182.33H54.385ZM62.08 185.39H59.185C59.23 185.18 59.275 184.955 59.32 184.715H62.08V185.39ZM57.895 185.39H55.675V184.715H58.045C58 184.94 57.955 185.165 57.895 185.39ZM55.675 183.86V183.245H58.195L58.15 183.86H55.675ZM59.47 183.245H62.08V183.86H59.425L59.47 183.245ZM53.755 178.475V179.51H55.345C54.835 180.02 54.19 180.485 53.38 180.89L54.055 181.88C54.655 181.445 55.21 180.92 55.69 180.29V181.94H56.86V180.335C57.145 180.605 57.475 180.935 57.835 181.325L58.465 180.41C57.925 180.08 57.4 179.78 56.86 179.51H58.6V178.475H56.86V177.695H60.85V178.475H59.14V179.51H60.325C59.905 180.05 59.305 180.5 58.51 180.875L59.125 181.865C59.86 181.34 60.43 180.695 60.85 179.93V181.94H62.005V179.915C62.425 180.62 63.055 181.28 63.895 181.895L64.705 180.875C63.745 180.455 63.01 180.005 62.53 179.51H64.18V178.475H62.005V177.695H64.48V176.555H58.96C58.825 176.195 58.69 175.88 58.57 175.58L57.085 175.82C57.235 176.045 57.37 176.285 57.49 176.555H51.97V182.735C51.94 185.255 51.61 187.235 50.995 188.66L52.075 189.635C52.825 187.895 53.215 185.6 53.245 182.735V177.695H55.69V178.475H53.755ZM66.265 180.905V182.21H68.215C67.735 183.62 66.97 184.865 65.95 185.96L66.565 187.505C67.255 186.53 67.84 185.465 68.29 184.295V189.545H69.655V183.92C70.03 184.505 70.48 185.255 70.99 186.17L71.8 184.955C71.08 184.115 70.375 183.35 69.655 182.66V182.21H71.335V180.905H69.655V175.73H68.29V180.905H66.265ZM70.6 176.735C70.51 177.935 70.33 179 70.06 179.915L70.975 180.215C71.335 179.24 71.56 178.13 71.65 176.87L70.6 176.735ZM67.285 176.96L66.265 177.29C66.52 178.265 66.73 179.285 66.91 180.335L67.855 180.095C67.69 178.925 67.495 177.875 67.285 176.96ZM75.16 175.685V176.57H72.055V177.725H75.16V178.46H72.49V179.585H75.16V180.335H71.755V181.52H79.885V180.335H76.525V179.585H79.105V178.46H76.525V177.725H79.54V176.57H76.525V175.685H75.16ZM73.78 185.3H77.815V186.11H73.78V185.3ZM77.815 184.22H73.78V183.365H77.815V184.22ZM73.78 187.175H77.815V187.775C77.815 188.105 77.665 188.27 77.38 188.27L76.405 188.195L76.75 189.44H77.785C78.715 189.44 79.18 188.975 79.18 188.06V182.21H72.445V189.515H73.78V187.175ZM83.215 178.58V179.795H91.63V180.89H82.57V182.18H93.055V176.18H82.81V177.455H91.63V178.58H83.215ZM84.235 183.05C83.77 184.085 83.215 184.97 82.585 185.72L83.695 186.515C84.37 185.72 84.955 184.775 85.465 183.665L84.235 183.05ZM88.765 182.54H87.355C87.34 183.395 87.265 184.07 87.115 184.55C86.5 186.29 84.625 187.535 81.49 188.255L82.075 189.575C85.135 188.78 87.145 187.535 88.09 185.855C89.02 187.595 91.135 188.825 94.435 189.575L95.02 188.255C91.615 187.58 89.485 186.23 88.645 184.22C88.72 183.71 88.765 183.155 88.765 182.54ZM92.35 182.975C91.855 183.965 91.27 184.805 90.58 185.525L91.72 186.335C92.44 185.555 93.055 184.64 93.595 183.575L92.35 182.975ZM105.505 179.24H107.44C107.38 181.04 107.11 182.63 106.615 184.01C106.09 182.84 105.655 181.475 105.325 179.915C105.385 179.705 105.445 179.48 105.505 179.24ZM105.97 185.465C105.31 186.65 104.425 187.61 103.315 188.36L104.05 189.545C105.1 188.795 105.985 187.865 106.69 186.77C107.41 187.925 108.25 188.855 109.225 189.56L110.02 188.405C109 187.715 108.13 186.74 107.38 185.495C108.19 183.77 108.64 181.685 108.73 179.24H109.6V177.875H105.79C105.91 177.26 106 176.615 106.09 175.925L104.695 175.685C104.395 178.475 103.825 180.695 102.985 182.345L103.885 183.455C104.155 183.005 104.395 182.495 104.635 181.955C105.01 183.26 105.46 184.43 105.97 185.465ZM98.86 182.66C98.77 182.93 98.665 183.23 98.545 183.53H96.43V184.745H98.005C97.72 185.315 97.39 185.9 97.03 186.53C97.72 186.8 98.38 187.055 98.995 187.31C98.185 187.73 97.21 188.06 96.085 188.33L96.745 189.5C98.23 189.11 99.475 188.6 100.465 187.955C101.29 188.33 101.995 188.69 102.58 189.05L103.345 187.94C102.775 187.64 102.175 187.34 101.56 187.07C102.25 186.38 102.73 185.585 103 184.685V183.53H99.94C100.03 183.29 100.105 183.065 100.195 182.825L98.86 182.66ZM100.255 186.53C99.76 186.32 99.25 186.14 98.725 185.96C98.965 185.57 99.19 185.165 99.4 184.745H101.725C101.395 185.405 100.915 186.005 100.255 186.53ZM97.825 175.925L96.7 176.3C97.045 176.855 97.375 177.5 97.675 178.22L98.695 177.755C98.44 177.095 98.155 176.495 97.825 175.925ZM102.13 175.91C101.86 176.51 101.485 177.125 101.005 177.755L101.995 178.265C102.46 177.65 102.835 177.02 103.135 176.39L102.13 175.91ZM96.46 178.475V179.72H98.35C97.9 180.41 97.165 181.055 96.115 181.655L96.82 182.81C97.975 182 98.8 181.055 99.295 179.975V182.51H100.6V180.83C101.065 181.13 101.62 181.55 102.28 182.075L103.03 180.95C102.205 180.515 101.395 180.125 100.6 179.795V179.72H103.21V178.475H100.6V175.715H99.295V178.475H96.46ZM112.675 182V185.9H117.28V186.56H112.375V187.475H117.28V188.18H111.25V189.26H124.75V188.18H118.69V187.475H123.655V186.56H118.69V185.9H123.355V182H112.675ZM122.005 185.06H118.69V184.34H122.005V185.06ZM117.28 185.06H114.025V184.34H117.28V185.06ZM114.025 183.56V182.84H117.28V183.56H114.025ZM118.69 182.84H122.005V183.56H118.69V182.84ZM113.005 175.925V179.735H123.04V175.925H113.005ZM121.675 178.925H114.37V178.235H121.675V178.925ZM114.37 177.425V176.75H121.675V177.425H114.37ZM111.25 180.365V181.385H124.75V180.365H111.25Z" fill="#A6A6A6"/>
<rect x="35.5" y="199" width="38.625" height="50" rx="10" fill="#F1F1F1"/>
<path d="M55.231 218.79C54.871 219.18 54.421 219.525 53.881 219.855C53.341 220.155 52.846 220.365 52.366 220.485V222.105C53.356 221.82 54.181 221.37 54.826 220.755V229.5H56.461V218.79H55.231Z" fill="#A6A6A6"/>
<rect x="84.125" y="199" width="38.625" height="50" rx="10" fill="#FB6943"/>
<path d="M103.605 218.58C102.465 218.58 101.535 218.955 100.845 219.735C100.17 220.455 99.8254 221.415 99.8104 222.615H101.445C101.475 221.745 101.655 221.1 102.015 220.65C102.36 220.185 102.87 219.96 103.545 219.96C104.175 219.96 104.67 220.11 105 220.41C105.33 220.71 105.495 221.16 105.495 221.76C105.495 222.39 105.24 222.975 104.76 223.515C104.46 223.83 103.95 224.235 103.23 224.745C102.015 225.585 101.205 226.23 100.815 226.695C100.095 227.505 99.7504 228.435 99.7504 229.5H107.13V228.06H101.775C102 227.475 102.69 226.8 103.845 226.035C104.91 225.315 105.645 224.745 106.065 224.31C106.755 223.545 107.115 222.705 107.115 221.775C107.115 220.83 106.785 220.065 106.14 219.465C105.48 218.865 104.625 218.58 103.605 218.58Z" fill="white"/>
<rect x="132.75" y="199" width="38.625" height="50" rx="10" fill="#F1F1F1"/>
<path d="M152.17 218.58C151.12 218.58 150.265 218.865 149.605 219.465C148.9 220.065 148.51 220.89 148.42 221.955H150.025C150.085 221.295 150.31 220.8 150.67 220.47C151.03 220.14 151.54 219.975 152.185 219.975C152.815 219.975 153.31 220.11 153.64 220.41C153.94 220.695 154.105 221.1 154.105 221.64C154.105 222.18 153.925 222.6 153.595 222.885C153.265 223.17 152.77 223.32 152.11 223.32H151.345V224.55H152.125C152.83 224.55 153.37 224.7 153.73 225C154.12 225.3 154.315 225.765 154.315 226.395C154.315 226.935 154.12 227.37 153.76 227.73C153.34 228.12 152.785 228.33 152.095 228.33C151.465 228.33 150.955 228.15 150.565 227.79C150.115 227.4 149.89 226.845 149.86 226.125H148.21C148.3 227.325 148.72 228.24 149.47 228.87C150.13 229.425 151.015 229.71 152.11 229.71C153.25 229.71 154.195 229.38 154.915 228.75C155.59 228.12 155.935 227.31 155.935 226.32C155.935 225.69 155.755 225.165 155.395 224.76C155.065 224.37 154.585 224.07 153.955 223.875C155.125 223.485 155.725 222.69 155.725 221.52C155.725 220.605 155.395 219.885 154.765 219.36C154.105 218.835 153.25 218.58 152.17 218.58Z" fill="#A6A6A6"/>
<rect x="181.375" y="199" width="38.625" height="50" rx="10" fill="#F1F1F1"/>
<path d="M201.77 218.79L196.49 225.63V227.175H201.71V229.5H203.27V227.175H204.89V225.87H203.27V218.79H201.77ZM201.665 220.86H201.71V225.87H197.825L201.665 220.86Z" fill="#A6A6A6"/>
<g clip-path="url(#clip3_426_26265)">
<rect x="240" y="199" width="87.25" height="50" rx="10" fill="#E68C06"/>
<g clip-path="url(#clip4_426_26265)">
<path d="M266.16 218.38H260.58C260.85 217.9 261.075 217.405 261.225 216.865L259.77 216.655C259.62 217.255 259.38 217.825 259.08 218.38H255.84V230.53H257.28V229.69H264.72V230.53H266.16V218.38ZM257.28 228.34V226.24H264.72V228.34H257.28ZM257.28 224.92V222.955H264.72V224.92H257.28ZM257.28 221.635V219.745H264.72V221.635H257.28ZM269.775 217.63V218.995H275.355V217.63H269.775ZM269.22 221.68V223.06H271.14C270.45 225.58 269.91 227.125 269.505 227.71C269.445 227.755 269.355 227.8 269.205 227.83L269.55 229.18C271.38 228.85 273.075 228.415 274.65 227.875L275.04 228.835L276.27 228.205C275.64 226.69 274.98 225.295 274.29 224.035L273.09 224.62C273.435 225.265 273.78 225.955 274.125 226.69C273.12 227.065 272.115 227.365 271.125 227.575C271.515 226.615 271.98 225.115 272.52 223.06H275.895V221.68H269.22ZM277.935 216.745V219.655H276.03V221.035H277.935V221.17C277.905 225.085 276.975 227.92 275.16 229.69L276.225 230.635C278.265 228.64 279.3 225.49 279.345 221.17V221.035H281.205C281.175 225.025 281.13 227.38 281.04 228.085C280.92 228.805 280.545 229.165 279.885 229.165C279.495 229.165 279.03 229.135 278.49 229.09L278.82 230.35C279.42 230.38 279.84 230.41 280.08 230.41C281.445 230.41 282.21 229.84 282.375 228.7C282.51 227.56 282.585 224.545 282.585 219.655H279.345V216.745H277.935ZM285.525 216.85L284.55 217.78C285.615 218.65 286.44 219.46 287.01 220.21L288.015 219.22C287.34 218.44 286.515 217.645 285.525 216.85ZM294.12 230.29H297.57L297.93 228.88C297.51 228.91 296.925 228.94 296.175 228.955C295.41 228.97 294.66 228.985 293.925 228.985C292.755 228.985 291.75 228.97 290.91 228.955C290.01 228.925 289.35 228.79 288.9 228.58C288.54 228.385 288.18 228.085 287.82 227.68C287.745 227.59 287.67 227.53 287.61 227.47V221.785H284.265V223.105H286.275V227.35C285.675 227.65 284.985 228.415 284.235 229.645L285.285 230.62C286.05 229.255 286.59 228.58 286.92 228.58C287.085 228.58 287.28 228.7 287.49 228.955C287.94 229.465 288.465 229.825 289.065 230.005C289.68 230.155 290.475 230.245 291.45 230.26C292.41 230.275 293.31 230.29 294.12 230.29ZM292.68 216.655V218.455H291.09C291.24 218.05 291.375 217.615 291.51 217.165L290.145 216.895C289.8 218.17 289.23 219.37 288.42 220.495L289.65 221.26C289.95 220.81 290.22 220.33 290.49 219.82H292.68V221.68H288.81V223.045H291.105C291.045 223.87 290.91 224.575 290.685 225.145C290.325 226 289.545 226.72 288.36 227.305L289.29 228.415C290.7 227.665 291.6 226.735 291.99 225.595C292.245 224.875 292.395 224.02 292.455 223.045H293.7V227.035C293.7 227.395 293.805 227.71 294.045 227.965C294.27 228.19 294.6 228.31 295.05 228.31H296.115C296.64 228.295 297 228.175 297.21 227.965C297.42 227.74 297.585 226.975 297.705 225.685L296.46 225.265C296.415 226.285 296.325 226.84 296.205 226.945C296.1 227.035 295.965 227.095 295.815 227.095H295.485C295.185 227.095 295.035 226.96 295.035 226.72V223.045H297.465V221.68H294.06V219.82H296.94V218.455H294.06V216.655H292.68ZM304.605 217.21V218.485H305.445C305.82 219.52 306.405 220.405 307.215 221.125C306.33 221.515 305.28 221.845 304.065 222.115L304.755 223.33C306.195 222.985 307.44 222.55 308.475 222.025C309.54 222.625 310.875 223.015 312.495 223.225L313.005 221.95C311.775 221.815 310.695 221.56 309.795 221.185C310.8 220.405 311.49 219.49 311.85 218.41V217.21H304.605ZM306.84 218.485H310.38C309.975 219.235 309.33 219.88 308.46 220.45C307.74 219.94 307.2 219.28 306.84 218.485ZM300.945 230.41C301.935 230.41 302.43 229.915 302.43 228.94V224.86C302.97 224.65 303.495 224.41 304.02 224.17V222.73C303.495 223 302.97 223.24 302.43 223.45V220.825H303.99V219.46H302.43V216.745H300.99V219.46H299.28V220.825H300.99V223.975C300.33 224.185 299.655 224.35 298.98 224.5L299.34 225.925C299.895 225.76 300.45 225.58 300.99 225.4V228.58C300.99 228.925 300.81 229.105 300.45 229.105C300.09 229.105 299.715 229.075 299.325 229.03L299.64 230.41H300.945ZM304.905 224.17V225.46H307.785V226.855H304.125V228.175H307.785V230.365H309.165V228.175H312.75V226.855H309.165V225.46H311.985V224.17H309.165V223.015H307.785V224.17H304.905Z" fill="#484848"/>
</g>
</g>
<g clip-path="url(#clip5_426_26265)">
<rect x="337.25" y="199" width="87.25" height="50" rx="10" fill="white"/>
<g clip-path="url(#clip6_426_26265)">
<path d="M367.97 216.835L366.95 217.825C367.925 218.515 368.675 219.16 369.215 219.775L370.235 218.755C369.605 218.11 368.855 217.465 367.97 216.835ZM367.505 220.42L366.485 221.41C367.535 222.205 368.345 222.94 368.915 223.615L369.935 222.61C369.275 221.875 368.465 221.14 367.505 220.42ZM368.69 224.65C368.12 226.39 367.46 228.1 366.68 229.765L368 230.35C368.72 228.73 369.38 226.99 369.95 225.13L368.69 224.65ZM374.45 216.7V217.555H370.7V218.725H374.45V219.445H371.315V220.585H374.45V221.335H370.22V222.505H380.12V221.335H375.845V220.585H379.13V219.445H375.845V218.725H379.7V217.555H375.845V216.7H374.45ZM372.83 226.3H377.495V227.11H372.83V226.3ZM377.495 225.22H372.83V224.365H377.495V225.22ZM372.83 228.175H377.495V228.76C377.495 229.09 377.36 229.27 377.09 229.27L375.755 229.195L376.1 230.455H377.495C378.395 230.455 378.86 229.99 378.86 229.06V223.21H371.495V230.545H372.83V228.175ZM381.83 217.21V230.56H383.225V218.545H384.92C384.59 219.76 384.125 221.125 383.54 222.625C384.425 223.87 384.875 224.995 384.875 226C384.875 226.255 384.815 226.435 384.71 226.555C384.59 226.645 384.38 226.705 384.065 226.735C383.855 226.735 383.6 226.705 383.285 226.66L383.765 228.1C384.77 228.1 385.475 227.905 385.895 227.515C386.165 227.215 386.3 226.705 386.3 226C386.24 224.98 385.79 223.78 384.98 222.415C385.52 220.975 385.97 219.625 386.36 218.335V217.21H381.83ZM390.065 230.395C390.935 230.395 391.385 229.9 391.385 228.94V224.8H394.625V223.42H391.385V221.98H393.095V220.975C393.515 221.305 393.965 221.62 394.475 221.92L395.315 220.705C393.545 219.685 392.225 218.425 391.34 216.91H389.96C388.94 218.47 387.62 219.76 385.97 220.765L386.78 221.965C387.23 221.68 387.665 221.365 388.085 221.035V221.98H389.945V223.42H386.555V224.8H389.945V228.58C389.945 228.91 389.81 229.09 389.57 229.09C389.15 229.09 388.715 229.06 388.265 229.015L388.58 230.395H390.065ZM388.535 220.645C389.315 219.955 390.02 219.16 390.65 218.26C391.22 219.16 391.895 219.955 392.705 220.645H388.535ZM393.11 225.61L392 226.3C392.72 227.515 393.305 228.61 393.725 229.6L394.925 228.79C394.49 227.89 393.89 226.825 393.11 225.61ZM387.815 225.67C387.245 226.9 386.585 227.95 385.805 228.835L386.99 229.675C387.77 228.715 388.46 227.575 389.045 226.27L387.815 225.67Z" fill="#484848"/>
</g>
</g>
<rect x="337.75" y="199.5" width="86.25" height="49" rx="9.5" stroke="#ECECEC"/>
<defs>
<filter id="filter0_d_426_26265" x="357.558" y="103.15" width="42.668" height="24.7939" filterUnits="userSpaceOnUse" color-interpolation-filters="sRGB">
<feFlood flood-opacity="0" result="BackgroundImageFix"/>
<feColorMatrix in="SourceAlpha" type="matrix" values="0 0 0 0 0 0 0 0 0 0 0 0 0 0 0 0 0 0 127 0" result="hardAlpha"/>
<feOffset dy="2"/>
<feGaussianBlur stdDeviation="2"/>
<feComposite in2="hardAlpha" operator="out"/>
<feColorMatrix type="matrix" values="0 0 0 0 0 0 0 0 0 0 0 0 0 0 0 0 0 0 0.3 0"/>
<feBlend mode="normal" in2="BackgroundImageFix" result="effect1_dropShadow_426_26265"/>
<feBlend mode="normal" in="SourceGraphic" in2="effect1_dropShadow_426_26265" result="shape"/>
</filter>
<clipPath id="clip0_426_26265">
<rect width="143" height="46" fill="white" transform="translate(103 90.5)"/>
</clipPath>
<clipPath id="clip1_426_26265">
<rect width="24" height="24" fill="white" transform="translate(103 90.5)"/>
</clipPath>
<clipPath id="clip2_426_26265">
<rect x="333.5" y="75" width="91" height="77" rx="10" fill="white"/>
</clipPath>
<clipPath id="clip3_426_26265">
<rect x="240" y="199" width="87.25" height="50" rx="10" fill="white"/>
</clipPath>
<clipPath id="clip4_426_26265">
<rect width="87.25" height="40" fill="white" transform="translate(240 204)"/>
</clipPath>
<clipPath id="clip5_426_26265">
<rect x="337.25" y="199" width="87.25" height="50" rx="10" fill="white"/>
</clipPath>
<clipPath id="clip6_426_26265">
<rect width="87.25" height="40" fill="white" transform="translate(337.25 204)"/>
</clipPath>
</defs>
</svg>
