<svg width="460" height="324" viewBox="0 0 460 324" fill="none" xmlns="http://www.w3.org/2000/svg">
<rect width="460" height="324" rx="10" fill="#F4F7FD"/>
<rect x="23.5" y="20" width="413" height="284" rx="15" fill="white"/>
<rect x="36" y="75.5" width="277" height="76" rx="9.5" fill="white"/>
<rect x="43.5" y="83" width="50" height="26.5" rx="10" fill="#F1F1F1"/>
<path d="M56.4543 91.04V101.75H58.0893V94.1H58.1493L61.4343 101.75H62.8443L66.1293 94.1H66.1893V101.75H67.8243V91.04H65.8893L62.1693 99.62H62.1243L58.3893 91.04H56.4543ZM70.9059 90.89C70.5909 90.89 70.3359 90.98 70.1259 91.19C69.9159 91.385 69.8109 91.64 69.8109 91.955C69.8109 92.255 69.9159 92.525 70.1259 92.735C70.3359 92.93 70.5909 93.035 70.9059 93.035C71.2059 93.035 71.4759 92.93 71.6859 92.735C71.8959 92.525 72.0159 92.27 72.0159 91.955C72.0159 91.64 71.9109 91.385 71.7009 91.19C71.4909 90.98 71.2209 90.89 70.9059 90.89ZM70.1109 93.995V101.75H71.7009V93.995H70.1109ZM77.7831 93.785C77.3031 93.785 76.8681 93.875 76.4781 94.085C76.0881 94.28 75.7431 94.565 75.4431 94.955V93.995H73.8531V101.75H75.4431V97.085C75.5031 96.455 75.7281 95.96 76.0881 95.6C76.4181 95.27 76.8231 95.12 77.2731 95.12C78.4731 95.12 79.0881 95.78 79.0881 97.1V101.75H80.6781V96.965C80.6781 94.835 79.7031 93.785 77.7831 93.785Z" fill="#A6A6A6"/>
<rect x="43.5" y="117.5" width="50" height="26.5" rx="10" fill="#F1F1F1"/>
<path d="M54.5646 125.54V136.25H56.1996V128.6H56.2596L59.5446 136.25H60.9546L64.2396 128.6H64.2996V136.25H65.9346V125.54H63.9996L60.2796 134.12H60.2346L56.4996 125.54H54.5646ZM71.3862 128.285C70.4262 128.285 69.6462 128.45 69.0762 128.81C68.4162 129.2 67.9962 129.83 67.8312 130.67L69.4062 130.805C69.4962 130.37 69.7212 130.055 70.0812 129.845C70.3812 129.665 70.7862 129.575 71.2812 129.575C72.4512 129.575 73.0362 130.115 73.0362 131.195V131.51L71.2962 131.555C70.1562 131.585 69.2562 131.81 68.6262 132.26C67.9362 132.725 67.5912 133.4 67.5912 134.27C67.5912 134.915 67.8312 135.44 68.3262 135.845C68.7762 136.25 69.4062 136.46 70.2162 136.46C70.9062 136.46 71.5062 136.325 72.0162 136.085C72.4662 135.86 72.8412 135.545 73.1412 135.155V136.25H74.6112V131.3C74.6112 130.355 74.3712 129.635 73.9062 129.14C73.3662 128.57 72.5262 128.285 71.3862 128.285ZM73.0362 132.665V133.115C73.0362 133.715 72.7812 134.225 72.3012 134.63C71.8212 135.035 71.2512 135.245 70.5762 135.245C70.1712 135.245 69.8412 135.14 69.6012 134.945C69.3462 134.75 69.2262 134.51 69.2262 134.21C69.2262 133.25 69.9462 132.74 71.4012 132.71L73.0362 132.665ZM75.9513 128.495L78.6363 132.125L75.6063 136.25H77.4813L79.5213 133.295L81.5463 136.25H83.4063L80.3913 132.125L83.0763 128.495H81.2163L79.5213 130.955L77.8113 128.495H75.9513Z" fill="#A6A6A6"/>
<g clip-path="url(#clip0_426_26322)">
<g clip-path="url(#clip1_426_26322)">
<path d="M126.639 105.403C125.037 111.831 118.526 115.744 112.096 114.141C105.67 112.538 101.757 106.026 103.361 99.5984C104.963 93.169 111.474 89.2564 117.901 90.8591C124.33 92.4618 128.242 98.974 126.639 105.403L126.639 105.403H126.639Z" fill="#F7931A"/>
<path d="M120.292 100.79C120.53 99.1934 119.315 98.335 117.652 97.7623L118.191 95.5991L116.875 95.271L116.35 97.3773C116.003 97.2909 115.648 97.2096 115.295 97.1289L115.823 95.0088L114.507 94.6807L113.968 96.8432C113.681 96.7779 113.4 96.7135 113.127 96.6455L113.128 96.6387L111.313 96.1853L110.962 97.5917C110.962 97.5917 111.939 97.8157 111.919 97.8294C112.452 97.9625 112.548 98.3155 112.532 98.5953L111.918 101.06C111.955 101.069 112.002 101.082 112.055 101.104C112.011 101.093 111.964 101.081 111.916 101.069L111.055 104.521C110.989 104.683 110.824 104.927 110.451 104.834C110.464 104.853 109.494 104.595 109.494 104.595L108.84 106.103L110.554 106.53C110.873 106.61 111.185 106.693 111.493 106.772L110.948 108.96L112.263 109.288L112.803 107.123C113.162 107.221 113.511 107.311 113.852 107.396L113.314 109.55L114.631 109.878L115.176 107.695C117.421 108.12 119.11 107.948 119.821 105.917C120.393 104.282 119.792 103.339 118.611 102.724C119.471 102.525 120.119 101.96 120.292 100.791L120.292 100.79L120.292 100.79ZM117.283 105.009C116.876 106.644 114.123 105.76 113.23 105.539L113.953 102.64C114.846 102.863 117.708 103.304 117.283 105.009H117.283ZM117.69 100.767C117.319 102.254 115.027 101.498 114.284 101.313L114.94 98.6841C115.683 98.8694 118.077 99.2152 117.69 100.767H117.69Z" fill="white"/>
</g>
<path d="M132.215 104.005C132.215 101.556 132.654 99.8418 133.533 98.8633C134.418 97.8848 135.763 97.3955 137.567 97.3955C138.435 97.3955 139.146 97.5039 139.703 97.7207C140.26 97.9316 140.714 98.21 141.065 98.5557C141.417 98.8955 141.692 99.2559 141.892 99.6367C142.097 100.012 142.261 100.451 142.384 100.955C142.624 101.916 142.744 102.918 142.744 103.961C142.744 106.299 142.349 108.01 141.558 109.094C140.767 110.178 139.404 110.72 137.471 110.72C136.387 110.72 135.511 110.547 134.843 110.201C134.175 109.855 133.627 109.349 133.199 108.681C132.889 108.206 132.646 107.559 132.47 106.738C132.3 105.912 132.215 105.001 132.215 104.005ZM135.766 104.014C135.766 105.654 135.909 106.776 136.196 107.38C136.489 107.978 136.911 108.276 137.462 108.276C137.825 108.276 138.139 108.15 138.402 107.898C138.672 107.641 138.868 107.236 138.991 106.686C139.12 106.135 139.185 105.276 139.185 104.11C139.185 102.399 139.038 101.251 138.745 100.665C138.458 100.073 138.024 99.7773 137.444 99.7773C136.853 99.7773 136.425 100.079 136.161 100.683C135.897 101.28 135.766 102.391 135.766 104.014ZM144.572 106.914H148.396V110.5H144.572V106.914ZM150.215 104.005C150.215 101.556 150.654 99.8418 151.533 98.8633C152.418 97.8848 153.763 97.3955 155.567 97.3955C156.435 97.3955 157.146 97.5039 157.703 97.7207C158.26 97.9316 158.714 98.21 159.065 98.5557C159.417 98.8955 159.692 99.2559 159.892 99.6367C160.097 100.012 160.261 100.451 160.384 100.955C160.624 101.916 160.744 102.918 160.744 103.961C160.744 106.299 160.349 108.01 159.558 109.094C158.767 110.178 157.404 110.72 155.471 110.72C154.387 110.72 153.511 110.547 152.843 110.201C152.175 109.855 151.627 109.349 151.199 108.681C150.889 108.206 150.646 107.559 150.47 106.738C150.3 105.912 150.215 105.001 150.215 104.005ZM153.766 104.014C153.766 105.654 153.909 106.776 154.196 107.38C154.489 107.978 154.911 108.276 155.462 108.276C155.825 108.276 156.139 108.15 156.402 107.898C156.672 107.641 156.868 107.236 156.991 106.686C157.12 106.135 157.185 105.276 157.185 104.11C157.185 102.399 157.038 101.251 156.745 100.665C156.458 100.073 156.024 99.7773 155.444 99.7773C154.853 99.7773 154.425 100.079 154.161 100.683C153.897 101.28 153.766 102.391 153.766 104.014ZM162.221 104.005C162.221 101.556 162.66 99.8418 163.539 98.8633C164.424 97.8848 165.769 97.3955 167.573 97.3955C168.44 97.3955 169.152 97.5039 169.709 97.7207C170.266 97.9316 170.72 98.21 171.071 98.5557C171.423 98.8955 171.698 99.2559 171.897 99.6367C172.103 100.012 172.267 100.451 172.39 100.955C172.63 101.916 172.75 102.918 172.75 103.961C172.75 106.299 172.354 108.01 171.563 109.094C170.772 110.178 169.41 110.72 167.477 110.72C166.393 110.72 165.517 110.547 164.849 110.201C164.181 109.855 163.633 109.349 163.205 108.681C162.895 108.206 162.651 107.559 162.476 106.738C162.306 105.912 162.221 105.001 162.221 104.005ZM165.771 104.014C165.771 105.654 165.915 106.776 166.202 107.38C166.495 107.978 166.917 108.276 167.468 108.276C167.831 108.276 168.145 108.15 168.408 107.898C168.678 107.641 168.874 107.236 168.997 106.686C169.126 106.135 169.19 105.276 169.19 104.11C169.19 102.399 169.044 101.251 168.751 100.665C168.464 100.073 168.03 99.7773 167.45 99.7773C166.858 99.7773 166.431 100.079 166.167 100.683C165.903 101.28 165.771 102.391 165.771 104.014ZM174.227 104.005C174.227 101.556 174.666 99.8418 175.545 98.8633C176.43 97.8848 177.774 97.3955 179.579 97.3955C180.446 97.3955 181.158 97.5039 181.715 97.7207C182.271 97.9316 182.726 98.21 183.077 98.5557C183.429 98.8955 183.704 99.2559 183.903 99.6367C184.108 100.012 184.272 100.451 184.396 100.955C184.636 101.916 184.756 102.918 184.756 103.961C184.756 106.299 184.36 108.01 183.569 109.094C182.778 110.178 181.416 110.72 179.482 110.72C178.398 110.72 177.522 110.547 176.854 110.201C176.187 109.855 175.639 109.349 175.211 108.681C174.9 108.206 174.657 107.559 174.481 106.738C174.312 105.912 174.227 105.001 174.227 104.005ZM177.777 104.014C177.777 105.654 177.921 106.776 178.208 107.38C178.501 107.978 178.923 108.276 179.474 108.276C179.837 108.276 180.15 108.15 180.414 107.898C180.684 107.641 180.88 107.236 181.003 106.686C181.132 106.135 181.196 105.276 181.196 104.11C181.196 102.399 181.05 101.251 180.757 100.665C180.47 100.073 180.036 99.7773 179.456 99.7773C178.864 99.7773 178.437 100.079 178.173 100.683C177.909 101.28 177.777 102.391 177.777 104.014ZM186.232 104.005C186.232 101.556 186.672 99.8418 187.551 98.8633C188.436 97.8848 189.78 97.3955 191.585 97.3955C192.452 97.3955 193.164 97.5039 193.721 97.7207C194.277 97.9316 194.731 98.21 195.083 98.5557C195.435 98.8955 195.71 99.2559 195.909 99.6367C196.114 100.012 196.278 100.451 196.401 100.955C196.642 101.916 196.762 102.918 196.762 103.961C196.762 106.299 196.366 108.01 195.575 109.094C194.784 110.178 193.422 110.72 191.488 110.72C190.404 110.72 189.528 110.547 188.86 110.201C188.192 109.855 187.645 109.349 187.217 108.681C186.906 108.206 186.663 107.559 186.487 106.738C186.317 105.912 186.232 105.001 186.232 104.005ZM189.783 104.014C189.783 105.654 189.927 106.776 190.214 107.38C190.507 107.978 190.929 108.276 191.479 108.276C191.843 108.276 192.156 108.15 192.42 107.898C192.689 107.641 192.886 107.236 193.009 106.686C193.138 106.135 193.202 105.276 193.202 104.11C193.202 102.399 193.056 101.251 192.763 100.665C192.476 100.073 192.042 99.7773 191.462 99.7773C190.87 99.7773 190.442 100.079 190.179 100.683C189.915 101.28 189.783 102.391 189.783 104.014ZM206.351 97.3955V110.5H202.729V101.913C202.144 102.358 201.575 102.719 201.024 102.994C200.479 103.27 199.794 103.533 198.968 103.785V100.85C200.187 100.457 201.133 99.9854 201.807 99.4346C202.48 98.8838 203.008 98.2041 203.389 97.3955H206.351ZM210.244 104.005C210.244 101.556 210.684 99.8418 211.562 98.8633C212.447 97.8848 213.792 97.3955 215.597 97.3955C216.464 97.3955 217.176 97.5039 217.732 97.7207C218.289 97.9316 218.743 98.21 219.095 98.5557C219.446 98.8955 219.722 99.2559 219.921 99.6367C220.126 100.012 220.29 100.451 220.413 100.955C220.653 101.916 220.773 102.918 220.773 103.961C220.773 106.299 220.378 108.01 219.587 109.094C218.796 110.178 217.434 110.72 215.5 110.72C214.416 110.72 213.54 110.547 212.872 110.201C212.204 109.855 211.656 109.349 211.229 108.681C210.918 108.206 210.675 107.559 210.499 106.738C210.329 105.912 210.244 105.001 210.244 104.005ZM213.795 104.014C213.795 105.654 213.938 106.776 214.226 107.38C214.519 107.978 214.94 108.276 215.491 108.276C215.854 108.276 216.168 108.15 216.432 107.898C216.701 107.641 216.897 107.236 217.021 106.686C217.149 106.135 217.214 105.276 217.214 104.11C217.214 102.399 217.067 101.251 216.774 100.665C216.487 100.073 216.054 99.7773 215.474 99.7773C214.882 99.7773 214.454 100.079 214.19 100.683C213.927 101.28 213.795 102.391 213.795 104.014ZM222.25 104.005C222.25 101.556 222.689 99.8418 223.568 98.8633C224.453 97.8848 225.798 97.3955 227.603 97.3955C228.47 97.3955 229.182 97.5039 229.738 97.7207C230.295 97.9316 230.749 98.21 231.101 98.5557C231.452 98.8955 231.728 99.2559 231.927 99.6367C232.132 100.012 232.296 100.451 232.419 100.955C232.659 101.916 232.779 102.918 232.779 103.961C232.779 106.299 232.384 108.01 231.593 109.094C230.802 110.178 229.439 110.72 227.506 110.72C226.422 110.72 225.546 110.547 224.878 110.201C224.21 109.855 223.662 109.349 223.234 108.681C222.924 108.206 222.681 107.559 222.505 106.738C222.335 105.912 222.25 105.001 222.25 104.005ZM225.801 104.014C225.801 105.654 225.944 106.776 226.231 107.38C226.524 107.978 226.946 108.276 227.497 108.276C227.86 108.276 228.174 108.15 228.438 107.898C228.707 107.641 228.903 107.236 229.026 106.686C229.155 106.135 229.22 105.276 229.22 104.11C229.22 102.399 229.073 101.251 228.78 100.665C228.493 100.073 228.06 99.7773 227.479 99.7773C226.888 99.7773 226.46 100.079 226.196 100.683C225.933 101.28 225.801 102.391 225.801 104.014ZM234.256 104.005C234.256 101.556 234.695 99.8418 235.574 98.8633C236.459 97.8848 237.804 97.3955 239.608 97.3955C240.476 97.3955 241.188 97.5039 241.744 97.7207C242.301 97.9316 242.755 98.21 243.106 98.5557C243.458 98.8955 243.733 99.2559 243.933 99.6367C244.138 100.012 244.302 100.451 244.425 100.955C244.665 101.916 244.785 102.918 244.785 103.961C244.785 106.299 244.39 108.01 243.599 109.094C242.808 110.178 241.445 110.72 239.512 110.72C238.428 110.72 237.552 110.547 236.884 110.201C236.216 109.855 235.668 109.349 235.24 108.681C234.93 108.206 234.687 107.559 234.511 106.738C234.341 105.912 234.256 105.001 234.256 104.005ZM237.807 104.014C237.807 105.654 237.95 106.776 238.237 107.38C238.53 107.978 238.952 108.276 239.503 108.276C239.866 108.276 240.18 108.15 240.443 107.898C240.713 107.641 240.909 107.236 241.032 106.686C241.161 106.135 241.226 105.276 241.226 104.11C241.226 102.399 241.079 101.251 240.786 100.665C240.499 100.073 240.065 99.7773 239.485 99.7773C238.894 99.7773 238.466 100.079 238.202 100.683C237.938 101.28 237.807 102.391 237.807 104.014Z" fill="#484848"/>
<path d="M134.921 131.911V128.842C133.964 128.568 133.261 128.156 132.812 127.604C132.367 127.047 132.145 126.374 132.145 125.583C132.145 124.782 132.396 124.11 132.899 123.568C133.407 123.021 134.081 122.707 134.921 122.624V121.898H135.983V122.624C136.759 122.716 137.377 122.982 137.836 123.422C138.295 123.856 138.588 124.44 138.715 125.172L136.862 125.414C136.75 124.838 136.457 124.447 135.983 124.242V127.106C137.155 127.423 137.953 127.836 138.378 128.344C138.803 128.847 139.015 129.494 139.015 130.285C139.015 131.168 138.747 131.913 138.209 132.519C137.677 133.124 136.935 133.495 135.983 133.632V135.001H134.921V133.668C134.076 133.566 133.39 133.251 132.863 132.724C132.335 132.196 131.999 131.452 131.852 130.49L133.764 130.285C133.842 130.675 133.988 131.012 134.203 131.295C134.418 131.579 134.657 131.784 134.921 131.911ZM134.921 124.22C134.633 124.318 134.403 124.484 134.232 124.718C134.062 124.953 133.976 125.211 133.976 125.495C133.976 125.753 134.054 125.995 134.21 126.22C134.367 126.439 134.604 126.618 134.921 126.754V124.22ZM135.983 132.013C136.349 131.945 136.647 131.776 136.876 131.508C137.106 131.234 137.221 130.915 137.221 130.548C137.221 130.221 137.123 129.94 136.928 129.706C136.737 129.467 136.422 129.284 135.983 129.157V132.013ZM144.362 133.5V131.339H139.967V129.538L144.625 122.719H146.354V129.53H147.687V131.339H146.354V133.5H144.362ZM144.362 129.53V125.861L141.894 129.53H144.362ZM149.115 133.5V131.442H151.173V133.5H149.115ZM156.886 133.5V131.339H152.492V129.538L157.15 122.719H158.878V129.53H160.211V131.339H158.878V133.5H156.886ZM156.886 129.53V125.861L154.418 129.53H156.886ZM164.679 122.719C165.719 122.719 166.532 123.09 167.118 123.832C167.816 124.711 168.166 126.168 168.166 128.205C168.166 130.236 167.814 131.696 167.111 132.584C166.53 133.317 165.719 133.683 164.679 133.683C163.634 133.683 162.792 133.283 162.152 132.482C161.513 131.676 161.193 130.243 161.193 128.183C161.193 126.161 161.544 124.706 162.248 123.817C162.829 123.085 163.639 122.719 164.679 122.719ZM164.679 124.425C164.43 124.425 164.208 124.506 164.013 124.667C163.817 124.823 163.666 125.106 163.559 125.517C163.417 126.049 163.346 126.945 163.346 128.205C163.346 129.464 163.41 130.331 163.537 130.805C163.664 131.273 163.822 131.586 164.013 131.742C164.208 131.898 164.43 131.977 164.679 131.977C164.928 131.977 165.15 131.898 165.346 131.742C165.541 131.581 165.692 131.295 165.8 130.885C165.941 130.358 166.012 129.464 166.012 128.205C166.012 126.945 165.949 126.081 165.822 125.612C165.695 125.138 165.534 124.823 165.338 124.667C165.148 124.506 164.928 124.425 164.679 124.425ZM173.029 122.719C174.069 122.719 174.882 123.09 175.468 123.832C176.166 124.711 176.515 126.168 176.515 128.205C176.515 130.236 176.164 131.696 175.46 132.584C174.879 133.317 174.069 133.683 173.029 133.683C171.984 133.683 171.142 133.283 170.502 132.482C169.862 131.676 169.542 130.243 169.542 128.183C169.542 126.161 169.894 124.706 170.597 123.817C171.178 123.085 171.989 122.719 173.029 122.719ZM173.029 124.425C172.78 124.425 172.558 124.506 172.362 124.667C172.167 124.823 172.016 125.106 171.908 125.517C171.767 126.049 171.696 126.945 171.696 128.205C171.696 129.464 171.759 130.331 171.886 130.805C172.013 131.273 172.172 131.586 172.362 131.742C172.558 131.898 172.78 131.977 173.029 131.977C173.278 131.977 173.5 131.898 173.695 131.742C173.891 131.581 174.042 131.295 174.149 130.885C174.291 130.358 174.362 129.464 174.362 128.205C174.362 126.945 174.298 126.081 174.171 125.612C174.044 125.138 173.883 124.823 173.688 124.667C173.498 124.506 173.278 124.425 173.029 124.425ZM181.378 122.719C182.418 122.719 183.231 123.09 183.817 123.832C184.516 124.711 184.865 126.168 184.865 128.205C184.865 130.236 184.513 131.696 183.81 132.584C183.229 133.317 182.418 133.683 181.378 133.683C180.333 133.683 179.491 133.283 178.852 132.482C178.212 131.676 177.892 130.243 177.892 128.183C177.892 126.161 178.244 124.706 178.947 123.817C179.528 123.085 180.338 122.719 181.378 122.719ZM181.378 124.425C181.129 124.425 180.907 124.506 180.712 124.667C180.517 124.823 180.365 125.106 180.258 125.517C180.116 126.049 180.045 126.945 180.045 128.205C180.045 129.464 180.109 130.331 180.236 130.805C180.363 131.273 180.521 131.586 180.712 131.742C180.907 131.898 181.129 131.977 181.378 131.977C181.627 131.977 181.85 131.898 182.045 131.742C182.24 131.581 182.392 131.295 182.499 130.885C182.641 130.358 182.711 129.464 182.711 128.205C182.711 126.945 182.648 126.081 182.521 125.612C182.394 125.138 182.233 124.823 182.038 124.667C181.847 124.506 181.627 124.425 181.378 124.425ZM189.728 122.719C190.768 122.719 191.581 123.09 192.167 123.832C192.865 124.711 193.214 126.168 193.214 128.205C193.214 130.236 192.863 131.696 192.16 132.584C191.579 133.317 190.768 133.683 189.728 133.683C188.683 133.683 187.841 133.283 187.201 132.482C186.562 131.676 186.242 130.243 186.242 128.183C186.242 126.161 186.593 124.706 187.296 123.817C187.877 123.085 188.688 122.719 189.728 122.719ZM189.728 124.425C189.479 124.425 189.257 124.506 189.062 124.667C188.866 124.823 188.715 125.106 188.607 125.517C188.466 126.049 188.395 126.945 188.395 128.205C188.395 129.464 188.458 130.331 188.585 130.805C188.712 131.273 188.871 131.586 189.062 131.742C189.257 131.898 189.479 131.977 189.728 131.977C189.977 131.977 190.199 131.898 190.395 131.742C190.59 131.581 190.741 131.295 190.849 130.885C190.99 130.358 191.061 129.464 191.061 128.205C191.061 126.945 190.998 126.081 190.871 125.612C190.744 125.138 190.583 124.823 190.387 124.667C190.197 124.506 189.977 124.425 189.728 124.425ZM198.078 122.719C199.118 122.719 199.931 123.09 200.517 123.832C201.215 124.711 201.564 126.168 201.564 128.205C201.564 130.236 201.212 131.696 200.509 132.584C199.928 133.317 199.118 133.683 198.078 133.683C197.033 133.683 196.19 133.283 195.551 132.482C194.911 131.676 194.591 130.243 194.591 128.183C194.591 126.161 194.943 124.706 195.646 123.817C196.227 123.085 197.038 122.719 198.078 122.719ZM198.078 124.425C197.829 124.425 197.606 124.506 197.411 124.667C197.216 124.823 197.064 125.106 196.957 125.517C196.815 126.049 196.745 126.945 196.745 128.205C196.745 129.464 196.808 130.331 196.935 130.805C197.062 131.273 197.221 131.586 197.411 131.742C197.606 131.898 197.829 131.977 198.078 131.977C198.327 131.977 198.549 131.898 198.744 131.742C198.939 131.581 199.091 131.295 199.198 130.885C199.34 130.358 199.411 129.464 199.411 128.205C199.411 126.945 199.347 126.081 199.22 125.612C199.093 125.138 198.932 124.823 198.737 124.667C198.546 124.506 198.327 124.425 198.078 124.425ZM206.427 122.719C207.467 122.719 208.28 123.09 208.866 123.832C209.564 124.711 209.914 126.168 209.914 128.205C209.914 130.236 209.562 131.696 208.859 132.584C208.278 133.317 207.467 133.683 206.427 133.683C205.382 133.683 204.54 133.283 203.9 132.482C203.261 131.676 202.941 130.243 202.941 128.183C202.941 126.161 203.292 124.706 203.996 123.817C204.577 123.085 205.387 122.719 206.427 122.719ZM206.427 124.425C206.178 124.425 205.956 124.506 205.761 124.667C205.565 124.823 205.414 125.106 205.307 125.517C205.165 126.049 205.094 126.945 205.094 128.205C205.094 129.464 205.158 130.331 205.285 130.805C205.412 131.273 205.57 131.586 205.761 131.742C205.956 131.898 206.178 131.977 206.427 131.977C206.676 131.977 206.898 131.898 207.094 131.742C207.289 131.581 207.44 131.295 207.548 130.885C207.689 130.358 207.76 129.464 207.76 128.205C207.76 126.945 207.697 126.081 207.57 125.612C207.443 125.138 207.282 124.823 207.086 124.667C206.896 124.506 206.676 124.425 206.427 124.425Z" fill="#A6A6A6"/>
</g>
<rect x="255.5" y="83" width="50" height="26.5" rx="10" fill="#F1F1F1"/>
<path d="M272.671 91.04C272.311 91.43 271.861 91.775 271.321 92.105C270.781 92.405 270.286 92.615 269.806 92.735V94.355C270.796 94.07 271.621 93.62 272.266 93.005V101.75H273.901V91.04H272.671ZM280.999 89.45L275.749 103.25H277.144L282.379 89.45H280.999ZM287.479 90.83C286.339 90.83 285.409 91.205 284.719 91.985C284.044 92.705 283.699 93.665 283.684 94.865H285.319C285.349 93.995 285.529 93.35 285.889 92.9C286.234 92.435 286.744 92.21 287.419 92.21C288.049 92.21 288.544 92.36 288.874 92.66C289.204 92.96 289.369 93.41 289.369 94.01C289.369 94.64 289.114 95.225 288.634 95.765C288.334 96.08 287.824 96.485 287.104 96.995C285.889 97.835 285.079 98.48 284.689 98.945C283.969 99.755 283.624 100.685 283.624 101.75H291.004V100.31H285.649C285.874 99.725 286.564 99.05 287.719 98.285C288.784 97.565 289.519 96.995 289.939 96.56C290.629 95.795 290.989 94.955 290.989 94.025C290.989 93.08 290.659 92.315 290.014 91.715C289.354 91.115 288.499 90.83 287.479 90.83Z" fill="#A6A6A6"/>
<rect x="255.5" y="117.5" width="50" height="26.5" rx="10" fill="#F1F1F1"/>
<path d="M276.691 125.33C275.551 125.33 274.621 125.705 273.931 126.485C273.256 127.205 272.911 128.165 272.896 129.365H274.531C274.561 128.495 274.741 127.85 275.101 127.4C275.446 126.935 275.956 126.71 276.631 126.71C277.261 126.71 277.756 126.86 278.086 127.16C278.416 127.46 278.581 127.91 278.581 128.51C278.581 129.14 278.326 129.725 277.846 130.265C277.546 130.58 277.036 130.985 276.316 131.495C275.101 132.335 274.291 132.98 273.901 133.445C273.181 134.255 272.836 135.185 272.836 136.25H280.216V134.81H274.861C275.086 134.225 275.776 133.55 276.931 132.785C277.996 132.065 278.731 131.495 279.151 131.06C279.841 130.295 280.201 129.455 280.201 128.525C280.201 127.58 279.871 126.815 279.226 126.215C278.566 125.615 277.711 125.33 276.691 125.33ZM281.44 128.495L284.125 132.125L281.095 136.25H282.97L285.01 133.295L287.035 136.25H288.895L285.88 132.125L288.565 128.495H286.705L285.01 130.955L283.3 128.495H281.44Z" fill="#A6A6A6"/>
<rect x="36" y="75.5" width="277" height="76" rx="9.5" stroke="#ECECEC"/>
<g clip-path="url(#clip2_426_26322)">
<rect x="333.5" y="75" width="91" height="77" rx="10" fill="#FB6943"/>
<g filter="url(#filter0_d_426_26322)">
<path d="M362.735 107.148V120H368.639C370.007 120 371.087 119.748 371.843 119.244C372.725 118.632 373.175 117.678 373.175 116.382C373.175 115.518 372.959 114.816 372.545 114.312C372.113 113.79 371.483 113.448 370.637 113.286C371.285 113.034 371.771 112.692 372.113 112.224C372.455 111.72 372.635 111.108 372.635 110.388C372.635 109.416 372.293 108.642 371.627 108.066C370.907 107.454 369.899 107.148 368.621 107.148H362.735ZM364.841 108.876H368.099C368.963 108.876 369.575 109.02 369.971 109.308C370.331 109.578 370.529 110.028 370.529 110.64C370.529 111.306 370.331 111.792 369.971 112.098C369.593 112.386 368.963 112.548 368.063 112.548H364.841V108.876ZM364.841 114.276H368.387C369.323 114.276 370.007 114.438 370.439 114.762C370.853 115.086 371.069 115.608 371.069 116.346C371.069 117.066 370.781 117.57 370.205 117.894C369.755 118.146 369.125 118.272 368.333 118.272H364.841V114.276ZM375.162 107.148V120H384.738V118.2H377.268V114.312H384V112.512H377.268V108.948H384.432V107.148H375.162ZM385.721 107.148V108.948H389.933V120H392.039V108.948H396.251V107.148H385.721Z" fill="white"/>
</g>
</g>
<path d="M36.55 177.29V188H38.185V179.945H38.245L43.78 188H45.37V177.29H43.735V185.255H43.675L38.2 177.29H36.55ZM47.3277 180.245V185.075C47.3277 187.16 48.2577 188.21 50.1327 188.21C51.1077 188.21 51.9177 187.79 52.5777 186.95V188H54.1677V180.245H52.5777V184.985C52.4427 185.555 52.1877 186.02 51.8277 186.365C51.4677 186.695 51.0927 186.875 50.6727 186.875C50.0577 186.875 49.6077 186.71 49.3377 186.41C49.0527 186.11 48.9177 185.63 48.9177 184.97V180.245H47.3277ZM59.705 180.035C58.925 180.035 58.205 180.38 57.575 181.1V180.245H55.985V188H57.575V183.335C57.575 182.795 57.725 182.33 58.055 181.955C58.355 181.565 58.775 181.37 59.285 181.37C60.335 181.37 60.875 181.97 60.875 183.2V188H62.465V183.23C62.465 182.66 62.615 182.195 62.915 181.865C63.215 181.535 63.575 181.37 64.025 181.37C64.625 181.37 65.075 181.505 65.345 181.805C65.615 182.09 65.75 182.555 65.75 183.185V188H67.34V182.915C67.34 182.045 67.07 181.355 66.56 180.83C66.035 180.29 65.375 180.035 64.58 180.035C64.055 180.035 63.62 180.125 63.26 180.32C62.87 180.515 62.495 180.86 62.15 181.34C61.67 180.47 60.845 180.035 59.705 180.035ZM69.1393 177.08V188H70.6243V187.07C71.1643 187.82 71.9593 188.21 73.0243 188.21C74.1643 188.21 75.0493 187.805 75.7093 186.995C76.3093 186.245 76.6093 185.27 76.6093 184.085C76.6093 182.945 76.3093 182 75.7243 181.25C75.0793 180.44 74.2093 180.035 73.0993 180.035C72.1393 180.035 71.3593 180.485 70.7293 181.4V177.08H69.1393ZM72.7393 181.325C73.5193 181.325 74.1043 181.58 74.4793 182.12C74.8093 182.57 74.9743 183.23 74.9743 184.085C74.9743 184.94 74.8093 185.6 74.5093 186.08C74.1343 186.635 73.5643 186.92 72.7843 186.92C72.0943 186.92 71.5543 186.635 71.1793 186.095C70.8493 185.6 70.6843 184.97 70.6843 184.19V184.055C70.6843 183.215 70.8793 182.54 71.2993 182.03C71.6593 181.55 72.1393 181.325 72.7393 181.325ZM81.3891 180.035C80.2491 180.035 79.3341 180.425 78.6741 181.22C77.9841 182 77.6541 182.96 77.6541 184.115C77.6541 185.39 78.0141 186.395 78.7341 187.145C79.3941 187.85 80.3091 188.21 81.4491 188.21C82.4841 188.21 83.3391 187.91 84.0141 187.325C84.5541 186.845 84.8991 186.23 85.0791 185.51H83.4891C83.2791 185.96 83.0541 186.305 82.7841 186.515C82.4391 186.77 81.9891 186.905 81.4341 186.905C80.8041 186.905 80.3091 186.695 79.9491 186.305C79.5891 185.9 79.3941 185.315 79.3341 184.565H85.2141C85.1991 183.185 84.8841 182.105 84.2841 181.325C83.6241 180.455 82.6491 180.035 81.3891 180.035ZM81.4341 181.34C82.6941 181.34 83.3991 182.015 83.5491 183.365H79.3641C79.4541 182.705 79.6791 182.21 80.0091 181.865C80.3691 181.505 80.8341 181.34 81.4341 181.34ZM90.1709 180.035C89.6909 180.035 89.2709 180.17 88.9109 180.47C88.6109 180.68 88.3559 180.995 88.1609 181.415V180.245H86.5709V188H88.1609V183.89C88.1609 183.215 88.3559 182.66 88.7609 182.24C89.1359 181.85 89.5709 181.655 90.0509 181.655C90.4109 181.655 90.7859 181.7 91.1759 181.82V180.23C90.9059 180.095 90.5609 180.035 90.1709 180.035ZM100.717 180.035C99.5471 180.035 98.6021 180.425 97.8971 181.205C97.1921 181.97 96.8471 182.945 96.8471 184.13C96.8471 185.3 97.1921 186.275 97.8821 187.025C98.6021 187.805 99.5471 188.21 100.717 188.21C101.887 188.21 102.832 187.805 103.552 187.025C104.242 186.275 104.587 185.3 104.587 184.13C104.587 182.945 104.227 181.97 103.537 181.205C102.832 180.425 101.887 180.035 100.717 180.035ZM100.717 181.34C101.452 181.34 102.022 181.625 102.442 182.21C102.802 182.705 102.982 183.35 102.982 184.13C102.982 184.895 102.802 185.525 102.442 186.035C102.022 186.605 101.452 186.905 100.717 186.905C99.9821 186.905 99.4121 186.605 99.0071 186.035C98.6471 185.54 98.4821 184.91 98.4821 184.13C98.4821 183.35 98.6471 182.705 99.0071 182.21C99.4121 181.625 99.9821 181.34 100.717 181.34ZM109.157 177.29C108.467 177.29 107.957 177.47 107.597 177.86C107.237 178.22 107.057 178.745 107.057 179.405V180.245H105.272V181.55H107.057V188H108.632V181.55H110.672V180.245H108.632V179.45C108.632 179.165 108.692 178.955 108.812 178.835C108.932 178.7 109.127 178.64 109.382 178.64H110.777V177.29H109.157ZM122.327 177.08V181.4C121.697 180.485 120.902 180.035 119.957 180.035C118.847 180.035 117.962 180.44 117.332 181.25C116.732 182 116.447 182.945 116.447 184.085C116.447 185.27 116.747 186.245 117.347 186.995C117.992 187.805 118.892 188.21 120.032 188.21C121.082 188.21 121.892 187.82 122.432 187.07V188H123.917V177.08H122.327ZM120.317 181.325C120.902 181.325 121.382 181.55 121.772 182.03C122.162 182.54 122.372 183.215 122.372 184.055V184.19C122.372 184.97 122.207 185.6 121.877 186.095C121.487 186.635 120.962 186.92 120.272 186.92C119.492 186.92 118.907 186.635 118.547 186.08C118.232 185.6 118.082 184.94 118.082 184.085C118.082 183.23 118.247 182.57 118.577 182.12C118.952 181.58 119.537 181.325 120.317 181.325ZM128.997 180.035C127.857 180.035 126.942 180.425 126.282 181.22C125.592 182 125.262 182.96 125.262 184.115C125.262 185.39 125.622 186.395 126.342 187.145C127.002 187.85 127.917 188.21 129.057 188.21C130.092 188.21 130.947 187.91 131.622 187.325C132.162 186.845 132.507 186.23 132.687 185.51H131.097C130.887 185.96 130.662 186.305 130.392 186.515C130.047 186.77 129.597 186.905 129.042 186.905C128.412 186.905 127.917 186.695 127.557 186.305C127.197 185.9 127.002 185.315 126.942 184.565H132.822C132.807 183.185 132.492 182.105 131.892 181.325C131.232 180.455 130.257 180.035 128.997 180.035ZM129.042 181.34C130.302 181.34 131.007 182.015 131.157 183.365H126.972C127.062 182.705 127.287 182.21 127.617 181.865C127.977 181.505 128.442 181.34 129.042 181.34ZM133.353 180.245L136.233 188H137.823L140.703 180.245H138.978L137.028 186.02L135.078 180.245H133.353ZM142.803 177.14C142.488 177.14 142.233 177.23 142.023 177.44C141.813 177.635 141.708 177.89 141.708 178.205C141.708 178.505 141.813 178.775 142.023 178.985C142.233 179.18 142.488 179.285 142.803 179.285C143.103 179.285 143.373 179.18 143.583 178.985C143.793 178.775 143.913 178.52 143.913 178.205C143.913 177.89 143.808 177.635 143.598 177.44C143.388 177.23 143.118 177.14 142.803 177.14ZM142.008 180.245V188H143.598V180.245H142.008ZM145.931 177.08V188H147.521V177.08H145.931ZM157.781 180.035C156.641 180.035 155.726 180.425 155.066 181.22C154.376 182 154.046 182.96 154.046 184.115C154.046 185.39 154.406 186.395 155.126 187.145C155.786 187.85 156.701 188.21 157.841 188.21C158.876 188.21 159.731 187.91 160.406 187.325C160.946 186.845 161.291 186.23 161.471 185.51H159.881C159.671 185.96 159.446 186.305 159.176 186.515C158.831 186.77 158.381 186.905 157.826 186.905C157.196 186.905 156.701 186.695 156.341 186.305C155.981 185.9 155.786 185.315 155.726 184.565H161.606C161.591 183.185 161.276 182.105 160.676 181.325C160.016 180.455 159.041 180.035 157.781 180.035ZM157.826 181.34C159.086 181.34 159.791 182.015 159.941 183.365H155.756C155.846 182.705 156.071 182.21 156.401 181.865C156.761 181.505 157.226 181.34 157.826 181.34ZM163.143 177.08V188H164.733V177.08H163.143ZM165.888 180.245L168.768 188H170.358L173.238 180.245H171.513L169.562 186.02L167.613 180.245H165.888ZM177.498 180.035C176.358 180.035 175.443 180.425 174.783 181.22C174.093 182 173.763 182.96 173.763 184.115C173.763 185.39 174.123 186.395 174.843 187.145C175.503 187.85 176.418 188.21 177.558 188.21C178.593 188.21 179.448 187.91 180.123 187.325C180.663 186.845 181.008 186.23 181.188 185.51H179.598C179.388 185.96 179.163 186.305 178.893 186.515C178.548 186.77 178.098 186.905 177.543 186.905C176.913 186.905 176.418 186.695 176.058 186.305C175.698 185.9 175.503 185.315 175.443 184.565H181.323C181.308 183.185 180.993 182.105 180.393 181.325C179.733 180.455 178.758 180.035 177.498 180.035ZM177.543 181.34C178.803 181.34 179.508 182.015 179.658 183.365H175.473C175.563 182.705 175.788 182.21 176.118 181.865C176.478 181.505 176.943 181.34 177.543 181.34ZM185.574 180.035C184.644 180.035 183.879 180.23 183.294 180.635C182.709 181.025 182.424 181.58 182.424 182.285C182.424 182.945 182.724 183.47 183.324 183.845C183.684 184.085 184.329 184.31 185.244 184.52C186.039 184.7 186.564 184.85 186.804 184.97C187.254 185.18 187.494 185.48 187.494 185.855C187.494 186.545 186.864 186.905 185.634 186.905C185.034 186.905 184.614 186.8 184.344 186.605C184.074 186.395 183.879 186.02 183.789 185.495H182.229C182.409 187.295 183.549 188.21 185.679 188.21C187.974 188.21 189.129 187.385 189.129 185.75C189.129 185.06 188.814 184.52 188.199 184.13C187.779 183.86 187.119 183.605 186.234 183.395C185.454 183.2 184.944 183.05 184.674 182.93C184.254 182.735 184.044 182.51 184.044 182.24C184.044 181.94 184.179 181.7 184.464 181.55C184.704 181.4 185.064 181.34 185.544 181.34C186.084 181.34 186.504 181.43 186.774 181.61C187.029 181.775 187.209 182.06 187.329 182.48H188.874C188.694 180.845 187.584 180.035 185.574 180.035Z" fill="#A6A6A6"/>
<rect x="35.5" y="199" width="38.625" height="50" rx="10" fill="#F1F1F1"/>
<path d="M55.231 218.79C54.871 219.18 54.421 219.525 53.881 219.855C53.341 220.155 52.846 220.365 52.366 220.485V222.105C53.356 221.82 54.181 221.37 54.826 220.755V229.5H56.461V218.79H55.231Z" fill="#A6A6A6"/>
<rect x="84.125" y="199" width="38.625" height="50" rx="10" fill="#FB6943"/>
<path d="M103.605 218.58C102.465 218.58 101.535 218.955 100.845 219.735C100.17 220.455 99.8254 221.415 99.8104 222.615H101.445C101.475 221.745 101.655 221.1 102.015 220.65C102.36 220.185 102.87 219.96 103.545 219.96C104.175 219.96 104.67 220.11 105 220.41C105.33 220.71 105.495 221.16 105.495 221.76C105.495 222.39 105.24 222.975 104.76 223.515C104.46 223.83 103.95 224.235 103.23 224.745C102.015 225.585 101.205 226.23 100.815 226.695C100.095 227.505 99.7504 228.435 99.7504 229.5H107.13V228.06H101.775C102 227.475 102.69 226.8 103.845 226.035C104.91 225.315 105.645 224.745 106.065 224.31C106.755 223.545 107.115 222.705 107.115 221.775C107.115 220.83 106.785 220.065 106.14 219.465C105.48 218.865 104.625 218.58 103.605 218.58Z" fill="white"/>
<rect x="132.75" y="199" width="38.625" height="50" rx="10" fill="#F1F1F1"/>
<path d="M152.17 218.58C151.12 218.58 150.265 218.865 149.605 219.465C148.9 220.065 148.51 220.89 148.42 221.955H150.025C150.085 221.295 150.31 220.8 150.67 220.47C151.03 220.14 151.54 219.975 152.185 219.975C152.815 219.975 153.31 220.11 153.64 220.41C153.94 220.695 154.105 221.1 154.105 221.64C154.105 222.18 153.925 222.6 153.595 222.885C153.265 223.17 152.77 223.32 152.11 223.32H151.345V224.55H152.125C152.83 224.55 153.37 224.7 153.73 225C154.12 225.3 154.315 225.765 154.315 226.395C154.315 226.935 154.12 227.37 153.76 227.73C153.34 228.12 152.785 228.33 152.095 228.33C151.465 228.33 150.955 228.15 150.565 227.79C150.115 227.4 149.89 226.845 149.86 226.125H148.21C148.3 227.325 148.72 228.24 149.47 228.87C150.13 229.425 151.015 229.71 152.11 229.71C153.25 229.71 154.195 229.38 154.915 228.75C155.59 228.12 155.935 227.31 155.935 226.32C155.935 225.69 155.755 225.165 155.395 224.76C155.065 224.37 154.585 224.07 153.955 223.875C155.125 223.485 155.725 222.69 155.725 221.52C155.725 220.605 155.395 219.885 154.765 219.36C154.105 218.835 153.25 218.58 152.17 218.58Z" fill="#A6A6A6"/>
<rect x="181.375" y="199" width="38.625" height="50" rx="10" fill="#F1F1F1"/>
<path d="M201.77 218.79L196.49 225.63V227.175H201.71V229.5H203.27V227.175H204.89V225.87H203.27V218.79H201.77ZM201.665 220.86H201.71V225.87H197.825L201.665 220.86Z" fill="#A6A6A6"/>
<g clip-path="url(#clip3_426_26322)">
<rect x="240" y="199" width="87.25" height="50" rx="10" fill="#E68C06"/>
<g clip-path="url(#clip4_426_26322)">
<path d="M247.444 218.29L243.319 229H245.059L246.064 226.24H250.669L251.674 229H253.429L249.304 218.29H247.444ZM246.559 224.89L248.344 220.045H248.404L250.174 224.89H246.559ZM254.327 221.245V226.075C254.327 228.16 255.257 229.21 257.132 229.21C258.107 229.21 258.917 228.79 259.577 227.95V229H261.167V221.245H259.577V225.985C259.442 226.555 259.187 227.02 258.827 227.365C258.467 227.695 258.092 227.875 257.672 227.875C257.057 227.875 256.607 227.71 256.337 227.41C256.052 227.11 255.917 226.63 255.917 225.97V221.245H254.327ZM265.339 218.74L263.749 219.4V221.245H262.309V222.565H263.749V227.065C263.749 227.68 263.884 228.145 264.184 228.475C264.484 228.82 264.979 229 265.639 229H266.914V227.68H265.894C265.699 227.68 265.564 227.62 265.474 227.53C265.384 227.425 265.339 227.275 265.339 227.065V222.565H267.109V221.245H265.339V218.74ZM271.959 221.035C270.789 221.035 269.844 221.425 269.139 222.205C268.434 222.97 268.089 223.945 268.089 225.13C268.089 226.3 268.434 227.275 269.124 228.025C269.844 228.805 270.789 229.21 271.959 229.21C273.129 229.21 274.074 228.805 274.794 228.025C275.484 227.275 275.829 226.3 275.829 225.13C275.829 223.945 275.469 222.97 274.779 222.205C274.074 221.425 273.129 221.035 271.959 221.035ZM271.959 222.34C272.694 222.34 273.264 222.625 273.684 223.21C274.044 223.705 274.224 224.35 274.224 225.13C274.224 225.895 274.044 226.525 273.684 227.035C273.264 227.605 272.694 227.905 271.959 227.905C271.224 227.905 270.654 227.605 270.249 227.035C269.889 226.54 269.724 225.91 269.724 225.13C269.724 224.35 269.889 223.705 270.249 223.21C270.654 222.625 271.224 222.34 271.959 222.34ZM285.23 221.035C284.3 221.035 283.535 221.23 282.95 221.635C282.365 222.025 282.08 222.58 282.08 223.285C282.08 223.945 282.38 224.47 282.98 224.845C283.34 225.085 283.985 225.31 284.9 225.52C285.695 225.7 286.22 225.85 286.46 225.97C286.91 226.18 287.15 226.48 287.15 226.855C287.15 227.545 286.52 227.905 285.29 227.905C284.69 227.905 284.27 227.8 284 227.605C283.73 227.395 283.535 227.02 283.445 226.495H281.885C282.065 228.295 283.205 229.21 285.335 229.21C287.63 229.21 288.785 228.385 288.785 226.75C288.785 226.06 288.47 225.52 287.855 225.13C287.435 224.86 286.775 224.605 285.89 224.395C285.11 224.2 284.6 224.05 284.33 223.93C283.91 223.735 283.7 223.51 283.7 223.24C283.7 222.94 283.835 222.7 284.12 222.55C284.36 222.4 284.72 222.34 285.2 222.34C285.74 222.34 286.16 222.43 286.43 222.61C286.685 222.775 286.865 223.06 286.985 223.48H288.53C288.35 221.845 287.24 221.035 285.23 221.035ZM293.413 221.035C292.273 221.035 291.358 221.425 290.698 222.22C290.008 223 289.678 223.96 289.678 225.115C289.678 226.39 290.038 227.395 290.758 228.145C291.418 228.85 292.333 229.21 293.473 229.21C294.508 229.21 295.363 228.91 296.038 228.325C296.578 227.845 296.923 227.23 297.103 226.51H295.513C295.303 226.96 295.078 227.305 294.808 227.515C294.463 227.77 294.013 227.905 293.458 227.905C292.828 227.905 292.333 227.695 291.973 227.305C291.613 226.9 291.418 226.315 291.358 225.565H297.238C297.223 224.185 296.908 223.105 296.308 222.325C295.648 221.455 294.673 221.035 293.413 221.035ZM293.458 222.34C294.718 222.34 295.423 223.015 295.573 224.365H291.388C291.478 223.705 291.703 223.21 292.033 222.865C292.393 222.505 292.858 222.34 293.458 222.34ZM298.774 218.08V229H300.364V218.08H298.774ZM305.629 221.035C304.489 221.035 303.574 221.425 302.914 222.22C302.224 223 301.894 223.96 301.894 225.115C301.894 226.39 302.254 227.395 302.974 228.145C303.634 228.85 304.549 229.21 305.689 229.21C306.724 229.21 307.579 228.91 308.254 228.325C308.794 227.845 309.139 227.23 309.319 226.51H307.729C307.519 226.96 307.294 227.305 307.024 227.515C306.679 227.77 306.229 227.905 305.674 227.905C305.044 227.905 304.549 227.695 304.189 227.305C303.829 226.9 303.634 226.315 303.574 225.565H309.454C309.439 224.185 309.124 223.105 308.524 222.325C307.864 221.455 306.889 221.035 305.629 221.035ZM305.674 222.34C306.934 222.34 307.639 223.015 307.789 224.365H303.604C303.694 223.705 303.919 223.21 304.249 222.865C304.609 222.505 305.074 222.34 305.674 222.34ZM314.261 221.035C313.061 221.035 312.131 221.44 311.456 222.25C310.826 223 310.511 223.96 310.511 225.13C310.511 226.33 310.826 227.29 311.471 228.04C312.131 228.82 313.046 229.21 314.231 229.21C315.221 229.21 316.031 228.955 316.631 228.46C317.231 227.95 317.636 227.17 317.816 226.135H316.241C316.091 227.305 315.431 227.905 314.246 227.905C313.556 227.905 313.046 227.65 312.701 227.17C312.326 226.675 312.146 225.985 312.146 225.115C312.146 224.245 312.326 223.555 312.716 223.075C313.091 222.58 313.601 222.34 314.261 222.34C314.801 222.34 315.236 222.46 315.566 222.715C315.896 222.955 316.106 223.345 316.211 223.87H317.786C317.636 222.91 317.246 222.19 316.646 221.71C316.046 221.26 315.251 221.035 314.261 221.035ZM321.53 218.74L319.94 219.4V221.245H318.5V222.565H319.94V227.065C319.94 227.68 320.075 228.145 320.375 228.475C320.675 228.82 321.17 229 321.83 229H323.105V227.68H322.085C321.89 227.68 321.755 227.62 321.665 227.53C321.575 227.425 321.53 227.275 321.53 227.065V222.565H323.3V221.245H321.53V218.74Z" fill="#484848"/>
</g>
</g>
<g clip-path="url(#clip5_426_26322)">
<rect x="337.25" y="199" width="87.25" height="50" rx="10" fill="white"/>
<g clip-path="url(#clip6_426_26322)">
<path d="M367.795 218.08C366.085 218.08 364.795 218.635 363.895 219.775C363.085 220.78 362.695 222.07 362.695 223.66C362.695 225.28 363.07 226.57 363.85 227.53C364.735 228.64 366.055 229.21 367.81 229.21C368.965 229.21 369.955 228.88 370.78 228.22C371.665 227.515 372.22 226.54 372.46 225.295H370.87C370.66 226.135 370.285 226.765 369.745 227.185C369.235 227.575 368.575 227.77 367.795 227.77C366.595 227.77 365.71 227.395 365.14 226.645C364.6 225.94 364.33 224.95 364.33 223.66C364.33 222.415 364.6 221.425 365.155 220.705C365.74 219.91 366.61 219.52 367.765 219.52C368.545 219.52 369.175 219.685 369.685 220.03C370.195 220.375 370.54 220.915 370.72 221.635H372.31C372.145 220.555 371.665 219.685 370.885 219.055C370.075 218.395 369.04 218.08 367.795 218.08ZM374.147 218.08V229H375.737V218.08H374.147ZM381.002 221.035C379.862 221.035 378.947 221.425 378.287 222.22C377.597 223 377.267 223.96 377.267 225.115C377.267 226.39 377.627 227.395 378.347 228.145C379.007 228.85 379.922 229.21 381.062 229.21C382.097 229.21 382.952 228.91 383.627 228.325C384.167 227.845 384.512 227.23 384.692 226.51H383.102C382.892 226.96 382.667 227.305 382.397 227.515C382.052 227.77 381.602 227.905 381.047 227.905C380.417 227.905 379.922 227.695 379.562 227.305C379.202 226.9 379.007 226.315 378.947 225.565H384.827C384.812 224.185 384.497 223.105 383.897 222.325C383.237 221.455 382.262 221.035 381.002 221.035ZM381.047 222.34C382.307 222.34 383.012 223.015 383.162 224.365H378.977C379.067 223.705 379.292 223.21 379.622 222.865C379.982 222.505 380.447 222.34 381.047 222.34ZM389.679 221.035C388.719 221.035 387.939 221.2 387.369 221.56C386.709 221.95 386.289 222.58 386.124 223.42L387.699 223.555C387.789 223.12 388.014 222.805 388.374 222.595C388.674 222.415 389.079 222.325 389.574 222.325C390.744 222.325 391.329 222.865 391.329 223.945V224.26L389.589 224.305C388.449 224.335 387.549 224.56 386.919 225.01C386.229 225.475 385.884 226.15 385.884 227.02C385.884 227.665 386.124 228.19 386.619 228.595C387.069 229 387.699 229.21 388.509 229.21C389.199 229.21 389.799 229.075 390.309 228.835C390.759 228.61 391.134 228.295 391.434 227.905V229H392.904V224.05C392.904 223.105 392.664 222.385 392.199 221.89C391.659 221.32 390.819 221.035 389.679 221.035ZM391.329 225.415V225.865C391.329 226.465 391.074 226.975 390.594 227.38C390.114 227.785 389.544 227.995 388.869 227.995C388.464 227.995 388.134 227.89 387.894 227.695C387.639 227.5 387.519 227.26 387.519 226.96C387.519 226 388.239 225.49 389.694 225.46L391.329 225.415ZM398.324 221.035C397.844 221.035 397.424 221.17 397.064 221.47C396.764 221.68 396.509 221.995 396.314 222.415V221.245H394.724V229H396.314V224.89C396.314 224.215 396.509 223.66 396.914 223.24C397.289 222.85 397.724 222.655 398.204 222.655C398.564 222.655 398.939 222.7 399.329 222.82V221.23C399.059 221.095 398.714 221.035 398.324 221.035Z" fill="#484848"/>
</g>
</g>
<rect x="337.75" y="199.5" width="86.25" height="49" rx="9.5" stroke="#ECECEC"/>
<defs>
<filter id="filter0_d_426_26322" x="358.735" y="105.148" width="41.5166" height="20.8516" filterUnits="userSpaceOnUse" color-interpolation-filters="sRGB">
<feFlood flood-opacity="0" result="BackgroundImageFix"/>
<feColorMatrix in="SourceAlpha" type="matrix" values="0 0 0 0 0 0 0 0 0 0 0 0 0 0 0 0 0 0 127 0" result="hardAlpha"/>
<feOffset dy="2"/>
<feGaussianBlur stdDeviation="2"/>
<feComposite in2="hardAlpha" operator="out"/>
<feColorMatrix type="matrix" values="0 0 0 0 0 0 0 0 0 0 0 0 0 0 0 0 0 0 0.3 0"/>
<feBlend mode="normal" in2="BackgroundImageFix" result="effect1_dropShadow_426_26322"/>
<feBlend mode="normal" in="SourceGraphic" in2="effect1_dropShadow_426_26322" result="shape"/>
</filter>
<clipPath id="clip0_426_26322">
<rect width="143" height="46" fill="white" transform="translate(103 90.5)"/>
</clipPath>
<clipPath id="clip1_426_26322">
<rect width="24" height="24" fill="white" transform="translate(103 90.5)"/>
</clipPath>
<clipPath id="clip2_426_26322">
<rect x="333.5" y="75" width="91" height="77" rx="10" fill="white"/>
</clipPath>
<clipPath id="clip3_426_26322">
<rect x="240" y="199" width="87.25" height="50" rx="10" fill="white"/>
</clipPath>
<clipPath id="clip4_426_26322">
<rect width="87.25" height="40" fill="white" transform="translate(240 204)"/>
</clipPath>
<clipPath id="clip5_426_26322">
<rect x="337.25" y="199" width="87.25" height="50" rx="10" fill="white"/>
</clipPath>
<clipPath id="clip6_426_26322">
<rect width="87.25" height="40" fill="white" transform="translate(337.25 204)"/>
</clipPath>
</defs>
</svg>
