<svg width="11" height="11" viewBox="0 0 11 11" fill="none" xmlns="http://www.w3.org/2000/svg">
<g clip-path="url(#clip0_11776_193397)">
<path d="M1.15702 2.60648C1.08509 2.55417 1.03932 2.51166 1.0197 2.47897C1.00009 2.44627 0.990277 2.4005 0.990277 2.34165V2.25337C0.990277 2.08336 1.03278 1.94931 1.11779 1.85123C1.20279 1.75314 1.34992 1.7041 1.55917 1.7041L9.64131 1.71391C9.8571 1.71391 10.0075 1.75968 10.0925 1.85123C10.1775 1.94277 10.22 2.07028 10.22 2.23376L10.2298 2.34165C10.2298 2.4005 10.2233 2.44137 10.2102 2.46425C10.1971 2.48714 10.1448 2.53455 10.0533 2.60648L6.04162 5.01935C5.97623 5.04551 5.89613 5.08147 5.80131 5.12724C5.7065 5.17302 5.64274 5.19917 5.61005 5.20571C5.57081 5.20571 5.51196 5.18773 5.4335 5.15176C5.35503 5.1158 5.26675 5.06839 5.16867 5.00954L1.15702 2.60648ZM7.1892 6.57889C7.05189 6.57889 6.94072 6.60832 6.85572 6.66717C6.77071 6.72602 6.70369 6.80122 6.65464 6.89276C6.6056 6.98431 6.57291 7.08729 6.55656 7.20173C6.54021 7.31616 6.53204 7.42569 6.53204 7.53031V8.2169V8.3346C6.53204 8.37383 6.53531 8.4098 6.54185 8.44249H5.18828C4.72402 8.44249 4.28918 8.44086 3.88376 8.43759C3.47835 8.43432 3.12198 8.43268 2.81464 8.43268H2.13786C1.90246 8.43268 1.70956 8.40162 1.55917 8.3395C1.40877 8.27738 1.29107 8.19728 1.20606 8.0992C1.12106 8.00111 1.06221 7.88832 1.02951 7.76081C0.996816 7.6333 0.980469 7.50088 0.980469 7.36356V3.73445C0.980469 3.59713 1.01316 3.51049 1.07855 3.47452C1.14394 3.43856 1.22568 3.45654 1.32376 3.52847C1.35646 3.54809 1.41531 3.58569 1.50032 3.64127C1.58532 3.69685 1.68668 3.7606 1.80438 3.83253C1.92208 3.90446 2.04468 3.98129 2.17219 4.06303C2.2997 4.14477 2.42067 4.2216 2.5351 4.29353C2.64954 4.36546 2.74762 4.42758 2.82936 4.47989C2.91109 4.5322 2.96504 4.56489 2.9912 4.57797C3.08274 4.63682 3.13505 4.71038 3.14813 4.79866C3.16121 4.88694 3.1514 4.96377 3.11871 5.02916C3.09255 5.09455 3.05332 5.17955 3.00101 5.28418C2.94869 5.3888 2.89311 5.49506 2.83426 5.60295C2.77541 5.71084 2.7182 5.81383 2.66261 5.91192C2.60703 6.01 2.56943 6.0852 2.54982 6.13751C2.51712 6.22906 2.52366 6.29118 2.56943 6.32387C2.61521 6.35657 2.68714 6.34349 2.78522 6.28464C2.80484 6.27156 2.85878 6.22088 2.94706 6.13261C3.03533 6.04433 3.12851 5.94625 3.2266 5.83835C3.32468 5.73046 3.41786 5.62911 3.50614 5.53429C3.59441 5.43948 3.6549 5.38226 3.6876 5.36265C3.74645 5.31033 3.82328 5.27273 3.91809 5.24985C4.01291 5.22696 4.09628 5.23514 4.16821 5.27437C4.21398 5.30053 4.2761 5.33976 4.35457 5.39207C4.43304 5.44438 4.51968 5.5016 4.61449 5.56372C4.70931 5.62584 4.80576 5.68959 4.90384 5.75498L5.16867 5.93153C5.24714 5.98385 5.33051 6.01654 5.41878 6.02962C5.50706 6.0427 5.59206 6.04597 5.6738 6.03943C5.75554 6.03289 5.8291 6.01818 5.89449 5.99529C5.95988 5.9724 6.00892 5.95115 6.04162 5.93153C6.07431 5.91192 6.13643 5.87432 6.22798 5.81874C6.31952 5.76316 6.41924 5.70267 6.52713 5.63728C6.63503 5.57189 6.73638 5.50977 6.8312 5.45092C6.92601 5.39207 6.9963 5.34957 7.04208 5.32341L8.27794 4.55835C8.29102 4.55182 8.33189 4.52566 8.40054 4.47989C8.4692 4.43411 8.55421 4.37853 8.65556 4.31314C8.75692 4.24775 8.86808 4.17583 8.98905 4.09736C9.11002 4.01889 9.22445 3.94533 9.33235 3.87667C9.44024 3.80801 9.53996 3.74425 9.6315 3.6854C9.72305 3.62655 9.78844 3.58405 9.82767 3.55789C9.95191 3.47943 10.0484 3.44837 10.117 3.46471C10.1857 3.48106 10.22 3.53501 10.22 3.62655V6.17674C10.0369 6.02635 9.85873 5.88576 9.68545 5.75498C9.51217 5.6242 9.3536 5.51304 9.20974 5.4215C9.06588 5.32341 8.94001 5.28908 8.83212 5.31851C8.72422 5.34793 8.63595 5.41169 8.56729 5.50977C8.49863 5.60786 8.44632 5.72229 8.41035 5.85307C8.37439 5.98385 8.35641 6.10155 8.35641 6.20617C8.35641 6.2781 8.35477 6.33695 8.3515 6.38272C8.34823 6.42849 8.3466 6.46773 8.3466 6.50042C8.34006 6.53312 8.33679 6.55927 8.33679 6.57889H8.18966H7.1892ZM10.8477 7.60878C10.9328 7.67417 10.9769 7.76571 10.9802 7.88341C10.9834 8.00111 10.9491 8.08612 10.8772 8.13843C10.7791 8.2169 10.6647 8.31008 10.5339 8.41797C10.4031 8.52586 10.2674 8.63539 10.1268 8.74655C9.98624 8.85772 9.84892 8.96888 9.71487 9.08004C9.58083 9.1912 9.45822 9.28929 9.34706 9.37429C9.20974 9.48546 9.11329 9.54431 9.05771 9.55084C9.00213 9.55738 8.97434 9.47238 8.97434 9.29583V8.85445C8.97434 8.74328 8.94655 8.65174 8.89097 8.57981C8.83538 8.50788 8.76182 8.47192 8.67028 8.47192H7.5325C7.44095 8.47192 7.35104 8.43922 7.26277 8.37383C7.17449 8.30844 7.13035 8.22344 7.13035 8.11881V7.61858C7.13035 7.43549 7.15978 7.32433 7.21863 7.2851C7.27748 7.24586 7.3821 7.22625 7.5325 7.22625H7.72867C7.78752 7.22625 7.85454 7.22788 7.92974 7.23115C8.00494 7.23442 8.09485 7.23606 8.19947 7.23606H8.61143C8.74221 7.23606 8.83538 7.21317 8.89097 7.1674C8.94655 7.12162 8.97434 7.03989 8.97434 6.92219V6.49061C8.97434 6.37291 8.99395 6.29772 9.03319 6.26502C9.07242 6.23233 9.14435 6.25848 9.24897 6.34349C9.3536 6.42196 9.47457 6.51677 9.61189 6.62793C9.7492 6.7391 9.89143 6.85189 10.0386 6.96632C10.1857 7.08076 10.3295 7.19519 10.4701 7.30962C10.6107 7.42405 10.7366 7.52377 10.8477 7.60878Z" fill="#319EF7"/>
</g>
<defs>
<clipPath id="clip0_11776_193397">
<rect width="10" height="10" fill="white" transform="translate(1 1)"/>
</clipPath>
</defs>
</svg>
