<svg width="20" height="21" viewBox="0 0 20 21" fill="none" xmlns="http://www.w3.org/2000/svg">
<g clip-path="url(#clip0_1634_37500)">
<path d="M12.8858 13.0833H13.7373V13.9293H12.8858V13.0833ZM11.8389 13.0833H12.6904V13.9293H11.8389V13.0833ZM13.9433 13.0833H14.7949V13.9293H13.9433V13.0833Z" fill="#90D988"/>
<path d="M10 0.5C4.47707 0.5 0 4.97707 0 10.5C0 16.0229 4.4773 20.5 10 20.5C15.5229 20.5 20 16.0227 20 10.5C20 4.97707 15.5229 0.5 10 0.5ZM15.9602 14.0493C15.9602 14.0493 15.9194 14.8396 15.1367 14.9509H4.80472C4.80472 14.9509 4.18523 14.9139 4.06279 14.1125L4.03976 9.35292H15.9602V14.0493ZM15.9602 8.55331L4.03976 8.54738L4.06279 7.05077C4.1907 6.41076 4.80859 6.39412 4.80859 6.39412H15.1034C15.9716 6.48304 15.9605 7.09523 15.9605 7.09523V8.55331H15.9602Z" fill="#90D988"/>
</g>
<defs>
<clipPath id="clip0_1634_37500">
<rect width="20" height="20" fill="white" transform="translate(0 0.5)"/>
</clipPath>
</defs>
</svg>
