<svg width="20" height="21" viewBox="0 0 20 21" fill="none" xmlns="http://www.w3.org/2000/svg">
<g clip-path="url(#clip0_1639_50833)">
<path d="M20 10.5C20 16.0229 15.5229 20.5 10 20.5C4.47715 20.5 0 16.0229 0 10.5C0 4.97715 4.47715 0.5 10 0.5C15.5229 0.5 20 4.97715 20 10.5Z" fill="#F9934A"/>
<path fill-rule="evenodd" clip-rule="evenodd" d="M13.5815 10.0676C13.5815 10.0676 14.712 9.4075 14.6382 8.22361C14.5619 7.04389 13.639 6.7046 13.1252 6.51675C12.7196 6.39193 12.3011 6.31399 11.8778 6.28446L11.9086 4.39579L10.8358 4.37976L10.8011 6.25151L9.94983 6.23779L9.98037 4.36344L8.90682 4.34402L8.87628 6.21838L6.61805 6.17669L6.59708 7.2898L7.84057 7.31987C7.94761 7.32252 7.95441 7.37426 7.95944 7.41251C7.96031 7.41909 7.96112 7.42526 7.96238 7.43073C7.96733 7.45215 7.93398 9.32864 7.90543 10.9346C7.8844 12.118 7.86597 13.1546 7.86741 13.1935C7.8708 13.2854 7.8669 13.3148 7.76254 13.3104L6.57864 13.2915L6.55716 14.5259L8.74303 14.5629L8.71067 16.3522L9.87427 16.3757L9.90663 14.5865L10.6223 14.5994L10.59 16.3887L11.6997 16.4104L11.7321 14.6212L12.5698 14.638C13.1247 14.6489 15.1221 14.2092 15.155 12.3449C15.1871 11.8437 15.0493 11.3463 14.7638 10.933C14.4782 10.5198 14.0617 10.2149 13.5815 10.0676ZM9.89267 10.8052L11.9471 10.844C12.0959 10.8496 12.242 10.8853 12.3766 10.9489C12.5112 11.0126 12.6314 11.1028 12.7301 11.2143C12.8288 11.3258 12.9039 11.4561 12.9507 11.5974C12.9976 11.7387 13.0153 11.8881 13.0028 12.0364C12.9825 12.3374 12.8546 12.6211 12.6424 12.8356C12.4302 13.0501 12.1479 13.1812 11.8471 13.2048L9.85047 13.1847L9.89267 10.8052Z" fill="white"/>
<path d="M11.2491 7.38819L9.92469 7.36255L9.88534 9.63093L11.3337 9.65291C11.4868 9.66142 11.64 9.63938 11.7846 9.58808C11.9291 9.53678 12.0619 9.45725 12.1754 9.35411C12.2889 9.25097 12.3808 9.12629 12.4456 8.98732C12.5104 8.84835 12.547 8.69787 12.5531 8.54464C12.5686 7.59315 11.474 7.38973 11.2491 7.38819Z" fill="#F9934A"/>
</g>
<defs>
<clipPath id="clip0_1639_50833">
<rect y="0.5" width="20" height="20" rx="10" fill="white"/>
</clipPath>
</defs>
</svg>
