<svg width="20" height="21" viewBox="0 0 20 21" fill="none" xmlns="http://www.w3.org/2000/svg">
<g clip-path="url(#clip0_1265_34226)">
<path d="M20 10.5C20 16.0228 15.5228 20.5 10 20.5C4.47715 20.5 0 16.0228 0 10.5C0 4.97715 4.47715 0.5 10 0.5C15.5228 0.5 20 4.97715 20 10.5Z" fill="#E3FFFC"/>
<path d="M15.4519 8.1415H15.357L16.2104 9.18448V13.9253C16.2104 14.3046 15.8311 14.589 15.4519 14.589H13.9348C13.5555 14.589 13.1763 14.3046 13.1763 13.9253V12.8823H6.53912V13.9253C6.53912 14.3046 6.15986 14.589 5.78059 14.589H4.45316C4.0739 14.589 3.69463 14.3046 3.69463 13.9253V9.18448L4.73761 8.1415H4.45316C4.16872 8.42595 3.78945 8.33113 3.505 8.04668C3.22055 7.76224 3.31537 7.38297 3.59982 7.09852C3.88427 6.90889 4.26353 6.90889 4.45316 7.09852C4.83243 7.09852 5.11688 7.19334 5.40133 7.38297L6.63394 6.05554H13.6503L14.6933 7.28815C14.9778 7.19334 15.2622 7.09852 15.5467 7.09852C15.8311 6.81407 16.2104 6.90889 16.4948 7.19334C16.7793 7.47779 16.6845 7.85705 16.4 8.1415C16.1156 8.33113 15.7363 8.33113 15.4519 8.1415ZM4.73761 10.0378C4.35835 10.5119 4.45316 11.1756 4.92725 11.4601C5.40133 11.7445 6.06504 11.6497 6.44431 11.1756C6.72876 10.7015 6.63394 10.0378 6.15986 9.75338C5.97023 9.65856 5.78059 9.56374 5.59096 9.56374C5.21169 9.46893 4.83243 9.65856 4.73761 10.0378ZM12.9866 6.71926H7.29765L5.87541 8.42595H14.3141L12.9866 6.71926ZM13.2711 10.0378C12.9866 10.5119 13.0814 11.1756 13.5555 11.4601C14.0296 11.7445 14.6933 11.6497 14.9778 11.1756C15.2622 10.7015 15.1674 10.0378 14.6933 9.75338C14.5037 9.65856 14.3141 9.56374 14.1244 9.56374C13.7452 9.46893 13.3659 9.65856 13.2711 10.0378Z" fill="#3EDDD3"/>
</g>
<defs>
<clipPath id="clip0_1265_34226">
<rect y="0.5" width="20" height="20" rx="10" fill="white"/>
</clipPath>
</defs>
</svg>
