<svg width="20" height="21" viewBox="0 0 20 21" fill="none" xmlns="http://www.w3.org/2000/svg">
<g clip-path="url(#clip0_1639_40150)">
<path d="M20 10.5C20 16.0229 15.5229 20.5 10 20.5C4.47715 20.5 0 16.0229 0 10.5C0 4.97715 4.47715 0.5 10 0.5C15.5229 0.5 20 4.97715 20 10.5Z" fill="#E0F4FF"/>
<g clip-path="url(#clip1_1639_40150)">
<path d="M8.23828 8.37643C7.83008 8.37643 7.49779 8.71015 7.49779 9.12122C7.49779 9.53229 7.83008 9.86602 8.23828 9.86602C8.64649 9.86602 8.97878 9.53229 8.97878 9.12122C8.97878 8.71015 8.64649 8.37643 8.23828 8.37643ZM15.6528 5.66846H4.3474C4.09388 5.66846 3.88907 5.87328 3.88907 6.12679V14.1147C3.88907 14.3682 4.09388 14.5731 4.3474 14.5731H15.6528C15.9063 14.5731 16.1111 14.3682 16.1111 14.1147V6.12679C16.1111 5.87328 15.9063 5.66846 15.6528 5.66846ZM11.6042 8.50534C11.6042 8.44231 11.6185 8.39075 11.6371 8.39075H13.4046C13.4232 8.39075 13.4375 8.44231 13.4375 8.50534V9.19284C13.4375 9.25586 13.4232 9.30742 13.4046 9.30742H11.6371C11.6185 9.30742 11.6042 9.25586 11.6042 9.19284V8.50534ZM10.3724 12.129H9.74363C9.68347 12.129 9.63477 12.0818 9.63048 12.0216C9.57605 11.2983 8.97162 10.7254 8.23828 10.7254C7.50495 10.7254 6.90052 11.2983 6.84609 12.0216C6.8418 12.0818 6.7931 12.129 6.73294 12.129H6.10416C6.03828 12.129 5.98672 12.0746 5.98958 12.0087C6.02968 11.2453 6.44791 10.5807 7.05807 10.2026C6.79883 9.91758 6.64127 9.53802 6.64127 9.12122C6.64127 8.23463 7.35599 7.51705 8.23685 7.51705C9.11771 7.51705 9.83243 8.23463 9.83243 9.12122C9.83243 9.53802 9.67488 9.91615 9.41563 10.2026C10.0272 10.5822 10.444 11.2453 10.4841 12.0087C10.4899 12.0746 10.4383 12.129 10.3724 12.129ZM14.3671 11.3699H11.7059C11.65 11.3699 11.6042 11.3184 11.6042 11.2553V10.5678C11.6042 10.5048 11.65 10.4533 11.7059 10.4533H14.3656C14.4215 10.4533 14.4673 10.5048 14.4673 10.5678V11.2553H14.4688C14.4688 11.3184 14.4229 11.3699 14.3671 11.3699Z" fill="#46BBFD"/>
</g>
</g>
<defs>
<clipPath id="clip0_1639_40150">
<rect y="0.5" width="20" height="20" rx="10" fill="white"/>
</clipPath>
<clipPath id="clip1_1639_40150">
<rect width="13.3333" height="13.3333" fill="white" transform="translate(3.33325 3.27783)"/>
</clipPath>
</defs>
</svg>
