<svg width="18" height="18" viewBox="0 0 18 18" fill="none" xmlns="http://www.w3.org/2000/svg">
<path d="M14.7074 0H3.00592C1.62799 0 0.5 1.01063 0.5 2.2538V15.7462C0.5 16.9894 1.63016 18 3.00592 18H14.7074C16.0854 18 17.2134 17.0002 17.2134 15.7571V2.2538C17.2155 1.01063 16.0854 0 14.7074 0ZM3.83832 5.73122H10.0173C10.4411 5.73122 10.7845 6.16156 10.7845 6.69621C10.7953 7.23086 10.4519 7.66119 10.0173 7.66119H3.83832C3.41451 7.66119 3.07112 7.23086 3.07112 6.69621C3.07112 6.16156 3.41451 5.73122 3.83832 5.73122ZM13.6838 12.9099H4.03176C3.50145 12.9099 3.07329 12.4796 3.07329 11.9449C3.07329 11.4103 3.50362 10.98 4.03176 10.98H13.6838C14.2141 10.98 14.6444 11.4103 14.6444 11.9449C14.6422 12.4948 14.2141 12.9099 13.6838 12.9099Z" fill="#009EF7"/>
</svg>
