<svg width="18" height="19" viewBox="0 0 18 19" fill="none" xmlns="http://www.w3.org/2000/svg">
<g clip-path="url(#clip0_1634_29445)">
<path d="M17.8087 9.7025C17.8087 9.11 17.7562 8.5475 17.6662 8H9.19116V11.3825H14.0437C13.8262 12.4925 13.1887 13.43 12.2437 14.0675V16.3175H15.1387C16.8337 14.75 17.8087 12.44 17.8087 9.7025Z" fill="#4285F4"/>
<path d="M9.19119 18.5C11.6212 18.5 13.6537 17.69 15.1387 16.3175L12.2437 14.0675C11.4337 14.6075 10.4062 14.9375 9.19119 14.9375C6.84369 14.9375 4.85619 13.355 4.14369 11.2175H1.15869V13.535C2.63619 16.475 5.67369 18.5 9.19119 18.5Z" fill="#34A853"/>
<path d="M4.14366 11.2175C3.95616 10.6775 3.85866 10.1 3.85866 9.49996C3.85866 8.89996 3.96366 8.32247 4.14366 7.78247V5.46497H1.15866C0.543661 6.67997 0.191162 8.04496 0.191162 9.49996C0.191162 10.955 0.543661 12.32 1.15866 13.535L4.14366 11.2175Z" fill="#FBBC05"/>
<path d="M9.19119 4.0625C10.5187 4.0625 11.7037 4.52 12.6412 5.4125L15.2062 2.8475C13.6537 1.3925 11.6212 0.5 9.19119 0.5C5.67369 0.5 2.63619 2.525 1.15869 5.465L4.14369 7.7825C4.85619 5.645 6.84369 4.0625 9.19119 4.0625Z" fill="#EA4335"/>
</g>
<defs>
<clipPath id="clip0_1634_29445">
<rect width="18" height="18" fill="white" transform="translate(0 0.5)"/>
</clipPath>
</defs>
</svg>
