<svg width="17" height="16" viewBox="0 0 17 16" fill="none" xmlns="http://www.w3.org/2000/svg">
<path d="M6.33621 0.669586C6.29921 0.822356 6.30655 0.982498 6.35735 1.13126C6.40815 1.28003 6.50032 1.41126 6.62308 1.50962C6.50032 1.60797 6.40815 1.73921 6.35735 1.88798C6.30655 2.03674 6.29921 2.19687 6.33621 2.34964C6.39166 2.50313 6.4834 2.64098 6.60362 2.75147C6.72383 2.86197 6.86896 2.94184 7.02671 2.9843C7.18446 3.02677 7.35016 3.03057 7.50969 2.99539C7.66923 2.9602 7.81791 2.88708 7.94308 2.78222C8.43465 2.50705 8.79832 2.05001 8.95567 1.50962C8.79832 0.969217 8.43465 0.512191 7.94308 0.237019C7.81791 0.132158 7.66923 0.0590272 7.50969 0.0238438C7.35016 -0.0113396 7.18446 -0.00753783 7.02671 0.0349288C6.86896 0.0773954 6.72383 0.157272 6.60362 0.267766C6.4834 0.378259 6.39166 0.516103 6.33621 0.669586ZM11.5762 2.34964C11.6132 2.19687 11.6059 2.03674 11.5551 1.88798C11.5043 1.73921 11.4121 1.60797 11.2894 1.50962C11.4121 1.41126 11.5043 1.28003 11.5551 1.13126C11.6059 0.982498 11.6132 0.822356 11.5762 0.669586C11.5208 0.516103 11.4291 0.378259 11.3088 0.267766C11.1886 0.157272 11.0435 0.0773954 10.8857 0.0349288C10.728 -0.00753783 10.5623 -0.0113396 10.4028 0.0238438C10.2432 0.0590272 10.0945 0.132158 9.96938 0.237019C9.4778 0.512191 9.11414 0.969217 8.95679 1.50962C9.11414 2.05001 9.4778 2.50705 9.96938 2.78222C10.0945 2.88708 10.2432 2.9602 10.4028 2.99539C10.5623 3.03057 10.728 3.02677 10.8857 2.9843C11.0435 2.94184 11.1886 2.86197 11.3088 2.75147C11.4291 2.64098 11.5208 2.50313 11.5762 2.34964Z" fill="#3EB9FE"/>
<path d="M4.693 1.981L8.92957 15.6258C8.9428 15.6754 8.93884 15.7281 8.91836 15.7752C8.89788 15.8224 8.86206 15.8613 8.81671 15.8856C8.77136 15.9099 8.71913 15.9182 8.66846 15.9091C8.6178 15.9001 8.57169 15.8742 8.53757 15.8358L2.77071 8.76515C2.68375 8.65837 2.6197 8.53489 2.58253 8.40236C2.54535 8.26984 2.53585 8.13108 2.55461 7.99474C2.57336 7.85839 2.61997 7.72736 2.69155 7.60975C2.76313 7.49214 2.85815 7.39048 2.97071 7.31107L3.61756 6.85452C3.69226 6.80174 3.7552 6.73407 3.80238 6.65576C3.84955 6.57746 3.87995 6.49023 3.89166 6.3996C3.90337 6.30896 3.89612 6.21688 3.87039 6.12918C3.84465 6.04149 3.80099 5.96009 3.74214 5.8901L2.61414 4.55243C2.46601 4.37664 2.3827 4.15544 2.37813 3.92572C2.37355 3.696 2.44798 3.47166 2.589 3.29012L3.73871 1.80637C3.80003 1.72732 3.88193 1.66661 3.97545 1.63089C4.06898 1.59518 4.17054 1.58582 4.26903 1.60385C4.36752 1.62187 4.45916 1.66657 4.53393 1.73309C4.6087 1.7996 4.66373 1.88537 4.693 1.981Z" fill="#3EB9FE"/>
<path d="M13.2208 1.981L8.98423 15.6258C8.971 15.6754 8.97498 15.7281 8.99546 15.7752C9.01594 15.8224 9.05174 15.8613 9.09709 15.8856C9.14244 15.9099 9.19466 15.9182 9.24532 15.9091C9.29598 15.9001 9.34213 15.8742 9.37625 15.8358L15.1431 8.76515C15.23 8.65837 15.2941 8.53489 15.3313 8.40236C15.3684 8.26984 15.3779 8.13108 15.3592 7.99474C15.3404 7.85839 15.2938 7.72736 15.2222 7.60975C15.1507 7.49214 15.0556 7.39048 14.9431 7.31107L14.2962 6.85452C14.2215 6.80174 14.1586 6.73407 14.1114 6.65576C14.0642 6.57746 14.0338 6.49023 14.0221 6.3996C14.0104 6.30896 14.0176 6.21688 14.0434 6.12918C14.0691 6.04149 14.1128 5.96009 14.1717 5.8901L15.2997 4.55243C15.4478 4.37664 15.5311 4.15544 15.5356 3.92572C15.5402 3.696 15.4658 3.47166 15.3248 3.29012L14.1751 1.80637C14.1138 1.72732 14.0319 1.66661 13.9383 1.63089C13.8448 1.59518 13.7432 1.58582 13.6447 1.60385C13.5462 1.62187 13.4546 1.66657 13.3799 1.73309C13.3051 1.7996 13.25 1.88537 13.2208 1.981Z" fill="#3EB9FE"/>
<path d="M8.86203 5.74398C8.97669 5.76256 9.0943 5.74679 9.19999 5.69863C9.30567 5.65046 9.39466 5.57209 9.45574 5.47341C9.51683 5.37473 9.54724 5.26016 9.54314 5.14422C9.53905 5.02828 9.50062 4.91617 9.43272 4.82203C9.36482 4.7279 9.27051 4.65599 9.16169 4.61538C9.05287 4.57478 8.93443 4.56729 8.82136 4.59389C8.70829 4.6205 8.60566 4.67999 8.52644 4.76484C8.44722 4.84969 8.39497 4.95609 8.37629 5.07059C8.36388 5.14666 8.36661 5.22445 8.38431 5.29946C8.40201 5.37448 8.43435 5.44525 8.47946 5.50779C8.52456 5.57032 8.58157 5.62338 8.64722 5.6639C8.71286 5.70443 8.78585 5.73164 8.86203 5.74398Z" fill="#3EB9FE"/>
<path d="M8.86199 8.1648C8.97666 8.18338 9.09427 8.16758 9.19995 8.11941C9.30563 8.07125 9.39466 7.99287 9.45574 7.89419C9.51682 7.79552 9.54724 7.68095 9.54314 7.56501C9.53905 7.44907 9.50062 7.33695 9.43272 7.24282C9.36482 7.14869 9.27051 7.07677 9.16169 7.03617C9.05287 6.99556 8.93443 6.98807 8.82136 7.01468C8.70829 7.04128 8.60566 7.10078 8.52644 7.18563C8.44722 7.27048 8.39497 7.3769 8.37629 7.49141C8.36388 7.56748 8.36661 7.64523 8.38431 7.72025C8.40201 7.79527 8.43432 7.86607 8.47942 7.92861C8.52453 7.99114 8.58154 8.04419 8.64718 8.08472C8.71282 8.12525 8.78581 8.15245 8.86199 8.1648Z" fill="#3EB9FE"/>
</svg>
