<svg width="17" height="16" viewBox="0 0 17 16" fill="none" xmlns="http://www.w3.org/2000/svg">
<path d="M8.99756 16C7.41531 16 5.86859 15.5308 4.553 14.6518C3.23741 13.7727 2.21203 12.5233 1.60653 11.0615C1.00102 9.59966 0.842598 7.99113 1.15128 6.43928C1.45996 4.88743 2.22189 3.46197 3.34071 2.34315C4.45953 1.22433 5.88499 0.462403 7.43684 0.153721C8.98869 -0.15496 10.5972 0.00346633 12.059 0.608967C13.5208 1.21447 14.7703 2.23985 15.6493 3.55544C16.5284 4.87103 16.9976 6.41775 16.9976 8C16.9951 10.121 16.1515 12.1544 14.6517 13.6542C13.152 15.1539 11.1186 15.9976 8.99756 16ZM8.99756 2.59315C8.28627 2.58142 7.5803 2.71758 6.92439 2.99301C6.26849 3.26843 5.67695 3.67711 5.18728 4.19315C4.67192 4.6825 4.2638 5.27354 3.98877 5.92885C3.71375 6.58415 3.57781 7.28942 3.58956 8C3.57771 8.71114 3.71383 9.41698 3.98926 10.0727C4.2647 10.7285 4.67345 11.3198 5.18956 11.8091C5.67855 12.3257 6.26955 12.7349 6.92509 13.011C7.58062 13.287 8.28637 13.4238 8.99756 13.4126C9.70888 13.4245 10.4149 13.2884 11.0709 13.013C11.7268 12.7376 12.3183 12.3288 12.8078 11.8126C13.3246 11.3229 13.7337 10.7311 14.0091 10.0747C14.2846 9.4183 14.4204 8.71174 14.4078 8C14.42 7.28865 14.284 6.58256 14.0086 5.92659C13.7331 5.27062 13.3242 4.67913 12.8078 4.18972C12.318 3.67414 11.7264 3.26598 11.0704 2.99114C10.4145 2.7163 9.70863 2.58077 8.99756 2.59315ZM8.99756 12.6503C8.38648 12.6603 7.77995 12.5437 7.21621 12.3076C6.65247 12.0716 6.14375 11.7213 5.72213 11.2789C5.2793 10.8569 4.92887 10.3476 4.693 9.78319C4.45714 9.2188 4.34097 8.6116 4.35185 8C4.34159 7.3889 4.45817 6.7823 4.69422 6.21853C4.93027 5.65476 5.28067 5.14607 5.72328 4.72457C6.14488 4.28258 6.65348 3.93273 7.21703 3.69708C7.78057 3.46144 8.38682 3.34511 8.99756 3.35543C9.60888 3.34488 10.2157 3.46132 10.7797 3.69738C11.3437 3.93345 11.8526 4.284 12.2741 4.72686C12.7168 5.1479 13.0673 5.65617 13.3035 6.21955C13.5398 6.78293 13.6566 7.38917 13.6467 8C13.6569 8.6111 13.5403 9.21767 13.3042 9.78143C13.0682 10.3452 12.7178 10.8539 12.2753 11.2754C11.8538 11.7189 11.3449 12.0701 10.7807 12.3068C10.2165 12.5435 9.6093 12.6604 8.99756 12.6503ZM8.89928 4.63657C8.57432 4.6304 8.2513 4.68786 7.94842 4.80572C7.6864 4.90879 7.46005 5.08589 7.29699 5.31543C7.14427 5.52717 7.05041 5.77561 7.02499 6.03543C7.00328 6.29257 6.99185 6.8 6.99185 7.54515V8.42057C6.99185 9.11429 7.00442 9.58972 7.02842 9.83086C7.05482 10.0799 7.14237 10.3186 7.28328 10.5257C7.43824 10.7519 7.65592 10.9279 7.90956 11.032C8.24209 11.1599 8.59691 11.2197 8.95299 11.208C9.25889 11.2136 9.56315 11.1621 9.85013 11.056C10.0871 10.9693 10.2971 10.8219 10.4593 10.6286C10.6017 10.4563 10.6956 10.2492 10.7313 10.0286C10.7718 9.70068 10.789 9.37033 10.7827 9.04V8.53486C10.7909 8.23659 10.7605 7.93851 10.6924 7.648C10.623 7.41646 10.4736 7.21715 10.2707 7.08572C10.0465 6.92889 9.77854 6.8469 9.50499 6.85143C9.30456 6.84506 9.10573 6.88907 8.9267 6.97943C8.77026 7.0646 8.64557 7.19811 8.57128 7.36V6.352C8.57128 6.11657 8.57128 5.95772 8.58385 5.88C8.58862 5.80747 8.62043 5.73936 8.67299 5.68915C8.69958 5.66383 8.73098 5.6441 8.76534 5.63115C8.7997 5.61819 8.8363 5.61226 8.87299 5.61372C8.95629 5.60962 9.03802 5.63741 9.10156 5.69143C9.15624 5.74154 9.18975 5.81061 9.19528 5.88457C9.20213 5.968 9.20556 6.16572 9.20556 6.44115H10.7827C10.793 6.10361 10.7298 5.76786 10.5976 5.45715C10.4696 5.19191 10.2546 4.97853 9.98842 4.85257C9.64688 4.69755 9.27412 4.62363 8.89928 4.63657ZM8.88328 10.2343C8.83523 10.2381 8.7871 10.228 8.74457 10.2054C8.70205 10.1827 8.6669 10.1483 8.64328 10.1063C8.58057 9.93101 8.55564 9.74445 8.57013 9.55886V8.416C8.55675 8.25663 8.58305 8.09643 8.6467 7.94972C8.67304 7.91088 8.70929 7.87979 8.75169 7.8597C8.7941 7.8396 8.84111 7.83122 8.88785 7.83543C8.93585 7.83142 8.98401 7.84097 9.02684 7.86299C9.06968 7.88502 9.10547 7.91863 9.13013 7.96C9.19105 8.10428 9.2169 8.26094 9.20556 8.41714V9.6C9.20556 9.89029 9.16899 10.0709 9.09128 10.1371C9.03654 10.1944 8.96232 10.2291 8.88328 10.2343Z" fill="#3EB9FE"/>
</svg>
