<svg width="18" height="19" viewBox="0 0 18 19" fill="none" xmlns="http://www.w3.org/2000/svg">
<path d="M9.00009 0.5C11.0823 0.500018 13.1001 1.22201 14.7096 2.54295C16.3192 3.8639 17.4209 5.70207 17.8271 7.74426C18.2333 9.78645 17.9188 11.9063 16.9373 13.7426C15.9557 15.579 14.3678 17.0181 12.4441 17.8149C10.5204 18.6117 8.37992 18.7169 6.38739 18.1124C4.39486 17.508 2.67355 16.2314 1.51675 14.5001C0.359959 12.7688 -0.160747 10.69 0.0433572 8.61779C0.247462 6.54562 1.16375 4.60833 2.63609 3.136C3.47183 2.30028 4.46399 1.63734 5.55592 1.18506C6.64786 0.732773 7.81819 0.49999 9.00009 0.5V0.5Z" fill="#F1361D"/>
<path d="M9.679 4.82897L9.126 4.73497L9.5 4.31997L9.6 3.76697L10.015 4.14497L10.568 4.23897L10.19 4.65397L10.096 5.20697L9.679 4.82897ZM11.088 6.37797L10.608 6.66997L10.621 6.10897L10.329 5.62897L10.89 5.64197L11.37 5.34997L11.357 5.91097L11.649 6.39097L11.088 6.37797ZM9.488 10.111L9.957 9.79997L10.518 9.79297L10.21 9.32397L10.2 8.76597L9.731 9.07397L9.17 9.08097L9.478 9.54997L9.488 10.111ZM10.923 8.28997L10.365 8.35197L10.614 7.85197L10.552 7.29397L11.052 7.54297L11.61 7.48097L11.361 7.98097L11.423 8.53897L10.923 8.28997ZM5.836 8.62097L7.179 7.66297L8.522 8.62097L8.022 7.04697L9.348 6.06497L7.7 6.04997L7.174 4.48497L6.65 6.04997L5 6.06497L6.326 7.04697L5.836 8.62097Z" fill="#FFDC42"/>
</svg>
