<svg width="20" height="21" viewBox="0 0 20 21" fill="none" xmlns="http://www.w3.org/2000/svg">
<g clip-path="url(#clip0_1639_43063)">
<path d="M20 10.5C20 16.0229 15.5229 20.5 10 20.5C4.47715 20.5 0 16.0229 0 10.5C0 4.97715 4.47715 0.5 10 0.5C15.5229 0.5 20 4.97715 20 10.5Z" fill="#EAECFF"/>
<g clip-path="url(#clip1_1639_43063)">
<path d="M14.5571 12.6584V5.47485L16.1944 6.07092C16.2829 6.10287 16.3641 6.15195 16.4335 6.21534C16.503 6.27873 16.5592 6.35519 16.5991 6.44035C16.6389 6.5255 16.6616 6.61768 16.6658 6.7116C16.67 6.80553 16.6556 6.89936 16.6235 6.98773L14.5571 12.6584Z" fill="#7987FF"/>
<path fill-rule="evenodd" clip-rule="evenodd" d="M5.26055 16.2897H13.127C13.221 16.2897 13.314 16.2712 13.4007 16.2353C13.4875 16.1994 13.5663 16.1467 13.6327 16.0803C13.6991 16.0139 13.7518 15.935 13.7877 15.8483C13.8237 15.7615 13.8422 15.6685 13.8422 15.5746V5.20513C13.8422 5.11121 13.8237 5.01822 13.7877 4.93146C13.7518 4.84469 13.6991 4.76586 13.6327 4.69945C13.5663 4.63304 13.4875 4.58037 13.4007 4.54443C13.314 4.50849 13.221 4.48999 13.127 4.48999H5.26055C5.16663 4.48999 5.07364 4.50849 4.98688 4.54443C4.90011 4.58037 4.82128 4.63304 4.75487 4.69945C4.68846 4.76586 4.63579 4.84469 4.59985 4.93146C4.56391 5.01822 4.54541 5.11121 4.54541 5.20513V15.5746C4.54541 15.6685 4.56391 15.7615 4.59985 15.8483C4.63579 15.935 4.68846 16.0139 4.75487 16.0803C4.82128 16.1467 4.90011 16.1994 4.98688 16.2353C5.07364 16.2712 5.16663 16.2897 5.26055 16.2897ZM7.26912 14.1716C7.3125 14.1536 7.359 14.1443 7.40596 14.1443H10.9816C11.0286 14.1443 11.0751 14.1536 11.1185 14.1716C11.1619 14.1895 11.2013 14.2159 11.2345 14.2491C11.2677 14.2823 11.294 14.3217 11.312 14.3651C11.33 14.4084 11.3392 14.4549 11.3392 14.5019C11.3392 14.5967 11.3015 14.6877 11.2345 14.7547C11.1674 14.8218 11.0765 14.8595 10.9816 14.8595H7.40596C7.31112 14.8595 7.22017 14.8218 7.15312 14.7547C7.08606 14.6877 7.04839 14.5967 7.04839 14.5019C7.04839 14.4549 7.05764 14.4084 7.07561 14.3651C7.09358 14.3217 7.11991 14.2823 7.15312 14.2491C7.18632 14.2159 7.22574 14.1895 7.26912 14.1716ZM7.15312 12.8188C7.22017 12.7517 7.31112 12.7141 7.40596 12.7141H10.9816C11.0765 12.7141 11.1674 12.7517 11.2345 12.8188C11.3015 12.8858 11.3392 12.9768 11.3392 13.0716C11.3392 13.1665 11.3015 13.2574 11.2345 13.3245C11.1674 13.3915 11.0765 13.4292 10.9816 13.4292H7.40596C7.31112 13.4292 7.22017 13.3915 7.15312 13.3245C7.08606 13.2574 7.04839 13.1665 7.04839 13.0716C7.04839 12.9768 7.08606 12.8858 7.15312 12.8188ZM10.2868 6.93588C10.3596 7.10815 10.4224 7.29786 10.4733 7.50142C10.6769 7.55242 10.8666 7.61519 11.0388 7.68796C10.9481 7.53492 10.838 7.39251 10.71 7.26457C10.5821 7.13669 10.4398 7.02659 10.2868 6.93588ZM9.56565 7.07813C9.60863 7.1745 9.64768 7.27237 9.68273 7.37149C9.52383 7.3578 9.36044 7.35067 9.19372 7.35067C9.02704 7.35067 8.8637 7.3578 8.70484 7.37148C8.73989 7.27236 8.77893 7.1745 8.82191 7.07813C9.00499 6.71234 9.16911 6.63547 9.19378 6.63547C9.21845 6.63547 9.38258 6.71234 9.56565 7.07813ZM9.19372 8.0658C8.96811 8.06091 8.74317 8.07528 8.52127 8.10843C8.48812 8.33033 8.47375 8.55527 8.47865 8.78087C8.47375 9.00652 8.48813 9.23151 8.52129 9.45345C8.74318 9.4866 8.96812 9.50097 9.19372 9.49608C9.41936 9.50097 9.64434 9.48659 9.86627 9.45343C9.89944 9.2315 9.91381 9.00652 9.90892 8.78087C9.91381 8.55528 9.89944 8.33034 9.86629 8.10845C9.64435 8.07529 9.41937 8.06091 9.19372 8.0658ZM8.10141 6.93435C8.02836 7.10702 7.96537 7.29724 7.91423 7.50139C7.71008 7.55253 7.51986 7.61552 7.34719 7.68857C7.51018 7.41303 7.73348 7.17631 8.00179 6.99703C8.03448 6.97519 8.0677 6.95429 8.10141 6.93435ZM7.91426 10.0605C7.71014 10.0094 7.51995 9.94639 7.3473 9.87336C7.43839 10.0273 7.54885 10.1701 7.67668 10.2979C7.80457 10.4258 7.94739 10.5363 8.10141 10.6274C8.02838 10.4548 7.9654 10.2646 7.91426 10.0605ZM7.49098 9.15281C7.58734 9.19579 7.68521 9.23484 7.78433 9.26989C7.77064 9.11098 7.76351 8.94759 7.76351 8.78087C7.76351 8.6142 7.77064 8.45086 7.78432 8.29199C7.6852 8.32705 7.58734 8.36609 7.49098 8.40907C7.12518 8.59214 7.04831 8.75627 7.04831 8.78094C7.04831 8.80561 7.12518 8.96974 7.49098 9.15281ZM8.82191 10.4836C8.77895 10.3873 8.73993 10.2895 8.70488 10.1904C8.86373 10.2041 9.02706 10.2112 9.19372 10.2112C9.36042 10.2112 9.52379 10.2041 9.68269 10.1904C9.64764 10.2895 9.60862 10.3873 9.56565 10.4836C9.38258 10.8494 9.21845 10.9263 9.19378 10.9263C9.16911 10.9263 9.00499 10.8494 8.82191 10.4836ZM10.2862 10.6273C10.3592 10.4547 10.4222 10.2645 10.4733 10.0605C10.6774 10.0093 10.8675 9.94637 11.0401 9.87336C11.0202 9.90701 10.9994 9.94017 10.9776 9.9728C10.7983 10.2411 10.5617 10.4643 10.2862 10.6273ZM6.81526 10.3701C6.50095 9.89971 6.33318 9.34667 6.33317 8.78092V8.78087C6.33317 8.02221 6.63455 7.29462 7.17101 6.75816C7.70746 6.22171 8.43505 5.92033 9.19372 5.92033H9.19378H9.19494C9.76028 5.92057 10.3129 6.08832 10.783 6.40242C11.2534 6.71674 11.62 7.16349 11.8365 7.68619C12.053 8.20889 12.1097 8.78405 11.9993 9.33894C11.8889 9.89383 11.6165 10.4035 11.2164 10.8036C10.8164 11.2036 10.3067 11.4761 9.75178 11.5865C9.19689 11.6968 8.62173 11.6402 8.09903 11.4237C7.57634 11.2072 7.12958 10.8405 6.81526 10.3701ZM10.6241 8.78087C10.6241 8.94758 10.6169 9.11095 10.6032 9.26984C10.7023 9.2348 10.8001 9.19577 10.8965 9.15281C11.2622 8.96974 11.3391 8.80561 11.3391 8.78094C11.3391 8.75627 11.2622 8.59214 10.8965 8.40907C10.8001 8.36611 10.7023 8.32708 10.6032 8.29204C10.6169 8.45089 10.6241 8.61422 10.6241 8.78087Z" fill="#7987FF"/>
</g>
</g>
<defs>
<clipPath id="clip0_1639_43063">
<rect y="0.5" width="20" height="20" rx="10" fill="white"/>
</clipPath>
<clipPath id="clip1_1639_43063">
<rect width="13.3333" height="13.3333" fill="white" transform="translate(3.33325 3.27783)"/>
</clipPath>
</defs>
</svg>
