<svg width="18" height="19" viewBox="0 0 18 19" fill="none" xmlns="http://www.w3.org/2000/svg">
<g clip-path="url(#clip0_1213_40499)">
<path d="M8.79537 1.797H12.1973C13.9644 1.797 15.4101 3.24275 15.4101 5.00985V5.77677C15.4101 7.54387 13.9644 8.98962 12.1973 8.98962H8.79537C7.02825 8.98962 5.58252 7.54387 5.58252 5.77677V5.00985C5.58252 3.24275 7.02825 1.797 8.79537 1.797ZM7.53329 3.73969V4.74168H12.9783V3.73969H7.53329ZM7.53329 5.68701V6.689H10.53V5.68701H7.53329Z" fill="#FFBB56"/>
<path d="M9.42657 8.05505H12.4516C12.67 8.05505 13.0131 8.30839 12.8487 8.45208L12.6879 8.59262C12.5236 8.73629 12.4802 8.88085 12.2909 8.98963L9.58342 10.5456C9.24798 10.7385 9.02954 10.609 9.02954 10.2388V8.45208C9.02956 8.23378 9.20829 8.05505 9.42657 8.05505Z" fill="#FFBB56"/>
<path d="M4.03129 0.605835H7.25898C6.68472 1.32047 6.27093 0.970789 6.07168 1.89937H3.72103C3.0897 1.89937 2.57313 2.41594 2.57313 3.04728V12.9957C2.57313 13.627 3.0897 14.1436 3.72103 14.1436H12.2827C12.914 14.1436 13.4306 13.627 13.4306 12.9957V10.18C13.7677 10.0938 14.0967 9.97843 14.4138 9.83507V15.9526C14.4138 17.2953 13.3151 18.3941 11.9724 18.3941H4.03129C2.68846 18.3941 1.58984 17.2953 1.58984 15.9526V3.04728C1.58984 1.70446 2.68846 0.605835 4.03129 0.605835ZM8.00176 14.9568C7.43186 14.9568 6.96982 15.4188 6.96982 15.9887C6.96982 16.5588 7.43186 17.0208 8.00176 17.0208C8.57167 17.0208 9.03385 16.5588 9.03385 15.9887C9.03385 15.4188 8.57167 14.9568 8.00176 14.9568Z" fill="#FB9905"/>
</g>
<defs>
<clipPath id="clip0_1213_40499">
<rect width="18" height="18" fill="white" transform="translate(0 0.5)"/>
</clipPath>
</defs>
</svg>
