<svg width="20" height="21" viewBox="0 0 20 21" fill="none" xmlns="http://www.w3.org/2000/svg">
<g clip-path="url(#clip0_7377_20487)">
<path d="M20 10.6875C20 16.2104 15.5229 20.6875 10 20.6875C4.47715 20.6875 0 16.2104 0 10.6875C0 5.16465 4.47715 0.6875 10 0.6875C15.5229 0.6875 20 5.16465 20 10.6875Z" fill="#29A5FF"/>
<path d="M9.99943 12.3553V17.022H5.33276C5.33276 15.7843 5.82443 14.5973 6.6996 13.7221C7.57477 12.847 8.76175 12.3553 9.99943 12.3553ZM9.99943 11.772C8.06568 11.772 6.49943 10.2057 6.49943 8.27197C6.49943 6.33822 8.06568 4.77197 9.99943 4.77197C11.9332 4.77197 13.4994 6.33822 13.4994 8.27197C13.4994 10.2057 11.9332 11.772 9.99943 11.772ZM15.5096 15.874L16.3869 16.7513L15.5621 17.5761L14.6848 16.6988C14.1955 16.9873 13.6179 17.0874 13.0602 16.9804C12.5024 16.8735 12.0028 16.5667 11.655 16.1178C11.3072 15.6688 11.1351 15.1084 11.171 14.5416C11.2068 13.9748 11.4481 13.4405 11.8497 13.0389C12.2513 12.6373 12.7856 12.396 13.3524 12.3602C13.9192 12.3243 14.4796 12.4964 14.9285 12.8442C15.3775 13.192 15.6842 13.6916 15.7912 14.2494C15.8982 14.8071 15.7981 15.3848 15.5096 15.874ZM13.4994 15.8553C13.8089 15.8553 14.1056 15.7324 14.3244 15.5136C14.5432 15.2948 14.6661 14.9981 14.6661 14.6886C14.6661 14.3792 14.5432 14.0825 14.3244 13.8637C14.1056 13.6449 13.8089 13.522 13.4994 13.522C13.19 13.522 12.8933 13.6449 12.6745 13.8637C12.4557 14.0825 12.3328 14.3792 12.3328 14.6886C12.3328 14.9981 12.4557 15.2948 12.6745 15.5136C12.8933 15.7324 13.19 15.8553 13.4994 15.8553Z" fill="white"/>
</g>
<defs>
<clipPath id="clip0_7377_20487">
<rect y="0.6875" width="20" height="20" rx="10" fill="white"/>
</clipPath>
</defs>
</svg>
