<svg width="460" height="347" viewBox="0 0 460 347" fill="none" xmlns="http://www.w3.org/2000/svg">
<rect width="460" height="346.11" rx="10" fill="#0D131C"/>
<rect x="25.5" y="112.5" width="412" height="100" rx="9.5" fill="#161F2C"/>
<g clip-path="url(#clip0_14_3879)">
<g clip-path="url(#clip1_14_3879)">
<path d="M158.639 154.403C157.037 160.831 150.525 164.744 144.096 163.141C137.669 161.538 133.757 155.026 135.36 148.598C136.962 142.169 143.474 138.256 149.901 139.859C156.33 141.462 160.242 147.974 158.639 154.403L158.639 154.403H158.639Z" fill="#F7931A"/>
<path d="M152.291 149.79C152.53 148.193 151.314 147.335 149.652 146.762L150.191 144.599L148.874 144.271L148.349 146.377C148.003 146.291 147.647 146.21 147.294 146.129L147.823 144.009L146.507 143.681L145.967 145.843C145.681 145.778 145.399 145.713 145.126 145.646L145.128 145.639L143.312 145.185L142.962 146.592C142.962 146.592 143.939 146.816 143.918 146.829C144.451 146.963 144.548 147.316 144.532 147.595L143.917 150.06C143.954 150.069 144.002 150.082 144.054 150.104C144.01 150.093 143.964 150.081 143.915 150.069L143.054 153.521C142.989 153.683 142.823 153.927 142.451 153.834C142.464 153.853 141.494 153.595 141.494 153.595L140.84 155.103L142.553 155.53C142.872 155.61 143.185 155.693 143.492 155.772L142.947 157.96L144.263 158.288L144.802 156.123C145.162 156.221 145.51 156.311 145.852 156.396L145.314 158.55L146.631 158.878L147.176 156.695C149.421 157.12 151.109 156.948 151.82 154.917C152.393 153.282 151.792 152.339 150.61 151.724C151.471 151.525 152.119 150.96 152.292 149.791L152.291 149.79L152.291 149.79ZM149.282 154.009C148.876 155.644 146.122 154.76 145.23 154.539L145.953 151.64C146.845 151.863 149.708 152.304 149.283 154.009H149.282ZM149.69 149.767C149.318 151.254 147.027 150.498 146.284 150.313L146.939 147.684C147.683 147.869 150.076 148.215 149.69 149.767H149.69Z" fill="white"/>
</g>
<path d="M164.215 153.005C164.215 150.556 164.654 148.842 165.533 147.863C166.418 146.885 167.763 146.396 169.567 146.396C170.435 146.396 171.146 146.504 171.703 146.721C172.26 146.932 172.714 147.21 173.065 147.556C173.417 147.896 173.692 148.256 173.892 148.637C174.097 149.012 174.261 149.451 174.384 149.955C174.624 150.916 174.744 151.918 174.744 152.961C174.744 155.299 174.349 157.01 173.558 158.094C172.767 159.178 171.404 159.72 169.471 159.72C168.387 159.72 167.511 159.547 166.843 159.201C166.175 158.855 165.627 158.349 165.199 157.681C164.889 157.206 164.646 156.559 164.47 155.738C164.3 154.912 164.215 154.001 164.215 153.005ZM167.766 153.014C167.766 154.654 167.909 155.776 168.196 156.38C168.489 156.978 168.911 157.276 169.462 157.276C169.825 157.276 170.139 157.15 170.402 156.898C170.672 156.641 170.868 156.236 170.991 155.686C171.12 155.135 171.185 154.276 171.185 153.11C171.185 151.399 171.038 150.251 170.745 149.665C170.458 149.073 170.024 148.777 169.444 148.777C168.853 148.777 168.425 149.079 168.161 149.683C167.897 150.28 167.766 151.391 167.766 153.014ZM176.572 155.914H180.396V159.5H176.572V155.914ZM182.215 153.005C182.215 150.556 182.654 148.842 183.533 147.863C184.418 146.885 185.763 146.396 187.567 146.396C188.435 146.396 189.146 146.504 189.703 146.721C190.26 146.932 190.714 147.21 191.065 147.556C191.417 147.896 191.692 148.256 191.892 148.637C192.097 149.012 192.261 149.451 192.384 149.955C192.624 150.916 192.744 151.918 192.744 152.961C192.744 155.299 192.349 157.01 191.558 158.094C190.767 159.178 189.404 159.72 187.471 159.72C186.387 159.72 185.511 159.547 184.843 159.201C184.175 158.855 183.627 158.349 183.199 157.681C182.889 157.206 182.646 156.559 182.47 155.738C182.3 154.912 182.215 154.001 182.215 153.005ZM185.766 153.014C185.766 154.654 185.909 155.776 186.196 156.38C186.489 156.978 186.911 157.276 187.462 157.276C187.825 157.276 188.139 157.15 188.402 156.898C188.672 156.641 188.868 156.236 188.991 155.686C189.12 155.135 189.185 154.276 189.185 153.11C189.185 151.399 189.038 150.251 188.745 149.665C188.458 149.073 188.024 148.777 187.444 148.777C186.853 148.777 186.425 149.079 186.161 149.683C185.897 150.28 185.766 151.391 185.766 153.014ZM194.221 153.005C194.221 150.556 194.66 148.842 195.539 147.863C196.424 146.885 197.769 146.396 199.573 146.396C200.44 146.396 201.152 146.504 201.709 146.721C202.266 146.932 202.72 147.21 203.071 147.556C203.423 147.896 203.698 148.256 203.897 148.637C204.103 149.012 204.267 149.451 204.39 149.955C204.63 150.916 204.75 151.918 204.75 152.961C204.75 155.299 204.354 157.01 203.563 158.094C202.772 159.178 201.41 159.72 199.477 159.72C198.393 159.72 197.517 159.547 196.849 159.201C196.181 158.855 195.633 158.349 195.205 157.681C194.895 157.206 194.651 156.559 194.476 155.738C194.306 154.912 194.221 154.001 194.221 153.005ZM197.771 153.014C197.771 154.654 197.915 155.776 198.202 156.38C198.495 156.978 198.917 157.276 199.468 157.276C199.831 157.276 200.145 157.15 200.408 156.898C200.678 156.641 200.874 156.236 200.997 155.686C201.126 155.135 201.19 154.276 201.19 153.11C201.19 151.399 201.044 150.251 200.751 149.665C200.464 149.073 200.03 148.777 199.45 148.777C198.858 148.777 198.431 149.079 198.167 149.683C197.903 150.28 197.771 151.391 197.771 153.014ZM206.227 153.005C206.227 150.556 206.666 148.842 207.545 147.863C208.43 146.885 209.774 146.396 211.579 146.396C212.446 146.396 213.158 146.504 213.715 146.721C214.271 146.932 214.726 147.21 215.077 147.556C215.429 147.896 215.704 148.256 215.903 148.637C216.108 149.012 216.272 149.451 216.396 149.955C216.636 150.916 216.756 151.918 216.756 152.961C216.756 155.299 216.36 157.01 215.569 158.094C214.778 159.178 213.416 159.72 211.482 159.72C210.398 159.72 209.522 159.547 208.854 159.201C208.187 158.855 207.639 158.349 207.211 157.681C206.9 157.206 206.657 156.559 206.481 155.738C206.312 154.912 206.227 154.001 206.227 153.005ZM209.777 153.014C209.777 154.654 209.921 155.776 210.208 156.38C210.501 156.978 210.923 157.276 211.474 157.276C211.837 157.276 212.15 157.15 212.414 156.898C212.684 156.641 212.88 156.236 213.003 155.686C213.132 155.135 213.196 154.276 213.196 153.11C213.196 151.399 213.05 150.251 212.757 149.665C212.47 149.073 212.036 148.777 211.456 148.777C210.864 148.777 210.437 149.079 210.173 149.683C209.909 150.28 209.777 151.391 209.777 153.014ZM218.232 153.005C218.232 150.556 218.672 148.842 219.551 147.863C220.436 146.885 221.78 146.396 223.585 146.396C224.452 146.396 225.164 146.504 225.721 146.721C226.277 146.932 226.731 147.21 227.083 147.556C227.435 147.896 227.71 148.256 227.909 148.637C228.114 149.012 228.278 149.451 228.401 149.955C228.642 150.916 228.762 151.918 228.762 152.961C228.762 155.299 228.366 157.01 227.575 158.094C226.784 159.178 225.422 159.72 223.488 159.72C222.404 159.72 221.528 159.547 220.86 159.201C220.192 158.855 219.645 158.349 219.217 157.681C218.906 157.206 218.663 156.559 218.487 155.738C218.317 154.912 218.232 154.001 218.232 153.005ZM221.783 153.014C221.783 154.654 221.927 155.776 222.214 156.38C222.507 156.978 222.929 157.276 223.479 157.276C223.843 157.276 224.156 157.15 224.42 156.898C224.689 156.641 224.886 156.236 225.009 155.686C225.138 155.135 225.202 154.276 225.202 153.11C225.202 151.399 225.056 150.251 224.763 149.665C224.476 149.073 224.042 148.777 223.462 148.777C222.87 148.777 222.442 149.079 222.179 149.683C221.915 150.28 221.783 151.391 221.783 153.014ZM238.351 146.396V159.5H234.729V150.913C234.144 151.358 233.575 151.719 233.024 151.994C232.479 152.27 231.794 152.533 230.968 152.785V149.85C232.187 149.457 233.133 148.985 233.807 148.435C234.48 147.884 235.008 147.204 235.389 146.396H238.351ZM242.244 153.005C242.244 150.556 242.684 148.842 243.562 147.863C244.447 146.885 245.792 146.396 247.597 146.396C248.464 146.396 249.176 146.504 249.732 146.721C250.289 146.932 250.743 147.21 251.095 147.556C251.446 147.896 251.722 148.256 251.921 148.637C252.126 149.012 252.29 149.451 252.413 149.955C252.653 150.916 252.773 151.918 252.773 152.961C252.773 155.299 252.378 157.01 251.587 158.094C250.796 159.178 249.434 159.72 247.5 159.72C246.416 159.72 245.54 159.547 244.872 159.201C244.204 158.855 243.656 158.349 243.229 157.681C242.918 157.206 242.675 156.559 242.499 155.738C242.329 154.912 242.244 154.001 242.244 153.005ZM245.795 153.014C245.795 154.654 245.938 155.776 246.226 156.38C246.519 156.978 246.94 157.276 247.491 157.276C247.854 157.276 248.168 157.15 248.432 156.898C248.701 156.641 248.897 156.236 249.021 155.686C249.149 155.135 249.214 154.276 249.214 153.11C249.214 151.399 249.067 150.251 248.774 149.665C248.487 149.073 248.054 148.777 247.474 148.777C246.882 148.777 246.454 149.079 246.19 149.683C245.927 150.28 245.795 151.391 245.795 153.014ZM254.25 153.005C254.25 150.556 254.689 148.842 255.568 147.863C256.453 146.885 257.798 146.396 259.603 146.396C260.47 146.396 261.182 146.504 261.738 146.721C262.295 146.932 262.749 147.21 263.101 147.556C263.452 147.896 263.728 148.256 263.927 148.637C264.132 149.012 264.296 149.451 264.419 149.955C264.659 150.916 264.779 151.918 264.779 152.961C264.779 155.299 264.384 157.01 263.593 158.094C262.802 159.178 261.439 159.72 259.506 159.72C258.422 159.72 257.546 159.547 256.878 159.201C256.21 158.855 255.662 158.349 255.234 157.681C254.924 157.206 254.681 156.559 254.505 155.738C254.335 154.912 254.25 154.001 254.25 153.005ZM257.801 153.014C257.801 154.654 257.944 155.776 258.231 156.38C258.524 156.978 258.946 157.276 259.497 157.276C259.86 157.276 260.174 157.15 260.438 156.898C260.707 156.641 260.903 156.236 261.026 155.686C261.155 155.135 261.22 154.276 261.22 153.11C261.22 151.399 261.073 150.251 260.78 149.665C260.493 149.073 260.06 148.777 259.479 148.777C258.888 148.777 258.46 149.079 258.196 149.683C257.933 150.28 257.801 151.391 257.801 153.014ZM266.256 153.005C266.256 150.556 266.695 148.842 267.574 147.863C268.459 146.885 269.804 146.396 271.608 146.396C272.476 146.396 273.188 146.504 273.744 146.721C274.301 146.932 274.755 147.21 275.106 147.556C275.458 147.896 275.733 148.256 275.933 148.637C276.138 149.012 276.302 149.451 276.425 149.955C276.665 150.916 276.785 151.918 276.785 152.961C276.785 155.299 276.39 157.01 275.599 158.094C274.808 159.178 273.445 159.72 271.512 159.72C270.428 159.72 269.552 159.547 268.884 159.201C268.216 158.855 267.668 158.349 267.24 157.681C266.93 157.206 266.687 156.559 266.511 155.738C266.341 154.912 266.256 154.001 266.256 153.005ZM269.807 153.014C269.807 154.654 269.95 155.776 270.237 156.38C270.53 156.978 270.952 157.276 271.503 157.276C271.866 157.276 272.18 157.15 272.443 156.898C272.713 156.641 272.909 156.236 273.032 155.686C273.161 155.135 273.226 154.276 273.226 153.11C273.226 151.399 273.079 150.251 272.786 149.665C272.499 149.073 272.065 148.777 271.485 148.777C270.894 148.777 270.466 149.079 270.202 149.683C269.938 150.28 269.807 151.391 269.807 153.014Z" fill="white"/>
<path d="M166.921 180.911V177.842C165.964 177.568 165.261 177.156 164.812 176.604C164.367 176.047 164.145 175.374 164.145 174.583C164.145 173.782 164.396 173.11 164.899 172.568C165.407 172.021 166.081 171.707 166.921 171.624V170.898H167.983V171.624C168.759 171.716 169.377 171.982 169.836 172.422C170.295 172.856 170.588 173.44 170.715 174.172L168.862 174.414C168.75 173.838 168.457 173.447 167.983 173.242V176.106C169.155 176.423 169.953 176.836 170.378 177.344C170.803 177.847 171.015 178.494 171.015 179.285C171.015 180.168 170.747 180.913 170.209 181.519C169.677 182.124 168.935 182.495 167.983 182.632V184.001H166.921V182.668C166.076 182.566 165.39 182.251 164.863 181.724C164.335 181.196 163.999 180.452 163.852 179.49L165.764 179.285C165.842 179.675 165.988 180.012 166.203 180.295C166.418 180.579 166.657 180.784 166.921 180.911ZM166.921 173.22C166.633 173.318 166.403 173.484 166.232 173.718C166.062 173.953 165.976 174.211 165.976 174.495C165.976 174.753 166.054 174.995 166.21 175.22C166.367 175.439 166.604 175.618 166.921 175.754V173.22ZM167.983 181.013C168.349 180.945 168.647 180.776 168.876 180.508C169.106 180.234 169.221 179.915 169.221 179.548C169.221 179.221 169.123 178.94 168.928 178.706C168.737 178.467 168.422 178.284 167.983 178.157V181.013ZM176.362 182.5V180.339H171.967V178.538L176.625 171.719H178.354V178.53H179.687V180.339H178.354V182.5H176.362ZM176.362 178.53V174.861L173.894 178.53H176.362ZM181.115 182.5V180.442H183.173V182.5H181.115ZM188.886 182.5V180.339H184.492V178.538L189.15 171.719H190.878V178.53H192.211V180.339H190.878V182.5H188.886ZM188.886 178.53V174.861L186.418 178.53H188.886ZM196.679 171.719C197.719 171.719 198.532 172.09 199.118 172.832C199.816 173.711 200.166 175.168 200.166 177.205C200.166 179.236 199.814 180.696 199.111 181.584C198.53 182.317 197.719 182.683 196.679 182.683C195.634 182.683 194.792 182.283 194.152 181.482C193.513 180.676 193.193 179.243 193.193 177.183C193.193 175.161 193.544 173.706 194.248 172.817C194.829 172.085 195.639 171.719 196.679 171.719ZM196.679 173.425C196.43 173.425 196.208 173.506 196.013 173.667C195.817 173.823 195.666 174.106 195.559 174.517C195.417 175.049 195.346 175.945 195.346 177.205C195.346 178.464 195.41 179.331 195.537 179.805C195.664 180.273 195.822 180.586 196.013 180.742C196.208 180.898 196.43 180.977 196.679 180.977C196.928 180.977 197.15 180.898 197.346 180.742C197.541 180.581 197.692 180.295 197.8 179.885C197.941 179.358 198.012 178.464 198.012 177.205C198.012 175.945 197.949 175.081 197.822 174.612C197.695 174.138 197.534 173.823 197.338 173.667C197.148 173.506 196.928 173.425 196.679 173.425ZM205.029 171.719C206.069 171.719 206.882 172.09 207.468 172.832C208.166 173.711 208.515 175.168 208.515 177.205C208.515 179.236 208.164 180.696 207.46 181.584C206.879 182.317 206.069 182.683 205.029 182.683C203.984 182.683 203.142 182.283 202.502 181.482C201.862 180.676 201.542 179.243 201.542 177.183C201.542 175.161 201.894 173.706 202.597 172.817C203.178 172.085 203.989 171.719 205.029 171.719ZM205.029 173.425C204.78 173.425 204.558 173.506 204.362 173.667C204.167 173.823 204.016 174.106 203.908 174.517C203.767 175.049 203.696 175.945 203.696 177.205C203.696 178.464 203.759 179.331 203.886 179.805C204.013 180.273 204.172 180.586 204.362 180.742C204.558 180.898 204.78 180.977 205.029 180.977C205.278 180.977 205.5 180.898 205.695 180.742C205.891 180.581 206.042 180.295 206.149 179.885C206.291 179.358 206.362 178.464 206.362 177.205C206.362 175.945 206.298 175.081 206.171 174.612C206.044 174.138 205.883 173.823 205.688 173.667C205.498 173.506 205.278 173.425 205.029 173.425ZM213.378 171.719C214.418 171.719 215.231 172.09 215.817 172.832C216.516 173.711 216.865 175.168 216.865 177.205C216.865 179.236 216.513 180.696 215.81 181.584C215.229 182.317 214.418 182.683 213.378 182.683C212.333 182.683 211.491 182.283 210.852 181.482C210.212 180.676 209.892 179.243 209.892 177.183C209.892 175.161 210.244 173.706 210.947 172.817C211.528 172.085 212.338 171.719 213.378 171.719ZM213.378 173.425C213.129 173.425 212.907 173.506 212.712 173.667C212.517 173.823 212.365 174.106 212.258 174.517C212.116 175.049 212.045 175.945 212.045 177.205C212.045 178.464 212.109 179.331 212.236 179.805C212.363 180.273 212.521 180.586 212.712 180.742C212.907 180.898 213.129 180.977 213.378 180.977C213.627 180.977 213.85 180.898 214.045 180.742C214.24 180.581 214.392 180.295 214.499 179.885C214.641 179.358 214.711 178.464 214.711 177.205C214.711 175.945 214.648 175.081 214.521 174.612C214.394 174.138 214.233 173.823 214.038 173.667C213.847 173.506 213.627 173.425 213.378 173.425ZM221.728 171.719C222.768 171.719 223.581 172.09 224.167 172.832C224.865 173.711 225.214 175.168 225.214 177.205C225.214 179.236 224.863 180.696 224.16 181.584C223.579 182.317 222.768 182.683 221.728 182.683C220.683 182.683 219.841 182.283 219.201 181.482C218.562 180.676 218.242 179.243 218.242 177.183C218.242 175.161 218.593 173.706 219.296 172.817C219.877 172.085 220.688 171.719 221.728 171.719ZM221.728 173.425C221.479 173.425 221.257 173.506 221.062 173.667C220.866 173.823 220.715 174.106 220.607 174.517C220.466 175.049 220.395 175.945 220.395 177.205C220.395 178.464 220.458 179.331 220.585 179.805C220.712 180.273 220.871 180.586 221.062 180.742C221.257 180.898 221.479 180.977 221.728 180.977C221.977 180.977 222.199 180.898 222.395 180.742C222.59 180.581 222.741 180.295 222.849 179.885C222.99 179.358 223.061 178.464 223.061 177.205C223.061 175.945 222.998 175.081 222.871 174.612C222.744 174.138 222.583 173.823 222.387 173.667C222.197 173.506 221.977 173.425 221.728 173.425ZM230.078 171.719C231.118 171.719 231.931 172.09 232.517 172.832C233.215 173.711 233.564 175.168 233.564 177.205C233.564 179.236 233.212 180.696 232.509 181.584C231.928 182.317 231.118 182.683 230.078 182.683C229.033 182.683 228.19 182.283 227.551 181.482C226.911 180.676 226.591 179.243 226.591 177.183C226.591 175.161 226.943 173.706 227.646 172.817C228.227 172.085 229.038 171.719 230.078 171.719ZM230.078 173.425C229.829 173.425 229.606 173.506 229.411 173.667C229.216 173.823 229.064 174.106 228.957 174.517C228.815 175.049 228.745 175.945 228.745 177.205C228.745 178.464 228.808 179.331 228.935 179.805C229.062 180.273 229.221 180.586 229.411 180.742C229.606 180.898 229.829 180.977 230.078 180.977C230.327 180.977 230.549 180.898 230.744 180.742C230.939 180.581 231.091 180.295 231.198 179.885C231.34 179.358 231.411 178.464 231.411 177.205C231.411 175.945 231.347 175.081 231.22 174.612C231.093 174.138 230.932 173.823 230.737 173.667C230.546 173.506 230.327 173.425 230.078 173.425ZM238.427 171.719C239.467 171.719 240.28 172.09 240.866 172.832C241.564 173.711 241.914 175.168 241.914 177.205C241.914 179.236 241.562 180.696 240.859 181.584C240.278 182.317 239.467 182.683 238.427 182.683C237.382 182.683 236.54 182.283 235.9 181.482C235.261 180.676 234.941 179.243 234.941 177.183C234.941 175.161 235.292 173.706 235.996 172.817C236.577 172.085 237.387 171.719 238.427 171.719ZM238.427 173.425C238.178 173.425 237.956 173.506 237.761 173.667C237.565 173.823 237.414 174.106 237.307 174.517C237.165 175.049 237.094 175.945 237.094 177.205C237.094 178.464 237.158 179.331 237.285 179.805C237.412 180.273 237.57 180.586 237.761 180.742C237.956 180.898 238.178 180.977 238.427 180.977C238.676 180.977 238.898 180.898 239.094 180.742C239.289 180.581 239.44 180.295 239.548 179.885C239.689 179.358 239.76 178.464 239.76 177.205C239.76 175.945 239.697 175.081 239.57 174.612C239.443 174.138 239.282 173.823 239.086 173.667C238.896 173.506 238.676 173.425 238.427 173.425Z" fill="#7C8499"/>
</g>
<rect x="380" y="120" width="50" height="38.5" rx="10" fill="#383C45"/>
<path d="M397.171 134.04H398.401V144.75H396.766V136.005C396.121 136.62 395.296 137.07 394.306 137.355V135.735C394.786 135.615 395.281 135.405 395.821 135.105C396.361 134.775 396.811 134.43 397.171 134.04ZM405.499 132.45H406.879L401.644 146.25H400.249L405.499 132.45ZM411.979 133.83C412.999 133.83 413.854 134.115 414.514 134.715C415.159 135.315 415.489 136.08 415.489 137.025C415.489 137.955 415.129 138.795 414.439 139.56C414.019 139.995 413.284 140.565 412.219 141.285C411.064 142.05 410.374 142.725 410.149 143.31H415.504V144.75H408.124C408.124 143.685 408.469 142.755 409.189 141.945C409.579 141.48 410.389 140.835 411.604 139.995C412.324 139.485 412.834 139.08 413.134 138.765C413.614 138.225 413.869 137.64 413.869 137.01C413.869 136.41 413.704 135.96 413.374 135.66C413.044 135.36 412.549 135.21 411.919 135.21C411.244 135.21 410.734 135.435 410.389 135.9C410.029 136.35 409.849 136.995 409.819 137.865H408.184C408.199 136.665 408.544 135.705 409.219 134.985C409.909 134.205 410.839 133.83 411.979 133.83Z" fill="#7C8499"/>
<rect x="380" y="166.5" width="50" height="38.5" rx="10" fill="#383C45"/>
<path d="M401.191 180.33C402.211 180.33 403.066 180.615 403.726 181.215C404.371 181.815 404.701 182.58 404.701 183.525C404.701 184.455 404.341 185.295 403.651 186.06C403.231 186.495 402.496 187.065 401.431 187.785C400.276 188.55 399.586 189.225 399.361 189.81H404.716V191.25H397.336C397.336 190.185 397.681 189.255 398.401 188.445C398.791 187.98 399.601 187.335 400.816 186.495C401.536 185.985 402.046 185.58 402.346 185.265C402.826 184.725 403.081 184.14 403.081 183.51C403.081 182.91 402.916 182.46 402.586 182.16C402.256 181.86 401.761 181.71 401.131 181.71C400.456 181.71 399.946 181.935 399.601 182.4C399.241 182.85 399.061 183.495 399.031 184.365H397.396C397.411 183.165 397.756 182.205 398.431 181.485C399.121 180.705 400.051 180.33 401.191 180.33ZM405.94 183.495H407.8L409.51 185.955L411.205 183.495H413.065L410.38 187.125L413.395 191.25H411.535L409.51 188.295L407.47 191.25H405.595L408.625 187.125L405.94 183.495Z" fill="#7C8499"/>
<rect x="25.5" y="112.5" width="412" height="100" rx="9.5" stroke="#55657E"/>
<defs>
<clipPath id="clip0_14_3879">
<rect width="143" height="46" fill="white" transform="translate(135 139.5)"/>
</clipPath>
<clipPath id="clip1_14_3879">
<rect width="24" height="24" fill="white" transform="translate(135 139.5)"/>
</clipPath>
</defs>
</svg>
