<svg width="460" height="347" viewBox="0 0 460 347" fill="none" xmlns="http://www.w3.org/2000/svg">
<rect width="460" height="346.11" rx="10" fill="white"/>
<rect x="24.5" y="123.5" width="412" height="100" rx="9.5" fill="white"/>
<g clip-path="url(#clip0_151_3876)">
<g clip-path="url(#clip1_151_3876)">
<path d="M157.639 165.403C156.037 171.831 149.525 175.744 143.096 174.141C136.669 172.538 132.757 166.026 134.36 159.598C135.962 153.169 142.474 149.256 148.901 150.859C155.33 152.462 159.242 158.974 157.639 165.403L157.639 165.403H157.639Z" fill="#F7931A"/>
<path d="M151.291 160.79C151.53 159.193 150.314 158.335 148.652 157.762L149.191 155.599L147.874 155.271L147.349 157.377C147.003 157.291 146.647 157.21 146.294 157.129L146.823 155.009L145.507 154.681L144.967 156.843C144.681 156.778 144.399 156.713 144.126 156.646L144.128 156.639L142.312 156.185L141.962 157.592C141.962 157.592 142.939 157.816 142.918 157.829C143.451 157.963 143.548 158.316 143.532 158.595L142.917 161.06C142.954 161.069 143.002 161.082 143.054 161.104C143.01 161.093 142.964 161.081 142.915 161.069L142.054 164.521C141.989 164.683 141.823 164.927 141.451 164.834C141.464 164.853 140.494 164.595 140.494 164.595L139.84 166.103L141.553 166.53C141.872 166.61 142.185 166.693 142.492 166.772L141.947 168.96L143.263 169.288L143.802 167.123C144.162 167.221 144.51 167.311 144.852 167.396L144.314 169.55L145.631 169.878L146.176 167.695C148.421 168.12 150.109 167.948 150.82 165.917C151.393 164.282 150.792 163.339 149.61 162.724C150.471 162.525 151.119 161.96 151.292 160.791L151.291 160.79L151.291 160.79ZM148.282 165.009C147.876 166.644 145.122 165.76 144.23 165.539L144.953 162.64C145.845 162.863 148.708 163.304 148.283 165.009H148.282ZM148.69 160.767C148.318 162.254 146.027 161.498 145.284 161.313L145.939 158.684C146.683 158.869 149.076 159.215 148.69 160.767H148.69Z" fill="white"/>
</g>
<path d="M163.215 164.005C163.215 161.556 163.654 159.842 164.533 158.863C165.418 157.885 166.763 157.396 168.567 157.396C169.435 157.396 170.146 157.504 170.703 157.721C171.26 157.932 171.714 158.21 172.065 158.556C172.417 158.896 172.692 159.256 172.892 159.637C173.097 160.012 173.261 160.451 173.384 160.955C173.624 161.916 173.744 162.918 173.744 163.961C173.744 166.299 173.349 168.01 172.558 169.094C171.767 170.178 170.404 170.72 168.471 170.72C167.387 170.72 166.511 170.547 165.843 170.201C165.175 169.855 164.627 169.349 164.199 168.681C163.889 168.206 163.646 167.559 163.47 166.738C163.3 165.912 163.215 165.001 163.215 164.005ZM166.766 164.014C166.766 165.654 166.909 166.776 167.196 167.38C167.489 167.978 167.911 168.276 168.462 168.276C168.825 168.276 169.139 168.15 169.402 167.898C169.672 167.641 169.868 167.236 169.991 166.686C170.12 166.135 170.185 165.276 170.185 164.11C170.185 162.399 170.038 161.251 169.745 160.665C169.458 160.073 169.024 159.777 168.444 159.777C167.853 159.777 167.425 160.079 167.161 160.683C166.897 161.28 166.766 162.391 166.766 164.014ZM175.572 166.914H179.396V170.5H175.572V166.914ZM181.215 164.005C181.215 161.556 181.654 159.842 182.533 158.863C183.418 157.885 184.763 157.396 186.567 157.396C187.435 157.396 188.146 157.504 188.703 157.721C189.26 157.932 189.714 158.21 190.065 158.556C190.417 158.896 190.692 159.256 190.892 159.637C191.097 160.012 191.261 160.451 191.384 160.955C191.624 161.916 191.744 162.918 191.744 163.961C191.744 166.299 191.349 168.01 190.558 169.094C189.767 170.178 188.404 170.72 186.471 170.72C185.387 170.72 184.511 170.547 183.843 170.201C183.175 169.855 182.627 169.349 182.199 168.681C181.889 168.206 181.646 167.559 181.47 166.738C181.3 165.912 181.215 165.001 181.215 164.005ZM184.766 164.014C184.766 165.654 184.909 166.776 185.196 167.38C185.489 167.978 185.911 168.276 186.462 168.276C186.825 168.276 187.139 168.15 187.402 167.898C187.672 167.641 187.868 167.236 187.991 166.686C188.12 166.135 188.185 165.276 188.185 164.11C188.185 162.399 188.038 161.251 187.745 160.665C187.458 160.073 187.024 159.777 186.444 159.777C185.853 159.777 185.425 160.079 185.161 160.683C184.897 161.28 184.766 162.391 184.766 164.014ZM193.221 164.005C193.221 161.556 193.66 159.842 194.539 158.863C195.424 157.885 196.769 157.396 198.573 157.396C199.44 157.396 200.152 157.504 200.709 157.721C201.266 157.932 201.72 158.21 202.071 158.556C202.423 158.896 202.698 159.256 202.897 159.637C203.103 160.012 203.267 160.451 203.39 160.955C203.63 161.916 203.75 162.918 203.75 163.961C203.75 166.299 203.354 168.01 202.563 169.094C201.772 170.178 200.41 170.72 198.477 170.72C197.393 170.72 196.517 170.547 195.849 170.201C195.181 169.855 194.633 169.349 194.205 168.681C193.895 168.206 193.651 167.559 193.476 166.738C193.306 165.912 193.221 165.001 193.221 164.005ZM196.771 164.014C196.771 165.654 196.915 166.776 197.202 167.38C197.495 167.978 197.917 168.276 198.468 168.276C198.831 168.276 199.145 168.15 199.408 167.898C199.678 167.641 199.874 167.236 199.997 166.686C200.126 166.135 200.19 165.276 200.19 164.11C200.19 162.399 200.044 161.251 199.751 160.665C199.464 160.073 199.03 159.777 198.45 159.777C197.858 159.777 197.431 160.079 197.167 160.683C196.903 161.28 196.771 162.391 196.771 164.014ZM205.227 164.005C205.227 161.556 205.666 159.842 206.545 158.863C207.43 157.885 208.774 157.396 210.579 157.396C211.446 157.396 212.158 157.504 212.715 157.721C213.271 157.932 213.726 158.21 214.077 158.556C214.429 158.896 214.704 159.256 214.903 159.637C215.108 160.012 215.272 160.451 215.396 160.955C215.636 161.916 215.756 162.918 215.756 163.961C215.756 166.299 215.36 168.01 214.569 169.094C213.778 170.178 212.416 170.72 210.482 170.72C209.398 170.72 208.522 170.547 207.854 170.201C207.187 169.855 206.639 169.349 206.211 168.681C205.9 168.206 205.657 167.559 205.481 166.738C205.312 165.912 205.227 165.001 205.227 164.005ZM208.777 164.014C208.777 165.654 208.921 166.776 209.208 167.38C209.501 167.978 209.923 168.276 210.474 168.276C210.837 168.276 211.15 168.15 211.414 167.898C211.684 167.641 211.88 167.236 212.003 166.686C212.132 166.135 212.196 165.276 212.196 164.11C212.196 162.399 212.05 161.251 211.757 160.665C211.47 160.073 211.036 159.777 210.456 159.777C209.864 159.777 209.437 160.079 209.173 160.683C208.909 161.28 208.777 162.391 208.777 164.014ZM217.232 164.005C217.232 161.556 217.672 159.842 218.551 158.863C219.436 157.885 220.78 157.396 222.585 157.396C223.452 157.396 224.164 157.504 224.721 157.721C225.277 157.932 225.731 158.21 226.083 158.556C226.435 158.896 226.71 159.256 226.909 159.637C227.114 160.012 227.278 160.451 227.401 160.955C227.642 161.916 227.762 162.918 227.762 163.961C227.762 166.299 227.366 168.01 226.575 169.094C225.784 170.178 224.422 170.72 222.488 170.72C221.404 170.72 220.528 170.547 219.86 170.201C219.192 169.855 218.645 169.349 218.217 168.681C217.906 168.206 217.663 167.559 217.487 166.738C217.317 165.912 217.232 165.001 217.232 164.005ZM220.783 164.014C220.783 165.654 220.927 166.776 221.214 167.38C221.507 167.978 221.929 168.276 222.479 168.276C222.843 168.276 223.156 168.15 223.42 167.898C223.689 167.641 223.886 167.236 224.009 166.686C224.138 166.135 224.202 165.276 224.202 164.11C224.202 162.399 224.056 161.251 223.763 160.665C223.476 160.073 223.042 159.777 222.462 159.777C221.87 159.777 221.442 160.079 221.179 160.683C220.915 161.28 220.783 162.391 220.783 164.014ZM237.351 157.396V170.5H233.729V161.913C233.144 162.358 232.575 162.719 232.024 162.994C231.479 163.27 230.794 163.533 229.968 163.785V160.85C231.187 160.457 232.133 159.985 232.807 159.435C233.48 158.884 234.008 158.204 234.389 157.396H237.351ZM241.244 164.005C241.244 161.556 241.684 159.842 242.562 158.863C243.447 157.885 244.792 157.396 246.597 157.396C247.464 157.396 248.176 157.504 248.732 157.721C249.289 157.932 249.743 158.21 250.095 158.556C250.446 158.896 250.722 159.256 250.921 159.637C251.126 160.012 251.29 160.451 251.413 160.955C251.653 161.916 251.773 162.918 251.773 163.961C251.773 166.299 251.378 168.01 250.587 169.094C249.796 170.178 248.434 170.72 246.5 170.72C245.416 170.72 244.54 170.547 243.872 170.201C243.204 169.855 242.656 169.349 242.229 168.681C241.918 168.206 241.675 167.559 241.499 166.738C241.329 165.912 241.244 165.001 241.244 164.005ZM244.795 164.014C244.795 165.654 244.938 166.776 245.226 167.38C245.519 167.978 245.94 168.276 246.491 168.276C246.854 168.276 247.168 168.15 247.432 167.898C247.701 167.641 247.897 167.236 248.021 166.686C248.149 166.135 248.214 165.276 248.214 164.11C248.214 162.399 248.067 161.251 247.774 160.665C247.487 160.073 247.054 159.777 246.474 159.777C245.882 159.777 245.454 160.079 245.19 160.683C244.927 161.28 244.795 162.391 244.795 164.014ZM253.25 164.005C253.25 161.556 253.689 159.842 254.568 158.863C255.453 157.885 256.798 157.396 258.603 157.396C259.47 157.396 260.182 157.504 260.738 157.721C261.295 157.932 261.749 158.21 262.101 158.556C262.452 158.896 262.728 159.256 262.927 159.637C263.132 160.012 263.296 160.451 263.419 160.955C263.659 161.916 263.779 162.918 263.779 163.961C263.779 166.299 263.384 168.01 262.593 169.094C261.802 170.178 260.439 170.72 258.506 170.72C257.422 170.72 256.546 170.547 255.878 170.201C255.21 169.855 254.662 169.349 254.234 168.681C253.924 168.206 253.681 167.559 253.505 166.738C253.335 165.912 253.25 165.001 253.25 164.005ZM256.801 164.014C256.801 165.654 256.944 166.776 257.231 167.38C257.524 167.978 257.946 168.276 258.497 168.276C258.86 168.276 259.174 168.15 259.438 167.898C259.707 167.641 259.903 167.236 260.026 166.686C260.155 166.135 260.22 165.276 260.22 164.11C260.22 162.399 260.073 161.251 259.78 160.665C259.493 160.073 259.06 159.777 258.479 159.777C257.888 159.777 257.46 160.079 257.196 160.683C256.933 161.28 256.801 162.391 256.801 164.014ZM265.256 164.005C265.256 161.556 265.695 159.842 266.574 158.863C267.459 157.885 268.804 157.396 270.608 157.396C271.476 157.396 272.188 157.504 272.744 157.721C273.301 157.932 273.755 158.21 274.106 158.556C274.458 158.896 274.733 159.256 274.933 159.637C275.138 160.012 275.302 160.451 275.425 160.955C275.665 161.916 275.785 162.918 275.785 163.961C275.785 166.299 275.39 168.01 274.599 169.094C273.808 170.178 272.445 170.72 270.512 170.72C269.428 170.72 268.552 170.547 267.884 170.201C267.216 169.855 266.668 169.349 266.24 168.681C265.93 168.206 265.687 167.559 265.511 166.738C265.341 165.912 265.256 165.001 265.256 164.005ZM268.807 164.014C268.807 165.654 268.95 166.776 269.237 167.38C269.53 167.978 269.952 168.276 270.503 168.276C270.866 168.276 271.18 168.15 271.443 167.898C271.713 167.641 271.909 167.236 272.032 166.686C272.161 166.135 272.226 165.276 272.226 164.11C272.226 162.399 272.079 161.251 271.786 160.665C271.499 160.073 271.065 159.777 270.485 159.777C269.894 159.777 269.466 160.079 269.202 160.683C268.938 161.28 268.807 162.391 268.807 164.014Z" fill="#484848"/>
<path d="M165.921 191.911V188.842C164.964 188.568 164.261 188.156 163.812 187.604C163.367 187.047 163.145 186.374 163.145 185.583C163.145 184.782 163.396 184.11 163.899 183.568C164.407 183.021 165.081 182.707 165.921 182.624V181.898H166.983V182.624C167.759 182.716 168.377 182.982 168.836 183.422C169.295 183.856 169.588 184.44 169.715 185.172L167.862 185.414C167.75 184.838 167.457 184.447 166.983 184.242V187.106C168.155 187.423 168.953 187.836 169.378 188.344C169.803 188.847 170.015 189.494 170.015 190.285C170.015 191.168 169.747 191.913 169.209 192.519C168.677 193.124 167.935 193.495 166.983 193.632V195.001H165.921V193.668C165.076 193.566 164.39 193.251 163.863 192.724C163.335 192.196 162.999 191.452 162.852 190.49L164.764 190.285C164.842 190.675 164.988 191.012 165.203 191.295C165.418 191.579 165.657 191.784 165.921 191.911ZM165.921 184.22C165.633 184.318 165.403 184.484 165.232 184.718C165.062 184.953 164.976 185.211 164.976 185.495C164.976 185.753 165.054 185.995 165.21 186.22C165.367 186.439 165.604 186.618 165.921 186.754V184.22ZM166.983 192.013C167.349 191.945 167.647 191.776 167.876 191.508C168.106 191.234 168.221 190.915 168.221 190.548C168.221 190.221 168.123 189.94 167.928 189.706C167.737 189.467 167.422 189.284 166.983 189.157V192.013ZM175.362 193.5V191.339H170.967V189.538L175.625 182.719H177.354V189.53H178.687V191.339H177.354V193.5H175.362ZM175.362 189.53V185.861L172.894 189.53H175.362ZM180.115 193.5V191.442H182.173V193.5H180.115ZM187.886 193.5V191.339H183.492V189.538L188.15 182.719H189.878V189.53H191.211V191.339H189.878V193.5H187.886ZM187.886 189.53V185.861L185.418 189.53H187.886ZM195.679 182.719C196.719 182.719 197.532 183.09 198.118 183.832C198.816 184.711 199.166 186.168 199.166 188.205C199.166 190.236 198.814 191.696 198.111 192.584C197.53 193.317 196.719 193.683 195.679 193.683C194.634 193.683 193.792 193.283 193.152 192.482C192.513 191.676 192.193 190.243 192.193 188.183C192.193 186.161 192.544 184.706 193.248 183.817C193.829 183.085 194.639 182.719 195.679 182.719ZM195.679 184.425C195.43 184.425 195.208 184.506 195.013 184.667C194.817 184.823 194.666 185.106 194.559 185.517C194.417 186.049 194.346 186.945 194.346 188.205C194.346 189.464 194.41 190.331 194.537 190.805C194.664 191.273 194.822 191.586 195.013 191.742C195.208 191.898 195.43 191.977 195.679 191.977C195.928 191.977 196.15 191.898 196.346 191.742C196.541 191.581 196.692 191.295 196.8 190.885C196.941 190.358 197.012 189.464 197.012 188.205C197.012 186.945 196.949 186.081 196.822 185.612C196.695 185.138 196.534 184.823 196.338 184.667C196.148 184.506 195.928 184.425 195.679 184.425ZM204.029 182.719C205.069 182.719 205.882 183.09 206.468 183.832C207.166 184.711 207.515 186.168 207.515 188.205C207.515 190.236 207.164 191.696 206.46 192.584C205.879 193.317 205.069 193.683 204.029 193.683C202.984 193.683 202.142 193.283 201.502 192.482C200.862 191.676 200.542 190.243 200.542 188.183C200.542 186.161 200.894 184.706 201.597 183.817C202.178 183.085 202.989 182.719 204.029 182.719ZM204.029 184.425C203.78 184.425 203.558 184.506 203.362 184.667C203.167 184.823 203.016 185.106 202.908 185.517C202.767 186.049 202.696 186.945 202.696 188.205C202.696 189.464 202.759 190.331 202.886 190.805C203.013 191.273 203.172 191.586 203.362 191.742C203.558 191.898 203.78 191.977 204.029 191.977C204.278 191.977 204.5 191.898 204.695 191.742C204.891 191.581 205.042 191.295 205.149 190.885C205.291 190.358 205.362 189.464 205.362 188.205C205.362 186.945 205.298 186.081 205.171 185.612C205.044 185.138 204.883 184.823 204.688 184.667C204.498 184.506 204.278 184.425 204.029 184.425ZM212.378 182.719C213.418 182.719 214.231 183.09 214.817 183.832C215.516 184.711 215.865 186.168 215.865 188.205C215.865 190.236 215.513 191.696 214.81 192.584C214.229 193.317 213.418 193.683 212.378 193.683C211.333 193.683 210.491 193.283 209.852 192.482C209.212 191.676 208.892 190.243 208.892 188.183C208.892 186.161 209.244 184.706 209.947 183.817C210.528 183.085 211.338 182.719 212.378 182.719ZM212.378 184.425C212.129 184.425 211.907 184.506 211.712 184.667C211.517 184.823 211.365 185.106 211.258 185.517C211.116 186.049 211.045 186.945 211.045 188.205C211.045 189.464 211.109 190.331 211.236 190.805C211.363 191.273 211.521 191.586 211.712 191.742C211.907 191.898 212.129 191.977 212.378 191.977C212.627 191.977 212.85 191.898 213.045 191.742C213.24 191.581 213.392 191.295 213.499 190.885C213.641 190.358 213.711 189.464 213.711 188.205C213.711 186.945 213.648 186.081 213.521 185.612C213.394 185.138 213.233 184.823 213.038 184.667C212.847 184.506 212.627 184.425 212.378 184.425ZM220.728 182.719C221.768 182.719 222.581 183.09 223.167 183.832C223.865 184.711 224.214 186.168 224.214 188.205C224.214 190.236 223.863 191.696 223.16 192.584C222.579 193.317 221.768 193.683 220.728 193.683C219.683 193.683 218.841 193.283 218.201 192.482C217.562 191.676 217.242 190.243 217.242 188.183C217.242 186.161 217.593 184.706 218.296 183.817C218.877 183.085 219.688 182.719 220.728 182.719ZM220.728 184.425C220.479 184.425 220.257 184.506 220.062 184.667C219.866 184.823 219.715 185.106 219.607 185.517C219.466 186.049 219.395 186.945 219.395 188.205C219.395 189.464 219.458 190.331 219.585 190.805C219.712 191.273 219.871 191.586 220.062 191.742C220.257 191.898 220.479 191.977 220.728 191.977C220.977 191.977 221.199 191.898 221.395 191.742C221.59 191.581 221.741 191.295 221.849 190.885C221.99 190.358 222.061 189.464 222.061 188.205C222.061 186.945 221.998 186.081 221.871 185.612C221.744 185.138 221.583 184.823 221.387 184.667C221.197 184.506 220.977 184.425 220.728 184.425ZM229.078 182.719C230.118 182.719 230.931 183.09 231.517 183.832C232.215 184.711 232.564 186.168 232.564 188.205C232.564 190.236 232.212 191.696 231.509 192.584C230.928 193.317 230.118 193.683 229.078 193.683C228.033 193.683 227.19 193.283 226.551 192.482C225.911 191.676 225.591 190.243 225.591 188.183C225.591 186.161 225.943 184.706 226.646 183.817C227.227 183.085 228.038 182.719 229.078 182.719ZM229.078 184.425C228.829 184.425 228.606 184.506 228.411 184.667C228.216 184.823 228.064 185.106 227.957 185.517C227.815 186.049 227.745 186.945 227.745 188.205C227.745 189.464 227.808 190.331 227.935 190.805C228.062 191.273 228.221 191.586 228.411 191.742C228.606 191.898 228.829 191.977 229.078 191.977C229.327 191.977 229.549 191.898 229.744 191.742C229.939 191.581 230.091 191.295 230.198 190.885C230.34 190.358 230.411 189.464 230.411 188.205C230.411 186.945 230.347 186.081 230.22 185.612C230.093 185.138 229.932 184.823 229.737 184.667C229.546 184.506 229.327 184.425 229.078 184.425ZM237.427 182.719C238.467 182.719 239.28 183.09 239.866 183.832C240.564 184.711 240.914 186.168 240.914 188.205C240.914 190.236 240.562 191.696 239.859 192.584C239.278 193.317 238.467 193.683 237.427 193.683C236.382 193.683 235.54 193.283 234.9 192.482C234.261 191.676 233.941 190.243 233.941 188.183C233.941 186.161 234.292 184.706 234.996 183.817C235.577 183.085 236.387 182.719 237.427 182.719ZM237.427 184.425C237.178 184.425 236.956 184.506 236.761 184.667C236.565 184.823 236.414 185.106 236.307 185.517C236.165 186.049 236.094 186.945 236.094 188.205C236.094 189.464 236.158 190.331 236.285 190.805C236.412 191.273 236.57 191.586 236.761 191.742C236.956 191.898 237.178 191.977 237.427 191.977C237.676 191.977 237.898 191.898 238.094 191.742C238.289 191.581 238.44 191.295 238.548 190.885C238.689 190.358 238.76 189.464 238.76 188.205C238.76 186.945 238.697 186.081 238.57 185.612C238.443 185.138 238.282 184.823 238.086 184.667C237.896 184.506 237.676 184.425 237.427 184.425Z" fill="#A6A6A6"/>
</g>
<rect x="379" y="131" width="50" height="38.5" rx="10" fill="#ECECEC"/>
<path d="M396.171 145.04H397.401V155.75H395.766V147.005C395.121 147.62 394.296 148.07 393.306 148.355V146.735C393.786 146.615 394.281 146.405 394.821 146.105C395.361 145.775 395.811 145.43 396.171 145.04ZM404.499 143.45H405.879L400.644 157.25H399.249L404.499 143.45ZM410.979 144.83C411.999 144.83 412.854 145.115 413.514 145.715C414.159 146.315 414.489 147.08 414.489 148.025C414.489 148.955 414.129 149.795 413.439 150.56C413.019 150.995 412.284 151.565 411.219 152.285C410.064 153.05 409.374 153.725 409.149 154.31H414.504V155.75H407.124C407.124 154.685 407.469 153.755 408.189 152.945C408.579 152.48 409.389 151.835 410.604 150.995C411.324 150.485 411.834 150.08 412.134 149.765C412.614 149.225 412.869 148.64 412.869 148.01C412.869 147.41 412.704 146.96 412.374 146.66C412.044 146.36 411.549 146.21 410.919 146.21C410.244 146.21 409.734 146.435 409.389 146.9C409.029 147.35 408.849 147.995 408.819 148.865H407.184C407.199 147.665 407.544 146.705 408.219 145.985C408.909 145.205 409.839 144.83 410.979 144.83Z" fill="#A6A6A6"/>
<rect x="379" y="177.5" width="50" height="38.5" rx="10" fill="#ECECEC"/>
<path d="M400.191 191.33C401.211 191.33 402.066 191.615 402.726 192.215C403.371 192.815 403.701 193.58 403.701 194.525C403.701 195.455 403.341 196.295 402.651 197.06C402.231 197.495 401.496 198.065 400.431 198.785C399.276 199.55 398.586 200.225 398.361 200.81H403.716V202.25H396.336C396.336 201.185 396.681 200.255 397.401 199.445C397.791 198.98 398.601 198.335 399.816 197.495C400.536 196.985 401.046 196.58 401.346 196.265C401.826 195.725 402.081 195.14 402.081 194.51C402.081 193.91 401.916 193.46 401.586 193.16C401.256 192.86 400.761 192.71 400.131 192.71C399.456 192.71 398.946 192.935 398.601 193.4C398.241 193.85 398.061 194.495 398.031 195.365H396.396C396.411 194.165 396.756 193.205 397.431 192.485C398.121 191.705 399.051 191.33 400.191 191.33ZM404.94 194.495H406.8L408.51 196.955L410.205 194.495H412.065L409.38 198.125L412.395 202.25H410.535L408.51 199.295L406.47 202.25H404.595L407.625 198.125L404.94 194.495Z" fill="#A6A6A6"/>
<rect x="24.5" y="123.5" width="412" height="100" rx="9.5" stroke="#ECECEC"/>
<defs>
<clipPath id="clip0_151_3876">
<rect width="143" height="46" fill="white" transform="translate(134 150.5)"/>
</clipPath>
<clipPath id="clip1_151_3876">
<rect width="24" height="24" fill="white" transform="translate(134 150.5)"/>
</clipPath>
</defs>
</svg>
