<svg width="460" height="351" viewBox="0 0 460 351" fill="none" xmlns="http://www.w3.org/2000/svg">
<rect width="460" height="346.11" rx="10" fill="#0D131C"/>
<rect width="460" height="351" rx="5.55773" fill="white"/>
<rect x="230.5" y="11" width="56" height="21" rx="10.5" fill="#55657E"/>
<path d="M254.421 16.29H255.651V27H254.016V18.255C253.371 18.87 252.546 19.32 251.556 19.605V17.985C252.036 17.865 252.531 17.655 253.071 17.355C253.611 17.025 254.061 16.68 254.421 16.29ZM261.669 16.08C262.749 16.08 263.604 16.335 264.264 16.86C264.894 17.385 265.224 18.105 265.224 19.02C265.224 20.19 264.624 20.985 263.454 21.375C264.084 21.57 264.564 21.87 264.894 22.26C265.254 22.665 265.434 23.19 265.434 23.82C265.434 24.81 265.089 25.62 264.414 26.25C263.694 26.88 262.749 27.21 261.609 27.21C260.514 27.21 259.629 26.925 258.969 26.37C258.219 25.74 257.799 24.825 257.709 23.625H259.359C259.389 24.345 259.614 24.9 260.064 25.29C260.454 25.65 260.964 25.83 261.594 25.83C262.284 25.83 262.839 25.62 263.259 25.23C263.619 24.87 263.814 24.435 263.814 23.895C263.814 23.265 263.619 22.8 263.229 22.5C262.869 22.2 262.329 22.05 261.624 22.05H260.844V20.82H261.609C262.269 20.82 262.764 20.67 263.094 20.385C263.424 20.1 263.604 19.68 263.604 19.14C263.604 18.6 263.439 18.195 263.139 17.91C262.809 17.61 262.314 17.475 261.684 17.475C261.039 17.475 260.529 17.64 260.169 17.97C259.809 18.3 259.584 18.795 259.524 19.455H257.919C258.009 18.39 258.399 17.565 259.104 16.965C259.764 16.365 260.619 16.08 261.669 16.08Z" fill="white"/>
<g filter="url(#filter0_d_151_3885)">
<rect x="177.296" y="32.2958" width="58.5753" height="82.2421" rx="9.17088" fill="white" stroke="#55657E" stroke-width="0.591669" stroke-dasharray="4.73 4.73"/>
<g clip-path="url(#clip0_151_3885)">
<rect x="177" y="32" width="59.1669" height="82.8337" rx="7.10003" fill="url(#paint0_linear_151_3885)"/>
<path d="M195.564 52.8559V55.3667H184.45V53.2241L189.706 47.5887C190.234 47.001 190.651 46.484 190.956 46.0376C191.261 45.5838 191.48 45.1783 191.614 44.8212C191.755 44.4567 191.826 44.1108 191.826 43.7834C191.826 43.2924 191.744 42.8721 191.581 42.5225C191.417 42.1654 191.175 41.8901 190.855 41.6967C190.543 41.5032 190.156 41.4065 189.695 41.4065C189.204 41.4065 188.78 41.5256 188.422 41.7636C188.073 42.0017 187.805 42.3327 187.619 42.7568C187.44 43.1808 187.351 43.6607 187.351 44.1963H184.126C184.126 43.2292 184.357 42.3439 184.818 41.5404C185.279 40.7295 185.93 40.086 186.771 39.6099C187.612 39.1263 188.608 38.8845 189.762 38.8845C190.9 38.8845 191.86 39.0705 192.641 39.4425C193.429 39.807 194.024 40.3352 194.426 41.0271C194.835 41.7115 195.04 42.5299 195.04 43.4821C195.04 44.0178 194.954 44.5423 194.783 45.0556C194.612 45.5615 194.367 46.0674 194.047 46.5732C193.734 47.0717 193.355 47.5776 192.908 48.0909C192.462 48.6042 191.967 49.1361 191.424 49.6867L188.601 52.8559H195.564Z" fill="#242424"/>
<path fill-rule="evenodd" clip-rule="evenodd" d="M192.964 72.8359C195.49 72.8643 197.044 71.2461 196.189 69.5428C195.335 67.8394 194.483 67.4562 193.141 66.2213C191.798 64.9863 189.846 62.8501 189.855 62.3462C189.865 62.8501 187.994 64.9863 186.651 66.2213C185.309 67.4562 184.458 67.8394 183.602 69.5428C182.748 71.2461 184.302 72.8643 186.828 72.8359C188.562 72.8164 189.342 71.8204 189.66 71.1978L189.66 72.0127C189.66 72.0127 189.107 74.9523 185.2 75.2741L184.577 75.2741L184.577 75.7321L195.215 75.7321L195.215 75.2741L194.592 75.2741C190.686 74.9523 190.132 72.0127 190.132 72.0127L190.132 71.3048C190.507 71.9281 191.326 72.8175 192.964 72.8359Z" fill="#242424"/>
<path fill-rule="evenodd" clip-rule="evenodd" d="M225.089 104.275C230.583 104.337 233.962 100.818 232.103 97.1136C230.244 93.4094 228.391 92.5759 225.473 89.8904C222.554 87.2049 218.309 82.5592 218.329 81.4634C218.35 82.5592 214.28 87.2049 211.36 89.8904C208.442 92.5759 206.591 93.4094 204.73 97.1136C202.872 100.818 206.252 104.337 211.745 104.275C215.515 104.233 217.212 102.067 217.904 100.713L217.904 102.485C217.904 102.485 216.701 108.878 208.204 109.577L206.85 109.577L206.85 110.574L229.985 110.574L229.985 109.577L228.629 109.577C220.135 108.878 218.929 102.485 218.929 102.485L218.929 100.945C219.745 102.301 221.528 104.235 225.089 104.275Z" fill="#242424"/>
</g>
</g>
<g filter="url(#filter1_d_151_3885)">
<rect x="201.296" y="44.2958" width="58.5753" height="82.2421" rx="9.17088" fill="white" stroke="#55657E" stroke-width="0.591669" stroke-dasharray="4.73 4.73"/>
<g clip-path="url(#clip1_151_3885)">
<rect x="201" y="44" width="59.1669" height="82.8337" rx="7.10003" fill="url(#paint1_linear_151_3885)"/>
<path d="M215.536 62.3785V51.1189H218.873V62.3785C218.873 63.4647 218.634 64.3983 218.158 65.1795C217.682 65.9532 217.031 66.5484 216.205 66.965C215.387 67.3816 214.465 67.5899 213.438 67.5899C212.374 67.5899 211.433 67.4113 210.615 67.0542C209.796 66.6971 209.153 66.1503 208.684 65.4138C208.215 64.6699 207.981 63.7288 207.981 62.5906H211.34C211.34 63.1857 211.422 63.6581 211.586 64.0078C211.757 64.3574 211.998 64.6067 212.311 64.7554C212.623 64.9042 212.999 64.9786 213.438 64.9786C213.862 64.9786 214.23 64.8782 214.543 64.6773C214.855 64.4765 215.097 64.1826 215.268 63.7958C215.447 63.4089 215.536 62.9365 215.536 62.3785Z" fill="#EE3D3D"/>
<path fill-rule="evenodd" clip-rule="evenodd" d="M217.117 74.6733C214.465 74.7104 213.938 77.4565 213.938 77.4565C213.938 77.4565 213.326 74.7104 210.674 74.6733C208.022 74.6362 206.389 76.7514 207.287 78.978C208.185 81.2046 209.079 81.7056 210.488 83.3198C211.898 84.9341 213.948 87.7266 213.938 88.3853C213.928 87.7266 215.893 84.9341 217.302 83.3198C218.711 81.7056 219.606 81.2046 220.503 78.978C221.401 76.7514 219.769 74.6362 217.117 74.6733Z" fill="#EE3D3D"/>
<path fill-rule="evenodd" clip-rule="evenodd" d="M249.423 94.1744C243.656 94.255 242.509 100.227 242.509 100.227C242.509 100.227 241.178 94.255 235.411 94.1744C229.643 94.0936 226.094 98.6936 228.046 103.536C229.998 108.378 231.943 109.467 235.008 112.978C238.073 116.488 242.531 122.561 242.509 123.993C242.487 122.561 246.761 116.488 249.826 112.978C252.891 109.467 254.836 108.378 256.788 103.536C258.74 98.6936 255.19 94.0936 249.423 94.1744Z" fill="#EE3D3D"/>
</g>
</g>
<g filter="url(#filter2_d_151_3885)">
<rect x="224.296" y="55.2958" width="58.5753" height="82.2421" rx="9.17088" fill="white" stroke="#55657E" stroke-width="0.591669" stroke-dasharray="4.73 4.73"/>
<g clip-path="url(#clip2_151_3885)">
<rect x="224" y="55" width="59.1669" height="82.8337" rx="7.10003" fill="url(#paint2_linear_151_3885)"/>
<path d="M239.284 62.0854V78.3667H236.07V65.7903L232.209 67.0178V64.4846L238.938 62.0854H239.284Z" fill="#EE3D3D"/>
<path fill-rule="evenodd" clip-rule="evenodd" d="M240.117 85.6733C237.465 85.7104 236.938 88.4565 236.938 88.4565C236.938 88.4565 236.326 85.7104 233.674 85.6733C231.022 85.6362 229.389 87.7514 230.287 89.978C231.185 92.2046 232.079 92.7056 233.488 94.3198C234.898 95.9341 236.948 98.7266 236.938 99.3853C236.928 98.7266 238.893 95.9341 240.302 94.3198C241.711 92.7056 242.606 92.2046 243.503 89.978C244.401 87.7514 242.769 85.6362 240.117 85.6733Z" fill="#EE3D3D"/>
<path fill-rule="evenodd" clip-rule="evenodd" d="M272.422 105.174C266.655 105.255 265.508 111.227 265.508 111.227C265.508 111.227 264.177 105.255 258.41 105.174C252.642 105.094 249.093 109.694 251.045 114.536C252.997 119.378 254.942 120.467 258.007 123.978C261.072 127.488 265.53 133.561 265.508 134.993C265.486 133.561 269.76 127.488 272.825 123.978C275.89 120.467 277.835 119.378 279.787 114.536C281.739 109.694 278.189 105.094 272.422 105.174Z" fill="#EE3D3D"/>
</g>
</g>
<g opacity="0.34" clip-path="url(#clip3_151_3885)">
<path d="M14.5501 20H86V43H14V20H14.5501ZM84.8999 21.1061H15.1003V41.894H84.8999V21.1061Z" fill="white" fill-opacity="0.2"/>
<path d="M42.0468 38.2447C42.3271 38.4693 44.0685 38.8085 45.1504 37.9384C45.1504 39.1127 43.6322 40.3426 42.4922 40.6681H48.1355V22.6664C45.7972 21.7086 43.0335 22.5863 42.0739 24.8505C41.3187 26.6327 41.7426 28.5293 43.3478 29.9623C43.4783 29.9974 44.0969 30.1044 44.7944 30.5758L43.988 31.3809C43.4865 31.1007 42.9025 30.9453 42.2444 30.9453C40.5308 30.9453 39.3047 32.2095 39.3047 34.0426C39.3047 35.8758 40.5308 37.1557 42.2444 37.1557C43.329 37.1557 44.2251 36.7765 44.8067 36.0812L45.514 36.808C44.7987 37.68 43.414 38.2116 42.0467 38.2446L42.0468 38.2447Z" fill="white" fill-opacity="0.2"/>
<path fill-rule="evenodd" clip-rule="evenodd" d="M44.6818 28.7842L43.3479 29.9625C43.3479 29.9625 39.0431 28.8863 38.0606 33.2282C38.0409 33.4954 37.7229 35.5944 39.1146 36.8497C38.4214 36.5729 37.4424 35.328 37.4424 33.5747C37.4424 29.226 42.2807 28.6684 43.2903 29.4421C43.0687 29.598 44.682 28.7843 44.682 28.7843L44.6818 28.7842Z" fill="white" fill-opacity="0.2"/>
<path d="M48.7993 33.4254L53.7614 29.6592V31.2408L50.2194 33.9291L53.7614 36.6173V38.1989L48.7993 34.4329L48.1357 33.9291L48.7993 33.4254Z" fill="white" fill-opacity="0.2"/>
<path d="M21.9487 27.1369H17.3115V38.1989H22.0117C24.5111 38.1989 25.9888 37.0769 25.9888 35.1963C25.9888 33.6793 25.0615 32.6363 23.4736 32.3991C24.7468 32.1305 25.5171 31.1983 25.5171 29.9023C25.5171 28.1639 24.1645 27.1368 21.9487 27.1368V27.1369ZM21.886 31.9251H18.5691V28.3062H21.886C23.3635 28.3062 24.2282 28.9543 24.2282 30.092C24.2282 31.2297 23.3628 31.9251 21.886 31.9251ZM21.886 37.0296H18.5691V33.0947H21.886C23.6781 33.0947 24.7156 33.8058 24.7156 35.0384C24.7156 36.271 23.6773 37.0296 21.886 37.0296ZM27.572 24.9092V38.1989H28.7982V24.9092H27.572ZM37.2977 38.1989L37.282 32.6995C37.2771 30.9295 36.1345 29.8392 34.091 29.8392C32.6762 29.8392 31.7803 30.25 30.7114 30.9613L31.2302 31.8304C32.0946 31.2141 32.9436 30.8665 33.8552 30.8665C35.3171 30.8665 36.0717 31.6095 36.0717 32.826V33.3475H33.3523C31.4033 33.3475 30.2554 34.28 30.2554 35.7338C30.2554 37.1876 31.3558 38.2464 33.0694 38.2464C34.3899 38.2464 35.4429 37.8038 36.1031 36.9031V38.199H37.2978L37.2977 38.1989ZM33.305 37.2192C32.1417 37.2192 31.4028 36.6029 31.4028 35.6863C31.4028 34.7696 32.126 34.3273 33.5092 34.3273H36.0872V35.3386C36.0872 36.5648 34.7039 37.2192 33.3048 37.2192H33.305ZM56.125 24.8604C55.6535 24.8604 55.2919 25.224 55.2919 25.7137C55.2919 26.2033 55.6533 26.5514 56.125 26.5514C56.5967 26.5514 56.9583 26.1877 56.9583 25.7137C56.9583 25.2396 56.6124 24.8604 56.125 24.8604ZM56.7381 38.556V28.0999H55.512V38.714C55.512 39.7562 55.0401 40.2406 54.3174 40.231C53.9094 40.2257 53.4841 40.073 53.1227 39.8044L52.6826 40.784C53.1541 41.1477 53.7672 41.3529 54.3647 41.3529C55.6535 41.3529 56.7383 40.468 56.7383 38.5558L56.7381 38.556ZM65.4941 38.1989L65.4782 32.6995C65.4734 30.9295 64.3308 29.8392 62.2873 29.8392C60.8725 29.8392 59.9765 30.25 58.9076 30.9613L59.4265 31.8304C60.2908 31.2141 61.1398 30.8665 62.0515 30.8665C63.5134 30.8665 64.268 31.6098 64.268 32.826V33.3475H61.5485C59.5999 33.3475 58.4516 34.28 58.4516 35.7338C58.4516 37.1876 59.5521 38.2464 61.2656 38.2464C62.5862 38.2464 63.6392 37.8038 64.2994 36.9031V38.199H65.4941V38.1989ZM61.5014 37.2192C60.3381 37.2192 59.5992 36.6029 59.5992 35.6863C59.5992 34.7696 60.3224 34.3273 61.7056 34.3273H64.2837V35.3386C64.2837 36.5646 62.9003 37.2192 61.5012 37.2192H61.5014ZM73.3378 31.9251L74.0138 31.0718C73.2591 30.2974 72.1588 29.8392 70.8227 29.8392C68.4334 29.8392 66.7199 31.5776 66.7199 34.0428C66.7199 36.508 68.4176 38.2462 70.8227 38.2462C72.2532 38.2462 73.4006 37.7089 74.1397 36.8082L73.4322 36.0813C72.8505 36.7766 71.9544 37.1559 70.8698 37.1559C69.1563 37.1559 67.9301 35.8917 67.9301 34.0428C67.9301 32.1939 69.1563 30.9455 70.8698 30.9455C71.8759 30.9455 72.709 31.3088 73.3379 31.9251H73.3378ZM77.0633 24.9092H75.8372V38.1989H77.0633C77.0633 22.9663 77.0633 33.0356 77.0633 24.9092Z" fill="white" fill-opacity="0.2"/>
<path d="M77.726 33.4254L82.6882 29.6592V38.1989L77.726 34.4327L77.0625 33.929L77.726 33.4252V33.4254Z" fill="white" fill-opacity="0.2"/>
</g>
<path fill-rule="evenodd" clip-rule="evenodd" d="M363.5 155.888L340.397 155.888L340.397 173.801L330.104 178.011L337.915 173.801L326.069 173.801L326.069 180L363.5 180L350.057 167.944L363.5 155.888ZM96.5 155.888L119.603 155.888L119.603 173.801L129.896 178.011L122.085 173.801L133.931 173.801L133.931 180L96.5 180L109.943 167.944L96.5 155.888ZM338.644 148L121.364 148L121.364 172.121L338.644 172.121L338.644 148.008L338.644 148Z" fill="#F4F7FD"/>
<path d="M157.014 155.432H160.938C161.79 155.432 162.462 155.636 162.942 156.044C163.386 156.428 163.614 156.944 163.614 157.592C163.614 158.072 163.494 158.48 163.266 158.816C163.038 159.128 162.714 159.356 162.282 159.524C162.846 159.632 163.266 159.86 163.554 160.208C163.83 160.544 163.974 161.012 163.974 161.588C163.974 162.452 163.674 163.088 163.086 163.496C162.582 163.832 161.862 164 160.95 164H157.014V155.432ZM158.418 156.584V159.032H160.566C161.166 159.032 161.586 158.924 161.838 158.732C162.078 158.528 162.21 158.204 162.21 157.76C162.21 157.352 162.078 157.052 161.838 156.872C161.574 156.68 161.166 156.584 160.59 156.584H158.418ZM158.418 160.184V162.848H160.746C161.274 162.848 161.694 162.764 161.994 162.596C162.378 162.38 162.57 162.044 162.57 161.564C162.57 161.072 162.426 160.724 162.15 160.508C161.862 160.292 161.406 160.184 160.782 160.184H158.418ZM165.299 155.432H166.691V162.8H171.323V164H165.299V155.432ZM174.837 155.432H176.433L179.709 164H178.209L177.429 161.852H173.841L173.061 164H171.561L174.837 155.432ZM174.261 160.7H177.009L175.665 156.944H175.617L174.261 160.7ZM184.265 155.264C185.273 155.264 186.113 155.528 186.761 156.056C187.385 156.56 187.757 157.256 187.889 158.12H186.521C186.377 157.556 186.113 157.148 185.717 156.884C185.333 156.62 184.841 156.5 184.241 156.5C183.341 156.5 182.669 156.8 182.213 157.424C181.793 157.976 181.589 158.744 181.589 159.728C181.589 160.736 181.793 161.516 182.201 162.056C182.645 162.632 183.341 162.932 184.277 162.932C184.889 162.932 185.393 162.776 185.777 162.488C186.185 162.164 186.473 161.672 186.641 161.024H188.009C187.817 162.032 187.373 162.812 186.665 163.376C186.005 163.904 185.213 164.168 184.289 164.168C182.861 164.168 181.793 163.712 181.097 162.824C180.485 162.056 180.185 161.024 180.185 159.728C180.185 158.456 180.497 157.412 181.133 156.62C181.853 155.708 182.897 155.264 184.265 155.264ZM194.722 155.432H196.498L192.73 159.104L197.062 164H195.166L191.782 160.028L190.738 161.048V164H189.334V155.432H190.738V159.476L194.722 155.432ZM197.901 155.432H199.305V164H197.901V155.432ZM203.419 155.432H205.015L208.291 164H206.791L206.011 161.852H202.423L201.643 164H200.143L203.419 155.432ZM202.843 160.7H205.591L204.247 156.944H204.199L202.843 160.7ZM212.847 155.264C213.855 155.264 214.695 155.528 215.343 156.056C215.967 156.56 216.339 157.256 216.471 158.12H215.103C214.959 157.556 214.695 157.148 214.299 156.884C213.915 156.62 213.423 156.5 212.823 156.5C211.923 156.5 211.251 156.8 210.795 157.424C210.375 157.976 210.171 158.744 210.171 159.728C210.171 160.736 210.375 161.516 210.783 162.056C211.227 162.632 211.923 162.932 212.859 162.932C213.471 162.932 213.975 162.776 214.359 162.488C214.767 162.164 215.055 161.672 215.223 161.024H216.591C216.399 162.032 215.955 162.812 215.247 163.376C214.587 163.904 213.795 164.168 212.871 164.168C211.443 164.168 210.375 163.712 209.679 162.824C209.067 162.056 208.767 161.024 208.767 159.728C208.767 158.456 209.079 157.412 209.715 156.62C210.435 155.708 211.479 155.264 212.847 155.264ZM223.304 155.432H225.08L221.312 159.104L225.644 164H223.748L220.364 160.028L219.32 161.048V164H217.916V155.432H219.32V159.476L223.304 155.432ZM230.479 155.432H234.031C236.095 155.432 237.139 156.308 237.139 158.06C237.139 159.824 236.095 160.712 234.007 160.712H231.883V164H230.479V155.432ZM231.883 156.632V159.512H233.923C234.547 159.512 235.003 159.392 235.291 159.176C235.579 158.948 235.723 158.576 235.723 158.06C235.723 157.544 235.567 157.184 235.279 156.968C234.991 156.74 234.535 156.632 233.923 156.632H231.883ZM240.778 155.432H242.374L245.65 164H244.15L243.37 161.852H239.782L239.002 164H237.502L240.778 155.432ZM240.202 160.7H242.95L241.606 156.944H241.558L240.202 160.7ZM245.706 155.432H247.398L249.798 159.284L252.186 155.432H253.878L250.494 160.592V164H249.09V160.592L245.706 155.432ZM257.807 155.264C258.815 155.264 259.607 155.468 260.171 155.888C260.771 156.332 261.119 157.028 261.203 157.964H259.811C259.691 157.436 259.463 157.052 259.151 156.824C258.839 156.584 258.359 156.476 257.735 156.476C257.195 156.476 256.787 156.548 256.499 156.704C256.139 156.884 255.971 157.184 255.971 157.592C255.971 157.952 256.163 158.252 256.571 158.468C256.751 158.564 257.243 158.744 258.035 158.996C259.199 159.356 259.943 159.644 260.279 159.836C261.023 160.28 261.395 160.892 261.395 161.684C261.395 162.452 261.095 163.064 260.495 163.508C259.895 163.94 259.043 164.168 257.951 164.168C256.895 164.168 256.067 163.964 255.479 163.556C254.759 163.052 254.363 162.26 254.303 161.168H255.695C255.791 161.816 256.019 162.284 256.391 162.56C256.727 162.8 257.243 162.932 257.951 162.932C258.575 162.932 259.079 162.824 259.439 162.62C259.799 162.404 259.991 162.128 259.991 161.768C259.991 161.312 259.715 160.952 259.187 160.688C259.019 160.604 258.467 160.412 257.519 160.124C256.463 159.788 255.803 159.548 255.551 159.404C254.891 159.008 254.567 158.432 254.567 157.676C254.567 156.92 254.879 156.32 255.527 155.888C256.127 155.468 256.883 155.264 257.807 155.264ZM269.44 155.264C270.304 155.264 271.012 155.468 271.54 155.888C272.056 156.308 272.32 156.884 272.32 157.628C272.32 158.564 271.84 159.188 270.892 159.5C271.396 159.656 271.792 159.884 272.056 160.196C272.344 160.52 272.488 160.94 272.488 161.444C272.488 162.236 272.212 162.884 271.66 163.388C271.084 163.904 270.328 164.168 269.392 164.168C268.504 164.168 267.784 163.94 267.244 163.484C266.644 162.98 266.308 162.236 266.236 161.276H267.664C267.688 161.828 267.856 162.26 268.192 162.56C268.492 162.836 268.888 162.98 269.38 162.98C269.92 162.98 270.352 162.824 270.664 162.524C270.94 162.248 271.084 161.912 271.084 161.504C271.084 161.012 270.928 160.652 270.64 160.424C270.352 160.184 269.932 160.076 269.38 160.076H268.78V159.02H269.38C269.884 159.02 270.268 158.912 270.532 158.696C270.784 158.48 270.916 158.156 270.916 157.736C270.916 157.316 270.796 157.004 270.568 156.788C270.316 156.572 269.944 156.464 269.452 156.464C268.948 156.464 268.564 156.584 268.288 156.836C268 157.088 267.832 157.472 267.784 157.988H266.404C266.476 157.124 266.788 156.452 267.364 155.972C267.904 155.492 268.6 155.264 269.44 155.264ZM277.127 155.432H284.147V156.632H281.339V164H279.935V156.632H277.127V155.432ZM288.974 155.264C290.282 155.264 291.314 155.684 292.07 156.536C292.79 157.34 293.15 158.408 293.15 159.728C293.15 161.048 292.79 162.104 292.07 162.908C291.314 163.748 290.282 164.168 288.974 164.168C287.654 164.168 286.622 163.736 285.878 162.896C285.158 162.08 284.81 161.024 284.81 159.728C284.81 158.42 285.158 157.364 285.878 156.548C286.622 155.684 287.654 155.264 288.974 155.264ZM288.974 156.5C288.086 156.5 287.402 156.8 286.91 157.4C286.442 157.976 286.214 158.744 286.214 159.728C286.214 160.7 286.442 161.468 286.91 162.044C287.39 162.632 288.086 162.932 288.974 162.932C289.862 162.932 290.546 162.644 291.026 162.08C291.494 161.516 291.734 160.736 291.734 159.728C291.734 158.72 291.494 157.928 291.026 157.352C290.546 156.776 289.862 156.5 288.974 156.5ZM301.363 155.264C302.191 155.264 302.875 155.504 303.415 155.984C303.943 156.464 304.207 157.076 304.207 157.844C304.207 158.588 303.919 159.26 303.367 159.872C303.031 160.232 302.431 160.688 301.591 161.252C300.715 161.828 300.187 162.332 299.995 162.764H304.219V164H298.243C298.243 163.124 298.519 162.368 299.095 161.72C299.407 161.36 300.067 160.832 301.063 160.148C301.615 159.764 301.999 159.44 302.239 159.188C302.611 158.768 302.803 158.312 302.803 157.832C302.803 157.364 302.671 157.016 302.431 156.788C302.179 156.56 301.807 156.452 301.315 156.452C300.787 156.452 300.391 156.632 300.127 156.992C299.863 157.328 299.719 157.844 299.695 158.516H298.291C298.303 157.556 298.579 156.788 299.131 156.2C299.695 155.576 300.439 155.264 301.363 155.264Z" fill="#B8BECB"/>
<path d="M157.74 183.432H159.144V192H157.74V183.432ZM160.822 183.432H162.226L166.462 189.612H166.51V183.432H167.926V192H166.558L162.274 185.736H162.226V192H160.822V183.432ZM172.635 183.264C173.643 183.264 174.435 183.468 174.999 183.888C175.599 184.332 175.947 185.028 176.031 185.964H174.639C174.519 185.436 174.291 185.052 173.979 184.824C173.667 184.584 173.187 184.476 172.563 184.476C172.023 184.476 171.615 184.548 171.327 184.704C170.967 184.884 170.799 185.184 170.799 185.592C170.799 185.952 170.991 186.252 171.399 186.468C171.579 186.564 172.071 186.744 172.863 186.996C174.027 187.356 174.771 187.644 175.107 187.836C175.851 188.28 176.223 188.892 176.223 189.684C176.223 190.452 175.923 191.064 175.323 191.508C174.723 191.94 173.871 192.168 172.779 192.168C171.723 192.168 170.895 191.964 170.307 191.556C169.587 191.052 169.191 190.26 169.131 189.168H170.523C170.619 189.816 170.847 190.284 171.219 190.56C171.555 190.8 172.071 190.932 172.779 190.932C173.403 190.932 173.907 190.824 174.267 190.62C174.627 190.404 174.819 190.128 174.819 189.768C174.819 189.312 174.543 188.952 174.015 188.688C173.847 188.604 173.295 188.412 172.347 188.124C171.291 187.788 170.631 187.548 170.379 187.404C169.719 187.008 169.395 186.432 169.395 185.676C169.395 184.92 169.707 184.32 170.355 183.888C170.955 183.468 171.711 183.264 172.635 183.264ZM177.428 183.432H178.832V188.772C178.832 189.516 179 190.056 179.348 190.416C179.684 190.764 180.236 190.944 180.992 190.944C181.736 190.944 182.288 190.764 182.636 190.416C182.972 190.056 183.152 189.516 183.152 188.772V183.432H184.556V188.748C184.556 189.864 184.244 190.716 183.62 191.304C182.996 191.88 182.12 192.168 180.992 192.168C179.852 192.168 178.976 191.88 178.376 191.316C177.74 190.716 177.428 189.864 177.428 188.748V183.432ZM186.24 183.432H190.056C190.932 183.432 191.628 183.624 192.132 184.02C192.66 184.452 192.936 185.076 192.936 185.892C192.936 186.336 192.816 186.732 192.576 187.08C192.312 187.464 191.94 187.716 191.484 187.836V187.86C192.228 188.028 192.648 188.52 192.744 189.36L192.888 190.74C192.936 191.268 193.116 191.688 193.404 192H191.88C191.676 191.736 191.556 191.364 191.508 190.884L191.4 189.828C191.352 189.36 191.208 189.024 190.968 188.82C190.716 188.604 190.344 188.508 189.864 188.508H187.644V192H186.24V183.432ZM187.644 184.632V187.308H189.864C190.416 187.308 190.836 187.188 191.124 186.96C191.388 186.72 191.52 186.384 191.52 185.952C191.52 185.484 191.388 185.148 191.124 184.944C190.86 184.728 190.44 184.632 189.864 184.632H187.644ZM197.044 183.432H198.64L201.916 192H200.416L199.636 189.852H196.048L195.268 192H193.768L197.044 183.432ZM196.468 188.7H199.216L197.872 184.944H197.824L196.468 188.7ZM202.752 183.432H204.156L208.392 189.612H208.44V183.432H209.856V192H208.488L204.204 185.736H204.156V192H202.752V183.432ZM215.261 183.264C216.269 183.264 217.109 183.528 217.757 184.056C218.381 184.56 218.753 185.256 218.885 186.12H217.517C217.373 185.556 217.109 185.148 216.713 184.884C216.329 184.62 215.837 184.5 215.237 184.5C214.337 184.5 213.665 184.8 213.209 185.424C212.789 185.976 212.585 186.744 212.585 187.728C212.585 188.736 212.789 189.516 213.197 190.056C213.641 190.632 214.337 190.932 215.273 190.932C215.885 190.932 216.389 190.776 216.773 190.488C217.181 190.164 217.469 189.672 217.637 189.024H219.005C218.813 190.032 218.369 190.812 217.661 191.376C217.001 191.904 216.209 192.168 215.285 192.168C213.857 192.168 212.789 191.712 212.093 190.824C211.481 190.056 211.181 189.024 211.181 187.728C211.181 186.456 211.493 185.412 212.129 184.62C212.849 183.708 213.893 183.264 215.261 183.264ZM220.33 183.432H226.51V184.632H221.734V187.008H226.222V188.208H221.734V190.8H226.714V192H220.33V183.432ZM232.026 183.432H235.578C237.642 183.432 238.686 184.308 238.686 186.06C238.686 187.824 237.642 188.712 235.554 188.712H233.43V192H232.026V183.432ZM233.43 184.632V187.512H235.47C236.094 187.512 236.55 187.392 236.838 187.176C237.126 186.948 237.27 186.576 237.27 186.06C237.27 185.544 237.114 185.184 236.826 184.968C236.538 184.74 236.082 184.632 235.47 184.632H233.43ZM242.325 183.432H243.921L247.197 192H245.697L244.917 189.852H241.329L240.549 192H239.049L242.325 183.432ZM241.749 188.7H244.497L243.153 184.944H243.105L241.749 188.7ZM247.253 183.432H248.945L251.345 187.284L253.733 183.432H255.425L252.041 188.592V192H250.637V188.592L247.253 183.432ZM259.354 183.264C260.362 183.264 261.154 183.468 261.718 183.888C262.318 184.332 262.666 185.028 262.75 185.964H261.358C261.238 185.436 261.01 185.052 260.698 184.824C260.386 184.584 259.906 184.476 259.282 184.476C258.742 184.476 258.334 184.548 258.046 184.704C257.686 184.884 257.518 185.184 257.518 185.592C257.518 185.952 257.71 186.252 258.118 186.468C258.298 186.564 258.79 186.744 259.582 186.996C260.746 187.356 261.49 187.644 261.826 187.836C262.57 188.28 262.942 188.892 262.942 189.684C262.942 190.452 262.642 191.064 262.042 191.508C261.442 191.94 260.59 192.168 259.498 192.168C258.442 192.168 257.614 191.964 257.026 191.556C256.306 191.052 255.91 190.26 255.85 189.168H257.242C257.338 189.816 257.566 190.284 257.938 190.56C258.274 190.8 258.79 190.932 259.498 190.932C260.122 190.932 260.626 190.824 260.986 190.62C261.346 190.404 261.538 190.128 261.538 189.768C261.538 189.312 261.262 188.952 260.734 188.688C260.566 188.604 260.014 188.412 259.066 188.124C258.01 187.788 257.35 187.548 257.098 187.404C256.438 187.008 256.114 186.432 256.114 185.676C256.114 184.92 256.426 184.32 257.074 183.888C257.674 183.468 258.43 183.264 259.354 183.264ZM271.035 183.264C271.863 183.264 272.547 183.504 273.087 183.984C273.615 184.464 273.879 185.076 273.879 185.844C273.879 186.588 273.591 187.26 273.039 187.872C272.703 188.232 272.103 188.688 271.263 189.252C270.387 189.828 269.859 190.332 269.667 190.764H273.891V192H267.915C267.915 191.124 268.191 190.368 268.767 189.72C269.079 189.36 269.739 188.832 270.735 188.148C271.287 187.764 271.671 187.44 271.911 187.188C272.283 186.768 272.475 186.312 272.475 185.832C272.475 185.364 272.343 185.016 272.103 184.788C271.851 184.56 271.479 184.452 270.987 184.452C270.459 184.452 270.063 184.632 269.799 184.992C269.535 185.328 269.391 185.844 269.367 186.516H267.963C267.975 185.556 268.251 184.788 268.803 184.2C269.367 183.576 270.111 183.264 271.035 183.264ZM278.674 183.432H285.694V184.632H282.886V192H281.482V184.632H278.674V183.432ZM290.521 183.264C291.829 183.264 292.861 183.684 293.617 184.536C294.337 185.34 294.697 186.408 294.697 187.728C294.697 189.048 294.337 190.104 293.617 190.908C292.861 191.748 291.829 192.168 290.521 192.168C289.201 192.168 288.169 191.736 287.425 190.896C286.705 190.08 286.357 189.024 286.357 187.728C286.357 186.42 286.705 185.364 287.425 184.548C288.169 183.684 289.201 183.264 290.521 183.264ZM290.521 184.5C289.633 184.5 288.949 184.8 288.457 185.4C287.989 185.976 287.761 186.744 287.761 187.728C287.761 188.7 287.989 189.468 288.457 190.044C288.937 190.632 289.633 190.932 290.521 190.932C291.409 190.932 292.093 190.644 292.573 190.08C293.041 189.516 293.281 188.736 293.281 187.728C293.281 186.72 293.041 185.928 292.573 185.352C292.093 184.776 291.409 184.5 290.521 184.5ZM301.962 183.432H303.018V192H301.614V185.124C301.098 185.592 300.45 185.94 299.658 186.168V184.776C300.042 184.68 300.45 184.512 300.882 184.272C301.314 184.008 301.674 183.732 301.962 183.432Z" fill="#B8BECB"/>
<rect x="230.5" y="204" width="56" height="21" rx="10.5" fill="#15C600"/>
<path d="M255.606 209.08C256.626 209.08 257.481 209.365 258.141 209.965C258.786 210.565 259.116 211.33 259.116 212.275C259.116 213.205 258.756 214.045 258.066 214.81C257.646 215.245 256.911 215.815 255.846 216.535C254.691 217.3 254.001 217.975 253.776 218.56H259.131V220H251.751C251.751 218.935 252.096 218.005 252.816 217.195C253.206 216.73 254.016 216.085 255.231 215.245C255.951 214.735 256.461 214.33 256.761 214.015C257.241 213.475 257.496 212.89 257.496 212.26C257.496 211.66 257.331 211.21 257.001 210.91C256.671 210.61 256.176 210.46 255.546 210.46C254.871 210.46 254.361 210.685 254.016 211.15C253.656 211.6 253.476 212.245 253.446 213.115H251.811C251.826 211.915 252.171 210.955 252.846 210.235C253.536 209.455 254.466 209.08 255.606 209.08ZM263.416 209.29H264.646V220H263.011V211.255C262.366 211.87 261.541 212.32 260.551 212.605V210.985C261.031 210.865 261.526 210.655 262.066 210.355C262.606 210.025 263.056 209.68 263.416 209.29Z" fill="white"/>
<g filter="url(#filter3_d_151_3885)">
<rect x="177.296" y="225.296" width="58.5753" height="82.2421" rx="9.17088" fill="white" stroke="#55657E" stroke-width="0.591669" stroke-dasharray="4.73 4.73"/>
<g clip-path="url(#clip4_151_3885)">
<rect x="177" y="225" width="59.1669" height="82.8337" rx="7.10003" fill="url(#paint3_linear_151_3885)"/>
<path d="M187.474 240.968L184.907 240.354L185.834 232.119H194.962V234.719H188.478L188.077 238.323C188.292 238.197 188.62 238.063 189.059 237.922C189.497 237.773 189.989 237.698 190.532 237.698C191.32 237.698 192.019 237.821 192.63 238.067C193.24 238.312 193.757 238.669 194.181 239.138C194.612 239.607 194.939 240.18 195.163 240.857C195.386 241.534 195.497 242.3 195.497 243.155C195.497 243.877 195.386 244.565 195.163 245.22C194.939 245.867 194.601 246.447 194.147 246.961C193.693 247.467 193.124 247.865 192.44 248.155C191.755 248.445 190.944 248.59 190.007 248.59C189.308 248.59 188.631 248.486 187.976 248.277C187.329 248.069 186.745 247.76 186.224 247.351C185.711 246.942 185.298 246.447 184.985 245.867C184.68 245.279 184.52 244.61 184.506 243.858H187.697C187.742 244.32 187.861 244.718 188.054 245.052C188.255 245.38 188.519 245.633 188.847 245.811C189.174 245.99 189.557 246.079 189.996 246.079C190.405 246.079 190.755 246.001 191.045 245.845C191.335 245.688 191.569 245.473 191.748 245.197C191.926 244.915 192.057 244.587 192.139 244.215C192.228 243.836 192.272 243.427 192.272 242.988C192.272 242.549 192.22 242.151 192.116 241.794C192.012 241.437 191.852 241.128 191.636 240.868C191.421 240.607 191.145 240.406 190.811 240.265C190.483 240.124 190.1 240.053 189.661 240.053C189.066 240.053 188.605 240.146 188.277 240.332C187.958 240.518 187.69 240.73 187.474 240.968Z" fill="#242424"/>
<path fill-rule="evenodd" clip-rule="evenodd" d="M192.964 265.836C195.49 265.864 197.044 264.246 196.189 262.543C195.335 260.839 194.483 260.456 193.141 259.221C191.798 257.986 189.846 255.85 189.855 255.346C189.865 255.85 187.994 257.986 186.651 259.221C185.309 260.456 184.458 260.839 183.602 262.543C182.748 264.246 184.302 265.864 186.828 265.836C188.562 265.816 189.342 264.82 189.66 264.198L189.66 265.013C189.66 265.013 189.107 267.952 185.2 268.274L184.577 268.274L184.577 268.732L195.215 268.732L195.215 268.274L194.592 268.274C190.686 267.952 190.132 265.013 190.132 265.013L190.132 264.305C190.507 264.928 191.326 265.817 192.964 265.836Z" fill="#242424"/>
<path fill-rule="evenodd" clip-rule="evenodd" d="M225.089 297.275C230.583 297.337 233.962 293.818 232.103 290.114C230.244 286.409 228.391 285.576 225.473 282.89C222.554 280.205 218.309 275.559 218.329 274.463C218.35 275.559 214.28 280.205 211.36 282.89C208.442 285.576 206.591 286.409 204.73 290.114C202.872 293.818 206.252 297.337 211.745 297.275C215.515 297.233 217.212 295.067 217.904 293.713L217.904 295.485C217.904 295.485 216.701 301.878 208.204 302.577L206.85 302.577L206.85 303.574L229.985 303.574L229.985 302.577L228.629 302.577C220.135 301.878 218.929 295.485 218.929 295.485L218.929 293.945C219.745 295.301 221.528 297.235 225.089 297.275Z" fill="#242424"/>
</g>
<rect x="177.5" y="225.5" width="58.1669" height="81.8337" rx="6.60003" stroke="#15C600"/>
</g>
<g filter="url(#filter4_d_151_3885)">
<rect x="201.296" y="237.296" width="58.5753" height="82.2421" rx="9.17088" fill="white" stroke="#55657E" stroke-width="0.591669" stroke-dasharray="4.73 4.73"/>
<g clip-path="url(#clip5_151_3885)">
<rect x="201" y="237" width="59.1669" height="82.8337" rx="7.10003" fill="url(#paint4_linear_151_3885)"/>
<path d="M211.474 252.968L208.907 252.354L209.834 244.119H218.962V246.719H212.478L212.077 250.323C212.292 250.197 212.62 250.063 213.059 249.922C213.497 249.773 213.989 249.698 214.532 249.698C215.32 249.698 216.019 249.821 216.63 250.067C217.24 250.312 217.757 250.669 218.181 251.138C218.612 251.607 218.939 252.18 219.163 252.857C219.386 253.534 219.497 254.3 219.497 255.155C219.497 255.877 219.386 256.565 219.163 257.22C218.939 257.867 218.601 258.447 218.147 258.961C217.693 259.467 217.124 259.865 216.44 260.155C215.755 260.445 214.944 260.59 214.007 260.59C213.308 260.59 212.631 260.486 211.976 260.277C211.329 260.069 210.745 259.76 210.224 259.351C209.711 258.942 209.298 258.447 208.985 257.867C208.68 257.279 208.52 256.61 208.506 255.858H211.697C211.742 256.32 211.861 256.718 212.054 257.052C212.255 257.38 212.519 257.633 212.847 257.811C213.174 257.99 213.557 258.079 213.996 258.079C214.405 258.079 214.755 258.001 215.045 257.845C215.335 257.688 215.569 257.473 215.748 257.197C215.926 256.915 216.057 256.587 216.139 256.215C216.228 255.836 216.272 255.427 216.272 254.988C216.272 254.549 216.22 254.151 216.116 253.794C216.012 253.437 215.852 253.128 215.636 252.868C215.421 252.607 215.145 252.406 214.811 252.265C214.483 252.124 214.1 252.053 213.661 252.053C213.066 252.053 212.605 252.146 212.277 252.332C211.958 252.518 211.69 252.73 211.474 252.968Z" fill="#EE3D3D"/>
<path fill-rule="evenodd" clip-rule="evenodd" d="M217.117 267.673C214.465 267.71 213.938 270.457 213.938 270.457C213.938 270.457 213.326 267.71 210.674 267.673C208.022 267.636 206.389 269.751 207.287 271.978C208.185 274.205 209.079 274.706 210.488 276.32C211.898 277.934 213.948 280.727 213.938 281.385C213.928 280.727 215.893 277.934 217.302 276.32C218.711 274.706 219.606 274.205 220.503 271.978C221.401 269.751 219.769 267.636 217.117 267.673Z" fill="#EE3D3D"/>
<path fill-rule="evenodd" clip-rule="evenodd" d="M249.423 287.174C243.656 287.255 242.509 293.227 242.509 293.227C242.509 293.227 241.178 287.255 235.411 287.174C229.643 287.094 226.094 291.694 228.046 296.536C229.998 301.378 231.943 302.467 235.008 305.978C238.073 309.488 242.531 315.561 242.509 316.993C242.487 315.561 246.761 309.488 249.826 305.978C252.891 302.467 254.836 301.378 256.788 296.536C258.74 291.694 255.19 287.094 249.423 287.174Z" fill="#EE3D3D"/>
</g>
<rect x="201.5" y="237.5" width="58.1669" height="81.8337" rx="6.60003" stroke="#15C600"/>
</g>
<g filter="url(#filter5_d_151_3885)">
<rect x="224.296" y="248.296" width="58.5753" height="82.2421" rx="9.17088" fill="white" stroke="#55657E" stroke-width="0.591669" stroke-dasharray="4.73 4.73"/>
<g clip-path="url(#clip6_151_3885)">
<rect x="224" y="248" width="59.1669" height="82.8337" rx="7.10003" fill="url(#paint5_linear_151_3885)"/>
<path d="M237.275 257.898L232.856 271.367H229.296L235.333 255.119H237.599L237.275 257.898ZM240.946 271.367L236.516 257.898L236.159 255.119H238.447L244.517 271.367H240.946ZM240.745 265.318V267.941H232.164V265.318H240.745Z" fill="#EE3D3D"/>
<path fill-rule="evenodd" clip-rule="evenodd" d="M240.117 278.673C237.465 278.71 236.938 281.457 236.938 281.457C236.938 281.457 236.326 278.71 233.674 278.673C231.022 278.636 229.389 280.751 230.287 282.978C231.185 285.205 232.079 285.706 233.488 287.32C234.898 288.934 236.948 291.727 236.938 292.385C236.928 291.727 238.893 288.934 240.302 287.32C241.711 285.706 242.606 285.205 243.503 282.978C244.401 280.751 242.769 278.636 240.117 278.673Z" fill="#EE3D3D"/>
<path fill-rule="evenodd" clip-rule="evenodd" d="M272.422 298.174C266.655 298.255 265.508 304.227 265.508 304.227C265.508 304.227 264.177 298.255 258.41 298.174C252.642 298.094 249.093 302.694 251.045 307.536C252.997 312.378 254.942 313.467 258.007 316.978C261.072 320.488 265.53 326.561 265.508 327.993C265.486 326.561 269.76 320.488 272.825 316.978C275.89 313.467 277.835 312.378 279.787 307.536C281.739 302.694 278.189 298.094 272.422 298.174Z" fill="#EE3D3D"/>
</g>
<rect x="224.5" y="248.5" width="58.1669" height="81.8337" rx="6.60003" stroke="#15C600"/>
</g>
<g clip-path="url(#clip7_151_3885)">
<path d="M365.833 -39.5835C365.833 -43.4495 368.967 -46.5835 372.833 -46.5835H417.166C421.032 -46.5835 424.166 -43.4495 424.166 -39.5835V30.9998C424.166 34.8658 421.032 37.9998 417.166 37.9998H372.833C368.967 37.9998 365.833 34.8658 365.833 30.9998V-39.5835Z" fill="#A0A0A0"/>
<path d="M365.833 -39.0002C365.833 -43.1883 369.228 -46.5835 373.416 -46.5835H416.583C420.771 -46.5835 424.166 -43.1883 424.166 -39.0002V18.8276C424.166 26.3019 421.032 32.361 417.166 32.361H372.833C368.967 32.361 365.833 26.3019 365.833 18.8276V-39.0002Z" fill="#ED5149"/>
<rect x="373.417" y="-9.83301" width="44.3333" height="11.0833" rx="5.54167" fill="white"/>
<g clip-path="url(#clip8_151_3885)">
<line x1="370.706" y1="-46.2062" x2="419.706" y2="2.79376" stroke="white" stroke-width="0.583333"/>
<line y1="-0.291667" x2="69.2965" y2="-0.291667" transform="matrix(-0.707107 0.707107 0.707107 0.707107 419.5 -46)" stroke="white" stroke-width="0.583333"/>
<line x1="354.372" y1="-46.2062" x2="403.372" y2="2.79376" stroke="white" stroke-width="0.583333"/>
<line y1="-0.291667" x2="69.2965" y2="-0.291667" transform="matrix(-0.707107 0.707107 0.707107 0.707107 403.167 -46)" stroke="white" stroke-width="0.583333"/>
<line x1="387.039" y1="-46.2062" x2="436.039" y2="2.79376" stroke="white" stroke-width="0.583333"/>
<line y1="-0.291667" x2="69.2965" y2="-0.291667" transform="matrix(-0.707107 0.707107 0.707107 0.707107 435.833 -46)" stroke="white" stroke-width="0.583333"/>
<line x1="354.372" y1="-13.5397" x2="403.372" y2="35.4603" stroke="white" stroke-width="0.583333"/>
<line y1="-0.291667" x2="69.2965" y2="-0.291667" transform="matrix(-0.707107 0.707107 0.707107 0.707107 403.167 -13.3335)" stroke="white" stroke-width="0.583333"/>
<line x1="387.039" y1="-13.5397" x2="436.039" y2="35.4603" stroke="white" stroke-width="0.583333"/>
<line y1="-0.291667" x2="69.2965" y2="-0.291667" transform="matrix(-0.707107 0.707107 0.707107 0.707107 435.833 -13.3335)" stroke="white" stroke-width="0.583333"/>
<line x1="370.706" y1="-14.7062" x2="419.706" y2="34.2938" stroke="white" stroke-width="0.583333"/>
<line y1="-0.291667" x2="69.2965" y2="-0.291667" transform="matrix(-0.707107 0.707107 0.707107 0.707107 419.5 -14.5)" stroke="white" stroke-width="0.583333"/>
</g>
<path d="M376.084 -1.13333C375.726 -1.13333 375.458 -1.19556 375.279 -1.32C375.108 -1.44444 375.022 -1.68167 375.022 -2.03167C375.022 -2.28833 375.069 -2.60722 375.162 -2.98833C375.225 -3.245 375.314 -3.57556 375.431 -3.98C375.555 -4.38444 375.695 -4.81222 375.851 -5.26333C376.014 -5.72222 376.181 -6.16556 376.352 -6.59333C376.523 -7.02889 376.691 -7.40222 376.854 -7.71333C377.056 -8.10222 377.216 -8.37445 377.332 -8.53C377.449 -8.69333 377.577 -8.79056 377.717 -8.82167C377.78 -8.83722 377.853 -8.84889 377.939 -8.85667C378.032 -8.86445 378.126 -8.86833 378.219 -8.86833C378.305 -8.86833 378.406 -8.86833 378.522 -8.86833C378.647 -8.86833 378.725 -8.87222 378.756 -8.88C378.608 -8.77111 378.425 -8.53778 378.207 -8.18C377.99 -7.83 377.764 -7.40611 377.531 -6.90833C377.297 -6.41056 377.076 -5.88556 376.866 -5.33333C376.656 -4.78111 376.485 -4.24833 376.352 -3.735C376.477 -3.95278 376.605 -4.16278 376.737 -4.365C376.87 -4.56722 376.998 -4.74611 377.122 -4.90167C377.371 -5.205 377.636 -5.45778 377.916 -5.66C378.196 -5.86222 378.468 -5.96333 378.732 -5.96333C378.958 -5.96333 379.145 -5.88167 379.292 -5.71833C379.448 -5.555 379.526 -5.27889 379.526 -4.89C379.526 -4.47778 379.436 -4.06167 379.257 -3.64167C379.078 -3.22944 378.849 -2.85222 378.569 -2.51C378.577 -2.38556 378.616 -2.28056 378.686 -2.195C378.756 -2.11722 378.845 -2.07833 378.954 -2.07833C379.063 -2.07833 379.172 -2.11722 379.281 -2.195C379.397 -2.27278 379.506 -2.37389 379.607 -2.49833C379.716 -2.62278 379.817 -2.74333 379.911 -2.86C380.066 -3.06222 380.214 -3.28 380.354 -3.51333C380.502 -3.74667 380.626 -3.96056 380.727 -4.155C380.766 -4.21722 380.793 -4.24833 380.809 -4.24833C380.856 -4.24833 380.879 -4.18222 380.879 -4.05C380.879 -3.98778 380.867 -3.91778 380.844 -3.84C380.828 -3.76222 380.801 -3.68444 380.762 -3.60667C380.669 -3.45111 380.56 -3.26833 380.436 -3.05833C380.311 -2.84833 380.171 -2.64222 380.016 -2.44C379.868 -2.23778 379.705 -2.06278 379.526 -1.915C379.355 -1.775 379.168 -1.68556 378.966 -1.64667C378.95 -1.64667 378.931 -1.64278 378.907 -1.635C378.884 -1.635 378.865 -1.635 378.849 -1.635C378.717 -1.635 378.588 -1.67389 378.464 -1.75167C378.34 -1.82944 378.25 -1.94222 378.196 -2.09C378.102 -1.99667 378.009 -1.91111 377.916 -1.83333C377.822 -1.75556 377.729 -1.68167 377.636 -1.61167C377.418 -1.46389 377.185 -1.34722 376.936 -1.26167C376.687 -1.17611 376.403 -1.13333 376.084 -1.13333ZM376.352 -1.55333C376.485 -1.55333 376.636 -1.61944 376.807 -1.75167C376.986 -1.89167 377.157 -2.06278 377.321 -2.265C377.492 -2.475 377.636 -2.67722 377.752 -2.87167C377.931 -3.175 378.083 -3.49 378.207 -3.81667C378.332 -4.14333 378.394 -4.41556 378.394 -4.63333C378.394 -4.82778 378.336 -4.94056 378.219 -4.97167C378.203 -4.97945 378.184 -4.98333 378.161 -4.98333C378.137 -4.98333 378.118 -4.98333 378.102 -4.98333C377.947 -4.98333 377.772 -4.90556 377.577 -4.75C377.437 -4.64111 377.278 -4.48167 377.099 -4.27167C376.92 -4.06167 376.745 -3.82444 376.574 -3.56C376.411 -3.30333 376.275 -3.04278 376.166 -2.77833C376.065 -2.51389 376.014 -2.26889 376.014 -2.04333C376.014 -2.01222 376.014 -1.97722 376.014 -1.93833C376.022 -1.89944 376.03 -1.86056 376.037 -1.82167C376.076 -1.64278 376.181 -1.55333 376.352 -1.55333ZM380.93 -1.18C380.712 -1.18 380.549 -1.25778 380.44 -1.41333C380.331 -1.57667 380.277 -1.79444 380.277 -2.06667C380.277 -2.10556 380.277 -2.14444 380.277 -2.18333C380.277 -2.22222 380.28 -2.26111 380.288 -2.3C380.327 -2.59556 380.393 -2.93 380.487 -3.30333C380.588 -3.67667 380.704 -4.06944 380.837 -4.48167C380.914 -4.715 381.012 -5.00667 381.128 -5.35667C381.253 -5.71445 381.397 -6.09556 381.56 -6.5C381.723 -6.91222 381.902 -7.32056 382.097 -7.725C382.299 -8.12945 382.52 -8.495 382.762 -8.82167C383.003 -9.15611 383.255 -9.42445 383.52 -9.62667C383.792 -9.82889 384.08 -9.93 384.383 -9.93C384.632 -9.93 384.803 -9.86778 384.897 -9.74333C384.99 -9.62667 385.037 -9.48667 385.037 -9.32333C385.037 -9.15222 385.005 -8.97722 384.943 -8.79833C384.881 -8.62722 384.819 -8.48333 384.757 -8.36667C384.617 -8.08667 384.434 -7.77167 384.208 -7.42167C383.983 -7.07167 383.745 -6.745 383.497 -6.44167C383.349 -6.24722 383.166 -6.02945 382.948 -5.78833C382.73 -5.54722 382.524 -5.32556 382.33 -5.12333C382.143 -4.92111 382.007 -4.78111 381.922 -4.70333L381.735 -4.16667C381.68 -4.01889 381.626 -3.84389 381.572 -3.64167C381.525 -3.43944 381.482 -3.23722 381.443 -3.035C381.412 -2.84056 381.385 -2.66944 381.362 -2.52167C381.354 -2.49056 381.35 -2.45944 381.35 -2.42833C381.35 -2.39722 381.35 -2.37 381.35 -2.34667C381.35 -2.11333 381.439 -1.99667 381.618 -1.99667C381.727 -1.99667 381.863 -2.04722 382.027 -2.14833C382.182 -2.24167 382.33 -2.36222 382.47 -2.51C382.618 -2.66556 382.723 -2.78222 382.785 -2.86C382.94 -3.06222 383.088 -3.27611 383.228 -3.50167C383.368 -3.735 383.489 -3.94889 383.59 -4.14333C383.629 -4.20556 383.656 -4.23667 383.672 -4.23667C383.718 -4.23667 383.742 -4.17056 383.742 -4.03833C383.742 -3.97611 383.73 -3.90222 383.707 -3.81667C383.691 -3.73889 383.664 -3.665 383.625 -3.595C383.516 -3.40833 383.388 -3.20222 383.24 -2.97667C383.092 -2.75111 382.94 -2.53333 382.785 -2.32333C382.668 -2.16778 382.505 -2.00056 382.295 -1.82167C382.085 -1.64278 381.859 -1.49111 381.618 -1.36667C381.377 -1.24222 381.148 -1.18 380.93 -1.18ZM382.155 -5.36833C382.544 -5.82722 382.937 -6.31722 383.333 -6.83833C383.738 -7.36722 384.072 -7.90389 384.337 -8.44833C384.352 -8.48722 384.387 -8.565 384.442 -8.68167C384.496 -8.79833 384.547 -8.92667 384.593 -9.06667C384.64 -9.21445 384.663 -9.33889 384.663 -9.44C384.663 -9.57222 384.613 -9.63833 384.512 -9.63833H384.43C384.329 -9.63833 384.208 -9.56833 384.068 -9.42833C383.936 -9.28833 383.8 -9.10167 383.66 -8.86833C383.481 -8.57278 383.306 -8.23056 383.135 -7.84167C382.964 -7.46056 382.797 -7.05611 382.633 -6.62833C382.47 -6.20056 382.31 -5.78056 382.155 -5.36833ZM386.752 -1.18C386.511 -1.18 386.344 -1.27333 386.251 -1.46C386.165 -1.64667 386.122 -1.87611 386.122 -2.14833C386.122 -2.39722 386.146 -2.64222 386.192 -2.88333C386.216 -2.99222 386.239 -3.10111 386.262 -3.21C386.293 -3.32667 386.328 -3.44722 386.367 -3.57167C386.235 -3.33056 386.095 -3.09722 385.947 -2.87167C385.807 -2.64611 385.663 -2.44778 385.516 -2.27667C385.267 -1.97333 385.002 -1.72056 384.722 -1.51833C384.45 -1.31611 384.178 -1.215 383.906 -1.215C383.688 -1.215 383.501 -1.29278 383.346 -1.44833C383.198 -1.61167 383.124 -1.89167 383.124 -2.28833C383.124 -2.69278 383.194 -3.10889 383.334 -3.53667C383.474 -3.96444 383.668 -4.36111 383.917 -4.72667C384.174 -5.1 384.473 -5.39945 384.816 -5.625C385.166 -5.85056 385.547 -5.96333 385.959 -5.96333C386.091 -5.96333 386.235 -5.94389 386.391 -5.905C386.546 -5.86611 386.69 -5.79222 386.822 -5.68333C386.955 -5.58222 387.044 -5.43833 387.091 -5.25167C387.098 -5.26722 387.106 -5.27889 387.114 -5.28667C387.13 -5.29444 387.141 -5.30222 387.149 -5.31C387.258 -5.48111 387.382 -5.625 387.522 -5.74167C387.662 -5.85833 387.818 -5.91667 387.989 -5.91667C388.075 -5.91667 388.195 -5.91278 388.351 -5.905C388.506 -5.89722 388.619 -5.89722 388.689 -5.905C388.65 -5.87389 388.596 -5.81167 388.526 -5.71833C388.463 -5.625 388.405 -5.52778 388.351 -5.42667C388.296 -5.33333 388.253 -5.25945 388.222 -5.205C388.012 -4.80056 387.822 -4.4 387.651 -4.00333C387.48 -3.60667 387.347 -3.22556 387.254 -2.86C387.231 -2.78222 387.215 -2.70833 387.207 -2.63833C387.2 -2.57611 387.196 -2.51389 387.196 -2.45167C387.196 -2.24944 387.262 -2.14833 387.394 -2.14833C387.518 -2.14833 387.674 -2.22611 387.861 -2.38167C388.133 -2.59944 388.37 -2.87167 388.572 -3.19833C388.782 -3.525 388.965 -3.84 389.121 -4.14333C389.152 -4.19778 389.179 -4.225 389.202 -4.225C389.249 -4.225 389.272 -4.15889 389.272 -4.02667C389.272 -3.96444 389.261 -3.89444 389.237 -3.81667C389.222 -3.73889 389.195 -3.665 389.156 -3.595C389.047 -3.40833 388.903 -3.17889 388.724 -2.90667C388.553 -2.63444 388.358 -2.36611 388.141 -2.10167C387.923 -1.845 387.693 -1.62722 387.452 -1.44833C387.219 -1.26944 386.986 -1.18 386.752 -1.18ZM384.431 -2.195C384.454 -2.18722 384.489 -2.18333 384.536 -2.18333C384.683 -2.18333 384.843 -2.24556 385.014 -2.37C385.185 -2.49444 385.356 -2.65389 385.527 -2.84833C385.698 -3.05056 385.85 -3.25278 385.982 -3.455C386.325 -3.99944 386.577 -4.40778 386.741 -4.68C386.904 -4.95222 386.997 -5.10778 387.021 -5.14667C386.982 -5.27889 386.912 -5.37611 386.811 -5.43833C386.717 -5.50056 386.605 -5.53167 386.472 -5.53167C386.301 -5.53167 386.118 -5.485 385.924 -5.39167C385.737 -5.29833 385.578 -5.18556 385.446 -5.05333C385.243 -4.85111 385.049 -4.59056 384.862 -4.27167C384.683 -3.95278 384.536 -3.63778 384.419 -3.32667C384.31 -3.01556 384.256 -2.755 384.256 -2.545C384.256 -2.35056 384.314 -2.23389 384.431 -2.195ZM390.225 -1.13333C389.859 -1.13333 389.564 -1.19944 389.338 -1.33167C389.113 -1.47167 388.949 -1.65444 388.848 -1.88C388.755 -2.11333 388.708 -2.36222 388.708 -2.62667C388.708 -2.89111 388.747 -3.15944 388.825 -3.43167C388.903 -3.70389 389.008 -3.96056 389.14 -4.20167C389.412 -4.69167 389.747 -5.09611 390.143 -5.415C390.548 -5.73389 391.042 -5.89333 391.625 -5.89333C391.991 -5.89333 392.274 -5.8 392.477 -5.61333C392.679 -5.42667 392.78 -5.20889 392.78 -4.96C392.78 -4.72667 392.71 -4.51278 392.57 -4.31833C392.438 -4.12389 392.259 -4.02667 392.033 -4.02667C391.909 -4.02667 391.8 -4.06167 391.707 -4.13167C391.613 -4.20167 391.567 -4.31056 391.567 -4.45833C391.567 -4.48167 391.567 -4.505 391.567 -4.52833C391.574 -4.55945 391.582 -4.59056 391.59 -4.62167C391.637 -4.62944 391.703 -4.64111 391.788 -4.65667C391.882 -4.68 391.956 -4.73445 392.01 -4.82C392.111 -4.96 392.162 -5.1 392.162 -5.24C392.162 -5.32556 392.134 -5.39556 392.08 -5.45C392.033 -5.51222 391.952 -5.54333 391.835 -5.54333C391.625 -5.54333 391.411 -5.46556 391.193 -5.31C390.976 -5.16222 390.769 -4.96389 390.575 -4.715C390.388 -4.46611 390.225 -4.19389 390.085 -3.89833C389.867 -3.42389 389.758 -2.98833 389.758 -2.59167C389.758 -2.30389 389.824 -2.06667 389.957 -1.88C390.089 -1.70111 390.299 -1.61167 390.587 -1.61167C390.952 -1.61167 391.294 -1.73611 391.613 -1.985C391.94 -2.24167 392.232 -2.53722 392.488 -2.87167C392.659 -3.08944 392.811 -3.31111 392.943 -3.53667C393.083 -3.76222 393.2 -3.96833 393.293 -4.155C393.324 -4.20944 393.352 -4.23667 393.375 -4.23667C393.422 -4.23667 393.445 -4.17056 393.445 -4.03833C393.445 -3.97611 393.433 -3.90222 393.41 -3.81667C393.394 -3.73889 393.367 -3.665 393.328 -3.595C393.196 -3.37722 393.06 -3.15944 392.92 -2.94167C392.788 -2.72389 392.644 -2.51778 392.488 -2.32333C392.224 -1.98111 391.913 -1.69722 391.555 -1.47167C391.197 -1.24611 390.754 -1.13333 390.225 -1.13333ZM392.155 -1.25C392.24 -1.40556 392.337 -1.60389 392.446 -1.845C392.547 -2.08611 392.649 -2.34667 392.75 -2.62667C392.859 -2.91444 392.956 -3.19056 393.041 -3.455C393.236 -4.05389 393.434 -4.645 393.636 -5.22833C393.846 -5.81167 394.056 -6.31722 394.266 -6.745C394.352 -6.93167 394.461 -7.15722 394.593 -7.42167C394.725 -7.69389 394.873 -7.97389 395.036 -8.26167C395.207 -8.54945 395.39 -8.81778 395.585 -9.06667C395.787 -9.32333 396.001 -9.52945 396.226 -9.685C396.46 -9.84056 396.701 -9.91833 396.95 -9.91833C397.199 -9.91833 397.366 -9.86389 397.451 -9.755C397.545 -9.64611 397.591 -9.51 397.591 -9.34667C397.591 -9.16778 397.552 -8.97722 397.475 -8.775C397.397 -8.57278 397.323 -8.40556 397.253 -8.27333C397.097 -7.97778 396.895 -7.64333 396.646 -7.27C396.405 -6.90445 396.152 -6.56222 395.888 -6.24333C395.756 -6.08 395.596 -5.89333 395.41 -5.68333C395.223 -5.48111 395.036 -5.28667 394.85 -5.1C394.671 -4.91333 394.515 -4.75389 394.383 -4.62167L394.173 -4.03833C394.375 -4.30278 394.589 -4.54 394.815 -4.75C395.04 -4.96 395.285 -5.17 395.55 -5.38C395.744 -5.53556 395.946 -5.65222 396.156 -5.73C396.374 -5.80778 396.572 -5.84667 396.751 -5.84667C396.884 -5.84667 397.004 -5.82722 397.113 -5.78833C397.23 -5.74945 397.315 -5.68722 397.37 -5.60167C397.409 -5.54722 397.436 -5.48889 397.451 -5.42667C397.467 -5.36445 397.475 -5.30222 397.475 -5.24C397.475 -5.11556 397.451 -4.995 397.405 -4.87833C397.304 -4.63722 397.156 -4.43111 396.961 -4.26C396.775 -4.09667 396.561 -3.97222 396.32 -3.88667C396.234 -3.85556 396.121 -3.82056 395.981 -3.78167C395.841 -3.74278 395.717 -3.71556 395.608 -3.7C395.624 -3.59111 395.635 -3.48222 395.643 -3.37333C395.659 -3.26444 395.674 -3.15556 395.69 -3.04667C395.736 -2.78222 395.795 -2.55667 395.865 -2.37C395.942 -2.18333 396.063 -2.09 396.226 -2.09C396.374 -2.09 396.572 -2.18722 396.821 -2.38167C397 -2.52167 397.156 -2.68111 397.288 -2.86C397.444 -3.06222 397.591 -3.27611 397.731 -3.50167C397.871 -3.735 397.992 -3.94889 398.093 -4.14333C398.124 -4.19778 398.151 -4.225 398.175 -4.225C398.221 -4.225 398.245 -4.16278 398.245 -4.03833C398.245 -3.96833 398.233 -3.89056 398.21 -3.805C398.194 -3.72722 398.163 -3.64944 398.116 -3.57167C398.007 -3.385 397.879 -3.18278 397.731 -2.965C397.591 -2.74722 397.444 -2.53333 397.288 -2.32333C397.202 -2.20667 397.094 -2.07833 396.961 -1.93833C396.829 -1.79833 396.689 -1.67 396.541 -1.55333C396.409 -1.45222 396.25 -1.35889 396.063 -1.27333C395.876 -1.19556 395.694 -1.15667 395.515 -1.15667C395.375 -1.15667 395.242 -1.18778 395.118 -1.25C395.001 -1.31222 394.904 -1.41722 394.826 -1.565C394.741 -1.72833 394.675 -1.92278 394.628 -2.14833C394.581 -2.37389 394.558 -2.59944 394.558 -2.825C394.558 -2.94944 394.562 -3.07 394.57 -3.18667C394.585 -3.31111 394.609 -3.42389 394.64 -3.525C394.679 -3.65722 394.717 -3.74667 394.756 -3.79333C394.795 -3.84 394.846 -3.86333 394.908 -3.86333C395.134 -3.87111 395.355 -3.90222 395.573 -3.95667C395.791 -4.01889 395.974 -4.11611 396.121 -4.24833C396.3 -4.40389 396.39 -4.57889 396.39 -4.77333C396.39 -4.85889 396.359 -4.93278 396.296 -4.995C396.242 -5.065 396.149 -5.1 396.016 -5.1C395.837 -5.1 395.662 -5.04167 395.491 -4.925C395.32 -4.80833 395.157 -4.65667 395.001 -4.47C394.846 -4.28333 394.702 -4.08889 394.57 -3.88667C394.437 -3.69222 394.325 -3.51333 394.231 -3.35C394.161 -3.23333 394.084 -3.08167 393.998 -2.895C393.912 -2.70833 393.823 -2.51389 393.73 -2.31167C393.636 -2.10944 393.543 -1.92667 393.45 -1.76333C393.356 -1.6 393.267 -1.47944 393.181 -1.40167C393.08 -1.30056 392.975 -1.25 392.866 -1.25H392.155ZM394.686 -5.415C395.075 -5.86611 395.456 -6.34056 395.83 -6.83833C396.203 -7.33611 396.522 -7.84556 396.786 -8.36667C396.81 -8.40556 396.849 -8.48722 396.903 -8.61167C396.957 -8.73611 397.008 -8.87222 397.055 -9.02C397.109 -9.16778 397.136 -9.29611 397.136 -9.405C397.136 -9.545 397.082 -9.615 396.973 -9.615C396.864 -9.615 396.732 -9.52167 396.576 -9.335C396.429 -9.14833 396.269 -8.89945 396.098 -8.58833C395.935 -8.285 395.767 -7.94667 395.596 -7.57333C395.425 -7.20778 395.262 -6.83445 395.106 -6.45333C394.951 -6.08 394.811 -5.73389 394.686 -5.415ZM400.23 -6.85C400.027 -6.92 399.926 -7.05222 399.926 -7.24667C399.926 -7.42556 399.996 -7.60833 400.136 -7.795C400.284 -7.98945 400.443 -8.11389 400.615 -8.16833C400.653 -8.18389 400.685 -8.19167 400.708 -8.19167C400.739 -8.19167 400.77 -8.19167 400.801 -8.19167C400.933 -8.19167 401.042 -8.15278 401.128 -8.075C401.213 -7.99722 401.256 -7.90778 401.256 -7.80667C401.256 -7.66667 401.182 -7.55 401.035 -7.45667C400.918 -7.47222 400.805 -7.445 400.696 -7.375C400.587 -7.305 400.49 -7.21945 400.405 -7.11833C400.327 -7.01722 400.268 -6.92778 400.23 -6.85ZM395.108 1.49167C395.069 1.49944 395.026 1.50333 394.98 1.50333C394.933 1.50333 394.89 1.50333 394.851 1.50333C394.595 1.50333 394.357 1.44889 394.14 1.34C393.922 1.23889 393.813 1.04833 393.813 0.768334C393.813 0.612778 393.86 0.453334 393.953 0.29C394.038 0.126667 394.171 0.0216669 394.35 -0.0249998C394.365 -0.0327776 394.385 -0.0366665 394.408 -0.0366665C394.431 -0.0366665 394.451 -0.0366665 394.466 -0.0366665C394.676 -0.0366665 394.816 0.0450002 394.886 0.208333C394.871 0.216111 394.847 0.239445 394.816 0.278334C394.785 0.325 394.762 0.36 394.746 0.383334C394.676 0.523334 394.641 0.647778 394.641 0.756667C394.641 0.881111 394.684 0.978334 394.77 1.04833C394.855 1.11833 394.964 1.15333 395.096 1.15333C395.205 1.15333 395.326 1.12611 395.458 1.07167C395.582 1.025 395.711 0.951111 395.843 0.85C396.092 0.655556 396.294 0.414445 396.45 0.126667C396.605 -0.161111 396.741 -0.441111 396.858 -0.713333C397.13 -1.35889 397.371 -2.02389 397.581 -2.70833C397.799 -3.39278 398.032 -4.04222 398.281 -4.65667C398.398 -4.93667 398.499 -5.15833 398.585 -5.32167C398.67 -5.49278 398.791 -5.61333 398.946 -5.68333C399.11 -5.76111 399.355 -5.8 399.681 -5.8H400.148C400 -5.70667 399.852 -5.53167 399.705 -5.275C399.557 -5.02611 399.417 -4.73056 399.285 -4.38833C399.183 -4.13944 399.082 -3.86722 398.981 -3.57167C398.888 -3.28389 398.783 -2.98056 398.666 -2.66167C398.526 -2.28056 398.363 -1.86056 398.176 -1.40167C397.997 -0.950556 397.772 -0.515 397.5 -0.0949998C397.227 0.325 396.897 0.678889 396.508 0.966667C396.119 1.25444 395.652 1.42944 395.108 1.49167ZM403.386 -1.18C403.145 -1.18 402.978 -1.27333 402.885 -1.46C402.799 -1.64667 402.756 -1.87611 402.756 -2.14833C402.756 -2.39722 402.78 -2.64222 402.826 -2.88333C402.85 -2.99222 402.873 -3.10111 402.896 -3.21C402.928 -3.32667 402.963 -3.44722 403.001 -3.57167C402.869 -3.33056 402.729 -3.09722 402.581 -2.87167C402.441 -2.64611 402.298 -2.44778 402.15 -2.27667C401.901 -1.97333 401.636 -1.72056 401.356 -1.51833C401.084 -1.31611 400.812 -1.215 400.54 -1.215C400.322 -1.215 400.135 -1.29278 399.98 -1.44833C399.832 -1.61167 399.758 -1.89167 399.758 -2.28833C399.758 -2.69278 399.828 -3.10889 399.968 -3.53667C400.108 -3.96444 400.303 -4.36111 400.551 -4.72667C400.808 -5.1 401.108 -5.39945 401.45 -5.625C401.8 -5.85056 402.181 -5.96333 402.593 -5.96333C402.725 -5.96333 402.869 -5.94389 403.025 -5.905C403.18 -5.86611 403.324 -5.79222 403.456 -5.68333C403.589 -5.58222 403.678 -5.43833 403.725 -5.25167C403.733 -5.26722 403.74 -5.27889 403.748 -5.28667C403.764 -5.29444 403.775 -5.30222 403.783 -5.31C403.892 -5.48111 404.016 -5.625 404.156 -5.74167C404.296 -5.85833 404.452 -5.91667 404.623 -5.91667C404.709 -5.91667 404.829 -5.91278 404.985 -5.905C405.14 -5.89722 405.253 -5.89722 405.323 -5.905C405.284 -5.87389 405.23 -5.81167 405.16 -5.71833C405.098 -5.625 405.039 -5.52778 404.985 -5.42667C404.93 -5.33333 404.888 -5.25945 404.856 -5.205C404.646 -4.80056 404.456 -4.4 404.285 -4.00333C404.114 -3.60667 403.981 -3.22556 403.888 -2.86C403.865 -2.78222 403.849 -2.70833 403.841 -2.63833C403.834 -2.57611 403.83 -2.51389 403.83 -2.45167C403.83 -2.24944 403.896 -2.14833 404.028 -2.14833C404.153 -2.14833 404.308 -2.22611 404.495 -2.38167C404.767 -2.59944 405.004 -2.87167 405.206 -3.19833C405.416 -3.525 405.599 -3.84 405.755 -4.14333C405.786 -4.19778 405.813 -4.225 405.836 -4.225C405.883 -4.225 405.906 -4.15889 405.906 -4.02667C405.906 -3.96444 405.895 -3.89444 405.871 -3.81667C405.856 -3.73889 405.829 -3.665 405.79 -3.595C405.681 -3.40833 405.537 -3.17889 405.358 -2.90667C405.187 -2.63444 404.993 -2.36611 404.775 -2.10167C404.557 -1.845 404.328 -1.62722 404.086 -1.44833C403.853 -1.26944 403.62 -1.18 403.386 -1.18ZM401.065 -2.195C401.088 -2.18722 401.123 -2.18333 401.17 -2.18333C401.318 -2.18333 401.477 -2.24556 401.648 -2.37C401.819 -2.49444 401.99 -2.65389 402.161 -2.84833C402.333 -3.05056 402.484 -3.25278 402.616 -3.455C402.959 -3.99944 403.211 -4.40778 403.375 -4.68C403.538 -4.95222 403.631 -5.10778 403.655 -5.14667C403.616 -5.27889 403.546 -5.37611 403.445 -5.43833C403.351 -5.50056 403.239 -5.53167 403.106 -5.53167C402.935 -5.53167 402.753 -5.485 402.558 -5.39167C402.371 -5.29833 402.212 -5.18556 402.08 -5.05333C401.878 -4.85111 401.683 -4.59056 401.496 -4.27167C401.318 -3.95278 401.17 -3.63778 401.053 -3.32667C400.944 -3.01556 400.89 -2.755 400.89 -2.545C400.89 -2.35056 400.948 -2.23389 401.065 -2.195ZM406.859 -1.13333C406.494 -1.13333 406.198 -1.19944 405.972 -1.33167C405.747 -1.47167 405.584 -1.65444 405.482 -1.88C405.389 -2.11333 405.342 -2.36222 405.342 -2.62667C405.342 -2.89111 405.381 -3.15944 405.459 -3.43167C405.537 -3.70389 405.642 -3.96056 405.774 -4.20167C406.046 -4.69167 406.381 -5.09611 406.777 -5.415C407.182 -5.73389 407.676 -5.89333 408.259 -5.89333C408.625 -5.89333 408.909 -5.8 409.111 -5.61333C409.313 -5.42667 409.414 -5.20889 409.414 -4.96C409.414 -4.72667 409.344 -4.51278 409.204 -4.31833C409.072 -4.12389 408.893 -4.02667 408.667 -4.02667C408.543 -4.02667 408.434 -4.06167 408.341 -4.13167C408.247 -4.20167 408.201 -4.31056 408.201 -4.45833C408.201 -4.48167 408.201 -4.505 408.201 -4.52833C408.209 -4.55945 408.216 -4.59056 408.224 -4.62167C408.271 -4.62944 408.337 -4.64111 408.422 -4.65667C408.516 -4.68 408.59 -4.73445 408.644 -4.82C408.745 -4.96 408.796 -5.1 408.796 -5.24C408.796 -5.32556 408.769 -5.39556 408.714 -5.45C408.667 -5.51222 408.586 -5.54333 408.469 -5.54333C408.259 -5.54333 408.045 -5.46556 407.827 -5.31C407.61 -5.16222 407.404 -4.96389 407.209 -4.715C407.022 -4.46611 406.859 -4.19389 406.719 -3.89833C406.501 -3.42389 406.392 -2.98833 406.392 -2.59167C406.392 -2.30389 406.459 -2.06667 406.591 -1.88C406.723 -1.70111 406.933 -1.61167 407.221 -1.61167C407.586 -1.61167 407.929 -1.73611 408.247 -1.985C408.574 -2.24167 408.866 -2.53722 409.122 -2.87167C409.294 -3.08944 409.445 -3.31111 409.577 -3.53667C409.717 -3.76222 409.834 -3.96833 409.927 -4.155C409.959 -4.20944 409.986 -4.23667 410.009 -4.23667C410.056 -4.23667 410.079 -4.17056 410.079 -4.03833C410.079 -3.97611 410.067 -3.90222 410.044 -3.81667C410.029 -3.73889 410.001 -3.665 409.962 -3.595C409.83 -3.37722 409.694 -3.15944 409.554 -2.94167C409.422 -2.72389 409.278 -2.51778 409.122 -2.32333C408.858 -1.98111 408.547 -1.69722 408.189 -1.47167C407.831 -1.24611 407.388 -1.13333 406.859 -1.13333ZM408.789 -1.25C408.874 -1.40556 408.972 -1.60389 409.08 -1.845C409.182 -2.08611 409.283 -2.34667 409.384 -2.62667C409.493 -2.91444 409.59 -3.19056 409.675 -3.455C409.87 -4.05389 410.068 -4.645 410.27 -5.22833C410.48 -5.81167 410.69 -6.31722 410.9 -6.745C410.986 -6.93167 411.095 -7.15722 411.227 -7.42167C411.359 -7.69389 411.507 -7.97389 411.67 -8.26167C411.842 -8.54945 412.024 -8.81778 412.219 -9.06667C412.421 -9.32333 412.635 -9.52945 412.86 -9.685C413.094 -9.84056 413.335 -9.91833 413.584 -9.91833C413.833 -9.91833 414 -9.86389 414.085 -9.755C414.179 -9.64611 414.225 -9.51 414.225 -9.34667C414.225 -9.16778 414.187 -8.97722 414.109 -8.775C414.031 -8.57278 413.957 -8.40556 413.887 -8.27333C413.732 -7.97778 413.529 -7.64333 413.28 -7.27C413.039 -6.90445 412.787 -6.56222 412.522 -6.24333C412.39 -6.08 412.23 -5.89333 412.044 -5.68333C411.857 -5.48111 411.67 -5.28667 411.484 -5.1C411.305 -4.91333 411.149 -4.75389 411.017 -4.62167L410.807 -4.03833C411.009 -4.30278 411.223 -4.54 411.449 -4.75C411.674 -4.96 411.919 -5.17 412.184 -5.38C412.378 -5.53556 412.58 -5.65222 412.79 -5.73C413.008 -5.80778 413.207 -5.84667 413.385 -5.84667C413.518 -5.84667 413.638 -5.82722 413.747 -5.78833C413.864 -5.74945 413.949 -5.68722 414.004 -5.60167C414.043 -5.54722 414.07 -5.48889 414.085 -5.42667C414.101 -5.36445 414.109 -5.30222 414.109 -5.24C414.109 -5.11556 414.085 -4.995 414.039 -4.87833C413.938 -4.63722 413.79 -4.43111 413.595 -4.26C413.409 -4.09667 413.195 -3.97222 412.954 -3.88667C412.868 -3.85556 412.755 -3.82056 412.615 -3.78167C412.475 -3.74278 412.351 -3.71556 412.242 -3.7C412.258 -3.59111 412.269 -3.48222 412.277 -3.37333C412.293 -3.26444 412.308 -3.15556 412.324 -3.04667C412.37 -2.78222 412.429 -2.55667 412.499 -2.37C412.577 -2.18333 412.697 -2.09 412.86 -2.09C413.008 -2.09 413.207 -2.18722 413.455 -2.38167C413.634 -2.52167 413.79 -2.68111 413.922 -2.86C414.078 -3.06222 414.225 -3.27611 414.365 -3.50167C414.505 -3.735 414.626 -3.94889 414.727 -4.14333C414.758 -4.19778 414.785 -4.225 414.809 -4.225C414.855 -4.225 414.879 -4.16278 414.879 -4.03833C414.879 -3.96833 414.867 -3.89056 414.844 -3.805C414.828 -3.72722 414.797 -3.64944 414.75 -3.57167C414.642 -3.385 414.513 -3.18278 414.365 -2.965C414.225 -2.74722 414.078 -2.53333 413.922 -2.32333C413.837 -2.20667 413.728 -2.07833 413.595 -1.93833C413.463 -1.79833 413.323 -1.67 413.175 -1.55333C413.043 -1.45222 412.884 -1.35889 412.697 -1.27333C412.51 -1.19556 412.328 -1.15667 412.149 -1.15667C412.009 -1.15667 411.877 -1.18778 411.752 -1.25C411.635 -1.31222 411.538 -1.41722 411.46 -1.565C411.375 -1.72833 411.309 -1.92278 411.262 -2.14833C411.215 -2.37389 411.192 -2.59944 411.192 -2.825C411.192 -2.94944 411.196 -3.07 411.204 -3.18667C411.219 -3.31111 411.243 -3.42389 411.274 -3.525C411.313 -3.65722 411.352 -3.74667 411.39 -3.79333C411.429 -3.84 411.48 -3.86333 411.542 -3.86333C411.768 -3.87111 411.989 -3.90222 412.207 -3.95667C412.425 -4.01889 412.608 -4.11611 412.755 -4.24833C412.934 -4.40389 413.024 -4.57889 413.024 -4.77333C413.024 -4.85889 412.993 -4.93278 412.93 -4.995C412.876 -5.065 412.783 -5.1 412.65 -5.1C412.472 -5.1 412.297 -5.04167 412.125 -4.925C411.954 -4.80833 411.791 -4.65667 411.635 -4.47C411.48 -4.28333 411.336 -4.08889 411.204 -3.88667C411.072 -3.69222 410.959 -3.51333 410.865 -3.35C410.795 -3.23333 410.718 -3.08167 410.632 -2.895C410.547 -2.70833 410.457 -2.51389 410.364 -2.31167C410.27 -2.10944 410.177 -1.92667 410.084 -1.76333C409.99 -1.6 409.901 -1.47944 409.815 -1.40167C409.714 -1.30056 409.609 -1.25 409.5 -1.25H408.789ZM411.32 -5.415C411.709 -5.86611 412.09 -6.34056 412.464 -6.83833C412.837 -7.33611 413.156 -7.84556 413.42 -8.36667C413.444 -8.40556 413.483 -8.48722 413.537 -8.61167C413.592 -8.73611 413.642 -8.87222 413.689 -9.02C413.743 -9.16778 413.77 -9.29611 413.77 -9.405C413.77 -9.545 413.716 -9.615 413.607 -9.615C413.498 -9.615 413.366 -9.52167 413.21 -9.335C413.063 -9.14833 412.903 -8.89945 412.732 -8.58833C412.569 -8.285 412.402 -7.94667 412.23 -7.57333C412.059 -7.20778 411.896 -6.83445 411.74 -6.45333C411.585 -6.08 411.445 -5.73389 411.32 -5.415Z" fill="#ED5149"/>
<path fill-rule="evenodd" clip-rule="evenodd" d="M419.5 -5.75H370.5V28.0833C370.5 29.372 371.544 30.4167 372.833 30.4167H417.166C418.455 30.4167 419.5 29.372 419.5 28.0833V-5.75ZM365.833 -5.75V28.0833C365.833 31.9493 368.967 35.0833 372.833 35.0833H417.166C421.032 35.0833 424.166 31.9493 424.166 28.0833V-5.75H365.833Z" fill="#F2F2F2"/>
</g>
<defs>
<filter id="filter0_d_151_3885" x="172.103" y="28.4086" width="68.9616" height="92.6281" filterUnits="userSpaceOnUse" color-interpolation-filters="sRGB">
<feFlood flood-opacity="0" result="BackgroundImageFix"/>
<feColorMatrix in="SourceAlpha" type="matrix" values="0 0 0 0 0 0 0 0 0 0 0 0 0 0 0 0 0 0 127 0" result="hardAlpha"/>
<feOffset dy="1.30595"/>
<feGaussianBlur stdDeviation="2.44865"/>
<feComposite in2="hardAlpha" operator="out"/>
<feColorMatrix type="matrix" values="0 0 0 0 0 0 0 0 0 0 0 0 0 0 0 0 0 0 0.25 0"/>
<feBlend mode="normal" in2="BackgroundImageFix" result="effect1_dropShadow_151_3885"/>
<feBlend mode="normal" in="SourceGraphic" in2="effect1_dropShadow_151_3885" result="shape"/>
</filter>
<filter id="filter1_d_151_3885" x="196.103" y="40.4086" width="68.9616" height="92.6281" filterUnits="userSpaceOnUse" color-interpolation-filters="sRGB">
<feFlood flood-opacity="0" result="BackgroundImageFix"/>
<feColorMatrix in="SourceAlpha" type="matrix" values="0 0 0 0 0 0 0 0 0 0 0 0 0 0 0 0 0 0 127 0" result="hardAlpha"/>
<feOffset dy="1.30595"/>
<feGaussianBlur stdDeviation="2.44865"/>
<feComposite in2="hardAlpha" operator="out"/>
<feColorMatrix type="matrix" values="0 0 0 0 0 0 0 0 0 0 0 0 0 0 0 0 0 0 0.25 0"/>
<feBlend mode="normal" in2="BackgroundImageFix" result="effect1_dropShadow_151_3885"/>
<feBlend mode="normal" in="SourceGraphic" in2="effect1_dropShadow_151_3885" result="shape"/>
</filter>
<filter id="filter2_d_151_3885" x="219.103" y="51.4086" width="68.9616" height="92.6281" filterUnits="userSpaceOnUse" color-interpolation-filters="sRGB">
<feFlood flood-opacity="0" result="BackgroundImageFix"/>
<feColorMatrix in="SourceAlpha" type="matrix" values="0 0 0 0 0 0 0 0 0 0 0 0 0 0 0 0 0 0 127 0" result="hardAlpha"/>
<feOffset dy="1.30595"/>
<feGaussianBlur stdDeviation="2.44865"/>
<feComposite in2="hardAlpha" operator="out"/>
<feColorMatrix type="matrix" values="0 0 0 0 0 0 0 0 0 0 0 0 0 0 0 0 0 0 0.25 0"/>
<feBlend mode="normal" in2="BackgroundImageFix" result="effect1_dropShadow_151_3885"/>
<feBlend mode="normal" in="SourceGraphic" in2="effect1_dropShadow_151_3885" result="shape"/>
</filter>
<filter id="filter3_d_151_3885" x="172.103" y="221.409" width="68.9616" height="92.6281" filterUnits="userSpaceOnUse" color-interpolation-filters="sRGB">
<feFlood flood-opacity="0" result="BackgroundImageFix"/>
<feColorMatrix in="SourceAlpha" type="matrix" values="0 0 0 0 0 0 0 0 0 0 0 0 0 0 0 0 0 0 127 0" result="hardAlpha"/>
<feOffset dy="1.30595"/>
<feGaussianBlur stdDeviation="2.44865"/>
<feComposite in2="hardAlpha" operator="out"/>
<feColorMatrix type="matrix" values="0 0 0 0 0 0 0 0 0 0 0 0 0 0 0 0 0 0 0.25 0"/>
<feBlend mode="normal" in2="BackgroundImageFix" result="effect1_dropShadow_151_3885"/>
<feBlend mode="normal" in="SourceGraphic" in2="effect1_dropShadow_151_3885" result="shape"/>
</filter>
<filter id="filter4_d_151_3885" x="196.103" y="233.409" width="68.9616" height="92.6281" filterUnits="userSpaceOnUse" color-interpolation-filters="sRGB">
<feFlood flood-opacity="0" result="BackgroundImageFix"/>
<feColorMatrix in="SourceAlpha" type="matrix" values="0 0 0 0 0 0 0 0 0 0 0 0 0 0 0 0 0 0 127 0" result="hardAlpha"/>
<feOffset dy="1.30595"/>
<feGaussianBlur stdDeviation="2.44865"/>
<feComposite in2="hardAlpha" operator="out"/>
<feColorMatrix type="matrix" values="0 0 0 0 0 0 0 0 0 0 0 0 0 0 0 0 0 0 0.25 0"/>
<feBlend mode="normal" in2="BackgroundImageFix" result="effect1_dropShadow_151_3885"/>
<feBlend mode="normal" in="SourceGraphic" in2="effect1_dropShadow_151_3885" result="shape"/>
</filter>
<filter id="filter5_d_151_3885" x="219.103" y="244.409" width="68.9616" height="92.6281" filterUnits="userSpaceOnUse" color-interpolation-filters="sRGB">
<feFlood flood-opacity="0" result="BackgroundImageFix"/>
<feColorMatrix in="SourceAlpha" type="matrix" values="0 0 0 0 0 0 0 0 0 0 0 0 0 0 0 0 0 0 127 0" result="hardAlpha"/>
<feOffset dy="1.30595"/>
<feGaussianBlur stdDeviation="2.44865"/>
<feComposite in2="hardAlpha" operator="out"/>
<feColorMatrix type="matrix" values="0 0 0 0 0 0 0 0 0 0 0 0 0 0 0 0 0 0 0.25 0"/>
<feBlend mode="normal" in2="BackgroundImageFix" result="effect1_dropShadow_151_3885"/>
<feBlend mode="normal" in="SourceGraphic" in2="effect1_dropShadow_151_3885" result="shape"/>
</filter>
<linearGradient id="paint0_linear_151_3885" x1="206.583" y1="32" x2="206.583" y2="114.834" gradientUnits="userSpaceOnUse">
<stop stop-color="#F9F9F9"/>
<stop offset="1" stop-color="#ECECEC"/>
</linearGradient>
<linearGradient id="paint1_linear_151_3885" x1="230.583" y1="44" x2="230.583" y2="126.834" gradientUnits="userSpaceOnUse">
<stop stop-color="#F9F9F9"/>
<stop offset="1" stop-color="#ECECEC"/>
</linearGradient>
<linearGradient id="paint2_linear_151_3885" x1="253.583" y1="55" x2="253.583" y2="137.834" gradientUnits="userSpaceOnUse">
<stop stop-color="#F9F9F9"/>
<stop offset="1" stop-color="#ECECEC"/>
</linearGradient>
<linearGradient id="paint3_linear_151_3885" x1="206.583" y1="225" x2="206.583" y2="307.834" gradientUnits="userSpaceOnUse">
<stop stop-color="#F9F9F9"/>
<stop offset="1" stop-color="#ECECEC"/>
</linearGradient>
<linearGradient id="paint4_linear_151_3885" x1="230.583" y1="237" x2="230.583" y2="319.834" gradientUnits="userSpaceOnUse">
<stop stop-color="#F9F9F9"/>
<stop offset="1" stop-color="#ECECEC"/>
</linearGradient>
<linearGradient id="paint5_linear_151_3885" x1="253.583" y1="248" x2="253.583" y2="330.834" gradientUnits="userSpaceOnUse">
<stop stop-color="#F9F9F9"/>
<stop offset="1" stop-color="#ECECEC"/>
</linearGradient>
<clipPath id="clip0_151_3885">
<rect x="177" y="32" width="59.1669" height="82.8337" rx="7.10003" fill="white"/>
</clipPath>
<clipPath id="clip1_151_3885">
<rect x="201" y="44" width="59.1669" height="82.8337" rx="7.10003" fill="white"/>
</clipPath>
<clipPath id="clip2_151_3885">
<rect x="224" y="55" width="59.1669" height="82.8337" rx="7.10003" fill="white"/>
</clipPath>
<clipPath id="clip3_151_3885">
<rect width="72" height="23" fill="white" transform="translate(14 20)"/>
</clipPath>
<clipPath id="clip4_151_3885">
<rect x="177" y="225" width="59.1669" height="82.8337" rx="7.10003" fill="white"/>
</clipPath>
<clipPath id="clip5_151_3885">
<rect x="201" y="237" width="59.1669" height="82.8337" rx="7.10003" fill="white"/>
</clipPath>
<clipPath id="clip6_151_3885">
<rect x="224" y="248" width="59.1669" height="82.8337" rx="7.10003" fill="white"/>
</clipPath>
<clipPath id="clip7_151_3885">
<rect width="76" height="38" fill="white" transform="translate(357)"/>
</clipPath>
<clipPath id="clip8_151_3885">
<rect width="49" height="80.5" fill="white" transform="translate(370.5 -46)"/>
</clipPath>
</defs>
</svg>
