<svg width="460" height="351" viewBox="0 0 460 351" fill="none" xmlns="http://www.w3.org/2000/svg">
<rect width="460" height="346.11" rx="10" fill="#0D131C"/>
<rect width="460" height="351" rx="5.55773" fill="white"/>
<rect x="230.5" y="11" width="56" height="21" rx="10.5" fill="#55657E"/>
<path d="M254.421 16.29H255.651V27H254.016V18.255C253.371 18.87 252.546 19.32 251.556 19.605V17.985C252.036 17.865 252.531 17.655 253.071 17.355C253.611 17.025 254.061 16.68 254.421 16.29ZM261.669 16.08C262.749 16.08 263.604 16.335 264.264 16.86C264.894 17.385 265.224 18.105 265.224 19.02C265.224 20.19 264.624 20.985 263.454 21.375C264.084 21.57 264.564 21.87 264.894 22.26C265.254 22.665 265.434 23.19 265.434 23.82C265.434 24.81 265.089 25.62 264.414 26.25C263.694 26.88 262.749 27.21 261.609 27.21C260.514 27.21 259.629 26.925 258.969 26.37C258.219 25.74 257.799 24.825 257.709 23.625H259.359C259.389 24.345 259.614 24.9 260.064 25.29C260.454 25.65 260.964 25.83 261.594 25.83C262.284 25.83 262.839 25.62 263.259 25.23C263.619 24.87 263.814 24.435 263.814 23.895C263.814 23.265 263.619 22.8 263.229 22.5C262.869 22.2 262.329 22.05 261.624 22.05H260.844V20.82H261.609C262.269 20.82 262.764 20.67 263.094 20.385C263.424 20.1 263.604 19.68 263.604 19.14C263.604 18.6 263.439 18.195 263.139 17.91C262.809 17.61 262.314 17.475 261.684 17.475C261.039 17.475 260.529 17.64 260.169 17.97C259.809 18.3 259.584 18.795 259.524 19.455H257.919C258.009 18.39 258.399 17.565 259.104 16.965C259.764 16.365 260.619 16.08 261.669 16.08Z" fill="white"/>
<g filter="url(#filter0_d_151_3999)">
<rect x="177.296" y="32.2958" width="58.5753" height="82.2421" rx="9.17088" fill="white" stroke="#55657E" stroke-width="0.591669" stroke-dasharray="4.73 4.73"/>
<g clip-path="url(#clip0_151_3999)">
<rect x="177" y="32" width="59.1669" height="82.8337" rx="7.10003" fill="url(#paint0_linear_151_3999)"/>
<path d="M195.564 52.8559V55.3667H184.45V53.2241L189.706 47.5887C190.234 47.001 190.651 46.484 190.956 46.0376C191.261 45.5838 191.48 45.1783 191.614 44.8212C191.755 44.4567 191.826 44.1108 191.826 43.7834C191.826 43.2924 191.744 42.8721 191.581 42.5225C191.417 42.1654 191.175 41.8901 190.855 41.6967C190.543 41.5032 190.156 41.4065 189.695 41.4065C189.204 41.4065 188.78 41.5256 188.422 41.7636C188.073 42.0017 187.805 42.3327 187.619 42.7568C187.44 43.1808 187.351 43.6607 187.351 44.1963H184.126C184.126 43.2292 184.357 42.3439 184.818 41.5404C185.279 40.7295 185.93 40.086 186.771 39.6099C187.612 39.1263 188.608 38.8845 189.762 38.8845C190.9 38.8845 191.86 39.0705 192.641 39.4425C193.429 39.807 194.024 40.3352 194.426 41.0271C194.835 41.7115 195.04 42.5299 195.04 43.4821C195.04 44.0178 194.954 44.5423 194.783 45.0556C194.612 45.5615 194.367 46.0674 194.047 46.5732C193.734 47.0717 193.355 47.5776 192.908 48.0909C192.462 48.6042 191.967 49.1361 191.424 49.6867L188.601 52.8559H195.564Z" fill="#242424"/>
<path fill-rule="evenodd" clip-rule="evenodd" d="M192.964 72.8359C195.49 72.8643 197.044 71.2461 196.189 69.5428C195.335 67.8394 194.483 67.4562 193.141 66.2213C191.798 64.9863 189.846 62.8501 189.855 62.3462C189.865 62.8501 187.994 64.9863 186.651 66.2213C185.309 67.4562 184.458 67.8394 183.602 69.5428C182.748 71.2461 184.302 72.8643 186.828 72.8359C188.562 72.8164 189.342 71.8204 189.66 71.1978L189.66 72.0127C189.66 72.0127 189.107 74.9523 185.2 75.2741L184.577 75.2741L184.577 75.7321L195.215 75.7321L195.215 75.2741L194.592 75.2741C190.686 74.9523 190.132 72.0127 190.132 72.0127L190.132 71.3048C190.507 71.9281 191.326 72.8175 192.964 72.8359Z" fill="#242424"/>
<path fill-rule="evenodd" clip-rule="evenodd" d="M225.089 104.275C230.583 104.337 233.962 100.818 232.103 97.1136C230.244 93.4094 228.391 92.5759 225.473 89.8904C222.554 87.2049 218.309 82.5592 218.329 81.4634C218.35 82.5592 214.28 87.2049 211.36 89.8904C208.442 92.5759 206.591 93.4094 204.73 97.1136C202.872 100.818 206.252 104.337 211.745 104.275C215.515 104.233 217.212 102.067 217.904 100.713L217.904 102.485C217.904 102.485 216.701 108.878 208.204 109.577L206.85 109.577L206.85 110.574L229.985 110.574L229.985 109.577L228.629 109.577C220.135 108.878 218.929 102.485 218.929 102.485L218.929 100.945C219.745 102.301 221.528 104.235 225.089 104.275Z" fill="#242424"/>
</g>
</g>
<g filter="url(#filter1_d_151_3999)">
<rect x="201.296" y="44.2958" width="58.5753" height="82.2421" rx="9.17088" fill="white" stroke="#55657E" stroke-width="0.591669" stroke-dasharray="4.73 4.73"/>
<g clip-path="url(#clip1_151_3999)">
<rect x="201" y="44" width="59.1669" height="82.8337" rx="7.10003" fill="url(#paint1_linear_151_3999)"/>
<path d="M215.536 62.3785V51.1189H218.873V62.3785C218.873 63.4647 218.634 64.3983 218.158 65.1795C217.682 65.9532 217.031 66.5484 216.205 66.965C215.387 67.3816 214.465 67.5899 213.438 67.5899C212.374 67.5899 211.433 67.4113 210.615 67.0542C209.796 66.6971 209.153 66.1503 208.684 65.4138C208.215 64.6699 207.981 63.7288 207.981 62.5906H211.34C211.34 63.1857 211.422 63.6581 211.586 64.0078C211.757 64.3574 211.998 64.6067 212.311 64.7554C212.623 64.9042 212.999 64.9786 213.438 64.9786C213.862 64.9786 214.23 64.8782 214.543 64.6773C214.855 64.4765 215.097 64.1826 215.268 63.7958C215.447 63.4089 215.536 62.9365 215.536 62.3785Z" fill="#EE3D3D"/>
<path fill-rule="evenodd" clip-rule="evenodd" d="M217.117 74.6733C214.465 74.7104 213.938 77.4565 213.938 77.4565C213.938 77.4565 213.326 74.7104 210.674 74.6733C208.022 74.6362 206.389 76.7514 207.287 78.978C208.185 81.2046 209.079 81.7056 210.488 83.3198C211.898 84.9341 213.948 87.7266 213.938 88.3853C213.928 87.7266 215.893 84.9341 217.302 83.3198C218.711 81.7056 219.606 81.2046 220.503 78.978C221.401 76.7514 219.769 74.6362 217.117 74.6733Z" fill="#EE3D3D"/>
<path fill-rule="evenodd" clip-rule="evenodd" d="M249.423 94.1744C243.656 94.255 242.509 100.227 242.509 100.227C242.509 100.227 241.178 94.255 235.411 94.1744C229.643 94.0936 226.094 98.6936 228.046 103.536C229.998 108.378 231.943 109.467 235.008 112.978C238.073 116.488 242.531 122.561 242.509 123.993C242.487 122.561 246.761 116.488 249.826 112.978C252.891 109.467 254.836 108.378 256.788 103.536C258.74 98.6936 255.19 94.0936 249.423 94.1744Z" fill="#EE3D3D"/>
</g>
</g>
<g filter="url(#filter2_d_151_3999)">
<rect x="224.296" y="55.2958" width="58.5753" height="82.2421" rx="9.17088" fill="white" stroke="#55657E" stroke-width="0.591669" stroke-dasharray="4.73 4.73"/>
<g clip-path="url(#clip2_151_3999)">
<rect x="224" y="55" width="59.1669" height="82.8337" rx="7.10003" fill="url(#paint2_linear_151_3999)"/>
<path d="M239.284 62.0854V78.3667H236.07V65.7903L232.209 67.0178V64.4846L238.938 62.0854H239.284Z" fill="#EE3D3D"/>
<path fill-rule="evenodd" clip-rule="evenodd" d="M240.117 85.6733C237.465 85.7104 236.938 88.4565 236.938 88.4565C236.938 88.4565 236.326 85.7104 233.674 85.6733C231.022 85.6362 229.389 87.7514 230.287 89.978C231.185 92.2046 232.079 92.7056 233.488 94.3198C234.898 95.9341 236.948 98.7266 236.938 99.3853C236.928 98.7266 238.893 95.9341 240.302 94.3198C241.711 92.7056 242.606 92.2046 243.503 89.978C244.401 87.7514 242.769 85.6362 240.117 85.6733Z" fill="#EE3D3D"/>
<path fill-rule="evenodd" clip-rule="evenodd" d="M272.422 105.174C266.655 105.255 265.508 111.227 265.508 111.227C265.508 111.227 264.177 105.255 258.41 105.174C252.642 105.094 249.093 109.694 251.045 114.536C252.997 119.378 254.942 120.467 258.007 123.978C261.072 127.488 265.53 133.561 265.508 134.993C265.486 133.561 269.76 127.488 272.825 123.978C275.89 120.467 277.835 119.378 279.787 114.536C281.739 109.694 278.189 105.094 272.422 105.174Z" fill="#EE3D3D"/>
</g>
</g>
<g opacity="0.34" clip-path="url(#clip3_151_3999)">
<path d="M14.5501 20H86V43H14V20H14.5501ZM84.8999 21.1061H15.1003V41.894H84.8999V21.1061Z" fill="white" fill-opacity="0.2"/>
<path d="M42.0468 38.2447C42.3271 38.4693 44.0685 38.8085 45.1504 37.9384C45.1504 39.1127 43.6322 40.3426 42.4922 40.6681H48.1355V22.6664C45.7972 21.7086 43.0335 22.5863 42.0739 24.8505C41.3187 26.6327 41.7426 28.5293 43.3478 29.9623C43.4783 29.9974 44.0969 30.1044 44.7944 30.5758L43.988 31.3809C43.4865 31.1007 42.9025 30.9453 42.2444 30.9453C40.5308 30.9453 39.3047 32.2095 39.3047 34.0426C39.3047 35.8758 40.5308 37.1557 42.2444 37.1557C43.329 37.1557 44.2251 36.7765 44.8067 36.0812L45.514 36.808C44.7987 37.68 43.414 38.2116 42.0467 38.2446L42.0468 38.2447Z" fill="white" fill-opacity="0.2"/>
<path fill-rule="evenodd" clip-rule="evenodd" d="M44.6818 28.7842L43.3479 29.9625C43.3479 29.9625 39.0431 28.8863 38.0606 33.2282C38.0409 33.4954 37.7229 35.5944 39.1146 36.8497C38.4214 36.5729 37.4424 35.328 37.4424 33.5747C37.4424 29.226 42.2807 28.6684 43.2903 29.4421C43.0687 29.598 44.682 28.7843 44.682 28.7843L44.6818 28.7842Z" fill="white" fill-opacity="0.2"/>
<path d="M48.7993 33.4254L53.7614 29.6592V31.2408L50.2194 33.9291L53.7614 36.6173V38.1989L48.7993 34.4329L48.1357 33.9291L48.7993 33.4254Z" fill="white" fill-opacity="0.2"/>
<path d="M21.9487 27.1369H17.3115V38.1989H22.0117C24.5111 38.1989 25.9888 37.0769 25.9888 35.1963C25.9888 33.6793 25.0615 32.6363 23.4736 32.3991C24.7468 32.1305 25.5171 31.1983 25.5171 29.9023C25.5171 28.1639 24.1645 27.1368 21.9487 27.1368V27.1369ZM21.886 31.9251H18.5691V28.3062H21.886C23.3635 28.3062 24.2282 28.9543 24.2282 30.092C24.2282 31.2297 23.3628 31.9251 21.886 31.9251ZM21.886 37.0296H18.5691V33.0947H21.886C23.6781 33.0947 24.7156 33.8058 24.7156 35.0384C24.7156 36.271 23.6773 37.0296 21.886 37.0296ZM27.572 24.9092V38.1989H28.7982V24.9092H27.572ZM37.2977 38.1989L37.282 32.6995C37.2771 30.9295 36.1345 29.8392 34.091 29.8392C32.6762 29.8392 31.7803 30.25 30.7114 30.9613L31.2302 31.8304C32.0946 31.2141 32.9436 30.8665 33.8552 30.8665C35.3171 30.8665 36.0717 31.6095 36.0717 32.826V33.3475H33.3523C31.4033 33.3475 30.2554 34.28 30.2554 35.7338C30.2554 37.1876 31.3558 38.2464 33.0694 38.2464C34.3899 38.2464 35.4429 37.8038 36.1031 36.9031V38.199H37.2978L37.2977 38.1989ZM33.305 37.2192C32.1417 37.2192 31.4028 36.6029 31.4028 35.6863C31.4028 34.7696 32.126 34.3273 33.5092 34.3273H36.0872V35.3386C36.0872 36.5648 34.7039 37.2192 33.3048 37.2192H33.305ZM56.125 24.8604C55.6535 24.8604 55.2919 25.224 55.2919 25.7137C55.2919 26.2033 55.6533 26.5514 56.125 26.5514C56.5967 26.5514 56.9583 26.1877 56.9583 25.7137C56.9583 25.2396 56.6124 24.8604 56.125 24.8604ZM56.7381 38.556V28.0999H55.512V38.714C55.512 39.7562 55.0401 40.2406 54.3174 40.231C53.9094 40.2257 53.4841 40.073 53.1227 39.8044L52.6826 40.784C53.1541 41.1477 53.7672 41.3529 54.3647 41.3529C55.6535 41.3529 56.7383 40.468 56.7383 38.5558L56.7381 38.556ZM65.4941 38.1989L65.4782 32.6995C65.4734 30.9295 64.3308 29.8392 62.2873 29.8392C60.8725 29.8392 59.9765 30.25 58.9076 30.9613L59.4265 31.8304C60.2908 31.2141 61.1398 30.8665 62.0515 30.8665C63.5134 30.8665 64.268 31.6098 64.268 32.826V33.3475H61.5485C59.5999 33.3475 58.4516 34.28 58.4516 35.7338C58.4516 37.1876 59.5521 38.2464 61.2656 38.2464C62.5862 38.2464 63.6392 37.8038 64.2994 36.9031V38.199H65.4941V38.1989ZM61.5014 37.2192C60.3381 37.2192 59.5992 36.6029 59.5992 35.6863C59.5992 34.7696 60.3224 34.3273 61.7056 34.3273H64.2837V35.3386C64.2837 36.5646 62.9003 37.2192 61.5012 37.2192H61.5014ZM73.3378 31.9251L74.0138 31.0718C73.2591 30.2974 72.1588 29.8392 70.8227 29.8392C68.4334 29.8392 66.7199 31.5776 66.7199 34.0428C66.7199 36.508 68.4176 38.2462 70.8227 38.2462C72.2532 38.2462 73.4006 37.7089 74.1397 36.8082L73.4322 36.0813C72.8505 36.7766 71.9544 37.1559 70.8698 37.1559C69.1563 37.1559 67.9301 35.8917 67.9301 34.0428C67.9301 32.1939 69.1563 30.9455 70.8698 30.9455C71.8759 30.9455 72.709 31.3088 73.3379 31.9251H73.3378ZM77.0633 24.9092H75.8372V38.1989H77.0633C77.0633 22.9663 77.0633 33.0356 77.0633 24.9092Z" fill="white" fill-opacity="0.2"/>
<path d="M77.726 33.4254L82.6882 29.6592V38.1989L77.726 34.4327L77.0625 33.929L77.726 33.4252V33.4254Z" fill="white" fill-opacity="0.2"/>
</g>
<path fill-rule="evenodd" clip-rule="evenodd" d="M363.5 155.888L340.397 155.888L340.397 173.801L330.104 178.011L337.915 173.801L326.069 173.801L326.069 180L363.5 180L350.057 167.944L363.5 155.888ZM96.5 155.888L119.603 155.888L119.603 173.801L129.896 178.011L122.085 173.801L133.931 173.801L133.931 180L96.5 180L109.943 167.944L96.5 155.888ZM338.644 148L121.364 148L121.364 172.121L338.644 172.121L338.644 148.008L338.644 148Z" fill="#F4F7FD"/>
<path d="M164.244 155.432H168.168C169.02 155.432 169.692 155.636 170.172 156.044C170.616 156.428 170.844 156.944 170.844 157.592C170.844 158.072 170.724 158.48 170.496 158.816C170.268 159.128 169.944 159.356 169.512 159.524C170.076 159.632 170.496 159.86 170.784 160.208C171.06 160.544 171.204 161.012 171.204 161.588C171.204 162.452 170.904 163.088 170.316 163.496C169.812 163.832 169.092 164 168.18 164H164.244V155.432ZM165.648 156.584V159.032H167.796C168.396 159.032 168.816 158.924 169.068 158.732C169.308 158.528 169.44 158.204 169.44 157.76C169.44 157.352 169.308 157.052 169.068 156.872C168.804 156.68 168.396 156.584 167.82 156.584H165.648ZM165.648 160.184V162.848H167.976C168.504 162.848 168.924 162.764 169.224 162.596C169.608 162.38 169.8 162.044 169.8 161.564C169.8 161.072 169.656 160.724 169.38 160.508C169.092 160.292 168.636 160.184 168.012 160.184H165.648ZM172.529 155.432H173.921V162.8H178.553V164H172.529V155.432ZM182.067 155.432H183.663L186.939 164H185.439L184.659 161.852H181.071L180.291 164H178.791L182.067 155.432ZM181.491 160.7H184.239L182.895 156.944H182.847L181.491 160.7ZM191.496 155.264C192.504 155.264 193.344 155.528 193.992 156.056C194.616 156.56 194.988 157.256 195.12 158.12H193.752C193.608 157.556 193.344 157.148 192.948 156.884C192.564 156.62 192.072 156.5 191.472 156.5C190.572 156.5 189.9 156.8 189.444 157.424C189.024 157.976 188.82 158.744 188.82 159.728C188.82 160.736 189.024 161.516 189.432 162.056C189.876 162.632 190.572 162.932 191.508 162.932C192.12 162.932 192.624 162.776 193.008 162.488C193.416 162.164 193.704 161.672 193.872 161.024H195.24C195.048 162.032 194.604 162.812 193.896 163.376C193.236 163.904 192.444 164.168 191.52 164.168C190.092 164.168 189.024 163.712 188.328 162.824C187.716 162.056 187.416 161.024 187.416 159.728C187.416 158.456 187.728 157.412 188.364 156.62C189.084 155.708 190.128 155.264 191.496 155.264ZM201.953 155.432H203.729L199.961 159.104L204.293 164H202.397L199.013 160.028L197.969 161.048V164H196.565V155.432H197.969V159.476L201.953 155.432ZM205.131 155.432H206.535V164H205.131V155.432ZM210.649 155.432H212.245L215.521 164H214.021L213.241 161.852H209.653L208.873 164H207.373L210.649 155.432ZM210.073 160.7H212.821L211.477 156.944H211.429L210.073 160.7ZM220.078 155.264C221.086 155.264 221.926 155.528 222.574 156.056C223.198 156.56 223.57 157.256 223.702 158.12H222.334C222.19 157.556 221.926 157.148 221.53 156.884C221.146 156.62 220.654 156.5 220.054 156.5C219.154 156.5 218.482 156.8 218.026 157.424C217.606 157.976 217.402 158.744 217.402 159.728C217.402 160.736 217.606 161.516 218.014 162.056C218.458 162.632 219.154 162.932 220.09 162.932C220.702 162.932 221.206 162.776 221.59 162.488C221.998 162.164 222.286 161.672 222.454 161.024H223.822C223.63 162.032 223.186 162.812 222.478 163.376C221.818 163.904 221.026 164.168 220.102 164.168C218.674 164.168 217.606 163.712 216.91 162.824C216.298 162.056 215.998 161.024 215.998 159.728C215.998 158.456 216.31 157.412 216.946 156.62C217.666 155.708 218.71 155.264 220.078 155.264ZM230.535 155.432H232.311L228.543 159.104L232.875 164H230.979L227.595 160.028L226.551 161.048V164H225.147V155.432H226.551V159.476L230.535 155.432ZM238.249 164V161.24H237.565V160.136H239.869V162.632H239.953C240.217 162.632 240.441 162.56 240.625 162.416C240.817 162.272 240.961 162.06 241.057 161.78C241.153 161.492 241.201 161.132 241.201 160.7C241.201 160.204 241.129 159.812 240.985 159.524C240.849 159.228 240.645 159.016 240.373 158.888C240.101 158.76 239.765 158.696 239.365 158.696C238.949 158.696 238.573 158.756 238.237 158.876C237.901 158.988 237.601 159.124 237.337 159.284V157.784C237.601 157.648 237.933 157.528 238.333 157.424C238.733 157.32 239.193 157.268 239.713 157.268C240.489 157.268 241.117 157.392 241.597 157.64C242.085 157.888 242.445 158.264 242.677 158.768C242.909 159.272 243.025 159.904 243.025 160.664C243.025 161.376 242.917 161.984 242.701 162.488C242.493 162.984 242.149 163.36 241.669 163.616C241.197 163.872 240.565 164 239.773 164H238.249ZM240.978 156.512V153.788H242.634V156.512H240.978ZM246.152 164V159.656C246.152 159.32 246.072 159.076 245.912 158.924C245.76 158.772 245.508 158.696 245.156 158.696C244.892 158.696 244.648 158.732 244.424 158.804C244.208 158.876 244.004 158.964 243.812 159.068V157.628C243.988 157.548 244.236 157.468 244.556 157.388C244.876 157.308 245.252 157.268 245.684 157.268C246.124 157.268 246.512 157.332 246.848 157.46C247.192 157.588 247.46 157.804 247.652 158.108C247.852 158.404 247.952 158.812 247.952 159.332V164H246.152ZM252.411 164.156C251.691 164.156 251.115 164.072 250.683 163.904C250.251 163.728 249.935 163.484 249.735 163.172C249.543 162.86 249.447 162.5 249.447 162.092C249.447 161.74 249.499 161.456 249.603 161.24C249.715 161.024 249.855 160.86 250.023 160.748C250.199 160.628 250.375 160.548 250.551 160.508V160.436C250.367 160.372 250.191 160.284 250.023 160.172C249.855 160.06 249.715 159.908 249.603 159.716C249.499 159.524 249.447 159.284 249.447 158.996C249.447 158.7 249.515 158.424 249.651 158.168C249.795 157.912 250.023 157.708 250.335 157.556C250.647 157.396 251.059 157.316 251.571 157.316C251.819 157.316 252.059 157.336 252.291 157.376C252.523 157.408 252.703 157.456 252.831 157.52L252.555 158.732C252.491 158.716 252.403 158.7 252.291 158.684C252.187 158.66 252.079 158.648 251.967 158.648C251.719 158.648 251.535 158.708 251.415 158.828C251.295 158.94 251.235 159.088 251.235 159.272C251.235 159.464 251.287 159.612 251.391 159.716C251.495 159.82 251.627 159.892 251.787 159.932C251.955 159.972 252.127 159.992 252.303 159.992H252.555V161.108H252.303C251.959 161.108 251.699 161.168 251.523 161.288C251.355 161.408 251.271 161.604 251.271 161.876C251.271 162.02 251.303 162.164 251.367 162.308C251.439 162.444 251.559 162.56 251.727 162.656C251.895 162.744 252.135 162.788 252.447 162.788C252.743 162.788 252.975 162.744 253.143 162.656C253.311 162.568 253.431 162.452 253.503 162.308C253.575 162.156 253.611 161.988 253.611 161.804V157.424H255.411V161.744C255.411 162.568 255.167 163.176 254.679 163.568C254.199 163.96 253.443 164.156 252.411 164.156ZM263.932 155.264C264.796 155.264 265.504 155.468 266.032 155.888C266.548 156.308 266.812 156.884 266.812 157.628C266.812 158.564 266.332 159.188 265.384 159.5C265.888 159.656 266.284 159.884 266.548 160.196C266.836 160.52 266.98 160.94 266.98 161.444C266.98 162.236 266.704 162.884 266.152 163.388C265.576 163.904 264.82 164.168 263.884 164.168C262.996 164.168 262.276 163.94 261.736 163.484C261.136 162.98 260.8 162.236 260.728 161.276H262.156C262.18 161.828 262.348 162.26 262.684 162.56C262.984 162.836 263.38 162.98 263.872 162.98C264.412 162.98 264.844 162.824 265.156 162.524C265.432 162.248 265.576 161.912 265.576 161.504C265.576 161.012 265.42 160.652 265.132 160.424C264.844 160.184 264.424 160.076 263.872 160.076H263.272V159.02H263.872C264.376 159.02 264.76 158.912 265.024 158.696C265.276 158.48 265.408 158.156 265.408 157.736C265.408 157.316 265.288 157.004 265.06 156.788C264.808 156.572 264.436 156.464 263.944 156.464C263.44 156.464 263.056 156.584 262.78 156.836C262.492 157.088 262.324 157.472 262.276 157.988H260.896C260.968 157.124 261.28 156.452 261.856 155.972C262.396 155.492 263.092 155.264 263.932 155.264ZM274.787 164.12C274.075 164.12 273.519 163.976 273.119 163.688C272.727 163.392 272.451 162.984 272.291 162.464C272.139 161.936 272.063 161.324 272.063 160.628C272.063 159.852 272.139 159.22 272.291 158.732C272.443 158.244 272.671 157.884 272.975 157.652C273.287 157.42 273.667 157.304 274.115 157.304C274.395 157.304 274.639 157.36 274.847 157.472C275.063 157.576 275.235 157.772 275.363 158.06H275.411C275.523 157.764 275.707 157.564 275.963 157.46C276.219 157.356 276.495 157.304 276.791 157.304C277.343 157.304 277.755 157.452 278.027 157.748C278.307 158.044 278.447 158.476 278.447 159.044V164H276.647V159.38C276.647 159.132 276.607 158.964 276.527 158.876C276.447 158.788 276.339 158.744 276.203 158.744C276.051 158.744 275.935 158.788 275.855 158.876C275.783 158.964 275.735 159.112 275.711 159.32H275.003C274.971 159.088 274.911 158.936 274.823 158.864C274.735 158.784 274.631 158.744 274.511 158.744C274.311 158.744 274.155 158.888 274.043 159.176C273.939 159.464 273.887 159.952 273.887 160.64C273.887 161.088 273.919 161.472 273.983 161.792C274.055 162.104 274.175 162.344 274.343 162.512C274.511 162.672 274.751 162.752 275.063 162.752C275.159 162.752 275.247 162.748 275.327 162.74C275.407 162.724 275.475 162.704 275.531 162.68L275.711 163.964C275.583 164.02 275.443 164.06 275.291 164.084C275.139 164.108 274.971 164.12 274.787 164.12ZM276.439 156.512V153.788H278.095V156.512H276.439ZM282.747 164.156C281.771 164.156 281.047 163.92 280.575 163.448C280.103 162.968 279.867 162.26 279.867 161.324C279.867 161.164 279.871 160.972 279.879 160.748C279.895 160.516 279.915 160.312 279.939 160.136H282.819V161.276H281.631V161.444C281.631 161.764 281.671 162.028 281.751 162.236C281.831 162.436 281.951 162.584 282.111 162.68C282.279 162.776 282.487 162.824 282.735 162.824C283.007 162.824 283.235 162.764 283.419 162.644C283.611 162.524 283.755 162.32 283.851 162.032C283.955 161.744 284.007 161.348 284.007 160.844C284.007 160.372 283.951 159.98 283.839 159.668C283.735 159.348 283.555 159.108 283.299 158.948C283.051 158.788 282.707 158.708 282.267 158.708C282.027 158.708 281.779 158.736 281.523 158.792C281.267 158.84 281.023 158.904 280.791 158.984C280.567 159.064 280.371 159.152 280.203 159.248V157.748C280.379 157.652 280.595 157.568 280.851 157.496C281.115 157.424 281.399 157.368 281.703 157.328C282.007 157.288 282.307 157.268 282.603 157.268C283.379 157.268 284.003 157.412 284.475 157.7C284.955 157.98 285.303 158.38 285.519 158.9C285.743 159.42 285.855 160.036 285.855 160.748C285.855 161.476 285.747 162.096 285.531 162.608C285.323 163.112 284.991 163.496 284.535 163.76C284.079 164.024 283.483 164.156 282.747 164.156ZM294.132 155.264C294.96 155.264 295.644 155.504 296.184 155.984C296.712 156.464 296.976 157.076 296.976 157.844C296.976 158.588 296.688 159.26 296.136 159.872C295.8 160.232 295.2 160.688 294.36 161.252C293.484 161.828 292.956 162.332 292.764 162.764H296.988V164H291.012C291.012 163.124 291.288 162.368 291.864 161.72C292.176 161.36 292.836 160.832 293.832 160.148C294.384 159.764 294.768 159.44 295.008 159.188C295.38 158.768 295.572 158.312 295.572 157.832C295.572 157.364 295.44 157.016 295.2 156.788C294.948 156.56 294.576 156.452 294.084 156.452C293.556 156.452 293.16 156.632 292.896 156.992C292.632 157.328 292.488 157.844 292.464 158.516H291.06C291.072 157.556 291.348 156.788 291.9 156.2C292.464 155.576 293.208 155.264 294.132 155.264Z" fill="#B8BECB"/>
<path d="M188.39 192.156C187.35 192.156 186.594 191.916 186.122 191.436C185.658 190.948 185.426 190.244 185.426 189.324V185.424H187.226V189.42C187.226 189.844 187.318 190.168 187.502 190.392C187.694 190.608 187.99 190.716 188.39 190.716C188.79 190.716 189.082 190.608 189.266 190.392C189.458 190.168 189.554 189.844 189.554 189.42V183.06H191.354V189.324C191.354 190.244 191.118 190.948 190.646 191.436C190.182 191.916 189.43 192.156 188.39 192.156ZM195.299 192.156C194.827 192.156 194.351 192.104 193.871 192C193.399 191.896 192.979 191.748 192.611 191.556L193.115 190.128C193.275 190.216 193.467 190.308 193.691 190.404C193.915 190.5 194.159 190.58 194.423 190.644C194.687 190.708 194.955 190.74 195.227 190.74C195.547 190.74 195.787 190.696 195.947 190.608C196.115 190.512 196.199 190.368 196.199 190.176C196.199 190.032 196.143 189.916 196.031 189.828C195.927 189.732 195.771 189.644 195.563 189.564C195.355 189.476 195.107 189.384 194.819 189.288C194.395 189.136 194.031 188.972 193.727 188.796C193.423 188.62 193.187 188.404 193.019 188.148C192.859 187.892 192.779 187.572 192.779 187.188C192.779 186.748 192.891 186.388 193.115 186.108C193.339 185.828 193.655 185.62 194.063 185.484C194.471 185.34 194.947 185.268 195.491 185.268C195.939 185.268 196.343 185.304 196.703 185.376C197.063 185.448 197.343 185.54 197.543 185.652V187.068C197.407 187.004 197.227 186.94 197.003 186.876C196.787 186.812 196.551 186.76 196.295 186.72C196.047 186.672 195.807 186.648 195.575 186.648C195.247 186.648 194.999 186.692 194.831 186.78C194.663 186.868 194.579 186.992 194.579 187.152C194.579 187.28 194.635 187.388 194.747 187.476C194.867 187.564 195.039 187.648 195.263 187.728C195.487 187.8 195.755 187.892 196.067 188.004C196.483 188.148 196.835 188.308 197.123 188.484C197.411 188.66 197.627 188.876 197.771 189.132C197.923 189.388 197.999 189.704 197.999 190.08C197.999 190.44 197.915 190.78 197.747 191.1C197.587 191.412 197.311 191.668 196.919 191.868C196.527 192.06 195.987 192.156 195.299 192.156ZM200.382 188.124C200.014 188.124 199.722 188.068 199.506 187.956C199.29 187.844 199.134 187.696 199.038 187.512C198.942 187.32 198.894 187.12 198.894 186.912C198.894 186.776 198.914 186.636 198.954 186.492C198.994 186.34 199.054 186.192 199.134 186.048L200.442 186.216C200.426 186.272 200.41 186.332 200.394 186.396C200.386 186.46 200.382 186.528 200.382 186.6C200.382 186.704 200.414 186.788 200.478 186.852C200.542 186.908 200.654 186.936 200.814 186.936H202.17V188.124H200.382ZM200.382 191.484C200.014 191.484 199.722 191.428 199.506 191.316C199.29 191.204 199.134 191.056 199.038 190.872C198.942 190.68 198.894 190.48 198.894 190.272C198.894 190.136 198.914 189.996 198.954 189.852C198.994 189.7 199.054 189.552 199.134 189.408L200.442 189.576C200.426 189.632 200.41 189.692 200.394 189.756C200.386 189.82 200.382 189.888 200.382 189.96C200.382 190.064 200.414 190.148 200.478 190.212C200.542 190.268 200.654 190.296 200.814 190.296H202.17V191.484H200.382ZM203.495 192V189.996C203.495 189.492 203.595 189.104 203.795 188.832C203.995 188.56 204.279 188.368 204.647 188.256L204.659 188.208L203.375 187.74V187.428C203.375 187.036 203.491 186.676 203.723 186.348C203.955 186.02 204.295 185.76 204.743 185.568C205.199 185.368 205.751 185.268 206.399 185.268C207.007 185.268 207.531 185.364 207.971 185.556C208.411 185.74 208.751 186.02 208.991 186.396C209.239 186.764 209.363 187.232 209.363 187.8V192H207.563V187.908C207.563 187.508 207.455 187.208 207.239 187.008C207.031 186.808 206.735 186.708 206.351 186.708C205.983 186.708 205.707 186.788 205.523 186.948C205.339 187.1 205.239 187.288 205.223 187.512L206.291 188.004L206.159 188.784C205.871 188.8 205.655 188.904 205.511 189.096C205.367 189.288 205.295 189.548 205.295 189.876V192H203.495ZM207.421 184.512C207.045 184.512 206.749 184.456 206.533 184.344C206.317 184.232 206.165 184.092 206.077 183.924C205.981 183.748 205.933 183.564 205.933 183.372C205.933 183.236 205.953 183.092 205.993 182.94C206.033 182.78 206.093 182.632 206.173 182.496L207.481 182.664C207.465 182.72 207.453 182.78 207.445 182.844C207.429 182.9 207.421 182.952 207.421 183C207.421 183.112 207.457 183.2 207.529 183.264C207.593 183.32 207.705 183.348 207.865 183.348H210.445V184.512H207.421ZM213.287 192.12C212.799 192.12 212.387 192.028 212.051 191.844C211.723 191.652 211.471 191.368 211.295 190.992C211.127 190.616 211.043 190.156 211.043 189.612V185.424H212.843V189.3C212.843 189.74 212.931 190.06 213.107 190.26C213.283 190.46 213.539 190.56 213.875 190.56C214.299 190.56 214.627 190.4 214.859 190.08C215.091 189.752 215.207 189.248 215.207 188.568V185.424H217.007V192H215.639L215.447 190.992H215.339C215.203 191.312 214.967 191.58 214.631 191.796C214.303 192.012 213.855 192.12 213.287 192.12ZM219.341 192V189.24H218.657V188.136H220.961V190.632H221.045C221.309 190.632 221.533 190.56 221.717 190.416C221.909 190.272 222.053 190.06 222.149 189.78C222.245 189.492 222.293 189.132 222.293 188.7C222.293 188.204 222.221 187.812 222.077 187.524C221.941 187.228 221.737 187.016 221.465 186.888C221.193 186.76 220.857 186.696 220.457 186.696C220.041 186.696 219.665 186.756 219.329 186.876C218.993 186.988 218.693 187.124 218.429 187.284V185.784C218.693 185.648 219.025 185.528 219.425 185.424C219.825 185.32 220.285 185.268 220.805 185.268C221.581 185.268 222.209 185.392 222.689 185.64C223.177 185.888 223.537 186.264 223.769 186.768C224.001 187.272 224.117 187.904 224.117 188.664C224.117 189.376 224.009 189.984 223.793 190.488C223.585 190.984 223.241 191.36 222.761 191.616C222.289 191.872 221.657 192 220.865 192H219.341ZM222.07 184.512V181.788H223.726V184.512H222.07ZM227.244 192V187.656C227.244 187.32 227.164 187.076 227.004 186.924C226.852 186.772 226.6 186.696 226.248 186.696C225.984 186.696 225.74 186.732 225.516 186.804C225.3 186.876 225.096 186.964 224.904 187.068V185.628C225.08 185.548 225.328 185.468 225.648 185.388C225.968 185.308 226.344 185.268 226.776 185.268C227.216 185.268 227.604 185.332 227.94 185.46C228.284 185.588 228.552 185.804 228.744 186.108C228.944 186.404 229.044 186.812 229.044 187.332V192H227.244ZM233.503 192.156C232.783 192.156 232.207 192.072 231.775 191.904C231.343 191.728 231.027 191.484 230.827 191.172C230.635 190.86 230.539 190.5 230.539 190.092C230.539 189.74 230.591 189.456 230.695 189.24C230.807 189.024 230.947 188.86 231.115 188.748C231.291 188.628 231.467 188.548 231.643 188.508V188.436C231.459 188.372 231.283 188.284 231.115 188.172C230.947 188.06 230.807 187.908 230.695 187.716C230.591 187.524 230.539 187.284 230.539 186.996C230.539 186.7 230.607 186.424 230.743 186.168C230.887 185.912 231.115 185.708 231.427 185.556C231.739 185.396 232.151 185.316 232.663 185.316C232.911 185.316 233.151 185.336 233.383 185.376C233.615 185.408 233.795 185.456 233.923 185.52L233.647 186.732C233.583 186.716 233.495 186.7 233.383 186.684C233.279 186.66 233.171 186.648 233.059 186.648C232.811 186.648 232.627 186.708 232.507 186.828C232.387 186.94 232.327 187.088 232.327 187.272C232.327 187.464 232.379 187.612 232.483 187.716C232.587 187.82 232.719 187.892 232.879 187.932C233.047 187.972 233.219 187.992 233.395 187.992H233.647V189.108H233.395C233.051 189.108 232.791 189.168 232.615 189.288C232.447 189.408 232.363 189.604 232.363 189.876C232.363 190.02 232.395 190.164 232.459 190.308C232.531 190.444 232.651 190.56 232.819 190.656C232.987 190.744 233.227 190.788 233.539 190.788C233.835 190.788 234.067 190.744 234.235 190.656C234.403 190.568 234.523 190.452 234.595 190.308C234.667 190.156 234.703 189.988 234.703 189.804V185.424H236.503V189.744C236.503 190.568 236.259 191.176 235.771 191.568C235.291 191.96 234.535 192.156 233.503 192.156ZM245.072 183.264C245.9 183.264 246.584 183.504 247.124 183.984C247.652 184.464 247.916 185.076 247.916 185.844C247.916 186.588 247.628 187.26 247.076 187.872C246.74 188.232 246.14 188.688 245.3 189.252C244.424 189.828 243.896 190.332 243.704 190.764H247.928V192H241.952C241.952 191.124 242.228 190.368 242.804 189.72C243.116 189.36 243.776 188.832 244.772 188.148C245.324 187.764 245.708 187.44 245.948 187.188C246.32 186.768 246.512 186.312 246.512 185.832C246.512 185.364 246.38 185.016 246.14 184.788C245.888 184.56 245.516 184.452 245.024 184.452C244.496 184.452 244.1 184.632 243.836 184.992C243.572 185.328 243.428 185.844 243.404 186.516H242C242.012 185.556 242.288 184.788 242.84 184.2C243.404 183.576 244.148 183.264 245.072 183.264ZM255.879 192.12C255.167 192.12 254.611 191.976 254.211 191.688C253.819 191.392 253.543 190.984 253.383 190.464C253.231 189.936 253.155 189.324 253.155 188.628C253.155 187.852 253.231 187.22 253.383 186.732C253.535 186.244 253.763 185.884 254.067 185.652C254.379 185.42 254.759 185.304 255.207 185.304C255.487 185.304 255.731 185.36 255.939 185.472C256.155 185.576 256.327 185.772 256.455 186.06H256.503C256.615 185.764 256.799 185.564 257.055 185.46C257.311 185.356 257.587 185.304 257.883 185.304C258.435 185.304 258.847 185.452 259.119 185.748C259.399 186.044 259.539 186.476 259.539 187.044V192H257.739V187.38C257.739 187.132 257.699 186.964 257.619 186.876C257.539 186.788 257.431 186.744 257.295 186.744C257.143 186.744 257.027 186.788 256.947 186.876C256.875 186.964 256.827 187.112 256.803 187.32H256.095C256.063 187.088 256.003 186.936 255.915 186.864C255.827 186.784 255.723 186.744 255.603 186.744C255.403 186.744 255.247 186.888 255.135 187.176C255.031 187.464 254.979 187.952 254.979 188.64C254.979 189.088 255.011 189.472 255.075 189.792C255.147 190.104 255.267 190.344 255.435 190.512C255.603 190.672 255.843 190.752 256.155 190.752C256.251 190.752 256.339 190.748 256.419 190.74C256.499 190.724 256.567 190.704 256.623 190.68L256.803 191.964C256.675 192.02 256.535 192.06 256.383 192.084C256.231 192.108 256.063 192.12 255.879 192.12ZM257.531 184.512V181.788H259.187V184.512H257.531ZM263.839 192.156C262.863 192.156 262.139 191.92 261.667 191.448C261.195 190.968 260.959 190.26 260.959 189.324C260.959 189.164 260.963 188.972 260.971 188.748C260.987 188.516 261.007 188.312 261.031 188.136H263.911V189.276H262.723V189.444C262.723 189.764 262.763 190.028 262.843 190.236C262.923 190.436 263.043 190.584 263.203 190.68C263.371 190.776 263.579 190.824 263.827 190.824C264.099 190.824 264.327 190.764 264.511 190.644C264.703 190.524 264.847 190.32 264.943 190.032C265.047 189.744 265.099 189.348 265.099 188.844C265.099 188.372 265.043 187.98 264.931 187.668C264.827 187.348 264.647 187.108 264.391 186.948C264.143 186.788 263.799 186.708 263.359 186.708C263.119 186.708 262.871 186.736 262.615 186.792C262.359 186.84 262.115 186.904 261.883 186.984C261.659 187.064 261.463 187.152 261.295 187.248V185.748C261.471 185.652 261.687 185.568 261.943 185.496C262.207 185.424 262.491 185.368 262.795 185.328C263.099 185.288 263.399 185.268 263.695 185.268C264.471 185.268 265.095 185.412 265.567 185.7C266.047 185.98 266.395 186.38 266.611 186.9C266.835 187.42 266.947 188.036 266.947 188.748C266.947 189.476 266.839 190.096 266.623 190.608C266.415 191.112 266.083 191.496 265.627 191.76C265.171 192.024 264.575 192.156 263.839 192.156ZM274.276 183.432H275.332V192H273.928V185.124C273.412 185.592 272.764 185.94 271.972 186.168V184.776C272.356 184.68 272.764 184.512 273.196 184.272C273.628 184.008 273.988 183.732 274.276 183.432Z" fill="#B8BECB"/>
<rect x="230.5" y="204" width="56" height="21" rx="10.5" fill="#15C600"/>
<path d="M255.606 209.08C256.626 209.08 257.481 209.365 258.141 209.965C258.786 210.565 259.116 211.33 259.116 212.275C259.116 213.205 258.756 214.045 258.066 214.81C257.646 215.245 256.911 215.815 255.846 216.535C254.691 217.3 254.001 217.975 253.776 218.56H259.131V220H251.751C251.751 218.935 252.096 218.005 252.816 217.195C253.206 216.73 254.016 216.085 255.231 215.245C255.951 214.735 256.461 214.33 256.761 214.015C257.241 213.475 257.496 212.89 257.496 212.26C257.496 211.66 257.331 211.21 257.001 210.91C256.671 210.61 256.176 210.46 255.546 210.46C254.871 210.46 254.361 210.685 254.016 211.15C253.656 211.6 253.476 212.245 253.446 213.115H251.811C251.826 211.915 252.171 210.955 252.846 210.235C253.536 209.455 254.466 209.08 255.606 209.08ZM263.416 209.29H264.646V220H263.011V211.255C262.366 211.87 261.541 212.32 260.551 212.605V210.985C261.031 210.865 261.526 210.655 262.066 210.355C262.606 210.025 263.056 209.68 263.416 209.29Z" fill="white"/>
<g filter="url(#filter3_d_151_3999)">
<rect x="177.296" y="225.296" width="58.5753" height="82.2421" rx="9.17088" fill="white" stroke="#55657E" stroke-width="0.591669" stroke-dasharray="4.73 4.73"/>
<g clip-path="url(#clip4_151_3999)">
<rect x="177" y="225" width="59.1669" height="82.8337" rx="7.10003" fill="url(#paint3_linear_151_3999)"/>
<path d="M187.474 240.968L184.907 240.354L185.834 232.119H194.962V234.719H188.478L188.077 238.323C188.292 238.197 188.62 238.063 189.059 237.922C189.497 237.773 189.989 237.698 190.532 237.698C191.32 237.698 192.019 237.821 192.63 238.067C193.24 238.312 193.757 238.669 194.181 239.138C194.612 239.607 194.939 240.18 195.163 240.857C195.386 241.534 195.497 242.3 195.497 243.155C195.497 243.877 195.386 244.565 195.163 245.22C194.939 245.867 194.601 246.447 194.147 246.961C193.693 247.467 193.124 247.865 192.44 248.155C191.755 248.445 190.944 248.59 190.007 248.59C189.308 248.59 188.631 248.486 187.976 248.277C187.329 248.069 186.745 247.76 186.224 247.351C185.711 246.942 185.298 246.447 184.985 245.867C184.68 245.279 184.52 244.61 184.506 243.858H187.697C187.742 244.32 187.861 244.718 188.054 245.052C188.255 245.38 188.519 245.633 188.847 245.811C189.174 245.99 189.557 246.079 189.996 246.079C190.405 246.079 190.755 246.001 191.045 245.845C191.335 245.688 191.569 245.473 191.748 245.197C191.926 244.915 192.057 244.587 192.139 244.215C192.228 243.836 192.272 243.427 192.272 242.988C192.272 242.549 192.22 242.151 192.116 241.794C192.012 241.437 191.852 241.128 191.636 240.868C191.421 240.607 191.145 240.406 190.811 240.265C190.483 240.124 190.1 240.053 189.661 240.053C189.066 240.053 188.605 240.146 188.277 240.332C187.958 240.518 187.69 240.73 187.474 240.968Z" fill="#242424"/>
<path fill-rule="evenodd" clip-rule="evenodd" d="M192.964 265.836C195.49 265.864 197.044 264.246 196.189 262.543C195.335 260.839 194.483 260.456 193.141 259.221C191.798 257.986 189.846 255.85 189.855 255.346C189.865 255.85 187.994 257.986 186.651 259.221C185.309 260.456 184.458 260.839 183.602 262.543C182.748 264.246 184.302 265.864 186.828 265.836C188.562 265.816 189.342 264.82 189.66 264.198L189.66 265.013C189.66 265.013 189.107 267.952 185.2 268.274L184.577 268.274L184.577 268.732L195.215 268.732L195.215 268.274L194.592 268.274C190.686 267.952 190.132 265.013 190.132 265.013L190.132 264.305C190.507 264.928 191.326 265.817 192.964 265.836Z" fill="#242424"/>
<path fill-rule="evenodd" clip-rule="evenodd" d="M225.089 297.275C230.583 297.337 233.962 293.818 232.103 290.114C230.244 286.409 228.391 285.576 225.473 282.89C222.554 280.205 218.309 275.559 218.329 274.463C218.35 275.559 214.28 280.205 211.36 282.89C208.442 285.576 206.591 286.409 204.73 290.114C202.872 293.818 206.252 297.337 211.745 297.275C215.515 297.233 217.212 295.067 217.904 293.713L217.904 295.485C217.904 295.485 216.701 301.878 208.204 302.577L206.85 302.577L206.85 303.574L229.985 303.574L229.985 302.577L228.629 302.577C220.135 301.878 218.929 295.485 218.929 295.485L218.929 293.945C219.745 295.301 221.528 297.235 225.089 297.275Z" fill="#242424"/>
</g>
<rect x="177.5" y="225.5" width="58.1669" height="81.8337" rx="6.60003" stroke="#15C600"/>
</g>
<g filter="url(#filter4_d_151_3999)">
<rect x="201.296" y="237.296" width="58.5753" height="82.2421" rx="9.17088" fill="white" stroke="#55657E" stroke-width="0.591669" stroke-dasharray="4.73 4.73"/>
<g clip-path="url(#clip5_151_3999)">
<rect x="201" y="237" width="59.1669" height="82.8337" rx="7.10003" fill="url(#paint4_linear_151_3999)"/>
<path d="M211.474 252.968L208.907 252.354L209.834 244.119H218.962V246.719H212.478L212.077 250.323C212.292 250.197 212.62 250.063 213.059 249.922C213.497 249.773 213.989 249.698 214.532 249.698C215.32 249.698 216.019 249.821 216.63 250.067C217.24 250.312 217.757 250.669 218.181 251.138C218.612 251.607 218.939 252.18 219.163 252.857C219.386 253.534 219.497 254.3 219.497 255.155C219.497 255.877 219.386 256.565 219.163 257.22C218.939 257.867 218.601 258.447 218.147 258.961C217.693 259.467 217.124 259.865 216.44 260.155C215.755 260.445 214.944 260.59 214.007 260.59C213.308 260.59 212.631 260.486 211.976 260.277C211.329 260.069 210.745 259.76 210.224 259.351C209.711 258.942 209.298 258.447 208.985 257.867C208.68 257.279 208.52 256.61 208.506 255.858H211.697C211.742 256.32 211.861 256.718 212.054 257.052C212.255 257.38 212.519 257.633 212.847 257.811C213.174 257.99 213.557 258.079 213.996 258.079C214.405 258.079 214.755 258.001 215.045 257.845C215.335 257.688 215.569 257.473 215.748 257.197C215.926 256.915 216.057 256.587 216.139 256.215C216.228 255.836 216.272 255.427 216.272 254.988C216.272 254.549 216.22 254.151 216.116 253.794C216.012 253.437 215.852 253.128 215.636 252.868C215.421 252.607 215.145 252.406 214.811 252.265C214.483 252.124 214.1 252.053 213.661 252.053C213.066 252.053 212.605 252.146 212.277 252.332C211.958 252.518 211.69 252.73 211.474 252.968Z" fill="#EE3D3D"/>
<path fill-rule="evenodd" clip-rule="evenodd" d="M217.117 267.673C214.465 267.71 213.938 270.457 213.938 270.457C213.938 270.457 213.326 267.71 210.674 267.673C208.022 267.636 206.389 269.751 207.287 271.978C208.185 274.205 209.079 274.706 210.488 276.32C211.898 277.934 213.948 280.727 213.938 281.385C213.928 280.727 215.893 277.934 217.302 276.32C218.711 274.706 219.606 274.205 220.503 271.978C221.401 269.751 219.769 267.636 217.117 267.673Z" fill="#EE3D3D"/>
<path fill-rule="evenodd" clip-rule="evenodd" d="M249.423 287.174C243.656 287.255 242.509 293.227 242.509 293.227C242.509 293.227 241.178 287.255 235.411 287.174C229.643 287.094 226.094 291.694 228.046 296.536C229.998 301.378 231.943 302.467 235.008 305.978C238.073 309.488 242.531 315.561 242.509 316.993C242.487 315.561 246.761 309.488 249.826 305.978C252.891 302.467 254.836 301.378 256.788 296.536C258.74 291.694 255.19 287.094 249.423 287.174Z" fill="#EE3D3D"/>
</g>
<rect x="201.5" y="237.5" width="58.1669" height="81.8337" rx="6.60003" stroke="#15C600"/>
</g>
<g filter="url(#filter5_d_151_3999)">
<rect x="224.296" y="248.296" width="58.5753" height="82.2421" rx="9.17088" fill="white" stroke="#55657E" stroke-width="0.591669" stroke-dasharray="4.73 4.73"/>
<g clip-path="url(#clip6_151_3999)">
<rect x="224" y="248" width="59.1669" height="82.8337" rx="7.10003" fill="url(#paint5_linear_151_3999)"/>
<path d="M237.275 257.898L232.856 271.367H229.296L235.333 255.119H237.599L237.275 257.898ZM240.946 271.367L236.516 257.898L236.159 255.119H238.447L244.517 271.367H240.946ZM240.745 265.318V267.941H232.164V265.318H240.745Z" fill="#EE3D3D"/>
<path fill-rule="evenodd" clip-rule="evenodd" d="M240.117 278.673C237.465 278.71 236.938 281.457 236.938 281.457C236.938 281.457 236.326 278.71 233.674 278.673C231.022 278.636 229.389 280.751 230.287 282.978C231.185 285.205 232.079 285.706 233.488 287.32C234.898 288.934 236.948 291.727 236.938 292.385C236.928 291.727 238.893 288.934 240.302 287.32C241.711 285.706 242.606 285.205 243.503 282.978C244.401 280.751 242.769 278.636 240.117 278.673Z" fill="#EE3D3D"/>
<path fill-rule="evenodd" clip-rule="evenodd" d="M272.422 298.174C266.655 298.255 265.508 304.227 265.508 304.227C265.508 304.227 264.177 298.255 258.41 298.174C252.642 298.094 249.093 302.694 251.045 307.536C252.997 312.378 254.942 313.467 258.007 316.978C261.072 320.488 265.53 326.561 265.508 327.993C265.486 326.561 269.76 320.488 272.825 316.978C275.89 313.467 277.835 312.378 279.787 307.536C281.739 302.694 278.189 298.094 272.422 298.174Z" fill="#EE3D3D"/>
</g>
<rect x="224.5" y="248.5" width="58.1669" height="81.8337" rx="6.60003" stroke="#15C600"/>
</g>
<g clip-path="url(#clip7_151_3999)">
<path d="M365.833 -39.583C365.833 -43.449 368.967 -46.583 372.833 -46.583H417.166C421.032 -46.583 424.166 -43.449 424.166 -39.583V31.0003C424.166 34.8663 421.032 38.0003 417.166 38.0003H372.833C368.967 38.0003 365.833 34.8663 365.833 31.0003V-39.583Z" fill="#A0A0A0"/>
<path d="M365.833 -38.9997C365.833 -43.1878 369.228 -46.583 373.416 -46.583H416.583C420.771 -46.583 424.166 -43.1878 424.166 -38.9997V18.8281C424.166 26.3024 421.032 32.3614 417.166 32.3614H372.833C368.967 32.3614 365.833 26.3024 365.833 18.8281V-38.9997Z" fill="#ED5149"/>
<rect x="373.417" y="-9.83301" width="44.3333" height="11.0833" rx="5.54167" fill="white"/>
<g clip-path="url(#clip8_151_3999)">
<line x1="370.706" y1="-46.2062" x2="419.706" y2="2.79376" stroke="white" stroke-width="0.583333"/>
<line y1="-0.291667" x2="69.2965" y2="-0.291667" transform="matrix(-0.707107 0.707107 0.707107 0.707107 419.5 -46)" stroke="white" stroke-width="0.583333"/>
<line x1="354.372" y1="-46.2062" x2="403.372" y2="2.79376" stroke="white" stroke-width="0.583333"/>
<line y1="-0.291667" x2="69.2965" y2="-0.291667" transform="matrix(-0.707107 0.707107 0.707107 0.707107 403.167 -46)" stroke="white" stroke-width="0.583333"/>
<line x1="387.039" y1="-46.2062" x2="436.039" y2="2.79376" stroke="white" stroke-width="0.583333"/>
<line y1="-0.291667" x2="69.2965" y2="-0.291667" transform="matrix(-0.707107 0.707107 0.707107 0.707107 435.833 -46)" stroke="white" stroke-width="0.583333"/>
<line x1="354.372" y1="-13.5392" x2="403.372" y2="35.4608" stroke="white" stroke-width="0.583333"/>
<line y1="-0.291667" x2="69.2965" y2="-0.291667" transform="matrix(-0.707107 0.707107 0.707107 0.707107 403.167 -13.333)" stroke="white" stroke-width="0.583333"/>
<line x1="387.039" y1="-13.5392" x2="436.039" y2="35.4608" stroke="white" stroke-width="0.583333"/>
<line y1="-0.291667" x2="69.2965" y2="-0.291667" transform="matrix(-0.707107 0.707107 0.707107 0.707107 435.833 -13.333)" stroke="white" stroke-width="0.583333"/>
<line x1="370.706" y1="-14.7062" x2="419.706" y2="34.2938" stroke="white" stroke-width="0.583333"/>
<line y1="-0.291667" x2="69.2965" y2="-0.291667" transform="matrix(-0.707107 0.707107 0.707107 0.707107 419.5 -14.5)" stroke="white" stroke-width="0.583333"/>
</g>
<path d="M376.084 -1.13333C375.726 -1.13333 375.458 -1.19556 375.279 -1.32C375.108 -1.44444 375.022 -1.68167 375.022 -2.03167C375.022 -2.28833 375.069 -2.60722 375.162 -2.98833C375.225 -3.245 375.314 -3.57556 375.431 -3.98C375.555 -4.38444 375.695 -4.81222 375.851 -5.26333C376.014 -5.72222 376.181 -6.16556 376.352 -6.59333C376.523 -7.02889 376.691 -7.40222 376.854 -7.71333C377.056 -8.10222 377.216 -8.37445 377.332 -8.53C377.449 -8.69333 377.577 -8.79056 377.717 -8.82167C377.78 -8.83722 377.853 -8.84889 377.939 -8.85667C378.032 -8.86445 378.126 -8.86833 378.219 -8.86833C378.305 -8.86833 378.406 -8.86833 378.522 -8.86833C378.647 -8.86833 378.725 -8.87222 378.756 -8.88C378.608 -8.77111 378.425 -8.53778 378.207 -8.18C377.99 -7.83 377.764 -7.40611 377.531 -6.90833C377.297 -6.41056 377.076 -5.88556 376.866 -5.33333C376.656 -4.78111 376.485 -4.24833 376.352 -3.735C376.477 -3.95278 376.605 -4.16278 376.737 -4.365C376.87 -4.56722 376.998 -4.74611 377.122 -4.90167C377.371 -5.205 377.636 -5.45778 377.916 -5.66C378.196 -5.86222 378.468 -5.96333 378.732 -5.96333C378.958 -5.96333 379.145 -5.88167 379.292 -5.71833C379.448 -5.555 379.526 -5.27889 379.526 -4.89C379.526 -4.47778 379.436 -4.06167 379.257 -3.64167C379.078 -3.22944 378.849 -2.85222 378.569 -2.51C378.577 -2.38556 378.616 -2.28056 378.686 -2.195C378.756 -2.11722 378.845 -2.07833 378.954 -2.07833C379.063 -2.07833 379.172 -2.11722 379.281 -2.195C379.397 -2.27278 379.506 -2.37389 379.607 -2.49833C379.716 -2.62278 379.817 -2.74333 379.911 -2.86C380.066 -3.06222 380.214 -3.28 380.354 -3.51333C380.502 -3.74667 380.626 -3.96056 380.727 -4.155C380.766 -4.21722 380.793 -4.24833 380.809 -4.24833C380.856 -4.24833 380.879 -4.18222 380.879 -4.05C380.879 -3.98778 380.867 -3.91778 380.844 -3.84C380.828 -3.76222 380.801 -3.68444 380.762 -3.60667C380.669 -3.45111 380.56 -3.26833 380.436 -3.05833C380.311 -2.84833 380.171 -2.64222 380.016 -2.44C379.868 -2.23778 379.705 -2.06278 379.526 -1.915C379.355 -1.775 379.168 -1.68556 378.966 -1.64667C378.95 -1.64667 378.931 -1.64278 378.907 -1.635C378.884 -1.635 378.865 -1.635 378.849 -1.635C378.717 -1.635 378.588 -1.67389 378.464 -1.75167C378.34 -1.82944 378.25 -1.94222 378.196 -2.09C378.102 -1.99667 378.009 -1.91111 377.916 -1.83333C377.822 -1.75556 377.729 -1.68167 377.636 -1.61167C377.418 -1.46389 377.185 -1.34722 376.936 -1.26167C376.687 -1.17611 376.403 -1.13333 376.084 -1.13333ZM376.352 -1.55333C376.485 -1.55333 376.636 -1.61944 376.807 -1.75167C376.986 -1.89167 377.157 -2.06278 377.321 -2.265C377.492 -2.475 377.636 -2.67722 377.752 -2.87167C377.931 -3.175 378.083 -3.49 378.207 -3.81667C378.332 -4.14333 378.394 -4.41556 378.394 -4.63333C378.394 -4.82778 378.336 -4.94056 378.219 -4.97167C378.203 -4.97945 378.184 -4.98333 378.161 -4.98333C378.137 -4.98333 378.118 -4.98333 378.102 -4.98333C377.947 -4.98333 377.772 -4.90556 377.577 -4.75C377.437 -4.64111 377.278 -4.48167 377.099 -4.27167C376.92 -4.06167 376.745 -3.82444 376.574 -3.56C376.411 -3.30333 376.275 -3.04278 376.166 -2.77833C376.065 -2.51389 376.014 -2.26889 376.014 -2.04333C376.014 -2.01222 376.014 -1.97722 376.014 -1.93833C376.022 -1.89944 376.03 -1.86056 376.037 -1.82167C376.076 -1.64278 376.181 -1.55333 376.352 -1.55333ZM380.93 -1.18C380.712 -1.18 380.549 -1.25778 380.44 -1.41333C380.331 -1.57667 380.277 -1.79444 380.277 -2.06667C380.277 -2.10556 380.277 -2.14444 380.277 -2.18333C380.277 -2.22222 380.28 -2.26111 380.288 -2.3C380.327 -2.59556 380.393 -2.93 380.487 -3.30333C380.588 -3.67667 380.704 -4.06944 380.837 -4.48167C380.914 -4.715 381.012 -5.00667 381.128 -5.35667C381.253 -5.71445 381.397 -6.09556 381.56 -6.5C381.723 -6.91222 381.902 -7.32056 382.097 -7.725C382.299 -8.12945 382.52 -8.495 382.762 -8.82167C383.003 -9.15611 383.255 -9.42445 383.52 -9.62667C383.792 -9.82889 384.08 -9.93 384.383 -9.93C384.632 -9.93 384.803 -9.86778 384.897 -9.74333C384.99 -9.62667 385.037 -9.48667 385.037 -9.32333C385.037 -9.15222 385.005 -8.97722 384.943 -8.79833C384.881 -8.62722 384.819 -8.48333 384.757 -8.36667C384.617 -8.08667 384.434 -7.77167 384.208 -7.42167C383.983 -7.07167 383.745 -6.745 383.497 -6.44167C383.349 -6.24722 383.166 -6.02945 382.948 -5.78833C382.73 -5.54722 382.524 -5.32556 382.33 -5.12333C382.143 -4.92111 382.007 -4.78111 381.922 -4.70333L381.735 -4.16667C381.68 -4.01889 381.626 -3.84389 381.572 -3.64167C381.525 -3.43944 381.482 -3.23722 381.443 -3.035C381.412 -2.84056 381.385 -2.66944 381.362 -2.52167C381.354 -2.49056 381.35 -2.45944 381.35 -2.42833C381.35 -2.39722 381.35 -2.37 381.35 -2.34667C381.35 -2.11333 381.439 -1.99667 381.618 -1.99667C381.727 -1.99667 381.863 -2.04722 382.027 -2.14833C382.182 -2.24167 382.33 -2.36222 382.47 -2.51C382.618 -2.66556 382.723 -2.78222 382.785 -2.86C382.94 -3.06222 383.088 -3.27611 383.228 -3.50167C383.368 -3.735 383.489 -3.94889 383.59 -4.14333C383.629 -4.20556 383.656 -4.23667 383.672 -4.23667C383.718 -4.23667 383.742 -4.17056 383.742 -4.03833C383.742 -3.97611 383.73 -3.90222 383.707 -3.81667C383.691 -3.73889 383.664 -3.665 383.625 -3.595C383.516 -3.40833 383.388 -3.20222 383.24 -2.97667C383.092 -2.75111 382.94 -2.53333 382.785 -2.32333C382.668 -2.16778 382.505 -2.00056 382.295 -1.82167C382.085 -1.64278 381.859 -1.49111 381.618 -1.36667C381.377 -1.24222 381.148 -1.18 380.93 -1.18ZM382.155 -5.36833C382.544 -5.82722 382.937 -6.31722 383.333 -6.83833C383.738 -7.36722 384.072 -7.90389 384.337 -8.44833C384.352 -8.48722 384.387 -8.565 384.442 -8.68167C384.496 -8.79833 384.547 -8.92667 384.593 -9.06667C384.64 -9.21445 384.663 -9.33889 384.663 -9.44C384.663 -9.57222 384.613 -9.63833 384.512 -9.63833H384.43C384.329 -9.63833 384.208 -9.56833 384.068 -9.42833C383.936 -9.28833 383.8 -9.10167 383.66 -8.86833C383.481 -8.57278 383.306 -8.23056 383.135 -7.84167C382.964 -7.46056 382.797 -7.05611 382.633 -6.62833C382.47 -6.20056 382.31 -5.78056 382.155 -5.36833ZM386.752 -1.18C386.511 -1.18 386.344 -1.27333 386.251 -1.46C386.165 -1.64667 386.122 -1.87611 386.122 -2.14833C386.122 -2.39722 386.146 -2.64222 386.192 -2.88333C386.216 -2.99222 386.239 -3.10111 386.262 -3.21C386.293 -3.32667 386.328 -3.44722 386.367 -3.57167C386.235 -3.33056 386.095 -3.09722 385.947 -2.87167C385.807 -2.64611 385.663 -2.44778 385.516 -2.27667C385.267 -1.97333 385.002 -1.72056 384.722 -1.51833C384.45 -1.31611 384.178 -1.215 383.906 -1.215C383.688 -1.215 383.501 -1.29278 383.346 -1.44833C383.198 -1.61167 383.124 -1.89167 383.124 -2.28833C383.124 -2.69278 383.194 -3.10889 383.334 -3.53667C383.474 -3.96444 383.668 -4.36111 383.917 -4.72667C384.174 -5.1 384.473 -5.39945 384.816 -5.625C385.166 -5.85056 385.547 -5.96333 385.959 -5.96333C386.091 -5.96333 386.235 -5.94389 386.391 -5.905C386.546 -5.86611 386.69 -5.79222 386.822 -5.68333C386.955 -5.58222 387.044 -5.43833 387.091 -5.25167C387.098 -5.26722 387.106 -5.27889 387.114 -5.28667C387.13 -5.29444 387.141 -5.30222 387.149 -5.31C387.258 -5.48111 387.382 -5.625 387.522 -5.74167C387.662 -5.85833 387.818 -5.91667 387.989 -5.91667C388.075 -5.91667 388.195 -5.91278 388.351 -5.905C388.506 -5.89722 388.619 -5.89722 388.689 -5.905C388.65 -5.87389 388.596 -5.81167 388.526 -5.71833C388.463 -5.625 388.405 -5.52778 388.351 -5.42667C388.296 -5.33333 388.253 -5.25945 388.222 -5.205C388.012 -4.80056 387.822 -4.4 387.651 -4.00333C387.48 -3.60667 387.347 -3.22556 387.254 -2.86C387.231 -2.78222 387.215 -2.70833 387.207 -2.63833C387.2 -2.57611 387.196 -2.51389 387.196 -2.45167C387.196 -2.24944 387.262 -2.14833 387.394 -2.14833C387.518 -2.14833 387.674 -2.22611 387.861 -2.38167C388.133 -2.59944 388.37 -2.87167 388.572 -3.19833C388.782 -3.525 388.965 -3.84 389.121 -4.14333C389.152 -4.19778 389.179 -4.225 389.202 -4.225C389.249 -4.225 389.272 -4.15889 389.272 -4.02667C389.272 -3.96444 389.261 -3.89444 389.237 -3.81667C389.222 -3.73889 389.195 -3.665 389.156 -3.595C389.047 -3.40833 388.903 -3.17889 388.724 -2.90667C388.553 -2.63444 388.358 -2.36611 388.141 -2.10167C387.923 -1.845 387.693 -1.62722 387.452 -1.44833C387.219 -1.26944 386.986 -1.18 386.752 -1.18ZM384.431 -2.195C384.454 -2.18722 384.489 -2.18333 384.536 -2.18333C384.683 -2.18333 384.843 -2.24556 385.014 -2.37C385.185 -2.49444 385.356 -2.65389 385.527 -2.84833C385.698 -3.05056 385.85 -3.25278 385.982 -3.455C386.325 -3.99944 386.577 -4.40778 386.741 -4.68C386.904 -4.95222 386.997 -5.10778 387.021 -5.14667C386.982 -5.27889 386.912 -5.37611 386.811 -5.43833C386.717 -5.50056 386.605 -5.53167 386.472 -5.53167C386.301 -5.53167 386.118 -5.485 385.924 -5.39167C385.737 -5.29833 385.578 -5.18556 385.446 -5.05333C385.243 -4.85111 385.049 -4.59056 384.862 -4.27167C384.683 -3.95278 384.536 -3.63778 384.419 -3.32667C384.31 -3.01556 384.256 -2.755 384.256 -2.545C384.256 -2.35056 384.314 -2.23389 384.431 -2.195ZM390.225 -1.13333C389.859 -1.13333 389.564 -1.19944 389.338 -1.33167C389.113 -1.47167 388.949 -1.65444 388.848 -1.88C388.755 -2.11333 388.708 -2.36222 388.708 -2.62667C388.708 -2.89111 388.747 -3.15944 388.825 -3.43167C388.903 -3.70389 389.008 -3.96056 389.14 -4.20167C389.412 -4.69167 389.747 -5.09611 390.143 -5.415C390.548 -5.73389 391.042 -5.89333 391.625 -5.89333C391.991 -5.89333 392.274 -5.8 392.477 -5.61333C392.679 -5.42667 392.78 -5.20889 392.78 -4.96C392.78 -4.72667 392.71 -4.51278 392.57 -4.31833C392.438 -4.12389 392.259 -4.02667 392.033 -4.02667C391.909 -4.02667 391.8 -4.06167 391.707 -4.13167C391.613 -4.20167 391.567 -4.31056 391.567 -4.45833C391.567 -4.48167 391.567 -4.505 391.567 -4.52833C391.574 -4.55945 391.582 -4.59056 391.59 -4.62167C391.637 -4.62944 391.703 -4.64111 391.788 -4.65667C391.882 -4.68 391.956 -4.73445 392.01 -4.82C392.111 -4.96 392.162 -5.1 392.162 -5.24C392.162 -5.32556 392.134 -5.39556 392.08 -5.45C392.033 -5.51222 391.952 -5.54333 391.835 -5.54333C391.625 -5.54333 391.411 -5.46556 391.193 -5.31C390.976 -5.16222 390.769 -4.96389 390.575 -4.715C390.388 -4.46611 390.225 -4.19389 390.085 -3.89833C389.867 -3.42389 389.758 -2.98833 389.758 -2.59167C389.758 -2.30389 389.824 -2.06667 389.957 -1.88C390.089 -1.70111 390.299 -1.61167 390.587 -1.61167C390.952 -1.61167 391.294 -1.73611 391.613 -1.985C391.94 -2.24167 392.232 -2.53722 392.488 -2.87167C392.659 -3.08944 392.811 -3.31111 392.943 -3.53667C393.083 -3.76222 393.2 -3.96833 393.293 -4.155C393.324 -4.20944 393.352 -4.23667 393.375 -4.23667C393.422 -4.23667 393.445 -4.17056 393.445 -4.03833C393.445 -3.97611 393.433 -3.90222 393.41 -3.81667C393.394 -3.73889 393.367 -3.665 393.328 -3.595C393.196 -3.37722 393.06 -3.15944 392.92 -2.94167C392.788 -2.72389 392.644 -2.51778 392.488 -2.32333C392.224 -1.98111 391.913 -1.69722 391.555 -1.47167C391.197 -1.24611 390.754 -1.13333 390.225 -1.13333ZM392.155 -1.25C392.24 -1.40556 392.337 -1.60389 392.446 -1.845C392.547 -2.08611 392.649 -2.34667 392.75 -2.62667C392.859 -2.91444 392.956 -3.19056 393.041 -3.455C393.236 -4.05389 393.434 -4.645 393.636 -5.22833C393.846 -5.81167 394.056 -6.31722 394.266 -6.745C394.352 -6.93167 394.461 -7.15722 394.593 -7.42167C394.725 -7.69389 394.873 -7.97389 395.036 -8.26167C395.207 -8.54945 395.39 -8.81778 395.585 -9.06667C395.787 -9.32333 396.001 -9.52945 396.226 -9.685C396.46 -9.84056 396.701 -9.91833 396.95 -9.91833C397.199 -9.91833 397.366 -9.86389 397.451 -9.755C397.545 -9.64611 397.591 -9.51 397.591 -9.34667C397.591 -9.16778 397.552 -8.97722 397.475 -8.775C397.397 -8.57278 397.323 -8.40556 397.253 -8.27333C397.097 -7.97778 396.895 -7.64333 396.646 -7.27C396.405 -6.90445 396.152 -6.56222 395.888 -6.24333C395.756 -6.08 395.596 -5.89333 395.41 -5.68333C395.223 -5.48111 395.036 -5.28667 394.85 -5.1C394.671 -4.91333 394.515 -4.75389 394.383 -4.62167L394.173 -4.03833C394.375 -4.30278 394.589 -4.54 394.815 -4.75C395.04 -4.96 395.285 -5.17 395.55 -5.38C395.744 -5.53556 395.946 -5.65222 396.156 -5.73C396.374 -5.80778 396.572 -5.84667 396.751 -5.84667C396.884 -5.84667 397.004 -5.82722 397.113 -5.78833C397.23 -5.74945 397.315 -5.68722 397.37 -5.60167C397.409 -5.54722 397.436 -5.48889 397.451 -5.42667C397.467 -5.36445 397.475 -5.30222 397.475 -5.24C397.475 -5.11556 397.451 -4.995 397.405 -4.87833C397.304 -4.63722 397.156 -4.43111 396.961 -4.26C396.775 -4.09667 396.561 -3.97222 396.32 -3.88667C396.234 -3.85556 396.121 -3.82056 395.981 -3.78167C395.841 -3.74278 395.717 -3.71556 395.608 -3.7C395.624 -3.59111 395.635 -3.48222 395.643 -3.37333C395.659 -3.26444 395.674 -3.15556 395.69 -3.04667C395.736 -2.78222 395.795 -2.55667 395.865 -2.37C395.942 -2.18333 396.063 -2.09 396.226 -2.09C396.374 -2.09 396.572 -2.18722 396.821 -2.38167C397 -2.52167 397.156 -2.68111 397.288 -2.86C397.444 -3.06222 397.591 -3.27611 397.731 -3.50167C397.871 -3.735 397.992 -3.94889 398.093 -4.14333C398.124 -4.19778 398.151 -4.225 398.175 -4.225C398.221 -4.225 398.245 -4.16278 398.245 -4.03833C398.245 -3.96833 398.233 -3.89056 398.21 -3.805C398.194 -3.72722 398.163 -3.64944 398.116 -3.57167C398.007 -3.385 397.879 -3.18278 397.731 -2.965C397.591 -2.74722 397.444 -2.53333 397.288 -2.32333C397.202 -2.20667 397.094 -2.07833 396.961 -1.93833C396.829 -1.79833 396.689 -1.67 396.541 -1.55333C396.409 -1.45222 396.25 -1.35889 396.063 -1.27333C395.876 -1.19556 395.694 -1.15667 395.515 -1.15667C395.375 -1.15667 395.242 -1.18778 395.118 -1.25C395.001 -1.31222 394.904 -1.41722 394.826 -1.565C394.741 -1.72833 394.675 -1.92278 394.628 -2.14833C394.581 -2.37389 394.558 -2.59944 394.558 -2.825C394.558 -2.94944 394.562 -3.07 394.57 -3.18667C394.585 -3.31111 394.609 -3.42389 394.64 -3.525C394.679 -3.65722 394.717 -3.74667 394.756 -3.79333C394.795 -3.84 394.846 -3.86333 394.908 -3.86333C395.134 -3.87111 395.355 -3.90222 395.573 -3.95667C395.791 -4.01889 395.974 -4.11611 396.121 -4.24833C396.3 -4.40389 396.39 -4.57889 396.39 -4.77333C396.39 -4.85889 396.359 -4.93278 396.296 -4.995C396.242 -5.065 396.149 -5.1 396.016 -5.1C395.837 -5.1 395.662 -5.04167 395.491 -4.925C395.32 -4.80833 395.157 -4.65667 395.001 -4.47C394.846 -4.28333 394.702 -4.08889 394.57 -3.88667C394.437 -3.69222 394.325 -3.51333 394.231 -3.35C394.161 -3.23333 394.084 -3.08167 393.998 -2.895C393.912 -2.70833 393.823 -2.51389 393.73 -2.31167C393.636 -2.10944 393.543 -1.92667 393.45 -1.76333C393.356 -1.6 393.267 -1.47944 393.181 -1.40167C393.08 -1.30056 392.975 -1.25 392.866 -1.25H392.155ZM394.686 -5.415C395.075 -5.86611 395.456 -6.34056 395.83 -6.83833C396.203 -7.33611 396.522 -7.84556 396.786 -8.36667C396.81 -8.40556 396.849 -8.48722 396.903 -8.61167C396.957 -8.73611 397.008 -8.87222 397.055 -9.02C397.109 -9.16778 397.136 -9.29611 397.136 -9.405C397.136 -9.545 397.082 -9.615 396.973 -9.615C396.864 -9.615 396.732 -9.52167 396.576 -9.335C396.429 -9.14833 396.269 -8.89945 396.098 -8.58833C395.935 -8.285 395.767 -7.94667 395.596 -7.57333C395.425 -7.20778 395.262 -6.83445 395.106 -6.45333C394.951 -6.08 394.811 -5.73389 394.686 -5.415ZM400.23 -6.85C400.027 -6.92 399.926 -7.05222 399.926 -7.24667C399.926 -7.42556 399.996 -7.60833 400.136 -7.795C400.284 -7.98945 400.443 -8.11389 400.615 -8.16833C400.653 -8.18389 400.685 -8.19167 400.708 -8.19167C400.739 -8.19167 400.77 -8.19167 400.801 -8.19167C400.933 -8.19167 401.042 -8.15278 401.128 -8.075C401.213 -7.99722 401.256 -7.90778 401.256 -7.80667C401.256 -7.66667 401.182 -7.55 401.035 -7.45667C400.918 -7.47222 400.805 -7.445 400.696 -7.375C400.587 -7.305 400.49 -7.21945 400.405 -7.11833C400.327 -7.01722 400.268 -6.92778 400.23 -6.85ZM395.108 1.49167C395.069 1.49944 395.026 1.50333 394.98 1.50333C394.933 1.50333 394.89 1.50333 394.851 1.50333C394.595 1.50333 394.357 1.44889 394.14 1.34C393.922 1.23889 393.813 1.04833 393.813 0.768334C393.813 0.612778 393.86 0.453334 393.953 0.29C394.038 0.126667 394.171 0.0216669 394.35 -0.0249998C394.365 -0.0327776 394.385 -0.0366665 394.408 -0.0366665C394.431 -0.0366665 394.451 -0.0366665 394.466 -0.0366665C394.676 -0.0366665 394.816 0.0450002 394.886 0.208333C394.871 0.216111 394.847 0.239445 394.816 0.278334C394.785 0.325 394.762 0.36 394.746 0.383334C394.676 0.523334 394.641 0.647778 394.641 0.756667C394.641 0.881111 394.684 0.978334 394.77 1.04833C394.855 1.11833 394.964 1.15333 395.096 1.15333C395.205 1.15333 395.326 1.12611 395.458 1.07167C395.582 1.025 395.711 0.951111 395.843 0.85C396.092 0.655556 396.294 0.414445 396.45 0.126667C396.605 -0.161111 396.741 -0.441111 396.858 -0.713333C397.13 -1.35889 397.371 -2.02389 397.581 -2.70833C397.799 -3.39278 398.032 -4.04222 398.281 -4.65667C398.398 -4.93667 398.499 -5.15833 398.585 -5.32167C398.67 -5.49278 398.791 -5.61333 398.946 -5.68333C399.11 -5.76111 399.355 -5.8 399.681 -5.8H400.148C400 -5.70667 399.852 -5.53167 399.705 -5.275C399.557 -5.02611 399.417 -4.73056 399.285 -4.38833C399.183 -4.13944 399.082 -3.86722 398.981 -3.57167C398.888 -3.28389 398.783 -2.98056 398.666 -2.66167C398.526 -2.28056 398.363 -1.86056 398.176 -1.40167C397.997 -0.950556 397.772 -0.515 397.5 -0.0949998C397.227 0.325 396.897 0.678889 396.508 0.966667C396.119 1.25444 395.652 1.42944 395.108 1.49167ZM403.386 -1.18C403.145 -1.18 402.978 -1.27333 402.885 -1.46C402.799 -1.64667 402.756 -1.87611 402.756 -2.14833C402.756 -2.39722 402.78 -2.64222 402.826 -2.88333C402.85 -2.99222 402.873 -3.10111 402.896 -3.21C402.928 -3.32667 402.963 -3.44722 403.001 -3.57167C402.869 -3.33056 402.729 -3.09722 402.581 -2.87167C402.441 -2.64611 402.298 -2.44778 402.15 -2.27667C401.901 -1.97333 401.636 -1.72056 401.356 -1.51833C401.084 -1.31611 400.812 -1.215 400.54 -1.215C400.322 -1.215 400.135 -1.29278 399.98 -1.44833C399.832 -1.61167 399.758 -1.89167 399.758 -2.28833C399.758 -2.69278 399.828 -3.10889 399.968 -3.53667C400.108 -3.96444 400.303 -4.36111 400.551 -4.72667C400.808 -5.1 401.108 -5.39945 401.45 -5.625C401.8 -5.85056 402.181 -5.96333 402.593 -5.96333C402.725 -5.96333 402.869 -5.94389 403.025 -5.905C403.18 -5.86611 403.324 -5.79222 403.456 -5.68333C403.589 -5.58222 403.678 -5.43833 403.725 -5.25167C403.733 -5.26722 403.74 -5.27889 403.748 -5.28667C403.764 -5.29444 403.775 -5.30222 403.783 -5.31C403.892 -5.48111 404.016 -5.625 404.156 -5.74167C404.296 -5.85833 404.452 -5.91667 404.623 -5.91667C404.709 -5.91667 404.829 -5.91278 404.985 -5.905C405.14 -5.89722 405.253 -5.89722 405.323 -5.905C405.284 -5.87389 405.23 -5.81167 405.16 -5.71833C405.098 -5.625 405.039 -5.52778 404.985 -5.42667C404.93 -5.33333 404.888 -5.25945 404.856 -5.205C404.646 -4.80056 404.456 -4.4 404.285 -4.00333C404.114 -3.60667 403.981 -3.22556 403.888 -2.86C403.865 -2.78222 403.849 -2.70833 403.841 -2.63833C403.834 -2.57611 403.83 -2.51389 403.83 -2.45167C403.83 -2.24944 403.896 -2.14833 404.028 -2.14833C404.153 -2.14833 404.308 -2.22611 404.495 -2.38167C404.767 -2.59944 405.004 -2.87167 405.206 -3.19833C405.416 -3.525 405.599 -3.84 405.755 -4.14333C405.786 -4.19778 405.813 -4.225 405.836 -4.225C405.883 -4.225 405.906 -4.15889 405.906 -4.02667C405.906 -3.96444 405.895 -3.89444 405.871 -3.81667C405.856 -3.73889 405.829 -3.665 405.79 -3.595C405.681 -3.40833 405.537 -3.17889 405.358 -2.90667C405.187 -2.63444 404.993 -2.36611 404.775 -2.10167C404.557 -1.845 404.328 -1.62722 404.086 -1.44833C403.853 -1.26944 403.62 -1.18 403.386 -1.18ZM401.065 -2.195C401.088 -2.18722 401.123 -2.18333 401.17 -2.18333C401.318 -2.18333 401.477 -2.24556 401.648 -2.37C401.819 -2.49444 401.99 -2.65389 402.161 -2.84833C402.333 -3.05056 402.484 -3.25278 402.616 -3.455C402.959 -3.99944 403.211 -4.40778 403.375 -4.68C403.538 -4.95222 403.631 -5.10778 403.655 -5.14667C403.616 -5.27889 403.546 -5.37611 403.445 -5.43833C403.351 -5.50056 403.239 -5.53167 403.106 -5.53167C402.935 -5.53167 402.753 -5.485 402.558 -5.39167C402.371 -5.29833 402.212 -5.18556 402.08 -5.05333C401.878 -4.85111 401.683 -4.59056 401.496 -4.27167C401.318 -3.95278 401.17 -3.63778 401.053 -3.32667C400.944 -3.01556 400.89 -2.755 400.89 -2.545C400.89 -2.35056 400.948 -2.23389 401.065 -2.195ZM406.859 -1.13333C406.494 -1.13333 406.198 -1.19944 405.972 -1.33167C405.747 -1.47167 405.584 -1.65444 405.482 -1.88C405.389 -2.11333 405.342 -2.36222 405.342 -2.62667C405.342 -2.89111 405.381 -3.15944 405.459 -3.43167C405.537 -3.70389 405.642 -3.96056 405.774 -4.20167C406.046 -4.69167 406.381 -5.09611 406.777 -5.415C407.182 -5.73389 407.676 -5.89333 408.259 -5.89333C408.625 -5.89333 408.909 -5.8 409.111 -5.61333C409.313 -5.42667 409.414 -5.20889 409.414 -4.96C409.414 -4.72667 409.344 -4.51278 409.204 -4.31833C409.072 -4.12389 408.893 -4.02667 408.667 -4.02667C408.543 -4.02667 408.434 -4.06167 408.341 -4.13167C408.247 -4.20167 408.201 -4.31056 408.201 -4.45833C408.201 -4.48167 408.201 -4.505 408.201 -4.52833C408.209 -4.55945 408.216 -4.59056 408.224 -4.62167C408.271 -4.62944 408.337 -4.64111 408.422 -4.65667C408.516 -4.68 408.59 -4.73445 408.644 -4.82C408.745 -4.96 408.796 -5.1 408.796 -5.24C408.796 -5.32556 408.769 -5.39556 408.714 -5.45C408.667 -5.51222 408.586 -5.54333 408.469 -5.54333C408.259 -5.54333 408.045 -5.46556 407.827 -5.31C407.61 -5.16222 407.404 -4.96389 407.209 -4.715C407.022 -4.46611 406.859 -4.19389 406.719 -3.89833C406.501 -3.42389 406.392 -2.98833 406.392 -2.59167C406.392 -2.30389 406.459 -2.06667 406.591 -1.88C406.723 -1.70111 406.933 -1.61167 407.221 -1.61167C407.586 -1.61167 407.929 -1.73611 408.247 -1.985C408.574 -2.24167 408.866 -2.53722 409.122 -2.87167C409.294 -3.08944 409.445 -3.31111 409.577 -3.53667C409.717 -3.76222 409.834 -3.96833 409.927 -4.155C409.959 -4.20944 409.986 -4.23667 410.009 -4.23667C410.056 -4.23667 410.079 -4.17056 410.079 -4.03833C410.079 -3.97611 410.067 -3.90222 410.044 -3.81667C410.029 -3.73889 410.001 -3.665 409.962 -3.595C409.83 -3.37722 409.694 -3.15944 409.554 -2.94167C409.422 -2.72389 409.278 -2.51778 409.122 -2.32333C408.858 -1.98111 408.547 -1.69722 408.189 -1.47167C407.831 -1.24611 407.388 -1.13333 406.859 -1.13333ZM408.789 -1.25C408.874 -1.40556 408.972 -1.60389 409.08 -1.845C409.182 -2.08611 409.283 -2.34667 409.384 -2.62667C409.493 -2.91444 409.59 -3.19056 409.675 -3.455C409.87 -4.05389 410.068 -4.645 410.27 -5.22833C410.48 -5.81167 410.69 -6.31722 410.9 -6.745C410.986 -6.93167 411.095 -7.15722 411.227 -7.42167C411.359 -7.69389 411.507 -7.97389 411.67 -8.26167C411.842 -8.54945 412.024 -8.81778 412.219 -9.06667C412.421 -9.32333 412.635 -9.52945 412.86 -9.685C413.094 -9.84056 413.335 -9.91833 413.584 -9.91833C413.833 -9.91833 414 -9.86389 414.085 -9.755C414.179 -9.64611 414.225 -9.51 414.225 -9.34667C414.225 -9.16778 414.187 -8.97722 414.109 -8.775C414.031 -8.57278 413.957 -8.40556 413.887 -8.27333C413.732 -7.97778 413.529 -7.64333 413.28 -7.27C413.039 -6.90445 412.787 -6.56222 412.522 -6.24333C412.39 -6.08 412.23 -5.89333 412.044 -5.68333C411.857 -5.48111 411.67 -5.28667 411.484 -5.1C411.305 -4.91333 411.149 -4.75389 411.017 -4.62167L410.807 -4.03833C411.009 -4.30278 411.223 -4.54 411.449 -4.75C411.674 -4.96 411.919 -5.17 412.184 -5.38C412.378 -5.53556 412.58 -5.65222 412.79 -5.73C413.008 -5.80778 413.207 -5.84667 413.385 -5.84667C413.518 -5.84667 413.638 -5.82722 413.747 -5.78833C413.864 -5.74945 413.949 -5.68722 414.004 -5.60167C414.043 -5.54722 414.07 -5.48889 414.085 -5.42667C414.101 -5.36445 414.109 -5.30222 414.109 -5.24C414.109 -5.11556 414.085 -4.995 414.039 -4.87833C413.938 -4.63722 413.79 -4.43111 413.595 -4.26C413.409 -4.09667 413.195 -3.97222 412.954 -3.88667C412.868 -3.85556 412.755 -3.82056 412.615 -3.78167C412.475 -3.74278 412.351 -3.71556 412.242 -3.7C412.258 -3.59111 412.269 -3.48222 412.277 -3.37333C412.293 -3.26444 412.308 -3.15556 412.324 -3.04667C412.37 -2.78222 412.429 -2.55667 412.499 -2.37C412.577 -2.18333 412.697 -2.09 412.86 -2.09C413.008 -2.09 413.207 -2.18722 413.455 -2.38167C413.634 -2.52167 413.79 -2.68111 413.922 -2.86C414.078 -3.06222 414.225 -3.27611 414.365 -3.50167C414.505 -3.735 414.626 -3.94889 414.727 -4.14333C414.758 -4.19778 414.785 -4.225 414.809 -4.225C414.855 -4.225 414.879 -4.16278 414.879 -4.03833C414.879 -3.96833 414.867 -3.89056 414.844 -3.805C414.828 -3.72722 414.797 -3.64944 414.75 -3.57167C414.642 -3.385 414.513 -3.18278 414.365 -2.965C414.225 -2.74722 414.078 -2.53333 413.922 -2.32333C413.837 -2.20667 413.728 -2.07833 413.595 -1.93833C413.463 -1.79833 413.323 -1.67 413.175 -1.55333C413.043 -1.45222 412.884 -1.35889 412.697 -1.27333C412.51 -1.19556 412.328 -1.15667 412.149 -1.15667C412.009 -1.15667 411.877 -1.18778 411.752 -1.25C411.635 -1.31222 411.538 -1.41722 411.46 -1.565C411.375 -1.72833 411.309 -1.92278 411.262 -2.14833C411.215 -2.37389 411.192 -2.59944 411.192 -2.825C411.192 -2.94944 411.196 -3.07 411.204 -3.18667C411.219 -3.31111 411.243 -3.42389 411.274 -3.525C411.313 -3.65722 411.352 -3.74667 411.39 -3.79333C411.429 -3.84 411.48 -3.86333 411.542 -3.86333C411.768 -3.87111 411.989 -3.90222 412.207 -3.95667C412.425 -4.01889 412.608 -4.11611 412.755 -4.24833C412.934 -4.40389 413.024 -4.57889 413.024 -4.77333C413.024 -4.85889 412.993 -4.93278 412.93 -4.995C412.876 -5.065 412.783 -5.1 412.65 -5.1C412.472 -5.1 412.297 -5.04167 412.125 -4.925C411.954 -4.80833 411.791 -4.65667 411.635 -4.47C411.48 -4.28333 411.336 -4.08889 411.204 -3.88667C411.072 -3.69222 410.959 -3.51333 410.865 -3.35C410.795 -3.23333 410.718 -3.08167 410.632 -2.895C410.547 -2.70833 410.457 -2.51389 410.364 -2.31167C410.27 -2.10944 410.177 -1.92667 410.084 -1.76333C409.99 -1.6 409.901 -1.47944 409.815 -1.40167C409.714 -1.30056 409.609 -1.25 409.5 -1.25H408.789ZM411.32 -5.415C411.709 -5.86611 412.09 -6.34056 412.464 -6.83833C412.837 -7.33611 413.156 -7.84556 413.42 -8.36667C413.444 -8.40556 413.483 -8.48722 413.537 -8.61167C413.592 -8.73611 413.642 -8.87222 413.689 -9.02C413.743 -9.16778 413.77 -9.29611 413.77 -9.405C413.77 -9.545 413.716 -9.615 413.607 -9.615C413.498 -9.615 413.366 -9.52167 413.21 -9.335C413.063 -9.14833 412.903 -8.89945 412.732 -8.58833C412.569 -8.285 412.402 -7.94667 412.23 -7.57333C412.059 -7.20778 411.896 -6.83445 411.74 -6.45333C411.585 -6.08 411.445 -5.73389 411.32 -5.415Z" fill="#ED5149"/>
<path fill-rule="evenodd" clip-rule="evenodd" d="M419.5 -5.75H370.5V28.0833C370.5 29.372 371.544 30.4167 372.833 30.4167H417.166C418.455 30.4167 419.5 29.372 419.5 28.0833V-5.75ZM365.833 -5.75V28.0833C365.833 31.9493 368.967 35.0833 372.833 35.0833H417.166C421.032 35.0833 424.166 31.9493 424.166 28.0833V-5.75H365.833Z" fill="#F2F2F2"/>
</g>
<defs>
<filter id="filter0_d_151_3999" x="172.103" y="28.4086" width="68.9616" height="92.6281" filterUnits="userSpaceOnUse" color-interpolation-filters="sRGB">
<feFlood flood-opacity="0" result="BackgroundImageFix"/>
<feColorMatrix in="SourceAlpha" type="matrix" values="0 0 0 0 0 0 0 0 0 0 0 0 0 0 0 0 0 0 127 0" result="hardAlpha"/>
<feOffset dy="1.30595"/>
<feGaussianBlur stdDeviation="2.44865"/>
<feComposite in2="hardAlpha" operator="out"/>
<feColorMatrix type="matrix" values="0 0 0 0 0 0 0 0 0 0 0 0 0 0 0 0 0 0 0.25 0"/>
<feBlend mode="normal" in2="BackgroundImageFix" result="effect1_dropShadow_151_3999"/>
<feBlend mode="normal" in="SourceGraphic" in2="effect1_dropShadow_151_3999" result="shape"/>
</filter>
<filter id="filter1_d_151_3999" x="196.103" y="40.4086" width="68.9616" height="92.6281" filterUnits="userSpaceOnUse" color-interpolation-filters="sRGB">
<feFlood flood-opacity="0" result="BackgroundImageFix"/>
<feColorMatrix in="SourceAlpha" type="matrix" values="0 0 0 0 0 0 0 0 0 0 0 0 0 0 0 0 0 0 127 0" result="hardAlpha"/>
<feOffset dy="1.30595"/>
<feGaussianBlur stdDeviation="2.44865"/>
<feComposite in2="hardAlpha" operator="out"/>
<feColorMatrix type="matrix" values="0 0 0 0 0 0 0 0 0 0 0 0 0 0 0 0 0 0 0.25 0"/>
<feBlend mode="normal" in2="BackgroundImageFix" result="effect1_dropShadow_151_3999"/>
<feBlend mode="normal" in="SourceGraphic" in2="effect1_dropShadow_151_3999" result="shape"/>
</filter>
<filter id="filter2_d_151_3999" x="219.103" y="51.4086" width="68.9616" height="92.6281" filterUnits="userSpaceOnUse" color-interpolation-filters="sRGB">
<feFlood flood-opacity="0" result="BackgroundImageFix"/>
<feColorMatrix in="SourceAlpha" type="matrix" values="0 0 0 0 0 0 0 0 0 0 0 0 0 0 0 0 0 0 127 0" result="hardAlpha"/>
<feOffset dy="1.30595"/>
<feGaussianBlur stdDeviation="2.44865"/>
<feComposite in2="hardAlpha" operator="out"/>
<feColorMatrix type="matrix" values="0 0 0 0 0 0 0 0 0 0 0 0 0 0 0 0 0 0 0.25 0"/>
<feBlend mode="normal" in2="BackgroundImageFix" result="effect1_dropShadow_151_3999"/>
<feBlend mode="normal" in="SourceGraphic" in2="effect1_dropShadow_151_3999" result="shape"/>
</filter>
<filter id="filter3_d_151_3999" x="172.103" y="221.409" width="68.9616" height="92.6281" filterUnits="userSpaceOnUse" color-interpolation-filters="sRGB">
<feFlood flood-opacity="0" result="BackgroundImageFix"/>
<feColorMatrix in="SourceAlpha" type="matrix" values="0 0 0 0 0 0 0 0 0 0 0 0 0 0 0 0 0 0 127 0" result="hardAlpha"/>
<feOffset dy="1.30595"/>
<feGaussianBlur stdDeviation="2.44865"/>
<feComposite in2="hardAlpha" operator="out"/>
<feColorMatrix type="matrix" values="0 0 0 0 0 0 0 0 0 0 0 0 0 0 0 0 0 0 0.25 0"/>
<feBlend mode="normal" in2="BackgroundImageFix" result="effect1_dropShadow_151_3999"/>
<feBlend mode="normal" in="SourceGraphic" in2="effect1_dropShadow_151_3999" result="shape"/>
</filter>
<filter id="filter4_d_151_3999" x="196.103" y="233.409" width="68.9616" height="92.6281" filterUnits="userSpaceOnUse" color-interpolation-filters="sRGB">
<feFlood flood-opacity="0" result="BackgroundImageFix"/>
<feColorMatrix in="SourceAlpha" type="matrix" values="0 0 0 0 0 0 0 0 0 0 0 0 0 0 0 0 0 0 127 0" result="hardAlpha"/>
<feOffset dy="1.30595"/>
<feGaussianBlur stdDeviation="2.44865"/>
<feComposite in2="hardAlpha" operator="out"/>
<feColorMatrix type="matrix" values="0 0 0 0 0 0 0 0 0 0 0 0 0 0 0 0 0 0 0.25 0"/>
<feBlend mode="normal" in2="BackgroundImageFix" result="effect1_dropShadow_151_3999"/>
<feBlend mode="normal" in="SourceGraphic" in2="effect1_dropShadow_151_3999" result="shape"/>
</filter>
<filter id="filter5_d_151_3999" x="219.103" y="244.409" width="68.9616" height="92.6281" filterUnits="userSpaceOnUse" color-interpolation-filters="sRGB">
<feFlood flood-opacity="0" result="BackgroundImageFix"/>
<feColorMatrix in="SourceAlpha" type="matrix" values="0 0 0 0 0 0 0 0 0 0 0 0 0 0 0 0 0 0 127 0" result="hardAlpha"/>
<feOffset dy="1.30595"/>
<feGaussianBlur stdDeviation="2.44865"/>
<feComposite in2="hardAlpha" operator="out"/>
<feColorMatrix type="matrix" values="0 0 0 0 0 0 0 0 0 0 0 0 0 0 0 0 0 0 0.25 0"/>
<feBlend mode="normal" in2="BackgroundImageFix" result="effect1_dropShadow_151_3999"/>
<feBlend mode="normal" in="SourceGraphic" in2="effect1_dropShadow_151_3999" result="shape"/>
</filter>
<linearGradient id="paint0_linear_151_3999" x1="206.583" y1="32" x2="206.583" y2="114.834" gradientUnits="userSpaceOnUse">
<stop stop-color="#F9F9F9"/>
<stop offset="1" stop-color="#ECECEC"/>
</linearGradient>
<linearGradient id="paint1_linear_151_3999" x1="230.583" y1="44" x2="230.583" y2="126.834" gradientUnits="userSpaceOnUse">
<stop stop-color="#F9F9F9"/>
<stop offset="1" stop-color="#ECECEC"/>
</linearGradient>
<linearGradient id="paint2_linear_151_3999" x1="253.583" y1="55" x2="253.583" y2="137.834" gradientUnits="userSpaceOnUse">
<stop stop-color="#F9F9F9"/>
<stop offset="1" stop-color="#ECECEC"/>
</linearGradient>
<linearGradient id="paint3_linear_151_3999" x1="206.583" y1="225" x2="206.583" y2="307.834" gradientUnits="userSpaceOnUse">
<stop stop-color="#F9F9F9"/>
<stop offset="1" stop-color="#ECECEC"/>
</linearGradient>
<linearGradient id="paint4_linear_151_3999" x1="230.583" y1="237" x2="230.583" y2="319.834" gradientUnits="userSpaceOnUse">
<stop stop-color="#F9F9F9"/>
<stop offset="1" stop-color="#ECECEC"/>
</linearGradient>
<linearGradient id="paint5_linear_151_3999" x1="253.583" y1="248" x2="253.583" y2="330.834" gradientUnits="userSpaceOnUse">
<stop stop-color="#F9F9F9"/>
<stop offset="1" stop-color="#ECECEC"/>
</linearGradient>
<clipPath id="clip0_151_3999">
<rect x="177" y="32" width="59.1669" height="82.8337" rx="7.10003" fill="white"/>
</clipPath>
<clipPath id="clip1_151_3999">
<rect x="201" y="44" width="59.1669" height="82.8337" rx="7.10003" fill="white"/>
</clipPath>
<clipPath id="clip2_151_3999">
<rect x="224" y="55" width="59.1669" height="82.8337" rx="7.10003" fill="white"/>
</clipPath>
<clipPath id="clip3_151_3999">
<rect width="72" height="23" fill="white" transform="translate(14 20)"/>
</clipPath>
<clipPath id="clip4_151_3999">
<rect x="177" y="225" width="59.1669" height="82.8337" rx="7.10003" fill="white"/>
</clipPath>
<clipPath id="clip5_151_3999">
<rect x="201" y="237" width="59.1669" height="82.8337" rx="7.10003" fill="white"/>
</clipPath>
<clipPath id="clip6_151_3999">
<rect x="224" y="248" width="59.1669" height="82.8337" rx="7.10003" fill="white"/>
</clipPath>
<clipPath id="clip7_151_3999">
<rect width="76" height="38" fill="white" transform="translate(357)"/>
</clipPath>
<clipPath id="clip8_151_3999">
<rect width="49" height="80.5" fill="white" transform="translate(370.5 -46)"/>
</clipPath>
</defs>
</svg>
