<svg width="460" height="351" viewBox="0 0 460 351" fill="none" xmlns="http://www.w3.org/2000/svg">
<rect width="460" height="351" rx="5.55773" fill="#0E1923"/>
<rect x="230.5" y="11" width="56" height="21" rx="10.5" fill="#55657E"/>
<path d="M254.421 16.29H255.651V27H254.016V18.255C253.371 18.87 252.546 19.32 251.556 19.605V17.985C252.036 17.865 252.531 17.655 253.071 17.355C253.611 17.025 254.061 16.68 254.421 16.29ZM261.669 16.08C262.749 16.08 263.604 16.335 264.264 16.86C264.894 17.385 265.224 18.105 265.224 19.02C265.224 20.19 264.624 20.985 263.454 21.375C264.084 21.57 264.564 21.87 264.894 22.26C265.254 22.665 265.434 23.19 265.434 23.82C265.434 24.81 265.089 25.62 264.414 26.25C263.694 26.88 262.749 27.21 261.609 27.21C260.514 27.21 259.629 26.925 258.969 26.37C258.219 25.74 257.799 24.825 257.709 23.625H259.359C259.389 24.345 259.614 24.9 260.064 25.29C260.454 25.65 260.964 25.83 261.594 25.83C262.284 25.83 262.839 25.62 263.259 25.23C263.619 24.87 263.814 24.435 263.814 23.895C263.814 23.265 263.619 22.8 263.229 22.5C262.869 22.2 262.329 22.05 261.624 22.05H260.844V20.82H261.609C262.269 20.82 262.764 20.67 263.094 20.385C263.424 20.1 263.604 19.68 263.604 19.14C263.604 18.6 263.439 18.195 263.139 17.91C262.809 17.61 262.314 17.475 261.684 17.475C261.039 17.475 260.529 17.64 260.169 17.97C259.809 18.3 259.584 18.795 259.524 19.455H257.919C258.009 18.39 258.399 17.565 259.104 16.965C259.764 16.365 260.619 16.08 261.669 16.08Z" fill="white"/>
<g filter="url(#filter0_d_14_3422)">
<rect x="177.296" y="32.2958" width="58.5753" height="82.2421" rx="9.17088" fill="#161F2C" stroke="#55657E" stroke-width="0.591669" stroke-dasharray="4.73 4.73"/>
<g clip-path="url(#clip0_14_3422)">
<rect x="177" y="32" width="59.1669" height="82.8337" rx="7.10003" fill="url(#paint0_linear_14_3422)"/>
<path d="M195.564 52.8556V55.3665H184.45V53.2239L189.706 47.5885C190.234 47.0008 190.651 46.4837 190.956 46.0374C191.261 45.5835 191.48 45.1781 191.614 44.821C191.755 44.4565 191.826 44.1105 191.826 43.7832C191.826 43.2922 191.744 42.8719 191.581 42.5222C191.417 42.1651 191.175 41.8899 190.855 41.6964C190.543 41.503 190.156 41.4063 189.695 41.4063C189.204 41.4063 188.78 41.5253 188.422 41.7634C188.073 42.0014 187.805 42.3325 187.619 42.7566C187.44 43.1806 187.351 43.6604 187.351 44.1961H184.126C184.126 43.229 184.357 42.3437 184.818 41.5402C185.279 40.7293 185.93 40.0858 186.771 39.6097C187.612 39.1261 188.608 38.8843 189.762 38.8843C190.9 38.8843 191.86 39.0703 192.641 39.4423C193.429 39.8068 194.024 40.335 194.426 41.0269C194.835 41.7113 195.04 42.5296 195.04 43.4819C195.04 44.0175 194.954 44.542 194.783 45.0553C194.612 45.5612 194.367 46.0671 194.047 46.573C193.734 47.0714 193.355 47.5773 192.908 48.0907C192.462 48.604 191.967 49.1359 191.424 49.6864L188.601 52.8556H195.564Z" fill="#242424"/>
<path fill-rule="evenodd" clip-rule="evenodd" d="M192.964 72.8356C195.49 72.864 197.044 71.2458 196.189 69.5425C195.335 67.8391 194.483 67.4559 193.141 66.221C191.798 64.986 189.846 62.8498 189.855 62.3459C189.865 62.8498 187.994 64.986 186.651 66.221C185.309 67.4559 184.458 67.8391 183.602 69.5425C182.748 71.2458 184.302 72.864 186.828 72.8356C188.562 72.8161 189.342 71.8201 189.66 71.1975L189.66 72.0124C189.66 72.0124 189.107 74.952 185.2 75.2738L184.577 75.2738L184.577 75.7318L195.215 75.7318L195.215 75.2738L194.592 75.2738C190.686 74.952 190.132 72.0124 190.132 72.0124L190.132 71.3045C190.507 71.9278 191.326 72.8172 192.964 72.8356Z" fill="#242424"/>
<path fill-rule="evenodd" clip-rule="evenodd" d="M225.089 104.275C230.583 104.337 233.962 100.818 232.103 97.1139C230.244 93.4097 228.391 92.5763 225.473 89.8907C222.554 87.2052 218.309 82.5595 218.329 81.4637C218.35 82.5595 214.28 87.2052 211.36 89.8907C208.442 92.5763 206.591 93.4097 204.73 97.1139C202.872 100.818 206.252 104.337 211.745 104.275C215.515 104.233 217.212 102.067 217.904 100.713L217.904 102.485C217.904 102.485 216.701 108.878 208.204 109.578L206.85 109.578L206.85 110.574L229.985 110.574L229.985 109.578L228.629 109.578C220.135 108.878 218.929 102.485 218.929 102.485L218.929 100.946C219.745 102.301 221.528 104.235 225.089 104.275Z" fill="#242424"/>
</g>
</g>
<g filter="url(#filter1_d_14_3422)">
<rect x="201.296" y="44.2958" width="58.5753" height="82.2421" rx="9.17088" fill="#161F2C" stroke="#55657E" stroke-width="0.591669" stroke-dasharray="4.73 4.73"/>
<g clip-path="url(#clip1_14_3422)">
<rect x="201" y="44" width="59.1669" height="82.8337" rx="7.10003" fill="url(#paint1_linear_14_3422)"/>
<path d="M215.536 62.3785V51.1189H218.873V62.3785C218.873 63.4647 218.634 64.3983 218.158 65.1795C217.682 65.9532 217.031 66.5484 216.205 66.965C215.387 67.3816 214.465 67.5899 213.438 67.5899C212.374 67.5899 211.433 67.4113 210.615 67.0542C209.796 66.6971 209.153 66.1503 208.684 65.4138C208.215 64.6699 207.981 63.7288 207.981 62.5906H211.34C211.34 63.1857 211.422 63.6581 211.586 64.0078C211.757 64.3574 211.998 64.6067 212.311 64.7554C212.623 64.9042 212.999 64.9786 213.438 64.9786C213.862 64.9786 214.23 64.8782 214.543 64.6773C214.855 64.4765 215.097 64.1826 215.268 63.7958C215.447 63.4089 215.536 62.9365 215.536 62.3785Z" fill="#EE3D3D"/>
<path fill-rule="evenodd" clip-rule="evenodd" d="M217.117 74.6732C214.465 74.7102 213.938 77.4564 213.938 77.4564C213.938 77.4564 213.326 74.7102 210.674 74.6732C208.022 74.636 206.389 76.7513 207.287 78.9779C208.185 81.2044 209.079 81.7054 210.488 83.3196C211.898 84.9339 213.948 87.7264 213.938 88.3851C213.928 87.7264 215.893 84.9339 217.302 83.3196C218.711 81.7054 219.606 81.2044 220.503 78.9779C221.401 76.7513 219.769 74.636 217.117 74.6732Z" fill="#EE3D3D"/>
<path fill-rule="evenodd" clip-rule="evenodd" d="M249.423 94.1745C243.656 94.2551 242.509 100.227 242.509 100.227C242.509 100.227 241.178 94.2551 235.411 94.1745C229.643 94.0938 226.094 98.6937 228.046 103.536C229.998 108.378 231.943 109.467 235.008 112.978C238.073 116.488 242.531 122.561 242.509 123.994C242.487 122.561 246.761 116.488 249.826 112.978C252.891 109.467 254.836 108.378 256.788 103.536C258.74 98.6937 255.19 94.0938 249.423 94.1745Z" fill="#EE3D3D"/>
</g>
</g>
<g filter="url(#filter2_d_14_3422)">
<rect x="224.296" y="55.2958" width="58.5753" height="82.2421" rx="9.17088" fill="#161F2C" stroke="#55657E" stroke-width="0.591669" stroke-dasharray="4.73 4.73"/>
<g clip-path="url(#clip2_14_3422)">
<rect x="224" y="55" width="59.1669" height="82.8337" rx="7.10003" fill="url(#paint2_linear_14_3422)"/>
<path d="M239.284 62.0852V78.3665H236.07V65.79L232.209 67.0175V64.4844L238.938 62.0852H239.284Z" fill="#EE3D3D"/>
<path fill-rule="evenodd" clip-rule="evenodd" d="M240.117 85.6729C237.465 85.71 236.938 88.4561 236.938 88.4561C236.938 88.4561 236.326 85.71 233.674 85.6729C231.022 85.6358 229.389 87.751 230.287 89.9776C231.185 92.2041 232.079 92.7051 233.488 94.3194C234.898 95.9337 236.948 98.7262 236.938 99.3849C236.928 98.7262 238.893 95.9337 240.302 94.3194C241.711 92.7051 242.606 92.2041 243.503 89.9776C244.401 87.751 242.769 85.6358 240.117 85.6729Z" fill="#EE3D3D"/>
<path fill-rule="evenodd" clip-rule="evenodd" d="M272.422 105.175C266.655 105.255 265.508 111.227 265.508 111.227C265.508 111.227 264.177 105.255 258.41 105.175C252.642 105.094 249.093 109.694 251.045 114.536C252.997 119.378 254.942 120.467 258.007 123.978C261.072 127.488 265.53 133.561 265.508 134.994C265.486 133.561 269.76 127.488 272.825 123.978C275.89 120.467 277.835 119.378 279.787 114.536C281.739 109.694 278.189 105.094 272.422 105.175Z" fill="#EE3D3D"/>
</g>
</g>
<g opacity="0.34" clip-path="url(#clip3_14_3422)">
<path d="M14.5501 20H86V43H14V20H14.5501ZM84.8999 21.1061H15.1003V41.894H84.8999V21.1061Z" fill="white" fill-opacity="0.2"/>
<path d="M42.0468 38.2447C42.3271 38.4693 44.0685 38.8085 45.1504 37.9384C45.1504 39.1127 43.6322 40.3426 42.4922 40.6681H48.1355V22.6664C45.7972 21.7086 43.0335 22.5863 42.0739 24.8505C41.3187 26.6327 41.7426 28.5293 43.3478 29.9623C43.4783 29.9974 44.0969 30.1044 44.7944 30.5758L43.988 31.3809C43.4865 31.1007 42.9025 30.9453 42.2444 30.9453C40.5308 30.9453 39.3047 32.2095 39.3047 34.0426C39.3047 35.8758 40.5308 37.1557 42.2444 37.1557C43.329 37.1557 44.2251 36.7765 44.8067 36.0812L45.514 36.808C44.7987 37.68 43.414 38.2116 42.0467 38.2446L42.0468 38.2447Z" fill="white" fill-opacity="0.2"/>
<path fill-rule="evenodd" clip-rule="evenodd" d="M44.6818 28.784L43.3479 29.9624C43.3479 29.9624 39.0431 28.8861 38.0606 33.228C38.0409 33.4952 37.7229 35.5943 39.1146 36.8496C38.4214 36.5727 37.4424 35.3279 37.4424 33.5745C37.4424 29.2258 42.2807 28.6683 43.2903 29.442C43.0687 29.5978 44.682 28.7842 44.682 28.7842L44.6818 28.784Z" fill="white" fill-opacity="0.2"/>
<path d="M48.7993 33.4252L53.7614 29.659V31.2407L50.2194 33.929L53.7614 36.6171V38.1987L48.7993 34.4327L48.1357 33.929L48.7993 33.4252Z" fill="white" fill-opacity="0.2"/>
<path d="M21.9487 27.1368H17.3115V38.1987H22.0117C24.5111 38.1987 25.9888 37.0768 25.9888 35.1962C25.9888 33.6792 25.0615 32.6362 23.4736 32.399C24.7468 32.1304 25.5171 31.1981 25.5171 29.9022C25.5171 28.1638 24.1645 27.1366 21.9487 27.1366V27.1368ZM21.886 31.925H18.5691V28.3061H21.886C23.3635 28.3061 24.2282 28.9541 24.2282 30.0919C24.2282 31.2296 23.3628 31.925 21.886 31.925ZM21.886 37.0294H18.5691V33.0946H21.886C23.6781 33.0946 24.7156 33.8056 24.7156 35.0383C24.7156 36.2709 23.6773 37.0294 21.886 37.0294ZM27.572 24.9091V38.1987H28.7982V24.9091H27.572ZM37.2977 38.1987L37.282 32.6994C37.2771 30.9294 36.1345 29.839 34.091 29.839C32.6762 29.839 31.7803 30.2499 30.7114 30.9611L31.2302 31.8302C32.0946 31.2139 32.9436 30.8664 33.8552 30.8664C35.3171 30.8664 36.0717 31.6094 36.0717 32.8258V33.3474H33.3523C31.4033 33.3474 30.2554 34.2798 30.2554 35.7337C30.2554 37.1875 31.3558 38.2463 33.0694 38.2463C34.3899 38.2463 35.4429 37.8037 36.1031 36.903V38.1989H37.2978L37.2977 38.1987ZM33.305 37.2191C32.1417 37.2191 31.4028 36.6028 31.4028 35.6861C31.4028 34.7695 32.126 34.3272 33.5092 34.3272H36.0872V35.3384C36.0872 36.5647 34.7039 37.2191 33.3048 37.2191H33.305ZM56.125 24.8602C55.6535 24.8602 55.2919 25.2239 55.2919 25.7135C55.2919 26.2032 55.6533 26.5512 56.125 26.5512C56.5967 26.5512 56.9583 26.1876 56.9583 25.7135C56.9583 25.2395 56.6124 24.8602 56.125 24.8602ZM56.7381 38.5559V28.0998H55.512V38.7139C55.512 39.756 55.0401 40.2405 54.3174 40.2309C53.9094 40.2255 53.4841 40.0728 53.1227 39.8042L52.6826 40.7839C53.1541 41.1476 53.7672 41.3528 54.3647 41.3528C55.6535 41.3528 56.7383 40.4679 56.7383 38.5557L56.7381 38.5559ZM65.4941 38.1987L65.4782 32.6994C65.4734 30.9294 64.3308 29.839 62.2873 29.839C60.8725 29.839 59.9765 30.2499 58.9076 30.9611L59.4265 31.8302C60.2908 31.2139 61.1398 30.8664 62.0515 30.8664C63.5134 30.8664 64.268 31.6097 64.268 32.8258V33.3474H61.5485C59.5999 33.3474 58.4516 34.2798 58.4516 35.7337C58.4516 37.1875 59.5521 38.2463 61.2656 38.2463C62.5862 38.2463 63.6392 37.8037 64.2994 36.903V38.1989H65.4941V38.1987ZM61.5014 37.2191C60.3381 37.2191 59.5992 36.6028 59.5992 35.6861C59.5992 34.7695 60.3224 34.3272 61.7056 34.3272H64.2837V35.3384C64.2837 36.5645 62.9003 37.2191 61.5012 37.2191H61.5014ZM73.3378 31.925L74.0138 31.0717C73.2591 30.2973 72.1588 29.839 70.8227 29.839C68.4334 29.839 66.7199 31.5774 66.7199 34.0427C66.7199 36.5079 68.4176 38.2461 70.8227 38.2461C72.2532 38.2461 73.4006 37.7087 74.1397 36.8081L73.4322 36.0812C72.8505 36.7765 71.9544 37.1558 70.8698 37.1558C69.1563 37.1558 67.9301 35.8916 67.9301 34.0427C67.9301 32.1937 69.1563 30.9453 70.8698 30.9453C71.8759 30.9453 72.709 31.3087 73.3379 31.925H73.3378ZM77.0633 24.9091H75.8372V38.1987H77.0633C77.0633 22.9661 77.0633 33.0355 77.0633 24.9091Z" fill="white" fill-opacity="0.2"/>
<path d="M77.726 33.4252L82.6882 29.659V38.1987L77.726 34.4325L77.0625 33.9288L77.726 33.425V33.4252Z" fill="white" fill-opacity="0.2"/>
</g>
<path fill-rule="evenodd" clip-rule="evenodd" d="M363.5 155.888L340.397 155.888L340.397 173.801L330.104 178.011L337.915 173.801L326.069 173.801L326.069 180L363.5 180L350.057 167.944L363.5 155.888ZM96.5 155.888L119.603 155.888L119.603 173.801L129.896 178.011L122.085 173.801L133.931 173.801L133.931 180L96.5 180L109.943 167.944L96.5 155.888ZM338.644 148L121.364 148L121.364 172.121L338.644 172.121L338.644 148.008L338.644 148Z" fill="#12212B"/>
<path d="M157.014 155.432H160.938C161.79 155.432 162.462 155.636 162.942 156.044C163.386 156.428 163.614 156.944 163.614 157.592C163.614 158.072 163.494 158.48 163.266 158.816C163.038 159.128 162.714 159.356 162.282 159.524C162.846 159.632 163.266 159.86 163.554 160.208C163.83 160.544 163.974 161.012 163.974 161.588C163.974 162.452 163.674 163.088 163.086 163.496C162.582 163.832 161.862 164 160.95 164H157.014V155.432ZM158.418 156.584V159.032H160.566C161.166 159.032 161.586 158.924 161.838 158.732C162.078 158.528 162.21 158.204 162.21 157.76C162.21 157.352 162.078 157.052 161.838 156.872C161.574 156.68 161.166 156.584 160.59 156.584H158.418ZM158.418 160.184V162.848H160.746C161.274 162.848 161.694 162.764 161.994 162.596C162.378 162.38 162.57 162.044 162.57 161.564C162.57 161.072 162.426 160.724 162.15 160.508C161.862 160.292 161.406 160.184 160.782 160.184H158.418ZM165.299 155.432H166.691V162.8H171.323V164H165.299V155.432ZM174.837 155.432H176.433L179.709 164H178.209L177.429 161.852H173.841L173.061 164H171.561L174.837 155.432ZM174.261 160.7H177.009L175.665 156.944H175.617L174.261 160.7ZM184.265 155.264C185.273 155.264 186.113 155.528 186.761 156.056C187.385 156.56 187.757 157.256 187.889 158.12H186.521C186.377 157.556 186.113 157.148 185.717 156.884C185.333 156.62 184.841 156.5 184.241 156.5C183.341 156.5 182.669 156.8 182.213 157.424C181.793 157.976 181.589 158.744 181.589 159.728C181.589 160.736 181.793 161.516 182.201 162.056C182.645 162.632 183.341 162.932 184.277 162.932C184.889 162.932 185.393 162.776 185.777 162.488C186.185 162.164 186.473 161.672 186.641 161.024H188.009C187.817 162.032 187.373 162.812 186.665 163.376C186.005 163.904 185.213 164.168 184.289 164.168C182.861 164.168 181.793 163.712 181.097 162.824C180.485 162.056 180.185 161.024 180.185 159.728C180.185 158.456 180.497 157.412 181.133 156.62C181.853 155.708 182.897 155.264 184.265 155.264ZM194.722 155.432H196.498L192.73 159.104L197.062 164H195.166L191.782 160.028L190.738 161.048V164H189.334V155.432H190.738V159.476L194.722 155.432ZM197.901 155.432H199.305V164H197.901V155.432ZM203.419 155.432H205.015L208.291 164H206.791L206.011 161.852H202.423L201.643 164H200.143L203.419 155.432ZM202.843 160.7H205.591L204.247 156.944H204.199L202.843 160.7ZM212.847 155.264C213.855 155.264 214.695 155.528 215.343 156.056C215.967 156.56 216.339 157.256 216.471 158.12H215.103C214.959 157.556 214.695 157.148 214.299 156.884C213.915 156.62 213.423 156.5 212.823 156.5C211.923 156.5 211.251 156.8 210.795 157.424C210.375 157.976 210.171 158.744 210.171 159.728C210.171 160.736 210.375 161.516 210.783 162.056C211.227 162.632 211.923 162.932 212.859 162.932C213.471 162.932 213.975 162.776 214.359 162.488C214.767 162.164 215.055 161.672 215.223 161.024H216.591C216.399 162.032 215.955 162.812 215.247 163.376C214.587 163.904 213.795 164.168 212.871 164.168C211.443 164.168 210.375 163.712 209.679 162.824C209.067 162.056 208.767 161.024 208.767 159.728C208.767 158.456 209.079 157.412 209.715 156.62C210.435 155.708 211.479 155.264 212.847 155.264ZM223.304 155.432H225.08L221.312 159.104L225.644 164H223.748L220.364 160.028L219.32 161.048V164H217.916V155.432H219.32V159.476L223.304 155.432ZM230.479 155.432H234.031C236.095 155.432 237.139 156.308 237.139 158.06C237.139 159.824 236.095 160.712 234.007 160.712H231.883V164H230.479V155.432ZM231.883 156.632V159.512H233.923C234.547 159.512 235.003 159.392 235.291 159.176C235.579 158.948 235.723 158.576 235.723 158.06C235.723 157.544 235.567 157.184 235.279 156.968C234.991 156.74 234.535 156.632 233.923 156.632H231.883ZM240.778 155.432H242.374L245.65 164H244.15L243.37 161.852H239.782L239.002 164H237.502L240.778 155.432ZM240.202 160.7H242.95L241.606 156.944H241.558L240.202 160.7ZM245.706 155.432H247.398L249.798 159.284L252.186 155.432H253.878L250.494 160.592V164H249.09V160.592L245.706 155.432ZM257.807 155.264C258.815 155.264 259.607 155.468 260.171 155.888C260.771 156.332 261.119 157.028 261.203 157.964H259.811C259.691 157.436 259.463 157.052 259.151 156.824C258.839 156.584 258.359 156.476 257.735 156.476C257.195 156.476 256.787 156.548 256.499 156.704C256.139 156.884 255.971 157.184 255.971 157.592C255.971 157.952 256.163 158.252 256.571 158.468C256.751 158.564 257.243 158.744 258.035 158.996C259.199 159.356 259.943 159.644 260.279 159.836C261.023 160.28 261.395 160.892 261.395 161.684C261.395 162.452 261.095 163.064 260.495 163.508C259.895 163.94 259.043 164.168 257.951 164.168C256.895 164.168 256.067 163.964 255.479 163.556C254.759 163.052 254.363 162.26 254.303 161.168H255.695C255.791 161.816 256.019 162.284 256.391 162.56C256.727 162.8 257.243 162.932 257.951 162.932C258.575 162.932 259.079 162.824 259.439 162.62C259.799 162.404 259.991 162.128 259.991 161.768C259.991 161.312 259.715 160.952 259.187 160.688C259.019 160.604 258.467 160.412 257.519 160.124C256.463 159.788 255.803 159.548 255.551 159.404C254.891 159.008 254.567 158.432 254.567 157.676C254.567 156.92 254.879 156.32 255.527 155.888C256.127 155.468 256.883 155.264 257.807 155.264ZM269.44 155.264C270.304 155.264 271.012 155.468 271.54 155.888C272.056 156.308 272.32 156.884 272.32 157.628C272.32 158.564 271.84 159.188 270.892 159.5C271.396 159.656 271.792 159.884 272.056 160.196C272.344 160.52 272.488 160.94 272.488 161.444C272.488 162.236 272.212 162.884 271.66 163.388C271.084 163.904 270.328 164.168 269.392 164.168C268.504 164.168 267.784 163.94 267.244 163.484C266.644 162.98 266.308 162.236 266.236 161.276H267.664C267.688 161.828 267.856 162.26 268.192 162.56C268.492 162.836 268.888 162.98 269.38 162.98C269.92 162.98 270.352 162.824 270.664 162.524C270.94 162.248 271.084 161.912 271.084 161.504C271.084 161.012 270.928 160.652 270.64 160.424C270.352 160.184 269.932 160.076 269.38 160.076H268.78V159.02H269.38C269.884 159.02 270.268 158.912 270.532 158.696C270.784 158.48 270.916 158.156 270.916 157.736C270.916 157.316 270.796 157.004 270.568 156.788C270.316 156.572 269.944 156.464 269.452 156.464C268.948 156.464 268.564 156.584 268.288 156.836C268 157.088 267.832 157.472 267.784 157.988H266.404C266.476 157.124 266.788 156.452 267.364 155.972C267.904 155.492 268.6 155.264 269.44 155.264ZM277.127 155.432H284.147V156.632H281.339V164H279.935V156.632H277.127V155.432ZM288.974 155.264C290.282 155.264 291.314 155.684 292.07 156.536C292.79 157.34 293.15 158.408 293.15 159.728C293.15 161.048 292.79 162.104 292.07 162.908C291.314 163.748 290.282 164.168 288.974 164.168C287.654 164.168 286.622 163.736 285.878 162.896C285.158 162.08 284.81 161.024 284.81 159.728C284.81 158.42 285.158 157.364 285.878 156.548C286.622 155.684 287.654 155.264 288.974 155.264ZM288.974 156.5C288.086 156.5 287.402 156.8 286.91 157.4C286.442 157.976 286.214 158.744 286.214 159.728C286.214 160.7 286.442 161.468 286.91 162.044C287.39 162.632 288.086 162.932 288.974 162.932C289.862 162.932 290.546 162.644 291.026 162.08C291.494 161.516 291.734 160.736 291.734 159.728C291.734 158.72 291.494 157.928 291.026 157.352C290.546 156.776 289.862 156.5 288.974 156.5ZM301.363 155.264C302.191 155.264 302.875 155.504 303.415 155.984C303.943 156.464 304.207 157.076 304.207 157.844C304.207 158.588 303.919 159.26 303.367 159.872C303.031 160.232 302.431 160.688 301.591 161.252C300.715 161.828 300.187 162.332 299.995 162.764H304.219V164H298.243C298.243 163.124 298.519 162.368 299.095 161.72C299.407 161.36 300.067 160.832 301.063 160.148C301.615 159.764 301.999 159.44 302.239 159.188C302.611 158.768 302.803 158.312 302.803 157.832C302.803 157.364 302.671 157.016 302.431 156.788C302.179 156.56 301.807 156.452 301.315 156.452C300.787 156.452 300.391 156.632 300.127 156.992C299.863 157.328 299.719 157.844 299.695 158.516H298.291C298.303 157.556 298.579 156.788 299.131 156.2C299.695 155.576 300.439 155.264 301.363 155.264Z" fill="#7C8499"/>
<path d="M157.74 183.432H159.144V192H157.74V183.432ZM160.822 183.432H162.226L166.462 189.612H166.51V183.432H167.926V192H166.558L162.274 185.736H162.226V192H160.822V183.432ZM172.635 183.264C173.643 183.264 174.435 183.468 174.999 183.888C175.599 184.332 175.947 185.028 176.031 185.964H174.639C174.519 185.436 174.291 185.052 173.979 184.824C173.667 184.584 173.187 184.476 172.563 184.476C172.023 184.476 171.615 184.548 171.327 184.704C170.967 184.884 170.799 185.184 170.799 185.592C170.799 185.952 170.991 186.252 171.399 186.468C171.579 186.564 172.071 186.744 172.863 186.996C174.027 187.356 174.771 187.644 175.107 187.836C175.851 188.28 176.223 188.892 176.223 189.684C176.223 190.452 175.923 191.064 175.323 191.508C174.723 191.94 173.871 192.168 172.779 192.168C171.723 192.168 170.895 191.964 170.307 191.556C169.587 191.052 169.191 190.26 169.131 189.168H170.523C170.619 189.816 170.847 190.284 171.219 190.56C171.555 190.8 172.071 190.932 172.779 190.932C173.403 190.932 173.907 190.824 174.267 190.62C174.627 190.404 174.819 190.128 174.819 189.768C174.819 189.312 174.543 188.952 174.015 188.688C173.847 188.604 173.295 188.412 172.347 188.124C171.291 187.788 170.631 187.548 170.379 187.404C169.719 187.008 169.395 186.432 169.395 185.676C169.395 184.92 169.707 184.32 170.355 183.888C170.955 183.468 171.711 183.264 172.635 183.264ZM177.428 183.432H178.832V188.772C178.832 189.516 179 190.056 179.348 190.416C179.684 190.764 180.236 190.944 180.992 190.944C181.736 190.944 182.288 190.764 182.636 190.416C182.972 190.056 183.152 189.516 183.152 188.772V183.432H184.556V188.748C184.556 189.864 184.244 190.716 183.62 191.304C182.996 191.88 182.12 192.168 180.992 192.168C179.852 192.168 178.976 191.88 178.376 191.316C177.74 190.716 177.428 189.864 177.428 188.748V183.432ZM186.24 183.432H190.056C190.932 183.432 191.628 183.624 192.132 184.02C192.66 184.452 192.936 185.076 192.936 185.892C192.936 186.336 192.816 186.732 192.576 187.08C192.312 187.464 191.94 187.716 191.484 187.836V187.86C192.228 188.028 192.648 188.52 192.744 189.36L192.888 190.74C192.936 191.268 193.116 191.688 193.404 192H191.88C191.676 191.736 191.556 191.364 191.508 190.884L191.4 189.828C191.352 189.36 191.208 189.024 190.968 188.82C190.716 188.604 190.344 188.508 189.864 188.508H187.644V192H186.24V183.432ZM187.644 184.632V187.308H189.864C190.416 187.308 190.836 187.188 191.124 186.96C191.388 186.72 191.52 186.384 191.52 185.952C191.52 185.484 191.388 185.148 191.124 184.944C190.86 184.728 190.44 184.632 189.864 184.632H187.644ZM197.044 183.432H198.64L201.916 192H200.416L199.636 189.852H196.048L195.268 192H193.768L197.044 183.432ZM196.468 188.7H199.216L197.872 184.944H197.824L196.468 188.7ZM202.752 183.432H204.156L208.392 189.612H208.44V183.432H209.856V192H208.488L204.204 185.736H204.156V192H202.752V183.432ZM215.261 183.264C216.269 183.264 217.109 183.528 217.757 184.056C218.381 184.56 218.753 185.256 218.885 186.12H217.517C217.373 185.556 217.109 185.148 216.713 184.884C216.329 184.62 215.837 184.5 215.237 184.5C214.337 184.5 213.665 184.8 213.209 185.424C212.789 185.976 212.585 186.744 212.585 187.728C212.585 188.736 212.789 189.516 213.197 190.056C213.641 190.632 214.337 190.932 215.273 190.932C215.885 190.932 216.389 190.776 216.773 190.488C217.181 190.164 217.469 189.672 217.637 189.024H219.005C218.813 190.032 218.369 190.812 217.661 191.376C217.001 191.904 216.209 192.168 215.285 192.168C213.857 192.168 212.789 191.712 212.093 190.824C211.481 190.056 211.181 189.024 211.181 187.728C211.181 186.456 211.493 185.412 212.129 184.62C212.849 183.708 213.893 183.264 215.261 183.264ZM220.33 183.432H226.51V184.632H221.734V187.008H226.222V188.208H221.734V190.8H226.714V192H220.33V183.432ZM232.026 183.432H235.578C237.642 183.432 238.686 184.308 238.686 186.06C238.686 187.824 237.642 188.712 235.554 188.712H233.43V192H232.026V183.432ZM233.43 184.632V187.512H235.47C236.094 187.512 236.55 187.392 236.838 187.176C237.126 186.948 237.27 186.576 237.27 186.06C237.27 185.544 237.114 185.184 236.826 184.968C236.538 184.74 236.082 184.632 235.47 184.632H233.43ZM242.325 183.432H243.921L247.197 192H245.697L244.917 189.852H241.329L240.549 192H239.049L242.325 183.432ZM241.749 188.7H244.497L243.153 184.944H243.105L241.749 188.7ZM247.253 183.432H248.945L251.345 187.284L253.733 183.432H255.425L252.041 188.592V192H250.637V188.592L247.253 183.432ZM259.354 183.264C260.362 183.264 261.154 183.468 261.718 183.888C262.318 184.332 262.666 185.028 262.75 185.964H261.358C261.238 185.436 261.01 185.052 260.698 184.824C260.386 184.584 259.906 184.476 259.282 184.476C258.742 184.476 258.334 184.548 258.046 184.704C257.686 184.884 257.518 185.184 257.518 185.592C257.518 185.952 257.71 186.252 258.118 186.468C258.298 186.564 258.79 186.744 259.582 186.996C260.746 187.356 261.49 187.644 261.826 187.836C262.57 188.28 262.942 188.892 262.942 189.684C262.942 190.452 262.642 191.064 262.042 191.508C261.442 191.94 260.59 192.168 259.498 192.168C258.442 192.168 257.614 191.964 257.026 191.556C256.306 191.052 255.91 190.26 255.85 189.168H257.242C257.338 189.816 257.566 190.284 257.938 190.56C258.274 190.8 258.79 190.932 259.498 190.932C260.122 190.932 260.626 190.824 260.986 190.62C261.346 190.404 261.538 190.128 261.538 189.768C261.538 189.312 261.262 188.952 260.734 188.688C260.566 188.604 260.014 188.412 259.066 188.124C258.01 187.788 257.35 187.548 257.098 187.404C256.438 187.008 256.114 186.432 256.114 185.676C256.114 184.92 256.426 184.32 257.074 183.888C257.674 183.468 258.43 183.264 259.354 183.264ZM271.035 183.264C271.863 183.264 272.547 183.504 273.087 183.984C273.615 184.464 273.879 185.076 273.879 185.844C273.879 186.588 273.591 187.26 273.039 187.872C272.703 188.232 272.103 188.688 271.263 189.252C270.387 189.828 269.859 190.332 269.667 190.764H273.891V192H267.915C267.915 191.124 268.191 190.368 268.767 189.72C269.079 189.36 269.739 188.832 270.735 188.148C271.287 187.764 271.671 187.44 271.911 187.188C272.283 186.768 272.475 186.312 272.475 185.832C272.475 185.364 272.343 185.016 272.103 184.788C271.851 184.56 271.479 184.452 270.987 184.452C270.459 184.452 270.063 184.632 269.799 184.992C269.535 185.328 269.391 185.844 269.367 186.516H267.963C267.975 185.556 268.251 184.788 268.803 184.2C269.367 183.576 270.111 183.264 271.035 183.264ZM278.674 183.432H285.694V184.632H282.886V192H281.482V184.632H278.674V183.432ZM290.521 183.264C291.829 183.264 292.861 183.684 293.617 184.536C294.337 185.34 294.697 186.408 294.697 187.728C294.697 189.048 294.337 190.104 293.617 190.908C292.861 191.748 291.829 192.168 290.521 192.168C289.201 192.168 288.169 191.736 287.425 190.896C286.705 190.08 286.357 189.024 286.357 187.728C286.357 186.42 286.705 185.364 287.425 184.548C288.169 183.684 289.201 183.264 290.521 183.264ZM290.521 184.5C289.633 184.5 288.949 184.8 288.457 185.4C287.989 185.976 287.761 186.744 287.761 187.728C287.761 188.7 287.989 189.468 288.457 190.044C288.937 190.632 289.633 190.932 290.521 190.932C291.409 190.932 292.093 190.644 292.573 190.08C293.041 189.516 293.281 188.736 293.281 187.728C293.281 186.72 293.041 185.928 292.573 185.352C292.093 184.776 291.409 184.5 290.521 184.5ZM301.962 183.432H303.018V192H301.614V185.124C301.098 185.592 300.45 185.94 299.658 186.168V184.776C300.042 184.68 300.45 184.512 300.882 184.272C301.314 184.008 301.674 183.732 301.962 183.432Z" fill="#7C8499"/>
<rect x="230.5" y="204" width="56" height="21" rx="10.5" fill="#15C600"/>
<path d="M255.606 209.08C256.626 209.08 257.481 209.365 258.141 209.965C258.786 210.565 259.116 211.33 259.116 212.275C259.116 213.205 258.756 214.045 258.066 214.81C257.646 215.245 256.911 215.815 255.846 216.535C254.691 217.3 254.001 217.975 253.776 218.56H259.131V220H251.751C251.751 218.935 252.096 218.005 252.816 217.195C253.206 216.73 254.016 216.085 255.231 215.245C255.951 214.735 256.461 214.33 256.761 214.015C257.241 213.475 257.496 212.89 257.496 212.26C257.496 211.66 257.331 211.21 257.001 210.91C256.671 210.61 256.176 210.46 255.546 210.46C254.871 210.46 254.361 210.685 254.016 211.15C253.656 211.6 253.476 212.245 253.446 213.115H251.811C251.826 211.915 252.171 210.955 252.846 210.235C253.536 209.455 254.466 209.08 255.606 209.08ZM263.416 209.29H264.646V220H263.011V211.255C262.366 211.87 261.541 212.32 260.551 212.605V210.985C261.031 210.865 261.526 210.655 262.066 210.355C262.606 210.025 263.056 209.68 263.416 209.29Z" fill="white"/>
<g filter="url(#filter3_d_14_3422)">
<rect x="177.296" y="225.296" width="58.5753" height="82.2421" rx="9.17088" fill="#161F2C" stroke="#55657E" stroke-width="0.591669" stroke-dasharray="4.73 4.73"/>
<g clip-path="url(#clip4_14_3422)">
<rect x="177" y="225" width="59.1669" height="82.8337" rx="7.10003" fill="url(#paint3_linear_14_3422)"/>
<path d="M187.474 240.968L184.907 240.354L185.834 232.119H194.962V234.719H188.478L188.077 238.323C188.292 238.197 188.62 238.063 189.059 237.921C189.497 237.773 189.989 237.698 190.532 237.698C191.32 237.698 192.019 237.821 192.63 238.067C193.24 238.312 193.757 238.669 194.181 239.138C194.612 239.606 194.939 240.179 195.163 240.856C195.386 241.533 195.497 242.3 195.497 243.155C195.497 243.877 195.386 244.565 195.163 245.22C194.939 245.867 194.601 246.447 194.147 246.96C193.693 247.466 193.124 247.864 192.44 248.154C191.755 248.445 190.944 248.59 190.007 248.59C189.308 248.59 188.631 248.485 187.976 248.277C187.329 248.069 186.745 247.76 186.224 247.351C185.711 246.942 185.298 246.447 184.985 245.867C184.68 245.279 184.52 244.61 184.506 243.858H187.697C187.742 244.319 187.861 244.717 188.054 245.052C188.255 245.38 188.519 245.632 188.847 245.811C189.174 245.99 189.557 246.079 189.996 246.079C190.405 246.079 190.755 246.001 191.045 245.844C191.335 245.688 191.569 245.473 191.748 245.197C191.926 244.915 192.057 244.587 192.139 244.215C192.228 243.836 192.272 243.427 192.272 242.988C192.272 242.549 192.22 242.151 192.116 241.794C192.012 241.437 191.852 241.128 191.636 240.867C191.421 240.607 191.145 240.406 190.811 240.265C190.483 240.124 190.1 240.053 189.661 240.053C189.066 240.053 188.605 240.146 188.277 240.332C187.958 240.518 187.69 240.73 187.474 240.968Z" fill="#242424"/>
<path fill-rule="evenodd" clip-rule="evenodd" d="M192.964 265.836C195.49 265.864 197.044 264.246 196.189 262.542C195.335 260.839 194.483 260.456 193.141 259.221C191.798 257.986 189.846 255.85 189.855 255.346C189.865 255.85 187.994 257.986 186.651 259.221C185.309 260.456 184.458 260.839 183.602 262.542C182.748 264.246 184.302 265.864 186.828 265.836C188.562 265.816 189.342 264.82 189.66 264.197L189.66 265.012C189.66 265.012 189.107 267.952 185.2 268.274L184.577 268.274L184.577 268.732L195.215 268.732L195.215 268.274L194.592 268.274C190.686 267.952 190.132 265.012 190.132 265.012L190.132 264.304C190.507 264.928 191.326 265.817 192.964 265.836Z" fill="#242424"/>
<path fill-rule="evenodd" clip-rule="evenodd" d="M225.089 297.275C230.583 297.337 233.962 293.818 232.103 290.114C230.244 286.41 228.391 285.576 225.473 282.891C222.554 280.205 218.309 275.559 218.329 274.464C218.35 275.559 214.28 280.205 211.36 282.891C208.442 285.576 206.591 286.41 204.73 290.114C202.872 293.818 206.252 297.337 211.745 297.275C215.515 297.233 217.212 295.067 217.904 293.713L217.904 295.485C217.904 295.485 216.701 301.878 208.204 302.578L206.85 302.578L206.85 303.574L229.985 303.574L229.985 302.578L228.629 302.578C220.135 301.878 218.929 295.485 218.929 295.485L218.929 293.946C219.745 295.301 221.528 297.235 225.089 297.275Z" fill="#242424"/>
</g>
<rect x="177.5" y="225.5" width="58.1669" height="81.8337" rx="6.60003" stroke="#15C600"/>
</g>
<g filter="url(#filter4_d_14_3422)">
<rect x="201.296" y="237.296" width="58.5753" height="82.2421" rx="9.17088" fill="#161F2C" stroke="#55657E" stroke-width="0.591669" stroke-dasharray="4.73 4.73"/>
<g clip-path="url(#clip5_14_3422)">
<rect x="201" y="237" width="59.1669" height="82.8337" rx="7.10003" fill="url(#paint4_linear_14_3422)"/>
<path d="M211.474 252.968L208.907 252.354L209.834 244.119H218.962V246.719H212.478L212.077 250.323C212.292 250.197 212.62 250.063 213.059 249.922C213.497 249.773 213.989 249.698 214.532 249.698C215.32 249.698 216.019 249.821 216.63 250.067C217.24 250.312 217.757 250.669 218.181 251.138C218.612 251.607 218.939 252.18 219.163 252.857C219.386 253.534 219.497 254.3 219.497 255.155C219.497 255.877 219.386 256.565 219.163 257.22C218.939 257.867 218.601 258.447 218.147 258.961C217.693 259.467 217.124 259.865 216.44 260.155C215.755 260.445 214.944 260.59 214.007 260.59C213.308 260.59 212.631 260.486 211.976 260.277C211.329 260.069 210.745 259.76 210.224 259.351C209.711 258.942 209.298 258.447 208.985 257.867C208.68 257.279 208.52 256.61 208.506 255.858H211.697C211.742 256.32 211.861 256.718 212.054 257.052C212.255 257.38 212.519 257.633 212.847 257.811C213.174 257.99 213.557 258.079 213.996 258.079C214.405 258.079 214.755 258.001 215.045 257.845C215.335 257.688 215.569 257.473 215.748 257.197C215.926 256.915 216.057 256.587 216.139 256.215C216.228 255.836 216.272 255.427 216.272 254.988C216.272 254.549 216.22 254.151 216.116 253.794C216.012 253.437 215.852 253.128 215.636 252.868C215.421 252.607 215.145 252.406 214.811 252.265C214.483 252.124 214.1 252.053 213.661 252.053C213.066 252.053 212.605 252.146 212.277 252.332C211.958 252.518 211.69 252.73 211.474 252.968Z" fill="#EE3D3D"/>
<path fill-rule="evenodd" clip-rule="evenodd" d="M217.117 267.673C214.465 267.71 213.938 270.456 213.938 270.456C213.938 270.456 213.326 267.71 210.674 267.673C208.022 267.636 206.389 269.751 207.287 271.978C208.185 274.204 209.079 274.705 210.488 276.32C211.898 277.934 213.948 280.726 213.938 281.385C213.928 280.726 215.893 277.934 217.302 276.32C218.711 274.705 219.606 274.204 220.503 271.978C221.401 269.751 219.769 267.636 217.117 267.673Z" fill="#EE3D3D"/>
<path fill-rule="evenodd" clip-rule="evenodd" d="M249.423 287.175C243.656 287.255 242.509 293.227 242.509 293.227C242.509 293.227 241.178 287.255 235.411 287.175C229.643 287.094 226.094 291.694 228.046 296.536C229.998 301.378 231.943 302.467 235.008 305.978C238.073 309.488 242.531 315.561 242.509 316.994C242.487 315.561 246.761 309.488 249.826 305.978C252.891 302.467 254.836 301.378 256.788 296.536C258.74 291.694 255.19 287.094 249.423 287.175Z" fill="#EE3D3D"/>
</g>
<rect x="201.5" y="237.5" width="58.1669" height="81.8337" rx="6.60003" stroke="#15C600"/>
</g>
<g filter="url(#filter5_d_14_3422)">
<rect x="224.296" y="248.296" width="58.5753" height="82.2421" rx="9.17088" fill="#161F2C" stroke="#55657E" stroke-width="0.591669" stroke-dasharray="4.73 4.73"/>
<g clip-path="url(#clip6_14_3422)">
<rect x="224" y="248" width="59.1669" height="82.8337" rx="7.10003" fill="url(#paint5_linear_14_3422)"/>
<path d="M237.275 257.897L232.856 271.366H229.296L235.333 255.119H237.599L237.275 257.897ZM240.946 271.366L236.516 257.897L236.159 255.119H238.447L244.517 271.366H240.946ZM240.745 265.318V267.941H232.164V265.318H240.745Z" fill="#EE3D3D"/>
<path fill-rule="evenodd" clip-rule="evenodd" d="M240.117 278.673C237.465 278.71 236.938 281.456 236.938 281.456C236.938 281.456 236.326 278.71 233.674 278.673C231.022 278.636 229.389 280.751 230.287 282.978C231.185 285.204 232.079 285.705 233.488 287.319C234.898 288.934 236.948 291.726 236.938 292.385C236.928 291.726 238.893 288.934 240.302 287.319C241.711 285.705 242.606 285.204 243.503 282.978C244.401 280.751 242.769 278.636 240.117 278.673Z" fill="#EE3D3D"/>
<path fill-rule="evenodd" clip-rule="evenodd" d="M272.422 298.175C266.655 298.255 265.508 304.227 265.508 304.227C265.508 304.227 264.177 298.255 258.41 298.175C252.642 298.094 249.093 302.694 251.045 307.536C252.997 312.378 254.942 313.467 258.007 316.978C261.072 320.488 265.53 326.561 265.508 327.994C265.486 326.561 269.76 320.488 272.825 316.978C275.89 313.467 277.835 312.378 279.787 307.536C281.739 302.694 278.189 298.094 272.422 298.175Z" fill="#EE3D3D"/>
</g>
<rect x="224.5" y="248.5" width="58.1669" height="81.8337" rx="6.60003" stroke="#15C600"/>
</g>
<defs>
<filter id="filter0_d_14_3422" x="172.103" y="28.4086" width="68.9616" height="92.6283" filterUnits="userSpaceOnUse" color-interpolation-filters="sRGB">
<feFlood flood-opacity="0" result="BackgroundImageFix"/>
<feColorMatrix in="SourceAlpha" type="matrix" values="0 0 0 0 0 0 0 0 0 0 0 0 0 0 0 0 0 0 127 0" result="hardAlpha"/>
<feOffset dy="1.30595"/>
<feGaussianBlur stdDeviation="2.44865"/>
<feComposite in2="hardAlpha" operator="out"/>
<feColorMatrix type="matrix" values="0 0 0 0 0 0 0 0 0 0 0 0 0 0 0 0 0 0 0.25 0"/>
<feBlend mode="normal" in2="BackgroundImageFix" result="effect1_dropShadow_14_3422"/>
<feBlend mode="normal" in="SourceGraphic" in2="effect1_dropShadow_14_3422" result="shape"/>
</filter>
<filter id="filter1_d_14_3422" x="196.103" y="40.4086" width="68.9616" height="92.6283" filterUnits="userSpaceOnUse" color-interpolation-filters="sRGB">
<feFlood flood-opacity="0" result="BackgroundImageFix"/>
<feColorMatrix in="SourceAlpha" type="matrix" values="0 0 0 0 0 0 0 0 0 0 0 0 0 0 0 0 0 0 127 0" result="hardAlpha"/>
<feOffset dy="1.30595"/>
<feGaussianBlur stdDeviation="2.44865"/>
<feComposite in2="hardAlpha" operator="out"/>
<feColorMatrix type="matrix" values="0 0 0 0 0 0 0 0 0 0 0 0 0 0 0 0 0 0 0.25 0"/>
<feBlend mode="normal" in2="BackgroundImageFix" result="effect1_dropShadow_14_3422"/>
<feBlend mode="normal" in="SourceGraphic" in2="effect1_dropShadow_14_3422" result="shape"/>
</filter>
<filter id="filter2_d_14_3422" x="219.103" y="51.4086" width="68.9616" height="92.6283" filterUnits="userSpaceOnUse" color-interpolation-filters="sRGB">
<feFlood flood-opacity="0" result="BackgroundImageFix"/>
<feColorMatrix in="SourceAlpha" type="matrix" values="0 0 0 0 0 0 0 0 0 0 0 0 0 0 0 0 0 0 127 0" result="hardAlpha"/>
<feOffset dy="1.30595"/>
<feGaussianBlur stdDeviation="2.44865"/>
<feComposite in2="hardAlpha" operator="out"/>
<feColorMatrix type="matrix" values="0 0 0 0 0 0 0 0 0 0 0 0 0 0 0 0 0 0 0.25 0"/>
<feBlend mode="normal" in2="BackgroundImageFix" result="effect1_dropShadow_14_3422"/>
<feBlend mode="normal" in="SourceGraphic" in2="effect1_dropShadow_14_3422" result="shape"/>
</filter>
<filter id="filter3_d_14_3422" x="172.103" y="221.409" width="68.9616" height="92.6283" filterUnits="userSpaceOnUse" color-interpolation-filters="sRGB">
<feFlood flood-opacity="0" result="BackgroundImageFix"/>
<feColorMatrix in="SourceAlpha" type="matrix" values="0 0 0 0 0 0 0 0 0 0 0 0 0 0 0 0 0 0 127 0" result="hardAlpha"/>
<feOffset dy="1.30595"/>
<feGaussianBlur stdDeviation="2.44865"/>
<feComposite in2="hardAlpha" operator="out"/>
<feColorMatrix type="matrix" values="0 0 0 0 0 0 0 0 0 0 0 0 0 0 0 0 0 0 0.25 0"/>
<feBlend mode="normal" in2="BackgroundImageFix" result="effect1_dropShadow_14_3422"/>
<feBlend mode="normal" in="SourceGraphic" in2="effect1_dropShadow_14_3422" result="shape"/>
</filter>
<filter id="filter4_d_14_3422" x="196.103" y="233.409" width="68.9616" height="92.6283" filterUnits="userSpaceOnUse" color-interpolation-filters="sRGB">
<feFlood flood-opacity="0" result="BackgroundImageFix"/>
<feColorMatrix in="SourceAlpha" type="matrix" values="0 0 0 0 0 0 0 0 0 0 0 0 0 0 0 0 0 0 127 0" result="hardAlpha"/>
<feOffset dy="1.30595"/>
<feGaussianBlur stdDeviation="2.44865"/>
<feComposite in2="hardAlpha" operator="out"/>
<feColorMatrix type="matrix" values="0 0 0 0 0 0 0 0 0 0 0 0 0 0 0 0 0 0 0.25 0"/>
<feBlend mode="normal" in2="BackgroundImageFix" result="effect1_dropShadow_14_3422"/>
<feBlend mode="normal" in="SourceGraphic" in2="effect1_dropShadow_14_3422" result="shape"/>
</filter>
<filter id="filter5_d_14_3422" x="219.103" y="244.409" width="68.9616" height="92.6283" filterUnits="userSpaceOnUse" color-interpolation-filters="sRGB">
<feFlood flood-opacity="0" result="BackgroundImageFix"/>
<feColorMatrix in="SourceAlpha" type="matrix" values="0 0 0 0 0 0 0 0 0 0 0 0 0 0 0 0 0 0 127 0" result="hardAlpha"/>
<feOffset dy="1.30595"/>
<feGaussianBlur stdDeviation="2.44865"/>
<feComposite in2="hardAlpha" operator="out"/>
<feColorMatrix type="matrix" values="0 0 0 0 0 0 0 0 0 0 0 0 0 0 0 0 0 0 0.25 0"/>
<feBlend mode="normal" in2="BackgroundImageFix" result="effect1_dropShadow_14_3422"/>
<feBlend mode="normal" in="SourceGraphic" in2="effect1_dropShadow_14_3422" result="shape"/>
</filter>
<linearGradient id="paint0_linear_14_3422" x1="206.583" y1="32" x2="206.583" y2="114.834" gradientUnits="userSpaceOnUse">
<stop stop-color="#F9F9F9"/>
<stop offset="1" stop-color="#ECECEC"/>
</linearGradient>
<linearGradient id="paint1_linear_14_3422" x1="230.583" y1="44" x2="230.583" y2="126.834" gradientUnits="userSpaceOnUse">
<stop stop-color="#F9F9F9"/>
<stop offset="1" stop-color="#ECECEC"/>
</linearGradient>
<linearGradient id="paint2_linear_14_3422" x1="253.583" y1="55" x2="253.583" y2="137.834" gradientUnits="userSpaceOnUse">
<stop stop-color="#F9F9F9"/>
<stop offset="1" stop-color="#ECECEC"/>
</linearGradient>
<linearGradient id="paint3_linear_14_3422" x1="206.583" y1="225" x2="206.583" y2="307.834" gradientUnits="userSpaceOnUse">
<stop stop-color="#F9F9F9"/>
<stop offset="1" stop-color="#ECECEC"/>
</linearGradient>
<linearGradient id="paint4_linear_14_3422" x1="230.583" y1="237" x2="230.583" y2="319.834" gradientUnits="userSpaceOnUse">
<stop stop-color="#F9F9F9"/>
<stop offset="1" stop-color="#ECECEC"/>
</linearGradient>
<linearGradient id="paint5_linear_14_3422" x1="253.583" y1="248" x2="253.583" y2="330.834" gradientUnits="userSpaceOnUse">
<stop stop-color="#F9F9F9"/>
<stop offset="1" stop-color="#ECECEC"/>
</linearGradient>
<clipPath id="clip0_14_3422">
<rect x="177" y="32" width="59.1669" height="82.8337" rx="7.10003" fill="white"/>
</clipPath>
<clipPath id="clip1_14_3422">
<rect x="201" y="44" width="59.1669" height="82.8337" rx="7.10003" fill="white"/>
</clipPath>
<clipPath id="clip2_14_3422">
<rect x="224" y="55" width="59.1669" height="82.8337" rx="7.10003" fill="white"/>
</clipPath>
<clipPath id="clip3_14_3422">
<rect width="72" height="23" fill="white" transform="translate(14 20)"/>
</clipPath>
<clipPath id="clip4_14_3422">
<rect x="177" y="225" width="59.1669" height="82.8337" rx="7.10003" fill="white"/>
</clipPath>
<clipPath id="clip5_14_3422">
<rect x="201" y="237" width="59.1669" height="82.8337" rx="7.10003" fill="white"/>
</clipPath>
<clipPath id="clip6_14_3422">
<rect x="224" y="248" width="59.1669" height="82.8337" rx="7.10003" fill="white"/>
</clipPath>
</defs>
</svg>
