<svg width="460" height="351" viewBox="0 0 460 351" fill="none" xmlns="http://www.w3.org/2000/svg">
<rect width="460" height="351" rx="5.55773" fill="#0E1923"/>
<rect x="230.5" y="11" width="56" height="21" rx="10.5" fill="#55657E"/>
<path d="M254.421 16.29H255.651V27H254.016V18.255C253.371 18.87 252.546 19.32 251.556 19.605V17.985C252.036 17.865 252.531 17.655 253.071 17.355C253.611 17.025 254.061 16.68 254.421 16.29ZM261.669 16.08C262.749 16.08 263.604 16.335 264.264 16.86C264.894 17.385 265.224 18.105 265.224 19.02C265.224 20.19 264.624 20.985 263.454 21.375C264.084 21.57 264.564 21.87 264.894 22.26C265.254 22.665 265.434 23.19 265.434 23.82C265.434 24.81 265.089 25.62 264.414 26.25C263.694 26.88 262.749 27.21 261.609 27.21C260.514 27.21 259.629 26.925 258.969 26.37C258.219 25.74 257.799 24.825 257.709 23.625H259.359C259.389 24.345 259.614 24.9 260.064 25.29C260.454 25.65 260.964 25.83 261.594 25.83C262.284 25.83 262.839 25.62 263.259 25.23C263.619 24.87 263.814 24.435 263.814 23.895C263.814 23.265 263.619 22.8 263.229 22.5C262.869 22.2 262.329 22.05 261.624 22.05H260.844V20.82H261.609C262.269 20.82 262.764 20.67 263.094 20.385C263.424 20.1 263.604 19.68 263.604 19.14C263.604 18.6 263.439 18.195 263.139 17.91C262.809 17.61 262.314 17.475 261.684 17.475C261.039 17.475 260.529 17.64 260.169 17.97C259.809 18.3 259.584 18.795 259.524 19.455H257.919C258.009 18.39 258.399 17.565 259.104 16.965C259.764 16.365 260.619 16.08 261.669 16.08Z" fill="white"/>
<g filter="url(#filter0_d_14_4344)">
<rect x="177.296" y="32.2958" width="58.5753" height="82.2421" rx="9.17088" fill="#161F2C" stroke="#55657E" stroke-width="0.591669" stroke-dasharray="4.73 4.73"/>
<g clip-path="url(#clip0_14_4344)">
<rect x="177" y="32" width="59.1669" height="82.8337" rx="7.10003" fill="url(#paint0_linear_14_4344)"/>
<path d="M195.564 52.8556V55.3665H184.45V53.2239L189.706 47.5885C190.234 47.0008 190.651 46.4837 190.956 46.0374C191.261 45.5835 191.48 45.1781 191.614 44.821C191.755 44.4565 191.826 44.1105 191.826 43.7832C191.826 43.2922 191.744 42.8719 191.581 42.5222C191.417 42.1651 191.175 41.8899 190.855 41.6964C190.543 41.503 190.156 41.4063 189.695 41.4063C189.204 41.4063 188.78 41.5253 188.422 41.7634C188.073 42.0014 187.805 42.3325 187.619 42.7566C187.44 43.1806 187.351 43.6604 187.351 44.1961H184.126C184.126 43.229 184.357 42.3437 184.818 41.5402C185.279 40.7293 185.93 40.0858 186.771 39.6097C187.612 39.1261 188.608 38.8843 189.762 38.8843C190.9 38.8843 191.86 39.0703 192.641 39.4423C193.429 39.8068 194.024 40.335 194.426 41.0269C194.835 41.7113 195.04 42.5296 195.04 43.4819C195.04 44.0175 194.954 44.542 194.783 45.0553C194.612 45.5612 194.367 46.0671 194.047 46.573C193.734 47.0714 193.355 47.5773 192.908 48.0907C192.462 48.604 191.967 49.1359 191.424 49.6864L188.601 52.8556H195.564Z" fill="#242424"/>
<path fill-rule="evenodd" clip-rule="evenodd" d="M192.964 72.8357C195.49 72.864 197.044 71.2458 196.189 69.5425C195.335 67.8392 194.483 67.4559 193.141 66.221C191.798 64.9861 189.846 62.8498 189.855 62.3459C189.865 62.8498 187.994 64.9861 186.651 66.221C185.309 67.4559 184.458 67.8392 183.602 69.5425C182.748 71.2458 184.302 72.864 186.828 72.8357C188.562 72.8161 189.342 71.8202 189.66 71.1975L189.66 72.0125C189.66 72.0125 189.107 74.952 185.2 75.2738L184.577 75.2738L184.577 75.7319L195.215 75.7319L195.215 75.2738L194.592 75.2738C190.686 74.952 190.132 72.0125 190.132 72.0125L190.132 71.3045C190.507 71.9279 191.326 72.8172 192.964 72.8357Z" fill="#242424"/>
<path fill-rule="evenodd" clip-rule="evenodd" d="M225.089 104.275C230.583 104.337 233.962 100.818 232.103 97.114C230.244 93.4097 228.391 92.5763 225.473 89.8908C222.554 87.2052 218.309 82.5595 218.329 81.4637C218.35 82.5595 214.28 87.2052 211.36 89.8908C208.442 92.5763 206.591 93.4097 204.73 97.114C202.872 100.818 206.252 104.337 211.745 104.275C215.515 104.233 217.212 102.067 217.904 100.713L217.904 102.485C217.904 102.485 216.701 108.878 208.204 109.578L206.85 109.578L206.85 110.574L229.985 110.574L229.985 109.578L228.629 109.578C220.135 108.878 218.929 102.485 218.929 102.485L218.929 100.946C219.745 102.301 221.528 104.235 225.089 104.275Z" fill="#242424"/>
</g>
</g>
<g filter="url(#filter1_d_14_4344)">
<rect x="201.296" y="44.2958" width="58.5753" height="82.2421" rx="9.17088" fill="#161F2C" stroke="#55657E" stroke-width="0.591669" stroke-dasharray="4.73 4.73"/>
<g clip-path="url(#clip1_14_4344)">
<rect x="201" y="44" width="59.1669" height="82.8337" rx="7.10003" fill="url(#paint1_linear_14_4344)"/>
<path d="M215.536 62.3785V51.1189H218.873V62.3785C218.873 63.4647 218.634 64.3983 218.158 65.1795C217.682 65.9532 217.031 66.5484 216.205 66.965C215.387 67.3816 214.465 67.5899 213.438 67.5899C212.374 67.5899 211.433 67.4113 210.615 67.0542C209.796 66.6971 209.153 66.1503 208.684 65.4138C208.215 64.6699 207.981 63.7288 207.981 62.5906H211.34C211.34 63.1857 211.422 63.6581 211.586 64.0078C211.757 64.3574 211.998 64.6067 212.311 64.7554C212.623 64.9042 212.999 64.9786 213.438 64.9786C213.862 64.9786 214.23 64.8782 214.543 64.6773C214.855 64.4765 215.097 64.1826 215.268 63.7958C215.447 63.4089 215.536 62.9365 215.536 62.3785Z" fill="#EE3D3D"/>
<path fill-rule="evenodd" clip-rule="evenodd" d="M217.117 74.6731C214.465 74.7102 213.938 77.4563 213.938 77.4563C213.938 77.4563 213.326 74.7102 210.674 74.6731C208.022 74.636 206.389 76.7512 207.287 78.9778C208.185 81.2043 209.079 81.7053 210.488 83.3196C211.898 84.9339 213.948 87.7264 213.938 88.385C213.928 87.7264 215.893 84.9339 217.302 83.3196C218.711 81.7053 219.606 81.2043 220.503 78.9778C221.401 76.7512 219.769 74.636 217.117 74.6731Z" fill="#EE3D3D"/>
<path fill-rule="evenodd" clip-rule="evenodd" d="M249.423 94.1745C243.656 94.2551 242.509 100.227 242.509 100.227C242.509 100.227 241.178 94.2551 235.411 94.1745C229.643 94.0938 226.094 98.6937 228.046 103.536C229.998 108.378 231.943 109.467 235.008 112.978C238.073 116.488 242.531 122.561 242.509 123.994C242.487 122.561 246.761 116.488 249.826 112.978C252.891 109.467 254.836 108.378 256.788 103.536C258.74 98.6937 255.19 94.0938 249.423 94.1745Z" fill="#EE3D3D"/>
</g>
</g>
<g filter="url(#filter2_d_14_4344)">
<rect x="224.296" y="55.2958" width="58.5753" height="82.2421" rx="9.17088" fill="#161F2C" stroke="#55657E" stroke-width="0.591669" stroke-dasharray="4.73 4.73"/>
<g clip-path="url(#clip2_14_4344)">
<rect x="224" y="55" width="59.1669" height="82.8337" rx="7.10003" fill="url(#paint2_linear_14_4344)"/>
<path d="M239.284 62.0852V78.3665H236.07V65.79L232.209 67.0175V64.4844L238.938 62.0852H239.284Z" fill="#EE3D3D"/>
<path fill-rule="evenodd" clip-rule="evenodd" d="M240.117 85.6728C237.465 85.7099 236.938 88.4561 236.938 88.4561C236.938 88.4561 236.326 85.7099 233.674 85.6728C231.022 85.6357 229.389 87.751 230.287 89.9775C231.185 92.2041 232.079 92.7051 233.488 94.3193C234.898 95.9336 236.948 98.7261 236.938 99.3848C236.928 98.7261 238.893 95.9336 240.302 94.3193C241.711 92.7051 242.606 92.2041 243.503 89.9775C244.401 87.751 242.769 85.6357 240.117 85.6728Z" fill="#EE3D3D"/>
<path fill-rule="evenodd" clip-rule="evenodd" d="M272.422 105.175C266.655 105.255 265.508 111.227 265.508 111.227C265.508 111.227 264.177 105.255 258.41 105.175C252.642 105.094 249.093 109.694 251.045 114.536C252.997 119.378 254.942 120.467 258.007 123.978C261.072 127.489 265.53 133.561 265.508 134.994C265.486 133.561 269.76 127.489 272.825 123.978C275.89 120.467 277.835 119.378 279.787 114.536C281.739 109.694 278.189 105.094 272.422 105.175Z" fill="#EE3D3D"/>
</g>
</g>
<g opacity="0.34" clip-path="url(#clip3_14_4344)">
<path d="M14.5501 20H86V43H14V20H14.5501ZM84.8999 21.1061H15.1003V41.894H84.8999V21.1061Z" fill="white" fill-opacity="0.2"/>
<path d="M42.0468 38.2447C42.3271 38.4693 44.0685 38.8085 45.1504 37.9384C45.1504 39.1127 43.6322 40.3426 42.4922 40.6681H48.1355V22.6664C45.7972 21.7086 43.0335 22.5863 42.0739 24.8505C41.3187 26.6327 41.7426 28.5293 43.3478 29.9623C43.4783 29.9974 44.0969 30.1044 44.7944 30.5758L43.988 31.3809C43.4865 31.1007 42.9025 30.9453 42.2444 30.9453C40.5308 30.9453 39.3047 32.2095 39.3047 34.0426C39.3047 35.8758 40.5308 37.1557 42.2444 37.1557C43.329 37.1557 44.2251 36.7765 44.8067 36.0812L45.514 36.808C44.7987 37.68 43.414 38.2116 42.0467 38.2446L42.0468 38.2447Z" fill="white" fill-opacity="0.2"/>
<path fill-rule="evenodd" clip-rule="evenodd" d="M44.6818 28.7839L43.3479 29.9623C43.3479 29.9623 39.0431 28.8861 38.0606 33.2279C38.0409 33.4952 37.7229 35.5942 39.1146 36.8495C38.4214 36.5727 37.4424 35.3278 37.4424 33.5745C37.4424 29.2257 42.2807 28.6682 43.2903 29.4419C43.0687 29.5978 44.682 28.7841 44.682 28.7841L44.6818 28.7839Z" fill="white" fill-opacity="0.2"/>
<path d="M48.7993 33.4251L53.7614 29.6589V31.2406L50.2194 33.9289L53.7614 36.617V38.1987L48.7993 34.4327L48.1357 33.9289L48.7993 33.4251Z" fill="white" fill-opacity="0.2"/>
<path d="M21.9487 27.1368H17.3115V38.1987H22.0117C24.5111 38.1987 25.9888 37.0768 25.9888 35.1962C25.9888 33.6792 25.0615 32.6362 23.4736 32.399C24.7468 32.1304 25.5171 31.1981 25.5171 29.9022C25.5171 28.1638 24.1645 27.1366 21.9487 27.1366V27.1368ZM21.886 31.925H18.5691V28.3061H21.886C23.3635 28.3061 24.2282 28.9541 24.2282 30.0919C24.2282 31.2296 23.3628 31.925 21.886 31.925ZM21.886 37.0294H18.5691V33.0946H21.886C23.6781 33.0946 24.7156 33.8056 24.7156 35.0383C24.7156 36.2709 23.6773 37.0294 21.886 37.0294ZM27.572 24.9091V38.1987H28.7982V24.9091H27.572ZM37.2977 38.1987L37.282 32.6994C37.2771 30.9294 36.1345 29.839 34.091 29.839C32.6762 29.839 31.7803 30.2499 30.7114 30.9611L31.2302 31.8302C32.0946 31.2139 32.9436 30.8664 33.8552 30.8664C35.3171 30.8664 36.0717 31.6094 36.0717 32.8258V33.3474H33.3523C31.4033 33.3474 30.2554 34.2798 30.2554 35.7337C30.2554 37.1875 31.3558 38.2463 33.0694 38.2463C34.3899 38.2463 35.4429 37.8037 36.1031 36.903V38.1989H37.2978L37.2977 38.1987ZM33.305 37.2191C32.1417 37.2191 31.4028 36.6028 31.4028 35.6861C31.4028 34.7695 32.126 34.3272 33.5092 34.3272H36.0872V35.3384C36.0872 36.5647 34.7039 37.2191 33.3048 37.2191H33.305ZM56.125 24.8602C55.6535 24.8602 55.2919 25.2239 55.2919 25.7135C55.2919 26.2032 55.6533 26.5512 56.125 26.5512C56.5967 26.5512 56.9583 26.1876 56.9583 25.7135C56.9583 25.2395 56.6124 24.8602 56.125 24.8602ZM56.7381 38.5559V28.0998H55.512V38.7139C55.512 39.756 55.0401 40.2405 54.3174 40.2309C53.9094 40.2255 53.4841 40.0728 53.1227 39.8042L52.6826 40.7839C53.1541 41.1476 53.7672 41.3528 54.3647 41.3528C55.6535 41.3528 56.7383 40.4679 56.7383 38.5557L56.7381 38.5559ZM65.4941 38.1987L65.4782 32.6994C65.4734 30.9294 64.3308 29.839 62.2873 29.839C60.8725 29.839 59.9765 30.2499 58.9076 30.9611L59.4265 31.8302C60.2908 31.2139 61.1398 30.8664 62.0515 30.8664C63.5134 30.8664 64.268 31.6097 64.268 32.8258V33.3474H61.5485C59.5999 33.3474 58.4516 34.2798 58.4516 35.7337C58.4516 37.1875 59.5521 38.2463 61.2656 38.2463C62.5862 38.2463 63.6392 37.8037 64.2994 36.903V38.1989H65.4941V38.1987ZM61.5014 37.2191C60.3381 37.2191 59.5992 36.6028 59.5992 35.6861C59.5992 34.7695 60.3224 34.3272 61.7056 34.3272H64.2837V35.3384C64.2837 36.5645 62.9003 37.2191 61.5012 37.2191H61.5014ZM73.3378 31.925L74.0138 31.0717C73.2591 30.2973 72.1588 29.839 70.8227 29.839C68.4334 29.839 66.7199 31.5774 66.7199 34.0427C66.7199 36.5079 68.4176 38.2461 70.8227 38.2461C72.2532 38.2461 73.4006 37.7087 74.1397 36.8081L73.4322 36.0812C72.8505 36.7765 71.9544 37.1558 70.8698 37.1558C69.1563 37.1558 67.9301 35.8916 67.9301 34.0427C67.9301 32.1937 69.1563 30.9453 70.8698 30.9453C71.8759 30.9453 72.709 31.3087 73.3379 31.925H73.3378ZM77.0633 24.9091H75.8372V38.1987H77.0633C77.0633 22.9661 77.0633 33.0355 77.0633 24.9091Z" fill="white" fill-opacity="0.2"/>
<path d="M77.726 33.4251L82.6882 29.6589V38.1987L77.726 34.4325L77.0625 33.9287L77.726 33.425V33.4251Z" fill="white" fill-opacity="0.2"/>
</g>
<path fill-rule="evenodd" clip-rule="evenodd" d="M363.5 155.888L340.397 155.888L340.397 173.801L330.104 178.011L337.915 173.801L326.069 173.801L326.069 180L363.5 180L350.057 167.944L363.5 155.888ZM96.5 155.888L119.603 155.888L119.603 173.801L129.896 178.011L122.085 173.801L133.931 173.801L133.931 180L96.5 180L109.943 167.944L96.5 155.888ZM338.644 148L121.364 148L121.364 172.121L338.644 172.121L338.644 148.008L338.644 148Z" fill="#12212B"/>
<path d="M141.311 155.432H145.235C146.087 155.432 146.759 155.636 147.239 156.044C147.683 156.428 147.911 156.944 147.911 157.592C147.911 158.072 147.791 158.48 147.563 158.816C147.335 159.128 147.011 159.356 146.579 159.524C147.143 159.632 147.563 159.86 147.851 160.208C148.127 160.544 148.271 161.012 148.271 161.588C148.271 162.452 147.971 163.088 147.383 163.496C146.879 163.832 146.159 164 145.247 164H141.311V155.432ZM142.715 156.584V159.032H144.863C145.463 159.032 145.883 158.924 146.135 158.732C146.375 158.528 146.507 158.204 146.507 157.76C146.507 157.352 146.375 157.052 146.135 156.872C145.871 156.68 145.463 156.584 144.887 156.584H142.715ZM142.715 160.184V162.848H145.043C145.571 162.848 145.991 162.764 146.291 162.596C146.675 162.38 146.867 162.044 146.867 161.564C146.867 161.072 146.723 160.724 146.447 160.508C146.159 160.292 145.703 160.184 145.079 160.184H142.715ZM149.596 155.432H150.988V162.8H155.62V164H149.596V155.432ZM159.133 155.432H160.729L164.005 164H162.505L161.725 161.852H158.137L157.357 164H155.857L159.133 155.432ZM158.557 160.7H161.305L159.961 156.944H159.913L158.557 160.7ZM168.562 155.264C169.57 155.264 170.41 155.528 171.058 156.056C171.682 156.56 172.054 157.256 172.186 158.12H170.818C170.674 157.556 170.41 157.148 170.014 156.884C169.63 156.62 169.138 156.5 168.538 156.5C167.638 156.5 166.966 156.8 166.51 157.424C166.09 157.976 165.886 158.744 165.886 159.728C165.886 160.736 166.09 161.516 166.498 162.056C166.942 162.632 167.638 162.932 168.574 162.932C169.186 162.932 169.69 162.776 170.074 162.488C170.482 162.164 170.77 161.672 170.938 161.024H172.306C172.114 162.032 171.67 162.812 170.962 163.376C170.302 163.904 169.51 164.168 168.586 164.168C167.158 164.168 166.09 163.712 165.394 162.824C164.782 162.056 164.482 161.024 164.482 159.728C164.482 158.456 164.794 157.412 165.43 156.62C166.15 155.708 167.194 155.264 168.562 155.264ZM179.019 155.432H180.795L177.027 159.104L181.359 164H179.463L176.079 160.028L175.035 161.048V164H173.631V155.432H175.035V159.476L179.019 155.432ZM182.197 155.432H183.601V164H182.197V155.432ZM187.715 155.432H189.311L192.587 164H191.087L190.307 161.852H186.719L185.939 164H184.439L187.715 155.432ZM187.139 160.7H189.887L188.543 156.944H188.495L187.139 160.7ZM197.144 155.264C198.152 155.264 198.992 155.528 199.64 156.056C200.264 156.56 200.636 157.256 200.768 158.12H199.4C199.256 157.556 198.992 157.148 198.596 156.884C198.212 156.62 197.72 156.5 197.12 156.5C196.22 156.5 195.548 156.8 195.092 157.424C194.672 157.976 194.468 158.744 194.468 159.728C194.468 160.736 194.672 161.516 195.08 162.056C195.524 162.632 196.22 162.932 197.156 162.932C197.768 162.932 198.272 162.776 198.656 162.488C199.064 162.164 199.352 161.672 199.52 161.024H200.888C200.696 162.032 200.252 162.812 199.544 163.376C198.884 163.904 198.092 164.168 197.168 164.168C195.74 164.168 194.672 163.712 193.976 162.824C193.364 162.056 193.064 161.024 193.064 159.728C193.064 158.456 193.376 157.412 194.012 156.62C194.732 155.708 195.776 155.264 197.144 155.264ZM207.601 155.432H209.377L205.609 159.104L209.941 164H208.045L204.661 160.028L203.617 161.048V164H202.213V155.432H203.617V159.476L207.601 155.432ZM214.116 155.432H221.136V156.632H218.328V164H216.924V156.632H214.116V155.432ZM222.158 155.432H225.974C226.85 155.432 227.546 155.624 228.05 156.02C228.578 156.452 228.854 157.076 228.854 157.892C228.854 158.336 228.734 158.732 228.494 159.08C228.23 159.464 227.858 159.716 227.402 159.836V159.86C228.146 160.028 228.566 160.52 228.662 161.36L228.806 162.74C228.854 163.268 229.034 163.688 229.322 164H227.798C227.594 163.736 227.474 163.364 227.426 162.884L227.318 161.828C227.27 161.36 227.126 161.024 226.886 160.82C226.634 160.604 226.262 160.508 225.782 160.508H223.562V164H222.158V155.432ZM223.562 156.632V159.308H225.782C226.334 159.308 226.754 159.188 227.042 158.96C227.306 158.72 227.438 158.384 227.438 157.952C227.438 157.484 227.306 157.148 227.042 156.944C226.778 156.728 226.358 156.632 225.782 156.632H223.562ZM232.962 155.432H234.558L237.834 164H236.334L235.554 161.852H231.966L231.186 164H229.686L232.962 155.432ZM232.386 160.7H235.134L233.79 156.944H233.742L232.386 160.7ZM233.656 153.132C234.52 153.132 234.952 153.432 234.952 154.044C234.952 154.536 234.556 154.932 233.764 155.244L233.404 154.872C233.968 154.572 234.256 154.296 234.256 154.056C234.256 153.804 234.028 153.684 233.572 153.684C233.248 153.684 232.912 153.768 232.564 153.936V153.324C232.924 153.192 233.284 153.132 233.656 153.132ZM242.006 155.432H249.026V156.632H246.218V164H244.814V156.632H242.006V155.432ZM250.049 155.432H251.453V164H250.049V155.432ZM256.731 152.576H258.027L259.047 154.04H258.327L256.731 152.576ZM255.543 153.464H256.755L257.979 154.808H257.127L256.155 153.98L255.171 154.808H254.319L255.543 153.464ZM253.131 155.432H259.311V156.632H254.535V159.008H259.023V160.208H254.535V162.8H259.515V164H253.131V155.432ZM260.83 155.432H262.234L266.47 161.612H266.518V155.432H267.934V164H266.566L262.282 157.736H262.234V164H260.83V155.432ZM276.459 155.264C277.323 155.264 278.031 155.468 278.559 155.888C279.075 156.308 279.339 156.884 279.339 157.628C279.339 158.564 278.859 159.188 277.911 159.5C278.415 159.656 278.811 159.884 279.075 160.196C279.363 160.52 279.507 160.94 279.507 161.444C279.507 162.236 279.231 162.884 278.679 163.388C278.103 163.904 277.347 164.168 276.411 164.168C275.523 164.168 274.803 163.94 274.263 163.484C273.663 162.98 273.327 162.236 273.255 161.276H274.683C274.707 161.828 274.875 162.26 275.211 162.56C275.511 162.836 275.907 162.98 276.399 162.98C276.939 162.98 277.371 162.824 277.683 162.524C277.959 162.248 278.103 161.912 278.103 161.504C278.103 161.012 277.947 160.652 277.659 160.424C277.371 160.184 276.951 160.076 276.399 160.076H275.799V159.02H276.399C276.903 159.02 277.287 158.912 277.551 158.696C277.803 158.48 277.935 158.156 277.935 157.736C277.935 157.316 277.815 157.004 277.587 156.788C277.335 156.572 276.963 156.464 276.471 156.464C275.967 156.464 275.583 156.584 275.307 156.836C275.019 157.088 274.851 157.472 274.803 157.988H273.423C273.495 157.124 273.807 156.452 274.383 155.972C274.923 155.492 275.619 155.264 276.459 155.264ZM287.735 155.432C288.631 155.432 289.407 155.592 290.063 155.912C290.727 156.232 291.239 156.704 291.599 157.328C291.967 157.944 292.151 158.712 292.151 159.632C292.151 160.592 291.967 161.396 291.599 162.044C291.231 162.692 290.695 163.18 289.991 163.508C289.295 163.836 288.455 164 287.471 164H285.047V160.508H284.243V159.02H285.047V155.432H287.735ZM287.819 156.92H286.859V159.02H288.251V160.508H286.859V162.5H287.627C288.507 162.5 289.167 162.264 289.607 161.792C290.047 161.32 290.267 160.616 290.267 159.68C290.267 159.048 290.171 158.528 289.979 158.12C289.787 157.712 289.507 157.412 289.139 157.22C288.779 157.02 288.339 156.92 287.819 156.92ZM293.69 155.432H299.87V156.632H295.094V159.008H299.582V160.208H295.094V162.8H300.074V164H293.69V155.432ZM299.066 152.576H300.362L298.646 154.04L298.034 153.896L299.066 152.576ZM296.102 153.464H297.314L298.538 154.808H297.686L296.714 153.98L295.73 154.808H294.878L296.102 153.464ZM301.389 155.432H302.793L307.029 161.612H307.077V155.432H308.493V164H307.125L302.841 157.736H302.793V164H301.389V155.432ZM317.066 155.264C317.894 155.264 318.578 155.504 319.118 155.984C319.646 156.464 319.91 157.076 319.91 157.844C319.91 158.588 319.622 159.26 319.07 159.872C318.734 160.232 318.134 160.688 317.294 161.252C316.418 161.828 315.89 162.332 315.698 162.764H319.922V164H313.946C313.946 163.124 314.222 162.368 314.798 161.72C315.11 161.36 315.77 160.832 316.766 160.148C317.318 159.764 317.702 159.44 317.942 159.188C318.314 158.768 318.506 158.312 318.506 157.832C318.506 157.364 318.374 157.016 318.134 156.788C317.882 156.56 317.51 156.452 317.018 156.452C316.49 156.452 316.094 156.632 315.83 156.992C315.566 157.328 315.422 157.844 315.398 158.516H313.994C314.006 157.556 314.282 156.788 314.834 156.2C315.398 155.576 316.142 155.264 317.066 155.264Z" fill="#7C8499"/>
<path d="M134.707 183.432H138.631C139.483 183.432 140.155 183.636 140.635 184.044C141.079 184.428 141.307 184.944 141.307 185.592C141.307 186.072 141.187 186.48 140.959 186.816C140.731 187.128 140.407 187.356 139.975 187.524C140.539 187.632 140.959 187.86 141.247 188.208C141.523 188.544 141.667 189.012 141.667 189.588C141.667 190.452 141.367 191.088 140.779 191.496C140.275 191.832 139.555 192 138.643 192H134.707V183.432ZM136.111 184.584V187.032H138.259C138.859 187.032 139.279 186.924 139.531 186.732C139.771 186.528 139.903 186.204 139.903 185.76C139.903 185.352 139.771 185.052 139.531 184.872C139.267 184.68 138.859 184.584 138.283 184.584H136.111ZM136.111 188.184V190.848H138.439C138.967 190.848 139.387 190.764 139.687 190.596C140.071 190.38 140.263 190.044 140.263 189.564C140.263 189.072 140.119 188.724 139.843 188.508C139.555 188.292 139.099 188.184 138.475 188.184H136.111ZM145.428 183.432H147.024L150.3 192H148.8L148.02 189.852H144.432L143.652 192H142.152L145.428 183.432ZM144.852 188.7H147.6L146.256 184.944H146.208L144.852 188.7ZM146.123 181.132C146.987 181.132 147.419 181.432 147.419 182.044C147.419 182.536 147.023 182.932 146.231 183.244L145.871 182.872C146.435 182.572 146.723 182.296 146.723 182.056C146.723 181.804 146.495 181.684 146.039 181.684C145.715 181.684 145.379 181.768 145.031 181.936V181.324C145.391 181.192 145.751 181.132 146.123 181.132ZM154.941 183.264C156.249 183.264 157.281 183.684 158.037 184.536C158.757 185.34 159.117 186.408 159.117 187.728C159.117 189.048 158.757 190.104 158.037 190.908C157.281 191.748 156.249 192.168 154.941 192.168C153.621 192.168 152.589 191.736 151.845 190.896C151.125 190.08 150.777 189.024 150.777 187.728C150.777 186.42 151.125 185.364 151.845 184.548C152.589 183.684 153.621 183.264 154.941 183.264ZM154.941 184.5C154.053 184.5 153.369 184.8 152.877 185.4C152.409 185.976 152.181 186.744 152.181 187.728C152.181 188.7 152.409 189.468 152.877 190.044C153.357 190.632 154.053 190.932 154.941 190.932C155.829 190.932 156.513 190.644 156.993 190.08C157.461 189.516 157.701 188.736 157.701 187.728C157.701 186.72 157.461 185.928 156.993 185.352C156.513 184.776 155.829 184.5 154.941 184.5ZM164.438 183.432H165.842V187.008H170.186V183.432H171.59V192H170.186V188.208H165.842V192H164.438V183.432ZM173.274 183.432H174.678V192H173.274V183.432ZM178.768 181.284H179.98L181.204 182.808H180.352L179.368 181.86L178.396 182.808H177.544L178.768 181.284ZM176.356 183.432H182.536V184.632H177.76V187.008H182.248V188.208H177.76V190.8H182.74V192H176.356V183.432ZM179.263 179.132C180.127 179.132 180.559 179.432 180.559 180.044C180.559 180.536 180.163 180.932 179.371 181.244L179.011 180.872C179.575 180.572 179.863 180.296 179.863 180.056C179.863 179.804 179.635 179.684 179.179 179.684C178.855 179.684 178.519 179.768 178.171 179.936V179.324C178.531 179.192 178.891 179.132 179.263 179.132ZM184.055 183.432H185.699L188.615 190.152H188.663L191.567 183.432H193.211V192H191.807V186.096H191.759L189.239 192H188.027L185.507 186.096H185.459V192H184.055V183.432ZM198.231 183.432H205.251V184.632H202.443V192H201.039V184.632H198.231V183.432ZM206.274 183.432H207.678V187.008H212.022V183.432H213.426V192H212.022V188.208H207.678V192H206.274V183.432ZM217.546 183.432H219.142L222.418 192H220.918L220.138 189.852H216.55L215.77 192H214.27L217.546 183.432ZM216.97 188.7H219.718L218.374 184.944H218.326L216.97 188.7ZM223.254 183.432H224.658L228.894 189.612H228.942V183.432H230.358V192H228.99L224.706 185.736H224.658V192H223.254V183.432ZM232.043 183.432H233.447V187.008H237.791V183.432H239.195V192H237.791V188.208H233.447V192H232.043V183.432ZM244.215 183.432H251.235V184.632H248.427V192H247.023V184.632H244.215V183.432ZM256.062 183.264C257.37 183.264 258.402 183.684 259.158 184.536C259.878 185.34 260.238 186.408 260.238 187.728C260.238 189.048 259.878 190.104 259.158 190.908C258.402 191.748 257.37 192.168 256.062 192.168C254.742 192.168 253.71 191.736 252.966 190.896C252.246 190.08 251.898 189.024 251.898 187.728C251.898 186.42 252.246 185.364 252.966 184.548C253.71 183.684 254.742 183.264 256.062 183.264ZM256.062 184.5C255.174 184.5 254.49 184.8 253.998 185.4C253.53 185.976 253.302 186.744 253.302 187.728C253.302 188.7 253.53 189.468 253.998 190.044C254.478 190.632 255.174 190.932 256.062 190.932C256.95 190.932 257.634 190.644 258.114 190.08C258.582 189.516 258.822 188.736 258.822 187.728C258.822 186.72 258.582 185.928 258.114 185.352C257.634 184.776 256.95 184.5 256.062 184.5ZM265.055 181.188H266.555L264.827 182.94H263.939L265.055 181.188ZM263.999 183.432H265.595L268.871 192H267.371L266.591 189.852H263.003L262.223 192H260.723L263.999 183.432ZM263.423 188.7H266.171L264.827 184.944H264.779L263.423 188.7ZM269.707 183.432H271.111L275.347 189.612H275.395V183.432H276.811V192H275.443L271.159 185.736H271.111V192H269.707V183.432ZM285.384 183.264C286.212 183.264 286.896 183.504 287.436 183.984C287.964 184.464 288.228 185.076 288.228 185.844C288.228 186.588 287.94 187.26 287.388 187.872C287.052 188.232 286.452 188.688 285.612 189.252C284.736 189.828 284.208 190.332 284.016 190.764H288.24V192H282.264C282.264 191.124 282.54 190.368 283.116 189.72C283.428 189.36 284.088 188.832 285.084 188.148C285.636 187.764 286.02 187.44 286.26 187.188C286.632 186.768 286.824 186.312 286.824 185.832C286.824 185.364 286.692 185.016 286.452 184.788C286.2 184.56 285.828 184.452 285.336 184.452C284.808 184.452 284.412 184.632 284.148 184.992C283.884 185.328 283.74 185.844 283.716 186.516H282.312C282.324 185.556 282.6 184.788 283.152 184.2C283.716 183.576 284.46 183.264 285.384 183.264ZM296.612 183.432C297.508 183.432 298.284 183.592 298.94 183.912C299.604 184.232 300.116 184.704 300.476 185.328C300.844 185.944 301.028 186.712 301.028 187.632C301.028 188.592 300.844 189.396 300.476 190.044C300.108 190.692 299.572 191.18 298.868 191.508C298.172 191.836 297.332 192 296.348 192H293.924V188.508H293.12V187.02H293.924V183.432H296.612ZM296.696 184.92H295.736V187.02H297.128V188.508H295.736V190.5H296.504C297.384 190.5 298.044 190.264 298.484 189.792C298.924 189.32 299.144 188.616 299.144 187.68C299.144 187.048 299.048 186.528 298.856 186.12C298.664 185.712 298.384 185.412 298.016 185.22C297.656 185.02 297.216 184.92 296.696 184.92ZM302.567 183.432H308.747V184.632H303.971V187.008H308.459V188.208H303.971V190.8H308.951V192H302.567V183.432ZM307.943 180.576H309.239L307.523 182.04L306.911 181.896L307.943 180.576ZM304.979 181.464H306.191L307.415 182.808H306.563L305.591 181.98L304.607 182.808H303.755L304.979 181.464ZM310.266 183.432H311.67L315.906 189.612H315.954V183.432H317.37V192H316.002L311.718 185.736H311.67V192H310.266V183.432ZM324.995 183.432H326.051V192H324.647V185.124C324.131 185.592 323.483 185.94 322.691 186.168V184.776C323.075 184.68 323.483 184.512 323.915 184.272C324.347 184.008 324.707 183.732 324.995 183.432Z" fill="#7C8499"/>
<rect x="230.5" y="204" width="56" height="21" rx="10.5" fill="#15C600"/>
<path d="M255.606 209.08C256.626 209.08 257.481 209.365 258.141 209.965C258.786 210.565 259.116 211.33 259.116 212.275C259.116 213.205 258.756 214.045 258.066 214.81C257.646 215.245 256.911 215.815 255.846 216.535C254.691 217.3 254.001 217.975 253.776 218.56H259.131V220H251.751C251.751 218.935 252.096 218.005 252.816 217.195C253.206 216.73 254.016 216.085 255.231 215.245C255.951 214.735 256.461 214.33 256.761 214.015C257.241 213.475 257.496 212.89 257.496 212.26C257.496 211.66 257.331 211.21 257.001 210.91C256.671 210.61 256.176 210.46 255.546 210.46C254.871 210.46 254.361 210.685 254.016 211.15C253.656 211.6 253.476 212.245 253.446 213.115H251.811C251.826 211.915 252.171 210.955 252.846 210.235C253.536 209.455 254.466 209.08 255.606 209.08ZM263.416 209.29H264.646V220H263.011V211.255C262.366 211.87 261.541 212.32 260.551 212.605V210.985C261.031 210.865 261.526 210.655 262.066 210.355C262.606 210.025 263.056 209.68 263.416 209.29Z" fill="white"/>
<g filter="url(#filter3_d_14_4344)">
<rect x="177.296" y="225.296" width="58.5753" height="82.2421" rx="9.17088" fill="#161F2C" stroke="#55657E" stroke-width="0.591669" stroke-dasharray="4.73 4.73"/>
<g clip-path="url(#clip4_14_4344)">
<rect x="177" y="225" width="59.1669" height="82.8337" rx="7.10003" fill="url(#paint3_linear_14_4344)"/>
<path d="M187.474 240.968L184.907 240.354L185.834 232.119H194.962V234.719H188.478L188.077 238.323C188.292 238.197 188.62 238.063 189.059 237.921C189.497 237.773 189.989 237.698 190.532 237.698C191.32 237.698 192.019 237.821 192.63 238.067C193.24 238.312 193.757 238.669 194.181 239.138C194.612 239.606 194.939 240.179 195.163 240.856C195.386 241.533 195.497 242.3 195.497 243.155C195.497 243.877 195.386 244.565 195.163 245.22C194.939 245.867 194.601 246.447 194.147 246.96C193.693 247.466 193.124 247.864 192.44 248.154C191.755 248.445 190.944 248.59 190.007 248.59C189.308 248.59 188.631 248.485 187.976 248.277C187.329 248.069 186.745 247.76 186.224 247.351C185.711 246.942 185.298 246.447 184.985 245.867C184.68 245.279 184.52 244.61 184.506 243.858H187.697C187.742 244.319 187.861 244.717 188.054 245.052C188.255 245.38 188.519 245.632 188.847 245.811C189.174 245.99 189.557 246.079 189.996 246.079C190.405 246.079 190.755 246.001 191.045 245.844C191.335 245.688 191.569 245.473 191.748 245.197C191.926 244.915 192.057 244.587 192.139 244.215C192.228 243.836 192.272 243.427 192.272 242.988C192.272 242.549 192.22 242.151 192.116 241.794C192.012 241.437 191.852 241.128 191.636 240.867C191.421 240.607 191.145 240.406 190.811 240.265C190.483 240.124 190.1 240.053 189.661 240.053C189.066 240.053 188.605 240.146 188.277 240.332C187.958 240.518 187.69 240.73 187.474 240.968Z" fill="#242424"/>
<path fill-rule="evenodd" clip-rule="evenodd" d="M192.964 265.836C195.49 265.864 197.044 264.246 196.189 262.543C195.335 260.839 194.483 260.456 193.141 259.221C191.798 257.986 189.846 255.85 189.855 255.346C189.865 255.85 187.994 257.986 186.651 259.221C185.309 260.456 184.458 260.839 183.602 262.543C182.748 264.246 184.302 265.864 186.828 265.836C188.562 265.816 189.342 264.82 189.66 264.198L189.66 265.012C189.66 265.012 189.107 267.952 185.2 268.274L184.577 268.274L184.577 268.732L195.215 268.732L195.215 268.274L194.592 268.274C190.686 267.952 190.132 265.012 190.132 265.012L190.132 264.305C190.507 264.928 191.326 265.817 192.964 265.836Z" fill="#242424"/>
<path fill-rule="evenodd" clip-rule="evenodd" d="M225.089 297.276C230.583 297.337 233.962 293.818 232.103 290.114C230.244 286.41 228.391 285.576 225.473 282.891C222.554 280.205 218.309 275.56 218.329 274.464C218.35 275.56 214.28 280.205 211.36 282.891C208.442 285.576 206.591 286.41 204.73 290.114C202.872 293.818 206.252 297.337 211.745 297.276C215.515 297.233 217.212 295.067 217.904 293.713L217.904 295.485C217.904 295.485 216.701 301.878 208.204 302.578L206.85 302.578L206.85 303.574L229.985 303.574L229.985 302.578L228.629 302.578C220.135 301.878 218.929 295.485 218.929 295.485L218.929 293.946C219.745 295.301 221.528 297.236 225.089 297.276Z" fill="#242424"/>
</g>
<rect x="177.5" y="225.5" width="58.1669" height="81.8337" rx="6.60003" stroke="#15C600"/>
</g>
<g filter="url(#filter4_d_14_4344)">
<rect x="201.296" y="237.296" width="58.5753" height="82.2421" rx="9.17088" fill="#161F2C" stroke="#55657E" stroke-width="0.591669" stroke-dasharray="4.73 4.73"/>
<g clip-path="url(#clip5_14_4344)">
<rect x="201" y="237" width="59.1669" height="82.8337" rx="7.10003" fill="url(#paint4_linear_14_4344)"/>
<path d="M211.474 252.968L208.907 252.354L209.834 244.119H218.962V246.719H212.478L212.077 250.323C212.292 250.197 212.62 250.063 213.059 249.922C213.497 249.773 213.989 249.698 214.532 249.698C215.32 249.698 216.019 249.821 216.63 250.067C217.24 250.312 217.757 250.669 218.181 251.138C218.612 251.607 218.939 252.18 219.163 252.857C219.386 253.534 219.497 254.3 219.497 255.155C219.497 255.877 219.386 256.565 219.163 257.22C218.939 257.867 218.601 258.447 218.147 258.961C217.693 259.467 217.124 259.865 216.44 260.155C215.755 260.445 214.944 260.59 214.007 260.59C213.308 260.59 212.631 260.486 211.976 260.277C211.329 260.069 210.745 259.76 210.224 259.351C209.711 258.942 209.298 258.447 208.985 257.867C208.68 257.279 208.52 256.61 208.506 255.858H211.697C211.742 256.32 211.861 256.718 212.054 257.052C212.255 257.38 212.519 257.633 212.847 257.811C213.174 257.99 213.557 258.079 213.996 258.079C214.405 258.079 214.755 258.001 215.045 257.845C215.335 257.688 215.569 257.473 215.748 257.197C215.926 256.915 216.057 256.587 216.139 256.215C216.228 255.836 216.272 255.427 216.272 254.988C216.272 254.549 216.22 254.151 216.116 253.794C216.012 253.437 215.852 253.128 215.636 252.868C215.421 252.607 215.145 252.406 214.811 252.265C214.483 252.124 214.1 252.053 213.661 252.053C213.066 252.053 212.605 252.146 212.277 252.332C211.958 252.518 211.69 252.73 211.474 252.968Z" fill="#EE3D3D"/>
<path fill-rule="evenodd" clip-rule="evenodd" d="M217.117 267.673C214.465 267.71 213.938 270.456 213.938 270.456C213.938 270.456 213.326 267.71 210.674 267.673C208.022 267.636 206.389 269.751 207.287 271.978C208.185 274.204 209.079 274.705 210.488 276.32C211.898 277.934 213.948 280.726 213.938 281.385C213.928 280.726 215.893 277.934 217.302 276.32C218.711 274.705 219.606 274.204 220.503 271.978C221.401 269.751 219.769 267.636 217.117 267.673Z" fill="#EE3D3D"/>
<path fill-rule="evenodd" clip-rule="evenodd" d="M249.423 287.175C243.656 287.255 242.509 293.227 242.509 293.227C242.509 293.227 241.178 287.255 235.411 287.175C229.643 287.094 226.094 291.694 228.046 296.536C229.998 301.378 231.943 302.467 235.008 305.978C238.073 309.489 242.531 315.561 242.509 316.994C242.487 315.561 246.761 309.489 249.826 305.978C252.891 302.467 254.836 301.378 256.788 296.536C258.74 291.694 255.19 287.094 249.423 287.175Z" fill="#EE3D3D"/>
</g>
<rect x="201.5" y="237.5" width="58.1669" height="81.8337" rx="6.60003" stroke="#15C600"/>
</g>
<g filter="url(#filter5_d_14_4344)">
<rect x="224.296" y="248.296" width="58.5753" height="82.2421" rx="9.17088" fill="#161F2C" stroke="#55657E" stroke-width="0.591669" stroke-dasharray="4.73 4.73"/>
<g clip-path="url(#clip6_14_4344)">
<rect x="224" y="248" width="59.1669" height="82.8337" rx="7.10003" fill="url(#paint5_linear_14_4344)"/>
<path d="M237.275 257.897L232.856 271.366H229.296L235.333 255.119H237.599L237.275 257.897ZM240.946 271.366L236.516 257.897L236.159 255.119H238.447L244.517 271.366H240.946ZM240.745 265.318V267.941H232.164V265.318H240.745Z" fill="#EE3D3D"/>
<path fill-rule="evenodd" clip-rule="evenodd" d="M240.117 278.673C237.465 278.71 236.938 281.456 236.938 281.456C236.938 281.456 236.326 278.71 233.674 278.673C231.022 278.636 229.389 280.751 230.287 282.978C231.185 285.204 232.079 285.705 233.488 287.319C234.898 288.934 236.948 291.726 236.938 292.385C236.928 291.726 238.893 288.934 240.302 287.319C241.711 285.705 242.606 285.204 243.503 282.978C244.401 280.751 242.769 278.636 240.117 278.673Z" fill="#EE3D3D"/>
<path fill-rule="evenodd" clip-rule="evenodd" d="M272.422 298.175C266.655 298.255 265.508 304.227 265.508 304.227C265.508 304.227 264.177 298.255 258.41 298.175C252.642 298.094 249.093 302.694 251.045 307.536C252.997 312.378 254.942 313.467 258.007 316.978C261.072 320.489 265.53 326.561 265.508 327.994C265.486 326.561 269.76 320.489 272.825 316.978C275.89 313.467 277.835 312.378 279.787 307.536C281.739 302.694 278.189 298.094 272.422 298.175Z" fill="#EE3D3D"/>
</g>
<rect x="224.5" y="248.5" width="58.1669" height="81.8337" rx="6.60003" stroke="#15C600"/>
</g>
<defs>
<filter id="filter0_d_14_4344" x="172.103" y="28.4086" width="68.9616" height="92.6283" filterUnits="userSpaceOnUse" color-interpolation-filters="sRGB">
<feFlood flood-opacity="0" result="BackgroundImageFix"/>
<feColorMatrix in="SourceAlpha" type="matrix" values="0 0 0 0 0 0 0 0 0 0 0 0 0 0 0 0 0 0 127 0" result="hardAlpha"/>
<feOffset dy="1.30595"/>
<feGaussianBlur stdDeviation="2.44865"/>
<feComposite in2="hardAlpha" operator="out"/>
<feColorMatrix type="matrix" values="0 0 0 0 0 0 0 0 0 0 0 0 0 0 0 0 0 0 0.25 0"/>
<feBlend mode="normal" in2="BackgroundImageFix" result="effect1_dropShadow_14_4344"/>
<feBlend mode="normal" in="SourceGraphic" in2="effect1_dropShadow_14_4344" result="shape"/>
</filter>
<filter id="filter1_d_14_4344" x="196.103" y="40.4086" width="68.9616" height="92.6283" filterUnits="userSpaceOnUse" color-interpolation-filters="sRGB">
<feFlood flood-opacity="0" result="BackgroundImageFix"/>
<feColorMatrix in="SourceAlpha" type="matrix" values="0 0 0 0 0 0 0 0 0 0 0 0 0 0 0 0 0 0 127 0" result="hardAlpha"/>
<feOffset dy="1.30595"/>
<feGaussianBlur stdDeviation="2.44865"/>
<feComposite in2="hardAlpha" operator="out"/>
<feColorMatrix type="matrix" values="0 0 0 0 0 0 0 0 0 0 0 0 0 0 0 0 0 0 0.25 0"/>
<feBlend mode="normal" in2="BackgroundImageFix" result="effect1_dropShadow_14_4344"/>
<feBlend mode="normal" in="SourceGraphic" in2="effect1_dropShadow_14_4344" result="shape"/>
</filter>
<filter id="filter2_d_14_4344" x="219.103" y="51.4086" width="68.9616" height="92.6283" filterUnits="userSpaceOnUse" color-interpolation-filters="sRGB">
<feFlood flood-opacity="0" result="BackgroundImageFix"/>
<feColorMatrix in="SourceAlpha" type="matrix" values="0 0 0 0 0 0 0 0 0 0 0 0 0 0 0 0 0 0 127 0" result="hardAlpha"/>
<feOffset dy="1.30595"/>
<feGaussianBlur stdDeviation="2.44865"/>
<feComposite in2="hardAlpha" operator="out"/>
<feColorMatrix type="matrix" values="0 0 0 0 0 0 0 0 0 0 0 0 0 0 0 0 0 0 0.25 0"/>
<feBlend mode="normal" in2="BackgroundImageFix" result="effect1_dropShadow_14_4344"/>
<feBlend mode="normal" in="SourceGraphic" in2="effect1_dropShadow_14_4344" result="shape"/>
</filter>
<filter id="filter3_d_14_4344" x="172.103" y="221.409" width="68.9616" height="92.6283" filterUnits="userSpaceOnUse" color-interpolation-filters="sRGB">
<feFlood flood-opacity="0" result="BackgroundImageFix"/>
<feColorMatrix in="SourceAlpha" type="matrix" values="0 0 0 0 0 0 0 0 0 0 0 0 0 0 0 0 0 0 127 0" result="hardAlpha"/>
<feOffset dy="1.30595"/>
<feGaussianBlur stdDeviation="2.44865"/>
<feComposite in2="hardAlpha" operator="out"/>
<feColorMatrix type="matrix" values="0 0 0 0 0 0 0 0 0 0 0 0 0 0 0 0 0 0 0.25 0"/>
<feBlend mode="normal" in2="BackgroundImageFix" result="effect1_dropShadow_14_4344"/>
<feBlend mode="normal" in="SourceGraphic" in2="effect1_dropShadow_14_4344" result="shape"/>
</filter>
<filter id="filter4_d_14_4344" x="196.103" y="233.409" width="68.9616" height="92.6283" filterUnits="userSpaceOnUse" color-interpolation-filters="sRGB">
<feFlood flood-opacity="0" result="BackgroundImageFix"/>
<feColorMatrix in="SourceAlpha" type="matrix" values="0 0 0 0 0 0 0 0 0 0 0 0 0 0 0 0 0 0 127 0" result="hardAlpha"/>
<feOffset dy="1.30595"/>
<feGaussianBlur stdDeviation="2.44865"/>
<feComposite in2="hardAlpha" operator="out"/>
<feColorMatrix type="matrix" values="0 0 0 0 0 0 0 0 0 0 0 0 0 0 0 0 0 0 0.25 0"/>
<feBlend mode="normal" in2="BackgroundImageFix" result="effect1_dropShadow_14_4344"/>
<feBlend mode="normal" in="SourceGraphic" in2="effect1_dropShadow_14_4344" result="shape"/>
</filter>
<filter id="filter5_d_14_4344" x="219.103" y="244.409" width="68.9616" height="92.6283" filterUnits="userSpaceOnUse" color-interpolation-filters="sRGB">
<feFlood flood-opacity="0" result="BackgroundImageFix"/>
<feColorMatrix in="SourceAlpha" type="matrix" values="0 0 0 0 0 0 0 0 0 0 0 0 0 0 0 0 0 0 127 0" result="hardAlpha"/>
<feOffset dy="1.30595"/>
<feGaussianBlur stdDeviation="2.44865"/>
<feComposite in2="hardAlpha" operator="out"/>
<feColorMatrix type="matrix" values="0 0 0 0 0 0 0 0 0 0 0 0 0 0 0 0 0 0 0.25 0"/>
<feBlend mode="normal" in2="BackgroundImageFix" result="effect1_dropShadow_14_4344"/>
<feBlend mode="normal" in="SourceGraphic" in2="effect1_dropShadow_14_4344" result="shape"/>
</filter>
<linearGradient id="paint0_linear_14_4344" x1="206.583" y1="32" x2="206.583" y2="114.834" gradientUnits="userSpaceOnUse">
<stop stop-color="#F9F9F9"/>
<stop offset="1" stop-color="#ECECEC"/>
</linearGradient>
<linearGradient id="paint1_linear_14_4344" x1="230.583" y1="44" x2="230.583" y2="126.834" gradientUnits="userSpaceOnUse">
<stop stop-color="#F9F9F9"/>
<stop offset="1" stop-color="#ECECEC"/>
</linearGradient>
<linearGradient id="paint2_linear_14_4344" x1="253.583" y1="55" x2="253.583" y2="137.834" gradientUnits="userSpaceOnUse">
<stop stop-color="#F9F9F9"/>
<stop offset="1" stop-color="#ECECEC"/>
</linearGradient>
<linearGradient id="paint3_linear_14_4344" x1="206.583" y1="225" x2="206.583" y2="307.834" gradientUnits="userSpaceOnUse">
<stop stop-color="#F9F9F9"/>
<stop offset="1" stop-color="#ECECEC"/>
</linearGradient>
<linearGradient id="paint4_linear_14_4344" x1="230.583" y1="237" x2="230.583" y2="319.834" gradientUnits="userSpaceOnUse">
<stop stop-color="#F9F9F9"/>
<stop offset="1" stop-color="#ECECEC"/>
</linearGradient>
<linearGradient id="paint5_linear_14_4344" x1="253.583" y1="248" x2="253.583" y2="330.834" gradientUnits="userSpaceOnUse">
<stop stop-color="#F9F9F9"/>
<stop offset="1" stop-color="#ECECEC"/>
</linearGradient>
<clipPath id="clip0_14_4344">
<rect x="177" y="32" width="59.1669" height="82.8337" rx="7.10003" fill="white"/>
</clipPath>
<clipPath id="clip1_14_4344">
<rect x="201" y="44" width="59.1669" height="82.8337" rx="7.10003" fill="white"/>
</clipPath>
<clipPath id="clip2_14_4344">
<rect x="224" y="55" width="59.1669" height="82.8337" rx="7.10003" fill="white"/>
</clipPath>
<clipPath id="clip3_14_4344">
<rect width="72" height="23" fill="white" transform="translate(14 20)"/>
</clipPath>
<clipPath id="clip4_14_4344">
<rect x="177" y="225" width="59.1669" height="82.8337" rx="7.10003" fill="white"/>
</clipPath>
<clipPath id="clip5_14_4344">
<rect x="201" y="237" width="59.1669" height="82.8337" rx="7.10003" fill="white"/>
</clipPath>
<clipPath id="clip6_14_4344">
<rect x="224" y="248" width="59.1669" height="82.8337" rx="7.10003" fill="white"/>
</clipPath>
</defs>
</svg>
