<svg width="460" height="347" viewBox="0 0 460 347" fill="none" xmlns="http://www.w3.org/2000/svg">
<rect width="460" height="346.11" rx="10" fill="white"/>
<rect x="53.5" y="74.5" width="171" height="48" rx="3.5" fill="#F9F9F9"/>
<path d="M115.436 90.312H117.146V106.836H115.436V102.246C113.636 102.786 111.746 103.29 109.802 103.74L109.298 102.228C109.748 102.066 109.982 101.814 109.982 101.454V91.59H111.746V101.562C112.988 101.238 114.212 100.896 115.436 100.5V90.312ZM107.912 91.572V104.748H106.202V103.938H103.988V105.126H102.296V91.572H107.912ZM103.988 102.3H106.202V93.228H103.988V102.3ZM123.788 90.438H125.444V95.1H126.344V96.702H122.366V97.404C122.366 97.926 122.348 98.43 122.33 98.898H125.642V106.602H123.986V100.5H122.258C122.042 103.344 121.538 105.504 120.764 107.016L119.504 105.918C120.296 104.154 120.692 101.31 120.71 97.404V90.798H122.366V95.1H123.788V90.438ZM126.974 91.752H129.782C130.016 91.23 130.196 90.69 130.304 90.132L131.996 90.348C131.87 90.834 131.708 91.302 131.51 91.752H135.434V99.654H131.222C131.15 99.78 131.096 99.888 131.042 99.996C130.556 100.788 129.854 101.418 128.918 101.904H131.618V100.212H133.274V101.904H136.244V103.542H133.274V106.8H131.618V103.542H126.254V101.904H128.072L127.514 101.04C128.36 100.644 129.008 100.194 129.44 99.654H126.974V91.752ZM133.886 98.178V96.396H131.96C131.906 97.044 131.816 97.638 131.708 98.178H133.886ZM130.142 98.178C130.286 97.638 130.376 97.044 130.412 96.396H128.504V98.178H130.142ZM128.504 94.974H130.448V93.246H128.504V94.974ZM131.996 93.246V94.974H133.886V93.246H131.996Z" fill="#0D131C"/>
<path d="M173.483 91.0455C175.274 91.617 176.32 93.4179 175.912 95.2015L175.824 95.5305L171.001 110.042C170.416 111.791 168.572 112.812 166.746 112.414L166.409 112.328L156.517 109.193C154.726 108.622 153.68 106.821 154.088 105.037L154.176 104.708L154.283 104.397L156.269 105.02L156.162 105.332C155.932 106.042 156.251 106.821 156.924 107.15L157.155 107.254L167.048 110.388C167.775 110.613 168.572 110.302 168.909 109.644L169.016 109.418L173.838 94.9071C174.068 94.1972 173.749 93.4179 173.076 93.0889L172.845 92.985L164.814 90.4395L165.452 88.5L173.483 91.0455Z" fill="#FD8B09"/>
<path d="M162.521 84.5H152.495C150.569 84.5 149 86.0678 149 87.9934V103.007C149 104.932 150.569 106.5 152.495 106.5H162.504C164.431 106.5 166 104.932 166 103.007V87.9934C166.017 86.0678 164.448 84.5 162.521 84.5ZM152.495 86.4938H162.504C163.34 86.4938 164.005 87.1584 164.005 87.9934V103.007C164.005 103.842 163.34 104.506 162.504 104.506H152.495C151.66 104.506 150.995 103.842 150.995 103.007V87.9934C150.995 87.1754 151.677 86.4938 152.495 86.4938Z" fill="#FD8B09"/>
<path d="M157.504 90.5C157.845 90.5 158.983 92.7019 160.007 93.8728C161.129 95.131 161.178 96.2494 160.755 97.0882C160.365 97.8921 159.048 97.0533 157.65 97.0882C156.187 97.1232 154.74 97.997 154.236 97.0882C153.748 96.2145 154.025 95.3407 154.984 93.8728C155.959 92.4223 157.162 90.5 157.504 90.5Z" fill="#FD8B09"/>
<path d="M157.965 97.21H158.475L158.7 98.59L159.345 99.055V99.415H157.155V99.04L157.785 98.575L157.965 97.21Z" fill="#353535"/>
<path d="M168 96.0582L170.7 94.5L172 96.9096L169.1 98.5L168 96.0582Z" fill="#FD8B09"/>
<rect x="53.5" y="74.5" width="171" height="48" rx="3.5" stroke="#FF0000"/>
<rect x="235" y="74" width="172" height="49" rx="4" fill="#F9F9F9"/>
<path d="M287.14 90.114L288.724 90.852C288.328 92.166 287.842 93.408 287.23 94.596V106.872H285.52V97.404C285.07 98.016 284.602 98.61 284.116 99.186L283.54 97.368C285.16 95.28 286.366 92.868 287.14 90.114ZM294.25 90.114C294.394 90.546 294.556 91.032 294.718 91.572H299.74V93.084H288.544V91.572H293.008C292.864 91.158 292.702 90.762 292.522 90.402L294.25 90.114ZM289.624 93.876H298.408V97.476H289.624V93.876ZM296.752 96.198V95.136H291.298V96.198H296.752ZM299.83 98.268V101.562H298.786V102.516H295.06V105.054C295.06 106.17 294.448 106.728 293.26 106.728H291.262L290.884 105.072C291.496 105.126 292.09 105.162 292.666 105.162C293.098 105.162 293.332 104.982 293.332 104.64V102.516H289.552V101.562H288.292V98.268H299.83ZM289.93 101.076H298.192V99.744H289.93V101.076ZM315.436 90.312H317.146V106.836H315.436V102.246C313.636 102.786 311.746 103.29 309.802 103.74L309.298 102.228C309.748 102.066 309.982 101.814 309.982 101.454V91.59H311.746V101.562C312.988 101.238 314.212 100.896 315.436 100.5V90.312ZM307.912 91.572V104.748H306.202V103.938H303.988V105.126H302.296V91.572H307.912ZM303.988 102.3H306.202V93.228H303.988V102.3Z" fill="#0D131C"/>
<g clip-path="url(#clip0_151_4149)">
<path d="M356.847 97.3018C357.846 98.2773 357.846 99.4697 356.999 100.753C356.999 100.753 351.523 110.034 349.461 111.244C347.477 112.694 345.087 113.485 342.632 113.5C338.958 113.5 335.7 111.197 334.56 107.793L334.558 107.784L334.549 107.758L334.481 107.55L330.494 94.8525C330.143 93.8535 330.667 92.7549 331.666 92.4004C332.668 92.0547 333.769 92.6201 334.124 93.5986L336.397 99.5283C336.494 99.7744 336.556 99.6602 336.556 99.4668L335.029 88.6592C334.842 87.6396 335.536 86.6055 336.582 86.4238C337.628 86.2393 338.633 86.9746 338.82 87.9941L340.534 97.2285C340.552 97.3867 340.675 97.3486 340.666 97.2109L340.704 85.375C340.704 84.3379 341.568 83.5 342.632 83.5C343.695 83.5 344.557 84.3408 344.557 85.375L345.093 97.123C345.113 97.4248 345.295 97.3867 345.374 97.1611L346.962 88.123C347.088 87.0947 348.049 86.3066 349.103 86.4268C350.155 86.5615 350.905 87.5195 350.782 88.5742L349.103 99.5254C349.004 100.308 348.755 101.705 349.103 102.106C349.191 102.209 349.405 102.49 349.763 102.54C350.199 102.602 350.674 102.303 350.981 101.778C351.728 100.422 352.478 99.0654 353.226 97.7061C354.011 96.6162 355.845 96.3262 356.847 97.3018Z" fill="#7B00FF"/>
</g>
<g opacity="0.5">
<rect x="53" y="133" width="172" height="49" rx="4" fill="#F9F9F9"/>
<path d="M107.287 149.582L108.763 150.482C107.935 151.958 107.089 153.182 106.243 154.118C105.379 155.09 104.191 156.116 102.643 157.196L101.707 155.702C102.859 155.054 103.939 154.172 104.947 153.038C105.775 152.084 106.549 150.932 107.287 149.582ZM107.809 157.898H104.443V156.26H115.333C115.261 158.564 115.153 160.418 114.973 161.858C114.793 163.262 114.505 164.252 114.091 164.81C113.677 165.35 113.011 165.656 112.093 165.71H108.691L108.223 164.018C109.285 164.054 110.293 164.09 111.229 164.09C112.129 164.09 112.741 163.712 113.029 162.956C113.317 162.164 113.515 160.472 113.605 157.898H109.537C109.105 159.77 108.529 161.264 107.809 162.38C106.873 163.676 105.487 164.864 103.651 165.908L102.553 164.486C104.173 163.622 105.415 162.65 106.243 161.588C106.909 160.634 107.431 159.41 107.809 157.898ZM112.759 149.348C113.749 152.048 115.567 154.19 118.231 155.774L117.079 157.124C114.307 155.324 112.363 153.02 111.265 150.194L112.759 149.348ZM123.775 149.438H125.431V154.1H126.331V155.702H122.353V156.404C122.353 156.926 122.335 157.43 122.317 157.898H125.629V165.602H123.973V159.5H122.245C122.029 162.344 121.525 164.504 120.751 166.016L119.491 164.918C120.283 163.154 120.679 160.31 120.697 156.404V149.798H122.353V154.1H123.775V149.438ZM126.961 150.752H129.769C130.003 150.23 130.183 149.69 130.291 149.132L131.983 149.348C131.857 149.834 131.695 150.302 131.497 150.752H135.421V158.654H131.209C131.137 158.78 131.083 158.888 131.029 158.996C130.543 159.788 129.841 160.418 128.905 160.904H131.605V159.212H133.261V160.904H136.231V162.542H133.261V165.8H131.605V162.542H126.241V160.904H128.059L127.501 160.04C128.347 159.644 128.995 159.194 129.427 158.654H126.961V150.752ZM133.873 157.178V155.396H131.947C131.893 156.044 131.803 156.638 131.695 157.178H133.873ZM130.129 157.178C130.273 156.638 130.363 156.044 130.399 155.396H128.491V157.178H130.129ZM128.491 153.974H130.435V152.246H128.491V153.974ZM131.983 152.246V153.974H133.873V152.246H131.983Z" fill="#0D131C"/>
<rect x="147.987" y="148.347" width="11" height="15" rx="1" transform="rotate(-15 147.987 148.347)" fill="#687785"/>
<rect x="167.487" y="151.5" width="11" height="15" rx="1" transform="rotate(30 167.487 151.5)" fill="#687785"/>
</g>
<rect x="235" y="133" width="172" height="49" rx="4" fill="#F9F9F9"/>
<path d="M299.524 151.778V165.584H297.868V164.45H295.024V165.584H293.386V151.778H299.524ZM295.024 162.812H297.868V153.416H295.024V162.812ZM286.69 149.294H288.382V152.786H292C292 158.654 291.91 162.272 291.73 163.658C291.55 165.026 290.65 165.71 289.066 165.71C288.778 165.71 288.31 165.674 287.662 165.62L287.23 164.054C287.842 164.108 288.364 164.144 288.796 164.144C289.552 164.144 290.002 163.712 290.128 162.884C290.236 162.038 290.29 159.23 290.326 154.442H288.382C288.274 159.68 287.104 163.514 284.854 165.962L283.576 164.828C285.574 162.668 286.618 159.194 286.69 154.442H283.954V152.786H286.69V149.294ZM307.03 150.86H311.314C311.134 150.338 310.954 149.852 310.756 149.42L312.484 149.132C312.664 149.654 312.862 150.23 313.042 150.86H317.614V152.516H307.03V150.86ZM306.328 155.774H309.406C309.118 154.946 308.776 154.154 308.38 153.434L309.982 152.84C310.414 153.668 310.792 154.64 311.134 155.774H313.294C313.726 154.856 314.104 153.866 314.428 152.822L316.084 153.398C315.796 154.28 315.472 155.072 315.13 155.774H318.082V157.448H306.328V155.774ZM316.606 158.744V165.818H314.878V164.936H309.46V165.818H307.714V158.744H316.606ZM309.46 163.262H314.878V160.418H309.46V163.262ZM303.556 156.386C303.088 156.998 302.602 157.61 302.08 158.204L301.522 156.368C303.178 154.28 304.42 151.85 305.23 149.078L306.814 149.834C306.418 151.166 305.896 152.426 305.266 153.632V165.89H303.556V156.386Z" fill="#0D131C"/>
<circle cx="348" cy="161.5" r="8" fill="#687785"/>
<path fill-rule="evenodd" clip-rule="evenodd" d="M347.357 152.032C342.377 152.437 338.462 156.607 338.462 161.692C338.462 161.806 338.464 161.92 338.467 162.033C334.792 161.381 332 158.17 332 154.308C332 149.974 335.513 146.461 339.846 146.461C343.388 146.461 346.382 148.808 347.357 152.032Z" fill="#687785"/>
<rect x="53.5" y="197.5" width="213" height="73" rx="9.5" fill="white"/>
<g clip-path="url(#clip1_151_4149)">
<g clip-path="url(#clip2_151_4149)">
<path d="M91.1393 225.903C89.5366 232.331 83.0254 236.244 76.596 234.641C70.1693 233.038 66.257 226.526 67.8604 220.098C69.4623 213.669 75.9735 209.756 82.4009 211.359C88.8298 212.962 92.7419 219.474 91.1391 225.903L91.1392 225.903H91.1393Z" fill="#F7931A"/>
<path d="M84.791 221.29C85.0299 219.693 83.8141 218.835 82.1516 218.262L82.6909 216.099L81.3741 215.771L80.8491 217.877C80.5029 217.791 80.1474 217.71 79.7941 217.629L80.3229 215.509L79.0069 215.181L78.4673 217.343C78.1808 217.278 77.8994 217.213 77.6265 217.146L77.628 217.139L75.8121 216.685L75.4618 218.092C75.4618 218.092 76.4388 218.316 76.4182 218.329C76.9514 218.463 77.0478 218.816 77.0318 219.095L76.4175 221.56C76.4542 221.569 76.5018 221.582 76.5544 221.604C76.5104 221.593 76.4637 221.581 76.4152 221.569L75.5541 225.021C75.4889 225.183 75.3235 225.427 74.9507 225.334C74.9639 225.353 73.9936 225.095 73.9936 225.095L73.3398 226.603L75.0534 227.03C75.3722 227.11 75.6846 227.193 75.9923 227.272L75.4474 229.46L76.7627 229.788L77.3023 227.623C77.6616 227.721 78.0103 227.811 78.3517 227.896L77.8139 230.05L79.1307 230.378L79.6756 228.195C81.921 228.62 83.6094 228.448 84.32 226.417C84.8927 224.782 84.2915 223.839 83.1102 223.224C83.9706 223.025 84.6187 222.46 84.7915 221.291L84.7911 221.29L84.791 221.29ZM81.7825 225.509C81.3755 227.144 78.6224 226.26 77.7298 226.039L78.4529 223.14C79.3454 223.363 82.2078 223.804 81.7825 225.509H81.7825ZM82.1897 221.267C81.8185 222.754 79.527 221.998 78.7837 221.813L79.4393 219.184C80.1826 219.369 82.5764 219.715 82.1898 221.267H82.1897Z" fill="white"/>
</g>
<path d="M96.7148 224.505C96.7148 222.056 97.1543 220.342 98.0332 219.363C98.918 218.385 100.263 217.896 102.067 217.896C102.935 217.896 103.646 218.004 104.203 218.221C104.76 218.432 105.214 218.71 105.565 219.056C105.917 219.396 106.192 219.756 106.392 220.137C106.597 220.512 106.761 220.951 106.884 221.455C107.124 222.416 107.244 223.418 107.244 224.461C107.244 226.799 106.849 228.51 106.058 229.594C105.267 230.678 103.904 231.22 101.971 231.22C100.887 231.22 100.011 231.047 99.3428 230.701C98.6748 230.355 98.127 229.849 97.6992 229.181C97.3887 228.706 97.1455 228.059 96.9697 227.238C96.7998 226.412 96.7148 225.501 96.7148 224.505ZM100.266 224.514C100.266 226.154 100.409 227.276 100.696 227.88C100.989 228.478 101.411 228.776 101.962 228.776C102.325 228.776 102.639 228.65 102.902 228.398C103.172 228.141 103.368 227.736 103.491 227.186C103.62 226.635 103.685 225.776 103.685 224.61C103.685 222.899 103.538 221.751 103.245 221.165C102.958 220.573 102.524 220.277 101.944 220.277C101.353 220.277 100.925 220.579 100.661 221.183C100.397 221.78 100.266 222.891 100.266 224.514ZM109.072 227.414H112.896V231H109.072V227.414ZM114.715 224.505C114.715 222.056 115.154 220.342 116.033 219.363C116.918 218.385 118.263 217.896 120.067 217.896C120.935 217.896 121.646 218.004 122.203 218.221C122.76 218.432 123.214 218.71 123.565 219.056C123.917 219.396 124.192 219.756 124.392 220.137C124.597 220.512 124.761 220.951 124.884 221.455C125.124 222.416 125.244 223.418 125.244 224.461C125.244 226.799 124.849 228.51 124.058 229.594C123.267 230.678 121.904 231.22 119.971 231.22C118.887 231.22 118.011 231.047 117.343 230.701C116.675 230.355 116.127 229.849 115.699 229.181C115.389 228.706 115.146 228.059 114.97 227.238C114.8 226.412 114.715 225.501 114.715 224.505ZM118.266 224.514C118.266 226.154 118.409 227.276 118.696 227.88C118.989 228.478 119.411 228.776 119.962 228.776C120.325 228.776 120.639 228.65 120.902 228.398C121.172 228.141 121.368 227.736 121.491 227.186C121.62 226.635 121.685 225.776 121.685 224.61C121.685 222.899 121.538 221.751 121.245 221.165C120.958 220.573 120.524 220.277 119.944 220.277C119.353 220.277 118.925 220.579 118.661 221.183C118.397 221.78 118.266 222.891 118.266 224.514ZM126.721 224.505C126.721 222.056 127.16 220.342 128.039 219.363C128.924 218.385 130.269 217.896 132.073 217.896C132.94 217.896 133.652 218.004 134.209 218.221C134.766 218.432 135.22 218.71 135.571 219.056C135.923 219.396 136.198 219.756 136.397 220.137C136.603 220.512 136.767 220.951 136.89 221.455C137.13 222.416 137.25 223.418 137.25 224.461C137.25 226.799 136.854 228.51 136.063 229.594C135.272 230.678 133.91 231.22 131.977 231.22C130.893 231.22 130.017 231.047 129.349 230.701C128.681 230.355 128.133 229.849 127.705 229.181C127.395 228.706 127.151 228.059 126.976 227.238C126.806 226.412 126.721 225.501 126.721 224.505ZM130.271 224.514C130.271 226.154 130.415 227.276 130.702 227.88C130.995 228.478 131.417 228.776 131.968 228.776C132.331 228.776 132.645 228.65 132.908 228.398C133.178 228.141 133.374 227.736 133.497 227.186C133.626 226.635 133.69 225.776 133.69 224.61C133.69 222.899 133.544 221.751 133.251 221.165C132.964 220.573 132.53 220.277 131.95 220.277C131.358 220.277 130.931 220.579 130.667 221.183C130.403 221.78 130.271 222.891 130.271 224.514ZM138.727 224.505C138.727 222.056 139.166 220.342 140.045 219.363C140.93 218.385 142.274 217.896 144.079 217.896C144.946 217.896 145.658 218.004 146.215 218.221C146.771 218.432 147.226 218.71 147.577 219.056C147.929 219.396 148.204 219.756 148.403 220.137C148.608 220.512 148.772 220.951 148.896 221.455C149.136 222.416 149.256 223.418 149.256 224.461C149.256 226.799 148.86 228.51 148.069 229.594C147.278 230.678 145.916 231.22 143.982 231.22C142.898 231.22 142.022 231.047 141.354 230.701C140.687 230.355 140.139 229.849 139.711 229.181C139.4 228.706 139.157 228.059 138.981 227.238C138.812 226.412 138.727 225.501 138.727 224.505ZM142.277 224.514C142.277 226.154 142.421 227.276 142.708 227.88C143.001 228.478 143.423 228.776 143.974 228.776C144.337 228.776 144.65 228.65 144.914 228.398C145.184 228.141 145.38 227.736 145.503 227.186C145.632 226.635 145.696 225.776 145.696 224.61C145.696 222.899 145.55 221.751 145.257 221.165C144.97 220.573 144.536 220.277 143.956 220.277C143.364 220.277 142.937 220.579 142.673 221.183C142.409 221.78 142.277 222.891 142.277 224.514ZM150.732 224.505C150.732 222.056 151.172 220.342 152.051 219.363C152.936 218.385 154.28 217.896 156.085 217.896C156.952 217.896 157.664 218.004 158.221 218.221C158.777 218.432 159.231 218.71 159.583 219.056C159.935 219.396 160.21 219.756 160.409 220.137C160.614 220.512 160.778 220.951 160.901 221.455C161.142 222.416 161.262 223.418 161.262 224.461C161.262 226.799 160.866 228.51 160.075 229.594C159.284 230.678 157.922 231.22 155.988 231.22C154.904 231.22 154.028 231.047 153.36 230.701C152.692 230.355 152.145 229.849 151.717 229.181C151.406 228.706 151.163 228.059 150.987 227.238C150.817 226.412 150.732 225.501 150.732 224.505ZM154.283 224.514C154.283 226.154 154.427 227.276 154.714 227.88C155.007 228.478 155.429 228.776 155.979 228.776C156.343 228.776 156.656 228.65 156.92 228.398C157.189 228.141 157.386 227.736 157.509 227.186C157.638 226.635 157.702 225.776 157.702 224.61C157.702 222.899 157.556 221.751 157.263 221.165C156.976 220.573 156.542 220.277 155.962 220.277C155.37 220.277 154.942 220.579 154.679 221.183C154.415 221.78 154.283 222.891 154.283 224.514ZM170.851 217.896V231H167.229V222.413C166.644 222.858 166.075 223.219 165.524 223.494C164.979 223.77 164.294 224.033 163.468 224.285V221.35C164.687 220.957 165.633 220.485 166.307 219.935C166.98 219.384 167.508 218.704 167.889 217.896H170.851ZM174.744 224.505C174.744 222.056 175.184 220.342 176.062 219.363C176.947 218.385 178.292 217.896 180.097 217.896C180.964 217.896 181.676 218.004 182.232 218.221C182.789 218.432 183.243 218.71 183.595 219.056C183.946 219.396 184.222 219.756 184.421 220.137C184.626 220.512 184.79 220.951 184.913 221.455C185.153 222.416 185.273 223.418 185.273 224.461C185.273 226.799 184.878 228.51 184.087 229.594C183.296 230.678 181.934 231.22 180 231.22C178.916 231.22 178.04 231.047 177.372 230.701C176.704 230.355 176.156 229.849 175.729 229.181C175.418 228.706 175.175 228.059 174.999 227.238C174.829 226.412 174.744 225.501 174.744 224.505ZM178.295 224.514C178.295 226.154 178.438 227.276 178.726 227.88C179.019 228.478 179.44 228.776 179.991 228.776C180.354 228.776 180.668 228.65 180.932 228.398C181.201 228.141 181.397 227.736 181.521 227.186C181.649 226.635 181.714 225.776 181.714 224.61C181.714 222.899 181.567 221.751 181.274 221.165C180.987 220.573 180.554 220.277 179.974 220.277C179.382 220.277 178.954 220.579 178.69 221.183C178.427 221.78 178.295 222.891 178.295 224.514ZM186.75 224.505C186.75 222.056 187.189 220.342 188.068 219.363C188.953 218.385 190.298 217.896 192.103 217.896C192.97 217.896 193.682 218.004 194.238 218.221C194.795 218.432 195.249 218.71 195.601 219.056C195.952 219.396 196.228 219.756 196.427 220.137C196.632 220.512 196.796 220.951 196.919 221.455C197.159 222.416 197.279 223.418 197.279 224.461C197.279 226.799 196.884 228.51 196.093 229.594C195.302 230.678 193.939 231.22 192.006 231.22C190.922 231.22 190.046 231.047 189.378 230.701C188.71 230.355 188.162 229.849 187.734 229.181C187.424 228.706 187.181 228.059 187.005 227.238C186.835 226.412 186.75 225.501 186.75 224.505ZM190.301 224.514C190.301 226.154 190.444 227.276 190.731 227.88C191.024 228.478 191.446 228.776 191.997 228.776C192.36 228.776 192.674 228.65 192.938 228.398C193.207 228.141 193.403 227.736 193.526 227.186C193.655 226.635 193.72 225.776 193.72 224.61C193.72 222.899 193.573 221.751 193.28 221.165C192.993 220.573 192.56 220.277 191.979 220.277C191.388 220.277 190.96 220.579 190.696 221.183C190.433 221.78 190.301 222.891 190.301 224.514ZM198.756 224.505C198.756 222.056 199.195 220.342 200.074 219.363C200.959 218.385 202.304 217.896 204.108 217.896C204.976 217.896 205.688 218.004 206.244 218.221C206.801 218.432 207.255 218.71 207.606 219.056C207.958 219.396 208.233 219.756 208.433 220.137C208.638 220.512 208.802 220.951 208.925 221.455C209.165 222.416 209.285 223.418 209.285 224.461C209.285 226.799 208.89 228.51 208.099 229.594C207.308 230.678 205.945 231.22 204.012 231.22C202.928 231.22 202.052 231.047 201.384 230.701C200.716 230.355 200.168 229.849 199.74 229.181C199.43 228.706 199.187 228.059 199.011 227.238C198.841 226.412 198.756 225.501 198.756 224.505ZM202.307 224.514C202.307 226.154 202.45 227.276 202.737 227.88C203.03 228.478 203.452 228.776 204.003 228.776C204.366 228.776 204.68 228.65 204.943 228.398C205.213 228.141 205.409 227.736 205.532 227.186C205.661 226.635 205.726 225.776 205.726 224.61C205.726 222.899 205.579 221.751 205.286 221.165C204.999 220.573 204.565 220.277 203.985 220.277C203.394 220.277 202.966 220.579 202.702 221.183C202.438 221.78 202.307 222.891 202.307 224.514Z" fill="#484848"/>
<path d="M99.2461 252.411V249.342C98.2891 249.068 97.5859 248.656 97.1367 248.104C96.6924 247.547 96.4702 246.874 96.4702 246.083C96.4702 245.282 96.7217 244.61 97.2246 244.068C97.7324 243.521 98.4062 243.207 99.2461 243.124V242.398H100.308V243.124C101.084 243.216 101.702 243.482 102.161 243.922C102.62 244.356 102.913 244.94 103.04 245.672L101.187 245.914C101.075 245.338 100.782 244.947 100.308 244.742V247.606C101.48 247.923 102.278 248.336 102.703 248.844C103.128 249.347 103.34 249.994 103.34 250.785C103.34 251.668 103.072 252.413 102.535 253.019C102.002 253.624 101.26 253.995 100.308 254.132V255.501H99.2461V254.168C98.4014 254.066 97.7153 253.751 97.188 253.224C96.6606 252.696 96.3237 251.952 96.1772 250.99L98.0889 250.785C98.167 251.175 98.3135 251.512 98.5283 251.795C98.7432 252.079 98.9824 252.284 99.2461 252.411ZM99.2461 244.72C98.958 244.818 98.7285 244.984 98.5576 245.218C98.3867 245.453 98.3013 245.711 98.3013 245.995C98.3013 246.253 98.3794 246.495 98.5356 246.72C98.6919 246.939 98.9287 247.118 99.2461 247.254V244.72ZM100.308 252.513C100.674 252.445 100.972 252.276 101.202 252.008C101.431 251.734 101.546 251.415 101.546 251.048C101.546 250.721 101.448 250.44 101.253 250.206C101.062 249.967 100.748 249.784 100.308 249.657V252.513ZM108.687 254V251.839H104.292V250.038L108.951 243.219H110.679V250.03H112.012V251.839H110.679V254H108.687ZM108.687 250.03V246.361L106.219 250.03H108.687ZM113.44 254V251.942H115.499V254H113.44ZM121.211 254V251.839H116.817V250.038L121.475 243.219H123.204V250.03H124.537V251.839H123.204V254H121.211ZM121.211 250.03V246.361L118.743 250.03H121.211ZM129.004 243.219C130.044 243.219 130.857 243.59 131.443 244.332C132.142 245.211 132.491 246.668 132.491 248.705C132.491 250.736 132.139 252.196 131.436 253.084C130.855 253.817 130.044 254.183 129.004 254.183C127.959 254.183 127.117 253.783 126.478 252.982C125.838 252.176 125.518 250.743 125.518 248.683C125.518 246.661 125.87 245.206 126.573 244.317C127.154 243.585 127.964 243.219 129.004 243.219ZM129.004 244.925C128.755 244.925 128.533 245.006 128.338 245.167C128.143 245.323 127.991 245.606 127.884 246.017C127.742 246.549 127.671 247.445 127.671 248.705C127.671 249.964 127.735 250.831 127.862 251.305C127.989 251.773 128.147 252.086 128.338 252.242C128.533 252.398 128.755 252.477 129.004 252.477C129.253 252.477 129.476 252.398 129.671 252.242C129.866 252.081 130.018 251.795 130.125 251.385C130.267 250.858 130.337 249.964 130.337 248.705C130.337 247.445 130.274 246.581 130.147 246.112C130.02 245.638 129.859 245.323 129.664 245.167C129.473 245.006 129.253 244.925 129.004 244.925ZM137.354 243.219C138.394 243.219 139.207 243.59 139.793 244.332C140.491 245.211 140.84 246.668 140.84 248.705C140.84 250.736 140.489 252.196 139.786 253.084C139.205 253.817 138.394 254.183 137.354 254.183C136.309 254.183 135.467 253.783 134.827 252.982C134.188 252.176 133.868 250.743 133.868 248.683C133.868 246.661 134.219 245.206 134.922 244.317C135.503 243.585 136.314 243.219 137.354 243.219ZM137.354 244.925C137.105 244.925 136.883 245.006 136.688 245.167C136.492 245.323 136.341 245.606 136.233 246.017C136.092 246.549 136.021 247.445 136.021 248.705C136.021 249.964 136.084 250.831 136.211 251.305C136.338 251.773 136.497 252.086 136.688 252.242C136.883 252.398 137.105 252.477 137.354 252.477C137.603 252.477 137.825 252.398 138.021 252.242C138.216 252.081 138.367 251.795 138.475 251.385C138.616 250.858 138.687 249.964 138.687 248.705C138.687 247.445 138.624 246.581 138.497 246.112C138.37 245.638 138.208 245.323 138.013 245.167C137.823 245.006 137.603 244.925 137.354 244.925ZM145.704 243.219C146.744 243.219 147.557 243.59 148.143 244.332C148.841 245.211 149.19 246.668 149.19 248.705C149.19 250.736 148.838 252.196 148.135 253.084C147.554 253.817 146.744 254.183 145.704 254.183C144.659 254.183 143.816 253.783 143.177 252.982C142.537 252.176 142.217 250.743 142.217 248.683C142.217 246.661 142.569 245.206 143.272 244.317C143.853 243.585 144.664 243.219 145.704 243.219ZM145.704 244.925C145.455 244.925 145.232 245.006 145.037 245.167C144.842 245.323 144.69 245.606 144.583 246.017C144.441 246.549 144.371 247.445 144.371 248.705C144.371 249.964 144.434 250.831 144.561 251.305C144.688 251.773 144.847 252.086 145.037 252.242C145.232 252.398 145.455 252.477 145.704 252.477C145.953 252.477 146.175 252.398 146.37 252.242C146.565 252.081 146.717 251.795 146.824 251.385C146.966 250.858 147.037 249.964 147.037 248.705C147.037 247.445 146.973 246.581 146.846 246.112C146.719 245.638 146.558 245.323 146.363 245.167C146.172 245.006 145.953 244.925 145.704 244.925ZM154.053 243.219C155.093 243.219 155.906 243.59 156.492 244.332C157.19 245.211 157.54 246.668 157.54 248.705C157.54 250.736 157.188 252.196 156.485 253.084C155.904 253.817 155.093 254.183 154.053 254.183C153.008 254.183 152.166 253.783 151.526 252.982C150.887 252.176 150.567 250.743 150.567 248.683C150.567 246.661 150.918 245.206 151.622 244.317C152.203 243.585 153.013 243.219 154.053 243.219ZM154.053 244.925C153.804 244.925 153.582 245.006 153.387 245.167C153.191 245.323 153.04 245.606 152.933 246.017C152.791 246.549 152.72 247.445 152.72 248.705C152.72 249.964 152.784 250.831 152.911 251.305C153.038 251.773 153.196 252.086 153.387 252.242C153.582 252.398 153.804 252.477 154.053 252.477C154.302 252.477 154.524 252.398 154.72 252.242C154.915 252.081 155.066 251.795 155.174 251.385C155.315 250.858 155.386 249.964 155.386 248.705C155.386 247.445 155.323 246.581 155.196 246.112C155.069 245.638 154.908 245.323 154.712 245.167C154.522 245.006 154.302 244.925 154.053 244.925ZM162.403 243.219C163.443 243.219 164.256 243.59 164.842 244.332C165.54 245.211 165.889 246.668 165.889 248.705C165.889 250.736 165.538 252.196 164.834 253.084C164.253 253.817 163.443 254.183 162.403 254.183C161.358 254.183 160.516 253.783 159.876 252.982C159.236 252.176 158.917 250.743 158.917 248.683C158.917 246.661 159.268 245.206 159.971 244.317C160.552 243.585 161.363 243.219 162.403 243.219ZM162.403 244.925C162.154 244.925 161.932 245.006 161.736 245.167C161.541 245.323 161.39 245.606 161.282 246.017C161.141 246.549 161.07 247.445 161.07 248.705C161.07 249.964 161.133 250.831 161.26 251.305C161.387 251.773 161.546 252.086 161.736 252.242C161.932 252.398 162.154 252.477 162.403 252.477C162.652 252.477 162.874 252.398 163.069 252.242C163.265 252.081 163.416 251.795 163.523 251.385C163.665 250.858 163.736 249.964 163.736 248.705C163.736 247.445 163.672 246.581 163.545 246.112C163.418 245.638 163.257 245.323 163.062 245.167C162.872 245.006 162.652 244.925 162.403 244.925ZM170.752 243.219C171.792 243.219 172.605 243.59 173.191 244.332C173.89 245.211 174.239 246.668 174.239 248.705C174.239 250.736 173.887 252.196 173.184 253.084C172.603 253.817 171.792 254.183 170.752 254.183C169.708 254.183 168.865 253.783 168.226 252.982C167.586 252.176 167.266 250.743 167.266 248.683C167.266 246.661 167.618 245.206 168.321 244.317C168.902 243.585 169.712 243.219 170.752 243.219ZM170.752 244.925C170.503 244.925 170.281 245.006 170.086 245.167C169.891 245.323 169.739 245.606 169.632 246.017C169.49 246.549 169.419 247.445 169.419 248.705C169.419 249.964 169.483 250.831 169.61 251.305C169.737 251.773 169.896 252.086 170.086 252.242C170.281 252.398 170.503 252.477 170.752 252.477C171.001 252.477 171.224 252.398 171.419 252.242C171.614 252.081 171.766 251.795 171.873 251.385C172.015 250.858 172.085 249.964 172.085 248.705C172.085 247.445 172.022 246.581 171.895 246.112C171.768 245.638 171.607 245.323 171.412 245.167C171.221 245.006 171.001 244.925 170.752 244.925ZM179.102 243.219C180.142 243.219 180.955 243.59 181.541 244.332C182.239 245.211 182.588 246.668 182.588 248.705C182.588 250.736 182.237 252.196 181.534 253.084C180.953 253.817 180.142 254.183 179.102 254.183C178.057 254.183 177.215 253.783 176.575 252.982C175.936 252.176 175.616 250.743 175.616 248.683C175.616 246.661 175.967 245.206 176.67 244.317C177.251 243.585 178.062 243.219 179.102 243.219ZM179.102 244.925C178.853 244.925 178.631 245.006 178.436 245.167C178.24 245.323 178.089 245.606 177.981 246.017C177.84 246.549 177.769 247.445 177.769 248.705C177.769 249.964 177.833 250.831 177.959 251.305C178.086 251.773 178.245 252.086 178.436 252.242C178.631 252.398 178.853 252.477 179.102 252.477C179.351 252.477 179.573 252.398 179.769 252.242C179.964 252.081 180.115 251.795 180.223 251.385C180.364 250.858 180.435 249.964 180.435 248.705C180.435 247.445 180.372 246.581 180.245 246.112C180.118 245.638 179.957 245.323 179.761 245.167C179.571 245.006 179.351 244.925 179.102 244.925Z" fill="#7C8499"/>
</g>
<rect x="221" y="207" width="36" height="23" rx="6" fill="#F1F1F1"/>
<path d="M232.215 214.218H233.281V223.5H231.864V215.921C231.305 216.454 230.59 216.844 229.732 217.091V215.687C230.148 215.583 230.577 215.401 231.045 215.141C231.513 214.855 231.903 214.556 232.215 214.218ZM239.433 212.84H240.629L236.092 224.8H234.883L239.433 212.84ZM245.049 214.036C245.933 214.036 246.674 214.283 247.246 214.803C247.805 215.323 248.091 215.986 248.091 216.805C248.091 217.611 247.779 218.339 247.181 219.002C246.817 219.379 246.18 219.873 245.257 220.497C244.256 221.16 243.658 221.745 243.463 222.252H248.104V223.5H241.708C241.708 222.577 242.007 221.771 242.631 221.069C242.969 220.666 243.671 220.107 244.724 219.379C245.348 218.937 245.79 218.586 246.05 218.313C246.466 217.845 246.687 217.338 246.687 216.792C246.687 216.272 246.544 215.882 246.258 215.622C245.972 215.362 245.543 215.232 244.997 215.232C244.412 215.232 243.97 215.427 243.671 215.83C243.359 216.22 243.203 216.779 243.177 217.533H241.76C241.773 216.493 242.072 215.661 242.657 215.037C243.255 214.361 244.061 214.036 245.049 214.036Z" fill="#A6A6A6"/>
<rect x="221" y="238" width="36" height="23" rx="6" fill="#F1F1F1"/>
<path d="M235.699 245.036C236.583 245.036 237.324 245.283 237.896 245.803C238.455 246.323 238.741 246.986 238.741 247.805C238.741 248.611 238.429 249.339 237.831 250.002C237.467 250.379 236.83 250.873 235.907 251.497C234.906 252.16 234.308 252.745 234.113 253.252H238.754V254.5H232.358C232.358 253.577 232.657 252.771 233.281 252.069C233.619 251.666 234.321 251.107 235.374 250.379C235.998 249.937 236.44 249.586 236.7 249.313C237.116 248.845 237.337 248.338 237.337 247.792C237.337 247.272 237.194 246.882 236.908 246.622C236.622 246.362 236.193 246.232 235.647 246.232C235.062 246.232 234.62 246.427 234.321 246.83C234.009 247.22 233.853 247.779 233.827 248.533H232.41C232.423 247.493 232.722 246.661 233.307 246.037C233.905 245.361 234.711 245.036 235.699 245.036ZM239.815 247.779H241.427L242.909 249.911L244.378 247.779H245.99L243.663 250.925L246.276 254.5H244.664L242.909 251.939L241.141 254.5H239.516L242.142 250.925L239.815 247.779Z" fill="#A6A6A6"/>
<rect x="53.5" y="197.5" width="213" height="73" rx="9.5" stroke="#ECECEC"/>
<g opacity="0.5">
<rect x="277" y="197" width="130" height="74" rx="10" fill="#F04E23"/>
<g filter="url(#filter0_d_151_4149)">
<path d="M324.936 226.568H341.046V228.242H333.378V230.6C335.574 231.662 337.806 232.886 340.074 234.254L339.048 235.802C336.78 234.326 334.89 233.192 333.378 232.418V242.354H331.668V228.242H324.936V226.568ZM344.502 225.92C345.726 226.82 346.77 227.702 347.634 228.584L346.41 229.808C345.672 228.962 344.628 228.062 343.26 227.108L344.502 225.92ZM344.07 230.15C345.24 231.032 346.23 231.932 347.04 232.832L345.816 234.056C345.096 233.228 344.106 232.31 342.846 231.32L344.07 230.15ZM345.996 235.208L347.526 235.838C346.734 238.088 345.834 240.212 344.844 242.21L343.134 241.454C344.214 239.42 345.168 237.332 345.996 235.208ZM348.138 228.638H352.746C352.422 227.756 352.062 226.91 351.648 226.1L353.232 225.65C353.754 226.73 354.15 227.72 354.438 228.62L354.384 228.638H358.848V230.312H354.384V234.164H358.362V235.802H354.384V240.068H359.226V241.742H347.688V240.068H352.674V235.802H348.642V234.164H352.674V230.312H348.138V228.638Z" fill="white"/>
</g>
</g>
<defs>
<filter id="filter0_d_151_4149" x="320.936" y="223.65" width="42.29" height="24.7041" filterUnits="userSpaceOnUse" color-interpolation-filters="sRGB">
<feFlood flood-opacity="0" result="BackgroundImageFix"/>
<feColorMatrix in="SourceAlpha" type="matrix" values="0 0 0 0 0 0 0 0 0 0 0 0 0 0 0 0 0 0 127 0" result="hardAlpha"/>
<feOffset dy="2"/>
<feGaussianBlur stdDeviation="2"/>
<feComposite in2="hardAlpha" operator="out"/>
<feColorMatrix type="matrix" values="0 0 0 0 0 0 0 0 0 0 0 0 0 0 0 0 0 0 0.3 0"/>
<feBlend mode="normal" in2="BackgroundImageFix" result="effect1_dropShadow_151_4149"/>
<feBlend mode="normal" in="SourceGraphic" in2="effect1_dropShadow_151_4149" result="shape"/>
</filter>
<clipPath id="clip0_151_4149">
<rect width="30" height="30" fill="white" transform="translate(329 83.5)"/>
</clipPath>
<clipPath id="clip1_151_4149">
<rect width="143" height="46" fill="white" transform="translate(67.5 211)"/>
</clipPath>
<clipPath id="clip2_151_4149">
<rect width="24" height="24" fill="white" transform="translate(67.5 211)"/>
</clipPath>
</defs>
</svg>
