<svg width="460" height="347" viewBox="0 0 460 347" fill="none" xmlns="http://www.w3.org/2000/svg">
<rect width="460" height="346.11" rx="10" fill="white"/>
<rect x="53" y="75" width="172" height="49" rx="4" fill="#F9F9F9"/>
<path d="M118.228 106.18C117.22 106.18 116.44 105.952 115.888 105.496C115.336 105.028 114.952 104.398 114.736 103.606C114.52 102.802 114.412 101.89 114.412 100.87C114.412 99.694 114.52 98.746 114.736 98.026C114.964 97.306 115.294 96.784 115.726 96.46C116.158 96.124 116.686 95.956 117.31 95.956C117.73 95.956 118.084 96.028 118.372 96.172C118.672 96.316 118.882 96.556 119.002 96.892H119.074C119.194 96.544 119.41 96.304 119.722 96.172C120.034 96.028 120.4 95.956 120.82 95.956C121.6 95.956 122.2 96.166 122.62 96.586C123.052 96.994 123.268 97.624 123.268 98.476V106H121.666V98.494C121.666 98.026 121.564 97.708 121.36 97.54C121.156 97.372 120.898 97.288 120.586 97.288C120.238 97.288 119.98 97.372 119.812 97.54C119.656 97.708 119.56 97.984 119.524 98.368H118.516C118.468 97.948 118.342 97.666 118.138 97.522C117.934 97.366 117.706 97.288 117.454 97.288C116.974 97.288 116.614 97.57 116.374 98.134C116.134 98.686 116.014 99.604 116.014 100.888C116.014 101.716 116.074 102.424 116.194 103.012C116.326 103.6 116.566 104.056 116.914 104.38C117.262 104.692 117.766 104.848 118.426 104.848C118.666 104.848 118.864 104.836 119.02 104.812C119.176 104.788 119.326 104.758 119.47 104.722L119.632 105.946C119.452 106.03 119.236 106.09 118.984 106.126C118.732 106.162 118.48 106.18 118.228 106.18ZM115.399 94.57V93.868L116.713 93.292H123.049V94.57H115.399ZM121.555 93.868V91.834H123.067V93.868H121.555Z" fill="#0D131C"/>
<path d="M161.483 92.0455C163.274 92.617 164.32 94.4179 163.912 96.2015L163.824 96.5305L159.001 111.042C158.416 112.791 156.572 113.812 154.746 113.414L154.409 113.328L144.517 110.193C142.726 109.622 141.68 107.821 142.088 106.037L142.176 105.708L142.283 105.397L144.269 106.02L144.162 106.332C143.932 107.042 144.251 107.821 144.924 108.15L145.155 108.254L155.048 111.388C155.775 111.613 156.572 111.302 156.909 110.644L157.016 110.418L161.838 95.9071C162.068 95.1972 161.749 94.4179 161.076 94.0889L160.845 93.985L152.814 91.4395L153.452 89.5L161.483 92.0455Z" fill="#FD8B09"/>
<path d="M150.521 85.5H140.495C138.569 85.5 137 87.0678 137 88.9934V104.007C137 105.932 138.569 107.5 140.495 107.5H150.504C152.431 107.5 154 105.932 154 104.007V88.9934C154.017 87.0678 152.448 85.5 150.521 85.5ZM140.495 87.4938H150.504C151.34 87.4938 152.005 88.1584 152.005 88.9934V104.007C152.005 104.842 151.34 105.506 150.504 105.506H140.495C139.66 105.506 138.995 104.842 138.995 104.007V88.9934C138.995 88.1754 139.677 87.4938 140.495 87.4938Z" fill="#FD8B09"/>
<path d="M145.504 91.5C145.845 91.5 146.983 93.7019 148.007 94.8728C149.129 96.131 149.178 97.2494 148.755 98.0882C148.365 98.8921 147.048 98.0533 145.65 98.0882C144.187 98.1232 142.74 98.997 142.236 98.0882C141.748 97.2145 142.025 96.3407 142.984 94.8728C143.959 93.4223 145.162 91.5 145.504 91.5Z" fill="#FD8B09"/>
<path d="M145.965 98.21H146.475L146.7 99.59L147.345 100.055V100.415H145.155V100.04L145.785 99.575L145.965 98.21Z" fill="#353535"/>
<path d="M156 97.0582L158.7 95.5L160 97.9096L157.1 99.5L156 97.0582Z" fill="#FD8B09"/>
<rect x="235.5" y="75.5" width="171" height="48" rx="3.5" fill="#F9F9F9"/>
<path d="M295.393 106.162C294.421 106.162 293.641 106.036 293.053 105.784C292.477 105.532 292.057 105.178 291.793 104.722C291.541 104.266 291.415 103.726 291.415 103.102C291.415 102.55 291.493 102.112 291.649 101.788C291.817 101.452 292.021 101.206 292.261 101.05C292.513 100.894 292.771 100.792 293.035 100.744V100.672C292.795 100.6 292.543 100.48 292.279 100.312C292.015 100.144 291.793 99.91 291.613 99.61C291.445 99.31 291.361 98.932 291.361 98.476C291.361 98.056 291.457 97.66 291.649 97.288C291.841 96.916 292.153 96.61 292.585 96.37C293.017 96.13 293.587 96.01 294.295 96.01C294.583 96.01 294.883 96.034 295.195 96.082C295.507 96.118 295.747 96.184 295.915 96.28L295.627 97.522C295.495 97.474 295.321 97.432 295.105 97.396C294.901 97.348 294.685 97.324 294.457 97.324C293.953 97.324 293.581 97.444 293.341 97.684C293.101 97.912 292.981 98.218 292.981 98.602C292.981 99.022 293.083 99.34 293.287 99.556C293.503 99.772 293.773 99.922 294.097 100.006C294.433 100.078 294.781 100.114 295.141 100.114H295.483V101.284H295.141C294.421 101.284 293.887 101.416 293.539 101.68C293.203 101.932 293.035 102.358 293.035 102.958C293.035 103.306 293.101 103.624 293.233 103.912C293.377 104.2 293.617 104.428 293.953 104.596C294.301 104.764 294.781 104.848 295.393 104.848C296.005 104.848 296.479 104.764 296.815 104.596C297.163 104.428 297.409 104.188 297.553 103.876C297.697 103.552 297.769 103.168 297.769 102.724V96.136H299.371V102.616C299.371 103.876 299.047 104.782 298.399 105.334C297.763 105.886 296.761 106.162 295.393 106.162ZM291.713 94.57V93.868L293.027 93.292H299.363V94.57H291.713ZM295.421 93.868V91.834H296.753V93.868H295.421ZM298.049 93.868V91.834H299.363V93.868H298.049ZM305.684 106.18C304.976 106.18 304.364 106.06 303.848 105.82C303.344 105.568 302.954 105.19 302.678 104.686C302.414 104.182 302.282 103.528 302.282 102.724V96.136H303.884V102.634C303.884 103.354 304.064 103.9 304.424 104.272C304.796 104.644 305.33 104.83 306.026 104.83C306.866 104.83 307.514 104.56 307.97 104.02C308.438 103.48 308.672 102.754 308.672 101.842V96.136H310.274V106H308.942L308.87 104.542H308.78C308.564 105.022 308.186 105.418 307.646 105.73C307.118 106.03 306.464 106.18 305.684 106.18Z" fill="#0D131C"/>
<g clip-path="url(#clip0_151_4329)">
<path d="M349.847 98.3018C350.846 99.2773 350.846 100.47 349.999 101.753C349.999 101.753 344.523 111.034 342.461 112.244C340.477 113.694 338.087 114.485 335.632 114.5C331.958 114.5 328.7 112.197 327.56 108.793L327.558 108.784L327.549 108.758L327.481 108.55L323.494 95.8525C323.143 94.8535 323.667 93.7549 324.666 93.4004C325.668 93.0547 326.769 93.6201 327.124 94.5986L329.397 100.528C329.494 100.774 329.556 100.66 329.556 100.467L328.029 89.6592C327.842 88.6396 328.536 87.6055 329.582 87.4238C330.628 87.2393 331.633 87.9746 331.82 88.9941L333.534 98.2285C333.552 98.3867 333.675 98.3486 333.666 98.2109L333.704 86.375C333.704 85.3379 334.568 84.5 335.632 84.5C336.695 84.5 337.557 85.3408 337.557 86.375L338.093 98.123C338.113 98.4248 338.295 98.3867 338.374 98.1611L339.962 89.123C340.088 88.0947 341.049 87.3066 342.103 87.4268C343.155 87.5615 343.905 88.5195 343.782 89.5742L342.103 100.525C342.004 101.308 341.755 102.705 342.103 103.106C342.191 103.209 342.405 103.49 342.763 103.54C343.199 103.602 343.674 103.303 343.981 102.778C344.728 101.422 345.478 100.065 346.226 98.7061C347.011 97.6162 348.845 97.3262 349.847 98.3018Z" fill="#7B00FF"/>
</g>
<rect x="235.5" y="75.5" width="171" height="48" rx="3.5" stroke="#FF0000"/>
<g opacity="0.5">
<rect x="53" y="134" width="172" height="49" rx="4" fill="#F9F9F9"/>
<path d="M107.094 165.18C106.77 165.18 106.458 165.126 106.158 165.018C105.858 164.91 105.612 164.718 105.42 164.442C105.228 164.166 105.132 163.782 105.132 163.29V155.136H106.734V163.092C106.734 163.368 106.794 163.566 106.914 163.686C107.034 163.806 107.226 163.866 107.49 163.866C107.598 163.866 107.712 163.854 107.832 163.83C107.952 163.806 108.066 163.776 108.174 163.74L108.39 164.91C108.162 165.018 107.94 165.09 107.724 165.126C107.508 165.162 107.298 165.18 107.094 165.18ZM112.008 165.18C111.684 165.18 111.372 165.126 111.072 165.018C110.772 164.91 110.526 164.718 110.334 164.442C110.142 164.166 110.046 163.782 110.046 163.29V155.136H111.648V163.092C111.648 163.368 111.708 163.566 111.828 163.686C111.948 163.806 112.14 163.866 112.404 163.866C112.512 163.866 112.626 163.854 112.746 163.83C112.866 163.806 112.98 163.776 113.088 163.74L113.304 164.91C113.076 165.018 112.854 165.09 112.638 165.126C112.422 165.162 112.212 165.18 112.008 165.18ZM118.346 165.162C117.374 165.162 116.594 165.036 116.006 164.784C115.43 164.532 115.01 164.178 114.746 163.722C114.494 163.266 114.368 162.726 114.368 162.102C114.368 161.55 114.446 161.112 114.602 160.788C114.77 160.452 114.974 160.206 115.214 160.05C115.466 159.894 115.724 159.792 115.988 159.744V159.672C115.748 159.6 115.496 159.48 115.232 159.312C114.968 159.144 114.746 158.91 114.566 158.61C114.398 158.31 114.314 157.932 114.314 157.476C114.314 157.056 114.41 156.66 114.602 156.288C114.794 155.916 115.106 155.61 115.538 155.37C115.97 155.13 116.54 155.01 117.248 155.01C117.536 155.01 117.836 155.034 118.148 155.082C118.46 155.118 118.7 155.184 118.868 155.28L118.58 156.522C118.448 156.474 118.274 156.432 118.058 156.396C117.854 156.348 117.638 156.324 117.41 156.324C116.906 156.324 116.534 156.444 116.294 156.684C116.054 156.912 115.934 157.218 115.934 157.602C115.934 158.022 116.036 158.34 116.24 158.556C116.456 158.772 116.726 158.922 117.05 159.006C117.386 159.078 117.734 159.114 118.094 159.114H118.436V160.284H118.094C117.374 160.284 116.84 160.416 116.492 160.68C116.156 160.932 115.988 161.358 115.988 161.958C115.988 162.306 116.054 162.624 116.186 162.912C116.33 163.2 116.57 163.428 116.906 163.596C117.254 163.764 117.734 163.848 118.346 163.848C118.958 163.848 119.432 163.764 119.768 163.596C120.116 163.428 120.362 163.188 120.506 162.876C120.65 162.552 120.722 162.168 120.722 161.724V155.136H122.324V161.616C122.324 162.876 122 163.782 121.352 164.334C120.716 164.886 119.714 165.162 118.346 165.162ZM125.145 165V161.58C125.145 160.824 125.313 160.278 125.649 159.942C125.985 159.594 126.411 159.354 126.927 159.222L126.945 159.168L124.965 158.412V157.818C124.965 157.326 125.127 156.864 125.451 156.432C125.775 155.988 126.237 155.634 126.837 155.37C127.449 155.094 128.175 154.956 129.015 154.956C129.747 154.956 130.425 155.076 131.049 155.316C131.673 155.544 132.171 155.91 132.543 156.414C132.927 156.906 133.119 157.554 133.119 158.358V165H131.517V158.52C131.517 157.716 131.271 157.146 130.779 156.81C130.299 156.462 129.705 156.288 128.997 156.288C128.265 156.288 127.683 156.444 127.251 156.756C126.819 157.056 126.603 157.44 126.603 157.908L128.547 158.88L128.403 159.744C127.959 159.744 127.569 159.894 127.233 160.194C126.909 160.482 126.747 160.944 126.747 161.58V165H125.145Z" fill="#0D131C"/>
<rect x="145.987" y="149.347" width="11" height="15" rx="1" transform="rotate(-15 145.987 149.347)" fill="#687785"/>
<rect x="165.487" y="152.5" width="11" height="15" rx="1" transform="rotate(30 165.487 152.5)" fill="#687785"/>
</g>
<rect x="235" y="134" width="172" height="49" rx="4" fill="#F9F9F9"/>
<path d="M281.289 165V158.43C281.289 157.65 281.109 157.098 280.749 156.774C280.401 156.438 279.813 156.27 278.985 156.27C278.385 156.27 277.809 156.354 277.257 156.522C276.717 156.678 276.201 156.9 275.709 157.188V155.694C276.057 155.514 276.525 155.346 277.113 155.19C277.713 155.034 278.385 154.956 279.129 154.956C279.765 154.956 280.305 155.028 280.749 155.172C281.205 155.316 281.541 155.58 281.757 155.964C282.177 156.156 282.465 156.456 282.621 156.864C282.789 157.272 282.873 157.764 282.873 158.34V165H281.289ZM278.193 165.18C277.137 165.18 276.327 164.94 275.763 164.46C275.211 163.968 274.935 163.266 274.935 162.354C274.935 161.358 275.295 160.59 276.015 160.05C276.747 159.51 277.929 159.192 279.561 159.096L281.613 158.97V160.302L279.777 160.428C278.553 160.512 277.707 160.704 277.239 161.004C276.783 161.304 276.555 161.742 276.555 162.318C276.555 162.858 276.723 163.254 277.059 163.506C277.407 163.758 277.887 163.884 278.499 163.884C278.703 163.884 278.889 163.872 279.057 163.848C279.225 163.812 279.387 163.77 279.543 163.722L279.795 164.928C279.567 165.012 279.315 165.072 279.039 165.108C278.775 165.156 278.493 165.18 278.193 165.18ZM281.703 156.522L280.803 155.676C281.115 155.628 281.409 155.508 281.685 155.316C281.961 155.124 282.099 154.848 282.099 154.488H283.665C283.665 154.86 283.575 155.19 283.395 155.478C283.227 155.754 282.993 155.982 282.693 156.162C282.393 156.33 282.063 156.45 281.703 156.522ZM289.304 165.18C288.008 165.18 287.036 164.844 286.388 164.172C285.752 163.488 285.434 162.42 285.434 160.968C285.434 160.728 285.44 160.47 285.452 160.194C285.476 159.906 285.5 159.624 285.524 159.348H289.304V160.608H287.036V160.968C287.036 161.724 287.12 162.318 287.288 162.75C287.456 163.17 287.702 163.464 288.026 163.632C288.362 163.8 288.776 163.884 289.268 163.884C289.808 163.884 290.276 163.782 290.672 163.578C291.068 163.374 291.374 163.002 291.59 162.462C291.806 161.922 291.914 161.148 291.914 160.14C291.914 159.252 291.818 158.526 291.626 157.962C291.434 157.398 291.116 156.978 290.672 156.702C290.24 156.426 289.652 156.288 288.908 156.288C288.524 156.288 288.152 156.324 287.792 156.396C287.432 156.456 287.084 156.552 286.748 156.684C286.412 156.804 286.082 156.96 285.758 157.152V155.658C285.998 155.526 286.292 155.412 286.64 155.316C286.988 155.208 287.372 155.124 287.792 155.064C288.212 154.992 288.65 154.956 289.106 154.956C290.162 154.956 291.014 155.172 291.662 155.604C292.322 156.024 292.802 156.624 293.102 157.404C293.402 158.172 293.552 159.084 293.552 160.14C293.552 161.196 293.414 162.102 293.138 162.858C292.862 163.614 292.412 164.19 291.788 164.586C291.176 164.982 290.348 165.18 289.304 165.18ZM297.767 165L294.689 155.136H296.309L298.973 163.614H299.189C299.477 163.614 299.759 163.548 300.035 163.416C300.311 163.272 300.545 163.092 300.737 162.876C301.097 162.48 301.361 161.982 301.529 161.382C301.697 160.77 301.781 160.17 301.781 159.582C301.781 158.586 301.553 157.806 301.097 157.242C300.653 156.666 300.035 156.378 299.243 156.378C299.087 156.378 298.931 156.39 298.775 156.414C298.631 156.438 298.511 156.468 298.415 156.504L298.019 155.226C298.271 155.154 298.505 155.106 298.721 155.082C298.949 155.058 299.153 155.046 299.333 155.046C299.933 155.046 300.467 155.136 300.935 155.316C301.415 155.484 301.823 155.736 302.159 156.072C302.579 156.48 302.885 156.99 303.077 157.602C303.281 158.214 303.383 158.892 303.383 159.636C303.383 160.572 303.239 161.406 302.951 162.138C302.663 162.858 302.303 163.434 301.871 163.866C301.523 164.214 301.097 164.49 300.593 164.694C300.089 164.898 299.447 165 298.667 165H297.767ZM308.047 165.18C307.723 165.18 307.411 165.126 307.111 165.018C306.811 164.91 306.565 164.718 306.373 164.442C306.181 164.166 306.085 163.782 306.085 163.29V155.136H307.687V163.092C307.687 163.368 307.747 163.566 307.867 163.686C307.987 163.806 308.179 163.866 308.443 163.866C308.551 163.866 308.665 163.854 308.785 163.83C308.905 163.806 309.019 163.776 309.127 163.74L309.343 164.91C309.115 165.018 308.893 165.09 308.677 165.126C308.461 165.162 308.251 165.18 308.047 165.18ZM311.178 165V155.136H312.294L312.582 156.702H312.654C312.858 156.162 313.23 155.736 313.77 155.424C314.31 155.112 314.964 154.956 315.732 154.956C316.452 154.956 317.064 155.082 317.568 155.334C318.084 155.574 318.48 155.946 318.756 156.45C319.032 156.954 319.17 157.608 319.17 158.412V165H317.568V158.502C317.568 157.782 317.388 157.236 317.028 156.864C316.668 156.492 316.134 156.306 315.426 156.306C314.862 156.306 314.382 156.438 313.986 156.702C313.59 156.966 313.29 157.326 313.086 157.782C312.882 158.226 312.78 158.73 312.78 159.294V165H311.178ZM317.378 153.57V149.772H318.962V153.57H317.378ZM324.883 165V157.998C324.883 157.41 324.745 156.978 324.469 156.702C324.205 156.426 323.755 156.288 323.119 156.288C322.687 156.288 322.279 156.348 321.895 156.468C321.523 156.576 321.163 156.732 320.815 156.936V155.496C321.055 155.376 321.397 155.256 321.841 155.136C322.285 155.016 322.813 154.956 323.425 154.956C324.049 154.956 324.589 155.046 325.045 155.226C325.501 155.406 325.855 155.706 326.107 156.126C326.359 156.534 326.485 157.08 326.485 157.764V165H324.883Z" fill="#0D131C"/>
<circle cx="357" cy="162.5" r="8" fill="#687785"/>
<path fill-rule="evenodd" clip-rule="evenodd" d="M356.357 153.032C351.377 153.437 347.462 157.607 347.462 162.692C347.462 162.806 347.464 162.92 347.467 163.033C343.792 162.381 341 159.17 341 155.308C341 150.974 344.513 147.461 348.846 147.461C352.388 147.461 355.382 149.808 356.357 153.032Z" fill="#687785"/>
<rect x="53.5" y="198.5" width="213" height="73" rx="9.5" fill="white"/>
<g clip-path="url(#clip1_151_4329)">
<g clip-path="url(#clip2_151_4329)">
<path d="M91.1393 226.903C89.5366 233.331 83.0254 237.244 76.596 235.641C70.1693 234.038 66.257 227.526 67.8604 221.098C69.4623 214.669 75.9735 210.756 82.4009 212.359C88.8298 213.962 92.7419 220.474 91.1391 226.903L91.1392 226.903H91.1393Z" fill="#F7931A"/>
<path d="M84.791 222.29C85.0299 220.693 83.8141 219.835 82.1516 219.262L82.6909 217.099L81.3741 216.771L80.8491 218.877C80.5029 218.791 80.1474 218.71 79.7941 218.629L80.3229 216.509L79.0069 216.181L78.4673 218.343C78.1808 218.278 77.8994 218.213 77.6265 218.146L77.628 218.139L75.8121 217.685L75.4618 219.092C75.4618 219.092 76.4388 219.316 76.4182 219.329C76.9514 219.463 77.0478 219.816 77.0318 220.095L76.4175 222.56C76.4542 222.569 76.5018 222.582 76.5544 222.604C76.5104 222.593 76.4637 222.581 76.4152 222.569L75.5541 226.021C75.4889 226.183 75.3235 226.427 74.9507 226.334C74.9639 226.353 73.9936 226.095 73.9936 226.095L73.3398 227.603L75.0534 228.03C75.3722 228.11 75.6846 228.193 75.9923 228.272L75.4474 230.46L76.7627 230.788L77.3023 228.623C77.6616 228.721 78.0103 228.811 78.3517 228.896L77.8139 231.05L79.1307 231.378L79.6756 229.195C81.921 229.62 83.6094 229.448 84.32 227.417C84.8927 225.782 84.2915 224.839 83.1102 224.224C83.9706 224.025 84.6187 223.46 84.7915 222.291L84.7911 222.29L84.791 222.29ZM81.7825 226.509C81.3755 228.144 78.6224 227.26 77.7298 227.039L78.4529 224.14C79.3454 224.363 82.2078 224.804 81.7825 226.509H81.7825ZM82.1897 222.267C81.8185 223.754 79.527 222.998 78.7837 222.813L79.4393 220.184C80.1826 220.369 82.5764 220.715 82.1898 222.267H82.1897Z" fill="white"/>
</g>
<path d="M96.7148 225.505C96.7148 223.056 97.1543 221.342 98.0332 220.363C98.918 219.385 100.263 218.896 102.067 218.896C102.935 218.896 103.646 219.004 104.203 219.221C104.76 219.432 105.214 219.71 105.565 220.056C105.917 220.396 106.192 220.756 106.392 221.137C106.597 221.512 106.761 221.951 106.884 222.455C107.124 223.416 107.244 224.418 107.244 225.461C107.244 227.799 106.849 229.51 106.058 230.594C105.267 231.678 103.904 232.22 101.971 232.22C100.887 232.22 100.011 232.047 99.3428 231.701C98.6748 231.355 98.127 230.849 97.6992 230.181C97.3887 229.706 97.1455 229.059 96.9697 228.238C96.7998 227.412 96.7148 226.501 96.7148 225.505ZM100.266 225.514C100.266 227.154 100.409 228.276 100.696 228.88C100.989 229.478 101.411 229.776 101.962 229.776C102.325 229.776 102.639 229.65 102.902 229.398C103.172 229.141 103.368 228.736 103.491 228.186C103.62 227.635 103.685 226.776 103.685 225.61C103.685 223.899 103.538 222.751 103.245 222.165C102.958 221.573 102.524 221.277 101.944 221.277C101.353 221.277 100.925 221.579 100.661 222.183C100.397 222.78 100.266 223.891 100.266 225.514ZM109.072 228.414H112.896V232H109.072V228.414ZM114.715 225.505C114.715 223.056 115.154 221.342 116.033 220.363C116.918 219.385 118.263 218.896 120.067 218.896C120.935 218.896 121.646 219.004 122.203 219.221C122.76 219.432 123.214 219.71 123.565 220.056C123.917 220.396 124.192 220.756 124.392 221.137C124.597 221.512 124.761 221.951 124.884 222.455C125.124 223.416 125.244 224.418 125.244 225.461C125.244 227.799 124.849 229.51 124.058 230.594C123.267 231.678 121.904 232.22 119.971 232.22C118.887 232.22 118.011 232.047 117.343 231.701C116.675 231.355 116.127 230.849 115.699 230.181C115.389 229.706 115.146 229.059 114.97 228.238C114.8 227.412 114.715 226.501 114.715 225.505ZM118.266 225.514C118.266 227.154 118.409 228.276 118.696 228.88C118.989 229.478 119.411 229.776 119.962 229.776C120.325 229.776 120.639 229.65 120.902 229.398C121.172 229.141 121.368 228.736 121.491 228.186C121.62 227.635 121.685 226.776 121.685 225.61C121.685 223.899 121.538 222.751 121.245 222.165C120.958 221.573 120.524 221.277 119.944 221.277C119.353 221.277 118.925 221.579 118.661 222.183C118.397 222.78 118.266 223.891 118.266 225.514ZM126.721 225.505C126.721 223.056 127.16 221.342 128.039 220.363C128.924 219.385 130.269 218.896 132.073 218.896C132.94 218.896 133.652 219.004 134.209 219.221C134.766 219.432 135.22 219.71 135.571 220.056C135.923 220.396 136.198 220.756 136.397 221.137C136.603 221.512 136.767 221.951 136.89 222.455C137.13 223.416 137.25 224.418 137.25 225.461C137.25 227.799 136.854 229.51 136.063 230.594C135.272 231.678 133.91 232.22 131.977 232.22C130.893 232.22 130.017 232.047 129.349 231.701C128.681 231.355 128.133 230.849 127.705 230.181C127.395 229.706 127.151 229.059 126.976 228.238C126.806 227.412 126.721 226.501 126.721 225.505ZM130.271 225.514C130.271 227.154 130.415 228.276 130.702 228.88C130.995 229.478 131.417 229.776 131.968 229.776C132.331 229.776 132.645 229.65 132.908 229.398C133.178 229.141 133.374 228.736 133.497 228.186C133.626 227.635 133.69 226.776 133.69 225.61C133.69 223.899 133.544 222.751 133.251 222.165C132.964 221.573 132.53 221.277 131.95 221.277C131.358 221.277 130.931 221.579 130.667 222.183C130.403 222.78 130.271 223.891 130.271 225.514ZM138.727 225.505C138.727 223.056 139.166 221.342 140.045 220.363C140.93 219.385 142.274 218.896 144.079 218.896C144.946 218.896 145.658 219.004 146.215 219.221C146.771 219.432 147.226 219.71 147.577 220.056C147.929 220.396 148.204 220.756 148.403 221.137C148.608 221.512 148.772 221.951 148.896 222.455C149.136 223.416 149.256 224.418 149.256 225.461C149.256 227.799 148.86 229.51 148.069 230.594C147.278 231.678 145.916 232.22 143.982 232.22C142.898 232.22 142.022 232.047 141.354 231.701C140.687 231.355 140.139 230.849 139.711 230.181C139.4 229.706 139.157 229.059 138.981 228.238C138.812 227.412 138.727 226.501 138.727 225.505ZM142.277 225.514C142.277 227.154 142.421 228.276 142.708 228.88C143.001 229.478 143.423 229.776 143.974 229.776C144.337 229.776 144.65 229.65 144.914 229.398C145.184 229.141 145.38 228.736 145.503 228.186C145.632 227.635 145.696 226.776 145.696 225.61C145.696 223.899 145.55 222.751 145.257 222.165C144.97 221.573 144.536 221.277 143.956 221.277C143.364 221.277 142.937 221.579 142.673 222.183C142.409 222.78 142.277 223.891 142.277 225.514ZM150.732 225.505C150.732 223.056 151.172 221.342 152.051 220.363C152.936 219.385 154.28 218.896 156.085 218.896C156.952 218.896 157.664 219.004 158.221 219.221C158.777 219.432 159.231 219.71 159.583 220.056C159.935 220.396 160.21 220.756 160.409 221.137C160.614 221.512 160.778 221.951 160.901 222.455C161.142 223.416 161.262 224.418 161.262 225.461C161.262 227.799 160.866 229.51 160.075 230.594C159.284 231.678 157.922 232.22 155.988 232.22C154.904 232.22 154.028 232.047 153.36 231.701C152.692 231.355 152.145 230.849 151.717 230.181C151.406 229.706 151.163 229.059 150.987 228.238C150.817 227.412 150.732 226.501 150.732 225.505ZM154.283 225.514C154.283 227.154 154.427 228.276 154.714 228.88C155.007 229.478 155.429 229.776 155.979 229.776C156.343 229.776 156.656 229.65 156.92 229.398C157.189 229.141 157.386 228.736 157.509 228.186C157.638 227.635 157.702 226.776 157.702 225.61C157.702 223.899 157.556 222.751 157.263 222.165C156.976 221.573 156.542 221.277 155.962 221.277C155.37 221.277 154.942 221.579 154.679 222.183C154.415 222.78 154.283 223.891 154.283 225.514ZM170.851 218.896V232H167.229V223.413C166.644 223.858 166.075 224.219 165.524 224.494C164.979 224.77 164.294 225.033 163.468 225.285V222.35C164.687 221.957 165.633 221.485 166.307 220.935C166.98 220.384 167.508 219.704 167.889 218.896H170.851ZM174.744 225.505C174.744 223.056 175.184 221.342 176.062 220.363C176.947 219.385 178.292 218.896 180.097 218.896C180.964 218.896 181.676 219.004 182.232 219.221C182.789 219.432 183.243 219.71 183.595 220.056C183.946 220.396 184.222 220.756 184.421 221.137C184.626 221.512 184.79 221.951 184.913 222.455C185.153 223.416 185.273 224.418 185.273 225.461C185.273 227.799 184.878 229.51 184.087 230.594C183.296 231.678 181.934 232.22 180 232.22C178.916 232.22 178.04 232.047 177.372 231.701C176.704 231.355 176.156 230.849 175.729 230.181C175.418 229.706 175.175 229.059 174.999 228.238C174.829 227.412 174.744 226.501 174.744 225.505ZM178.295 225.514C178.295 227.154 178.438 228.276 178.726 228.88C179.019 229.478 179.44 229.776 179.991 229.776C180.354 229.776 180.668 229.65 180.932 229.398C181.201 229.141 181.397 228.736 181.521 228.186C181.649 227.635 181.714 226.776 181.714 225.61C181.714 223.899 181.567 222.751 181.274 222.165C180.987 221.573 180.554 221.277 179.974 221.277C179.382 221.277 178.954 221.579 178.69 222.183C178.427 222.78 178.295 223.891 178.295 225.514ZM186.75 225.505C186.75 223.056 187.189 221.342 188.068 220.363C188.953 219.385 190.298 218.896 192.103 218.896C192.97 218.896 193.682 219.004 194.238 219.221C194.795 219.432 195.249 219.71 195.601 220.056C195.952 220.396 196.228 220.756 196.427 221.137C196.632 221.512 196.796 221.951 196.919 222.455C197.159 223.416 197.279 224.418 197.279 225.461C197.279 227.799 196.884 229.51 196.093 230.594C195.302 231.678 193.939 232.22 192.006 232.22C190.922 232.22 190.046 232.047 189.378 231.701C188.71 231.355 188.162 230.849 187.734 230.181C187.424 229.706 187.181 229.059 187.005 228.238C186.835 227.412 186.75 226.501 186.75 225.505ZM190.301 225.514C190.301 227.154 190.444 228.276 190.731 228.88C191.024 229.478 191.446 229.776 191.997 229.776C192.36 229.776 192.674 229.65 192.938 229.398C193.207 229.141 193.403 228.736 193.526 228.186C193.655 227.635 193.72 226.776 193.72 225.61C193.72 223.899 193.573 222.751 193.28 222.165C192.993 221.573 192.56 221.277 191.979 221.277C191.388 221.277 190.96 221.579 190.696 222.183C190.433 222.78 190.301 223.891 190.301 225.514ZM198.756 225.505C198.756 223.056 199.195 221.342 200.074 220.363C200.959 219.385 202.304 218.896 204.108 218.896C204.976 218.896 205.688 219.004 206.244 219.221C206.801 219.432 207.255 219.71 207.606 220.056C207.958 220.396 208.233 220.756 208.433 221.137C208.638 221.512 208.802 221.951 208.925 222.455C209.165 223.416 209.285 224.418 209.285 225.461C209.285 227.799 208.89 229.51 208.099 230.594C207.308 231.678 205.945 232.22 204.012 232.22C202.928 232.22 202.052 232.047 201.384 231.701C200.716 231.355 200.168 230.849 199.74 230.181C199.43 229.706 199.187 229.059 199.011 228.238C198.841 227.412 198.756 226.501 198.756 225.505ZM202.307 225.514C202.307 227.154 202.45 228.276 202.737 228.88C203.03 229.478 203.452 229.776 204.003 229.776C204.366 229.776 204.68 229.65 204.943 229.398C205.213 229.141 205.409 228.736 205.532 228.186C205.661 227.635 205.726 226.776 205.726 225.61C205.726 223.899 205.579 222.751 205.286 222.165C204.999 221.573 204.565 221.277 203.985 221.277C203.394 221.277 202.966 221.579 202.702 222.183C202.438 222.78 202.307 223.891 202.307 225.514Z" fill="#484848"/>
<path d="M99.2461 253.411V250.342C98.2891 250.068 97.5859 249.656 97.1367 249.104C96.6924 248.547 96.4702 247.874 96.4702 247.083C96.4702 246.282 96.7217 245.61 97.2246 245.068C97.7324 244.521 98.4062 244.207 99.2461 244.124V243.398H100.308V244.124C101.084 244.216 101.702 244.482 102.161 244.922C102.62 245.356 102.913 245.94 103.04 246.672L101.187 246.914C101.075 246.338 100.782 245.947 100.308 245.742V248.606C101.48 248.923 102.278 249.336 102.703 249.844C103.128 250.347 103.34 250.994 103.34 251.785C103.34 252.668 103.072 253.413 102.535 254.019C102.002 254.624 101.26 254.995 100.308 255.132V256.501H99.2461V255.168C98.4014 255.066 97.7153 254.751 97.188 254.224C96.6606 253.696 96.3237 252.952 96.1772 251.99L98.0889 251.785C98.167 252.175 98.3135 252.512 98.5283 252.795C98.7432 253.079 98.9824 253.284 99.2461 253.411ZM99.2461 245.72C98.958 245.818 98.7285 245.984 98.5576 246.218C98.3867 246.453 98.3013 246.711 98.3013 246.995C98.3013 247.253 98.3794 247.495 98.5356 247.72C98.6919 247.939 98.9287 248.118 99.2461 248.254V245.72ZM100.308 253.513C100.674 253.445 100.972 253.276 101.202 253.008C101.431 252.734 101.546 252.415 101.546 252.048C101.546 251.721 101.448 251.44 101.253 251.206C101.062 250.967 100.748 250.784 100.308 250.657V253.513ZM108.687 255V252.839H104.292V251.038L108.951 244.219H110.679V251.03H112.012V252.839H110.679V255H108.687ZM108.687 251.03V247.361L106.219 251.03H108.687ZM113.44 255V252.942H115.499V255H113.44ZM121.211 255V252.839H116.817V251.038L121.475 244.219H123.204V251.03H124.537V252.839H123.204V255H121.211ZM121.211 251.03V247.361L118.743 251.03H121.211ZM129.004 244.219C130.044 244.219 130.857 244.59 131.443 245.332C132.142 246.211 132.491 247.668 132.491 249.705C132.491 251.736 132.139 253.196 131.436 254.084C130.855 254.817 130.044 255.183 129.004 255.183C127.959 255.183 127.117 254.783 126.478 253.982C125.838 253.176 125.518 251.743 125.518 249.683C125.518 247.661 125.87 246.206 126.573 245.317C127.154 244.585 127.964 244.219 129.004 244.219ZM129.004 245.925C128.755 245.925 128.533 246.006 128.338 246.167C128.143 246.323 127.991 246.606 127.884 247.017C127.742 247.549 127.671 248.445 127.671 249.705C127.671 250.964 127.735 251.831 127.862 252.305C127.989 252.773 128.147 253.086 128.338 253.242C128.533 253.398 128.755 253.477 129.004 253.477C129.253 253.477 129.476 253.398 129.671 253.242C129.866 253.081 130.018 252.795 130.125 252.385C130.267 251.858 130.337 250.964 130.337 249.705C130.337 248.445 130.274 247.581 130.147 247.112C130.02 246.638 129.859 246.323 129.664 246.167C129.473 246.006 129.253 245.925 129.004 245.925ZM137.354 244.219C138.394 244.219 139.207 244.59 139.793 245.332C140.491 246.211 140.84 247.668 140.84 249.705C140.84 251.736 140.489 253.196 139.786 254.084C139.205 254.817 138.394 255.183 137.354 255.183C136.309 255.183 135.467 254.783 134.827 253.982C134.188 253.176 133.868 251.743 133.868 249.683C133.868 247.661 134.219 246.206 134.922 245.317C135.503 244.585 136.314 244.219 137.354 244.219ZM137.354 245.925C137.105 245.925 136.883 246.006 136.688 246.167C136.492 246.323 136.341 246.606 136.233 247.017C136.092 247.549 136.021 248.445 136.021 249.705C136.021 250.964 136.084 251.831 136.211 252.305C136.338 252.773 136.497 253.086 136.688 253.242C136.883 253.398 137.105 253.477 137.354 253.477C137.603 253.477 137.825 253.398 138.021 253.242C138.216 253.081 138.367 252.795 138.475 252.385C138.616 251.858 138.687 250.964 138.687 249.705C138.687 248.445 138.624 247.581 138.497 247.112C138.37 246.638 138.208 246.323 138.013 246.167C137.823 246.006 137.603 245.925 137.354 245.925ZM145.704 244.219C146.744 244.219 147.557 244.59 148.143 245.332C148.841 246.211 149.19 247.668 149.19 249.705C149.19 251.736 148.838 253.196 148.135 254.084C147.554 254.817 146.744 255.183 145.704 255.183C144.659 255.183 143.816 254.783 143.177 253.982C142.537 253.176 142.217 251.743 142.217 249.683C142.217 247.661 142.569 246.206 143.272 245.317C143.853 244.585 144.664 244.219 145.704 244.219ZM145.704 245.925C145.455 245.925 145.232 246.006 145.037 246.167C144.842 246.323 144.69 246.606 144.583 247.017C144.441 247.549 144.371 248.445 144.371 249.705C144.371 250.964 144.434 251.831 144.561 252.305C144.688 252.773 144.847 253.086 145.037 253.242C145.232 253.398 145.455 253.477 145.704 253.477C145.953 253.477 146.175 253.398 146.37 253.242C146.565 253.081 146.717 252.795 146.824 252.385C146.966 251.858 147.037 250.964 147.037 249.705C147.037 248.445 146.973 247.581 146.846 247.112C146.719 246.638 146.558 246.323 146.363 246.167C146.172 246.006 145.953 245.925 145.704 245.925ZM154.053 244.219C155.093 244.219 155.906 244.59 156.492 245.332C157.19 246.211 157.54 247.668 157.54 249.705C157.54 251.736 157.188 253.196 156.485 254.084C155.904 254.817 155.093 255.183 154.053 255.183C153.008 255.183 152.166 254.783 151.526 253.982C150.887 253.176 150.567 251.743 150.567 249.683C150.567 247.661 150.918 246.206 151.622 245.317C152.203 244.585 153.013 244.219 154.053 244.219ZM154.053 245.925C153.804 245.925 153.582 246.006 153.387 246.167C153.191 246.323 153.04 246.606 152.933 247.017C152.791 247.549 152.72 248.445 152.72 249.705C152.72 250.964 152.784 251.831 152.911 252.305C153.038 252.773 153.196 253.086 153.387 253.242C153.582 253.398 153.804 253.477 154.053 253.477C154.302 253.477 154.524 253.398 154.72 253.242C154.915 253.081 155.066 252.795 155.174 252.385C155.315 251.858 155.386 250.964 155.386 249.705C155.386 248.445 155.323 247.581 155.196 247.112C155.069 246.638 154.908 246.323 154.712 246.167C154.522 246.006 154.302 245.925 154.053 245.925ZM162.403 244.219C163.443 244.219 164.256 244.59 164.842 245.332C165.54 246.211 165.889 247.668 165.889 249.705C165.889 251.736 165.538 253.196 164.834 254.084C164.253 254.817 163.443 255.183 162.403 255.183C161.358 255.183 160.516 254.783 159.876 253.982C159.236 253.176 158.917 251.743 158.917 249.683C158.917 247.661 159.268 246.206 159.971 245.317C160.552 244.585 161.363 244.219 162.403 244.219ZM162.403 245.925C162.154 245.925 161.932 246.006 161.736 246.167C161.541 246.323 161.39 246.606 161.282 247.017C161.141 247.549 161.07 248.445 161.07 249.705C161.07 250.964 161.133 251.831 161.26 252.305C161.387 252.773 161.546 253.086 161.736 253.242C161.932 253.398 162.154 253.477 162.403 253.477C162.652 253.477 162.874 253.398 163.069 253.242C163.265 253.081 163.416 252.795 163.523 252.385C163.665 251.858 163.736 250.964 163.736 249.705C163.736 248.445 163.672 247.581 163.545 247.112C163.418 246.638 163.257 246.323 163.062 246.167C162.872 246.006 162.652 245.925 162.403 245.925ZM170.752 244.219C171.792 244.219 172.605 244.59 173.191 245.332C173.89 246.211 174.239 247.668 174.239 249.705C174.239 251.736 173.887 253.196 173.184 254.084C172.603 254.817 171.792 255.183 170.752 255.183C169.708 255.183 168.865 254.783 168.226 253.982C167.586 253.176 167.266 251.743 167.266 249.683C167.266 247.661 167.618 246.206 168.321 245.317C168.902 244.585 169.712 244.219 170.752 244.219ZM170.752 245.925C170.503 245.925 170.281 246.006 170.086 246.167C169.891 246.323 169.739 246.606 169.632 247.017C169.49 247.549 169.419 248.445 169.419 249.705C169.419 250.964 169.483 251.831 169.61 252.305C169.737 252.773 169.896 253.086 170.086 253.242C170.281 253.398 170.503 253.477 170.752 253.477C171.001 253.477 171.224 253.398 171.419 253.242C171.614 253.081 171.766 252.795 171.873 252.385C172.015 251.858 172.085 250.964 172.085 249.705C172.085 248.445 172.022 247.581 171.895 247.112C171.768 246.638 171.607 246.323 171.412 246.167C171.221 246.006 171.001 245.925 170.752 245.925ZM179.102 244.219C180.142 244.219 180.955 244.59 181.541 245.332C182.239 246.211 182.588 247.668 182.588 249.705C182.588 251.736 182.237 253.196 181.534 254.084C180.953 254.817 180.142 255.183 179.102 255.183C178.057 255.183 177.215 254.783 176.575 253.982C175.936 253.176 175.616 251.743 175.616 249.683C175.616 247.661 175.967 246.206 176.67 245.317C177.251 244.585 178.062 244.219 179.102 244.219ZM179.102 245.925C178.853 245.925 178.631 246.006 178.436 246.167C178.24 246.323 178.089 246.606 177.981 247.017C177.84 247.549 177.769 248.445 177.769 249.705C177.769 250.964 177.833 251.831 177.959 252.305C178.086 252.773 178.245 253.086 178.436 253.242C178.631 253.398 178.853 253.477 179.102 253.477C179.351 253.477 179.573 253.398 179.769 253.242C179.964 253.081 180.115 252.795 180.223 252.385C180.364 251.858 180.435 250.964 180.435 249.705C180.435 248.445 180.372 247.581 180.245 247.112C180.118 246.638 179.957 246.323 179.761 246.167C179.571 246.006 179.351 245.925 179.102 245.925Z" fill="#7C8499"/>
</g>
<rect x="221" y="208" width="36" height="23" rx="6" fill="#F1F1F1"/>
<path d="M232.215 215.218H233.281V224.5H231.864V216.921C231.305 217.454 230.59 217.844 229.732 218.091V216.687C230.148 216.583 230.577 216.401 231.045 216.141C231.513 215.855 231.903 215.556 232.215 215.218ZM239.433 213.84H240.629L236.092 225.8H234.883L239.433 213.84ZM245.049 215.036C245.933 215.036 246.674 215.283 247.246 215.803C247.805 216.323 248.091 216.986 248.091 217.805C248.091 218.611 247.779 219.339 247.181 220.002C246.817 220.379 246.18 220.873 245.257 221.497C244.256 222.16 243.658 222.745 243.463 223.252H248.104V224.5H241.708C241.708 223.577 242.007 222.771 242.631 222.069C242.969 221.666 243.671 221.107 244.724 220.379C245.348 219.937 245.79 219.586 246.05 219.313C246.466 218.845 246.687 218.338 246.687 217.792C246.687 217.272 246.544 216.882 246.258 216.622C245.972 216.362 245.543 216.232 244.997 216.232C244.412 216.232 243.97 216.427 243.671 216.83C243.359 217.22 243.203 217.779 243.177 218.533H241.76C241.773 217.493 242.072 216.661 242.657 216.037C243.255 215.361 244.061 215.036 245.049 215.036Z" fill="#A6A6A6"/>
<rect x="221" y="239" width="36" height="23" rx="6" fill="#F1F1F1"/>
<path d="M235.699 246.036C236.583 246.036 237.324 246.283 237.896 246.803C238.455 247.323 238.741 247.986 238.741 248.805C238.741 249.611 238.429 250.339 237.831 251.002C237.467 251.379 236.83 251.873 235.907 252.497C234.906 253.16 234.308 253.745 234.113 254.252H238.754V255.5H232.358C232.358 254.577 232.657 253.771 233.281 253.069C233.619 252.666 234.321 252.107 235.374 251.379C235.998 250.937 236.44 250.586 236.7 250.313C237.116 249.845 237.337 249.338 237.337 248.792C237.337 248.272 237.194 247.882 236.908 247.622C236.622 247.362 236.193 247.232 235.647 247.232C235.062 247.232 234.62 247.427 234.321 247.83C234.009 248.22 233.853 248.779 233.827 249.533H232.41C232.423 248.493 232.722 247.661 233.307 247.037C233.905 246.361 234.711 246.036 235.699 246.036ZM239.815 248.779H241.427L242.909 250.911L244.378 248.779H245.99L243.663 251.925L246.276 255.5H244.664L242.909 252.939L241.141 255.5H239.516L242.142 251.925L239.815 248.779Z" fill="#A6A6A6"/>
<rect x="53.5" y="198.5" width="213" height="73" rx="9.5" stroke="#ECECEC"/>
<g opacity="0.5">
<rect x="277" y="198" width="130" height="74" rx="10" fill="#F04E23"/>
<g filter="url(#filter0_d_151_4329)">
<path d="M320.272 241.68C319.948 241.68 319.636 241.626 319.336 241.518C319.036 241.41 318.79 241.218 318.598 240.942C318.406 240.666 318.31 240.282 318.31 239.79V231.636H319.912V239.592C319.912 239.868 319.972 240.066 320.092 240.186C320.212 240.306 320.404 240.366 320.668 240.366C320.776 240.366 320.89 240.354 321.01 240.33C321.13 240.306 321.244 240.276 321.352 240.24L321.568 241.41C321.34 241.518 321.118 241.59 320.902 241.626C320.686 241.662 320.476 241.68 320.272 241.68ZM326.539 241.68C325.579 241.68 324.823 241.458 324.271 241.014C323.731 240.558 323.347 239.946 323.119 239.178C322.903 238.41 322.795 237.564 322.795 236.64C322.795 235.62 322.897 234.78 323.101 234.12C323.317 233.448 323.617 232.92 324.001 232.536C324.397 232.14 324.865 231.864 325.405 231.708C325.957 231.54 326.563 231.456 327.223 231.456C328.183 231.456 328.963 231.6 329.563 231.888C330.175 232.164 330.625 232.56 330.913 233.076C331.201 233.592 331.345 234.21 331.345 234.93V241.5H329.761V235.074C329.761 234.33 329.575 233.766 329.203 233.382C328.831 232.986 328.189 232.788 327.277 232.788C326.725 232.788 326.227 232.89 325.783 233.094C325.351 233.298 325.009 233.676 324.757 234.228C324.517 234.78 324.397 235.59 324.397 236.658C324.397 237.354 324.463 237.984 324.595 238.548C324.739 239.1 324.985 239.538 325.333 239.862C325.681 240.186 326.167 240.348 326.791 240.348C326.971 240.348 327.139 240.336 327.295 240.312C327.451 240.288 327.601 240.252 327.745 240.204L327.907 241.446C327.715 241.53 327.493 241.59 327.241 241.626C327.001 241.662 326.767 241.68 326.539 241.68ZM323.555 230.07V229.368L324.869 228.792H331.205V230.07H323.555ZM339.017 241.68C338.249 241.68 337.583 241.53 337.019 241.23C336.467 240.918 336.089 240.486 335.885 239.934H335.813L335.723 241.5H334.409V231.636H336.011V237.342C336.011 237.942 336.113 238.47 336.317 238.926C336.533 239.37 336.839 239.718 337.235 239.97C337.643 240.21 338.129 240.33 338.693 240.33C339.401 240.33 339.929 240.144 340.277 239.772C340.625 239.4 340.799 238.854 340.799 238.134V231.636H342.401V238.242C342.401 239.034 342.263 239.682 341.987 240.186C341.723 240.69 341.339 241.068 340.835 241.32C340.331 241.56 339.725 241.68 339.017 241.68ZM346.383 241.5L344.601 231.636H346.239L346.941 235.92C347.001 236.268 347.061 236.718 347.121 237.27C347.181 237.822 347.253 238.476 347.337 239.232H347.391C347.499 238.716 347.601 238.254 347.697 237.846C347.805 237.438 347.901 237.072 347.985 236.748C348.081 236.412 348.165 236.118 348.237 235.866L349.443 231.636H350.757L351.981 235.866C352.053 236.118 352.131 236.412 352.215 236.748C352.311 237.072 352.407 237.438 352.503 237.846C352.611 238.254 352.719 238.716 352.827 239.232H352.899C352.971 238.476 353.037 237.822 353.097 237.27C353.157 236.718 353.217 236.268 353.277 235.92L353.997 231.636H355.635L353.853 241.5H352.287L350.631 236.136C350.547 235.836 350.463 235.524 350.379 235.2C350.307 234.876 350.235 234.45 350.163 233.922H350.091C350.043 234.27 349.989 234.576 349.929 234.84C349.869 235.104 349.809 235.338 349.749 235.542C349.689 235.746 349.629 235.944 349.569 236.136L347.949 241.5H346.383ZM352.596 230.07C352.092 230.07 351.69 229.998 351.39 229.854C351.09 229.71 350.874 229.524 350.742 229.296C350.598 229.068 350.526 228.828 350.526 228.576C350.526 228.396 350.556 228.204 350.616 228C350.664 227.784 350.73 227.61 350.814 227.478L352.164 227.712C352.14 227.76 352.116 227.844 352.092 227.964C352.068 228.072 352.056 228.174 352.056 228.27C352.056 228.426 352.104 228.564 352.2 228.684C352.296 228.792 352.458 228.846 352.686 228.846H357.24V230.07H352.596ZM361.239 241.68C360.531 241.68 359.919 241.56 359.403 241.32C358.899 241.068 358.509 240.69 358.233 240.186C357.969 239.682 357.837 239.028 357.837 238.224V231.636H359.439V238.134C359.439 238.854 359.619 239.4 359.979 239.772C360.351 240.144 360.885 240.33 361.581 240.33C362.421 240.33 363.069 240.06 363.525 239.52C363.993 238.98 364.227 238.254 364.227 237.342V231.636H365.829V241.5H364.497L364.425 240.042H364.335C364.119 240.522 363.741 240.918 363.201 241.23C362.673 241.53 362.019 241.68 361.239 241.68Z" fill="white"/>
</g>
</g>
<defs>
<filter id="filter0_d_151_4329" x="314.31" y="225.478" width="55.5195" height="22.2021" filterUnits="userSpaceOnUse" color-interpolation-filters="sRGB">
<feFlood flood-opacity="0" result="BackgroundImageFix"/>
<feColorMatrix in="SourceAlpha" type="matrix" values="0 0 0 0 0 0 0 0 0 0 0 0 0 0 0 0 0 0 127 0" result="hardAlpha"/>
<feOffset dy="2"/>
<feGaussianBlur stdDeviation="2"/>
<feComposite in2="hardAlpha" operator="out"/>
<feColorMatrix type="matrix" values="0 0 0 0 0 0 0 0 0 0 0 0 0 0 0 0 0 0 0.3 0"/>
<feBlend mode="normal" in2="BackgroundImageFix" result="effect1_dropShadow_151_4329"/>
<feBlend mode="normal" in="SourceGraphic" in2="effect1_dropShadow_151_4329" result="shape"/>
</filter>
<clipPath id="clip0_151_4329">
<rect width="30" height="30" fill="white" transform="translate(322 84.5)"/>
</clipPath>
<clipPath id="clip1_151_4329">
<rect width="143" height="46" fill="white" transform="translate(67.5 212)"/>
</clipPath>
<clipPath id="clip2_151_4329">
<rect width="24" height="24" fill="white" transform="translate(67.5 212)"/>
</clipPath>
</defs>
</svg>
