<svg width="460" height="347" viewBox="0 0 460 347" fill="none" xmlns="http://www.w3.org/2000/svg">
<rect width="460" height="346.11" rx="10" fill="#0D131C"/>
<rect x="53" y="75" width="172" height="49" rx="4" fill="#243541"/>
<path d="M107.982 93.148H109.944V98.566H116.676V93.148H118.638V106H116.676V100.24H109.944V106H107.982V93.148ZM122.335 92.968C122.713 92.968 123.037 93.076 123.289 93.328C123.541 93.562 123.667 93.868 123.667 94.246C123.667 94.624 123.523 94.93 123.271 95.182C123.019 95.416 122.695 95.542 122.335 95.542C121.957 95.542 121.651 95.416 121.399 95.182C121.147 94.93 121.021 94.606 121.021 94.246C121.021 93.868 121.147 93.562 121.399 93.328C121.651 93.076 121.957 92.968 122.335 92.968ZM121.381 96.694H123.289V106H121.381V96.694ZM128.698 93.688V96.694H130.822V98.278H128.698V103.678C128.698 103.93 128.752 104.11 128.86 104.236C128.968 104.344 129.13 104.416 129.364 104.416H130.588V106H129.058C128.266 106 127.672 105.784 127.312 105.37C126.952 104.974 126.79 104.416 126.79 103.678V98.278H125.062V96.694H126.79V94.48L128.698 93.688Z" fill="#CCD3E6"/>
<path d="M167.983 92.0455C169.774 92.617 170.82 94.4179 170.412 96.2015L170.324 96.5305L165.501 111.042C164.916 112.791 163.072 113.812 161.246 113.414L160.909 113.328L151.017 110.193C149.226 109.622 148.18 107.821 148.588 106.037L148.676 105.708L148.783 105.397L150.769 106.02L150.662 106.332C150.432 107.042 150.751 107.821 151.424 108.15L151.655 108.254L161.548 111.388C162.275 111.613 163.072 111.302 163.409 110.644L163.516 110.418L168.338 95.9071C168.568 95.1972 168.249 94.4179 167.576 94.0889L167.345 93.985L159.314 91.4395L159.952 89.5L167.983 92.0455Z" fill="#FD8B09"/>
<path d="M157.021 85.5H146.995C145.069 85.5 143.5 87.0678 143.5 88.9934V104.007C143.5 105.932 145.069 107.5 146.995 107.5H157.004C158.931 107.5 160.5 105.932 160.5 104.007V88.9934C160.517 87.0678 158.948 85.5 157.021 85.5ZM146.995 87.4938H157.004C157.84 87.4938 158.505 88.1584 158.505 88.9934V104.007C158.505 104.842 157.84 105.506 157.004 105.506H146.995C146.16 105.506 145.495 104.842 145.495 104.007V88.9934C145.495 88.1754 146.177 87.4938 146.995 87.4938Z" fill="#FD8B09"/>
<path d="M152.004 91.5C152.345 91.5 153.483 93.7019 154.507 94.8728C155.629 96.131 155.678 97.2494 155.255 98.0882C154.865 98.8921 153.548 98.0533 152.15 98.0882C150.687 98.1232 149.24 98.997 148.736 98.0882C148.248 97.2145 148.525 96.3407 149.484 94.8728C150.459 93.4223 151.662 91.5 152.004 91.5Z" fill="#FD8B09"/>
<path d="M152.465 98.21H152.975L153.2 99.59L153.845 100.055V100.415H151.655V100.04L152.285 99.575L152.465 98.21Z" fill="#353535"/>
<path d="M162.5 97.0582L165.2 95.5L166.5 97.9096L163.6 99.5L162.5 97.0582Z" fill="#FD8B09"/>
<rect x="235" y="75" width="172" height="49" rx="4" fill="#243541"/>
<path d="M282.001 92.896C283.495 92.896 284.665 93.202 285.511 93.85C286.411 94.516 286.915 95.542 287.041 96.946H285.097C284.917 96.118 284.593 95.506 284.089 95.146C283.585 94.768 282.865 94.588 281.893 94.588C281.047 94.588 280.399 94.714 279.949 94.966C279.391 95.254 279.121 95.722 279.121 96.37C279.121 96.946 279.427 97.396 280.075 97.738C280.363 97.9 281.101 98.17 282.307 98.53C284.035 99.07 285.169 99.484 285.673 99.79C286.771 100.456 287.329 101.374 287.329 102.562C287.329 103.714 286.879 104.614 285.979 105.28C285.079 105.928 283.819 106.252 282.199 106.252C280.633 106.252 279.409 105.928 278.527 105.316C277.465 104.56 276.889 103.372 276.781 101.752H278.725C278.869 102.76 279.229 103.498 279.805 103.93C280.327 104.326 281.119 104.524 282.199 104.524C283.171 104.524 283.945 104.344 284.521 104.02C285.097 103.696 285.385 103.246 285.385 102.67C285.385 101.95 284.971 101.392 284.161 100.978C283.873 100.834 283.027 100.546 281.605 100.114C280.021 99.61 279.049 99.268 278.653 99.052C277.663 98.458 277.177 97.594 277.177 96.478C277.177 95.344 277.645 94.462 278.599 93.814C279.499 93.202 280.633 92.896 282.001 92.896ZM291.802 93.688V96.694H293.926V98.278H291.802V103.678C291.802 103.93 291.856 104.11 291.964 104.236C292.072 104.344 292.234 104.416 292.468 104.416H293.692V106H292.162C291.37 106 290.776 105.784 290.416 105.37C290.056 104.974 289.894 104.416 289.894 103.678V98.278H288.166V96.694H289.894V94.48L291.802 93.688ZM299.656 96.442C301.024 96.442 302.032 96.784 302.68 97.468C303.238 98.062 303.526 98.926 303.526 100.06V106H301.762V104.686C301.402 105.154 300.952 105.532 300.412 105.802C299.8 106.09 299.08 106.252 298.252 106.252C297.28 106.252 296.524 106 295.984 105.514C295.39 105.028 295.102 104.398 295.102 103.624C295.102 102.58 295.516 101.77 296.344 101.212C297.1 100.672 298.18 100.402 299.548 100.366L301.636 100.312V99.934C301.636 98.638 300.934 97.99 299.53 97.99C298.936 97.99 298.45 98.098 298.09 98.314C297.658 98.566 297.388 98.944 297.28 99.466L295.39 99.304C295.588 98.296 296.092 97.54 296.884 97.072C297.568 96.64 298.504 96.442 299.656 96.442ZM301.636 101.698L299.674 101.752C297.928 101.788 297.064 102.4 297.064 103.552C297.064 103.912 297.208 104.2 297.514 104.434C297.802 104.668 298.198 104.794 298.684 104.794C299.494 104.794 300.178 104.542 300.754 104.056C301.33 103.57 301.636 102.958 301.636 102.238V101.698ZM310.426 96.442C312.73 96.442 313.9 97.702 313.9 100.258V106H311.992V100.42C311.992 98.836 311.254 98.044 309.814 98.044C309.274 98.044 308.788 98.224 308.392 98.62C307.96 99.052 307.69 99.646 307.618 100.402V106H305.71V96.694H307.618V97.846C307.978 97.378 308.392 97.036 308.86 96.802C309.328 96.55 309.85 96.442 310.426 96.442ZM322.777 92.896H324.685V106H322.903V104.884C322.255 105.784 321.283 106.252 320.023 106.252C318.655 106.252 317.575 105.766 316.801 104.794C316.081 103.894 315.721 102.724 315.721 101.302C315.721 99.934 316.063 98.8 316.783 97.9C317.539 96.928 318.601 96.442 319.933 96.442C321.067 96.442 322.021 96.982 322.777 98.08V92.896ZM320.365 97.99C319.429 97.99 318.727 98.296 318.277 98.944C317.881 99.484 317.683 100.276 317.683 101.302C317.683 102.328 317.863 103.12 318.241 103.696C318.673 104.362 319.375 104.704 320.311 104.704C321.139 104.704 321.769 104.362 322.237 103.714C322.633 103.12 322.831 102.364 322.831 101.428V101.266C322.831 100.258 322.579 99.448 322.111 98.836C321.643 98.26 321.067 97.99 320.365 97.99Z" fill="#CCD3E6"/>
<g clip-path="url(#clip0_14_3646)">
<path d="M363.847 98.3018C364.846 99.2773 364.846 100.47 363.999 101.753C363.999 101.753 358.523 111.034 356.461 112.244C354.477 113.694 352.087 114.485 349.632 114.5C345.958 114.5 342.7 112.197 341.56 108.793L341.558 108.784L341.549 108.758L341.481 108.55L337.494 95.8525C337.143 94.8535 337.667 93.7549 338.666 93.4004C339.668 93.0547 340.769 93.6201 341.124 94.5986L343.397 100.528C343.494 100.774 343.556 100.66 343.556 100.467L342.029 89.6592C341.842 88.6396 342.536 87.6055 343.582 87.4238C344.628 87.2393 345.633 87.9746 345.82 88.9941L347.534 98.2285C347.552 98.3867 347.675 98.3486 347.666 98.2109L347.704 86.375C347.704 85.3379 348.568 84.5 349.632 84.5C350.695 84.5 351.557 85.3408 351.557 86.375L352.093 98.123C352.113 98.4248 352.295 98.3867 352.374 98.1611L353.962 89.123C354.088 88.0947 355.049 87.3066 356.103 87.4268C357.155 87.5615 357.905 88.5195 357.782 89.5742L356.103 100.525C356.004 101.308 355.755 102.705 356.103 103.106C356.191 103.209 356.405 103.49 356.763 103.54C357.199 103.602 357.674 103.303 357.981 102.778C358.728 101.422 359.478 100.065 360.226 98.7061C361.011 97.6162 362.845 97.3262 363.847 98.3018Z" fill="#7B00FF"/>
</g>
<rect x="53.5" y="134.5" width="171" height="48" rx="3.5" fill="#243541"/>
<path d="M105.605 151.896C107.099 151.896 108.269 152.202 109.115 152.85C110.015 153.516 110.519 154.542 110.645 155.946H108.701C108.521 155.118 108.197 154.506 107.693 154.146C107.189 153.768 106.469 153.588 105.497 153.588C104.651 153.588 104.003 153.714 103.553 153.966C102.995 154.254 102.725 154.722 102.725 155.37C102.725 155.946 103.031 156.396 103.679 156.738C103.967 156.9 104.705 157.17 105.911 157.53C107.639 158.07 108.773 158.484 109.277 158.79C110.375 159.456 110.933 160.374 110.933 161.562C110.933 162.714 110.483 163.614 109.583 164.28C108.683 164.928 107.423 165.252 105.803 165.252C104.237 165.252 103.013 164.928 102.131 164.316C101.069 163.56 100.493 162.372 100.385 160.752H102.329C102.473 161.76 102.833 162.498 103.409 162.93C103.931 163.326 104.723 163.524 105.803 163.524C106.775 163.524 107.549 163.344 108.125 163.02C108.701 162.696 108.989 162.246 108.989 161.67C108.989 160.95 108.575 160.392 107.765 159.978C107.477 159.834 106.631 159.546 105.209 159.114C103.625 158.61 102.653 158.268 102.257 158.052C101.267 157.458 100.781 156.594 100.781 155.478C100.781 154.344 101.249 153.462 102.203 152.814C103.103 152.202 104.237 151.896 105.605 151.896ZM117.241 155.442C118.609 155.442 119.671 155.928 120.463 156.9C121.183 157.8 121.543 158.952 121.543 160.392C121.543 161.76 121.183 162.894 120.481 163.794C119.725 164.766 118.663 165.252 117.331 165.252C116.179 165.252 115.243 164.712 114.487 163.632V168.564H112.579V155.694H114.361V156.81C115.009 155.892 115.981 155.442 117.241 155.442ZM116.953 156.99C116.125 156.99 115.477 157.314 115.027 157.98C114.631 158.556 114.433 159.33 114.433 160.284V160.446C114.433 161.436 114.667 162.246 115.171 162.858C115.603 163.416 116.179 163.704 116.899 163.704C117.835 163.704 118.519 163.398 118.969 162.786C119.365 162.21 119.581 161.418 119.581 160.392C119.581 159.366 119.383 158.574 119.023 157.998C118.573 157.314 117.889 156.99 116.953 156.99ZM123.553 151.896H125.461V165H123.553V151.896ZM129.187 151.968C129.565 151.968 129.889 152.076 130.141 152.328C130.393 152.562 130.519 152.868 130.519 153.246C130.519 153.624 130.375 153.93 130.123 154.182C129.871 154.416 129.547 154.542 129.187 154.542C128.809 154.542 128.503 154.416 128.251 154.182C127.999 153.93 127.873 153.606 127.873 153.246C127.873 152.868 127.999 152.562 128.251 152.328C128.503 152.076 128.809 151.968 129.187 151.968ZM128.233 155.694H130.141V165H128.233V155.694ZM135.55 152.688V155.694H137.674V157.278H135.55V162.678C135.55 162.93 135.604 163.11 135.712 163.236C135.82 163.344 135.982 163.416 136.216 163.416H137.44V165H135.91C135.118 165 134.524 164.784 134.164 164.37C133.804 163.974 133.642 163.416 133.642 162.678V157.278H131.914V155.694H133.642V153.48L135.55 152.688Z" fill="#CCD3E6"/>
<rect x="149.487" y="149.347" width="11" height="15" rx="1" transform="rotate(-15 149.487 149.347)" fill="#687785"/>
<rect x="168.987" y="152.5" width="11" height="15" rx="1" transform="rotate(30 168.987 152.5)" fill="#687785"/>
<rect x="53.5" y="134.5" width="171" height="48" rx="3.5" stroke="#FF0000"/>
<rect x="235" y="134" width="172" height="49" rx="4" fill="#243541"/>
<path d="M272.535 152.148H277.215C279.285 152.148 280.851 152.724 281.931 153.894C282.939 154.974 283.443 156.54 283.443 158.574C283.443 160.59 282.921 162.156 281.895 163.272C280.815 164.424 279.249 165 277.179 165H272.535V152.148ZM274.497 153.822V163.326H276.819C278.439 163.326 279.645 162.93 280.401 162.156C281.139 161.382 281.517 160.194 281.517 158.574C281.517 156.918 281.139 155.73 280.419 154.974C279.663 154.2 278.475 153.822 276.855 153.822H274.497ZM289.542 155.442C290.946 155.442 292.08 155.91 292.926 156.846C293.754 157.764 294.186 158.934 294.186 160.356C294.186 161.76 293.772 162.93 292.944 163.83C292.08 164.766 290.946 165.252 289.542 165.252C288.138 165.252 287.004 164.766 286.14 163.83C285.312 162.93 284.898 161.76 284.898 160.356C284.898 158.934 285.312 157.764 286.158 156.846C287.004 155.91 288.138 155.442 289.542 155.442ZM289.542 157.008C288.66 157.008 287.976 157.35 287.49 158.052C287.058 158.646 286.86 159.42 286.86 160.356C286.86 161.292 287.058 162.048 287.49 162.642C287.976 163.326 288.66 163.686 289.542 163.686C290.424 163.686 291.108 163.326 291.612 162.642C292.044 162.03 292.26 161.274 292.26 160.356C292.26 159.42 292.044 158.646 291.612 158.052C291.108 157.35 290.424 157.008 289.542 157.008ZM295.998 155.694H297.906V161.364C297.906 162.156 298.068 162.732 298.41 163.092C298.734 163.452 299.274 163.65 300.012 163.65C300.516 163.65 300.966 163.434 301.398 163.038C301.83 162.624 302.136 162.066 302.298 161.382V155.694H304.206V165H302.298V163.74C301.506 164.748 300.534 165.252 299.364 165.252C297.114 165.252 295.998 163.992 295.998 161.49V155.694ZM306.387 151.896H308.295V157.08C309.051 155.982 309.987 155.442 311.139 155.442C312.471 155.442 313.515 155.928 314.289 156.9C314.991 157.8 315.351 158.934 315.351 160.302C315.351 161.724 314.991 162.894 314.271 163.794C313.479 164.766 312.417 165.252 311.049 165.252C309.771 165.252 308.817 164.784 308.169 163.884V165H306.387V151.896ZM310.707 156.99C309.987 156.99 309.411 157.26 308.979 157.836C308.475 158.448 308.241 159.258 308.241 160.266V160.428C308.241 161.364 308.439 162.12 308.835 162.714C309.285 163.362 309.933 163.704 310.761 163.704C311.697 163.704 312.381 163.362 312.831 162.696C313.191 162.12 313.389 161.328 313.389 160.302C313.389 159.276 313.191 158.484 312.795 157.944C312.345 157.296 311.643 156.99 310.707 156.99ZM317.36 151.896H319.268V165H317.36V151.896ZM325.586 155.442C327.098 155.442 328.268 155.946 329.06 156.99C329.78 157.926 330.158 159.222 330.176 160.878H323.12C323.192 161.778 323.426 162.48 323.858 162.966C324.29 163.434 324.884 163.686 325.64 163.686C326.306 163.686 326.846 163.524 327.26 163.218C327.584 162.966 327.854 162.552 328.106 162.012H330.014C329.798 162.876 329.384 163.614 328.736 164.19C327.926 164.892 326.9 165.252 325.658 165.252C324.29 165.252 323.192 164.82 322.4 163.974C321.536 163.074 321.104 161.868 321.104 160.338C321.104 158.952 321.5 157.8 322.328 156.864C323.12 155.91 324.218 155.442 325.586 155.442ZM325.64 157.008C324.92 157.008 324.362 157.206 323.93 157.638C323.534 158.052 323.264 158.646 323.156 159.438H328.178C327.998 157.818 327.152 157.008 325.64 157.008Z" fill="#CCD3E6"/>
<circle cx="360" cy="162.5" r="8" fill="#687785"/>
<path fill-rule="evenodd" clip-rule="evenodd" d="M359.357 153.032C354.377 153.437 350.462 157.608 350.462 162.692C350.462 162.806 350.464 162.92 350.467 163.033C346.792 162.382 344 159.171 344 155.308C344 150.974 347.513 147.462 351.846 147.462C355.388 147.462 358.382 149.809 359.357 153.032Z" fill="#687785"/>
<rect x="53.5" y="198.5" width="213" height="73" rx="9.5" fill="#161F2C"/>
<g clip-path="url(#clip1_14_3646)">
<g clip-path="url(#clip2_14_3646)">
<path d="M91.1393 226.903C89.5366 233.331 83.0254 237.244 76.596 235.641C70.1693 234.038 66.257 227.526 67.8604 221.098C69.4623 214.669 75.9735 210.756 82.4009 212.359C88.8298 213.962 92.7419 220.474 91.1391 226.903L91.1392 226.903H91.1393Z" fill="#F7931A"/>
<path d="M84.791 222.29C85.0299 220.693 83.8141 219.835 82.1516 219.262L82.6909 217.099L81.3741 216.771L80.8491 218.877C80.5029 218.791 80.1474 218.71 79.7941 218.629L80.3229 216.509L79.0069 216.181L78.4673 218.343C78.1808 218.278 77.8994 218.213 77.6265 218.145L77.628 218.139L75.8121 217.685L75.4618 219.092C75.4618 219.092 76.4388 219.316 76.4182 219.329C76.9514 219.462 77.0478 219.815 77.0318 220.095L76.4175 222.56C76.4542 222.569 76.5018 222.582 76.5544 222.604C76.5104 222.593 76.4637 222.581 76.4152 222.569L75.5541 226.021C75.4889 226.183 75.3235 226.426 74.9507 226.334C74.9639 226.353 73.9936 226.095 73.9936 226.095L73.3398 227.603L75.0534 228.03C75.3722 228.11 75.6846 228.193 75.9923 228.272L75.4474 230.46L76.7627 230.788L77.3023 228.623C77.6616 228.721 78.0103 228.811 78.3517 228.896L77.8139 231.05L79.1307 231.378L79.6756 229.195C81.921 229.619 83.6094 229.448 84.32 227.417C84.8927 225.782 84.2915 224.839 83.1102 224.224C83.9706 224.025 84.6187 223.459 84.7915 222.29L84.7911 222.29L84.791 222.29ZM81.7825 226.509C81.3755 228.144 78.6224 227.26 77.7298 227.039L78.4529 224.14C79.3454 224.363 82.2078 224.804 81.7825 226.509H81.7825ZM82.1897 222.267C81.8185 223.754 79.527 222.998 78.7837 222.813L79.4393 220.184C80.1826 220.369 82.5764 220.715 82.1898 222.267H82.1897Z" fill="white"/>
</g>
<path d="M96.7148 225.505C96.7148 223.056 97.1543 221.342 98.0332 220.363C98.918 219.385 100.263 218.896 102.067 218.896C102.935 218.896 103.646 219.004 104.203 219.221C104.76 219.432 105.214 219.71 105.565 220.056C105.917 220.396 106.192 220.756 106.392 221.137C106.597 221.512 106.761 221.951 106.884 222.455C107.124 223.416 107.244 224.418 107.244 225.461C107.244 227.799 106.849 229.51 106.058 230.594C105.267 231.678 103.904 232.22 101.971 232.22C100.887 232.22 100.011 232.047 99.3428 231.701C98.6748 231.355 98.127 230.849 97.6992 230.181C97.3887 229.706 97.1455 229.059 96.9697 228.238C96.7998 227.412 96.7148 226.501 96.7148 225.505ZM100.266 225.514C100.266 227.154 100.409 228.276 100.696 228.88C100.989 229.478 101.411 229.776 101.962 229.776C102.325 229.776 102.639 229.65 102.902 229.398C103.172 229.141 103.368 228.736 103.491 228.186C103.62 227.635 103.685 226.776 103.685 225.61C103.685 223.899 103.538 222.751 103.245 222.165C102.958 221.573 102.524 221.277 101.944 221.277C101.353 221.277 100.925 221.579 100.661 222.183C100.397 222.78 100.266 223.891 100.266 225.514ZM109.072 228.414H112.896V232H109.072V228.414ZM114.715 225.505C114.715 223.056 115.154 221.342 116.033 220.363C116.918 219.385 118.263 218.896 120.067 218.896C120.935 218.896 121.646 219.004 122.203 219.221C122.76 219.432 123.214 219.71 123.565 220.056C123.917 220.396 124.192 220.756 124.392 221.137C124.597 221.512 124.761 221.951 124.884 222.455C125.124 223.416 125.244 224.418 125.244 225.461C125.244 227.799 124.849 229.51 124.058 230.594C123.267 231.678 121.904 232.22 119.971 232.22C118.887 232.22 118.011 232.047 117.343 231.701C116.675 231.355 116.127 230.849 115.699 230.181C115.389 229.706 115.146 229.059 114.97 228.238C114.8 227.412 114.715 226.501 114.715 225.505ZM118.266 225.514C118.266 227.154 118.409 228.276 118.696 228.88C118.989 229.478 119.411 229.776 119.962 229.776C120.325 229.776 120.639 229.65 120.902 229.398C121.172 229.141 121.368 228.736 121.491 228.186C121.62 227.635 121.685 226.776 121.685 225.61C121.685 223.899 121.538 222.751 121.245 222.165C120.958 221.573 120.524 221.277 119.944 221.277C119.353 221.277 118.925 221.579 118.661 222.183C118.397 222.78 118.266 223.891 118.266 225.514ZM126.721 225.505C126.721 223.056 127.16 221.342 128.039 220.363C128.924 219.385 130.269 218.896 132.073 218.896C132.94 218.896 133.652 219.004 134.209 219.221C134.766 219.432 135.22 219.71 135.571 220.056C135.923 220.396 136.198 220.756 136.397 221.137C136.603 221.512 136.767 221.951 136.89 222.455C137.13 223.416 137.25 224.418 137.25 225.461C137.25 227.799 136.854 229.51 136.063 230.594C135.272 231.678 133.91 232.22 131.977 232.22C130.893 232.22 130.017 232.047 129.349 231.701C128.681 231.355 128.133 230.849 127.705 230.181C127.395 229.706 127.151 229.059 126.976 228.238C126.806 227.412 126.721 226.501 126.721 225.505ZM130.271 225.514C130.271 227.154 130.415 228.276 130.702 228.88C130.995 229.478 131.417 229.776 131.968 229.776C132.331 229.776 132.645 229.65 132.908 229.398C133.178 229.141 133.374 228.736 133.497 228.186C133.626 227.635 133.69 226.776 133.69 225.61C133.69 223.899 133.544 222.751 133.251 222.165C132.964 221.573 132.53 221.277 131.95 221.277C131.358 221.277 130.931 221.579 130.667 222.183C130.403 222.78 130.271 223.891 130.271 225.514ZM138.727 225.505C138.727 223.056 139.166 221.342 140.045 220.363C140.93 219.385 142.274 218.896 144.079 218.896C144.946 218.896 145.658 219.004 146.215 219.221C146.771 219.432 147.226 219.71 147.577 220.056C147.929 220.396 148.204 220.756 148.403 221.137C148.608 221.512 148.772 221.951 148.896 222.455C149.136 223.416 149.256 224.418 149.256 225.461C149.256 227.799 148.86 229.51 148.069 230.594C147.278 231.678 145.916 232.22 143.982 232.22C142.898 232.22 142.022 232.047 141.354 231.701C140.687 231.355 140.139 230.849 139.711 230.181C139.4 229.706 139.157 229.059 138.981 228.238C138.812 227.412 138.727 226.501 138.727 225.505ZM142.277 225.514C142.277 227.154 142.421 228.276 142.708 228.88C143.001 229.478 143.423 229.776 143.974 229.776C144.337 229.776 144.65 229.65 144.914 229.398C145.184 229.141 145.38 228.736 145.503 228.186C145.632 227.635 145.696 226.776 145.696 225.61C145.696 223.899 145.55 222.751 145.257 222.165C144.97 221.573 144.536 221.277 143.956 221.277C143.364 221.277 142.937 221.579 142.673 222.183C142.409 222.78 142.277 223.891 142.277 225.514ZM150.732 225.505C150.732 223.056 151.172 221.342 152.051 220.363C152.936 219.385 154.28 218.896 156.085 218.896C156.952 218.896 157.664 219.004 158.221 219.221C158.777 219.432 159.231 219.71 159.583 220.056C159.935 220.396 160.21 220.756 160.409 221.137C160.614 221.512 160.778 221.951 160.901 222.455C161.142 223.416 161.262 224.418 161.262 225.461C161.262 227.799 160.866 229.51 160.075 230.594C159.284 231.678 157.922 232.22 155.988 232.22C154.904 232.22 154.028 232.047 153.36 231.701C152.692 231.355 152.145 230.849 151.717 230.181C151.406 229.706 151.163 229.059 150.987 228.238C150.817 227.412 150.732 226.501 150.732 225.505ZM154.283 225.514C154.283 227.154 154.427 228.276 154.714 228.88C155.007 229.478 155.429 229.776 155.979 229.776C156.343 229.776 156.656 229.65 156.92 229.398C157.189 229.141 157.386 228.736 157.509 228.186C157.638 227.635 157.702 226.776 157.702 225.61C157.702 223.899 157.556 222.751 157.263 222.165C156.976 221.573 156.542 221.277 155.962 221.277C155.37 221.277 154.942 221.579 154.679 222.183C154.415 222.78 154.283 223.891 154.283 225.514ZM170.851 218.896V232H167.229V223.413C166.644 223.858 166.075 224.219 165.524 224.494C164.979 224.77 164.294 225.033 163.468 225.285V222.35C164.687 221.957 165.633 221.485 166.307 220.935C166.98 220.384 167.508 219.704 167.889 218.896H170.851ZM174.744 225.505C174.744 223.056 175.184 221.342 176.062 220.363C176.947 219.385 178.292 218.896 180.097 218.896C180.964 218.896 181.676 219.004 182.232 219.221C182.789 219.432 183.243 219.71 183.595 220.056C183.946 220.396 184.222 220.756 184.421 221.137C184.626 221.512 184.79 221.951 184.913 222.455C185.153 223.416 185.273 224.418 185.273 225.461C185.273 227.799 184.878 229.51 184.087 230.594C183.296 231.678 181.934 232.22 180 232.22C178.916 232.22 178.04 232.047 177.372 231.701C176.704 231.355 176.156 230.849 175.729 230.181C175.418 229.706 175.175 229.059 174.999 228.238C174.829 227.412 174.744 226.501 174.744 225.505ZM178.295 225.514C178.295 227.154 178.438 228.276 178.726 228.88C179.019 229.478 179.44 229.776 179.991 229.776C180.354 229.776 180.668 229.65 180.932 229.398C181.201 229.141 181.397 228.736 181.521 228.186C181.649 227.635 181.714 226.776 181.714 225.61C181.714 223.899 181.567 222.751 181.274 222.165C180.987 221.573 180.554 221.277 179.974 221.277C179.382 221.277 178.954 221.579 178.69 222.183C178.427 222.78 178.295 223.891 178.295 225.514ZM186.75 225.505C186.75 223.056 187.189 221.342 188.068 220.363C188.953 219.385 190.298 218.896 192.103 218.896C192.97 218.896 193.682 219.004 194.238 219.221C194.795 219.432 195.249 219.71 195.601 220.056C195.952 220.396 196.228 220.756 196.427 221.137C196.632 221.512 196.796 221.951 196.919 222.455C197.159 223.416 197.279 224.418 197.279 225.461C197.279 227.799 196.884 229.51 196.093 230.594C195.302 231.678 193.939 232.22 192.006 232.22C190.922 232.22 190.046 232.047 189.378 231.701C188.71 231.355 188.162 230.849 187.734 230.181C187.424 229.706 187.181 229.059 187.005 228.238C186.835 227.412 186.75 226.501 186.75 225.505ZM190.301 225.514C190.301 227.154 190.444 228.276 190.731 228.88C191.024 229.478 191.446 229.776 191.997 229.776C192.36 229.776 192.674 229.65 192.938 229.398C193.207 229.141 193.403 228.736 193.526 228.186C193.655 227.635 193.72 226.776 193.72 225.61C193.72 223.899 193.573 222.751 193.28 222.165C192.993 221.573 192.56 221.277 191.979 221.277C191.388 221.277 190.96 221.579 190.696 222.183C190.433 222.78 190.301 223.891 190.301 225.514ZM198.756 225.505C198.756 223.056 199.195 221.342 200.074 220.363C200.959 219.385 202.304 218.896 204.108 218.896C204.976 218.896 205.688 219.004 206.244 219.221C206.801 219.432 207.255 219.71 207.606 220.056C207.958 220.396 208.233 220.756 208.433 221.137C208.638 221.512 208.802 221.951 208.925 222.455C209.165 223.416 209.285 224.418 209.285 225.461C209.285 227.799 208.89 229.51 208.099 230.594C207.308 231.678 205.945 232.22 204.012 232.22C202.928 232.22 202.052 232.047 201.384 231.701C200.716 231.355 200.168 230.849 199.74 230.181C199.43 229.706 199.187 229.059 199.011 228.238C198.841 227.412 198.756 226.501 198.756 225.505ZM202.307 225.514C202.307 227.154 202.45 228.276 202.737 228.88C203.03 229.478 203.452 229.776 204.003 229.776C204.366 229.776 204.68 229.65 204.943 229.398C205.213 229.141 205.409 228.736 205.532 228.186C205.661 227.635 205.726 226.776 205.726 225.61C205.726 223.899 205.579 222.751 205.286 222.165C204.999 221.573 204.565 221.277 203.985 221.277C203.394 221.277 202.966 221.579 202.702 222.183C202.438 222.78 202.307 223.891 202.307 225.514Z" fill="white"/>
<path d="M99.2461 253.411V250.342C98.2891 250.068 97.5859 249.656 97.1367 249.104C96.6924 248.547 96.4702 247.874 96.4702 247.083C96.4702 246.282 96.7217 245.61 97.2246 245.068C97.7324 244.521 98.4062 244.207 99.2461 244.124V243.398H100.308V244.124C101.084 244.216 101.702 244.482 102.161 244.922C102.62 245.356 102.913 245.94 103.04 246.672L101.187 246.914C101.075 246.338 100.782 245.947 100.308 245.742V248.606C101.48 248.923 102.278 249.336 102.703 249.844C103.128 250.347 103.34 250.994 103.34 251.785C103.34 252.668 103.072 253.413 102.535 254.019C102.002 254.624 101.26 254.995 100.308 255.132V256.501H99.2461V255.168C98.4014 255.066 97.7153 254.751 97.188 254.224C96.6606 253.696 96.3237 252.952 96.1772 251.99L98.0889 251.785C98.167 252.175 98.3135 252.512 98.5283 252.795C98.7432 253.079 98.9824 253.284 99.2461 253.411ZM99.2461 245.72C98.958 245.818 98.7285 245.984 98.5576 246.218C98.3867 246.453 98.3013 246.711 98.3013 246.995C98.3013 247.253 98.3794 247.495 98.5356 247.72C98.6919 247.939 98.9287 248.118 99.2461 248.254V245.72ZM100.308 253.513C100.674 253.445 100.972 253.276 101.202 253.008C101.431 252.734 101.546 252.415 101.546 252.048C101.546 251.721 101.448 251.44 101.253 251.206C101.062 250.967 100.748 250.784 100.308 250.657V253.513ZM108.687 255V252.839H104.292V251.038L108.951 244.219H110.679V251.03H112.012V252.839H110.679V255H108.687ZM108.687 251.03V247.361L106.219 251.03H108.687ZM113.44 255V252.942H115.499V255H113.44ZM121.211 255V252.839H116.817V251.038L121.475 244.219H123.204V251.03H124.537V252.839H123.204V255H121.211ZM121.211 251.03V247.361L118.743 251.03H121.211ZM129.004 244.219C130.044 244.219 130.857 244.59 131.443 245.332C132.142 246.211 132.491 247.668 132.491 249.705C132.491 251.736 132.139 253.196 131.436 254.084C130.855 254.817 130.044 255.183 129.004 255.183C127.959 255.183 127.117 254.783 126.478 253.982C125.838 253.176 125.518 251.743 125.518 249.683C125.518 247.661 125.87 246.206 126.573 245.317C127.154 244.585 127.964 244.219 129.004 244.219ZM129.004 245.925C128.755 245.925 128.533 246.006 128.338 246.167C128.143 246.323 127.991 246.606 127.884 247.017C127.742 247.549 127.671 248.445 127.671 249.705C127.671 250.964 127.735 251.831 127.862 252.305C127.989 252.773 128.147 253.086 128.338 253.242C128.533 253.398 128.755 253.477 129.004 253.477C129.253 253.477 129.476 253.398 129.671 253.242C129.866 253.081 130.018 252.795 130.125 252.385C130.267 251.858 130.337 250.964 130.337 249.705C130.337 248.445 130.274 247.581 130.147 247.112C130.02 246.638 129.859 246.323 129.664 246.167C129.473 246.006 129.253 245.925 129.004 245.925ZM137.354 244.219C138.394 244.219 139.207 244.59 139.793 245.332C140.491 246.211 140.84 247.668 140.84 249.705C140.84 251.736 140.489 253.196 139.786 254.084C139.205 254.817 138.394 255.183 137.354 255.183C136.309 255.183 135.467 254.783 134.827 253.982C134.188 253.176 133.868 251.743 133.868 249.683C133.868 247.661 134.219 246.206 134.922 245.317C135.503 244.585 136.314 244.219 137.354 244.219ZM137.354 245.925C137.105 245.925 136.883 246.006 136.688 246.167C136.492 246.323 136.341 246.606 136.233 247.017C136.092 247.549 136.021 248.445 136.021 249.705C136.021 250.964 136.084 251.831 136.211 252.305C136.338 252.773 136.497 253.086 136.688 253.242C136.883 253.398 137.105 253.477 137.354 253.477C137.603 253.477 137.825 253.398 138.021 253.242C138.216 253.081 138.367 252.795 138.475 252.385C138.616 251.858 138.687 250.964 138.687 249.705C138.687 248.445 138.624 247.581 138.497 247.112C138.37 246.638 138.208 246.323 138.013 246.167C137.823 246.006 137.603 245.925 137.354 245.925ZM145.704 244.219C146.744 244.219 147.557 244.59 148.143 245.332C148.841 246.211 149.19 247.668 149.19 249.705C149.19 251.736 148.838 253.196 148.135 254.084C147.554 254.817 146.744 255.183 145.704 255.183C144.659 255.183 143.816 254.783 143.177 253.982C142.537 253.176 142.217 251.743 142.217 249.683C142.217 247.661 142.569 246.206 143.272 245.317C143.853 244.585 144.664 244.219 145.704 244.219ZM145.704 245.925C145.455 245.925 145.232 246.006 145.037 246.167C144.842 246.323 144.69 246.606 144.583 247.017C144.441 247.549 144.371 248.445 144.371 249.705C144.371 250.964 144.434 251.831 144.561 252.305C144.688 252.773 144.847 253.086 145.037 253.242C145.232 253.398 145.455 253.477 145.704 253.477C145.953 253.477 146.175 253.398 146.37 253.242C146.565 253.081 146.717 252.795 146.824 252.385C146.966 251.858 147.037 250.964 147.037 249.705C147.037 248.445 146.973 247.581 146.846 247.112C146.719 246.638 146.558 246.323 146.363 246.167C146.172 246.006 145.953 245.925 145.704 245.925ZM154.053 244.219C155.093 244.219 155.906 244.59 156.492 245.332C157.19 246.211 157.54 247.668 157.54 249.705C157.54 251.736 157.188 253.196 156.485 254.084C155.904 254.817 155.093 255.183 154.053 255.183C153.008 255.183 152.166 254.783 151.526 253.982C150.887 253.176 150.567 251.743 150.567 249.683C150.567 247.661 150.918 246.206 151.622 245.317C152.203 244.585 153.013 244.219 154.053 244.219ZM154.053 245.925C153.804 245.925 153.582 246.006 153.387 246.167C153.191 246.323 153.04 246.606 152.933 247.017C152.791 247.549 152.72 248.445 152.72 249.705C152.72 250.964 152.784 251.831 152.911 252.305C153.038 252.773 153.196 253.086 153.387 253.242C153.582 253.398 153.804 253.477 154.053 253.477C154.302 253.477 154.524 253.398 154.72 253.242C154.915 253.081 155.066 252.795 155.174 252.385C155.315 251.858 155.386 250.964 155.386 249.705C155.386 248.445 155.323 247.581 155.196 247.112C155.069 246.638 154.908 246.323 154.712 246.167C154.522 246.006 154.302 245.925 154.053 245.925ZM162.403 244.219C163.443 244.219 164.256 244.59 164.842 245.332C165.54 246.211 165.889 247.668 165.889 249.705C165.889 251.736 165.538 253.196 164.834 254.084C164.253 254.817 163.443 255.183 162.403 255.183C161.358 255.183 160.516 254.783 159.876 253.982C159.236 253.176 158.917 251.743 158.917 249.683C158.917 247.661 159.268 246.206 159.971 245.317C160.552 244.585 161.363 244.219 162.403 244.219ZM162.403 245.925C162.154 245.925 161.932 246.006 161.736 246.167C161.541 246.323 161.39 246.606 161.282 247.017C161.141 247.549 161.07 248.445 161.07 249.705C161.07 250.964 161.133 251.831 161.26 252.305C161.387 252.773 161.546 253.086 161.736 253.242C161.932 253.398 162.154 253.477 162.403 253.477C162.652 253.477 162.874 253.398 163.069 253.242C163.265 253.081 163.416 252.795 163.523 252.385C163.665 251.858 163.736 250.964 163.736 249.705C163.736 248.445 163.672 247.581 163.545 247.112C163.418 246.638 163.257 246.323 163.062 246.167C162.872 246.006 162.652 245.925 162.403 245.925ZM170.752 244.219C171.792 244.219 172.605 244.59 173.191 245.332C173.89 246.211 174.239 247.668 174.239 249.705C174.239 251.736 173.887 253.196 173.184 254.084C172.603 254.817 171.792 255.183 170.752 255.183C169.708 255.183 168.865 254.783 168.226 253.982C167.586 253.176 167.266 251.743 167.266 249.683C167.266 247.661 167.618 246.206 168.321 245.317C168.902 244.585 169.712 244.219 170.752 244.219ZM170.752 245.925C170.503 245.925 170.281 246.006 170.086 246.167C169.891 246.323 169.739 246.606 169.632 247.017C169.49 247.549 169.419 248.445 169.419 249.705C169.419 250.964 169.483 251.831 169.61 252.305C169.737 252.773 169.896 253.086 170.086 253.242C170.281 253.398 170.503 253.477 170.752 253.477C171.001 253.477 171.224 253.398 171.419 253.242C171.614 253.081 171.766 252.795 171.873 252.385C172.015 251.858 172.085 250.964 172.085 249.705C172.085 248.445 172.022 247.581 171.895 247.112C171.768 246.638 171.607 246.323 171.412 246.167C171.221 246.006 171.001 245.925 170.752 245.925ZM179.102 244.219C180.142 244.219 180.955 244.59 181.541 245.332C182.239 246.211 182.588 247.668 182.588 249.705C182.588 251.736 182.237 253.196 181.534 254.084C180.953 254.817 180.142 255.183 179.102 255.183C178.057 255.183 177.215 254.783 176.575 253.982C175.936 253.176 175.616 251.743 175.616 249.683C175.616 247.661 175.967 246.206 176.67 245.317C177.251 244.585 178.062 244.219 179.102 244.219ZM179.102 245.925C178.853 245.925 178.631 246.006 178.436 246.167C178.24 246.323 178.089 246.606 177.981 247.017C177.84 247.549 177.769 248.445 177.769 249.705C177.769 250.964 177.833 251.831 177.959 252.305C178.086 252.773 178.245 253.086 178.436 253.242C178.631 253.398 178.853 253.477 179.102 253.477C179.351 253.477 179.573 253.398 179.769 253.242C179.964 253.081 180.115 252.795 180.223 252.385C180.364 251.858 180.435 250.964 180.435 249.705C180.435 248.445 180.372 247.581 180.245 247.112C180.118 246.638 179.957 246.323 179.761 246.167C179.571 246.006 179.351 245.925 179.102 245.925Z" fill="#7C8499"/>
</g>
<rect x="221" y="208" width="36" height="23" rx="6" fill="#383C45"/>
<path d="M232.215 215.218H233.281V224.5H231.864V216.921C231.305 217.454 230.59 217.844 229.732 218.091V216.687C230.148 216.583 230.577 216.401 231.045 216.141C231.513 215.855 231.903 215.556 232.215 215.218ZM239.433 213.84H240.629L236.092 225.8H234.883L239.433 213.84ZM245.049 215.036C245.933 215.036 246.674 215.283 247.246 215.803C247.805 216.323 248.091 216.986 248.091 217.805C248.091 218.611 247.779 219.339 247.181 220.002C246.817 220.379 246.18 220.873 245.257 221.497C244.256 222.16 243.658 222.745 243.463 223.252H248.104V224.5H241.708C241.708 223.577 242.007 222.771 242.631 222.069C242.969 221.666 243.671 221.107 244.724 220.379C245.348 219.937 245.79 219.586 246.05 219.313C246.466 218.845 246.687 218.338 246.687 217.792C246.687 217.272 246.544 216.882 246.258 216.622C245.972 216.362 245.543 216.232 244.997 216.232C244.412 216.232 243.97 216.427 243.671 216.83C243.359 217.22 243.203 217.779 243.177 218.533H241.76C241.773 217.493 242.072 216.661 242.657 216.037C243.255 215.361 244.061 215.036 245.049 215.036Z" fill="#7C8499"/>
<rect x="221" y="239" width="36" height="23" rx="6" fill="#383C45"/>
<path d="M235.699 246.036C236.583 246.036 237.324 246.283 237.896 246.803C238.455 247.323 238.741 247.986 238.741 248.805C238.741 249.611 238.429 250.339 237.831 251.002C237.467 251.379 236.83 251.873 235.907 252.497C234.906 253.16 234.308 253.745 234.113 254.252H238.754V255.5H232.358C232.358 254.577 232.657 253.771 233.281 253.069C233.619 252.666 234.321 252.107 235.374 251.379C235.998 250.937 236.44 250.586 236.7 250.313C237.116 249.845 237.337 249.338 237.337 248.792C237.337 248.272 237.194 247.882 236.908 247.622C236.622 247.362 236.193 247.232 235.647 247.232C235.062 247.232 234.62 247.427 234.321 247.83C234.009 248.22 233.853 248.779 233.827 249.533H232.41C232.423 248.493 232.722 247.661 233.307 247.037C233.905 246.361 234.711 246.036 235.699 246.036ZM239.815 248.779H241.427L242.909 250.911L244.378 248.779H245.99L243.663 251.925L246.276 255.5H244.664L242.909 252.939L241.141 255.5H239.516L242.142 251.925L239.815 248.779Z" fill="#7C8499"/>
<rect x="53.5" y="198.5" width="213" height="73" rx="9.5" stroke="#55657E"/>
<g opacity="0.5">
<rect x="277" y="198" width="130" height="74" rx="10" fill="#F04E23"/>
<g filter="url(#filter0_d_14_3646)">
<path d="M325.77 228.648H331.638C332.898 228.648 333.87 228.936 334.59 229.548C335.274 230.124 335.616 230.898 335.616 231.888C335.616 232.608 335.436 233.22 335.076 233.724C334.716 234.192 334.23 234.552 333.582 234.786C334.428 234.948 335.076 235.29 335.508 235.812C335.94 236.334 336.156 237.036 336.156 237.9C336.156 239.196 335.706 240.132 334.824 240.744C334.068 241.248 333.006 241.5 331.638 241.5H325.77V228.648ZM327.732 230.268V234.102H331.116C332.016 234.102 332.664 233.94 333.06 233.634C333.456 233.31 333.654 232.806 333.654 232.122C333.654 231.474 333.456 231.006 333.06 230.718C332.664 230.412 332.016 230.268 331.152 230.268H327.732ZM327.732 235.704V239.88H331.368C332.196 239.88 332.844 239.736 333.312 239.484C333.888 239.142 334.194 238.602 334.194 237.864C334.194 237.108 333.96 236.55 333.51 236.208C333.06 235.866 332.358 235.704 331.422 235.704H327.732ZM338.127 228.648H347.361V230.322H340.089V234.066H346.929V235.74H340.089V239.826H347.667V241.5H338.127V228.648ZM348.668 228.648H359.198V230.322H354.914V241.5H352.97V230.322H348.668V228.648Z" fill="white"/>
</g>
</g>
<defs>
<filter id="filter0_d_14_3646" x="321.77" y="226.648" width="41.4287" height="20.852" filterUnits="userSpaceOnUse" color-interpolation-filters="sRGB">
<feFlood flood-opacity="0" result="BackgroundImageFix"/>
<feColorMatrix in="SourceAlpha" type="matrix" values="0 0 0 0 0 0 0 0 0 0 0 0 0 0 0 0 0 0 127 0" result="hardAlpha"/>
<feOffset dy="2"/>
<feGaussianBlur stdDeviation="2"/>
<feComposite in2="hardAlpha" operator="out"/>
<feColorMatrix type="matrix" values="0 0 0 0 0 0 0 0 0 0 0 0 0 0 0 0 0 0 0.3 0"/>
<feBlend mode="normal" in2="BackgroundImageFix" result="effect1_dropShadow_14_3646"/>
<feBlend mode="normal" in="SourceGraphic" in2="effect1_dropShadow_14_3646" result="shape"/>
</filter>
<clipPath id="clip0_14_3646">
<rect width="30" height="30" fill="white" transform="translate(336 84.5)"/>
</clipPath>
<clipPath id="clip1_14_3646">
<rect width="143" height="46" fill="white" transform="translate(67.5 212)"/>
</clipPath>
<clipPath id="clip2_14_3646">
<rect width="24" height="24" fill="white" transform="translate(67.5 212)"/>
</clipPath>
</defs>
</svg>
