<svg width="460" height="347" viewBox="0 0 460 347" fill="none" xmlns="http://www.w3.org/2000/svg">
<rect width="460" height="346.11" rx="10" fill="white"/>
<rect x="53" y="75" width="172" height="49" rx="4" fill="#F9F9F9"/>
<path d="M118.228 106.18C117.22 106.18 116.44 105.952 115.888 105.496C115.336 105.028 114.952 104.398 114.736 103.606C114.52 102.802 114.412 101.89 114.412 100.87C114.412 99.694 114.52 98.746 114.736 98.026C114.964 97.306 115.294 96.784 115.726 96.46C116.158 96.124 116.686 95.956 117.31 95.956C117.73 95.956 118.084 96.028 118.372 96.172C118.672 96.316 118.882 96.556 119.002 96.892H119.074C119.194 96.544 119.41 96.304 119.722 96.172C120.034 96.028 120.4 95.956 120.82 95.956C121.6 95.956 122.2 96.166 122.62 96.586C123.052 96.994 123.268 97.624 123.268 98.476V106H121.666V98.494C121.666 98.026 121.564 97.708 121.36 97.54C121.156 97.372 120.898 97.288 120.586 97.288C120.238 97.288 119.98 97.372 119.812 97.54C119.656 97.708 119.56 97.984 119.524 98.368H118.516C118.468 97.948 118.342 97.666 118.138 97.522C117.934 97.366 117.706 97.288 117.454 97.288C116.974 97.288 116.614 97.57 116.374 98.134C116.134 98.686 116.014 99.604 116.014 100.888C116.014 101.716 116.074 102.424 116.194 103.012C116.326 103.6 116.566 104.056 116.914 104.38C117.262 104.692 117.766 104.848 118.426 104.848C118.666 104.848 118.864 104.836 119.02 104.812C119.176 104.788 119.326 104.758 119.47 104.722L119.632 105.946C119.452 106.03 119.236 106.09 118.984 106.126C118.732 106.162 118.48 106.18 118.228 106.18ZM115.399 94.57V93.868L116.713 93.292H123.049V94.57H115.399ZM121.555 93.868V91.834H123.067V93.868H121.555Z" fill="#0D131C"/>
<path d="M161.483 92.0455C163.274 92.617 164.32 94.4179 163.912 96.2015L163.824 96.5305L159.001 111.042C158.416 112.791 156.572 113.812 154.746 113.414L154.409 113.328L144.517 110.193C142.726 109.622 141.68 107.821 142.088 106.037L142.176 105.708L142.283 105.397L144.269 106.02L144.162 106.332C143.932 107.042 144.251 107.821 144.924 108.15L145.155 108.254L155.048 111.388C155.775 111.613 156.572 111.302 156.909 110.644L157.016 110.418L161.838 95.9071C162.068 95.1972 161.749 94.4179 161.076 94.0889L160.845 93.985L152.814 91.4395L153.452 89.5L161.483 92.0455Z" fill="#FD8B09"/>
<path d="M150.521 85.5H140.495C138.569 85.5 137 87.0678 137 88.9934V104.007C137 105.932 138.569 107.5 140.495 107.5H150.504C152.431 107.5 154 105.932 154 104.007V88.9934C154.017 87.0678 152.448 85.5 150.521 85.5ZM140.495 87.4938H150.504C151.34 87.4938 152.005 88.1584 152.005 88.9934V104.007C152.005 104.842 151.34 105.506 150.504 105.506H140.495C139.66 105.506 138.995 104.842 138.995 104.007V88.9934C138.995 88.1754 139.677 87.4938 140.495 87.4938Z" fill="#FD8B09"/>
<path d="M145.504 91.5C145.845 91.5 146.983 93.7019 148.007 94.8728C149.129 96.131 149.178 97.2494 148.755 98.0882C148.365 98.8921 147.048 98.0533 145.65 98.0882C144.187 98.1232 142.74 98.997 142.236 98.0882C141.748 97.2145 142.025 96.3407 142.984 94.8728C143.959 93.4223 145.162 91.5 145.504 91.5Z" fill="#FD8B09"/>
<path d="M145.965 98.21H146.475L146.7 99.59L147.345 100.055V100.415H145.155V100.04L145.785 99.575L145.965 98.21Z" fill="#353535"/>
<path d="M156 97.0582L158.7 95.5L160 97.9096L157.1 99.5L156 97.0582Z" fill="#FD8B09"/>
<rect x="235" y="75" width="172" height="49" rx="4" fill="#F9F9F9"/>
<path d="M283.503 93.148C284.787 93.148 285.903 93.388 286.851 93.868C287.799 94.348 288.531 95.056 289.047 95.992C289.575 96.916 289.839 98.068 289.839 99.448C289.839 100.888 289.569 102.094 289.029 103.066C288.501 104.038 287.733 104.77 286.725 105.262C285.729 105.754 284.523 106 283.107 106H279.669V100.348H278.337V98.944H279.669V93.148H283.503ZM283.269 94.534H281.289V98.944H284.493V100.348H281.289V104.614H282.909C284.661 104.614 285.969 104.188 286.833 103.336C287.697 102.472 288.129 101.194 288.129 99.502C288.129 98.362 287.937 97.426 287.553 96.694C287.169 95.962 286.617 95.422 285.897 95.074C285.177 94.714 284.301 94.534 283.269 94.534ZM301.043 94.462H302.681V95.776C302.681 97.288 301.979 98.062 300.575 98.062H300.233V106H298.325V104.74C297.533 105.748 296.561 106.252 295.391 106.252C293.141 106.252 292.025 104.992 292.025 102.49V96.694H293.933V102.364C293.933 103.156 294.095 103.732 294.437 104.092C294.761 104.452 295.301 104.65 296.039 104.65C296.543 104.65 296.993 104.434 297.425 104.038C297.857 103.624 298.163 103.066 298.325 102.382V96.694H299.981C300.683 96.694 301.043 96.334 301.043 95.614V94.462ZM296.794 91.004H298.9L296.344 93.632H295.084L296.794 91.004ZM308.853 96.442C311.157 96.442 312.327 97.702 312.327 100.258V106H310.419V100.42C310.419 98.836 309.681 98.044 308.241 98.044C307.701 98.044 307.215 98.224 306.819 98.62C306.387 99.052 306.117 99.646 306.045 100.402V106H304.137V96.694H306.045V97.846C306.405 97.378 306.819 97.036 307.287 96.802C307.755 96.55 308.277 96.442 308.853 96.442ZM318.378 96.442C319.602 96.442 320.538 96.928 321.222 97.936V96.694H323.13V105.388C323.13 108.34 321.672 109.816 318.792 109.816C317.496 109.816 316.506 109.564 315.822 109.078C315.138 108.574 314.724 107.818 314.544 106.792H316.452C316.56 107.332 316.776 107.728 317.136 107.962C317.478 108.178 318.036 108.304 318.792 108.304C320.412 108.304 321.222 107.422 321.222 105.676V104.236C320.538 105.262 319.602 105.784 318.378 105.784C317.118 105.784 316.092 105.352 315.318 104.506C314.526 103.66 314.148 102.544 314.148 101.14C314.148 99.736 314.526 98.62 315.318 97.756C316.092 96.874 317.118 96.442 318.378 96.442ZM318.666 97.99C317.856 97.99 317.226 98.26 316.794 98.836C316.326 99.376 316.11 100.15 316.11 101.14C316.11 102.04 316.29 102.76 316.65 103.282C317.064 103.894 317.73 104.218 318.666 104.218C319.476 104.218 320.106 103.948 320.574 103.408C321.006 102.85 321.24 102.094 321.24 101.14C321.24 100.168 321.006 99.394 320.574 98.836C320.106 98.26 319.476 97.99 318.666 97.99Z" fill="#0D131C"/>
<g clip-path="url(#clip0_151_4509)">
<path d="M362.347 98.3018C363.346 99.2773 363.346 100.47 362.499 101.753C362.499 101.753 357.023 111.034 354.961 112.244C352.977 113.694 350.587 114.485 348.132 114.5C344.458 114.5 341.2 112.197 340.06 108.793L340.058 108.784L340.049 108.758L339.981 108.55L335.994 95.8525C335.643 94.8535 336.167 93.7549 337.166 93.4004C338.168 93.0547 339.269 93.6201 339.624 94.5986L341.897 100.528C341.994 100.774 342.056 100.66 342.056 100.467L340.529 89.6592C340.342 88.6396 341.036 87.6055 342.082 87.4238C343.128 87.2393 344.133 87.9746 344.32 88.9941L346.034 98.2285C346.052 98.3867 346.175 98.3486 346.166 98.2109L346.204 86.375C346.204 85.3379 347.068 84.5 348.132 84.5C349.195 84.5 350.057 85.3408 350.057 86.375L350.593 98.123C350.613 98.4248 350.795 98.3867 350.874 98.1611L352.462 89.123C352.588 88.0947 353.549 87.3066 354.603 87.4268C355.655 87.5615 356.405 88.5195 356.282 89.5742L354.603 100.525C354.504 101.308 354.255 102.705 354.603 103.106C354.691 103.209 354.905 103.49 355.263 103.54C355.699 103.602 356.174 103.303 356.481 102.778C357.228 101.422 357.978 100.065 358.726 98.7061C359.511 97.6162 361.345 97.3262 362.347 98.3018Z" fill="#7B00FF"/>
</g>
<g opacity="0.5">
<rect x="53" y="134" width="172" height="49" rx="4" fill="#F9F9F9"/>
<path d="M86.9487 152.148H97.4787V153.822H93.1947V165H91.2507V153.822H86.9487V152.148ZM103.207 152.004H105.313L102.757 154.632H101.497L103.207 152.004ZM103.045 155.442C104.413 155.442 105.421 155.784 106.069 156.468C106.627 157.062 106.915 157.926 106.915 159.06V165H105.151V163.686C104.791 164.154 104.323 164.532 103.783 164.82C103.171 165.108 102.451 165.252 101.641 165.252C100.669 165.252 99.9125 165 99.3725 164.514C98.7785 164.028 98.4905 163.398 98.4905 162.624C98.4905 161.58 98.9045 160.77 99.7325 160.212C100.489 159.672 101.569 159.402 102.937 159.366L105.025 159.312V158.934C105.025 157.638 104.323 156.99 102.919 156.99C102.325 156.99 101.839 157.098 101.479 157.314C101.047 157.566 100.777 157.944 100.669 158.466L98.7785 158.304C98.9765 157.296 99.4805 156.54 100.273 156.072C100.957 155.64 101.893 155.442 103.045 155.442ZM105.025 160.698L103.063 160.752C101.317 160.788 100.453 161.4 100.453 162.552C100.453 162.912 100.597 163.2 100.903 163.434C101.191 163.668 101.587 163.794 102.073 163.794C102.883 163.794 103.567 163.542 104.143 163.056C104.719 162.57 105.025 161.958 105.025 161.238V160.698ZM113.239 155.442C114.427 155.442 115.381 155.712 116.101 156.252C116.821 156.828 117.289 157.692 117.469 158.844H115.579C115.453 158.214 115.201 157.746 114.805 157.458C114.409 157.152 113.887 157.008 113.239 157.008C112.447 157.008 111.835 157.296 111.385 157.89C110.917 158.466 110.701 159.294 110.701 160.338C110.701 161.382 110.917 162.21 111.367 162.804C111.781 163.38 112.393 163.686 113.221 163.686C114.643 163.686 115.435 162.966 115.615 161.562H117.505C117.289 162.804 116.803 163.74 116.083 164.352C115.363 164.946 114.391 165.252 113.203 165.252C111.781 165.252 110.683 164.784 109.891 163.848C109.117 162.948 108.739 161.796 108.739 160.356C108.739 158.952 109.117 157.8 109.873 156.9C110.683 155.928 111.799 155.442 113.239 155.442ZM119.136 151.896H121.044V157.008C121.386 156.468 121.818 156.054 122.34 155.802C122.808 155.55 123.33 155.442 123.924 155.442C125.04 155.442 125.886 155.766 126.462 156.432C127.002 157.062 127.272 157.998 127.272 159.222V165H125.364V159.546C125.364 158.718 125.184 158.106 124.86 157.674C124.5 157.224 123.942 157.008 123.222 157.008C122.574 157.008 122.052 157.26 121.656 157.782C121.242 158.304 121.044 158.97 121.044 159.78V165H119.136V151.896ZM139.751 155.442C140.219 155.442 140.633 155.514 140.957 155.676V157.584C140.489 157.44 140.039 157.386 139.607 157.386C139.031 157.386 138.509 157.62 138.059 158.088C137.573 158.592 137.339 159.258 137.339 160.068V165H135.431V155.694H137.339V157.098C137.573 156.594 137.879 156.216 138.239 155.964C138.671 155.604 139.175 155.442 139.751 155.442ZM146.322 155.442C147.69 155.442 148.698 155.784 149.346 156.468C149.904 157.062 150.192 157.926 150.192 159.06V165H148.428V163.686C148.068 164.154 147.618 164.532 147.078 164.802C146.466 165.09 145.746 165.252 144.918 165.252C143.946 165.252 143.19 165 142.65 164.514C142.056 164.028 141.768 163.398 141.768 162.624C141.768 161.58 142.182 160.77 143.01 160.212C143.766 159.672 144.846 159.402 146.214 159.366L148.302 159.312V158.934C148.302 157.638 147.6 156.99 146.196 156.99C145.602 156.99 145.116 157.098 144.756 157.314C144.324 157.566 144.054 157.944 143.946 158.466L142.056 158.304C142.254 157.296 142.758 156.54 143.55 156.072C144.234 155.64 145.17 155.442 146.322 155.442ZM148.302 160.698L146.34 160.752C144.594 160.788 143.73 161.4 143.73 162.552C143.73 162.912 143.874 163.2 144.18 163.434C144.468 163.668 144.864 163.794 145.35 163.794C146.16 163.794 146.844 163.542 147.42 163.056C147.996 162.57 148.302 161.958 148.302 161.238V160.698Z" fill="#0D131C"/>
<rect x="162.487" y="149.347" width="11" height="15" rx="1" transform="rotate(-15 162.487 149.347)" fill="#687785"/>
<rect x="181.987" y="152.5" width="11" height="15" rx="1" transform="rotate(30 181.987 152.5)" fill="#687785"/>
</g>
<rect x="235.5" y="134.5" width="171" height="48" rx="3.5" fill="#F9F9F9"/>
<path d="M274.142 151.896C275.78 151.896 277.076 152.256 278.03 153.012C278.948 153.732 279.524 154.794 279.758 156.234H277.778C277.598 155.37 277.202 154.722 276.59 154.29C275.978 153.84 275.15 153.624 274.142 153.624C272.9 153.624 271.91 154.038 271.172 154.902C270.38 155.802 270.002 157.044 270.002 158.628C270.002 160.176 270.344 161.364 271.064 162.192C271.82 163.092 273.008 163.542 274.61 163.542C275.24 163.542 275.834 163.452 276.392 163.308C276.932 163.164 277.4 162.948 277.832 162.678V159.888H274.286V158.214H279.794V163.614C279.128 164.136 278.354 164.532 277.472 164.82C276.536 165.108 275.51 165.252 274.394 165.252C272.342 165.252 270.758 164.604 269.624 163.308C268.562 162.102 268.04 160.536 268.04 158.628C268.04 156.702 268.562 155.118 269.624 153.876C270.74 152.544 272.252 151.896 274.142 151.896ZM285.229 152.112H286.903L288.775 154.398H287.569L286.057 152.94L284.581 154.398H283.267L285.229 152.112ZM286.165 155.442C287.533 155.442 288.541 155.784 289.189 156.468C289.747 157.062 290.035 157.926 290.035 159.06V165H288.271V163.686C287.911 164.154 287.443 164.532 286.903 164.82C286.291 165.108 285.571 165.252 284.761 165.252C283.789 165.252 283.033 165 282.493 164.514C281.899 164.028 281.611 163.398 281.611 162.624C281.611 161.58 282.025 160.77 282.853 160.212C283.609 159.672 284.689 159.402 286.057 159.366L288.145 159.312V158.934C288.145 157.638 287.443 156.99 286.039 156.99C285.445 156.99 284.959 157.098 284.599 157.314C284.167 157.566 283.897 157.944 283.789 158.466L281.899 158.304C282.097 157.296 282.601 156.54 283.393 156.072C284.077 155.64 285.013 155.442 286.165 155.442ZM288.145 160.698L286.183 160.752C284.437 160.788 283.573 161.4 283.573 162.552C283.573 162.912 283.717 163.2 284.023 163.434C284.311 163.668 284.707 163.794 285.193 163.794C286.003 163.794 286.687 163.542 287.263 163.056C287.839 162.57 288.145 161.958 288.145 161.238V160.698ZM285.808 148.004H287.914L285.358 150.632H284.098L285.808 148.004ZM296.881 155.442C298.249 155.442 299.311 155.928 300.103 156.9C300.823 157.8 301.183 158.952 301.183 160.392C301.183 161.76 300.823 162.894 300.121 163.794C299.365 164.766 298.303 165.252 296.971 165.252C295.819 165.252 294.883 164.712 294.127 163.632V168.564H292.219V155.694H294.001V156.81C294.649 155.892 295.621 155.442 296.881 155.442ZM296.593 156.99C295.765 156.99 295.117 157.314 294.667 157.98C294.271 158.556 294.073 159.33 294.073 160.284V160.446C294.073 161.436 294.307 162.246 294.811 162.858C295.243 163.416 295.819 163.704 296.539 163.704C297.475 163.704 298.159 163.398 298.609 162.786C299.005 162.21 299.221 161.418 299.221 160.392C299.221 159.366 299.023 158.574 298.663 157.998C298.213 157.314 297.529 156.99 296.593 156.99ZM312.679 153.3H315.667V151.896H317.575V153.3H319.051V154.416H317.575V165H315.793V163.884C315.145 164.784 314.173 165.252 312.913 165.252C311.545 165.252 310.465 164.766 309.691 163.794C308.971 162.894 308.611 161.724 308.611 160.302C308.611 158.934 308.953 157.8 309.673 156.9C310.429 155.928 311.473 155.442 312.823 155.442C313.957 155.442 314.911 155.982 315.667 157.08V154.416H312.679V153.3ZM313.255 156.99C312.319 156.99 311.617 157.296 311.167 157.944C310.771 158.484 310.573 159.276 310.573 160.302C310.573 161.328 310.753 162.12 311.131 162.696C311.563 163.362 312.265 163.704 313.201 163.704C314.029 163.704 314.659 163.362 315.127 162.714C315.523 162.138 315.721 161.364 315.721 160.428V160.266C315.721 159.258 315.469 158.448 315.001 157.836C314.533 157.26 313.957 156.99 313.255 156.99ZM323.589 152.112H325.263L327.135 154.398H325.929L324.417 152.94L322.941 154.398H321.735L323.589 152.112ZM324.417 155.442C325.821 155.442 326.973 155.91 327.837 156.882C328.647 157.782 329.061 158.952 329.061 160.356C329.061 161.76 328.647 162.912 327.837 163.812C326.973 164.766 325.839 165.252 324.417 165.252C322.995 165.252 321.861 164.766 321.015 163.812C320.187 162.912 319.773 161.76 319.773 160.356C319.773 158.952 320.187 157.782 321.015 156.882C321.879 155.91 323.013 155.442 324.417 155.442ZM324.417 157.008C323.589 157.008 322.941 157.296 322.455 157.908C321.987 158.52 321.753 159.33 321.753 160.356C321.753 161.364 321.987 162.156 322.455 162.768C322.941 163.38 323.589 163.686 324.417 163.686C325.245 163.686 325.893 163.38 326.379 162.768C326.847 162.156 327.099 161.364 327.099 160.356C327.099 159.33 326.847 158.52 326.379 157.908C325.893 157.296 325.245 157.008 324.417 157.008ZM332.223 151.968C332.601 151.968 332.925 152.076 333.177 152.328C333.429 152.562 333.555 152.868 333.555 153.246C333.555 153.624 333.411 153.93 333.159 154.182C332.907 154.416 332.583 154.542 332.223 154.542C331.845 154.542 331.539 154.416 331.287 154.182C331.035 153.93 330.909 153.606 330.909 153.246C330.909 152.868 331.035 152.562 331.287 152.328C331.539 152.076 331.845 151.968 332.223 151.968ZM331.269 155.694H333.177V165H331.269V155.694Z" fill="#0D131C"/>
<circle cx="364" cy="162.5" r="8" fill="#687785"/>
<path fill-rule="evenodd" clip-rule="evenodd" d="M363.357 153.032C358.377 153.437 354.462 157.607 354.462 162.692C354.462 162.806 354.464 162.92 354.467 163.033C350.792 162.381 348 159.17 348 155.308C348 150.974 351.513 147.461 355.846 147.461C359.388 147.461 362.382 149.808 363.357 153.032Z" fill="#687785"/>
<rect x="235.5" y="134.5" width="171" height="48" rx="3.5" stroke="#FF0000"/>
<rect x="53.5" y="198.5" width="213" height="73" rx="9.5" fill="white"/>
<g clip-path="url(#clip1_151_4509)">
<g clip-path="url(#clip2_151_4509)">
<path d="M91.1393 226.903C89.5366 233.331 83.0254 237.244 76.596 235.641C70.1693 234.038 66.257 227.526 67.8604 221.098C69.4623 214.669 75.9735 210.756 82.4009 212.359C88.8298 213.962 92.7419 220.474 91.1391 226.903L91.1392 226.903H91.1393Z" fill="#F7931A"/>
<path d="M84.791 222.29C85.0299 220.693 83.8141 219.835 82.1516 219.262L82.6909 217.099L81.3741 216.771L80.8491 218.877C80.5029 218.791 80.1474 218.71 79.7941 218.629L80.3229 216.509L79.0069 216.181L78.4673 218.343C78.1808 218.278 77.8994 218.213 77.6265 218.146L77.628 218.139L75.8121 217.685L75.4618 219.092C75.4618 219.092 76.4388 219.316 76.4182 219.329C76.9514 219.463 77.0478 219.816 77.0318 220.095L76.4175 222.56C76.4542 222.569 76.5018 222.582 76.5544 222.604C76.5104 222.593 76.4637 222.581 76.4152 222.569L75.5541 226.021C75.4889 226.183 75.3235 226.427 74.9507 226.334C74.9639 226.353 73.9936 226.095 73.9936 226.095L73.3398 227.603L75.0534 228.03C75.3722 228.11 75.6846 228.193 75.9923 228.272L75.4474 230.46L76.7627 230.788L77.3023 228.623C77.6616 228.721 78.0103 228.811 78.3517 228.896L77.8139 231.05L79.1307 231.378L79.6756 229.195C81.921 229.62 83.6094 229.448 84.32 227.417C84.8927 225.782 84.2915 224.839 83.1102 224.224C83.9706 224.025 84.6187 223.46 84.7915 222.291L84.7911 222.29L84.791 222.29ZM81.7825 226.509C81.3755 228.144 78.6224 227.26 77.7298 227.039L78.4529 224.14C79.3454 224.363 82.2078 224.804 81.7825 226.509H81.7825ZM82.1897 222.267C81.8185 223.754 79.527 222.998 78.7837 222.813L79.4393 220.184C80.1826 220.369 82.5764 220.715 82.1898 222.267H82.1897Z" fill="white"/>
</g>
<path d="M96.7148 225.505C96.7148 223.056 97.1543 221.342 98.0332 220.363C98.918 219.385 100.263 218.896 102.067 218.896C102.935 218.896 103.646 219.004 104.203 219.221C104.76 219.432 105.214 219.71 105.565 220.056C105.917 220.396 106.192 220.756 106.392 221.137C106.597 221.512 106.761 221.951 106.884 222.455C107.124 223.416 107.244 224.418 107.244 225.461C107.244 227.799 106.849 229.51 106.058 230.594C105.267 231.678 103.904 232.22 101.971 232.22C100.887 232.22 100.011 232.047 99.3428 231.701C98.6748 231.355 98.127 230.849 97.6992 230.181C97.3887 229.706 97.1455 229.059 96.9697 228.238C96.7998 227.412 96.7148 226.501 96.7148 225.505ZM100.266 225.514C100.266 227.154 100.409 228.276 100.696 228.88C100.989 229.478 101.411 229.776 101.962 229.776C102.325 229.776 102.639 229.65 102.902 229.398C103.172 229.141 103.368 228.736 103.491 228.186C103.62 227.635 103.685 226.776 103.685 225.61C103.685 223.899 103.538 222.751 103.245 222.165C102.958 221.573 102.524 221.277 101.944 221.277C101.353 221.277 100.925 221.579 100.661 222.183C100.397 222.78 100.266 223.891 100.266 225.514ZM109.072 228.414H112.896V232H109.072V228.414ZM114.715 225.505C114.715 223.056 115.154 221.342 116.033 220.363C116.918 219.385 118.263 218.896 120.067 218.896C120.935 218.896 121.646 219.004 122.203 219.221C122.76 219.432 123.214 219.71 123.565 220.056C123.917 220.396 124.192 220.756 124.392 221.137C124.597 221.512 124.761 221.951 124.884 222.455C125.124 223.416 125.244 224.418 125.244 225.461C125.244 227.799 124.849 229.51 124.058 230.594C123.267 231.678 121.904 232.22 119.971 232.22C118.887 232.22 118.011 232.047 117.343 231.701C116.675 231.355 116.127 230.849 115.699 230.181C115.389 229.706 115.146 229.059 114.97 228.238C114.8 227.412 114.715 226.501 114.715 225.505ZM118.266 225.514C118.266 227.154 118.409 228.276 118.696 228.88C118.989 229.478 119.411 229.776 119.962 229.776C120.325 229.776 120.639 229.65 120.902 229.398C121.172 229.141 121.368 228.736 121.491 228.186C121.62 227.635 121.685 226.776 121.685 225.61C121.685 223.899 121.538 222.751 121.245 222.165C120.958 221.573 120.524 221.277 119.944 221.277C119.353 221.277 118.925 221.579 118.661 222.183C118.397 222.78 118.266 223.891 118.266 225.514ZM126.721 225.505C126.721 223.056 127.16 221.342 128.039 220.363C128.924 219.385 130.269 218.896 132.073 218.896C132.94 218.896 133.652 219.004 134.209 219.221C134.766 219.432 135.22 219.71 135.571 220.056C135.923 220.396 136.198 220.756 136.397 221.137C136.603 221.512 136.767 221.951 136.89 222.455C137.13 223.416 137.25 224.418 137.25 225.461C137.25 227.799 136.854 229.51 136.063 230.594C135.272 231.678 133.91 232.22 131.977 232.22C130.893 232.22 130.017 232.047 129.349 231.701C128.681 231.355 128.133 230.849 127.705 230.181C127.395 229.706 127.151 229.059 126.976 228.238C126.806 227.412 126.721 226.501 126.721 225.505ZM130.271 225.514C130.271 227.154 130.415 228.276 130.702 228.88C130.995 229.478 131.417 229.776 131.968 229.776C132.331 229.776 132.645 229.65 132.908 229.398C133.178 229.141 133.374 228.736 133.497 228.186C133.626 227.635 133.69 226.776 133.69 225.61C133.69 223.899 133.544 222.751 133.251 222.165C132.964 221.573 132.53 221.277 131.95 221.277C131.358 221.277 130.931 221.579 130.667 222.183C130.403 222.78 130.271 223.891 130.271 225.514ZM138.727 225.505C138.727 223.056 139.166 221.342 140.045 220.363C140.93 219.385 142.274 218.896 144.079 218.896C144.946 218.896 145.658 219.004 146.215 219.221C146.771 219.432 147.226 219.71 147.577 220.056C147.929 220.396 148.204 220.756 148.403 221.137C148.608 221.512 148.772 221.951 148.896 222.455C149.136 223.416 149.256 224.418 149.256 225.461C149.256 227.799 148.86 229.51 148.069 230.594C147.278 231.678 145.916 232.22 143.982 232.22C142.898 232.22 142.022 232.047 141.354 231.701C140.687 231.355 140.139 230.849 139.711 230.181C139.4 229.706 139.157 229.059 138.981 228.238C138.812 227.412 138.727 226.501 138.727 225.505ZM142.277 225.514C142.277 227.154 142.421 228.276 142.708 228.88C143.001 229.478 143.423 229.776 143.974 229.776C144.337 229.776 144.65 229.65 144.914 229.398C145.184 229.141 145.38 228.736 145.503 228.186C145.632 227.635 145.696 226.776 145.696 225.61C145.696 223.899 145.55 222.751 145.257 222.165C144.97 221.573 144.536 221.277 143.956 221.277C143.364 221.277 142.937 221.579 142.673 222.183C142.409 222.78 142.277 223.891 142.277 225.514ZM150.732 225.505C150.732 223.056 151.172 221.342 152.051 220.363C152.936 219.385 154.28 218.896 156.085 218.896C156.952 218.896 157.664 219.004 158.221 219.221C158.777 219.432 159.231 219.71 159.583 220.056C159.935 220.396 160.21 220.756 160.409 221.137C160.614 221.512 160.778 221.951 160.901 222.455C161.142 223.416 161.262 224.418 161.262 225.461C161.262 227.799 160.866 229.51 160.075 230.594C159.284 231.678 157.922 232.22 155.988 232.22C154.904 232.22 154.028 232.047 153.36 231.701C152.692 231.355 152.145 230.849 151.717 230.181C151.406 229.706 151.163 229.059 150.987 228.238C150.817 227.412 150.732 226.501 150.732 225.505ZM154.283 225.514C154.283 227.154 154.427 228.276 154.714 228.88C155.007 229.478 155.429 229.776 155.979 229.776C156.343 229.776 156.656 229.65 156.92 229.398C157.189 229.141 157.386 228.736 157.509 228.186C157.638 227.635 157.702 226.776 157.702 225.61C157.702 223.899 157.556 222.751 157.263 222.165C156.976 221.573 156.542 221.277 155.962 221.277C155.37 221.277 154.942 221.579 154.679 222.183C154.415 222.78 154.283 223.891 154.283 225.514ZM170.851 218.896V232H167.229V223.413C166.644 223.858 166.075 224.219 165.524 224.494C164.979 224.77 164.294 225.033 163.468 225.285V222.35C164.687 221.957 165.633 221.485 166.307 220.935C166.98 220.384 167.508 219.704 167.889 218.896H170.851ZM174.744 225.505C174.744 223.056 175.184 221.342 176.062 220.363C176.947 219.385 178.292 218.896 180.097 218.896C180.964 218.896 181.676 219.004 182.232 219.221C182.789 219.432 183.243 219.71 183.595 220.056C183.946 220.396 184.222 220.756 184.421 221.137C184.626 221.512 184.79 221.951 184.913 222.455C185.153 223.416 185.273 224.418 185.273 225.461C185.273 227.799 184.878 229.51 184.087 230.594C183.296 231.678 181.934 232.22 180 232.22C178.916 232.22 178.04 232.047 177.372 231.701C176.704 231.355 176.156 230.849 175.729 230.181C175.418 229.706 175.175 229.059 174.999 228.238C174.829 227.412 174.744 226.501 174.744 225.505ZM178.295 225.514C178.295 227.154 178.438 228.276 178.726 228.88C179.019 229.478 179.44 229.776 179.991 229.776C180.354 229.776 180.668 229.65 180.932 229.398C181.201 229.141 181.397 228.736 181.521 228.186C181.649 227.635 181.714 226.776 181.714 225.61C181.714 223.899 181.567 222.751 181.274 222.165C180.987 221.573 180.554 221.277 179.974 221.277C179.382 221.277 178.954 221.579 178.69 222.183C178.427 222.78 178.295 223.891 178.295 225.514ZM186.75 225.505C186.75 223.056 187.189 221.342 188.068 220.363C188.953 219.385 190.298 218.896 192.103 218.896C192.97 218.896 193.682 219.004 194.238 219.221C194.795 219.432 195.249 219.71 195.601 220.056C195.952 220.396 196.228 220.756 196.427 221.137C196.632 221.512 196.796 221.951 196.919 222.455C197.159 223.416 197.279 224.418 197.279 225.461C197.279 227.799 196.884 229.51 196.093 230.594C195.302 231.678 193.939 232.22 192.006 232.22C190.922 232.22 190.046 232.047 189.378 231.701C188.71 231.355 188.162 230.849 187.734 230.181C187.424 229.706 187.181 229.059 187.005 228.238C186.835 227.412 186.75 226.501 186.75 225.505ZM190.301 225.514C190.301 227.154 190.444 228.276 190.731 228.88C191.024 229.478 191.446 229.776 191.997 229.776C192.36 229.776 192.674 229.65 192.938 229.398C193.207 229.141 193.403 228.736 193.526 228.186C193.655 227.635 193.72 226.776 193.72 225.61C193.72 223.899 193.573 222.751 193.28 222.165C192.993 221.573 192.56 221.277 191.979 221.277C191.388 221.277 190.96 221.579 190.696 222.183C190.433 222.78 190.301 223.891 190.301 225.514ZM198.756 225.505C198.756 223.056 199.195 221.342 200.074 220.363C200.959 219.385 202.304 218.896 204.108 218.896C204.976 218.896 205.688 219.004 206.244 219.221C206.801 219.432 207.255 219.71 207.606 220.056C207.958 220.396 208.233 220.756 208.433 221.137C208.638 221.512 208.802 221.951 208.925 222.455C209.165 223.416 209.285 224.418 209.285 225.461C209.285 227.799 208.89 229.51 208.099 230.594C207.308 231.678 205.945 232.22 204.012 232.22C202.928 232.22 202.052 232.047 201.384 231.701C200.716 231.355 200.168 230.849 199.74 230.181C199.43 229.706 199.187 229.059 199.011 228.238C198.841 227.412 198.756 226.501 198.756 225.505ZM202.307 225.514C202.307 227.154 202.45 228.276 202.737 228.88C203.03 229.478 203.452 229.776 204.003 229.776C204.366 229.776 204.68 229.65 204.943 229.398C205.213 229.141 205.409 228.736 205.532 228.186C205.661 227.635 205.726 226.776 205.726 225.61C205.726 223.899 205.579 222.751 205.286 222.165C204.999 221.573 204.565 221.277 203.985 221.277C203.394 221.277 202.966 221.579 202.702 222.183C202.438 222.78 202.307 223.891 202.307 225.514Z" fill="#484848"/>
<path d="M99.2461 253.411V250.342C98.2891 250.068 97.5859 249.656 97.1367 249.104C96.6924 248.547 96.4702 247.874 96.4702 247.083C96.4702 246.282 96.7217 245.61 97.2246 245.068C97.7324 244.521 98.4062 244.207 99.2461 244.124V243.398H100.308V244.124C101.084 244.216 101.702 244.482 102.161 244.922C102.62 245.356 102.913 245.94 103.04 246.672L101.187 246.914C101.075 246.338 100.782 245.947 100.308 245.742V248.606C101.48 248.923 102.278 249.336 102.703 249.844C103.128 250.347 103.34 250.994 103.34 251.785C103.34 252.668 103.072 253.413 102.535 254.019C102.002 254.624 101.26 254.995 100.308 255.132V256.501H99.2461V255.168C98.4014 255.066 97.7153 254.751 97.188 254.224C96.6606 253.696 96.3237 252.952 96.1772 251.99L98.0889 251.785C98.167 252.175 98.3135 252.512 98.5283 252.795C98.7432 253.079 98.9824 253.284 99.2461 253.411ZM99.2461 245.72C98.958 245.818 98.7285 245.984 98.5576 246.218C98.3867 246.453 98.3013 246.711 98.3013 246.995C98.3013 247.253 98.3794 247.495 98.5356 247.72C98.6919 247.939 98.9287 248.118 99.2461 248.254V245.72ZM100.308 253.513C100.674 253.445 100.972 253.276 101.202 253.008C101.431 252.734 101.546 252.415 101.546 252.048C101.546 251.721 101.448 251.44 101.253 251.206C101.062 250.967 100.748 250.784 100.308 250.657V253.513ZM108.687 255V252.839H104.292V251.038L108.951 244.219H110.679V251.03H112.012V252.839H110.679V255H108.687ZM108.687 251.03V247.361L106.219 251.03H108.687ZM113.44 255V252.942H115.499V255H113.44ZM121.211 255V252.839H116.817V251.038L121.475 244.219H123.204V251.03H124.537V252.839H123.204V255H121.211ZM121.211 251.03V247.361L118.743 251.03H121.211ZM129.004 244.219C130.044 244.219 130.857 244.59 131.443 245.332C132.142 246.211 132.491 247.668 132.491 249.705C132.491 251.736 132.139 253.196 131.436 254.084C130.855 254.817 130.044 255.183 129.004 255.183C127.959 255.183 127.117 254.783 126.478 253.982C125.838 253.176 125.518 251.743 125.518 249.683C125.518 247.661 125.87 246.206 126.573 245.317C127.154 244.585 127.964 244.219 129.004 244.219ZM129.004 245.925C128.755 245.925 128.533 246.006 128.338 246.167C128.143 246.323 127.991 246.606 127.884 247.017C127.742 247.549 127.671 248.445 127.671 249.705C127.671 250.964 127.735 251.831 127.862 252.305C127.989 252.773 128.147 253.086 128.338 253.242C128.533 253.398 128.755 253.477 129.004 253.477C129.253 253.477 129.476 253.398 129.671 253.242C129.866 253.081 130.018 252.795 130.125 252.385C130.267 251.858 130.337 250.964 130.337 249.705C130.337 248.445 130.274 247.581 130.147 247.112C130.02 246.638 129.859 246.323 129.664 246.167C129.473 246.006 129.253 245.925 129.004 245.925ZM137.354 244.219C138.394 244.219 139.207 244.59 139.793 245.332C140.491 246.211 140.84 247.668 140.84 249.705C140.84 251.736 140.489 253.196 139.786 254.084C139.205 254.817 138.394 255.183 137.354 255.183C136.309 255.183 135.467 254.783 134.827 253.982C134.188 253.176 133.868 251.743 133.868 249.683C133.868 247.661 134.219 246.206 134.922 245.317C135.503 244.585 136.314 244.219 137.354 244.219ZM137.354 245.925C137.105 245.925 136.883 246.006 136.688 246.167C136.492 246.323 136.341 246.606 136.233 247.017C136.092 247.549 136.021 248.445 136.021 249.705C136.021 250.964 136.084 251.831 136.211 252.305C136.338 252.773 136.497 253.086 136.688 253.242C136.883 253.398 137.105 253.477 137.354 253.477C137.603 253.477 137.825 253.398 138.021 253.242C138.216 253.081 138.367 252.795 138.475 252.385C138.616 251.858 138.687 250.964 138.687 249.705C138.687 248.445 138.624 247.581 138.497 247.112C138.37 246.638 138.208 246.323 138.013 246.167C137.823 246.006 137.603 245.925 137.354 245.925ZM145.704 244.219C146.744 244.219 147.557 244.59 148.143 245.332C148.841 246.211 149.19 247.668 149.19 249.705C149.19 251.736 148.838 253.196 148.135 254.084C147.554 254.817 146.744 255.183 145.704 255.183C144.659 255.183 143.816 254.783 143.177 253.982C142.537 253.176 142.217 251.743 142.217 249.683C142.217 247.661 142.569 246.206 143.272 245.317C143.853 244.585 144.664 244.219 145.704 244.219ZM145.704 245.925C145.455 245.925 145.232 246.006 145.037 246.167C144.842 246.323 144.69 246.606 144.583 247.017C144.441 247.549 144.371 248.445 144.371 249.705C144.371 250.964 144.434 251.831 144.561 252.305C144.688 252.773 144.847 253.086 145.037 253.242C145.232 253.398 145.455 253.477 145.704 253.477C145.953 253.477 146.175 253.398 146.37 253.242C146.565 253.081 146.717 252.795 146.824 252.385C146.966 251.858 147.037 250.964 147.037 249.705C147.037 248.445 146.973 247.581 146.846 247.112C146.719 246.638 146.558 246.323 146.363 246.167C146.172 246.006 145.953 245.925 145.704 245.925ZM154.053 244.219C155.093 244.219 155.906 244.59 156.492 245.332C157.19 246.211 157.54 247.668 157.54 249.705C157.54 251.736 157.188 253.196 156.485 254.084C155.904 254.817 155.093 255.183 154.053 255.183C153.008 255.183 152.166 254.783 151.526 253.982C150.887 253.176 150.567 251.743 150.567 249.683C150.567 247.661 150.918 246.206 151.622 245.317C152.203 244.585 153.013 244.219 154.053 244.219ZM154.053 245.925C153.804 245.925 153.582 246.006 153.387 246.167C153.191 246.323 153.04 246.606 152.933 247.017C152.791 247.549 152.72 248.445 152.72 249.705C152.72 250.964 152.784 251.831 152.911 252.305C153.038 252.773 153.196 253.086 153.387 253.242C153.582 253.398 153.804 253.477 154.053 253.477C154.302 253.477 154.524 253.398 154.72 253.242C154.915 253.081 155.066 252.795 155.174 252.385C155.315 251.858 155.386 250.964 155.386 249.705C155.386 248.445 155.323 247.581 155.196 247.112C155.069 246.638 154.908 246.323 154.712 246.167C154.522 246.006 154.302 245.925 154.053 245.925ZM162.403 244.219C163.443 244.219 164.256 244.59 164.842 245.332C165.54 246.211 165.889 247.668 165.889 249.705C165.889 251.736 165.538 253.196 164.834 254.084C164.253 254.817 163.443 255.183 162.403 255.183C161.358 255.183 160.516 254.783 159.876 253.982C159.236 253.176 158.917 251.743 158.917 249.683C158.917 247.661 159.268 246.206 159.971 245.317C160.552 244.585 161.363 244.219 162.403 244.219ZM162.403 245.925C162.154 245.925 161.932 246.006 161.736 246.167C161.541 246.323 161.39 246.606 161.282 247.017C161.141 247.549 161.07 248.445 161.07 249.705C161.07 250.964 161.133 251.831 161.26 252.305C161.387 252.773 161.546 253.086 161.736 253.242C161.932 253.398 162.154 253.477 162.403 253.477C162.652 253.477 162.874 253.398 163.069 253.242C163.265 253.081 163.416 252.795 163.523 252.385C163.665 251.858 163.736 250.964 163.736 249.705C163.736 248.445 163.672 247.581 163.545 247.112C163.418 246.638 163.257 246.323 163.062 246.167C162.872 246.006 162.652 245.925 162.403 245.925ZM170.752 244.219C171.792 244.219 172.605 244.59 173.191 245.332C173.89 246.211 174.239 247.668 174.239 249.705C174.239 251.736 173.887 253.196 173.184 254.084C172.603 254.817 171.792 255.183 170.752 255.183C169.708 255.183 168.865 254.783 168.226 253.982C167.586 253.176 167.266 251.743 167.266 249.683C167.266 247.661 167.618 246.206 168.321 245.317C168.902 244.585 169.712 244.219 170.752 244.219ZM170.752 245.925C170.503 245.925 170.281 246.006 170.086 246.167C169.891 246.323 169.739 246.606 169.632 247.017C169.49 247.549 169.419 248.445 169.419 249.705C169.419 250.964 169.483 251.831 169.61 252.305C169.737 252.773 169.896 253.086 170.086 253.242C170.281 253.398 170.503 253.477 170.752 253.477C171.001 253.477 171.224 253.398 171.419 253.242C171.614 253.081 171.766 252.795 171.873 252.385C172.015 251.858 172.085 250.964 172.085 249.705C172.085 248.445 172.022 247.581 171.895 247.112C171.768 246.638 171.607 246.323 171.412 246.167C171.221 246.006 171.001 245.925 170.752 245.925ZM179.102 244.219C180.142 244.219 180.955 244.59 181.541 245.332C182.239 246.211 182.588 247.668 182.588 249.705C182.588 251.736 182.237 253.196 181.534 254.084C180.953 254.817 180.142 255.183 179.102 255.183C178.057 255.183 177.215 254.783 176.575 253.982C175.936 253.176 175.616 251.743 175.616 249.683C175.616 247.661 175.967 246.206 176.67 245.317C177.251 244.585 178.062 244.219 179.102 244.219ZM179.102 245.925C178.853 245.925 178.631 246.006 178.436 246.167C178.24 246.323 178.089 246.606 177.981 247.017C177.84 247.549 177.769 248.445 177.769 249.705C177.769 250.964 177.833 251.831 177.959 252.305C178.086 252.773 178.245 253.086 178.436 253.242C178.631 253.398 178.853 253.477 179.102 253.477C179.351 253.477 179.573 253.398 179.769 253.242C179.964 253.081 180.115 252.795 180.223 252.385C180.364 251.858 180.435 250.964 180.435 249.705C180.435 248.445 180.372 247.581 180.245 247.112C180.118 246.638 179.957 246.323 179.761 246.167C179.571 246.006 179.351 245.925 179.102 245.925Z" fill="#7C8499"/>
</g>
<rect x="221" y="208" width="36" height="23" rx="6" fill="#F1F1F1"/>
<path d="M232.215 215.218H233.281V224.5H231.864V216.921C231.305 217.454 230.59 217.844 229.732 218.091V216.687C230.148 216.583 230.577 216.401 231.045 216.141C231.513 215.855 231.903 215.556 232.215 215.218ZM239.433 213.84H240.629L236.092 225.8H234.883L239.433 213.84ZM245.049 215.036C245.933 215.036 246.674 215.283 247.246 215.803C247.805 216.323 248.091 216.986 248.091 217.805C248.091 218.611 247.779 219.339 247.181 220.002C246.817 220.379 246.18 220.873 245.257 221.497C244.256 222.16 243.658 222.745 243.463 223.252H248.104V224.5H241.708C241.708 223.577 242.007 222.771 242.631 222.069C242.969 221.666 243.671 221.107 244.724 220.379C245.348 219.937 245.79 219.586 246.05 219.313C246.466 218.845 246.687 218.338 246.687 217.792C246.687 217.272 246.544 216.882 246.258 216.622C245.972 216.362 245.543 216.232 244.997 216.232C244.412 216.232 243.97 216.427 243.671 216.83C243.359 217.22 243.203 217.779 243.177 218.533H241.76C241.773 217.493 242.072 216.661 242.657 216.037C243.255 215.361 244.061 215.036 245.049 215.036Z" fill="#A6A6A6"/>
<rect x="221" y="239" width="36" height="23" rx="6" fill="#F1F1F1"/>
<path d="M235.699 246.036C236.583 246.036 237.324 246.283 237.896 246.803C238.455 247.323 238.741 247.986 238.741 248.805C238.741 249.611 238.429 250.339 237.831 251.002C237.467 251.379 236.83 251.873 235.907 252.497C234.906 253.16 234.308 253.745 234.113 254.252H238.754V255.5H232.358C232.358 254.577 232.657 253.771 233.281 253.069C233.619 252.666 234.321 252.107 235.374 251.379C235.998 250.937 236.44 250.586 236.7 250.313C237.116 249.845 237.337 249.338 237.337 248.792C237.337 248.272 237.194 247.882 236.908 247.622C236.622 247.362 236.193 247.232 235.647 247.232C235.062 247.232 234.62 247.427 234.321 247.83C234.009 248.22 233.853 248.779 233.827 249.533H232.41C232.423 248.493 232.722 247.661 233.307 247.037C233.905 246.361 234.711 246.036 235.699 246.036ZM239.815 248.779H241.427L242.909 250.911L244.378 248.779H245.99L243.663 251.925L246.276 255.5H244.664L242.909 252.939L241.141 255.5H239.516L242.142 251.925L239.815 248.779Z" fill="#A6A6A6"/>
<rect x="53.5" y="198.5" width="213" height="73" rx="9.5" stroke="#ECECEC"/>
<g opacity="0.5">
<rect x="277" y="198" width="130" height="74" rx="10" fill="#F04E23"/>
<g filter="url(#filter0_d_151_4509)">
<path d="M312.345 231.942C313.533 231.942 314.487 232.212 315.207 232.752C315.927 233.328 316.395 234.192 316.575 235.344H314.685C314.559 234.714 314.307 234.246 313.911 233.958C313.515 233.652 312.993 233.508 312.345 233.508C311.553 233.508 310.941 233.796 310.491 234.39C310.023 234.966 309.807 235.794 309.807 236.838C309.807 237.882 310.023 238.71 310.473 239.304C310.887 239.88 311.499 240.186 312.327 240.186C313.749 240.186 314.541 239.466 314.721 238.062H316.611C316.395 239.304 315.909 240.24 315.189 240.852C314.469 241.446 313.497 241.752 312.309 241.752C310.887 241.752 309.789 241.284 308.997 240.348C308.223 239.448 307.845 238.296 307.845 236.856C307.845 235.452 308.223 234.3 308.979 233.4C309.789 232.428 310.905 231.942 312.345 231.942ZM322.598 228.504H324.704L322.148 231.132H320.888L322.598 228.504ZM322.436 231.942C323.804 231.942 324.812 232.284 325.46 232.968C326.018 233.562 326.306 234.426 326.306 235.56V241.5H324.542V240.186C324.182 240.654 323.714 241.032 323.174 241.32C322.562 241.608 321.842 241.752 321.032 241.752C320.06 241.752 319.304 241.5 318.764 241.014C318.17 240.528 317.882 239.898 317.882 239.124C317.882 238.08 318.296 237.27 319.124 236.712C319.88 236.172 320.96 235.902 322.328 235.866L324.416 235.812V235.434C324.416 234.138 323.714 233.49 322.31 233.49C321.716 233.49 321.23 233.598 320.87 233.814C320.438 234.066 320.168 234.444 320.06 234.966L318.17 234.804C318.368 233.796 318.872 233.04 319.664 232.572C320.348 232.14 321.284 231.942 322.436 231.942ZM324.416 237.198L322.454 237.252C320.708 237.288 319.844 237.9 319.844 239.052C319.844 239.412 319.988 239.7 320.294 239.934C320.582 240.168 320.978 240.294 321.464 240.294C322.274 240.294 322.958 240.042 323.534 239.556C324.11 239.07 324.416 238.458 324.416 237.738V237.198ZM338.624 231.942C339.812 231.942 340.766 232.212 341.486 232.752C342.206 233.328 342.674 234.192 342.854 235.344H340.964C340.838 234.714 340.586 234.246 340.19 233.958C339.794 233.652 339.272 233.508 338.624 233.508C337.832 233.508 337.22 233.796 336.77 234.39C336.302 234.966 336.086 235.794 336.086 236.838C336.086 237.882 336.302 238.71 336.752 239.304C337.166 239.88 337.778 240.186 338.606 240.186C340.028 240.186 340.82 239.466 341 238.062H342.89C342.674 239.304 342.188 240.24 341.468 240.852C340.748 241.446 339.776 241.752 338.588 241.752C337.166 241.752 336.068 241.284 335.276 240.348C334.502 239.448 334.124 238.296 334.124 236.856C334.124 235.452 334.502 234.3 335.258 233.4C336.068 232.428 337.184 231.942 338.624 231.942ZM353.539 229.962H355.177V231.276C355.177 232.788 354.475 233.562 353.071 233.562H352.729V241.5H350.821V240.24C350.029 241.248 349.057 241.752 347.887 241.752C345.637 241.752 344.521 240.492 344.521 237.99V232.194H346.429V237.864C346.429 238.656 346.591 239.232 346.933 239.592C347.257 239.952 347.797 240.15 348.535 240.15C349.039 240.15 349.489 239.934 349.921 239.538C350.353 239.124 350.659 238.566 350.821 237.882V232.194H352.477C353.179 232.194 353.539 231.834 353.539 231.114V229.962ZM364.841 229.926H366.479V231.51C366.479 232.194 366.317 232.716 366.011 233.112C365.723 233.436 365.363 233.616 364.949 233.616H364.661L364.607 233.706C365.237 234.552 365.561 235.596 365.561 236.856C365.561 238.26 365.147 239.43 364.319 240.33C363.455 241.266 362.321 241.752 360.917 241.752C359.513 241.752 358.379 241.266 357.515 240.33C356.687 239.43 356.273 238.26 356.273 236.856C356.273 235.434 356.687 234.264 357.533 233.346C358.379 232.41 359.513 231.942 360.917 231.942C361.385 231.942 361.961 232.014 362.627 232.176C363.293 232.32 363.725 232.392 363.923 232.392C364.535 232.392 364.841 231.942 364.841 231.078V229.926ZM360.917 233.508C360.035 233.508 359.351 233.85 358.865 234.552C358.433 235.146 358.235 235.92 358.235 236.856C358.235 237.792 358.433 238.548 358.865 239.142C359.351 239.826 360.035 240.186 360.917 240.186C361.799 240.186 362.483 239.826 362.987 239.142C363.419 238.53 363.635 237.774 363.635 236.856C363.635 235.92 363.419 235.146 362.987 234.552C362.483 233.85 361.799 233.508 360.917 233.508ZM361.195 242.67C361.447 242.67 361.681 242.76 361.861 242.94C362.041 243.12 362.149 243.354 362.149 243.624C362.149 243.876 362.041 244.11 361.861 244.29C361.681 244.47 361.447 244.56 361.195 244.56C360.925 244.56 360.709 244.47 360.529 244.29C360.331 244.11 360.241 243.876 360.241 243.624C360.241 243.354 360.331 243.12 360.529 242.94C360.709 242.76 360.925 242.67 361.195 242.67ZM372.058 231.942C373.246 231.942 374.2 232.212 374.92 232.752C375.64 233.328 376.108 234.192 376.288 235.344H374.398C374.272 234.714 374.02 234.246 373.624 233.958C373.228 233.652 372.706 233.508 372.058 233.508C371.266 233.508 370.654 233.796 370.204 234.39C369.736 234.966 369.52 235.794 369.52 236.838C369.52 237.882 369.736 238.71 370.186 239.304C370.6 239.88 371.212 240.186 372.04 240.186C373.462 240.186 374.254 239.466 374.434 238.062H376.324C376.108 239.304 375.622 240.24 374.902 240.852C374.182 241.446 373.21 241.752 372.022 241.752C370.6 241.752 369.502 241.284 368.71 240.348C367.936 239.448 367.558 238.296 367.558 236.856C367.558 235.452 367.936 234.3 368.692 233.4C369.502 232.428 370.618 231.942 372.058 231.942Z" fill="white"/>
</g>
</g>
<defs>
<filter id="filter0_d_151_4509" x="303.845" y="226.504" width="76.4795" height="24.0562" filterUnits="userSpaceOnUse" color-interpolation-filters="sRGB">
<feFlood flood-opacity="0" result="BackgroundImageFix"/>
<feColorMatrix in="SourceAlpha" type="matrix" values="0 0 0 0 0 0 0 0 0 0 0 0 0 0 0 0 0 0 127 0" result="hardAlpha"/>
<feOffset dy="2"/>
<feGaussianBlur stdDeviation="2"/>
<feComposite in2="hardAlpha" operator="out"/>
<feColorMatrix type="matrix" values="0 0 0 0 0 0 0 0 0 0 0 0 0 0 0 0 0 0 0.3 0"/>
<feBlend mode="normal" in2="BackgroundImageFix" result="effect1_dropShadow_151_4509"/>
<feBlend mode="normal" in="SourceGraphic" in2="effect1_dropShadow_151_4509" result="shape"/>
</filter>
<clipPath id="clip0_151_4509">
<rect width="30" height="30" fill="white" transform="translate(334.5 84.5)"/>
</clipPath>
<clipPath id="clip1_151_4509">
<rect width="143" height="46" fill="white" transform="translate(67.5 212)"/>
</clipPath>
<clipPath id="clip2_151_4509">
<rect width="24" height="24" fill="white" transform="translate(67.5 212)"/>
</clipPath>
</defs>
</svg>
