<svg width="460" height="347" viewBox="0 0 460 347" fill="none" xmlns="http://www.w3.org/2000/svg">
<rect width="460" height="346.11" rx="10" fill="white"/>
<rect x="53" y="75" width="172" height="49" rx="4" fill="#F9F9F9"/>
<path d="M115.436 91.312H117.146V107.836H115.436V103.246C113.636 103.786 111.746 104.29 109.802 104.74L109.298 103.228C109.748 103.066 109.982 102.814 109.982 102.454V92.59H111.746V102.562C112.988 102.238 114.212 101.896 115.436 101.5V91.312ZM107.912 92.572V105.748H106.202V104.938H103.988V106.126H102.296V92.572H107.912ZM103.988 103.3H106.202V94.228H103.988V103.3ZM123.788 91.438H125.444V96.1H126.344V97.702H122.366V98.404C122.366 98.926 122.348 99.43 122.33 99.898H125.642V107.602H123.986V101.5H122.258C122.042 104.344 121.538 106.504 120.764 108.016L119.504 106.918C120.296 105.154 120.692 102.31 120.71 98.404V91.798H122.366V96.1H123.788V91.438ZM126.974 92.752H129.782C130.016 92.23 130.196 91.69 130.304 91.132L131.996 91.348C131.87 91.834 131.708 92.302 131.51 92.752H135.434V100.654H131.222C131.15 100.78 131.096 100.888 131.042 100.996C130.556 101.788 129.854 102.418 128.918 102.904H131.618V101.212H133.274V102.904H136.244V104.542H133.274V107.8H131.618V104.542H126.254V102.904H128.072L127.514 102.04C128.36 101.644 129.008 101.194 129.44 100.654H126.974V92.752ZM133.886 99.178V97.396H131.96C131.906 98.044 131.816 98.638 131.708 99.178H133.886ZM130.142 99.178C130.286 98.638 130.376 98.044 130.412 97.396H128.504V99.178H130.142ZM128.504 95.974H130.448V94.246H128.504V95.974ZM131.996 94.246V95.974H133.886V94.246H131.996Z" fill="#0D131C"/>
<path d="M173.483 92.0455C175.274 92.617 176.32 94.4179 175.912 96.2015L175.824 96.5305L171.001 111.042C170.416 112.791 168.572 113.812 166.746 113.414L166.409 113.328L156.517 110.193C154.726 109.622 153.68 107.821 154.088 106.037L154.176 105.708L154.283 105.397L156.269 106.02L156.162 106.332C155.932 107.042 156.251 107.821 156.924 108.15L157.155 108.254L167.048 111.388C167.775 111.613 168.572 111.302 168.909 110.644L169.016 110.418L173.838 95.9071C174.068 95.1972 173.749 94.4179 173.076 94.0889L172.845 93.985L164.814 91.4395L165.452 89.5L173.483 92.0455Z" fill="#FD8B09"/>
<path d="M162.521 85.5H152.495C150.569 85.5 149 87.0678 149 88.9934V104.007C149 105.932 150.569 107.5 152.495 107.5H162.504C164.431 107.5 166 105.932 166 104.007V88.9934C166.017 87.0678 164.448 85.5 162.521 85.5ZM152.495 87.4938H162.504C163.34 87.4938 164.005 88.1584 164.005 88.9934V104.007C164.005 104.842 163.34 105.506 162.504 105.506H152.495C151.66 105.506 150.995 104.842 150.995 104.007V88.9934C150.995 88.1754 151.677 87.4938 152.495 87.4938Z" fill="#FD8B09"/>
<path d="M157.504 91.5C157.845 91.5 158.983 93.7019 160.007 94.8728C161.129 96.131 161.178 97.2494 160.755 98.0882C160.365 98.8921 159.048 98.0533 157.65 98.0882C156.187 98.1232 154.74 98.997 154.236 98.0882C153.748 97.2145 154.025 96.3407 154.984 94.8728C155.959 93.4223 157.162 91.5 157.504 91.5Z" fill="#FD8B09"/>
<path d="M157.965 98.21H158.475L158.7 99.59L159.345 100.055V100.415H157.155V100.04L157.785 99.575L157.965 98.21Z" fill="#353535"/>
<path d="M168 97.0582L170.7 95.5L172 97.9096L169.1 99.5L168 97.0582Z" fill="#FD8B09"/>
<rect x="235" y="75" width="172" height="49" rx="4" fill="#F9F9F9"/>
<path d="M287.14 91.114L288.724 91.852C288.328 93.166 287.842 94.408 287.23 95.596V107.872H285.52V98.404C285.07 99.016 284.602 99.61 284.116 100.186L283.54 98.368C285.16 96.28 286.366 93.868 287.14 91.114ZM294.25 91.114C294.394 91.546 294.556 92.032 294.718 92.572H299.74V94.084H288.544V92.572H293.008C292.864 92.158 292.702 91.762 292.522 91.402L294.25 91.114ZM289.624 94.876H298.408V98.476H289.624V94.876ZM296.752 97.198V96.136H291.298V97.198H296.752ZM299.83 99.268V102.562H298.786V103.516H295.06V106.054C295.06 107.17 294.448 107.728 293.26 107.728H291.262L290.884 106.072C291.496 106.126 292.09 106.162 292.666 106.162C293.098 106.162 293.332 105.982 293.332 105.64V103.516H289.552V102.562H288.292V99.268H299.83ZM289.93 102.076H298.192V100.744H289.93V102.076ZM315.436 91.312H317.146V107.836H315.436V103.246C313.636 103.786 311.746 104.29 309.802 104.74L309.298 103.228C309.748 103.066 309.982 102.814 309.982 102.454V92.59H311.746V102.562C312.988 102.238 314.212 101.896 315.436 101.5V91.312ZM307.912 92.572V105.748H306.202V104.938H303.988V106.126H302.296V92.572H307.912ZM303.988 103.3H306.202V94.228H303.988V103.3Z" fill="#0D131C"/>
<g clip-path="url(#clip0_151_4437)">
<path d="M356.847 98.3018C357.846 99.2773 357.846 100.47 356.999 101.753C356.999 101.753 351.523 111.034 349.461 112.244C347.477 113.694 345.087 114.485 342.632 114.5C338.958 114.5 335.7 112.197 334.56 108.793L334.558 108.784L334.549 108.758L334.481 108.55L330.494 95.8525C330.143 94.8535 330.667 93.7549 331.666 93.4004C332.668 93.0547 333.769 93.6201 334.124 94.5986L336.397 100.528C336.494 100.774 336.556 100.66 336.556 100.467L335.029 89.6592C334.842 88.6396 335.536 87.6055 336.582 87.4238C337.628 87.2393 338.633 87.9746 338.82 88.9941L340.534 98.2285C340.552 98.3867 340.675 98.3486 340.666 98.2109L340.704 86.375C340.704 85.3379 341.568 84.5 342.632 84.5C343.695 84.5 344.557 85.3408 344.557 86.375L345.093 98.123C345.113 98.4248 345.295 98.3867 345.374 98.1611L346.962 89.123C347.088 88.0947 348.049 87.3066 349.103 87.4268C350.155 87.5615 350.905 88.5195 350.782 89.5742L349.103 100.525C349.004 101.308 348.755 102.705 349.103 103.106C349.191 103.209 349.405 103.49 349.763 103.54C350.199 103.602 350.674 103.303 350.981 102.778C351.728 101.422 352.478 100.065 353.226 98.7061C354.011 97.6162 355.845 97.3262 356.847 98.3018Z" fill="#7B00FF"/>
</g>
<g opacity="0.5">
<rect x="53" y="134" width="172" height="49" rx="4" fill="#F9F9F9"/>
<path d="M107.287 150.582L108.763 151.482C107.935 152.958 107.089 154.182 106.243 155.118C105.379 156.09 104.191 157.116 102.643 158.196L101.707 156.702C102.859 156.054 103.939 155.172 104.947 154.038C105.775 153.084 106.549 151.932 107.287 150.582ZM107.809 158.898H104.443V157.26H115.333C115.261 159.564 115.153 161.418 114.973 162.858C114.793 164.262 114.505 165.252 114.091 165.81C113.677 166.35 113.011 166.656 112.093 166.71H108.691L108.223 165.018C109.285 165.054 110.293 165.09 111.229 165.09C112.129 165.09 112.741 164.712 113.029 163.956C113.317 163.164 113.515 161.472 113.605 158.898H109.537C109.105 160.77 108.529 162.264 107.809 163.38C106.873 164.676 105.487 165.864 103.651 166.908L102.553 165.486C104.173 164.622 105.415 163.65 106.243 162.588C106.909 161.634 107.431 160.41 107.809 158.898ZM112.759 150.348C113.749 153.048 115.567 155.19 118.231 156.774L117.079 158.124C114.307 156.324 112.363 154.02 111.265 151.194L112.759 150.348ZM123.775 150.438H125.431V155.1H126.331V156.702H122.353V157.404C122.353 157.926 122.335 158.43 122.317 158.898H125.629V166.602H123.973V160.5H122.245C122.029 163.344 121.525 165.504 120.751 167.016L119.491 165.918C120.283 164.154 120.679 161.31 120.697 157.404V150.798H122.353V155.1H123.775V150.438ZM126.961 151.752H129.769C130.003 151.23 130.183 150.69 130.291 150.132L131.983 150.348C131.857 150.834 131.695 151.302 131.497 151.752H135.421V159.654H131.209C131.137 159.78 131.083 159.888 131.029 159.996C130.543 160.788 129.841 161.418 128.905 161.904H131.605V160.212H133.261V161.904H136.231V163.542H133.261V166.8H131.605V163.542H126.241V161.904H128.059L127.501 161.04C128.347 160.644 128.995 160.194 129.427 159.654H126.961V151.752ZM133.873 158.178V156.396H131.947C131.893 157.044 131.803 157.638 131.695 158.178H133.873ZM130.129 158.178C130.273 157.638 130.363 157.044 130.399 156.396H128.491V158.178H130.129ZM128.491 154.974H130.435V153.246H128.491V154.974ZM131.983 153.246V154.974H133.873V153.246H131.983Z" fill="#0D131C"/>
<rect x="147.987" y="149.347" width="11" height="15" rx="1" transform="rotate(-15 147.987 149.347)" fill="#687785"/>
<rect x="167.487" y="152.5" width="11" height="15" rx="1" transform="rotate(30 167.487 152.5)" fill="#687785"/>
</g>
<rect x="235.5" y="134.5" width="171" height="48" rx="3.5" fill="#F9F9F9"/>
<path d="M299.524 152.778V166.584H297.868V165.45H295.024V166.584H293.386V152.778H299.524ZM295.024 163.812H297.868V154.416H295.024V163.812ZM286.69 150.294H288.382V153.786H292C292 159.654 291.91 163.272 291.73 164.658C291.55 166.026 290.65 166.71 289.066 166.71C288.778 166.71 288.31 166.674 287.662 166.62L287.23 165.054C287.842 165.108 288.364 165.144 288.796 165.144C289.552 165.144 290.002 164.712 290.128 163.884C290.236 163.038 290.29 160.23 290.326 155.442H288.382C288.274 160.68 287.104 164.514 284.854 166.962L283.576 165.828C285.574 163.668 286.618 160.194 286.69 155.442H283.954V153.786H286.69V150.294ZM307.03 151.86H311.314C311.134 151.338 310.954 150.852 310.756 150.42L312.484 150.132C312.664 150.654 312.862 151.23 313.042 151.86H317.614V153.516H307.03V151.86ZM306.328 156.774H309.406C309.118 155.946 308.776 155.154 308.38 154.434L309.982 153.84C310.414 154.668 310.792 155.64 311.134 156.774H313.294C313.726 155.856 314.104 154.866 314.428 153.822L316.084 154.398C315.796 155.28 315.472 156.072 315.13 156.774H318.082V158.448H306.328V156.774ZM316.606 159.744V166.818H314.878V165.936H309.46V166.818H307.714V159.744H316.606ZM309.46 164.262H314.878V161.418H309.46V164.262ZM303.556 157.386C303.088 157.998 302.602 158.61 302.08 159.204L301.522 157.368C303.178 155.28 304.42 152.85 305.23 150.078L306.814 150.834C306.418 152.166 305.896 153.426 305.266 154.632V166.89H303.556V157.386Z" fill="#0D131C"/>
<circle cx="348" cy="162.5" r="8" fill="#687785"/>
<path fill-rule="evenodd" clip-rule="evenodd" d="M347.357 153.032C342.377 153.437 338.462 157.607 338.462 162.692C338.462 162.806 338.464 162.92 338.467 163.033C334.792 162.381 332 159.17 332 155.308C332 150.974 335.513 147.461 339.846 147.461C343.388 147.461 346.382 149.808 347.357 153.032Z" fill="#687785"/>
<rect x="235.5" y="134.5" width="171" height="48" rx="3.5" stroke="#FF0000"/>
<rect x="53.5" y="198.5" width="213" height="73" rx="9.5" fill="white"/>
<g clip-path="url(#clip1_151_4437)">
<g clip-path="url(#clip2_151_4437)">
<path d="M91.1393 226.903C89.5366 233.331 83.0254 237.244 76.596 235.641C70.1693 234.038 66.257 227.526 67.8604 221.098C69.4623 214.669 75.9735 210.756 82.4009 212.359C88.8298 213.962 92.7419 220.474 91.1391 226.903L91.1392 226.903H91.1393Z" fill="#F7931A"/>
<path d="M84.791 222.29C85.0299 220.693 83.8141 219.835 82.1516 219.262L82.6909 217.099L81.3741 216.771L80.8491 218.877C80.5029 218.791 80.1474 218.71 79.7941 218.629L80.3229 216.509L79.0069 216.181L78.4673 218.343C78.1808 218.278 77.8994 218.213 77.6265 218.146L77.628 218.139L75.8121 217.685L75.4618 219.092C75.4618 219.092 76.4388 219.316 76.4182 219.329C76.9514 219.463 77.0478 219.816 77.0318 220.095L76.4175 222.56C76.4542 222.569 76.5018 222.582 76.5544 222.604C76.5104 222.593 76.4637 222.581 76.4152 222.569L75.5541 226.021C75.4889 226.183 75.3235 226.427 74.9507 226.334C74.9639 226.353 73.9936 226.095 73.9936 226.095L73.3398 227.603L75.0534 228.03C75.3722 228.11 75.6846 228.193 75.9923 228.272L75.4474 230.46L76.7627 230.788L77.3023 228.623C77.6616 228.721 78.0103 228.811 78.3517 228.896L77.8139 231.05L79.1307 231.378L79.6756 229.195C81.921 229.62 83.6094 229.448 84.32 227.417C84.8927 225.782 84.2915 224.839 83.1102 224.224C83.9706 224.025 84.6187 223.46 84.7915 222.291L84.7911 222.29L84.791 222.29ZM81.7825 226.509C81.3755 228.144 78.6224 227.26 77.7298 227.039L78.4529 224.14C79.3454 224.363 82.2078 224.804 81.7825 226.509H81.7825ZM82.1897 222.267C81.8185 223.754 79.527 222.998 78.7837 222.813L79.4393 220.184C80.1826 220.369 82.5764 220.715 82.1898 222.267H82.1897Z" fill="white"/>
</g>
<path d="M96.7148 225.505C96.7148 223.056 97.1543 221.342 98.0332 220.363C98.918 219.385 100.263 218.896 102.067 218.896C102.935 218.896 103.646 219.004 104.203 219.221C104.76 219.432 105.214 219.71 105.565 220.056C105.917 220.396 106.192 220.756 106.392 221.137C106.597 221.512 106.761 221.951 106.884 222.455C107.124 223.416 107.244 224.418 107.244 225.461C107.244 227.799 106.849 229.51 106.058 230.594C105.267 231.678 103.904 232.22 101.971 232.22C100.887 232.22 100.011 232.047 99.3428 231.701C98.6748 231.355 98.127 230.849 97.6992 230.181C97.3887 229.706 97.1455 229.059 96.9697 228.238C96.7998 227.412 96.7148 226.501 96.7148 225.505ZM100.266 225.514C100.266 227.154 100.409 228.276 100.696 228.88C100.989 229.478 101.411 229.776 101.962 229.776C102.325 229.776 102.639 229.65 102.902 229.398C103.172 229.141 103.368 228.736 103.491 228.186C103.62 227.635 103.685 226.776 103.685 225.61C103.685 223.899 103.538 222.751 103.245 222.165C102.958 221.573 102.524 221.277 101.944 221.277C101.353 221.277 100.925 221.579 100.661 222.183C100.397 222.78 100.266 223.891 100.266 225.514ZM109.072 228.414H112.896V232H109.072V228.414ZM114.715 225.505C114.715 223.056 115.154 221.342 116.033 220.363C116.918 219.385 118.263 218.896 120.067 218.896C120.935 218.896 121.646 219.004 122.203 219.221C122.76 219.432 123.214 219.71 123.565 220.056C123.917 220.396 124.192 220.756 124.392 221.137C124.597 221.512 124.761 221.951 124.884 222.455C125.124 223.416 125.244 224.418 125.244 225.461C125.244 227.799 124.849 229.51 124.058 230.594C123.267 231.678 121.904 232.22 119.971 232.22C118.887 232.22 118.011 232.047 117.343 231.701C116.675 231.355 116.127 230.849 115.699 230.181C115.389 229.706 115.146 229.059 114.97 228.238C114.8 227.412 114.715 226.501 114.715 225.505ZM118.266 225.514C118.266 227.154 118.409 228.276 118.696 228.88C118.989 229.478 119.411 229.776 119.962 229.776C120.325 229.776 120.639 229.65 120.902 229.398C121.172 229.141 121.368 228.736 121.491 228.186C121.62 227.635 121.685 226.776 121.685 225.61C121.685 223.899 121.538 222.751 121.245 222.165C120.958 221.573 120.524 221.277 119.944 221.277C119.353 221.277 118.925 221.579 118.661 222.183C118.397 222.78 118.266 223.891 118.266 225.514ZM126.721 225.505C126.721 223.056 127.16 221.342 128.039 220.363C128.924 219.385 130.269 218.896 132.073 218.896C132.94 218.896 133.652 219.004 134.209 219.221C134.766 219.432 135.22 219.71 135.571 220.056C135.923 220.396 136.198 220.756 136.397 221.137C136.603 221.512 136.767 221.951 136.89 222.455C137.13 223.416 137.25 224.418 137.25 225.461C137.25 227.799 136.854 229.51 136.063 230.594C135.272 231.678 133.91 232.22 131.977 232.22C130.893 232.22 130.017 232.047 129.349 231.701C128.681 231.355 128.133 230.849 127.705 230.181C127.395 229.706 127.151 229.059 126.976 228.238C126.806 227.412 126.721 226.501 126.721 225.505ZM130.271 225.514C130.271 227.154 130.415 228.276 130.702 228.88C130.995 229.478 131.417 229.776 131.968 229.776C132.331 229.776 132.645 229.65 132.908 229.398C133.178 229.141 133.374 228.736 133.497 228.186C133.626 227.635 133.69 226.776 133.69 225.61C133.69 223.899 133.544 222.751 133.251 222.165C132.964 221.573 132.53 221.277 131.95 221.277C131.358 221.277 130.931 221.579 130.667 222.183C130.403 222.78 130.271 223.891 130.271 225.514ZM138.727 225.505C138.727 223.056 139.166 221.342 140.045 220.363C140.93 219.385 142.274 218.896 144.079 218.896C144.946 218.896 145.658 219.004 146.215 219.221C146.771 219.432 147.226 219.71 147.577 220.056C147.929 220.396 148.204 220.756 148.403 221.137C148.608 221.512 148.772 221.951 148.896 222.455C149.136 223.416 149.256 224.418 149.256 225.461C149.256 227.799 148.86 229.51 148.069 230.594C147.278 231.678 145.916 232.22 143.982 232.22C142.898 232.22 142.022 232.047 141.354 231.701C140.687 231.355 140.139 230.849 139.711 230.181C139.4 229.706 139.157 229.059 138.981 228.238C138.812 227.412 138.727 226.501 138.727 225.505ZM142.277 225.514C142.277 227.154 142.421 228.276 142.708 228.88C143.001 229.478 143.423 229.776 143.974 229.776C144.337 229.776 144.65 229.65 144.914 229.398C145.184 229.141 145.38 228.736 145.503 228.186C145.632 227.635 145.696 226.776 145.696 225.61C145.696 223.899 145.55 222.751 145.257 222.165C144.97 221.573 144.536 221.277 143.956 221.277C143.364 221.277 142.937 221.579 142.673 222.183C142.409 222.78 142.277 223.891 142.277 225.514ZM150.732 225.505C150.732 223.056 151.172 221.342 152.051 220.363C152.936 219.385 154.28 218.896 156.085 218.896C156.952 218.896 157.664 219.004 158.221 219.221C158.777 219.432 159.231 219.71 159.583 220.056C159.935 220.396 160.21 220.756 160.409 221.137C160.614 221.512 160.778 221.951 160.901 222.455C161.142 223.416 161.262 224.418 161.262 225.461C161.262 227.799 160.866 229.51 160.075 230.594C159.284 231.678 157.922 232.22 155.988 232.22C154.904 232.22 154.028 232.047 153.36 231.701C152.692 231.355 152.145 230.849 151.717 230.181C151.406 229.706 151.163 229.059 150.987 228.238C150.817 227.412 150.732 226.501 150.732 225.505ZM154.283 225.514C154.283 227.154 154.427 228.276 154.714 228.88C155.007 229.478 155.429 229.776 155.979 229.776C156.343 229.776 156.656 229.65 156.92 229.398C157.189 229.141 157.386 228.736 157.509 228.186C157.638 227.635 157.702 226.776 157.702 225.61C157.702 223.899 157.556 222.751 157.263 222.165C156.976 221.573 156.542 221.277 155.962 221.277C155.37 221.277 154.942 221.579 154.679 222.183C154.415 222.78 154.283 223.891 154.283 225.514ZM170.851 218.896V232H167.229V223.413C166.644 223.858 166.075 224.219 165.524 224.494C164.979 224.77 164.294 225.033 163.468 225.285V222.35C164.687 221.957 165.633 221.485 166.307 220.935C166.98 220.384 167.508 219.704 167.889 218.896H170.851ZM174.744 225.505C174.744 223.056 175.184 221.342 176.062 220.363C176.947 219.385 178.292 218.896 180.097 218.896C180.964 218.896 181.676 219.004 182.232 219.221C182.789 219.432 183.243 219.71 183.595 220.056C183.946 220.396 184.222 220.756 184.421 221.137C184.626 221.512 184.79 221.951 184.913 222.455C185.153 223.416 185.273 224.418 185.273 225.461C185.273 227.799 184.878 229.51 184.087 230.594C183.296 231.678 181.934 232.22 180 232.22C178.916 232.22 178.04 232.047 177.372 231.701C176.704 231.355 176.156 230.849 175.729 230.181C175.418 229.706 175.175 229.059 174.999 228.238C174.829 227.412 174.744 226.501 174.744 225.505ZM178.295 225.514C178.295 227.154 178.438 228.276 178.726 228.88C179.019 229.478 179.44 229.776 179.991 229.776C180.354 229.776 180.668 229.65 180.932 229.398C181.201 229.141 181.397 228.736 181.521 228.186C181.649 227.635 181.714 226.776 181.714 225.61C181.714 223.899 181.567 222.751 181.274 222.165C180.987 221.573 180.554 221.277 179.974 221.277C179.382 221.277 178.954 221.579 178.69 222.183C178.427 222.78 178.295 223.891 178.295 225.514ZM186.75 225.505C186.75 223.056 187.189 221.342 188.068 220.363C188.953 219.385 190.298 218.896 192.103 218.896C192.97 218.896 193.682 219.004 194.238 219.221C194.795 219.432 195.249 219.71 195.601 220.056C195.952 220.396 196.228 220.756 196.427 221.137C196.632 221.512 196.796 221.951 196.919 222.455C197.159 223.416 197.279 224.418 197.279 225.461C197.279 227.799 196.884 229.51 196.093 230.594C195.302 231.678 193.939 232.22 192.006 232.22C190.922 232.22 190.046 232.047 189.378 231.701C188.71 231.355 188.162 230.849 187.734 230.181C187.424 229.706 187.181 229.059 187.005 228.238C186.835 227.412 186.75 226.501 186.75 225.505ZM190.301 225.514C190.301 227.154 190.444 228.276 190.731 228.88C191.024 229.478 191.446 229.776 191.997 229.776C192.36 229.776 192.674 229.65 192.938 229.398C193.207 229.141 193.403 228.736 193.526 228.186C193.655 227.635 193.72 226.776 193.72 225.61C193.72 223.899 193.573 222.751 193.28 222.165C192.993 221.573 192.56 221.277 191.979 221.277C191.388 221.277 190.96 221.579 190.696 222.183C190.433 222.78 190.301 223.891 190.301 225.514ZM198.756 225.505C198.756 223.056 199.195 221.342 200.074 220.363C200.959 219.385 202.304 218.896 204.108 218.896C204.976 218.896 205.688 219.004 206.244 219.221C206.801 219.432 207.255 219.71 207.606 220.056C207.958 220.396 208.233 220.756 208.433 221.137C208.638 221.512 208.802 221.951 208.925 222.455C209.165 223.416 209.285 224.418 209.285 225.461C209.285 227.799 208.89 229.51 208.099 230.594C207.308 231.678 205.945 232.22 204.012 232.22C202.928 232.22 202.052 232.047 201.384 231.701C200.716 231.355 200.168 230.849 199.74 230.181C199.43 229.706 199.187 229.059 199.011 228.238C198.841 227.412 198.756 226.501 198.756 225.505ZM202.307 225.514C202.307 227.154 202.45 228.276 202.737 228.88C203.03 229.478 203.452 229.776 204.003 229.776C204.366 229.776 204.68 229.65 204.943 229.398C205.213 229.141 205.409 228.736 205.532 228.186C205.661 227.635 205.726 226.776 205.726 225.61C205.726 223.899 205.579 222.751 205.286 222.165C204.999 221.573 204.565 221.277 203.985 221.277C203.394 221.277 202.966 221.579 202.702 222.183C202.438 222.78 202.307 223.891 202.307 225.514Z" fill="#484848"/>
<path d="M99.2461 253.411V250.342C98.2891 250.068 97.5859 249.656 97.1367 249.104C96.6924 248.547 96.4702 247.874 96.4702 247.083C96.4702 246.282 96.7217 245.61 97.2246 245.068C97.7324 244.521 98.4062 244.207 99.2461 244.124V243.398H100.308V244.124C101.084 244.216 101.702 244.482 102.161 244.922C102.62 245.356 102.913 245.94 103.04 246.672L101.187 246.914C101.075 246.338 100.782 245.947 100.308 245.742V248.606C101.48 248.923 102.278 249.336 102.703 249.844C103.128 250.347 103.34 250.994 103.34 251.785C103.34 252.668 103.072 253.413 102.535 254.019C102.002 254.624 101.26 254.995 100.308 255.132V256.501H99.2461V255.168C98.4014 255.066 97.7153 254.751 97.188 254.224C96.6606 253.696 96.3237 252.952 96.1772 251.99L98.0889 251.785C98.167 252.175 98.3135 252.512 98.5283 252.795C98.7432 253.079 98.9824 253.284 99.2461 253.411ZM99.2461 245.72C98.958 245.818 98.7285 245.984 98.5576 246.218C98.3867 246.453 98.3013 246.711 98.3013 246.995C98.3013 247.253 98.3794 247.495 98.5356 247.72C98.6919 247.939 98.9287 248.118 99.2461 248.254V245.72ZM100.308 253.513C100.674 253.445 100.972 253.276 101.202 253.008C101.431 252.734 101.546 252.415 101.546 252.048C101.546 251.721 101.448 251.44 101.253 251.206C101.062 250.967 100.748 250.784 100.308 250.657V253.513ZM108.687 255V252.839H104.292V251.038L108.951 244.219H110.679V251.03H112.012V252.839H110.679V255H108.687ZM108.687 251.03V247.361L106.219 251.03H108.687ZM113.44 255V252.942H115.499V255H113.44ZM121.211 255V252.839H116.817V251.038L121.475 244.219H123.204V251.03H124.537V252.839H123.204V255H121.211ZM121.211 251.03V247.361L118.743 251.03H121.211ZM129.004 244.219C130.044 244.219 130.857 244.59 131.443 245.332C132.142 246.211 132.491 247.668 132.491 249.705C132.491 251.736 132.139 253.196 131.436 254.084C130.855 254.817 130.044 255.183 129.004 255.183C127.959 255.183 127.117 254.783 126.478 253.982C125.838 253.176 125.518 251.743 125.518 249.683C125.518 247.661 125.87 246.206 126.573 245.317C127.154 244.585 127.964 244.219 129.004 244.219ZM129.004 245.925C128.755 245.925 128.533 246.006 128.338 246.167C128.143 246.323 127.991 246.606 127.884 247.017C127.742 247.549 127.671 248.445 127.671 249.705C127.671 250.964 127.735 251.831 127.862 252.305C127.989 252.773 128.147 253.086 128.338 253.242C128.533 253.398 128.755 253.477 129.004 253.477C129.253 253.477 129.476 253.398 129.671 253.242C129.866 253.081 130.018 252.795 130.125 252.385C130.267 251.858 130.337 250.964 130.337 249.705C130.337 248.445 130.274 247.581 130.147 247.112C130.02 246.638 129.859 246.323 129.664 246.167C129.473 246.006 129.253 245.925 129.004 245.925ZM137.354 244.219C138.394 244.219 139.207 244.59 139.793 245.332C140.491 246.211 140.84 247.668 140.84 249.705C140.84 251.736 140.489 253.196 139.786 254.084C139.205 254.817 138.394 255.183 137.354 255.183C136.309 255.183 135.467 254.783 134.827 253.982C134.188 253.176 133.868 251.743 133.868 249.683C133.868 247.661 134.219 246.206 134.922 245.317C135.503 244.585 136.314 244.219 137.354 244.219ZM137.354 245.925C137.105 245.925 136.883 246.006 136.688 246.167C136.492 246.323 136.341 246.606 136.233 247.017C136.092 247.549 136.021 248.445 136.021 249.705C136.021 250.964 136.084 251.831 136.211 252.305C136.338 252.773 136.497 253.086 136.688 253.242C136.883 253.398 137.105 253.477 137.354 253.477C137.603 253.477 137.825 253.398 138.021 253.242C138.216 253.081 138.367 252.795 138.475 252.385C138.616 251.858 138.687 250.964 138.687 249.705C138.687 248.445 138.624 247.581 138.497 247.112C138.37 246.638 138.208 246.323 138.013 246.167C137.823 246.006 137.603 245.925 137.354 245.925ZM145.704 244.219C146.744 244.219 147.557 244.59 148.143 245.332C148.841 246.211 149.19 247.668 149.19 249.705C149.19 251.736 148.838 253.196 148.135 254.084C147.554 254.817 146.744 255.183 145.704 255.183C144.659 255.183 143.816 254.783 143.177 253.982C142.537 253.176 142.217 251.743 142.217 249.683C142.217 247.661 142.569 246.206 143.272 245.317C143.853 244.585 144.664 244.219 145.704 244.219ZM145.704 245.925C145.455 245.925 145.232 246.006 145.037 246.167C144.842 246.323 144.69 246.606 144.583 247.017C144.441 247.549 144.371 248.445 144.371 249.705C144.371 250.964 144.434 251.831 144.561 252.305C144.688 252.773 144.847 253.086 145.037 253.242C145.232 253.398 145.455 253.477 145.704 253.477C145.953 253.477 146.175 253.398 146.37 253.242C146.565 253.081 146.717 252.795 146.824 252.385C146.966 251.858 147.037 250.964 147.037 249.705C147.037 248.445 146.973 247.581 146.846 247.112C146.719 246.638 146.558 246.323 146.363 246.167C146.172 246.006 145.953 245.925 145.704 245.925ZM154.053 244.219C155.093 244.219 155.906 244.59 156.492 245.332C157.19 246.211 157.54 247.668 157.54 249.705C157.54 251.736 157.188 253.196 156.485 254.084C155.904 254.817 155.093 255.183 154.053 255.183C153.008 255.183 152.166 254.783 151.526 253.982C150.887 253.176 150.567 251.743 150.567 249.683C150.567 247.661 150.918 246.206 151.622 245.317C152.203 244.585 153.013 244.219 154.053 244.219ZM154.053 245.925C153.804 245.925 153.582 246.006 153.387 246.167C153.191 246.323 153.04 246.606 152.933 247.017C152.791 247.549 152.72 248.445 152.72 249.705C152.72 250.964 152.784 251.831 152.911 252.305C153.038 252.773 153.196 253.086 153.387 253.242C153.582 253.398 153.804 253.477 154.053 253.477C154.302 253.477 154.524 253.398 154.72 253.242C154.915 253.081 155.066 252.795 155.174 252.385C155.315 251.858 155.386 250.964 155.386 249.705C155.386 248.445 155.323 247.581 155.196 247.112C155.069 246.638 154.908 246.323 154.712 246.167C154.522 246.006 154.302 245.925 154.053 245.925ZM162.403 244.219C163.443 244.219 164.256 244.59 164.842 245.332C165.54 246.211 165.889 247.668 165.889 249.705C165.889 251.736 165.538 253.196 164.834 254.084C164.253 254.817 163.443 255.183 162.403 255.183C161.358 255.183 160.516 254.783 159.876 253.982C159.236 253.176 158.917 251.743 158.917 249.683C158.917 247.661 159.268 246.206 159.971 245.317C160.552 244.585 161.363 244.219 162.403 244.219ZM162.403 245.925C162.154 245.925 161.932 246.006 161.736 246.167C161.541 246.323 161.39 246.606 161.282 247.017C161.141 247.549 161.07 248.445 161.07 249.705C161.07 250.964 161.133 251.831 161.26 252.305C161.387 252.773 161.546 253.086 161.736 253.242C161.932 253.398 162.154 253.477 162.403 253.477C162.652 253.477 162.874 253.398 163.069 253.242C163.265 253.081 163.416 252.795 163.523 252.385C163.665 251.858 163.736 250.964 163.736 249.705C163.736 248.445 163.672 247.581 163.545 247.112C163.418 246.638 163.257 246.323 163.062 246.167C162.872 246.006 162.652 245.925 162.403 245.925ZM170.752 244.219C171.792 244.219 172.605 244.59 173.191 245.332C173.89 246.211 174.239 247.668 174.239 249.705C174.239 251.736 173.887 253.196 173.184 254.084C172.603 254.817 171.792 255.183 170.752 255.183C169.708 255.183 168.865 254.783 168.226 253.982C167.586 253.176 167.266 251.743 167.266 249.683C167.266 247.661 167.618 246.206 168.321 245.317C168.902 244.585 169.712 244.219 170.752 244.219ZM170.752 245.925C170.503 245.925 170.281 246.006 170.086 246.167C169.891 246.323 169.739 246.606 169.632 247.017C169.49 247.549 169.419 248.445 169.419 249.705C169.419 250.964 169.483 251.831 169.61 252.305C169.737 252.773 169.896 253.086 170.086 253.242C170.281 253.398 170.503 253.477 170.752 253.477C171.001 253.477 171.224 253.398 171.419 253.242C171.614 253.081 171.766 252.795 171.873 252.385C172.015 251.858 172.085 250.964 172.085 249.705C172.085 248.445 172.022 247.581 171.895 247.112C171.768 246.638 171.607 246.323 171.412 246.167C171.221 246.006 171.001 245.925 170.752 245.925ZM179.102 244.219C180.142 244.219 180.955 244.59 181.541 245.332C182.239 246.211 182.588 247.668 182.588 249.705C182.588 251.736 182.237 253.196 181.534 254.084C180.953 254.817 180.142 255.183 179.102 255.183C178.057 255.183 177.215 254.783 176.575 253.982C175.936 253.176 175.616 251.743 175.616 249.683C175.616 247.661 175.967 246.206 176.67 245.317C177.251 244.585 178.062 244.219 179.102 244.219ZM179.102 245.925C178.853 245.925 178.631 246.006 178.436 246.167C178.24 246.323 178.089 246.606 177.981 247.017C177.84 247.549 177.769 248.445 177.769 249.705C177.769 250.964 177.833 251.831 177.959 252.305C178.086 252.773 178.245 253.086 178.436 253.242C178.631 253.398 178.853 253.477 179.102 253.477C179.351 253.477 179.573 253.398 179.769 253.242C179.964 253.081 180.115 252.795 180.223 252.385C180.364 251.858 180.435 250.964 180.435 249.705C180.435 248.445 180.372 247.581 180.245 247.112C180.118 246.638 179.957 246.323 179.761 246.167C179.571 246.006 179.351 245.925 179.102 245.925Z" fill="#7C8499"/>
</g>
<rect x="221" y="208" width="36" height="23" rx="6" fill="#F1F1F1"/>
<path d="M232.215 215.218H233.281V224.5H231.864V216.921C231.305 217.454 230.59 217.844 229.732 218.091V216.687C230.148 216.583 230.577 216.401 231.045 216.141C231.513 215.855 231.903 215.556 232.215 215.218ZM239.433 213.84H240.629L236.092 225.8H234.883L239.433 213.84ZM245.049 215.036C245.933 215.036 246.674 215.283 247.246 215.803C247.805 216.323 248.091 216.986 248.091 217.805C248.091 218.611 247.779 219.339 247.181 220.002C246.817 220.379 246.18 220.873 245.257 221.497C244.256 222.16 243.658 222.745 243.463 223.252H248.104V224.5H241.708C241.708 223.577 242.007 222.771 242.631 222.069C242.969 221.666 243.671 221.107 244.724 220.379C245.348 219.937 245.79 219.586 246.05 219.313C246.466 218.845 246.687 218.338 246.687 217.792C246.687 217.272 246.544 216.882 246.258 216.622C245.972 216.362 245.543 216.232 244.997 216.232C244.412 216.232 243.97 216.427 243.671 216.83C243.359 217.22 243.203 217.779 243.177 218.533H241.76C241.773 217.493 242.072 216.661 242.657 216.037C243.255 215.361 244.061 215.036 245.049 215.036Z" fill="#A6A6A6"/>
<rect x="221" y="239" width="36" height="23" rx="6" fill="#F1F1F1"/>
<path d="M235.699 246.036C236.583 246.036 237.324 246.283 237.896 246.803C238.455 247.323 238.741 247.986 238.741 248.805C238.741 249.611 238.429 250.339 237.831 251.002C237.467 251.379 236.83 251.873 235.907 252.497C234.906 253.16 234.308 253.745 234.113 254.252H238.754V255.5H232.358C232.358 254.577 232.657 253.771 233.281 253.069C233.619 252.666 234.321 252.107 235.374 251.379C235.998 250.937 236.44 250.586 236.7 250.313C237.116 249.845 237.337 249.338 237.337 248.792C237.337 248.272 237.194 247.882 236.908 247.622C236.622 247.362 236.193 247.232 235.647 247.232C235.062 247.232 234.62 247.427 234.321 247.83C234.009 248.22 233.853 248.779 233.827 249.533H232.41C232.423 248.493 232.722 247.661 233.307 247.037C233.905 246.361 234.711 246.036 235.699 246.036ZM239.815 248.779H241.427L242.909 250.911L244.378 248.779H245.99L243.663 251.925L246.276 255.5H244.664L242.909 252.939L241.141 255.5H239.516L242.142 251.925L239.815 248.779Z" fill="#A6A6A6"/>
<rect x="53.5" y="198.5" width="213" height="73" rx="9.5" stroke="#ECECEC"/>
<g opacity="0.5">
<rect x="277" y="198" width="130" height="74" rx="10" fill="#F04E23"/>
<g filter="url(#filter0_d_151_4437)">
<path d="M324.936 227.568H341.046V229.242H333.378V231.6C335.574 232.662 337.806 233.886 340.074 235.254L339.048 236.802C336.78 235.326 334.89 234.192 333.378 233.418V243.354H331.668V229.242H324.936V227.568ZM344.502 226.92C345.726 227.82 346.77 228.702 347.634 229.584L346.41 230.808C345.672 229.962 344.628 229.062 343.26 228.108L344.502 226.92ZM344.07 231.15C345.24 232.032 346.23 232.932 347.04 233.832L345.816 235.056C345.096 234.228 344.106 233.31 342.846 232.32L344.07 231.15ZM345.996 236.208L347.526 236.838C346.734 239.088 345.834 241.212 344.844 243.21L343.134 242.454C344.214 240.42 345.168 238.332 345.996 236.208ZM348.138 229.638H352.746C352.422 228.756 352.062 227.91 351.648 227.1L353.232 226.65C353.754 227.73 354.15 228.72 354.438 229.62L354.384 229.638H358.848V231.312H354.384V235.164H358.362V236.802H354.384V241.068H359.226V242.742H347.688V241.068H352.674V236.802H348.642V235.164H352.674V231.312H348.138V229.638Z" fill="white"/>
</g>
</g>
<defs>
<filter id="filter0_d_151_4437" x="320.936" y="224.65" width="42.29" height="24.7041" filterUnits="userSpaceOnUse" color-interpolation-filters="sRGB">
<feFlood flood-opacity="0" result="BackgroundImageFix"/>
<feColorMatrix in="SourceAlpha" type="matrix" values="0 0 0 0 0 0 0 0 0 0 0 0 0 0 0 0 0 0 127 0" result="hardAlpha"/>
<feOffset dy="2"/>
<feGaussianBlur stdDeviation="2"/>
<feComposite in2="hardAlpha" operator="out"/>
<feColorMatrix type="matrix" values="0 0 0 0 0 0 0 0 0 0 0 0 0 0 0 0 0 0 0.3 0"/>
<feBlend mode="normal" in2="BackgroundImageFix" result="effect1_dropShadow_151_4437"/>
<feBlend mode="normal" in="SourceGraphic" in2="effect1_dropShadow_151_4437" result="shape"/>
</filter>
<clipPath id="clip0_151_4437">
<rect width="30" height="30" fill="white" transform="translate(329 84.5)"/>
</clipPath>
<clipPath id="clip1_151_4437">
<rect width="143" height="46" fill="white" transform="translate(67.5 212)"/>
</clipPath>
<clipPath id="clip2_151_4437">
<rect width="24" height="24" fill="white" transform="translate(67.5 212)"/>
</clipPath>
</defs>
</svg>
