<svg width="460" height="343" viewBox="0 0 460 343" fill="none" xmlns="http://www.w3.org/2000/svg">
<rect width="460" height="343" rx="10" fill="#0D131C"/>
<path d="M207.446 148.096L209.066 148.834C208.652 150.148 208.13 151.39 207.482 152.578V164.89H205.754V155.242C205.232 155.926 204.674 156.574 204.08 157.204L203.522 155.386C205.286 153.298 206.6 150.868 207.446 148.096ZM209.822 148.978H218.534V154.954H215.006V156.538H220.046V158.194H216.536C217.472 159.814 218.75 161.236 220.388 162.46L219.272 163.954C217.616 162.406 216.248 160.498 215.15 158.194H215.006V164.854H213.314V158.194H213.152C212.018 160.66 210.614 162.586 208.94 163.972L207.968 162.424C209.516 161.344 210.776 159.94 211.784 158.194H208.454V156.538H213.314V154.954H209.822V148.978ZM216.842 153.316V150.616H211.514V153.316H216.842ZM222.332 148.888H228.02V150.184C227.498 151.732 226.886 153.37 226.166 155.098C227.246 156.754 227.84 158.194 227.948 159.436C227.948 160.264 227.768 160.858 227.408 161.218C226.886 161.668 225.986 161.902 224.726 161.92L224.204 160.21C224.564 160.264 224.852 160.3 225.086 160.3C225.554 160.264 225.878 160.192 226.04 160.066C226.184 159.94 226.274 159.724 226.274 159.436C226.274 158.212 225.68 156.862 224.492 155.35C225.284 153.532 225.896 151.894 226.346 150.436H223.988V164.872H222.332V148.888ZM229.928 153.892C229.316 154.504 228.668 155.062 227.984 155.53L227.12 154.18C229.244 152.668 230.864 150.688 231.998 148.258H233.51C234.482 150.49 236.138 152.452 238.514 154.126L237.596 155.53C236.876 155.026 236.228 154.504 235.652 153.928V154.882H229.928V153.892ZM235.076 153.334C234.122 152.308 233.348 151.174 232.754 149.932C232.07 151.228 231.314 152.362 230.45 153.334H235.076ZM227.336 162.694H233.672C234.428 160.786 235.076 158.482 235.634 155.746L237.308 156.196C236.768 158.626 236.12 160.786 235.346 162.694H238.118V164.332H227.336V162.694ZM229.64 156.304C230.234 157.816 230.756 159.562 231.224 161.542L229.748 161.902C229.334 160.138 228.812 158.428 228.182 156.808L229.64 156.304ZM232.502 155.656C233.006 157.114 233.456 158.788 233.852 160.696L232.394 161.074C232.034 159.346 231.584 157.708 231.044 156.124L232.502 155.656ZM243.698 149.896C244.85 149.896 245.786 150.202 246.506 150.85C247.226 151.48 247.586 152.344 247.586 153.424C247.586 154.306 247.352 155.044 246.902 155.62C246.74 155.818 246.236 156.286 245.39 157.024C245.048 157.312 244.796 157.636 244.634 157.96C244.436 158.32 244.346 158.716 244.346 159.148V159.454H242.42V159.148C242.42 158.482 242.528 157.906 242.78 157.438C243.014 156.934 243.698 156.196 244.814 155.206L245.12 154.864C245.444 154.45 245.624 154.018 245.624 153.55C245.624 152.92 245.444 152.434 245.102 152.074C244.742 151.714 244.22 151.534 243.572 151.534C242.762 151.534 242.168 151.786 241.808 152.308C241.484 152.74 241.322 153.352 241.322 154.144H239.432C239.432 152.83 239.81 151.804 240.566 151.048C241.322 150.274 242.366 149.896 243.698 149.896ZM243.374 160.426C243.752 160.426 244.076 160.534 244.328 160.786C244.58 161.02 244.706 161.326 244.706 161.704C244.706 162.082 244.562 162.388 244.31 162.64C244.058 162.874 243.734 163 243.374 163C243.014 163 242.69 162.874 242.438 162.622C242.186 162.37 242.06 162.064 242.06 161.704C242.06 161.326 242.186 161.02 242.438 160.786C242.69 160.534 243.014 160.426 243.374 160.426Z" fill="#CCD3E6"/>
<rect x="53" y="191" width="172" height="49" rx="4" fill="#243541"/>
<path d="M112.684 210.282C113.116 211.038 113.53 211.884 113.926 212.802H115.456C115.888 211.992 116.266 211.146 116.608 210.264H110.164V208.716H113.908C113.728 208.248 113.53 207.798 113.314 207.384L115.096 207.096C115.276 207.582 115.456 208.122 115.636 208.716H119.578V210.264H117.238L118.264 210.624C117.958 211.416 117.616 212.154 117.256 212.802H119.902V214.44H109.75V212.802H112.288C111.964 212.118 111.64 211.488 111.298 210.93L112.684 210.282ZM105.934 223.692H104.368L103.99 222.036C104.458 222.09 104.908 222.126 105.34 222.126C105.772 222.126 105.988 221.91 105.988 221.496V217.608C105.34 217.86 104.674 218.094 104.008 218.31L103.576 216.6C104.404 216.402 105.196 216.168 105.988 215.88V212.19H103.936V210.552H105.988V207.294H107.716V210.552H109.066V212.19H107.716V215.16C108.166 214.944 108.616 214.71 109.048 214.476V216.204C108.598 216.438 108.148 216.654 107.716 216.87V221.928C107.716 223.098 107.122 223.692 105.934 223.692ZM113.08 214.728L114.718 214.908C114.556 215.322 114.394 215.718 114.232 216.096H120.19V217.752H118.318C118.048 218.94 117.544 219.966 116.824 220.812C117.94 221.316 119.038 221.874 120.1 222.468L119.164 223.836C118.192 223.224 117.004 222.594 115.6 221.946C114.376 222.774 112.522 223.44 110.02 223.944L109.354 222.396C111.226 222.072 112.702 221.658 113.782 221.118C112.738 220.668 111.64 220.2 110.452 219.732C110.902 219.048 111.298 218.382 111.658 217.752H109.516V216.096H112.504C112.72 215.61 112.918 215.16 113.08 214.728ZM116.716 217.752H113.368C113.116 218.202 112.828 218.634 112.54 219.048C113.476 219.372 114.376 219.732 115.276 220.128C115.942 219.48 116.428 218.688 116.716 217.752ZM136.3 207.33L137.128 208.77C133.636 209.274 128.992 209.544 123.214 209.544L122.71 208.014C128.092 208.014 132.628 207.78 136.3 207.33ZM137.704 212.676V216.996H136.03V214.278H123.97V216.996H122.296V212.676H125.374C124.852 211.866 124.294 211.146 123.7 210.516L125.212 209.76C125.824 210.48 126.4 211.272 126.976 212.154L125.914 212.676H129.64C129.118 211.812 128.56 211.038 127.966 210.372L129.496 209.634C130.072 210.318 130.648 211.092 131.188 211.938L129.73 212.676H132.646C133.312 211.668 133.888 210.588 134.356 209.436L136.084 210.084C135.562 211.074 135.022 211.938 134.482 212.676H137.704ZM124.654 215.664H135.292V217.122C134.59 218.472 133.492 219.642 131.98 220.632C133.672 221.334 135.724 221.928 138.118 222.396L137.128 223.926C134.374 223.314 132.088 222.54 130.252 221.622C128.254 222.594 125.788 223.386 122.854 223.98L121.954 222.36C124.546 221.928 126.724 221.334 128.506 220.614C127.03 219.606 125.95 218.472 125.302 217.212H124.654V215.664ZM127.048 217.212C127.768 218.184 128.83 219.048 130.216 219.804C131.584 219.048 132.646 218.184 133.366 217.212H127.048ZM143.446 207.096L145.066 207.834C144.652 209.148 144.13 210.39 143.482 211.578V223.89H141.754V214.242C141.232 214.926 140.674 215.574 140.08 216.204L139.522 214.386C141.286 212.298 142.6 209.868 143.446 207.096ZM145.822 207.978H154.534V213.954H151.006V215.538H156.046V217.194H152.536C153.472 218.814 154.75 220.236 156.388 221.46L155.272 222.954C153.616 221.406 152.248 219.498 151.15 217.194H151.006V223.854H149.314V217.194H149.152C148.018 219.66 146.614 221.586 144.94 222.972L143.968 221.424C145.516 220.344 146.776 218.94 147.784 217.194H144.454V215.538H149.314V213.954H145.822V207.978ZM152.842 212.316V209.616H147.514V212.316H152.842ZM158.332 207.888H164.02V209.184C163.498 210.732 162.886 212.37 162.166 214.098C163.246 215.754 163.84 217.194 163.948 218.436C163.948 219.264 163.768 219.858 163.408 220.218C162.886 220.668 161.986 220.902 160.726 220.92L160.204 219.21C160.564 219.264 160.852 219.3 161.086 219.3C161.554 219.264 161.878 219.192 162.04 219.066C162.184 218.94 162.274 218.724 162.274 218.436C162.274 217.212 161.68 215.862 160.492 214.35C161.284 212.532 161.896 210.894 162.346 209.436H159.988V223.872H158.332V207.888ZM165.928 212.892C165.316 213.504 164.668 214.062 163.984 214.53L163.12 213.18C165.244 211.668 166.864 209.688 167.998 207.258H169.51C170.482 209.49 172.138 211.452 174.514 213.126L173.596 214.53C172.876 214.026 172.228 213.504 171.652 212.928V213.882H165.928V212.892ZM171.076 212.334C170.122 211.308 169.348 210.174 168.754 208.932C168.07 210.228 167.314 211.362 166.45 212.334H171.076ZM163.336 221.694H169.672C170.428 219.786 171.076 217.482 171.634 214.746L173.308 215.196C172.768 217.626 172.12 219.786 171.346 221.694H174.118V223.332H163.336V221.694ZM165.64 215.304C166.234 216.816 166.756 218.562 167.224 220.542L165.748 220.902C165.334 219.138 164.812 217.428 164.182 215.808L165.64 215.304ZM168.502 214.656C169.006 216.114 169.456 217.788 169.852 219.696L168.394 220.074C168.034 218.346 167.584 216.708 167.044 215.124L168.502 214.656Z" fill="#CCD3E6"/>
<rect x="235" y="191" width="172" height="49" rx="4" fill="#243541"/>
<path d="M315.76 208.068H331.24V209.742H325.426C325.102 210.426 324.76 211.092 324.382 211.722V223.89H322.618V214.17C320.962 216.096 318.874 217.824 316.336 219.336L315.202 217.842C319.144 215.61 321.916 212.91 323.5 209.742H315.76V208.068ZM326.65 212.964C328.666 214.548 330.376 216.15 331.762 217.734L330.412 219.084C329.224 217.554 327.568 215.916 325.426 214.152L326.65 212.964Z" fill="#CCD3E6"/>
</svg>
