<svg width="460" height="343" viewBox="0 0 460 343" fill="none" xmlns="http://www.w3.org/2000/svg">
<rect width="460" height="343" rx="10" fill="#0D131C"/>
<path d="M195.876 163.18C194.46 163.18 193.446 162.856 192.834 162.208C192.222 161.56 191.916 160.636 191.916 159.436V153.136H193.518V159.454C193.518 160.258 193.71 160.858 194.094 161.254C194.478 161.65 195.072 161.848 195.876 161.848C196.692 161.848 197.292 161.65 197.676 161.254C198.072 160.858 198.27 160.258 198.27 159.454V149.59H199.872V159.436C199.872 160.636 199.56 161.56 198.936 162.208C198.324 162.856 197.304 163.18 195.876 163.18ZM205.586 163.18C204.878 163.18 204.218 163.114 203.606 162.982C203.006 162.838 202.496 162.67 202.076 162.478L202.544 161.182C202.796 161.278 203.084 161.38 203.408 161.488C203.732 161.596 204.08 161.686 204.452 161.758C204.836 161.818 205.226 161.848 205.622 161.848C206.258 161.848 206.786 161.728 207.206 161.488C207.626 161.248 207.836 160.9 207.836 160.444C207.836 160.168 207.758 159.934 207.602 159.742C207.458 159.538 207.23 159.352 206.918 159.184C206.606 159.016 206.204 158.854 205.712 158.698C204.956 158.458 204.314 158.206 203.786 157.942C203.27 157.666 202.874 157.342 202.598 156.97C202.334 156.586 202.202 156.112 202.202 155.548C202.202 155.044 202.334 154.6 202.598 154.216C202.874 153.82 203.294 153.514 203.858 153.298C204.434 153.07 205.166 152.956 206.054 152.956C206.63 152.956 207.17 153.01 207.674 153.118C208.19 153.214 208.592 153.352 208.88 153.532V154.882C208.676 154.786 208.418 154.69 208.106 154.594C207.806 154.498 207.476 154.42 207.116 154.36C206.756 154.3 206.384 154.27 206 154.27C205.196 154.27 204.626 154.396 204.29 154.648C203.966 154.888 203.804 155.164 203.804 155.476C203.804 155.74 203.876 155.962 204.02 156.142C204.176 156.322 204.434 156.496 204.794 156.664C205.166 156.832 205.664 157.024 206.288 157.24C206.864 157.432 207.392 157.654 207.872 157.906C208.352 158.158 208.73 158.476 209.006 158.86C209.294 159.232 209.438 159.712 209.438 160.3C209.438 160.804 209.312 161.278 209.06 161.722C208.82 162.154 208.418 162.508 207.854 162.784C207.29 163.048 206.534 163.18 205.586 163.18ZM212.9 156.808C212.408 156.808 212.006 156.736 211.694 156.592C211.394 156.436 211.178 156.244 211.046 156.016C210.914 155.776 210.848 155.524 210.848 155.26C210.848 155.08 210.872 154.894 210.92 154.702C210.98 154.51 211.052 154.348 211.136 154.216L212.486 154.432C212.462 154.492 212.432 154.576 212.396 154.684C212.372 154.792 212.36 154.9 212.36 155.008C212.36 155.164 212.402 155.296 212.486 155.404C212.57 155.5 212.726 155.548 212.954 155.548H215.528V156.808H212.9ZM212.9 161.848C212.408 161.848 212.006 161.776 211.694 161.632C211.394 161.476 211.178 161.284 211.046 161.056C210.914 160.816 210.848 160.564 210.848 160.3C210.848 160.12 210.872 159.934 210.92 159.742C210.98 159.55 211.052 159.388 211.136 159.256L212.486 159.472C212.462 159.532 212.432 159.616 212.396 159.724C212.372 159.832 212.36 159.94 212.36 160.048C212.36 160.204 212.402 160.336 212.486 160.444C212.57 160.54 212.726 160.588 212.954 160.588H215.528V161.848H212.9ZM217.596 163V159.58C217.596 158.824 217.764 158.278 218.1 157.942C218.436 157.594 218.862 157.354 219.378 157.222L219.396 157.168L217.416 156.412V155.818C217.416 155.326 217.578 154.864 217.902 154.432C218.226 153.988 218.688 153.634 219.288 153.37C219.9 153.094 220.626 152.956 221.466 152.956C222.198 152.956 222.876 153.076 223.5 153.316C224.124 153.544 224.622 153.91 224.994 154.414C225.378 154.906 225.57 155.554 225.57 156.358V163H223.968V156.52C223.968 155.716 223.722 155.146 223.23 154.81C222.75 154.462 222.156 154.288 221.448 154.288C220.716 154.288 220.134 154.444 219.702 154.756C219.27 155.056 219.054 155.44 219.054 155.908L220.998 156.88L220.854 157.744C220.41 157.744 220.02 157.894 219.684 158.194C219.36 158.482 219.198 158.944 219.198 159.58V163H217.596ZM223.097 151.57C222.593 151.57 222.191 151.498 221.891 151.354C221.591 151.21 221.375 151.024 221.243 150.796C221.099 150.568 221.027 150.328 221.027 150.076C221.027 149.896 221.057 149.704 221.117 149.5C221.165 149.284 221.231 149.11 221.315 148.978L222.665 149.212C222.641 149.26 222.617 149.344 222.593 149.464C222.569 149.572 222.557 149.674 222.557 149.77C222.557 149.926 222.605 150.064 222.701 150.184C222.797 150.292 222.959 150.346 223.187 150.346H227.741V151.57H223.097ZM231.881 163.18C231.173 163.18 230.561 163.06 230.045 162.82C229.541 162.568 229.151 162.19 228.875 161.686C228.611 161.182 228.479 160.528 228.479 159.724V153.136H230.081V159.634C230.081 160.354 230.261 160.9 230.621 161.272C230.993 161.644 231.527 161.83 232.223 161.83C233.063 161.83 233.711 161.56 234.167 161.02C234.635 160.48 234.869 159.754 234.869 158.842V153.136H236.471V163H235.139L235.067 161.542H234.977C234.761 162.022 234.383 162.418 233.843 162.73C233.315 163.03 232.661 163.18 231.881 163.18ZM239.644 163.18C239.428 163.18 239.218 163.156 239.014 163.108C238.81 163.072 238.606 163.006 238.402 162.91L238.582 161.794C238.666 161.818 238.762 161.842 238.87 161.866C238.978 161.89 239.08 161.902 239.176 161.902C239.368 161.902 239.506 161.848 239.59 161.74C239.674 161.62 239.716 161.434 239.716 161.182V159.508C239.716 158.764 239.854 158.23 240.13 157.906C240.406 157.57 240.802 157.342 241.318 157.222L241.336 157.168L239.266 156.412V155.818C239.266 155.326 239.422 154.864 239.734 154.432C240.058 153.988 240.526 153.634 241.138 153.37C241.75 153.094 242.482 152.956 243.334 152.956C244.078 152.956 244.762 153.076 245.386 153.316C246.01 153.544 246.508 153.91 246.88 154.414C247.264 154.906 247.456 155.554 247.456 156.358V163H245.854V156.52C245.854 155.716 245.608 155.146 245.116 154.81C244.624 154.462 244.024 154.288 243.316 154.288C242.572 154.288 241.984 154.444 241.552 154.756C241.12 155.056 240.904 155.44 240.904 155.908L242.956 156.88L242.812 157.744C242.368 157.744 242.008 157.888 241.732 158.176C241.456 158.464 241.318 158.926 241.318 159.562V161.308C241.318 162.04 241.156 162.538 240.832 162.802C240.508 163.054 240.112 163.18 239.644 163.18ZM244.965 151.57C244.461 151.57 244.059 151.498 243.759 151.354C243.459 151.21 243.243 151.024 243.111 150.796C242.967 150.568 242.895 150.328 242.895 150.076C242.895 149.896 242.925 149.704 242.985 149.5C243.033 149.284 243.099 149.11 243.183 148.978L244.533 149.212C244.509 149.26 244.485 149.344 244.461 149.464C244.437 149.572 244.425 149.674 244.425 149.77C244.425 149.926 244.473 150.064 244.569 150.184C244.665 150.292 244.827 150.346 245.055 150.346H249.609V151.57H244.965ZM254.161 163.162C253.189 163.162 252.409 163.036 251.821 162.784C251.245 162.532 250.825 162.178 250.561 161.722C250.309 161.266 250.183 160.726 250.183 160.102C250.183 159.55 250.261 159.112 250.417 158.788C250.585 158.452 250.789 158.206 251.029 158.05C251.281 157.894 251.539 157.792 251.803 157.744V157.672C251.563 157.6 251.311 157.48 251.047 157.312C250.783 157.144 250.561 156.91 250.381 156.61C250.213 156.31 250.129 155.932 250.129 155.476C250.129 155.056 250.225 154.66 250.417 154.288C250.609 153.916 250.921 153.61 251.353 153.37C251.785 153.13 252.355 153.01 253.063 153.01C253.351 153.01 253.651 153.034 253.963 153.082C254.275 153.118 254.515 153.184 254.683 153.28L254.395 154.522C254.263 154.474 254.089 154.432 253.873 154.396C253.669 154.348 253.453 154.324 253.225 154.324C252.721 154.324 252.349 154.444 252.109 154.684C251.869 154.912 251.749 155.218 251.749 155.602C251.749 156.022 251.851 156.34 252.055 156.556C252.271 156.772 252.541 156.922 252.865 157.006C253.201 157.078 253.549 157.114 253.909 157.114H254.251V158.284H253.909C253.189 158.284 252.655 158.416 252.307 158.68C251.971 158.932 251.803 159.358 251.803 159.958C251.803 160.306 251.869 160.624 252.001 160.912C252.145 161.2 252.385 161.428 252.721 161.596C253.069 161.764 253.549 161.848 254.161 161.848C254.773 161.848 255.247 161.764 255.583 161.596C255.931 161.428 256.177 161.188 256.321 160.876C256.465 160.552 256.537 160.168 256.537 159.724V153.136H258.139V159.616C258.139 160.876 257.815 161.782 257.167 162.334C256.531 162.886 255.529 163.162 254.161 163.162ZM264.759 149.896C265.929 149.896 266.865 150.202 267.585 150.85C268.287 151.48 268.647 152.344 268.647 153.424C268.647 154.306 268.413 155.044 267.981 155.62C267.819 155.818 267.315 156.286 266.451 157.024C266.127 157.312 265.875 157.618 265.713 157.942C265.515 158.302 265.425 158.698 265.425 159.148V159.454H263.499V159.148C263.499 158.482 263.607 157.906 263.841 157.438C264.093 156.934 264.777 156.196 265.893 155.206L266.199 154.864C266.523 154.45 266.685 154.018 266.685 153.55C266.685 152.92 266.505 152.434 266.163 152.074C265.803 151.714 265.299 151.534 264.651 151.534C263.841 151.534 263.247 151.786 262.887 152.29C262.563 152.722 262.401 153.352 262.401 154.144H260.493C260.493 152.83 260.871 151.804 261.645 151.048C262.401 150.274 263.445 149.896 264.759 149.896ZM264.453 160.426C264.831 160.426 265.155 160.534 265.407 160.786C265.659 161.02 265.785 161.326 265.785 161.704C265.785 162.082 265.659 162.388 265.407 162.64C265.137 162.874 264.813 163 264.453 163C264.075 163 263.769 162.874 263.535 162.622C263.265 162.37 263.139 162.064 263.139 161.704C263.139 161.326 263.265 161.02 263.535 160.786C263.769 160.534 264.075 160.426 264.453 160.426Z" fill="#CCD3E6"/>
<rect x="53" y="191" width="172" height="49" rx="4" fill="#243541"/>
<path d="M98.8364 222.18C98.1284 222.18 97.4684 222.114 96.8564 221.982C96.2564 221.838 95.7464 221.67 95.3264 221.478L95.7944 220.182C96.0464 220.278 96.3344 220.38 96.6584 220.488C96.9824 220.596 97.3304 220.686 97.7024 220.758C98.0864 220.818 98.4764 220.848 98.8724 220.848C99.5084 220.848 100.036 220.728 100.456 220.488C100.876 220.248 101.086 219.9 101.086 219.444C101.086 219.168 101.008 218.934 100.852 218.742C100.708 218.538 100.48 218.352 100.168 218.184C99.8564 218.016 99.4544 217.854 98.9624 217.698C98.2064 217.458 97.5644 217.206 97.0364 216.942C96.5204 216.666 96.1244 216.342 95.8484 215.97C95.5844 215.586 95.4524 215.112 95.4524 214.548C95.4524 214.044 95.5844 213.6 95.8484 213.216C96.1244 212.82 96.5444 212.514 97.1084 212.298C97.6844 212.07 98.4164 211.956 99.3044 211.956C99.8804 211.956 100.42 212.01 100.924 212.118C101.44 212.214 101.842 212.352 102.13 212.532V213.882C101.926 213.786 101.668 213.69 101.356 213.594C101.056 213.498 100.726 213.42 100.366 213.36C100.006 213.3 99.6344 213.27 99.2504 213.27C98.4464 213.27 97.8764 213.396 97.5404 213.648C97.2164 213.888 97.0544 214.164 97.0544 214.476C97.0544 214.74 97.1264 214.962 97.2704 215.142C97.4264 215.322 97.6844 215.496 98.0444 215.664C98.4164 215.832 98.9144 216.024 99.5384 216.24C100.114 216.432 100.642 216.654 101.122 216.906C101.602 217.158 101.98 217.476 102.256 217.86C102.544 218.232 102.688 218.712 102.688 219.3C102.688 219.804 102.562 220.278 102.31 220.722C102.07 221.154 101.668 221.508 101.104 221.784C100.54 222.048 99.7844 222.18 98.8364 222.18ZM100.386 210.57C99.8824 210.57 99.4804 210.498 99.1804 210.354C98.8804 210.21 98.6644 210.024 98.5324 209.796C98.3884 209.568 98.3164 209.328 98.3164 209.076C98.3164 208.896 98.3464 208.704 98.4064 208.5C98.4544 208.284 98.5204 208.11 98.6044 207.978L99.9544 208.212C99.9304 208.26 99.9064 208.344 99.8824 208.464C99.8584 208.572 99.8464 208.674 99.8464 208.77C99.8464 208.926 99.8944 209.064 99.9904 209.184C100.086 209.292 100.248 209.346 100.476 209.346H105.03V210.57H100.386ZM108.814 222.18C107.398 222.18 106.384 221.856 105.772 221.208C105.16 220.56 104.854 219.636 104.854 218.436V212.136H106.456V218.454C106.456 219.258 106.648 219.858 107.032 220.254C107.416 220.65 108.01 220.848 108.814 220.848C109.63 220.848 110.23 220.65 110.614 220.254C111.01 219.858 111.208 219.258 111.208 218.454V212.136H112.81V218.436C112.81 219.636 112.498 220.56 111.874 221.208C111.262 221.856 110.242 222.18 108.814 222.18ZM119.677 222.18C118.261 222.18 117.247 221.856 116.635 221.208C116.023 220.56 115.717 219.636 115.717 218.436V212.136H117.319V218.454C117.319 219.258 117.511 219.858 117.895 220.254C118.279 220.65 118.873 220.848 119.677 220.848C120.493 220.848 121.093 220.65 121.477 220.254C121.873 219.858 122.071 219.258 122.071 218.454V208.59H123.673V218.436C123.673 219.636 123.361 220.56 122.737 221.208C122.125 221.856 121.105 222.18 119.677 222.18ZM129.387 222.18C128.679 222.18 128.019 222.114 127.407 221.982C126.807 221.838 126.297 221.67 125.877 221.478L126.345 220.182C126.597 220.278 126.885 220.38 127.209 220.488C127.533 220.596 127.881 220.686 128.253 220.758C128.637 220.818 129.027 220.848 129.423 220.848C130.059 220.848 130.587 220.728 131.007 220.488C131.427 220.248 131.637 219.9 131.637 219.444C131.637 219.168 131.559 218.934 131.403 218.742C131.259 218.538 131.031 218.352 130.719 218.184C130.407 218.016 130.005 217.854 129.513 217.698C128.757 217.458 128.115 217.206 127.587 216.942C127.071 216.666 126.675 216.342 126.399 215.97C126.135 215.586 126.003 215.112 126.003 214.548C126.003 214.044 126.135 213.6 126.399 213.216C126.675 212.82 127.095 212.514 127.659 212.298C128.235 212.07 128.967 211.956 129.855 211.956C130.431 211.956 130.971 212.01 131.475 212.118C131.991 212.214 132.393 212.352 132.681 212.532V213.882C132.477 213.786 132.219 213.69 131.907 213.594C131.607 213.498 131.277 213.42 130.917 213.36C130.557 213.3 130.185 213.27 129.801 213.27C128.997 213.27 128.427 213.396 128.091 213.648C127.767 213.888 127.605 214.164 127.605 214.476C127.605 214.74 127.677 214.962 127.821 215.142C127.977 215.322 128.235 215.496 128.595 215.664C128.967 215.832 129.465 216.024 130.089 216.24C130.665 216.432 131.193 216.654 131.673 216.906C132.153 217.158 132.531 217.476 132.807 217.86C133.095 218.232 133.239 218.712 133.239 219.3C133.239 219.804 133.113 220.278 132.861 220.722C132.621 221.154 132.219 221.508 131.655 221.784C131.091 222.048 130.335 222.18 129.387 222.18ZM136.7 215.808C136.208 215.808 135.806 215.736 135.494 215.592C135.194 215.436 134.978 215.244 134.846 215.016C134.714 214.776 134.648 214.524 134.648 214.26C134.648 214.08 134.672 213.894 134.72 213.702C134.78 213.51 134.852 213.348 134.936 213.216L136.286 213.432C136.262 213.492 136.232 213.576 136.196 213.684C136.172 213.792 136.16 213.9 136.16 214.008C136.16 214.164 136.202 214.296 136.286 214.404C136.37 214.5 136.526 214.548 136.754 214.548H139.328V215.808H136.7ZM136.7 220.848C136.208 220.848 135.806 220.776 135.494 220.632C135.194 220.476 134.978 220.284 134.846 220.056C134.714 219.816 134.648 219.564 134.648 219.3C134.648 219.12 134.672 218.934 134.72 218.742C134.78 218.55 134.852 218.388 134.936 218.256L136.286 218.472C136.262 218.532 136.232 218.616 136.196 218.724C136.172 218.832 136.16 218.94 136.16 219.048C136.16 219.204 136.202 219.336 136.286 219.444C136.37 219.54 136.526 219.588 136.754 219.588H139.328V220.848H136.7ZM141.396 222V218.58C141.396 217.824 141.564 217.278 141.9 216.942C142.236 216.594 142.662 216.354 143.178 216.222L143.196 216.168L141.216 215.412V214.818C141.216 214.326 141.378 213.864 141.702 213.432C142.026 212.988 142.488 212.634 143.088 212.37C143.7 212.094 144.426 211.956 145.266 211.956C145.998 211.956 146.676 212.076 147.3 212.316C147.924 212.544 148.422 212.91 148.794 213.414C149.178 213.906 149.37 214.554 149.37 215.358V222H147.768V215.52C147.768 214.716 147.522 214.146 147.03 213.81C146.55 213.462 145.956 213.288 145.248 213.288C144.516 213.288 143.934 213.444 143.502 213.756C143.07 214.056 142.854 214.44 142.854 214.908L144.798 215.88L144.654 216.744C144.21 216.744 143.82 216.894 143.484 217.194C143.16 217.482 142.998 217.944 142.998 218.58V222H141.396ZM146.898 210.57C146.394 210.57 145.992 210.498 145.692 210.354C145.392 210.21 145.176 210.024 145.044 209.796C144.9 209.568 144.828 209.328 144.828 209.076C144.828 208.896 144.858 208.704 144.918 208.5C144.966 208.284 145.032 208.11 145.116 207.978L146.466 208.212C146.442 208.26 146.418 208.344 146.394 208.464C146.37 208.572 146.358 208.674 146.358 208.77C146.358 208.926 146.406 209.064 146.502 209.184C146.598 209.292 146.76 209.346 146.988 209.346H151.542V210.57H146.898ZM155.681 222.18C154.973 222.18 154.361 222.06 153.845 221.82C153.341 221.568 152.951 221.19 152.675 220.686C152.411 220.182 152.279 219.528 152.279 218.724V212.136H153.881V218.634C153.881 219.354 154.061 219.9 154.421 220.272C154.793 220.644 155.327 220.83 156.023 220.83C156.863 220.83 157.511 220.56 157.967 220.02C158.435 219.48 158.669 218.754 158.669 217.842V212.136H160.271V222H158.939L158.867 220.542H158.777C158.561 221.022 158.183 221.418 157.643 221.73C157.115 222.03 156.461 222.18 155.681 222.18ZM163.444 222.18C163.228 222.18 163.018 222.156 162.814 222.108C162.61 222.072 162.406 222.006 162.202 221.91L162.382 220.794C162.466 220.818 162.562 220.842 162.67 220.866C162.778 220.89 162.88 220.902 162.976 220.902C163.168 220.902 163.306 220.848 163.39 220.74C163.474 220.62 163.516 220.434 163.516 220.182V218.508C163.516 217.764 163.654 217.23 163.93 216.906C164.206 216.57 164.602 216.342 165.118 216.222L165.136 216.168L163.066 215.412V214.818C163.066 214.326 163.222 213.864 163.534 213.432C163.858 212.988 164.326 212.634 164.938 212.37C165.55 212.094 166.282 211.956 167.134 211.956C167.878 211.956 168.562 212.076 169.186 212.316C169.81 212.544 170.308 212.91 170.68 213.414C171.064 213.906 171.256 214.554 171.256 215.358V222H169.654V215.52C169.654 214.716 169.408 214.146 168.916 213.81C168.424 213.462 167.824 213.288 167.116 213.288C166.372 213.288 165.784 213.444 165.352 213.756C164.92 214.056 164.704 214.44 164.704 214.908L166.756 215.88L166.612 216.744C166.168 216.744 165.808 216.888 165.532 217.176C165.256 217.464 165.118 217.926 165.118 218.562V220.308C165.118 221.04 164.956 221.538 164.632 221.802C164.308 222.054 163.912 222.18 163.444 222.18ZM168.765 210.57C168.261 210.57 167.859 210.498 167.559 210.354C167.259 210.21 167.043 210.024 166.911 209.796C166.767 209.568 166.695 209.328 166.695 209.076C166.695 208.896 166.725 208.704 166.785 208.5C166.833 208.284 166.899 208.11 166.983 207.978L168.333 208.212C168.309 208.26 168.285 208.344 168.261 208.464C168.237 208.572 168.225 208.674 168.225 208.77C168.225 208.926 168.273 209.064 168.369 209.184C168.465 209.292 168.627 209.346 168.855 209.346H173.409V210.57H168.765ZM177.962 222.162C176.99 222.162 176.21 222.036 175.622 221.784C175.046 221.532 174.626 221.178 174.362 220.722C174.11 220.266 173.984 219.726 173.984 219.102C173.984 218.55 174.062 218.112 174.218 217.788C174.386 217.452 174.59 217.206 174.83 217.05C175.082 216.894 175.34 216.792 175.604 216.744V216.672C175.364 216.6 175.112 216.48 174.848 216.312C174.584 216.144 174.362 215.91 174.182 215.61C174.014 215.31 173.93 214.932 173.93 214.476C173.93 214.056 174.026 213.66 174.218 213.288C174.41 212.916 174.722 212.61 175.154 212.37C175.586 212.13 176.156 212.01 176.864 212.01C177.152 212.01 177.452 212.034 177.764 212.082C178.076 212.118 178.316 212.184 178.484 212.28L178.196 213.522C178.064 213.474 177.89 213.432 177.674 213.396C177.47 213.348 177.254 213.324 177.026 213.324C176.522 213.324 176.15 213.444 175.91 213.684C175.67 213.912 175.55 214.218 175.55 214.602C175.55 215.022 175.652 215.34 175.856 215.556C176.072 215.772 176.342 215.922 176.666 216.006C177.002 216.078 177.35 216.114 177.71 216.114H178.052V217.284H177.71C176.99 217.284 176.456 217.416 176.108 217.68C175.772 217.932 175.604 218.358 175.604 218.958C175.604 219.306 175.67 219.624 175.802 219.912C175.946 220.2 176.186 220.428 176.522 220.596C176.87 220.764 177.35 220.848 177.962 220.848C178.574 220.848 179.048 220.764 179.384 220.596C179.732 220.428 179.978 220.188 180.122 219.876C180.266 219.552 180.338 219.168 180.338 218.724V212.136H181.94V218.616C181.94 219.876 181.616 220.782 180.968 221.334C180.332 221.886 179.33 222.162 177.962 222.162Z" fill="#CCD3E6"/>
<rect x="235" y="191" width="172" height="49" rx="4" fill="#243541"/>
<path d="M288.298 213.936V210.714C288.298 210.258 288.34 209.892 288.424 209.616C288.508 209.328 288.622 209.094 288.766 208.914C288.91 208.734 289.066 208.584 289.234 208.464L289.216 208.392H286.084L286.498 207.132H291.574V208.392C291.13 208.392 290.74 208.536 290.404 208.824C290.068 209.112 289.9 209.64 289.9 210.408V213.936H288.298ZM290.26 222.18C289.936 222.18 289.624 222.126 289.324 222.018C289.024 221.91 288.778 221.718 288.586 221.442C288.394 221.166 288.298 220.782 288.298 220.29V212.136H289.9V220.092C289.9 220.368 289.96 220.566 290.08 220.686C290.2 220.806 290.392 220.866 290.656 220.866C290.764 220.866 290.878 220.854 290.998 220.83C291.118 220.806 291.232 220.776 291.34 220.74L291.556 221.91C291.328 222.018 291.106 222.09 290.89 222.126C290.674 222.162 290.464 222.18 290.26 222.18ZM297.995 222.18C297.227 222.18 296.561 222.03 295.997 221.73C295.445 221.418 295.067 220.986 294.863 220.434H294.791L294.701 222H293.387V212.136H294.989V217.842C294.989 218.442 295.091 218.97 295.295 219.426C295.511 219.87 295.817 220.218 296.213 220.47C296.621 220.71 297.107 220.83 297.671 220.83C298.379 220.83 298.907 220.644 299.255 220.272C299.603 219.9 299.777 219.354 299.777 218.634V212.136H301.379V218.742C301.379 219.534 301.241 220.182 300.965 220.686C300.701 221.19 300.317 221.568 299.813 221.82C299.309 222.06 298.703 222.18 297.995 222.18ZM299.778 210.57V206.772H301.362V210.57H299.778ZM309.052 222.18C308.284 222.18 307.618 222.03 307.054 221.73C306.502 221.418 306.124 220.986 305.92 220.434H305.848L305.758 222H304.444V212.136H306.046V217.842C306.046 218.442 306.148 218.97 306.352 219.426C306.568 219.87 306.874 220.218 307.27 220.47C307.678 220.71 308.164 220.83 308.728 220.83C309.436 220.83 309.964 220.644 310.312 220.272C310.66 219.9 310.834 219.354 310.834 218.634V212.136H312.436V218.742C312.436 219.534 312.298 220.182 312.022 220.686C311.758 221.19 311.374 221.568 310.87 221.82C310.366 222.06 309.76 222.18 309.052 222.18ZM304.787 210.57V209.868L306.101 209.292H312.437V210.57H304.787ZM310.943 209.868V207.834H312.455V209.868H310.943ZM319.316 222.18C317.9 222.18 316.886 221.856 316.274 221.208C315.662 220.56 315.356 219.636 315.356 218.436V212.136H316.958V218.454C316.958 219.258 317.15 219.858 317.534 220.254C317.918 220.65 318.512 220.848 319.316 220.848C320.132 220.848 320.732 220.65 321.116 220.254C321.512 219.858 321.71 219.258 321.71 218.454V208.59H323.312V218.436C323.312 219.636 323 220.56 322.376 221.208C321.764 221.856 320.744 222.18 319.316 222.18ZM329.027 222.18C328.319 222.18 327.659 222.114 327.047 221.982C326.447 221.838 325.937 221.67 325.517 221.478L325.985 220.182C326.237 220.278 326.525 220.38 326.849 220.488C327.173 220.596 327.521 220.686 327.893 220.758C328.277 220.818 328.667 220.848 329.063 220.848C329.699 220.848 330.227 220.728 330.647 220.488C331.067 220.248 331.277 219.9 331.277 219.444C331.277 219.168 331.199 218.934 331.043 218.742C330.899 218.538 330.671 218.352 330.359 218.184C330.047 218.016 329.645 217.854 329.153 217.698C328.397 217.458 327.755 217.206 327.227 216.942C326.711 216.666 326.315 216.342 326.039 215.97C325.775 215.586 325.643 215.112 325.643 214.548C325.643 214.044 325.775 213.6 326.039 213.216C326.315 212.82 326.735 212.514 327.299 212.298C327.875 212.07 328.607 211.956 329.495 211.956C330.071 211.956 330.611 212.01 331.115 212.118C331.631 212.214 332.033 212.352 332.321 212.532V213.882C332.117 213.786 331.859 213.69 331.547 213.594C331.247 213.498 330.917 213.42 330.557 213.36C330.197 213.3 329.825 213.27 329.441 213.27C328.637 213.27 328.067 213.396 327.731 213.648C327.407 213.888 327.245 214.164 327.245 214.476C327.245 214.74 327.317 214.962 327.461 215.142C327.617 215.322 327.875 215.496 328.235 215.664C328.607 215.832 329.105 216.024 329.729 216.24C330.305 216.432 330.833 216.654 331.313 216.906C331.793 217.158 332.171 217.476 332.447 217.86C332.735 218.232 332.879 218.712 332.879 219.3C332.879 219.804 332.753 220.278 332.501 220.722C332.261 221.154 331.859 221.508 331.295 221.784C330.731 222.048 329.975 222.18 329.027 222.18ZM336.34 215.808C335.848 215.808 335.446 215.736 335.134 215.592C334.834 215.436 334.618 215.244 334.486 215.016C334.354 214.776 334.288 214.524 334.288 214.26C334.288 214.08 334.312 213.894 334.36 213.702C334.42 213.51 334.492 213.348 334.576 213.216L335.926 213.432C335.902 213.492 335.872 213.576 335.836 213.684C335.812 213.792 335.8 213.9 335.8 214.008C335.8 214.164 335.842 214.296 335.926 214.404C336.01 214.5 336.166 214.548 336.394 214.548H338.968V215.808H336.34ZM336.34 220.848C335.848 220.848 335.446 220.776 335.134 220.632C334.834 220.476 334.618 220.284 334.486 220.056C334.354 219.816 334.288 219.564 334.288 219.3C334.288 219.12 334.312 218.934 334.36 218.742C334.42 218.55 334.492 218.388 334.576 218.256L335.926 218.472C335.902 218.532 335.872 218.616 335.836 218.724C335.812 218.832 335.8 218.94 335.8 219.048C335.8 219.204 335.842 219.336 335.926 219.444C336.01 219.54 336.166 219.588 336.394 219.588H338.968V220.848H336.34ZM341.036 222V218.58C341.036 217.824 341.204 217.278 341.54 216.942C341.876 216.594 342.302 216.354 342.818 216.222L342.836 216.168L340.856 215.412V214.818C340.856 214.326 341.018 213.864 341.342 213.432C341.666 212.988 342.128 212.634 342.728 212.37C343.34 212.094 344.066 211.956 344.906 211.956C345.638 211.956 346.316 212.076 346.94 212.316C347.564 212.544 348.062 212.91 348.434 213.414C348.818 213.906 349.01 214.554 349.01 215.358V222H347.408V215.52C347.408 214.716 347.162 214.146 346.67 213.81C346.19 213.462 345.596 213.288 344.888 213.288C344.156 213.288 343.574 213.444 343.142 213.756C342.71 214.056 342.494 214.44 342.494 214.908L344.438 215.88L344.294 216.744C343.85 216.744 343.46 216.894 343.124 217.194C342.8 217.482 342.638 217.944 342.638 218.58V222H341.036ZM346.538 210.57C346.034 210.57 345.632 210.498 345.332 210.354C345.032 210.21 344.816 210.024 344.684 209.796C344.54 209.568 344.468 209.328 344.468 209.076C344.468 208.896 344.498 208.704 344.558 208.5C344.606 208.284 344.672 208.11 344.756 207.978L346.106 208.212C346.082 208.26 346.058 208.344 346.034 208.464C346.01 208.572 345.998 208.674 345.998 208.77C345.998 208.926 346.046 209.064 346.142 209.184C346.238 209.292 346.4 209.346 346.628 209.346H351.182V210.57H346.538ZM355.321 222.18C354.613 222.18 354.001 222.06 353.485 221.82C352.981 221.568 352.591 221.19 352.315 220.686C352.051 220.182 351.919 219.528 351.919 218.724V212.136H353.521V218.634C353.521 219.354 353.701 219.9 354.061 220.272C354.433 220.644 354.967 220.83 355.663 220.83C356.503 220.83 357.151 220.56 357.607 220.02C358.075 219.48 358.309 218.754 358.309 217.842V212.136H359.911V222H358.579L358.507 220.542H358.417C358.201 221.022 357.823 221.418 357.283 221.73C356.755 222.03 356.101 222.18 355.321 222.18Z" fill="#CCD3E6"/>
</svg>
