<svg width="460" height="343" viewBox="0 0 460 343" fill="none" xmlns="http://www.w3.org/2000/svg">
<rect width="460" height="343" rx="10" fill="#0D131C"/>
<path d="M186.049 136.148H191.917C193.177 136.148 194.149 136.436 194.869 137.048C195.553 137.624 195.895 138.398 195.895 139.388C195.895 140.108 195.715 140.72 195.355 141.224C194.995 141.692 194.509 142.052 193.861 142.286C194.707 142.448 195.355 142.79 195.787 143.312C196.219 143.834 196.435 144.536 196.435 145.4C196.435 146.696 195.985 147.632 195.103 148.244C194.347 148.748 193.285 149 191.917 149H186.049V136.148ZM188.011 137.768V141.602H191.395C192.295 141.602 192.943 141.44 193.339 141.134C193.735 140.81 193.933 140.306 193.933 139.622C193.933 138.974 193.735 138.506 193.339 138.218C192.943 137.912 192.295 137.768 191.431 137.768H188.011ZM188.011 143.204V147.38H191.647C192.475 147.38 193.123 147.236 193.591 146.984C194.167 146.642 194.473 146.102 194.473 145.364C194.473 144.608 194.239 144.05 193.789 143.708C193.339 143.366 192.637 143.204 191.701 143.204H188.011ZM202.42 139.442C203.788 139.442 204.796 139.784 205.444 140.468C206.002 141.062 206.29 141.926 206.29 143.06V149H204.526V147.686C204.166 148.154 203.716 148.532 203.176 148.802C202.564 149.09 201.844 149.252 201.016 149.252C200.044 149.252 199.288 149 198.748 148.514C198.154 148.028 197.866 147.398 197.866 146.624C197.866 145.58 198.28 144.77 199.108 144.212C199.864 143.672 200.944 143.402 202.312 143.366L204.4 143.312V142.934C204.4 141.638 203.698 140.99 202.294 140.99C201.7 140.99 201.214 141.098 200.854 141.314C200.422 141.566 200.152 141.944 200.044 142.466L198.154 142.304C198.352 141.296 198.856 140.54 199.648 140.072C200.332 139.64 201.268 139.442 202.42 139.442ZM204.4 144.698L202.438 144.752C200.692 144.788 199.828 145.4 199.828 146.552C199.828 146.912 199.972 147.2 200.278 147.434C200.566 147.668 200.962 147.794 201.448 147.794C202.258 147.794 202.942 147.542 203.518 147.056C204.094 146.57 204.4 145.958 204.4 145.238V144.698ZM202.118 134.698C203.396 134.698 204.044 135.148 204.044 136.066C204.044 136.804 203.45 137.398 202.28 137.848L201.776 137.326C202.64 136.894 203.072 136.48 203.072 136.084C203.072 135.688 202.712 135.49 202.01 135.49C201.524 135.49 201.02 135.616 200.498 135.868V134.986C201.038 134.788 201.578 134.698 202.118 134.698ZM212.759 139.442C214.163 139.442 215.297 139.91 216.143 140.846C216.971 141.764 217.403 142.934 217.403 144.356C217.403 145.76 216.989 146.93 216.161 147.83C215.297 148.766 214.163 149.252 212.759 149.252C211.355 149.252 210.221 148.766 209.357 147.83C208.529 146.93 208.115 145.76 208.115 144.356C208.115 142.934 208.529 141.764 209.375 140.846C210.221 139.91 211.355 139.442 212.759 139.442ZM212.759 141.008C211.877 141.008 211.193 141.35 210.707 142.052C210.275 142.646 210.077 143.42 210.077 144.356C210.077 145.292 210.275 146.048 210.707 146.642C211.193 147.326 211.877 147.686 212.759 147.686C213.641 147.686 214.325 147.326 214.829 146.642C215.261 146.03 215.477 145.274 215.477 144.356C215.477 143.42 215.261 142.646 214.829 142.052C214.325 141.35 213.641 141.008 212.759 141.008ZM225.209 135.896H227.117V141.008C227.459 140.468 227.891 140.054 228.413 139.802C228.881 139.55 229.403 139.442 229.997 139.442C231.113 139.442 231.959 139.766 232.535 140.432C233.075 141.062 233.345 141.998 233.345 143.222V149H231.437V143.546C231.437 142.718 231.257 142.106 230.933 141.674C230.573 141.224 230.015 141.008 229.295 141.008C228.647 141.008 228.125 141.26 227.729 141.782C227.315 142.304 227.117 142.97 227.117 143.78V149H225.209V135.896ZM236.86 135.968C237.238 135.968 237.562 136.076 237.814 136.328C238.066 136.562 238.192 136.868 238.192 137.246C238.192 137.624 238.048 137.93 237.796 138.182C237.544 138.416 237.22 138.542 236.86 138.542C236.482 138.542 236.176 138.416 235.924 138.182C235.672 137.93 235.546 137.606 235.546 137.246C235.546 136.868 235.672 136.562 235.924 136.328C236.176 136.076 236.482 135.968 236.86 135.968ZM235.906 139.694H237.814V149H235.906V139.694ZM243.564 136.112H245.238L247.092 138.398H245.886L244.41 136.94L242.898 138.398H241.692L243.564 136.112ZM244.338 139.442C245.85 139.442 247.02 139.946 247.812 140.99C248.532 141.926 248.91 143.222 248.928 144.878H241.872C241.944 145.778 242.178 146.48 242.61 146.966C243.042 147.434 243.636 147.686 244.392 147.686C245.058 147.686 245.598 147.524 246.012 147.218C246.336 146.966 246.606 146.552 246.858 146.012H248.766C248.55 146.876 248.136 147.614 247.488 148.19C246.678 148.892 245.652 149.252 244.41 149.252C243.042 149.252 241.944 148.82 241.152 147.974C240.288 147.074 239.856 145.868 239.856 144.338C239.856 142.952 240.252 141.8 241.08 140.864C241.872 139.91 242.97 139.442 244.338 139.442ZM244.392 141.008C243.672 141.008 243.114 141.206 242.682 141.638C242.286 142.052 242.016 142.646 241.908 143.438H246.93C246.75 141.818 245.904 141.008 244.392 141.008ZM244.235 131.698C245.513 131.698 246.161 132.148 246.161 133.066C246.161 133.804 245.567 134.398 244.397 134.848L243.893 134.326C244.757 133.894 245.189 133.48 245.189 133.084C245.189 132.688 244.829 132.49 244.127 132.49C243.641 132.49 243.137 132.616 242.615 132.868V131.986C243.155 131.788 243.695 131.698 244.235 131.698ZM255.021 139.442C256.389 139.442 257.379 139.964 257.955 141.008C258.369 140.432 258.819 140.018 259.287 139.784C259.719 139.55 260.241 139.442 260.871 139.442C261.825 139.442 262.617 139.748 263.247 140.396C263.859 141.026 264.183 141.854 264.183 142.898V149H262.275V143.222C262.275 142.466 262.113 141.908 261.789 141.566C261.465 141.206 260.925 141.044 260.205 141.044C259.665 141.044 259.233 141.242 258.873 141.638C258.513 142.034 258.333 142.592 258.333 143.276V149H256.425V143.24C256.425 141.764 255.777 141.044 254.517 141.044C253.905 141.044 253.401 141.278 253.041 141.746C252.645 142.196 252.465 142.754 252.465 143.402V149H250.557V139.694H252.465V140.72C253.221 139.856 254.085 139.442 255.021 139.442ZM270.428 135.896C271.598 135.896 272.534 136.202 273.254 136.85C273.956 137.48 274.316 138.344 274.316 139.424C274.316 140.306 274.082 141.044 273.65 141.62C273.488 141.818 272.984 142.286 272.12 143.024C271.796 143.312 271.544 143.618 271.382 143.942C271.184 144.302 271.094 144.698 271.094 145.148V145.454H269.168V145.148C269.168 144.482 269.276 143.906 269.51 143.438C269.762 142.934 270.446 142.196 271.562 141.206L271.868 140.864C272.192 140.45 272.354 140.018 272.354 139.55C272.354 138.92 272.174 138.434 271.832 138.074C271.472 137.714 270.968 137.534 270.32 137.534C269.51 137.534 268.916 137.786 268.556 138.29C268.232 138.722 268.07 139.352 268.07 140.144H266.162C266.162 138.83 266.54 137.804 267.314 137.048C268.07 136.274 269.114 135.896 270.428 135.896ZM270.122 146.426C270.5 146.426 270.824 146.534 271.076 146.786C271.328 147.02 271.454 147.326 271.454 147.704C271.454 148.082 271.328 148.388 271.076 148.64C270.806 148.874 270.482 149 270.122 149C269.744 149 269.438 148.874 269.204 148.622C268.934 148.37 268.808 148.064 268.808 147.704C268.808 147.326 268.934 147.02 269.204 146.786C269.438 146.534 269.744 146.426 270.122 146.426Z" fill="#CCD3E6"/>
<g clip-path="url(#clip0_14_4509)">
<rect x="53" y="177" width="172" height="49" rx="4" fill="#243541"/>
<path d="M57.472 198.442C58.66 198.442 59.614 198.712 60.334 199.252C61.054 199.828 61.522 200.692 61.702 201.844H59.812C59.686 201.214 59.434 200.746 59.038 200.458C58.642 200.152 58.12 200.008 57.472 200.008C56.68 200.008 56.068 200.296 55.618 200.89C55.15 201.466 54.934 202.294 54.934 203.338C54.934 204.382 55.15 205.21 55.6 205.804C56.014 206.38 56.626 206.686 57.454 206.686C58.876 206.686 59.668 205.966 59.848 204.562H61.738C61.522 205.804 61.036 206.74 60.316 207.352C59.596 207.946 58.624 208.252 57.436 208.252C56.014 208.252 54.916 207.784 54.124 206.848C53.35 205.948 52.972 204.796 52.972 203.356C52.972 201.952 53.35 200.8 54.106 199.9C54.916 198.928 56.032 198.442 57.472 198.442ZM63.3691 194.896H65.2771V200.008C65.6191 199.468 66.0511 199.054 66.5731 198.802C67.0411 198.55 67.5631 198.442 68.1571 198.442C69.2731 198.442 70.1191 198.766 70.6951 199.432C71.2351 200.062 71.5051 200.998 71.5051 202.222V208H69.5971V202.546C69.5971 201.718 69.4171 201.106 69.0931 200.674C68.7331 200.224 68.1751 200.008 67.4551 200.008C66.8071 200.008 66.2851 200.26 65.8891 200.782C65.4751 201.304 65.2771 201.97 65.2771 202.78V208H63.3691V194.896ZM76.9278 195.112H78.6018L80.4738 197.398H79.2678L77.7558 195.94L76.2798 197.398H74.9658L76.9278 195.112ZM77.8638 198.442C79.2318 198.442 80.2398 198.784 80.8878 199.468C81.4458 200.062 81.7338 200.926 81.7338 202.06V208H79.9698V206.686C79.6098 207.154 79.1418 207.532 78.6018 207.82C77.9898 208.108 77.2698 208.252 76.4598 208.252C75.4878 208.252 74.7318 208 74.1918 207.514C73.5978 207.028 73.3098 206.398 73.3098 205.624C73.3098 204.58 73.7238 203.77 74.5518 203.212C75.3078 202.672 76.3878 202.402 77.7558 202.366L79.8438 202.312V201.934C79.8438 200.638 79.1418 199.99 77.7378 199.99C77.1438 199.99 76.6578 200.098 76.2978 200.314C75.8658 200.566 75.5958 200.944 75.4878 201.466L73.5978 201.304C73.7958 200.296 74.2998 199.54 75.0918 199.072C75.7758 198.64 76.7118 198.442 77.8638 198.442ZM79.8438 203.698L77.8818 203.752C76.1358 203.788 75.2718 204.4 75.2718 205.552C75.2718 205.912 75.4158 206.2 75.7218 206.434C76.0098 206.668 76.4058 206.794 76.8918 206.794C77.7018 206.794 78.3858 206.542 78.9618 206.056C79.5378 205.57 79.8438 204.958 79.8438 204.238V203.698ZM77.5071 191.004H79.6131L77.0571 193.632H75.7971L77.5071 191.004ZM88.5799 198.442C89.9479 198.442 91.0099 198.928 91.8019 199.9C92.5219 200.8 92.8819 201.952 92.8819 203.392C92.8819 204.76 92.5219 205.894 91.8199 206.794C91.0639 207.766 90.0019 208.252 88.6699 208.252C87.5179 208.252 86.5819 207.712 85.8259 206.632V211.564H83.9179V198.694H85.6999V199.81C86.3479 198.892 87.3199 198.442 88.5799 198.442ZM88.2919 199.99C87.4639 199.99 86.8159 200.314 86.3659 200.98C85.9699 201.556 85.7719 202.33 85.7719 203.284V203.446C85.7719 204.436 86.0059 205.246 86.5099 205.858C86.9419 206.416 87.5179 206.704 88.2379 206.704C89.1739 206.704 89.8579 206.398 90.3079 205.786C90.7039 205.21 90.9199 204.418 90.9199 203.392C90.9199 202.366 90.7219 201.574 90.3619 200.998C89.9119 200.314 89.2279 199.99 88.2919 199.99ZM105.386 198.442C107.69 198.442 108.86 199.702 108.86 202.258V208H106.952V202.42C106.952 200.836 106.214 200.044 104.774 200.044C104.234 200.044 103.748 200.224 103.352 200.62C102.92 201.052 102.65 201.646 102.578 202.402V208H100.67V198.694H102.578V199.846C102.938 199.378 103.352 199.036 103.82 198.802C104.288 198.55 104.81 198.442 105.386 198.442ZM111.041 194.896H112.949V200.008C113.291 199.468 113.723 199.054 114.245 198.802C114.713 198.55 115.235 198.442 115.829 198.442C116.945 198.442 117.791 198.766 118.367 199.432C118.907 200.062 119.177 200.998 119.177 202.222V208H117.269V202.546C117.269 201.718 117.089 201.106 116.765 200.674C116.405 200.224 115.847 200.008 115.127 200.008C114.479 200.008 113.957 200.26 113.561 200.782C113.147 201.304 112.949 201.97 112.949 202.78V208H111.041V194.896ZM125.536 198.442C126.904 198.442 127.912 198.784 128.56 199.468C129.118 200.062 129.406 200.926 129.406 202.06V208H127.642V206.686C127.282 207.154 126.832 207.532 126.292 207.802C125.68 208.09 124.96 208.252 124.132 208.252C123.16 208.252 122.404 208 121.864 207.514C121.27 207.028 120.982 206.398 120.982 205.624C120.982 204.58 121.396 203.77 122.224 203.212C122.98 202.672 124.06 202.402 125.428 202.366L127.516 202.312V201.934C127.516 200.638 126.814 199.99 125.41 199.99C124.816 199.99 124.33 200.098 123.97 200.314C123.538 200.566 123.268 200.944 123.16 201.466L121.27 201.304C121.468 200.296 121.972 199.54 122.764 199.072C123.448 198.64 124.384 198.442 125.536 198.442ZM127.516 203.698L125.554 203.752C123.808 203.788 122.944 204.4 122.944 205.552C122.944 205.912 123.088 206.2 123.394 206.434C123.682 206.668 124.078 206.794 124.564 206.794C125.374 206.794 126.058 206.542 126.634 206.056C127.21 205.57 127.516 204.958 127.516 204.238V203.698ZM125.377 209.17C125.629 209.17 125.863 209.26 126.043 209.44C126.223 209.62 126.331 209.854 126.331 210.124C126.331 210.376 126.223 210.61 126.043 210.79C125.863 210.97 125.629 211.06 125.377 211.06C125.107 211.06 124.891 210.97 124.711 210.79C124.513 210.61 124.423 210.376 124.423 210.124C124.423 209.854 124.513 209.62 124.711 209.44C124.891 209.26 125.107 209.17 125.377 209.17ZM124.549 195.112H126.223L128.077 197.398H126.871L125.377 195.94L123.901 197.398H122.695L124.549 195.112ZM136.306 198.442C138.61 198.442 139.78 199.702 139.78 202.258V208H137.872V202.42C137.872 200.836 137.134 200.044 135.694 200.044C135.154 200.044 134.668 200.224 134.272 200.62C133.84 201.052 133.57 201.646 133.498 202.402V208H131.59V198.694H133.498V199.846C133.858 199.378 134.272 199.036 134.74 198.802C135.208 198.55 135.73 198.442 136.306 198.442ZM147.955 194.896H149.863V200.08C150.619 198.982 151.555 198.442 152.707 198.442C154.039 198.442 155.083 198.928 155.857 199.9C156.559 200.8 156.919 201.934 156.919 203.302C156.919 204.724 156.559 205.894 155.839 206.794C155.047 207.766 153.985 208.252 152.617 208.252C151.339 208.252 150.385 207.784 149.737 206.884V208H147.955V194.896ZM152.275 199.99C151.555 199.99 150.979 200.26 150.547 200.836C150.043 201.448 149.809 202.258 149.809 203.266V203.428C149.809 204.364 150.007 205.12 150.403 205.714C150.853 206.362 151.501 206.704 152.329 206.704C153.265 206.704 153.949 206.362 154.399 205.696C154.759 205.12 154.957 204.328 154.957 203.302C154.957 202.276 154.759 201.484 154.363 200.944C153.913 200.296 153.211 199.99 152.275 199.99ZM162.907 198.442C164.275 198.442 165.283 198.784 165.931 199.468C166.489 200.062 166.777 200.926 166.777 202.06V208H165.013V206.686C164.653 207.154 164.203 207.532 163.663 207.802C163.051 208.09 162.331 208.252 161.503 208.252C160.531 208.252 159.775 208 159.235 207.514C158.641 207.028 158.353 206.398 158.353 205.624C158.353 204.58 158.767 203.77 159.595 203.212C160.351 202.672 161.431 202.402 162.799 202.366L164.887 202.312V201.934C164.887 200.638 164.185 199.99 162.781 199.99C162.187 199.99 161.701 200.098 161.341 200.314C160.909 200.566 160.639 200.944 160.531 201.466L158.641 201.304C158.839 200.296 159.343 199.54 160.135 199.072C160.819 198.64 161.755 198.442 162.907 198.442ZM164.887 203.698L162.925 203.752C161.179 203.788 160.315 204.4 160.315 205.552C160.315 205.912 160.459 206.2 160.765 206.434C161.053 206.668 161.449 206.794 161.935 206.794C162.745 206.794 163.429 206.542 164.005 206.056C164.581 205.57 164.887 204.958 164.887 204.238V203.698ZM162.604 193.698C163.882 193.698 164.53 194.148 164.53 195.066C164.53 195.804 163.936 196.398 162.766 196.848L162.262 196.326C163.126 195.894 163.558 195.48 163.558 195.084C163.558 194.688 163.198 194.49 162.496 194.49C162.01 194.49 161.506 194.616 160.984 194.868V193.986C161.524 193.788 162.064 193.698 162.604 193.698ZM173.245 198.442C174.649 198.442 175.783 198.91 176.629 199.846C177.457 200.764 177.889 201.934 177.889 203.356C177.889 204.76 177.475 205.93 176.647 206.83C175.783 207.766 174.649 208.252 173.245 208.252C171.841 208.252 170.707 207.766 169.843 206.83C169.015 205.93 168.601 204.76 168.601 203.356C168.601 201.934 169.015 200.764 169.861 199.846C170.707 198.91 171.841 198.442 173.245 198.442ZM173.245 200.008C172.363 200.008 171.679 200.35 171.193 201.052C170.761 201.646 170.563 202.42 170.563 203.356C170.563 204.292 170.761 205.048 171.193 205.642C171.679 206.326 172.363 206.686 173.245 206.686C174.127 206.686 174.811 206.326 175.315 205.642C175.747 205.03 175.963 204.274 175.963 203.356C175.963 202.42 175.747 201.646 175.315 201.052C174.811 200.35 174.127 200.008 173.245 200.008ZM185.695 194.896H187.603V200.008C187.945 199.468 188.377 199.054 188.899 198.802C189.367 198.55 189.889 198.442 190.483 198.442C191.599 198.442 192.445 198.766 193.021 199.432C193.561 200.062 193.831 200.998 193.831 202.222V208H191.923V202.546C191.923 201.718 191.743 201.106 191.419 200.674C191.059 200.224 190.501 200.008 189.781 200.008C189.133 200.008 188.611 200.26 188.215 200.782C187.801 201.304 187.603 201.97 187.603 202.78V208H185.695V194.896ZM197.346 194.968C197.724 194.968 198.048 195.076 198.3 195.328C198.552 195.562 198.678 195.868 198.678 196.246C198.678 196.624 198.534 196.93 198.282 197.182C198.03 197.416 197.706 197.542 197.346 197.542C196.968 197.542 196.662 197.416 196.41 197.182C196.158 196.93 196.032 196.606 196.032 196.246C196.032 195.868 196.158 195.562 196.41 195.328C196.662 195.076 196.968 194.968 197.346 194.968ZM196.392 198.694H198.3V208H196.392V198.694ZM204.051 195.112H205.725L207.579 197.398H206.373L204.897 195.94L203.385 197.398H202.179L204.051 195.112ZM204.825 198.442C206.337 198.442 207.507 198.946 208.299 199.99C209.019 200.926 209.397 202.222 209.415 203.878H202.359C202.431 204.778 202.665 205.48 203.097 205.966C203.529 206.434 204.123 206.686 204.879 206.686C205.545 206.686 206.085 206.524 206.499 206.218C206.823 205.966 207.093 205.552 207.345 205.012H209.253C209.037 205.876 208.623 206.614 207.975 207.19C207.165 207.892 206.139 208.252 204.897 208.252C203.529 208.252 202.431 207.82 201.639 206.974C200.775 206.074 200.343 204.868 200.343 203.338C200.343 201.952 200.739 200.8 201.567 199.864C202.359 198.91 203.457 198.442 204.825 198.442ZM204.879 200.008C204.159 200.008 203.601 200.206 203.169 200.638C202.773 201.052 202.503 201.646 202.395 202.438H207.417C207.237 200.818 206.391 200.008 204.879 200.008ZM204.721 190.698C205.999 190.698 206.647 191.148 206.647 192.066C206.647 192.804 206.053 193.398 204.883 193.848L204.379 193.326C205.243 192.894 205.675 192.48 205.675 192.084C205.675 191.688 205.315 191.49 204.613 191.49C204.127 191.49 203.623 191.616 203.101 191.868V190.986C203.641 190.788 204.181 190.698 204.721 190.698ZM215.507 198.442C216.875 198.442 217.865 198.964 218.441 200.008C218.855 199.432 219.305 199.018 219.773 198.784C220.205 198.55 220.727 198.442 221.357 198.442C222.311 198.442 223.103 198.748 223.733 199.396C224.345 200.026 224.669 200.854 224.669 201.898V208H222.761V202.222C222.761 201.466 222.599 200.908 222.275 200.566C221.951 200.206 221.411 200.044 220.691 200.044C220.151 200.044 219.719 200.242 219.359 200.638C218.999 201.034 218.819 201.592 218.819 202.276V208H216.911V202.24C216.911 200.764 216.263 200.044 215.003 200.044C214.391 200.044 213.887 200.278 213.527 200.746C213.131 201.196 212.951 201.754 212.951 202.402V208H211.043V198.694H212.951V199.72C213.707 198.856 214.571 198.442 215.507 198.442Z" fill="#CCD3E6"/>
</g>
<rect x="235" y="177" width="172" height="49" rx="4" fill="#243541"/>
<path d="M249.862 195.148H252.346L246.658 200.674L253.174 208H250.546L245.326 201.952L243.652 203.554V208H241.69V195.148H243.652V201.358L249.862 195.148ZM254.254 194.896H256.162V200.008C256.504 199.468 256.936 199.054 257.458 198.802C257.926 198.55 258.448 198.442 259.042 198.442C260.158 198.442 261.004 198.766 261.58 199.432C262.12 200.062 262.39 200.998 262.39 202.222V208H260.482V202.546C260.482 201.718 260.302 201.106 259.978 200.674C259.618 200.224 259.06 200.008 258.34 200.008C257.692 200.008 257.17 200.26 256.774 200.782C256.36 201.304 256.162 201.97 256.162 202.78V208H254.254V194.896ZM268.011 195.112H269.685L271.557 197.398H270.351L268.839 195.94L267.363 197.398H266.157L268.011 195.112ZM268.839 198.442C270.243 198.442 271.395 198.91 272.259 199.882C273.069 200.782 273.483 201.952 273.483 203.356C273.483 204.76 273.069 205.912 272.259 206.812C271.395 207.766 270.261 208.252 268.839 208.252C267.417 208.252 266.283 207.766 265.437 206.812C264.609 205.912 264.195 204.76 264.195 203.356C264.195 201.952 264.609 200.782 265.437 199.882C266.301 198.91 267.435 198.442 268.839 198.442ZM268.839 200.008C268.011 200.008 267.363 200.296 266.877 200.908C266.409 201.52 266.175 202.33 266.175 203.356C266.175 204.364 266.409 205.156 266.877 205.768C267.363 206.38 268.011 206.686 268.839 206.686C269.667 206.686 270.315 206.38 270.801 205.768C271.269 205.156 271.521 204.364 271.521 203.356C271.521 202.33 271.269 201.52 270.801 200.908C270.315 200.296 269.667 200.008 268.839 200.008ZM280.011 198.442C282.315 198.442 283.485 199.702 283.485 202.258V208H281.577V202.42C281.577 200.836 280.839 200.044 279.399 200.044C278.859 200.044 278.373 200.224 277.977 200.62C277.545 201.052 277.275 201.646 277.203 202.402V208H275.295V198.694H277.203V199.846C277.563 199.378 277.977 199.036 278.445 198.802C278.913 198.55 279.435 198.442 280.011 198.442ZM289.536 198.442C290.76 198.442 291.696 198.928 292.38 199.936V198.694H294.288V207.388C294.288 210.34 292.83 211.816 289.95 211.816C288.654 211.816 287.664 211.564 286.98 211.078C286.296 210.574 285.882 209.818 285.702 208.792H287.61C287.718 209.332 287.934 209.728 288.294 209.962C288.636 210.178 289.194 210.304 289.95 210.304C291.57 210.304 292.38 209.422 292.38 207.676V206.236C291.696 207.262 290.76 207.784 289.536 207.784C288.276 207.784 287.25 207.352 286.476 206.506C285.684 205.66 285.306 204.544 285.306 203.14C285.306 201.736 285.684 200.62 286.476 199.756C287.25 198.874 288.276 198.442 289.536 198.442ZM289.824 199.99C289.014 199.99 288.384 200.26 287.952 200.836C287.484 201.376 287.268 202.15 287.268 203.14C287.268 204.04 287.448 204.76 287.808 205.282C288.222 205.894 288.888 206.218 289.824 206.218C290.634 206.218 291.264 205.948 291.732 205.408C292.164 204.85 292.398 204.094 292.398 203.14C292.398 202.168 292.164 201.394 291.732 200.836C291.264 200.26 290.634 199.99 289.824 199.99ZM306.575 198.442C307.763 198.442 308.717 198.712 309.437 199.252C310.157 199.828 310.625 200.692 310.805 201.844H308.915C308.789 201.214 308.537 200.746 308.141 200.458C307.745 200.152 307.223 200.008 306.575 200.008C305.783 200.008 305.171 200.296 304.721 200.89C304.253 201.466 304.037 202.294 304.037 203.338C304.037 204.382 304.253 205.21 304.703 205.804C305.117 206.38 305.729 206.686 306.557 206.686C307.979 206.686 308.771 205.966 308.951 204.562H310.841C310.625 205.804 310.139 206.74 309.419 207.352C308.699 207.946 307.727 208.252 306.539 208.252C305.117 208.252 304.019 207.784 303.227 206.848C302.453 205.948 302.075 204.796 302.075 203.356C302.075 201.952 302.453 200.8 303.209 199.9C304.019 198.928 305.135 198.442 306.575 198.442ZM317.477 195.004H319.583L317.027 197.632H315.785L317.477 195.004ZM316.757 198.442C318.161 198.442 319.313 198.91 320.177 199.882C320.987 200.782 321.401 201.952 321.401 203.356C321.401 204.76 320.987 205.912 320.177 206.812C319.313 207.766 318.179 208.252 316.757 208.252C315.335 208.252 314.201 207.766 313.355 206.812C312.527 205.912 312.113 204.76 312.113 203.356C312.113 201.952 312.527 200.782 313.355 199.882C314.219 198.91 315.353 198.442 316.757 198.442ZM316.757 200.008C315.929 200.008 315.281 200.296 314.795 200.908C314.327 201.52 314.093 202.33 314.093 203.356C314.093 204.364 314.327 205.156 314.795 205.768C315.281 206.38 315.929 206.686 316.757 206.686C317.585 206.686 318.233 206.38 318.719 205.768C319.187 205.156 319.439 204.364 319.439 203.356C319.439 202.33 319.187 201.52 318.719 200.908C318.233 200.296 317.585 200.008 316.757 200.008ZM329.207 194.896H331.115V200.08C331.871 198.982 332.807 198.442 333.959 198.442C335.291 198.442 336.335 198.928 337.109 199.9C337.811 200.8 338.171 201.934 338.171 203.302C338.171 204.724 337.811 205.894 337.091 206.794C336.299 207.766 335.237 208.252 333.869 208.252C332.591 208.252 331.637 207.784 330.989 206.884V208H329.207V194.896ZM333.527 199.99C332.807 199.99 332.231 200.26 331.799 200.836C331.295 201.448 331.061 202.258 331.061 203.266V203.428C331.061 204.364 331.259 205.12 331.655 205.714C332.105 206.362 332.753 206.704 333.581 206.704C334.517 206.704 335.201 206.362 335.651 205.696C336.011 205.12 336.209 204.328 336.209 203.302C336.209 202.276 336.011 201.484 335.615 200.944C335.165 200.296 334.463 199.99 333.527 199.99ZM344.159 198.442C345.527 198.442 346.535 198.784 347.183 199.468C347.741 200.062 348.029 200.926 348.029 202.06V208H346.265V206.686C345.905 207.154 345.455 207.532 344.915 207.802C344.303 208.09 343.583 208.252 342.755 208.252C341.783 208.252 341.027 208 340.487 207.514C339.893 207.028 339.605 206.398 339.605 205.624C339.605 204.58 340.019 203.77 340.847 203.212C341.603 202.672 342.683 202.402 344.051 202.366L346.139 202.312V201.934C346.139 200.638 345.437 199.99 344.033 199.99C343.439 199.99 342.953 200.098 342.593 200.314C342.161 200.566 341.891 200.944 341.783 201.466L339.893 201.304C340.091 200.296 340.595 199.54 341.387 199.072C342.071 198.64 343.007 198.442 344.159 198.442ZM346.139 203.698L344.177 203.752C342.431 203.788 341.567 204.4 341.567 205.552C341.567 205.912 341.711 206.2 342.017 206.434C342.305 206.668 342.701 206.794 343.187 206.794C343.997 206.794 344.681 206.542 345.257 206.056C345.833 205.57 346.139 204.958 346.139 204.238V203.698ZM343.856 193.698C345.134 193.698 345.782 194.148 345.782 195.066C345.782 195.804 345.188 196.398 344.018 196.848L343.514 196.326C344.378 195.894 344.81 195.48 344.81 195.084C344.81 194.688 344.45 194.49 343.748 194.49C343.262 194.49 342.758 194.616 342.236 194.868V193.986C342.776 193.788 343.316 193.698 343.856 193.698ZM354.497 198.442C355.901 198.442 357.035 198.91 357.881 199.846C358.709 200.764 359.141 201.934 359.141 203.356C359.141 204.76 358.727 205.93 357.899 206.83C357.035 207.766 355.901 208.252 354.497 208.252C353.093 208.252 351.959 207.766 351.095 206.83C350.267 205.93 349.853 204.76 349.853 203.356C349.853 201.934 350.267 200.764 351.113 199.846C351.959 198.91 353.093 198.442 354.497 198.442ZM354.497 200.008C353.615 200.008 352.931 200.35 352.445 201.052C352.013 201.646 351.815 202.42 351.815 203.356C351.815 204.292 352.013 205.048 352.445 205.642C352.931 206.326 353.615 206.686 354.497 206.686C355.379 206.686 356.063 206.326 356.567 205.642C356.999 205.03 357.215 204.274 357.215 203.356C357.215 202.42 356.999 201.646 356.567 201.052C356.063 200.35 355.379 200.008 354.497 200.008ZM366.947 194.896H368.855V200.008C369.197 199.468 369.629 199.054 370.151 198.802C370.619 198.55 371.141 198.442 371.735 198.442C372.851 198.442 373.697 198.766 374.273 199.432C374.813 200.062 375.083 200.998 375.083 202.222V208H373.175V202.546C373.175 201.718 372.995 201.106 372.671 200.674C372.311 200.224 371.753 200.008 371.033 200.008C370.385 200.008 369.863 200.26 369.467 200.782C369.053 201.304 368.855 201.97 368.855 202.78V208H366.947V194.896ZM378.598 194.968C378.976 194.968 379.3 195.076 379.552 195.328C379.804 195.562 379.93 195.868 379.93 196.246C379.93 196.624 379.786 196.93 379.534 197.182C379.282 197.416 378.958 197.542 378.598 197.542C378.22 197.542 377.914 197.416 377.662 197.182C377.41 196.93 377.284 196.606 377.284 196.246C377.284 195.868 377.41 195.562 377.662 195.328C377.914 195.076 378.22 194.968 378.598 194.968ZM377.644 198.694H379.552V208H377.644V198.694ZM385.303 195.112H386.977L388.831 197.398H387.625L386.149 195.94L384.637 197.398H383.431L385.303 195.112ZM386.077 198.442C387.589 198.442 388.759 198.946 389.551 199.99C390.271 200.926 390.649 202.222 390.667 203.878H383.611C383.683 204.778 383.917 205.48 384.349 205.966C384.781 206.434 385.375 206.686 386.131 206.686C386.797 206.686 387.337 206.524 387.751 206.218C388.075 205.966 388.345 205.552 388.597 205.012H390.505C390.289 205.876 389.875 206.614 389.227 207.19C388.417 207.892 387.391 208.252 386.149 208.252C384.781 208.252 383.683 207.82 382.891 206.974C382.027 206.074 381.595 204.868 381.595 203.338C381.595 201.952 381.991 200.8 382.819 199.864C383.611 198.91 384.709 198.442 386.077 198.442ZM386.131 200.008C385.411 200.008 384.853 200.206 384.421 200.638C384.025 201.052 383.755 201.646 383.647 202.438H388.669C388.489 200.818 387.643 200.008 386.131 200.008ZM385.973 190.698C387.251 190.698 387.899 191.148 387.899 192.066C387.899 192.804 387.305 193.398 386.135 193.848L385.631 193.326C386.495 192.894 386.927 192.48 386.927 192.084C386.927 191.688 386.567 191.49 385.865 191.49C385.379 191.49 384.875 191.616 384.353 191.868V190.986C384.893 190.788 385.433 190.698 385.973 190.698ZM396.759 198.442C398.127 198.442 399.117 198.964 399.693 200.008C400.107 199.432 400.557 199.018 401.025 198.784C401.457 198.55 401.979 198.442 402.609 198.442C403.563 198.442 404.355 198.748 404.985 199.396C405.597 200.026 405.921 200.854 405.921 201.898V208H404.013V202.222C404.013 201.466 403.851 200.908 403.527 200.566C403.203 200.206 402.663 200.044 401.943 200.044C401.403 200.044 400.971 200.242 400.611 200.638C400.251 201.034 400.071 201.592 400.071 202.276V208H398.163V202.24C398.163 200.764 397.515 200.044 396.255 200.044C395.643 200.044 395.139 200.278 394.779 200.746C394.383 201.196 394.203 201.754 394.203 202.402V208H392.295V198.694H394.203V199.72C394.959 198.856 395.823 198.442 396.759 198.442Z" fill="#CCD3E6"/>
<defs>
<clipPath id="clip0_14_4509">
<rect x="53" y="177" width="172" height="49" rx="4" fill="white"/>
</clipPath>
</defs>
</svg>
