<svg width="460" height="343" viewBox="0 0 460 343" fill="none" xmlns="http://www.w3.org/2000/svg">
<rect width="460" height="343" rx="10" fill="#0D131C"/>
<path d="M185.241 136.148H187.185V149H185.241V136.148ZM194.276 139.442C196.58 139.442 197.75 140.702 197.75 143.258V149H195.842V143.42C195.842 141.836 195.104 141.044 193.664 141.044C193.124 141.044 192.638 141.224 192.242 141.62C191.81 142.052 191.54 142.646 191.468 143.402V149H189.56V139.694H191.468V140.846C191.828 140.378 192.242 140.036 192.71 139.802C193.178 139.55 193.7 139.442 194.276 139.442ZM203.406 139.442C205.818 139.442 207.15 140.414 207.366 142.376H205.512C205.368 141.872 205.152 141.53 204.846 141.332C204.522 141.116 204.018 141.008 203.37 141.008C202.794 141.008 202.362 141.08 202.074 141.26C201.732 141.44 201.57 141.728 201.57 142.088C201.57 142.412 201.822 142.682 202.326 142.916C202.65 143.06 203.262 143.24 204.198 143.474C205.26 143.726 206.052 144.032 206.556 144.356C207.294 144.824 207.672 145.472 207.672 146.3C207.672 148.262 206.286 149.252 203.532 149.252C200.976 149.252 199.608 148.154 199.392 145.994H201.264C201.372 146.624 201.606 147.074 201.93 147.326C202.254 147.56 202.758 147.686 203.478 147.686C204.954 147.686 205.71 147.254 205.71 146.426C205.71 145.976 205.422 145.616 204.882 145.364C204.594 145.22 203.964 145.04 203.01 144.824C201.912 144.572 201.138 144.302 200.706 144.014C199.986 143.564 199.626 142.934 199.626 142.142C199.626 141.296 199.968 140.63 200.67 140.162C201.372 139.676 202.29 139.442 203.406 139.442ZM209.283 139.694H211.191V145.364C211.191 146.156 211.353 146.732 211.695 147.092C212.019 147.452 212.559 147.65 213.297 147.65C213.801 147.65 214.251 147.434 214.683 147.038C215.115 146.624 215.421 146.066 215.583 145.382V139.694H217.491V149H215.583V147.74C214.791 148.748 213.819 149.252 212.649 149.252C210.399 149.252 209.283 147.992 209.283 145.49V139.694ZM223.992 139.442C224.46 139.442 224.874 139.514 225.198 139.676V141.584C224.73 141.44 224.28 141.386 223.848 141.386C223.272 141.386 222.75 141.62 222.3 142.088C221.814 142.592 221.58 143.258 221.58 144.068V149H219.672V139.694H221.58V141.098C221.814 140.594 222.12 140.216 222.48 139.964C222.912 139.604 223.416 139.442 223.992 139.442ZM230.563 139.442C231.931 139.442 232.939 139.784 233.587 140.468C234.145 141.062 234.433 141.926 234.433 143.06V149H232.669V147.686C232.309 148.154 231.859 148.532 231.319 148.802C230.707 149.09 229.987 149.252 229.159 149.252C228.187 149.252 227.431 149 226.891 148.514C226.297 148.028 226.009 147.398 226.009 146.624C226.009 145.58 226.423 144.77 227.251 144.212C228.007 143.672 229.087 143.402 230.455 143.366L232.543 143.312V142.934C232.543 141.638 231.841 140.99 230.437 140.99C229.843 140.99 229.357 141.098 228.997 141.314C228.565 141.566 228.295 141.944 228.187 142.466L226.297 142.304C226.495 141.296 226.999 140.54 227.791 140.072C228.475 139.64 229.411 139.442 230.563 139.442ZM232.543 144.698L230.581 144.752C228.835 144.788 227.971 145.4 227.971 146.552C227.971 146.912 228.115 147.2 228.421 147.434C228.709 147.668 229.105 147.794 229.591 147.794C230.401 147.794 231.085 147.542 231.661 147.056C232.237 146.57 232.543 145.958 232.543 145.238V144.698ZM241.333 139.442C243.637 139.442 244.807 140.702 244.807 143.258V149H242.899V143.42C242.899 141.836 242.161 141.044 240.721 141.044C240.181 141.044 239.695 141.224 239.299 141.62C238.867 142.052 238.597 142.646 238.525 143.402V149H236.617V139.694H238.525V140.846C238.885 140.378 239.299 140.036 239.767 139.802C240.235 139.55 240.757 139.442 241.333 139.442ZM251.128 139.442C252.316 139.442 253.27 139.712 253.99 140.252C254.71 140.828 255.178 141.692 255.358 142.844H253.468C253.342 142.214 253.09 141.746 252.694 141.458C252.298 141.152 251.776 141.008 251.128 141.008C250.336 141.008 249.724 141.296 249.274 141.89C248.806 142.466 248.59 143.294 248.59 144.338C248.59 145.382 248.806 146.21 249.256 146.804C249.67 147.38 250.282 147.686 251.11 147.686C252.532 147.686 253.324 146.966 253.504 145.562H255.394C255.178 146.804 254.692 147.74 253.972 148.352C253.252 148.946 252.28 149.252 251.092 149.252C249.67 149.252 248.572 148.784 247.78 147.848C247.006 146.948 246.628 145.796 246.628 144.356C246.628 142.952 247.006 141.8 247.762 140.9C248.572 139.928 249.688 139.442 251.128 139.442ZM260.967 139.442C262.479 139.442 263.649 139.946 264.441 140.99C265.161 141.926 265.539 143.222 265.557 144.878H258.501C258.573 145.778 258.807 146.48 259.239 146.966C259.671 147.434 260.265 147.686 261.021 147.686C261.687 147.686 262.227 147.524 262.641 147.218C262.965 146.966 263.235 146.552 263.487 146.012H265.395C265.179 146.876 264.765 147.614 264.117 148.19C263.307 148.892 262.281 149.252 261.039 149.252C259.671 149.252 258.573 148.82 257.781 147.974C256.917 147.074 256.485 145.868 256.485 144.338C256.485 142.952 256.881 141.8 257.709 140.864C258.501 139.91 259.599 139.442 260.967 139.442ZM261.021 141.008C260.301 141.008 259.743 141.206 259.311 141.638C258.915 142.052 258.645 142.646 258.537 143.438H263.559C263.379 141.818 262.533 141.008 261.021 141.008ZM271.271 135.896C272.441 135.896 273.377 136.202 274.097 136.85C274.799 137.48 275.159 138.344 275.159 139.424C275.159 140.306 274.925 141.044 274.493 141.62C274.331 141.818 273.827 142.286 272.963 143.024C272.639 143.312 272.387 143.618 272.225 143.942C272.027 144.302 271.937 144.698 271.937 145.148V145.454H270.011V145.148C270.011 144.482 270.119 143.906 270.353 143.438C270.605 142.934 271.289 142.196 272.405 141.206L272.711 140.864C273.035 140.45 273.197 140.018 273.197 139.55C273.197 138.92 273.017 138.434 272.675 138.074C272.315 137.714 271.811 137.534 271.163 137.534C270.353 137.534 269.759 137.786 269.399 138.29C269.075 138.722 268.913 139.352 268.913 140.144H267.005C267.005 138.83 267.383 137.804 268.157 137.048C268.913 136.274 269.957 135.896 271.271 135.896ZM270.965 146.426C271.343 146.426 271.667 146.534 271.919 146.786C272.171 147.02 272.297 147.326 272.297 147.704C272.297 148.082 272.171 148.388 271.919 148.64C271.649 148.874 271.325 149 270.965 149C270.587 149 270.281 148.874 270.047 148.622C269.777 148.37 269.651 148.064 269.651 147.704C269.651 147.326 269.777 147.02 270.047 146.786C270.281 146.534 270.587 146.426 270.965 146.426Z" fill="#CCD3E6"/>
<rect x="53" y="177" width="172" height="49" rx="4" fill="#243541"/>
<path d="M72.8904 195.148H75.1224L80.0724 208H77.9664L76.7604 204.688H71.2344L70.0284 208H67.9404L72.8904 195.148ZM71.8284 203.068H76.1664L74.0424 197.254H73.9704L71.8284 203.068ZM85.2893 198.442C86.4773 198.442 87.4313 198.712 88.1513 199.252C88.8713 199.828 89.3393 200.692 89.5193 201.844H87.6293C87.5033 201.214 87.2513 200.746 86.8553 200.458C86.4593 200.152 85.9373 200.008 85.2893 200.008C84.4973 200.008 83.8853 200.296 83.4353 200.89C82.9673 201.466 82.7513 202.294 82.7513 203.338C82.7513 204.382 82.9673 205.21 83.4173 205.804C83.8313 206.38 84.4433 206.686 85.2713 206.686C86.6933 206.686 87.4853 205.966 87.6653 204.562H89.5553C89.3393 205.804 88.8533 206.74 88.1333 207.352C87.4133 207.946 86.4413 208.252 85.2533 208.252C83.8313 208.252 82.7333 207.784 81.9413 206.848C81.1673 205.948 80.7893 204.796 80.7893 203.356C80.7893 201.952 81.1673 200.8 81.9233 199.9C82.7333 198.928 83.8493 198.442 85.2893 198.442ZM95.3264 198.442C96.5144 198.442 97.4684 198.712 98.1884 199.252C98.9084 199.828 99.3764 200.692 99.5564 201.844H97.6664C97.5404 201.214 97.2884 200.746 96.8924 200.458C96.4964 200.152 95.9744 200.008 95.3264 200.008C94.5344 200.008 93.9224 200.296 93.4724 200.89C93.0044 201.466 92.7884 202.294 92.7884 203.338C92.7884 204.382 93.0044 205.21 93.4544 205.804C93.8684 206.38 94.4804 206.686 95.3084 206.686C96.7304 206.686 97.5224 205.966 97.7024 204.562H99.5924C99.3764 205.804 98.8904 206.74 98.1704 207.352C97.4504 207.946 96.4784 208.252 95.2904 208.252C93.8684 208.252 92.7704 207.784 91.9784 206.848C91.2044 205.948 90.8264 204.796 90.8264 203.356C90.8264 201.952 91.2044 200.8 91.9604 199.9C92.7704 198.928 93.8864 198.442 95.3264 198.442ZM105.166 198.442C106.678 198.442 107.848 198.946 108.64 199.99C109.36 200.926 109.738 202.222 109.756 203.878H102.7C102.772 204.778 103.006 205.48 103.438 205.966C103.87 206.434 104.464 206.686 105.22 206.686C105.886 206.686 106.426 206.524 106.84 206.218C107.164 205.966 107.434 205.552 107.686 205.012H109.594C109.378 205.876 108.964 206.614 108.316 207.19C107.506 207.892 106.48 208.252 105.238 208.252C103.87 208.252 102.772 207.82 101.98 206.974C101.116 206.074 100.684 204.868 100.684 203.338C100.684 201.952 101.08 200.8 101.908 199.864C102.7 198.91 103.798 198.442 105.166 198.442ZM105.22 200.008C104.5 200.008 103.942 200.206 103.51 200.638C103.114 201.052 102.844 201.646 102.736 202.438H107.758C107.578 200.818 106.732 200.008 105.22 200.008ZM116.046 198.442C117.414 198.442 118.476 198.928 119.268 199.9C119.988 200.8 120.348 201.952 120.348 203.392C120.348 204.76 119.988 205.894 119.286 206.794C118.53 207.766 117.468 208.252 116.136 208.252C114.984 208.252 114.048 207.712 113.292 206.632V211.564H111.384V198.694H113.166V199.81C113.814 198.892 114.786 198.442 116.046 198.442ZM115.758 199.99C114.93 199.99 114.282 200.314 113.832 200.98C113.436 201.556 113.238 202.33 113.238 203.284V203.446C113.238 204.436 113.472 205.246 113.976 205.858C114.408 206.416 114.984 206.704 115.704 206.704C116.64 206.704 117.324 206.398 117.774 205.786C118.17 205.21 118.386 204.418 118.386 203.392C118.386 202.366 118.188 201.574 117.828 200.998C117.378 200.314 116.694 199.99 115.758 199.99ZM124.968 195.688V198.694H127.092V200.278H124.968V205.678C124.968 205.93 125.022 206.11 125.13 206.236C125.238 206.344 125.4 206.416 125.634 206.416H126.858V208H125.328C124.536 208 123.942 207.784 123.582 207.37C123.222 206.974 123.06 206.416 123.06 205.678V200.278H121.332V198.694H123.06V196.48L124.968 195.688ZM129.978 194.968C130.356 194.968 130.68 195.076 130.932 195.328C131.184 195.562 131.31 195.868 131.31 196.246C131.31 196.624 131.166 196.93 130.914 197.182C130.662 197.416 130.338 197.542 129.978 197.542C129.6 197.542 129.294 197.416 129.042 197.182C128.79 196.93 128.664 196.606 128.664 196.246C128.664 195.868 128.79 195.562 129.042 195.328C129.294 195.076 129.6 194.968 129.978 194.968ZM129.024 198.694H130.932V208H129.024V198.694ZM138.231 198.442C140.535 198.442 141.705 199.702 141.705 202.258V208H139.797V202.42C139.797 200.836 139.059 200.044 137.619 200.044C137.079 200.044 136.593 200.224 136.197 200.62C135.765 201.052 135.495 201.646 135.423 202.402V208H133.515V198.694H135.423V199.846C135.783 199.378 136.197 199.036 136.665 198.802C137.133 198.55 137.655 198.442 138.231 198.442ZM147.36 198.442C149.772 198.442 151.104 199.414 151.32 201.376H149.466C149.322 200.872 149.106 200.53 148.8 200.332C148.476 200.116 147.972 200.008 147.324 200.008C146.748 200.008 146.316 200.08 146.028 200.26C145.686 200.44 145.524 200.728 145.524 201.088C145.524 201.412 145.776 201.682 146.28 201.916C146.604 202.06 147.216 202.24 148.152 202.474C149.214 202.726 150.006 203.032 150.51 203.356C151.248 203.824 151.626 204.472 151.626 205.3C151.626 207.262 150.24 208.252 147.486 208.252C144.93 208.252 143.562 207.154 143.346 204.994H145.218C145.326 205.624 145.56 206.074 145.884 206.326C146.208 206.56 146.712 206.686 147.432 206.686C148.908 206.686 149.664 206.254 149.664 205.426C149.664 204.976 149.376 204.616 148.836 204.364C148.548 204.22 147.918 204.04 146.964 203.824C145.866 203.572 145.092 203.302 144.66 203.014C143.94 202.564 143.58 201.934 143.58 201.142C143.58 200.296 143.922 199.63 144.624 199.162C145.326 198.676 146.244 198.442 147.36 198.442ZM153.237 198.694H155.145V204.364C155.145 205.156 155.307 205.732 155.649 206.092C155.973 206.452 156.513 206.65 157.251 206.65C157.755 206.65 158.205 206.434 158.637 206.038C159.069 205.624 159.375 205.066 159.537 204.382V198.694H161.445V208H159.537V206.74C158.745 207.748 157.773 208.252 156.603 208.252C154.353 208.252 153.237 206.992 153.237 204.49V198.694ZM167.946 198.442C168.414 198.442 168.828 198.514 169.152 198.676V200.584C168.684 200.44 168.234 200.386 167.802 200.386C167.226 200.386 166.704 200.62 166.254 201.088C165.768 201.592 165.534 202.258 165.534 203.068V208H163.626V198.694H165.534V200.098C165.768 199.594 166.074 199.216 166.434 198.964C166.866 198.604 167.37 198.442 167.946 198.442ZM174.517 198.442C175.885 198.442 176.893 198.784 177.541 199.468C178.099 200.062 178.387 200.926 178.387 202.06V208H176.623V206.686C176.263 207.154 175.813 207.532 175.273 207.802C174.661 208.09 173.941 208.252 173.113 208.252C172.141 208.252 171.385 208 170.845 207.514C170.251 207.028 169.963 206.398 169.963 205.624C169.963 204.58 170.377 203.77 171.205 203.212C171.961 202.672 173.041 202.402 174.409 202.366L176.497 202.312V201.934C176.497 200.638 175.795 199.99 174.391 199.99C173.797 199.99 173.311 200.098 172.951 200.314C172.519 200.566 172.249 200.944 172.141 201.466L170.251 201.304C170.449 200.296 170.953 199.54 171.745 199.072C172.429 198.64 173.365 198.442 174.517 198.442ZM176.497 203.698L174.535 203.752C172.789 203.788 171.925 204.4 171.925 205.552C171.925 205.912 172.069 206.2 172.375 206.434C172.663 206.668 173.059 206.794 173.545 206.794C174.355 206.794 175.039 206.542 175.615 206.056C176.191 205.57 176.497 204.958 176.497 204.238V203.698ZM185.287 198.442C187.591 198.442 188.761 199.702 188.761 202.258V208H186.853V202.42C186.853 200.836 186.115 200.044 184.675 200.044C184.135 200.044 183.649 200.224 183.253 200.62C182.821 201.052 182.551 201.646 182.479 202.402V208H180.571V198.694H182.479V199.846C182.839 199.378 183.253 199.036 183.721 198.802C184.189 198.55 184.711 198.442 185.287 198.442ZM195.082 198.442C196.27 198.442 197.224 198.712 197.944 199.252C198.664 199.828 199.132 200.692 199.312 201.844H197.422C197.296 201.214 197.044 200.746 196.648 200.458C196.252 200.152 195.73 200.008 195.082 200.008C194.29 200.008 193.678 200.296 193.228 200.89C192.76 201.466 192.544 202.294 192.544 203.338C192.544 204.382 192.76 205.21 193.21 205.804C193.624 206.38 194.236 206.686 195.064 206.686C196.486 206.686 197.278 205.966 197.458 204.562H199.348C199.132 205.804 198.646 206.74 197.926 207.352C197.206 207.946 196.234 208.252 195.046 208.252C193.624 208.252 192.526 207.784 191.734 206.848C190.96 205.948 190.582 204.796 190.582 203.356C190.582 201.952 190.96 200.8 191.716 199.9C192.526 198.928 193.642 198.442 195.082 198.442ZM204.921 198.442C206.433 198.442 207.603 198.946 208.395 199.99C209.115 200.926 209.493 202.222 209.511 203.878H202.455C202.527 204.778 202.761 205.48 203.193 205.966C203.625 206.434 204.219 206.686 204.975 206.686C205.641 206.686 206.181 206.524 206.595 206.218C206.919 205.966 207.189 205.552 207.441 205.012H209.349C209.133 205.876 208.719 206.614 208.071 207.19C207.261 207.892 206.235 208.252 204.993 208.252C203.625 208.252 202.527 207.82 201.735 206.974C200.871 206.074 200.439 204.868 200.439 203.338C200.439 201.952 200.835 200.8 201.663 199.864C202.455 198.91 203.553 198.442 204.921 198.442ZM204.975 200.008C204.255 200.008 203.697 200.206 203.265 200.638C202.869 201.052 202.599 201.646 202.491 202.438H207.513C207.333 200.818 206.487 200.008 204.975 200.008Z" fill="#CCD3E6"/>
<rect x="235" y="177" width="172" height="49" rx="4" fill="#243541"/>
<path d="M268.901 195.148H270.881L277.451 204.706H277.523V195.148H279.485V208H277.577L270.935 198.334H270.863V208H268.901V195.148ZM286.118 198.442C287.522 198.442 288.656 198.91 289.502 199.846C290.33 200.764 290.762 201.934 290.762 203.356C290.762 204.76 290.348 205.93 289.52 206.83C288.656 207.766 287.522 208.252 286.118 208.252C284.714 208.252 283.58 207.766 282.716 206.83C281.888 205.93 281.474 204.76 281.474 203.356C281.474 201.934 281.888 200.764 282.734 199.846C283.58 198.91 284.714 198.442 286.118 198.442ZM286.118 200.008C285.236 200.008 284.552 200.35 284.066 201.052C283.634 201.646 283.436 202.42 283.436 203.356C283.436 204.292 283.634 205.048 284.066 205.642C284.552 206.326 285.236 206.686 286.118 206.686C287 206.686 287.684 206.326 288.188 205.642C288.62 205.03 288.836 204.274 288.836 203.356C288.836 202.42 288.62 201.646 288.188 201.052C287.684 200.35 287 200.008 286.118 200.008ZM299.918 194.968C300.296 194.968 300.62 195.076 300.872 195.328C301.124 195.562 301.25 195.868 301.25 196.246C301.25 196.624 301.106 196.93 300.854 197.182C300.602 197.416 300.278 197.542 299.918 197.542C299.54 197.542 299.234 197.416 298.982 197.182C298.73 196.93 298.604 196.606 298.604 196.246C298.604 195.868 298.73 195.562 298.982 195.328C299.234 195.076 299.54 194.968 299.918 194.968ZM298.964 198.694H300.872V208H298.964V198.694ZM308.171 198.442C310.475 198.442 311.645 199.702 311.645 202.258V208H309.737V202.42C309.737 200.836 308.999 200.044 307.559 200.044C307.019 200.044 306.533 200.224 306.137 200.62C305.705 201.052 305.435 201.646 305.363 202.402V208H303.455V198.694H305.363V199.846C305.723 199.378 306.137 199.036 306.605 198.802C307.073 198.55 307.595 198.442 308.171 198.442ZM317.3 198.442C319.712 198.442 321.044 199.414 321.26 201.376H319.406C319.262 200.872 319.046 200.53 318.74 200.332C318.416 200.116 317.912 200.008 317.264 200.008C316.688 200.008 316.256 200.08 315.968 200.26C315.626 200.44 315.464 200.728 315.464 201.088C315.464 201.412 315.716 201.682 316.22 201.916C316.544 202.06 317.156 202.24 318.092 202.474C319.154 202.726 319.946 203.032 320.45 203.356C321.188 203.824 321.566 204.472 321.566 205.3C321.566 207.262 320.18 208.252 317.426 208.252C314.87 208.252 313.502 207.154 313.286 204.994H315.158C315.266 205.624 315.5 206.074 315.824 206.326C316.148 206.56 316.652 206.686 317.372 206.686C318.848 206.686 319.604 206.254 319.604 205.426C319.604 204.976 319.316 204.616 318.776 204.364C318.488 204.22 317.858 204.04 316.904 203.824C315.806 203.572 315.032 203.302 314.6 203.014C313.88 202.564 313.52 201.934 313.52 201.142C313.52 200.296 313.862 199.63 314.564 199.162C315.266 198.676 316.184 198.442 317.3 198.442ZM323.178 198.694H325.086V204.364C325.086 205.156 325.248 205.732 325.59 206.092C325.914 206.452 326.454 206.65 327.192 206.65C327.696 206.65 328.146 206.434 328.578 206.038C329.01 205.624 329.316 205.066 329.478 204.382V198.694H331.386V208H329.478V206.74C328.686 207.748 327.714 208.252 326.544 208.252C324.294 208.252 323.178 206.992 323.178 204.49V198.694ZM337.886 198.442C338.354 198.442 338.768 198.514 339.092 198.676V200.584C338.624 200.44 338.174 200.386 337.742 200.386C337.166 200.386 336.644 200.62 336.194 201.088C335.708 201.592 335.474 202.258 335.474 203.068V208H333.566V198.694H335.474V200.098C335.708 199.594 336.014 199.216 336.374 198.964C336.806 198.604 337.31 198.442 337.886 198.442ZM344.458 198.442C345.826 198.442 346.834 198.784 347.482 199.468C348.04 200.062 348.328 200.926 348.328 202.06V208H346.564V206.686C346.204 207.154 345.754 207.532 345.214 207.802C344.602 208.09 343.882 208.252 343.054 208.252C342.082 208.252 341.326 208 340.786 207.514C340.192 207.028 339.904 206.398 339.904 205.624C339.904 204.58 340.318 203.77 341.146 203.212C341.902 202.672 342.982 202.402 344.35 202.366L346.438 202.312V201.934C346.438 200.638 345.736 199.99 344.332 199.99C343.738 199.99 343.252 200.098 342.892 200.314C342.46 200.566 342.19 200.944 342.082 201.466L340.192 201.304C340.39 200.296 340.894 199.54 341.686 199.072C342.37 198.64 343.306 198.442 344.458 198.442ZM346.438 203.698L344.476 203.752C342.73 203.788 341.866 204.4 341.866 205.552C341.866 205.912 342.01 206.2 342.316 206.434C342.604 206.668 343 206.794 343.486 206.794C344.296 206.794 344.98 206.542 345.556 206.056C346.132 205.57 346.438 204.958 346.438 204.238V203.698ZM355.228 198.442C357.532 198.442 358.702 199.702 358.702 202.258V208H356.794V202.42C356.794 200.836 356.056 200.044 354.616 200.044C354.076 200.044 353.59 200.224 353.194 200.62C352.762 201.052 352.492 201.646 352.42 202.402V208H350.512V198.694H352.42V199.846C352.78 199.378 353.194 199.036 353.662 198.802C354.13 198.55 354.652 198.442 355.228 198.442ZM365.023 198.442C366.211 198.442 367.165 198.712 367.885 199.252C368.605 199.828 369.073 200.692 369.253 201.844H367.363C367.237 201.214 366.985 200.746 366.589 200.458C366.193 200.152 365.671 200.008 365.023 200.008C364.231 200.008 363.619 200.296 363.169 200.89C362.701 201.466 362.485 202.294 362.485 203.338C362.485 204.382 362.701 205.21 363.151 205.804C363.565 206.38 364.177 206.686 365.005 206.686C366.427 206.686 367.219 205.966 367.399 204.562H369.289C369.073 205.804 368.587 206.74 367.867 207.352C367.147 207.946 366.175 208.252 364.987 208.252C363.565 208.252 362.467 207.784 361.675 206.848C360.901 205.948 360.523 204.796 360.523 203.356C360.523 201.952 360.901 200.8 361.657 199.9C362.467 198.928 363.583 198.442 365.023 198.442ZM374.862 198.442C376.374 198.442 377.544 198.946 378.336 199.99C379.056 200.926 379.434 202.222 379.452 203.878H372.396C372.468 204.778 372.702 205.48 373.134 205.966C373.566 206.434 374.16 206.686 374.916 206.686C375.582 206.686 376.122 206.524 376.536 206.218C376.86 205.966 377.13 205.552 377.382 205.012H379.29C379.074 205.876 378.66 206.614 378.012 207.19C377.202 207.892 376.176 208.252 374.934 208.252C373.566 208.252 372.468 207.82 371.676 206.974C370.812 206.074 370.38 204.868 370.38 203.338C370.38 201.952 370.776 200.8 371.604 199.864C372.396 198.91 373.494 198.442 374.862 198.442ZM374.916 200.008C374.196 200.008 373.638 200.206 373.206 200.638C372.81 201.052 372.54 201.646 372.432 202.438H377.454C377.274 200.818 376.428 200.008 374.916 200.008Z" fill="#CCD3E6"/>
</svg>
