<svg width="345" height="134" viewBox="0 0 345 134" fill="none" xmlns="http://www.w3.org/2000/svg">
<path d="M344.5 133.5H106.484C106.495 133.334 106.5 133.167 106.5 133C106.5 128.865 103.136 125.5 99.0001 125.5C97.6834 125.5 96.3881 125.846 95.2542 126.501C94.6019 126.878 94.0101 127.351 93.4998 127.901L93.4998 5.09847C94.0101 5.64867 94.6019 6.12244 95.2541 6.49914C96.3881 7.15404 97.6834 7.50021 99.0001 7.50021C102.968 7.50021 106.226 4.40328 106.484 0.5H344.5V133.5Z" fill="#21333F"/>
<path d="M344.097 132.999V0.999991H106.585C106.139 4.94091 103.095 8.00015 99.4176 8.00015C98.1496 8.00015 96.902 7.63083 95.8097 6.93205C95.4916 6.7286 95.1885 6.49857 94.9029 6.2449L94.9029 126.754C95.1884 126.5 95.4916 126.27 95.8097 126.067C96.902 125.368 98.1496 124.999 99.4176 124.999C103.4 124.999 106.641 128.588 106.641 132.999H344.097ZM345 134V133.999H105.674C105.716 133.672 105.738 133.336 105.738 132.999C105.738 129.139 102.903 125.999 99.4176 125.999C98.3078 125.999 97.2164 126.322 96.2612 126.933C95.3344 127.526 94.5525 128.376 94 129.391L94 3.60725C94.5521 4.62217 95.3335 5.47263 96.2612 6.06613C97.2164 6.67716 98.3079 7.00015 99.4176 7.00015C102.903 7.00015 105.738 3.85993 105.738 0H345V134Z" fill="#394551"/>
<path d="M93.071 134H0V0H93C92.9998 1.6834 93.6063 3.31048 94.7082 4.58307C95.8102 5.85566 97.3339 6.68851 99 6.929V13.035C98.1664 13.1546 97.4039 13.5708 96.8524 14.2072C96.3008 14.8435 95.9972 15.6574 95.9972 16.4995C95.9972 17.3416 96.3008 18.1555 96.8524 18.7918C97.4039 19.4282 98.1664 19.8444 99 19.964V23.035C98.1664 23.1546 97.4039 23.5708 96.8524 24.2072C96.3008 24.8435 95.9972 25.6574 95.9972 26.4995C95.9972 27.3416 96.3008 28.1555 96.8524 28.7918C97.4039 29.4282 98.1664 29.8444 99 29.964V33.035C98.1664 33.1546 97.4039 33.5708 96.8524 34.2072C96.3008 34.8435 95.9972 35.6574 95.9972 36.4995C95.9972 37.3416 96.3008 38.1555 96.8524 38.7918C97.4039 39.4282 98.1664 39.8444 99 39.964V43.035C98.1671 43.1554 97.4056 43.5718 96.8547 44.208C96.3039 44.8442 96.0007 45.6575 96.0007 46.499C96.0007 47.3405 96.3039 48.1538 96.8547 48.79C97.4056 49.4262 98.1671 49.8426 99 49.963V53.034C98.1671 53.1544 97.4056 53.5708 96.8547 54.207C96.3039 54.8432 96.0007 55.6565 96.0007 56.498C96.0007 57.3395 96.3039 58.1528 96.8547 58.789C97.4056 59.4252 98.1671 59.8416 99 59.962V63.033C98.1664 63.1526 97.4039 63.5688 96.8524 64.2052C96.3008 64.8415 95.9972 65.6554 95.9972 66.4975C95.9972 67.3396 96.3008 68.1535 96.8524 68.7898C97.4039 69.4262 98.1664 69.8424 99 69.962V73.033C98.1664 73.1526 97.4039 73.5688 96.8524 74.2052C96.3008 74.8415 95.9972 75.6554 95.9972 76.4975C95.9972 77.3396 96.3008 78.1535 96.8524 78.7898C97.4039 79.4262 98.1664 79.8424 99 79.962V83.033C98.1664 83.1526 97.4039 83.5688 96.8524 84.2052C96.3008 84.8415 95.9972 85.6554 95.9972 86.4975C95.9972 87.3396 96.3008 88.1535 96.8524 88.7898C97.4039 89.4262 98.1664 89.8424 99 89.962V93.033C98.1664 93.1526 97.4039 93.5688 96.8524 94.2052C96.3008 94.8415 95.9972 95.6554 95.9972 96.4975C95.9972 97.3396 96.3008 98.1535 96.8524 98.7898C97.4039 99.4262 98.1664 99.8424 99 99.962V103.033C98.1664 103.153 97.4039 103.569 96.8524 104.205C96.3008 104.842 95.9972 105.655 95.9972 106.497C95.9972 107.34 96.3008 108.153 96.8524 108.79C97.4039 109.426 98.1664 109.842 99 109.962V113.033C98.1664 113.153 97.4039 113.569 96.8524 114.205C96.3008 114.842 95.9972 115.655 95.9972 116.497C95.9972 117.34 96.3008 118.153 96.8524 118.79C97.4039 119.426 98.1664 119.842 99 119.962V126.069C97.3335 126.31 95.8096 127.143 94.7076 128.416C93.6056 129.689 92.9993 131.316 93 133C93 133.335 93.0238 133.669 93.071 134Z" fill="#384450"/>
</svg>
