<svg width="18" height="18" viewBox="0 0 18 18" fill="none" xmlns="http://www.w3.org/2000/svg">
<path d="M10.0706 1.28571C10.1659 1.28658 10.2569 1.3257 10.3238 1.39449C10.3907 1.46328 10.4279 1.55613 10.4273 1.65269V2.38775C10.4279 2.4843 10.3907 2.57715 10.3238 2.64594C10.2569 2.71474 10.1659 2.75385 10.0706 2.75473H3.99831V15.2453H10.0706C10.1659 15.2461 10.2569 15.2852 10.3238 15.354C10.3907 15.4228 10.4279 15.5157 10.4273 15.6122V16.3473C10.4279 16.4439 10.3907 16.5367 10.3238 16.6055C10.2569 16.6743 10.1659 16.7134 10.0706 16.7143H3.99831C3.62899 16.7118 3.27479 16.5654 3.00912 16.3054C2.74345 16.0455 2.58669 15.6919 2.57133 15.318V15.2442V2.75473C2.56845 2.38056 2.70743 2.01954 2.9596 1.74619C3.21178 1.47284 3.5579 1.308 3.92653 1.28571H3.99831H10.0706ZM13.3335 5.06681L16.4006 8.22085C16.593 8.42018 16.7047 8.6854 16.7136 8.96411C16.7224 9.24282 16.6278 9.51476 16.4484 9.72623L16.4006 9.77914L13.3335 12.9332C13.3006 12.9672 13.2613 12.9942 13.218 13.0126C13.1746 13.031 13.1281 13.0405 13.0811 13.0405C13.0341 13.0405 12.9876 13.031 12.9443 13.0126C12.901 12.9942 12.8617 12.9672 12.8288 12.9332L12.322 12.4163C12.2551 12.3469 12.2176 12.2538 12.2176 12.1568C12.2176 12.0598 12.2551 11.9666 12.322 11.8973L14.4211 9.73726H7.21008C7.11479 9.73638 7.02374 9.69726 6.95686 9.62847C6.88999 9.55968 6.85277 9.46683 6.85335 9.37028V8.63521C6.85277 8.53866 6.88999 8.44581 6.95686 8.37702C7.02374 8.30823 7.11479 8.26911 7.21008 8.26824H14.4146L12.3154 6.10824C12.2485 6.03885 12.2111 5.94571 12.2111 5.84871C12.2111 5.75171 12.2485 5.65856 12.3154 5.58917L12.8201 5.07011C12.853 5.03612 12.8923 5.00913 12.9356 4.9907C12.9789 4.97227 13.0254 4.96278 13.0724 4.96278C13.1194 4.96278 13.1659 4.97227 13.2093 4.9907C13.2526 5.00913 13.2918 5.03612 13.3248 5.07011L13.3335 5.06681Z" fill="#B1BAD3"/>
</svg>
