<svg width="20" height="20" viewBox="0 0 20 20" fill="none" xmlns="http://www.w3.org/2000/svg">
<path d="M10.001 2C5.58897 2 2.00098 5.58799 2.00098 10C2.00098 14.412 5.58897 18 10.001 18C14.413 18 18.001 14.412 18.001 10C18.001 5.58799 14.4099 2 10.001 2ZM6.92078 7.20258H11.7342C12.993 7.20258 14.0177 8.22729 14.0177 9.48613V9.57431C14.0177 10.8331 12.993 11.8578 11.7342 11.8578H9.70603V10.0274H11.497C11.8497 10.0274 12.1325 9.74154 12.1325 9.39187C12.1325 9.04219 11.8467 8.75637 11.497 8.75637H8.43199V13.1197H11.7311C13.6832 13.1197 15.2705 11.5295 15.2705 9.57735V9.48917C15.2705 7.53706 13.6832 5.94983 11.7311 5.94983H5.64674V15.1448C4.12336 13.8586 3.25677 12.0038 3.25677 10C3.25677 6.28126 6.28224 3.2558 10.001 3.2558C13.7197 3.2558 16.7421 6.28126 16.7421 9.99696C16.7421 13.7127 13.7167 16.7381 10.001 16.7381C8.9337 16.7381 7.86947 16.4797 6.92078 15.9932V7.20258Z" fill="#8E949C"/>
</svg>
