<svg width="18" height="18" viewBox="0 0 18 18" fill="none" xmlns="http://www.w3.org/2000/svg">
<path d="M14.0705 13.4083H3.98168C3.79656 13.3904 3.61041 13.4287 3.44623 13.5185V2.93879C3.4415 2.86516 3.45211 2.79136 3.47734 2.7223C3.50258 2.65324 3.54185 2.5905 3.59254 2.53833C3.64324 2.48616 3.7042 2.44575 3.77131 2.41978C3.83842 2.39381 3.91014 2.38289 3.98168 2.38776H5.57517V8.44906C5.57043 8.52268 5.58105 8.59649 5.60628 8.66555C5.63151 8.73461 5.67078 8.79734 5.72148 8.84951C5.77218 8.90169 5.83314 8.9421 5.90025 8.96807C5.96735 8.99404 6.03907 9.00496 6.11061 9.00009C6.26161 9.01726 6.41358 8.97815 6.53896 8.88987L7.70731 7.67761L8.87565 8.88987C8.98274 9.00008 9.08982 9.00009 9.304 9.00009C9.3755 9.00477 9.44714 8.99373 9.51417 8.9677C9.5812 8.94166 9.64208 8.90124 9.69274 8.84911C9.7434 8.79698 9.78268 8.73432 9.80798 8.66535C9.83327 8.59637 9.844 8.52264 9.83945 8.44906V2.38776H13.7686C13.8122 2.38107 13.8568 2.38501 13.8988 2.39926C13.9407 2.41351 13.9789 2.43764 14.0101 2.46979C14.0413 2.50193 14.0648 2.54117 14.0787 2.58434C14.0925 2.62751 14.0963 2.6734 14.0898 2.71836L14.0705 13.4083ZM14.0705 15.6124H3.98168C3.83967 15.6124 3.70348 15.5543 3.60307 15.451C3.50265 15.3477 3.44623 15.2075 3.44623 15.0614C3.44623 14.9152 3.50265 14.7751 3.60307 14.6718C3.70348 14.5684 3.83967 14.5104 3.98168 14.5104H14.0705V15.6124ZM6.63642 2.38776H8.75999V7.23679L8.12281 6.46537C7.99213 6.39303 7.84606 6.35516 7.69767 6.35516C7.54928 6.35516 7.4032 6.39303 7.27252 6.46537L6.63534 7.23679L6.63642 2.38776ZM14.6017 1.28571H3.98168C3.56064 1.29806 3.16036 1.4766 2.86372 1.78433C2.56709 2.09207 2.39681 2.50542 2.38818 2.93879V15.1716C2.41934 15.5868 2.59997 15.9751 2.89471 16.2605C3.18944 16.5458 3.57705 16.7077 3.98168 16.7145H14.7088C14.7803 16.7193 14.852 16.7084 14.9192 16.6824C14.9863 16.6565 15.0472 16.6161 15.0979 16.5639C15.1486 16.5117 15.1879 16.449 15.2131 16.3799C15.2384 16.3109 15.249 16.2371 15.2442 16.1634V1.83673C15.213 1.6839 15.1325 1.54639 15.016 1.4464C14.8994 1.34641 14.7534 1.28979 14.6017 1.28571Z" fill="#B1BAD3"/>
</svg>
