<svg width="18" height="18" viewBox="0 0 18 18" fill="none" xmlns="http://www.w3.org/2000/svg">
<path d="M6.91931 15.5395L6.8994 15.5075C6.79445 15.3257 6.73917 15.1195 6.73917 14.9097C6.73917 14.6998 6.79445 14.4936 6.8994 14.3118C7.00455 14.1234 7.15758 13.966 7.34293 13.8555C7.52828 13.7451 7.7394 13.6854 7.95516 13.6825H10.0325C10.2467 13.6798 10.4578 13.7339 10.6443 13.8393C10.8308 13.9447 10.986 14.0976 11.0942 14.2825C11.2024 14.4674 11.2597 14.6776 11.2602 14.8919C11.2607 15.1061 11.2045 15.3166 11.0972 15.502C10.8914 15.871 10.5905 16.1782 10.2257 16.3914C9.86091 16.6046 9.44555 16.7161 9.02303 16.7142C8.60254 16.7078 8.19023 16.5971 7.82305 16.392C7.45588 16.187 7.14539 15.8941 6.91931 15.5395ZM4.28313 13.2979C3.89264 13.2915 3.51382 13.1637 3.19925 12.9323C2.88467 12.7008 2.65004 12.3772 2.52769 12.0063C2.46316 11.8182 2.45003 11.6162 2.48975 11.4213C2.52947 11.2263 2.62054 11.0456 2.75356 10.8977L2.97391 10.6222C3.82481 9.48333 4.27964 8.09731 4.26887 6.67575V6.07624C4.26359 4.81315 4.75951 3.59954 5.6479 2.70166C6.53628 1.80377 7.74449 1.29493 9.00756 1.28677C9.19872 1.28698 9.38974 1.29839 9.57957 1.32094C10.7663 1.45971 11.8535 2.05204 12.6135 2.974C13.3779 3.89657 13.7947 5.05782 13.7916 6.25588V6.67686C13.7813 8.09885 14.2365 9.48519 15.0876 10.6244L15.3653 10.9781L15.3884 11.0255C15.5382 11.3069 15.5748 11.6349 15.4909 11.9424C15.4004 12.3291 15.1815 12.6737 14.8698 12.9199C14.5582 13.1661 14.1722 13.2994 13.775 13.2979H4.28313ZM5.48552 6.07514V6.67686C5.49656 8.3698 4.95227 10.0197 3.93605 11.3738L3.92838 11.3848L3.70789 11.6669C3.75579 11.7819 3.8356 11.8808 3.93793 11.9519C4.04027 12.023 4.1609 12.0633 4.28541 12.068H13.7784C13.9017 12.07 14.0219 12.0295 14.1189 11.9532C14.2158 11.8769 14.2835 11.7696 14.3106 11.6493L14.3184 11.6206L14.1255 11.376C13.1091 10.0211 12.5648 8.37051 12.576 6.67686V6.25588C12.6005 5.35994 12.2943 4.48634 11.7158 3.80175C11.1374 3.11716 10.3271 2.66951 9.43966 2.5442C9.29632 2.52678 9.15196 2.51795 9.00756 2.51775C8.06875 2.523 7.17051 2.90076 6.51008 3.56801C5.84964 4.23526 5.48113 5.13632 5.48552 6.07514Z" fill="#B1BAD3"/>
</svg>
