<svg width="18" height="18" viewBox="0 0 18 18" fill="none" xmlns="http://www.w3.org/2000/svg">
<path d="M3.48974 2.35047C3.20298 2.34546 2.92593 2.45435 2.71934 2.65329C2.51275 2.85224 2.39349 3.12498 2.3877 3.41172V15.6532C2.3932 15.9401 2.51238 16.213 2.71904 16.412C2.92569 16.611 3.20289 16.7198 3.48974 16.7145H14.5102C14.7969 16.7195 15.074 16.6106 15.2806 16.4117C15.4872 16.2128 15.6064 15.94 15.6122 15.6532V3.41172C15.6067 3.12488 15.4876 2.85196 15.2809 2.65296C15.0743 2.45395 14.797 2.34516 14.5102 2.35047H12.8571L13.4081 2.88276V2.08377C13.4041 1.86864 13.315 1.6639 13.1602 1.51436C13.0055 1.36481 12.7979 1.28265 12.5827 1.2859H5.41943C5.31282 1.284 5.20687 1.30314 5.10766 1.34223C5.00846 1.38131 4.91793 1.43958 4.84126 1.51368C4.7646 1.58779 4.70329 1.67627 4.66086 1.77409C4.61843 1.87192 4.59573 1.97716 4.594 2.08377V2.88276L5.14503 2.35047H3.48974ZM5.69383 3.41394V2.08377C5.69238 2.15578 5.66247 2.22428 5.61062 2.27426C5.55878 2.32425 5.48922 2.35165 5.41721 2.35047H12.5805C12.5448 2.3512 12.5093 2.34486 12.4761 2.33184C12.4428 2.31882 12.4125 2.29938 12.3868 2.2746C12.3611 2.24982 12.3405 2.22021 12.3263 2.18746C12.3121 2.15472 12.3045 2.11947 12.3039 2.08377V3.41394H14.508V15.6532H3.48755V3.41172H5.14062L5.69383 3.41394ZM12.3061 3.68064C12.3078 3.60873 12.3379 3.54041 12.3896 3.49049C12.4414 3.44056 12.5108 3.41305 12.5827 3.41394H5.41943C5.45512 3.41321 5.49061 3.41955 5.52385 3.43257C5.5571 3.4456 5.58744 3.46504 5.61315 3.48982C5.63885 3.5146 5.65939 3.54421 5.67362 3.57696C5.68784 3.6097 5.69548 3.64494 5.69605 3.68064V2.88276C5.69605 2.73662 5.63799 2.59648 5.53465 2.49314C5.43131 2.3898 5.29117 2.33174 5.14503 2.33174C4.99889 2.33174 4.85871 2.3898 4.75537 2.49314C4.65203 2.59648 4.594 2.73662 4.594 2.88276V3.68064C4.59806 3.89568 4.68723 4.10032 4.84197 4.24969C4.99671 4.39906 5.20438 4.48095 5.41943 4.47741H12.5827C12.6893 4.47946 12.7952 4.46045 12.8944 4.42148C12.9936 4.38252 13.0841 4.32435 13.1608 4.25033C13.2375 4.17631 13.2988 4.08792 13.3412 3.99016C13.3837 3.89239 13.4064 3.78721 13.4081 3.68064V2.88276C13.4081 2.73662 13.3501 2.59648 13.2467 2.49314C13.1434 2.3898 13.0033 2.33174 12.8571 2.33174C12.711 2.33174 12.5708 2.3898 12.4675 2.49314C12.3642 2.59648 12.3061 2.73662 12.3061 2.88276V3.68064ZM12.3061 7.93674C12.4473 7.93674 12.5827 7.88064 12.6825 7.78082C12.7823 7.681 12.8384 7.54562 12.8384 7.40445C12.8384 7.26328 12.7823 7.1279 12.6825 7.02808C12.5827 6.92825 12.4473 6.87216 12.3061 6.87216H5.69383C5.55266 6.87216 5.41728 6.92825 5.31746 7.02808C5.21763 7.1279 5.16154 7.26328 5.16154 7.40445C5.16154 7.54562 5.21763 7.681 5.31746 7.78082C5.41728 7.88064 5.55266 7.93674 5.69383 7.93674H12.3061ZM5.69383 9.5325C5.55266 9.5325 5.41728 9.58859 5.31746 9.68841C5.21763 9.78824 5.16154 9.92361 5.16154 10.0648C5.16154 10.206 5.21763 10.3413 5.31746 10.4412C5.41728 10.541 5.55266 10.5971 5.69383 10.5971H12.3061C12.4473 10.5971 12.5827 10.541 12.6825 10.4412C12.7823 10.3413 12.8384 10.206 12.8384 10.0648C12.8384 9.92361 12.7823 9.78824 12.6825 9.68841C12.5827 9.58859 12.4473 9.5325 12.3061 9.5325H5.69383ZM5.69383 12.1928C5.62196 12.1896 5.55019 12.2009 5.48282 12.2261C5.41546 12.2514 5.3539 12.29 5.30188 12.3397C5.24987 12.3894 5.20849 12.4491 5.18021 12.5153C5.15192 12.5814 5.13732 12.6526 5.13732 12.7246C5.13732 12.7965 5.15192 12.8677 5.18021 12.9338C5.20849 13 5.24987 13.0597 5.30188 13.1094C5.3539 13.1591 5.41546 13.1978 5.48282 13.223C5.55019 13.2483 5.62196 13.2596 5.69383 13.2563H10.102C10.1739 13.2596 10.2456 13.2483 10.313 13.223C10.3804 13.1978 10.4419 13.1591 10.494 13.1094C10.546 13.0597 10.5874 13 10.6157 12.9338C10.6439 12.8677 10.6585 12.7965 10.6585 12.7246C10.6585 12.6526 10.6439 12.5814 10.6157 12.5153C10.5874 12.4491 10.546 12.3894 10.494 12.3397C10.4419 12.29 10.3804 12.2514 10.313 12.2261C10.2456 12.2009 10.1739 12.1896 10.102 12.1928H5.69383Z" fill="#B1BAD3"/>
</svg>
