<svg width="18" height="18" viewBox="0 0 18 18" fill="none" xmlns="http://www.w3.org/2000/svg">
<path d="M11.2388 16.7143C11.0957 16.714 10.9541 16.6846 10.8228 16.6277C10.6915 16.5709 10.5732 16.4878 10.4752 16.3837C10.0983 15.8844 9.55368 15.5377 8.9414 15.4073C8.42387 15.4073 7.79711 15.9814 7.49476 16.2569L7.48593 16.2646L7.45503 16.2922L7.41862 16.3253L7.40648 16.3341L7.39654 16.3473C7.30219 16.4532 7.18567 16.5372 7.05525 16.5931C6.92482 16.6491 6.78367 16.6758 6.64177 16.6713C6.50344 16.6637 6.3675 16.632 6.24011 16.5776L6.22577 16.5699L4.38298 15.4855L4.36753 15.4767C4.16836 15.3335 4.02108 15.1297 3.94786 14.8958C3.87463 14.6619 3.8794 14.4105 3.96145 14.1796C4.04982 13.9398 4.1026 13.6885 4.11814 13.4335C4.13303 12.9207 3.9441 12.4228 3.59261 12.0486C3.24112 11.6745 2.75566 11.4544 2.24225 11.4366H2.19922C1.83838 11.4366 1.54376 11.1148 1.44886 10.6167V10.6057C1.44886 10.5913 1.44003 10.5506 1.43562 10.5098C1.23565 9.54062 1.23565 8.54091 1.43562 7.57174C1.43562 7.5475 1.44224 7.52215 1.44555 7.50342L1.45217 7.46154V7.45603C1.54155 6.94138 1.82073 6.63391 2.20252 6.63391H2.28529C2.79869 6.61607 3.28416 6.39604 3.63565 6.02188C3.98713 5.64772 4.17607 5.14985 4.16118 4.63701C4.14854 4.35904 4.08535 4.08569 3.9747 3.83032L3.96476 3.80497C3.8723 3.58947 3.85365 3.34951 3.91171 3.12235C3.96978 2.89518 4.1013 2.69351 4.28587 2.54864L6.27211 1.40693L6.28425 1.40142L6.2997 1.39591C6.42069 1.34694 6.54894 1.31826 6.67929 1.31105C6.82241 1.3113 6.96397 1.34076 7.09528 1.39761C7.22659 1.45447 7.34487 1.53751 7.44289 1.64166C7.83075 2.09455 8.35754 2.40681 8.9414 2.52991C9.52781 2.398 10.0544 2.07694 10.4399 1.61631C10.6428 1.41144 10.9173 1.29296 11.2057 1.28571C11.3441 1.29326 11.48 1.32497 11.6074 1.37938L13.502 2.51558C13.7227 2.63005 13.8944 2.82052 13.9853 3.05171C14.0762 3.2829 14.0801 3.53915 13.9964 3.77301C13.9075 4.01261 13.8547 4.26403 13.8397 4.51909C13.8248 5.03192 14.0137 5.5298 14.3652 5.90396C14.7167 6.27812 15.2022 6.49815 15.7156 6.51599H15.7983C16.1592 6.51599 16.4538 6.83779 16.5487 7.33591V7.34141V7.35244C16.5487 7.36897 16.5575 7.40974 16.5641 7.45162C16.6497 7.93702 16.6998 8.42799 16.7142 8.92064C16.7019 9.41635 16.6518 9.9104 16.5641 10.3985V10.404C16.5575 10.4404 16.552 10.4723 16.5509 10.4899V10.501V10.5087C16.4615 11.0233 16.1824 11.3308 15.8006 11.3308H15.7178C15.2049 11.3484 14.7198 11.5679 14.3683 11.9414C14.0168 12.3149 13.8276 12.812 13.8419 13.3244V13.3376C13.83 13.6042 13.8779 13.87 13.982 14.1157V14.1509L14.0074 14.1785C14.0927 14.3924 14.1065 14.6281 14.0469 14.8505C13.9872 15.0728 13.8573 15.2701 13.6764 15.4128L13.6631 15.4238L11.731 16.5578C11.5833 16.6518 11.4137 16.7058 11.2388 16.7143ZM8.85643 14.2898C9.46024 14.3287 10.0355 14.5605 10.4973 14.951H10.5039H10.5105C10.7442 15.0891 10.9586 15.2573 11.1483 15.4513L11.2311 15.5362L12.9238 14.5543L12.8786 14.4198C12.7697 14.0971 12.7109 13.7597 12.7042 13.4192C12.6993 12.6225 12.9884 11.852 13.5164 11.2548C13.9798 10.723 14.6218 10.3785 15.3216 10.2861L15.4408 10.2717L15.4585 10.145C15.5104 9.75662 15.5381 9.36537 15.5412 8.97354C15.5307 8.61368 15.5008 8.25463 15.4519 7.89795V7.87591C15.4519 7.85166 15.4518 7.82852 15.4452 7.81199L15.4353 7.67644L15.3073 7.65991C14.6165 7.56809 13.9822 7.23038 13.5208 6.70885C12.9897 6.1056 12.7001 5.32785 12.7075 4.5246C12.7159 4.18337 12.7769 3.84548 12.8885 3.52285L12.9315 3.3906L11.2476 2.38995L11.1627 2.4704C10.9861 2.64326 10.7957 2.80138 10.5933 2.94317C10.1467 3.30841 9.59859 3.52804 9.02305 3.57244C8.43395 3.53365 7.87108 3.31472 7.41089 2.94538L7.38882 2.93105C7.18836 2.78551 7.00346 2.61969 6.83709 2.43623L6.75212 2.34477L4.98657 3.38509L5.03182 3.51954C5.14205 3.84233 5.20124 4.1803 5.20726 4.52129C5.2122 5.31795 4.92307 6.08848 4.39511 6.6857C3.93507 7.21234 3.30046 7.55585 2.6075 7.6533L2.49494 7.67754L2.47619 7.80097C2.47619 7.8208 2.47619 7.84174 2.46957 7.85938C2.46957 7.8704 2.46957 7.88141 2.46957 7.89464V7.91338C2.42104 8.26529 2.39157 8.61956 2.38129 8.97464C2.39187 9.33451 2.4217 9.69355 2.47067 10.0502V10.0701C2.47413 10.092 2.47633 10.114 2.47729 10.1362L2.48722 10.2717L2.61522 10.2883C3.30597 10.3801 3.94034 10.7178 4.40174 11.2393C4.93286 11.8426 5.22244 12.6203 5.21499 13.4236C5.20816 13.7662 5.14938 14.1058 5.04065 14.4308L4.99761 14.5609L6.60977 15.5373L6.69474 15.4458C6.8614 15.2643 7.04628 15.1003 7.24647 14.9565C7.69805 14.5683 8.26225 14.3346 8.85643 14.2898Z" fill="#B1BAD3"/>
<path d="M9.00651 12.0432C8.19607 12.0419 7.41931 11.7193 6.84703 11.1461C6.42224 10.7203 6.13331 10.1784 6.0167 9.58867C5.90009 8.99898 5.96103 8.38802 6.19184 7.8329C6.42265 7.27778 6.81297 6.80341 7.31353 6.46967C7.81409 6.13593 8.40247 5.95778 9.00432 5.95773C9.81476 5.95901 10.5915 6.28168 11.1638 6.85479C11.5913 7.27957 11.8826 7.82175 12.0008 8.41234C12.1189 9.00293 12.0585 9.61526 11.8272 10.1715C11.596 10.7277 11.2043 11.2026 10.702 11.5359C10.1997 11.8692 9.60954 12.0458 9.00651 12.0432ZM9.00651 7.1788C8.64477 7.18032 8.29161 7.28884 7.99158 7.49066C7.69154 7.69248 7.45811 7.97855 7.32073 8.31275C7.18336 8.64696 7.1482 9.01434 7.21971 9.36848C7.29121 9.72263 7.46619 10.0476 7.72251 10.3026C7.97884 10.5575 8.30503 10.7309 8.65993 10.8008C9.01483 10.8707 9.38253 10.8341 9.71658 10.6955C10.0506 10.5568 10.3361 10.3225 10.5369 10.022C10.7377 9.72152 10.8449 9.36835 10.8449 9.00708C10.8434 8.5213 10.649 8.05594 10.3043 7.71317C9.95968 7.37039 9.49292 7.17821 9.00651 7.1788Z" fill="#B1BAD3"/>
</svg>
