<svg xmlns="http://www.w3.org/2000/svg" width="513.584" height="400" viewBox="0 0 513.584 400">
    <g data-name="Business deal-rafiki">
        <path data-name="矩形 8539" transform="translate(0 353.613)" style="fill:#ebebeb" d="M0 0h513.584v.257H0z"/>
        <path data-name="矩形 8540" transform="translate(337.815 361.769)" style="fill:#ebebeb" d="M0 0h34.02v.257H0z"/>
        <path data-name="矩形 8541" transform="translate(410.641 361.902)" style="fill:#ebebeb" d="M0 0h42.258v.257H0z"/>
        <path data-name="矩形 8542" transform="translate(366.453 368.61)" style="fill:#ebebeb" d="M0 0h19.711v.257H0z"/>
        <path data-name="矩形 8543" transform="translate(178.727 366.668)" style="fill:#ebebeb" d="M0 0h53.074v.257H0z"/>
        <path data-name="矩形 8544" transform="translate(134.261 366.668)" style="fill:#ebebeb" d="M0 0h35.324v.257H0z"/>
        <path data-name="矩形 8545" transform="translate(65.009 362.334)" style="fill:#ebebeb" d="M0 0h48.113v.257H0z"/>
        <path data-name="路径 13125" d="M242.4 345.483H44.065a5.865 5.865 0 0 1-5.855-5.865V60.814A5.865 5.865 0 0 1 44.065 55H242.4a5.865 5.865 0 0 1 5.865 5.865v278.753a5.865 5.865 0 0 1-5.865 5.865zM44.065 55.205a5.608 5.608 0 0 0-5.6 5.608v278.8a5.608 5.608 0 0 0 5.6 5.608H242.4a5.619 5.619 0 0 0 5.608-5.608V60.814a5.619 5.619 0 0 0-5.608-5.608z" transform="translate(1.038 -37.682)" style="fill:#ebebeb"/>
        <path data-name="路径 13126" d="M458.711 345.483H260.365a5.875 5.875 0 0 1-5.865-5.865V60.814A5.875 5.875 0 0 1 260.365 55h198.346a5.865 5.865 0 0 1 5.845 5.814v278.8a5.865 5.865 0 0 1-5.845 5.869zM260.365 55.205a5.619 5.619 0 0 0-5.608 5.608v278.8a5.619 5.619 0 0 0 5.608 5.608h198.346a5.619 5.619 0 0 0 5.608-5.608V60.814a5.619 5.619 0 0 0-5.608-5.608z" transform="translate(6.914 -37.682)" style="fill:#ebebeb"/>
        <path data-name="矩形 8546" transform="translate(35.725)" style="opacity:.1;fill:#f5f5f5" d="M0 0h143.074v279.123H0z"/>
        <path data-name="矩形 8547" transform="translate(184.952)" style="opacity:.1;fill:#f5f5f5" d="M0 0h143.074v279.123H0z"/>
        <path data-name="矩形 8549" transform="translate(334.795)" style="opacity:.1;fill:#f5f5f5" d="M0 0h143.074v279.123H0z"/>
        <path data-name="路径 13133" d="M461.008 183.847h-4.458v-30.26l4.458-2.907z" transform="translate(12.404 -35.082)" style="fill:#e6e6e6"/>
        <path data-name="路径 13134" d="M446.828 190.938h-4.448v-30.26l4.448-2.917z" transform="translate(12.019 -34.89)" style="fill:#e6e6e6"/>
        <path data-name="路径 13139" d="M111.867 317.263H73.42L152.666 38.14h38.447z" transform="translate(-16.268 -38.14)" style="opacity:.5;fill:#fff"/>
        <path data-name="路径 13140" d="M224.067 317.263H185.62L264.856 38.14h38.457z" transform="translate(5.043 -38.14)" style="opacity:.5;fill:#fff"/>
        <path data-name="路径 13141" d="M270.917 317.263H232.47L311.716 38.14h38.447z" transform="translate(6.316 -38.14)" style="opacity:.5;fill:#fff"/>
        <path data-name="路径 13142" d="M360.508 317.263H341.29L420.536 38.14h19.218z" transform="translate(9.272 -38.14)" style="opacity:.5;fill:#fff"/>
        <path data-name="路径 13143" d="M110.84 335.688c11.093-59.494 40.327-87.412 65.2-101.628-23.826 22.54-40.034 100.508-65.2 101.628z" transform="translate(3.011 -32.817)" style="fill:#fafafa"/>
        <path data-name="路径 13144" d="M88.352 330.287c-8.217-44.846-27.97-62.39-44.692-69.847 16.14 14.113 27.949 72.672 44.692 69.847z" transform="translate(1.186 -32.1)" style="fill:#fafafa"/>
        <path data-name="路径 13145" d="M102.468 342.815C99.3 278.309 74.734 249.99 52.64 236.39c20.05 22.865 25.782 107.298 49.828 106.425z" transform="translate(1.43 -32.754)" style="fill:#fafafa"/>
        <path data-name="路径 13146" d="M101.15 337.534c5.136-64.814 32.541-95.147 56.905-110.544-22.372 24.488-30.815 109.455-56.905 110.544z" transform="translate(2.748 -33.009)" style="fill:#fafafa"/>
        <path data-name="路径 13147" d="M105.841 347.94c8.217-66.581-9.953-106.7-28.381-130.82 14.94 32.48 5.608 120.38 28.381 130.82z" transform="translate(2.104 -33.277)" style="fill:#fafafa"/>
        <path data-name="路径 13148" d="M130 326.055c20.739-38.786 46.757-48.03 66.766-48.975-21.166 7.355-49.53 57.62-66.766 48.975z" transform="translate(3.532 -31.648)" style="fill:#fafafa"/>
        <path data-name="路径 13149" d="M125.81 328.076c13.076-43.953 37.831-62.657 58.169-71.306-20.164 15.058-38.579 72.539-58.169 71.306z" transform="translate(3.418 -32.2)" style="fill:#fafafa"/>
        <path data-name="路径 13150" d="M103.682 348.322c22.351-68.933 12.254-111.438-1.448-137.322 8.351 34.441-19.578 125.52 1.448 137.322z" transform="translate(2.599 -33.444)" style="fill:#fafafa"/>
        <path data-name="路径 13151" d="M66.55 320.56v43.367c0 11.083 20 20.153 44.456 20.153 24.447 0 44.456-9.07 44.456-20.153V320.56z" transform="translate(1.808 -30.467)" style="fill:#f5f5f5"/>
        <path data-name="路径 13152" d="M400.949 350.307c-2.455-40.912-20.071-60.11-35.879-69.847 14.422 15.459 18.777 69.098 35.879 69.847z" transform="translate(9.918 -31.557)" style="fill:#e0e0e0"/>
        <path data-name="路径 13153" d="M416.64 346.621c9.47-30.815 24.549-42.915 36.649-48.051-12.274 9.686-25.422 49.982-36.649 48.051z" transform="translate(11.319 -31.065)" style="fill:#e0e0e0"/>
        <path data-name="路径 13154" d="M406.07 355.236c7.735-44.353 27-63.828 43.316-73.176-15.654 15.705-26.953 73.761-43.316 73.176z" transform="translate(11.032 -31.513)" style="fill:#e0e0e0"/>
        <path data-name="路径 13155" d="M407.318 351.6c2.054-44.579-14.072-65.431-29.428-76.01 13.21 16.856 11.648 75.261 29.428 76.01z" transform="translate(10.267 -31.689)" style="fill:#e0e0e0"/>
        <path data-name="路径 13156" d="M403 358.749c.113-45.781 16.034-73.371 30.743-89.959-13.024 22.341-14.257 82.78-30.743 89.959z" transform="translate(10.949 -31.874)" style="fill:#e0e0e0"/>
        <path data-name="路径 13157" d="M388.748 343.7c-10.878-26.706-27.9-33.034-41.518-33.681 13.857 5.055 28.946 39.629 41.518 33.681z" transform="translate(9.434 -30.753)" style="fill:#e0e0e0"/>
        <path data-name="路径 13158" d="M391.261 345.1c-5.136-30.23-20.492-43.059-33.671-49.037 12.501 10.351 20.153 49.876 33.671 49.037z" transform="translate(9.715 -31.133)" style="fill:#e0e0e0"/>
        <path data-name="路径 13159" d="M404.175 359.017c-9.357-47.4 1.233-76.627 12.85-94.417-8.69 23.666 2.537 86.292-12.85 94.417z" transform="translate(10.883 -31.987)" style="fill:#e0e0e0"/>
        <path data-name="路径 13160" d="M430.874 340v29.788c0 7.611-13.733 13.836-30.517 13.836s-30.507-6.225-30.507-13.836V340z" transform="translate(10.048 -29.939)" style="fill:#f5f5f5"/>
        <g transform="translate(57.634 376.745)" style="opacity:.1">
            <ellipse cx="199.158" cy="11.628" rx="199.158" ry="11.628" style="fill:#f5f5f5"/>
        </g>
        <g>
            <path data-name="路径 13161" d="M268.064 129.919v13.466a3.6 3.6 0 0 1-3.585 3.585h-33.044a3.6 3.6 0 0 1-3.585-3.585V94.564A3.6 3.6 0 0 1 231.435 91h32.993a3.6 3.6 0 0 1 3.636 3.564v21.3" transform="translate(6.19 -36.704)" style="fill:#fff"/>
            <path data-name="路径 13162" d="M264.441 147.57h-32.992a4.109 4.109 0 0 1-4.109-4.109V94.579a4.109 4.109 0 0 1 4.109-4.109h32.993a4.109 4.109 0 0 1 4.109 4.109v21.3h-1.089v-21.3a3.081 3.081 0 0 0-3.082-3.079h-32.931a3.081 3.081 0 0 0-3.081 3.082V143.4a3.081 3.081 0 0 0 3.081 3.082h32.993a3.081 3.081 0 0 0 3.081-3.082v-13.466h1.089V143.4a4.109 4.109 0 0 1-4.17 4.17z" transform="translate(6.176 -36.718)" style="fill:#f04e23"/>
            <path data-name="路径 13163" d="M245.02 139.074a18.973 18.973 0 0 1 2.106-1.14 10.286 10.286 0 0 1 1.027-.4 3.851 3.851 0 0 1 1.212-.277l-.421-.236c-.072-.113-.113.175-.133.247l-.144.36a3.177 3.177 0 0 0-.257.8.637.637 0 0 0 .668.8 8.412 8.412 0 0 0 3.03-1.181h-.38c.113 0 .247.154.36.2a1.757 1.757 0 0 0 .524.1 7.825 7.825 0 0 1 1.2 0c.627.062.616-.914 0-.966a5.868 5.868 0 0 1-1.274 0c-.411-.092-.534-.38-.966-.185s-.781.452-1.2.627a5.873 5.873 0 0 1-.6.216l-.39.113c-.113 0-.318 0-.154.164l.144.339c0-.657.7-1.274.514-1.952s-1.027-.38-1.531-.257a14.38 14.38 0 0 0-3.852 1.767.485.485 0 0 0 .483.842z" transform="translate(6.636 -35.474)" style="fill:#e0e0e0"/>
            <path data-name="矩形 8551" transform="translate(237.861 61.579)" style="fill:#e0e0e0" d="M0 0h32.51v1.079H0z"/>
            <path data-name="矩形 8552" transform="translate(237.861 69.231)" style="fill:#e0e0e0" d="M0 0h28.833v1.079H0z"/>
            <path data-name="矩形 8553" transform="translate(237.861 76.894)" style="fill:#e0e0e0" d="M0 0h32.51v1.079H0z"/>
            <path data-name="矩形 8554" transform="translate(237.861 84.557)" style="fill:#e0e0e0" d="M0 0h8.936v1.079H0z"/>
            <path data-name="矩形 8555" transform="translate(250.546 84.557)" style="fill:#e0e0e0" d="M0 0h11.884v1.079H0z"/>
            <path data-name="矩形 8556" transform="translate(237.861 92.209)" style="fill:#e0e0e0" d="M0 0h32.51v1.079H0z"/>
            <path data-name="路径 13164" d="M236.053 141.5a5.013 5.013 0 1 1 5.013-5.013 5.013 5.013 0 0 1-5.013 5.013zm0-8.936a3.934 3.934 0 1 0 3.934 3.924 3.934 3.934 0 0 0-3.934-3.929z" transform="translate(6.277 -35.604)" style="fill:#f04e23"/>
            <path data-name="路径 13165" d="M238.957 136.428A2.958 2.958 0 1 1 236 133.48a2.958 2.958 0 0 1 2.957 2.948z" transform="translate(6.331 -35.549)" style="fill:#f04e23"/>
            <path data-name="路径 13166" d="M255.08 136.156a9.121 9.121 0 0 1 1.459-3.934c.74-1.12 1.633-2.054 2.455-3.153q2.481-3.081 5.136-6.163c3.472-4.037 6.995-8.032 10.837-11.782a.555.555 0 0 1 .853.678c-2.773 4.591-5.865 8.936-9.008 13.24a284.119 284.119 0 0 1-4.828 6.358c-.832 1.027-1.592 2.137-2.517 3.081a9.1 9.1 0 0 1-3.492 2.321.657.657 0 0 1-.822-.39.688.688 0 0 1-.073-.256z" transform="translate(6.93 -36.16)" style="fill:#f04e23"/>
            <path data-name="矩形 8557" transform="rotate(-41.09 318.742 -272.964)" style="fill:#f04e23" d="M0 0h8.957v1.079H0z"/>
            <path data-name="矩形 8558" transform="rotate(-77.35 214.27 -88.493)" style="fill:#f04e23" d="M0 0h13.055v1.079H0z"/>
            <path data-name="矩形 8559" transform="rotate(-43.12 297.206 -242.152)" style="fill:#f04e23" d="M0 0h1.079v5.495H0z"/>
        </g>
        <g transform="translate(246.798 43.42)">
            <path data-name="路径 13167" d="M317.32 408.825h-8.741l-1.069-20.235h8.731z" transform="translate(-238.443 -72.039)" style="fill:#7f3e3b"/>
            <path data-name="路径 13168" d="M360.282 408.825h-8.742l-3.42-20.235h8.731z" transform="translate(-237.34 -72.039)" style="fill:#7f3e3b"/>
            <path data-name="路径 13169" d="M351.314 407.3h9.809a.719.719 0 0 1 .719.6l1.356 7.765a1.366 1.366 0 0 1-1.356 1.561c-3.42-.062-5.074-.267-9.4-.267-2.65 0-9.809.277-13.476.277s-3.975-3.626-2.465-3.955c6.81-1.469 11.114-3.5 13.353-5.434a2.229 2.229 0 0 1 1.459-.544z" transform="translate(-237.679 -71.531)" style="fill:#263238"/>
            <path data-name="路径 13170" d="M308.825 407.3h9.532a.719.719 0 0 1 .719.6l1.356 7.765a1.346 1.346 0 0 1-1.335 1.561c-3.431-.062-8.4-.267-12.727-.267-5.054 0-6.338.277-12.275.277-3.585 0-4.407-3.626-2.886-3.955 6.9-1.489 9.4-1.654 15.469-5.29a4.211 4.211 0 0 1 2.147-.691z" transform="translate(-238.906 -71.531)" style="fill:#263238"/>
            <path data-name="路径 13171" d="M309.535 143.5 297.6 140s-12.162 28.894-16.281 30.815c-5.6 2.568-20.543 10.446-26.871 14.165-.431 1.428-.442 5.341.247 6.471 10.364-.822 31.627-7.858 35.715-11.782 9.326-8.957 19.125-36.169 19.125-36.169z" transform="translate(-239.893 -78.793)" style="fill:#7f3e3b"/>
            <path data-name="路径 13172" d="M312.415 138.378c3.39 7.56-19.886 40.717-19.886 40.717l-11.3-11.73s9.994-25.094 15.408-34.718c5.527-9.893 12.09-2.589 15.778 5.731z" transform="translate(-239.157 -79.122)" style="fill:#f04e23"/>
            <path data-name="路径 13173" d="M312.415 138.378c3.39 7.56-19.886 40.717-19.886 40.717l-11.3-11.73s9.994-25.094 15.408-34.718c5.527-9.893 12.09-2.589 15.778 5.731z" transform="translate(-239.157 -79.122)" style="opacity:.4;fill:#fff"/>
            <path data-name="路径 13174" d="M280.5 165.311c-.709.421-2.229 3.184-2.568 4.561s7.611 12 10.7 11.566 6.625-3.441 7.262-5.064-13.906-11.936-15.394-11.063z" transform="translate(-239.247 -78.107)" style="fill:#f04e23"/>
            <path data-name="路径 13175" d="m255.92 183.185-7.19-1.315.431 10.272s2.527 1.027 7.971-2.342z" transform="translate(-240.04 -77.655)" style="fill:#7f3e3b"/>
            <path data-name="路径 13176" d="m240.27 185.29 1.315 6.317 7.755.575-.431-10.3z" transform="translate(-240.27 -77.655)" style="fill:#7f3e3b"/>
            <path data-name="路径 13177" d="m307.51 388.6.555 10.426h8.735l-.544-10.426z" transform="translate(-238.443 -72.039)" style="opacity:.2"/>
            <path data-name="路径 13178" d="M356.861 388.6h-8.741l1.767 10.426h8.741z" transform="translate(-237.34 -72.039)" style="opacity:.2"/>
            <path data-name="路径 13179" d="M300.957 128.132s-11.658 30.014-4.2 79.143h46.726c.657-7.19-2.054-45.8 6.44-79.6a119.2 119.2 0 0 0-15.551-1.982 173.077 173.077 0 0 0-19.865 0 90.163 90.163 0 0 0-13.55 2.439z" transform="translate(-238.803 -79.189)" style="fill:#f04e23"/>
            <path data-name="路径 13180" d="M300.957 128.132s-11.658 30.014-4.2 79.143h46.726c.657-7.19-2.054-45.8 6.44-79.6a119.2 119.2 0 0 0-15.551-1.982 173.077 173.077 0 0 0-19.865 0 90.163 90.163 0 0 0-13.55 2.439z" transform="translate(-238.803 -79.189)" style="opacity:.2"/>
            <path data-name="路径 13181" d="M338.189 135.876c-1.027 5.567.072 18.869 4.643 34.246a224.884 224.884 0 0 1 5.136-39.228v-.062c-3.102-.318-8.782-.174-9.779 5.044z" transform="translate(-237.619 -79.045)" style="opacity:.2"/>
            <path data-name="路径 13182" d="M332.171 107.61c-1.561 6.389-2.558 14.308 1.705 18.571 0 0-2.876 6.492-14.75 6.492-10.857 0-5.136-6.492-5.136-6.492 7.19-1.695 7.262-10.508 6.255-15.479z" transform="translate(-238.308 -79.673)" style="fill:#7f3e3b"/>
            <path data-name="路径 13183" d="M319 132.232c7 2.188 8.382 4.427 8.382 4.427s8.721-3.544 8.392-11.227a17.578 17.578 0 0 0-3.41-1.972s-.74 5.691-13.364 8.772z" transform="translate(-238.131 -79.242)" style="fill:#f04e23"/>
            <path data-name="路径 13184" d="M319.22 132.2c-3.924.37-7.19 3.729-7.19 3.729s-2.5-2.619-.1-10.22c0 0 2.332-.791 4.263-1.2-.054.011-1.626 6.051 3.027 7.691z" transform="translate(-238.351 -79.214)" style="fill:#f04e23"/>
            <path data-name="路径 13185" d="M320.075 110.712c.6 2.907.822 7.19-.555 10.487a11.751 11.751 0 0 0 3.236-1.027c4.109-1.89 6.225-4.879 8.505-9.244.205-1.14.452-2.25.719-3.318z" transform="translate(-238.117 -79.673)" style="opacity:.2"/>
            <path data-name="路径 13186" d="M318.857 87.734c-2.794.914-9.039 6.276-3.082 8.977s7.951-10.559 3.082-8.977z" transform="translate(-238.286 -80.217)" style="fill:#263238"/>
            <path data-name="路径 13187" d="M337.758 100.4c-2.722 8.382-3.893 13.353-9.245 16.846-8.043 5.136-17.339-1.027-17.123-9.881.185-8.022 4.6-20.379 13.651-21.971s15.439 6.657 12.717 15.006z" transform="translate(-238.338 -80.282)" style="fill:#7f3e3b"/>
            <path data-name="路径 13188" d="M324.546 91.36c-4.622.781-8.474.534-9.871-3.307s4.961-7.868 9.347-6.06c3.236-3.369 12.069-.781 13.209 2.455 5.136-.329 9.994 5.588 6.512 8.618a6.1 6.1 0 0 1 1.027 9.563c1.5 4.458-3.9 8.906-8.166 7.1-4.2-1.253-6.492-.226-7.077-2.938s.894-5.331 4.468-5.855c-1.808-2.157-2.249-5.567-1.027-7.036-4.323 1.959-7.868-.507-8.422-2.54z" transform="translate(-238.254 -80.412)" style="fill:#263238"/>
            <path data-name="路径 13189" d="M318.906 108.708a6.225 6.225 0 0 0 4.55-1.459.216.216 0 0 0 0-.3.2.2 0 0 0-.288 0 5.906 5.906 0 0 1-4.992 1.233.216.216 0 0 0-.247.164.185.185 0 0 0 .154.236 8.221 8.221 0 0 0 .823.126z" transform="translate(-238.16 -79.692)" style="fill:#263238"/>
            <path data-name="路径 13190" d="M337.758 111.446a8.6 8.6 0 0 1-6.163 1.777c-2.866-.318-3.081-3.143-1.284-5.28 1.623-1.931 5.074-4.109 7.468-2.691s2.121 4.489-.021 6.194z" transform="translate(-237.855 -79.749)" style="fill:#7f3e3b"/>
            <path data-name="路径 13191" d="M327.523 205.111s-1.191 10.991-2.712 25.874c-1.746 16.876-3.913 38.786-5.29 55.467v.226c-.267 3.174-.5 6.163-.7 8.854-1.952 27.23 1.541 106.445 1.541 106.445h-14.81s-13.641-80.838-13.3-108.551c.318-26.634 4.55-88.336 4.55-88.336z" transform="translate(-238.858 -77.025)" style="fill:#f04e23"/>
            <path data-name="路径 13192" d="M321.27 391.156c.072 0-.257 6.1-.257 6.1h-17.062l-.431-6.7z" transform="translate(-238.552 -71.986)" style="fill:#263238"/>
            <path data-name="路径 13193" d="M324.233 230.623c-1.746 16.876-3.913 38.786-5.29 55.467v.226c-3.256-15.829-4.273-35.509-3.01-67.916z" transform="translate(-238.229 -76.663)" style="opacity:.2"/>
            <path data-name="路径 13194" d="M312.82 205.11s6.82 63.13 11.063 88.141c4.653 27.395 23.019 108.736 23.019 108.736h16S352.119 322.9 350 295.737c-2.28-29.439-7-90.627-7-90.627z" transform="translate(-238.299 -77.024)" style="fill:#f04e23"/>
            <path data-name="路径 13195" d="M362.254 391.518c.072 0 .555 5.732.555 5.732h-17.585l-1.284-6.4z" transform="translate(-237.454 -71.978)" style="fill:#263238"/>
            <path data-name="路径 13196" d="M322.974 99.678c-.185.688-.688 1.171-1.13 1.027s-.657-.74-.483-1.428.688-1.171 1.13-1.027.658.771.483 1.428z" transform="translate(-238.069 -79.928)" style="fill:#263238"/>
            <path data-name="路径 13197" d="M315.494 98.038c-.185.688-.688 1.171-1.13 1.027s-.657-.729-.483-1.428.688-1.171 1.13-1.027.658.74.483 1.428z" transform="translate(-238.272 -79.972)" style="fill:#263238"/>
            <path data-name="路径 13198" d="M319.066 98.86a27.291 27.291 0 0 1-4.776 5.208c.9 1.4 3.082 1.325 3.082 1.325z" transform="translate(-238.259 -79.911)" style="fill:#630f0f"/>
            <path data-name="路径 13199" d="M327.074 97.759a.421.421 0 0 1-.277-.236 3.081 3.081 0 0 0-2.2-1.911.39.39 0 0 1-.329-.472.431.431 0 0 1 .483-.349 3.842 3.842 0 0 1 2.814 2.383.442.442 0 0 1-.226.555.411.411 0 0 1-.267.031z" transform="translate(-237.988 -80.021)" style="fill:#263238"/>
            <path data-name="路径 13200" d="M314.007 94.636a.614.614 0 0 1-.154-.092.411.411 0 0 1 0-.585 4.191 4.191 0 0 1 3.547-1.439.39.39 0 0 1 .329.473.442.442 0 0 1-.483.349 3.359 3.359 0 0 0-2.8 1.171.452.452 0 0 1-.439.123z" transform="translate(-238.274 -80.083)" style="fill:#263238"/>
            <path data-name="路径 13201" d="m353.782 139.23-11.032 6.677S355.076 172.613 355 177.1c-.205 8.382 3.4 26.552 2.424 36.125 1.356.483 5.136.6 6.327-.072 2.188-8.659 5.218-31.411 4.345-37.112-1.906-12.395-14.314-36.811-14.314-36.811z" transform="translate(-237.486 -78.814)" style="fill:#7f3e3b"/>
            <path data-name="路径 13202" d="M348.787 127.624c8.217 1.2 19.927 42.9 19.927 42.9l-15.2 5.762s-13.24-22.6-16.486-32.756c-3.495-10.595 2.956-17.2 11.759-15.906z" transform="translate(-237.668 -79.134)" style="fill:#f04e23"/>
            <path data-name="路径 13203" d="M348.787 127.624c8.217 1.2 19.927 42.9 19.927 42.9l-15.2 5.762s-13.24-22.6-16.486-32.756c-3.495-10.595 2.956-17.2 11.759-15.906z" transform="translate(-237.668 -79.134)" style="opacity:.4;fill:#fff"/>
            <path data-name="路径 13204" d="M348.054 408.849a2.475 2.475 0 0 1-1.654-.452 1.16 1.16 0 0 1-.38-1.089.7.7 0 0 1 .38-.586c1.027-.493 3.729 1.233 4.037 1.438a.185.185 0 0 1 .082.205.226.226 0 0 1-.164.164 10.026 10.026 0 0 1-2.301.32zm-1.2-1.839a.545.545 0 0 0-.267.051.267.267 0 0 0-.144.236.832.832 0 0 0 .247.76c.452.4 1.592.452 3.081.154a7.868 7.868 0 0 0-2.918-1.201z" transform="translate(-237.398 -71.549)" style="fill:#f04e23"/>
            <path data-name="路径 13205" d="M350.264 408.594a.165.165 0 0 1-.092 0c-.883-.483-2.537-2.4-2.3-3.379a.709.709 0 0 1 .678-.534 1.12 1.12 0 0 1 .873.257c.976.832 1.027 3.359 1.027 3.462a.236.236 0 0 1-.1.2.275.275 0 0 1-.086-.006zm-1.592-3.585h-.092c-.267 0-.3.154-.308.205-.144.575.9 2.054 1.767 2.7a4.674 4.674 0 0 0-.894-2.732.709.709 0 0 0-.473-.173z" transform="translate(-237.347 -71.602)" style="fill:#f04e23"/>
            <path data-name="路径 13206" d="M304.8 408.849a3.236 3.236 0 0 1-2.106-.534 1.161 1.161 0 0 1-.339-1.027.719.719 0 0 1 .37-.555c1.089-.6 4.519 1.192 4.91 1.4a.2.2 0 0 1 .092.216.216.216 0 0 1-.175.175 15.317 15.317 0 0 1-2.752.325zm-1.5-1.839a.851.851 0 0 0-.39.072.3.3 0 0 0-.144.226.74.74 0 0 0 .226.668c.514.472 1.941.555 3.893.236a10.94 10.94 0 0 0-3.585-1.201z" transform="translate(-238.584 -71.549)" style="fill:#f04e23"/>
            <path data-name="路径 13207" d="M307.458 408.594h-.093c-1.027-.473-3.081-2.362-2.825-3.349 0-.236.236-.524.8-.575a1.428 1.428 0 0 1 1.13.349c1.027.914 1.191 3.266 1.2 3.369a.226.226 0 0 1-.1.185.154.154 0 0 1-.112.021zm-1.972-3.585h-.123c-.37 0-.4.185-.411.226-.123.6 1.222 2.054 2.27 2.722a4.7 4.7 0 0 0-1.027-2.691 1.027 1.027 0 0 0-.709-.257z" transform="translate(-238.525 -71.603)" style="fill:#f04e23"/>
            <rect data-name="矩形 8560" width="61.353" height="42.977" rx="4.09" transform="rotate(-7.43 1201.771 -614.643)" style="fill:#263238"/>
            <rect data-name="矩形 8561" width="61.353" height="42.977" rx="4.09" transform="rotate(-7.43 1201.771 -614.643)" style="opacity:.3"/>
            <path data-name="路径 13208" d="M354.82 230.961a3.954 3.954 0 0 1-2.424-.832 4.027 4.027 0 0 1-1.53-2.65l-.924-7.129a3.985 3.985 0 0 1 3.441-4.468l11.864-1.551a4 4 0 0 1 4.478 3.441l.935 7.129a4.016 4.016 0 0 1-3.441 4.478l-11.874 1.541a4.492 4.492 0 0 1-.524.041zm10.95-14.38h-.216l-11.874 1.551a1.664 1.664 0 0 0-1.438 1.868l.924 7.129a1.684 1.684 0 0 0 .647 1.109 1.654 1.654 0 0 0 1.233.329l11.864-1.541a1.7 1.7 0 0 0 1.448-1.88l-.894-7.046a1.664 1.664 0 0 0-.637-1.109 1.7 1.7 0 0 0-1.058-.38zm1.294 11.617z" transform="translate(-237.291 -76.774)" style="fill:#263238"/>
            <rect data-name="矩形 8562" width="61.353" height="42.977" rx="4.09" transform="rotate(-7.43 1199.266 -653.47)" style="fill:#263238"/>
            <path data-name="路径 13209" d="m357.609 209.919-3.349 6.523 9.82.452a7.827 7.827 0 0 0-1.274-8.813z" transform="translate(-237.173 -76.943)" style="fill:#7f3e3b"/>
            <path data-name="路径 13210" d="m358.009 221.274 5.855-.8.216-3.8-9.82-.452.154 2.126a3.174 3.174 0 0 0 3.6 2.927z" transform="translate(-237.173 -76.722)" style="fill:#7f3e3b"/>
            <path data-name="路径 13211" d="M350.82 172.813c-.154.8.935 3.77 1.736 4.92s14.052 2.167 15.757-.442 1.777-7.252.966-8.8-18.14 2.586-18.459 4.322z" transform="translate(-237.267 -78.028)" style="fill:#f04e23"/>
        </g>
        <g>
            <path data-name="路径 13212" d="M163.187 141.69c-1.654 2.167-3.451 4.54-5.136 6.872s-3.308 4.7-4.859 7.108a91.833 91.833 0 0 0-8.022 14.6 27.119 27.119 0 0 0-.7 1.818q-.164.452-.308.894l-.144.452-.062.216v.062a6.448 6.448 0 0 0-.113 2.4 39.575 39.575 0 0 0 1.818 7.591c1.756 5.31 4.109 10.785 6.42 16.1l-5.249 3.328a88.041 88.041 0 0 1-10.169-15.705 41.876 41.876 0 0 1-3.523-9.5 16.66 16.66 0 0 1-.247-6.512l.082-.493.082-.329.154-.637c.092-.421.2-.842.318-1.253.226-.832.472-1.633.74-2.434a87.845 87.845 0 0 1 8.361-17.267c1.643-2.66 3.328-5.269 5.136-7.786s3.6-4.961 5.68-7.468z" transform="translate(3.605 -35.542)" style="fill:#263238"/>
            <path data-name="路径 13213" d="m150.349 196.2 5.4 2.866-6.163 7.283s-3.883-2.63-4.109-6.636z" transform="translate(3.953 -33.846)" style="fill:#ffc3bd"/>
            <path data-name="路径 13214" d="m162.917 203.479-6.656 5.29-6.831-2.5 6.214-7.283z" transform="translate(4.06 -33.77)" style="fill:#ffc3bd"/>
            <path data-name="路径 13215" d="m241.257 181 6.389 3.3-.565 2.3-5.136 5.136s-3.7-2.876-3.616-6.882z" transform="translate(6.475 -34.259)" style="fill:#ffc3bd"/>
            <path data-name="路径 13216" d="m242.08 181.909 5.855-1.1 3.759 1.6-2.506.421-1.644 1.489z" transform="translate(6.577 -34.264)" style="fill:#ffc3bd"/>
            <path data-name="路径 13217" d="m253.951 192.372-6.348 1.366a3.081 3.081 0 0 1-1.972-.236l-3.811-1.849 5.136-5.136 3.4-1.027 4.252 4.879a1.253 1.253 0 0 1-.657 2z" transform="translate(6.57 -34.137)" style="fill:#ffc3bd"/>
            <path data-name="路径 13218" d="M185.171 100.978c.144.688.616 1.171 1.027 1.027a1.211 1.211 0 0 0 .565-1.417c-.134-.688-.627-1.171-1.027-1.027a1.176 1.176 0 0 0-.565 1.417z" transform="translate(5.03 -36.472)" style="fill:#263238"/>
            <path data-name="路径 13219" d="M185.71 102.09a25.2 25.2 0 0 0 4.489 5.228 4.077 4.077 0 0 1-3.164 1.284z" transform="translate(5.046 -36.402)" style="fill:#ff5652"/>
            <path data-name="路径 13220" d="M182.01 97.765a.441.441 0 0 1-.277-.113.421.421 0 0 1 0-.585 4.109 4.109 0 0 1 3.513-1.366.421.421 0 0 1-.134.822 3.277 3.277 0 0 0-2.773 1.109.4.4 0 0 1-.329.133z" transform="translate(4.935 -36.577)" style="fill:#263238"/>
            <path data-name="路径 13221" d="M167.062 112.79c1.192 6.06 1.9 14.452-2.332 18.489 0 0 1.654 6.163 12.912 6.163 12.388 0 5.958-5.4 5.958-5.4-5.136-1.592-5.136-7.457-3.924-12.162z" transform="translate(4.476 -36.112)" style="fill:#ffc3bd"/>
            <path data-name="路径 13222" d="M163.016 135.045c-1.027-1.623-.688-6.543.544-7.344 1.972-1.294 10.107-1.15 20.9 2-1.459 4.7.914 7.355.914 7.355z" transform="translate(4.413 -35.727)" style="fill:#f04e23"/>
            <path data-name="路径 13223" d="M154.323 143.32c-3.852 3.8-4.971 11.586-4.55 16.9a108.57 108.57 0 0 1 2.989-4.8c1.551-2.414 3.2-4.766 4.869-7.129.462-.647.935-1.3 1.417-1.962.092-.421.175-.842.257-1.253z" transform="translate(4.067 -35.282)" style="opacity:.2"/>
            <path data-name="路径 13224" d="M127.7 407.046a2.7 2.7 0 0 0 2.054-.113.8.8 0 0 0 .2-.914.925.925 0 0 0-.5-.575c-1.12-.534-3.7.514-3.8.555a.2.2 0 0 0-.01.36 10.276 10.276 0 0 0 2.056.687zm1.356-1.325.226.072a.534.534 0 0 1 .3.339c.1.349 0 .462-.072.5-.442.38-2.054 0-3.256-.442a6.388 6.388 0 0 1 2.845-.5z" transform="translate(3.411 -28.165)" style="fill:#f04e23"/>
            <path data-name="路径 13225" d="M125.684 406.408h.092c.945-.267 2.948-1.695 2.969-2.63a.637.637 0 0 0-.5-.637 1.027 1.027 0 0 0-.873.072c-1.1.565-1.8 2.856-1.828 2.948a.152.152 0 0 0 .144.247zm2.342-2.938h.092c.236.082.236.205.236.257 0 .555-1.335 1.664-2.311 2.116a4.756 4.756 0 0 1 1.51-2.321.657.657 0 0 1 .514-.051z" transform="translate(3.411 -28.225)" style="fill:#f04e23"/>
            <path data-name="路径 13226" d="M187.261 408.373a3.4 3.4 0 0 0 2.434-.627.74.74 0 0 0 0-.853 1.027 1.027 0 0 0-.627-.462c-1.376-.37-4.273 1.274-4.4 1.346a.185.185 0 0 0-.092.205.2.2 0 0 0 .154.164 14.853 14.853 0 0 0 2.531.227zm1.315-1.6a1.494 1.494 0 0 1 .38 0 .576.576 0 0 1 .38.277c.144.246.092.359 0 .431-.38.534-2.475.544-4.016.329a8.947 8.947 0 0 1 3.256-1.04z" transform="translate(5.015 -28.135)" style="fill:#f04e23"/>
            <path data-name="路径 13227" d="M184.755 408.2h.082c1.027-.442 2.979-2.239 2.835-3.174 0-.226-.2-.493-.729-.555a1.489 1.489 0 0 0-1.089.339c-1.027.873-1.284 3.081-1.294 3.194a.216.216 0 0 0 .082.175.2.2 0 0 0 .113.021zm2.054-3.359h.123c.349 0 .37.175.38.216.092.565-1.253 1.972-2.27 2.578a4.581 4.581 0 0 1 1.089-2.547 1.027 1.027 0 0 1 .647-.247z" transform="translate(5.015 -28.187)" style="fill:#f04e23"/>
            <path data-name="路径 13228" d="M175.89 408.418h8.279l.822-19.188h-8.279z" transform="translate(4.779 -28.601)" style="fill:#ffc3bd"/>
            <path data-name="路径 13229" d="m116.83 404.945 7.991 1.695 7.252-18.355-7.991-1.695z" transform="translate(3.175 -28.673)" style="fill:#ffc3bd"/>
            <path data-name="路径 13230" d="m125.678 405.143-9.1-1.972a.719.719 0 0 0-.8.4l-3.164 6.851a1.222 1.222 0 0 0 .873 1.705c3.194.627 4.776.781 8.772 1.643 2.465.534 8.022 1.89 11.422 2.619s4.561-2.527 3.236-3.133c-5.937-2.712-8.423-5.136-10.035-7.334a1.992 1.992 0 0 0-1.204-.779z" transform="translate(3.057 -28.223)" style="fill:#263238"/>
            <path data-name="路径 13231" d="M184.2 407h-9.049a.739.739 0 0 0-.709.565l-1.633 7.365a1.212 1.212 0 0 0 1.191 1.479c3.266-.062 7.981-.246 12.079-.246 4.8 0 6.5.257 12.121.257 3.4 0 4.345-3.431 2.927-3.749-6.481-1.418-9.337-1.572-14.935-5.023A3.893 3.893 0 0 0 184.2 407z" transform="translate(4.695 -28.118)" style="fill:#263238"/>
            <path data-name="路径 13232" d="m184.98 389.24-.421 9.881h-8.289l.421-9.881z" transform="translate(4.789 -28.601)" style="opacity:.2"/>
            <path data-name="路径 13233" d="m123.989 386.59 7.991 1.695-3.739 9.46-7.991-1.685z" transform="translate(3.267 -28.673)" style="opacity:.2"/>
            <path data-name="路径 13234" d="M183.39 202.75s-9.409 63.315-14.565 87.032c-5.649 25.977-35.951 111.961-35.951 111.961L118 398.477s21.2-70.032 25.936-106.343c3.646-27.888 10.826-89.364 10.826-89.364z" transform="translate(3.206 -33.668)" style="fill:#263238"/>
            <path data-name="路径 13235" d="M183.39 202.75s-9.409 63.315-14.565 87.032c-5.649 25.977-35.951 111.961-35.951 111.961L118 398.477s21.2-70.032 25.936-106.343c3.646-27.888 10.826-89.364 10.826-89.364z" transform="translate(3.206 -33.668)" style="fill:#fff;opacity:.1"/>
            <path data-name="路径 13236" d="M136.444 391.7c.062 0-2.763 5.362-2.763 5.362L117 393.443l1.407-5.013z" transform="translate(3.179 -28.623)" style="fill:#263238"/>
            <path data-name="路径 13237" d="M176.114 224.712c-10.867 2.137-9.717 42.679-8.413 63.53 3.082-14.74 7.724-43.141 10.867-63.232a3.79 3.79 0 0 0-2.455-.3z" transform="translate(4.534 -33.073)" style="opacity:.3"/>
            <path data-name="路径 13238" d="M197.772 202.75s1.14 61.938.236 87.207c-.935 26.275-10.107 112.321-10.107 112.321h-14.082s-.514-84.505-1.14-110.318c-.678-28.134-4.109-89.21-4.109-89.21z" transform="translate(4.58 -33.668)" style="fill:#263238"/>
            <path data-name="路径 13239" d="M197.772 202.75s1.14 61.938.236 87.207c-.935 26.275-10.107 112.321-10.107 112.321h-14.082s-.514-84.505-1.14-110.318c-.678-28.134-4.109-89.21-4.109-89.21z" transform="translate(4.58 -33.668)" style="fill:#fff;opacity:.1"/>
            <path data-name="路径 13240" d="M190.486 391.56c.062 0-.8 5.824-.8 5.824h-17.094l-.462-5.2z" transform="translate(4.677 -28.538)" style="fill:#263238"/>
            <path data-name="路径 13241" d="M199.33 140.986c1.695 8.957 4.838 33.979-.072 70.382l-47.948-.74c-.277-6.358 4.776-40.871.1-71.512a6.615 6.615 0 0 1 5.68-7.539c2.424-.329 5.239-.637 8.012-.77a164.336 164.336 0 0 1 18.828 0c2.054.2 4.109.493 5.937.811a11.73 11.73 0 0 1 9.463 9.368z" transform="translate(4.111 -35.63)" style="fill:#263238"/>
            <path data-name="路径 13242" d="m199.555 149.37-8.074 2c-.616 7.539 4.355 16.075 9.327 22.6a216.092 216.092 0 0 0-1.253-24.6z" transform="translate(5.201 -35.118)" style="opacity:.2"/>
            <path data-name="路径 13243" d="M196.405 136.79c1.366 2.455 2.845 5.136 4.365 7.632s3.082 5.054 4.653 7.519a100.425 100.425 0 0 0 10.277 13.682c.473.483.935.976 1.407 1.428l.349.339.277.247c.154.164.421.349.616.524a35.384 35.384 0 0 0 3.277 2.27c2.414 1.489 5 2.948 7.632 4.355 5.259 2.825 10.7 5.6 16.075 8.4l-2.126 5.845a155.222 155.222 0 0 1-17.924-5.454c-2.938-1.1-5.886-2.291-8.834-3.739a41.709 41.709 0 0 1-4.55-2.527c-.4-.288-.781-.514-1.212-.853l-.616-.473-.5-.421c-.688-.555-1.315-1.13-1.952-1.705a71.144 71.144 0 0 1-6.779-7.272c-2.054-2.5-3.975-5.136-5.793-7.693s-3.544-5.269-5.136-7.991-3.174-5.393-4.653-8.351z" transform="translate(5.033 -35.46)" style="fill:#263238"/>
            <path data-name="路径 13244" d="M162.5 104.457c2.239 8.361 3.082 13.353 8.289 16.846 7.765 5.239 17.462-.77 17.729-9.635.267-7.971-3.441-20.307-12.408-21.992a11.8 11.8 0 0 0-13.61 14.781z" transform="translate(4.403 -36.746)" style="fill:#ffc3bd"/>
            <path data-name="路径 13245" d="M180.063 104.754c1.993-2.927 2.753-7.426 1.356-9.594 1.3.544 10.713 1.192 7.026-5.506s-11.083-8.546-17.523-6.7l3.133.9s-8.8-.637-13.086 2.927a23.058 23.058 0 0 0 2.434 0s-9.429 4.448-5.321 7.827c-6.625 5.043-2.137 12.028 8.772 22.444 1.9 1.715 7.283 1.089 8.474.062-.76-4.533 3.616-10.696 4.735-12.36z" transform="translate(4.211 -36.941)" style="fill:#263238"/>
            <path data-name="路径 13246" d="M180.544 98.61c1.952 1.428 4.365 5.629 5.485 7.724s2.3 1.828 2.866 2.66 2.876 14.9.4 17.154-9.922-1.3-10.9-3.893.811-8.936 1.294-10.385a14.781 14.781 0 0 0-.431-7.519c-.858-2.451 1.286-5.741 1.286-5.741z" transform="translate(4.839 -36.497)" style="fill:#263238"/>
            <path data-name="路径 13247" d="M176.205 104.658a7.909 7.909 0 0 0 3.749 4.889c2.27 1.027 2.547-1.613 2.106-4.109-.4-2.27-1.027-4.109-2.866-4.992-2.167-1.119-3.739 1.726-2.989 4.212z" transform="translate(4.782 -36.454)" style="fill:#ffc3bd"/>
        </g>
    </g>
</svg>
