<svg xmlns="http://www.w3.org/2000/svg" width="54.584" height="54.584" viewBox="0 0 54.584 54.584">
    <defs>
        <clipPath id="z0f2kk765a"/>
    </defs>
    <g data-name="组 8452">
        <g data-name="组 8451" transform="translate(.25 .25)" style="clip-path:url(#z0f2kk765a)">
            <path data-name="路径 13968" d="M26.268 32.742a2.165 2.165 0 0 1 .936 2.406l-.024.233c-.149 1.76.353 3.025 1.668 3.53a3.818 3.818 0 0 0 2.563-.047l.483-.139.76-.234.159-.042.148-.022a.891.891 0 0 1 .664.256l.148.131.079.077.218.229.251.288.229.275.394.491.467.6a3.2 3.2 0 0 0 5.367-.228 5.418 5.418 0 0 0-.474-6.394c-.1-.134-.194-.263-.282-.385l-.24-.347a7.187 7.187 0 0 1-.105-.16l-.183-.291-.078-.132-.13-.238-.1-.2-.069-.164a.691.691 0 0 1-.059-.254v-.013h.007l.158-.09a6.611 6.611 0 0 1 1.238-.458c2.328-.685 3.516-2.972 4.172-6.417l.113-.639c.054-.318.1-.645.147-.98v-.025.025l.178-1.92a18.315 18.315 0 0 0-20.439 10.219zM49.587 55.66a18.324 18.324 0 0 0 9.484-12.114l-1.639-2.038A3.562 3.562 0 0 0 53.22 40.5c-.285.106-.537.213-.866.362l-.481.215-.214.089-.1.033-.111.026-.093.007a2.014 2.014 0 0 1-.92-.366l-.219-.123c-2.344-1.25-4.782-.5-6.635 1.537-2.387 2.626-1 6.713 3.512 8.218l.216.076a3.2 3.2 0 0 1 2.428 2.7z" transform="translate(-14.161 -12.168)" style="fill:#fb6943"/>
            <path data-name="直线 288" transform="translate(27.204 .363)" style="stroke-miterlimit:10;stroke:#fff;stroke-width:.5px;fill:none;stroke-linecap:round" d="M0 0v5.841"/>
            <path data-name="路径 13969" d="M55.073 3.959 58.318 1l3.01 2.959" transform="translate(-31.114 -1)" style="stroke-linejoin:round;stroke:#fff;stroke-width:.5px;fill:none;stroke-linecap:round"/>
            <path data-name="直线 289" transform="translate(47.881 27.312)" style="stroke-miterlimit:10;stroke:#fff;stroke-width:.5px;fill:none;stroke-linecap:round" d="M5.841 0H0"/>
            <path data-name="路径 13970" d="m116.381 55.315 2.959 3.245-2.959 3.01" transform="translate(-65.256 -31.248)" style="stroke-linejoin:round;stroke:#fff;stroke-width:.5px;fill:none;stroke-linecap:round"/>
            <path data-name="直线 290" transform="translate(26.97 47.881)" style="stroke-miterlimit:10;stroke:#fff;stroke-width:.5px;fill:none;stroke-linecap:round" d="M0 5.841V0"/>
            <path data-name="路径 13971" d="m61.328 116.381-3.245 2.959-3.01-2.959" transform="translate(-31.113 -65.255)" style="stroke-linejoin:round;stroke:#fff;stroke-width:.5px;fill:none;stroke-linecap:round"/>
            <path data-name="直线 291" transform="translate(.363 27.077)" style="stroke-miterlimit:10;stroke:#fff;stroke-width:.5px;fill:none;stroke-linecap:round" d="M0 0h5.841"/>
            <path data-name="路径 13972" d="M3.959 61.57 1 58.325l2.959-3.01" transform="translate(-1 -31.248)" style="stroke-linejoin:round;stroke:#fff;stroke-width:.5px;fill:none;stroke-linecap:round"/>
            <path data-name="直线 292" transform="translate(41.892 8.292)" style="stroke-miterlimit:10;stroke:#fff;stroke-width:.5px;fill:none;stroke-linecap:round" d="M4.13 0 0 4.13"/>
            <path data-name="路径 13973" d="m95.543 18.678 4.386.2.037 4.221" transform="translate(-53.651 -10.845)" style="stroke-linejoin:round;stroke:#fff;stroke-width:.5px;fill:none;stroke-linecap:round"/>
            <path data-name="直线 293" transform="translate(41.587 41.968)" style="stroke-miterlimit:10;stroke:#fff;stroke-width:.5px;fill:none;stroke-linecap:round" d="M4.13 4.13 0 0"/>
            <path data-name="路径 13974" d="m99.65 95.714-.2 4.386-4.221.037" transform="translate(-53.475 -53.746)" style="stroke-linejoin:round;stroke:#fff;stroke-width:.5px;fill:none;stroke-linecap:round"/>
            <path data-name="直线 294" transform="translate(8.126 41.726)" style="stroke-miterlimit:10;stroke:#fff;stroke-width:.5px;fill:none;stroke-linecap:round" d="M0 4.13 4.13 0"/>
            <path data-name="路径 13975" d="m23.1 99.966-4.386-.2-.037-4.221" transform="translate(-10.845 -53.651)" style="stroke-linejoin:round;stroke:#fff;stroke-width:.5px;fill:none;stroke-linecap:round"/>
            <path data-name="直线 295" transform="translate(8.152 8.202)" style="stroke-miterlimit:10;stroke:#fff;stroke-width:.5px;fill:none;stroke-linecap:round" d="m0 0 4.13 4.13"/>
            <path data-name="路径 13976" d="m18.362 23.272.2-4.387 4.221-.036" transform="translate(-10.669 -10.94)" style="stroke-linejoin:round;stroke:#fff;stroke-width:.5px;fill:none;stroke-linecap:round"/>
            <path data-name="路径 13977" d="M21 39.167a18.168 18.168 0 0 1 33.031-10.449" transform="translate(-12.138 -12.138)" style="stroke:#fb6943;stroke-miterlimit:10;fill:none;stroke-linecap:round"/>
            <path data-name="路径 13978" d="M25.472 80.315a18 18 0 0 1-1.414-2.753" transform="translate(-13.841 -43.637)" style="stroke-miterlimit:10;stroke:#fff;stroke-width:.5px;fill:none;stroke-linecap:round"/>
            <path data-name="路径 13979" d="M67.034 62a18.169 18.169 0 0 1-28.616 14.863" transform="translate(-21.838 -34.971)" style="stroke:#fb6943;stroke-miterlimit:10;fill:none;stroke-linecap:round"/>
            <path data-name="路径 13980" d="M100.886 51.443a.443.443 0 1 1-.443-.443.443.443 0 0 1 .443.443" transform="translate(-56.133 -28.845)" style="fill:#fff"/>
        </g>
    </g>
</svg>
