<svg xmlns="http://www.w3.org/2000/svg" width="66" height="66" viewBox="0 0 66 66">
    <g data-name="组 8517">
        <g data-name="椭圆 499" style="stroke:#707070;stroke-dasharray:1 5;fill:none">
            <circle cx="33" cy="33" r="33" style="stroke:none"/>
            <circle cx="33" cy="33" r="32.5" style="fill:none"/>
        </g>
        <g data-name="组 8183">
            <path data-name="矩形 8548" style="fill:rgba(255,255,255,.01)" d="M0 0h48v48H0z" transform="translate(9 9)"/>
            <g data-name="组 8522">
                <path data-name="矩形 9980" style="fill:rgba(255,255,255,.01)" d="M0 0h48v48H0z" transform="translate(9 9)"/>
                <g data-name="组 8521">
                    <path data-name="路径 16053" d="M24 31v13" style="stroke-linejoin:round;stroke-width:2px;stroke:#aeb4bc;stroke-linecap:round;fill:none" transform="translate(9 9)"/>
                    <path data-name="路径 16054" d="M24 16v7" style="stroke-linejoin:round;stroke-width:2px;stroke:#aeb4bc;stroke-linecap:round;fill:none" transform="translate(9 9)"/>
                    <path data-name="路径 16055" d="M24 4v4" style="stroke-linejoin:round;stroke-width:2px;stroke:#aeb4bc;stroke-linecap:round;fill:none" transform="translate(9 9)"/>
                    <path data-name="路径 16056" d="M19 44h10" style="stroke-linejoin:round;stroke-width:2px;stroke:#aeb4bc;stroke-linecap:round;fill:none" transform="translate(9 9)"/>
                    <path data-name="路径 16051" d="M10 8v8h28l4-4-4-4z" style="stroke:#f06642;stroke-linejoin:round;stroke-width:2px;fill:none" transform="translate(9 9)"/>
                    <path data-name="路径 16052" d="M38 23v8H10l-4-4 4-4z" style="stroke:#f06642;stroke-linejoin:round;stroke-width:2px;fill:none" transform="translate(9 9)"/>
                </g>
            </g>
        </g>
    </g>
</svg>
