<svg data-name="组 8456" xmlns="http://www.w3.org/2000/svg" width="54.889" height="50.446" viewBox="0 0 54.889 50.446">
    <defs>
        <clipPath id="y1s8vensva">
            <path data-name="矩形 11022" style="stroke:#fff;stroke-width:.5px;fill:none" d="M0 0h54.889v50.446H0z"/>
        </clipPath>
    </defs>
    <g data-name="组 8455" style="clip-path:url(#y1s8vensva)">
        <path data-name="路径 13989" d="M102.565 52.844a.433.433 0 1 1-.433-.433.434.434 0 0 1 .433.433" transform="translate(-57.628 -29.699)" style="fill:#fff"/>
        <path data-name="路径 13990" d="M100.565 48.844a.433.433 0 1 1-.433-.433.434.434 0 0 1 .433.433" transform="translate(-56.494 -27.432)" style="fill:#fff"/>
        <path data-name="路径 13991" d="M98.565 44.844a.433.433 0 1 1-.433-.433.434.434 0 0 1 .433.433" transform="translate(-55.361 -25.166)" style="fill:#fff"/>
        <path data-name="路径 13992" d="M32.565 37.844a.433.433 0 1 1-.433-.433.434.434 0 0 1 .433.433" transform="translate(-17.962 -21.199)" style="fill:#fff"/>
        <path data-name="路径 13993" d="M43.565 100.844a.433.433 0 1 1-.433-.433.434.434 0 0 1 .433.433" transform="translate(-24.195 -56.898)" style="fill:#fff"/>
        <path data-name="路径 13994" d="M54.415 19.5V7.9a3.9 3.9 0 1 1 7.792 0v1.728" transform="translate(-30.834 -2.267)" style="stroke-miterlimit:10;stroke:#fb6943;stroke-linecap:round;stroke-width:4px;fill:none"/>
        <path data-name="直线 296" transform="translate(25.681 12.414)" style="stroke-miterlimit:10;stroke:#fb6943;stroke-linecap:round;stroke-width:4px;fill:none" d="M0 0h3.59"/>
        <path data-name="路径 13995" d="M44.646 40.291a11.211 11.211 0 1 0 7.929.159" transform="translate(-21.073 -22.831)" style="stroke-miterlimit:10;stroke:#fb6943;stroke-linecap:round;stroke-width:4px;fill:none"/>
        <path data-name="路径 13996" d="M55.543 51.411a5.749 5.749 0 1 0 5.749 5.749 5.749 5.749 0 0 0-5.749-5.749m0 7.786a2.037 2.037 0 1 1 2.037-2.037 2.037 2.037 0 0 1-2.037 2.04" transform="translate(-28.216 -29.132)" style="fill:#fb6943"/>
        <path data-name="路径 13997" d="M47.961 98.283h13.322a5.3 5.3 0 0 0 4.591-2.651" transform="translate(-27.177 -54.19)" style="stroke-miterlimit:10;stroke:#fff;stroke-width:.5px;fill:none"/>
        <path data-name="路径 13998" d="m25.018 40.978-3.952 6.845a5.3 5.3 0 0 0 0 5.3" transform="translate(-11.534 -23.22)" style="stroke-miterlimit:10;stroke:#fff;stroke-width:.5px;fill:none"/>
        <path data-name="路径 13999" d="M17.157 8.411a5.343 5.343 0 0 0-4.591 2.55L1.71 29.045a4.933 4.933 0 0 0 0 5.1l10.855 18.084a5.343 5.343 0 0 0 4.591 2.55h21.71a5.343 5.343 0 0 0 4.591-2.55l10.856-18.084a4.931 4.931 0 0 0 0-5.1L43.458 10.961a5.343 5.343 0 0 0-4.591-2.55" transform="translate(-.567 -4.766)" style="stroke-miterlimit:10;stroke:#fff;stroke-width:.5px;fill:none"/>
    </g>
</svg>
