<svg xmlns="http://www.w3.org/2000/svg" width="375" height="300" viewBox="0 0 375 300">
    <defs>
        <linearGradient id="b6n1j4zana" x1="1" y1=".5" x2=".007" y2=".5" gradientUnits="objectBoundingBox">
            <stop offset="0" stop-color="#555d68"/>
            <stop offset=".305" stop-color="#7b828b"/>
            <stop offset="1" stop-color="#2b2f35"/>
        </linearGradient>
        <clipPath id="2qwgfike1b">
            <path data-name="矩形 8630" transform="translate(-47 130)" style="stroke:#707070;fill:#fff" d="M0 0h286v300H0z"/>
        </clipPath>
    </defs>
    <g data-name="组 8628">
        <path data-name="矩形 8274" style="fill:url(#b6n1j4zana)" d="M0 0h375v300H0z"/>
        <g data-name="蒙版组 2347" transform="translate(136 -130)" style="clip-path:url(#2qwgfike1b);opacity:.4">
            <g data-name="Business deal-rafiki" style="opacity:.5">
                <path data-name="矩形 8539" transform="translate(-75.542 396.819)" style="fill:#ebebeb" d="M0 0h360.808v.19H0z"/>
                <path data-name="矩形 8540" transform="translate(161.783 402.866)" style="fill:#ebebeb" d="M0 0h23.9v.19H0z"/>
                <path data-name="矩形 8541" transform="translate(212.946 402.965)" style="fill:#ebebeb" d="M0 0h29.687v.19H0z"/>
                <path data-name="矩形 8542" transform="translate(181.902 407.938)" style="fill:#ebebeb" d="M0 0h13.848v.19H0z"/>
                <path data-name="矩形 8543" transform="translate(50.019 406.498)" style="fill:#ebebeb" d="M0 0h37.286v.19H0z"/>
                <path data-name="矩形 8544" transform="translate(18.781 406.498)" style="fill:#ebebeb" d="M0 0h24.816v.19H0z"/>
                <path data-name="矩形 8545" transform="translate(-29.871 403.285)" style="fill:#ebebeb" d="M0 0h33.801v.19H0z"/>
                <path data-name="路径 13125" d="M181.66 270.355H42.323a4.239 4.239 0 0 1-4.113-4.348V59.31A4.237 4.237 0 0 1 42.323 55H181.66a4.239 4.239 0 0 1 4.12 4.348v206.659a4.239 4.239 0 0 1-4.12 4.348zM42.323 55.152a4.054 4.054 0 0 0-3.933 4.158v206.7a4.054 4.054 0 0 0 3.933 4.158H181.66a4.061 4.061 0 0 0 3.94-4.158V59.31a4.061 4.061 0 0 0-3.94-4.158z" transform="translate(-86.179 92.501)" style="fill:#ebebeb"/>
                <path data-name="路径 13126" d="M397.965 270.355H258.62a4.246 4.246 0 0 1-4.12-4.348V59.31a4.244 4.244 0 0 1 4.12-4.31h139.345a4.238 4.238 0 0 1 4.106 4.31v206.7a4.24 4.24 0 0 1-4.106 4.345zM258.62 55.152a4.061 4.061 0 0 0-3.94 4.158v206.7a4.061 4.061 0 0 0 3.94 4.158h139.345a4.061 4.061 0 0 0 3.94-4.158V59.31a4.061 4.061 0 0 0-3.94-4.158z" transform="translate(-146.391 92.501)" style="fill:#ebebeb"/>
                <path data-name="矩形 8546" transform="translate(-50.444 134.662)" style="opacity:.1;fill:#f5f5f5" d="M0 0h100.514v206.933H0z"/>
                <path data-name="矩形 8547" transform="translate(54.392 134.662)" style="opacity:.1;fill:#f5f5f5" d="M0 0h100.514v206.933H0z"/>
                <path data-name="矩形 8549" transform="translate(159.662 134.662)" style="opacity:.1;fill:#f5f5f5" d="M0 0h100.514v206.933H0z"/>
                <path data-name="路径 13133" d="M459.682 175.269h-3.132v-22.434l3.132-2.155z" transform="translate(-202.638 69.682)" style="fill:#e6e6e6"/>
                <path data-name="路径 13134" d="M445.5 182.357h-3.12v-22.434l3.125-2.163z" transform="translate(-198.693 67.994)" style="fill:#e6e6e6"/>
                <path data-name="路径 13139" d="M100.43 253.495H73.42L129.093 38.14H156.1z" transform="translate(-108.811 109.361)" style="opacity:.5;fill:#fff"/>
                <path data-name="路径 13140" d="M212.63 253.495h-27.01L241.285 38.14H268.3z" transform="translate(-127.216 109.361)" style="opacity:.5;fill:#fff"/>
                <path data-name="路径 13141" d="M259.48 253.495h-27.01L288.143 38.14h27.01z" transform="translate(-140.258 109.361)" style="opacity:.5;fill:#fff"/>
                <path data-name="路径 13142" d="M354.791 253.495h-13.5L396.963 38.14h13.5z" transform="translate(-170.551 109.361)" style="opacity:.5;fill:#fff"/>
                <g transform="translate(-35.052 413.663)" style="opacity:.1">
                    <ellipse cx="139.914" cy="8.169" rx="139.914" ry="8.169" style="fill:#f5f5f5"/>
                </g>
                <g>
                    <path data-name="路径 13161" d="M256.1 118.342v9.46a2.526 2.526 0 0 1-2.518 2.518h-23.214a2.526 2.526 0 0 1-2.518-2.518V93.5a2.526 2.526 0 0 1 2.518-2.5h23.178a2.526 2.526 0 0 1 2.555 2.5v14.97" transform="translate(-138.972 96.133)" style="fill:#fff"/>
                    <path data-name="路径 13162" d="M253.4 130.585h-23.174a2.886 2.886 0 0 1-2.886-2.886V93.356a2.886 2.886 0 0 1 2.886-2.886H253.4a2.886 2.886 0 0 1 2.886 2.886v14.966h-.765V93.356a2.165 2.165 0 0 0-2.165-2.165h-23.13a2.165 2.165 0 0 0-2.165 2.165v34.3a2.165 2.165 0 0 0 2.165 2.165H253.4a2.165 2.165 0 0 0 2.165-2.165v-9.46h.765v9.46a2.887 2.887 0 0 1-2.93 2.93z" transform="translate(-138.83 96.28)" style="fill:#f04e23"/>
                    <path data-name="路径 13163" d="M244.795 138.241a13.329 13.329 0 0 1 1.479-.8 7.224 7.224 0 0 1 .722-.281 2.706 2.706 0 0 1 .852-.195l-.3-.166c-.051-.079-.079.123-.094.173l-.1.253a2.233 2.233 0 0 0-.18.563.447.447 0 0 0 .469.563 5.91 5.91 0 0 0 2.129-.83h-.267c.079 0 .173.108.253.137a1.234 1.234 0 0 0 .368.072 5.5 5.5 0 0 1 .844 0c.44.043.433-.642 0-.678a4.123 4.123 0 0 1-.895 0c-.289-.065-.375-.267-.678-.13s-.548.318-.844.44a4.128 4.128 0 0 1-.419.152l-.274.079c-.079 0-.224 0-.108.115l.1.238c0-.462.491-.895.361-1.371s-.722-.267-1.075-.18a10.1 10.1 0 0 0-2.706 1.241.341.341 0 0 0 .339.592z" transform="translate(-143.541 83.529)" style="fill:#e0e0e0"/>
                    <path data-name="矩形 8551" transform="translate(91.562 192.249)" style="fill:#e0e0e0" d="M0 0h22.839v.758H0z"/>
                    <path data-name="矩形 8552" transform="translate(91.562 197.625)" style="fill:#e0e0e0" d="M0 0h20.256v.758H0z"/>
                    <path data-name="矩形 8553" transform="translate(91.562 203.008)" style="fill:#e0e0e0" d="M0 0h22.839v.758H0z"/>
                    <path data-name="矩形 8554" transform="translate(91.562 208.391)" style="fill:#e0e0e0" d="M0 0h6.278v.758H0z"/>
                    <path data-name="矩形 8555" transform="translate(100.474 208.391)" style="fill:#e0e0e0" d="M0 0h8.349v.758H0z"/>
                    <path data-name="矩形 8556" transform="translate(91.562 213.767)" style="fill:#e0e0e0" d="M0 0h22.839v.758H0z"/>
                    <path data-name="路径 13164" d="M234.561 138.513a3.521 3.521 0 1 1 3.521-3.522 3.521 3.521 0 0 1-3.521 3.522zm0-6.278a2.764 2.764 0 1 0 2.764 2.757 2.764 2.764 0 0 0-2.764-2.757z" transform="translate(-139.86 84.866)" style="fill:#f04e23"/>
                    <path data-name="路径 13165" d="M237.2 135.551a2.078 2.078 0 1 1-2.078-2.071 2.078 2.078 0 0 1 2.078 2.071z" transform="translate(-140.417 84.307)" style="fill:#f04e23"/>
                    <path data-name="路径 13166" d="M255.08 128.67a6.407 6.407 0 0 1 1.025-2.764c.52-.787 1.147-1.443 1.725-2.215q1.743-2.165 3.608-4.33c2.439-2.836 4.914-5.643 7.613-8.277a.39.39 0 0 1 .6.476c-1.948 3.226-4.12 6.278-6.329 9.3a201.77 201.77 0 0 1-3.392 4.467c-.585.722-1.118 1.5-1.768 2.165a6.394 6.394 0 0 1-2.454 1.631.462.462 0 0 1-.577-.274.483.483 0 0 1-.051-.179z" transform="translate(-146.552 90.568)" style="fill:#f04e23"/>
                    <path data-name="矩形 8557" transform="rotate(-41.09 384.92 -16.49)" style="fill:#f04e23" d="M0 0h6.292v.758H0z"/>
                    <path data-name="矩形 8558" transform="rotate(-77.35 205.806 59.478)" style="fill:#f04e23" d="M0 0h9.172v.758H0z"/>
                    <path data-name="矩形 8559" transform="rotate(-43.12 359.56 -.031)" style="fill:#f04e23" d="M0 0h.758v3.861H0z"/>
                </g>
                <g transform="translate(97.841 179.492)">
                    <path data-name="路径 13167" d="M314.4 402.806h-6.141l-.751-14.216h6.134z" transform="translate(-258.989 -166.204)" style="fill:#7f3e3b"/>
                    <path data-name="路径 13168" d="M356.664 402.806h-6.141l-2.4-14.216h6.134z" transform="translate(-270.294 -166.204)" style="fill:#7f3e3b"/>
                    <path data-name="路径 13169" d="M346.655 407.3h6.891a.505.505 0 0 1 .505.419l.953 5.455a.96.96 0 0 1-.953 1.1c-2.4-.043-3.565-.188-6.6-.188-1.862 0-6.891.195-9.468.195s-2.793-2.547-1.732-2.778c4.784-1.032 7.808-2.461 9.381-3.817a1.566 1.566 0 0 1 1.025-.383z" transform="translate(-266.822 -171.412)" style="fill:#263238"/>
                    <path data-name="路径 13170" d="M303.369 407.3h6.7a.505.505 0 0 1 .505.419l.953 5.455a.945.945 0 0 1-.938 1.1c-2.41-.043-5.9-.188-8.941-.188-3.55 0-4.452.195-8.623.195-2.518 0-3.1-2.547-2.028-2.778 4.849-1.046 6.6-1.162 10.868-3.716a2.959 2.959 0 0 1 1.504-.487z" transform="translate(-254.248 -171.412)" style="fill:#263238"/>
                    <path data-name="路径 13171" d="M293.059 142.461 284.673 140s-8.544 20.3-11.438 21.648c-3.933 1.8-14.432 7.339-18.877 9.951-.3 1-.31 3.752.173 4.546 7.281-.577 22.219-5.52 25.091-8.277 6.552-6.292 13.437-25.407 13.437-25.407z" transform="translate(-244.133 -97)" style="fill:#7f3e3b"/>
                    <path data-name="路径 13172" d="M303.138 135.256c2.381 5.311-13.971 28.6-13.971 28.6l-7.938-8.241s7.021-17.629 10.824-24.391c3.884-6.944 8.495-1.813 11.085 4.032z" transform="translate(-251.673 -93.627)" style="fill:#f04e23"/>
                    <path data-name="路径 13173" d="M303.138 135.256c2.381 5.311-13.971 28.6-13.971 28.6l-7.938-8.241s7.021-17.629 10.824-24.391c3.884-6.944 8.495-1.813 11.085 4.032z" transform="translate(-251.673 -93.627)" style="opacity:.4;fill:#fff"/>
                    <path data-name="路径 13174" d="M279.731 165.3a8.146 8.146 0 0 0-1.8 3.2c-.238.967 5.347 8.428 7.519 8.125a7.931 7.931 0 0 0 5.1-3.558c.45-1.14-9.772-8.385-10.819-7.767z" transform="translate(-250.751 -104.032)" style="fill:#f04e23"/>
                    <path data-name="路径 13175" d="m253.781 182.794-5.051-.924.3 7.216s1.775.722 5.6-1.645z" transform="translate(-242.625 -108.656)" style="fill:#7f3e3b"/>
                    <path data-name="路径 13176" d="m240.27 184.276.924 4.438 5.448.4-.3-7.238z" transform="translate(-240.27 -108.659)" style="fill:#7f3e3b"/>
                    <path data-name="路径 13177" d="m307.51 388.6.39 7.324h6.134l-.383-7.324z" transform="translate(-258.989 -166.206)" style="opacity:.2"/>
                    <path data-name="路径 13178" d="M354.261 388.6h-6.141l1.241 7.324h6.139z" transform="translate(-270.294 -166.206)" style="opacity:.2"/>
                    <path data-name="路径 13179" d="M298.966 127.323s-8.19 21.086-2.951 55.6h32.826c.462-5.051-1.443-32.177 4.524-55.918a83.74 83.74 0 0 0-10.925-1.393 121.587 121.587 0 0 0-13.956 0 63.34 63.34 0 0 0-9.518 1.711z" transform="translate(-255.301 -92.939)" style="fill:#f04e23"/>
                    <path data-name="路径 13180" d="M298.966 127.323s-8.19 21.086-2.951 55.6h32.826c.462-5.051-1.443-32.177 4.524-55.918a83.74 83.74 0 0 0-10.925-1.393 121.587 121.587 0 0 0-13.956 0 63.34 63.34 0 0 0-9.518 1.711z" transform="translate(-255.301 -92.939)" style="opacity:.2"/>
                    <path data-name="路径 13181" d="M338.084 134.346c-.722 3.911.051 13.256 3.262 24.059a157.99 157.99 0 0 1 3.608-27.559v-.046c-2.18-.221-6.17-.12-6.87 3.546z" transform="translate(-267.43 -94.42)" style="opacity:.2"/>
                    <path data-name="路径 13182" d="M326.314 107.61c-1.1 4.488-1.8 10.052 1.2 13.047 0 0-2.021 4.561-10.362 4.561-7.627 0-3.608-4.561-3.608-4.561 5.051-1.191 5.1-7.382 4.395-10.875z" transform="translate(-260.373 -87.983)" style="fill:#7f3e3b"/>
                    <path data-name="路径 13183" d="M319 129.623c4.914 1.537 5.888 3.11 5.888 3.11s6.126-2.49 5.9-7.887a12.347 12.347 0 0 0-2.4-1.385s-.519 3.997-9.388 6.162z" transform="translate(-262.187 -92.396)" style="fill:#f04e23"/>
                    <path data-name="路径 13184" d="M316.742 129.915a9.448 9.448 0 0 0-5.051 2.619s-1.754-1.84-.072-7.18c0 0 1.638-.556 2.995-.844-.037.007-1.141 4.25 2.128 5.405z" transform="translate(-259.929 -92.688)" style="fill:#f04e23"/>
                    <path data-name="路径 13185" d="M319.91 109.789a13.494 13.494 0 0 1-.39 7.368 8.256 8.256 0 0 0 2.273-.722c2.887-1.328 4.373-3.428 5.975-6.495.144-.8.317-1.58.505-2.331z" transform="translate(-262.332 -87.983)" style="opacity:.2"/>
                    <path data-name="路径 13186" d="M317.2 87.694c-1.963.642-6.35 4.409-2.165 6.307s5.586-7.418 2.165-6.307z" transform="translate(-260.596 -82.413)" style="fill:#263238"/>
                    <path data-name="路径 13187" d="M329.913 95.879c-1.912 5.888-2.735 9.381-6.495 11.835-5.65 3.608-12.181-.722-12.029-6.942.13-5.636 3.233-14.317 9.59-15.435s10.846 4.675 8.934 10.542z" transform="translate(-260.068 -81.744)" style="fill:#7f3e3b"/>
                    <path data-name="路径 13188" d="M321.551 88.1c-3.247.548-5.953.375-6.935-2.324s3.485-5.528 6.567-4.258c2.273-2.367 8.479-.548 9.28 1.725 3.608-.231 7.021 3.926 4.575 6.054a4.286 4.286 0 0 1 .722 6.718c1.054 3.132-2.742 6.256-5.737 4.986-2.951-.88-4.561-.159-4.972-2.064s.628-3.745 3.139-4.113c-1.27-1.515-1.58-3.911-.722-4.943-3.037 1.383-5.527-.349-5.917-1.781z" transform="translate(-260.928 -80.412)" style="fill:#263238"/>
                    <path data-name="路径 13189" d="M318.613 108.167a4.373 4.373 0 0 0 3.2-1.025.152.152 0 0 0 0-.209.137.137 0 0 0-.2 0 4.149 4.149 0 0 1-3.507.866.152.152 0 0 0-.173.115.13.13 0 0 0 .108.166 5.774 5.774 0 0 0 .572.087z" transform="translate(-261.887 -87.782)" style="fill:#263238"/>
                    <path data-name="路径 13190" d="M335.2 109.468a6.04 6.04 0 0 1-4.33 1.248c-2.013-.224-2.165-2.208-.9-3.709 1.14-1.357 3.565-2.886 5.246-1.891s1.492 3.154-.016 4.352z" transform="translate(-265.015 -87.2)" style="fill:#7f3e3b"/>
                    <path data-name="路径 13191" d="M317.029 205.1s-.837 7.721-1.905 18.178c-1.227 11.856-2.749 27.248-3.716 38.967v.159a537.85 537.85 0 0 0-.491 6.22c-1.371 19.13 1.082 74.781 1.082 74.781h-10.406s-9.583-56.791-9.345-76.26c.224-18.711 3.2-62.059 3.2-62.059z" transform="translate(-254.739 -115.12)" style="fill:#f04e23"/>
                    <path data-name="路径 13192" d="M315.99 390.979c.05 0-.18 4.286-.18 4.286h-11.987l-.3-4.7z" transform="translate(-257.878 -166.752)" style="fill:#263238"/>
                    <path data-name="路径 13193" d="M321.608 226.987c-1.227 11.856-2.749 27.248-3.716 38.967v.159c-2.288-11.12-3-24.946-2.114-47.713z" transform="translate(-261.187 -118.826)" style="opacity:.2"/>
                    <path data-name="路径 13194" d="M312.82 205.11s4.792 44.351 7.772 61.922c3.269 19.246 16.171 76.39 16.171 76.39h11.243s-7.577-55.565-9.064-74.644c-1.6-20.681-4.914-63.668-4.914-63.668z" transform="translate(-260.467 -115.126)" style="fill:#f04e23"/>
                    <path data-name="路径 13195" d="M356.806 391.319c.051 0 .39 4.027.39 4.027h-12.354l-.9-4.5z" transform="translate(-269.13 -166.833)" style="fill:#263238"/>
                    <path data-name="路径 13196" d="M322.477 99.246c-.13.483-.483.823-.794.722s-.462-.52-.339-1 .484-.823.794-.722.462.538.339 1z" transform="translate(-262.828 -85.371)" style="fill:#263238"/>
                    <path data-name="路径 13197" d="M315 97.606c-.13.483-.483.823-.794.722s-.462-.512-.339-1 .483-.823.794-.722.458.517.339 1z" transform="translate(-260.745 -84.914)" style="fill:#263238"/>
                    <path data-name="路径 13198" d="M317.646 98.86a19.171 19.171 0 0 1-3.356 3.659 2.72 2.72 0 0 0 2.165.931z" transform="translate(-260.876 -85.547)" style="fill:#630f0f"/>
                    <path data-name="路径 13199" d="M326.237 96.874a.3.3 0 0 1-.195-.166 2.165 2.165 0 0 0-1.544-1.342.274.274 0 0 1-.231-.332.3.3 0 0 1 .339-.245 2.7 2.7 0 0 1 1.977 1.674.31.31 0 0 1-.159.39.289.289 0 0 1-.187.021z" transform="translate(-263.652 -84.413)" style="fill:#263238"/>
                    <path data-name="路径 13200" d="M313.925 94a.431.431 0 0 1-.108-.065.289.289 0 0 1 0-.411 2.944 2.944 0 0 1 2.49-1.01.274.274 0 0 1 .231.332.31.31 0 0 1-.339.245 2.36 2.36 0 0 0-1.97.823.318.318 0 0 1-.304.086z" transform="translate(-260.72 -83.778)" style="fill:#263238"/>
                    <path data-name="路径 13201" d="m350.5 139.23-7.75 4.69s8.659 18.762 8.609 21.916c-.144 5.888 2.388 18.654 1.7 25.379a8.287 8.287 0 0 0 4.445-.05c1.537-6.083 3.666-22.067 3.052-26.072-1.339-8.71-10.056-25.863-10.056-25.863z" transform="translate(-268.799 -96.786)" style="fill:#7f3e3b"/>
                    <path data-name="路径 13202" d="M345 127.576c5.773.844 14 30.142 14 30.142l-10.68 4.048s-9.3-15.876-11.582-23.012c-2.453-7.447 2.079-12.087 8.262-11.178z" transform="translate(-266.936 -93.51)" style="fill:#f04e23"/>
                    <path data-name="路径 13203" d="M345 127.576c5.773.844 14 30.142 14 30.142l-10.68 4.048s-9.3-15.876-11.582-23.012c-2.453-7.447 2.079-12.087 8.262-11.178z" transform="translate(-266.936 -93.51)" style="opacity:.4;fill:#fff"/>
                    <path data-name="路径 13204" d="M347.443 408.19a1.739 1.739 0 0 1-1.162-.318.815.815 0 0 1-.267-.765.491.491 0 0 1 .267-.411c.722-.346 2.619.866 2.836 1.01a.13.13 0 0 1 .058.144.159.159 0 0 1-.115.115 7.043 7.043 0 0 1-1.617.225zm-.843-1.29a.383.383 0 0 0-.188.036.188.188 0 0 0-.1.166.585.585 0 0 0 .173.534 2.908 2.908 0 0 0 2.165.108 5.528 5.528 0 0 0-2.05-.844z" transform="translate(-269.704 -171.227)" style="fill:#f04e23"/>
                    <path data-name="路径 13205" d="M349.545 407.427a.115.115 0 0 1-.065 0c-.621-.339-1.782-1.689-1.616-2.374a.5.5 0 0 1 .476-.375.787.787 0 0 1 .613.18c.686.585.722 2.36.722 2.432a.166.166 0 0 1-.072.137.2.2 0 0 1-.058 0zm-1.118-2.518h-.065c-.188 0-.209.108-.216.144-.1.4.635 1.443 1.241 1.9a3.284 3.284 0 0 0-.628-1.92.5.5 0 0 0-.332-.125z" transform="translate(-270.218 -170.68)" style="fill:#f04e23"/>
                    <path data-name="路径 13206" d="M304.063 408.184a2.273 2.273 0 0 1-1.479-.375.816.816 0 0 1-.238-.722.505.505 0 0 1 .26-.39c.765-.419 3.175.837 3.449.981a.137.137 0 0 1 .065.152.152.152 0 0 1-.123.123 10.765 10.765 0 0 1-1.934.231zm-1.054-1.292a.6.6 0 0 0-.274.05.209.209 0 0 0-.1.159.52.52 0 0 0 .159.469c.361.332 1.364.39 2.735.166a7.686 7.686 0 0 0-2.519-.844z" transform="translate(-257.548 -171.221)" style="fill:#f04e23"/>
                    <path data-name="路径 13207" d="M306.583 407.423h-.065c-.722-.332-2.165-1.66-1.984-2.352 0-.166.166-.368.563-.4a1 1 0 0 1 .794.245 4.239 4.239 0 0 1 .844 2.367.159.159 0 0 1-.072.13.108.108 0 0 1-.08.01zm-1.386-2.518h-.087c-.26 0-.281.13-.289.159-.087.418.859 1.443 1.595 1.912a3.3 3.3 0 0 0-.722-1.891.721.721 0 0 0-.494-.18z" transform="translate(-258.156 -170.677)" style="fill:#f04e23"/>
                    <rect data-name="矩形 8560" width="43.102" height="30.192" rx="4.09" transform="rotate(-7.43 844.286 -431.807)" style="fill:#263238"/>
                    <rect data-name="矩形 8561" width="43.102" height="30.192" rx="4.09" transform="rotate(-7.43 844.286 -431.807)" style="opacity:.3"/>
                    <path data-name="路径 13208" d="M353.359 226a2.778 2.778 0 0 1-1.7-.584 2.829 2.829 0 0 1-1.075-1.862l-.649-5.008a2.8 2.8 0 0 1 2.417-3.139l8.335-1.09a2.807 2.807 0 0 1 3.146 2.417l.657 5.008a2.822 2.822 0 0 1-2.417 3.146l-8.342 1.082a3.153 3.153 0 0 1-.368.029zm7.692-10.1h-.151l-8.342 1.09a1.169 1.169 0 0 0-1.01 1.313l.649 5.008a1.183 1.183 0 0 0 .455.779 1.162 1.162 0 0 0 .866.231l8.335-1.082a1.191 1.191 0 0 0 1.018-1.321l-.628-4.95a1.169 1.169 0 0 0-.447-.779 1.191 1.191 0 0 0-.743-.267zm.909 8.161z" transform="translate(-270.791 -117.683)" style="fill:#263238"/>
                    <rect data-name="矩形 8562" width="43.102" height="30.192" rx="4.09" transform="rotate(-7.43 842.523 -459.088)" style="fill:#263238"/>
                    <path data-name="路径 13209" d="m356.612 209.372-2.352 4.582 6.9.318a5.5 5.5 0 0 0-.895-6.191z" transform="translate(-272.003 -115.953)" style="fill:#7f3e3b"/>
                    <path data-name="路径 13210" d="m356.894 219.77 4.113-.563.151-2.67-6.9-.318.108 1.494a2.23 2.23 0 0 0 2.526 2.057z" transform="translate(-272.003 -118.219)" style="fill:#7f3e3b"/>
                    <path data-name="路径 13211" d="M350.816 171.426a8.16 8.16 0 0 0 1.22 3.457c.563.808 9.872 1.523 11.07-.31a7.921 7.921 0 0 0 .678-6.184c-.571-1.089-12.744 1.817-12.968 3.037z" transform="translate(-271.041 -104.836)" style="fill:#f04e23"/>
                </g>
                <g>
                    <path data-name="路径 13212" d="M154.114 139.325c-1.162 1.523-2.425 3.19-3.608 4.828s-2.324 3.305-3.413 4.994a64.515 64.515 0 0 0-5.636 10.254c-.18.426-.346.852-.491 1.277q-.115.318-.216.628l-.1.318-.043.152v.043a4.53 4.53 0 0 0-.079 1.689 27.8 27.8 0 0 0 1.277 5.333c1.234 3.731 2.886 7.577 4.51 11.308l-3.687 2.338a61.85 61.85 0 0 1-7.144-11.034 29.419 29.419 0 0 1-2.475-6.675 11.7 11.7 0 0 1-.173-4.575l.058-.346.058-.231.108-.447c.065-.3.137-.592.224-.88a31.19 31.19 0 0 1 .52-1.71 61.714 61.714 0 0 1 5.874-12.13c1.155-1.869 2.338-3.7 3.608-5.47s2.526-3.485 3.991-5.246z" transform="translate(-112.479 84.234)" style="fill:#263238"/>
                    <path data-name="路径 13213" d="m148.9 196.2 3.8 2.013-4.33 5.116s-2.728-1.847-2.886-4.662z" transform="translate(-116.041 66.846)" style="fill:#ffc3bd"/>
                    <path data-name="路径 13214" d="m158.9 202.143-4.676 3.716-4.8-1.753 4.366-5.116z" transform="translate(-117.141 66.07)" style="fill:#ffc3bd"/>
                    <path data-name="路径 13215" d="m240.386 181 4.488 2.316-.4 1.616-3.608 3.608s-2.6-2.021-2.54-4.835z" transform="translate(-141.889 71.078)" style="fill:#ffc3bd"/>
                    <path data-name="路径 13216" d="m242.08 181.582 4.113-.772 2.641 1.126-1.761.3-1.155 1.046z" transform="translate(-142.933 71.131)" style="fill:#ffc3bd"/>
                    <path data-name="路径 13217" d="m250.342 190.325-4.46.96a2.165 2.165 0 0 1-1.385-.166l-2.677-1.3 3.608-3.608 2.389-.722 2.987 3.428a.88.88 0 0 1-.462 1.407z" transform="translate(-142.861 69.828)" style="fill:#ffc3bd"/>
                    <path data-name="路径 13218" d="M185.157 100.549c.1.483.433.823.722.722a.851.851 0 0 0 .4-1c-.094-.483-.44-.823-.722-.722a.826.826 0 0 0-.4 1z" transform="translate(-127.078 93.756)" style="fill:#263238"/>
                    <path data-name="路径 13219" d="M185.71 102.09a17.707 17.707 0 0 0 3.153 3.673 2.865 2.865 0 0 1-2.223.9z" transform="translate(-127.241 93.045)" style="fill:#ff5652"/>
                    <path data-name="路径 13220" d="M181.893 97.144a.31.31 0 0 1-.195-.079.3.3 0 0 1 0-.411 2.886 2.886 0 0 1 2.468-.96.3.3 0 0 1-.094.577 2.3 2.3 0 0 0-1.948.779.281.281 0 0 1-.231.094z" transform="translate(-126.101 94.83)" style="fill:#263238"/>
                    <path data-name="路径 13221" d="M166.368 112.79c.837 4.258 1.335 10.153-1.638 12.989 0 0 1.162 4.33 9.071 4.33 8.7 0 4.185-3.8 4.185-3.8-3.608-1.119-3.608-5.239-2.757-8.544z" transform="translate(-121.4 90.066)" style="fill:#ffc3bd"/>
                    <path data-name="路径 13222" d="M162.835 132.632c-.722-1.14-.483-4.6.382-5.16 1.385-.909 7.1-.808 14.685 1.407a5.432 5.432 0 0 0 .642 5.167z" transform="translate(-120.754 86.129)" style="fill:#f04e23"/>
                    <path data-name="路径 13223" d="M152.944 143.32c-2.706 2.67-3.493 8.14-3.2 11.871a74.558 74.558 0 0 1 2.1-3.37c1.09-1.7 2.251-3.348 3.42-5.008.325-.455.657-.916 1-1.378.065-.3.123-.592.18-.88z" transform="translate(-117.213 81.567)" style="opacity:.2"/>
                    <path data-name="路径 13224" d="M127.05 406.525a1.9 1.9 0 0 0 1.443-.079.563.563 0 0 0 .137-.642.65.65 0 0 0-.354-.4c-.787-.375-2.6.361-2.67.39a.138.138 0 0 0-.007.253 7.22 7.22 0 0 0 1.451.478zm.953-.931.159.051a.375.375 0 0 1 .209.238c.072.245 0 .325-.051.354-.31.267-1.443 0-2.288-.31a4.488 4.488 0 0 1 2-.354z" transform="translate(-110.485 8.639)" style="fill:#f04e23"/>
                    <path data-name="路径 13225" d="M125.635 405.417h.065c.664-.188 2.071-1.191 2.085-1.847a.447.447 0 0 0-.354-.447.721.721 0 0 0-.613.05c-.772.4-1.263 2.006-1.285 2.071a.106.106 0 0 0 .1.173zm1.645-2.064h.065c.166.058.166.144.166.18 0 .39-.938 1.169-1.624 1.487a3.341 3.341 0 0 1 1.061-1.631.462.462 0 0 1 .361-.036z" transform="translate(-110.484 9.255)" style="fill:#f04e23"/>
                    <path data-name="路径 13226" d="M186.462 407.779a2.386 2.386 0 0 0 1.71-.44.519.519 0 0 0 0-.6.722.722 0 0 0-.44-.325c-.967-.26-3 .895-3.089.945a.13.13 0 0 0-.065.144.137.137 0 0 0 .108.115 10.435 10.435 0 0 0 1.776.161zm.924-1.126a1.051 1.051 0 0 1 .267 0 .4.4 0 0 1 .267.195c.1.173.065.253 0 .3-.267.375-1.739.382-2.822.231a6.286 6.286 0 0 1 2.288-.726z" transform="translate(-126.925 8.337)" style="fill:#f04e23"/>
                    <path data-name="路径 13227" d="M184.7 407.088h.058c.722-.31 2.093-1.573 1.992-2.23 0-.159-.137-.346-.512-.39a1.046 1.046 0 0 0-.765.238 4.093 4.093 0 0 0-.909 2.244.152.152 0 0 0 .058.123.137.137 0 0 0 .078.015zm1.443-2.36h.087c.245 0 .26.123.267.152.065.4-.88 1.386-1.595 1.811a3.219 3.219 0 0 1 .765-1.79.722.722 0 0 1 .455-.173z" transform="translate(-126.921 8.869)" style="fill:#f04e23"/>
                    <path data-name="路径 13228" d="M175.89 402.71h5.816l.577-13.48h-5.816z" transform="translate(-124.507 13.11)" style="fill:#ffc3bd"/>
                    <path data-name="路径 13229" d="m116.83 399.485 5.614 1.191 5.095-12.9-5.614-1.191z" transform="translate(-108.066 13.845)" style="fill:#ffc3bd"/>
                    <path data-name="路径 13230" d="m121.759 404.551-6.394-1.386a.505.505 0 0 0-.563.281l-2.223 4.813a.859.859 0 0 0 .613 1.2c2.244.44 3.355.548 6.163 1.155 1.732.375 5.636 1.328 8.024 1.84s3.2-1.775 2.273-2.2c-4.171-1.905-5.917-3.608-7.05-5.152a1.4 1.4 0 0 0-.843-.551z" transform="translate(-106.861 9.234)" style="fill:#263238"/>
                    <path data-name="路径 13231" d="M180.8 407h-6.357a.519.519 0 0 0-.5.4l-1.147 5.174a.851.851 0 0 0 .837 1.039c2.295-.043 5.607-.173 8.486-.173 3.37 0 4.568.18 8.515.18 2.389 0 3.052-2.41 2.057-2.634-4.553-1-6.56-1.1-10.492-3.529A2.734 2.734 0 0 0 180.8 407z" transform="translate(-123.641 8.163)" style="fill:#263238"/>
                    <path data-name="路径 13232" d="m182.389 389.24-.3 6.942h-5.819l.3-6.942z" transform="translate(-124.613 13.107)" style="opacity:.2"/>
                    <path data-name="路径 13233" d="m122.877 386.59 5.614 1.191-2.627 6.646-5.614-1.183z" transform="translate(-109.018 13.845)" style="opacity:.2"/>
                    <path data-name="路径 13234" d="M163.938 202.75s-6.61 44.48-10.233 61.143c-3.969 18.25-25.257 78.656-25.257 78.656L118 340.254s14.894-49.2 18.221-74.709c2.562-19.592 7.606-62.781 7.606-62.781z" transform="translate(-108.391 65.023)" style="fill:#263238"/>
                    <path data-name="路径 13235" d="M163.938 202.75s-6.61 44.48-10.233 61.143c-3.969 18.25-25.257 78.656-25.257 78.656L118 340.254s14.894-49.2 18.221-74.709c2.562-19.592 7.606-62.781 7.606-62.781z" transform="translate(-108.391 65.023)" style="opacity:.1;fill:#fff"/>
                    <path data-name="路径 13236" d="M130.66 390.725c.043 0-1.941 3.767-1.941 3.767L117 391.951l.989-3.521z" transform="translate(-108.113 13.333)" style="fill:#263238"/>
                    <path data-name="路径 13237" d="M173.369 224.687c-7.635 1.5-6.827 29.983-5.91 44.632 2.165-10.355 5.427-30.308 7.635-44.423a2.663 2.663 0 0 0-1.725-.209z" transform="translate(-122 58.933)" style="opacity:.3"/>
                    <path data-name="路径 13238" d="M189.086 202.75s.8 43.513.166 61.265c-.657 18.459-7.1 78.909-7.1 78.909h-9.893s-.361-59.367-.8-77.5c-.476-19.765-2.886-62.672-2.886-62.672z" transform="translate(-122.469 65.023)" style="fill:#263238"/>
                    <path data-name="路径 13239" d="M189.086 202.75s.8 43.513.166 61.265c-.657 18.459-7.1 78.909-7.1 78.909h-9.893s-.361-59.367-.8-77.5c-.476-19.765-2.886-62.672-2.886-62.672z" transform="translate(-122.469 65.023)" style="opacity:.1;fill:#fff"/>
                    <path data-name="路径 13240" d="M185.025 391.56c.043 0-.563 4.091-.563 4.091h-12.007L172.13 392z" transform="translate(-123.46 12.461)" style="fill:#263238"/>
                    <path data-name="路径 13241" d="M185.043 137.878c1.191 6.292 3.4 23.871-.05 49.445l-33.685-.52c-.195-4.467 3.355-28.713.072-50.239a4.647 4.647 0 0 1 3.991-5.3c1.7-.231 3.68-.447 5.629-.541a115.446 115.446 0 0 1 13.227 0 54.89 54.89 0 0 1 4.171.57 8.241 8.241 0 0 1 6.645 6.585z" transform="translate(-117.661 85.126)" style="fill:#263238"/>
                    <path data-name="路径 13242" d="m197.138 149.37-5.672 1.407c-.433 5.3 3.06 11.293 6.552 15.876a151.811 151.811 0 0 0-.88-17.283z" transform="translate(-128.833 79.883)" style="opacity:.2"/>
                    <path data-name="路径 13243" d="M193.087 136.79c.96 1.725 2 3.608 3.067 5.362s2.165 3.55 3.269 5.282a70.559 70.559 0 0 0 7.216 9.612c.332.339.657.686.989 1l.245.238.195.173c.108.116.3.245.433.368a24.85 24.85 0 0 0 2.3 1.595c1.7 1.046 3.514 2.071 5.362 3.06 3.695 1.984 7.519 3.933 11.293 5.9l-1.494 4.106a109.045 109.045 0 0 1-12.592-3.832c-2.064-.772-4.135-1.609-6.206-2.627a29.3 29.3 0 0 1-3.2-1.775c-.281-.2-.548-.361-.852-.6l-.433-.332-.354-.3c-.483-.39-.924-.794-1.371-1.2a49.98 49.98 0 0 1-4.763-5.109c-1.443-1.754-2.793-3.608-4.07-5.4s-2.49-3.7-3.608-5.614-2.23-3.788-3.269-5.867z" transform="translate(-127.113 83.385)" style="fill:#263238"/>
                    <path data-name="路径 13244" d="M162.371 100c1.573 5.874 2.165 9.381 5.823 11.835 5.455 3.68 12.267-.541 12.455-6.769.188-5.6-2.417-14.266-8.717-15.45A8.291 8.291 0 0 0 162.371 100z" transform="translate(-120.657 96.561)" style="fill:#ffc3bd"/>
                    <path data-name="路径 13245" d="M172.6 98.069c1.4-2.057 1.934-5.217.953-6.74.916.382 7.526.837 4.936-3.868s-7.786-6-12.311-4.7l2.2.635s-6.184-.447-9.193 2.057a16.2 16.2 0 0 0 1.71 0s-6.624 3.125-3.738 5.5c-4.654 3.543-1.5 8.45 6.163 15.767 1.335 1.205 5.116.765 5.953.043-.531-3.195 2.543-7.525 3.327-8.694z" transform="translate(-118.687 98.559)" style="fill:#263238"/>
                    <path data-name="路径 13246" d="M179.82 98.61c1.371 1 3.067 3.954 3.853 5.427s1.616 1.284 2.013 1.869 2.021 10.471.281 12.051-6.971-.916-7.656-2.735.57-6.278.909-7.3a10.384 10.384 0 0 0-.3-5.282c-.608-1.721.9-4.03.9-4.03z" transform="translate(-125.125 94.014)" style="fill:#263238"/>
                    <path data-name="路径 13247" d="M176.149 103.331a5.557 5.557 0 0 0 2.634 3.435c1.595.722 1.79-1.133 1.479-2.886-.281-1.595-.722-2.886-2.013-3.507-1.523-.788-2.627 1.211-2.1 2.958z" transform="translate(-124.542 93.572)" style="fill:#ffc3bd"/>
                </g>
            </g>
        </g>
    </g>
</svg>
