<svg xmlns="http://www.w3.org/2000/svg" width="600" height="433" viewBox="0 0 600 433">
    <defs>
        <clipPath id="x3cw9mceja">
            <path data-name="矩形 9967" transform="translate(898 726.891)" style="fill:#fafafa" d="M0 0h600v433H0z"/>
        </clipPath>
    </defs>
    <g data-name="蒙版组 2360" transform="translate(-898 -726.891)" style="clip-path:url(#x3cw9mceja)">
        <g data-name="New message-pana">
            <path data-name="路径 15843" d="M399.258 360.979c92.809.853 140.463-46.654 140.463-46.654 23.65-21.288 31.495-49.942 29.133-81.708-2.466-32.785-13.287-57.548-42.43-72.739s-64.706-16.158-95.723-5.39c-18.468 6.4-36.364 16.845-55.831 16-26.584-1.145-47.664-23.015-61.158-45.957s-22.828-48.808-41.119-68.14c-25.554-27.052-67.734-36.864-102.61-23.931s-61.242 44.053-68.671 81.614c0 0-15.326 50.92 21.049 120.787 76.254 146.428 276.897 126.118 276.897 126.118z" transform="translate(872.783 700.162)" style="fill:#ebebeb"/>
            <path data-name="路径 15844" d="M651.6 285.729c0 .146-133.512.271-298.166.271s-298.186-.125-298.186-.271 133.481-.271 298.186-.271 298.166.115 298.166.271z" transform="translate(844.283 872.176)" style="fill:#263238"/>
            <path data-name="路径 15845" d="m78.838 128.387 14.879-5.275-6.4-8.542a33.139 33.139 0 0 1-.458-5.712 8.8 8.8 0 0 1 .5-2.892 13.224 13.224 0 0 1 1.55-3.309 1.134 1.134 0 0 0-1.04-1.894c-1.04.26-3 2.632-3.881 6.149s-3.3-1.665-4.162-3.527-4.006-7.523-4.807-7.7c-1.165-.26-1.654.947-.7 2.788s3.423 7.585 2.4 8.022-5.5-9.156-5.5-9.156-.624-2.206-1.81-1.738c-2.143.832 3.4 10.665 3.954 11.58.385.645-.7 1.155-1.04.447s-4.276-9.666-6.461-8.834c-1.675.635 4.484 8.126 4.266 10.4s-4.089-6.149-5.671-5.483c-.583.25-1.04.52 1.935 5.057a74.61 74.61 0 0 0 4.693 6.128l7.772 13.464" transform="translate(850.121 745.866)" style="fill:#ffbe9d"/>
            <path data-name="路径 15846" d="M206.825 140.547s-7.346-17.147-12.413-25.481c-4.776-7.845-11.1-9.114-14.473-9.364a23.086 23.086 0 0 0-4.287-.884l-27.52-.219a26.085 26.085 0 0 0-16.45 6.035c-1.28 1.04-10.8 12.09-23.442 27.822l-22.11-23.931-13.183 7.8s14.317 49.432 32.254 46.04c10.675-1.987 19-9.4 19-9.4l13.999-11.27.323 1.873c.281 2.279.988 5.962 1.529 8.188 1.686 7.065 2.632 16.367-1.04 22.526 0 0-4.984 3.818-1.04 8.012h51.867s7.346-4.984.635-10.519l-4.162-10.519 2.716-12.839 1.04-5.14 4.568 7.824s9.031 11.362 18.427 9.968c11.289-1.686 17.834-22.256 7.647-49.453l-12.277 3.735z" transform="translate(856.052 751.893)" style="fill:#ff725e"/>
            <g data-name="组 8490" style="opacity:.4">
                <path data-name="路径 15847" d="m928.959 874.253 1.3 4.12 14.65-8.938-2.768-2.986z"/>
            </g>
            <g data-name="组 8491" style="opacity:.2">
                <path data-name="路径 15848" d="M995.049 932.176a16.356 16.356 0 0 0 10.925-6.721 17.053 17.053 0 0 0 3.121-12.735 5.66 5.66 0 0 0-2.164-4.058c-1.634-1.04-3.871-.5-5.566-1.4-1.394-.739-2.133-2.258-3.121-3.506s-2.31-3.184-3.746-2.56c0 0 1.738 9.156 2.5 13.235s1.04 9.936-.427 14.213a17.687 17.687 0 0 1-1.522 3.532z"/>
            </g>
            <path data-name="路径 15849" d="M92.87 133.354a13.121 13.121 0 0 1 .77-4.3 25.678 25.678 0 0 1 1.311-4.162 12.486 12.486 0 0 1-.77 4.3 25.68 25.68 0 0 1-1.311 4.162z" transform="translate(869.301 765.392)" style="fill:#263238"/>
            <path data-name="路径 15850" d="M95.343 131.1a17.418 17.418 0 0 1-1.249-6.17 8.927 8.927 0 0 1 .895 3.028 9.363 9.363 0 0 1 .354 3.142z" transform="translate(870.115 765.412)" style="fill:#263238"/>
            <path data-name="路径 15851" d="m161.768 92.257-18.832 30.506 14.816 4.131 16.439-25.356z" transform="translate(902.597 743.686)" style="fill:#455a64"/>
            <path data-name="路径 15852" d="m156.507 115.058.635 4.464 2.632 3.381.26 2.768 9.447-2.872-3.818-13.526a28.092 28.092 0 0 0 .375-5.514l-2.6 3.444-.718-5.618-5.32-4.277a1.3 1.3 0 0 0-1.821.281 1.3 1.3 0 0 0 .135 1.675l4.276 3.766.281 4.651-3.121-2.872a2.247 2.247 0 0 0-1.093-.562l-4.3-.864a1.124 1.124 0 0 0-1.332.988 1.124 1.124 0 0 0 .78 1.186l3.912 1.2 3.954 4-3.87-1.477-5.254.739a1.041 1.041 0 0 0-.874 1.04 1.04 1.04 0 0 0 1.04 1.04l3.34-.187 1.966.614-4.516 1.2a.9.9 0 0 0-.676.926.905.905 0 0 0 .978.864z" transform="translate(906.682 746.876)" style="fill:#ffbe9d"/>
            <g data-name="组 8492" style="opacity:.4">
                <path data-name="路径 15853" d="m1064.426 873.244-.406 4.994 14.327-3.943-1.644-4.786z"/>
            </g>
            <path data-name="路径 15854" d="M143.4 123.238s-1.269-1.717-1.165-2.008 17.917-29.622 17.917-29.622l2.081 1.124z" transform="translate(902.129 743.253)" style="fill:#263238"/>
            <path data-name="路径 15855" d="M157.14 96.934a.656.656 0 1 1 .323 1.1A.687.687 0 0 1 157.1 97" transform="translate(911.938 746.667)" style="fill:#263238"/>
            <path data-name="路径 15856" d="M182.192 121.6a2.476 2.476 0 0 1-.541.739 4.869 4.869 0 0 1-2.32 1.207 10.4 10.4 0 0 1-4.162 0 14.286 14.286 0 0 0-5.338-.239 14.567 14.567 0 0 0-5.629 3.121c-1.862 1.425-3.829 3.194-6.472 4.027a10.53 10.53 0 0 1-4.162.323 18.261 18.261 0 0 1-4.162-1.155c-2.726-1.04-5.338-2.58-8.209-3.621a14.619 14.619 0 0 0-8.688-.6c-2.82.583-5.462 1.561-8.095 2.081a20.445 20.445 0 0 1-13.869-1.914 20.809 20.809 0 0 1-7.283-6.243 15.2 15.2 0 0 1-1.738-3.049c.073 0 .572 1.124 1.914 2.924a21.319 21.319 0 0 0 7.283 5.993 20.206 20.206 0 0 0 13.62 1.769c2.591-.562 5.2-1.55 8.095-2.154a15.076 15.076 0 0 1 8.99.614c2.934 1.04 5.556 2.58 8.23 3.642a18.032 18.032 0 0 0 4.037 1.134 10.248 10.248 0 0 0 3.954-.291c2.5-.77 4.453-2.476 6.326-3.9a14.848 14.848 0 0 1 5.837-3.121 14.317 14.317 0 0 1 5.473.312 10.3 10.3 0 0 0 4.037.1 4.932 4.932 0 0 0 2.289-1.041 7.8 7.8 0 0 0 .583-.658z" transform="translate(875.056 759.657)" style="fill:#fafafa"/>
            <path data-name="路径 15857" d="M153.737 135.065a19.314 19.314 0 0 1-.427-4.609 18.978 18.978 0 0 1 .135-4.63 19.312 19.312 0 0 1 .427 4.609 19.029 19.029 0 0 1-.135 4.63z" transform="translate(909.442 766.011)" style="fill:#263238"/>
            <path data-name="路径 15858" d="M134.043 246.538c.447 1.81 11.06 61.315 11.06 61.315l16.262-1.217-2.976-60.763z" transform="translate(896.683 845.848)" style="fill:#ffbe9d"/>
            <path data-name="路径 15859" d="m157.687 283.62-.052-1.717-17.324.364.1 5.639h1.04c4.765.156 24.243.479 27.4-.468 3.558-1.03-11.164-3.818-11.164-3.818z" transform="translate(900.852 869.811)" style="fill:#ff725e"/>
            <g data-name="组 8493" style="opacity:.3">
                <path data-name="路径 15860" d="M1047.52 1157.467a5.577 5.577 0 0 0-2.279-3.371 6.159 6.159 0 0 0-4.058-1.092l.094 4.484z"/>
            </g>
            <g data-name="组 8494" style="opacity:.3">
                <path data-name="路径 15861" d="M1065.738 1155.037s5.2 1.28 4.547 2.081-20.32 1.165-29.019.614v-.364l22.974-.231s.499-2.052 1.498-2.1z"/>
            </g>
            <path data-name="路径 15862" d="M140.223 285.493h1.145l3.121.073c2.653 0 6.305.052 10.353 0s7.7-.208 10.353-.343l3.121-.177.843-.062h-.853l-3.121.114c-2.643.094-6.305.219-10.342.281s-7.7.083-10.353.083h-4.266z" transform="translate(900.793 871.86)" style="fill:#263238"/>
            <path data-name="路径 15863" d="M154.191 286.316a5.858 5.858 0 0 1 .551-1.4 6.24 6.24 0 0 1 1.04-1.134 2.206 2.206 0 0 0-1.228 1.04 2.081 2.081 0 0 0-.363 1.494z" transform="translate(910.069 871.057)" style="fill:#263238"/>
            <path data-name="路径 15864" d="M151.1 284.456a3.574 3.574 0 0 0 .531-.624c.25-.375.4-.7.343-.728s-.281.25-.52.624-.406.697-.354.728z" transform="translate(908.021 870.608)" style="fill:#263238"/>
            <path data-name="路径 15865" d="M150.249 283.883a2.684 2.684 0 0 0 .6-.385c.291-.25.489-.489.458-.531s-.312.135-.6.385-.5.5-.458.531z" transform="translate(907.457 870.515)" style="fill:#263238"/>
            <path data-name="路径 15866" d="M149.7 282.661a4.148 4.148 0 0 0 1.8-.01 2.269 2.269 0 0 0-.905-.094 2.352 2.352 0 0 0-.895.104z" transform="translate(907.094 870.239)" style="fill:#263238"/>
            <path data-name="路径 15867" d="M149.5 281.978a1.759 1.759 0 0 0 1.04.26 1.8 1.8 0 0 0 1.04-.156 6.844 6.844 0 0 0-1.04 0 5.887 5.887 0 0 0-1.04-.104z" transform="translate(906.965 869.861)" style="fill:#263238"/>
            <path data-name="路径 15868" d="M151.428 283.654a3.579 3.579 0 0 0 1.113 0 5.937 5.937 0 0 0 1.165-.27 2.779 2.779 0 0 0 .676-.271.52.52 0 0 0 .26-.323.364.364 0 0 0-.177-.406 2.081 2.081 0 0 0-2.5.593 1.841 1.841 0 0 0-.343.7v.281a2.55 2.55 0 0 1 .479-.884 2 2 0 0 1 .936-.593 1.811 1.811 0 0 1 1.321.062c.177.114.114.312-.073.416a3.281 3.281 0 0 1-.624.26 7.76 7.76 0 0 1-1.134.3 6.229 6.229 0 0 1-1.099.135z" transform="translate(908.245 870.005)" style="fill:#263238"/>
            <path data-name="路径 15869" d="M152.2 283.861a1.04 1.04 0 0 0 .1-.718 1.633 1.633 0 0 0-.312-.749 1.124 1.124 0 0 0-.936-.51.406.406 0 0 0-.333.479 1.04 1.04 0 0 0 .2.458 3.237 3.237 0 0 0 .541.614 1.571 1.571 0 0 0 .645.406 5.645 5.645 0 0 1-.541-.5 3.5 3.5 0 0 1-.479-.614c-.156-.208-.271-.6 0-.655a1.041 1.041 0 0 1 .739.427 1.571 1.571 0 0 1 .323.666 3.456 3.456 0 0 1 .053.696z" transform="translate(907.768 869.798)" style="fill:#263238"/>
            <path data-name="路径 15870" d="M140.373 282.724a8.313 8.313 0 0 1 1.28 0 5.889 5.889 0 0 1 2.8 1.04 5.2 5.2 0 0 1 1.79 2.247c.281.687.312 1.144.354 1.144a.769.769 0 0 0 0-.322 4.377 4.377 0 0 0-.2-.864 5.016 5.016 0 0 0-1.81-2.362 5.639 5.639 0 0 0-2.913-1.04 4.881 4.881 0 0 0-.947 0 1.86 1.86 0 0 0-.354.157z" transform="translate(900.893 870.238)" style="fill:#263238"/>
            <path data-name="路径 15871" d="M145.41 284.424a10.051 10.051 0 0 0 2.528.187 10.613 10.613 0 0 0 2.518-.229c0-.062-1.134 0-2.528 0a23.446 23.446 0 0 0-2.518.042z" transform="translate(904.243 871.441)" style="fill:#263238"/>
            <path data-name="路径 15872" d="M143.379 284.436s.094.218.219.458.187.447.25.447.083-.26-.062-.531-.365-.415-.407-.374z" transform="translate(902.892 871.491)" style="fill:#263238"/>
            <path data-name="路径 15873" d="M142.6 283.561a1.055 1.055 0 0 0 .25.375c.177.166.364.271.406.229s-.073-.208-.26-.375-.367-.26-.396-.229z" transform="translate(902.373 870.91)" style="fill:#263238"/>
            <path data-name="路径 15874" d="M141.492 283.217c0 .052.239.052.5.125s.437.2.479.166-.1-.26-.416-.354-.583.011-.563.063z" transform="translate(901.637 870.619)" style="fill:#263238"/>
            <path data-name="路径 15875" d="M140.7 283.02a.51.51 0 0 0 .229.177c.146.052.281.052.3 0s-.083-.135-.229-.187-.275-.042-.3.01z" transform="translate(901.113 870.524)" style="fill:#263238"/>
            <path data-name="路径 15876" d="M111.928 243.291c-.083 1.862-6.836 59.806-6.836 59.806L121 306.624l14.681-59.036z" transform="translate(877.429 844.132)" style="fill:#ffbe9d"/>
            <path data-name="路径 15877" d="m122.185 284.426.364-1.665-16.918-3.777-1.238 5.5 1.04.291c4.588 1.29 23.431 6.243 26.73 6.066 3.662-.193-9.978-6.415-9.978-6.415z" transform="translate(876.964 867.87)" style="fill:#ff725e"/>
            <g data-name="组 8495" style="opacity:.3">
                <path data-name="路径 15878" d="M987.537 1153.66a5.546 5.546 0 0 0-1.4-3.818 6.149 6.149 0 0 0-3.683-2.029l-.978 4.38z"/>
            </g>
            <g data-name="组 8496" style="opacity:.3">
                <path data-name="路径 15879" d="M1005.764 1155.574s4.713 2.476 3.923 3.121-20.008-3.714-28.332-6.316l.1-.343 22.37 5.2s.953-1.849 1.939-1.662z"/>
            </g>
            <path data-name="路径 15880" d="m104.3 282.04.281.094.822.239 3.028.812c2.57.666 6.118 1.55 10.061 2.445s7.533 1.633 10.134 2.133l3.121.572.843.135h.3l-.291-.073-.832-.177-3.121-.635c-2.6-.541-6.18-1.29-10.124-2.185s-7.491-1.758-10.072-2.393l-3.017-.707-.832-.2a1.041 1.041 0 0 0-.301-.06z" transform="translate(876.902 869.902)" style="fill:#263238"/>
            <path data-name="路径 15881" d="M117.853 286.212a6.245 6.245 0 0 1 .874-1.238 6.873 6.873 0 0 1 1.29-.853 2.32 2.32 0 0 0-1.436.718 2.081 2.081 0 0 0-.728 1.373z" transform="translate(885.916 871.286)" style="fill:#263238"/>
            <path data-name="路径 15882" d="M115.186 283.738a3.155 3.155 0 0 0 .666-.489c.323-.312.551-.583.51-.614s-.333.177-.655.479-.562.586-.521.624z" transform="translate(884.139 870.296)" style="fill:#263238"/>
            <path data-name="路径 15883" d="M114.454 282.97a1.456 1.456 0 0 0 .676-.239c.343-.177.6-.364.572-.406a1.381 1.381 0 0 0-.676.229c-.343.177-.593.364-.572.416z" transform="translate(883.654 870.085)" style="fill:#263238"/>
            <path data-name="路径 15884" d="M115.866 281.706a4.255 4.255 0 1 0 .905.114 2.227 2.227 0 0 0-.905-.115z" transform="translate(881.712 869.675)" style="fill:#263238"/>
            <path data-name="路径 15885" d="M114.1 281.034a1.79 1.79 0 0 0 .916.489 1.9 1.9 0 0 0 1.04.1 5.327 5.327 0 0 0-.978-.291 7.1 7.1 0 0 0-.978-.298z" transform="translate(883.418 869.233)" style="fill:#263238"/>
            <path data-name="路径 15886" d="M115.709 282.959a3.434 3.434 0 0 0 1.04.229 6.4 6.4 0 0 0 1.207 0 3.525 3.525 0 0 0 .708-.1.583.583 0 0 0 .343-.25.416.416 0 0 0-.073-.447 2.081 2.081 0 0 0-2.57 0 1.758 1.758 0 0 0-.51.593c-.083.156-.094.26-.083.26a2.643 2.643 0 0 1 .676-.739 1.977 1.977 0 0 1 1.04-.354 1.8 1.8 0 0 1 1.269.375c.146.156 0 .322-.177.385a3.451 3.451 0 0 1-.655.114 9 9 0 0 1-1.176 0c-.623-.014-1.028-.098-1.039-.066z" transform="translate(884.49 869.837)" style="fill:#263238"/>
            <path data-name="路径 15887" d="M116.3 283.488a1.052 1.052 0 0 0 .281-.666 1.665 1.665 0 0 0-.135-.8 1.134 1.134 0 0 0-.791-.718.406.406 0 0 0-.427.4 1.041 1.041 0 0 0 .083.489 3.123 3.123 0 0 0 .375.718 1.686 1.686 0 0 0 .531.551 6.707 6.707 0 0 1-.406-.614 4.1 4.1 0 0 1-.323-.707c-.1-.25-.114-.656.166-.635s.5.343.614.583a1.7 1.7 0 0 1 .166.728 3.12 3.12 0 0 1-.134.671z" transform="translate(884.169 869.412)" style="fill:#263238"/>
            <path data-name="路径 15888" d="M105.074 279.521a6.833 6.833 0 0 1 1.238.323 5.807 5.807 0 0 1 2.476 1.644A5.275 5.275 0 0 1 110 284.11a10.75 10.75 0 0 1 .062 1.186 1.1 1.1 0 0 0 .073-.312 4.078 4.078 0 0 0 0-.895 5.036 5.036 0 0 0-1.186-2.716 5.681 5.681 0 0 0-2.6-1.665 4.9 4.9 0 0 0-.936-.187.977.977 0 0 0-.339 0z" transform="translate(877.417 868.218)" style="fill:#263238"/>
            <path data-name="路径 15889" d="M109.548 282.411a9.847 9.847 0 0 0 2.4.78 10.465 10.465 0 0 0 2.508.375c0-.052-1.113-.239-2.456-.562s-2.431-.645-2.452-.593z" transform="translate(880.392 870.145)" style="fill:#263238"/>
            <path data-name="路径 15890" d="M107.567 281.96a1.5 1.5 0 0 0 .1.5c.1.26.073.479.135.489s.146-.229.073-.52-.266-.5-.308-.469z" transform="translate(879.075 869.847)" style="fill:#263238"/>
            <path data-name="路径 15891" d="M107.011 280.93a.707.707 0 0 0 .166.416c.166.2.291.343.333.323s0-.218-.156-.416-.291-.353-.343-.323z" transform="translate(878.705 869.161)" style="fill:#263238"/>
            <path data-name="路径 15892" d="M106.03 280.309c0 .062.229.1.458.239s.385.3.437.281 0-.281-.333-.447-.562-.125-.562-.073z" transform="translate(878.053 868.72)" style="fill:#263238"/>
            <path data-name="路径 15893" d="M105.311 279.959a.515.515 0 0 0 .177.229c.125.083.26.114.291.062s0-.146-.177-.229-.26-.121-.291-.062z" transform="translate(877.575 868.498)" style="fill:#263238"/>
            <path data-name="路径 15894" d="M173.74 101.032c-.427-1.238-1.477-2.164-1.987-3.371-.76-1.81-.2-3.86 0-5.806s-.208-4.318-1.987-5.119a18.437 18.437 0 0 1-2.289-.76c-1.394-.874-1.321-2.851-1.446-4.484a9.176 9.176 0 0 0-.812-3.121l.291-.094a4.62 4.62 0 0 1 5.317 2.632 2.705 2.705 0 0 1-.187 2.612 1.717 1.717 0 0 1-2.019.655 1.436 1.436 0 0 1-.739-1.581 1.04 1.04 0 0 1 1.145-.645 1.113 1.113 0 0 1 .8.447c.125.187.135.323.156.312a1.7 1.7 0 0 0 0-.364 1.217 1.217 0 0 0-.884-.635 1.55 1.55 0 0 0-.8.062 1.176 1.176 0 0 0-.7.708 1.769 1.769 0 0 0 .864 2.081 2.154 2.154 0 0 0 2.622-.728 3.194 3.194 0 0 0 .312-3.121 5.14 5.14 0 0 0-5.473-3.121 3.423 3.423 0 0 0 .323-2.768 3.891 3.891 0 0 0-2.4-2.414 5.2 5.2 0 0 0-3.049-.166 7.731 7.731 0 0 0-2.4 1.04c-.676.437-1.2.916-1.7 1.238a2.955 2.955 0 0 1-1.4.541 2.206 2.206 0 0 1-1.259-.26 1.472 1.472 0 0 0 1.269.5 3.038 3.038 0 0 0 1.571-.489c.551-.312 1.1-.78 1.748-1.165a5.712 5.712 0 0 1 5.015-.739 3.35 3.35 0 0 1 2.081 2.081 2.7 2.7 0 0 1-.723 2.777 6.066 6.066 0 0 0-2.247-2.31c-2.081-1.176-5.2-.6-6.243 1.54l-17.074-5.868a8.324 8.324 0 0 0-7.845-1.571l-.354-.062a5.722 5.722 0 0 0-2.882.479 9.364 9.364 0 0 0-2.9 2.539 6.67 6.67 0 0 1-1.634 1.363 3.123 3.123 0 0 1-.333.125 15.023 15.023 0 0 1-2.279.083c-1.436-.333-2.924-1.155-4.692-1.332a7.283 7.283 0 0 0-2.955.208 5.691 5.691 0 0 0-2.643 1.675 4.505 4.505 0 0 0-1.145 3.028 8.553 8.553 0 0 0 .375 2.362 8.1 8.1 0 0 0-.5 3.225c.073 1.446.489 2.965.51 4.38a4.161 4.161 0 0 1-1.4.718c-.895.281-1.862.416-2.778.77a6.472 6.472 0 0 0-3.683 3.9 4.568 4.568 0 0 0 .458 4.308 6.586 6.586 0 0 0 1.207 5.5 32.979 32.979 0 0 1 2.674 2.861c1.124 1.738.957 3.975 1.249 6.024s1.467 4.38 3.538 4.516c1.665.1 3.121-1.29 4.828-1.155 2.331.187 3.288 2.986 4.64 4.9a8.324 8.324 0 0 0 7.751 3.371c2.081-.281 4.224-1.4 6.295-.884 2.612.666 4.162 3.725 6.857 4.11 1.977.281 3.819-1.04 5.3-2.393s2.965-2.913 4.942-3.267c2.372-.427 4.661 1.04 7.054 1.332a7.98 7.98 0 0 0 7.866-3.943c1.311-2.383 1.3-5.306 2.539-7.731a43.645 43.645 0 0 1 3.121-4.443c.967-1.462 1.726-3.345 1.123-5.093zm-68.463-7.679a1.4 1.4 0 0 0-.583 0 1.427 1.427 0 0 1 .468.114l-.323.239a6.243 6.243 0 0 0-2.019 3.121 4.484 4.484 0 0 1-.1-3.548 5.983 5.983 0 0 1 3.413-3.538c.832-.312 1.779-.447 2.747-.739a4.464 4.464 0 0 0 1.186-.531 3.922 3.922 0 0 1-.489 1.613c-.895 1.55-2.788 2.206-4.3 3.267zm11.653-19.145a8.99 8.99 0 0 0-6.43 4.932 6.74 6.74 0 0 1-.167-1.425 3.974 3.974 0 0 1 .988-2.643 5.743 5.743 0 0 1 5.077-1.717 12.018 12.018 0 0 1 2.8.718 15 15 0 0 0-2.268.135zm8.563-.718c-.208.094-.427.156-.635.229a11.359 11.359 0 0 0 .864-.874 9.625 9.625 0 0 1 2.726-2.518 5.317 5.317 0 0 1 2.528-.541 6.754 6.754 0 0 0-1.29.635c-1.457.936-2.612 2.341-4.193 3.069z" transform="translate(875.34 728.336)" style="fill:#263238"/>
            <path data-name="路径 15895" d="M152.427 105.458c.812-5.119.562-13.526.125-20.4a10.883 10.883 0 0 0-12.008-10.148l-17.885 1.89a3.61 3.61 0 0 0-3.236 3.673l1.842 43.939H117.1v7.96a16.481 16.481 0 0 0 32.962 0v-6.888s-4.287-1.4-6.888-1.259h-.635c0-4.027.333-7.179.333-7.179s7.921-1.277 9.555-11.588z" transform="translate(885.417 732.108)" style="fill:#ffbe9d"/>
            <path data-name="路径 15896" d="M137.842 85.463a1.332 1.332 0 0 1-1.28 1.332 1.259 1.259 0 0 1-1.363-1.2 1.332 1.332 0 0 1 1.28-1.332 1.269 1.269 0 0 1 1.363 1.2z" transform="translate(897.452 738.369)" style="fill:#263238"/>
            <path data-name="路径 15897" d="M139.4 84.166c-.166.166-1.165-.572-2.591-.572s-2.466.718-2.622.541.094-.385.551-.718a3.694 3.694 0 0 1 2.081-.645 3.507 3.507 0 0 1 2.081.666c.427.333.583.645.5.728z" transform="translate(896.748 737.377)" style="fill:#263238"/>
            <path data-name="路径 15898" d="M129.483 85.463a1.321 1.321 0 0 1-1.269 1.332 1.259 1.259 0 0 1-1.363-1.2 1.311 1.311 0 0 1 1.269-1.332 1.269 1.269 0 0 1 1.363 1.2z" transform="translate(891.9 738.369)" style="fill:#263238"/>
            <path data-name="路径 15899" d="M131 84.318c-.166.177-1.165-.562-2.591-.562s-2.466.718-2.622.541.094-.385.551-.718a3.537 3.537 0 0 1 2.081-.645 3.434 3.434 0 0 1 2.081.666c.428.333.584.666.5.718z" transform="translate(891.162 737.485)" style="fill:#263238"/>
            <path data-name="路径 15900" d="M132.248 94.819a9.437 9.437 0 0 1 2.31-.416c.364 0 .707-.1.77-.354a1.883 1.883 0 0 0-.239-1.04c-.343-.874-.7-1.8-1.04-2.768-1.488-3.933-2.57-7.169-2.4-7.231a49.16 49.16 0 0 1 2.986 7.023c.354.978.7 1.894 1.04 2.788a2.081 2.081 0 0 1 .187 1.425.926.926 0 0 1-.6.531 2.33 2.33 0 0 1-.614.083 9.364 9.364 0 0 1-2.393-.042z" transform="translate(895.077 737.535)" style="fill:#263238"/>
            <path data-name="路径 15901" d="M138.108 101.683A26.22 26.22 0 0 1 124.3 98s3.35 7.086 13.661 6.118z" transform="translate(890.204 747.505)" style="fill:#eb996e"/>
            <path data-name="路径 15902" d="M133.331 92.552a2.57 2.57 0 0 0-2.3-.957 2.341 2.341 0 0 0-1.613.874 1.477 1.477 0 0 0-.114 1.7 1.748 1.748 0 0 0 1.862.468 5.494 5.494 0 0 0 1.821-1.04 1.581 1.581 0 0 0 .406-.427.468.468 0 0 0 0-.531" transform="translate(893.389 743.235)" style="fill:#eb996e"/>
            <path data-name="路径 15903" d="M129.569 90.7c.229 0 .229 1.529 1.55 2.622s2.965.926 2.976 1.145-.364.3-1.04.323a3.808 3.808 0 0 1-2.476-.874 3.3 3.3 0 0 1-1.207-2.2c-.032-.646.093-1.031.197-1.016z" transform="translate(893.573 742.647)" style="fill:#263238"/>
            <path data-name="路径 15904" d="M131.872 82.7c-.135.385-1.561.2-3.225.406s-3.017.655-3.236.3c-.1-.156.135-.52.676-.895a5.3 5.3 0 0 1 2.4-.843 5.483 5.483 0 0 1 2.528.291c.618.251.971.553.857.741z" transform="translate(890.926 736.618)" style="fill:#263238"/>
            <path data-name="路径 15905" d="M138.925 82.438c-.25.323-1.238 0-2.414 0s-2.175.219-2.4-.125c-.1-.166 0-.489.489-.791a3.392 3.392 0 0 1 1.956-.531 3.35 3.35 0 0 1 1.925.645c.413.313.548.646.444.802z" transform="translate(896.702 736.192)" style="fill:#263238"/>
            <path data-name="路径 15906" d="M156.91 79.649c-.708-2.747-2.788-5.286-5.577-5.806-1.821-.333-3.683.2-5.525.083-1.529-.094-2.081-1.311-3.527-1.79-2.414-.791-4.266-3.475-9.479-2.913-1.394.156-3.184 1.769-4.464 3.6-2-.864-4.63.062-6.066.7-2.986 1.3-4.849 4.661-5.442 8.074s-.1 6.919.375 10.353c.219 1.561.437 3.121.666 4.7a8.387 8.387 0 0 0 .822 3l-2.371 22.05A9.177 9.177 0 0 0 128 115.285c.916-4.339-1.5-8.75-1.113-13.172.229-2.632 1.717-5.077 1.706-7.72a10.405 10.405 0 0 0-.375-2.57c4.162-3.4 5.265-6.139 5.088-9.364a8.032 8.032 0 0 0 4.37 1.446c2.206 0 4.505-.832 6.565 0a11.445 11.445 0 0 1 3.673 2.976c1.134 1.124 2.6 2.154 4.162 1.935a10.911 10.911 0 0 0 2.164-.76 2.6 2.6 0 0 1 2.227 0 17.219 17.219 0 0 0 .443-8.407z" transform="translate(884.897 728.316)" style="fill:#263238"/>
            <path data-name="路径 15907" d="M103.68 97.2a18.24 18.24 0 0 0 3.42 1.96 12.1 12.1 0 0 0 4.474.947 9.52 9.52 0 0 0 5.712-1.717 8.7 8.7 0 0 0 3.683-6.035 6.3 6.3 0 0 0-.78-3.871 4.162 4.162 0 0 0-3.382-2.081 3.049 3.049 0 0 0-1.956.645 3.871 3.871 0 0 0-1.207 1.8 4.484 4.484 0 0 0 .791 4.3 7.5 7.5 0 0 0 4.079 2.435 11.706 11.706 0 0 0 4.994.083 10.842 10.842 0 0 0 4.547-2.081 8.573 8.573 0 0 0 2.82-3.881 8.677 8.677 0 0 0 .375-4.62 6.824 6.824 0 0 0-.77-2.081 4.786 4.786 0 0 0-1.4-1.644 3.34 3.34 0 0 0-1.9-.718 1.758 1.758 0 0 0-1.592.895 2.518 2.518 0 0 0-.2 1.862 3.735 3.735 0 0 0 1.04 1.613 8.979 8.979 0 0 0 12.111-.468 9.365 9.365 0 0 0 2.279-3.933 10.467 10.467 0 0 0 .323-3.891 4.493 4.493 0 0 1 .166 1.04 8.936 8.936 0 0 1-.271 2.945 9.728 9.728 0 0 1-2.268 4.089 8.969 8.969 0 0 1-5.535 2.716 9.135 9.135 0 0 1-7.127-2.133 4.037 4.037 0 0 1-1.145-1.821 3.017 3.017 0 0 1 .239-2.237 2.268 2.268 0 0 1 2.018-1.155 3.871 3.871 0 0 1 2.216.812 5.275 5.275 0 0 1 1.55 1.8 7.6 7.6 0 0 1 .843 2.279 9.135 9.135 0 0 1-.385 4.911 9.229 9.229 0 0 1-2.986 4.162 11.445 11.445 0 0 1-4.786 2.164 12.2 12.2 0 0 1-5.2-.094 8.105 8.105 0 0 1-4.38-2.622 5.088 5.088 0 0 1-1.04-2.32 5.463 5.463 0 0 1 .2-2.5 4.423 4.423 0 0 1 1.384-2.081 3.621 3.621 0 0 1 2.31-.749 4.609 4.609 0 0 1 3.787 2.372 6.846 6.846 0 0 1 .822 4.162 9.094 9.094 0 0 1-3.923 6.305 9.687 9.687 0 0 1-5.931 1.706 12 12 0 0 1-4.557-1.04 12.226 12.226 0 0 1-2.56-1.488c-.271-.2-.458-.375-.593-.479z" transform="translate(876.49 733.35)" style="fill:#455a64"/>
            <path data-name="路径 15908" d="M152.427 83.507a1.956 1.956 0 0 1-.5.343 5.639 5.639 0 0 1-1.634.6 6.95 6.95 0 0 1-2.768 0 7.544 7.544 0 0 1-3.257-1.686 9.759 9.759 0 0 1-2.56-3.631 3.267 3.267 0 0 1-.083-2.57 2.206 2.206 0 0 1 .968-1.04 1.623 1.623 0 0 1 1.5 0 2.289 2.289 0 0 1 1.04 2.643 3.787 3.787 0 0 1-2.081 2.164 7.887 7.887 0 0 1-6.024.094 14.9 14.9 0 0 1-2.778-1.342 10.228 10.228 0 0 1-2.362-1.883 2.372 2.372 0 0 1-.239-2.955 1.54 1.54 0 0 1 1.5-.531 2.216 2.216 0 0 1 1.269.8 1.935 1.935 0 0 1 .406 1.415 2.455 2.455 0 0 1-.583 1.28 3.34 3.34 0 0 1-2.279 1.145 5.951 5.951 0 0 1-2.341-.3 17.154 17.154 0 0 1-1.987-.77 7.148 7.148 0 0 1-2.9-2.227 4.068 4.068 0 0 1-.749-2.664 3.017 3.017 0 0 1 .6-1.634 1.572 1.572 0 0 1 .458-.406 3.184 3.184 0 0 0-.843 2.081 3.881 3.881 0 0 0 .78 2.455 6.825 6.825 0 0 0 2.82 2.081 9.1 9.1 0 0 0 4.162.978 2.882 2.882 0 0 0 1.956-1.04 1.6 1.6 0 0 0 .146-2.081c-.468-.614-1.467-.884-1.935-.25a1.488 1.488 0 0 0-.281 1.124 2.247 2.247 0 0 0 .52 1.145 9.915 9.915 0 0 0 2.227 1.748 13.732 13.732 0 0 0 2.674 1.28 7.283 7.283 0 0 0 5.6 0 3.2 3.2 0 0 0 1.758-1.821 1.758 1.758 0 0 0-.8-2.081 1.3 1.3 0 0 0-1.769.77 2.851 2.851 0 0 0 .073 2.185 9.447 9.447 0 0 0 2.393 3.5 7.284 7.284 0 0 0 3.059 1.686 6.752 6.752 0 0 0 2.653.135 8.718 8.718 0 0 0 2.191-.74z" transform="translate(889.984 729.12)" style="fill:#455a64"/>
            <path data-name="路径 15909" d="M130.557 94.35a1.613 1.613 0 0 1-.437.354 4.163 4.163 0 0 1-1.519.6 4.859 4.859 0 0 1-2.57-.166 4.162 4.162 0 0 1-2.612-2.237 1.758 1.758 0 0 1 .4-2.081 1.831 1.831 0 0 1 2.237 0 4.588 4.588 0 0 1 1.6 4.443 5.452 5.452 0 0 1-3.007 4.256 6.149 6.149 0 0 1-5.6-.416 6.243 6.243 0 0 1-2.143-1.987 3.569 3.569 0 0 1-.51-2.84 2.716 2.716 0 0 1 .739-1.269 1.873 1.873 0 0 1 1.384-.531 2.726 2.726 0 0 1 2.227 1.488 5.619 5.619 0 0 1 .614 2.435 8.5 8.5 0 0 1-.229 2.32 7.283 7.283 0 0 1-2.081 3.61 5.2 5.2 0 0 1-5.671 1.04 4.464 4.464 0 0 1-1.353-.916 1.716 1.716 0 0 1-.354-.437 6.867 6.867 0 0 0 1.79 1.145 5.046 5.046 0 0 0 2.435.3 4.942 4.942 0 0 0 2.872-1.384 6.909 6.909 0 0 0 1.873-3.423 7.647 7.647 0 0 0 .187-2.2 5.067 5.067 0 0 0-.572-2.2 2.2 2.2 0 0 0-1.79-1.217 1.686 1.686 0 0 0-1.561 1.415 2.976 2.976 0 0 0 .447 2.393 5.806 5.806 0 0 0 1.946 1.81 5.671 5.671 0 0 0 5.161.375 4.973 4.973 0 0 0 2.726-3.839 4.162 4.162 0 0 0-1.353-3.975 1.373 1.373 0 0 0-1.7 0 1.342 1.342 0 0 0-.3 1.561 3.839 3.839 0 0 0 2.31 2.081 4.9 4.9 0 0 0 2.435.25 6.243 6.243 0 0 0 1.979-.758z" transform="translate(881.805 742.478)" style="fill:#455a64"/>
            <path data-name="路径 15910" d="M97.2 304.705s6.961 13.526 25.106 6.95c0 0 17.771 9.655 34.772-1.155 0 0 22.006 2.944 33.982-2.851L175.7 174.845l-1.956-20.393h-48.6s-14.421 6.565-16.741 38.622-7.283 76.089-7.283 76.089z" transform="translate(872.181 785.049)" style="fill:#263238"/>
            <path data-name="路径 15911" d="M134.18 310.686v-.406c0-.271-.062-.676-.1-1.176-.083-1.04-.2-2.591-.354-4.536-.291-3.933-.676-9.635-1.092-16.647-.843-14.088-1.738-33.586-2.206-55.145s-.416-41.067-.187-55.145c.114-7.065.239-12.777.375-16.72.062-1.956.114-3.475.156-4.547v-1.186a1.961 1.961 0 0 1 0-.4 1.653 1.653 0 0 1 0 .4v1.186c0 1.04 0 2.6-.052 4.547 0 3.975-.114 9.687-.2 16.72-.125 14.119-.125 33.628.343 55.145s1.311 41.025 2.081 55.145c.385 7.034.7 12.725.926 16.647.1 1.946.187 3.475.25 4.536a7.572 7.572 0 0 0 .052 1.186 2.382 2.382 0 0 1 .008.396z" transform="translate(894.039 785.269)" style="fill:#455a64"/>
            <path data-name="路径 15912" d="M135.568 225.686a.689.689 0 0 1 .375-.218 1.81 1.81 0 0 1 1.186.146 2.081 2.081 0 0 1 1.113 1.4 2.019 2.019 0 0 1-3.2 1.831 2.081 2.081 0 0 1-.635-1.686 1.79 1.79 0 0 1 .479-1.092c.2-.2.364-.239.375-.219a2.56 2.56 0 0 0-.468 1.332 1.727 1.727 0 0 0 .572 1.28 1.561 1.561 0 0 0 2.393-1.363 1.665 1.665 0 0 0-.812-1.145 2.341 2.341 0 0 0-1.378-.266z" transform="translate(896.917 832.251)" style="fill:#455a64"/>
            <path data-name="路径 15913" d="M134.915 202a.719.719 0 0 1 .375-.208 1.737 1.737 0 0 1 1.186.146 1.977 1.977 0 0 1 1.113 1.4 2.019 2.019 0 0 1-3.194 1.821 1.987 1.987 0 0 1-.635-1.675 1.727 1.727 0 0 1 .468-1.04c.208-.208.364-.239.375-.219a2.549 2.549 0 0 0-.468 1.321 1.717 1.717 0 0 0 .572 1.28 1.55 1.55 0 0 0 2.393-1.353 1.727 1.727 0 0 0-.8-1.155 2.591 2.591 0 0 0-1.385-.318z" transform="translate(896.488 816.503)" style="fill:#455a64"/>
            <path data-name="路径 15914" d="M134.533 181.054a.725.725 0 0 1 .385-.208 1.717 1.717 0 0 1 1.176.146 1.943 1.943 0 1 1-2.716 1.55 1.811 1.811 0 0 1 .468-1.092c.208-.2.364-.239.385-.218a2.5 2.5 0 0 0-.479 1.321 1.675 1.675 0 0 0 .583 1.28 1.55 1.55 0 0 0 2.383-1.353 1.727 1.727 0 0 0-.8-1.155 2.581 2.581 0 0 0-1.385-.271z" transform="translate(896.235 802.572)" style="fill:#455a64"/>
            <path data-name="路径 15915" d="M133.806 158.649a.689.689 0 0 1 .375-.219 1.758 1.758 0 0 1 1.186.156 2.008 2.008 0 0 1 1.113 1.4 1.883 1.883 0 0 1-1.04 1.946 1.914 1.914 0 0 1-2.2-.125 2.081 2.081 0 0 1-.635-1.686 1.79 1.79 0 0 1 .479-1.04c.208-.2.364-.239.375-.218a2.56 2.56 0 0 0-.468 1.332 1.727 1.727 0 0 0 .572 1.28 1.561 1.561 0 0 0 2.393-1.363 1.665 1.665 0 0 0-.812-1.145 2.341 2.341 0 0 0-1.338-.318z" transform="translate(895.724 787.667)" style="fill:#455a64"/>
            <g transform="translate(1090.998 808.975)">
                <path data-name="路径 15916" d="m172.116 135 245.414-1.779 6.836 166.849-254.123-2.351z" transform="translate(-170.239 -38.048)" style="fill:#ff725e"/>
                <path data-name="路径 15917" d="m171.361 173.011 116.158-93.985a13.339 13.339 0 0 1 16.845.062l112.422 92.143" transform="translate(-169.495 -76.061)" style="fill:#ff725e"/>
                <g data-name="组 8497" style="opacity:.3">
                    <path data-name="路径 15918" d="M1.866 96.95 118.024 2.965a13.339 13.339 0 0 1 16.845.062L247.291 95.17"/>
                </g>
                <path data-name="路径 15919" d="M170.244 269.873c-.3-.291 19.342-21.746 43.887-47.913s44.678-47.154 44.99-46.873-19.343 21.735-43.887 47.913-44.678 47.154-44.99 46.873z" transform="translate(-170.241 -10.205)" style="fill:#263238"/>
                <path data-name="路径 15920" d="M356.556 271.327c-.312.281-19.446-20.736-42.732-46.935s-41.91-47.674-41.619-47.955 19.446 20.736 42.732 46.946 41.952 47.663 41.619 47.944z" transform="translate(-102.43 -9.308)" style="fill:#263238"/>
                <g data-name="组 8498" style="opacity:.5">
                    <path data-name="路径 15921" d="m247.291 95.17-123.243 98.449L1.876 96.952"/>
                </g>
                <path data-name="路径 15922" d="m178.934 171.391-.374-76.641 214.887-2.55 2.424 80.646-107.126 84.81z" transform="translate(-164.708 -65.327)" style="fill:#fafafa"/>
                <path data-name="路径 15923" d="M178.972 171.495s.7.52 2.019 1.55l5.827 4.536 22.214 17.345 79.918 62.657h-.271l107.095-84.839-.1.219c-.458-15.378-.947-31.526-1.446-47.945-.323-11.06-.655-21.985-.978-32.7l.271.26-214.893 2.443.166-.166c.083 24.108.156 43.263.2 56.393v15.087c0-3.423-.073-8.469-.125-15.024-.083-13.151-.208-32.317-.364-56.456v-.177h.166l214.9-2.632h.26v.271c.323 10.706.645 21.631.978 32.691.5 16.429.978 32.567 1.446 47.955v.135l-.1.083-107.175 84.766-.135.1-.135-.1-79.866-62.865-22.079-17.428-5.827-4.578c-1.311-1.04-1.966-1.581-1.966-1.581z" transform="translate(-164.745 -65.431)" style="fill:#263238"/>
                <path data-name="路径 15924" d="M345.855 115.417c0 .146-32.868.468-73.394.708s-73.4.333-73.4.177 32.858-.468 73.4-.718 73.394-.323 73.394-.167z" transform="translate(-151.077 -49.942)" style="fill:#263238"/>
                <path data-name="路径 15925" d="M345.855 128.412c0 .156-32.868.479-73.394.718s-73.4.323-73.4.177 32.858-.468 73.4-.718 73.394-.323 73.394-.177z" transform="translate(-151.077 -41.294)" style="fill:#263238"/>
                <path data-name="路径 15926" d="M345.855 143.4c0 .146-32.868.468-73.394.718s-73.4.323-73.4.166 32.858-.468 73.4-.708 73.394-.329 73.394-.176z" transform="translate(-151.077 -31.326)" style="fill:#263238"/>
                <path data-name="路径 15927" d="M343.162 158.389c0 .156-31.349.458-70.023.7s-70.023.3-70.034.156 31.349-.458 70.034-.7 70.023-.302 70.023-.156z" transform="translate(-148.384 -21.36)" style="fill:#263238"/>
                <path data-name="路径 15928" d="M304.552 171.532a4.53 4.53 0 0 1-.853.062l-2.476.073-9.073.146-29.955.427c-11.695.2-22.3.26-29.965.271h-11.55a5.412 5.412 0 0 1-.853-.052 4.519 4.519 0 0 1 .853-.062l2.476-.062 9.073-.156 29.955-.427c11.695-.2 22.3-.26 29.955-.271H303.7a6.727 6.727 0 0 1 .853.052z" transform="translate(-137.263 -12.602)" style="fill:#263238"/>
                <path data-name="路径 15929" d="M266.563 184.267c0 .146-7 .271-15.607.271s-15.607-.125-15.607-.271 7.013-.271 15.607-.271 15.607.115 15.607.271z" transform="translate(-126.94 -4.278)" style="fill:#263238"/>
                <circle data-name="椭圆 539" cx="25.96" cy="25.96" r="25.96" transform="translate(185.997 111.069)" style="fill:#263238"/>
                <circle data-name="椭圆 540" cx="25.96" cy="25.96" r="25.96" transform="translate(179.244 111.069)" style="fill:#455a64"/>
                <path data-name="路径 15930" d="M298.879 151.119V172.7h-3.985v-18.26h-4.568v-3.361z" transform="translate(-90.377 -26.171)" style="fill:#ebebeb"/>
            </g>
            <g>
                <path data-name="路径 15931" d="M179.8 81.162h23.743l-3.215-3.683v-8.834a8.657 8.657 0 0 0-8.657-8.657 8.646 8.646 0 0 0-8.646 8.657v8.4z" transform="translate(927.113 722.225)" style="fill:#ff725e"/>
                <path data-name="路径 15932" d="M184.965 72.5a3.662 3.662 0 1 0 7.169-1.228" transform="translate(930.55 729.727)" style="fill:#ff725e"/>
                <path data-name="矩形 9968" transform="translate(1117.772 778.614)" style="fill:#ff725e" d="M0 0h2.331v4.953H0z"/>
                <path data-name="路径 15933" d="M236.155 74.946a4.442 4.442 0 0 1-.167-.624c-.1-.447-.239-1.04-.416-1.831a23.554 23.554 0 0 0-.843-2.934c-.208-.562-.354-1.2-.635-1.831l-.884-2.019a36.125 36.125 0 0 0-6.295-9.3 34.928 34.928 0 0 0-12-8.24 34.544 34.544 0 0 0-8.053-2.289 35.146 35.146 0 0 0-9.01-.146 35.585 35.585 0 0 0-4.682.812c-.78.166-1.54.468-2.331.708a15.885 15.885 0 0 0-2.32.843 32.972 32.972 0 0 0-8.792 5.275 34.991 34.991 0 0 0-11.757 18.8 34.419 34.419 0 0 0-.676 12.069 33.357 33.357 0 0 0 3.569 11.945l.6 1.134.073.146v.156c-1.925 6.243-3.8 12.486-5.629 18.447l-.489-.447 14.868-7.751.177-.094.166.125a34.6 34.6 0 0 0 43.19-.749 36 36 0 0 0 7.814-9.156 38.845 38.845 0 0 0 3.8-9.219 39.538 39.538 0 0 0 1.04-7.46v-2.739c0-.8-.125-1.436-.166-1.987s-.083-.916-.1-1.217a1.781 1.781 0 0 1 0-.416 2.217 2.217 0 0 1 .073.406 6.362 6.362 0 0 0 .156 1.217c.062.551.135 1.207.229 2a26.774 26.774 0 0 1 0 2.747 37.723 37.723 0 0 1-.936 7.533 38.331 38.331 0 0 1-3.746 9.364 36.238 36.238 0 0 1-7.866 9.364 35.189 35.189 0 0 1-27.926 7.762 35.646 35.646 0 0 1-15.992-6.836h.354l-14.847 7.772-.749.4.25-.843 5.619-18.447v.3l-.614-1.155a34.159 34.159 0 0 1-3.642-12.2 34.545 34.545 0 0 1 .707-12.35 35.636 35.636 0 0 1 12.017-19.155 33.856 33.856 0 0 1 8.979-5.338 16 16 0 0 1 2.362-.853c.8-.229 1.571-.531 2.372-.7a33.421 33.421 0 0 1 4.755-.812 35.292 35.292 0 0 1 9.156.187 35.862 35.862 0 0 1 8.157 2.372 35.147 35.147 0 0 1 12.09 8.449 35.793 35.793 0 0 1 6.243 9.468c.3.728.593 1.4.853 2.081s.416 1.29.614 1.862a19.534 19.534 0 0 1 .78 2.965c.146.78.271 1.394.354 1.852a4.549 4.549 0 0 1 .146.577z" transform="translate(917.243 712.2)" style="fill:#263238"/>
            </g>
            <g>
                <path data-name="路径 15934" d="M392.74 211.354c3.4 11.5.822 26.282-3.3 37.54a56.913 56.913 0 0 1-22 27.791c-1.124.739-2.57 1.457-3.756.822a3.829 3.829 0 0 1-1.446-2.9 58.6 58.6 0 0 1 30.538-63.281" transform="translate(1047.722 822.871)" style="fill:#ff725e"/>
                <g data-name="组 8499" style="opacity:.2">
                    <path data-name="路径 15935" d="M1440.462 1034.225c3.4 11.5.822 26.282-3.3 37.54a56.913 56.913 0 0 1-22 27.791c-1.124.739-2.57 1.457-3.756.822a3.829 3.829 0 0 1-1.446-2.9 58.6 58.6 0 0 1 30.538-63.281"/>
                </g>
                <path data-name="路径 15936" d="M357.562 178.574c7.158-.2 11.882 7.762 12.6 14.9s-.864 14.566 1.228 21.392c2.622 8.7 10.8 14.941 13.255 23.712 2.913 10.332-2.757 21.059-3.028 31.786-.135 5.2 1.04 10.5.052 15.607a19.217 19.217 0 0 1-37.7.375c-1.675-8.032 1.873-16.575-.25-24.513-1.571-5.858-6.128-10.842-6.5-16.9-.437-7.21 5.14-13.443 6.18-20.591s-2.58-14.129-3.121-21.34c-.968-12.923 4.38-23.067 17.272-24.451" transform="translate(1031.793 801.077)" style="fill:#ff725e"/>
                <path data-name="路径 15937" d="M358.851 294.367a3.6 3.6 0 0 0 .219-.718c.125-.541.281-1.238.468-2.081.385-1.8 1.04-4.411 1.769-7.627a248.232 248.232 0 0 1 17.3-48.579 316.87 316.87 0 0 1 3.454-7.034l.947-1.9a3.508 3.508 0 0 0 .291-.687 3.123 3.123 0 0 0-.406.614l-1.04 1.852c-.916 1.613-2.175 3.985-3.652 6.95a217.224 217.224 0 0 0-17.344 48.673c-.718 3.236-1.249 5.868-1.561 7.7-.135.843-.25 1.54-.343 2.081a3.56 3.56 0 0 0-.102.756z" transform="translate(1046.194 832.458)" style="fill:#263238"/>
                <path data-name="路径 15938" d="M349.6 199.737a7.279 7.279 0 0 0 .1 1.145c.094.8.229 1.894.4 3.267l1.592 12.017c1.342 10.145 3.194 24.149 5.14 39.642s3.621 29.528 4.817 39.694c.6 5.025 1.092 9.125 1.446 12.028.177 1.373.312 2.466.416 3.267a8.421 8.421 0 0 0 .187 1.134 6.761 6.761 0 0 0 0-1.145c-.073-.812-.166-1.9-.291-3.288-.3-2.913-.718-7.013-1.228-12.059-1.04-10.176-2.674-24.222-4.62-39.715s-3.87-29.5-5.348-39.631c-.749-5-1.363-9.083-1.79-11.976a331.318 331.318 0 0 1-.531-3.257 6.153 6.153 0 0 0-.291-1.124z" transform="translate(1040.043 815.166)" style="fill:#263238"/>
                <path data-name="矩形 9969" transform="translate(1375.662 1112.769)" style="fill:#263238" d="M0 0h54.375v6.347H0z"/>
                <path data-name="路径 15939" d="m344.235 262.325 6.378 38.518h33.732l4.412-38.518z" transform="translate(1036.473 856.79)" style="fill:#263238"/>
                <path data-name="路径 15940" d="M389 262.214c0 .156-10.04.4-22.432.551s-22.432.156-22.432 0 10.04-.4 22.432-.551 22.432-.145 22.432 0z" transform="translate(1036.407 856.641)" style="fill:#455a64"/>
                <path data-name="路径 15941" d="M385.664 278.413h-1.207a23.226 23.226 0 0 1-3.475-.135 10.614 10.614 0 0 1-5.14-1.935 7.211 7.211 0 0 1-2.242-2.643 5.2 5.2 0 0 1-.323-3.871 3.517 3.517 0 0 1 3.392-2.455 3.122 3.122 0 0 1 2.081 1.04 4.975 4.975 0 0 1 1.04 2.185c.656 3.288-1.654 6.95-5.2 8.095s-7.876-.832-9.645-4.422a7.367 7.367 0 0 1-.791-2.913 4.859 4.859 0 0 1 .791-3 3.787 3.787 0 0 1 2.705-1.623 3.246 3.246 0 0 1 2.861 1.415 5.046 5.046 0 0 1 .926 3.049 6.742 6.742 0 0 1-.78 3.017 9.363 9.363 0 0 1-4.328 4.1 17.605 17.605 0 0 1-5.546 1.571 12.143 12.143 0 0 1-5.514-.479 7.939 7.939 0 0 1-4.162-3.246 5.691 5.691 0 0 1-.541-4.911 4.453 4.453 0 0 1 3.423-3.049 4.359 4.359 0 0 1 3.975 1.477 3.766 3.766 0 0 1 .354 3.829 5.858 5.858 0 0 1-2.289 2.6 13.05 13.05 0 0 1-2.695 1.311c-.864.333-1.665.593-2.393.8a28.776 28.776 0 0 1-3.382.77l-.895.135h-.3a.867.867 0 0 0 .291-.083l.884-.177c.77-.167 1.915-.427 3.35-.874.708-.219 1.5-.5 2.351-.832a12.911 12.911 0 0 0 2.622-1.321 5.639 5.639 0 0 0 2.081-2.487 3.371 3.371 0 0 0-.333-3.454 3.964 3.964 0 0 0-3.61-1.311 4.048 4.048 0 0 0-3.059 2.788 5.2 5.2 0 0 0 .52 4.516 7.512 7.512 0 0 0 3.9 3.028 11.821 11.821 0 0 0 5.285.437 17.373 17.373 0 0 0 5.369-1.529 8.9 8.9 0 0 0 4.089-3.881 5.3 5.3 0 0 0-.1-5.494 2.674 2.674 0 0 0-2.383-1.2 3.246 3.246 0 0 0-2.3 1.394 4.266 4.266 0 0 0-.7 2.664 7.014 7.014 0 0 0 .718 2.705c1.654 3.361 5.723 5.3 9.021 4.162s5.483-4.505 4.88-7.523a4.244 4.244 0 0 0-.936-1.987 2.611 2.611 0 0 0-1.79-.926 3.121 3.121 0 0 0-3.007 2.154 4.817 4.817 0 0 0 .271 3.6 6.919 6.919 0 0 0 2.081 2.549 10.612 10.612 0 0 0 4.984 1.967 27.48 27.48 0 0 0 3.444.229h.905z" transform="translate(1037.891 859.722)" style="fill:#455a64"/>
            </g>
        </g>
    </g>
</svg>
