<svg data-name="组 8450" xmlns="http://www.w3.org/2000/svg" width="54.032" height="50.494" viewBox="0 0 54.032 50.494">
    <defs>
        <clipPath id="wb8ckwllha">
            <path data-name="矩形 11019" style="fill:none" d="M0 0h54.032v50.494H0z"/>
        </clipPath>
    </defs>
    <path data-name="路径 13956" d="M89.074 61.244v3.91l7.361 3.766V57.141z" transform="translate(-51.8 -33.23)" style="fill:#fb6943"/>
    <g data-name="组 8449">
        <g data-name="组 8448" style="clip-path:url(#wb8ckwllha)">
            <path data-name="路径 13957" d="M25.783 4.641a21.354 21.354 0 0 0-12.231 15.523" transform="translate(-7.881 -2.699)" style="stroke-miterlimit:10;stroke-width:.5px;stroke-linecap:round;stroke:#fff;fill:none"/>
            <path data-name="路径 13958" d="M92.275 15.454A21.374 21.374 0 0 0 77.151 1" transform="translate(-44.866 -.581)" style="stroke-miterlimit:10;stroke-width:.5px;stroke-linecap:round;stroke:#fff;fill:none"/>
            <path data-name="路径 13959" d="M2.407 75.044a26.67 26.67 0 0 0 21.476 18.53" transform="translate(-1.4 -43.641)" style="stroke-miterlimit:10;stroke-width:.5px;stroke-linecap:round;stroke:#fff;fill:none"/>
            <path data-name="路径 13960" d="M82.639 89.5a26.642 26.642 0 0 0 19.033-20.71" transform="translate(-48.058 -40.004)" style="stroke-miterlimit:10;stroke-width:.5px;stroke-linecap:round;stroke:#fff;fill:none"/>
            <path data-name="路径 13961" d="M50.421 67.732H29.85a1.85 1.85 0 0 1-1.85-1.85V54.517a1.85 1.85 0 0 1 1.85-1.85h20.571a1.85 1.85 0 0 1 1.85 1.85v11.365a1.85 1.85 0 0 1-1.85 1.85" transform="translate(-16.283 -30.628)" style="fill:#fb6943"/>
            <path data-name="路径 13962" d="M41.331 37.893a4.438 4.438 0 1 1-4.438-4.438 4.438 4.438 0 0 1 4.438 4.438" transform="translate(-18.874 -19.455)" style="fill:#fb6943"/>
            <circle data-name="椭圆 497" cx="6.099" cy="6.099" r="6.099" transform="translate(22.457 9.322)" style="stroke-miterlimit:10;stroke-width:.5px;stroke:#fff;fill:none"/>
            <path data-name="路径 13963" d="M67.5 36.582a1.915 1.915 0 1 1-1.915-1.915 1.915 1.915 0 0 1 1.915 1.915" transform="translate(-37.024 -20.16)" style="fill:#fb6943"/>
            <path data-name="路径 13964" d="M75.837 119.085a.418.418 0 1 1-.418-.418.419.419 0 0 1 .418.418" transform="translate(-43.616 -69.01)" style="fill:#fff"/>
            <path data-name="路径 13965" d="M48.837 2.085a.418.418 0 1 1-.418-.418.419.419 0 0 1 .418.418" transform="translate(-27.914 -.969)" style="stroke:#fff"/>
            <path data-name="路径 13966" d="M114.837 41.085a.418.418 0 1 1-.418-.418.419.419 0 0 1 .418.418" transform="translate(-66.296 -23.65)" style="stroke:#fff"/>
            <path data-name="路径 13967" d="M.837 69.085a.418.418 0 1 1-.418-.418.419.419 0 0 1 .418.418" transform="translate(0 -39.933)" style="fill:#fff"/>
        </g>
    </g>
</svg>
