<svg data-name="组 8458" xmlns="http://www.w3.org/2000/svg" width="52.12" height="55.494" viewBox="0 0 52.12 55.494">
    <defs>
        <clipPath id="fg03p479ua">
            <path data-name="矩形 11023" style="fill:none" d="M0 0h52.12v55.494H0z"/>
        </clipPath>
    </defs>
    <g data-name="组 8457" style="clip-path:url(#fg03p479ua)">
        <path data-name="路径 14000" d="M96.9 100.459a.449.449 0 1 1-.449-.449.449.449 0 0 1 .449.449" transform="translate(-52.866 -55.075)" style="stroke:#fff"/>
        <path data-name="路径 14001" d="M99.9 95.459a.449.449 0 1 1-.449-.449.449.449 0 0 1 .449.449" transform="translate(-54.518 -52.321)" style="stroke:#fff"/>
        <path data-name="路径 14002" d="M18.9 100.459a.449.449 0 1 1-.449-.449.449.449 0 0 1 .449.449" transform="translate(-9.912 -55.075)" style="stroke:#fff"/>
        <path data-name="路径 14003" d="M15.9 95.459a.449.449 0 1 1-.449-.449.449.449 0 0 1 .449.449" transform="translate(-8.26 -52.321)" style="stroke:#fff"/>
        <path data-name="路径 14004" d="M51.322 15.01H15.1a2.1 2.1 0 0 0-2.1 2.1v17.622a2.1 2.1 0 0 0 2.1 2.1h2.02a5.049 5.049 0 0 0 .889.08v6.732a8.416 8.416 0 0 0 6.732 8.247v1.852a1.683 1.683 0 0 0 3.366 0v-3.37a1.684 1.684 0 0 0-1.684-1.683 5.049 5.049 0 0 1-5.049-5.049v-6.732h12.034a9.609 9.609 0 0 0-1.683 5.84 1.683 1.683 0 1 0 3.367 0c-.068-5.84 4.8-5.84 4.8-5.84a1.684 1.684 0 0 0 1.684-1.683 2.229 2.229 0 0 0 0-.319 1.805 1.805 0 0 0 0-.319v-5.673a1.935 1.935 0 0 1 1.683-2.1 1.936 1.936 0 0 1 1.684 2.1v14.726a5.049 5.049 0 0 1-5.05 5.049 1.683 1.683 0 0 0-1.682 1.683v3.367a1.683 1.683 0 0 0 3.366 0v-1.852a8.415 8.415 0 0 0 6.723-8.247v-6.732a5.02 5.02 0 0 0 .882-.079h2.136a2.1 2.1 0 0 0 2.1-2.1V17.109a2.1 2.1 0 0 0-2.1-2.1m-33.1 15.543h5.528a.455.455 0 1 1 0 .911h-5.521a.455.455 0 1 1 0-.911m-.456-1.852a.456.456 0 0 1 .456-.456h5.528a.456.456 0 1 1 0 .911h-5.528a.456.456 0 0 1-.456-.456M16.7 20.06a.519.519 0 0 1 .519-.519h32.344a.519.519 0 0 1 .519.519V22a.519.519 0 0 1-.519.519H17.215A.519.519 0 0 1 16.7 22z" transform="translate(-7.159 -8.266)" style="fill:#fb6943"/>
        <path data-name="路径 14005" d="M2.644 23.025A1.644 1.644 0 0 1 1 21.382V2.644A1.644 1.644 0 0 1 2.644 1h47.933a1.644 1.644 0 0 1 1.644 1.644v18.738a1.644 1.644 0 0 1-1.644 1.644" transform="translate(-.551 -.551)" style="stroke-miterlimit:10;stroke-width:.5px;stroke:#fff;fill:none"/>
        <path data-name="路径 14006" d="M54.256 104.863a21.344 21.344 0 0 1-33.2 0" transform="translate(-11.594 -57.747)" style="stroke-miterlimit:10;stroke-width:.5px;stroke:#fff;fill:none"/>
    </g>
</svg>
