<svg xmlns="http://www.w3.org/2000/svg" width="470" height="260" viewBox="0 0 470 260">
    <defs>
        <clipPath id="gksheamfka">
            <path data-name="矩形 8629" transform="translate(1047 444)" style="stroke:#707070;fill:#fff" d="M0 0h470v260H0z"/>
        </clipPath>
    </defs>
    <g data-name="蒙版组 2346" transform="translate(-1047 -444)" style="clip-path:url(#gksheamfka)">
        <g data-name="Contact us-pana">
            <path data-name="矩形 10022" transform="translate(1146.721 480.422)" style="fill:#fafafa" d="M0 0h109.626v98.076H0z"/>
            <path data-name="路径 16627" d="M150.632 186.694v-7.073c0-4.6-.038-11.336-.063-19.906-.032-17.14-.076-41.624-.126-71.1l.246.246-109.67.044.291-.291v98.076l-.259-.253 79.288.126 22.369.069h5.974l-5.867.032-22.305.069-79.458.126h-.259v-.259c0-28.816 0-62.395-.032-98.076v-.284h.3l109.613.044h.253v.246c-.051 29.536-.095 54.077-.126 71.248 0 8.551-.051 15.264-.063 19.855v5.21a12.735 12.735 0 0 1-.106 1.851z" transform="translate(1105.715 391.803)" style="fill:#e0e0e0"/>
            <path data-name="路径 16628" d="M92.672 116.272c0 .164-5.772.3-12.883.3s-12.889-.133-12.889-.3S72.647 116 79.789 116s12.883.114 12.883.272z" transform="translate(1096.083 381.574)" style="fill:#e0e0e0"/>
            <path data-name="路径 16629" d="M139.965 127.927c0 .158-15.851.29-35.365.29s-35.41-.133-35.41-.29 15.851-.3 35.41-.3 35.365.136 35.365.3z" transform="translate(1095.239 377.288)" style="fill:#e0e0e0"/>
            <path data-name="矩形 10023" transform="translate(1163.172 517.688)" style="fill:#e0e0e0" d="M0 0h4.616v4.616H0z"/>
            <path data-name="矩形 10024" transform="translate(1174.54 517.688)" style="fill:#e0e0e0" d="M0 0h4.616v4.616H0z"/>
            <path data-name="矩形 10025" transform="translate(1186.116 517.479)" style="fill:#e0e0e0" d="M0 0h4.616v4.616H0z"/>
            <path data-name="矩形 10026" transform="translate(1197.275 517.688)" style="fill:#e0e0e0" d="M0 0h4.616v4.616H0z"/>
            <path data-name="矩形 10027" transform="translate(1208.648 517.688)" style="fill:#e0e0e0" d="M0 0h4.616v4.616H0z"/>
            <path data-name="矩形 10028" transform="translate(1220.016 517.688)" style="fill:#e0e0e0" d="M0 0h4.616v4.616H0z"/>
            <path data-name="矩形 10029" transform="translate(1231.383 517.688)" style="fill:#ebebeb" d="M0 0h4.616v4.616H0z"/>
            <path data-name="矩形 10030" transform="translate(1163.172 527.508)" style="fill:#ebebeb" d="M0 0h4.616v4.616H0z"/>
            <path data-name="矩形 10031" transform="translate(1174.54 527.508)" style="fill:#e0e0e0" d="M0 0h4.616v4.616H0z"/>
            <path data-name="矩形 10032" transform="translate(1185.907 527.508)" style="fill:#ebebeb" d="M0 0h4.616v4.616H0z"/>
            <path data-name="矩形 10033" transform="translate(1197.275 527.508)" style="fill:#e0e0e0" d="M0 0h4.616v4.616H0z"/>
            <path data-name="矩形 10034" transform="translate(1208.648 527.508)" style="fill:#e0e0e0" d="M0 0h4.616v4.616H0z"/>
            <path data-name="矩形 10035" transform="translate(1220.224 527.293)" style="fill:#e0e0e0" d="M0 0h4.616v4.616H0z"/>
            <path data-name="矩形 10036" transform="translate(1231.383 527.508)" style="fill:#e0e0e0" d="M0 0h4.616v4.616H0z"/>
            <path data-name="矩形 10037" transform="translate(1163.172 537.322)" style="fill:#e0e0e0" d="M0 0h4.616v4.616H0z"/>
            <path data-name="矩形 10038" transform="translate(1174.748 537.113)" style="fill:#e0e0e0" d="M0 0h4.616v4.616H0z"/>
            <path data-name="矩形 10039" transform="translate(1185.907 537.322)" style="fill:#e0e0e0" d="M0 0h4.616v4.616H0z"/>
            <path data-name="矩形 10040" transform="translate(1197.275 537.322)" style="fill:#ebebeb" d="M0 0h4.616v4.616H0z"/>
            <path data-name="矩形 10041" transform="translate(1208.648 537.322)" style="fill:#e0e0e0" d="M0 0h4.616v4.616H0z"/>
            <path data-name="矩形 10042" transform="translate(1220.016 537.322)" style="fill:#e0e0e0" d="M0 0h4.616v4.616H0z"/>
            <path data-name="矩形 10043" transform="translate(1231.383 537.322)" style="fill:#e0e0e0" d="M0 0h4.616v4.616H0z"/>
            <path data-name="矩形 10044" transform="translate(1163.172 547.142)" style="fill:#e0e0e0" d="M0 0h4.616v4.616H0z"/>
            <path data-name="矩形 10045" transform="translate(1174.54 547.142)" style="fill:#e0e0e0" d="M0 0h4.616v4.616H0z"/>
            <path data-name="矩形 10046" transform="translate(1185.907 547.142)" style="fill:#e0e0e0" d="M0 0h4.616v4.616H0z"/>
            <path data-name="矩形 10047" transform="translate(1197.489 546.934)" style="fill:#e0e0e0" d="M0 0h4.616v4.616H0z"/>
            <path data-name="矩形 10048" transform="translate(1208.648 547.142)" style="fill:#e0e0e0" d="M0 0h4.616v4.616H0z"/>
            <path data-name="矩形 10049" transform="translate(1220.016 547.142)" style="fill:#ebebeb" d="M0 0h4.616v4.616H0z"/>
            <path data-name="矩形 10050" transform="translate(1231.383 547.142)" style="fill:#e0e0e0" d="M0 0h4.616v4.616H0z"/>
            <path data-name="矩形 10051" transform="translate(1163.172 556.962)" style="fill:#e0e0e0" d="M0 0h4.616v4.616H0z"/>
            <path data-name="矩形 10052" transform="translate(1174.54 556.962)" style="fill:#ebebeb" d="M0 0h4.616v4.616H0z"/>
            <path data-name="矩形 10053" transform="translate(1185.907 556.962)" style="fill:#e0e0e0" d="M0 0h4.616v4.616H0z"/>
            <path data-name="矩形 10054" transform="translate(1197.275 556.962)" style="fill:#e0e0e0" d="M0 0h4.616v4.616H0z"/>
            <path data-name="矩形 10055" transform="translate(1208.648 556.962)" style="fill:#e0e0e0" d="M0 0h4.616v4.616H0z"/>
            <path data-name="矩形 10056" transform="translate(1220.224 556.754)" style="fill:#e0e0e0" d="M0 0h4.616v4.616H0z"/>
            <path data-name="矩形 10057" transform="translate(1231.383 556.962)" style="fill:#e0e0e0" d="M0 0h4.616v4.616H0z"/>
            <path data-name="矩形 10058" transform="translate(1373.095 457.11)" style="fill:#e0e0e0" d="M0 0h7.048v35.056H0z"/>
            <path data-name="矩形 10059" transform="translate(1312.06 457.264)" style="fill:#ebebeb" d="M0 0h18.245v19.35H0z"/>
            <path data-name="矩形 10060" transform="translate(1330.222 457.159)" style="fill:#f5f5f5" d="M0 0h18.245v19.35H0z"/>
            <path data-name="路径 16630" d="M302.923 60.311q18.188.152 36.4-.171a.2.2 0 0 0 0-.385c-12.119-.069-24.276 0-36.395.221a.171.171 0 0 0 0 .335z" transform="translate(1009.162 402.308)" style="fill:#e0e0e0"/>
            <path data-name="矩形 10061" transform="translate(1300.694 476.372)" style="fill:#ebebeb" d="M0 0h33.149v15.769H0z"/>
            <path data-name="矩形 10062" transform="translate(1333.684 476.193)" style="fill:#f5f5f5" d="M0 0h33.149v15.769H0z"/>
            <path data-name="路径 16631" d="M284.92 88.939c22.021.253 44.118 0 66.133-.328a.2.2 0 0 0 0-.385c-22.021-.114-44.118-.1-66.133.379a.171.171 0 0 0 0 .335z" transform="translate(1015.799 391.83)" style="fill:#e0e0e0"/>
            <path data-name="矩形 10063" transform="translate(1288.315 492.155)" style="fill:#e0e0e0" d="M0 0h128.42v5.652H0z"/>
            <path data-name="矩形 10064" transform="translate(1309.338 494.871)" style="fill:#e0e0e0" d="M0 0h5.21v19.28H0z"/>
            <path data-name="矩形 10065" transform="translate(1387.161 494.871)" style="fill:#e0e0e0" d="M0 0h5.216v19.28H0z"/>
            <path data-name="矩形 10066" transform="translate(1379.971 444.038)" style="fill:#ebebeb" d="M0 0h7.048v48.21H0z"/>
            <path data-name="矩形 10067" transform="rotate(-.573 45870.703 -138484.122)" style="fill:#f5f5f5" d="M0 0h10.944v39.072H0z"/>
            <path data-name="路径 16632" d="M432.614 57.209a79.121 79.121 0 0 1-10.944 0 79.123 79.123 0 0 1 10.944 0z" transform="translate(965.359 403.306)" style="fill:#e0e0e0"/>
            <path data-name="路径 16633" d="M432.614 54.609a79.121 79.121 0 0 1-10.944 0 79.124 79.124 0 0 1 10.944 0z" transform="translate(965.359 404.265)" style="fill:#e0e0e0"/>
            <path data-name="路径 16634" d="M432.614 97.889a79.122 79.122 0 0 1-10.944 0 39.152 39.152 0 0 1 5.469-.189 35.109 35.109 0 0 1 5.475.189z" transform="translate(965.359 388.317)" style="fill:#e0e0e0"/>
            <path data-name="路径 16635" d="M432.614 95.249a79.122 79.122 0 0 1-10.944 0 79.124 79.124 0 0 1 10.944 0z" transform="translate(965.359 389.29)" style="fill:#e0e0e0"/>
            <path data-name="路径 16636" d="M430.459 79.417c-.1 0-.189-3.941-.189-8.8s.088-8.8.189-8.8.189 3.941.189 8.8-.081 8.8-.189 8.8z" transform="translate(962.19 401.542)" style="fill:#e0e0e0"/>
            <path data-name="矩形 10068" transform="translate(1398.068 462.581)" style="fill:#ebebeb" d="M0 0h11.917v29.492H0z"/>
            <path data-name="路径 16637" d="M416.744 43.037a2.027 2.027 0 1 1-2.021-2.027 2.027 2.027 0 0 1 2.021 2.027z" transform="translate(968.667 409.206)" style="fill:#e0e0e0"/>
            <path data-name="矩形 10069" transform="translate(1382.759 457.813)" style="fill:#e0e0e0" d="M0 0h1.25v28.684H0z"/>
            <g>
                <path data-name="路径 16638" d="M71.94 341.881a17.528 17.528 0 0 1 10.869-1.32 9.04 9.04 0 0 1 5.368 2.4c1.345 1.484 1.591 4.086.051 5.355a5.13 5.13 0 0 1-3.379.859c-2.873-.032-6.063-.537-8.355 1.187-1.314.992-2.185 2.627-3.745 3.113a3.668 3.668 0 0 1-4.073-1.812 6.315 6.315 0 0 1-.461-4.663 7.124 7.124 0 0 1 3.726-5.115z" transform="translate(1095.691 298.941)" style="fill:#ff725e"/>
                <path data-name="路径 16639" d="M61.157 302.225c2.021 2.886 5.949 1.926 7.774.171s2.589-4.32 3.29-6.751c1.6-5.564 3.214-11.367 2.021-17.051a9.429 9.429 0 0 0-2.179-4.635 4.951 4.951 0 0 0-4.692-1.566c-1.983.524-3.208 2.463-4.1 4.313a40.626 40.626 0 0 0-4.021 17.454c0 2.81.322 5.759 1.895 8.083" transform="translate(1098.902 323.984)" style="fill:#ff725e"/>
                <path data-name="路径 16640" d="M39.9 311.772a10.5 10.5 0 0 0 1.636-9.669 18.465 18.465 0 0 0-5.722-8.3 30.825 30.825 0 0 0-10.25-6.044 10.863 10.863 0 0 0-4.61-.783 4.838 4.838 0 0 0-3.871 2.337c-1.08 2.059-.044 4.553 1.074 6.593a78.1 78.1 0 0 0 6.732 10.25c2.021 2.6 4.332 5.166 7.408 6.315s6.271 1.042 7.932-1.067" transform="translate(1114.607 318.579)" style="fill:#ff725e"/>
                <path data-name="路径 16641" d="M62.03 373.158a6.543 6.543 0 0 0 .183-1.307c.088-.96.208-2.154.347-3.581a51.262 51.262 0 0 1 .8-5.254 41.114 41.114 0 0 1 1.895-6.2 22.944 22.944 0 0 1 3.158-5.608 11.765 11.765 0 0 1 4-3.322 11.158 11.158 0 0 1 3.385-1.023 6.406 6.406 0 0 0 1.307-.189 5.966 5.966 0 0 0-1.326 0 10.3 10.3 0 0 0-3.518.909 11.835 11.835 0 0 0-4.219 3.353 22.457 22.457 0 0 0-3.278 5.722 37.893 37.893 0 0 0-1.895 6.315 44.711 44.711 0 0 0-.7 5.317 75.955 75.955 0 0 0-.177 3.606 5.829 5.829 0 0 0 .038 1.262z" transform="translate(1097.897 296.588)" style="fill:#263238"/>
                <path data-name="路径 16642" d="M62.273 349.718a2.811 2.811 0 0 0 0-.632v-1.743c0-1.509 0-3.694.076-6.391.133-5.4.632-11.21 1.5-19.4.846-7.7 1.989-16.666 3.2-22.489.253-1.326.518-2.526.758-3.562s.436-1.951.632-2.684.3-1.263.41-1.686a2.526 2.526 0 0 0 .107-.632 2.262 2.262 0 0 0-.215.568l-.505 1.667c-.205.676-.455 1.617-.714 2.665s-.562 2.229-.846 3.549a199.4 199.4 0 0 0-3.36 20.84c-.9 8.21-1.3 15.681-1.339 21.087 0 2.709 0 4.9.095 6.41.044.707.082 1.263.107 1.737a2.589 2.589 0 0 0 .094.696z" transform="translate(1097.9 317.275)" style="fill:#263238"/>
                <path data-name="路径 16643" d="M51.26 337.912a11.463 11.463 0 0 0 0-1.819 49.5 49.5 0 0 0-.556-4.926 64.57 64.57 0 0 0-1.6-7.174 58.654 58.654 0 0 0-3.019-8.469 45.242 45.242 0 0 0-8.839-13.724 23.163 23.163 0 0 0-2.071-1.926c-.322-.265-.6-.537-.89-.745l-.8-.556a11.368 11.368 0 0 0-1.484-1 54.273 54.273 0 0 1 5.014 4.471 47.723 47.723 0 0 1 8.585 13.67 67.637 67.637 0 0 1 3.019 8.412 72.54 72.54 0 0 1 1.7 7.1c.392 2.052.594 3.72.726 4.882a12.9 12.9 0 0 0 .221 1.8z" transform="translate(1108.945 314.67)" style="fill:#263238"/>
                <path data-name="路径 16644" d="m40.45 401.71 1.44 19.79h25.419l1.446-19.786z" transform="translate(1105.83 276.296)" style="fill:#263238"/>
                <path data-name="矩形 10070" transform="translate(1143.823 670.207)" style="fill:#263238" d="M0 0h33.793v7.799H0z"/>
                <path data-name="路径 16645" d="M36.56 431.84V434H69.8v-2.16z" transform="translate(1107.263 265.194)" style="fill:#455a64"/>
                <path data-name="路径 16646" d="m40.63 439.068-1.56-3.808h30.439l-1.819 3.808z" transform="translate(1106.338 263.934)" style="fill:#455a64"/>
                <path data-name="路径 16647" d="M68.532 410.386a.772.772 0 0 1-.12.177c-.1.139-.221.3-.379.505l-1.478 1.895-.069.088-.063-.088-3.638-5.052h.208l-3.581 5.052-.114.158-.126-.145-4.244-5.052h.246a5.669 5.669 0 0 0-.234.29l-3.789 4.762-.126.158-.114-.164-3.587-5.052h.208c-1.762 2.015-3.265 3.72-4.421 5.052l-.076.088-.057-.1c-.587-.973-1.048-1.756-1.383-2.318-.145-.253-.265-.455-.354-.632a.89.89 0 0 1-.114-.221 2.466 2.466 0 0 1 .152.2l.392.594 1.453 2.28h-.139l4.339-5.09.114-.126.095.139 3.619 5.052H50.9l3.789-4.768.234-.29.126-.152.12.145c1.49 1.775 2.918 3.486 4.238 5.052h-.24l3.619-5.052.107-.145.1.145 3.562 5.09h-.126l1.541-1.838.41-.48q.145-.201.152-.157z" transform="translate(1105.579 274.119)" style="fill:#e0e0e0"/>
                <path data-name="路径 16648" d="M69.23 401.408c0 .088-6.372.158-14.222.158s-14.228-.069-14.228-.158 6.366-.158 14.228-.158 14.222.069 14.222.158z" transform="translate(1105.708 276.466)" style="fill:#455a64"/>
                <path data-name="路径 16649" d="M69.819 435.508c0 .088-6.947.158-15.46.158s-15.46-.069-15.46-.158 6.947-.158 15.46-.158 15.46.069 15.46.158z" transform="translate(1106.401 263.901)" style="fill:#263238"/>
            </g>
            <g>
                <path data-name="路径 16650" d="M357.536 309.11H416.6a9.555 9.555 0 0 1 9.555 9.555v74.28H348v-74.28a9.555 9.555 0 0 1 9.536-9.555z" transform="translate(992.504 310.418)" style="fill:#455a64"/>
                <path data-name="路径 16651" d="M461.244 309.79c.095 0 .164 18.661.164 41.681s-.069 41.681-.164 41.681-.164-18.661-.164-41.681.076-41.681.164-41.681z" transform="translate(950.837 310.167)" style="fill:#263238"/>
            </g>
            <g transform="translate(1245.961 513.731)">
                <path data-name="路径 16652" d="M387.262 162.2a66.348 66.348 0 0 1 11.885 34.949c.366 8.4-.764 17.348 3.221 24.749 5.722 10.622 18.093 10.262 21.882 21.712 1.648 4.983-1.389 15.94-2.21 21.124-.928 5.886 2.671 10.831 1.743 16.723-.853 5.4-4.894 9.252-9.744 11.765a14.1 14.1 0 0 1-12.8.436c-8.563-3.543-15.687-7.281-21.781-14.253-8.563-9.789-11.153-23.366-12.63-36.268a318.205 318.205 0 0 1 1.939-85.729" transform="translate(-259.652 -147.416)" style="fill:#263238"/>
                <path data-name="路径 16653" d="M420.179 320.06a2.275 2.275 0 0 1 .272-.069c.183-.044.461-.088.815-.2a13.893 13.893 0 0 0 6.858-4.313 8.089 8.089 0 0 0 1.528-2.709 14.865 14.865 0 0 0 .537-3.467 34.16 34.16 0 0 0-.821-8.046 72.722 72.722 0 0 1-1.478-9.239 19.135 19.135 0 0 1 .36-5.052 32.391 32.391 0 0 1 1.6-5.052 54.153 54.153 0 0 0 1.806-5.134 13.1 13.1 0 0 0 .442-5.494 12.423 12.423 0 0 0-2.052-5.1 23.417 23.417 0 0 0-3.581-4.054c-2.608-2.438-5.431-4.421-7.844-6.707a44.428 44.428 0 0 1-10.218-14.108 43.24 43.24 0 0 1-2.345-6.316c-.3-.941-.48-1.85-.695-2.671s-.309-1.591-.448-2.273c-.2-1.383-.347-2.45-.385-3.158 0-.354-.051-.632-.063-.834a1.525 1.525 0 0 1 0-.284 1.413 1.413 0 0 0 .044.284c.044.189.057.474.1.827.057.726.227 1.794.442 3.158.145.682.3 1.44.474 2.267a22.787 22.787 0 0 0 .72 2.652 44.039 44.039 0 0 0 2.381 6.252 44.637 44.637 0 0 0 10.212 13.98c2.4 2.236 5.229 4.238 7.862 6.688a23.9 23.9 0 0 1 3.632 4.112 12.732 12.732 0 0 1 2.1 5.242 13.389 13.389 0 0 1-.448 5.627c-.493 1.794-1.181 3.492-1.819 5.16a32.918 32.918 0 0 0-1.6 4.989 18.8 18.8 0 0 0-.36 4.983 67.615 67.615 0 0 0 1.446 9.2 34.4 34.4 0 0 1 .783 8.109 15.507 15.507 0 0 1-.568 3.524 8.544 8.544 0 0 1-1.585 2.76 13.085 13.085 0 0 1-3.991 3.126 12.781 12.781 0 0 1-3 1.137 7.385 7.385 0 0 1-1.113.203z" transform="translate(-274.261 -172.609)" style="fill:#455a64"/>
                <path data-name="路径 16654" d="m243.16 361.774 30.313-14.392s11.8-57.311 14.039-61.611 11.557-8.02 11.557-8.02l-1.56 77.6-2.779 17.916-42.742 4.048z" transform="translate(-214.826 -191.758)" style="fill:#ff725e"/>
                <path data-name="路径 16655" d="M201.869 432.3c-.171 0-1.01.518-.309 1.85s5.842 5.734 7.351 4.2-.8-3.4-.8-3.4z" transform="translate(-199.395 -248.706)" style="fill:#ffbe9d"/>
                <path data-name="路径 16656" d="M207.227 426.392s6.2.783 8.582 1.692a9.03 9.03 0 0 0 7.875-1.124 22.413 22.413 0 0 0 3.36-2.741l7.907-.126a9.473 9.473 0 0 0 1.541-9.795 10.627 10.627 0 0 0-1.806-3.088 8.374 8.374 0 0 0-4.989-2.28l-9.391 2.027s-14.525-1.042-17.14.183c0 0-3.252 1.926-4.256 2.734-.379.309-1.535 4.01.834 5.936 0 0-2.059 1.636-.941 3.107l.53.632s-1.383 1.794-.669 2.577 6.947 4.421 9.163 3.562.385-2.937-.6-3.315" transform="translate(-198.293 -240.095)" style="fill:#ffbe9d"/>
                <path data-name="路径 16657" d="M202.131 421.09a6.843 6.843 0 0 1 .77.278c.486.183 1.2.448 2.1.733.442.145.935.291 1.471.429s1.111.259 1.711.455a3.656 3.656 0 0 1 1.705 1.029 2.09 2.09 0 0 1 .455 2.078 1.629 1.629 0 0 1-.764.827 2.968 2.968 0 0 1-1.036.29 8.757 8.757 0 0 1-1.977-.107 17.675 17.675 0 0 1-3.208-.834c-.89-.316-1.591-.631-2.078-.821a4.131 4.131 0 0 1-.739-.354 6.658 6.658 0 0 1 .777.259c.493.177 1.206.448 2.1.739a18.942 18.942 0 0 0 3.158.777 8.732 8.732 0 0 0 1.895.088 2.648 2.648 0 0 0 .941-.265 1.364 1.364 0 0 0 .632-.695 1.85 1.85 0 0 0-.366-1.806 3.455 3.455 0 0 0-1.585-.966c-.581-.2-1.162-.322-1.692-.474s-1.029-.31-1.471-.461c-.9-.309-1.6-.632-2.078-.815a4.316 4.316 0 0 1-.721-.384z" transform="translate(-199.121 -244.576)" style="fill:#eb996e"/>
                <path data-name="路径 16658" d="M203.133 414a5.324 5.324 0 0 1 .764.278c.493.189 1.2.461 2.084.752s1.951.632 3.158.9a4.357 4.357 0 0 1 1.838.745 1.534 1.534 0 0 1 .537.954 1.964 1.964 0 0 1-.158 1.105 2.646 2.646 0 0 1-1.623 1.377 4.262 4.262 0 0 1-1.977.158 19 19 0 0 1-3.158-.922l-2.09-.733a5.835 5.835 0 0 1-.758-.3 4.821 4.821 0 0 1 .789.2l2.116.632a21.471 21.471 0 0 0 3.158.859 4.1 4.1 0 0 0 1.863-.164 2.419 2.419 0 0 0 1.471-1.263 1.471 1.471 0 0 0-.309-1.762 4.2 4.2 0 0 0-1.73-.7 30.679 30.679 0 0 1-3.158-.96c-.884-.328-1.579-.632-2.059-.834a5.093 5.093 0 0 1-.758-.322z" transform="translate(-199.567 -241.963)" style="fill:#eb996e"/>
                <path data-name="路径 16659" d="M208.324 414.526a7.859 7.859 0 0 1-.284-1.263 6.943 6.943 0 0 1-.31-1.263 2.229 2.229 0 0 1 .562 1.181 2.1 2.1 0 0 1 .032 1.345z" transform="translate(-201.771 -241.226)" style="fill:#eb996e"/>
                <path data-name="路径 16660" d="m230.429 411.138-5.526-2.1s-15.34-7.161-15.6-6.77-1.093.341-.909 2.21 9.119 5.646 9.4 6.315-.189 3.928 3.113 6.271 5.684 2.4 5.684 2.4" transform="translate(-202.006 -237.636)" style="fill:#ffbe9d"/>
                <path data-name="路径 16661" d="M226.521 419.311h-.145l-.379-.038a9.181 9.181 0 0 1-1.434-.347 14.027 14.027 0 0 1-4.686-2.7 6.606 6.606 0 0 1-1.894-3.226 14.665 14.665 0 0 1-.328-2.065 1.149 1.149 0 0 0-.057-.234.455.455 0 0 0-.145-.151 5 5 0 0 0-.448-.291c-.309-.183-.632-.36-.973-.537-1.326-.714-2.747-1.427-4.174-2.248a24.9 24.9 0 0 1-2.128-1.345 7.759 7.759 0 0 1-1-.834 2.525 2.525 0 0 1-.423-.53 1.036 1.036 0 0 1-.126-.347 1.559 1.559 0 0 1 0-.341 2.418 2.418 0 0 1 .234-1.333 1.623 1.623 0 0 1 .486-.486 1.08 1.08 0 0 0 .215-.183l.051-.057a.158.158 0 0 1 .107-.032.478.478 0 0 1 .107 0l.171.044c.827.253 1.591.587 2.356.9q2.273.947 4.339 1.895c2.76 1.263 5.223 2.387 7.294 3.36.518.234 1 .48 1.471.682l1.351.53 2.166.859 1.364.549.347.152a.131.131 0 0 1 .12.057c0 .006-.044 0-.126-.038l-.36-.12-1.383-.512-2.185-.777-1.364-.512c-.48-.2-.966-.436-1.484-.669l-7.313-3.3q-2.075-.947-4.345-1.895c-.758-.309-1.528-.632-2.324-.89l-.139-.032h-.051v-.063c.177.114.044.038.082.063a1.156 1.156 0 0 1-.265.24 1.294 1.294 0 0 0-.417.41 2.2 2.2 0 0 0-.2 1.194 1.181 1.181 0 0 0 .133.568 2.433 2.433 0 0 0 .379.48 7.4 7.4 0 0 0 .966.8c.682.493 1.4.922 2.1 1.333 1.421.821 2.829 1.541 4.162 2.255.335.183.632.36.979.556a5.465 5.465 0 0 1 .474.3.632.632 0 0 1 .215.246 1.263 1.263 0 0 1 .063.284 16.376 16.376 0 0 0 .309 2.046 6.492 6.492 0 0 0 1.806 3.158 14.361 14.361 0 0 0 4.591 2.734 10.14 10.14 0 0 0 1.408.385c.164.038.291.051.379.063z" transform="translate(-201.932 -237.536)" style="fill:#eb996e"/>
                <path data-name="路径 16662" d="M206.755 430.56a1.9 1.9 0 0 1 .587.171 5.942 5.942 0 0 1 1.446.834 5.3 5.3 0 0 1 .834.815 1.724 1.724 0 0 1 .448 1.263 1.427 1.427 0 0 1-1.023 1.105 2.728 2.728 0 0 1-1.6-.051 29.4 29.4 0 0 1-5.09-2.04 15.254 15.254 0 0 1-1.427-.846 2.439 2.439 0 0 1-.486-.366 2.983 2.983 0 0 1 .537.278c.341.2.834.467 1.459.77a35.656 35.656 0 0 0 5.052 1.958 2.526 2.526 0 0 0 1.465.057 1.2 1.2 0 0 0 .865-.9 1.547 1.547 0 0 0-.379-1.124 5.259 5.259 0 0 0-.783-.8 8.771 8.771 0 0 0-1.905-1.124z" transform="translate(-199.084 -248.065)" style="fill:#eb996e"/>
                <g data-name="组 8662" style="opacity:.3">
                    <path data-name="路径 16663" d="M79.69 181.51c-4.964-16.742-9.34-38.3-14.3-55.044-1.819 15.453.455 35.858 3.3 51.153.335 1.794.486 3.549 1.895 4.73l9.113-.84"/>
                </g>
                <path data-name="路径 16664" d="M304.03 402.638c-.069 0-.278-1.093-.954-2.766a19.635 19.635 0 0 0-1.421-2.817 21.362 21.362 0 0 0-2.337-3.069 20.8 20.8 0 0 0-2.892-2.558 18.82 18.82 0 0 0-2.7-1.629c-1.617-.8-2.7-1.086-2.684-1.149a3.4 3.4 0 0 1 .77.183 6.414 6.414 0 0 1 .878.29 11.511 11.511 0 0 1 1.137.467 17.686 17.686 0 0 1 2.779 1.591 20.2 20.2 0 0 1 2.962 2.577 20.43 20.43 0 0 1 2.349 3.158 18.059 18.059 0 0 1 1.383 2.884c.17.423.272.821.379 1.168a6.5 6.5 0 0 1 .227.9 4.034 4.034 0 0 1 .124.77z" transform="translate(-232.468 -232.622)" style="fill:#263238"/>
                <path data-name="路径 16665" d="M317.33 267.924s-15.87 35.46-15.87 41.99 11.892 51.741 11.892 51.741c-.114 1.8-.575 10.812-.575 10.812l66.683.234 1.017-14.336-5.2-13.66 5.2-38.618s3.5-22.419 3.789-28.69c.392-7.844-26.183-16.937-25.457-18.024l-4.585-6.164-26.284 21.34-5.2-15-6.227 5.879z" transform="translate(-236.308 -182.716)" style="fill:#ff725e"/>
                <path data-name="路径 16666" d="M369.787 287.251c-7.218 12.207-20.423 34.45-20.423 34.45l-23.669 26.991s-1.547 13.71 1.547 17.916a29.245 29.245 0 0 0 8.406 7.079s6.246 0 14.184-6.637 29.833-34.064 29.833-34.064l7.521-9.075s8.968-22.028 7.294-33.237c-.632-4.326-2.488-6.119-4.939-8.1-6.17-4.974-15.718-2.15-19.754 4.677z" transform="translate(-245.095 -192.607)" style="fill:#ff725e"/>
                <path data-name="路径 16667" d="M389 337.4a1.957 1.957 0 0 1-.114.253c-.082.177-.2.41-.347.72-.316.632-.8 1.547-1.453 2.709-1.307 2.33-3.341 5.621-5.993 9.593a267.982 267.982 0 0 1-4.452 6.423 75.826 75.826 0 0 0-5.021 7.4c-1.528 2.753-2.918 5.759-4.591 8.766a55.372 55.372 0 0 1-6.018 8.784 35.2 35.2 0 0 1-7.97 7.048 25.1 25.1 0 0 1-9.233 3.574 20.7 20.7 0 0 1-8.942-.379 16.945 16.945 0 0 1-3.789-1.535 17.3 17.3 0 0 1-3.12-2.109 14.151 14.151 0 0 1-2.349-2.482 13.957 13.957 0 0 1-1.554-2.627 16.623 16.623 0 0 1-1.263-4.7 21.718 21.718 0 0 1-.107-3.076c0-.341.038-.632.051-.8a1.884 1.884 0 0 1 0-.272 1.808 1.808 0 0 1 0 .272v.8a23.367 23.367 0 0 0 .164 3.057 16.787 16.787 0 0 0 1.314 4.642 14.115 14.115 0 0 0 1.554 2.577 13.834 13.834 0 0 0 2.337 2.431 17.09 17.09 0 0 0 3.088 2.065 16.89 16.89 0 0 0 3.732 1.5 20.557 20.557 0 0 0 8.841.341 24.845 24.845 0 0 0 9.107-3.549 35.017 35.017 0 0 0 7.9-6.991 54.8 54.8 0 0 0 5.981-8.728c1.674-2.987 3.025-6.018 4.61-8.759a82.166 82.166 0 0 1 5.052-7.408 223.394 223.394 0 0 0 4.477-6.391c2.678-3.947 4.736-7.218 6.075-9.523a69.94 69.94 0 0 0 1.5-2.678l.385-.707a1.216 1.216 0 0 1 .148-.241z" transform="translate(-244.122 -213.738)" style="fill:#263238"/>
                <path data-name="路径 16668" d="M322.767 386.83c0 .044-.335.253-.77.739a3.789 3.789 0 0 0-.429 4.648 8.916 8.916 0 0 0 .632.865c0 .038-.4-.177-.815-.733a3.726 3.726 0 0 1 .461-4.945 1.894 1.894 0 0 1 .921-.574z" transform="translate(-243.381 -231.952)" style="fill:#263238"/>
                <path data-name="路径 16669" d="M330.93 384.931a1.892 1.892 0 0 1 .373.088l.442.12.632.114a8.8 8.8 0 0 0 3.9-.366 14.292 14.292 0 0 0 5.052-2.956 38.046 38.046 0 0 0 4.7-5.463 33.02 33.02 0 0 1 4.856-5.425c.859-.72 1.7-1.358 2.4-2.046a6.726 6.726 0 0 0 1.579-2.179 3.972 3.972 0 0 0-.36-3.726 2.93 2.93 0 0 0-1.143-.853 1.937 1.937 0 0 1 .366.107 2.419 2.419 0 0 1 .878.669 4.08 4.08 0 0 1 .48 3.89 7.02 7.02 0 0 1-1.6 2.286c-.714.707-1.56 1.364-2.4 2.084a33.722 33.722 0 0 0-4.787 5.393 37.3 37.3 0 0 1-4.774 5.494 14.291 14.291 0 0 1-5.153 2.943 8.582 8.582 0 0 1-4 .272l-.632-.145c-.177-.051-.322-.114-.436-.152a1.715 1.715 0 0 1-.379-.152z" transform="translate(-247.167 -222.891)" style="fill:#263238"/>
                <path data-name="路径 16670" d="M387.484 285.51a3.426 3.426 0 0 1-.265.379c-.208.265-.474.632-.808 1.055-.72.9-1.711 2.236-2.924 3.9a127.743 127.743 0 0 0-8.418 13.685c-2.981 5.532-5.444 10.666-7.332 14.329-.935 1.838-1.705 3.315-2.267 4.326l-.613 1.156a2.317 2.317 0 0 1-.246.392 2.452 2.452 0 0 1 .183-.423l.594-1.194 2.166-4.364c1.831-3.694 4.269-8.841 7.25-14.386a114.938 114.938 0 0 1 8.526-13.666c1.263-1.648 2.255-2.974 3.006-3.846l.859-1.017a2.006 2.006 0 0 1 .29-.328z" transform="translate(-259.577 -194.618)" style="fill:#263238"/>
                <g data-name="组 8663" style="opacity:.3">
                    <path data-name="路径 16671" d="M78.629 160.947c3.076 1.667 6.461 1.49 9.9.821a15.358 15.358 0 0 0 8.841-5.292 15.34 15.34 0 0 1-4.086 8.071 9.765 9.765 0 0 1-8.361 2.829c-3.006-.549-6.05-3.379-6.315-6.429"/>
                </g>
                <g data-name="组 8664" style="opacity:.3">
                    <path data-name="路径 16672" d="M107.741 142.721a13.571 13.571 0 0 1 1.895 10.18c2.608-3.991 3.221-9.043 2.526-13.761a45.133 45.133 0 0 0-4.755-13.432 44.776 44.776 0 0 0-2.375 4.421c-.114 2.3.733 6.618 1.175 8.873a4.932 4.932 0 0 1 1.434 4.458"/>
                </g>
                <g data-name="组 8665" style="opacity:.3">
                    <path data-name="路径 16673" d="M89.062 177.468c6.277 4.894 15.592 5.122 22.457 1.105 6.612-3.871 10.685-10.843 14.462-17.506 5.854-10.319 12.99-23.082 17.171-34.184 0 0-11.715 15.984-15.245 22.874a113.712 113.712 0 0 1-8 13.439 34.456 34.456 0 0 1-30.237 14.733"/>
                </g>
                <path data-name="路径 16674" d="M313.945 413.948a.632.632 0 0 1 0-.2v-.575c0-.537.044-1.263.082-2.191.088-1.895.208-4.61.36-7.85v.076a731.547 731.547 0 0 1-3.833-13.35c-1.819-6.58-3.353-12.567-4.389-16.919a204.885 204.885 0 0 1-1.168-5.166c-.12-.587-.215-1.061-.284-1.408a4.21 4.21 0 0 1-.082-.5 2.581 2.581 0 0 1 .145.48l.347 1.4c.309 1.263.739 2.993 1.263 5.134a786.325 786.325 0 0 0 4.484 16.887 919.606 919.606 0 0 0 3.789 13.357v.044c-.2 3.24-.36 5.936-.48 7.856l-.152 2.185a5.576 5.576 0 0 1-.051.568.664.664 0 0 1-.032.164z" transform="translate(-237.476 -224.229)" style="fill:#263238"/>
                <path data-name="路径 16675" d="M417.818 282.626c0 .051-.682-.189-1.775-.461a21.4 21.4 0 0 0-4.351-.632 20.956 20.956 0 0 0-4.383.341c-1.112.208-1.787.4-1.8.347a1.63 1.63 0 0 1 .455-.2 13.028 13.028 0 0 1 1.295-.373 17.191 17.191 0 0 1 4.421-.442 17.449 17.449 0 0 1 4.421.707 10.74 10.74 0 0 1 1.263.455c.315.157.454.232.454.258z" transform="translate(-274.648 -193.029)" style="fill:#263238"/>
                <path data-name="路径 16676" d="M379.849 265a1.857 1.857 0 0 1-.171.328l-.537.9a152.41 152.41 0 0 1-2.065 3.278 179.307 179.307 0 0 1-7.37 10.433 185.298 185.298 0 0 1-6.713 8.323l-.139.158-.082-.189c-.922-2.008-1.68-3.675-2.229-4.882-.246-.556-.442-1.01-.6-1.358a2.526 2.526 0 0 1-.183-.486 2.587 2.587 0 0 1 .259.455c.171.341.385.783.663 1.326.575 1.194 1.37 2.842 2.324 4.837l-.215-.032a241.899 241.899 0 0 0 6.656-8.349c3.019-3.966 5.6-7.667 7.433-10.37l2.154-3.214.587-.871a1.4 1.4 0 0 1 .228-.287z" transform="translate(-257.79 -187.06)" style="fill:#263238"/>
                <path data-name="路径 16677" d="M415.87 417.747c-.095 0 .2-3.29.632-7.326s.884-7.294.973-7.281-.2 3.284-.632 7.319-.898 7.294-.973 7.288z" transform="translate(-278.458 -237.962)" style="fill:#263238"/>
                <path data-name="路径 16678" d="M343.5 424.9a47.046 47.046 0 0 1 .751 5.507 44.732 44.732 0 0 1 .423 5.538 48.706 48.706 0 0 1-.752-5.507 47.891 47.891 0 0 1-.423-5.538z" transform="translate(-251.799 -245.98)" style="fill:#263238"/>
                <path data-name="路径 16679" d="M396.02 310.33a.808.808 0 0 0-1.225-.486l-.044.038a.764.764 0 1 0 1.263.448z" transform="translate(-270.589 -203.536)" style="fill:#fff"/>
                <path data-name="路径 16680" d="M385.594 284.91a.808.808 0 0 0-1.225-.486l-.038.038a.764.764 0 1 0 1.263.448z" transform="translate(-266.75 -194.17)" style="fill:#fff"/>
                <path data-name="路径 16681" d="M361.663 305.38a.808.808 0 0 0-1.225-.486h-.038a.764.764 0 1 0 1.263.455z" transform="translate(-257.932 -201.712)" style="fill:#fff"/>
                <path data-name="路径 16682" d="M335.794 295.1a.8.8 0 0 0-1.219-.486l-.044.038a.764.764 0 1 0 1.263.448z" transform="translate(-248.4 -197.924)" style="fill:#fff"/>
                <path data-name="路径 16683" d="M331.214 284.97a.808.808 0 0 0-1.225-.486l-.044.038a.77.77 0 1 0 1.263.448z" transform="translate(-246.706 -194.192)" style="fill:#fff"/>
                <path data-name="路径 16684" d="M333.21 273.27a.808.808 0 0 0-1.225-.486l-.044.032a.764.764 0 1 0 1.263.455z" transform="translate(-247.445 -189.881)" style="fill:#fff"/>
                <path data-name="路径 16685" d="M318.88 289.37a.808.808 0 0 0-1.225-.486l-.044.032a.764.764 0 1 0 1.263.455z" transform="translate(-242.164 -195.813)" style="fill:#fff"/>
                <path data-name="路径 16686" d="M352.114 294.01a.8.8 0 0 0-1.219-.486l-.044.038a.764.764 0 1 0 1.263.448z" transform="translate(-254.413 -197.523)" style="fill:#fff"/>
                <path data-name="路径 16687" d="M323.97 314.88a.808.808 0 0 0-1.225-.486h-.045a.764.764 0 1 0 1.263.455z" transform="translate(-244.04 -205.213)" style="fill:#fff"/>
                <path data-name="路径 16688" d="M298.253 374.9a.808.808 0 0 0-1.225-.486l-.038.032a.764.764 0 1 0 1.263.455z" transform="translate(-234.566 -227.329)" style="fill:#fff"/>
                <path data-name="路径 16689" d="M307.43 340.28a.808.808 0 0 0-1.225-.486l-.044.038a.764.764 0 1 0 1.263.448z" transform="translate(-237.946 -214.572)" style="fill:#fff"/>
                <path data-name="路径 16690" d="M375.11 279.5a.808.808 0 0 0-1.225-.486l-.044.032a.764.764 0 1 0 1.263.455z" transform="translate(-262.884 -192.176)" style="fill:#fff"/>
                <path data-name="路径 16691" d="M407.344 348.42a.808.808 0 0 0-1.225-.486l-.044.038a.77.77 0 1 0 1.263.448z" transform="translate(-274.758 -217.572)" style="fill:#fff"/>
                <path data-name="路径 16692" d="M419.923 289.11a.8.8 0 0 0-1.219-.486l-.044.032a.764.764 0 1 0 1.263.455z" transform="translate(-279.399 -195.717)" style="fill:#fff"/>
                <path data-name="路径 16693" d="M414.984 327.95a.808.808 0 0 0-1.225-.486l-.044.038a.77.77 0 1 0 1.263.448z" transform="translate(-277.573 -210.029)" style="fill:#fff"/>
                <path data-name="路径 16694" d="M386.78 356a.808.808 0 0 0-1.225-.486l-.044.038a.764.764 0 1 0 1.263.448z" transform="translate(-267.185 -220.365)" style="fill:#fff"/>
                <path data-name="路径 16695" d="M387.964 332.64a.808.808 0 0 0-1.225-.486l-.044.038a.77.77 0 1 0 1.263.448z" transform="translate(-267.617 -211.757)" style="fill:#fff"/>
                <path data-name="路径 16696" d="M404.984 289.31a.8.8 0 0 0-1.219-.486l-.044.038a.764.764 0 1 0 1.263.448z" transform="translate(-273.894 -195.791)" style="fill:#fff"/>
                <path data-name="路径 16697" d="M382.113 266.69a.8.8 0 0 0-1.219-.486l-.044.032a.764.764 0 1 0 1.263.455z" transform="translate(-265.467 -187.456)" style="fill:#fff"/>
                <path data-name="路径 16698" d="M381.243 303.158a.8.8 0 0 0-1.225-.486l-.038.032a.764.764 0 1 0 1.263.455z" transform="translate(-265.146 -200.892)" style="fill:#fff"/>
                <path data-name="路径 16699" d="M352.018 414.418a.8.8 0 0 0-1.194-.486l-.044.031a.764.764 0 1 0 1.263.455z" transform="translate(-254.387 -241.895)" style="fill:#fff"/>
                <path data-name="路径 16700" d="M318.45 396.11a.808.808 0 0 0-1.225-.486l-.044.038a.764.764 0 1 0 1.263.448z" transform="translate(-242.006 -235.144)" style="fill:#fff"/>
                <path data-name="路径 16701" d="M291.323 405.08a.808.808 0 0 0-1.225-.486l-.038.032a.764.764 0 1 0 1.263.455z" transform="translate(-232.013 -238.449)" style="fill:#fff"/>
                <path data-name="路径 16702" d="M288.42 420.53a.808.808 0 0 0-1.225-.486l-.044.032a.764.764 0 1 0 1.263.455z" transform="translate(-230.941 -244.142)" style="fill:#fff"/>
                <path data-name="路径 16703" d="M313.854 425.7a.808.808 0 0 0-1.225-.486l-.038.038a.764.764 0 1 0 1.263.448z" transform="translate(-240.315 -246.047)" style="fill:#fff"/>
                <path data-name="路径 16704" d="M305.344 391.1a.808.808 0 0 0-1.225-.486l-.044.038a.77.77 0 1 0 1.263.448z" transform="translate(-237.173 -233.298)" style="fill:#fff"/>
                <path data-name="路径 16705" d="M336.553 399.9a.8.8 0 0 0-1.225-.486l-.038.032a.764.764 0 1 0 1.263.455z" transform="translate(-248.679 -236.538)" style="fill:#fff"/>
                <path data-name="路径 16706" d="M410.723 391.048a.8.8 0 0 0-1.219-.486l-.044.032a.764.764 0 1 0 1.263.455z" transform="translate(-276.009 -233.277)" style="fill:#fff"/>
                <path data-name="路径 16707" d="M364.83 435.02a.808.808 0 0 0-1.225-.486l-.044.038a.764.764 0 1 0 1.263.448z" transform="translate(-259.096 -249.482)" style="fill:#fff"/>
                <path data-name="路径 16708" d="M384.4 410.54a.8.8 0 0 0-1.219-.486l-.044.038a.764.764 0 1 0 1.263.448z" transform="translate(-266.311 -240.461)" style="fill:#fff"/>
                <path data-name="路径 16709" d="M396.041 430.442a.808.808 0 0 0-1.213-.512l-.038.038a.764.764 0 1 0 1.263.448z" transform="translate(-270.604 -247.789)" style="fill:#fff"/>
                <path data-name="路径 16710" d="M363.68 326.19a.808.808 0 0 0-1.225-.486l-.044.038a.764.764 0 1 0 1.263.448z" transform="translate(-258.673 -209.38)" style="fill:#fff"/>
                <path data-name="路径 16711" d="M390.01 377.02a.808.808 0 0 0-1.225-.486l-.044.032a.764.764 0 1 0 1.263.455z" transform="translate(-268.374 -228.11)" style="fill:#fff"/>
                <path data-name="路径 16712" d="M381.47 396.27a.808.808 0 0 0-1.225-.486l-.044.032a.764.764 0 1 0 1.263.455z" transform="translate(-265.227 -235.203)" style="fill:#fff"/>
                <path data-name="路径 16713" d="M409.54 411.73a.808.808 0 0 0-1.225-.486l-.044.038a.764.764 0 1 0 1.263.448z" transform="translate(-275.571 -240.9)" style="fill:#fff"/>
                <path data-name="路径 16714" d="M332.73 434.058a.8.8 0 0 0-1.225-.486l-.044.032a.764.764 0 1 0 1.263.455z" transform="translate(-247.268 -249.126)" style="fill:#fff"/>
                <path data-name="路径 16715" d="M268.724 428.21a.808.808 0 0 0-1.225-.486l-.044.038a.77.77 0 1 0 1.263.448z" transform="translate(-223.68 -246.972)" style="fill:#fff"/>
                <path data-name="路径 16716" d="M325.1 417.7a.808.808 0 0 0-1.225-.486l-.044.038a.77.77 0 1 0 1.263.448z" transform="translate(-244.454 -243.1)" style="fill:#fff"/>
                <path data-name="路径 16717" d="M271.113 406.268a.8.8 0 0 0-1.225-.486l-.038.032a.764.764 0 1 0 1.263.455z" transform="translate(-224.566 -238.886)" style="fill:#fff"/>
                <path data-name="路径 16718" d="M361.31 369.97a.808.808 0 0 0-1.225-.486l-.044.032a.764.764 0 1 0 1.263.455z" transform="translate(-257.799 -225.512)" style="fill:#fff"/>
                <path data-name="路径 16719" d="M342.43 314.88a.808.808 0 0 0-1.225-.486h-.044a.764.764 0 1 0 1.263.455z" transform="translate(-250.842 -205.213)" style="fill:#fff"/>
                <path data-name="路径 16720" d="M337.714 362.64a.808.808 0 0 0-1.225-.486l-.038.038a.764.764 0 1 0 1.263.448z" transform="translate(-249.107 -222.811)" style="fill:#fff"/>
                <path data-name="路径 16721" d="M330.033 347.07a.808.808 0 0 0-1.225-.486h-.038a.764.764 0 1 0 1.263.455z" transform="translate(-246.277 -217.074)" style="fill:#fff"/>
                <path data-name="路径 16722" d="M363.994 396.05a.808.808 0 0 0-1.225-.486l-.044.038a.77.77 0 1 0 1.263.448z" transform="translate(-258.784 -235.122)" style="fill:#fff"/>
                <path data-name="路径 16723" d="M340.05 386.428a.8.8 0 0 0-1.225-.505l-.044.038a.764.764 0 1 0 1.263.448z" transform="translate(-249.966 -231.569)" style="fill:#fff"/>
                <path data-name="路径 16724" d="M350.3 333.69a.8.8 0 0 0-1.219-.486l-.044.032a.764.764 0 1 0 1.263.455z" transform="translate(-253.746 -212.144)" style="fill:#fff"/>
                <path data-name="路径 16725" d="M313.854 371.04a.808.808 0 0 0-1.225-.486l-.038.038a.764.764 0 1 0 1.263.448z" transform="translate(-240.315 -225.907)" style="fill:#fff"/>
                <path data-name="路径 16726" d="M370.11 353.9a.808.808 0 0 0-1.225-.486l-.044.032a.764.764 0 1 0 1.263.455z" transform="translate(-261.042 -219.591)" style="fill:#fff"/>
                <path data-name="路径 16727" d="M422.3 309.14a.808.808 0 0 0-1.225-.486l-.044.038a.764.764 0 1 0 1.263.448z" transform="translate(-280.273 -203.098)" style="fill:#fff"/>
                <path data-name="路径 16728" d="M401.11 275.25a.808.808 0 0 0-1.225-.486l-.044.038a.764.764 0 1 0 1.263.448z" transform="translate(-272.465 -190.61)" style="fill:#fff"/>
                <path data-name="路径 16729" d="M360.05 279.5a.808.808 0 0 0-1.225-.486l-.044.032a.764.764 0 1 0 1.263.455z" transform="translate(-257.335 -192.176)" style="fill:#fff"/>
                <path data-name="路径 16730" d="M313.424 158.21c-4.97 3.158-6.947 9.795-6.012 13.717.48 1.977 1.377 3.966.985 5.955-.335 1.724-1.579 3.107-2.526 4.6a13.843 13.843 0 0 0 17.3 19.994" transform="translate(-237.164 -147.711)" style="fill:#263238"/>
                <path data-name="路径 16731" d="M312.7 177.97c-12.1-26.612 16.685-39.982 32.384-35.548 14.759 4.168 21.055 11.513 23.486 21.383s2.311 20.575-1.56 29.978c-1.895 4.635-5.343 9.347-10.325 9.928" transform="translate(-239.384 -141.585)" style="fill:#263238"/>
                <path data-name="路径 16732" d="M328.5 248.082c-.208-12.719-.36-30.181-.36-30.111s-10.906-1.812-13.2-16.06c-1.124-7.092-.764-18.718-.171-28.223.543-8.557 6.208-19.053 14.733-18.15l26.619 6.726a5.008 5.008 0 0 1 4.484 5.09l-1.73 55.05" transform="translate(-241.007 -146.706)" style="fill:#ffbe9d"/>
                <path data-name="路径 16733" d="M322.64 197.129a1.812 1.812 0 0 0 1.73 1.85 1.737 1.737 0 0 0 1.895-1.617 1.825 1.825 0 0 0-1.73-1.857 1.743 1.743 0 0 0-1.895 1.623z" transform="translate(-244.112 -161.451)" style="fill:#263238"/>
                <path data-name="路径 16734" d="M352.56 197.129a1.812 1.812 0 0 0 1.73 1.844 1.737 1.737 0 0 0 1.895-1.617 1.812 1.812 0 0 0-1.73-1.85 1.737 1.737 0 0 0-1.895 1.623z" transform="translate(-255.137 -161.451)" style="fill:#263238"/>
                <path data-name="路径 16735" d="M319.5 191.783c.221.246 1.642-.733 3.606-.632s3.372 1.1 3.6.865c.107-.1-.114-.537-.726-1.017a4.989 4.989 0 0 0-2.867-.992 4.837 4.837 0 0 0-2.88.827c-.615.431-.833.835-.733.949z" transform="translate(-242.947 -159.426)" style="fill:#263238"/>
                <path data-name="路径 16736" d="M349.082 192.428c.227.24 1.61-.8 3.574-.8s3.417.973 3.625.733c.107-.107-.126-.537-.758-.992a4.989 4.989 0 0 0-2.9-.884 4.787 4.787 0 0 0-2.842.935c-.61.472-.812.901-.699 1.008z" transform="translate(-253.844 -159.605)" style="fill:#263238"/>
                <path data-name="路径 16737" d="M335.509 207.99a13.2 13.2 0 0 0-3.2-.581c-.505-.051-.979-.152-1.061-.493a2.526 2.526 0 0 1 .335-1.49c.467-1.213.966-2.488 1.484-3.827 2.065-5.444 3.556-9.928 3.334-10.01s-2.071 4.269-4.13 9.719l-1.427 3.852a2.892 2.892 0 0 0-.259 1.97 1.263 1.263 0 0 0 .827.733 3.209 3.209 0 0 0 .853.12 13.133 13.133 0 0 0 3.244.007z" transform="translate(-247.016 -160.01)" style="fill:#263238"/>
                <path data-name="路径 16738" d="M336.27 251.46a36.294 36.294 0 0 0 19.1-5.09s-4.825 9.915-19.1 8.582z" transform="translate(-249.134 -180.196)" style="fill:#eb996e"/>
                <path data-name="路径 16739" d="M348.323 188.262c.189.537 2.16.278 4.465.562s4.174.9 4.484.423c.139-.227-.189-.733-.941-1.263a7.837 7.837 0 0 0-6.82-.751c-.847.354-1.276.777-1.188 1.029z" transform="translate(-253.572 -158.236)" style="fill:#263238"/>
                <path data-name="路径 16740" d="M320.211 183.811c.347.448 1.705 0 3.334-.038s3.012.3 3.328-.164c.139-.227-.076-.676-.682-1.1a4.61 4.61 0 0 0-2.709-.733 4.661 4.661 0 0 0-2.659.9c-.574.446-.764.907-.612 1.135z" transform="translate(-243.199 -156.393)" style="fill:#263238"/>
                <path data-name="路径 16741" d="M383.342 203.589c.208-.1 7.635-3.385 7.724 5.153s-8.507 6.865-8.526 6.618.802-11.771.802-11.771z" transform="translate(-266.184 -164.173)" style="fill:#ffbe9d"/>
                <path data-name="路径 16742" d="M386.616 213.5c.038 0 .152.1.4.215a1.5 1.5 0 0 0 1.111 0c.9-.341 1.642-1.781 1.667-3.322a4.78 4.78 0 0 0-.436-2.122 1.705 1.705 0 0 0-1.13-1.13.752.752 0 0 0-.872.417c-.114.24-.057.41-.1.423s-.189-.139-.12-.493a.941.941 0 0 1 .328-.537 1.112 1.112 0 0 1 .821-.227 2.09 2.09 0 0 1 1.566 1.307 5.051 5.051 0 0 1 .543 2.375c-.038 1.718-.9 3.341-2.135 3.707a1.6 1.6 0 0 1-1.364-.208c-.26-.195-.304-.391-.279-.405z" transform="translate(-267.684 -165.584)" style="fill:#eb996e"/>
                <path data-name="路径 16743" d="M330.721 148.88c-4.749 2.457-6.707 12.169-4.743 17.146s7.263 7.4 12.485 8.545a31.777 31.777 0 0 0 15.5-.152c.354 3.461 2.431 7.016 5.791 7.932 4.452 1.206 8.936-2.867 9.928-7.37s-.5-9.138-1.964-13.515" transform="translate(-245.064 -144.273)" style="fill:#263238"/>
                <path data-name="路径 16744" d="M384.663 194.334a6.19 6.19 0 0 1-.663.632 22.3 22.3 0 0 1-1.964 1.484 12.15 12.15 0 0 1-3.322 1.61 7.18 7.18 0 0 1-4.528-.069 7 7 0 0 1-3.429-2.962 9.517 9.517 0 0 1-1.231-3.486 12.717 12.717 0 0 1-.133-2.476 2.76 2.76 0 0 1 .107-.9c.095 0 0 1.295.366 3.309a9.8 9.8 0 0 0 1.263 3.309 6.738 6.738 0 0 0 3.214 2.741 6.909 6.909 0 0 0 4.238.088 12.771 12.771 0 0 0 3.252-1.459c1.756-1.095 2.779-1.891 2.83-1.821z" transform="translate(-261.335 -158.75)" style="fill:#263238"/>
                <path data-name="路径 16745" d="M339.193 225.045a8.069 8.069 0 0 0 1.061 2.078 2.753 2.753 0 0 0 1.964 1.143 2.526 2.526 0 0 0 2.1-1.143 3.985 3.985 0 0 0 .581-2.387c-.032-.752-.379-1.648-1.124-1.737a1.831 1.831 0 0 0-.9.2l-3.928 1.591" transform="translate(-250.118 -171.584)" style="fill:#eb996e"/>
                <path data-name="路径 16746" d="M340.331 228.021a5.622 5.622 0 0 0 2.1-.259 2.981 2.981 0 0 0 1.585-1.434 3.158 3.158 0 0 0 .051-2.57 2.974 2.974 0 0 0-.341-.587c-.158-.164-.133-.158-.3-.133a4.139 4.139 0 0 0-.632.246l-.632.265c-.84.341-1.6.632-2.242.878a6.347 6.347 0 0 1-2.141.632 6.705 6.705 0 0 1 1.945-1.1c.632-.3 1.358-.632 2.185-1.017l.632-.284c.234-.095.4-.2.72-.3a.922.922 0 0 1 .581 0 1.073 1.073 0 0 1 .436.341 3.593 3.593 0 0 1 .322 3.884 3.328 3.328 0 0 1-2 1.61 3.113 3.113 0 0 1-1.7.069c-.4-.062-.582-.197-.569-.241z" transform="translate(-249.69 -171.332)" style="fill:#263238"/>
                <path data-name="路径 16747" d="M394.682 194.728c-.872-.063-7.926.853-7.37 13.957.518 12.245 9.107 9.549 11.847 4.939 2.577-4.364 4.08-18.296-4.477-18.896z" transform="translate(-267.931 -161.166)" style="fill:#455a64"/>
                <path data-name="路径 16748" d="M400.553 186.612a2.134 2.134 0 0 1-.032-.341c0-.259 0-.587-.038-1 0-.9-.063-2.166-.107-3.732-.063-3.214-.152-7.692-.259-12.852l.158.152h-3.631l.164-.164c0 .973.051 2 .082 3.05l.328 13.331v.114h-.107a6.574 6.574 0 0 0-3.745 2.412 8.841 8.841 0 0 0-1.5 3.158 13.928 13.928 0 0 0-.385 2.242c0 .259-.032.461-.038.594a1.772 1.772 0 0 0 0 .208.879.879 0 0 1 0-.208v-.6a11.744 11.744 0 0 1 .316-2.273 8.841 8.841 0 0 1 1.471-3.259 6.808 6.808 0 0 1 3.859-2.526l-.107.139c-.107-3.833-.24-8.412-.379-13.331-.032-1.042-.057-2.071-.082-3.05v-.176h3.96v.158c.057 5.166.107 9.637.145 12.858v4.73a1.36 1.36 0 0 1-.073.366z" transform="translate(-269.463 -151.502)" style="fill:#455a64"/>
                <path data-name="路径 16749" d="M385.58 158.871a28.152 28.152 0 0 0-12.473-12.889 52.523 52.523 0 0 0-10.528-3.9s5.128-1.213 13.42 2.476c3.789 1.68 7.578 3.859 10.1 7.136 1.591 2.078 3.587 6.138 3.581 7.18z" transform="translate(-258.829 -141.696)" style="fill:#455a64"/>
                <path data-name="路径 16750" d="M363 295.976s.051-.063.158-.171.272-.272.474-.493a23.437 23.437 0 0 0 1.705-2.021 33 33 0 0 0 2.305-3.537c.821-1.434 1.68-3.126 2.608-5.014a275.937 275.937 0 0 0 6.252-13.59 286.177 286.177 0 0 0 3.385-8.342l.846-2.223a12.907 12.907 0 0 1 1.017-2.242 4.635 4.635 0 0 1 1.831-1.743 2.6 2.6 0 0 1 1.263-.322 1.307 1.307 0 0 1 .669.24 1.434 1.434 0 0 1 .423.568v.095a2.185 2.185 0 0 1-.341.84 1.326 1.326 0 0 1-.789.518 2.861 2.861 0 0 1-1.762-.322 2.791 2.791 0 0 1-1.56-3.063 2.457 2.457 0 0 1 1.029-1.541 2.867 2.867 0 0 1 1.794-.512 1.977 1.977 0 0 1 1.655.916.954.954 0 0 1-.063 1.029 1.819 1.819 0 0 1-.8.581 2.633 2.633 0 0 1-3.025-.859 2.217 2.217 0 0 1-.41-1.591 2.734 2.734 0 0 1 .632-1.49 2.286 2.286 0 0 1 1.421-.783 1.819 1.819 0 0 1 1.535.53 1.137 1.137 0 0 1 .3.8 1.061 1.061 0 0 1-.366.777 1.768 1.768 0 0 1-1.541.417 1.939 1.939 0 0 1-1.231-.985 4.061 4.061 0 0 1-.461-1.459 5.166 5.166 0 0 1 .335-2.943 2.191 2.191 0 0 1 1.08-1.067 1.976 1.976 0 0 1 1.5.05 1.421 1.421 0 0 1 .928 1.168 1.3 1.3 0 0 1-.8 1.263 1.592 1.592 0 0 1-1.453 0 2.008 2.008 0 0 1-.9-1.111 2.772 2.772 0 0 1-.082-1.377 6.26 6.26 0 0 1 .29-1.314 2.406 2.406 0 0 1 .764-1.118 3.063 3.063 0 0 1 1.194-.587 1.263 1.263 0 0 1 .695 0 1.472 1.472 0 0 1 .575.366 1.655 1.655 0 0 1 .373.556.928.928 0 0 1 0 .7 1.137 1.137 0 0 1-1.13.632 2.059 2.059 0 0 1-1.187-.4 3.259 3.259 0 0 1-1.263-1.989 3.354 3.354 0 0 1 .347-2.311 2.558 2.558 0 0 1 .714-.865 2.306 2.306 0 0 1 1-.436 1.623 1.623 0 0 1 1.074.152 1.118 1.118 0 0 1 .581.89 1.572 1.572 0 0 1-1.187 1.516 1.718 1.718 0 0 1-1.718-.632 2.753 2.753 0 0 1-.632-1.617 10.1 10.1 0 0 1 .632-3.019c.259-.909.493-1.743.707-2.488.423-1.484.752-2.64.985-3.435.107-.385.2-.682.259-.89s.1-.3.1-.3a1.074 1.074 0 0 1-.069.309c-.069.2-.133.518-.227.9-.215.8-.53 1.964-.928 3.448l-.676 2.495a10.765 10.765 0 0 0-.587 2.968 2.627 2.627 0 0 0 .631 1.5 1.535 1.535 0 0 0 1.516.568 1.364 1.364 0 0 0 1.023-1.263.9.9 0 0 0-.467-.714 1.433 1.433 0 0 0-.922-.12 2.065 2.065 0 0 0-.909.4 2.374 2.374 0 0 0-.632.789 3.157 3.157 0 0 0-.234 2.084 3.019 3.019 0 0 0 1.175 1.825 1.851 1.851 0 0 0 1.036.347.865.865 0 0 0 .872-.461.966.966 0 0 0-.335-.96 1.263 1.263 0 0 0-.461-.3 1.086 1.086 0 0 0-.549 0 2.4 2.4 0 0 0-1.749 1.535 5.742 5.742 0 0 0-.272 1.263 2.457 2.457 0 0 0 .076 1.263 1.661 1.661 0 0 0 .758.941 1.32 1.32 0 0 0 1.181 0 .991.991 0 0 0 .632-.941 1.118 1.118 0 0 0-.739-.9 1.718 1.718 0 0 0-1.263-.044 1.9 1.9 0 0 0-.916.916 4.907 4.907 0 0 0-.3 2.76 3.789 3.789 0 0 0 .423 1.345 1.629 1.629 0 0 0 1.017.827 1.44 1.44 0 0 0 1.263-.335.783.783 0 0 0 .044-1.13 1.509 1.509 0 0 0-1.263-.423 1.939 1.939 0 0 0-1.213.682 2.173 2.173 0 0 0-.227 2.671 2.318 2.318 0 0 0 2.64.745 1.572 1.572 0 0 0 .631-.474.631.631 0 0 0 .038-.682 1.661 1.661 0 0 0-1.383-.739 2.368 2.368 0 0 0-2.482 1.787 2.438 2.438 0 0 0 1.326 2.659 2.482 2.482 0 0 0 1.547.3 1.263 1.263 0 0 0 .884-1.105v.095a.947.947 0 0 0-.827-.632 2.255 2.255 0 0 0-1.118.29 4.294 4.294 0 0 0-1.711 1.629 12.334 12.334 0 0 0-.991 2.179l-.859 2.229a289.926 289.926 0 0 1-3.41 8.336 245.937 245.937 0 0 1-6.315 13.578c-.941 1.895-1.812 3.568-2.652 5a32.391 32.391 0 0 1-2.356 3.518 16.6 16.6 0 0 1-2.405 2.64z" transform="translate(-258.984 -174.304)" style="fill:#fff"/>
                <path data-name="路径 16751" d="M381.1 173.839a8.284 8.284 0 0 0-.575-2.337 9.2 9.2 0 0 0-4.534-4.541 12.246 12.246 0 0 0-4.37-1.067 20.563 20.563 0 0 0-5.185.392c-3.619.669-7.42 2.229-11.677 2.873a23.81 23.81 0 0 1-6.252 0 25.16 25.16 0 0 1-5.621-1.528 24.806 24.806 0 0 1-8.21-5.406 22.1 22.1 0 0 1-3.966-5.3 7.516 7.516 0 0 1-.467-.928l-.3-.7c-.076-.171-.133-.316-.183-.429a.544.544 0 0 1-.051-.152.631.631 0 0 1 .082.139l.208.417.335.682a7.917 7.917 0 0 0 .493.916 23 23 0 0 0 4.016 5.2 24.63 24.63 0 0 0 13.685 6.776 23.412 23.412 0 0 0 6.164 0c4.2-.632 8.008-2.185 11.671-2.842a20.689 20.689 0 0 1 5.254-.366 12.283 12.283 0 0 1 4.452 1.13 9.214 9.214 0 0 1 4.553 4.7 6.891 6.891 0 0 1 .436 1.756v.467a.542.542 0 0 1 .044.158z" transform="translate(-246.717 -146.421)" style="fill:#455a64"/>
                <path data-name="路径 16752" d="M371.267 159.2a3.074 3.074 0 0 1-.455.076c-.3.044-.739.107-1.3.208-1.124.183-2.734.543-4.718 1.036a50.192 50.192 0 0 1-7.067 1.37 35.511 35.511 0 0 1-8.8-.2 37.26 37.26 0 0 1-8.507-2.286 36 36 0 0 1-6.41-3.315c-.846-.575-1.6-1.105-2.248-1.61s-1.187-.941-1.6-1.333l-.96-.9c-.215-.208-.328-.322-.316-.335a2.469 2.469 0 0 1 .36.284l1 .853c.429.379 1 .783 1.636 1.263s1.415 1 2.261 1.56a38.1 38.1 0 0 0 14.816 5.475 36.244 36.244 0 0 0 8.734.215 51.591 51.591 0 0 0 7.035-1.263c1.989-.461 3.619-.789 4.755-.941.568-.076 1.01-.12 1.314-.139a2.325 2.325 0 0 1 .47-.018z" transform="translate(-246.411 -145.389)" style="fill:#455a64"/>
                <path data-name="路径 16753" d="M395.161 217.574a1.208 1.208 0 0 1-.246-.076 4.02 4.02 0 0 1-.632-.335 5.8 5.8 0 0 1-1.85-1.97 9.517 9.517 0 0 1-1.137-3.846 27.58 27.58 0 0 1 0-4.9 29.856 29.856 0 0 1 .808-4.831 13.939 13.939 0 0 1 1.408-3.745 5.785 5.785 0 0 1 1.895-1.964 3.46 3.46 0 0 1 .632-.328c.158-.057.246-.082.246-.069a7.7 7.7 0 0 0-.834.505 6.057 6.057 0 0 0-1.73 1.97 14.209 14.209 0 0 0-1.314 3.707 31.568 31.568 0 0 0-.783 4.787 29.521 29.521 0 0 0 0 4.837 9.605 9.605 0 0 0 1.036 3.789 5.911 5.911 0 0 0 1.718 1.983c.48.334.802.454.783.486z" transform="translate(-269.37 -161.453)" style="fill:#263238"/>
                <rect data-name="矩形 10071" width="10.205" height="3.846" rx="1.923" transform="rotate(-11.1 331.633 -430.777)" style="fill:#455a64"/>
                <path data-name="路径 16754" d="m354.47 223.359 29.966-9.4a1.415 1.415 0 0 1 1.768.916 1.421 1.421 0 0 1-.979 1.8l-30.641 8.273z" transform="translate(-255.841 -168.23)" style="fill:#455a64"/>
                <path data-name="路径 16755" d="M386.393 219.266a6.7 6.7 0 0 1 .991-.347l2.741-.834c1.149-.354 2.564-.733 4.054-1.219a2.715 2.715 0 0 0 .979-.632 1.478 1.478 0 0 0 .423-1.042.909.909 0 0 0-.632-.859 2.292 2.292 0 0 0-1.263.038l-8.987 2.892-2.734.846a6.258 6.258 0 0 1-.966.309 6.759 6.759 0 0 1 .979-.385l2.7-.947c2.292-.777 5.437-1.857 8.974-2.987a2.589 2.589 0 0 1 1.44 0 1.263 1.263 0 0 1 .834 1.162 1.794 1.794 0 0 1-.518 1.263 3.032 3.032 0 0 1-1.149.632c-1.547.486-2.93.827-4.1 1.156l-2.741.739a5.6 5.6 0 0 1-1.025.215z" transform="translate(-265.616 -168.267)" style="fill:#263238"/>
                <path data-name="路径 16756" d="M303.234 186c1.023 3.6-2.633 6.688-3.922 10.205-1.263 3.4-.189 7.206 1.345 10.49s3.555 6.391 4.339 9.921c1.939 8.715-5.943 18.106-4.421 26.9a56.628 56.628 0 0 0 2.956 9.605 12.694 12.694 0 0 1 0 8.923c-1.705 5.052-4.6 7.42-6.631 12.334-1.042 2.526-.96 5.33-.909 8.046s.038 5.557-1.175 8-3.979 4.32-6.606 3.612a9.681 9.681 0 0 0 11.57 2.2c3.454-1.844 5.387-5.583 7.041-9.132 8.008-17.184 12.245-18.636 12-37.595 0-1.219-.24-20.209-.24-20.209a18.945 18.945 0 0 1-4.73-1.989c-8.942-6.176-9.271-17.177-9.2-25.709" transform="translate(-231.426 -157.951)" style="fill:#263238"/>
                <path data-name="路径 16757" d="M335 277.08v7.155s-5.5 28.071-7.155 43.664-1.926 19.71-1.926 19.71 3.947 6.157 12.2-4.3 9.725-12.106 13.028-12.289c0 0-4.035-43.847-3.852-45.47a6.625 6.625 0 0 1 1.465-3.12z" transform="translate(-245.321 -191.512)" style="fill:#ffbe9d"/>
                <path data-name="路径 16758" d="M351.124 238.88s-8.987 11.923-9.719 13.565-1.105 2.564-1.105 2.564l13.761 5.324 13.395-14.677 4.951-13.028-1.471-15.409s-2.93-.183-3.48 2.387a19.306 19.306 0 0 0-.373 4.951l-4.1-3.3-6.625-2.015s-1.56 2.564 1.01 3.852 3.3 1.263 3.3 1.263l2.311 4.035-1.01 4.522-4.686-4.421a2.671 2.671 0 0 0-3.41-.215l-3.031 2.2-2.842-1.267-5.5 4.92-2.2 2.015a3.392 3.392 0 0 0 4.421 1.471l2.937-1.263z" transform="translate(-250.619 -169.453)" style="fill:#ffbe9d"/>
                <path data-name="路径 16759" d="M340.189 257.325a2.971 2.971 0 0 1 0-.385 10.687 10.687 0 0 1 .088-1.118 13.154 13.154 0 0 1 .347-1.8 7.982 7.982 0 0 1 .96-2.311c2.059-3.158 5.3-7.578 9.34-13.016v.164l-3.486-2.564h.12l-1.812.8a12.544 12.544 0 0 1-1.932.752 3.158 3.158 0 0 1-2.147-.246 3.954 3.954 0 0 1-1.617-1.541l-.05-.088.082-.076c2.362-2.223 5-4.465 7.7-6.865l.082-.069.088.051 2.444 1.446h-.158l2.854-1.895c.5-.322.947-.632 1.484-.96a1.781 1.781 0 0 1 1.844.158l5.564 4.7-.259.088c.3-1.358.632-2.829.96-4.313v.114l-2.311-4.035.145.082a4.6 4.6 0 0 1-1.143-.309c-.36-.133-.72-.284-1.08-.442s-.714-.335-1.067-.505c-.183-.088-.36-.208-.537-.309a3.338 3.338 0 0 1-.48-.417 2.324 2.324 0 0 1-.632-1.686 3.72 3.72 0 0 1 .486-1.718l.063-.107.126.038 6.618 2.021h.032l4.1 3.3-.259.139a19.615 19.615 0 0 1 .347-4.882 2.974 2.974 0 0 1 1.339-2.034 4.256 4.256 0 0 1 2.337-.587h.17v.139c.518 5.475 1 10.641 1.453 15.409v.032c-1.831 4.8-3.5 9.157-4.976 13.016l-10.37 11.443-2.811 3.061c-.322.335-.568.6-.739.783l-.259.259s.076-.1.234-.284l.714-.8 2.779-3.088 10.318-11.37v.032l4.926-13.035v.063c-.461-4.768-.954-9.928-1.484-15.409l.145.145a3.89 3.89 0 0 0-2.147.543 2.64 2.64 0 0 0-1.194 1.831 18.949 18.949 0 0 0-.341 4.793v.366l-.284-.227-4.168-3.322h.057l-6.618-2.015.183-.076a3.442 3.442 0 0 0-.436 1.554 2 2 0 0 0 .543 1.459 3.394 3.394 0 0 0 .423.366c.171.095.322.2.5.284.354.171.7.347 1.055.5a9.276 9.276 0 0 0 2.09.726h.1l.038.063 2.311 4.035.032.057v.063c-.335 1.484-.632 2.956-.966 4.313l-.057.265-.208-.177-5.546-4.697a1.459 1.459 0 0 0-1.516-.139c-.467.278-.973.632-1.452.941l-2.861 1.895-.076.051-.082-.044-2.444-1.452h.177c-2.7 2.387-5.343 4.629-7.711 6.839l.032-.164a3.644 3.644 0 0 0 1.49 1.427 2.848 2.848 0 0 0 1.97.227 12.506 12.506 0 0 0 1.895-.726l1.812-.8h.069l.057.038 3.48 2.577.095.069-.069.095c-4.061 5.437-7.332 9.82-9.416 12.946a8.21 8.21 0 0 0-.979 2.267 14.633 14.633 0 0 0-.373 1.781c-.069.486-.1.865-.12 1.111s-.025.386-.025.386z" transform="translate(-250.509 -169.338)" style="fill:#eb996e"/>
                <path data-name="路径 16760" d="M361.641 248.638c-.063 0 .177-.973.278-2.526a5.8 5.8 0 0 0-.429-2.652 7.092 7.092 0 0 0-2.19-2.46 54.453 54.453 0 0 0-5.1-3.467l-1.61-.947a3.092 3.092 0 0 1-.581-.373 2.273 2.273 0 0 1 .632.259c.4.183.979.474 1.674.859a42.223 42.223 0 0 1 5.178 3.41 7.093 7.093 0 0 1 2.261 2.6 5.684 5.684 0 0 1 .392 2.791 11.881 11.881 0 0 1-.31 1.857 2.456 2.456 0 0 1-.195.649z" transform="translate(-254.934 -176.452)" style="fill:#eb996e"/>
                <path data-name="路径 16761" d="M382.455 240.26a12.32 12.32 0 0 1 .234-1.655 25.887 25.887 0 0 0 .284-3.979 26.421 26.421 0 0 0-.354-3.985 12.841 12.841 0 0 1-.259-1.641 6.313 6.313 0 0 1 .486 1.6 19.508 19.508 0 0 1 .069 8.052 6.316 6.316 0 0 1-.46 1.608z" transform="translate(-266.118 -173.795)" style="fill:#eb996e"/>
            </g>
            <g>
                <path data-name="路径 16762" d="m247.994 138.321-6.568-11.6a31.077 31.077 0 1 0-7.446 8.286z" transform="translate(1052.976 395.079)" style="fill:#fff"/>
                <path data-name="路径 16763" d="m247.949 138.309-14.058-3.221h-.12l.076-.1.114.114a31.652 31.652 0 0 1-6.385 3.846 31.026 31.026 0 0 1-8.507 2.425 27.881 27.881 0 0 1-4.913.246c-.84-.044-1.705-.069-2.57-.139l-2.621-.4a31.273 31.273 0 0 1-19.365-12.49 30.875 30.875 0 0 1-5.242-12 31.576 31.576 0 0 1 .366-13.8 30.579 30.579 0 0 1 6.65-12.757l1.263-1.4A18.252 18.252 0 0 1 194 87.377a18.534 18.534 0 0 1 1.408-1.263L196.9 85a13.259 13.259 0 0 1 1.541-.985l1.572-.954 1.648-.789a13.44 13.44 0 0 1 1.661-.739 31.734 31.734 0 0 1 13.894-2.141 30.661 30.661 0 0 1 12.757 3.789A31.437 31.437 0 0 1 244.7 101.3a33.426 33.426 0 0 1 1.351 10.1 30.692 30.692 0 0 1-1.516 8.709 31.313 31.313 0 0 1-3.113 6.682v-.082l6.511 11.639c-.278-.486-2.387-4.143-6.65-11.563v-.076a31.507 31.507 0 0 0 3.063-6.656 30.894 30.894 0 0 0 1.471-8.658 33.293 33.293 0 0 0-1.37-10.01 31.21 31.21 0 0 0-14.626-17.929 30.408 30.408 0 0 0-12.63-3.72 31.374 31.374 0 0 0-13.761 2.128 13.142 13.142 0 0 0-1.642.733l-1.629.789-1.56.947a11.564 11.564 0 0 0-1.522 1.01l-1.478 1.1c-.5.354-.922.815-1.389 1.213a15.017 15.017 0 0 0-1.351 1.263l-1.267 1.381a30.313 30.313 0 0 0-6.58 12.63 31.349 31.349 0 0 0-.373 13.66 30.635 30.635 0 0 0 5.179 11.866A31.121 31.121 0 0 0 209 140.829l2.6.4c.859.076 1.718.095 2.526.145a28.09 28.09 0 0 0 4.875-.227 30.863 30.863 0 0 0 14.822-6.176l.493-.379-.379.5-.051-.133z" transform="translate(1053.021 395.092)" style="fill:#263238"/>
                <path data-name="路径 16764" d="M219.522 127.156A2.526 2.526 0 1 1 217 124.63a2.526 2.526 0 0 1 2.522 2.526z" transform="translate(1041.707 378.394)" style="fill:#263238"/>
                <path data-name="路径 16765" d="M235.482 127.156a2.526 2.526 0 1 1-2.526-2.526 2.526 2.526 0 0 1 2.526 2.526z" transform="translate(1035.826 378.394)" style="fill:#263238"/>
                <path data-name="路径 16766" d="M251.612 125.9a2.526 2.526 0 1 1-3.442-.922 2.526 2.526 0 0 1 3.442.922z" transform="translate(1029.757 378.391)" style="fill:#263238"/>
            </g>
            <g>
                <path data-name="路径 16767" d="M314.712 442.044c0 .095-64.2.164-143.356.164S28 442.139 28 442.044s64.182-.164 143.387-.164 143.325.076 143.325.164z" transform="translate(1110.417 261.495)" style="fill:#263238"/>
            </g>
            <g>
                <path data-name="路径 16768" d="M353.55 437.933a16.95 16.95 0 0 1 13.508-7.629c9.227-.316 13.837 7.629 13.837 7.629z" transform="translate(990.46 265.764)" style="fill:#455a64"/>
                <path data-name="路径 16769" d="M378.569 437.615a10.249 10.249 0 0 1-.272-1.377 8.9 8.9 0 0 0-3.657-5.381 11.687 11.687 0 0 1-1.181-.758 3.3 3.3 0 0 1 1.332.518 7.825 7.825 0 0 1 3.789 5.57 3.328 3.328 0 0 1-.013 1.427z" transform="translate(983.123 265.836)" style="fill:#263238"/>
                <path data-name="路径 16770" d="M294.559 439.793v-.063a3.537 3.537 0 0 0-3.543-3.48h-78.523a3.543 3.543 0 0 0-3.543 3.543z" transform="translate(1043.741 263.57)" style="fill:#455a64"/>
                <path data-name="路径 16771" d="M106.47 212.463c0 1.655 1.263 100.273 1.263 100.273l73.257 17.626h6.018l-3.852-137.672h-5.507z" transform="translate(1081.503 353.316)" style="fill:#263238"/>
                <path data-name="路径 16772" d="m117.753 376.29-22.7 41.6H115.8c-3.713-.366 32.839 0 32.839 0l-32.839-8.704 10.275-23.335-.878-9.561z" transform="translate(1085.711 285.664)" style="fill:#263238"/>
                <path data-name="路径 16773" d="M130.367 341.956 127.91 264.4l22.305-2.135 2.747 82.8-7.964.4z" transform="translate(1073.603 327.677)" style="fill:#263238"/>
                <path data-name="路径 16774" d="M143.981 354.826v-5.538c0-3.606-.032-8.841-.051-15.428 0-13.18-.032-31.728-.057-53.237l.158.158h-26.365l.164-.164v3.574c0 20.979 0 40.5-.032 56.768v.032c-6.833 12.523-12.5 22.918-16.464 30.181-1.983 3.625-3.543 6.467-4.61 8.412-.53.96-.941 1.692-1.219 2.2s-.436.745-.436.745.133-.265.4-.764.669-1.263 1.181-2.229c1.055-1.951 2.589-4.806 4.547-8.443l16.356-30.237V280.42h26.637v.158c0 21.51-.044 40.057-.057 53.237 0 6.581-.038 11.822-.051 15.428v5.178a.806.806 0 0 1-.101.405z" transform="translate(1085.704 320.99)" style="fill:#455a64"/>
                <path data-name="路径 16775" d="M135.77 391.43c.082.032-3.076 7.338-7.054 16.306s-7.275 16.217-7.357 16.18 3.076-7.338 7.054-16.312 7.275-16.212 7.357-16.174z" transform="translate(1076.017 280.085)" style="fill:#455a64"/>
                <path data-name="路径 16776" d="M222.509 330.6v-1.4c0-.928-.032-2.273-.051-4 0-3.473-.107-8.5-.227-14.714-.234-12.428-.8-29.587-1.484-48.539s-1.213-36.129-1.389-48.558c-.095-6.214-.139-11.247-.12-14.721v-4c0 .928 0 2.273.051 4 0 3.473.1 8.5.227 14.714.272 12.428.834 29.606 1.522 48.552s1.213 36.117 1.389 48.545c.095 6.214.133 11.247.12 14.721v5.046a1.187 1.187 0 0 1-.038.354z" transform="translate(1039.952 353.102)" style="fill:#455a64"/>
                <path data-name="路径 16777" d="M166.094 279.83c.095 0 .164 16.5.164 36.837s-.069 36.837-.164 36.837-.164-16.489-.164-36.837.076-36.837.164-36.837z" transform="translate(1059.593 321.207)" style="fill:#455a64"/>
                <path data-name="路径 16778" d="M101.54 408.75a2.77 2.77 0 0 1-.316-.442c-.107-.152-.227-.335-.366-.543a7.332 7.332 0 0 1-.455-.77 19.432 19.432 0 0 1-2-5.336 26.436 26.436 0 0 1-.392-8.443 33.787 33.787 0 0 1 2.741-9.984 20.733 20.733 0 0 1 2.861-4.553 11.505 11.505 0 0 1 .84-.985c.29-.316.568-.632.859-.935.632-.575 1.181-1.162 1.806-1.661a29.112 29.112 0 0 1 3.669-2.659c.632-.341 1.206-.7 1.8-.985a18.686 18.686 0 0 1 1.724-.789 19.754 19.754 0 0 1 5.507-1.465 10.41 10.41 0 0 1 1.547-.095 3.26 3.26 0 0 1 .543 0 4.2 4.2 0 0 1-.537.057 13.628 13.628 0 0 0-1.535.158 20.7 20.7 0 0 0-5.437 1.554c-.562.208-1.105.524-1.7.8a18.864 18.864 0 0 0-1.775 1 29.143 29.143 0 0 0-3.612 2.659c-.632.493-1.181 1.08-1.781 1.648-.284.3-.562.632-.846.922a12.231 12.231 0 0 0-.821.979 20.523 20.523 0 0 0-2.817 4.49 33.856 33.856 0 0 0-2.734 9.877 26.675 26.675 0 0 0 .316 8.361 20.409 20.409 0 0 0 1.895 5.324 6.721 6.721 0 0 0 .429.783l.335.562a4.068 4.068 0 0 1 .252.471z" transform="translate(1084.684 288.316)" style="fill:#455a64"/>
            </g>
        </g>
    </g>
</svg>
