<svg xmlns="http://www.w3.org/2000/svg" width="470" height="260" viewBox="0 0 470 260">
    <defs>
        <clipPath id="cex37cayoa">
            <path data-name="矩形 8629" transform="translate(1047 444)" style="stroke:#707070;fill:#fff" d="M0 0h470v260H0z"/>
        </clipPath>
    </defs>
    <g data-name="蒙版组 2346" transform="translate(-1047 -444)" style="clip-path:url(#cex37cayoa)">
        <g data-name="Operating system-rafiki">
            <path data-name="矩形 10100" transform="translate(1099.149 669.506)" style="fill:#ebebeb" d="M0 0h344.389v.172H0z"/>
            <path data-name="矩形 10101" transform="translate(1386.218 680.588)" style="fill:#ebebeb" d="M0 0h22.812v.172H0z"/>
            <path data-name="矩形 10102" transform="translate(1321.301 682.462)" style="fill:#ebebeb" d="M0 0h5.985v.172H0z"/>
            <path data-name="矩形 10103" transform="translate(1372.312 674.197)" style="fill:#ebebeb" d="M0 0h13.218v.172H0z"/>
            <path data-name="矩形 10104" transform="translate(1135.282 675.354)" style="fill:#ebebeb" d="M0 0h29.748v.172H0z"/>
            <path data-name="矩形 10105" transform="translate(1171.168 675.354)" style="fill:#ebebeb" d="M0 0h4.36v.172H0z"/>
            <path data-name="矩形 10106" transform="translate(1189.703 678.26)" style="fill:#ebebeb" d="M0 0h64.525v.172H0z"/>
            <path data-name="路径 16908" d="M175.132 249.786h-133a3.933 3.933 0 0 1-3.926-3.933V58.9a3.933 3.933 0 0 1 3.93-3.9h133a3.933 3.933 0 0 1 3.933 3.933v186.921a3.933 3.933 0 0 1-3.937 3.932zm-133-194.649a3.761 3.761 0 0 0-3.75 3.763v186.954a3.761 3.761 0 0 0 3.754 3.761h133a3.768 3.768 0 0 0 3.761-3.761V58.9a3.768 3.768 0 0 0-3.761-3.761z" transform="translate(1087.257 389)" style="fill:#ebebeb"/>
            <path data-name="路径 16909" d="M391.436 249.786h-133a3.94 3.94 0 0 1-3.933-3.933V58.9a3.94 3.94 0 0 1 3.933-3.9h133a3.933 3.933 0 0 1 3.919 3.9v186.954a3.933 3.933 0 0 1-3.919 3.932zm-133-194.649a3.768 3.768 0 0 0-3.761 3.761v186.956a3.768 3.768 0 0 0 3.761 3.761h133a3.768 3.768 0 0 0 3.761-3.761V58.9a3.768 3.768 0 0 0-3.761-3.761z" transform="translate(1019.943 389)" style="fill:#ebebeb"/>
            <path data-name="路径 16910" d="M434.765 73.5v-2.959l-1.5-.145a7.942 7.942 0 0 0-1.136-2.755l.978-1.178-2.069-2.063-1.219.971a7.941 7.941 0 0 0-2.755-1.136l-.138-1.522h-2.962l-.145 1.522a7.908 7.908 0 0 0-2.755 1.136l-1.185-.978-2.066 2.066.985 1.205a7.81 7.81 0 0 0-1.136 2.755l-1.522.145v2.955l1.522.145a7.811 7.811 0 0 0 1.136 2.755l-.978 1.178 2.066 2.066 1.185-.978a7.907 7.907 0 0 0 2.755 1.136l.145 1.522h2.962l.138-1.522a7.942 7.942 0 0 0 2.755-1.136l1.185.978 2.066-2.066-.978-1.178a7.941 7.941 0 0 0 1.136-2.755zm-9.306 2.5a4.009 4.009 0 1 1 4-4.009 4.009 4.009 0 0 1-4 4.009z" transform="translate(969.637 386.6)" style="fill:#e0e0e0"/>
            <path data-name="路径 16911" d="M454 86.671v-2.314l-1.2-.09a6.2 6.2 0 0 0-.889-2.135l.771-.93-1.639-1.639-.9.744a6.151 6.151 0 0 0-2.142-.9l-.11-1.192h-2.314l-.152 1.226a6.2 6.2 0 0 0-2.142.9l-.923-.771-1.639 1.639.765.93a6.3 6.3 0 0 0-.889 2.135l-1.192.117v2.314l1.192.117a6.2 6.2 0 0 0 .889 2.135l-.765.93 1.639 1.639.9-.806a6.2 6.2 0 0 0 2.142.9l.117 1.192h2.314l.11-1.192a6.151 6.151 0 0 0 2.142-.9l.93.771 1.639-1.639-.771-.93a6.2 6.2 0 0 0 .889-2.135zm-7.3 1.984a3.141 3.141 0 1 1 3.134-3.141 3.141 3.141 0 0 1-3.134 3.141z" transform="translate(962.395 381.773)" style="fill:#e0e0e0"/>
            <path data-name="路径 16912" d="M437.643 96.841v-1.949l-1-.1a5.138 5.138 0 0 0-.751-1.8l.647-.778-1.378-1.378-.778.647a5.269 5.269 0 0 0-1.8-.751l-.1-1h-1.942l-.1 1a5.269 5.269 0 0 0-1.8.751l-.778-.647-1.363 1.384.641.778a5.256 5.256 0 0 0-.744 1.8l-1.006.1v1.949l1.006.09a5.256 5.256 0 0 0 .744 1.8l-.641.778 1.378 1.378.778-.641a5.124 5.124 0 0 0 1.8.744l.1 1.006h1.942l.1-1.006a5.124 5.124 0 0 0 1.8-.744l.778.641 1.378-1.378-.647-.778a5.14 5.14 0 0 0 .751-1.8zM431.52 98.5a2.638 2.638 0 1 1 2.631-2.638 2.638 2.638 0 0 1-2.631 2.638z" transform="translate(966.758 378.188)" style="fill:#e0e0e0"/>
            <path data-name="路径 16913" d="m48.432 321.4 15.387-102.272V321.4h4.133V218.487L83.366 321.4h4.422L68.5 192.582l-.551.083v-4.195h-4.13v4.174l-.565-.062L43.92 321.4z" transform="translate(1085.48 347.461)" style="fill:#e0e0e0"/>
            <path data-name="路径 16914" d="M87.32 199.105H44.74l3.451-35.575h35.685z" transform="translate(1085.225 355.223)" style="fill:#ebebeb"/>
            <text data-name="1.011100010101e+57" transform="translate(1143.307 458.918)" style="font-size:7px;font-family:Helvetica;fill:#e0e0e0"><tspan x="0" y="0" style="letter-spacing:.026em">1</tspan><tspan y="0" style="letter-spacing:.016em">0</tspan><tspan y="0" style="letter-spacing:.018em">11</tspan><tspan y="0" style="letter-spacing:.026em">1</tspan><tspan y="0" style="letter-spacing:.023em">00</tspan><tspan y="0" style="letter-spacing:.016em">0</tspan><tspan y="0" style="letter-spacing:.026em">1</tspan><tspan y="0" style="letter-spacing:.016em">0</tspan><tspan y="0" style="letter-spacing:.026em">1</tspan><tspan y="0" style="letter-spacing:.016em">0</tspan><tspan y="0" style="letter-spacing:.026em">1</tspan><tspan y="0" style="letter-spacing:.023em">00</tspan><tspan y="0" style="letter-spacing:.016em">0</tspan><tspan y="0" style="letter-spacing:.026em">1</tspan><tspan y="0" style="letter-spacing:.016em">0</tspan><tspan y="0" style="letter-spacing:.026em">1</tspan><tspan y="0" style="letter-spacing:.016em">0</tspan><tspan y="0" style="letter-spacing:.026em">1</tspan><tspan y="0" style="letter-spacing:.016em">0</tspan><tspan y="0" style="letter-spacing:.026em">1</tspan><tspan y="0" style="letter-spacing:.016em">0</tspan><tspan y="0" style="letter-spacing:.026em">1</tspan><tspan y="0" style="letter-spacing:.016em">0</tspan><tspan y="0" style="letter-spacing:.026em">1</tspan><tspan y="0" style="letter-spacing:.016em">0</tspan><tspan y="0" style="letter-spacing:.026em">1</tspan><tspan y="0" style="letter-spacing:.016em">0</tspan><tspan y="0" style="letter-spacing:.026em">1</tspan><tspan y="0" style="letter-spacing:.016em">0</tspan><tspan y="0" style="letter-spacing:.026em">1</tspan><tspan y="0" style="letter-spacing:.023em">000000</tspan><tspan y="0" style="letter-spacing:.016em">0</tspan><tspan y="0" style="letter-spacing:.018em">11111</tspan><tspan y="0" style="letter-spacing:.026em">1</tspan><tspan y="0" style="letter-spacing:.023em">0</tspan><tspan y="0" style="letter-spacing:.016em">0</tspan><tspan y="0" style="letter-spacing:.026em">1</tspan><tspan y="0" style="letter-spacing:.016em">0</tspan><tspan y="0" style="letter-spacing:.018em">111</tspan><tspan y="0" style="letter-spacing:.026em">1</tspan><tspan y="0" style="letter-spacing:.016em">0</tspan><tspan y="0" style="letter-spacing:.026em">1</tspan><tspan y="0" style="letter-spacing:.016em">0</tspan><tspan y="0">1</tspan></text>
            <text data-name="1.011100010101e+54" transform="translate(1197.341 624.838)" style="font-size:7px;font-family:Helvetica;fill:#e0e0e0"><tspan x="0" y="0" style="letter-spacing:.026em">1</tspan><tspan y="0" style="letter-spacing:.016em">0</tspan><tspan y="0" style="letter-spacing:.018em">11</tspan><tspan y="0" style="letter-spacing:.026em">1</tspan><tspan y="0" style="letter-spacing:.023em">00</tspan><tspan y="0" style="letter-spacing:.016em">0</tspan><tspan y="0" style="letter-spacing:.026em">1</tspan><tspan y="0" style="letter-spacing:.016em">0</tspan><tspan y="0" style="letter-spacing:.026em">1</tspan><tspan y="0" style="letter-spacing:.016em">0</tspan><tspan y="0" style="letter-spacing:.026em">1</tspan><tspan y="0" style="letter-spacing:.023em">00</tspan><tspan y="0" style="letter-spacing:.016em">0</tspan><tspan y="0" style="letter-spacing:.026em">1</tspan><tspan y="0" style="letter-spacing:.016em">0</tspan><tspan y="0" style="letter-spacing:.026em">1</tspan><tspan y="0" style="letter-spacing:.016em">0</tspan><tspan y="0" style="letter-spacing:.026em">1</tspan><tspan y="0" style="letter-spacing:.016em">0</tspan><tspan y="0" style="letter-spacing:.026em">1</tspan><tspan y="0" style="letter-spacing:.016em">0</tspan><tspan y="0" style="letter-spacing:.026em">1</tspan><tspan y="0" style="letter-spacing:.023em">00</tspan><tspan y="0" style="letter-spacing:.016em">0</tspan><tspan y="0" style="letter-spacing:.018em">1111</tspan><tspan y="0" style="letter-spacing:.026em">1</tspan><tspan y="0" style="letter-spacing:.016em">0</tspan><tspan y="0" style="letter-spacing:.026em">1</tspan><tspan y="0" style="letter-spacing:.016em">0</tspan><tspan y="0" style="letter-spacing:.026em">1</tspan><tspan y="0" style="letter-spacing:.016em">0</tspan><tspan y="0" style="letter-spacing:.026em">1</tspan><tspan y="0" style="letter-spacing:.023em">000</tspan><tspan y="0" style="letter-spacing:.016em">0</tspan><tspan y="0" style="letter-spacing:.018em">11</tspan><tspan y="0" style="letter-spacing:.026em">1</tspan><tspan y="0" style="letter-spacing:.016em">0</tspan><tspan y="0" style="letter-spacing:.026em">1</tspan><tspan y="0" style="letter-spacing:.016em">0</tspan><tspan y="0" style="letter-spacing:.026em">1</tspan><tspan y="0" style="letter-spacing:.023em">0000</tspan><tspan y="0">0</tspan></text>
            <text data-name="1.01010001010101e+39" transform="translate(1158.005 484.424)" style="font-size:7px;font-family:Helvetica;fill:#e0e0e0"><tspan x="0" y="0" style="letter-spacing:.016em">0</tspan><tspan y="0" style="letter-spacing:.026em">1</tspan><tspan y="0" style="letter-spacing:.016em">0</tspan><tspan y="0" style="letter-spacing:.026em">1</tspan><tspan y="0" style="letter-spacing:.016em">0</tspan><tspan y="0" style="letter-spacing:.026em">1</tspan><tspan y="0" style="letter-spacing:.023em">00</tspan><tspan y="0" style="letter-spacing:.016em">0</tspan><tspan y="0" style="letter-spacing:.026em">1</tspan><tspan y="0" style="letter-spacing:.016em">0</tspan><tspan y="0" style="letter-spacing:.026em">1</tspan><tspan y="0" style="letter-spacing:.016em">0</tspan><tspan y="0" style="letter-spacing:.026em">1</tspan><tspan y="0" style="letter-spacing:.016em">0</tspan><tspan y="0" style="letter-spacing:.026em">1</tspan><tspan y="0" style="letter-spacing:.023em">000000</tspan><tspan y="0" style="letter-spacing:.016em">0</tspan><tspan y="0" style="letter-spacing:.018em">11111</tspan><tspan y="0" style="letter-spacing:.026em">1</tspan><tspan y="0" style="letter-spacing:.023em">0</tspan><tspan y="0" style="letter-spacing:.016em">0</tspan><tspan y="0" style="letter-spacing:.026em">1</tspan><tspan y="0" style="letter-spacing:.016em">0</tspan><tspan y="0" style="letter-spacing:.018em">111</tspan><tspan y="0" style="letter-spacing:.026em">1</tspan><tspan y="0" style="letter-spacing:.016em">0</tspan><tspan y="0" style="letter-spacing:.026em">1</tspan><tspan y="0" style="letter-spacing:.016em">0</tspan><tspan y="0">1</tspan></text>
            <text data-name="1.01010001010101e+39" transform="translate(1211.585 653.905)" style="font-size:7px;font-family:Helvetica;fill:#e0e0e0"><tspan x="0" y="0" style="letter-spacing:.016em">0</tspan><tspan y="0" style="letter-spacing:.026em">1</tspan><tspan y="0" style="letter-spacing:.016em">0</tspan><tspan y="0" style="letter-spacing:.026em">1</tspan><tspan y="0" style="letter-spacing:.016em">0</tspan><tspan y="0" style="letter-spacing:.026em">1</tspan><tspan y="0" style="letter-spacing:.023em">00</tspan><tspan y="0" style="letter-spacing:.016em">0</tspan><tspan y="0" style="letter-spacing:.026em">1</tspan><tspan y="0" style="letter-spacing:.016em">0</tspan><tspan y="0" style="letter-spacing:.026em">1</tspan><tspan y="0" style="letter-spacing:.016em">0</tspan><tspan y="0" style="letter-spacing:.026em">1</tspan><tspan y="0" style="letter-spacing:.016em">0</tspan><tspan y="0" style="letter-spacing:.026em">1</tspan><tspan y="0" style="letter-spacing:.023em">000000</tspan><tspan y="0" style="letter-spacing:.016em">0</tspan><tspan y="0" style="letter-spacing:.018em">11111</tspan><tspan y="0" style="letter-spacing:.026em">1</tspan><tspan y="0" style="letter-spacing:.023em">0</tspan><tspan y="0" style="letter-spacing:.016em">0</tspan><tspan y="0" style="letter-spacing:.026em">1</tspan><tspan y="0" style="letter-spacing:.016em">0</tspan><tspan y="0" style="letter-spacing:.018em">111</tspan><tspan y="0" style="letter-spacing:.026em">1</tspan><tspan y="0" style="letter-spacing:.016em">0</tspan><tspan y="0" style="letter-spacing:.026em">1</tspan><tspan y="0" style="letter-spacing:.016em">0</tspan><tspan y="0">1</tspan></text>
            <text data-name="1.01010001010101e+39" transform="translate(1255.715 638.524)" style="font-size:7px;font-family:Helvetica;fill:#e0e0e0"><tspan x="0" y="0" style="letter-spacing:.016em">0</tspan><tspan y="0" style="letter-spacing:.026em">1</tspan><tspan y="0" style="letter-spacing:.016em">0</tspan><tspan y="0" style="letter-spacing:.026em">1</tspan><tspan y="0" style="letter-spacing:.016em">0</tspan><tspan y="0" style="letter-spacing:.026em">1</tspan><tspan y="0" style="letter-spacing:.023em">00</tspan><tspan y="0" style="letter-spacing:.016em">0</tspan><tspan y="0" style="letter-spacing:.026em">1</tspan><tspan y="0" style="letter-spacing:.016em">0</tspan><tspan y="0" style="letter-spacing:.026em">1</tspan><tspan y="0" style="letter-spacing:.016em">0</tspan><tspan y="0" style="letter-spacing:.026em">1</tspan><tspan y="0" style="letter-spacing:.016em">0</tspan><tspan y="0" style="letter-spacing:.026em">1</tspan><tspan y="0" style="letter-spacing:.023em">000000</tspan><tspan y="0" style="letter-spacing:.016em">0</tspan><tspan y="0" style="letter-spacing:.018em">11111</tspan><tspan y="0" style="letter-spacing:.026em">1</tspan><tspan y="0" style="letter-spacing:.023em">0</tspan><tspan y="0" style="letter-spacing:.016em">0</tspan><tspan y="0" style="letter-spacing:.026em">1</tspan><tspan y="0" style="letter-spacing:.016em">0</tspan><tspan y="0" style="letter-spacing:.018em">111</tspan><tspan y="0" style="letter-spacing:.026em">1</tspan><tspan y="0" style="letter-spacing:.016em">0</tspan><tspan y="0" style="letter-spacing:.026em">1</tspan><tspan y="0" style="letter-spacing:.016em">0</tspan><tspan y="0">1</tspan></text>
            <text data-name="1.0101000101010101e+49" transform="translate(1158.005 497.214)" style="font-size:7px;font-family:Helvetica;fill:#e0e0e0"><tspan x="0" y="0" style="letter-spacing:.016em">0</tspan><tspan y="0" style="letter-spacing:.026em">1</tspan><tspan y="0" style="letter-spacing:.016em">0</tspan><tspan y="0" style="letter-spacing:.026em">1</tspan><tspan y="0" style="letter-spacing:.016em">0</tspan><tspan y="0" style="letter-spacing:.026em">1</tspan><tspan y="0" style="letter-spacing:.023em">00</tspan><tspan y="0" style="letter-spacing:.016em">0</tspan><tspan y="0" style="letter-spacing:.026em">1</tspan><tspan y="0" style="letter-spacing:.016em">0</tspan><tspan y="0" style="letter-spacing:.026em">1</tspan><tspan y="0" style="letter-spacing:.016em">0</tspan><tspan y="0" style="letter-spacing:.026em">1</tspan><tspan y="0" style="letter-spacing:.016em">0</tspan><tspan y="0" style="letter-spacing:.026em">1</tspan><tspan y="0" style="letter-spacing:.016em">0</tspan><tspan y="0" style="letter-spacing:.026em">1</tspan><tspan y="0" style="letter-spacing:.016em">0</tspan><tspan y="0" style="letter-spacing:.026em">1</tspan><tspan y="0" style="letter-spacing:.016em">0</tspan><tspan y="0" style="letter-spacing:.026em">1</tspan><tspan y="0" style="letter-spacing:.016em">0</tspan><tspan y="0" style="letter-spacing:.026em">1</tspan><tspan y="0" style="letter-spacing:.016em">0</tspan><tspan y="0" style="letter-spacing:.026em">1</tspan><tspan y="0" style="letter-spacing:.023em">000000</tspan><tspan y="0" style="letter-spacing:.016em">0</tspan><tspan y="0" style="letter-spacing:.018em">11111</tspan><tspan y="0" style="letter-spacing:.026em">1</tspan><tspan y="0" style="letter-spacing:.023em">0</tspan><tspan y="0" style="letter-spacing:.016em">0</tspan><tspan y="0" style="letter-spacing:.026em">1</tspan><tspan y="0" style="letter-spacing:.016em">0</tspan><tspan y="0" style="letter-spacing:.018em">111</tspan><tspan y="0" style="letter-spacing:.026em">1</tspan><tspan y="0" style="letter-spacing:.016em">0</tspan><tspan y="0" style="letter-spacing:.026em">1</tspan><tspan y="0" style="letter-spacing:.016em">0</tspan><tspan y="0">1</tspan></text>
            <g transform="translate(1137.796 685.017)">
                <ellipse cx="133.547" cy="7.797" rx="133.547" ry="7.797" style="fill:#f5f5f5"/>
            </g>
            <g>
                <path data-name="路径 16915" d="M348.454 89.93v138.617a6.447 6.447 0 0 1-6.2 6.3H142.778c-3.313 0-5.779-2.976-5.779-6.3V89.93a5.758 5.758 0 0 1 5.779-5.93h199.477a6.137 6.137 0 0 1 6.199 5.93z" transform="translate(1056.513 379.975)" style="fill:#ff725e"/>
                <path data-name="路径 16916" d="M348.455 117.69v121.342a6.447 6.447 0 0 1-6.2 6.3H142.779c-3.313 0-5.779-2.976-5.779-6.3V191.8c17.55-33.75 59.386-39.219 108.365-19.486 69.335 27.94 98.909-9.977 103.09-54.624z" transform="translate(1056.512 369.489)" style="isolation:isolate;opacity:.1;fill:#fff"/>
            </g>
            <g>
                <path data-name="路径 16917" d="M317.639 276.888h-101.2a3.444 3.444 0 0 1-3.439-3.444 3.444 3.444 0 0 1 3.444-3.444h101.2a3.444 3.444 0 0 1 3.444 3.444 3.444 3.444 0 0 1-3.449 3.444z" transform="translate(1032.859 322.087)" style="opacity:.2;isolation:isolate"/>
                <path data-name="路径 16918" d="M216.755 276.51a2.755 2.755 0 0 1 0-5.51h59.813a2.755 2.755 0 0 1 0 5.51z" transform="translate(1032.548 321.776)" style="fill:#ff725e"/>
                <path data-name="路径 16919" d="M216.755 276.51a2.755 2.755 0 0 1 0-5.51h59.813a2.755 2.755 0 0 1 0 5.51z" transform="translate(1032.548 321.776)" style="opacity:.7;isolation:isolate;fill:#fff"/>
            </g>
            <g>
                <path data-name="路径 16920" d="M156.677 287.26c6.419 5.159 4.181 29.783 5.386 33.571s6.371 6.888 6.371 6.888l-7.2 8.438s-6.027-1.047-10.607-10.862 6.05-38.035 6.05-38.035z" transform="translate(1052.628 316.716)" style="fill:#263238"/>
                <path data-name="路径 16921" d="M156.677 287.26c6.419 5.159 4.181 29.783 5.386 33.571s6.371 6.888 6.371 6.888l-7.2 8.438s-6.027-1.047-10.607-10.862 6.05-38.035 6.05-38.035z" transform="translate(1052.628 316.716)" style="opacity:.2;isolation:isolate"/>
                <path data-name="路径 16922" d="M134.055 363.558s46.148-12.873 51.92 3.32-36.078 29.094-59.242 29.914-32.627-15.491-25.795-30.94z" transform="translate(1068.411 294.48)" style="fill:#ff725e"/>
                <path data-name="路径 16923" d="M134.055 363.558s46.148-12.873 51.92 3.32-36.078 29.094-59.242 29.914-32.627-15.491-25.795-30.94z" transform="translate(1068.411 294.48)" style="opacity:.2;isolation:isolate"/>
                <path data-name="路径 16924" d="M215.569 402.5a.159.159 0 0 1-.172 0 .117.117 0 0 1-.041-.145c.076-.255.847-2.486 1.619-2.721a.51.51 0 0 1 .468.138.792.792 0 0 1 .269.751 2.067 2.067 0 0 1-.723 1.047 8.92 8.92 0 0 1-1.419.93zm.2-.434a3.279 3.279 0 0 0 1.646-1.591.5.5 0 0 0-.193-.51.152.152 0 0 0-.179-.048.42.42 0 0 0-.179.1 6.316 6.316 0 0 0-1.068 2.046z" transform="translate(1032.129 281.746)" style="fill:#ff725e"/>
                <path data-name="路径 16925" d="M215.1 402.455a.138.138 0 0 1-.145-.041c-.076-.062-1.143-1.419-.964-2.328a.861.861 0 0 1 .365-.558.5.5 0 0 1 .62-.055c.558.393.489 2.2.214 2.886v.069zm-.613-2.652a.565.565 0 0 0-.179.324 3.206 3.206 0 0 0 .689 1.86c.172-.771.117-2.066-.214-2.266a.239.239 0 0 0-.269.041l-.055.041z" transform="translate(1032.556 281.819)" style="fill:#ff725e"/>
                <path data-name="路径 16926" d="M147.25 415.637a.165.165 0 0 1 .124-.117.124.124 0 0 1 .131.076c.138.234 1.192 2.342.813 3.058a.468.468 0 0 1-.42.234.771.771 0 0 1-.723-.324 2.066 2.066 0 0 1-.241-1.254 8.747 8.747 0 0 1 .317-1.674zm.165.441a3.327 3.327 0 0 0 0 2.294.51.51 0 0 0 .5.22.172.172 0 0 0 .165-.1.688.688 0 0 0 .048-.2 6.522 6.522 0 0 0-.716-2.218z" transform="translate(1053.425 276.799)" style="fill:#ff725e"/>
                <path data-name="路径 16927" d="m158.171 393.07-8.162 5.986-3.919 2.872 2.555 4.47 3.981-2.177 9.719-5.317z" transform="translate(1053.682 283.786)" style="fill:#ebb376"/>
                <path data-name="路径 16928" d="m146.995 409.61-2.466-5.434a.585.585 0 0 0-.792-.282l-2.659 1.3s-3.7 1.495-4.133 2.693c-1.378 3.513 3.781 15.67 5.386 15.677.585 0 .937-.909 1.019-1.488.255-1.846.3-6.474.537-8.01.276-1.791 2.066-3.168 2.927-3.719a.592.592 0 0 0 .181-.737z" transform="translate(1056.6 280.436)" style="fill:#263238"/>
                <path data-name="路径 16929" d="M147.409 415.586a.145.145 0 0 1 .131-.076c.1 0 1.811.172 2.342.937a.882.882 0 0 1 .138.654.5.5 0 0 1-.393.482c-.689.124-1.915-1.185-2.211-1.86v-.062a.145.145 0 0 1-.007-.076zM149.73 417a.551.551 0 0 0-.1-.358c-.331-.482-1.329-.689-1.825-.792.427.689 1.378 1.515 1.763 1.44.041 0 .124 0 .158-.22V417z" transform="translate(1053.272 276.802)" style="fill:#ff725e"/>
                <path data-name="路径 16930" d="m159.942 393.07-8.162 5.986 2.617 5.166 9.719-5.317z" transform="translate(1051.911 283.786)" style="opacity:.2;isolation:isolate"/>
                <path data-name="路径 16931" d="m156.354 405.633 2.686-.6-4.456-8.513-2.493 2.542z" transform="translate(1051.815 282.712)" style="fill:#ff725e"/>
                <path data-name="路径 16932" d="m156.354 405.633 2.686-.6-4.456-8.513-2.493 2.542z" transform="translate(1051.815 282.712)" style="opacity:.6;isolation:isolate;fill:#fff"/>
                <path data-name="路径 16933" d="m188.15 404.84 9.987 1.646 4.8.792 1.4-4.959L200 401l-10.6-3.22z" transform="translate(1040.592 282.32)" style="fill:#ebb376"/>
                <path data-name="路径 16934" d="m209.236 400.22-2.163 5.558a.6.6 0 0 0 .351.771l2.79.985s3.657 1.6 4.821 1.088c3.444-1.488 8.555-13.665 7.432-14.816-.413-.42-1.3-.034-1.777.317-1.495 1.1-4.821 4.312-6.1 5.214-1.474 1.061-3.726.73-4.7.517a.579.579 0 0 0-.654.365z" transform="translate(1034.715 283.613)" style="fill:#263238"/>
                <path data-name="路径 16935" d="m188.15 404.84 9.987 1.646L200 401l-10.6-3.22z" transform="translate(1040.592 282.32)" style="opacity:.2;isolation:isolate"/>
                <path data-name="路径 16936" d="M171.986 390.223s-41.52-24.493-55.571-23.839-15.27 14.609-9.478 22.358 16.531 9.643 16.531 9.643-7.287-10.332-6.233-13.2 5.069 6.846 5.069 6.846 25.726 3.368 48.139 5.269z" transform="translate(1066.881 292.095)" style="fill:#ff725e"/>
                <path data-name="路径 16937" d="m201.429 399.34-2.307-1.55-2.962 9.1h3.554z" transform="translate(1038.099 282.317)" style="fill:#ff725e"/>
                <path data-name="路径 16938" d="m201.429 399.34-2.307-1.55-2.962 9.1h3.554z" transform="translate(1038.099 282.317)" style="opacity:.6;isolation:isolate;fill:#fff"/>
                <path data-name="路径 16939" d="M138.481 343.653c-7.515-14.464-5.125-36.471 1.378-58.367-4.546-3.8-22.681-6.357-36.505-2.335 0 0-8.775 32.517-7.742 68.038z" transform="translate(1069.419 318.69)" style="fill:#263238"/>
                <path data-name="路径 16940" d="M130.224 284.524c-6.041 0-9.974-6.337-9.974-6.337 7.921-2.755 7.948-11.138 7.948-11.138l3.051 2.982 4.346 4.257c-3.616 2.562-1.908 4.78-.758 5.765a5.286 5.286 0 0 0 .758.565s.669 3.906-5.371 3.906z" transform="translate(1061.724 323.006)" style="fill:#ebb376"/>
                <path data-name="路径 16941" d="M138.314 281.292c-7.411.833-6.888-10.263-6.888-10.263a18.865 18.865 0 0 1 3.32.241l4.346 4.257c-3.636 2.562-1.928 4.78-.778 5.765z" transform="translate(1058.248 321.768)" style="opacity:.2;isolation:isolate"/>
                <path data-name="路径 16942" d="M149.057 254.487c-2.8 1.157-2.266 4.222 2.39 9.808 2.865-2.473 4.422-8.093 2.914-9.9s-2.852-.934-5.304.092z" transform="translate(1053.291 327.269)" style="fill:#263238"/>
                <path data-name="路径 16943" d="M148.315 265.242a19.577 19.577 0 0 1-.9 2.19c-2.755 5.641-10.731 6.736-14.258 1.157l-.041-.055c-2.328-3.754-1.453-7.26-.482-13.335a8.4 8.4 0 0 1 13.087-5.634c4.646 3.235 4.371 10.491 2.594 15.677z" transform="translate(1058.18 328.912)" style="fill:#ebb376"/>
                <path data-name="路径 16944" d="M145.525 263.406c-.11.489.062.944.379 1.013s.689-.262.771-.751-.062-.937-.372-1.013-.64.276-.778.751z" transform="translate(1053.869 324.377)" style="fill:#263238"/>
                <path data-name="路径 16945" d="M153.565 265.224c-.11.482.062.937.386 1.006s.689-.255.778-.751-.069-.944-.386-1.012-.668.268-.778.757z" transform="translate(1051.366 323.813)" style="fill:#263238"/>
                <path data-name="路径 16946" d="M150.4 265.31a17.826 17.826 0 0 0 1.378 4.7 2.9 2.9 0 0 1-2.431-.09z" transform="translate(1052.668 323.547)" style="fill:#d58745"/>
                <path data-name="路径 16947" d="M143.793 260.152a.255.255 0 0 1-.172-.083.289.289 0 0 1 0-.413 2.9 2.9 0 0 1 2.6-.689.282.282 0 0 1 .2.344.31.31 0 0 1-.365.2 2.307 2.307 0 0 0-2.066.544.3.3 0 0 1-.197.097z" transform="translate(1054.478 325.543)" style="fill:#263238"/>
                <path data-name="路径 16948" d="M157.065 262.571a.31.31 0 0 1-.22-.227 2.335 2.335 0 0 0-1.322-1.653.3.3 0 0 1-.179-.379.3.3 0 0 1 .372-.179 2.914 2.914 0 0 1 1.694 2.066.289.289 0 0 1-.214.351h-.131z" transform="translate(1050.807 325.163)" style="fill:#263238"/>
                <path data-name="路径 16949" d="M135.461 250.762c2.583 1.591 1.564 4.532-3.919 9.3-2.445-2.893-3.086-8.7-1.3-10.228s2.958-.456 5.219.928z" transform="translate(1058.932 328.597)" style="fill:#263238"/>
                <path data-name="路径 16950" d="M127.378 263.14a5.827 5.827 0 0 0 1.949 4.022c1.543 1.378 3.189.179 3.5-1.736.282-1.729-.193-4.512-2.066-5.118a2.632 2.632 0 0 0-3.383 2.832z" transform="translate(1059.507 325.145)" style="fill:#ebb376"/>
                <path data-name="路径 16951" d="M142.53 272.09a4.3 4.3 0 0 0 3.568 2.7" transform="translate(1054.79 321.437)" style="fill:none;stroke:#263238;stroke-linecap:round;stroke-linejoin:round;stroke-width:.557px"/>
                <path data-name="路径 16952" d="M148.323 264.436a2.066 2.066 0 1 1-2.066-2.066 2.066 2.066 0 0 1 2.066 2.066z" transform="translate(1054.274 324.462)" style="fill:none;stroke:#263238;stroke-linecap:round;stroke-linejoin:round;stroke-width:.557px"/>
                <path data-name="路径 16953" d="M156.493 266.116a2.066 2.066 0 1 1-2.066-2.066 2.066 2.066 0 0 1 2.066 2.066z" transform="translate(1051.731 323.939)" style="fill:none;stroke:#263238;stroke-linecap:round;stroke-linejoin:round;stroke-width:.557px"/>
                <path data-name="路径 16954" d="M150.19 266.131a1.1 1.1 0 0 1 1.453.386" transform="translate(1052.406 323.332)" style="fill:none;stroke:#263238;stroke-linecap:round;stroke-linejoin:round;stroke-width:.557px"/>
                <path data-name="路径 16955" d="M140.981 263.505s-5.985-2.521-7.1-2.755" transform="translate(1057.482 324.966)" style="fill:none;stroke:#263238;stroke-linecap:round;stroke-linejoin:round;stroke-width:.557px"/>
                <path data-name="路径 16956" d="M130.6 247.539s-.62-4.863 4.346-5.669 11.461.441 13.473-.42a3.162 3.162 0 0 1-1.426 2.108s3.788 1.378 6.771.193c0 0-1.295 3.589-2.969 4.966h1.426s-2.824 2.7-6.261 2.755-6.674-4.677-10.077-3.086a4.224 4.224 0 0 1-5.283-.847z" transform="translate(1058.511 330.973)" style="fill:#263238"/>
                <path data-name="路径 16957" d="M148.571 269.533a19.58 19.58 0 0 1-.9 2.19c-2.755 5.641-10.731 6.736-14.258 1.157l-.041-.055a8.437 8.437 0 0 1-.365-6.757l1.061-3.444.771-.765s.179 3.492.723 4.477 3.644 1.274 4.277 1.446 2.135 1.963 2.879 2.445 3.444.083 3.8.482 2.053-1.176 2.053-1.176z" transform="translate(1057.924 324.621)" style="opacity:.4;isolation:isolate"/>
                <path data-name="路径 16958" d="m110.89 353.5 14.285 15.842s15.787-.351 34.962 9.023c0 0 20.574-8.5 22.468-15.56s-43.193-2.066-43.193-2.066z" transform="translate(1064.637 296.101)" style="opacity:.2;isolation:isolate"/>
                <path data-name="路径 16959" d="m115.505 346.75 22.9 7.494s8.183-1.811 9.643-1.811 7.115 4.594 3.919 6.2-11.923 1.811-12.873 1.295-26.346-6.461-26.346-6.461z" transform="translate(1064.058 298.201)" style="fill:#ebb376"/>
                <path data-name="路径 16960" d="M100.218 283.859c5.18-1.006-3.809 30.568-1.6 35.217s10.807 7.577 10.807 7.577l-3.96 8.741s-11.709-2.211-18.08-10.332 4.374-39.562 12.833-41.203z" transform="translate(1072.555 317.782)" style="fill:#263238"/>
                <path data-name="路径 16961" d="M100.218 283.859c5.18-1.006-3.809 30.568-1.6 35.217s10.807 7.577 10.807 7.577l-3.96 8.741s-11.709-2.211-18.08-10.332 4.374-39.562 12.833-41.203z" transform="translate(1072.555 317.782)" style="opacity:.2;isolation:isolate"/>
                <path data-name="路径 16962" d="m118.071 345-4.821 9.443 4.133.889 3.788-8.692z" transform="translate(1063.903 298.746)" style="fill:#263238"/>
                <path data-name="路径 16963" d="m118.071 345-4.821 9.443 4.133.889 3.788-8.692z" transform="translate(1063.903 298.746)" style="opacity:.2;isolation:isolate;fill:#fff"/>
                <path data-name="路径 16964" d="M134 364v1.5a1.949 1.949 0 0 0 1.86 1.942h55.371a2.066 2.066 0 0 0 2-1.942V364z" transform="translate(1057.445 292.833)" style="fill:#263238"/>
                <path data-name="路径 16965" d="M134 364v1.5a1.949 1.949 0 0 0 1.86 1.942h55.371a2.066 2.066 0 0 0 2-1.942V364z" transform="translate(1057.445 292.833)" style="opacity:.2;isolation:isolate;fill:#fff"/>
                <path data-name="路径 16966" d="M164 364v1.5a1.956 1.956 0 0 0 1.867 1.942h34.7a2.066 2.066 0 0 0 2-1.942V364z" transform="translate(1048.108 292.833)" style="opacity:.2;isolation:isolate;fill:#fff"/>
                <path data-name="路径 16967" d="M166.022 353.306H202.6a2.982 2.982 0 0 0 2.659-1.963l8.389-26.318a1.453 1.453 0 0 0-1.374-2.025h-36.609a3.058 3.058 0 0 0-2.659 2.025l-8.389 26.284a1.433 1.433 0 0 0 1.405 2z" transform="translate(1047.953 305.593)" style="fill:#263238"/>
                <path data-name="路径 16968" d="M166.022 353.306H202.6a2.982 2.982 0 0 0 2.659-1.963l8.389-26.318a1.453 1.453 0 0 0-1.374-2.025h-36.609a3.058 3.058 0 0 0-2.659 2.025l-8.389 26.284a1.433 1.433 0 0 0 1.405 2z" transform="translate(1047.953 305.593)" style="opacity:.2;isolation:isolate;fill:#fff"/>
                <path data-name="路径 16969" d="M168.022 353.306h35.2a2.982 2.982 0 0 0 2.659-1.963l8.389-26.318A1.453 1.453 0 0 0 212.9 323h-35.235a3.058 3.058 0 0 0-2.659 2.025l-8.389 26.284a1.433 1.433 0 0 0 1.405 2z" transform="translate(1047.33 305.593)" style="opacity:.2;isolation:isolate;fill:#fff"/>
                <path data-name="路径 16970" d="m203.033 340.81-5.063 3.59 2.19 3.582 5.063-3.582z" transform="translate(1037.536 300.05)" style="opacity:.2;isolation:isolate;fill:#fff"/>
            </g>
            <g transform="translate(1209.864 456.219)">
                <rect data-name="矩形 10107" width="94.461" height="94.461" rx="8.74" transform="translate(0 35.185)" style="opacity:.2;isolation:isolate"/>
                <rect data-name="矩形 10108" width="79.154" height="79.154" rx="7.33" transform="translate(26.489 24.817)" style="isolation:isolate;fill:#ff725e"/>
                <rect data-name="矩形 10109" width="79.154" height="79.154" rx="7.33" transform="translate(26.489 24.817)" style="opacity:.3;isolation:isolate;fill:#fff"/>
                <path data-name="路径 16971" d="M233.951 113.5v-4.78l-2.464-.234a12.71 12.71 0 0 0-1.84-4.459l1.583-1.918-3.345-3.345-1.906 1.583a12.853 12.853 0 0 0-4.459-1.839L221.275 96h-4.783l-.212 2.508a12.854 12.854 0 0 0-4.459 1.84l-1.906-1.583-3.345 3.345 1.583 1.918a12.709 12.709 0 0 0-1.84 4.459l-2.464.234v4.779l2.464.234a12.854 12.854 0 0 0 1.84 4.459l-1.583 1.918 3.345 3.345 1.906-1.583a12.854 12.854 0 0 0 4.459 1.84l.234 2.464h4.786l.234-2.464a12.853 12.853 0 0 0 4.459-1.839l1.906 1.583 3.345-3.345-1.583-1.951a12.855 12.855 0 0 0 1.839-4.461zm-15.062 4.092a6.488 6.488 0 1 1 6.477-6.477 6.488 6.488 0 0 1-6.477 6.477z" transform="translate(-161.787 -58.251)" style="fill:#fff"/>
                <path data-name="路径 16972" d="M250.68 125.24v-3.757l-1.929-.178a9.946 9.946 0 0 0-1.438-3.467l1.237-1.494-2.609-2.653-1.494 1.237a9.944 9.944 0 0 0-3.467-1.438l-.178-1.94h-3.779l-.178 1.94a9.944 9.944 0 0 0-3.467 1.438l-1.494-1.237-2.664 2.653 1.237 1.494a9.945 9.945 0 0 0-1.438 3.467l-1.929.178v3.757l1.929.178a9.944 9.944 0 0 0 1.438 3.467l-1.237 1.494 2.653 2.653 1.494-1.237a9.945 9.945 0 0 0 3.467 1.438l.178 1.929h3.757l.178-1.929a9.945 9.945 0 0 0 3.467-1.438l1.494 1.238 2.653-2.653-1.237-1.494a9.944 9.944 0 0 0 1.438-3.467zm-11.806 3.2a5.084 5.084 0 1 1 5.084-5.084 5.084 5.084 0 0 1-5.084 5.084z" transform="translate(-159.118 -56.465)" style="fill:#fff"/>
                <path data-name="路径 16973" d="M232.9 134.564v-3.155l-1.628-.145a8.294 8.294 0 0 0-1.2-2.91l1.037-1.26-2.23-2.23-1.26 1.037a8.472 8.472 0 0 0-2.91-1.2l-.156-1.628h-3.163l-.156 1.628a8.473 8.473 0 0 0-2.91 1.2l-1.26-1.037-2.23 2.23 1.037 1.26a8.3 8.3 0 0 0-1.2 2.91l-1.628.145v3.155l1.628.156a8.473 8.473 0 0 0 1.2 2.91l-1.037 1.26 2.23 2.23 1.26-1.037a8.717 8.717 0 0 0 2.91 1.215l.156 1.617h3.155l.156-1.617a8.717 8.717 0 0 0 2.91-1.215l1.26 1.037 2.23-2.23-1.037-1.26a8.474 8.474 0 0 0 1.2-2.91zm-9.866 2.687a4.27 4.27 0 1 1 4.259-4.259 4.27 4.27 0 0 1-4.264 4.259z" transform="translate(-160.731 -55.142)" style="fill:#fff"/>
                <rect data-name="矩形 10110" width="79.154" height="79.154" rx="7.33" transform="translate(29.833 24.817)" style="opacity:.2;isolation:isolate;fill:#fff"/>
                <rect data-name="矩形 10111" width="87.326" height="87.326" rx="8.08" transform="translate(142.567 126.87)" style="opacity:.2;isolation:isolate"/>
                <rect data-name="矩形 10112" width="73.168" height="73.168" rx="6.77" transform="translate(164.507 122.199)" style="isolation:isolate;fill:#ff725e"/>
                <rect data-name="矩形 10113" width="73.168" height="73.168" rx="6.77" transform="translate(164.507 122.199)" style="opacity:.2;isolation:isolate;fill:#fff"/>
                <path data-name="路径 16974" d="M349.544 215.382a2.642 2.642 0 1 1-2.631-2.642 2.642 2.642 0 0 1 2.631 2.642z" transform="translate(-145.661 -44.844)" style="fill:#fff"/>
                <path data-name="路径 16975" d="M349.132 191.47A26.221 26.221 0 0 0 322.9 217.7h20.948a4.939 4.939 0 0 1 5.284-5.173 5.7 5.7 0 0 1 1.572.3l9.822-11.4-6.934 13.49a4.973 4.973 0 0 1 .814 2.787h21a26.233 26.233 0 0 0-26.277-26.232z" transform="translate(-148.114 -47.286)" style="fill:#fff"/>
                <rect data-name="矩形 10114" width="73.168" height="73.168" rx="6.77" transform="translate(167.595 122.199)" style="opacity:.2;isolation:isolate;fill:#fff"/>
                <rect data-name="矩形 10115" width="76.624" height="76.624" rx="7.09" transform="translate(173.448 57.08)" style="opacity:.2;isolation:isolate"/>
                <rect data-name="矩形 10116" width="64.204" height="64.204" rx="5.94" transform="translate(193.995 50.324)" style="isolation:isolate;fill:#ff725e"/>
                <rect data-name="矩形 10117" width="64.204" height="64.204" rx="5.94" transform="translate(193.995 50.324)" style="isolation:isolate;opacity:.1;fill:#fff"/>
                <path data-name="路径 16976" d="M388.675 122.107a2.107 2.107 0 0 0-2.107-2.107h-31.461a2.107 2.107 0 0 0-2.107 2.107v6.934a2.107 2.107 0 0 0 2.107 2.107h31.461a2.107 2.107 0 0 0 2.107-2.107zm-10.39 3.757h-1.806v-1.806h1.806zm4.827.9a1.807 1.807 0 1 0-.011 0z" transform="translate(-144.657 -55.495)" style="fill:#fff"/>
                <path data-name="路径 16977" d="M388.675 133.107a2.107 2.107 0 0 0-2.107-2.107h-31.461a2.107 2.107 0 0 0-2.107 2.107v6.934a2.107 2.107 0 0 0 2.107 2.107h31.461a2.107 2.107 0 0 0 2.107-2.107zm-10.39 4.459h-1.806v-1.806h1.806zm4.827.9a.749.749 0 1 0-.011-.011z" transform="translate(-144.657 -54.231)" style="fill:#fff"/>
                <path data-name="路径 16978" d="M388.675 144.107a2.107 2.107 0 0 0-2.107-2.107h-31.461a2.107 2.107 0 0 0-2.107 2.107v6.934a2.107 2.107 0 0 0 2.107 2.107h31.461a2.107 2.107 0 0 0 2.107-2.107zm-10.39 5.151h-1.806v-1.806h1.806zm4.827.9a1.819 1.819 0 1 0-.011 0z" transform="translate(-144.657 -52.968)" style="fill:#fff"/>
                <rect data-name="矩形 10118" width="64.204" height="64.204" rx="5.94" transform="translate(196.715 50.324)" style="opacity:.2;isolation:isolate;fill:#fff"/>
                <rect data-name="矩形 10119" width="94.461" height="94.461" rx="8.74" transform="translate(48.485 116.413)" style="opacity:.2;isolation:isolate"/>
                <rect data-name="矩形 10120" width="79.154" height="79.154" rx="7.33" transform="translate(70.648 109.735)" style="isolation:isolate;fill:#ff725e"/>
                <rect data-name="矩形 10121" width="79.154" height="79.154" rx="7.33" transform="translate(70.648 109.735)" style="opacity:.5;isolation:isolate;fill:#fff"/>
                <path data-name="路径 16979" d="M245.537 218.054a6.187 6.187 0 0 1 0-8.752l14.493-14.426a3.467 3.467 0 0 1 4.928 0l3.813 3.8a3.478 3.478 0 0 1 0 4.939l-14.437 14.437a6.165 6.165 0 0 1-8.8 0z" transform="translate(-157.207 -47.013)" style="fill:#fff"/>
                <path data-name="路径 16980" d="m269.5 196.3-2.843-2.843 16.31-16.31 3.556-.714-.714 3.556z" transform="translate(-154.573 -49.014)" style="fill:#fff"/>
                <path data-name="路径 16981" d="m268.323 198.361-5.017-5.028a1.115 1.115 0 0 1 0-1.617 1.115 1.115 0 0 1 1.628 0l5.017 5.017a1.115 1.115 0 0 1 0 1.628 1.115 1.115 0 0 1-1.628 0z" transform="translate(-154.998 -47.299)" style="fill:#fff"/>
                <path data-name="路径 16982" d="m263.781 190.617-6.879-6.9c1.282-3.445-1.315-7.681-4.136-8.8l-.056 5.307a2.23 2.23 0 0 1-4.459 0v-5.217a7.336 7.336 0 0 0-4.571 6.422 6.812 6.812 0 0 0 5.953 6.689 5.875 5.875 0 0 0 3.345-.468l6.934 6.957z" transform="translate(-157.212 -49.187)" style="fill:#fff"/>
                <path data-name="路径 16983" d="M283.852 214.01v5.273a7.336 7.336 0 0 0 4.571-6.422 6.823 6.823 0 0 0-5.8-6.789 5.362 5.362 0 0 0-3.177.312l-7.2-7.224-3.947 3.947 7.157 7.168c-2.074 4.236 1.115 7.8 3.98 8.919v-5.24a2.208 2.208 0 1 1 4.415.056z" transform="translate(-154.385 -46.403)" style="fill:#fff"/>
                <rect data-name="矩形 10122" width="79.154" height="79.154" rx="7.33" transform="translate(73.993 109.735)" style="opacity:.2;isolation:isolate;fill:#fff"/>
                <rect data-name="矩形 10123" width="95.409" height="95.409" rx="8.83" transform="rotate(180 105.287 47.705)" style="isolation:isolate;fill:#ff725e"/>
                <rect data-name="矩形 10125" width="95.409" height="95.409" rx="8.83" transform="rotate(180 105.287 47.705)" style="opacity:.5;isolation:isolate;fill:#fff"/>
                <path data-name="路径 16984" d="M315.187 78.41 286 89.871s3.69 40.135 29.22 47.66c25.541-7.525 29.231-47.66 29.231-47.66zm-.736 38.864a2.062 2.062 0 0 1-1.617.814 2.029 2.029 0 0 1-1.617-.847l-10.245-14.125a2.019 2.019 0 0 1 3.266-2.375l8.651 11.907 14.136-18.663a2.018 2.018 0 0 1 2.82-.39 2.23 2.23 0 0 1 .39 2.954z" transform="translate(-152.352 -60.271)" style="fill:#fff"/>
                <rect data-name="矩形 10126" width="95.409" height="95.409" rx="8.83" transform="rotate(180 107.299 47.705)" style="opacity:.2;isolation:isolate;fill:#fff"/>
            </g>
            <g>
                <path data-name="矩形 10127" style="fill:#ff725e" d="M0 0h58.718v39.625H0z" transform="translate(1061.713 480.306)"/>
                <path data-name="矩形 10128" style="opacity:.7;isolation:isolate;fill:#fff" d="M0 0h58.718v39.625H0z" transform="translate(1061.713 480.306)"/>
                <path data-name="矩形 10129" transform="translate(1062.801 483.357)" style="fill:#263238" d="M0 0h56.39v35.252H0z"/>
                <path data-name="矩形 10130" transform="translate(1065.384 488.819)" style="fill:#e0e0e0" d="M0 0h46.362v1.033H0z"/>
                <path data-name="矩形 10131" transform="translate(1065.384 491.747)" style="fill:#e0e0e0" d="M0 0h39.467v1.033H0z"/>
                <path data-name="矩形 10132" transform="translate(1065.384 494.674)" style="fill:#e0e0e0" d="M0 0h46.362v1.033H0z"/>
                <path data-name="矩形 10133" transform="translate(1065.384 497.601)" style="fill:#e0e0e0" d="M0 0h39.467v1.033H0z"/>
                <path data-name="矩形 10134" transform="translate(1065.384 500.529)" style="fill:#e0e0e0" d="M0 0h5.007v1.033H0z"/>
                <path data-name="矩形 10135" transform="translate(1065.384 503.456)" style="fill:#e0e0e0" d="M0 0h25.685v1.033H0z"/>
                <path data-name="矩形 10136" transform="translate(1065.384 506.383)" style="fill:#e0e0e0" d="M0 0h39.467v1.033H0z"/>
                <path data-name="矩形 10137" transform="translate(1065.384 509.31)" style="fill:#e0e0e0" d="M0 0h5.007v1.033H0z"/>
                <path data-name="矩形 10138" transform="translate(1065.384 512.238)" style="fill:#e0e0e0" d="M0 0h5.007v1.033H0z"/>
            </g>
            <g>
                <path data-name="矩形 10139" style="fill:#ff725e" d="M0 0h58.718v39.625H0z" transform="translate(1169.391 519.931)"/>
                <path data-name="矩形 10140" style="opacity:.7;isolation:isolate;fill:#fff" d="M0 0h58.718v39.625H0z" transform="translate(1169.391 519.931)"/>
                <path data-name="矩形 10141" transform="translate(1170.486 522.982)" style="fill:#263238" d="M0 0h56.39v35.252H0z"/>
                <path data-name="矩形 10142" transform="translate(1173.069 528.444)" style="fill:#e0e0e0" d="M0 0h46.362v1.033H0z"/>
                <path data-name="矩形 10143" transform="translate(1173.069 531.372)" style="fill:#e0e0e0" d="M0 0h39.467v1.033H0z"/>
                <path data-name="矩形 10144" transform="translate(1173.069 534.299)" style="fill:#e0e0e0" d="M0 0h46.362v1.033H0z"/>
                <path data-name="矩形 10145" transform="translate(1173.069 537.226)" style="fill:#e0e0e0" d="M0 0h39.467v1.033H0z"/>
                <path data-name="矩形 10146" transform="translate(1173.069 540.154)" style="fill:#e0e0e0" d="M0 0h5.007v1.033H0z"/>
                <path data-name="矩形 10147" transform="translate(1173.069 543.081)" style="fill:#e0e0e0" d="M0 0h25.685v1.033H0z"/>
                <path data-name="矩形 10148" transform="translate(1173.069 546.008)" style="fill:#e0e0e0" d="M0 0h39.467v1.033H0z"/>
                <path data-name="矩形 10149" transform="translate(1173.069 548.935)" style="fill:#e0e0e0" d="M0 0h5.007v1.033H0z"/>
                <path data-name="矩形 10150" transform="translate(1173.069 551.863)" style="fill:#e0e0e0" d="M0 0h5.007v1.033H0z"/>
            </g>
        </g>
    </g>
</svg>
