<svg xmlns="http://www.w3.org/2000/svg" width="470" height="260" viewBox="0 0 470 260">
    <defs>
        <clipPath id="ovq71574oa">
            <path data-name="矩形 8629" transform="translate(1047 444)" style="stroke:#707070;fill:#fff" d="M0 0h470v260H0z"/>
        </clipPath>
    </defs>
    <g data-name="蒙版组 2346" transform="translate(-1047 -444)" style="clip-path:url(#ovq71574oa)">
        <g transform="translate(1107.863 444)">
            <path data-name="路径 14544" d="m419.634 109.306-1.687-2.789c-14.269-23.483-40.025-37.641-67.2-35.922a71.6 71.6 0 0 0-10.4 1.444c-24.7 5.292-46.189 23.969-55.1 47.888C280 134 278.54 150.191 268.6 161.36c-12.937 14.531-34.9 14.992-54.214 14.388s-41.3-.087-54.164 14.5c-8.093 9.139-10.621 22.132-9.961 34.372 1.725 32.374 24.28 61.367 53.006 75.761s62.512 15.689 93.94 9.339c44.016-8.872 85.878-33.239 111.036-70.88s31.506-88.911 11.391-129.534z" transform="translate(-109.774 -70.454)" style="fill:#ebebeb"/>
            <circle data-name="椭圆 527" cx="28.271" cy="28.271" r="28.271" transform="translate(0 13.165)" style="fill:#ebebeb"/>
            <circle data-name="椭圆 528" cx="14.132" cy="14.132" r="14.132" transform="rotate(-86.26 209.404 -136.395)" style="fill:#ebebeb"/>
        </g>
        <path data-name="路径 14545" d="M423.89 359.425s6.581-4.1 9.058-3.823l14.238 3.318s1.245 1.332-1.245 2.559-5.6-.535-5.6-.535l-3.462.486 2.391 2 9.444 2.907s6.848 1.93 6.014 2.939-2.889 1.133-5.84.3l-6.7-1.868s-1.17-.255.716 1.052 10.173 3.343 11.269 3.885 4.072 1 3.735 2.7-4.059.33-4.059.33l-12.265-2.845s4.844 2.092 5.665 2.49 3.505 1.127 4.937 1.868 2.117 1.662 1.955 2.416a1.432 1.432 0 0 1-1.55 1.208l-10.378-3.567s-4.707-1.868-5.024-1.805 1.837 2.073 1.837 2.073l3.312 1.7s4.781 1.6 4.794 2.926-.984 1.276-.984 1.276l-8.716-3.007-9.731-4.931L420.41 371s1.314-5.142 1.065-5.367 2.415-6.208 2.415-6.208z" transform="translate(896.089 265.928)" style="fill:#ffbe9d"/>
        <path data-name="路径 14546" d="M431.52 372.308a16.618 16.618 0 0 1 2.347-.859 7.7 7.7 0 0 0 4.495-3.474 4.209 4.209 0 0 0 .473-2.714l-.062-.311.342-.044c1.513-.2 2.92-.529 3.872-.654a4.271 4.271 0 0 1 1.563-.087 8.029 8.029 0 0 1-1.488.442c-.965.23-2.235.623-3.928.89l.28-.355a4.632 4.632 0 0 1-.492 3.113 6.35 6.35 0 0 1-2.366 2.49 10.06 10.06 0 0 1-2.546 1.1 7 7 0 0 1-2.49.463z" transform="translate(891.895 262.707)" style="fill:#eb996e"/>
        <path data-name="路径 14547" d="m215.9 436.53-1.152-42.97 75.356 1.457 10.254 39.894-84.458 1.619" transform="translate(973.711 251.597)" style="fill:#263238"/>
        <path data-name="路径 14548" d="m254.708 200.69-5.665 5.367s-21.167 5.261-24.9 8.965-5.6 60.775-5.385 64.748 0 38.245 0 38.245-1.245 13.074 0 13.821 25 1.058 36.85 1.307 36.968.94 38.45-.293-3.679-26.82-3.679-26.82l-2.055-11.8.623-20.632 4.358-28.383 3.219-29.392s-8.635-5.18-12.831-6.17-28.985-8.963-28.985-8.963z" transform="translate(972.408 324.391)" style="fill:#455a64"/>
        <path data-name="路径 14549" d="m358.07 292.259-11.511-48.337A54.123 54.123 0 0 0 342.6 232.8c-1.787-3.667-4-7.664-5.211-7.807-7.141-.822-10.858 20.981-10.858 20.981v27.636l6.736 29.933a13.242 13.242 0 0 0 8.915 9.718l45.691 14.543 5.3-22.68z" transform="translate(931.522 315.226)" style="fill:#455a64"/>
        <path data-name="路径 14550" d="M223.2 216.77s-17.364 2.453-22.973 15.7c0 0-17.351 67.537-14.45 76.433s25.332 43.219 25.332 43.219l19.667-10.378s-19.219-39.888-19.219-44.29S223.2 216.77 223.2 216.77z" transform="translate(984.767 318.322)" style="fill:#455a64"/>
        <path data-name="路径 14551" d="M246.662 364.01a1.171 1.171 0 0 1-.112-.218c-.075-.156-.168-.374-.293-.623-.255-.591-.623-1.426-1.1-2.49l-3.972-9.2a67629.263 67629.263 0 0 0-13.66-31.969v-.037a16.314 16.314 0 0 1 .367-2.335c.162-.76.33-1.513.511-2.247a210.07 210.07 0 0 1 1.09-4.358c.741-2.845 1.463-5.6 2.142-8.2 1.382-5.211 2.609-9.893 3.6-13.827s1.756-7.122 2.285-9.339c.249-1.09.448-1.936.585-2.534.068-.28.125-.492.162-.66a.871.871 0 0 1 .068-.218 2.089 2.089 0 0 1-.037.224c-.031.168-.075.386-.131.666-.125.623-.3 1.457-.529 2.553-.486 2.21-1.208 5.4-2.185 9.339s-2.173 8.629-3.536 13.846c-.672 2.615-1.388 5.354-2.123 8.2-.361 1.426-.735 2.876-1.083 4.358a33.577 33.577 0 0 0-.865 4.5v-.062c.218.5.448 1.052.679 1.594l12.9 30.419 3.823 9.183c.442 1.083.791 1.924 1.04 2.49q.162.411.261.654c.088.21.113.291.113.291z" transform="translate(968.887 296.058)" style="fill:#263238"/>
        <path data-name="路径 14552" d="M335.99 264a1.645 1.645 0 0 1 0 .4q0 .43-.056 1.121c-.068 1.015-.156 2.409-.268 4.121-.249 3.48-.548 8.286-1.1 13.585s-1.339 10.061-1.936 13.5c-.3 1.718-.554 3.113-.741 4.065-.087.448-.162.816-.224 1.1a2.273 2.273 0 0 1-.093.386 1.682 1.682 0 0 1 .031-.392c.044-.293.093-.66.162-1.114.156-1 .374-2.384.623-4.078.535-3.443 1.283-8.206 1.837-13.491s.89-10.1 1.2-13.572c.156-1.706.28-3.113.374-4.115.044-.454.087-.828.118-1.114a1.868 1.868 0 0 1 .073-.402z" transform="translate(929.62 300.496)" style="fill:#263238"/>
        <path data-name="路径 14553" d="m230.83 427.429 1.949 3.586s9.656-3.679 14.251-9.88l-1.245-1.245z" transform="translate(967.641 241.659)" style="fill:#ffbe9d"/>
        <path data-name="路径 14554" d="M248.141 416.25a6.966 6.966 0 0 1-.554.915c-.187.293-.417.623-.716 1.033s-.623.847-1.021 1.314-.828 1-1.332 1.513-1.052 1.071-1.644 1.631a34.562 34.562 0 0 1-4.177 3.275 39.362 39.362 0 0 1-4.619 2.609 38.7 38.7 0 0 1-4.016 1.619c-.579.212-1.114.361-1.588.5s-.872.249-1.208.324a6.8 6.8 0 0 1-1.046.224 6.223 6.223 0 0 1 1.009-.342c.33-.1.735-.218 1.2-.38s.99-.324 1.563-.548c1.152-.411 2.49-.977 3.96-1.675a42.911 42.911 0 0 0 4.576-2.6 37.7 37.7 0 0 0 4.153-3.225c.591-.548 1.158-1.071 1.65-1.6s.946-1.015 1.351-1.475.741-.9 1.046-1.276.56-.716.76-1a6.344 6.344 0 0 1 .66-.841z" transform="translate(969.381 243.033)" style="fill:#455a64"/>
        <path data-name="路径 14555" d="M240.272 245.3c-.075 0 .187-1.146.131-2.982a12.046 12.046 0 0 0-.131-1.494 14.057 14.057 0 0 0-.318-1.693 16.324 16.324 0 0 0-3.642-6.917 15.981 15.981 0 0 0-1.244-1.214 11.551 11.551 0 0 0-1.164-.953c-1.482-1.083-2.565-1.507-2.534-1.569a3.112 3.112 0 0 1 .753.293 5.165 5.165 0 0 1 .847.43 10.5 10.5 0 0 1 1.071.66 11.431 11.431 0 0 1 1.208.94 14.207 14.207 0 0 1 1.245 1.214 16.634 16.634 0 0 1 2.31 3.287 16.808 16.808 0 0 1 1.407 3.735 14.481 14.481 0 0 1 .293 1.725 12.264 12.264 0 0 1 .093 1.525 9.736 9.736 0 0 1-.056 1.245 6.419 6.419 0 0 1-.125.94 4.886 4.886 0 0 1-.144.828z" transform="translate(967.438 313.902)" style="fill:#263238"/>
        <path data-name="路径 14556" d="M226 281.651c0 .087-5.753-1.245-12.794-2.92s-12.744-3.113-12.725-3.225 5.753 1.214 12.8 2.914 12.737 3.144 12.719 3.231z" transform="translate(979.096 296.156)" style="fill:#fff"/>
        <path data-name="路径 14557" d="M301.755 279.625c0 .093-12.9.386-28.806.654s-28.813.423-28.819.33 12.9-.38 28.813-.654 28.812-.418 28.812-.33z" transform="translate(962.622 294.609)" style="fill:#fff"/>
        <path data-name="路径 14558" d="M355.377 284.836a2.941 2.941 0 0 1-.7.149c-.448.081-1.108.174-1.924.286-1.625.224-3.879.492-6.375.741s-4.763.417-6.4.517c-.822.05-1.488.081-1.949.093a2.609 2.609 0 0 1-.716 0 3.936 3.936 0 0 1 .71-.112l1.936-.2 6.388-.623 6.381-.623 1.936-.187a2.869 2.869 0 0 1 .713-.041z" transform="translate(927.453 292.634)" style="fill:#fff"/>
        <path data-name="路径 14559" d="M213.31 339.66c0 .087-5.547-.623-12.352-1.612s-12.321-1.868-12.308-1.93 5.541.623 12.352 1.612 12.321 1.843 12.308 1.93z" transform="translate(983.561 273.278)" style="fill:#fff"/>
        <path data-name="路径 14560" d="M292.987 349.9c0 .087-13.36 1.083-29.883 2.223s-29.883 1.986-29.883 1.868 13.36-1.083 29.883-2.216 29.877-1.966 29.883-1.875z" transform="translate(966.739 268.079)" style="fill:#fff"/>
        <path data-name="路径 14561" d="M363.312 334.3a6.226 6.226 0 0 1-.76.679l-2.142 1.768c-1.805 1.488-4.3 3.555-7 5.877s-5.136 4.476-6.879 6.039l-2.073 1.868a5.38 5.38 0 0 1-.784.623 6.848 6.848 0 0 1 .7-.741 96.825 96.825 0 0 1 2-1.924c1.706-1.6 4.109-3.779 6.848-6.107s5.23-4.358 7.072-5.815c.928-.722 1.681-1.3 2.2-1.687a5.891 5.891 0 0 1 .818-.58z" transform="translate(925.053 273.963)" style="fill:#fff"/>
        <path data-name="路径 14562" d="M237.374 404.65a4.921 4.921 0 0 1-.791.367l-2.185.909-7.247 2.97-7.228 3.032-2.191.909a4.688 4.688 0 0 1-.822.3 4.7 4.7 0 0 1 .772-.411c.5-.249 1.245-.591 2.154-1.009 1.824-.834 4.358-1.942 7.191-3.113s5.41-2.179 7.29-2.883c.94-.355 1.7-.623 2.235-.816a4.115 4.115 0 0 1 .822-.255z" transform="translate(972.895 247.411)" style="fill:#fff"/>
        <path data-name="路径 14563" d="M412.939 349.35a4.274 4.274 0 0 1-.118.9 59.44 59.44 0 0 1-.492 2.409c-.442 2.03-1.158 4.806-2.123 7.826s-2 5.7-2.82 7.608a70.948 70.948 0 0 1-1 2.247 4.356 4.356 0 0 1-.423.8 5.6 5.6 0 0 1 .305-.847l.909-2.285c.76-1.924 1.756-4.607 2.721-7.62s1.712-5.771 2.21-7.782c.237-.959.436-1.756.591-2.378a5.268 5.268 0 0 1 .243-.872z" transform="translate(901.543 268.283)" style="fill:#fff"/>
        <path data-name="路径 14564" d="M261.186 219.55a6.16 6.16 0 0 1-1 .2l-2.727.467c-2.3.4-5.479 1.021-8.946 1.868s-6.568 1.737-8.8 2.434l-2.64.828a6.847 6.847 0 0 1-.984.28 5.9 5.9 0 0 1 .94-.4c.623-.237 1.5-.554 2.615-.928 2.216-.753 5.317-1.693 8.8-2.534s6.662-1.419 8.984-1.768c1.158-.174 2.1-.3 2.746-.367a5.858 5.858 0 0 1 1.012-.08z" transform="translate(965.656 317.273)" style="fill:#fff"/>
        <path data-name="路径 14565" d="M314.841 116.979c4.62 3.978 2.036 10.216 1.108 16.237s.149 12.632.392 18.721c.131 3.219.921 6.543-.125 9.588-1.09 3.188-3.947 5.367-6.17 7.907s-3.885 6.307-2.135 9.183a3.051 3.051 0 0 1-2.9-.4 3.533 3.533 0 0 1-4.065 1.3 10.616 10.616 0 0 1-3.81-2.49 2.162 2.162 0 0 1-2.609 1.475 5.778 5.778 0 0 1-2.752-1.818 7.521 7.521 0 0 0-2.64-2.011c-2.335-.828-5.062.946-7.328-.062-3.113-1.376-2.808-6.755-6.027-7.857-1.513-.523-3.144.193-4.732.367s-3.293-1.245-3.076-2.814c-2.733 1.139-6.226 1.681-9.034.666a3.219 3.219 0 0 0 1.133-3.082 10.415 10.415 0 0 1-6.008-.735 6.138 6.138 0 0 0 3.981-3.154 5.248 5.248 0 0 1-4.694-1.675c3.468.037 5.883-3.549 6.612-6.935s.473-7.01 1.868-10.185c1.5-3.455 4.713-5.865 6.662-9.09 2.721-4.495 2.8-10.229 5.6-14.668 1.868-2.907 3.6-5.385 6.388-7.4 3.524-2.553 5.541-3.872 9.893-3.816 3.648.05 9.886 1.065 13 2.97 5.528 3.387 11.4 7.166 13.852 13.167" transform="translate(959.142 360.799)" style="fill:#263238"/>
        <path data-name="路径 14566" d="M286.233 148.064a83.98 83.98 0 0 1 .075-14.431 29.2 29.2 0 0 1 4.775-13.485c.423-.591 3.7-4.47 4.358-4.215.486.181-1.905 3.978-1.768 4.483 1.314 4.8.623 9.961-1.021 14.674a65.121 65.121 0 0 1-6.444 12.974" transform="translate(946.835 356.385)" style="fill:#263238"/>
        <path data-name="路径 14567" d="M293.389 194.958c-7.178-2.073-20.688-16.125-18.771-23.346l11.536-43.443c2.727-11.773 11.829-20 23.539-16.946l1.065.349a21.6 21.6 0 0 1 14.35 25.525c-2.422 10.191-5.223 21.41-7.016 26.715-3.735 10.982-15.3 9.121-15.3 9.121s-.76 2.577-1.668 5.858c-2.042 7.365-6.344 14.587-7.739 16.187z" transform="translate(951.184 358.4)" style="fill:#ffbe9d"/>
        <path data-name="路径 14568" d="M312.127 205.353a28.226 28.226 0 0 1-12.987-8.9s.766 9.413 12.09 11.985z" transform="translate(941.859 325.991)" style="fill:#eb996e"/>
        <path data-name="路径 14569" d="M342.918 166.462a1.656 1.656 0 0 1-2.036 1.1 1.581 1.581 0 0 1-1.164-1.942 1.668 1.668 0 0 1 2.036-1.1 1.594 1.594 0 0 1 1.164 1.949z" transform="translate(926.564 338.068)" style="fill:#263238"/>
        <path data-name="路径 14570" d="M345.77 158.045c-.262.143-1.17-1.127-2.864-1.675s-3.212-.1-3.331-.367c-.062-.118.261-.423.928-.623a4.483 4.483 0 0 1 2.746.037 4.358 4.358 0 0 1 2.2 1.588c.39.554.446.978.321 1.04z" transform="translate(926.601 341.567)" style="fill:#263238"/>
        <path data-name="路径 14571" d="M318.028 159.262a1.656 1.656 0 0 1-2.036 1.1 1.581 1.581 0 0 1-1.164-1.942 1.668 1.668 0 0 1 2.036-1.1 1.588 1.588 0 0 1 1.164 1.949z" transform="translate(935.958 340.786)" style="fill:#263238"/>
        <path data-name="路径 14572" d="M318.881 150.029c-.261.143-1.17-1.127-2.864-1.675s-3.212-.1-3.331-.367c-.056-.125.255-.43.928-.623a4.557 4.557 0 0 1 2.752.044 4.358 4.358 0 0 1 2.2 1.588c.383.559.439.97.315 1.033z" transform="translate(936.749 344.59)" style="fill:#263238"/>
        <path data-name="路径 14573" d="M325.62 167.114a11.884 11.884 0 0 1 2.914.4c.448.093.884.143 1.052-.131a2.316 2.316 0 0 0 .131-1.376l-.212-3.735c-.255-5.267-.293-9.544-.081-9.55s.591 4.252.847 9.519q.087 1.942.156 3.735a2.671 2.671 0 0 1-.33 1.768 1.146 1.146 0 0 1-.915.4 3.182 3.182 0 0 1-.772-.137 11.5 11.5 0 0 1-2.79-.893z" transform="translate(931.865 342.496)" style="fill:#263238"/>
        <path data-name="路径 14574" d="M321.05 139.436c-.374.355-1.868-.623-3.854-1.326s-3.735-.921-3.816-1.432c0-.243.442-.523 1.245-.623a7.1 7.1 0 0 1 5.84 2.1c.573.596.772 1.107.585 1.281z" transform="translate(936.485 348.801)" style="fill:#263238"/>
        <path data-name="路径 14575" d="M346.9 151.32c-.473.274-1.737-.554-3.4-1.083s-3.156-.691-3.356-1.2c-.081-.237.255-.554.99-.735a5.6 5.6 0 0 1 2.963.224 5.491 5.491 0 0 1 2.49 1.612c.423.585.491 1.051.313 1.182z" transform="translate(926.388 344.201)" style="fill:#263238"/>
        <path data-name="路径 14576" d="M284.732 151.513c-.162-.143-6.848-4.694-9.052 2.92s5.9 8.262 5.97 8.044 3.082-10.964 3.082-10.964z" transform="translate(950.857 343.51)" style="fill:#ffbe9d"/>
        <path data-name="路径 14577" d="M281.433 160.375c0-.031-.156.056-.411.093a1.357 1.357 0 0 1-1-.268c-.722-.523-1.027-2-.666-3.381a4.5 4.5 0 0 1 .921-1.793 1.575 1.575 0 0 1 1.289-.728.7.7 0 0 1 .679.585c.044.243-.05.386 0 .411s.2-.081.23-.417a.859.859 0 0 0-.162-.56 1.058 1.058 0 0 0-.679-.411 1.967 1.967 0 0 0-1.731.784 4.7 4.7 0 0 0-1.071 1.986c-.4 1.55 0 3.212.984 3.854a1.488 1.488 0 0 0 1.245.149c.31-.124.397-.279.372-.304z" transform="translate(949.58 342.051)" style="fill:#eb996e"/>
        <path data-name="路径 14578" d="M328.421 122.031c1.432-.336-1.158-5.373-3.81-7.6-4.022-3.381-10.658-6.612-15.228-6.6-5.5 0-10.441 1.37-14.319 5.292a30.987 30.987 0 0 0-7.664 14.394 9.42 9.42 0 0 0-.23 4.981c.591 1.986 2.341 3.623 1.6 5.927a3.325 3.325 0 0 0 .137 2.553c.984 1.868 3.113.965 4.265-.218 2.49-2.521 3.7-6.039 4.806-9.426a23.262 23.262 0 0 0 1.55-7.4c0-1.376-.28-2.746-.224-4.128a4.775 4.775 0 0 1 1.612-3.661 5.145 5.145 0 0 1 .791-.448 8.262 8.262 0 0 1 8.324.7c3.872 2.727 10.584 7.054 12.906 6.132 3.349-1.326 4.4-2.49 4.4-2.49z" transform="translate(946.472 359.439)" style="fill:#263238"/>
        <path data-name="路径 14579" d="M317.442 175.2c-.112 0-.286.386-.324 1.089a4.42 4.42 0 0 0 .747 2.627 7.284 7.284 0 0 0 1.868 1.911c.548.392.934.573 1.009.486s-.174-.43-.623-.921a16.86 16.86 0 0 1-1.563-1.93c-1.056-1.562-.856-3.243-1.114-3.262z" transform="translate(935.075 334.012)" style="fill:#263238"/>
        <path data-name="路径 14580" d="M290.2 154.09v.486c.006 0 0-.176 0-.486z" transform="translate(945.234 341.979)" style="fill:#ff725e"/>
        <path data-name="路径 14581" d="M286.915 133.652s1.868-1.1 2.03 2.154c-.037-4.2.716-34.491 29.771-26.41 0 0-9.339-5.6-17.432-3.113-.012-.018-15.303 2.217-14.369 27.369z" transform="translate(946.489 360.264)" style="fill:#455a64"/>
        <path data-name="路径 14582" d="M317.466 200.291c.062.118.878-.23 1.631-1s1.1-1.575.984-1.637-.623.585-1.332 1.289-1.357 1.23-1.283 1.348z" transform="translate(934.945 325.537)" style="fill:#263238"/>
        <path data-name="路径 14583" d="M314.931 198.879c.1.093.766-.492 1.488-1.307s1.245-1.544 1.121-1.637-.772.5-1.494 1.307-1.22 1.55-1.115 1.637z" transform="translate(935.905 326.19)" style="fill:#263238"/>
        <path data-name="路径 14584" d="M313.372 197.035c.131.044.492-.672.816-1.6s.473-1.712.342-1.756-.492.672-.809 1.6-.479 1.712-.349 1.756z" transform="translate(936.505 327.038)" style="fill:#263238"/>
        <path data-name="路径 14585" d="M310.859 196.165c.137-.031 0-.946.193-2.036a15.05 15.05 0 0 0 .467-1.992c-.125-.081-.76.7-.953 1.911a2.7 2.7 0 0 0 .293 2.117z" transform="translate(937.568 327.622)" style="fill:#263238"/>
        <path data-name="路径 14586" d="M307.6 194.254c.143 0 .087-.915.218-1.986a8.948 8.948 0 0 0 .262-1.98c-.131-.056-.623.766-.753 1.918a3 3 0 0 0 .273 2.048z" transform="translate(938.781 328.318)" style="fill:#263238"/>
        <path data-name="路径 14587" d="M307.732 355.59a2.213 2.213 0 0 1-.237.193l-.71.511c-.623.436-1.531 1.046-2.665 1.787a198.486 198.486 0 0 1-18.304 10.634c-1.2.623-2.185 1.1-2.87 1.426l-.791.367c-.187.081-.28.118-.286.106a1.281 1.281 0 0 1 .255-.162l.766-.423 2.82-1.519c2.384-1.245 5.665-3.076 9.239-5.149s6.755-4.034 9.046-5.472l2.721-1.7.741-.454a1.141 1.141 0 0 1 .274-.143z" transform="translate(948.378 265.928)" style="fill:#263238"/>
        <path data-name="路径 14588" d="M372.451 332.93a23.035 23.035 0 0 0-7.751 7.3 5.5 5.5 0 0 1 .753-1.4 16.679 16.679 0 0 1 2.49-2.939 17.061 17.061 0 0 1 3.082-2.291 5.522 5.522 0 0 1 1.426-.67z" transform="translate(917.115 274.48)" style="fill:#263238"/>
        <g>
            <path data-name="路径 14589" d="M348.393 319.932s-22.12 2.621-30.3 9.158a28.015 28.015 0 0 0-3.592 3.5 37.491 37.491 0 0 0-8.9 21.261l-2.961 32.529.237 5.373a15.732 15.732 0 0 0 15.664 15.035l91.406.623a43.992 43.992 0 0 0 8.859-34.179c-.741-4.887-1.924-21.647-6.556-31.963-2.447-5.454-6.195-12.19-16.087-14.817l-23.091-6.531z" transform="translate(940.539 279.391)" style="fill:#263238"/>
            <path data-name="路径 14590" d="M338.3 351.959a3.569 3.569 0 0 1-.187-.728c-.1-.467-.255-1.146-.461-1.98a42.741 42.741 0 0 0-2.142-6.35 42.063 42.063 0 0 0-3.15-5.908c-.467-.728-.853-1.3-1.133-1.7a4.123 4.123 0 0 1-.4-.623 3.244 3.244 0 0 1 .5.56c.305.374.722.934 1.214 1.644a35.317 35.317 0 0 1 3.262 5.914 35.731 35.731 0 0 1 2.067 6.406c.181.847.3 1.538.361 2.017a3.055 3.055 0 0 1 .062.747z" transform="translate(929.899 273.823)" style="fill:#455a64"/>
            <path data-name="路径 14591" d="M346.54 402.721c-.093 0-1.071-7.1-2.185-15.882s-1.949-15.913-1.868-15.919 1.065 7.1 2.185 15.882 1.955 15.919 1.868 15.919z" transform="translate(925.502 260.142)" style="fill:#455a64"/>
            <path data-name="路径 14592" d="M336.827 362.933a7.04 7.04 0 0 1-1.556-.66 28.271 28.271 0 0 1-6.655-4.688 6.61 6.61 0 0 1-1.146-1.245 12.648 12.648 0 0 1 1.295 1.077c.791.672 1.9 1.575 3.194 2.49a37.043 37.043 0 0 0 3.418 2.16 11.442 11.442 0 0 1 1.451.865z" transform="translate(931.167 265.645)" style="fill:#455a64"/>
            <path data-name="路径 14593" d="M437.626 362.269a6.7 6.7 0 0 1 0-1.114 12.266 12.266 0 0 1 .087-1.3c.056-.5.093-1.083.218-1.712a20.066 20.066 0 0 1 .417-2.054c.156-.741.4-1.507.623-2.316a29 29 0 0 1 5.385-9.563c.567-.623 1.09-1.245 1.637-1.762a20.743 20.743 0 0 1 1.544-1.419c.473-.436.946-.766 1.351-1.077a11.233 11.233 0 0 1 1.065-.747 7.529 7.529 0 0 1 .953-.573 7.225 7.225 0 0 1-.878.672c-.293.205-.623.461-1.027.791s-.853.666-1.314 1.1-.99.9-1.5 1.438-1.046 1.139-1.6 1.768a30.251 30.251 0 0 0-5.329 9.469c-.255.8-.517 1.55-.679 2.279s-.336 1.407-.454 2.03-.187 1.2-.261 1.7-.118.928-.143 1.289a8.161 8.161 0 0 1-.095 1.101z" transform="translate(889.6 272.329)" style="fill:#455a64"/>
            <path data-name="路径 14594" d="M422.946 416.474a3.369 3.369 0 0 1-.068-1.146 3.455 3.455 0 0 1 1.637-2.677 28.253 28.253 0 0 1 9.351-6.518l-.093.131c.125-1.17.255-2.384.349-3.636a107.154 107.154 0 0 0 .187-13.7c-.081-1.749-.205-3.169-.274-4.146-.037-.461-.068-.834-.093-1.127a1.757 1.757 0 0 1 0-.4 1.66 1.66 0 0 1 .075.392c.044.286.093.66.156 1.121.106.977.268 2.391.38 4.146a96.35 96.35 0 0 1-.093 13.74 96.806 96.806 0 0 1-.355 3.648v.093l-.087.037a28.944 28.944 0 0 0-9.339 6.369 3.305 3.305 0 0 0-1.214 1.245 3.4 3.4 0 0 0-.4 1.245 9.483 9.483 0 0 0-.119 1.183z" transform="translate(895.166 255.484)" style="fill:#455a64"/>
            <path data-name="路径 14595" d="M455.744 427.6c-.056.031-.529-.865-1.569-2.111a16.106 16.106 0 0 0-4.881-3.935 15.643 15.643 0 0 0-3.225-1.245 12.243 12.243 0 0 0-2.8-.367c-1.619 0-2.621.187-2.627.125a2.888 2.888 0 0 1 .691-.168 12.738 12.738 0 0 1 1.936-.187 11.25 11.25 0 0 1 2.87.311 14.786 14.786 0 0 1 3.306 1.245 15.165 15.165 0 0 1 4.912 4.078 12.549 12.549 0 0 1 1.077 1.612 2.979 2.979 0 0 1 .31.642z" transform="translate(888.454 241.728)" style="fill:#455a64"/>
            <path data-name="路径 14596" d="M455.62 417.849c0 .056-.76-.293-2.023-.623a15.4 15.4 0 0 0-2.241-.386 21.41 21.41 0 0 0-2.8-.075 25.391 25.391 0 0 0-5.018.766 18.662 18.662 0 0 1-2.042.554 2.017 2.017 0 0 1 .511-.249 13.937 13.937 0 0 1 1.469-.523 20.993 20.993 0 0 1 5.068-.872 19.86 19.86 0 0 1 2.839.1 14.136 14.136 0 0 1 2.272.461 8.72 8.72 0 0 1 .84.286 4.471 4.471 0 0 1 .623.261 1.949 1.949 0 0 1 .5.3z" transform="translate(888.129 242.965)" style="fill:#455a64"/>
            <path data-name="路径 14597" d="M404.2 245.107c-1.824-7.745-5.08-15.658-11.505-20.364-5.715-4.19-14.058-5.784-21.13-5.261-3.48.262-7.365 2-10.347 3.816-4.084 2.49-5.7 7.328-7.564 11.736-3.735 8.834-2.845 20.595 0 23.782l36.975 18.017c6.332-3.561 13.186-8.355 14.662-15.458.992-4.844.046-11.456-1.091-16.268z" transform="translate(922.219 317.335)" style="fill:#ff725e"/>
            <path data-name="路径 14598" d="m391.674 234.963-23.1-6c-7.409-.834-12.4 8.262-12.918 15.7-.573 8.255-.953 18.366 0 24.536 1.868 12.408 11.381 15.353 11.381 15.353s0 10.783.068 14.462l10.777 32.822 15.322-32.822 2.36-59.586a4.358 4.358 0 0 0-3.89-4.465z" transform="translate(920.748 313.739)" style="fill:#ffbe9d"/>
            <path data-name="路径 14599" d="M362.64 269.392a1.594 1.594 0 0 0 1.525 1.608 1.519 1.519 0 0 0 1.644-1.419 1.588 1.588 0 0 0-1.519-1.619 1.525 1.525 0 0 0-1.65 1.426z" transform="translate(917.893 299.001)" style="fill:#263238"/>
            <path data-name="路径 14600" d="M359.464 261.66c.193.205 1.407-.679 3.113-.66s2.963.878 3.15.672c.087-.093-.106-.467-.654-.872a4.358 4.358 0 0 0-2.49-.791 4.2 4.2 0 0 0-2.49.778c-.548.406-.728.779-.629.873z" transform="translate(919.102 302.002)" style="fill:#263238"/>
            <path data-name="路径 14601" d="M387.58 269.392A1.587 1.587 0 0 0 389.1 271a1.525 1.525 0 0 0 1.65-1.419 1.594 1.594 0 0 0-1.519-1.619 1.519 1.519 0 0 0-1.65 1.426z" transform="translate(908.48 299.001)" style="fill:#263238"/>
            <path data-name="路径 14602" d="M386.474 262.35c.193.212 1.407-.672 3.113-.654s2.963.878 3.15.672c.087-.093-.106-.467-.654-.872a4.4 4.4 0 0 0-2.49-.8 4.2 4.2 0 0 0-2.49.784c-.548.403-.728.776-.629.87z" transform="translate(908.907 301.742)" style="fill:#263238"/>
            <path data-name="路径 14603" d="M373.754 275.03a11.09 11.09 0 0 0-2.77-.523c-.442-.05-.853-.137-.921-.436a2.172 2.172 0 0 1 .3-1.295l1.314-3.318c1.824-4.719 3.15-8.61 2.963-8.679s-1.83 3.7-3.655 8.423a236.611 236.611 0 0 0-1.245 3.337 2.49 2.49 0 0 0-.243 1.712 1.09 1.09 0 0 0 .716.623 2.646 2.646 0 0 0 .741.112 10.856 10.856 0 0 0 2.8.044z" transform="translate(915.327 301.712)" style="fill:#263238"/>
            <path data-name="路径 14604" d="m374.22 315.81.068 3.113c12.4 1.245 16.56-7.4 16.56-7.4a31.489 31.489 0 0 1-16.628 4.287z" transform="translate(913.523 282.561)" style="fill:#eb996e"/>
            <path data-name="路径 14605" d="M381.913 288.1a2.752 2.752 0 0 0-2.279-1.245 3.58 3.58 0 0 0-3.268 1.594 2.216 2.216 0 0 0-.156 1.6c.118.274 0 .143.237.33a6.225 6.225 0 0 0 2.546 1.6 2.683 2.683 0 0 0 2.839-1.021 2.727 2.727 0 0 0 .081-2.858z" transform="translate(912.803 291.875)" style="fill:#eb996e"/>
            <path data-name="路径 14606" d="M381.14 285.62c-.28 0-.3 1.868-1.868 3.144s-3.574 1.1-3.592 1.351c0 .118.442.367 1.276.392a4.588 4.588 0 0 0 2.995-1.021 4.015 4.015 0 0 0 1.469-2.64c.062-.772-.156-1.232-.28-1.226z" transform="translate(912.972 292.336)" style="fill:#263238"/>
            <path data-name="路径 14607" d="M385.245 253.786c.168.467 1.868.255 3.885.511s3.623.816 3.891.4c.125-.2-.156-.623-.809-1.09a6.792 6.792 0 0 0-5.921-.7c-.741.293-1.114.655-1.046.879z" transform="translate(909.365 304.827)" style="fill:#ff725e"/>
            <path data-name="路径 14608" d="M360.514 252.116c.3.386 1.482 0 2.895 0s2.621.28 2.895-.125c.125-.193-.062-.585-.585-.959a4.184 4.184 0 0 0-4.663.112c-.504.381-.673.779-.542.972z" transform="translate(918.712 305.638)" style="fill:#ff725e"/>
            <path data-name="路径 14609" d="M414.621 269.776c.168-.075 6.9-2.216 6.848 4.707s-7 5.429-7.01 5.23.162-9.937.162-9.937z" transform="translate(898.335 298.456)" style="fill:#ffbe9d"/>
            <path data-name="路径 14610" d="M417.886 278.463a2.054 2.054 0 0 0 .318.181 1.183 1.183 0 0 0 .9 0 2.984 2.984 0 0 0 1.407-2.658 4.054 4.054 0 0 0-.324-1.731 1.376 1.376 0 0 0-.9-.934.623.623 0 0 0-.71.324c-.093.193-.056.33-.087.342s-.149-.118-.093-.4a.759.759 0 0 1 .28-.43.909.909 0 0 1 .666-.168 1.687 1.687 0 0 1 1.245 1.083 4.127 4.127 0 0 1 .4 1.93c-.056 1.395-.784 2.7-1.787 2.976a1.326 1.326 0 0 1-1.1-.193c-.209-.154-.24-.309-.215-.322z" transform="translate(897.045 297.109)" style="fill:#eb996e"/>
            <path data-name="路径 14611" d="M420.04 285.132c.031-.037.3.286.255.909a1.276 1.276 0 0 1-.486.971 1.444 1.444 0 0 1-1.326.093 1.4 1.4 0 0 1-.921-.959 1.469 1.469 0 0 1 .187-1.065c.342-.535.778-.585.778-.548a1.952 1.952 0 0 0-.56.666 1.245 1.245 0 0 0-.093.865 1.115 1.115 0 0 0 .735.71 1.145 1.145 0 0 0 1.015-.031 1.108 1.108 0 0 0 .43-.735 4.108 4.108 0 0 0-.014-.876z" transform="translate(897.176 292.75)" style="fill:#263238"/>
            <path data-name="路径 14612" d="M354.543 244.958a10.839 10.839 0 0 1 4.669-4.563c1.924-1.1 4-1.868 5.914-3a20.794 20.794 0 0 0 9.3-11.63 12.479 12.479 0 0 0-11.082.143 16.934 16.934 0 0 0-7.633 8.255 26.59 26.59 0 0 0-2.111 11.206" transform="translate(921.309 315.392)" style="fill:#ff725e"/>
            <path data-name="路径 14613" d="M404.264 231.969c-5.118-4.862-14.786-7.546-21.454-5.267.99 5.821 5.385 12.364 9.251 16.809s6.226 12.371 14.711 9.693c.579-.181 1.245.349 1.774.037a2.129 2.129 0 0 0 .816-1.283 19.835 19.835 0 0 0-5.1-19.991z" transform="translate(910.281 314.884)" style="fill:#ff725e"/>
            <path data-name="路径 14614" d="M352.718 255.489a2.577 2.577 0 0 1-1.214-.068 4.763 4.763 0 0 1-2.658-1.961 7.228 7.228 0 0 1-1.052-4.781 17.96 17.96 0 0 1 .486-2.87c.224-.99.535-1.986.872-3a30.674 30.674 0 0 1 5.391-9.469 27.824 27.824 0 0 1 2.279-2.4l.672-.591a1.246 1.246 0 0 1 .255-.193 8.178 8.178 0 0 1-.834.878 33.032 33.032 0 0 0-2.179 2.49 31.964 31.964 0 0 0-5.248 9.426 30.279 30.279 0 0 0-.872 2.957 17.809 17.809 0 0 0-.5 2.82 7.084 7.084 0 0 0 .934 4.619 4.707 4.707 0 0 0 2.49 1.961 6.414 6.414 0 0 0 1.177.187z" transform="translate(923.519 313.272)" style="fill:#ff725e"/>
            <path data-name="路径 14615" d="M436.834 229.569a13.215 13.215 0 0 0-3.113-8.99 10.69 10.69 0 0 0-12.451-1.942 12.027 12.027 0 0 0-6.132 11.206 13.939 13.939 0 0 0 6.96 10.988l2.858-.324c2.864 1.513 6.618.442 8.822-1.924s3.056-5.777 3.056-9.014z" transform="translate(898.087 318.062)" style="fill:#ff725e"/>
            <path data-name="路径 14616" d="M408.174 233.091a1.306 1.306 0 0 1-.143.23 6.629 6.629 0 0 1-.479.623 12.282 12.282 0 0 1-2.1 1.98 13.616 13.616 0 0 1-17.594-.965 12.45 12.45 0 0 1-1.868-2.2c-.193-.28-.311-.517-.4-.672s-.131-.243-.118-.249a19.226 19.226 0 0 0 2.553 2.951 14.083 14.083 0 0 0 3.511 2.322 13.186 13.186 0 0 0 10.048.548 14.176 14.176 0 0 0 3.735-1.918 18.675 18.675 0 0 0 2.858-2.652z" transform="translate(909.278 312.634)" style="fill:#fff"/>
            <path data-name="路径 14617" d="M411.481 242.776a1.538 1.538 0 0 1-.23.23 7.186 7.186 0 0 1-.728.623 10.95 10.95 0 0 1-3.082 1.619 13.921 13.921 0 0 1-5.124.691 15.77 15.77 0 0 1-6.126-1.581 19.923 19.923 0 0 1-5.13-3.735 26.23 26.23 0 0 1-3.287-3.978 30.579 30.579 0 0 1-1.8-2.982c-.2-.361-.33-.623-.43-.847a1.781 1.781 0 0 1-.125-.305 1.424 1.424 0 0 1 .187.28l.473.809c.417.71 1.033 1.718 1.868 2.907a27.55 27.55 0 0 0 3.312 3.9 20.353 20.353 0 0 0 5.062 3.636 15.807 15.807 0 0 0 6 1.569 13.977 13.977 0 0 0 5.03-.623 11.737 11.737 0 0 0 3.113-1.507 10.481 10.481 0 0 1 1.017-.706z" transform="translate(909.296 312.381)" style="fill:#fff"/>
            <path data-name="路径 14618" d="M438.392 232a3.332 3.332 0 0 1-.293.423 8.165 8.165 0 0 1-.977 1.015 11.12 11.12 0 0 1-1.681 1.245 12.894 12.894 0 0 1-2.316 1.1 13.5 13.5 0 0 1-2.49.579 11.646 11.646 0 0 1-2.092.062 8.808 8.808 0 0 1-1.395-.193 1.569 1.569 0 0 1-.5-.149c0-.056.735.093 1.9.112a12.931 12.931 0 0 0 8.423-2.945c.904-.72 1.377-1.249 1.421-1.249z" transform="translate(893.734 312.574)" style="fill:#fff"/>
            <path data-name="路径 14619" d="M442.4 239a1.027 1.027 0 0 1 .087.56 2.584 2.584 0 0 1-.535 1.451 4.544 4.544 0 0 1-1.824 1.388 13.7 13.7 0 0 1-2.64.878 14.176 14.176 0 0 1-5.024.218 13.142 13.142 0 0 1-1.5-.305 1.681 1.681 0 0 1-.523-.2c0-.056.778.156 2.048.274a15.758 15.758 0 0 0 4.931-.305c1.868-.442 3.586-1.083 4.358-2.086a2.758 2.758 0 0 0 .591-1.326c.043-.354.006-.547.031-.547z" transform="translate(892.304 309.932)" style="fill:#fff"/>
            <path data-name="路径 14620" d="M409.642 430.5a1.146 1.146 0 0 1-.342.031h-.984a22.522 22.522 0 0 1-3.611-.349 24.28 24.28 0 0 1-18.136-14.226 22.51 22.51 0 0 1-1.2-3.424c-.118-.411-.168-.741-.218-.959a2.345 2.345 0 0 1-.056-.342 10.843 10.843 0 0 1 .392 1.245 26.933 26.933 0 0 0 1.289 3.368 24.8 24.8 0 0 0 17.967 14.1 26.287 26.287 0 0 0 3.567.448c.859.075 1.332.082 1.332.108z" transform="translate(909.416 244.928)" style="fill:#455a64"/>
            <path data-name="路径 14621" d="M360.863 431.949a1.394 1.394 0 0 1-.274-.149l-.753-.486-2.733-1.855a79.272 79.272 0 0 0-9.339-5.459 36.241 36.241 0 0 0-10.216-3.262 29.389 29.389 0 0 0-3.256-.3 11.6 11.6 0 0 1-1.2-.05 1.028 1.028 0 0 1 .311-.037c.2 0 .5-.044.89-.037a22.734 22.734 0 0 1 3.287.2 34.118 34.118 0 0 1 10.347 3.206 70.183 70.183 0 0 1 9.307 5.56c1.139.784 2.048 1.438 2.677 1.9l.716.535c.161.122.242.19.236.234z" transform="translate(929.046 241.498)" style="fill:#455a64"/>
            <path data-name="路径 14622" d="m402.213 436.36-42.5 2.148 3.287 12.52 56.642.261z" transform="translate(918.999 235.443)" style="fill:#ffbe9d"/>
            <path data-name="路径 14623" d="M344.75 435.456s-13.734-6.848-15.434-6.917c-1.3-.044-8.847 1.245-12.321 1.837a2.49 2.49 0 0 0-2.129 2.8 2.117 2.117 0 0 0 1.98 1.712 2.671 2.671 0 0 0-1.457 2.758c.274 1.974 2.714 2.023 2.714 2.023a3.29 3.29 0 0 0-.293.355 2.366 2.366 0 0 0 1.749 3.735l1.108.081a2.358 2.358 0 0 0-1.133 2.173c.436 2.577 6.325 2.191 6.325 2.191l20.209-.143z" transform="translate(935.933 238.395)" style="fill:#ffbe9d"/>
            <path data-name="路径 14624" d="M319.685 425.413c.193.841.672 2.627 2.247 3.225l7.963-1.513s-6.282-1.152-7.284-2.036a6.976 6.976 0 0 0-1.314-.946 1.146 1.146 0 0 0-1.612 1.27z" transform="translate(934.115 240.096)" style="fill:#ffbe9d"/>
            <path data-name="路径 14625" d="M325.569 429.736a12.388 12.388 0 0 1-3.623.816 14.431 14.431 0 0 1-3.686.293 11.615 11.615 0 0 1 3.617-.816 14.511 14.511 0 0 1 3.692-.293z" transform="translate(934.644 237.964)" style="fill:#eb996e"/>
            <path data-name="路径 14626" d="M324.4 437.362a7.079 7.079 0 0 1-3.113.8 8.119 8.119 0 0 1-3.212-.068 15.873 15.873 0 0 1 3.15-.454 14.328 14.328 0 0 1 3.175-.278z" transform="translate(934.715 235.082)" style="fill:#eb996e"/>
            <path data-name="路径 14627" d="M333.854 435.464c.131.056.044.517-.361.878s-.872.392-.915.261.249-.367.567-.654.578-.549.709-.485z" transform="translate(929.241 235.784)" style="fill:#eb996e"/>
            <path data-name="路径 14628" d="M326.693 445.276a23.2 23.2 0 0 1-6.923.822 11.69 11.69 0 0 1 3.43-.666 12.064 12.064 0 0 1 3.493-.156z" transform="translate(934.074 232.105)" style="fill:#eb996e"/>
            <path data-name="路径 14629" d="M336.895 440.76c.062 0 .212.118.3.423a1.669 1.669 0 0 1-1.127 2c-.311.087-.51.031-.517-.037a3.679 3.679 0 0 0 1.021-1c.366-.658.192-1.33.323-1.386z" transform="translate(928.118 233.782)" style="fill:#eb996e"/>
            <path data-name="路径 14630" d="M330.207 452.886a18.837 18.837 0 0 1-6.257.174 9.686 9.686 0 0 1 3.113-.349 9.873 9.873 0 0 1 3.144.175z" transform="translate(932.496 229.277)" style="fill:#eb996e"/>
            <path data-name="路径 14631" d="M339.863 447.86c.062 0 .187.137.224.454a1.924 1.924 0 0 1-.261 1.152c-.479.8-1.1 1.152-1.183 1.071s.33-.66.722-1.326.367-1.311.498-1.351z" transform="translate(926.955 231.102)" style="fill:#eb996e"/>
        </g>
        <g>
            <path data-name="路径 14632" d="M254.414 427.109c-2.789-1.326-12.1-4.981-12.1-4.981L237.76 391l-18.54 2.783s10.789 39.677 13.7 39.951 19.443 0 19.443 0l5.391-.081s-1.385-5.622-3.34-6.544z" transform="translate(972.024 252.563)" style="fill:#9b6e65"/>
            <path data-name="路径 14633" d="M251.324 457.1a2.074 2.074 0 0 1-.928.342 5.392 5.392 0 0 1-4.514-1.2 2.154 2.154 0 0 1-.623-.76c.044-.037.3.23.778.579a6.294 6.294 0 0 0 2.061.977 6.413 6.413 0 0 0 2.272.181 5.99 5.99 0 0 1 .954-.119z" transform="translate(962.196 228.229)" style="fill:#704c45"/>
            <path data-name="路径 14634" d="M265.736 455.108c-.044.031-.43-.623-1.139-1.569a7.7 7.7 0 0 0-1.432-1.476 7.888 7.888 0 0 0-2.26-1.108 22.225 22.225 0 0 1-4.246-2 10.151 10.151 0 0 1-1.619-1.071 11.911 11.911 0 0 1 1.731.872 27.782 27.782 0 0 0 4.246 1.9 7.756 7.756 0 0 1 2.335 1.177 6.985 6.985 0 0 1 1.432 1.581 13.075 13.075 0 0 1 .741 1.245 1.632 1.632 0 0 1 .212.454z" transform="translate(958.504 231.095)" style="fill:#704c45"/>
            <path data-name="路径 14635" d="m146.865 225.9-6.848 4.719s-8.529-.511-14.718 1.594a27.632 27.632 0 0 0-12.1 7.147 33.874 33.874 0 0 0-8.61 14.979l-8.286 69.025-12.576 48.7h83.717v-61.631l8.012-28.271s-2.079-3.262-2.017-4.563 4.738-31.427 4.738-31.427l-9.544-11.418z" transform="translate(1023.162 314.877)" style="fill:#ff725e"/>
            <path data-name="路径 14636" d="M225.635 256.16s4.738 2.21 5.9 10.484 9.55 72.131 9.55 72.131-9.27 2.142-17.731 3.113L212.7 343.7l-.27-42.7z" transform="translate(974.587 303.456)" style="fill:#ff725e"/>
            <g data-name="组 8375" style="opacity:.2">
                <path data-name="路径 14637" d="M1136.551 685.001c14.232-17.058 16.467-41.8 30.88-58.709l-8.822 4.981c1.563-14.7 3.063-29.983-1.868-43.922a385.521 385.521 0 0 1-20.607 97.582"/>
            </g>
            <path data-name="路径 14638" d="M147.812 258.3q-.486 39.49-3.623 78.886a32.724 32.724 0 0 1-1.345 6.02 4.358 4.358 0 0 1-4.819 3.007l-17.177-2.59c-2.988-.5-4.121-.9-5.018-2.833a9.4 9.4 0 0 1-.822-4.252c.66-23.5-1.395-35.954 0-58.173" transform="translate(1011.544 302.648)" style="fill:#ff725e"/>
            <path data-name="路径 14639" d="M115.025 278.373v.454c0 .3-.031.76-.056 1.345-.062 1.183-.143 2.92-.212 5.161s-.125 4.981-.137 8.174.05 6.811.162 10.82c.224 8.019.623 17.575.467 28.19 0 1.326-.056 2.665-.087 4.028a9.457 9.457 0 0 0 .71 3.96 3.854 3.854 0 0 0 2.939 2.546 41.377 41.377 0 0 0 4.2.747l8.716 1.307 4.451.672c.741.106 1.507.243 2.235.318a4.221 4.221 0 0 0 2.135-.423 4.264 4.264 0 0 0 1.637-1.444 6.941 6.941 0 0 0 .809-2.061 33.69 33.69 0 0 0 .971-4.358c.274-2.945.473-5.89.691-8.766.423-5.759.784-11.312 1.1-16.61.623-10.584 1.052-20.134 1.339-28.153s.448-14.506.548-18.995c.05-2.235.087-3.972.112-5.161q0-.878.037-1.345v1.345c0 1.189-.031 2.926-.056 5.167-.056 4.483-.181 10.976-.442 18.995s-.666 17.569-1.245 28.165c-.311 5.3-.666 10.858-1.083 16.616-.212 2.883-.411 5.8-.691 8.784a35.279 35.279 0 0 1-.977 4.42 7.271 7.271 0 0 1-.853 2.148 4.464 4.464 0 0 1-1.762 1.55 4.526 4.526 0 0 1-2.3.461c-.784-.081-1.513-.218-2.266-.324l-4.451-.672-8.716-1.314a40.478 40.478 0 0 1-4.233-.76 4.744 4.744 0 0 1-1.949-.946 4.862 4.862 0 0 1-1.2-1.781 9.775 9.775 0 0 1-.735-4.072q.05-2.036.093-4.022c.193-10.584-.205-20.153-.392-28.178-.1-4.009-.137-7.639-.118-10.827s.093-5.933.193-8.174.187-3.984.268-5.161l.093-1.345c.036-.325.055-.481.055-.481z" transform="translate(1011.577 302.64)" style="fill:#263238"/>
            <path data-name="路径 14640" d="M218.192 353.228a.977.977 0 0 1 0-.2v-.579c0-.535.044-1.289.075-2.241.037-1.949.28-4.756.685-8.212.255-1.725.467-3.623.872-5.6.187-1.009.355-2.055.585-3.113s.461-2.167.7-3.287c1.009-4.495 2.3-9.382 3.5-14.549a106.984 106.984 0 0 0 3.188-26.889l-.168-4.682c-.075-1.382-.212-2.565-.286-3.53s-.137-1.7-.181-2.235c0-.243-.031-.43-.037-.579a1.458 1.458 0 0 1 0-.2.771.771 0 0 1 .037.193l.075.579c.056.529.137 1.276.243 2.229s.243 2.148.336 3.53.137 2.957.218 4.694a102.974 102.974 0 0 1-3.113 26.964c-1.2 5.174-2.49 10.061-3.524 14.537-.249 1.121-.486 2.216-.722 3.281s-.4 2.1-.623 3.113c-.411 2-.623 3.9-.9 5.6-.436 3.449-.71 6.226-.784 8.193-.062.953-.106 1.7-.143 2.235a5.706 5.706 0 0 1-.044.579 1.022 1.022 0 0 1 .011.169z" transform="translate(972.416 295.465)" style="fill:#263238"/>
            <path data-name="路径 14641" d="M199.8 331.89a1.863 1.863 0 0 1-.243.286l-.741.772c-.623.672-1.6 1.612-2.8 2.758-2.4 2.291-5.827 5.348-9.812 8.479s-7.763 5.74-10.584 7.527c-1.4.9-2.54 1.606-3.343 2.073l-.928.529a1.313 1.313 0 0 1-.33.168 1.791 1.791 0 0 1 .3-.218l.89-.591c.784-.5 1.905-1.245 3.287-2.148 2.758-1.837 6.506-4.47 10.484-7.6s7.421-6.145 9.855-8.392c1.245-1.121 2.2-2.036 2.87-2.677l.778-.728a1.4 1.4 0 0 1 .317-.238z" transform="translate(990.216 274.873)" style="fill:#263238"/>
            <g data-name="组 8376" style="opacity:.2">
                <path data-name="路径 14642" d="M1199.997 593.409c-2.042 18.957-8.791 39.67-9.388 51.63 2.677-8.523 6.064-16.666 8.554-25.245s3.611-17.893.834-26.385z"/>
            </g>
            <path data-name="路径 14643" d="M229.955 121.823a4.862 4.862 0 0 0 2.428-7.321c-.623-.959-1.625-1.668-2.21-2.671a15.561 15.561 0 0 1-.984-2.7 9.83 9.83 0 0 0-6.637-5.933 12.682 12.682 0 0 0-8.977 1.052 9.8 9.8 0 0 1-3.387 1.357 11.552 11.552 0 0 1-3.493-.623 8.093 8.093 0 0 0-9.071 10.621 6.942 6.942 0 0 0-.081 13.7 14.6 14.6 0 0 0 5.927-.623 105.708 105.708 0 0 1 24.1-2.689" transform="translate(982.382 361.335)" style="fill:#263238"/>
            <path data-name="路径 14644" d="M185.3 172.655a24.828 24.828 0 0 1-3.225-16.641c.928-5.69 3.244-12.57 7.633-16.311-1.911-3.113-.311-5.871 2.067-8.66s5.921-4.358 9.463-5.279a39.421 39.421 0 0 1 16.249-.859c4.4.691 10.073 2.59 10.036 5.852a4.729 4.729 0 0 1-2.49 4.445 22 22 0 0 1 7.147 6.487c4.408 6.313 5.479 12.022 3.574 17.762s-4.09 10.079-8.367 13.111" transform="translate(986.159 353.174)" style="fill:#ff725e"/>
            <path data-name="路径 14645" d="M246.132 211.166a5.56 5.56 0 0 1 2.49-.9l-.162-.044a3.114 3.114 0 0 1 .479.031 2.179 2.179 0 0 1 1.619.623 4.065 4.065 0 0 1 1.718 2.391 4.806 4.806 0 0 1-1.693 4.7 3.679 3.679 0 0 1-6.282-2.783 4.576 4.576 0 0 1 1.83-4.016z" transform="translate(962.562 320.795)" style="fill:#455a64"/>
            <path data-name="路径 14646" d="m184.63 202.7 6.923-45.672a4.483 4.483 0 0 1 4.85-3.642l24.567-1.077c7.633.753 10.7 10.976 9.619 18.565-1.2 8.436-2.988 18.677-5.261 24.7-4.563 12.078-14.469 11.692-14.469 11.692s-1.868 8.648-2.845 13.18l-5.1 17.918z" transform="translate(985.079 342.651)" style="fill:#9b6e65"/>
            <path data-name="路径 14647" d="M248.688 196.9a1.637 1.637 0 0 1-1.868 1.3 1.569 1.569 0 0 1-1.351-1.787 1.637 1.637 0 0 1 1.868-1.3 1.569 1.569 0 0 1 1.351 1.787z" transform="translate(962.123 326.503)" style="fill:#263238"/>
            <path data-name="路径 14648" d="M249.263 188.439c-.243.168-1.245-.977-2.995-1.332s-3.163.249-3.306 0c-.075-.112.205-.448.84-.735a4.507 4.507 0 0 1 2.7-.261 4.358 4.358 0 0 1 2.328 1.326c.452.516.552.927.433 1.002z" transform="translate(963.067 329.931)" style="fill:#263238"/>
            <path data-name="路径 14649" d="M222.638 192.133a1.631 1.631 0 0 1-1.868 1.295 1.563 1.563 0 0 1-1.351-1.787 1.631 1.631 0 0 1 1.868-1.295 1.569 1.569 0 0 1 1.351 1.787z" transform="translate(971.955 328.304)" style="fill:#263238"/>
            <path data-name="路径 14650" d="M221.94 183.33c-.243.168-1.276-.977-2.995-1.332s-3.169.249-3.312 0c-.075-.112.205-.448.84-.735a4.47 4.47 0 0 1 2.7-.255 4.3 4.3 0 0 1 2.335 1.32c.444.504.575.928.432 1.002z" transform="translate(973.382 331.859)" style="fill:#263238"/>
            <path data-name="路径 14651" d="M231.57 198.6a11.688 11.688 0 0 1 2.907.075c.448.05.884.044 1.021-.237a2.329 2.329 0 0 0 0-1.37c-.193-1.152-.4-2.353-.623-3.617-.822-5.149-1.32-9.339-1.114-9.376s1.046 4.115 1.868 9.264c.187 1.245.374 2.49.548 3.63a2.609 2.609 0 0 1-.131 1.774 1.121 1.121 0 0 1-.853.492 2.958 2.958 0 0 1-.772-.05 11.409 11.409 0 0 1-2.851-.585z" transform="translate(967.363 330.661)" style="fill:#263238"/>
            <path data-name="路径 14652" d="M217.127 235.775a32.43 32.43 0 0 1-15.807-7.925s2.291 9.432 15.029 10.839z" transform="translate(978.78 314.141)" style="fill:#704c45"/>
            <path data-name="路径 14653" d="M225.951 212.32a4.358 4.358 0 0 0-3.113-2.571 2.826 2.826 0 0 0-2.528.766 2.733 2.733 0 0 0-.535 2.8 2.7 2.7 0 0 0 2.59 1.581 6.35 6.35 0 0 0 2.864-1.046 1.93 1.93 0 0 0 .679-.529.9.9 0 0 0 .112-.89" transform="translate(971.88 320.992)" style="fill:#704c45"/>
            <path data-name="路径 14654" d="M222.685 207.649c.28.037-.1 1.911 1.245 3.567s3.362 1.868 3.318 2.129c0 .125-.517.274-1.363.125a4.775 4.775 0 0 1-2.8-1.675 4.14 4.14 0 0 1-.909-2.97c.098-.797.397-1.214.509-1.176z" transform="translate(970.912 321.766)" style="fill:#263238"/>
            <path data-name="路径 14655" d="M223.563 176.227c-.268.436-1.942-.143-4.016-.318s-3.823.037-4-.436c-.075-.224.3-.623 1.052-.928a6.748 6.748 0 0 1 3.113-.417 6.637 6.637 0 0 1 2.988 1c.689.445.981.894.863 1.099z" transform="translate(973.415 334.43)" style="fill:#263238"/>
            <path data-name="路径 14656" d="M250.208 180.187c-.386.33-1.488-.324-2.914-.623s-2.69-.28-2.883-.747c-.081-.224.193-.579.8-.84a4.314 4.314 0 0 1 4.669 1.121c.42.485.496.921.328 1.089z" transform="translate(962.521 333.065)" style="fill:#263238"/>
            <path data-name="路径 14657" d="M223.416 154.6s-11.667-2.677-23.353 8.641c-7.7 7.471-11.269 18.136-11.269 18.136l-.075-21.79 5.423-8.76 9.071-2.827 15.533 2.422 5.18 4.109" transform="translate(983.535 344.278)" style="fill:#ff725e"/>
            <path data-name="路径 14658" d="M206.844 149.516c19.6-.5 33.189 8.859 32.8 24.062l5.852-8.809-7.209-13.753-10.017-5.037-22.076-1.32z" transform="translate(976.942 345.539)" style="fill:#ff725e"/>
            <path data-name="路径 14659" d="M183.527 197.831a5.964 5.964 0 0 1 2.658-.971l-.174-.05a3.6 3.6 0 0 1 .517.031 2.347 2.347 0 0 1 1.743.623 4.4 4.4 0 0 1 1.868 2.584 5.2 5.2 0 0 1-1.824 5.055 3.96 3.96 0 0 1-6.761-3 4.918 4.918 0 0 1 1.974-4.271z" transform="translate(986.244 325.856)" style="fill:#455a64"/>
            <path data-name="路径 14660" d="M191.227 177.238a1.868 1.868 0 0 1-.766-.479 4.794 4.794 0 0 1-1.345-2.079 4.856 4.856 0 0 1 .205-3.661c.3-.623.685-1.245.94-1.868a2.1 2.1 0 0 0-.1-1.961 7.346 7.346 0 0 0-1.575-1.525 5.428 5.428 0 0 1-1.419-1.681 6.057 6.057 0 0 1-.623-3.623 5.273 5.273 0 0 1 .872-2.31 1.967 1.967 0 0 1 .623-.66 6.992 6.992 0 0 0-1.121 3.013 5.79 5.79 0 0 0 .691 3.343 4.931 4.931 0 0 0 1.326 1.525 7.471 7.471 0 0 1 1.687 1.644 2.59 2.59 0 0 1 .131 2.416c-.286.722-.691 1.32-.977 1.911a4.6 4.6 0 0 0-.293 3.343 5.062 5.062 0 0 0 1.139 2.036c.362.398.63.578.605.616z" transform="translate(984.378 340.734)" style="fill:#fff"/>
            <path data-name="路径 14661" d="M196.54 147.389a8.094 8.094 0 0 0-1.183 2.8 6.045 6.045 0 0 0 .305 3.206 11.512 11.512 0 0 0 2.416 3.225 5.41 5.41 0 0 1 1.133 1.93 3.735 3.735 0 0 1-.044 2.1 27.17 27.17 0 0 0-1.114 3.163 2.932 2.932 0 0 0 .336 2.092c.28.43.591.535.56.585s-.081 0-.218-.062a1.488 1.488 0 0 1-.5-.4 3 3 0 0 1-.535-2.266 22.189 22.189 0 0 1 1.015-3.244 3.268 3.268 0 0 0 0-1.83 4.98 4.98 0 0 0-1.04-1.737 11.692 11.692 0 0 1-2.49-3.393 6.132 6.132 0 0 1-.218-3.449 5.6 5.6 0 0 1 .946-2.117c.363-.441.612-.621.631-.603z" transform="translate(981.238 344.509)" style="fill:#fff"/>
            <path data-name="路径 14662" d="M213.543 159.6a.484.484 0 0 1-.529 0 1.015 1.015 0 0 1-.467-.454 1.32 1.32 0 0 1-.112-.859c.1-.623.623-1.245.766-1.868a2.039 2.039 0 0 0-.921-1.868 5.441 5.441 0 0 1-1.706-1.868 4.426 4.426 0 0 1-.436-2.061 2.671 2.671 0 0 1 .585-1.812 10.355 10.355 0 0 0-.218 1.805 4.526 4.526 0 0 0 .5 1.868 5.273 5.273 0 0 0 1.612 1.718 3.6 3.6 0 0 1 .89 1.046 1.774 1.774 0 0 1 .156 1.339c-.261.816-.753 1.307-.865 1.824a.959.959 0 0 0 .318 1.065c.234.125.421.081.427.125z" transform="translate(975.453 343.972)" style="fill:#fff"/>
            <path data-name="路径 14663" d="M224.231 151.06a.329.329 0 0 1 .243.156.89.89 0 0 1 .068.772 4.8 4.8 0 0 1-.51.9 2.117 2.117 0 0 0-.23 1.052 4.507 4.507 0 0 0 .66 1.986c.28.492.448.809.386.853s-.324-.193-.691-.654a3.735 3.735 0 0 1-.878-2.173 2.316 2.316 0 0 1 .342-1.314c.237-.349.473-.567.579-.791a1 1 0 0 0 .031-.791z" transform="translate(970.493 343.123)" style="fill:#fff"/>
            <path data-name="路径 14664" d="M252.748 146.528a1.737 1.737 0 0 1-.311.461c-.237.268-.623.623-.984 1.077a2.6 2.6 0 0 0-.567 1.911 10.671 10.671 0 0 1 .037 2.733 4.769 4.769 0 0 1-1.332 2.459 4.57 4.57 0 0 1-1.967 1.133 2.893 2.893 0 0 1-2.055 0 11.04 11.04 0 0 0 1.942-.355 4.458 4.458 0 0 0 2.9-3.349 11.9 11.9 0 0 0 0-2.621 2.92 2.92 0 0 1 .766-2.154 9.016 9.016 0 0 1 1.127-.99c.263-.212.419-.333.444-.305z" transform="translate(962.079 344.835)" style="fill:#fff"/>
            <path data-name="路径 14665" d="M263.331 163.581c.056.093-.623.249-1.065 1.121-.212.454-.567.971-.865 1.538a11.879 11.879 0 0 1-1.121 1.905 4.121 4.121 0 0 1-3.735 1.419 2.322 2.322 0 0 1-1.525-.672c.044-.087.591.255 1.563.311a4.016 4.016 0 0 0 3.293-1.388 14.316 14.316 0 0 0 1.108-1.815c.349-.623.71-1.046.971-1.488a2.03 2.03 0 0 1 .928-.84c.274-.11.436-.122.448-.091z" transform="translate(958.512 338.403)" style="fill:#fff"/>
            <path data-name="路径 14666" d="M264.146 184.214c.056.037-.05.324-.4.654a2.733 2.733 0 0 1-3.493.168c-.38-.3-.511-.573-.461-.623a4.228 4.228 0 0 0 2.21.623 6.128 6.128 0 0 0 2.144-.822z" transform="translate(956.714 330.613)" style="fill:#fff"/>
            <path data-name="路径 14667" d="M237.094 139.73c.037.087-.623.268-1.295.977a3.916 3.916 0 0 0-1.071 3.462 4.8 4.8 0 0 1 .249 2.279 3 3 0 0 1-1.058 1.581 3.063 3.063 0 0 1-1.5.8c-.044-.081.542-.374 1.245-1.065a2.889 2.889 0 0 0 .84-1.419 4.881 4.881 0 0 0-.293-2.067 3.872 3.872 0 0 1 .224-2.31 4.1 4.1 0 0 1 1.108-1.525 2.285 2.285 0 0 1 1.55-.71z" transform="translate(967.043 347.4)" style="fill:#fff"/>
            <path data-name="路径 14668" d="M217.99 147.037c-.125-.087.5-1.114.8-2.49s.205-2.6.361-2.627a3.684 3.684 0 0 1 .149 2.739 3.785 3.785 0 0 1-1.31 2.378z" transform="translate(972.494 346.573)" style="fill:#fff"/>
            <path data-name="路径 14669" d="M203.914 139.019c0-.037.137-.112.293-.336a1.868 1.868 0 0 0 .336-1.1c0-1.009-.71-2.3-1.245-3.872a6.113 6.113 0 0 1-.305-2.322 3.443 3.443 0 0 1 .7-1.868 2.086 2.086 0 0 1 1.09-.753.882.882 0 0 1 .486 0 3.472 3.472 0 0 0-.423.162 2.129 2.129 0 0 0-.853.778 4.344 4.344 0 0 0-.2 3.81c.5 1.494 1.245 2.87 1.108 4.047a1.868 1.868 0 0 1-.548 1.245c-.24.234-.439.234-.439.209z" transform="translate(978.153 351.547)" style="fill:#fff"/>
            <path data-name="路径 14670" d="M224.443 134.319c0-.031.112-.149.349-.33a1.847 1.847 0 0 0 .753-.847 2.683 2.683 0 0 0-.529-1.606c-.355-.585-.865-1.158-1.363-1.868a3.735 3.735 0 0 1-.9-2.26 3.349 3.349 0 0 1 .865-1.793c.735-.828 1.289-1.2 1.332-1.158a10.521 10.521 0 0 1-1.04 1.382 3.25 3.25 0 0 0-.679 1.6 3.505 3.505 0 0 0 .847 1.924c.94 1.245 2.073 2.528 1.824 3.854a1.812 1.812 0 0 1-1 .915c-.278.163-.44.219-.459.187z" transform="translate(970.692 353.165)" style="fill:#fff"/>
            <path data-name="路径 14671" d="M244.739 135.914c-.031-.075.573-.2.909-.984a2.416 2.416 0 0 0 .131-1.413 11.134 11.134 0 0 0-.579-1.787 4.937 4.937 0 0 1-.392-1.974 2.49 2.49 0 0 1 .7-1.532c.623-.741 1.345-.753 1.326-.66a3.026 3.026 0 0 0-1.04.89 2.328 2.328 0 0 0-.5 1.32 5.261 5.261 0 0 0 .4 1.781 8.8 8.8 0 0 1 .567 1.868 2.59 2.59 0 0 1-.274 1.656 1.693 1.693 0 0 1-.828.772.832.832 0 0 1-.42.063z" transform="translate(962.393 352.006)" style="fill:#fff"/>
            <path data-name="路径 14672" d="M229.564 140.637a7.77 7.77 0 0 1-1.438-.243c-.915-.205-2.247-.436-3.9-.679a43.344 43.344 0 0 0-12.968.193 64.834 64.834 0 0 0-12.5 3.636l-3.679 1.469a7.434 7.434 0 0 1-1.37.492 7.47 7.47 0 0 1 1.289-.679c.84-.411 2.079-.977 3.623-1.625a58.334 58.334 0 0 1 12.551-3.81 40.386 40.386 0 0 1 13.111-.044 37.619 37.619 0 0 1 3.885.847 7.989 7.989 0 0 1 1.395.442z" transform="translate(981.652 347.738)" style="fill:#263238"/>
            <path data-name="路径 14673" d="M200.08 149.649h.131l.38-.075.623-.125.847-.137a23.539 23.539 0 0 1 5.435-.137 32.784 32.784 0 0 1 7.869 1.725c1.444.486 2.92 1.1 4.439 1.762s3.069 1.407 4.6 2.266c6.226 3.331 10.416 8.591 11.891 12.931a18.361 18.361 0 0 1 1.009 5.329 10.485 10.485 0 0 1 0 1.482v.386a.531.531 0 0 0 0 .131.361.361 0 0 0 0-.131v-.386c0-.336.05-.84.037-1.488a17.873 17.873 0 0 0-.928-5.391c-1.438-4.414-5.684-9.762-11.947-13.124-1.544-.859-3.113-1.6-4.626-2.272s-3.013-1.245-4.47-1.756a32.417 32.417 0 0 0-7.869-1.681 22.481 22.481 0 0 0-5.466.237l-.847.162-.623.156-.374.1q-.111.026-.111.036z" transform="translate(979.248 343.943)" style="fill:#263238"/>
            <path data-name="路径 14674" d="M220.894 158.43a3.33 3.33 0 0 0-.411-.068 10.455 10.455 0 0 0-1.189-.093 16.585 16.585 0 0 0-4.358.486 30.176 30.176 0 0 0-12.564 6.892A46.071 46.071 0 0 0 197 171.5a54.787 54.787 0 0 0-3.773 5.279 29.882 29.882 0 0 0-2.073 3.854c-.2.473-.349.847-.436 1.1a1.805 1.805 0 0 0-.118.4 2.877 2.877 0 0 0 .174-.374q.156-.386.486-1.083a34.868 34.868 0 0 1 2.148-3.785 59.944 59.944 0 0 1 3.8-5.217 47.6 47.6 0 0 1 5.36-5.8 30.767 30.767 0 0 1 12.414-6.911 17.936 17.936 0 0 1 4.3-.579 8.7 8.7 0 0 1 1.183.044 2.155 2.155 0 0 0 .43.006z" transform="translate(982.826 340.404)" style="fill:#263238"/>
            <path data-name="路径 14675" d="M69.22 433.856s3.81-1.245 6.226-1.955c1.351-.392 6.942-2.864 10.341-3.505 2.839-.535 10.7-4.551 11.922-5.373s6.039-27.673 6.039-27.673l18.179 2.739s-9.693 25.9-10.3 28.371-2.914 8.865-2.914 8.865H69.22z" transform="translate(1028.638 250.921)" style="fill:#9b6e65"/>
            <path data-name="路径 14676" d="M120.35 453.825c0-.056.623-.106 1.476-.479a5.9 5.9 0 0 0 3.661-5.858c-.056-.953-.274-1.519-.218-1.538s.093.125.187.386a4.942 4.942 0 0 1 .261 1.133 5.765 5.765 0 0 1-3.8 6.095 4.924 4.924 0 0 1-1.133.262.978.978 0 0 1-.434-.001z" transform="translate(1009.34 231.825)" style="fill:#704c45"/>
            <path data-name="路径 14677" d="M104.54 452.081a2.286 2.286 0 0 1-.367.162 7.129 7.129 0 0 1-1.121.293 25.969 25.969 0 0 1-4.258.093 9.96 9.96 0 0 0-2.864.342c-1 .3-1.992.847-3.113 1.245a10.3 10.3 0 0 1-7.651-.585l-.386-.187.411-.112.367-.106a13.8 13.8 0 0 0 3.661-1.662 23.878 23.878 0 0 0 2.945-2.366 15.067 15.067 0 0 1 5.647-3.113 33.851 33.851 0 0 1 4.227-1.009l1.17-.193a1.957 1.957 0 0 1 .4-.044 1.515 1.515 0 0 1-.4.106l-1.152.255a39.211 39.211 0 0 0-4.184 1.1 15.122 15.122 0 0 0-5.516 3.113 23.463 23.463 0 0 1-2.97 2.409 14.219 14.219 0 0 1-3.735 1.706l-.374.106v-.3a10.111 10.111 0 0 0 7.427.585c1.114-.355 2.117-.9 3.15-1.2a10.208 10.208 0 0 1 2.951-.318 28.853 28.853 0 0 0 4.234 0c.978-.128 1.489-.358 1.501-.32z" transform="translate(1022.765 232.243)" style="fill:#704c45"/>
        </g>
        <g>
            <path data-name="路径 14678" d="m535.294 378.383-10.565 24.448-9.8 31.49 94.949.448-1.619-59.642-46.668-4.756z" transform="translate(860.414 260.349)" style="fill:#263238"/>
            <path data-name="路径 14679" d="M441.39 389.27s-7.645 2.907-13.628 4.669-16.66 8.355-16.66 8.355-10.87 9.793-10.478 11.088 1.681 1.918 3.331.591 9.8-6.139 9.8-6.139.523 2.727 2.285 3.038a4.738 4.738 0 0 0 2.69-.125s.722 2.559 1.992 3.393a7.321 7.321 0 0 0 2.44 1.04 2.054 2.054 0 0 0 1.681 1.917 10.75 10.75 0 0 0 3.368.4s5.672-3.437 6.574-5.093 2-3.891 2-3.891l2.341-1.17 7.191-1.245z" transform="translate(903.561 253.216)" style="fill:#c78976"/>
            <path data-name="路径 14680" d="M441.6 408.627a4.534 4.534 0 0 1-.7.865 9.29 9.29 0 0 1-2.528 1.774 12.733 12.733 0 0 1-4.526 1.245 9.868 9.868 0 0 1-2.851-.118 7.47 7.47 0 0 1-2.895-1.193l.187-.255a20 20 0 0 1 2 1.7 7.1 7.1 0 0 1 .9 1.058 3.536 3.536 0 0 1 .548 1.332 4.1 4.1 0 0 1-.778 3.256l-.075.093-.112-.044a15.334 15.334 0 0 1-3.051-1.706c-.921-.623-1.768-1.295-2.565-1.924s-1.532-1.245-2.235-1.805a2.777 2.777 0 0 1-.834-2.347 3.889 3.889 0 0 1 .324-1.046 9.28 9.28 0 0 1 .4-.878c.268-.529.529-.971.753-1.326a6.646 6.646 0 0 1 .554-.778 1.573 1.573 0 0 1 .218-.255 1.48 1.48 0 0 1-.168.286c-.118.181-.293.454-.5.809a14.868 14.868 0 0 0-.7 1.339c-.131.268-.255.56-.374.872a3.579 3.579 0 0 0-.286 1 2.552 2.552 0 0 0 .791 2.142c.672.548 1.457 1.139 2.241 1.762s1.644 1.276 2.559 1.9a15.329 15.329 0 0 0 3 1.656l-.187.056a3.792 3.792 0 0 0 .716-3 3.318 3.318 0 0 0-.5-1.214 7 7 0 0 0-.859-1.009 18.71 18.71 0 0 0-1.967-1.674l.187-.255a7.047 7.047 0 0 0 2.764 1.152 9.585 9.585 0 0 0 2.777.143 12.849 12.849 0 0 0 4.458-1.183 9.651 9.651 0 0 0 2.54-1.681c.499-.444.741-.776.774-.749z" transform="translate(895.464 246.796)" style="fill:#925b4c"/>
            <path data-name="路径 14681" d="M437 420.366a5.688 5.688 0 0 1 .934-.374 6.848 6.848 0 0 0 2.03-1.2 2.16 2.16 0 0 0 .623-1.046 1.388 1.388 0 0 0-.847-1.581.579.579 0 0 1 .286 0 1.108 1.108 0 0 1 .623.486 1.594 1.594 0 0 1 .243 1.139 2.278 2.278 0 0 1-.71 1.245 5.6 5.6 0 0 1-2.182 1.188 2.247 2.247 0 0 1-1 .143z" transform="translate(889.827 243.07)" style="fill:#925b4c"/>
            <path data-name="路径 14682" d="M439.57 425.942a13.314 13.314 0 0 1 1.376-.9c.43-.274.928-.623 1.463-1.009a11.206 11.206 0 0 0 1.619-1.407 2.217 2.217 0 0 0 .492-.921 1.432 1.432 0 0 0-.118-.928 2.011 2.011 0 0 0-1.245-1.04A3.419 3.419 0 0 0 442 419.6a1.649 1.649 0 0 1-.442 0 1.108 1.108 0 0 1 .436-.125 3.113 3.113 0 0 1 1.245.044 2.254 2.254 0 0 1 1.457 1.133 1.806 1.806 0 0 1 .156 1.127 2.534 2.534 0 0 1-.554 1.065 9.9 9.9 0 0 1-1.693 1.432 19.57 19.57 0 0 1-1.513.971 5.941 5.941 0 0 1-1.519.7z" transform="translate(888.857 241.833)" style="fill:#925b4c"/>
            <path data-name="路径 14683" d="M449.814 427.067a5.488 5.488 0 0 0 .268-.84 1.83 1.83 0 0 0-2.609-2.011c-.5.218-.7.517-.747.479s.118-.386.623-.685a2 2 0 0 1 2.945 2.26c-.138.585-.461.822-.48.797z" transform="translate(886.159 240.21)" style="fill:#925b4c"/>
            <path data-name="路径 14684" d="m505.6 442.27-2 2.945h-14.9l-18.97 7.645h49.009c.417-.517 1.693-2.49 1.693-2.49z" transform="translate(877.474 233.212)" style="fill:#c78976"/>
            <path data-name="路径 14685" d="M573.052 270.907c-10.7-17.314-33.7-38.469-35.649-39.446s-33.389-2.951-33.389-2.951l-24.828 17.619-8.243 12.321c-1.127 3.505-3.113 8.9-2.2 12.451l.766 6.076 25.9 16.716 12.881 7.521 7.172 10.173-.573 17.04 10.148-1.93s15.627 1.544 30.606 1.911 35.58-4.389 35.58-4.389-6.237-33.793-18.171-53.112z" transform="translate(877.935 313.891)" style="fill:#455a64"/>
            <path data-name="路径 14686" d="m534.748 262.971 8.791 48.772-18.229 53.8 18.229 9.961s13.024-22.923 18.889-36.788a196.312 196.312 0 0 0 8-21.609s0-52.713-1.868-58.79-8.056-18.123-14.568-17.469-21.908 7.33-19.244 22.123z" transform="translate(856.497 309.246)" style="fill:#455a64"/>
            <path data-name="路径 14687" d="m466.623 306.4 15.708 38.462a15.906 15.906 0 0 0-1.868 4.526l-19.593 9.682 5.753 18.522s24.442-8.093 27.9-9.961 13.448-8.978 15.178-14.749-7.863-26.216-7.863-26.216z" transform="translate(880.818 284.493)" style="fill:#455a64"/>
            <path data-name="路径 14688" d="M514.759 331.992a1.864 1.864 0 0 1-.336-.168l-.928-.517c-.8-.461-1.961-1.133-3.381-1.992s-3.113-1.868-4.893-3.113c-.9-.623-1.868-1.295-2.77-2.048l-2.839-2.347-9.912-8.307-2.976-2.546-.8-.7a1.575 1.575 0 0 1-.262-.261 1.312 1.312 0 0 1 .305.212l.834.623c.753.623 1.787 1.451 3.051 2.49 2.577 2.135 6.089 5.03 9.961 8.23l2.833 2.36c.921.741 1.868 1.419 2.739 2.042a130.289 130.289 0 0 0 4.85 3.194l3.318 2.073.9.573a1.467 1.467 0 0 1 .311.205z" transform="translate(871.462 283.139)" style="fill:#263238"/>
            <path data-name="路径 14689" d="M517.056 232.13a8.773 8.773 0 0 1 1.2 1.812 13.074 13.074 0 0 1 1.395 5.728 15.522 15.522 0 0 1-.492 4.072 17.3 17.3 0 0 1-1.868 4.358 23.608 23.608 0 0 1-7.57 7.571 20.072 20.072 0 0 1-10.135 3.374 13.367 13.367 0 0 1-8.324-2.49 11.113 11.113 0 0 1-3.735-4.545 6.844 6.844 0 0 1-.33-.872 3.739 3.739 0 0 1-.174-.66c-.037-.162-.062-.3-.087-.411a.418.418 0 0 1 0-.143 18.675 18.675 0 0 0 .722 2.036 11.206 11.206 0 0 0 3.735 4.414 13.211 13.211 0 0 0 8.174 2.4 19.922 19.922 0 0 0 9.961-3.343 23.589 23.589 0 0 0 7.472-7.475 17.22 17.22 0 0 0 1.868-4.246 15.567 15.567 0 0 0 .517-4 13.148 13.148 0 0 0-1.283-5.678 8.042 8.042 0 0 0-.43-.816 7.257 7.257 0 0 0-.355-.579l-.23-.349c-.012-.108-.037-.152-.031-.158z" transform="translate(870.982 312.525)" style="fill:#263238"/>
            <path data-name="路径 14690" d="M522.77 265.783c-.087.031-.542-.977-1.307-2.086s-1.544-1.9-1.475-1.967a7.253 7.253 0 0 1 2.783 4.053z" transform="translate(858.507 301.353)" style="fill:#263238"/>
            <path data-name="路径 14691" d="M531.256 257.9a14.631 14.631 0 0 0-2.086-1.525 15.179 15.179 0 0 0-2.44-.847 4.981 4.981 0 0 1 4.526 2.372z" transform="translate(855.961 303.698)" style="fill:#263238"/>
            <path data-name="路径 14692" d="M536.635 248.253c-.031.087-.946-.193-2.1-.349a18.469 18.469 0 0 1-2.117-.243 4.358 4.358 0 0 1 2.16-.081 4.445 4.445 0 0 1 2.057.673z" transform="translate(853.813 306.731)" style="fill:#263238"/>
            <path data-name="路径 14693" d="M536.025 236.337a12.526 12.526 0 0 1-1.868.523 13.934 13.934 0 0 1-1.868.548 3.972 3.972 0 0 1 1.787-.859 4.065 4.065 0 0 1 1.949-.212z" transform="translate(853.862 310.951)" style="fill:#263238"/>
            <path data-name="路径 14694" d="M508.039 271.814a3.225 3.225 0 0 1-.486-1.992 3.287 3.287 0 0 1 .5-1.992c.093.031-.181.9-.181 1.992s.254 1.961.167 1.992z" transform="translate(863.203 299.051)" style="fill:#263238"/>
            <path data-name="路径 14695" d="M492.21 269.625a4.027 4.027 0 0 1 .9-1.295c.56-.66 1.077-1.146 1.139-1.083a4.142 4.142 0 0 1-.89 1.295c-.559.672-1.08 1.139-1.149 1.083z" transform="translate(868.99 299.273)" style="fill:#263238"/>
            <path data-name="路径 14696" d="M568.412 268.91a.76.76 0 0 0 .075.262 6.613 6.613 0 0 1 .174.784c.137.7.262 1.749.4 3.113.261 2.739.5 6.767.691 11.91.386 10.279.623 25 .7 42.721v.037c-1.314 4.464-2.97 9.034-4.8 13.753s-3.816 9.581-6.17 14.456c-4.669 9.768-10.1 19.879-15.907 30.226l-.081.143-.137-.081-1.687-.915-16.548-9.034-.118-.062.044-.131L543.31 322.3v.062c-2.658-14.879-4.837-27.076-6.35-35.555-.753-4.233-1.332-7.539-1.731-9.793l-.442-2.565c-.1-.585-.143-.878-.143-.878s.068.3.18.872.268 1.438.479 2.559c.411 2.254 1.021 5.553 1.8 9.781 1.538 8.473 3.735 20.663 6.462 35.536v.062c-5.161 15.247-11.387 33.669-18.2 53.815l-.075-.193 16.523 9.027 1.687.921-.218.062c5.8-10.347 11.206-20.451 15.907-30.2 2.347-4.869 4.358-9.731 6.176-14.431s3.5-9.283 4.812-13.7v.037c0-17.725-.243-32.436-.579-42.715-.174-5.142-.386-9.171-.623-11.9-.125-1.37-.237-2.416-.361-3.113a7.677 7.677 0 0 0-.149-.791 2.728 2.728 0 0 1-.05-.293z" transform="translate(856.614 298.643)" style="fill:#263238"/>
            <path data-name="路径 14697" d="M563.8 246.219a24.861 24.861 0 0 0-2.951-1.245 14.724 14.724 0 0 0-14.425 2.957 25.924 25.924 0 0 0-2.223 2.31 3.4 3.4 0 0 1 .473-.728 13.077 13.077 0 0 1 1.594-1.756 14.381 14.381 0 0 1 14.655-3 12.769 12.769 0 0 1 2.154.99 3.479 3.479 0 0 1 .723.472z" transform="translate(849.367 308.08)" style="fill:#263238"/>
            <g data-name="组 8377" style="opacity:.3">
                <path data-name="路径 14698" d="M1420.568 644.106c.1-.262.193-.523.293-.778l-.162.112z"/>
                <path data-name="路径 14699" d="M1430.404 609.807a146.9 146.9 0 0 0-3.9-23.745c-1.762 13.466 1.693 27.281-.623 40.666a90.967 90.967 0 0 1-5.037 16.6c5.093-3.331 8.162-9.158 9.376-15.129s.788-12.266.184-18.392z"/>
            </g>
            <g data-name="组 8378" style="opacity:.3">
                <path data-name="路径 14700" d="m1384.104 613.867-21.622-16.318c.243 6.083 4.868 11.076 9.681 14.811s11.349 8.031 15.907 12.065c-1.476-3.366-2.458-7.196-3.966-10.558z"/>
            </g>
            <path data-name="路径 14701" d="M516.439 295.37a3.685 3.685 0 0 1-.349.411c-.237.262-.623.623-1.065 1.127a25.987 25.987 0 0 1-4.358 3.679 12.762 12.762 0 0 1-3.6 1.631 9.158 9.158 0 0 1-4.532 0 16.954 16.954 0 0 1-4.551-2.1c-1.476-.9-2.932-1.955-4.545-2.8a11.786 11.786 0 0 0-5.012-1.507 7.359 7.359 0 0 0-4.557 1.488 35.9 35.9 0 0 0-3.405 2.926 14.021 14.021 0 0 1-3.206 2.31 5.884 5.884 0 0 1-3.181.666 4.794 4.794 0 0 1-2.335-.778 3.268 3.268 0 0 1-1.077-1.121 2.156 2.156 0 0 1-.218-.5s.087.168.274.461a3.381 3.381 0 0 0 1.089 1.052 4.788 4.788 0 0 0 2.279.7 5.778 5.778 0 0 0 3.069-.691 14.026 14.026 0 0 0 3.113-2.3 36.033 36.033 0 0 1 3.412-2.97 9.276 9.276 0 0 1 2.185-1.164 7.147 7.147 0 0 1 2.553-.4 12.028 12.028 0 0 1 5.155 1.538c1.644.853 3.113 1.911 4.563 2.814a16.668 16.668 0 0 0 4.458 2.079 7.913 7.913 0 0 0 2.26.293 8.878 8.878 0 0 0 2.135-.249 12.62 12.62 0 0 0 3.542-1.563 27.494 27.494 0 0 0 4.358-3.58l1.1-1.077a3.113 3.113 0 0 1 .446-.375z" transform="translate(877.202 288.657)" style="fill:#fff"/>
            <path data-name="路径 14702" d="M575.7 285.963a1.6 1.6 0 0 1-.261.249 3.685 3.685 0 0 1-.89.517 5.827 5.827 0 0 1-3.735.112c-3.244-.747-6.12-4.707-10.97-5.6a17.274 17.274 0 0 0-3.474-.442 18.323 18.323 0 0 0-3.256.249 17.432 17.432 0 0 0-5.23 1.756 18.833 18.833 0 0 0-4.109 3.026 1.583 1.583 0 0 1 .23-.274l.7-.747c.342-.286.747-.66 1.245-1.04l.834-.585a10.816 10.816 0 0 1 .984-.579 17.165 17.165 0 0 1 5.286-1.868 18.343 18.343 0 0 1 3.312-.274 16.717 16.717 0 0 1 3.542.442 16.313 16.313 0 0 1 3.368 1.177c.5.286 1.015.542 1.482.834s.909.623 1.339.921a16.141 16.141 0 0 0 4.769 2.77 5.877 5.877 0 0 0 3.642 0 5.464 5.464 0 0 0 1.192-.644z" transform="translate(849.529 294.284)" style="fill:#fff"/>
            <path data-name="路径 14703" d="M612.194 275.268c0 .031-.286.162-.747.517a6.02 6.02 0 0 0-1.55 1.868 12.615 12.615 0 0 0-1.177 3.449 23.381 23.381 0 0 1-1.189 4.4 7.47 7.47 0 0 1-3 3.418A8.323 8.323 0 0 1 601 290.1a7.085 7.085 0 0 1-2.49-.193 3.644 3.644 0 0 1-.623-.218c-.149-.056-.224-.087-.218-.1s.318.081.89.193a7.625 7.625 0 0 0 2.453.093 8.386 8.386 0 0 0 3.4-1.245 7.309 7.309 0 0 0 2.858-3.293 25.29 25.29 0 0 0 1.2-4.327 12.319 12.319 0 0 1 1.245-3.5 5.647 5.647 0 0 1 1.675-1.868 3.116 3.116 0 0 1 .591-.336 1.913 1.913 0 0 1 .213-.038z" transform="translate(829.186 296.245)" style="fill:#fff"/>
            <path data-name="路径 14704" d="M496.565 324.79a2.571 2.571 0 0 1-.125.66 5.271 5.271 0 0 1-.218.76 10.3 10.3 0 0 1-.38.977 9.793 9.793 0 0 1-.579 1.133 12.214 12.214 0 0 1-.784 1.245 13.6 13.6 0 0 1-5.105 4.246 12.655 12.655 0 0 1-2.584.89 8.438 8.438 0 0 1-1.033.181 4.8 4.8 0 0 1-.784.062 2.954 2.954 0 0 1-.672 0c0-.068.959-.075 2.434-.454a13.472 13.472 0 0 0 2.49-.934 15.223 15.223 0 0 0 2.739-1.787 15.054 15.054 0 0 0 2.254-2.372 13.221 13.221 0 0 0 .8-1.189 9.245 9.245 0 0 0 .623-1.1c.637-1.397.843-2.337.924-2.318z" transform="translate(871.975 277.553)" style="fill:#fff"/>
            <path data-name="路径 14705" d="M646.987 401.7a5.836 5.836 0 0 1-1.021.181 9.407 9.407 0 0 1-1.214.125 14.456 14.456 0 0 1-1.612.05 16.684 16.684 0 0 1-1.949-.093c-.7-.044-1.444-.181-2.229-.3a27.338 27.338 0 0 1-4.931-1.469 26.638 26.638 0 0 1-4.52-2.459c-.623-.467-1.245-.89-1.787-1.363a17.018 17.018 0 0 1-1.444-1.314c-.442-.4-.784-.828-1.1-1.177a8.986 8.986 0 0 1-.766-.946 6.19 6.19 0 0 1-.623-.847 5.485 5.485 0 0 1 .691.766 10.37 10.37 0 0 0 .809.9c.324.336.679.747 1.121 1.133a18.349 18.349 0 0 0 1.463 1.276c.523.454 1.146.872 1.781 1.326a28.235 28.235 0 0 0 4.476 2.4 27.749 27.749 0 0 0 4.862 1.469c.772.131 1.5.28 2.2.33a18.492 18.492 0 0 0 1.93.137c.623.037 1.127 0 1.6 0a10.673 10.673 0 0 0 1.209-.069 7.053 7.053 0 0 1 1.058-.062z" transform="translate(819.328 252.152)" style="fill:#455a64"/>
            <path data-name="路径 14706" d="M580.878 441.34c-.087 0 1.245-6.188 2.982-13.784s3.206-13.734 3.293-13.7-1.245 6.195-2.982 13.79-3.219 13.738-3.293 13.694z" transform="translate(835.525 243.935)" style="fill:#455a64"/>
            <path data-name="路径 14707" d="M496.58 206.892a7.2 7.2 0 0 0-.623-3.5l-18.9-41.364c-4.4-11.872-14.985-19.213-26.733-14.481l-1.065.5a22.643 22.643 0 0 0-11.524 28.489c3.872 10.272 8.286 21.566 10.858 26.845 5.323 10.926 17.121 7.471 17.121 7.471l2.2 4.209s2.3 7.925 12.153 6.817c7.577-.859 13.18-8.212 15.371-11.567a7.147 7.147 0 0 0 1.133-3.424z" transform="translate(890.102 344.997)" style="fill:#c78976"/>
            <path data-name="路径 14708" d="M483.42 243.413a29.454 29.454 0 0 0 12.408-11.013s.349 9.507-11.088 13.7z" transform="translate(872.307 312.423)" style="fill:#925b4c"/>
            <path data-name="路径 14709" d="M449.925 206.864a1.731 1.731 0 0 0 2.26.872 1.662 1.662 0 0 0 .953-2.179 1.737 1.737 0 0 0-2.26-.872 1.656 1.656 0 0 0-.953 2.179z" transform="translate(884.996 322.936)" style="fill:#263238"/>
            <path data-name="路径 14710" d="M446.448 199.653c.293.118 1.065-1.326 2.758-2.117s3.325-.535 3.412-.828c.05-.137-.324-.411-1.052-.548a4.763 4.763 0 0 0-2.851.4 4.626 4.626 0 0 0-2.073 1.949c-.331.64-.331 1.1-.194 1.144z" transform="translate(886.294 326.126)" style="fill:#263238"/>
            <path data-name="路径 14711" d="M474.8 195.313a1.731 1.731 0 0 0 2.26.872 1.656 1.656 0 0 0 .953-2.179 1.731 1.731 0 0 0-2.26-.872 1.662 1.662 0 0 0-.953 2.179z" transform="translate(875.608 327.297)" style="fill:#263238"/>
            <path data-name="路径 14712" d="M473.356 187.57c.286.112 1.065-1.332 2.752-2.123s3.331-.529 3.418-.828c.044-.131-.324-.411-1.052-.548a4.763 4.763 0 0 0-2.851.411 4.551 4.551 0 0 0-2.073 1.942c-.331.648-.337 1.096-.194 1.146z" transform="translate(876.139 330.688)" style="fill:#263238"/>
            <path data-name="路径 14713" d="M469.443 205.732a12.29 12.29 0 0 0-2.976.8c-.454.162-.9.268-1.114 0a2.434 2.434 0 0 1-.318-1.413c-.087-1.245-.174-2.528-.274-3.885-.436-5.516-.971-9.961-1.189-9.961s-.05 4.5.386 10.011q.174 2.036.342 3.885a2.777 2.777 0 0 0 .573 1.8 1.2 1.2 0 0 0 1.009.293 3.112 3.112 0 0 0 .778-.243 11.641 11.641 0 0 0 2.783-1.287z" transform="translate(879.834 327.947)" style="fill:#263238"/>
            <path data-name="路径 14714" d="M479.946 212.6c-.28.118.579 1.949-.374 3.991s-3 2.764-2.895 3.026c0 .131.623.149 1.438-.218a5.03 5.03 0 0 0 2.49-2.416 4.414 4.414 0 0 0 .2-3.293c-.317-.802-.741-1.163-.859-1.09z" transform="translate(874.853 319.901)" style="fill:#263238"/>
            <path data-name="路径 14715" d="M467.653 177.29c.38.38 1.967-.623 4.059-1.332s3.953-.909 4.022-1.451c0-.249-.461-.548-1.314-.691a7.427 7.427 0 0 0-6.157 2.117c-.592.641-.785 1.167-.61 1.357z" transform="translate(878.281 334.555)" style="fill:#263238"/>
            <path data-name="路径 14716" d="M443.69 191.32c.479.243 1.457-.7 2.845-1.382s2.708-.965 2.789-1.494c0-.249-.342-.548-1.027-.666a4.567 4.567 0 0 0-4.545 2.341c-.305.603-.28 1.081-.062 1.201z" transform="translate(887.365 329.279)" style="fill:#263238"/>
            <path data-name="路径 14717" d="M435.614 169.808s-.349-8.249 2.21-11.424c3.113-3.841 6.911-.249 10.235-3.113s6.282-6.556 11.592-5.441c5.809 1.214 4.875 4.433 7.471 9.189 10.409 19.262 16.66 23.147 13.286 13.348-.367-1.071 2.079-3.219.467-7.726-2.1-5.846-5.086-12.738-8.205-16.112-2.634-2.851-5.6-4.258-10.248-5.192-7.3-1.469-14.749 1.942-19.543 4.825s-11.791 13.247-7.265 21.646z" transform="translate(890.902 346.172)" style="fill:#263238"/>
            <path data-name="路径 14718" d="M506.9 187.325a3.306 3.306 0 0 1 1.868-4.4c2.142-.772 4.981-.685 6.848 3.617 3.306 7.626-5.037 9.376-5.142 9.164s-2.221-5.181-3.574-8.381z" transform="translate(863.549 331.238)" style="fill:#c78976"/>
            <path data-name="路径 14719" d="M512.348 193.812c0-.037.168.037.442.044a1.5 1.5 0 0 0 1-.411c.672-.623.8-2.223.237-3.611a4.743 4.743 0 0 0-1.2-1.743 1.668 1.668 0 0 0-1.438-.585.735.735 0 0 0-.623.7c0 .261.106.392.068.423s-.218-.062-.293-.4a.928.928 0 0 1 .093-.623 1.071 1.071 0 0 1 .623-.511 2.03 2.03 0 0 1 1.905.579 4.981 4.981 0 0 1 1.382 1.924c.623 1.556.454 3.337-.51 4.134a1.569 1.569 0 0 1-1.3.33c-.292-.069-.411-.194-.386-.25z" transform="translate(862.075 329.538)" style="fill:#925b4c"/>
            <path data-name="路径 14720" d="M473.5 156.079a7.846 7.846 0 0 1-2.49 2.976 2.721 2.721 0 0 1-3.536-.442c-.336-.479-.492-1.146-1.027-1.388-.623-.293-1.326.218-1.924.585a5.3 5.3 0 0 1-6.6-1.089 2.237 2.237 0 0 1-2.584 1.532 11.282 11.282 0 0 1-3.076-1.245 3.382 3.382 0 0 0-3.194-.075c-.517.342-.878.921-1.463 1.133-1.027.38-2.054-.548-2.665-1.457s-1.245-2-2.353-2.135-1.868.623-2.727 1.2-2.117.9-2.77.125a1.986 1.986 0 0 1-.305-1.519 5.379 5.379 0 0 1 4.875-4.557 7.29 7.29 0 0 1 11.518-7 7.4 7.4 0 0 1 11.829-2.615 5.36 5.36 0 0 1 8.8 4.476 5.066 5.066 0 0 1 4.271 2.49c.766 1.563 0 3.8-1.718 4.1a2.97 2.97 0 0 1-3.381 4.875" transform="translate(889.924 347.991)" style="fill:#263238"/>
            <path data-name="路径 14721" d="M445.43 158.58a.259.259 0 0 0 .068.137 2.975 2.975 0 0 0 .237.38 5.08 5.08 0 0 0 1.245 1.189 5.884 5.884 0 0 0 2.49.99 5.522 5.522 0 0 0 3.493-.573l-.205-.106a3.013 3.013 0 0 0 1.127 2 8.679 8.679 0 0 0 2.16 1.245 6.226 6.226 0 0 0 1.245.467 2.9 2.9 0 0 0 1.4-.125 3.026 3.026 0 0 0 2.036-2.011l-.318.05a6.226 6.226 0 0 0 4.227 2.77 4.526 4.526 0 0 0 2.851-.355 8.274 8.274 0 0 0 2.179-1.681h-.243a6.555 6.555 0 0 0 2.876 1.475 3.462 3.462 0 0 0 2.951-.523 4.557 4.557 0 0 0 1.656-4.744l-.131.162a4.3 4.3 0 0 0 2.764-.84 4.713 4.713 0 0 0 1.419-1.65 3.934 3.934 0 0 0 .4-1.32 1.705 1.705 0 0 0 0-.473 4.813 4.813 0 0 1-.535 1.725 4.632 4.632 0 0 1-1.413 1.556 4.115 4.115 0 0 1-2.627.747h-.181l.05.174a4.321 4.321 0 0 1-1.612 4.42 3.163 3.163 0 0 1-2.7.448 6.225 6.225 0 0 1-2.708-1.413l-.125-.112-.118.118a7.845 7.845 0 0 1-2.086 1.606 4.184 4.184 0 0 1-2.634.324 5.914 5.914 0 0 1-4-2.609l-.212-.33-.106.386a2.7 2.7 0 0 1-1.774 1.768 2.565 2.565 0 0 1-1.245.118 5.6 5.6 0 0 1-1.17-.436 8.4 8.4 0 0 1-2.1-1.17 2.752 2.752 0 0 1-1.046-1.805v-.205l-.181.1a5.3 5.3 0 0 1-3.325.623 5.908 5.908 0 0 1-2.453-.9 6.282 6.282 0 0 1-1.644-1.606z" transform="translate(886.646 341.617)" style="fill:#455a64"/>
            <path data-name="路径 14722" d="M452.428 200.786a15.287 15.287 0 0 0-.461-1.961 8.187 8.187 0 0 0-3.306-4.221 8.072 8.072 0 0 0-7.7-.579A7.427 7.427 0 0 0 439 195.27a7.552 7.552 0 0 0-1.575 1.824 8.025 8.025 0 0 0 .679 9.494 7.7 7.7 0 0 0 1.824 1.581 7.34 7.34 0 0 0 2.1.953 8.093 8.093 0 0 0 10.21-6.325 15.927 15.927 0 0 0 .181-2 4.355 4.355 0 0 1 .044.523 3.736 3.736 0 0 1 0 .623 5.279 5.279 0 0 1-.093.865 8.337 8.337 0 0 1-10.416 6.618 7.733 7.733 0 0 1-2.191-.977 7.863 7.863 0 0 1-1.868-1.637 8.3 8.3 0 0 1-.71-9.868 7.776 7.776 0 0 1 1.644-1.868 7.963 7.963 0 0 1 2.03-1.283 8.361 8.361 0 0 1 4.358-.654 8.243 8.243 0 0 1 3.6 1.32 8.156 8.156 0 0 1 3.3 4.358 5.415 5.415 0 0 1 .212.847 3.493 3.493 0 0 1 .1.623 4.1 4.1 0 0 1-.006.5z" transform="translate(890.244 327.265)" style="fill:#263238"/>
            <path data-name="路径 14723" d="M483.48 185.977a14.213 14.213 0 0 0-.454-1.961 8.187 8.187 0 0 0-3.306-4.221 8.07 8.07 0 1 0-6.624 14.525 8.117 8.117 0 0 0 10.21-6.325 13.788 13.788 0 0 0 .174-2 2.4 2.4 0 0 1 .044.523 3.062 3.062 0 0 1 0 .623 5.885 5.885 0 0 1-.093.865 8.137 8.137 0 0 1-2.64 4.8 8.28 8.28 0 0 1-7.776 1.793 8.386 8.386 0 0 1-4.09-2.621 8.327 8.327 0 1 1 14.232-8 5.606 5.606 0 0 1 .212.847 3.571 3.571 0 0 1 .093.623 3.074 3.074 0 0 1 .019.535z" transform="translate(878.535 332.873)" style="fill:#263238"/>
            <path data-name="路径 14724" d="M464.72 195.326a5.659 5.659 0 0 0-4.57 2.216 2.114 2.114 0 0 1 .367-.716 4.283 4.283 0 0 1 3.412-1.656 1.464 1.464 0 0 1 .791.156z" transform="translate(881.09 326.475)" style="fill:#263238"/>
            <path data-name="路径 14725" d="M501.271 186.506a28.092 28.092 0 0 1-4.252.268 26.9 26.9 0 0 1-4.258-.056 56.03 56.03 0 0 1 8.511-.212z" transform="translate(868.782 329.773)" style="fill:#263238"/>
        </g>
        <g>
            <path data-name="路径 14726" d="M400.348 453.21h37.628a1.868 1.868 0 0 1 1.868 1.868 1.868 1.868 0 0 1-1.868 1.868h-37.628a1.868 1.868 0 0 1-1.868-1.868 1.868 1.868 0 0 1 1.868-1.868z" transform="translate(904.367 229.083)" style="fill:#e0e0e0"/>
            <path data-name="路径 14727" d="M363.684 427.23h-71.173l-7.029-48.087a4.1 4.1 0 0 1 4.053-4.713l62.494.5c2.023 0 3.96.977 4.265 2.982z" transform="translate(947.032 258.817)" style="fill:#e0e0e0"/>
            <path data-name="路径 14728" d="M348 413.55a3.916 3.916 0 1 1-3.91-3.91 3.916 3.916 0 0 1 3.91 3.91z" transform="translate(926.375 245.528)" style="fill:#fff"/>
            <path data-name="路径 14729" d="M400.958 427.13c-.087 0-2.073-11.586-4.439-25.9s-4.219-25.941-4.119-25.96 2.073 11.586 4.439 25.905 4.206 25.937 4.119 25.955z" transform="translate(906.663 258.5)" style="fill:#263238"/>
        </g>
        <g>
            <path data-name="矩形 8628" transform="translate(1072.345 686.047)" style="fill:#455a64" d="M0 0h419.309v10.31H0z"/>
            <path data-name="路径 14730" d="m117.48 459.49-.131.112c-.1.068-.237.174-.442.305a9.376 9.376 0 0 1-2.1.953 18.678 18.678 0 0 1-4.053.766 52.129 52.129 0 0 1-5.647.137c-2.1-.037-4.358-.218-6.8-.442s-4.981-.473-7.745-.517a83.782 83.782 0 0 0-17.432 1.868c-5.964 1.17-11.574 2.571-16.922 3.405-2.671.417-5.261.716-7.714.859a58.528 58.528 0 0 1-6.848 0 37.205 37.205 0 0 1-9.4-1.669 16.887 16.887 0 0 1-2.907-1.245.889.889 0 0 1 .205.068l.554.237c.492.205 1.245.5 2.247.816a38.4 38.4 0 0 0 9.339 1.588 57.342 57.342 0 0 0 6.749-.006c2.428-.149 4.981-.454 7.633-.878 5.3-.84 10.87-2.21 16.878-3.418a80.419 80.419 0 0 1 17.619-1.868c2.789.056 5.385.324 7.8.548s4.676.423 6.749.473a51.815 51.815 0 0 0 5.6-.093 19.124 19.124 0 0 0 4-.7 11.344 11.344 0 0 0 2.777-1.295z" transform="translate(1043.694 226.713)" style="fill:#263238"/>
            <path data-name="路径 14731" d="M74.029 459.729a12.18 12.18 0 0 1-1.245.623 36.719 36.719 0 0 1-3.829 1.382 51.472 51.472 0 0 1-6.226 1.432 58.33 58.33 0 0 1-8.174.716 52.519 52.519 0 0 1-14.612-1.693 9.961 9.961 0 0 1-3.53-1.619 2.744 2.744 0 0 1-.573-.623c-.087-.156-.125-.237-.112-.237a7.633 7.633 0 0 0 .791.8 10.771 10.771 0 0 0 3.53 1.507 55.122 55.122 0 0 0 14.437 1.588 60.055 60.055 0 0 0 8.056-.685 56.171 56.171 0 0 0 6.226-1.357c1.693-.492 3-.959 3.879-1.295a11.719 11.719 0 0 1 1.382-.542z" transform="translate(1041.279 226.63)" style="fill:#263238"/>
            <path data-name="路径 14732" d="M234.989 467.515s.23.044.623.137a16.411 16.411 0 0 0 1.936.286 19.549 19.549 0 0 0 7.334-.623v.131a26.627 26.627 0 0 0-9.1-1.992 28.962 28.962 0 0 0-11.829 1.731c-.442.181-.872.4-.915.666s.305.517.784.666a8.715 8.715 0 0 0 1.625.324l1.787.224c2.4.3 4.881.623 7.471.809a78.44 78.44 0 0 0 7.913.305c1.351 0 2.714-.093 4.065-.218a41.54 41.54 0 0 0 2.023-.237 17.636 17.636 0 0 0 1.961-.361 7.608 7.608 0 0 0 2.54-1.027c.623-.454.84-1.058.486-1.588a4.165 4.165 0 0 0-1.993-1.248 23.033 23.033 0 0 0-2.783-.766 64.616 64.616 0 0 0-11.648-1.357 83.188 83.188 0 0 0-19.885 1.7 67.389 67.389 0 0 0-11.972 3.68c-1.276.554-2.26 1-2.889 1.32l-.741.349-.261.118a1.107 1.107 0 0 1 .224-.137l.71-.374c.623-.342 1.575-.8 2.839-1.37a64.05 64.05 0 0 1 11.947-3.785 82.309 82.309 0 0 1 20.066-1.8 64.9 64.9 0 0 1 11.829 1.363 22.726 22.726 0 0 1 2.876.784 4.507 4.507 0 0 1 2.2 1.395c.43.623.174 1.351-.56 1.868a8.093 8.093 0 0 1-2.739 1.121 18.439 18.439 0 0 1-2.042.374 44.6 44.6 0 0 1-2.061.243 51.386 51.386 0 0 1-4.134.218 78.191 78.191 0 0 1-8.006-.311c-2.584-.218-5.074-.517-7.471-.822l-1.787-.237a9.04 9.04 0 0 1-1.756-.349 2.391 2.391 0 0 1-.735-.367.573.573 0 0 1-.268-.554c.087-.411.623-.66 1.108-.847a29.548 29.548 0 0 1 12.134-1.737 26.547 26.547 0 0 1 9.239 2.086l.168.075-.187.056a19.6 19.6 0 0 1-7.5.585 13.118 13.118 0 0 1-2.621-.51z" transform="translate(978.704 225.374)" style="fill:#263238"/>
            <path data-name="路径 14733" d="M333.172 459.92a1.413 1.413 0 0 1 .411.517 2.316 2.316 0 0 1 .28 1.55c-.137 1.326-1.588 3.069-4.084 4.495a21.856 21.856 0 0 1-3.816 1.824 24.219 24.219 0 0 1-3.679 1c-1.1.212-2.03.318-2.665.38a6.446 6.446 0 0 1-1.009.044c0-.05 1.407-.162 3.549-.623a25.924 25.924 0 0 0 3.542-1.046 22.5 22.5 0 0 0 3.7-1.8c2.447-1.395 3.872-3.051 4.1-4.321a3.3 3.3 0 0 0-.324-2.023z" transform="translate(934.511 226.551)" style="fill:#263238"/>
            <path data-name="路径 14734" d="M425.825 470.808a16.259 16.259 0 0 0-1.93-1.052 19.612 19.612 0 0 0-6.556-1.662 25.527 25.527 0 0 0-4.981.081 37.753 37.753 0 0 1-5.852.305 16.773 16.773 0 0 1-5.827-1.606 26.147 26.147 0 0 0-5.852-1.955 37.446 37.446 0 0 0-13-.112 43.422 43.422 0 0 0-9.619 2.739 54.233 54.233 0 0 0-5.6 2.677l-1.426.791a3.5 3.5 0 0 1-.51.262 2.381 2.381 0 0 1 .436-.305c.3-.193.753-.473 1.357-.828a47.2 47.2 0 0 1 5.5-2.764 42.96 42.96 0 0 1 9.718-2.833 38.12 38.12 0 0 1 13.3.1 26.6 26.6 0 0 1 5.989 2 16.044 16.044 0 0 0 5.572 1.569 37.976 37.976 0 0 0 5.728-.274 26.256 26.256 0 0 1 5.124-.05 19.106 19.106 0 0 1 6.618 1.781 7.267 7.267 0 0 1 1.805 1.139z" transform="translate(917.127 225.007)" style="fill:#263238"/>
            <path data-name="路径 14735" d="M530.744 459.392a3.5 3.5 0 0 1-.461.355c-.324.218-.753.567-1.432.959a40.807 40.807 0 0 1-6.12 3.057 66.835 66.835 0 0 1-10.59 3.306 74.701 74.701 0 0 1-6.848 1.245 61.254 61.254 0 0 1-7.658.554 64.308 64.308 0 0 1-14.537-1.7 65.657 65.657 0 0 1-10.584-3.368 42 42 0 0 1-6.083-3.113c-.672-.392-1.108-.735-1.432-.959a3.243 3.243 0 0 1-.461-.349 4.118 4.118 0 0 1 .542.311c.349.212.809.542 1.5.921a46.543 46.543 0 0 0 6.151 2.995 66.942 66.942 0 0 0 10.521 3.287 64.279 64.279 0 0 0 14.357 1.656 61.118 61.118 0 0 0 7.552-.542c2.409-.3 4.675-.722 6.786-1.2a69.575 69.575 0 0 0 10.584-3.231 45.306 45.306 0 0 0 6.188-2.97c.7-.374 1.146-.71 1.5-.915a4.516 4.516 0 0 1 .523-.305z" transform="translate(879.433 226.754)" style="fill:#263238"/>
            <path data-name="路径 14736" d="M530.064 459.239a2.413 2.413 0 0 1-.355.162c-.243.093-.623.249-1.089.417-.953.349-2.372.822-4.2 1.332a65.037 65.037 0 0 1-6.637 1.519 49.667 49.667 0 0 1-8.66.834 58.392 58.392 0 0 1-15.371-2.185 43.734 43.734 0 0 1-4.165-1.376c-.473-.174-.816-.33-1.058-.436a1.377 1.377 0 0 1-.342-.168s.548.181 1.513.51 2.384.8 4.215 1.289a61.324 61.324 0 0 0 15.209 2.073 50.544 50.544 0 0 0 8.517-.8c2.565-.43 4.788-.959 6.618-1.444s3.275-.928 4.258-1.245 1.529-.5 1.547-.482z" transform="translate(870.507 226.808)" style="fill:#263238"/>
            <path data-name="路径 14737" d="M628.862 460.756h-.834l-2.366-.05-1.7-.044h-7.016l-2.876.05-3.113.118c-2.154.062-4.408.224-6.8.355-4.738.336-9.874.816-15.1 1.469s-9.961 1.475-14.145 2.272c-2.036.43-4.034.809-5.753 1.245l-2.534.591-2.241.591c-1.457.367-2.658.741-3.735 1.058l-1.507.448-1.189.4-1.675.548a4.434 4.434 0 0 1-.623.181 2.319 2.319 0 0 1 .5-.218l1.557-.585 1.139-.423 1.463-.461c1.052-.336 2.235-.722 3.679-1.1l2.223-.623 2.528-.623c1.712-.436 3.735-.828 5.753-1.245 4.2-.816 9-1.625 14.251-2.31s10.465-1.139 15.259-1.463c2.422-.125 4.7-.28 6.848-.33l3.113-.106 2.907-.031c1.868-.037 3.524 0 4.981 0h2.048l1.706.068 2.36.106a6.6 6.6 0 0 1 .892.112z" transform="translate(845.042 226.349)" style="fill:#263238"/>
            <path data-name="路径 14738" d="M423.847 469.463a15.942 15.942 0 0 0-2.31-1.544 28.526 28.526 0 0 0-8.448-2.652c-1.967-.349-4.19-.623-6.593-.822s-4.981-.38-7.714-.623-5.516-.685-8.367-1.177a85.931 85.931 0 0 0-8.9-1.239 64.447 64.447 0 0 0-17.432 1.351c-2.565.529-4.906 1.164-7.079 1.787s-4.153 1.245-5.958 1.818a400.096 400.096 0 0 0-8.467 2.8l-2.272.784-.623.2-.212.062a.814.814 0 0 1 .181-.087l.567-.224 2.229-.828a279.29 279.29 0 0 1 14.338-4.757 81.413 81.413 0 0 1 7.11-1.824 64.318 64.318 0 0 1 17.625-1.388 90.9 90.9 0 0 1 9.015 1.245c2.851.5 5.6.934 8.311 1.189s5.279.448 7.7.672 4.651.5 6.637.859a27.635 27.635 0 0 1 8.5 2.777 7.7 7.7 0 0 1 2.167 1.619z" transform="translate(926.638 226.147)" style="fill:#263238"/>
            <path data-name="路径 14739" d="M310.524 459.49a1.345 1.345 0 0 1-.062.66 5.392 5.392 0 0 1-.822 1.737 13.444 13.444 0 0 1-6.444 4.638 63.6 63.6 0 0 1-9.55 2.49 85.562 85.562 0 0 1-3.051.517 8.206 8.206 0 0 1-1.146.131 8.9 8.9 0 0 1 1.083-.243l2.988-.623a72.1 72.1 0 0 0 9.388-2.521 14.214 14.214 0 0 0 6.394-4.47 10.006 10.006 0 0 0 1.22-2.316z" transform="translate(945.517 226.713)" style="fill:#263238"/>
            <path data-name="路径 14740" d="M166.94 469.644a7.6 7.6 0 0 1 1.021-.548c.679-.349 1.693-.816 2.988-1.376a108.089 108.089 0 0 1 10.69-3.872c4.358-1.351 8.43-2.428 11.387-3.188a225.42 225.42 0 0 1 3.511-.884 10.85 10.85 0 0 1 1.32-.286 9.246 9.246 0 0 1-1.245.386l-3.443.971c-2.914.809-6.948 1.911-11.293 3.25s-8.093 2.714-10.721 3.785c-1.314.535-2.366.984-3.076 1.3a8.133 8.133 0 0 1-1.139.462z" transform="translate(991.756 226.713)" style="fill:#263238"/>
            <path data-name="路径 14741" d="M159.142 460.106c0 .031-.965-.075-2.7 0a31.35 31.35 0 0 0-7 1.2 80.031 80.031 0 0 0-9.083 3.43 58 58 0 0 1-5.472 1.992 47.311 47.311 0 0 1-6.549 1.419 107.07 107.07 0 0 1-13.392.9c-4.146.068-7.869 0-10.988.093s-5.6.237-7.353.4c-.859.087-1.525.162-1.974.224a5.027 5.027 0 0 1-.691.068s.224-.05.666-.125 1.1-.174 1.961-.28c1.712-.205 4.24-.411 7.371-.5s6.848-.075 10.988-.156a108.444 108.444 0 0 0 13.292-.915 48.562 48.562 0 0 0 6.444-1.388c1.967-.591 3.735-1.283 5.429-1.961a76.431 76.431 0 0 1 9.2-3.393 30.583 30.583 0 0 1 7.137-1.114c.878 0 1.563 0 2.023.037a4.905 4.905 0 0 1 .691.069z" transform="translate(1019.308 226.52)" style="fill:#263238"/>
        </g>
    </g>
</svg>
