<svg xmlns="http://www.w3.org/2000/svg" width="470" height="260" viewBox="0 0 470 260">
    <defs>
        <clipPath id="v3tjqgq5ea">
            <path data-name="矩形 8629" transform="translate(1047 444)" style="stroke:#707070;fill:#fff" d="M0 0h470v260H0z"/>
        </clipPath>
    </defs>
    <g data-name="蒙版组 2346" transform="translate(-1047 -444)" style="clip-path:url(#v3tjqgq5ea)">
        <g transform="translate(1077.833 356.989)">
            <path data-name="路径 16051" d="M457.074 286.1a6.011 6.011 0 0 0-.053-.65c-.053-.431-.07-1.072-.123-1.9 0-.422-.053-.879-.079-1.406s-.167-1.072-.255-1.678-.193-1.257-.308-1.951a21.619 21.619 0 0 0-.518-2.188 38.534 38.534 0 0 0-4.446-10.65 39.912 39.912 0 0 0-10.2-11.344l-1.758-1.283c-.606-.4-1.248-.764-1.88-1.151a18.525 18.525 0 0 0-1.951-1.134l-2.074-.993-1.055-.5-1.107-.4-2.25-.817c-.756-.255-1.555-.413-2.346-.633a22.373 22.373 0 0 0-2.417-.545 36.573 36.573 0 0 0-5.053-.58c-.879 0-1.757-.114-2.636-.105l-2.636.141a7.672 7.672 0 0 0-1.336.079l-1.327.211c-.879.149-1.758.246-2.689.431a43.59 43.59 0 0 0-5.316 1.564l-1.327.483c-.22.088-.448.158-.668.255l-.633.308-2.583 1.236c-.879.457-1.652.993-2.487 1.485a12.236 12.236 0 0 0-1.23.782l-1.177.879a45.388 45.388 0 0 0-4.525 3.849l-2.03 2.232-.51.562-.457.606-.879 1.221-.879 1.23-.808 1.309-.8 1.327-.4.659c-.123.228-.229.466-.343.7-.448.931-.879 1.872-1.353 2.812l-1.081 2.953a39.543 39.543 0 0 0 0 25.184l1.081 2.953c.448.94.879 1.88 1.353 2.812l.343.7.4.659.8 1.327.8 1.309.879 1.23.879 1.221.457.606.51.562 2.03 2.232a44.424 44.424 0 0 0 4.525 3.849l1.177.879c.387.3.826.518 1.23.782.835.492 1.643 1.028 2.487 1.485l2.583 1.248.633.308.668.246 1.327.483a40.687 40.687 0 0 0 5.316 1.564c.879.185 1.8.29 2.689.439l1.336.2c.439.061.879.053 1.327.088l2.636.132c.879 0 1.757-.07 2.636-.1a36.576 36.576 0 0 0 5.053-.589 18.516 18.516 0 0 0 2.417-.545c.791-.211 1.59-.378 2.355-.633l2.25-.817 1.107-.4 1.055-.5 2.074-.993c.685-.316 1.3-.764 1.942-1.125s1.274-.756 1.88-1.151l1.758-1.292a39.772 39.772 0 0 0 10.158-11.344 38.332 38.332 0 0 0 4.446-10.641c.176-.782.439-1.494.518-2.188s.211-1.353.307-1.96.2-1.16.255-1.678.053-.975.079-1.4c.053-.826.1-1.459.123-1.907s.053-.65.053-.65v.65l-.07 1.916c0 .413-.044.879-.062 1.406s-.149 1.072-.229 1.678-.193 1.265-.29 1.968a21.676 21.676 0 0 1-.51 2.2 37.692 37.692 0 0 1-4.394 10.738 39.709 39.709 0 0 1-10.184 11.467l-1.758 1.309c-.606.4-1.248.773-1.889 1.169a19.666 19.666 0 0 1-1.96 1.142l-2.091 1.011-1.063.5-1.116.413-2.267.835c-.764.255-1.573.422-2.373.642a20.4 20.4 0 0 1-2.434.562 37.216 37.216 0 0 1-5.1.6c-.879 0-1.757.123-2.636.114l-2.636-.132a7.008 7.008 0 0 1-1.344-.088l-1.344-.2c-.879-.149-1.819-.255-2.715-.439a43.144 43.144 0 0 1-5.387-1.573l-1.336-.483c-.228-.088-.448-.158-.668-.255l-.65-.308-2.636-1.257c-.879-.457-1.67-.993-2.513-1.494a13.693 13.693 0 0 1-1.248-.791l-1.186-.879a45.454 45.454 0 0 1-4.587-3.884l-2.047-2.258-.518-.571-.466-.606-.923-1.239-.931-1.239-.817-1.327-.808-1.336-.4-.677-.352-.7q-.668-1.424-1.371-2.847c-.36-.993-.729-1.986-1.1-2.988a40.044 40.044 0 0 1 0-25.483c.369-1 .729-1.995 1.1-2.988a24.9 24.9 0 0 1 1.371-2.847c.114-.237.22-.475.343-.7l.4-.677.817-1.336.808-1.327.931-1.239.923-1.239.466-.606.518-.571 2.047-2.258a46.439 46.439 0 0 1 4.587-3.884l1.186-.879c.4-.3.835-.518 1.248-.782.879-.5 1.661-1.037 2.513-1.5l2.636-1.248.65-.316.668-.246 1.336-.492a43.146 43.146 0 0 1 5.387-1.573c.879-.185 1.81-.281 2.706-.431l1.353-.2c.439-.061.879-.061 1.344-.088l2.636-.132c.879 0 1.757.07 2.636.105a37.379 37.379 0 0 1 5.1.606 20.777 20.777 0 0 1 2.434.554c.8.22 1.6.387 2.373.641l2.267.835 1.116.413 1.063.51 2.091 1.011c.694.316 1.309.764 1.96 1.142s1.283.764 1.889 1.169l1.757 1.3a39.958 39.958 0 0 1 10.185 11.416 37.787 37.787 0 0 1 4.394 10.738 21.675 21.675 0 0 1 .51 2.2c.1.7.193 1.362.29 1.968s.185 1.169.228 1.687.044.984.062 1.406c0 .826.053 1.467.07 1.907a5.905 5.905 0 0 0 .061.694z" transform="translate(-71.08 -53.832)" style="fill:#e0e0e0"/>
            <circle data-name="椭圆 544" cx="57.574" cy="57.574" r="57.574" transform="translate(12.376)" style="fill:#f5f5f5"/>
            <circle data-name="椭圆 545" cx="21.74" cy="21.74" r="21.74" transform="translate(341.697 134.032)" style="fill:#e0e0e0"/>
            <circle data-name="椭圆 546" cx="17.311" cy="17.311" r="17.311" transform="rotate(-23.73 267.34 56.167)" style="fill:#ebebeb"/>
            <path data-name="路径 16052" d="M194.727 46.156a19 19 0 0 0-.343-1.96 7.97 7.97 0 0 0-10.448-5.457 7.346 7.346 0 0 0-1.995 1.081 7.531 7.531 0 0 0-1.661 1.68 7.9 7.9 0 0 0 3.656 12.074 8.066 8.066 0 0 0 4.148.36 7.909 7.909 0 0 0 3.348-1.467 8.023 8.023 0 0 0 2.953-4.35 18.55 18.55 0 0 0 .343-1.96 6.292 6.292 0 0 1-.167 2 8.058 8.058 0 0 1-2.935 4.569 8.2 8.2 0 0 1-3.471 1.573 8.287 8.287 0 0 1-8.269-3.225 8.242 8.242 0 0 1 0-9.842 7.794 7.794 0 0 1 1.757-1.757 8.013 8.013 0 0 1 2.109-1.125 8.348 8.348 0 0 1 4.394-.334 8.251 8.251 0 0 1 3.471 1.573 8.058 8.058 0 0 1 2.935 4.569 6.292 6.292 0 0 1 .175 1.998z" transform="translate(-47.035 -28.617)" style="fill:#e0e0e0"/>
            <path data-name="路径 16053" d="M58.68 444.68v25.756h79.191V444.68z" transform="translate(-32.534 -77.951)" style="fill:#f5f5f5"/>
            <path data-name="路径 16054" d="M54.9 436.49v7.2h85.281v-7.2H54.9z" transform="translate(-32.076 -76.958)" style="fill:#e0e0e0"/>
            <path data-name="路径 16055" d="M103.191 469.442h39.877v-25.755h2.768v-7.2H101.53v6.529z" transform="translate(-37.73 -76.958)" style="fill:#e0e0e0"/>
            <path data-name="矩形 9986" transform="translate(37.218 370.885)" style="fill:#e0e0e0" d="M0 0h16.063v3.875H0z"/>
            <path data-name="矩形 9987" transform="translate(35.153 379.602)" style="fill:#fff" d="M0 0h20.624v8.19H0z"/>
            <path data-name="路径 16056" d="M72.54 407.22v25.755h79.2V407.22z" transform="translate(-34.215 -73.409)" style="fill:#f5f5f5"/>
            <path data-name="路径 16057" d="M68.76 399.03v7.2h85.289v-7.2H68.76z" transform="translate(-33.756 -72.415)" style="fill:#e0e0e0"/>
            <path data-name="路径 16058" d="M117.061 431.982h39.877v-25.755h2.768v-7.2H115.4v6.529z" transform="translate(-39.412 -72.415)" style="fill:#e0e0e0"/>
            <path data-name="矩形 9988" transform="translate(49.406 337.968)" style="fill:#e0e0e0" d="M0 0h16.063v3.875H0z"/>
            <path data-name="矩形 9989" transform="translate(47.341 346.685)" style="fill:#fff" d="M0 0h20.624v8.19H0z"/>
            <path data-name="路径 16059" d="M436.573 401.2A18.453 18.453 0 0 1 448 399.811c2.065.343 4.227.967 5.633 2.522s1.678 4.288.061 5.624a5.431 5.431 0 0 1-3.559.879c-3.014 0-6.362-.571-8.787 1.248-1.371 1.037-2.285 2.75-3.937 3.26a3.875 3.875 0 0 1-4.271-1.9 6.661 6.661 0 0 1-.483-4.9 7.5 7.5 0 0 1 3.916-5.344z" transform="translate(-77.855 -72.467)" style="fill:#ebebeb"/>
            <path data-name="路径 16060" d="M427.833 379.659c2.118 3.023 6.239 2.021 8.155.176s2.724-4.534 3.453-7.091c1.687-5.844 3.383-11.968 2.127-17.917a9.955 9.955 0 0 0-2.285-4.877 5.193 5.193 0 0 0-4.93-1.634c-2.083.545-3.374 2.583-4.306 4.525a42.567 42.567 0 0 0-4.218 18.33c0 2.952.334 6.046 2 8.489" transform="translate(-77.059 -66.252)" style="fill:#ebebeb"/>
            <path data-name="路径 16061" d="M418.1 385.325a11.126 11.126 0 0 0 1.757-10.141 19.658 19.658 0 0 0-6.01-8.726 32.365 32.365 0 0 0-10.765-6.344 11.362 11.362 0 0 0-4.842-.826 5.062 5.062 0 0 0-4.06 2.46c-1.134 2.162-.053 4.78 1.125 6.916a81.724 81.724 0 0 0 7.074 10.764c2.118 2.733 4.543 5.431 7.768 6.661s6.591 1.09 8.3-1.151" transform="translate(-73.163 -67.594)" style="fill:#ebebeb"/>
            <path data-name="路径 16062" d="M427.936 432.15a6.015 6.015 0 0 0 .193-1.371c.1-1.011.22-2.267.369-3.761a54.822 54.822 0 0 1 .879-5.518 43.157 43.157 0 0 1 2-6.5 24.084 24.084 0 0 1 3.322-5.888 12.364 12.364 0 0 1 4.2-3.515 11.942 11.942 0 0 1 3.515-1.107 7.031 7.031 0 0 0 1.371-.193 6.357 6.357 0 0 0-1.4 0 10.747 10.747 0 0 0-3.691.967 12.4 12.4 0 0 0-4.394 3.515 23.645 23.645 0 0 0-3.445 6.01 39.234 39.234 0 0 0-1.986 6.608 45.525 45.525 0 0 0-.738 5.589 75.561 75.561 0 0 0-.185 3.779 7.083 7.083 0 0 0-.01 1.385z" transform="translate(-77.311 -73.049)" style="fill:#e0e0e0"/>
            <path data-name="路径 16063" d="M428.2 424.139a3.284 3.284 0 0 0 0-.641v-1.828c0-1.582 0-3.875.088-6.714.141-5.668.624-11.766 1.564-20.36.879-8.093 2.091-17.5 3.357-23.62.272-1.388.545-2.636.8-3.743s.457-2.047.659-2.812l.431-1.758a2.232 2.232 0 0 0 .105-.633 3.508 3.508 0 0 0-.22.606c-.141.457-.316 1.037-.527 1.758s-.474 1.7-.756 2.794-.589 2.337-.879 3.726a207.685 207.685 0 0 0-3.515 21.915c-.94 8.62-1.371 16.467-1.406 22.153 0 2.838 0 5.141.1 6.722.044.747.088 1.344.114 1.828a2.461 2.461 0 0 0 .085.607z" transform="translate(-77.31 -67.928)" style="fill:#e0e0e0"/>
            <path data-name="路径 16064" d="M425.483 409.643a10.914 10.914 0 0 0 0-1.907 50.779 50.779 0 0 0-.58-5.176 69.942 69.942 0 0 0-1.678-7.531 61.937 61.937 0 0 0-3.155-8.919 47.557 47.557 0 0 0-9.253-14.411 23.293 23.293 0 0 0-2.179-2.021c-.334-.281-.624-.562-.932-.791l-.879-.58a11.1 11.1 0 0 0-1.608-1.028 55.755 55.755 0 0 1 5.272 4.7 49.966 49.966 0 0 1 9.042 14.385 70.485 70.485 0 0 1 3.163 8.787 76.384 76.384 0 0 1 1.757 7.46c.4 2.153.624 3.9.756 5.123a12.852 12.852 0 0 0 .274 1.909z" transform="translate(-74.559 -68.565)" style="fill:#e0e0e0"/>
            <path data-name="路径 16065" d="m411.63 445.87 1.52 20.773h26.687l1.52-20.773z" transform="translate(-75.337 -78.096)" style="fill:#e0e0e0"/>
            <path data-name="矩形 9990" transform="translate(333.719 359.585)" style="fill:#e0e0e0" d="M0 0h35.483v8.19H0z"/>
            <path data-name="路径 16066" d="M408.7 468.61v2.267h34.9v-2.267z" transform="translate(-74.981 -80.853)" style="fill:#ebebeb"/>
            <path data-name="路径 16067" d="m412.234 475.188-1.634-4h31.959l-1.907 4z" transform="translate(-75.212 -81.166)" style="fill:#e0e0e0"/>
            <path data-name="路径 16068" d="M440.92 453.2a.719.719 0 0 1-.123.185l-.4.536-1.555 1.986-.07.088-.07-.088-3.814-5.272h.22l-3.761 5.308-.123.167-.132-.149c-1.388-1.652-2.891-3.453-4.455-5.272h.255l-.246.308c-1.38 1.757-2.724 3.418-3.99 5l-.132.167-.123-.167-3.761-5.325h.22l-4.631 5.272-.088.088-.062-.105-1.45-2.434-.369-.65a.818.818 0 0 1-.114-.228 1.377 1.377 0 0 1 .149.2l.413.624 1.529 2.4h-.149l4.561-5.343.114-.132.105.141a503.207 503.207 0 0 0 3.8 5.272h-.255l3.981-5.009.246-.308.123-.158.132.149a1226.87 1226.87 0 0 0 4.446 5.316h-.241l3.8-5.272.105-.158.114.158 3.735 5.334h-.132l1.617-1.942.431-.5a1.87 1.87 0 0 1 .15-.187z" transform="translate(-75.4 -78.633)" style="fill:#f5f5f5"/>
            <path data-name="路径 16069" d="M441.757 445.687c0 .1-6.687.167-14.938.167s-14.938-.07-14.938-.167 6.687-.167 14.938-.167 14.938.08 14.938.167z" transform="translate(-75.367 -78.053)" style="fill:#f5f5f5"/>
            <path data-name="路径 16070" d="M442.939 471.427c0 .088-7.276.167-16.239.167s-16.23-.079-16.23-.167 7.267-.167 16.23-.167 16.239.07 16.239.167z" transform="translate(-75.196 -81.175)" style="fill:#f5f5f5"/>
        </g>
        <path data-name="矩形 9991" transform="translate(1164.427 706.125)" style="fill:#263238" d="M0 0h52.627v7.232H0z"/>
        <path data-name="路径 16071" d="M180.173 431.978h-52.8v-7.408h52.8zm-52.618-.176H180v-7.03h-52.445z" transform="translate(1036.969 281.476)" style="fill:#263238"/>
        <path data-name="路径 16072" d="m133.03 430.15 7.575 37.372h28.023l7.32-34.965z" transform="translate(1036.283 280.799)" style="fill:#263238"/>
        <path data-name="路径 16073" d="m133.03 468.66 4.033 5.554h34.068l4.815-5.554z" transform="translate(1036.283 276.129)" style="fill:#455a64"/>
        <path data-name="路径 16074" d="M155.125 420.718c-.105 0-.237-17.311-.3-38.664s0-38.664.079-38.664.237 17.311.3 38.664.027 38.664-.079 38.664z" transform="translate(1033.642 291.321)" style="fill:#263238"/>
        <path data-name="路径 16075" d="M167.839 382.09a1.932 1.932 0 0 1-.141.4l-.475 1.116-.343.808c-.105.307-.22.633-.352.984s-.264.729-.4 1.125-.246.835-.387 1.292a50.96 50.96 0 0 0-1.476 6.441 78.78 78.78 0 0 0-.808 8.058 106.815 106.815 0 0 0 .413 14.719c.167 1.88.343 3.392.466 4.446.053.492.1.879.132 1.2a1.468 1.468 0 0 1 0 .431 2.371 2.371 0 0 1-.1-.422c-.053-.308-.114-.712-.2-1.2a89.187 89.187 0 0 1-.58-4.437 97.539 97.539 0 0 1-.527-14.763 74.544 74.544 0 0 1 .879-8.1 48.6 48.6 0 0 1 1.555-6.459c.149-.457.264-.879.413-1.292l.439-1.116c.132-.352.264-.677.378-.984a8.424 8.424 0 0 1 .378-.791l.536-1.1c.113-.233.183-.365.2-.356z" transform="translate(1032.651 286.628)" style="fill:#263238"/>
        <path data-name="路径 16076" d="M166.054 366.16s-.053.193-.167.562-.325.94-.554 1.617q-.185.527-.4 1.16c-.132.431-.272.879-.431 1.4-.308 1-.659 2.135-.975 3.418q-.264.967-.527 2t-.5 2.188c-.36 1.5-.633 3.146-.967 4.851-.58 3.445-1.09 7.241-1.441 11.257s-.483 7.847-.536 11.327 0 6.634.185 9.271c0 1.318.123 2.513.193 3.515s.132 1.942.193 2.68.1 1.274.132 1.7a2.8 2.8 0 0 1 0 .6 4.694 4.694 0 0 1-.1-.589c-.044-.422-.114-.984-.193-1.687s-.176-1.634-.264-2.68-.185-2.241-.255-3.559c-.176-2.636-.246-5.791-.255-9.288s.167-7.337.5-11.362.879-7.83 1.476-11.283c.352-1.757.624-3.348 1.011-4.859.176-.756.351-1.485.518-2.188s.369-1.362.554-2c.334-1.283.7-2.416 1.037-3.409l.448-1.4.439-1.151c.255-.659.457-1.2.615-1.59a2.356 2.356 0 0 1 .264-.501z" transform="translate(1033.109 288.559)" style="fill:#263238"/>
        <path data-name="路径 16077" d="M150 424.11a.633.633 0 0 1 0-.2 2.651 2.651 0 0 0-.053-.6q-.053-.835-.158-2.293c-.123-2.021-.308-4.895-.527-8.436-.457-7.118-1.116-16.951-2.311-27.768a352.64 352.64 0 0 0-2.065-15.2c-.387-2.32-.747-4.534-1.151-6.59s-.764-3.972-1.134-5.721-.729-3.313-1.046-4.692-.6-2.566-.879-3.515-.413-1.7-.545-2.232c-.053-.246-.1-.431-.132-.589a.819.819 0 0 1 0-.2 1.227 1.227 0 0 1 .07.193 2.576 2.576 0 0 0 .167.571c.149.536.352 1.274.615 2.214s.589 2.144.879 3.515.729 2.944 1.09 4.692.8 3.656 1.186 5.721.782 4.262 1.186 6.591a323.86 323.86 0 0 1 2.091 15.211c1.2 10.835 1.819 20.676 2.206 27.8.193 3.559.334 6.441.413 8.436 0 .975.062 1.757.088 2.3v.6a.719.719 0 0 1 .009.193z" transform="translate(1035.438 290.996)" style="fill:#263238"/>
        <path data-name="路径 16078" d="M152.4 352.262c-.228-2.452-2.706-4.306-5.167-4.332a8.2 8.2 0 0 0-6.274 3.4 19.824 19.824 0 0 0-3.014 6.7 45.421 45.421 0 0 0-1.854 17.821 26.938 26.938 0 0 0 7.416 16.063 3.014 3.014 0 0 0 2.548 1.169 3.058 3.058 0 0 0 1.353-.826 39.938 39.938 0 0 0 12.944-30.325 12.381 12.381 0 0 0-1.626-6.529c-1.257-1.889-4.192-3.893-6.327-3.137" transform="translate(1035.936 290.77)" style="fill:#ff725e"/>
        <path data-name="路径 16079" d="m131.9 329.264-3.471 6.283c-.079.149-.185.316-.351.325s-.325-.158-.422-.308l-9.174-14.06 2.118-1.2z" transform="translate(1038.047 294.12)" style="fill:#ff725e"/>
        <g data-name="组 8634" style="opacity:.2">
            <path data-name="路径 16080" d="m1169.947 623.384-3.471 6.283c-.079.149-.185.316-.351.325s-.325-.158-.422-.308l-9.174-14.06 2.118-1.2z"/>
        </g>
        <path data-name="路径 16081" d="M150.494 339.653 119.2 321.2a1.476 1.476 0 0 1-.756-.773c-.123-.457.22-.879.554-1.248a21.564 21.564 0 0 1 16.7-6.573 19.1 19.1 0 0 1 15.114 9.4c3.023 5.4 3.12 12.531-.343 17.654" transform="translate(1038.054 295.058)" style="fill:#ff725e"/>
        <path data-name="路径 16082" d="m124.45 315.655.4-.053c.272 0 .668-.062 1.186-.053a23.721 23.721 0 0 1 4.341.343 25.351 25.351 0 0 1 20.211 18.322 23.722 23.722 0 0 1 .782 4.288 8.253 8.253 0 0 1 .044.879 1.573 1.573 0 0 1-.237.685 5.587 5.587 0 0 0 .044-1.582 26.741 26.741 0 0 0-.879-4.227 25.483 25.483 0 0 0-20.035-18.137 27.6 27.6 0 0 0-4.3-.466 11.931 11.931 0 0 1-1.557.001z" transform="translate(1037.323 294.697)" style="fill:#263238"/>
        <path data-name="路径 16083" d="M148.545 328.89a7.48 7.48 0 0 1-1.582.712c-.993.4-2.39.879-3.945 1.4s-2.988.879-4.025 1.142a7.909 7.909 0 0 1-1.714.325 8.337 8.337 0 0 1 1.634-.58l3.989-1.248 3.972-1.283a8.341 8.341 0 0 1 1.671-.468z" transform="translate(1035.767 293.079)" style="fill:#263238"/>
        <path data-name="路径 16084" d="M144.48 313.83a13.03 13.03 0 0 1 .378 3.515 13.856 13.856 0 0 1-.193 3.515 21.011 21.011 0 0 1-.185-3.515 21.466 21.466 0 0 1 0-3.515z" transform="translate(1034.903 294.906)" style="fill:#263238"/>
        <path data-name="路径 16085" d="M119 321.47a15.046 15.046 0 0 1 2.276-.8 99.328 99.328 0 0 1 11.291-2.729 13.448 13.448 0 0 1 2.39-.316 17.577 17.577 0 0 1-2.337.58c-1.45.325-3.445.773-5.65 1.3s-4.183 1.046-5.624 1.415a16.821 16.821 0 0 1-2.346.55z" transform="translate(1037.984 294.445)" style="fill:#263238"/>
        <path data-name="路径 16086" d="M135.041 346.479c-2.689-2.039-5.536-2.443-8.91-2.3a27.242 27.242 0 0 0-9.754 2.513c-5.272 2.311-10.228 5.721-13.383 10.545s-4.253 11.2-1.889 16.459a2.329 2.329 0 0 0 1.063 1.292 2.566 2.566 0 0 0 1.757-.132c6-1.96 12.047-3.937 17.575-7.03s10.545-7.329 13.5-12.909a11.01 11.01 0 0 0 1.424-4.279 5.351 5.351 0 0 0-1.38-4.183" transform="translate(1040.309 291.229)" style="fill:#ff725e"/>
        <path data-name="路径 16087" d="M135.418 346.08a1.387 1.387 0 0 1-.431.176l-1.257.439-.879.3-1.063.413c-.756.308-1.634.615-2.566 1.063l-1.467.677c-.518.229-1.019.518-1.564.8-1.09.527-2.188 1.213-3.357 1.907a58.562 58.562 0 0 0-7.109 5.272 59.763 59.763 0 0 0-6.151 6.38 37.775 37.775 0 0 0-2.32 3.093c-.343.5-.694.967-.993 1.441l-.879 1.38c-.562.879-.975 1.7-1.38 2.408-.193.36-.387.694-.545 1s-.29.6-.422.879c-.237.492-.431.879-.589 1.2s-.211.413-.228.4a2.85 2.85 0 0 1 .158-.431c.141-.316.316-.729.527-1.23.123-.264.255-.562.4-.879s.334-.65.518-1.019c.387-.729.782-1.573 1.336-2.452l.879-1.4c.29-.483.641-.958.975-1.459.659-1.028 1.476-2.047 2.311-3.137a51.361 51.361 0 0 1 13.322-11.722c1.186-.685 2.3-1.362 3.4-1.889.545-.272 1.063-.554 1.573-.782l1.494-.65c.94-.439 1.828-.729 2.636-1.019.387-.141.747-.281 1.081-.387l.923-.272 1.283-.369a2.806 2.806 0 0 1 .387-.132z" transform="translate(1040.019 290.995)" style="fill:#263238"/>
        <path data-name="路径 16088" d="M114.178 359a63.437 63.437 0 0 1-6.547 2.109 64.949 64.949 0 0 1-6.652 1.757 63.425 63.425 0 0 1 6.547-2.109 61.69 61.69 0 0 1 6.652-1.757z" transform="translate(1040.169 289.428)" style="fill:#263238"/>
        <path data-name="路径 16089" d="M115.71 373.559a10.641 10.641 0 0 1-.141-2.047v-4.921c0-1.924.158-3.664.264-4.921a11.2 11.2 0 0 1 .255-2.03 11.707 11.707 0 0 1 0 2.039c-.044 1.38-.1 3.067-.149 4.921s-.088 3.515-.123 4.912a11.95 11.95 0 0 1-.106 2.047z" transform="translate(1038.401 289.35)" style="fill:#263238"/>
        <path data-name="路径 16090" d="M129.655 366.117c-.105 0-.431-3.515-.729-7.909s-.466-7.909-.36-7.909.431 3.515.729 7.909.466 7.9.36 7.909z" transform="translate(1036.828 290.483)" style="fill:#263238"/>
        <path data-name="路径 16091" d="M112.28 349.869a11.785 11.785 0 0 1 2.1-.062c1.292 0 3.084.044 5.053.105s3.761.149 5.053.229a10.731 10.731 0 0 1 2.083.2 12.679 12.679 0 0 1-2.091.061c-1.292 0-3.084-.053-5.053-.114s-3.761-.149-5.053-.22a11.88 11.88 0 0 1-2.092-.199z" transform="translate(1038.799 290.545)" style="fill:#263238"/>
        <path data-name="路径 16092" d="M146.061 393.351a2.22 2.22 0 0 1-.044-.422 10.715 10.715 0 0 0-.053-1.2c-.044-1.037-.062-2.557 0-4.394s.158-4.095.387-6.564.6-5.158 1.1-7.979 1.142-5.466 1.757-7.856 1.327-4.525 1.951-6.292 1.169-3.19 1.582-4.156l.475-1.107c.114-.255.176-.387.193-.378a2.5 2.5 0 0 1-.123.4c-.105.3-.246.677-.413 1.134-.369.984-.879 2.408-1.459 4.183s-1.23 3.91-1.872 6.292-1.23 5.044-1.757 7.847-.879 5.492-1.125 7.909-.4 4.675-.466 6.538-.105 3.374-.1 4.394v1.2a1.415 1.415 0 0 1-.035.448z" transform="translate(1034.719 290.155)" style="fill:#263238"/>
        <path data-name="路径 16093" d="M146.691 375.61a8.783 8.783 0 0 1-1.248 1.371c-.808.808-1.96 1.889-3.269 3.04s-2.54 2.144-3.445 2.838a8.552 8.552 0 0 1-1.52 1.063 9.172 9.172 0 0 1 1.353-1.265l3.366-2.917 3.339-2.953a10.157 10.157 0 0 1 1.424-1.177z" transform="translate(1035.776 287.413)" style="fill:#263238"/>
        <path data-name="路径 16094" d="M158.01 382.936a15.755 15.755 0 0 1-1.327-1.845l-3.093-4.508-3.155-4.473a15.993 15.993 0 0 1-1.265-1.88 12.229 12.229 0 0 1 1.476 1.757c.879 1.107 2.03 2.636 3.251 4.394s2.276 3.392 3.005 4.587a11.925 11.925 0 0 1 1.108 1.968z" transform="translate(1034.325 288.066)" style="fill:#263238"/>
        <path data-name="路径 16095" d="M151.274 356.139c.053.088-3.234 2.3-7.346 4.938s-7.5 4.719-7.548 4.64 3.234-2.3 7.346-4.947 7.496-4.754 7.548-4.631z" transform="translate(1035.877 289.775)" style="fill:#263238"/>
        <path data-name="路径 16096" d="M162.552 366.224a61.589 61.589 0 0 1-4.982-4.6 63.923 63.923 0 0 1-4.71-4.868 62.46 62.46 0 0 1 4.974 4.6 63.123 63.123 0 0 1 4.719 4.868z" transform="translate(1033.878 289.699)" style="fill:#263238"/>
        <path data-name="路径 16097" d="m166.54 364.447 2.821-.228a14.061 14.061 0 0 0 5.7-1.757 22.166 22.166 0 0 1 2.636-1.336c3.515-1.406 7.381-1.151 11.142-1.344a46.2 46.2 0 0 0 17.733-4.526 1.809 1.809 0 0 0 .773-.7c.58-1.055-.5-2-1.432-2.575-4.754-2.926-9.6-5.9-14.991-7.355s-11.494-1.2-16.072 1.986c-5.4 3.726-7.373 11.362-8.286 17.856" transform="translate(1032.219 291.275)" style="fill:#ff725e"/>
        <path data-name="路径 16098" d="M207.445 354.576a1.985 1.985 0 0 1-.483-.22l-1.336-.7c-1.16-.606-2.829-1.511-4.947-2.522a46.111 46.111 0 0 0-7.654-2.953 25.115 25.115 0 0 0-9.912-.8 16.925 16.925 0 0 0-9.042 3.884 19.913 19.913 0 0 0-4.71 6.608 53.851 53.851 0 0 0-2.047 5.149q-.316.879-.5 1.424a3.357 3.357 0 0 1-.2.492 4.394 4.394 0 0 1 .123-.51c.114-.369.255-.879.439-1.45a45.886 45.886 0 0 1 1.951-5.211 19.9 19.9 0 0 1 4.715-6.767 17.074 17.074 0 0 1 9.218-4.025 25.14 25.14 0 0 1 10.061.835 44.47 44.47 0 0 1 7.68 3.049c2.1 1.046 3.752 1.986 4.895 2.636l1.3.756a3.663 3.663 0 0 1 .449.325z" transform="translate(1032.21 290.908)" style="fill:#263238"/>
        <path data-name="路径 16099" d="M203.112 358.284c-.062.088-3.752-2.3-8.251-5.334s-8.093-5.562-8.04-5.65 3.752 2.3 8.251 5.334 8.101 5.566 8.04 5.65z" transform="translate(1029.76 290.847)" style="fill:#263238"/>
        <path data-name="路径 16100" d="M200.131 347.08a9.12 9.12 0 0 1-2.689.483 9.425 9.425 0 0 1-2.742 0 18.552 18.552 0 0 1 2.706-.281 18.6 18.6 0 0 1 2.724-.2z" transform="translate(1028.804 290.873)" style="fill:#263238"/>
        <path data-name="路径 16101" d="M182.1 344.68a7.345 7.345 0 0 1-1.213 1.9 8.194 8.194 0 0 1-1.538 1.757 7.224 7.224 0 0 1 1.213-1.889 7.907 7.907 0 0 1 1.538-1.766z" transform="translate(1030.665 291.164)" style="fill:#263238"/>
        <path data-name="路径 16102" d="M184.693 361.182a10.153 10.153 0 0 1-1.757-.967c-1.063-.65-2.513-1.6-4.051-2.715s-2.9-2.179-3.875-2.952a9.991 9.991 0 0 1-1.529-1.318 11.688 11.688 0 0 1 1.687 1.107l3.937 2.856a190.09 190.09 0 0 0 3.972 2.8 10.207 10.207 0 0 1 1.617 1.186z" transform="translate(1031.377 290.127)" style="fill:#263238"/>
        <path data-name="路径 16103" d="M170.357 380.824c-2.689-.7-5.905 1.916-6.459 4.64s.466 5.527 1.67 8.04a41.107 41.107 0 0 0 11.133 14.56 27.557 27.557 0 0 0 17.039 6.265c-1.142-5.272.3-10.817-.334-16.186a21.089 21.089 0 0 0-18.655-18.453c-1.757-.185-3.708-.457-4.394 1.125" transform="translate(1032.558 286.936)" style="fill:#ff725e"/>
        <path data-name="路径 16104" d="M194.659 414.473a2.14 2.14 0 0 1-.387-.176 7.13 7.13 0 0 1-1.011-.677 10.545 10.545 0 0 1-2.636-3.559c-.431-.835-.879-1.758-1.38-2.742l-1.45-3.2a31.184 31.184 0 0 0-1.757-3.427 25.885 25.885 0 0 0-2.452-3.33c-1.837-2.17-3.823-4.042-5.536-5.835a38.059 38.059 0 0 1-4.218-5.062 18.371 18.371 0 0 1-2.065-3.945 11.6 11.6 0 0 1-.36-1.151 2.032 2.032 0 0 1-.088-.422s.193.554.58 1.52a20.527 20.527 0 0 0 2.144 3.84 41.062 41.062 0 0 0 4.253 4.982c1.757 1.758 3.717 3.638 5.58 5.826a26 26 0 0 1 2.478 3.383 31.023 31.023 0 0 1 1.757 3.471c.492 1.134.967 2.206 1.415 3.216s.879 1.916 1.336 2.75a10.835 10.835 0 0 0 2.5 3.568c.787.681 1.315.935 1.297.97z" transform="translate(1031.639 286.766)" style="fill:#263238"/>
        <path data-name="路径 16105" d="M182 412.447a7.759 7.759 0 0 1 .246-1.81c.211-1.116.554-2.636 1.019-4.3s.967-3.137 1.371-4.192a8.419 8.419 0 0 1 .729-1.678 9.556 9.556 0 0 1-.483 1.758c-.334 1.072-.791 2.557-1.257 4.209s-.879 3.155-1.125 4.244a9.823 9.823 0 0 1-.5 1.769z" transform="translate(1030.344 284.399)" style="fill:#263238"/>
        <path data-name="路径 16106" d="M195.515 398.918a11.088 11.088 0 0 1-1.9-.431c-1.16-.308-2.768-.721-4.552-1.125s-3.409-.712-4.587-.931a11.585 11.585 0 0 1-1.9-.422 8.787 8.787 0 0 1 1.942.158c1.2.158 2.838.431 4.631.835s3.392.879 4.534 1.23a10.089 10.089 0 0 1 1.832.686z" transform="translate(1030.274 284.94)" style="fill:#263238"/>
        <path data-name="路径 16107" d="M170.65 401.694a10.483 10.483 0 0 1 .29-2.1c.237-1.283.615-3.058 1.116-4.982s1.046-3.664 1.467-4.9a11.784 11.784 0 0 1 .764-1.968 11.951 11.951 0 0 1-.518 2.047c-.352 1.257-.879 2.988-1.344 4.912s-.879 3.682-1.221 4.947a13.31 13.31 0 0 1-.554 2.047z" transform="translate(1031.721 285.942)" style="fill:#263238"/>
        <path data-name="路径 16108" d="M188.194 386.23a74.22 74.22 0 0 1-7.5-.606 73.977 73.977 0 0 1-7.469-.984 74.434 74.434 0 0 1 7.5.606 73.992 73.992 0 0 1 7.469.984z" transform="translate(1031.409 286.318)" style="fill:#263238"/>
        <path data-name="路径 16109" d="M180.184 432.833c0 .1-11.819.185-26.362.185s-26.362-.088-26.362-.185 11.819-.193 26.362-.193 26.362.088 26.362.193z" transform="translate(1036.958 280.497)" style="fill:#455a64"/>
        <path data-name="路径 16110" d="M173.191 450.143c0 .1-7.961.185-17.785.185s-17.785-.088-17.785-.185 7.961-.193 17.785-.193 17.785.088 17.785.193z" transform="translate(1035.726 278.398)" style="fill:#455a64"/>
        <path data-name="路径 16111" d="M172.926 452.615c0 .105-7.829.185-17.478.185s-17.478-.079-17.478-.185 7.821-.185 17.478-.185 17.478.079 17.478.185z" transform="translate(1035.684 278.097)" style="fill:#455a64"/>
        <path data-name="路径 16112" d="M173.372 448.1c0 .1-8.234.185-18.392.185s-18.4-.088-18.4-.185 8.234-.193 18.4-.193 18.392.082 18.392.193z" transform="translate(1035.852 278.646)" style="fill:#455a64"/>
        <g transform="translate(1083.241 366.234)">
            <circle data-name="椭圆 547" cx="4.025" cy="4.025" r="4.025" transform="translate(200.07 131.159)" style="fill:#ff725e"/>
            <path data-name="路径 16113" d="M379.566 129.23c.062.114-24.938 12.381-55.817 27.408s-55.966 27.109-56.019 27 24.93-12.39 55.817-27.416 56.019-27.106 56.019-26.992z" transform="translate(-63.293 -48.941)" style="fill:#ff725e"/>
            <path data-name="路径 16114" d="M361.417 115.361s-.255-.369-.721-1.1-1.16-1.828-2.074-3.251c-.457-.721-.949-1.529-1.52-2.4l-2.021-2.777-2.346-3.243c-.879-1.116-1.863-2.276-2.891-3.515-1.968-2.548-4.5-5.088-7.162-7.909-2.83-2.706-5.861-5.7-9.455-8.532A121.412 121.412 0 0 0 306.98 66.2c-1.318-.589-2.636-1.257-3.981-1.757l-4.165-1.6c-2.786-1.169-5.764-1.951-8.787-2.917-1.485-.51-3.04-.817-4.6-1.2l-4.653-1.126-4.895-.879c-1.634-.272-3.278-.6-4.965-.721l-5.079-.5-1.292-.132-1.292-.044-2.636-.088c-1.757 0-3.515-.167-5.272-.123l-5.36.141a124.524 124.524 0 0 0-21.968 3.172A121.458 121.458 0 0 0 159.4 249.859a118.05 118.05 0 0 0 13.023 14.578c2.232 2.206 4.6 4.174 6.88 6.151l3.515 2.759c1.142.923 2.364 1.714 3.515 2.566l1.757 1.248c.58.4 1.186.764 1.757 1.151l3.515 2.241c2.39 1.336 4.648 2.759 6.977 3.893 1.16.589 2.285 1.186 3.418 1.757l3.383 1.529 1.652.756 1.661.659 3.242 1.283a115.848 115.848 0 0 0 22.61 6.054c1.582.325 3.1.457 4.508.659s2.733.4 3.972.457l3.418.272c1.046.088 1.986.167 2.838.176l3.849.114 1.318.062h-1.318l-3.858-.079c-.879 0-1.757-.07-2.838-.149l-3.418-.246c-1.239-.061-2.557-.29-3.981-.448s-2.935-.316-4.517-.633a115.721 115.721 0 0 1-22.671-5.984l-3.251-1.283-1.617-.694-1.661-.747-3.392-1.529c-1.134-.554-2.267-1.151-3.427-1.757-2.337-1.125-4.613-2.548-7.03-3.884l-3.515-2.241c-.589-.387-1.2-.747-1.757-1.151l-1.757-1.248c-1.16-.879-2.39-1.643-3.515-2.566l-3.515-2.768c-2.293-1.951-4.675-3.919-6.916-6.151a118.779 118.779 0 0 1-13.119-14.622 121.686 121.686 0 0 1-8.506-134.3 121.1 121.1 0 0 1 99.411-60.9l5.378-.132c1.757 0 3.515.1 5.272.132l2.636.088 1.3.044 1.292.132 5.105.518c1.687.132 3.339.448 4.982.729l4.886.835 4.728 1.134c1.555.4 3.12.7 4.6 1.221 3 .967 5.984 1.757 8.787 2.935l4.174 1.608c1.38.545 2.636 1.213 3.989 1.757a121.737 121.737 0 0 1 26.283 16.494c3.594 2.847 6.617 5.861 9.446 8.576 2.636 2.882 5.176 5.439 7.144 8 1.019 1.248 1.995 2.417 2.882 3.515l2.329 3.251 1.995 2.794c.571.879 1.063 1.687 1.511 2.408.879 1.432 1.573 2.531 2.03 3.278z" transform="translate(-47.122 -39.905)" style="fill:#ff725e"/>
            <path data-name="路径 16115" d="M174.279 343.85a7.687 7.687 0 0 0-.062-.791c-.062-.527-.079-1.309-.141-2.32 0-.51-.062-1.072-.1-1.7s-.2-1.3-.308-2.039-.237-1.529-.378-2.373a7.794 7.794 0 0 0-.272-1.3l-.36-1.362a46.194 46.194 0 0 0-5.4-12.961 48.532 48.532 0 0 0-12.358-13.818l-2.1-1.564c-.738-.483-1.52-.931-2.285-1.406l-1.169-.7a10.012 10.012 0 0 0-1.2-.668l-2.522-1.213c-.431-.2-.879-.413-1.283-.606l-1.353-.492-2.733-.993c-.931-.308-1.907-.51-2.865-.773l-1.459-.369c-.246-.062-.483-.132-.729-.185l-.756-.114a46.732 46.732 0 0 0-6.151-.712c-1.046 0-2.109-.141-3.172-.123l-3.216.167a8.337 8.337 0 0 0-1.617.105l-1.626.246c-1.081.185-2.179.308-3.269.536a49.822 49.822 0 0 0-6.476 1.9l-1.617.589-.808.3-.773.378-3.138 1.511c-1.028.554-2.012 1.2-3.032 1.757-.492.316-1.028.589-1.5.949l-1.424 1.072a54.215 54.215 0 0 0-5.518 4.684l-2.469 2.715-.615.685-.562.738-1.11 1.5-1.125 1.494-.975 1.59-.975 1.617-.492.8c-.149.281-.272.571-.413.879l-1.652 3.42-1.321 3.6a48.172 48.172 0 0 0 0 30.659l1.318 3.594c.554 1.151 1.1 2.293 1.652 3.427l.413.879.492.808.975 1.608.975 1.6 1.116 1.494 1.134 1.5.554.738.624.677 2.469 2.724a55.1 55.1 0 0 0 5.5 4.648l1.432 1.072c.475.36 1 .633 1.5.949 1.019.606 2 1.248 3.023 1.81l3.146 1.511.773.378.808.3 1.617.589a51.285 51.285 0 0 0 6.476 1.907c1.09.22 2.188.352 3.269.527l1.626.246c.536.07 1.081.07 1.626.105l3.216.167c1.063 0 2.118-.088 3.163-.123a45.421 45.421 0 0 0 6.151-.712l.747-.114.738-.185 1.45-.369c.967-.264 1.942-.457 2.865-.765l2.742-1 1.344-.492 1.283-.606 2.522-1.213a9.384 9.384 0 0 0 1.2-.668l1.169-.7c.773-.474 1.547-.923 2.285-1.406l2.1-1.573a48.25 48.25 0 0 0 12.364-13.8 46.193 46.193 0 0 0 5.4-12.961l.36-1.362a7.794 7.794 0 0 0 .272-1.3c.141-.879.264-1.634.378-2.373s.237-1.415.308-2.039.062-1.2.1-1.7c.062-1.011.105-1.758.141-2.32s.062-.791.062-.791v.791c0 .518-.053 1.309-.1 2.32 0 .518-.044 1.081-.07 1.757a20.454 20.454 0 0 1-.29 2.047c-.105.738-.228 1.538-.352 2.39a7.792 7.792 0 0 1-.272 1.3c-.105.448-.228.879-.343 1.371a46.292 46.292 0 0 1-5.369 12.988 48.682 48.682 0 0 1-12.346 13.972l-2.118 1.582c-.738.492-1.52.94-2.293 1.424l-1.169.712a10.92 10.92 0 0 1-1.213.677l-2.54 1.221-1.292.615-1.362.5-2.75 1.01c-.94.316-1.916.518-2.882.782l-1.467.378-.738.185-.764.114a43.271 43.271 0 0 1-6.151.729c-1.063.044-2.127.149-3.2.132l-3.243-.158a8.515 8.515 0 0 1-1.634-.105l-1.634-.246c-1.09-.176-2.206-.308-3.3-.527a53.834 53.834 0 0 1-6.547-1.907l-1.626-.6c-.272-.105-.545-.193-.808-.308l-.791-.378-3.207-1.52c-1.037-.562-2.03-1.213-3.049-1.819-.5-.325-1.037-.6-1.52-.958l-1.441-1.081a56.321 56.321 0 0 1-5.571-4.719l-2.5-2.75-.624-.685-.562-.747-1.125-1.5-1.186-1.5-.967-1.643-.984-1.626-.492-.808-.422-.879-1.67-3.462c-.439-1.2-.879-2.417-1.327-3.629a48.55 48.55 0 0 1 0-30.94c.448-1.213.879-2.425 1.336-3.629l1.661-3.462c.141-.281.272-.571.422-.879l.492-.817.993-1.626.958-1.538 1.125-1.511 1.125-1.5.571-.738.624-.694 2.5-2.742a54.109 54.109 0 0 1 5.562-4.719l1.441-1.081c.483-.36 1.019-.633 1.52-.958 1.028-.606 2.021-1.257 3.049-1.819l3.172-1.52.791-.378c.264-.114.536-.2.808-.308l1.626-.589a51.141 51.141 0 0 1 6.538-1.907c1.1-.229 2.214-.352 3.3-.536l1.634-.246c.545-.07 1.09-.07 1.634-.105l3.243-.158c1.072 0 2.135.088 3.19.132a44.541 44.541 0 0 1 6.2.729l.756.114c.255.053.492.123.738.185l1.467.378c.975.264 1.951.466 2.891.782l2.75 1.011 1.353.5c.439.193.879.413 1.292.615l2.54 1.221a9.543 9.543 0 0 1 1.213.677l1.177.712c.773.483 1.555.931 2.293 1.424l2.109 1.582a48.585 48.585 0 0 1 12.39 13.937 46.291 46.291 0 0 1 5.378 13.023c.114.466.237.923.343 1.371a7.794 7.794 0 0 1 .272 1.3c.123.879.246 1.652.351 2.39s.228 1.424.29 2.047.053 1.2.07 1.714l.1 2.32c.024.536.024.799.024.799z" transform="translate(-40.096 -69.028)" style="fill:#ff725e"/>
            <path data-name="路径 16116" d="M107.944 234.264a4.887 4.887 0 0 0-.053-.589c-.053-.387-.062-.975-.105-1.757a11.428 11.428 0 0 0-.079-1.265 12.076 12.076 0 0 0-.228-1.52 71.354 71.354 0 0 0-.281-1.757 17.757 17.757 0 0 0-.475-1.977 34.367 34.367 0 0 0-4.016-9.666 36.028 36.028 0 0 0-9.183-10.237l-1.564-1.169c-.545-.36-1.125-.685-1.7-1.037a15.789 15.789 0 0 0-1.757-1.019l-1.88-.879-.949-.457-1.019-.325-2.03-.738c-.694-.228-1.415-.378-2.127-.571a16.638 16.638 0 0 0-2.179-.492 33.8 33.8 0 0 0-4.569-.527c-.773 0-1.555-.105-2.346-.1l-2.39.123a6.206 6.206 0 0 0-1.2.079l-1.169.2c-.8.132-1.617.228-2.425.4a36.963 36.963 0 0 0-4.807 1.415 38.19 38.19 0 0 0-4.7 2.065c-.764.413-1.494.879-2.25 1.344a12.3 12.3 0 0 0-1.107.7l-1.063.791a41.236 41.236 0 0 0-4.095 3.515l-1.828 2.012-.457.51-.422.545-.817 1.107-.879 1.107-.721 1.186-.721 1.142-.36.6-.308.633c-.413.879-.817 1.687-1.23 2.54l-.975 2.636a35.659 35.659 0 0 0 0 22.75l.975 2.636c.325.879.817 1.7 1.221 2.548l.308.633.369.6.721 1.2.729 1.186.826 1.107.826 1.107.413.545.466.51 1.828 2.021a41.142 41.142 0 0 0 4.095 3.471l1.054.8c.351.264.747.466 1.116.7.756.448 1.485.923 2.25 1.336a36.963 36.963 0 0 0 4.7 2.074 38.342 38.342 0 0 0 4.807 1.406c.808.167 1.626.264 2.425.4l1.2.185c.4.053.808.053 1.2.079l2.39.123c.791 0 1.573-.061 2.355-.088a33.834 33.834 0 0 0 4.561-.527 18.226 18.226 0 0 0 2.179-.5c.721-.193 1.441-.334 2.127-.562l2.03-.747 1-.36.958-.448 1.872-.879c.624-.281 1.177-.685 1.757-1.019s1.151-.677 1.7-1.037l1.564-1.16a36.133 36.133 0 0 0 9.165-10.193 34.27 34.27 0 0 0 4.016-9.666 17.757 17.757 0 0 0 .475-1.977c.105-.633.193-1.221.281-1.757s.185-1.054.228-1.511.053-.879.079-1.274c0-.738.079-1.318.105-1.714s.053-.589.053-.589v.589c0 .4 0 .975-.062 1.757a11.032 11.032 0 0 1-.053 1.274c-.053.466-.132.975-.211 1.52s-.167 1.142-.255 1.757a19.4 19.4 0 0 1-.457 1.995 34.358 34.358 0 0 1-3.972 9.666 36.081 36.081 0 0 1-9.209 10.369l-1.558 1.232c-.554.369-1.134.7-1.757 1.055s-1.142.747-1.757 1.037l-1.889.879-.958.457-1.011.378-2.047.747c-.694.237-1.424.387-2.144.589a18.657 18.657 0 0 1-2.206.5 33.079 33.079 0 0 1-4.613.545c-.782 0-1.573.105-2.373.1l-2.417-.114a6.346 6.346 0 0 1-1.221-.079l-1.213-.185c-.817-.132-1.634-.229-2.452-.4a37.415 37.415 0 0 1-4.869-1.419 38.533 38.533 0 0 1-4.763-2.083 41.55 41.55 0 0 1-2.276-1.362c-.378-.237-.773-.439-1.134-.7l-1.072-.808a39.993 39.993 0 0 1-4.139-3.515l-1.863-2.039-.466-.518-.422-.554-.879-1.116-.835-1.125-.738-1.2-.738-1.213-.369-.606-.308-.633-1.239-2.575c-.334-.879-.668-1.757-.993-2.707a36.028 36.028 0 0 1 0-23.031c.334-.879.659-1.81.993-2.706l1.239-2.575.316-.633.36-.606.738-1.213.738-1.2.835-1.125.879-1.116.413-.554.466-.518 1.863-2.039a39.985 39.985 0 0 1 4.139-3.515l1.081-.8c.352-.272.747-.475 1.125-.712.765-.457 1.5-.94 2.276-1.353a37.253 37.253 0 0 1 4.763-2.083 39.2 39.2 0 0 1 4.859-1.423c.817-.167 1.643-.264 2.46-.4l1.213-.185c.4-.053.817-.044 1.221-.07l2.417-.123c.791 0 1.59.07 2.373.1a34.162 34.162 0 0 1 4.6.545 17.894 17.894 0 0 1 2.206.51c.721.193 1.45.343 2.153.58l2.047.756 1.011.369.958.457 1.889.879A18.121 18.121 0 0 1 90.361 203c.571.343 1.16.694 1.7 1.054l1.573 1.177a36.107 36.107 0 0 1 9.209 10.378 34.218 34.218 0 0 1 3.972 9.666 19.953 19.953 0 0 1 .457 1.995c.088.633.176 1.221.255 1.757s.167 1.054.211 1.52 0 .879.053 1.274c0 .747.053 1.327.062 1.757a2.723 2.723 0 0 0 .091.686z" transform="translate(-35.079 -57.253)" style="fill:#ff725e"/>
            <path data-name="路径 16117" d="M429.472 61.858a3.371 3.371 0 0 1-.044-.387 11.023 11.023 0 0 0-.079-1.134 4.632 4.632 0 0 0-.053-.826c-.053-.3-.1-.633-.149-.993a19.126 19.126 0 0 0-.5-2.46 22.844 22.844 0 0 0-2.636-6.3 23.636 23.636 0 0 0-28.392-10.079 25.569 25.569 0 0 0-3.076 1.353c-.5.272-.975.589-1.468.879a12.072 12.072 0 0 0-1.459.984 27.231 27.231 0 0 0-2.636 2.276 27.7 27.7 0 0 0-2.311 2.733 22.987 22.987 0 0 0-3.374 6.5 25.15 25.15 0 0 0-1.213 7.452 24.856 24.856 0 0 0 1.213 7.443 22.756 22.756 0 0 0 3.374 6.5 26.822 26.822 0 0 0 2.311 2.742 26.22 26.22 0 0 0 2.636 2.276 12.074 12.074 0 0 0 1.424.984c.492.29.967.606 1.467.879a25.574 25.574 0 0 0 3.076 1.353 23.726 23.726 0 0 0 28.4-10.079 23.208 23.208 0 0 0 2.636-6.309 19.014 19.014 0 0 0 .5-2.452c.053-.36.114-.685.149-.993s0-.58.053-.879c0-.475.062-.879.079-1.125a3.357 3.357 0 0 1 .044-.387 2.637 2.637 0 0 1 0 .387V64.165a9.264 9.264 0 0 1-.132 1 17.415 17.415 0 0 1-.466 2.478 22.609 22.609 0 0 1-2.592 6.4 23.928 23.928 0 0 1-28.761 10.343 24.606 24.606 0 0 1-3.137-1.371c-.51-.272-.993-.6-1.5-.879a12.106 12.106 0 0 1-1.45-.993 27.072 27.072 0 0 1-2.733-2.32 25.767 25.767 0 0 1-2.355-2.786 23.182 23.182 0 0 1-3.489-6.6 25.15 25.15 0 0 1-1.239-7.583 25.537 25.537 0 0 1 1.239-7.592 23.294 23.294 0 0 1 3.453-6.617 27.574 27.574 0 0 1 2.355-2.786 26.985 26.985 0 0 1 2.733-2.311 13.33 13.33 0 0 1 1.45-1c.51-.29.993-.615 1.5-.879a24.6 24.6 0 0 1 3.14-1.369 23.828 23.828 0 0 1 28.74 10.326 22.46 22.46 0 0 1 2.636 6.388 17.726 17.726 0 0 1 .464 2.486c.044.36.105.694.132 1s0 .58 0 .835v1.134a2.623 2.623 0 0 1 .04.389z" transform="translate(-77.101 -37.86)" style="fill:#ff725e"/>
        </g>
        <g>
            <path data-name="路径 16118" d="M268.859 201.136s.132 4.763 2.258 4.069c1.88-.615 1.265-3.119 1.265-3.119s-2.557-4.684 0-5.2c.351-.079 2.364 3.076 3.374 4.684a2.706 2.706 0 0 1 .352 1.977l-1.5 7.416a7.741 7.741 0 0 1-1.863 3.682l-1.45 1.59.984 3.8-9.912 3.392-.738-12.6-1.037-7.5a2.5 2.5 0 0 1 1.353-1.907l.879-.439.062-1.011a1.652 1.652 0 0 1 .949-1.388l.554-.264 1.38-.738c.536-.29.07-6.889.65-6.722 0 0 1.125-.58 1.415.334" transform="translate(1020.814 309.841)" style="fill:#ffbe9d"/>
            <path data-name="路径 16119" d="M262.3 205.5a1.169 1.169 0 0 1 0-.5 1.274 1.274 0 0 1 .738-.879h.044v-.221a11.182 11.182 0 0 0 0-1.986 12.3 12.3 0 0 0-.158 1.977 1.173 1.173 0 0 1 0 .176l.053-.079a1.309 1.309 0 0 0-.773 1.046.53.53 0 0 0 .096.466z" transform="translate(1020.62 308.478)" style="fill:#eb996e"/>
            <path data-name="路径 16120" d="M266.87 198.229a2.109 2.109 0 0 0-.7 1.028 9.5 9.5 0 0 0-.281 3.067 3.616 3.616 0 0 1 0 .923 2.4 2.4 0 0 1-.369.8 2.127 2.127 0 0 0-.483 1.23 2.636 2.636 0 0 0 .334 1.2 1.5 1.5 0 0 1-.527-1.2 2.232 2.232 0 0 1 .466-1.38 2.257 2.257 0 0 0 .316-.712 4 4 0 0 0 0-.879 8.314 8.314 0 0 1 .369-3.146c.286-.781.884-.975.875-.931z" transform="translate(1020.299 308.925)" style="fill:#eb996e"/>
            <path data-name="路径 16121" d="m323.7 443.577 1.169 27.548 14.877-.334-1.116-27.6z" transform="translate(1013.16 279.218)" style="fill:#ff725e"/>
            <path data-name="路径 16122" d="M333.133 469.9c.123 0-.105-6.037-.51-13.471s-.879-13.453-.967-13.445.105 6.037.518 13.471.836 13.445.959 13.445z" transform="translate(1012.198 279.243)" style="fill:#263238"/>
            <path data-name="路径 16123" d="m324.94 472.767 14.877-.387.079 1.951-14.877.334z" transform="translate(1013.01 275.678)" style="fill:#263238"/>
            <path data-name="路径 16124" d="M339.526 464a3.478 3.478 0 0 0-.4-.58 11.428 11.428 0 0 0-1.388-1.362 10.213 10.213 0 0 0-2.478-1.494 7.909 7.909 0 0 0-9.174 2.144 6.935 6.935 0 0 0-1.019 1.67 1.944 1.944 0 0 0-.2.685 15.6 15.6 0 0 1 1.459-2.144 7.909 7.909 0 0 1 5.466-2.548 9.112 9.112 0 0 1 5.747 1.942c1.284.954 1.925 1.736 1.987 1.687z" transform="translate(1013.02 277.191)" style="fill:#263238"/>
            <g data-name="组 8635" style="opacity:.3">
                <path data-name="路径 16125" d="m1352.111 730.264.123 3.032-14.912.272-.1-2.285z"/>
            </g>
            <path data-name="路径 16126" d="m281.619 445.487.729 16.766s-16.8 6.362-16.968 9.482l32.557-.246-.062-26.168z" transform="translate(1020.233 278.96)" style="fill:#ff725e"/>
            <path data-name="路径 16127" d="M295.679 462.993a1.327 1.327 0 0 1 .975 1.494 1.283 1.283 0 0 1-1.494.94 1.406 1.406 0 0 1-.984-1.617 1.327 1.327 0 0 1 1.6-.817" transform="translate(1016.744 276.822)" style="fill:#e0e0e0"/>
            <path data-name="路径 16128" d="M297.9 474.736V472.1l-31.5 1.186s-1.459.65-1.283 1.678z" transform="translate(1020.266 275.712)" style="fill:#263238"/>
            <path data-name="路径 16129" d="M284.35 464.689c0 .158.808.228 1.6.738s1.221 1.177 1.362 1.116-.1-.993-1.063-1.59-1.934-.413-1.899-.264z" transform="translate(1017.933 276.629)" style="fill:#263238"/>
            <path data-name="路径 16130" d="M280.45 466.349c0 .158.659.422 1.213 1.1s.712 1.388.879 1.38.255-.879-.448-1.757-1.644-.881-1.644-.723z" transform="translate(1018.405 276.419)" style="fill:#263238"/>
            <path data-name="路径 16131" d="M278.081 470.68c.149 0 .369-.773-.053-1.643s-1.169-1.221-1.239-1.081.4.6.738 1.318.396 1.353.554 1.406z" transform="translate(1018.85 276.218)" style="fill:#263238"/>
            <path data-name="路径 16132" d="M284.649 460.233c.07.149.8-.079 1.7 0s1.617.334 1.7.2-.6-.712-1.67-.756-1.809.433-1.73.556z" transform="translate(1017.897 277.219)" style="fill:#263238"/>
            <path data-name="路径 16133" d="M284 455.831a2.971 2.971 0 0 0 1.643 0 7.032 7.032 0 0 0 1.714-.536 6.555 6.555 0 0 0 .94-.51 2.049 2.049 0 0 0 .492-.387.694.694 0 0 0 .07-.879.879.879 0 0 0-.7-.36 2.076 2.076 0 0 0-.615.088 5.792 5.792 0 0 0-1.019.352 5.658 5.658 0 0 0-1.5 1.01c-.756.712-1.019 1.309-.958 1.336s.439-.448 1.2-1.037a6.644 6.644 0 0 1 1.459-.879 6.143 6.143 0 0 1 .94-.3c.351-.1.642-.1.738.053s0 .088 0 .185a1.687 1.687 0 0 1-.369.29 6.619 6.619 0 0 1-.879.5 9.581 9.581 0 0 1-1.582.624 13.021 13.021 0 0 0-1.574.45z" transform="translate(1017.975 278.009)" style="fill:#263238"/>
            <path data-name="路径 16134" d="M283.889 455.743a2.568 2.568 0 0 0 .422-1.582 5.272 5.272 0 0 0-.237-1.8 5.023 5.023 0 0 0-.422-.993 1.336 1.336 0 0 0-1.055-.817.782.782 0 0 0-.685.457 2.213 2.213 0 0 0-.158.606 3.6 3.6 0 0 0 0 1.107 3.823 3.823 0 0 0 .721 1.687c.642.879 1.318 1.037 1.327.975a6.514 6.514 0 0 1-1-1.2 3.832 3.832 0 0 1-.536-1.538 3.453 3.453 0 0 1 0-.949c.053-.351.176-.633.308-.6a1.192 1.192 0 0 1 .58.536 5.375 5.375 0 0 1 .413.879 5.787 5.787 0 0 1 .325 1.634c.076.974-.092 1.581-.003 1.598z" transform="translate(1018.252 278.326)" style="fill:#263238"/>
            <g data-name="组 8636" style="opacity:.3">
                <path data-name="路径 16135" d="m1318.179 734.332-.035 3.726h-15.7v-3.374z"/>
            </g>
            <path data-name="路径 16136" d="m299 193.979 19.78-.255-2.206-16.792s1.353-.29 1.441-7.619.431-19.771.431-19.771a25.483 25.483 0 0 0-25.6 3.172l-1.09.835z" transform="translate(1017.034 315.082)" style="fill:#ffbe9d"/>
            <path data-name="路径 16137" d="M293.736 164.608c-.132-.053-5.035-1.485-4.877 3.515s5.158 3.814 5.158 3.673-.281-7.188-.281-7.188z" transform="translate(1017.386 313.03)" style="fill:#ffbe9d"/>
            <path data-name="路径 16138" d="M321.074 163.427c.123-.053 4.587-1.257 4.394 3.752s-5.158 3.814-5.158 3.673.764-7.425.764-7.425z" transform="translate(1013.571 313.165)" style="fill:#ffbe9d"/>
            <path data-name="路径 16139" d="M292.56 161.9c.747 4.192.6 6.4 1.292 9.2 1.1 4.438 3.3 7.838 7.293 10.053s9.4 2.179 12.838-.835c2.381-2.1 4.069-4.464 4.394-7.61s.712-8.735.729-11.907c.044-5.721.431-11.186.431-11.186l-16.344-2.953-9.271 5.571z" transform="translate(1016.937 315.179)" style="fill:#263238"/>
            <path data-name="路径 16140" d="M310.966 188.711a7.311 7.311 0 0 1-5.606-.615c.053-.132 1.257.255 2.794.413a26.84 26.84 0 0 1 2.812.202z" transform="translate(1015.384 310.157)" style="fill:#263238"/>
            <path data-name="路径 16141" d="M293.156 168.087c-.483-4.306-.791-9.227-1.467-13.761-.246-1.7-.879-4.156-.7-5.87a14.227 14.227 0 0 1 1.072-5.035 7.083 7.083 0 0 1 11.028-2.214 5.272 5.272 0 0 1 9.666 2.241 3.682 3.682 0 0 1 6.081 3.691 3.585 3.585 0 0 1 2.425 5.51c-.756 1.16-2.118 1.8-2.953 2.917a4.192 4.192 0 0 0-.255 4.517" transform="translate(1017.131 316.133)" style="fill:#263238"/>
            <path data-name="路径 16142" d="M316.362 154.206a1.256 1.256 0 0 1-.185.466 3.313 3.313 0 0 1-.949 1.072 3.41 3.41 0 0 1-2.127.677 3.647 3.647 0 0 1-2.636-1.23l.343-.1a3.392 3.392 0 0 1-2.179 2.5 3.937 3.937 0 0 1-3.691-.457 5.571 5.571 0 0 1-2.065-2.724l.4.053a4.578 4.578 0 0 1-3.7 2.021 4.244 4.244 0 0 1-3.119-1.265 4.49 4.49 0 0 1-1.125-1.916 1.916 1.916 0 0 1-.1-.8 7.58 7.58 0 0 0 .246.747 4.49 4.49 0 0 0 1.177 1.757 3.989 3.989 0 0 0 2.9 1.1 4.227 4.227 0 0 0 3.339-1.889l.246-.369.149.413a5.123 5.123 0 0 0 1.916 2.487 3.453 3.453 0 0 0 3.26.439 3.04 3.04 0 0 0 1.96-2.17l.07-.413.272.325a3.348 3.348 0 0 0 2.337 1.16 3.251 3.251 0 0 0 1.977-.545 4.745 4.745 0 0 0 1.284-1.339z" transform="translate(1016.614 314.469)" style="fill:#455a64"/>
            <path data-name="路径 16143" d="M317.559 151.186a4.526 4.526 0 0 0-.694-1.828 2.97 2.97 0 0 0-1.757-1.151 3.1 3.1 0 0 0-2.487.474l-.4.29v-.492a3.709 3.709 0 0 0-.167-1.441 3.91 3.91 0 0 0-2-2.337 3.857 3.857 0 0 0-2.548-.228 5.316 5.316 0 0 0-2.127 1.2 2.068 2.068 0 0 1 .4-.562 4.13 4.13 0 0 1 4.446-.8 4.271 4.271 0 0 1 2.275 2.589 4.139 4.139 0 0 1 .176 1.626l-.351-.211a3.453 3.453 0 0 1 2.847-.492 3.216 3.216 0 0 1 1.863 1.371 3.128 3.128 0 0 1 .5 1.441c.094.393.051.551.024.551z" transform="translate(1015.382 315.503)" style="fill:#455a64"/>
            <path data-name="路径 16144" d="M307.115 151.816c-.07 0 0-.29 0-.694a3.191 3.191 0 0 0-.51-1.476c-.325-.518-.721-1.046-.94-1.327s-.492-.079-.527-.105 0-.114.105-.2a.571.571 0 0 1 .615.053 3.9 3.9 0 0 1 .571.571 6.55 6.55 0 0 1 .571.773 2.724 2.724 0 0 1 .439 1.757c-.078.432-.28.674-.324.648z" transform="translate(1015.413 315.023)" style="fill:#455a64"/>
            <path data-name="路径 16145" d="M296.357 144.908c-.053 0 0-.387.3-.879a2.583 2.583 0 0 1 .747-.782 1.933 1.933 0 0 1 1.327-.29 3.2 3.2 0 0 1 1.986 1.239c.369.466.536.782.483.817s-.308-.211-.721-.6a3.454 3.454 0 0 0-1.8-1.011 1.916 1.916 0 0 0-1.757.808c-.345.399-.503.724-.565.698z" transform="translate(1016.478 315.63)" style="fill:#455a64"/>
            <path data-name="路径 16146" d="M298.922 168.415a8.058 8.058 0 0 1-1.757-3.19 8.18 8.18 0 0 1-.606-3.585c.132 0 .387 1.573 1.037 3.436s1.44 3.269 1.326 3.339z" transform="translate(1016.453 313.362)" style="fill:#455a64"/>
            <path data-name="路径 16147" d="M301.5 170.059a10.106 10.106 0 0 1-1.81-4.789 26.5 26.5 0 0 1 1.81 4.789z" transform="translate(1016.072 312.922)" style="fill:#455a64"/>
            <path data-name="路径 16148" d="M316.989 171.11a9.569 9.569 0 0 1-3.049 8.076 28.806 28.806 0 0 0 2.056-3.84 27.072 27.072 0 0 0 .993-4.236z" transform="translate(1014.344 312.214)" style="fill:#455a64"/>
            <path data-name="路径 16149" d="M319.72 167a7.742 7.742 0 0 1-1.38 7.566 22.457 22.457 0 0 0 1.248-3.682 22.946 22.946 0 0 0 .132-3.884z" transform="translate(1013.81 312.712)" style="fill:#455a64"/>
            <path data-name="路径 16150" d="m307.672 319.6 4.807 46.37 3.453 69.824h18.427l.5-148.611-52.759 3.758-10.931 77.97 9.473 68.242h20.211l-4.728-64.885 11.547-52.668" transform="translate(1019.531 298.138)" style="fill:#263238"/>
            <path data-name="路径 16151" d="M311.678 324.066a28.172 28.172 0 0 1-3.585 3.515 27.473 27.473 0 0 1-3.893 3.19 55.861 55.861 0 0 1 7.478-6.731z" transform="translate(1015.525 293.668)" style="fill:#455a64"/>
            <path data-name="路径 16152" d="M312.643 321.358a48.746 48.746 0 0 1 .1-5.958 51.918 51.918 0 0 1 .343-5.94 53.217 53.217 0 0 1-.443 11.898z" transform="translate(1014.507 295.436)" style="fill:#455a64"/>
            <path data-name="路径 16153" d="M319.578 303.217a2.218 2.218 0 0 1 .3 0l.879-.053 3.515-.176 12.5-.518h.211v13.585l-.149.062-8.128 3.251h-.149l-7.188-2.5-.105-.044v-.114c-.527-4.042-.967-7.416-1.274-9.833-.141-1.134-.255-2.039-.334-2.706a7.549 7.549 0 0 1-.088-.931 1.872 1.872 0 0 1 .062.272 5.018 5.018 0 0 0 .123.729c.105.677.246 1.591.431 2.733.36 2.381.879 5.7 1.459 9.666l-.123-.158 7.223 2.443h-.149l8.119-3.278-.149.22v-13.221l.211.211-12.355.308-3.515.062h-.949a1.592 1.592 0 0 1-.369-.009z" transform="translate(1013.662 296.283)" style="fill:#455a64"/>
            <path data-name="路径 16154" d="M289.243 303.53a.939.939 0 0 1 .264 0h.826l3.155-.1 11.423-.264h.211v.211c-.123 3.849-.264 8.286-.413 13.014v.114l-.1.07-1.318.879-6.678 4.35-.123.079-.114-.07-7.522-4.587-.1-.053v-.114c.141-4.042.264-7.408.343-9.824.053-1.125.088-2.03.123-2.7a8.847 8.847 0 0 1 .061-.923 1.759 1.759 0 0 1 0 .264v3.48c0 2.39-.088 5.721-.149 9.71l-.088-.167 7.557 4.534h-.237l6.669-4.394 1.318-.879-.1.185c.167-4.728.334-9.156.474-13.005l.2.2-11.274.062h-4.086a1.316 1.316 0 0 1-.322-.072z" transform="translate(1017.398 296.198)" style="fill:#455a64"/>
            <path data-name="路径 16155" d="M334.845 327.179a12.9 12.9 0 0 1-2.5-.079c-1.538-.114-3.664-.316-5.993-.624s-4.438-.642-5.949-.923A12.835 12.835 0 0 1 318 325a14.438 14.438 0 0 1 2.487.246l5.967.791 5.958.756a14.549 14.549 0 0 1 2.433.386z" transform="translate(1013.852 293.551)" style="fill:#455a64"/>
            <path data-name="路径 16156" d="M334.958 384.914a1.349 1.349 0 0 1-.431.58 2.891 2.891 0 0 1-1.889.641 4.394 4.394 0 0 1-2.75-1.054 18.6 18.6 0 0 1-2.513-2.54 34.338 34.338 0 0 1-3.726-5.272 11.273 11.273 0 0 1-1.169-2.4 22.943 22.943 0 0 1 1.441 2.232 46.561 46.561 0 0 0 3.8 5.114 20.678 20.678 0 0 0 2.417 2.5 4.244 4.244 0 0 0 2.5 1.063 2.891 2.891 0 0 0 1.758-.457c.386-.214.527-.433.562-.407z" transform="translate(1013.308 287.503)" style="fill:#455a64"/>
            <path data-name="路径 16157" d="M293.664 387.451a1.231 1.231 0 0 1-.246.589 3.78 3.78 0 0 1-1.274 1.213 4.877 4.877 0 0 1-2.531.668 5.984 5.984 0 0 1-3.049-.967 10.747 10.747 0 0 1-3.656-4.394 9.719 9.719 0 0 1-.879-2.17 15.033 15.033 0 0 1 1.2 2.012 11.53 11.53 0 0 0 3.62 4.139 5.9 5.9 0 0 0 2.812.931 4.728 4.728 0 0 0 2.364-.527 5.149 5.149 0 0 0 1.643-1.494z" transform="translate(1018.214 286.591)" style="fill:#455a64"/>
            <path data-name="路径 16158" d="M295.033 380.19a4.544 4.544 0 0 1-1.52.879 11.731 11.731 0 0 1-4.13.923 12.011 12.011 0 0 1-4.192-.58 4.615 4.615 0 0 1-1.582-.747 15.3 15.3 0 0 0 11.424-.475z" transform="translate(1018.022 286.858)" style="fill:#455a64"/>
            <path data-name="路径 16159" d="m395.482 129.612 2.636.685-.879 3.761s-1.828 4.49-3.717 3.3c-1.67-1.046-.475-3.313-.475-3.313s3.6-3.919 1.265-5.035c-.316-.158-3.032 2.4-4.394 3.717a2.707 2.707 0 0 0-.817 1.828l-.334 7.531a7.786 7.786 0 0 0 .879 4.016l1.019 1.88-1.872 3.436 8.787 5.677 3.691-12.012 2.812-7.03a2.469 2.469 0 0 0-.879-2.162l-.756-.641.185-.993a1.643 1.643 0 0 0-.58-1.573l-.475-.4.4-1.59c.123-.738.931-3.392-4.183-3.243 0 0-2.636-.088-2.944.782-.116.65.007 1.23.631 1.379z" transform="translate(1005.271 317.508)" style="fill:#ffbe9d"/>
            <path data-name="路径 16160" d="M402.27 139a6.144 6.144 0 0 0 .343-.879 3.62 3.62 0 0 0-.246-2.285 10.547 10.547 0 0 1 .536-2.337 3.114 3.114 0 0 1 .422-.879s-.132.352-.308.931a13.8 13.8 0 0 0-.475 2.276c.053.193.141.4.2.624a2.793 2.793 0 0 1 .105.633 3.127 3.127 0 0 1-.123 1.081 2.929 2.929 0 0 1-.29.668.776.776 0 0 1-.167.167z" transform="translate(1003.632 316.881)" style="fill:#eb996e"/>
            <path data-name="路径 16161" d="M404.289 139.492a1.8 1.8 0 0 0 .123-.483 1.257 1.257 0 0 0-.492-1.054v-.228a12 12 0 0 1 .492-1.916 10.439 10.439 0 0 1-.325 1.951v.088a1.283 1.283 0 0 1 .492 1.2.8.8 0 0 1-.29.442z" transform="translate(1003.432 316.494)" style="fill:#eb996e"/>
            <path data-name="路径 16162" d="m393.771 125.784 10.808 20.958a1.081 1.081 0 0 1-.466 1.459 1.081 1.081 0 0 1-1.45-.466l-10.808-20.966-.105-2.548z" transform="translate(1004.908 317.9)" style="fill:#ff725e"/>
            <path data-name="路径 16163" d="m388.89 138.555.29-5.211 4.974-4.394s1.265.879 1.116 1.757-2.258 3.515-2.258 3.515a2.311 2.311 0 0 0-.272 2.425" transform="translate(1005.255 317.326)" style="fill:#ffbe9d"/>
            <path data-name="路径 16164" d="m268.661 219.08-7.214 2.619-7.847 22.811 15.887-13.427z" transform="translate(1021.662 306.396)" style="fill:#ff725e"/>
            <path data-name="路径 16165" d="m380.588 152-14.332 22.6-22.987 12.135s-3.647-2.1-5.413-1.757a7.03 7.03 0 0 0-3.3 2.241l3.515 29.6 8.7-6.441 29.683-16.626 17.425-32.97z" transform="translate(1011.843 314.531)" style="fill:#ff725e"/>
            <path data-name="路径 16166" d="M277.518 202.23a17.284 17.284 0 0 0-5.949 7.539c-1.564 3.761-11.529 20.764-17.162 30.589-2.056 3.576-2.241 9.851.606 12.829 3.427 3.585 7.522 2.188 12.522.562 2.241-.729 12.3-16.213 12.3-16.213z" transform="translate(1021.75 308.44)" style="fill:#ff725e"/>
            <path data-name="路径 16167" d="m285.39 268.251-6.16-53 1.485-14.13 15.685-6.678 20.307-1.327 19.341 2.126-4.525 54.358 4.947 30.659-54.165 2.452z" transform="translate(1018.553 309.544)" style="fill:#ff725e"/>
            <path data-name="路径 16168" d="M285.152 271.316c-.132 0-1.6-11.793-3.3-26.362s-2.961-26.362-2.838-26.415 1.6 11.784 3.3 26.362 2.944 26.399 2.838 26.415z" transform="translate(1018.58 306.462)" style="fill:#263238"/>
            <path data-name="路径 16169" d="M342.611 209.31a1.953 1.953 0 0 1 0 .475c0 .36-.079.817-.123 1.362l-.51 5c-.431 4.279-1.01 10.079-1.661 16.485s-1.107 12.3-1.424 16.511c-.149 2.065-.272 3.761-.36 5.009-.044.545-.079 1-.114 1.362a2.627 2.627 0 0 1-.062.475 1.765 1.765 0 0 1 0-.483v-1.362c0-1.186.105-2.9.211-5.026.237-4.235.685-10.079 1.3-16.529s1.265-12.3 1.758-16.476c.264-2.109.483-3.814.659-4.982.079-.545.149-.993.2-1.353a1.617 1.617 0 0 1 .126-.468z" transform="translate(1011.385 307.581)" style="fill:#263238"/>
            <path data-name="路径 16170" d="M328.274 269.35a7.028 7.028 0 0 1-.879 1.055 11.574 11.574 0 0 1-1.1 1.142c-.457.422-.949.94-1.564 1.415a24.6 24.6 0 0 1-2.039 1.547c-.738.545-1.6 1.028-2.487 1.555a30.983 30.983 0 0 1-12.812 3.822 27.918 27.918 0 0 1-2.935.062 22.5 22.5 0 0 1-2.557-.176 19.324 19.324 0 0 1-2.083-.325 12.51 12.51 0 0 1-1.547-.352 7.035 7.035 0 0 1-1.274-.387c0-.1 1.872.483 4.956.764a22.548 22.548 0 0 0 2.522.123c.879 0 1.88-.044 2.9-.105a34.092 34.092 0 0 0 6.52-1.23 34.56 34.56 0 0 0 6.151-2.539 28.822 28.822 0 0 0 2.478-1.5 21.757 21.757 0 0 0 2.047-1.485c2.402-1.936 3.629-3.457 3.703-3.386z" transform="translate(1016.398 300.3)" style="fill:#263238"/>
            <g data-name="组 8637" style="opacity:.3">
                <path data-name="路径 16171" d="M1316.035 579.543c-2.636-.756-2.786-3.234-1.757-4.306a4.742 4.742 0 0 1 4.148-.993 21.227 21.227 0 0 0 4.394.6c2.408-.167 4.394-1.845 6.1-3.585s3.26-3.691 5.457-4.684 5.272-.65 6.415 1.467a4.6 4.6 0 0 1-.264 4.394 10.281 10.281 0 0 1-3.26 3.19 26.661 26.661 0 0 1-21.23 3.919"/>
            </g>
            <path data-name="路径 16172" d="M336.46 195.21a7.03 7.03 0 0 1 3.515 2.8 7.162 7.162 0 0 1 1.555 4.227 18.172 18.172 0 0 0-1.924-3.963 17.625 17.625 0 0 0-3.146-3.064z" transform="translate(1011.613 309.291)" style="fill:#263238"/>
            <path data-name="路径 16173" d="M252.224 253.792a3.692 3.692 0 0 1-.167-1 16.7 16.7 0 0 1-.062-2.786 18 18 0 0 1 2.917-8.638 548.298 548.298 0 0 1 4.894-7.7l1.529-2.311a3.857 3.857 0 0 1 .615-.808 4.243 4.243 0 0 1-.466.879c-.378.65-.879 1.441-1.406 2.381-1.2 2-2.891 4.754-4.771 7.768a18.674 18.674 0 0 0-2.988 8.427c-.2 2.321.002 3.788-.095 3.788z" transform="translate(1021.86 305.005)" style="fill:#263238"/>
            <path data-name="路径 16174" d="M326.547 196.909a16.728 16.728 0 0 0-3.269-6.151c-.94-1.3-2.118-2.733-3.717-2.768-1.292 0-2.39.879-3.436 1.626-5.589 4-12.135 3.612-18.383.747l-.158-.879c-.624-.448-2.97 1.757-3.436 2.935a6.959 6.959 0 0 0-.053 3.866 20.711 20.711 0 0 0 7.513 12.179 17.214 17.214 0 0 0 13.8 3.216 14.719 14.719 0 0 0 10.641-9.1 10.484 10.484 0 0 0 .498-5.671z" transform="translate(1016.781 310.167)" style="fill:#ff725e"/>
            <path data-name="路径 16175" d="M326.424 198.531a2.888 2.888 0 0 1 .061.6c0 .4.062.975.079 1.757a34.625 34.625 0 0 1-.316 6.336 17.574 17.574 0 0 1-1.178 4.244 12.363 12.363 0 0 1-2.891 4.156A13.884 13.884 0 0 1 311.345 219a17.478 17.478 0 0 1-10.193-5.184 22.926 22.926 0 0 1-5.061-7.909 30.834 30.834 0 0 1-1.7-6.151c-.132-.738-.2-1.309-.246-1.7a2.786 2.786 0 0 1 0-.6 2.637 2.637 0 0 1 .132.589c.07.387.176.958.334 1.687a33.552 33.552 0 0 0 1.819 6.028 23.084 23.084 0 0 0 5.061 7.733 17.162 17.162 0 0 0 9.947 5.026 13.533 13.533 0 0 0 10.492-3.225 12 12 0 0 0 2.829-4.007 17.343 17.343 0 0 0 1.213-4.139 39.357 39.357 0 0 0 .457-6.283V199.1a2.585 2.585 0 0 1-.005-.569z" transform="translate(1016.746 309.019)" style="fill:#263238"/>
            <g data-name="组 8638" style="opacity:.3">
                <path data-name="路径 16176" d="M1334.761 498.543c1.476 3.348 2.636 6.38 1.16 9.745-1.274 2.926-4.64 4.6-7.838 4.464a13.392 13.392 0 0 1-8.471-4.016 40.161 40.161 0 0 1-5.774-7.623l.492-1.23.193.624s7.592 3.612 12.829 1.757c5.695-1.946 7.409-3.721 7.409-3.721z"/>
            </g>
            <path data-name="路径 16177" d="M324.8 205.179a3.666 3.666 0 0 1-.633.65 14.533 14.533 0 0 1-1.986 1.467 17.232 17.232 0 0 1-15.712 1.327 14.616 14.616 0 0 1-2.206-1.125 3.05 3.05 0 0 1-.729-.536c.044-.07 1.125.641 3.049 1.353a18.04 18.04 0 0 0 15.43-1.3c1.78-1.015 2.73-1.906 2.787-1.836z" transform="translate(1015.606 308.082)" style="fill:#263238"/>
            <path data-name="路径 16178" d="M317.96 188.1a1.458 1.458 0 0 1 .22.334c.123.228.3.571.5 1.019a13.938 13.938 0 0 1 1.151 4.06 9.244 9.244 0 0 1-1.283 6.081 7.275 7.275 0 0 1-2.707 2.575 6.951 6.951 0 0 1-3.945.729 13.181 13.181 0 0 1-3.858-1.046 18.106 18.106 0 0 1-3.234-1.8 18.365 18.365 0 0 1-4.446-4.394 17.2 17.2 0 0 1-2.012-3.7 8.323 8.323 0 0 1-.369-1.081 1.344 1.344 0 0 1-.088-.387 23.576 23.576 0 0 0 2.733 4.974 18.638 18.638 0 0 0 4.394 4.236 18.208 18.208 0 0 0 3.172 1.757 12.83 12.83 0 0 0 3.726 1 6.467 6.467 0 0 0 3.691-.668 7.03 7.03 0 0 0 2.566-2.408 9.068 9.068 0 0 0 1.309-5.826 15.388 15.388 0 0 0-.984-4.016c-.296-.929-.571-1.43-.536-1.439z" transform="translate(1016.29 310.153)" style="fill:#263238"/>
            <path data-name="路径 16179" d="M335.968 287.313a2.11 2.11 0 0 1-.536 0h-1.538l-5.677-.07c-4.78 0-11.423.061-18.691.466s-13.875 1.081-18.629 1.643l-5.624.7-1.529.193a3.515 3.515 0 0 1-.545 0 2.393 2.393 0 0 1 .527-.132l1.52-.272c1.318-.228 3.234-.518 5.615-.879 4.745-.65 11.336-1.371 18.638-1.757s13.937-.439 18.726-.325c2.39.053 4.332.123 5.668.2l1.538.105a2.161 2.161 0 0 1 .537.128z" transform="translate(1018.072 298.18)" style="fill:#263238"/>
            <path data-name="路径 16180" d="M277.427 204a5.562 5.562 0 0 1-.58.967c-.448.677-1.019 1.529-1.687 2.548-1.424 2.153-3.357 5.141-5.378 8.515s-3.752 6.494-4.982 8.787l-1.45 2.689a5.606 5.606 0 0 1-.58.967 5.342 5.342 0 0 1 .422-1.046c.29-.659.747-1.608 1.327-2.759 1.151-2.311 2.838-5.466 4.868-8.849s4.007-6.362 5.51-8.471a84.673 84.673 0 0 1 1.8-2.469 5.587 5.587 0 0 1 .73-.879z" transform="translate(1020.549 308.225)" style="fill:#263238"/>
            <path data-name="路径 16181" d="M396.886 167.116a13.918 13.918 0 0 1-2.153-1.23c-1.292-.817-3.049-1.977-4.956-3.322s-3.6-2.636-4.8-3.515a13.831 13.831 0 0 1-1.889-1.6 12.709 12.709 0 0 1 2.074 1.344 926.02 926.02 0 0 1 4.877 3.427l4.877 3.418a13.12 13.12 0 0 1 1.97 1.478z" transform="translate(1005.958 313.87)" style="fill:#263238"/>
            <path data-name="路径 16182" d="M292.163 203.939a2.638 2.638 0 0 1-.729.308c-.475.167-1.186.36-2.065.571-1.757.431-4.244.756-6.889 1.45a15.326 15.326 0 0 0-6.151 3.093 17.216 17.216 0 0 0-1.9 2.179 2.635 2.635 0 0 1 .334-.721 7.751 7.751 0 0 1 1.344-1.687 14.209 14.209 0 0 1 6.257-3.3c2.7-.7 5.184-.984 6.942-1.327s2.839-.637 2.857-.566z" transform="translate(1019.135 308.234)" style="fill:#fafafa"/>
            <path data-name="路径 16183" d="M292.385 200.2a11.145 11.145 0 0 1-2.091.826l-5.105 1.757-5.088 1.828a11.185 11.185 0 0 1-2.1.685 9.887 9.887 0 0 1 2.03-.975c1.274-.545 3.058-1.248 5.053-1.96s3.822-1.283 5.158-1.67a10.062 10.062 0 0 1 2.143-.491z" transform="translate(1018.702 308.686)" style="fill:#fafafa"/>
            <path data-name="路径 16184" d="M296.9 206.022a6.009 6.009 0 0 1-.422-1.757 26.192 26.192 0 0 1-.272-4.394 7.47 7.47 0 0 1 1.107-4.244c.668-.949 1.38-1.23 1.388-1.177a8.876 8.876 0 0 0-1.116 1.353 8.066 8.066 0 0 0-.923 4.077c-.093 3.409.364 6.12.238 6.142z" transform="translate(1016.495 309.384)" style="fill:#fafafa"/>
            <path data-name="路径 16185" d="M299.79 203.537a1.879 1.879 0 0 1-.545-.879 4.877 4.877 0 0 1 .712-4.763c.4-.5.738-.721.773-.677a9.1 9.1 0 0 0-1.3 3.032 8.956 8.956 0 0 0 .36 3.287z" transform="translate(1016.166 309.048)" style="fill:#fafafa"/>
            <path data-name="路径 16186" d="M299.483 211.253a6.239 6.239 0 0 1-.255-6.063c.132.044-.281 1.371-.2 3.049s.578 2.935.455 3.014z" transform="translate(1016.209 308.081)" style="fill:#fafafa"/>
            <path data-name="路径 16187" d="M339.347 199.043c0 .132-1.757-.061-3.893.07s-3.849.51-3.884.378a9.394 9.394 0 0 1 3.858-.879 9.183 9.183 0 0 1 3.919.431z" transform="translate(1012.206 308.885)" style="fill:#fafafa"/>
            <path data-name="路径 16188" d="M337.49 196.436c0 .132-1.872-.088-4.148.062s-4.077.606-4.112.475a9.9 9.9 0 0 1 4.086-.931 10.106 10.106 0 0 1 4.174.4z" transform="translate(1012.49 309.198)" style="fill:#fafafa"/>
            <path data-name="路径 16189" d="M344.407 195.38c0 .07-.334 0-.826 0a2.636 2.636 0 0 0-2.636 2.258c-.1.483-.053.808-.123.826s-.22-.3-.2-.879a2.636 2.636 0 0 1 2.961-2.548c.561.088.886.299.824.343z" transform="translate(1011.109 309.314)" style="fill:#fafafa"/>
            <path data-name="路径 16190" d="M343.637 193.009c0 .07-.36 0-.879 0a4.807 4.807 0 0 0-2.03.176 2.267 2.267 0 0 0-1.336 1.344c-.167.474-.053.817-.132.879s-.29-.3-.185-.879a2.355 2.355 0 0 1 1.494-1.7 4.1 4.1 0 0 1 2.241-.07c.519.057.835.197.827.25z" transform="translate(1011.299 309.603)" style="fill:#fafafa"/>
            <path data-name="路径 16191" d="M380.229 158.38a2.529 2.529 0 0 1-.211.457l-.668 1.248c-.633 1.142-1.5 2.689-2.548 4.578s-2.4 4.218-3.84 6.749c-.729 1.257-1.45 2.636-2.337 3.954a12.706 12.706 0 0 1-3.445 3.585 44.033 44.033 0 0 1-4.279 2.487l-4.033 2.17-6.854 3.647-4.631 2.425-1.265.633-.457.2a1.608 1.608 0 0 1 .413-.281l1.23-.712 4.569-2.557 6.8-3.743 4.025-2.188a46.279 46.279 0 0 0 4.227-2.469c2.812-1.854 4.183-4.895 5.685-7.373l3.919-6.7 2.636-4.5c.308-.492.554-.879.747-1.213a1.756 1.756 0 0 1 .317-.397z" transform="translate(1010.497 313.757)" style="fill:#fafafa"/>
            <path data-name="路径 16192" d="M365.614 178.52a3.922 3.922 0 0 1-.764.615c-.5.378-1.248.879-2.171 1.529-1.863 1.257-4.464 2.926-7.408 4.675s-5.677 3.216-7.671 4.235c-1 .51-1.819.879-2.381 1.169a4.395 4.395 0 0 1-.879.369 3.224 3.224 0 0 1 .817-.527l2.311-1.3c1.96-1.09 4.648-2.636 7.592-4.341s5.571-3.366 7.469-4.552l2.25-1.4a3.821 3.821 0 0 1 .835-.472z" transform="translate(1010.657 311.315)" style="fill:#fafafa"/>
            <path data-name="路径 16193" d="M272.339 212.38c.114.07-2.821 5.413-6.538 11.942s-6.836 11.775-6.942 11.713 2.821-5.413 6.547-11.942 6.828-11.775 6.933-11.713z" transform="translate(1021.024 307.209)" style="fill:#fafafa"/>
        </g>
        <g>
            <path data-name="路径 16194" d="M454.119 463.581a24.165 24.165 0 0 0-48.084 0h-3.8v7.487h55.694v-7.487zm-24.042-14a16.415 16.415 0 0 1 16.23 14h-32.469a16.415 16.415 0 0 1 16.239-13.998z" transform="translate(1003.637 279.381)" style="fill:#455a64"/>
            <path data-name="路径 16195" d="M411.4 460.289c-.044.123-.738 0-1.547-.308s-1.424-.633-1.38-.747.729 0 1.538.316 1.42.624 1.389.739z" transform="translate(1002.88 277.278)" style="fill:#263238"/>
            <path data-name="路径 16196" d="M414.174 454.853c-.079.105-.694-.228-1.388-.738s-1.186-1.01-1.107-1.107.694.228 1.38.738 1.195 1.01 1.115 1.107z" transform="translate(1002.492 278.03)" style="fill:#263238"/>
            <path data-name="路径 16197" d="M418.388 450.45c-.105.07-.6-.431-1.09-1.134s-.826-1.318-.721-1.4.589.439 1.09 1.134.817 1.329.721 1.4z" transform="translate(1001.899 278.646)" style="fill:#263238"/>
            <path data-name="路径 16198" d="M424.739 446.6c-.123 0-.466-.562-.782-1.362s-.466-1.494-.343-1.538.457.571.773 1.371a3.216 3.216 0 0 1 .352 1.529z" transform="translate(1001.049 279.157)" style="fill:#263238"/>
            <path data-name="路径 16199" d="M432.34 444.8c-.123 0-.352-.642-.51-1.485s-.193-1.547-.07-1.573.36.641.518 1.485.185 1.545.062 1.573z" transform="translate(1000.065 279.395)" style="fill:#263238"/>
            <path data-name="路径 16200" d="M456.73 463.144c0-.123.615-.4 1.441-.615s1.529-.29 1.564-.167-.615.4-1.45.606-1.529.299-1.555.176z" transform="translate(997.028 276.901)" style="fill:#263238"/>
            <path data-name="路径 16201" d="M454.509 457.465c-.062-.105.483-.554 1.213-1s1.388-.712 1.45-.606-.475.563-1.213 1-1.379.711-1.45.606z" transform="translate(997.297 277.685)" style="fill:#263238"/>
            <path data-name="路径 16202" d="M451.228 452.174c-.1-.088.281-.677.879-1.327s1.1-1.107 1.2-1.028-.281.677-.879 1.327-1.103 1.107-1.2 1.028z" transform="translate(997.697 278.416)" style="fill:#263238"/>
            <path data-name="路径 16203" d="M445.726 448.3c-.105-.053.114-.721.492-1.494s.791-1.344.879-1.283a3.115 3.115 0 0 1-.492 1.494c-.387.769-.764 1.341-.879 1.283z" transform="translate(998.365 278.937)" style="fill:#263238"/>
            <path data-name="路径 16204" d="M438.583 445.747c-.123 0 0-.738.211-1.555s.536-1.467.659-1.432 0 .729-.22 1.555-.527 1.468-.65 1.432z" transform="translate(999.234 279.271)" style="fill:#263238"/>
            <path data-name="矩形 9992" style="fill:#ff725e" d="M0 0h7.188v97.425H0z" transform="translate(1372.774 652.91)"/>
            <path data-name="路径 16205" d="M372.3 468.348a8.331 8.331 0 0 1-3.875 0 8.33 8.33 0 0 1 3.875 0z" transform="translate(1007.737 276.195)" style="fill:#263238"/>
            <path data-name="路径 16206" d="M372.3 457.568a8.329 8.329 0 0 1-3.875 0 8.331 8.331 0 0 1 3.875 0z" transform="translate(1007.737 277.503)" style="fill:#263238"/>
            <path data-name="路径 16207" d="M372.3 446.788a8.33 8.33 0 0 1-3.875 0 8.331 8.331 0 0 1 3.875 0z" transform="translate(1007.737 278.81)" style="fill:#263238"/>
            <path data-name="路径 16208" d="M372.3 435.968a8.328 8.328 0 0 1-3.875 0 8.33 8.33 0 0 1 3.875 0z" transform="translate(1007.737 280.122)" style="fill:#263238"/>
            <path data-name="路径 16209" d="M372.3 425.228a8.329 8.329 0 0 1-3.875 0 8.331 8.331 0 0 1 3.875 0z" transform="translate(1007.737 281.425)" style="fill:#263238"/>
            <path data-name="路径 16210" d="M372.3 414.448a8.33 8.33 0 0 1-3.875 0 8.331 8.331 0 0 1 3.875 0z" transform="translate(1007.737 282.732)" style="fill:#263238"/>
            <path data-name="路径 16211" d="M372.3 403.668a8.329 8.329 0 0 1-3.875 0 8.331 8.331 0 0 1 3.875 0z" transform="translate(1007.737 284.039)" style="fill:#263238"/>
            <path data-name="路径 16212" d="M372.3 392.888a8.328 8.328 0 0 1-3.875 0 8.331 8.331 0 0 1 3.875 0z" transform="translate(1007.737 285.346)" style="fill:#263238"/>
            <path data-name="路径 16213" d="M372.3 382.108a8.329 8.329 0 0 1-3.875 0 8.331 8.331 0 0 1 3.875 0z" transform="translate(1007.737 286.654)" style="fill:#263238"/>
            <path data-name="路径 16214" d="M372.3 371.318a8.33 8.33 0 0 1-3.875 0 8.33 8.33 0 0 1 3.875 0z" transform="translate(1007.737 287.962)" style="fill:#263238"/>
            <path data-name="路径 16215" d="M380.62 429.55v39.683h54.393zm8.524 16.476 21.388 15.615h-21.388z" transform="translate(1006.258 280.873)" style="fill:#ff725e"/>
            <path data-name="路径 16216" d="M387.628 435.05c.105.07-.246.764-.782 1.555s-1.063 1.38-1.169 1.3.255-.764.791-1.555 1.055-1.344 1.16-1.3z" transform="translate(1005.646 280.206)" style="fill:#263238"/>
            <path data-name="路径 16217" d="M394.544 440.118c.105.07-.22.747-.729 1.5s-1 1.318-1.107 1.248.22-.738.729-1.5 1.001-1.353 1.107-1.248z" transform="translate(1004.794 279.593)" style="fill:#263238"/>
            <path data-name="路径 16218" d="M401.965 445.729c.105.07-.22.738-.721 1.494s-1 1.318-1.107 1.248.22-.738.729-1.494 1.002-1.318 1.099-1.248z" transform="translate(1003.893 278.911)" style="fill:#263238"/>
            <path data-name="路径 16219" d="M409.395 451.329c.105.07-.22.738-.721 1.5s-1 1.318-1.107 1.248.22-.747.721-1.5 1.002-1.318 1.107-1.248z" transform="translate(1002.992 278.232)" style="fill:#263238"/>
            <path data-name="路径 16220" d="M416.824 456.929c.105.07-.22.747-.729 1.5s-1 1.318-1.107 1.248.22-.738.729-1.5 1.036-1.318 1.107-1.248z" transform="translate(1002.092 277.553)" style="fill:#263238"/>
            <path data-name="路径 16221" d="M424.254 462.539c.105.07-.22.738-.729 1.494s-1 1.318-1.107 1.248.22-.738.729-1.5 1.001-1.312 1.107-1.242z" transform="translate(1001.191 276.873)" style="fill:#263238"/>
            <path data-name="路径 16222" d="M431.675 468.139c.105.07-.22.738-.721 1.5s-1 1.318-1.107 1.248.22-.747.721-1.5 1.002-1.318 1.107-1.248z" transform="translate(1000.29 276.194)" style="fill:#263238"/>
        </g>
        <g>
            <path data-name="路径 16223" d="M426.383 474.968c0 .123-89.305.228-199.471.228s-199.471-.105-199.471-.228 89.288-.228 199.471-.228 199.471.079 199.471.228z" transform="translate(1049.088 275.392)" style="fill:#263238"/>
        </g>
    </g>
</svg>
