<svg xmlns="http://www.w3.org/2000/svg" width="470" height="260" viewBox="0 0 470 260">
    <defs>
        <clipPath id="5nrzj2x7ea">
            <path data-name="矩形 8629" transform="translate(1047 444)" style="stroke:#707070;fill:#fff" d="M0 0h470v260H0z"/>
        </clipPath>
    </defs>
    <g data-name="蒙版组 2346" transform="translate(-1047 -444)" style="clip-path:url(#5nrzj2x7ea)">
        <g data-name="High five-pana">
            <path data-name="矩形 9993" transform="translate(1329.102 487.255)" style="fill:#e0e0e0" d="M0 0h38.391v55.645H0z"/>
            <path data-name="矩形 9994" transform="translate(1327.18 487.255)" style="fill:#f5f5f5" d="M0 0h38.391v55.645H0z"/>
            <path data-name="矩形 9995" transform="translate(1331.949 493.28)" style="fill:#fff" d="M0 0h28.852v43.596H0z"/>
            <path data-name="路径 16224" d="M347.129 192.992v-12.2c0-7.655 0-18.571-.046-31.386l.092.092h-28.844l.107-.107v43.588l-.084-.077h-.184V149.12h29.051v.1c0 12.845-.038 23.731-.046 31.455v11.934a1.827 1.827 0 0 1-.046.383z" transform="translate(1013.664 343.877)" style="fill:#e0e0e0"/>
            <path data-name="路径 16225" d="M360.778 141.62a6.74 6.74 0 0 1-.681 1c-.444.589-1.079 1.4-1.8 2.3s-1.4 1.653-1.9 2.2a7.332 7.332 0 0 1-.85.865 8.239 8.239 0 0 1 .766-.957l1.853-2.243 1.845-2.243a6.785 6.785 0 0 1 .767-.922z" transform="translate(1004.899 345.635)" style="fill:#e0e0e0"/>
            <path data-name="路径 16226" d="M356.2 206.25a35.983 35.983 0 0 0 5.037 6.293" transform="translate(1004.747 330.48)" style="fill:#fff"/>
            <path data-name="路径 16227" d="M361.237 212.559a5.36 5.36 0 0 1-.88-.766 28.217 28.217 0 0 1-1.9-2.143 26.685 26.685 0 0 1-1.669-2.3 5.624 5.624 0 0 1-.589-1.033 6.747 6.747 0 0 1 .712.949c.421.6 1.018 1.409 1.707 2.3s1.363 1.631 1.845 2.174a7.662 7.662 0 0 1 .774.819z" transform="translate(1004.747 330.464)" style="fill:#e0e0e0"/>
            <path data-name="路径 16228" d="m312.09 212.351 5.022-6.2" transform="translate(1015.09 330.504)" style="fill:#fff"/>
            <path data-name="路径 16229" d="M317.112 206.15a38.26 38.26 0 0 1-2.427 3.162c-1.393 1.715-2.557 3.062-2.6 3.062a37.5 37.5 0 0 1 2.427-3.169 39.686 39.686 0 0 1 2.6-3.055z" transform="translate(1015.09 330.504)" style="fill:#e0e0e0"/>
            <path data-name="路径 16230" d="M312.09 141.62a33.759 33.759 0 0 1 2.442 2.917 36.865 36.865 0 0 1 2.3 3.062 33.749 33.749 0 0 1-2.442-2.917 34.339 34.339 0 0 1-2.3-3.062z" transform="translate(1015.09 345.635)" style="fill:#e0e0e0"/>
            <path data-name="矩形 9996" transform="translate(1342.154 502.129)" style="fill:#e0e0e0" d="M0 0h9.661v27.428H0z"/>
            <path data-name="路径 16231" d="M261.834 345a13.672 13.672 0 0 0-8.038 7.066 24.115 24.115 0 0 0-2.3 10.656c-.092 7.1 2.978 14.66 6.545 20.791 6.545-4.394 9.041-13.182 10.028-17.722 1.531-7.181 0-21.09-6.231-20.791" transform="translate(1029.299 297.947)" style="fill:#f5f5f5"/>
            <path data-name="路径 16232" d="M243.2 404.223a11.659 11.659 0 0 0-2.342-11.483 15.456 15.456 0 0 0-10.87-4.976c-1.891-.1-3.988.191-5.259 1.6a4.984 4.984 0 0 0-.712 5 10.082 10.082 0 0 0 3.246 4.126c4.693 3.828 9.952 6.714 15.938 5.718" transform="translate(1035.83 287.922)" style="fill:#f5f5f5"/>
            <path data-name="路径 16233" d="M250.915 423.535a23.048 23.048 0 0 0-.214-4.685 21.433 21.433 0 0 0-1.164-4.991 47.756 47.756 0 0 0-2.35-5.795 23.272 23.272 0 0 0-7.288-8.681 17.086 17.086 0 0 0-3.062-1.661 3.827 3.827 0 0 0-1.217-.352c-.061.13 1.646.766 3.919 2.465a25.01 25.01 0 0 1 6.89 8.589 56.366 56.366 0 0 1 2.365 5.68 24.244 24.244 0 0 1 1.3 4.823 37.661 37.661 0 0 0 .821 4.608z" transform="translate(1033.022 285.665)" style="fill:#e0e0e0"/>
            <path data-name="路径 16234" d="M262.912 359a13.474 13.474 0 0 0-.536 2.3 361.974 361.974 0 0 0-1.141 6.361c-.926 5.359-2.113 12.815-3.23 21.067s-1.906 15.747-2.365 21.189c-.23 2.718-.39 4.915-.475 6.438a12.462 12.462 0 0 0-.046 2.373 13.647 13.647 0 0 0 .352-2.342c.191-1.661.436-3.828.766-6.415.6-5.42 1.485-12.9 2.6-21.136s2.212-15.555 2.993-21.09c.367-2.587.666-4.746.9-6.392a13.719 13.719 0 0 0 .182-2.353z" transform="translate(1028.457 294.663)" style="fill:#e0e0e0"/>
            <path data-name="路径 16235" d="M260.345 409.477a27.268 27.268 0 0 1 19.59-15.387c2.159-.4 4.823-.322 6.009 1.531s.145 4.318-1.164 6.124a23.287 23.287 0 0 1-24.451 8.306" transform="translate(1027.227 286.48)" style="fill:#f5f5f5"/>
            <path data-name="路径 16236" d="M275.826 401.6a3.828 3.828 0 0 0-1.217.26c-.766.214-1.876.589-3.215 1.087a30.621 30.621 0 0 0-9.661 5.7 19.29 19.29 0 0 0-3.828 4.9 18.41 18.41 0 0 0-1.753 4.769 18.664 18.664 0 0 0-.429 3.384 3.705 3.705 0 0 0 0 1.248c.161 0 .222-1.768.934-4.494a19.046 19.046 0 0 1 5.588-9.224 34.5 34.5 0 0 1 9.339-5.757 35.625 35.625 0 0 0 4.242-1.873z" transform="translate(1028.32 284.673)" style="fill:#e0e0e0"/>
            <path data-name="路径 16237" d="M438.473 169.73s-8.023-2.365-11.268 16.076-3.506 28.6-3.506 28.6-1.125 4-4.1 2.519-8.015-6.714-11.575-4.4c-3.7 2.4-3.644 7.326-.834 13.726s8.421 20.669 8.941 21.955.337 3.407-1.845 2.725-16.076-9.056-19.674-2.166 7.165 23.394 8.306 25.262 1.01 2.8.214 3.583-5.205-2.473-9.263-4.693-9.148-4.08-10.878.038 1.531 18 21.3 36.155l9.691 7.808 11.738-4.318c24.55-10.778 32.152-22.843 31.861-27.306s-5.726-4.379-10.281-3.613-9.783 2.442-10.289 1.439-.306-1.96 1.37-3.322 17.209-13.55 16.038-21.182-17.048-4.21-19.337-4.272-1.738-2.136-.865-3.169S445.065 238.45 449.8 233.3s6.377-9.791 3.659-13.259c-2.618-3.345-9.094 0-12.378.413s-3.062-3.705-3.062-3.705 3.062-9.691 5.948-28.2-5.665-18.832-5.665-18.832" transform="translate(998.558 339.067)" style="fill:#f5f5f5"/>
            <path data-name="路径 16238" d="M444.067 191.35a3.025 3.025 0 0 1-.038.39l-.161 1.141c-.153 1.018-.375 2.5-.651 4.379a1518.74 1518.74 0 0 1-2.534 16.076c-2.189 13.588-5.359 32.328-8.949 53.02s-6.813 39.424-9.071 53c-1.125 6.775-2.036 12.248-2.664 16.076-.314 1.883-.559 3.353-.766 4.371-.084.482-.145.857-.2 1.133s-.084.383-.084.383a2.533 2.533 0 0 1 .046-.39c.046-.26.092-.651.153-1.141.153-1.018.375-2.5.651-4.379a1518.74 1518.74 0 0 1 2.534-16.076c2.189-13.588 5.359-32.335 8.957-53.027s6.836-39.416 9.133-53.02c1.118-6.775 2.029-12.248 2.664-16.076l.727-4.371.2-1.133a3.47 3.47 0 0 1 .053-.356z" transform="translate(990.033 333.974)" style="fill:#e0e0e0"/>
            <path data-name="路径 16239" d="M424.66 235.62a4.021 4.021 0 0 1 .551.712c.337.475.766 1.171 1.363 2.036 1.125 1.738 2.618 4.172 4.21 6.89l4.05 6.989 1.232 2.105a3.184 3.184 0 0 1 .421.766 3.87 3.87 0 0 1-.559-.7c-.329-.475-.766-1.171-1.347-2.044-1.11-1.753-2.572-4.21-4.164-6.928l-4.1-6.959c-.49-.827-.911-1.531-1.248-2.105a3.285 3.285 0 0 1-.413-.758z" transform="translate(988.694 323.593)" style="fill:#e0e0e0"/>
            <path data-name="路径 16240" d="M441.63 256.6c-.069-.1 4.823-3.391 10.924-7.364s11.085-7.1 11.154-7.012-4.83 3.4-10.924 7.364-11.093 7.092-11.154 7.012z" transform="translate(984.715 322.046)" style="fill:#e0e0e0"/>
            <path data-name="路径 16241" d="M432.57 299.815a4.188 4.188 0 0 1 .865-.314l2.388-.727c2.013-.62 4.8-1.477 7.831-2.542s5.757-2.1 7.724-2.871l2.3-.911a3.468 3.468 0 0 1 .88-.291 4.28 4.28 0 0 1-.811.436c-.536.26-1.309.62-2.3 1.041-1.929.842-4.639 1.937-7.655 2.993s-5.849 1.883-7.885 2.427a63.527 63.527 0 0 1-2.434.6 3.828 3.828 0 0 1-.9.153z" transform="translate(986.839 310.336)" style="fill:#e0e0e0"/>
            <path data-name="路径 16242" d="M412.17 282.6a3.5 3.5 0 0 1 .674.521c.413.352 1.01.873 1.73 1.531 1.454 1.309 3.437 3.131 5.611 5.16s4.126 3.889 5.527 5.251c.7.674 1.255 1.232 1.638 1.623a3.93 3.93 0 0 1 .567.635 3 3 0 0 1-.674-.513c-.421-.352-1.01-.88-1.738-1.531-1.447-1.3-3.437-3.123-5.611-5.16s-4.126-3.889-5.519-5.244a79.887 79.887 0 0 1-1.646-1.63 3.292 3.292 0 0 1-.559-.643z" transform="translate(991.623 312.577)" style="fill:#e0e0e0"/>
            <path data-name="路径 16243" d="M399.55 317.94a5.042 5.042 0 0 1 .857.674l2.228 1.952c1.868 1.661 4.425 3.973 7.242 6.553s5.359 4.93 7.158 6.645l2.136 2.052a5.419 5.419 0 0 1 .766.766 6.122 6.122 0 0 1-.857-.674l-2.228-1.952c-1.868-1.661-4.425-3.981-7.242-6.553s-5.359-4.93-7.15-6.645l-2.159-2.006a5.27 5.27 0 0 1-.751-.812z" transform="translate(994.582 304.291)" style="fill:#e0e0e0"/>
            <path data-name="路径 16244" d="M425.68 338.352a6.637 6.637 0 0 1 1.079-.421l3-1.033c2.526-.873 6.017-2.09 9.837-3.537s7.242-2.84 9.707-3.866l2.932-1.217a6.358 6.358 0 0 1 1.095-.4 5.521 5.521 0 0 1-1.026.551c-.674.329-1.653.766-2.878 1.332-2.442 1.1-5.856 2.542-9.684 3.988s-7.334 2.641-9.89 3.407c-1.278.4-2.3.7-3.062.9a5.836 5.836 0 0 1-1.11.296z" transform="translate(988.455 301.96)" style="fill:#e0e0e0"/>
            <path data-name="路径 16245" d="M85.489 346.589c17.676-10.089 23.417-31.279 24.5-50.7.184-3.246.85-6.614-.429-9.592s-4.685-5.244-7.7-4.149c-2.5.911-3.828 3.606-5.359 5.795a19.015 19.015 0 0 1-8.245 6.545c-2.159.88-4.761 1.294-6.691 0-2.649-1.8-2.626-5.68-2.3-8.888q.911-9 1.753-17.974c.314-3.208.628-6.492-.092-9.63s-2.672-6.185-5.649-7.318-6.928.276-7.862 3.368a29.991 29.991 0 0 0-.452 3.988c-.207 1.324-.972 2.748-2.3 3.008s-2.519-.766-3.391-1.8c-3.062-3.552-4.892-7.938-6.614-12.294s-3.376-8.788-6.063-12.608-6.591-7-11.169-7.655-9.745 1.715-11.322 6.124.635 9.263 3.177 13.2a72.356 72.356 0 0 0 13.687 15.578 6.273 6.273 0 0 1 2.3 2.917c.5 2.2-1.73 4.149-3.9 4.662-2.473.574-5.052.084-7.579.153s-5.359.919-6.515 3.207c-1.623 3.162.811 6.89 3.307 9.362a61.562 61.562 0 0 0 17.229 12.164c2.3 1.079 4.7 2.067 6.453 3.9s2.641 4.83 1.286 6.989-4.386 2.618-6.821 1.929-4.524-2.235-6.805-3.338c-4.264-2.075-10-2.3-13.174 1.263-2.09 2.342-2.572 5.818-1.906 8.9a23.908 23.908 0 0 0 4.141 8.421 62.015 62.015 0 0 0 24.7 20.967c9.929 4.494 19.322 6.323 29.855 3.537" transform="translate(1082.273 325.714)" style="fill:#f5f5f5"/>
            <path data-name="路径 16246" d="M86.149 361.646a142.385 142.385 0 0 0-2.825-26.977 290.268 290.268 0 0 0-8.6-32.067l-2.71-8.275c-.888-2.718-1.768-5.412-2.794-8a143.85 143.85 0 0 0-6.729-14.507c-2.365-4.509-4.769-8.7-7.05-12.608s-4.494-7.5-6.637-10.717a115.042 115.042 0 0 0-11.234-14.269 109.29 109.29 0 0 0-3.422-3.56l-.919-.9a2.693 2.693 0 0 0-.329-.291 2.962 2.962 0 0 0 .283.329l.88.942c.766.819 1.914 2.036 3.338 3.636a120.946 120.946 0 0 1 11.062 14.376c2.12 3.192 4.295 6.8 6.56 10.717s4.654 8.114 7 12.616a147.178 147.178 0 0 1 6.7 14.43c1.01 2.572 1.883 5.244 2.764 7.969s1.776 5.481 2.687 8.283a298.38 298.38 0 0 1 8.62 31.976 144.835 144.835 0 0 1 2.94 26.87" transform="translate(1080.556 325.033)" style="fill:#e0e0e0"/>
            <path data-name="路径 16247" d="M80.17 292.99a5.666 5.666 0 0 0 .444-1.34c.253-.873.566-2.143.942-3.728.766-3.162 1.631-7.556 2.587-12.409s1.9-9.224 2.695-12.363c.39-1.531.72-2.84.965-3.713a6.822 6.822 0 0 0 .306-1.378 6.009 6.009 0 0 0-.528 1.309c-.306.857-.7 2.113-1.148 3.674-.9 3.116-1.914 7.494-2.871 12.355l-2.419 12.47c-.3 1.493-.551 2.756-.766 3.766a7.265 7.265 0 0 0-.207 1.357z" transform="translate(1069.472 318.332)" style="fill:#e0e0e0"/>
            <path data-name="路径 16248" d="M27.11 288.658a9.645 9.645 0 0 0 1.631.344c1.056.191 2.58.459 4.448.857 3.751.766 8.888 1.975 14.5 3.575s10.625 3.284 14.223 4.593c1.8.643 3.246 1.2 4.241 1.585a8.543 8.543 0 0 0 1.577.543 8.469 8.469 0 0 0-1.485-.765 73.202 73.202 0 0 0-4.187-1.768c-3.567-1.424-8.574-3.162-14.208-4.777a145.209 145.209 0 0 0-14.583-3.422 72.781 72.781 0 0 0-4.486-.666 8.237 8.237 0 0 0-1.671-.099z" transform="translate(1081.914 311.159)" style="fill:#e0e0e0"/>
            <path data-name="路径 16249" d="M98.19 350.254a1.968 1.968 0 0 0 .329-.482l.85-1.432c.766-1.24 1.73-3.062 2.94-5.359 2.427-4.547 5.588-10.939 8.972-18.043s6.476-13.519 8.811-18.112l2.771-5.435.766-1.485a2.533 2.533 0 0 0 .222-.536 2.3 2.3 0 0 0-.329.475l-.842 1.431a160.536 160.536 0 0 0-2.947 5.359c-2.427 4.555-5.581 10.947-8.972 18.051s-6.476 13.511-8.8 18.112l-2.779 5.435-.766 1.485a2.1 2.1 0 0 0-.222.536z" transform="translate(1065.247 308.645)" style="fill:#e0e0e0"/>
            <path data-name="路径 16250" d="M28.57 336.14a2.068 2.068 0 0 0 .528.276l1.531.681 5.7 2.45c4.823 2.059 11.483 4.991 18.755 8.237s13.963 6.124 18.832 8.084c2.427.988 4.4 1.761 5.78 2.3l1.585.582a2.571 2.571 0 0 0 .566.161 1.908 1.908 0 0 0-.521-.276l-1.526-.685-5.734-2.473c-4.823-2.067-11.483-5-18.755-8.245s-13.971-6.124-18.832-8.084c-2.427-.98-4.4-1.761-5.78-2.3l-1.585-.574a2.4 2.4 0 0 0-.544-.138z" transform="translate(1081.572 300.023)" style="fill:#e0e0e0"/>
            <path data-name="路径 16251" d="M146.04 81.7v63.186H55.3l-3.28-62.742z" transform="translate(1076.073 359.686)" style="fill:#e0e0e0"/>
            <path data-name="矩形 9997" transform="rotate(-90 816.267 -311.826)" style="fill:#fff" d="M0 0h62.604v90.744H0z"/>
            <path data-name="路径 16252" d="M143.069 145.189H51.46V81.72h91.609zm-90.744-.865H142.2V82.577H52.325z" transform="translate(1076.204 359.681)" style="fill:#e0e0e0"/>
            <path data-name="矩形 9998" transform="translate(1137.922 449.607)" style="fill:#fff" d="M0 0h71.086v47.048H0z"/>
            <path data-name="路径 16253" d="M135.867 92.36h-5.228l-14.652.054-51.175.1.207-.207v47.049l-.23-.222 71.093.046-.184.176c.046-14.315.077-26.027.1-34.226 0-4.088 0-7.28.046-9.469v-.069c0 2.174 0 5.359.046 9.423 0 8.2.054 19.98.092 34.341v.184h-.176l-71.093.046h-.223V92.1h.2l51.289.107 14.606.054h4.815z" transform="translate(1073.149 357.247)" style="fill:#e0e0e0"/>
            <path data-name="路径 16254" d="M52 82.05a7.945 7.945 0 0 1 1.531 1.01c.934.674 2.2 1.623 3.56 2.718s2.564 2.12 3.414 2.894A7.264 7.264 0 0 1 61.8 90a55.889 55.889 0 0 1-4.991-3.881A55.539 55.539 0 0 1 52 82.05z" transform="translate(1076.078 359.603)" style="fill:#e0e0e0"/>
            <path data-name="路径 16255" d="M167.559 82.28a43.74 43.74 0 0 1-4.777 4.065 43.55 43.55 0 0 1-5.052 3.713 44.87 44.87 0 0 1 4.8-4.065 43.9 43.9 0 0 1 5.029-3.713z" transform="translate(1051.285 359.55)" style="fill:#e0e0e0"/>
            <path data-name="路径 16256" d="m167.372 161.566-10.112-8.206" transform="translate(1051.396 342.882)" style="fill:#fff"/>
            <path data-name="路径 16257" d="M157.259 153.36a49.6 49.6 0 0 1 5.2 3.927 46.8 46.8 0 0 1 4.915 4.279 48.333 48.333 0 0 1-5.2-3.927 42.353 42.353 0 0 1-4.915-4.279z" transform="translate(1051.396 342.882)" style="fill:#e0e0e0"/>
            <path data-name="路径 16258" d="M52 161.711a43.387 43.387 0 0 1 4.731-4.027 43.915 43.915 0 0 1 5-3.674 42.815 42.815 0 0 1-4.723 4.027A43.918 43.918 0 0 1 52 161.711z" transform="translate(1076.078 342.73)" style="fill:#e0e0e0"/>
            <path data-name="矩形 9999" transform="rotate(-90 816.194 -336.166)" style="fill:#e0e0e0" d="M0 0h15.754v44.729H0z"/>
            <path data-name="矩形 10000" transform="translate(1383.131 426.703)" style="fill:#e0e0e0" d="M0 0h48.518v70.328H0z"/>
            <path data-name="矩形 10001" transform="translate(1380.705 426.703)" style="fill:#f5f5f5" d="M0 0h48.518v70.328H0z"/>
            <path data-name="矩形 10002" transform="translate(1386.729 434.32)" style="fill:#fff" d="M0 0h36.461v55.094H0z"/>
            <path data-name="路径 16259" d="M426.328 127.524v-15.4c0-9.714-.038-23.478-.061-39.677l.122.122h-36.53l.138-.13v55.117l-.107-.107 26.54.061h.069l-26.609.054h-.1V72.3h36.745v.122c0 16.237-.038 30.016-.054 39.753 0 4.846 0 8.689-.038 11.322v3.759a.606.606 0 0 0-.115.268z" transform="translate(996.87 361.89)" style="fill:#e0e0e0"/>
            <path data-name="路径 16260" d="M443.546 62.52a7.747 7.747 0 0 1-.865 1.255c-.567.766-1.363 1.784-2.3 2.894s-1.768 2.09-2.4 2.786a8.542 8.542 0 0 1-1.041 1.087 8.683 8.683 0 0 1 .926-1.21L440.2 66.5c.88-1.079 1.684-2.052 2.335-2.84a8.963 8.963 0 0 1 1.01-1.141z" transform="translate(985.815 364.183)" style="fill:#e0e0e0"/>
            <path data-name="路径 16261" d="M437.76 144.21a45.471 45.471 0 0 0 6.361 7.954" transform="translate(985.622 345.028)" style="fill:#fff"/>
            <path data-name="路径 16262" d="M444.114 152.164a7.3 7.3 0 0 1-1.11-1.01 33.431 33.431 0 0 1-2.4-2.7 36.109 36.109 0 0 1-2.105-2.94 7.42 7.42 0 0 1-.765-1.3 9.571 9.571 0 0 1 .9 1.2 59.517 59.517 0 0 0 4.494 5.612 10.508 10.508 0 0 1 .986 1.138z" transform="translate(985.629 345.028)" style="fill:#e0e0e0"/>
            <path data-name="路径 16263" d="m382 151.919 6.354-7.839" transform="translate(998.697 345.058)" style="fill:#fff"/>
            <path data-name="路径 16264" d="M388.356 144.08a47.036 47.036 0 0 1-3.062 4 48.418 48.418 0 0 1-3.284 3.828 89.749 89.749 0 0 1 6.346-7.831z" transform="translate(998.695 345.058)" style="fill:#e0e0e0"/>
            <path data-name="路径 16265" d="M382 62.52a44.567 44.567 0 0 1 3.062 3.69 45.019 45.019 0 0 1 2.878 3.828 42.876 42.876 0 0 1-3.062-3.69A45.027 45.027 0 0 1 382 62.52z" transform="translate(998.697 364.183)" style="fill:#e0e0e0"/>
            <path data-name="矩形 10003" transform="translate(1399.628 445.504)" style="fill:#e0e0e0" d="M0 0h12.21v34.662H0z"/>
            <g>
                <path data-name="路径 16266" d="M359.9 436.939c0 .115-74.576.2-166.538.2s-166.553-.054-166.553-.2 74.553-.2 166.553-.2 166.538.124 166.538.2z" transform="translate(1081.984 276.434)" style="fill:#263238"/>
            </g>
            <g>
                <path data-name="路径 16267" d="M335.309 264a13.22 13.22 0 0 1-3.942 12.937c-2.335 2.067-5.359 3.261-7.5 5.535a11.644 11.644 0 0 0-2.335 11.238 14.859 14.859 0 0 0 7.831 8.681 17.385 17.385 0 0 0 15.77-.536c5.917-3.345 9.362-10.059 10.235-16.8s-.5-13.573-2.3-20.133" transform="translate(1013.008 316.938)" style="fill:#263238"/>
                <path data-name="路径 16268" d="M437.19 415.348c6.124-1 11.865.865 17.928 2.2a10.717 10.717 0 0 0 4.968.268 7.131 7.131 0 0 0 4.9-5.91 9.676 9.676 0 0 0-1.531-6.706 6.438 6.438 0 0 0-2.1-2.09 7.3 7.3 0 0 0-2.932-.766 20.83 20.83 0 0 0-10.794 2.036 31.83 31.83 0 0 0-8.956 6.492c-1.286 1.286-.9 2.763-1.47 4.494" transform="translate(985.756 284.513)" style="fill:#263238"/>
                <path data-name="路径 16269" d="M274.8 281.681a47.462 47.462 0 0 1 .352-17.607 23.119 23.119 0 0 1 3.062-8 5.129 5.129 0 0 1 2.243-2.105 3.9 3.9 0 0 1 3.988.942 6.668 6.668 0 0 1 1.837 5.16 16.359 16.359 0 0 1-1.363 5.45c-2.365 6.048-6.124 11.069-10.143 16.152" transform="translate(1023.989 319.337)" style="fill:#263238"/>
                <path data-name="路径 16270" d="M423.988 319.14c1.386.987 32.152 67.258 32.152 67.258a13.068 13.068 0 0 0-7.847-.765l-1.669.444a27.926 27.926 0 0 0-8.382 3.828l-8.78 5.94a2.511 2.511 0 0 1-1.248-1.937v-.253l-23.853-40.94z" transform="translate(993.454 304.009)" style="fill:#ff725e"/>
                <path data-name="路径 16271" d="m274.591 181.32 8.206 46.643c2.641 6.277 33.438 44.308 33.438 44.308l-10.181 32.718L265.6 249.68a21.136 21.136 0 0 1-5.7-14.836l1.577-49.835z" transform="translate(1027.327 336.326)" style="fill:#ffbe9d"/>
                <path data-name="路径 16272" d="m332.415 290.58 21.121 1.6 18.418 2.855s32.312 8.49 32.312 12.026c0 1.179-8.819 29.266-13.779 46.092a116.993 116.993 0 0 0-2.97 12.432l16.75 37.082h-79.484v-34s-5.359-44.652-4.417-50.754 12.049-27.333 12.049-27.333z" transform="translate(1013.176 310.706)" style="fill:#ff725e"/>
                <path data-name="路径 16273" d="M266 151.891a93.493 93.493 0 0 1 1.454-14.162c.115-.666.39-1.47 1.056-1.531.827-.107 1.248.957 1.355 1.784a49.9 49.9 0 0 1-.7 16.926" transform="translate(1025.898 346.908)" style="fill:#eb996e"/>
                <path data-name="路径 16274" d="M277.522 274.564c9.064-8.1 9.37-22.131 8.6-33.3a3.743 3.743 0 0 1 .352-2.4c.865-1.232 2.97-.766 3.828.475s.765 2.871.72 4.371c.467-1.271 2.457-1.263 3.391-.283a6.09 6.09 0 0 1 1.2 3.828l.3 3.736 26.479 25.262s.727-2.3 2.672-.972a11.409 11.409 0 0 1 3.2 4.118L309.6 320.12l-34.624-42.1a14.062 14.062 0 0 1 2.546-3.456z" transform="translate(1023.792 323.001)" style="fill:#ff725e"/>
                <path data-name="路径 16275" d="M323.119 322.53a35.106 35.106 0 0 0-6.078 11.842 21.587 21.587 0 0 0 .39 13.182 18.28 18.28 0 0 0 14.032 11.314" transform="translate(1014.128 303.214)" style="fill:#ff725e"/>
                <path data-name="路径 16276" d="m436.883 416.149-1 13.511H455.5l4.593-23.922a24.711 24.711 0 0 0-16.589 5.2z" transform="translate(986.063 283.712)" style="fill:#ffbe9d"/>
                <path data-name="路径 16277" d="M290.35 273.05a6.571 6.571 0 0 1 .429-1.079 52.189 52.189 0 0 0 2.618-7.334 52.908 52.908 0 0 0 1.156-5.581 51.9 51.9 0 0 0 .482-5.672c0-1.753 0-3.33-.107-4.654s-.207-2.388-.306-3.123a7.384 7.384 0 0 1-.107-1.156 5.805 5.805 0 0 1 .26 1.133 30.857 30.857 0 0 1 .436 3.123 42.741 42.741 0 0 1 .191 4.685 44.308 44.308 0 0 1-1.653 11.337 42.028 42.028 0 0 1-1.531 4.432c-.505 1.24-.957 2.22-1.309 2.878a7.659 7.659 0 0 1-.559 1.011z" transform="translate(1020.188 321.523)" style="fill:#263238"/>
                <path data-name="路径 16278" d="M297.88 268.28a18.924 18.924 0 0 1 .857-1.929 28.57 28.57 0 0 0 2.3-9.806 18.8 18.8 0 0 1 .115-2.105 7.923 7.923 0 0 1 .168 2.113 23.318 23.318 0 0 1-2.3 9.913 7.577 7.577 0 0 1-1.14 1.814z" transform="translate(1018.423 319.18)" style="fill:#263238"/>
                <path data-name="路径 16279" d="M338.005 297.176c-.061-.038.26-.536.444-1.439a7.594 7.594 0 0 0-.2-3.544 26.571 26.571 0 0 0-1.324-3.384 5.788 5.788 0 0 1-.536-1.439 6.886 6.886 0 0 1 .766 1.317 17.537 17.537 0 0 1 1.462 3.4 6.943 6.943 0 0 1 .084 3.72 2.733 2.733 0 0 1-.696 1.369z" transform="translate(1009.393 311.458)" style="fill:#263238"/>
                <path data-name="路径 16280" d="M328.605 360.87a1.574 1.574 0 0 1-.337-.191l-.9-.6c-.766-.528-1.906-1.3-3.238-2.35a27.761 27.761 0 0 1-4.295-4.111 16.474 16.474 0 0 1-3.322-6.469 20.339 20.339 0 0 1-.444-7.272 28.714 28.714 0 0 1 1.309-5.795 37.857 37.857 0 0 1 1.462-3.728c.2-.429.352-.766.467-.98a1.693 1.693 0 0 1 .191-.337 13.015 13.015 0 0 1-.513 1.378 50.73 50.73 0 0 0-1.34 3.751 30.4 30.4 0 0 0-1.209 5.749 20.469 20.469 0 0 0 .459 7.135 16.337 16.337 0 0 0 3.223 6.338 29.091 29.091 0 0 0 4.187 4.118c1.3 1.072 2.4 1.875 3.154 2.45l.857.658c.197.157.297.241.289.256z" transform="translate(1014.192 301.687)" style="fill:#263238"/>
                <path data-name="路径 16281" d="M381.032 375.382a1.31 1.31 0 0 1-.337.122c-.23.061-.559.176-1 .26a20.213 20.213 0 0 1-3.751.452 21.075 21.075 0 0 1-19.957-12.623 19.823 19.823 0 0 1-1.2-3.583c-.107-.436-.145-.766-.191-1.01a1.6 1.6 0 0 1-.038-.36 10.449 10.449 0 0 1 .383 1.324 21.434 21.434 0 0 0 21 15.969 23.092 23.092 0 0 0 3.728-.322 13.118 13.118 0 0 1 1.363-.229z" transform="translate(1005.132 294.747)" style="fill:#263238"/>
                <path data-name="路径 16282" d="M405.048 394.241c-.107 0 .9-4.264 2.3-9.454s2.542-9.378 2.641-9.347-.9 4.256-2.258 9.446-2.576 9.355-2.683 9.355z" transform="translate(993.295 290.807)" style="fill:#263238"/>
                <path data-name="路径 16283" d="M414.889 381.264c-.092.054-3.169-4.976-6.89-11.238s-6.629-11.383-6.53-11.437 3.169 4.968 6.89 11.23 6.66 11.381 6.53 11.445z" transform="translate(994.133 294.759)" style="fill:#263238"/>
                <path data-name="路径 16284" d="M452.393 404.392c0 .077-1.118.168-2.863.612a22.578 22.578 0 0 0-2.993.988 24.931 24.931 0 0 0-3.43 1.776 24.219 24.219 0 0 0-3.062 2.335 22.481 22.481 0 0 0-2.182 2.3c-1.148 1.386-1.715 2.358-1.784 2.3a3.406 3.406 0 0 1 .36-.7 14.226 14.226 0 0 1 1.2-1.791 20.485 20.485 0 0 1 2.151-2.373 22.155 22.155 0 0 1 3.108-2.4 22.559 22.559 0 0 1 3.506-1.776 19.47 19.47 0 0 1 3.062-.926 13.868 13.868 0 0 1 2.128-.322 2.779 2.779 0 0 1 .799-.023z" transform="translate(986.017 284.024)" style="fill:#263238"/>
                <path data-name="路径 16285" d="M456.592 398.319c0 .084-1.232-.069-3.2.1a20.457 20.457 0 0 0-13.412 6.721c-1.309 1.47-1.921 2.542-1.99 2.5a3.506 3.506 0 0 1 .406-.766 7.392 7.392 0 0 1 .551-.85 13.425 13.425 0 0 1 .819-1.072 18.6 18.6 0 0 1 2.5-2.465 21.437 21.437 0 0 1 3.613-2.342 21.1 21.1 0 0 1 4.027-1.485 18.482 18.482 0 0 1 3.475-.528 13.352 13.352 0 0 1 1.34 0 9.089 9.089 0 0 1 1.018.061 3.424 3.424 0 0 1 .853.126z" transform="translate(985.569 285.49)" style="fill:#263238"/>
                <g data-name="组 8639" style="opacity:.3">
                    <path data-name="路径 16286" d="M1360.511 655.017c-1.8 3.414-.3 7.579 1.347 11.077 1.278 2.71 2.7 5.458 5.029 7.349a10.717 10.717 0 0 0 15.578-2.174 24.183 24.183 0 0 1-22.322-15.793"/>
                </g>
                <g data-name="组 8640" style="opacity:.3">
                    <path data-name="路径 16287" d="M1395.655 653.348c-1.378 3.284-.337 7.778 1.1 11.031s2.97 6.89 1.814 10.266a4.317 4.317 0 0 0-.452 1.929c.077.658.766 1.294 1.386.988a1.531 1.531 0 0 0 .62-.949q1.631-4.915 3.269-9.822"/>
                </g>
                <path data-name="路径 16288" d="M306.94 298.376a91.376 91.376 0 0 1 1.937-12.156 45.3 45.3 0 0 1-.766 6.124 46.74 46.74 0 0 1-1.171 6.032z" transform="translate(1016.298 311.728)" style="fill:#fafafa"/>
                <path data-name="路径 16289" d="M294.39 297.54c-.1.061-1.416-1.776-3.238-3.889s-3.43-3.7-3.353-3.782a18.892 18.892 0 0 1 3.659 3.521 19.6 19.6 0 0 1 2.932 4.15z" transform="translate(1020.787 310.872)" style="fill:#fafafa"/>
                <path data-name="路径 16290" d="M303.259 274.129a6.6 6.6 0 0 1-.865 1.378c-.582.819-1.431 1.914-2.419 3.062s-1.937 2.182-2.649 2.886a6.191 6.191 0 0 1-1.217 1.072c-.084-.077 1.592-1.891 3.56-4.218a52.79 52.79 0 0 1 3.59-4.18z" transform="translate(1018.839 314.564)" style="fill:#fafafa"/>
                <path data-name="路径 16291" d="M300.977 260.454c-.115.046-.551-.926-1.393-1.9s-1.745-1.531-1.684-1.646a3.736 3.736 0 0 1 1.983 1.386 3.828 3.828 0 0 1 1.094 2.16z" transform="translate(1018.419 318.601)" style="fill:#fafafa"/>
                <path data-name="路径 16292" d="M291.562 269.3a5.5 5.5 0 0 1-1.99.513 5.282 5.282 0 0 1-2.052.122 10.718 10.718 0 0 1 4.042-.635z" transform="translate(1020.852 315.698)" style="fill:#fafafa"/>
                <path data-name="路径 16293" d="M315.35 278.295a20.9 20.9 0 0 0-.253-3.56 20.32 20.32 0 0 0-1.248-3.345 6.009 6.009 0 0 1 1.63 3.261 6.124 6.124 0 0 1-.129 3.644z" transform="translate(1014.678 315.206)" style="fill:#fafafa"/>
                <path data-name="路径 16294" d="M326.4 291.916a17.929 17.929 0 0 0-5.55-5.6 9.676 9.676 0 0 1 5.55 5.6z" transform="translate(1013.036 311.705)" style="fill:#fafafa"/>
                <path data-name="路径 16295" d="M306.22 316.492a9.186 9.186 0 0 1-7.02-.237c.038-.115 1.531.367 3.5.421s3.489-.299 3.52-.184z" transform="translate(1018.113 304.69)" style="fill:#fafafa"/>
                <path data-name="路径 16296" d="M317.626 318.834c-.107-.046.49-1.807.988-4.042s.72-4.088.834-4.073a12.914 12.914 0 0 1-.444 4.157 13.059 13.059 0 0 1-1.378 3.958z" transform="translate(1013.795 305.983)" style="fill:#fafafa"/>
                <path data-name="路径 16297" d="M335.9 319.942a27.259 27.259 0 0 1-3.345-3.368 28.6 28.6 0 0 1-3.062-3.644 27.936 27.936 0 0 1 3.338 3.376 29.567 29.567 0 0 1 3.069 3.636z" transform="translate(1011.011 305.465)" style="fill:#fafafa"/>
                <path data-name="路径 16298" d="M345.84 343.969a14.626 14.626 0 0 1-2.5-2.3 14.958 14.958 0 0 1-2.2-2.572 14.632 14.632 0 0 1 2.5 2.3 13.873 13.873 0 0 1 2.2 2.572z" transform="translate(1008.279 299.329)" style="fill:#fafafa"/>
                <path data-name="路径 16299" d="M327.749 347.688a11.115 11.115 0 0 1-3.062 2.3 10.832 10.832 0 0 1-3.537 1.531c0-.107 1.531-.766 3.338-1.845s3.184-2.074 3.261-1.986z" transform="translate(1012.966 297.316)" style="fill:#fafafa"/>
                <path data-name="路径 16300" d="M337.824 367.118c-.115 0 .344-2.036.574-4.555s.161-4.593.276-4.593a14.705 14.705 0 0 1 .122 4.593 14.49 14.49 0 0 1-.972 4.555z" transform="translate(1009.06 294.904)" style="fill:#fafafa"/>
                <path data-name="路径 16301" d="M366.377 349.833a12.868 12.868 0 0 1-3.315-2.917 12.548 12.548 0 0 1-2.442-3.667c.1-.069 1.148 1.592 2.741 3.407s3.092 3.077 3.016 3.177z" transform="translate(1003.711 298.356)" style="fill:#fafafa"/>
                <path data-name="路径 16302" d="M379.208 359.01c-.092-.069 1.072-1.661 2.373-3.705s2.258-3.759 2.358-3.705a16.419 16.419 0 0 1-2.029 3.919 15.97 15.97 0 0 1-2.702 3.491z" transform="translate(999.353 296.398)" style="fill:#fafafa"/>
                <path data-name="路径 16303" d="M375.245 337.567a40.067 40.067 0 0 1-7.655-2.067 21.068 21.068 0 0 1 3.889.842 19.605 19.605 0 0 1 3.766 1.225z" transform="translate(1002.077 300.173)" style="fill:#fafafa"/>
                <path data-name="路径 16304" d="M369.489 376.6a16.227 16.227 0 0 1 0-3.629 17.148 17.148 0 0 1 .413-3.606 15.984 15.984 0 0 1 0 3.628 16.842 16.842 0 0 1-.413 3.606z" transform="translate(1001.655 292.231)" style="fill:#fafafa"/>
                <path data-name="路径 16305" d="M376.5 390.38a30.762 30.762 0 0 0 .965-3.774 29.612 29.612 0 0 0 .061-3.9 9.186 9.186 0 0 1-1.026 7.655z" transform="translate(999.987 289.103)" style="fill:#fafafa"/>
                <path data-name="路径 16306" d="M358.371 387.315a11.812 11.812 0 0 1 1.47-7.655c.107.046-.6 1.661-1 3.782s-.355 3.865-.47 3.873z" transform="translate(1004.268 289.818)" style="fill:#fafafa"/>
                <path data-name="路径 16307" d="M339.722 394.979a42.877 42.877 0 0 1-3.6-2.794 44.471 44.471 0 0 1-3.544-2.855 18.585 18.585 0 0 1 3.828 2.542 19.452 19.452 0 0 1 3.315 3.108z" transform="translate(1010.286 287.55)" style="fill:#fafafa"/>
                <path data-name="路径 16308" d="M350.266 377.09a66.11 66.11 0 0 1-9.186 4.861 34.375 34.375 0 0 1 4.532-2.633 33.435 33.435 0 0 1 4.654-2.228z" transform="translate(1008.293 290.42)" style="fill:#fafafa"/>
                <path data-name="路径 16309" d="M375.946 413.717a3.465 3.465 0 0 1-.5.122c-.329.061-.811.184-1.439.268a30.709 30.709 0 0 1-5.359.345 33.074 33.074 0 0 1-28.822-18 30.286 30.286 0 0 1-2.052-4.983c-.207-.6-.306-1.087-.4-1.409a2.416 2.416 0 0 1-.1-.505 2.8 2.8 0 0 1 .176.482c.115.314.237.766.467 1.386a34.678 34.678 0 0 0 6.66 11.414 33.621 33.621 0 0 0 24.075 11.337 34.828 34.828 0 0 0 5.359-.214c.635-.061 1.118-.161 1.447-.191a2.156 2.156 0 0 1 .488-.052z" transform="translate(1009.184 287.499)" style="fill:#263238"/>
                <path data-name="路径 16310" d="M357.869 413.923a5.948 5.948 0 0 1 .36-3.621 5.887 5.887 0 0 1 2.113-2.963 18.84 18.84 0 0 0-1.738 3.108 19.412 19.412 0 0 0-.735 3.476z" transform="translate(1004.387 283.327)" style="fill:#fafafa"/>
                <path data-name="路径 16311" d="M348.686 412.5a13.373 13.373 0 0 0-1.99 1.9 13.994 13.994 0 0 0-1.256 2.442 4.693 4.693 0 0 1 3.246-4.34z" transform="translate(1007.27 282.117)" style="fill:#fafafa"/>
                <path data-name="路径 16312" d="M379.454 430.168a7.839 7.839 0 0 1-6.124-3.828 13.779 13.779 0 0 0 6.124 3.828z" transform="translate(1000.731 278.872)" style="fill:#fafafa"/>
                <path data-name="路径 16313" d="M384.977 403.64a6.032 6.032 0 0 1-4.157 4.9 16.347 16.347 0 0 0 2.48-2.105 15.825 15.825 0 0 0 1.677-2.795z" transform="translate(998.974 284.195)" style="fill:#fafafa"/>
                <path data-name="路径 16314" d="M400.235 422.332c-.092-.077.919-1.355 1.853-3.116s1.432-3.315 1.531-3.276a11.774 11.774 0 0 1-3.4 6.392z" transform="translate(994.425 281.311)" style="fill:#fafafa"/>
                <path data-name="路径 16315" d="M417.171 427c.046.115-1.347.666-2.748 1.822s-2.243 2.4-2.342 2.3a6.208 6.208 0 0 1 2.09-2.641 6.125 6.125 0 0 1 3-1.481z" transform="translate(991.644 278.717)" style="fill:#fafafa"/>
                <path data-name="路径 16316" d="M403.079 400.579c-.122.038-.766-2.2-2.2-4.677s-2.963-4.226-2.863-4.3a4.777 4.777 0 0 1 1.095 1.072 19.008 19.008 0 0 1 3.613 6.415 5.068 5.068 0 0 1 .352 1.493z" transform="translate(994.943 287.018)" style="fill:#fafafa"/>
                <path data-name="路径 16317" d="M405.139 373.56a35.549 35.549 0 0 1-7.349 1.692 35.858 35.858 0 0 1 7.349-1.692z" transform="translate(994.995 291.248)" style="fill:#fafafa"/>
                <path data-name="路径 16318" d="M397.541 362.937a16.834 16.834 0 0 1-2.342-2.695 16.615 16.615 0 0 1-2.029-2.932 15.377 15.377 0 0 1 2.342 2.69 15.578 15.578 0 0 1 2.029 2.94z" transform="translate(996.078 295.058)" style="fill:#fafafa"/>
                <path data-name="路径 16319" d="M417.805 358.8a17.828 17.828 0 0 1-7.165-1.7 31.205 31.205 0 0 1 3.59.834 30.29 30.29 0 0 1 3.575.866z" transform="translate(991.982 295.108)" style="fill:#fafafa"/>
                <path data-name="路径 16320" d="M435 357.1a29.674 29.674 0 0 1 1.171-3.185 27.109 27.109 0 0 1 1.171-3.192 10 10 0 0 1-.765 3.33A9.751 9.751 0 0 1 435 357.1z" transform="translate(986.27 296.604)" style="fill:#fafafa"/>
                <path data-name="路径 16321" d="M429.7 378.257a11.483 11.483 0 0 1-6.124-3.628c.077-.092 1.286.965 2.963 1.952s3.203 1.561 3.161 1.676z" transform="translate(988.948 290.999)" style="fill:#fafafa"/>
                <path data-name="路径 16322" d="M441.313 375.995a27.743 27.743 0 0 1 .842-4.547 27.273 27.273 0 0 1 1.21-4.448 53.3 53.3 0 0 1-2.074 9z" transform="translate(984.795 292.786)" style="fill:#fafafa"/>
                <path data-name="路径 16323" d="M431.628 399.334a46.788 46.788 0 0 1-5.1-6.974 23.911 23.911 0 0 1 2.71 3.368 23.461 23.461 0 0 1 2.39 3.606z" transform="translate(988.256 286.84)" style="fill:#fafafa"/>
                <path data-name="路径 16324" d="M445.847 391.054c-.107.054-.8-1.332-1.906-2.878s-2.166-2.672-2.082-2.756a8.9 8.9 0 0 1 2.411 2.526 8.634 8.634 0 0 1 1.577 3.108z" transform="translate(984.663 288.467)" style="fill:#fafafa"/>
                <path data-name="路径 16325" d="M458.589 388.867a38.024 38.024 0 0 1-2.45-3.207 39.857 39.857 0 0 1-2.45-3.2 20.745 20.745 0 0 1 4.9 6.407z" transform="translate(981.887 289.161)" style="fill:#fafafa"/>
                <path data-name="路径 16326" d="M456.095 398.083a7.379 7.379 0 0 0-.911-2.61 7.539 7.539 0 0 0-2.044-1.868c0-.046.352 0 .834.237a4.135 4.135 0 0 1 1.531 1.409 4.2 4.2 0 0 1 .681 1.975c.077.505-.022.857-.091.857z" transform="translate(982.016 286.552)" style="fill:#fafafa"/>
                <path data-name="路径 16327" d="M446.239 410.678c-.061 0-.038-.207-.1-.475a1.569 1.569 0 0 0-.528-.88 1.531 1.531 0 0 0-.98-.3c-.276 0-.452.069-.482 0s.115-.207.444-.3a1.454 1.454 0 0 1 1.822 1.424c-.008.37-.13.546-.176.531z" transform="translate(984.126 283.013)" style="fill:#fafafa"/>
                <path data-name="路径 16328" d="M340.908 428.277A11.031 11.031 0 0 1 334.6 422a18.647 18.647 0 0 0 6.308 6.308z" transform="translate(1009.812 279.89)" style="fill:#fafafa"/>
                <path data-name="路径 16329" d="M274.794 171.039c-1.232-11.643-3.46-22.6-4.065-34.012a2.067 2.067 0 0 0-.544-1.577 1.424 1.424 0 0 0-1.983.574 4.348 4.348 0 0 0-.383 2.3 52.683 52.683 0 0 1-3.062 17.814c-1.309 3.713-3.062 7.272-4.042 11.077s.865 5.1 2.58 8.643" transform="translate(1027.201 347.127)" style="fill:#ffbe9d"/>
                <path data-name="路径 16330" d="M262.922 179.723a10.664 10.664 0 0 1-4.05-10.082 30.355 30.355 0 0 1 2.434-6.522c.9-2.143 1.6-4.524 1.049-6.782a11.421 11.421 0 0 1-.612-2.6c0-.888.574-1.883 1.462-1.921a2.174 2.174 0 0 1 1.661 1c1.493 1.845 2.687 7.234 1.937 11.261" transform="translate(1027.599 343.243)" style="fill:#ffbe9d"/>
                <path data-name="路径 16331" d="M266.742 164.029s.077-.62.122-1.738a20.853 20.853 0 0 0-.39-4.7 17.019 17.019 0 0 0-.919-3.116 6.31 6.31 0 0 0-.857-1.531 2.182 2.182 0 0 0-1.432-.972 1.378 1.378 0 0 0-1.278 1.072 3.246 3.246 0 0 0 .122 1.967 10.2 10.2 0 0 1 .536 2.166 8.676 8.676 0 0 1-.084 2.3c-.536 3.108-2.189 5.619-3.062 8.107a10.985 10.985 0 0 0-.681 3.629 10.618 10.618 0 0 0 .475 3.185 10.924 10.924 0 0 0 2.3 4.065c.766.819 1.263 1.179 1.24 1.217a2.021 2.021 0 0 1-.383-.253 8.521 8.521 0 0 1-.972-.865 10.472 10.472 0 0 1-2.45-4.08 10.6 10.6 0 0 1-.536-3.269 11.222 11.222 0 0 1 .666-3.751c.842-2.542 2.473-5.052 2.978-8.046a7.931 7.931 0 0 0 .084-2.2 9.717 9.717 0 0 0-.513-2.105 3.59 3.59 0 0 1-.107-2.2 2.128 2.128 0 0 1 .6-.942 1.408 1.408 0 0 1 1.056-.375 2.5 2.5 0 0 1 1.743 1.074 6.689 6.689 0 0 1 .888 1.654 16.077 16.077 0 0 1 .888 3.185 18.908 18.908 0 0 1 .268 4.761 9.53 9.53 0 0 1-.168 1.286 1.739 1.739 0 0 1-.138.475z" transform="translate(1027.659 343.298)" style="fill:#eb996e"/>
                <path data-name="路径 16332" d="M398.413 245.163a5.282 5.282 0 0 0 4.723 4.088 6.629 6.629 0 0 0 5.764-2.832 8.934 8.934 0 0 0 1.431-6.4 8.783 8.783 0 0 0-5.688-7.28c-3.108-.957-6.974.766-7.831 3.889l-3.583 5z" transform="translate(996.064 324.331)" style="fill:#263238"/>
                <path data-name="路径 16333" d="M380.975 229.04a20.845 20.845 0 0 0-18.732-23.348c-11.108-1.056-20.99 7.219-22.652 18.257-1.462 9.676-2.718 19.444-2.672 22.965.138 10.717 6.392 14.866 8.934 16.076a14.038 14.038 0 0 0 2.817.7.069.069 0 0 1 .054.084l-2.373 12.248c-1.079 8.046 3.414 15.226 11.444 16.4s14.361-5.007 15.593-13.06z" transform="translate(1009.269 330.632)" style="fill:#ffbe9d"/>
                <path data-name="路径 16334" d="M342.814 237.329c.176.253 1.585-.505 3.4-.237s3 1.37 3.23 1.171c.115-.084-.046-.505-.559-1.01a4.685 4.685 0 0 0-2.549-1.217 4.532 4.532 0 0 0-2.748.467c-.636.344-.866.711-.774.826z" transform="translate(1007.891 323.507)" style="fill:#263238"/>
                <path data-name="路径 16335" d="M363.855 241.889c.176.253 1.592-.505 3.4-.237s3.008 1.37 3.238 1.171c.107-.084-.046-.505-.566-1.018a4.677 4.677 0 0 0-2.542-1.21 4.524 4.524 0 0 0-2.748.467c-.621.345-.866.712-.782.827z" transform="translate(1002.956 322.438)" style="fill:#263238"/>
                <path data-name="路径 16336" d="M354.325 248.9a12.194 12.194 0 0 0-2.863-.957c-.459-.115-.88-.276-.911-.6a2.381 2.381 0 0 1 .505-1.324l1.883-3.322c2.626-4.739 4.593-8.658 4.409-8.765s-2.48 3.652-5.106 8.421l-1.83 3.345a2.794 2.794 0 0 0-.505 1.784 1.2 1.2 0 0 0 .666.766 3.308 3.308 0 0 0 .766.222 11.918 11.918 0 0 0 2.986.43z" transform="translate(1006.224 323.99)" style="fill:#263238"/>
                <path data-name="路径 16337" d="M352.165 280.848s6.89 1.592 16.42-2.388c0 0-4.1 8.842-17.056 5.7z" transform="translate(1005.842 313.548)" style="fill:#eb996e"/>
                <path data-name="路径 16338" d="M355.761 259.063a3.3 3.3 0 0 1 3.062-.766 3.062 3.062 0 0 1 1.9 1.409 1.891 1.891 0 0 1-.176 2.174 2.189 2.189 0 0 1-2.457.253 6.8 6.8 0 0 1-2.113-1.715 1.937 1.937 0 0 1-.444-.612.6.6 0 0 1 .107-.674" transform="translate(1004.918 318.3)" style="fill:#eb996e"/>
                <path data-name="路径 16339" d="M360.418 256.13c-.291-.061-.582 1.906-2.465 3.062s-3.95.628-4 .9c-.046.122.413.452 1.294.6a4.96 4.96 0 0 0 3.322-.643 4.317 4.317 0 0 0 1.944-2.58c.187-.811.042-1.332-.095-1.339z" transform="translate(1005.276 318.784)" style="fill:#263238"/>
                <path data-name="路径 16340" d="M365.489 234.319c.107.521 1.952.551 4.034 1.118s3.728 1.393 4.073 1c.153-.191-.077-.7-.7-1.278a7.288 7.288 0 0 0-6.178-1.608c-.838.194-1.267.523-1.229.768z" transform="translate(1002.57 324.113)" style="fill:#263238"/>
                <path data-name="路径 16341" d="M345.2 230c.253.459 1.569.214 3.062.413s2.733.674 3.062.291c.161-.191 0-.635-.482-1.1a4.471 4.471 0 0 0-4.961-.566c-.557.342-.794.741-.681.962z" transform="translate(1007.333 325.255)" style="fill:#263238"/>
                <path data-name="路径 16342" d="M337.513 219.628c2.212 3.376 9.24 1.286 13.481-1.033a10.089 10.089 0 0 0 13.779-2.848c2.427 3.062 7.364 2.067 9.186-1.416s.765-8.283-1.684-11.33a15.718 15.718 0 0 0-9.646-5.244 22.423 22.423 0 0 0-22.728 9.362c-2.335 3.529-3.736 8.283-2.35 12.508" transform="translate(1009.249 332.558)" style="fill:#263238"/>
                <path data-name="路径 16343" d="M361.634 199.325a36.78 36.78 0 0 0-5.137.291 18.679 18.679 0 0 0-10.625 5.718A23.15 23.15 0 0 0 340.8 216.4a30.624 30.624 0 0 0-.268 5.129 4.69 4.69 0 0 1-.283-1.378 15.894 15.894 0 0 1 .061-3.828 22.3 22.3 0 0 1 5.068-11.483 18.372 18.372 0 0 1 11.085-5.749 16.3 16.3 0 0 1 3.828-.061 4.5 4.5 0 0 1 1.34.291z" transform="translate(1008.507 332.192)" style="fill:#455a64"/>
                <path data-name="路径 16344" d="M353.216 215.378a3.476 3.476 0 0 1-.168-1.2 11.873 11.873 0 0 1 .344-3.3 13.588 13.588 0 0 1 17.056-10.044 12.424 12.424 0 0 1 3.062 1.3 3.322 3.322 0 0 1 .972.766 25.02 25.02 0 0 0-4.149-1.531 13.557 13.557 0 0 0-16.459 9.691 23.931 23.931 0 0 0-.658 4.318z" transform="translate(1005.488 331.877)" style="fill:#455a64"/>
                <path data-name="路径 16345" d="M379.341 212.945a40.011 40.011 0 0 0-1.424 9.186 13.527 13.527 0 0 0 2.748 8.681c2.955 3.56 7.885 4.647 12.432 5.512a35.979 35.979 0 0 0 2.12-19.138c-.521-3.131-1.531-6.323-3.736-8.6a10.4 10.4 0 0 0-12.631-1.531" transform="translate(999.657 330.636)" style="fill:#263238"/>
                <path data-name="路径 16346" d="M381.473 234.56c-1.194 2.587-1.11 5.581-.7 8.421s1.133 5.619 1.1 8.467-.934 5.871-3.169 7.655a13.465 13.465 0 0 0-1.9 1.531 1.983 1.983 0 0 0-.4 2.243c.429.689 1.722.674 1.906-.115l-.115.2a1.263 1.263 0 0 0 1.072 1.906 5.734 5.734 0 0 0 4.088-2.006 12.525 12.525 0 0 0 2.427-6.124c1.179-6.759.949-13.779 2.817-20.37" transform="translate(1000.051 323.842)" style="fill:#263238"/>
                <path data-name="路径 16347" d="M347.089 292.449a16.466 16.466 0 0 0 21.993 11.682c3.965-1.531 7.165-4.517 10.25-7.433a24.014 24.014 0 0 1-22.254 27.911c-5.075.306-10.526-1.24-13.718-5.2a15.388 15.388 0 0 1-3.062-9.952 36.255 36.255 0 0 1 2.006-10.411c.9-2.894 2.335-6.124 5.259-6.928" transform="translate(1008.477 310.345)" style="fill:#ff725e"/>
                <path data-name="路径 16348" d="M392.673 244.722c3.062 1.646 4.7 5.091 5.29 8.49s.291 6.89.436 10.327.8 7.05 2.986 9.722c2.3 2.848 5.933 4.2 9.186 5.933 7.135 3.828 13.014 10.357 15.157 18.181s.2 16.841-5.657 22.468c-5.359 5.1-13.09 6.89-20.47 6.89-5.259 0-11.039-1.133-14.323-5.244s-3.062-9.875-1.914-14.943 3.253-9.99 3.338-15.188a27.061 27.061 0 0 1-4.042 8.987c-.544.765-1.47 1.608-2.3 1.164s-.574-1.876-.145-2.832c6.338-14.108 4.134-42.547 7.892-58.125" transform="translate(999.209 322.437)" style="fill:#263238"/>
                <path data-name="路径 16349" d="M389.347 243.865c.191-.061 7.594-1.462 6.637 5.856s-8.1 4.853-8.084 4.647 1.447-10.503 1.447-10.503z" transform="translate(997.314 321.694)" style="fill:#ffbe9d"/>
                <path data-name="路径 16350" d="M391.288 252.664a2.87 2.87 0 0 0 .322.23 1.294 1.294 0 0 0 .949.145 3.189 3.189 0 0 0 1.83-2.641 4.341 4.341 0 0 0-.123-1.875 1.478 1.478 0 0 0-.834-1.1.658.658 0 0 0-.766.253c-.122.191-.1.344-.138.352s-.138-.145-.046-.436a.819.819 0 0 1 .352-.421.964.964 0 0 1 .766-.1 1.814 1.814 0 0 1 1.187 1.309 4.424 4.424 0 0 1 .176 2.1c-.237 1.47-1.171 2.748-2.3 2.917a1.362 1.362 0 0 1-1.141-.344c-.242-.213-.257-.381-.234-.389z" transform="translate(996.522 320.918)" style="fill:#eb996e"/>
                <path data-name="路径 16351" d="M339.29 308.13a18.083 18.083 0 0 1 1.24-2.258 30.476 30.476 0 0 0 2.641-5.581 13.78 13.78 0 0 0 .658-6.063 23.681 23.681 0 0 0-.582-2.488 2.067 2.067 0 0 1 .329.62 8.129 8.129 0 0 1 .536 1.83 13.014 13.014 0 0 1-.559 6.224 25.706 25.706 0 0 1-2.779 5.6c-.429.674-.766 1.21-1.049 1.569a3.874 3.874 0 0 1-.435.547z" transform="translate(1008.713 310.434)" style="fill:#263238"/>
                <path data-name="路径 16352" d="M343.454 301.583c-.107 0-.314-.628-.972-1.064s-1.317-.436-1.332-.551.161-.13.459-.138a1.921 1.921 0 0 1 1.1.36 2.013 2.013 0 0 1 .72.911c.101.283.079.467.025.482z" transform="translate(1008.277 308.537)" style="fill:#fafafa"/>
                <path data-name="路径 16353" d="M349.036 301.234a14.414 14.414 0 0 0-1.883-1.768 12.663 12.663 0 0 0-2.373-1.026 3.437 3.437 0 0 1 2.587.7 3.552 3.552 0 0 1 1.669 2.1z" transform="translate(1007.425 308.87)" style="fill:#fafafa"/>
                <path data-name="路径 16354" d="M354.22 320.5a12.717 12.717 0 0 1 .444-3.123 12.578 12.578 0 0 1 .834-3.062 12.751 12.751 0 0 1-.444 3.131 12.576 12.576 0 0 1-.834 3.054z" transform="translate(1005.212 305.141)" style="fill:#fafafa"/>
                <path data-name="路径 16355" d="M369.788 323.431a27.94 27.94 0 0 1 .207-6.591 26.894 26.894 0 0 1-.207 6.591z" transform="translate(1001.586 304.548)" style="fill:#fafafa"/>
            </g>
            <g>
                <path data-name="路径 16356" d="m47.694 369.89-11.8 51.4 24.963.077 11.529-45.2z" transform="translate(1079.855 292.109)" style="fill:#b78876"/>
                <path data-name="路径 16357" d="M204 281.242c-2.373-3.177-5.1-6.231-6.346-10-.6-1.822-.842-3.751-1.485-5.558a6.753 6.753 0 0 0-3.606-4.249c-1.791-.681-3.154 0-4.317 1.286l-8.566 25.055 4.938 19.245c4.93-1.11 11.1-2.427 15.708-4.5s7.655-5.4 7.977-10.442c.222-3.955-1.93-7.653-4.303-10.837z" transform="translate(1046.138 317.603)" style="fill:#263238"/>
                <path data-name="路径 16358" d="M94.468 281.023s-29.778 12.96-33.5 18.809S45 347.378 45 347.378l31.386 9.186-.536 43.412h76.934l-.635-76.551-9.645-42.3s-16.987-1.095-18.564-1.868-29.472 1.766-29.472 1.766z" transform="translate(1077.719 313.396)" style="fill:#ff725e"/>
                <path data-name="路径 16359" d="M247.73 140.8c.245-1.753-.988-3.682-.1-5.221a4.348 4.348 0 0 1 2.381-1.615 3.828 3.828 0 0 1 1.47-.344 1.294 1.294 0 0 1 1.2.766 1.638 1.638 0 0 1-.589 1.585 4.669 4.669 0 0 0-1.156 1.332 7.993 7.993 0 0 0 .283 3.766 66.546 66.546 0 0 1 2.534 8.191" transform="translate(1030.281 347.512)" style="fill:#b78876"/>
                <path data-name="路径 16360" d="M239.65 138.947c.107-2.656 2.3-13.121 2.373-15.777 1.8.551 2.84 2.465 3.177 4.317s.161 3.759.482 5.611a20.434 20.434 0 0 0 3.024 6.89 24.847 24.847 0 0 1 3.253 6.805c.589 2.45 2.809 8.819 1.079 10.656" transform="translate(1032.076 349.962)" style="fill:#b78876"/>
                <path data-name="路径 16361" d="m223.376 167.18-10.648 50.585c-.375 2.3-40.358 37.166-40.358 37.166l7.892 31.532 52.055-50.93a21.159 21.159 0 0 0 5.7-14.843l-.888-47.462z" transform="translate(1047.852 339.642)" style="fill:#b78876"/>
                <path data-name="路径 16362" d="m236.472 138.771 1.822 17.607 13.779 6.063s.168-1.248.766-7.349c.651-6.721-6.576-9.607-9.8-14.545-1.378-2.12-1.018-6.025-2.082-10.863-.122-.559-.888-3.942-1.3-5.757A4.088 4.088 0 0 0 238 121.44c-.628-.413-1.332-.62-1.845 0s.317 17.331.317 17.331z" transform="translate(1032.934 350.459)" style="fill:#b78876"/>
                <path data-name="路径 16363" d="M244.7 164.134a5.547 5.547 0 0 0 1.324-5.665 14.445 14.445 0 0 0-3.253-5.175 20.532 20.532 0 0 1-3.59-4.976c-.582-1.317-.857-2.771-1.531-4.065a4.181 4.181 0 0 0-3.253-2.534c1.156 7.28 1.125 11.483 3.491 19.459" transform="translate(1033.307 345.612)" style="fill:#b78876"/>
                <path data-name="路径 16364" d="M235.728 150.07s-.054-.2-.138-.582-.23-1.018-.367-1.669c-.329-1.531-.766-3.483-1.217-5.726l-.046-.214h.222a3.567 3.567 0 0 1 2.572.965 7.724 7.724 0 0 1 2.159 3.682 19.09 19.09 0 0 0 1.2 3.177 9.8 9.8 0 0 0 1.347 1.86 2.779 2.779 0 0 1 .459.727 5.645 5.645 0 0 1-.582-.628 8.7 8.7 0 0 1-1.47-1.822 18.051 18.051 0 0 1-1.317-3.207 7.571 7.571 0 0 0-2.067-3.506 3.253 3.253 0 0 0-2.3-.88l.184-.23c.933 4.608 1.533 8.061 1.361 8.053z" transform="translate(1033.41 345.575)" style="fill:#7c5142"/>
                <path data-name="路径 16365" d="M243.7 142.312a65.971 65.971 0 0 1-1.271-7.181 66.731 66.731 0 0 1-.88-7.242 64.175 64.175 0 0 1 1.271 7.188 66.715 66.715 0 0 1 .88 7.234z" transform="translate(1031.631 348.855)" style="fill:#7c5142"/>
                <path data-name="路径 16366" d="M249.4 144.4a.859.859 0 0 1 .1.268h-.115a41.208 41.208 0 0 1-1.393-5.006 53.716 53.716 0 0 1-.712-3.828 5.933 5.933 0 0 1-.138-1.6c.115 0 .582 2.381 1.24 5.359.528 2.381 1.018 4.386 1.118 5.06h-.115c-.012-.165-.012-.253.015-.253z" transform="translate(1030.322 347.368)" style="fill:#7c5142"/>
                <path data-name="路径 16367" d="M251.262 158.968c-.061 0-.337-.4-.888-.988a8.612 8.612 0 0 0-5.55-2.679 9.183 9.183 0 0 1-1.324-.084 3.062 3.062 0 0 1 1.332-.2 7.533 7.533 0 0 1 5.749 2.779 3 3 0 0 1 .681 1.171z" transform="translate(1031.173 342.496)" style="fill:#7c5142"/>
                <path data-name="路径 16368" d="M239.527 164.409a10.419 10.419 0 0 1-.911-2.082 46.164 46.164 0 0 1-1.577-5.251 45.461 45.461 0 0 1-.965-5.359 11.116 11.116 0 0 1-.138-2.3 15.473 15.473 0 0 1 .413 2.228c.23 1.37.582 3.269 1.072 5.359s1.041 3.919 1.462 5.251a16.138 16.138 0 0 1 .643 2.151z" transform="translate(1032.949 343.807)" style="fill:#7c5142"/>
                <path data-name="路径 16369" d="M160.16 278.359a4.853 4.853 0 0 1 6.522-1.531c5.619-4.593 11.368-9.048 16.987-13.618-1.837 9.186-3.062 21.993 1.049 30.4 0 0 5.183 9.63 13.435 8.16l-7.364 7.211-11.613 10.771" transform="translate(1050.715 317.124)" style="fill:#ff725e"/>
                <path data-name="路径 16370" d="M157.78 286.759a6.2 6.2 0 0 1 1.079-3.452 6.27 6.27 0 0 1 2.572-2.557 13.42 13.42 0 0 0-3.651 6.009z" transform="translate(1051.273 313.011)" style="fill:#263238"/>
                <path data-name="路径 16371" d="M165.427 292.516a4.723 4.723 0 0 1-.643-1.669 10.794 10.794 0 0 1 1.477-8.352 4.793 4.793 0 0 1 1.179-1.355c.054.046-.39.566-.934 1.531a12.171 12.171 0 0 0-1.447 3.942 12.372 12.372 0 0 0 0 4.2 16.818 16.818 0 0 1 .368 1.703z" transform="translate(1049.697 312.92)" style="fill:#263238"/>
                <path data-name="路径 16372" d="M196.755 310.057a6.216 6.216 0 0 1-1.83.765 10.174 10.174 0 0 1-5.359-.161 12.907 12.907 0 0 1-6.446-4.593 21.7 21.7 0 0 1-3.828-8.964 67.634 67.634 0 0 1-.919-17.7c.176-2.3.429-4.088.643-5.359.1-.628.191-1.11.26-1.439a2.52 2.52 0 0 1 .122-.5 2.144 2.144 0 0 1-.046.513l-.184 1.447a77.443 77.443 0 0 0-.513 5.359 70.955 70.955 0 0 0 1.026 17.607 21.618 21.618 0 0 0 3.713 8.75 12.646 12.646 0 0 0 6.239 4.593 10.3 10.3 0 0 0 5.244.283 14.7 14.7 0 0 0 1.878-.601z" transform="translate(1046.494 315.037)" style="fill:#fafafa"/>
                <path data-name="路径 16373" d="M86.129 382.28c-.107 0-.2-10.886-.2-24.305s.092-24.305.2-24.305.2 10.878.2 24.305-.085 24.305-.2 24.305z" transform="translate(1068.121 300.602)" style="fill:#263238"/>
                <path data-name="路径 16374" d="M82.034 318.308c-.084 0-.061-1.087-.436-2.779a15.4 15.4 0 0 0-.957-2.878 17.3 17.3 0 0 0-1.891-3.185 17.494 17.494 0 0 0-2.58-2.664 15.828 15.828 0 0 0-2.519-1.684c-1.531-.8-2.6-1.072-2.572-1.148a2.68 2.68 0 0 1 .766.153 5.785 5.785 0 0 1 .85.283 8.364 8.364 0 0 1 1.095.467 14.044 14.044 0 0 1 2.587 1.638 17.193 17.193 0 0 1 2.656 2.71 16.274 16.274 0 0 1 1.914 3.284 14.162 14.162 0 0 1 .926 2.97 9.355 9.355 0 0 1 .161 1.179 6.533 6.533 0 0 1 .046.9 3.3 3.3 0 0 1-.046.754z" transform="translate(1071.604 307.567)" style="fill:#263238"/>
                <path data-name="路径 16375" d="M142.058 281.17a3.558 3.558 0 0 1 .13.651 15.975 15.975 0 0 1 .2 1.876 19.521 19.521 0 0 1-.957 6.851 20.1 20.1 0 0 1-5.55 8.589 19.758 19.758 0 0 1-23.585 1.807 20.087 20.087 0 0 1-6.767-7.655 19.589 19.589 0 0 1-1.967-6.629 17.335 17.335 0 0 1-.084-1.883 3.919 3.919 0 0 1 0-.658 3.918 3.918 0 0 1 .054.651 18.613 18.613 0 0 0 .153 1.868 20.224 20.224 0 0 0 2.067 6.522 19.98 19.98 0 0 0 6.714 7.494 19.521 19.521 0 0 0 23.134-1.738 19.972 19.972 0 0 0 5.527-8.421 20.492 20.492 0 0 0 1.072-6.759 13.037 13.037 0 0 0-.13-1.868 2.017 2.017 0 0 1-.011-.698z" transform="translate(1064.01 312.913)" style="fill:#263238"/>
                <path data-name="路径 16376" d="M76.717 365.082c0 .107-6.361-1.891-14.124-4.455S48.562 355.9 48.6 355.789s6.354 1.891 14.124 4.455 14.024 4.731 13.993 4.838z" transform="translate(1076.875 295.417)" style="fill:#fafafa"/>
                <path data-name="路径 16377" d="M160.9 354.028c0 .115-16.88.276-37.7.36s-37.709.069-37.709 0 16.88-.276 37.709-.36 37.7-.107 37.7 0z" transform="translate(1068.224 295.846)" style="fill:#fafafa"/>
                <path data-name="路径 16378" d="M161.284 362.7c0 .107-16.971.2-37.893.2s-37.9-.092-37.9-.2 16.964-.2 37.9-.2 37.893.084 37.893.2z" transform="translate(1068.224 293.842)" style="fill:#fafafa"/>
                <path data-name="路径 16379" d="M157.259 373.34a3.481 3.481 0 0 1-.214.62c-.168.429-.4 1.01-.681 1.745l-.505 1.255c-.2.459-.436.942-.681 1.47-.505 1.041-1.026 2.251-1.753 3.521l-1.1 2.006c-.383.7-.842 1.386-1.286 2.12-.873 1.477-1.944 2.962-3.062 4.547a82.547 82.547 0 0 1-8.191 9.492 82.269 82.269 0 0 1-9.653 8.007c-1.608 1.072-3.116 2.12-4.593 2.963-.766.429-1.439.873-2.143 1.248l-2.052 1.056c-1.278.7-2.5 1.2-3.552 1.684-.528.23-1.018.459-1.477.651l-1.271.482-1.753.651a3.355 3.355 0 0 1-.628.2 3.978 3.978 0 0 1 .6-.276l1.73-.72 1.248-.513c.459-.2.942-.436 1.462-.681 1.041-.5 2.251-1.018 3.514-1.73l2.013-1.072c.7-.383 1.393-.834 2.128-1.263 1.477-.85 2.97-1.906 4.593-2.978a77.525 77.525 0 0 0 17.76-17.415c1.11-1.569 2.189-3.062 3.062-4.509.452-.727.919-1.409 1.309-2.1l1.11-1.99c.766-1.248 1.278-2.45 1.8-3.483.253-.521.505-1 .712-1.447s.375-.865.536-1.24c.314-.72.566-1.286.766-1.715a6.281 6.281 0 0 1 .252-.586z" transform="translate(1061.853 291.3)" style="fill:#263238"/>
                <g data-name="组 8641" style="opacity:.3">
                    <path data-name="路径 16380" d="M1216.004 671.27c-5.144 6.262-10.533 10.8-18.089 13.726-3.621 1.393-7.41 2.35-10.916 4.011s-6.813 4.164-8.421 7.709c-1.217 2.741-.628 6.89 2.3 7.487a6.208 6.208 0 0 0 3.33-.513c14.966-5.427 24.8-19.138 31.754-32.419"/>
                </g>
                <path data-name="路径 16381" d="M92.762 204.08c-3.23 2.534-3.445 7.272-3.284 11.376s.207 8.773-2.786 11.605c-2.45 2.335-6.737 3.2-7.441 6.515a3.828 3.828 0 0 0 6.185 3.789c-1.041 2.6-.566 5.917 1.646 7.655s6.078.911 6.89-1.753a3.384 3.384 0 1 0 6.583 1.531" transform="translate(1069.71 330.99)" style="fill:#263238"/>
                <path data-name="路径 16382" d="M150.833 231.374a4.08 4.08 0 1 0 7.655-2.771c-.635-1.592-2.3-2.794-2.335-4.5-.1-2.067 2.075-3.437 3.981-4.241s4.141-1.876 4.44-3.919-1.409-3.613-2.832-5.014-2.794-3.529-1.791-5.259c.513-.88 1.531-1.355 2.189-2.128 1.485-1.715.888-4.593-.827-6.055a8.368 8.368 0 0 0-6.415-1.531 55.2 55.2 0 0 0-6.583 1.654 27.092 27.092 0 0 1-21.434-3.828" transform="translate(1058.519 333.405)" style="fill:#263238"/>
                <path data-name="路径 16383" d="m99.691 216.909 7.877 45.655a14.69 14.69 0 0 0 17.063 11.988 14.7 14.7 0 0 0 12.049-15.77c-.36-4.05-.666-7.4-.666-7.4s11.437-2.94 10.449-14.545c-.482-5.619-2.4-17.109-4.272-27.49a21.725 21.725 0 0 0-23.5-17.768l-1.118.107a21.58 21.58 0 0 0-17.882 25.224z" transform="translate(1064.978 333.946)" style="fill:#b78876"/>
                <path data-name="路径 16384" d="M151.121 224.2a1.653 1.653 0 0 1-1.431 1.83 1.585 1.585 0 0 1-1.853-1.324 1.653 1.653 0 0 1 1.431-1.83 1.585 1.585 0 0 1 1.853 1.324z" transform="translate(1053.608 326.589)" style="fill:#263238"/>
                <path data-name="路径 16385" d="M150.779 222.095c-.184.23-1.531-.574-3.315-.4s-3.008 1.2-3.223 1c-.1-.092.069-.5.6-.972a4.547 4.547 0 0 1 2.557-1.064 4.41 4.41 0 0 1 2.664.582c.587.372.809.747.717.854z" transform="translate(1054.454 327.106)" style="fill:#263238"/>
                <path data-name="路径 16386" d="M128.319 226.864a1.669 1.669 0 0 1-1.439 1.822 1.592 1.592 0 0 1-1.853-1.324 1.669 1.669 0 0 1 1.432-1.83 1.6 1.6 0 0 1 1.86 1.332z" transform="translate(1058.956 325.965)" style="fill:#263238"/>
                <path data-name="路径 16387" d="M127.909 224.757c-.184.237-1.531-.566-3.315-.39s-3 1.2-3.223 1c-.1-.092.069-.5.6-.972a4.593 4.593 0 0 1 2.557-1.064 4.356 4.356 0 0 1 2.664.582c.587.369.778.744.717.844z" transform="translate(1059.817 326.48)" style="fill:#263238"/>
                <path data-name="路径 16388" d="M139.372 237.139a11.692 11.692 0 0 1 2.84-.811c.452-.092.88-.222.926-.544a2.4 2.4 0 0 0-.436-1.317l-1.692-3.338c-2.35-4.762-4.1-8.689-3.9-8.78s2.251 3.69 4.593 8.421l1.631 3.368a2.626 2.626 0 0 1 .406 1.761 1.141 1.141 0 0 1-.681.765 3.429 3.429 0 0 1-.765.184 12.072 12.072 0 0 1-2.917.291z" transform="translate(1056.125 326.706)" style="fill:#263238"/>
                <path data-name="路径 16389" d="M127.16 215.677c-.13.505-1.929.444-4 .9s-3.713 1.194-4.027.766c-.145-.191.1-.681.766-1.217a6.89 6.89 0 0 1 2.909-1.347 6.8 6.8 0 0 1 3.207.069c.778.252 1.199.599 1.145.829z" transform="translate(1060.344 328.518)" style="fill:#263238"/>
                <path data-name="路径 16390" d="M149.388 215.39c-.276.436-1.531.138-3.062.26s-2.7.544-3.062.145c-.145-.191 0-.62.521-1.056a4.218 4.218 0 0 1 2.4-.9 4.172 4.172 0 0 1 2.488.582c.615.364.827.762.715.969z" transform="translate(1054.69 328.705)" style="fill:#263238"/>
                <path data-name="路径 16391" d="m109.984 204.535-.061.061a9.186 9.186 0 0 0-2.817 6.231v.237c-.13 3.361.276 6.721.115 10.074s-.98 6.828-3.208 9.347c-.911 1.033-2.626 1.853-3.56.834a2.84 2.84 0 0 1-.566-1.477c-1.393-7.931-4.272-14.813-5.068-23.18a7.05 7.05 0 0 1 2.365-6.017c1.623-1.432 3.636-2.94 5.672-2.2s4.907 4.126 6.568 5.519" transform="translate(1066.046 332.357)" style="fill:#263238"/>
                <path data-name="路径 16392" d="M103.353 231.013c-.207-.061-8.206-1.577-7.181 6.331s8.757 5.251 8.742 5.022-1.561-11.353-1.561-11.353z" transform="translate(1065.741 324.711)" style="fill:#b78876"/>
                <path data-name="路径 16393" d="M102.8 240.528a2.1 2.1 0 0 1-.344.245 1.355 1.355 0 0 1-1.026.161c-.873-.2-1.753-1.439-1.975-2.855a4.593 4.593 0 0 1 .13-2.029 1.623 1.623 0 0 1 .9-1.194.712.712 0 0 1 .857.276c.138.207.107.375.153.383s.153-.153.046-.475a.9.9 0 0 0-.375-.459 1.056 1.056 0 0 0-.766-.1 1.967 1.967 0 0 0-1.286 1.416 4.815 4.815 0 0 0-.191 2.3c.26 1.585 1.271 2.97 2.457 3.154a1.462 1.462 0 0 0 1.232-.375.817.817 0 0 0 .188-.448z" transform="translate(1065.089 323.868)" style="fill:#7c5142"/>
                <path data-name="路径 16394" d="M104.941 196.715c-2.3-2.986 2.649-8.069 6.446-9.684s9.148-.214 13.174.7c2.534.582 5.1 1.477 7.655 1.118a17.607 17.607 0 0 0 4.907-1.768 12.883 12.883 0 0 1 4.976-1.531 4.807 4.807 0 0 1 4.44 2.243c.811 1.531.084 3.828-1.615 4.249a3.919 3.919 0 1 1 1.745 7.119c1.049-.965 2.917.283 2.917 1.7s-1.187 2.58-2.427 3.276c-3.169 1.776-7.073 1.684-10.61.865s-6.89-2.3-10.411-3.215-9.423-2.572-12.715-1.033c-2.419 1.125-3.874 4.317-5.359 3.828a4.861 4.861 0 0 1-2.855-3.322 14.055 14.055 0 0 1-.291-4.532" transform="translate(1063.801 335.339)" style="fill:#263238"/>
                <path data-name="路径 16395" d="M105.71 231.465a69.208 69.208 0 0 0 1.439 12.509 23.386 23.386 0 0 0 5.672 11.062c3.828 3.927 8.849 7.655 14.284 8.581 5.933.98 13.19-.26 18.02-3.828 2.3-1.692 3.958-5.359 3.246-8.13a6.032 6.032 0 0 0 3.445-5.052c.122-2.143-1.187-4.823-2.878-5.106 1.271-.214 1.638-2.235 1.156-3.376s-2.159-1.485-3.429-1.24a8.849 8.849 0 0 0-3.422 1.761 12.072 12.072 0 0 1-3.315 1.975c-4.1 1.332-8.26-2.3-12.57-2.12-3.9.153-7.364 3.391-11.23 2.848a7.785 7.785 0 0 1-5.205-3.621c-1.194-1.83-.674-8.589-1.141-10.717" transform="translate(1063.483 325.613)" style="fill:#263238"/>
                <g data-name="组 8642" style="opacity:.6">
                    <path data-name="路径 16396" d="M144.679 256.395a7.309 7.309 0 0 1-.949-.291 5.083 5.083 0 0 0-4.425.8c-.49.352-.766.635-.766.6a1.9 1.9 0 0 1 .62-.766 4.593 4.593 0 0 1 4.677-.842c.564.192.864.46.843.499z" transform="translate(1055.785 318.911)" style="fill:#455a64"/>
                </g>
                <path data-name="路径 16397" d="M135.549 245.15c.291-.046.482 1.891 2.3 3.062s3.828.8 3.874 1.072c.038.115-.421.421-1.294.528a4.83 4.83 0 0 1-3.223-.766 4.2 4.2 0 0 1-1.776-2.618c-.179-.781-.011-1.278.119-1.278z" transform="translate(1056.533 321.359)" style="fill:#fff"/>
                <path data-name="路径 16398" d="M128.09 265.314a2.052 2.052 0 0 1 .5.184c.329.122.811.291 1.447.467a25.808 25.808 0 0 0 5.512.865 24.314 24.314 0 0 0 3.828-.077 21.438 21.438 0 0 0 4.325-.842 17.608 17.608 0 0 0 4.409-2.013 13.381 13.381 0 0 0 3.828-3.475 7.954 7.954 0 0 0 1.531-5.741v-.161l.138-.061a6.208 6.208 0 0 0 2.4-1.967 6.988 6.988 0 0 0 .766-1.286 4.647 4.647 0 0 0 .337-1.386 5.458 5.458 0 0 0-1.837-4.631l-.115-.092.092-.115a3.215 3.215 0 0 0 .475-3.146 3.062 3.062 0 0 0-1.761-1.73 3.368 3.368 0 0 0-1.6-.222c-.375.046-.559.115-.566.092a1.938 1.938 0 0 1 .559-.168 3.338 3.338 0 0 1 3.583 1.937 3.491 3.491 0 0 1-.459 3.422v-.207a5.78 5.78 0 0 1 2.006 4.892 5.045 5.045 0 0 1-.36 1.531 7.954 7.954 0 0 1-.8 1.363 6.492 6.492 0 0 1-2.542 2.105l.115-.23a8.229 8.229 0 0 1-1.531 6.063 13.733 13.733 0 0 1-3.942 3.575 17.23 17.23 0 0 1-4.509 2.029 21.11 21.11 0 0 1-4.4.827 24.672 24.672 0 0 1-3.9 0 24.137 24.137 0 0 1-5.535-1 12.461 12.461 0 0 1-1.431-.544 2.835 2.835 0 0 1-.563-.258z" transform="translate(1058.235 322.622)" style="fill:#455a64"/>
                <path data-name="路径 16399" d="M82.326 236.454a1.21 1.21 0 0 1-.406-.2 2.3 2.3 0 0 1-.766-1.01 3.437 3.437 0 0 1-.161-2.036 4.111 4.111 0 0 1 1.531-2.243 10.228 10.228 0 0 1 2.909-1.531 18.855 18.855 0 0 0 3.384-1.439 6.614 6.614 0 0 0 2.549-3 10.97 10.97 0 0 0 .9-4.21c.061-2.993-.628-5.833-.7-8.474a11.151 11.151 0 0 1 1.585-6.759 6.369 6.369 0 0 1 3.828-2.626 4.333 4.333 0 0 1 1.286-.061 3.139 3.139 0 0 1 .444.084 6.835 6.835 0 0 0-1.692.13 6.331 6.331 0 0 0-3.667 2.633 10.754 10.754 0 0 0-1.447 6.583c.138 2.587.766 5.427.766 8.5a11.36 11.36 0 0 1-.972 4.363 6.958 6.958 0 0 1-2.718 3.154 18.1 18.1 0 0 1-3.483 1.439 10.066 10.066 0 0 0-2.84 1.424 3.873 3.873 0 0 0-1.477 2.067 3.269 3.269 0 0 0 .084 1.929 2.549 2.549 0 0 0 1.064 1.278z" transform="translate(1069.299 331.28)" style="fill:#455a64"/>
                <path data-name="路径 16400" d="M145.5 193.715a1.744 1.744 0 0 1 .344-.161 2.566 2.566 0 0 1 .452-.153 3.828 3.828 0 0 1 .635-.13 4.739 4.739 0 0 1 3.9 1.4 6.346 6.346 0 0 1 1.187 4.746 7.785 7.785 0 0 1-3.139 5.183 12.026 12.026 0 0 1-6.66 2.3 26.7 26.7 0 0 1-7.724-.827 35.029 35.029 0 0 1-11.222-4.968 35.266 35.266 0 0 0-4.593-2.672 12.555 12.555 0 0 0-4.44-1.133 13.258 13.258 0 0 0-6.515 1.21c-1.432.674-2.113 1.255-2.143 1.21a9.4 9.4 0 0 1 2.075-1.355 13.205 13.205 0 0 1 6.6-1.347 12.784 12.784 0 0 1 4.593 1.11 35.619 35.619 0 0 1 4.662 2.672 35.282 35.282 0 0 0 11.115 4.884 26.6 26.6 0 0 0 7.609.857 11.812 11.812 0 0 0 6.469-2.2 7.548 7.548 0 0 0 3.062-4.945 6.124 6.124 0 0 0-1.064-4.593 4.662 4.662 0 0 0-3.703-1.44 9.951 9.951 0 0 0-1.5.352z" transform="translate(1063.511 333.531)" style="fill:#455a64"/>
                <path data-name="路径 16401" d="M141.156 185.05a4.478 4.478 0 0 1-.36 1.753 7.464 7.464 0 0 1-3.276 3.575 9.385 9.385 0 0 1-3.192 1.148 13.479 13.479 0 0 1-3.889 0 52.372 52.372 0 0 1-8.528-2.342c-2.97-.926-5.963-1.477-8.6-.911a11.36 11.36 0 0 0-6.04 3.521 11.8 11.8 0 0 0-2.442 4.1c-.352 1.087-.421 1.722-.467 1.715a1.884 1.884 0 0 1 0-.459 8.765 8.765 0 0 1 .283-1.3 11.307 11.307 0 0 1 2.381-4.249 11.483 11.483 0 0 1 6.17-3.69c2.725-.6 5.8-.046 8.788.888a53.992 53.992 0 0 0 8.459 2.358 13.113 13.113 0 0 0 3.789 0 9.185 9.185 0 0 0 3.108-1.064 7.471 7.471 0 0 0 3.269-3.391 10.907 10.907 0 0 0 .547-1.652z" transform="translate(1063.802 335.452)" style="fill:#455a64"/>
            </g>
            <g>
                <path data-name="路径 16402" d="M222.309 116.875c-.069.084-4.371-3.414-9.615-7.816s-9.431-8.076-9.355-8.13 4.371 3.414 9.615 7.824 9.432 8.038 9.355 8.122z" transform="translate(1040.591 355.176)" style="fill:#263238"/>
                <path data-name="路径 16403" d="M256.161 105.594c-.107 0-.543-6.8-.965-15.2s-.681-15.211-.574-15.218.544 6.8.972 15.2.674 15.218.567 15.218z" transform="translate(1028.571 361.214)" style="fill:#263238"/>
                <path data-name="路径 16404" d="M236.757 103.211c-.107 0-1.447-3.828-3-8.673s-2.725-8.757-2.618-8.788 1.447 3.828 3 8.666 2.717 8.765 2.618 8.795z" transform="translate(1034.074 358.736)" style="fill:#263238"/>
                <path data-name="路径 16405" d="M218.723 129.5a52.823 52.823 0 0 1-5.9-2.488 51.283 51.283 0 0 1-5.741-2.855 52.82 52.82 0 0 1 5.9 2.488 52.053 52.053 0 0 1 5.741 2.855z" transform="translate(1039.713 349.729)" style="fill:#263238"/>
                <path data-name="路径 16406" d="M195.144 119.511c0 .107-.651.122-1.424 0s-1.386-.26-1.37-.367.651-.122 1.416 0 1.378.256 1.378.367z" transform="translate(1043.167 350.925)" style="fill:#263238"/>
                <path data-name="路径 16407" d="M231.729 78.434c-.115 0-.2-.62-.2-1.393s.084-1.4.2-1.4.2.628.2 1.4-.093 1.393-.2 1.393z" transform="translate(1033.98 361.106)" style="fill:#263238"/>
                <path data-name="路径 16408" d="M287.075 93.41c.084.077-3.452 4.126-7.885 9.048s-8.091 8.857-8.191 8.78 3.452-4.118 7.885-9.048 8.116-8.849 8.191-8.78z" transform="translate(1024.726 356.94)" style="fill:#263238"/>
                <path data-name="路径 16409" d="M298.7 86.135c.077.077-.329.612-.911 1.194s-1.11.98-1.187.9.329-.612.911-1.187 1.115-1.014 1.187-.907z" transform="translate(1018.723 358.649)" style="fill:#263238"/>
                <path data-name="路径 16410" d="M308.487 111.74a6.985 6.985 0 0 1-1.041.62c-.681.375-1.676.9-2.917 1.531-2.488 1.255-5.971 2.894-9.89 4.524s-7.54 2.932-10.189 3.828c-1.317.436-2.388.766-3.139.988a6.124 6.124 0 0 1-1.171.3 7.239 7.239 0 0 1 1.125-.444l3.062-1.11c2.618-.942 6.208-2.3 10.128-3.9s7.4-3.223 9.952-4.409l2.97-1.409a8.266 8.266 0 0 1 1.11-.513z" transform="translate(1022.582 352.641)" style="fill:#263238"/>
                <path data-name="路径 16411" d="M298.16 136.36a10.423 10.423 0 0 1-2.036.666c-1.271.352-3.062.766-5.037 1.11s-3.828.536-5.121.628a9.842 9.842 0 0 1-2.136.038 14.17 14.17 0 0 1 2.113-.322c1.3-.161 3.1-.406 5.075-.766s3.759-.7 5.045-.98a11.559 11.559 0 0 1 2.097-.374z" transform="translate(1021.716 346.868)" style="fill:#263238"/>
                <path data-name="路径 16412" d="M314.489 133.839a12.309 12.309 0 0 1-4.409 0 12.31 12.31 0 0 1 4.409 0z" transform="translate(1015.561 347.506)" style="fill:#263238"/>
            </g>
            <g>
                <path data-name="路径 16413" d="M239.783 382a8.152 8.152 0 0 1 5.359 3.429 14.338 14.338 0 0 1 2.3 6.071c.7 4.164-.429 8.9-1.975 12.83-4.249-2-6.515-6.943-7.5-9.531-1.531-4.08-1.921-12.417 1.784-12.8" transform="translate(1032.732 289.269)" style="fill:#ff725e"/>
                <path data-name="路径 16414" d="M256.017 415.321a6.928 6.928 0 0 1-.161-6.966 9.186 9.186 0 0 1 5.65-4.333 3.888 3.888 0 0 1 3.269.23 2.97 2.97 0 0 1 1.072 2.809 6.063 6.063 0 0 1-1.332 2.825c-2.22 2.863-4.884 5.221-8.5 5.435" transform="translate(1028.478 284.165)" style="fill:#ff725e"/>
                <path data-name="路径 16415" d="M254.805 429.891a3.213 3.213 0 0 1-.145-.873 55.562 55.562 0 0 1-.184-2.411 30.076 30.076 0 0 1 .482-7.961 15.089 15.089 0 0 1 3.621-7.1 9.772 9.772 0 0 1 1.883-1.531 2.5 2.5 0 0 1 .766-.4 19.569 19.569 0 0 0-2.434 2.166 15.678 15.678 0 0 0-3.4 6.966 34.121 34.121 0 0 0-.612 7.854 27.287 27.287 0 0 1 .023 3.29z" transform="translate(1028.618 282.792)" style="fill:#263238"/>
                <path data-name="路径 16416" d="M242 390.29a9.182 9.182 0 0 1 .536 1.363c.314.888.766 2.174 1.271 3.774 1.049 3.2 2.419 7.655 3.828 12.593s2.542 9.454 3.322 12.73c.39 1.638.689 2.963.88 3.889a8.61 8.61 0 0 1 .26 1.439 8.1 8.1 0 0 1-.436-1.393c-.268-1-.612-2.3-1.026-3.828-.865-3.253-2.067-7.747-3.46-12.685s-2.71-9.4-3.674-12.623l-1.125-3.828a8.915 8.915 0 0 1-.376-1.431z" transform="translate(1031.525 287.325)" style="fill:#263238"/>
                <path data-name="路径 16417" d="M244.188 421.148a16.244 16.244 0 0 0-11.605-9.186c-1.286-.245-2.871-.214-3.59.888s-.1 2.572.674 3.628a13.863 13.863 0 0 0 14.545 5.083" transform="translate(1034.65 282.273)" style="fill:#ff725e"/>
                <path data-name="路径 16418" d="M235.62 416.789a2.94 2.94 0 0 1 .85.092 6.788 6.788 0 0 1 .972.207 11.77 11.77 0 0 1 1.271.375 17.132 17.132 0 0 1 3.123 1.462 18.035 18.035 0 0 1 6.032 5.841 17.022 17.022 0 0 1 1.531 3.062 10.986 10.986 0 0 1 .421 1.255 6.679 6.679 0 0 1 .245.972 2.663 2.663 0 0 1 .107.842c-.084 0-.322-1.171-1.079-2.94a19.136 19.136 0 0 0-1.615-2.957 20.768 20.768 0 0 0-2.641-3.169 21.111 21.111 0 0 0-3.246-2.541 19.466 19.466 0 0 0-3.016-1.531c-1.775-.679-2.975-.878-2.955-.97z" transform="translate(1033.021 281.112)" style="fill:#263238"/>
            </g>
        </g>
    </g>
</svg>
