<svg xmlns="http://www.w3.org/2000/svg" width="470" height="260" viewBox="0 0 470 260">
    <defs>
        <clipPath id="j6tnxdxd8a">
            <path data-name="矩形 8629" transform="translate(1047 444)" style="stroke:#707070;fill:#fff" d="M0 0h470v260H0z"/>
        </clipPath>
    </defs>
    <g data-name="蒙版组 2346" transform="translate(-1047 -444)" style="clip-path:url(#j6tnxdxd8a)">
        <g data-name="Startup life-pana">
            <g transform="translate(1130.493 364.705)">
                <path data-name="路径 16419" d="M422.983 132.121a3.9 3.9 0 0 1 1.22.382 5.222 5.222 0 0 1 2.106 7.49 4.953 4.953 0 0 1-.992 1.155 4.879 4.879 0 0 1-1.342.813 5.343 5.343 0 0 1-3.253.325 5.278 5.278 0 0 1-2.83-1.7 4.807 4.807 0 0 1-.813-1.342 4.726 4.726 0 0 1-.4-1.464 5.254 5.254 0 0 1 .4-2.757 5.164 5.164 0 0 1 4.7-3.115 3.821 3.821 0 0 1 1.269.171c0 .041-.455-.089-1.261-.057a5.131 5.131 0 0 0-3.115 1.228 4.985 4.985 0 0 0-1.374 1.87 5.115 5.115 0 0 0-.35 2.627 4.759 4.759 0 0 0 .39 1.383 4.684 4.684 0 0 0 .813 1.269 4.953 4.953 0 0 0 2.676 1.626 5.026 5.026 0 0 0 3.1-.3 4.529 4.529 0 0 0 1.269-.813 4.44 4.44 0 0 0 .943-1.09 5.01 5.01 0 0 0 .813-2.521 5.1 5.1 0 0 0-2.732-4.717c-.781-.349-1.245-.422-1.237-.463z" transform="translate(-129.614 -43.553)" style="fill:#e0e0e0"/>
                <path data-name="路径 16420" d="M424.918 124.477a1.434 1.434 0 0 1 0-.179v-2.724l.041.049-4.692-1.025.081-.041-1.236 2.627v.049h-.057a11.718 11.718 0 0 0-3.058.545h-.1l-2.139-2.057h.163l-4.066 2.586v-.146l.976 2.732v.065l-.049.057a11.928 11.928 0 0 0-1.782 2.536v.065h-2.976l.122-.106c-.325 1.472-.683 3.058-1.041 4.692l-.073-.155 2.619 1.236h.073v.081a11.839 11.839 0 0 0 .529 3.05v.081l-.065.065-2.049 2.058v-.179l2.57 4.066-.171-.065 2.732-.976h.081l.073.057a11.491 11.491 0 0 0 2.521 1.781c.041.057-.073-.13.081.13v2.9l-.114-.146 4.684 1.057-.163.081c.415-.886.813-1.757 1.244-2.627l.041-.073h.089a11.58 11.58 0 0 0 3.042-.529h.081l.065.065 2.057 2.049h-.179l4.066-2.562-.057.155-.976-2.732v-.073l.057-.065a11.71 11.71 0 0 0 1.789-2.529v-.065h2.976l-.114.1c.374-1.626.724-3.2 1.057-4.692l.065.13-2.619-1.252h-.057v-.065a11.555 11.555 0 0 0-.52-3.058v-.1c.748-.748 1.415-1.423 2.057-2.058v.114l-2.554-4.066h.081l-2.741.951a12.764 12.764 0 0 0-1.862-1.431l-.5-.3-.163-.106.179.081.512.277a11.758 11.758 0 0 1 1.9 1.415h-.049l2.724-.992h.049v.049l2.586 4.066.041.065-.049.049-1.952 1.968v-.1a11.646 11.646 0 0 1 .545 3.115l-.057-.089 2.627 1.236.081.041v.089c-.325 1.48-.675 3.033-1.041 4.684v.1h-3.017l.114-.065a12.2 12.2 0 0 1-1.822 2.594v-.138c.317.895.651 1.805.976 2.732l.041.106-.1.057-4.066 2.578-.1.057-.081-.081-2.041-2.025h.146a11.808 11.808 0 0 1-3.123.545l.122-.081c-.407.862-.813 1.74-1.244 2.619l-.049.106h-.114l-4.684-1h-.114v-3.023c.155.26.041.073.081.13a11.793 11.793 0 0 1-2.586-1.822h.146l-2.732.968-.114.041-.057-.1-2.57-4.066-.065-.1.081-.081 2.049-2.058v.146a12.067 12.067 0 0 1-.545-3.123l.081.122-2.6-1.285-.1-.049v-.106l1.057-4.684v-.106h3l-.114.065a12.085 12.085 0 0 1 1.83-2.578v.122l-.968-2.741v-.081l.081-.057 4.066-2.562h.073l.057.057 2.057 2.058h-.1a11.735 11.735 0 0 1 3.107-.529l-.073.049c.455-.943.878-1.83 1.252-2.619v-.051h.057l4.676 1.082h.041v2.708a1.761 1.761 0 0 1-.048.187z" transform="translate(-127.418 -41.423)" style="fill:#e0e0e0"/>
                <path data-name="路径 16421" d="M444.991 402.161V398.7c0-2.253 0-5.563-.041-9.808 0-8.482-.041-20.721-.065-35.734l.13.13-84.683.041.179-.171v49l-.163-.163 60.912.073 17.493.049h.065l-17.46.049-60.993.073h-.155V353h85v.138c0 15.053-.049 27.309-.065 35.783v12.3a2.637 2.637 0 0 1-.154.94z" transform="translate(-119.075 -84.843)" style="fill:#e0e0e0"/>
                <path data-name="路径 16422" d="M445.077 360.451c0 .1-18.94.171-42.289.171s-42.289-.073-42.289-.171 18.932-.171 42.289-.171 42.289.073 42.289.171z" transform="translate(-119.129 -86.203)" style="fill:#e0e0e0"/>
                <path data-name="矩形 10004" transform="translate(248.56 282.331)" style="fill:#f5f5f5" d="M0 0h26.162v26.162H0z"/>
                <path data-name="路径 16423" d="M448.211 375.706a1.417 1.417 0 0 1-.382 0h-1.106l-4.066.049-13.386.057-13.386-.057-4.066-.049h-1.106a1.417 1.417 0 0 1-.382 0 1.747 1.747 0 0 1 .382 0h1.106l4.066-.057 13.386-.049 13.386.049 4.066.057h1.106a1.745 1.745 0 0 1 .382 0z" transform="translate(-128.436 -89.064)" style="fill:#e0e0e0"/>
                <path data-name="路径 16424" d="M449.052 382.886a1.787 1.787 0 0 1-.39 0h-1.13l-4.148.057-13.679.049-13.687-.049-4.148-.057h-1.13a1.788 1.788 0 0 1-.39 0 1.447 1.447 0 0 1 .39-.041h1.13l4.148-.049 13.687-.057 13.679.057 4.148.049h1.13a1.449 1.449 0 0 1 .39.041z" transform="translate(-128.439 -90.398)" style="fill:#e0e0e0"/>
                <path data-name="路径 16425" d="M449.052 390.076a1.448 1.448 0 0 1-.39 0h-1.13l-4.148.049-13.679.057-13.687-.057-4.148-.049h-1.13a1.448 1.448 0 0 1-.39 0 1.789 1.789 0 0 1 .39 0h1.13l4.148-.057 13.687-.049 13.7.024 4.148.057h1.13a1.788 1.788 0 0 1 .369.025z" transform="translate(-128.439 -91.748)" style="fill:#e0e0e0"/>
                <path data-name="路径 16426" d="M449.052 397.256a1.791 1.791 0 0 1-.39 0h-1.13l-4.148.057-13.679.049-13.687-.049-4.148-.057h-1.13a1.791 1.791 0 0 1-.39 0 1.447 1.447 0 0 1 .39-.041h1.13l4.148-.049 13.687-.057 13.679.057 4.148.049h1.13a1.446 1.446 0 0 1 .39.041z" transform="translate(-128.439 -93.081)" style="fill:#e0e0e0"/>
                <circle data-name="椭圆 548" cx="35.197" cy="35.197" r="35.197" transform="rotate(-45 75.713 -12.838)" style="fill:#f5f5f5"/>
                <path data-name="路径 16427" d="M179.233 81.047a7.58 7.58 0 0 1-1.244.081l-3.424.065c-2.9 0-6.945.073-11.507.073h-.228v-2.5c0-5.1 0-9.71.065-13.012 0-1.626.057-2.944.073-3.96a8.3 8.3 0 0 1 .089-1.448 9.476 9.476 0 0 1 .089 1.448c0 1.017 0 2.35.073 3.96 0 3.342.065 7.954.065 13.012v2.285l-.22-.228c4.562 0 8.6 0 11.507.073l3.424.073a6.571 6.571 0 0 1 1.236.073z" transform="translate(-82.213 -30.189)" style="fill:#e0e0e0"/>
                <path data-name="路径 16428" d="M163.172 48.3a9.889 9.889 0 0 1 .228 2.952 9.969 9.969 0 0 1-.228 2.96 9.97 9.97 0 0 1-.228-2.96 9.889 9.889 0 0 1 .228-2.952z" transform="translate(-82.23 -27.939)" style="fill:#e0e0e0"/>
                <path data-name="路径 16429" d="M182.053 54.13a9.515 9.515 0 0 1-1.9 2.228 9.409 9.409 0 0 1-2.22 1.895 9.572 9.572 0 0 1 1.9-2.22 9.824 9.824 0 0 1 2.22-1.9z" transform="translate(-85.033 -29.027)" style="fill:#e0e0e0"/>
                <path data-name="路径 16430" d="M193.333 66.73a12.149 12.149 0 0 1-2.44 1.626 12.387 12.387 0 0 1-2.554 1.407 7.856 7.856 0 0 1 2.318-1.8 7.612 7.612 0 0 1 2.676-1.233z" transform="translate(-86.977 -31.381)" style="fill:#e0e0e0"/>
                <path data-name="路径 16431" d="M199.372 85.361a17.753 17.753 0 0 1-4.066.228 17.753 17.753 0 0 1-4.066-.228 18.331 18.331 0 0 1 4.066-.228 18.331 18.331 0 0 1 4.066.228z" transform="translate(-87.519 -34.812)" style="fill:#e0e0e0"/>
                <path data-name="路径 16432" d="M130.742 84.7a16.314 16.314 0 0 1-3.806.228 16.371 16.371 0 0 1-3.806-.228 16.371 16.371 0 0 1 3.806-.228 16.314 16.314 0 0 1 3.806.228z" transform="translate(-74.799 -34.689)" style="fill:#e0e0e0"/>
                <path data-name="路径 16433" d="M135.972 98.68a17.4 17.4 0 0 1-2.879 2.611 17.2 17.2 0 0 1-3.164 2.253 16.613 16.613 0 0 1 2.879-2.611 16.053 16.053 0 0 1 3.164-2.253z" transform="translate(-76.069 -37.347)" style="fill:#e0e0e0"/>
                <path data-name="路径 16434" d="M148.424 109.44a26.3 26.3 0 0 1-1.96 3.391 27 27 0 0 1-2.074 3.326 19.847 19.847 0 0 1 4.034-6.717z" transform="translate(-78.769 -39.357)" style="fill:#e0e0e0"/>
                <path data-name="路径 16435" d="M163.171 121.452a18.331 18.331 0 0 1-.228-4.066 18.331 18.331 0 0 1 .228-4.066 18.33 18.33 0 0 1 .228 4.066 18.33 18.33 0 0 1-.228 4.066z" transform="translate(-82.229 -40.082)" style="fill:#e0e0e0"/>
                <path data-name="路径 16436" d="M183.214 115.5a11.678 11.678 0 0 1-3.326-2.277 12.011 12.011 0 0 1-2.708-2.976 36.548 36.548 0 0 1 3.009 2.635 37.3 37.3 0 0 1 3.025 2.618z" transform="translate(-84.893 -39.508)" style="fill:#e0e0e0"/>
                <path data-name="路径 16437" d="M193.478 104.758a14.045 14.045 0 0 1-2.676-2.342 14.044 14.044 0 0 1-2.342-2.676 14.11 14.11 0 0 1 2.667 2.35 14.11 14.11 0 0 1 2.35 2.667z" transform="translate(-87 -37.545)" style="fill:#e0e0e0"/>
                <path data-name="路径 16438" d="M135.892 70.422a10.71 10.71 0 0 1-2.358-2.033 10.711 10.711 0 0 1-2.034-2.359 10.711 10.711 0 0 1 2.358 2.033 10.71 10.71 0 0 1 2.033 2.358z" transform="translate(-76.362 -31.25)" style="fill:#e0e0e0"/>
                <path data-name="路径 16439" d="M148.294 57.406a10.166 10.166 0 0 1-2.318-1.944A10.271 10.271 0 0 1 144 53.12a10.231 10.231 0 0 1 2.31 1.984 10.19 10.19 0 0 1 1.984 2.302z" transform="translate(-78.697 -28.839)" style="fill:#e0e0e0"/>
                <g data-name="组 8643" style="opacity:.8">
                    <path data-name="路径 16440" d="M389.69 60.516a23.8 23.8 0 0 1 5.091 3.57l5.408-1.927 5.083 8.027-4.066 4.066a23.161 23.161 0 0 1 1.057 6.1l5.189 2.44-2.1 9.3h-5.692a23.274 23.274 0 0 1-3.562 5.067l1.927 5.408-8.025 5.084-4.066-4.066a23.169 23.169 0 0 1-6.1 1.065l-2.44 5.18-9.271-2.074v-5.742a23.029 23.029 0 0 1-5.067-3.57l-5.408 1.927-5.156-8 4.066-4.066a23.294 23.294 0 0 1-1.09-6.067L350.28 79.8l2.082-9.271h5.738a23.032 23.032 0 0 1 3.57-5.067l-1.927-5.408 8.027-5.083 4.066 4.066a23.292 23.292 0 0 1 6.108-1.065l2.44-5.18 9.271 2.082v5.693zm-8.173 10.914a10.182 10.182 0 1 0 6.389 4.5 10.19 10.19 0 0 0-6.389-4.5z" transform="translate(-117.221 -28.777)" style="fill:#ebebeb;fill-rule:evenodd"/>
                </g>
                <path data-name="路径 16441" d="M63.7 159.4h60.18s-5.319-9.678-20.8-8.271c-14.785 1.35-15.541-4.757-23.064-5.514S66.2 150.632 63.7 159.4z" transform="translate(-63.7 -46.1)" style="fill:#f5f5f5"/>
                <path data-name="路径 16442" d="M223.8 294.5h48.689s-4.3-7.832-16.834-6.693c-11.971 1.09-12.581-3.855-18.7-4.465S225.825 287.4 223.8 294.5z" transform="translate(-93.6 -71.824)" style="fill:#f5f5f5"/>
            </g>
            <path data-name="路径 16443" d="M394.186 444.771c0 .114-83.764.211-187.16.211s-187.176-.065-187.176-.211 83.764-.211 187.176-.211 187.16.098 187.16.211z" transform="translate(1074.982 262.762)" style="fill:#263238"/>
            <path data-name="矩形 10005" transform="translate(1330.722 463.812)" style="fill:#fff" d="M0 0h118.148v79.112H0z"/>
            <path data-name="路径 16444" d="M428.026 224.161v-5.611c0-3.66 0-9.035-.049-15.907 0-13.752-.049-33.506-.089-57.586l.171.163-118.14.049.211-.211v79.1l-.2-.2 85.122.1 24.316.049h.081l-24.275.049-85.244.1h-.2V144.74h.22l118.14.049h.171v.171c0 24.129-.065 43.915-.089 57.683 0 6.864 0 12.2-.041 15.875v4.148a8.189 8.189 0 0 1-.105 1.495z" transform="translate(1020.843 318.755)" style="fill:#ff725e"/>
            <path data-name="路径 16445" d="M309.91 153.761c0-.122 26.43-.211 59.025-.211s59.025.089 59.025.211-26.422.211-59.025.211-59.025-.056-59.025-.211z" transform="translate(1020.812 317.11)" style="fill:#ff725e"/>
            <g data-name="组 8644" style="opacity:.3">
                <path data-name="路径 16446" d="M315.2 149.211a.943.943 0 1 1-.273-.672.952.952 0 0 1 .273.672z" transform="translate(1020.178 318.098)" style="fill:#ff725e"/>
            </g>
            <g data-name="组 8645" style="opacity:.3">
                <path data-name="路径 16447" d="M319.193 149.211a.943.943 0 1 1-.273-.672.951.951 0 0 1 .273.672z" transform="translate(1019.433 318.098)" style="fill:#ff725e"/>
            </g>
            <g data-name="组 8646" style="opacity:.3">
                <path data-name="路径 16448" d="M323.123 149.211a.943.943 0 1 1-.273-.672.952.952 0 0 1 .273.672z" transform="translate(1018.699 318.098)" style="fill:#ff725e"/>
            </g>
            <path data-name="矩形 10006" transform="translate(1340.879 479.117)" style="fill:#ff725e" d="M0 0h31.513v31.513H0z"/>
            <path data-name="路径 16449" d="M422.66 174.851c0 .122-12.3.211-27.455.211s-27.455-.089-27.455-.211 12.3-.211 27.455-.211 27.455.098 27.455.211z" transform="translate(1010.01 313.171)" style="fill:#ff725e"/>
            <path data-name="路径 16450" d="M422.66 182.061c0 .114-12.3.211-27.455.211s-27.455-.1-27.455-.211 12.3-.211 27.455-.211 27.455.122 27.455.211z" transform="translate(1010.01 311.824)" style="fill:#ff725e"/>
            <path data-name="路径 16451" d="M422.66 189.261c0 .114-12.3.211-27.455.211s-27.455-.1-27.455-.211 12.3-.211 27.455-.211 27.455.089 27.455.211z" transform="translate(1010.01 310.48)" style="fill:#ff725e"/>
            <path data-name="路径 16452" d="M400.207 196.461a6.979 6.979 0 0 1-1.277.081l-3.481.065c-2.936.041-6.994.065-11.467.065s-8.539 0-11.475-.065l-3.481-.065a6.979 6.979 0 0 1-1.277-.081 6.976 6.976 0 0 1 1.277-.081l3.481-.065c2.936-.041 6.994-.065 11.475-.065s8.531 0 11.467.065l3.481.065a6.976 6.976 0 0 1 1.277.081z" transform="translate(1010.009 309.135)" style="fill:#ff725e"/>
            <g data-name="组 8647" style="opacity:.3">
                <path data-name="矩形 10007" style="fill:#ff725e" d="M0 0h14.809v14.809H0z" transform="translate(1342.847 521.26)"/>
            </g>
            <path data-name="矩形 10008" transform="translate(1369.708 521.26)" style="fill:#ff725e" d="M0 0h14.809v14.809H0z"/>
            <path data-name="矩形 10009" transform="translate(1396.57 521.26)" style="fill:#ff725e" d="M0 0h14.809v14.809H0z"/>
            <path data-name="矩形 10010" transform="translate(1423.431 521.26)" style="fill:#ff725e" d="M0 0h14.809v14.809H0z"/>
            <g data-name="组 8648" style="opacity:.3">
                <path data-name="矩形 10011" style="fill:#fff" d="M0 0h31.513v31.513H0z" transform="translate(1340.879 479.117)"/>
            </g>
            <g data-name="组 8649" style="opacity:.3">
                <path data-name="矩形 10012" style="fill:#fff" d="M0 0h14.809v14.809H0z" transform="translate(1369.708 521.26)"/>
            </g>
            <g data-name="组 8650" style="opacity:.3">
                <path data-name="矩形 10013" style="fill:#fff" d="M0 0h14.809v14.809H0z" transform="translate(1396.57 521.26)"/>
            </g>
            <g data-name="组 8651" style="opacity:.3">
                <path data-name="矩形 10014" transform="translate(1423.431 521.26)" style="fill:#fff" d="M0 0h14.809v14.809H0z"/>
            </g>
            <path data-name="矩形 10015" transform="translate(1114.643 492.308)" style="fill:#fff" d="M0 0h105.25v42.752H0z"/>
            <path data-name="路径 16453" d="M149.421 222.89V211.4c0-7.376 0-18.054-.065-31.261l.114.114-105.242.047.171-.163v42.753l-.163-.163 75.461.073 21.893.049h.073l-21.852.041-75.575.073H44V180h.171l105.242.057h.122v.114c0 13.24-.049 23.934-.065 31.334v10.678a3.479 3.479 0 0 1-.049.707z" transform="translate(1070.472 312.17)" style="fill:#ff725e"/>
            <path data-name="路径 16454" d="M44.34 187.221c0-.089 23.527-.171 52.536-.171s52.552.081 52.552.171-23.527.163-52.552.163-52.536-.074-52.536-.163z" transform="translate(1070.409 310.853)" style="fill:#ff725e"/>
            <g data-name="组 8652" style="opacity:.3">
                <path data-name="路径 16455" d="M49.409 183.914a.764.764 0 1 1-.764-.764.764.764 0 0 1 .764.764z" transform="translate(1069.747 311.582)" style="fill:#ff725e"/>
            </g>
            <g data-name="组 8653" style="opacity:.3">
                <path data-name="路径 16456" d="M52.649 183.914a.764.764 0 1 1-.764-.764.764.764 0 0 1 .764.764z" transform="translate(1069.142 311.582)" style="fill:#ff725e"/>
            </g>
            <g data-name="组 8654" style="opacity:.3">
                <path data-name="路径 16457" d="M55.8 183.914a.764.764 0 1 1-.764-.764.764.764 0 0 1 .764.764z" transform="translate(1068.554 311.582)" style="fill:#ff725e"/>
            </g>
            <path data-name="矩形 10016" transform="translate(1123.588 505.019)" style="fill:#ff725e" d="M0 0h25.422v25.422H0z"/>
            <path data-name="路径 16458" d="M151.26 204.143c0 .089-13.085.171-29.22.171s-29.22-.081-29.22-.171 13.085-.163 29.22-.163 29.22.073 29.22.163z" transform="translate(1061.355 307.692)" style="fill:#ff725e"/>
            <path data-name="路径 16459" d="M151.26 210.511c0 .089-13.085.163-29.22.163s-29.22-.073-29.22-.163 13.085-.171 29.22-.171 29.22.081 29.22.171z" transform="translate(1061.355 306.504)" style="fill:#ff725e"/>
            <path data-name="路径 16460" d="M130.433 216.9a2.808 2.808 0 0 1-.382 0h-1.1l-4.026.049-13.3.049-13.3-.049-4.065-.049h-1.1a3.022 3.022 0 0 1-.382 0 1.325 1.325 0 0 1 .382 0h1.1l4.066-.057 13.3-.049 13.3.049 4.026.057h1.1a1.276 1.276 0 0 1 .381 0z" transform="translate(1061.362 305.299)" style="fill:#ff725e"/>
            <g data-name="组 8655" style="opacity:.3">
                <path data-name="矩形 10017" style="fill:#f5f5f5" d="M0 0h25.422v25.422H0z" transform="translate(1123.588 505.019)"/>
            </g>
            <g transform="translate(1120.214 496.41)">
                <path data-name="路径 16461" d="M260.785 113.971c-1.765-1.179-4.188-.464-5.953.716s-3.253 2.789-5.245 3.554c-3.708 1.439-8.58-.268-11.459 2.44-1.83 1.74-2.017 4.6-3.416 6.709-2.358 3.546-8.019 4.879-8.5 9.108-.285 2.44 1.667 4.831 4.066 5.522a8.694 8.694 0 0 0 7.075-1.415c2.44-1.626 4.318-4.066 7.067-4.993s6.286-.155 8.507-2.114 1.887-5.579 3.481-8.084a16.265 16.265 0 0 1 3.375-3.3 6.581 6.581 0 0 0 2.537-3.879c.2-1.57-.439-4.245-1.521-4.3" transform="translate(-199.847 -85.034)" style="fill:#f5f5f5"/>
                <path data-name="路径 16462" d="M212.374 326.559c.106-.057.431.268.74.732s.48.9.382.968-.423-.26-.74-.732-.48-.903-.382-.968z" transform="translate(-197.262 -124.848)" style="fill:#263238"/>
                <path data-name="路径 16463" d="M208.1 317.54a5.213 5.213 0 0 1 .968 1.805 5.156 5.156 0 0 1 .577 1.96 9.97 9.97 0 0 1-1.545-3.765z" transform="translate(-196.469 -123.165)" style="fill:#263238"/>
                <path data-name="路径 16464" d="M205.771 307.82a9.9 9.9 0 0 1 .74 4 5.027 5.027 0 0 1-.577-1.96 5.14 5.14 0 0 1-.163-2.04z" transform="translate(-196.027 -121.35)" style="fill:#263238"/>
                <path data-name="路径 16465" d="M205.366 297.83a10.076 10.076 0 0 1-.057 4.066 4.831 4.831 0 0 1-.187-2.033 4.88 4.88 0 0 1 .244-2.033z" transform="translate(-195.906 -119.484)" style="fill:#263238"/>
                <path data-name="路径 16466" d="M206.8 288a5.074 5.074 0 0 1-.22 2.033 5.212 5.212 0 0 1-.634 1.944 5.083 5.083 0 0 1 .22-2.033A5.269 5.269 0 0 1 206.8 288z" transform="translate(-196.063 -117.648)" style="fill:#263238"/>
                <path data-name="路径 16467" d="M210.266 278.649a9.572 9.572 0 0 1-1.626 3.708 5.132 5.132 0 0 1 .642-1.944c.464-1.032.879-1.821.984-1.764z" transform="translate(-196.57 -115.901)" style="fill:#263238"/>
                <path data-name="路径 16468" d="M215.591 270.309a5.156 5.156 0 0 1-1.041 1.765 5.864 5.864 0 0 1-1.374 1.513c-.114-.073.358-.862 1.033-1.765s1.26-1.586 1.382-1.513z" transform="translate(-197.414 -114.343)" style="fill:#263238"/>
                <path data-name="路径 16469" d="M222.224 262.908c.089.081-.472.813-1.244 1.626s-1.472 1.4-1.561 1.326.472-.813 1.252-1.626 1.471-1.415 1.553-1.326z" transform="translate(-198.581 -112.96)" style="fill:#263238"/>
                <path data-name="路径 16470" d="M229.253 255.788c.089.081-.488.813-1.277 1.626s-1.5 1.383-1.578 1.3.488-.813 1.277-1.626 1.496-1.381 1.578-1.3z" transform="translate(-199.885 -111.631)" style="fill:#263238"/>
                <path data-name="路径 16471" d="M235.9 248.249a5.107 5.107 0 0 1-1.13 1.708c-.716.878-1.366 1.521-1.456 1.439a5.432 5.432 0 0 1 1.13-1.708c.704-.829 1.356-1.504 1.456-1.439z" transform="translate(-201.177 -110.224)" style="fill:#263238"/>
                <path data-name="路径 16472" d="M241.162 239.67a4.424 4.424 0 0 1-.683 1.936 4.505 4.505 0 0 1-1.179 1.683 5.806 5.806 0 0 1 .813-1.879 6.035 6.035 0 0 1 1.049-1.74z" transform="translate(-202.296 -108.622)" style="fill:#263238"/>
                <path data-name="路径 16473" d="M243.844 230a4.139 4.139 0 0 1-.041 2.049 4.294 4.294 0 0 1-.626 1.96 6.189 6.189 0 0 1 .211-2.025 6.343 6.343 0 0 1 .455-1.984z" transform="translate(-203.018 -106.816)" style="fill:#263238"/>
                <path data-name="路径 16474" d="M243.275 220.07a4.172 4.172 0 0 1 .6 1.96 4.286 4.286 0 0 1 0 2.057 6.163 6.163 0 0 1-.439-1.992 6.3 6.3 0 0 1-.163-2.025z" transform="translate(-203.035 -104.962)" style="fill:#263238"/>
                <path data-name="路径 16475" d="M239.35 210.919c.1-.065.691.642 1.228 1.626a4.269 4.269 0 0 1 .7 1.936 6.417 6.417 0 0 1-1.073-1.732 6.636 6.636 0 0 1-.854-1.83z" transform="translate(-202.305 -103.252)" style="fill:#263238"/>
                <path data-name="路径 16476" d="M232.379 203.82a4.3 4.3 0 0 1 1.757 1.065c.87.732 1.439 1.464 1.358 1.545s-.813-.5-1.626-1.22-1.562-1.292-1.489-1.39z" transform="translate(-201.003 -101.927)" style="fill:#263238"/>
                <path data-name="路径 16477" d="M223.29 199.758a4.237 4.237 0 0 1 2.017.374 4.18 4.18 0 0 1 1.83.943 6.505 6.505 0 0 1-1.968-.545 6.01 6.01 0 0 1-1.879-.773z" transform="translate(-199.306 -101.167)" style="fill:#263238"/>
                <path data-name="路径 16478" d="M213.35 199.2a4.066 4.066 0 0 1 2.009-.423 4.172 4.172 0 0 1 2.049.211 6.791 6.791 0 0 1-2.025.211 6.506 6.506 0 0 1-2.033.001z" transform="translate(-197.45 -100.977)" style="fill:#263238"/>
                <path data-name="路径 16479" d="M204.129 202.559c-.073-.1.626-.708 1.626-1.244a3.9 3.9 0 0 1 1.944-.675 7.125 7.125 0 0 1-1.749 1.041 6.79 6.79 0 0 1-1.821.878z" transform="translate(-195.727 -101.333)" style="fill:#263238"/>
                <path data-name="路径 16480" d="M197.26 209.441a4.14 4.14 0 0 1 1-1.8c.691-.9 1.407-1.5 1.488-1.415a6.529 6.529 0 0 1-1.155 1.675c-.674.865-1.235 1.599-1.333 1.54z" transform="translate(-194.445 -102.375)" style="fill:#263238"/>
                <path data-name="路径 16481" d="M193.874 218.612a4 4 0 0 1 .155-2.049 4.066 4.066 0 0 1 .813-1.9 6.742 6.742 0 0 1-.382 2 6.651 6.651 0 0 1-.586 1.952z" transform="translate(-193.8 -103.951)" style="fill:#263238"/>
                <path data-name="路径 16482" d="M194.841 228.462a4.066 4.066 0 0 1-.813-1.9 3.961 3.961 0 0 1-.163-2.049 7.36 7.36 0 0 1 .577 1.952 7.068 7.068 0 0 1 .399 1.997z" transform="translate(-193.798 -105.791)" style="fill:#263238"/>
                <path data-name="路径 16483" d="M199.6 237.171c-.089.081-.764-.553-1.423-1.48a4.286 4.286 0 0 1-.951-1.822c.106-.057.642.675 1.293 1.578a6.262 6.262 0 0 1 1.081 1.724z" transform="translate(-194.439 -107.538)" style="fill:#263238"/>
                <path data-name="路径 16484" d="M206.782 244.092a4.562 4.562 0 0 1-1.748-1.073c-.886-.708-1.5-1.4-1.415-1.488a5.993 5.993 0 0 1 1.675 1.163c.87.698 1.561 1.3 1.488 1.398z" transform="translate(-195.631 -108.97)" style="fill:#263238"/>
                <path data-name="路径 16485" d="M215.347 249.226a9.759 9.759 0 0 1-3.627-1.846 5.269 5.269 0 0 1 1.911.732 5.1 5.1 0 0 1 1.716 1.114z" transform="translate(-197.145 -110.062)" style="fill:#263238"/>
                <path data-name="路径 16486" d="M224.794 252.447a4.456 4.456 0 0 1-2.041-.244 4.351 4.351 0 0 1-1.9-.773 6.205 6.205 0 0 1 2.009.366 5.79 5.79 0 0 1 1.936.651z" transform="translate(-198.85 -110.818)" style="fill:#263238"/>
                <path data-name="路径 16487" d="M234.726 253.158a7.408 7.408 0 0 1-4.066.081 5.978 5.978 0 0 1 2.025-.179 6.189 6.189 0 0 1 2.041.1z" transform="translate(-200.683 -111.115)" style="fill:#263238"/>
                <path data-name="路径 16488" d="M244.4 250.62a7.27 7.27 0 0 1-3.822 1.374 6.082 6.082 0 0 1 1.87-.813 5.97 5.97 0 0 1 1.952-.561z" transform="translate(-202.535 -110.667)" style="fill:#263238"/>
                <path data-name="路径 16489" d="M252.879 245.15c.081.089-.537.813-1.439 1.464a4.4 4.4 0 0 1-1.781 1.017c-.065-.106.642-.667 1.529-1.35a6.425 6.425 0 0 1 1.691-1.131z" transform="translate(-204.23 -109.646)" style="fill:#263238"/>
                <path data-name="路径 16490" d="M259.567 237.589a4.407 4.407 0 0 1-1 1.789c-.675.911-1.35 1.537-1.439 1.464a6.272 6.272 0 0 1 1.106-1.716c.666-.903 1.228-1.602 1.333-1.537z" transform="translate(-205.624 -108.233)" style="fill:#263238"/>
                <path data-name="路径 16491" d="M264.111 228.59a4.31 4.31 0 0 1-.5 1.992c-.423 1.057-.919 1.838-1.025 1.781a6.05 6.05 0 0 1 .626-1.936 6.253 6.253 0 0 1 .899-1.837z" transform="translate(-206.646 -106.553)" style="fill:#263238"/>
                <path data-name="路径 16492" d="M266.273 218.8a7.758 7.758 0 0 1-.553 4.026 13.321 13.321 0 0 1 .553-4.026z" transform="translate(-207.23 -104.725)" style="fill:#263238"/>
                <path data-name="路径 16493" d="M266.122 208.808a4.88 4.88 0 0 1 .374 2.009 5.221 5.221 0 0 1-.057 2.049 10.076 10.076 0 0 1-.317-4.066z" transform="translate(-207.29 -102.857)" style="fill:#263238"/>
                <path data-name="路径 16494" d="M264 199.05a4.968 4.968 0 0 1 .74 1.911 5.051 5.051 0 0 1 .325 2.017 5.115 5.115 0 0 1-.74-1.911 5.026 5.026 0 0 1-.325-2.017z" transform="translate(-206.908 -101.036)" style="fill:#263238"/>
                <path data-name="路径 16495" d="M260.14 189.809c.106-.057.594.724 1.082 1.74a5 5 0 0 1 .634 1.952 11.955 11.955 0 0 1-1.716-3.692z" transform="translate(-206.188 -99.31)" style="fill:#263238"/>
                <path data-name="路径 16496" d="M255.22 181.1c.106-.065.642.675 1.212 1.626a5.01 5.01 0 0 1 .813 1.862 5.229 5.229 0 0 1-1.212-1.626 5.287 5.287 0 0 1-.813-1.862z" transform="translate(-205.269 -97.683)" style="fill:#263238"/>
                <path data-name="路径 16497" d="M250.26 172.409c.106-.057.626.7 1.171 1.675a5.237 5.237 0 0 1 .813 1.887 5.213 5.213 0 0 1-1.171-1.683 5 5 0 0 1-.813-1.879z" transform="translate(-204.343 -96.06)" style="fill:#263238"/>
                <path data-name="路径 16498" d="M246.35 163.21a9.8 9.8 0 0 1 1.423 3.814 4.88 4.88 0 0 1-.911-1.838 5.059 5.059 0 0 1-.512-1.976z" transform="translate(-203.613 -94.343)" style="fill:#263238"/>
                <path data-name="路径 16499" d="M244.616 153.38a5.693 5.693 0 0 1 .358 2.009 5.928 5.928 0 0 1 .073 2.033 4.318 4.318 0 0 1-.488-1.992 4.448 4.448 0 0 1 .057-2.05z" transform="translate(-203.261 -92.507)" style="fill:#263238"/>
                <path data-name="路径 16500" d="M245.317 143.43a6.148 6.148 0 0 1-.146 2.033 5.75 5.75 0 0 1-.447 1.992 4.538 4.538 0 0 1 0-2.057 4.408 4.408 0 0 1 .593-1.968z" transform="translate(-203.287 -90.649)" style="fill:#263238"/>
                <path data-name="路径 16501" d="M248.38 134a5.936 5.936 0 0 1-.651 1.936 6.091 6.091 0 0 1-.919 1.822 7.621 7.621 0 0 1 1.57-3.758z" transform="translate(-203.699 -88.888)" style="fill:#263238"/>
                <path data-name="路径 16502" d="M253.739 125.709c.089.081-.447.813-1.13 1.7s-1.261 1.626-1.358 1.521a4.31 4.31 0 0 1 1.025-1.781c.69-.895 1.381-1.514 1.463-1.44z" transform="translate(-204.528 -87.338)" style="fill:#263238"/>
                <path data-name="路径 16503" d="M261.079 119.13c.065.1-.642.675-1.521 1.358a6.059 6.059 0 0 1-1.7 1.13c-.081-.089.545-.813 1.439-1.464a4.425 4.425 0 0 1 1.781-1.025z" transform="translate(-205.761 -86.111)" style="fill:#263238"/>
                <path data-name="路径 16504" d="M269.862 114.61a6.1 6.1 0 0 1-1.814.935 5.872 5.872 0 0 1-1.919.675c-.057-.106.716-.61 1.757-1.057a4.27 4.27 0 0 1 1.976-.553z" transform="translate(-207.306 -85.266)" style="fill:#263238"/>
                <path data-name="路径 16505" d="M277.54 112.75c0 .114-.415.293-.96.39s-1.017.1-1.041 0 .407-.293.96-.4 1.041-.104 1.041.01z" transform="translate(-209.064 -84.903)" style="fill:#263238"/>
                <path data-name="路径 16506" d="M298.38 82.433a26.627 26.627 0 0 1 22.771-2.44s1.082 10.946-9.515 19.648" transform="translate(-213.33 -78.528)" style="fill:#ff725e"/>
                <path data-name="路径 16507" d="M261.35 103.122c.407.61 10.775 17.273 10.775 17.273l31.123-19.176a10.9 10.9 0 0 0 3.042-15.761 10.889 10.889 0 0 0-14.826-2.558z" transform="translate(-206.414 -78.999)" style="fill:#ff725e"/>
                <path data-name="路径 16508" d="m274.439 127.387-.7 11.727s20.168-9.759 15.134-20.624z" transform="translate(-208.728 -85.991)" style="fill:#263238"/>
                <path data-name="路径 16509" d="M273.354 95.829s-13.679-6.034-24.934 2.814l10.515 6.864z" transform="translate(-203.999 -81.384)" style="fill:#263238"/>
                <path data-name="路径 16510" d="m274.531 108.151-19.461 12.2s.667 2.1 1.187 1.919 15.069-8.783 19.811-11.589a1.464 1.464 0 0 0 .382-2.188 1.472 1.472 0 0 0-1.919-.342z" transform="translate(-205.241 -84.02)" style="fill:#263238"/>
                <circle data-name="椭圆 549" cx="6.229" cy="6.229" r="6.229" transform="rotate(-76.76 52.186 -40.547)" style="fill:#fafafa"/>
                <path data-name="路径 16511" d="M305.745 95.377a11.359 11.359 0 0 0-.276-1.5 6.164 6.164 0 0 0-2.277-3.334 6.035 6.035 0 0 0-2.562-1.114 6.116 6.116 0 0 0-3.172.277 6.017 6.017 0 0 0-2.83 9.23 6.042 6.042 0 0 0 2.8 2.114 6.124 6.124 0 0 0 3.172.276 6.034 6.034 0 0 0 2.562-1.114 6.2 6.2 0 0 0 2.277-3.334c.252-.943.228-1.5.276-1.5a1.309 1.309 0 0 1 0 .407 5.017 5.017 0 0 1-.138 1.139 6.286 6.286 0 0 1-4.936 4.749 6.407 6.407 0 1 1 2.684-11.361 6.2 6.2 0 0 1 2.31 3.562 5.018 5.018 0 0 1 .138 1.139 1.228 1.228 0 0 1-.028.364z" transform="translate(-212.327 -80.477)" style="fill:#263238"/>
                <path data-name="路径 16512" d="M315.4 97.968c-.081 0-.171-1.212-.651-3.107a24.391 24.391 0 0 0-1.082-3.253 23.8 23.8 0 0 0-4.522-7 24.063 24.063 0 0 0-2.513-2.326c-1.537-1.212-2.6-1.8-2.562-1.87a3.6 3.6 0 0 1 .773.366 9.423 9.423 0 0 1 .87.512c.325.22.708.447 1.1.756a20.163 20.163 0 0 1 2.611 2.293 21.755 21.755 0 0 1 4.6 7.124 21.081 21.081 0 0 1 1.017 3.326c.122.48.171.927.236 1.317a8.957 8.957 0 0 1 .106 1 3 3 0 0 1 .016.862z" transform="translate(-214.392 -78.879)" style="fill:#263238"/>
                <path data-name="路径 16513" d="M313.3 98.949c-.081 0-.179-1.228-.667-3.155a25.217 25.217 0 0 0-1.1-3.3 26.022 26.022 0 0 0-1.976-3.773 26.362 26.362 0 0 0-2.6-3.367 24.331 24.331 0 0 0-2.554-2.383c-1.553-1.244-2.635-1.846-2.594-1.919a3.66 3.66 0 0 1 .813.382 8.334 8.334 0 0 1 .87.529 8.841 8.841 0 0 1 1.114.813 22.323 22.323 0 0 1 2.635 2.3 24.225 24.225 0 0 1 2.676 3.408 24.78 24.78 0 0 1 1.976 3.855 21.788 21.788 0 0 1 1.033 3.383c.122.488.171.943.236 1.334a7.89 7.89 0 0 1 .114 1.017 3.935 3.935 0 0 1 .024.878z" transform="translate(-213.97 -78.999)" style="fill:#263238"/>
            </g>
            <g>
                <path data-name="矩形 10018" transform="translate(1405.995 579.806)" style="fill:#ff725e" d="M0 0h5.668v18.314H0z"/>
                <path data-name="矩形 10019" transform="translate(1416.429 572.267)" style="fill:#ff725e" d="M0 0h5.668v25.845H0z"/>
                <path data-name="矩形 10020" transform="translate(1427.53 568.745)" style="fill:#ff725e" d="M0 0h5.668v29.366H0z"/>
                <path data-name="矩形 10021" transform="translate(1438.639 565.037)" style="fill:#ff725e" d="M0 0h5.668v33.083H0z"/>
            </g>
            <g>
                <path data-name="路径 16526" d="M358.622 257.426a7.954 7.954 0 0 0 5.75-7.929c-.1-1.626-.691-3.139-.626-4.733.106-2.44 1.748-4.562 2.985-6.709s2.058-4.969.618-6.986c-.927-1.309-2.578-1.895-3.708-3.033a11.967 11.967 0 0 1-2.228-4.115 7.167 7.167 0 0 0-2.724-3.733c-1.366-.773-3.456-.439-4.017 1.033" transform="translate(1012.453 304.741)" style="fill:#263238"/>
                <path data-name="路径 16527" d="M330.264 213.883c2.44-1.553 3.025-5.14 1.7-7.7a9.448 9.448 0 0 0-6.969-4.587 13.288 13.288 0 0 0-11.442 3.79c-1.57 1.627-2.846 3.733-4.977 4.473-1.87.659-3.944.065-5.912.325a8.946 8.946 0 0 0-6.254 4.505 19.224 19.224 0 0 0-2.22 7.6c-.285 2.44-.48 5.083-2.155 6.848s-4.237 2.09-6.27 3.318a8.588 8.588 0 0 0-2.554 11.727c.813 1.171 1.968 2.253 2.057 3.676s-.748 2.44-1.147 3.708a5.79 5.79 0 0 0 4.961 7.189c1.692.1 3.5-.561 5.018.2s2.066 2.57 3.025 3.952a7.262 7.262 0 0 0 8.84 2.277c1.244-.61 2.44-1.626 3.8-1.521s2.44 1.269 3.822 1.529c1.781.342 3.464-.968 4.522-2.44s1.8-3.2 3.147-4.408c1.773-1.578 4.261-1.96 6.506-2.732a18.339 18.339 0 0 0 10.338-25.683" transform="translate(1026.043 308.166)" style="fill:#263238"/>
                <path data-name="路径 16528" d="M340.515 219.45a3.9 3.9 0 0 1 3.473 3.96L341.662 276c-.1 6.213-9.173 9.7-15.826 9.547-6.717-.155-6.929-3.448-7.018-9.36-.138-9.873-.122-13.581-.13-13.524s-8.482-1.423-10.214-12.5c-.862-5.514-.569-14.541-.089-21.917.439-6.644 4.879-14.785 11.475-14.069z" transform="translate(1021.183 305.796)" style="fill:#ffbe9d"/>
                <path data-name="路径 16529" d="M311.44 240.006a1.431 1.431 0 0 0 1.366 1.439 1.358 1.358 0 0 0 1.464-1.277 1.415 1.415 0 0 0-1.358-1.439 1.366 1.366 0 0 0-1.472 1.277z" transform="translate(1020.526 301.203)" style="fill:#263238"/>
                <path data-name="路径 16530" d="M310.835 236.928c.179.187 1.252-.61 2.781-.6s2.643.773 2.814.586-.1-.415-.586-.773a3.9 3.9 0 0 0-2.253-.7 3.716 3.716 0 0 0-2.212.708c-.471.356-.634.698-.544.779z" transform="translate(1020.644 301.817)" style="fill:#263238"/>
                <path data-name="路径 16531" d="M330.17 240.006a1.431 1.431 0 0 0 1.366 1.439 1.358 1.358 0 0 0 1.464-1.277 1.415 1.415 0 0 0-1.366-1.439 1.358 1.358 0 0 0-1.464 1.277z" transform="translate(1017.028 301.203)" style="fill:#263238"/>
                <path data-name="路径 16532" d="M329.3 237.318c.179.187 1.252-.61 2.781-.6s2.643.813 2.814.586-.1-.415-.586-.773a3.9 3.9 0 0 0-2.253-.7 3.773 3.773 0 0 0-2.212.708c-.466.361-.629.698-.544.779z" transform="translate(1017.194 301.744)" style="fill:#263238"/>
                <path data-name="路径 16533" d="M321.578 248.657a10.076 10.076 0 0 0-2.44-.455c-.39-.041-.764-.122-.813-.382a1.96 1.96 0 0 1 .268-1.155c.366-.943.756-1.936 1.155-2.968 1.626-4.229 2.781-7.71 2.611-7.766s-1.626 3.31-3.253 7.531c-.382 1.049-.756 2.041-1.106 2.993a2.228 2.228 0 0 0-.211 1.529.968.968 0 0 0 .642.569 2.693 2.693 0 0 0 .667.1 10.067 10.067 0 0 0 2.48.008z" transform="translate(1019.35 301.726)" style="fill:#263238"/>
                <path data-name="路径 16534" d="M321.11 272.912A28.2 28.2 0 0 0 335.952 269s-3.757 7.807-14.842 6.742z" transform="translate(1018.72 295.549)" style="fill:#eb996e"/>
                <path data-name="路径 16535" d="M323.2 255.873a2.765 2.765 0 0 1 2.44-1.017 2.48 2.48 0 0 1 1.732.935 1.627 1.627 0 0 1 .122 1.822 1.871 1.871 0 0 1-2.009.5 5.953 5.953 0 0 1-1.952-1.171 1.9 1.9 0 0 1-.431-.455.512.512 0 0 1 0-.569" transform="translate(1018.365 298.194)" style="fill:#ff725e"/>
                <path data-name="路径 16536" d="M326.879 252.89c-.252 0-.26 1.626-1.683 2.822s-3.188.984-3.2 1.22c0 .1.39.317 1.139.342a4.066 4.066 0 0 0 2.667-.927 3.578 3.578 0 0 0 1.3-2.358c.062-.689-.125-1.107-.223-1.099z" transform="translate(1018.554 298.558)" style="fill:#263238"/>
                <path data-name="路径 16537" d="M328.468 234.109c.146.415 1.675.22 3.464.439s3.253.716 3.481.342c.114-.179-.138-.569-.724-.976a6.124 6.124 0 0 0-5.294-.594c-.658.26-.995.594-.927.789z" transform="translate(1017.347 302.278)" style="fill:#263238"/>
                <path data-name="路径 16538" d="M311.532 231.473c.268.35 1.326 0 2.586 0s2.342.236 2.586-.122c.114-.179-.057-.529-.529-.854a3.716 3.716 0 0 0-4.164.122c-.447.325-.593.681-.479.854z" transform="translate(1020.516 302.848)" style="fill:#263238"/>
                <path data-name="路径 16539" d="M338.478 215.793a10.759 10.759 0 0 1 8.775-1.626 7.432 7.432 0 0 1 5.506 6.506c.065 1.952-.813 4.066.089 5.8s2.854 2.358 4.3 3.578a6.6 6.6 0 0 1 1.529 7.986c-1.212 2.22-3.749 3.847-3.96 6.351-.2 2.358 1.781 4.351 2.269 6.669.529 2.554-.886 5.2-2.911 6.9a22.6 22.6 0 0 1-7.1 3.529c-1.952.708-4.066 1.423-6.075.96a6.221 6.221 0 0 1-4.554-5.188 8.466 8.466 0 0 1 2.3-6.685c1.423-1.57 3.424-2.9 3.765-4.969.529-3.253-3.31-5.863-3.074-9.116.122-1.675 1.309-3.066 2.293-4.448s1.846-3.115 1.236-4.684c-.813-2.049-3.473-2.586-5.1-4.066a4.969 4.969 0 0 1-1.358-5.034 5.123 5.123 0 0 1 4.017-3.424" transform="translate(1015.901 305.85)" style="fill:#263238"/>
                <path data-name="路径 16540" d="M332.678 212.423a7.571 7.571 0 0 1-8.946 7.482c-1.692-.309-3.546-1.163-5.01-.26s-1.626 3.253-2.968 4.448c-1.952 1.7-5.05.106-7.531.813-1.911.569-3.107 2.391-4.383 3.936s-3.172 3-5.091 2.44a22.47 22.47 0 0 1 .764-5.107 7.555 7.555 0 0 1 2.9-4.156 27.918 27.918 0 0 0 2.44-1.431c1.627-1.277 1.96-3.513 2.936-5.3a8.311 8.311 0 0 1 6.327-4.2c2.179-.22 4.424.431 6.506-.106 1.57-.39 2.944-1.407 4.53-1.716 3.1-.586 5.977 1.626 8.222 3.847" transform="translate(1022.896 306.723)" style="fill:#263238"/>
                <path data-name="路径 16541" d="M361.01 240.2a2.326 2.326 0 0 0 .252-1.277 3.253 3.253 0 0 0-2.236-2.562 16.59 16.59 0 0 0-2.44-.659 7.083 7.083 0 0 1-2.757-1.139 3.855 3.855 0 0 1-1.431-2.96 29.41 29.41 0 0 1 .171-3.481 7.892 7.892 0 0 0-.089-1.708 3.644 3.644 0 0 0-.651-1.456 5.579 5.579 0 0 0-2.667-1.529 11.556 11.556 0 0 1-2.716-1.171 9.06 9.06 0 0 1-2-1.626 9.3 9.3 0 0 1-1.952-3.155 5.7 5.7 0 0 1-.285-.968c-.049-.228-.065-.342-.049-.35s.146.464.48 1.261a9.848 9.848 0 0 0 6.644 5.652 5.863 5.863 0 0 1 2.863 1.627 4.066 4.066 0 0 1 .748 1.626 8.384 8.384 0 0 1 .1 1.805 31.887 31.887 0 0 0-.179 3.44 3.473 3.473 0 0 0 1.261 2.684 6.855 6.855 0 0 0 2.594 1.1 16.029 16.029 0 0 1 2.44.724 3.952 3.952 0 0 1 1.724 1.285 3 3 0 0 1 .561 1.521 1.992 1.992 0 0 1-.2 1.008c-.081.226-.178.316-.186.308z" transform="translate(1014.79 305.418)" style="fill:#455a64"/>
                <path data-name="路径 16542" d="m284.969 244.891-.187-.089a1.31 1.31 0 0 1-.415-.415 2.236 2.236 0 0 1 .228-2.188 2.871 2.871 0 0 1 1.187-1.139 15.237 15.237 0 0 1 1.781-.748 5.554 5.554 0 0 0 1.862-1.057 4.066 4.066 0 0 0 1.065-2.1c.179-.813.236-1.74.39-2.684a5.847 5.847 0 0 1 1.1-2.8c1.285-1.692 3.4-2.594 4.977-4.188a7.775 7.775 0 0 0 1.732-2.936 20.462 20.462 0 0 0 .813-3.546c.342-2.44.691-5.156 2.326-7.384a5.368 5.368 0 0 1 3.342-2.155 11.743 11.743 0 0 1 3.855.089 13.62 13.62 0 0 0 3.6.211 4.684 4.684 0 0 0 2.944-1.521c1.513-1.626 2.375-3.822 4.237-4.945a7.075 7.075 0 0 1 5.6-.773 6.213 6.213 0 0 1 3.676 2.863 6.945 6.945 0 0 1 .96 3.416 6.059 6.059 0 0 1-.35 2.212 3.6 3.6 0 0 1-.333.716s.1-.252.252-.74a6.507 6.507 0 0 0 .268-2.179 6.912 6.912 0 0 0-.992-3.3 5.977 5.977 0 0 0-3.562-2.692 6.766 6.766 0 0 0-5.327.813 7.8 7.8 0 0 0-2.139 2.2 25.427 25.427 0 0 1-2 2.708 5.6 5.6 0 0 1-1.415 1.114 5.367 5.367 0 0 1-1.765.545 14.2 14.2 0 0 1-3.708-.2 11.386 11.386 0 0 0-3.716-.1 5 5 0 0 0-3.082 2 10.271 10.271 0 0 0-1.586 3.473 34.4 34.4 0 0 0-.675 3.725 20.4 20.4 0 0 1-.813 3.611 8.027 8.027 0 0 1-1.838 3.074c-1.667 1.626-3.757 2.537-4.977 4.139a5.6 5.6 0 0 0-1.057 2.627c-.155.927-.22 1.838-.423 2.7a4.2 4.2 0 0 1-1.171 2.228 5.693 5.693 0 0 1-1.96 1.082 15.457 15.457 0 0 0-1.773.708 2.789 2.789 0 0 0-1.139 1.041 2.2 2.2 0 0 0-.293 2.066 1.911 1.911 0 0 0 .5.512z" transform="translate(1025.617 307.639)" style="fill:#455a64"/>
                <path data-name="路径 16543" d="m250.655 338.5 19.64-1.8s12.085-31.838 26.983-39.556l9.653 16.859-20.665 38.816H245.93z" transform="translate(1032.761 290.292)" style="fill:#ff725e"/>
                <path data-name="路径 16544" d="m250.655 338.5 19.64-1.8s12.085-31.838 26.983-39.556l9.653 16.859-20.665 38.816H245.93z" transform="translate(1032.761 290.292)" style="opacity:.3"/>
                <path data-name="路径 16545" d="M261.28 357.588a29.4 29.4 0 0 1 3.676-6.148 30.97 30.97 0 0 1-3.676 6.148z" transform="translate(1029.894 280.153)" style="fill:#fafafa"/>
                <path data-name="路径 16546" d="M277.363 357.254a30.26 30.26 0 0 1-4.473-5.554 14.142 14.142 0 0 1 2.4 2.643 15.455 15.455 0 0 1 2.074 2.911z" transform="translate(1027.726 280.105)" style="fill:#fafafa"/>
                <path data-name="路径 16547" d="M281.311 348.376a15.818 15.818 0 0 1 0-5.156 15.818 15.818 0 0 1 0 5.156z" transform="translate(1026.192 281.688)" style="fill:#fafafa"/>
                <path data-name="路径 16548" d="M272.054 363.021a5.222 5.222 0 0 1-1.879-.968c-.976-.642-1.708-1.236-1.626-1.334a5.5 5.5 0 0 1 1.879.976c.926.635 1.691 1.229 1.626 1.326z" transform="translate(1028.538 278.42)" style="fill:#fafafa"/>
                <path data-name="路径 16549" d="M286.018 327.57a17.42 17.42 0 0 1-1.358 3.546 17.167 17.167 0 0 1-1.74 3.375 16.542 16.542 0 0 1 1.35-3.546 17.445 17.445 0 0 1 1.748-3.375z" transform="translate(1025.852 284.611)" style="fill:#fafafa"/>
                <path data-name="路径 16550" d="M295.738 311.71c.065.089-.634.74-1.57 1.456a5.572 5.572 0 0 1-1.83 1.114c-.065-.1.634-.748 1.57-1.456a5.408 5.408 0 0 1 1.83-1.114z" transform="translate(1024.094 287.573)" style="fill:#fafafa"/>
                <path data-name="路径 16551" d="m332.64 350.646 10.133-40.914a13.906 13.906 0 0 1 15.972-10.353 13.931 13.931 0 0 1 11.288 15.834l-6.2 39.987a20.006 20.006 0 0 1-16.606 16.208l-8.051 1.252z" transform="translate(1016.567 289.918)" style="fill:#ff725e"/>
                <path data-name="路径 16552" d="M367.27 295.613a9.223 9.223 0 0 0-3.619-1.814 9.621 9.621 0 0 0-4.359 0 11.8 11.8 0 0 0-4.741 2.44 23.018 23.018 0 0 0-5.693 7.986c-.545 1.147-.96 2.09-1.252 2.741a6.163 6.163 0 0 1-.5 1 5.783 5.783 0 0 1 .342-1.057c.252-.675.618-1.626 1.13-2.814a32.474 32.474 0 0 1 2.082-3.993 17.819 17.819 0 0 1 3.6-4.188 11.873 11.873 0 0 1 4.92-2.529 9.653 9.653 0 0 1 4.522.057 7.766 7.766 0 0 1 2.749 1.326 5 5 0 0 1 .61.561 2.385 2.385 0 0 1 .209.284z" transform="translate(1013.864 291.04)" style="fill:#263238"/>
                <path data-name="路径 16553" d="M298.271 307.5a2.162 2.162 0 0 1-.285.382l-.862 1.041c-.756.9-1.822 2.22-3.042 3.92a41.907 41.907 0 0 0-6.921 14.687c-1.407 6.238-1.48 12.077-1.716 16.265-.106 2.1-.2 3.8-.293 4.969-.049.553-.089 1-.122 1.35a3.2 3.2 0 0 1-.065.472 1.626 1.626 0 0 1 0-.472c0-.358 0-.813.041-1.358 0-1.228.089-2.911.155-4.969.163-4.18.179-10.044 1.626-16.346a40.4 40.4 0 0 1 7.083-14.76 52.676 52.676 0 0 1 3.155-3.863c.39-.439.716-.764.927-.984a2.559 2.559 0 0 1 .317-.333z" transform="translate(1025.473 288.359)" style="fill:#263238"/>
                <path data-name="路径 16554" d="M363.029 301.536c-1.114-7.319-5.148-9.068-9.336-11.345-1.366-.748-7.962-2.44-13.191-3.717-.5-3.164-1.4-8.84-1.626-10.035-.276-1.683-26.642 2.521-26.975 3.155-.22.415-.813 6.986-1.212 11.385l-6.311 2.2-8.206 10.475-4.286 6.083a32.725 32.725 0 0 0-5.31 11.694A63.643 63.643 0 0 0 285.4 335.6l-1.28 26.84 55.2 15.6 4.229-27.211 14.232-19.371c1.219-7.834 6.619-20.928 5.248-29.922z" transform="translate(1025.628 294.234)" style="fill:#ff725e"/>
                <path data-name="路径 16555" d="M322.944 292.51a8.3 8.3 0 0 1-.366-1.862 147.859 147.859 0 0 1-.586-4.53c-.1-.878-.187-1.716-.276-2.5a20.327 20.327 0 0 1-.146-2.066 2.44 2.44 0 0 1 .4-1.374c.211-.276.39-.35.407-.333s-.122.146-.268.423a2.66 2.66 0 0 0-.236 1.285c0 .569.146 1.252.236 2.025s.2 1.626.309 2.5c.2 1.773.366 3.383.464 4.546a8.263 8.263 0 0 1 .065 1.895z" transform="translate(1018.634 293.525)" style="fill:#263238"/>
                <path data-name="路径 16556" d="M331.575 290.6a6.458 6.458 0 0 1-.586-1.708 26.952 26.952 0 0 1-.813-8.637 6.636 6.636 0 0 1 .26-1.781c.13 0-.106 2.741.211 6.091s1.053 5.998.928 6.035z" transform="translate(1017.039 293.781)" style="fill:#263238"/>
                <path data-name="路径 16557" d="M347.527 288.283a28.244 28.244 0 0 0-.155-6.067 26.962 26.962 0 0 0-1.9-5.766 5.3 5.3 0 0 1 .968 1.537 15.452 15.452 0 0 1 1.48 8.531 5.856 5.856 0 0 1-.393 1.765z" transform="translate(1014.171 294.158)" style="fill:#263238"/>
                <path data-name="路径 16558" d="M302 318.979a25.208 25.208 0 0 1 4.839-6.449q-2.261 3.341-4.839 6.449z" transform="translate(1022.289 287.42)" style="fill:#fafafa"/>
                <path data-name="路径 16559" d="M316.3 306.782a26.026 26.026 0 0 1-4.066-5.3 13.938 13.938 0 0 1 2.184 2.518 13.387 13.387 0 0 1 1.882 2.782z" transform="translate(1020.379 289.484)" style="fill:#fafafa"/>
                <path data-name="路径 16560" d="M331.976 300.22a23.324 23.324 0 0 1-2.594 2.627 24.561 24.561 0 0 1-2.692 2.529 12.5 12.5 0 0 1 2.4-2.83 12.2 12.2 0 0 1 2.886-2.326z" transform="translate(1017.678 289.719)" style="fill:#fafafa"/>
                <path data-name="路径 16561" d="M327.843 289.916a7.6 7.6 0 0 1-2.025-1.545 7.97 7.97 0 0 1-1.748-1.87 8.083 8.083 0 0 1 2.033 1.553 7.84 7.84 0 0 1 1.74 1.862z" transform="translate(1018.167 292.281)" style="fill:#fafafa"/>
                <path data-name="路径 16562" d="M341.423 283.24a9.613 9.613 0 0 1-2.741.813 9.937 9.937 0 0 1-2.822.39 9.805 9.805 0 0 1 2.732-.813 9.979 9.979 0 0 1 2.83-.39z" transform="translate(1015.966 292.89)" style="fill:#fafafa"/>
                <path data-name="路径 16563" d="M345.4 304.083a9.556 9.556 0 0 1-.358-2.838 9.873 9.873 0 0 1 .065-2.854 9.556 9.556 0 0 1 .358 2.838 9.875 9.875 0 0 1-.065 2.855z" transform="translate(1014.264 290.061)" style="fill:#fafafa"/>
                <path data-name="路径 16564" d="M339.836 314.463a15.208 15.208 0 0 1-1.431-3.253 15.694 15.694 0 0 1-1.025-3.44 31.048 31.048 0 0 1 2.44 6.725z" transform="translate(1015.682 288.309)" style="fill:#fafafa"/>
                <path data-name="路径 16565" d="M325.913 321.933a16.866 16.866 0 0 1-1.561-3.44 16.526 16.526 0 0 1-1.171-3.6 17.622 17.622 0 0 1 1.561 3.448 17.25 17.25 0 0 1 1.171 3.595z" transform="translate(1018.334 286.979)" style="fill:#fafafa"/>
                <path data-name="路径 16566" d="M313.175 330.476a28.879 28.879 0 0 1-1.415-6.9 14.85 14.85 0 0 1 .911 3.408 15.005 15.005 0 0 1 .5 3.489z" transform="translate(1020.466 285.356)" style="fill:#fafafa"/>
                <path data-name="路径 16567" d="M297.305 330.973a28.892 28.892 0 0 1-3.025-6.213 28.893 28.893 0 0 1 3.025 6.213z" transform="translate(1023.731 285.136)" style="fill:#fafafa"/>
                <path data-name="路径 16568" d="M296.109 342.34a18.109 18.109 0 0 1-3.3 1.862 16.956 16.956 0 0 1-3.5 1.488 17.242 17.242 0 0 1 3.31-1.87 17.015 17.015 0 0 1 3.489-1.48z" transform="translate(1024.659 281.853)" style="fill:#fafafa"/>
                <path data-name="路径 16569" d="M297.486 356.659a9.165 9.165 0 0 1-1.147-2.968 9.067 9.067 0 0 1-.48-3.131 16.674 16.674 0 0 1 .886 3.025 16.926 16.926 0 0 1 .741 3.074z" transform="translate(1023.436 280.317)" style="fill:#fafafa"/>
                <path data-name="路径 16570" d="M293.5 368.047a14.7 14.7 0 0 1-2.651-2.147 13.389 13.389 0 0 1-2.367-2.44 14.7 14.7 0 0 1 2.651 2.147 13.388 13.388 0 0 1 2.367 2.44z" transform="translate(1024.814 277.908)" style="fill:#fafafa"/>
                <path data-name="路径 16571" d="M313.249 361.56c0 .122-1.838.659-4.017 1.626s-3.839 1.96-3.912 1.854a12.88 12.88 0 0 1 3.741-2.245 12.678 12.678 0 0 1 4.188-1.236z" transform="translate(1021.669 278.263)" style="fill:#fafafa"/>
                <path data-name="路径 16572" d="M308.639 354.779a11.148 11.148 0 0 1-1.2-2.789 10.847 10.847 0 0 1-.813-2.92 11 11 0 0 1 1.187 2.781 10.712 10.712 0 0 1 .821 2.928z" transform="translate(1021.424 280.596)" style="fill:#fafafa"/>
                <path data-name="路径 16573" d="M320.106 342.57a23.728 23.728 0 0 1-2.22 3.928 24.481 24.481 0 0 1-2.586 3.741 48.8 48.8 0 0 1 4.806-7.628z" transform="translate(1019.805 281.81)" style="fill:#fafafa"/>
                <path data-name="路径 16574" d="M333.152 342.065a16.379 16.379 0 0 1-2.708-3.692 16.752 16.752 0 0 1-1.984-4.123c.114-.049 1.057 1.757 2.35 3.912s2.44 3.838 2.342 3.903z" transform="translate(1017.347 283.364)" style="fill:#fafafa"/>
                <path data-name="路径 16575" d="M340.569 331a8.052 8.052 0 0 1-3.1.553 8.133 8.133 0 0 1-3.131-.244 20.861 20.861 0 0 1 3.115-.179 21.712 21.712 0 0 1 3.115-.13z" transform="translate(1016.249 283.973)" style="fill:#fafafa"/>
                <path data-name="路径 16576" d="M358.662 316.39a47.265 47.265 0 0 1-8.132 3.887 48.918 48.918 0 0 1 8.132-3.887z" transform="translate(1013.226 286.699)" style="fill:#fafafa"/>
                <path data-name="路径 16577" d="M361.76 305.6a31.486 31.486 0 0 1 3.253-6.506 15.455 15.455 0 0 1-1.431 3.342 16.057 16.057 0 0 1-1.822 3.163z" transform="translate(1011.128 289.93)" style="fill:#fafafa"/>
                <path data-name="路径 16578" d="M372.986 312.681a100.1 100.1 0 0 1-2.326-7.441 21.819 21.819 0 0 1 2.326 7.441z" transform="translate(1009.466 288.781)" style="fill:#fafafa"/>
                <path data-name="路径 16579" d="M373.687 324.07a12.68 12.68 0 0 1-3.57 1.3 12.271 12.271 0 0 1-3.757.577 27.531 27.531 0 0 1 3.651-.984 27.829 27.829 0 0 1 3.676-.893z" transform="translate(1010.269 285.265)" style="fill:#fafafa"/>
                <path data-name="路径 16580" d="M355.2 333.836c-.122 0 .228-2 .325-4.465s-.065-4.465.057-4.481a13.385 13.385 0 0 1 .366 4.5 13.2 13.2 0 0 1-.748 4.446z" transform="translate(1012.358 285.112)" style="fill:#fafafa"/>
                <path data-name="路径 16581" d="M349.976 346.6a20.014 20.014 0 0 1-5.286-6.376c.106-.065 1.179 1.439 2.643 3.2a39.034 39.034 0 0 1 2.643 3.18z" transform="translate(1014.316 282.249)" style="fill:#fafafa"/>
                <path data-name="路径 16582" d="M369.805 345.484a16.476 16.476 0 0 1-3.391 1.626 17.185 17.185 0 0 1-3.554 1.252 34.2 34.2 0 0 1 6.945-2.9z" transform="translate(1010.923 281.27)" style="fill:#fafafa"/>
                <path data-name="路径 16583" d="M364.122 366.336a48.348 48.348 0 0 1 .089-8.946 46.533 46.533 0 0 1-.089 8.946z" transform="translate(1010.718 279.042)" style="fill:#fafafa"/>
                <path data-name="路径 16584" d="M348.65 365a26.024 26.024 0 0 1 2.253-9c.114.041-.5 2.017-1.122 4.5s-1.009 4.527-1.131 4.5z" transform="translate(1013.577 279.302)" style="fill:#fafafa"/>
                <path data-name="路径 16585" d="M347.3 373.07c0 .122-2.017.317-4.489.732a44.745 44.745 0 0 1-4.489.748 16.573 16.573 0 0 1 4.416-1.171 16.189 16.189 0 0 1 4.562-.309z" transform="translate(1015.506 276.122)" style="fill:#fafafa"/>
                <path data-name="路径 16586" d="M332.2 368.01a16.8 16.8 0 0 1 2.44-2.806 16.011 16.011 0 0 1 2.716-2.5 16.8 16.8 0 0 1-2.44 2.806 16.37 16.37 0 0 1-2.716 2.5z" transform="translate(1016.649 278.05)" style="fill:#fafafa"/>
                <path data-name="路径 16587" d="M320.576 378.541a27.46 27.46 0 0 1-1.1-3.18 28.778 28.778 0 0 1-1.139-3.172 13.012 13.012 0 0 1 2.239 6.352z" transform="translate(1019.237 276.278)" style="fill:#fafafa"/>
                <path data-name="路径 16588" d="M337.164 385.406a44.981 44.981 0 0 1-7.994-3.546 22.925 22.925 0 0 1 4.066 1.578 23.752 23.752 0 0 1 3.928 1.968z" transform="translate(1017.215 274.472)" style="fill:#fafafa"/>
                <path data-name="路径 16589" d="M307.76 383.075a10.979 10.979 0 0 1 .764-2.977 11.321 11.321 0 0 1 1.163-2.838 11.052 11.052 0 0 1-.764 2.976 11.867 11.867 0 0 1-1.163 2.838z" transform="translate(1021.213 275.331)" style="fill:#fafafa"/>
                <path data-name="路径 16590" d="M325.964 387.693c0 .122-2.334-.252-5.213-.4s-5.213 0-5.221-.163a18.518 18.518 0 0 1 5.245-.26 18.292 18.292 0 0 1 5.189.823z" transform="translate(1019.762 273.551)" style="fill:#fafafa"/>
                <path data-name="路径 16591" d="M332.637 350.831a1.145 1.145 0 0 1 0-.325 3 3 0 0 1 .138-.919 2.017 2.017 0 0 1 .878-1.212 2.838 2.838 0 0 1 1.984-.325l-.163.1c.886-3.123 2.31-7.677 3.733-12.784 1.334-4.782 2.236-9.182 2.863-12.378.309-1.537.553-2.814.748-3.782a10.075 10.075 0 0 1 .317-1.374 8.042 8.042 0 0 1-.155 1.407c-.13.9-.342 2.2-.618 3.806a125.1 125.1 0 0 1-2.749 12.434c-1.423 5.115-2.9 9.653-3.871 12.752l-.041.122h-.122a2.611 2.611 0 0 0-1.814.244 1.952 1.952 0 0 0-.854 1.065 9.535 9.535 0 0 0-.274 1.169z" transform="translate(1016.57 286.43)" style="fill:#263238"/>
                <path data-name="路径 16592" d="M351.491 369.08c-.065 0-.569-1.073-1.626-2.716a28.065 28.065 0 0 0-11.06-10.052c-1.732-.87-2.879-1.269-2.854-1.342a3.968 3.968 0 0 1 .813.22 18.2 18.2 0 0 1 2.155.854 25.39 25.39 0 0 1 11.19 10.166 18.388 18.388 0 0 1 1.049 2.066 2.716 2.716 0 0 1 .333.805z" transform="translate(1015.949 279.494)" style="fill:#263238"/>
                <g data-name="组 8659" style="opacity:.2">
                    <path data-name="路径 16593" d="M1352.389 633.87a28.35 28.35 0 0 1 8.572 1.553 11.017 11.017 0 0 1 6.693 6.116 1.992 1.992 0 0 1-.155 2.106 1.5 1.5 0 0 1-1.537.252 4.009 4.009 0 0 1-1.35-.927c-1.789-1.626-3.651-3.123-5.5-4.717a15.635 15.635 0 0 0-6.953-3.635"/>
                </g>
                <path data-name="路径 16594" d="M324.307 346.556a3.7 3.7 0 0 1-.813.488 14.216 14.216 0 0 1-2.5.943 16.68 16.68 0 0 1-16.379-4.253 14.886 14.886 0 0 1-1.724-2.041 3.644 3.644 0 0 1-.5-.813c.065-.049.813 1.139 2.44 2.667a17.249 17.249 0 0 0 16.086 4.18c2.121-.569 3.349-1.252 3.39-1.171z" transform="translate(1022.216 282.126)" style="fill:#263238"/>
                <g data-name="组 8660" style="opacity:.2">
                    <path data-name="路径 16595" d="M1325.005 623.607c1.374 2.976 2.976 5.977 5.579 7.978a8.946 8.946 0 0 0 5.132 2.147c2.716.049 5.05-1.805 7.124-3.562-6.717 1.057-14.281-1.992-17.834-6.563"/>
                </g>
                <path data-name="路径 16596" d="M339.584 289.783c-.13 0 0-2.8-.309-6.205s-1-6.116-.878-6.148a6.545 6.545 0 0 1 .561 1.748 29.878 29.878 0 0 1 .732 4.359 30.469 30.469 0 0 1 .114 4.424 7 7 0 0 1-.22 1.822z" transform="translate(1015.494 293.975)" style="fill:#263238"/>
                <path data-name="路径 16597" d="M211.9 426.44s-8.84 1.911-16.728.724c-7.4-1.106-23.966.041-23.958 9.759 0 10.873 22.1 8.189 30.708 6.465s17.2-3.253 17.2-3.253z" transform="translate(1046.715 266.146)" style="fill:#ff725e"/>
                <path data-name="路径 16598" d="M196.446 441.811a18.817 18.817 0 0 1-1.065-3.782 18.542 18.542 0 0 1-.651-3.879 18.818 18.818 0 0 1 1.033 3.782 18.544 18.544 0 0 1 .683 3.879z" transform="translate(1042.322 264.707)" style="fill:#263238"/>
                <path data-name="路径 16599" d="M200.3 441.953a36.548 36.548 0 0 1-1.073-7.823 18.413 18.413 0 0 1 .748 3.879 19.015 19.015 0 0 1 .325 3.944z" transform="translate(1041.482 264.71)" style="fill:#263238"/>
                <path data-name="路径 16600" d="M203.934 440.781a14.411 14.411 0 0 1-.618-3.391 13.826 13.826 0 0 1-.2-3.44 28.462 28.462 0 0 1 .813 6.831z" transform="translate(1040.762 264.744)" style="fill:#263238"/>
                <path data-name="路径 16601" d="M209.407 439.616a7.945 7.945 0 0 1-1.13-2.911 7.815 7.815 0 0 1-.325-3.115 23.122 23.122 0 0 1 .732 3.009 21.865 21.865 0 0 1 .724 3.017z" transform="translate(1039.86 264.811)" style="fill:#263238"/>
                <path data-name="路径 16602" d="M211 434.5a3.708 3.708 0 0 1 1.155-.081 9.923 9.923 0 0 1 3.1.61 3.667 3.667 0 0 1 .96.512 1.456 1.456 0 0 1 .594 1.082 1.627 1.627 0 0 1-2 1.456 4.131 4.131 0 0 1-2.3-1.627 7.2 7.2 0 0 1-.333-8.352 1.171 1.171 0 0 1 .651-.4.919.919 0 0 1 .74.236 1.984 1.984 0 0 1 .553 1.187 5.929 5.929 0 0 1-.114 2.2 6.067 6.067 0 0 1-1.5 2.789 4.357 4.357 0 0 1-.642.577.912.912 0 0 1-.26.155s.309-.276.813-.813a6.351 6.351 0 0 0 1.326-2.749 5.742 5.742 0 0 0 .057-2.09 1.675 1.675 0 0 0-.447-.96.569.569 0 0 0-.854.146 6.888 6.888 0 0 0 .366 7.832 3.749 3.749 0 0 0 2.049 1.513 1.269 1.269 0 0 0 1.578-1.057 1.122 1.122 0 0 0-.455-.813 3.181 3.181 0 0 0-.854-.488 10.774 10.774 0 0 0-3-.716c-.81-.136-1.183-.119-1.183-.149z" transform="translate(1039.285 265.913)" style="fill:#263238"/>
                <path data-name="路径 16603" d="m218.558 438.733-.22.073-.667.163-2.562.586c-2.228.488-5.465 1.179-9.482 1.952s-8.816 1.626-14.2 2.383a38.092 38.092 0 0 1-8.531.431 18.7 18.7 0 0 1-4.465-.854 12.647 12.647 0 0 1-2.147-.96 6.506 6.506 0 0 1-1.879-1.513 4.5 4.5 0 0 1-.764-.919 5.693 5.693 0 0 1-.447-4.757 7.612 7.612 0 0 1 2.83-3.708 14.638 14.638 0 0 1 4.026-1.992c.708-.2 1.391-.447 2.09-.6s1.391-.325 2.082-.423c5.538-.87 10.572-.431 14.768-.431 2.1.041 3.993 0 5.652-.114a39.252 39.252 0 0 0 4.229-.537l1.529-.325 1.1-.309.675-.187a.887.887 0 0 1 .236-.049 1.429 1.429 0 0 1-.22.089l-.667.228-1.09.35-1.521.366a37.908 37.908 0 0 1-4.253.61c-1.667.122-3.57.2-5.693.179-4.2.041-9.23-.374-14.7.512-.683.1-1.358.285-2.049.431s-1.358.4-2.058.594a14.183 14.183 0 0 0-3.912 1.944 7.213 7.213 0 0 0-2.676 3.505 5.311 5.311 0 0 0 .407 4.4 4.124 4.124 0 0 0 .691.813 6.408 6.408 0 0 0 1.748 1.391 12.061 12.061 0 0 0 2.066.927 18.174 18.174 0 0 0 4.367.813 38.521 38.521 0 0 0 8.45-.4c5.367-.708 10.174-1.561 14.191-2.293s7.262-1.383 9.507-1.822l2.578-.5.667-.122a.748.748 0 0 1 .309.081z" transform="translate(1046.405 266.109)" style="fill:#263238"/>
                <path data-name="路径 16604" d="M188.839 444.485a14.324 14.324 0 0 1-.22-2.261c-.1-1.391-.26-3.318-.545-5.424s-.626-4.009-.9-5.384a13.557 13.557 0 0 1-.382-2.236 10.573 10.573 0 0 1 .675 2.171 49.437 49.437 0 0 1 1.033 5.392 50.734 50.734 0 0 1 .423 5.465 11.067 11.067 0 0 1-.081 2.277z" transform="translate(1043.805 265.635)" style="fill:#263238"/>
                <path data-name="路径 16605" d="m217.89 426.912 5.6 14.028 4.343-.805-8.319-13.7z" transform="translate(1037.997 266.146)" style="opacity:.4"/>
                <path data-name="路径 16606" d="M282.222 374.381c-.9.293-58.781-15.923-82.186-22.5a22.21 22.21 0 0 0-18.1 2.741l-.285.179a22.218 22.218 0 0 0-9.572 23.706 22.25 22.25 0 0 0 10.035 13.923c15.452 9.458 48.1 29.35 49.1 28.96 1.309-.5 42.1-1.561 42.1-1.561l-49.079-35.3 23.348 15.094 34.636-25.211z" transform="translate(1046.662 280.227)" style="fill:#263238"/>
                <path data-name="路径 16607" d="m247.7 356.618 12.3-6.368 12.069 7.563 45.168 1.48 6.506 21.958-65.385-15.159s-11.9 1.057-12.792-1.626 2.134-7.848 2.134-7.848z" transform="translate(1032.858 280.375)" style="fill:#ffbe9d"/>
                <path data-name="路径 16608" d="m292.343 397.651-6.083 19.99.756 6.091a31.253 31.253 0 0 0 41.215 2.773 30.618 30.618 0 0 0 11.971-24.4l-.089-20.868z" transform="translate(1025.229 274.588)" style="fill:#263238"/>
                <path data-name="路径 16609" d="M242.017 396.222c-.065.089-7.124-5.058-15.761-11.5s-15.59-11.743-15.517-11.833 7.124 5.05 15.769 11.491 15.582 11.744 15.509 11.842z" transform="translate(1039.333 276.147)" style="fill:#455a64"/>
                <path data-name="路径 16610" d="M259.546 355.15a48.721 48.721 0 0 1-6.018 2.155 50.425 50.425 0 0 1-6.148 1.748 48.1 48.1 0 0 1 6.02-2.153 49.938 49.938 0 0 1 6.146-1.75z" transform="translate(1032.49 279.46)" style="fill:#eb996e"/>
                <path data-name="路径 16611" d="M260.224 359.758a11.935 11.935 0 0 1-2.1.4c-1.293.211-3.074.529-5.026.976s-3.692.943-4.953 1.317a13.228 13.228 0 0 1-2.057.561 9.231 9.231 0 0 1 1.96-.813 44.349 44.349 0 0 1 10.035-2.31 10.143 10.143 0 0 1 2.141-.131z" transform="translate(1032.731 278.602)" style="fill:#eb996e"/>
                <path data-name="路径 16612" d="M259.068 364a55.479 55.479 0 0 1-6.774 1.561 57.308 57.308 0 0 1-6.864 1.147 57.265 57.265 0 0 1 6.782-1.561 57.623 57.623 0 0 1 6.856-1.147z" transform="translate(1032.854 277.807)" style="fill:#eb996e"/>
                <path data-name="路径 16613" d="m229.4 321.614 11.345 37.344a1.09 1.09 0 0 0 .951.764l30.9 2.318a1.082 1.082 0 0 1 1.008 1.082v1.927a1.082 1.082 0 0 1-1.106 1.082l-84.577-1.631a1.082 1.082 0 0 1-.992-.7l-14.866-38.946a1.082 1.082 0 0 1 .96-1.472l55.227-2.578a1.09 1.09 0 0 1 1.147.805z" transform="translate(1046.569 285.874)" style="fill:#455a64"/>
                <path data-name="路径 16614" d="M212.893 341.539a2.684 2.684 0 0 0-1.675 1.9 2.57 2.57 0 0 0 1.1 2.326 2.781 2.781 0 0 0 3.09.114 2.57 2.57 0 0 0 .813-3.115 2.8 2.8 0 0 0-3.351-1.228" transform="translate(1039.245 282.035)" style="fill:#e0e0e0"/>
                <path data-name="路径 16615" d="M228.066 426.7 219.12 412l65.71-51.5a26.4 26.4 0 0 1 14.354-5.88 26.406 26.406 0 0 1 28.707 28.464l-1.049 12.565-43.574 14.045z" transform="translate(1037.767 279.58)" style="fill:#263238"/>
                <path data-name="路径 16616" d="M314.381 400.36a1.805 1.805 0 0 1-.171.163l-.537.439-2.09 1.675-1.521 1.2c-.553.439-1.212.813-1.887 1.326l-2.179 1.5c-.39.26-.813.545-1.2.813l-1.309.813c-1.781 1.065-3.708 2.285-5.9 3.391-1.082.569-2.188 1.187-3.351 1.765l-3.635 1.716A177.625 177.625 0 0 1 274 421.773c-12 4.139-23.1 7.116-31.042 9.523-1.992.586-3.79 1.139-5.367 1.626s-2.928.9-4.066 1.277l-2.537.813-.667.2a1.165 1.165 0 0 1-.236.057l.22-.1.651-.244 2.521-.9c1.09-.4 2.44-.813 4.017-1.35s3.359-1.09 5.343-1.692c7.929-2.489 19.014-5.506 30.993-9.637 6-2.041 11.589-4.318 16.59-6.571l3.627-1.7c1.171-.569 2.277-1.179 3.359-1.74 2.188-1.09 4.115-2.293 5.9-3.334l1.309-.773c.415-.26.813-.537 1.2-.813l2.269-1.472c.675-.464 1.334-.862 1.895-1.293l1.537-1.171 2.139-1.626.569-.407z" transform="translate(1035.721 271.017)" style="fill:#455a64"/>
                <path data-name="路径 16617" d="M331.472 408.81a2.561 2.561 0 0 1-.659.35c-.439.2-1.082.464-1.887.756a47.605 47.605 0 0 1-6.441 1.87 48.5 48.5 0 0 1-6.644.943c-.854.057-1.553.081-2.033.081a2.935 2.935 0 0 1-.748-.041 25.422 25.422 0 0 1 2.757-.342 65.78 65.78 0 0 0 6.579-1.057 71.111 71.111 0 0 0 6.433-1.732 25.533 25.533 0 0 1 2.643-.828z" transform="translate(1020.224 269.439)" style="fill:#455a64"/>
                <path data-name="路径 16618" d="M282.215 364.91c.073.1-13.988 11.15-31.407 24.682s-31.6 24.446-31.668 24.349 13.988-11.141 31.407-24.682 31.603-24.439 31.668-24.349z" transform="translate(1037.764 277.638)" style="fill:#455a64"/>
                <path data-name="路径 16619" d="M282.2 430.442c-3.147-1.675-6.685-.683-9.7.333-2.009.675-4.066 1.748-6.132 1.171-1.472-.415-2.57-1.626-3.7-2.643a23.21 23.21 0 0 0-16.981-6.091 6.978 6.978 0 0 0-4.668 2.106c-3.1 3.359-.764 7.718 2.009 10.572a30.554 30.554 0 0 0 18.469 8.946c5.766.6 13.7-.2 19.518-2.7 3.6-1.545 5.449-5.8 3.562-9.23a5.928 5.928 0 0 0-2.377-2.464z" transform="translate(1033.952 266.756)" style="fill:#ff725e"/>
                <g data-name="组 8661" style="opacity:.4">
                    <path data-name="路径 16620" d="M1316.157 699.882c-3.155-1.675-6.693-.683-9.71.333-2.009.675-4.066 1.748-6.132 1.171-1.472-.415-2.57-1.626-3.7-2.643a23.21 23.21 0 0 0-16.981-6.091 6.978 6.978 0 0 0-4.668 2.106 5.465 5.465 0 0 0-1.3 2.358 12.288 12.288 0 0 0 3.31 5.5 30.554 30.554 0 0 0 18.469 8.946c5.766.6 13.7-.2 19.518-2.7a7.132 7.132 0 0 0 4.156-4.953 6.018 6.018 0 0 0-2.985-3.993z"/>
                </g>
                <path data-name="路径 16621" d="M285.217 437.7a5.367 5.367 0 0 0-.773-1.87 6.149 6.149 0 0 0-1.683-1.626 6.8 6.8 0 0 0-2.9-1.106c-2.334-.276-5.05.708-8.059 1.521a13.2 13.2 0 0 1-4.879.813 6.506 6.506 0 0 1-2.521-.878 15.509 15.509 0 0 1-2.163-1.627 22.6 22.6 0 0 0-8.62-5.123 22.047 22.047 0 0 0-4.286-.992 13.4 13.4 0 0 0-3.822 0 8.483 8.483 0 0 0-2.944 1.025 7.749 7.749 0 0 0-1.83 1.472c-.813 1.017-1.114 1.708-1.163 1.675a6.653 6.653 0 0 1 1.041-1.781 7.319 7.319 0 0 1 1.805-1.626 8.36 8.36 0 0 1 3.033-1.122 13.282 13.282 0 0 1 3.9 0 22.667 22.667 0 0 1 4.367.968 25.867 25.867 0 0 1 4.522 2 18.518 18.518 0 0 1 2.2 1.431c.708.553 1.366 1.155 2.049 1.74a15.443 15.443 0 0 0 2.106 1.626 6.156 6.156 0 0 0 2.35.813 12.418 12.418 0 0 0 4.741-.74c3-.813 5.758-1.765 8.206-1.448a6.774 6.774 0 0 1 4.684 2.968 4.4 4.4 0 0 1 .586 1.423 2.22 2.22 0 0 1 .049.464z" transform="translate(1033.948 266.17)" style="fill:#263238"/>
                <path data-name="路径 16622" d="M285.217 437.7a5.367 5.367 0 0 0-.773-1.87 6.149 6.149 0 0 0-1.683-1.626 6.8 6.8 0 0 0-2.9-1.106c-2.334-.276-5.05.708-8.059 1.521a13.2 13.2 0 0 1-4.879.813 6.506 6.506 0 0 1-2.521-.878 15.509 15.509 0 0 1-2.163-1.627 22.6 22.6 0 0 0-8.62-5.123 22.047 22.047 0 0 0-4.286-.992 13.4 13.4 0 0 0-3.822 0 8.483 8.483 0 0 0-2.944 1.025 7.749 7.749 0 0 0-1.83 1.472c-.813 1.017-1.114 1.708-1.163 1.675a6.653 6.653 0 0 1 1.041-1.781 7.319 7.319 0 0 1 1.805-1.626 8.36 8.36 0 0 1 3.033-1.122 13.282 13.282 0 0 1 3.9 0 22.667 22.667 0 0 1 4.367.968 25.867 25.867 0 0 1 4.522 2 18.518 18.518 0 0 1 2.2 1.431c.708.553 1.366 1.155 2.049 1.74a15.443 15.443 0 0 0 2.106 1.626 6.156 6.156 0 0 0 2.35.813 12.418 12.418 0 0 0 4.741-.74c3-.813 5.758-1.765 8.206-1.448a6.774 6.774 0 0 1 4.684 2.968 4.4 4.4 0 0 1 .586 1.423 2.22 2.22 0 0 1 .049.464z" transform="translate(1033.948 266.17)" style="fill:#263238"/>
                <path data-name="路径 16623" d="M247.63 438.078a8.345 8.345 0 0 1 1.626-1.114 44.4 44.4 0 0 1 4.172-2.228 46.131 46.131 0 0 1 4.383-1.8 8.572 8.572 0 0 1 1.887-.529 10.574 10.574 0 0 1-1.781.813c-1.114.464-2.643 1.114-4.31 1.895s-3.139 1.545-4.2 2.106a9.831 9.831 0 0 1-1.773.854z" transform="translate(1032.443 265.031)" style="fill:#263238"/>
                <path data-name="路径 16624" d="M249 441.872a57.188 57.188 0 0 1 6.156-3.212 57.822 57.822 0 0 1 6.343-2.83 57.2 57.2 0 0 1-6.156 3.212 56.316 56.316 0 0 1-6.343 2.83z" transform="translate(1032.187 264.393)" style="fill:#263238"/>
                <path data-name="路径 16625" d="M261.6 442.8c-.065.1-3.424-1.9-7.5-4.473s-7.319-4.741-7.319-4.839 3.416 1.9 7.5 4.481 7.398 4.731 7.319 4.831z" transform="translate(1032.602 264.831)" style="fill:#263238"/>
                <path data-name="路径 16626" d="M264.8 439.157a10.724 10.724 0 0 1-1.626-1.1c-.984-.716-2.35-1.7-3.879-2.757s-2.92-1.992-3.936-2.667a9.952 9.952 0 0 1-1.626-1.155 9.229 9.229 0 0 1 1.765.9c1.057.61 2.5 1.513 4.066 2.57s2.879 2.09 3.822 2.871a7.838 7.838 0 0 1 1.414 1.338z" transform="translate(1031.304 265.205)" style="fill:#263238"/>
            </g>
        </g>
    </g>
</svg>
