<svg xmlns="http://www.w3.org/2000/svg" width="470" height="260" viewBox="0 0 470 260">
    <defs>
        <clipPath id="pgbe6ppv7a">
            <path data-name="矩形 8629" transform="translate(1047 444)" style="stroke:#707070;fill:#fff" d="M0 0h470v260H0z"/>
        </clipPath>
    </defs>
    <g data-name="蒙版组 2346" transform="translate(-1047 -444)" style="clip-path:url(#pgbe6ppv7a)">
        <g data-name="Personal files-pana">
            <path data-name="路径 16779" d="M220.057 460.715c-1.257-1.082-4.064-4.5-1.9-8.478.8-1.463 2.482-2.187 3.977-2.823a16.171 16.171 0 0 0 4.4-2.283c2.386-2.02 3.038-5.392 4.621-8.1 1.813-3.1 5.2-5.424 8.749-5.265 4.1.191 7.516 3.539 9.067 7.357s1.591 8.057 1.638 12.177c0 2.283-.087 4.852-1.758 6.363-1.543 1.424-3.865 1.44-5.957 1.376l-22.405-.692" transform="translate(1053.265 286.375)" style="fill:#f5f5f5"/>
            <path data-name="路径 16780" d="M259.47 390.19h-58.92l10.618 63.286a7.055 7.055 0 0 0 5.027 5.631l.207.056c.175.048.342.1.525.135a7.411 7.411 0 0 0 1.193.143v.056l.286-.048h26.247a7.161 7.161 0 0 0 1.44-.143 7.079 7.079 0 0 0 5.957-6.18l5.122-43.6.231-1.734 2.028-17.275zm-11.135 40.372h-6.045l.612-18.373h7.007zm2.155-18.373h5.79l-2.139 18.411h-5.2zm-17.267 38.726-.374-15.955h8.709l-.533 15.955zm-9.417-15.955h8.463l.366 15.955h-7.588zm.652 15.955h-7.095c-.668-4.3-1.591-9.9-2.5-15.955h8.351zm-.978-20.315-1.424-18.373h9.7l.422 18.373zm9.29 0-.429-18.373h9.99l-.6 18.373zm-.525-22.771-.4-17.013h11.215l-.565 17.013zm-.589 0h-9.942l-1.328-17.013h10.88zm-10.53 0H210.6c-.374-2.386-.732-4.573-1.05-6.578-1.1-6.872-1.511-9.465-1.734-10.435h11.986zm.342 4.4 1.424 18.373h-8.7c-.294-1.869-.589-3.754-.883-5.639-.684-4.335-1.368-8.669-2.012-12.726zm-7.834 18.371h-5.687l-3.078-18.373h5.87c.866 5.649 1.861 11.956 2.895 18.373zm.692 4.4c.867 5.52 1.718 10.968 2.5 15.955h-5.5L208.655 435zm27.336 15.955.533-15.955h5.814l-1.36 15.955zm1.432-43.124.565-17.013h8.129l-1.456 17.013zM207.3 390.818c.231 1.233 1.3 7.954 2.744 17.013h-5.957l-2.855-17.013zm44.492 60.137h-4.6L248.566 435h5.058zm5.058-43.124h-5.925l1.448-17.013h6.474z" transform="translate(1056.705 295.291)" style="fill:#e0e0e0"/>
            <path data-name="矩形 10072" transform="translate(1336.727 448.998)" style="fill:#f5f5f5" d="M0 0h30.701v60.86H0z"/>
            <path data-name="矩形 10073" transform="translate(1368.613 448.998)" style="fill:#f5f5f5" d="M0 0h33.174v60.86H0z"/>
            <path data-name="矩形 10074" transform="translate(1368.613 514.114)" style="fill:#f5f5f5" d="M0 0h33.174v58.808H0z"/>
            <path data-name="路径 16781" d="M387.62 77.34h34.932V23.351h1.185V77.34h28.426V22.15H387.62z" transform="translate(1018.422 370.609)" style="fill:#f5f5f5"/>
            <path data-name="矩形 10075" transform="translate(1442.159 448.998)" style="fill:#f5f5f5" d="M0 0h28.434v60.86H0z"/>
            <path data-name="矩形 10076" transform="translate(1442.159 514.114)" style="fill:#f5f5f5" d="M0 0h28.434v58.808H0z"/>
            <path data-name="矩形 10077" transform="translate(1336.727 514.114)" style="fill:#f5f5f5" d="M0 0h30.701v58.808H0z"/>
            <path data-name="矩形 10078" transform="translate(1406.042 514.114)" style="fill:#f5f5f5" d="M0 0h34.94v58.808H0z"/>
            <path data-name="矩形 10079" transform="translate(1336.727 573.972)" style="fill:#f5f5f5" d="M0 0h30.701v52.994H0z"/>
            <path data-name="矩形 10080" transform="translate(1442.159 573.972)" style="fill:#f5f5f5" d="M0 0h28.434v52.994H0z"/>
            <path data-name="路径 16782" d="M331.171 77.34V23.351h1.185V77.34h33.174V22.15h-65.06v55.19z" transform="translate(1036.257 370.609)" style="fill:#f5f5f5"/>
            <path data-name="矩形 10081" transform="translate(1406.042 573.972)" style="fill:#f5f5f5" d="M0 0h34.94v52.994H0z"/>
            <path data-name="矩形 10082" transform="translate(1368.613 573.972)" style="fill:#f5f5f5" d="M0 0h33.174v52.994H0z"/>
            <path data-name="矩形 10083" transform="translate(1406.042 448.998)" style="fill:#f5f5f5" d="M0 0h34.94v60.86H0z"/>
            <path data-name="路径 16783" d="M27.362 198.739a3.126 3.126 0 0 1-3.826-2.171l-7.023-26.247a2.593 2.593 0 0 1 1.925-3.1l2.466-.66a2.68 2.68 0 0 0 1.965-2.028l.239-1.217a2.688 2.688 0 0 1 1.965-2.028l11.7-3.126a2.72 2.72 0 0 1 2.537.6l.8.756a2.72 2.72 0 0 0 2.537.589l14.9-3.977a2.585 2.585 0 0 1 3.181 1.726l7.158 26.788a3.118 3.118 0 0 1-2.2 3.818z" transform="translate(1094.381 343.212)" style="fill:#e0e0e0"/>
            <path data-name="路径 16784" d="M40.94 160.466 31.452 163l-1.288-1.36a3.38 3.38 0 0 0-3.333-.883l-9.266 2.489a3 3 0 0 0-2.235 3.6l.286 1.082 7.635 28.442a3.4 3.4 0 0 0 4.247 2.267l37.66-10.117a3.4 3.4 0 0 0 2.537-4.088l-7.222-26.851a2.243 2.243 0 0 0-2.752-1.591z" transform="translate(1094.626 343.237)" style="fill:#ebebeb"/>
            <path data-name="路径 16785" d="M189.306 146.776a3.778 3.778 0 0 1-2.784-4.557l7.7-31.87a3.126 3.126 0 0 1 3.842-2.179l3 .724a3.245 3.245 0 0 0 3.261-1.026l.962-1.145a3.245 3.245 0 0 1 3.253-1.018l14.229 3.436a3.269 3.269 0 0 1 2.386 2.092l.429 1.281a3.285 3.285 0 0 0 2.386 2.092l18.134 4.382a3.126 3.126 0 0 1 2.426 3.69l-7.874 32.61a3.77 3.77 0 0 1-4.549 2.784z" transform="translate(1059.598 353.531)" style="fill:#e0e0e0"/>
            <path data-name="路径 16786" d="m226.133 113.608-11.533-2.815-.565-2.179a4.1 4.1 0 0 0-3.035-2.888l-11.278-2.76a3.627 3.627 0 0 0-4.454 2.529l-.318 1.312-8.359 34.614a4.12 4.12 0 0 0 3.181 4.868l45.812 11.063a4.12 4.12 0 0 0 5.058-2.871l7.9-32.7a2.712 2.712 0 0 0-2-3.277z" transform="translate(1059.581 354.097)" style="fill:#ebebeb"/>
            <path data-name="路径 16787" d="M76.141 90.984a4.239 4.239 0 0 1-4.677-3.746l-3.977-36.586a3.508 3.508 0 0 1 3.229-3.77l3.436-.382a3.627 3.627 0 0 0 3.054-2.314l.573-1.591a3.651 3.651 0 0 1 3.054-2.314l16.337-1.8a3.659 3.659 0 0 1 3.277 1.312l.946 1.185a3.683 3.683 0 0 0 3.277 1.32l20.822-2.291a3.508 3.508 0 0 1 3.977 2.975l4.112 37.421a4.231 4.231 0 0 1-3.746 4.677z" transform="translate(1083.938 367.272)" style="fill:#e0e0e0"/>
            <path data-name="路径 16788" d="m102.429 42.912-13.211 1.424-1.424-2.076a4.6 4.6 0 0 0-4.311-1.9L70.5 41.783a4.072 4.072 0 0 0-3.746 4.366l.167 1.511 4.369 39.768a4.621 4.621 0 0 0 5.2 3.881l52.589-5.782a4.621 4.621 0 0 0 4.255-4.963l-4.128-37.533a3.046 3.046 0 0 0-3.364-2.7z" transform="translate(1084.088 366.891)" style="fill:#f5f5f5"/>
            <path data-name="路径 16789" d="M112.091 70.6a5.138 5.138 0 0 0 2.521-5.058 4.828 4.828 0 1 0-9.544 1.01 5.13 5.13 0 0 0 3.571 4.43c-7.238 1.917-6.029 9.886-6.029 9.886l17.426-1.829s-.524-8.139-7.945-8.439z" transform="translate(1076.764 362.721)" style="fill:#e0e0e0"/>
            <path data-name="路径 16790" d="M33.113 96.72a9.155 9.155 0 0 1 2.291-.692l.7-2.108 3.659.366.27 2.2a8.868 8.868 0 0 1 2.108 1.137l1.988-.994 2.322 2.839-1.36 1.75a9.155 9.155 0 0 1 .692 2.291l2.1.708-.366 3.651-2.2.278a9 9 0 0 1-1.129 2.108l.994 2.02-2.839 2.33-1.75-1.368a9.107 9.107 0 0 1-2.3.692l-.7 2.108-3.682-.406-.278-2.2a9.3 9.3 0 0 1-2.108-1.153l-1.988.986-2.322-2.839 1.368-1.75a8.836 8.836 0 0 1-.692-2.291l-2.108-.708.366-3.651 2.2-.27a8.892 8.892 0 0 1 1.129-2.116l-.986-1.98 2.839-2.33zm1.368 5.082a3.977 3.977 0 1 0 5.567.557 3.977 3.977 0 0 0-5.567-.559z" transform="translate(1092.471 355.922)" style="fill:#e0e0e0"/>
            <path data-name="路径 16791" d="M51.566 277.823a2.688 2.688 0 0 0 .954-.159 1.948 1.948 0 0 0 .891-.724 1.837 1.837 0 0 0 .278-.676c.048-.262.072-.557.111-.859.31-2.466.748-5.989 1.3-10.34l.437-3.42c.072-.6.151-1.2.231-1.821l.119-.931a4.7 4.7 0 0 0 .072-.915 1.813 1.813 0 0 0-.97-1.424 2.386 2.386 0 0 0-.915-.231l-1.018-.135-4.207-.541-18.749-2.44a1.79 1.79 0 0 0-1.829 1 2.06 2.06 0 0 0-.159.533l-.08.612c-.056.406-.1.8-.159 1.217q-.318 2.434-.628 4.772c-.422 3.134-.8 6.156-1.2 9.043-.1.716-.191 1.424-.278 2.124a1.782 1.782 0 0 0 .8 1.591 1.814 1.814 0 0 0 .883.31l.994.135 1.957.262 7.158.962 10.34 1.424 2.8.406.724.119a.8.8 0 0 1 .247.056h-.247l-.732-.072-2.816-.334-10.34-1.288-7.158-.915-1.957-.255-.994-.127a2.171 2.171 0 0 1-1.98-2.33c.087-.708.175-1.424.27-2.147.374-2.879.8-5.9 1.177-9.035q.31-2.386.628-4.772c.048-.406.1-.8.159-1.217l.08-.612a2.386 2.386 0 0 1 .191-.652 2.2 2.2 0 0 1 2.267-1.233l18.739 2.474 4.207.565 1.018.135a2.9 2.9 0 0 1 1.026.27 2.163 2.163 0 0 1 1.153 1.7 4.342 4.342 0 0 1-.08.994 6.191 6.191 0 0 1-.127.939c-.08.62-.159 1.225-.247 1.821-.159 1.185-.31 2.322-.461 3.412-.6 4.335-1.082 7.85-1.424 10.34-.048.3-.072.581-.127.859a2.044 2.044 0 0 1-.318.716 2.012 2.012 0 0 1-.962.74 1.726 1.726 0 0 1-.732.111 1.3 1.3 0 0 1-.317-.037z" transform="translate(1092.543 323.414)" style="fill:#e0e0e0"/>
            <path data-name="路径 16792" d="M52.627 277.09a1.736 1.736 0 0 1-.239-.3l-.612-.915c-.549-.859-1.288-2-2.187-3.388l-1.5-2.386-.406-.636a.589.589 0 0 0-.525-.255c-.215 0-.358.143-.581.334l-.636.549-1.312 1.121a2.912 2.912 0 0 1-.39.294.931.931 0 0 1-.549.1.891.891 0 0 1-.517-.223.939.939 0 0 1-.191-.207l-.127-.191c-.676-1.026-1.368-2.092-2.084-3.181l-1.058-1.591-.517-.8a.573.573 0 0 0-.589-.27.525.525 0 0 0-.294.151l-.318.318-.636.628-1.233 1.217-4.263 4.2-2.905 2.841-.8.748a1.59 1.59 0 0 1-.3.239 1.59 1.59 0 0 1 .239-.3l.8-.8 2.808-2.9c1.209-1.225 2.633-2.664 4.2-4.263L37.126 266l.628-.636.326-.318a.93.93 0 0 1 .5-.262.978.978 0 0 1 1 .445l.517.8 1.058 1.591 2.084 3.181a.652.652 0 0 0 1.177.143l1.32-1.113.644-.533a3.264 3.264 0 0 1 .334-.27.915.915 0 0 1 .469-.151.93.93 0 0 1 .8.422c.143.223.278.437.406.652l1.455 2.386 2.076 3.46.549.954c.103.212.158.331.158.339z" transform="translate(1092.046 320.958)" style="fill:#e0e0e0"/>
            <path data-name="路径 16793" d="M50.737 262.994a2.933 2.933 0 0 0-.08-.573 2.386 2.386 0 0 0-.708-1.3 2.227 2.227 0 0 0-2.02-.541 2.171 2.171 0 0 0-.533 4.032 2.219 2.219 0 0 0 2.1 0 2.33 2.33 0 0 0 1.018-1.074c.151-.334.183-.541.223-.533a1.09 1.09 0 0 1-.08.589 2.315 2.315 0 0 1-1.018 1.273 2.5 2.5 0 0 1-2.386.1 2.537 2.537 0 0 1 .628-4.772 2.482 2.482 0 0 1 2.307.708 2.33 2.33 0 0 1 .628 1.519 1.074 1.074 0 0 1-.079.572z" transform="translate(1088.369 321.907)" style="fill:#e0e0e0"/>
            <path data-name="路径 16794" d="M208.35 78.316a2.569 2.569 0 0 0 .939.255 1.973 1.973 0 0 0 1.106-.3 1.766 1.766 0 0 0 .533-.5c.151-.215.294-.477.453-.732l5.416-8.892 1.8-2.943a64.03 64.03 0 0 0 .962-1.591l.493-.8a4.231 4.231 0 0 0 .437-.8 1.814 1.814 0 0 0-.3-1.7 2.5 2.5 0 0 0-.74-.581l-.875-.533-3.611-2.227-16.114-9.91a1.766 1.766 0 0 0-2.426.6l-.326.525-.66 1.066c-.859 1.384-1.71 2.752-2.537 4.1a748.783 748.783 0 0 0-4.772 7.755L187 62.926a1.813 1.813 0 0 0 .708 2.458l.859.533 1.67 1.034 6.069 3.778 8.828 5.567 2.386 1.519.612.4.2.151-.223-.111-.636-.366-2.426-1.456-8.892-5.464-6.1-3.754-1.686-1.026-.859-.533a2.235 2.235 0 0 1-.8-.8 2.14 2.14 0 0 1-.056-2.179c.366-.612.74-1.225 1.121-1.845l4.772-7.763 2.537-4.112.644-1.042.318-.525a2.514 2.514 0 0 1 .445-.517 2.211 2.211 0 0 1 2.577-.2l16.074 9.942 3.6 2.243.875.541a2.625 2.625 0 0 1 .8.668 2.14 2.14 0 0 1 .35 2.02 3.976 3.976 0 0 1-.477.875l-.5.8c-.326.533-.652 1.05-.97 1.591-.628 1.018-1.241 2-1.821 2.927l-5.472 8.813c-.175.262-.31.509-.477.74a1.893 1.893 0 0 1-.589.517 1.988 1.988 0 0 1-1.177.278 1.805 1.805 0 0 1-.716-.2 1.066 1.066 0 0 1-.223-.111z" transform="translate(1059.603 365.656)" style="fill:#e0e0e0"/>
            <path data-name="路径 16795" d="m209.535 64.385 1.471 2.943a.8.8 0 0 1-.8 1.2l-3.348-.1-3.253-.1a.835.835 0 0 1-.644-1.288l1.837-2.808 1.853-2.831a.8.8 0 0 1 1.44.087z" transform="translate(1056.239 362.661)" style="fill:#e0e0e0"/>
            <g>
                <path data-name="路径 16796" d="M377.593 477.587c0 .119-76.911.207-171.8.207S34 477.706 34 477.587s76.895-.207 171.8-.207 171.793.095 171.793.207z" transform="translate(1090.789 277.448)" style="fill:#263238"/>
            </g>
            <g>
                <path data-name="路径 16797" d="M433.806 297c-7.476 3.873-13.211 10.546-17.331 17.888s-6.784 15.4-9.417 23.4l-2.3 41.255c8.7-14.8 15.684-32.2 17.569-49.272l-5.79-.509c3.881-.6 7.158-3.412 9.21-6.745a40.121 40.121 0 0 0 4.184-10.968l-7.063 1.05A26.175 26.175 0 0 0 433.806 297z" transform="translate(1021.882 301.362)" style="fill:#455a64"/>
                <g data-name="组 8666" style="opacity:.3">
                    <path data-name="路径 16798" d="M1455.688 598.362c-7.476 3.873-13.211 10.546-17.331 17.888s-6.784 15.4-9.417 23.4l-2.3 41.255c8.7-14.8 15.684-32.2 17.569-49.272l-5.79-.509c3.881-.6 7.158-3.412 9.21-6.745a40.121 40.121 0 0 0 4.184-10.968l-7.063 1.05a26.175 26.175 0 0 0 10.938-16.099z"/>
                </g>
                <path data-name="路径 16799" d="M398.327 388.287s-18.882-22.6-18.667-44.182h7.627s-8.288-5.448-7.627-8.5.875-14.6.875-14.6l6.967 1.75s-5.225-2.617-5.878-6.76 1.519-23.32 1.519-23.32 8.5 8.94 11.135 18.086 9.481 19.836 7.46 47.721-3.411 29.805-3.411 29.805z" transform="translate(1027.026 302.248)" style="fill:#455a64"/>
                <path data-name="路径 16800" d="M415.178 396.751s20.456-13.632 25-31.019l-6.132-1.662s7.858-2.569 7.993-5.17 2.5-11.93 2.5-11.93l-5.989-.119s4.772-.962 6.2-4.152 3.881-19.089 3.881-19.089-8.789 5.329-12.893 12.113-11.954 13.871-16.448 36.714-4.112 24.314-4.112 24.314z" transform="translate(1019.752 295.916)" style="fill:#455a64"/>
                <path data-name="路径 16801" d="M390.54 317.45a1.049 1.049 0 0 1 .072.231l.167.7c.143.636.35 1.535.6 2.68s.573 2.593.9 4.255.732 3.547 1.121 5.647c.8 4.192 1.662 9.2 2.545 14.778s1.7 11.724 2.458 18.19 1.312 12.654 1.758 18.293.724 10.705.891 14.969c.1 2.132.151 4.064.207 5.758s.08 3.181.087 4.351 0 2.084 0 2.744v.962a1.28 1.28 0 0 1 0-.247v-.716c0-.652-.064-1.591-.1-2.744s-.087-2.648-.167-4.343-.135-3.619-.262-5.75c-.2-4.263-.541-9.329-.978-14.953s-1.05-11.8-1.79-18.293-1.591-12.606-2.426-18.182-1.678-10.586-2.458-14.778c-.366-2.1-.74-3.977-1.05-5.663s-.6-3.094-.835-4.263-.4-2.052-.525-2.7c-.056-.294-.1-.525-.127-.708a.8.8 0 0 1-.088-.218z" transform="translate(1024.792 297.177)" style="fill:#263238"/>
                <path data-name="路径 16802" d="M389.884 416.724s-17.284-19.605-22.652-31.464l4.048-1.726a10.542 10.542 0 0 1-8.216-2.7 29.483 29.483 0 0 1-5.568-6.92l5.337-.9A19.884 19.884 0 0 1 351.15 364c6.3 1.034 11.994 4.494 16.7 8.82a83.2 83.2 0 0 1 10.117 11.716 40.223 40.223 0 0 1 3.929 6.458c2.89 5.989 7.996 18.532 7.988 25.73z" transform="translate(1032.853 287.651)" style="fill:#455a64"/>
                <path data-name="路径 16803" d="M439.316 338a.669.669 0 0 1-.072.2l-.262.573-1.05 2.179a456.02 456.02 0 0 0-3.818 8.025c-3.181 6.792-7.357 16.281-11.493 26.955s-7.4 20.512-9.632 27.678a465.82 465.82 0 0 0-2.569 8.5l-.692 2.314-.191.6a1.113 1.113 0 0 1-.079.207.8.8 0 0 1 0-.215c.04-.159.087-.366.151-.612.151-.565.35-1.344.612-2.338a293.275 293.275 0 0 1 2.45-8.542c2.155-7.158 5.4-17.052 9.544-27.742s8.367-20.162 11.612-26.931a201.935 201.935 0 0 1 3.937-7.954c.477-.907.843-1.591 1.113-2.147.127-.223.223-.406.3-.549a.976.976 0 0 1 .139-.201z" transform="translate(1020.922 292.971)" style="fill:#263238"/>
                <path data-name="路径 16804" d="M398.434 432.226a8.741 8.741 0 0 1-.262-1.4c-.135-.9-.366-2.2-.684-3.81a76.9 76.9 0 0 0-8.98-23.773c-.8-1.408-1.5-2.537-2-3.309a9.66 9.66 0 0 1-.724-1.225 9.663 9.663 0 0 1 .859 1.137c.541.74 1.273 1.853 2.124 3.253a69.7 69.7 0 0 1 9.011 23.861c.286 1.591.469 2.935.557 3.849a9.8 9.8 0 0 1 .1 1.416z" transform="translate(1025.766 280.547)" style="fill:#263238"/>
                <path data-name="矩形 10084" transform="translate(1409.176 708.168)" style="fill:#ff725e" d="M0 0h37.819v7.715H0z"/>
                <path data-name="路径 16805" d="m387.34 444.76 4.088 25.944h22.85l3.822-25.944z" transform="translate(1025.447 271.123)" style="fill:#ff725e"/>
                <path data-name="路径 16806" d="M419.217 444.707c0 .111-7.158.207-15.979.207s-15.979-.1-15.979-.207 7.158-.207 15.979-.207 15.979.087 15.979.207z" transform="translate(1025.463 271.177)" style="fill:#263238"/>
            </g>
            <g transform="translate(1142.367 472.549)">
                <path data-name="矩形 10085" style="fill:#455a64" d="M0 0h120.878v282.486H0z"/>
                <g data-name="组 8667" style="opacity:.3">
                    <path data-name="矩形 10086" d="M0 0h33.047v282.486H0z"/>
                </g>
                <path data-name="路径 16807" d="M138.562 136.371V134.1l-1.1 1.845h-.533l-1.1-1.782v2.2h-1.109V132.1h1.018l1.5 2.466 1.462-2.466h.994v4.271z" transform="translate(-72.189 -124.441)" style="fill:#fff"/>
                <path data-name="路径 16808" d="M144.17 134.836v1.535h-1.209v-1.551l-1.591-2.72h1.273l1.01 1.694 1.01-1.694h1.169z" transform="translate(-73.55 -124.441)" style="fill:#fff"/>
                <path data-name="路径 16809" d="M150.759 133.039v.939h1.885v.931h-1.885v1.463h-1.209V132.1h3.35v.939z" transform="translate(-75.224 -124.441)" style="fill:#fff"/>
                <path data-name="路径 16810" d="M154.47 132.1h1.217v4.271h-1.209z" transform="translate(-76.231 -124.441)" style="fill:#fff"/>
                <path data-name="路径 16811" d="M157.07 132.1h1.2v3.309h2.036v.962h-3.236z" transform="translate(-76.763 -124.441)" style="fill:#fff"/>
                <path data-name="路径 16812" d="M165.12 135.433v.939h-3.42V132.1h3.34v.939h-2.147v.716h1.893v.9h-1.893v.8z" transform="translate(-77.711 -124.441)" style="fill:#fff"/>
                <path data-name="路径 16813" d="m166.51 135.981.4-.883a2.7 2.7 0 0 0 1.408.414c.493 0 .692-.135.692-.342 0-.676-2.426-.183-2.426-1.766 0-.8.62-1.384 1.893-1.384a3.253 3.253 0 0 1 1.543.366l-.374.9a2.442 2.442 0 0 0-1.177-.326c-.509 0-.692.167-.692.382 0 .652 2.386.167 2.386 1.734 0 .748-.62 1.376-1.885 1.376a3.3 3.3 0 0 1-1.768-.471z" transform="translate(-78.695 -124.424)" style="fill:#fff"/>
                <path data-name="路径 16814" d="M182.309 202.527v-15.31c0-9.751-.056-23.733-.087-40.73l.167.167-78.851.04.207-.207v56.041l-.183-.191 56.844.1 16.209.048h.08l-16.162.056-56.971.1h-.191V146.28h.215l78.851.04h.167v.167c-.04 17.036-.072 31.019-.087 40.841 0 4.86 0 8.661-.048 11.262v2.943a2.414 2.414 0 0 1-.16.994z" transform="translate(-65.774 -127.343)" style="fill:#263238"/>
                <g data-name="组 8668" style="opacity:.3">
                    <path data-name="矩形 10087" d="M61.791 53.623h32.1v5.432h-32.1z"/>
                </g>
                <rect data-name="矩形 10088" width="20.512" height="15.716" rx="2.49" transform="translate(69.466 29.452)" style="fill:#fff"/>
                <path data-name="路径 16815" d="M162.956 174.387a4.566 4.566 0 0 1-.74-.8l-1.9-2.2-1.3-1.535-.35-.414a.374.374 0 0 0-.35-.119c-.127 0-.207.119-.35.286l-.406.445-.8.931a.915.915 0 0 1-.676.39.8.8 0 0 1-.422-.119.723.723 0 0 1-.167-.143l-.111-.127-1.79-2.068-.9-1.05-.445-.517a.35.35 0 0 0-.39-.119.39.39 0 0 0-.167.111l-.2.262-.4.509q-.382.5-.8.978l-2.664 3.444-1.829 2.243a5.448 5.448 0 0 1-.716.8 4.858 4.858 0 0 1 .589-.891l1.718-2.346 2.61-3.455.756-.994c.127-.167.262-.334.39-.509l.2-.262a.851.851 0 0 1 .366-.255.8.8 0 0 1 .8.239l.445.517c.294.342.6.7.907 1.05.612.708 1.2 1.408 1.782 2.076.239.342.517.334.8 0l.843-.915.406-.445a.978.978 0 0 1 .565-.39.732.732 0 0 1 .684.239l.35.437 1.257 1.591 1.79 2.283a5.347 5.347 0 0 1 .615.842z" transform="translate(-74.313 -131.55)" style="fill:#263238"/>
                <path data-name="路径 16816" d="M160.066 164.7s-.048-.151-.135-.39a1.654 1.654 0 0 0-.628-.843 1.591 1.591 0 0 0-1.448-.183 1.527 1.527 0 1 0 1.448 2.656 1.718 1.718 0 0 0 .628-.843c.087-.247.1-.4.135-.4s.064.159 0 .437a1.7 1.7 0 0 1-.6 1.034 1.853 1.853 0 0 1-1.766.31 1.885 1.885 0 0 1 0-3.555 1.829 1.829 0 0 1 1.766.31 1.686 1.686 0 0 1 .6 1.034.731.731 0 0 1 0 .433z" transform="translate(-76.634 -130.727)" style="fill:#263238"/>
                <g data-name="组 8669" style="opacity:.4">
                    <path data-name="矩形 10089" d="M36.753 79.432h68.742v53.408H36.753z"/>
                </g>
                <path data-name="路径 16817" d="M144 224.188h-13.1l-.8-1.312a2.871 2.871 0 0 0-2.474-1.416h-9.616a2.871 2.871 0 0 0-2.871 2.728h-3.428a2.688 2.688 0 0 0-2.688 2.688v6.665h37.62v-6.665a2.688 2.688 0 0 0-2.643-2.688z" transform="translate(-66.932 -142.728)" style="fill:#e0e0e0"/>
                <path data-name="路径 16818" d="M152.634 224.188h-13.06l-.8-1.312a2.863 2.863 0 0 0-2.474-1.416h-9.61a2.863 2.863 0 0 0-2.863 2.728h-3.437a2.688 2.688 0 0 0-2.68 2.688v6.665h37.612v-6.665a2.688 2.688 0 0 0-2.688-2.688z" transform="translate(-68.708 -142.728)" style="fill:#ebebeb"/>
                <path data-name="路径 16819" d="M163.912 224.188h-13.068l-.8-1.312a2.887 2.887 0 0 0-2.481-1.416h-9.603a2.863 2.863 0 0 0-2.863 2.728h-3.428a2.688 2.688 0 0 0-2.688 2.688v6.665h37.612v-6.665a2.688 2.688 0 0 0-2.68-2.688z" transform="translate(-71.015 -142.728)" style="fill:#f5f5f5"/>
                <path data-name="路径 16820" d="M134.79 258.565v-32.029a2.768 2.768 0 0 1 2.887-2.641h2.76a2.911 2.911 0 0 0 2.617-1.543l.6-1.177a2.919 2.919 0 0 1 2.617-1.535h13.1a2.943 2.943 0 0 1 2.489 1.3l.644.994a2.951 2.951 0 0 0 2.481 1.3h16.7a2.768 2.768 0 0 1 2.887 2.641v32.681z" transform="translate(-72.204 -142.355)" style="fill:#ff725e"/>
                <g data-name="组 8670" style="opacity:.3">
                    <path data-name="路径 16821" d="M62.586 116.209V84.18a2.768 2.768 0 0 1 2.887-2.641h2.76a2.911 2.911 0 0 0 2.617-1.543l.6-1.177a2.919 2.919 0 0 1 2.617-1.535h13.1a2.943 2.943 0 0 1 2.489 1.3l.644.994a2.951 2.951 0 0 0 2.481 1.3h16.7a2.768 2.768 0 0 1 2.887 2.641V116.2z"/>
                </g>
                <path data-name="路径 16822" d="M147.94 228.3v-25.272a3.77 3.77 0 0 1 3.778-3.778H192a3.778 3.778 0 0 1 3.778 3.778V227.6z" transform="translate(-74.895 -138.183)" style="fill:#fff"/>
                <path data-name="路径 16823" d="M149.92 235.045v-32.021a2.776 2.776 0 0 1 2.887-2.649h2.744a2.919 2.919 0 0 0 2.625-1.535l.589-1.177a2.927 2.927 0 0 1 2.625-1.543h13.1a2.951 2.951 0 0 1 2.481 1.3l.644.994a2.935 2.935 0 0 0 2.489 1.3h16.7a2.768 2.768 0 0 1 2.887 2.641v32.681z" transform="translate(-75.3 -137.542)" style="fill:#ff725e"/>
                <path data-name="路径 16824" d="M149.92 235h3.68l10.236-.048 35.863-.1-.191.191V203.14a8.925 8.925 0 0 0 0-1.145 2.426 2.426 0 0 0-1.249-1.71 2.872 2.872 0 0 0-.962-.326 7.793 7.793 0 0 0-1.066 0h-16.024a3.182 3.182 0 0 1-1.082-.167 3.038 3.038 0 0 1-1.686-1.32l-.549-.859a2.641 2.641 0 0 0-.636-.692 2.847 2.847 0 0 0-1.758-.565h-13.433a2.792 2.792 0 0 0-1.535.7c-.843.724-.931 2.187-2.028 2.911a3.181 3.181 0 0 1-1.718.6h-1.726a14.15 14.15 0 0 0-1.654 0 2.744 2.744 0 0 0-1.408.628 2.426 2.426 0 0 0-.8 1.265 8.256 8.256 0 0 0-.072 1.551v6.029c0 7.691-.056 13.919-.08 18.245v.1c0-4.335-.048-10.578-.08-18.293v-6.069a8.232 8.232 0 0 1 .072-1.638 2.744 2.744 0 0 1 .74-1.463 3.181 3.181 0 0 1 1.591-.708 15.515 15.515 0 0 1 1.71-.048h1.71a2.815 2.815 0 0 0 1.527-.533c.97-.612 1.01-1.972 1.988-2.9a3.181 3.181 0 0 1 1.734-.8c.652-.056 1.241 0 1.869 0h11.617a3.181 3.181 0 0 1 2 .636 2.9 2.9 0 0 1 .732.8l.557.859a2.665 2.665 0 0 0 1.471 1.153 2.728 2.728 0 0 0 .954.143h16.018a6.849 6.849 0 0 1 1.129.04 3.253 3.253 0 0 1 1.106.374 2.855 2.855 0 0 1 1.448 2 8.976 8.976 0 0 1 .04 1.209v32.045h-.191l-35.982-.1-10.2-.048h-3.38z" transform="translate(-75.3 -137.499)" style="fill:#263238"/>
                <path data-name="路径 16825" d="M175.818 199.7a34.367 34.367 0 0 1-5.289.207 34.456 34.456 0 0 1-5.289-.207 33.283 33.283 0 0 1 5.289-.207 33.206 33.206 0 0 1 5.289.207z" transform="translate(-78.435 -138.227)" style="fill:#fff"/>
                <path data-name="路径 16826" d="M169.4 251.986v-32.045c0-1.455 1.463-2.641 3.269-2.641h3.118a3.388 3.388 0 0 0 2.959-1.535l.676-1.161a3.388 3.388 0 0 1 2.959-1.535h14.8a3.46 3.46 0 0 1 2.816 1.3l.724.994a3.484 3.484 0 0 0 2.808 1.3h18.842c1.805 0 3.261 1.185 3.261 2.641v32.673z" transform="translate(-79.286 -141.01)" style="fill:#ff725e"/>
                <path data-name="路径 16827" d="M169.376 251.934h4.184l11.612-.056 40.46-.087-.191.191v-32.967a2.386 2.386 0 0 0-1.185-1.7 3.722 3.722 0 0 0-2.155-.509h-18.294a4.1 4.1 0 0 1-2.219-.5 3.054 3.054 0 0 1-.9-.732c-.247-.31-.437-.589-.66-.891a3.022 3.022 0 0 0-1.591-1.257 5.416 5.416 0 0 0-2.044-.223h-14.259a3.516 3.516 0 0 0-1.726.549 2.7 2.7 0 0 0-.668.6 7.239 7.239 0 0 0-.477.8c-.159.278-.3.541-.477.8a2.9 2.9 0 0 1-.676.716 3.738 3.738 0 0 1-1.766.716c-1.265.08-2.386 0-3.611 0a3.293 3.293 0 0 0-2.855 1.352 2.386 2.386 0 0 0-.342 1.519v4.82c0 8.264-.064 14.945-.08 19.59 0 2.307 0 4.112-.04 5.345v.064c0-1.233 0-3.022-.04-5.321 0-4.653-.048-11.358-.08-19.637v-4.836a2.776 2.776 0 0 1 .382-1.694 3.635 3.635 0 0 1 3.126-1.511c1.161 0 2.386 0 3.563-.048a3.372 3.372 0 0 0 1.591-.652 3.977 3.977 0 0 0 1.058-1.44 8.618 8.618 0 0 1 .509-.8 2.887 2.887 0 0 1 .748-.676 3.85 3.85 0 0 1 1.9-.62h14.285a5.568 5.568 0 0 1 2.179.247 3.4 3.4 0 0 1 1.75 1.392c.215.286.43.6.636.867a2.918 2.918 0 0 0 .8.636 3.77 3.77 0 0 0 2.028.445h18.289a4.152 4.152 0 0 1 2.386.565 2.776 2.776 0 0 1 1.368 2.02v33.134h-.194l-40.563-.1-11.66-.111h-4.1z" transform="translate(-79.263 -140.959)" style="fill:#263238"/>
                <path data-name="路径 16828" d="M199.926 217.16a59.878 59.878 0 0 1-6.983.207 59.878 59.878 0 0 1-6.983-.207 57.836 57.836 0 0 1 6.983-.207 57.843 57.843 0 0 1 6.983.207z" transform="translate(-82.675 -141.8)" style="fill:#fff"/>
                <path data-name="矩形 10090" transform="translate(36.753 90.106)" style="fill:#455a64" d="M0 0h50.028v43.124H0z"/>
                <g data-name="组 8671" style="opacity:.3">
                    <path data-name="矩形 10091" d="M36.753 90.106h50.028v43.124H36.753z"/>
                </g>
                <path data-name="矩形 10092" transform="translate(86.781 78.732)" style="fill:#455a64" d="M0 0h78.859v56.041H0z"/>
                <path data-name="路径 16829" d="M244.026 277.417v-4c0-2.609 0-6.426-.04-11.3 0-9.751-.056-23.741-.087-40.73l.167.167-78.851.04.207-.207v56.033l-.191-.183 56.844.087 16.209.056h.08l-16.162.048-56.971.1H165V221.09h79.233v.175c-.04 17.036-.072 31.019-.087 40.833 0 4.86 0 8.661-.048 11.262v2.94a7.611 7.611 0 0 1-.072 1.117z" transform="translate(-78.386 -142.652)" style="fill:#263238"/>
                <g data-name="组 8672" style="opacity:.3">
                    <path data-name="矩形 10093" d="M112.177 115.644h36.586v5.432h-36.586z"/>
                </g>
                <rect data-name="矩形 10094" width="20.512" height="15.716" rx="2.49" transform="translate(119.017 94.623)" style="fill:#fff"/>
                <path data-name="路径 16830" d="M211.206 247.29h4.194v1.41h-.2a1.265 1.265 0 0 0-.565-1.018 1.758 1.758 0 0 0-.8-.159v3.667a.716.716 0 0 0 .127.509.859.859 0 0 0 .565.127v.183h-2.458v-.175a.8.8 0 0 0 .541-.127.724.724 0 0 0 .135-.509v-3.667a1.829 1.829 0 0 0-.8.159 1.185 1.185 0 0 0-.565 1.018h-.2z" transform="translate(-87.839 -148.014)" style="fill:#263238"/>
                <path data-name="路径 16831" d="M224.6 247.707a26.246 26.246 0 0 1-6.578 0 26.247 26.247 0 0 1 6.578 0z" transform="translate(-89.236 -148.057)" style="fill:#263238"/>
                <path data-name="路径 16832" d="M224.766 251.407a26.319 26.319 0 0 1-6.586 0 26.319 26.319 0 0 1 6.586 0z" transform="translate(-89.269 -148.814)" style="fill:#263238"/>
                <path data-name="路径 16833" d="M224.4 255.1a46.2 46.2 0 0 1-6.132.207 46.206 46.206 0 0 1-6.132-.207 44.633 44.633 0 0 1 6.132-.207 44.633 44.633 0 0 1 6.132.207z" transform="translate(-88.033 -149.564)" style="fill:#263238"/>
                <path data-name="路径 16834" d="M182.309 355.895v-15.311c0-9.751-.056-23.741-.087-40.73l.167.167-78.851.04.207-.207v56.041l-.183-.191 56.844.1 16.209.048h.08l-16.162.048-56.971.1h-.191v-56.44h.215l78.851.04h.167v.167c-.04 17.036-.072 31.059-.087 40.833 0 4.868 0 8.669-.048 11.27v2.943a3.226 3.226 0 0 1-.16 1.082z" transform="translate(-65.774 -158.711)" style="fill:#263238"/>
                <g data-name="组 8673" style="opacity:.3">
                    <path data-name="矩形 10095" d="M61.791 175.59h33.357v5.432H61.791z"/>
                </g>
                <rect data-name="矩形 10096" width="20.512" height="15.716" rx="2.49" transform="translate(68.79 154.474)" style="fill:#fff"/>
                <path data-name="路径 16835" d="M153.1 329.074a1.209 1.209 0 1 1-.517-1.591 1.209 1.209 0 0 1 .517 1.591z" transform="translate(-75.48 -164.396)" style="fill:#263238"/>
                <path data-name="路径 16836" d="M153.617 327.555a6.776 6.776 0 0 1-.406-2.8 11.184 11.184 0 0 1 .143-2.816 8.375 8.375 0 0 1 .278 2.808 16.153 16.153 0 0 1-.016 2.808z" transform="translate(-75.967 -163.291)" style="fill:#263238"/>
                <path data-name="路径 16837" d="M157.244 322.642a3.356 3.356 0 0 1-3.531-.087c-.326-.247-.414-.5-.366-.525s.207.127.533.278a3.721 3.721 0 0 0 1.328.35c1.098.142 1.992-.143 2.036-.016z" transform="translate(-75.999 -163.309)" style="fill:#263238"/>
                <path data-name="路径 16838" d="M157.953 329.956a1.2 1.2 0 1 1 .083-.923 1.209 1.209 0 0 1-.083.923z" transform="translate(-76.477 -164.57)" style="fill:#263238"/>
                <path data-name="路径 16839" d="M158.469 328.415a6.864 6.864 0 0 1-.4-2.8 11.428 11.428 0 0 1 .135-2.816 8.375 8.375 0 0 1 .278 2.808 16.154 16.154 0 0 1-.013 2.808z" transform="translate(-76.961 -163.467)" style="fill:#263238"/>
                <path data-name="路径 16840" d="M157.34 323.782a2.474 2.474 0 0 1-1.925.525 2.386 2.386 0 0 1-1.845-.732c.056-.1.843.262 1.869.31s1.853-.222 1.901-.103z" transform="translate(-76.047 -163.622)" style="fill:#263238"/>
                <path data-name="路径 16841" d="M182.3 432.573v-15.311c0-9.751-.056-23.733-.087-40.73l.167.167-78.851.04.207-.207v56.041l-.183-.191 56.844.1 16.209.048h.056l-16.162.048-56.971.1h-.191V376.23h79.233v.167c-.04 17.036-.072 31.059-.087 40.841 0 4.86 0 8.661-.048 11.262v2.943a4.337 4.337 0 0 1-.136 1.13z" transform="translate(-65.767 -174.401)" style="fill:#263238"/>
                <g data-name="组 8674" style="opacity:.3">
                    <path data-name="矩形 10097" d="M61.791 236.578h33.357v5.432H61.791z"/>
                </g>
                <rect data-name="矩形 10098" width="20.512" height="15.716" rx="2.49" transform="translate(68.79 215.263)" style="fill:#fff"/>
                <path data-name="路径 16842" d="m156.277 400.572 1.591.939a.469.469 0 0 1 0 .8l-1.591 1-1.591.97a.469.469 0 0 1-.716-.406v-3.834a.469.469 0 0 1 .708-.406z" transform="translate(-76.129 -179.177)" style="fill:#263238"/>
            </g>
            <g transform="translate(1368.99 451.265)">
                <path data-name="路径 16843" d="M346.861 110.441a2.641 2.641 0 1 1-2.641-2.641 2.641 2.641 0 0 1 2.641 2.641z" transform="translate(-341.38 -70.224)" style="fill:#fff"/>
                <path data-name="路径 16844" d="M346.81 110.4a5.626 5.626 0 0 0-.159-.62 2.664 2.664 0 0 0-.97-1.36 2.505 2.505 0 0 0-2.346-.318 2.458 2.458 0 0 0 0 4.605 2.505 2.505 0 0 0 2.346-.318 2.664 2.664 0 0 0 .97-1.36c.119-.39.127-.628.159-.628a1.225 1.225 0 0 1 0 .668 2.625 2.625 0 0 1-.954 1.591 2.76 2.76 0 0 1-2.648.445 2.823 2.823 0 0 1 0-5.321 2.736 2.736 0 0 1 2.648.445 2.625 2.625 0 0 1 .954 1.591.953.953 0 0 1 0 .58z" transform="translate(-341.329 -70.188)" style="fill:#263238"/>
                <circle data-name="椭圆 550" cx="21.848" cy="21.848" r="21.848" transform="translate(6.531 .155)" style="fill:#fff"/>
                <path data-name="路径 16845" d="M393.181 82.559a1.742 1.742 0 0 1-.04-.35l-.08-1.042a7.71 7.71 0 0 0-.048-.8 6.968 6.968 0 0 0-.135-.907 16.45 16.45 0 0 0-.461-2.251 21.045 21.045 0 0 0-2.386-5.782 21.7 21.7 0 0 0-26.048-9.25 23.24 23.24 0 0 0-2.823 1.241c-.453.255-.891.541-1.344.8a10.961 10.961 0 0 0-1.312.9 24.165 24.165 0 0 0-2.49 2.155 23.861 23.861 0 0 0-2.124 2.505 21.044 21.044 0 0 0-3.094 5.965 21.514 21.514 0 0 0 0 13.664 20.846 20.846 0 0 0 3.094 5.965 23.863 23.863 0 0 0 2.124 2.505 24.171 24.171 0 0 0 2.45 2.092 10.961 10.961 0 0 0 1.312.9c.453.27.891.565 1.344.8a23.24 23.24 0 0 0 2.824 1.241 21.65 21.65 0 0 0 26.016-9.242 21.181 21.181 0 0 0 2.386-5.79 16.441 16.441 0 0 0 .461-2.251c.048-.326.111-.628.135-.907s.04-.533.048-.8l.08-1.034a1.775 1.775 0 0 1 .04-.358v2.2a7.933 7.933 0 0 1-.119.923 15.259 15.259 0 0 1-.429 2.267 20.609 20.609 0 0 1-2.386 5.862 21.92 21.92 0 0 1-26.374 9.489 22.882 22.882 0 0 1-2.88-1.269c-.469-.255-.915-.549-1.376-.8a11.578 11.578 0 0 1-1.328-.915 24.244 24.244 0 0 1-2.505-2.124 23.813 23.813 0 0 1-2.163-2.553 21.133 21.133 0 0 1-3.181-6.076 21.864 21.864 0 0 1 0-13.919 21.331 21.331 0 0 1 3.181-6.076 25.8 25.8 0 0 1 2.163-2.553 24.246 24.246 0 0 1 2.521-2.108 11.582 11.582 0 0 1 1.328-.915c.461-.27.915-.565 1.376-.8a24.1 24.1 0 0 1 2.879-1.257 21.723 21.723 0 0 1 26.374 9.409 20.609 20.609 0 0 1 2.386 5.862 15.166 15.166 0 0 1 .43 2.275c.04.326.1.636.119.915s0 .541 0 .8v1.042a.743.743 0 0 0 .055.352z" transform="translate(-342.946 -60.555)" style="fill:#263238"/>
                <path data-name="路径 16846" d="M373.827 90.5a6.617 6.617 0 1 1 6.617-6.617 6.617 6.617 0 0 1-6.617 6.617zm0-12.431a5.822 5.822 0 1 0 5.822 5.814 5.822 5.822 0 0 0-5.822-5.814z" transform="translate(-346.625 -63.976)" style="fill:#263238"/>
                <path data-name="矩形 10099" transform="rotate(-35.96 54.223 -34.063)" style="fill:#263238" d="M0 0h.795v6.45H0z"/>
                <path data-name="路径 16847" d="M371.362 82.52a3.81 3.81 0 0 0 1.137 5.671" transform="translate(-347.309 -65.05)" style="fill:#fff"/>
                <path data-name="路径 16848" d="M372.444 88.185a2.111 2.111 0 0 1-.867-.469 3.69 3.69 0 0 1-.915-4.43 1.824 1.824 0 0 1 .62-.8c.04 0-.159.35-.35.891a4.1 4.1 0 0 0-.167 2.171 4.152 4.152 0 0 0 1.01 1.933c.415.441.725.64.669.704z" transform="translate(-347.255 -65.044)" style="fill:#263238"/>
            </g>
            <g>
                <path data-name="路径 16849" d="M333.236 159.244c-1.185-21.3-10.705-31.2-13.521-47.848-1.4-8.359-1.042-16.917-6.967-22.97a17.77 17.77 0 0 0-9.139-4.772 12.137 12.137 0 0 0-5.734.565c-2.808-.414-4.064-.549-6.045 0a16.3 16.3 0 0 0-7.118 4.335c-4.223 5.154-5.09 12.241-5.162 18.906a111.032 111.032 0 0 0 4.45 31.86 4.47 4.47 0 0 0 1.487 2.617 4.373 4.373 0 0 0 3.181.326 63.54 63.54 0 0 0 12.026-3.134 4.032 4.032 0 0 0 1.527-.8c1.074-1.1.62-2.911.127-4.367l10.793-9.234c-.716 6.426-2.784 12.622-3.7 19.017a53.829 53.829 0 0 0 1.75 22.874 34.8 34.8 0 0 1 12.726-.286c1.01.159 2.656 8.168 3.555 7.667 1.556-.877 5.867-12.943 5.764-14.756z" transform="translate(1040.54 367.716)" style="fill:#263238"/>
                <path data-name="路径 16850" d="m295.863 90.022 3.062-.342 11.692 4.708a3.269 3.269 0 0 1 3.083 3.182l-.1 38.105a10.674 10.674 0 0 1-2.06 6.88l-1.646 2.171a8.627 8.627 0 0 1-14.412-.915 4.249 4.249 0 0 1-.414-.986 6.494 6.494 0 0 1-.175-.851 27.042 27.042 0 0 1-.366-5.719c-.207-3.372-.278-4.772-.278-4.716s-7.158-.8-9.1-10.021c-.962-4.573-1.113-12.145-1.034-18.341.072-5.591 4.86-13.163 11.748-13.155z" transform="translate(1039.608 366.461)" style="fill:#ffbe9d"/>
                <path data-name="路径 16851" d="M286.91 115.447a1.209 1.209 0 0 0 1.209 1.145 1.137 1.137 0 0 0 1.169-1.137 1.193 1.193 0 0 0-1.2-1.145 1.145 1.145 0 0 0-1.177 1.137z" transform="translate(1039.033 361.421)" style="fill:#263238"/>
                <path data-name="路径 16852" d="M301.87 114.509a1.185 1.185 0 0 0 1.209 1.145 1.137 1.137 0 0 0 1.169-1.129 1.185 1.185 0 0 0-1.2-1.145 1.137 1.137 0 0 0-1.177 1.129z" transform="translate(1035.971 361.611)" style="fill:#263238"/>
                <path data-name="路径 16853" d="M286.354 111.087c.151.151 1.018-.565 2.3-.62s2.251.525 2.386.366-.1-.35-.517-.62a3.293 3.293 0 0 0-1.917-.493 3.181 3.181 0 0 0-1.821.692c-.391.325-.511.611-.431.675z" transform="translate(1039.151 362.361)" style="fill:#263238"/>
                <path data-name="路径 16854" d="M301.614 110.238c.159.143 1-.589 2.283-.692s2.259.469 2.386.3-.1-.342-.541-.6a3.239 3.239 0 0 0-3.73.31c-.366.332-.478.619-.398.682z" transform="translate(1036.029 362.55)" style="fill:#263238"/>
                <path data-name="路径 16855" d="M296.208 120.4a8.861 8.861 0 0 0-2.1-.27c-.326 0-.636-.064-.7-.286a1.591 1.591 0 0 1 .167-.978c.27-.8.549-1.646.843-2.537a41.759 41.759 0 0 0 1.837-6.609 43.72 43.72 0 0 0-2.386 6.45l-.8 2.545a1.877 1.877 0 0 0-.111 1.3.8.8 0 0 0 .565.445 2.052 2.052 0 0 0 .557.048 7.763 7.763 0 0 0 2.128-.108z" transform="translate(1037.808 362.36)" style="fill:#263238"/>
                <path data-name="路径 16856" d="M296.9 141.229a23.646 23.646 0 0 0 12.248-3.929s-2.8 6.57-12.121 6.164z" transform="translate(1036.988 356.716)" style="fill:#eb996e"/>
                <path data-name="路径 16857" d="M297.9 126.751a2.306 2.306 0 0 1 2.028-.962 2.084 2.084 0 0 1 1.487.708 1.32 1.32 0 0 1 .183 1.519 1.591 1.591 0 0 1-1.654.509 4.772 4.772 0 0 1-1.686-.9 1.265 1.265 0 0 1-.382-.358.422.422 0 0 1 0-.477" transform="translate(1036.803 359.073)" style="fill:#eb996e"/>
                <path data-name="路径 16858" d="M300.845 124c-.207 0-.143 1.384-1.281 2.434s-2.625.962-2.625 1.161.342.255.97.239a3.476 3.476 0 0 0 2.2-.891 3.014 3.014 0 0 0 .978-2.036c.021-.557-.122-.907-.242-.907z" transform="translate(1036.98 359.438)" style="fill:#263238"/>
                <path data-name="路径 16859" d="M301.614 104.373c.191.31 1.257-.119 2.593-.262s2.489 0 2.585-.35c.04-.159-.215-.437-.724-.66a3.977 3.977 0 0 0-2.044-.278 3.874 3.874 0 0 0-1.9.74c-.424.337-.597.659-.51.81z" transform="translate(1036.028 363.779)" style="fill:#263238"/>
                <path data-name="路径 16860" d="M285.991 104.97c.239.286 1.106-.064 2.163-.127s1.965.1 2.163-.223c.08-.151-.08-.429-.485-.692a2.959 2.959 0 0 0-1.782-.382 2.991 2.991 0 0 0-1.7.668c-.359.318-.45.621-.359.756z" transform="translate(1039.228 363.627)" style="fill:#263238"/>
                <path data-name="路径 16861" d="M319 118.539c0-.684.684-2.386 1.36-2.5 1.805-.374 5.1-.39 5.361 4.231.358 6.315-6.061 5.369-6.084 5.194s-.494-4.539-.637-6.925z" transform="translate(1032.466 361.097)" style="fill:#ffbe9d"/>
                <path data-name="路径 16862" d="M322.1 123.474a1.741 1.741 0 0 0 .3.143 1.066 1.066 0 0 0 .8 0 2.745 2.745 0 0 0 1.121-2.521 3.578 3.578 0 0 0-.4-1.591 1.288 1.288 0 0 0-.875-.8.573.573 0 0 0-.636.342c-.072.183 0 .3-.056.318s-.143-.1-.111-.366a.716.716 0 0 1 .231-.406.8.8 0 0 1 .6-.2 1.591 1.591 0 0 1 1.209.915 3.738 3.738 0 0 1 .477 1.742c0 1.273-.549 2.505-1.448 2.816a1.161 1.161 0 0 1-1.018-.111c-.18-.106-.219-.265-.194-.281z" transform="translate(1031.833 360.585)" style="fill:#eb996e"/>
                <path data-name="路径 16863" d="M314.789 103.108c.445-2.521-.5-6.053-1.153-8.51a9.242 9.242 0 0 0-3.786-4.971 15.406 15.406 0 0 0-9.544-2.879l-1.265.414c-1.869-.151-3.865.247-4.891 1.758v-1.695a12.5 12.5 0 0 0-8.343 5.472 29.562 29.562 0 0 0-3.977 9.417 103.84 103.84 0 0 0 12.185-12.272c3.651 4.772 9.059 7.842 13.99 11.413a18.388 18.388 0 0 1 1.09 7.254c0 6.2 1.312 11.811 1.8 18.007.278 3.571.255 6.625 3.905 6.315.467-11.438-1.975-18.485-.011-29.723z" transform="translate(1040.072 367.064)" style="fill:#263238"/>
                <path data-name="路径 16864" d="M325.461 106.234a5.934 5.934 0 0 1-1.758.318 17.029 17.029 0 0 1-4.295-.167 20.282 20.282 0 0 1-4.128-1.193 6.363 6.363 0 0 1-1.591-.8c.056-.135 2.529 1.018 5.79 1.591a33.759 33.759 0 0 0 5.982.251z" transform="translate(1033.552 363.452)" style="fill:#455a64"/>
                <path data-name="路径 16865" d="M321.22 100a5.567 5.567 0 0 1-1.01-.064c-.652-.064-1.591-.2-2.728-.414a46.616 46.616 0 0 1-16.774-6.8 44.35 44.35 0 0 1-2.243-1.591 4.351 4.351 0 0 1-.8-.66 5.1 5.1 0 0 1 .859.533c.541.366 1.328.875 2.307 1.487a53.358 53.358 0 0 0 16.671 6.761c1.129.247 2.052.429 2.7.541a4.247 4.247 0 0 1 1.018.207z" transform="translate(1036.831 366.3)" style="fill:#455a64"/>
                <path data-name="路径 16866" d="M283.246 103.37a6.164 6.164 0 0 1-1.455 1.694 6.259 6.259 0 0 1-1.742 1.408c-.08-.087.573-.843 1.455-1.7a6.139 6.139 0 0 1 1.742-1.4z" transform="translate(1040.438 363.66)" style="fill:#455a64"/>
                <path data-name="路径 16867" d="M279.873 154.5c.708-1.233.175-6.275.175-6.275l-1.638 2.951c-3.46 1.344-8.216 3.261-9.544 4.2-2 1.4-4.7 7.3-4.7 7.3l-16.7 21.141-31.218-5.472-2.935 15.676 10.546 2.187 18.541 2.382c5.21 1.121 10.276 1.535 14.316-1.885l.278-.541c-1.471 21.077.557 44.317 1.249 65.426a11.421 11.421 0 0 0 .883 4.836c1.066 2.084 5.011 3.181 7.325 2.871s1.591-1.79 2.076-4.072c.27-1.249-.9-2.983-1.05-4.247q-3.412-27.519-6.816-55.031a142.846 142.846 0 0 0-.231-3.11c-.8-9.7-.915-12.312-.485-16.75.673-6.848 15.155-23.264 19.928-31.587z" transform="translate(1054.095 354.481)" style="fill:#ff725e"/>
                <path data-name="路径 16868" d="M273.355 173.33a4.866 4.866 0 0 1-.477.954 36.76 36.76 0 0 0-1.312 2.561 43.244 43.244 0 0 0-4.3 18.365c0 1.217 0 2.2.04 2.879a4.59 4.59 0 0 1 0 1.066 6.088 6.088 0 0 1-.159-1.05 28.635 28.635 0 0 1-.175-2.9 39.068 39.068 0 0 1 4.335-18.524 28.277 28.277 0 0 1 1.44-2.521 5.375 5.375 0 0 1 .608-.83z" transform="translate(1043.115 349.343)" style="fill:#263238"/>
                <g data-name="组 8675" style="opacity:.3">
                    <path data-name="路径 16869" d="M1314.291 526.323a36.811 36.811 0 0 0-5.758 11.477c-1.074 4.168-.4 6.53-.493 10.9l2.505.565c-.557-7.838-.295-13.016 3.746-22.942z"/>
                </g>
                <path data-name="路径 16870" d="M271.107 184.08a1.593 1.593 0 0 1 0-.414c.048-.262.072-.668.191-1.169a33.564 33.564 0 0 1 1.281-4.16 122.167 122.167 0 0 1 5.933-13.044 185.931 185.931 0 0 1 2.171-4.088l.056-.1h.119l2.633-.048-.175.27a2.633 2.633 0 0 0-1.026-1.153l-.183-.119.143-.159a60.3 60.3 0 0 1 5.647-5.933 47.458 47.458 0 0 1 1.742-1.519 3.976 3.976 0 0 1 .66-.5 4.064 4.064 0 0 1-.581.589l-1.67 1.591a71.948 71.948 0 0 0-5.512 6l-.048-.27a2.959 2.959 0 0 1 1.177 1.312l.127.262h-.292l-2.633.072.167-.1c-.7 1.3-1.424 2.664-2.155 4.08-2.553 4.971-4.708 9.544-6.029 12.956a39.165 39.165 0 0 0-1.392 4.1 13.478 13.478 0 0 1-.351 1.544z" transform="translate(1042.27 353.72)" style="fill:#263238"/>
                <path data-name="路径 16871" d="m310.585 428 10.252 16.5s-13.33 15.971-11.731 19.2l32.721-18.731-14.961-26.369z" transform="translate(1034.518 299.149)" style="fill:#ff725e"/>
                <path data-name="路径 16872" d="M335.27 442.1a1.535 1.535 0 0 1 1.8.994 1.479 1.479 0 0 1-.97 1.79 1.591 1.591 0 0 1-1.893-1.066 1.527 1.527 0 0 1 1.217-1.75" transform="translate(1029.358 294.348)" style="fill:#e0e0e0"/>
                <g data-name="组 8676" style="opacity:.6">
                    <path data-name="路径 16873" d="m341.753 451.091-1.591-2.6-30.788 18.937s-1.1 1.463-.342 2.386z" transform="translate(1034.56 293.032)" style="fill:#fff"/>
                </g>
                <path data-name="路径 16874" d="M323.067 451.133c.1.159.939-.223 2.012-.159s1.885.493 2 .342-.652-.931-1.965-.986-2.166.675-2.047.803z" transform="translate(1031.636 292.657)" style="fill:#263238"/>
                <path data-name="路径 16875" d="M319.769 455.507c.056.175.9.048 1.829.414s1.5.994 1.654.891-.262-1.058-1.424-1.487-2.139.023-2.059.182z" transform="translate(1032.309 291.671)" style="fill:#263238"/>
                <path data-name="路径 16876" d="M319.551 461.631c.167-.056-.072-.978-.978-1.591s-1.861-.565-1.853-.39.74.374 1.479.907 1.185 1.143 1.352 1.074z" transform="translate(1032.932 290.772)" style="fill:#263238"/>
                <path data-name="路径 16877" d="M320.643 445.781c.151.1.8-.533 1.694-.986s1.805-.581 1.813-.8-.994-.366-2.092.183-1.566 1.522-1.415 1.603z" transform="translate(1032.135 293.991)" style="fill:#263238"/>
                <path data-name="路径 16878" d="m308.019 438.823 1.106 19.407s-19.351 7.635-19.494 11.238l37.692-.8-.477-30.3z" transform="translate(1038.476 295.103)" style="fill:#ff725e"/>
                <path data-name="路径 16879" d="M328.29 460.994a1.591 1.591 0 0 1 1.106 1.742 1.487 1.487 0 0 1-1.71 1.106 1.638 1.638 0 0 1-1.162-1.842 1.543 1.543 0 0 1 1.909-.954" transform="translate(1030.931 290.478)" style="fill:#e0e0e0"/>
                <g data-name="组 8677" style="opacity:.6">
                    <path data-name="路径 16880" d="m327.3 475.694-.167-3.054-36.061 1.877s-1.662.8-1.448 1.941z" transform="translate(1038.481 288.09)" style="fill:#fff"/>
                </g>
                <path data-name="路径 16881" d="M313.37 463.06c0 .183.931.247 1.845.8s1.416 1.336 1.591 1.265-.127-1.137-1.249-1.813-2.235-.419-2.187-.252z" transform="translate(1033.618 290.09)" style="fill:#263238"/>
                <path data-name="路径 16882" d="M308.44 465.251c-.04.183.8.477 1.408 1.241s.835 1.591 1.018 1.591.278-1.058-.533-1.988-1.893-1.019-1.893-.844z" transform="translate(1034.627 289.617)" style="fill:#263238"/>
                <path data-name="路径 16883" d="M305.345 470.471c.167.04.406-.891-.087-1.885s-1.368-1.384-1.44-1.225.469.676.859 1.5.486 1.594.668 1.61z" transform="translate(1035.574 289.177)" style="fill:#263238"/>
                <path data-name="路径 16884" d="M313.668 457.339c.08.167.915-.111 1.957-.056s1.861.358 1.957.2-.7-.8-1.933-.843-2.076.56-1.981.699z" transform="translate(1033.558 291.365)" style="fill:#263238"/>
                <path data-name="路径 16885" d="M277.2 256.71s-1.734 82.566-.175 88.284 33.469 64.153 33.469 64.153l19.256-9.457-25.531-61.7 5.631-79.337z" transform="translate(1041.189 332.279)" style="fill:#263238"/>
                <path data-name="路径 16886" d="M319.676 250.91s11.071 18.078 9.115 28.919c-.8 4.446-6.864 14.316-6.864 14.316v52.915l4.673 70.66h-22.433l-9.648-62.308a50.884 50.884 0 0 1-4.677-10.65c-1.3-4.931-5.52-63.278-5.52-63.278l-6.713-23.725z" transform="translate(1040.936 333.466)" style="fill:#263238"/>
                <path data-name="路径 16887" d="M336.433 413.72a9.694 9.694 0 0 0 0 1.487c0 .954.1 2.338.191 4.048.191 3.412.533 8.121.931 13.322s.732 9.91.954 13.322c.1 1.646.2 3.006.262 4.04a9.882 9.882 0 0 0 .151 1.479 8.348 8.348 0 0 0 0-1.487c0-.954-.048-2.338-.119-4.048-.135-3.42-.422-8.136-.8-13.338s-.8-9.831-1.058-13.314c-.143-1.646-.255-3.006-.35-4.04a9.211 9.211 0 0 0-.167-1.471z" transform="translate(1028.904 300.148)" style="fill:#455a64"/>
                <path data-name="路径 16888" d="M322.1 262.529a3.094 3.094 0 0 1-.6.684 13.452 13.452 0 0 1-1.925 1.591 15.35 15.35 0 0 1-15.645.923 13.525 13.525 0 0 1-2.1-1.328 3.348 3.348 0 0 1-.676-.6 31.6 31.6 0 0 0 2.9 1.662 15.82 15.82 0 0 0 15.358-.962 31.089 31.089 0 0 0 2.688-1.97z" transform="translate(1036.119 331.089)" style="fill:#455a64"/>
                <path data-name="路径 16889" d="M286.29 283.42a1.283 1.283 0 0 1 0 .294c0 .215.04.493.072.851.056.8.143 1.885.247 3.3.191 2.887.477 7.023.8 12.121.716 10.228 1.591 24.378 2.983 39.959.191 2.124.406 4.223.644 6.267.135 1.026.247 2.052.469 3.014a23.853 23.853 0 0 0 .939 2.847c1.384 3.73 2.863 7.254 4.279 10.546v.048c1.5 9.592 2.76 17.713 3.659 23.455l1.082 6.657c.135.756.239 1.336.318 1.758s.135.6.127.6a3.977 3.977 0 0 1-.191-.589c-.087-.4-.223-.978-.374-1.75-.3-1.535-.7-3.786-1.193-6.641-.978-5.711-2.291-13.823-3.8-23.439v.048c-1.432-3.293-2.919-6.816-4.319-10.554a23.92 23.92 0 0 1-.946-2.879c-.239-1.026-.35-2.044-.485-3.07-.247-2.06-.461-4.16-.644-6.283-1.368-15.6-2.219-29.746-2.863-39.982l-.6-12.145a383.126 383.126 0 0 1-.159-3.3v-.853a1.391 1.391 0 0 1-.045-.28z" transform="translate(1039.16 326.813)" style="fill:#455a64"/>
                <path data-name="路径 16890" d="M291.384 151.555s-.239 3.619 2.7 3.619c4.136 0 12.805-7.954 12.805-7.954l-16.7 39.863v48.246l-14.165 1.448s-1.662-.239-2-2.625c-.66-4.669-.565-13.179-1.106-16.7-1.686-10.9-4.995-16.83-4.526-25.451.692-12.829 18.747-35 18.747-35z" transform="translate(1042.83 354.686)" style="fill:#fff"/>
                <path data-name="路径 16891" d="M310.638 140.91a109.2 109.2 0 0 1-6.983 11.3c-3.611 5.019-26.485 40.062-26.485 40.062l9.139 71.089 1.018 6.021a3.006 3.006 0 0 0 3.595 2.45l40.4-7.1a3.667 3.667 0 0 0 2.871-4.685l-18.039-50.664 11.652-44.993s-.43-6.554-7.524-13.2c-1.352-1.265-6.928-5.886-7.85-7.158z" transform="translate(1041.026 355.977)" style="fill:#ff725e"/>
                <g data-name="组 8678" style="opacity:.3">
                    <path data-name="路径 16892" d="M1321.067 570.593s18.6 14.754 27.654 14.889 13.76-7.532 13.76-7.532l-18.206.5-23.86-13.114z"/>
                </g>
                <path data-name="路径 16893" d="M263.42 204.013s16.78 11.087 19.88 13.195 17.744 10.6 19.653 11.215 13.752.692 15.907-3.333 3.643-12.614 3.643-12.614l2.855-40.205a16.186 16.186 0 0 0-2.9-10.515c-1.734-2.45-4.025-4.661-6.506-4.287-5.289.8-16.663 13.577-16.114 20.146s.565 24.863.565 24.863l-29.961-9.918z" transform="translate(1043.84 352.597)" style="fill:#ff725e"/>
                <path data-name="路径 16894" d="M322.425 162.87a8.819 8.819 0 0 1 .549.8 14.528 14.528 0 0 1 1.273 2.442 15.906 15.906 0 0 1 1.1 4.295 32.916 32.916 0 0 1-.135 5.989c-.62 8.956-1.511 21.705-2.569 36.96q-.453 2.577-1.1 5.21a45.106 45.106 0 0 1-1.591 5.289 10.935 10.935 0 0 1-1.273 2.577 6.3 6.3 0 0 1-2.291 1.821 17.848 17.848 0 0 1-5.671 1.686 24.529 24.529 0 0 1-6.069.159 8.272 8.272 0 0 1-3.014-.8c-.931-.461-1.837-.97-2.744-1.471q-5.464-3.054-11.024-6.363c-4.446-2.577-8.574-5.488-12.678-8.168l-11.93-7.954-.159-.1.1-.159 7.055-11.644.08-.127.143.048 29.923 10.129-.175.119c.612-7.468 1.1-13.418 1.432-17.5.175-2.028.31-3.6.406-4.669.048-.517.08-.923.111-1.2s.048-.414.048-.414v.414c0 .27-.048.684-.08 1.209-.08 1.074-.191 2.649-.334 4.677-.3 4.1-.748 10.037-1.312 17.5v.175l-.167-.056-29.977-10.061.223-.08-7.047 11.652-.056-.262 11.93 7.914c4.12 2.688 8.224 5.567 12.654 8.152q5.567 3.317 11.016 6.363c.907.5 1.813 1 2.728 1.463a7.953 7.953 0 0 0 2.879.8 24.108 24.108 0 0 0 5.965-.151 17.6 17.6 0 0 0 5.568-1.63 6.069 6.069 0 0 0 2.163-1.71 10.447 10.447 0 0 0 1.225-2.481 44.576 44.576 0 0 0 1.591-5.249c.437-1.742.8-3.476 1.106-5.17 1.121-15.247 2.052-28 2.712-36.952a33 33 0 0 0 .183-5.957 15.764 15.764 0 0 0-1.034-4.271 16.088 16.088 0 0 0-1.217-2.45c-.159-.27-.294-.461-.374-.6z" transform="translate(1043.905 351.483)" style="fill:#263238"/>
                <path data-name="路径 16895" d="M283.58 185.188a2.992 2.992 0 0 1 .366-.422c.27-.3.636-.692 1.082-1.177l3.972-4.318 5.973-6.363c2.283-2.386 4.724-5.043 7.612-7.572v.3l-.239-.27-2.02-2.235-.334-.374h.5l3.738.191-.183.1 7.524-13.1 2.227-3.8.612-1.01c.143-.231.223-.35.239-.342a2.516 2.516 0 0 1-.175.374c-.143.27-.326.62-.557 1.042l-2.124 3.865-7.4 13.171-.064.1h-.129l-3.738-.191.167-.342 2.012 2.235.247.27.135.151-.159.143c-2.839 2.489-5.305 5.162-7.6 7.516l-6.029 6.315a299.224 299.224 0 0 1-4.1 4.231c-.485.493-.867.875-1.137 1.121a2.387 2.387 0 0 1-.422.382z" transform="translate(1039.714 355.181)" style="fill:#263238"/>
                <g data-name="组 8679" style="opacity:.3">
                    <path data-name="路径 16896" d="m1321.95 542.596 22.755-21.451-1.941-2.124h1.941l.509-2.927-1.281 2.259-3.746-.191 2.211 2.02-18.906 19.987z"/>
                </g>
                <path data-name="路径 16897" d="m300 267.532.382-.1 1.161-.247 4.39-.923 15.334-3.118h.135l.072.119 4.223 6.88.159.255-.294.056-.5.1-22.365 4.2h-.111l-.04-.111-1.909-5.257c-.2-.573-.366-1.026-.485-1.376a3.28 3.28 0 0 1-.151-.469 4.7 4.7 0 0 1 .223.5c.135.35.326.8.557 1.392l2.02 5.114-.151-.087 22.334-4.335.5-.1-.135.31-4.215-6.888.207.1-15.223 2.9-4.462.8-1.209.207a3.005 3.005 0 0 1-.445.087z" transform="translate(1036.354 330.961)" style="fill:#263238"/>
                <g data-name="组 8680" style="opacity:.3">
                    <path data-name="路径 16898" d="m1336.569 599.17 1.615 8.343 23.161-4.176-.644-1.933-21.713 4.144z"/>
                </g>
                <path data-name="路径 16899" d="M315.707 221.1c-.119.056-1.082-1.853-2.808-3.8s-3.492-3.181-3.42-3.269a13.982 13.982 0 0 1 6.228 7.071z" transform="translate(1034.414 341.014)" style="fill:#263238"/>
                <path data-name="路径 16900" d="M207.16 188.844s-5.806-3.476-8.129-5.7c0 0-3.38-1.066-4.931 1.066 0 0-3.579.986-4.056 1.654s-3.484 5.305-3.484 5.305 1.591 5.528 1.742 5.806c.286.6.939 1.241 1.487.573a1.161 1.161 0 0 0 .255-.8v-.366l.867-.612s.39 2.147 1.551 1.813a20.186 20.186 0 0 0 3.77-2.267s3.675 2.092 5.607 2.307a60.632 60.632 0 0 1 6.363 1.424l1.957-10.507z" transform="translate(1059.569 347.389)" style="fill:#ffbe9d"/>
                <path data-name="路径 16901" d="M190.378 197.755a.478.478 0 0 1-.453.087 1.185 1.185 0 0 1-.8-.954 17.172 17.172 0 0 1 0-4.04 36.9 36.9 0 0 1 .636-3.977 6.824 6.824 0 0 1 .429-1.591c.143 0-.31 2.521-.652 5.567a23.588 23.588 0 0 0-.143 3.977 1 1 0 0 0 .589.851c.227.112.386.048.394.08z" transform="translate(1059.068 346.488)" style="fill:#eb996e"/>
                <path data-name="路径 16902" d="M198.369 189.05a4.645 4.645 0 0 1-2.744 1.273l.167-.151-.048.207a13.043 13.043 0 0 1-.954 3.07 12.646 12.646 0 0 1 .549-3.181l.056-.2v-.135h.135a20.386 20.386 0 0 0 2.839-.883z" transform="translate(1057.885 346.126)" style="fill:#eb996e"/>
                <path data-name="路径 16903" d="M202.459 189.773a2.855 2.855 0 0 0-3.181-.652l-.6.8-4.581 3.818a7.039 7.039 0 0 0-2.052 2.314 2.386 2.386 0 0 0 .477 2.847 2.738 2.738 0 0 0 3.245-.429c.915-.74 1.591-1.774 2.529-2.466 1.479-1.09 3.627-1.384 4.534-2.975a2.855 2.855 0 0 0-.371-3.257z" transform="translate(1058.504 346.158)" style="fill:#ffbe9d"/>
                <path data-name="路径 16904" d="M198.924 188.15a2.537 2.537 0 0 1-.406 1.662 6.181 6.181 0 0 1-1.153 1.487 15.166 15.166 0 0 1-1.79 1.392 11.136 11.136 0 0 0-3.03 2.6 9.893 9.893 0 0 0-.8 1.463 2.68 2.68 0 0 1 .533-1.63 6.872 6.872 0 0 1 1.225-1.416 19.222 19.222 0 0 1 1.813-1.36 15.964 15.964 0 0 0 1.766-1.336 6.41 6.41 0 0 0 1.161-1.344 8.225 8.225 0 0 0 .681-1.518z" transform="translate(1058.507 346.31)" style="fill:#eb996e"/>
                <path data-name="路径 16905" d="M229.74 208.358s.167-5.695 1.591-7.389 9.878-3.85 9.878-3.85l21.188 4.915-4.923 7.954-1.487-1.4s-6.665 2-9.958 1.281a37.428 37.428 0 0 1-5.742-1.71l-3.452.239s-2.489 2.577-3.293 2.577-1.686-.724-1.288-1.527l-.716-1.209s-1.472.843-1.798.119z" transform="translate(1050.732 344.474)" style="fill:#ffbe9d"/>
                <path data-name="路径 16906" d="M241.5 206.257a3.571 3.571 0 0 1-1.511.517 25.957 25.957 0 0 0-3.7.724 5.162 5.162 0 0 0-2.656 2.434 8.891 8.891 0 0 1-.8 1.36 4.415 4.415 0 0 1 .541-1.5 6.362 6.362 0 0 1 .962-1.471 4.422 4.422 0 0 1 1.805-1.217 17.665 17.665 0 0 1 3.794-.628c.986-.099 1.543-.276 1.565-.219z" transform="translate(1050.098 342.606)" style="fill:#eb996e"/>
                <path data-name="路径 16907" d="M239.6 201c0 .056-.676.167-1.726.541a17.316 17.316 0 0 0-1.8.724 8.749 8.749 0 0 0-2 1.193 4.629 4.629 0 0 0-.684.962c-.2.342-.382.676-.541 1a9.647 9.647 0 0 0-.692 1.8c-.278 1.066-.231 1.758-.3 1.766a3.651 3.651 0 0 1 0-1.829 8.4 8.4 0 0 1 .628-1.9c.159-.342.342-.692.541-1.042a4.629 4.629 0 0 1 .756-1.066 8.519 8.519 0 0 1 2.147-1.273 15.018 15.018 0 0 1 1.877-.66 4.351 4.351 0 0 1 1.8-.215z" transform="translate(1050.324 343.685)" style="fill:#eb996e"/>
            </g>
        </g>
    </g>
</svg>
