<svg xmlns="http://www.w3.org/2000/svg" width="600" height="360" viewBox="0 0 600 360">
    <defs>
        <clipPath id="f7x89izoba">
            <path data-name="矩形 8602" transform="translate(360 2491)" style="fill:#fff" d="M0 0h600v360H0z"/>
        </clipPath>
    </defs>
    <g data-name="蒙版组 2345" transform="translate(-360 -2491)" style="clip-path:url(#f7x89izoba)">
        <g style="opacity:.5">
            <path data-name="路径 13845" d="M606.589 283.1H422.33l15.206 33.984 32.673 25.939 27.045 3.58 14.993 12.265 94.342 36.926z" style="fill:#e0e0e0" transform="translate(350.942 2454.945)"/>
            <path data-name="路径 13846" d="M606.589 283.1v7.947c0 5.219 0 12.879.049 22.67 0 19.663.049 47.83.09 82.077v.262l-.238-.1-94.35-36.868-14.992-12.288.107.049-27.037-3.58h-.107l-.991-.819-31.682-25.161v-.041c-5.243-11.716-10.323-23.088-15.2-33.992l-.131-.287h.311l132.324.1 38.236.049h-.09l-38.286.057-132.185.1.188-.287c4.916 10.9 9.971 22.268 15.214 33.984l-.066-.082 31.69 25.152.991.819-.107-.049 27.037 3.58h-.057l.041.041 15 12.289h-.048l94.317 36.95-.238.164c.041-34.206.074-62.357.09-81.929 0-9.832.041-17.492.049-22.719v-5.964c-.003-1.355.071-2.124.071-2.124z" style="fill:#263238" transform="translate(350.942 2454.945)"/>
            <g data-name="组 8300" style="opacity:.3">
                <path data-name="路径 13847" d="m775.255 2738.045 19.557 30.633 60.087 20.491 10.5 22.359 23.973 12.535-23.973-9.381-17.203-13.137-27.045-3.58-32.673-25.939-15.206-33.981"/>
                <path data-name="路径 13848" d="m538.424 369.141-23.981-9.389-17.2-13.133-27.045-3.58L437.52 317.1v-.008l-15.206-33.984.033-.016 15.206 33.984 32.665 25.931 27.053 3.58 17.2 13.133 23.62 9.242-23.648-12.362v-.008l-10.5-22.35-60.079-20.491-.008-.008-19.556-30.636.033-.025 19.557 30.633 60.087 20.491v.008l10.5 22.35L538.44 369.1z" style="fill:#fff" transform="translate(350.942 2454.945)"/>
            </g>
            <path data-name="路径 13849" d="m203.955 300.058 4.006-11.11 8.111 2v10.815z" style="fill:#e0e0e0" transform="translate(350.942 2454.945)"/>
            <path data-name="路径 13850" d="M203.947 300.058a6.551 6.551 0 0 1 .934.09l2.515.3c2.147.262 5.153.639 8.7 1.122l-.221.188v-10.81l.156.2-8.1-2.015.221-.123c-1.188 3.277-2.228 5.989-2.966 7.931-.36.942-.647 1.7-.877 2.278a7.258 7.258 0 0 1-.344.819 7.525 7.525 0 0 1 .246-.778q.287-.877.762-2.261a698.373 698.373 0 0 1 2.827-8.136l.057-.156h.164l8.119 1.966.164.041v11.224h-.221c-3.638-.524-6.685-1.008-8.807-1.344l-2.458-.393a7.28 7.28 0 0 1-.868-.147z" style="fill:#263238" transform="translate(350.942 2454.945)"/>
            <path data-name="路径 13851" d="m195.787 315.691 4.449-3.3 1.073 6.087h-4.555z" style="fill:#e0e0e0" transform="translate(350.942 2454.945)"/>
            <path data-name="路径 13852" d="M195.811 315.691a4.382 4.382 0 0 1 .344.762c.2.475.459 1.147.77 1.975l-.147-.1 4.555-.057-.2.246c-.115-.672-.246-1.368-.369-2.081-.246-1.434-.483-2.786-.688-4.015l.3.123a172.587 172.587 0 0 1-3.22 2.286 11.162 11.162 0 0 1-1.344.86 8.762 8.762 0 0 1 1.139-.967 92.044 92.044 0 0 1 3.2-2.458l.246-.188.057.311.729 4.006c.123.713.246 1.409.36 2.081v.246h-.246l-4.555-.057h-.107v-.107c-.295-.893-.508-1.639-.647-2.1a3.361 3.361 0 0 1-.172-.77z" style="fill:#263238" transform="translate(350.942 2454.945)"/>
            <path data-name="路径 13853" d="m210.01 313.577 3.113-3.253 1.106 2.835-1.671 1.9z" style="fill:#e0e0e0" transform="translate(350.942 2454.945)"/>
            <path data-name="路径 13854" d="M210.01 313.577a27.644 27.644 0 0 1 2.638 1.327l-.221.041c.508-.6 1.057-1.245 1.639-1.925l-.041.213-.377-.959-.729-1.876.336.066a42.056 42.056 0 0 1-3.277 3.113 40.2 40.2 0 0 1 3.04-3.392l.213-.238.123.3c.229.59.483 1.213.737 1.868l.377.959.049.123-.09.1-1.688 1.876-.107.115-.123-.074a20.607 20.607 0 0 1-2.5-1.639z" style="fill:#263238" transform="translate(350.942 2454.945)"/>
            <path data-name="路径 13855" d="M11.536 283.1h184.251l-15.206 33.984-32.673 25.939-27.045 3.58-14.993 12.265-94.334 36.925z" style="fill:#e0e0e0" transform="translate(350.942 2454.945)"/>
            <path data-name="路径 13856" d="M11.536 283.1v30.732c0 19.606.057 47.757.09 81.929l-.238-.164 94.325-36.95h-.057l14.993-12.289.049-.041h.057l27.037-3.58-.107.049.991-.819 31.682-25.152-.057.082c5.243-11.716 10.331-23.088 15.214-33.984l.18.287-132.175-.1-38.286-.057 38.236-.049 132.316-.1h.32l-.131.287-15.2 33.992v.041h-.041l-31.704 25.194-.991.819h-.107l-27.037 3.58.107-.049-15 12.289-94.343 36.869-.238.1v-.262c0-34.246.066-62.438.09-82.077v-28.6c0-1.347.025-1.977.025-1.977z" style="fill:#263238" transform="translate(350.942 2454.945)"/>
            <g data-name="组 8301" style="opacity:.3">
                <path data-name="路径 13857" d="m544.681 2737.839-19.565 30.633-60.079 20.491-10.5 22.359-23.976 12.543 26.545-10.4 14.636-12.12 27.037-3.572 32.682-25.947 15.206-33.984"/>
                <path data-name="路径 13858" d="m79.627 368.936-.016-.041 23.964-12.535L114.087 334l60.079-20.491 19.557-30.625.033.016-19.566 30.644h-.008l-60.071 20.491-10.5 22.359h-.011l-23.637 12.37 26.193-10.258 14.633-12.126h.008l27.037-3.58 32.666-25.93 15.2-33.984.041.016-15.214 34-32.677 25.94h-.008l-27.037 3.58-14.633 12.126z" style="fill:#fff" transform="translate(350.942 2454.945)"/>
            </g>
        </g>
        <path data-name="路径 13859" d="M306.129 360.391c-.115 0-.213-13.379-.213-29.888s.1-29.9.213-29.9.213 13.387.213 29.9-.098 29.888-.213 29.888z" style="fill:#263238" transform="translate(350.942 2454.945)"/>
        <path data-name="路径 13860" d="M313.79 361.251c-.115 0-.213-16.443-.213-36.729s.1-36.721.213-36.721.213 16.435.213 36.721-.074 36.729-.213 36.729z" style="fill:#263238" transform="translate(350.942 2454.945)"/>
        <path data-name="路径 13861" d="m334.919 230.5-.819-.115-2.278-.385-8.758-1.508-6.382-.713-3.646-.4-1.934-.221-2.015-.1-8.766-.442-1.172-.057H295.5l-5.047.049a209.99 209.99 0 0 0-47.855 6.735c-1.1.279-2.22.516-3.326.819l-3.326 1.032-6.767 2.081c-1.155.32-2.253.819-3.392 1.2l-3.408 1.262-3.433 1.286-1.737.639c-.574.221-1.131.492-1.7.737l-6.866 3.015-1.737.762c-.582.246-1.155.516-1.721.819l-3.408 1.737c-2.269 1.18-4.588 2.319-6.874 3.548l-6.759 3.974a205.769 205.769 0 0 0-31.658 23.759l-.172.156-.131-.18a87.918 87.918 0 0 0-16.517-16.615 94.383 94.383 0 0 0-18.41-11.036 97.726 97.726 0 0 0-34.41-8.66 90.4 90.4 0 0 0-23.374 1.54c-1.352.246-2.523.549-3.548.819s-1.884.467-2.573.664l-1.565.426-.533.139s.172-.066.524-.172l1.573-.492c.68-.2 1.532-.459 2.564-.7s2.2-.565 3.548-.819a89.206 89.206 0 0 1 23.415-1.639 97.569 97.569 0 0 1 34.533 8.6 94.105 94.105 0 0 1 18.483 11.085 88.139 88.139 0 0 1 16.591 16.6h-.3a205.64 205.64 0 0 1 31.789-23.76l6.773-3.969c2.286-1.229 4.613-2.368 6.89-3.548l3.416-1.745a24.8 24.8 0 0 1 1.721-.819l1.745-.77 6.882-3.018c.574-.246 1.131-.516 1.7-.737l1.737-.647 3.449-1.278 3.408-1.27c1.139-.4 2.245-.877 3.4-1.2l6.784-2.081 3.335-1.024c1.106-.328 2.228-.565 3.335-.819a209.408 209.408 0 0 1 47.953-6.653h8.7l1.172.066 8.775.475 2.015.107 1.934.229 3.654.418 6.382.754 8.75 1.589 2.269.426z" style="fill:#263238" transform="translate(350.942 2454.945)"/>
        <path data-name="路径 13862" d="M155.043 259.561a60.935 60.935 0 0 1-4.695-5.579A63.906 63.906 0 0 1 146 248.14a63.343 63.343 0 0 1 4.686 5.579 63.129 63.129 0 0 1 4.357 5.842z" style="fill:#263238" transform="translate(350.942 2454.945)"/>
        <path data-name="路径 13863" d="M423.125 261.92a2.194 2.194 0 0 1-.377-.238c-.279-.188-.614-.434-1.032-.729-.893-.647-2.2-1.548-3.851-2.622s-3.638-2.3-5.9-3.58-4.817-2.556-7.546-3.785-5.407-2.245-7.865-3.1-4.695-1.516-6.554-2.015-3.449-.885-4.522-1.114l-1.237-.287a1.554 1.554 0 0 1-.418-.131 1.459 1.459 0 0 1 .434.049l1.254.2c1.09.18 2.646.516 4.563.983s4.178 1.114 6.653 1.934 5.153 1.868 7.906 3.089 5.293 2.556 7.562 3.834 4.26 2.54 5.883 3.662 2.917 2.056 3.777 2.745l.991.819c.18.172.295.266.279.286z" style="fill:#263238" transform="translate(350.942 2454.945)"/>
        <path data-name="路径 13864" d="M158.124 258.9a78.34 78.34 0 0 1-.213-8.111 78.34 78.34 0 0 1 .213-8.111 75.677 75.677 0 0 1 .213 8.111 75.678 75.678 0 0 1-.213 8.111z" style="fill:#263238" transform="translate(350.942 2454.945)"/>
        <g>
            <path data-name="路径 13865" d="M60.144 267.909a10.725 10.725 0 0 1 .975 2.147 60.45 60.45 0 0 1 1.77 5.407 56.592 56.592 0 0 1 1.237 5.555 10.921 10.921 0 0 1 .262 2.343 15.248 15.248 0 0 1-.565-2.286c-.311-1.417-.762-3.367-1.344-5.5s-1.2-4.039-1.639-5.416a16.088 16.088 0 0 1-.7-2.253z" style="fill:#263238" transform="translate(350.942 2454.945)"/>
            <path data-name="路径 13866" d="M70.386 264.509a20.433 20.433 0 0 1-.164 2.728c-.131 1.688-.27 4.006-.295 6.554s.074 4.916.172 6.554a22.159 22.159 0 0 1 .123 2.728 2.163 2.163 0 0 1-.164-.721 27.891 27.891 0 0 1-.254-1.983 58.931 58.931 0 0 1-.3-6.612 60.908 60.908 0 0 1 .418-6.6c.106-.819.2-1.524.295-1.983a2.721 2.721 0 0 1 .169-.665z" style="fill:#263238" transform="translate(350.942 2454.945)"/>
            <path data-name="路径 13867" d="M82.347 266.148c.049 0-.574.885-1.483 2.31a42.508 42.508 0 0 0-3.1 5.817 41.784 41.784 0 0 0-2.106 6.251 27.422 27.422 0 0 1-.658 2.663 3.023 3.023 0 0 1 0-.746c.049-.475.164-1.155.328-1.991a33.14 33.14 0 0 1 5.243-12.158c.492-.7.909-1.245 1.221-1.639s.531-.524.555-.507z" style="fill:#263238" transform="translate(350.942 2454.945)"/>
            <path data-name="路径 13868" d="M437.774 266.271a4.514 4.514 0 0 1 .557.5 18.7 18.7 0 0 1 1.376 1.516 41.464 41.464 0 0 1 3.924 5.5 40.215 40.215 0 0 1 2.966 6.063c.311.819.541 1.467.68 1.925a2.293 2.293 0 0 1 .172.737c-.057 0-.442-.975-1.131-2.548a55.776 55.776 0 0 0-3.055-5.964 55.168 55.168 0 0 0-3.785-5.522 22.057 22.057 0 0 1-1.704-2.207z" style="fill:#263238" transform="translate(350.942 2454.945)"/>
            <path data-name="路径 13869" d="M451.128 265.328a21.95 21.95 0 0 1-.09 2.646c-.074 1.639-.131 3.875-.057 6.358s.279 4.727.459 6.341a21.1 21.1 0 0 1 .246 2.638 13.54 13.54 0 0 1-.549-2.6 53.1 53.1 0 0 1-.393-12.765 12.524 12.524 0 0 1 .384-2.618z" style="fill:#263238" transform="translate(350.942 2454.945)"/>
            <path data-name="路径 13870" d="M460.714 270.842a46.863 46.863 0 0 0-3.482 5.735 45.1 45.1 0 0 0-2.2 6.317 6.858 6.858 0 0 1 .262-1.966 22.121 22.121 0 0 1 1.557-4.531 21.75 21.75 0 0 1 2.515-4.1 6.923 6.923 0 0 1 1.352-1.458z" style="fill:#263238" transform="translate(350.942 2454.945)"/>
            <path data-name="路径 13871" d="M567.23 266.271a4.871 4.871 0 0 1 .565.5 17.269 17.269 0 0 1 1.376 1.516 40.758 40.758 0 0 1 3.916 5.5 41.173 41.173 0 0 1 2.974 6.063c.311.819.541 1.467.672 1.925a2.882 2.882 0 0 1 .18.737 27.089 27.089 0 0 1-1.131-2.548A54.557 54.557 0 0 0 572.72 274a55.144 55.144 0 0 0-3.785-5.522 22.057 22.057 0 0 1-1.705-2.207z" style="fill:#263238" transform="translate(350.942 2454.945)"/>
            <path data-name="路径 13872" d="M580.585 265.328a20.682 20.682 0 0 1-.082 2.646c-.082 1.639-.139 3.875-.066 6.358s.279 4.727.459 6.341a19.322 19.322 0 0 1 .246 2.638 13.538 13.538 0 0 1-.549-2.6 53.09 53.09 0 0 1-.393-12.765 13.249 13.249 0 0 1 .385-2.618z" style="fill:#263238" transform="translate(350.942 2454.945)"/>
            <path data-name="路径 13873" d="M590.171 270.842a32.3 32.3 0 0 0-5.686 12.052 6.857 6.857 0 0 1 .262-1.966 21.693 21.693 0 0 1 1.565-4.531 21.345 21.345 0 0 1 2.507-4.1 7.2 7.2 0 0 1 1.352-1.458z" style="fill:#263238" transform="translate(350.942 2454.945)"/>
            <path data-name="路径 13874" d="M520.375 248.246a6.612 6.612 0 0 1 3.416 3.875 11.619 11.619 0 0 1 .459 5.252c-.385 3.408-2.327 6.849-4.408 9.569-2.867-2.5-3.531-6.874-3.728-9.111-.311-3.531 1.278-10.11 4.26-9.586" style="fill:#ff725e" transform="translate(350.942 2454.945)"/>
            <path data-name="路径 13875" d="M523.177 272.563A5.645 5.645 0 0 1 525 267.2a7.464 7.464 0 0 1 5.522-1.721 3.138 3.138 0 0 1 2.458 1.081 2.409 2.409 0 0 1 0 2.458 4.859 4.859 0 0 1-1.811 1.786c-2.458 1.557-5.178 2.614-7.988 1.77" style="fill:#ff725e" transform="translate(350.942 2454.945)"/>
            <path data-name="路径 13876" d="M519.5 283.009a4.635 4.635 0 0 1 .1-.7c.09-.492.213-1.131.352-1.893a19.574 19.574 0 0 1 1.95-6.046 12.076 12.076 0 0 1 4.342-4.613 7.819 7.819 0 0 1 1.77-.778 3.893 3.893 0 0 1 .508-.131.5.5 0 0 1 .18 0 12.653 12.653 0 0 0-2.368 1.081 12.411 12.411 0 0 0-4.211 4.588 21.227 21.227 0 0 0-2 5.956c-.172.819-.32 1.434-.426 1.876a3.318 3.318 0 0 1-.197.66z" style="fill:#263238" transform="translate(350.942 2454.945)"/>
            <path data-name="路径 13877" d="M519.6 253.359a1.066 1.066 0 0 1 0 .3 5.237 5.237 0 0 0 .057.877c0 .762.082 1.868.131 3.236.082 2.728.156 6.505.139 10.651s-.123 7.947-.238 10.651a168.157 168.157 0 0 1-.156 3.236 3.876 3.876 0 0 1-.057.877 1.32 1.32 0 0 1-.041.3 1.816 1.816 0 0 1 0-.311v-.876c0-.819.049-1.893.082-3.236.066-2.728.139-6.5.156-10.651s0-7.939-.066-10.651c0-1.344 0-2.458-.049-3.236v-.877a1.25 1.25 0 0 1 .042-.29z" style="fill:#263238" transform="translate(350.942 2454.945)"/>
            <path data-name="路径 13878" d="M518.212 274.636a13.191 13.191 0 0 0-7.193-9.651c-.959-.459-2.212-.762-3-.049s-.614 2-.229 2.99a11.249 11.249 0 0 0 10.356 6.989" style="fill:#ff725e" transform="translate(350.942 2454.945)"/>
            <path data-name="路径 13879" d="M511.477 268.212a3.276 3.276 0 0 1 .614.27c.188.09.426.2.688.361a9.766 9.766 0 0 1 .877.549 11.849 11.849 0 0 1 1 .754 11.475 11.475 0 0 1 1.065.975 15.037 15.037 0 0 1 2.073 2.605 14.352 14.352 0 0 1 1.335 3.015c.131.492.262.95.336 1.4a10.764 10.764 0 0 1 .172 1.245c.049.377 0 .729.049 1.032a7.337 7.337 0 0 1 0 .819 3.731 3.731 0 0 1-.074.664c-.057 0 .041-.95-.131-2.458a10.714 10.714 0 0 0-.2-1.221 12.644 12.644 0 0 0-.352-1.376 15.268 15.268 0 0 0-1.327-2.958 15.566 15.566 0 0 0-1.983-2.573 13.821 13.821 0 0 0-1.032-.967 12.048 12.048 0 0 0-.975-.77c-1.291-.923-2.159-1.316-2.135-1.366z" style="fill:#263238" transform="translate(350.942 2454.945)"/>
        </g>
        <g>
            <path data-name="路径 13880" d="m299.976 64.446-2.384-4.867a17.459 17.459 0 1 0-3.171 5.383z" style="fill:#fff" transform="translate(350.942 2454.945)"/>
            <path data-name="路径 13881" d="M299.976 64.446h-.344l-1.049.115-4.154.434a.082.082 0 0 1-.074-.057l.1.066a17.369 17.369 0 0 1-9.594 5.735 19.139 19.139 0 0 1-2.884.352 17.377 17.377 0 0 1-12.289-4.334 17.7 17.7 0 0 1-4.465-6.063 17.41 17.41 0 0 1-1.467-7.849 17.1 17.1 0 0 1 2.351-8.029l.557-.926.639-.868.311-.434.36-.4.7-.819c.246-.254.516-.483.77-.729a10.383 10.383 0 0 1 .819-.688 16.58 16.58 0 0 1 1.712-1.213 17.926 17.926 0 0 1 7.6-2.605 17.6 17.6 0 0 1 13.51 4.539 17.3 17.3 0 0 1 3.826 5.063 19.106 19.106 0 0 1 1.1 2.7 22.026 22.026 0 0 1 .582 2.646 17.312 17.312 0 0 1-.909 8.512v-.049l1.745 3.654.442.926c.1.2.139.311.139.311l-.164-.328c-.115-.213-.27-.524-.475-.926l-1.8-3.589a17.328 17.328 0 0 0 .819-8.439 21.786 21.786 0 0 0-.6-2.622 19.176 19.176 0 0 0-1.106-2.655 17.385 17.385 0 0 0-17.123-9.43 17.59 17.59 0 0 0-7.48 2.573 15.671 15.671 0 0 0-1.68 1.122 7.714 7.714 0 0 0-.778.68c-.254.238-.524.467-.762.713l-.7.819-.352.393-.311.426-.623.819-.549.909a17.278 17.278 0 0 0 15.64 25.955 19.81 19.81 0 0 0 2.851-.336 17.123 17.123 0 0 0 2.573-.746 17.574 17.574 0 0 0 6.972-4.858.055.055 0 1 1 .082.074l-.066-.082 4.1-.36 1.073-.082c.311-.02.425-.02.425-.02z" style="fill:#263238" transform="translate(350.942 2454.945)"/>
            <path data-name="路径 13882" d="m273.194 54.737 2.253-2.253 4.35 3.867 8.529-8.209 2.089 2.253-10.946 10.3z" style="fill:#ff725e" transform="translate(350.942 2454.945)"/>
        </g>
        <g>
            <path data-name="路径 13883" d="M226.428 134c-.2.131-5.932 4.342-6.382 6.128s-.188 3.826.32 4.146 1.6 1.2 1.6 1.2l.574 1.09h2.294s-1.081 2.36.508 2.8a8.193 8.193 0 0 0 3.515 0s3.122 1.426 3.826.819 2.04-1.827 2.04-1.827l1.335-3-1.081-4.1 2.515-3.892-6.923-5.645z" style="fill:#ae7461" transform="translate(350.942 2454.945)"/>
            <path data-name="路径 13884" d="M234.081 145.687a9.152 9.152 0 0 1-2.3 2.114 8.791 8.791 0 0 1-2.7 1.565 55.073 55.073 0 0 1 5.006-3.679z" style="fill:#6f4439" transform="translate(350.942 2454.945)"/>
            <path data-name="路径 13885" d="m385.8 97.07 8.127-2.556 4.26 7.12-11.708 6.243z" style="fill:#ae7461" transform="translate(350.942 2454.945)"/>
            <path data-name="路径 13886" d="M395.916 89.959s3.277-4.424 4.1-4.834 5.735.475 6.12 1.155a3.637 3.637 0 0 1 0 2.048s1.188-.139 1.524.68a3.744 3.744 0 0 1 0 2.04 1.639 1.639 0 0 1 .68 1.163 3.278 3.278 0 0 1-.27 1.254 2.024 2.024 0 0 1 .549 1.737c-.279.885-5.178 4.563-7.292 5.383s-3.679 1.77-5.039.95-2.384-6.743-2.384-6.743z" style="fill:#ae7461" transform="translate(350.942 2454.945)"/>
            <path data-name="路径 13887" d="M408.213 92.949a25.153 25.153 0 0 1-4.408 1.729 1.745 1.745 0 0 1-1.925-.377 1.18 1.18 0 0 1-.2-.909 1.548 1.548 0 0 1 .344-.7 2.007 2.007 0 0 1 .893-.565c.229-.082.369-.09.377-.066s-.107.1-.311.213a2.515 2.515 0 0 0-.729.606.983.983 0 0 0-.057 1.172 1.376 1.376 0 0 0 1.491.213 26.767 26.767 0 0 1 4.531-1.319z" style="fill:#6f4439" transform="translate(350.942 2454.945)"/>
            <path data-name="路径 13888" d="M401.167 88.484c-.115 0-.131-.442.082-.893s.533-.7.623-.631-.057.41-.238.819-.344.705-.467.705z" style="fill:#6f4439" transform="translate(350.942 2454.945)"/>
            <path data-name="路径 13889" d="M393.876 94.792a44.927 44.927 0 0 1 .95-5.448c.336-.614 1.639-1.016 1.639-1.016l9.012.475s2.04 2.458-1.09 2.761a43.7 43.7 0 0 0-4.375.573s.967.959.426 3.613-5.112 2.859-5.112 2.859z" style="fill:#ae7461" transform="translate(350.942 2454.945)"/>
            <path data-name="路径 13890" d="M400.414 95.751s0-.36.066-.991a6.551 6.551 0 0 0-.057-1.155 2.761 2.761 0 0 0-.533-1.36l-.164-.2.238-.049c1.065-.229 2.335-.4 3.752-.557a3.425 3.425 0 0 0 1.983-.574c.442-.483.057-1.344-.41-1.934l.156.082-2.145-.113-6.841-.418h.082a3.916 3.916 0 0 0-1.352.7.926.926 0 0 0-.311.557c-.066.229-.115.459-.164.68-.18.885-.32 1.639-.426 2.319l-.27 1.507a1.827 1.827 0 0 1-.123.524 1.7 1.7 0 0 1 0-.541c0-.352.082-.868.164-1.524s.188-1.442.344-2.351c.041-.221.09-.459.147-.7a1.344 1.344 0 0 1 .393-.729 4.162 4.162 0 0 1 1.475-.819h.066l6.841.336 2.147.115h.082l.057.066a3.711 3.711 0 0 1 .623 1.163 1.36 1.36 0 0 1-.238 1.319 3.6 3.6 0 0 1-2.245.664c-1.417.139-2.687.287-3.736.467l.074-.238a2.884 2.884 0 0 1 .557 1.532 6.243 6.243 0 0 1 0 1.2 4.766 4.766 0 0 1-.139.737c-.052.203-.077.285-.093.285z" style="fill:#6f4439" transform="translate(350.942 2454.945)"/>
            <path data-name="路径 13891" d="M408.4 95.374a10.651 10.651 0 0 1-3.7 1.86 2.138 2.138 0 0 1-1.712-.057 1.3 1.3 0 0 1-.549-.582 1.1 1.1 0 0 1-.057-.7 1.713 1.713 0 0 1 .467-.819c.156-.147.254-.213.27-.188a3.279 3.279 0 0 0-.442 1.049.819.819 0 0 0 .5.885 1.876 1.876 0 0 0 1.4 0c2.129-.702 3.768-1.554 3.823-1.448z" style="fill:#6f4439" transform="translate(350.942 2454.945)"/>
            <path data-name="路径 13892" d="M407.288 90.811c0 .115-.5.279-1.139.459s-1.18.295-1.221.18.434-.41 1.106-.59 1.237-.16 1.254-.049z" style="fill:#6f4439" transform="translate(350.942 2454.945)"/>
            <path data-name="路径 13893" d="m306.129 92.695-14.46 1.925-11.224 27.987s-12.109 23.08-15.231 31.322a18.221 18.221 0 0 0-1.2 8.078l57.2-18.7 11.011-21.457 6.4-18.786-7.9-2.2-2.122-3.2L311.16 89.3z" style="fill:#ff725e" transform="translate(350.942 2454.945)"/>
            <path data-name="路径 13894" d="m362.046 103.338-29.085-.344-2.237 19.614s30.552-3.367 35.475-5.055 29.028-11.7 29.028-11.7l-4.1-10.454z" style="fill:#ff725e" transform="translate(350.942 2454.945)"/>
            <path data-name="路径 13895" d="M388.034 106.148a17.09 17.09 0 0 1-1.721-3.965A17.549 17.549 0 0 1 385.24 98a32.094 32.094 0 0 1 1.483 4.047 30.839 30.839 0 0 1 1.311 4.1z" style="fill:#263238" transform="translate(350.942 2454.945)"/>
            <path data-name="路径 13896" d="M388.272 97.586c-.049 0 .27-.311.819-.09a1 1 0 1 1-1.147 1.614 1 1 0 0 1-.238-.918c.123-.549.541-.639.541-.59a1.168 1.168 0 0 0-.246.639.754.754 0 0 0 .221.59.606.606 0 0 0 .7.049.623.623 0 0 0 .377-.59.819.819 0 0 0-.344-.524c-.372-.266-.667-.122-.683-.18z" style="fill:#263238" transform="translate(350.942 2454.945)"/>
            <path data-name="路径 13897" d="M305.712 148.661a3.056 3.056 0 0 1 .229-.36l.713-.975c.32-.426.7-.942 1.122-1.565s.926-1.311 1.426-2.106c1.04-1.573 2.179-3.515 3.375-5.735s2.458-4.645 3.613-7.267c2.384-5.243 4.293-10.1 5.694-13.608a759.1 759.1 0 0 1 1.68-4.154l.475-1.122a2.023 2.023 0 0 1 .188-.377 1.485 1.485 0 0 1-.107.41l-.41 1.147c-.385 1.057-.909 2.458-1.548 4.2-1.327 3.539-3.187 8.422-5.588 13.682-1.2 2.622-2.458 5.08-3.654 7.275a64.527 64.527 0 0 1-3.474 5.67c-.508.819-1.032 1.475-1.475 2.081a18.243 18.243 0 0 1-1.188 1.524l-.778.934c-.187.256-.285.362-.293.346z" style="fill:#263238" transform="translate(350.942 2454.945)"/>
            <path data-name="路径 13898" d="M324.867 106.156a3.945 3.945 0 0 1-.393-.655c-.254-.508-.582-1.139-.975-1.893h.2a451.691 451.691 0 0 1-5.129 4.654l-.139.123-.139-.147c-.975-1.041-1.966-2.245-2.949-3.531-2.409-3.179-4.416-6.169-5.932-8.275l-1.811-2.459a5.17 5.17 0 0 1-.639-.934 6.652 6.652 0 0 1 .77.819 47.25 47.25 0 0 1 1.917 2.458c1.589 2.073 3.638 5.039 6.03 8.193a59.393 59.393 0 0 0 2.917 3.523h-.279c2.089-1.835 3.9-3.408 5.211-4.522l.131-.115.066.156c.352.819.639 1.426.877 1.942a3.279 3.279 0 0 1 .266.663z" style="fill:#263238" transform="translate(350.942 2454.945)"/>
            <path data-name="路径 13899" d="M337.263 109.376a1.228 1.228 0 0 1-.107.369l-.426 1.024c-.344.885-.86 2.163-1.524 3.728-1.319 3.13-3.236 7.415-5.465 12.093s-4.35 8.873-5.924 11.888a166.297 166.297 0 0 1-1.884 3.556l-.541.95c-.123.221-.2.328-.213.32a1.967 1.967 0 0 1 .139-.361l.467-.991 1.77-3.613c1.5-3.04 3.572-7.251 5.8-11.929s4.187-8.939 5.571-12.035c.68-1.5 1.237-2.736 1.639-3.67l.459-.991a2.3 2.3 0 0 1 .239-.338z" style="fill:#263238" transform="translate(350.942 2454.945)"/>
            <g data-name="组 8302" style="opacity:.3">
                <path data-name="路径 13900" d="M672.105 2596.863a2.237 2.237 0 0 0-1.786-.279c-14.485 1.9-22.6 5.014-36.328 9.93l37.36-7.98c.804-.289 1.205-1.253.754-1.671z"/>
            </g>
            <path data-name="路径 13901" d="M330.806 102.273a5.218 5.218 0 0 1-.238 1.745 12.659 12.659 0 0 1-1.778 3.974l-.172.254-.18-.254c-.156-.221-.32-.451-.475-.7a17.01 17.01 0 0 1-1.819-3.777h.311a14.877 14.877 0 0 1-1.311 2.409 15.208 15.208 0 0 1 1.008-2.564l.164-.369.147.393a20.319 20.319 0 0 0 1.86 3.662c.147.238.311.467.459.68h-.344a18.942 18.942 0 0 0 2.368-5.457z" style="fill:#263238" transform="translate(350.942 2454.945)"/>
            <g data-name="组 8303" style="opacity:.3">
                <path data-name="路径 13902" d="M682.412 2577.462a12.044 12.044 0 0 0 6.276-13.445 108.582 108.582 0 0 0-6.5 13.174"/>
            </g>
            <g data-name="组 8304" style="opacity:.3">
                <path data-name="路径 13903" d="M658.542 2548.631a72.4 72.4 0 0 0 10.52 17.205 31.869 31.869 0 0 0 4.916-5.17l1.843 1.54c-.311-1.008-.631-2.007-.95-3.007-.057-.18-.147-.385-.328-.418a.524.524 0 0 0-.393.156l-4.916 3.834a104.2 104.2 0 0 1-10.88-14.166"/>
            </g>
            <path data-name="路径 13904" d="M293.668 140.239a7.374 7.374 0 0 1-1.86-.393 34.3 34.3 0 0 1-8.406-3.679 6.834 6.834 0 0 1-1.548-1.106c.066-.106 2.532 1.409 5.8 2.835s6.046 2.204 6.014 2.343z" style="fill:#263238" transform="translate(350.942 2454.945)"/>
            <path data-name="路径 13905" d="M300.869 137a2.769 2.769 0 0 1-.819 0c-.5 0-1.229-.1-2.122-.2-1.794-.2-4.26-.565-6.956-1.139s-5.1-1.221-6.817-1.761c-.86-.27-1.548-.5-2.024-.68a2.834 2.834 0 0 1-.721-.311 24.035 24.035 0 0 1 2.827.7c1.737.459 4.146 1.065 6.825 1.639s5.129.983 6.907 1.262a22.94 22.94 0 0 1 2.9.492z" style="fill:#263238" transform="translate(350.942 2454.945)"/>
            <g data-name="组 8305" style="opacity:.3">
                <path data-name="路径 13906" d="M633.058 2588.145a27.111 27.111 0 0 0 20.753 4.1 101.643 101.643 0 0 1-20.753-4.17"/>
            </g>
            <path data-name="路径 13907" d="M294.274 94.8C290.366 93.6 278 98.963 278 98.963s-20.99 8.521-25.4 12.47-25.546 20.958-25.546 20.958l10.053 8.095 24.759-17.009 30.314-7.054s3.4-1.163 7.316-7.374S298.174 96 294.274 94.8z" style="fill:#ff725e" transform="translate(350.942 2454.945)"/>
            <path data-name="路径 13908" d="M298.076 112.325c-.066-.049.737-1.106 1.639-3.04a14.442 14.442 0 0 0 1.073-3.523 11.183 11.183 0 0 0-.139-4.465 8.88 8.88 0 0 0-2.04-3.933 7.947 7.947 0 0 0-3.007-2.04 8.75 8.75 0 0 0-3.343-.483 1.089 1.089 0 0 1 .229-.074 4.58 4.58 0 0 1 .688-.09 6.718 6.718 0 0 1 2.532.36 8.087 8.087 0 0 1 3.187 2.056 9.012 9.012 0 0 1 2.171 4.1 11.281 11.281 0 0 1 .115 4.637 14.607 14.607 0 0 1-1.188 3.589 15.563 15.563 0 0 1-1.293 2.181 3.279 3.279 0 0 1-.623.721z" style="fill:#263238" transform="translate(350.942 2454.945)"/>
            <g data-name="组 8306" style="opacity:.3">
                <path data-name="路径 13909" d="M632.673 2574.185s4.645.991 8-.418a32.674 32.674 0 0 0 5.907-3.277l-13.928 3.72"/>
            </g>
            <path data-name="路径 13910" d="M237.358 135.708c-.057 0 .18-.36.729-.27a.983.983 0 0 1 .737.557 1.024 1.024 0 0 1-1.426 1.254.983.983 0 0 1-.459-.819c0-.557.344-.746.36-.688a1.173 1.173 0 0 0-.066.647.754.754 0 0 0 .352.5.655.655 0 0 0 .868-.762.737.737 0 0 0-.442-.418c-.375-.124-.62.048-.653-.001z" style="fill:#263238" transform="translate(350.942 2454.945)"/>
            <path data-name="路径 13911" d="M243.027 136.093a36.867 36.867 0 0 1-4.367-3.523 38 38 0 0 1-4.1-3.851 36.869 36.869 0 0 1 4.367 3.523 38 38 0 0 1 4.1 3.851z" style="fill:#263238" transform="translate(350.942 2454.945)"/>
            <path data-name="路径 13912" d="M227.092 132.39s.074 0 .2.123l.533.4 2.032 1.581 7.374 5.866h-.2l20.663-14.125 4.26-2.892H262c9.1-1.7 17.025-3.826 22.735-5.235 2.851-.713 5.145-1.278 6.726-1.639l1.819-.41a6.051 6.051 0 0 1 .639-.123 3.1 3.1 0 0 1-.614.2l-1.8.483-6.7 1.778c-5.686 1.475-13.6 3.654-22.727 5.375h.082l-4.252 2.892-20.73 14.036-.1.066-.09-.074-7.308-5.973-1.975-1.639-.508-.442a1.638 1.638 0 0 1-.105-.248z" style="fill:#263238" transform="translate(350.942 2454.945)"/>
            <g data-name="组 8307" style="opacity:.3">
                <path data-name="路径 13913" d="M631.673 2552.802a15.993 15.993 0 0 0 8.816 1.278c4.916-.713 8.693-3.761 11.732-2.237s9.668 10.479 12.806 12.986 10.52 0 10.52 0h-4.473l-6.341-4.809s-5.358-11.609-9.389-12.044a127.8 127.8 0 0 0-13.248 0z"/>
            </g>
            <path data-name="路径 13914" d="M323.769 107.655c-.393 1.09-2.589 1.417-4.039.819a9.43 9.43 0 0 1-3.146-2.958c-3.277-4.539-5.661-9.651-10.012-13.158-3.031-2.458-7.472-3.277-11.355-3.416s-7.759.459-11.65.475c-9.291.049-10.249-1.589-17.385-4.67l-5.243 3.335 3.007 5.874s16.468 5.137 23.276 3.785c6.907-1.393 11.6-3.171 15.1-1.884 7.374 2.728 10.823 12.289 15.124 14.067a10.422 10.422 0 0 0 7.742.09z" style="fill:#455a64" transform="translate(350.942 2454.945)"/>
            <path data-name="路径 13915" d="m322.679 109.007.344-3.277 1.245-.819 1.639.147.885 1.491s-.123 3.6-2.958 3.867z" style="fill:#455a64" transform="translate(350.942 2454.945)"/>
            <path data-name="路径 13916" d="M324.744 110.13c-.082.082-.565-.27-1.065-.819a3.638 3.638 0 0 0-.631-.574c-.172-.107-.311-.131-.32-.2s.156-.147.426-.082a1.77 1.77 0 0 1 .819.549c.517.56.853 1.044.771 1.126z" style="fill:#263238" transform="translate(350.942 2454.945)"/>
            <path data-name="路径 13917" d="M326.415 108.581c-.107.066-.664-.713-1.565-1.45s-1.753-1.155-1.7-1.278a4.465 4.465 0 0 1 3.277 2.728z" style="fill:#263238" transform="translate(350.942 2454.945)"/>
            <path data-name="路径 13918" d="M344.98 66.617a3.384 3.384 0 0 0-1.319-6.284 4.047 4.047 0 0 0-5.006-4.826 4.547 4.547 0 0 0-5.375-1.639 3.277 3.277 0 0 0-4.219 4.531l12.9 13.928a3.277 3.277 0 0 0 3.015-5.735z" style="fill:#263238" transform="translate(350.942 2454.945)"/>
            <path data-name="路径 13919" d="m332.445 57-.688-.188c-7.554-1.639-13.15 3.867-14.575 11.47l-4.514 21.933 10.258 11.65 2.2 3.007 3.908-8.455s7.447.877 9.52-6.243c1-3.433 2.458-10.651 3.752-17.205A13.805 13.805 0 0 0 332.445 57z" style="fill:#ae7461" transform="translate(350.942 2454.945)"/>
            <path data-name="路径 13920" d="M329.094 96.415a17.942 17.942 0 0 1-8.594-5.342s.221 6.177 7.521 7.513z" style="fill:#6f4439" transform="translate(350.942 2454.945)"/>
            <path data-name="路径 13921" d="M338.369 78.759a1.049 1.049 0 0 1-1.27.754 1 1 0 0 1-.819-1.2 1.057 1.057 0 0 1 1.262-.762 1.016 1.016 0 0 1 .828 1.213z" style="fill:#263238" transform="translate(350.942 2454.945)"/>
            <path data-name="路径 13922" d="M339.794 75.981c-.156.1-.77-.688-1.868-.991a13.706 13.706 0 0 0-2.138-.139c-.082-.139.156-.287.574-.442a2.949 2.949 0 0 1 1.753-.049 2.794 2.794 0 0 1 1.45.959c.262.351.311.621.229.662z" style="fill:#263238" transform="translate(350.942 2454.945)"/>
            <path data-name="路径 13923" d="M328.6 76.129a1.065 1.065 0 0 1-1.27.754 1.008 1.008 0 0 1-.819-1.213 1.065 1.065 0 0 1 1.27-.754 1.016 1.016 0 0 1 .819 1.213z" style="fill:#263238" transform="translate(350.942 2454.945)"/>
            <path data-name="路径 13924" d="M328.955 73.188c-.164.1-.778-.688-1.876-.991a13.622 13.622 0 0 0-2.13-.139c-.082-.139.147-.279.574-.442a2.949 2.949 0 0 1 1.753-.049 2.794 2.794 0 0 1 1.45.959c.262.391.311.621.229.662z" style="fill:#263238" transform="translate(350.942 2454.945)"/>
            <path data-name="路径 13925" d="M330.675 82.429a7.832 7.832 0 0 1 1.876.18c.287.049.565.066.664-.115a1.507 1.507 0 0 0 .049-.885c-.074-.746-.156-1.532-.238-2.36a39.239 39.239 0 0 1-.311-6.1 39.26 39.26 0 0 1 .819 6.055c.066.819.131 1.639.2 2.368a1.639 1.639 0 0 1-.164 1.139.7.7 0 0 1-.574.279 1.7 1.7 0 0 1-.492-.066 7.234 7.234 0 0 1-1.827-.5z" style="fill:#263238" transform="translate(350.942 2454.945)"/>
            <path data-name="路径 13926" d="M330.438 68.968c-.2.27-1.254-.172-2.581-.377s-2.458-.139-2.564-.459c-.041-.147.221-.377.721-.549a4.31 4.31 0 0 1 2.032-.131 4.179 4.179 0 0 1 1.884.77c.418.32.59.599.508.746z" style="fill:#263238" transform="translate(350.942 2454.945)"/>
            <path data-name="路径 13927" d="M340.278 72.7c-.262.2-.95-.279-1.852-.541s-1.729-.295-1.827-.606c-.049-.147.147-.369.549-.508a2.777 2.777 0 0 1 2.966.926c.245.34.278.629.164.729z" style="fill:#263238" transform="translate(350.942 2454.945)"/>
            <path data-name="路径 13928" d="M316.4 75.539a2.015 2.015 0 0 0-1.573-2.458c-1.368-.246-3.064.1-3.736 2.876-1.2 4.916 3.99 5.112 4.031 4.973s.798-3.33 1.278-5.391z" style="fill:#ae7461" transform="translate(350.942 2454.945)"/>
            <path data-name="路径 13929" d="M314.511 78.824a1.421 1.421 0 0 1-.262.066.877.877 0 0 1-.647-.139 2.179 2.179 0 0 1-.516-2.147 2.884 2.884 0 0 1 .541-1.163 1.024 1.024 0 0 1 .819-.508.467.467 0 0 1 .451.36v.262c0 .016.123-.057.131-.27a.549.549 0 0 0-.115-.36.672.672 0 0 0-.442-.238 1.229 1.229 0 0 0-1.081.549 2.868 2.868 0 0 0-.631 1.294 2.286 2.286 0 0 0 .729 2.458.95.95 0 0 0 .819.057c.163-.106.212-.212.204-.221z" style="fill:#6f4439" transform="translate(350.942 2454.945)"/>
            <path data-name="路径 13930" d="M341.064 61.636a1.589 1.589 0 0 0-.074-.393 3.277 3.277 0 0 0-2.056-2.065A12.338 12.338 0 0 0 337.443 58a4.408 4.408 0 0 0-7.136-2.286l-.631-.074a4.506 4.506 0 0 0-7.111 0 3.277 3.277 0 0 0-4.826 3.6 3.08 3.08 0 0 0-2.31 1.934 1.8 1.8 0 0 0 1.278 2.261 49.277 49.277 0 0 0-1.893 7.578c-.5 2.876 1.188 3.908 1.082 4.6-.975 5.973 2.065 3.457 6.071-7.882A1.352 1.352 0 0 0 323 67c.156-.32.18-.737.475-.942s.819 0 1.221.156a3.228 3.228 0 0 0 3.851-1.335 1.36 1.36 0 0 0 1.712.655 7.374 7.374 0 0 0 1.72-1.057 2.089 2.089 0 0 1 1.909-.369c.344.147.623.459 1 .524.655.123 1.172-.541 1.45-1.147a2.9 2.9 0 0 1 .967-1.4 3.67 3.67 0 0 1 1.27 0c.238.1.483.213.713.32a3.083 3.083 0 0 0 .328.107 3.325 3.325 0 0 1 .4.311c1.868 1.639 2.507 6.636 2.507 6.636a8.87 8.87 0 0 0-1.459-7.823z" style="fill:#263238" transform="translate(350.942 2454.945)"/>
            <path data-name="路径 13931" d="M337.549 60.546v.09a2.214 2.214 0 0 1-.107.246 3.072 3.072 0 0 1-.614.819 3.646 3.646 0 0 1-1.4.819 3.326 3.326 0 0 1-2.155 0l.107-.082a1.811 1.811 0 0 1-.467 1.319 5.423 5.423 0 0 1-1.172.967 4.427 4.427 0 0 1-.7.41 1.77 1.77 0 0 1-.819.074 1.843 1.843 0 0 1-1.409-1h.2a3.81 3.81 0 0 1-2.31 2.155 2.769 2.769 0 0 1-1.745.082 5.031 5.031 0 0 1-1.483-.819h.147a4.1 4.1 0 0 1-1.573 1.188 2.146 2.146 0 0 1-1.835 0 2.794 2.794 0 0 1-1.5-2.663l.1.082a2.6 2.6 0 0 1-1.745-.221 2.8 2.8 0 0 1-1.024-.819 2.458 2.458 0 0 1-.385-.754 1.156 1.156 0 0 1-.049-.287 2.818 2.818 0 0 0 .5.983 2.785 2.785 0 0 0 1.008.819 2.524 2.524 0 0 0 1.639.172h.107v.115a2.622 2.622 0 0 0 1.405 2.459 1.942 1.942 0 0 0 1.639 0 3.883 3.883 0 0 0 1.532-1.155l.066-.082.082.066a4.794 4.794 0 0 0 1.417.746 2.6 2.6 0 0 0 1.639-.074 3.613 3.613 0 0 0 2.13-1.983l.1-.221.107.221a1.639 1.639 0 0 0 1.2.86 1.565 1.565 0 0 0 .754-.066 3.614 3.614 0 0 0 .664-.377 5.1 5.1 0 0 0 1.131-.926 1.638 1.638 0 0 0 .451-1.188v-.131l.115.049a3.277 3.277 0 0 0 2.065 0 3.719 3.719 0 0 0 1.376-.819 4.1 4.1 0 0 0 .819-1.073z" style="fill:#455a64" transform="translate(350.942 2454.945)"/>
            <path data-name="路径 13932" d="M328.258 83.4a.819.819 0 0 0-.41-.147c-.238 0-.41.246-.516.459a2.868 2.868 0 0 0-.123 2.36 1.393 1.393 0 0 0 .606.664 2.106 2.106 0 0 0 2.728-.721l.68-.975c-.638-.374-2.323-1.259-2.965-1.64z" style="fill:#6f4439" transform="translate(350.942 2454.945)"/>
            <path data-name="路径 13933" d="M331.265 85.035a2.376 2.376 0 0 1-1.122-.418 13.108 13.108 0 0 0-2.556-1.229l.229-.1a12.06 12.06 0 0 0-.254.475 2.818 2.818 0 0 0-.352 1.639 1.467 1.467 0 0 0 .688 1.081c.68.385 1.245.434 1.221.508a2.1 2.1 0 0 1-1.376-.246 1.745 1.745 0 0 1-.918-1.278 3.031 3.031 0 0 1 .352-1.868c.09-.18.18-.352.27-.508l.082-.147.147.049a9.463 9.463 0 0 1 2.614 1.4 7.274 7.274 0 0 1 .975.642z" style="fill:#263238" transform="translate(350.942 2454.945)"/>
            <path data-name="路径 13934" d="m377.269 196.885 13.69 16.386 23.6-22.006c-2.237-2.122-18.655 4.719-18.655 4.719l-7.562-8.734z" style="fill:#263238" transform="translate(350.942 2454.945)"/>
            <path data-name="路径 13935" d="M387.649 201.751a1.319 1.319 0 0 0 .361 1.721 1.27 1.27 0 0 0 1.7-.336 1.385 1.385 0 0 0-.385-1.819 1.3 1.3 0 0 0-1.737.549" style="fill:#e0e0e0" transform="translate(350.942 2454.945)"/>
            <path data-name="路径 13936" d="m390.959 213.238-1.876-1.975L412.58 191s1.475-.508 2.04.344z" style="fill:#e0e0e0" transform="translate(350.942 2454.945)"/>
            <path data-name="路径 13937" d="M396.17 195.508c.1.115-.426.7-.647 1.639s-.074 1.639-.221 1.712-.6-.77-.311-1.852 1.109-1.63 1.179-1.499z" style="fill:#e0e0e0" transform="translate(350.942 2454.945)"/>
            <path data-name="路径 13938" d="M399.594 194.222c.131.09-.188.746-.123 1.6s.426 1.475.311 1.581-.819-.483-.819-1.548.525-1.74.631-1.633z" style="fill:#e0e0e0" transform="translate(350.942 2454.945)"/>
            <path data-name="路径 13939" d="M403.756 195.877c-.082.123-.778-.3-1.065-1.213s0-1.639.147-1.639.123.7.369 1.434.656 1.303.549 1.418z" style="fill:#e0e0e0" transform="translate(350.942 2454.945)"/>
            <path data-name="路径 13940" d="M393.368 192.919c.049.147-.623.483-1.237 1.131s-.926 1.327-1.073 1.286-.049-.909.68-1.639 1.605-.925 1.63-.778z" style="fill:#e0e0e0" transform="translate(350.942 2454.945)"/>
            <path data-name="路径 13941" d="M390.2 190.642c.049.049-.336.541-1.18 1.1a7.775 7.775 0 0 1-1.589.77 8.736 8.736 0 0 1-1.016.27 1.983 1.983 0 0 1-.614.057.688.688 0 0 1-.623-.565.877.877 0 0 1 .254-.737 2.458 2.458 0 0 1 .5-.352 5.872 5.872 0 0 1 .975-.426 5.407 5.407 0 0 1 1.753-.3 2.769 2.769 0 0 1 1.589.311 10.755 10.755 0 0 1-1.565.074 6.48 6.48 0 0 0-1.639.393 5.253 5.253 0 0 0-.868.418c-.311.172-.524.369-.483.533s0 .09.147.115a1.9 1.9 0 0 0 .451-.041c.336-.066.655-.139.959-.229a9.071 9.071 0 0 0 1.548-.623 11.829 11.829 0 0 1 1.4-.762z" style="fill:#e0e0e0" transform="translate(350.942 2454.945)"/>
            <path data-name="路径 13942" d="M390.205 190.945a2.663 2.663 0 0 1-1.376-.819 5.236 5.236 0 0 1-1.04-1.442 5.145 5.145 0 0 1-.369-1 1.311 1.311 0 0 1 .2-1.294.762.762 0 0 1 .819-.131 2.4 2.4 0 0 1 .524.319 3.352 3.352 0 0 1 .737.819 3.76 3.76 0 0 1 .639 1.7c.107 1.04-.246 1.639-.295 1.589a11.837 11.837 0 0 0-.09-1.532 3.711 3.711 0 0 0-.664-1.458 3.344 3.344 0 0 0-.655-.664c-.27-.213-.549-.328-.623-.213a.934.934 0 0 0-.049.77 5.155 5.155 0 0 0 .3.909 5.734 5.734 0 0 0 .868 1.393c.599.66 1.123 1.009 1.074 1.054z" style="fill:#e0e0e0" transform="translate(350.942 2454.945)"/>
            <path data-name="路径 13943" d="m239.062 234.031-20.482 5.949 10.6 30.437c2.851-1.188 3.2-18.967 3.2-18.967l11.036-3.408z" style="fill:#263238" transform="translate(350.942 2454.945)"/>
            <path data-name="路径 13944" d="M230.427 241.569a1.319 1.319 0 0 0-1.721-.361 1.254 1.254 0 0 0-.377 1.7 1.376 1.376 0 0 0 1.819.377 1.311 1.311 0 0 0 .2-1.811" style="fill:#e0e0e0" transform="translate(350.942 2454.945)"/>
            <path data-name="路径 13945" d="m218.58 239.98 2.564-.926 9.078 29.675s-.131 1.557-1.139 1.729z" style="fill:#e0e0e0" transform="translate(350.942 2454.945)"/>
            <path data-name="路径 13946" d="M232.68 251.884c-.156.049-.475-.672-1.213-1.237s-1.491-.737-1.483-.893.95-.238 1.827.467 1.049 1.646.869 1.663z" style="fill:#e0e0e0" transform="translate(350.942 2454.945)"/>
            <path data-name="路径 13947" d="M232.5 255.538c-.131.082-.606-.467-1.409-.754s-1.524-.2-1.565-.352.762-.541 1.753-.164 1.401 1.221 1.221 1.27z" style="fill:#e0e0e0" transform="translate(350.942 2454.945)"/>
            <path data-name="路径 13948" d="M229.312 258.684c-.082-.123.59-.59 1.54-.492s1.507.68 1.409.819-.688-.172-1.467-.246-1.394.058-1.482-.081z" style="fill:#e0e0e0" transform="translate(350.942 2454.945)"/>
            <path data-name="路径 13949" d="M236.2 250.368c-.156 0-.188-.77-.541-1.589s-.819-1.385-.737-1.507.819.328 1.245 1.294.183 1.834.033 1.802z" style="fill:#e0e0e0" transform="translate(350.942 2454.945)"/>
            <path data-name="路径 13950" d="M239.562 248.385a3.072 3.072 0 0 1-.516-1.524 7.192 7.192 0 0 1-.066-1.77 6.958 6.958 0 0 1 .156-1.04 1.95 1.95 0 0 1 .2-.582.688.688 0 0 1 .77-.344.819.819 0 0 1 .565.533 2.222 2.222 0 0 1 .123.6 5.774 5.774 0 0 1 0 1.065 5.5 5.5 0 0 1-.434 1.729c-.4.934-.877 1.368-.926 1.327s.279-.557.565-1.467a6.374 6.374 0 0 0 .295-1.639 7.915 7.915 0 0 0 0-.975c0-.352-.123-.623-.295-.655s-.09 0-.164.09a1.85 1.85 0 0 0-.139.426 9.014 9.014 0 0 0-.18.967 8.428 8.428 0 0 0-.049 1.639 10.863 10.863 0 0 1 .1 1.622z" style="fill:#e0e0e0" transform="translate(350.942 2454.945)"/>
            <path data-name="路径 13951" d="M239.283 248.246a2.926 2.926 0 0 1 1.335-.909 5.186 5.186 0 0 1 1.737-.377 5.949 5.949 0 0 1 1.065.066 1.335 1.335 0 0 1 1.106.7.754.754 0 0 1-.2.819 2.245 2.245 0 0 1-.5.352 3.614 3.614 0 0 1-1.032.36 3.655 3.655 0 0 1-1.794-.107c-1-.32-1.393-.877-1.344-.909a12.408 12.408 0 0 0 1.434.533 3.67 3.67 0 0 0 1.639 0 2.982 2.982 0 0 0 .868-.336c.311-.156.524-.369.451-.475a1.175 1.175 0 0 0-.68-.361 4.918 4.918 0 0 0-.959-.09 5.924 5.924 0 0 0-1.639.229c-.93.243-1.438.595-1.487.505z" style="fill:#e0e0e0" transform="translate(350.942 2454.945)"/>
            <path data-name="路径 13952" d="M262.412 163.613s-1.966 9.717.819 17.344 5.358 9.586 5.358 9.586l2.4 27.766-2.4.729-38.368 14.4 5.162 19.9s50.526-17.3 54.344-21.121 4.154-8.463 5.17-17.369.721-39.2.721-39.2l-20.048-21.432-12.577 5.384" style="fill:#263238" transform="translate(350.942 2454.945)"/>
            <path data-name="路径 13953" d="M264.722 171.5c.451 6.309 7.234 17.738 23.76 13.068s48.805-19.483 48.805-19.483l2.122.533 41.784 40.145 15.894-16.386-44.045-44.693a16.968 16.968 0 0 0-13.928-5.1 10.778 10.778 0 0 0-1.106.18c-3.031.7-53.664 11.667-53.664 11.667l-5.35 1.352-15.272 6.456z" style="fill:#263238" transform="translate(350.942 2454.945)"/>
            <path data-name="路径 13954" d="M343.956 154.2a5.841 5.841 0 0 1-.393 1.8 20.7 20.7 0 0 1-1.778 4.1 22 22 0 0 1-2.6 3.629 6.055 6.055 0 0 1-1.352 1.262 50.707 50.707 0 0 0 3.58-5.1 53.807 53.807 0 0 0 2.543-5.691z" style="fill:#455a64" transform="translate(350.942 2454.945)"/>
            <path data-name="路径 13955" d="M280.444 163.859a8.283 8.283 0 0 1-1.09 1.729 35.371 35.371 0 0 1-3.2 3.769 34.8 34.8 0 0 1-3.7 3.277 8.43 8.43 0 0 1-1.7 1.122 12.29 12.29 0 0 1 1.516-1.36c.959-.819 2.245-1.975 3.589-3.343s2.458-2.679 3.277-3.646a11.47 11.47 0 0 1 1.319-1.548z" style="fill:#455a64" transform="translate(350.942 2454.945)"/>
            <path data-name="路径 13956" d="M269.417 188.561a27.922 27.922 0 0 0 19.1.361" style="fill:#263238" transform="translate(350.942 2454.945)"/>
            <path data-name="路径 13957" d="M288.515 188.921a2.377 2.377 0 0 1-.7.311 16.485 16.485 0 0 1-2.007.623 26.316 26.316 0 0 1-13.715-.262 19.006 19.006 0 0 1-1.975-.688 2.966 2.966 0 0 1-.7-.344c0-.066 1.049.311 2.753.746a30.109 30.109 0 0 0 13.568.254c1.719-.37 2.751-.705 2.776-.64z" style="fill:#455a64" transform="translate(350.942 2454.945)"/>
            <path data-name="路径 13958" d="m278.97 152.79.68-.2 2.007-.524c.885-.221 1.975-.533 3.277-.819l4.514-1 28.946-6.358c6.145-1.335 12.847-2.843 20.13-4.375a16.763 16.763 0 0 1 11.159 2.3 21.441 21.441 0 0 1 4.629 3.908l4.359 4.408 38.564 39.048.147.147-.147.156-9.438 9.758-6.448 6.661-.147.156-.156-.147-41.784-40.145.082.049-2.122-.533h.131c-11.331 5.129-21.924 9.627-31.412 13.322-4.752 1.852-9.242 3.515-13.461 4.867a58.988 58.988 0 0 1-6.145 1.7 25.619 25.619 0 0 1-5.8.549 16.574 16.574 0 0 1-9.274-3.007 15.968 15.968 0 0 1-4.785-5.448 15.707 15.707 0 0 1-1.557-4.244 9.489 9.489 0 0 1-.164-1.155v-.393a1.834 1.834 0 0 0 .066.393 9.022 9.022 0 0 0 .2 1.139 16.116 16.116 0 0 0 6.382 9.569 16.337 16.337 0 0 0 9.176 2.917 25.554 25.554 0 0 0 5.735-.557c1.983-.418 4.014-1.049 6.12-1.721 4.2-1.368 8.685-3.04 13.428-4.916 9.5-3.744 20.056-8.258 31.412-13.428h.131l2.114.524h.057l41.784 40.145h-.3l6.448-6.661 9.446-9.766v.3l-38.507-39.08-4.359-4.416a21.5 21.5 0 0 0-4.539-3.867 16.459 16.459 0 0 0-10.921-2.269c-7.243 1.507-13.985 3.007-20.122 4.318l-28.97 6.235-4.536.97c-1.311.287-2.4.582-3.277.819l-2.024.483z" style="fill:#455a64" transform="translate(350.942 2454.945)"/>
            <g data-name="组 8308" style="opacity:.3">
                <path data-name="路径 13959" d="M624.185 2638.803s5.268 4.58 11.962 4.047a40.67 40.67 0 0 0 10.479-2v-3.621s-13.027 5.826-22.441 1.574z"/>
            </g>
        </g>
    </g>
</svg>
