<svg xmlns="http://www.w3.org/2000/svg" width="600" height="360" viewBox="0 0 600 360">
    <defs>
        <clipPath id="pn0forytxa">
            <path data-name="矩形 8602" transform="translate(360 2491)" style="fill:#fff" d="M0 0h600v360H0z"/>
        </clipPath>
    </defs>
    <g data-name="蒙版组 2345" transform="translate(-360 -2491)" style="clip-path:url(#pn0forytxa)">
        <g data-name="Good team-pana">
            <path data-name="路径 13961" d="m243.43 150.212 1.27-53.984S256.721 93.9 267.429 77.6c7.087-10.813 4.479-22.274 5.84-27.02.81-2.9 7.67-2.316 10.675-1.968 2.835.332 7.533 1.912 9.509 6.407 3.653 8.326-1.466 28.26-1.466 28.26s-2.227 4.05 3.45 4.05h20.249a11.024 11.024 0 0 1 7.209 2.584 8.189 8.189 0 0 1 2.964 7.16c-.608 7.719-4.665 11.169-4.665 12.789s2.227 4.463.607 9.136-2.64 4.26-2.64 6.48-.4 7.913-1.822 11.339a16.58 16.58 0 0 1-3.045 5.07s.607 7.29-1.426 11.574-10.529 6.48-13.4 6.48-23.133-4.05-28.818-5.475-21.737-6.894-27.22-4.254z" transform="translate(408.02 2453.418)" style="fill:#263238"/>
            <path data-name="路径 13962" d="M234.47 150.931v-54.6S246.5 94 257.206 77.7c7.087-10.813 10.286-19.552 11.647-24.3a6.2 6.2 0 0 1 6.609-4.511 9.453 9.453 0 0 1 8.229 5.937c3.653 8.334-1.928 28.551-1.928 28.551s-2.236 4.05 3.45 4.05h20.249a11.04 11.04 0 0 1 7.209 2.584 8.189 8.189 0 0 1 2.964 7.16c-.607 7.719-4.673 11.169-4.673 12.789s2.236 4.463.616 9.136-2.64 4.26-2.64 6.48-.4 7.913-1.831 11.339a16.483 16.483 0 0 1-3.037 5.07s.607 7.29-1.426 11.574-10.53 6.48-13.4 6.48-23.132-4.05-28.818-5.475-20.473-6.273-25.956-3.633z" transform="translate(409.723 2453.314)" style="fill:#455a64"/>
            <path data-name="路径 13963" d="M262.056 47.949a36.188 36.188 0 0 1-4.511-3.353 37.193 37.193 0 0 1-4.245-3.686 37.533 37.533 0 0 1 4.511 3.361 38.555 38.555 0 0 1 4.245 3.678z" transform="translate(406.145 2454.825)" style="fill:#263238"/>
            <path data-name="路径 13964" d="M272.623 38.5a14.943 14.943 0 0 1-1.579-2.025c-.923-1.3-2.155-3.118-3.418-5.184s-2.333-3.985-3.062-5.394a13.907 13.907 0 0 1-1.093-2.325 15.776 15.776 0 0 1 1.353 2.187c.81 1.369 1.9 3.24 3.159 5.313s2.43 3.9 3.3 5.232a17.216 17.216 0 0 1 1.34 2.196z" transform="translate(404.212 2458.12)" style="fill:#263238"/>
            <path data-name="路径 13965" d="M284.495 15.31a72.139 72.139 0 0 1 .211 7.873 72.234 72.234 0 0 1-.211 7.881 74.767 74.767 0 0 1-.211-7.881 74.68 74.68 0 0 1 .211-7.873z" transform="translate(400.261 2459.69)" style="fill:#263238"/>
            <path data-name="路径 13966" d="M305.394 30.53a32.117 32.117 0 0 1-3.507 3.807 30.13 30.13 0 0 1-3.807 3.5 32.455 32.455 0 0 1 3.507-3.8 31.4 31.4 0 0 1 3.807-3.507z" transform="translate(397.635 2456.798)" style="fill:#263238"/>
            <path data-name="路径 13967" d="M312.757 42.37a19.739 19.739 0 0 1-2.819 3.118 19.739 19.739 0 0 1-3.118 2.819 21.724 21.724 0 0 1 2.819-3.118 21.723 21.723 0 0 1 3.118-2.819z" transform="translate(395.974 2454.548)" style="fill:#263238"/>
            <path data-name="路径 13968" d="M303.339 78a9.348 9.348 0 0 1-1.288 1.62c-.81.964-2.033 2.268-3.418 3.653s-2.681 2.576-3.653 3.418a10.076 10.076 0 0 1-1.62 1.28 10.66 10.66 0 0 1 1.426-1.5l3.556-3.5c1.312-1.336 2.5-2.535 3.5-3.556A11.4 11.4 0 0 1 303.339 78z" transform="translate(398.532 2447.776)" style="fill:#455a64"/>
            <path data-name="路径 13969" d="M304.777 69a7.022 7.022 0 0 1-1.174 1.482 41.56 41.56 0 0 1-3.288 3.159c-1.345 1.158-2.592 2.163-3.5 2.9a9.356 9.356 0 0 1-1.515 1.126 42.022 42.022 0 0 1 4.738-4.349 84.773 84.773 0 0 0 3.353-3.045A11.123 11.123 0 0 1 304.777 69z" transform="translate(398.163 2449.487)" style="fill:#455a64"/>
            <path data-name="路径 13970" d="M304.478 60.829a4.681 4.681 0 0 1-.94 1.223 18.857 18.857 0 0 1-2.77 2.487c-2.357 1.677-4.147 3.159-4.228 3.078a19.131 19.131 0 0 1 3.977-3.41c2.308-1.701 3.855-3.475 3.961-3.378z" transform="translate(397.927 2451.04)" style="fill:#455a64"/>
            <path data-name="路径 13971" d="M302.212 54.05a17.156 17.156 0 0 1-2.778 2.657 17.763 17.763 0 0 1-3.054 2.333 17.327 17.327 0 0 1 2.778-2.649 17.576 17.576 0 0 1 3.054-2.341z" transform="translate(397.958 2452.328)" style="fill:#455a64"/>
            <path data-name="路径 13972" d="M297.614 50.05a6.342 6.342 0 0 1-1.774 1.426 6.164 6.164 0 0 1-2 1.069 6.277 6.277 0 0 1 1.75-1.417 6.269 6.269 0 0 1 2.024-1.078z" transform="translate(398.44 2453.088)" style="fill:#455a64"/>
            <path data-name="路径 13973" d="M302.268 89.86a19.033 19.033 0 0 1-2.948 2.8 19.569 19.569 0 0 1-3.24 2.487 20.247 20.247 0 0 1 2.948-2.811 20.007 20.007 0 0 1 3.24-2.478z" transform="translate(398.015 2445.523)" style="fill:#455a64"/>
            <path data-name="路径 13974" d="M341.537 113.36a66.139 66.139 0 0 1-6.083 4.422 68.035 68.035 0 0 1-6.334 4.05 67.5 67.5 0 0 1 6.091-4.43 66.216 66.216 0 0 1 6.326-4.042z" transform="translate(391.736 2441.057)" style="fill:#455a64"/>
            <path data-name="路径 13975" d="M342.325 101.93a24.413 24.413 0 0 1-3.58 2.721 24.064 24.064 0 0 1-3.815 2.365 48.82 48.82 0 0 1 7.395-5.087z" transform="translate(390.632 2443.229)" style="fill:#455a64"/>
            <path data-name="路径 13976" d="M338.477 129.72c.057.105-2.082 1.369-4.6 3.094s-4.487 3.24-4.568 3.159.4-.486 1.183-1.134 1.871-1.5 3.143-2.373a31.661 31.661 0 0 1 3.353-2.065 5.816 5.816 0 0 1 1.49-.68z" transform="translate(391.702 2437.948)" style="fill:#455a64"/>
            <path data-name="路径 13977" d="M335.5 142.15a40.663 40.663 0 0 1-4.576 3.693 39.559 39.559 0 0 1-4.86 3.361 83.091 83.091 0 0 1 9.4-7.055z" transform="translate(392.317 2435.585)" style="fill:#455a64"/>
            <path data-name="路径 13978" d="M331.608 158.07a7.444 7.444 0 0 1-1.353 1.312c-.875.761-2.13 1.774-3.572 2.811s-2.8 1.9-3.807 2.487a7.218 7.218 0 0 1-1.677.859 9.137 9.137 0 0 1 1.523-1.11c.956-.648 2.276-1.547 3.718-2.584s2.705-1.993 3.629-2.689a8.757 8.757 0 0 1 1.539-1.085z" transform="translate(393.241 2432.56)" style="fill:#455a64"/>
            <path data-name="路径 13979" d="M327.987 171a10.3 10.3 0 0 1-1.62 1.507c-1.037.875-2.511 2.033-4.187 3.24s-3.24 2.236-4.414 2.932a9.85 9.85 0 0 1-1.936 1.037 13.446 13.446 0 0 1 1.774-1.288 208.156 208.156 0 0 0 8.577-6.156 13.386 13.386 0 0 1 1.806-1.272z" transform="translate(394.261 2430.103)" style="fill:#455a64"/>
            <path data-name="路径 13980" d="M323.68 63.979a21.643 21.643 0 0 1-4.22-.211 40.822 40.822 0 0 1 8.44 0 21.578 21.578 0 0 1-4.22.211z" transform="translate(393.572 2450.523)" style="fill:#263238"/>
            <g>
                <path data-name="路径 13981" d="M107.125 112.559a63.4 63.4 0 0 1-3.24-10.529 22.3 22.3 0 0 1 .413-10.91c.17-.526 1.685-4.1 2.235-4.05.4 0-.486 3.329-.267 3.669a18.84 18.84 0 0 1 2.584 10.926 49.408 49.408 0 0 1-1.725 10.894" transform="translate(434.631 2446.053)" style="fill:#263238"/>
                <path data-name="路径 13982" d="M129.138 130.6c-.081-2.592-.138-4.641-.113-4.641s8.861-1.272 9.072-10.116c.105-4.277-.4-13.089-.948-21.059a16.483 16.483 0 0 0-16.257-15.394h-.81c-9.217.429-14 8.488-13.308 17.681l1.369 32.245 6.569 7.184a8.326 8.326 0 0 0 14.466-5.937z" transform="translate(434.002 2447.512)" style="fill:#bd8c83"/>
                <path data-name="路径 13983" d="M131.627 136.04a21.31 21.31 0 0 1-11.477-3.54s2.64 6.779 11.477 6.083z" transform="translate(431.448 2437.419)" style="fill:#896360"/>
                <path data-name="路径 13984" d="M140.927 107.068a1.255 1.255 0 0 1-1.231 1.255 1.215 1.215 0 0 1-1.3-1.15 1.272 1.272 0 0 1 1.231-1.264 1.215 1.215 0 0 1 1.3 1.158z" transform="translate(427.98 2442.473)" style="fill:#263238"/>
                <path data-name="路径 13985" d="M140.831 102.571c-.154.162-1.1-.559-2.43-.575s-2.365.656-2.511.494.089-.373.526-.688a3.491 3.491 0 0 1 2.017-.591 3.345 3.345 0 0 1 1.96.656c.349.333.486.633.438.704z" transform="translate(428.465 2443.366)" style="fill:#263238"/>
                <path data-name="路径 13986" d="M125.289 107.238a1.255 1.255 0 0 1-1.231 1.255 1.207 1.207 0 0 1-1.288-1.15 1.264 1.264 0 0 1 1.23-1.264 1.207 1.207 0 0 1 1.288 1.158z" transform="translate(430.95 2442.441)" style="fill:#263238"/>
                <path data-name="路径 13987" d="M124.341 103.052c-.154.162-1.1-.551-2.43-.567s-2.365.656-2.511.486.089-.364.526-.68a3.491 3.491 0 0 1 2.017-.591 3.345 3.345 0 0 1 1.96.656c.381.324.519.624.438.696z" transform="translate(431.599 2443.273)" style="fill:#263238"/>
                <path data-name="路径 13988" d="M131.27 113.681a8.82 8.82 0 0 1 2.211-.373c.348 0 .672-.1.737-.332a1.8 1.8 0 0 0-.219-1.029c-.316-.81-.648-1.733-1-2.657a45.318 45.318 0 0 1-2.227-6.941 46.073 46.073 0 0 1 2.778 6.747l.956 2.665a2.033 2.033 0 0 1 .162 1.369.875.875 0 0 1-.575.5 2.43 2.43 0 0 1-.591.073 8.634 8.634 0 0 1-2.235-.024z" transform="translate(429.431 2443.149)" style="fill:#263238"/>
                <path data-name="路径 13989" d="M124.543 97.455c-.138.364-1.5.178-3.094.356s-2.892.6-3.094.259c-.1-.154.13-.5.656-.859a5.216 5.216 0 0 1 2.3-.81 5.135 5.135 0 0 1 2.43.308c.551.276.842.568.802.746z" transform="translate(431.793 2444.286)" style="fill:#263238"/>
                <path data-name="路径 13990" d="M140.264 96.907c-.235.316-1.174 0-2.3 0s-2.073.235-2.3-.089c-.1-.154.049-.47.462-.761a3.337 3.337 0 0 1 3.71.073c.395.315.533.631.428.777z" transform="translate(428.505 2444.445)" style="fill:#263238"/>
                <path data-name="路径 13991" d="M106.207 109.288c-.154-.073-6.059-1.871-5.937 4.179s6.172 4.682 6.18 4.5-.243-8.679-.243-8.679z" transform="translate(435.226 2441.888)" style="fill:#bd8c83"/>
                <path data-name="路径 13992" d="M104.919 116.179a2.875 2.875 0 0 1-.275.162 1.069 1.069 0 0 1-.81 0 2.64 2.64 0 0 1-1.255-2.316 3.507 3.507 0 0 1 .267-1.515 1.223 1.223 0 0 1 .81-.81.526.526 0 0 1 .624.275c.089.17.049.292.081.3s.13-.105.081-.356a.729.729 0 0 0-.251-.373.81.81 0 0 0-.583-.138 1.49 1.49 0 0 0-1.085.956 3.7 3.7 0 0 0-.332 1.693 2.716 2.716 0 0 0 1.62 2.584 1.11 1.11 0 0 0 .956-.178c.144-.139.176-.276.152-.284z" transform="translate(434.862 2441.429)" style="fill:#896360"/>
                <path data-name="路径 13993" d="M132.426 84.625c.964-.567-2.065-3.653-4.5-4.673-3.685-1.547-9.266-2.43-12.595-1.353-4 1.264-7.29 3.369-9.217 7.1a23.845 23.845 0 0 0-2.316 12.222 7.16 7.16 0 0 0 .964 3.669c.883 1.312 2.527 2.114 2.511 3.961a2.511 2.511 0 0 0 .68 1.822c1.142 1.15 2.43 0 3.054-1.126 1.264-2.43 1.328-5.24 1.361-7.962a17.455 17.455 0 0 0-.551-5.735c-.324-1-.81-1.944-1.093-2.956a3.645 3.645 0 0 1 .34-3.037 4.166 4.166 0 0 1 .478-.51 6.31 6.31 0 0 1 6.22-1.369c3.442 1.1 9.315 2.738 10.8 1.531a9.347 9.347 0 0 0 2.632-2.827z" transform="translate(434.569 2447.753)" style="fill:#263238"/>
                <path data-name="路径 13994" d="M132.568 121.159c0 .1-.219.316-.721.462a3.621 3.621 0 0 1-3.661-1.272c-.308-.429-.364-.753-.275-.81a12.4 12.4 0 0 0 2.195 1.191c1.272.421 2.373.202 2.462.429z" transform="translate(429.98 2439.883)" style="fill:#263238"/>
                <path data-name="路径 13995" d="M135.376 435.465 132 453.576s17.268 9.517 16.969 12.959l-35.347-5.3 4.115-28.438z" transform="translate(432.689 2380.351)" style="fill:#ff725e"/>
                <g data-name="组 8310" style="opacity:.3">
                    <path data-name="路径 13996" d="m568.065 2815.816-3.376 18.111s17.268 9.517 16.969 12.959l-35.347-5.3 4.115-28.438z"/>
                </g>
                <path data-name="路径 13997" d="M122.8 454.523a1.458 1.458 0 0 0-1.239 1.5 1.4 1.4 0 0 0 1.474 1.247 1.531 1.531 0 0 0 1.3-1.62 1.458 1.458 0 0 0-1.677-1.134" transform="translate(431.18 2376.228)" style="fill:#e0e0e0"/>
                <path data-name="路径 13998" d="m113.62 467.2.526-2.851 33.694 6.148s1.474.923 1.126 2z" transform="translate(432.689 2374.355)" style="fill:#263238"/>
                <path data-name="路径 13999" d="M136.233 458.267c0 .17-.907.121-1.839.551s-1.5 1.085-1.62 1 .259-1.053 1.393-1.555 2.123-.149 2.066.004z" transform="translate(429.053 2375.561)" style="fill:#263238"/>
                <path data-name="路径 14000" d="M140.706 460.885c0 .178-.81.356-1.474 1s-.98 1.393-1.15 1.361-.13-1.029.745-1.814 1.903-.709 1.879-.547z" transform="translate(428.055 2375.034)" style="fill:#263238"/>
                <path data-name="路径 14001" d="M143.09 466.126c-.162 0-.275-.883.316-1.766s1.442-1.134 1.5-.98-.526.591-1 1.32-.638 1.434-.816 1.426z" transform="translate(427.113 2374.547)" style="fill:#263238"/>
                <path data-name="路径 14002" d="M136.563 452.917c-.089.146-.85-.211-1.831-.292s-1.8.113-1.863-.049.753-.664 1.912-.551 1.887.787 1.782.892z" transform="translate(429.031 2376.7)" style="fill:#263238"/>
                <path data-name="路径 14003" d="m122.043 441.44-.324 18.419s18.629 6.52 18.888 9.93l-35.744.648-.664-28.721z" transform="translate(434.479 2378.709)" style="fill:#ff725e"/>
                <path data-name="路径 14004" d="M111.913 462.514a1.466 1.466 0 0 0-.98 1.685 1.4 1.4 0 0 0 1.62.98 1.531 1.531 0 0 0 1.029-1.79 1.442 1.442 0 0 0-1.839-.81" transform="translate(433.205 2374.709)" style="fill:#e0e0e0"/>
                <path data-name="路径 14005" d="m105 476.56.049-2.9 34.253.462s1.62.664 1.442 1.79z" transform="translate(434.327 2372.585)" style="fill:#263238"/>
                <path data-name="路径 14006" d="M125.784 463.905c0 .178-.875.275-1.717.85s-1.3 1.32-1.458 1.247.081-1.077 1.118-1.758 2.098-.501 2.057-.339z" transform="translate(430.989 2374.468)" style="fill:#263238"/>
                <path data-name="路径 14007" d="M130.661 465.755c0 .17-.713.478-1.288 1.231s-.737 1.531-.915 1.531-.3-1 .437-1.911 1.758-1.013 1.766-.851z" transform="translate(429.895 2374.1)" style="fill:#263238"/>
                <path data-name="路径 14008" d="M133.886 470.548c-.162.04-.421-.81 0-1.79s1.239-1.361 1.32-1.215-.421.664-.761 1.466-.389 1.523-.559 1.539z" transform="translate(428.881 2373.754)" style="fill:#263238"/>
                <path data-name="路径 14009" d="M125.19 458.608c-.073.162-.875-.065-1.863 0s-1.75.413-1.839.267.632-.81 1.8-.867 1.983.463 1.902.6z" transform="translate(431.195 2375.561)" style="fill:#263238"/>
                <path data-name="路径 14010" d="m95.11 264.84.47 18.232 5.386 56.576s-1.717 27.539-2.8 43.122c-.948 13.51 1.782 36.934 1.782 36.934l22.744-.591 6.1-78.5 3.783-48.962 7.678-25.587z" transform="translate(436.206 2412.269)" style="fill:#263238"/>
                <path data-name="路径 14011" d="m156.4 269.019 1.434 74a31.062 31.062 0 0 1-1.847 11.048l-19.512 54.429-.964 3.6-13.672-2.948 6.609-144.3z" transform="translate(431.127 2412.269)" style="fill:#263238"/>
                <path data-name="路径 14012" d="M138.75 286.1v5.411c0 3.475-.1 8.513-.259 14.733-.364 12.441-1.2 29.612-2.705 48.533s-3.24 36.011-4.463 48.379c-.648 6.164-1.174 11.153-1.539 14.636-.186 1.709-.332 3.045-.429 3.977-.057.437-.1.81-.13 1.037a2.553 2.553 0 0 1-.057.348 2.355 2.355 0 0 1 0-.356c0-.259.049-.6.081-1.037.081-.94.2-2.276.356-3.985.332-3.491.81-8.488 1.4-14.66 1.191-12.368 2.867-29.458 4.341-48.379s2.381-36.076 2.827-48.5c.2-6.22.348-11.25.4-14.733.04-1.717.073-3.062.089-4v-1.045a2.428 2.428 0 0 1 .088-.359z" transform="translate(429.735 2408.229)" style="fill:#455a64"/>
                <path data-name="路径 14013" d="M112.994 270.61a3.126 3.126 0 0 1-.073.81 13.387 13.387 0 0 1-.591 2.219 14.579 14.579 0 0 1-11.056 9.436 12.352 12.352 0 0 1-2.284.211 2.8 2.8 0 0 1-.81-.065 27.25 27.25 0 0 0 3.062-.445 15.065 15.065 0 0 0 10.87-9.209c.647-1.774.801-2.973.882-2.957z" transform="translate(435.623 2411.173)" style="fill:#455a64"/>
                <path data-name="路径 14014" d="M141.9 273.932a1.174 1.174 0 1 1-1.207-1.142 1.174 1.174 0 0 1 1.207 1.142z" transform="translate(427.761 2410.759)" style="fill:#455a64"/>
                <path data-name="路径 14015" d="M163.75 281.919a7.29 7.29 0 0 1-1.62-1.458 18.119 18.119 0 0 1-4.544-9.477 7.476 7.476 0 0 1-.105-2.2c.065 0 .138.81.4 2.138a20.962 20.962 0 0 0 4.471 9.331c.84 1.035 1.448 1.61 1.398 1.666z" transform="translate(424.36 2411.519)" style="fill:#455a64"/>
                <path data-name="路径 14016" d="m69.87 306.755 42.466-16.215L127 323.748l-44.888 15.64z" transform="translate(441.003 2407.385)" style="fill:#455a64"/>
                <path data-name="路径 14017" d="M103.747 305.912c-1.685-1.547-3.912-3.661-3.936-4.05s-.607-2.956-1.126-5.2a2.13 2.13 0 0 1 2.381-2.681l2.875-1.11a18.54 18.54 0 0 0-2.616-3.92 29.438 29.438 0 0 0-5.232-3.418l-.437-5.014-11.485 2.3 1.62 11.534s2.851 10.829 4.123 11.858 4.86 1.539 4.86 1.539c1.434 1.62 4.341.948 4.341.948 3.24 1.9 3.086-.486 3.086-.486a.688.688 0 0 0 .34.178 1.446 1.446 0 0 0 1.206-2.478z" transform="translate(438.285 2409.29)" style="fill:#bd8c83"/>
                <path data-name="路径 14018" d="M97.988 302a6.56 6.56 0 0 0 .049 1.968 10.238 10.238 0 0 0 1.409 4.512 9.112 9.112 0 0 0 3.653 2.964 6.212 6.212 0 0 0 1.8.713 8.911 8.911 0 0 0-1.62-1.029 10.246 10.246 0 0 1-3.4-2.94 11.615 11.615 0 0 1-1.49-4.3 8.748 8.748 0 0 0-.4-1.887z" transform="translate(435.669 2405.208)" style="fill:#896360"/>
                <path data-name="路径 14019" d="M94.966 303.59a3.677 3.677 0 0 0-.057 1.806 12.959 12.959 0 0 0 .373 1.92 5.929 5.929 0 0 0 1.021 2.2 10.342 10.342 0 0 0 1.79 1.563l1.547 1.1a6.028 6.028 0 0 0 1.507.915 6.042 6.042 0 0 0-1.288-1.207 45.57 45.57 0 0 0-1.482-1.191 11.617 11.617 0 0 1-1.685-1.515 5.856 5.856 0 0 1-1-2.025 18.039 18.039 0 0 1-.47-1.831 14.051 14.051 0 0 1-.256-1.735z" transform="translate(436.261 2404.905)" style="fill:#896360"/>
                <path data-name="路径 14020" d="M91.569 305.75c-.2.049.3 1.984 1.053 4.26a1.944 1.944 0 0 0 .551.81 6.393 6.393 0 0 0 .632.551 7.215 7.215 0 0 0 1.174.769c.713.373 1.215.462 1.231.4a7.973 7.973 0 0 0-1.045-.7 12.089 12.089 0 0 1-1.061-.81 7.148 7.148 0 0 1-.575-.543 1.531 1.531 0 0 1-.421-.616c-.373-1.166-.753-2.179-1.029-2.924a5.808 5.808 0 0 0-.51-1.197z" transform="translate(436.888 2404.495)" style="fill:#896360"/>
                <path data-name="路径 14021" d="M146.14 154.68s9.946 4.981 13.85 10.619 10.643 15.859 10.643 15.859l8.991-23.343 13.47 5.978s-7.695 27.879-9.112 30.932c-1.976 4.228-6.666 8.011-14.012 7.565s-5-.251-9.825-4.771l-6.48-7.6z" transform="translate(426.509 2433.204)" style="fill:#ff725e"/>
                <g data-name="组 8311" style="opacity:.3">
                    <path data-name="路径 14022" d="M578.829 2609.632a73.059 73.059 0 0 0 8.334 21.529 52.7 52.7 0 0 1-4.244-4.795c-1.11-1.3-2.681-3.126-2.681-3.126-.429-4.576-1.409-13.607-1.409-13.607"/>
                </g>
                <path data-name="路径 14023" d="M178 197.916a6.108 6.108 0 0 1-.413-1.62c-.2-1.021-.429-2.43-.624-4.05s-.308-3-.364-4.05a6.415 6.415 0 0 1 0-1.677 56.969 56.969 0 0 1 .81 5.67c.354 3.176.703 5.711.591 5.727z" transform="translate(420.731 2427.153)" style="fill:#263238"/>
                <path data-name="路径 14024" d="m106.542 141.293-.5-4.86a1.62 1.62 0 0 1 1.9-1.539c5.751 1.223 22.582 4.86 22.776 5.767.121.526 0 4.05-.049 6.982l-24.121-6.391" transform="translate(434.129 2436.969)" style="fill:#ff725e"/>
                <path data-name="路径 14025" d="M79.31 158.55s-5.961 4.228-6.982 15.624c-.632 7-1.5 52.372-1.5 52.372l9.72 37.8L96 260.435l-5.48-39.818.535-34.585z" transform="translate(440.821 2432.469)" style="fill:#ff725e"/>
                <path data-name="路径 14026" d="M82.8 270.337a1.119 1.119 0 0 1 .267-.1l.81-.227 3.07-.81 11.283-2.932-.121.186c-1.166-7.97-2.705-18.532-4.39-30.1-.4-2.754-.81-5.443-1.15-8.027.186-10.862.356-20.411.47-27.288.081-3.4.146-6.131.186-8.051 0-.923.057-1.62.073-2.171v-.559a1.2 1.2 0 0 1 0-.194.607.607 0 0 1 0 .194v2.73c0 1.92 0 4.657-.057 8.051-.081 6.877-.194 16.434-.324 27.3v-.04l1.158 8.027c1.62 11.574 3.143 22.144 4.277 30.114v.154H98.2l-11.186 2.794-3.094.737-.81.178a1.177 1.177 0 0 1-.308.032z" transform="translate(438.546 2426.479)" style="fill:#263238"/>
                <path data-name="路径 14027" d="M102.6 141.25s-17.819 8.8-21.529 14.012c-4.52 6.318 7.986 26.526 8.91 31.54.462 2.43 3.442 20.5 2.041 34.772a244.546 244.546 0 0 0-1.069 28.559l57.507-4.633c0-10.027-2.592-17.762-4.317-30.5l-4.309-41.559-6.246-21.341-8.91-3.75z" transform="translate(439.061 2435.756)" style="fill:#ff725e"/>
                <path data-name="路径 14028" d="M152.548 172.38a1.62 1.62 0 0 1 .1.437c.057.34.121.761.2 1.272.17 1.1.389 2.7.648 4.673.518 3.953 1.174 9.42 1.814 15.47s1.126 11.534 1.434 15.5c.162 1.993.275 3.6.34 4.714l.065 1.28a1.709 1.709 0 0 1 0 .445 1.62 1.62 0 0 1-.081-.437c-.04-.34-.089-.761-.154-1.272-.113-1.183-.275-2.77-.478-4.7-.4-4.05-.956-9.468-1.571-15.495s-1.239-11.453-1.677-15.47a655.558 655.558 0 0 1-.5-4.7l-.121-1.272a1.482 1.482 0 0 1-.019-.445z" transform="translate(425.293 2429.84)" style="fill:#263238"/>
                <path data-name="路径 14029" d="M96.219 174.082c-.089 0 0-1.191-.4-3.054a15 15 0 0 0-8.966-10.943c-1.75-.737-2.932-.915-2.916-1a2.916 2.916 0 0 1 .81.081 12.572 12.572 0 0 1 2.195.616 14.4 14.4 0 0 1 9.193 11.186 12.336 12.336 0 0 1 .17 2.276 2.988 2.988 0 0 1-.089.834z" transform="translate(438.329 2432.367)" style="fill:#263238"/>
                <path data-name="路径 14030" d="M141.343 233.633a5.192 5.192 0 0 1-1.126-.154 29.116 29.116 0 0 1-3-.753 35.69 35.69 0 0 1-4.3-1.62 39.833 39.833 0 0 1-4.925-2.713 38.832 38.832 0 0 1-4.447-3.442 33.878 33.878 0 0 1-3.2-3.3 25.564 25.564 0 0 1-1.879-2.43 5.573 5.573 0 0 1-.6-.964c.073-.049.988 1.28 2.713 3.24a40.68 40.68 0 0 0 3.24 3.2 42.5 42.5 0 0 0 4.414 3.378 44 44 0 0 0 4.86 2.713 41.585 41.585 0 0 0 4.22 1.693c2.458.763 4.046 1.071 4.03 1.152z" transform="translate(431.881 2421.122)" style="fill:#263238"/>
                <g data-name="组 8312" style="opacity:.3">
                    <path data-name="路径 14031" d="M531.85 2618.501c-3.7 22.039-1.822 45.358 3.864 66.927l1.474-.113c1.199-22.307-1.012-44.894-5.338-66.814z"/>
                </g>
                <g data-name="组 8313" style="opacity:.3">
                    <path data-name="路径 14032" d="M557.519 2656.131a51.027 51.027 0 0 0 18.977 3.855c-.988 1.49-2.859 1.871-4.641 1.976a14.742 14.742 0 0 1-5.224-.5c-3.24-1-7.128-2.535-9.112-5.33"/>
                </g>
                <path data-name="路径 14033" d="M130.618 148.81a3.749 3.749 0 0 1-.988.178 14.3 14.3 0 0 1-2.738 0 34.148 34.148 0 0 1-8.723-2.227c-3.3-1.191-6.334-2.171-8.424-3.191a13.518 13.518 0 0 1-2.365-1.385 4.253 4.253 0 0 1-.559-.5c-.113-.121-.17-.186-.162-.2s.283.227.81.567a17.114 17.114 0 0 0 2.43 1.255c2.09.94 5.127 1.871 8.432 3.062a38.8 38.8 0 0 0 8.61 2.349 31.742 31.742 0 0 0 3.677.092z" transform="translate(434.012 2435.713)" style="fill:#263238"/>
                <path data-name="路径 14034" d="M110.611 135.53a18.857 18.857 0 0 1 0 3.394 19.2 19.2 0 0 1-.186 3.386 10.821 10.821 0 0 1-.235-3.4 11.153 11.153 0 0 1 .421-3.378z" transform="translate(433.349 2436.843)" style="fill:#263238"/>
                <path data-name="路径 14035" d="M121.112 137.85a25.01 25.01 0 0 1 .251 4 25.764 25.764 0 0 1 0 4.05 15.552 15.552 0 0 1-.445-3.993 15.609 15.609 0 0 1 .194-4.057z" transform="translate(431.312 2436.403)" style="fill:#263238"/>
                <path data-name="路径 14036" d="M133.735 141a13.056 13.056 0 0 1 .348 3.936 12.531 12.531 0 0 1-.462 3.92 34.612 34.612 0 0 1 .04-3.928 33.2 33.2 0 0 1 .073-3.928z" transform="translate(428.895 2435.804)" style="fill:#263238"/>
                <g data-name="组 8314" style="opacity:.3">
                    <path data-name="路径 14037" d="M541.562 2577.778c1.239 1.863 3.167 2.786 5.176 3.791a38.214 38.214 0 0 0 8.148 3.24 15.389 15.389 0 0 0 8.667-.211 33.836 33.836 0 0 1-11.1-2.543c-3.572-1.336-7.354-2.9-10.853-4.285"/>
                </g>
                <path data-name="路径 14038" d="m203.18 139.427-5.054.713-.583-6.844-.907-6.026.389-10.529-5.135 6.14a4.682 4.682 0 0 0-.753 2.211l-.526 18.524-.089 7.93 8.982 5.67-.186-9.485 2.082-2.235c2.087-2.23 1.78-6.069 1.78-6.069z" transform="translate(418.075 2440.414)" style="fill:#bd8c83"/>
                <path data-name="矩形 8603" transform="translate(620.161 2548.415)" style="fill:#263238" d="M0 0h20.865v56.065H0z"/>
                <path data-name="矩形 8604" transform="translate(614.532 2548.415)" style="fill:#455a64" d="M0 0h20.865v56.065H0z"/>
                <path data-name="路径 14039" d="M213.662 121.606a4.706 4.706 0 1 1-4.706-4.706 4.706 4.706 0 0 1 4.706 4.706z" transform="translate(415.466 2440.384)" style="fill:#fff"/>
                <path data-name="路径 14040" d="M229.2 116.36a27.944 27.944 0 0 1-2.64 4.163 28.648 28.648 0 0 1-2.981 3.928 28.778 28.778 0 0 1 2.64-4.163 28.648 28.648 0 0 1 2.981-3.928z" transform="translate(411.792 2440.486)" style="fill:#455a64"/>
                <path data-name="路径 14041" d="M229.2 124a28.425 28.425 0 0 1-2.64 4.163 28.648 28.648 0 0 1-2.981 3.928 29.086 29.086 0 0 1 2.64-4.171A28.852 28.852 0 0 1 229.2 124z" transform="translate(411.792 2439.035)" style="fill:#455a64"/>
                <path data-name="路径 14042" d="M229.2 131.68a28.922 28.922 0 0 1-2.64 4.163 27.643 27.643 0 0 1-2.981 3.92 29.816 29.816 0 0 1 2.64-4.163 28.853 28.853 0 0 1 2.981-3.92z" transform="translate(411.792 2437.575)" style="fill:#455a64"/>
                <path data-name="路径 14043" d="M229.2 139.34a28.922 28.922 0 0 1-2.64 4.163 28.237 28.237 0 0 1-2.981 3.92 29.813 29.813 0 0 1 2.64-4.163 28.238 28.238 0 0 1 2.981-3.92z" transform="translate(411.792 2436.119)" style="fill:#455a64"/>
                <path data-name="路径 14044" d="M229.2 147a28.922 28.922 0 0 1-2.64 4.163 28.849 28.849 0 0 1-2.981 3.92 29.815 29.815 0 0 1 2.64-4.163A27.645 27.645 0 0 1 229.2 147z" transform="translate(411.792 2434.664)" style="fill:#455a64"/>
                <path data-name="路径 14045" d="M229.2 154.65a27.945 27.945 0 0 1-2.64 4.163 28.648 28.648 0 0 1-2.981 3.928 29.816 29.816 0 0 1 2.64-4.163 28.648 28.648 0 0 1 2.981-3.928z" transform="translate(411.792 2433.21)" style="fill:#455a64"/>
                <path data-name="路径 14046" d="M229.2 162.31a27.944 27.944 0 0 1-2.64 4.163 28.648 28.648 0 0 1-2.981 3.928 28.779 28.779 0 0 1 2.64-4.163 28.648 28.648 0 0 1 2.981-3.928z" transform="translate(411.792 2431.754)" style="fill:#455a64"/>
                <path data-name="路径 14047" d="M229.131 109.61a28.923 28.923 0 0 1-2.64 4.163 28.233 28.233 0 0 1-2.981 3.92 28.924 28.924 0 0 1 2.64-4.163 28.853 28.853 0 0 1 2.981-3.92z" transform="translate(411.805 2441.769)" style="fill:#455a64"/>
                <path data-name="路径 14048" d="M227.041 106a10.037 10.037 0 0 1-1.49 2.511 10.1 10.1 0 0 1-1.831 2.276 10.035 10.035 0 0 1 1.49-2.511 10.1 10.1 0 0 1 1.831-2.276z" transform="translate(411.765 2442.455)" style="fill:#455a64"/>
                <path data-name="路径 14049" d="M192.59 132.823a38.483 38.483 0 0 1 4.05-5.816 5.41 5.41 0 0 1 1.725-1.515 2.049 2.049 0 0 1 2.187.162 2.154 2.154 0 0 1 .364 2.43 8.416 8.416 0 0 1-1.571 2.1 4.268 4.268 0 0 0-1.231 2.284 7.03 7.03 0 0 0 .445 2.43 7.954 7.954 0 0 1-2.073 7.435" transform="translate(417.681 2438.797)" style="fill:#bd8c83"/>
                <path data-name="路径 14050" d="M196.486 142.284s.267-.332.7-.956a8.051 8.051 0 0 0 1.239-2.9 7.824 7.824 0 0 0 .154-2.171 10.845 10.845 0 0 0-.526-2.43 3.88 3.88 0 0 1-.146-1.45 3.394 3.394 0 0 1 .559-1.426c.551-.867 1.361-1.531 1.911-2.357a2.884 2.884 0 0 0 .518-1.32 1.62 1.62 0 0 0-2.6-1.515 7.063 7.063 0 0 0-1.8 1.7c-.51.616-.972 1.2-1.377 1.741-.81 1.085-1.434 2-1.847 2.632a6.7 6.7 0 0 1-.68.98 5.516 5.516 0 0 1 .526-1.069 30.841 30.841 0 0 1 1.741-2.73 21.683 21.683 0 0 1 1.353-1.79 7.1 7.1 0 0 1 1.879-1.822 2.641 2.641 0 0 1 1.442-.364 1.83 1.83 0 0 1 1.409.7 2.713 2.713 0 0 1-.194 3.1c-.607.9-1.409 1.555-1.92 2.349a3.07 3.07 0 0 0-.494 1.239 3.313 3.313 0 0 0 .122 1.288 10.691 10.691 0 0 1 .494 2.543 7.711 7.711 0 0 1-.219 2.26 7.622 7.622 0 0 1-1.409 2.94 4.3 4.3 0 0 1-.591.656 1.063 1.063 0 0 1-.244.172z" transform="translate(417.681 2438.837)" style="fill:#896360"/>
            </g>
            <g>
                <path data-name="路径 14051" d="M358.816 237.78c-1.166.648-12.036.769-12.036.769l.437 8.723 21.61 2.106z" transform="translate(388.38 2417.412)" style="fill:#ff725e"/>
                <path data-name="路径 14052" d="M289.765 229.38a3.653 3.653 0 0 0-.745 1.693c0 .68 18.9 14.539 22.776 17.374a2.649 2.649 0 0 0 1.547.5H339.3l.138-2.065s-23.708-16.9-24.161-16.855-25.512-.647-25.512-.647z" transform="translate(399.356 2419.008)" style="fill:#263238"/>
                <path data-name="路径 14053" d="M316 231.256c-.348 0-22.914-.316-22.914-.316s17.139 12.878 20.16 15.09a2.057 2.057 0 0 0 1.2.389l23.959.462z" transform="translate(398.583 2418.712)" style="fill:#fafafa"/>
                <path data-name="路径 14054" d="M342.113 238.953H340.3s-6.585-4.86-7.29-4.989c-.292-.065-5.362-.753-5.362-.753l-5.67 2.187s-.3 1.28 1.968 1.515a11.25 11.25 0 0 0 4.86-.98s5.062 5.014 7.217 6.212 6.326 3.078 6.326 3.078z" transform="translate(393.096 2418.281)" style="fill:#ffbe9d"/>
                <g data-name="组 8315" style="opacity:.3">
                    <path data-name="路径 14055" d="M747.196 2655.192c-1.166.648-12.036.769-12.036.769l.437 8.723 21.61 2.106z"/>
                </g>
                <path data-name="路径 14056" d="m382.974 376.86 10.367 25.109-31.175 13.073c-1.069-3.054 12.554-15.786 12.554-15.786l-7.29-15.819z" transform="translate(385.467 2390.981)" style="fill:#ff725e"/>
                <g data-name="组 8316" style="opacity:.6">
                    <path data-name="路径 14057" d="M388.62 397.837a1.369 1.369 0 0 1 1.482 1.085 1.32 1.32 0 0 1-1.061 1.482 1.458 1.458 0 0 1-1.571-1.158c0-.672.607-1.482 1.28-1.417" transform="translate(380.647 2386.998)" style="fill:#fff"/>
                </g>
                <path data-name="路径 14058" d="m393.318 407.265-1.053-2.535-29.555 13.494s-1.134 1.183-.567 2.1z" transform="translate(385.49 2385.685)" style="fill:#fff"/>
                <path data-name="路径 14059" d="M377 404.435c.065.146.859-.105 1.814.073s1.62.648 1.733.526-.478-.9-1.62-1.093-2.043.359-1.927.494z" transform="translate(382.639 2385.843)" style="fill:#263238"/>
                <path data-name="路径 14060" d="M373.639 407.866c0 .162.81.138 1.579.567s1.223 1.045 1.369.98-.113-.972-1.1-1.49-1.904-.211-1.848-.057z" transform="translate(383.276 2385.133)" style="fill:#263238"/>
                <path data-name="路径 14061" d="M372.827 413.2c.154 0 .049-.875-.7-1.547s-1.62-.7-1.62-.551.624.413 1.223.972.943 1.175 1.097 1.126z" transform="translate(383.87 2384.489)" style="fill:#263238"/>
                <path data-name="路径 14062" d="M375.415 399.547c.121.113.729-.389 1.62-.7s1.669-.308 1.693-.47-.81-.437-1.879-.073-1.563 1.154-1.434 1.243z" transform="translate(382.942 2386.94)" style="fill:#263238"/>
                <path data-name="路径 14063" d="M374.42 393.943a3.183 3.183 0 0 0 1.555-.664 7.533 7.533 0 0 0 2.122-2.041 1.992 1.992 0 0 0 .316-.559.713.713 0 0 0-.267-.81.907.907 0 0 0-.81-.065 2.2 2.2 0 0 0-.551.324 5.671 5.671 0 0 0-.81.737 6.421 6.421 0 0 0-1.085 1.515 2.973 2.973 0 0 0-.39 1.62c.1 0 .243-.6.753-1.458a6.6 6.6 0 0 1 1.061-1.369 6.922 6.922 0 0 1 .81-.656c.3-.219.575-.34.721-.235s.073.065.04.194a1.62 1.62 0 0 1-.235.413 9.664 9.664 0 0 1-.624.81 9.064 9.064 0 0 1-1.272 1.207 12.3 12.3 0 0 0-1.336 1.037z" transform="translate(383.127 2388.534)" style="fill:#263238"/>
                <path data-name="路径 14064" d="M373.9 394.031a2.673 2.673 0 0 0-.219-1.677 5.436 5.436 0 0 0-.931-1.62 5.607 5.607 0 0 0-.81-.81 1.393 1.393 0 0 0-1.328-.365.81.81 0 0 0-.47.7 2.194 2.194 0 0 0 .081.64 3.84 3.84 0 0 0 .437 1.053 3.977 3.977 0 0 0 1.34 1.342 2.171 2.171 0 0 0 1.62.4 13.475 13.475 0 0 1-1.426-.745 3.9 3.9 0 0 1-1.11-1.264 3.353 3.353 0 0 1-.348-.915c-.089-.348-.081-.672.057-.688a.98.98 0 0 1 .761.283 5.522 5.522 0 0 1 .745.688 5.953 5.953 0 0 1 .948 1.426c.481.928.553 1.568.653 1.552z" transform="translate(383.94 2388.576)" style="fill:#263238"/>
                <path data-name="路径 14065" d="m339.818 389.46 9.128 25.587-31.766 11.517c-.915-3.1 13.308-15.154 13.308-15.154l-6.52-16.151z" transform="translate(394.013 2388.587)" style="fill:#ff725e"/>
                <g data-name="组 8317" style="opacity:.6">
                    <path data-name="路径 14066" d="M344.855 410.458a1.385 1.385 0 0 1 1.434 1.158 1.336 1.336 0 0 1-1.134 1.434 1.466 1.466 0 0 1-1.515-1.231c0-.68.672-1.458 1.345-1.361" transform="translate(388.976 2384.598)" style="fill:#fff"/>
                </g>
                <path data-name="路径 14067" d="m348.922 420.444-.915-2.584-30.2 12.036s-1.191 1.134-.672 2.065z" transform="translate(394.037 2383.19)" style="fill:#fff"/>
                <path data-name="路径 14068" d="M332.919 416.481c.057.154.859-.057 1.806.162s1.62.729 1.7.616-.429-.923-1.579-1.174-2.017.266-1.927.396z" transform="translate(391.015 2383.54)" style="fill:#263238"/>
                <path data-name="路径 14069" d="M329.42 419.745c0 .162.81.178 1.547.648s1.174 1.1 1.32 1.037-.065-.972-1.029-1.531-1.887-.308-1.838-.154z" transform="translate(391.679 2382.868)" style="fill:#263238"/>
                <path data-name="路径 14070" d="M328.355 425.024c.154 0 .089-.875-.624-1.579s-1.555-.81-1.571-.624.6.445 1.166 1.029.867 1.215 1.029 1.174z" transform="translate(392.298 2382.262)" style="fill:#263238"/>
                <path data-name="路径 14071" d="M331.576 411.535c.121.121.753-.348 1.62-.607s1.685-.235 1.717-.4-.81-.478-1.879-.154-1.571 1.072-1.458 1.161z" transform="translate(391.272 2384.639)" style="fill:#263238"/>
                <path data-name="路径 14072" d="M330.83 405.9a3.24 3.24 0 0 0 1.62-.583 7.559 7.559 0 0 0 1.482-1.118 8.1 8.1 0 0 0 .737-.81 1.9 1.9 0 0 0 .34-.543.713.713 0 0 0-.227-.85.923.923 0 0 0-.81-.113 2.43 2.43 0 0 0-.567.3 6.834 6.834 0 0 0-.859.7 5.977 5.977 0 0 0-1.118 1.5 2.786 2.786 0 0 0-.47 1.62c.089 0 .267-.591.81-1.426a6.636 6.636 0 0 1 1.126-1.312 7.082 7.082 0 0 1 .81-.616c.308-.211.591-.316.737-.194s.057.065 0 .186a1.781 1.781 0 0 1-.251.4 9.376 9.376 0 0 1-.664.81A9.888 9.888 0 0 1 332.2 405a12.264 12.264 0 0 0-1.37.9z" transform="translate(391.411 2386.236)" style="fill:#263238"/>
                <path data-name="路径 14073" d="M330.339 405.929a2.665 2.665 0 0 0-.146-1.62 5.67 5.67 0 0 0-1.62-2.487 1.393 1.393 0 0 0-1.3-.429.81.81 0 0 0-.51.68 2.675 2.675 0 0 0 .049.648 3.984 3.984 0 0 0 .389 1.069 3.847 3.847 0 0 0 1.28 1.393 2.179 2.179 0 0 0 1.62.494 14.336 14.336 0 0 1-1.393-.81 3.978 3.978 0 0 1-1.045-1.312 3.483 3.483 0 0 1-.3-.931c-.073-.356-.049-.672.089-.68a1.257 1.257 0 0 1 .745.316 5.972 5.972 0 0 1 .713.721 6.325 6.325 0 0 1 .883 1.474c.401.867.449 1.474.546 1.474z" transform="translate(392.185 2386.324)" style="fill:#263238"/>
                <path data-name="路径 14074" d="M360.329 120.44a5.241 5.241 0 0 0-1.4 4.447c.13 1.612.616 3.175.648 4.787.065 3.118-1.571 6.091-1.507 9.217s1.814 6.018 2.106 9.144c.284 2.956 3.71 5.168 2.973 8.043s-5.6 6.755-4.163 9.355a2.487 2.487 0 0 0 1.166 1.174 2.916 2.916 0 0 0 1.62 0l7.46-1.409a4.917 4.917 0 0 0 2.56-1.029 4.447 4.447 0 0 0 1.037-2.859c.616-6.261-.81-12.514-1.62-18.751a88.926 88.926 0 0 1-.057-21.958" transform="translate(386.235 2439.711)" style="fill:#263238"/>
                <path data-name="路径 14075" d="M373.37 172.49z" transform="translate(383.327 2429.82)" style="fill:#ffbe9d"/>
                <path data-name="路径 14076" d="M361.6 126.93a14.49 14.49 0 0 1 13.624-14.336 14.069 14.069 0 0 1 14.911 13.769l-.34 31.718a2.705 2.705 0 0 1-.6 1.685 12.959 12.959 0 0 1-8.586 4.665 13.494 13.494 0 0 1-8.164-2.349 2.7 2.7 0 0 1-1.207-2.43l.364-7.079s0-.049-.04-.049a10.036 10.036 0 0 1-1.976-.194c-1.839-.591-6.48-2.754-7.589-9.865-.397-2.332-.466-8.958-.397-15.535z" transform="translate(385.567 2441.207)" style="fill:#ffbe9d"/>
                <path data-name="路径 14077" d="M372.787 141.594a8.238 8.238 0 0 0-2.033-.364c-.316 0-.616-.1-.672-.308a1.62 1.62 0 0 1 .219-.931c.308-.761.624-1.555.964-2.389a40.4 40.4 0 0 0 2.154-6.261 40.809 40.809 0 0 0-2.665 6.075q-.486 1.215-.923 2.43a1.79 1.79 0 0 0-.17 1.231.81.81 0 0 0 .526.462 1.969 1.969 0 0 0 .543.073 8.408 8.408 0 0 0 2.057-.016z" transform="translate(384.039 2437.64)" style="fill:#263238"/>
                <path data-name="路径 14078" d="M364 136.758a1.142 1.142 0 0 0 1.11 1.158 1.11 1.11 0 0 0 1.207-1.029 1.142 1.142 0 0 0-1.11-1.158 1.118 1.118 0 0 0-1.207 1.029z" transform="translate(385.107 2436.806)" style="fill:#263238"/>
                <path data-name="路径 14079" d="M364.367 133.191c.13.194 1.085-.526 2.341-.429s2.09.915 2.244.745 0-.421-.4-.81a2.762 2.762 0 0 0-3.653-.251c-.426.34-.588.654-.532.745z" transform="translate(385.039 2437.539)" style="fill:#263238"/>
                <path data-name="路径 14080" d="M378.64 136.9a1.15 1.15 0 0 0 1.11 1.158 1.118 1.118 0 0 0 1.207-1.037 1.142 1.142 0 0 0-1.11-1.15 1.118 1.118 0 0 0-1.207 1.029z" transform="translate(382.325 2436.78)" style="fill:#263238"/>
                <path data-name="路径 14081" d="M379.2 133.616c.162.178 1.085-.672 2.43-.753s2.381.616 2.519.421-.105-.4-.559-.737a3.159 3.159 0 0 0-3.945.267c-.392.421-.521.802-.445.802z" transform="translate(382.222 2437.518)" style="fill:#263238"/>
                <path data-name="路径 14082" d="M373.9 161.185s4.86.389 10.9-3.175c0 0-1.944 6.277-11.024 5.435z" transform="translate(383.249 2432.571)" style="fill:#eb996e"/>
                <path data-name="路径 14083" d="M374.13 147.416a2.292 2.292 0 0 1 2.033-.81 2.065 2.065 0 0 1 1.417.745 1.264 1.264 0 0 1 .089 1.466 1.539 1.539 0 0 1-1.62.413 4.859 4.859 0 0 1-1.62-.94 1.684 1.684 0 0 1-.356-.365.413.413 0 0 1 0-.462" transform="translate(383.206 2434.742)" style="fill:#eb996e"/>
                <path data-name="路径 14084" d="M377.139 145c-.2 0-.219 1.328-1.385 2.276s-2.616.81-2.624.988.316.259.931.275a3.434 3.434 0 0 0 2.187-.753 2.883 2.883 0 0 0 1.077-1.9c.057-.562-.097-.886-.186-.886z" transform="translate(383.372 2435.044)" style="fill:#263238"/>
                <path data-name="路径 14085" d="M378.639 128.448c.121.332 1.377.194 2.835.389s2.649.607 2.851.316c.089-.146-.113-.462-.583-.81a5.03 5.03 0 0 0-4.333-.535c-.543.218-.819.478-.77.64z" transform="translate(382.326 2438.362)" style="fill:#263238"/>
                <path data-name="路径 14086" d="M364.521 128.287c.235.267 1.077-.073 2.114-.154s1.92.073 2.106-.235c.081-.146-.073-.413-.47-.656a2.924 2.924 0 0 0-1.741-.356 2.989 2.989 0 0 0-1.66.664c-.349.308-.454.608-.349.737z" transform="translate(385.016 2438.489)" style="fill:#263238"/>
                <path data-name="路径 14087" d="M376.922 110.162a4.261 4.261 0 0 1 3.345-1.62c5.589-.445 11.534 3.321 14.3 8.2s2.43 11.834-.178 16.79l-2.1.211c-4.309-.559-10.732-13.113-16.321-20.192-.69-.851.314-2.466.954-3.389z" transform="translate(382.876 2441.979)" style="fill:#263238"/>
                <path data-name="路径 14088" d="M362.974 113.173c2.5-2.43 6.48-5.419 11.161-3.24.616 1.393-.931 3.037-2.195 3.977-1.847 1.369-3.442 2.276-4.657 3.24-2.47 1.993-5.581 5.37-6.091 9.323 0 .243-.219.267-.47.211s-.948-1.741-1.183-3.92c-.453-4.634.941-7.121 3.435-9.591z" transform="translate(385.971 2441.852)" style="fill:#263238"/>
                <path data-name="路径 14089" d="M394.668 136.392c.13-.065 5.386-1.725 5.33 3.677s-5.459 4.228-5.467 4.05.137-7.727.137-7.727z" transform="translate(379.305 2436.735)" style="fill:#ffbe9d"/>
                <path data-name="路径 14090" d="M396.589 142.523a1.538 1.538 0 0 0 .251.138.964.964 0 0 0 .7 0 2.349 2.349 0 0 0 1.093-2.082 3.021 3.021 0 0 0-.251-1.345 1.077 1.077 0 0 0-.7-.729.47.47 0 0 0-.559.251c-.073.146-.04.259-.073.267s-.113-.1-.065-.316a.583.583 0 0 1 .219-.332.688.688 0 0 1 .518-.138 1.32 1.32 0 0 1 .972.81 3.24 3.24 0 0 1 .316 1.507 2.43 2.43 0 0 1-1.4 2.316 1 1 0 0 1-.859-.154c-.151-.063-.178-.185-.162-.193z" transform="translate(378.915 2436.33)" style="fill:#eb996e"/>
                <path data-name="路径 14091" d="m308.488 163.066-7.938 4.1-3.183-5.346a25.2 25.2 0 0 1-4.179-3l-2.827-3.24a2.94 2.94 0 0 1-.713-2.568.858.858 0 0 1 .243-.5l.81-1.377s-.429-1.968-.551-3.24a9.475 9.475 0 0 1 .923-3.515l-2.964-6.35a1.62 1.62 0 0 1 .235-1.8.7.7 0 0 1 .988-.138c1 .68 3.961 5.816 3.961 5.816l1.093 1.061 1.393.227s-.413-1.976.445-2.43l4.05 2.916 3.337 4.673s.664 6.755 1.555 8.561 3.322 6.15 3.322 6.15z" transform="translate(399.562 2436.765)" style="fill:#ffbe9d"/>
                <path data-name="路径 14092" d="M293.956 151.43a7.979 7.979 0 0 1-1.426-2.373 8.212 8.212 0 0 1-.81-2.657c.081 0 .4 1.166 1.012 2.551s1.288 2.438 1.224 2.479z" transform="translate(398.843 2434.778)" style="fill:#eb996e"/>
                <path data-name="路径 14093" d="M291.9 155.908a3.126 3.126 0 0 1-.632-1.393A4.2 4.2 0 0 1 291 153a4.924 4.924 0 0 1 .526 1.426 9.339 9.339 0 0 1 .374 1.482z" transform="translate(398.98 2433.524)" style="fill:#eb996e"/>
                <path data-name="路径 14094" d="M293.67 142a13.721 13.721 0 0 1 .94 1.28 73.867 73.867 0 0 0 3.604 4.665 5.281 5.281 0 0 0 1.215 1.15 2.527 2.527 0 0 0 1.474.389.81.81 0 0 1-.429.089 2.43 2.43 0 0 1-1.134-.316 4.989 4.989 0 0 1-1.3-1.158 48.528 48.528 0 0 1-1.345-1.62 42.396 42.396 0 0 1-2.236-3.1 7.525 7.525 0 0 1-.789-1.379z" transform="translate(398.473 2435.614)" style="fill:#eb996e"/>
                <path data-name="路径 14095" d="M300.669 149.17c-.04 0-.121-.389-.365-.964a5.669 5.669 0 0 0-1.417-1.976 6.756 6.756 0 0 1-1.029-.94 1.985 1.985 0 0 1-.437-1.077 2.244 2.244 0 0 1 .057-1.053c.049 0 0 .4.122 1.021a1.993 1.993 0 0 0 .437.956 7.673 7.673 0 0 0 1.021.9 5.192 5.192 0 0 1 1.417 2.1 2.519 2.519 0 0 1 .194 1.033z" transform="translate(397.767 2435.394)" style="fill:#eb996e"/>
                <path data-name="路径 14096" d="M398.065 231.465v-14.037s1.507-21.869 1.507-28.592-7.938-21.666-7.938-21.666l-13.008.4-9.574.211c-.1 0-15.81 15.227-15.81 15.227a44.774 44.774 0 0 0-2.673 19.7 35.969 35.969 0 0 0 1.11 5.483l3.378 13.219s1.887 8.82 2.543 11.874c.51 2.43 27.239 1.255 38.878 1.037 2.761-.062 1.587-2.856 1.587-2.856z" transform="translate(387.693 2430.831)" style="fill:#ff725e"/>
                <path data-name="路径 14097" d="M308.833 162s16.677 23.845 17.252 23.845 20.071-13.729 20.071-13.729 8.529-6.334 13.7-5.184-1.434 23.934-1.434 23.934-26.729 15.2-35.7 15.964-20.611-35.23-20.611-35.23l-1.531-2.057z" transform="translate(397.159 2431.813)" style="fill:#ff725e"/>
                <path data-name="路径 14098" d="M364.833 199.55a2.319 2.319 0 0 1-.429.267l-1.264.713-4.7 2.543-3.24 1.733c-.591.308-1.174.648-1.839.948a11.017 11.017 0 0 0-1.887.988 2.041 2.041 0 0 0-.891 1.806 12.475 12.475 0 0 0 .332 2.316c.332 1.579.81 3.175 1.207 4.86 1.4 6.731 3.118 12.716 4.188 17.106.543 2.187.948 3.961 1.207 5.2.113.583.211 1.053.283 1.426a3.55 3.55 0 0 1 .073.5 1.856 1.856 0 0 1-.154-.486q-.146-.543-.365-1.409c-.324-1.272-.81-3.021-1.336-5.159-1.134-4.358-2.9-10.343-4.309-17.09-.365-1.62-.875-3.24-1.2-4.86a12.02 12.02 0 0 1-.324-2.43 2.43 2.43 0 0 1 .251-1.215 2.633 2.633 0 0 1 .81-.9l7.063-3.629 4.763-2.43 1.3-.64a1.727 1.727 0 0 1 .461-.158z" transform="translate(387.732 2424.677)" style="fill:#263238"/>
                <path data-name="路径 14099" d="M331.191 200.2a13.137 13.137 0 0 1 .591-8.869c.121 0-.494 1.96-.648 4.414s.187 4.43.057 4.455z" transform="translate(391.438 2426.239)" style="fill:#263238"/>
                <path data-name="路径 14100" d="M326.75 198.847a8.278 8.278 0 0 1 1.345-4.187 8.958 8.958 0 0 1 2.965-3.24 37.923 37.923 0 0 0-2.6 3.467 27.6 27.6 0 0 0-1.71 3.96z" transform="translate(392.186 2426.222)" style="fill:#263238"/>
                <path data-name="路径 14101" d="M373.458 187.935c-.073 0 .178-1 .308-2.592a19.318 19.318 0 0 0-.494-6.2 19.569 19.569 0 0 0-2.43-5.71c-.867-1.353-1.539-2.09-1.482-2.146a2.64 2.64 0 0 1 .518.486 12.072 12.072 0 0 1 1.207 1.49 17.487 17.487 0 0 1 3 12.149 11.471 11.471 0 0 1-.373 1.887 2.526 2.526 0 0 1-.254.636z" transform="translate(384.089 2430.048)" style="fill:#263238"/>
                <g data-name="组 8318" style="opacity:.3">
                    <path data-name="路径 14102" d="M783.352 2607.235c-.761-1.345-1.62-2.738-1.563-4.277l-16.288 3.661a5.007 5.007 0 0 0 1.312 5.184 14.352 14.352 0 0 0 4.771 2.964c2.114.956 4.406 1.92 6.682 1.466a9.776 9.776 0 0 0 4.147-2.276 5.459 5.459 0 0 0 1.9-2.349c.488-1.458-.2-3.04-.961-4.373z"/>
                </g>
                <g data-name="组 8319" style="opacity:.3">
                    <path data-name="路径 14103" d="m739.225 2631.071-.591.7a14.085 14.085 0 0 0 16.637-10.133c-5.427 3.933-9.801 7.003-16.046 9.433z"/>
                </g>
                <g data-name="组 8320" style="opacity:.3">
                    <path data-name="路径 14104" d="M723.245 2617.634c-3.361 1.28-6.7 4.86-7.063 8.424a1.944 1.944 0 0 0 .073.988.81.81 0 0 0 .769.543c.5-.049.729-.648.859-1.134a21.958 21.958 0 0 1 5.362-8.821z"/>
                </g>
                <path data-name="路径 14105" d="M409.245 159.895a8.375 8.375 0 0 1-4.05-8.553c.348-1.968 1.4-3.742 2.017-5.67s.713-4.2-.632-5.67a19.342 19.342 0 0 0-2.989-2.057 7.638 7.638 0 0 1-2.559-4.05c-.081-1.555 0-3.151 0-4.706a19.658 19.658 0 0 0-16.3-18.629l-8.5 3.07a21.716 21.716 0 0 0 4.86 10.529 46.883 46.883 0 0 1 3.783 4.447 6.435 6.435 0 0 1 1.012 5.548c-.583 1.62-2.065 2.794-2.624 4.422-1.118 3.24 1.709 6.609 1.183 9.963a7.039 7.039 0 0 1-1.166 2.754 15.927 15.927 0 0 1-2.187.688 15.576 15.576 0 0 0-4.366 1.458 4.325 4.325 0 0 0-2.316 3.742 68.946 68.946 0 0 1 10.821.049c-2.43 3.24-4.293 9.136-3.572 9.857.948.948 7.759 2.576 9.1 2.681 5.67.429 4.471-3.313 10.076-4.05a2.948 2.948 0 0 0 1.6-.535 2.77 2.77 0 0 0 .535-2.43c-.194-1.62-.624-3.24-.94-4.86a8.618 8.618 0 0 0 7.225 2z" transform="translate(383.131 2441.589)" style="fill:#263238"/>
                <path data-name="路径 14106" d="M385.143 165.826a.425.425 0 0 0-.04-.138 2.435 2.435 0 0 1-.081-.421 4.674 4.674 0 0 1 .089-1.62 8.253 8.253 0 0 1 1-2.43 28.613 28.613 0 0 1 1.976-2.819 12.651 12.651 0 0 0 1.993-3.572 5.063 5.063 0 0 0 .2-2.211 5.856 5.856 0 0 0-.9-2.187c-.437-.7-.964-1.393-1.417-2.171a4.86 4.86 0 0 1-.729-2.673 6.366 6.366 0 0 1 .81-2.73c.445-.85.972-1.66 1.434-2.5a7.338 7.338 0 0 0 .915-5.321 13.121 13.121 0 0 0-2.009-4.763c-.915-1.393-1.944-2.624-2.875-3.791a32.62 32.62 0 0 1-2.479-3.369 12 12 0 0 1-1.968-5.67 7.33 7.33 0 0 1 .113-1.62 3.592 3.592 0 0 1 .146-.559 12.079 12.079 0 0 0-.1 2.2 12.262 12.262 0 0 0 2.067 5.539 35.753 35.753 0 0 0 2.495 3.3 46.567 46.567 0 0 1 2.932 3.8 13.235 13.235 0 0 1 2.09 4.86 8.408 8.408 0 0 1 .065 2.851 8.181 8.181 0 0 1-1.012 2.754c-.931 1.709-2.154 3.24-2.235 5.046a4.455 4.455 0 0 0 .672 2.43c.421.753.94 1.442 1.393 2.171a6.115 6.115 0 0 1 .931 2.333 5.386 5.386 0 0 1-.235 2.373 12.831 12.831 0 0 1-2.082 3.645 31.063 31.063 0 0 0-2.017 2.762 8.6 8.6 0 0 0-1.045 2.333 6.1 6.1 0 0 0-.1 2.163z" transform="translate(381.865 2440.696)" style="fill:#455a64"/>
                <path data-name="路径 14107" d="m354.9 258.3-3.515-.227c-1.417 1.709-2.292 3.823-3.742 5.508a13.769 13.769 0 0 1-5.953 3.831 40.889 40.889 0 0 1-6.974 1.62 8.042 8.042 0 0 0 .308 2.2 2.705 2.705 0 0 0 1.376 1.668 3.791 3.791 0 0 0 2.041.13 38.27 38.27 0 0 0 10.643-2.973 10.619 10.619 0 0 0 4.8-3.523c1.563-2.365 1.316-5.434 1.016-8.234z" transform="translate(390.671 2413.556)" style="fill:#455a64"/>
                <path data-name="路径 14108" d="M333.29 313.766c.616.729 29.815 67.381 29.815 67.381s19.771-8.294 19.285-9.023S358.8 312 358.8 312z" transform="translate(390.943 2403.307)" style="fill:#263238"/>
                <path data-name="路径 14109" d="m385.134 249.873-39.38-.243-.526 8.691c-2.187 4.981-4.3 7.525-7.225 8.472-11.955 3.888-42.5 13.923-46.913 16.523-5.516 3.24-4.714 11.769-5.362 17.6s31.993 78.1 31.993 78.1l22.59-9.639-18.443-58.844-1.3-7.46 62.5-.9s11.906-2.981 11.582-19.512-9.516-32.788-9.516-32.788z" transform="translate(399.984 2415.16)" style="fill:#263238"/>
                <path data-name="路径 14110" d="M392.9 285.38a5.741 5.741 0 0 1 .267 1.15 17.461 17.461 0 0 1 .251 3.24 19.82 19.82 0 0 1-10.53 17.4 17.76 17.76 0 0 1-2.948 1.272 5.145 5.145 0 0 1-1.142.3 38.709 38.709 0 0 0 3.945-1.831 20.33 20.33 0 0 0 10.335-17.147 39.553 39.553 0 0 0-.178-4.382z" transform="translate(382.295 2408.366)" style="fill:#ff725e"/>
                <path data-name="路径 14111" d="M358.782 251.069c-.81-.737-3.24-.445-4.09.243a3.175 3.175 0 0 0-1.045 3 4.439 4.439 0 0 0 1.79 2.713 2.994 2.994 0 0 0 3.378.381 2.665 2.665 0 0 0 1-1.831 7.6 7.6 0 0 0-.089-2.138 4.86 4.86 0 0 0-.551-1.936 1.62 1.62 0 0 0-1.717-.81" transform="translate(387.086 2414.969)" style="fill:#455a64"/>
                <path data-name="路径 14112" d="M400.427 249.2a143.348 143.348 0 0 1 6.715 18.994 47.479 47.479 0 0 1 1.126 19.982c-.81 4.592-1.968 9.954-5.921 12.441a7.512 7.512 0 0 1-4.86 1.693c-7.363.389-20.581.154-27.944-.105-3.556-.13-8.1.332-11.663.2 10.732-9.371 17.05-25.109 14.676-39.145-.365-2.163-1.012-4.479-2.778-5.767-1.579-1.158-3.669-1.231-5.621-1.336s-2.43.373-4.228.373c-2.7 0-2.316-6.48-.421-6.982z" transform="translate(386.27 2415.242)" style="fill:#455a64"/>
                <path data-name="路径 14113" d="M396.849 285a6.744 6.744 0 0 1-.316 1.11c-.227.7-.6 1.717-1.11 2.948a54.6 54.6 0 0 1-4.923 9.142 53.893 53.893 0 0 1-6.593 8.027 41.137 41.137 0 0 1-2.308 2.146 5.575 5.575 0 0 1-.907.713 7.291 7.291 0 0 1 .81-.81c.535-.51 1.3-1.272 2.2-2.227a60.625 60.625 0 0 0 11.461-17.09 75.29 75.29 0 0 0 1.231-2.883 5.883 5.883 0 0 1 .454-1.077z" transform="translate(381.935 2408.438)" style="fill:#263238"/>
                <path data-name="路径 14114" d="M401.3 298.27a3.136 3.136 0 0 1-.429.7c-.3.429-.81 1.037-1.369 1.758a40.409 40.409 0 0 1-5.192 5.192 41.17 41.17 0 0 1-6.034 4.188c-.81.462-1.49.81-1.968 1.029a3.047 3.047 0 0 1-.761.3c0-.057.988-.607 2.584-1.62a52.48 52.48 0 0 0 5.913-4.252 51.835 51.835 0 0 0 5.24-5.062c1.25-1.367 1.963-2.274 2.016-2.233z" transform="translate(381.012 2405.917)" style="fill:#263238"/>
                <path data-name="路径 14115" d="M404.684 314.6c0 .113-9.9.211-22.1.211s-22.12-.1-22.12-.211 9.906-.211 22.12-.211 22.1.09 22.1.211z" transform="translate(385.78 2402.853)" style="fill:#263238"/>
                <path data-name="路径 14116" d="M383.649 264.171c-.057.057-1-.81-2.705-1.936a28.872 28.872 0 0 0-3.118-1.774 30.559 30.559 0 0 0-4.05-1.62 29.915 29.915 0 0 0-4.285-.907 27.022 27.022 0 0 0-3.58-.219c-2.049 0-3.313.211-3.321.138a3.362 3.362 0 0 1 .875-.194 17.681 17.681 0 0 1 2.43-.243 24.105 24.105 0 0 1 3.629.138 27.632 27.632 0 0 1 4.366.883 28.06 28.06 0 0 1 4.139 1.62 25.056 25.056 0 0 1 3.118 1.879 18.389 18.389 0 0 1 1.9 1.531 4 4 0 0 1 .6.7z" transform="translate(385.375 2413.684)" style="fill:#263238"/>
                <path data-name="路径 14117" d="M392.791 261.741a8.326 8.326 0 0 1-1.9-.259c-1.166-.219-2.77-.575-4.52-1.061s-3.3-1-4.422-1.409a7.774 7.774 0 0 1-1.766-.761 9.72 9.72 0 0 1 1.863.478c1.134.34 2.7.81 4.439 1.288s3.321.883 4.471 1.174a9.048 9.048 0 0 1 1.835.55z" transform="translate(382.032 2413.522)" style="fill:#263238"/>
                <path data-name="路径 14118" d="M359.941 256.784a2.171 2.171 0 0 1-1.255-.551 4.139 4.139 0 0 1-1.62-2.851 4.187 4.187 0 0 1 1.012-3.143 2.573 2.573 0 0 1 1.118-.81 7.525 7.525 0 0 0-.883.98 4.05 4.05 0 0 0 .591 5.581c.575.551 1.069.722 1.037.794z" transform="translate(386.428 2415.198)" style="fill:#263238"/>
                <path data-name="路径 14119" d="M357.127 255.063c0 .121-.688.1-1.409.421s-1.166.81-1.272.737.243-.761 1.1-1.126a1.706 1.706 0 0 1 1.581-.032z" transform="translate(386.926 2414.158)" style="fill:#263238"/>
                <path data-name="路径 14120" d="M359.3 257.227s0 .219-.316.454a2.236 2.236 0 0 1-1.442.413 4.325 4.325 0 0 1-2.114-.688 4.05 4.05 0 0 1-1.693-2.13 3.815 3.815 0 0 1 .13-2.721 3.24 3.24 0 0 1 1.571-1.571 2.876 2.876 0 0 1 1.466-.283c.356 0 .535.113.526.138a4.05 4.05 0 0 0-1.855.413 3.045 3.045 0 0 0-1.353 1.466 3.459 3.459 0 0 0-.081 2.43 3.718 3.718 0 0 0 1.507 1.936 4.293 4.293 0 0 0 1.911.713 2.244 2.244 0 0 0 1.328-.251c.285-.174.382-.346.415-.319z" transform="translate(387.094 2414.958)" style="fill:#263238"/>
                <g data-name="组 8321" style="opacity:.3">
                    <path data-name="路径 14121" d="M772.005 2681.063a6.48 6.48 0 0 0-1.976-2.665c-4.941-4.511-12.741-7.743-18.913-6.917a25.635 25.635 0 0 1 12.425 4.5 43.923 43.923 0 0 1 6.139 6.31 1.336 1.336 0 0 0 2.325-1.223z"/>
                </g>
                <g data-name="组 8322" style="opacity:.3">
                    <path data-name="路径 14122" d="M781.935 2704.778c-3.791 5.119-9.574 9.517-15.195 12.49 3.313-.616 7.484-1.426 10.23-3.369 2.916-2.058 5.346-5.598 4.965-9.121z"/>
                </g>
            </g>
            <g>
                <path data-name="路径 14123" d="m178.76 454.6 4.811-.073L194.2 361.2l-4.738-.551z" transform="translate(420.31 2394.062)" style="fill:#455a64"/>
                <path data-name="路径 14124" d="m213.58 454.6 4.811-.073 10.627-93.327-4.738-.551z" transform="translate(413.693 2394.062)" style="fill:#455a64"/>
                <path data-name="路径 14125" d="m314.908 455.011-4.811-.073-10.627-92.465 4.738-.543z" transform="translate(397.37 2393.819)" style="fill:#455a64"/>
                <path data-name="路径 14126" d="m276.618 455.011-4.811-.073-10.627-92.465 4.738-.543z" transform="translate(404.647 2393.819)" style="fill:#455a64"/>
                <path data-name="矩形 8605" transform="rotate(180 351.814 1385.358)" style="fill:#455a64" d="M0 0h97.066v10.06H0z"/>
                <path data-name="路径 14127" d="m250.28 229.57-61.492.761-.778 111.362 70.612.964z" transform="translate(418.552 2418.973)" style="fill:#455a64"/>
                <path data-name="路径 14128" d="M279.525 271.177c-.316-2.146-6.755-9.266-6.755-9.266s-3.24-12.959-4.179-16.726a12.754 12.754 0 0 0-1.4-3.118 25.165 25.165 0 0 0-9.4-9.063L248.884 228l-2.13-4.738-22.889-4.05-4.609 5.305s-17.285 6.553-19.552 8.545c-2.778 2.43 4.86 43.2 4.86 43.2s-5.9 24.736-7.136 29.855.543 12.3.543 12.3l11.712-11.194c3.24-4.05 9.055-9.031 14.2-8.958l43.94.194-1.75-12.311 35.525 6.909s6.115-11.915 6.6-12.149-28.673-9.731-28.673-9.731z" transform="translate(416.846 2420.941)" style="fill:#ff725e"/>
                <path data-name="路径 14129" d="M230.575 227c-.308-.316 2.738 10.149 6.237 19.747a47.245 47.245 0 0 1 2.835 16.2v34.764l21.059-1.426-3.143-22.954s-2.568-14.766-3.24-20.387c-.664-5.143-2.932-20.8-2.932-20.8S239.4 235.948 230.575 227z" transform="translate(410.467 2419.463)" style="fill:#fff"/>
                <path data-name="路径 14130" d="M288.6 291.951a1.329 1.329 0 0 1 0-.535 7.167 7.167 0 0 1 .275-1.417 9.533 9.533 0 0 1 6.48-6.48 8.6 8.6 0 0 1 1.417-.275 1.327 1.327 0 0 1 .535 0c0 .065-.737.146-1.863.535a10.449 10.449 0 0 0-3.9 2.43 10.335 10.335 0 0 0-2.43 3.9c-.365 1.137-.446 1.882-.514 1.842z" transform="translate(399.441 2408.778)" style="fill:#263238"/>
                <path data-name="路径 14131" d="M290 283.515a8.416 8.416 0 0 1 6.544-.535c0 .113-1.49-.17-3.3 0s-3.244.64-3.244.535z" transform="translate(399.17 2408.903)" style="fill:#263238"/>
                <g data-name="组 8323" style="opacity:.3">
                    <path data-name="路径 14132" d="m619.255 2711.387-1.831 2.074a14.79 14.79 0 0 0 7.427 4.908 37.631 37.631 0 0 0 8.91.81 12.878 12.878 0 0 0 3.621-.348 17.232 17.232 0 0 1 3.548-1.093 9.078 9.078 0 0 1 2.43.356 4.86 4.86 0 0 0 2.43.041 1.952 1.952 0 0 0 1.434-1.822 129.924 129.924 0 0 0-27.968-4.925z"/>
                </g>
                <path data-name="路径 14133" d="m269.217 308.521-5.168-5.492-10.635-2.689s-9.72 2.924-9.979 2.908-8.48-2.252-8.48-2.252l-2.875 10.578 14.847 1.012 16.961-.68s.883-.81.365-1.385 2.835.956 3.24.972 1.158.324 1.685-.316a2.244 2.244 0 0 0 .039-2.656z" transform="translate(410.177 2405.524)" style="fill:#ffbe9d"/>
                <path data-name="路径 14134" d="M269.084 312.21a8.76 8.76 0 0 1-1.693-.478c-1.029-.332-2.43-.769-4.05-1.174s-3.062-.713-4.123-.923a9.888 9.888 0 0 1-1.709-.4 7.119 7.119 0 0 1 1.758.13 39.393 39.393 0 0 1 4.171.81 37.992 37.992 0 0 1 4.05 1.288 7.289 7.289 0 0 1 1.596.747z" transform="translate(405.344 2403.834)" style="fill:#eb996e"/>
                <path data-name="路径 14135" d="M274.112 309.46a21.231 21.231 0 0 1-2.357-.761c-1.45-.486-3.467-1.085-5.718-1.709a29.97 29.97 0 0 0-5.767-1.426 13.627 13.627 0 0 0-2.43.1 1.807 1.807 0 0 1 .632-.219 7.338 7.338 0 0 1 1.831-.154 25.457 25.457 0 0 1 5.856 1.328c2.244.632 4.268 1.272 5.67 1.83.721.275 1.288.518 1.677.7a2.1 2.1 0 0 1 .606.311z" transform="translate(405.282 2404.584)" style="fill:#eb996e"/>
                <path data-name="路径 14136" d="M197.023 236.27s-3.766 2.478-5.67 10.157-9.938 39.016-8.286 43.738 33.921 9.258 33.921 9.258l3.823-16.11-16.369-4.479s.2-14.928.413-21.108-7.832-21.456-7.832-21.456z" transform="translate(419.534 2417.699)" style="fill:#ff725e"/>
                <path data-name="路径 14137" d="m228.728 297.32 5.273 1.3-3.167 12.166-5.184-.834z" transform="translate(411.399 2406.097)" style="fill:#fff"/>
                <path data-name="路径 14138" d="M182.992 298.476a5.159 5.159 0 0 0 .081.761 3.523 3.523 0 0 0 1.126 1.831c1.4 1.3 4.05 2.389 7.468 3 1.547.51 3.313.915 5.2 1.345s3.92.859 6.067 1.3c4.293.875 9.031 1.8 14.061 2.738l-.219.138c.364-1.49.753-3.07 1.142-4.673.9-3.7 1.782-7.29 2.608-10.675l.13.219-14.58-4.16a14.183 14.183 0 0 0-6.342-1.11 13.98 13.98 0 0 0-4.795 1.118 17.217 17.217 0 0 0-2.746 1.523l-.664.486a1.617 1.617 0 0 1-.243.162l.211-.194c.146-.113.356-.3.64-.518a15.1 15.1 0 0 1 2.738-1.62 13.971 13.971 0 0 1 4.86-1.207 14.466 14.466 0 0 1 6.48 1.077l14.579 4.05.178.049-.049.178c-.81 3.394-1.693 6.974-2.592 10.675-.4 1.62-.81 3.183-1.142 4.673l-.049.178h-.17a772.789 772.789 0 0 1-14.061-2.778c-2.146-.454-4.179-.9-6.067-1.328a50.937 50.937 0 0 1-5.224-1.4c-3.434-.648-6.115-1.782-7.525-3.151a3.556 3.556 0 0 1-1.1-1.92 2.276 2.276 0 0 1 0-.77z" transform="translate(419.512 2407.695)" style="fill:#263238"/>
                <path data-name="路径 14139" d="M207.734 289.212c-.049.049-.591-.454-1.571-1.11a15.389 15.389 0 0 0-4.163-1.943 15.591 15.591 0 0 0-4.56-.6c-1.183 0-1.912.162-1.92.1a5.816 5.816 0 0 1 1.912-.364 13.364 13.364 0 0 1 8.91 2.592 5.937 5.937 0 0 1 1.393 1.328z" transform="translate(417.125 2408.39)" style="fill:#263238"/>
                <path data-name="路径 14140" d="M212.127 257.72a4.724 4.724 0 0 1 0 .988c0 .632-.065 1.547-.154 2.673a99.827 99.827 0 0 1-1.1 8.756 62.063 62.063 0 0 1-2.033 8.594c-.178.543-.364 1.021-.526 1.442l-.47 1.053a4.529 4.529 0 0 1-.5.85 5.5 5.5 0 0 1 .373-.907l.4-1.069c.138-.429.3-.907.462-1.45a74.84 74.84 0 0 0 1.92-8.553c.591-3.386.964-6.48 1.215-8.715.113-1.069.2-1.96.275-2.657a5.282 5.282 0 0 1 .138-1z" transform="translate(414.879 2413.623)" style="fill:#263238"/>
                <path data-name="路径 14141" d="M234 243.288s-.081-.186-.259-.5a3.054 3.054 0 0 0-1.1-1.11 2.932 2.932 0 0 0-4.4 1.782l-.1.478-.227-.445a45.764 45.764 0 0 1-2.244-5.224 25.417 25.417 0 0 1-1.62-9.225 14.765 14.765 0 0 1 .13-1.62c.089-.478.154-.883.235-1.207a4.972 4.972 0 0 1 .324-1 20.931 20.931 0 0 0-.421 3.831 27.182 27.182 0 0 0 1.749 9.12 50.793 50.793 0 0 0 2.2 5.2h-.324a3.2 3.2 0 0 1 4.86-1.879 2.94 2.94 0 0 1 1.085 1.231 1.943 1.943 0 0 1 .138.4c-.026.12-.026.168-.026.168z" transform="translate(411.704 2419.801)" style="fill:#263238"/>
                <path data-name="路径 14142" d="M258.319 244.692a5.149 5.149 0 0 1-.162-.875 9.082 9.082 0 0 1-.162-2.43 5.135 5.135 0 0 1 1.774-3.24 3.386 3.386 0 0 1 2.13-.769 2.892 2.892 0 0 1 2.244 1l-.324.186a92.398 92.398 0 0 0-.7-1.75 531.478 531.478 0 0 1-3.45-8.91l-1-2.705a5.671 5.671 0 0 1-.316-1 5.619 5.619 0 0 1 .454.956c.292.7.672 1.62 1.118 2.657.931 2.252 2.187 5.37 3.556 8.829.243.6.47 1.191.7 1.758l.445 1.126-.769-.948a2.576 2.576 0 0 0-1.952-.875 3.07 3.07 0 0 0-1.928.664 5.006 5.006 0 0 0-1.725 3.021 10.71 10.71 0 0 0 .04 2.43 3.386 3.386 0 0 1 .027.875z" transform="translate(405.256 2419.993)" style="fill:#263238"/>
                <path data-name="路径 14143" d="M275.2 251.75c.105 0 1.758 11.129 3.7 24.9s3.426 24.939 3.321 24.955-1.758-11.129-3.7-24.9-3.428-24.947-3.321-24.955z" transform="translate(401.984 2414.758)" style="fill:#263238"/>
                <g data-name="组 8324" style="opacity:.3">
                    <path data-name="路径 14144" d="M637.6 2657.711a22.907 22.907 0 0 0 1.831 8.286 5.924 5.924 0 0 1 2.9-2.325c1.515-.364 3.045.575 4.139 1.709a7.557 7.557 0 0 0-1.32-3.159 3.726 3.726 0 0 0-2.908-1.523 2.584 2.584 0 0 0-2.43 2l-2.1-4.941"/>
                </g>
                <path data-name="路径 14145" d="M209.324 248.348c-.073 0-.049-.81-.267-1.968a12.012 12.012 0 0 0-1.782-4.358 13.1 13.1 0 0 0-1.677-1.993 11.737 11.737 0 0 0-1.685-1.312c-1.029-.648-1.758-.9-1.733-.964s.194 0 .526.13a3.752 3.752 0 0 1 .591.227 5.99 5.99 0 0 1 .753.381 9.921 9.921 0 0 1 1.782 1.28 11.623 11.623 0 0 1 1.758 2.041 10.91 10.91 0 0 1 1.733 4.528 8.5 8.5 0 0 1 .073 1.474 1.62 1.62 0 0 1-.072.534z" transform="translate(415.859 2417.422)" style="fill:#263238"/>
                <path data-name="路径 14146" d="M251.225 178.53a15.713 15.713 0 0 0-17.568-12.068l-.81.122c-8.618 1.758-11.931 10.052-9.938 18.629l6.107 30.252 1.174 3.143a15.932 15.932 0 0 0 19.6 2.033l.186-1.774-1.822-9.72s8.164-2.5 7.063-10.87c-.534-4.082-2.3-12.319-3.992-19.747z" transform="translate(412.027 2430.997)" style="fill:#ffbe9d"/>
                <path data-name="路径 14147" d="M251.614 218.73a20.451 20.451 0 0 1-11.4-1.62s3.442 5.67 11.663 3.685z" transform="translate(408.632 2421.341)" style="fill:#eb996e"/>
                <path data-name="路径 14148" d="M255.784 189.042a1.207 1.207 0 0 1-.98 1.369 1.15 1.15 0 0 1-1.377-.9 1.207 1.207 0 0 1 .972-1.369 1.15 1.15 0 0 1 1.385.9z" transform="translate(406.123 2426.851)" style="fill:#263238"/>
                <path data-name="路径 14149" d="M240.284 190.992a1.207 1.207 0 0 1-.972 1.369 1.15 1.15 0 0 1-1.385-.9 1.207 1.207 0 0 1 .972-1.369 1.15 1.15 0 0 1 1.385.9z" transform="translate(409.069 2426.48)" style="fill:#263238"/>
                <path data-name="路径 14150" d="M239.208 188.445c-.13.178-1.158-.348-2.478-.146s-2.195.98-2.365.81 0-.356.413-.721a3.572 3.572 0 0 1 1.871-.867 3.353 3.353 0 0 1 2 .316c.446.263.624.527.559.608z" transform="translate(409.755 2426.971)" style="fill:#263238"/>
                <path data-name="路径 14151" d="M254.463 186.434c-.138.178-1.166-.34-2.495-.146s-2.211.988-2.373.85 0-.364.413-.721a3.572 3.572 0 0 1 1.879-.867 3.386 3.386 0 0 1 2.009.308c.446.242.632.503.567.576z" transform="translate(406.86 2427.345)" style="fill:#263238"/>
                <path data-name="路径 14152" d="M247.368 197.8a8.489 8.489 0 0 1 2.033-.672c.316-.081.624-.194.64-.421a1.62 1.62 0 0 0-.356-.94l-1.328-2.357a45.99 45.99 0 0 1-3.118-6.212 44.359 44.359 0 0 1 3.612 5.945c.454.81.883 1.62 1.288 2.373a1.928 1.928 0 0 1 .356 1.264.81.81 0 0 1-.47.559 2.43 2.43 0 0 1-.543.154 8.344 8.344 0 0 1-2.114.308z" transform="translate(407.678 2427.025)" style="fill:#263238"/>
                <path data-name="路径 14153" d="M238.1 182.348c-.105.356-1.409.283-2.908.567s-2.705.81-2.932.486c-.1-.146.1-.494.567-.867a5.143 5.143 0 0 1 4.447-.81c.571.187.871.454.826.624z" transform="translate(410.147 2428.102)" style="fill:#263238"/>
                <path data-name="路径 14154" d="M253.982 180.757c-.243.332-1.393.17-2.721.324s-2.43.51-2.721.243c-.13-.138 0-.454.462-.81a4.576 4.576 0 0 1 2.146-.761 4.39 4.39 0 0 1 2.235.316c.51.275.704.558.599.688z" transform="translate(407.058 2428.446)" style="fill:#263238"/>
                <path data-name="路径 14155" d="M252.093 169.5a1.62 1.62 0 0 0-1.831-1.093 3.531 3.531 0 0 0 1.085-.721 1.158 1.158 0 0 0 .259-1.215c-.292-.624-1.134-.656-1.814-.769a4.309 4.309 0 0 1-2.357-1.2c-.915-.907-1.377-2.187-2.2-3.183a5.6 5.6 0 0 0-8.74.065 5.84 5.84 0 0 0-9.153 2.519 6.812 6.812 0 0 0-8.415 8.488l5.6 2.576a2.835 2.835 0 0 1 3.151-2.843c1.62.267 2.843 1.968 4.5 1.9 1.288-.057 2.252-1.166 3.442-1.62a6.131 6.131 0 0 1 4.536.437 17.819 17.819 0 0 0 4.382 1.62 8.732 8.732 0 0 0 5.24-1.255 5.669 5.669 0 0 0 1.822-1.45 2.43 2.43 0 0 0 .494-2.26z" transform="translate(412.729 2432.337)" style="fill:#263238"/>
                <path data-name="路径 14156" d="m225.141 173.4 23.87-2.956a10.975 10.975 0 0 0-4.05-3.531 18.751 18.751 0 0 0-11.339-2.3c-3.9.494-11.1 6.374-13.526 9.46-1.936 2.47-1.62 4.325-1.62 4.325.089 3.135 2.333 6.391 3.459 9.323.583 1.507 1.96 6.131 1.96 6.131 1.3-.194 1.62-1.3 1.255-2.576l-.988-5.046a7.776 7.776 0 0 0 1.037-9.315c-.471-.415-1.499-2.422-.058-3.515z" transform="translate(412.766 2431.34)" style="fill:#263238"/>
                <path data-name="路径 14157" d="M222.736 187.986c-1.717-4.05-3.369-8.488-2.568-12.846l-.713.057-.275.251a3.361 3.361 0 0 0-3.143 5.589 2.916 2.916 0 0 0-2.608 2.875 5.362 5.362 0 0 0 1.1 2.7 6.585 6.585 0 0 1 1.231 2.657 2.106 2.106 0 0 1-1.336 2.341 2.43 2.43 0 0 0 2.859 1 4.738 4.738 0 0 1-1.393 2.26c1.677.875 3.774.267 5.37-.761a4.617 4.617 0 0 0 2.138-2.5 5.753 5.753 0 0 0-.662-3.623z" transform="translate(413.721 2429.316)" style="fill:#263238"/>
                <path data-name="路径 14158" d="M223.956 197.089c-.146 0-5.978-.867-4.973 4.811s6.48 3.507 6.48 3.337-1.507-8.148-1.507-8.148z" transform="translate(412.688 2425.154)" style="fill:#ffbe9d"/>
                <path data-name="路径 14159" d="M224.3 203.777a1.858 1.858 0 0 1-.243.194 1 1 0 0 1-.737.146 2.47 2.47 0 0 1-1.515-1.993 3.183 3.183 0 0 1 0-1.466 1.15 1.15 0 0 1 .607-.891.51.51 0 0 1 .632.162c.105.146.089.267.122.275s.105-.121 0-.348a.64.64 0 0 0-.283-.316.81.81 0 0 0-.575-.049 1.426 1.426 0 0 0-.875 1.069 3.378 3.378 0 0 0-.065 1.62 2.6 2.6 0 0 0 1.879 2.2 1.085 1.085 0 0 0 .875-.308c.178-.125.214-.287.178-.295z" transform="translate(412.227 2424.694)" style="fill:#eb996e"/>
                <path data-name="路径 14160" d="M217.086 189.1a.962.962 0 0 1-.186-.648 2.179 2.179 0 0 1 .9-1.62 6.577 6.577 0 0 1 2.543-.94 3.24 3.24 0 0 0 2.43-1.62 4.771 4.771 0 0 0 .1-3.054c-.251-.948-.607-1.79-.81-2.527a4.4 4.4 0 0 1-.251-2.43 10.973 10.973 0 0 0 .559 2.365c.243.713.632 1.523.915 2.519a5.014 5.014 0 0 1-.089 3.345 2.8 2.8 0 0 1-1.223 1.312 5.718 5.718 0 0 1-1.539.535 6.876 6.876 0 0 0-2.43.81 2.074 2.074 0 0 0-.907 1.369 5.045 5.045 0 0 0-.012.584z" transform="translate(413.062 2429.104)" style="fill:#455a64"/>
                <path data-name="路径 14161" d="M214.988 186.653a1.127 1.127 0 0 1-.235-.494 2.43 2.43 0 0 1 .113-1.507 2.543 2.543 0 0 1 .583-.9 2.94 2.94 0 0 1 1.037-.64 3.167 3.167 0 0 0 1.029-.575 1.28 1.28 0 0 0 .308-1.093c0-.437-.154-.891-.194-1.353a6.617 6.617 0 0 1 .567-3.459 1.62 1.62 0 0 1 1.174-.956c.381-.04.559.113.543.13a2.883 2.883 0 0 0-.51 0 1.474 1.474 0 0 0-.915.923 6.48 6.48 0 0 0-.454 2.041 7.027 7.027 0 0 0 0 1.231c0 .421.162.867.211 1.361a1.782 1.782 0 0 1-.445 1.45 3.377 3.377 0 0 1-1.191.64 2.43 2.43 0 0 0-1.482 1.28 3.28 3.28 0 0 0-.139 1.921z" transform="translate(413.483 2429.215)" style="fill:#455a64"/>
                <path data-name="路径 14162" d="M248.331 165.174a1.191 1.191 0 0 1-1.191.1 3.426 3.426 0 0 1-1.191-.81 4.633 4.633 0 0 0-1.466-1.021 4 4 0 0 0-4.277.81c-.648.6-1.191 1.385-1.944 2.082a3.661 3.661 0 0 1-1.353.81 3.062 3.062 0 0 1-1.62 0c-1.077-.243-1.968-.81-2.892-1a7.224 7.224 0 0 0-2.746-.17 7.119 7.119 0 0 0-4.155 2 7.954 7.954 0 0 0-1.766 2.64c-.275.7-.356 1.126-.4 1.118s0-.113 0-.316a5.8 5.8 0 0 1 .211-.867 7.443 7.443 0 0 1 1.7-2.794 7.346 7.346 0 0 1 4.325-2.2 7.573 7.573 0 0 1 2.908.154c1 .235 1.9.81 2.883.988a2.6 2.6 0 0 0 1.409 0 3.24 3.24 0 0 0 1.2-.729c.7-.64 1.255-1.434 1.952-2.065a4.2 4.2 0 0 1 2.43-1.118 4.4 4.4 0 0 1 2.284.34 4.86 4.86 0 0 1 1.515 1.126 3.385 3.385 0 0 0 1.077.81 1.693 1.693 0 0 0 1.1.105z" transform="translate(411.842 2431.669)" style="fill:#455a64"/>
                <path data-name="路径 14163" d="M244.143 202.609c.178-.065.535 1.134 1.806 1.685s2.511.049 2.568.211-.211.316-.753.486a3.094 3.094 0 0 1-2.122-.105 2.705 2.705 0 0 1-1.434-1.442c-.194-.519-.146-.818-.065-.835z" transform="translate(407.898 2424.097)" style="fill:#263238"/>
                <path data-name="路径 14164" d="M333.307 355.617a11.291 11.291 0 0 0-8.1-2.673L320.25 368.7c3.637.162 7.29 2.033 10.764 1.069a7.662 7.662 0 0 0 5.338-6.3 9.112 9.112 0 0 0-3.045-7.849z" transform="translate(393.421 2395.532)" style="fill:#ff725e"/>
                <path data-name="路径 14165" d="M325.5 352.449c0-.13.535-.227 1.5-.219a12.269 12.269 0 0 1 4.05.761 10.991 10.991 0 0 1 4.941 3.839 10.076 10.076 0 0 1 1.62 3.418 8.974 8.974 0 0 1 .121 4.131 8.294 8.294 0 0 1-1.8 3.758 7.906 7.906 0 0 1-3.2 2.219 11.339 11.339 0 0 1-6.229.4 18.629 18.629 0 0 1-3.888-1.207c-.875-.373-1.328-.648-1.3-.81s.575-.089 1.507.065 2.252.437 3.863.583a11.08 11.08 0 0 0 5.386-.7 6.286 6.286 0 0 0 2.43-1.782 6.82 6.82 0 0 0 1.361-2.948 8.1 8.1 0 0 0-1.336-6.156 10.659 10.659 0 0 0-4.05-3.6 18.387 18.387 0 0 0-3.612-1.264c-.864-.205-1.381-.359-1.364-.488z" transform="translate(393.218 2395.663)" style="fill:#f5f5f5"/>
                <path data-name="路径 14166" d="m267.241 425.44-10.781 30.2 37.517 13.607c1.077-3.661-15.721-17.9-15.721-17.9l7.7-19.066z" transform="translate(405.544 2381.75)" style="fill:#ff725e"/>
                <g data-name="组 8325" style="opacity:.6">
                    <path data-name="路径 14167" d="M269.381 450.225a1.62 1.62 0 0 0-1.693 1.369 1.563 1.563 0 0 0 1.336 1.685 1.709 1.709 0 0 0 1.782-1.45 1.668 1.668 0 0 0-1.62-1.62" transform="translate(403.412 2377.044)" style="fill:#fff"/>
                </g>
                <path data-name="路径 14168" d="m256.46 462.015 1.093-3.045 35.638 14.215s1.409 1.328.81 2.43z" transform="translate(405.544 2375.378)" style="fill:#fff"/>
                <path data-name="路径 14169" d="M283.233 457.341c-.073.178-1.021-.065-2.13.194s-1.879.859-2.017.721.51-1.085 1.863-1.385 2.381.316 2.284.47z" transform="translate(401.248 2375.792)" style="fill:#263238"/>
                <path data-name="路径 14170" d="M287.532 461.187c0 .194-.931.219-1.831.769s-1.385 1.3-1.563 1.231.081-1.158 1.215-1.814 2.235-.381 2.179-.186z" transform="translate(400.294 2374.999)" style="fill:#263238"/>
                <path data-name="路径 14171" d="M288.981 467.43c-.178 0-.105-1.029.729-1.863s1.839-.923 1.855-.745-.7.526-1.377 1.223-1.028 1.434-1.207 1.385z" transform="translate(399.379 2374.28)" style="fill:#263238"/>
                <path data-name="路径 14172" d="M284.849 451.5c-.138.146-.883-.413-1.944-.721s-1.993-.267-2.025-.462.972-.567 2.219-.186 1.928 1.264 1.75 1.369z" transform="translate(400.903 2377.089)" style="fill:#263238"/>
                <path data-name="路径 14173" d="M285.505 444.871a3.8 3.8 0 0 1-1.871-.688 8.912 8.912 0 0 1-1.75-1.32 9.267 9.267 0 0 1-.875-.964 2.487 2.487 0 0 1-.4-.648.859.859 0 0 1 .267-1 1.085 1.085 0 0 1 .956-.13 2.608 2.608 0 0 1 .672.356 6.984 6.984 0 0 1 1.021.81 6.8 6.8 0 0 1 1.32 1.766c.583 1.118.632 1.911.551 1.92s-.316-.7-.964-1.677a8 8 0 0 0-1.328-1.555 7.469 7.469 0 0 0-.964-.721c-.356-.251-.7-.381-.859-.235s-.081.073-.04.227a2.026 2.026 0 0 0 .3.47 11.643 11.643 0 0 0 .81.931 11.153 11.153 0 0 0 1.563 1.353c.943.676 1.632.984 1.591 1.105z" transform="translate(400.968 2378.971)" style="fill:#263238"/>
                <path data-name="路径 14174" d="M286.239 444.905a3.24 3.24 0 0 1 .162-2 6.48 6.48 0 0 1 1.9-2.924 1.62 1.62 0 0 1 1.539-.518.94.94 0 0 1 .6.81 2.8 2.8 0 0 1-.057.761 4.512 4.512 0 0 1-.462 1.264 4.568 4.568 0 0 1-1.507 1.62c-1.085.7-1.928.648-1.92.575a15.768 15.768 0 0 0 1.62-.964 4.681 4.681 0 0 0 1.239-1.547 4.049 4.049 0 0 0 .356-1.1c.089-.421.057-.81-.113-.81a1.476 1.476 0 0 0-.875.381 5.836 5.836 0 0 0-.81.81 6.908 6.908 0 0 0-1.045 1.75c-.466 1.139-.521 1.9-.627 1.892z" transform="translate(399.902 2379.091)" style="fill:#263238"/>
                <path data-name="路径 14175" d="M218.554 325.655c-5.67.13-11.088.931-15.009 5.062-5.2 5.475-11.623 13.267-12 18.678-.543 8.1 4.333 10.489 7.9 12.457a9.89 9.89 0 0 0 5.168 1.2l65.769-.5 2.065-11.137-42.537-10.492 1.766-16.013z" transform="translate(417.887 2400.854)" style="fill:#263238"/>
                <path data-name="路径 14176" d="m240.686 324.688 20.694-.948s35.744 1.984 43.365 8.974 6.674 14.928 4.131 22.557-24.939 56.381-24.939 56.381a8.493 8.493 0 0 1 .81 6.2 8.189 8.189 0 0 1-5.84 5.564l-19.893-7.29s-2.7-.948-.81-3.491 3.183-3.021 3.183-3.021v-5.078s6.982-12.708 7.622-14.458 7.33-27.6 7.33-27.6l4.455-7.654s-10.764-5.054-20.087-8.723l-21.788-5.37z" transform="translate(408.877 2401.077)" style="fill:#263238"/>
                <path data-name="路径 14177" d="M279.459 435.454c-.04.049-.672-.454-1.75-1.15a24.227 24.227 0 0 0-4.455-2.26 24.728 24.728 0 0 0-4.86-1.272 20.6 20.6 0 0 1-2.065-.3 7.719 7.719 0 0 1 2.1 0 20.037 20.037 0 0 1 4.933 1.183 19.707 19.707 0 0 1 4.471 2.43 7.872 7.872 0 0 1 1.626 1.369z" transform="translate(403.668 2380.807)" style="fill:#455a64"/>
                <path data-name="路径 14178" d="M293.225 430.165a6.938 6.938 0 0 1-1.158-1.215c-.664-.81-1.563-1.9-2.495-3.175s-1.741-2.43-2.292-3.329a7.289 7.289 0 0 1-.81-1.466 7.24 7.24 0 0 1 1.045 1.312l2.373 3.24 2.43 3.24a8.36 8.36 0 0 1 .907 1.393z" transform="translate(399.841 2382.597)" style="fill:#455a64"/>
                <path data-name="路径 14179" d="M301.178 353.46a18.325 18.325 0 0 1-1.887.608 20.337 20.337 0 0 0-4.277 2.009 20.1 20.1 0 0 0-3.685 2.965 13.165 13.165 0 0 1-1.369 1.426 6.625 6.625 0 0 1 1.166-1.62 16.9 16.9 0 0 1 3.685-3.1 16.6 16.6 0 0 1 4.406-1.944 6.876 6.876 0 0 1 1.96-.34z" transform="translate(399.178 2395.429)" style="fill:#455a64"/>
                <path data-name="路径 14180" d="M278.69 387.143a1.726 1.726 0 0 1 .081-.437c.081-.316.178-.713.308-1.207.292-1.1.7-2.6 1.191-4.439 1.053-3.783 2.487-8.91 4.05-14.579.81-2.851 1.531-5.564 2.325-8.027a16.7 16.7 0 0 1 3.75-5.718 20.663 20.663 0 0 1 3.556-2.924c.454-.292.81-.518 1.069-.648a2.619 2.619 0 0 1 .389-.194s-.494.34-1.377.964a23.227 23.227 0 0 0-3.442 3 16.717 16.717 0 0 0-3.612 5.67c-.761 2.43-1.474 5.176-2.292 8.01-1.62 5.67-3.094 10.8-4.179 14.579l-1.312 4.406c-.146.486-.275.875-.373 1.191a1.8 1.8 0 0 1-.132.353z" transform="translate(401.319 2396.282)" style="fill:#455a64"/>
                <path data-name="路径 14181" d="M255.72 346.039c-.105 0-.535-3.855-.964-8.634s-.7-8.667-.591-8.675.535 3.855.964 8.642.696 8.659.591 8.667z" transform="translate(405.985 2400.128)" style="fill:#455a64"/>
                <path data-name="路径 14182" d="M211.341 361.112c-.057 0-.381-.6-1.029-1.515a14.975 14.975 0 0 0-3-3.159 15.186 15.186 0 0 0-3.791-2.154c-1.045-.405-1.733-.567-1.717-.624a5.556 5.556 0 0 1 1.806.373 12.758 12.758 0 0 1 3.936 2.106 13.075 13.075 0 0 1 3 3.3 5.953 5.953 0 0 1 .795 1.673z" transform="translate(415.932 2395.391)" style="fill:#455a64"/>
                <path data-name="路径 14183" d="M225.055 344.674c0 .057-.915-.5-2.43-1.2a23.885 23.885 0 0 0-6.22-1.822 23.343 23.343 0 0 0-6.48 0c-1.62.235-2.649.526-2.665.462a2.842 2.842 0 0 1 .68-.259 14.963 14.963 0 0 1 1.944-.47 20.881 20.881 0 0 1 12.878 1.847 15.689 15.689 0 0 1 1.733 1 2.634 2.634 0 0 1 .559.445z" transform="translate(414.894 2397.783)" style="fill:#455a64"/>
                <path data-name="路径 14184" d="M278.592 355.274a2.431 2.431 0 0 1-.51-.081l-1.458-.316-5.362-1.207c-4.528-1.012-10.8-2.373-17.738-3.75s-13.251-2.5-17.819-3.288l-5.411-.931-1.474-.267a2.169 2.169 0 0 1-.51-.113 2.325 2.325 0 0 1 .526.04l1.482.194c1.28.17 3.143.445 5.435.81 4.584.721 10.9 1.806 17.86 3.183s13.2 2.778 17.714 3.855c2.26.543 4.05 1 5.338 1.328l1.442.381a3.146 3.146 0 0 1 .485.162z" transform="translate(410.894 2396.976)" style="fill:#455a64"/>
                <path data-name="路径 14185" d="M236.237 344.628a20.169 20.169 0 0 0-.907-2.1 9.468 9.468 0 0 0-1.507-1.952 24.382 24.382 0 0 0-2.3-1.984 34.508 34.508 0 0 0-4.714-2.932 14.836 14.836 0 0 1-2.009-1.142 12.8 12.8 0 0 1 2.13.907 27.021 27.021 0 0 1 4.819 2.859 21.141 21.141 0 0 1 2.325 2.049 8.738 8.738 0 0 1 1.49 2.065 7.217 7.217 0 0 1 .591 1.62 1.62 1.62 0 0 1 .082.61z" transform="translate(411.561 2399.028)" style="fill:#455a64"/>
                <path data-name="路径 14186" d="M328.636 359.29a34.3 34.3 0 0 0-1.871 2.883 33.484 33.484 0 0 0-1.255 3.24 6.617 6.617 0 0 1 .915-3.378 6.755 6.755 0 0 1 2.211-2.746z" transform="translate(392.422 2394.321)" style="fill:#263238"/>
                <g data-name="组 8326" style="opacity:.3">
                    <path data-name="路径 14187" d="m677.831 2671.068 4.706 33.168.235.526a71.211 71.211 0 0 0-4.941-33.694z"/>
                </g>
                <path data-name="路径 14188" d="m294.787 280.714-15.308 26.8-37.72.81-.089 1.709 36.521-.267 1.158-.04 38.57.073 7.792-13.437 9.954-14.272a1.4 1.4 0 0 0-1.158-2.211l-38.5.146a1.409 1.409 0 0 0-1.22.689z" transform="translate(408.355 2409.412)" style="fill:#e0e0e0"/>
                <path data-name="路径 14189" d="M342.5 300.21s1.984 1.814 1.669 3.353-.211 2.7-1.669 2.8a2.219 2.219 0 0 1-1.984 2.292 2.441 2.441 0 0 1-2.365 2.835s-.867 2.592-2.64 1.96a15.728 15.728 0 0 1-2.924-1.353l-.518-.94s-2.616-.98-1.968-2.43c.389-.9 1.741-1.134 1.741-1.134a2.535 2.535 0 0 1 .17-2.292c.624-.81 2.665-.146 2.665-.146a2.851 2.851 0 0 1 .648-1.992c.689-.81 3.936 1.409 3.936 1.409l1.774-2.114z" transform="translate(391.57 2405.548)" style="fill:#ffbe9d"/>
                <path data-name="路径 14190" d="M338.58 313.22a36.2 36.2 0 0 1-6.31-3.92 36.2 36.2 0 0 1 6.31 3.92z" transform="translate(391.137 2403.821)" style="fill:#eb996e"/>
                <path data-name="路径 14191" d="M341.63 309.813a29.967 29.967 0 0 1-5.84-3.523 15.568 15.568 0 0 1 3.021 1.62 15.193 15.193 0 0 1 2.819 1.903z" transform="translate(390.468 2404.393)" style="fill:#eb996e"/>
                <path data-name="路径 14192" d="M339 304.08a10.53 10.53 0 0 1 2.673 1.426 23.562 23.562 0 0 1 2.519 1.669 8.049 8.049 0 0 1-2.721-1.345 14.578 14.578 0 0 1-2.47-1.75z" transform="translate(389.858 2404.813)" style="fill:#eb996e"/>
                <path data-name="路径 14193" d="M344.908 281.067a.486.486 0 0 1-.186 0H342.1l-7.662.065-25.263.057h-1.839a1.531 1.531 0 0 0-1.409.664l-1.709 3.175a727.297 727.297 0 0 0-3.24 5.864l-5.524 9.93-3.783 6.658-1.021 1.847-.283.462c-.065.105-.1.162-.105.154l.073-.17.243-.486c.243-.445.567-1.061.98-1.839.875-1.62 2.114-3.912 3.645-6.731l5.451-10.019c1.037-1.871 2.114-3.839 3.24-5.88l1.725-3.118a1.928 1.928 0 0 1 1.725-.81h1.839l25.263.057 7.662.065h2.624a.486.486 0 0 1 .178.057z" transform="translate(399.121 2409.221)" style="fill:#263238"/>
                <path data-name="路径 14194" d="M324.155 297.576a1.62 1.62 0 1 0 2.43-.292 1.741 1.741 0 0 0-2.43.292z" transform="translate(392.732 2406.174)" style="fill:#fff"/>
                <path data-name="路径 14195" d="M304.748 386.694a.439.439 0 0 1 .057-.17l.186-.486.769-1.863c.7-1.62 1.7-4 2.932-6.909 2.535-5.888 6.05-14.061 10.052-23.343a32.9 32.9 0 0 0 .948-7.176 18.41 18.41 0 0 0-1.62-8.318 14.733 14.733 0 0 0-2.3-3.337 15.389 15.389 0 0 0-2.794-2.7 16.013 16.013 0 0 0-3.321-1.62 48.247 48.247 0 0 0-3.313-1.207 72.89 72.89 0 0 0-6.107-1.709c-3.774-.891-6.885-1.369-9.031-1.677l-2.478-.324-.648-.089a.81.81 0 0 1-.219-.049h.227l.648.049c.567.049 1.409.121 2.487.251a90.156 90.156 0 0 1 9.047 1.547c1.9.429 3.961.964 6.139 1.669a53.49 53.49 0 0 1 3.345 1.191 16.74 16.74 0 0 1 3.41 1.66 15.7 15.7 0 0 1 2.875 2.762 15.5 15.5 0 0 1 2.365 3.41 18.775 18.775 0 0 1 1.7 8.5 33.031 33.031 0 0 1-.964 7.29l-10.181 23.286c-1.288 2.892-2.316 5.224-3.045 6.86l-.81 1.839-.227.47c-.097.193-.121.193-.129.193z" transform="translate(399.577 2400.7)" style="fill:#455a64"/>
            </g>
            <g>
                <path data-name="路径 14196" d="M394 476.341c0 .113-81.312.211-181.6.211s-181.618-.1-181.618-.211 81.3-.211 181.618-.211 181.6.089 181.6.211z" transform="translate(448.432 2372.116)" style="fill:#263238"/>
            </g>
            <g>
                <path data-name="路径 14197" d="m158.792 95.79 7.954-4.511a21.3 21.3 0 1 0-5.67-5.1z" transform="translate(424.515 2452.747)" style="fill:#fff"/>
                <path data-name="路径 14198" d="M158.754 95.765c.13-.559.81-3.548 2.187-9.639a.081.081 0 0 1 .1-.065l-.113.113a21.253 21.253 0 0 1-4.309-10.222 19.164 19.164 0 0 1-.178-3.369c0-.583.049-1.174.1-1.766s.178-1.191.275-1.8a21.472 21.472 0 0 1 8.584-13.288 21.059 21.059 0 0 1 8.229-3.6 21.691 21.691 0 0 1 9.477.251 20.889 20.889 0 0 1 8.764 4.568 21.31 21.31 0 0 1 5.864 8.2 21.65 21.65 0 0 1 1.466 9.558 21.059 21.059 0 0 1-2.616 8.764 21.561 21.561 0 0 1-12.454 10.109 22.93 22.93 0 0 1-6.925.923 21.164 21.164 0 0 1-10.529-3.183h.081l-7.994 4.447 7.913-4.576a.073.073 0 0 1 .081 0 21.213 21.213 0 0 0 10.529 3.094 23.205 23.205 0 0 0 6.844-.94 21.415 21.415 0 0 0 6.779-3.612 21.164 21.164 0 0 0 5.451-6.407 20.687 20.687 0 0 0 2.543-8.642 21.569 21.569 0 0 0-1.45-9.412 21.1 21.1 0 0 0-5.783-8.1 20.63 20.63 0 0 0-8.626-4.5 21.48 21.48 0 0 0-9.347-.259 21.24 21.24 0 0 0-16.564 16.669c-.1.6-.186 1.191-.275 1.774s-.065 1.174-.105 1.75a19.706 19.706 0 0 0 .154 3.337 21.221 21.221 0 0 0 4.22 10.149.081.081 0 0 1 0 .113.105.105 0 0 1-.1 0l.13-.049c-1.537 6.079-2.266 9.052-2.403 9.61z" transform="translate(424.554 2452.771)" style="fill:#263238"/>
                <path data-name="路径 14199" d="m168.07 77.36 3.062-3.054 5.888 5.24 11.574-11.136 2.835 3.054-14.838 13.971z" transform="translate(422.341 2449.599)" style="fill:#ff725e"/>
            </g>
            <g>
                <path data-name="路径 14200" d="M112.446 447.829h-3.54L106.89 326.1h7.573z" transform="translate(433.968 2400.628)" style="fill:#e0e0e0"/>
                <path data-name="路径 14201" d="M112.4 447.755v-2.478c0-1.62.049-4 .089-7.063.089-6.139.211-15 .364-25.992.34-21.95.81-52.348 1.345-86.2l.211.211h-7.573l.211-.211c.98 59.524 1.733 109.077 1.847 121.737l-.04-.049h-.054v-.049c-.308-12.66-1.191-62.213-2.179-121.729v-.219h8v.219c-.6 33.913-1.134 64.368-1.523 86.358-.2 10.959-.373 19.812-.486 25.919-.065 3.037-.113 5.4-.154 7.014v1.814z" transform="translate(434.019 2400.702)" style="fill:#263238"/>
                <path data-name="路径 14202" d="M398.124 447.909h-3.548L393.45 326.52h7.573z" transform="translate(379.51 2400.548)" style="fill:#e0e0e0"/>
                <path data-name="路径 14203" d="M398.078 447.835v-2.47c0-1.62.081-3.993.138-7.047.13-6.115.324-14.96.559-25.919.5-21.869 1.191-52.2 1.968-85.961l.211.211h-7.574l.211-.211c.551 59.346.94 108.753.964 121.389l-.049-.049v-.049c-.211-12.635-.745-62.043-1.3-121.381v-.219h8.011v.219c-.81 33.816-1.62 64.181-2.146 86.115-.292 10.926-.518 19.747-.68 25.854-.089 3.029-.154 5.386-.2 7 0 .81-.04 1.385-.057 1.806z" transform="translate(379.556 2400.622)" style="fill:#263238"/>
                <path data-name="矩形 8606" transform="translate(523.816 2717.454)" style="fill:#e0e0e0" d="M0 0h282.765v10.044H0z"/>
                <path data-name="路径 14204" d="M85.846 314.6h22.031l60.334-.065 200.433-.146h.211v10.465h-.211l-282.765-.162h-.049v-10.1c0 .356 0 3.24.057 10.044l-.057-.057 282.814-.146-.211.211V314.6l.211.211-200.239-.089-60.391-.065H87.345z" transform="translate(437.97 2402.853)" style="fill:#263238"/>
                <path data-name="路径 14205" d="M145.861 314.83s0 .04-.089.113l-.3.3a6.075 6.075 0 0 1-1.417.923 9.151 9.151 0 0 1-2.73.745 23.692 23.692 0 0 1-3.815.138c-1.417-.04-2.948-.219-4.584-.429a50.536 50.536 0 0 0-5.224-.51 38.991 38.991 0 0 0-11.753 1.855c-4.05 1.166-7.808 2.5-11.412 3.313a38.322 38.322 0 0 1-5.208.81 26.591 26.591 0 0 1-4.617 0 18.232 18.232 0 0 1-6.342-1.62 9.607 9.607 0 0 1-1.96-1.191l.138.073.373.227a13.905 13.905 0 0 0 1.515.81 18.628 18.628 0 0 0 6.3 1.547 26.985 26.985 0 0 0 4.568 0 37.838 37.838 0 0 0 5.143-.859c3.572-.81 7.29-2.155 11.339-3.329a39.16 39.16 0 0 1 11.882-1.847 50.209 50.209 0 0 1 5.265.535 45.229 45.229 0 0 0 4.544.462 24.529 24.529 0 0 0 3.774-.089 9.363 9.363 0 0 0 2.7-.688 6.657 6.657 0 0 0 1.911-1.288z" transform="translate(437.86 2402.769)" style="fill:#fff"/>
                <path data-name="路径 14206" d="M115.552 314.992a6.3 6.3 0 0 1-.859.591 19.97 19.97 0 0 1-2.576 1.353 26.257 26.257 0 0 1-4.22 1.393 27.8 27.8 0 0 1-5.516.7 25.262 25.262 0 0 1-9.849-1.62 6.18 6.18 0 0 1-2.381-1.6 2.559 2.559 0 0 1-.389-.607.81.81 0 0 1-.073-.235 6.075 6.075 0 0 0 .575.81 6.479 6.479 0 0 0 2.373 1.458 26.112 26.112 0 0 0 9.72 1.547 28.352 28.352 0 0 0 5.435-.664 26.924 26.924 0 0 0 4.2-1.32 26.335 26.335 0 0 0 2.616-1.264 7.757 7.757 0 0 1 .948-.535z" transform="translate(437.236 2402.745)" style="fill:#fff"/>
                <path data-name="路径 14207" d="m198.236 321.867.437.13a9.581 9.581 0 0 0 1.3.275 9.265 9.265 0 0 0 4.949-.624v.13a13.4 13.4 0 0 0-6.131-1.944 14.092 14.092 0 0 0-7.986 1.685c-.3.178-.583.389-.616.648s.2.5.526.648a4.584 4.584 0 0 0 1.1.316l1.2.219c1.62.292 3.288.583 5.022.81a37.256 37.256 0 0 0 5.338.292 24.084 24.084 0 0 0 2.746-.211 20.17 20.17 0 0 0 1.361-.235 7.707 7.707 0 0 0 1.32-.348 4.35 4.35 0 0 0 1.709-1 1.345 1.345 0 0 0 .332-1.539 2.892 2.892 0 0 0-1.345-1.223 11.944 11.944 0 0 0-1.879-.745 30.774 30.774 0 0 0-7.849-1.32 39.379 39.379 0 0 0-13.421 1.709 36.206 36.206 0 0 0-8.1 3.58c-.859.543-1.523.972-1.952 1.288l-.494.34a1.5 1.5 0 0 1-.178.113 1.739 1.739 0 0 1 .154-.13l.478-.373c.4-.324 1.061-.769 1.911-1.328a34.73 34.73 0 0 1 8.1-3.677 39.16 39.16 0 0 1 13.51-1.758 31.116 31.116 0 0 1 7.962 1.32 12.841 12.841 0 0 1 1.936.769 3.191 3.191 0 0 1 1.482 1.361 1.62 1.62 0 0 1-.4 1.733 4.86 4.86 0 0 1-1.855 1.094 8.021 8.021 0 0 1-1.377.364c-.454.1-.923.17-1.385.235a24.963 24.963 0 0 1-2.786.219 36.853 36.853 0 0 1-5.4-.308c-1.741-.211-3.418-.51-5.038-.81l-1.207-.227a4.949 4.949 0 0 1-1.183-.34 1.619 1.619 0 0 1-.5-.356.721.721 0 0 1-.178-.543c.057-.4.437-.64.745-.81a14.337 14.337 0 0 1 8.189-1.685 13.486 13.486 0 0 1 6.229 2.025l.113.073-.13.057a9.306 9.306 0 0 1-5.054.567 6.576 6.576 0 0 1-1.7-.462z" transform="translate(420.904 2402.252)" style="fill:#fff"/>
                <path data-name="路径 14208" d="M246.157 315.15a1.45 1.45 0 0 1 .275.51 3.192 3.192 0 0 1 .194 1.507 7.07 7.07 0 0 1-2.754 4.382 13.679 13.679 0 0 1-2.576 1.774 12.288 12.288 0 0 1-2.487.98 13.254 13.254 0 0 1-1.8.364 3.469 3.469 0 0 1-.672.049c0-.057.948-.162 2.389-.6a13.277 13.277 0 0 0 2.43-1.012 13.963 13.963 0 0 0 2.495-1.75 7.225 7.225 0 0 0 2.762-4.212 4.406 4.406 0 0 0-.259-1.992z" transform="translate(409.367 2402.709)" style="fill:#fff"/>
                <path data-name="路径 14209" d="M301.479 324.845a12.388 12.388 0 0 0-1.3-1.029 10.367 10.367 0 0 0-4.422-1.62 11.891 11.891 0 0 0-3.369.081 17.966 17.966 0 0 1-3.945.292 8.691 8.691 0 0 1-3.928-1.563 14.49 14.49 0 0 0-3.944-1.9A17.617 17.617 0 0 0 271.8 319a22.816 22.816 0 0 0-6.48 2.665 35.214 35.214 0 0 0-3.758 2.608l-.964.77a2.255 2.255 0 0 1-.34.259 2.891 2.891 0 0 1 .292-.3c.2-.186.51-.462.915-.81a30.889 30.889 0 0 1 3.71-2.689 22.589 22.589 0 0 1 6.544-2.754 17.819 17.819 0 0 1 8.974.089 14.75 14.75 0 0 1 4.05 1.952 8.391 8.391 0 0 0 3.758 1.523 17.706 17.706 0 0 0 3.864-.267 12.37 12.37 0 0 1 3.45-.04 9.947 9.947 0 0 1 4.471 1.733 5.16 5.16 0 0 1 1.193 1.106z" transform="translate(404.821 2402.126)" style="fill:#fff"/>
                <path data-name="路径 14210" d="M356.643 314.77s-.1.121-.308.34a12.514 12.514 0 0 1-.964.931 24.988 24.988 0 0 1-4.131 2.981 35.635 35.635 0 0 1-7.16 3.24 34.883 34.883 0 0 1-4.617 1.2 28.712 28.712 0 0 1-5.163.538 30.569 30.569 0 0 1-9.8-1.62 35.371 35.371 0 0 1-7.128-3.28 26.949 26.949 0 0 1-4.1-3c-.454-.381-.745-.721-.964-.931a2.365 2.365 0 0 1-.316-.34 2.245 2.245 0 0 1 .365.308c.243.194.551.518 1.012.891a29.415 29.415 0 0 0 4.147 2.916 35.905 35.905 0 0 0 7.1 3.2 30.689 30.689 0 0 0 9.679 1.62 29.482 29.482 0 0 0 5.087-.527 35.574 35.574 0 0 0 4.576-1.174 36.716 36.716 0 0 0 7.144-3.143 27.933 27.933 0 0 0 4.171-2.892c.47-.364.769-.688 1.012-.891a2.493 2.493 0 0 1 .358-.367z" transform="translate(394.991 2402.781)" style="fill:#fff"/>
                <path data-name="路径 14211" d="M352.5 314.65a1.077 1.077 0 0 1-.243.162c-.162.089-.4.235-.729.4-.648.34-1.62.81-2.835 1.3a34.492 34.492 0 0 1-4.476 1.488 24.186 24.186 0 0 1-5.832.81 28.453 28.453 0 0 1-10.367-2.13 25.158 25.158 0 0 1-2.811-1.336c-.324-.17-.551-.332-.713-.429s-.243-.154-.235-.162a8.676 8.676 0 0 1 1.021.494 30.881 30.881 0 0 0 2.843 1.255 29.532 29.532 0 0 0 10.262 2.025 24.232 24.232 0 0 0 5.743-.81 37.733 37.733 0 0 0 4.463-1.409c1.231-.478 2.2-.907 2.867-1.215q.511-.245 1.045-.437z" transform="translate(392.659 2402.804)" style="fill:#fff"/>
                <path data-name="路径 14212" d="M387.9 315.857h-.324l-.923-.049-.672-.04h-2.746l-1.126.049-1.191.105c-.81.057-1.725.219-2.657.348a46.909 46.909 0 0 0-5.913 1.434 45.079 45.079 0 0 0-5.54 2.211c-.81.421-1.579.81-2.252 1.2l-.988.583-.883.575c-.567.356-1.037.721-1.458 1.029l-.591.437-.47.389-.648.535a1.7 1.7 0 0 1-.251.178 1.871 1.871 0 0 1 .194-.219l.607-.567c.138-.13.292-.259.445-.413l.575-.454c.413-.324.875-.7 1.442-1.069l.867-.591.988-.6c.672-.429 1.458-.81 2.26-1.239a43.739 43.739 0 0 1 5.573-2.252 46.3 46.3 0 0 1 5.978-1.426c.948-.121 1.839-.275 2.689-.324l1.223-.1h3.9l.664.065.923.1a1.126 1.126 0 0 1 .305.105z" transform="translate(386.006 2402.625)" style="fill:#fff"/>
                <path data-name="路径 14213" d="M304.066 324.215a10.891 10.891 0 0 0-1.555-1.507 15.519 15.519 0 0 0-5.67-2.584 37.919 37.919 0 0 0-4.447-.81c-1.62-.2-3.369-.373-5.2-.624a52.122 52.122 0 0 1-5.67-1.15 43.589 43.589 0 0 0-6.026-1.183 30.462 30.462 0 0 0-11.728 1.312c-1.733.518-3.313 1.142-4.779 1.741s-2.8 1.215-4.05 1.774a207.14 207.14 0 0 0-5.71 2.73l-1.531.761-.4.194a.6.6 0 0 1-.146.065l.13-.089.381-.219 1.5-.81c1.32-.688 3.24-1.669 5.67-2.811a112.356 112.356 0 0 1 4.009-1.8 45.248 45.248 0 0 1 4.795-1.782 30.689 30.689 0 0 1 11.89-1.353 44.547 44.547 0 0 1 6.075 1.2 52.32 52.32 0 0 0 5.6 1.158c1.814.259 3.564.437 5.184.656a38.241 38.241 0 0 1 4.479.81 15.073 15.073 0 0 1 5.718 2.7 6.107 6.107 0 0 1 1.481 1.621z" transform="translate(407.313 2402.553)" style="fill:#fff"/>
                <path data-name="路径 14214" d="M235.466 314.83a1.976 1.976 0 0 1 0 .648 6.326 6.326 0 0 1-.551 1.693 10.286 10.286 0 0 1-4.349 4.511 32.591 32.591 0 0 1-6.439 2.43c-.859.227-1.563.4-2.057.5a5.213 5.213 0 0 1-.769.13 3.079 3.079 0 0 1 .729-.235l2.017-.591a37.62 37.62 0 0 0 6.334-2.43 10.756 10.756 0 0 0 4.309-4.349 11.979 11.979 0 0 0 .778-2.308z" transform="translate(412.225 2402.769)" style="fill:#fff"/>
                <path data-name="路径 14215" d="M157.75 324.728a4.1 4.1 0 0 1 .688-.543c.454-.332 1.142-.81 2.009-1.336a61.7 61.7 0 0 1 7.217-3.774c2.932-1.312 5.67-2.357 7.67-3.1 1-.373 1.806-.664 2.373-.859a7.213 7.213 0 0 1 .891-.283 4.5 4.5 0 0 1-.81.381l-2.325.94c-1.96.81-4.682 1.871-7.614 3.175a74.632 74.632 0 0 0-7.233 3.685c-.883.518-1.62.956-2.074 1.264a6.794 6.794 0 0 1-.792.45z" transform="translate(424.302 2402.769)" style="fill:#fff"/>
                <path data-name="路径 14216" d="M163.875 315.314a13.115 13.115 0 0 0-1.822 0 15.05 15.05 0 0 0-4.714 1.158 45.141 45.141 0 0 0-6.131 3.345 32.611 32.611 0 0 1-3.685 1.944 23.629 23.629 0 0 1-4.414 1.385 50.406 50.406 0 0 1-9.031.883c-2.8.065-5.313 0-7.411.089a45.143 45.143 0 0 0-4.957.389l-1.336.219a3.242 3.242 0 0 1-.462.073 1.709 1.709 0 0 1 .445-.13c.3-.073.745-.162 1.32-.267a39.676 39.676 0 0 1 4.973-.486c2.114-.1 4.633-.073 7.411-.154a50.82 50.82 0 0 0 8.958-.891 23.438 23.438 0 0 0 4.341-1.353 32.922 32.922 0 0 0 3.661-1.9 43.315 43.315 0 0 1 6.2-3.313 14.869 14.869 0 0 1 4.86-1.093 10.787 10.787 0 0 1 1.369.04 2.712 2.712 0 0 1 .421.065z" transform="translate(431.493 2402.699)" style="fill:#fff"/>
                <path data-name="路径 14217" d="M402.83 324.728a4.1 4.1 0 0 1 .688-.543c.454-.332 1.142-.81 2.009-1.336a62.16 62.16 0 0 1 7.209-3.774c2.94-1.312 5.67-2.357 7.678-3.1 1-.373 1.806-.664 2.373-.859a6.327 6.327 0 0 1 .891-.283 4.859 4.859 0 0 1-.81.381l-2.325.94c-1.96.81-4.682 1.871-7.614 3.175a74.63 74.63 0 0 0-7.233 3.685c-.883.518-1.62.956-2.073 1.264a7.789 7.789 0 0 1-.793.45z" transform="translate(377.728 2402.769)" style="fill:#fff"/>
                <path data-name="路径 14218" d="M408.955 315.312a13.121 13.121 0 0 0-1.822 0 15.05 15.05 0 0 0-4.714 1.158 45.14 45.14 0 0 0-6.131 3.345 32.753 32.753 0 0 1-3.693 1.936 23.347 23.347 0 0 1-4.406 1.385 50.422 50.422 0 0 1-9.039.883c-2.794.065-5.305 0-7.411.089a45.143 45.143 0 0 0-4.957.389l-1.328.219a3.242 3.242 0 0 1-.462.073 1.707 1.707 0 0 1 .445-.13c.3-.073.745-.162 1.32-.267a39.688 39.688 0 0 1 4.973-.486c2.114-.1 4.625-.073 7.411-.154a50.822 50.822 0 0 0 8.958-.891 23.441 23.441 0 0 0 4.341-1.353 33.649 33.649 0 0 0 3.661-1.9 43.32 43.32 0 0 1 6.2-3.313 14.871 14.871 0 0 1 4.819-1.093 10.593 10.593 0 0 1 1.361.04 2.944 2.944 0 0 1 .474.07z" transform="translate(384.919 2402.701)" style="fill:#fff"/>
                <path data-name="路径 14219" d="M379.535 314.568c0 .081-11.817.146-26.389.146s-26.4-.065-26.4-.146 11.817-.138 26.4-.138 26.389.057 26.389.138z" transform="translate(392.186 2402.845)" style="fill:#263238"/>
            </g>
        </g>
    </g>
</svg>
