<svg data-name="组 8454" xmlns="http://www.w3.org/2000/svg" width="54.203" height="47.085" viewBox="0 0 54.203 47.085">
    <defs>
        <clipPath id="t35j57zv0a">
            <path data-name="矩形 11021" style="fill:none" d="M0 0h54.203v47.085H0z"/>
        </clipPath>
    </defs>
    <g data-name="组 8453" style="clip-path:url(#t35j57zv0a)">
        <path data-name="路径 13981" d="M55.766 62.722a1.1 1.1 0 0 1-.247.254L43.455 71.9a1.123 1.123 0 0 1-1.8-.9v-5.748H31.8q-10.54.062-11.448-10.419c.61.637 3.277 4.407 11.448 4.407q8.164 0 9.857-.185v-5.511a1.125 1.125 0 0 1 1.124-1.124 1.163 1.163 0 0 1 .651.205l12.057 8.52a1.133 1.133 0 0 1 .275 1.577" transform="translate(-11.551 -29.747)" style="fill:#fb6943"/>
        <path data-name="路径 13982" d="M46.374 24.3q-8.164 0-9.857.185V30a1.125 1.125 0 0 1-1.124 1.124 1.164 1.164 0 0 1-.651-.205L22.677 22.4a1.122 1.122 0 0 1-.267-1.57 1.082 1.082 0 0 1 .247-.254l12.057-8.925a1.124 1.124 0 0 1 1.8.9V18.3h9.857q10.539-.062 11.447 10.419c-.61-.651-3.277-4.421-11.44-4.421" transform="translate(-12.599 -6.487)" style="fill:#fb6943"/>
        <path data-name="路径 13983" d="M34.33 79.862A23.109 23.109 0 0 1 9.468 58.65" transform="translate(-5.373 -33.282)" style="stroke:#fff;stroke-linecap:round;stroke-miterlimit:10;stroke-width:.5px;fill:none"/>
        <path data-name="路径 13984" d="M58.509 1.074a23.109 23.109 0 0 1 24.862 21.211" transform="translate(-33.202 -.568)" style="stroke:#fff;stroke-linecap:round;stroke-miterlimit:10;stroke-width:.5px;fill:none"/>
        <path data-name="路径 13985" d="M3.81 53.21a26.6 26.6 0 0 1-.859-21.9" transform="translate(-.567 -17.765)" style="stroke:#fff;stroke-linecap:round;stroke-miterlimit:10;stroke-width:.5px;fill:none"/>
        <path data-name="路径 13986" d="M117.817 26.9a26.6 26.6 0 0 1 .793 22.066" transform="translate(-66.858 -15.267)" style="stroke:#fff;stroke-linecap:round;stroke-miterlimit:10;stroke-width:.5px;fill:none"/>
        <path data-name="路径 13987" d="M51.594 1.864a.433.433 0 1 1-.433-.433.433.433 0 0 1 .433.433" transform="translate(-28.787 -.812)" style="fill:#fff"/>
        <path data-name="路径 13988" d="M72.594 106.864a.433.433 0 1 1-.433-.433.433.433 0 0 1 .433.433" transform="translate(-40.704 -60.397)" style="fill:#fff"/>
    </g>
</svg>
