<?xml version="1.0" encoding="utf-8"?>
<!-- Generator: Adobe Illustrator 26.0.1, SVG Export Plug-In . SVG Version: 6.00 Build 0)  -->
<svg version="1.1" id="圖層_1" xmlns="http://www.w3.org/2000/svg" xmlns:xlink="http://www.w3.org/1999/xlink" x="0px" y="0px"
	 viewBox="0 0 24 24" style="enable-background:new 0 0 24 24;" xml:space="preserve">
<!-- <style type="text/css">
	.st0{fill:#A1A5B7;}
	.st1{opacity:0.5;fill:#A1A5B7;enable-background:new    ;}
</style> -->
<g transform="rotate(-45 335.448 609.436)">
	<path class="st0" d="M529.5-49.1c-3.3,0-5.9,2.6-5.9,5.9s2.6,5.9,5.9,5.9s5.9-2.6,5.9-5.9l0,0C535.4-46.4,532.7-49.1,529.5-49.1
		 M529.5-50.7c4.1,0,7.5,3.4,7.5,7.5s-3.4,7.5-7.5,7.5c-4.1,0-7.5-3.4-7.5-7.5c0,0,0,0,0,0C522-47.3,525.3-50.7,529.5-50.7z" fill="#000000"/>
	<path class="st1" d="M529.5-37.3L529.5-37.3c0.4,0,0.8,0.4,0.8,0.8v6.5c0,0.4-0.4,0.8-0.8,0.8l0,0c-0.4,0-0.8-0.4-0.8-0.8v-6.5
		C528.7-36.9,529-37.3,529.5-37.3z" fill="#000000" opacity="0.3"/>
</g>
</svg>
