<svg xmlns="http://www.w3.org/2000/svg" width="20" height="20" viewBox="0 0 20 20">
    <g id="Group_3748" data-name="Group 3748" transform="translate(-1309 -745)">
        <g id="Group_3749" data-name="Group 3749" transform="translate(144.499 417)">
            <path id="Subtraction_57" data-name="Subtraction 57" d="m16102 5550-2-3h-1a1 1 0 0 1-1-1v-9a1 1 0 0 1 1-1h13a1 1 0 0 1 1 1v9a1 1 0 0 1-1 1h-8l-2 3zm7.5-10a1.5 1.5 0 1 0 1.5 1.5 1.5 1.5 0 0 0-1.5-1.5zm-4 0a1.5 1.5 0 1 0 1.5 1.5 1.5 1.5 0 0 0-1.5-1.5zm-4 0a1.5 1.5 0 1 0 1.5 1.5 1.5 1.5 0 0 0-1.5-1.5z" transform="translate(-14931 -5205)" style="fill:#009ef7"/>
            <circle id="Ellipse_90" data-name="Ellipse 90" style="fill:#fff;opacity:.5" cx="1.5" cy="1.5" r="1.5" transform="translate(1169 335)"/>
            <circle id="Ellipse_92" data-name="Ellipse 92" style="fill:#fff;opacity:.5" cx="1.5" cy="1.5" r="1.5" transform="translate(1173 335)"/>
            <circle id="Ellipse_91" data-name="Ellipse 91" style="fill:#fff;opacity:.5" cx="1.5" cy="1.5" r="1.5" transform="translate(1177 335)"/>
        </g>
    </g>
</svg>
