<svg width="20" height="20" viewBox="0 0 20 20" fill="none" xmlns="http://www.w3.org/2000/svg">
<path d="M9.99998 3.74999e-10C12.3135 2.00354e-05 14.5555 0.802232 16.3439 2.26995C18.1323 3.73766 19.3564 5.78007 19.8078 8.04917C20.2591 10.3183 19.9097 12.6737 18.8191 14.714C17.7285 16.7544 15.9641 18.3535 13.8267 19.2388C11.6892 20.1242 9.3109 20.241 7.09698 19.5694C4.88305 18.8978 2.97049 17.4793 1.68516 15.5556C0.399832 13.632 -0.17873 11.3222 0.0480526 9.01976C0.274835 6.71735 1.29293 4.56481 2.92887 2.92889C3.85746 2.00031 4.95986 1.26372 6.17313 0.761176C7.38639 0.258637 8.68676 -1.13719e-05 9.99998 3.74999e-10V3.74999e-10Z" fill="#F1361D"/>
<path d="M10.7544 4.81086L10.14 4.70642L10.5555 4.2453L10.6667 3.63086L11.1278 4.05086L11.7422 4.1553L11.3222 4.61641L11.2178 5.23086L10.7544 4.81086ZM12.32 6.53197L11.7867 6.85641L11.8011 6.23308L11.4767 5.69975L12.1 5.71419L12.6333 5.38975L12.6189 6.01308L12.9433 6.54641L12.32 6.53197ZM10.5422 10.6797L11.0633 10.3342L11.6867 10.3264L11.3444 9.8053L11.3333 9.1853L10.8122 9.52753L10.1889 9.5353L10.5311 10.0564L10.5422 10.6797ZM12.1367 8.65641L11.5167 8.7253L11.7933 8.16975L11.7244 7.54975L12.28 7.82642L12.9 7.75753L12.6233 8.31308L12.6922 8.93308L12.1367 8.65641ZM6.48443 9.02419L7.97665 7.95975L9.46888 9.02419L8.91332 7.2753L10.3867 6.18419L8.55554 6.16753L7.9711 4.42864L7.38888 6.16753L5.55554 6.18419L7.02888 7.2753L6.48443 9.02419Z" fill="#FFDC42"/>
</svg>
