<svg xmlns="http://www.w3.org/2000/svg" width="17" height="17" viewBox="0 0 17 17">
    <g data-name="组 8117" transform="translate(-564.5 -184.941)">
        <circle data-name="椭圆 96" cx="8.5" cy="8.5" r="8.5" transform="translate(564.5 184.941)" style="fill:#eff2f5"/>
        <path data-name="路径 13199" d="M306.36 94.768v4.8a.6.6 0 0 1-.6.6h-.792v-3.56a1.048 1.048 0 0 0-1.046-1.048h-3.562v-.792a.6.6 0 0 1 .6-.6h4.8a.6.6 0 0 1 .6.6z" transform="translate(270.797 95.102)" style="fill:#a1a5b7"/>
        <path data-name="路径 13200" d="M99.884 300.12h-5.048a.476.476 0 0 0-.476.476v5.048a.476.476 0 0 0 .476.476h5.048a.476.476 0 0 0 .476-.476V300.6a.476.476 0 0 0-.476-.48zm-1.262 4.143h-2.527A.289.289 0 0 1 95.8 304a.286.286 0 0 1 .285-.307h2.527a.289.289 0 0 1 .291.264.286.286 0 0 1-.285.307zm0-1.714h-2.527a.289.289 0 0 1-.291-.264.286.286 0 0 1 .285-.307h2.527a.289.289 0 0 1 .291.264.286.286 0 0 1-.285.307z" transform="translate(474.833 -108.885)" style="fill:#a1a5b7"/>
    </g>
</svg>
