<svg width="18" height="18" viewBox="-2 -2 22 22" fill="none" xmlns="http://www.w3.org/2000/svg">
<path d="M15.4008 17.5508H2.60269C1.91312 17.5512 1.25163 17.2777 0.7636 16.7905C0.275567 16.3033 0.000915698 15.6423 0 14.9528V4.57196C0.000915698 3.88239 0.275567 3.22139 0.7636 2.73422C1.25163 2.24705 1.91312 1.97357 2.60269 1.97388H3.54357C3.72683 1.97388 3.90258 2.04668 4.03217 2.17626C4.16175 2.30584 4.23455 2.4816 4.23455 2.66486C4.23455 2.84812 4.16175 3.02387 4.03217 3.15345C3.90258 3.28304 3.72683 3.35584 3.54357 3.35584H2.60269C2.44268 3.35553 2.28418 3.38675 2.13624 3.4477C1.9883 3.50865 1.85381 3.59815 1.74045 3.71107C1.6271 3.824 1.5371 3.95815 1.47559 4.10586C1.41407 4.25357 1.38226 4.41195 1.38196 4.57196V14.9516C1.38211 15.1117 1.41381 15.2702 1.47526 15.4181C1.5367 15.5659 1.62668 15.7002 1.74005 15.8132C1.85342 15.9263 1.98796 16.0159 2.13597 16.0769C2.28399 16.1379 2.44258 16.1692 2.60269 16.1689H15.4008C15.7231 16.1683 16.0321 16.04 16.26 15.812C16.488 15.5841 16.6163 15.2751 16.6169 14.9528V4.57196C16.6163 4.24961 16.488 3.94064 16.26 3.7127C16.0321 3.48477 15.7231 3.35644 15.4008 3.35584H14.5301C14.3469 3.35584 14.1711 3.28304 14.0415 3.15345C13.912 3.02387 13.8392 2.84812 13.8392 2.66486C13.8392 2.4816 13.912 2.30584 14.0415 2.17626C14.1711 2.04668 14.3469 1.97388 14.5301 1.97388H15.4008C16.0897 1.97449 16.7503 2.24837 17.2376 2.73544C17.7249 3.22251 17.9991 3.88299 18 4.57196V14.9516C17.9994 15.6408 17.7253 16.3016 17.238 16.7889C16.7507 17.2762 16.0899 17.5502 15.4008 17.5508Z" fill="#969BAD"/>
<path d="M11.0876 3.35581H6.82653C6.64328 3.35581 6.46752 3.28302 6.33794 3.15343C6.20835 3.02385 6.13556 2.84809 6.13556 2.66484C6.13556 2.48158 6.20835 2.30582 6.33794 2.17624C6.46752 2.04666 6.64328 1.97386 6.82653 1.97386H11.0876C11.2708 1.97386 11.4466 2.04666 11.5762 2.17624C11.7058 2.30582 11.7786 2.48158 11.7786 2.66484C11.7786 2.84809 11.7058 3.02385 11.5762 3.15343C11.4466 3.28302 11.2708 3.35581 11.0876 3.35581ZM17.0979 8.24564H0.904846C0.721587 8.24564 0.545834 8.17284 0.41625 8.04326C0.286667 7.91368 0.213867 7.73792 0.213867 7.55466C0.213867 7.3714 0.286667 7.19565 0.41625 7.06607C0.545834 6.93648 0.721587 6.86368 0.904846 6.86368H17.0979C17.2812 6.86368 17.4569 6.93648 17.5865 7.06607C17.7161 7.19565 17.7889 7.3714 17.7889 7.55466C17.7889 7.73792 17.7161 7.91368 17.5865 8.04326C17.4569 8.17284 17.2812 8.24564 17.0979 8.24564ZM5.16358 5.19612C4.98032 5.19612 4.80457 5.12332 4.67498 4.99374C4.5454 4.86416 4.4726 4.6884 4.4726 4.50514V1.14008C4.4726 0.956817 4.5454 0.781063 4.67498 0.65148C4.80457 0.521896 4.98032 0.449097 5.16358 0.449097C5.34684 0.449097 5.52259 0.521896 5.65217 0.65148C5.78176 0.781063 5.85456 0.956817 5.85456 1.14008V4.50514C5.85456 4.6884 5.78176 4.86416 5.65217 4.99374C5.52259 5.12332 5.34684 5.19612 5.16358 5.19612ZM12.8392 5.19612C12.7485 5.19612 12.6586 5.17825 12.5748 5.14352C12.4909 5.1088 12.4148 5.0579 12.3506 4.99374C12.2864 4.92958 12.2355 4.8534 12.2008 4.76957C12.1661 4.68574 12.1482 4.59588 12.1482 4.50514V1.14008C12.1482 0.956817 12.221 0.781063 12.3506 0.65148C12.4802 0.521896 12.6559 0.449097 12.8392 0.449097C13.0225 0.449097 13.1982 0.521896 13.3278 0.65148C13.4574 0.781063 13.5302 0.956817 13.5302 1.14008V4.50514C13.5302 4.6884 13.4574 4.86416 13.3278 4.99374C13.1982 5.12332 13.0225 5.19612 12.8392 5.19612Z" fill="#969BAD"/>
</svg>
