<svg xmlns="http://www.w3.org/2000/svg" width="17" height="17" viewBox="0 0 17 17">
    <g data-name="-rili">
        <path data-name="路径 5485" d="M206.839 308.008a1.669 1.669 0 0 0-1.36-1.751 11.329 11.329 0 0 0-1.462 0v1.051a1.409 1.409 0 0 1-.653 1.12 1.428 1.428 0 0 1-2.207-1.233v-.951h-5.682v.688a3.265 3.265 0 0 1 0 .5 1.431 1.431 0 0 1-1.576 1.251 1.446 1.446 0 0 1-1.271-1.476v-.938h-1.271a.878.878 0 0 0-.229 0 1.718 1.718 0 0 0-1.271 1.689v11.522a1.685 1.685 0 0 0 .443 1.229 1.74 1.74 0 0 0 1.2.56h13.562a1.756 1.756 0 0 0 1.307-.522 1.7 1.7 0 0 0 .485-1.3v-8.194c-.015-1.081-.003-2.153-.015-3.245zm-1.118 3.9v6.931a1.062 1.062 0 0 1-.114.475.523.523 0 0 1-.5.25h-13.534a.6.6 0 0 1-.5-.176.582.582 0 0 1-.16-.5v-8.019h14.807z" transform="translate(-189.855 -304.27)" style="fill:#a1a5b7"/>
        <path data-name="路径 5486" d="M280.926 239.448a.781.781 0 0 0 .582-.308 1.063 1.063 0 0 0 .22-.7v-1.9a1.111 1.111 0 0 0-.219-.7.706.706 0 0 0-.888-.241.966.966 0 0 0-.511.908v1.93a.927.927 0 0 0 .816 1.011zm8.175 0a.781.781 0 0 0 .582-.308 1.063 1.063 0 0 0 .221-.7v-1.9a1.111 1.111 0 0 0-.219-.7.706.706 0 0 0-.888-.241.966.966 0 0 0-.511.908v1.93a.927.927 0 0 0 .814 1.011zm-.255 9.889h2.141v1.93h-2.141zm-3.26 0h2.141v1.93h-2.141zm-3.272 1.93h2.141v-1.93h-2.141zm-3.272-1.93h2.141v1.93h-2.143zm9.8-2.639h2.141v1.93h-2.141zm-3.272 0h2.141v1.93h-2.141zm-3.26.014h2.141v1.93h-2.141zm-1.131 0h-2.139v1.93h2.141zm7.664-2.639h2.141V246h-2.141zm-3.272.014h2.141v1.93h-2.141zm-1.119 0h-2.141v1.944h2.141z" transform="translate(-276.564 -235.533)" style="fill:#a1a5b7"/>
    </g>
</svg>
