<svg width="20" height="20" viewBox="0 0 20 20" fill="currentColor" xmlns="http://www.w3.org/2000/svg">
<path d="M10 7.5H6.25C5.9043 7.5 5.625 7.2207 5.625 6.875C5.625 6.5293 5.9043 6.25 6.25 6.25H10C10.3457 6.25 10.625 6.5293 10.625 6.875C10.625 7.2207 10.3457 7.5 10 7.5ZM13.75 10.625H6.25C5.9043 10.625 5.625 10.3457 5.625 10C5.625 9.6543 5.9043 9.375 6.25 9.375H13.75C14.0957 9.375 14.375 9.6543 14.375 10C14.375 10.3457 14.0957 10.625 13.75 10.625ZM13.75 13.75H6.25C5.9043 13.75 5.625 13.4707 5.625 13.125C5.625 12.7793 5.9043 12.5 6.25 12.5H13.75C14.0957 12.5 14.375 12.7793 14.375 13.125C14.375 13.4707 14.0957 13.75 13.75 13.75Z" fill="currentColor"/>
<path d="M15.1699 18.75H4.83008C2.85547 18.75 1.25 17.1445 1.25 15.1699V4.83008C1.25 2.85547 2.85547 1.25 4.83008 1.25H15.1719C17.1445 1.25 18.752 2.85547 18.752 4.83008V15.1699C18.75 17.1445 17.1445 18.75 15.1699 18.75ZM4.83008 2.5C3.54492 2.5 2.5 3.54492 2.5 4.83008V15.1699C2.5 16.4551 3.54492 17.5 4.83008 17.5H15.1719C16.457 17.5 17.502 16.4551 17.502 15.1699V4.83008C17.502 3.54492 16.457 2.5 15.1719 2.5H4.83008Z" fill="currentColor"/>
</svg>
