<svg xmlns="http://www.w3.org/2000/svg" width="31" height="31" viewBox="0 0 31 31">
    <g data-name="组 8581">
        <path data-name="减去 58" d="M17.468 31 0 27.7V3.3L17.468 0v31zM9.176 16.2 11.3 20h2.837l-3.627-5.782 3.41-5.378h-2.7l-2.044 3.622-1.984-3.627H4.4l3.41 5.471L4.232 20h2.712l2.231-3.8z" style="fill:#009ef7"/>
        <path data-name="减去 59" d="M31 26.954H18.941v-2.7h9.377v-1.3h-9.377v-2.061h9.377v-1.3h-9.377v-2.078h9.377v-1.3h-9.377v-2.079h9.377v-1.3h-9.377v-2.079h9.377v-1.3h-9.377v-2.11h9.377v-1.3h-9.377V4.015H31v22.938z" style="fill:#b1e0fc"/>
    </g>
</svg>
