<svg width="20" height="20" viewBox="0 0 20 20" fill="none" xmlns="http://www.w3.org/2000/svg" style="fill:currentColor" >
<path d="M9.375 3.75H17.5V5H9.375V3.75ZM9.375 7.5H17.5V8.75H9.375V7.5ZM9.375 11.25H17.5V12.5H9.375V11.25ZM9.375 15H17.5V16.25H9.375V15Z" style="fill:currentColor"/>
<path d="M5.93748 15.0531L7.18748 13.8031L8.07185 14.6875L5.31248 17.4469L2.5531 14.6875L3.43748 13.8031L4.68748 15.0531V11.25H5.93748V15.0531Z" style="fill:currentColor"/>
<path d="M2.5531 5.31248L5.31248 2.5531L8.07185 5.31248L7.18748 6.19685L5.93748 4.94685V8.74998H4.68748V4.94685L3.43748 6.19685L2.5531 5.31248Z" style="fill:currentColor"/>
</svg>
