<svg width="14" height="14" viewBox="0 0 14 14"  xmlns="http://www.w3.org/2000/svg" style="fill:currentColor">
<path fill-rule="evenodd" clip-rule="evenodd" d="M7.66001 3.41389C8.04647 3.18993 8.30686 2.77176 8.30686 2.2937C8.30686 1.58013 7.72673 1 7.01316 1C6.29959 1 5.71946 1.58013 5.71946 2.2937C5.71946 2.77176 5.97985 3.18993 6.36631 3.41389V4.31091H4.51133C3.44533 4.31091 2.57803 5.17821 2.57803 6.24421V11.0245C2.57803 12.0905 3.44533 12.9578 4.51133 12.9578H9.51499C10.581 12.9578 11.4483 12.0905 11.4483 11.0245V6.24421C11.4483 5.17821 10.581 4.31091 9.51499 4.31091H7.66001V3.41389ZM9.37866 8.63457C9.37866 9.04211 9.04798 9.37279 8.64044 9.37279C8.23289 9.37279 7.90222 9.04211 7.90222 8.63457C7.90222 8.22702 8.23289 7.89635 8.64044 7.89635C9.04798 7.89635 9.37866 8.22702 9.37866 8.63457ZM6.13136 8.63457C6.13136 9.04211 5.80068 9.37279 5.39313 9.37279C4.98559 9.37279 4.65491 9.04211 4.65491 8.63457C4.65491 8.22702 4.98559 7.89635 5.39313 7.89635C5.80068 7.89635 6.13136 8.22702 6.13136 8.63457ZM7.01316 5.60627C7.02882 5.60627 7.04435 5.60571 7.05973 5.60461H9.51499V5.60606C9.86742 5.60606 10.1546 5.89323 10.1546 6.24566V11.026C10.1546 11.3784 9.86742 11.6656 9.51499 11.6656H4.51133C4.1589 11.6656 3.87173 11.3784 3.87173 11.026V6.24421C3.87173 5.89178 4.1589 5.60461 4.51133 5.60461H6.96659C6.98197 5.60571 6.9975 5.60627 7.01316 5.60627ZM1.16685 10.5923C1.52364 10.5923 1.8137 10.3022 1.8137 9.94547V7.32471C1.8137 6.96793 1.52364 6.67786 1.16685 6.67786C0.810072 6.67786 0.520004 6.96793 0.520004 7.32471V9.94547C0.520004 10.3037 0.810072 10.5923 1.16685 10.5923ZM12.8073 10.5923C13.164 10.5923 13.4541 10.3022 13.4541 9.94547V7.32471C13.4541 6.96793 13.164 6.67786 12.8073 6.67786C12.4505 6.67786 12.1604 6.96793 12.1604 7.32471V9.94547C12.1604 10.3037 12.449 10.5923 12.8073 10.5923Z" style="fill:currentColor"/>
</svg>
