<?xml version="1.0" encoding="utf-8"?>
<!-- Generator: Adobe Illustrator 16.0.0, SVG Export Plug-In . SVG Version: 6.00 Build 0)  -->
<!DOCTYPE svg PUBLIC "-//W3C//DTD SVG 1.1//EN" "http://www.w3.org/Graphics/SVG/1.1/DTD/svg11.dtd">
<svg fill="currentColor" version="1.1" id="图层_1" xmlns="http://www.w3.org/2000/svg" xmlns:xlink="http://www.w3.org/1999/xlink" x="0px" y="0px"
	 width="612px" height="612px" viewBox="0 0 612 612" enable-background="new 0 0 612 612" xml:space="preserve">
<path d="M483.755,309.289c0-10.942-1.139-21.574-3.047-31.942l59.295-34.226L481.65,142.02l-59.302,34.249
	c-16.163-13.792-34.885-24.647-55.311-31.885V75.852H250.314v68.532c-20.431,7.237-39.152,18.093-55.307,31.885l-59.303-34.249
	l-58.36,101.101l59.299,34.256c-1.91,10.342-3.048,20.973-3.048,31.916c0,10.918,1.138,21.544,3.048,31.915l-59.299,34.249
	l58.359,101.105l59.333-34.257c16.155,13.828,34.846,24.658,55.282,31.894v68.527h116.72v-68.527
	c20.435-7.238,39.155-18.068,55.28-31.894l59.332,34.257l58.356-101.105l-59.294-34.219
	C482.621,330.859,483.755,320.205,483.755,309.289z M487.016,380.877l-27.183,47.085l-31.721-18.313l-16.661-9.604l-14.596,12.498
	c-12.587,10.8-27.026,19.112-42.9,24.737l-18.104,6.396v19.221v36.654h-54.355v-36.654v-19.221l-18.104-6.396
	c-15.845-5.625-30.263-13.938-42.893-24.737l-14.6-12.498l-16.672,9.604l-31.715,18.317l-27.208-47.089l31.719-18.313l16.619-9.611
	l-3.479-18.867c-1.592-8.709-2.391-16.829-2.391-24.792c0-7.961,0.798-16.084,2.391-24.79l3.479-18.873l-16.619-9.58l-31.719-18.318
	l27.208-47.113l31.691,18.289l16.644,9.608l14.599-12.447c12.686-10.83,27.128-19.14,42.95-24.765l18.1-6.423v-19.188v-36.666
	h54.355v36.659v19.188l18.104,6.423c15.822,5.625,30.285,13.935,42.954,24.765l14.616,12.447l16.619-9.608l31.695-18.29
	l27.176,47.086l-31.688,18.289l-16.612,9.608l3.474,18.846c1.612,8.761,2.393,16.882,2.393,24.845c0,7.967-0.78,16.083-2.393,24.842
	l-3.481,18.876l16.613,9.581L487.016,380.877z M306,244.583c33.861,0,61.419,27.532,61.419,61.417
	c0,33.857-27.563,61.418-61.419,61.418c-33.889,0-61.417-27.561-61.417-61.418C244.577,272.114,272.11,244.583,306,244.583
	 M306.002,213.875c-50.863,0-92.126,41.268-92.126,92.126c0,50.866,41.268,92.123,92.126,92.123
	c50.866,0,92.122-41.26,92.122-92.123C398.123,255.138,356.867,213.875,306.002,213.875L306.002,213.875z" fill="currentColor" />
</svg>
