<svg xmlns="http://www.w3.org/2000/svg" width="87.739" height="80.058" viewBox="0 0 87.739 80.058">
  <g id="Group_3514" data-name="Group 3514" transform="translate(-873.542 -501.942)">
    <g id="Group_22" data-name="Group 22" transform="translate(890.877 501.942)">
      <path id="Path_20" data-name="Path 20" style="fill: url(#icon-empty-linear-gradient)" d="M130.824-5.986,117.343-19.238A2.748,2.748,0,0,0,115.422-20H72.341a2.912,2.912,0,0,0-1.991.815,2.472,2.472,0,0,0-.756,1.885V57.391a2.718,2.718,0,0,0,2.728,2.667H128.9a2.715,2.715,0,0,0,2.728-2.7V-4.081a2.59,2.59,0,0,0-.808-1.905Z" transform="translate(-69.674 20)"/>
      <circle id="Ellipse_12" data-name="Ellipse 12" style="fill: #ebebeb;" cx="2.834" cy="2.834" r="2.834" transform="translate(64.736 39.532)"/>
      <circle id="Ellipse_13" data-name="Ellipse 13" style="fill: #fff;" cx="2.593" cy="2.593" r="2.593" transform="translate(40.287 61.536)"/>
      <circle id="Ellipse_33" data-name="Ellipse 33" style="fill: #fff;opacity: 0.518" cx="2.093" cy="2.093" r="2.093" transform="translate(25.753 11.536)"/>
    </g>
    <path id="Intersection_4" data-name="Intersection 4" style="fill: #d9dce6" d="M5227.713-2365.058v-15a2.746,2.746,0,0,1,1.834.762l13.48,13.251a2.676,2.676,0,0,1,.65.986Z" transform="translate(-4290.917 2882)"/>
    <rect id="Rectangle_113" data-name="Rectangle 113" style="fill: #fff;" width="38" height="4" transform="translate(902.795 532.942)"/>
    <rect id="Rectangle_114" data-name="Rectangle 114" style="fill: #fff;" width="38" height="4" transform="translate(902.795 541.942)"/>
    <rect id="Rectangle_115" data-name="Rectangle 115" style="fill: #fff;" width="38" height="4" transform="translate(902.795 550.942)"/>
    <path id="Union_12" data-name="Union 12" style="fill: #9a9baa" d="M5071.8-2336.465l13.96-13.96a19.949,19.949,0,0,1-3.69-11.591,20.044,20.044,0,0,1,20.043-20.043,20.044,20.044,0,0,1,20.043,20.043,20.044,20.044,0,0,1-20.043,20.043,19.948,19.948,0,0,1-10.516-2.977l-14.141,14.142Zm30.313-9.01a16.541,16.541,0,0,0,16.541-16.541,16.541,16.541,0,0,0-16.541-16.54,16.541,16.541,0,0,0-16.541,16.54,16.478,16.478,0,0,0,4.078,10.875l1.591,1.59A16.476,16.476,0,0,0,5102.108-2345.475Z" transform="translate(-4198.253 2903.624)"/>
  </g>
  <defs>
    <linearGradient id="icon-empty-linear-gradient" x1="0.5" x2="0.5" y2="1" gradientUnits="objectBoundingBox">
      <stop offset="0" stop-color="#eff1f3"/>
      <stop offset="1" stop-color="#d7dae5"/>
    </linearGradient>
  </defs>
</svg>
