<svg width="17" height="16" viewBox="0 0 17 16" fill="none" xmlns="http://www.w3.org/2000/svg">
<path d="M9.73817 1.14284V3.4476C9.73817 4.09521 10.2525 4.62854 10.9001 4.66665H13.2048V8.09521C13.0144 8.05712 12.8048 8.05712 12.5953 8.05712C10.481 8.05712 8.76675 9.79045 8.76675 11.9238C8.76675 13.1238 9.30008 14.1904 10.1572 14.8952H3.41436C2.7477 14.8952 2.21436 14.3809 2.19531 13.7333V2.36188C2.19531 1.71426 2.70961 1.18093 3.35722 1.14282H9.73817V1.14284ZM8.08103 5.8476H4.02389C4.00135 5.84751 3.97902 5.85188 3.95818 5.86046C3.93733 5.86904 3.9184 5.88166 3.90246 5.8976C3.88652 5.91354 3.8739 5.93247 3.86531 5.95331C3.85673 5.97415 3.85236 5.99649 3.85245 6.01903V6.83809C3.85236 6.86063 3.85673 6.88296 3.86532 6.9038C3.8739 6.92464 3.88653 6.94357 3.90246 6.9595C3.9184 6.97544 3.93734 6.98806 3.95818 6.99664C3.97902 7.00522 4.00135 7.00959 4.02389 7.00949H8.08102C8.10355 7.00959 8.12588 7.00522 8.14672 6.99664C8.16756 6.98806 8.18649 6.97543 8.20243 6.9595C8.21837 6.94356 8.23099 6.92463 8.23957 6.90379C8.24816 6.88296 8.25253 6.86062 8.25244 6.83809V6.01903C8.25244 5.90474 8.17625 5.8476 8.08102 5.8476H8.08103ZM8.08103 3.35235H4.02389C4.00135 3.35226 3.97901 3.35663 3.95817 3.36521C3.93733 3.37379 3.91839 3.38642 3.90245 3.40235C3.88652 3.41829 3.87389 3.43723 3.86531 3.45807C3.85673 3.47892 3.85236 3.50125 3.85245 3.52379V4.34284C3.85236 4.36538 3.85673 4.38771 3.86531 4.40855C3.8739 4.42939 3.88652 4.44833 3.90246 4.46426C3.9184 4.4802 3.93733 4.49282 3.95818 4.50141C3.97902 4.50999 4.00135 4.51435 4.02389 4.51426H8.08102C8.10355 4.51435 8.12589 4.50998 8.14673 4.5014C8.16757 4.49282 8.1865 4.4802 8.20244 4.46426C8.21837 4.44832 8.231 4.42939 8.23958 4.40855C8.24816 4.38771 8.25253 4.36538 8.25244 4.34284V3.52378C8.25253 3.50124 8.24816 3.47891 8.23957 3.45807C8.23099 3.43723 8.21837 3.4183 8.20243 3.40236C8.18649 3.38643 8.16756 3.37381 8.14672 3.36523C8.12588 3.35665 8.10355 3.35228 8.08102 3.35237L8.08103 3.35235ZM10.6334 1.14282L13.2429 3.73331H11.2429C10.9001 3.73331 10.6334 3.46665 10.6334 3.12378V1.14285V1.14282Z" fill="#FFC700"/>
<path d="M12.6335 9.16193C14.1383 9.16193 15.3763 10.4 15.3763 11.9238C15.3763 12.5334 15.1859 13.1048 14.843 13.5619L15.4906 14.2096C15.7002 14.4191 15.7002 14.7619 15.4906 14.9905C15.2811 15.2 14.9382 15.2 14.7097 14.9905L14.024 14.3048C13.624 14.5524 13.1287 14.6857 12.6335 14.6857C11.1287 14.6857 9.89062 13.4476 9.89062 11.9238C9.89062 10.4 11.1097 9.16193 12.6335 9.16193ZM12.6335 10.2667C11.7192 10.2667 10.9954 11.0096 10.9954 11.9238C10.9954 12.8381 11.7383 13.581 12.6335 13.581C13.5287 13.581 14.2716 12.8381 14.2716 11.9238C14.2716 11.0095 13.5287 10.2667 12.6335 10.2667V10.2667Z" fill="#FFC700"/>
</svg>
