<svg width="12" height="14" viewBox="0 0 12 14" fill="none" xmlns="http://www.w3.org/2000/svg">
<path d="M7.73805 0.142594V2.44736C7.73805 3.09497 8.25233 3.6283 8.89996 3.66641H11.2047V7.09497C11.0143 7.05687 10.8047 7.05687 10.5952 7.05687C8.48091 7.05687 6.76663 8.7902 6.76663 10.9235C6.76663 12.1235 7.29996 13.1902 8.1571 13.895H1.41424C0.747581 13.895 0.214237 13.3807 0.19519 12.7331V1.36164C0.19519 0.714016 0.709487 0.180687 1.3571 0.142578H7.73805V0.142594ZM6.08091 4.84736H2.02377C2.00123 4.84726 1.9789 4.85163 1.95805 4.86021C1.93721 4.86879 1.91828 4.88142 1.90234 4.89735C1.8864 4.91329 1.87377 4.93223 1.86519 4.95307C1.85661 4.97391 1.85224 4.99624 1.85233 5.01878V5.83784C1.85224 5.86038 1.85661 5.88271 1.8652 5.90355C1.87378 5.92439 1.8864 5.94333 1.90234 5.95926C1.91828 5.97519 1.93722 5.98782 1.95806 5.9964C1.9789 6.00498 2.00123 6.00935 2.02377 6.00925H6.08089C6.10343 6.00934 6.12576 6.00497 6.1466 5.99639C6.16744 5.98781 6.18637 5.97519 6.20231 5.95925C6.21825 5.94332 6.23087 5.92439 6.23945 5.90355C6.24803 5.88271 6.25241 5.86038 6.25232 5.83784V5.01878C6.25232 4.9045 6.17613 4.84736 6.08089 4.84736H6.08091ZM6.08091 2.35211H2.02377C2.00123 2.35201 1.97889 2.35638 1.95805 2.36497C1.93721 2.37355 1.91827 2.38617 1.90233 2.40211C1.88639 2.41805 1.87377 2.43699 1.86519 2.45783C1.85661 2.47867 1.85224 2.50101 1.85233 2.52355V3.34259C1.85224 3.36513 1.85661 3.38747 1.86519 3.40831C1.87377 3.42915 1.8864 3.44808 1.90234 3.46402C1.91828 3.47996 1.93721 3.49258 1.95805 3.50116C1.9789 3.50974 2.00123 3.51411 2.02377 3.51402H6.08089C6.10343 3.51411 6.12576 3.50974 6.1466 3.50116C6.16744 3.49257 6.18638 3.47995 6.20231 3.46401C6.21825 3.44808 6.23087 3.42914 6.23946 3.4083C6.24804 3.38746 6.25241 3.36513 6.25232 3.34259V2.52353C6.25241 2.50099 6.24803 2.47866 6.23945 2.45783C6.23087 2.43699 6.21825 2.41806 6.20231 2.40212C6.18637 2.38619 6.16744 2.37356 6.1466 2.36498C6.12576 2.3564 6.10343 2.35203 6.08089 2.35212L6.08091 2.35211ZM8.63328 0.142578L11.2428 2.73306H9.24282C8.89996 2.73306 8.63328 2.46641 8.63328 2.12353V0.142609V0.142578Z" fill="#FFC700"/>
</svg>
