<svg width="16" height="16" viewBox="0 0 16 16" fill="none" xmlns="http://www.w3.org/2000/svg">
<path d="M4.88939 15.369L4.7636 15.3142H4.7556C4.46862 15.1869 4.18947 15.0427 3.91965 14.8823C3.61735 14.7024 3.32704 14.5031 3.05054 14.2858C2.57553 13.9107 2.14435 13.4833 1.76517 13.0117L1.75602 13.0014C0.959254 12.0049 0.411769 10.833 0.158989 9.5828C-0.0937898 8.3326 -0.0445754 7.0402 0.302549 5.81281H0.311698L0.490094 5.86309L0.302549 5.81052L0.484376 5.86194L0.303693 5.80824C0.367733 5.5797 0.444351 5.35117 0.532406 5.1352L0.538124 5.12149C0.567857 5.04378 0.598733 4.96723 0.630753 4.89295C1.2405 3.44463 2.26397 2.20804 3.57322 1.33778C4.88248 0.467518 6.41941 0.00219988 7.99189 0V0.195398H7.99875V0H8.01247C9.52884 0.00321706 11.0132 0.436365 12.2929 1.2491C13.5727 2.06184 14.5954 3.2208 15.2421 4.59128C15.2478 4.60157 15.2535 4.613 15.2593 4.62328C15.7018 5.5708 15.9525 6.59641 15.9969 7.64109C15.9977 7.65594 15.9977 7.67082 15.9969 7.68566C15.9969 7.78964 15.9969 7.89477 15.9969 7.99875C15.9973 9.31921 15.6705 10.6192 15.0458 11.7828C14.421 12.9464 13.5177 13.9373 12.4164 14.6671C11.3151 15.397 10.0501 15.843 8.73436 15.9655C7.41857 16.088 6.09291 15.8831 4.87567 15.369H4.88939ZM2.49019 11.4268L4.79791 11.9079C4.95181 11.9399 5.09156 12.0199 5.19701 12.1364L6.76827 13.8938C6.83461 13.9681 6.88516 14.0551 6.91688 14.1495C6.9486 14.2439 6.96082 14.3437 6.9528 14.443C6.94479 14.5422 6.9167 14.6388 6.87023 14.7269C6.82377 14.8149 6.75991 14.8927 6.6825 14.9554C7.55765 15.12 8.45586 15.12 9.331 14.9554C9.2534 14.8927 9.18932 14.815 9.14264 14.7269C9.09596 14.6388 9.06765 14.5422 9.05942 14.4429C9.05119 14.3435 9.06321 14.2435 9.09475 14.149C9.1263 14.0544 9.17671 13.9672 9.24295 13.8927L10.8142 12.1341C10.9194 12.0172 11.0592 11.9371 11.2133 11.9056L13.5199 11.4268C13.6255 11.4043 13.7347 11.4056 13.8397 11.4305C13.9447 11.4554 14.0429 11.5033 14.1271 11.5708C14.642 10.6924 14.9611 9.71327 15.0626 8.70036H15.026C14.9139 8.69983 14.8034 8.67395 14.7028 8.62467C14.6022 8.5754 14.5141 8.504 14.445 8.41583L12.8635 6.37958C12.7637 6.25065 12.7094 6.09235 12.7091 5.92936V4.32961C12.7086 4.20061 12.7425 4.07379 12.8072 3.96216C12.8719 3.85052 12.9651 3.75807 13.0773 3.69428C13.224 3.61006 13.3951 3.5786 13.5622 3.60515C12.801 2.64504 11.8049 1.89727 10.6701 1.43406C10.7093 1.60737 10.6846 1.78899 10.6006 1.94557C10.5166 2.10216 10.3788 2.22321 10.2127 2.2865L8.26863 3.00982C8.10308 3.0695 7.92186 3.0695 7.75631 3.00982L5.80196 2.28536C5.63528 2.22244 5.49707 2.10128 5.41296 1.94433C5.32885 1.78737 5.30454 1.60527 5.34453 1.43178C4.20828 1.89411 3.21087 2.64198 2.44902 3.60287C2.55428 3.58546 2.66206 3.59115 2.7649 3.61953C2.86773 3.64792 2.96315 3.69832 3.04454 3.76725C3.12592 3.83618 3.19132 3.92198 3.2362 4.01869C3.28107 4.11541 3.30435 4.22072 3.30441 4.32733V5.92708C3.30479 6.09053 3.25045 6.24941 3.15003 6.37843L1.56962 8.41697C1.50033 8.50553 1.41185 8.57724 1.31083 8.62671C1.20982 8.67619 1.0989 8.70215 0.986402 8.70264H0.948664C1.05032 9.71588 1.36938 10.6953 1.8841 11.5742C1.96825 11.5069 2.06611 11.4589 2.17081 11.4334C2.27551 11.408 2.38452 11.4057 2.49019 11.4268ZM15.026 7.98618L15.0122 7.97933C15.0138 7.98146 15.0159 7.98318 15.0183 7.98437C15.0207 7.98556 15.0233 7.98618 15.026 7.98618ZM0.490094 5.86651H0.482089H0.490094ZM6.74883 11.0097C6.53434 11.0099 6.32533 10.9421 6.15188 10.816C5.97844 10.6899 5.84951 10.5121 5.78366 10.3081L5.00947 7.92105C4.94259 7.71779 4.94211 7.49855 5.00809 7.295C5.07408 7.09145 5.20311 6.91413 5.37655 6.78866L7.4121 5.31346C7.58536 5.18741 7.79415 5.1195 8.00847 5.1195C8.22278 5.1195 8.43158 5.18741 8.60484 5.31346L10.637 6.78866C10.8105 6.91406 10.9398 7.09126 11.0062 7.29475C11.0726 7.49824 11.0726 7.71753 11.0063 7.92105L10.231 10.3081C10.1628 10.5115 10.0326 10.6885 9.85872 10.8143C9.68483 10.9401 9.47593 11.0084 9.26125 11.0097H6.74883Z" fill="#3EB9FE"/>
</svg>
