<svg width="30" height="30" viewBox="0 0 30 30" fill="none" xmlns="http://www.w3.org/2000/svg">
<path d="M7.42903 5.8052C7.48778 5.9304 7.57309 6.0413 7.67903 6.1302C7.78403 6.21645 7.92903 6.3677 8.13903 6.58395L8.78653 7.2552C9.03653 7.5152 9.28653 7.8177 9.58028 8.1202H15.3078C15.579 7.8177 15.8515 7.51395 16.1015 7.2552C16.3103 7.0177 16.5403 6.80145 16.749 6.58395C16.9578 6.36645 17.124 6.21645 17.209 6.1302C17.3027 6.03021 17.3864 5.92137 17.459 5.8052C17.5374 5.68678 17.5894 5.55294 17.6115 5.4127C17.6325 5.27642 17.6325 5.13774 17.6115 5.00145C17.588 4.8627 17.5225 4.73446 17.424 4.63395C17.3886 4.58451 17.3413 4.54476 17.2864 4.51833C17.2316 4.49191 17.1711 4.47966 17.1103 4.4827C17.0108 4.5043 16.9131 4.53313 16.8178 4.56895C16.7128 4.6127 16.5878 4.6777 16.4428 4.74145C16.2627 4.80813 16.0709 4.83748 15.879 4.8277C15.6969 4.83283 15.5192 4.77151 15.379 4.6552C15.2565 4.54307 15.1444 4.42007 15.044 4.2877C14.9437 4.15534 14.8316 4.03233 14.709 3.9202C14.558 3.80779 14.3748 3.74707 14.1865 3.74707C13.9983 3.74707 13.815 3.80779 13.664 3.9202C13.539 4.02895 13.414 4.1577 13.289 4.2877C13.1817 4.42039 13.0629 4.54336 12.934 4.6552C12.8078 4.76844 12.6436 4.83002 12.474 4.8277C12.278 4.8368 12.0852 4.77563 11.9303 4.6552C11.8014 4.54336 11.6826 4.42038 11.5753 4.2877C11.4749 4.15534 11.3628 4.03233 11.2403 3.9202C11.1001 3.80389 10.9224 3.74258 10.7403 3.7477C10.5513 3.74205 10.3663 3.80312 10.2178 3.9202C10.0889 4.03203 9.97009 4.15501 9.86278 4.2877C9.75778 4.4127 9.63278 4.5477 9.52778 4.6552C9.3934 4.76883 9.2225 4.83009 9.04653 4.8277C8.85471 4.83748 8.66291 4.80813 8.48278 4.74145C8.33653 4.67645 8.19028 4.61645 8.08528 4.56895C7.99358 4.5233 7.89458 4.49411 7.79278 4.4827C7.70903 4.46145 7.60528 4.52645 7.47903 4.63395C7.38206 4.73873 7.31061 4.8645 7.27028 5.00145C7.2284 5.13534 7.2284 5.27882 7.27028 5.4127C7.31721 5.54635 7.37318 5.67665 7.43778 5.8027L7.42903 5.8052ZM15.999 17.3152C15.9603 17.1223 15.9323 16.9274 15.9153 16.7315C15.8167 15.9395 15.8522 15.1366 16.0203 14.3565C16.3128 12.669 18.529 12.0202 19.2815 11.8465C19.0315 11.544 18.759 11.2402 18.5078 10.9815C17.7315 10.2024 16.8526 9.53288 15.8953 8.99145H8.97528C8.00975 9.51831 7.1287 10.187 6.36153 10.9752C6.01416 11.3187 5.69285 11.6877 5.40028 12.079C5.08014 12.4989 4.80016 12.9479 4.56403 13.4202C4.30957 13.9303 4.11333 14.4674 3.97903 15.0215C3.82527 15.6222 3.74799 16.24 3.74903 16.8602C3.73344 17.8565 3.90298 18.847 4.24903 19.7815C4.57737 20.6311 5.11685 21.3831 5.81653 21.9664C6.61475 22.6155 7.54196 23.0872 8.53653 23.3502C9.20058 23.5354 9.87868 23.6658 10.564 23.7402V21.2952C10.4903 20.8394 10.5557 20.372 10.7515 19.954C11.6915 17.2927 15.8303 17.314 16.0015 17.314L15.999 17.3152Z" fill="#49D8BC"/>
<path d="M16.7171 18.7236C14.4184 18.7236 12.5371 19.7061 12.5371 20.9186C12.5371 22.1311 14.3971 23.1136 16.7171 23.1136C19.0159 23.1136 20.8971 22.1311 20.8971 20.9186C20.8809 19.7274 19.0171 18.7236 16.7171 18.7236ZM22.0471 22.7786C21.9143 22.782 21.7813 22.7749 21.6496 22.7574C21.6527 22.8002 21.6455 22.8431 21.6284 22.8824C21.6522 22.9637 21.666 23.0477 21.6696 23.1324V23.6549H22.0446C24.3434 23.6549 26.2246 22.6724 26.2246 21.4599V20.5849C26.2284 21.7761 24.3684 22.7761 22.0471 22.7761V22.7786Z" fill="#49D8BC"/>
<path d="M16.4486 23.8027C14.1498 23.8027 12.2886 22.8202 12.2686 21.6077V22.4827C12.2686 23.6952 14.1286 24.6777 16.4486 24.6777C18.7473 24.6777 20.6286 23.6952 20.6286 22.4827V21.584C20.6123 22.8002 18.7486 23.8027 16.4486 23.8027Z" fill="#49D8BC"/>
<path d="M16.7171 25.3286C14.4184 25.3286 12.5571 24.3461 12.5371 23.1336V24.0086C12.5371 25.2211 14.3971 26.2036 16.7171 26.2036C19.0159 26.2036 20.8971 25.2211 20.8971 24.0086V23.1336C20.8809 24.3461 19.0171 25.3286 16.7171 25.3286ZM22.0471 18.1799C19.7484 18.1799 17.8871 17.1974 17.8671 15.9849V16.8599C17.8914 17.1482 17.9885 17.4257 18.1495 17.6662C18.3104 17.9067 18.5298 18.1024 18.7871 18.2349C19.3253 18.3624 19.8403 18.5733 20.3134 18.8599C20.8817 18.996 21.4639 19.066 22.0484 19.0686C24.3471 19.0686 26.2284 18.0861 26.2284 16.8736V15.9986C26.2284 17.1974 24.3684 18.1799 22.0471 18.1799Z" fill="#49D8BC"/>
<path d="M17.8887 15.0514C17.8887 16.2639 19.7487 17.2464 22.0687 17.2464C24.3674 17.2464 26.2487 16.2639 26.2487 15.0514C26.2487 13.8389 24.3887 12.8564 22.0687 12.8564C19.7487 12.8564 17.8887 13.8389 17.8887 15.0514ZM22.0487 19.4414C21.7774 19.4414 21.4837 19.4202 21.2337 19.4002C21.4437 19.6696 21.5872 19.9848 21.6524 20.3202C21.7774 20.3202 21.9237 20.3414 22.0499 20.3414C24.3487 20.3414 26.2299 19.3589 26.2299 18.1464V17.2714C26.2287 18.4589 24.3687 19.4414 22.0487 19.4414Z" fill="#49D8BC"/>
<path d="M22.0486 21.0839C21.9158 21.0872 21.7829 21.0801 21.6511 21.0626C21.6543 21.1054 21.647 21.1483 21.6299 21.1876C21.6537 21.269 21.6675 21.3529 21.6711 21.4376V21.9601H22.0461C24.3449 21.9601 26.2261 20.9776 26.2261 19.7651V18.8901C26.2286 20.1039 24.3686 21.0839 22.0486 21.0839Z" fill="#49D8BC"/>
</svg>
