<svg xmlns="http://www.w3.org/2000/svg" width="20" height="20" viewBox="0 0 20 20" style="fill:currentColor">
    <g data-name="组 481">
        <path data-name="矩形 2339" style="fill:none" d="M0 0h20v20H0z"/>
        <g data-name="组 8173">
            <path data-name="路径 13590" d="M75.016 78.413a7.381 7.381 0 1 1 7.366-7.381 7.4 7.4 0 0 1-7.366 7.381zm2.377-1.719a6.211 6.211 0 0 0 3.271-3.279 6.122 6.122 0 0 0 0-4.768 6.211 6.211 0 0 0-3.271-3.279 6.079 6.079 0 0 0-4.753 0 6.211 6.211 0 0 0-3.272 3.279 6.122 6.122 0 0 0 0 4.768 6.211 6.211 0 0 0 3.272 3.279 6.079 6.079 0 0 0 4.753 0z" transform="translate(-65.016 -61.031)" style="fill:currentColor"/>
            <path data-name="路径 13591" d="M600.76 293.81a.62.62 0 0 1 .7.7v5.607a.62.62 0 0 1-.7.7.62.62 0 0 1-.7-.7v-5.607a.62.62 0 0 1 .702-.7z" transform="translate(-588.659 -287.401)" style="fill:currentColor"/>
            <path data-name="路径 13592" d="M346.33 292.68a.636.636 0 0 1 .72.72v5.571a.636.636 0 0 1-.72.72.636.636 0 0 1-.72-.72V293.4a.636.636 0 0 1 .72-.72z" transform="translate(-338.399 -286.29)" style="fill:currentColor"/>
        </g>
    </g>
</svg>
