<svg xmlns="http://www.w3.org/2000/svg" width="42" height="37.066" viewBox="0 0 42 37.066">
    <path data-name="路径 5367" d="M81.577 126.16c-.144.083-.29.165-.433.249l-1.263.727-.555.324c-.241.136-.48.276-.721.413-.437.246-.864.513-1.31.744a.725.725 0 0 1-.82-.36 1.016 1.016 0 0 1 .019-.78c.117-.423.23-.848.344-1.272l.341-1.276c.063-.231.127-.461.181-.693a5.807 5.807 0 0 0 .16-.639 1.468 1.468 0 0 0-.165-.84 1.638 1.638 0 0 0-.416-.455c-.3-.221-.6-.445-.886-.68q-.337-.275-.661-.564c-.2-.179-.4-.36-.594-.546a20.142 20.142 0 0 1-1.308-1.403 17.307 17.307 0 0 1-.5-.625c-.264-.342-.511-.7-.752-1.058-.048-.073-.094-.148-.141-.221q-.389-.615-.721-1.263-.231-.459-.442-.927c-.048-.12-.1-.239-.146-.357-.178-.432-.33-.873-.466-1.32q-.184-.618-.32-1.247c-.087-.43-.159-.862-.21-1.3a14.525 14.525 0 0 1 .055-3.862c.064-.417.14-.834.237-1.245.1-.429.219-.854.359-1.271.14-.437.313-.863.487-1.287l.015-.038c.195-.425.394-.848.62-1.258a16.852 16.852 0 0 1 1.722-2.559l.227-.275c.289-.342.592-.671.9-.991.114-.117.231-.231.348-.345a17.823 17.823 0 0 1 1.316-1.166 20.783 20.783 0 0 1 2.532-1.747q.521-.3 1.057-.584a27.027 27.027 0 0 1 1.518-.707 22.873 22.873 0 0 1 2.555-.911c.459-.133.922-.256 1.388-.358.385-.091.773-.167 1.163-.237.47-.088.945-.153 1.419-.21a27.6 27.6 0 0 1 2.334-.174h1.231a26.49 26.49 0 0 1 2.725.221c.428.056.854.125 1.277.2s.852.171 1.274.273.859.218 1.283.348a23 23 0 0 1 2.582.948c.427.186.845.392 1.263.6l.034.016c.42.226.84.451 1.247.7a20.572 20.572 0 0 1 2.57 1.828l.067.056c.4.348.8.7 1.179 1.079l.193.194c.305.307.589.634.873.961q-.251.108-.5.221c-.19.084-.381.167-.57.253-.419.185-.836.374-1.255.559-.372.166-.744.33-1.114.5l-.16.067c-.429.189-.856.383-1.285.572-.857.383-1.715.762-2.571 1.146s-1.7.753-2.548 1.134c-.427.192-.855.38-1.282.571-.266.117-.532.238-.8.359-.166.067-.328.142-.493.214q-.649.291-1.3.579l-1.052.471-.216.094c-.429.189-.855.382-1.284.571l-2.571 1.145c-.655.288-1.308.583-1.962.875a2.894 2.894 0 0 1-.6.209 2.17 2.17 0 0 1-1.263-.163 3.122 3.122 0 0 1-.277-.157 99.091 99.091 0 0 0-.993-.707c-.27-.192-.539-.387-.811-.576-.16-.115-.321-.231-.484-.345q-.62-.446-1.245-.889l-.031-.021q-.449-.324-.9-.644a1.217 1.217 0 0 0-.388-.169.727.727 0 0 0-.745.859c.363.849.765 1.68 1.14 2.523l.6 1.315.233.519c.114.248.23.5.341.746.194.422.383.845.578 1.267l.373.813.215.478a8.39 8.39 0 0 0 .675 1.342 2.166 2.166 0 0 0 .4.3 1.435 1.435 0 0 0 1.359-.06l.442-.262c.271-.152.538-.308.807-.462q1.281-.743 2.565-1.483.553-.315 1.1-.639c.06-.036.123-.071.184-.105.427-.243.852-.491 1.277-.736.242-.139.485-.278.726-.419l.563-.325c.425-.246.849-.493 1.276-.735.13-.074.259-.149.388-.226.3-.174.6-.346.9-.523.855-.492 1.712-.982 2.564-1.479.325-.189.651-.375.976-.564l.291-.168c.426-.247.855-.491 1.28-.741.224-.126.445-.257.667-.386.2-.116.406-.23.608-.348q1.295-.748 2.59-1.5c.4-.235.81-.466 1.213-.7l.1-.054c.422-.242.841-.487 1.263-.729.3-.172.6-.348.9-.521l.363-.208c.406-.225.8-.478 1.214-.682.146.3.333.58.49.875a16 16 0 0 1 .797 1.693q.18.445.332.9a15.073 15.073 0 0 1 .595 2.524c.064.431.1.85.128 1.279s.03.86.018 1.29a14.689 14.689 0 0 1-.619 3.81 15.7 15.7 0 0 1-1.045 2.594 16.605 16.605 0 0 1-1.621 2.561 20.358 20.358 0 0 1-1.054 1.252c-.176.188-.353.374-.535.557a21.24 21.24 0 0 1-1.264 1.149q-.55.461-1.134.879l-.173.123a19.046 19.046 0 0 1-1.81 1.143c-.247.139-.5.276-.749.4q-.634.323-1.286.607c-.2.089-.408.173-.612.257-.231.091-.464.178-.7.264a22.895 22.895 0 0 1-2.579.775c-.378.094-.761.169-1.142.25l-.086.013a25.321 25.321 0 0 1-2.563.335 26.102 26.102 0 0 1-2.568.074 26.28 26.28 0 0 1-2.563-.187 29.672 29.672 0 0 1-1.148-.17c-.138-.024-.275-.051-.413-.072a33.574 33.574 0 0 1-.991-.212c-.435-.1-.866-.219-1.3-.337a2.066 2.066 0 0 0-1.279.083" transform="translate(-69.685 -91.571)" style="fill:#00c800"/>
</svg>
