<svg xmlns="http://www.w3.org/2000/svg" width="12.001" height="12" viewBox="0 0 12.001 12">
    <g data-name="组 533">
        <path data-name="减去 59" d="M4580 3355a6 6 0 1 1 6-6 6.007 6.007 0 0 1-6 6zm-.571-3.51a.793.793 0 0 0-.55.21.773.773 0 0 0 0 1.08.792.792 0 0 0 .55.22.767.767 0 0 0 .55-.209.717.717 0 0 0 .23-.55.74.74 0 0 0-.22-.54.783.783 0 0 0-.559-.211zm.11-4.789a1.085 1.085 0 0 1 .8.28 1.148 1.148 0 0 1 .011 1.49l-.121.139a5.4 5.4 0 0 0-1.169 1.271 2.141 2.141 0 0 0-.2.979v.14h1.15v-.14a1.476 1.476 0 0 1 .55-1.15c.482-.42.755-.672.859-.791a1.986 1.986 0 0 0 .371-1.229 1.811 1.811 0 0 0-.6-1.44 2.282 2.282 0 0 0-1.579-.531 2.419 2.419 0 0 0-1.75.631 2.3 2.3 0 0 0-.65 1.739h1.141a1.647 1.647 0 0 1 .25-.979 1.059 1.059 0 0 1 .938-.41z" transform="translate(-4574 -3343)" style="fill:#a1a5b7"/>
    </g>
</svg>
