<svg width="25" height="25" viewBox="0 0 25 25" fill="none" xmlns="http://www.w3.org/2000/svg">
<path d="M15.229 14.7287C17.6452 12.3125 17.6452 8.39513 15.229 5.97895C12.8128 3.56278 8.89541 3.56278 6.47924 5.97895C4.06307 8.39513 4.06307 12.3125 6.47924 14.7287C8.89541 17.1449 12.8128 17.1449 15.229 14.7287Z" stroke="#A1A5B7" stroke-width="1.6"/>
<path opacity="0.5" d="M14.7241 14.2252L14.7234 14.2259C14.4321 14.5173 14.4321 14.9896 14.7234 15.281L19.0035 19.5611C19.2949 19.8524 19.7672 19.8524 20.0585 19.5611L20.0593 19.5604C20.3506 19.269 20.3506 18.7967 20.0593 18.5054L15.7791 14.2252C15.4878 13.9339 15.0155 13.9339 14.7241 14.2252Z" fill="#A1A5B7"/>
</svg>
