<svg xmlns="http://www.w3.org/2000/svg" width="28.002" height="28.002" viewBox="0 0 28.002 28.002">
    <path data-name="减去 190" d="M11561 8368.941a14 14 0 1 1-14 14 14 14 0 0 1 14-14z" transform="translate(-11546.999 -8368.941)" style="fill:#67c316"/>
    <path data-name="联合 263" d="M18214.709 17992.961v-1.168a5.642 5.642 0 0 1-3.576-1.672 4.552 4.552 0 0 1-1.133-3.174h2.967a2.168 2.168 0 0 0 .539 1.51 3.355 3.355 0 0 0 2.6.887 4.928 4.928 0 0 0 2.109-.375 1.6 1.6 0 0 0 .988-1.545 1.311 1.311 0 0 0-.746-1.213 9.135 9.135 0 0 0-1.936-.617l-1.59-.375a10.509 10.509 0 0 1-3.238-1.152 3.606 3.606 0 0 1-1.463-3.191 4.238 4.238 0 0 1 1.027-2.887 5.206 5.206 0 0 1 3.453-1.6v-1.443h2.734v1.5a5.173 5.173 0 0 1 3.057 1.578 4.407 4.407 0 0 1 1.2 3.059h-2.969a2.408 2.408 0 0 0-.516-1.344 3.168 3.168 0 0 0-2.516-.859 3.65 3.65 0 0 0-1.738.369 1.516 1.516 0 0 0-.842 1.4 1.334 1.334 0 0 0 .535 1.152 2.926 2.926 0 0 0 1.029.393l3.613.889a6.871 6.871 0 0 1 2.7 1.17 3.423 3.423 0 0 1 1.174 2.8 4.275 4.275 0 0 1-1.484 3.48 6.026 6.026 0 0 1-3.244 1.3v1.127z" transform="translate(-18202.086 -17969.953)" style="fill:#fff"/>
</svg>
