<?xml version="1.0" encoding="utf-8"?>
<!-- Generator: Adobe Illustrator 16.0.0, SVG Export Plug-In . SVG Version: 6.00 Build 0)  -->
<!DOCTYPE PUBLIC "-//W3C//DTD SVG 1.1//EN" "http://www.w3.org/Graphics/SVG/1.1/DTD/svg11.dtd">
<svg version="1.1" id="upload-pdf-svg" xmlns="http://www.w3.org/2000/svg" xmlns:xlink="http://www.w3.org/1999/xlink" x="0px" y="0px"
	 width="30px" height="37.59px" viewBox="0 0 30 37.59" enable-background="new 0 0 30 37.59" xml:space="preserve">
<path fill="#B1E0FC" d="M2.485,0.932h16.156c0.93,0.3,10.012,9.492,10.521,10.126L29.2,22.707c-6.349,0-15.059,0.005-16.278,0.005
	c-4.338,0-5.338,0.416-5.338,4.083c0,1.177,0.042,6.255,0.042,10.795h19.09H2.485C1.113,37.59,0,36.478,0,35.105l0,0V3.417
	C0,2.044,1.113,0.932,2.485,0.932z"/>
<path fill="#009EF7" d="M19.32,11.662c-0.537-0.01-0.971-0.443-0.98-0.98L18.185,2.48c-0.011-0.552,0.429-1.008,0.981-1.018
	c0.271-0.005,0.533,0.101,0.726,0.293l8.354,8.354c0.391,0.39,0.391,1.023,0,1.414c-0.191,0.192-0.454,0.298-0.726,0.292
	L19.32,11.662z"/>
<path fill="#B1E0FC" d="M9.905,25.709h1.909c1.844,0,3.343,1.497,3.343,3.341c0,1.845-1.499,3.342-3.343,3.342H10.86v1.91
	c0,0.524-0.431,0.954-0.956,0.954s-0.955-0.43-0.955-0.954v-2.864v-4.774C8.95,26.139,9.38,25.709,9.905,25.709z M11.813,30.482
	c0.796,0,1.434-0.639,1.434-1.433c0-0.793-0.638-1.432-1.434-1.432H10.86v2.864H11.813z M17.543,25.709h1.91
	c1.58,0,2.864,1.282,2.864,2.864v3.818c0,1.582-1.284,2.864-2.864,2.864h-1.91c-0.525,0-0.955-0.43-0.955-0.954v-7.639
	C16.588,26.139,17.018,25.709,17.543,25.709z M19.453,33.347c0.523,0,0.954-0.429,0.954-0.955v-3.818
	c0-0.524-0.431-0.955-0.954-0.955h-0.956v5.729H19.453z M24.227,26.663c0-0.524,0.43-0.954,0.955-0.954h2.864
	c0.524,0,0.954,0.43,0.954,0.954c0,0.526-0.43,0.955-0.954,0.955h-1.91v1.91h1.91c0.524,0,0.954,0.43,0.954,0.954
	c0,0.526-0.43,0.955-0.954,0.955h-1.91v2.864c0,0.524-0.43,0.954-0.954,0.954c-0.525,0-0.955-0.43-0.955-0.954v-3.819V26.663z"/>
</svg>
