<svg xmlns="http://www.w3.org/2000/svg" width="30" height="37.59" viewBox="0 0 30 37.59">
    <path d="M2.485 0H18.64c.93.3 10.012 9.492 10.521 10.126l.039 24.047a2.485 2.485 0 0 1-2.485 2.485H2.485A2.485 2.485 0 0 1 0 34.173V2.485A2.485 2.485 0 0 1 2.485 0z" transform="translate(0 .932)" style="fill:#b1e0fc"/>
    <path d="M3.559 15.74V7.664a1.858 1.858 0 0 1 .474-1.243H1a1 1 0 0 1-.7-1.708L4.715.293a1 1 0 0 1 1.415 0l4.42 4.42a1 1 0 0 1-.707 1.707H6.812a1.858 1.858 0 0 1 .474 1.243v8.077a1.864 1.864 0 0 1-3.728 0z" transform="translate(9.179 13.772)" style="fill:#fff"/>
    <path d="M7.694.668a1 1 0 0 1 1.387 0l5.908 5.689a1 1 0 0 1-.694 1.72H2.48a1 1 0 0 1-.694-1.72z" transform="rotate(-135 15.784 3.757)" style="fill:#009ef7"/>
</svg>
