<svg width="20" height="20" viewBox="0 0 20 20" fill="none" xmlns="http://www.w3.org/2000/svg">
<path d="M3.75e-10 10.0001C2.00353e-05 12.3136 0.80223 14.5556 2.26994 16.344C3.73766 18.1324 5.78006 19.3565 8.04916 19.8079C10.3183 20.2592 12.6737 19.9098 14.714 18.8192C16.7544 17.7285 18.3535 15.9642 19.2388 13.8268C20.1241 11.6893 20.241 9.31101 19.5693 7.09709C18.8977 4.88317 17.4793 2.9706 15.5556 1.68528C13.632 0.399954 11.3222 -0.178608 9.01975 0.0481746C6.71734 0.274957 4.5648 1.29305 2.92888 2.92899C2.0003 3.85758 1.26371 4.95998 0.761175 6.17324C0.258636 7.3865 -1.13719e-05 8.68686 3.74998e-10 10.0001H3.75e-10Z" fill="#FF0000"/>
<path d="M10 12.102L13.0878 14.2764L11.9133 10.742L14.9889 8.48643H11.1845L10 5.00977L8.84779 8.48087H5.00891L8.07335 10.7364L6.91113 14.2709L10 12.102Z" fill="#FFE62E"/>
</svg>
