<svg style="width: 1em;height: 1em;vertical-align: middle;fill: currentColor;overflow: hidden;"
  viewBox="0 0 1024 1024" xmlns="http://www.w3.org/2000/svg">
  <path
    d="M682.666667 195.047619a73.142857 73.142857 0 0 1 73.142857 73.142857v102.448762l111.616-66.803809a39.009524 39.009524 0 0 1 15.847619-5.315048l4.193524-0.219429a39.009524 39.009524 0 0 1 39.009523 39.009524v350.012953a39.009524 39.009524 0 0 1-59.123809 33.401904L755.809524 653.604571V755.809524a73.142857 73.142857 0 0 1-73.142857 73.142857H170.666667a73.142857 73.142857 0 0 1-73.142857-73.142857V268.190476a73.142857 73.142857 0 0 1 73.142857-73.142857h512z m-280.380953 149.601524l-58.172952 58.197333 96.938667 96.938667-96.938667 96.987428 58.172952 58.197334 155.160381-155.160381-155.160381-155.160381z"
    data-spm-anchor-id="a313x.search_index.i1.i2.59d63a81MdQIkG"></path>
</svg>