<svg xmlns="http://www.w3.org/2000/svg" width="30" height="29.063" viewBox="0 0 30 29.063">
    <path data-name="Path 5373" d="M15 18.813a1.875 1.875 0 1 1 1.875 1.875A1.875 1.875 0 0 1 15 18.813zm12.189-6.563V3.813A2.813 2.813 0 0 0 24.375 1H5.156A5.162 5.162 0 0 0 0 6.156v18.75a5.162 5.162 0 0 0 5.156 5.156h16.876a5.163 5.163 0 0 0 5.156-5.156V23.5a7.033 7.033 0 0 0 .001-11.25zM5.156 2.875h19.219a.938.938 0 0 1 .938.938v5.8a2.781 2.781 0 0 0-.938-.173V4.75a.937.937 0 0 0-.938-.938H3.749a.937.937 0 0 0-.938.938v3.7a3.278 3.278 0 0 1 2.345-5.575zm18.281 2.813H3.749V4.75h19.688zm0 .938v.938H3.749v-.939zm0 1.875v.938H5.156A3.244 3.244 0 0 1 3.75 9.11V8.5zm1.876 16.407a3.281 3.281 0 0 1-3.281 3.281H5.156a3.281 3.281 0 0 1-3.281-3.281V10.13a5.131 5.131 0 0 0 3.281 1.182h19.219a.938.938 0 0 1 .938.938v1.875h-8.438a4.688 4.688 0 0 0 0 9.375h8.438zm1.2-3.281h-9.638a2.813 2.813 0 0 1 0-5.625h8.438a1.933 1.933 0 0 0 1.5-.754 1.888 1.888 0 0 0 .234-.432c.008-.021.023-.037.031-.058a5.167 5.167 0 0 1-.57 6.869z" transform="translate(0 -1)" style="fill:#f1416c"/>
</svg>
