<svg fill="currentColor" version="1.1" focusable="false" xmlns="http://www.w3.org/2000/svg" xmlns:xlink="http://www.w3.org/1999/xlink" x="0px"
	 y="0px" width="18.559px" height="18.559px" viewBox="-3.279 -3.279 18.559 18.559"
	 enable-background="new -3.279 -3.279 18.559 18.559" xml:space="preserve">
<path display="none" d="M-0.147,10.96h1.188c0.162,0,0.292-0.114,0.292-0.252V1.105c0-0.139-0.131-0.252-0.292-0.252h-1.188
	c-0.162,0-0.292,0.113-0.292,0.252v9.603C-0.439,10.846-0.309,10.96-0.147,10.96z M6,9.633c0.729,0,1.323-0.593,1.323-1.289
	C7.323,7.582,6.729,6.99,6,6.99c-0.729,0-1.322,0.592-1.322,1.354C4.679,9.04,5.272,9.633,6,9.633z M6,5.008
	c0.729,0,1.323-0.592,1.323-1.288c0-0.762-0.594-1.354-1.323-1.354c-0.729,0-1.322,0.591-1.322,1.354
	C4.679,4.417,5.272,5.008,6,5.008z M10.961,10.96h1.188c0.161,0,0.289-0.114,0.289-0.252V1.105c0-0.139-0.128-0.252-0.289-0.252
	h-1.188c-0.163,0-0.289,0.113-0.289,0.252v9.603C10.672,10.846,10.798,10.96,10.961,10.96z"/>
<path d="M-2.373,11.315V9.539h1.846V2.782h-1.543V1.376c0.933-0.367,1.543-0.715,2.173-1.072h1.237v9.234h1.867v1.424h-5.581V11.315
	z M5.681,5.274c-0.63,0-1.253,0-1.253-0.917c0-0.93,0.626-1.24,1.253-1.24c0.919,0,1.223,0.311,1.223,1.24
	C6.908,4.664,6.601,5.274,5.681,5.274z M5.681,10.231c-0.63,0-1.253-0.616-1.253-1.225c0-0.626,0.626-1.253,1.253-1.253
	c0.919,0,1.223,0.63,1.223,1.253C6.908,9.615,6.601,10.231,5.681,10.231z M9.078,11.315V9.539h1.863V2.782H9.389V1.376
	c0.619-0.367,1.553-0.715,1.859-1.072h1.866v9.234h1.224v1.424h-5.26V11.315z"/>
</svg>
