<svg width="15" height="14" viewBox="0 0 15 14" fill="none" xmlns="http://www.w3.org/2000/svg">
<path fill-rule="evenodd" clip-rule="evenodd" d="M14.1666 7C14.1666 10.8662 11.0328 14 7.16663 14C3.30047 14 0.166626 10.8662 0.166626 7C0.166626 3.13384 3.30047 0 7.16663 0C11.0328 0 14.1666 3.13384 14.1666 7Z" fill="#26A17B"/>
<path d="M6.6887 9.79939C6.64015 9.79945 6.59207 9.78887 6.54721 9.76825C6.50236 9.74763 6.46161 9.71737 6.42733 9.67922L3.77494 6.73617C3.70558 6.65921 3.66663 6.55483 3.66663 6.446C3.66663 6.33716 3.70558 6.23279 3.77494 6.15583C3.8443 6.07887 3.93836 6.03564 4.03645 6.03564C4.13453 6.03564 4.2286 6.07887 4.29796 6.15583L6.68953 8.80949L10.7355 4.32009C10.8049 4.24318 10.8989 4.19998 10.997 4.20001C11.0951 4.20004 11.1891 4.24329 11.2584 4.32024C11.3277 4.3972 11.3667 4.50156 11.3666 4.61036C11.3666 4.71917 11.3276 4.82351 11.2583 4.90043L6.9509 9.67984C6.91657 9.71801 6.87579 9.74827 6.83089 9.76889C6.78599 9.78952 6.73785 9.80009 6.68925 9.80001L6.6887 9.79939Z" fill="white"/>
</svg>
