<svg width="16" height="17" viewBox="0 0 16 17" fill="none" xmlns="http://www.w3.org/2000/svg">
<path d="M2.58734 4.14759L7.50171 1.19897C7.80979 1.01412 8.19334 1.00875 8.50647 1.18488L13.7629 4.14163C14.1424 4.35507 14.3421 4.78977 14.2414 5.21333C13.4071 8.72412 11.6222 12.9128 8.61294 15.5896C8.26424 15.8997 7.74036 15.8917 7.39265 15.5804C3.74749 12.3169 2.75257 8.65756 2.11915 5.17439C2.04528 4.7682 2.23332 4.36 2.58734 4.14759Z" stroke="#26A17B"/>
<path d="M11.12 5.54007C11.04 5.46007 10.88 5.38007 10.8 5.38007C10.64 5.38007 10.56 5.46007 10.48 5.54007L6.87997 9.30007L5.51997 7.94007C5.43997 7.86007 5.27997 7.78007 5.19997 7.78007C5.03997 7.78007 4.95997 7.86007 4.87997 7.94007C4.79997 8.02007 4.71997 8.18007 4.71997 8.26007C4.71997 8.34007 4.79997 8.50007 4.87997 8.58007L6.55997 10.2601C6.63997 10.3401 6.79997 10.4201 6.87997 10.4201H6.95997C7.03997 10.4201 7.11997 10.3401 7.19997 10.2601L11.2 6.26007C11.28 6.18007 11.36 6.02007 11.36 5.94007C11.28 5.78007 11.2 5.70007 11.12 5.54007Z" fill="#26A17B"/>
</svg>
