<svg width="48" height="57" viewBox="0 0 48 57" fill="none" xmlns="http://www.w3.org/2000/svg">
<path d="M0 0.5H48V41.991L24.7 56.5L0 41.991V0.5Z" fill="#E6E8EA"/>
<path d="M6.43945 8.10986H41.5615V38.3249L24.5145 48.8909L6.43945 38.3249V8.10986Z" fill="#D6D8DB"/>
<path d="M6.439 23.5918H2V26.5918H6.439V23.5918Z" fill="#B3BAC5"/>
<path d="M45.9995 23.5918H41.5615V26.5918H45.9995V23.5918Z" fill="#B3BAC5"/>
<path d="M13.0005 23.5918H6.43945V26.5918H13.0005V23.5918Z" fill="#FB6943"/>
<path d="M41.562 23.5918H35V26.5918H41.562V23.5918Z" fill="#FB6943"/>
<path d="M23 24.5869H25C26.5913 24.5869 28.1174 25.2191 29.2426 26.3443C30.3679 27.4695 31 28.9956 31 30.5869V31.5869H17V30.5869C17 28.9956 17.6321 27.4695 18.7574 26.3443C19.8826 25.2191 21.4087 24.5869 23 24.5869V24.5869Z" fill="#FB6943"/>
<path d="M24 22.5C26.2091 22.5 28 20.7091 28 18.5C28 16.2909 26.2091 14.5 24 14.5C21.7909 14.5 20 16.2909 20 18.5C20 20.7091 21.7909 22.5 24 22.5Z" fill="#FB6943"/>
</svg>
