<svg width="846" height="484" viewBox="0 0 846 484" fill="none" xmlns="http://www.w3.org/2000/svg">
<rect width="846" height="483.001" rx="8" fill="#2A3948"/>
<g style="mix-blend-mode:luminosity" opacity="0.5">
<path d="M846 0H0V482.987H846V0Z" fill="url(#paint0_radial_2_10490)"/>
<mask id="mask0_2_10490" style="mask-type:luminance" maskUnits="userSpaceOnUse" x="0" y="0" width="846" height="483">
<path d="M846 0H0V482.987H846V0Z" fill="white"/>
</mask>
<g mask="url(#mask0_2_10490)">
<path style="mix-blend-mode:lighten" d="M422.999 -247.419C156.953 -247.419 -58.72 -28.5231 -58.72 241.5C-58.72 511.523 156.953 730.419 422.999 730.419C689.045 730.419 904.718 511.523 904.718 241.5C904.718 -28.5231 689.045 -247.419 422.999 -247.419ZM422.999 661.373C194.525 661.373 9.30917 473.389 9.30917 241.5C9.30917 9.61058 194.525 -178.373 422.999 -178.373C651.473 -178.373 836.688 9.61058 836.688 241.5C836.688 473.389 651.473 661.373 422.999 661.373Z" fill="url(#paint1_linear_2_10490)"/>
<path style="mix-blend-mode:lighten" d="M422.999 -178.306C194.564 -178.306 9.37524 9.65088 9.37524 241.5C9.37524 473.349 194.564 661.306 422.999 661.306C651.433 661.306 836.622 473.349 836.622 241.5C836.622 9.65088 651.433 -178.306 422.999 -178.306ZM422.999 589.71C233.525 589.71 79.9171 433.806 79.9171 241.5C79.9171 49.1939 233.525 -106.71 422.999 -106.71C612.473 -106.71 766.08 49.1939 766.08 241.5C766.08 433.806 612.473 589.71 422.999 589.71Z" fill="url(#paint2_linear_2_10490)"/>
<path style="mix-blend-mode:lighten" d="M422.999 -105.931C233.948 -105.931 80.6843 49.6234 80.6843 241.5C80.6843 433.377 233.948 588.932 422.999 588.932C612.05 588.932 765.314 433.377 765.314 241.5C765.314 49.6234 612.05 -105.931 422.999 -105.931ZM422.999 529.671C266.191 529.671 139.072 400.652 139.072 241.5C139.072 82.3478 266.191 -46.6705 422.999 -46.6705C579.807 -46.6705 706.925 82.3478 706.925 241.5C706.925 400.652 579.807 529.671 422.999 529.671Z" fill="url(#paint3_linear_2_10490)"/>
<path style="mix-blend-mode:lighten" d="M422.999 -46.496C266.284 -46.496 139.245 82.4418 139.245 241.5C139.245 400.558 266.284 529.496 422.999 529.496C579.715 529.496 706.754 400.558 706.754 241.5C706.754 82.4418 579.715 -46.496 422.999 -46.496ZM422.999 473.188C296.926 473.188 194.737 369.458 194.737 241.513C194.737 113.569 296.939 9.83877 422.999 9.83877C549.059 9.83877 651.262 113.569 651.262 241.513C651.262 369.458 549.059 473.188 422.999 473.188Z" fill="url(#paint4_linear_2_10490)"/>
<path style="mix-blend-mode:lighten" d="M422.999 9.3421C296.674 9.3421 194.26 113.287 194.26 241.5C194.26 369.713 296.674 473.658 422.999 473.658C549.323 473.658 651.738 369.713 651.738 241.5C651.738 113.287 549.323 9.3421 422.999 9.3421ZM422.999 428.249C321.378 428.249 238.987 344.639 238.987 241.487C238.987 138.334 321.365 54.724 422.999 54.724C524.632 54.724 607.011 138.334 607.011 241.487C607.011 344.639 524.632 428.249 422.999 428.249Z" fill="url(#paint5_linear_2_10490)"/>
</g>
<path d="M388.007 390.102H384.609V393.552H388.007V390.102Z" fill="url(#paint6_linear_2_10490)"/>
<path d="M435.605 366.277H432.206V369.726H435.605V366.277Z" fill="url(#paint7_linear_2_10490)"/>
<path d="M697.802 315.942H694.403V319.392H697.802V315.942Z" fill="url(#paint8_linear_2_10490)"/>
<path d="M477.804 404.974H474.405V408.424H477.804V404.974Z" fill="url(#paint9_linear_2_10490)"/>
<path d="M488.755 419.847H485.356V423.296H488.755V419.847Z" fill="url(#paint10_linear_2_10490)"/>
<path d="M562.1 386.652H558.702V390.102H562.1V386.652Z" fill="url(#paint11_linear_2_10490)"/>
<path d="M507.005 345.552H503.606V349.002H507.005V345.552Z" fill="url(#paint12_linear_2_10490)"/>
<path d="M141.428 54.5227H138.029V57.9724H141.428V54.5227Z" fill="url(#paint13_linear_2_10490)"/>
<path d="M652.798 327.163H649.399V330.613H652.798V327.163Z" fill="url(#paint14_linear_2_10490)"/>
<path d="M689.311 350.733H685.913V354.183H689.311V350.733Z" fill="url(#paint15_linear_2_10490)"/>
<path d="M683.598 205.715H680.199V209.165H683.598V205.715Z" fill="url(#paint16_linear_2_10490)"/>
<path d="M754.96 216.172H751.561V219.621H754.96V216.172Z" fill="url(#paint17_linear_2_10490)"/>
<path d="M154.97 399.323H151.572V402.773H154.97V399.323Z" fill="url(#paint18_linear_2_10490)"/>
<path d="M84.9977 190.36H81.5989V193.809H84.9977V190.36Z" fill="url(#paint19_linear_2_10490)"/>
<path d="M64.3927 217.903H60.9939V221.353H64.3927V217.903Z" fill="url(#paint20_linear_2_10490)"/>
<path d="M780.867 111.582H777.469V115.032H780.867V111.582Z" fill="url(#paint21_linear_2_10490)"/>
<path d="M755.556 279.244H752.157V282.694H755.556V279.244Z" fill="url(#paint22_linear_2_10490)"/>
<path d="M782.574 246.775H779.175V250.225H782.574V246.775Z" fill="url(#paint23_linear_2_10490)"/>
<path d="M753.254 92.8846H749.855V96.3342H753.254V92.8846Z" fill="url(#paint24_linear_2_10490)"/>
<path d="M328.415 126.79H325.016V130.24H328.415V126.79Z" fill="url(#paint25_linear_2_10490)"/>
<path d="M482.539 79.7438H479.14V83.1934H482.539V79.7438Z" fill="url(#paint26_linear_2_10490)"/>
<path d="M572.297 103.448H568.898V106.898H572.297V103.448Z" fill="url(#paint27_linear_2_10490)"/>
<path d="M295.948 79.7438H292.549V83.1934H295.948V79.7438Z" fill="url(#paint28_linear_2_10490)"/>
<path d="M641.913 140.092H638.515V143.542H641.913V140.092Z" fill="url(#paint29_linear_2_10490)"/>
<path d="M541.073 126.79H537.674V130.24H541.073V126.79Z" fill="url(#paint30_linear_2_10490)"/>
<path d="M430.499 126.79H427.101V130.24H430.499V126.79Z" fill="url(#paint31_linear_2_10490)"/>
<path d="M256.207 352.465H252.808V355.915H256.207V352.465Z" fill="url(#paint32_linear_2_10490)"/>
<path d="M231.582 339.458H228.183V342.908H231.582V339.458Z" fill="url(#paint33_linear_2_10490)"/>
<path d="M132.951 325.445H129.552V328.895H132.951V325.445Z" fill="url(#paint34_linear_2_10490)"/>
<path d="M73.1207 421.565H69.7219V425.014H73.1207V421.565Z" fill="url(#paint35_linear_2_10490)"/>
<path d="M735.93 388.384H732.531V391.834H735.93V388.384Z" fill="url(#paint36_linear_2_10490)"/>
<path d="M800.493 273.298H797.094V276.748H800.493V273.298Z" fill="url(#paint37_linear_2_10490)"/>
<path d="M696.096 149.246H692.697V152.696H696.096V149.246Z" fill="url(#paint38_linear_2_10490)"/>
<path d="M613.744 32.2814H610.345V35.731H613.744V32.2814Z" fill="url(#paint39_linear_2_10490)"/>
<path d="M579.108 52.8046H575.709V56.2542H579.108V52.8046Z" fill="url(#paint40_linear_2_10490)"/>
<path d="M461.657 57.9724H458.258V61.422H461.657V57.9724Z" fill="url(#paint41_linear_2_10490)"/>
<path d="M671.67 406.706H668.271V410.155H671.67V406.706Z" fill="url(#paint42_linear_2_10490)"/>
<path d="M316.235 423.296H312.836V426.746H316.235V423.296Z" fill="url(#paint43_linear_2_10490)"/>
<path d="M361.598 52.8046H358.199V56.2542H361.598V52.8046Z" fill="url(#paint44_linear_2_10490)"/>
<path d="M132.951 217.903H129.552V221.353H132.951V217.903Z" fill="url(#paint45_linear_2_10490)"/>
<path d="M73.1207 178.078H69.7219V181.528H73.1207V178.078Z" fill="url(#paint46_linear_2_10490)"/>
<path d="M199.643 120.455H196.245V123.904H199.643V120.455Z" fill="url(#paint47_linear_2_10490)"/>
<path d="M164.506 140.092H161.107V143.542H164.506V140.092Z" fill="url(#paint48_linear_2_10490)"/>
<mask id="mask1_2_10490" style="mask-type:luminance" maskUnits="userSpaceOnUse" x="0" y="0" width="846" height="483">
<path d="M846 0H0V482.987H846V0Z" fill="white"/>
</mask>
<g mask="url(#mask1_2_10490)">
<path d="M292.549 386.76C302.753 386.76 311.025 378.364 311.025 368.008C311.025 357.652 302.753 349.257 292.549 349.257C282.346 349.257 274.074 357.652 274.074 368.008C274.074 378.364 282.346 386.76 292.549 386.76Z" stroke="#4583FF" stroke-width="0.5" stroke-miterlimit="10"/>
<path d="M195.649 28.0935C205.853 28.0935 214.125 19.6982 214.125 9.3421C214.125 -1.01402 205.853 -9.4093 195.649 -9.4093C185.446 -9.4093 177.174 -1.01402 177.174 9.3421C177.174 19.6982 185.446 28.0935 195.649 28.0935Z" stroke="#4583FF" stroke-width="0.5" stroke-miterlimit="10"/>
<path d="M804.605 95.0456C814.809 95.0456 823.081 86.6503 823.081 76.2942C823.081 65.9381 814.809 57.5428 804.605 57.5428C794.402 57.5428 786.13 65.9381 786.13 76.2942C786.13 86.6503 794.402 95.0456 804.605 95.0456Z" stroke="#4583FF" stroke-width="0.5" stroke-miterlimit="10"/>
<path d="M81.5973 501.751C91.8009 501.751 100.073 493.356 100.073 483C100.073 472.644 91.8009 464.249 81.5973 464.249C71.3937 464.249 63.1221 472.644 63.1221 483C63.1221 493.356 71.3937 501.751 81.5973 501.751Z" stroke="#4583FF" stroke-width="0.5" stroke-miterlimit="10"/>
<path d="M479.14 151.662C485.436 151.662 490.54 146.482 490.54 140.092C490.54 133.702 485.436 128.522 479.14 128.522C472.844 128.522 467.74 133.702 467.74 140.092C467.74 146.482 472.844 151.662 479.14 151.662Z" stroke="#4583FF" stroke-width="0.5" stroke-miterlimit="10"/>
<path d="M629.574 448.88C635.87 448.88 640.974 443.699 640.974 437.309C640.974 430.919 635.87 425.739 629.574 425.739C623.278 425.739 618.174 430.919 618.174 437.309C618.174 443.699 623.278 448.88 629.574 448.88Z" stroke="#4583FF" stroke-width="0.5" stroke-miterlimit="10"/>
<path d="M97.5471 241.044C103.843 241.044 108.947 235.863 108.947 229.473C108.947 223.083 103.843 217.903 97.5471 217.903C91.2511 217.903 86.1472 223.083 86.1472 229.473C86.1472 235.863 91.2511 241.044 97.5471 241.044Z" stroke="#4583FF" stroke-width="0.5" stroke-miterlimit="10"/>
<path d="M0.00025177 107.918C6.29625 107.918 11.4002 102.738 11.4002 96.3476C11.4002 89.9575 6.29625 84.7773 0.00025177 84.7773C-6.29574 84.7773 -11.3997 89.9575 -11.3997 96.3476C-11.3997 102.738 -6.29574 107.918 0.00025177 107.918Z" stroke="#4583FF" stroke-width="0.5" stroke-miterlimit="10"/>
<path d="M797.094 314.962C803.39 314.962 808.494 309.782 808.494 303.392C808.494 297.002 803.39 291.821 797.094 291.821C790.798 291.821 785.694 297.002 785.694 303.392C785.694 309.782 790.798 314.962 797.094 314.962Z" stroke="#4583FF" stroke-width="0.5" stroke-miterlimit="10"/>
<path d="M695.458 413.887C695.926 413.887 696.305 413.502 696.305 413.028C696.305 412.553 695.926 412.169 695.458 412.169C694.991 412.169 694.612 412.553 694.612 413.028C694.612 413.502 694.991 413.887 695.458 413.887Z" fill="#FF88C7"/>
<path d="M705.775 413.028C705.775 412.558 705.391 412.169 704.928 412.169C704.465 412.169 704.082 412.545 704.082 413.028C704.082 413.511 704.465 413.887 704.928 413.887C705.391 413.887 705.775 413.511 705.775 413.028Z" fill="#FF88C7"/>
<path d="M714.383 413.887C714.85 413.887 715.229 413.502 715.229 413.028C715.229 412.553 714.85 412.169 714.383 412.169C713.915 412.169 713.536 412.553 713.536 413.028C713.536 413.502 713.915 413.887 714.383 413.887Z" fill="#FF88C7"/>
<path d="M724.699 413.028C724.699 412.558 724.315 412.169 723.852 412.169C723.389 412.169 723.006 412.545 723.006 413.028C723.006 413.511 723.389 413.887 723.852 413.887C724.315 413.887 724.699 413.511 724.699 413.028Z" fill="#FF88C7"/>
<path d="M733.309 413.887C733.776 413.887 734.155 413.502 734.155 413.028C734.155 412.553 733.776 412.169 733.309 412.169C732.841 412.169 732.462 412.553 732.462 413.028C732.462 413.502 732.841 413.887 733.309 413.887Z" fill="#FF88C7"/>
<path d="M742.777 413.887C743.245 413.887 743.624 413.502 743.624 413.028C743.624 412.553 743.245 412.169 742.777 412.169C742.31 412.169 741.931 412.553 741.931 413.028C741.931 413.502 742.31 413.887 742.777 413.887Z" fill="#FF88C7"/>
<path d="M753.079 413.028C753.079 412.558 752.696 412.169 752.233 412.169C751.77 412.169 751.386 412.545 751.386 413.028C751.386 413.511 751.77 413.887 752.233 413.887C752.696 413.887 753.079 413.511 753.079 413.028Z" fill="#FF88C7"/>
<path d="M761.703 413.887C762.17 413.887 762.549 413.502 762.549 413.028C762.549 412.553 762.17 412.169 761.703 412.169C761.235 412.169 760.856 412.553 760.856 413.028C760.856 413.502 761.235 413.887 761.703 413.887Z" fill="#FF88C7"/>
<path d="M771.159 413.887C771.626 413.887 772.005 413.502 772.005 413.028C772.005 412.553 771.626 412.169 771.159 412.169C770.691 412.169 770.312 412.553 770.312 413.028C770.312 413.502 770.691 413.887 771.159 413.887Z" fill="#FF88C7"/>
<path d="M696.305 421.672C696.305 421.202 695.921 420.813 695.458 420.813C694.996 420.813 694.612 421.189 694.612 421.672C694.612 422.155 694.996 422.531 695.458 422.531C695.921 422.531 696.305 422.155 696.305 421.672Z" fill="#FF88C7"/>
<path d="M705.775 421.672C705.775 421.202 705.391 420.813 704.928 420.813C704.465 420.813 704.082 421.189 704.082 421.672C704.082 422.155 704.465 422.531 704.928 422.531C705.391 422.531 705.775 422.155 705.775 421.672Z" fill="#FF88C7"/>
<path d="M715.229 421.672C715.229 421.202 714.845 420.813 714.383 420.813C713.92 420.813 713.536 421.189 713.536 421.672C713.536 422.155 713.92 422.531 714.383 422.531C714.845 422.531 715.229 422.155 715.229 421.672Z" fill="#FF88C7"/>
<path d="M724.699 421.672C724.699 421.202 724.315 420.813 723.852 420.813C723.389 420.813 723.006 421.189 723.006 421.672C723.006 422.155 723.389 422.531 723.852 422.531C724.315 422.531 724.699 422.155 724.699 421.672Z" fill="#FF88C7"/>
<path d="M734.155 421.672C734.155 421.202 733.771 420.813 733.309 420.813C732.846 420.813 732.462 421.189 732.462 421.672C732.462 422.155 732.846 422.531 733.309 422.531C733.771 422.531 734.155 422.155 734.155 421.672Z" fill="#FF88C7"/>
<path d="M743.624 421.672C743.624 421.202 743.24 420.813 742.777 420.813C742.314 420.813 741.931 421.189 741.931 421.672C741.931 422.155 742.314 422.531 742.777 422.531C743.24 422.531 743.624 422.155 743.624 421.672Z" fill="#FF88C7"/>
<path d="M753.079 421.672C753.079 421.202 752.696 420.813 752.233 420.813C751.77 420.813 751.386 421.189 751.386 421.672C751.386 422.155 751.77 422.531 752.233 422.531C752.696 422.531 753.079 422.155 753.079 421.672Z" fill="#FF88C7"/>
<path d="M762.549 421.672C762.549 421.202 762.165 420.813 761.703 420.813C761.24 420.813 760.856 421.189 760.856 421.672C760.856 422.155 761.24 422.531 761.703 422.531C762.165 422.531 762.549 422.155 762.549 421.672Z" fill="#FF88C7"/>
<path d="M772.018 421.672C772.018 421.202 771.634 420.813 771.171 420.813C770.708 420.813 770.325 421.189 770.325 421.672C770.325 422.155 770.708 422.531 771.171 422.531C771.634 422.531 772.018 422.155 772.018 421.672Z" fill="#FF88C7"/>
<path d="M695.458 431.189C695.926 431.189 696.305 430.804 696.305 430.33C696.305 429.855 695.926 429.47 695.458 429.47C694.991 429.47 694.612 429.855 694.612 430.33C694.612 430.804 694.991 431.189 695.458 431.189Z" fill="#FF88C7"/>
<path d="M705.775 430.329C705.775 429.86 705.391 429.47 704.928 429.47C704.465 429.47 704.082 429.846 704.082 430.329C704.082 430.813 704.465 431.189 704.928 431.189C705.391 431.189 705.775 430.813 705.775 430.329Z" fill="#FF88C7"/>
<path d="M714.383 431.189C714.85 431.189 715.229 430.804 715.229 430.329C715.229 429.855 714.85 429.47 714.383 429.47C713.915 429.47 713.536 429.855 713.536 430.329C713.536 430.804 713.915 431.189 714.383 431.189Z" fill="#FF88C7"/>
<path d="M724.699 430.329C724.699 429.86 724.315 429.47 723.852 429.47C723.389 429.47 723.006 429.846 723.006 430.329C723.006 430.813 723.389 431.189 723.852 431.189C724.315 431.189 724.699 430.813 724.699 430.329Z" fill="#FF88C7"/>
<path d="M733.309 431.189C733.776 431.189 734.155 430.804 734.155 430.329C734.155 429.855 733.776 429.47 733.309 429.47C732.841 429.47 732.462 429.855 732.462 430.329C732.462 430.804 732.841 431.189 733.309 431.189Z" fill="#FF88C7"/>
<path d="M742.777 431.189C743.245 431.189 743.624 430.804 743.624 430.329C743.624 429.855 743.245 429.47 742.777 429.47C742.31 429.47 741.931 429.855 741.931 430.329C741.931 430.804 742.31 431.189 742.777 431.189Z" fill="#FF88C7"/>
<path d="M753.079 430.329C753.079 429.86 752.696 429.47 752.233 429.47C751.77 429.47 751.386 429.846 751.386 430.329C751.386 430.813 751.77 431.189 752.233 431.189C752.696 431.189 753.079 430.813 753.079 430.329Z" fill="#FF88C7"/>
<path d="M761.703 431.189C762.17 431.189 762.549 430.804 762.549 430.329C762.549 429.855 762.17 429.47 761.703 429.47C761.235 429.47 760.856 429.855 760.856 430.329C760.856 430.804 761.235 431.189 761.703 431.189Z" fill="#FF88C7"/>
<path d="M771.159 431.189C771.626 431.189 772.005 430.804 772.005 430.329C772.005 429.855 771.626 429.47 771.159 429.47C770.691 429.47 770.312 429.855 770.312 430.329C770.312 430.804 770.691 431.189 771.159 431.189Z" fill="#FF88C7"/>
<path d="M6.47774 359.19C6.9452 359.19 7.32414 358.805 7.32414 358.331C7.32414 357.856 6.9452 357.471 6.47774 357.471C6.01029 357.471 5.63135 357.856 5.63135 358.331C5.63135 358.805 6.01029 359.19 6.47774 359.19Z" fill="#FF88C7"/>
<path d="M15.934 359.19C16.4015 359.19 16.7804 358.805 16.7804 358.331C16.7804 357.856 16.4015 357.471 15.934 357.471C15.4666 357.471 15.0876 357.856 15.0876 358.331C15.0876 358.805 15.4666 359.19 15.934 359.19Z" fill="#FF88C7"/>
<path d="M6.47774 367.847C6.9452 367.847 7.32414 367.463 7.32414 366.988C7.32414 366.514 6.9452 366.129 6.47774 366.129C6.01029 366.129 5.63135 366.514 5.63135 366.988C5.63135 367.463 6.01029 367.847 6.47774 367.847Z" fill="#FF88C7"/>
<path d="M15.934 367.847C16.4015 367.847 16.7804 367.463 16.7804 366.988C16.7804 366.514 16.4015 366.129 15.934 366.129C15.4666 366.129 15.0876 366.514 15.0876 366.988C15.0876 367.463 15.4666 367.847 15.934 367.847Z" fill="#FF88C7"/>
<path d="M6.47774 376.491C6.9452 376.491 7.32414 376.107 7.32414 375.632C7.32414 375.158 6.9452 374.773 6.47774 374.773C6.01029 374.773 5.63135 375.158 5.63135 375.632C5.63135 376.107 6.01029 376.491 6.47774 376.491Z" fill="#FF88C7"/>
<path d="M15.934 376.491C16.4015 376.491 16.7804 376.107 16.7804 375.632C16.7804 375.158 16.4015 374.773 15.934 374.773C15.4666 374.773 15.0876 375.158 15.0876 375.632C15.0876 376.107 15.4666 376.491 15.934 376.491Z" fill="#FF88C7"/>
<path d="M343.834 341.15C344.302 341.15 344.681 340.765 344.681 340.29C344.681 339.816 344.302 339.431 343.834 339.431C343.367 339.431 342.988 339.816 342.988 340.29C342.988 340.765 343.367 341.15 343.834 341.15Z" fill="white"/>
<path d="M353.291 341.15C353.758 341.15 354.137 340.765 354.137 340.291C354.137 339.816 353.758 339.431 353.291 339.431C352.823 339.431 352.444 339.816 352.444 340.291C352.444 340.765 352.823 341.15 353.291 341.15Z" fill="white"/>
<path d="M362.759 341.15C363.226 341.15 363.605 340.765 363.605 340.291C363.605 339.816 363.226 339.431 362.759 339.431C362.291 339.431 361.912 339.816 361.912 340.291C361.912 340.765 362.291 341.15 362.759 341.15Z" fill="white"/>
<path d="M343.834 349.794C344.302 349.794 344.681 349.409 344.681 348.935C344.681 348.46 344.302 348.076 343.834 348.076C343.367 348.076 342.988 348.46 342.988 348.935C342.988 349.409 343.367 349.794 343.834 349.794Z" fill="white"/>
<path d="M353.291 349.794C353.758 349.794 354.137 349.409 354.137 348.935C354.137 348.46 353.758 348.076 353.291 348.076C352.823 348.076 352.444 348.46 352.444 348.935C352.444 349.409 352.823 349.794 353.291 349.794Z" fill="white"/>
<path d="M362.759 349.794C363.226 349.794 363.605 349.409 363.605 348.935C363.605 348.46 363.226 348.076 362.759 348.076C362.291 348.076 361.912 348.46 361.912 348.935C361.912 349.409 362.291 349.794 362.759 349.794Z" fill="white"/>
<path d="M343.834 358.438C344.302 358.438 344.681 358.053 344.681 357.579C344.681 357.104 344.302 356.72 343.834 356.72C343.367 356.72 342.988 357.104 342.988 357.579C342.988 358.053 343.367 358.438 343.834 358.438Z" fill="white"/>
<path d="M353.291 358.438C353.758 358.438 354.137 358.053 354.137 357.579C354.137 357.104 353.758 356.72 353.291 356.72C352.823 356.72 352.444 357.104 352.444 357.579C352.444 358.053 352.823 358.438 353.291 358.438Z" fill="white"/>
<path d="M362.759 358.438C363.226 358.438 363.605 358.053 363.605 357.579C363.605 357.104 363.226 356.72 362.759 356.72C362.291 356.72 361.912 357.104 361.912 357.579C361.912 358.053 362.291 358.438 362.759 358.438Z" fill="white"/>
<path d="M530.071 41.2476C530.071 40.7778 529.687 40.3886 529.224 40.3886C528.761 40.3886 528.378 40.7644 528.378 41.2476C528.378 41.7308 528.761 42.1067 529.224 42.1067C529.687 42.1067 530.071 41.7308 530.071 41.2476Z" fill="white"/>
<path d="M538.693 42.1067C539.161 42.1067 539.539 41.7221 539.539 41.2476C539.539 40.7732 539.161 40.3886 538.693 40.3886C538.226 40.3886 537.847 40.7732 537.847 41.2476C537.847 41.7221 538.226 42.1067 538.693 42.1067Z" fill="white"/>
<path d="M548.148 42.1067C548.616 42.1067 548.995 41.7221 548.995 41.2476C548.995 40.7732 548.616 40.3886 548.148 40.3886C547.681 40.3886 547.302 40.7732 547.302 41.2476C547.302 41.7221 547.681 42.1067 548.148 42.1067Z" fill="white"/>
<path d="M530.071 49.9053C530.071 49.4355 529.687 49.0462 529.224 49.0462C528.761 49.0462 528.378 49.422 528.378 49.9053C528.378 50.3885 528.761 50.7643 529.224 50.7643C529.687 50.7643 530.071 50.3885 530.071 49.9053Z" fill="white"/>
<path d="M539.539 49.9053C539.539 49.4355 539.156 49.0462 538.693 49.0462C538.23 49.0462 537.847 49.422 537.847 49.9053C537.847 50.3885 538.23 50.7643 538.693 50.7643C539.156 50.7643 539.539 50.3885 539.539 49.9053Z" fill="white"/>
<path d="M548.995 49.9053C548.995 49.4355 548.611 49.0462 548.148 49.0462C547.686 49.0462 547.302 49.422 547.302 49.9053C547.302 50.3885 547.686 50.7643 548.148 50.7643C548.611 50.7643 548.995 50.3885 548.995 49.9053Z" fill="white"/>
<path d="M530.071 58.5494C530.071 58.0796 529.687 57.6904 529.224 57.6904C528.761 57.6904 528.378 58.0662 528.378 58.5494C528.378 59.0326 528.761 59.4085 529.224 59.4085C529.687 59.4085 530.071 59.0326 530.071 58.5494Z" fill="white"/>
<path d="M538.693 59.4085C539.161 59.4085 539.539 59.0239 539.539 58.5494C539.539 58.075 539.161 57.6904 538.693 57.6904C538.226 57.6904 537.847 58.075 537.847 58.5494C537.847 59.0239 538.226 59.4085 538.693 59.4085Z" fill="white"/>
<path d="M548.148 59.4085C548.616 59.4085 548.995 59.0239 548.995 58.5494C548.995 58.075 548.616 57.6904 548.148 57.6904C547.681 57.6904 547.302 58.075 547.302 58.5494C547.302 59.0239 547.681 59.4085 548.148 59.4085Z" fill="white"/>
<path d="M185.625 143.676C185.625 143.206 185.241 142.817 184.779 142.817C184.316 142.817 183.932 143.193 183.932 143.676C183.932 144.159 184.316 144.535 184.779 144.535C185.241 144.535 185.625 144.159 185.625 143.676Z" fill="#FF88C7"/>
<path d="M195.094 143.676C195.094 143.206 194.71 142.817 194.247 142.817C193.784 142.817 193.401 143.193 193.401 143.676C193.401 144.159 193.784 144.535 194.247 144.535C194.71 144.535 195.094 144.159 195.094 143.676Z" fill="#FF88C7"/>
<path d="M204.549 143.676C204.549 143.206 204.165 142.817 203.703 142.817C203.24 142.817 202.856 143.193 202.856 143.676C202.856 144.159 203.24 144.535 203.703 144.535C204.165 144.535 204.549 144.159 204.549 143.676Z" fill="#FF88C7"/>
<path d="M213.173 144.535C213.64 144.535 214.019 144.15 214.019 143.676C214.019 143.201 213.64 142.817 213.173 142.817C212.705 142.817 212.326 143.201 212.326 143.676C212.326 144.15 212.705 144.535 213.173 144.535Z" fill="#FF88C7"/>
<path d="M223.488 143.676C223.488 143.206 223.104 142.817 222.641 142.817C222.178 142.817 221.795 143.193 221.795 143.676C221.795 144.159 222.178 144.535 222.641 144.535C223.104 144.535 223.488 144.159 223.488 143.676Z" fill="#FF88C7"/>
<path d="M232.098 144.535C232.565 144.535 232.944 144.15 232.944 143.676C232.944 143.201 232.565 142.817 232.098 142.817C231.63 142.817 231.251 143.201 231.251 143.676C231.251 144.15 231.63 144.535 232.098 144.535Z" fill="#FF88C7"/>
<path d="M242.414 143.676C242.414 143.206 242.03 142.817 241.567 142.817C241.104 142.817 240.721 143.193 240.721 143.676C240.721 144.159 241.104 144.535 241.567 144.535C242.03 144.535 242.414 144.159 242.414 143.676Z" fill="#FF88C7"/>
<path d="M251.022 144.535C251.489 144.535 251.868 144.15 251.868 143.676C251.868 143.201 251.489 142.817 251.022 142.817C250.554 142.817 250.175 143.201 250.175 143.676C250.175 144.15 250.554 144.535 251.022 144.535Z" fill="#FF88C7"/>
<path d="M260.491 144.535C260.959 144.535 261.338 144.15 261.338 143.676C261.338 143.201 260.959 142.817 260.491 142.817C260.024 142.817 259.645 143.201 259.645 143.676C259.645 144.15 260.024 144.535 260.491 144.535Z" fill="#FF88C7"/>
<path d="M185.625 152.333C185.625 151.864 185.241 151.474 184.779 151.474C184.316 151.474 183.932 151.85 183.932 152.333C183.932 152.817 184.316 153.192 184.779 153.192C185.241 153.192 185.625 152.817 185.625 152.333Z" fill="#FF88C7"/>
<path d="M195.094 152.333C195.094 151.864 194.71 151.474 194.247 151.474C193.784 151.474 193.401 151.85 193.401 152.333C193.401 152.817 193.784 153.192 194.247 153.192C194.71 153.192 195.094 152.817 195.094 152.333Z" fill="#FF88C7"/>
<path d="M204.549 152.333C204.549 151.864 204.165 151.474 203.703 151.474C203.24 151.474 202.856 151.85 202.856 152.333C202.856 152.817 203.24 153.192 203.703 153.192C204.165 153.192 204.549 152.817 204.549 152.333Z" fill="#FF88C7"/>
<path d="M214.019 152.333C214.019 151.864 213.635 151.474 213.173 151.474C212.71 151.474 212.326 151.85 212.326 152.333C212.326 152.817 212.71 153.192 213.173 153.192C213.635 153.192 214.019 152.817 214.019 152.333Z" fill="#FF88C7"/>
<path d="M223.488 152.333C223.488 151.864 223.104 151.474 222.641 151.474C222.178 151.474 221.795 151.85 221.795 152.333C221.795 152.817 222.178 153.192 222.641 153.192C223.104 153.192 223.488 152.817 223.488 152.333Z" fill="#FF88C7"/>
<path d="M232.944 152.333C232.944 151.864 232.56 151.474 232.098 151.474C231.635 151.474 231.251 151.85 231.251 152.333C231.251 152.817 231.635 153.192 232.098 153.192C232.56 153.192 232.944 152.817 232.944 152.333Z" fill="#FF88C7"/>
<path d="M242.414 152.333C242.414 151.864 242.03 151.474 241.567 151.474C241.104 151.474 240.721 151.85 240.721 152.333C240.721 152.817 241.104 153.192 241.567 153.192C242.03 153.192 242.414 152.817 242.414 152.333Z" fill="#FF88C7"/>
<path d="M251.868 152.333C251.868 151.864 251.485 151.474 251.022 151.474C250.559 151.474 250.175 151.85 250.175 152.333C250.175 152.817 250.559 153.192 251.022 153.192C251.485 153.192 251.868 152.817 251.868 152.333Z" fill="#FF88C7"/>
<path d="M261.338 152.333C261.338 151.864 260.954 151.474 260.491 151.474C260.029 151.474 259.645 151.85 259.645 152.333C259.645 152.817 260.029 153.192 260.491 153.192C260.954 153.192 261.338 152.817 261.338 152.333Z" fill="#FF88C7"/>
<path d="M185.625 160.978C185.625 160.508 185.241 160.118 184.779 160.118C184.316 160.118 183.932 160.494 183.932 160.978C183.932 161.461 184.316 161.837 184.779 161.837C185.241 161.837 185.625 161.461 185.625 160.978Z" fill="#FF88C7"/>
<path d="M195.094 160.978C195.094 160.508 194.71 160.118 194.247 160.118C193.784 160.118 193.401 160.494 193.401 160.978C193.401 161.461 193.784 161.837 194.247 161.837C194.71 161.837 195.094 161.461 195.094 160.978Z" fill="#FF88C7"/>
<path d="M204.549 160.978C204.549 160.508 204.165 160.118 203.703 160.118C203.24 160.118 202.856 160.494 202.856 160.978C202.856 161.461 203.24 161.837 203.703 161.837C204.165 161.837 204.549 161.461 204.549 160.978Z" fill="#FF88C7"/>
<path d="M213.173 161.837C213.64 161.837 214.019 161.452 214.019 160.978C214.019 160.503 213.64 160.118 213.173 160.118C212.705 160.118 212.326 160.503 212.326 160.978C212.326 161.452 212.705 161.837 213.173 161.837Z" fill="#FF88C7"/>
<path d="M223.488 160.978C223.488 160.508 223.104 160.118 222.641 160.118C222.178 160.118 221.795 160.494 221.795 160.978C221.795 161.461 222.178 161.837 222.641 161.837C223.104 161.837 223.488 161.461 223.488 160.978Z" fill="#FF88C7"/>
<path d="M232.098 161.837C232.565 161.837 232.944 161.452 232.944 160.978C232.944 160.503 232.565 160.118 232.098 160.118C231.63 160.118 231.251 160.503 231.251 160.978C231.251 161.452 231.63 161.837 232.098 161.837Z" fill="#FF88C7"/>
<path d="M242.414 160.978C242.414 160.508 242.03 160.118 241.567 160.118C241.104 160.118 240.721 160.494 240.721 160.978C240.721 161.461 241.104 161.837 241.567 161.837C242.03 161.837 242.414 161.461 242.414 160.978Z" fill="#FF88C7"/>
<path d="M251.022 161.837C251.489 161.837 251.868 161.452 251.868 160.978C251.868 160.503 251.489 160.118 251.022 160.118C250.554 160.118 250.175 160.503 250.175 160.978C250.175 161.452 250.554 161.837 251.022 161.837Z" fill="#FF88C7"/>
<path d="M260.491 161.837C260.959 161.837 261.338 161.452 261.338 160.978C261.338 160.503 260.959 160.118 260.491 160.118C260.024 160.118 259.645 160.503 259.645 160.978C259.645 161.452 260.024 161.837 260.491 161.837Z" fill="#FF88C7"/>
<path d="M5.63204 42.9657C6.09949 42.9657 6.47844 42.5811 6.47844 42.1067C6.47844 41.6323 6.09949 41.2477 5.63204 41.2477C5.16459 41.2477 4.78564 41.6323 4.78564 42.1067C4.78564 42.5811 5.16459 42.9657 5.63204 42.9657Z" fill="white"/>
<path d="M15.9338 42.1067C15.9338 41.6369 15.5502 41.2477 15.0874 41.2477C14.6245 41.2477 14.241 41.6235 14.241 42.1067C14.241 42.5899 14.6245 42.9657 15.0874 42.9657C15.5502 42.9657 15.9338 42.5899 15.9338 42.1067Z" fill="white"/>
<path d="M24.5561 42.9657C25.0236 42.9657 25.4025 42.5811 25.4025 42.1067C25.4025 41.6323 25.0236 41.2477 24.5561 41.2477C24.0887 41.2477 23.7097 41.6323 23.7097 42.1067C23.7097 42.5811 24.0887 42.9657 24.5561 42.9657Z" fill="white"/>
<path d="M34.8588 42.1067C34.8588 41.6369 34.4753 41.2477 34.0124 41.2477C33.5495 41.2477 33.166 41.6235 33.166 42.1067C33.166 42.5899 33.5495 42.9657 34.0124 42.9657C34.4753 42.9657 34.8588 42.5899 34.8588 42.1067Z" fill="white"/>
<path d="M6.47844 50.7509C6.47844 50.2811 6.09491 49.8918 5.63204 49.8918C5.16917 49.8918 4.78564 50.2677 4.78564 50.7509C4.78564 51.2341 5.16917 51.6099 5.63204 51.6099C6.09491 51.6099 6.47844 51.2341 6.47844 50.7509Z" fill="white"/>
<path d="M15.9338 50.7509C15.9338 50.2811 15.5502 49.8918 15.0874 49.8918C14.6245 49.8918 14.241 50.2677 14.241 50.7509C14.241 51.2341 14.6245 51.6099 15.0874 51.6099C15.5502 51.6099 15.9338 51.2341 15.9338 50.7509Z" fill="white"/>
<path d="M25.4025 50.7509C25.4025 50.2811 25.019 49.8918 24.5561 49.8918C24.0932 49.8918 23.7097 50.2677 23.7097 50.7509C23.7097 51.2341 24.0932 51.6099 24.5561 51.6099C25.019 51.6099 25.4025 51.2341 25.4025 50.7509Z" fill="white"/>
<path d="M34.8588 50.7509C34.8588 50.2811 34.4753 49.8918 34.0124 49.8918C33.5495 49.8918 33.166 50.2677 33.166 50.7509C33.166 51.2341 33.5495 51.6099 34.0124 51.6099C34.4753 51.6099 34.8588 51.2341 34.8588 50.7509Z" fill="white"/>
<path d="M5.63204 60.2675C6.09949 60.2675 6.47844 59.8829 6.47844 59.4085C6.47844 58.934 6.09949 58.5494 5.63204 58.5494C5.16459 58.5494 4.78564 58.934 4.78564 59.4085C4.78564 59.8829 5.16459 60.2675 5.63204 60.2675Z" fill="white"/>
<path d="M15.9338 59.4085C15.9338 58.9387 15.5502 58.5494 15.0874 58.5494C14.6245 58.5494 14.241 58.9253 14.241 59.4085C14.241 59.8917 14.6245 60.2675 15.0874 60.2675C15.5502 60.2675 15.9338 59.8917 15.9338 59.4085Z" fill="white"/>
<path d="M24.5561 60.2675C25.0236 60.2675 25.4025 59.8829 25.4025 59.4085C25.4025 58.934 25.0236 58.5494 24.5561 58.5494C24.0887 58.5494 23.7097 58.934 23.7097 59.4085C23.7097 59.8829 24.0887 60.2675 24.5561 60.2675Z" fill="white"/>
<path d="M34.8588 59.4085C34.8588 58.9387 34.4753 58.5494 34.0124 58.5494C33.5495 58.5494 33.166 58.9253 33.166 59.4085C33.166 59.8917 33.5495 60.2675 34.0124 60.2675C34.4753 60.2675 34.8588 59.8917 34.8588 59.4085Z" fill="white"/>
<path d="M807.951 187.756C807.951 187.286 807.568 186.897 807.105 186.897C806.642 186.897 806.259 187.272 806.259 187.756C806.259 188.239 806.642 188.615 807.105 188.615C807.568 188.615 807.951 188.239 807.951 187.756Z" fill="white"/>
<path d="M816.561 188.615C817.029 188.615 817.408 188.23 817.408 187.756C817.408 187.281 817.029 186.897 816.561 186.897C816.094 186.897 815.715 187.281 815.715 187.756C815.715 188.23 816.094 188.615 816.561 188.615Z" fill="white"/>
<path d="M826.875 187.756C826.875 187.286 826.492 186.897 826.029 186.897C825.566 186.897 825.183 187.272 825.183 187.756C825.183 188.239 825.566 188.615 826.029 188.615C826.492 188.615 826.875 188.239 826.875 187.756Z" fill="white"/>
<path d="M835.485 188.615C835.953 188.615 836.332 188.23 836.332 187.756C836.332 187.281 835.953 186.897 835.485 186.897C835.018 186.897 834.639 187.281 834.639 187.756C834.639 188.23 835.018 188.615 835.485 188.615Z" fill="white"/>
<path d="M845.802 187.756C845.802 187.286 845.418 186.897 844.955 186.897C844.492 186.897 844.109 187.272 844.109 187.756C844.109 188.239 844.492 188.615 844.955 188.615C845.418 188.615 845.802 188.239 845.802 187.756Z" fill="white"/>
<path d="M807.951 196.4C807.951 195.93 807.568 195.541 807.105 195.541C806.642 195.541 806.259 195.917 806.259 196.4C806.259 196.883 806.642 197.259 807.105 197.259C807.568 197.259 807.951 196.883 807.951 196.4Z" fill="white"/>
<path d="M816.561 197.259C817.029 197.259 817.408 196.874 817.408 196.4C817.408 195.925 817.029 195.541 816.561 195.541C816.094 195.541 815.715 195.925 815.715 196.4C815.715 196.874 816.094 197.259 816.561 197.259Z" fill="white"/>
<path d="M826.875 196.4C826.875 195.93 826.492 195.541 826.029 195.541C825.566 195.541 825.183 195.917 825.183 196.4C825.183 196.883 825.566 197.259 826.029 197.259C826.492 197.259 826.875 196.883 826.875 196.4Z" fill="white"/>
<path d="M835.485 197.259C835.953 197.259 836.332 196.874 836.332 196.4C836.332 195.925 835.953 195.541 835.485 195.541C835.018 195.541 834.639 195.925 834.639 196.4C834.639 196.874 835.018 197.259 835.485 197.259Z" fill="white"/>
<path d="M845.802 196.4C845.802 195.93 845.418 195.541 844.955 195.541C844.492 195.541 844.109 195.917 844.109 196.4C844.109 196.883 844.492 197.259 844.955 197.259C845.418 197.259 845.802 196.883 845.802 196.4Z" fill="white"/>
<path d="M807.951 205.057C807.951 204.588 807.568 204.198 807.105 204.198C806.642 204.198 806.259 204.574 806.259 205.057C806.259 205.541 806.642 205.917 807.105 205.917C807.568 205.917 807.951 205.541 807.951 205.057Z" fill="white"/>
<path d="M816.561 205.917C817.029 205.917 817.408 205.532 817.408 205.057C817.408 204.583 817.029 204.198 816.561 204.198C816.094 204.198 815.715 204.583 815.715 205.057C815.715 205.532 816.094 205.917 816.561 205.917Z" fill="white"/>
<path d="M826.875 205.057C826.875 204.588 826.492 204.198 826.029 204.198C825.566 204.198 825.183 204.574 825.183 205.057C825.183 205.541 825.566 205.917 826.029 205.917C826.492 205.917 826.875 205.541 826.875 205.057Z" fill="white"/>
<path d="M835.485 205.917C835.953 205.917 836.332 205.532 836.332 205.057C836.332 204.583 835.953 204.198 835.485 204.198C835.018 204.198 834.639 204.583 834.639 205.057C834.639 205.532 835.018 205.917 835.485 205.917Z" fill="white"/>
<path d="M845.802 205.057C845.802 204.588 845.418 204.198 844.955 204.198C844.492 204.198 844.109 204.574 844.109 205.057C844.109 205.541 844.492 205.917 844.955 205.917C845.418 205.917 845.802 205.541 845.802 205.057Z" fill="white"/>
</g>
<path style="mix-blend-mode:multiply" opacity="0.8" d="M846 0H0V482.987H846V0Z" fill="url(#paint49_linear_2_10490)"/>
<path style="mix-blend-mode:lighten" opacity="0.9" d="M423.001 483C595.388 483 735.136 374.877 735.136 241.5C735.136 108.123 595.388 0 423.001 0C250.613 0 110.865 108.123 110.865 241.5C110.865 374.877 250.613 483 423.001 483Z" fill="url(#paint50_radial_2_10490)"/>
</g>
<defs>
<radialGradient id="paint0_radial_2_10490" cx="0" cy="0" r="1" gradientUnits="userSpaceOnUse" gradientTransform="translate(423 241.5) scale(419.667 425.94)">
<stop stop-color="#201070"/>
<stop offset="1" stop-color="#0D0542"/>
</radialGradient>
<linearGradient id="paint1_linear_2_10490" x1="430.524" y1="466.973" x2="414.83" y2="10.8478" gradientUnits="userSpaceOnUse">
<stop stop-color="#5E56EF"/>
<stop offset="1" stop-color="#160A58" stop-opacity="0"/>
</linearGradient>
<linearGradient id="paint2_linear_2_10490" x1="422.999" y1="14.6307" x2="422.999" y2="342.653" gradientUnits="userSpaceOnUse">
<stop stop-color="#5E56EF"/>
<stop offset="1" stop-color="#160A58" stop-opacity="0"/>
</linearGradient>
<linearGradient id="paint3_linear_2_10490" x1="422.999" y1="485.269" x2="422.999" y2="180.078" gradientUnits="userSpaceOnUse">
<stop stop-color="#5E56EF"/>
<stop offset="1" stop-color="#160A58" stop-opacity="0"/>
</linearGradient>
<linearGradient id="paint4_linear_2_10490" x1="422.999" y1="-33.6103" x2="422.999" y2="272.667" gradientUnits="userSpaceOnUse">
<stop stop-color="#5E56EF"/>
<stop offset="1" stop-color="#160A58" stop-opacity="0"/>
</linearGradient>
<linearGradient id="paint5_linear_2_10490" x1="422.999" y1="468.651" x2="422.999" y2="256.909" gradientUnits="userSpaceOnUse">
<stop stop-color="#5E56EF"/>
<stop offset="1" stop-color="#160A58" stop-opacity="0"/>
</linearGradient>
<linearGradient id="paint6_linear_2_10490" x1="675.77" y1="226.909" x2="183.886" y2="498.957" gradientUnits="userSpaceOnUse">
<stop stop-color="#4583FF"/>
<stop offset="1" stop-color="#FF88C7"/>
</linearGradient>
<linearGradient id="paint7_linear_2_10490" x1="703.556" y1="214.372" x2="211.672" y2="486.421" gradientUnits="userSpaceOnUse">
<stop stop-color="#4583FF"/>
<stop offset="1" stop-color="#FF88C7"/>
</linearGradient>
<linearGradient id="paint8_linear_2_10490" x1="868.576" y1="219.406" x2="376.705" y2="491.454" gradientUnits="userSpaceOnUse">
<stop stop-color="#4583FF"/>
<stop offset="1" stop-color="#FF88C7"/>
</linearGradient>
<linearGradient id="paint9_linear_2_10490" x1="613.836" y1="328.224" x2="121.941" y2="600.288" gradientUnits="userSpaceOnUse">
<stop stop-color="#4583FF"/>
<stop offset="1" stop-color="#FF88C7"/>
</linearGradient>
<linearGradient id="paint10_linear_2_10490" x1="624.787" y1="343.096" x2="132.902" y2="615.157" gradientUnits="userSpaceOnUse">
<stop stop-color="#4583FF"/>
<stop offset="1" stop-color="#FF88C7"/>
</linearGradient>
<linearGradient id="paint11_linear_2_10490" x1="698.133" y1="309.916" x2="206.251" y2="581.966" gradientUnits="userSpaceOnUse">
<stop stop-color="#4583FF"/>
<stop offset="1" stop-color="#FF88C7"/>
</linearGradient>
<linearGradient id="paint12_linear_2_10490" x1="674.987" y1="250.614" x2="183.106" y2="522.657" gradientUnits="userSpaceOnUse">
<stop stop-color="#4583FF"/>
<stop offset="1" stop-color="#FF88C7"/>
</linearGradient>
<linearGradient id="paint13_linear_2_10490" x1="227.866" y1="6.04004" x2="-264.017" y2="278.086" gradientUnits="userSpaceOnUse">
<stop stop-color="#4583FF"/>
<stop offset="1" stop-color="#FF88C7"/>
</linearGradient>
<linearGradient id="paint14_linear_2_10490" x1="763.478" y1="264.869" x2="271.606" y2="536.917" gradientUnits="userSpaceOnUse">
<stop stop-color="#4583FF"/>
<stop offset="1" stop-color="#FF88C7"/>
</linearGradient>
<linearGradient id="paint15_linear_2_10490" x1="782.138" y1="298.6" x2="290.253" y2="570.661" gradientUnits="userSpaceOnUse">
<stop stop-color="#4583FF"/>
<stop offset="1" stop-color="#FF88C7"/>
</linearGradient>
<linearGradient id="paint16_linear_2_10490" x1="730.666" y1="179.662" x2="238.781" y2="451.71" gradientUnits="userSpaceOnUse">
<stop stop-color="#4583FF"/>
<stop offset="1" stop-color="#FF88C7"/>
</linearGradient>
<linearGradient id="paint17_linear_2_10490" x1="796.235" y1="193.407" x2="304.364" y2="465.468" gradientUnits="userSpaceOnUse">
<stop stop-color="#4583FF"/>
<stop offset="1" stop-color="#FF88C7"/>
</linearGradient>
<linearGradient id="paint18_linear_2_10490" x1="196.246" y1="376.558" x2="-295.626" y2="648.62" gradientUnits="userSpaceOnUse">
<stop stop-color="#4583FF"/>
<stop offset="1" stop-color="#FF88C7"/>
</linearGradient>
<linearGradient id="paint19_linear_2_10490" x1="126.273" y1="167.595" x2="-365.611" y2="439.655" gradientUnits="userSpaceOnUse">
<stop stop-color="#4583FF"/>
<stop offset="1" stop-color="#FF88C7"/>
</linearGradient>
<linearGradient id="paint20_linear_2_10490" x1="105.681" y1="195.138" x2="-386.213" y2="467.2" gradientUnits="userSpaceOnUse">
<stop stop-color="#4583FF"/>
<stop offset="1" stop-color="#FF88C7"/>
</linearGradient>
<linearGradient id="paint21_linear_2_10490" x1="822.155" y1="88.8175" x2="330.263" y2="360.869" gradientUnits="userSpaceOnUse">
<stop stop-color="#4583FF"/>
<stop offset="1" stop-color="#FF88C7"/>
</linearGradient>
<linearGradient id="paint22_linear_2_10490" x1="796.831" y1="256.48" x2="304.946" y2="528.541" gradientUnits="userSpaceOnUse">
<stop stop-color="#4583FF"/>
<stop offset="1" stop-color="#FF88C7"/>
</linearGradient>
<linearGradient id="paint23_linear_2_10490" x1="823.849" y1="224.024" x2="331.964" y2="496.072" gradientUnits="userSpaceOnUse">
<stop stop-color="#4583FF"/>
<stop offset="1" stop-color="#FF88C7"/>
</linearGradient>
<linearGradient id="paint24_linear_2_10490" x1="794.541" y1="70.1331" x2="302.663" y2="342.172" gradientUnits="userSpaceOnUse">
<stop stop-color="#4583FF"/>
<stop offset="1" stop-color="#FF88C7"/>
</linearGradient>
<linearGradient id="paint25_linear_2_10490" x1="563.277" y1="-6.25374" x2="71.3826" y2="265.796" gradientUnits="userSpaceOnUse">
<stop stop-color="#4583FF"/>
<stop offset="1" stop-color="#FF88C7"/>
</linearGradient>
<linearGradient id="paint26_linear_2_10490" x1="648.815" y1="-14.2277" x2="156.935" y2="257.83" gradientUnits="userSpaceOnUse">
<stop stop-color="#4583FF"/>
<stop offset="1" stop-color="#FF88C7"/>
</linearGradient>
<linearGradient id="paint27_linear_2_10490" x1="670.691" y1="48.1602" x2="178.806" y2="320.209" gradientUnits="userSpaceOnUse">
<stop stop-color="#4583FF"/>
<stop offset="1" stop-color="#FF88C7"/>
</linearGradient>
<linearGradient id="paint28_linear_2_10490" x1="594.515" y1="-89.5956" x2="102.646" y2="182.454" gradientUnits="userSpaceOnUse">
<stop stop-color="#4583FF"/>
<stop offset="1" stop-color="#FF88C7"/>
</linearGradient>
<linearGradient id="paint29_linear_2_10490" x1="682.197" y1="117.891" x2="190.315" y2="389.954" gradientUnits="userSpaceOnUse">
<stop stop-color="#4583FF"/>
<stop offset="1" stop-color="#FF88C7"/>
</linearGradient>
<linearGradient id="paint30_linear_2_10490" x1="654.967" y1="62.6574" x2="163.098" y2="334.707" gradientUnits="userSpaceOnUse">
<stop stop-color="#4583FF"/>
<stop offset="1" stop-color="#FF88C7"/>
</linearGradient>
<linearGradient id="paint31_linear_2_10490" x1="802.36" y1="-84.3191" x2="310.478" y2="187.731" gradientUnits="userSpaceOnUse">
<stop stop-color="#4583FF"/>
<stop offset="1" stop-color="#FF88C7"/>
</linearGradient>
<linearGradient id="paint32_linear_2_10490" x1="672.054" y1="116.296" x2="180.172" y2="388.346" gradientUnits="userSpaceOnUse">
<stop stop-color="#4583FF"/>
<stop offset="1" stop-color="#FF88C7"/>
</linearGradient>
<linearGradient id="paint33_linear_2_10490" x1="659.143" y1="96.6183" x2="167.25" y2="368.679" gradientUnits="userSpaceOnUse">
<stop stop-color="#4583FF"/>
<stop offset="1" stop-color="#FF88C7"/>
</linearGradient>
<linearGradient id="paint34_linear_2_10490" x1="608.347" y1="55.344" x2="116.466" y2="327.405" gradientUnits="userSpaceOnUse">
<stop stop-color="#4583FF"/>
<stop offset="1" stop-color="#FF88C7"/>
</linearGradient>
<linearGradient id="paint35_linear_2_10490" x1="548.518" y1="151.474" x2="56.6343" y2="423.521" gradientUnits="userSpaceOnUse">
<stop stop-color="#4583FF"/>
<stop offset="1" stop-color="#FF88C7"/>
</linearGradient>
<linearGradient id="paint36_linear_2_10490" x1="1155.36" y1="150.172" x2="663.463" y2="422.233" gradientUnits="userSpaceOnUse">
<stop stop-color="#4583FF"/>
<stop offset="1" stop-color="#FF88C7"/>
</linearGradient>
<linearGradient id="paint37_linear_2_10490" x1="1219.92" y1="35.086" x2="728.026" y2="307.148" gradientUnits="userSpaceOnUse">
<stop stop-color="#4583FF"/>
<stop offset="1" stop-color="#FF88C7"/>
</linearGradient>
<linearGradient id="paint38_linear_2_10490" x1="1115.53" y1="-88.9525" x2="623.642" y2="183.096" gradientUnits="userSpaceOnUse">
<stop stop-color="#4583FF"/>
<stop offset="1" stop-color="#FF88C7"/>
</linearGradient>
<linearGradient id="paint39_linear_2_10490" x1="1033.16" y1="-205.916" x2="541.291" y2="66.1333" gradientUnits="userSpaceOnUse">
<stop stop-color="#4583FF"/>
<stop offset="1" stop-color="#FF88C7"/>
</linearGradient>
<linearGradient id="paint40_linear_2_10490" x1="998.539" y1="-185.408" x2="506.654" y2="86.6407" gradientUnits="userSpaceOnUse">
<stop stop-color="#4583FF"/>
<stop offset="1" stop-color="#FF88C7"/>
</linearGradient>
<linearGradient id="paint41_linear_2_10490" x1="881.074" y1="-180.225" x2="389.191" y2="91.8242" gradientUnits="userSpaceOnUse">
<stop stop-color="#4583FF"/>
<stop offset="1" stop-color="#FF88C7"/>
</linearGradient>
<linearGradient id="paint42_linear_2_10490" x1="1091.11" y1="168.494" x2="599.216" y2="440.542" gradientUnits="userSpaceOnUse">
<stop stop-color="#4583FF"/>
<stop offset="1" stop-color="#FF88C7"/>
</linearGradient>
<linearGradient id="paint43_linear_2_10490" x1="723.255" y1="192.158" x2="231.374" y2="464.201" gradientUnits="userSpaceOnUse">
<stop stop-color="#4583FF"/>
<stop offset="1" stop-color="#FF88C7"/>
</linearGradient>
<linearGradient id="paint44_linear_2_10490" x1="670.93" y1="-122.683" x2="179.059" y2="149.365" gradientUnits="userSpaceOnUse">
<stop stop-color="#4583FF"/>
<stop offset="1" stop-color="#FF88C7"/>
</linearGradient>
<linearGradient id="paint45_linear_2_10490" x1="581.923" y1="-37.1382" x2="90.0431" y2="234.909" gradientUnits="userSpaceOnUse">
<stop stop-color="#4583FF"/>
<stop offset="1" stop-color="#FF88C7"/>
</linearGradient>
<linearGradient id="paint46_linear_2_10490" x1="522.095" y1="-76.9661" x2="30.1977" y2="195.081" gradientUnits="userSpaceOnUse">
<stop stop-color="#4583FF"/>
<stop offset="1" stop-color="#FF88C7"/>
</linearGradient>
<linearGradient id="paint47_linear_2_10490" x1="590.667" y1="-101.57" x2="98.7952" y2="170.492" gradientUnits="userSpaceOnUse">
<stop stop-color="#4583FF"/>
<stop offset="1" stop-color="#FF88C7"/>
</linearGradient>
<linearGradient id="paint48_linear_2_10490" x1="567.813" y1="-88.9229" x2="75.9192" y2="183.125" gradientUnits="userSpaceOnUse">
<stop stop-color="#4583FF"/>
<stop offset="1" stop-color="#FF88C7"/>
</linearGradient>
<linearGradient id="paint49_linear_2_10490" x1="423" y1="288.063" x2="423" y2="476.047" gradientUnits="userSpaceOnUse">
<stop stop-color="#201070" stop-opacity="0"/>
<stop offset="1"/>
</linearGradient>
<radialGradient id="paint50_radial_2_10490" cx="0" cy="0" r="1" gradientUnits="userSpaceOnUse" gradientTransform="translate(420.652 240.068) scale(295.889 190.338)">
<stop stop-color="#5E56EF"/>
<stop offset="0.1" stop-color="#564EDF" stop-opacity="0.9"/>
<stop offset="1" stop-color="#160A58" stop-opacity="0"/>
</radialGradient>
</defs>
</svg>
