<svg width="354" height="315" viewBox="0 0 354 315" fill="none" xmlns="http://www.w3.org/2000/svg">
<rect width="354" height="315" fill="#2A3948"/>
<g style="mix-blend-mode:luminosity" opacity="0.5">
<mask id="mask0_230_8414" style="mask-type:alpha" maskUnits="userSpaceOnUse" x="0" y="0" width="354" height="315">
<rect width="354" height="315" fill="#D9D9D9"/>
</mask>
<g mask="url(#mask0_230_8414)">
<path d="M451.737 0H-100V314.99H451.737V0Z" fill="url(#paint0_radial_230_8414)"/>
<mask id="mask1_230_8414" style="mask-type:luminance" maskUnits="userSpaceOnUse" x="-100" y="0" width="552" height="315">
<path d="M451.737 0H-100V314.99H451.737V0Z" fill="white"/>
</mask>
<g mask="url(#mask1_230_8414)">
<path style="mix-blend-mode:lighten" d="M175.868 -161.36C2.36013 -161.36 -138.295 -18.6021 -138.295 157.499C-138.295 333.601 2.36013 476.359 175.868 476.359C349.376 476.359 490.032 333.601 490.032 157.499C490.032 -18.6021 349.376 -161.36 175.868 -161.36ZM175.868 431.329C26.8636 431.329 -93.9287 308.731 -93.9287 157.499C-93.9287 6.26765 26.8636 -116.33 175.868 -116.33C324.873 -116.33 445.665 6.26765 445.665 157.499C445.665 308.731 324.873 431.329 175.868 431.329Z" fill="url(#paint1_linear_230_8414)"/>
<path style="mix-blend-mode:lighten" d="M175.868 -116.286C26.8893 -116.286 -93.8857 6.294 -93.8857 157.5C-93.8857 308.705 26.8893 431.285 175.868 431.285C324.847 431.285 445.622 308.705 445.622 157.5C445.622 6.294 324.847 -116.286 175.868 -116.286ZM175.868 384.592C52.2984 384.592 -47.8803 282.916 -47.8803 157.5C-47.8803 32.0829 52.2984 -69.5933 175.868 -69.5933C299.437 -69.5933 399.616 32.0829 399.616 157.5C399.616 282.916 299.437 384.592 175.868 384.592Z" fill="url(#paint2_linear_230_8414)"/>
<path style="mix-blend-mode:lighten" d="M175.868 -69.0854C52.5746 -69.0854 -47.3799 32.3631 -47.3799 157.5C-47.3799 282.636 52.5746 384.085 175.868 384.085C299.162 384.085 399.116 282.636 399.116 157.5C399.116 32.3631 299.162 -69.0854 175.868 -69.0854ZM175.868 345.436C73.6022 345.436 -9.30077 261.294 -9.30077 157.5C-9.30077 53.705 73.6022 -30.4371 175.868 -30.4371C278.134 -30.4371 361.037 53.705 361.037 157.5C361.037 261.294 278.134 345.436 175.868 345.436Z" fill="url(#paint3_linear_230_8414)"/>
<path style="mix-blend-mode:lighten" d="M175.868 -30.3235C73.6627 -30.3235 -9.18848 53.7661 -9.18848 157.499C-9.18848 261.233 73.6627 345.322 175.868 345.322C278.074 345.322 360.925 261.233 360.925 157.499C360.925 53.7661 278.074 -30.3235 175.868 -30.3235ZM175.868 308.6C93.6467 308.6 27.0018 240.95 27.0018 157.508C27.0018 74.0664 93.6553 6.41649 175.868 6.41649C258.081 6.41649 324.735 74.0664 324.735 157.508C324.735 240.95 258.081 308.6 175.868 308.6Z" fill="url(#paint4_linear_230_8414)"/>
<path style="mix-blend-mode:lighten" d="M175.868 6.09253C93.4825 6.09253 26.6909 73.8825 26.6909 157.499C26.6909 241.116 93.4825 308.906 175.868 308.906C258.253 308.906 325.045 241.116 325.045 157.499C325.045 73.8825 258.253 6.09253 175.868 6.09253ZM175.868 279.292C109.594 279.292 55.8605 224.764 55.8605 157.491C55.8605 90.2172 109.585 35.6894 175.868 35.6894C242.151 35.6894 295.875 90.2172 295.875 157.491C295.875 224.764 242.151 279.292 175.868 279.292Z" fill="url(#paint5_linear_230_8414)"/>
</g>
<path d="M153.048 254.414H150.831V256.663H153.048V254.414Z" fill="url(#paint6_linear_230_8414)"/>
<path d="M184.089 238.875H181.873V241.125H184.089V238.875Z" fill="url(#paint7_linear_230_8414)"/>
<path d="M355.087 206.048H352.87V208.298H355.087V206.048Z" fill="url(#paint8_linear_230_8414)"/>
<path d="M211.61 264.113H209.394V266.363H211.61V264.113Z" fill="url(#paint9_linear_230_8414)"/>
<path d="M218.752 273.812H216.535V276.062H218.752V273.812Z" fill="url(#paint10_linear_230_8414)"/>
<path d="M266.586 252.164H264.37V254.414H266.586V252.164Z" fill="url(#paint11_linear_230_8414)"/>
<path d="M230.655 225.359H228.438V227.609H230.655V225.359Z" fill="url(#paint12_linear_230_8414)"/>
<path d="M325.736 213.367H323.52V215.616H325.736V213.367Z" fill="url(#paint13_linear_230_8414)"/>
<path d="M349.55 228.739H347.333V230.988H349.55V228.739Z" fill="url(#paint14_linear_230_8414)"/>
<path d="M345.824 134.162H343.607V136.412H345.824V134.162Z" fill="url(#paint15_linear_230_8414)"/>
<path d="M1.0672 260.427H-1.14941V262.677H1.0672V260.427Z" fill="url(#paint16_linear_230_8414)"/>
<path d="M114.183 82.689H111.966V84.9387H114.183V82.689Z" fill="url(#paint17_linear_230_8414)"/>
<path d="M214.698 52.0068H212.482V54.2566H214.698V52.0068Z" fill="url(#paint18_linear_230_8414)"/>
<path d="M273.236 67.4661H271.019V69.7158H273.236V67.4661Z" fill="url(#paint19_linear_230_8414)"/>
<path d="M93.0091 52.0068H90.7925V54.2566H93.0091V52.0068Z" fill="url(#paint20_linear_230_8414)"/>
<path d="M318.638 91.364H316.421V93.6137H318.638V91.364Z" fill="url(#paint21_linear_230_8414)"/>
<path d="M252.873 82.689H250.656V84.9387H252.873V82.689Z" fill="url(#paint22_linear_230_8414)"/>
<path d="M180.76 82.689H178.543V84.9387H180.76V82.689Z" fill="url(#paint23_linear_230_8414)"/>
<path d="M67.0911 229.868H64.8745V232.118H67.0911V229.868Z" fill="url(#paint24_linear_230_8414)"/>
<path d="M51.0313 221.385H48.8147V223.635H51.0313V221.385Z" fill="url(#paint25_linear_230_8414)"/>
<path d="M353.974 97.3342H351.757V99.584H353.974V97.3342Z" fill="url(#paint26_linear_230_8414)"/>
<path d="M300.266 21.053H298.05V23.3027H300.266V21.053Z" fill="url(#paint27_linear_230_8414)"/>
<path d="M277.678 34.4377H275.461V36.6875H277.678V34.4377Z" fill="url(#paint28_linear_230_8414)"/>
<path d="M201.079 37.8079H198.863V40.0576H201.079V37.8079Z" fill="url(#paint29_linear_230_8414)"/>
<path d="M338.044 265.242H335.828V267.492H338.044V265.242Z" fill="url(#paint30_linear_230_8414)"/>
<path d="M106.239 276.062H104.023V278.312H106.239V276.062Z" fill="url(#paint31_linear_230_8414)"/>
<path d="M135.824 34.4377H133.607V36.6875H135.824V34.4377Z" fill="url(#paint32_linear_230_8414)"/>
<path d="M30.202 78.5574H27.9854V80.8071H30.202V78.5574Z" fill="url(#paint33_linear_230_8414)"/>
<path d="M7.28594 91.364H5.06934V93.6137H7.28594V91.364Z" fill="url(#paint34_linear_230_8414)"/>
<mask id="mask2_230_8414" style="mask-type:luminance" maskUnits="userSpaceOnUse" x="-100" y="0" width="552" height="315">
<path d="M451.737 0H-100V314.99H451.737V0Z" fill="white"/>
</mask>
<g mask="url(#mask2_230_8414)">
<path d="M90.7924 252.234C97.4469 252.234 102.841 246.759 102.841 240.005C102.841 233.251 97.4469 227.776 90.7924 227.776C84.1379 227.776 78.7434 233.251 78.7434 240.005C78.7434 246.759 84.1379 252.234 90.7924 252.234Z" stroke="#4583FF" stroke-width="0.5" stroke-miterlimit="10"/>
<path d="M27.5969 18.3218C34.2514 18.3218 39.6459 12.8466 39.6459 6.09266C39.6459 -0.66131 34.2514 -6.13647 27.5969 -6.13647C20.9424 -6.13647 15.5479 -0.66131 15.5479 6.09266C15.5479 12.8466 20.9424 18.3218 27.5969 18.3218Z" stroke="#4583FF" stroke-width="0.5" stroke-miterlimit="10"/>
<path d="M212.482 98.91C216.588 98.91 219.916 95.5317 219.916 91.3642C219.916 87.1968 216.588 83.8184 212.482 83.8184C208.376 83.8184 205.047 87.1968 205.047 91.3642C205.047 95.5317 208.376 98.91 212.482 98.91Z" stroke="#4583FF" stroke-width="0.5" stroke-miterlimit="10"/>
<path d="M310.59 292.747C314.697 292.747 318.025 289.369 318.025 285.201C318.025 281.034 314.697 277.655 310.59 277.655C306.484 277.655 303.156 281.034 303.156 285.201C303.156 289.369 306.484 292.747 310.59 292.747Z" stroke="#4583FF" stroke-width="0.5" stroke-miterlimit="10"/>
<path d="M353.559 269.925C353.863 269.925 354.111 269.675 354.111 269.365C354.111 269.056 353.863 268.805 353.559 268.805C353.254 268.805 353.007 269.056 353.007 269.365C353.007 269.675 353.254 269.925 353.559 269.925Z" fill="#FF88C7"/>
<path d="M354.111 275.003C354.111 274.696 353.86 274.442 353.559 274.442C353.257 274.442 353.007 274.688 353.007 275.003C353.007 275.318 353.257 275.563 353.559 275.563C353.86 275.563 354.111 275.318 354.111 275.003Z" fill="#FF88C7"/>
<path d="M353.559 281.209C353.863 281.209 354.111 280.958 354.111 280.649C354.111 280.339 353.863 280.089 353.559 280.089C353.254 280.089 353.007 280.339 353.007 280.649C353.007 280.958 353.254 281.209 353.559 281.209Z" fill="#FF88C7"/>
<path d="M124.239 222.488C124.544 222.488 124.791 222.238 124.791 221.928C124.791 221.619 124.544 221.368 124.239 221.368C123.934 221.368 123.687 221.619 123.687 221.928C123.687 222.238 123.934 222.488 124.239 222.488Z" fill="white"/>
<path d="M130.406 222.488C130.711 222.488 130.958 222.238 130.958 221.928C130.958 221.619 130.711 221.368 130.406 221.368C130.101 221.368 129.854 221.619 129.854 221.928C129.854 222.238 130.101 222.488 130.406 222.488Z" fill="white"/>
<path d="M136.581 222.488C136.885 222.488 137.133 222.238 137.133 221.928C137.133 221.619 136.885 221.368 136.581 221.368C136.276 221.368 136.029 221.619 136.029 221.928C136.029 222.238 136.276 222.488 136.581 222.488Z" fill="white"/>
<path d="M124.239 228.126C124.543 228.126 124.791 227.875 124.791 227.566C124.791 227.256 124.543 227.006 124.239 227.006C123.934 227.006 123.687 227.256 123.687 227.566C123.687 227.875 123.934 228.126 124.239 228.126Z" fill="white"/>
<path d="M130.406 228.126C130.711 228.126 130.958 227.875 130.958 227.566C130.958 227.256 130.711 227.006 130.406 227.006C130.101 227.006 129.854 227.256 129.854 227.566C129.854 227.875 130.101 228.126 130.406 228.126Z" fill="white"/>
<path d="M136.58 228.126C136.885 228.126 137.132 227.875 137.132 227.566C137.132 227.256 136.885 227.006 136.58 227.006C136.275 227.006 136.028 227.256 136.028 227.566C136.028 227.875 136.275 228.126 136.58 228.126Z" fill="white"/>
<path d="M124.239 233.764C124.543 233.764 124.791 233.513 124.791 233.203C124.791 232.894 124.543 232.643 124.239 232.643C123.934 232.643 123.687 232.894 123.687 233.203C123.687 233.513 123.934 233.764 124.239 233.764Z" fill="white"/>
<path d="M130.406 233.764C130.711 233.764 130.958 233.513 130.958 233.203C130.958 232.894 130.711 232.643 130.406 232.643C130.101 232.643 129.854 232.894 129.854 233.203C129.854 233.513 130.101 233.764 130.406 233.764Z" fill="white"/>
<path d="M136.58 233.764C136.885 233.764 137.132 233.513 137.132 233.203C137.132 232.894 136.885 232.643 136.58 232.643C136.275 232.643 136.028 232.894 136.028 233.203C136.028 233.513 136.275 233.764 136.58 233.764Z" fill="white"/>
<path d="M245.697 26.9006C245.697 26.5942 245.447 26.3403 245.145 26.3403C244.843 26.3403 244.593 26.5854 244.593 26.9006C244.593 27.2157 244.843 27.4608 245.145 27.4608C245.447 27.4608 245.697 27.2157 245.697 26.9006Z" fill="white"/>
<path d="M251.321 27.4608C251.625 27.4608 251.873 27.21 251.873 26.9006C251.873 26.5912 251.625 26.3403 251.321 26.3403C251.016 26.3403 250.769 26.5912 250.769 26.9006C250.769 27.21 251.016 27.4608 251.321 27.4608Z" fill="white"/>
<path d="M257.487 27.4608C257.792 27.4608 258.039 27.21 258.039 26.9006C258.039 26.5912 257.792 26.3403 257.487 26.3403C257.182 26.3403 256.935 26.5912 256.935 26.9006C256.935 27.21 257.182 27.4608 257.487 27.4608Z" fill="white"/>
<path d="M245.697 32.5468C245.697 32.2404 245.447 31.9866 245.145 31.9866C244.843 31.9866 244.593 32.2317 244.593 32.5468C244.593 32.862 244.843 33.1071 245.145 33.1071C245.447 33.1071 245.697 32.862 245.697 32.5468Z" fill="white"/>
<path d="M251.873 32.5468C251.873 32.2404 251.622 31.9866 251.321 31.9866C251.019 31.9866 250.769 32.2317 250.769 32.5468C250.769 32.862 251.019 33.1071 251.321 33.1071C251.622 33.1071 251.873 32.862 251.873 32.5468Z" fill="white"/>
<path d="M258.039 32.5468C258.039 32.2404 257.789 31.9866 257.487 31.9866C257.185 31.9866 256.935 32.2317 256.935 32.5468C256.935 32.862 257.185 33.1071 257.487 33.1071C257.789 33.1071 258.039 32.862 258.039 32.5468Z" fill="white"/>
<path d="M245.697 38.1843C245.697 37.8779 245.447 37.624 245.145 37.624C244.843 37.624 244.593 37.8691 244.593 38.1843C244.593 38.4994 244.843 38.7445 245.145 38.7445C245.447 38.7445 245.697 38.4994 245.697 38.1843Z" fill="white"/>
<path d="M251.321 38.7445C251.625 38.7445 251.873 38.4937 251.873 38.1843C251.873 37.8749 251.625 37.624 251.321 37.624C251.016 37.624 250.769 37.8749 250.769 38.1843C250.769 38.4937 251.016 38.7445 251.321 38.7445Z" fill="white"/>
<path d="M257.487 38.7445C257.792 38.7445 258.039 38.4937 258.039 38.1843C258.039 37.8749 257.792 37.624 257.487 37.624C257.182 37.624 256.935 37.8749 256.935 38.1843C256.935 38.4937 257.182 38.7445 257.487 38.7445Z" fill="white"/>
<path d="M21.0593 93.7013C21.0593 93.395 20.8092 93.1411 20.5073 93.1411C20.2054 93.1411 19.9553 93.3862 19.9553 93.7013C19.9553 94.0165 20.2054 94.2616 20.5073 94.2616C20.8092 94.2616 21.0593 94.0165 21.0593 93.7013Z" fill="#FF88C7"/>
<path d="M27.2346 93.7013C27.2346 93.395 26.9845 93.1411 26.6826 93.1411C26.3807 93.1411 26.1306 93.3862 26.1306 93.7013C26.1306 94.0165 26.3807 94.2616 26.6826 94.2616C26.9845 94.2616 27.2346 94.0165 27.2346 93.7013Z" fill="#FF88C7"/>
<path d="M33.4011 93.7013C33.4011 93.395 33.151 93.1411 32.8491 93.1411C32.5472 93.1411 32.2971 93.3862 32.2971 93.7013C32.2971 94.0165 32.5472 94.2616 32.8491 94.2616C33.151 94.2616 33.4011 94.0165 33.4011 93.7013Z" fill="#FF88C7"/>
<path d="M39.0251 94.2616C39.33 94.2616 39.5771 94.0108 39.5771 93.7013C39.5771 93.3919 39.33 93.1411 39.0251 93.1411C38.7203 93.1411 38.4731 93.3919 38.4731 93.7013C38.4731 94.0108 38.7203 94.2616 39.0251 94.2616Z" fill="#FF88C7"/>
<path d="M45.7524 93.7013C45.7524 93.395 45.5023 93.1411 45.2004 93.1411C44.8986 93.1411 44.6484 93.3862 44.6484 93.7013C44.6484 94.0165 44.8986 94.2616 45.2004 94.2616C45.5023 94.2616 45.7524 94.0165 45.7524 93.7013Z" fill="#FF88C7"/>
<path d="M51.3677 94.2616C51.6725 94.2616 51.9197 94.0108 51.9197 93.7013C51.9197 93.3919 51.6725 93.1411 51.3677 93.1411C51.0628 93.1411 50.8157 93.3919 50.8157 93.7013C50.8157 94.0108 51.0628 94.2616 51.3677 94.2616Z" fill="#FF88C7"/>
<path d="M58.0954 93.7013C58.0954 93.395 57.8453 93.1411 57.5435 93.1411C57.2416 93.1411 56.9915 93.3862 56.9915 93.7013C56.9915 94.0165 57.2416 94.2616 57.5435 94.2616C57.8453 94.2616 58.0954 94.0165 58.0954 93.7013Z" fill="#FF88C7"/>
<path d="M63.7092 94.2616C64.0141 94.2616 64.2612 94.0108 64.2612 93.7013C64.2612 93.3919 64.0141 93.1411 63.7092 93.1411C63.4044 93.1411 63.1572 93.3919 63.1572 93.7013C63.1572 94.0108 63.4044 94.2616 63.7092 94.2616Z" fill="#FF88C7"/>
<path d="M69.8852 94.2616C70.1901 94.2616 70.4372 94.0108 70.4372 93.7013C70.4372 93.3919 70.1901 93.1411 69.8852 93.1411C69.5804 93.1411 69.3333 93.3919 69.3333 93.7013C69.3333 94.0108 69.5804 94.2616 69.8852 94.2616Z" fill="#FF88C7"/>
<path d="M21.0593 99.3476C21.0593 99.0412 20.8092 98.7874 20.5073 98.7874C20.2054 98.7874 19.9553 99.0325 19.9553 99.3476C19.9553 99.6628 20.2054 99.9078 20.5073 99.9078C20.8092 99.9078 21.0593 99.6628 21.0593 99.3476Z" fill="#FF88C7"/>
<path d="M27.2346 99.3476C27.2346 99.0412 26.9845 98.7874 26.6826 98.7874C26.3807 98.7874 26.1306 99.0325 26.1306 99.3476C26.1306 99.6628 26.3807 99.9078 26.6826 99.9078C26.9845 99.9078 27.2346 99.6628 27.2346 99.3476Z" fill="#FF88C7"/>
<path d="M33.4011 99.3476C33.4011 99.0412 33.151 98.7874 32.8491 98.7874C32.5472 98.7874 32.2971 99.0325 32.2971 99.3476C32.2971 99.6628 32.5472 99.9078 32.8491 99.9078C33.151 99.9078 33.4011 99.6628 33.4011 99.3476Z" fill="#FF88C7"/>
<path d="M39.5771 99.3476C39.5771 99.0412 39.327 98.7874 39.0251 98.7874C38.7233 98.7874 38.4731 99.0325 38.4731 99.3476C38.4731 99.6628 38.7233 99.9078 39.0251 99.9078C39.327 99.9078 39.5771 99.6628 39.5771 99.3476Z" fill="#FF88C7"/>
<path d="M45.7524 99.3476C45.7524 99.0412 45.5023 98.7874 45.2004 98.7874C44.8986 98.7874 44.6484 99.0325 44.6484 99.3476C44.6484 99.6628 44.8986 99.9078 45.2004 99.9078C45.5023 99.9078 45.7524 99.6628 45.7524 99.3476Z" fill="#FF88C7"/>
<path d="M51.9197 99.3476C51.9197 99.0412 51.6695 98.7874 51.3677 98.7874C51.0658 98.7874 50.8157 99.0325 50.8157 99.3476C50.8157 99.6628 51.0658 99.9078 51.3677 99.9078C51.6695 99.9078 51.9197 99.6628 51.9197 99.3476Z" fill="#FF88C7"/>
<path d="M58.0954 99.3476C58.0954 99.0412 57.8453 98.7874 57.5435 98.7874C57.2416 98.7874 56.9915 99.0325 56.9915 99.3476C56.9915 99.6628 57.2416 99.9078 57.5435 99.9078C57.8453 99.9078 58.0954 99.6628 58.0954 99.3476Z" fill="#FF88C7"/>
<path d="M64.2612 99.3476C64.2612 99.0412 64.0111 98.7874 63.7092 98.7874C63.4073 98.7874 63.1572 99.0325 63.1572 99.3476C63.1572 99.6628 63.4073 99.9078 63.7092 99.9078C64.0111 99.9078 64.2612 99.6628 64.2612 99.3476Z" fill="#FF88C7"/>
<path d="M70.4372 99.3476C70.4372 99.0412 70.1871 98.7874 69.8852 98.7874C69.5834 98.7874 69.3333 99.0325 69.3333 99.3476C69.3333 99.6628 69.5834 99.9078 69.8852 99.9078C70.1871 99.9078 70.4372 99.6628 70.4372 99.3476Z" fill="#FF88C7"/>
<path d="M21.0593 104.985C21.0593 104.679 20.8092 104.425 20.5073 104.425C20.2054 104.425 19.9553 104.67 19.9553 104.985C19.9553 105.3 20.2054 105.545 20.5073 105.545C20.8092 105.545 21.0593 105.3 21.0593 104.985Z" fill="#FF88C7"/>
<path d="M27.2346 104.985C27.2346 104.679 26.9845 104.425 26.6826 104.425C26.3807 104.425 26.1306 104.67 26.1306 104.985C26.1306 105.3 26.3807 105.545 26.6826 105.545C26.9845 105.545 27.2346 105.3 27.2346 104.985Z" fill="#FF88C7"/>
<path d="M33.4011 104.985C33.4011 104.679 33.151 104.425 32.8491 104.425C32.5472 104.425 32.2971 104.67 32.2971 104.985C32.2971 105.3 32.5472 105.545 32.8491 105.545C33.151 105.545 33.4011 105.3 33.4011 104.985Z" fill="#FF88C7"/>
<path d="M39.0251 105.545C39.33 105.545 39.5771 105.294 39.5771 104.985C39.5771 104.676 39.33 104.425 39.0251 104.425C38.7203 104.425 38.4731 104.676 38.4731 104.985C38.4731 105.294 38.7203 105.545 39.0251 105.545Z" fill="#FF88C7"/>
<path d="M45.7524 104.985C45.7524 104.679 45.5023 104.425 45.2004 104.425C44.8986 104.425 44.6484 104.67 44.6484 104.985C44.6484 105.3 44.8986 105.545 45.2004 105.545C45.5023 105.545 45.7524 105.3 45.7524 104.985Z" fill="#FF88C7"/>
<path d="M51.3677 105.545C51.6725 105.545 51.9197 105.294 51.9197 104.985C51.9197 104.676 51.6725 104.425 51.3677 104.425C51.0628 104.425 50.8157 104.676 50.8157 104.985C50.8157 105.294 51.0628 105.545 51.3677 105.545Z" fill="#FF88C7"/>
<path d="M58.0954 104.985C58.0954 104.679 57.8453 104.425 57.5435 104.425C57.2416 104.425 56.9915 104.67 56.9915 104.985C56.9915 105.3 57.2416 105.545 57.5435 105.545C57.8453 105.545 58.0954 105.3 58.0954 104.985Z" fill="#FF88C7"/>
<path d="M63.7092 105.545C64.0141 105.545 64.2612 105.294 64.2612 104.985C64.2612 104.676 64.0141 104.425 63.7092 104.425C63.4044 104.425 63.1572 104.676 63.1572 104.985C63.1572 105.294 63.4044 105.545 63.7092 105.545Z" fill="#FF88C7"/>
<path d="M69.8852 105.545C70.1901 105.545 70.4372 105.294 70.4372 104.985C70.4372 104.676 70.1901 104.425 69.8852 104.425C69.5804 104.425 69.3333 104.676 69.3333 104.985C69.3333 105.294 69.5804 105.545 69.8852 105.545Z" fill="#FF88C7"/>
</g>
<path style="mix-blend-mode:multiply" opacity="0.8" d="M451.737 0H-100V314.99H451.737V0Z" fill="url(#paint35_linear_230_8414)"/>
<path style="mix-blend-mode:lighten" opacity="0.9" d="M175.869 314.999C288.295 314.999 379.435 244.484 379.435 157.5C379.435 70.5149 288.295 0 175.869 0C63.4428 0 -27.6968 70.5149 -27.6968 157.5C-27.6968 244.484 63.4428 314.999 175.869 314.999Z" fill="url(#paint36_radial_230_8414)"/>
</g>
</g>
<defs>
<radialGradient id="paint0_radial_230_8414" cx="0" cy="0" r="1" gradientUnits="userSpaceOnUse" gradientTransform="translate(175.869 157.5) scale(273.695 277.786)">
<stop stop-color="#201070"/>
<stop offset="1" stop-color="#0D0542"/>
</radialGradient>
<linearGradient id="paint1_linear_230_8414" x1="180.776" y1="304.547" x2="170.541" y2="7.07453" gradientUnits="userSpaceOnUse">
<stop stop-color="#5E56EF"/>
<stop offset="1" stop-color="#160A58" stop-opacity="0"/>
</linearGradient>
<linearGradient id="paint2_linear_230_8414" x1="175.868" y1="9.54167" x2="175.868" y2="223.469" gradientUnits="userSpaceOnUse">
<stop stop-color="#5E56EF"/>
<stop offset="1" stop-color="#160A58" stop-opacity="0"/>
</linearGradient>
<linearGradient id="paint3_linear_230_8414" x1="175.868" y1="316.479" x2="175.868" y2="117.442" gradientUnits="userSpaceOnUse">
<stop stop-color="#5E56EF"/>
<stop offset="1" stop-color="#160A58" stop-opacity="0"/>
</linearGradient>
<linearGradient id="paint4_linear_230_8414" x1="175.868" y1="-21.9198" x2="175.868" y2="177.826" gradientUnits="userSpaceOnUse">
<stop stop-color="#5E56EF"/>
<stop offset="1" stop-color="#160A58" stop-opacity="0"/>
</linearGradient>
<linearGradient id="paint5_linear_230_8414" x1="175.868" y1="305.641" x2="175.868" y2="167.549" gradientUnits="userSpaceOnUse">
<stop stop-color="#5E56EF"/>
<stop offset="1" stop-color="#160A58" stop-opacity="0"/>
</linearGradient>
<linearGradient id="paint6_linear_230_8414" x1="340.718" y1="147.984" x2="19.9251" y2="325.406" gradientUnits="userSpaceOnUse">
<stop stop-color="#4583FF"/>
<stop offset="1" stop-color="#FF88C7"/>
</linearGradient>
<linearGradient id="paint7_linear_230_8414" x1="358.84" y1="139.808" x2="38.0464" y2="317.23" gradientUnits="userSpaceOnUse">
<stop stop-color="#4583FF"/>
<stop offset="1" stop-color="#FF88C7"/>
</linearGradient>
<linearGradient id="paint8_linear_230_8414" x1="466.461" y1="143.09" x2="145.676" y2="320.513" gradientUnits="userSpaceOnUse">
<stop stop-color="#4583FF"/>
<stop offset="1" stop-color="#FF88C7"/>
</linearGradient>
<linearGradient id="paint9_linear_230_8414" x1="300.327" y1="214.059" x2="-20.4736" y2="391.491" gradientUnits="userSpaceOnUse">
<stop stop-color="#4583FF"/>
<stop offset="1" stop-color="#FF88C7"/>
</linearGradient>
<linearGradient id="paint10_linear_230_8414" x1="307.468" y1="223.758" x2="-13.325" y2="401.188" gradientUnits="userSpaceOnUse">
<stop stop-color="#4583FF"/>
<stop offset="1" stop-color="#FF88C7"/>
</linearGradient>
<linearGradient id="paint11_linear_230_8414" x1="355.303" y1="202.118" x2="34.5112" y2="379.542" gradientUnits="userSpaceOnUse">
<stop stop-color="#4583FF"/>
<stop offset="1" stop-color="#FF88C7"/>
</linearGradient>
<linearGradient id="paint12_linear_230_8414" x1="340.208" y1="163.443" x2="19.4164" y2="340.862" gradientUnits="userSpaceOnUse">
<stop stop-color="#4583FF"/>
<stop offset="1" stop-color="#FF88C7"/>
</linearGradient>
<linearGradient id="paint13_linear_230_8414" x1="397.919" y1="172.74" x2="77.1341" y2="350.162" gradientUnits="userSpaceOnUse">
<stop stop-color="#4583FF"/>
<stop offset="1" stop-color="#FF88C7"/>
</linearGradient>
<linearGradient id="paint14_linear_230_8414" x1="410.088" y1="194.738" x2="89.2949" y2="372.169" gradientUnits="userSpaceOnUse">
<stop stop-color="#4583FF"/>
<stop offset="1" stop-color="#FF88C7"/>
</linearGradient>
<linearGradient id="paint15_linear_230_8414" x1="376.52" y1="117.171" x2="55.7266" y2="294.593" gradientUnits="userSpaceOnUse">
<stop stop-color="#4583FF"/>
<stop offset="1" stop-color="#FF88C7"/>
</linearGradient>
<linearGradient id="paint16_linear_230_8414" x1="27.9857" y1="245.581" x2="-292.799" y2="423.012" gradientUnits="userSpaceOnUse">
<stop stop-color="#4583FF"/>
<stop offset="1" stop-color="#FF88C7"/>
</linearGradient>
<linearGradient id="paint17_linear_230_8414" x1="267.354" y1="-4.07855" x2="-53.4463" y2="173.345" gradientUnits="userSpaceOnUse">
<stop stop-color="#4583FF"/>
<stop offset="1" stop-color="#FF88C7"/>
</linearGradient>
<linearGradient id="paint18_linear_230_8414" x1="323.139" y1="-9.27879" x2="2.34822" y2="168.149" gradientUnits="userSpaceOnUse">
<stop stop-color="#4583FF"/>
<stop offset="1" stop-color="#FF88C7"/>
</linearGradient>
<linearGradient id="paint19_linear_230_8414" x1="337.406" y1="31.4088" x2="16.6124" y2="208.831" gradientUnits="userSpaceOnUse">
<stop stop-color="#4583FF"/>
<stop offset="1" stop-color="#FF88C7"/>
</linearGradient>
<linearGradient id="paint20_linear_230_8414" x1="287.726" y1="-58.4316" x2="-33.0574" y2="118.991" gradientUnits="userSpaceOnUse">
<stop stop-color="#4583FF"/>
<stop offset="1" stop-color="#FF88C7"/>
</linearGradient>
<linearGradient id="paint21_linear_230_8414" x1="344.91" y1="76.8852" x2="24.1181" y2="254.317" gradientUnits="userSpaceOnUse">
<stop stop-color="#4583FF"/>
<stop offset="1" stop-color="#FF88C7"/>
</linearGradient>
<linearGradient id="paint22_linear_230_8414" x1="327.151" y1="40.8634" x2="6.368" y2="218.287" gradientUnits="userSpaceOnUse">
<stop stop-color="#4583FF"/>
<stop offset="1" stop-color="#FF88C7"/>
</linearGradient>
<linearGradient id="paint23_linear_230_8414" x1="423.276" y1="-54.9906" x2="102.485" y2="122.433" gradientUnits="userSpaceOnUse">
<stop stop-color="#4583FF"/>
<stop offset="1" stop-color="#FF88C7"/>
</linearGradient>
<linearGradient id="paint24_linear_230_8414" x1="338.295" y1="75.8451" x2="17.5031" y2="253.268" gradientUnits="userSpaceOnUse">
<stop stop-color="#4583FF"/>
<stop offset="1" stop-color="#FF88C7"/>
</linearGradient>
<linearGradient id="paint25_linear_230_8414" x1="329.875" y1="63.0117" x2="9.07562" y2="240.442" gradientUnits="userSpaceOnUse">
<stop stop-color="#4583FF"/>
<stop offset="1" stop-color="#FF88C7"/>
</linearGradient>
<linearGradient id="paint26_linear_230_8414" x1="627.515" y1="-58.0123" x2="306.722" y2="119.41" gradientUnits="userSpaceOnUse">
<stop stop-color="#4583FF"/>
<stop offset="1" stop-color="#FF88C7"/>
</linearGradient>
<linearGradient id="paint27_linear_230_8414" x1="573.799" y1="-134.293" x2="253.015" y2="43.1302" gradientUnits="userSpaceOnUse">
<stop stop-color="#4583FF"/>
<stop offset="1" stop-color="#FF88C7"/>
</linearGradient>
<linearGradient id="paint28_linear_230_8414" x1="551.219" y1="-120.918" x2="230.426" y2="56.5047" gradientUnits="userSpaceOnUse">
<stop stop-color="#4583FF"/>
<stop offset="1" stop-color="#FF88C7"/>
</linearGradient>
<linearGradient id="paint29_linear_230_8414" x1="474.612" y1="-117.538" x2="153.819" y2="59.8851" gradientUnits="userSpaceOnUse">
<stop stop-color="#4583FF"/>
<stop offset="1" stop-color="#FF88C7"/>
</linearGradient>
<linearGradient id="paint30_linear_230_8414" x1="611.594" y1="109.887" x2="290.792" y2="287.309" gradientUnits="userSpaceOnUse">
<stop stop-color="#4583FF"/>
<stop offset="1" stop-color="#FF88C7"/>
</linearGradient>
<linearGradient id="paint31_linear_230_8414" x1="371.687" y1="125.32" x2="50.8955" y2="302.739" gradientUnits="userSpaceOnUse">
<stop stop-color="#4583FF"/>
<stop offset="1" stop-color="#FF88C7"/>
</linearGradient>
<linearGradient id="paint32_linear_230_8414" x1="337.562" y1="-80.0106" x2="16.7771" y2="97.4117" gradientUnits="userSpaceOnUse">
<stop stop-color="#4583FF"/>
<stop offset="1" stop-color="#FF88C7"/>
</linearGradient>
<linearGradient id="paint33_linear_230_8414" x1="285.216" y1="-66.2407" x2="-35.5685" y2="111.19" gradientUnits="userSpaceOnUse">
<stop stop-color="#4583FF"/>
<stop offset="1" stop-color="#FF88C7"/>
</linearGradient>
<linearGradient id="paint34_linear_230_8414" x1="270.311" y1="-57.9931" x2="-50.4877" y2="119.429" gradientUnits="userSpaceOnUse">
<stop stop-color="#4583FF"/>
<stop offset="1" stop-color="#FF88C7"/>
</linearGradient>
<linearGradient id="paint35_linear_230_8414" x1="175.869" y1="187.867" x2="175.869" y2="310.465" gradientUnits="userSpaceOnUse">
<stop stop-color="#201070" stop-opacity="0"/>
<stop offset="1"/>
</linearGradient>
<radialGradient id="paint36_radial_230_8414" cx="0" cy="0" r="1" gradientUnits="userSpaceOnUse" gradientTransform="translate(174.337 156.565) scale(192.97 124.133)">
<stop stop-color="#5E56EF"/>
<stop offset="0.1" stop-color="#564EDF" stop-opacity="0.9"/>
<stop offset="1" stop-color="#160A58" stop-opacity="0"/>
</radialGradient>
</defs>
</svg>
