<svg width="244" height="62" viewBox="0 0 244 62" fill="none" xmlns="http://www.w3.org/2000/svg">
<path fill-rule="evenodd" clip-rule="evenodd" d="M244 9.85958L222.887 9.85958L222.887 32.2517L213.481 37.5143L220.619 32.2517L209.793 32.2517L209.793 40L244 40L231.715 24.9298L244 9.85958ZM-2.63496e-06 9.8596L21.1126 9.8596L21.1126 32.2517L30.5188 37.5143L23.3808 32.2517L34.2068 32.2517L34.2068 40L0 40L12.2852 24.9298L-2.63496e-06 9.8596ZM221.285 -1.70877e-05L22.7226 2.712e-07L22.7226 30.1508L221.285 30.1508L221.285 0.0103818L221.285 -1.70877e-05Z" fill="#12212B"/>
<path d="M38.2974 10.004H42.8754C43.8694 10.004 44.6534 10.242 45.2134 10.718C45.7314 11.166 45.9974 11.768 45.9974 12.524C45.9974 13.084 45.8574 13.56 45.5914 13.952C45.3254 14.316 44.9474 14.582 44.4434 14.778C45.1014 14.904 45.5914 15.17 45.9274 15.576C46.2494 15.968 46.4174 16.514 46.4174 17.186C46.4174 18.194 46.0674 18.936 45.3814 19.412C44.7934 19.804 43.9534 20 42.8894 20H38.2974V10.004ZM39.9354 11.348V14.204H42.4414C43.1414 14.204 43.6314 14.078 43.9254 13.854C44.2054 13.616 44.3594 13.238 44.3594 12.72C44.3594 12.244 44.2054 11.894 43.9254 11.684C43.6174 11.46 43.1414 11.348 42.4694 11.348H39.9354ZM39.9354 15.548V18.656H42.6514C43.2674 18.656 43.7574 18.558 44.1074 18.362C44.5554 18.11 44.7794 17.718 44.7794 17.158C44.7794 16.584 44.6114 16.178 44.2894 15.926C43.9534 15.674 43.4214 15.548 42.6934 15.548H39.9354ZM47.9634 10.004H49.5874V18.6H54.9914V20H47.9634V10.004ZM59.0906 10.004H60.9526L64.7746 20H63.0246L62.1146 17.494H57.9286L57.0186 20H55.2686L59.0906 10.004ZM58.4186 16.15H61.6246L60.0566 11.768H60.0006L58.4186 16.15ZM70.0905 9.808C71.2665 9.808 72.2465 10.116 73.0025 10.732C73.7305 11.32 74.1645 12.132 74.3185 13.14H72.7225C72.5545 12.482 72.2465 12.006 71.7845 11.698C71.3365 11.39 70.7625 11.25 70.0625 11.25C69.0125 11.25 68.2285 11.6 67.6965 12.328C67.2065 12.972 66.9685 13.868 66.9685 15.016C66.9685 16.192 67.2065 17.102 67.6825 17.732C68.2005 18.404 69.0125 18.754 70.1045 18.754C70.8185 18.754 71.4065 18.572 71.8545 18.236C72.3305 17.858 72.6665 17.284 72.8625 16.528H74.4585C74.2345 17.704 73.7165 18.614 72.8905 19.272C72.1205 19.888 71.1965 20.196 70.1185 20.196C68.4525 20.196 67.2065 19.664 66.3945 18.628C65.6805 17.732 65.3305 16.528 65.3305 15.016C65.3305 13.532 65.6945 12.314 66.4365 11.39C67.2765 10.326 68.4945 9.808 70.0905 9.808ZM82.2904 10.004H84.3624L79.9664 14.288L85.0204 20H82.8084L78.8604 15.366L77.6424 16.556V20H76.0044V10.004H77.6424V14.722L82.2904 10.004ZM89.9326 10.004H91.5706V16.766C91.5706 17.914 91.3326 18.754 90.8566 19.314C90.3246 19.902 89.4846 20.196 88.3226 20.196C87.3146 20.196 86.5446 19.916 86.0266 19.356C85.4946 18.796 85.2286 18.026 85.2286 17.046V16.724H86.8666V17.032C86.8666 18.18 87.3566 18.754 88.3506 18.754C88.8966 18.754 89.3026 18.586 89.5546 18.264C89.8066 17.942 89.9326 17.424 89.9326 16.71V10.004ZM96.3738 10.004H98.2358L102.058 20H100.308L99.3978 17.494H95.2118L94.3018 20H92.5518L96.3738 10.004ZM95.7018 16.15H98.9078L97.3398 11.768H97.2838L95.7018 16.15ZM107.374 9.808C108.55 9.808 109.53 10.116 110.286 10.732C111.014 11.32 111.448 12.132 111.602 13.14H110.006C109.838 12.482 109.53 12.006 109.068 11.698C108.62 11.39 108.046 11.25 107.346 11.25C106.296 11.25 105.512 11.6 104.98 12.328C104.49 12.972 104.252 13.868 104.252 15.016C104.252 16.192 104.49 17.102 104.966 17.732C105.484 18.404 106.296 18.754 107.388 18.754C108.102 18.754 108.69 18.572 109.138 18.236C109.614 17.858 109.95 17.284 110.146 16.528H111.742C111.518 17.704 111 18.614 110.174 19.272C109.404 19.888 108.48 20.196 107.402 20.196C105.736 20.196 104.49 19.664 103.678 18.628C102.964 17.732 102.614 16.528 102.614 15.016C102.614 13.532 102.978 12.314 103.72 11.39C104.56 10.326 105.778 9.808 107.374 9.808ZM119.574 10.004H121.646L117.25 14.288L122.304 20H120.092L116.144 15.366L114.926 16.556V20H113.288V10.004H114.926V14.722L119.574 10.004ZM127.944 10.004H132.088C134.496 10.004 135.714 11.026 135.714 13.07C135.714 15.128 134.496 16.164 132.06 16.164H129.582V20H127.944V10.004ZM129.582 11.404V14.764H131.962C132.69 14.764 133.222 14.624 133.558 14.372C133.894 14.106 134.062 13.672 134.062 13.07C134.062 12.468 133.88 12.048 133.544 11.796C133.208 11.53 132.676 11.404 131.962 11.404H129.582ZM139.96 10.004H141.822L145.644 20H143.894L142.984 17.494H138.798L137.888 20H136.138L139.96 10.004ZM139.288 16.15H142.494L140.926 11.768H140.87L139.288 16.15ZM145.71 10.004H147.684L150.484 14.498L153.27 10.004H155.244L151.296 16.024V20H149.658V16.024L145.71 10.004ZM159.827 9.808C161.003 9.808 161.927 10.046 162.585 10.536C163.285 11.054 163.691 11.866 163.789 12.958H162.165C162.025 12.342 161.759 11.894 161.395 11.628C161.031 11.348 160.471 11.222 159.743 11.222C159.113 11.222 158.637 11.306 158.301 11.488C157.881 11.698 157.685 12.048 157.685 12.524C157.685 12.944 157.909 13.294 158.385 13.546C158.595 13.658 159.169 13.868 160.093 14.162C161.451 14.582 162.319 14.918 162.711 15.142C163.579 15.66 164.013 16.374 164.013 17.298C164.013 18.194 163.663 18.908 162.963 19.426C162.263 19.93 161.269 20.196 159.995 20.196C158.763 20.196 157.797 19.958 157.111 19.482C156.271 18.894 155.809 17.97 155.739 16.696H157.363C157.475 17.452 157.741 17.998 158.175 18.32C158.567 18.6 159.169 18.754 159.995 18.754C160.723 18.754 161.311 18.628 161.731 18.39C162.151 18.138 162.375 17.816 162.375 17.396C162.375 16.864 162.053 16.444 161.437 16.136C161.241 16.038 160.597 15.814 159.491 15.478C158.259 15.086 157.489 14.806 157.195 14.638C156.425 14.176 156.047 13.504 156.047 12.622C156.047 11.74 156.411 11.04 157.167 10.536C157.867 10.046 158.749 9.808 159.827 9.808ZM173.399 9.808C174.407 9.808 175.233 10.046 175.849 10.536C176.451 11.026 176.759 11.698 176.759 12.566C176.759 13.658 176.199 14.386 175.093 14.75C175.681 14.932 176.143 15.198 176.451 15.562C176.787 15.94 176.955 16.43 176.955 17.018C176.955 17.942 176.633 18.698 175.989 19.286C175.317 19.888 174.435 20.196 173.343 20.196C172.307 20.196 171.467 19.93 170.837 19.398C170.137 18.81 169.745 17.942 169.661 16.822H171.327C171.355 17.466 171.551 17.97 171.943 18.32C172.293 18.642 172.755 18.81 173.329 18.81C173.959 18.81 174.463 18.628 174.827 18.278C175.149 17.956 175.317 17.564 175.317 17.088C175.317 16.514 175.135 16.094 174.799 15.828C174.463 15.548 173.973 15.422 173.329 15.422H172.629V14.19H173.329C173.917 14.19 174.365 14.064 174.673 13.812C174.967 13.56 175.121 13.182 175.121 12.692C175.121 12.202 174.981 11.838 174.715 11.586C174.421 11.334 173.987 11.208 173.413 11.208C172.825 11.208 172.377 11.348 172.055 11.642C171.719 11.936 171.523 12.384 171.467 12.986H169.857C169.941 11.978 170.305 11.194 170.977 10.634C171.607 10.074 172.419 9.808 173.399 9.808ZM182.367 10.004H190.557V11.404H187.281V20H185.643V11.404H182.367V10.004ZM196.189 9.808C197.715 9.808 198.919 10.298 199.801 11.292C200.641 12.23 201.061 13.476 201.061 15.016C201.061 16.556 200.641 17.788 199.801 18.726C198.919 19.706 197.715 20.196 196.189 20.196C194.649 20.196 193.445 19.692 192.577 18.712C191.737 17.76 191.331 16.528 191.331 15.016C191.331 13.49 191.737 12.258 192.577 11.306C193.445 10.298 194.649 9.808 196.189 9.808ZM196.189 11.25C195.153 11.25 194.355 11.6 193.781 12.3C193.235 12.972 192.969 13.868 192.969 15.016C192.969 16.15 193.235 17.046 193.781 17.718C194.341 18.404 195.153 18.754 196.189 18.754C197.225 18.754 198.023 18.418 198.583 17.76C199.129 17.102 199.409 16.192 199.409 15.016C199.409 13.84 199.129 12.916 198.583 12.244C198.023 11.572 197.225 11.25 196.189 11.25ZM210.642 9.808C211.608 9.808 212.406 10.088 213.036 10.648C213.652 11.208 213.96 11.922 213.96 12.818C213.96 13.686 213.624 14.47 212.98 15.184C212.588 15.604 211.888 16.136 210.908 16.794C209.886 17.466 209.27 18.054 209.046 18.558H213.974V20H207.002C207.002 18.978 207.324 18.096 207.996 17.34C208.36 16.92 209.13 16.304 210.292 15.506C210.936 15.058 211.384 14.68 211.664 14.386C212.098 13.896 212.322 13.364 212.322 12.804C212.322 12.258 212.168 11.852 211.888 11.586C211.594 11.32 211.16 11.194 210.586 11.194C209.97 11.194 209.508 11.404 209.2 11.824C208.892 12.216 208.724 12.818 208.696 13.602H207.058C207.072 12.482 207.394 11.586 208.038 10.9C208.696 10.172 209.564 9.808 210.642 9.808Z" fill="#7C8499"/>
<path d="M37.1138 47.004H38.7518V57H37.1138V47.004ZM40.7095 47.004H42.3475L47.2895 54.214H47.3455V47.004H48.9975V57H47.4015L42.4035 49.692H42.3475V57H40.7095V47.004ZM54.4914 46.808C55.6674 46.808 56.5914 47.046 57.2494 47.536C57.9494 48.054 58.3554 48.866 58.4534 49.958H56.8294C56.6894 49.342 56.4234 48.894 56.0594 48.628C55.6954 48.348 55.1354 48.222 54.4074 48.222C53.7774 48.222 53.3014 48.306 52.9654 48.488C52.5454 48.698 52.3494 49.048 52.3494 49.524C52.3494 49.944 52.5734 50.294 53.0494 50.546C53.2594 50.658 53.8334 50.868 54.7574 51.162C56.1154 51.582 56.9834 51.918 57.3754 52.142C58.2434 52.66 58.6774 53.374 58.6774 54.298C58.6774 55.194 58.3274 55.908 57.6274 56.426C56.9274 56.93 55.9334 57.196 54.6594 57.196C53.4274 57.196 52.4614 56.958 51.7754 56.482C50.9354 55.894 50.4734 54.97 50.4034 53.696H52.0274C52.1394 54.452 52.4054 54.998 52.8394 55.32C53.2314 55.6 53.8334 55.754 54.6594 55.754C55.3874 55.754 55.9754 55.628 56.3954 55.39C56.8154 55.138 57.0394 54.816 57.0394 54.396C57.0394 53.864 56.7174 53.444 56.1014 53.136C55.9054 53.038 55.2614 52.814 54.1554 52.478C52.9234 52.086 52.1534 51.806 51.8594 51.638C51.0894 51.176 50.7114 50.504 50.7114 49.622C50.7114 48.74 51.0754 48.04 51.8314 47.536C52.5314 47.046 53.4134 46.808 54.4914 46.808ZM60.0825 47.004H61.7205V53.234C61.7205 54.102 61.9165 54.732 62.3225 55.152C62.7145 55.558 63.3585 55.768 64.2405 55.768C65.1085 55.768 65.7525 55.558 66.1585 55.152C66.5505 54.732 66.7605 54.102 66.7605 53.234V47.004H68.3985V53.206C68.3985 54.508 68.0345 55.502 67.3065 56.188C66.5785 56.86 65.5565 57.196 64.2405 57.196C62.9105 57.196 61.8885 56.86 61.1885 56.202C60.4465 55.502 60.0825 54.508 60.0825 53.206V47.004ZM70.3638 47.004H74.8158C75.8378 47.004 76.6498 47.228 77.2378 47.69C77.8538 48.194 78.1758 48.922 78.1758 49.874C78.1758 50.392 78.0358 50.854 77.7558 51.26C77.4478 51.708 77.0138 52.002 76.4818 52.142V52.17C77.3498 52.366 77.8398 52.94 77.9518 53.92L78.1198 55.53C78.1758 56.146 78.3858 56.636 78.7218 57H76.9438C76.7058 56.692 76.5658 56.258 76.5098 55.698L76.3838 54.466C76.3278 53.92 76.1598 53.528 75.8798 53.29C75.5858 53.038 75.1518 52.926 74.5918 52.926H72.0018V57H70.3638V47.004ZM72.0018 48.404V51.526H74.5918C75.2358 51.526 75.7258 51.386 76.0618 51.12C76.3698 50.84 76.5238 50.448 76.5238 49.944C76.5238 49.398 76.3698 49.006 76.0618 48.768C75.7538 48.516 75.2638 48.404 74.5918 48.404H72.0018ZM82.9675 47.004H84.8295L88.6515 57H86.9015L85.9915 54.494H81.8055L80.8955 57H79.1455L82.9675 47.004ZM82.2955 53.15H85.5015L83.9335 48.768H83.8775L82.2955 53.15ZM89.6275 47.004H91.2655L96.2075 54.214H96.2635V47.004H97.9155V57H96.3195L91.3215 49.692H91.2655V57H89.6275V47.004ZM104.221 46.808C105.397 46.808 106.377 47.116 107.133 47.732C107.861 48.32 108.295 49.132 108.449 50.14H106.853C106.685 49.482 106.377 49.006 105.915 48.698C105.467 48.39 104.893 48.25 104.193 48.25C103.143 48.25 102.359 48.6 101.827 49.328C101.337 49.972 101.099 50.868 101.099 52.016C101.099 53.192 101.337 54.102 101.813 54.732C102.331 55.404 103.143 55.754 104.235 55.754C104.949 55.754 105.537 55.572 105.985 55.236C106.461 54.858 106.797 54.284 106.993 53.528H108.589C108.365 54.704 107.847 55.614 107.021 56.272C106.251 56.888 105.327 57.196 104.249 57.196C102.583 57.196 101.337 56.664 100.525 55.628C99.8114 54.732 99.4614 53.528 99.4614 52.016C99.4614 50.532 99.8254 49.314 100.567 48.39C101.407 47.326 102.625 46.808 104.221 46.808ZM110.135 47.004H117.345V48.404H111.773V51.176H117.009V52.576H111.773V55.6H117.583V57H110.135V47.004ZM123.78 47.004H127.924C130.332 47.004 131.55 48.026 131.55 50.07C131.55 52.128 130.332 53.164 127.896 53.164H125.418V57H123.78V47.004ZM125.418 48.404V51.764H127.798C128.526 51.764 129.058 51.624 129.394 51.372C129.73 51.106 129.898 50.672 129.898 50.07C129.898 49.468 129.716 49.048 129.38 48.796C129.044 48.53 128.512 48.404 127.798 48.404H125.418ZM135.796 47.004H137.658L141.48 57H139.73L138.82 54.494H134.634L133.724 57H131.974L135.796 47.004ZM135.124 53.15H138.33L136.762 48.768H136.706L135.124 53.15ZM141.546 47.004H143.52L146.32 51.498L149.106 47.004H151.08L147.132 53.024V57H145.494V53.024L141.546 47.004ZM155.663 46.808C156.839 46.808 157.763 47.046 158.421 47.536C159.121 48.054 159.527 48.866 159.625 49.958H158.001C157.861 49.342 157.595 48.894 157.231 48.628C156.867 48.348 156.307 48.222 155.579 48.222C154.949 48.222 154.473 48.306 154.137 48.488C153.717 48.698 153.521 49.048 153.521 49.524C153.521 49.944 153.745 50.294 154.221 50.546C154.431 50.658 155.005 50.868 155.929 51.162C157.287 51.582 158.155 51.918 158.547 52.142C159.415 52.66 159.849 53.374 159.849 54.298C159.849 55.194 159.499 55.908 158.799 56.426C158.099 56.93 157.105 57.196 155.831 57.196C154.599 57.196 153.633 56.958 152.947 56.482C152.107 55.894 151.645 54.97 151.575 53.696H153.199C153.311 54.452 153.577 54.998 154.011 55.32C154.403 55.6 155.005 55.754 155.831 55.754C156.559 55.754 157.147 55.628 157.567 55.39C157.987 55.138 158.211 54.816 158.211 54.396C158.211 53.864 157.889 53.444 157.273 53.136C157.077 53.038 156.433 52.814 155.327 52.478C154.095 52.086 153.325 51.806 153.031 51.638C152.261 51.176 151.883 50.504 151.883 49.622C151.883 48.74 152.247 48.04 153.003 47.536C153.703 47.046 154.585 46.808 155.663 46.808ZM169.291 46.808C170.257 46.808 171.055 47.088 171.685 47.648C172.301 48.208 172.609 48.922 172.609 49.818C172.609 50.686 172.273 51.47 171.629 52.184C171.237 52.604 170.537 53.136 169.557 53.794C168.535 54.466 167.919 55.054 167.695 55.558H172.623V57H165.651C165.651 55.978 165.973 55.096 166.645 54.34C167.009 53.92 167.779 53.304 168.941 52.506C169.585 52.058 170.033 51.68 170.313 51.386C170.747 50.896 170.971 50.364 170.971 49.804C170.971 49.258 170.817 48.852 170.537 48.586C170.243 48.32 169.809 48.194 169.235 48.194C168.619 48.194 168.157 48.404 167.849 48.824C167.541 49.216 167.373 49.818 167.345 50.602H165.707C165.721 49.482 166.043 48.586 166.687 47.9C167.345 47.172 168.213 46.808 169.291 46.808ZM178.203 47.004H186.393V48.404H183.117V57H181.479V48.404H178.203V47.004ZM192.024 46.808C193.55 46.808 194.754 47.298 195.636 48.292C196.476 49.23 196.896 50.476 196.896 52.016C196.896 53.556 196.476 54.788 195.636 55.726C194.754 56.706 193.55 57.196 192.024 57.196C190.484 57.196 189.28 56.692 188.412 55.712C187.572 54.76 187.166 53.528 187.166 52.016C187.166 50.49 187.572 49.258 188.412 48.306C189.28 47.298 190.484 46.808 192.024 46.808ZM192.024 48.25C190.988 48.25 190.19 48.6 189.616 49.3C189.07 49.972 188.804 50.868 188.804 52.016C188.804 53.15 189.07 54.046 189.616 54.718C190.176 55.404 190.988 55.754 192.024 55.754C193.06 55.754 193.858 55.418 194.418 54.76C194.964 54.102 195.244 53.192 195.244 52.016C195.244 50.84 194.964 49.916 194.418 49.244C193.858 48.572 193.06 48.25 192.024 48.25ZM205.372 47.004H206.604V57H204.966V48.978C204.364 49.524 203.608 49.93 202.684 50.196V48.572C203.132 48.46 203.608 48.264 204.112 47.984C204.616 47.676 205.036 47.354 205.372 47.004Z" fill="#7C8499"/>
</svg>
