<svg width="244" height="62" viewBox="0 0 244 62" fill="none" xmlns="http://www.w3.org/2000/svg">
<path fill-rule="evenodd" clip-rule="evenodd" d="M244 9.85958L222.887 9.85958L222.887 32.2517L213.481 37.5143L220.619 32.2517L209.793 32.2517L209.793 40L244 40L231.715 24.9298L244 9.85958ZM-2.63496e-06 9.8596L21.1126 9.8596L21.1126 32.2517L30.5188 37.5143L23.3808 32.2517L34.2068 32.2517L34.2068 40L0 40L12.2852 24.9298L-2.63496e-06 9.8596ZM221.285 -1.70877e-05L22.7226 2.712e-07L22.7226 30.1508L221.285 30.1508L221.285 0.0103818L221.285 -1.70877e-05Z" fill="white"/>
<path opacity="0.5" d="M33.2974 10.004H37.8754C38.8694 10.004 39.6534 10.242 40.2134 10.718C40.7314 11.166 40.9974 11.768 40.9974 12.524C40.9974 13.084 40.8574 13.56 40.5914 13.952C40.3254 14.316 39.9474 14.582 39.4434 14.778C40.1014 14.904 40.5914 15.17 40.9274 15.576C41.2494 15.968 41.4174 16.514 41.4174 17.186C41.4174 18.194 41.0674 18.936 40.3814 19.412C39.7934 19.804 38.9534 20 37.8894 20H33.2974V10.004ZM34.9354 11.348V14.204H37.4414C38.1414 14.204 38.6314 14.078 38.9254 13.854C39.2054 13.616 39.3594 13.238 39.3594 12.72C39.3594 12.244 39.2054 11.894 38.9254 11.684C38.6174 11.46 38.1414 11.348 37.4694 11.348H34.9354ZM34.9354 15.548V18.656H37.6514C38.2674 18.656 38.7574 18.558 39.1074 18.362C39.5554 18.11 39.7794 17.718 39.7794 17.158C39.7794 16.584 39.6114 16.178 39.2894 15.926C38.9534 15.674 38.4214 15.548 37.6934 15.548H34.9354ZM42.9634 10.004H44.5874V18.6H49.9914V20H42.9634V10.004ZM54.0906 10.004H55.9526L59.7746 20H58.0246L57.1146 17.494H52.9286L52.0186 20H50.2686L54.0906 10.004ZM53.4186 16.15H56.6246L55.0566 11.768H55.0006L53.4186 16.15ZM65.0905 9.808C66.2665 9.808 67.2465 10.116 68.0025 10.732C68.7305 11.32 69.1645 12.132 69.3185 13.14H67.7225C67.5545 12.482 67.2465 12.006 66.7845 11.698C66.3365 11.39 65.7625 11.25 65.0625 11.25C64.0125 11.25 63.2285 11.6 62.6965 12.328C62.2065 12.972 61.9685 13.868 61.9685 15.016C61.9685 16.192 62.2065 17.102 62.6825 17.732C63.2005 18.404 64.0125 18.754 65.1045 18.754C65.8185 18.754 66.4065 18.572 66.8545 18.236C67.3305 17.858 67.6665 17.284 67.8625 16.528H69.4585C69.2345 17.704 68.7165 18.614 67.8905 19.272C67.1205 19.888 66.1965 20.196 65.1185 20.196C63.4525 20.196 62.2065 19.664 61.3945 18.628C60.6805 17.732 60.3305 16.528 60.3305 15.016C60.3305 13.532 60.6945 12.314 61.4365 11.39C62.2765 10.326 63.4945 9.808 65.0905 9.808ZM77.2904 10.004H79.3624L74.9664 14.288L80.0204 20H77.8084L73.8604 15.366L72.6424 16.556V20H71.0044V10.004H72.6424V14.722L77.2904 10.004ZM84.9326 10.004H86.5706V16.766C86.5706 17.914 86.3326 18.754 85.8566 19.314C85.3246 19.902 84.4846 20.196 83.3226 20.196C82.3146 20.196 81.5446 19.916 81.0266 19.356C80.4946 18.796 80.2286 18.026 80.2286 17.046V16.724H81.8666V17.032C81.8666 18.18 82.3566 18.754 83.3506 18.754C83.8966 18.754 84.3026 18.586 84.5546 18.264C84.8066 17.942 84.9326 17.424 84.9326 16.71V10.004ZM91.3738 10.004H93.2358L97.0578 20H95.3078L94.3978 17.494H90.2118L89.3018 20H87.5518L91.3738 10.004ZM90.7018 16.15H93.9078L92.3398 11.768H92.2838L90.7018 16.15ZM102.374 9.808C103.55 9.808 104.53 10.116 105.286 10.732C106.014 11.32 106.448 12.132 106.602 13.14H105.006C104.838 12.482 104.53 12.006 104.068 11.698C103.62 11.39 103.046 11.25 102.346 11.25C101.296 11.25 100.512 11.6 99.9797 12.328C99.4897 12.972 99.2517 13.868 99.2517 15.016C99.2517 16.192 99.4897 17.102 99.9657 17.732C100.484 18.404 101.296 18.754 102.388 18.754C103.102 18.754 103.69 18.572 104.138 18.236C104.614 17.858 104.95 17.284 105.146 16.528H106.742C106.518 17.704 106 18.614 105.174 19.272C104.404 19.888 103.48 20.196 102.402 20.196C100.736 20.196 99.4897 19.664 98.6777 18.628C97.9637 17.732 97.6137 16.528 97.6137 15.016C97.6137 13.532 97.9777 12.314 98.7197 11.39C99.5597 10.326 100.778 9.808 102.374 9.808ZM114.574 10.004H116.646L112.25 14.288L117.304 20H115.092L111.144 15.366L109.926 16.556V20H108.288V10.004H109.926V14.722L114.574 10.004ZM122.944 10.004H127.088C129.496 10.004 130.714 11.026 130.714 13.07C130.714 15.128 129.496 16.164 127.06 16.164H124.582V20H122.944V10.004ZM124.582 11.404V14.764H126.962C127.69 14.764 128.222 14.624 128.558 14.372C128.894 14.106 129.062 13.672 129.062 13.07C129.062 12.468 128.88 12.048 128.544 11.796C128.208 11.53 127.676 11.404 126.962 11.404H124.582ZM134.96 10.004H136.822L140.644 20H138.894L137.984 17.494H133.798L132.888 20H131.138L134.96 10.004ZM134.288 16.15H137.494L135.926 11.768H135.87L134.288 16.15ZM140.71 10.004H142.684L145.484 14.498L148.27 10.004H150.244L146.296 16.024V20H144.658V16.024L140.71 10.004ZM154.827 9.808C156.003 9.808 156.927 10.046 157.585 10.536C158.285 11.054 158.691 11.866 158.789 12.958H157.165C157.025 12.342 156.759 11.894 156.395 11.628C156.031 11.348 155.471 11.222 154.743 11.222C154.113 11.222 153.637 11.306 153.301 11.488C152.881 11.698 152.685 12.048 152.685 12.524C152.685 12.944 152.909 13.294 153.385 13.546C153.595 13.658 154.169 13.868 155.093 14.162C156.451 14.582 157.319 14.918 157.711 15.142C158.579 15.66 159.013 16.374 159.013 17.298C159.013 18.194 158.663 18.908 157.963 19.426C157.263 19.93 156.269 20.196 154.995 20.196C153.763 20.196 152.797 19.958 152.111 19.482C151.271 18.894 150.809 17.97 150.739 16.696H152.363C152.475 17.452 152.741 17.998 153.175 18.32C153.567 18.6 154.169 18.754 154.995 18.754C155.723 18.754 156.311 18.628 156.731 18.39C157.151 18.138 157.375 17.816 157.375 17.396C157.375 16.864 157.053 16.444 156.437 16.136C156.241 16.038 155.597 15.814 154.491 15.478C153.259 15.086 152.489 14.806 152.195 14.638C151.425 14.176 151.047 13.504 151.047 12.622C151.047 11.74 151.411 11.04 152.167 10.536C152.867 10.046 153.749 9.808 154.827 9.808ZM168.399 9.808C169.407 9.808 170.233 10.046 170.849 10.536C171.451 11.026 171.759 11.698 171.759 12.566C171.759 13.658 171.199 14.386 170.093 14.75C170.681 14.932 171.143 15.198 171.451 15.562C171.787 15.94 171.955 16.43 171.955 17.018C171.955 17.942 171.633 18.698 170.989 19.286C170.317 19.888 169.435 20.196 168.343 20.196C167.307 20.196 166.467 19.93 165.837 19.398C165.137 18.81 164.745 17.942 164.661 16.822H166.327C166.355 17.466 166.551 17.97 166.943 18.32C167.293 18.642 167.755 18.81 168.329 18.81C168.959 18.81 169.463 18.628 169.827 18.278C170.149 17.956 170.317 17.564 170.317 17.088C170.317 16.514 170.135 16.094 169.799 15.828C169.463 15.548 168.973 15.422 168.329 15.422H167.629V14.19H168.329C168.917 14.19 169.365 14.064 169.673 13.812C169.967 13.56 170.121 13.182 170.121 12.692C170.121 12.202 169.981 11.838 169.715 11.586C169.421 11.334 168.987 11.208 168.413 11.208C167.825 11.208 167.377 11.348 167.055 11.642C166.719 11.936 166.523 12.384 166.467 12.986H164.857C164.941 11.978 165.305 11.194 165.977 10.634C166.607 10.074 167.419 9.808 168.399 9.808ZM177.367 10.004H185.557V11.404H182.281V20H180.643V11.404H177.367V10.004ZM191.189 9.808C192.715 9.808 193.919 10.298 194.801 11.292C195.641 12.23 196.061 13.476 196.061 15.016C196.061 16.556 195.641 17.788 194.801 18.726C193.919 19.706 192.715 20.196 191.189 20.196C189.649 20.196 188.445 19.692 187.577 18.712C186.737 17.76 186.331 16.528 186.331 15.016C186.331 13.49 186.737 12.258 187.577 11.306C188.445 10.298 189.649 9.808 191.189 9.808ZM191.189 11.25C190.153 11.25 189.355 11.6 188.781 12.3C188.235 12.972 187.969 13.868 187.969 15.016C187.969 16.15 188.235 17.046 188.781 17.718C189.341 18.404 190.153 18.754 191.189 18.754C192.225 18.754 193.023 18.418 193.583 17.76C194.129 17.102 194.409 16.192 194.409 15.016C194.409 13.84 194.129 12.916 193.583 12.244C193.023 11.572 192.225 11.25 191.189 11.25ZM205.642 9.808C206.608 9.808 207.406 10.088 208.036 10.648C208.652 11.208 208.96 11.922 208.96 12.818C208.96 13.686 208.624 14.47 207.98 15.184C207.588 15.604 206.888 16.136 205.908 16.794C204.886 17.466 204.27 18.054 204.046 18.558H208.974V20H202.002C202.002 18.978 202.324 18.096 202.996 17.34C203.36 16.92 204.13 16.304 205.292 15.506C205.936 15.058 206.384 14.68 206.664 14.386C207.098 13.896 207.322 13.364 207.322 12.804C207.322 12.258 207.168 11.852 206.888 11.586C206.594 11.32 206.16 11.194 205.586 11.194C204.97 11.194 204.508 11.404 204.2 11.824C203.892 12.216 203.724 12.818 203.696 13.602H202.058C202.072 12.482 202.394 11.586 203.038 10.9C203.696 10.172 204.564 9.808 205.642 9.808Z" fill="#7C8499"/>
<path opacity="0.5" d="M37.1138 47.004H38.7518V57H37.1138V47.004ZM40.7095 47.004H42.3475L47.2895 54.214H47.3455V47.004H48.9975V57H47.4015L42.4035 49.692H42.3475V57H40.7095V47.004ZM54.4914 46.808C55.6674 46.808 56.5914 47.046 57.2494 47.536C57.9494 48.054 58.3554 48.866 58.4534 49.958H56.8294C56.6894 49.342 56.4234 48.894 56.0594 48.628C55.6954 48.348 55.1354 48.222 54.4074 48.222C53.7774 48.222 53.3014 48.306 52.9654 48.488C52.5454 48.698 52.3494 49.048 52.3494 49.524C52.3494 49.944 52.5734 50.294 53.0494 50.546C53.2594 50.658 53.8334 50.868 54.7574 51.162C56.1154 51.582 56.9834 51.918 57.3754 52.142C58.2434 52.66 58.6774 53.374 58.6774 54.298C58.6774 55.194 58.3274 55.908 57.6274 56.426C56.9274 56.93 55.9334 57.196 54.6594 57.196C53.4274 57.196 52.4614 56.958 51.7754 56.482C50.9354 55.894 50.4734 54.97 50.4034 53.696H52.0274C52.1394 54.452 52.4054 54.998 52.8394 55.32C53.2314 55.6 53.8334 55.754 54.6594 55.754C55.3874 55.754 55.9754 55.628 56.3954 55.39C56.8154 55.138 57.0394 54.816 57.0394 54.396C57.0394 53.864 56.7174 53.444 56.1014 53.136C55.9054 53.038 55.2614 52.814 54.1554 52.478C52.9234 52.086 52.1534 51.806 51.8594 51.638C51.0894 51.176 50.7114 50.504 50.7114 49.622C50.7114 48.74 51.0754 48.04 51.8314 47.536C52.5314 47.046 53.4134 46.808 54.4914 46.808ZM60.0825 47.004H61.7205V53.234C61.7205 54.102 61.9165 54.732 62.3225 55.152C62.7145 55.558 63.3585 55.768 64.2405 55.768C65.1085 55.768 65.7525 55.558 66.1585 55.152C66.5505 54.732 66.7605 54.102 66.7605 53.234V47.004H68.3985V53.206C68.3985 54.508 68.0345 55.502 67.3065 56.188C66.5785 56.86 65.5565 57.196 64.2405 57.196C62.9105 57.196 61.8885 56.86 61.1885 56.202C60.4465 55.502 60.0825 54.508 60.0825 53.206V47.004ZM70.3638 47.004H74.8158C75.8378 47.004 76.6498 47.228 77.2378 47.69C77.8538 48.194 78.1758 48.922 78.1758 49.874C78.1758 50.392 78.0358 50.854 77.7558 51.26C77.4478 51.708 77.0138 52.002 76.4818 52.142V52.17C77.3498 52.366 77.8398 52.94 77.9518 53.92L78.1198 55.53C78.1758 56.146 78.3858 56.636 78.7218 57H76.9438C76.7058 56.692 76.5658 56.258 76.5098 55.698L76.3838 54.466C76.3278 53.92 76.1598 53.528 75.8798 53.29C75.5858 53.038 75.1518 52.926 74.5918 52.926H72.0018V57H70.3638V47.004ZM72.0018 48.404V51.526H74.5918C75.2358 51.526 75.7258 51.386 76.0618 51.12C76.3698 50.84 76.5238 50.448 76.5238 49.944C76.5238 49.398 76.3698 49.006 76.0618 48.768C75.7538 48.516 75.2638 48.404 74.5918 48.404H72.0018ZM82.9675 47.004H84.8295L88.6515 57H86.9015L85.9915 54.494H81.8055L80.8955 57H79.1455L82.9675 47.004ZM82.2955 53.15H85.5015L83.9335 48.768H83.8775L82.2955 53.15ZM89.6275 47.004H91.2655L96.2075 54.214H96.2635V47.004H97.9155V57H96.3195L91.3215 49.692H91.2655V57H89.6275V47.004ZM104.221 46.808C105.397 46.808 106.377 47.116 107.133 47.732C107.861 48.32 108.295 49.132 108.449 50.14H106.853C106.685 49.482 106.377 49.006 105.915 48.698C105.467 48.39 104.893 48.25 104.193 48.25C103.143 48.25 102.359 48.6 101.827 49.328C101.337 49.972 101.099 50.868 101.099 52.016C101.099 53.192 101.337 54.102 101.813 54.732C102.331 55.404 103.143 55.754 104.235 55.754C104.949 55.754 105.537 55.572 105.985 55.236C106.461 54.858 106.797 54.284 106.993 53.528H108.589C108.365 54.704 107.847 55.614 107.021 56.272C106.251 56.888 105.327 57.196 104.249 57.196C102.583 57.196 101.337 56.664 100.525 55.628C99.8114 54.732 99.4614 53.528 99.4614 52.016C99.4614 50.532 99.8254 49.314 100.567 48.39C101.407 47.326 102.625 46.808 104.221 46.808ZM110.135 47.004H117.345V48.404H111.773V51.176H117.009V52.576H111.773V55.6H117.583V57H110.135V47.004ZM123.78 47.004H127.924C130.332 47.004 131.55 48.026 131.55 50.07C131.55 52.128 130.332 53.164 127.896 53.164H125.418V57H123.78V47.004ZM125.418 48.404V51.764H127.798C128.526 51.764 129.058 51.624 129.394 51.372C129.73 51.106 129.898 50.672 129.898 50.07C129.898 49.468 129.716 49.048 129.38 48.796C129.044 48.53 128.512 48.404 127.798 48.404H125.418ZM135.796 47.004H137.658L141.48 57H139.73L138.82 54.494H134.634L133.724 57H131.974L135.796 47.004ZM135.124 53.15H138.33L136.762 48.768H136.706L135.124 53.15ZM141.546 47.004H143.52L146.32 51.498L149.106 47.004H151.08L147.132 53.024V57H145.494V53.024L141.546 47.004ZM155.663 46.808C156.839 46.808 157.763 47.046 158.421 47.536C159.121 48.054 159.527 48.866 159.625 49.958H158.001C157.861 49.342 157.595 48.894 157.231 48.628C156.867 48.348 156.307 48.222 155.579 48.222C154.949 48.222 154.473 48.306 154.137 48.488C153.717 48.698 153.521 49.048 153.521 49.524C153.521 49.944 153.745 50.294 154.221 50.546C154.431 50.658 155.005 50.868 155.929 51.162C157.287 51.582 158.155 51.918 158.547 52.142C159.415 52.66 159.849 53.374 159.849 54.298C159.849 55.194 159.499 55.908 158.799 56.426C158.099 56.93 157.105 57.196 155.831 57.196C154.599 57.196 153.633 56.958 152.947 56.482C152.107 55.894 151.645 54.97 151.575 53.696H153.199C153.311 54.452 153.577 54.998 154.011 55.32C154.403 55.6 155.005 55.754 155.831 55.754C156.559 55.754 157.147 55.628 157.567 55.39C157.987 55.138 158.211 54.816 158.211 54.396C158.211 53.864 157.889 53.444 157.273 53.136C157.077 53.038 156.433 52.814 155.327 52.478C154.095 52.086 153.325 51.806 153.031 51.638C152.261 51.176 151.883 50.504 151.883 49.622C151.883 48.74 152.247 48.04 153.003 47.536C153.703 47.046 154.585 46.808 155.663 46.808ZM169.291 46.808C170.257 46.808 171.055 47.088 171.685 47.648C172.301 48.208 172.609 48.922 172.609 49.818C172.609 50.686 172.273 51.47 171.629 52.184C171.237 52.604 170.537 53.136 169.557 53.794C168.535 54.466 167.919 55.054 167.695 55.558H172.623V57H165.651C165.651 55.978 165.973 55.096 166.645 54.34C167.009 53.92 167.779 53.304 168.941 52.506C169.585 52.058 170.033 51.68 170.313 51.386C170.747 50.896 170.971 50.364 170.971 49.804C170.971 49.258 170.817 48.852 170.537 48.586C170.243 48.32 169.809 48.194 169.235 48.194C168.619 48.194 168.157 48.404 167.849 48.824C167.541 49.216 167.373 49.818 167.345 50.602H165.707C165.721 49.482 166.043 48.586 166.687 47.9C167.345 47.172 168.213 46.808 169.291 46.808ZM178.203 47.004H186.393V48.404H183.117V57H181.479V48.404H178.203V47.004ZM192.024 46.808C193.55 46.808 194.754 47.298 195.636 48.292C196.476 49.23 196.896 50.476 196.896 52.016C196.896 53.556 196.476 54.788 195.636 55.726C194.754 56.706 193.55 57.196 192.024 57.196C190.484 57.196 189.28 56.692 188.412 55.712C187.572 54.76 187.166 53.528 187.166 52.016C187.166 50.49 187.572 49.258 188.412 48.306C189.28 47.298 190.484 46.808 192.024 46.808ZM192.024 48.25C190.988 48.25 190.19 48.6 189.616 49.3C189.07 49.972 188.804 50.868 188.804 52.016C188.804 53.15 189.07 54.046 189.616 54.718C190.176 55.404 190.988 55.754 192.024 55.754C193.06 55.754 193.858 55.418 194.418 54.76C194.964 54.102 195.244 53.192 195.244 52.016C195.244 50.84 194.964 49.916 194.418 49.244C193.858 48.572 193.06 48.25 192.024 48.25ZM205.372 47.004H206.604V57H204.966V48.978C204.364 49.524 203.608 49.93 202.684 50.196V48.572C203.132 48.46 203.608 48.264 204.112 47.984C204.616 47.676 205.036 47.354 205.372 47.004Z" fill="#7C8499"/>
</svg>
