<svg width="28" height="31" viewBox="0 0 28 31" fill="none" xmlns="http://www.w3.org/2000/svg">
<path d="M26.8467 14.3018C27.8457 15.2773 27.8457 16.4697 26.999 17.7529C26.999 17.7529 21.5234 27.0342 19.4609 28.2441C17.4775 29.6943 15.0869 30.4854 12.6318 30.5C8.958 30.5 5.70019 28.1973 4.56054 24.793L4.55761 24.7842L4.54883 24.7578L4.48144 24.5498L0.494138 11.8525C0.142576 10.8535 0.66699 9.75488 1.66601 9.40039C2.66797 9.05469 3.76953 9.62012 4.12402 10.5986L6.39746 16.5283C6.49414 16.7744 6.55566 16.6602 6.55566 16.4668L5.02929 5.65918C4.84179 4.63965 5.53613 3.60547 6.58203 3.42383C7.62793 3.23926 8.63281 3.97461 8.82031 4.99414L10.5342 14.2285C10.5518 14.3867 10.6748 14.3486 10.666 14.2109L10.7041 2.375C10.7041 1.33789 11.5684 0.5 12.6318 0.5C13.6953 0.5 14.5566 1.34082 14.5566 2.375L15.0928 14.123C15.1133 14.4248 15.2949 14.3867 15.374 14.1611L16.9619 5.12305C17.0879 4.09473 18.0488 3.30664 19.1035 3.42676C20.1553 3.56152 20.9053 4.51953 20.7822 5.57422L19.1035 16.5254C19.0039 17.3076 18.7549 18.7051 19.1035 19.1064C19.1914 19.209 19.4053 19.4902 19.7627 19.54C20.1992 19.6016 20.6738 19.3027 20.9814 18.7783C21.7285 17.4219 22.4785 16.0654 23.2256 14.7061C24.0107 13.6162 25.8447 13.3262 26.8467 14.3018Z" fill="#7B00FF"/>
</svg>
