<svg width="20" height="21" viewBox="0 0 20 21" fill="none" xmlns="http://www.w3.org/2000/svg">
<path d="M10 0.5C4.47768 0.5 0 4.97711 0 10.5C0 16.0229 4.47768 20.5 10 20.5C15.5223 20.5 20 16.0229 20 10.5C20 4.97711 15.5223 0.5 10 0.5ZM15.1808 5.96005L13.3795 15.3968C13.2545 16.0678 12.8884 16.2294 12.3862 15.9197L9.64509 13.6665L8.32812 15.0871C8.17634 15.2576 8.04911 15.3968 7.77902 15.3968L7.96429 12.2796L13.0491 7.18088C13.2746 6.95198 13.0022 6.84201 12.7054 7.04174L6.42634 11.456L3.71205 10.4978C3.12946 10.3137 3.12277 9.8649 3.84375 9.5395L14.4174 5.0018C14.9018 4.75943 15.3638 5.1342 15.1808 5.96005Z" fill="#43BBFF"/>
</svg>
