<svg width="15" height="18" viewBox="0 0 15 18" fill="none" xmlns="http://www.w3.org/2000/svg">
<g opacity="0.5">
<path d="M11.4983 8.44609L9.50244 10.442L8.83715 9.77668C8.71463 9.6542 8.5161 9.6542 8.39358 9.77668C8.27109 9.89916 8.27109 10.0978 8.39358 10.2202L9.28066 11.1073C9.40314 11.2298 9.60174 11.2298 9.7242 11.1073L11.9419 8.88963C12.0644 8.76715 12.0644 8.56855 11.9419 8.44607C11.8194 8.32359 11.6208 8.32359 11.4983 8.44609ZM14.6346 13.9838L12.669 12.0182C13.2555 11.3997 13.6176 10.5663 13.6176 9.64678C13.6176 7.74146 12.073 6.19688 10.1677 6.19688C8.2624 6.19688 6.71783 7.74146 6.71783 9.64678C6.71783 11.5521 8.26242 13.0967 10.1678 13.0967C10.9271 13.0967 11.6268 12.8484 12.1966 12.4328L14.1911 14.4273C14.3136 14.5498 14.5121 14.5498 14.6346 14.4273C14.7571 14.3048 14.7571 14.1063 14.6346 13.9838ZM10.1678 12.4694C8.60883 12.4694 7.34512 11.2057 7.34512 9.6468C7.34512 8.08789 8.60883 6.82416 10.1678 6.82416C11.7267 6.82416 12.9904 8.08789 12.9904 9.6468C12.9904 11.2057 11.7267 12.4694 10.1678 12.4694ZM2.95434 14.0376C2.95434 14.2108 3.09475 14.3512 3.26797 14.3512H8.91324C9.08647 14.3512 9.22688 14.2108 9.22688 14.0376C9.22688 13.8643 9.08647 13.7239 8.91324 13.7239H3.26797C3.09475 13.7239 2.95434 13.8643 2.95434 14.0376ZM3.26797 11.2149C3.09475 11.2149 2.95434 11.3553 2.95434 11.5286C2.95434 11.7018 3.09475 11.8422 3.26797 11.8422H6.73578C6.60852 11.6437 6.49592 11.435 6.4041 11.2149H3.26797V11.2149ZM3.26797 9.33316H6.10647C6.12261 9.12186 6.15525 8.91214 6.20408 8.70592H3.26797C3.09475 8.70592 2.95434 8.84633 2.95434 9.01955C2.95434 9.19277 3.09475 9.33316 3.26797 9.33316ZM7.34512 16.5466H2.01346C1.49381 16.5466 1.07258 16.1254 1.07258 15.6057V2.43336C1.07258 1.91371 1.49381 1.49248 2.01346 1.49248H9.85412V4.62875H12.9904V6.70896C13.2299 6.93914 13.4399 7.19842 13.6176 7.4809V4.62875L9.85412 0.865234H1.69982C1.00699 0.865234 0.445312 1.42691 0.445312 2.11975V15.9193C0.445312 16.6121 1.00699 17.1738 1.69982 17.1738H7.3451C7.51832 17.1738 7.65873 17.0334 7.65873 16.8602C7.65873 16.687 7.51832 16.5466 7.34512 16.5466ZM10.4814 2.43336L12.0495 4.00148H10.4814V2.43336ZM12.9904 15.6057C12.9904 16.1254 12.5691 16.5466 12.0495 16.5466H11.1086C10.9354 16.5466 10.795 16.687 10.795 16.8602C10.795 17.0334 10.9354 17.1738 11.1086 17.1738H12.3631C13.056 17.1738 13.6177 16.6122 13.6177 15.9193V14.741L12.9904 14.1137L12.9904 15.6057ZM13.6176 11.8127C13.5835 11.8669 13.5427 11.9158 13.5062 11.9683L13.6176 12.0797V11.8127ZM8.00186 6.19689H3.26797C3.09475 6.19689 2.95434 6.3373 2.95434 6.51053C2.95434 6.68375 3.09475 6.82416 3.26797 6.82416H7.22994C7.4601 6.58465 7.71938 6.37463 8.00186 6.19689ZM9.85412 16.5466H9.22688C9.05365 16.5466 8.91324 16.687 8.91324 16.8602C8.91324 17.0334 9.05365 17.1738 9.22688 17.1738H9.85412C10.0273 17.1738 10.1678 17.0334 10.1678 16.8602C10.1678 16.687 10.0273 16.5466 9.85412 16.5466ZM9.22688 4.0015C9.22688 3.82828 9.08647 3.68787 8.91324 3.68787H3.26797C3.09475 3.68787 2.95434 3.82828 2.95434 4.0015C2.95434 4.17473 3.09475 4.31514 3.26797 4.31514H8.91324C9.08647 4.31514 9.22688 4.17473 9.22688 4.0015Z" fill="#1E2329" stroke="#1E2329" stroke-width="0.3"/>
</g>
</svg>
