<svg width="16" height="17" viewBox="0 0 16 17" fill="none" xmlns="http://www.w3.org/2000/svg">
<g opacity="0.5">
<path d="M6.04571 16.2371H1.90347C0.853892 16.2371 0 15.3831 0 14.3336V1.90347C0 0.853892 0.853892 0 1.90347 0H12.2823C13.3319 0 14.1858 0.853892 14.1858 1.90347V6.82302C14.1858 7.10922 13.9538 7.34122 13.6676 7.34122C13.3814 7.34122 13.1494 7.10922 13.1494 6.82302V1.90347C13.1494 1.42536 12.7604 1.03641 12.2823 1.03641H1.90347C1.42536 1.03641 1.03641 1.42538 1.03641 1.90347V14.3336C1.03641 14.8117 1.42538 15.2007 1.90347 15.2007H6.04571C6.33191 15.2007 6.56392 15.4327 6.56392 15.7189C6.56392 16.0051 6.33189 16.2371 6.04571 16.2371Z" fill="#1E2329"/>
<path d="M3.28223 3.45459H11.2434V4.491H3.28223V3.45459ZM3.28223 7.60024H8.6104V8.63665H3.28223V7.60024Z" fill="#1E2329"/>
<path d="M12.0425 13.4937C10.7491 13.4937 9.69678 12.4415 9.69678 11.148C9.69678 9.85455 10.7491 8.80225 12.0425 8.80225C13.336 8.80225 14.3883 9.85455 14.3883 11.148C14.3883 12.4415 13.336 13.4937 12.0425 13.4937ZM12.0425 9.75231C11.2729 9.75231 10.6468 10.3784 10.6468 11.148C10.6468 11.9176 11.2729 12.5437 12.0425 12.5437C12.8121 12.5437 13.4382 11.9176 13.4382 11.148C13.4382 10.3784 12.8121 9.75231 12.0425 9.75231Z" fill="#1E2329"/>
<path d="M15.3726 15.8345H14.4225C14.4225 14.5276 13.3593 13.4644 12.0525 13.4644C10.7456 13.4644 9.68246 14.5276 9.68246 15.8345H8.73242C8.73242 14.0038 10.2218 12.5144 12.0525 12.5144C13.8832 12.5144 15.3726 14.0038 15.3726 15.8345Z" fill="#1E2329"/>
</g>
</svg>
