<svg width="18" height="18" viewBox="0 0 18 18" fill="none" xmlns="http://www.w3.org/2000/svg">
<path opacity="0.15" d="M9 0C7.21997 0 5.47991 0.527841 3.99987 1.51677C2.51983 2.50571 1.36628 3.91131 0.685088 5.55585C0.00389953 7.20038 -0.17433 9.00998 0.172936 10.7558C0.520203 12.5016 1.37737 14.1053 2.63604 15.364C3.89471 16.6226 5.49836 17.4798 7.24419 17.8271C8.99002 18.1743 10.7996 17.9961 12.4442 17.3149C14.0887 16.6337 15.4943 15.4802 16.4832 14.0001C17.4722 12.5201 18 10.78 18 9C18 6.61305 17.0518 4.32387 15.364 2.63604C13.6761 0.948211 11.387 0 9 0" fill="#B7BDC6"/>
<path d="M12.1815 11.386L6.61308 5.81755C6.39341 5.59788 6.03725 5.59788 5.81758 5.81755C5.59791 6.03722 5.59791 6.39337 5.81758 6.61304L11.386 12.1815C11.6057 12.4012 11.9619 12.4012 12.1815 12.1815C12.4012 11.9618 12.4012 11.6057 12.1815 11.386Z" fill="#B7BDC6"/>
<path d="M6.61313 12.1814L12.1816 6.61296C12.4013 6.39329 12.4013 6.03713 12.1816 5.81746C11.9619 5.59779 11.6058 5.59779 11.3861 5.81746L5.81764 11.3859C5.59797 11.6056 5.59797 11.9618 5.81764 12.1814C6.03731 12.4011 6.39346 12.4011 6.61313 12.1814Z" fill="#B7BDC6"/>
</svg>
