<svg width="18" height="18" viewBox="0 0 18 18" fill="none" xmlns="http://www.w3.org/2000/svg">
<path opacity="0.15" d="M9 0C7.21997 0 5.47991 0.527841 3.99987 1.51677C2.51983 2.50571 1.36628 3.91131 0.685088 5.55585C0.00389953 7.20038 -0.17433 9.00998 0.172936 10.7558C0.520203 12.5016 1.37737 14.1053 2.63604 15.364C3.89471 16.6226 5.49836 17.4798 7.24419 17.8271C8.99002 18.1743 10.7996 17.9961 12.4442 17.3149C14.0887 16.6337 15.4943 15.4802 16.4832 14.0001C17.4722 12.5201 18 10.78 18 9C18 6.61305 17.0518 4.32387 15.364 2.63604C13.6761 0.948211 11.387 0 9 0" fill="#00C087"/>
<path d="M12.852 6.15879L7.28349 11.7273C7.06382 11.9469 7.06382 12.3031 7.28349 12.5227C7.50316 12.7424 7.85931 12.7424 8.07898 12.5227L13.6474 6.95428C13.8671 6.73461 13.8671 6.37846 13.6474 6.15879C13.4278 5.93912 13.0716 5.93912 12.852 6.15879Z" fill="#00C087"/>
<path d="M8.07915 11.7276L5.69267 9.34111C5.473 9.12144 5.11684 9.12144 4.89717 9.34111C4.6775 9.56078 4.6775 9.91693 4.89717 10.1366L7.28366 12.5231C7.50333 12.7428 7.85948 12.7428 8.07915 12.5231C8.29882 12.3034 8.29882 11.9473 8.07915 11.7276Z" fill="#00C087"/>
</svg>
