<svg width="15" height="14" viewBox="0 0 15 14" fill="none" xmlns="http://www.w3.org/2000/svg">
<path d="M3.56872 2.98644C5.33417 1.29329 7.9838 0.946788 10.1112 2.0483L9.61739 2.90178L12.2481 2.4763L11.2965 0L10.783 0.887375C8.14115 -0.506707 4.8335 -0.0810882 2.63556 2.02662C0.233264 4.33109 -0.19454 8.02265 1.61842 10.8048L2.74583 10.0797C1.28078 7.8321 1.62699 4.84892 3.56869 2.98658L3.56872 2.98644ZM13.3817 3.25588L12.2543 3.98097C13.7192 6.22854 13.3729 9.21172 11.4309 11.0744C9.67152 12.7618 7.03436 13.1117 4.91041 12.0232L5.44582 11.0982L2.8151 11.5241L3.76666 14L4.24051 13.181C5.26127 13.7154 6.37851 13.983 7.49416 13.983C9.26177 13.983 11.0206 13.3224 12.3642 12.0338C14.7666 9.72901 15.1945 6.03747 13.3819 3.25605L13.3817 3.25588Z" fill="white"/>
</svg>
