<svg width="62" height="56" viewBox="0 0 62 56" fill="none" xmlns="http://www.w3.org/2000/svg">
<g opacity="0.04">
<path d="M61.5406 33.4335C59.1705 23.5655 57.2668 16.4202 54.733 5.37899C54.3562 3.73742 52.8 3.25743 51.3938 4.16803C41.9427 10.2872 40.9745 11.6018 30.3895 18.3359C28.8144 19.338 27.7779 21.6416 28.291 23.3657C31.7424 34.9686 33.7103 40.2908 37.2555 53.1187C37.7837 55.029 39.969 55.1861 41.8561 53.6242C54.5331 43.1323 55.5363 41.7416 60.7309 37.2218C61.5024 36.5493 61.8929 34.9041 61.5406 33.4337V33.4335ZM38.5902 26.3844C37.1151 27.4261 35.2615 26.9428 34.6545 25.1947C34.0461 23.4466 34.8709 21.1533 36.3073 20.1635C37.7451 19.1722 39.3022 19.8037 39.9464 21.4999C40.592 23.1961 40.0667 25.3403 38.5902 26.3844V26.3844ZM45.1955 44.5361C43.619 45.7834 41.6394 45.4232 41.0269 43.5836C40.4129 41.744 41.3541 39.2197 42.8995 38.0705C44.4472 36.9203 46.0595 37.5107 46.705 39.2522C47.3506 40.9937 46.7748 43.2875 45.1955 44.5362V44.5361ZM48.6492 30.3876C47.5146 31.2274 45.9703 30.5828 45.3049 28.8711C44.6395 27.1574 45.1054 25.0461 46.257 24.2077C47.4071 23.3688 48.8157 24.1115 49.4641 25.8261C50.1106 27.5365 49.7824 29.5492 48.6492 30.3876H48.6492ZM51.058 17.4317C49.9107 18.2343 48.5092 17.4817 47.9009 15.7817C47.2926 14.0812 47.7556 12.0534 48.985 11.2027C50.2153 10.353 51.7037 11.0207 52.2294 12.7716C52.7548 14.5216 52.204 16.6315 51.058 17.4317H51.058ZM57.03 35.039C56.1255 35.7534 54.8909 35.0574 54.2902 33.3956C53.688 31.7347 53.9997 29.7564 54.9938 29.0383C55.9855 28.3205 57.2394 29.1392 57.752 30.8053C58.2646 32.4713 57.9345 34.3245 57.03 35.039H57.03Z" fill="white"/>
<path d="M2.48241 15.604C10.4694 16.6895 12.8518 17.1709 22.7443 18.5612C24.2157 18.7687 26.7758 18.1382 28.2688 17.2003C38.3023 10.9015 42.2001 9.03177 50.6144 2.89476C51.8664 1.98134 51.4174 1.15661 49.8594 1.1047C39.3925 0.753379 39.6156 0.594461 29.3379 0.00830924C27.8086 -0.0784594 25.2814 0.525626 24.0234 1.29194C15.5662 6.44338 13.4961 7.20308 3.18804 13.5126C1.65355 14.452 1.29657 15.4422 2.48399 15.6035L2.48241 15.604ZM37.383 4.85552C38.694 4.02415 40.7566 3.37946 42.1209 3.46203C43.4837 3.54456 43.6737 4.34906 42.3652 5.21817C41.0565 6.08821 38.7482 6.66925 37.3807 6.54937C36.0141 6.42912 36.0725 5.68687 37.383 4.85552H37.383ZM24.4851 8.23621C25.8291 7.4817 27.8347 6.98699 28.9943 7.12001C30.1539 7.25205 30.053 7.98958 28.7076 8.77281C27.3622 9.55703 25.268 10.0743 24.1084 9.91259C22.9492 9.75132 23.1412 8.9902 24.4851 8.23613L24.4851 8.23621ZM11.0488 11.44C12.5301 10.5903 14.7021 10.0989 15.921 10.2677C17.1401 10.4375 16.9325 11.2156 15.4249 12.0729C13.9174 12.9307 11.6707 13.5465 10.4763 13.3697C9.28183 13.1924 9.56664 12.2898 11.0488 11.4401L11.0488 11.44Z" fill="white"/>
<path d="M26.6146 24.9079C26.0048 22.8142 23.9921 20.6893 22.4459 20.4705C12.0611 18.9983 12.7476 18.9642 2.79606 17.5113C1.3148 17.2958 0.418928 18.6638 1.01215 20.453C5.00068 32.4766 6.2225 35.4792 9.61828 46.0133C10.1238 47.5818 11.7389 49.2451 13.1065 49.6279C22.295 52.2007 24.7033 53.3881 33.7777 55.9375C35.1283 56.3176 35.8455 54.9151 35.3145 53.0223C31.748 40.3091 30.7172 38.9824 26.615 24.9075L26.6146 24.9079ZM10.392 29.8113C9.11077 29.5364 7.52014 27.9906 6.96602 26.267C6.41145 24.5416 7.10844 23.2466 8.37883 23.4877C9.6516 23.7277 11.054 25.4569 11.619 27.2159C12.1825 28.9725 11.6756 30.0873 10.392 29.8114V29.8113ZM15.5533 46.0049C14.2424 45.6583 12.6923 44.0313 12.1967 42.4568C11.7029 40.8817 12.4527 39.908 13.7537 40.2168C15.0543 40.5257 16.4356 42.0192 16.941 43.6309C17.447 45.2413 16.866 46.3509 15.5532 46.0048L15.5533 46.0049ZM22.4963 32.5203C21.1886 32.2444 19.7588 30.6694 19.1425 28.842C18.5261 27.0142 18.935 25.5632 20.2413 25.8051C21.5499 26.0471 23.2927 27.9319 23.9096 29.7946C24.5246 31.6545 23.803 32.7961 22.4963 32.5203H22.4963ZM28.3362 49.5179C27.0285 49.1732 25.5568 47.4275 24.997 45.7421C24.4358 44.0572 24.9763 43.0108 26.2802 43.3178C27.5864 43.6252 29.185 45.1914 29.7462 46.9116C30.3074 48.6329 29.6434 49.8622 28.3362 49.518V49.5179Z" fill="white"/>
</g>
</svg>
