<svg width="82" height="58" viewBox="0 0 82 58" fill="none" xmlns="http://www.w3.org/2000/svg">
<g filter="url(#filter0_ddi_3343_9713)">
<path d="M10.9671 19.48C9.57506 19.48 8.38306 19.224 7.39106 18.712C6.41506 18.2 5.66306 17.464 5.13506 16.504C4.62306 15.528 4.36706 14.352 4.36706 12.976V12.016H8.78306V13.12C8.78306 13.76 8.96706 14.288 9.33506 14.704C9.71906 15.104 10.2551 15.304 10.9431 15.304C11.6311 15.304 12.1591 15.104 12.5271 14.704C12.9111 14.288 13.1031 13.76 13.1031 13.12V4.888H17.5671V12.976C17.5671 14.352 17.3031 15.528 16.7751 16.504C16.2631 17.464 15.5191 18.2 14.5431 18.712C13.5671 19.224 12.3751 19.48 10.9671 19.48ZM6.33506 5.368V1.48H17.5671V5.368H6.33506ZM19.6104 19L25.2264 1.48H32.3784L38.1864 19H33.5784L29.0664 4.6L30.3384 5.08H27.1704L28.4664 4.6L24.0744 19H19.6104ZM24.1944 14.944L25.5384 11.296H32.1864L33.5304 14.944H24.1944ZM48.5025 19.48C46.9185 19.48 45.5585 19.208 44.4225 18.664C43.2865 18.104 42.3505 17.376 41.6145 16.48C40.8785 15.568 40.3345 14.584 39.9825 13.528C39.6305 12.472 39.4545 11.448 39.4545 10.456V9.928C39.4545 8.824 39.6305 7.744 39.9825 6.688C40.3505 5.616 40.9025 4.648 41.6385 3.784C42.3905 2.92 43.3265 2.232 44.4465 1.72C45.5665 1.208 46.8785 0.951999 48.3825 0.951999C49.9825 0.951999 51.3985 1.256 52.6305 1.864C53.8785 2.456 54.8785 3.296 55.6305 4.384C56.3825 5.456 56.8225 6.704 56.9505 8.128H52.4865C52.3745 7.52 52.1345 6.992 51.7665 6.544C51.3985 6.096 50.9265 5.752 50.3505 5.512C49.7745 5.256 49.1185 5.128 48.3825 5.128C47.6945 5.128 47.0705 5.248 46.5105 5.488C45.9665 5.728 45.5025 6.072 45.1185 6.52C44.7505 6.952 44.4625 7.48 44.2545 8.104C44.0625 8.728 43.9665 9.432 43.9665 10.216C43.9665 11 44.0625 11.704 44.2545 12.328C44.4625 12.952 44.7585 13.488 45.1425 13.936C45.5425 14.384 46.0225 14.728 46.5825 14.968C47.1425 15.192 47.7825 15.304 48.5025 15.304C49.6225 15.304 50.5665 15.032 51.3345 14.488C52.1185 13.944 52.5905 13.216 52.7505 12.304H57.2145C57.0705 13.616 56.6305 14.816 55.8945 15.904C55.1585 16.992 54.1665 17.864 52.9185 18.52C51.6705 19.16 50.1985 19.48 48.5025 19.48ZM72.1847 19L66.4967 10.816H64.1207L71.2007 1.48H76.3367L70.0007 9.832V8.128L77.5607 19H72.1847ZM60.5207 19V1.48H64.9847V19H60.5207ZM19.5539 44.344V40.504H22.4339C22.9779 40.504 23.4499 40.4 23.8499 40.192C24.2499 39.968 24.5619 39.656 24.7859 39.256C25.0099 38.856 25.1219 38.384 25.1219 37.84C25.1219 37.28 25.0099 36.8 24.7859 36.4C24.5619 36 24.2499 35.696 23.8499 35.488C23.4499 35.28 22.9779 35.176 22.4339 35.176H19.5539V31.336H22.3139C23.8179 31.336 25.1139 31.592 26.2019 32.104C27.3059 32.6 28.1539 33.32 28.7459 34.264C29.3379 35.208 29.6339 36.336 29.6339 37.648V38.032C29.6339 39.328 29.3379 40.448 28.7459 41.392C28.1539 42.336 27.3059 43.064 26.2019 43.576C25.1139 44.088 23.8179 44.344 22.3139 44.344H19.5539ZM15.5699 49V31.336H20.0339V49H15.5699ZM41.3407 49.48C39.7407 49.48 38.3487 49.208 37.1647 48.664C35.9807 48.104 34.9967 47.376 34.2127 46.48C33.4287 45.568 32.8447 44.584 32.4607 43.528C32.0767 42.472 31.8847 41.448 31.8847 40.456V39.928C31.8847 38.824 32.0847 37.744 32.4847 36.688C32.8847 35.616 33.4847 34.648 34.2847 33.784C35.0847 32.92 36.0687 32.232 37.2367 31.72C38.4207 31.208 39.7887 30.952 41.3407 30.952C42.8767 30.952 44.2287 31.208 45.3967 31.72C46.5807 32.232 47.5727 32.92 48.3727 33.784C49.1727 34.648 49.7727 35.616 50.1727 36.688C50.5887 37.744 50.7967 38.824 50.7967 39.928V40.456C50.7967 41.448 50.5967 42.472 50.1967 43.528C49.8127 44.584 49.2287 45.568 48.4447 46.48C47.6607 47.376 46.6767 48.104 45.4927 48.664C44.3087 49.208 42.9247 49.48 41.3407 49.48ZM41.3407 45.304C42.1087 45.304 42.7967 45.176 43.4047 44.92C44.0127 44.664 44.5327 44.304 44.9647 43.84C45.3967 43.376 45.7247 42.84 45.9487 42.232C46.1727 41.608 46.2847 40.936 46.2847 40.216C46.2847 39.448 46.1647 38.752 45.9247 38.128C45.7007 37.504 45.3727 36.968 44.9407 36.52C44.5087 36.072 43.9887 35.728 43.3807 35.488C42.7727 35.248 42.0927 35.128 41.3407 35.128C40.5727 35.128 39.8847 35.248 39.2767 35.488C38.6687 35.728 38.1487 36.072 37.7167 36.52C37.2847 36.968 36.9567 37.504 36.7327 38.128C36.5087 38.752 36.3967 39.448 36.3967 40.216C36.3967 40.936 36.5087 41.608 36.7327 42.232C36.9567 42.84 37.2847 43.376 37.7167 43.84C38.1487 44.304 38.6687 44.664 39.2767 44.92C39.8847 45.176 40.5727 45.304 41.3407 45.304ZM57.4627 49V34.888H61.9267V49H57.4627ZM52.6627 35.368V31.48H66.7267V35.368H52.6627Z" fill="url(#paint0_linear_3343_9713)"/>
<path d="M7.39106 18.712L6.69422 20.0403L6.7031 20.0449L7.39106 18.712ZM5.13506 16.504L3.80674 17.2008L3.82074 17.2269L5.13506 16.504ZM4.36706 12.016V10.516L2.86706 12.016H4.36706ZM8.78306 12.016H10.2831L8.78306 10.516V12.016ZM9.33506 14.704L8.21157 15.6979L8.25298 15.7428L9.33506 14.704ZM12.5271 14.704L11.4249 13.6866L11.4232 13.6884L12.5271 14.704ZM13.1031 4.888V3.388L11.6031 4.888H13.1031ZM17.5671 4.888H19.0671L17.5671 3.388V4.888ZM16.7751 16.504L15.4557 15.7903L15.4515 15.7981L16.7751 16.504ZM14.5431 18.712L15.2399 20.0403H15.2399L14.5431 18.712ZM6.33506 5.368H4.83506L6.33506 6.868V5.368ZM6.33506 1.48V-0.0200005L4.83506 1.48H6.33506ZM17.5671 1.48H19.0671L17.5671 -0.0200005V1.48ZM17.5671 5.368V6.868L19.0671 5.368H17.5671ZM10.9671 17.98C9.75651 17.98 8.81221 17.7575 8.07903 17.3791L6.7031 20.0449C7.95392 20.6905 9.39362 20.98 10.9671 20.98V17.98ZM8.08789 17.3837C7.37104 17.0076 6.83456 16.4814 6.44939 15.7811L3.82074 17.2269C4.49157 18.4466 5.45909 19.3924 6.69424 20.0403L8.08789 17.3837ZM6.46338 15.8072C6.08876 15.093 5.86706 14.1684 5.86706 12.976H2.86706C2.86706 14.5356 3.15737 15.963 3.80674 17.2008L6.46338 15.8072ZM5.86706 12.976V12.016H2.86706V12.976H5.86706ZM4.36706 13.516H8.78306V10.516H4.36706V13.516ZM7.28306 12.016V13.12H10.2831V12.016H7.28306ZM7.28306 13.12C7.28306 14.0668 7.56435 14.9662 8.21157 15.6979L10.4586 13.7101C10.3698 13.6098 10.2831 13.4532 10.2831 13.12H7.28306ZM8.25298 15.7428C8.98503 16.5053 9.95143 16.804 10.9431 16.804V13.804C10.5587 13.804 10.4531 13.7027 10.4171 13.6652L8.25298 15.7428ZM10.9431 16.804C11.9317 16.804 12.9074 16.5061 13.631 15.7196L11.4232 13.6884C11.4108 13.7019 11.3304 13.804 10.9431 13.804V16.804ZM13.6293 15.7214C14.3028 14.9917 14.6031 14.0841 14.6031 13.12H11.6031C11.6031 13.4359 11.5193 13.5843 11.4249 13.6866L13.6293 15.7214ZM14.6031 13.12V4.888H11.6031V13.12H14.6031ZM13.1031 6.388H17.5671V3.388H13.1031V6.388ZM16.0671 4.888V12.976H19.0671V4.888H16.0671ZM16.0671 12.976C16.0671 14.1617 15.84 15.08 15.4557 15.7903L18.0944 17.2177C18.7662 15.976 19.0671 14.5423 19.0671 12.976H16.0671ZM15.4515 15.7981C15.0832 16.4888 14.5593 17.0096 13.8462 17.3837L15.2399 20.0403C16.4788 19.3904 17.4429 18.4392 18.0986 17.2099L15.4515 15.7981ZM13.8462 17.3837C13.1366 17.7559 12.1979 17.98 10.9671 17.98V20.98C12.5522 20.98 13.9975 20.6921 15.2399 20.0403L13.8462 17.3837ZM7.83506 5.368V1.48H4.83506V5.368H7.83506ZM6.33506 2.98H17.5671V-0.0200005H6.33506V2.98ZM16.0671 1.48V5.368H19.0671V1.48H16.0671ZM17.5671 3.868H6.33506V6.868H17.5671V3.868ZM19.6104 19L18.182 18.5421L19.6104 20.5V19ZM25.2264 1.48V-0.0200005L23.798 1.02213L25.2264 1.48ZM32.3784 1.48L33.8022 1.008L32.3784 -0.0200005V1.48ZM38.1864 19V20.5L39.6102 18.528L38.1864 19ZM33.5784 19L32.1471 19.4485L33.5784 20.5V19ZM29.0664 4.6L29.596 3.1966L27.6351 5.0485L29.0664 4.6ZM30.3384 5.08V6.58L30.868 3.6766L30.3384 5.08ZM27.1704 5.08L26.6495 3.67338L27.1704 6.58V5.08ZM28.4664 4.6L29.9012 5.0376L27.9455 3.19338L28.4664 4.6ZM24.0744 19V20.5L25.5092 19.4376L24.0744 19ZM24.1944 14.944L22.7869 14.4254L24.1944 16.444V14.944ZM25.5384 11.296V9.796L24.1309 10.7774L25.5384 11.296ZM32.1864 11.296L33.594 10.7774L32.1864 9.796V11.296ZM33.5304 14.944V16.444L34.938 14.4254L33.5304 14.944ZM21.0388 19.4579L26.6548 1.93787L23.798 1.02213L18.182 18.5421L21.0388 19.4579ZM25.2264 2.98H32.3784V-0.0200005H25.2264V2.98ZM30.9546 1.952L36.7626 19.472L39.6102 18.528L33.8022 1.008L30.9546 1.952ZM38.1864 17.5H33.5784V20.5H38.1864V17.5ZM35.0098 18.5515L30.4978 4.1515L27.6351 5.0485L32.1471 19.4485L35.0098 18.5515ZM28.5369 6.0034L29.8089 6.4834L30.868 3.6766L29.596 3.1966L28.5369 6.0034ZM30.3384 3.58H27.1704V6.58H30.3384V3.58ZM27.6914 6.48662L28.9874 6.00662L27.9455 3.19338L26.6495 3.67338L27.6914 6.48662ZM27.0317 4.1624L22.6397 18.5624L25.5092 19.4376L29.9012 5.0376L27.0317 4.1624ZM24.0744 17.5H19.6104V20.5H24.0744V17.5ZM25.602 15.4626L26.946 11.8146L24.1309 10.7774L22.7869 14.4254L25.602 15.4626ZM25.5384 12.796H32.1864V9.796H25.5384V12.796ZM30.7789 11.8146L32.1229 15.4626L34.938 14.4254L33.594 10.7774L30.7789 11.8146ZM33.5304 13.444H24.1944V16.444H33.5304V13.444ZM44.4225 18.664L43.7593 20.0094L43.7746 20.0169L44.4225 18.664ZM41.6145 16.48L40.4472 17.4221L40.4554 17.4321L41.6145 16.48ZM39.9825 13.528L41.4055 13.0537L39.9825 13.528ZM39.9825 6.688L38.5637 6.20095L38.5595 6.21366L39.9825 6.688ZM41.6385 3.784L40.507 2.79921L40.4966 2.8113L41.6385 3.784ZM44.4465 1.72L43.8229 0.355788L44.4465 1.72ZM52.6305 1.864L51.9667 3.20912L51.9876 3.21925L52.6305 1.864ZM55.6305 4.384L54.3965 5.23689L54.4025 5.24542L55.6305 4.384ZM56.9505 8.128V9.628L58.4445 7.99371L56.9505 8.128ZM52.4865 8.128L51.0113 8.39974L52.4865 9.628V8.128ZM51.7665 6.544L52.9256 5.59189V5.59189L51.7665 6.544ZM50.3505 5.512L49.7413 6.88272L49.7736 6.89662L50.3505 5.512ZM46.5105 5.488L45.9196 4.10928L45.905 4.11562L46.5105 5.488ZM45.1185 6.52L43.9796 5.54381L43.9766 5.5473L45.1185 6.52ZM44.2545 8.104L42.8315 7.62966L42.8208 7.66287L44.2545 8.104ZM44.2545 12.328L42.8208 12.7691L42.8315 12.8023L44.2545 12.328ZM45.1425 13.936L44.0036 14.9122L44.0236 14.935L45.1425 13.936ZM46.5825 14.968L45.9916 16.3467L46.0254 16.3607L46.5825 14.968ZM51.3345 14.488L50.4794 13.2556L50.4675 13.264L51.3345 14.488ZM52.7505 12.304V10.804L51.2731 12.0448L52.7505 12.304ZM57.2145 12.304L58.7055 12.4677L57.2145 10.804V12.304ZM52.9185 18.52L53.603 19.8547L53.6164 19.8477L52.9185 18.52ZM48.5025 17.98C47.0866 17.98 45.9589 17.7366 45.0704 17.3111L43.7746 20.0169C45.1581 20.6794 46.7504 20.98 48.5025 20.98V17.98ZM45.0857 17.3186C44.1233 16.8441 43.3621 16.2443 42.7736 15.5279L40.4554 17.4321C41.3389 18.5077 42.4497 19.3639 43.7593 20.0094L45.0857 17.3186ZM42.7818 15.538C42.1523 14.7579 41.6979 13.9309 41.4055 13.0537L38.5595 14.0023C38.9711 15.2371 39.6047 16.3781 40.4472 17.422L42.7818 15.538ZM41.4055 13.0537C41.0984 12.1321 40.9545 11.2684 40.9545 10.456H37.9545C37.9545 11.6276 38.1626 12.8119 38.5595 14.0023L41.4055 13.0537ZM40.9545 10.456V9.928H37.9545V10.456H40.9545ZM40.9545 9.928C40.9545 8.98657 41.1041 8.06668 41.4055 7.16234L38.5595 6.21366C38.1569 7.42132 37.9545 8.66143 37.9545 9.928H40.9545ZM41.4012 7.17503C41.7081 6.28109 42.1661 5.47779 42.7804 4.7567L40.4966 2.8113C39.6389 3.8182 38.9929 4.95091 38.5638 6.20097L41.4012 7.17503ZM42.77 4.76879C43.3713 4.07786 44.1297 3.51414 45.0701 3.08421L43.8229 0.355788C42.5233 0.949863 41.4097 1.76214 40.507 2.79921L42.77 4.76879ZM45.0701 3.08421C45.956 2.67922 47.0471 2.452 48.3825 2.452V-0.548001C46.7099 -0.548001 45.177 -0.263226 43.8229 0.355788L45.0701 3.08421ZM48.3825 2.452C49.7901 2.452 50.9726 2.71851 51.9667 3.20912L53.2943 0.518883C51.8244 -0.206515 50.1749 -0.548001 48.3825 -0.548001V2.452ZM51.9876 3.21925C53.0089 3.70373 53.8009 4.37505 54.3966 5.23687L56.8644 3.53113C55.9561 2.21695 54.7481 1.20827 53.2734 0.508746L51.9876 3.21925ZM54.4025 5.24542C54.9901 6.08306 55.3498 7.07505 55.4565 8.26229L58.4445 7.99371C58.2952 6.33295 57.7749 4.82894 56.8585 3.52258L54.4025 5.24542ZM56.9505 6.628H52.4865V9.628H56.9505V6.628ZM53.9617 7.85626C53.8068 7.01547 53.4656 6.24927 52.9256 5.59189L50.6074 7.49611C50.8034 7.73473 50.9422 8.02453 51.0113 8.39974L53.9617 7.85626ZM52.9256 5.59189C52.3901 4.93996 51.7122 4.45437 50.9274 4.12738L49.7736 6.89662C50.1408 7.04963 50.4069 7.25204 50.6074 7.49611L52.9256 5.59189ZM50.9597 4.14128C50.1624 3.78694 49.2935 3.628 48.3825 3.628V6.628C48.9435 6.628 49.3866 6.72506 49.7413 6.88272L50.9597 4.14128ZM48.3825 3.628C47.5176 3.628 46.689 3.77955 45.9196 4.10928L47.1014 6.86672C47.452 6.71645 47.8714 6.628 48.3825 6.628V3.628ZM45.905 4.11562C45.1575 4.44543 44.5107 4.92418 43.9796 5.54381L46.2574 7.49619C46.4943 7.21982 46.7755 7.01057 47.116 6.86038L45.905 4.11562ZM43.9766 5.5473C43.4656 6.14722 43.0908 6.85172 42.8315 7.62966L45.6775 8.57834C45.8342 8.10828 46.0354 7.75678 46.2604 7.4927L43.9766 5.5473ZM42.8208 7.66287C42.5771 8.4551 42.4665 9.31149 42.4665 10.216H45.4665C45.4665 9.55251 45.5479 9.0009 45.6882 8.54513L42.8208 7.66287ZM42.4665 10.216C42.4665 11.1205 42.5771 11.9769 42.8208 12.7691L45.6882 11.8869C45.5479 11.4311 45.4665 10.8795 45.4665 10.216H42.4665ZM42.8315 12.8023C43.0938 13.5893 43.4796 14.3009 44.0036 14.9122L46.2814 12.9598C46.0374 12.6751 45.8312 12.3147 45.6775 11.8537L42.8315 12.8023ZM44.0236 14.935C44.5719 15.5491 45.233 16.0216 45.9916 16.3467L47.1734 13.5893C46.812 13.4344 46.5131 13.2189 46.2614 12.937L44.0236 14.935ZM46.0254 16.3607C46.7933 16.6679 47.6278 16.804 48.5025 16.804V13.804C47.9372 13.804 47.4917 13.7161 47.1396 13.5753L46.0254 16.3607ZM48.5025 16.804C49.8727 16.804 51.1348 16.4676 52.2015 15.712L50.4675 13.264C49.9982 13.5964 49.3723 13.804 48.5025 13.804V16.804ZM52.1896 15.7204C53.2914 14.9559 53.9964 13.883 54.2279 12.5632L51.2731 12.0448C51.1846 12.549 50.9456 12.9321 50.4794 13.2556L52.1896 15.7204ZM52.7505 13.804H57.2145V10.804H52.7505V13.804ZM55.7235 12.1403C55.6059 13.2111 55.2507 14.1786 54.6521 15.0635L57.1369 16.7445C58.0103 15.4534 58.5351 14.0209 58.7055 12.4677L55.7235 12.1403ZM54.6521 15.0635C54.0647 15.9318 53.2662 16.6426 52.2206 17.1923L53.6164 19.8477C55.0668 19.0854 56.2523 18.0522 57.1369 16.7445L54.6521 15.0635ZM52.234 17.1853C51.2377 17.6962 50.0097 17.98 48.5025 17.98V20.98C50.3873 20.98 52.1033 20.6238 53.603 19.8547L52.234 17.1853ZM72.1847 19L70.953 19.8561L72.1847 20.5V19ZM66.4967 10.816L67.7284 9.95993L66.4967 9.316V10.816ZM64.1207 10.816L62.9255 9.90962L64.1207 12.316V10.816ZM71.2007 1.48V-0.0200005L70.0055 0.573621L71.2007 1.48ZM76.3367 1.48L77.5317 2.38658L76.3367 -0.0200005V1.48ZM70.0007 9.832H68.5007L71.1957 10.7386L70.0007 9.832ZM70.0007 8.128L71.2322 7.27164L68.5007 8.128H70.0007ZM77.5607 19V20.5L78.7922 18.1436L77.5607 19ZM60.5207 19H59.0207L60.5207 20.5V19ZM60.5207 1.48V-0.0200005L59.0207 1.48H60.5207ZM64.9847 1.48H66.4847L64.9847 -0.0200005V1.48ZM64.9847 19V20.5L66.4847 19H64.9847ZM73.4164 18.1439L67.7284 9.95993L65.265 11.6721L70.953 19.8561L73.4164 18.1439ZM66.4967 9.316H64.1207V12.316H66.4967V9.316ZM65.3159 11.7224L72.3959 2.38638L70.0055 0.573621L62.9255 9.90962L65.3159 11.7224ZM71.2007 2.98H76.3367V-0.0200005H71.2007V2.98ZM75.1417 0.57342L68.8057 8.92542L71.1957 10.7386L77.5317 2.38658L75.1417 0.57342ZM71.5007 9.832V8.128H68.5007V9.832H71.5007ZM68.7692 8.98436L76.3292 19.8564L78.7922 18.1436L71.2322 7.27164L68.7692 8.98436ZM77.5607 17.5H72.1847V20.5H77.5607V17.5ZM62.0207 19V1.48H59.0207V19H62.0207ZM60.5207 2.98H64.9847V-0.0200005H60.5207V2.98ZM63.4847 1.48V19H66.4847V1.48H63.4847ZM64.9847 17.5H60.5207V20.5H64.9847V17.5ZM19.5539 44.344H18.0539L19.5539 45.844V44.344ZM19.5539 40.504V39.004L18.0539 40.504H19.5539ZM23.8499 40.192L24.5419 41.5228L24.5828 41.5008L23.8499 40.192ZM24.7859 36.4L26.0947 35.6671L24.7859 36.4ZM19.5539 35.176H18.0539L19.5539 36.676V35.176ZM19.5539 31.336V29.836L18.0539 31.336H19.5539ZM26.2019 32.104L25.5632 33.4612L25.5872 33.4723L26.2019 32.104ZM28.7459 41.392L30.0167 42.1889L28.7459 41.392ZM26.2019 43.576L25.5708 42.2152L25.5632 42.2188L26.2019 43.576ZM15.5699 49H14.0699L15.5699 50.5V49ZM15.5699 31.336V29.836L14.0699 31.336H15.5699ZM20.0339 31.336H21.5339L20.0339 29.836V31.336ZM20.0339 49V50.5L21.5339 49H20.0339ZM21.0539 44.344V40.504H18.0539V44.344H21.0539ZM19.5539 42.004H22.4339V39.004H19.5539V42.004ZM22.4339 42.004C23.1695 42.004 23.8883 41.8627 24.5419 41.5228L23.1579 38.8612C23.0115 38.9373 22.7863 39.004 22.4339 39.004V42.004ZM24.5828 41.5008C25.2242 41.1416 25.7355 40.6303 26.0947 39.9889L23.4771 38.5231C23.3883 38.6817 23.2756 38.7944 23.117 38.8832L24.5828 41.5008ZM26.0947 39.9889C26.4656 39.3265 26.6219 38.5927 26.6219 37.84H23.6219C23.6219 38.1753 23.5542 38.3855 23.4771 38.5231L26.0947 39.9889ZM26.6219 37.84C26.6219 37.0798 26.469 36.3356 26.0947 35.6671L23.4771 37.1329C23.5508 37.2644 23.6219 37.4802 23.6219 37.84H26.6219ZM26.0947 35.6671C25.7303 35.0165 25.206 34.5025 24.5419 34.1572L23.1579 36.8188C23.2938 36.8895 23.3935 36.9835 23.4771 37.1329L26.0947 35.6671ZM24.5419 34.1572C23.8883 33.8173 23.1695 33.676 22.4339 33.676V36.676C22.7863 36.676 23.0115 36.7427 23.1579 36.8188L24.5419 34.1572ZM22.4339 33.676H19.5539V36.676H22.4339V33.676ZM21.0539 35.176V31.336H18.0539V35.176H21.0539ZM19.5539 32.836H22.3139V29.836H19.5539V32.836ZM22.3139 32.836C23.651 32.836 24.7186 33.0638 25.5632 33.4612L26.8406 30.7468C25.5092 30.1202 23.9849 29.836 22.3139 29.836V32.836ZM25.5872 33.4723C26.4452 33.8577 27.0542 34.3897 27.4751 35.0609L30.0167 33.4671C29.2536 32.2503 28.1666 31.3423 26.8166 30.7357L25.5872 33.4723ZM27.4751 35.0609C27.8925 35.7265 28.1339 36.5672 28.1339 37.648H31.1339C31.1339 36.1048 30.7833 34.6895 30.0167 33.4671L27.4751 35.0609ZM28.1339 37.648V38.032H31.1339V37.648H28.1339ZM28.1339 38.032C28.1339 39.0929 27.8943 39.9267 27.4751 40.5951L30.0167 42.1889C30.7815 40.9693 31.1339 39.5631 31.1339 38.032H28.1339ZM27.4751 40.5951C27.0515 41.2706 26.4368 41.8136 25.5708 42.2152L26.833 44.9368C28.175 44.3144 29.2563 43.4014 30.0167 42.1889L27.4751 40.5951ZM25.5632 42.2188C24.7186 42.6162 23.651 42.844 22.3139 42.844V45.844C23.9849 45.844 25.5092 45.5598 26.8406 44.9332L25.5632 42.2188ZM22.3139 42.844H19.5539V45.844H22.3139V42.844ZM17.0699 49V31.336H14.0699V49H17.0699ZM15.5699 32.836H20.0339V29.836H15.5699V32.836ZM18.5339 31.336V49H21.5339V31.336H18.5339ZM20.0339 47.5H15.5699V50.5H20.0339V47.5ZM37.1647 48.664L36.5233 50.02L36.5384 50.027L37.1647 48.664ZM34.2127 46.48L33.0751 47.4579L33.0838 47.4678L34.2127 46.48ZM32.4607 43.528L33.8703 43.0154L32.4607 43.528ZM32.4847 36.688L33.8874 37.2193L33.89 37.2124L32.4847 36.688ZM34.2847 33.784L35.3853 34.8031L34.2847 33.784ZM37.2367 31.72L36.6413 30.3432L36.6344 30.3462L37.2367 31.72ZM45.3967 31.72L44.7944 33.0938L44.8013 33.0968L45.3967 31.72ZM48.3727 33.784L47.272 34.8031L48.3727 33.784ZM50.1727 36.688L48.7673 37.2124L48.777 37.2378L50.1727 36.688ZM50.1967 43.528L48.7939 42.9967L48.787 43.0154L50.1967 43.528ZM48.4447 46.48L49.5736 47.4678L49.5821 47.4578L48.4447 46.48ZM45.4927 48.664L46.1189 50.027L46.134 50.02L45.4927 48.664ZM43.4047 44.92L42.8226 43.5375L43.4047 44.92ZM44.9647 43.84L43.8668 42.8179V42.8179L44.9647 43.84ZM45.9487 42.232L47.3562 42.7506L47.3604 42.7388L45.9487 42.232ZM45.9247 38.128L44.5129 38.6348L44.5246 38.6665L45.9247 38.128ZM44.9407 36.52L46.0204 35.4788L44.9407 36.52ZM37.7167 36.52L36.6369 35.4788L37.7167 36.52ZM36.7327 38.128L38.1444 38.6348L36.7327 38.128ZM36.7327 42.232L35.3208 42.7388L35.3251 42.7506L36.7327 42.232ZM37.7167 43.84L36.6188 44.8621L37.7167 43.84ZM39.2767 44.92L38.6946 46.3025L39.2767 44.92ZM41.3407 47.98C39.9087 47.98 38.739 47.7366 37.7909 47.301L36.5384 50.027C37.9583 50.6794 39.5726 50.98 41.3407 50.98V47.98ZM37.806 47.308C36.7893 46.8271 35.977 46.2185 35.3415 45.4922L33.0838 47.4678C34.0163 48.5335 35.172 49.3808 36.5233 50.02L37.806 47.308ZM35.3501 45.5022C34.6759 44.7178 34.1882 43.8895 33.8703 43.0154L31.051 44.0406C31.5011 45.2785 32.1815 46.4182 33.0752 47.4578L35.3501 45.5022ZM33.8703 43.0154C33.5382 42.1021 33.3847 41.2516 33.3847 40.456H30.3847C30.3847 41.6444 30.6151 42.8419 31.051 44.0406L33.8703 43.0154ZM33.3847 40.456V39.928H30.3847V40.456H33.3847ZM33.3847 39.928C33.3847 39.0097 33.5502 38.1095 33.8874 37.2193L31.0819 36.1567C30.6191 37.3785 30.3847 38.6383 30.3847 39.928H33.3847ZM33.89 37.2124C34.2197 36.3289 34.7142 35.5279 35.3853 34.8031L33.184 32.7649C32.2551 33.7681 31.5497 34.903 31.0793 36.1636L33.89 37.2124ZM35.3853 34.8031C36.034 34.1025 36.8438 33.53 37.8389 33.0938L36.6344 30.3462C35.2935 30.934 34.1353 31.7375 33.184 32.7649L35.3853 34.8031ZM37.832 33.0968C38.7939 32.6808 39.9527 32.452 41.3407 32.452V29.452C39.6246 29.452 38.0474 29.7352 36.6413 30.3432L37.832 33.0968ZM41.3407 32.452C42.7109 32.452 43.851 32.6802 44.7944 33.0938L45.9989 30.3462C44.6063 29.7358 43.0424 29.452 41.3407 29.452V32.452ZM44.8013 33.0968C45.8123 33.534 46.6268 34.1063 47.272 34.8031L49.4733 32.7649C48.5185 31.7337 47.349 30.93 45.992 30.3432L44.8013 33.0968ZM47.272 34.8031C47.9431 35.5279 48.4377 36.3289 48.7673 37.2124L51.578 36.1636C51.1077 34.9031 50.4022 33.7681 49.4733 32.7649L47.272 34.8031ZM48.777 37.2378C49.126 38.1237 49.2967 39.0175 49.2967 39.928H52.2967C52.2967 38.6305 52.0513 37.3643 51.5683 36.1382L48.777 37.2378ZM49.2967 39.928V40.456H52.2967V39.928H49.2967ZM49.2967 40.456C49.2967 41.2432 49.1384 42.0872 48.7939 42.9967L51.5994 44.0593C52.0549 42.8568 52.2967 41.6528 52.2967 40.456H49.2967ZM48.787 43.0154C48.4691 43.8895 47.9815 44.7178 47.3072 45.5022L49.5821 47.4578C50.4759 46.4182 51.1562 45.2785 51.6063 44.0406L48.787 43.0154ZM47.3158 45.4922C46.6803 46.2185 45.868 46.8271 44.8513 47.308L46.134 50.02C47.4853 49.3808 48.641 48.5335 49.5735 47.4678L47.3158 45.4922ZM44.8664 47.301C43.9165 47.7374 42.7542 47.98 41.3407 47.98V50.98C43.0951 50.98 44.7008 50.6786 46.1189 50.027L44.8664 47.301ZM41.3407 46.804C42.2761 46.804 43.1668 46.6477 43.9867 46.3025L42.8226 43.5375C42.4265 43.7043 41.9412 43.804 41.3407 43.804V46.804ZM43.9867 46.3025C44.7821 45.9676 45.4801 45.4877 46.0625 44.8621L43.8668 42.8179C43.5852 43.1203 43.2432 43.3604 42.8226 43.5375L43.9867 46.3025ZM46.0625 44.8621C46.6331 44.2492 47.0649 43.5411 47.3562 42.7506L44.5411 41.7134C44.3844 42.1389 44.1602 42.5028 43.8668 42.8179L46.0625 44.8621ZM47.3604 42.7388C47.6476 41.9388 47.7847 41.0939 47.7847 40.216H44.7847C44.7847 40.7781 44.6977 41.2772 44.5369 41.7252L47.3604 42.7388ZM47.7847 40.216C47.7847 39.2909 47.6398 38.4089 47.3247 37.5895L44.5246 38.6665C44.6895 39.0951 44.7847 39.6051 44.7847 40.216H47.7847ZM47.3364 37.6212C47.0456 36.8109 46.6091 36.0893 46.0204 35.4788L43.8609 37.5612C44.1362 37.8467 44.3558 38.1971 44.5129 38.6348L47.3364 37.6212ZM46.0204 35.4788C45.432 34.8685 44.7288 34.4075 43.9314 34.0928L42.8299 36.8832C43.2485 37.0485 43.5853 37.2755 43.8609 37.5612L46.0204 35.4788ZM43.9314 34.0928C43.1237 33.7739 42.2532 33.628 41.3407 33.628V36.628C41.9322 36.628 42.4216 36.7221 42.8299 36.8832L43.9314 34.0928ZM41.3407 33.628C40.4165 33.628 39.5371 33.7726 38.7259 34.0928L39.8274 36.8832C40.2322 36.7234 40.7288 36.628 41.3407 36.628V33.628ZM38.7259 34.0928C37.9285 34.4075 37.2253 34.8685 36.6369 35.4788L38.7964 37.5612C39.072 37.2755 39.4088 37.0485 39.8274 36.8832L38.7259 34.0928ZM36.6369 35.4788C36.0482 36.0893 35.6118 36.8109 35.3209 37.6212L38.1444 38.6348C38.3016 38.1971 38.5211 37.8467 38.7964 37.5612L36.6369 35.4788ZM35.3209 37.6212C35.0301 38.4313 34.8967 39.3021 34.8967 40.216H37.8967C37.8967 39.5939 37.9873 39.0727 38.1444 38.6348L35.3209 37.6212ZM34.8967 40.216C34.8967 41.0939 35.0337 41.9388 35.3209 42.7388L38.1444 41.7252C37.9836 41.2772 37.8967 40.7781 37.8967 40.216H34.8967ZM35.3251 42.7506C35.6164 43.5411 36.0482 44.2492 36.6188 44.8621L38.8145 42.8179C38.5211 42.5028 38.2969 42.1389 38.1402 41.7134L35.3251 42.7506ZM36.6188 44.8621C37.2012 45.4877 37.8992 45.9676 38.6946 46.3025L39.8587 43.5375C39.4381 43.3604 39.0961 43.1203 38.8145 42.8179L36.6188 44.8621ZM38.6946 46.3025C39.5145 46.6477 40.4052 46.804 41.3407 46.804V43.804C40.7401 43.804 40.2548 43.7043 39.8587 43.5375L38.6946 46.3025ZM57.4627 49H55.9627L57.4627 50.5V49ZM57.4627 34.888V33.388L55.9627 34.888H57.4627ZM61.9267 34.888H63.4267L61.9267 33.388V34.888ZM61.9267 49V50.5L63.4267 49H61.9267ZM52.6627 35.368H51.1627L52.6627 36.868V35.368ZM52.6627 31.48V29.98L51.1627 31.48H52.6627ZM66.7267 31.48H68.2267L66.7267 29.98V31.48ZM66.7267 35.368V36.868L68.2267 35.368H66.7267ZM58.9627 49V34.888H55.9627V49H58.9627ZM57.4627 36.388H61.9267V33.388H57.4627V36.388ZM60.4267 34.888V49H63.4267V34.888H60.4267ZM61.9267 47.5H57.4627V50.5H61.9267V47.5ZM54.1627 35.368V31.48H51.1627V35.368H54.1627ZM52.6627 32.98H66.7267V29.98H52.6627V32.98ZM65.2267 31.48V35.368H68.2267V31.48H65.2267ZM66.7267 33.868H52.6627V36.868H66.7267V33.868Z" fill="url(#paint1_linear_3343_9713)"/>
<path d="M7.39106 18.712L6.69422 20.0403L6.7031 20.0449L7.39106 18.712ZM5.13506 16.504L3.80674 17.2008L3.82074 17.2269L5.13506 16.504ZM4.36706 12.016V10.516L2.86706 12.016H4.36706ZM8.78306 12.016H10.2831L8.78306 10.516V12.016ZM9.33506 14.704L8.21157 15.6979L8.25298 15.7428L9.33506 14.704ZM12.5271 14.704L11.4249 13.6866L11.4232 13.6884L12.5271 14.704ZM13.1031 4.888V3.388L11.6031 4.888H13.1031ZM17.5671 4.888H19.0671L17.5671 3.388V4.888ZM16.7751 16.504L15.4557 15.7903L15.4515 15.7981L16.7751 16.504ZM14.5431 18.712L15.2399 20.0403H15.2399L14.5431 18.712ZM6.33506 5.368H4.83506L6.33506 6.868V5.368ZM6.33506 1.48V-0.0200005L4.83506 1.48H6.33506ZM17.5671 1.48H19.0671L17.5671 -0.0200005V1.48ZM17.5671 5.368V6.868L19.0671 5.368H17.5671ZM10.9671 17.98C9.75651 17.98 8.81221 17.7575 8.07903 17.3791L6.7031 20.0449C7.95392 20.6905 9.39362 20.98 10.9671 20.98V17.98ZM8.08789 17.3837C7.37104 17.0076 6.83456 16.4814 6.44939 15.7811L3.82074 17.2269C4.49157 18.4466 5.45909 19.3924 6.69424 20.0403L8.08789 17.3837ZM6.46338 15.8072C6.08876 15.093 5.86706 14.1684 5.86706 12.976H2.86706C2.86706 14.5356 3.15737 15.963 3.80674 17.2008L6.46338 15.8072ZM5.86706 12.976V12.016H2.86706V12.976H5.86706ZM4.36706 13.516H8.78306V10.516H4.36706V13.516ZM7.28306 12.016V13.12H10.2831V12.016H7.28306ZM7.28306 13.12C7.28306 14.0668 7.56435 14.9662 8.21157 15.6979L10.4586 13.7101C10.3698 13.6098 10.2831 13.4532 10.2831 13.12H7.28306ZM8.25298 15.7428C8.98503 16.5053 9.95143 16.804 10.9431 16.804V13.804C10.5587 13.804 10.4531 13.7027 10.4171 13.6652L8.25298 15.7428ZM10.9431 16.804C11.9317 16.804 12.9074 16.5061 13.631 15.7196L11.4232 13.6884C11.4108 13.7019 11.3304 13.804 10.9431 13.804V16.804ZM13.6293 15.7214C14.3028 14.9917 14.6031 14.0841 14.6031 13.12H11.6031C11.6031 13.4359 11.5193 13.5843 11.4249 13.6866L13.6293 15.7214ZM14.6031 13.12V4.888H11.6031V13.12H14.6031ZM13.1031 6.388H17.5671V3.388H13.1031V6.388ZM16.0671 4.888V12.976H19.0671V4.888H16.0671ZM16.0671 12.976C16.0671 14.1617 15.84 15.08 15.4557 15.7903L18.0944 17.2177C18.7662 15.976 19.0671 14.5423 19.0671 12.976H16.0671ZM15.4515 15.7981C15.0832 16.4888 14.5593 17.0096 13.8462 17.3837L15.2399 20.0403C16.4788 19.3904 17.4429 18.4392 18.0986 17.2099L15.4515 15.7981ZM13.8462 17.3837C13.1366 17.7559 12.1979 17.98 10.9671 17.98V20.98C12.5522 20.98 13.9975 20.6921 15.2399 20.0403L13.8462 17.3837ZM7.83506 5.368V1.48H4.83506V5.368H7.83506ZM6.33506 2.98H17.5671V-0.0200005H6.33506V2.98ZM16.0671 1.48V5.368H19.0671V1.48H16.0671ZM17.5671 3.868H6.33506V6.868H17.5671V3.868ZM19.6104 19L18.182 18.5421L19.6104 20.5V19ZM25.2264 1.48V-0.0200005L23.798 1.02213L25.2264 1.48ZM32.3784 1.48L33.8022 1.008L32.3784 -0.0200005V1.48ZM38.1864 19V20.5L39.6102 18.528L38.1864 19ZM33.5784 19L32.1471 19.4485L33.5784 20.5V19ZM29.0664 4.6L29.596 3.1966L27.6351 5.0485L29.0664 4.6ZM30.3384 5.08V6.58L30.868 3.6766L30.3384 5.08ZM27.1704 5.08L26.6495 3.67338L27.1704 6.58V5.08ZM28.4664 4.6L29.9012 5.0376L27.9455 3.19338L28.4664 4.6ZM24.0744 19V20.5L25.5092 19.4376L24.0744 19ZM24.1944 14.944L22.7869 14.4254L24.1944 16.444V14.944ZM25.5384 11.296V9.796L24.1309 10.7774L25.5384 11.296ZM32.1864 11.296L33.594 10.7774L32.1864 9.796V11.296ZM33.5304 14.944V16.444L34.938 14.4254L33.5304 14.944ZM21.0388 19.4579L26.6548 1.93787L23.798 1.02213L18.182 18.5421L21.0388 19.4579ZM25.2264 2.98H32.3784V-0.0200005H25.2264V2.98ZM30.9546 1.952L36.7626 19.472L39.6102 18.528L33.8022 1.008L30.9546 1.952ZM38.1864 17.5H33.5784V20.5H38.1864V17.5ZM35.0098 18.5515L30.4978 4.1515L27.6351 5.0485L32.1471 19.4485L35.0098 18.5515ZM28.5369 6.0034L29.8089 6.4834L30.868 3.6766L29.596 3.1966L28.5369 6.0034ZM30.3384 3.58H27.1704V6.58H30.3384V3.58ZM27.6914 6.48662L28.9874 6.00662L27.9455 3.19338L26.6495 3.67338L27.6914 6.48662ZM27.0317 4.1624L22.6397 18.5624L25.5092 19.4376L29.9012 5.0376L27.0317 4.1624ZM24.0744 17.5H19.6104V20.5H24.0744V17.5ZM25.602 15.4626L26.946 11.8146L24.1309 10.7774L22.7869 14.4254L25.602 15.4626ZM25.5384 12.796H32.1864V9.796H25.5384V12.796ZM30.7789 11.8146L32.1229 15.4626L34.938 14.4254L33.594 10.7774L30.7789 11.8146ZM33.5304 13.444H24.1944V16.444H33.5304V13.444ZM44.4225 18.664L43.7593 20.0094L43.7746 20.0169L44.4225 18.664ZM41.6145 16.48L40.4472 17.4221L40.4554 17.4321L41.6145 16.48ZM39.9825 13.528L41.4055 13.0537L39.9825 13.528ZM39.9825 6.688L38.5637 6.20095L38.5595 6.21366L39.9825 6.688ZM41.6385 3.784L40.507 2.79921L40.4966 2.8113L41.6385 3.784ZM44.4465 1.72L43.8229 0.355788L44.4465 1.72ZM52.6305 1.864L51.9667 3.20912L51.9876 3.21925L52.6305 1.864ZM55.6305 4.384L54.3965 5.23689L54.4025 5.24542L55.6305 4.384ZM56.9505 8.128V9.628L58.4445 7.99371L56.9505 8.128ZM52.4865 8.128L51.0113 8.39974L52.4865 9.628V8.128ZM51.7665 6.544L52.9256 5.59189V5.59189L51.7665 6.544ZM50.3505 5.512L49.7413 6.88272L49.7736 6.89662L50.3505 5.512ZM46.5105 5.488L45.9196 4.10928L45.905 4.11562L46.5105 5.488ZM45.1185 6.52L43.9796 5.54381L43.9766 5.5473L45.1185 6.52ZM44.2545 8.104L42.8315 7.62966L42.8208 7.66287L44.2545 8.104ZM44.2545 12.328L42.8208 12.7691L42.8315 12.8023L44.2545 12.328ZM45.1425 13.936L44.0036 14.9122L44.0236 14.935L45.1425 13.936ZM46.5825 14.968L45.9916 16.3467L46.0254 16.3607L46.5825 14.968ZM51.3345 14.488L50.4794 13.2556L50.4675 13.264L51.3345 14.488ZM52.7505 12.304V10.804L51.2731 12.0448L52.7505 12.304ZM57.2145 12.304L58.7055 12.4677L57.2145 10.804V12.304ZM52.9185 18.52L53.603 19.8547L53.6164 19.8477L52.9185 18.52ZM48.5025 17.98C47.0866 17.98 45.9589 17.7366 45.0704 17.3111L43.7746 20.0169C45.1581 20.6794 46.7504 20.98 48.5025 20.98V17.98ZM45.0857 17.3186C44.1233 16.8441 43.3621 16.2443 42.7736 15.5279L40.4554 17.4321C41.3389 18.5077 42.4497 19.3639 43.7593 20.0094L45.0857 17.3186ZM42.7818 15.538C42.1523 14.7579 41.6979 13.9309 41.4055 13.0537L38.5595 14.0023C38.9711 15.2371 39.6047 16.3781 40.4472 17.422L42.7818 15.538ZM41.4055 13.0537C41.0984 12.1321 40.9545 11.2684 40.9545 10.456H37.9545C37.9545 11.6276 38.1626 12.8119 38.5595 14.0023L41.4055 13.0537ZM40.9545 10.456V9.928H37.9545V10.456H40.9545ZM40.9545 9.928C40.9545 8.98657 41.1041 8.06668 41.4055 7.16234L38.5595 6.21366C38.1569 7.42132 37.9545 8.66143 37.9545 9.928H40.9545ZM41.4012 7.17503C41.7081 6.28109 42.1661 5.47779 42.7804 4.7567L40.4966 2.8113C39.6389 3.8182 38.9929 4.95091 38.5638 6.20097L41.4012 7.17503ZM42.77 4.76879C43.3713 4.07786 44.1297 3.51414 45.0701 3.08421L43.8229 0.355788C42.5233 0.949863 41.4097 1.76214 40.507 2.79921L42.77 4.76879ZM45.0701 3.08421C45.956 2.67922 47.0471 2.452 48.3825 2.452V-0.548001C46.7099 -0.548001 45.177 -0.263226 43.8229 0.355788L45.0701 3.08421ZM48.3825 2.452C49.7901 2.452 50.9726 2.71851 51.9667 3.20912L53.2943 0.518883C51.8244 -0.206515 50.1749 -0.548001 48.3825 -0.548001V2.452ZM51.9876 3.21925C53.0089 3.70373 53.8009 4.37505 54.3966 5.23687L56.8644 3.53113C55.9561 2.21695 54.7481 1.20827 53.2734 0.508746L51.9876 3.21925ZM54.4025 5.24542C54.9901 6.08306 55.3498 7.07505 55.4565 8.26229L58.4445 7.99371C58.2952 6.33295 57.7749 4.82894 56.8585 3.52258L54.4025 5.24542ZM56.9505 6.628H52.4865V9.628H56.9505V6.628ZM53.9617 7.85626C53.8068 7.01547 53.4656 6.24927 52.9256 5.59189L50.6074 7.49611C50.8034 7.73473 50.9422 8.02453 51.0113 8.39974L53.9617 7.85626ZM52.9256 5.59189C52.3901 4.93996 51.7122 4.45437 50.9274 4.12738L49.7736 6.89662C50.1408 7.04963 50.4069 7.25204 50.6074 7.49611L52.9256 5.59189ZM50.9597 4.14128C50.1624 3.78694 49.2935 3.628 48.3825 3.628V6.628C48.9435 6.628 49.3866 6.72506 49.7413 6.88272L50.9597 4.14128ZM48.3825 3.628C47.5176 3.628 46.689 3.77955 45.9196 4.10928L47.1014 6.86672C47.452 6.71645 47.8714 6.628 48.3825 6.628V3.628ZM45.905 4.11562C45.1575 4.44543 44.5107 4.92418 43.9796 5.54381L46.2574 7.49619C46.4943 7.21982 46.7755 7.01057 47.116 6.86038L45.905 4.11562ZM43.9766 5.5473C43.4656 6.14722 43.0908 6.85172 42.8315 7.62966L45.6775 8.57834C45.8342 8.10828 46.0354 7.75678 46.2604 7.4927L43.9766 5.5473ZM42.8208 7.66287C42.5771 8.4551 42.4665 9.31149 42.4665 10.216H45.4665C45.4665 9.55251 45.5479 9.0009 45.6882 8.54513L42.8208 7.66287ZM42.4665 10.216C42.4665 11.1205 42.5771 11.9769 42.8208 12.7691L45.6882 11.8869C45.5479 11.4311 45.4665 10.8795 45.4665 10.216H42.4665ZM42.8315 12.8023C43.0938 13.5893 43.4796 14.3009 44.0036 14.9122L46.2814 12.9598C46.0374 12.6751 45.8312 12.3147 45.6775 11.8537L42.8315 12.8023ZM44.0236 14.935C44.5719 15.5491 45.233 16.0216 45.9916 16.3467L47.1734 13.5893C46.812 13.4344 46.5131 13.2189 46.2614 12.937L44.0236 14.935ZM46.0254 16.3607C46.7933 16.6679 47.6278 16.804 48.5025 16.804V13.804C47.9372 13.804 47.4917 13.7161 47.1396 13.5753L46.0254 16.3607ZM48.5025 16.804C49.8727 16.804 51.1348 16.4676 52.2015 15.712L50.4675 13.264C49.9982 13.5964 49.3723 13.804 48.5025 13.804V16.804ZM52.1896 15.7204C53.2914 14.9559 53.9964 13.883 54.2279 12.5632L51.2731 12.0448C51.1846 12.549 50.9456 12.9321 50.4794 13.2556L52.1896 15.7204ZM52.7505 13.804H57.2145V10.804H52.7505V13.804ZM55.7235 12.1403C55.6059 13.2111 55.2507 14.1786 54.6521 15.0635L57.1369 16.7445C58.0103 15.4534 58.5351 14.0209 58.7055 12.4677L55.7235 12.1403ZM54.6521 15.0635C54.0647 15.9318 53.2662 16.6426 52.2206 17.1923L53.6164 19.8477C55.0668 19.0854 56.2523 18.0522 57.1369 16.7445L54.6521 15.0635ZM52.234 17.1853C51.2377 17.6962 50.0097 17.98 48.5025 17.98V20.98C50.3873 20.98 52.1033 20.6238 53.603 19.8547L52.234 17.1853ZM72.1847 19L70.953 19.8561L72.1847 20.5V19ZM66.4967 10.816L67.7284 9.95993L66.4967 9.316V10.816ZM64.1207 10.816L62.9255 9.90962L64.1207 12.316V10.816ZM71.2007 1.48V-0.0200005L70.0055 0.573621L71.2007 1.48ZM76.3367 1.48L77.5317 2.38658L76.3367 -0.0200005V1.48ZM70.0007 9.832H68.5007L71.1957 10.7386L70.0007 9.832ZM70.0007 8.128L71.2322 7.27164L68.5007 8.128H70.0007ZM77.5607 19V20.5L78.7922 18.1436L77.5607 19ZM60.5207 19H59.0207L60.5207 20.5V19ZM60.5207 1.48V-0.0200005L59.0207 1.48H60.5207ZM64.9847 1.48H66.4847L64.9847 -0.0200005V1.48ZM64.9847 19V20.5L66.4847 19H64.9847ZM73.4164 18.1439L67.7284 9.95993L65.265 11.6721L70.953 19.8561L73.4164 18.1439ZM66.4967 9.316H64.1207V12.316H66.4967V9.316ZM65.3159 11.7224L72.3959 2.38638L70.0055 0.573621L62.9255 9.90962L65.3159 11.7224ZM71.2007 2.98H76.3367V-0.0200005H71.2007V2.98ZM75.1417 0.57342L68.8057 8.92542L71.1957 10.7386L77.5317 2.38658L75.1417 0.57342ZM71.5007 9.832V8.128H68.5007V9.832H71.5007ZM68.7692 8.98436L76.3292 19.8564L78.7922 18.1436L71.2322 7.27164L68.7692 8.98436ZM77.5607 17.5H72.1847V20.5H77.5607V17.5ZM62.0207 19V1.48H59.0207V19H62.0207ZM60.5207 2.98H64.9847V-0.0200005H60.5207V2.98ZM63.4847 1.48V19H66.4847V1.48H63.4847ZM64.9847 17.5H60.5207V20.5H64.9847V17.5ZM19.5539 44.344H18.0539L19.5539 45.844V44.344ZM19.5539 40.504V39.004L18.0539 40.504H19.5539ZM23.8499 40.192L24.5419 41.5228L24.5828 41.5008L23.8499 40.192ZM24.7859 36.4L26.0947 35.6671L24.7859 36.4ZM19.5539 35.176H18.0539L19.5539 36.676V35.176ZM19.5539 31.336V29.836L18.0539 31.336H19.5539ZM26.2019 32.104L25.5632 33.4612L25.5872 33.4723L26.2019 32.104ZM28.7459 41.392L30.0167 42.1889L28.7459 41.392ZM26.2019 43.576L25.5708 42.2152L25.5632 42.2188L26.2019 43.576ZM15.5699 49H14.0699L15.5699 50.5V49ZM15.5699 31.336V29.836L14.0699 31.336H15.5699ZM20.0339 31.336H21.5339L20.0339 29.836V31.336ZM20.0339 49V50.5L21.5339 49H20.0339ZM21.0539 44.344V40.504H18.0539V44.344H21.0539ZM19.5539 42.004H22.4339V39.004H19.5539V42.004ZM22.4339 42.004C23.1695 42.004 23.8883 41.8627 24.5419 41.5228L23.1579 38.8612C23.0115 38.9373 22.7863 39.004 22.4339 39.004V42.004ZM24.5828 41.5008C25.2242 41.1416 25.7355 40.6303 26.0947 39.9889L23.4771 38.5231C23.3883 38.6817 23.2756 38.7944 23.117 38.8832L24.5828 41.5008ZM26.0947 39.9889C26.4656 39.3265 26.6219 38.5927 26.6219 37.84H23.6219C23.6219 38.1753 23.5542 38.3855 23.4771 38.5231L26.0947 39.9889ZM26.6219 37.84C26.6219 37.0798 26.469 36.3356 26.0947 35.6671L23.4771 37.1329C23.5508 37.2644 23.6219 37.4802 23.6219 37.84H26.6219ZM26.0947 35.6671C25.7303 35.0165 25.206 34.5025 24.5419 34.1572L23.1579 36.8188C23.2938 36.8895 23.3935 36.9835 23.4771 37.1329L26.0947 35.6671ZM24.5419 34.1572C23.8883 33.8173 23.1695 33.676 22.4339 33.676V36.676C22.7863 36.676 23.0115 36.7427 23.1579 36.8188L24.5419 34.1572ZM22.4339 33.676H19.5539V36.676H22.4339V33.676ZM21.0539 35.176V31.336H18.0539V35.176H21.0539ZM19.5539 32.836H22.3139V29.836H19.5539V32.836ZM22.3139 32.836C23.651 32.836 24.7186 33.0638 25.5632 33.4612L26.8406 30.7468C25.5092 30.1202 23.9849 29.836 22.3139 29.836V32.836ZM25.5872 33.4723C26.4452 33.8577 27.0542 34.3897 27.4751 35.0609L30.0167 33.4671C29.2536 32.2503 28.1666 31.3423 26.8166 30.7357L25.5872 33.4723ZM27.4751 35.0609C27.8925 35.7265 28.1339 36.5672 28.1339 37.648H31.1339C31.1339 36.1048 30.7833 34.6895 30.0167 33.4671L27.4751 35.0609ZM28.1339 37.648V38.032H31.1339V37.648H28.1339ZM28.1339 38.032C28.1339 39.0929 27.8943 39.9267 27.4751 40.5951L30.0167 42.1889C30.7815 40.9693 31.1339 39.5631 31.1339 38.032H28.1339ZM27.4751 40.5951C27.0515 41.2706 26.4368 41.8136 25.5708 42.2152L26.833 44.9368C28.175 44.3144 29.2563 43.4014 30.0167 42.1889L27.4751 40.5951ZM25.5632 42.2188C24.7186 42.6162 23.651 42.844 22.3139 42.844V45.844C23.9849 45.844 25.5092 45.5598 26.8406 44.9332L25.5632 42.2188ZM22.3139 42.844H19.5539V45.844H22.3139V42.844ZM17.0699 49V31.336H14.0699V49H17.0699ZM15.5699 32.836H20.0339V29.836H15.5699V32.836ZM18.5339 31.336V49H21.5339V31.336H18.5339ZM20.0339 47.5H15.5699V50.5H20.0339V47.5ZM37.1647 48.664L36.5233 50.02L36.5384 50.027L37.1647 48.664ZM34.2127 46.48L33.0751 47.4579L33.0838 47.4678L34.2127 46.48ZM32.4607 43.528L33.8703 43.0154L32.4607 43.528ZM32.4847 36.688L33.8874 37.2193L33.89 37.2124L32.4847 36.688ZM34.2847 33.784L35.3853 34.8031L34.2847 33.784ZM37.2367 31.72L36.6413 30.3432L36.6344 30.3462L37.2367 31.72ZM45.3967 31.72L44.7944 33.0938L44.8013 33.0968L45.3967 31.72ZM48.3727 33.784L47.272 34.8031L48.3727 33.784ZM50.1727 36.688L48.7673 37.2124L48.777 37.2378L50.1727 36.688ZM50.1967 43.528L48.7939 42.9967L48.787 43.0154L50.1967 43.528ZM48.4447 46.48L49.5736 47.4678L49.5821 47.4578L48.4447 46.48ZM45.4927 48.664L46.1189 50.027L46.134 50.02L45.4927 48.664ZM43.4047 44.92L42.8226 43.5375L43.4047 44.92ZM44.9647 43.84L43.8668 42.8179V42.8179L44.9647 43.84ZM45.9487 42.232L47.3562 42.7506L47.3604 42.7388L45.9487 42.232ZM45.9247 38.128L44.5129 38.6348L44.5246 38.6665L45.9247 38.128ZM44.9407 36.52L46.0204 35.4788L44.9407 36.52ZM37.7167 36.52L36.6369 35.4788L37.7167 36.52ZM36.7327 38.128L38.1444 38.6348L36.7327 38.128ZM36.7327 42.232L35.3208 42.7388L35.3251 42.7506L36.7327 42.232ZM37.7167 43.84L36.6188 44.8621L37.7167 43.84ZM39.2767 44.92L38.6946 46.3025L39.2767 44.92ZM41.3407 47.98C39.9087 47.98 38.739 47.7366 37.7909 47.301L36.5384 50.027C37.9583 50.6794 39.5726 50.98 41.3407 50.98V47.98ZM37.806 47.308C36.7893 46.8271 35.977 46.2185 35.3415 45.4922L33.0838 47.4678C34.0163 48.5335 35.172 49.3808 36.5233 50.02L37.806 47.308ZM35.3501 45.5022C34.6759 44.7178 34.1882 43.8895 33.8703 43.0154L31.051 44.0406C31.5011 45.2785 32.1815 46.4182 33.0752 47.4578L35.3501 45.5022ZM33.8703 43.0154C33.5382 42.1021 33.3847 41.2516 33.3847 40.456H30.3847C30.3847 41.6444 30.6151 42.8419 31.051 44.0406L33.8703 43.0154ZM33.3847 40.456V39.928H30.3847V40.456H33.3847ZM33.3847 39.928C33.3847 39.0097 33.5502 38.1095 33.8874 37.2193L31.0819 36.1567C30.6191 37.3785 30.3847 38.6383 30.3847 39.928H33.3847ZM33.89 37.2124C34.2197 36.3289 34.7142 35.5279 35.3853 34.8031L33.184 32.7649C32.2551 33.7681 31.5497 34.903 31.0793 36.1636L33.89 37.2124ZM35.3853 34.8031C36.034 34.1025 36.8438 33.53 37.8389 33.0938L36.6344 30.3462C35.2935 30.934 34.1353 31.7375 33.184 32.7649L35.3853 34.8031ZM37.832 33.0968C38.7939 32.6808 39.9527 32.452 41.3407 32.452V29.452C39.6246 29.452 38.0474 29.7352 36.6413 30.3432L37.832 33.0968ZM41.3407 32.452C42.7109 32.452 43.851 32.6802 44.7944 33.0938L45.9989 30.3462C44.6063 29.7358 43.0424 29.452 41.3407 29.452V32.452ZM44.8013 33.0968C45.8123 33.534 46.6268 34.1063 47.272 34.8031L49.4733 32.7649C48.5185 31.7337 47.349 30.93 45.992 30.3432L44.8013 33.0968ZM47.272 34.8031C47.9431 35.5279 48.4377 36.3289 48.7673 37.2124L51.578 36.1636C51.1077 34.9031 50.4022 33.7681 49.4733 32.7649L47.272 34.8031ZM48.777 37.2378C49.126 38.1237 49.2967 39.0175 49.2967 39.928H52.2967C52.2967 38.6305 52.0513 37.3643 51.5683 36.1382L48.777 37.2378ZM49.2967 39.928V40.456H52.2967V39.928H49.2967ZM49.2967 40.456C49.2967 41.2432 49.1384 42.0872 48.7939 42.9967L51.5994 44.0593C52.0549 42.8568 52.2967 41.6528 52.2967 40.456H49.2967ZM48.787 43.0154C48.4691 43.8895 47.9815 44.7178 47.3072 45.5022L49.5821 47.4578C50.4759 46.4182 51.1562 45.2785 51.6063 44.0406L48.787 43.0154ZM47.3158 45.4922C46.6803 46.2185 45.868 46.8271 44.8513 47.308L46.134 50.02C47.4853 49.3808 48.641 48.5335 49.5735 47.4678L47.3158 45.4922ZM44.8664 47.301C43.9165 47.7374 42.7542 47.98 41.3407 47.98V50.98C43.0951 50.98 44.7008 50.6786 46.1189 50.027L44.8664 47.301ZM41.3407 46.804C42.2761 46.804 43.1668 46.6477 43.9867 46.3025L42.8226 43.5375C42.4265 43.7043 41.9412 43.804 41.3407 43.804V46.804ZM43.9867 46.3025C44.7821 45.9676 45.4801 45.4877 46.0625 44.8621L43.8668 42.8179C43.5852 43.1203 43.2432 43.3604 42.8226 43.5375L43.9867 46.3025ZM46.0625 44.8621C46.6331 44.2492 47.0649 43.5411 47.3562 42.7506L44.5411 41.7134C44.3844 42.1389 44.1602 42.5028 43.8668 42.8179L46.0625 44.8621ZM47.3604 42.7388C47.6476 41.9388 47.7847 41.0939 47.7847 40.216H44.7847C44.7847 40.7781 44.6977 41.2772 44.5369 41.7252L47.3604 42.7388ZM47.7847 40.216C47.7847 39.2909 47.6398 38.4089 47.3247 37.5895L44.5246 38.6665C44.6895 39.0951 44.7847 39.6051 44.7847 40.216H47.7847ZM47.3364 37.6212C47.0456 36.8109 46.6091 36.0893 46.0204 35.4788L43.8609 37.5612C44.1362 37.8467 44.3558 38.1971 44.5129 38.6348L47.3364 37.6212ZM46.0204 35.4788C45.432 34.8685 44.7288 34.4075 43.9314 34.0928L42.8299 36.8832C43.2485 37.0485 43.5853 37.2755 43.8609 37.5612L46.0204 35.4788ZM43.9314 34.0928C43.1237 33.7739 42.2532 33.628 41.3407 33.628V36.628C41.9322 36.628 42.4216 36.7221 42.8299 36.8832L43.9314 34.0928ZM41.3407 33.628C40.4165 33.628 39.5371 33.7726 38.7259 34.0928L39.8274 36.8832C40.2322 36.7234 40.7288 36.628 41.3407 36.628V33.628ZM38.7259 34.0928C37.9285 34.4075 37.2253 34.8685 36.6369 35.4788L38.7964 37.5612C39.072 37.2755 39.4088 37.0485 39.8274 36.8832L38.7259 34.0928ZM36.6369 35.4788C36.0482 36.0893 35.6118 36.8109 35.3209 37.6212L38.1444 38.6348C38.3016 38.1971 38.5211 37.8467 38.7964 37.5612L36.6369 35.4788ZM35.3209 37.6212C35.0301 38.4313 34.8967 39.3021 34.8967 40.216H37.8967C37.8967 39.5939 37.9873 39.0727 38.1444 38.6348L35.3209 37.6212ZM34.8967 40.216C34.8967 41.0939 35.0337 41.9388 35.3209 42.7388L38.1444 41.7252C37.9836 41.2772 37.8967 40.7781 37.8967 40.216H34.8967ZM35.3251 42.7506C35.6164 43.5411 36.0482 44.2492 36.6188 44.8621L38.8145 42.8179C38.5211 42.5028 38.2969 42.1389 38.1402 41.7134L35.3251 42.7506ZM36.6188 44.8621C37.2012 45.4877 37.8992 45.9676 38.6946 46.3025L39.8587 43.5375C39.4381 43.3604 39.0961 43.1203 38.8145 42.8179L36.6188 44.8621ZM38.6946 46.3025C39.5145 46.6477 40.4052 46.804 41.3407 46.804V43.804C40.7401 43.804 40.2548 43.7043 39.8587 43.5375L38.6946 46.3025ZM57.4627 49H55.9627L57.4627 50.5V49ZM57.4627 34.888V33.388L55.9627 34.888H57.4627ZM61.9267 34.888H63.4267L61.9267 33.388V34.888ZM61.9267 49V50.5L63.4267 49H61.9267ZM52.6627 35.368H51.1627L52.6627 36.868V35.368ZM52.6627 31.48V29.98L51.1627 31.48H52.6627ZM66.7267 31.48H68.2267L66.7267 29.98V31.48ZM66.7267 35.368V36.868L68.2267 35.368H66.7267ZM58.9627 49V34.888H55.9627V49H58.9627ZM57.4627 36.388H61.9267V33.388H57.4627V36.388ZM60.4267 34.888V49H63.4267V34.888H60.4267ZM61.9267 47.5H57.4627V50.5H61.9267V47.5ZM54.1627 35.368V31.48H51.1627V35.368H54.1627ZM52.6627 32.98H66.7267V29.98H52.6627V32.98ZM65.2267 31.48V35.368H68.2267V31.48H65.2267ZM66.7267 33.868H52.6627V36.868H66.7267V33.868Z" fill="#FF1C1C" fill-opacity="0.2"/>
</g>
<defs>
<filter id="filter0_ddi_3343_9713" x="0.367188" y="0.951172" width="81.1953" height="56.5293" filterUnits="userSpaceOnUse" color-interpolation-filters="sRGB">
<feFlood flood-opacity="0" result="BackgroundImageFix"/>
<feColorMatrix in="SourceAlpha" type="matrix" values="0 0 0 0 0 0 0 0 0 0 0 0 0 0 0 0 0 0 127 0" result="hardAlpha"/>
<feOffset dy="3"/>
<feComposite in2="hardAlpha" operator="out"/>
<feColorMatrix type="matrix" values="0 0 0 0 0.470833 0 0 0 0 0 0 0 0 0 0 0 0 0 1 0"/>
<feBlend mode="normal" in2="BackgroundImageFix" result="effect1_dropShadow_3343_9713"/>
<feColorMatrix in="SourceAlpha" type="matrix" values="0 0 0 0 0 0 0 0 0 0 0 0 0 0 0 0 0 0 127 0" result="hardAlpha"/>
<feOffset dy="4"/>
<feGaussianBlur stdDeviation="2"/>
<feComposite in2="hardAlpha" operator="out"/>
<feColorMatrix type="matrix" values="0 0 0 0 0 0 0 0 0 0 0 0 0 0 0 0 0 0 0.25 0"/>
<feBlend mode="normal" in2="effect1_dropShadow_3343_9713" result="effect2_dropShadow_3343_9713"/>
<feBlend mode="normal" in="SourceGraphic" in2="effect2_dropShadow_3343_9713" result="shape"/>
<feColorMatrix in="SourceAlpha" type="matrix" values="0 0 0 0 0 0 0 0 0 0 0 0 0 0 0 0 0 0 127 0" result="hardAlpha"/>
<feOffset dy="4"/>
<feGaussianBlur stdDeviation="0.5"/>
<feComposite in2="hardAlpha" operator="arithmetic" k2="-1" k3="1"/>
<feColorMatrix type="matrix" values="0 0 0 0 1 0 0 0 0 1 0 0 0 0 1 0 0 0 1 0"/>
<feBlend mode="normal" in2="shape" result="effect3_innerShadow_3343_9713"/>
</filter>
<linearGradient id="paint0_linear_3343_9713" x1="40.5" y1="-4" x2="40.5" y2="56" gradientUnits="userSpaceOnUse">
<stop stop-color="#FCF572"/>
<stop offset="1" stop-color="#E6B92C"/>
</linearGradient>
<linearGradient id="paint1_linear_3343_9713" x1="40.5" y1="-4" x2="40.5" y2="56" gradientUnits="userSpaceOnUse">
<stop stop-color="#FFF731"/>
<stop offset="1" stop-color="#CF7D1E"/>
</linearGradient>
</defs>
</svg>
