<svg width="20" height="20" viewBox="0 0 20 20" fill="none" xmlns="http://www.w3.org/2000/svg">
<path d="M19.8409 8.916C18.6433 12.608 19.4368 11.478 19.3418 13.7837C19.2581 15.8086 17.6301 17.441 15.8664 18.3408C10.5228 21.0671 10.7458 19.8697 7.59109 18.7246C6.56904 18.3543 5.9164 18.4462 5.099 18.1809C5.89565 17.8567 6.72103 17.6801 7.5496 17.862C10.1857 18.4372 10.0628 16.7125 11.6162 16.9181C12.5577 17.042 13.0799 17.9696 14.0537 17.0816C15.3175 15.9296 13.3221 15.7203 15.0522 13.8949C15.7611 13.148 13.6731 11.4551 16.2729 10.0631C18.53 8.85386 16.9694 8.18586 17.3688 6.22356C17.7366 4.42519 15.0941 5.33521 15.4136 2.50991C15.428 2.38849 15.4324 2.27484 15.428 2.1665C18.455 3.93462 20.6176 6.52199 19.8409 8.916Z" fill="#855B38"/>
<path d="M16.2762 10.0655C13.6778 11.4579 15.7647 13.1509 15.0562 13.8984C13.3273 15.7243 15.3217 15.9336 14.0582 17.086C13.0849 17.9738 12.5626 17.0463 11.622 16.9224C10.0694 16.7171 10.1922 18.442 7.55749 17.8666C6.72936 17.6851 5.90442 17.8613 5.10818 18.1856C4.36378 17.9443 3.48301 17.4054 2.06079 15.9455C5.04359 16.2248 5.00611 14.1634 6.37889 13.59C7.49609 13.1239 9.73847 14.374 10.6902 12.4005C11.3449 11.0408 10.4466 10.7083 13.3038 9.30446C16.3966 7.78611 14.2436 6.06369 13.9114 4.99761C13.4186 3.41751 14.5207 4.14745 13.6108 2.37678C13.3987 1.96458 13.4549 1.58305 13.5123 1.2052C14.1758 1.48654 14.8213 1.81001 15.4317 2.16619C15.4361 2.27455 15.4317 2.38823 15.4174 2.50969C15.098 5.3358 17.7391 4.42552 17.3715 6.2244C16.972 8.18727 18.5322 8.85546 16.2762 10.0651V10.0655Z" fill="#A3784F"/>
<path d="M13.2951 9.31066C10.4384 10.7143 11.3365 11.0468 10.6819 12.4071C9.73075 14.3809 7.48872 13.1306 6.37129 13.5969C4.99872 14.1703 5.03619 16.232 2.05386 15.9526C1.99765 15.8954 1.94064 15.8365 1.88244 15.7755C0.430538 14.2561 0.0450386 13.6075 0.00238254 10.7065C-0.0219354 9.03909 0.141912 7.98921 0.401834 7.29189C0.674115 7.42726 0.913308 7.66816 1.08712 8.03298C1.59461 9.09553 0.981877 9.88856 1.0058 10.4202C1.04885 11.4047 3.47825 12.7196 4.47369 10.4284C5.2403 8.66445 6.9015 9.23908 7.84711 9.19941C9.82922 9.11516 11.0762 7.06776 10.9339 6.24651C10.8163 5.55737 9.75347 5.88701 9.36598 5.81053C7.37111 5.41709 11.134 3.85925 11.559 2.8695C12.1713 1.44458 11.4649 0.660549 10.2829 0.216797C11.3569 0.420882 12.4528 0.763206 13.5036 1.21023C13.4462 1.58854 13.3896 1.96972 13.6021 2.38198C14.5114 4.1529 13.4099 3.42286 13.9027 5.00319C14.2343 6.06901 16.3875 7.79208 13.2951 9.31066Z" fill="#C29A70"/>
<path d="M11.5581 2.86958C11.133 3.85894 7.36853 5.4168 9.36423 5.81066C9.75188 5.88714 10.8151 5.55749 10.9328 6.24665C11.0748 7.06791 9.82766 9.11574 7.84473 9.19959C6.89872 9.23926 5.23684 8.66462 4.46991 10.4286C3.47366 12.7198 1.04365 11.4045 1.00057 10.4204C0.976645 9.88874 1.58963 9.0957 1.08193 8.03314C0.90765 7.66831 0.668756 7.42741 0.396362 7.29204C1.0931 5.41843 2.4802 6.09532 2.74382 4.15137C3.25032 0.407023 6.63989 -0.477223 10.2815 0.21684C11.4644 0.6606 12.1707 1.44464 11.5581 2.86958Z" fill="#D6B48C"/>
<path d="M9.54037 1.32715C8.19733 -0.0912134 5.99939 0.895352 5.81539 2.30759C5.60346 4.08096 3.97705 3.69369 4.14708 4.62265C4.26522 5.26688 5.45978 4.78524 4.94731 6.96345C4.66433 8.16653 6.38653 7.56642 6.79842 6.43483C7.34681 4.92945 11.4757 3.37096 9.53997 1.32715H9.54037Z" fill="#DDBF9B"/>
<path d="M13.2377 4.04465C13.1902 3.96615 13.1244 3.89869 13.041 3.84554C12.1182 3.04621 10.7199 4.17671 10.9237 5.01651C10.4304 4.17794 11.9734 2.80662 12.9645 3.66645C13.1072 3.75559 13.195 3.88928 13.2377 4.04465Z" fill="#A06E44"/>
<path d="M11.8241 5.5312C11.5406 5.47764 11.326 5.38973 11.1701 5.28057C11.1701 5.27975 11.1693 5.27975 11.1693 5.27975C11.1466 5.26421 11.1258 5.24786 11.1059 5.2311C11.0277 5.16609 10.9675 5.09617 10.9244 5.02176C10.926 5.01972 10.9244 5.0189 10.924 5.01563C10.7198 4.17583 12.1181 3.04574 13.0409 3.84506C13.094 3.87859 13.1398 3.91825 13.1785 3.96281C13.2013 3.98775 13.2208 4.01515 13.2379 4.04377C13.4134 4.68895 12.7853 5.7205 11.8245 5.53079L11.8241 5.5312Z" fill="#BB8C60"/>
<path d="M11.9656 5.65226C11.641 5.59052 11.4069 5.48422 11.2478 5.35175C11.2195 5.32885 11.1935 5.30473 11.1704 5.2806C11.3263 5.38977 11.5409 5.47767 11.8245 5.53124C12.7852 5.72095 13.4133 4.68939 13.2379 4.04421C13.2207 4.01559 13.2012 3.9882 13.1784 3.96326C13.18 3.96407 13.1808 3.9653 13.1824 3.96612C13.1832 3.96653 13.184 3.96735 13.1848 3.96775C13.3224 4.05607 13.4058 4.21348 13.4082 4.37989C13.4181 5.01403 12.8255 5.82153 11.9656 5.65226Z" fill="#CDAC87"/>
<path d="M11.8244 5.53123C11.5408 5.47767 11.3263 5.38977 11.1703 5.2806C11.1703 5.27979 11.1695 5.27979 11.1695 5.27979C11.1276 5.23645 11.0933 5.19025 11.0658 5.14323C11.0678 5.14077 11.0654 5.14036 11.0654 5.13709C10.8612 4.29893 12.2551 3.16925 13.1784 3.96326C13.2011 3.9882 13.2206 4.01559 13.2378 4.04421C13.4133 4.68939 12.7851 5.72095 11.8244 5.53123Z" fill="#C8A078"/>
<path d="M9.25215 10.2413C8.90797 9.95669 8.28024 9.84344 7.29716 10.074C6.21358 10.3275 5.72304 11.5643 6.22235 12.2966C5.44985 11.6195 5.92245 10.148 7.1157 9.86797C8.31095 9.5879 8.97896 9.81564 9.25215 10.2413Z" fill="#A06E44"/>
<path d="M7.42735 12.6337C7.40701 12.6349 7.38707 12.6353 7.36633 12.6361C6.87858 12.648 6.51765 12.5294 6.26999 12.3364C6.25324 12.3234 6.23728 12.3103 6.22213 12.2968C5.72361 11.5645 6.21375 10.3277 7.29733 10.0742C8.28041 9.84322 8.90775 9.95688 9.25233 10.2414C9.28822 10.2966 9.31773 10.3559 9.33967 10.4173C9.64835 11.2489 8.76777 12.5683 7.42735 12.6337Z" fill="#BB8C60"/>
<path d="M7.5758 12.8556C7.55506 12.856 7.53512 12.8573 7.51518 12.8577C6.99472 12.8704 6.61944 12.7346 6.37098 12.5183C6.33149 12.4607 6.29799 12.4002 6.27087 12.3368C6.51854 12.5298 6.87947 12.6479 7.36722 12.6365C7.38796 12.6357 7.4079 12.6349 7.42824 12.634C8.76865 12.5686 9.64884 11.2492 9.34055 10.4176C9.36169 10.4323 9.38203 10.4474 9.40077 10.4638C9.92482 11.2684 9.01552 12.7861 7.5762 12.856L7.5758 12.8556Z" fill="#CDAC87"/>
<path d="M7.42747 12.6339C7.40713 12.6352 7.38719 12.6356 7.36645 12.6364C6.8787 12.6482 6.51778 12.5297 6.27011 12.3367C5.95186 11.5979 6.44639 10.5295 7.44502 10.2961C8.37346 10.0777 8.98524 10.1665 9.33979 10.4171C9.64847 11.2487 8.76789 12.5681 7.42747 12.6335V12.6339Z" fill="#C8A078"/>
<path d="M18.0175 13.0748C18.0965 13.1169 18.1627 13.1991 18.2125 13.3279C18.5144 14.1121 17.3048 16.2091 16.6224 16.2745C17.241 16.6384 18.9419 14.7781 18.3844 13.3639C18.3003 13.15 18.1722 13.0621 18.0175 13.0748Z" fill="#6E4122"/>
<path d="M16.4074 15.927C16.4313 16.0423 16.4764 16.1401 16.5486 16.2145C16.555 16.2222 16.5622 16.2288 16.5693 16.2357C16.5857 16.2517 16.6044 16.2643 16.6224 16.2746C17.3047 16.2087 18.5148 14.1121 18.2125 13.3279C18.163 13.1987 18.0968 13.1165 18.0174 13.0748C18.0067 13.0752 17.9955 13.0765 17.9839 13.0785C17.3107 13.1795 16.2168 15.0096 16.407 15.9266L16.4074 15.927Z" fill="#805330"/>
<path d="M16.2963 15.8728C16.3294 15.9975 16.374 16.1038 16.4586 16.1819C16.4749 16.1982 16.4937 16.2105 16.5116 16.2207C16.5236 16.2199 16.536 16.2179 16.5491 16.2146C16.4765 16.1402 16.4319 16.0425 16.4079 15.9272C16.2177 15.0101 17.3112 13.18 17.9848 13.0791C17.9605 13.0545 17.9346 13.0353 17.9075 13.021C17.2379 13.0643 15.9573 14.5927 16.2971 15.8728H16.2963Z" fill="#997351"/>
<path d="M16.4071 15.927C16.4311 16.0423 16.4761 16.14 16.5483 16.2144C17.2359 16.0807 18.3976 14.0442 18.1013 13.2739C18.069 13.1888 18.0291 13.1255 17.9841 13.0789C17.3109 13.1798 16.2169 15.0099 16.4071 15.927Z" fill="#956C49"/>
<path d="M12.3402 14.6141C13.2503 14.9224 14.3024 13.2812 13.6308 12.5968C14.5552 12.9848 13.431 15.413 12.3402 14.6141Z" fill="#875530"/>
<path d="M12.883 12.5132C12.9668 12.5079 13.045 12.5058 13.1195 12.5079C13.3233 12.5128 13.4916 12.5442 13.6312 12.5966C14.2865 13.2643 13.3014 14.842 12.4084 14.6331C12.3853 14.6278 12.363 14.6217 12.3403 14.6143C12.2445 14.5223 12.1512 14.4017 12.0679 14.2459C11.6834 13.5361 12.1799 12.5598 12.883 12.5136V12.5132Z" fill="#9D6D44"/>
<path d="M12.6623 12.496C12.8326 12.4784 12.9865 12.4891 13.1193 12.5079C13.0448 12.5058 12.9666 12.5079 12.8828 12.5132C12.1797 12.5594 11.6832 13.5357 12.0677 14.2455C12.151 14.4013 12.2443 14.5219 12.3401 14.6139C12.3628 14.6213 12.3851 14.6274 12.4082 14.6327C11.469 14.3404 11.5568 12.6101 12.6627 12.4956L12.6623 12.496Z" fill="#B38E68"/>
<path d="M12.883 12.5132C12.9668 12.5079 13.045 12.5058 13.1195 12.5079C13.228 12.523 13.3249 12.5475 13.4107 12.5794C14.0125 13.1923 13.2316 14.573 12.4084 14.6331C12.3853 14.6278 12.363 14.6217 12.3403 14.6143C12.2445 14.5223 12.1512 14.4017 12.0679 14.2459C11.6834 13.5361 12.1799 12.5598 12.883 12.5136V12.5132Z" fill="#AE845D"/>
<path d="M12.6074 7.32685C12.3805 7.20951 12.0399 7.2459 11.5816 7.57912C11.0544 7.96059 10.9954 8.52277 11.2714 8.82328C10.8295 8.58533 10.8071 7.89476 11.4201 7.45237C12.0048 7.03084 12.396 7.08644 12.6074 7.32726V7.32685Z" fill="#A06E44"/>
<path d="M12.4627 8.62225C12.0088 8.91049 11.6335 8.95792 11.3707 8.86634C11.3356 8.85489 11.3021 8.83976 11.2714 8.823C10.9954 8.52249 11.0545 7.96071 11.5821 7.57924C12.0399 7.24602 12.3805 7.21004 12.6075 7.32739C12.6075 7.32739 12.6118 7.32739 12.6106 7.32984C12.6278 7.34906 12.6433 7.36991 12.6577 7.39117C12.9002 7.75015 12.8256 8.39288 12.4627 8.62225Z" fill="#BB8C60"/>
<path d="M12.6106 8.72465C12.095 9.05133 11.6826 9.06809 11.4186 8.92581C11.401 8.907 11.3851 8.88697 11.3707 8.86653C11.6335 8.95811 12.0088 8.91027 12.4627 8.62244C12.8256 8.39306 12.9002 7.75034 12.6577 7.39136C12.6916 7.40117 12.7243 7.41384 12.7546 7.42938C12.7546 7.42938 12.7598 7.42938 12.7582 7.43265C13.0561 7.77487 12.9947 8.48179 12.6106 8.72506V8.72465Z" fill="#CDAC87"/>
<path d="M12.4628 8.62219C12.0089 8.91043 11.6337 8.95786 11.3708 8.86628C11.1527 8.55554 11.2352 8.03874 11.7294 7.68099C12.1266 7.39275 12.4353 7.32651 12.6578 7.39111C12.9003 7.75009 12.8257 8.39282 12.4628 8.62219Z" fill="#C8A078"/>
<path d="M7.67073 15.5609C8.01251 16.128 7.29305 17.2515 6.32513 16.9907C5.99451 16.9281 5.79909 16.7208 5.73169 16.4698C5.829 16.6444 6.00408 16.7789 6.25932 16.8276C7.1419 17.0655 7.81789 16.1525 7.67073 15.5609Z" fill="#875530"/>
<path d="M6.53996 15.2985C6.83429 15.238 7.06879 15.2359 7.24985 15.2785C7.3667 15.3054 7.46082 15.3496 7.535 15.4081C7.59163 15.4522 7.6359 15.5037 7.6698 15.561C7.81697 16.1526 7.14097 17.0656 6.2584 16.8276C6.04702 16.7871 5.89029 16.6878 5.7874 16.5557C5.76626 16.5283 5.74712 16.4997 5.73037 16.4699C5.60673 16.0205 5.89587 15.431 6.53916 15.2985H6.53996Z" fill="#9D6D44"/>
<path d="M6.43654 15.192C6.73047 15.1315 6.96497 15.1291 7.14563 15.1724C7.3263 15.2137 7.45392 15.2975 7.53488 15.4079C7.4607 15.3494 7.36658 15.3053 7.24973 15.2783C7.06866 15.2358 6.83416 15.2378 6.53983 15.2983C5.89615 15.4308 5.6074 16.0204 5.73104 16.4697C5.74739 16.5 5.76693 16.5282 5.78807 16.5556C5.72107 16.5004 5.66763 16.4354 5.62774 16.3634C5.50331 15.9145 5.79285 15.3249 6.43654 15.192Z" fill="#B38E68"/>
<path d="M6.53996 15.2985C6.83429 15.238 7.06879 15.2359 7.24985 15.2785C7.3667 15.3054 7.46082 15.3496 7.535 15.4081C7.54577 15.4228 7.55654 15.4383 7.56611 15.4547C7.71327 16.0463 7.03728 16.9593 6.15471 16.7213C6.00475 16.6931 5.88271 16.6342 5.7874 16.5557C5.76626 16.5283 5.74712 16.4997 5.73037 16.4699C5.60673 16.0205 5.89587 15.431 6.53916 15.2985H6.53996Z" fill="#AE845D"/>
<path d="M3.56693 6.20688C3.34519 6.04579 2.99343 6.04947 2.64008 6.33485C2.03349 6.76579 1.96409 7.42732 2.19341 7.78385C1.81055 7.51155 1.61234 6.68238 2.32781 6.17499C2.77528 5.81601 3.38308 5.9035 3.56693 6.20688Z" fill="#B18055"/>
<path d="M3.4523 7.13831C3.2824 7.39098 3.1169 7.56884 2.95896 7.68863C2.69455 7.88856 2.45805 7.91555 2.27779 7.83296C2.24748 7.81988 2.21956 7.80311 2.19284 7.78349C1.96352 7.42696 2.03292 6.76583 2.63951 6.3349C2.99326 6.0491 3.34462 6.04501 3.56636 6.20651C3.58151 6.23186 3.59547 6.25926 3.60664 6.28788C3.69757 6.50907 3.66925 6.81285 3.4519 7.1379L3.4523 7.13831Z" fill="#CEA479"/>
<path d="M3.58303 7.27213C3.41314 7.5248 3.24723 7.70266 3.0897 7.82245C2.78181 8.05509 2.51062 8.05387 2.32357 7.91772C2.30642 7.89114 2.29127 7.86293 2.27771 7.83349C2.45797 7.91608 2.69447 7.8891 2.95889 7.68916C3.11682 7.56937 3.28233 7.39111 3.45222 7.13884C3.66957 6.8138 3.69789 6.51001 3.60696 6.28882C3.63966 6.30313 3.66957 6.32071 3.69749 6.34115C3.83309 6.56562 3.8283 6.90579 3.58303 7.27254V7.27213Z" fill="#DEC2A0"/>
<path d="M3.45245 7.13823C3.28255 7.3909 3.11704 7.56876 2.95911 7.68855C2.6947 7.88849 2.4582 7.91547 2.27793 7.83288C2.10724 7.46368 2.20854 6.86756 2.77047 6.46851C3.07876 6.21911 3.38624 6.18477 3.60719 6.2878C3.69812 6.50899 3.6698 6.81277 3.45245 7.13782V7.13823Z" fill="#D7B48F"/>
<path d="M8.56821 6.51242C8.29502 6.38812 7.9006 6.45845 7.69441 6.75078C7.46788 7.07214 7.55083 7.41232 7.75503 7.61552C7.44156 7.46015 7.24734 7.03085 7.5285 6.63262C7.78334 6.27201 8.32135 6.25115 8.56821 6.51242Z" fill="#B18055"/>
<path d="M8.64513 7.11942C8.61921 7.19015 8.59089 7.25475 8.55819 7.30831C8.36636 7.63581 8.09437 7.71963 7.86226 7.65584C7.82596 7.64603 7.79007 7.63213 7.75537 7.61537C7.55118 7.41216 7.46823 7.07199 7.69435 6.75104C7.90054 6.45829 8.29537 6.38797 8.56816 6.51267C8.57893 6.52412 8.58969 6.53639 8.59887 6.54865C8.70136 6.68153 8.73526 6.8737 8.64473 7.11983L8.64513 7.11942Z" fill="#CEA479"/>
<path d="M8.78388 7.1932C8.75756 7.26352 8.72924 7.32771 8.69694 7.38209C8.4744 7.7611 8.14418 7.81344 7.89332 7.68874C7.88256 7.6777 7.87179 7.66666 7.86182 7.65521C8.09393 7.71899 8.36592 7.63518 8.55775 7.30768C8.59045 7.25412 8.61877 7.18993 8.64469 7.11879C8.73522 6.87265 8.70132 6.68049 8.59883 6.54761C8.63671 6.5566 8.67221 6.56969 8.70691 6.58481C8.83213 6.71769 8.88278 6.92335 8.78348 7.19279L8.78388 7.1932Z" fill="#DEC2A0"/>
<path d="M8.64496 7.11919C8.61904 7.18992 8.59072 7.25452 8.55802 7.30808C8.36619 7.63558 8.0942 7.71939 7.86209 7.65561C7.68182 7.44995 7.61881 7.129 7.83297 6.82399C8.01324 6.56886 8.33707 6.48218 8.5987 6.54801C8.70119 6.68089 8.73509 6.87305 8.64456 7.11919H8.64496Z" fill="#D7B48F"/>
<path d="M19.1109 8.73218C19.3545 8.51671 19.461 7.70349 19.2592 7.06853C19.1041 6.57953 18.8855 6.41313 18.6985 6.472C18.9011 6.30641 19.282 6.46669 19.4666 7.04972C19.6943 7.76768 19.4227 8.67331 19.1109 8.73259V8.73218Z" fill="#6E4122"/>
<path d="M18.7125 8.37015C18.6662 8.27775 18.6251 8.18698 18.5924 8.09867C18.3603 7.47352 18.4078 6.9281 18.5681 6.63577C18.6064 6.56708 18.6503 6.51188 18.6985 6.47263C18.8856 6.41335 19.1045 6.58016 19.2593 7.06916C19.4507 7.66937 19.3649 8.42944 19.1496 8.69233C19.1368 8.70787 19.1241 8.72055 19.1109 8.7324C18.9944 8.75612 18.8573 8.65431 18.7125 8.37015Z" fill="#805330"/>
<path d="M18.6533 8.46053C18.607 8.36894 18.5652 8.27818 18.5333 8.18904C18.2732 7.49235 18.363 6.89582 18.568 6.63538C18.4076 6.92771 18.3602 7.47313 18.5923 8.09828C18.625 8.18659 18.6661 8.27736 18.7123 8.36976C18.8575 8.65392 18.9947 8.75573 19.1107 8.73201C19.1239 8.72056 19.1367 8.70748 19.1494 8.69194C19.1199 8.74673 19.0872 8.79211 19.0513 8.82319C18.9357 8.84731 18.7985 8.7455 18.6533 8.46012V8.46053Z" fill="#997351"/>
<path d="M18.7125 8.3701C18.6662 8.2777 18.6251 8.18693 18.5924 8.09862C18.3603 7.47347 18.4078 6.92805 18.5681 6.63572C18.5908 6.60751 18.6148 6.58338 18.6391 6.56294C18.8265 6.50488 19.0451 6.67129 19.2002 7.15988C19.3721 7.70162 19.3195 8.37256 19.1496 8.69228C19.1368 8.70782 19.1241 8.7205 19.1109 8.73235C18.9944 8.75607 18.8573 8.65426 18.7125 8.3701Z" fill="#956C49"/>
<path d="M2.54645 13.0152C1.8565 12.4886 1.07403 13.3677 1.4198 13.8984C0.782495 13.4069 1.6563 12.285 2.41684 12.8742C2.46749 12.9134 2.50976 12.9613 2.54645 13.0152Z" fill="#B07C4D"/>
<path d="M2.65376 13.5111C2.57878 14.0144 2.1357 14.3051 1.51076 13.9592C1.49321 13.9494 1.47726 13.94 1.4625 13.9294C1.44695 13.9191 1.43299 13.9089 1.41983 13.8983C1.07405 13.368 1.85693 12.4885 2.54648 13.0152C2.55924 13.0331 2.57041 13.0524 2.57998 13.0724C2.65017 13.2032 2.67689 13.3611 2.65416 13.5107L2.65376 13.5111Z" fill="#BB8C60"/>
<path d="M2.72757 13.5976C2.65259 14.1017 2.20951 14.3916 1.58456 14.0457C1.55066 14.0269 1.51995 14.0064 1.49403 13.9856C1.48207 13.9676 1.4713 13.9488 1.46252 13.9296C1.47768 13.9398 1.49323 13.9496 1.51078 13.9594C2.13572 14.3057 2.57881 14.015 2.65378 13.5113C2.67652 13.3617 2.6502 13.2038 2.57961 13.073C2.59356 13.082 2.60672 13.0918 2.62028 13.102C2.7152 13.2431 2.75349 13.4254 2.72717 13.5976H2.72757Z" fill="#CDAC87"/>
<path d="M2.65391 13.5112C2.57894 14.0145 2.13585 14.3052 1.51091 13.9593C1.49336 13.9495 1.47741 13.9401 1.46265 13.9295C1.20661 13.407 1.92488 12.626 2.57973 13.0729C2.64992 13.2038 2.67665 13.3616 2.65391 13.5112Z" fill="#C8A078"/>
<path d="M10.3865 18.5519C10.1332 18.8414 10.7925 19.0486 11.4242 18.9934C11.8896 18.9542 12.1943 18.863 12.3662 18.7547C12.2362 18.9035 11.9438 19.1296 11.3456 19.1807C10.6453 19.2416 9.87718 18.8888 10.3869 18.5519H10.3865Z" fill="#6E4122"/>
<path d="M12.4263 18.6435C12.4179 18.6807 12.3976 18.7179 12.3657 18.7547C12.1942 18.8627 11.8903 18.9539 11.4241 18.9935C10.8127 19.0467 10.1758 18.8545 10.366 18.5793C10.3708 18.5703 10.3784 18.5609 10.3864 18.5519C10.3987 18.5425 10.4147 18.5323 10.431 18.5233C11.5146 17.9092 12.5144 18.2727 12.4259 18.6439L12.4263 18.6435Z" fill="#805330"/>
<path d="M12.4261 18.6435C12.5146 18.2722 11.5148 17.9087 10.4312 18.5228C10.4153 18.5318 10.3989 18.5421 10.3866 18.5515C10.3786 18.5605 10.371 18.5703 10.3662 18.5789C10.3714 18.5466 10.3885 18.5126 10.4193 18.477C10.4324 18.4676 10.4476 18.4574 10.4647 18.448C11.6209 17.793 12.6813 18.2509 12.4261 18.643V18.6435Z" fill="#997351"/>
<path d="M12.4264 18.6437C12.4192 18.656 12.41 18.6682 12.3993 18.6805C12.227 18.7884 11.9227 18.88 11.4569 18.9193C10.9017 18.9675 10.3262 18.8138 10.3665 18.5791C10.3713 18.5701 10.3789 18.5607 10.3868 18.5517C10.3992 18.5423 10.4152 18.5321 10.4315 18.5231C11.5151 17.909 12.5149 18.2724 12.4264 18.6437Z" fill="#956C49"/>
<path d="M8.42971 2.51059C8.45483 2.40061 8.45802 2.30493 8.44885 2.2436C8.38823 1.8605 7.81433 0.837124 6.51539 2.511C6.4113 2.64551 6.33393 2.77349 6.28528 2.89001C6.38498 1.47781 7.11362 0.929526 7.71144 1.05873C8.12063 1.14704 8.46879 1.6434 8.51266 2.03876C8.52343 2.13648 8.50947 2.31679 8.42971 2.511V2.51059Z" fill="#B7885E"/>
<path d="M6.27087 3.04344C6.27087 3.00909 6.27327 2.97352 6.27805 2.93713C6.27845 2.92282 6.28244 2.90565 6.28523 2.8893C7.09164 0.302846 8.67892 1.6574 8.42966 2.51028C8.42128 2.53032 8.41371 2.5479 8.40533 2.56671C8.40533 2.56671 8.40507 2.56725 8.40453 2.56834C8.37821 2.62599 8.34711 2.68159 8.31161 2.73556C7.53631 3.90163 6.27686 3.78879 6.27087 3.04344Z" fill="#D5AE86"/>
<path d="M6.23032 3.16517C6.23072 3.15086 6.23471 3.13369 6.23671 3.11815C6.24707 3.09362 6.25824 3.06868 6.271 3.04333C6.27699 3.78868 7.53644 3.90112 8.31174 2.73546C8.34723 2.68149 8.37834 2.62548 8.40466 2.56824C8.40307 2.61771 8.39589 2.67618 8.38113 2.73914C8.37316 2.75836 8.36558 2.77635 8.35641 2.79515C8.33009 2.8528 8.29938 2.90882 8.26348 2.96361C7.45309 4.18283 6.11228 4.00415 6.23032 3.16517Z" fill="#E4CBAD"/>
<path d="M6.27087 3.04345C6.31873 2.94778 6.40208 2.85742 6.46669 2.73926C7.59973 0.661839 8.33953 2.08876 8.40055 2.47145C8.40414 2.49803 8.40573 2.53074 8.40453 2.56795C8.37821 2.62559 8.34711 2.6812 8.31161 2.73517C7.53631 3.90124 6.27686 3.78839 6.27087 3.04304V3.04345Z" fill="#DDBD9A"/>
<path d="M16.5956 8.7108C15.8514 8.79912 15.8498 7.99162 16.3942 7.88572C17.1807 7.7324 16.9489 8.66869 16.5956 8.7108Z" fill="#B48F69"/>
<path d="M16.414 6.95371C16.765 6.70921 16.9724 7.11439 16.7263 7.31391C16.3705 7.60257 16.2473 7.06982 16.414 6.95371Z" fill="#B48F69"/>
<path d="M15.6876 6.94124C15.9572 6.75357 16.1159 7.06472 15.9273 7.21763C15.6541 7.43882 15.56 7.03037 15.6876 6.94124Z" fill="#B48F69"/>
<path d="M16.3741 6.23226C16.5608 6.10224 16.6713 6.31771 16.5404 6.42402C16.351 6.57734 16.2856 6.294 16.3741 6.23226Z" fill="#B48F69"/>
<path d="M15.8695 5.04313C16.0122 4.94378 16.0964 5.10855 15.9963 5.18951C15.8515 5.30685 15.8017 5.09015 15.8695 5.04313Z" fill="#B48F69"/>
<path d="M8.47616 16.7016C8.78245 15.8475 9.61638 16.2772 9.43531 16.924C9.17329 17.8591 8.33099 17.1068 8.47616 16.7016Z" fill="#B48F69"/>
<path d="M10.0024 16.2585C10.3533 16.014 10.5607 16.4192 10.3147 16.6187C9.95892 16.9074 9.83569 16.3746 10.0024 16.2585Z" fill="#B48F69"/>
<path d="M11.0179 16.218C11.2875 16.0303 11.4463 16.3415 11.2576 16.4944C10.9844 16.7156 10.8903 16.3071 11.0179 16.218Z" fill="#B48F69"/>
<path d="M10.5067 15.5675C10.6934 15.4374 10.8038 15.6529 10.673 15.7592C10.4836 15.9125 10.4182 15.6292 10.5067 15.5675Z" fill="#B48F69"/>
<path d="M8.19576 15.9783C8.33854 15.879 8.42269 16.0437 8.32259 16.1247C8.17782 16.242 8.12797 16.0253 8.19576 15.9783Z" fill="#B48F69"/>
<path d="M10.9737 15.7666C11.1165 15.6673 11.2006 15.8321 11.1005 15.913C10.9558 16.0304 10.9059 15.8137 10.9737 15.7666Z" fill="#B48F69"/>
<path d="M7.47286 17.3523C7.65871 17.2227 7.76878 17.4373 7.63837 17.5432C7.44973 17.6961 7.38472 17.4136 7.47286 17.3523Z" fill="#B48F69"/>
<path d="M3.40284 10.5112C2.52545 10.5995 2.52385 9.79203 3.16515 9.68614C4.09239 9.53282 3.8192 10.4691 3.40284 10.5112Z" fill="#DEC2A0"/>
<path d="M10.9065 1.9077C10.1623 1.99602 10.1607 1.18852 10.7051 1.08262C11.4916 0.929299 11.2599 1.86559 10.9065 1.9077Z" fill="#DEC2A0"/>
<path d="M10.3956 2.35898C10.7465 2.11448 10.9539 2.51966 10.7079 2.71919C10.3521 3.00784 10.2289 2.4751 10.3956 2.35898Z" fill="#DEC2A0"/>
<path d="M3.99272 9.05429C4.29941 8.76605 4.52314 9.07024 4.31057 9.29675C4.00269 9.62384 3.84715 9.19126 3.99272 9.05429Z" fill="#DEC2A0"/>
<path d="M5.0717 8.68128C5.307 8.44823 5.53074 8.75242 5.37001 8.93845C5.1379 9.20748 4.96003 8.79167 5.0717 8.68128Z" fill="#DEC2A0"/>
<path d="M4.49296 8.24557C4.64969 8.0902 4.79845 8.293 4.69157 8.41688C4.53683 8.59596 4.41878 8.31916 4.49296 8.24557Z" fill="#DEC2A0"/>
</svg>
