<svg xmlns="http://www.w3.org/2000/svg" width="40.299" height="34.76" viewBox="0 0 40.299 34.76">
    <g data-name="组 6974">
        <path data-name="路径 13240" d="M37.012 34.133a2.7 2.7 0 0 0-2.878 2.483v4.966h40.3v-4.966a2.7 2.7 0 0 0-2.878-2.483zm37.42 27.312h-40.3v2.483c0 2.743 2.577 4.966 5.757 4.966h28.786c3.179 0 5.757-2.223 5.757-4.966z" transform="translate(-34.133 -34.133)" style="fill:#f04e23"/>
        <path data-name="路径 13241" d="M105.279 34.133H102.4a2.7 2.7 0 0 1 2.878 2.483v24.829h28.785V36.616a2.7 2.7 0 0 1 2.878-2.483z" transform="translate(-99.521 -34.133)" style="fill:#f5a59f"/>
        <path data-name="路径 13242" d="M307.2 171.908a1.351 1.351 0 0 1 1.439-1.241h14.392a1.255 1.255 0 1 1 0 2.483h-14.392a1.351 1.351 0 0 1-1.439-1.242zm0 7.449a1.351 1.351 0 0 1 1.439-1.241h14.392a1.255 1.255 0 1 1 0 2.483h-14.392a1.351 1.351 0 0 1-1.439-1.242zm0 7.449a1.351 1.351 0 0 1 1.439-1.241h5.761a1.255 1.255 0 1 1 0 2.483h-5.757a1.351 1.351 0 0 1-1.443-1.243z" transform="translate(-295.686 -165.701)" style="fill:#fff"/>
    </g>
</svg>
