<svg xmlns="http://www.w3.org/2000/svg" width="40" height="40" viewBox="0 0 40 40">
    <g data-name="组 6977">
        <path data-name="路径 13245" d="M165.624 70.62v-.784a1.838 1.838 0 0 0-3.636 0v.784h-10.909v-.784a1.838 1.838 0 0 0-3.636 0v.784h-7.289a3.466 3.466 0 0 0-3.62 3.28v4.563h40V73.9a3.481 3.481 0 0 0-3.645-3.28" transform="translate(-136.533 -68.267)" style="fill:#f5a59f"/>
        <path data-name="路径 13246" d="M163.806 87.875a1.586 1.586 0 1 1 0 3.137h-14.545a1.586 1.586 0 1 1 0-3.137zm-16.364 9.412a1.707 1.707 0 0 1 1.818-1.569h14.545a1.586 1.586 0 1 1 0 3.137h-14.544a1.707 1.707 0 0 1-1.819-1.569zM174.715 81.6h-38.182v23.388a3.468 3.468 0 0 0 3.622 3.278h32.756a3.468 3.468 0 0 0 3.622-3.278V81.6h-1.818z" transform="translate(-136.533 -68.267)" style="fill:#f04e23"/>
    </g>
</svg>
