<svg width="50" height="90" viewBox="0 0 50 90" fill="none" xmlns="http://www.w3.org/2000/svg">
<path d="M42.6854 5.32516L37.3679 0H12.6318L7.30664 5.32516L12.6318 10.6427H37.3679L42.6854 5.32516Z" fill="url(#paint0_linear_3_12530)"/>
<path d="M7.30664 44.6824L12.6318 50H37.3679L42.6854 44.6824L37.3679 39.3649H12.6318L7.30664 44.6824Z" fill="url(#paint1_linear_3_12530)"/>
<path opacity="0.1" d="M10.6351 12.632L5.31753 7.31445L0 12.632V37.368L5.31753 42.6932L10.6351 37.368V12.632Z" fill="url(#paint2_linear_3_12530)"/>
<path d="M44.6747 42.6932L49.9999 37.368V12.632L44.6747 7.31445L39.3572 12.632V37.368L44.6747 42.6932Z" fill="url(#paint3_linear_3_12530)"/>
<path d="M7.30664 84.0398L12.6318 89.3649H37.3679L42.6854 84.0398L37.3679 78.7222H12.6318L7.30664 84.0398Z" fill="url(#paint4_linear_3_12530)"/>
<path opacity="0.1" d="M5.31753 46.6718L0 51.9969V76.733L5.31753 82.0505L10.6351 76.733V51.9969L5.31753 46.6718Z" fill="url(#paint5_linear_3_12530)"/>
<path d="M39.3572 76.733L44.6747 82.0505L49.9999 76.733V51.9969L44.6747 46.6718L39.3572 51.9969V76.733Z" fill="url(#paint6_linear_3_12530)"/>
<defs>
<linearGradient id="paint0_linear_3_12530" x1="24.996" y1="-1.62968" x2="24.996" y2="88.4084" gradientUnits="userSpaceOnUse">
<stop stop-color="#2AF598"/>
<stop offset="1" stop-color="#009EFD"/>
</linearGradient>
<linearGradient id="paint1_linear_3_12530" x1="24.996" y1="-1.62972" x2="24.996" y2="88.4085" gradientUnits="userSpaceOnUse">
<stop stop-color="#2AF598"/>
<stop offset="1" stop-color="#009EFD"/>
</linearGradient>
<linearGradient id="paint2_linear_3_12530" x1="5.31753" y1="-1.62969" x2="5.31753" y2="88.4085" gradientUnits="userSpaceOnUse">
<stop stop-color="#2AF598"/>
<stop offset="1" stop-color="#009EFD"/>
</linearGradient>
<linearGradient id="paint3_linear_3_12530" x1="44.6747" y1="-1.62969" x2="44.6747" y2="88.4085" gradientUnits="userSpaceOnUse">
<stop stop-color="#2AF598"/>
<stop offset="1" stop-color="#009EFD"/>
</linearGradient>
<linearGradient id="paint4_linear_3_12530" x1="24.996" y1="-1.62969" x2="24.996" y2="88.4085" gradientUnits="userSpaceOnUse">
<stop stop-color="#2AF598"/>
<stop offset="1" stop-color="#009EFD"/>
</linearGradient>
<linearGradient id="paint5_linear_3_12530" x1="5.31753" y1="-1.62967" x2="5.31753" y2="88.4085" gradientUnits="userSpaceOnUse">
<stop stop-color="#2AF598"/>
<stop offset="1" stop-color="#009EFD"/>
</linearGradient>
<linearGradient id="paint6_linear_3_12530" x1="44.6747" y1="-1.62967" x2="44.6747" y2="88.4085" gradientUnits="userSpaceOnUse">
<stop stop-color="#2AF598"/>
<stop offset="1" stop-color="#009EFD"/>
</linearGradient>
</defs>
</svg>
