<svg width="460" height="168" viewBox="0 0 460 168" fill="none" xmlns="http://www.w3.org/2000/svg">
<rect y="5.80005" width="26" height="22" rx="6" fill="#3C4348" fill-opacity="0.3"/>
<rect x="31" y="5.80005" width="27" height="22" rx="6" fill="#3C4348" fill-opacity="0.3"/>
<rect x="63" y="5.80005" width="27" height="22" rx="6" fill="#3C4348" fill-opacity="0.3"/>
<rect x="95" y="5.80005" width="27" height="22" rx="6" fill="#3C4348" fill-opacity="0.3"/>
<rect x="127" y="5.80005" width="26" height="22" rx="6" fill="#3C4348" fill-opacity="0.3"/>
<rect x="158" y="5.80005" width="27" height="22" rx="6" fill="#3C4348" fill-opacity="0.3"/>
<rect x="190" y="5.80005" width="27" height="22" rx="6" fill="#3C4348" fill-opacity="0.3"/>
<rect x="222" y="5.80005" width="27" height="22" rx="6" fill="#3C4348" fill-opacity="0.3"/>
<rect x="254" y="5.80005" width="27" height="22" rx="6" fill="#3C4348" fill-opacity="0.3"/>
<rect x="286" y="5.80005" width="26" height="22" rx="6" fill="#3C4348" fill-opacity="0.3"/>
<rect x="317" y="5.80005" width="26" height="22" rx="6" fill="#3C4348" fill-opacity="0.3"/>
<rect x="348" y="5.80005" width="27" height="22" rx="6" fill="#3C4348" fill-opacity="0.3"/>
<rect x="380" y="5.80005" width="27" height="22" rx="6" fill="#3C4348" fill-opacity="0.3"/>
<rect x="412" y="5.80005" width="48" height="22" rx="6" fill="#3C4348" fill-opacity="0.3"/>
<rect width="27" height="22" rx="6" transform="matrix(-1 0 0 1 460 39.4)" fill="#3C4348" fill-opacity="0.3"/>
<rect width="27" height="22" rx="6" transform="matrix(-1 0 0 1 428 39.4)" fill="#3C4348" fill-opacity="0.3"/>
<rect width="26" height="22" rx="6" transform="matrix(-1 0 0 1 396 39.4)" fill="#3C4348" fill-opacity="0.3"/>
<rect width="26" height="22" rx="6" transform="matrix(-1 0 0 1 365 39.4)" fill="#3C4348" fill-opacity="0.3"/>
<rect width="26" height="22" rx="6" transform="matrix(-1 0 0 1 334 39.4)" fill="#3C4348" fill-opacity="0.3"/>
<rect width="27" height="22" rx="6" transform="matrix(-1 0 0 1 303 39.4)" fill="#3C4348" fill-opacity="0.3"/>
<rect width="26" height="22" rx="6" transform="matrix(-1 0 0 1 271 39.4)" fill="#3C4348" fill-opacity="0.3"/>
<rect width="27" height="22" rx="6" transform="matrix(-1 0 0 1 240 39.4)" fill="#3C4348" fill-opacity="0.3"/>
<rect width="26" height="22" rx="6" transform="matrix(-1 0 0 1 208 39.4)" fill="#3C4348" fill-opacity="0.3"/>
<rect width="27" height="22" rx="6" transform="matrix(-1 0 0 1 177 39.4)" fill="#3C4348" fill-opacity="0.3"/>
<g clip-path="url(#clip0_913_2)">
<rect width="28" height="21" rx="6" transform="matrix(-1 0 0 1 145 40)" fill="#F04E23"/>
<path d="M134.111 53.429V54.8H129.57V53.429H134.111ZM130.145 46.2688V54.8H128.387V46.2688H130.145ZM133.52 49.7434V51.0793H129.57V49.7434H133.52ZM134.105 46.2688V47.6458H129.57V46.2688H134.105Z" fill="white"/>
</g>
<rect width="28" height="21" rx="6" transform="matrix(-1 0 0 1 112 40)" fill="#F04E23"/>
<path d="M96.0684 53.6465L97.7676 46.4688H98.7168L98.9336 47.6641L97.123 55H96.1035L96.0684 53.6465ZM95.1953 46.4688L96.6016 53.6465L96.4844 55H95.3477L93.4551 46.4688H95.1953ZM100.428 53.6172L101.816 46.4688H103.557L101.67 55H100.533L100.428 53.6172ZM99.25 46.4688L100.961 53.6758L100.914 55H99.8945L98.0723 47.6582L98.3066 46.4688H99.25Z" fill="white"/>
<rect width="28" height="21" rx="6" transform="matrix(-1 0 0 1 79 40)" fill="#F04E23"/>
<path d="M66.2598 53.7344L68.5684 55.5625L67.4609 56.5234L65.1875 54.6953L66.2598 53.7344ZM68.627 50.5352V50.9395C68.627 51.5879 68.5391 52.1699 68.3633 52.6855C68.1914 53.2012 67.9434 53.6406 67.6191 54.0039C67.2949 54.3633 66.9121 54.6387 66.4707 54.8301C66.0293 55.0215 65.5391 55.1172 65 55.1172C64.4648 55.1172 63.9746 55.0215 63.5293 54.8301C63.084 54.6387 62.6992 54.3633 62.375 54.0039C62.0508 53.6406 61.7988 53.2012 61.6191 52.6855C61.4434 52.1699 61.3555 51.5879 61.3555 50.9395V50.5352C61.3555 49.8828 61.4434 49.3008 61.6191 48.7891C61.7988 48.2734 62.0488 47.834 62.3691 47.4707C62.6895 47.1074 63.0723 46.8301 63.5176 46.6387C63.9629 46.4473 64.4531 46.3516 64.9883 46.3516C65.5273 46.3516 66.0176 46.4473 66.459 46.6387C66.9043 46.8301 67.2891 47.1074 67.6133 47.4707C67.9375 47.834 68.1875 48.2734 68.3633 48.7891C68.5391 49.3008 68.627 49.8828 68.627 50.5352ZM66.8516 50.9395V50.5234C66.8516 50.0703 66.8086 49.6719 66.7227 49.3281C66.6406 48.9844 66.5195 48.6953 66.3594 48.4609C66.2031 48.2266 66.0098 48.0508 65.7793 47.9336C65.5488 47.8125 65.2852 47.752 64.9883 47.752C64.6914 47.752 64.4277 47.8125 64.1973 47.9336C63.9668 48.0508 63.7734 48.2266 63.6172 48.4609C63.4609 48.6953 63.3418 48.9844 63.2598 49.3281C63.1777 49.6719 63.1367 50.0703 63.1367 50.5234V50.9395C63.1367 51.3887 63.1777 51.7871 63.2598 52.1348C63.3418 52.4785 63.4609 52.7695 63.6172 53.0078C63.7773 53.2422 63.9727 53.4199 64.2031 53.541C64.4375 53.6621 64.7031 53.7227 65 53.7227C65.2969 53.7227 65.5586 53.6621 65.7852 53.541C66.0156 53.4199 66.209 53.2422 66.3652 53.0078C66.5254 52.7695 66.6465 52.4785 66.7285 52.1348C66.8105 51.7871 66.8516 51.3887 66.8516 50.9395Z" fill="white"/>
<rect width="45" height="22" rx="6" transform="matrix(-1 0 0 1 45 39.4)" fill="#3C4348" fill-opacity="0.3"/>
<rect width="28" height="22" rx="6" transform="matrix(-1 0 0 1 460 73)" fill="#3C4348" fill-opacity="0.3"/>
<rect width="29" height="22" rx="6" transform="matrix(-1 0 0 1 427 73)" fill="#3C4348" fill-opacity="0.3"/>
<rect width="28" height="22" rx="6" transform="matrix(-1 0 0 1 393 73)" fill="#3C4348" fill-opacity="0.3"/>
<rect width="29" height="22" rx="6" transform="matrix(-1 0 0 1 360 73)" fill="#3C4348" fill-opacity="0.3"/>
<rect width="28" height="22" rx="6" transform="matrix(-1 0 0 1 326 73)" fill="#3C4348" fill-opacity="0.3"/>
<rect width="29" height="22" rx="6" transform="matrix(-1 0 0 1 293 73)" fill="#3C4348" fill-opacity="0.3"/>
<rect width="28" height="22" rx="6" transform="matrix(-1 0 0 1 259 73)" fill="#3C4348" fill-opacity="0.3"/>
<rect width="28" height="22" rx="6" transform="matrix(-1 0 0 1 226 73)" fill="#3C4348" fill-opacity="0.3"/>
<rect width="29" height="22" rx="6" transform="matrix(-1 0 0 1 193 73)" fill="#3C4348" fill-opacity="0.3"/>
<g clip-path="url(#clip1_913_2)">
<rect width="28" height="22" rx="6" transform="matrix(-1 0 0 1 159 73)" fill="#F04E23"/>
<path d="M144.479 88H142.621L142.633 86.6289H144.479C144.939 86.6289 145.328 86.5254 145.645 86.3184C145.961 86.1074 146.199 85.8008 146.359 85.3984C146.523 84.9961 146.605 84.5098 146.605 83.9395V83.5234C146.605 83.0859 146.559 82.7012 146.465 82.3691C146.375 82.0371 146.24 81.7578 146.061 81.5312C145.881 81.3047 145.66 81.1348 145.398 81.0215C145.137 80.9043 144.836 80.8457 144.496 80.8457H142.586V79.4688H144.496C145.066 79.4688 145.588 79.5664 146.061 79.7617C146.537 79.9531 146.949 80.2285 147.297 80.5879C147.645 80.9473 147.912 81.377 148.1 81.877C148.291 82.373 148.387 82.9258 148.387 83.5352V83.9395C148.387 84.5449 148.291 85.0977 148.1 85.5977C147.912 86.0977 147.645 86.5273 147.297 86.8867C146.953 87.2422 146.541 87.5176 146.061 87.7129C145.584 87.9043 145.057 88 144.479 88ZM143.617 79.4688V88H141.859V79.4688H143.617Z" fill="white"/>
</g>
<rect width="28" height="22" rx="6" transform="matrix(-1 0 0 1 126 73)" fill="#F04E23"/>
<path d="M113.839 85.7676C113.839 85.6152 113.816 85.4785 113.769 85.3574C113.726 85.2324 113.644 85.1191 113.523 85.0176C113.402 84.9121 113.232 84.8086 113.013 84.707C112.794 84.6055 112.511 84.5 112.163 84.3906C111.777 84.2656 111.409 84.125 111.062 83.9688C110.718 83.8125 110.413 83.6309 110.148 83.4238C109.886 83.2129 109.679 82.9688 109.527 82.6914C109.378 82.4141 109.304 82.0918 109.304 81.7246C109.304 81.3691 109.382 81.0469 109.538 80.7578C109.695 80.4648 109.913 80.2148 110.195 80.0078C110.476 79.7969 110.808 79.6348 111.191 79.5215C111.577 79.4082 112.001 79.3516 112.462 79.3516C113.091 79.3516 113.64 79.4648 114.109 79.6914C114.577 79.918 114.941 80.2285 115.198 80.623C115.46 81.0176 115.591 81.4688 115.591 81.9766H113.845C113.845 81.7266 113.792 81.5078 113.687 81.3203C113.585 81.1289 113.429 80.9785 113.218 80.8691C113.011 80.7598 112.749 80.7051 112.433 80.7051C112.128 80.7051 111.874 80.752 111.671 80.8457C111.468 80.9355 111.316 81.0586 111.214 81.2148C111.113 81.3672 111.062 81.5391 111.062 81.7305C111.062 81.875 111.097 82.0059 111.167 82.123C111.241 82.2402 111.351 82.3496 111.495 82.4512C111.64 82.5527 111.818 82.6484 112.029 82.7383C112.24 82.8281 112.484 82.916 112.761 83.002C113.226 83.1426 113.634 83.3008 113.986 83.4766C114.341 83.6523 114.638 83.8496 114.876 84.0684C115.115 84.2871 115.294 84.5352 115.415 84.8125C115.536 85.0898 115.597 85.4043 115.597 85.7559C115.597 86.127 115.525 86.459 115.38 86.752C115.236 87.0449 115.027 87.293 114.753 87.4961C114.48 87.6992 114.154 87.8535 113.775 87.959C113.396 88.0645 112.972 88.1172 112.503 88.1172C112.081 88.1172 111.665 88.0625 111.255 87.9531C110.845 87.8398 110.472 87.6699 110.136 87.4434C109.804 87.2168 109.538 86.9277 109.339 86.5762C109.14 86.2246 109.04 85.8086 109.04 85.3281H110.804C110.804 85.5938 110.845 85.8184 110.927 86.002C111.009 86.1855 111.124 86.334 111.273 86.4473C111.425 86.5605 111.605 86.6426 111.812 86.6934C112.023 86.7441 112.253 86.7695 112.503 86.7695C112.808 86.7695 113.058 86.7266 113.253 86.6406C113.452 86.5547 113.599 86.4355 113.693 86.2832C113.79 86.1309 113.839 85.959 113.839 85.7676Z" fill="white"/>
<g clip-path="url(#clip2_913_2)">
<rect width="28" height="22" rx="6" transform="matrix(-1 0 0 1 92 73)" fill="#F04E23"/>
<path d="M77.866 80.9277L75.5457 88H73.6765L76.8464 79.4688H78.0359L77.866 80.9277ZM79.7937 88L77.4675 80.9277L77.28 79.4688H78.4812L81.6687 88H79.7937ZM79.6882 84.8242V86.2012H75.1824V84.8242H79.6882Z" fill="white"/>
</g>
<rect width="59" height="22" rx="6" transform="matrix(-1 0 0 1 59 73)" fill="#3C4348" fill-opacity="0.3"/>
<rect width="30" height="22" rx="6" transform="matrix(-1 0 0 1 460 106.6)" fill="#3C4348" fill-opacity="0.3"/>
<rect width="31" height="22" rx="6" transform="matrix(-1 0 0 1 425 106.6)" fill="#3C4348" fill-opacity="0.3"/>
<rect width="30" height="22" rx="6" transform="matrix(-1 0 0 1 389 106.6)" fill="#3C4348" fill-opacity="0.3"/>
<rect width="30" height="22" rx="6" transform="matrix(-1 0 0 1 354 106.6)" fill="#3C4348" fill-opacity="0.3"/>
<rect width="30" height="22" rx="6" transform="matrix(-1 0 0 1 319 106.6)" fill="#3C4348" fill-opacity="0.3"/>
<rect width="30" height="22" rx="6" transform="matrix(-1 0 0 1 284 106.6)" fill="#3C4348" fill-opacity="0.3"/>
<rect width="33" height="22" rx="6" transform="matrix(-1 0 0 1 249 106.6)" fill="#3C4348" fill-opacity="0.3"/>
<rect width="30" height="22" rx="6" transform="matrix(-1 0 0 1 211 106.6)" fill="#3C4348" fill-opacity="0.3"/>
<rect width="30" height="22" rx="6" transform="matrix(-1 0 0 1 176 106.6)" fill="#3C4348" fill-opacity="0.3"/>
<rect width="30" height="22" rx="6" transform="matrix(-1 0 0 1 141 106.6)" fill="#3C4348" fill-opacity="0.3"/>
<g clip-path="url(#clip3_913_2)">
<rect width="28" height="22" rx="6" transform="matrix(-1 0 0 1 106 107)" fill="#F04E23"/>
<path d="M95.2871 120.629V122H89.2402V120.629H95.2871ZM95.1992 114.447L90.0195 122H88.7832V120.992L94.0039 113.469H95.1992V114.447ZM94.5957 113.469V114.846H88.7891V113.469H94.5957Z" fill="white"/>
</g>
<rect width="73" height="20" rx="6" transform="matrix(-1 0 0 1 73 107.6)" fill="#3C4348" fill-opacity="0.3"/>
<rect width="28.4771" height="12" rx="3" transform="matrix(-1 0 0 1 460 150)" fill="#3C4348" fill-opacity="0.3"/>
<path d="M393.073 149.7L427.073 149.7V143.2C427.073 141.543 425.73 140.2 424.073 140.2L396.073 140.2C394.417 140.2 393.073 141.543 393.073 143.2V149.7Z" fill="#3C4348" fill-opacity="0.3"/>
<path d="M427.073 152.7H393.073V159.2C393.073 160.857 394.417 162.2 396.073 162.2H424.073C425.73 162.2 427.073 160.857 427.073 159.2V152.7Z" fill="#3C4348" fill-opacity="0.3"/>
<rect width="26.6973" height="12" rx="3" transform="matrix(-1 0 0 1 389.697 150.177)" fill="#3C4348" fill-opacity="0.3"/>
<rect width="29" height="22" rx="6" transform="matrix(-1 0 0 1 358 140.2)" fill="#3C4348" fill-opacity="0.3"/>
<rect width="28" height="22" rx="6" transform="matrix(-1 0 0 1 324 140.2)" fill="#3C4348" fill-opacity="0.3"/>
<g clip-path="url(#clip4_913_2)">
<rect width="156" height="21" rx="6" transform="matrix(-1 0 0 1 289 140)" fill="#F04E23"/>
</g>
<rect width="28" height="22" rx="6" transform="matrix(-1 0 0 1 128 140.2)" fill="#3C4348" fill-opacity="0.3"/>
<rect width="29" height="22" rx="6" transform="matrix(-1 0 0 1 95 140.2)" fill="#3C4348" fill-opacity="0.3"/>
<rect width="28" height="22" rx="6" transform="matrix(-1 0 0 1 61 140.2)" fill="#3C4348" fill-opacity="0.3"/>
<rect width="28" height="22" rx="6" transform="matrix(-1 0 0 1 28 140.2)" fill="#3C4348" fill-opacity="0.3"/>
<defs>
<clipPath id="clip0_913_2">
<rect width="28" height="22" fill="white" transform="matrix(-1 0 0 1 145 39.4)"/>
</clipPath>
<clipPath id="clip1_913_2">
<rect width="28" height="22" fill="white" transform="matrix(-1 0 0 1 159 73)"/>
</clipPath>
<clipPath id="clip2_913_2">
<rect width="28" height="22" fill="white" transform="matrix(-1 0 0 1 92 73)"/>
</clipPath>
<clipPath id="clip3_913_2">
<rect width="28" height="22" fill="white" transform="matrix(-1 0 0 1 106 106.6)"/>
</clipPath>
<clipPath id="clip4_913_2">
<rect width="158" height="22" fill="white" transform="matrix(-1 0 0 1 291 140.2)"/>
</clipPath>
</defs>
</svg>
