<svg width="18" height="18" viewBox="0 0 18 18" fill="none" xmlns="http://www.w3.org/2000/svg">
<g clip-path="url(#clip0_1_6093)">
<path d="M9.30316 6.24847C9.71684 5.73974 10.4629 5.66268 10.969 6.07482C11.4761 6.4885 11.5537 7.23305 11.1415 7.74122L2.6461 17.5622C2.23453 18.0691 1.48998 18.1452 0.980823 17.7338C0.473771 17.3211 0.397277 16.5755 0.809274 16.0689L9.30316 6.24847ZM10.426 6.74442C10.3596 6.69138 10.275 6.66667 10.1906 6.67565C10.1061 6.68463 10.0286 6.72657 9.97487 6.79237L9.27363 7.65348C9.37178 7.69567 9.46725 7.74797 9.55331 7.81716C9.63978 7.88788 9.70897 7.96958 9.7707 8.05676L10.4714 7.19719C10.5826 7.05784 10.5621 6.85522 10.426 6.74442Z" fill="#2C3D55"/>
<path d="M10.8354 12.4016C10.9312 12.4016 11.0253 12.3762 11.108 12.3279C11.1908 12.2796 11.2592 12.2101 11.3062 12.1267L13.1745 8.80959L16.9643 8.46664C17.0647 8.4575 17.1605 8.4205 17.241 8.3598C17.3214 8.2991 17.3833 8.21712 17.4196 8.12312C17.4559 8.02903 17.4651 7.92667 17.4463 7.8276C17.4275 7.72854 17.3813 7.63671 17.3131 7.56249L14.7367 4.76331L15.5818 1.05084C15.6042 0.952552 15.5986 0.84997 15.5657 0.754684C15.5329 0.659398 15.474 0.575205 15.3958 0.511621C15.3176 0.448036 15.2231 0.407594 15.1232 0.394866C15.0232 0.382137 14.9216 0.397628 14.83 0.43959L11.3696 2.02571L8.10078 0.0762454C8.01415 0.0246846 7.91483 -0.00164883 7.81404 0.000214532C7.71324 0.0020779 7.61497 0.0320639 7.53031 0.0867914C7.44562 0.141511 7.37796 0.218859 7.33499 0.310069C7.29202 0.401278 7.27546 0.502701 7.28719 0.602842L7.72731 4.3821L4.86161 6.88924C4.70215 7.0283 4.63888 7.24724 4.69906 7.44958C4.75924 7.65192 4.93234 7.80125 5.14129 7.83078L6.47093 8.01963C6.61193 8.03784 6.75442 7.99976 6.86755 7.91365C6.98067 7.82754 7.05531 7.70033 7.0753 7.55957C7.09529 7.41881 7.05903 7.27585 6.97435 7.16164C6.88968 7.04744 6.76342 6.97119 6.62293 6.94942L6.45996 6.9265L8.65268 5.00825C8.71862 4.9506 8.76953 4.87777 8.80104 4.79605C8.83254 4.71432 8.84369 4.62616 8.83351 4.53917L8.48732 1.56506L11.0598 3.09915C11.1351 3.14379 11.2201 3.16958 11.3074 3.1743C11.3948 3.17903 11.482 3.16256 11.5617 3.12629L14.2852 1.87792L13.6201 4.80029C13.6007 4.8857 13.6023 4.97455 13.6248 5.0592C13.6473 5.14386 13.6901 5.22177 13.7493 5.28625L15.7769 7.48923L12.7943 7.75907C12.7072 7.76707 12.6233 7.79606 12.5498 7.84357C12.4764 7.89108 12.4155 7.95569 12.3725 8.03186L10.9024 10.6419L10.7509 10.2867C10.6946 10.1549 10.5883 10.0509 10.4553 9.99745C10.3223 9.94404 10.1735 9.94565 10.0417 10.0019C9.90992 10.0582 9.80586 10.1645 9.75245 10.2975C9.69903 10.4305 9.70064 10.5793 9.75692 10.7111L10.3384 12.0734C10.3798 12.1708 10.4491 12.254 10.5375 12.3123C10.6259 12.3707 10.7295 12.4017 10.8354 12.4016Z" fill="#2C3D55"/>
</g>
<defs>
<clipPath id="clip0_1_6093">
<rect width="18" height="18" fill="white" transform="matrix(-1 0 0 1 18 0)"/>
</clipPath>
</defs>
</svg>
