<svg width="631" height="370" viewBox="0 0 631 370" fill="none" xmlns="http://www.w3.org/2000/svg">
<g filter="url(#filter0_d_13_6435)">
<path d="M547.611 47H83.3787C63.3626 47 47 64.7218 47 86.3867V283.613C47 305.278 63.373 323 83.3787 323H547.611C567.627 323 584 305.278 584 283.613V86.3867C584 64.7218 567.627 47 547.611 47Z" fill="#1D2737"/>
</g>
<g style="mix-blend-mode:screen" opacity="0.7">
<path d="M538.73 75H89.2698C80.8365 75 74 82.4174 74 91.5672V278.433C74 287.583 80.8365 295 89.2698 295H538.73C547.163 295 554 287.583 554 278.433V91.5672C554 82.4174 547.163 75 538.73 75Z" fill="url(#paint0_linear_13_6435)"/>
<path d="M538.73 75H89.2698C80.8365 75 74 82.4174 74 91.5672V278.433C74 287.583 80.8365 295 89.2698 295H538.73C547.163 295 554 287.583 554 278.433V91.5672C554 82.4174 547.163 75 538.73 75Z" fill="url(#paint1_linear_13_6435)"/>
<path d="M538.73 75H89.2698C80.8365 75 74 82.4174 74 91.5672V278.433C74 287.583 80.8365 295 89.2698 295H538.73C547.163 295 554 287.583 554 278.433V91.5672C554 82.4174 547.163 75 538.73 75Z" fill="url(#paint2_linear_13_6435)"/>
<path opacity="0.7" d="M538.73 75H89.2698C80.8365 75 74 82.4174 74 91.5672V278.433C74 287.583 80.8365 295 89.2698 295H538.73C547.163 295 554 287.583 554 278.433V91.5672C554 82.4174 547.163 75 538.73 75Z" fill="url(#paint3_linear_13_6435)"/>
</g>
<g style="mix-blend-mode:screen" opacity="0.5">
<path opacity="0.1" d="M371 75.1633H91.1613C82.277 75.1633 75 82.6119 75 91.7058V278.294C75 287.388 82.277 294.837 91.1613 294.837H272.48" fill="url(#paint4_linear_13_6435)"/>
</g>
<path d="M538.747 76.4431C547.786 76.4431 555.133 84.4044 555.133 94.1986V274.801C555.133 284.596 547.786 292.557 538.747 292.557H92.2533C83.2143 292.557 75.8668 284.596 75.8668 274.801V94.1986C75.8668 84.4044 83.2143 76.4431 92.2533 76.4431H538.747ZM538.747 56H92.2533C72.8676 56 57 73.1821 57 94.1986V274.801C57 295.807 72.8572 313 92.2533 313H538.747C558.132 313 574 295.818 574 274.801V94.1986C574 73.1933 558.143 56 538.747 56Z" fill="#161F2C"/>
<path d="M603.96 136.89H583.39V227.07H603.96V136.89Z" fill="url(#paint5_linear_13_6435)"/>
<g style="mix-blend-mode:overlay" opacity="0.3">
<path d="M603.96 136.89H583.39V178.78H603.96V136.89Z" fill="#C6C0A7"/>
</g>
<path d="M547.611 64.3275C558.842 64.3275 567.991 74.2192 567.991 86.3867V283.613C567.991 295.77 558.852 305.673 547.611 305.673H83.3787C72.1476 305.673 62.9983 295.781 62.9983 283.613V86.3867C62.9983 74.2305 72.1372 64.3275 83.3787 64.3275H547.611ZM547.611 47H83.3787C63.3626 47 47 64.7218 47 86.3867V283.613C47 305.278 63.373 323 83.3787 323H547.611C567.627 323 584 305.278 584 283.613V86.3867C584 64.7218 567.627 47 547.611 47Z" fill="#1D2737"/>
<path opacity="0.02" d="M276.767 305.683H83.353C72.1298 305.683 62.9974 295.791 62.9974 283.623V86.3771C62.9974 74.2203 72.1298 64.3282 83.353 64.3282H374C376.371 58.4582 378.701 52.6784 381 47H83.353C63.351 47 47 64.7225 47 86.3771V283.623C47 305.289 63.3614 323 83.353 323H269.798C272.055 317.4 274.375 311.609 276.767 305.672V305.683Z" fill="white"/>
<defs>
<filter id="filter0_d_13_6435" x="0" y="0" width="631" height="370" filterUnits="userSpaceOnUse" color-interpolation-filters="sRGB">
<feFlood flood-opacity="0" result="BackgroundImageFix"/>
<feColorMatrix in="SourceAlpha" type="matrix" values="0 0 0 0 0 0 0 0 0 0 0 0 0 0 0 0 0 0 127 0" result="hardAlpha"/>
<feOffset/>
<feGaussianBlur stdDeviation="23.5"/>
<feComposite in2="hardAlpha" operator="out"/>
<feColorMatrix type="matrix" values="0 0 0 0 0.10026 0 0 0 0 0.531596 0 0 0 0 0.6875 0 0 0 1 0"/>
<feBlend mode="normal" in2="BackgroundImageFix" result="effect1_dropShadow_13_6435"/>
<feBlend mode="normal" in="SourceGraphic" in2="effect1_dropShadow_13_6435" result="shape"/>
</filter>
<linearGradient id="paint0_linear_13_6435" x1="288.921" y1="-149.751" x2="329.122" y2="306.06" gradientUnits="userSpaceOnUse">
<stop offset="0.0729167" stop-color="#1B2635"/>
<stop offset="0.61" stop-color="#1E2A3A"/>
<stop offset="0.68" stop-color="#161F2C"/>
<stop offset="0.71" stop-color="#161F2C"/>
</linearGradient>
<linearGradient id="paint1_linear_13_6435" x1="288.921" y1="-149.751" x2="329.122" y2="306.06" gradientUnits="userSpaceOnUse">
<stop offset="0.0729167" stop-color="#1B2635"/>
<stop offset="0.61" stop-color="#1E2A3A"/>
<stop offset="0.68" stop-color="#161F2C"/>
<stop offset="0.71" stop-color="#161F2C"/>
</linearGradient>
<linearGradient id="paint2_linear_13_6435" x1="288.921" y1="-149.751" x2="329.122" y2="306.06" gradientUnits="userSpaceOnUse">
<stop offset="0.0729167" stop-color="#1B2635"/>
<stop offset="0.61" stop-color="#1E2A3A"/>
<stop offset="0.68" stop-color="#161F2C"/>
<stop offset="0.71" stop-color="#161F2C"/>
</linearGradient>
<linearGradient id="paint3_linear_13_6435" x1="288.921" y1="-149.751" x2="329.122" y2="306.06" gradientUnits="userSpaceOnUse">
<stop offset="0.0729167" stop-color="#1B2635"/>
<stop offset="0.61" stop-color="#1E2A3A"/>
<stop offset="0.68" stop-color="#161F2C"/>
<stop offset="0.71" stop-color="#161F2C"/>
</linearGradient>
<linearGradient id="paint4_linear_13_6435" x1="199.325" y1="-121.105" x2="236.201" y2="322.216" gradientUnits="userSpaceOnUse">
<stop offset="0.23" stop-color="white"/>
<stop offset="0.5" stop-color="#A09F9F"/>
<stop offset="0.77" stop-color="#464344"/>
<stop offset="0.9" stop-color="#231F20"/>
</linearGradient>
<linearGradient id="paint5_linear_13_6435" x1="593.67" y1="247.42" x2="593.67" y2="117.96" gradientUnits="userSpaceOnUse">
<stop stop-color="#1D2737"/>
<stop offset="0.25" stop-color="#0D131C"/>
<stop offset="1" stop-color="#1D2737"/>
</linearGradient>
</defs>
</svg>
